<?xml version="1.0" encoding="UTF-8" standalone="no"?>
<!-- Created with Inkscape (http://www.inkscape.org/) -->

<svg
   xmlns:dc="http://purl.org/dc/elements/1.1/"
   xmlns:cc="http://creativecommons.org/ns#"
   xmlns:rdf="http://www.w3.org/1999/02/22-rdf-syntax-ns#"
   xmlns:svg="http://www.w3.org/2000/svg"
   xmlns="http://www.w3.org/2000/svg"
   xmlns:xlink="http://www.w3.org/1999/xlink"
   xmlns:sodipodi="http://sodipodi.sourceforge.net/DTD/sodipodi-0.dtd"
   xmlns:inkscape="http://www.inkscape.org/namespaces/inkscape"
   id="svg2"
   xml:space="preserve"
   version="1.1"
   viewBox="0 0 295.81 195.35249"
   inkscape:version="0.48.4 r9939"
   width="100%"
   height="100%"
   sodipodi:docname="pond.svg"><defs
     id="defs3060"><linearGradient
       id="linearGradient4106"><stop
         style="stop-color:#80c1ff;stop-opacity:1;"
         offset="0"
         id="stop4108" /><stop
         id="stop4118"
         offset="0.21945328"
         style="stop-color:#bde8ff;stop-opacity:1;" /><stop
         id="stop4116"
         offset="0.43026447"
         style="stop-color:#8ec6ff;stop-opacity:1;" /><stop
         id="stop4114"
         offset="0.53876209"
         style="stop-color:#bde8ff;stop-opacity:1;" /><stop
         style="stop-color:#79baff;stop-opacity:1;"
         offset="1"
         id="stop4110" /></linearGradient><linearGradient
       inkscape:collect="always"
       xlink:href="#linearGradient4106"
       id="linearGradient4112"
       x1="96.189262"
       y1="6.7397056"
       x2="172.88153"
       y2="194.5088"
       gradientUnits="userSpaceOnUse" /></defs><sodipodi:namedview
     pagecolor="#ffffff"
     bordercolor="#666666"
     borderopacity="1"
     objecttolerance="10"
     gridtolerance="10"
     guidetolerance="10"
     inkscape:pageopacity="0"
     inkscape:pageshadow="2"
     inkscape:window-width="1920"
     inkscape:window-height="1041"
     id="namedview3058"
     showgrid="false"
     inkscape:zoom="2.8971753"
     inkscape:cx="136.2469"
     inkscape:cy="97.8215"
     inkscape:window-x="1920"
     inkscape:window-y="0"
     inkscape:window-maximized="1"
     inkscape:current-layer="svg2" /><metadata
     id="metadata8"><rdf:RDF><cc:Work
         rdf:about=""><dc:format>image/svg+xml</dc:format><dc:type
           rdf:resource="http://purl.org/dc/dcmitype/StillImage" /></cc:Work></rdf:RDF></metadata><path
     id="path98"
     d="m 227.4875,18.725 c -42.1775,0 -79.14375,-22.24375 -129.225003,-6.65 -50.0825,15.5925 -88.215,39.49375 -88.215,88.215 0,48.72125 39.49625,88.21625 88.215,88.21625 61.526253,0 88.691253,-49.74125 129.225003,-53.72875 40.54,-3.99 59.5625,-42.0375 58.0275,-58.02625 0,-32.04125 -25.97875,-58.02 -58.0275,-58.02 z"
     stroke-miterlimit="10"
     inkscape:connector-curvature="0"
     style="fill:url(#linearGradient4112);fill-opacity:1;stroke:#3a8cb5;stroke-width:3.75000000000000000;stroke-miterlimit:10" /><path
     style="opacity:0.60000999;fill:#ebf9ff"
     inkscape:connector-curvature="0"
     d="m 23.342497,80.38875 c 0,0 2.22125,-1.03625 6.11,-2.85125 3.89625,-1.79625 9.46375,-4.36 16.14375,-7.43625 6.695,-3.0425 14.5075,-6.59 22.8775,-10.3925 8.3875,-3.7625 17.335,-7.775 26.2825,-11.78875 C 103.72625,43.95875 112.695,39.9975 121.10375,36.28375 129.53125,32.60875 137.395,29.18 144.1375,26.24 c 6.7575,-2.90375 12.38875,-5.3225 16.33,-7.01625 l 6.20875,-2.63 c 0,0 -2.22125,1.0375 -6.11,2.8525 -3.89625,1.795 -9.4625,4.35875 -16.14375,7.43625 -6.69625,3.04125 -14.50875,6.59 -22.8775,10.39125 -8.38875,3.7625 -17.33625,7.775 -26.283753,11.7875 -8.97,3.96125 -17.93875,7.9225 -26.34875,11.63625 -8.42625,3.675 -16.29125,7.105 -23.03375,10.0425 -6.75625,2.90375 -12.3875,5.32375 -16.32875,7.01875 -3.95125,1.6725 -6.20875,2.63 -6.20875,2.63"
     id="path114" /><path
     style="opacity:0.60000999;fill:#ebf9ff"
     inkscape:connector-curvature="0"
     d="m 92.083747,61.3875 c 0,0 1.3175,-0.635 3.62,-1.745 2.315,-1.085 5.602503,-2.68125 9.582503,-4.515 3.9825,-1.82875 8.60625,-4.01375 13.6,-6.2625 4.99375,-2.25125 10.32125,-4.6525 15.6475,-7.055 5.34875,-2.35 10.69875,-4.7 15.71375,-6.905 5.0125,-2.2075 9.73125,-4.1775 13.75625,-5.9125 4.02625,-1.7325 7.4125,-3.1025 9.76875,-4.09625 2.36625,-0.97 3.71875,-1.5225 3.71875,-1.5225 0,0 -1.3175,0.635 -3.62,1.74375 -2.315,1.08625 -5.60125,2.685 -9.58125,4.5175 -3.98375,1.82875 -8.605,4.01625 -13.60125,6.26125 -4.99375,2.25125 -10.32,4.6525 -15.6475,7.055 -5.34875,2.35 -10.69875,4.7 -15.71375,6.9025 -5.015,2.20625 -9.73125,4.17875 -13.75625,5.91375 -4.0275,1.73125 -7.412503,3.10375 -9.767503,4.09625 -2.3675,0.97 -3.72,1.52375 -3.72,1.52375"
     id="path118" /><path
     style="opacity:0.60000999;fill:#ebf9ff"
     inkscape:connector-curvature="0"
     d="m 80.596247,114.15125 c 0,0 1.3175,-0.63375 3.62,-1.745 2.315,-1.085 5.6025,-2.68125 9.5825,-4.515 3.9825,-1.82875 8.606253,-4.01375 13.600003,-6.2625 4.99375,-2.25125 10.32125,-4.6525 15.6475,-7.055 5.34875,-2.35 10.69875,-4.70125 15.71375,-6.905 5.0125,-2.2075 9.73125,-4.1775 13.75625,-5.91375 4.02625,-1.73125 7.4125,-3.10125 9.76875,-4.095 2.36625,-0.96875 3.71875,-1.5225 3.71875,-1.5225 0,0 -1.31625,0.635 -3.62,1.74375 -2.315,1.08625 -5.60125,2.685 -9.58125,4.5175 -3.98375,1.82875 -8.605,4.01625 -13.60125,6.26125 -4.99375,2.25125 -10.32125,4.6525 -15.6475,7.055 -5.34875,2.35 -10.69875,4.7 -15.71375,6.9025 -5.015,2.20625 -9.731253,4.17875 -13.756253,5.91375 -4.0275,1.73125 -7.4125,3.10375 -9.7675,4.0975 -2.3675,0.96875 -3.72,1.5225 -3.72,1.5225"
     id="path122" /><path
     style="opacity:0.60000999;fill:#ebf9ff"
     inkscape:connector-curvature="0"
     d="m 34.098747,138.43625 c 0,0 14.16875,-6.46 35.4225,-16.15 10.645,-4.8 23.0675,-10.39875 36.375003,-16.39875 13.32625,-5.96125 27.54125,-12.31875 41.755,-18.675 C 161.8875,80.90625 176.125,74.6 189.4725,68.6875 c 13.365,-5.8725 25.84,-11.3525 36.53,-16.05125 21.425,-9.30375 35.70875,-15.5075 35.70875,-15.5075 0,0 -14.16875,6.46 -35.42125,16.15125 -10.6375,4.79875 -23.0625,10.39875 -36.375,16.39875 -13.325,5.96 -27.5375,12.3175 -41.7525,18.675 -14.2375,6.305 -28.47375,12.61 -41.8225,18.5225 -13.363753,5.8725 -25.838753,11.35375 -36.531253,16.05125 -21.42375,9.305 -35.70625,15.50875 -35.70625,15.50875"
     id="path126" /><path
     style="opacity:0.60000999;fill:#ebf9ff"
     inkscape:connector-curvature="0"
     d="m 52.197497,165.315 c 0,0 14.16875,-6.46 35.4225,-16.15 10.645,-4.8 23.067503,-10.39875 36.375003,-16.39875 13.32625,-5.96125 27.54125,-12.31875 41.755,-18.675 14.23625,-6.30625 28.47375,-12.6125 41.82125,-18.525 13.365,-5.87125 25.84,-11.3525 36.53,-16.05125 21.425,-9.30375 35.70875,-15.5075 35.70875,-15.5075 0,0 -14.16875,6.46 -35.42125,16.15125 -10.6475,4.8 -23.0675,10.39875 -36.37625,16.39875 -13.325,5.96 -27.5375,12.3175 -41.7525,18.675 -14.2375,6.30625 -28.47375,12.61 -41.8225,18.5225 -13.36375,5.8725 -25.838753,11.3525 -36.531253,16.05125 -21.42375,9.305 -35.70625,15.50875 -35.70625,15.50875"
     id="path130" /><path
     style="opacity:0.60000999;fill:#ebf9ff"
     inkscape:connector-curvature="0"
     d="m 59.697497,158.325 c 0,0 12.66125,-5.78875 31.65125,-14.47125 C 100.865,139.5575 111.965,134.545 123.86,129.175 c 11.91125,-5.33125 24.6175,-11.01875 37.32375,-16.705 12.73,-5.63375 25.45875,-11.26875 37.3925,-16.5525 11.95,-5.2425 23.105,-10.13625 32.665,-14.33125 19.1625,-8.29625 31.9375,-13.82875 31.9375,-13.82875 0,0 -12.66,5.78875 -31.65,14.4725 -9.5125,4.29625 -20.6125,9.3075 -32.5,14.67875 -11.9125,5.33125 -24.62375,11.0175 -37.33,16.7025 -12.73,5.635 -25.45875,11.27 -37.39125,16.5525 -11.9525,5.2425 -23.10625,10.13625 -32.667503,14.33125 -19.16125,8.2975 -31.93625,13.83 -31.93625,13.83"
     id="path134" /><path
     id="path138"
     d="m 72.168747,129.2575 c -5.31875,2.86625 -7.94,8.785 -6.86125,14.42 5.09875,-0.73625 12.0025,-1.8475 12.0025,-1.8475 l -7.86125,9.2725 c 4.12,3.7775 10.335,4.735 15.5325,1.9325 6.56625,-3.5375 9.02125,-11.7275 5.48375,-18.29375 -3.53875,-6.56625 -11.73,-9.02125 -18.29625,-5.48375"
     inkscape:connector-curvature="0"
     style="fill:#2cb59b" /><path
     id="path142"
     d="m 72.168747,129.2575 c -5.31875,2.86625 -7.94,8.785 -6.86125,14.42 5.09875,-0.73625 12.0025,-1.8475 12.0025,-1.8475 l -7.86125,9.2725 c 4.12,3.7775 10.335,4.735 15.5325,1.9325 6.56625,-3.5375 9.02125,-11.7275 5.48375,-18.29375 -3.53875,-6.56625 -11.73,-9.02125 -18.29625,-5.48375 z"
     stroke-miterlimit="10"
     inkscape:connector-curvature="0"
     style="fill:none;stroke:#009381;stroke-width:3.75;stroke-miterlimit:10" /><path
     id="path146"
     d="m 119.74125,120.52125 c 5.9,1.29875 11.7475,-1.475 14.61,-6.4475 -4.345,-2.77125 -10.3025,-6.43375 -10.3025,-6.43375 l 12.00875,-1.895 c -0.6575,-5.5525 -4.74,-10.3325 -10.5075,-11.6025 -7.28375,-1.605 -14.48875,3 -16.095,10.28375 -1.60375,7.285 3.00125,14.49 10.28625,16.095"
     inkscape:connector-curvature="0"
     style="fill:#2cb59b" /><path
     id="path150"
     d="m 119.74125,120.52125 c 5.9,1.29875 11.7475,-1.475 14.61,-6.4475 -4.345,-2.77125 -10.3025,-6.43375 -10.3025,-6.43375 l 12.00875,-1.895 c -0.6575,-5.5525 -4.74,-10.3325 -10.5075,-11.6025 -7.28375,-1.605 -14.48875,3 -16.095,10.28375 -1.60375,7.285 3.00125,14.49 10.28625,16.095 z"
     stroke-miterlimit="10"
     inkscape:connector-curvature="0"
     style="fill:none;stroke:#009381;stroke-width:3.75;stroke-miterlimit:10" /><path
     id="path154"
     d="m 110.84375,109.09625 c -0.87625,-2.8525 1.19125,-8.165 4.93625,-7.56375 -0.0312,-5.54625 7.55125,-6.29375 11.6475,-4.43875 5.51,2.4975 4.34875,7.32875 -1.87625,6.5875 0.28625,0.0812 0.7575,0.0325 1.065,0.0613 0.42375,2.63875 -2.83375,3.90875 -4.815,4.82125 3.67625,0.78125 3.54875,3.0125 5.2625,5.22875 0.9175,1.18625 3.5975,0.73125 2.975,3.24125 -0.325,1.315 -3.145,1.8025 -4.195,2.0625 -3.2925,0.81375 -6.12375,-0.0375 -9.1775,-1.355 -1.83625,-0.7925 -7.50625,-4.3775 -3.03125,-5.7375 -2.025,0.32875 -2.81125,-0.94125 -2.375,-2.9075 h -0.41625 z"
     inkscape:connector-curvature="0"
     style="fill:#eef7ff" /><path
     id="path158"
     d="m 111.26,108.05625 h -0.41625 c -0.09,-0.295 -0.1425,-0.6225 -0.1725,-0.9625 -0.0575,0.72375 -0.009,1.415 0.1725,2.0025 h 0.315 c -0.007,-0.32 0.0175,-0.66125 0.10125,-1.04"
     inkscape:connector-curvature="0"
     style="fill:#b6e7ef" /><path
     id="path166"
     d="m 113.635,110.96375 c 0,-0.56625 -2.2575,-0.36 -2.44,-1.43625 -0.15375,1.15 0.1625,1.99625 0.9525,2.34375 2.36625,0.635 1.78,-0.38 1.4875,-0.9075"
     inkscape:connector-curvature="0"
     style="fill:#b6e7ef" /><path
     id="path170"
     d="m 126.6125,102.715 c 0.41125,2.63 -4.1875,4.46875 -6.16625,5.38125 0.5225,0.11125 0.96375,0.3025 1.34875,0.46875 1.82,-0.875 5.41,-2.19 4.8175,-4.81 3.155,0.055 4.67625,-1.49875 4.28125,-3.26125 -0.29875,1.28875 -1.77,2.265 -4.28125,2.22125"
     inkscape:connector-curvature="0"
     style="fill:#b6e7ef" /><path
     id="path174"
     d="m 130.0375,115.99375 c -0.32625,1.31625 -3.14625,1.8025 -4.195,2.0625 -3.2925,0.815 -6.125,-0.0375 -9.1775,-1.355 -1.19,-0.51375 -3.98,-2.2 -4.5825,-3.695 -0.87125,1.64 3.1,4.09625 4.5825,4.735 3.0525,1.3175 5.885,2.17 9.1775,1.355 1.04875,-0.26 3.86875,-0.74625 4.195,-2.0625 0.1225,-0.49 0.115,-0.86375 0.0225,-1.1625 -0.009,0.0438 -0.0112,0.0787 -0.0225,0.1225"
     inkscape:connector-curvature="0"
     style="fill:#b6e7ef" /><path
     id="path178"
     d="m 58.806247,74.785 c -5.8125,-1.64125 -11.81375,0.78625 -14.96125,5.5825 4.175,3.01875 6.705,6.27125 6.705,6.27125 l -8.8975,1.9425 c 0.33,5.58125 4.12875,10.5925 9.81125,12.1975 7.17625,2.0275 14.64,-2.1475 16.66875,-9.325 2.02625,-7.1775 -2.14875,-14.64 -9.32625,-16.66875"
     inkscape:connector-curvature="0"
     style="fill:#2cb59b" /><path
     id="path182"
     d="m 58.806247,74.785 c -5.8125,-1.64125 -11.81375,0.78625 -14.96125,5.5825 4.175,3.01875 6.705,6.27125 6.705,6.27125 l -8.8975,1.9425 c 0.33,5.58125 4.12875,10.5925 9.81125,12.1975 7.17625,2.0275 14.64,-2.1475 16.66875,-9.325 2.02625,-7.1775 -2.14875,-14.64 -9.32625,-16.66875 z"
     stroke-miterlimit="10"
     inkscape:connector-curvature="0"
     style="fill:none;stroke:#009381;stroke-width:3.75;stroke-miterlimit:10" /><path
     id="path186"
     d="m 68.731247,86.35125 c 0,-5.64125 -4.5725,-10.21375 -10.21375,-10.21375 -5.6425,0 -10.215,4.5725 -10.215,10.21375 0,0.80125 0.10125,1.57625 0.27625,2.3225 -0.03,0.0012 -0.0588,-0.005 -0.0875,-0.0025 -1.8125,0.14 -3.16875,1.72 -3.02875,3.5325 0.1325,1.74 1.6,3.04625 3.32375,3.02375 0.22625,2.8175 2.55625,5.04125 5.43375,5.04125 2.415,0 4.44375,-1.575 5.17125,-3.74625 5.23125,-0.445 9.34,-4.82625 9.34,-10.17125"
     inkscape:connector-curvature="0"
     style="fill:#eef7ff" /><path
     id="path190"
     d="m 59.392497,94.60125 c -0.7275,2.17125 -2.75625,3.74625 -5.1725,3.74625 -2.87625,0 -5.2075,-2.2225 -5.4325,-5.04125 -1.48,0.01875 -2.76375,-0.9425 -3.18375,-2.315 -0.1175,0.3825 -0.17375,0.78875 -0.14125,1.21125 0.13375,1.74125 1.60125,3.0475 3.325,3.02375 0.225,2.81875 2.55625,5.04125 5.4325,5.04125 2.41625,0 4.445,-1.575 5.1725,-3.74625 5.23125,-0.44375 9.34,-4.825 9.34,-10.17125 0,-0.31625 -0.02,-0.62625 -0.0475,-0.935 -0.4675,4.89 -4.38625,8.77 -9.2925,9.18625"
     inkscape:connector-curvature="0"
     style="fill:#b6e7ef" /><path
     id="path198"
     d="m 67.092497,140.86625 c -5.0725,-9.4025 11.915,-11.16125 16.8675,-10.32 20.742503,3.5375 -2.60375,24.865 -8.20875,18.76375 -2.6025,-2.8325 2.2325,-4.4625 3.4975,-5.88125 -1.86,0.0625 -3.02125,-1.4375 -3.39875,-3.05375 -2.0275,1.47125 -6.77875,3.49625 -8.7575,0.49125"
     inkscape:connector-curvature="0"
     style="fill:#eef7ff" /><path
     id="path202"
     d="m 79.242497,143.42875 c 0.35625,-0.2525 0.67,-0.495 0.88,-0.73 -1.85875,0.0625 -3.02125,-1.43625 -3.39875,-3.0525 -2.0275,1.47 -6.7775,3.49625 -8.7575,0.49 -1.55875,-2.88875 -1.02875,-5.05375 0.58875,-6.64625 -2.26375,1.6375 -3.27375,4.0175 -1.4625,7.37625 1.97875,3.005 6.73,0.98 8.7575,-0.49 0.3775,1.615 1.5375,3.11125 3.3925,3.0525"
     inkscape:connector-curvature="0"
     style="fill:#b6e7ef" /><path
     id="path206"
     d="m 76.624997,148.58 c -1.2275,-1.33625 -0.79375,-2.40375 0.13375,-3.30875 -1.43125,1.0525 -2.5825,2.325 -1.0075,4.03875 2.255,2.455 7.38375,0.465 11.35625,-3.01625 -3.8225,3.01625 -8.38875,4.565 -10.4825,2.28625"
     inkscape:connector-curvature="0"
     style="fill:#b6e7ef" /><path
     id="path210"
     d="m 160.975,168.65375 c -0.0425,0.09 0.06,-0.30625 0.0775,-0.60375 0.035,-0.3125 0.0525,-0.64125 0.07,-0.9675 0.0325,-0.65625 0.045,-1.32 0.0538,-1.985 0.0137,-1.33 0.001,-2.66625 -0.0188,-4.00125 C 161.11,158.425 161.02875,155.75 160.9225,153.08 l 0.29875,0.4425 -7.9675,-3.7175 -1.995,-0.91875 -0.9975,-0.45125 -0.48625,-0.21 c 0.005,-0.001 -0.0763,-0.0212 0.0212,0 -0.4375,0.1575 0.69375,-0.07 0.3875,-0.695 l -0.0337,-0.0387 c -0.0288,-0.025 -0.06,-0.0425 -0.045,-0.035 l 0.005,0.004 0.004,0.002 c -0.055,-0.0213 0.12625,0.0487 -0.12375,-0.0463 l 0.135,0.0138 c 0.0213,-0.045 -0.0213,-0.035 0.0475,-0.0538 0.61625,-0.225 1.275,-0.585 1.9075,-0.92625 0.6375,-0.3475 1.2675,-0.715 1.8975,-1.085 5.02375,-2.99125 9.94,-6.1975 14.83625,-9.41375 l -0.11625,0.175 4.525,-21.9975 0.007,0.0688 -6.55375,-16.5225 6.7775,16.43125 0.0137,0.0325 -0.006,0.0362 -4.225,22.0575 -0.02,0.11 -0.095,0.065 c -4.86125,3.28875 -9.72875,6.5575 -14.7375,9.63625 -0.62875,0.38125 -1.26125,0.76 -1.90625,1.12375 -0.6525,0.36125 -1.275,0.72375 -2.03375,1.01375 -0.1025,0.0425 -0.32875,0.0825 -0.48375,0.0863 l -0.1375,-0.0113 c -0.2575,-0.095 -0.0775,-0.0312 -0.13875,-0.0538 l -0.0112,-0.006 -0.025,-0.015 c 0.004,0.004 -0.0362,-0.0225 -0.0725,-0.0538 l -0.0475,-0.0487 c -0.305,-0.63 0.8325,-0.85875 0.4,-0.7 0.14375,0.0337 0.10375,0.0312 0.1525,0.045 l 0.52625,0.2175 1.0125,0.44125 2.01125,0.89375 8.02375,3.61 0.2825,0.1275 0.0162,0.31625 c 0.1425,2.68 0.26125,5.35625 0.34375,8.04125 0.04,1.34125 0.07,2.68375 0.075,4.03125 0,0.67375 -0.004,1.35 -0.0275,2.03125 -0.0125,0.3425 -0.0275,0.6825 -0.06,1.03625 -0.0137,0.175 -0.0375,0.3575 -0.0662,0.5475 -0.0288,0.12125 -0.0188,0.15125 -0.0813,0.35 -0.0387,0.10625 -0.09,0.21125 -0.14625,0.30375 -0.0513,0.0787 -0.0588,0.08 -0.09,0.1225 l -0.925,-0.84 z"
     inkscape:connector-curvature="0"
     style="fill:#3a8cb5" /><path
     id="path214"
     d="m 150.3875,148.525 -13.2125,-6.51375 -0.6825,-0.335 0.645,-0.3775 10.6575,-6.245 0.0375,0.39375 -13.04125,-5.0875 13.195,4.675 0.42625,0.15125 -0.38875,0.2425 -10.46625,6.5625 -0.035,-0.7125 13.4025,6.11625 -0.5375,1.13 z"
     inkscape:connector-curvature="0"
     style="fill:#3a8cb5" /></svg>