<?xml version="1.0" encoding="UTF-8" standalone="no"?>
<!-- Created with Inkscape (http://www.inkscape.org/) -->

<svg
   xmlns:dc="http://purl.org/dc/elements/1.1/"
   xmlns:cc="http://creativecommons.org/ns#"
   xmlns:rdf="http://www.w3.org/1999/02/22-rdf-syntax-ns#"
   xmlns:svg="http://www.w3.org/2000/svg"
   xmlns="http://www.w3.org/2000/svg"
   xmlns:inkscape="http://www.inkscape.org/namespaces/inkscape"
   version="1.1"
   viewBox="0 0 295.81 195.35249"
   id="svg2"
   xml:space="preserve"><metadata
     id="metadata8"><rdf:RDF><cc:Work
         rdf:about=""><dc:format>image/svg+xml</dc:format><dc:type
           rdf:resource="http://purl.org/dc/dcmitype/StillImage" /></cc:Work></rdf:RDF></metadata><defs
     id="defs6"><clipPath
       id="clipPath16"><path
         d="M 75.76,151.52 C 32.748,138.128 0,117.601 0,75.76 l 0,0 C 0,33.919 33.919,0 75.76,0 l 0,0 c 52.837,0 76.168,42.718 110.982,46.143 l 0,0 c 34.813,3.426 51.152,36.102 49.832,49.833 l 0,0 c 0,27.521 -22.31,49.833 -49.832,49.833 l 0,0 c -26.821,0 -51.191,10.472 -79.493,10.473 l 0,0 c -9.922,10e-4 -20.324,-1.286 -31.489,-4.762"
         inkscape:connector-curvature="0"
         id="path18" /></clipPath><clipPath
       id="clipPath24"><path
         d="m -32768,32767 65535,0 0,-65535 -65535,0 0,65535 z"
         inkscape:connector-curvature="0"
         id="path26" /></clipPath><radialGradient
       cx="0"
       cy="0"
       r="1"
       fx="0"
       fy="0"
       id="radialGradient28"
       gradientUnits="userSpaceOnUse"
       gradientTransform="matrix(114.53638,0,0,-114.53638,118.32422,78.141602)"
       spreadMethod="pad"><stop
         id="stop30"
         style="stop-color:#ffffff;stop-opacity:1"
         offset="0" /><stop
         id="stop32"
         style="stop-color:#ffffff;stop-opacity:0"
         offset="1" /></radialGradient><mask
       id="mask34"><g
         id="g36"><g
           clip-path="url(#clipPath24)"
           id="g38"><g
             id="g40"><g
               id="g42"><path
                 d="m -32768,32767 65535,0 0,-65535 -65535,0 0,65535 z"
                 inkscape:connector-curvature="0"
                 id="path44"
                 style="fill:url(#radialGradient28);stroke:none" /></g></g></g></g></mask><radialGradient
       cx="0"
       cy="0"
       r="1"
       fx="0"
       fy="0"
       id="radialGradient50"
       gradientUnits="userSpaceOnUse"
       gradientTransform="matrix(114.53638,0,0,-114.53638,118.32422,78.141602)"
       spreadMethod="pad"><stop
         id="stop52"
         style="stop-color:#93bfef;stop-opacity:1"
         offset="0" /><stop
         id="stop54"
         style="stop-color:#b6e7ef;stop-opacity:1"
         offset="1" /></radialGradient><clipPath
       id="clipPath62"><path
         d="M 78.611,146.621 C 38.545,134.147 8.039,115.025 8.039,76.049 l 0,0 C 8.039,37.072 39.636,5.476 78.611,5.476 l 0,0 c 49.221,0 70.954,39.792 103.383,42.983 l 0,0 c 32.432,3.191 47.651,33.63 46.422,46.421 l 0,0 c 0,25.637 -20.783,46.421 -46.422,46.421 l 0,0 c -24.983,0 -47.685,9.755 -74.049,9.756 l 0,0 c -9.243,0.001 -18.933,-1.198 -29.334,-4.436"
         inkscape:connector-curvature="0"
         id="path64" /></clipPath><linearGradient
       x1="0"
       y1="0"
       x2="1"
       y2="0"
       id="linearGradient70"
       gradientUnits="userSpaceOnUse"
       gradientTransform="matrix(61.227451,-140.46274,-140.46274,-61.227451,91.342773,144.61621)"
       spreadMethod="pad"><stop
         id="stop72"
         style="stop-color:#a1d9f7;stop-opacity:1"
         offset="0" /><stop
         id="stop74"
         style="stop-color:#baedfd;stop-opacity:1"
         offset="0.229592" /><stop
         id="stop76"
         style="stop-color:#baedfd;stop-opacity:1"
         offset="0.229592" /><stop
         id="stop78"
         style="stop-color:#99d3f6;stop-opacity:1"
         offset="0.28061199" /><stop
         id="stop80"
         style="stop-color:#95cff4;stop-opacity:1"
         offset="0.33673501" /><stop
         id="stop82"
         style="stop-color:#c4f5ff;stop-opacity:1"
         offset="0.45408201" /><stop
         id="stop84"
         style="stop-color:#428de2;stop-opacity:1"
         offset="1" /></linearGradient><clipPath
       id="clipPath92"><path
         d="m 0,156.282 236.648,0 L 236.648,0 0,0 0,156.282 z"
         inkscape:connector-curvature="0"
         id="path94" /></clipPath><clipPath
       id="clipPath104"><path
         d="m 18.6738,143.005 205.1742,0 0,-118.9767 -205.1742,0 0,118.9767 z"
         inkscape:connector-curvature="0"
         id="path106" /></clipPath></defs><g
     transform="matrix(1.25,0,0,-1.25,0,195.3525)"
     id="g10"><g
       id="g12"><g
         clip-path="url(#clipPath16)"
         id="g14"><g
           id="g20"><g
             id="g22" /><g
             mask="url(#mask34)"
             id="g46"><g
               id="g48"><path
                 d="M 75.76,151.52 C 32.748,138.128 0,117.601 0,75.76 l 0,0 C 0,33.919 33.919,0 75.76,0 l 0,0 c 52.837,0 76.168,42.718 110.982,46.143 l 0,0 c 34.813,3.426 51.152,36.102 49.832,49.833 l 0,0 c 0,27.521 -22.31,49.833 -49.832,49.833 l 0,0 c -26.821,0 -51.191,10.472 -79.493,10.473 l 0,0 c -9.922,10e-4 -20.324,-1.286 -31.489,-4.762"
                 inkscape:connector-curvature="0"
                 id="path56"
                 style="fill:url(#radialGradient50);stroke:none" /></g></g></g></g></g><g
       id="g58"><g
         clip-path="url(#clipPath62)"
         id="g60"><g
           id="g66"><g
             id="g68"><path
               d="M 78.611,146.621 C 38.545,134.147 8.039,115.025 8.039,76.049 l 0,0 C 8.039,37.072 39.636,5.476 78.611,5.476 l 0,0 c 49.221,0 70.954,39.792 103.383,42.983 l 0,0 c 32.432,3.191 47.651,33.63 46.422,46.421 l 0,0 c 0,25.637 -20.783,46.421 -46.422,46.421 l 0,0 c -24.983,0 -47.685,9.755 -74.049,9.756 l 0,0 c -9.243,0.001 -18.933,-1.198 -29.334,-4.436"
               inkscape:connector-curvature="0"
               id="path86"
               style="fill:url(#linearGradient70);stroke:none" /></g></g></g></g><g
       id="g88"><g
         clip-path="url(#clipPath92)"
         id="g90"><g
           transform="translate(181.9941,141.3008)"
           id="g96"><path
             d="m 0,0 c -33.742,0 -63.315,17.795 -103.383,5.32 -40.066,-12.474 -70.572,-31.595 -70.572,-70.572 0,-38.977 31.597,-70.573 70.572,-70.573 49.221,0 70.953,39.793 103.383,42.983 32.432,3.192 47.65,33.63 46.422,46.421 C 46.422,-20.783 25.639,0 0,0 z"
             inkscape:connector-curvature="0"
             id="path98"
             style="fill:none;stroke:#3a8cb5;stroke-width:3;stroke-linecap:butt;stroke-linejoin:miter;stroke-miterlimit:10;stroke-opacity:1;stroke-dasharray:none" /></g><g
           id="g100"><g
             id="g102" /><g
             id="g108"><g
               clip-path="url(#clipPath104)"
               id="g110"
               style="opacity:0.60000598"><g
                 transform="translate(18.6738,91.9688)"
                 id="g112"><path
                   d="m 0,0 c 0,0 1.777,0.829 4.888,2.281 3.117,1.437 7.571,3.488 12.915,5.949 5.356,2.434 11.606,5.272 18.302,8.314 6.71,3.01 13.868,6.22 21.026,9.431 7.176,3.169 14.351,6.338 21.078,9.309 6.742,2.94 13.033,5.683 18.427,8.035 5.406,2.323 9.911,4.258 13.064,5.613 3.161,1.339 4.967,2.104 4.967,2.104 0,0 -1.777,-0.83 -4.888,-2.282 -3.117,-1.436 -7.57,-3.487 -12.915,-5.949 C 91.508,40.372 85.258,37.533 78.563,34.492 71.852,31.482 64.694,28.272 57.536,25.062 50.36,21.893 43.185,18.724 36.457,15.753 29.716,12.813 23.424,10.069 18.03,7.719 12.625,5.396 8.12,3.46 4.967,2.104 1.806,0.766 0,0 0,0"
                   inkscape:connector-curvature="0"
                   id="path114"
                   style="fill:#ebf9ff;fill-opacity:1;fill-rule:nonzero;stroke:none" /></g><g
                 transform="translate(73.667,107.1748)"
                 id="g116"><path
                   d="m 0,0 c 0,0 1.054,0.508 2.896,1.396 1.852,0.868 4.482,2.145 7.666,3.612 3.186,1.463 6.885,3.211 10.88,5.01 3.995,1.801 8.257,3.722 12.518,5.644 4.279,1.88 8.559,3.76 12.571,5.524 4.01,1.766 7.785,3.342 11.005,4.73 3.221,1.386 5.93,2.482 7.815,3.277 1.893,0.776 2.975,1.218 2.975,1.218 0,0 -1.054,-0.508 -2.896,-1.395 C 63.578,28.147 60.949,26.868 57.765,25.402 54.578,23.939 50.881,22.189 46.884,20.393 42.889,18.592 38.628,16.671 34.366,14.749 30.087,12.869 25.807,10.989 21.795,9.227 17.783,7.462 14.01,5.884 10.79,4.496 7.568,3.111 4.86,2.013 2.976,1.219 1.082,0.443 0,0 0,0"
                   inkscape:connector-curvature="0"
                   id="path118"
                   style="fill:#ebf9ff;fill-opacity:1;fill-rule:nonzero;stroke:none" /></g><g
                 transform="translate(64.4766,64.959)"
                 id="g120"><path
                   d="m 0,0 c 0,0 1.054,0.507 2.896,1.396 1.852,0.868 4.482,2.145 7.666,3.612 3.186,1.463 6.885,3.211 10.88,5.01 3.995,1.801 8.257,3.722 12.518,5.644 4.279,1.88 8.559,3.761 12.571,5.524 4.01,1.766 7.785,3.342 11.005,4.731 3.221,1.385 5.93,2.481 7.815,3.276 1.893,0.775 2.975,1.218 2.975,1.218 0,0 -1.053,-0.508 -2.896,-1.395 C 63.578,28.147 60.949,26.868 57.765,25.402 54.578,23.939 50.881,22.189 46.884,20.393 42.889,18.592 38.627,16.671 34.366,14.749 30.087,12.869 25.807,10.989 21.795,9.227 17.783,7.462 14.01,5.884 10.79,4.496 7.568,3.111 4.86,2.013 2.976,1.218 1.082,0.443 0,0 0,0"
                   inkscape:connector-curvature="0"
                   id="path122"
                   style="fill:#ebf9ff;fill-opacity:1;fill-rule:nonzero;stroke:none" /></g><g
                 transform="translate(27.2793,45.5313)"
                 id="g124"><path
                   d="m 0,0 c 0,0 11.335,5.168 28.338,12.92 8.516,3.84 18.454,8.319 29.1,13.119 10.661,4.769 22.033,9.855 33.404,14.94 11.389,5.045 22.779,10.09 33.457,14.82 10.692,4.698 20.672,9.082 29.224,12.841 17.14,7.443 28.567,12.406 28.567,12.406 0,0 -11.335,-5.168 -28.337,-12.921 C 145.235,64.286 135.299,59.806 124.652,55.006 113.991,50.238 102.619,45.152 91.248,40.066 79.858,35.022 68.469,29.978 57.79,25.248 47.099,20.55 37.119,16.165 28.565,12.407 11.426,4.963 0,0 0,0"
                   inkscape:connector-curvature="0"
                   id="path126"
                   style="fill:#ebf9ff;fill-opacity:1;fill-rule:nonzero;stroke:none" /></g><g
                 transform="translate(41.7578,24.0283)"
                 id="g128"><path
                   d="m 0,0 c 0,0 11.335,5.168 28.338,12.92 8.516,3.84 18.454,8.319 29.1,13.119 10.661,4.769 22.033,9.855 33.404,14.94 11.389,5.045 22.779,10.09 33.457,14.82 10.692,4.697 20.672,9.082 29.224,12.841 17.14,7.443 28.567,12.406 28.567,12.406 0,0 -11.335,-5.168 -28.337,-12.921 -8.518,-3.84 -18.454,-8.319 -29.101,-13.119 C 113.991,50.238 102.619,45.152 91.248,40.066 79.858,35.021 68.469,29.978 57.79,25.248 47.099,20.55 37.119,16.166 28.565,12.407 11.426,4.963 0,0 0,0"
                   inkscape:connector-curvature="0"
                   id="path130"
                   style="fill:#ebf9ff;fill-opacity:1;fill-rule:nonzero;stroke:none" /></g><g
                 transform="translate(47.7578,29.6201)"
                 id="g132"><path
                   d="m 0,0 c 0,0 10.129,4.631 25.321,11.577 7.613,3.437 16.493,7.447 26.009,11.743 9.529,4.265 19.694,8.815 29.859,13.364 10.184,4.507 20.367,9.015 29.914,13.242 9.56,4.194 18.484,8.109 26.132,11.465 15.33,6.637 25.55,11.063 25.55,11.063 0,0 -10.128,-4.631 -25.32,-11.578 C 129.852,57.439 120.971,53.43 111.455,49.133 101.926,44.868 91.761,40.319 81.596,35.771 71.412,31.263 61.229,26.755 51.683,22.529 42.121,18.335 33.198,14.42 25.549,11.064 10.22,4.426 0,0 0,0"
                   inkscape:connector-curvature="0"
                   id="path134"
                   style="fill:#ebf9ff;fill-opacity:1;fill-rule:nonzero;stroke:none" /></g></g></g></g><g
           transform="translate(57.7354,52.874)"
           id="g136"><path
             d="m 0,0 c -4.255,-2.293 -6.352,-7.028 -5.489,-11.536 4.079,0.589 9.602,1.478 9.602,1.478 l -6.289,-7.418 c 3.296,-3.022 8.268,-3.788 12.426,-1.546 5.253,2.83 7.217,9.382 4.387,14.635 C 11.806,0.866 5.253,2.83 0,0"
             inkscape:connector-curvature="0"
             id="path138"
             style="fill:#2cb59b;fill-opacity:1;fill-rule:nonzero;stroke:none" /></g><g
           transform="translate(57.7354,52.874)"
           id="g140"><path
             d="m 0,0 c -4.255,-2.293 -6.352,-7.028 -5.489,-11.536 4.079,0.589 9.602,1.478 9.602,1.478 l -6.289,-7.418 c 3.296,-3.022 8.268,-3.788 12.426,-1.546 5.253,2.83 7.217,9.382 4.387,14.635 C 11.806,0.866 5.253,2.83 0,0 z"
             inkscape:connector-curvature="0"
             id="path142"
             style="fill:none;stroke:#009381;stroke-width:3;stroke-linecap:butt;stroke-linejoin:miter;stroke-miterlimit:10;stroke-opacity:1;stroke-dasharray:none" /></g><g
           transform="translate(95.793,59.8633)"
           id="g144"><path
             d="M 0,0 C 4.72,-1.039 9.398,1.18 11.688,5.158 8.212,7.375 3.446,10.305 3.446,10.305 l 9.607,1.516 C 12.527,16.263 9.261,20.087 4.647,21.103 -1.18,22.387 -6.944,18.703 -8.229,12.876 -9.512,7.048 -5.828,1.284 0,0"
             inkscape:connector-curvature="0"
             id="path146"
             style="fill:#2cb59b;fill-opacity:1;fill-rule:nonzero;stroke:none" /></g><g
           transform="translate(95.793,59.8633)"
           id="g148"><path
             d="M 0,0 C 4.72,-1.039 9.398,1.18 11.688,5.158 8.212,7.375 3.446,10.305 3.446,10.305 l 9.607,1.516 C 12.527,16.263 9.261,20.087 4.647,21.103 -1.18,22.387 -6.944,18.703 -8.229,12.876 -9.512,7.048 -5.828,1.284 0,0 z"
             inkscape:connector-curvature="0"
             id="path150"
             style="fill:none;stroke:#009381;stroke-width:3;stroke-linecap:butt;stroke-linejoin:miter;stroke-miterlimit:10;stroke-opacity:1;stroke-dasharray:none" /></g><g
           transform="translate(88.6748,69.0029)"
           id="g152"><path
             d="m 0,0 c -0.701,2.282 0.953,6.532 3.949,6.051 -0.025,4.437 6.041,5.035 9.318,3.551 4.408,-1.998 3.479,-5.863 -1.501,-5.27 0.229,-0.065 0.606,-0.026 0.852,-0.049 0.339,-2.111 -2.267,-3.127 -3.852,-3.857 2.941,-0.625 2.839,-2.41 4.21,-4.183 0.734,-0.949 2.878,-0.585 2.38,-2.593 C 15.096,-7.402 12.84,-7.792 12,-8 9.366,-8.651 7.101,-7.97 4.658,-6.916 3.189,-6.282 -1.347,-3.414 2.233,-2.326 0.613,-2.589 -0.016,-1.573 0.333,0 L 0,0 z"
             inkscape:connector-curvature="0"
             id="path154"
             style="fill:#eef7ff;fill-opacity:1;fill-rule:nonzero;stroke:none" /></g><g
           transform="translate(89.0078,69.835)"
           id="g156"><path
             d="m 0,0 -0.333,0 c -0.072,0.236 -0.114,0.498 -0.138,0.77 -0.046,-0.579 -0.007,-1.132 0.138,-1.602 l 0.252,0 C -0.087,-0.576 -0.067,-0.303 0,0"
             inkscape:connector-curvature="0"
             id="path158"
             style="fill:#b6e7ef;fill-opacity:1;fill-rule:nonzero;stroke:none" /></g><g
           transform="translate(100.4404,74.167)"
           id="g160"><path
             d="M 0,0 C 0.179,-0.051 0.437,-0.043 0.662,-0.045 0.447,-0.036 0.232,-0.027 0,0"
             inkscape:connector-curvature="0"
             id="path162"
             style="fill:#b6e7ef;fill-opacity:1;fill-rule:nonzero;stroke:none" /></g><g
           transform="translate(90.9082,67.5088)"
           id="g164"><path
             d="M 0,0 C 0,0.453 -1.806,0.288 -1.952,1.149 -2.075,0.229 -1.822,-0.448 -1.19,-0.726 0.703,-1.234 0.234,-0.422 0,0"
             inkscape:connector-curvature="0"
             id="path166"
             style="fill:#b6e7ef;fill-opacity:1;fill-rule:nonzero;stroke:none" /></g><g
           transform="translate(101.2939,74.1084)"
           id="g168"><path
             d="m 0,0 c 0.329,-2.104 -3.35,-3.575 -4.933,-4.305 0.418,-0.089 0.771,-0.242 1.079,-0.375 1.456,0.7 4.328,1.752 3.854,3.848 C 2.524,-0.876 3.741,0.367 3.425,1.777 3.186,0.746 2.009,-0.035 0,0"
             inkscape:connector-curvature="0"
             id="path170"
             style="fill:#b6e7ef;fill-opacity:1;fill-rule:nonzero;stroke:none" /></g><g
           transform="translate(104.0313,63.4854)"
           id="g172"><path
             d="m 0,0 c -0.261,-1.053 -2.517,-1.442 -3.356,-1.65 -2.634,-0.652 -4.9,0.03 -7.342,1.084 -0.952,0.411 -3.184,1.76 -3.666,2.956 -0.697,-1.312 2.48,-3.277 3.666,-3.788 2.442,-1.054 4.708,-1.736 7.342,-1.084 0.839,0.208 3.095,0.597 3.356,1.65 0.098,0.392 0.092,0.691 0.018,0.93 C 0.011,0.063 0.009,0.035 0,0"
             inkscape:connector-curvature="0"
             id="path174"
             style="fill:#b6e7ef;fill-opacity:1;fill-rule:nonzero;stroke:none" /></g><g
           transform="translate(47.0449,96.4521)"
           id="g176"><path
             d="m 0,0 c -4.65,1.313 -9.451,-0.629 -11.969,-4.466 3.34,-2.415 5.364,-5.017 5.364,-5.017 l -7.118,-1.554 c 0.264,-4.465 3.303,-8.474 7.849,-9.758 5.741,-1.622 11.712,1.718 13.335,7.46 C 9.082,-7.593 5.742,-1.623 0,0"
             inkscape:connector-curvature="0"
             id="path178"
             style="fill:#2cb59b;fill-opacity:1;fill-rule:nonzero;stroke:none" /></g><g
           transform="translate(47.0449,96.4521)"
           id="g180"><path
             d="m 0,0 c -4.65,1.313 -9.451,-0.629 -11.969,-4.466 3.34,-2.415 5.364,-5.017 5.364,-5.017 l -7.118,-1.554 c 0.264,-4.465 3.303,-8.474 7.849,-9.758 5.741,-1.622 11.712,1.718 13.335,7.46 C 9.082,-7.593 5.742,-1.623 0,0 z"
             inkscape:connector-curvature="0"
             id="path182"
             style="fill:none;stroke:#009381;stroke-width:3;stroke-linecap:butt;stroke-linejoin:miter;stroke-miterlimit:10;stroke-opacity:1;stroke-dasharray:none" /></g><g
           transform="translate(54.9854,87.1992)"
           id="g184"><path
             d="m 0,0 c 0,4.513 -3.658,8.171 -8.171,8.171 -4.514,0 -8.172,-3.658 -8.172,-8.171 0,-0.641 0.081,-1.261 0.221,-1.858 -0.024,-10e-4 -0.047,0.004 -0.07,0.002 -1.45,-0.112 -2.535,-1.376 -2.423,-2.826 0.106,-1.392 1.28,-2.437 2.659,-2.419 0.181,-2.254 2.045,-4.033 4.347,-4.033 1.932,0 3.555,1.26 4.137,2.997 C -3.287,-7.781 0,-4.276 0,0"
             inkscape:connector-curvature="0"
             id="path186"
             style="fill:#eef7ff;fill-opacity:1;fill-rule:nonzero;stroke:none" /></g><g
           transform="translate(47.5137,80.5986)"
           id="g188"><path
             d="m 0,0 c -0.582,-1.737 -2.205,-2.997 -4.138,-2.997 -2.301,0 -4.166,1.778 -4.346,4.033 -1.184,-0.015 -2.211,0.754 -2.547,1.852 -0.094,-0.306 -0.139,-0.631 -0.113,-0.969 0.107,-1.393 1.281,-2.438 2.66,-2.419 0.18,-2.255 2.045,-4.033 4.346,-4.033 1.933,0 3.556,1.26 4.138,2.997 4.185,0.355 7.472,3.86 7.472,8.137 0,0.253 -0.016,0.501 -0.038,0.748 C 7.06,3.437 3.925,0.333 0,0"
             inkscape:connector-curvature="0"
             id="path190"
             style="fill:#b6e7ef;fill-opacity:1;fill-rule:nonzero;stroke:none" /></g><g
           transform="translate(38.793,86.8789)"
           id="g192"><path
             d="M 0,0 C 0.023,0.002 0.046,-0.003 0.07,-0.002 -0.018,0.375 -0.072,0.765 -0.107,1.159 -0.136,0.884 -0.15,0.604 -0.15,0.32 -0.15,0.204 -0.135,0.092 -0.129,-0.023 -0.085,-0.018 -0.045,-0.003 0,0"
             inkscape:connector-curvature="0"
             id="path194"
             style="fill:#b6e7ef;fill-opacity:1;fill-rule:nonzero;stroke:none" /></g><g
           transform="translate(53.6738,43.5869)"
           id="g196"><path
             d="M 0,0 C -4.058,7.522 9.532,8.929 13.494,8.256 30.088,5.426 11.411,-11.636 6.927,-6.755 4.845,-4.489 8.713,-3.185 9.725,-2.05 8.237,-2.1 7.308,-0.9 7.006,0.393 5.384,-0.784 1.583,-2.404 0,0"
             inkscape:connector-curvature="0"
             id="path198"
             style="fill:#eef7ff;fill-opacity:1;fill-rule:nonzero;stroke:none" /></g><g
           transform="translate(63.3936,41.5371)"
           id="g200"><path
             d="M 0,0 C 0.285,0.202 0.536,0.396 0.704,0.584 -0.783,0.534 -1.713,1.733 -2.015,3.026 -3.637,1.85 -7.437,0.229 -9.021,2.634 -10.268,4.945 -9.844,6.677 -8.55,7.951 -10.361,6.641 -11.169,4.737 -9.72,2.05 -8.137,-0.354 -4.336,1.266 -2.714,2.442 -2.412,1.15 -1.484,-0.047 0,0"
             inkscape:connector-curvature="0"
             id="path202"
             style="fill:#b6e7ef;fill-opacity:1;fill-rule:nonzero;stroke:none" /></g><g
           transform="translate(61.2998,37.416)"
           id="g204"><path
             d="M 0,0 C -0.982,1.069 -0.635,1.923 0.107,2.647 -1.038,1.805 -1.959,0.787 -0.699,-0.584 1.105,-2.548 5.208,-0.956 8.386,1.829 5.328,-0.584 1.675,-1.823 0,0"
             inkscape:connector-curvature="0"
             id="path206"
             style="fill:#b6e7ef;fill-opacity:1;fill-rule:nonzero;stroke:none" /></g><g
           transform="translate(128.7803,21.3574)"
           id="g208"><path
             d="M 0,0 C -0.034,-0.072 0.048,0.245 0.062,0.483 0.09,0.733 0.104,0.996 0.118,1.257 0.144,1.782 0.154,2.313 0.161,2.845 0.172,3.909 0.162,4.978 0.146,6.046 0.108,8.183 0.043,10.323 -0.042,12.459 l 0.239,-0.354 -6.374,2.974 -1.596,0.735 -0.798,0.361 -0.389,0.168 c 0.004,0.001 -0.061,0.017 0.017,0 -0.35,-0.126 0.555,0.056 0.31,0.556 L -8.66,16.93 c -0.023,0.02 -0.048,0.034 -0.036,0.028 l 0.004,-0.003 0.003,-0.002 c -0.044,0.017 0.101,-0.039 -0.099,0.037 l 0.108,-0.011 c 0.017,0.036 -0.017,0.028 0.038,0.043 0.493,0.18 1.02,0.468 1.526,0.741 0.51,0.278 1.014,0.572 1.518,0.868 4.019,2.393 7.952,4.958 11.869,7.531 L 6.178,26.022 9.798,43.62 9.804,43.565 4.561,56.783 9.983,43.638 9.994,43.612 9.989,43.583 6.609,25.937 6.593,25.849 6.517,25.797 C 2.628,23.166 -1.266,20.551 -5.273,18.088 -5.776,17.783 -6.282,17.48 -6.798,17.189 -7.32,16.9 -7.818,16.61 -8.425,16.378 -8.507,16.344 -8.688,16.312 -8.812,16.309 l -0.11,0.009 c -0.206,0.076 -0.062,0.025 -0.111,0.043 l -0.009,0.005 -0.02,0.012 c 0.003,-0.003 -0.029,0.018 -0.058,0.043 l -0.038,0.039 c -0.244,0.504 0.666,0.687 0.32,0.56 0.115,-0.027 0.083,-0.025 0.122,-0.036 l 0.421,-0.174 0.81,-0.353 1.609,-0.715 6.419,-2.888 0.226,-0.102 0.013,-0.253 C 0.896,10.355 0.991,8.214 1.057,6.066 1.089,4.993 1.113,3.919 1.117,2.841 1.117,2.302 1.114,1.761 1.095,1.216 1.085,0.942 1.073,0.67 1.047,0.387 1.036,0.247 1.017,0.101 0.994,-0.051 0.971,-0.148 0.979,-0.172 0.929,-0.331 0.898,-0.416 0.857,-0.5 0.812,-0.574 0.771,-0.637 0.765,-0.638 0.74,-0.672 L 0,0 z"
             inkscape:connector-curvature="0"
             id="path210"
             style="fill:#3a8cb5;fill-opacity:1;fill-rule:nonzero;stroke:none" /></g><g
           transform="translate(120.3066,37.46)"
           id="g212"><path
             d="m 0,0 -10.57,5.211 -0.546,0.268 0.516,0.302 8.526,4.996 0.03,-0.315 -10.433,4.07 10.556,-3.74 0.341,-0.121 -0.311,-0.194 -8.373,-5.25 -0.028,0.57 L 0.43,0.904 0,0 z"
             inkscape:connector-curvature="0"
             id="path214"
             style="fill:#3a8cb5;fill-opacity:1;fill-rule:nonzero;stroke:none" /></g></g></g></g></svg>