<?xml version="1.0" encoding="utf-8"?>
<!-- Generator: Adobe Illustrator 18.0.0, SVG Export Plug-In . SVG Version: 6.00 Build 0)  -->
<!DOCTYPE svg PUBLIC "-//W3C//DTD SVG 1.1//EN" "http://www.w3.org/Graphics/SVG/1.1/DTD/svg11.dtd">
<svg version="1.1" id="Layer_1" xmlns="http://www.w3.org/2000/svg" xmlns:xlink="http://www.w3.org/1999/xlink" x="0px" y="0px"
	 viewBox="0 0 200 200" enable-background="new 0 0 200 200" xml:space="preserve">
<rect fill="#EEF7FE" width="200" height="200"/>
<path fill="#B9E0EA" d="M62.6,139c-2.9-0.7-5.7,0-8.4,1.3c0.9-2.7,3.5-3.7,6-4.2c-2.9,0.3-5.9,1.4-6.8,4.7c-0.8,0.5-1.5,1-2.2,1.6
	c-1.8-1.5-4-2.7-6.4-2.9c-2.3-0.3-5.1,0.2-7.1,1.4c4.2-1.9,9.2-0.8,12.5,2.5c-1.1,1.2-2.2,2.5-2.9,4c2.2-2.1,4.6-4,7.2-5.5
	c1.5-0.8,3-1.5,4.7-2c1.4-0.3,2.8-0.5,4.2-0.6C63.4,139.2,63.1,139.1,62.6,139C62.3,138.9,63.1,139.1,62.6,139z"/>
<g>
	<g>
		<rect x="118.3" y="102.7" fill="#A0C53A" width="55.2" height="50.2"/>
		<g>
			<path fill="#709A2D" d="M134,125.5c0-0.3-0.1-0.5-0.2-0.8c-0.1-0.3-0.2-0.5-0.3-0.7l-0.7-1.5c-0.2-0.5-0.5-1-0.7-1.5
				c-0.1-0.3-0.2-0.6-0.2-0.9c0-0.3,0-0.7,0.1-1c0-0.1,0.1-0.2,0.1-0.2c0,0,0,0,0.1-0.1l0,0l0.1-0.1c0.2-0.2,0.4-0.3,0.6-0.3
				c0.3,0,0.4,0.1,0.6,0.2c0.1,0.1,0.3,0.2,0.4,0.4c0.4,0.5,0.6,1,0.8,1.5c0.2,0.5,0.4,1,0.6,1.6l0.5,1.6l-0.9,0.3
				c-0.1-0.3-0.1-0.6-0.1-0.9c0-0.3,0-0.6,0-0.8c0-0.6,0-1.1,0.1-1.7c0.1-0.6,0.2-1.1,0.5-1.7c0.1-0.3,0.3-0.6,0.6-0.8
				c0.3-0.2,0.7-0.3,1-0.2l0,0l0,0l0,0l0,0l0,0c0,0,0,0,0.1,0c0.1,0,0.1,0.1,0.2,0.1c0,0,0.1,0.1,0.1,0.1c0.1,0.2,0.2,0.3,0.3,0.5
				c0.1,0.3,0.1,0.6,0.1,0.9c0,0.6-0.1,1.1-0.2,1.6c-0.1,0.5-0.3,1.1-0.4,1.6c-0.1,0.5-0.3,1-0.5,1.5c0-0.5,0.1-1.1,0.2-1.6
				c0.1-0.5,0.2-1.1,0.2-1.6c0.1-0.5,0.1-1.1,0.1-1.6c0-0.2-0.1-0.5-0.1-0.7c0-0.1-0.1-0.2-0.1-0.2l0,0c0,0,0,0,0,0c0,0-0.1,0-0.1,0
				l0,0l0,0c0,0,0,0,0,0h0l0,0l0,0c-0.2,0-0.3,0-0.4,0.1c-0.1,0.1-0.2,0.3-0.3,0.5c-0.2,0.4-0.3,0.9-0.3,1.4c-0.1,0.5-0.1,1-0.1,1.5
				c0,0.3,0,0.5,0,0.8c0,0.3,0,0.5,0.1,0.7l-0.9,0.3c-0.1-0.3-0.2-0.5-0.3-0.8l-0.2-0.8c-0.2-0.5-0.3-1-0.5-1.5
				c-0.2-0.5-0.4-1-0.7-1.4c-0.1-0.2-0.3-0.3-0.3-0.3c0,0,0,0-0.1,0l-0.1,0.1l0,0c0,0,0,0,0,0c0,0-0.1,0.1-0.1,0.1
				c-0.2,0.3-0.1,0.9,0,1.4c0.1,0.5,0.3,1,0.5,1.5c0.2,0.5,0.4,1,0.6,1.5C133.9,124.3,134,124.9,134,125.5z"/>
		</g>
		<g>
			<path fill="#709A2D" d="M153.5,137.6c0-0.3-0.1-0.5-0.2-0.8c-0.1-0.3-0.2-0.5-0.3-0.7l-0.7-1.5c-0.2-0.5-0.5-1-0.7-1.5
				c-0.1-0.3-0.2-0.6-0.2-0.9c0-0.3,0-0.7,0.1-1c0-0.1,0.1-0.2,0.1-0.2c0,0,0,0,0.1-0.1l0,0l0.1-0.1c0.2-0.2,0.4-0.3,0.6-0.3
				c0.3,0,0.4,0.1,0.6,0.2c0.1,0.1,0.3,0.2,0.4,0.4c0.4,0.5,0.6,1,0.8,1.5c0.2,0.5,0.4,1,0.6,1.6l0.5,1.6l-0.9,0.3
				c-0.1-0.3-0.1-0.6-0.1-0.9c0-0.3,0-0.6,0-0.8c0-0.6,0-1.1,0.1-1.7c0.1-0.6,0.2-1.1,0.5-1.7c0.1-0.3,0.3-0.6,0.6-0.8
				c0.3-0.2,0.7-0.3,1-0.2l0,0l0,0l0,0l0,0l0,0c0,0,0,0,0.1,0c0.1,0,0.1,0.1,0.2,0.1c0,0,0.1,0.1,0.1,0.1c0.1,0.2,0.2,0.3,0.3,0.5
				c0.1,0.3,0.1,0.6,0.1,0.9c0,0.6-0.1,1.1-0.2,1.6c-0.1,0.5-0.3,1.1-0.4,1.6c-0.1,0.5-0.3,1-0.5,1.5c0-0.5,0.1-1.1,0.2-1.6
				c0.1-0.5,0.2-1.1,0.2-1.6c0.1-0.5,0.1-1.1,0.1-1.6c0-0.2-0.1-0.5-0.1-0.7c0-0.1-0.1-0.2-0.1-0.2l0,0c0,0,0,0,0,0c0,0-0.1,0-0.1,0
				l0,0l0,0c0,0,0,0,0,0h0l0,0l0,0c-0.2,0-0.3,0-0.4,0.1c-0.1,0.1-0.2,0.3-0.3,0.5c-0.2,0.4-0.3,0.9-0.3,1.4c-0.1,0.5-0.1,1-0.1,1.5
				c0,0.3,0,0.5,0,0.8c0,0.3,0,0.5,0.1,0.7l-0.9,0.3c-0.1-0.3-0.2-0.5-0.3-0.8l-0.2-0.8c-0.2-0.5-0.3-1-0.5-1.5
				c-0.2-0.5-0.4-1-0.7-1.4c-0.1-0.2-0.3-0.3-0.3-0.3c0,0,0,0-0.1,0l-0.1,0.1l0,0c0,0,0,0,0,0c0,0-0.1,0.1-0.1,0.1
				c-0.2,0.3-0.1,0.9,0,1.4c0.1,0.5,0.3,1,0.5,1.5c0.2,0.5,0.4,1,0.6,1.5C153.3,136.5,153.5,137.1,153.5,137.6z"/>
		</g>
	</g>
	<path opacity="0.2" fill="#193149" enable-background="new    " d="M173.1,102.7h-54.3v51.2h54.3L173.1,102.7L173.1,102.7z
		 M162.5,138.7c-3.5,0.2-6.7,1.2-9.3,2.6c-1.6-1.7-3.8-2.7-6.2-2.7c-2.9,0-5.5,1.5-7.1,3.7c-1.2-2.9-3.9-5-7.2-5
		c-1.6,0-3,0.5-4.2,1.3c1-1.9,1.6-4.1,1.6-6.4c0-4.2-1.9-7.9-4.8-10.3c0.9-1.7,1.4-3.6,1.4-5.7c0-0.2,0-0.5,0-0.7
		c1.1,0.3,2.4,0.5,3.6,0.5c2.7,0,5.2-0.8,7.3-2.1c1.5,1.3,3.8,2.1,6.3,2.1c0.8,0,1.6-0.1,2.3-0.2c3.4,4.2,9.2,7,15.9,7
		c0.8,0,1.6,0,2.4-0.1c-1.5,3.2-2.4,6.8-2.4,10.7C161.9,135.1,162.1,136.9,162.5,138.7z"/>
	<path fill="#EEF7FE" d="M174.4,101.8h-57.1v52.6h57.1L174.4,101.8L174.4,101.8z M162,137.7c-3.5,0.2-6.7,1.2-9.3,2.6
		c-1.6-1.7-3.8-2.7-6.2-2.7c-2.9,0-5.5,1.5-7.1,3.7c-1.2-2.9-3.9-5-7.2-5c-1.6,0-3,0.5-4.2,1.3c1-1.9,1.6-4.1,1.6-6.4
		c0-4.2-1.9-7.9-4.8-10.3c0.9-1.7,1.4-3.6,1.4-5.7c0-0.2,0-0.5,0-0.7c1.1,0.3,2.4,0.5,3.6,0.5c2.7,0,5.2-0.8,7.3-2.1
		c1.5,1.3,3.8,2.1,6.3,2.1c0.8,0,1.6-0.1,2.3-0.2c3.4,4.2,9.2,7,15.9,7c0.8,0,1.6,0,2.4-0.1c-1.5,3.2-2.4,6.8-2.4,10.7
		C161.4,134.2,161.6,136,162,137.7z"/>
	<g>
		<path fill="#B9E0EA" d="M159.3,119.5c-5.1,0-10-1.7-13.8-4.7c0.6-0.1,1.2-0.3,1.8-0.6c-1.6,0.2-3.3,0.2-4.9-0.1
			c-1.4-0.2-2.8-0.6-4.2-1.1c-0.9-0.4-1.7-0.8-2.5-1.3c0.3,0.4,0.6,0.7,0.9,1c0,0,0,0,0,0c-2.9,1.7-7.3,1.8-10.4,1.4
			c0,0-0.4-1.2-0.4-1.4c0.1,0.3,0.2,1.1,0.3,1.3c0.1,1,0,2-0.2,2.9c-0.1,1.1-0.8,3-1.2,3.9l0.4,0.3c0.7-1.3,1.1-2.7,1.2-4.2
			c0.1-0.8,0-1.6-0.1-2.4c3.2,1,8,0.8,10.7-1.4c0.1,0,0.1-0.1,0.2-0.1c0.4,0.3,0.9,0.6,1.4,0.9c0.2,0.1,0.3,0.2,0.5,0.2
			c0.4,0.2,0.7,0.3,1.1,0.4c1.8,0.5,3.7,0.7,5.5,0.3c3.9,4.9,11,7.6,18.3,6.8c0.5-1.1,1-2.1,1.6-3
			C163.4,119.2,161.4,119.5,159.3,119.5z"/>
		<path fill="#B9E0EA" d="M138.3,143.2c0.2-1.5,1.5-2.9,2.7-3.7c2.1-1.5,4.5-1.9,6.9-1.7c1.4,0.1,2.8,0.9,3.9,1.7
			c1,0.8,1.9,1.7,2.5,2.9c-2.2-2-5-3.4-8-3.3C143.4,139.2,139.9,140.5,138.3,143.2z"/>
		<path fill="#B9E0EA" d="M127.7,137.6c2.2-8.2-0.4-14.9-7.6-18.4c2.5,0.1,4.7,1.2,6.4,3.2c3.8,4.2,3.9,10.5,1.7,15.4L127.7,137.6z"
			/>
		<path fill="#B9E0EA" d="M139,141.7c-0.3-1.3-1.5-2.4-2.6-3.1c-0.8-0.5-1.7-1-2.6-1.2c-1.6-0.4-3.2-0.1-4.8,0.4
			c-1.2,0.4-2.4,1.1-3.6,1.6c0,0,0.2-0.2,0.5-0.5c0.3-0.3,0.9-0.7,1.6-1.1c0.7-0.4,1.5-0.8,2.5-1.1c0.9-0.3,2-0.5,3.1-0.3
			c1.9,0.2,3.8,1.3,5.1,2.8c0.3,0.3,0.5,0.6,0.7,0.9c0.2,0.3,0.3,0.6,0.4,0.8c0.1,0.2,0.2,0.5,0.2,0.8L139,141.7z"/>
		<path fill="#B9E0EA" d="M152.5,140.3c1.9-1,4-1.7,6.1-2.1c1.2-0.2,2.4-0.4,3.6-0.5c0.8,0,1.6,0,2.4,0c-1.9,0.2-3.8,0.4-5.7,0.9
			c-1.1,0.3-2.2,0.7-3.3,1.2c-0.5,0.2-1,0.5-1.5,0.7c-0.1,0.1-1.1,0.5-1.1,0.6L152.5,140.3z"/>
		<path fill="#B9E0EA" d="M166.6,116.9c-0.1,0-0.3,0.4-0.3,0.5c-0.2,0.4-0.5,0.8-0.7,1.2c-0.4,0.8-0.8,1.6-1.1,2.4
			c-0.8,1.8-1.4,3.8-1.8,5.7c-0.4,1.9-0.5,3.9-0.5,5.8c0,1.7,0.1,3.5,0.5,5.1c-0.1,0-0.4,0.2-0.5,0.2c-0.2-0.1-0.3-0.9-0.3-1.1
			c-0.2-0.9-0.3-1.9-0.4-2.9c-0.1-2.1,0.1-4.2,0.4-6.3c0.4-2.1,1.1-4.2,1.9-6.2C164.5,119.9,165.4,118.1,166.6,116.9z"/>
	</g>
</g>
<path fill="#B9E0EA" d="M80.5,37.2c-2.8-0.8-5.5,0-8,1.4c0.9-2.9,3.3-4,5.7-4.5c-2.8,0.3-5.7,1.6-6.5,5c-0.7,0.5-1.5,1.1-2.1,1.7
	c-1.7-1.6-3.9-3-6.1-3.1c-2.2-0.4-4.9,0.2-6.8,1.5c4.1-2,8.9-0.9,12,2.7c-1.1,1.3-2.1,2.7-2.8,4.3c2.1-2.2,4.4-4.4,6.9-5.9
	c1.4-0.9,2.9-1.6,4.5-2.1c1.4-0.4,2.7-0.5,4.1-0.7C81.3,37.4,81,37.3,80.5,37.2C80.3,37.1,81,37.3,80.5,37.2z"/>
<path fill="#B9E0EA" d="M162.3,62.7c-2.9-0.8-5.7,0-8.3,1.4c0.9-3,3.4-4.1,5.9-4.7c-2.8,0.4-5.9,1.6-6.7,5.2
	c-0.8,0.5-1.5,1.1-2.2,1.8c-1.8-1.7-4-3.1-6.3-3.2c-2.3-0.4-5,0.2-7,1.5c4.2-2.1,9.1-0.9,12.3,2.8c-1.1,1.3-2.2,2.8-2.9,4.4
	c2.2-2.3,4.6-4.5,7.1-6.1c1.5-0.9,3-1.7,4.6-2.2c1.4-0.4,2.8-0.5,4.2-0.7C163.1,62.9,162.8,62.8,162.3,62.7
	C162,62.6,162.8,62.8,162.3,62.7z"/>
</svg>
