<?xml version="1.0" encoding="utf-8"?>
<!-- Generator: Adobe Illustrator 16.0.0, SVG Export Plug-In . SVG Version: 6.00 Build 0)  -->
<!DOCTYPE svg PUBLIC "-//W3C//DTD SVG 1.1//EN" "http://www.w3.org/Graphics/SVG/1.1/DTD/svg11.dtd">
<svg version="1.1" id="Layer_1" xmlns="http://www.w3.org/2000/svg" xmlns:xlink="http://www.w3.org/1999/xlink" x="0px" y="0px"
	 width="200px" height="200px" viewBox="0 0 200 200" enable-background="new 0 0 200 200" xml:space="preserve">
<rect fill="#EEF7FF" width="200" height="200"/>
<path fill="#B6E7EF" d="M104.078,40.188c-4.105-0.948-8.084-0.046-11.818,1.748c1.318-3.669,4.891-5.021,8.426-5.679
	c-4.062,0.43-8.356,1.953-9.574,6.321c-1.088,0.66-2.143,1.359-3.113,2.186c-2.548-2.053-5.664-3.711-8.995-3.935
	c-3.288-0.469-7.146,0.246-10.068,1.843c5.974-2.548,13.028-1.078,17.619,3.383c-1.606,1.578-3.146,3.345-4.147,5.382
	c3.11-2.796,6.501-5.459,10.197-7.438c2.115-1.133,4.301-2.026,6.617-2.648c1.999-0.452,3.945-0.646,5.973-0.874
	C105.193,40.478,104.797,40.361,104.078,40.188C103.719,40.105,104.797,40.361,104.078,40.188z"/>
<path fill="#B6E7EF" d="M176.926,164.688c-4.105-0.947-8.084-0.045-11.818,1.748c1.318-3.668,4.892-5.021,8.427-5.679
	c-4.062,0.431-8.356,1.953-9.574,6.321c-1.088,0.66-2.144,1.359-3.112,2.186c-2.55-2.053-5.664-3.711-8.994-3.935
	c-3.289-0.47-7.146,0.246-10.068,1.843c5.973-2.548,13.027-1.078,17.619,3.383c-1.607,1.578-3.146,3.346-4.148,5.383
	c3.111-2.797,6.502-5.459,10.197-7.438c2.115-1.133,4.301-2.026,6.617-2.647c1.998-0.453,3.945-0.646,5.973-0.875
	C178.041,164.979,177.645,164.861,176.926,164.688C176.566,164.605,177.645,164.861,176.926,164.688z"/>
<path fill="#B6E7EF" d="M57.475,130.688c-4.105-0.947-8.084-0.045-11.818,1.748c1.318-3.668,4.891-5.021,8.426-5.679
	c-4.062,0.431-8.357,1.953-9.574,6.321c-1.088,0.66-2.143,1.359-3.113,2.186c-2.549-2.053-5.664-3.711-8.994-3.935
	c-3.289-0.47-7.146,0.246-10.068,1.843c5.973-2.548,13.027-1.078,17.619,3.383c-1.607,1.578-3.146,3.346-4.148,5.383
	c3.111-2.797,6.502-5.459,10.197-7.438c2.115-1.133,4.301-2.026,6.617-2.647c1.998-0.453,3.945-0.646,5.973-0.875
	C58.59,130.979,58.193,130.861,57.475,130.688C57.115,130.605,58.193,130.861,57.475,130.688z"/>
</svg>
