<?xml version="1.0" encoding="UTF-8" standalone="no"?>
<!-- Created with Inkscape (http://www.inkscape.org/) -->

<svg
   xmlns:dc="http://purl.org/dc/elements/1.1/"
   xmlns:cc="http://creativecommons.org/ns#"
   xmlns:rdf="http://www.w3.org/1999/02/22-rdf-syntax-ns#"
   xmlns:svg="http://www.w3.org/2000/svg"
   xmlns="http://www.w3.org/2000/svg"
   xmlns:inkscape="http://www.inkscape.org/namespaces/inkscape"
   version="1.1"
   viewBox="0 0 113.103 111.35138"
   id="svg2"
   xml:space="preserve"><metadata
     id="metadata8"><rdf:RDF><cc:Work
         rdf:about=""><dc:format>image/svg+xml</dc:format><dc:type
           rdf:resource="http://purl.org/dc/dcmitype/StillImage" /></cc:Work></rdf:RDF></metadata><defs
     id="defs6"><clipPath
       id="clipPath16"><path
         d="m 0,89.081 90.482,0 L 90.482,0 0,0 0,89.081 z"
         inkscape:connector-curvature="0"
         id="path18" /></clipPath><clipPath
       id="clipPath24"><path
         d="m 5.33887,86.4912 85.14353,0 0,-85.14452 -85.14353,0 0,85.14452 z"
         inkscape:connector-curvature="0"
         id="path26" /></clipPath><clipPath
       id="clipPath40"><path
         d="m 85.686,46.002 -0.639,-1.616 -2.279,-2.071 2.716,-1.804 0.617,-2.61 -2.005,-1.43 -3.311,-1.215 1.079,-3.331 3.385,-2.445 -3.365,-1.508 -1.704,-0.576 0.466,-1.738 -1.047,-2.53 -1.919,-2.073 -4.159,1.845 2.677,-3.717 -0.587,-3.424 -3.392,-0.032 -3.024,1.237 -1.253,-2.945 -0.135,-1.6 -1.405,0.968 L 63.297,12.454 61.331,10.202 61.929,6.024 59.225,9.05 56.68,8.716 54.817,7.323 53.373,5.765 52.207,7.665 48.971,9.478 46.293,6.941 45.369,2.399 42.977,5.632 41.561,7.367 40.135,5.546 37.258,5.224 36.297,7.545 34.092,8.831 32.278,7.466 l -2.731,0.343 -2.026,1.742 -0.1,2.872 -2.508,-1.269 -3.314,-0.721 1.502,3.63 -0.951,3.645 -3.624,-2.145 -3.817,-0.218 2.33,3.694 -0.975,2.917 -2.918,-0.258 -3.977,0.114 2.751,3.375 -1.496,2.137 -0.744,3.03 -4.633,-1.056 3.4,2.833 0.39,2.787 -2.876,0.395 -0.414,2.768 -0.195,2.356 3.627,1.976 -2.639,2.697 -2.501,0.892 0.647,2.97 1.654,0.896 0.397,2.598 -2.484,1.754 2.031,2.261 3.094,0.501 -2.662,1.957 1.441,2.56 1.463,0.902 1.74,1.885 -1.183,2.03 1.019,2.656 2.394,-0.41 2.731,1.443 0.75,2.952 -0.036,1.581 1.7,2.024 1.711,0.056 0.968,1.586 1.355,1.921 2.208,0.195 2.411,-0.299 -0.026,2.559 1.509,3.732 3.054,-2.92 2.601,-0.987 0.595,2.865 2.354,1.422 2.401,-0.84 1.818,-0.537 2.149,0.461 1.726,2.085 2.721,-1.197 0.898,-3.959 1.5,3.903 3.119,0.817 1.049,-2.84 1.858,-1.851 2.12,1.443 3.178,1.512 1.934,-3.052 -1.215,-4.521 3.356,2.492 2.25,-0.537 2.42,-1.728 -0.491,-2.248 2.235,-1.209 2.467,0.511 -0.971,-2.44 1.683,-2.247 2.194,0.186 3.382,-1.049 -2.382,-2.992 1.055,-2.491 2.253,-0.053 0.872,-2.784 -0.098,-1.881 -1.795,-2.847 3.718,-0.276 3.513,-2.004 -4.288,-1.828 0.184,-2.873 2.178,-1.28 -0.58,-2.536 z"
         inkscape:connector-curvature="0"
         id="path42" /></clipPath><linearGradient
       x1="0"
       y1="0"
       x2="1"
       y2="0"
       id="linearGradient48"
       gradientUnits="userSpaceOnUse"
       gradientTransform="matrix(8.0000153,-39.000008,-39.000008,-8.0000153,43.182617,58.664062)"
       spreadMethod="pad"><stop
         id="stop50"
         style="stop-color:#4c7f1b;stop-opacity:1"
         offset="0" /><stop
         id="stop52"
         style="stop-color:#34661b;stop-opacity:1"
         offset="1" /></linearGradient><clipPath
       id="clipPath60"><path
         d="m 0,89.081 90.482,0 L 90.482,0 0,0 0,89.081 z"
         inkscape:connector-curvature="0"
         id="path62" /></clipPath><clipPath
       id="clipPath84"><path
         d="m 41.529,69.511 -1.92,1.148 -1.435,-1.429 -1.236,-1.604 -2.561,1.985 -1.66,-0.685 -0.397,-2.892 -0.818,-1.725 -1.187,-1.031 -2.878,0.911 0.504,-2.945 -3.492,0.984 -0.091,-2.168 -0.064,-1.992 -3.366,0.081 2.502,-3.252 -4.084,0.005 2.155,-2.638 -3.22,-0.809 0.731,-1.98 0.54,-1.808 1.202,-1.751 -3.188,-1.581 0.615,-1.748 2.952,-1.377 0.34,-1.527 -2.299,-2.228 0.655,-1.612 1.261,-1.346 -0.209,-1.978 2.475,-0.586 -0.881,-2.545 1.232,-1.27 2.457,-0.162 0.931,-1.366 -0.105,-2.61 1.644,-0.765 1.499,-0.891 0.916,-1.874 3.145,2.289 1.448,-0.614 1.537,-0.362 1.338,-1.027 1.374,-1.294 1.457,-1.668 1.876,1.858 1.62,-2.457 1.591,2.931 1.76,-1.212 1.257,2.297 1.517,0.292 1.658,-0.074 1.82,-0.257 2.129,-0.606 1.551,0.782 1.83,0.391 -0.691,3.817 3.462,-1.596 -0.487,2.995 2.864,-0.371 1.483,1.082 0.664,1.714 1.007,1.452 -1.762,2.844 0.899,1.336 1.594,1.144 0.046,1.713 1.857,1.303 -1.155,1.902 0.258,1.631 -1.582,1.65 1.76,1.661 1.892,1.923 -1.573,1.517 -1.505,1.37 1.233,2.141 -1.663,1.209 -0.974,1.39 1.166,2.589 -1.305,1.299 -1.724,0.916 -1.522,0.955 -2.067,0.313 -0.042,2.378 -0.453,2.216 -1.86,0.461 -3.122,-1.883 -1.036,1.388 -1.041,1.648 -1.955,-0.585 -1.351,1.067 -1.139,2.606 -1.818,-0.23 -1.844,-1.558 -1.627,-1.017 -1.786,3.5 -1.529,-2.098 z"
         inkscape:connector-curvature="0"
         id="path86" /></clipPath><linearGradient
       x1="0"
       y1="0"
       x2="1"
       y2="0"
       id="linearGradient92"
       gradientUnits="userSpaceOnUse"
       gradientTransform="matrix(5.6666102,-26.333466,-26.333466,-5.6666102,41.543945,61.333984)"
       spreadMethod="pad"><stop
         id="stop94"
         style="stop-color:#4c7f1b;stop-opacity:1"
         offset="0" /><stop
         id="stop96"
         style="stop-color:#34661b;stop-opacity:1"
         offset="1" /></linearGradient><clipPath
       id="clipPath104"><path
         d="m 0,89.081 90.482,0 L 90.482,0 0,0 0,89.081 z"
         inkscape:connector-curvature="0"
         id="path106" /></clipPath><linearGradient
       x1="0"
       y1="0"
       x2="1"
       y2="0"
       id="linearGradient128"
       gradientUnits="userSpaceOnUse"
       gradientTransform="matrix(82.749023,0,0,-82.749023,1,42.696289)"
       spreadMethod="pad"><stop
         id="stop130"
         style="stop-color:#e5f7ff;stop-opacity:1"
         offset="0" /><stop
         id="stop132"
         style="stop-color:#eef7ff;stop-opacity:1"
         offset="0.270408" /><stop
         id="stop134"
         style="stop-color:#e4f7ff;stop-opacity:1"
         offset="0.42857099" /><stop
         id="stop136"
         style="stop-color:#eef7ff;stop-opacity:1"
         offset="1" /></linearGradient><clipPath
       id="clipPath144"><path
         d="m 0,89.081 90.482,0 L 90.482,0 0,0 0,89.081 z"
         inkscape:connector-curvature="0"
         id="path146" /></clipPath><linearGradient
       x1="0"
       y1="0"
       x2="1"
       y2="0"
       id="linearGradient172"
       gradientUnits="userSpaceOnUse"
       gradientTransform="matrix(8.6669846,-27.666031,-27.666031,-8.6669846,44.708984,50.876953)"
       spreadMethod="pad"><stop
         id="stop174"
         style="stop-color:#4c7f1b;stop-opacity:1"
         offset="0" /><stop
         id="stop176"
         style="stop-color:#34661b;stop-opacity:1"
         offset="1" /></linearGradient><clipPath
       id="clipPath184"><path
         d="m 0,89.081 90.482,0 L 90.482,0 0,0 0,89.081 z"
         inkscape:connector-curvature="0"
         id="path186" /></clipPath><linearGradient
       x1="0"
       y1="0"
       x2="1"
       y2="0"
       id="linearGradient212"
       gradientUnits="userSpaceOnUse"
       gradientTransform="matrix(2.5830698,-24.912905,-24.912905,-2.5830698,12.424805,45.758789)"
       spreadMethod="pad"><stop
         id="stop214"
         style="stop-color:#4c7f1b;stop-opacity:1"
         offset="0" /><stop
         id="stop216"
         style="stop-color:#34661b;stop-opacity:1"
         offset="1" /></linearGradient><clipPath
       id="clipPath224"><path
         d="m 0,89.081 90.482,0 L 90.482,0 0,0 0,89.081 z"
         inkscape:connector-curvature="0"
         id="path226" /></clipPath></defs><g
     transform="matrix(1.25,0,0,-1.25,0,111.35138)"
     id="g10"><g
       id="g12"><g
         clip-path="url(#clipPath16)"
         id="g14"><g
           id="g20"><g
             id="g22" /><g
             id="g28"><g
               clip-path="url(#clipPath24)"
               id="g30"
               style="opacity:0.19999701"><g
                 transform="translate(90.4824,43.9189)"
                 id="g32"><path
                   d="m 0,0 c 0,-23.512 -19.061,-42.572 -42.572,-42.572 -23.511,0 -42.572,19.06 -42.572,42.572 0,23.512 19.061,42.572 42.572,42.572 C -19.061,42.572 0,23.512 0,0"
                   inkscape:connector-curvature="0"
                   id="path34"
                   style="fill:#183049;fill-opacity:1;fill-rule:nonzero;stroke:none" /></g></g></g></g></g></g><g
       id="g36"><g
         clip-path="url(#clipPath40)"
         id="g38"><g
           id="g44"><g
             id="g46"><path
               d="m 85.686,46.002 -0.639,-1.616 -2.279,-2.071 2.716,-1.804 0.617,-2.61 -2.005,-1.43 -3.311,-1.215 1.079,-3.331 3.385,-2.445 -3.365,-1.508 -1.704,-0.576 0.466,-1.738 -1.047,-2.53 -1.919,-2.073 -4.159,1.845 2.677,-3.717 -0.587,-3.424 -3.392,-0.032 -3.024,1.237 -1.253,-2.945 -0.135,-1.6 -1.405,0.968 L 63.297,12.454 61.331,10.202 61.929,6.024 59.225,9.05 56.68,8.716 54.817,7.323 53.373,5.765 52.207,7.665 48.971,9.478 46.293,6.941 45.369,2.399 42.977,5.632 41.561,7.367 40.135,5.546 37.258,5.224 36.297,7.545 34.092,8.831 32.278,7.466 l -2.731,0.343 -2.026,1.742 -0.1,2.872 -2.508,-1.269 -3.314,-0.721 1.502,3.63 -0.951,3.645 -3.624,-2.145 -3.817,-0.218 2.33,3.694 -0.975,2.917 -2.918,-0.258 -3.977,0.114 2.751,3.375 -1.496,2.137 -0.744,3.03 -4.633,-1.056 3.4,2.833 0.39,2.787 -2.876,0.395 -0.414,2.768 -0.195,2.356 3.627,1.976 -2.639,2.697 -2.501,0.892 0.647,2.97 1.654,0.896 0.397,2.598 -2.484,1.754 2.031,2.261 3.094,0.501 -2.662,1.957 1.441,2.56 1.463,0.902 1.74,1.885 -1.183,2.03 1.019,2.656 2.394,-0.41 2.731,1.443 0.75,2.952 -0.036,1.581 1.7,2.024 1.711,0.056 0.968,1.586 1.355,1.921 2.208,0.195 2.411,-0.299 -0.026,2.559 1.509,3.732 3.054,-2.92 2.601,-0.987 0.595,2.865 2.354,1.422 2.401,-0.84 1.818,-0.537 2.149,0.461 1.726,2.085 2.721,-1.197 0.898,-3.959 1.5,3.903 3.119,0.817 1.049,-2.84 1.858,-1.851 2.12,1.443 3.178,1.512 1.934,-3.052 -1.215,-4.521 3.356,2.492 2.25,-0.537 2.42,-1.728 -0.491,-2.248 2.235,-1.209 2.467,0.511 -0.971,-2.44 1.683,-2.247 2.194,0.186 3.382,-1.049 -2.382,-2.992 1.055,-2.491 2.253,-0.053 0.872,-2.784 -0.098,-1.881 -1.795,-2.847 3.718,-0.276 3.513,-2.004 -4.288,-1.828 0.184,-2.873 2.178,-1.28 -0.58,-2.536 z"
               inkscape:connector-curvature="0"
               id="path54"
               style="fill:url(#linearGradient48);stroke:none" /></g></g></g></g><g
       id="g56"><g
         clip-path="url(#clipPath60)"
         id="g58"><g
           transform="translate(85.249,29.4805)"
           id="g64"><path
             d="m 0,0 -3.385,2.444 -1.079,3.331 3.311,1.215 2.005,1.431 -0.617,2.609 -2.716,1.805 0.291,0.266 c -1.965,0.769 -4.623,1.753 -4.623,1.753 l 0,1.667 -3.25,0 3.25,3.99 c 0,0 -8.063,-3.737 -9.25,-3.99 -1.188,-0.252 -48.184,-11.01 -48.184,-11.01 l -4.816,0 3.051,-2.75 -6.801,-2 5,0 -6.118,-4.197 0.602,-0.858 -2.751,-3.374 3.977,-0.114 2.918,0.258 0.975,-2.917 -2.33,-3.695 3.817,0.219 3.624,2.145 0.951,-3.646 -1.502,-3.63 3.314,0.722 2.508,1.268 0.099,-2.872 2.027,-1.742 2.731,-0.343 1.814,1.366 2.205,-1.287 0.961,-2.321 2.877,0.322 1.426,1.822 1.416,-1.736 2.392,-3.232 0.924,4.542 2.678,2.536 3.236,-1.812 1.166,-1.901 1.444,1.559 1.863,1.392 2.545,0.334 2.704,-3.025 -0.598,4.178 1.966,2.252 3.105,0.932 1.405,-0.968 0.135,1.6 1.253,2.945 3.024,-1.237 3.392,0.032 0.587,3.424 -2.677,3.718 4.159,-1.846 1.919,2.073 1.047,2.531 -0.466,1.737 1.704,0.576 L 0,0 z"
             inkscape:connector-curvature="0"
             id="path66"
             style="fill:#2f5916;fill-opacity:1;fill-rule:nonzero;stroke:none" /></g><g
           transform="translate(85.6855,46.002)"
           id="g68"><path
             d="m 0,0 -0.639,-1.616 -2.279,-2.071 2.717,-1.804 0.616,-2.61 -2.005,-1.43 -3.31,-1.215 1.079,-3.331 3.384,-2.444 -3.365,-1.509 -1.704,-0.576 0.467,-1.738 -1.048,-2.53 -1.919,-2.073 -4.158,1.845 2.677,-3.717 -0.587,-3.424 -3.393,-0.032 -3.023,1.237 -1.253,-2.945 -0.136,-1.6 -1.404,0.968 -3.106,-0.933 -1.965,-2.252 0.597,-4.178 -2.704,3.026 -2.545,-0.334 -1.862,-1.393 -1.445,-1.558 -1.166,1.9 -3.236,1.813 -2.678,-2.537 -0.923,-4.542 -2.393,3.233 -1.416,1.735 -1.426,-1.821 -2.877,-0.322 -0.961,2.321 -2.205,1.286 -1.813,-1.365 -2.732,0.343 -2.026,1.742 -0.1,2.872 -2.507,-1.269 -3.315,-0.721 1.502,3.63 -0.95,3.645 -3.624,-2.144 -3.818,-0.219 2.331,3.694 -0.975,2.917 -2.918,-0.258 -3.978,0.115 2.751,3.374 -1.496,2.137 -0.744,3.031 -4.633,-1.057 3.401,2.833 0.389,2.787 -2.876,0.395 -0.414,2.768 -0.195,2.356 3.627,1.976 -2.639,2.697 -2.501,0.892 0.648,2.97 1.653,0.896 0.398,2.598 -2.485,1.754 2.031,2.261 3.094,0.501 -2.662,1.958 1.441,2.559 1.463,0.902 1.741,1.885 -1.184,2.03 1.02,2.656 2.393,-0.41 2.732,1.443 0.75,2.952 -0.037,1.581 1.701,2.024 1.711,0.056 0.967,1.586 1.356,1.921 2.208,0.195 2.411,-0.299 -0.026,2.559 1.508,3.732 3.054,-2.92 2.602,-0.987 0.594,2.865 2.355,1.422 2.4,-0.84 1.819,-0.537 2.148,0.461 1.727,2.085 2.72,-1.197 0.899,-3.959 1.5,3.903 3.119,0.817 1.049,-2.84 1.857,-1.851 2.12,1.443 3.178,1.513 1.935,-3.053 -1.215,-4.521 3.355,2.492 2.25,-0.537 2.42,-1.728 -0.49,-2.248 2.234,-1.209 2.467,0.512 -0.971,-2.441 1.684,-2.247 2.193,0.186 3.382,-1.049 -2.382,-2.991 1.055,-2.492 2.254,-0.053 0.871,-2.784 -0.098,-1.88 -1.795,-2.848 3.718,-0.276 L 2.507,8.517 -1.781,6.689 -1.598,3.816 0.58,2.536 0,0 z"
             inkscape:connector-curvature="0"
             id="path70"
             style="fill:none;stroke:#284912;stroke-width:2;stroke-linecap:butt;stroke-linejoin:miter;stroke-miterlimit:10;stroke-opacity:1;stroke-dasharray:none" /></g><g
           transform="translate(10.2246,60.124)"
           id="g72"><path
             d="m 0,0 c 0.5,-0.264 3.333,3.403 3.333,3.403 l 0,2.833 2.833,0.667 2,2.166 0,4.667 2.834,0 3.166,4 4.805,0 1.362,3 5.399,-1.766 2.101,4.099 3.833,-2.5 4.125,2.5 3.209,-6.166 3.166,5.166 4.167,-3.166 5.167,3 -7.167,-8.167 3.667,1.28 -5.834,-3.328 -1.5,2.381 -3.256,-0.166 -1.619,-2.215 -2.958,4.881 -2.167,-1.553 -1.666,0 L 26.666,11.688 23.5,13.403 20.666,11.688 18.971,7.736 12.25,7.569 13.833,5.569 8.666,5.236 11.333,1.569 6,1.069 7.342,-2.944 3.666,-2.944 0,0 z"
             inkscape:connector-curvature="0"
             id="path74"
             style="fill:#6ca035;fill-opacity:1;fill-rule:nonzero;stroke:none" /></g><g
           transform="translate(8.3906,54.6943)"
           id="g76"><path
             d="m 0,0 c 0.667,-0.167 7.5,0 7.5,0 l -1.666,-2.167 1.666,-4 -8.333,-1.5 1.611,3.167 0,2.333 L 0,0 z"
             inkscape:connector-curvature="0"
             id="path78"
             style="fill:#6ca035;fill-opacity:1;fill-rule:nonzero;stroke:none" /></g></g></g><g
       id="g80"><g
         clip-path="url(#clipPath84)"
         id="g82"><g
           id="g88"><g
             id="g90"><path
               d="m 41.529,69.511 -1.92,1.148 -1.435,-1.429 -1.236,-1.604 -2.561,1.985 -1.66,-0.685 -0.397,-2.892 -0.818,-1.725 -1.187,-1.031 -2.878,0.911 0.504,-2.945 -3.492,0.984 -0.091,-2.168 -0.064,-1.992 -3.366,0.081 2.502,-3.252 -4.084,0.005 2.155,-2.638 -3.22,-0.809 0.731,-1.98 0.54,-1.808 1.202,-1.751 -3.188,-1.581 0.615,-1.748 2.952,-1.377 0.34,-1.527 -2.299,-2.228 0.655,-1.612 1.261,-1.346 -0.209,-1.978 2.475,-0.586 -0.881,-2.545 1.232,-1.27 2.457,-0.162 0.931,-1.366 -0.105,-2.61 1.644,-0.765 1.499,-0.891 0.916,-1.874 3.145,2.289 1.448,-0.614 1.537,-0.362 1.338,-1.027 1.374,-1.294 1.457,-1.668 1.876,1.858 1.62,-2.457 1.591,2.931 1.76,-1.212 1.257,2.297 1.517,0.292 1.658,-0.074 1.82,-0.257 2.129,-0.606 1.551,0.782 1.83,0.391 -0.691,3.817 3.462,-1.596 -0.487,2.995 2.864,-0.371 1.483,1.082 0.664,1.714 1.007,1.452 -1.762,2.844 0.899,1.336 1.594,1.144 0.046,1.713 1.857,1.303 -1.155,1.902 0.258,1.631 -1.582,1.65 1.76,1.661 1.892,1.923 -1.573,1.517 -1.505,1.37 1.233,2.141 -1.663,1.209 -0.974,1.39 1.166,2.589 -1.305,1.299 -1.724,0.916 -1.522,0.955 -2.067,0.313 -0.042,2.378 -0.453,2.216 -1.86,0.461 -3.122,-1.883 -1.036,1.388 -1.041,1.648 -1.955,-0.585 -1.351,1.067 -1.139,2.606 -1.818,-0.23 -1.844,-1.558 -1.627,-1.017 -1.786,3.5 -1.529,-2.098 z"
               inkscape:connector-curvature="0"
               id="path98"
               style="fill:url(#linearGradient92);stroke:none" /></g></g></g></g><g
       id="g100"><g
         clip-path="url(#clipPath104)"
         id="g102"><g
           transform="translate(65.8516,40.3252)"
           id="g108"><path
             d="m 0,0 1.168,1.66 -3.406,0 -30.739,-7.228 -6.355,-3.766 2.166,3.565 -5.33,-2.624 -0.881,-2.545 1.232,-1.269 2.457,-0.162 0.932,-1.366 -0.105,-2.61 1.644,-0.764 1.498,-0.893 0.916,-1.873 3.145,2.289 1.448,-0.614 1.537,-0.362 1.339,-1.027 1.373,-1.295 1.457,-1.667 1.877,1.858 1.62,-2.457 1.59,2.931 1.761,-1.213 1.257,2.297 1.516,0.293 1.658,-0.074 1.821,-0.258 2.129,-0.605 1.55,0.782 1.83,0.391 -0.691,3.817 3.463,-1.596 -0.487,2.995 2.864,-0.372 1.482,1.083 0.664,1.713 1.007,1.453 -1.762,2.843 0.9,1.337 1.594,1.144 0.046,1.712 1.856,1.303 L 0,0 z"
             inkscape:connector-curvature="0"
             id="path110"
             style="fill:#2f5916;fill-opacity:1;fill-rule:nonzero;stroke:none" /></g><g
           transform="translate(68.4141,44.335)"
           id="g112"><path
             d="M 0,0 1.582,-1.649 1.324,-3.28 2.479,-5.184 0.622,-6.486 0.576,-8.199 l -1.594,-1.144 -0.9,-1.337 1.763,-2.842 -1.007,-1.454 -0.664,-1.712 -1.483,-1.083 -2.864,0.372 0.487,-2.996 -3.462,1.596 0.691,-3.817 -1.83,-0.391 -1.551,-0.782 -2.129,0.605 -1.82,0.258 -1.658,0.074 -1.517,-0.293 -1.257,-2.296 -1.76,1.212 -1.59,-2.931 -1.62,2.457 -1.877,-1.858 -1.457,1.667 -1.373,1.295 -1.339,1.027 -1.537,0.362 -1.449,0.614 -3.144,-2.289 -0.916,1.873 -1.498,0.893 -1.645,0.765 0.106,2.609 -0.932,1.366 -2.457,0.162 -1.232,1.27 0.88,2.545 -2.474,0.586 0.209,1.978 -1.261,1.347 -0.655,1.611 2.299,2.228 -0.34,1.527 -2.952,1.377 -0.615,1.748 3.188,1.581 -1.202,1.751 -0.539,1.808 -0.732,1.98 3.22,0.809 -2.155,2.637 4.084,-0.003 -2.502,3.251 3.366,-0.081 0.063,1.992 0.091,2.168 3.492,-0.984 -0.504,2.945 2.878,-0.911 1.188,1.032 0.818,1.724 0.397,2.893 1.66,0.683 2.56,-1.984 1.237,1.604 1.435,1.429 1.919,-1.148 1.53,2.097 1.787,-3.499 1.626,1.017 1.843,1.559 1.819,0.229 1.139,-2.605 1.351,-1.068 1.955,0.585 1.041,-1.648 1.036,-1.388 3.122,1.883 1.86,-0.461 0.453,-2.216 0.043,-2.378 2.066,-0.312 1.522,-0.955 L -0.969,15.1 0.336,13.801 -0.83,11.211 0.145,9.82 1.807,8.612 0.573,6.471 2.078,5.102 3.651,3.584 1.76,1.661 0,0 z"
             inkscape:connector-curvature="0"
             id="path114"
             style="fill:none;stroke:#284912;stroke-width:2;stroke-linecap:butt;stroke-linejoin:miter;stroke-miterlimit:10;stroke-opacity:1;stroke-dasharray:none" /></g></g></g><g
       id="g116"><g
         id="g118"><g
           id="g124"><g
             id="g126"><path
               d="m 29.828,81.403 c -1.68,0.836 -3.566,1.319 -5.569,1.319 l 0,0 c -6.923,0 -12.535,-5.613 -12.535,-12.535 l 0,0 c 0,-0.581 0.053,-1.148 0.13,-1.708 l 0,0 C 7.831,66.394 5.078,62.198 5.078,57.353 l 0,0 c 0,-1.432 0.252,-2.803 0.695,-4.085 l 0,0 C 1.057,50.042 -1.786,39.152 5.159,39.421 l 0,0 C 4.501,33.452 6.443,28.85 10.984,25.614 l 0,0 c -2.039,-1.826 2.228,-4.178 4.148,-4.148 l 0,0 c -0.588,-4.97 -0.255,-5.916 5.112,-6.088 l 0,0 c -0.039,-2.36 3.088,-5.59 5.411,-4.451 l 0,0 c -0.201,-4.612 2.98,-4.676 6.948,-3.02 l 0,0 C 33.436,4.739 36.311,2.399 39.74,2.399 l 0,0 c 4.08,0 7.388,3.308 7.388,7.389 l 0,0 c 0,0.047 -0.007,0.094 -0.008,0.143 l 0,0 c 0.131,-0.027 0.269,-0.027 0.402,-0.045 l 0,0 c 1.18,-1.79 3.205,-2.973 5.51,-2.973 l 0,0 c 3.337,0 6.089,2.482 6.528,5.7 l 0,0 c 0.34,-0.092 0.692,-0.159 1.062,-0.159 l 0,0 c 1.986,0 3.629,1.433 3.973,3.319 l 0,0 c 2.082,0.434 4.176,1.22 5.185,1.626 l 0,0 c 4.461,2.55 5.559,6.356 3.291,11.419 l 0,0 c 0.381,-0.186 0.803,-0.179 1.211,-0.171 l 0,0 c 0.331,0.006 0.653,0.013 0.937,-0.084 l 0,0 c 0.31,2.718 -1.077,5.156 -2.409,7.341 l 0,0 c 4.486,-0.062 7.717,1.826 9.244,6.274 l 0,0 c 1.905,-2.334 3.068,3.794 -1.36,3.932 l 0,0 -0.137,-0.137 c 1.887,1.986 2.2,5.68 -0.71,7.088 l 0,0 c 2.025,2.468 -0.328,7.282 -3.281,8.481 l 0,0 c 0.532,0.701 0.859,1.565 0.859,2.514 l 0,0 c 0,2.31 -1.874,4.183 -4.185,4.183 l 0,0 c -0.414,0 -0.806,-0.078 -1.184,-0.19 l 0,0 c 0.002,0.063 0.01,0.126 0.01,0.19 l 0,0 c 0,3.436 -2.785,6.219 -6.219,6.219 l 0,0 c -0.756,0 -1.477,-0.14 -2.148,-0.389 l 0,0 c -3.094,6.408 -7.523,7.65 -13.292,3.693 l 0,0 c -0.693,3.757 -4.71,5.232 -9.871,5.232 l 0,0 c -3.293,0.001 -7.049,-0.6 -10.708,-1.591 M 15.989,43.843 c 0.105,0.342 0.238,0.605 0.281,0.955 l 0,0 c -0.111,-2.366 1.424,-3.451 3.588,-3.465 l 0,0 c -2.567,-0.788 -0.684,-5.808 0.999,-6.621 l 0,0 c -2.707,-0.534 1.521,-5.304 2.681,-5.875 l 0,0 c -1.865,-1.881 -4.246,-2.875 -4.142,-5.966 l 0,0 c -0.115,2.145 -0.6,3.015 -2.776,3.544 l 0,0 0.026,0.05 c 1.409,0.89 1.463,3.448 0.692,4.78 l 0,0 c -0.8,1.383 -2.292,1.754 -3.654,2.347 l 0,0 c 2.323,-0.417 0.534,5.43 -0.75,6.255 l 0,0 c 3.283,-0.934 2.868,2.051 2.961,4.086 l 0,0 c -10e-4,0.011 -0.007,0.018 -0.006,0.032 l 0,0 c 0.002,0.101 0.005,0.104 0.007,0.012 l 0,0 -0.001,-0.044 c 0.001,-0.058 0.022,-0.093 0.071,-0.093 l 0,0 c 0.008,0 0.015,10e-4 0.023,0.003"
               inkscape:connector-curvature="0"
               id="path138"
               style="fill:url(#linearGradient128);stroke:none" /></g></g></g></g><g
       id="g140"><g
         clip-path="url(#clipPath144)"
         id="g142"><g
           transform="translate(81.5879,45.9746)"
           id="g148"><path
             d="m 0,0 c -0.226,-0.818 -0.853,-1.214 -1.602,-0.296 -1.527,-4.449 -4.756,-6.336 -9.244,-6.275 1.333,-2.184 2.72,-4.622 2.41,-7.34 -0.633,0.217 -1.458,-0.083 -2.147,0.255 2.268,-5.064 1.17,-8.87 -3.292,-11.42 -1.009,-0.405 -3.102,-1.192 -5.185,-1.626 -0.344,-1.886 -1.987,-3.319 -3.973,-3.319 -0.37,0 -0.721,0.067 -1.062,0.159 -0.439,-3.217 -3.191,-5.7 -6.529,-5.7 -2.304,0 -4.329,1.184 -5.509,2.973 -0.133,0.018 -0.271,0.018 -0.401,0.045 10e-4,-0.049 0.007,-0.096 0.007,-0.144 0,-4.08 -3.307,-7.387 -7.388,-7.387 -3.429,0 -6.304,2.34 -7.137,5.508 -1.905,-0.795 -3.624,-1.187 -4.88,-0.875 0.001,-4.207 3.1,-4.232 6.947,-2.625 0.833,-3.168 3.708,-5.508 7.137,-5.508 4.08,0 7.388,3.307 7.388,7.387 0,0.048 -0.006,0.095 -0.007,0.144 0.13,-0.027 0.268,-0.027 0.401,-0.045 1.18,-1.789 3.205,-2.973 5.509,-2.973 3.338,0 6.09,2.483 6.529,5.7 0.341,-0.092 0.692,-0.159 1.062,-0.159 1.986,0 3.629,1.433 3.973,3.319 2.083,0.434 4.176,1.221 5.184,1.626 4.462,2.55 5.56,6.356 3.292,11.42 0.691,-0.338 1.514,-0.038 2.149,-0.255 0.309,2.718 -1.078,5.156 -2.41,7.34 4.486,-0.061 7.716,1.826 9.244,6.275 C 2.228,-5.956 3.346,-0.884 0,0"
             inkscape:connector-curvature="0"
             id="path150"
             style="fill:#b6e7ef;fill-opacity:1;fill-rule:nonzero;stroke:none" /></g><g
           transform="translate(56.9214,39.0557)"
           id="g152"><path
             d="M 0,0 C -0.613,2.135 -3.351,0.163 0,0"
             inkscape:connector-curvature="0"
             id="path154"
             style="fill:#eef7ff;fill-opacity:1;fill-rule:nonzero;stroke:none" /></g><g
           transform="translate(21.7246,43.8604)"
           id="g156"><path
             d="M 0,0 2.834,3.167 0,6.334 4.334,8 2.166,9 7.471,10.834 4.5,12.334 7.469,13.33 c 0,0 1.494,4.104 1.159,3.837 -0.345,-0.274 2.767,0.366 2.767,0.366 l 0.939,2.801 3.332,-1.334 2.668,4.167 3.332,-1.833 4.871,1.833 L 29.166,20 32,20 l 1.834,-3 3.332,2 -3.301,-4.064 -2.699,3.064 -4,-1.736 -2.207,2.736 -3.293,-2.736 -5.166,0 -2.834,-2.945 -3.038,-1.735 -1.294,-3.25 -2.668,-2 0,-5.6 L 4,-2.705 4.166,0 0,0 z"
             inkscape:connector-curvature="0"
             id="path158"
             style="fill:#ffffff;fill-opacity:1;fill-rule:nonzero;stroke:none" /></g></g></g><g
       id="g160"><g
         id="g162"><g
           id="g168"><g
             id="g170"><path
               d="m 45.669,59.467 -1.353,-2.068 -1.486,-0.43 -2.146,1.153 -1.506,-0.83 -1.207,-1.267 -1.758,-0.479 -0.392,-2.051 -2.149,-0.312 -0.895,-1.497 0.157,-2.038 -0.844,-1.391 -1.797,-1.153 -0.131,-1.76 -0.154,-1.716 -0.813,-1.712 2.389,-1.56 0.252,-1.535 0.505,-1.473 0.158,-1.603 0.124,-1.724 0.072,-1.927 2.07,-0.542 -0.044,-2.311 2.509,0.287 0.756,-1.694 2.069,0.347 1.367,-0.691 1.335,-0.865 1.408,-0.952 1.516,-1.177 1.716,-0.111 1.759,-0.335 1.294,2.527 2.146,-1.796 1.017,2.128 2.173,-0.682 1.663,0.648 1.232,1.292 1.333,1.132 -0.302,2.512 1.079,1.157 1.448,1.015 0.431,1.607 1.502,1.237 -0.52,1.856 0.301,1.601 -1,1.632 0.221,1.556 -0.322,1.521 1.226,1.983 -2.099,0.98 1.214,2.403 -1.621,1.026 -1.565,0.88 0.279,2.539 -2.893,-0.709 0.124,2.965 -2.451,-0.796 -0.722,2.421 -1.901,-0.132 -1.76,-0.122 -1.722,-0.656 -1.564,2.146 -1.728,-0.454 z"
               inkscape:connector-curvature="0"
               id="path178"
               style="fill:url(#linearGradient172);stroke:none" /></g></g></g></g><g
       id="g180"><g
         clip-path="url(#clipPath184)"
         id="g182"><g
           transform="translate(63.9531,40.2842)"
           id="g188"><path
             d="m 0,0 -0.41,0.668 -1.315,-0.844 -0.843,-1.39 0.156,-2.039 -0.896,-1.497 -2.149,-0.312 -0.391,-2.051 -1.758,-0.479 -1.207,-1.267 -1.506,-0.83 -2.146,1.153 -1.486,-0.43 -1.354,-2.069 -1.727,-0.453 -1.564,2.147 -1.722,-0.657 -1.761,-0.122 -1.9,-0.132 -0.722,2.42 -2.451,-0.795 0.125,2.964 -2.893,-0.708 0.277,2.539 -1.564,0.879 -0.394,0.25 0.147,-1.484 0.124,-1.725 0.072,-1.926 2.071,-0.542 -0.045,-2.311 2.509,0.287 0.756,-1.694 2.069,0.346 1.367,-0.69 1.335,-0.865 1.408,-0.951 1.517,-1.178 1.714,-0.111 1.76,-0.335 1.294,2.527 2.146,-1.797 1.017,2.129 2.172,-0.683 1.664,0.649 1.232,1.292 1.333,1.133 -0.302,2.51 1.079,1.158 1.447,1.015 0.432,1.607 1.502,1.237 -0.521,1.855 L 0,0 z"
             inkscape:connector-curvature="0"
             id="path190"
             style="fill:#2f5916;fill-opacity:1;fill-rule:nonzero;stroke:none" /></g><g
           transform="translate(62.9531,41.916)"
           id="g192"><path
             d="m 0,0 1,-1.632 -0.302,-1.601 0.521,-1.856 -1.502,-1.237 -0.432,-1.607 -1.447,-1.015 -1.079,-1.157 0.302,-2.511 -1.333,-1.133 -1.232,-1.292 -1.664,-0.648 -2.172,0.682 -1.017,-2.129 -2.146,1.797 -1.294,-2.527 -1.76,0.335 -1.714,0.111 -1.517,1.178 -1.408,0.951 -1.335,0.865 -1.367,0.691 -2.069,-0.347 -0.756,1.694 -2.509,-0.287 0.045,2.311 -2.071,0.542 -0.072,1.926 -0.124,1.725 -0.158,1.604 -0.505,1.471 -0.252,1.536 -2.389,1.56 0.813,1.712 0.154,1.716 0.131,1.76 1.797,1.153 0.843,1.39 -0.156,2.04 0.895,1.496 2.149,0.312 0.392,2.051 1.758,0.479 1.207,1.267 1.505,0.83 2.147,-1.153 1.486,0.43 1.353,2.069 1.727,0.453 1.565,-2.147 1.721,0.657 1.761,0.122 1.901,0.133 0.722,-2.421 2.451,0.795 -0.125,-2.964 2.893,0.708 L -2.946,10.349 -1.382,9.47 0.239,8.442 -0.974,6.04 1.125,5.061 -0.101,3.077 0.221,1.556 0,0 z"
             inkscape:connector-curvature="0"
             id="path194"
             style="fill:none;stroke:#284912;stroke-width:2;stroke-linecap:butt;stroke-linejoin:miter;stroke-miterlimit:10;stroke-opacity:1;stroke-dasharray:none" /></g><g
           transform="translate(19.3955,22.8711)"
           id="g196"><path
             d="m 0,0 c -0.361,0.968 -0.6,3.015 -2.775,3.544 l 0.025,0.051 c 1.41,0.889 1.463,3.447 0.692,4.779 -0.8,1.383 -2.292,1.754 -3.654,2.348 2.207,0.615 0.535,5.429 -0.75,6.254 3.152,0.195 2.868,2.05 2.961,4.086 0,0.011 -0.007,0.017 -0.005,0.032 0.002,0.1 0.004,0.104 0.006,0.011 l -10e-4,-0.043 c 0.002,-0.066 0.029,-0.102 0.095,-0.09 0.105,0.341 1.323,-2.494 3.868,-2.51 -1.879,-1.291 -0.683,-5.809 1,-6.621 C -1.245,11.307 2.982,6.536 4.143,5.966 2.277,4.085 0.904,2.168 0,0 z m 61.299,23.238 -0.32,-0.319 c 2.046,1.934 2.474,5.818 -0.528,7.271 2.026,2.468 -0.328,7.282 -3.281,8.481 0.532,0.701 0.859,1.565 0.859,2.514 0,2.31 -1.873,4.183 -4.184,4.183 -0.414,0 -0.807,-0.078 -1.185,-0.19 0.002,0.063 0.01,0.126 0.01,0.19 0,3.436 -2.784,6.219 -6.219,6.219 -0.756,0 -1.477,-0.141 -2.147,-0.389 -3.095,6.408 -7.523,7.65 -13.292,3.693 -1.135,6.153 -11.186,6.186 -20.579,3.641 -1.68,0.836 -3.567,1.319 -5.57,1.319 -6.923,0 -12.534,-5.613 -12.534,-12.536 0,-0.58 0.053,-1.147 0.129,-1.707 -4.022,-2.086 -6.776,-6.281 -6.776,-11.126 0,-1.432 0.252,-2.803 0.695,-4.085 -4.716,-3.226 -7.559,-14.117 -0.613,-13.847 -0.659,-5.969 1.284,-10.571 5.825,-13.807 -2.04,-1.826 2.228,-4.178 4.147,-4.148 -0.588,-4.97 -0.254,-5.916 5.113,-6.088 -0.039,-2.361 3.087,-5.591 5.411,-4.451 -0.202,-4.612 2.98,-4.676 6.948,-3.02 0.832,-3.168 3.708,-5.508 7.137,-5.508 4.08,0 7.387,3.308 7.387,7.388 0,0.048 -0.006,0.095 -0.007,0.144 0.13,-0.028 0.268,-0.028 0.401,-0.045 1.18,-1.789 3.206,-2.973 5.51,-2.973 3.338,0 6.09,2.482 6.529,5.699 0.34,-0.092 0.691,-0.158 1.062,-0.158 1.985,0 3.628,1.433 3.972,3.318 2.083,0.435 4.176,1.221 5.185,1.626 4.462,2.55 5.559,6.357 3.292,11.42 0.69,-0.338 1.513,-0.038 2.148,-0.255 0.31,2.718 -1.078,5.157 -2.41,7.34 4.486,-0.06 7.717,1.826 9.244,6.276 1.905,-2.335 3.069,3.793 -1.359,3.93 z"
             inkscape:connector-curvature="0"
             id="path198"
             style="fill:none;stroke:#b6e7ef;stroke-width:2;stroke-linecap:butt;stroke-linejoin:miter;stroke-miterlimit:10;stroke-opacity:1;stroke-dasharray:none" /></g></g></g><g
       id="g200"><g
         id="g202"><g
           id="g208"><g
             id="g210"><path
               d="m 10.895,37.375 c 0,0 1.251,-0.75 1.501,-0.75 l 0,0 c 0.25,0 -1.501,-3.333 -1.501,-3.333 l 0,0 5.584,0.333 -0.589,5.923 -4.995,-2.173 z"
               inkscape:connector-curvature="0"
               id="path218"
               style="fill:url(#linearGradient212);stroke:none" /></g></g></g></g><g
       id="g220"><g
         clip-path="url(#clipPath224)"
         id="g222"><g
           transform="translate(15.8906,39.5479)"
           id="g228"><path
             d="m 0,0 -4.795,-2.631 0.057,0.887 0.567,-0.324 c 0.185,-0.102 0.384,-0.202 0.554,-0.286 0.045,-0.009 0.08,-0.031 0.12,-0.068 l 10e-4,0 0.243,-0.063 0.004,-0.003 0.01,-0.004 c 0.023,-0.006 0.189,-0.137 0.227,-0.266 0.027,-0.064 0.039,-0.135 0.041,-0.183 l -10e-4,-0.035 -0.004,-0.067 c -0.01,-0.086 -0.02,-0.111 -0.031,-0.16 L -3.072,-3.404 C -3.16,-3.64 -3.252,-3.849 -3.347,-4.059 -3.729,-4.891 -4.136,-5.687 -4.552,-6.488 l -0.473,0.73 5.613,-0.165 -5.553,-0.833 -0.824,-0.123 0.351,0.856 10e-4,0 c 0.408,0.785 0.815,1.584 1.18,2.378 0.09,0.198 0.177,0.399 0.245,0.582 l 0.039,0.119 c 10e-4,0.005 0.007,0.034 0.002,0.003 l -10e-4,-0.026 0.002,-0.012 c 0,-0.043 0.01,-0.105 0.035,-0.164 0.034,-0.116 0.201,-0.229 0.215,-0.226 l -0.009,0.004 -0.005,0.003 -10e-4,10e-4 c -0.053,0.013 0.454,-0.118 0.238,-0.061 l -0.003,0 c -0.171,0.037 -0.348,0.088 -0.514,0.151 -0.452,0.216 -0.84,0.433 -1.238,0.669 l 0,0 -0.831,0.594 0.889,0.293 L 0,0 z"
             inkscape:connector-curvature="0"
             id="path230"
             style="fill:#284912;fill-opacity:1;fill-rule:nonzero;stroke:none" /></g><g
           transform="translate(48.9277,49.3164)"
           id="g232"><path
             d="m 0,0 3.635,2.6 -1.818,-4.118 5.718,1.083 -5.2,-4.245 1.433,-4.47 -4.583,-0.167 -2.105,-3.871 c 0,0 -3.195,2.788 -2.545,3.221 0.65,0.433 -6.067,0.817 -6.067,0.817 l 5.2,2.215 c 0,0 -7.583,3.18 -6.933,3.215 0.65,0.035 7.367,0 7.367,0 l -1.951,7.186 3.37,-4.984 2.426,4.984 L 0,0 z"
             inkscape:connector-curvature="0"
             id="path234"
             style="fill:#6ca035;fill-opacity:1;fill-rule:nonzero;stroke:none" /></g><g
           transform="translate(36.229,34.625)"
           id="g236"><path
             d="m 0,0 c -2.316,2.013 -3.997,5.007 -1.013,7.466 -3.145,0.755 -2.167,5.555 0.654,6.059 -0.158,4.156 3.398,5.372 6.834,6.017 -1.115,2.791 6.093,3.895 7.063,0.305 1.841,1.365 3.89,1.287 5.718,-0.109 1.315,-1.005 2.455,-2.702 0.964,-4.083 2.28,0.516 4.757,-1.185 4.045,-3.74 C 23.839,10.39 20.953,8.351 20.517,10.942 17.571,7.918 13.374,9.947 11.963,13.316 10.965,12.162 8.898,10.813 7.347,11.305 10.812,9.771 4.141,6.909 3.214,5.662 5.365,4.478 10.185,0.597 5.647,-0.999 9.536,-6.059 -3.366,-5.946 0.333,-0.167"
             inkscape:connector-curvature="0"
             id="path238"
             style="fill:#eef7ff;fill-opacity:1;fill-rule:nonzero;stroke:none" /></g><g
           transform="translate(60.5303,48.0811)"
           id="g240"><path
             d="M 0,0 C -0.016,-0.072 -0.024,-0.143 -0.045,-0.217 -0.5,-1.85 -3.589,-4.031 -4.056,-1.26 c -2.632,-2.701 -6.192,-1.627 -8.175,0.899 1.499,-3.233 5.567,-5.11 8.446,-2.153 0.436,-2.591 3.323,-0.552 3.749,0.973 C 0.12,-0.979 0.116,-0.463 0,0"
             inkscape:connector-curvature="0"
             id="path242"
             style="fill:#b6e7ef;fill-opacity:1;fill-rule:nonzero;stroke:none" /></g><g
           transform="translate(48.1572,47.9053)"
           id="g244"><path
             d="m 0,0 c -0.33,0.449 -0.617,0.936 -0.835,1.457 -1.068,-1.234 -3.28,-2.678 -4.94,-2.152 3.707,-1.641 -3.43,-4.703 -4.422,-6.037 2.301,-1.268 7.459,-5.422 2.603,-7.129 1.951,-2.539 -0.049,-3.861 -2.315,-3.91 2.522,-0.624 5.873,0.57 3.628,3.492 4.538,1.595 -0.282,5.476 -2.433,6.661 0.927,1.247 7.597,4.109 4.132,5.642 C -3.046,-2.463 -1.009,-1.146 0,0"
             inkscape:connector-curvature="0"
             id="path246"
             style="fill:#b6e7ef;fill-opacity:1;fill-rule:nonzero;stroke:none" /></g><g
           transform="translate(36.229,34.625)"
           id="g248"><path
             d="m 0,0 c -2.316,2.013 -3.997,5.007 -1.013,7.466 -3.145,0.755 -2.167,5.555 0.654,6.059 -0.158,4.156 3.398,5.372 6.834,6.017 -1.115,2.791 6.093,3.895 7.063,0.305 1.841,1.365 3.89,1.287 5.718,-0.109 1.315,-1.005 2.455,-2.702 0.964,-4.083 2.28,0.516 4.757,-1.185 4.045,-3.74 C 23.839,10.39 20.953,8.351 20.517,10.942 17.571,7.918 13.374,9.947 11.963,13.316 10.965,12.162 8.898,10.813 7.347,11.305 10.812,9.771 4.141,6.909 3.214,5.662 5.365,4.478 10.185,0.597 5.647,-0.999 9.536,-6.059 -3.366,-5.946 0.333,-0.167"
             inkscape:connector-curvature="0"
             id="path250"
             style="fill:none;stroke:#b6e7ef;stroke-width:1;stroke-linecap:butt;stroke-linejoin:miter;stroke-miterlimit:10;stroke-opacity:1;stroke-dasharray:none" /></g><g
           transform="translate(45.729,26.458)"
           id="g252"><path
             d="m 0,0 c -1.491,1.572 -2.034,3.647 -0.531,5.443 0.979,1.17 2.845,1.983 4.014,0.62 -2.652,3.375 2.619,7.579 4.943,4.443 -0.386,2.659 0.944,4.496 3.475,5.351 1.615,0.545 4.227,0.733 4.123,-1.644 C 17.936,11.209 13.822,9.997 11.513,9.871 13.755,9.743 15.394,8.753 14.846,6.275 14.291,3.772 12.046,2.604 9.729,2.179 10.333,-0.674 5.992,-0.25 4.667,0.946 4.045,-0.229 0,0 0,0"
             inkscape:connector-curvature="0"
             id="path254"
             style="fill:#eef7ff;fill-opacity:1;fill-rule:nonzero;stroke:none" /></g><g
           transform="translate(58.9331,35.999)"
           id="g256"><path
             d="m 0,0 c 0.14,-0.465 0.163,-1.018 0.015,-1.687 -0.555,-2.504 -2.8,-3.672 -5.118,-4.098 0.605,-2.852 -3.736,-2.428 -5.061,-1.233 -0.477,-0.899 -2.959,-0.974 -4.094,-0.961 0.247,-0.552 0.599,-1.082 1.054,-1.562 0,0 4.045,-0.229 4.667,0.946 1.325,-1.196 5.666,-1.62 5.061,1.233 2.318,0.425 4.563,1.593 5.118,4.096 C 2.037,-1.479 1.286,-0.475 0,0"
             inkscape:connector-curvature="0"
             id="path258"
             style="fill:#b6e7ef;fill-opacity:1;fill-rule:nonzero;stroke:none" /></g><g
           transform="translate(61.7534,40.6709)"
           id="g260"><path
             d="m 0,0 c 0.056,1.289 -0.688,1.82 -1.637,1.953 0.011,-0.119 0.016,-0.242 0.01,-0.376 1.911,-3.003 -2.531,-5.597 -4.84,-5.723 1.388,-0.079 1.635,-0.396 3.422,0 C -0.851,-3.688 1.546,-2.43 0,0"
             inkscape:connector-curvature="0"
             id="path262"
             style="fill:#b6e7ef;fill-opacity:1;fill-rule:nonzero;stroke:none" /></g><g
           transform="translate(45.729,26.458)"
           id="g264"><path
             d="m 0,0 c -1.491,1.572 -2.034,3.647 -0.531,5.443 0.979,1.17 2.845,1.983 4.014,0.62 -2.652,3.375 2.619,7.579 4.943,4.443 -0.386,2.659 0.944,4.496 3.475,5.351 1.615,0.545 4.227,0.733 4.123,-1.644 C 17.936,11.209 13.822,9.997 11.513,9.871 13.755,9.743 15.394,8.753 14.846,6.275 14.291,3.772 12.046,2.604 9.729,2.179 10.333,-0.674 5.992,-0.25 4.667,0.946 4.045,-0.229 0,0 0,0 z"
             inkscape:connector-curvature="0"
             id="path266"
             style="fill:none;stroke:#b6e7ef;stroke-width:1;stroke-linecap:butt;stroke-linejoin:miter;stroke-miterlimit:10;stroke-opacity:1;stroke-dasharray:none" /></g><g
           transform="translate(16.3955,54.708)"
           id="g268"><path
             d="m 0,0 c -0.222,0.568 -0.379,1.165 -0.505,1.773 -0.124,0.61 -0.163,1.238 -0.148,1.874 0.021,1.271 0.428,2.593 1.202,3.675 0.759,1.097 1.834,1.918 2.96,2.512 1.136,0.592 2.344,0.966 3.563,1.183 L 6.719,10.613 c -0.031,0.524 0.042,1.057 0.194,1.58 0.154,0.524 0.409,1.028 0.737,1.483 0.676,0.901 1.647,1.543 2.65,1.878 1.001,0.355 2.033,0.473 3.032,0.448 C 14.333,15.973 15.313,15.813 16.25,15.5 15.28,15.318 14.339,15.17 13.437,14.953 12.535,14.736 11.672,14.469 10.901,14.096 10.521,13.9 10.16,13.691 9.834,13.45 9.517,13.199 9.209,12.947 8.958,12.639 8.426,12.044 8.062,11.305 7.707,10.462 l -0.165,-0.389 -0.188,-0.014 -0.001,0 C 6.256,9.59 5.181,9.129 4.183,8.579 3.187,8.031 2.268,7.385 1.559,6.549 1.21,6.129 0.91,5.667 0.673,5.165 0.444,4.66 0.259,4.123 0.142,3.557 -0.082,2.422 -0.077,1.221 0,0"
             inkscape:connector-curvature="0"
             id="path270"
             style="fill:#ffffff;fill-opacity:1;fill-rule:nonzero;stroke:none" /></g><g
           transform="translate(22.2705,59.708)"
           id="g272"><path
             d="m 0,0 c 0,0 -0.074,0.183 -0.203,0.501 -0.052,0.163 -0.152,0.347 -0.194,0.587 -0.044,0.24 -0.094,0.517 -0.134,0.828 -0.013,0.307 0.01,0.642 0.033,1 0.081,0.344 0.151,0.729 0.306,1.092 C 0,4.35 0.136,4.759 0.432,5.059 l 0.404,0.484 0.481,0.406 c 0.317,0.285 0.695,0.457 1.05,0.658 L 2.633,6.753 2.924,6.859 C 3.1,6.92 3.266,6.985 3.476,7.029 4.269,7.229 4.969,7.223 5.563,7.168 6.155,7.121 6.633,7.033 6.97,6.977 7.307,6.912 7.5,6.875 7.5,6.875 7.5,6.875 7.307,6.84 6.968,6.777 6.63,6.723 6.143,6.664 5.577,6.594 5.016,6.525 4.354,6.409 3.758,6.195 3.614,6.157 3.442,6.073 3.273,5.995 L 3.043,5.889 2.817,5.754 C 2.517,5.569 2.189,5.412 1.937,5.165 L 1.522,4.84 1.182,4.451 C 0.929,4.212 0.791,3.904 0.603,3.633 0.456,3.344 0.346,3.041 0.229,2.758 0.175,2.457 0.088,2.171 0.041,1.901 0.027,1.634 0,1.382 -0.022,1.152 -0.041,0.922 -0.008,0.709 -0.009,0.54 -0.003,0.197 0,0 0,0"
             inkscape:connector-curvature="0"
             id="path274"
             style="fill:#ffffff;fill-opacity:1;fill-rule:nonzero;stroke:none" /></g><g
           transform="translate(14.5205,67.0273)"
           id="g276"><path
             d="m 0,0 c 0,0 -0.133,0.379 -0.252,1.062 -0.057,0.341 -0.13,0.761 -0.153,1.242 -0.036,0.482 -0.064,1.033 -0.029,1.633 0.058,1.199 0.272,2.623 0.891,4.104 0.307,0.738 0.734,1.486 1.302,2.18 0.314,0.326 0.582,0.698 0.973,0.971 0.357,0.297 0.776,0.594 1.069,0.766 0.303,0.195 0.693,0.404 1.058,0.605 0.369,0.202 0.741,0.36 1.115,0.526 0.756,0.314 1.536,0.565 2.326,0.714 0.788,0.147 1.577,0.212 2.329,0.145 0.749,-0.041 1.45,-0.236 2.057,-0.456 0.604,-0.251 1.107,-0.559 1.51,-0.873 0.196,-0.166 0.383,-0.308 0.537,-0.46 0.144,-0.162 0.276,-0.31 0.395,-0.445 0.243,-0.252 0.365,-0.519 0.475,-0.664 0.096,-0.159 0.147,-0.244 0.147,-0.244 0,0 -0.091,0.041 -0.263,0.115 -0.171,0.072 -0.402,0.201 -0.715,0.313 -0.302,0.13 -0.68,0.245 -1.095,0.362 -0.422,0.106 -0.896,0.167 -1.394,0.204 C 11.276,11.837 10.152,11.661 8.979,11.229 8.39,11.024 7.795,10.739 7.189,10.445 6.568,10.109 6.027,9.827 5.389,9.414 5.023,9.206 4.829,9.058 4.598,8.878 4.356,8.729 4.162,8.491 3.94,8.3 3.735,8.084 3.546,7.841 3.346,7.612 3.178,7.349 2.981,7.111 2.822,6.84 2.497,6.306 2.195,5.755 1.945,5.2 1.683,4.651 1.457,4.105 1.262,3.591 1.06,3.079 0.878,2.596 0.728,2.161 0.578,1.722 0.447,1.337 0.339,1.021 0.124,0.372 0,0 0,0"
             inkscape:connector-curvature="0"
             id="path278"
             style="fill:#ffffff;fill-opacity:1;fill-rule:nonzero;stroke:none" /></g><g
           transform="translate(8.3906,54.6943)"
           id="g280"><path
             d="m 0,0 c 0,0 -0.1,0.285 -0.208,0.794 -0.106,0.509 -0.225,1.244 -0.256,2.138 -0.038,0.894 0.016,1.945 0.246,3.083 0.252,1.128 0.664,2.37 1.668,3.467 0.372,0.399 0.846,0.863 1.313,1.237 0.467,0.385 0.964,0.73 1.479,1.021 1.022,0.582 2.135,0.93 3.111,0.959 0.483,0.034 0.93,-0.023 1.308,-0.111 0.378,-0.091 0.69,-0.21 0.929,-0.341 0.246,-0.106 0.411,-0.25 0.528,-0.327 0.112,-0.085 0.172,-0.131 0.172,-0.131 0,0 -0.076,0.002 -0.217,0.006 C 9.934,11.799 9.735,11.814 9.486,11.798 8.99,11.787 8.319,11.68 7.602,11.4 7.244,11.264 6.875,11.063 6.493,10.854 6.122,10.611 5.735,10.357 5.354,10.049 4.966,9.755 4.583,9.416 4.2,9.063 3.806,8.705 3.472,8.353 3.048,7.928 2.777,7.64 2.492,7.24 2.265,6.818 2.026,6.395 1.829,5.93 1.645,5.467 1.272,4.541 1.009,3.602 0.771,2.789 0.309,1.115 0,0 0,0"
             inkscape:connector-curvature="0"
             id="path282"
             style="fill:#ffffff;fill-opacity:1;fill-rule:nonzero;stroke:none" /></g><g
           transform="translate(34.8955,43.3555)"
           id="g284"><path
             d="m 0,0 c -0.249,0.421 -0.365,0.944 -0.312,1.458 0.051,0.516 0.264,1.023 0.596,1.443 0.33,0.42 0.767,0.76 1.249,0.998 0.482,0.243 1.004,0.392 1.533,0.484 L 2.675,3.63 2.674,3.631 C 2.55,3.852 2.445,4.087 2.375,4.339 2.312,4.593 2.275,4.854 2.288,5.116 c 0.02,0.526 0.195,1.017 0.437,1.436 0.495,0.84 1.21,1.446 1.966,1.935 0.764,0.487 1.598,0.844 2.487,1.057 0.88,0.19 1.869,0.3 2.843,-0.19 L 9.333,8.689 C 9.059,9.337 8.857,10.11 9.092,10.88 c 0.232,0.775 0.925,1.281 1.595,1.458 0.68,0.186 1.397,0.153 2.029,-0.103 0.314,-0.129 0.606,-0.324 0.818,-0.587 0.214,-0.26 0.334,-0.588 0.341,-0.913 -0.049,0.323 -0.207,0.616 -0.433,0.828 -0.226,0.215 -0.51,0.356 -0.807,0.436 -0.595,0.158 -1.242,0.096 -1.784,-0.133 C 10.305,11.638 9.893,11.198 9.818,10.693 9.731,10.188 9.932,9.64 10.225,9.142 l 0.88,-1.494 -1.567,0.83 C 8.977,8.774 8.155,8.748 7.404,8.569 6.643,8.388 5.895,8.071 5.228,7.644 4.565,7.22 3.958,6.683 3.592,6.053 3.411,5.739 3.299,5.406 3.287,5.081 3.278,4.918 3.303,4.759 3.339,4.6 3.385,4.442 3.453,4.289 3.536,4.139 l 0,-0.001 L 3.811,3.389 3.144,3.386 C 2.697,3.384 2.248,3.336 1.82,3.207 1.391,3.08 0.988,2.865 0.652,2.563 0.316,2.261 0.059,1.864 -0.065,1.413 -0.19,0.962 -0.176,0.466 0,0"
             inkscape:connector-curvature="0"
             id="path286"
             style="fill:#ffffff;fill-opacity:1;fill-rule:nonzero;stroke:none" /></g></g></g></g></svg>