<svg xmlns="http://www.w3.org/2000/svg" xmlns:xlink="http://www.w3.org/1999/xlink" viewBox="0 0 94.05 94.05"><defs><style>.cls-1{stroke:#f6921e;stroke-miterlimit:10;stroke-width:5px;fill:url(#linear-gradient);}.cls-2{fill:url(#linear-gradient-2);}.cls-3{fill:url(#linear-gradient-3);}</style><linearGradient id="linear-gradient" x1="47.02" y1="12.54" x2="47.02" y2="117.86" gradientUnits="userSpaceOnUse"><stop offset="0" stop-color="#fbed21"/><stop offset="1" stop-color="#faaf3b"/></linearGradient><linearGradient id="linear-gradient-2" x1="47.21" y1="12.64" x2="47.21" y2="78.5" gradientUnits="userSpaceOnUse"><stop offset="0.01" stop-color="#fff" stop-opacity="0.4"/><stop offset="1" stop-color="#fff" stop-opacity="0"/></linearGradient><linearGradient id="linear-gradient-3" x1="46.21" y1="12.64" x2="46.21" y2="78.5" xlink:href="#linear-gradient-2"/></defs><title>Asset 1</title><g id="Layer_2" data-name="Layer 2"><g id="Layer_1-2" data-name="Layer 1"><circle class="cls-1" cx="47.02" cy="47.02" r="44.52"/><path d="M30.24,51V43H43V30.24H51.1V43H63.8V51H51.1V63.8H43V51Z"/><path class="cls-2" d="M84.17,43.86c0,20.41-16.55,27-37,27s-36.95-6.55-36.95-27S26.8,8.91,47.21,8.91,84.17,23.45,84.17,43.86Z"/><path class="cls-3" d="M83.17,43.86c0,20.41-16.55,27-37,27s-36.95-6.55-36.95-27S25.8,8.91,46.21,8.91,83.17,23.45,83.17,43.86Z"/></g></g></svg>