<svg xmlns="http://www.w3.org/2000/svg" xmlns:xlink="http://www.w3.org/1999/xlink" viewBox="0 0 94.05 94.05"><defs><style>.cls-1{stroke:#f6921e;stroke-miterlimit:10;stroke-width:5px;fill:url(#linear-gradient);}.cls-2{fill:url(#linear-gradient-2);}.cls-3{fill:url(#linear-gradient-3);}</style><linearGradient id="linear-gradient" x1="47.02" y1="12.54" x2="47.02" y2="117.86" gradientUnits="userSpaceOnUse"><stop offset="0" stop-color="#fbed21"/><stop offset="1" stop-color="#faaf3b"/></linearGradient><linearGradient id="linear-gradient-2" x1="47.09" y1="12.82" x2="47.09" y2="78.68" gradientUnits="userSpaceOnUse"><stop offset="0.01" stop-color="#fff" stop-opacity="0.4"/><stop offset="1" stop-color="#fff" stop-opacity="0"/></linearGradient><linearGradient id="linear-gradient-3" x1="46.43" y1="11.82" x2="46.43" y2="77.68" xlink:href="#linear-gradient-2"/></defs><title>Asset 2</title><g id="Layer_2" data-name="Layer 2"><g id="Layer_1-2" data-name="Layer 1"><circle class="cls-1" cx="47.02" cy="47.02" r="44.52"/><path d="M29.19,43.65H64.86V50.4H29.19Z"/><path class="cls-2" d="M84.05,44C84.05,64.45,67.5,71,47.09,71S10.14,64.45,10.14,44s16.54-35,37-35S84.05,23.63,84.05,44Z"/><path class="cls-3" d="M83.38,43C83.38,63.45,66.84,70,46.43,70s-37-6.54-37-26.95,16.55-35,37-35S83.38,22.63,83.38,43Z"/></g></g></svg>