<?xml version="1.0" encoding="UTF-8" standalone="no"?>
<!-- Generator: Adobe Illustrator 16.0.0, SVG Export Plug-In . SVG Version: 6.00 Build 0) -->
<svg id="svg4190" xmlns:rdf="http://www.w3.org/1999/02/22-rdf-syntax-ns#" xmlns="http://www.w3.org/2000/svg" xml:space="preserve" viewBox="0 0 120 120" version="1.1" enable-background="new 0 0 320.795 313.297" xmlns:cc="http://creativecommons.org/ns#" xmlns:xlink="http://www.w3.org/1999/xlink" xmlns:dc="http://purl.org/dc/elements/1.1/"><metadata id="metadata4213"><rdf:RDF><cc:Work rdf:about=""><dc:format>image/svg+xml</dc:format><dc:type rdf:resource="http://purl.org/dc/dcmitype/StillImage"/><dc:title/></cc:Work></rdf:RDF></metadata><defs id="defs4211"><linearGradient id="linearGradient4465"><stop id="stop4467" stop-color="#faeb00" offset="0"/><stop id="stop4469" stop-color="#faaf3b" offset="1"/></linearGradient><linearGradient id="linearGradient4128" y2="370.8" gradientUnits="userSpaceOnUse" x2="159.98" y1="415.69" x1="160.45"><stop id="stop4203" stop-color="#fff" stop-opacity=".4" offset=".0051"/><stop id="stop4205" stop-color="#fff" stop-opacity="0" offset="1"/></linearGradient><linearGradient id="linearGradient4491" y2="192.25" gradientUnits="userSpaceOnUse" x2="-136.65" gradientTransform="matrix(.53776 0 0 .79510 -89.424 34.711)" y1="192.25" x1="-213.35"><stop id="stop3840-8" stop-color="#fff" stop-opacity=".4" offset=".0051" fill="url(#linearGradient4128)"/><stop id="stop3842-4" stop-color="#fff" stop-opacity="0" offset="1" fill="url(#linearGradient4128)"/></linearGradient><linearGradient id="linearGradient4493" y2="100.8" xlink:href="#linearGradient3838" gradientUnits="userSpaceOnUse" x2="-74.754" gradientTransform="matrix(.50458 0 0 .80562 -63.183 18.676)" y1="100.8" x1="-141.42"/><linearGradient id="linearGradient4495" y2="95.952" gradientUnits="userSpaceOnUse" x2="-168.87" gradientTransform="matrix(.77295 .004231 0 .79784 -30.146 19.368)" y1="73.446" x1="-178.52"><stop id="stop4187" stop-color="#fff" stop-opacity=".4" offset=".11599" fill="url(#linearGradient4128)"/><stop id="stop4189" stop-color="#fff" stop-opacity="0" offset="1" fill="url(#linearGradient4128)"/></linearGradient><linearGradient id="linearGradient4497" y2="95.952" gradientUnits="userSpaceOnUse" x2="-168.87" gradientTransform="matrix(.77295 .004231 0 .79784 4.2004 31.466)" y1="73.446" x1="-178.52"><stop id="stop4187-6" stop-color="#fff" stop-opacity=".4" offset=".11599" fill="url(#linearGradient4128)"/><stop id="stop4189-6" stop-color="#fff" stop-opacity="0" offset="1" fill="url(#linearGradient4128)"/></linearGradient><linearGradient id="linearGradient4471" y2="87.349" xlink:href="#linearGradient4465" gradientUnits="userSpaceOnUse" x2="-142.99" y1="56.449" x1="-158.02"/><linearGradient id="linearGradient4479" y2="106.3" xlink:href="#linearGradient4465" gradientUnits="userSpaceOnUse" x2="-126.03" y1="81.584" x1="-139.14"/><linearGradient id="linearGradient4487" y2="193.57" xlink:href="#linearGradient4465" gradientUnits="userSpaceOnUse" x2="-152.79" y1="200.26" x1="-238.26"/><linearGradient id="linearGradient4901" y2="100.8" gradientUnits="userSpaceOnUse" x2="-74.754" gradientTransform="matrix(-1 0 0 -1 -2767.9 6491.2)" y1="100.8" x1="-141.42"><stop id="stop4067" stop-color="#FBED21" offset="0" fill="url(#linearGradient4128)"/><stop id="stop4069" stop-color="#FAAF3B" offset="1" fill="url(#linearGradient4128)"/></linearGradient><linearGradient id="linearGradient3222" y2="192.25" gradientUnits="userSpaceOnUse" y1="192.25" gradientTransform="matrix(.54132 0 0 .79510 -17.043 -52.724)" x2="-136.65" x1="-213.35"><stop id="stop3840-8-8" stop-color="#fff" stop-opacity=".4" offset=".0051" fill="url(#linearGradient4128)"/><stop id="stop3842-4-8" stop-color="#fff" stop-opacity="0" offset="1" fill="url(#linearGradient4128)"/></linearGradient></defs><g id="g4467" transform="matrix(.78754 0 0 .91135 167.36 -57.847)"><rect id="rect3074" ry="0" rx="0" transform="matrix(.94302 .33273 0 1 0 0)" height="70.946" width="71.557" stroke="#f6931e" y="156.78" x="-210.78" stroke-width="5.1488" fill="url(#linearGradient4487)"/><rect id="rect3074-0" ry="0" rx="0" transform="matrix(.94570 -.32504 0 1 0 0)" height="70.946" width="61.528" stroke="#f6921e" y="65.324" x="-138.85" stroke-width="5.1415" fill="url(#linearGradient4901)"/><path id="path3895" d="m-131.33 110.53 58.228-20.083-34.47-12.049-57.381 20.142z" stroke="#f6931e" stroke-width="5" fill="url(#linearGradient4479)"/><path id="path3895-8" d="m-164.98 98.698 58.228-20.083-33.972-11.883-57.41 19.741z" stroke="#f6931e" stroke-width="5" fill="url(#linearGradient4471)"/><rect id="rect3074-5" ry="0" rx="0" transform="matrix(.95046 .31084 0 1 0 0)" height="56.41" width="38.48" y="159.36" x="-202.77" fill="url(#linearGradient4491)"/><rect id="rect3074-0-4" rx="0" transform="matrix(.94420 -.32938 0 1 0 0)" ry="0" width="31.046" y="71.303" x="-133.25" height="57.156" fill="url(#linearGradient4493)"/><path id="path3895-8-4" d="m-166.13 93.101 44.178-15.279-18.957-5.8082-42.384 14.18z" fill="url(#linearGradient4495)"/><path id="path3895-8-4-2" d="m-131.78 105.2 44.178-15.279-18.957-5.8082-42.384 14.18z" fill="url(#linearGradient4497)"/><rect id="rect3074-5-6" ry="0" rx="0" transform="matrix(.94419 -.32939 0 1 0 0)" height="56.41" width="38.736" y="71.93" x="-131.14" fill="url(#linearGradient3222)"/></g></svg>
