<svg xmlns:rdf="http://www.w3.org/1999/02/22-rdf-syntax-ns#" xmlns="http://www.w3.org/2000/svg" xml:space="preserve" viewBox="0 0 120 120" version="1.1" enable-background="new 0 0 320.795 313.297" xmlns:cc="http://creativecommons.org/ns#" xmlns:xlink="http://www.w3.org/1999/xlink" xmlns:dc="http://purl.org/dc/elements/1.1/"><defs><linearGradient id="b"><stop stop-color="#faeb00" offset="0"/><stop stop-color="#faaf3b" offset="1"/></linearGradient><linearGradient id="a" y2="370.8" gradientUnits="userSpaceOnUse" y1="415.69" x2="159.98" x1="160.45"><stop stop-color="#fff" stop-opacity=".4" offset=".0051"/><stop stop-color="#fff" stop-opacity="0" offset="1"/></linearGradient><linearGradient id="g" x1="-213.35" gradientUnits="userSpaceOnUse" y1="192.25" gradientTransform="matrix(.53776 0 0 .79510 -89.424 34.711)" x2="-136.65" y2="192.25"><stop stop-color="#fff" stop-opacity=".4" fill="url(#a)" offset=".0051"/><stop stop-color="#fff" stop-opacity="0" fill="url(#a)" offset="1"/></linearGradient><linearGradient id="f" x1="-141.42" xlink:href="#linearGradient3838" gradientUnits="userSpaceOnUse" y1="100.8" gradientTransform="matrix(.50458 0 0 .80562 -63.183 18.676)" x2="-74.754" y2="100.8"/><linearGradient id="e" x1="-178.52" gradientUnits="userSpaceOnUse" y1="73.446" gradientTransform="matrix(.77295 .004231 0 .79784 -30.146 19.368)" x2="-168.87" y2="95.952"><stop stop-color="#fff" stop-opacity=".4" fill="url(#a)" offset=".11599"/><stop stop-color="#fff" stop-opacity="0" fill="url(#a)" offset="1"/></linearGradient><linearGradient id="d" x1="-178.52" gradientUnits="userSpaceOnUse" y1="73.446" gradientTransform="matrix(.77295 .004231 0 .79784 4.2004 31.466)" x2="-168.87" y2="95.952"><stop stop-color="#fff" stop-opacity=".4" fill="url(#a)" offset=".11599"/><stop stop-color="#fff" stop-opacity="0" fill="url(#a)" offset="1"/></linearGradient><linearGradient id="j" x1="-158.02" xlink:href="#b" gradientUnits="userSpaceOnUse" x2="-142.99" y1="56.449" y2="87.349"/><linearGradient id="i" x1="-139.14" xlink:href="#b" gradientUnits="userSpaceOnUse" x2="-126.03" y1="81.584" y2="106.3"/><linearGradient id="h" x1="-238.26" xlink:href="#b" gradientUnits="userSpaceOnUse" x2="-152.79" y1="200.26" y2="193.57"/><linearGradient id="c" x1="-141.42" gradientUnits="userSpaceOnUse" y1="100.8" gradientTransform="matrix(-1 0 0 -1 -2767.9 6491.2)" x2="-74.754" y2="100.8"><stop stop-color="#FBED21" fill="url(#a)" offset="0"/><stop stop-color="#FAAF3B" fill="url(#a)" offset="1"/></linearGradient><linearGradient id="k" x1="-213.35" gradientUnits="userSpaceOnUse" x2="-136.65" gradientTransform="matrix(.54132 0 0 .79510 -17.043 -52.724)" y1="192.25" y2="192.25"><stop stop-color="#fff" stop-opacity=".4" fill="url(#a)" offset=".0051"/><stop stop-color="#fff" stop-opacity="0" fill="url(#a)" offset="1"/></linearGradient></defs><g transform="matrix(.78754 0 0 .91135 167.36 -57.847)"><rect ry="0" rx="0" transform="matrix(.94302 .33273 0 1 0 0)" height="70.946" width="71.557" stroke="#f6931e" y="156.78" x="-210.78" stroke-width="5.1488" fill="url(#h)"/><rect ry="0" rx="0" transform="matrix(.94570 -.32504 0 1 0 0)" height="70.946" width="61.528" stroke="#f6921e" y="65.324" x="-138.85" stroke-width="5.1415" fill="url(#c)"/><path stroke="#f6931e" stroke-width="5" fill="url(#i)" d="m-131.33 110.53 58.228-20.083-34.47-12.049-57.381 20.142z"/><path stroke="#f6931e" stroke-width="5" fill="url(#j)" d="m-164.98 98.698 58.228-20.083-33.972-11.883-57.41 19.741z"/><rect ry="0" rx="0" transform="matrix(.95046 .31084 0 1 0 0)" height="56.41" width="38.48" y="159.36" x="-202.77" fill="url(#g)"/><rect rx="0" ry="0" transform="matrix(.94420 -.32938 0 1 0 0)" width="31.046" y="71.303" x="-133.25" height="57.156" fill="url(#f)"/><path fill="url(#e)" d="m-166.13 93.101 44.178-15.279-18.957-5.8082-42.384 14.18z"/><path fill="url(#d)" d="m-131.78 105.2 44.178-15.279-18.957-5.8082-42.384 14.18z"/><rect ry="0" rx="0" transform="matrix(.94419 -.32939 0 1 0 0)" height="56.41" width="38.736" y="71.93" x="-131.14" fill="url(#k)"/></g></svg>
