<?xml version="1.0" encoding="UTF-8" standalone="no"?>
<!-- Generator: Adobe Illustrator 16.0.0, SVG Export Plug-In . SVG Version: 6.00 Build 0) -->
<svg id="svg3494" xmlns:rdf="http://www.w3.org/1999/02/22-rdf-syntax-ns#" xmlns="http://www.w3.org/2000/svg" xml:space="preserve" viewBox="0 0 120 120" version="1.1" xmlns:cc="http://creativecommons.org/ns#" enable-background="new 0 0 320.795 313.297" xmlns:dc="http://purl.org/dc/elements/1.1/"><metadata id="metadata3517"><rdf:RDF><cc:Work rdf:about=""><dc:format>image/svg+xml</dc:format><dc:type rdf:resource="http://purl.org/dc/dcmitype/StillImage"/><dc:title/></cc:Work></rdf:RDF></metadata><defs id="defs3515"><linearGradient id="SVGID_3_-8" y2="244.41" gradientUnits="userSpaceOnUse" x2="257.58" gradientTransform="translate(-95.503 -159.55)" y1="155.58" x1="257.58"><stop id="stop3424" stop-color="#FBED21" offset="0"/><stop id="stop3426" stop-color="#FAAF3B" offset="1"/></linearGradient><linearGradient id="SVGID_4_-7" y2="236.91" gradientUnits="userSpaceOnUse" x2="257.58" gradientTransform="translate(-95.503 -159.55)" y1="167.08" x1="257.58"><stop id="stop3431" stop-color="#fff" stop-opacity=".4" offset=".0051"/><stop id="stop3433" stop-color="#fff" stop-opacity="0" offset="1"/></linearGradient></defs><g id="goForward-3" transform="matrix(1.2425 0 0 1.2425 -141.02 7.768)"><g id="g3421"><path id="path3428" d="m200.49 45.375c4.199 0 5.207-2.43 2.236-5.402l-35.25-35.243c-2.969-2.975-7.832-2.975-10.803 0l-35.245 35.242c-2.972 2.973-1.962 5.402 2.238 5.402h19.712v30.068c0 4.199 3.438 7.639 7.641 7.639h24.069c4.201 0 7.64-3.439 7.64-7.639v-30.067h17.758z" stroke="#f6921e" stroke-miterlimit="10" stroke-width="5" fill="url(#SVGID_3_-8)"/><path id="path3435" fill="url(#SVGID_4_-7)" d="m185.13 38.342c2.52 0 3.124-1.458 1.342-3.242l-21.15-21.145c-1.781-1.785-4.699-1.785-6.482 0l-21.15 21.145c-1.783 1.784-1.177 3.242 1.343 3.242h11.827v33.041c0 2.52 2.063 4.583 4.584 4.583h14.442c2.521 0 4.583-2.063 4.583-4.583v-33.041h10.655z"/></g></g></svg>
