<?xml version="1.0" encoding="UTF-8" standalone="no"?>
<!-- Generator: Adobe Illustrator 16.2.1, SVG Export Plug-In . SVG Version: 6.00 Build 0)  -->
<svg id="svg2" xmlns:rdf="http://www.w3.org/1999/02/22-rdf-syntax-ns#" xmlns="http://www.w3.org/2000/svg" xml:space="preserve" viewBox="0 0 100 100" version="1.1" enable-background="new 0 0 351.229 351.228" xmlns:cc="http://creativecommons.org/ns#" xmlns:xlink="http://www.w3.org/1999/xlink" xmlns:dc="http://purl.org/dc/elements/1.1/"><metadata id="metadata33"><rdf:RDF><cc:Work rdf:about=""><dc:format>image/svg+xml</dc:format><dc:type rdf:resource="http://purl.org/dc/dcmitype/StillImage"/><dc:title/></cc:Work></rdf:RDF></metadata><defs id="defs31"><linearGradient id="linearGradient3055" y2="246.46" gradientUnits="userSpaceOnUse" x2="175.61" y1="141.13" x1="175.61"><stop id="stop6" stop-color="#8BC53F" offset="0"/><stop id="stop8" stop-color="#009145" offset="1"/></linearGradient><linearGradient id="linearGradient3063" y2="207.26" gradientUnits="userSpaceOnUse" x2="175.61" gradientTransform="translate(-.60065 .60065)" y1="141.39" x1="175.61"><stop id="stop13" stop-color="#fff" stop-opacity=".4" offset=".0051"/><stop id="stop15" stop-color="#fff" stop-opacity="0" offset="1"/></linearGradient></defs><g id="btnGo" transform="translate(-125.01 -126.21)"><circle id="circle10" r="44.524" d="m 220.138,175.614 c 0,24.58992 -19.93408,44.524 -44.524,44.524 -24.58993,0 -44.524,-19.93408 -44.524,-44.524 0,-24.58993 19.93407,-44.524 44.524,-44.524 24.58992,0 44.524,19.93407 44.524,44.524 z" cy="175.61" transform="translate(-.60065 .60065)" stroke="#009145" cx="175.61" stroke-miterlimit="10" stroke-width="5" fill="url(#linearGradient3055)"/><path id="path17" fill="url(#linearGradient3063)" d="m211.97 173.21c0 20.411-16.545 26.956-36.955 26.956s-36.955-6.545-36.955-26.956c0-20.409 16.545-34.954 36.955-34.954s36.955 14.545 36.955 34.954z"/><text id="text19" font-size="40px" y="190.77519" x="147.23991" font-family="Eagle-Bold" fill="#000000"><tspan id="tspan21" y="190.77519" x="147.23991">Go</tspan><tspan id="tspan23" y="190.77519" x="172.27992"/></text>
</g></svg>
