<svg xmlns:rdf="http://www.w3.org/1999/02/22-rdf-syntax-ns#" xmlns="http://www.w3.org/2000/svg" xml:space="preserve" viewBox="0 0 100 100" version="1.1" enable-background="new 0 0 351.229 351.228" xmlns:cc="http://creativecommons.org/ns#" xmlns:xlink="http://www.w3.org/1999/xlink" xmlns:dc="http://purl.org/dc/elements/1.1/"><defs><linearGradient id="b" y2="246.46" gradientUnits="userSpaceOnUse" y1="141.13" x2="175.61" x1="175.61"><stop stop-color="#8BC53F" offset="0"/><stop stop-color="#009145" offset="1"/></linearGradient><linearGradient id="a" x1="175.61" gradientUnits="userSpaceOnUse" y1="141.39" gradientTransform="translate(-.60065 .60065)" x2="175.61" y2="207.26"><stop stop-color="#fff" stop-opacity=".4" offset=".0051"/><stop stop-color="#fff" stop-opacity="0" offset="1"/></linearGradient></defs><g transform="translate(-125.01 -126.21)"><circle d="m 220.138,175.614 c 0,24.58992 -19.93408,44.524 -44.524,44.524 -24.58993,0 -44.524,-19.93408 -44.524,-44.524 0,-24.58993 19.93407,-44.524 44.524,-44.524 24.58992,0 44.524,19.93407 44.524,44.524 z" cx="175.61" cy="175.61" transform="translate(-.60065 .60065)" stroke="#009145" r="44.524" stroke-miterlimit="10" stroke-width="5" fill="url(#b)"/><path d="m211.97 173.21c0 20.411-16.545 26.956-36.955 26.956s-36.955-6.545-36.955-26.956c0-20.409 16.545-34.954 36.955-34.954s36.955 14.545 36.955 34.954z" fill="url(#a)"/><text font-size="40px" y="190.77519" x="147.23991" font-family="Eagle-Bold" fill="#000000"><tspan y="190.77519" x="147.23991">Go</tspan><tspan y="190.77519" x="172.27992"/></text>
</g></svg>
