<svg xmlns:rdf="http://www.w3.org/1999/02/22-rdf-syntax-ns#" xmlns="http://www.w3.org/2000/svg" xml:space="preserve" viewBox="0 0 120 120" version="1.1" xmlns:cc="http://creativecommons.org/ns#" enable-background="new 0 0 320.795 313.297" xmlns:dc="http://purl.org/dc/elements/1.1/"><g transform="matrix(1.2182 0 0 1.2182 .78070 -108.56)"><linearGradient id="b" x1="-4387.2" gradientUnits="userSpaceOnUse" y1="4931.7" gradientTransform="matrix(4.3666e-8 1 1 -4.3666e-8 -4936.1 4525.6)" x2="-4387.2" y2="5026.1"><stop stop-color="#FBED21" offset="0"/><stop stop-color="#FAAF3B" offset="1"/></linearGradient><path d="m36.823 163.94c0 3.363-1.945 4.17-4.323 1.791l-28.215-28.22c-2.38-2.375-2.38-6.27 0-8.646l28.215-28.21c2.378-2.379 4.323-1.57 4.323 1.791l0.04 15.369h44.954c3.465 0 6.301 2.836 6.301 6.303l0.039 47.033c0 3.465-2.834 6.301-6.299 6.301h-19.193c-3.465 0-6.301-2.836-6.301-6.301v-6.025l-0.039-16.23h-19.462l-0.04 15.05z" stroke="#f6921e" stroke-miterlimit="10" stroke-width="5" fill="url(#b)"/><linearGradient id="a" x1="-4401" gradientUnits="userSpaceOnUse" y1="4942.1" gradientTransform="matrix(4.3666e-8 1 1 -4.3666e-8 -4936.1 4525.6)" x2="-4401" y2="5019.6"><stop stop-color="#fff" stop-opacity=".4" offset=".0051"/><stop stop-color="#fff" stop-opacity="0" offset="1"/></linearGradient><path d="m11.703 130.36 16.929-16.929c1.427-1.428 2.594-0.942 2.594 1.074l0.024 9.222h46.972c2.079 0 3.781 1.702 3.781 3.782l0.007 3.553c0 6.528-70.307 8.321-70.307-0.702z" fill="url(#a)"/></g></svg>
