<svg xmlns:rdf="http://www.w3.org/1999/02/22-rdf-syntax-ns#" xmlns="http://www.w3.org/2000/svg" xml:space="preserve" viewBox="0 0 120 120" version="1.1" xmlns:cc="http://creativecommons.org/ns#" enable-background="new 0 0 320.795 313.297" xmlns:dc="http://purl.org/dc/elements/1.1/"><g transform="matrix(1.1916 0 0 1.1916 -262.23 -104.87)"><linearGradient id="a" x1="-4387.2" gradientUnits="userSpaceOnUse" y1="1371.5" gradientTransform="matrix(-4.3711e-8 1 -1 -4.3711e-8 1696.6 4525.6)" x2="-4387.2" y2="1465.9"><stop stop-color="#FBED21" offset="0"/><stop stop-color="#FAAF3B" offset="1"/></linearGradient><path d="m283.97 163.94c0 3.363 1.945 4.17 4.323 1.791l28.215-28.217c2.38-2.375 2.38-6.27 0-8.646l-28.215-28.215c-2.378-2.379-4.323-1.57-4.323 1.791l-0.04 15.369h-44.954c-3.465 0-6.301 2.836-6.301 6.303l-0.039 47.033c0 3.465 2.834 6.301 6.299 6.301h19.193c3.465 0 6.301-2.836 6.301-6.301v-6.025l0.039-16.234h19.462l0.04 15.05z" stroke="#f6921e" stroke-miterlimit="10" stroke-width="5" fill="url(#a)"/><linearGradient id="b" x1="-4401" gradientUnits="userSpaceOnUse" y1="1381.9" gradientTransform="matrix(-4.3711e-8 1 -1 -4.3711e-8 1696.6 4525.6)" x2="-4401" y2="1459.4"><stop stop-color="#fff" stop-opacity=".4" offset=".0051"/><stop stop-color="#fff" stop-opacity="0" offset="1"/></linearGradient><path d="m309.09 130.36-16.93-16.929c-1.427-1.428-2.594-0.942-2.594 1.074l-0.023 9.222h-46.973c-2.079 0-3.781 1.702-3.781 3.782l-0.007 3.553c0.001 6.528 70.308 8.321 70.308-0.702z" fill="url(#b)"/></g></svg>
