<svg xmlns:rdf="http://www.w3.org/1999/02/22-rdf-syntax-ns#" xmlns="http://www.w3.org/2000/svg" xml:space="preserve" viewBox="0 0 120 120" version="1.1" xmlns:cc="http://creativecommons.org/ns#" enable-background="new 0 0 320.795 313.297" xmlns:dc="http://purl.org/dc/elements/1.1/"><g transform="matrix(1.0915 0 0 1.0915 -121.57 -223.21)"><linearGradient id="b" x1="-2935.6" gradientUnits="userSpaceOnUse" y1="6172.4" gradientTransform="matrix(-1 0 0 -1 -2767.9 6491.2)" x2="-2935.6" y2="6281.2"><stop stop-color="#FBED21" offset="0"/><stop stop-color="#FAAF3B" offset="1"/></linearGradient><path d="m150.43 278.76c-3.139 0-3.892 1.814-1.672 4.035l26.335 26.332c2.218 2.221 5.852 2.221 8.071 0l26.33-26.33c2.221-2.221 1.466-4.035-1.672-4.035h-14.364v-60.787c0-3.232-2.646-5.879-5.881-5.879h-57.041c-3.234 0-5.881 2.646-5.881 5.879v43.65c0 3.234 2.646 5.881 5.881 5.881h17.801c3.234 0 5.881-2.646 5.881-5.881v-14.96h10.238v32.104h-14.029z" stroke="#f6921e" stroke-miterlimit="10" stroke-width="5" fill="url(#b)"/><linearGradient id="a" y2="279.85" gradientUnits="userSpaceOnUse" y1="205.93" x2="164.61" x1="164.61"><stop stop-color="#fff" stop-opacity=".4" offset=".0051"/><stop stop-color="#fff" stop-opacity="0" offset="1"/></linearGradient><path d="m161.9 283.84c-1.883 0-2.335 1.089-1.003 2.421l15.801 15.799c1.331 1.333 3.511 1.333 4.843 0l15.8-15.799c1.333-1.332 0.88-2.421-1.003-2.421h-8.619v-61.909c0-1.939-1.588-3.527-3.527-3.527h-49.542c-1.941 0-3.529 1.588-3.529 3.527v35.189c0 1.941 1.588 3.529 3.529 3.529h10.68c1.941 0 3.529-1.588 3.529-3.529v-17.98h21.46v44.7h-8.419z" fill="url(#a)"/></g></svg>
