<svg xmlns:rdf="http://www.w3.org/1999/02/22-rdf-syntax-ns#" xmlns="http://www.w3.org/2000/svg" xml:space="preserve" viewBox="0 0 120 120" version="1.1" enable-background="new 0 0 320.795 313.297" xmlns:cc="http://creativecommons.org/ns#" xmlns:xlink="http://www.w3.org/1999/xlink" xmlns:dc="http://purl.org/dc/elements/1.1/"><defs><linearGradient id="b" x1="-2935.6" gradientUnits="userSpaceOnUse" y1="6157.5" gradientTransform="matrix(-1 0 0 -1 -2788.3 6507.9)" x2="-2935.6" y2="6281.2"><stop stop-color="#FBED21" offset="0"/><stop stop-color="#FAAF3B" offset="1"/></linearGradient><linearGradient id="a" x1="190.31" gradientUnits="userSpaceOnUse" y1="81.05" gradientTransform="matrix(1.0424 0 0 1.0424 -138.63 23.336)" x2="190.31" y2="38.802"><stop stop-color="#fff" stop-opacity=".4" offset=".0051"/><stop stop-color="#fff" stop-opacity="0" offset="1"/></linearGradient></defs><g transform="translate(-4.3483)"><g transform="matrix(1.1378 0 0 1.1378 -92.838 -234.15)"><path d="m132.95 306.82c16.852 5.4435 29.13-16.078 24.028-8.8998 15.389-22.585 26.044-52.989 21.436-54.706-10.034-4.2908-21.254 25.613-22.788 19.86-2.362-8.8572 3.2312-42.108-5.1887-44.034-4.5668-1.0444-7.5056 4.463-7.5401-0.39669-0.0686-9.6568-15.234-12.077-14.671 2.3254 0.0955 2.4393-12.652-10.651-12.582 9.0693 0.005 1.3415-9.5428-8.5052-10.746 4.9668-1.8645 20.88-1.9901 46.727 5.777 60.069 6.9976 11.395 13.82 8.1615 22.276 11.746z" stroke="#f6921e" stroke-miterlimit="10" stroke-width="5" fill="url(#b)"/></g><g stroke="#f5901d" stroke-width="3.1271" fill="none"><path d="m38.831 26.648c1.5809 11.883-0.0639 22.972 0.34594 36.323l0.34594-1.0378"/><path d="m53.702 19.037 0.34593 39.956"/><path d="m69.966 17.826c-1.47-2.183-0.173 41.224-0.346 41.167"/><path d="m73.766 60.377c-14.187-3.327-32.119-1.549-40.647 5.881"/></g><g fill="#f5911e"><path d="m67.112 16.01 6.2269 2.854c-1.5072 0.90358-2.1468 1.9807-2.5081 3.1134l-2.941 3.287c-0.921-4.923-1.005-8.921-0.778-9.254z"/><path d="m49.988 19.383 5.7945-1.9891c0.12791 2.4855-0.19689 4.7447-0.51891 7.0052l-3.027-0.95133c-0.27531-2.6195-1.3082-3.2188-2.2486-4.0648z"/><path d="m35.459 29.242 6.1404-2.0756c0.0418 0.06895 0.21762-1.6005-0.60539 7.6106l-3.027-0.60539c0.31734-2.4281-1.0079-3.8827-2.508-4.9296z"/></g><path fill="url(#a)" stroke-miterlimit="10" d="m59.285 108.07c15.622 4.5704 27.003-13.499 22.274-7.4724 11.767-14.357 4.5987-22.441 0.30284-28.912-1.0113-1.6894-3.6591-4.004-6.2252-5.2536-16.858-6.8589-35.763-0.40639-43.394 6.2482 2.0141 12.768 0.1721 13.079 6.393 25.527 6.4867 9.5675 12.811 6.8525 20.65 9.8625z"/></g><g fill="#fff"><rect transform="rotate(71.327)" height="36.61" width="25.345" y="170.05" x="132.33"/><rect transform="rotate(109.85)" height="36.61" width="25.345" y="43.96" x="217.74"/><rect transform="rotate(109.85)" height="36.61" width="25.345" y="11.045" x="82.049"/></g></svg>
