<?xml version="1.0" encoding="UTF-8"?>
<svg xmlns="http://www.w3.org/2000/svg" xmlns:xlink="http://www.w3.org/1999/xlink" viewBox="0 0 256.33 300">
  <defs>
    <style>
      .cls-1 {
        fill: url(#linear-gradient);
      }

      .cls-1, .cls-2, .cls-3, .cls-4, .cls-5, .cls-6, .cls-7, .cls-8 {
        stroke-width: 0px;
      }

      .cls-2 {
        fill: #fff;
        mix-blend-mode: lighten;
        opacity: .2;
      }

      .cls-3 {
        fill: #106599;
      }

      .cls-9 {
        opacity: .4;
      }

      .cls-4 {
        fill: #c7a900;
      }

      .cls-5 {
        fill: #183049;
      }

      .cls-6 {
        fill: url(#linear-gradient-4);
      }

      .cls-7 {
        fill: url(#linear-gradient-2);
      }

      .cls-8 {
        fill: url(#linear-gradient-3);
      }

      .cls-10 {
        isolation: isolate;
      }
    </style>
    <linearGradient id="linear-gradient" x1="69.16" y1="33.78" x2="69.16" y2="124.19" gradientUnits="userSpaceOnUse">
      <stop offset="0" stop-color="#fff" stop-opacity=".4"/>
      <stop offset="1" stop-color="#fff" stop-opacity="0"/>
    </linearGradient>
    <linearGradient id="linear-gradient-2" x1="187.17" y1="33.78" x2="187.17" y2="124.19" xlink:href="#linear-gradient"/>
    <linearGradient id="linear-gradient-3" y1="173.57" y2="263.98" xlink:href="#linear-gradient"/>
    <linearGradient id="linear-gradient-4" x1="187.17" y1="173.57" x2="187.17" y2="263.98" xlink:href="#linear-gradient"/>
  </defs>
  <g class="cls-10">
    <g id="Layer_2" data-name="Layer 2">
      <g id="Layer_1-2" data-name="Layer 1">
        <g>
          <g class="cls-9">
            <path class="cls-5" d="M250.56,5.77v288.47H5.77V5.77h244.79M256.33,0H0v300h256.33V0h0Z"/>
          </g>
          <rect class="cls-3" x="14.42" y="14.42" width="109.48" height="131.38"/>
          <path class="cls-4" d="M123.9,14.42v131.38H14.42V14.42h109.48M132.55,5.77H5.77v148.68h126.78V5.77h0Z"/>
          <rect class="cls-1" x="23.96" y="24.02" width="90.4" height="111.16"/>
          <path class="cls-2" d="M123.9,37.76v-2.88h-20.45V14.42h-2.88v20.45h-19.01V14.42h-2.88v20.45h-19.01V14.42h-2.88v20.45h-19.01V14.42h-2.88v20.45H14.42v2.88h20.45v19.01H14.42v2.88h20.45v19.01H14.42v2.88h20.45v19.01H14.42v2.88h20.45v19.01H14.42v2.88h20.45v20.45h2.88v-20.45h19.01v20.45h2.88v-20.45h19.01v20.45h2.88v-20.45h19.01v20.45h2.88v-20.45h20.45v-2.88h-20.45v-19.01h20.45v-2.88h-20.45v-19.01h20.45v-2.88h-20.45v-19.01h20.45v-2.88h-20.45v-19.01h20.45ZM78.66,37.76v19.01h-19.01v-19.01h19.01ZM59.65,78.66v-19.01h19.01v19.01h-19.01ZM78.66,81.55v19.01h-19.01v-19.01h19.01ZM37.76,37.76h19.01v19.01h-19.01v-19.01ZM37.76,59.65h19.01v19.01h-19.01v-19.01ZM37.76,81.55h19.01v19.01h-19.01v-19.01ZM37.76,122.46v-19.01h19.01v19.01h-19.01ZM59.65,122.46v-19.01h19.01v19.01h-19.01ZM100.56,122.46h-19.01v-19.01h19.01v19.01ZM100.56,100.56h-19.01v-19.01h19.01v19.01ZM100.56,78.66h-19.01v-19.01h19.01v19.01ZM100.56,56.77h-19.01v-19.01h19.01v19.01Z"/>
          <rect class="cls-3" x="132.43" y="14.42" width="109.48" height="131.38"/>
          <path class="cls-4" d="M241.91,14.42v131.38h-109.48V14.42h109.48M250.56,5.77h-126.78v148.68h126.78V5.77h0Z"/>
          <rect class="cls-7" x="141.97" y="24.02" width="90.4" height="111.16"/>
          <path class="cls-2" d="M241.91,37.76v-2.88h-20.45V14.42h-2.88v20.45h-19.01V14.42h-2.88v20.45h-19.01V14.42h-2.88v20.45h-19.01V14.42h-2.88v20.45h-20.45v2.88h20.45v19.01h-20.45v2.88h20.45v19.01h-20.45v2.88h20.45v19.01h-20.45v2.88h20.45v19.01h-20.45v2.88h20.45v20.45h2.88v-20.45h19.01v20.45h2.88v-20.45h19.01v20.45h2.88v-20.45h19.01v20.45h2.88v-20.45h20.45v-2.88h-20.45v-19.01h20.45v-2.88h-20.45v-19.01h20.45v-2.88h-20.45v-19.01h20.45v-2.88h-20.45v-19.01h20.45ZM196.68,37.76v19.01h-19.01v-19.01h19.01ZM177.67,78.66v-19.01h19.01v19.01h-19.01ZM196.68,81.55v19.01h-19.01v-19.01h19.01ZM155.77,37.76h19.01v19.01h-19.01v-19.01ZM155.77,59.65h19.01v19.01h-19.01v-19.01ZM155.77,81.55h19.01v19.01h-19.01v-19.01ZM155.77,122.46v-19.01h19.01v19.01h-19.01ZM177.67,122.46v-19.01h19.01v19.01h-19.01ZM218.57,122.46h-19.01v-19.01h19.01v19.01ZM218.57,100.56h-19.01v-19.01h19.01v19.01ZM218.57,78.66h-19.01v-19.01h19.01v19.01ZM218.57,56.77h-19.01v-19.01h19.01v19.01Z"/>
          <rect class="cls-3" x="14.42" y="154.21" width="109.48" height="131.38"/>
          <path class="cls-4" d="M123.9,154.21v131.38H14.42v-131.38h109.48M132.55,145.56H5.77v148.68h126.78v-148.68h0Z"/>
          <rect class="cls-8" x="23.96" y="163.81" width="90.4" height="111.16"/>
          <path class="cls-2" d="M123.9,177.55v-2.88h-20.45v-20.45h-2.88v20.45h-19.01v-20.45h-2.88v20.45h-19.01v-20.45h-2.88v20.45h-19.01v-20.45h-2.88v20.45H14.42v2.88h20.45v19.01H14.42v2.88h20.45v19.01H14.42v2.88h20.45v19.01H14.42v2.88h20.45v19.01H14.42v2.88h20.45v20.45h2.88v-20.45h19.01v20.45h2.88v-20.45h19.01v20.45h2.88v-20.45h19.01v20.45h2.88v-20.45h20.45v-2.88h-20.45v-19.01h20.45v-2.88h-20.45v-19.01h20.45v-2.88h-20.45v-19.01h20.45v-2.88h-20.45v-19.01h20.45ZM78.66,177.55v19.01h-19.01v-19.01h19.01ZM59.65,218.45v-19.01h19.01v19.01h-19.01ZM78.66,221.34v19.01h-19.01v-19.01h19.01ZM37.76,177.55h19.01v19.01h-19.01v-19.01ZM37.76,199.44h19.01v19.01h-19.01v-19.01ZM37.76,221.34h19.01v19.01h-19.01v-19.01ZM37.76,262.25v-19.01h19.01v19.01h-19.01ZM59.65,262.25v-19.01h19.01v19.01h-19.01ZM100.56,262.25h-19.01v-19.01h19.01v19.01ZM100.56,240.35h-19.01v-19.01h19.01v19.01ZM100.56,218.45h-19.01v-19.01h19.01v19.01ZM100.56,196.56h-19.01v-19.01h19.01v19.01Z"/>
          <rect class="cls-3" x="132.43" y="154.21" width="109.48" height="131.38"/>
          <path class="cls-4" d="M241.91,154.21v131.38h-109.48v-131.38h109.48M250.56,145.56h-126.78v148.68h126.78v-148.68h0Z"/>
          <rect class="cls-6" x="141.97" y="163.81" width="90.4" height="111.16"/>
          <path class="cls-2" d="M241.91,177.55v-2.88h-20.45v-20.45h-2.88v20.45h-19.01v-20.45h-2.88v20.45h-19.01v-20.45h-2.88v20.45h-19.01v-20.45h-2.88v20.45h-20.45v2.88h20.45v19.01h-20.45v2.88h20.45v19.01h-20.45v2.88h20.45v19.01h-20.45v2.88h20.45v19.01h-20.45v2.88h20.45v20.45h2.88v-20.45h19.01v20.45h2.88v-20.45h19.01v20.45h2.88v-20.45h19.01v20.45h2.88v-20.45h20.45v-2.88h-20.45v-19.01h20.45v-2.88h-20.45v-19.01h20.45v-2.88h-20.45v-19.01h20.45v-2.88h-20.45v-19.01h20.45ZM196.68,177.55v19.01h-19.01v-19.01h19.01ZM177.67,218.45v-19.01h19.01v19.01h-19.01ZM196.68,221.34v19.01h-19.01v-19.01h19.01ZM155.77,177.55h19.01v19.01h-19.01v-19.01ZM155.77,199.44h19.01v19.01h-19.01v-19.01ZM155.77,221.34h19.01v19.01h-19.01v-19.01ZM155.77,262.25v-19.01h19.01v19.01h-19.01ZM177.67,262.25v-19.01h19.01v19.01h-19.01ZM218.57,262.25h-19.01v-19.01h19.01v19.01ZM218.57,240.35h-19.01v-19.01h19.01v19.01ZM218.57,218.45h-19.01v-19.01h19.01v19.01ZM218.57,196.56h-19.01v-19.01h19.01v19.01Z"/>
        </g>
      </g>
    </g>
  </g>
</svg>