<?xml version="1.0" encoding="UTF-8" standalone="no"?>
<!-- Generator: Adobe Illustrator 16.0.0, SVG Export Plug-In . SVG Version: 6.00 Build 0)  -->

<svg
   xmlns:dc="http://purl.org/dc/elements/1.1/"
   xmlns:cc="http://creativecommons.org/ns#"
   xmlns:rdf="http://www.w3.org/1999/02/22-rdf-syntax-ns#"
   xmlns:svg="http://www.w3.org/2000/svg"
   xmlns="http://www.w3.org/2000/svg"
   xmlns:sodipodi="http://sodipodi.sourceforge.net/DTD/sodipodi-0.dtd"
   xmlns:inkscape="http://www.inkscape.org/namespaces/inkscape"
   version="1.1"
   
   viewBox="0 0 120 120"
   enable-background="new 0 0 320.795 313.297"
   xml:space="preserve"
   id="svg4165"
   inkscape:version="0.48.4 r9939"
   sodipodi:docname="arrow_right.svg"><metadata
     id="metadata4188"><rdf:RDF><cc:Work
         rdf:about=""><dc:format>image/svg+xml</dc:format><dc:type
           rdf:resource="http://purl.org/dc/dcmitype/StillImage" /></cc:Work></rdf:RDF></metadata><defs
     id="defs4186" /><sodipodi:namedview
     pagecolor="#ffffff"
     bordercolor="#666666"
     borderopacity="1"
     objecttolerance="10"
     gridtolerance="10"
     guidetolerance="10"
     inkscape:pageopacity="0"
     inkscape:pageshadow="2"
     inkscape:window-width="640"
     inkscape:window-height="480"
     id="namedview4184"
     showgrid="false"
     inkscape:zoom="1.5065577"
     inkscape:cx="2.4214785"
     inkscape:cy="61.443743"
     inkscape:window-x="9"
     inkscape:window-y="102"
     inkscape:window-maximized="0"
     inkscape:current-layer="svg4165" /><g
     id="turnRight"
     transform="matrix(1.1915547,0,0,1.1915547,-262.2334,-104.87215)"><g
       id="g4168"><linearGradient
         id="SVGID_9_"
         gradientUnits="userSpaceOnUse"
         x1="-4387.187"
         y1="1371.4795"
         x2="-4387.187"
         y2="1465.8977"
         gradientTransform="matrix(-4.371139e-8,1,-1,-4.371139e-8,1696.6494,4525.5532)"><stop
           offset="0"
           style="stop-color:#FBED21"
           id="stop4171" /><stop
           offset="1"
           style="stop-color:#FAAF3B"
           id="stop4173" /></linearGradient><path
         stroke-miterlimit="10"
         d="m 283.972,163.939 c 0,3.363 1.945,4.17 4.323,1.791 l 28.215,-28.217 c 2.38,-2.375 2.38,-6.27 0,-8.646 l -28.215,-28.215 c -2.378,-2.379 -4.323,-1.57 -4.323,1.791 l -0.04,15.369 h -44.954 c -3.465,0 -6.301,2.836 -6.301,6.303 l -0.039,47.033 c 0,3.465 2.834,6.301 6.299,6.301 h 19.193 c 3.465,0 6.301,-2.836 6.301,-6.301 v -6.025 l 0.039,-16.234 h 19.462 l 0.04,15.05 z"
         id="path4175"
         inkscape:connector-curvature="0"
         style="fill:url(#SVGID_9_);stroke:#f6921e;stroke-width:5;stroke-miterlimit:10" /><linearGradient
         id="SVGID_10_"
         gradientUnits="userSpaceOnUse"
         x1="-4400.9697"
         y1="1381.9131"
         x2="-4400.9697"
         y2="1459.4117"
         gradientTransform="matrix(-4.371139e-8,1,-1,-4.371139e-8,1696.6494,4525.5532)"><stop
           offset="0.0051"
           style="stop-color:#FFFFFF;stop-opacity:0.4"
           id="stop4178" /><stop
           offset="1"
           style="stop-color:#FFFFFF;stop-opacity:0"
           id="stop4180" /></linearGradient><path
         d="m 309.093,130.364 -16.93,-16.929 c -1.427,-1.428 -2.594,-0.942 -2.594,1.074 l -0.023,9.222 h -46.973 c -2.079,0 -3.781,1.702 -3.781,3.782 l -0.007,3.553 c 0.001,6.528 70.308,8.321 70.308,-0.702 z"
         id="path4182"
         inkscape:connector-curvature="0"
         style="fill:url(#SVGID_10_)" /></g></g></svg>