<svg xmlns:rdf="http://www.w3.org/1999/02/22-rdf-syntax-ns#" xmlns="http://www.w3.org/2000/svg" xml:space="preserve" viewBox="0 0 72.625748 45.622501" version="1.1" xmlns:cc="http://creativecommons.org/ns#" xmlns:dc="http://purl.org/dc/elements/1.1/"><defs><clipPath id="f"><path d="m0 36.498h58.101v-36.498h-58.101v36.498z"/></clipPath><clipPath id="e"><path d="m0 36.498h58.101v-36.498h-58.101v36.498z"/></clipPath><clipPath id="d"><path d="m54.357 3.35-1.548 0.459-2.026-0.497-1.826 0.899-1.969-0.057-1.957-0.224-1.906 0.298-1.945-0.238-1.934 0.246-2.113 0.164-2.004-0.534-2.08-0.053-1.985-0.855-2.08 0.069-2.105 0.067-2.065 0.444-2.072 0.38-2.069 0.357-2.126-0.178-1.867-0.145-1.89 0.84-1.877-0.54-1.923-0.135-1.99 0.255-1.82-0.939-1.928-0.228-1.674 0.111-0.115 1.745 0.198 2.029-0.466 2.03-0.305 2.03l0.017 2.032 0.062 2.031 0.546 2.03 0.313 2.032-0.302 2.028-0.44 2.031 0.158 2.033 0.442 2.033-0.014 2.035-0.043 2.037-0.553 2.296 2.094-0.978 2.017 0.517 1.866-0.633 1.966 0.082 1.847-1.049 1.976 0.564 1.946-0.399 1.951 0.282 2.063 0.276 1.964 0.743 2.102-0.218 2.036 0.561 2.079 0.019 2.1-0.304 2.128 0.26 2.109-0.175 2.11-0.285 1.979-0.729 1.711 0.341 1.724-0.553 1.734-0.033 1.988 0.533 1.971 0.602 2.098-0.379 1.997 0.437 1.809 0.02-0.146-1.791 0.155-2.03 0.587-2.031-0.845-2.029 0.4-2.033 0.494-2.03-0.333-2.031 0.333-2.031-0.207-2.029-0.505-2.031 0.738-2.032-0.753-2.033 0.555-2.035-0.74-2 0.183-1.754z"/></clipPath><linearGradient id="a" gradientUnits="userSpaceOnUse" gradientTransform="matrix(52.223 0 0 -52.223 2.8896 18.363)"><stop stop-color="#edcc77" offset="0"/><stop stop-color="#f3ae48" offset=".22752"/><stop stop-color="#eecb74" offset=".43481"/><stop stop-color="#f0c96f" offset=".63684"/><stop stop-color="#f5b75d" offset=".71297"/><stop stop-color="#edcc77" offset=".85431"/><stop stop-color="#edcc77" offset="1"/></linearGradient><clipPath id="c"><path d="m0 36.498h58.101v-36.498h-58.101v36.498z"/></clipPath><clipPath id="b"><path d="m17.104 30.744h24.898v-25.261h-24.898v25.261z"/></clipPath><clipPath id="h"><path d="m5.5977 29.717h7.7314v-23.719h-7.7314v23.719z"/></clipPath><clipPath id="g"><path d="m44.419 30.744h8.0645v-24.442h-8.0645v24.442z"/></clipPath></defs><g transform="matrix(1.25 0 0 -1.25 0 45.622)"><g clip-path="url(#f)"><g opacity=".2" clip-path="url(#e)"><g transform="translate(57.4 .2031)"><path fill="#183049" d="m0 0-12.981 0.896h-5.419s-5.434-1.099-10.6-1.099c-5.167 0-10.75 1.099-10.75 1.099h-4.416l-12.334-0.996-0.9 36.299 13.328-1.199h3.405s5.149 1.1 12.208 1.1 12.336-1.1 12.336-1.1h4.707l12.116 1.295-0.7-36.295z"/></g></g></g><g clip-path="url(#d)"><path fill="url(#a)" d="m54.357 3.35-1.548 0.459-2.026-0.497-1.826 0.899-1.969-0.057-1.957-0.224-1.906 0.298-1.945-0.238-1.934 0.246-2.113 0.164-2.004-0.534-2.08-0.053-1.985-0.855-2.08 0.069-2.105 0.067-2.065 0.444-2.072 0.38-2.069 0.357-2.126-0.178-1.867-0.145-1.89 0.84-1.877-0.54-1.923-0.135-1.99 0.255-1.82-0.939-1.928-0.228-1.674 0.111-0.115 1.745 0.198 2.029-0.466 2.03-0.305 2.03l0.017 2.032 0.062 2.031 0.546 2.03 0.313 2.032-0.302 2.028-0.44 2.031 0.158 2.033 0.442 2.033-0.014 2.035-0.043 2.037-0.553 2.296 2.094-0.978 2.017 0.517 1.866-0.633 1.966 0.082 1.847-1.049 1.976 0.564 1.946-0.399 1.951 0.282 2.063 0.276 1.964 0.743 2.102-0.218 2.036 0.561 2.079 0.019 2.1-0.304 2.128 0.26 2.109-0.175 2.11-0.285 1.979-0.729 1.711 0.341 1.724-0.553 1.734-0.033 1.988 0.533 1.971 0.602 2.098-0.379 1.997 0.437 1.809 0.02-0.146-1.791 0.155-2.03 0.587-2.031-0.845-2.029 0.4-2.033 0.494-2.03-0.333-2.031 0.333-2.031-0.207-2.029-0.505-2.031 0.738-2.032-0.753-2.033 0.555-2.035-0.74-2 0.183-1.754z"/></g><g clip-path="url(#c)"><g transform="translate(54.357 3.3496)"><path d="m0 0-1.549 0.459-2.025-0.497-1.826 0.899-1.969-0.056-1.957-0.225l-1.906 0.298-1.946-0.237-1.933 0.246-2.114 0.164-2.004-0.534-2.08-0.054-1.984-0.855-2.08 0.07-2.106 0.066-2.064 0.444-2.072 0.38-2.07 0.358-2.126-0.179-1.867-0.144-1.889 0.839-1.877-0.54-1.923-0.134-1.99 0.254-1.821-0.939-1.927-0.228-1.674 0.112-0.116 1.744 0.199 2.029-0.466 2.031-0.306 2.03 0.018 2.031 0.061 2.031 0.546 2.031 0.314 2.032-0.302 2.027-0.44 2.031 0.158 2.034 0.441 2.033-0.014 2.034-0.043 2.037-0.552 2.296 2.093-0.978 2.018 0.517 1.865-0.633 1.966 0.082 1.848-1.049 1.975 0.565 1.947-0.4 1.951 0.283 2.062 0.275 1.964 0.743 2.103-0.218 2.036 0.561 2.079 0.02 2.1-0.304 2.128 0.26 2.109-0.175 2.109-0.285 1.98-0.73 1.711 0.341 1.723-0.553 1.735-0.033 1.988 0.533 1.971 0.603 2.097-0.379 1.997 0.436 1.81 0.02-0.146-1.791 0.155-2.029 0.587-2.032-0.845-2.029 0.399-2.032 0.495-2.03-0.333-2.032 0.333-2.031-0.208-2.028-0.504-2.032 0.738-2.032-0.753-2.033 0.555-2.034-0.741-2 0.184-1.755z" stroke="#d1a134" stroke-miterlimit="10" stroke-width="3" fill="none"/></g><g opacity=".60001" clip-path="url(#b)"><g transform="translate(40.293 29.282)"><path fill="#fce895" d="m0 0c-1.184-0.391-2.727-0.594-3.767-1.104 1.869-0.133 3.694 0.134 5.476-0.627-1.6-0.022-3.234-0.206-4.538-1.157 0.725 0.067 1.606-0.05 2.257-0.213-0.625-0.038-1.334-0.148-1.695-0.634 0.58 0.006 1.291-0.043 1.757-0.269-0.734-0.336-2.44-0.631-2.5-1.606 1.244-0.162 3.047-0.473 3.858-1.491-1.885-1.019-3.996-1.559-5.615-3.005 0.783-0.092 1.894 0.328 2.519-0.023-0.377-0.309-0.986-0.401-1.491-0.507 1.159 0.053 2.251-0.61 3.307-0.999-1.49-0.322-3.121-0.425-4.343-1.477 1.462-0.109 3.435 0.849 4.709-0.251-1.577 0.031-3.043-0.474-4.323-1.241 0.794-0.02 2.746-0.035 2.866-1.034-0.625-0.283-1.336-0.401-2.016-0.525 0.55-0.297 1.137-0.624 1.736-0.846-0.118-0.07-0.197-0.099-0.327-0.147 0.439-0.507 1.447-0.597 1.983-1.07-1.066-0.391-2.107-0.554-3.205-1.04 0.713-0.247 1.596-0.297 2.321-0.643-0.426-1.061-2.307-1.081-3.1-1.689 0.188-0.126 0.248-0.292 0.383-0.416-3.201-2.733-14.381-2.073-17.791 0.255 0.765 0.606 1.898 0.953 2.609 1.636-2.797 0.468-2.957 1.25-0.48 2.345-0.594 0.041-2.565-0.229-1.738 0.773-0.235 0.01-0.67 0.301-0.891 0.367 1.022 1.043 3.026 1.852 3.754 2.981-1.606 0.904-4.042 0.642-1.859 2.625-0.823-0.044-1.659 0.043-2.141 0.771 0.945 0.782 2.172 1.118 3.233 1.702 0.247 0.136 0.728 0.511 0.468 0.849-0.187 0.242-0.857-0.113-1.166-0.17-0.877-0.162-1.823-0.125-2.64-0.527 0.63 0.466 1.372 0.713 2.089 1.008 0.334 0.137 0.617 0.333 0.953 0.466 0.198 0.079 0.803 0.412 0.996 0.375-0.557 0.104-1.326-0.308-1.842-0.042-0.206 0.107-0.343 0.347-0.322 0.576 0.008 0.081 0.256 0.548 0.327 0.532-0.224 0.052-2.175 0.017-2.082 0.245 0.099 0.24 1.187 0.5 1.421 0.574 0.434 0.139 0.943 0.227 1.338 0.416-0.679 0.297-1.681 0.031-2.413 0.092 1.004 0.228 2.032 0.652 3.029 0.96-0.815 0.321-1.977 0.185-2.87 0.247 0.174 0.414 1.028 0.703 1.379 0.992-0.436 0.332-3.304-0.01-2.724 0.709 2.218 2.75 15.642 3.83 23.111 1.257"/></g></g><g opacity=".60001" clip-path="url(#h)"><g transform="translate(12.816 28.649)"><path fill="#fce895" d="m0 0c-1.499 1.456-4.305 1.009-6.16 0.981 0.705-0.393 1.865-0.241 2.399-1-0.511-0.795-2.171-0.444-2.649-1.464 0.423-0.198 0.892-0.021 1.324-0.203-0.541-0.534-1.074-0.52-1.509-1.235 0.437-0.293 0.909-0.557 1.366-0.824-0.232-0.191-0.558-0.359-0.765-0.571 0.836-0.146 3.025 0.004 3.588-0.684-0.198-0.2-0.431-0.463-0.506-0.731 0.516-0.192 1.55-0.162 1.652-0.838-1.825-0.762-3.709-1.316-5.652-1.662 0.851-0.136 2.365 0.179 2.488-0.848-0.578-0.519-1.492-0.927-1.904-1.572 0.807-0.079 3.26 0.635 3.406-0.495-1.474-0.878-3.203-1.547-4.219-3.009 0.935 0.053 1.815 0.755 2.802 0.411-0.171-0.816-1.64-0.932-1.648-1.91 0.096-0.008 3.184 0.406 3.279 0.404-0.355-0.213-3.789-0.762-3.868-1.171 2.642-0.903 3.254-2.656-0.643-4.093 1.655 0.747 3.363 0.726 5.041 1.172-1.082-1.257-2.299-2.36-3.652-3.309 1.175 0.04 2.137 0.427 2.922 0.559 4.304 0.725 3.325 2.443 3.325 4.822l-0.569 6.988 0.152 10.282z"/></g></g><g opacity=".60001" clip-path="url(#g)"><g transform="translate(45.983 30.066)"><path fill="#fce895" d="m0 0c1.331 0.112 5.75 0.678 5.75 0.678l-1.417-1.028 2.167-1.374s-5.5-0.025-6-0.567 3.25-0.958 3.542-1c0.291-0.042-1.125-0.259-1.5-0.317-0.375-0.059-1.292-0.829-1.292-0.829s-1.251-1.027 1.583-1.003c2.834 0.023 3.334-0.477 3.334-0.477l-4.917-1.999 3.604 0.68-1.604-0.757 1.083-0.757-4.916-1.416 7.083-0.104-5.083-0.813s0.791-1.668 3.937-1.584-1.312-0.916-1.312-0.916 1.541-2.167 1.708-2.167-1.417-0.5-1.417-0.5l1.834-0.583-4.75-1.854 4.333-0.436s-3.917-0.995-4.333-1.478c-0.417-0.482 4.083-1.49 4.333-1.528 0.188-0.029-0.884-0.071-1.419-0.09-0.172-0.006-0.289-0.01-0.289-0.01l1.708-1.187s-4.833-0.084-6.333-0.334-0.834 2.709-0.834 2.709 0.833 4.707 0.75 5.874-0.5 2.835-0.25 7.251 0.248 7.859 0.917 7.916"/></g></g><g transform="translate(15.817 33.405)"><path fill="#a5781e" d="m0 0s1.304-9.393 1.683-15.984c0.483-8.396-0.35-14.463-0.35-14.463l-1.333 30.447z"/></g><g transform="translate(42.15 31.233)"><path fill="#a5781e" d="m0 0s-1.748-10.501-1.748-13.834 0.374-10.995 0.874-12.166 0.874 26 0.874 26"/></g><g transform="translate(14.618 33.401)"><path d="m0 0 1.199-30.965" stroke="#473310" stroke-linecap="round" stroke-miterlimit="10" stroke-width="3" fill="none"/></g><g transform="translate(43.352 33.405)"><path d="m0 0-1.201-30.969" stroke="#473310" stroke-linecap="round" stroke-miterlimit="10" stroke-width="3" fill="none"/></g><g transform="translate(2.8896 23.15)"><path fill="#d1a134" d="m0 0 7.386-1-7.386-1v2z"/></g><g transform="translate(19.001,7.6816)"><path fill="#d1a134" d="m0 0s0.311 0.057 0.854 0.133c0.545 0.065 1.323 0.188 2.258 0.284 1.868 0.204 4.364 0.393 6.863 0.501 2.507 0.018 5.018-0.044 6.897-0.156 0.94-0.048 1.722-0.133 2.269-0.171 0.547-0.049 0.859-0.091 0.859-0.091s-0.313-0.047-0.86-0.104c-0.547-0.047-1.328-0.145-2.264-0.209-1.873-0.142-4.365-0.245-6.859-0.267-2.499-0.102-5.002-0.122-6.881-0.074-0.94 0.016-1.725 0.073-2.273 0.093-0.549 0.031-0.863 0.061-0.863 0.061"/></g><g transform="translate(22.152 10.31)"><path fill="#d1a134" d="m0 0s0.284 0.05 0.782 0.114c0.499 0.054 1.21 0.159 2.064 0.235 1.709 0.163 3.99 0.303 6.272 0.361 1.146-0.01 2.291-0.016 3.364-0.057 0.538-0.019 1.055-0.025 1.547-0.083 0.492-0.044 0.955-0.098 1.383-0.15 0.856-0.096 1.565-0.22 2.061-0.286 0.496-0.076 0.777-0.134 0.777-0.134s-0.289-0.031-0.79-0.061c-0.501-0.019-1.218-0.077-2.071-0.093-0.428-0.012-0.89-0.023-1.377-0.022-0.489 0.008-1.005-0.047-1.537-0.052-1.067-0.043-2.204-0.05-3.34-0.062-2.281-0.05-4.563-0.023-6.278 0.067-0.856 0.037-1.571 0.112-2.071 0.144-0.5 0.041-0.786 0.079-0.786 0.079"/></g><g transform="translate(17.15 27.775)"><path fill="#d1a134" d="m0 0s0.111 0.102 0.314 0.265c0.213 0.154 0.474 0.413 0.911 0.58 0.209 0.097 0.441 0.203 0.694 0.3 0.249 0.077 0.512 0.149 0.788 0.211 0.277 0.068 0.563 0.141 0.856 0.16 0.294 0.031 0.592 0.062 0.89 0.093 0.597-0.006 1.195 0.026 1.748-0.051 0.555-0.046 1.068-0.133 1.501-0.24 0.87-0.19 1.423-0.443 1.423-0.443s-0.151-0.024-0.41-0.051c-0.26-0.026-0.625-0.047-1.062-0.077-0.432-0.02-0.936-0.044-1.477-0.069-0.533-0.022-1.104-0.044-1.672-0.067-0.561-0.05-1.135-0.048-1.652-0.121-0.26-0.035-0.52-0.044-0.76-0.068-0.226-0.047-0.446-0.078-0.655-0.108-0.207-0.034-0.409-0.042-0.581-0.106-0.174-0.047-0.327-0.087-0.453-0.12-0.255-0.062-0.403-0.088-0.403-0.088"/></g><g transform="translate(17.4 26.775)"><path fill="#d1a134" d="m0 0s0.086 0.083 0.244 0.215c0.079 0.064 0.175 0.145 0.289 0.226 0.104 0.095 0.266 0.15 0.434 0.222 0.17 0.071 0.361 0.152 0.568 0.216 0.197 0.044 0.406 0.095 0.627 0.128 0.443 0.102 0.906 0.076 1.377 0.099 0.461-0.039 0.928-0.053 1.352-0.145 0.426-0.071 0.818-0.169 1.148-0.278 0.662-0.201 1.086-0.433 1.086-0.433s-0.473-0.101-1.156-0.137c-0.344-0.019-0.739-0.03-1.157-0.029-0.419 0.006-0.859 0.005-1.3 0.023-0.217 0.004-0.436 0.009-0.651 0.013-0.215 0.007-0.425 0.025-0.627 0.012-0.201-0.008-0.399 0.005-0.588 0.012-0.173-0.016-0.339-0.021-0.501-0.024-0.159-0.014-0.316 0.016-0.456-0.025-0.138-0.03-0.262-0.045-0.365-0.061-0.204-0.027-0.324-0.034-0.324-0.034"/></g><g transform="translate(54.23 26.652)"><path fill="#d1a134" d="m0 0-6.829 1.123 6.92-0.127-0.091-0.996z"/></g><g transform="translate(54.781 20.918)"><path fill="#d1a134" d="m0 0s-0.541-0.104-1.354-0.261c-0.802-0.179-1.953-0.245-3.05-0.383-2.198-0.187-4.394-0.374-4.394-0.374s2.161 0.435 4.321 0.869c1.065 0.261 2.114 0.429 2.901 0.702 0.787 0.247 1.312 0.412 1.312 0.412l0.264-0.965z"/></g><g transform="translate(54.125,8.7764)"><path fill="#d1a134" d="m0 0s-0.352 0.051-0.877 0.127c-0.521 0.062-1.235 0.218-1.935 0.345-0.69 0.118-1.385 0.267-1.909 0.305-0.527 0.059-0.879 0.097-0.879 0.097s0.354 0.024 0.883 0.06c0.535 0.055 1.242 0.029 1.957 0.035 0.705-0.001 1.391-0.03 1.926 0.001 0.531 0.017 0.885 0.028 0.885 0.028l-0.051-0.998z"/></g><g transform="translate(2.8437,7.1162)"><path fill="#d1a134" d="m0 0s1.74 0.544 3.482 1.088c1.788 0.41 3.575 0.821 3.575 0.821s-1.698-0.643-3.394-1.287c-1.649-0.776-3.3-1.554-3.3-1.554l-0.363 0.932z"/></g><g transform="translate(19.396 24.174)"><path fill="#fff5cc" d="m0 0s0.281 0.064 0.773 0.177c0.495 0.103 1.194 0.295 2.043 0.446 0.424 0.079 0.884 0.166 1.371 0.257 0.483 0.101 1.01 0.137 1.551 0.184 1.084 0.089 2.241 0.184 3.398 0.28 1.157-0.023 2.314-0.044 3.399-0.065 0.541-0.013 1.067-0.013 1.56-0.088 0.493-0.059 0.96-0.116 1.391-0.168 0.862-0.097 1.573-0.241 2.071-0.313 0.498-0.08 0.783-0.125 0.783-0.125l-0.006-0.051s-1.147 0.078-2.867 0.194c-0.43 0.029-0.895 0.06-1.388 0.093-0.492 0.049-1.015 0.014-1.552 0.025-1.078-0.001-2.226-0.001-3.375-0.001-1.146-0.073-2.293-0.145-3.368-0.213-0.536-0.044-1.059-0.045-1.548-0.12-0.49-0.066-0.953-0.126-1.38-0.183-1.71-0.226-2.849-0.378-2.849-0.378l-0.007 0.049z"/></g><g transform="translate(19.312 21.341)"><path fill="#fff5cc" d="m0 0s0.292 0.086 0.803 0.235c0.512 0.141 1.236 0.384 2.12 0.599 0.441 0.112 0.919 0.232 1.424 0.36 0.501 0.146 1.06 0.186 1.629 0.261 1.142 0.133 2.362 0.275 3.582 0.417 1.222-0.016 2.445-0.031 3.591-0.046 0.572-0.017 1.127 0.005 1.646-0.094 0.52-0.074 1.011-0.144 1.465-0.209 0.907-0.123 1.653-0.288 2.177-0.374 0.523-0.094 0.822-0.149 0.822-0.149l-0.008-0.049s-1.206 0.111-3.016 0.278c-0.452 0.041-0.941 0.086-1.46 0.134-0.516 0.074-1.068 0.016-1.635 0.03-1.135-0.006-2.346-0.013-3.557-0.02-1.205-0.118-2.409-0.236-3.539-0.348-0.563-0.07-1.115-0.075-1.623-0.195-0.511-0.101-0.994-0.197-1.44-0.287-1.783-0.356-2.971-0.592-2.971-0.592l-0.01 0.049z"/></g><g transform="translate(38.733 20.542)"><path fill="#fff5cc" d="m0 0s-0.494-0.139-1.235-0.242c-0.371-0.036-0.805-0.117-1.268-0.133-0.465-0.019-0.959-0.039-1.454-0.059-0.491-0.001-0.983-0.001-1.443-0.002-0.461-0.001-0.895 0.06-1.267 0.081-0.371 0.023-0.684 0.093-0.902 0.119-0.219 0.037-0.346 0.068-0.346 0.068l-0.004 0.051s1.98 0.091 3.959 0.182c1.98-0.007 3.96-0.016 3.96-0.016v-0.049z"/></g><g transform="translate(19.314 15.509)"><path fill="#fff5cc" d="m0 0s0.556 0.182 1.397 0.354c0.423 0.069 0.912 0.19 1.443 0.248 0.529 0.06 1.095 0.126 1.66 0.191 0.575-0.014 1.15-0.026 1.689-0.039 0.54-0.011 1.043-0.084 1.473-0.114 0.43-0.035 0.785-0.115 1.034-0.146 0.249-0.043 0.39-0.078 0.39-0.078l-0.001-0.051s-2.273-0.035-4.544-0.07c-2.27-0.173-4.537-0.346-4.537-0.346l-0.004 0.051z"/></g><g transform="translate(20.963 9.2998)"><path fill="#fff5cc" d="m0 0s0.246 0.024 0.678 0.066c0.431 0.034 1.049 0.123 1.788 0.155 0.739 0.028 1.602 0.101 2.526 0.108 0.925 0.011 1.91 0.023 2.897 0.033 0.985-0.027 1.97-0.054 2.894-0.08 0.924-0.023 1.786-0.108 2.526-0.149 0.738-0.044 1.353-0.143 1.785-0.182 0.43-0.049 0.677-0.076 0.677-0.076v-0.051s-3.943 0.02-7.886 0.039c-3.944 0.043-7.885 0.088-7.885 0.088v0.049z"/></g><g transform="translate(52.816 18.547)"><path fill="#fff5cc" d="m0 0s-0.35-0.084-0.874-0.15c-0.528-0.048-1.214-0.174-1.904-0.213-0.355-0.005-0.71-0.013-1.043-0.001-0.331-0.012-0.644 0.072-0.907 0.127-0.526 0.119-0.855 0.237-0.855 0.237s0.366 0.04 0.882 0.043c0.129-0.002 0.267-0.003 0.414-0.005 0.146-0.007 0.305 0.034 0.466 0.038 0.323 0.031 0.667 0.044 1.01 0.06 0.706 0.046 1.415 0.064 1.936-0.006 0.525-0.055 0.875-0.13 0.875-0.13"/></g><g transform="translate(52.483 11.316)"><path fill="#fff5cc" d="m0 0s-0.085-0.01-0.231-0.016c-0.145-0.003-0.364-0.003-0.596-0.049-0.234-0.019-0.502-0.082-0.801-0.149-0.295-0.052-0.609-0.142-0.926-0.209-0.633-0.155-1.279-0.285-1.776-0.353-0.497-0.069-0.837-0.057-0.837-0.057s1.199 0.58 2.499 0.897c0.331 0.059 0.655 0.144 0.976 0.157 0.313 0.036 0.619 0.02 0.881-0.006 0.264-0.002 0.453-0.098 0.593-0.135 0.14-0.047 0.218-0.08 0.218-0.08"/></g><g transform="translate(51.733 25.63)"><path fill="#fff5cc" d="m0 0s-0.271-0.115-0.685-0.23c-0.415-0.114-0.97-0.239-1.533-0.309-0.562-0.076-1.131-0.097-1.56-0.092-0.43 0.004-0.722 0.048-0.722 0.048s0.271 0.116 0.685 0.23c0.414 0.115 0.97 0.24 1.533 0.309 0.562 0.076 1.132 0.096 1.56 0.092 0.43-0.005 0.722-0.048 0.722-0.048"/></g><g transform="translate(6.4004 19.964)"><path fill="#fff5cc" d="m0 0s0.34 0.071 0.848 0.119c0.509 0.046 1.187 0.082 1.864 0.063 0.677-0.022 1.351-0.099 1.858-0.178 0.508-0.078 0.846-0.171 0.846-0.171s-0.338-0.068-0.848-0.11c-0.507-0.041-1.185-0.069-1.863-0.041-0.678 0.014-1.354 0.085-1.861 0.156-0.507 0.074-0.844 0.162-0.844 0.162"/></g><g transform="translate(5.6504,9.6299)"><path fill="#fff5cc" d="m0 0s0.448 0.206 1.137 0.457c0.688 0.25 1.613 0.56 2.552 0.814 0.965 0.186 1.943 0.317 2.674 0.393 0.732 0.076 1.22 0.086 1.22 0.086s-0.469-0.17-1.173-0.363c-0.703-0.194-1.64-0.422-2.59-0.598-0.937-0.26-1.89-0.466-2.61-0.602-0.72-0.135-1.21-0.187-1.21-0.187"/></g><g transform="translate(7.5664 29.047)"><path fill="#fff5cc" d="m0 0s0.08 0 0.215-0.012c0.134-0.008 0.334-0.044 0.556-0.042 0.436-0.027 1.04 0.005 1.646-0.009 0.611-0.008 1.237-0.081 1.692-0.216 0.231-0.044 0.407-0.163 0.534-0.207 0.124-0.058 0.191-0.097 0.191-0.097s-0.082-0.003-0.217 0.003c-0.137 0.005-0.322 0.024-0.551 0.022-0.45 0.014-1.047-0.018-1.658-0.005-0.614 0.01-1.236 0.084-1.701 0.237-0.236 0.048-0.391 0.173-0.519 0.222-0.121 0.062-0.188 0.104-0.188 0.104"/></g><g transform="translate(7.7334 26.464)"><path fill="#fff5cc" d="m0 0s0.296 0.088 0.741 0.161c0.452 0.051 1.024 0.198 1.604 0.252 0.597 0.064 1.195 0.106 1.656 0.038 0.455-0.047 0.749-0.118 0.749-0.118s-0.302-0.089-0.739-0.163c-0.436-0.052-1.018-0.197-1.605-0.252-0.605-0.064-1.215-0.105-1.659-0.037-0.447 0.048-0.747 0.119-0.747 0.119"/></g></g></g></svg>
