<?xml version="1.0" encoding="UTF-8" standalone="no"?>
<!-- Created with Inkscape (http://www.inkscape.org/) -->

<svg
   xmlns:dc="http://purl.org/dc/elements/1.1/"
   xmlns:cc="http://creativecommons.org/ns#"
   xmlns:rdf="http://www.w3.org/1999/02/22-rdf-syntax-ns#"
   xmlns:svg="http://www.w3.org/2000/svg"
   xmlns="http://www.w3.org/2000/svg"
   xmlns:inkscape="http://www.inkscape.org/namespaces/inkscape"
   version="1.1"
   viewBox="0 0 72.625748 45.622501"
   id="svg2"
   xml:space="preserve"><metadata
     id="metadata8"><rdf:RDF><cc:Work
         rdf:about=""><dc:format>image/svg+xml</dc:format><dc:type
           rdf:resource="http://purl.org/dc/dcmitype/StillImage" /></cc:Work></rdf:RDF></metadata><defs
     id="defs6"><clipPath
       id="clipPath16"><path
         d="m 0,36.498 58.101,0 L 58.101,0 0,0 0,36.498 z"
         inkscape:connector-curvature="0"
         id="path18" /></clipPath><clipPath
       id="clipPath24"><path
         d="m 0,36.498 58.1006,0 L 58.1006,0 0,0 0,36.498 z"
         inkscape:connector-curvature="0"
         id="path26" /></clipPath><clipPath
       id="clipPath40"><path
         d="M 54.357,3.35 52.809,3.809 50.783,3.312 48.957,4.211 46.988,4.154 45.031,3.93 43.125,4.228 41.18,3.99 39.246,4.236 37.133,4.4 35.129,3.866 33.049,3.813 31.064,2.958 28.984,3.027 26.879,3.094 24.814,3.538 22.742,3.918 20.673,4.275 18.547,4.097 16.68,3.952 14.79,4.792 12.913,4.252 10.99,4.117 9,4.372 7.18,3.433 5.252,3.205 3.578,3.316 3.463,5.061 3.661,7.09 3.195,9.12 2.89,11.15 l 0.017,2.032 0.062,2.031 0.546,2.03 0.313,2.032 -0.302,2.028 -0.44,2.031 0.158,2.033 0.442,2.033 -0.014,2.035 -0.043,2.037 -0.553,2.296 2.094,-0.978 2.017,0.517 1.866,-0.633 1.966,0.082 1.847,-1.049 1.976,0.564 1.946,-0.399 1.951,0.282 2.063,0.276 1.964,0.743 2.102,-0.218 2.036,0.561 2.079,0.019 2.1,-0.304 2.128,0.26 2.109,-0.175 2.11,-0.285 1.979,-0.729 1.711,0.341 1.724,-0.553 1.734,-0.033 1.988,0.533 1.971,0.602 2.098,-0.379 1.997,0.437 1.809,0.02 -0.146,-1.791 0.155,-2.03 0.587,-2.031 -0.845,-2.029 0.4,-2.033 0.494,-2.03 -0.333,-2.031 0.333,-2.031 -0.207,-2.029 -0.505,-2.031 0.738,-2.032 -0.753,-2.033 0.555,-2.035 -0.74,-2 0.183,-1.754 z"
         inkscape:connector-curvature="0"
         id="path42" /></clipPath><linearGradient
       x1="0"
       y1="0"
       x2="1"
       y2="0"
       id="linearGradient48"
       gradientUnits="userSpaceOnUse"
       gradientTransform="matrix(52.222656,0,0,-52.222656,2.8896484,18.362793)"
       spreadMethod="pad"><stop
         id="stop50"
         style="stop-color:#edcc77;stop-opacity:1"
         offset="0" /><stop
         id="stop52"
         style="stop-color:#f3ae48;stop-opacity:1"
         offset="0.22751901" /><stop
         id="stop54"
         style="stop-color:#f3ae48;stop-opacity:1"
         offset="0.22751901" /><stop
         id="stop56"
         style="stop-color:#eecb74;stop-opacity:1"
         offset="0.434809" /><stop
         id="stop58"
         style="stop-color:#f0c96f;stop-opacity:1"
         offset="0.63683802" /><stop
         id="stop60"
         style="stop-color:#f5b75d;stop-opacity:1"
         offset="0.71297002" /><stop
         id="stop62"
         style="stop-color:#edcc77;stop-opacity:1"
         offset="0.85431302" /><stop
         id="stop64"
         style="stop-color:#edcc77;stop-opacity:1"
         offset="1" /></linearGradient><clipPath
       id="clipPath72"><path
         d="m 0,36.498 58.101,0 L 58.101,0 0,0 0,36.498 z"
         inkscape:connector-curvature="0"
         id="path74" /></clipPath><clipPath
       id="clipPath84"><path
         d="m 17.1045,30.7437 24.8975,0 0,-25.26128 -24.8975,0 0,25.26128 z"
         inkscape:connector-curvature="0"
         id="path86" /></clipPath><clipPath
       id="clipPath100"><path
         d="m 5.59766,29.7168 7.73144,0 0,-23.71875 -7.73144,0 0,23.71875 z"
         inkscape:connector-curvature="0"
         id="path102" /></clipPath><clipPath
       id="clipPath116"><path
         d="m 44.4189,30.7441 8.0645,0 0,-24.44234 -8.0645,0 0,24.44234 z"
         inkscape:connector-curvature="0"
         id="path118" /></clipPath></defs><g
     transform="matrix(1.25,0,0,-1.25,0,45.6225)"
     id="g10"><g
       id="g12"><g
         clip-path="url(#clipPath16)"
         id="g14"><g
           id="g20"><g
             id="g22" /><g
             id="g28"><g
               clip-path="url(#clipPath24)"
               id="g30"
               style="opacity:0.19999701"><g
                 transform="translate(57.4004,0.2031)"
                 id="g32"><path
                   d="m 0,0 -12.981,0.896 -5.419,0 c 0,0 -5.434,-1.099 -10.6,-1.099 -5.167,0 -10.75,1.099 -10.75,1.099 l -4.416,0 L -56.5,-0.1 -57.4,36.199 -44.072,35 l 3.405,0 c 0,0 5.149,1.1 12.208,1.1 7.059,0 12.336,-1.1 12.336,-1.1 l 4.707,0 L 0.7,36.295 0,0 z"
                   inkscape:connector-curvature="0"
                   id="path34"
                   style="fill:#183049;fill-opacity:1;fill-rule:nonzero;stroke:none" /></g></g></g></g></g></g><g
       id="g36"><g
         clip-path="url(#clipPath40)"
         id="g38"><g
           id="g44"><g
             id="g46"><path
               d="M 54.357,3.35 52.809,3.809 50.783,3.312 48.957,4.211 46.988,4.154 45.031,3.93 43.125,4.228 41.18,3.99 39.246,4.236 37.133,4.4 35.129,3.866 33.049,3.813 31.064,2.958 28.984,3.027 26.879,3.094 24.814,3.538 22.742,3.918 20.673,4.275 18.547,4.097 16.68,3.952 14.79,4.792 12.913,4.252 10.99,4.117 9,4.372 7.18,3.433 5.252,3.205 3.578,3.316 3.463,5.061 3.661,7.09 3.195,9.12 2.89,11.15 l 0.017,2.032 0.062,2.031 0.546,2.03 0.313,2.032 -0.302,2.028 -0.44,2.031 0.158,2.033 0.442,2.033 -0.014,2.035 -0.043,2.037 -0.553,2.296 2.094,-0.978 2.017,0.517 1.866,-0.633 1.966,0.082 1.847,-1.049 1.976,0.564 1.946,-0.399 1.951,0.282 2.063,0.276 1.964,0.743 2.102,-0.218 2.036,0.561 2.079,0.019 2.1,-0.304 2.128,0.26 2.109,-0.175 2.11,-0.285 1.979,-0.729 1.711,0.341 1.724,-0.553 1.734,-0.033 1.988,0.533 1.971,0.602 2.098,-0.379 1.997,0.437 1.809,0.02 -0.146,-1.791 0.155,-2.03 0.587,-2.031 -0.845,-2.029 0.4,-2.033 0.494,-2.03 -0.333,-2.031 0.333,-2.031 -0.207,-2.029 -0.505,-2.031 0.738,-2.032 -0.753,-2.033 0.555,-2.035 -0.74,-2 0.183,-1.754 z"
               inkscape:connector-curvature="0"
               id="path66"
               style="fill:url(#linearGradient48);stroke:none" /></g></g></g></g><g
       id="g68"><g
         clip-path="url(#clipPath72)"
         id="g70"><g
           transform="translate(54.3574,3.3496)"
           id="g76"><path
             d="M 0,0 -1.549,0.459 -3.574,-0.038 -5.4,0.861 -7.369,0.805 -9.326,0.58 l -1.906,0.298 -1.946,-0.237 -1.933,0.246 -2.114,0.164 -2.004,-0.534 -2.08,-0.054 -1.984,-0.855 -2.08,0.07 -2.106,0.066 -2.064,0.444 -2.072,0.38 -2.07,0.358 -2.126,-0.179 -1.867,-0.144 -1.889,0.839 -1.877,-0.54 -1.923,-0.134 -1.99,0.254 -1.821,-0.939 -1.927,-0.228 -1.674,0.112 -0.116,1.744 0.199,2.029 -0.466,2.031 -0.306,2.03 0.018,2.031 0.061,2.031 0.546,2.031 0.314,2.032 -0.302,2.027 -0.44,2.031 0.158,2.034 0.441,2.033 -0.014,2.034 -0.043,2.037 -0.552,2.296 2.093,-0.978 2.018,0.517 1.865,-0.633 1.966,0.082 1.848,-1.049 1.975,0.565 1.947,-0.4 1.951,0.283 2.062,0.275 1.964,0.743 2.103,-0.218 2.036,0.561 2.079,0.02 2.1,-0.304 2.128,0.26 2.109,-0.175 2.109,-0.285 1.98,-0.73 1.711,0.341 1.723,-0.553 1.735,-0.033 1.988,0.533 1.971,0.603 2.097,-0.379 1.997,0.436 1.81,0.02 L -0.062,28.129 0.093,26.1 0.68,24.068 -0.165,22.039 0.234,20.007 0.729,17.977 0.396,15.945 0.729,13.914 0.521,11.886 0.017,9.854 0.755,7.822 0.002,5.789 0.557,3.755 -0.184,1.755 0,0 z"
             inkscape:connector-curvature="0"
             id="path78"
             style="fill:none;stroke:#d1a134;stroke-width:3;stroke-linecap:butt;stroke-linejoin:miter;stroke-miterlimit:10;stroke-opacity:1;stroke-dasharray:none" /></g><g
           id="g80"><g
             id="g82" /><g
             id="g88"><g
               clip-path="url(#clipPath84)"
               id="g90"
               style="opacity:0.60000598"><g
                 transform="translate(40.293,29.2822)"
                 id="g92"><path
                   d="m 0,0 c -1.184,-0.391 -2.727,-0.594 -3.767,-1.104 1.869,-0.133 3.694,0.134 5.476,-0.627 -1.6,-0.022 -3.234,-0.206 -4.538,-1.157 0.725,0.067 1.606,-0.05 2.257,-0.213 -0.625,-0.038 -1.334,-0.148 -1.695,-0.634 0.58,0.006 1.291,-0.043 1.757,-0.269 -0.734,-0.336 -2.44,-0.631 -2.5,-1.606 1.244,-0.162 3.047,-0.473 3.858,-1.491 -1.885,-1.019 -3.996,-1.559 -5.615,-3.005 0.783,-0.092 1.894,0.328 2.519,-0.023 -0.377,-0.309 -0.986,-0.401 -1.491,-0.507 1.159,0.053 2.251,-0.61 3.307,-0.999 -1.49,-0.322 -3.121,-0.425 -4.343,-1.477 1.462,-0.109 3.435,0.849 4.709,-0.251 -1.577,0.031 -3.043,-0.474 -4.323,-1.241 0.794,-0.02 2.746,-0.035 2.866,-1.034 -0.625,-0.283 -1.336,-0.401 -2.016,-0.525 0.55,-0.297 1.137,-0.624 1.736,-0.846 -0.118,-0.07 -0.197,-0.099 -0.327,-0.147 0.439,-0.507 1.447,-0.597 1.983,-1.07 -1.066,-0.391 -2.107,-0.554 -3.205,-1.04 0.713,-0.247 1.596,-0.297 2.321,-0.643 -0.426,-1.061 -2.307,-1.081 -3.1,-1.689 0.188,-0.126 0.248,-0.292 0.383,-0.416 -3.201,-2.733 -14.381,-2.073 -17.791,0.255 0.765,0.606 1.898,0.953 2.609,1.636 -2.797,0.468 -2.957,1.25 -0.48,2.345 -0.594,0.041 -2.565,-0.229 -1.738,0.773 -0.235,0.01 -0.67,0.301 -0.891,0.367 1.022,1.043 3.026,1.852 3.754,2.981 -1.606,0.904 -4.042,0.642 -1.859,2.625 -0.823,-0.044 -1.659,0.043 -2.141,0.771 0.945,0.782 2.172,1.118 3.233,1.702 0.247,0.136 0.728,0.511 0.468,0.849 -0.187,0.242 -0.857,-0.113 -1.166,-0.17 -0.877,-0.162 -1.823,-0.125 -2.64,-0.527 0.63,0.466 1.372,0.713 2.089,1.008 0.334,0.137 0.617,0.333 0.953,0.466 0.198,0.079 0.803,0.412 0.996,0.375 -0.557,0.104 -1.326,-0.308 -1.842,-0.042 -0.206,0.107 -0.343,0.347 -0.322,0.576 0.008,0.081 0.256,0.548 0.327,0.532 -0.224,0.052 -2.175,0.017 -2.082,0.245 0.099,0.24 1.187,0.5 1.421,0.574 0.434,0.139 0.943,0.227 1.338,0.416 -0.679,0.297 -1.681,0.031 -2.413,0.092 1.004,0.228 2.032,0.652 3.029,0.96 -0.815,0.321 -1.977,0.185 -2.87,0.247 0.174,0.414 1.028,0.703 1.379,0.992 -0.436,0.332 -3.304,-0.01 -2.724,0.709 C -20.893,1.493 -7.469,2.573 0,0"
                   inkscape:connector-curvature="0"
                   id="path94"
                   style="fill:#fce895;fill-opacity:1;fill-rule:nonzero;stroke:none" /></g></g></g></g><g
           id="g96"><g
             id="g98" /><g
             id="g104"><g
               clip-path="url(#clipPath100)"
               id="g106"
               style="opacity:0.60000598"><g
                 transform="translate(12.8164,28.6494)"
                 id="g108"><path
                   d="m 0,0 c -1.499,1.456 -4.305,1.009 -6.16,0.981 0.705,-0.393 1.865,-0.241 2.399,-1 -0.511,-0.795 -2.171,-0.444 -2.649,-1.464 0.423,-0.198 0.892,-0.021 1.324,-0.203 -0.541,-0.534 -1.074,-0.52 -1.509,-1.235 0.437,-0.293 0.909,-0.557 1.366,-0.824 -0.232,-0.191 -0.558,-0.359 -0.765,-0.571 0.836,-0.146 3.025,0.004 3.588,-0.684 -0.198,-0.2 -0.431,-0.463 -0.506,-0.731 0.516,-0.192 1.55,-0.162 1.652,-0.838 -1.825,-0.762 -3.709,-1.316 -5.652,-1.662 0.851,-0.136 2.365,0.179 2.488,-0.848 -0.578,-0.519 -1.492,-0.927 -1.904,-1.572 0.807,-0.079 3.26,0.635 3.406,-0.495 -1.474,-0.878 -3.203,-1.547 -4.219,-3.009 0.935,0.053 1.815,0.755 2.802,0.411 -0.171,-0.816 -1.64,-0.932 -1.648,-1.91 0.096,-0.008 3.184,0.406 3.279,0.404 -0.355,-0.213 -3.789,-0.762 -3.868,-1.171 2.642,-0.903 3.254,-2.656 -0.643,-4.093 1.655,0.747 3.363,0.726 5.041,1.172 -1.082,-1.257 -2.299,-2.36 -3.652,-3.309 1.175,0.04 2.137,0.427 2.922,0.559 4.304,0.725 3.325,2.443 3.325,4.822 L -0.152,-10.282 0,0 z"
                   inkscape:connector-curvature="0"
                   id="path110"
                   style="fill:#fce895;fill-opacity:1;fill-rule:nonzero;stroke:none" /></g></g></g></g><g
           id="g112"><g
             id="g114" /><g
             id="g120"><g
               clip-path="url(#clipPath116)"
               id="g122"
               style="opacity:0.60000598"><g
                 transform="translate(45.9834,30.0664)"
                 id="g124"><path
                   d="M 0,0 C 1.331,0.112 5.75,0.678 5.75,0.678 L 4.333,-0.35 6.5,-1.724 c 0,0 -5.5,-0.025 -6,-0.567 -0.5,-0.542 3.25,-0.958 3.542,-1 C 4.333,-3.333 2.917,-3.55 2.542,-3.608 2.167,-3.667 1.25,-4.437 1.25,-4.437 c 0,0 -1.251,-1.027 1.583,-1.003 2.834,0.023 3.334,-0.477 3.334,-0.477 L 1.25,-7.916 4.854,-7.236 3.25,-7.993 4.333,-8.75 -0.583,-10.166 6.5,-10.27 1.417,-11.083 c 0,0 0.791,-1.668 3.937,-1.584 3.146,0.084 -1.312,-0.916 -1.312,-0.916 0,0 1.541,-2.167 1.708,-2.167 0.167,0 -1.417,-0.5 -1.417,-0.5 l 1.834,-0.583 -4.75,-1.854 4.333,-0.436 c 0,0 -3.917,-0.995 -4.333,-1.478 -0.417,-0.482 4.083,-1.49 4.333,-1.528 0.188,-0.029 -0.884,-0.071 -1.419,-0.09 -0.172,-0.006 -0.289,-0.01 -0.289,-0.01 l 1.708,-1.187 c 0,0 -4.833,-0.084 -6.333,-0.334 -1.5,-0.25 -0.834,2.709 -0.834,2.709 0,0 0.833,4.707 0.75,5.874 -0.083,1.167 -0.5,2.835 -0.25,7.251 C -0.667,-3.5 -0.669,-0.057 0,0"
                   inkscape:connector-curvature="0"
                   id="path126"
                   style="fill:#fce895;fill-opacity:1;fill-rule:nonzero;stroke:none" /></g></g></g></g><g
           transform="translate(15.8174,33.4053)"
           id="g128"><path
             d="M 0,0 C 0,0 1.304,-9.393 1.683,-15.984 2.166,-24.38 1.333,-30.447 1.333,-30.447 L 0,0 z"
             inkscape:connector-curvature="0"
             id="path130"
             style="fill:#a5781e;fill-opacity:1;fill-rule:nonzero;stroke:none" /></g><g
           transform="translate(42.1504,31.2334)"
           id="g132"><path
             d="m 0,0 c 0,0 -1.748,-10.501 -1.748,-13.834 0,-3.333 0.374,-10.995 0.874,-12.166 C -0.374,-27.171 0,0 0,0"
             inkscape:connector-curvature="0"
             id="path134"
             style="fill:#a5781e;fill-opacity:1;fill-rule:nonzero;stroke:none" /></g><g
           transform="translate(14.6182,33.4014)"
           id="g136"><path
             d="M 0,0 1.199,-30.965"
             inkscape:connector-curvature="0"
             id="path138"
             style="fill:none;stroke:#473310;stroke-width:3;stroke-linecap:round;stroke-linejoin:miter;stroke-miterlimit:10;stroke-opacity:1;stroke-dasharray:none" /></g><g
           transform="translate(43.3516,33.4053)"
           id="g140"><path
             d="M 0,0 -1.201,-30.969"
             inkscape:connector-curvature="0"
             id="path142"
             style="fill:none;stroke:#473310;stroke-width:3;stroke-linecap:round;stroke-linejoin:miter;stroke-miterlimit:10;stroke-opacity:1;stroke-dasharray:none" /></g><g
           transform="translate(2.8896,23.1504)"
           id="g144"><path
             d="M 0,0 7.386,-1 0,-2 0,0 z"
             inkscape:connector-curvature="0"
             id="path146"
             style="fill:#d1a134;fill-opacity:1;fill-rule:nonzero;stroke:none" /></g><g
           transform="translate(19.001,7.6816)"
           id="g148"><path
             d="M 0,0 C 0,0 0.311,0.057 0.854,0.133 1.399,0.198 2.177,0.321 3.112,0.417 4.98,0.621 7.476,0.81 9.975,0.918 12.482,0.936 14.993,0.874 16.872,0.762 17.812,0.714 18.594,0.629 19.141,0.591 19.688,0.542 20,0.5 20,0.5 20,0.5 19.687,0.453 19.14,0.396 18.593,0.349 17.812,0.251 16.876,0.187 15.003,0.045 12.511,-0.058 10.017,-0.08 7.518,-0.182 5.015,-0.202 3.136,-0.154 2.196,-0.138 1.411,-0.081 0.863,-0.061 0.314,-0.03 0,0 0,0"
             inkscape:connector-curvature="0"
             id="path150"
             style="fill:#d1a134;fill-opacity:1;fill-rule:nonzero;stroke:none" /></g><g
           transform="translate(22.1523,10.3105)"
           id="g152"><path
             d="M 0,0 C 0,0 0.284,0.05 0.782,0.114 1.281,0.168 1.992,0.273 2.846,0.349 4.555,0.512 6.836,0.652 9.118,0.71 10.264,0.7 11.409,0.694 12.482,0.653 13.02,0.634 13.537,0.628 14.029,0.57 14.521,0.526 14.984,0.472 15.412,0.42 16.268,0.324 16.977,0.2 17.473,0.134 17.969,0.058 18.25,0 18.25,0 c 0,0 -0.289,-0.031 -0.79,-0.061 -0.501,-0.019 -1.218,-0.077 -2.071,-0.093 -0.428,-0.012 -0.89,-0.023 -1.377,-0.022 -0.489,0.008 -1.005,-0.047 -1.537,-0.052 C 11.408,-0.271 10.271,-0.278 9.135,-0.29 6.854,-0.34 4.572,-0.313 2.857,-0.223 2.001,-0.186 1.286,-0.111 0.786,-0.079 0.286,-0.038 0,0 0,0"
             inkscape:connector-curvature="0"
             id="path154"
             style="fill:#d1a134;fill-opacity:1;fill-rule:nonzero;stroke:none" /></g><g
           transform="translate(17.1504,27.7754)"
           id="g156"><path
             d="m 0,0 c 0,0 0.111,0.102 0.314,0.265 0.213,0.154 0.474,0.413 0.911,0.58 0.209,0.097 0.441,0.203 0.694,0.3 0.249,0.077 0.512,0.149 0.788,0.211 0.277,0.068 0.563,0.141 0.856,0.16 0.294,0.031 0.592,0.062 0.89,0.093 C 5.05,1.603 5.648,1.635 6.201,1.558 6.756,1.512 7.269,1.425 7.702,1.318 8.572,1.128 9.125,0.875 9.125,0.875 c 0,0 -0.151,-0.024 -0.41,-0.051 C 8.455,0.798 8.09,0.777 7.653,0.747 7.221,0.727 6.717,0.703 6.176,0.678 5.643,0.656 5.072,0.634 4.504,0.611 3.943,0.561 3.369,0.563 2.852,0.49 2.592,0.455 2.332,0.446 2.092,0.422 1.866,0.375 1.646,0.344 1.437,0.314 1.23,0.28 1.028,0.272 0.856,0.208 0.682,0.161 0.529,0.121 0.403,0.088 0.148,0.026 0,0 0,0"
             inkscape:connector-curvature="0"
             id="path158"
             style="fill:#d1a134;fill-opacity:1;fill-rule:nonzero;stroke:none" /></g><g
           transform="translate(17.4004,26.7754)"
           id="g160"><path
             d="M 0,0 C 0,0 0.086,0.083 0.244,0.215 0.323,0.279 0.419,0.36 0.533,0.441 0.637,0.536 0.799,0.591 0.967,0.663 1.137,0.734 1.328,0.815 1.535,0.879 1.732,0.923 1.941,0.974 2.162,1.007 2.605,1.109 3.068,1.083 3.539,1.106 4,1.067 4.467,1.053 4.891,0.961 5.317,0.89 5.709,0.792 6.039,0.683 6.701,0.482 7.125,0.25 7.125,0.25 7.125,0.25 6.652,0.149 5.969,0.113 5.625,0.094 5.23,0.083 4.812,0.084 4.393,0.09 3.953,0.089 3.512,0.107 3.295,0.111 3.076,0.116 2.861,0.12 2.646,0.127 2.436,0.145 2.234,0.132 2.033,0.124 1.835,0.137 1.646,0.144 1.473,0.128 1.307,0.123 1.145,0.12 0.986,0.106 0.829,0.136 0.689,0.095 0.551,0.065 0.427,0.05 0.324,0.034 0.12,0.007 0,0 0,0"
             inkscape:connector-curvature="0"
             id="path162"
             style="fill:#d1a134;fill-opacity:1;fill-rule:nonzero;stroke:none" /></g><g
           transform="translate(54.2295,26.6523)"
           id="g164"><path
             d="M 0,0 -6.829,1.123 0.091,0.996 0,0 z"
             inkscape:connector-curvature="0"
             id="path166"
             style="fill:#d1a134;fill-opacity:1;fill-rule:nonzero;stroke:none" /></g><g
           transform="translate(54.7813,20.918)"
           id="g168"><path
             d="m 0,0 c 0,0 -0.541,-0.104 -1.354,-0.261 -0.802,-0.179 -1.953,-0.245 -3.05,-0.383 -2.198,-0.187 -4.394,-0.374 -4.394,-0.374 0,0 2.161,0.435 4.321,0.869 1.065,0.261 2.114,0.429 2.901,0.702 0.787,0.247 1.312,0.412 1.312,0.412 L 0,0 z"
             inkscape:connector-curvature="0"
             id="path170"
             style="fill:#d1a134;fill-opacity:1;fill-rule:nonzero;stroke:none" /></g><g
           transform="translate(54.125,8.7764)"
           id="g172"><path
             d="M 0,0 C 0,0 -0.352,0.051 -0.877,0.127 -1.398,0.189 -2.112,0.345 -2.812,0.472 -3.502,0.59 -4.197,0.739 -4.721,0.777 -5.248,0.836 -5.6,0.874 -5.6,0.874 c 0,0 0.354,0.024 0.883,0.06 0.535,0.055 1.242,0.029 1.957,0.035 0.705,-0.001 1.391,-0.03 1.926,0.001 0.531,0.017 0.885,0.028 0.885,0.028 L 0,0 z"
             inkscape:connector-curvature="0"
             id="path174"
             style="fill:#d1a134;fill-opacity:1;fill-rule:nonzero;stroke:none" /></g><g
           transform="translate(2.8437,7.1162)"
           id="g176"><path
             d="m 0,0 c 0,0 1.74,0.544 3.482,1.088 1.788,0.41 3.575,0.821 3.575,0.821 0,0 -1.698,-0.643 -3.394,-1.287 -1.649,-0.776 -3.3,-1.554 -3.3,-1.554 L 0,0 z"
             inkscape:connector-curvature="0"
             id="path178"
             style="fill:#d1a134;fill-opacity:1;fill-rule:nonzero;stroke:none" /></g><g
           transform="translate(19.3965,24.1738)"
           id="g180"><path
             d="M 0,0 C 0,0 0.281,0.064 0.773,0.177 1.268,0.28 1.967,0.472 2.816,0.623 3.24,0.702 3.7,0.789 4.187,0.88 4.67,0.981 5.197,1.017 5.738,1.064 6.822,1.153 7.979,1.248 9.136,1.344 10.293,1.321 11.45,1.3 12.535,1.279 13.076,1.266 13.602,1.266 14.095,1.191 14.588,1.132 15.055,1.075 15.486,1.023 16.348,0.926 17.059,0.782 17.557,0.71 18.055,0.63 18.34,0.585 18.34,0.585 L 18.334,0.534 c 0,0 -1.147,0.078 -2.867,0.194 -0.43,0.029 -0.895,0.06 -1.388,0.093 C 13.587,0.87 13.064,0.835 12.527,0.846 11.449,0.845 10.301,0.845 9.152,0.845 8.006,0.772 6.859,0.7 5.784,0.632 5.248,0.588 4.725,0.587 4.236,0.512 3.746,0.446 3.283,0.386 2.856,0.329 1.146,0.103 0.007,-0.049 0.007,-0.049 L 0,0 z"
             inkscape:connector-curvature="0"
             id="path182"
             style="fill:#fff5cc;fill-opacity:1;fill-rule:nonzero;stroke:none" /></g><g
           transform="translate(19.3115,21.3408)"
           id="g184"><path
             d="M 0,0 C 0,0 0.292,0.086 0.803,0.235 1.315,0.376 2.039,0.619 2.923,0.834 3.364,0.946 3.842,1.066 4.347,1.194 4.848,1.34 5.407,1.38 5.976,1.455 7.118,1.588 8.338,1.73 9.558,1.872 10.78,1.856 12.003,1.841 13.149,1.826 13.721,1.809 14.276,1.831 14.795,1.732 15.315,1.658 15.806,1.588 16.26,1.523 17.167,1.4 17.913,1.235 18.437,1.149 18.96,1.055 19.259,1 19.259,1 L 19.251,0.951 c 0,0 -1.206,0.111 -3.016,0.278 C 15.783,1.27 15.294,1.315 14.775,1.363 14.259,1.437 13.707,1.379 13.14,1.393 12.005,1.387 10.794,1.38 9.583,1.373 8.378,1.255 7.174,1.137 6.044,1.025 5.481,0.955 4.929,0.95 4.421,0.83 3.91,0.729 3.427,0.633 2.981,0.543 1.198,0.187 0.01,-0.049 0.01,-0.049 L 0,0 z"
             inkscape:connector-curvature="0"
             id="path186"
             style="fill:#fff5cc;fill-opacity:1;fill-rule:nonzero;stroke:none" /></g><g
           transform="translate(38.7334,20.542)"
           id="g188"><path
             d="M 0,0 C 0,0 -0.494,-0.139 -1.235,-0.242 -1.606,-0.278 -2.04,-0.359 -2.503,-0.375 -2.968,-0.394 -3.462,-0.414 -3.957,-0.434 -4.448,-0.435 -4.94,-0.435 -5.4,-0.436 c -0.461,-0.001 -0.895,0.06 -1.267,0.081 -0.371,0.023 -0.684,0.093 -0.902,0.119 -0.219,0.037 -0.346,0.068 -0.346,0.068 l -0.004,0.051 c 0,0 1.98,0.091 3.959,0.182 C -1.98,0.058 0,0.049 0,0.049 L 0,0 z"
             inkscape:connector-curvature="0"
             id="path190"
             style="fill:#fff5cc;fill-opacity:1;fill-rule:nonzero;stroke:none" /></g><g
           transform="translate(19.3145,15.5088)"
           id="g192"><path
             d="M 0,0 C 0,0 0.556,0.182 1.397,0.354 1.82,0.423 2.309,0.544 2.84,0.602 3.369,0.662 3.935,0.728 4.5,0.793 5.075,0.779 5.65,0.767 6.189,0.754 6.729,0.743 7.232,0.67 7.662,0.64 8.092,0.605 8.447,0.525 8.696,0.494 8.945,0.451 9.086,0.416 9.086,0.416 L 9.085,0.365 c 0,0 -2.273,-0.035 -4.544,-0.07 C 2.271,0.122 0.004,-0.051 0.004,-0.051 L 0,0 z"
             inkscape:connector-curvature="0"
             id="path194"
             style="fill:#fff5cc;fill-opacity:1;fill-rule:nonzero;stroke:none" /></g><g
           transform="translate(20.9629,9.2998)"
           id="g196"><path
             d="m 0,0 c 0,0 0.246,0.024 0.678,0.066 0.431,0.034 1.049,0.123 1.788,0.155 0.739,0.028 1.602,0.101 2.526,0.108 0.925,0.011 1.91,0.023 2.897,0.033 0.985,-0.027 1.97,-0.054 2.894,-0.08 0.924,-0.023 1.786,-0.108 2.526,-0.149 0.738,-0.044 1.353,-0.143 1.785,-0.182 0.43,-0.049 0.677,-0.076 0.677,-0.076 l 0,-0.051 c 0,0 -3.943,0.02 -7.886,0.039 C 3.941,-0.094 0,-0.049 0,-0.049 L 0,0 z"
             inkscape:connector-curvature="0"
             id="path198"
             style="fill:#fff5cc;fill-opacity:1;fill-rule:nonzero;stroke:none" /></g><g
           transform="translate(52.8164,18.5469)"
           id="g200"><path
             d="m 0,0 c 0,0 -0.35,-0.084 -0.874,-0.15 -0.528,-0.048 -1.214,-0.174 -1.904,-0.213 -0.355,-0.005 -0.71,-0.013 -1.043,-0.001 -0.331,-0.012 -0.644,0.072 -0.907,0.127 C -5.254,-0.118 -5.583,0 -5.583,0 c 0,0 0.366,0.04 0.882,0.043 0.129,-0.002 0.267,-0.003 0.414,-0.005 0.146,-0.007 0.305,0.034 0.466,0.038 0.323,0.031 0.667,0.044 1.01,0.06 C -2.105,0.182 -1.396,0.2 -0.875,0.13 -0.35,0.075 0,0 0,0"
             inkscape:connector-curvature="0"
             id="path202"
             style="fill:#fff5cc;fill-opacity:1;fill-rule:nonzero;stroke:none" /></g><g
           transform="translate(52.4834,11.3164)"
           id="g204"><path
             d="m 0,0 c 0,0 -0.085,-0.01 -0.231,-0.016 -0.145,-0.003 -0.364,-0.003 -0.596,-0.049 -0.234,-0.019 -0.502,-0.082 -0.801,-0.149 -0.295,-0.052 -0.609,-0.142 -0.926,-0.209 -0.633,-0.155 -1.279,-0.285 -1.776,-0.353 -0.497,-0.069 -0.837,-0.057 -0.837,-0.057 0,0 1.199,0.58 2.499,0.897 0.331,0.059 0.655,0.144 0.976,0.157 0.313,0.036 0.619,0.02 0.881,-0.006 C -0.547,0.213 -0.358,0.117 -0.218,0.08 -0.078,0.033 0,0 0,0"
             inkscape:connector-curvature="0"
             id="path206"
             style="fill:#fff5cc;fill-opacity:1;fill-rule:nonzero;stroke:none" /></g><g
           transform="translate(51.7334,25.6299)"
           id="g208"><path
             d="m 0,0 c 0,0 -0.271,-0.115 -0.685,-0.23 -0.415,-0.114 -0.97,-0.239 -1.533,-0.309 -0.562,-0.076 -1.131,-0.097 -1.56,-0.092 -0.43,0.004 -0.722,0.048 -0.722,0.048 0,0 0.271,0.116 0.685,0.23 0.414,0.115 0.97,0.24 1.533,0.309 0.562,0.076 1.132,0.096 1.56,0.092 C -0.292,0.043 0,0 0,0"
             inkscape:connector-curvature="0"
             id="path210"
             style="fill:#fff5cc;fill-opacity:1;fill-rule:nonzero;stroke:none" /></g><g
           transform="translate(6.4004,19.9639)"
           id="g212"><path
             d="M 0,0 C 0,0 0.34,0.071 0.848,0.119 1.357,0.165 2.035,0.201 2.712,0.182 3.389,0.16 4.063,0.083 4.57,0.004 c 0.508,-0.078 0.846,-0.171 0.846,-0.171 0,0 -0.338,-0.068 -0.848,-0.11 C 4.061,-0.318 3.383,-0.346 2.705,-0.318 2.027,-0.304 1.351,-0.233 0.844,-0.162 0.337,-0.088 0,0 0,0"
             inkscape:connector-curvature="0"
             id="path214"
             style="fill:#fff5cc;fill-opacity:1;fill-rule:nonzero;stroke:none" /></g><g
           transform="translate(5.6504,9.6299)"
           id="g216"><path
             d="M 0,0 C 0,0 0.448,0.206 1.137,0.457 1.825,0.707 2.75,1.017 3.689,1.271 4.654,1.457 5.632,1.588 6.363,1.664 7.095,1.74 7.583,1.75 7.583,1.75 7.583,1.75 7.114,1.58 6.41,1.387 5.707,1.193 4.77,0.965 3.82,0.789 2.883,0.529 1.93,0.323 1.21,0.187 0.49,0.052 0,0 0,0"
             inkscape:connector-curvature="0"
             id="path218"
             style="fill:#fff5cc;fill-opacity:1;fill-rule:nonzero;stroke:none" /></g><g
           transform="translate(7.5664,29.0469)"
           id="g220"><path
             d="m 0,0 c 0,0 0.08,0 0.215,-0.012 0.134,-0.008 0.334,-0.044 0.556,-0.042 0.436,-0.027 1.04,0.005 1.646,-0.009 0.611,-0.008 1.237,-0.081 1.692,-0.216 0.231,-0.044 0.407,-0.163 0.534,-0.207 0.124,-0.058 0.191,-0.097 0.191,-0.097 0,0 -0.082,-0.003 -0.217,0.003 C 4.48,-0.575 4.295,-0.556 4.066,-0.558 3.616,-0.544 3.019,-0.576 2.408,-0.563 1.794,-0.553 1.172,-0.479 0.707,-0.326 0.471,-0.278 0.316,-0.153 0.188,-0.104 0.067,-0.042 0,0 0,0"
             inkscape:connector-curvature="0"
             id="path222"
             style="fill:#fff5cc;fill-opacity:1;fill-rule:nonzero;stroke:none" /></g><g
           transform="translate(7.7334,26.4639)"
           id="g224"><path
             d="M 0,0 C 0,0 0.296,0.088 0.741,0.161 1.193,0.212 1.765,0.359 2.345,0.413 2.942,0.477 3.54,0.519 4.001,0.451 4.456,0.404 4.75,0.333 4.75,0.333 4.75,0.333 4.448,0.244 4.011,0.17 3.575,0.118 2.993,-0.027 2.406,-0.082 1.801,-0.146 1.191,-0.187 0.747,-0.119 0.3,-0.071 0,0 0,0"
             inkscape:connector-curvature="0"
             id="path226"
             style="fill:#fff5cc;fill-opacity:1;fill-rule:nonzero;stroke:none" /></g></g></g></g></svg>