<?xml version="1.0" encoding="utf-8"?>
<!-- Generator: Adobe Illustrator 16.0.0, SVG Export Plug-In . SVG Version: 6.00 Build 0)  -->
<!DOCTYPE svg PUBLIC "-//W3C//DTD SVG 1.1//EN" "http://www.w3.org/Graphics/SVG/1.1/DTD/svg11.dtd">
<svg version="1.1" id="Layer_1" xmlns="http://www.w3.org/2000/svg" xmlns:xlink="http://www.w3.org/1999/xlink" x="0px" y="0px"
	 width="183.522px" height="223.668px" viewBox="0 0 183.522 223.668" enable-background="new 0 0 183.522 223.668"
	 xml:space="preserve">
<g>
	<g>
		<path opacity="0.2" fill="#183049" d="M37.37,46.601c1.628,2.166,3.815,3.796,6.273,4.727v128.868
			c-0.167,0.052-0.297,0.1-0.429,0.153c-2.87,1.179-5.301,3.313-6.846,6.009c-3.247,5.662-2.079,12.954,2.777,17.338
			c1.11,1.003,2.364,1.816,3.726,2.419c0.072,0.031,0.426,0.155,0.917,0.312c0.145,1.236,0.432,2.51,0.996,3.816
			c2.185,5.062,7.371,8.462,12.907,8.462c0.889,0,1.78-0.087,2.65-0.258c1.842-0.363,3.613-1.114,5.175-2.18
			c1.462,0.498,2.859,0.72,3.935,0.85c2.554,0.309,5.117,0.25,7.495-0.175c0.784-0.142,1.536-0.33,2.247-0.562
			c2.126,2.242,5.366,3.645,9.404,3.989c1.022,0.087,1.961,0.13,2.871,0.13c2.331,0,4.417-0.298,6.242-0.89
			c2.083,2.186,5.618,3.951,11.597,4.054c0.188,0.004,0.379,0.006,0.572,0.006c6.016,0,9.596-1.725,11.725-3.839
			c2.553,0.693,5.551,0.862,8.958,0.508c2.001-0.206,4.19-0.61,6.649-2.156c0.844-0.53,1.59-1.153,2.232-1.859
			c1.405,0.453,2.797,0.67,3.945,0.802c3.518,0.407,6.74,0.182,9.5-0.661l1.422-0.435c2.373,1.698,5.271,2.654,8.252,2.654
			c2.515,0,4.973-0.676,7.107-1.953c2.625-1.57,4.695-3.996,5.83-6.828c0.618-1.545,0.854-3.057,0.943-4.443
			c0.143-0.071,0.283-0.148,0.423-0.233c1.415-0.871,2.653-1.976,3.679-3.283c2.008-2.562,3.062-5.771,2.971-9.037
			c-0.092-3.248-1.319-6.38-3.456-8.818c-1.011-1.154-2.196-2.129-3.525-2.896c-0.013-0.007-0.024-0.014-0.036-0.021V50.34
			c0.126-0.063,0.246-0.13,0.366-0.204c2.729-1.677,4.814-4.265,5.872-7.287c2.223-6.349-0.387-13.393-6.199-16.745
			c-0.013-0.008-0.025-0.016-0.039-0.022v-3.199c0-0.464,0.01-0.934,0.019-1.406c0.052-2.623,0.109-5.596-1.159-8.535
			c-2.195-5.086-7.263-8.372-12.911-8.372c-3.26,0-6.3,1.073-8.729,3.023c-2.64-1.082-5.417-1.245-7.521-1.245
			c-1.938,0-4.422,0.136-6.83,0.971c-2.02-2.193-5.047-3.592-8.801-3.986c-3.434-0.358-6.445-0.185-9.002,0.521
			c-2.087-2.056-5.566-3.75-11.361-3.848L109.688,0c-6.251,0-9.854,1.913-11.928,4.082c-2.646-0.88-5.815-1.127-9.581-0.743
			c-3.852,0.394-6.948,1.797-9.002,4.001c-1.538-0.527-3.299-0.843-5.306-0.952c-0.572-0.03-1.154-0.048-1.74-0.048
			c-2.342,0-4.391,0.282-6.207,0.861c-0.192-0.142-0.388-0.278-0.586-0.41c-1.55-1.025-3.256-1.722-5.072-2.068
			c-0.855-0.164-1.734-0.246-2.61-0.247c0,0,0,0,0,0c-2.41,0-4.785,0.621-6.867,1.794c-4.475,2.52-7.146,7.264-7.146,12.692v6.134
			c-0.845,0.314-1.66,0.71-2.426,1.18c-3.333,2.044-5.677,5.405-6.432,9.224C34.024,39.354,34.966,43.4,37.37,46.601z"/>
		<polygon opacity="0.2" fill="#183049" points="23.288,123.672 23.634,133.584 24.383,133.558 24.383,137.258 22.873,137.258 
			22.873,152.489 66.019,151.357 66.019,132.107 66.752,132.082 66.259,117.924 63.918,118.006 63.918,114.507 65.118,114.507 
			65.118,105.916 65.814,105.935 66.207,91.779 66.019,91.773 66.019,85.765 66.324,85.751 65.667,71.601 22.568,73.598 
			23.224,87.746 24.799,87.674 24.799,90.631 23.078,90.583 22.807,100.342 21.972,100.342 21.972,109.507 20.773,109.507 
			20.773,123.672 		"/>
		<g>
			<g>
				<g>
					<polygon fill="#4F321F" stroke="#2D1B0F" stroke-width="3" stroke-miterlimit="10" points="63.519,139.758 63.519,148.923 
						25.373,149.923 25.373,139.758 					"/>
					<g>
						<polygon fill="#1E1108" points="63.519,143.091 42.822,142.591 63.519,142.091 						"/>
					</g>
					<g>
						<polygon fill="#1E1108" points="63.519,146.092 54.697,145.592 63.519,145.092 						"/>
					</g>
					<g>
						<path fill="#604C33" d="M61.947,147.452c-1.453,0.097-2.906,0.144-4.359,0.213c-1.453,0.068-2.906,0.087-4.359,0.132
							c-2.906,0.088-5.812,0.13-8.719,0.143c-2.906,0.02-5.812,0.007-8.719-0.025c-2.906-0.023-5.812-0.126-8.719-0.2l-0.269-0.007
							l0.007-0.255c0.026-0.936,0.079-1.87,0.117-2.806c0.038-0.936,0.083-1.87,0.145-2.806c0.061,0.936,0.106,1.87,0.145,2.806
							c0.039,0.936,0.091,1.87,0.117,2.806l-0.262-0.262c2.906-0.074,5.812-0.177,8.719-0.2c2.906-0.032,5.812-0.045,8.719-0.025
							c2.906,0.013,5.812,0.055,8.719,0.143c1.453,0.045,2.906,0.063,4.359,0.132C59.041,147.309,60.494,147.355,61.947,147.452z"/>
					</g>
					<g>
						<polygon fill="#1E1108" points="25.947,144.341 36.822,144.841 25.947,145.341 						"/>
					</g>
				</g>
				<g>
					
						<rect x="26.883" y="130.593" fill="#4F321F" stroke="#2D1B0F" stroke-width="3" stroke-miterlimit="10" width="36.636" height="9.165"/>
					<g>
						<path fill="#604C33" d="M62.009,138.287c-1.396,0.096-2.791,0.144-4.187,0.212c-1.396,0.068-2.791,0.086-4.187,0.132
							c-2.792,0.088-5.583,0.13-8.374,0.143c-2.792,0.021-5.583,0.008-8.374-0.022c-2.791-0.024-5.582-0.121-8.374-0.196
							l-0.273-0.008l0.006-0.26c0.021-0.936,0.08-1.871,0.118-2.806c0.041-0.936,0.086-1.87,0.149-2.806
							c0.063,0.936,0.109,1.87,0.149,2.806c0.038,0.935,0.097,1.87,0.118,2.806l-0.268-0.268c2.792-0.075,5.583-0.172,8.374-0.196
							c2.792-0.03,5.583-0.043,8.374-0.022c2.791,0.013,5.582,0.055,8.374,0.143c1.396,0.046,2.791,0.063,4.187,0.132
							C59.218,138.144,60.613,138.191,62.009,138.287z"/>
					</g>
					<g>
						<polygon fill="#1E1108" points="63.519,135.676 43.641,135.176 63.519,134.676 						"/>
					</g>
					<g>
						<polygon fill="#1E1108" points="35.537,135.481 27.064,135.981 27.064,134.981 						"/>
					</g>
					<g>
						<polygon fill="#1E1108" points="27.434,133.139 43.641,133.639 27.434,134.139 						"/>
					</g>
				</g>
				<g>
					
						<rect x="40.363" y="106.681" transform="matrix(-0.0348 -0.9994 0.9994 -0.0348 -79.1653 175.0542)" fill="#4F321F" stroke="#2D1B0F" stroke-width="3" stroke-miterlimit="10" width="9.166" height="38.145"/>
					<g>
						<polygon fill="#1E1108" points="63.964,123.842 43.262,124.062 63.929,122.842 						"/>
					</g>
					<g>
						<polygon fill="#1E1108" points="64.069,126.841 55.235,126.647 64.034,125.841 						"/>
					</g>
					<g>
						<path fill="#604C33" d="M62.545,128.255c-1.449,0.147-2.899,0.245-4.349,0.364c-1.45,0.119-2.901,0.188-4.352,0.284
							c-2.901,0.189-5.805,0.332-8.708,0.445c-2.904,0.122-5.809,0.21-8.714,0.278c-2.905,0.078-5.813,0.077-8.72,0.104l-0.27,0.003
							l-0.001-0.256c-0.006-0.936,0.014-1.872,0.019-2.809c0.005-0.936,0.019-1.872,0.047-2.809
							c0.094,0.933,0.172,1.865,0.243,2.799s0.156,1.866,0.215,2.801l-0.271-0.253c2.902-0.175,5.803-0.379,8.707-0.503
							c2.903-0.135,5.808-0.248,8.712-0.329c2.905-0.089,5.811-0.149,8.718-0.162c1.454-0.005,2.907-0.037,4.361-0.02
							S61.089,128.209,62.545,128.255z"/>
					</g>
					<g>
						<polygon fill="#1E1108" points="26.458,126.398 37.344,126.521 26.494,127.398 						"/>
					</g>
				</g>
				<g>
					
						<rect x="23.273" y="112.007" fill="#4F321F" stroke="#2D1B0F" stroke-width="3" stroke-miterlimit="10" width="38.146" height="9.165"/>
					<g>
						<path fill="#604C33" d="M59.847,119.701c-1.453,0.097-2.906,0.145-4.359,0.213s-2.906,0.086-4.359,0.132
							c-2.906,0.089-5.812,0.13-8.719,0.142c-2.906,0.021-5.812,0.008-8.719-0.025c-2.906-0.022-5.812-0.125-8.719-0.199
							l-0.269-0.007l0.007-0.255c0.026-0.936,0.079-1.871,0.118-2.806c0.038-0.936,0.083-1.87,0.145-2.806
							c0.061,0.936,0.106,1.87,0.145,2.806c0.039,0.935,0.091,1.87,0.118,2.806l-0.262-0.262c2.906-0.074,5.812-0.177,8.719-0.199
							c2.906-0.033,5.812-0.046,8.719-0.025c2.906,0.012,5.812,0.053,8.719,0.142c1.453,0.046,2.906,0.063,4.359,0.132
							S58.394,119.604,59.847,119.701z"/>
					</g>
					<g>
						<polygon fill="#1E1108" points="61.418,117.09 40.722,116.59 61.418,116.09 						"/>
					</g>
					<g>
						<polygon fill="#1E1108" points="32.284,116.896 23.462,117.396 23.462,116.396 						"/>
					</g>
					<g>
						<polygon fill="#1E1108" points="23.847,114.553 40.722,115.053 23.847,115.553 						"/>
					</g>
				</g>
				<g>
					
						<rect x="24.472" y="102.842" fill="#4F321F" stroke="#2D1B0F" stroke-width="3" stroke-miterlimit="10" width="38.146" height="9.165"/>
					<g>
						<polygon fill="#1E1108" points="62.618,106.175 41.921,105.675 62.618,105.175 						"/>
					</g>
					<g>
						<polygon fill="#1E1108" points="62.618,109.176 53.796,108.676 62.618,108.176 						"/>
					</g>
					<g>
						<path fill="#604C33" d="M61.046,110.536c-1.453,0.097-2.906,0.144-4.359,0.213c-1.453,0.068-2.906,0.087-4.359,0.132
							c-2.906,0.088-5.812,0.13-8.719,0.143c-2.906,0.02-5.812,0.007-8.719-0.025c-2.906-0.023-5.812-0.126-8.719-0.2l-0.269-0.007
							l0.007-0.255c0.026-0.936,0.079-1.87,0.118-2.806c0.038-0.936,0.083-1.87,0.145-2.806c0.061,0.936,0.106,1.87,0.145,2.806
							c0.039,0.936,0.091,1.87,0.118,2.806l-0.262-0.262c2.906-0.074,5.812-0.177,8.719-0.2c2.906-0.032,5.812-0.045,8.719-0.025
							c2.906,0.013,5.812,0.055,8.719,0.143c1.453,0.045,2.906,0.063,4.359,0.132C58.14,110.393,59.593,110.439,61.046,110.536z"/>
					</g>
					<g>
						<polygon fill="#1E1108" points="25.046,107.425 35.921,107.925 25.046,108.425 						"/>
					</g>
				</g>
				<g>
					
						<rect x="39.863" y="79.187" transform="matrix(0.0277 -0.9996 0.9996 0.0277 -55.0071 139.9658)" fill="#4F321F" stroke="#2D1B0F" stroke-width="3" stroke-miterlimit="10" width="9.165" height="38.145"/>
					<g>
						<path fill="#604C33" d="M61.854,101.854c-1.455,0.057-2.909,0.063-4.364,0.092c-1.454,0.028-2.907,0.007-4.361,0.012
							c-2.907,0.008-5.814-0.03-8.719-0.099c-2.906-0.061-5.811-0.153-8.715-0.267c-2.904-0.104-5.807-0.286-8.71-0.44l-0.269-0.015
							l0.014-0.254c0.052-0.935,0.13-1.868,0.195-2.802c0.064-0.935,0.135-1.868,0.222-2.801c0.035,0.937,0.055,1.873,0.067,2.809
							c0.013,0.937,0.039,1.872,0.04,2.808L27,100.628c2.907,0.007,5.815-0.016,8.721,0.041c2.906,0.048,5.812,0.115,8.716,0.216
							c2.905,0.093,5.809,0.215,8.711,0.383c1.452,0.086,2.903,0.145,4.354,0.253S60.404,101.717,61.854,101.854z"/>
					</g>
					<g>
						<polygon fill="#1E1108" points="63.498,99.287 42.822,98.215 63.525,98.287 						"/>
					</g>
					<g>
						<polygon fill="#1E1108" points="34.379,98.287 25.547,98.543 25.574,97.543 						"/>
					</g>
					<g>
						<polygon fill="#1E1108" points="26.01,95.712 42.865,96.679 25.983,96.712 						"/>
					</g>
				</g>
				<g>
					
						<rect x="27.299" y="84.256" fill="#4F321F" stroke="#2D1B0F" stroke-width="3" stroke-miterlimit="10" width="36.219" height="9.165"/>
					<g>
						<polygon fill="#1E1108" points="63.519,87.589 43.867,87.089 63.519,86.589 						"/>
					</g>
					<g>
						<polygon fill="#1E1108" points="63.519,90.59 55.142,90.09 63.519,89.59 						"/>
					</g>
					<g>
						<path fill="#604C33" d="M62.026,91.95c-1.38,0.096-2.759,0.144-4.139,0.211c-1.38,0.069-2.76,0.087-4.139,0.132
							c-2.76,0.088-5.519,0.131-8.279,0.144c-2.759,0.021-5.519,0.009-8.278-0.022c-2.76-0.023-5.519-0.119-8.279-0.195
							l-0.274-0.007l0.005-0.262c0.02-0.936,0.081-1.87,0.119-2.806c0.041-0.936,0.086-1.87,0.15-2.806
							c0.064,0.936,0.11,1.87,0.15,2.806c0.038,0.936,0.099,1.87,0.119,2.806l-0.269-0.269c2.76-0.076,5.519-0.172,8.279-0.195
							c2.759-0.031,5.519-0.043,8.278-0.022c2.76,0.013,5.519,0.056,8.279,0.144c1.379,0.045,2.759,0.062,4.139,0.132
							C59.267,91.807,60.646,91.854,62.026,91.95z"/>
					</g>
					<g>
						<polygon fill="#1E1108" points="27.844,88.839 38.17,89.339 27.844,89.839 						"/>
					</g>
				</g>
				<g>
					
						<rect x="39.863" y="60.6" transform="matrix(-0.0463 -0.9989 0.9989 -0.0463 -33.0844 127.7601)" fill="#4F321F" stroke="#2D1B0F" stroke-width="3" stroke-miterlimit="10" width="9.165" height="38.146"/>
					<g>
						<path fill="#604C33" d="M62.072,81.972c-1.447,0.163-2.896,0.278-4.345,0.414c-1.449,0.136-2.899,0.222-4.349,0.334
							c-2.899,0.223-5.8,0.398-8.703,0.546c-2.902,0.154-5.806,0.276-8.71,0.378c-2.904,0.111-5.812,0.144-8.719,0.204l-0.27,0.006
							l-0.004-0.256c-0.017-0.936-0.008-1.872-0.013-2.808c-0.005-0.937-0.003-1.872,0.015-2.81
							c0.104,0.932,0.193,1.863,0.274,2.796s0.177,1.864,0.247,2.798l-0.274-0.25c2.9-0.209,5.798-0.445,8.7-0.603
							c2.902-0.168,5.804-0.315,8.708-0.429c2.904-0.123,5.809-0.216,8.716-0.262c1.454-0.022,2.906-0.071,4.361-0.07
							C59.163,81.962,60.616,81.942,62.072,81.972z"/>
					</g>
					<g>
						<polygon fill="#1E1108" points="63.521,79.291 42.824,79.749 63.475,78.291 						"/>
					</g>
					<g>
						<polygon fill="#1E1108" points="34.409,80.445 25.619,81.354 25.573,80.354 						"/>
					</g>
					<g>
						<polygon fill="#1E1108" points="25.873,78.494 42.752,78.214 25.918,79.494 						"/>
					</g>
				</g>
			</g>
			<polygon opacity="0.5" fill="#1E1108" points="40.722,151.021 65.019,150.384 65.019,141.258 65.019,138.258 65.019,131.142 
				65.718,131.117 65.294,118.958 62.918,119.041 62.918,113.507 64.118,113.507 64.118,104.889 64.842,104.908 65.179,92.748 
				65.019,92.744 65.019,84.809 65.278,84.797 64.715,72.646 40.722,73.757 			"/>
		</g>
		<g>
			<g>
				<path fill="#28170B" stroke="#1C0F08" stroke-width="3" stroke-miterlimit="10" d="M48.52,46.717h0.623v138.088H48.52
					c-4.694,0-8.5,3.806-8.5,8.5s3.806,8.5,8.5,8.5h0.623v2.903c0,4.694,3.806,8.5,8.5,8.5s8.5-3.806,8.5-8.5v-2.903h87.854v2.903
					c0,4.694,3.806,8.5,8.5,8.5s8.5-3.806,8.5-8.5v-3.04c3.989-0.7,7.023-4.174,7.023-8.363s-3.034-7.663-7.023-8.363V46.58
					c3.989-0.7,7.023-4.174,7.023-8.363s-3.034-7.663-7.023-8.363V18.475c0-4.694-3.806-8.5-8.5-8.5s-8.5,3.806-8.5,8.5v11.242
					H66.143V18.475c0-4.694-3.806-8.5-8.5-8.5s-8.5,3.806-8.5,8.5v11.242H48.52c-4.694,0-8.5,3.806-8.5,8.5
					S43.826,46.717,48.52,46.717z M153.997,46.717v138.088H66.143V46.717H153.997z"/>
				<path fill="#110904" d="M44.716,45.811c1.146,0.574,2.435,0.906,3.804,0.906h0.623v11.574c4.565,1.484,11.562,0.81,17-0.389
					V46.717h15.13c2.3-5.015,3.074-11.145,2.568-17H66.143V18.475c0-2.811-1.37-5.295-3.473-6.843
					c-1.228,0.097-2.415,0.16-3.515,0.121c-4.122-0.147-6.957,0.909-9.04,2.781c-0.618,1.179-0.972,2.518-0.972,3.94v11.242H48.52
					c-1.396,0-2.708,0.343-3.87,0.938c0.396,3.579,0.609,7.161,0.52,10.781C45.138,42.733,44.928,44.241,44.716,45.811z"/>
				<path fill="#110904" d="M49.143,179.096v5.709H48.52c-1.49,0-2.888,0.386-4.105,1.059c-0.585,4.606-1.082,10.143-0.268,14.721
					c1.279,0.77,2.771,1.221,4.373,1.221h0.623v2.903c0,1.673,0.49,3.228,1.324,4.543c2.928,1.13,7.792,2.548,11.38,2.838
					c2.563-1.464,4.295-4.218,4.295-7.381v-2.903h6.15c0.811-5.101,0.12-10.844-1.029-14.113c-0.361-1.027-0.777-1.99-1.24-2.887
					h-3.881v-5.095C61.539,175.63,55.206,175.135,49.143,179.096z"/>
				<path fill="#110904" d="M167.52,175.667c-5.506-0.693-10.242-0.368-13.523,1.921v7.217h-4.334
					c-0.203,0.983-0.355,2.033-0.42,3.205c-0.201,3.697,0.188,9.081,1.697,13.795h3.057v2.903c0,1.762,0.536,3.398,1.455,4.756
					c0.512,0.457,1.049,0.877,1.64,1.21c4.281,2.413,9.071-0.667,12.444-3.354c0.482-0.385,0.926-0.797,1.338-1.228
					c0.074-0.452,0.123-0.912,0.123-1.385v-3.04c1.203-0.211,2.315-0.678,3.287-1.336c1.326-3.835,1.578-8.286,1.578-12.671
					c-1.246-1.396-2.942-2.382-4.865-2.72v-8.857L167.52,175.667z"/>
				<path fill="#110904" d="M152.865,42.098c1.204,8.494,7.093,13.899,15.823,11.193c0.896-0.277,1.651-0.607,2.309-0.976V46.58
					c1.436-0.252,2.744-0.867,3.835-1.742c0.038-0.811,0.046-1.663,0.038-2.565c-0.029-3.63,0.385-7.115,0.435-10.267
					c-1.176-1.094-2.657-1.863-4.308-2.152v-8.695c-1.5-1.041-3.494-1.885-6.143-2.491l-5.668,1.667
					c-2.572-0.3-4.191,1.617-5.189,4.44v4.942h-1.094C152.267,34.672,152.584,40.121,152.865,42.098z"/>
			</g>
			<g>
				<g>
					<g>
						<g>
							<path fill="#4F321F" stroke="#2D1B0F" stroke-width="3" stroke-miterlimit="10" d="M127.481,8.69
								c5.09,0,9.215,1.328,9.215,6.418v193.563c0,5.09-4.125,6.305-9.215,6.305c-5.089,0-9.215-1.215-9.215-6.305V15.108
								C118.266,10.019,122.392,8.69,127.481,8.69z"/>
							<path opacity="0.4" fill="#6D522C" d="M127.481,13.702c3.055,0,5.529,0.798,5.529,3.851v190.295
								c0,3.054-2.475,3.783-5.529,3.783c-3.053,0-5.528-0.729-5.528-3.783V17.553C121.953,14.5,124.428,13.702,127.481,13.702z"/>
						</g>
						<g>
							<path fill="#1E1108" d="M122.14,211.824c0,0-0.112-12.383-0.28-30.957c-0.045-9.287-0.097-20.121-0.152-31.73
								c-0.021-11.608-0.044-23.991-0.066-36.373c0.021-12.383,0.045-24.766,0.065-36.375c0.056-11.608,0.107-22.443,0.152-31.73
								c0.169-18.573,0.281-30.956,0.281-30.956s0.112,12.383,0.281,30.956c0.045,9.287,0.097,20.122,0.152,31.73
								c0.021,11.609,0.044,23.992,0.065,36.375c-0.022,12.382-0.045,24.765-0.066,36.373c-0.056,11.609-0.107,22.443-0.152,31.73
								C122.252,199.441,122.14,211.824,122.14,211.824z"/>
						</g>
						<g>
							<path fill="#1E1108" d="M126.997,214.977c0,0-0.052-9.701-0.129-24.252c0.001-7.275,0.002-15.763,0.003-24.856
								c0.036-9.095,0.073-18.794,0.111-28.494c0.083-9.7,0.166-19.399,0.243-28.493c0.113-9.094,0.219-17.581,0.309-24.855
								c0.26-14.549,0.433-24.248,0.433-24.248s0.052,9.701,0.13,24.252c-0.001,7.275-0.002,15.763-0.003,24.856
								c-0.036,9.095-0.074,18.794-0.112,28.494c-0.084,9.7-0.166,19.399-0.244,28.493c-0.113,9.094-0.219,17.581-0.309,24.855
								C127.169,205.277,126.997,214.977,126.997,214.977z"/>
						</g>
						<g>
							<path fill="#725435" d="M131.292,48.945c0,0,0.052,3.369,0.044,8.42c-0.014,2.525-0.03,5.473-0.048,8.629
								c-0.042,3.156-0.087,6.523-0.132,9.891c-0.076,3.366-0.152,6.732-0.225,9.889c-0.096,3.155-0.185,6.101-0.262,8.625
								c-0.175,5.049-0.348,8.413-0.348,8.413s-0.053-3.368-0.046-8.42c0.015-2.526,0.03-5.472,0.049-8.629
								c0.042-3.157,0.087-6.523,0.132-9.891c0.076-3.366,0.153-6.732,0.225-9.889c0.096-3.155,0.186-6.101,0.263-8.625
								C131.12,52.311,131.292,48.945,131.292,48.945z"/>
						</g>
						<g>
							<path fill="#1E1108" d="M131.586,90.696c0,0-0.045-0.302-0.129-0.867c-0.072-0.567-0.234-1.392-0.338-2.454
								c-0.051-1.065-0.223-2.367-0.215-3.855c-0.006-0.745-0.039-1.539-0.027-2.375c0.021-0.835,0.045-1.714,0.07-2.63
								c0.094-1.828,0.197-3.809,0.307-5.903c0.117-2.086,0.197-4.305,0.259-6.556c-0.033-2.286-0.067-4.648-0.103-7.049
								c-0.073-2.396-0.233-4.821-0.348-7.251c-0.113-2.436-0.227-4.872-0.339-7.27c-0.14-2.396-0.128-4.771-0.196-7.061
								c-0.037-2.284-0.072-4.492-0.105-6.586c-0.027-2.097-0.052-4.078-0.075-5.907c0.011-0.916-0.067-1.787-0.122-2.616
								c-0.052-0.83-0.102-1.617-0.147-2.357c-0.093-1.481-0.175-2.773-0.241-3.837c-0.121-2.132-0.189-3.35-0.189-3.35
								s0.139,1.212,0.384,3.332c0.116,1.062,0.257,2.353,0.419,3.832c0.135,1.481,0.408,3.152,0.461,4.98
								c0.074,1.827,0.154,3.808,0.24,5.901c0.078,2.097,0.16,4.307,0.244,6.594c0.09,2.281,0.1,4.635,0.262,7.03
								c0.133,2.397,0.27,4.832,0.404,7.267c0.092,2.443,0.23,4.889,0.281,7.291c0.013,2.4,0.025,4.764,0.037,7.05
								c-0.064,2.32-0.227,4.516-0.4,6.611c-0.168,2.088-0.326,4.062-0.473,5.884c-0.105,1.821-0.211,3.491-0.23,4.974
								c-0.077,1.484,0.035,2.769,0.037,3.835c0.061,1.064,0.156,1.899,0.197,2.469C131.56,90.393,131.586,90.696,131.586,90.696z"
								/>
						</g>
						<g>
							<polygon fill="#1E1108" points="130.34,214.089 130.84,186.767 131.34,214.089 							"/>
						</g>
						<g>
							<path fill="#1E1108" d="M121.634,8.773c0,0,0.024,0.344,0.067,0.944c0.056,0.596,0.023,1.497,0.037,2.548
								c0,1.053-0.037,2.244-0.057,3.539c-0.037,1.289-0.076,2.664-0.115,4.04c-0.213,5.496-0.426,10.993-0.426,10.993
								s-0.037-5.499-0.074-10.998c-0.023-1.374-0.047-2.748-0.068-4.036c-0.039-1.282-0.058-2.498-0.103-3.507
								c-0.061-1.009-0.056-1.829-0.14-2.43c-0.069-0.597-0.109-0.938-0.109-0.938L121.634,8.773z"/>
						</g>
						<g>
							<path fill="#1E1108" d="M130.807,151.442c0,0-0.035-0.439-0.097-1.209c-0.04-0.769-0.138-1.868-0.184-3.187
								c-0.044-1.318-0.128-2.857-0.159-4.506c-0.042-1.647-0.05-3.406-0.061-5.164c0.011-1.758,0.018-3.517,0.06-5.164
								c0.03-1.648,0.115-3.188,0.159-4.506c0.045-1.318,0.144-2.418,0.184-3.187c0.062-0.77,0.098-1.209,0.098-1.209
								s0.035,0.439,0.098,1.209c0.04,0.769,0.139,1.868,0.184,3.187c0.044,1.318,0.129,2.857,0.159,4.506
								c0.042,1.647,0.049,3.406,0.06,5.164c-0.011,1.758-0.019,3.517-0.061,5.164c-0.031,1.648-0.115,3.188-0.159,4.506
								c-0.046,1.318-0.144,2.418-0.184,3.187C130.842,151.003,130.807,151.442,130.807,151.442z"/>
						</g>
						<g>
							<path fill="#1E1108" d="M126.604,15.642c-0.118,0.581-0.273,1.157-0.371,1.738c-0.049,0.588-0.15,1.158-0.156,1.745
								c0.012,0.588-0.031,1.17,0.002,1.756c0.037,0.586,0.04,1.17,0.106,1.755c0.103,1.169,0.276,2.333,0.431,3.502l0.496,3.515
								c0.148,1.18,0.286,2.363,0.377,3.558c0.044,0.597,0.045,1.2,0.07,1.8c0.022,0.6-0.029,1.207-0.041,1.81
								c-0.016,0.604-0.144,1.207-0.211,1.809c-0.083,0.602-0.279,1.189-0.415,1.782c-0.177,0.584-0.46,1.139-0.686,1.703
								c-0.298,0.535-0.643,1.046-0.961,1.564l-0.212,0.344l-0.273-0.305c-0.299-0.331-0.57-0.684-0.815-1.057l-0.326-0.587
								c-0.095-0.204-0.163-0.422-0.243-0.631c-0.061-0.218-0.09-0.448-0.134-0.669c-0.012-0.228,0.011-0.46,0.017-0.686
								c0.064-0.221,0.132-0.441,0.211-0.65l0.385-0.553l0.1-0.144l0.065,0.178l0.12,0.331c0.048,0.109,0.109,0.214,0.164,0.322
								c0.119,0.213,0.252,0.424,0.361,0.644c-0.14-0.204-0.296-0.39-0.446-0.588c-0.071-0.103-0.148-0.2-0.214-0.308l-0.169-0.347
								L124,39.008l-0.296,0.533c-0.049,0.195-0.086,0.393-0.125,0.584c0.019,0.201,0.019,0.399,0.048,0.594
								c0.062,0.193,0.105,0.388,0.178,0.574c0.092,0.182,0.176,0.364,0.268,0.543l0.33,0.514c0.248,0.329,0.517,0.637,0.81,0.924
								l-0.485,0.039c0.268-0.51,0.559-1.002,0.805-1.515c0.178-0.546,0.4-1.071,0.543-1.624c0.107-0.564,0.275-1.112,0.336-1.686
								c0.046-0.576,0.143-1.142,0.148-1.723c0.004-0.58,0.05-1.156,0.021-1.739c-0.031-0.583-0.038-1.164-0.088-1.747
								c-0.084-1.167-0.201-2.337-0.338-3.508l-0.397-3.53c-0.122-1.183-0.194-2.374-0.233-3.567
								c-0.031-0.596,0.004-1.198,0.002-1.795c-0.004-0.598,0.095-1.196,0.15-1.79c0.065-0.595,0.232-1.185,0.343-1.769
								C126.169,16.747,126.409,16.201,126.604,15.642z"/>
						</g>
						<g>
							<path fill="#725435" d="M124.665,202.206c0,0-0.051-1.248-0.14-3.433c-0.038-1.093-0.083-2.419-0.136-3.94
								c-0.066-1.521-0.141-3.235-0.222-5.106c-0.124-3.741-0.38-8.106-0.526-12.788c-0.07-2.341-0.174-4.759-0.22-7.22
								c-0.044-2.46-0.147-4.957-0.144-7.459c0.024-2.501-0.025-5.002,0.063-7.464c0.087-2.462,0.097-4.886,0.244-7.228
								c0.153-2.336,0.301-4.595,0.441-6.736c0.151-2.155,0.113-4.135,0.005-6.01c-0.229-3.727-0.475-6.854-0.463-9.045
								c-0.035-1.095,0.047-1.955,0.074-2.539c0.033-0.585,0.051-0.896,0.051-0.896s0.002,0.312,0.004,0.898
								c0.004,0.585-0.012,1.442,0.066,2.531c0.04,1.09,0.168,2.41,0.316,3.922c0.16,1.513,0.365,3.218,0.513,5.092
								c0.161,1.86,0.255,3.945,0.162,6.076c-0.079,2.169-0.177,4.406-0.304,6.746c-0.125,2.333-0.112,4.751-0.178,7.203
								c-0.067,2.453,0.009,4.949,0.003,7.443c-0.026,2.493,0.054,4.989,0.075,7.445c0.023,2.456,0.105,4.875,0.154,7.215
								c0.108,4.681,0.18,9.051,0.222,12.8c0.064,3.749,0.014,6.872-0.009,9.058C124.684,200.957,124.665,202.206,124.665,202.206z"
								/>
						</g>
						<g>
							<circle fill="#777777" stroke="#545454" stroke-miterlimit="10" cx="127.481" cy="207.797" r="1.241"/>
							<circle fill="#777777" stroke="#545454" stroke-miterlimit="10" cx="127.481" cy="16.773" r="1.241"/>
						</g>
						
							<linearGradient id="SVGID_1_" gradientUnits="userSpaceOnUse" x1="-469.5562" y1="3571.834" x2="-453.4839" y2="3571.834" gradientTransform="matrix(-1 0 0 -1 -336.4775 3683.668)">
							<stop  offset="0" style="stop-color:#1E1108;stop-opacity:0"/>
							<stop  offset="0.7868" style="stop-color:#1E1108"/>
						</linearGradient>
						<path fill="url(#SVGID_1_)" d="M127.721,216.477c2.094,0,3.874-0.234,5.357-0.688c-3.555-1.086-5.357-3.463-5.357-7.117
							V15.108c0-3.707,1.803-6.118,5.357-7.221c-1.483-0.46-3.264-0.697-5.357-0.697c-7.109,0-10.715,2.664-10.715,7.918v193.563
							C117.006,213.851,120.612,216.477,127.721,216.477z"/>
					</g>
					<g>
						<g>
							<path fill="#4F321F" stroke="#2D1B0F" stroke-width="3" stroke-miterlimit="10" d="M160.686,208.754
								c4.785,0,8.662-1.248,8.662-6.032V20.771c0-4.784-3.877-5.926-8.662-5.926c-4.783,0-8.662,1.142-8.662,5.926v181.95
								C152.024,207.506,155.903,208.754,160.686,208.754z"/>
							<path opacity="0.4" fill="#6D522C" d="M160.686,204.043c2.871,0,5.198-0.75,5.198-3.619V21.547
								c0-2.871-2.327-3.557-5.198-3.557c-2.87,0-5.196,0.686-5.196,3.557v178.877C155.49,203.293,157.816,204.043,160.686,204.043z
								"/>
						</g>
						<g>
							<path fill="#1E1108" d="M165.24,23.963c0,0-0.173,2.694-0.474,7.408c-0.094,1.178-0.119,2.487-0.29,3.9
								c-0.169,1.415-0.353,2.945-0.548,4.579c-0.196,1.636-0.404,3.376-0.625,5.211c-0.193,1.833-0.398,3.76-0.611,5.771
								c-0.107,1.006-0.218,2.034-0.33,3.081c-0.055,0.523-0.109,1.052-0.164,1.586c-0.025,0.534-0.051,1.073-0.077,1.617
								c-0.103,2.175-0.209,4.423-0.318,6.733c-0.027,0.578-0.055,1.159-0.083,1.744c-0.004,0.587-0.008,1.178-0.012,1.772
								c-0.006,1.188-0.012,2.392-0.018,3.608c0.001,2.433-0.066,4.916,0.002,7.445c0.039,2.529,0.078,5.1,0.118,7.702
								c0.099,2.601,0.2,5.232,0.301,7.885c0.071,2.659,0.292,5.322,0.449,8.003c0.164,2.679,0.341,5.368,0.55,8.061
								c0.359,5.389,0.717,10.777,1.07,16.082c0.118,2.658,0.235,5.295,0.352,7.9c0.027,0.651,0.056,1.301,0.084,1.947
								c0.006,0.648,0.012,1.295,0.018,1.938c0.012,1.288,0.023,2.565,0.035,3.833s0.023,2.525,0.034,3.771
								c-0.021,1.245-0.093,2.478-0.144,3.697c-0.125,2.438-0.181,4.827-0.355,7.145c-0.518,4.626-0.924,8.999-1.465,13.009
								c-0.561,4.016-0.832,7.706-1.15,10.978c-0.221,3.277-0.332,6.144-0.447,8.501c-0.002,4.723-0.004,7.422-0.004,7.422
								s-0.061-2.699-0.164-7.424c0.062-2.361,0.108-5.232,0.254-8.523c0.24-3.283,0.43-7.006,0.952-11.02
								c0.491-4.022,0.841-8.393,1.296-12.994c0.146-2.31,0.17-4.689,0.264-7.117c0.031-1.215,0.094-2.441,0.112-3.682
								c-0.017-1.24-0.033-2.493-0.05-3.756c-0.018-1.263-0.034-2.536-0.051-3.818c-0.01-0.642-0.018-1.285-0.026-1.931
								c-0.03-0.646-0.062-1.293-0.093-1.942c-0.126-2.599-0.254-5.229-0.383-7.879c-0.374-5.299-0.754-10.683-1.135-16.066
								c-0.197-2.691-0.364-5.389-0.518-8.078c-0.146-2.688-0.355-5.367-0.416-8.022c-0.09-2.658-0.18-5.295-0.268-7.9
								c-0.029-2.606-0.059-5.181-0.086-7.713c-0.055-2.531,0.007-5.024,0.047-7.462c0.021-1.22,0.043-2.426,0.064-3.617
								c0.012-0.596,0.022-1.188,0.033-1.776c0.036-0.589,0.07-1.173,0.105-1.754c0.14-2.321,0.275-4.58,0.406-6.765
								c0.033-0.547,0.066-1.088,0.098-1.624c0.062-0.532,0.125-1.061,0.186-1.584c0.125-1.046,0.248-2.071,0.368-3.077
								c0.243-2.012,0.476-3.941,0.698-5.775c0.26-1.824,0.506-3.555,0.738-5.182s0.449-3.15,0.65-4.559
								c0.203-1.408,0.258-2.719,0.378-3.893C165.006,26.652,165.24,23.963,165.24,23.963z"/>
						</g>
						<g>
							<path fill="#1E1108" d="M155.666,17.809c0,0,0.112,11.64,0.28,29.1c0.045,8.729,0.097,18.914,0.152,29.826
								c0.021,10.912,0.044,22.552,0.066,34.191c-0.021,11.64-0.045,23.279-0.065,34.191c-0.056,10.912-0.107,21.097-0.152,29.826
								c-0.169,17.46-0.281,29.1-0.281,29.1s-0.112-11.64-0.281-29.1c-0.045-8.729-0.097-18.914-0.152-29.826
								c-0.021-10.912-0.044-22.552-0.065-34.191c0.022-11.64,0.045-23.279,0.066-34.191c0.056-10.912,0.107-21.097,0.152-29.826
								C155.553,29.448,155.666,17.809,155.666,17.809z"/>
						</g>
						<g>
							<path fill="#1E1108" d="M157.034,50.405c0,0,0.17,9.117,0.424,22.793c0.087,6.839,0.189,14.816,0.298,23.364
								c0.075,8.548,0.154,17.666,0.233,26.783c0.035,9.118,0.07,18.236,0.103,26.785c-0.003,8.548-0.005,16.526-0.007,23.365
								c-0.083,13.678-0.139,22.797-0.139,22.797s-0.17-9.117-0.424-22.793c-0.088-6.838-0.189-14.816-0.299-23.364
								c-0.074-8.548-0.153-17.666-0.232-26.783c-0.035-9.118-0.068-18.236-0.102-26.784c0.003-8.549,0.006-16.527,0.008-23.366
								C156.979,59.523,157.034,50.405,157.034,50.405z"/>
						</g>
						<g>
							<path fill="#1E1108" d="M161.592,142.269c0-0.001,0.248-0.038,0.425-0.358c0.185-0.31,0.317-0.823,0.382-1.443
								c0.056-0.615,0.052-1.365-0.146-2.051c-0.097-0.339-0.287-0.629-0.477-0.742c-0.181-0.108-0.47-0.087-0.803,0.06l-0.03,0.011
								l-0.008,0.003c0.169-0.096,0.045-0.024,0.081-0.046l-0.004,0.004l-0.016,0.012l-0.066,0.048l-0.133,0.097
								c-0.111,0.066-0.076,0.116-0.129,0.166c-0.066,0.06-0.168,0.283-0.254,0.432c-0.152,0.348-0.3,0.711-0.369,1.068
								c-0.086,0.34-0.064,0.73-0.051,0.853l0.154,0.229c0.041,0.031,0.067,0.078,0.108,0.111c0.085,0.078,0.16,0.101,0.24,0.108
								c0.163-0.001,0.351-0.188,0.412-0.397c0.063-0.207,0.068-0.427,0.015-0.597c-0.094-0.348-0.255-0.526-0.244-0.529
								c-0.013,0.012,0.204,0.103,0.428,0.452c0.112,0.173,0.201,0.43,0.178,0.745c-0.021,0.298-0.173,0.729-0.669,0.888
								c-0.24,0.062-0.519,0.015-0.726-0.109c-0.109-0.057-0.201-0.149-0.301-0.234l-0.184-0.207
								c-0.16-0.287-0.242-0.531-0.246-0.762c-0.043-0.246-0.002-0.462,0.016-0.691c0.059-0.449,0.17-0.896,0.361-1.331
								c0.177-0.39,0.529-1.013,1.052-1.245c0.454-0.189,1.123-0.313,1.696,0.044c0.541,0.364,0.713,0.907,0.818,1.347
								c0.174,0.91,0.045,1.718-0.145,2.378c-0.191,0.659-0.484,1.177-0.791,1.457C161.848,142.334,161.577,142.261,161.592,142.269
								z"/>
						</g>
						<g>
							<path fill="#725435" d="M159.769,196.749c0,0-0.03-2.784,0.007-6.959c0.029-2.087,0.063-4.521,0.1-7.13
								c0.031-1.305,0.062-2.652,0.095-4.021c0.034-1.359,0.053-2.773,0.13-4.161c0.062-1.388,0.184-2.782,0.303-4.153
								c0.145-1.369,0.306-2.716,0.521-4.009c0.23-1.304,0.49-2.518,0.678-3.699c0.157-1.165,0.194-2.278,0.211-3.324
								c0.007-1.042,0.027-2.001,0.066-2.852c0.045-0.851,0.111-1.59,0.211-2.194c0.057-0.61,0.229-1.068,0.293-1.387
								c0.078-0.316,0.121-0.485,0.121-0.485s-0.029,0.172-0.085,0.493c-0.043,0.324-0.167,0.787-0.193,1.395
								c-0.065,0.604-0.09,1.34-0.085,2.185c0.02,0.847,0.041,1.803,0.065,2.845c0.021,1.041,0.022,2.192-0.099,3.403
								c-0.147,1.188-0.363,2.45-0.584,3.717c-0.199,1.281-0.344,2.616-0.471,3.972c-0.102,1.358-0.206,2.738-0.256,4.132
								c-0.092,1.391-0.125,2.76-0.176,4.138c-0.047,1.369-0.094,2.717-0.139,4.021c-0.115,2.607-0.223,5.04-0.314,7.126
								C159.961,193.97,159.769,196.749,159.769,196.749z"/>
						</g>
						<g>
							<path fill="#725435" d="M158.92,133.835c0,0-0.136-5.118-0.34-12.796c-0.073-3.84-0.16-8.318-0.252-13.118
								c-0.068-4.799-0.141-9.919-0.214-15.038c-0.042-5.119-0.083-10.238-0.122-15.038c-0.014-4.8-0.027-9.28-0.039-13.12
								c0.033-7.681,0.055-12.801,0.055-12.801s0.136,5.119,0.34,12.797c0.074,3.839,0.16,8.318,0.252,13.117
								c0.068,4.799,0.141,9.918,0.213,15.037c0.042,5.12,0.083,10.24,0.121,15.039c0.015,4.801,0.028,9.28,0.039,13.12
								C158.942,128.715,158.92,133.835,158.92,133.835z"/>
						</g>
						<g>
							<path fill="#725435" d="M157.004,148.605c0,0-0.168-3.162-0.338-7.908c-0.074-2.373-0.16-5.142-0.253-8.107
								c-0.068-2.967-0.142-6.131-0.214-9.295c-0.041-3.166-0.082-6.33-0.121-9.298c-0.015-2.968-0.027-5.737-0.039-8.111
								c-0.002-4.748,0.055-7.915,0.055-7.915s0.169,3.162,0.339,7.908c0.073,2.373,0.16,5.142,0.253,8.107
								c0.067,2.967,0.141,6.131,0.213,9.295c0.041,3.166,0.082,6.33,0.121,9.298c0.014,2.968,0.027,5.737,0.039,8.111
								C157.059,145.438,157.004,148.605,157.004,148.605z"/>
						</g>
						<g>
							<polygon fill="#1E1108" points="159.631,14.932 159.984,30.352 158.633,14.986 							"/>
						</g>
						<g>
							<circle fill="#777777" stroke="#545454" stroke-miterlimit="10" cx="161.805" cy="198.36" r="1.241"/>
							<circle fill="#777777" stroke="#545454" stroke-miterlimit="10" cx="161.805" cy="26.21" r="1.241"/>
						</g>
						
							<linearGradient id="SVGID_2_" gradientUnits="userSpaceOnUse" x1="-502.4966" y1="3571.7236" x2="-486.67" y2="3571.7236" gradientTransform="matrix(-1 0 0 -1 -336.4775 3683.668)">
							<stop  offset="0" style="stop-color:#1E1108;stop-opacity:0"/>
							<stop  offset="0.8962" style="stop-color:#1E1108"/>
						</linearGradient>
						<path fill="url(#SVGID_2_)" d="M160.983,210.329c1.967,0,3.641-0.221,5.036-0.647c-3.341-1.021-5.036-3.254-5.036-6.69V21.004
							c0-3.484,1.695-5.752,5.036-6.789c-1.396-0.432-3.069-0.655-5.036-0.655c-6.686,0-10.074,2.505-10.074,7.444v181.987
							C150.909,207.859,154.297,210.329,160.983,210.329z"/>
					</g>
					<g>
						<g>
							<path fill="#4F321F" stroke="#2D1B0F" stroke-width="3" stroke-miterlimit="10" d="M109.766,5.501
								c5.247,0,9.5,1.369,9.5,6.616v199.55c0,5.247-4.253,6.5-9.5,6.5c-5.246,0-9.5-1.253-9.5-6.5V12.117
								C100.266,6.87,104.52,5.501,109.766,5.501z"/>
							<path opacity="0.4" fill="#6D522C" d="M109.766,10.667c3.148,0,5.701,0.822,5.701,3.97v196.181c0,3.148-2.553,3.9-5.701,3.9
								c-3.147,0-5.699-0.752-5.699-3.9V14.637C104.067,11.489,106.619,10.667,109.766,10.667z"/>
						</g>
						<g>
							<path fill="#1E1108" d="M114.76,208.167c0,0-0.252-2.95-0.694-8.112c-0.13-1.288-0.188-2.725-0.41-4.27
								c-0.219-1.545-0.456-3.216-0.708-5.001c-0.253-1.784-0.521-3.683-0.806-5.684c-0.241-2.013-0.495-4.128-0.761-6.335
								c-0.131-1.103-0.266-2.228-0.402-3.375c-0.066-0.573-0.134-1.152-0.201-1.736c-0.035-0.588-0.07-1.182-0.106-1.781
								c-0.143-2.395-0.29-4.871-0.441-7.418c-0.038-0.637-0.076-1.277-0.114-1.923c-0.012-0.645-0.024-1.294-0.037-1.947
								c-0.021-1.307-0.045-2.63-0.067-3.966c-0.042-2.675-0.108-5.408-0.05-8.185c0.031-2.776,0.063-5.601,0.096-8.458
								c0.098-2.857,0.196-5.749,0.296-8.664c0.067-2.912,0.298-5.849,0.458-8.797c0.169-2.949,0.352-5.908,0.569-8.859
								c0.415-5.904,0.831-11.809,1.241-17.621c0.141-2.908,0.281-5.792,0.419-8.642c0.034-0.713,0.067-1.423,0.101-2.131
								c0.01-0.708,0.019-1.414,0.027-2.118c0.02-1.406,0.037-2.803,0.056-4.188s0.036-2.759,0.054-4.12
								c-0.02-1.359-0.089-2.705-0.123-4.037c-0.105-2.663-0.133-5.275-0.294-7.808c-0.503-5.048-0.89-9.841-1.431-14.252
								c-0.574-4.402-0.785-8.483-1.053-12.084c-0.164-3.608-0.219-6.757-0.288-9.347c0.108-5.181,0.171-8.142,0.171-8.142
								s-0.001,2.96-0.003,8.14c0.123,2.586,0.243,5.729,0.48,9.324c0.346,3.589,0.64,7.639,1.251,12.042
								c0.592,4.398,1.035,9.194,1.6,14.267c0.191,2.541,0.25,5.16,0.386,7.834c0.054,1.337,0.134,2.689,0.155,4.055
								c-0.012,1.365-0.025,2.743-0.038,4.134c-0.013,1.39-0.026,2.792-0.039,4.203c-0.007,0.706-0.013,1.415-0.021,2.125
								c-0.03,0.71-0.061,1.422-0.092,2.136c-0.128,2.857-0.257,5.749-0.387,8.664c-0.389,5.817-0.782,11.727-1.177,17.637
								c-0.229,2.953-0.423,5.903-0.602,8.842c-0.172,2.939-0.413,5.861-0.491,8.777c-0.11,2.91-0.221,5.796-0.328,8.648
								c-0.043,2.854-0.086,5.674-0.129,8.447c-0.074,2.774,0,5.499,0.002,8.167c0.007,1.335,0.014,2.654,0.021,3.958
								c0.004,0.652,0.009,1.3,0.014,1.943c0.031,0.643,0.061,1.28,0.092,1.914c0.121,2.535,0.239,5,0.354,7.386
								c0.028,0.597,0.057,1.188,0.084,1.774c0.062,0.585,0.122,1.164,0.182,1.739c0.124,1.148,0.245,2.274,0.363,3.379
								c0.236,2.205,0.461,4.318,0.676,6.328c0.243,2.012,0.474,3.921,0.69,5.714c0.216,1.792,0.419,3.47,0.606,5.021
								c0.189,1.55,0.219,2.987,0.322,4.278C114.569,205.213,114.76,208.167,114.76,208.167z"/>
						</g>
						<g>
							<path fill="#1E1108" d="M104.26,214.917c0,0-0.112-12.766-0.28-31.914c-0.045-9.574-0.097-20.744-0.153-32.712
								c-0.021-11.968-0.043-24.733-0.066-37.499c0.023-12.766,0.045-25.531,0.066-37.499c0.056-11.968,0.107-23.138,0.152-32.712
								c0.168-19.148,0.281-31.914,0.281-31.914s0.113,12.766,0.281,31.914c0.045,9.574,0.097,20.744,0.152,32.712
								c0.021,11.968,0.043,24.733,0.066,37.499c-0.023,12.766-0.046,25.531-0.066,37.499c-0.057,11.968-0.108,23.138-0.153,32.712
								C104.373,202.151,104.26,214.917,104.26,214.917z"/>
						</g>
						<g>
							<path fill="#1E1108" d="M105.76,179.167c0,0-0.049-10.001-0.123-25.002c0.002-7.5,0.004-16.251,0.007-25.626
								c0.038-9.375,0.077-19.375,0.117-29.375c0.085-10,0.17-20,0.249-29.375c0.115-9.375,0.221-18.124,0.312-25.624
								c0.263-14.999,0.438-24.998,0.438-24.998s0.051,10.001,0.125,25.002c-0.002,7.5-0.004,16.251-0.008,25.626
								C106.84,79.17,106.8,89.17,106.76,99.17c-0.085,10-0.17,20-0.25,29.375c-0.115,9.375-0.221,18.124-0.312,25.624
								C105.936,169.168,105.76,179.167,105.76,179.167z"/>
						</g>
						<g>
							<path fill="#1E1108" d="M110.76,78.417c-0.018,0.009,0.282-0.068,0.623,0.263c0.318,0.314,0.646,0.874,0.85,1.597
								c0.201,0.723,0.336,1.605,0.143,2.594c-0.115,0.477-0.305,1.062-0.884,1.448c-0.61,0.378-1.325,0.245-1.817,0.038
								c-0.29-0.105-0.592-0.421-0.736-0.636c-0.164-0.232-0.285-0.467-0.392-0.704c-0.216-0.472-0.329-0.959-0.399-1.445
								c-0.05-0.487-0.102-0.986,0.226-1.539l0.219-0.254c0.105-0.09,0.202-0.19,0.321-0.251c0.22-0.135,0.516-0.187,0.771-0.121
								c0.529,0.165,0.694,0.63,0.717,0.951c0.021,0.34-0.064,0.618-0.183,0.809c-0.235,0.385-0.474,0.488-0.458,0.501
								c0,0,0.031-0.052,0.092-0.147c0.064-0.09,0.129-0.243,0.188-0.429c0.062-0.185,0.068-0.431-0.005-0.664
								c-0.069-0.235-0.275-0.449-0.47-0.458c-0.096,0.004-0.188,0.03-0.287,0.119c-0.048,0.037-0.081,0.091-0.129,0.128
								l-0.152,0.226c-0.081,0.18-0.064,0.603,0.02,0.986c0.08,0.396,0.23,0.805,0.408,1.188c0.091,0.189,0.193,0.375,0.309,0.528
								c0.139,0.163,0.168,0.218,0.327,0.291c0.37,0.163,0.708,0.192,0.925,0.062c0.225-0.137,0.434-0.466,0.539-0.843
								c0.217-0.763,0.215-1.588,0.148-2.266c-0.08-0.68-0.219-1.254-0.438-1.585c-0.109-0.161-0.219-0.276-0.313-0.326
								C110.822,78.43,110.758,78.42,110.76,78.417z"/>
						</g>
						<g>
							<path fill="#725435" d="M108.76,18.667c0,0,0.201,3.048,0.418,7.623c0.098,2.287,0.213,4.956,0.335,7.815
								c0.049,1.43,0.1,2.907,0.151,4.408c0.055,1.511,0.09,3.015,0.189,4.54c0.056,1.528,0.17,3.042,0.283,4.532
								c0.141,1.488,0.3,2.953,0.52,4.358c0.242,1.391,0.48,2.773,0.644,4.075c0.077,0.652,0.087,1.313,0.12,1.935
								c-0.002,0.62-0.004,1.219-0.006,1.794c-0.023,1.143-0.046,2.191-0.066,3.12c0.006,0.464,0.012,0.897,0.018,1.298
								c0.029,0.399,0.058,0.767,0.083,1.098c0.03,0.668,0.169,1.175,0.217,1.529c0.062,0.353,0.095,0.541,0.095,0.541
								s-0.046-0.186-0.132-0.532c-0.069-0.351-0.255-0.853-0.315-1.521c-0.042-0.332-0.09-0.7-0.141-1.102
								c-0.026-0.403-0.055-0.839-0.084-1.306c-0.041-0.932-0.061-1.983-0.067-3.126c-0.017-0.569-0.032-1.163-0.05-1.777
								c-0.055-0.607-0.08-1.227-0.176-1.872c-0.203-1.296-0.487-2.63-0.738-4.059c-0.236-1.417-0.412-2.894-0.57-4.394
								c-0.129-1.504-0.263-3.033-0.33-4.555c-0.085-1.522-0.105-3.07-0.145-4.562c-0.035-1.502-0.07-2.979-0.105-4.41
								c-0.044-2.86-0.085-5.531-0.121-7.819C108.737,21.721,108.76,18.667,108.76,18.667z"/>
						</g>
						<g>
							<path fill="#725435" d="M107.829,87.667c0,0,0.017,5.615,0.041,14.039c-0.016,4.211-0.034,9.124-0.054,14.389
								c-0.044,5.264-0.091,10.878-0.138,16.493c-0.078,5.614-0.156,11.229-0.229,16.492c-0.098,5.264-0.189,10.176-0.268,14.387
								c-0.212,8.42-0.354,14.034-0.354,14.034s-0.016-5.615-0.04-14.039c0.016-4.211,0.034-9.124,0.054-14.389
								c0.043-5.264,0.09-10.878,0.137-16.493c0.079-5.614,0.157-11.229,0.23-16.492c0.098-5.264,0.189-10.176,0.268-14.387
								C107.688,93.281,107.829,87.667,107.829,87.667z"/>
						</g>
						<g>
							<path fill="#725435" d="M105.729,71.468c0,0,0.006,0.868,0.016,2.388c0.002,1.519,0.041,3.689,0.024,6.293
								c-0.016,2.604-0.034,5.641-0.054,8.896c-0.043,3.254-0.09,6.726-0.137,10.196c-0.078,3.471-0.156,6.941-0.229,10.194
								c-0.098,3.253-0.188,6.29-0.267,8.892c-0.077,2.604-0.194,4.771-0.252,6.289c-0.064,1.518-0.102,2.385-0.102,2.385
								s-0.006-0.868-0.016-2.387c-0.003-1.52-0.042-3.69-0.025-6.294c0.016-2.604,0.034-5.642,0.054-8.896
								c0.044-3.254,0.091-6.725,0.138-10.196c0.078-3.471,0.156-6.94,0.23-10.194c0.098-3.253,0.188-6.289,0.267-8.893
								c0.077-2.602,0.194-4.77,0.251-6.288C105.692,72.335,105.729,71.468,105.729,71.468z"/>
						</g>
					</g>
					<g>
						<g>
							<path fill="#4F321F" stroke="#2D1B0F" stroke-width="3" stroke-miterlimit="10" d="M146.196,11.847
								c4.933,0,8.931,1.286,8.931,6.219v187.577c0,4.932-3.998,6.109-8.931,6.109c-4.932,0-8.93-1.178-8.93-6.109V18.065
								C137.266,13.133,141.264,11.847,146.196,11.847z"/>
							<path opacity="0.4" fill="#6D522C" d="M146.196,16.702c2.959,0,5.359,0.773,5.359,3.731v184.41c0,2.96-2.4,3.666-5.359,3.666
								s-5.357-0.706-5.357-3.666V20.434C140.838,17.476,143.237,16.702,146.196,16.702z"/>
						</g>
						<g>
							<path fill="#1E1108" d="M141.02,208.697c0,0-0.111-12-0.279-29.999c-0.045-9-0.098-19.5-0.153-30.749
								c-0.021-11.25-0.044-23.25-0.066-35.25c0.022-11.999,0.045-23.999,0.065-35.248c0.057-11.25,0.107-21.75,0.152-30.75
								c0.169-17.999,0.281-29.999,0.281-29.999s0.113,12,0.281,29.999c0.045,9,0.098,19.5,0.152,30.75
								c0.021,11.249,0.044,23.249,0.066,35.248c-0.022,12-0.045,24-0.066,35.25c-0.057,11.249-0.107,21.749-0.152,30.749
								C141.133,196.697,141.02,208.697,141.02,208.697z"/>
						</g>
						<g>
							<path fill="#1E1108" d="M149.793,207.797c0,0-0.111-12-0.279-29.999c-0.045-9-0.098-19.5-0.153-30.749
								c-0.021-11.25-0.044-23.25-0.066-35.25c0.022-11.999,0.045-23.999,0.065-35.248c0.057-11.25,0.107-21.75,0.152-30.75
								c0.169-17.999,0.281-29.999,0.281-29.999s0.113,12,0.281,29.999c0.045,9,0.098,19.5,0.152,30.75
								c0.021,11.249,0.044,23.249,0.066,35.248c-0.022,12-0.045,24-0.066,35.25c-0.057,11.249-0.107,21.749-0.152,30.749
								C149.907,195.797,149.793,207.797,149.793,207.797z"/>
						</g>
						<g>
							<path fill="#1E1108" d="M151.084,201.256c0,0-0.053-9.4-0.133-23.502c-0.002-7.05-0.002-15.275-0.003-24.088
								c0.034-8.813,0.07-18.213,0.106-27.613c0.081-9.4,0.162-18.8,0.238-27.612c0.111-8.812,0.214-17.037,0.303-24.087
								c0.257-14.099,0.428-23.498,0.428-23.498s0.055,9.4,0.135,23.502c0.001,7.05,0.002,15.275,0.002,24.088
								c-0.034,8.813-0.07,18.213-0.107,27.613c-0.08,9.4-0.162,18.8-0.238,27.612c-0.111,8.812-0.215,17.037-0.303,24.087
								C151.255,191.856,151.084,201.256,151.084,201.256z"/>
						</g>
						<g>
							<path fill="#725435" d="M148.508,93.474c0,0,0.02,5.278,0.049,13.196c-0.012,3.959-0.027,8.577-0.043,13.525
								c-0.041,4.948-0.084,10.227-0.127,15.504c-0.074,5.278-0.148,10.556-0.218,15.504c-0.095,4.947-0.183,9.564-0.257,13.522
								c-0.207,7.915-0.344,13.192-0.344,13.192s-0.021-5.278-0.051-13.196c0.014-3.959,0.027-8.577,0.044-13.526
								c0.04-4.947,0.083-10.226,0.127-15.504c0.074-5.277,0.149-10.555,0.219-15.502c0.095-4.948,0.183-9.565,0.257-13.523
								C148.372,98.75,148.508,93.474,148.508,93.474z"/>
						</g>
						<g>
							<path fill="#725435" d="M142.872,19.023c0,0,0.053,3.265,0.049,8.16c-0.013,2.447-0.027,5.303-0.043,8.362
								c-0.041,3.059-0.084,6.321-0.127,9.585c-0.074,3.262-0.148,6.523-0.219,9.582c-0.094,3.059-0.182,5.912-0.257,8.359
								c-0.173,4.892-0.344,8.152-0.344,8.152s-0.054-3.265-0.05-8.16c0.013-2.447,0.027-5.303,0.043-8.362
								c0.041-3.059,0.084-6.321,0.127-9.585c0.074-3.262,0.149-6.523,0.219-9.582c0.095-3.059,0.183-5.912,0.258-8.358
								C142.701,22.284,142.872,19.023,142.872,19.023z"/>
						</g>
						<g>
							<path fill="#1E1108" d="M144.125,200.942c0,0-0.044-0.292-0.126-0.841c-0.07-0.549-0.229-1.348-0.329-2.378
								c-0.05-1.032-0.218-2.293-0.21-3.736c-0.051-1.445-0.027-3.074,0.037-4.851c0.091-1.771,0.189-3.69,0.295-5.721
								c0.113-2.021,0.189-4.172,0.249-6.352c-0.032-2.216-0.066-4.505-0.101-6.831c-0.072-2.322-0.227-4.672-0.338-7.025
								c-0.109-2.361-0.219-4.722-0.328-7.046c-0.135-2.322-0.122-4.624-0.188-6.842c-0.035-2.214-0.069-4.354-0.101-6.383
								c-0.025-2.031-0.049-3.951-0.07-5.725c0.012-0.888-0.064-1.731-0.116-2.535c-0.05-0.805-0.097-1.567-0.142-2.284
								c-0.09-1.436-0.167-2.688-0.23-3.718c-0.115-2.066-0.182-3.247-0.182-3.247s0.137,1.174,0.375,3.229
								c0.113,1.029,0.251,2.28,0.408,3.714c0.133,1.436,0.398,3.055,0.449,4.826c0.074,1.771,0.152,3.689,0.236,5.719
								c0.076,2.031,0.156,4.174,0.239,6.39c0.088,2.21,0.097,4.491,0.255,6.813c0.129,2.322,0.261,4.682,0.393,7.041
								c0.088,2.368,0.222,4.738,0.271,7.066c0.012,2.326,0.023,4.616,0.035,6.832c-0.063,2.249-0.221,4.377-0.391,6.407
								c-0.164,2.022-0.318,3.936-0.46,5.701c-0.103,1.766-0.206,3.384-0.228,4.819c-0.075,1.438,0.033,2.683,0.033,3.717
								c0.059,1.03,0.15,1.84,0.19,2.393C144.099,200.648,144.125,200.942,144.125,200.942z"/>
						</g>
						<g>
							<polygon fill="#1E1108" points="146.192,10.748 145.692,37.226 145.192,10.748 							"/>
						</g>
						<g>
							<path fill="#1E1108" d="M140.545,11.924c0,0,0.023,0.333,0.065,0.915c0.053,0.577,0.021,1.452,0.034,2.472
								c-0.002,1.021-0.037,2.174-0.059,3.43c-0.036,1.249-0.075,2.582-0.114,3.915c-0.21,5.326-0.421,10.653-0.421,10.653
								s-0.039-5.329-0.079-10.658c-0.023-1.332-0.047-2.663-0.069-3.911c-0.037-1.243-0.057-2.421-0.102-3.397
								c-0.059-0.978-0.055-1.771-0.136-2.354c-0.068-0.578-0.107-0.908-0.107-0.908L140.545,11.924z"/>
						</g>
						<g>
							<path fill="#1E1108" d="M145.692,84.696c0,0-0.035-0.426-0.098-1.171c-0.04-0.746-0.138-1.811-0.184-3.088
								c-0.043-1.278-0.127-2.77-0.158-4.366c-0.043-1.598-0.051-3.301-0.061-5.005c0.01-1.703,0.017-3.407,0.059-5.005
								c0.03-1.597,0.115-3.088,0.16-4.366c0.044-1.277,0.143-2.342,0.184-3.088c0.062-0.745,0.098-1.171,0.098-1.171
								s0.035,0.426,0.097,1.171c0.04,0.746,0.14,1.811,0.185,3.088c0.043,1.278,0.129,2.77,0.158,4.366
								c0.043,1.598,0.049,3.302,0.06,5.005c-0.011,1.704-0.019,3.407-0.061,5.005c-0.031,1.597-0.114,3.088-0.159,4.366
								c-0.045,1.277-0.143,2.342-0.184,3.088C145.727,84.271,145.692,84.696,145.692,84.696z"/>
						</g>
						<g>
							<circle fill="#777777" stroke="#545454" stroke-miterlimit="10" cx="146.196" cy="204.043" r="1.241"/>
							<circle fill="#777777" stroke="#545454" stroke-miterlimit="10" cx="146.196" cy="20.527" r="1.241"/>
						</g>
						
							<linearGradient id="SVGID_3_" gradientUnits="userSpaceOnUse" x1="-488.1948" y1="3571.752" x2="-471.8844" y2="3571.752" gradientTransform="matrix(-1 0 0 -1 -336.4775 3683.668)">
							<stop  offset="0" style="stop-color:#1E1108;stop-opacity:0"/>
							<stop  offset="0.8962" style="stop-color:#1E1108"/>
						</linearGradient>
						<path fill="url(#SVGID_3_)" d="M146.528,213.304c2.027,0,3.752-0.228,5.189-0.667c-3.443-1.052-5.189-3.354-5.189-6.896
							V18.199c0-3.592,1.746-5.928,5.189-6.996c-1.438-0.445-3.162-0.676-5.189-0.676c-6.889,0-10.383,2.582-10.383,7.672v187.542
							C136.145,210.759,139.639,213.304,146.528,213.304z"/>
					</g>
					<g>
						<g>
							<path fill="#4F321F" stroke="#2D1B0F" stroke-width="3" stroke-miterlimit="10" d="M91.052,8.69
								c-5.089,0-9.215,1.328-9.215,6.418v193.563c0,5.09,4.125,6.305,9.215,6.305s9.214-1.215,9.214-6.305V15.108
								C100.266,10.019,96.141,8.69,91.052,8.69z"/>
							<path opacity="0.4" fill="#6D522C" d="M91.052,13.702c-3.054,0-5.529,0.798-5.529,3.851v190.295
								c0,3.054,2.476,3.783,5.529,3.783c3.054,0,5.529-0.729,5.529-3.783V17.553C96.581,14.5,94.106,13.702,91.052,13.702z"/>
						</g>
						<g>
							<path fill="#1E1108" d="M96.393,211.824c0,0-0.112-12.383-0.28-30.957c-0.045-9.287-0.097-20.121-0.153-31.73
								c-0.021-11.608-0.043-23.991-0.066-36.373c0.023-12.383,0.045-24.766,0.066-36.375c0.056-11.608,0.107-22.443,0.152-31.73
								c0.168-18.573,0.281-30.956,0.281-30.956s0.113,12.383,0.281,30.956c0.045,9.287,0.097,20.122,0.152,31.73
								c0.021,11.609,0.043,23.992,0.066,36.375c-0.023,12.382-0.046,24.765-0.066,36.373c-0.057,11.609-0.108,22.443-0.153,31.73
								C96.505,199.441,96.393,211.824,96.393,211.824z"/>
						</g>
						<g>
							<path fill="#1E1108" d="M91.537,214.977c0,0-0.173-9.699-0.432-24.248c-0.09-7.274-0.195-15.762-0.308-24.855
								c-0.078-9.094-0.161-18.793-0.245-28.493c-0.038-9.7-0.076-19.399-0.112-28.494c-0.001-9.094-0.002-17.581-0.003-24.856
								c0.078-14.551,0.13-24.252,0.13-24.252S90.74,69.477,91,84.025c0.09,7.274,0.195,15.762,0.308,24.855
								c0.078,9.094,0.161,18.793,0.244,28.493c0.038,9.7,0.076,19.399,0.111,28.494c0.001,9.094,0.002,17.581,0.003,24.856
								C91.588,205.275,91.537,214.977,91.537,214.977z"/>
						</g>
						<g>
							<path fill="#725435" d="M87.241,48.945c0,0,0.172,3.365,0.348,8.413c0.077,2.524,0.167,5.47,0.262,8.625
								c0.072,3.156,0.148,6.522,0.225,9.889c0.045,3.367,0.09,6.733,0.132,9.891c0.018,3.157,0.035,6.103,0.049,8.629
								c0.007,5.052-0.045,8.42-0.045,8.42s-0.173-3.364-0.349-8.413c-0.077-2.524-0.166-5.47-0.262-8.625
								c-0.072-3.156-0.148-6.522-0.224-9.889c-0.045-3.367-0.09-6.734-0.132-9.891c-0.018-3.156-0.034-6.104-0.048-8.629
								C87.189,52.314,87.241,48.945,87.241,48.945z"/>
						</g>
						<g>
							<path fill="#1E1108" d="M86.947,90.696c0,0,0.026-0.304,0.076-0.874c0.042-0.569,0.137-1.404,0.198-2.469
								c0.001-1.066,0.114-2.351,0.037-3.835c-0.02-1.482-0.125-3.152-0.231-4.974c-0.146-1.822-0.304-3.796-0.472-5.884
								c-0.174-2.096-0.336-4.291-0.4-6.611c0.012-2.286,0.024-4.649,0.037-7.05c0.051-2.402,0.189-4.848,0.281-7.291
								c0.135-2.435,0.271-4.869,0.404-7.267c0.162-2.396,0.171-4.749,0.261-7.03c0.085-2.287,0.167-4.497,0.244-6.594
								c0.086-2.094,0.167-4.074,0.241-5.901c0.052-1.828,0.325-3.499,0.461-4.98c0.162-1.479,0.303-2.77,0.418-3.832
								c0.245-2.12,0.384-3.332,0.384-3.332s-0.069,1.218-0.19,3.35c-0.066,1.063-0.147,2.355-0.241,3.837
								c-0.046,0.74-0.096,1.527-0.148,2.357c-0.055,0.829-0.133,1.7-0.122,2.616c-0.023,1.829-0.048,3.811-0.075,5.907
								c-0.034,2.094-0.069,4.302-0.106,6.586c-0.069,2.289-0.057,4.664-0.196,7.061c-0.112,2.397-0.226,4.834-0.339,7.27
								c-0.114,2.43-0.274,4.854-0.348,7.251c-0.035,2.4-0.069,4.763-0.102,7.049c0.061,2.251,0.141,4.47,0.259,6.556
								c0.109,2.095,0.212,4.075,0.307,5.903c0.024,0.916,0.048,1.795,0.07,2.63c0.012,0.836-0.021,1.63-0.028,2.375
								c0.009,1.488-0.164,2.79-0.214,3.855c-0.104,1.062-0.265,1.887-0.338,2.454C86.992,90.395,86.947,90.696,86.947,90.696z"/>
						</g>
						<g>
							<polygon fill="#1E1108" points="87.193,214.089 87.693,186.767 88.193,214.089 							"/>
						</g>
						<g>
							<path fill="#1E1108" d="M97.886,8.93c0,0-0.04,0.341-0.11,0.938c-0.083,0.601-0.078,1.421-0.139,2.43
								c-0.045,1.009-0.064,2.225-0.102,3.507c-0.022,1.288-0.045,2.662-0.068,4.036c-0.037,5.499-0.074,10.998-0.074,10.998
								s-0.213-5.497-0.426-10.993c-0.039-1.376-0.079-2.751-0.115-4.04c-0.021-1.295-0.057-2.486-0.059-3.539
								c0.015-1.051-0.018-1.952,0.037-2.548c0.043-0.601,0.068-0.944,0.068-0.944L97.886,8.93z"/>
						</g>
						<g>
							<path fill="#1E1108" d="M87.726,151.442c0,0-0.035-0.439-0.097-1.209c-0.041-0.769-0.138-1.868-0.184-3.187
								c-0.044-1.318-0.127-2.857-0.159-4.506c-0.042-1.647-0.05-3.406-0.061-5.164c0.01-1.758,0.017-3.517,0.059-5.164
								c0.03-1.648,0.115-3.188,0.159-4.506c0.044-1.318,0.144-2.418,0.184-3.187c0.062-0.77,0.097-1.209,0.097-1.209
								s0.035,0.439,0.097,1.209c0.041,0.769,0.14,1.868,0.184,3.187c0.044,1.318,0.129,2.857,0.159,4.506
								c0.042,1.647,0.049,3.406,0.059,5.164c-0.01,1.758-0.018,3.517-0.061,5.164c-0.031,1.648-0.115,3.188-0.159,4.506
								c-0.045,1.318-0.143,2.418-0.184,3.187C87.761,151.003,87.726,151.442,87.726,151.442z"/>
						</g>
						<g>
							<path fill="#1E1108" d="M92.725,54.968c0,0-0.035-0.439-0.096-1.209c-0.041-0.769-0.138-1.868-0.184-3.187
								c-0.044-1.318-0.127-2.857-0.159-4.506c-0.042-1.647-0.05-3.406-0.061-5.164c0.01-1.758,0.017-3.517,0.059-5.164
								c0.03-1.648,0.115-3.188,0.159-4.506c0.044-1.318,0.144-2.418,0.184-3.187c0.062-0.77,0.097-1.209,0.097-1.209
								s0.036,0.439,0.098,1.209c0.041,0.769,0.14,1.868,0.184,3.187c0.045,1.318,0.13,2.857,0.16,4.506
								c0.042,1.647,0.049,3.406,0.059,5.164c-0.01,1.758-0.018,3.517-0.061,5.164c-0.031,1.648-0.115,3.188-0.158,4.506
								c-0.046,1.318-0.144,2.418-0.184,3.187C92.76,54.528,92.725,54.968,92.725,54.968z"/>
						</g>
						<g>
							<path fill="#1E1108" d="M90.926,45.769c0,0-0.035-0.439-0.097-1.209c-0.041-0.769-0.138-1.868-0.184-3.187
								c-0.044-1.318-0.127-2.857-0.159-4.506c-0.042-1.647-0.05-3.406-0.061-5.164c0.01-1.758,0.017-3.517,0.059-5.165
								c0.03-1.647,0.115-3.187,0.159-4.505c0.044-1.318,0.144-2.418,0.184-3.187c0.062-0.77,0.097-1.209,0.097-1.209
								s0.036,0.439,0.097,1.209c0.041,0.769,0.14,1.868,0.184,3.187c0.044,1.318,0.129,2.857,0.159,4.505
								c0.042,1.648,0.049,3.407,0.059,5.165c-0.01,1.758-0.018,3.517-0.061,5.164c-0.031,1.648-0.115,3.188-0.159,4.506
								c-0.045,1.318-0.143,2.418-0.184,3.187C90.961,45.329,90.926,45.769,90.926,45.769z"/>
						</g>
						<g>
							<path fill="#725435" d="M93.87,156.453c0,0-0.021-1.249-0.055-3.436c-0.023-2.186-0.074-5.308-0.01-9.057
								c0.042-3.749,0.113-8.119,0.221-12.801c0.051-2.34,0.131-4.758,0.155-7.214c0.021-2.456,0.103-4.952,0.075-7.446
								c-0.006-2.493,0.07-4.988,0.002-7.441c-0.064-2.453-0.051-4.871-0.178-7.204c-0.126-2.339-0.225-4.577-0.303-6.746
								c-0.093-2.131,0.001-4.216,0.162-6.077c0.146-1.873,0.352-3.578,0.514-5.091c0.148-1.513,0.275-2.832,0.316-3.921
								c0.077-1.09,0.062-1.947,0.066-2.532c0.002-0.586,0.003-0.898,0.003-0.898s0.018,0.312,0.051,0.896
								c0.027,0.585,0.108,1.444,0.074,2.539c0.011,2.19-0.233,5.318-0.463,9.045c-0.108,1.874-0.146,3.854,0.005,6.01
								c0.141,2.142,0.288,4.4,0.441,6.736c0.147,2.342,0.156,4.767,0.244,7.228c0.09,2.463,0.039,4.963,0.062,7.464
								c0.005,2.502-0.099,4.999-0.143,7.46c-0.046,2.46-0.148,4.878-0.22,7.219c-0.146,4.682-0.402,9.047-0.526,12.789
								c-0.081,1.87-0.155,3.586-0.221,5.105c-0.053,1.521-0.1,2.848-0.137,3.94C93.919,155.205,93.87,156.453,93.87,156.453z"/>
						</g>
						<g>
							<path fill="#725435" d="M92.102,203.168c0,0-0.035-0.508-0.097-1.396c-0.041-0.889-0.138-2.158-0.184-3.682
								c-0.044-1.523-0.127-3.301-0.159-5.205c-0.042-1.904-0.05-3.936-0.061-5.967c0.01-2.031,0.017-4.062,0.059-5.968
								c0.03-1.904,0.115-3.682,0.159-5.205c0.044-1.523,0.144-2.793,0.184-3.682c0.062-0.889,0.097-1.396,0.097-1.396
								s0.036,0.508,0.097,1.396c0.041,0.889,0.14,2.158,0.184,3.682c0.044,1.523,0.129,3.301,0.159,5.205
								c0.042,1.905,0.049,3.937,0.059,5.968c-0.01,2.031-0.018,4.062-0.061,5.967c-0.031,1.904-0.115,3.682-0.159,5.205
								c-0.045,1.523-0.143,2.793-0.184,3.682C92.137,202.66,92.102,203.168,92.102,203.168z"/>
						</g>
						<g>
							<circle fill="#777777" stroke="#545454" stroke-miterlimit="10" cx="90.567" cy="207.797" r="1.24"/>
							<circle fill="#777777" stroke="#545454" stroke-miterlimit="10" cx="90.567" cy="16.773" r="1.24"/>
						</g>
					</g>
					
						<linearGradient id="SVGID_4_" gradientUnits="userSpaceOnUse" x1="-1319.0361" y1="3571.834" x2="-1302.9634" y2="3571.834" gradientTransform="matrix(1 0 0 -1 1404.7256 3683.668)">
						<stop  offset="0" style="stop-color:#1E1108;stop-opacity:0"/>
						<stop  offset="0.8344" style="stop-color:#1E1108"/>
					</linearGradient>
					<path fill="url(#SVGID_4_)" d="M91.047,216.477c-2.093,0-3.874-0.234-5.357-0.688c3.554-1.086,5.357-3.463,5.357-7.117V15.108
						c0-3.707-1.803-6.118-5.357-7.221c1.483-0.46,3.264-0.697,5.357-0.697c7.11,0,10.715,2.664,10.715,7.918v193.563
						C101.762,213.851,98.157,216.477,91.047,216.477z"/>
					<g>
						<g>
							<path fill="#4F321F" stroke="#2D1B0F" stroke-width="3" stroke-miterlimit="10" d="M57.847,208.754
								c-4.784,0-8.662-1.248-8.662-6.032V20.771c0-4.784,3.878-5.926,8.662-5.926c4.784,0,8.662,1.142,8.662,5.926v181.95
								C66.509,207.506,62.63,208.754,57.847,208.754z"/>
							<path opacity="0.4" fill="#6D522C" d="M57.847,204.043c-2.871,0-5.198-0.75-5.198-3.619V21.547
								c0-2.871,2.327-3.557,5.198-3.557s5.197,0.686,5.197,3.557v178.877C63.043,203.293,60.717,204.043,57.847,204.043z"/>
						</g>
						<g>
							<path fill="#1E1108" d="M53.293,23.963c0,0,0.046,0.673,0.134,1.935c0.101,1.26,0.175,3.116,0.451,5.46
								c0.215,2.349,0.587,5.189,1.03,8.444c0.501,3.244,1.073,6.915,1.565,10.934c0.431,4.035,0.834,8.411,1.004,13.052
								c0.212,4.64,0.291,9.537,0.239,14.6c-0.062,5.058-0.127,10.285-0.193,15.596c-0.028,5.31-0.057,10.703-0.085,16.097
								c-0.037,5.396-0.074,10.791-0.111,16.103c-0.063,5.312-0.13,10.54-0.267,15.6c-0.089,5.06-0.342,9.947-0.543,14.582
								c-0.134,2.315-0.265,4.568-0.391,6.747c-0.113,2.176-0.288,4.282-0.269,6.287c0.024,4.027,0.38,7.722,0.691,10.991
								c0.322,3.271,0.602,6.127,0.746,8.486c0.158,2.357,0.159,4.215,0.159,5.479c-0.038,1.265-0.058,1.938-0.058,1.938
								s0.005-0.674,0.014-1.938c-0.029-1.264-0.072-3.118-0.283-5.468c-0.197-2.351-0.541-5.194-0.938-8.459
								c-0.389-3.264-0.833-6.959-0.895-11.027c-0.045-2.044,0.104-4.145,0.188-6.326c0.099-2.178,0.2-4.429,0.305-6.744
								c0.097-2.314,0.142-4.694,0.217-7.126c0.072-2.432,0.155-4.915,0.187-7.442c0.115-5.055,0.161-10.279,0.201-15.588
								c0.015-5.311,0.031-10.705,0.046-16.1c0.051-5.396,0.103-10.793,0.153-16.105c0.088-5.309,0.175-10.533,0.259-15.59
								c0.055-5.054,0.057-9.938-0.099-14.564c-0.111-4.629-0.458-8.993-0.835-13.01c-0.455-4.018-0.938-7.69-1.365-10.956
								c-0.371-3.27-0.679-6.121-0.841-8.479c-0.223-2.353-0.255-4.208-0.328-5.471C53.325,24.637,53.293,23.963,53.293,23.963z"/>
						</g>
						<g>
							<path fill="#1E1108" d="M62.868,17.809c0,0,0.112,11.64,0.28,29.1c0.045,8.729,0.097,18.914,0.153,29.826
								c0.021,10.912,0.043,22.552,0.066,34.191c-0.022,11.64-0.045,23.279-0.066,34.191c-0.056,10.912-0.107,21.097-0.152,29.826
								c-0.168,17.46-0.281,29.1-0.281,29.1s-0.113-11.64-0.281-29.1c-0.045-8.729-0.097-18.914-0.152-29.826
								c-0.021-10.912-0.043-22.552-0.066-34.191c0.023-11.64,0.045-23.279,0.066-34.191c0.056-10.912,0.108-21.097,0.153-29.826
								C62.755,29.448,62.868,17.809,62.868,17.809z"/>
						</g>
						<g>
							<path fill="#1E1108" d="M61.499,50.405c0,0,0.055,9.118,0.138,22.797c0.002,6.839,0.004,14.817,0.007,23.366
								c-0.032,8.548-0.066,17.666-0.101,26.784c-0.079,9.117-0.159,18.235-0.233,26.783c-0.109,8.548-0.211,16.526-0.298,23.364
								c-0.254,13.676-0.424,22.793-0.424,22.793s-0.056-9.119-0.139-22.797c-0.001-6.839-0.004-14.817-0.006-23.365
								c0.033-8.549,0.067-17.667,0.102-26.785c0.08-9.117,0.159-18.235,0.234-26.783c0.109-8.548,0.211-16.525,0.298-23.364
								C61.33,59.522,61.499,50.405,61.499,50.405z"/>
						</g>
						<g>
							<path fill="#725435" d="M58.764,196.749c0,0-0.047-0.954-0.128-2.625c-0.09-1.67-0.197-4.057-0.287-6.921
								c-0.136-2.861-0.294-6.198-0.464-9.774c-0.106-1.774-0.138-3.671-0.029-5.546c0.083-1.882,0.197-3.785,0.189-5.682
								c-0.008-0.947-0.047-1.893-0.146-2.825c-0.05-0.466-0.111-0.929-0.194-1.386c-0.085-0.471-0.137-0.97-0.16-1.442
								c-0.092-1.899-0.027-3.749,0.021-5.543c0.149-3.579,0.288-6.92,0.408-9.783c0.121-2.862,0.175-5.249,0.128-6.919
								c-0.02-0.835-0.074-1.489-0.133-1.933c-0.026-0.222-0.059-0.391-0.085-0.503c-0.024-0.113-0.036-0.172-0.036-0.172
								s0.014,0.059,0.041,0.171c0.03,0.111,0.067,0.279,0.1,0.501c0.071,0.442,0.144,1.098,0.186,1.933
								c0.092,1.671,0.103,4.062,0.059,6.929c-0.064,2.865-0.139,6.207-0.218,9.787c-0.021,1.787-0.057,3.642,0.062,5.498
								c0.032,0.467,0.082,0.906,0.174,1.367c0.099,0.473,0.183,0.948,0.239,1.428c0.111,0.959,0.16,1.924,0.178,2.887
								c0.027,1.924-0.07,3.839-0.133,5.714c-0.076,1.883-0.065,3.69,0.017,5.493c0.113,3.583,0.269,6.927,0.281,9.793
								c0.015,2.865-0.004,5.254-0.034,6.926C58.776,195.793,58.764,196.749,58.764,196.749z"/>
						</g>
						<g>
							<path fill="#725435" d="M59.613,133.835c0,0-0.021-5.12-0.054-12.801c0.011-3.84,0.025-8.319,0.039-13.12
								c0.039-4.799,0.08-9.919,0.121-15.039c0.072-5.119,0.145-10.238,0.213-15.037c0.092-4.799,0.178-9.278,0.252-13.117
								c0.204-7.678,0.339-12.797,0.339-12.797s0.022,5.12,0.055,12.801c-0.012,3.84-0.025,8.32-0.04,13.12
								c-0.039,4.8-0.08,9.919-0.122,15.038c-0.073,5.119-0.146,10.239-0.214,15.038c-0.092,4.8-0.179,9.278-0.252,13.118
								C59.749,128.717,59.613,133.835,59.613,133.835z"/>
						</g>
						<g>
							<path fill="#725435" d="M61.528,148.605c0,0-0.055-3.167-0.054-7.915c0.011-2.374,0.025-5.144,0.039-8.111
								c0.039-2.968,0.08-6.132,0.121-9.298c0.073-3.164,0.146-6.328,0.213-9.295c0.092-2.966,0.179-5.734,0.252-8.107
								c0.17-4.746,0.339-7.908,0.339-7.908s0.056,3.167,0.055,7.915c-0.012,2.374-0.025,5.144-0.04,8.111
								c-0.039,2.968-0.08,6.132-0.121,9.298c-0.073,3.164-0.146,6.328-0.214,9.295c-0.092,2.966-0.179,5.734-0.253,8.107
								C61.697,145.443,61.528,148.605,61.528,148.605z"/>
						</g>
						<g>
							<polygon fill="#1E1108" points="55.716,208.725 55.363,193.305 56.714,208.67 							"/>
						</g>
						<g>
							<polygon fill="#1E1108" points="52.576,208.151 52.553,198.683 53.574,208.097 							"/>
						</g>
						<g>
							<polygon fill="#1E1108" points="59.687,14.932 60.039,30.352 58.688,14.986 							"/>
						</g>
						<g>
							<circle fill="#777777" stroke="#545454" stroke-miterlimit="10" cx="56.433" cy="202.206" r="1.24"/>
							<circle fill="#777777" stroke="#545454" stroke-miterlimit="10" cx="56.433" cy="22.364" r="1.24"/>
						</g>
						
							<linearGradient id="SVGID_5_" gradientUnits="userSpaceOnUse" x1="-1418.6367" y1="3571.7236" x2="-1402.8096" y2="3571.7236" gradientTransform="matrix(1 0 0 -1 1471.5684 3683.668)">
							<stop  offset="0" style="stop-color:#1E1108;stop-opacity:0"/>
							<stop  offset="0.8962" style="stop-color:#1E1108"/>
						</linearGradient>
						<path fill="url(#SVGID_5_)" d="M57.968,210.329c-1.967,0-3.642-0.221-5.037-0.647c3.341-1.021,5.037-3.254,5.037-6.69V21.004
							c0-3.484-1.695-5.752-5.037-6.789c1.395-0.432,3.069-0.655,5.037-0.655c6.685,0,10.074,2.505,10.074,7.444v181.987
							C68.042,207.859,64.653,210.329,57.968,210.329z"/>
					</g>
					<g>
						<g>
							<path fill="#4F321F" stroke="#2D1B0F" stroke-width="3" stroke-miterlimit="10" d="M72.337,11.847
								c-4.932,0-8.93,1.286-8.93,6.219v187.577c0,4.932,3.998,6.109,8.93,6.109c4.932,0,8.93-1.178,8.93-6.109V18.065
								C81.267,13.133,77.269,11.847,72.337,11.847z"/>
							<path opacity="0.4" fill="#6D522C" d="M72.337,16.702c-2.959,0-5.358,0.773-5.358,3.731v184.41
								c0,2.96,2.399,3.666,5.358,3.666s5.357-0.706,5.357-3.666V20.434C77.694,17.476,75.296,16.702,72.337,16.702z"/>
						</g>
						<g>
							<path fill="#1E1108" d="M77.513,208.697c0,0-0.112-12-0.28-29.999c-0.045-9-0.097-19.5-0.153-30.749
								c-0.021-11.25-0.044-23.25-0.066-35.25c0.022-11.999,0.045-23.999,0.066-35.248c0.056-11.25,0.107-21.75,0.152-30.75
								c0.168-17.999,0.281-29.999,0.281-29.999s0.113,12,0.281,29.999c0.045,9,0.097,19.5,0.152,30.75
								c0.021,11.249,0.043,23.249,0.066,35.248c-0.022,12-0.045,24-0.066,35.25c-0.056,11.249-0.108,21.749-0.153,30.749
								C77.625,196.697,77.513,208.697,77.513,208.697z"/>
						</g>
						<g>
							<path fill="#1E1108" d="M68.739,207.797c0,0-0.112-12-0.28-29.999c-0.045-9-0.097-19.5-0.153-30.749
								c-0.021-11.25-0.044-23.25-0.066-35.25C68.262,99.8,68.285,87.8,68.306,76.551c0.056-11.25,0.107-21.75,0.152-30.75
								c0.168-17.999,0.281-29.999,0.281-29.999s0.113,12,0.281,29.999c0.045,9,0.097,19.5,0.152,30.75
								c0.021,11.249,0.043,23.249,0.066,35.248c-0.022,12-0.045,24-0.066,35.25c-0.056,11.249-0.108,21.749-0.153,30.749
								C68.852,195.797,68.739,207.797,68.739,207.797z"/>
						</g>
						<g>
							<path fill="#1E1108" d="M67.449,201.256c0,0-0.171-9.399-0.427-23.498c-0.089-7.05-0.192-15.274-0.303-24.087
								c-0.076-8.812-0.158-18.212-0.239-27.612c-0.037-9.4-0.073-18.8-0.107-27.613c0-8.812,0.001-17.038,0.001-24.088
								c0.081-14.102,0.135-23.502,0.135-23.502s0.171,9.399,0.428,23.498c0.089,7.05,0.192,15.274,0.303,24.087
								c0.076,8.812,0.157,18.212,0.238,27.612c0.036,9.4,0.072,18.8,0.106,27.613c-0.001,8.812-0.001,17.038-0.002,24.088
								C67.502,191.855,67.449,201.256,67.449,201.256z"/>
						</g>
						<g>
							<path fill="#725435" d="M70.025,93.474c0,0,0.137,5.276,0.343,13.192c0.075,3.958,0.163,8.575,0.257,13.523
								c0.07,4.947,0.145,10.225,0.219,15.502c0.043,5.278,0.086,10.557,0.127,15.504c0.016,4.949,0.031,9.567,0.044,13.526
								c-0.03,7.918-0.05,13.196-0.05,13.196s-0.138-5.277-0.344-13.192c-0.075-3.958-0.163-8.575-0.257-13.522
								c-0.07-4.948-0.144-10.226-0.218-15.504c-0.043-5.277-0.086-10.556-0.126-15.504c-0.016-4.948-0.031-9.566-0.043-13.525
								C70.005,98.752,70.025,93.474,70.025,93.474z"/>
						</g>
						<g>
							<path fill="#725435" d="M75.662,19.023c0,0,0.17,3.261,0.343,8.153c0.075,2.446,0.163,5.3,0.257,8.358
								c0.07,3.059,0.145,6.32,0.219,9.582c0.043,3.264,0.086,6.526,0.127,9.585c0.016,3.06,0.031,5.915,0.044,8.362
								c0.003,4.896-0.05,8.16-0.05,8.16s-0.171-3.261-0.344-8.152c-0.075-2.447-0.163-5.301-0.257-8.359
								c-0.07-3.059-0.144-6.32-0.218-9.582c-0.043-3.264-0.086-6.526-0.126-9.585c-0.016-3.06-0.031-5.915-0.043-8.362
								C75.609,22.288,75.662,19.023,75.662,19.023z"/>
						</g>
						<g>
							<path fill="#1E1108" d="M74.409,200.942c0,0,0.025-0.294,0.072-0.847c0.041-0.553,0.132-1.362,0.19-2.393
								c0-1.034,0.108-2.278,0.033-3.717c-0.021-1.436-0.124-3.054-0.227-4.819c-0.142-1.766-0.296-3.679-0.459-5.701
								c-0.17-2.03-0.328-4.158-0.391-6.407c0.011-2.216,0.023-4.506,0.035-6.832c0.05-2.328,0.183-4.698,0.271-7.066
								c0.132-2.359,0.264-4.719,0.393-7.041c0.157-2.322,0.167-4.604,0.254-6.813c0.083-2.216,0.163-4.358,0.239-6.39
								c0.084-2.029,0.163-3.947,0.236-5.719c0.051-1.771,0.317-3.391,0.449-4.826c0.158-1.434,0.295-2.685,0.409-3.714
								c0.239-2.055,0.375-3.229,0.375-3.229s-0.066,1.181-0.182,3.247c-0.063,1.03-0.141,2.282-0.23,3.718
								c-0.044,0.717-0.092,1.479-0.142,2.284c-0.052,0.804-0.128,1.647-0.117,2.535c-0.021,1.773-0.045,3.693-0.07,5.725
								c-0.032,2.029-0.065,4.169-0.101,6.383c-0.066,2.218-0.054,4.52-0.189,6.842c-0.108,2.324-0.218,4.685-0.328,7.046
								c-0.111,2.354-0.266,4.703-0.338,7.025c-0.034,2.326-0.068,4.615-0.101,6.831c0.059,2.18,0.136,4.33,0.25,6.352
								c0.104,2.03,0.204,3.949,0.295,5.721c0.064,1.776,0.087,3.405,0.037,4.851c0.008,1.443-0.161,2.704-0.21,3.736
								c-0.101,1.03-0.258,1.829-0.329,2.378C74.453,200.65,74.409,200.942,74.409,200.942z"/>
						</g>
						<g>
							<polygon fill="#1E1108" points="73.342,10.748 72.842,37.226 72.342,10.748 							"/>
						</g>
						<g>
							<path fill="#1E1108" d="M78.975,12.08c0,0-0.039,0.33-0.107,0.908c-0.081,0.582-0.077,1.376-0.136,2.354
								c-0.044,0.977-0.063,2.154-0.101,3.397c-0.022,1.248-0.046,2.579-0.069,3.911c-0.04,5.329-0.08,10.658-0.08,10.658
								s-0.21-5.327-0.42-10.653c-0.039-1.333-0.078-2.666-0.114-3.915c-0.021-1.256-0.057-2.409-0.059-3.43
								c0.013-1.02-0.019-1.895,0.034-2.472c0.042-0.582,0.065-0.915,0.065-0.915L78.975,12.08z"/>
						</g>
						<g>
							<circle fill="#777777" stroke="#545454" stroke-miterlimit="10" cx="72.327" cy="204.741" r="1.24"/>
							<circle fill="#777777" stroke="#545454" stroke-miterlimit="10" cx="72.327" cy="19.829" r="1.24"/>
						</g>
						<g>
							<path fill="#1E1108" d="M72.842,84.696c0,0-0.035-0.426-0.097-1.171c-0.041-0.746-0.138-1.811-0.184-3.088
								c-0.044-1.278-0.127-2.77-0.159-4.366c-0.042-1.598-0.05-3.301-0.061-5.005c0.01-1.703,0.017-3.407,0.059-5.005
								c0.03-1.597,0.115-3.088,0.159-4.366c0.044-1.277,0.144-2.342,0.184-3.088c0.062-0.745,0.097-1.171,0.097-1.171
								s0.036,0.426,0.097,1.171c0.041,0.746,0.14,1.811,0.184,3.088c0.044,1.278,0.129,2.77,0.159,4.366
								c0.042,1.598,0.049,3.302,0.059,5.005c-0.01,1.704-0.018,3.407-0.061,5.005c-0.031,1.597-0.115,3.088-0.159,4.366
								c-0.045,1.277-0.143,2.342-0.184,3.088C72.877,84.271,72.842,84.696,72.842,84.696z"/>
						</g>
						
							<linearGradient id="SVGID_6_" gradientUnits="userSpaceOnUse" x1="-1375.1265" y1="3571.752" x2="-1358.816" y2="3571.752" gradientTransform="matrix(1 0 0 -1 1442.5039 3683.668)">
							<stop  offset="0" style="stop-color:#1E1108;stop-opacity:0"/>
							<stop  offset="0.8962" style="stop-color:#1E1108"/>
						</linearGradient>
						<path fill="url(#SVGID_6_)" d="M72.568,213.304c-2.028,0-3.753-0.228-5.19-0.667c3.443-1.052,5.19-3.354,5.19-6.896V18.199
							c0-3.592-1.747-5.928-5.19-6.996c1.438-0.445,3.163-0.676,5.19-0.676c6.889,0,10.382,2.582,10.382,7.672v187.542
							C82.95,210.759,79.457,213.304,72.568,213.304z"/>
					</g>
				</g>
				
					<linearGradient id="SVGID_7_" gradientUnits="userSpaceOnUse" x1="-468.6577" y1="3637.8848" x2="-422.2646" y2="3637.8848" gradientTransform="matrix(-1 0 0 -1 -336.4775 3683.668)">
					<stop  offset="0.0512" style="stop-color:#1E1108;stop-opacity:0"/>
					<stop  offset="0.0862" style="stop-color:#1E1108"/>
					<stop  offset="0.8945" style="stop-color:#1E1108"/>
					<stop  offset="0.9484" style="stop-color:#1E1108;stop-opacity:0"/>
				</linearGradient>
				<path opacity="0.5" fill="url(#SVGID_7_)" d="M103.38,65.309c7.071-1.118,13.61-0.932,20.577,0.892
					c2.037,0.532,6.965-3.425,7.561-6.241c0.574-2.725,1.105-23.751,0.088-27.844c-1.479-5.94-4.793-6.939-8.793-6.535
					c-6.16,0.624-12.24,0.581-18.358,1.775c0.159,0.02,0.316,0.029,0.481,0.041c-3.451-1.597-7.141-2.928-10.822-1.417
					c-2.045,0.839-3.543,3.356-5.59,3.85c-0.597,0.144-1.105-0.248-1.677,0.173c-1.081,0.795-1,3.319-1.036,4.521
					c-0.217,7.115,1.165,14.339,2.182,21.328c0.219,10.969,7.198,10.443,13.903,9.038L103.38,65.309z"/>
				<g>
					<g>
						<rect x="95.713" y="33.709" fill="#111111" width="26.559" height="25.312"/>
						<g>
							<path fill="#3A3A3A" d="M96.993,28.484c-2.75,0-5,2.25-5,5v24.462c0,2.75,2.25,5,5,5h24.463c2.75,0,5-2.25,5-5V33.484
								c0-2.75-2.25-5-5-5H96.993z M119.563,51.055c0,2.75-2.25,5-5,5h-10.678c-2.75,0-5-2.25-5-5V40.376c0-2.75,2.25-5,5-5h10.678
								c2.75,0,5,2.25,5,5V51.055z"/>
						</g>
						<g>
							<g>
								<path fill="#383838" stroke="#262626" stroke-miterlimit="10" d="M126.763,51.719c-2.124-0.92-4.198-0.419-6.341-0.34
									c-1.568,0.058-1.697-2.986-1.636-4.92c0.069-2.172,0.251-4.221,2.403-4.662c1.106-0.228,4.268-0.584,5.252,0.104
									c1.286,0.897,0.461,5.563,0.463,6.913L126.763,51.719z"/>
							</g>
							<g>
								<g>
									<path fill="#383838" stroke="#262626" stroke-miterlimit="10" d="M103.25,59.216c-0.898-0.549-1.178-1.69-0.669-2.618
										c0.601-1.098,1.493-0.945,2.597-0.938c2.303,0.016,4.611-0.373,6.883,0.16c0.354,2.114,0.291,3.97-2.329,3.574
										c-1.972-0.299-2.74-0.498-4.771-0.374L103.25,59.216z"/>
								</g>
							</g>
							<g>
								<path fill="#383838" stroke="#262626" stroke-miterlimit="10" d="M98.263,63.063c-0.165-0.11-0.231,0.126-0.302-0.131
									c2.564-2.608,5.787-4.436,9.582-3.777c1.03,0.179,4.227,0.775,4.035,2.231c-0.182,1.39-3.531,1.682-4.562,1.806
									c-2.002,0.244-4.048,0.054-6.046-0.129H98.263z"/>
							</g>
							<path fill="#383838" stroke="#262626" stroke-miterlimit="10" d="M96.268,62.778c-4.521-2.26-6.134-6.301-0.971-8.922
								c1.49-0.757,3.238-1.556,4.849-0.699c1.669,0.888,2.521,3.04,1.823,4.791c-0.803,2.012-1.758,3.978-4.846,4.688
								L96.268,62.778z"/>
							<g>
								<path fill="#383838" stroke="#262626" stroke-miterlimit="10" d="M123.201,62.778c0.017,0.998-4.737,0.168-4.737,0.168
									s-1.003-4.741,1.597-4.741C120.06,58.205,123.485,56.509,123.201,62.778z"/>
							</g>
							<path fill="#383838" stroke="#262626" stroke-miterlimit="10" d="M117.928,62.921c0.855-0.57,1.309-9.57-3.662-7.32
								c-2.033,0.919-4.137,6.596-1.52,7.708C114.303,63.97,117.073,63.491,117.928,62.921z"/>
							<path fill="#383838" stroke="#262626" stroke-miterlimit="10" d="M118.463,57.783c0,0-2.68-2.73,1.1-4.995
								s5.445-1.552,6.893,1.155c1.447,2.708-0.094,8.123-3.242,7.98S118.463,57.783,118.463,57.783z"/>
							<g>
								<path fill="#383838" stroke="#262626" stroke-miterlimit="10" d="M118.273,36.645c0,0,2.768-6.402,0-8.16
									c-2.768-1.759-11.001,0-11.001,0s-1.25,5.994,0,6.892C108.523,36.273,116.983,36.445,118.273,36.645z"/>
							</g>
							<g>
								<path fill="#383838" stroke="#262626" stroke-miterlimit="10" d="M125.141,31.832c2.023,0.776,2.058,3.455,1.949,5.276
									c-0.114,1.91-0.547,3.357-2.443,4.086c-1.66,0.639-4.337,0.821-5.287-1.013c-0.906-1.751-0.433-5.148,0.158-6.424
									C120.11,32.479,123.362,31.148,125.141,31.832z"/>
							</g>
							<g>
								<path fill="#383838" stroke="#262626" stroke-miterlimit="10" d="M93.352,53.447c-2.022-0.778-2.057-3.456-1.948-5.278
									c0.114-1.91,0.547-3.357,2.442-4.086c1.66-0.638,4.338-0.82,5.287,1.014c0.907,1.751,0.434,5.147-0.158,6.425
									C98.384,52.798,95.131,54.131,93.352,53.447z"/>
							</g>
							<g>
								<path fill="#383838" stroke="#262626" stroke-miterlimit="10" d="M91.993,43.636c0,0,5.802,1.09,6.892,0s1.05-4.056,0-6.991
									s-4.896-2.224-6.322-1.226C91.139,36.416,91.993,43.636,91.993,43.636z"/>
							</g>
							<g>
								<path fill="#383838" stroke="#262626" stroke-miterlimit="10" d="M96.411,34.762c-1.451,0.327-3.623,0.539-4.331-1.217
									c-0.625-1.548,0.644-3.576,1.811-4.487c2.44-1.906,7.769-1.43,7.206,2.638c-0.252,1.834-1.725,2.69-3.403,3.011
									L96.411,34.762z"/>
							</g>
							<path fill="#383838" stroke="#262626" stroke-miterlimit="10" d="M101.138,34.379c0.269,0.041,1.897,1.133,0,2.266
								c-1.898,1.132-2.253-1.269-2.253-1.269S99.026,34.052,101.138,34.379z"/>
							<path fill="#383838" stroke="#262626" stroke-miterlimit="10" d="M119.503,28.484c0.704,0,5.134-0.318,5.835,1.804
								c0.701,2.123-3.689,3.712-5.835,1.357S119.503,28.484,119.503,28.484z"/>
							<path fill="#383838" stroke="#262626" stroke-miterlimit="10" d="M101.138,28.484c0.064-0.972,5.573-1.332,5.579,1.52
								c0.005,2.851,0.736,5.372-2.79,5.372S100.735,34.517,101.138,28.484z"/>
						</g>
					</g>
					<g>
						<rect x="97.945" y="33.894" fill="#111111" width="23.298" height="22.203"/>
						<g>
							<path fill="#3A3A3A" d="M119.506,60.68c2.75,0,5-2.25,5-5v-20.23c0-2.75-2.25-5-5-5h-20.23c-2.75,0-5,2.25-5,5v20.23
								c0,2.75,2.25,5,5,5H119.506z M100.321,41.495c0-2.75,2.25-5,5-5h8.139c2.75,0,5,2.25,5,5v8.139c0,2.75-2.25,5-5,5h-8.139
								c-2.75,0-5-2.25-5-5V41.495z"/>
						</g>
						<g>
							<g>
								
									<linearGradient id="SVGID_8_" gradientUnits="userSpaceOnUse" x1="-449.3579" y1="3619.0928" x2="-441.0252" y2="3629.5918" gradientTransform="matrix(-1 0 0 -1 -336.4775 3683.668)">
									<stop  offset="0" style="stop-color:#9AA0AF"/>
									<stop  offset="1" style="stop-color:#878787"/>
								</linearGradient>
								<path fill="url(#SVGID_8_)" stroke="#5B5B5B" stroke-miterlimit="10" d="M94.006,40.298
									c1.863,0.808,3.682,0.368,5.562,0.299c1.376-0.051,1.489,2.619,1.435,4.315c-0.061,1.905-0.22,3.702-2.107,4.09
									c-0.971,0.199-3.744,0.512-4.607-0.091c-1.129-0.787-0.404-4.881-0.406-6.064L94.006,40.298z"/>
								<path opacity="0.5" fill="#3D3D3D" d="M98.735,41.905c1.504,1.016,2.346,3.732,1.043,5.204
									c-0.691,0.78-1.76,0.828-2.719,0.984c-1.143,0.186-2.147,0.595-3.164,1.121c0.037,0.033,0.065,0.078,0.106,0.106
									c0.425,0.297,1.144,0.441,2.197,0.441c1.015,0,2.161-0.141,2.797-0.271c2.376-0.488,2.452-2.844,2.507-4.563
									c0.073-2.274-0.211-3.71-0.868-4.389c-0.28-0.29-0.634-0.443-1.08-0.443c-0.001,0-0.003,0-0.005,0
									c-0.441,0.017-0.879,0.053-1.316,0.089c-0.572,0.048-1.115,0.093-1.66,0.093c-0.924,0-1.677-0.14-2.368-0.439l-0.589-0.255
									C93.074,41.269,97.783,41.263,98.735,41.905z"/>
							</g>
							<g>
								<g>
									
										<linearGradient id="SVGID_9_" gradientUnits="userSpaceOnUse" x1="-462.4019" y1="3629.4443" x2="-454.0695" y2="3639.9429" gradientTransform="matrix(-1 0 0 -1 -336.4775 3683.668)">
										<stop  offset="0" style="stop-color:#9AA0AF"/>
										<stop  offset="1" style="stop-color:#878787"/>
									</linearGradient>
									<path fill="url(#SVGID_9_)" stroke="#5B5B5B" stroke-miterlimit="10" d="M114.631,33.722
										c0.787,0.481,1.033,1.483,0.586,2.297c-0.526,0.963-1.309,0.829-2.277,0.822c-2.021-0.014-4.045,0.327-6.037-0.141
										c-0.311-1.854-0.256-3.482,2.043-3.135c1.729,0.262,2.403,0.437,4.186,0.328L114.631,33.722z"/>
								</g>
								<path opacity="0.5" fill="#3D3D3D" d="M106.41,36.783l0.044,0.259c0.24-0.768,0.473-1.646,1.249-2.018
									c1.361-0.652,2.929-0.476,4.331-0.205c0.613,0.117,1.705-0.154,2.229,0.149c0.566,0.329,0.558,1.319,0.462,2.188
									c0.351-0.154,0.673-0.425,0.933-0.898c0.574-1.049,0.238-2.351-0.766-2.964l-0.146-0.09l-1.645,0.189
									c-1.457,0.088-2.138-0.018-3.369-0.213l-0.711-0.11c-0.238-0.036-0.455-0.053-0.652-0.053c-0.704,0-1.244,0.216-1.604,0.642
									C106.118,34.423,106.223,35.667,106.41,36.783z"/>
							</g>
							<g>
								
									<linearGradient id="SVGID_10_" gradientUnits="userSpaceOnUse" x1="-465.8076" y1="3632.1475" x2="-457.4753" y2="3642.646" gradientTransform="matrix(-1 0 0 -1 -336.4775 3683.668)">
									<stop  offset="0" style="stop-color:#9AA0AF"/>
									<stop  offset="1" style="stop-color:#878787"/>
								</linearGradient>
								<path fill="url(#SVGID_10_)" stroke="#5B5B5B" stroke-miterlimit="10" d="M119.006,30.347
									c0.144,0.097,0.202-0.11,0.265,0.115c-2.249,2.288-5.077,3.891-8.406,3.313c-0.903-0.157-3.706-0.681-3.54-1.958
									c0.16-1.219,3.098-1.475,4.002-1.584c1.756-0.214,3.551-0.047,5.305,0.113H119.006z"/>
								<path opacity="0.5" fill="#3D3D3D" d="M107.924,33.413c0.963-0.816,1.088-2.067,0.631-3.18
									c-0.881,0.287-1.625,0.749-1.726,1.52C106.731,32.505,107.235,33.035,107.924,33.413z"/>
								<path opacity="0.5" fill="#3D3D3D" d="M119.627,30.812l0.203-0.206l-0.078-0.278c-0.122-0.442-0.458-0.477-0.559-0.477
									l-1.084-0.003c-1.387,1.128-2.869,2.556-3.086,4.043C116.608,33.333,118.151,32.313,119.627,30.812z"/>
							</g>
							
								<linearGradient id="SVGID_11_" gradientUnits="userSpaceOnUse" x1="-468.5532" y1="3632.9199" x2="-459.6053" y2="3644.1941" gradientTransform="matrix(-1 0 0 -1 -336.4775 3683.668)">
								<stop  offset="0" style="stop-color:#9AA0AF"/>
								<stop  offset="1" style="stop-color:#878787"/>
							</linearGradient>
							<path fill="url(#SVGID_11_)" stroke="#5B5B5B" stroke-miterlimit="10" d="M120.756,30.597
								c3.966,1.982,5.381,5.527,0.852,7.826c-1.308,0.664-2.841,1.365-4.254,0.613c-1.464-0.778-2.211-2.666-1.599-4.202
								c0.704-1.765,1.542-3.489,4.251-4.112L120.756,30.597z"/>
							<g>
								
									<linearGradient id="SVGID_12_" gradientUnits="userSpaceOnUse" x1="-456.8848" y1="3625.0693" x2="-448.5528" y2="3635.5674" gradientTransform="matrix(-1 0 0 -1 -336.4775 3683.668)">
									<stop  offset="0" style="stop-color:#9AA0AF"/>
									<stop  offset="1" style="stop-color:#878787"/>
								</linearGradient>
								<path fill="url(#SVGID_12_)" stroke="#5B5B5B" stroke-miterlimit="10" d="M97.131,30.597
									c-0.016-0.875,4.154-0.147,4.154-0.147s0.881,4.159-1.4,4.159C99.885,34.608,96.881,36.097,97.131,30.597z"/>
								<path opacity="0.5" fill="#3D3D3D" d="M99.045,35.292c0.423,0,0.775-0.116,0.95-0.187c0.548-0.026,1.009-0.254,1.339-0.661
									c0.23-0.283,0.373-0.64,0.469-1.018c-1.039-1.631-2.166-2.762-4.092-3.412c-0.234-0.079-0.456-0.097-0.671-0.09
									c-0.069,0.041-0.138,0.084-0.189,0.137c-0.146,0.147-0.224,0.341-0.22,0.513c-0.091,2,0.215,3.338,0.934,4.09
									C97.958,35.075,98.469,35.292,99.045,35.292z"/>
							</g>
							
								<linearGradient id="SVGID_13_" gradientUnits="userSpaceOnUse" x1="-459.3706" y1="3627.041" x2="-451.0383" y2="3637.5396" gradientTransform="matrix(-1 0 0 -1 -336.4775 3683.668)">
								<stop  offset="0" style="stop-color:#9AA0AF"/>
								<stop  offset="1" style="stop-color:#878787"/>
							</linearGradient>
							<path fill="url(#SVGID_13_)" stroke="#5B5B5B" stroke-miterlimit="10" d="M101.756,30.472c-0.75,0.5-1.148,8.396,3.212,6.422
								c1.783-0.807,3.629-5.786,1.332-6.762C104.936,29.552,102.506,29.972,101.756,30.472z"/>
							
								<linearGradient id="SVGID_14_" gradientUnits="userSpaceOnUse" x1="-453.7441" y1="3622.5742" x2="-445.4115" y2="3633.073" gradientTransform="matrix(-1 0 0 -1 -336.4775 3683.668)">
								<stop  offset="0" style="stop-color:#9AA0AF"/>
								<stop  offset="1" style="stop-color:#878787"/>
							</linearGradient>
							<path fill="url(#SVGID_14_)" stroke="#5B5B5B" stroke-miterlimit="10" d="M101.286,34.979c0,0,2.352,2.396-0.965,4.382
								c-3.314,1.986-4.775,1.361-6.045-1.014s0.082-7.125,2.844-7S101.286,34.979,101.286,34.979z"/>
							<g>
								
									<linearGradient id="SVGID_15_" gradientUnits="userSpaceOnUse" x1="-448.644" y1="3618.5225" x2="-440.3112" y2="3629.0215" gradientTransform="matrix(-1 0 0 -1 -336.4775 3683.668)">
									<stop  offset="0" style="stop-color:#9AA0AF"/>
									<stop  offset="1" style="stop-color:#878787"/>
								</linearGradient>
								<path fill="url(#SVGID_15_)" stroke="#5B5B5B" stroke-miterlimit="10" d="M101.454,53.521c0,0-2.428,5.616,0,7.158
									s9.649,0,9.649,0s1.097-5.259,0-6.046S102.584,53.696,101.454,53.521z"/>
								<path opacity="0.5" fill="#3D3D3D" d="M101.185,61.102c0.19,0.121,0.413,0.226,0.661,0.318l0.493-0.74
									c0.286-1.529-0.977-3.091-0.886-4.583c0.105-1.748,2.92-1.583,4.264-1.938c0.721-0.189,1.127-0.458,1.287-0.754
									c-1.029-0.084-2.165-0.157-3.373-0.228c-0.971-0.057-1.809-0.105-2.102-0.15l-0.383-0.059l-0.152,0.354
									C100.888,53.568,98.428,59.352,101.185,61.102z"/>
							</g>
							<g>
								
									<linearGradient id="SVGID_16_" gradientUnits="userSpaceOnUse" x1="-445.2095" y1="3615.7959" x2="-436.876" y2="3626.2959" gradientTransform="matrix(-1 0 0 -1 -336.4775 3683.668)">
									<stop  offset="0" style="stop-color:#9AA0AF"/>
									<stop  offset="1" style="stop-color:#878787"/>
								</linearGradient>
								<path fill="url(#SVGID_16_)" stroke="#5B5B5B" stroke-miterlimit="10" d="M95.428,57.743
									c-1.774-0.682-1.805-3.031-1.709-4.629c0.1-1.676,0.479-2.945,2.143-3.584c1.456-0.561,3.805-0.721,4.638,0.889
									c0.795,1.535,0.38,4.516-0.139,5.635C99.842,57.175,96.989,58.343,95.428,57.743z"/>
								<path opacity="0.5" fill="#3D3D3D" d="M95.249,58.21c0.339,0.13,0.732,0.196,1.171,0.196c1.75,0,3.886-1.041,4.396-2.143
									c0.524-1.133,1.046-4.304,0.129-6.074c-0.092-0.177-0.221-0.321-0.346-0.47c-0.537,0.446-0.377,2.372-0.375,2.871
									c0.01,1.748-0.424,2.863-2.156,3.209c-1.635,0.325-2.822,0.361-4.019,1.514C94.342,57.692,94.729,58.011,95.249,58.21z"/>
							</g>
							<g>
								
									<linearGradient id="SVGID_17_" gradientUnits="userSpaceOnUse" x1="-465.0898" y1="3631.5742" x2="-456.7563" y2="3642.0742" gradientTransform="matrix(-1 0 0 -1 -336.4775 3683.668)">
									<stop  offset="0" style="stop-color:#9AA0AF"/>
									<stop  offset="1" style="stop-color:#878787"/>
								</linearGradient>
								<path fill="url(#SVGID_17_)" stroke="#5B5B5B" stroke-miterlimit="10" d="M123.313,38.782
									c1.774,0.683,1.805,3.031,1.709,4.63c-0.1,1.676-0.479,2.945-2.143,3.584c-1.455,0.56-3.805,0.72-4.637-0.889
									c-0.796-1.536-0.381-4.516,0.139-5.636C118.899,39.352,121.752,38.183,123.313,38.782z"/>
								<path opacity="0.5" fill="#3D3D3D" d="M117.798,46.337c0.518,1.001,1.583,1.552,3.001,1.552c0.743,0,1.545-0.151,2.26-0.426
									c0.879-0.337,1.43-0.845,1.793-1.44c-0.798-0.32-2.23-0.161-2.805-0.219c-3.146-0.312-3.582-2.779-4.188-5.36
									C117.36,41.692,116.922,44.645,117.798,46.337z"/>
							</g>
							<g>
								
									<linearGradient id="SVGID_18_" gradientUnits="userSpaceOnUse" x1="-461.4521" y1="3628.6875" x2="-453.1187" y2="3639.1875" gradientTransform="matrix(-1 0 0 -1 -336.4775 3683.668)">
									<stop  offset="0" style="stop-color:#9AA0AF"/>
									<stop  offset="1" style="stop-color:#878787"/>
								</linearGradient>
								<path fill="url(#SVGID_18_)" stroke="#5B5B5B" stroke-miterlimit="10" d="M124.506,47.389c0,0-5.09-0.956-6.047,0
									c-0.955,0.956-0.92,3.558,0,6.133c0.922,2.575,4.296,1.95,5.546,1.075S124.506,47.389,124.506,47.389z"/>
								<path opacity="0.5" fill="#3D3D3D" d="M117.989,53.689c0.5,1.398,1.688,2.169,3.346,2.169c1.057,0,2.219-0.334,2.957-0.853
									c0.141-0.099,0.258-0.249,0.362-0.426c-0.542-0.313-1.107-0.578-1.735-0.685c-0.719-0.123-1.438,0.012-2.158-0.059
									c-1.305-0.128-2.073-1.139-2.322-2.372c-0.133-0.662-0.932-3.261-0.967-3.249C117.077,49.575,117.243,51.603,117.989,53.689
									z"/>
							</g>
							<g>
								
									<linearGradient id="SVGID_19_" gradientUnits="userSpaceOnUse" x1="-457.3521" y1="3625.4316" x2="-449.0185" y2="3635.9316" gradientTransform="matrix(-1 0 0 -1 -336.4775 3683.668)">
									<stop  offset="0" style="stop-color:#9AA0AF"/>
									<stop  offset="1" style="stop-color:#878787"/>
								</linearGradient>
								<path fill="url(#SVGID_19_)" stroke="#5B5B5B" stroke-miterlimit="10" d="M120.631,55.173
									c1.271-0.287,3.178-0.473,3.799,1.067c0.548,1.357-0.564,3.137-1.588,3.937c-2.141,1.672-6.815,1.254-6.322-2.314
									c0.223-1.608,1.514-2.359,2.986-2.641L120.631,55.173z"/>
								<path opacity="0.5" fill="#3D3D3D" d="M116.025,57.794c-0.142,1.027,0.093,1.925,0.678,2.598
									c0.388,0.445,0.939,0.768,1.576,0.975c-0.202-1.027-0.672-1.952-0.872-2.961c-0.214-1.073,0.617-1.503,0.896-2.404
									c0.174-0.556-0.168-0.682-0.608-0.654C116.749,55.894,116.174,56.716,116.025,57.794z"/>
							</g>
							
								<linearGradient id="SVGID_20_" gradientUnits="userSpaceOnUse" x1="-456.8462" y1="3625.0312" x2="-448.5127" y2="3635.5312" gradientTransform="matrix(-1 0 0 -1 -336.4775 3683.668)">
								<stop  offset="0" style="stop-color:#9AA0AF"/>
								<stop  offset="1" style="stop-color:#878787"/>
							</linearGradient>
							<path fill="url(#SVGID_20_)" stroke="#5B5B5B" stroke-miterlimit="10" d="M116.484,55.509c-0.235-0.036-1.665-0.994,0-1.987
								s1.976,1.112,1.976,1.112S118.336,55.796,116.484,55.509z"/>
							
								<linearGradient id="SVGID_21_" gradientUnits="userSpaceOnUse" x1="-443.042" y1="3614.0801" x2="-434.71" y2="3624.5781" gradientTransform="matrix(-1 0 0 -1 -336.4775 3683.668)">
								<stop  offset="0" style="stop-color:#9AA0AF"/>
								<stop  offset="1" style="stop-color:#878787"/>
							</linearGradient>
							<path fill="url(#SVGID_21_)" stroke="#5B5B5B" stroke-miterlimit="10" d="M100.374,60.68c-0.617,0-4.502,0.279-5.117-1.583
								s3.236-3.256,5.117-1.19C102.256,59.972,100.374,60.68,100.374,60.68z"/>
							
								<linearGradient id="SVGID_22_" gradientUnits="userSpaceOnUse" x1="-453.4321" y1="3622.3203" x2="-445.0975" y2="3632.8218" gradientTransform="matrix(-1 0 0 -1 -336.4775 3683.668)">
								<stop  offset="0" style="stop-color:#9AA0AF"/>
								<stop  offset="1" style="stop-color:#878787"/>
							</linearGradient>
							<path fill="url(#SVGID_22_)" stroke="#5B5B5B" stroke-miterlimit="10" d="M116.484,60.68
								c-0.057,0.852-4.889,1.168-4.894-1.333s-0.646-4.713,2.447-4.713S116.836,55.388,116.484,60.68z"/>
							<g opacity="0.3">
								<path fill="#D3D3D3" d="M121.071,56.286c-0.425,0.423-0.667,0.664-1.135,0.891c-0.736,0.355-0.926,1.389-0.538,2.052
									c0.437,0.746,1.316,0.894,2.052,0.538c0.669-0.322,1.221-0.84,1.742-1.359c0.578-0.577,0.577-1.544,0-2.121
									C122.614,55.708,121.649,55.709,121.071,56.286L121.071,56.286z"/>
								<path fill="#D3D3D3" d="M121.694,50.222c-0.023,0.212-0.835,2.474-0.024,2.696c0.765,0.21,1.659-0.251,1.845-1.048
									c0.144-0.609,0.111-1.221,0.18-1.836c0.09-0.814-0.751-1.5-1.5-1.5C119.819,48.659,121.694,50.222,121.694,50.222z"/>
								<path fill="#D3D3D3" d="M121.694,41.597c-0.105,0.795-0.702,1.018-0.75,1.812c-0.051,0.816,0.719,1.5,1.5,1.5
									c0.854,0,1.45-0.684,1.5-1.5c0.048-0.795-0.855-1.08-0.75-1.875c0.107-0.812-0.076-2-0.812-2c-0.899,0-1.393,0.689-1.5,1.5
									L121.694,41.597z"/>
								<path fill="#D3D3D3" d="M113.543,31.271c-0.797-0.022-1.578,0.101-2.373,0.105c-0.816,0.004-1.488,0.378-1.478,0.733
									c0.013,0.391,0.705,0.639,1.522,0.636c0.795-0.005,1.576-0.129,2.372-0.105c0.813,0.021,1.489-0.398,1.478-0.735
									C115.051,31.495,114.354,31.293,113.543,31.271L113.543,31.271z"/>
								<path fill="#D3D3D3" d="M111.241,35.033c-0.47-0.014-0.932,0.059-1.4,0.062c-0.482,0.003-0.879,0.224-0.873,0.433
									c0.008,0.23,0.417,0.377,0.899,0.376c0.47-0.003,0.931-0.076,1.401-0.062c0.48,0.013,0.879-0.235,0.871-0.435
									C112.131,35.164,111.72,35.045,111.241,35.033L111.241,35.033z"/>
								<path fill="#D3D3D3" d="M118.633,37.532c0.621,0.622,1.487,0.516,2.121,0c-0.365,0.297,0.187-0.084,0.301-0.147
									c0.316-0.175,0.596-0.364,0.882-0.587c0.562-0.439,0.942-1.165,0.882-1.889c-0.068-0.814-0.631-1.5-1.5-1.5
									c-0.676,0-0.779,2.795-0.81,2.812c-0.393,0.229-1.521-1.101-1.876-0.811C117.998,35.928,118.099,36.999,118.633,37.532z"/>
								<path fill="#D3D3D3" d="M105.372,59.183c0.207,0.75,1.072,1.315,1.846,1.048c0.09-0.03,0.18-0.049,0.271-0.069
									c0.074-0.01,0.172-0.023,0.212-0.027c0.362-0.03,0.731-0.064,1.085-0.159c0.888-0.24,1.601-0.999,1.729-1.917
									c0.113-0.809-0.184-1.607-1.047-1.845c-0.673-0.185-0.648,1.634-3.048,1.125C105.647,57.604,105.145,58.356,105.372,59.183z
									"/>
								<path fill="#D3D3D3" d="M96.872,54.12c0.111,0.812,1.138,1.242,1.846,1.048c0.791-0.218,1.086-0.905,1.049-1.64
									c0.007,0.09,0.026,0.064,0.061-0.096c0.233-0.783-0.271-1.631-1.047-1.845c-0.801-0.22-0.385,0.598-0.617,1.381
									C98.01,53.481,96.801,53.598,96.872,54.12z"/>
								<path fill="#D3D3D3" d="M98.131,47.034c0.832,0,1.479-0.683,1.5-1.5c0.009-0.376,0.053-0.749,0.062-1.125
									c0.02-0.817-0.698-1.5-1.5-1.5c-0.834,0-0.427,0.946-0.447,1.764c-0.009,0.376-1.106,0.485-1.115,0.861
									C96.611,46.352,97.329,47.034,98.131,47.034z"/>
								<path fill="#D3D3D3" d="M96.321,38.782c0.618,0.619,1.49,0.521,2.121,0c-0.303,0.25,0.188-0.088,0.283-0.138
									c0.224-0.116,0.451-0.221,0.672-0.342c0.518-0.284,1.019-0.723,1.279-1.262c0.355-0.735,0.207-1.615-0.539-2.052
									c-0.662-0.389-0.717,1.979-1.766,1.607c-1.051-0.371-1.66-0.259-2.051,0.064C95.689,37.183,95.784,38.245,96.321,38.782z"/>
								<path fill="#D3D3D3" d="M104.569,35.284c0.895,0,1.396-0.689,1.5-1.5c0.053-0.416,0.072-0.834,0.125-1.25
									c0.103-0.813-0.761-1.5-1.5-1.5c-0.896,0-1.398,0.689-1.5,1.5c-0.053,0.416-0.072,0.834-0.125,1.25
									C102.965,34.598,103.829,35.284,104.569,35.284z"/>
								<path fill="#D3D3D3" d="M113.373,58.103c-0.017,0.146-0.021,0.29-0.025,0.437c-0.001,0.076-0.005,0.152-0.01,0.229
									c0.017-0.089,0.013-0.073-0.015,0.049c-0.127,0.546,0.164,1.114,0.721,1.268c0.525,0.145,1.141-0.173,1.268-0.72
									c0.099-0.419,0.076-0.84,0.123-1.262c0.062-0.561-0.516-1.031-1.031-1.031C113.794,57.071,113.434,57.544,113.373,58.103
									L113.373,58.103z"/>
							</g>
						</g>
					</g>
				</g>
			</g>
			<circle fill="#777777" stroke="#545454" stroke-miterlimit="10" cx="110.153" cy="210.33" r="1.24"/>
			<circle fill="#777777" stroke="#545454" stroke-miterlimit="10" cx="110.153" cy="14.24" r="1.24"/>
		</g>
	</g>
	<g>
		<path opacity="0.2" fill="#183049" d="M3.719,32.001L1.106,82.03l5.861,0.266l0.321-7.077c0.625,0.309,1.319,0.477,2.029,0.477
			c2.552,0,4.629-2.076,4.629-4.628c0-2.553-2.077-4.629-4.629-4.629c-0.567,0-1.125,0.107-1.646,0.31l1.311-28.913
			c0.737,0.488,1.614,0.767,2.537,0.767c2.552,0,4.629-2.076,4.629-4.628c0-0.691-0.156-1.363-0.445-1.973h10.116
			c-0.289,0.609-0.445,1.281-0.445,1.973c0,2.552,2.076,4.628,4.628,4.628s4.629-2.076,4.629-4.628c0-0.691-0.156-1.363-0.445-1.973
			h3.575v-5.909L9.479,26.906l0.267-5.877l-5.44-0.248l-0.328,6.283L0,27.179v4.822H3.719z"/>
		<g>
			<g>
				<g>
					<circle fill="#3A2413" cx="30.003" cy="33.974" r="3.187"/>
					<path fill="#1E1108" d="M30.002,30.345c2.001,0,3.629,1.628,3.629,3.629c0,2-1.628,3.628-3.629,3.628
						c-2,0-3.628-1.628-3.628-3.628C26.374,31.973,28.002,30.345,30.002,30.345z M30.002,36.718c1.514,0,2.745-1.231,2.745-2.744
						c0-1.514-1.231-2.745-2.745-2.745c-1.513,0-2.745,1.231-2.745,2.745C27.258,35.486,28.489,36.718,30.002,36.718z"/>
				</g>
				<g>
					<circle fill="#7A5034" cx="30.003" cy="33.974" r="2.203"/>
					<path fill="#1E1108" d="M30.002,31.55c1.336,0,2.424,1.087,2.424,2.424c0,1.336-1.087,2.423-2.424,2.423
						c-1.336,0-2.423-1.087-2.423-2.423C27.579,32.637,28.667,31.55,30.002,31.55z M30.002,35.955c1.093,0,1.982-0.89,1.982-1.981
						c0-1.093-0.889-1.982-1.982-1.982c-1.092,0-1.981,0.89-1.981,1.982C28.021,35.065,28.91,35.955,30.002,35.955z"/>
				</g>
			</g>
			<g>
				<g>
					<circle fill="#3A2413" cx="11.52" cy="33.974" r="3.187"/>
					<path fill="#1E1108" d="M11.52,30.345c2.001,0,3.629,1.628,3.629,3.629c0,2-1.628,3.628-3.629,3.628
						c-2,0-3.628-1.628-3.628-3.628C7.891,31.973,9.519,30.345,11.52,30.345z M11.52,36.718c1.514,0,2.745-1.231,2.745-2.744
						c0-1.514-1.231-2.745-2.745-2.745c-1.513,0-2.745,1.231-2.745,2.745C8.775,35.486,10.006,36.718,11.52,36.718z"/>
				</g>
				<g>
					<circle fill="#7A5034" cx="11.52" cy="33.974" r="2.203"/>
					<path fill="#1E1108" d="M11.52,31.55c1.336,0,2.424,1.087,2.424,2.424c0,1.336-1.087,2.423-2.424,2.423
						c-1.336,0-2.423-1.087-2.423-2.423C9.096,32.637,10.184,31.55,11.52,31.55z M11.52,35.955c1.093,0,1.982-0.89,1.982-1.981
						c0-1.093-0.889-1.982-1.982-1.982c-1.092,0-1.981,0.89-1.981,1.982C9.538,35.065,10.427,35.955,11.52,35.955z"/>
				</g>
			</g>
			<g>
				<g>
					<circle fill="#3A2413" cx="9.318" cy="71.067" r="3.187"/>
					<path fill="#1E1108" d="M9.317,67.438c2.001,0,3.629,1.628,3.629,3.629c0,2-1.628,3.628-3.629,3.628
						c-2,0-3.628-1.628-3.628-3.628C5.689,69.066,7.317,67.438,9.317,67.438z M9.317,73.812c1.514,0,2.745-1.231,2.745-2.744
						c0-1.514-1.231-2.745-2.745-2.745c-1.513,0-2.745,1.231-2.745,2.745C6.573,72.58,7.804,73.812,9.317,73.812z"/>
				</g>
				<g>
					<circle fill="#7A5034" cx="9.318" cy="71.067" r="2.203"/>
					<path fill="#1E1108" d="M9.317,68.644c1.336,0,2.424,1.087,2.424,2.424c0,1.336-1.087,2.423-2.424,2.423
						c-1.336,0-2.423-1.087-2.423-2.423C6.894,69.73,7.981,68.644,9.317,68.644z M9.317,73.049c1.093,0,1.982-0.89,1.982-1.981
						c0-1.093-0.889-1.982-1.982-1.982c-1.092,0-1.981,0.89-1.981,1.982C7.336,72.159,8.225,73.049,9.317,73.049z"/>
				</g>
			</g>
			<polygon fill="#3A2413" stroke="#1E1108" stroke-miterlimit="10" points="1.5,28.636 36.261,27.636 36.261,30.501 1.5,30.501 			
				"/>
			<polygon fill="#3A2413" stroke="#1E1108" stroke-miterlimit="10" points="5.725,22.348 8.179,22.459 5.536,80.729 2.683,80.601 
							"/>
		</g>
	</g>
	<g>
		<path opacity="0.2" fill="#183049" d="M4.006,202.499l-0.101,2.367l5.861,0.266l0.099-2.801l29.805-0.858v-4.822h-5.382
			c0.224-0.545,0.343-1.132,0.343-1.729c0-2.552-2.077-4.628-4.629-4.628s-4.628,2.076-4.628,4.628c0,0.598,0.119,1.185,0.343,1.729
			h-9.912c0.224-0.545,0.343-1.132,0.343-1.729c0-2.552-2.077-4.628-4.629-4.628c-0.423,0-0.837,0.058-1.236,0.171l1.011-28.695
			c0.715,0.44,1.551,0.688,2.428,0.688c2.552,0,4.629-2.076,4.629-4.629c0-2.552-2.077-4.628-4.629-4.628
			c-0.764,0-1.496,0.188-2.145,0.53l0.237-6.739l-5.439-0.246L4.254,196.65H1.909v5.909L4.006,202.499z"/>
		<g>
			<g>
				<g>
					<circle fill="#3A2413" cx="30.003" cy="194.921" r="3.187"/>
					<path fill="#1E1108" d="M26.374,194.921c0-2,1.628-3.628,3.628-3.628c2.001,0,3.629,1.628,3.629,3.628
						c0,2.001-1.628,3.629-3.629,3.629C28.002,198.55,26.374,196.922,26.374,194.921z M27.258,194.921
						c0,1.514,1.231,2.745,2.745,2.745c1.514,0,2.745-1.231,2.745-2.745c0-1.513-1.231-2.744-2.745-2.744
						C28.489,192.177,27.258,193.408,27.258,194.921z"/>
				</g>
				<g>
					<circle fill="#7A5034" cx="30.003" cy="194.921" r="2.203"/>
					<path fill="#1E1108" d="M27.579,194.921c0-1.336,1.087-2.423,2.423-2.423c1.336,0,2.424,1.087,2.424,2.423
						c0,1.337-1.087,2.424-2.424,2.424C28.667,197.345,27.579,196.258,27.579,194.921z M28.021,194.921
						c0,1.093,0.889,1.982,1.981,1.982c1.093,0,1.982-0.89,1.982-1.982c0-1.092-0.889-1.981-1.982-1.981
						C28.91,192.939,28.021,193.829,28.021,194.921z"/>
				</g>
			</g>
			<g>
				<g>
					<circle fill="#3A2413" cx="11.52" cy="194.921" r="3.187"/>
					<path fill="#1E1108" d="M7.891,194.921c0-2,1.628-3.628,3.628-3.628c2.001,0,3.629,1.628,3.629,3.628
						c0,2.001-1.628,3.629-3.629,3.629C9.519,198.55,7.891,196.922,7.891,194.921z M8.775,194.921c0,1.514,1.231,2.745,2.745,2.745
						c1.514,0,2.745-1.231,2.745-2.745c0-1.513-1.231-2.744-2.745-2.744C10.006,192.177,8.775,193.408,8.775,194.921z"/>
				</g>
				<g>
					<circle fill="#7A5034" cx="11.52" cy="194.921" r="2.203"/>
					<path fill="#1E1108" d="M9.096,194.921c0-1.336,1.087-2.423,2.423-2.423c1.336,0,2.424,1.087,2.424,2.423
						c0,1.337-1.087,2.424-2.424,2.424C10.184,197.345,9.096,196.258,9.096,194.921z M9.538,194.921
						c0,1.093,0.889,1.982,1.981,1.982c1.093,0,1.982-0.89,1.982-1.982c0-1.092-0.889-1.981-1.982-1.981
						C10.427,192.939,9.538,193.829,9.538,194.921z"/>
				</g>
			</g>
			<g>
				<g>
					<circle fill="#3A2413" cx="13.722" cy="157.827" r="3.187"/>
					<path fill="#1E1108" d="M10.094,157.827c0-2,1.628-3.628,3.628-3.628c2.001,0,3.629,1.628,3.629,3.628
						c0,2.001-1.628,3.629-3.629,3.629C11.722,161.456,10.094,159.828,10.094,157.827z M10.978,157.827
						c0,1.514,1.231,2.745,2.745,2.745c1.514,0,2.745-1.231,2.745-2.745c0-1.513-1.231-2.744-2.745-2.744
						C12.209,155.083,10.978,156.314,10.978,157.827z"/>
				</g>
				<g>
					<circle fill="#7A5034" cx="13.723" cy="157.827" r="2.203"/>
					<path fill="#1E1108" d="M11.299,157.827c0-1.336,1.087-2.423,2.423-2.423c1.336,0,2.424,1.087,2.424,2.423
						c0,1.337-1.087,2.424-2.424,2.424C12.386,160.251,11.299,159.164,11.299,157.827z M11.741,157.827
						c0,1.093,0.889,1.982,1.981,1.982c1.093,0,1.982-0.89,1.982-1.982c0-1.092-0.889-1.981-1.982-1.981
						C12.63,155.846,11.741,156.735,11.741,157.827z"/>
				</g>
			</g>
			<polygon fill="#3A2413" stroke="#1E1108" stroke-miterlimit="10" points="38.17,200.016 3.409,201.016 3.409,198.15 
				38.17,198.15 			"/>
			<polygon fill="#3A2413" stroke="#1E1108" stroke-miterlimit="10" points="7.81,148.311 10.264,148.422 8.321,203.564 
				5.467,203.436 			"/>
		</g>
	</g>
</g>
</svg>
