<!DOCTYPE svg PUBLIC '-//W3C//DTD SVG 1.1//EN' 'http://www.w3.org/Graphics/SVG/1.1/DTD/svg11.dtd'>
<svg xmlns="http://www.w3.org/2000/svg" xml:space="preserve" version="1.1" xmlns:xlink="http://www.w3.org/1999/xlink" viewBox="0 0 197.193 264.195" enable-background="new 0 0 197.193 264.195">
	<g opacity=".2">
		<path d="m197.19 228.15c0 5.5-4.272 11.414-9.494 13.141l-65.373 21.629c-5.222 1.729-13.753 1.689-18.959-0.086l-62.909-21.455c-5.206-1.774-9.47-7.729-9.477-13.229l-0.059-47.806c-0.006-5.5-4.326-11.276-9.602-12.836l-1.107-0.328c-5.273-1.561-11.219-7.03-13.21-12.157l-5.481-14.114c-1.991-5.127-2.035-13.533-0.1-18.681l5.681-15.092c1.937-5.147 7.937-10.23 13.333-11.294l0.664-0.132c5.396-1.062 9.816-6.435 9.822-11.935l0.059-47.741c0.007-5.5 4.271-11.452 9.477-13.228l62.909-21.455c5.205-1.775 13.737-1.814 18.959-0.087l65.373 21.629c5.222 1.728 9.494 7.641 9.494 13.141v192.12z" fill="#183049"/>
	</g>
				<radialGradient id="i" gradientUnits="userSpaceOnUse" cy="157.2" cx="46.803" gradientTransform="matrix(1 0 0 -1 -8.3599 288.25)" r="32.763">
				<stop stop-color="#E2BD47" offset="0"/>
				<stop stop-color="#D79C32" offset="1"/>
			</radialGradient>
			<polygon points="70.469 131.15 71.15 132.67 69.821 134.08 69.963 135.57 70.43 137.16 69.555 138.51 68.983 139.89 68.392 141.25 68.699 142.94 67.424 144.03 67.077 145.5 66.812 147.05 65.339 147.91 65.079 149.52 63.775 150.42 62.889 151.6 61.928 152.72 60.711 153.6 59.654 154.62 59.05 156.18 57.971 157.25 56.27 157.44 55.348 158.74 54.295 159.93 52.754 160.25 51.141 160.31 50.139 161.8 48.549 161.83 47.071 162.09 45.644 162.51 44.209 162.92 42.646 162.53 41.301 163.87 39.754 163.3 38.267 163.47 36.804 162.78 35.243 163.78 33.813 163.07 32.243 163.37 30.871 162.59 29.438 162.18 27.818 162.32 26.65 161.13 25.241 160.65 23.736 160.33 22.621 159.24 21.242 158.64 20.318 157.35 18.962 156.71 17.326 156.36 16.894 154.59 15.334 154.08 14.131 153.15 13.434 151.77 12.948 150.27 11.88 149.22 11.054 148 10.315 146.72 9.135 145.66 8.764 144.18 8.097 142.84 8.16 141.24 7.604 139.88 6.555 138.61 6.187 137.15 6.703 135.56 6.413 134.1 6.345 132.63 6.315 131.15 5.782 129.65 5.736 128.14 5.758 126.62 5.938 125.11 6.404 123.66 7.224 122.32 7.664 120.89 8.195 119.5 8.995 118.22 9.129 116.64 9.82 115.3 10.419 113.9 11.079 112.52 12.775 111.9 13.656 110.71 14.457 109.44 15.278 108.16 16.208 106.95 17.906 106.63 18.549 105.04 20.088 104.61 21.121 103.46 22.508 102.86 23.615 101.72 25.456 102.14 26.683 101.25 28.001 100.52 29.305 99.655 30.953 100.06 32.406 99.812 33.764 98.879 35.253 98.649 36.772 98.85 38.267 98.454 39.789 98.235 41.221 99.288 42.799 98.669 44.152 99.677 45.524 100.3 47.254 99.568 48.729 99.942 50.112 100.58 51.229 101.8 52.588 102.4 54.205 102.54 54.992 104.14 56.493 104.55 57.61 105.54 59.173 105.98 60.17 107.13 61.288 108.13 61.972 109.54 63.126 110.51 64.214 111.56 64.956 112.87 65.598 114.23 66.108 115.64 67.083 116.8 67.631 118.19 67.839 119.69 68.673 120.96 69.135 122.37 69.429 123.82 70.291 125.16 70.615 126.64 70.353 128.18 69.908 129.69" fill="url(#i)"/>
			<polygon fill="none" stroke="#876612" stroke-width="3" stroke-miterlimit="10" points="70.469 131.15 71.15 132.67 69.821 134.08 69.963 135.57 70.43 137.16 69.555 138.51 68.983 139.89 68.392 141.25 68.699 142.94 67.424 144.03 67.077 145.5 66.812 147.05 65.339 147.91 65.079 149.52 63.775 150.42 62.889 151.6 61.928 152.72 60.711 153.6 59.654 154.62 59.05 156.18 57.971 157.25 56.27 157.44 55.348 158.74 54.295 159.93 52.754 160.25 51.141 160.31 50.139 161.8 48.549 161.83 47.071 162.09 45.644 162.51 44.209 162.92 42.646 162.53 41.301 163.87 39.754 163.3 38.267 163.47 36.804 162.78 35.243 163.78 33.813 163.07 32.243 163.37 30.871 162.59 29.438 162.18 27.818 162.32 26.65 161.13 25.241 160.65 23.736 160.33 22.621 159.24 21.242 158.64 20.318 157.35 18.962 156.71 17.326 156.36 16.894 154.59 15.334 154.08 14.131 153.15 13.434 151.77 12.948 150.27 11.88 149.22 11.054 148 10.315 146.72 9.135 145.66 8.764 144.18 8.097 142.84 8.16 141.24 7.604 139.88 6.555 138.61 6.187 137.15 6.703 135.56 6.413 134.1 6.345 132.63 6.315 131.15 5.782 129.65 5.736 128.14 5.758 126.62 5.938 125.11 6.404 123.66 7.224 122.32 7.664 120.89 8.195 119.5 8.995 118.22 9.129 116.64 9.82 115.3 10.419 113.9 11.079 112.52 12.775 111.9 13.656 110.71 14.457 109.44 15.278 108.16 16.208 106.95 17.906 106.63 18.549 105.04 20.088 104.61 21.121 103.46 22.508 102.86 23.615 101.72 25.456 102.14 26.683 101.25 28.001 100.52 29.305 99.655 30.953 100.06 32.406 99.812 33.764 98.879 35.253 98.649 36.772 98.85 38.267 98.454 39.789 98.235 41.221 99.288 42.799 98.669 44.152 99.677 45.524 100.3 47.254 99.568 48.729 99.942 50.112 100.58 51.229 101.8 52.588 102.4 54.205 102.54 54.992 104.14 56.493 104.55 57.61 105.54 59.173 105.98 60.17 107.13 61.288 108.13 61.972 109.54 63.126 110.51 64.214 111.56 64.956 112.87 65.598 114.23 66.108 115.64 67.083 116.8 67.631 118.19 67.839 119.69 68.673 120.96 69.135 122.37 69.429 123.82 70.291 125.16 70.615 126.64 70.353 128.18 69.908 129.69"/>
			<radialGradient id="f" gradientUnits="userSpaceOnUse" cy="156.82" cx="45.767" gradientTransform="matrix(1 0 0 -1 -8.3599 288.25)" r="31.661">
			<stop stop-color="#EDD494" offset="0"/>
			<stop stop-color="#EDD494" stop-opacity="0" offset="1"/>
		</radialGradient>
		<path d="m32.569 145.34c0.271 4.416-2.951 9.828-5.308 13.49 1.407-3.622 3.473-7.48 4.12-11.33-2.047 1.797-3.645 4.524-4.998 6.976 0.265-0.736 0.409-1.562 0.675-2.299-1.894 1.375-3.893 3.245-5.804 4.824 1.95-4.335 5.237-8.282 7.3-12.646-2.865 1.958-5.492 4.508-8.824 5.637 0.91-0.915 1.527-2.227 2.34-3.14-2.53 1.035-5.291 2.015-8.108 2.132 2.587-0.916 5.146-2.551 6.419-4.789-1.688 0.955-3.557 1.873-5.49 2.302 1.737-1.426 3.807-3.075 5.011-4.806-2.283 0.713-4.809 1.365-7.162 1.881 1.18-0.791 2.006-1.912 3.037-2.746-1.638 0.314-3.815 0.941-5.663 1.155 3.577-1.999 7.642-3.216 11.077-5.486-4.344 0.833-8.758 1.079-13.08 1.86 4.374-1.738 8.916-3.065 13.116-5.182-2.86-0.617-6.729 0.456-9.959-0.122 2.045-0.354 4.171-0.705 6.146-1.37-0.734-0.371-1.812-1.06-2.765-1.324 0.446 0.165 1.394 0.287 1.753 0.484 0.165-0.003 0.179-0.005 0.041-0.003-2.38-0.223-4.535-1.507-6.369-2.966 4.525 0.035 9.045-1.596 13.487-2.409-3.527-2.324-7.686-4.681-10.938-7.432 3.799 0.946 7.481 3.216 11.438 3.772-2.411-2.379-4.459-5.615-5.313-8.93 1.744 2.293 4.144 4.142 6.966 4.789-1.882-2.8-3.326-6.337-3.799-9.687 1.521 2.204 2.593 5.021 4.835 6.39 0.785-2.335 0.139-5.062 0.187-7.675 1.151 3.335 2.174 7.101 3.27 10.295 0.412-2.787-0.505-5.812-0.93-8.472 0.3 4.854 1.695 9.534 3.307 14.098-1.664-1.126-3.037-2.637-4.021-4.392 0.254 0.669 0.492 1.28 0.803 1.932-0.929-0.69-2.182-1.223-3.095-2.132 0.794 0.968 1.394 2.498 2.132 3.637-1.025-0.73-2.354-1.273-3.315-2.141 1.441 1.574 3.001 3.252 3.757 5.336-1.536-0.928-3.347-1.579-4.924-2.152 1.485 1.746 3.203 3.548 4.607 5.441-2.469-0.104-5.062 0.233-7.229 1.371 2.02-0.012 4.039-0.005 6.058-0.021-1.506 0.734-2.959 1.71-4.565 2.312 1.146 0.015 2.026 0.429 3.065 0.534-2.021 0.806-4.03 1.756-5.907 2.795 2.166-0.271 4.387-0.563 6.599-0.438-1.997 2.1-5.154 3.846-7.261 6.283 1.52-0.477 3.411-0.619 4.914-1.115-1.192 0.748-2.091 1.849-3.164 2.647 0.442-0.102 1.344-0.19 1.988-0.355-0.755 0.546-1.445 1.306-2.105 1.824 1.058-0.373 2.563-0.395 3.642-0.783-1.065 0.865-2.07 2.323-3.193 3.153 3.451-0.445 6.609-3.152 9.851-4.615-0.971 1.423-1.888 3.425-2.127 5.266 1.597-1.397 3.126-3.019 4.619-4.479-0.592 0.98-0.458 2.099-0.803 3.148" fill="url(#f)"/>
					<line y1="131.15" x2="38.265" x1="38.267" y2="105.21" fill="none"/>
					<polygon points="37.767 131.15 38.265 105.21 38.767 131.15" fill="#876612"/>
					<line y1="131.15" x2="43.717" x1="38.267" y2="114.61" fill="none"/>
					<polygon points="37.792 130.99 43.717 114.61 38.741 131.31" fill="#876612"/>
					<line y1="131.15" x2="59.422" x1="38.267" y2="125.54" fill="none"/>
					<polygon points="38.139 130.67 59.422 125.54 38.395 131.63" fill="#876612"/>
					<line y1="131.15" x2="21.33" x1="38.267" y2="130.7" fill="none"/>
					<polygon points="38.254 131.65 21.33 130.7 38.279 130.65" fill="#876612"/>
					<line y1="131.15" x2="21.364" x1="38.267" y2="142.76" fill="none"/>
					<polygon points="38.55 131.56 21.364 142.76 37.983 130.74" fill="#876612"/>
					<line y1="131.15" x2="31.812" x1="38.267" y2="118.83" fill="none"/>
					<polygon points="37.824 131.38 31.812 118.83 38.709 130.92" fill="#876612"/>
					<line y1="131.15" x2="52.32" x1="38.267" y2="143.83" fill="none"/>
					<polygon points="38.602 130.78 52.32 143.83 37.932 131.52" fill="#876612"/>
					<line y1="131.15" x2="34.387" x1="38.267" y2="155.71" fill="none"/>
					<polygon points="38.761 131.23 34.387 155.71 37.772 131.07" fill="#876612"/>
					<line y1="131.15" x2="13.78" x1="38.267" y2="142.11" fill="none"/>
					<polygon points="38.471 131.61 13.78 142.11 38.062 130.69" fill="#876612"/>
					<line y1="131.15" x2="16.468" x1="38.267" y2="117.1" fill="none"/>
					<polygon points="37.996 131.57 16.468 117.1 38.537 130.73" fill="#876612"/>
					<line y1="131.15" x2="25.249" x1="38.266" y2="153.58" fill="none"/>
					<polygon points="38.698 131.4 25.249 153.58 37.833 130.9" fill="#876612"/>
					<line y1="131.15" x2="25.249" x1="38.266" y2="142.72" fill="none"/>
					<polygon points="38.598 131.52 25.249 142.72 37.934 130.78" fill="#876612"/>
					<line y1="131.15" x2="17.153" x1="38.266" y2="125.38" fill="none"/>
					<polygon points="38.134 131.63 17.153 125.38 38.397 130.67" fill="#876612"/>
					<line y1="131.15" x2="52.688" x1="38.266" y2="140.04" fill="none"/>
					<polygon points="38.527 130.72 52.688 140.04 38.004 131.58" fill="#876612"/>
					<line y1="131.15" x2="58.713" x1="38.266" y2="129.59" fill="none"/>
					<polygon points="38.228 130.65 58.713 129.59 38.304 131.65" fill="#876612"/>
					<line y1="131.15" x2="37.665" x1="38.266" y2="145.04" fill="none"/>
					<polygon points="38.766 131.17 37.665 145.04 37.766 131.13" fill="#876612"/>
					<line y1="131.15" x2="32.476" x1="38.266" y2="113.12" fill="none"/>
					<polygon points="37.789 131.3 32.476 113.12 38.742 131" fill="#876612"/>
					<line y1="131.15" x2="53.948" x1="38.266" y2="111.86" fill="none"/>
					<polygon points="37.878 130.83 53.948 111.86 38.653 131.46" fill="#876612"/>
					<line y1="131.15" x2="64.943" x1="38.266" y2="133.96" fill="none"/>
					<polygon points="38.318 130.65 64.943 133.96 38.213 131.65" fill="#876612"/>
					<line y1="131.15" x2="50.065" x1="38.266" y2="154.25" fill="none"/>
					<polygon points="38.711 130.92 50.065 154.25 37.82 131.38" fill="#876612"/>
				<line y1="139.2" x2="28.121" x1="11.167" y2="133.14" fill="none"/>
				<path d="m11.167 139.2s1.033-0.453 2.603-1.078c0.788-0.304 1.7-0.678 2.688-1.042 0.99-0.365 2.046-0.754 3.103-1.144 1.062-0.368 2.127-0.736 3.124-1.081 0.996-0.348 1.938-0.635 2.74-0.897 1.609-0.512 2.696-0.813 2.696-0.813s-1.032 0.454-2.602 1.079c-0.788 0.303-1.699 0.679-2.689 1.042s-2.046 0.754-3.103 1.143c-1.062 0.367-2.126 0.735-3.123 1.08-0.997 0.346-1.939 0.634-2.741 0.897-1.61 0.51-2.696 0.81-2.696 0.81z" fill="#876612"/>
				<line y1="113.12" x2="31.542" x1="15.917" y2="124.96" fill="none"/>
				<path d="m15.917 113.12s1.024 0.676 2.526 1.738c0.744 0.538 1.627 1.147 2.548 1.835 0.922 0.686 1.905 1.416 2.889 2.146 0.972 0.748 1.939 1.497 2.851 2.199 0.91 0.7 1.735 1.387 2.456 1.957 1.429 1.158 2.355 1.962 2.355 1.962s-1.024-0.676-2.525-1.736c-0.745-0.539-1.628-1.148-2.549-1.836-0.922-0.687-1.905-1.416-2.889-2.147-0.97-0.749-1.938-1.497-2.849-2.2-0.91-0.701-1.736-1.385-2.457-1.957-1.427-1.15-2.356-1.96-2.356-1.96z" fill="#876612"/>
				<line y1="119.72" x2="24.329" x1="12.086" y2="126.1" fill="none"/>
				<path d="m12.086 119.72s0.803 0.326 1.979 0.871c1.175 0.545 2.729 1.294 4.26 2.093 1.531 0.794 3.037 1.637 4.158 2.287 1.119 0.649 1.848 1.12 1.848 1.12s-0.803-0.327-1.978-0.871c-1.177-0.544-2.73-1.294-4.261-2.094-1.53-0.794-3.036-1.638-4.156-2.287-1.122-0.65-1.85-1.12-1.85-1.12z" fill="#876612"/>
				<line y1="128.73" x2="10.542" x1="21.667" y2="127.13" fill="none"/>
				<path d="m21.667 128.73s-0.707-0.021-1.758-0.111c-1.052-0.091-2.45-0.238-3.84-0.44-1.393-0.195-2.774-0.447-3.81-0.656-1.034-0.209-1.719-0.39-1.719-0.39s0.707 0.021 1.758 0.11c1.053 0.091 2.45 0.238 3.841 0.441 1.392 0.195 2.773 0.448 3.809 0.656 1.035 0.21 1.719 0.39 1.719 0.39z" fill="#876612"/>
				<line y1="106.72" x2="29.042" x1="24.329" y2="114.78" fill="none"/>
				<path d="m24.329 106.72s0.363 0.465 0.857 1.189c0.492 0.726 1.128 1.707 1.715 2.716 0.592 1.007 1.136 2.04 1.524 2.826 0.392 0.786 0.615 1.331 0.615 1.331s-0.364-0.463-0.856-1.188c-0.494-0.726-1.128-1.708-1.715-2.717-0.593-1.007-1.136-2.041-1.525-2.827-0.389-0.79-0.615-1.33-0.615-1.33z" fill="#876612"/>
				<line y1="153.58" x2="28.104" x1="18.917" y2="142.37" fill="none"/>
				<path d="m18.917 153.58s0.514-0.752 1.327-1.842c0.815-1.089 1.923-2.524 3.073-3.925 1.146-1.404 2.335-2.772 3.242-3.786s1.545-1.664 1.545-1.664-0.513 0.752-1.326 1.842c-0.815 1.09-1.924 2.524-3.074 3.925-1.146 1.404-2.336 2.772-3.243 3.786-0.908 1-1.544 1.65-1.544 1.65z" fill="#876612"/>
		<path opacity=".6" enable-background="new " d="m68.796 136.92l-0.325-1.211-0.206-2.174 1.106-1.172-0.271-0.604-0.774-2.016 0.562-1.913 0.197-1.162-0.203-0.927-0.868-1.354-0.333-1.643-0.372-1.135-0.91-1.381-0.229-1.667-0.392-0.988-0.99-1.175-0.577-1.601-0.588-1.244-0.606-1.074-0.894-0.859-1.36-1.14-0.695-1.438-1.029-0.939-0.703-0.812-1.462-0.41-1.11-0.987-1.815-0.491-0.714-1.452-1.022-0.093-1.872-0.82-1.127-1.229-0.983-0.455-0.852-0.216-1.872 0.795-2.247-1.062-0.686-0.511-1.574 0.61-1.604-1.179-0.828 0.118-1.696 0.448-1.601-0.21-0.938 0.146-1.346 0.926-2.087 0.357-1.312-0.323-0.86 0.566-1.238 0.684-0.58 0.418c1.893 7.61 6.376 26.231 5.637 28.973-0.562 2.084-3.405 16.566-5.578 27.742l0.509 0.175 0.921 0.938 1.189-0.103 2.031 0.623 0.89 0.509 1.522-0.295 1.124 0.562 1.541-0.986 1.825 0.858 1.421-0.167 0.98 0.364 1.268-1.269 1.996 0.505 2.623-0.752 1.715-0.289 0.81-0.016 0.991-1.474 2.251-0.087 0.932-0.191 0.667-0.752 1.264-1.787 1.854-0.207 0.479-0.473 0.606-1.575 1.463-1.39 1.068-0.767 0.843-0.987 0.976-1.304 0.979-0.673 0.271-1.671 1.479-0.864 0.147-0.865 0.479-2.043 0.992-0.844-0.235-1.293 1.463-3.373 0.493-0.8z" fill="#876612"/>
						<radialGradient id="e" gradientUnits="userSpaceOnUse" cy="155.16" cx="119.9" gradientTransform="matrix(1 0 0 -1 -8.3599 288.25)" r="147.86">
						<stop stop-color="#E2BD47" offset="0"/>
						<stop stop-color="#D79C32" offset="1"/>
					</radialGradient>
					<polygon points="187.9 212.01 189.91 213.54 190.43 215.16 189.6 216.61 189.95 218.28 187.05 219.06 190.22 221.72 187.17 222.22 186.75 223.69 185.99 225 186.31 226.97 184.91 227.92 184.27 229.36 181.75 229.28 182.44 231.91 180.78 232.45 181.05 235.06 179.77 236.07 178.39 236.95 175.8 235.94 173.7 235.33 173.92 238.89 172.29 239.14 170.78 239.59 168.62 237.89 167.25 238.3 166.03 239.54 164.41 239.18 162.9 239.4 161.88 242.39 159.99 240.51 158.33 239.92 157.23 242.5 155.46 241.26 153.75 240.39 152.98 244.84 151.07 242.8 149.67 243.64 148.3 244.72 146.55 243.59 145.3 245.32 143.89 246.16 141.66 242.36 140.86 246.62 138.74 243.51 137.58 245.78 135.9 244.67 134.71 246.68 132.92 244.49 131.44 244.4 130.02 244.78 128.54 244.76 127.06 244.48 125.8 247.53 124.39 248.87 122.82 247.36 121.3 246.55 119.91 249.17 118.36 247.19 116.85 246 115.38 245.95 113.9 245.75 112.43 246.05 110.93 247.35 109.49 245.03 108 245.74 106.46 247.35 105 246.6 103.58 245.42 101.98 247.28 100.65 245.15 98.942 247.93 97.549 246.76 95.988 247.36 94.59 246.46 92.87 248.02 91.625 246.16 90.127 246.08 88.463 246.85 87.24 245.1 85.807 244.55 84.259 244.66 83.096 242.57 81.119 245.09 79.627 244.87 78.591 242.06 76.492 245.28 75.345 243.09 73.848 242.91 72.39 242.51 70.586 244.04 69.648 240.67 67.698 243.04 66.134 243.2 64.768 242.25 63.514 240.65 62.115 239.86 60.341 241.2 59.188 239.19 56.938 241.48 56.583 237.69 55.363 236.86 53.288 237.79 51.485 237.86 50.572 236.37 50.308 234.12 48.151 234.49 46.513 234.03 47.015 231.29 44.101 232.01 42.496 231.3 41.526 230.02 41.752 227.91 40.828 226.67 41.203 224.7 40.33 223.48 38.93 222.45 38.793 220.87 37.403 219.72 39.76 217.54 37.261 216.57 37.205 215.04 37.025 213.53 36.676 212.01 36.806 210.51 34.976 209.02 37.635 207.53 37.221 206.04 35.086 204.54 34.886 203.05 39.144 201.56 36.942 200.07 36.3 198.58 37.983 197.09 38.562 195.59 35.065 194.1 36.168 192.61 38.838 191.12 37.121 189.62 35.594 188.13 35.793 186.63 37.741 185.14 35.492 183.64 35.346 182.14 37.602 180.64 38.708 179.15 37.02 177.65 35.785 176.15 37.862 174.66 36.982 173.16 35.584 171.67 35.029 170.18 37.676 168.68 34.776 167.19 36.643 165.7 37.557 164.2 36.354 162.71 38.11 161.21 37.102 159.72 38.002 158.22 38.33 156.72 36.368 155.22 35.757 153.72 35.132 152.23 37.529 150.73 38.037 149.23 37.07 147.74 36.996 146.24 38.185 144.75 39.011 143.25 36.512 141.75 39.154 140.26 38.888 138.76 38.672 137.26 38.373 135.76 39.016 134.27 38.899 132.77 35.789 131.27 38.638 129.77 35.717 128.28 35.229 126.78 35.958 125.28 37.693 123.79 36.834 122.29 37.037 120.79 35.087 119.29 38.701 117.79 35.266 116.29 38.062 114.8 38.486 113.3 36.081 111.8 37.892 110.3 38.54 108.8 38.32 107.3 38.063 105.8 35.113 104.3 38.773 102.81 36.814 101.31 35.019 99.807 34.641 98.312 35.523 96.817 37.961 95.319 36.334 93.818 34.712 92.32 36.144 90.824 34.833 89.328 36.552 87.832 36.918 86.336 38.141 84.836 35.851 83.335 38.169 81.836 38.751 80.338 35.461 78.84 36.485 77.339 38.195 75.839 36.486 74.339 36.303 72.839 35.436 71.336 36.293 69.836 38.804 68.333 37.781 66.832 38.86 65.329 36.539 63.831 38.262 62.332 35.027 60.829 35.728 59.328 35.688 57.825 38.459 56.32 37.873 54.818 36.311 53.312 34.914 51.804 37.597 50.295 38.229 48.849 36.479 47.176 35.893 45.482 39.131 44.611 36.703 42.376 37.268 40.879 38.75 39.772 39.28 38.315 39.872 36.874 39.268 34.676 42.84 35.139 43.284 33.626 43.848 32.138 43.864 30.074 46.126 30.109 47.763 29.677 47.349 26.81 48.24 25.32 51.619 27.551 53.043 27.152 53.367 24.664 54.588 23.663 55.682 22.179 58.053 24.479 58.604 20.679 60.902 24.293 62.369 23.934 63.664 22.6 65.223 22.762 66.615 21.982 68.329 23.021 69.104 18.726 70.811 19.73 72.276 19.351 73.539 17.828 75.758 21.716 76.817 19.055 78.115 17.745 79.58 17.359 81.576 19.995 82.934 19.004 84.634 19.94 85.918 18.528 87.543 19.03 89.106 19.18 90.562 18.705 91.365 14.484 93.444 18.413 94.793 17.515 96.314 17.967 97.748 17.643 99.03 15.497 100.64 17.05 102.06 16.403 103.38 13.697 104.94 15.008 106.38 13.822 107.93 15.673 109.41 15.64 110.87 14.188 112.36 13.671 113.85 15.49 115.35 14.251 116.82 15.718 118.3 15.65 119.8 15.221 121.24 16.378 122.85 13.774 124.32 14.341 125.64 16.923 127.36 13.789 128.66 16.194 130.25 15.129 131.49 17.483 133.34 14.436 134.78 15.119 135.98 17.109 137.5 16.962 139.32 15.492 140.9 15.369 142 17.869 143.78 16.634 145.21 17.296 146.5 18.792 148.23 17.791 149.34 20.321 151.14 18.925 152.55 19.727 154.23 19.021 155.96 18.063 157.24 19.604 158.88 19.102 159.71 23.219 161.25 23.276 163.15 21.369 165.02 19.667 165.97 23.105 167.17 24.359 169.39 21.904 171.22 21.529 171.13 25.802 173.47 24.306 174.92 24.862 177.23 24.159 176.78 27.573 177.83 28.641 178.53 30.076 181.33 29.282 181.01 31.716 181.36 33.339 182.74 34.09 183.9 35.072 185.02 36.128 185.24 37.713 186.99 38.498 187.11 40.104 186.32 41.981 187.91 42.989 189.56 44.119 187.79 46.021 190.86 47.093 189.18 48.802 188.5 50.295 191.96 51.787 188.99 53.279 189.16 54.771 187.9 56.264 188.31 57.756 188.27 59.247 191.11 60.738 190.08 62.23 188.88 63.721 191.33 65.213 189.3 66.705 190.07 68.198 191.59 69.691 188.22 71.185 191.24 72.679 190.44 74.173 187.54 75.669 187.82 77.166 188.11 78.663 187.88 80.162 191.28 81.659 187.59 83.155 188.53 84.651 190.29 86.146 191.88 87.642 187.68 89.135 191.2 90.631 190.52 92.124 189.05 93.617 190.33 95.111 187.59 96.605 191.76 98.1 188.69 99.594 188.18 101.09 190.76 102.58 187.46 104.08 187.47 105.58 189.16 107.08 191.37 108.58 191.04 110.07 187.95 111.57 188.92 113.06 189.86 114.56 190.08 116.06 190.15 117.55 189.35 119.05 187.51 120.54 190.16 122.04 191.97 123.54 188.08 125.03 187.88 126.53 190.37 128.03 190.78 129.53 191.31 131.03 188.59 132.52 190.76 134.02 190.51 135.52 188.49 137.02 192.07 138.51 189.79 140.01 188.32 141.51 187.76 143.01 191.74 144.51 188.44 146.01 191.32 147.5 190.42 149 190.25 150.5 191.63 152 191.14 153.5 189.24 155 187.62 156.5 190.95 158 188.62 159.49 189.6 160.99 191.33 162.49 189.24 163.99 191.62 165.48 189.89 166.98 190.77 168.48 190.44 169.98 190.2 171.48 189.63 172.97 189.88 174.47 192.06 175.96 189.96 177.46 189.55 178.96 189.41 180.46 187.46 181.96 191.62 183.46 191.93 184.96 189.29 186.46 191.81 187.96 188.52 189.46 188.52 190.96 190.91 192.46 187.64 193.97 190.61 195.47 190.78 196.97 190.7 198.47 189.62 199.97 189 201.47 187.62 202.97 191.31 204.48 189.64 205.98 190.25 207.48 187.56 208.99 189.47 210.31" fill="url(#e)"/>
					<polygon fill="none" stroke="#876612" stroke-width="3" stroke-miterlimit="10" points="187.9 212.01 189.91 213.54 190.43 215.16 189.6 216.61 189.95 218.28 187.05 219.06 190.22 221.72 187.17 222.22 186.75 223.69 185.99 225 186.31 226.97 184.91 227.92 184.27 229.36 181.75 229.28 182.44 231.91 180.78 232.45 181.05 235.06 179.77 236.07 178.39 236.95 175.8 235.94 173.7 235.33 173.92 238.89 172.29 239.14 170.78 239.59 168.62 237.89 167.25 238.3 166.03 239.54 164.41 239.18 162.9 239.4 161.88 242.39 159.99 240.51 158.33 239.92 157.23 242.5 155.46 241.26 153.75 240.39 152.98 244.84 151.07 242.8 149.67 243.64 148.3 244.72 146.55 243.59 145.3 245.32 143.89 246.16 141.66 242.36 140.86 246.62 138.74 243.51 137.58 245.78 135.9 244.67 134.71 246.68 132.92 244.49 131.44 244.4 130.02 244.78 128.54 244.76 127.06 244.48 125.8 247.53 124.39 248.87 122.82 247.36 121.3 246.55 119.91 249.17 118.36 247.19 116.85 246 115.38 245.95 113.9 245.75 112.43 246.05 110.93 247.35 109.49 245.03 108 245.74 106.46 247.35 105 246.6 103.58 245.42 101.98 247.28 100.65 245.15 98.942 247.93 97.549 246.76 95.988 247.36 94.59 246.46 92.87 248.02 91.625 246.16 90.127 246.08 88.463 246.85 87.24 245.1 85.807 244.55 84.259 244.66 83.096 242.57 81.119 245.09 79.627 244.87 78.591 242.06 76.492 245.28 75.345 243.09 73.848 242.91 72.39 242.51 70.586 244.04 69.648 240.67 67.698 243.04 66.134 243.2 64.768 242.25 63.514 240.65 62.115 239.86 60.341 241.2 59.188 239.19 56.938 241.48 56.583 237.69 55.363 236.86 53.288 237.79 51.485 237.86 50.572 236.37 50.308 234.12 48.151 234.49 46.513 234.03 47.015 231.29 44.101 232.01 42.496 231.3 41.526 230.02 41.752 227.91 40.828 226.67 41.203 224.7 40.33 223.48 38.93 222.45 38.793 220.87 37.403 219.72 39.76 217.54 37.261 216.57 37.205 215.04 37.025 213.53 36.676 212.01 36.806 210.51 34.976 209.02 37.635 207.53 37.221 206.04 35.086 204.54 34.886 203.05 39.144 201.56 36.942 200.07 36.3 198.58 37.983 197.09 38.562 195.59 35.065 194.1 36.168 192.61 38.838 191.12 37.121 189.62 35.594 188.13 35.793 186.63 37.741 185.14 35.492 183.64 35.346 182.14 37.602 180.64 38.708 179.15 37.02 177.65 35.785 176.15 37.862 174.66 36.982 173.16 35.584 171.67 35.029 170.18 37.676 168.68 34.776 167.19 36.643 165.7 37.557 164.2 36.354 162.71 38.11 161.21 37.102 159.72 38.002 158.22 38.33 156.72 36.368 155.22 35.757 153.72 35.132 152.23 37.529 150.73 38.037 149.23 37.07 147.74 36.996 146.24 38.185 144.75 39.011 143.25 36.512 141.75 39.154 140.26 38.888 138.76 38.672 137.26 38.373 135.76 39.016 134.27 38.899 132.77 35.789 131.27 38.638 129.77 35.717 128.28 35.229 126.78 35.958 125.28 37.693 123.79 36.834 122.29 37.037 120.79 35.087 119.29 38.701 117.79 35.266 116.29 38.062 114.8 38.486 113.3 36.081 111.8 37.892 110.3 38.54 108.8 38.32 107.3 38.063 105.8 35.113 104.3 38.773 102.81 36.814 101.31 35.019 99.807 34.641 98.312 35.523 96.817 37.961 95.319 36.334 93.818 34.712 92.32 36.144 90.824 34.833 89.328 36.552 87.832 36.918 86.336 38.141 84.836 35.851 83.335 38.169 81.836 38.751 80.338 35.461 78.84 36.485 77.339 38.195 75.839 36.486 74.339 36.303 72.839 35.436 71.336 36.293 69.836 38.804 68.333 37.781 66.832 38.86 65.329 36.539 63.831 38.262 62.332 35.027 60.829 35.728 59.328 35.688 57.825 38.459 56.32 37.873 54.818 36.311 53.312 34.914 51.804 37.597 50.295 38.229 48.849 36.479 47.176 35.893 45.482 39.131 44.611 36.703 42.376 37.268 40.879 38.75 39.772 39.28 38.315 39.872 36.874 39.268 34.676 42.84 35.139 43.284 33.626 43.848 32.138 43.864 30.074 46.126 30.109 47.763 29.677 47.349 26.81 48.24 25.32 51.619 27.551 53.043 27.152 53.367 24.664 54.588 23.663 55.682 22.179 58.053 24.479 58.604 20.679 60.902 24.293 62.369 23.934 63.664 22.6 65.223 22.762 66.615 21.982 68.329 23.021 69.104 18.726 70.811 19.73 72.276 19.351 73.539 17.828 75.758 21.716 76.817 19.055 78.115 17.745 79.58 17.359 81.576 19.995 82.934 19.004 84.634 19.94 85.918 18.528 87.543 19.03 89.106 19.18 90.562 18.705 91.365 14.484 93.444 18.413 94.793 17.515 96.314 17.967 97.748 17.643 99.03 15.497 100.64 17.05 102.06 16.403 103.38 13.697 104.94 15.008 106.38 13.822 107.93 15.673 109.41 15.64 110.87 14.188 112.36 13.671 113.85 15.49 115.35 14.251 116.82 15.718 118.3 15.65 119.8 15.221 121.24 16.378 122.85 13.774 124.32 14.341 125.64 16.923 127.36 13.789 128.66 16.194 130.25 15.129 131.49 17.483 133.34 14.436 134.78 15.119 135.98 17.109 137.5 16.962 139.32 15.492 140.9 15.369 142 17.869 143.78 16.634 145.21 17.296 146.5 18.792 148.23 17.791 149.34 20.321 151.14 18.925 152.55 19.727 154.23 19.021 155.96 18.063 157.24 19.604 158.88 19.102 159.71 23.219 161.25 23.276 163.15 21.369 165.02 19.667 165.97 23.105 167.17 24.359 169.39 21.904 171.22 21.529 171.13 25.802 173.47 24.306 174.92 24.862 177.23 24.159 176.78 27.573 177.83 28.641 178.53 30.076 181.33 29.282 181.01 31.716 181.36 33.339 182.74 34.09 183.9 35.072 185.02 36.128 185.24 37.713 186.99 38.498 187.11 40.104 186.32 41.981 187.91 42.989 189.56 44.119 187.79 46.021 190.86 47.093 189.18 48.802 188.5 50.295 191.96 51.787 188.99 53.279 189.16 54.771 187.9 56.264 188.31 57.756 188.27 59.247 191.11 60.738 190.08 62.23 188.88 63.721 191.33 65.213 189.3 66.705 190.07 68.198 191.59 69.691 188.22 71.185 191.24 72.679 190.44 74.173 187.54 75.669 187.82 77.166 188.11 78.663 187.88 80.162 191.28 81.659 187.59 83.155 188.53 84.651 190.29 86.146 191.88 87.642 187.68 89.135 191.2 90.631 190.52 92.124 189.05 93.617 190.33 95.111 187.59 96.605 191.76 98.1 188.69 99.594 188.18 101.09 190.76 102.58 187.46 104.08 187.47 105.58 189.16 107.08 191.37 108.58 191.04 110.07 187.95 111.57 188.92 113.06 189.86 114.56 190.08 116.06 190.15 117.55 189.35 119.05 187.51 120.54 190.16 122.04 191.97 123.54 188.08 125.03 187.88 126.53 190.37 128.03 190.78 129.53 191.31 131.03 188.59 132.52 190.76 134.02 190.51 135.52 188.49 137.02 192.07 138.51 189.79 140.01 188.32 141.51 187.76 143.01 191.74 144.51 188.44 146.01 191.32 147.5 190.42 149 190.25 150.5 191.63 152 191.14 153.5 189.24 155 187.62 156.5 190.95 158 188.62 159.49 189.6 160.99 191.33 162.49 189.24 163.99 191.62 165.48 189.89 166.98 190.77 168.48 190.44 169.98 190.2 171.48 189.63 172.97 189.88 174.47 192.06 175.96 189.96 177.46 189.55 178.96 189.41 180.46 187.46 181.96 191.62 183.46 191.93 184.96 189.29 186.46 191.81 187.96 188.52 189.46 188.52 190.96 190.91 192.46 187.64 193.97 190.61 195.47 190.78 196.97 190.7 198.47 189.62 199.97 189 201.47 187.62 202.97 191.31 204.48 189.64 205.98 190.25 207.48 187.56 208.99 189.47 210.31"/>
				<radialGradient id="a" gradientUnits="userSpaceOnUse" cy="147.45" cx="121.6" gradientTransform="matrix(1 0 0 -1 -8.3599 288.25)" r="129">
				<stop stop-color="#EDD494" offset="0"/>
				<stop stop-color="#EDD494" stop-opacity="0" offset="1"/>
			</radialGradient><g fill="url(#a)">
			<path d="m76.237 212.13c-11.529 1.367-22.297-0.405-33.921 0.691 8.388-1.568 17.233-2.312 25.489-4.291-6.451 0.592-12.871 1.104-19.217-0.832 6.73 0.002 14.939-1.07 20.729-4.916-5.301-1.148-11.241-0.652-16.812-0.654-0.321 0.013-0.235 0.019 0.26 0.019 1.162-0.072 2.48-0.47 3.456-0.617-4.68-0.324-10.005-1.129-13.608-3.008 10.769-0.918 21.554-3.14 32.302-1.49-4.077 1.082-8.314 1.801-12.429 2.791 4.353-0.172 10.211 0.012 15.093 0.375-1.949 0.5-4.684 1.854-6.386 2.291 1.962-0.006 4.273 0.438 6.358 0.361-3.05 1.479-7.125 2.957-10.572 4.547 4.862-0.318 9.891-0.295 14.8-0.217-0.308 0.329-0.235 0.975 0.091 1.198-2.979 0.984-4.23 2.187-7.938 2.15 1.651 0.16 3.938 0.613 5.944 0.668-1.109 0.58-2.356 0.61-3.639 0.93z"/>
			<path d="m64.07 191.38c-5.406 0.861-11.048-1.018-16.498-1.246 3.941-0.67 7.875-1.653 11.848-2.209-4.707-0.034-8.846-0.868-13.535-1.834 2.188-0.026 4.809-0.262 6.742-1.297-1.454-0.237-3.348-0.992-4.906-1.168 0.622-0.106 1.535-0.455 2.191-0.625-1.882-0.061-3.846-0.754-5.163-1.846 2.878-0.529 5.583-1.812 8.472-2.391-2.576-1.783-6.102-2.095-8.814-3.935 10.029-0.02 20.01-0.188 30.024 0.301 0.12-0.004 0.123-0.006 0.008-0.01-4.767 0.892-9.832 1.332-14.657 2 0.427 0.137 0.761 0.096 1.188 0.166-1.917 0.18-3.994 0.322-5.776 0.676 4.88 1.408 10.198 1.213 15.221 1.871-2.999 0.771-6.104 1.422-9.14 2.138 0.007 0.043 0.748-0.062 0.762-0.017-2.227 0.396-4.479 0.74-6.584 1.553 4.074 0.572 8.243 0.021 12.363 0.146-2.042 0.598-4.623 1.068-6.069 2.117 4.692 0.481 9.854-0.513 14.31 0.992-3.845 0.952-7.877 0.905-11.803 1.235 3.991 0.787 8.28 0.664 12.14 1.75-4.056 1.25-8.152 1.23-12.324 1.63z"/>
			<path d="m67.938 172.61c-6.956-1.107-14.079-1.799-21.038-2.892-3.382-0.53-3.623-0.711-5.496-3.141 3.066-0.16 6.063-0.906 9.123-1.162-4.369-0.176-0.729-2.395 1.224-3 3.474-1.078 7.146-1.291 10.663-2.17-5.834-0.312-12.533 0.144-17.773-2.908 3.693-1.381 8.464-0.809 12.066-2.567-2.822-1.027-6.877-0.629-9.227-2.576 3.096-1.103 7.7-0.535 10.305-2.543-1.96-0.314-4.619 0.141-6.266-0.654 0.973-0.547 2.075-0.852 3.099-1.315-4.162-0.474-7.769-0.919-11.303-3.039 2.214-0.273 5.027-0.75 6.786-2.062-1.829-0.201-3.724 0.201-5.498-0.115 1.776-1.301 5.704-0.938 6.884-3.063-1.587-0.945-3.737-0.529-5.282-1.332 0.278-0.131 0.658-0.383 0.898-0.519-0.897 0.062-1.949-0.151-2.729-0.352-0.034 0.016 0.002-0.244 0.012-0.236 10.991-0.992 22.785-1.274 33.803 0.154-3.132 0.482-18.973 0.527-21.675 2.027 3.281 0.596 19.162-1.5 22.158 0-2.713 0.979-5.832 0.696-8.638 1.457 0.882 0 1.767 0.077 2.649 0.073-7.3 1.318-14.861 0.939-22.234 1.689 6.182 1.615 15.211 1.307 13.146 2.33 2.169 0.783 4.709 0.401 6.955 1.021-6.368 2.062-13.854-0.989-20.199 0.879-0.013 0.056-0.009 0.105 0.008 0.156 4.166 0.783 9.097 1.229 13.393 1.625-0.475-0.006-0.951 0.01-1.426-0.012 3.189 0.645 6.666 1.062 9.925 1.494-3.636 0.438-7.556 0.52-11.103 1.524 4.19 1.47 9.848 0.199 14.248 0.355 3.201 0.113 6.699 0.168 9.812 0.994-9.133 1.487-18.255 2.606-27.429 3.78 3.419 0.316 7.055-0.582 10.4 0.068-1.436 1.01-3.925 0.959-5.389 1.91 5.629 0.395 11.377 0.426 16.813 2.106-8.244 1.914-17.15 1.998-25.545 3.275 5.023 0.363 10.095 0.514 15.08 1.271-5.964 0.725-20.183 0.989-22.424 3.182 5.218 0.398 10.418 1.646 15.579 2.494 1.97 0.32 3.87 0.83 5.645 1.79z"/>
				</g><radialGradient id="d" gradientUnits="userSpaceOnUse" cy="145.54" cx="79.763" gradientTransform="matrix(1 0 0 -1 -8.3599 288.25)" r="0">
				<stop stop-color="#EDD494" offset="0"/>
				<stop stop-color="#EDD494" stop-opacity="0" offset="1"/>
			</radialGradient>
			<path d="m71.403 142.71" fill="url(#d)"/>
				<radialGradient id="b" gradientUnits="userSpaceOnUse" cy="147.45" cx="121.6" gradientTransform="matrix(1 0 0 -1 -8.3599 288.25)" r="129.01">
				<stop stop-color="#EDD494" offset="0"/>
				<stop stop-color="#EDD494" stop-opacity="0" offset="1"/>
			</radialGradient><g fill="url(#b)">
			<path d="m66.736 132.13c-8.01-0.104-15.979 0.306-23.873 1.013 6.482-1.918 12.834-4.349 19.246-6.537-4.764 0.336-9.63-0.283-14.365-0.074 4.543-1.146 8.938-3.498 13.377-4.926-5.35 0.375-10.178-0.699-15.301-1.099 5.071-0.633 10.269-2.17 15.316-2.901-3.86 0.18-7.72-0.515-11.386-0.601 5.836-1.918 12.069-3.182 17.976-5.51-5.979-0.211-12.894-1.088-18.986-2.477 6.105-0.572 12.644-2.136 18.514-4.523-4.629 0.104-10.169-0.936-14.901-0.977 1.522-0.496 3.297-0.869 4.781-1.4 0.004 0.002-3.312-0.143-3.354-0.088 0.475 0.215 1.445-2.479 1.351-2.326-3.731 0.035-7.345-0.803-10.895-1.188 5.723-1.935 12.173-3.521 17.887-5.787-6.559-0.144-13.291-1.539-18.843-4.498 5.184-0.517 10.276-2.133 15.489-2.726-4.674 0.718-10.605-1.061-14.939-1.987-0.143 0.09-0.049-1.845-0.025-1.812 11.609-0.754 23.201-2.768 35.006-3.076 0.622-0.155-0.376-0.03-0.526-0.024-7.406 2.137-15.025 3.125-22.366 4.553 4.352 0.264 8.534 1.672 12.809 2.07-4.783 1.84-9.773 3.731-14.958 4.928-0.564-0.01-0.567-0.02-0.011-0.027 7.618 0.002 15.236 0.002 22.854 0.002-3.344 0.371-6.546 1.334-9.73 1.888 1.993 0.014 4.227 0.108 6.216 0.227-4.483 0.713-8.812 2.594-12.845 3.775-0.053 0.039 2.686-0.039 2.809 0.086-2.104 0.797-4.784 1.74-6.654 3.049 6.375-0.039 13.377-0.146 19.329 0.328-4.941 1.401-9.824 3.039-14.854 3.674 6.318 0.018 12.608 0.125 18.704 0.84-4.774 2.217-10.215 4.125-15.364 5.146-0.28-0.015-0.562-0.019-0.842-0.013 4.971 0.136 9.764 0.838 14.73 0.976-0.815 0.719-4.473 1.731-5.439 2.037-0.376 0.383 2.534 0.799 2.308 0.977-3.374 1.01-6.977 2.875-10.574 3.635 2.479-0.037 5.484 0.451 8.186 0.353-3.177 0.715-6.247 2.531-8.797 3.397 2.253 0.644 4.405 0.486 6.771 0.713-1.177 1.728-3.841 1.472-4.896 2.912 1.419 0.791 3.898-0.071 5.018 1.392-1.793 0.805-4.355 1.061-5.933 2.221-0.098 0.299-0.115 0.604-0.056 0.916 2.884 0.357 7.935 2.309 10.59 2.475-3.575 2.03-4.535 1.03-8.554 0.99z"/>
			<path d="m73.986 75.256c-10.418-0.151-21.382 0.652-31.818 1.373-0.184 0.015-0.107 0.019 0.228 0.015 9.461-1.191 18.786-3.035 28.039-5.275-8.855 0.055-21.035 2.475-29.183-1.676 7.864-2.771 16.74-3.445 24.914-5.324-4.414 0.098-9.196-0.584-13.21-2.432 3.524-0.34 7.497-0.931 10.271-2.754-1.423-0.095-2.995-0.729-4.461-0.851 1.783-0.914 3.701-2.483 5.979-2.896-5.826-0.146-14.735 1.459-19.254-2.318 6.216-1.408 13.257 0.391 19.244-1.676-3.859-1.092-7.829-2.482-10.989-5.031 5.305 0.781 10.608 2.639 15.976 2.932 0.019 0.017 0.01-0.934-0.018-0.911-7.449-1.943-14.716-3.964-21.911-6.812 6.262-0.115 12.473 0.688 18.729 0.51 0.188 0.006 0.192 0.011 0.013 0.015-5.084-1.252-8.999-5.175-12.036-8.974 8.564 0.002 15.916 4.871 24.528 4.711 0.214-0.002 0.201-0.002-0.037 0.004-5.021-0.604-9.219-3.317-12.876-6.651 1.601 0.481 3.33 0.451 4.87 0.858-2.3-1.266-3.037-3.151-4.476-4.674 6.749-0.098 13.278 2.004 19.912 2.729-1.482-1.412-2.461-3.344-3.671-4.689 1.375 1.592 3.914 2.41 5.254 3.385-0.006-0.973 0.129-2.104 0.021-3.178 1.457 1.351 3.437 3.465 4.622 5.381-1.396-0.823-3.021-1.021-4.317-1.633 0.509 0.881 0.933 2.103 1.318 2.98-6.049-0.404-12.219 0.065-18.191-0.918 3.049 3.969 8.497 6 12.691 8.668-6.438 0.166-12.636-0.332-18.887-1.718 2.89 2.783 7.049 3.517 10.209 5.904-3.886 0.221-7.78-0.024-11.646-0.213 4.122 1.578 8.888 2.002 12.386 4.715-3.899 0.789-7.842 2.332-11.711 2.736 3.065 0.578 6.182 1.557 8.86 3.074-2.673-0.129-5.619 0.104-8.108 0.184 2.633 0.379 5.252 1.35 7.664 2.117-2.675 0.721-5.251 1.717-7.887 2.486 0.074 0.022-0.248 0.629-0.28 0.649 1.653 0.168 3.083 0.709 4.735 0.851-2.367 0.485-4.852 1.407-6.984 1.895 3.504 0.303 6.857 0.479 9.66 2.514-3.156 0.869-6.521 1.875-9.404 2.992 0.634 0.229 1.511-0.006 2.166 0.094-1.778 0.479-3.541 1.408-5.471 1.72-0.186-0.004-0.191-0.009-0.019-0.015 4.583 0.146 9.263 0.578 13.691 1.502-0.449 0.185 0.481 0.281 0.537 0.3-1.242 0.387-2.565 1.311-3.713 1.692 1.184 0.727 2.714 1.332 4.041 1.633z"/>
			<path d="m79.736 216.13c-9.354 4.429-21.317 4.625-31.514 6.666 0.059-0.004-0.875 0.078-0.391 0 6.574-0.446 13.269-2.305 19.748-1.43-4.042 1.148-8.391 2.734-10.646 5.721 2.414-0.682 4.938-0.812 7.448-1.797-2.013 1.496-3.543 3.738-5.042 5.137 4.441-1.342 8.889-3.471 13.52-4.243-2.84 3.561-6.949 7.606-9.512 11.229 3.311-1.164 7.064-2.436 10.208-4.244-1.096 1.01-2.457 2.554-3.643 3.586 3.486-1.938 7.131-3.981 10.536-5.936-2.248 2.707-2.942 6.147-3.838 9.262 4.708-0.516 9.294-2.065 13.846-3.604-0.979 1.01-2.007 2.407-2.87 3.311 2.066-1.969 4.942-3.479 7.196-5.311-0.755 2.194-1.068 4.932-1.831 6.969 2.497-3.197 3.98-7.59 4.307-11.877-1.811 2.137-4.446 3.496-6.312 5.438-0.127-0.266 0.831-1.692 0.598-1.85-3.605 2.107-7.484 3.391-11.281 2.908 2.282-3.035 4.354-6.369 5.923-9.549-3.292 1.332-7.278 2.504-10.83 3.248 1.585-1.83 2.134-4.179 3.513-5.921-0.977-0.104-2.244 1.216-3.254 1.597-0.054-1.135 1.407-2.242 1.257-3.24-1.936 0.285-4.034 0.104-6.015 0.266-0.146 0.091-0.07 0.111 0.359 0.023 2.817-2.12 5.698-4.37 8.52-6.38z"/>
				</g><radialGradient id="l" gradientUnits="userSpaceOnUse" cy="147.44" cx="121.6" gradientTransform="matrix(1 0 0 -1 -8.3599 288.25)" r="129.01">
				<stop stop-color="#EDD494" offset="0"/>
				<stop stop-color="#EDD494" stop-opacity="0" offset="1"/>
			</radialGradient>
			<path d="m149.59 50.77c11.529-1.369 22.297 0.405 33.921-0.691-8.388 1.566-17.233 2.312-25.488 4.291 6.451-0.594 12.871-1.104 19.216 0.832-6.73-0.002-14.939 1.07-20.729 4.916 5.302 1.146 11.241 0.65 16.812 0.652 0.322-0.013 0.236-0.019-0.259-0.017-1.162 0.072-2.481 0.47-3.456 0.615 4.679 0.324 10.004 1.131 13.607 3.008-10.769 0.92-21.554 3.142-32.302 1.492 4.077-1.084 8.315-1.801 12.429-2.791-4.353 0.172-10.211-0.014-15.093-0.377 1.949-0.498 4.685-1.854 6.386-2.289-1.962 0.004-4.273-0.438-6.357-0.361 3.049-1.479 7.125-2.957 10.572-4.549-4.863 0.32-9.892 0.297-14.801 0.22 0.309-0.33 0.235-0.978-0.091-1.201 2.979-0.982 4.231-2.185 7.939-2.15-1.652-0.158-3.938-0.613-5.945-0.666 1.1-0.587 2.35-0.612 3.63-0.934z" fill="url(#l)"/>
			<path d="m161.76 71.518c5.406-0.861 11.049 1.02 16.498 1.246-3.94 0.672-7.875 1.655-11.848 2.211 4.707 0.034 8.846 0.868 13.535 1.834-2.188 0.026-4.809 0.262-6.742 1.297 1.454 0.237 3.348 0.992 4.907 1.166-0.623 0.108-1.536 0.457-2.192 0.627 1.882 0.061 3.846 0.752 5.163 1.846-2.878 0.527-5.583 1.81-8.471 2.391 2.576 1.783 6.101 2.093 8.813 3.935-10.028 0.018-20.01 0.188-30.023-0.301-0.121 0.002-0.123 0.006-0.008 0.008 4.766-0.889 9.832-1.33 14.656-1.998-0.427-0.137-0.761-0.096-1.188-0.168 1.917-0.178 3.994-0.322 5.775-0.674-4.88-1.41-10.197-1.213-15.221-1.871 2.999-0.771 6.104-1.422 9.14-2.138-0.007-0.045-0.747 0.062-0.762 0.017 2.228-0.396 4.479-0.74 6.584-1.555-4.074-0.57-8.243-0.021-12.363-0.146 2.043-0.596 4.623-1.068 6.069-2.117-4.691-0.479-9.854 0.515-14.309-0.99 3.844-0.952 7.877-0.907 11.802-1.235-3.991-0.789-8.28-0.666-12.139-1.752 4.05-1.247 8.14-1.227 12.32-1.633z" fill="url(#a)"/>
			<path d="m157.89 90.291c6.955 1.105 14.078 1.797 21.037 2.892 3.383 0.528 3.623 0.711 5.496 3.141-3.065 0.158-6.063 0.906-9.123 1.16 4.369 0.178 0.729 2.396-1.224 3.002-3.473 1.078-7.146 1.291-10.663 2.168 5.834 0.313 12.533-0.144 17.774 2.91-3.694 1.381-8.464 0.807-12.067 2.567 2.822 1.027 6.877 0.629 9.228 2.576-3.097 1.103-7.7 0.533-10.306 2.543 1.96 0.314 4.619-0.141 6.267 0.654-0.974 0.547-2.075 0.852-3.1 1.315 4.162 0.472 7.77 0.916 11.304 3.039-2.215 0.273-5.028 0.748-6.786 2.062 1.829 0.203 3.723-0.199 5.498 0.115-1.777 1.303-5.704 0.938-6.885 3.065 1.587 0.945 3.737 0.527 5.282 1.332-0.278 0.131-0.658 0.383-0.897 0.517 0.896-0.06 1.948 0.153 2.728 0.354 0.034-0.016-0.002 0.244-0.011 0.234-10.992 0.992-22.786 1.276-33.803-0.154 3.132-0.482 18.972-0.525 21.675-2.025-3.282-0.596-19.163 1.498-22.159 0 2.713-0.979 5.832-0.696 8.638-1.457-0.882 0-1.767-0.077-2.648-0.075 7.299-1.316 14.86-0.939 22.233-1.688-6.182-1.617-15.211-1.309-13.145-2.33-2.169-0.785-4.709-0.401-6.956-1.021 6.369-2.064 13.854 0.987 20.2-0.881 0.012-0.054 0.008-0.105-0.009-0.156-4.166-0.781-9.097-1.228-13.393-1.623 0.475 0.004 0.951-0.01 1.426 0.012-3.188-0.645-6.666-1.062-9.925-1.494 3.636-0.438 7.556-0.521 11.104-1.524-4.191-1.472-9.849-0.199-14.248-0.355-3.201-0.113-6.699-0.168-9.813-0.994 9.133-1.487 18.255-2.608 27.429-3.78-3.419-0.316-7.055 0.579-10.399-0.068 1.435-1.01 3.924-0.961 5.388-1.91-5.629-0.395-11.377-0.428-16.812-2.107 8.243-1.913 17.149-2 25.545-3.274-5.024-0.363-10.096-0.514-15.08-1.271 5.963-0.727 20.182-0.989 22.423-3.182-5.217-0.4-10.418-1.646-15.579-2.494-1.98-0.323-3.88-0.831-5.65-1.788z" fill="url(#b)"/>
				<radialGradient id="k" gradientUnits="userSpaceOnUse" cy="168.06" cx="162.78" gradientTransform="matrix(1 0 0 -1 -8.3599 288.25)" r="0">
				<stop stop-color="#EDD494" offset="0"/>
				<stop stop-color="#EDD494" stop-opacity="0" offset="1"/>
			</radialGradient>
			<path d="m154.42 120.19" fill="url(#k)"/>
			<path d="m159.09 130.77c8.011 0.104 15.979-0.306 23.873-1.013-6.481 1.916-12.834 4.349-19.246 6.535 4.765-0.336 9.631 0.285 14.365 0.076-4.543 1.146-8.938 3.498-13.377 4.924 5.351-0.373 10.178 0.701 15.301 1.101-5.07 0.633-10.269 2.168-15.315 2.899 3.859-0.178 7.719 0.517 11.385 0.603-5.836 1.918-12.069 3.182-17.975 5.51 5.979 0.211 12.893 1.088 18.985 2.477-6.104 0.57-12.644 2.136-18.514 4.523 4.629-0.104 10.169 0.934 14.902 0.977-1.523 0.496-3.298 0.869-4.782 1.4-0.003-0.002 3.312 0.143 3.354 0.088-0.475-0.215-1.444 2.478-1.351 2.326 3.731-0.035 7.345 0.803 10.895 1.188-5.723 1.935-12.173 3.521-17.887 5.787 6.56 0.144 13.291 1.539 18.843 4.498-5.184 0.515-10.275 2.133-15.488 2.726 4.674-0.72 10.604 1.061 14.938 1.987 0.144-0.09 0.049 1.843 0.026 1.812-11.61 0.752-23.202 2.766-35.006 3.076-0.622 0.153 0.376 0.028 0.525 0.022 7.406-2.137 15.025-3.125 22.366-4.551-4.351-0.266-8.534-1.672-12.808-2.07 4.782-1.84 9.772-3.731 14.958-4.928 0.563 0.01 0.566 0.019 0.01 0.027-7.618-0.004-15.236-0.002-22.854-0.002 3.345-0.371 6.547-1.334 9.73-1.888-1.993-0.016-4.227-0.108-6.215-0.227 4.482-0.713 8.812-2.594 12.844-3.775 0.053-0.041-2.685 0.037-2.808-0.086 2.104-0.799 4.783-1.742 6.653-3.051-6.375 0.041-13.377 0.148-19.329-0.326 4.941-1.403 9.824-3.039 14.854-3.674-6.318-0.018-12.608-0.125-18.704-0.84 4.775-2.217 10.215-4.125 15.365-5.146 0.28 0.013 0.561 0.017 0.841 0.013-4.97-0.136-9.763-0.84-14.73-0.978 0.815-0.719 4.474-1.731 5.439-2.035 0.376-0.383-2.534-0.799-2.307-0.977 3.374-1.01 6.976-2.877 10.573-3.635-2.479 0.037-5.483-0.451-8.186-0.353 3.177-0.715 6.247-2.533 8.797-3.397-2.253-0.644-4.405-0.486-6.771-0.715 1.177-1.726 3.841-1.47 4.895-2.91-1.419-0.791-3.897 0.071-5.017-1.392 1.793-0.805 4.354-1.061 5.932-2.221 0.098-0.299 0.116-0.604 0.056-0.916-2.884-0.357-7.935-2.309-10.59-2.475 3.63-2.03 4.59-1.03 8.61-0.99z" fill="url(#a)"/>
			<path d="m151.84 187.64c10.418 0.151 21.383-0.652 31.818-1.375 0.184-0.013 0.108-0.017-0.227-0.013-9.461 1.191-18.786 3.033-28.039 5.273 8.854-0.053 21.034-2.475 29.182 1.676-7.864 2.771-16.74 3.445-24.914 5.324 4.414-0.098 9.197 0.584 13.21 2.432-3.523 0.34-7.497 0.931-10.27 2.756 1.423 0.095 2.995 0.728 4.461 0.851-1.784 0.914-3.702 2.481-5.979 2.895 5.826 0.146 14.735-1.457 19.254 2.318-6.216 1.41-13.257-0.391-19.244 1.676 3.859 1.094 7.829 2.484 10.989 5.033-5.305-0.781-10.607-2.639-15.975-2.932-0.02-0.019-0.01 0.934 0.017 0.909 7.449 1.943 14.716 3.964 21.911 6.812-6.261 0.113-12.472-0.688-18.729-0.512-0.188-0.004-0.193-0.009-0.014-0.013 5.084 1.252 8.999 5.173 12.036 8.974-8.563-0.004-15.916-4.871-24.528-4.711-0.214 0.002-0.2 0 0.037-0.006 5.021 0.604 9.22 3.317 12.876 6.653-1.601-0.481-3.33-0.451-4.87-0.858 2.301 1.264 3.037 3.149 4.476 4.672-6.749 0.1-13.278-2.002-19.912-2.729 1.483 1.412 2.461 3.345 3.671 4.691-1.375-1.594-3.914-2.41-5.254-3.387 0.006 0.973-0.129 2.104-0.021 3.18-1.456-1.353-3.437-3.465-4.621-5.381 1.396 0.821 3.021 1.021 4.316 1.631-0.509-0.881-0.932-2.103-1.317-2.979 6.049 0.404 12.219-0.065 18.19 0.918-3.049-3.971-8.497-6-12.69-8.668 6.438-0.166 12.636 0.332 18.887 1.718-2.891-2.783-7.049-3.519-10.209-5.906 3.885-0.219 7.78 0.026 11.646 0.213-4.122-1.576-8.888-2.002-12.386-4.713 3.9-0.791 7.842-2.332 11.711-2.738-3.064-0.578-6.181-1.555-8.86-3.072 2.674 0.129 5.619-0.106 8.108-0.184-2.633-0.379-5.252-1.35-7.664-2.119 2.675-0.721 5.251-1.715 7.887-2.484-0.073-0.022 0.248-0.631 0.28-0.649-1.653-0.17-3.083-0.709-4.735-0.853 2.367-0.483 4.852-1.405 6.984-1.895-3.504-0.303-6.856-0.478-9.66-2.512 3.156-0.871 6.521-1.875 9.404-2.994-0.633-0.229-1.51 0.008-2.166-0.092 1.779-0.479 3.541-1.408 5.471-1.722 0.187 0.004 0.191 0.011 0.02 0.015-4.583-0.146-9.264-0.576-13.692-1.5 0.449-0.187-0.48-0.281-0.537-0.3 1.242-0.387 2.566-1.312 3.713-1.694-1.2-0.72-2.73-1.33-4.06-1.63z" fill="url(#a)"/>
			<path d="m146.09 46.77c9.354-4.429 21.317-4.625 31.515-6.668-0.06 0.004 0.875-0.078 0.39 0-6.574 0.446-13.268 2.305-19.748 1.432 4.042-1.148 8.392-2.736 10.647-5.723-2.414 0.682-4.939 0.813-7.449 1.797 2.013-1.494 3.543-3.738 5.042-5.137-4.441 1.342-8.888 3.473-13.52 4.245 2.841-3.561 6.949-7.606 9.513-11.229-3.312 1.166-7.065 2.438-10.208 4.246 1.095-1.012 2.457-2.556 3.642-3.586-3.486 1.938-7.131 3.979-10.536 5.936 2.248-2.707 2.942-6.147 3.838-9.264-4.708 0.518-9.294 2.068-13.846 3.606 0.979-1.01 2.007-2.407 2.87-3.312-2.066 1.971-4.942 3.479-7.196 5.311 0.755-2.194 1.068-4.93 1.831-6.967-2.497 3.197-3.979 7.59-4.307 11.877 1.811-2.137 4.447-3.496 6.312-5.438 0.127 0.264-0.831 1.692-0.598 1.848 3.606-2.104 7.485-3.391 11.282-2.906-2.283 3.035-4.354 6.369-5.923 9.547 3.292-1.332 7.277-2.504 10.83-3.245-1.586 1.827-2.135 4.178-3.514 5.92 0.978 0.104 2.244-1.216 3.254-1.597 0.055 1.134-1.406 2.24-1.257 3.24 1.937-0.287 4.034-0.106 6.015-0.266 0.146-0.093 0.07-0.111-0.359-0.023-2.79 2.098-5.67 4.35-8.49 6.356z" fill="url(#b)"/><g fill="#876612">
				<polygon points="89.487 44.624 55.903 38.508 89.651 43.638"/>
				<polygon points="89.62 48.797 72.736 49.977 89.521 47.801"/>
				<polygon points="89.61 61.344 65.236 62.832 89.528 60.348"/>
				<polygon points="89.608 65.898 44.57 68.861 89.532 64.902"/>
				<polygon points="137.52 213.46 154.4 212.28 137.62 214.46"/>
				<polygon points="137.53 200.92 161.9 199.43 137.61 201.91"/>
				<polygon points="137.53 196.36 182.57 193.4 137.61 197.36"/>
				<polygon points="137.54 174.44 156.56 173.69 137.6 175.44"/>
				<polygon points="137.54 167.49 167.24 166.07 137.6 168.49"/>
				<polygon points="137.56 147.88 182.57 147.48 137.58 148.88"/>
				<polygon points="137.56 142.42 169.57 142.54 137.58 143.42"/>
				<polygon points="137.58 125.7 182.57 126.85 137.56 126.7"/>
				<polygon points="137.59 117.35 154.4 118.43 137.55 118.35"/>
				<polygon points="137.58 114.07 169.57 115.4 137.56 115.07"/>
				<polygon points="137.61 92.281 171.24 95.473 137.53 93.277"/>
				<polygon points="136.51 90.026 181.47 93.734 136.44 91.024"/>
				<polygon points="137.61 69.584 164.33 72.295 137.53 70.58"/>
				<polygon points="137.6 67.211 169.57 70.082 137.53 68.207"/>
				<polygon points="137.54 47.358 164.33 46.07 137.6 48.356"/>
				<polygon points="89.604 87.821 70.576 88.568 89.537 86.823"/>
				<polygon points="89.602 94.771 59.903 96.193 89.537 93.772"/>
				<polygon points="89.58 114.38 44.57 114.78 89.561 113.38"/>
				<polygon points="89.575 119.84 57.569 119.72 89.563 118.84"/>
				<polygon points="89.562 136.56 44.569 135.41 89.576 135.56"/>
				<polygon points="89.553 144.91 72.736 143.83 89.586 143.91"/>
				<polygon points="89.558 148.19 57.569 146.86 89.583 147.19"/>
				<polygon points="89.529 169.98 55.903 166.79 89.609 168.98"/>
				<polygon points="90.631 172.23 45.667 168.53 90.703 171.24"/>
				<polygon points="89.528 192.68 62.811 189.97 89.61 191.68"/>
				<polygon points="89.533 195.05 57.569 192.18 89.607 194.06"/>
				<polygon points="89.603 214.9 62.811 216.19 89.536 213.9"/>
				<polygon points="98.144 36.008 91.902 24.797 98.997 35.488"/>
				<polygon points="112.83 30.691 112.57 21.465 113.83 30.609"/>
				<polygon points="119.79 32.514 121.9 29.297 120.69 32.951"/>
				<polygon points="129.76 35.588 135.07 21.465 130.71 35.908"/>
				<polygon points="135.02 38.184 141.76 31.016 135.78 38.832"/>
				<polygon points="137.29 37.634 141.76 33.797 138 38.335"/>
				<polygon points="90.508 38.982 68.167 31.016 90.824 38.033"/>
				<polygon points="96.231 222.84 79.416 236.8 95.575 222.09"/>
				<polygon points="104.02 226 98.57 236.8 103.11 225.59"/>
				<polygon points="110.07 223.8 109.57 240.8 109.07 223.8"/>
				<polygon points="112.4 223.75 113.24 239.13 111.4 223.84"/>
				<polygon points="116.33 222.2 126.24 239.13 115.48 222.73"/>
				<polygon points="126.55 219.23 144.56 234.13 125.93 220.02"/>
				<polygon points="133.24 211.65 165.9 234.13 132.68 212.49"/>
		<polygon opacity=".4" enable-background="new " points="148.56 194.26 147.92 192.79 149.21 190.7 148.29 188.01 148 186.17 148.21 184.29 148.63 181.85 148.16 179.81 148.88 177.8 148.78 174.01 144.88 173.57 142.66 172.77 140.88 172.07 140.51 170.75 140.63 168.75 140.65 167.02 142.46 164.53 141.36 162.2 142.49 159.82 140.48 157.36 140.53 155.88 141.14 153.48 140.64 151.68 141.66 150.5 142.41 149.2 144.1 148.84 146.1 147.54 148.17 145.84 147.9 143.26 147.97 141.59 150.06 139.02 148.7 136.13 148.42 134.56 149.64 132.27 148.54 127.77 149.66 125.62 149.34 122.94 148.76 120.88 150.04 116.6 145.11 116.55 143.24 114.91 141.24 114.17 140.68 113.36 141.59 111.29 140.71 109.26 142.31 107.14 141.5 104.35 141.28 102.25 140.59 100.24 141.62 97.934 140.42 95.516 140.69 93.744 140.84 91.783 141.48 91.184 144.88 92.078 145.96 89.17 148.87 89.088 148.84 85.369 148.38 83.311 149.07 81.557 149.46 78.891 149.26 76.568 148.78 74.373 148.82 72.623 149.78 70.1 148.55 67.621 148.42 65.832 148.55 63.906 149.66 59.947 145.3 59.195 143.04 57.283 141.39 57.293 141.61 56.799 142.13 54.154 141.96 51.85 141.27 49.549 141.13 47.891 141.93 45.738 141.62 43.271 141.19 41.535 142.65 39.02 140.25 36.299 138.35 35.074 135.78 33.559 133.08 34.08 131.19 33.354 129.32 33.172 127.66 31.221 124.4 30.529 122.09 31.316 120.52 30.225 117.79 29.834 116.1 29.641 113.8 27.17 110.35 28.561 108.59 29.523 106.36 29.445 103.91 30.201 101.4 31.172 99.85 32.5 97.646 32.328 95.294 33.453 93.321 34.01 90.771 34.48 88.891 35.844 86.706 36.072 84.853 38.891 85.286 41.373 85.066 43.176 84.308 45.736 85.62 48.295 86.186 49.844 85.39 52.016 86.433 54.404 86.457 55.834 85.548 57.342 84.295 58.689 81.345 58.479 78.396 60.77 77.521 63.449 77.535 66.086 78.315 68.377 78.592 69.926 77.431 71.906 77.104 74.768 78.086 76.938 77.9 78.564 77.206 80.586 76.977 83.389 77.631 85.514 77.17 89.047 80.928 89.896 82.69 90.688 84.412 91.205 84.874 91.871 84.607 93.266 84.388 96.145 85.949 98.479 86.077 99.787 84.333 102.1 84.953 104.65 84.511 106.54 84.425 109.08 84.428 111.3 85.016 113.65 84.918 114.8 83.833 116.14 82.102 116.82 76.311 116.47 78.356 120.83 77.33 122.74 77.215 125.6 78.085 127.94 78.277 129.99 78.712 131.84 77.259 134.06 77.863 136.91 78.31 138.8 77.684 141 78.084 143.18 76.385 147.68 81.234 147.34 84.269 150.1 85.737 150.22 85.525 151.33 85.906 153.43 85.345 155.28 85.058 158.14 86.103 160.26 85.762 162.26 86.206 164.2 85.184 166.15 84.924 168.85 85.395 170.71 83.79 173.35 82.163 173.74 76.039 173.23 79.018 177.99 79.026 179.17 76.851 181.45 77.414 184.34 78.413 186.44 78.092 188.32 78.24 190.34 77.562 192.21 77.016 195.15 78.306 197.19 77.542 199.32 78.888 201.61 81.042 204.91 84.503 203.73 85.186 204.36 84.934 206.13 85.676 208.52 85.574 210.87 86.408 213.19 86.322 215.3 86.338 217.47 85.464 221.9 84.203 226.94 89.203 226.04 90.719 226.96 92.674 228.04 95.296 229.68 97.946 228.95 101.38 231.33 104.04 232.2 108.97 232.36 110.68 232.6 113.36 235.09 115.7 232.9 117.93 233.61 120.92 232.93 123.08 231.59 124.77 230.66 127.33 230.53 129.17 228.98 131.24 228.96 133.62 228.18 136.1 227.44 138.12 225.98 139.95 225.17 141.53 222.53 141.13 219.79 141.08 217.83 142.12 215.07 140.38 212.6 140.62 211.09 142.01 208.47 141.19 205.8 141.21 204.75 142.87 204.21 144.87 202.9 148.92 202.93 148.74 199.44 149.84 196.99"/>
				</g><radialGradient id="j" gradientUnits="userSpaceOnUse" cy="-9.3469" cx="-348.86" gradientTransform="matrix(.005 -1 -.484 -.0024 110.59 -217.9)" r="127.48">
				<stop stop-color="#E2BD47" offset="0"/>
				<stop stop-color="#D79C32" offset="1"/>
			</radialGradient>
			<polygon points="113.33 29.99 115.12 32.045 117.25 32.308 119.36 32.631 121.16 33.971 123.65 33.066 125.71 33.537 127.31 35.551 129.46 35.772 131.42 36.584 133.78 36.098 135.65 37.273 137.18 38.335 138.62 40.089 137.48 42.194 137.98 44.3 138.23 46.402 137.5 48.507 137.67 50.614 138.29 52.722 138.44 54.83 138.08 56.941 137 59.526 140.22 59.504 142.19 61.292 145.05 61.82 144.4 64.318 144.26 66.469 144.4 68.619 145.41 70.769 144.64 72.919 144.6 75.065 145.05 77.215 145.22 79.367 144.96 81.52 144.16 83.672 144.65 85.828 144.67 88.042 142.41 88.109 141.54 90.63 138.91 89.891 137.3 91.499 137.13 93.891 136.81 96.088 137.84 98.287 136.92 100.49 137.67 102.68 137.88 104.88 138.48 107.08 136.93 109.28 137.83 111.48 136.92 113.69 138.12 115.55 140.15 116.36 142.1 118.19 145.29 118.22 144.52 120.97 145.12 123.19 145.37 125.41 144.29 127.63 144.82 129.85 145.31 132.07 144.21 134.29 144.58 136.51 145.55 138.74 143.87 140.96 143.78 143.19 143.97 145.08 142.76 146.15 141.15 147.27 139.19 147.71 138.34 149.37 136.92 151.13 137.48 153.28 136.98 155.44 136.9 157.59 138.55 159.74 137.59 161.9 138.54 164.05 137.08 166.21 137.06 168.36 136.93 170.52 137.53 172.77 139.85 173.75 142.12 174.63 144.63 174.93 144.69 177.12 143.97 179.26 144.43 181.4 144.09 183.53 143.86 185.67 144.18 187.8 144.86 189.94 143.63 192.08 144.51 194.22 145.44 196.36 144.54 198.51 144.65 200.72 142.02 200.7 139.94 202.15 137.62 202.96 137.57 205.28 138.23 207.57 137.1 209.86 136.76 212.16 138.28 214.45 137.47 216.75 137.52 219.05 137.84 221.35 136.85 223.11 135.45 223.78 133.66 225.16 131.62 225.8 129.61 226.51 127.38 226.53 125.65 228.1 123.44 228.22 121.56 229.33 119.72 230.55 117.64 231.05 115.1 230.19 113.33 231.97 111.56 230.21 109.42 229.89 107.21 229.79 104.99 229.73 102.98 229.02 101.18 227.68 99.369 226.35 96.881 227.09 95.04 225.85 93.159 224.74 91.305 223.53 88.356 224.1 88.997 221.36 89.4 219.06 89.845 216.77 89.83 214.48 89.918 212.18 89.147 209.88 89.24 207.58 88.573 205.28 88.865 203.09 87.018 201.3 84.088 202.37 82.734 200.15 81.84 198.52 82.555 196.38 81.291 194.24 81.647 192.1 82.371 189.96 82.225 187.83 82.568 185.69 81.565 183.55 81.176 181.41 83.086 179.27 83.07 177.13 81.579 174.57 84.608 174.84 86.966 174.23 88.236 172.07 89.062 170.53 88.552 168.38 88.745 166.22 89.799 164.07 89.336 161.92 89.68 159.77 88.688 157.61 88.869 155.45 89.479 153.3 89.115 151.14 89.556 148.67 87.097 148.46 85.646 147.03 84.176 145.63 81.318 145.85 82.254 143.2 81.873 140.98 82.461 138.76 81.971 136.53 81.531 134.31 82.89 132.1 82.383 129.88 82.189 127.65 81.416 125.43 81.499 123.2 82.619 120.98 81.433 118.27 84.682 118.48 86.982 117.51 88.49 115.51 88.637 113.69 88.077 111.5 88.074 109.3 88.12 107.1 88.6 104.9 88.1 102.7 89.646 100.5 89.447 98.302 88.069 96.102 88.22 93.896 88.57 91.937 87.529 90.321 85.62 89.729 83.848 88.876 81.515 88.312 81.816 85.836 81.199 83.686 81.326 81.536 82.016 79.387 82.245 77.236 81.336 75.09 81.565 72.939 82.744 70.787 82.386 68.635 81.701 66.482 81.689 64.326 82.302 62.318 84.217 60.726 87.092 60.947 88.846 58.929 89.961 56.948 89.927 54.843 89.068 52.737 89.788 50.635 89.072 48.53 88.062 46.424 88.646 44.315 88.885 42.207 88.54 40.096 89.579 38.404 91.291 38.212 93.082 36.822 95.166 36.41 97.191 35.798 99.105 34.818 101.37 35.008 103.1 33.427 105.06 32.605 107.08 31.943 109.31 32.026 111.15 30.934" fill="url(#j)"/>
			<polygon fill="none" stroke="#876612" stroke-width="3" stroke-miterlimit="10" points="113.33 29.99 115.12 32.045 117.25 32.308 119.36 32.631 121.16 33.971 123.65 33.066 125.71 33.537 127.31 35.551 129.46 35.772 131.42 36.584 133.78 36.098 135.65 37.273 137.18 38.335 138.62 40.089 137.48 42.194 137.98 44.3 138.23 46.402 137.5 48.507 137.67 50.614 138.29 52.722 138.44 54.83 138.08 56.941 137 59.526 140.22 59.504 142.19 61.292 145.05 61.82 144.4 64.318 144.26 66.469 144.4 68.619 145.41 70.769 144.64 72.919 144.6 75.065 145.05 77.215 145.22 79.367 144.96 81.52 144.16 83.672 144.65 85.828 144.67 88.042 142.41 88.109 141.54 90.63 138.91 89.891 137.3 91.499 137.13 93.891 136.81 96.088 137.84 98.287 136.92 100.49 137.67 102.68 137.88 104.88 138.48 107.08 136.93 109.28 137.83 111.48 136.92 113.69 138.12 115.55 140.15 116.36 142.1 118.19 145.29 118.22 144.52 120.97 145.12 123.19 145.37 125.41 144.29 127.63 144.82 129.85 145.31 132.07 144.21 134.29 144.58 136.51 145.55 138.74 143.87 140.96 143.78 143.19 143.97 145.08 142.76 146.15 141.15 147.27 139.19 147.71 138.34 149.37 136.92 151.13 137.48 153.28 136.98 155.44 136.9 157.59 138.55 159.74 137.59 161.9 138.54 164.05 137.08 166.21 137.06 168.36 136.93 170.52 137.53 172.77 139.85 173.75 142.12 174.63 144.63 174.93 144.69 177.12 143.97 179.26 144.43 181.4 144.09 183.53 143.86 185.67 144.18 187.8 144.86 189.94 143.63 192.08 144.51 194.22 145.44 196.36 144.54 198.51 144.65 200.72 142.02 200.7 139.94 202.15 137.62 202.96 137.57 205.28 138.23 207.57 137.1 209.86 136.76 212.16 138.28 214.45 137.47 216.75 137.52 219.05 137.84 221.35 136.85 223.11 135.45 223.78 133.66 225.16 131.62 225.8 129.61 226.51 127.38 226.53 125.65 228.1 123.44 228.22 121.56 229.33 119.72 230.55 117.64 231.05 115.1 230.19 113.33 231.97 111.56 230.21 109.42 229.89 107.21 229.79 104.99 229.73 102.98 229.02 101.18 227.68 99.369 226.35 96.881 227.09 95.04 225.85 93.159 224.74 91.305 223.53 88.356 224.1 88.997 221.36 89.4 219.06 89.845 216.77 89.83 214.48 89.918 212.18 89.147 209.88 89.24 207.58 88.573 205.28 88.865 203.09 87.018 201.3 84.088 202.37 82.734 200.15 81.84 198.52 82.555 196.38 81.291 194.24 81.647 192.1 82.371 189.96 82.225 187.83 82.568 185.69 81.565 183.55 81.176 181.41 83.086 179.27 83.07 177.13 81.579 174.57 84.608 174.84 86.966 174.23 88.236 172.07 89.062 170.53 88.552 168.38 88.745 166.22 89.799 164.07 89.336 161.92 89.68 159.77 88.688 157.61 88.869 155.45 89.479 153.3 89.115 151.14 89.556 148.67 87.097 148.46 85.646 147.03 84.176 145.63 81.318 145.85 82.254 143.2 81.873 140.98 82.461 138.76 81.971 136.53 81.531 134.31 82.89 132.1 82.383 129.88 82.189 127.65 81.416 125.43 81.499 123.2 82.619 120.98 81.433 118.27 84.682 118.48 86.982 117.51 88.49 115.51 88.637 113.69 88.077 111.5 88.074 109.3 88.12 107.1 88.6 104.9 88.1 102.7 89.646 100.5 89.447 98.302 88.069 96.102 88.22 93.896 88.57 91.937 87.529 90.321 85.62 89.729 83.848 88.876 81.515 88.312 81.816 85.836 81.199 83.686 81.326 81.536 82.016 79.387 82.245 77.236 81.336 75.09 81.565 72.939 82.744 70.787 82.386 68.635 81.701 66.482 81.689 64.326 82.302 62.318 84.217 60.726 87.092 60.947 88.846 58.929 89.961 56.948 89.927 54.843 89.068 52.737 89.788 50.635 89.072 48.53 88.062 46.424 88.646 44.315 88.885 42.207 88.54 40.096 89.579 38.404 91.291 38.212 93.082 36.822 95.166 36.41 97.191 35.798 99.105 34.818 101.37 35.008 103.1 33.427 105.06 32.605 107.08 31.943 109.31 32.026 111.15 30.934"/>
				<radialGradient id="c" gradientUnits="userSpaceOnUse" cy="157.12" cx="122.1" gradientTransform="matrix(1 0 0 -1 -8.3599 288.25)" r="145.11">
				<stop stop-color="#EDD494" offset="0"/>
				<stop stop-color="#EDD494" stop-opacity="0" offset="1"/>
			</radialGradient>
			<path d="m94.583 41.766c2.965 0.209 5.936-0.341 8.808-0.769-1.11 0.418-2.236 1.047-3.445 1.435 2.31 0.051 4.64-0.091 6.948-0.107-2.185 3.293-6.692 4.217-10.306 5.656 3.826-0.615 8.594-2.334 12.341-1.523-1.719 2.025-4.648 2.758-7.307 3.015 0.537-0.08 1.075-0.183 1.6-0.326-3.326 1.617-6.916 2.721-10.391 4.002 4.916 0.045 9.461-0.697 14.221-1.49 0.1 0.488-0.501 0.418-0.482 0.779 2.103-0.834 4.725-1.084 6.831-0.138-2.532 0.892-5.361 1.89-7.856 3.179-0.118-0.009-0.122-0.013-0.012-0.013 3.176-0.026 6.454-0.993 9.503-0.133-2.694 5.574-13.675 5.945-18.921 8.441 6.707-2.031 13.189-1.472 19.929-2.283-2.087 2.662-7.003 3.223-9.475 5.777 0.744 0.01 1.537 0.034 2.286 0.018-5.395 0.357-10.758 2.338-15.911 3.854 4.634-0.021 9.199 0.045 13.599 1.151-0.001 0-0.006 0.785 0.007 0.803-4.76 1.693-9.665 3.314-14.438 5.052 3.916-0.045 7.784 0.186 11.654 0.485 0.022-0.012-1.236 0.523-1.521 0.634 0.625-0.002 1.566-0.138 2.154 0.067-0.133 0.234-1.496 0.385-1.478 0.791-0.019-0.016 0.021 0.791 0.01 0.812 0.456 0.233 1.15 0.006 1.331 0.532-3.669 2.191-8.009 3.035-11.589 5.468 4.782-0.052 10.164-0.371 14.882 0.731-0.117-0.211-0.406 0.076-0.305 0.131 0.165 0.254 0.6 0.398 0.799 0.666-3.18 2.207-8.988 0.855-12.145 3.166 3.333 0 14.988-2.551 18.457-2.646 6.538-0.178 12.475 3.897 18.983 4.322-1.822-1.326-3.697-2.607-5.578-3.861 1.818 0.316 3.637 0.324 5.464 0.313-0.341-0.098-1.024-0.321-1.445-0.506 1.463-0.018 2.755-0.793 3.955-1.082-3.66-2.071-15.336-4.062-15.119-9.694 2.737 0.848 6.181 0.213 8.628 0.153-0.407-0.11-1.074-0.043-1.51-0.032 3.434-2.291 7.84-0.386 11.691-0.789-5.199-0.91-11.518-3.949-16.146-6.519 0.959 0.111 1.822-0.256 2.625-0.322-0.188-0.17-1.403-0.84-1.484-1.041 1.556-3.688 9.358-1.432 12.923-1.797-3.985-0.528-7.216-2.569-10.803-4 0.474-0.082 1.267-0.424 1.849-0.532-1.371-2.363-3.601-3.941-6.312-4.509 3.158-0.803 6.543-0.979 9.685-1.789-4.188-1.598-8.453-3.95-11.951-6.766 2.434 0.123 5.01 0.104 7.343 0.613-3.283-0.849-11.644-3.814-10.738-7.992 5.461-0.08 10.737 1.754 16.141 1.611-5.394-2.968-12.079-7.604-18.269-8.478-7.12-1.005-13.1 5.943-19.677 5.48z" fill="url(#c)"/>
			<path d="m125.9 140.46c-11.569 4.513 9.249 4.517 11.652 4.8-2.661-0.824-5.734-0.591-8.01-2.31 0.768-0.395 1.611-0.815 2.529-1.027-0.009-0.004-1.312-0.538-1.325-0.502 3.015-1.483 6.331-3.004 9.135-4.928-2.615-0.174-5.381-0.02-7.473-1.697 0.791-0.61 1.68-1.989 2.142-2.35-0.16-0.283-0.819-0.021-0.838-0.479 1.646-1.906 3.945-2.984 6.095-4.185-2.668-0.414-5.312-0.938-8.049-0.85-0.85-0.734-1.873-1.877-3.188-2.775 2.424-1.248 5.105-1.85 7.815-1.899-1.937-1.074-4.491-1.884-5.845-3.468 1.546-1.225 0.841-1.639 1.673-3.127-5.383-2.778-10.226-0.584-8.008 5.828 1.65 4.773 6.886 6.562 6.105 12.525-0.354 2.717-1.771 4.938-4.08 6.44" fill="url(#c)"/>
				<radialGradient id="h" gradientUnits="userSpaceOnUse" cy="157.12" cx="122.1" gradientTransform="matrix(1 0 0 -1 -8.3599 288.25)" r="145.1">
				<stop stop-color="#EDD494" offset="0"/>
				<stop stop-color="#EDD494" stop-opacity="0" offset="1"/>
			</radialGradient><g fill="url(#h)">
			<path d="m97.248 222.51c5.612 0.916 11.619-1.506 16.288-4.301-6.255-1.649-11.628-4.707-18.347-4.076-0.245 0.006-0.245 0.013 0 0.021 4.387-0.539 8.894-1.795 12.956-3.619-0.09 0.02-0.765-0.18-0.81-0.141 2.433-0.449 4.705-1.482 6.891-2.269-6.846-0.779-13.824-3.436-20.889-3.99 2.49-0.146 4.401-1.131 6.764-1.584-2.034-0.59-3.627-1.717-5.443-2.364 6.582 1.325 13.202-1.603 18.916-4.318-7.324-0.508-15.436-2.467-22.316-3.658 3.865-0.147 7.813-1.033 11.285-2.742-4.408-1.866-9.668-2.479-12.93-6.258 1.476-1.004 3.85-2.262 5.613-2.75 0.051-0.354-0.927-1.584-0.912-1.594 4.146-0.414 8.295-1.213 12.236-2.465-3.146-2.576-5.938-5.98-7.345-9.824 11.354 8.098 17.589 8.996 30.01 2.01-1.834 1.945-2.96 4.533-4.961 6.48 5.818-0.109 4.947 1.684 10.814 1.504-4.938 1.961-3.982 0.998-8.473 3.83 2.85-0.058 5.759 0.844 8.562 0.801-3.819 1.174-8.075 2.473-10.901 4.606 2.64 0.123 5.395 0.955 8.258 0.636-3.917 0.85-7.679 2.551-10.233 5.299 5.327 0.383 11.613-0.652 16.318-1.291-5.829 2.19-14.893 3.34-17.651 9.281 4.528 0.91 9.46-0.453 13.854-1.955-3.327 2.158-7.096 4.172-10.548 5.957 1.505-0.068 3.3 0.371 4.621 0.393-1.227 0.953-2.719 3.099-3.604 3.939 1.524 0.407 2.615 0.754 3.951 1.401-2.701 2.039-5.199 4.668-8.318 6.363 3.582 2.627 8.476 3.98 13.237 3.619-6.325 2.465-11.606 6.549-18.573 7.016-0.01-0.01-14.1-1.14-18.332-3.96z"/>
			<path d="m99.91 150.8c1.112-0.5 3.207-3.209 4.868-6.016-3.77-2.018-7.396-4.533-11.44-5.582 1.38 0.766 2.892 1.25 4.198 1.924-0.974 1.193-2.468 2.484-3.254 3.607 1.577 0.305 3.039 1.174 4.343 1.725-1.783 1.082-3.449 3.58-5.021 4.607 2.155 0.391 4.42 0.237 6.633-0.267h-0.33z"/>
			<path d="m104.08 116.72c-0.667-3.498-7.593-8.004-10.842-8.684 1.608 0.131 2.359 0.926 2.849 2.354-0.435 0.2-0.864 0.524-1.254 0.733 8.621 6.756-2.418 7.555-7.658 11.017 1.475-0.046 2.961-0.15 4.425-0.24 0.022 0.149-0.515 0.932-0.604 1.117 0.084 0.053 0.847 0.141 0.846 0.133-0.67 1.1-1.679 2.262-2.732 3.143-0.312 0.287 0.409 0.037 0.749 0.092 0.002 0 15.061-5.29 14.221-9.66z"/>
		</g><g opacity=".6" fill="#876612">
				<polygon points="81.626 193.91 110.9 197.74 81.513 194.9"/>
				<polygon points="81.529 74.633 102.24 73.463 81.609 75.629"/>
				<path d="m81.627 78.959s0.002-0.003 0.005-0.011c0.012-0.011-0.02 0.015 0.078-0.138 0.042-0.06 0.104-0.117 0.173-0.161 0.047-0.026 0.052-0.025 0.082-0.04 0.058-0.026 0.104-0.04 0.146-0.051 0.183-0.05 0.38-0.071 0.63-0.092 0.495-0.036 1.174-0.046 1.986-0.04 1.623 0.016 3.772 0.099 5.922 0.202 4.299 0.209 8.588 0.501 8.588 0.501s-4.301-0.043-8.598-0.001c-2.147 0.021-4.295 0.062-5.896 0.143-0.799 0.04-1.464 0.089-1.904 0.147-0.218 0.028-0.387 0.063-0.444 0.086-0.02 0.005-0.024 0.01-0.012 0.004l0.021-0.012c0.055-0.031 0.102-0.08 0.13-0.127 0.067-0.137 0.033-0.084 0.036-0.08-0.002 0.008-0.004 0.012-0.004 0.012l-0.939-0.342z"/>
				<polygon points="144.44 84.279 126.24 78.834 144.7 83.314"/>
				<polygon points="144.42 75.608 126.24 69.463 144.71 74.653"/>
				<polygon points="141.76 147.36 120.24 146.86 141.76 146.36"/>
				<polygon points="137.65 170.63 118.9 170.13 137.65 169.63"/>
				<polygon points="90.266 216.24 109.57 217.91 90.234 217.24"/>
				<polygon points="137.81 212.54 124.24 216.74 137.48 211.6"/>
				<polygon points="81.569 134.63 101.79 135.13 81.569 135.63"/>
				<polygon points="144.53 126.3 121.9 124.13 144.6 125.3"/>
				<polygon points="137.55 112.95 121.9 109.46 137.74 111.97"/>
				<polygon points="137.42 53.91 118.9 44.131 137.87 53.016"/>
				<polygon points="137.69 98.295 128.86 98.488 137.61 97.299"/>
				<path d="m87.105 102.98s3.022-0.676 6.047-1.352c1.514-0.327 3.029-0.647 4.171-0.865 1.14-0.233 1.913-0.302 1.913-0.302s-0.763 0.129-1.878 0.453c-1.117 0.31-2.602 0.75-4.081 1.197-2.955 0.916-5.91 1.832-5.91 1.832l-0.262-0.96z"/>
				<polygon points="137.65 164.63 128.28 164.13 137.65 163.63"/>
		</g>
		<g opacity=".6" fill="#876612">
				<path d="m89.569 184.13s0.378-0.016 1.037-0.019c0.658 0.007 1.601-0.012 2.728 0.017 0.563 0.018 1.174 0.033 1.819 0.053 0.646 0.027 1.322-0.027 2.021-0.021 1.4-0.026 2.892-0.015 4.382-0.011 3-0.047 5.998-0.022 8.256 0.08 1.128 0.04 2.066 0.119 2.725 0.151 0.657 0.045 1.032 0.084 1.032 0.084s-0.375 0.05-1.031 0.111c-0.657 0.052-1.594 0.155-2.718 0.226-2.244 0.152-5.25 0.293-8.255 0.348-1.511-0.025-3.023-0.053-4.438-0.112-0.706-0.03-1.393-0.038-2.032-0.114-0.642-0.078-1.247-0.152-1.807-0.223-1.118-0.141-2.047-0.302-2.698-0.394-0.645-0.12-1.016-0.19-1.016-0.19z"/>
				<path d="m95.903 210.46s0.269-0.057 0.739-0.132c0.472-0.064 1.144-0.187 1.953-0.281 1.616-0.203 3.778-0.39 5.944-0.494 2.168-0.062 4.342-0.046 5.974 0.033 0.815 0.031 1.498 0.104 1.974 0.132 0.477 0.038 0.749 0.074 0.749 0.074s-0.271 0.054-0.741 0.119c-0.472 0.059-1.146 0.168-1.955 0.248-1.619 0.176-3.781 0.322-5.947 0.392-2.165 0.098-4.336 0.116-5.967 0.066-0.814-0.018-1.497-0.075-1.974-0.096-0.473-0.02-0.746-0.06-0.746-0.06z"/>
				<path d="m139.9 193.8s-0.259 0.111-0.719 0.283c-0.462 0.162-1.114 0.422-1.91 0.684-0.398 0.129-0.83 0.269-1.286 0.417-0.462 0.134-0.92 0.344-1.413 0.507-0.974 0.359-2.021 0.707-3.068 1.057-2.105 0.727-4.228 1.4-5.867 1.789-0.812 0.209-1.503 0.341-1.979 0.452-0.479 0.102-0.757 0.146-0.757 0.146s0.252-0.13 0.698-0.332c0.449-0.192 1.083-0.498 1.856-0.812 1.545-0.625 3.618-1.458 5.725-2.189 1.072-0.337 2.146-0.675 3.158-0.958 0.507-0.142 0.993-0.296 1.466-0.381 0.471-0.09 0.917-0.173 1.327-0.251 0.823-0.15 1.521-0.235 2.004-0.314 0.48-0.09 0.76-0.11 0.76-0.11z"/>
				<path d="m138.57 188.8s-0.721 0.457-1.849 1.02c-0.562 0.288-1.224 0.604-1.969 0.876-0.734 0.289-1.535 0.562-2.334 0.838-1.595 0.506-3.222 0.916-4.44 1.206-1.225 0.286-2.074 0.396-2.074 0.396s0.735-0.426 1.892-0.938c1.152-0.536 2.728-1.104 4.321-1.614 0.791-0.251 1.579-0.505 2.333-0.71 0.754-0.197 1.456-0.417 2.064-0.584 1.22-0.37 2.06-0.51 2.06-0.51z"/>
				<path d="m117.24 137.13s0.244-0.021 0.669-0.034c0.424-0.006 1.032-0.039 1.757-0.029 1.452 0.007 3.38 0.1 5.3 0.272 1.919 0.243 3.83 0.565 5.251 0.872 0.713 0.146 1.3 0.312 1.712 0.406 0.411 0.104 0.646 0.179 0.646 0.179s-0.245 0.015-0.671 0.015c-0.424-0.011-1.033 0.006-1.756-0.028-1.448-0.054-3.364-0.211-5.271-0.447-1.92-0.181-3.832-0.439-5.261-0.697-0.715-0.123-1.307-0.269-1.723-0.35-0.43-0.09-0.66-0.16-0.66-0.16z"/>
				<path d="m95.903 127.46s0.249-0.048 0.687-0.106c0.438-0.051 1.062-0.15 1.812-0.219 1.499-0.15 3.498-0.269 5.498-0.304 2-0.049 4.002-0.018 5.503 0.072 0.75 0.036 1.376 0.111 1.812 0.143 0.438 0.042 0.688 0.08 0.688 0.08s-0.25 0.052-0.688 0.115c-0.438 0.054-1.062 0.16-1.811 0.235-1.499 0.166-3.498 0.3-5.497 0.354-2 0.028-4.001-0.021-5.503-0.125-0.75-0.044-1.376-0.124-1.814-0.159-0.429-0.04-0.68-0.08-0.68-0.08z"/>
				<path d="m93.903 89.131s0.251 0.01 0.684 0.047c0.217 0.021 0.479 0.048 0.78 0.076 0.301 0.042 0.641 0.036 1.005 0.049 0.365 0.011 0.757 0.021 1.169 0.048 0.418-0.004 0.858-0.01 1.314-0.015 0.455 0.015 0.926-0.011 1.404-0.034 0.479-0.021 0.967-0.025 1.452-0.06 1.956-0.128 3.912-0.255 5.379-0.351 0.742-0.034 1.359-0.063 1.793-0.084 0.435-0.017 0.686-0.012 0.686-0.012s-0.236 0.082-0.654 0.203c-0.42 0.105-1.013 0.309-1.741 0.46-0.727 0.166-1.575 0.348-2.5 0.473-0.463 0.06-0.936 0.157-1.426 0.185-0.489 0.041-0.984 0.082-1.481 0.124-0.498 0.022-0.999 0.017-1.49 0.026-0.491 0.02-0.977-0.014-1.445-0.054-0.469-0.03-0.919-0.07-1.348-0.123-0.432-0.069-0.835-0.149-1.205-0.224-0.75-0.115-1.312-0.381-1.731-0.5-0.416-0.139-0.648-0.234-0.648-0.234z"/>
				<path d="m92.236 66.797s0.363-0.096 1.004-0.238c0.641-0.135 1.553-0.354 2.654-0.564 2.201-0.438 5.146-0.937 8.104-1.357 2.959-0.412 5.93-0.747 8.165-0.935 1.117-0.101 2.056-0.141 2.708-0.188 0.654-0.039 1.03-0.048 1.03-0.048s-0.363 0.097-1.003 0.239c-0.643 0.134-1.553 0.354-2.654 0.565-2.201 0.438-5.147 0.937-8.105 1.355-2.959 0.413-5.93 0.746-8.165 0.935-1.117 0.101-2.056 0.142-2.708 0.189-0.655 0.038-1.031 0.047-1.031 0.047z"/>
				<path d="m94.569 60.797s0.273-0.096 0.759-0.237c0.486-0.135 1.177-0.354 2.014-0.565 1.672-0.438 3.915-0.937 6.173-1.359 2.236-0.494 4.488-0.91 6.194-1.16 0.852-0.133 1.569-0.198 2.069-0.267 0.501-0.057 0.791-0.076 0.791-0.076s-0.271 0.105-0.75 0.268c-0.481 0.15-1.163 0.396-1.993 0.638-1.658 0.499-3.889 1.079-6.136 1.582-2.259 0.415-4.532 0.75-6.248 0.938-0.856 0.102-1.578 0.144-2.079 0.191-0.504 0.038-0.794 0.047-0.794 0.047z"/>
				<path d="m97.236 49.131s0.48-0.198 1.213-0.364c0.182-0.043 0.38-0.091 0.59-0.125 0.213-0.032 0.416-0.118 0.638-0.162 0.437-0.117 0.902-0.201 1.368-0.291 0.468-0.115 0.934-0.234 1.383-0.312 0.22-0.054 0.445-0.062 0.646-0.12 0.201-0.053 0.396-0.091 0.578-0.126 0.722-0.146 1.252-0.165 1.252-0.165s-0.395 0.328-1.056 0.705c-0.329 0.193-0.722 0.41-1.173 0.552-0.444 0.163-0.932 0.303-1.417 0.442-0.507 0.077-1.014 0.152-1.489 0.188-0.479 0.06-0.909 0.025-1.283-0.018-0.739-0.069-1.242-0.204-1.242-0.204z"/>
				<path d="m96.903 46.465s0.173-0.214 0.462-0.405c0.288-0.199 0.691-0.384 1.114-0.488 0.391-0.141 0.804-0.202 1.146-0.19 0.339 0.004 0.61 0.085 0.61 0.085s-0.139 0.229-0.414 0.454c-0.271 0.233-0.679 0.468-1.107 0.622-0.425 0.101-0.867 0.12-1.215 0.074-0.35-0.041-0.601-0.152-0.601-0.152z"/>
				<path d="m139.9 67.131s-0.638 0.039-1.568-0.032c-0.932-0.062-2.156-0.23-3.365-0.479-1.208-0.253-2.399-0.583-3.28-0.896-0.882-0.305-1.452-0.595-1.452-0.595s0.639-0.04 1.568 0.031c0.933 0.062 2.156 0.232 3.365 0.479 1.208 0.253 2.399 0.585 3.28 0.896 0.89 0.307 1.46 0.596 1.46 0.596z"/>
		</g>
					<linearGradient id="g" x1="121.93" gradientUnits="userSpaceOnUse" y1="196.62" gradientTransform="matrix(1 0 0 -1 -8.3599 288.25)" x2="121.93" y2="117.04">
					<stop stop-color="#EFECB4" offset="0"/>
					<stop stop-color="#9C7C69" offset=".3394"/>
					<stop stop-color="#EFECB4" offset=".5"/>
					<stop stop-color="#9C7C69" offset=".6585"/>
					<stop stop-color="#EFECB4" offset="1"/>
				</linearGradient>
				<path d="m120.01 121.16c-1.557-1.555-1.556-4.101 0-5.656l7.168-7.168c1.557-1.556 1.557-4.101 0.001-5.655l-10.785-10.785c-1.557-1.557-4.102-1.557-5.656 0l-10.784 10.785c-1.556 1.556-1.556 4.101 0.001 5.655l7.168 7.168c1.556 1.557 1.557 4.103 0 5.656l-7.169 7.17c-1.556 1.555-1.556 4.102 0 5.656l7.496 7.496c1.556 1.556 1.556 4.101 0 5.656l-7.496 7.495c-1.556 1.557-1.556 4.102 0 5.656l10.785 10.785c1.556 1.556 4.101 1.556 5.656 0l10.785-10.785c1.556-1.556 1.556-4.101 0-5.656l-7.496-7.495c-1.557-1.557-1.557-4.102 0-5.656l7.496-7.496c1.556-1.556 1.556-4.103 0-5.656l-7.17-7.18z" fill="url(#g)"/><g stroke-miterlimit="10">
				<path stroke="#93763D" d="m120.01 121.16c-1.557-1.555-1.556-4.101 0-5.656l7.168-7.168c1.557-1.556 1.557-4.101 0.001-5.655l-10.785-10.785c-1.557-1.557-4.102-1.557-5.656 0l-10.784 10.785c-1.556 1.556-1.556 4.101 0.001 5.655l7.168 7.168c1.556 1.557 1.557 4.103 0 5.656l-7.169 7.17c-1.556 1.555-1.556 4.102 0 5.656l7.496 7.496c1.556 1.556 1.556 4.101 0 5.656l-7.496 7.495c-1.556 1.557-1.556 4.102 0 5.656l10.785 10.785c1.556 1.556 4.101 1.556 5.656 0l10.785-10.785c1.556-1.556 1.556-4.101 0-5.656l-7.496-7.495c-1.557-1.557-1.557-4.102 0-5.656l7.496-7.496c1.556-1.556 1.556-4.103 0-5.656l-7.17-7.18z" fill="none"/>
					<rect transform="matrix(-.7071 .7071 -.7071 -.7071 268.27 99.293)" height="17.766" width="17.767" stroke="#84341F" y="96.326" x="104.68" fill="#A55137"/>
					<rect transform="matrix(-.7072 .707 -.707 -.7072 268.28 99.342)" height="14.805" width="14.806" stroke="#AF6C58" y="97.82" x="106.17" fill="#D69E8A"/>
					<circle stroke-width="2" stroke="#60150F" cy="105.22" cx="113.57" r="5.063" fill="#9B3123"/>
					<circle r="2.43" stroke="#60150F" cx="113.57" cy="105.22"/>
					<path stroke="#D69E8A" stroke-linecap="round" d="m109.78 105.22c0-2.094 1.697-3.791 3.791-3.791" fill="none"/>
						</g><path d="m115.66 103.43s0.108 0.078 0.284 0.227c0.186 0.133 0.404 0.373 0.639 0.747 0.103 0.185 0.188 0.399 0.271 0.635 0.027 0.244 0.128 0.51 0.081 0.791-0.006 0.283-0.066 0.569-0.174 0.851-0.125 0.267-0.26 0.545-0.46 0.768-0.186 0.238-0.43 0.415-0.661 0.589-0.246 0.158-0.509 0.273-0.773 0.349-0.257 0.098-0.533 0.104-0.775 0.117-0.253-0.012-0.484-0.021-0.689-0.101-0.21-0.047-0.385-0.13-0.528-0.229-0.148-0.079-0.265-0.165-0.346-0.258-0.17-0.169-0.25-0.268-0.25-0.268s0.126 0.034 0.347 0.094c0.101 0.041 0.233 0.056 0.379 0.071 0.144 0.027 0.304 0.031 0.477 0.019 0.169 0.01 0.35-0.048 0.534-0.072 0.18-0.059 0.371-0.106 0.551-0.2 0.188-0.074 0.351-0.206 0.527-0.316 0.156-0.135 0.326-0.264 0.443-0.436 0.151-0.146 0.242-0.333 0.341-0.509 0.071-0.188 0.163-0.366 0.187-0.562 0.062-0.189 0.029-0.385 0.06-0.574-0.03-0.185-0.039-0.374-0.066-0.544-0.051-0.16-0.085-0.318-0.12-0.466-0.047-0.146-0.111-0.272-0.149-0.379-0.09-0.21-0.13-0.34-0.13-0.34z" fill="#D69E8A"/><g stroke-miterlimit="10">
					<rect transform="matrix(-.7071 .7071 -.7071 -.7071 286.61 143.58)" height="17.765" width="17.767" stroke="#84341F" y="122.27" x="104.68" fill="#A55137"/>
					<rect transform="matrix(-.7072 .707 -.707 -.7072 286.62 143.64)" height="14.804" width="14.806" stroke="#AF6C58" y="123.76" x="106.16" fill="#D69E8A"/>
					<circle stroke-width="2" stroke="#60150F" cy="131.16" cx="113.57" r="5.063" fill="#9B3123"/>
					<circle r="2.43" stroke="#60150F" cx="113.57" cy="131.16"/>
					<path stroke="#D69E8A" stroke-linecap="round" d="m109.78 131.16c0-2.094 1.697-3.791 3.791-3.791" fill="none"/>
						</g><path d="m115.66 129.37s0.108 0.078 0.284 0.227c0.186 0.133 0.404 0.372 0.639 0.746 0.103 0.186 0.188 0.4 0.271 0.636 0.027 0.244 0.128 0.511 0.081 0.791-0.006 0.282-0.066 0.568-0.173 0.851-0.126 0.266-0.261 0.544-0.46 0.768-0.187 0.237-0.431 0.415-0.662 0.589-0.246 0.157-0.509 0.273-0.773 0.349-0.256 0.098-0.532 0.104-0.775 0.118-0.252-0.013-0.483-0.021-0.688-0.102-0.21-0.047-0.385-0.13-0.528-0.227-0.149-0.079-0.266-0.166-0.347-0.258-0.17-0.169-0.25-0.269-0.25-0.269s0.126 0.034 0.347 0.095c0.101 0.041 0.233 0.056 0.379 0.07 0.144 0.027 0.304 0.032 0.477 0.02 0.169 0.01 0.35-0.049 0.534-0.073 0.181-0.06 0.372-0.107 0.551-0.202 0.188-0.074 0.351-0.206 0.527-0.315 0.156-0.135 0.326-0.265 0.443-0.437 0.151-0.146 0.242-0.333 0.341-0.508 0.071-0.188 0.163-0.366 0.187-0.562 0.062-0.189 0.029-0.386 0.06-0.574-0.03-0.186-0.039-0.374-0.066-0.544-0.051-0.16-0.085-0.318-0.12-0.467-0.047-0.145-0.111-0.271-0.149-0.379-0.09-0.23-0.13-0.36-0.13-0.36z" fill="#D69E8A"/><g stroke-miterlimit="10">
					<rect transform="matrix(-.7071 .7071 -.7071 -.7071 305.21 188.48)" height="17.766" width="17.767" stroke="#84341F" y="148.57" x="104.69" fill="#A55137"/>
					<rect transform="matrix(-.7072 .707 -.707 -.7072 305.22 188.54)" height="14.805" width="14.806" stroke="#AF6C58" y="150.07" x="106.16" fill="#D69E8A"/>
					<circle stroke-width="2" stroke="#60150F" cy="157.46" cx="113.57" r="5.063" fill="#9B3123"/>
					<circle r="2.43" stroke="#60150F" cx="113.57" cy="157.46"/>
					<path stroke="#D69E8A" stroke-linecap="round" d="m109.78 157.46c0-2.094 1.697-3.791 3.791-3.791" fill="none"/>
						</g><path d="m115.66 155.68s0.108 0.078 0.284 0.227c0.186 0.133 0.404 0.373 0.639 0.747 0.103 0.185 0.188 0.399 0.271 0.635 0.027 0.244 0.128 0.511 0.081 0.791-0.006 0.283-0.066 0.569-0.173 0.851-0.126 0.267-0.261 0.544-0.46 0.768-0.187 0.238-0.431 0.416-0.662 0.589-0.246 0.158-0.509 0.274-0.773 0.349-0.256 0.099-0.532 0.104-0.775 0.118-0.252-0.013-0.483-0.021-0.688-0.101-0.21-0.047-0.385-0.13-0.528-0.228-0.149-0.079-0.266-0.166-0.347-0.258-0.17-0.169-0.25-0.268-0.25-0.268s0.126 0.033 0.347 0.094c0.101 0.041 0.233 0.056 0.379 0.071 0.144 0.026 0.304 0.031 0.477 0.019 0.169 0.01 0.35-0.049 0.534-0.073 0.181-0.06 0.372-0.106 0.551-0.202 0.188-0.073 0.351-0.205 0.527-0.315 0.156-0.134 0.326-0.264 0.443-0.437 0.151-0.146 0.242-0.333 0.341-0.508 0.071-0.188 0.163-0.366 0.187-0.562 0.062-0.19 0.029-0.387 0.06-0.575-0.03-0.185-0.039-0.374-0.066-0.544-0.051-0.16-0.085-0.318-0.12-0.466-0.047-0.146-0.111-0.272-0.149-0.379-0.09-0.23-0.13-0.35-0.13-0.35z" fill="#D69E8A"/>
					<path stroke="#876612" stroke-miterlimit="10" d="m180.24 214.84c0 10-5 18-14 21-20 7-42 8-63 7-14-1-28-4-42-7-11-2-17-12-17-22-3-56 1-112 2-168 0-8 6-15 13-18 21-7 44-9 66-8 14 1 26 5 40 7 4 1 7 5 11 8 3 4 6 8 6 13 1 56-2 111-2 167z" fill="none"/>
					<path stroke="#876612" stroke-miterlimit="10" d="m175.24 211.84c0 6-2 11-6 15-2 1-3 4-5 4-21 10-44 10-67 8-8-1-16-3-25-4-11-2-20-11-20-21-3-55 1-110 1-165 3-17 22-22 37-23 2 0 5-2 7-2 22-3 44 1 65 7 2 1 4 2 6 4l6 9c1 2 2 5 2 7 1 54-2 107-1 161z" fill="none"/>
</svg>
