<!DOCTYPE svg PUBLIC '-//W3C//DTD SVG 1.1//EN' 'http://www.w3.org/Graphics/SVG/1.1/DTD/svg11.dtd'>
<svg xmlns="http://www.w3.org/2000/svg" xml:space="preserve" version="1.1" xmlns:xlink="http://www.w3.org/1999/xlink" viewBox="0 0 200 200" enable-background="new 0 0 200 200">
<rect width="200" fill="#A0C53A" height="200"/><g fill="#709922">
	<path d="m41.183 122.73c-0.072-0.583-0.272-1.122-0.5-1.651-0.224-0.53-0.48-1.047-0.749-1.559l-1.643-3.079c-0.53-1.046-1.046-2.11-1.438-3.271-0.196-0.58-0.346-1.19-0.41-1.846-0.062-0.649-0.025-1.382 0.3-2.088 0.073-0.178 0.177-0.342 0.288-0.504 0.045-0.06 0.013-0.037 0.123-0.165l0.072-0.081 0.144-0.164c0.344-0.331 0.81-0.613 1.378-0.619 0.574 0.003 0.987 0.259 1.307 0.487 0.322 0.241 0.552 0.502 0.769 0.763 0.825 1.05 1.333 2.139 1.835 3.232 0.481 1.097 0.882 2.21 1.269 3.32l1.104 3.274-1.902 0.601c-0.162-0.707-0.195-1.271-0.236-1.877-0.034-0.594-0.045-1.183-0.04-1.771 0.021-1.176 0.08-2.351 0.274-3.525 0.193-1.174 0.457-2.355 1.014-3.522 0.289-0.575 0.656-1.176 1.275-1.648 0.609-0.493 1.549-0.656 2.265-0.475l0.069 0.014 0.035 0.007 0.097 0.027 0.013 0.005 0.099 0.038c0.083 0.037 0.096 0.026 0.235 0.103 0.119 0.064 0.235 0.138 0.343 0.215 0.09 0.075 0.161 0.152 0.239 0.23 0.284 0.32 0.459 0.68 0.556 1.011 0.208 0.672 0.235 1.298 0.22 1.904-0.042 1.208-0.237 2.354-0.483 3.481-0.258 1.124-0.554 2.229-0.887 3.322-0.32 1.097-0.709 2.167-1 3.268 0.086-1.142 0.297-2.267 0.465-3.39 0.17-1.123 0.351-2.241 0.462-3.359 0.124-1.112 0.21-2.232 0.143-3.298-0.039-0.526-0.114-1.049-0.274-1.454-0.074-0.21-0.184-0.359-0.283-0.456l-0.071-0.061c-0.012 0.002-0.017 0-0.019-0.011 0.024-0.009-0.11-0.039-0.158-0.058l-0.102-0.031-0.013-0.005c0.158 0.047 0.041 0.014 0.075 0.023h-0.004l-0.018-0.001-0.036-0.003c-0.393-0.047-0.672 0.026-0.945 0.266-0.271 0.241-0.528 0.628-0.72 1.075-0.39 0.903-0.602 1.973-0.728 3.044-0.124 1.075-0.193 2.175-0.189 3.271 0.002 0.548 0.02 1.096 0.059 1.636 0.038 0.527 0.099 1.1 0.199 1.5l-1.902 0.6c-0.217-0.597-0.376-1.141-0.555-1.697l-0.53-1.646c-0.358-1.091-0.747-2.164-1.166-3.21-0.417-1.034-0.881-2.082-1.468-2.886-0.273-0.4-0.667-0.671-0.715-0.651-0.024-0.009-0.089 0.015-0.183 0.057l-0.155 0.154-0.077 0.076c0.063-0.072-0.006 0.014-0.004 0.012-0.059 0.075-0.121 0.149-0.162 0.24-0.407 0.693-0.276 1.834-0.031 2.884 0.252 1.075 0.655 2.153 1.073 3.227 0.408 1.082 0.863 2.155 1.255 3.262 0.381 1.12 0.785 2.27 0.742 3.45z"/>
	<path d="m152.15 140.73c-0.071-0.583-0.272-1.122-0.5-1.651-0.224-0.53-0.48-1.047-0.749-1.559l-1.643-3.079c-0.53-1.046-1.046-2.11-1.438-3.271-0.196-0.58-0.347-1.19-0.41-1.847-0.062-0.648-0.025-1.381 0.3-2.087 0.073-0.178 0.178-0.342 0.288-0.504 0.046-0.06 0.014-0.037 0.124-0.165l0.071-0.081 0.145-0.164c0.345-0.331 0.81-0.613 1.378-0.619 0.574 0.003 0.987 0.259 1.308 0.487 0.322 0.24 0.553 0.502 0.769 0.763 0.825 1.05 1.334 2.139 1.835 3.232 0.481 1.097 0.883 2.21 1.27 3.32l1.104 3.275-1.902 0.599c-0.161-0.706-0.194-1.271-0.235-1.876-0.034-0.595-0.045-1.183-0.04-1.771 0.021-1.176 0.08-2.351 0.274-3.526 0.192-1.173 0.457-2.354 1.015-3.521 0.288-0.576 0.656-1.177 1.275-1.649 0.609-0.492 1.549-0.655 2.265-0.474l0.069 0.014 0.034 0.007 0.018 0.004 0.093 0.027 0.099 0.039c0.083 0.037 0.097 0.026 0.235 0.103 0.118 0.064 0.234 0.138 0.343 0.215 0.09 0.075 0.161 0.151 0.239 0.23 0.284 0.32 0.459 0.68 0.556 1.011 0.208 0.672 0.235 1.298 0.221 1.904-0.042 1.208-0.237 2.354-0.483 3.481-0.258 1.124-0.554 2.229-0.887 3.322-0.319 1.096-0.709 2.167-1 3.268 0.086-1.142 0.297-2.267 0.465-3.39 0.17-1.123 0.351-2.241 0.463-3.359 0.124-1.112 0.21-2.232 0.143-3.298-0.039-0.527-0.114-1.049-0.274-1.455-0.074-0.209-0.184-0.358-0.282-0.455l-0.071-0.061c-0.012 0.002-0.017 0-0.019-0.011 0.023-0.009-0.11-0.039-0.158-0.058l-0.102-0.032-0.007-0.002c0.034 0.01-0.084-0.024 0.074 0.021h-0.01l-0.018-0.001-0.036-0.003c-0.393-0.047-0.672 0.026-0.945 0.266-0.271 0.241-0.527 0.628-0.72 1.075-0.39 0.903-0.602 1.973-0.728 3.044-0.125 1.075-0.193 2.175-0.189 3.271 0.002 0.548 0.02 1.096 0.059 1.636 0.037 0.527 0.099 1.1 0.199 1.5l-1.902 0.6c-0.218-0.598-0.377-1.142-0.556-1.697l-0.529-1.646c-0.358-1.091-0.746-2.165-1.165-3.21-0.418-1.035-0.882-2.083-1.468-2.886-0.273-0.401-0.667-0.671-0.715-0.651-0.024-0.009-0.09 0.015-0.183 0.058l-0.155 0.153-0.077 0.076c0.062-0.072-0.007 0.014-0.004 0.012-0.059 0.075-0.12 0.149-0.162 0.24-0.406 0.693-0.275 1.834-0.03 2.884 0.252 1.075 0.655 2.153 1.072 3.227 0.408 1.082 0.863 2.155 1.255 3.262 0.39 1.14 0.8 2.29 0.75 3.47z"/>
	<path d="m85.2 54.069c-0.072-0.583-0.272-1.122-0.5-1.651-0.224-0.53-0.48-1.047-0.749-1.559l-1.643-3.079c-0.53-1.046-1.046-2.111-1.438-3.27-0.196-0.581-0.346-1.19-0.41-1.847-0.062-0.649-0.026-1.382 0.3-2.087 0.073-0.178 0.177-0.342 0.288-0.503 0.045-0.06 0.013-0.037 0.123-0.165l0.072-0.082 0.144-0.164c0.344-0.331 0.81-0.613 1.378-0.619 0.575 0.003 0.987 0.259 1.308 0.487 0.322 0.241 0.553 0.502 0.769 0.763 0.825 1.049 1.333 2.139 1.835 3.232 0.481 1.097 0.883 2.21 1.27 3.321l1.104 3.275-1.902 0.6c-0.162-0.707-0.195-1.271-0.236-1.876-0.034-0.595-0.045-1.183-0.04-1.771 0.021-1.175 0.08-2.351 0.274-3.526 0.193-1.173 0.457-2.355 1.014-3.522 0.289-0.575 0.656-1.176 1.275-1.648 0.609-0.493 1.549-0.656 2.265-0.474l0.069 0.013 0.035 0.007 0.097 0.027 0.013 0.005 0.099 0.039c0.083 0.037 0.096 0.026 0.235 0.103 0.118 0.064 0.234 0.137 0.343 0.214 0.09 0.076 0.161 0.152 0.239 0.231 0.284 0.32 0.459 0.679 0.556 1.01 0.208 0.672 0.234 1.298 0.22 1.904-0.042 1.208-0.238 2.354-0.483 3.481-0.258 1.125-0.554 2.23-0.887 3.323-0.32 1.096-0.709 2.167-1 3.268 0.086-1.142 0.297-2.267 0.465-3.39 0.17-1.123 0.351-2.241 0.462-3.359 0.124-1.112 0.209-2.232 0.143-3.298-0.039-0.527-0.114-1.049-0.274-1.455-0.074-0.209-0.184-0.359-0.283-0.455l-0.071-0.061c-0.012 0.002-0.017 0-0.019-0.011 0.024-0.009-0.11-0.039-0.158-0.058l-0.102-0.032-0.013-0.004c0.158 0.047 0.042 0.013 0.075 0.023h-0.004l-0.018-0.001-0.036-0.003c-0.393-0.046-0.673 0.026-0.945 0.266-0.271 0.241-0.527 0.628-0.72 1.076-0.39 0.903-0.602 1.973-0.728 3.043-0.125 1.075-0.193 2.174-0.189 3.271 0.002 0.548 0.02 1.096 0.059 1.636 0.038 0.528 0.099 1.1 0.199 1.5l-1.902 0.6c-0.217-0.598-0.376-1.142-0.555-1.698l-0.53-1.646c-0.358-1.09-0.747-2.165-1.166-3.21-0.417-1.035-0.881-2.083-1.468-2.886-0.273-0.401-0.667-0.671-0.715-0.651-0.024-0.009-0.089 0.014-0.183 0.057l-0.155 0.153-0.077 0.077c0.063-0.072-0.007 0.013-0.004 0.012-0.059 0.075-0.121 0.149-0.162 0.24-0.407 0.693-0.276 1.833-0.031 2.884 0.252 1.076 0.655 2.153 1.073 3.227 0.408 1.082 0.863 2.155 1.255 3.262 0.379 1.099 0.783 2.251 0.74 3.431z"/>
</g></svg>
