<!DOCTYPE svg PUBLIC '-//W3C//DTD SVG 1.1//EN' 'http://www.w3.org/Graphics/SVG/1.1/DTD/svg11.dtd'>
<svg xmlns="http://www.w3.org/2000/svg" xml:space="preserve" version="1.1" xmlns:xlink="http://www.w3.org/1999/xlink" viewBox="0 0 200 200" enable-background="new 0 0 200 200">
<rect width="200" fill="#EEF7FF" height="200"/><g fill="#B6E7EF">
<path d="m104.08 40.188c-4.105-0.948-8.084-0.046-11.818 1.748 1.318-3.669 4.891-5.021 8.426-5.679-4.062 0.43-8.356 1.953-9.574 6.321-1.088 0.66-2.143 1.359-3.113 2.186-2.548-2.053-5.664-3.711-8.995-3.935-3.288-0.469-7.146 0.246-10.068 1.843 5.974-2.548 13.028-1.078 17.619 3.383-1.606 1.578-3.146 3.345-4.147 5.382 3.11-2.796 6.501-5.459 10.197-7.438 2.115-1.133 4.301-2.026 6.617-2.648 1.999-0.452 3.945-0.646 5.973-0.874-0.01 0.001-0.4-0.116-1.12-0.289-0.36-0.083 0.72 0.173 0 0z"/>
<path d="m176.93 164.69c-4.105-0.947-8.084-0.045-11.818 1.748 1.318-3.668 4.892-5.021 8.427-5.679-4.062 0.431-8.356 1.953-9.574 6.321-1.088 0.66-2.144 1.359-3.112 2.186-2.55-2.053-5.664-3.711-8.994-3.935-3.289-0.47-7.146 0.246-10.068 1.843 5.973-2.548 13.027-1.078 17.619 3.383-1.607 1.578-3.146 3.346-4.148 5.383 3.111-2.797 6.502-5.459 10.197-7.438 2.115-1.133 4.301-2.026 6.617-2.647 1.998-0.453 3.945-0.646 5.973-0.875-0.02 0-0.42-0.12-1.13-0.29-0.36-0.09 0.71 0.17 0 0z"/>
<path d="m57.475 130.69c-4.105-0.947-8.084-0.045-11.818 1.748 1.318-3.668 4.891-5.021 8.426-5.679-4.062 0.431-8.357 1.953-9.574 6.321-1.088 0.66-2.143 1.359-3.113 2.186-2.549-2.053-5.664-3.711-8.994-3.935-3.289-0.47-7.146 0.246-10.068 1.843 5.973-2.548 13.027-1.078 17.619 3.383-1.607 1.578-3.146 3.346-4.148 5.383 3.111-2.797 6.502-5.459 10.197-7.438 2.115-1.133 4.301-2.026 6.617-2.647 1.998-0.453 3.945-0.646 5.973-0.875-0.002 0-0.399-0.12-1.117-0.29-0.36-0.09 0.718 0.17 0 0z"/>
</g></svg>
