<svg xmlns:rdf="http://www.w3.org/1999/02/22-rdf-syntax-ns#" xmlns="http://www.w3.org/2000/svg" xml:space="preserve" viewBox="0 0 113.103 111.35138" version="1.1" xmlns:cc="http://creativecommons.org/ns#" xmlns:dc="http://purl.org/dc/elements/1.1/"><defs><clipPath id="l"><path d="m0 89.081h90.482v-89.081h-90.482v89.081z"/></clipPath><clipPath id="i"><path d="m5.3389 86.491h85.144v-85.145h-85.144v85.145z"/></clipPath><clipPath id="h"><path d="m85.686 46.002-0.639-1.616-2.279-2.071 2.716-1.804 0.617-2.61-2.005-1.43-3.311-1.215 1.079-3.331 3.385-2.445-3.365-1.508-1.704-0.576 0.466-1.738-1.047-2.53-1.919-2.073-4.159 1.845 2.677-3.717-0.587-3.424-3.392-0.032-3.024 1.237-1.253-2.945-0.135-1.6-1.405 0.968l-3.105-0.933-1.966-2.252 0.598-4.178-2.704 3.026-2.545-0.334-1.863-1.393-1.444-1.558-1.166 1.9-3.236 1.813-2.678-2.537-0.924-4.542-2.392 3.233-1.416 1.735-1.426-1.821-2.877-0.322-0.961 2.321-2.205 1.286-1.814-1.365-2.731 0.343-2.026 1.742-0.1 2.872-2.508-1.269-3.314-0.721 1.502 3.63-0.951 3.645-3.624-2.145-3.817-0.218 2.33 3.694-0.975 2.917-2.918-0.258-3.977 0.114 2.751 3.375-1.496 2.137-0.744 3.03-4.633-1.056 3.4 2.833 0.39 2.787-2.876 0.395-0.414 2.768-0.195 2.356 3.627 1.976-2.639 2.697-2.501 0.892 0.647 2.97 1.654 0.896 0.397 2.598-2.484 1.754 2.031 2.261 3.094 0.501-2.662 1.957 1.441 2.56 1.463 0.902 1.74 1.885-1.183 2.03 1.019 2.656 2.394-0.41 2.731 1.443 0.75 2.952-0.036 1.581 1.7 2.024 1.711 0.056 0.968 1.586 1.355 1.921 2.208 0.195 2.411-0.299-0.026 2.559 1.509 3.732 3.054-2.92 2.601-0.987 0.595 2.865 2.354 1.422 2.401-0.84 1.818-0.537 2.149 0.461 1.726 2.085 2.721-1.197 0.898-3.959 1.5 3.903 3.119 0.817 1.049-2.84 1.858-1.851 2.12 1.443 3.178 1.512 1.934-3.052-1.215-4.521 3.356 2.492 2.25-0.537 2.42-1.728-0.491-2.248 2.235-1.209 2.467 0.511-0.971-2.44 1.683-2.247 2.194 0.186 3.382-1.049-2.382-2.992 1.055-2.491 2.253-0.053 0.872-2.784-0.098-1.881-1.795-2.847 3.718-0.276 3.513-2.004-4.288-1.828 0.184-2.873 2.178-1.28-0.58-2.536z"/></clipPath><linearGradient id="b" gradientUnits="userSpaceOnUse" gradientTransform="matrix(8 -39 -39 -8 43.183 58.664)"><stop stop-color="#4c7f1b" offset="0"/><stop stop-color="#34661b" offset="1"/></linearGradient><clipPath id="g"><path d="m0 89.081h90.482v-89.081h-90.482v89.081z"/></clipPath><clipPath id="f"><path d="m41.529 69.511-1.92 1.148-1.435-1.429-1.236-1.604-2.561 1.985-1.66-0.685-0.397-2.892-0.818-1.725-1.187-1.031-2.878 0.911 0.504-2.945-3.492 0.984-0.091-2.168-0.064-1.992-3.366 0.081 2.502-3.252-4.084 0.005 2.155-2.638-3.22-0.809 0.731-1.98 0.54-1.808 1.202-1.751-3.188-1.581 0.615-1.748 2.952-1.377 0.34-1.527-2.299-2.228 0.655-1.612 1.261-1.346-0.209-1.978 2.475-0.586-0.881-2.545 1.232-1.27 2.457-0.162 0.931-1.366-0.105-2.61 1.644-0.765 1.499-0.891 0.916-1.874 3.145 2.289 1.448-0.614 1.537-0.362 1.338-1.027 1.374-1.294 1.457-1.668 1.876 1.858 1.62-2.457 1.591 2.931 1.76-1.212 1.257 2.297 1.517 0.292 1.658-0.074 1.82-0.257 2.129-0.606 1.551 0.782 1.83 0.391-0.691 3.817 3.462-1.596-0.487 2.995 2.864-0.371 1.483 1.082 0.664 1.714 1.007 1.452-1.762 2.844 0.899 1.336 1.594 1.144 0.046 1.713 1.857 1.303-1.155 1.902 0.258 1.631-1.582 1.65 1.76 1.661 1.892 1.923-1.573 1.517-1.505 1.37 1.233 2.141-1.663 1.209-0.974 1.39 1.166 2.589-1.305 1.299-1.724 0.916-1.522 0.955-2.067 0.313-0.042 2.378-0.453 2.216-1.86 0.461-3.122-1.883-1.036 1.388-1.041 1.648-1.955-0.585-1.351 1.067-1.139 2.606-1.818-0.23-1.844-1.558-1.627-1.017-1.786 3.5-1.529-2.098z"/></clipPath><linearGradient id="a" gradientUnits="userSpaceOnUse" gradientTransform="matrix(5.6666 -26.333 -26.333 -5.6666 41.544 61.334)"><stop stop-color="#4c7f1b" offset="0"/><stop stop-color="#34661b" offset="1"/></linearGradient><clipPath id="n"><path d="m0 89.081h90.482v-89.081h-90.482v89.081z"/></clipPath><linearGradient id="e" gradientUnits="userSpaceOnUse" gradientTransform="matrix(82.749 0 0 -82.749 1 42.696)"><stop stop-color="#e5f7ff" offset="0"/><stop stop-color="#eef7ff" offset=".27041"/><stop stop-color="#e4f7ff" offset=".42857"/><stop stop-color="#eef7ff" offset="1"/></linearGradient><clipPath id="m"><path d="m0 89.081h90.482v-89.081h-90.482v89.081z"/></clipPath><linearGradient id="d" gradientUnits="userSpaceOnUse" gradientTransform="matrix(8.667 -27.666 -27.666 -8.667 44.709 50.877)"><stop stop-color="#4c7f1b" offset="0"/><stop stop-color="#34661b" offset="1"/></linearGradient><clipPath id="k"><path d="m0 89.081h90.482v-89.081h-90.482v89.081z"/></clipPath><linearGradient id="c" gradientUnits="userSpaceOnUse" gradientTransform="matrix(2.5831 -24.913 -24.913 -2.5831 12.425 45.759)"><stop stop-color="#4c7f1b" offset="0"/><stop stop-color="#34661b" offset="1"/></linearGradient><clipPath id="j"><path d="m0 89.081h90.482v-89.081h-90.482v89.081z"/></clipPath></defs><g transform="matrix(1.25 0 0 -1.25 0 111.35)"><g clip-path="url(#l)"><g opacity=".2" clip-path="url(#i)"><g transform="translate(90.482 43.919)"><path fill="#183049" d="m0 0c0-23.512-19.061-42.572-42.572-42.572s-42.572 19.06-42.572 42.572 19.061 42.572 42.572 42.572 42.572-19.06 42.572-42.572"/></g></g></g><g clip-path="url(#h)"><path fill="url(#b)" d="m85.686 46.002-0.639-1.616-2.279-2.071 2.716-1.804 0.617-2.61-2.005-1.43-3.311-1.215 1.079-3.331 3.385-2.445-3.365-1.508-1.704-0.576 0.466-1.738-1.047-2.53-1.919-2.073-4.159 1.845 2.677-3.717-0.587-3.424-3.392-0.032-3.024 1.237-1.253-2.945-0.135-1.6-1.405 0.968l-3.105-0.933-1.966-2.252 0.598-4.178-2.704 3.026-2.545-0.334-1.863-1.393-1.444-1.558-1.166 1.9-3.236 1.813-2.678-2.537-0.924-4.542-2.392 3.233-1.416 1.735-1.426-1.821-2.877-0.322-0.961 2.321-2.205 1.286-1.814-1.365-2.731 0.343-2.026 1.742-0.1 2.872-2.508-1.269-3.314-0.721 1.502 3.63-0.951 3.645-3.624-2.145-3.817-0.218 2.33 3.694-0.975 2.917-2.918-0.258-3.977 0.114 2.751 3.375-1.496 2.137-0.744 3.03-4.633-1.056 3.4 2.833 0.39 2.787-2.876 0.395-0.414 2.768-0.195 2.356 3.627 1.976-2.639 2.697-2.501 0.892 0.647 2.97 1.654 0.896 0.397 2.598-2.484 1.754 2.031 2.261 3.094 0.501-2.662 1.957 1.441 2.56 1.463 0.902 1.74 1.885-1.183 2.03 1.019 2.656 2.394-0.41 2.731 1.443 0.75 2.952-0.036 1.581 1.7 2.024 1.711 0.056 0.968 1.586 1.355 1.921 2.208 0.195 2.411-0.299-0.026 2.559 1.509 3.732 3.054-2.92 2.601-0.987 0.595 2.865 2.354 1.422 2.401-0.84 1.818-0.537 2.149 0.461 1.726 2.085 2.721-1.197 0.898-3.959 1.5 3.903 3.119 0.817 1.049-2.84 1.858-1.851 2.12 1.443 3.178 1.512 1.934-3.052-1.215-4.521 3.356 2.492 2.25-0.537 2.42-1.728-0.491-2.248 2.235-1.209 2.467 0.511-0.971-2.44 1.683-2.247 2.194 0.186 3.382-1.049-2.382-2.992 1.055-2.491 2.253-0.053 0.872-2.784-0.098-1.881-1.795-2.847 3.718-0.276 3.513-2.004-4.288-1.828 0.184-2.873 2.178-1.28-0.58-2.536z"/></g><g clip-path="url(#g)"><g transform="translate(85.249 29.48)"><path fill="#2f5916" d="m0 0-3.385 2.444-1.079 3.331 3.311 1.215 2.005 1.431-0.617 2.609-2.716 1.805 0.291 0.266c-1.965 0.769-4.623 1.753-4.623 1.753v1.667h-3.25l3.25 3.99s-8.063-3.737-9.25-3.99c-1.188-0.252-48.184-11.01-48.184-11.01h-4.816l3.051-2.75-6.801-2h5l-6.118-4.197 0.602-0.858-2.751-3.374 3.977-0.114 2.918 0.258 0.975-2.917-2.33-3.695 3.817 0.219 3.624 2.145 0.951-3.646-1.502-3.63 3.314 0.722 2.508 1.268 0.099-2.872 2.027-1.742 2.731-0.343 1.814 1.366 2.205-1.287 0.961-2.321 2.877 0.322 1.426 1.822 1.416-1.736 2.392-3.232 0.924 4.542 2.678 2.536 3.236-1.812 1.166-1.901 1.444 1.559 1.863 1.392 2.545 0.334 2.704-3.025-0.598 4.178 1.966 2.252 3.105 0.932 1.405-0.968 0.135 1.6 1.253 2.945 3.024-1.237 3.392 0.032 0.587 3.424-2.677 3.718 4.159-1.846 1.919 2.073 1.047 2.531-0.466 1.737 1.704 0.576 3.365 1.509z"/></g><g transform="translate(85.686 46.002)"><path d="m0 0-0.639-1.616-2.279-2.071 2.717-1.804 0.616-2.61-2.005-1.43-3.31-1.215 1.079-3.331 3.384-2.444-3.365-1.509-1.704-0.576 0.467-1.738-1.048-2.53-1.919-2.073-4.158 1.845 2.677-3.717-0.587-3.424-3.393-0.032-3.023 1.237-1.253-2.945-0.136-1.6-1.404 0.968-3.106-0.933-1.965-2.252 0.597-4.178-2.704 3.026-2.545-0.334-1.862-1.393-1.445-1.558-1.166 1.9-3.236 1.813-2.678-2.537-0.923-4.542-2.393 3.233-1.416 1.735-1.426-1.821-2.877-0.322-0.961 2.321-2.205 1.286-1.813-1.365-2.732 0.343-2.026 1.742-0.1 2.872-2.507-1.269-3.315-0.721 1.502 3.63-0.95 3.645-3.624-2.144-3.818-0.219 2.331 3.694-0.975 2.917-2.918-0.258-3.978 0.115 2.751 3.374-1.496 2.137-0.744 3.031-4.633-1.057 3.401 2.833 0.389 2.787-2.876 0.395-0.414 2.768-0.195 2.356 3.627 1.976-2.639 2.697-2.501 0.892 0.648 2.97 1.653 0.896 0.398 2.598-2.485 1.754 2.031 2.261 3.094 0.501-2.662 1.958 1.441 2.559 1.463 0.902 1.741 1.885-1.184 2.03 1.02 2.656 2.393-0.41 2.732 1.443 0.75 2.952-0.037 1.581 1.701 2.024 1.711 0.056 0.967 1.586 1.356 1.921 2.208 0.195 2.411-0.299-0.026 2.559 1.508 3.732 3.054-2.92 2.602-0.987 0.594 2.865 2.355 1.422 2.4-0.84 1.819-0.537 2.148 0.461 1.727 2.085 2.72-1.197 0.899-3.959 1.5 3.903 3.119 0.817 1.049-2.84 1.857-1.851 2.12 1.443 3.178 1.513 1.935-3.053-1.215-4.521 3.355 2.492 2.25-0.537 2.42-1.728-0.49-2.248 2.234-1.209 2.467 0.512-0.971-2.441 1.684-2.247 2.193 0.186 3.382-1.049-2.382-2.991 1.055-2.492 2.254-0.053 0.871-2.784-0.098-1.88-1.795-2.848 3.718-0.276l3.514-2.004-4.288-1.828 0.183-2.873 2.178-1.28-0.58-2.536z" stroke="#284912" stroke-miterlimit="10" stroke-width="2" fill="none"/></g><g transform="translate(10.225 60.124)"><path fill="#6ca035" d="m0 0c0.5-0.264 3.333 3.403 3.333 3.403v2.833l2.833 0.667 2 2.166v4.667h2.834l3.166 4h4.805l1.362 3 5.399-1.766 2.101 4.099 3.833-2.5 4.125 2.5 3.209-6.166 3.166 5.166 4.167-3.166 5.167 3-7.167-8.167 3.667 1.28-5.834-3.328-1.5 2.381-3.256-0.166-1.619-2.215-2.958 4.881-2.167-1.553h-1.666l-2.334-3.328-3.166 1.715-2.834-1.715-1.695-3.952-6.721-0.167 1.583-2-5.167-0.333 2.667-3.667-5.333-0.5 1.342-4.013h-3.676l-3.666 2.944z"/></g><g transform="translate(8.3906 54.694)"><path fill="#6ca035" d="m0 0c0.667-0.167 7.5 0 7.5 0l-1.666-2.167 1.666-4-8.333-1.5 1.611 3.167v2.333l-0.778 2.167z"/></g></g><g clip-path="url(#f)"><path fill="url(#a)" d="m41.529 69.511-1.92 1.148-1.435-1.429-1.236-1.604-2.561 1.985-1.66-0.685-0.397-2.892-0.818-1.725-1.187-1.031-2.878 0.911 0.504-2.945-3.492 0.984-0.091-2.168-0.064-1.992-3.366 0.081 2.502-3.252-4.084 0.005 2.155-2.638-3.22-0.809 0.731-1.98 0.54-1.808 1.202-1.751-3.188-1.581 0.615-1.748 2.952-1.377 0.34-1.527-2.299-2.228 0.655-1.612 1.261-1.346-0.209-1.978 2.475-0.586-0.881-2.545 1.232-1.27 2.457-0.162 0.931-1.366-0.105-2.61 1.644-0.765 1.499-0.891 0.916-1.874 3.145 2.289 1.448-0.614 1.537-0.362 1.338-1.027 1.374-1.294 1.457-1.668 1.876 1.858 1.62-2.457 1.591 2.931 1.76-1.212 1.257 2.297 1.517 0.292 1.658-0.074 1.82-0.257 2.129-0.606 1.551 0.782 1.83 0.391-0.691 3.817 3.462-1.596-0.487 2.995 2.864-0.371 1.483 1.082 0.664 1.714 1.007 1.452-1.762 2.844 0.899 1.336 1.594 1.144 0.046 1.713 1.857 1.303-1.155 1.902 0.258 1.631-1.582 1.65 1.76 1.661 1.892 1.923-1.573 1.517-1.505 1.37 1.233 2.141-1.663 1.209-0.974 1.39 1.166 2.589-1.305 1.299-1.724 0.916-1.522 0.955-2.067 0.313-0.042 2.378-0.453 2.216-1.86 0.461-3.122-1.883-1.036 1.388-1.041 1.648-1.955-0.585-1.351 1.067-1.139 2.606-1.818-0.23-1.844-1.558-1.627-1.017-1.786 3.5-1.529-2.098z"/></g><g clip-path="url(#n)"><g transform="translate(65.852 40.325)"><path fill="#2f5916" d="m0 0 1.168 1.66h-3.406l-30.739-7.228-6.355-3.766 2.166 3.565-5.33-2.624-0.881-2.545 1.232-1.269 2.457-0.162 0.932-1.366-0.105-2.61 1.644-0.764 1.498-0.893 0.916-1.873 3.145 2.289 1.448-0.614 1.537-0.362 1.339-1.027 1.373-1.295 1.457-1.667 1.877 1.858 1.62-2.457 1.59 2.931 1.761-1.213 1.257 2.297 1.516 0.293 1.658-0.074 1.821-0.258 2.129-0.605 1.55 0.782 1.83 0.391-0.691 3.817 3.463-1.596-0.487 2.995 2.864-0.372 1.482 1.083 0.664 1.713 1.007 1.453-1.762 2.843 0.9 1.337 1.594 1.144 0.046 1.712 1.856 1.303-5.041 1.174z"/></g><g transform="translate(68.414 44.335)"><path d="m0 0 1.582-1.649-0.258-1.631 1.155-1.904-1.857-1.302-0.046-1.713l-1.594-1.144-0.9-1.337 1.763-2.842-1.007-1.454-0.664-1.712-1.483-1.083-2.864 0.372 0.487-2.996-3.462 1.596 0.691-3.817-1.83-0.391-1.551-0.782-2.129 0.605-1.82 0.258-1.658 0.074-1.517-0.293-1.257-2.296-1.76 1.212-1.59-2.931-1.62 2.457-1.877-1.858-1.457 1.667-1.373 1.295-1.339 1.027-1.537 0.362-1.449 0.614-3.144-2.289-0.916 1.873-1.498 0.893-1.645 0.765 0.106 2.609-0.932 1.366-2.457 0.162-1.232 1.27 0.88 2.545-2.474 0.586 0.209 1.978-1.261 1.347-0.655 1.611 2.299 2.228-0.34 1.527-2.952 1.377-0.615 1.748 3.188 1.581-1.202 1.751-0.539 1.808-0.732 1.98 3.22 0.809-2.155 2.637 4.084-0.003-2.502 3.251 3.366-0.081 0.063 1.992 0.091 2.168 3.492-0.984-0.504 2.945 2.878-0.911 1.188 1.032 0.818 1.724 0.397 2.893 1.66 0.683 2.56-1.984 1.237 1.604 1.435 1.429 1.919-1.148 1.53 2.097 1.787-3.499 1.626 1.017 1.843 1.559 1.819 0.229 1.139-2.605 1.351-1.068 1.955 0.585 1.041-1.648 1.036-1.388 3.122 1.883 1.86-0.461 0.453-2.216 0.043-2.378 2.066-0.312 1.522-0.955 1.724-0.916 1.305-1.299-1.166-2.59 0.975-1.391 1.662-1.208-1.234-2.141 1.505-1.369 1.573-1.518-1.891-1.923-1.76-1.661z" stroke="#284912" stroke-miterlimit="10" stroke-width="2" fill="none"/></g></g><path fill="url(#e)" d="m29.828 81.403c-1.68 0.836-3.566 1.319-5.569 1.319-6.923 0-12.535-5.613-12.535-12.535 0-0.581 0.053-1.148 0.13-1.708-4.023-2.085-6.776-6.281-6.776-11.126 0-1.432 0.252-2.803 0.695-4.085-4.716-3.226-7.559-14.116-0.614-13.847-0.658-5.969 1.284-10.571 5.825-13.807-2.039-1.826 2.228-4.178 4.148-4.148-0.588-4.97-0.255-5.916 5.112-6.088-0.039-2.36 3.088-5.59 5.411-4.451-0.201-4.612 2.98-4.676 6.948-3.02 0.833-3.168 3.708-5.508 7.137-5.508 4.08 0 7.388 3.308 7.388 7.389 0 0.047-0.007 0.094-0.008 0.143 0.131-0.027 0.269-0.027 0.402-0.045 1.18-1.79 3.205-2.973 5.51-2.973 3.337 0 6.089 2.482 6.528 5.7 0.34-0.092 0.692-0.159 1.062-0.159 1.986 0 3.629 1.433 3.973 3.319 2.082 0.434 4.176 1.22 5.185 1.626 4.461 2.55 5.559 6.356 3.291 11.419 0.381-0.186 0.803-0.179 1.211-0.171 0.331 0.006 0.653 0.013 0.937-0.084 0.31 2.718-1.077 5.156-2.409 7.341 4.486-0.062 7.717 1.826 9.244 6.274 1.905-2.334 3.068 3.794-1.36 3.932l-0.137-0.137c1.887 1.986 2.2 5.68-0.71 7.088 2.025 2.468-0.328 7.282-3.281 8.481 0.532 0.701 0.859 1.565 0.859 2.514 0 2.31-1.874 4.183-4.185 4.183-0.414 0-0.806-0.078-1.184-0.19 0.002 0.063 0.01 0.126 0.01 0.19 0 3.436-2.785 6.219-6.219 6.219-0.756 0-1.477-0.14-2.148-0.389-3.094 6.408-7.523 7.65-13.292 3.693-0.693 3.757-4.71 5.232-9.871 5.232-3.293 0.001-7.049-0.6-10.708-1.591m-13.839-37.56c0.105 0.342 0.238 0.605 0.281 0.955-0.111-2.366 1.424-3.451 3.588-3.465-2.567-0.788-0.684-5.808 0.999-6.621-2.707-0.534 1.521-5.304 2.681-5.875-1.865-1.881-4.246-2.875-4.142-5.966-0.115 2.145-0.6 3.015-2.776 3.544l0.026 0.05c1.409 0.89 1.463 3.448 0.692 4.78-0.8 1.383-2.292 1.754-3.654 2.347 2.323-0.417 0.534 5.43-0.75 6.255 3.283-0.934 2.868 2.051 2.961 4.086-0.001 0.011-0.007 0.018-0.006 0.032 0.002 0.101 0.005 0.104 0.007 0.012l-0.001-0.044c0.001-0.058 0.022-0.093 0.071-0.093 0.008 0 0.015 0.001 0.023 0.003"/><g clip-path="url(#m)"><g transform="translate(81.588 45.975)"><path fill="#b6e7ef" d="m0 0c-0.226-0.818-0.853-1.214-1.602-0.296-1.527-4.449-4.756-6.336-9.244-6.275 1.333-2.184 2.72-4.622 2.41-7.34-0.633 0.217-1.458-0.083-2.147 0.255 2.268-5.064 1.17-8.87-3.292-11.42-1.009-0.405-3.102-1.192-5.185-1.626-0.344-1.886-1.987-3.319-3.973-3.319-0.37 0-0.721 0.067-1.062 0.159-0.439-3.217-3.191-5.7-6.529-5.7-2.304 0-4.329 1.184-5.509 2.973-0.133 0.018-0.271 0.018-0.401 0.045 0.001-0.049 0.007-0.096 0.007-0.144 0-4.08-3.307-7.387-7.388-7.387-3.429 0-6.304 2.34-7.137 5.508-1.905-0.795-3.624-1.187-4.88-0.875 0.001-4.207 3.1-4.232 6.947-2.625 0.833-3.168 3.708-5.508 7.137-5.508 4.08 0 7.388 3.307 7.388 7.387 0 0.048-0.006 0.095-0.007 0.144 0.13-0.027 0.268-0.027 0.401-0.045 1.18-1.789 3.205-2.973 5.509-2.973 3.338 0 6.09 2.483 6.529 5.7 0.341-0.092 0.692-0.159 1.062-0.159 1.986 0 3.629 1.433 3.973 3.319 2.083 0.434 4.176 1.221 5.184 1.626 4.462 2.55 5.56 6.356 3.292 11.42 0.691-0.338 1.514-0.038 2.149-0.255 0.309 2.718-1.078 5.156-2.41 7.34 4.486-0.061 7.716 1.826 9.244 6.275 1.762-2.16 2.88 2.912-0.466 3.796"/></g><g transform="translate(56.921 39.056)"><path fill="#eef7ff" d="m0 0c-0.613 2.135-3.351 0.163 0 0"/></g><g transform="translate(21.725 43.86)"><path fill="#fff" d="m0 0 2.834 3.167-2.834 3.167 4.334 1.666-2.168 1 5.305 1.834-2.971 1.5 2.969 0.996s1.494 4.104 1.159 3.837c-0.345-0.274 2.767 0.366 2.767 0.366l0.939 2.801 3.332-1.334 2.668 4.167 3.332-1.833 4.871 1.833 2.629-3.167h2.834l1.834-3 3.332 2-3.301-4.064-2.699 3.064-4-1.736-2.207 2.736-3.293-2.736h-5.166l-2.834-2.945-3.038-1.735-1.294-3.25-2.668-2v-5.6l-2.666-3.439 0.166 2.705h-4.166z"/></g></g><path fill="url(#d)" d="m45.669 59.467-1.353-2.068-1.486-0.43-2.146 1.153-1.506-0.83-1.207-1.267-1.758-0.479-0.392-2.051-2.149-0.312-0.895-1.497 0.157-2.038-0.844-1.391-1.797-1.153-0.131-1.76-0.154-1.716-0.813-1.712 2.389-1.56 0.252-1.535 0.505-1.473 0.158-1.603 0.124-1.724 0.072-1.927 2.07-0.542-0.044-2.311 2.509 0.287 0.756-1.694 2.069 0.347 1.367-0.691 1.335-0.865 1.408-0.952 1.516-1.177 1.716-0.111 1.759-0.335 1.294 2.527 2.146-1.796 1.017 2.128 2.173-0.682 1.663 0.648 1.232 1.292 1.333 1.132-0.302 2.512 1.079 1.157 1.448 1.015 0.431 1.607 1.502 1.237-0.52 1.856 0.301 1.601-1 1.632 0.221 1.556-0.322 1.521 1.226 1.983-2.099 0.98 1.214 2.403-1.621 1.026-1.565 0.88 0.279 2.539-2.893-0.709 0.124 2.965-2.451-0.796-0.722 2.421-1.901-0.132-1.76-0.122-1.722-0.656-1.564 2.146-1.728-0.454z"/><g clip-path="url(#k)"><g transform="translate(63.953 40.284)"><path fill="#2f5916" d="m0 0-0.41 0.668-1.315-0.844-0.843-1.39 0.156-2.039-0.896-1.497-2.149-0.312-0.391-2.051-1.758-0.479-1.207-1.267-1.506-0.83-2.146 1.153-1.486-0.43-1.354-2.069-1.727-0.453-1.564 2.147-1.722-0.657-1.761-0.122-1.9-0.132-0.722 2.42-2.451-0.795 0.125 2.964-2.893-0.708 0.277 2.539-1.564 0.879-0.394 0.25 0.147-1.484 0.124-1.725 0.072-1.926 2.071-0.542-0.045-2.311 2.509 0.287 0.756-1.694 2.069 0.346 1.367-0.69 1.335-0.865 1.408-0.951 1.517-1.178 1.714-0.111 1.76-0.335 1.294 2.527 2.146-1.797 1.017 2.129 2.172-0.683 1.664 0.649 1.232 1.292 1.333 1.133-0.302 2.51 1.079 1.158 1.447 1.015 0.432 1.607 1.502 1.237-0.521 1.855l0.302 1.602z"/></g><g transform="translate(62.953 41.916)"><path d="m0 0 1-1.632-0.302-1.601 0.521-1.856-1.502-1.237-0.432-1.607-1.447-1.015-1.079-1.157 0.302-2.511-1.333-1.133-1.232-1.292-1.664-0.648-2.172 0.682-1.017-2.129-2.146 1.797-1.294-2.527-1.76 0.335-1.714 0.111-1.517 1.178-1.408 0.951-1.335 0.865-1.367 0.691-2.069-0.347-0.756 1.694-2.509-0.287 0.045 2.311-2.071 0.542-0.072 1.926-0.124 1.725-0.158 1.604-0.505 1.471-0.252 1.536-2.389 1.56 0.813 1.712 0.154 1.716 0.131 1.76 1.797 1.153 0.843 1.39-0.156 2.04 0.895 1.496 2.149 0.312 0.392 2.051 1.758 0.479 1.207 1.267 1.505 0.83 2.147-1.153 1.486 0.43 1.353 2.069 1.727 0.453 1.565-2.147 1.721 0.657 1.761 0.122 1.901 0.133 0.722-2.421 2.451 0.795-0.125-2.964 2.893 0.708l-0.278-2.539 1.564-0.879 1.621-1.028-1.213-2.402 2.099-0.979-1.226-1.984 0.322-1.521-0.221-1.556z" stroke="#284912" stroke-miterlimit="10" stroke-width="2" fill="none"/></g><g transform="translate(19.396 22.871)"><path d="m0 0c-0.361 0.968-0.6 3.015-2.775 3.544l0.025 0.051c1.41 0.889 1.463 3.447 0.692 4.779-0.8 1.383-2.292 1.754-3.654 2.348 2.207 0.615 0.535 5.429-0.75 6.254 3.152 0.195 2.868 2.05 2.961 4.086 0 0.011-0.007 0.017-0.005 0.032 0.002 0.1 0.004 0.104 0.006 0.011l-0.001-0.043c0.002-0.066 0.029-0.102 0.095-0.09 0.105 0.341 1.323-2.494 3.868-2.51-1.879-1.291-0.683-5.809 1-6.621-2.707-0.534 1.52-5.305 2.681-5.875-1.866-1.881-3.239-3.798-4.143-5.966zm61.299 23.238-0.32-0.319c2.046 1.934 2.474 5.818-0.528 7.271 2.026 2.468-0.328 7.282-3.281 8.481 0.532 0.701 0.859 1.565 0.859 2.514 0 2.31-1.873 4.183-4.184 4.183-0.414 0-0.807-0.078-1.185-0.19 0.002 0.063 0.01 0.126 0.01 0.19 0 3.436-2.784 6.219-6.219 6.219-0.756 0-1.477-0.141-2.147-0.389-3.095 6.408-7.523 7.65-13.292 3.693-1.135 6.153-11.186 6.186-20.579 3.641-1.68 0.836-3.567 1.319-5.57 1.319-6.923 0-12.534-5.613-12.534-12.536 0-0.58 0.053-1.147 0.129-1.707-4.022-2.086-6.776-6.281-6.776-11.126 0-1.432 0.252-2.803 0.695-4.085-4.716-3.226-7.559-14.117-0.613-13.847-0.659-5.969 1.284-10.571 5.825-13.807-2.04-1.826 2.228-4.178 4.147-4.148-0.588-4.97-0.254-5.916 5.113-6.088-0.039-2.361 3.087-5.591 5.411-4.451-0.202-4.612 2.98-4.676 6.948-3.02 0.832-3.168 3.708-5.508 7.137-5.508 4.08 0 7.387 3.308 7.387 7.388 0 0.048-0.006 0.095-0.007 0.144 0.13-0.028 0.268-0.028 0.401-0.045 1.18-1.789 3.206-2.973 5.51-2.973 3.338 0 6.09 2.482 6.529 5.699 0.34-0.092 0.691-0.158 1.062-0.158 1.985 0 3.628 1.433 3.972 3.318 2.083 0.435 4.176 1.221 5.185 1.626 4.462 2.55 5.559 6.357 3.292 11.42 0.69-0.338 1.513-0.038 2.148-0.255 0.31 2.718-1.078 5.157-2.41 7.34 4.486-0.06 7.717 1.826 9.244 6.276 1.905-2.335 3.069 3.793-1.359 3.93z" stroke="#b6e7ef" stroke-miterlimit="10" stroke-width="2" fill="none"/></g></g><path fill="url(#c)" d="m10.895 37.375s1.251-0.75 1.501-0.75-1.501-3.333-1.501-3.333l5.584 0.333-0.589 5.923-4.995-2.173z"/><g clip-path="url(#j)"><g transform="translate(15.891 39.548)"><path fill="#284912" d="m0 0-4.795-2.631 0.057 0.887 0.567-0.324c0.185-0.102 0.384-0.202 0.554-0.286 0.045-0.009 0.08-0.031 0.12-0.068h0.001l0.243-0.063 0.004-0.003 0.01-0.004c0.023-0.006 0.189-0.137 0.227-0.266 0.027-0.064 0.039-0.135 0.041-0.183l-0.001-0.035-0.004-0.067c-0.01-0.086-0.02-0.111-0.031-0.16l-0.065-0.201c-0.088-0.236-0.18-0.445-0.275-0.655-0.382-0.832-0.789-1.628-1.205-2.429l-0.473 0.73 5.613-0.165-5.553-0.833-0.824-0.123 0.351 0.856h0.001c0.408 0.785 0.815 1.584 1.18 2.378 0.09 0.198 0.177 0.399 0.245 0.582l0.039 0.119c0.001 0.005 0.007 0.034 0.002 0.003l-0.001-0.026 0.002-0.012c0-0.043 0.01-0.105 0.035-0.164 0.034-0.116 0.201-0.229 0.215-0.226l-0.009 0.004-0.005 0.003-0.001 0.001c-0.053 0.013 0.454-0.118 0.238-0.061h-0.003c-0.171 0.037-0.348 0.088-0.514 0.151-0.452 0.216-0.84 0.433-1.238 0.669l-0.831 0.594 0.889 0.293 5.194 1.715z"/></g><g transform="translate(48.928 49.316)"><path fill="#6ca035" d="m0 0 3.635 2.6-1.818-4.118 5.718 1.083-5.2-4.245 1.433-4.47-4.583-0.167-2.105-3.871s-3.195 2.788-2.545 3.221-6.067 0.817-6.067 0.817l5.2 2.215s-7.583 3.18-6.933 3.215 7.367 0 7.367 0l-1.951 7.186 3.37-4.984 2.426 4.984 2.053-3.466z"/></g><g transform="translate(36.229,34.625)"><path fill="#eef7ff" d="m0 0c-2.316 2.013-3.997 5.007-1.013 7.466-3.145 0.755-2.167 5.555 0.654 6.059-0.158 4.156 3.398 5.372 6.834 6.017-1.115 2.791 6.093 3.895 7.063 0.305 1.841 1.365 3.89 1.287 5.718-0.109 1.315-1.005 2.455-2.702 0.964-4.083 2.28 0.516 4.757-1.185 4.045-3.74-0.426-1.525-3.312-3.564-3.748-0.973-2.946-3.024-7.143-0.995-8.554 2.374-0.998-1.154-3.065-2.503-4.616-2.011 3.465-1.534-3.206-4.396-4.133-5.643 2.151-1.184 6.971-5.065 2.433-6.661 3.889-5.06-9.013-4.947-5.314 0.832"/></g><g transform="translate(60.53 48.081)"><path fill="#b6e7ef" d="m0 0c-0.016-0.072-0.024-0.143-0.045-0.217-0.455-1.633-3.544-3.814-4.011-1.043-2.632-2.701-6.192-1.627-8.175 0.899 1.499-3.233 5.567-5.11 8.446-2.153 0.436-2.591 3.323-0.552 3.749 0.973 0.156 0.562 0.152 1.078 0.036 1.541"/></g><g transform="translate(48.157 47.905)"><path fill="#b6e7ef" d="m0 0c-0.33 0.449-0.617 0.936-0.835 1.457-1.068-1.234-3.28-2.678-4.94-2.152 3.707-1.641-3.43-4.703-4.422-6.037 2.301-1.268 7.459-5.422 2.603-7.129 1.951-2.539-0.049-3.861-2.315-3.91 2.522-0.624 5.873 0.57 3.628 3.492 4.538 1.595-0.282 5.476-2.433 6.661 0.927 1.247 7.597 4.109 4.132 5.642 1.536-0.487 3.573 0.83 4.582 1.976"/></g><g transform="translate(36.229,34.625)"><path stroke="#b6e7ef" fill="none" stroke-miterlimit="10" d="m0 0c-2.316 2.013-3.997 5.007-1.013 7.466-3.145 0.755-2.167 5.555 0.654 6.059-0.158 4.156 3.398 5.372 6.834 6.017-1.115 2.791 6.093 3.895 7.063 0.305 1.841 1.365 3.89 1.287 5.718-0.109 1.315-1.005 2.455-2.702 0.964-4.083 2.28 0.516 4.757-1.185 4.045-3.74-0.426-1.525-3.312-3.564-3.748-0.973-2.946-3.024-7.143-0.995-8.554 2.374-0.998-1.154-3.065-2.503-4.616-2.011 3.465-1.534-3.206-4.396-4.133-5.643 2.151-1.184 6.971-5.065 2.433-6.661 3.889-5.06-9.013-4.947-5.314 0.832"/></g><g transform="translate(45.729,26.458)"><path fill="#eef7ff" d="m0 0c-1.491 1.572-2.034 3.647-0.531 5.443 0.979 1.17 2.845 1.983 4.014 0.62-2.652 3.375 2.619 7.579 4.943 4.443-0.386 2.659 0.944 4.496 3.475 5.351 1.615 0.545 4.227 0.733 4.123-1.644 1.912-3.004-2.202-4.216-4.511-4.342 2.242-0.128 3.881-1.118 3.333-3.596-0.555-2.503-2.8-3.671-5.117-4.096 0.604-2.853-3.737-2.429-5.062-1.233-0.622-1.175-4.667-0.946-4.667-0.946"/></g><g transform="translate(58.933 35.999)"><path fill="#b6e7ef" d="m0 0c0.14-0.465 0.163-1.018 0.015-1.687-0.555-2.504-2.8-3.672-5.118-4.098 0.605-2.852-3.736-2.428-5.061-1.233-0.477-0.899-2.959-0.974-4.094-0.961 0.247-0.552 0.599-1.082 1.054-1.562 0 0 4.045-0.229 4.667 0.946 1.325-1.196 5.666-1.62 5.061 1.233 2.318 0.425 4.563 1.593 5.118 4.096 0.395 1.787-0.356 2.791-1.642 3.266"/></g><g transform="translate(61.753 40.671)"><path fill="#b6e7ef" d="m0 0c0.056 1.289-0.688 1.82-1.637 1.953 0.011-0.119 0.016-0.242 0.01-0.376 1.911-3.003-2.531-5.597-4.84-5.723 1.388-0.079 1.635-0.396 3.422 0 2.194 0.458 4.591 1.716 3.045 4.146"/></g><g transform="translate(45.729,26.458)"><path stroke="#b6e7ef" fill="none" stroke-miterlimit="10" d="m0 0c-1.491 1.572-2.034 3.647-0.531 5.443 0.979 1.17 2.845 1.983 4.014 0.62-2.652 3.375 2.619 7.579 4.943 4.443-0.386 2.659 0.944 4.496 3.475 5.351 1.615 0.545 4.227 0.733 4.123-1.644 1.912-3.004-2.202-4.216-4.511-4.342 2.242-0.128 3.881-1.118 3.333-3.596-0.555-2.503-2.8-3.671-5.117-4.096 0.604-2.853-3.737-2.429-5.062-1.233-0.622-1.175-4.667-0.946-4.667-0.946z"/></g><g transform="translate(16.396 54.708)"><path fill="#fff" d="m0 0c-0.222 0.568-0.379 1.165-0.505 1.773-0.124 0.61-0.163 1.238-0.148 1.874 0.021 1.271 0.428 2.593 1.202 3.675 0.759 1.097 1.834 1.918 2.96 2.512 1.136 0.592 2.344 0.966 3.563 1.183l-0.353-0.404c-0.031 0.524 0.042 1.057 0.194 1.58 0.154 0.524 0.409 1.028 0.737 1.483 0.676 0.901 1.647 1.543 2.65 1.878 1.001 0.355 2.033 0.473 3.032 0.448 1.001-0.029 1.981-0.189 2.918-0.502-0.97-0.182-1.911-0.33-2.813-0.547s-1.765-0.484-2.536-0.857c-0.38-0.196-0.741-0.405-1.067-0.646-0.317-0.251-0.625-0.503-0.876-0.811-0.532-0.595-0.896-1.334-1.251-2.177l-0.165-0.389-0.188-0.014h-0.001c-1.097-0.469-2.172-0.93-3.17-1.48-0.996-0.548-1.915-1.194-2.624-2.03-0.349-0.42-0.649-0.882-0.886-1.384-0.229-0.505-0.414-1.042-0.531-1.608-0.224-1.135-0.219-2.336-0.142-3.557"/></g><g transform="translate(22.27 59.708)"><path fill="#fff" d="m0 0s-0.074 0.183-0.203 0.501c-0.052 0.163-0.152 0.347-0.194 0.587-0.044 0.24-0.094 0.517-0.134 0.828-0.013 0.307 0.01 0.642 0.033 1 0.081 0.344 0.151 0.729 0.306 1.092 0.192 0.342 0.328 0.751 0.624 1.051l0.404 0.484 0.481 0.406c0.317 0.285 0.695 0.457 1.05 0.658l0.266 0.146 0.291 0.106c0.176 0.061 0.342 0.126 0.552 0.17 0.793 0.2 1.493 0.194 2.087 0.139 0.592-0.047 1.07-0.135 1.407-0.191 0.337-0.065 0.53-0.102 0.53-0.102s-0.193-0.035-0.532-0.098c-0.338-0.054-0.825-0.113-1.391-0.183-0.561-0.069-1.223-0.185-1.819-0.399-0.144-0.038-0.316-0.122-0.485-0.2l-0.23-0.106-0.226-0.135c-0.3-0.185-0.628-0.342-0.88-0.589l-0.415-0.325-0.34-0.389c-0.253-0.239-0.391-0.547-0.579-0.818-0.147-0.289-0.257-0.592-0.374-0.875-0.054-0.301-0.141-0.587-0.188-0.857-0.014-0.267-0.041-0.519-0.063-0.749-0.019-0.23 0.014-0.443 0.013-0.612 0.006-0.343 0.009-0.54 0.009-0.54"/></g><g transform="translate(14.52 67.027)"><path fill="#fff" d="m0 0s-0.133 0.379-0.252 1.062c-0.057 0.341-0.13 0.761-0.153 1.242-0.036 0.482-0.064 1.033-0.029 1.633 0.058 1.199 0.272 2.623 0.891 4.104 0.307 0.738 0.734 1.486 1.302 2.18 0.314 0.326 0.582 0.698 0.973 0.971 0.357 0.297 0.776 0.594 1.069 0.766 0.303 0.195 0.693 0.404 1.058 0.605 0.369 0.202 0.741 0.36 1.115 0.526 0.756 0.314 1.536 0.565 2.326 0.714 0.788 0.147 1.577 0.212 2.329 0.145 0.749-0.041 1.45-0.236 2.057-0.456 0.604-0.251 1.107-0.559 1.51-0.873 0.196-0.166 0.383-0.308 0.537-0.46 0.144-0.162 0.276-0.31 0.395-0.445 0.243-0.252 0.365-0.519 0.475-0.664 0.096-0.159 0.147-0.244 0.147-0.244s-0.091 0.041-0.263 0.115c-0.171 0.072-0.402 0.201-0.715 0.313-0.302 0.13-0.68 0.245-1.095 0.362-0.422 0.106-0.896 0.167-1.394 0.204-1.007 0.037-2.131-0.139-3.304-0.571-0.589-0.205-1.184-0.49-1.79-0.784-0.621-0.336-1.162-0.618-1.8-1.031-0.366-0.208-0.56-0.356-0.791-0.536-0.242-0.149-0.436-0.387-0.658-0.578-0.205-0.216-0.394-0.459-0.594-0.688-0.168-0.263-0.365-0.501-0.524-0.772-0.325-0.534-0.627-1.085-0.877-1.64-0.262-0.549-0.488-1.095-0.683-1.609-0.202-0.512-0.384-0.995-0.534-1.43-0.15-0.439-0.281-0.824-0.389-1.14-0.215-0.649-0.339-1.021-0.339-1.021"/></g><g transform="translate(8.3906 54.694)"><path fill="#fff" d="m0 0s-0.1 0.285-0.208 0.794c-0.106 0.509-0.225 1.244-0.256 2.138-0.038 0.894 0.016 1.945 0.246 3.083 0.252 1.128 0.664 2.37 1.668 3.467 0.372 0.399 0.846 0.863 1.313 1.237 0.467 0.385 0.964 0.73 1.479 1.021 1.022 0.582 2.135 0.93 3.111 0.959 0.483 0.034 0.93-0.023 1.308-0.111 0.378-0.091 0.69-0.21 0.929-0.341 0.246-0.106 0.411-0.25 0.528-0.327 0.112-0.085 0.172-0.131 0.172-0.131s-0.076 0.002-0.217 0.006c-0.139 0.004-0.338 0.019-0.587 0.003-0.496-0.011-1.167-0.118-1.884-0.398-0.358-0.136-0.727-0.337-1.109-0.546-0.371-0.243-0.758-0.497-1.139-0.805-0.388-0.294-0.771-0.633-1.154-0.986-0.394-0.358-0.728-0.71-1.152-1.135-0.271-0.288-0.556-0.688-0.783-1.11-0.239-0.423-0.436-0.888-0.62-1.351-0.373-0.926-0.636-1.865-0.874-2.678-0.462-1.674-0.771-2.789-0.771-2.789"/></g><g transform="translate(34.896 43.356)"><path fill="#fff" d="m0 0c-0.249 0.421-0.365 0.944-0.312 1.458 0.051 0.516 0.264 1.023 0.596 1.443 0.33 0.42 0.767 0.76 1.249 0.998 0.482 0.243 1.004 0.392 1.533 0.484l-0.391-0.753-0.001 0.001c-0.124 0.221-0.229 0.456-0.299 0.708-0.063 0.254-0.1 0.515-0.087 0.777 0.02 0.526 0.195 1.017 0.437 1.436 0.495 0.84 1.21 1.446 1.966 1.935 0.764 0.487 1.598 0.844 2.487 1.057 0.88 0.19 1.869 0.3 2.843-0.19l-0.688-0.665c-0.274 0.648-0.476 1.421-0.241 2.191 0.232 0.775 0.925 1.281 1.595 1.458 0.68 0.186 1.397 0.153 2.029-0.103 0.314-0.129 0.606-0.324 0.818-0.587 0.214-0.26 0.334-0.588 0.341-0.913-0.049 0.323-0.207 0.616-0.433 0.828-0.226 0.215-0.51 0.356-0.807 0.436-0.595 0.158-1.242 0.096-1.784-0.133-0.546-0.228-0.958-0.668-1.033-1.173-0.087-0.505 0.114-1.053 0.407-1.551l0.88-1.494-1.567 0.83c-0.561 0.296-1.383 0.27-2.134 0.091-0.761-0.181-1.509-0.498-2.176-0.925-0.663-0.424-1.27-0.961-1.636-1.591-0.181-0.314-0.293-0.647-0.305-0.972-0.009-0.163 0.016-0.322 0.052-0.481 0.046-0.158 0.114-0.311 0.197-0.461v-0.001l0.275-0.749-0.667-0.003c-0.447-0.002-0.896-0.05-1.324-0.179-0.429-0.127-0.832-0.342-1.168-0.644s-0.593-0.699-0.717-1.15c-0.125-0.451-0.111-0.947 0.065-1.413"/></g></g></g></svg>
