<?xml version="1.0" encoding="UTF-8" standalone="no"?>
<!-- Created with Inkscape (http://www.inkscape.org/) -->

<svg
   xmlns:dc="http://purl.org/dc/elements/1.1/"
   xmlns:cc="http://creativecommons.org/ns#"
   xmlns:rdf="http://www.w3.org/1999/02/22-rdf-syntax-ns#"
   xmlns:svg="http://www.w3.org/2000/svg"
   xmlns="http://www.w3.org/2000/svg"
   xmlns:inkscape="http://www.inkscape.org/namespaces/inkscape"
   version="1.1"
   viewBox="0 0 64.227875 58.53825"
   id="svg2"
   xml:space="preserve"><metadata
     id="metadata8"><rdf:RDF><cc:Work
         rdf:about=""><dc:format>image/svg+xml</dc:format><dc:type
           rdf:resource="http://purl.org/dc/dcmitype/StillImage" /></cc:Work></rdf:RDF></metadata><defs
     id="defs6"><clipPath
       id="clipPath16"><path
         d="m 24.691,44.611 c -0.37,0.29 -0.832,0.47 -1.34,0.47 l 0,0 c -0.382,0 -0.736,-0.107 -1.048,-0.279 l 0,0 c -0.344,0.173 -0.726,0.279 -1.139,0.279 l 0,0 c -0.68,0 -1.291,-0.269 -1.75,-0.699 l 0,0 c -0.459,0.43 -1.072,0.699 -1.75,0.699 l 0,0 c -1.103,0 -2.037,-0.703 -2.396,-1.682 l 0,0 c -0.399,0.596 -1.075,0.988 -1.844,0.988 l 0,0 c -0.602,0 -1.147,-0.242 -1.545,-0.631 l 0,0 c -0.688,0.804 -1.697,1.325 -2.838,1.325 l 0,0 c -2.072,0 -3.75,-1.679 -3.75,-3.75 l 0,0 c 0,-0.808 0.26,-1.551 0.693,-2.162 l 0,0 C 5.72,38.805 5.553,38.368 5.553,37.884 l 0,0 c 0,-0.681 0.312,-1.282 0.795,-1.688 l 0,0 C 5.865,35.789 5.553,35.188 5.553,34.509 l 0,0 c 0,-0.783 0.408,-1.467 1.02,-1.861 l 0,0 C 5.957,32.233 5.553,31.528 5.553,30.73 l 0,0 c 0,-0.886 0.506,-1.642 1.238,-2.029 l 0,0 0,-0.086 C 6.528,28.356 6.359,28.003 6.359,27.605 l 0,0 c 0,-0.075 0.01,-0.149 0.022,-0.221 l 0,0 C 5.047,26.829 4.109,25.515 4.109,23.98 l 0,0 c 0,-1.083 0.475,-2.049 1.219,-2.724 l 0,0 C 5.039,20.885 4.859,20.424 4.859,19.918 l 0,0 c 0,-0.383 0.105,-0.736 0.277,-1.049 l 0,0 C 4.964,18.526 4.859,18.14 4.859,17.731 l 0,0 c 0,-0.68 0.268,-1.293 0.699,-1.751 l 0,0 C 5.127,15.521 4.859,14.908 4.859,14.231 l 0,0 c 0,-1.106 0.701,-2.038 1.682,-2.399 l 0,0 C 5.945,11.435 5.553,10.758 5.553,9.988 l 0,0 c 0,-0.601 0.242,-1.145 0.631,-1.542 l 0,0 C 5.379,7.756 4.859,6.748 4.859,5.605 l 0,0 c 0,-2.07 1.678,-3.749 3.75,-3.749 l 0,0 c 0.819,0 1.571,0.269 2.186,0.714 l 0,0 C 10.928,2.547 11.06,2.529 11.2,2.529 l 0,0 c 0.681,0 1.28,0.313 1.687,0.796 l 0,0 c 0.406,-0.483 1.007,-0.796 1.688,-0.796 l 0,0 c 0.544,0 1.036,0.203 1.421,0.529 l 0,0 C 16.244,2.963 16.51,2.904 16.791,2.904 l 0,0 c 0.365,0 0.703,0.098 1.006,0.256 l 0,0 c 0.31,-0.91 1.164,-1.568 2.179,-1.568 l 0,0 c 0.92,0 1.708,0.541 2.08,1.319 l 0,0 C 22.781,1.766 24.053,1 25.508,1 l 0,0 c 1.722,0 3.189,1.065 3.794,2.57 l 0,0 c 0.467,-0.629 1.207,-1.041 2.051,-1.041 l 0,0 c 0.678,0 1.291,0.27 1.75,0.699 l 0,0 c 0.459,-0.429 1.07,-0.699 1.75,-0.699 l 0,0 c 0.847,0 1.593,0.417 2.059,1.051 l 0,0 0.304,0 c 0.391,-0.629 1.083,-1.051 1.877,-1.051 l 0,0 c 0.301,0 0.588,0.063 0.85,0.17 l 0,0 c 0.502,-1.476 3.996,-1.175 5.318,-0.195 l 0,0 c 2.25,1.666 1.565,3.822 0.961,4.24 l 0,0 c 0.488,0.406 0.807,1.009 0.807,1.695 l 0,0 c 0,0.68 -0.313,1.282 -0.795,1.688 l 0,0 c 0.482,0.407 0.795,1.008 0.795,1.687 l 0,0 c 0,0.745 -0.371,1.401 -0.934,1.803 l 0,0 c 0.672,0.404 1.127,1.133 1.127,1.975 l 0,0 c 0,0.939 -0.562,1.744 -1.367,2.107 l 0,0 c 0.262,0.26 0.424,0.62 0.424,1.017 l 0,0 c 0,0.077 -0.012,0.149 -0.023,0.224 l 0,0 c 1.333,0.554 2.273,1.866 2.273,3.402 l 0,0 c 0,1.566 -0.978,2.894 -2.354,3.43 l 0,0 c 0.061,0.201 0.104,0.411 0.104,0.633 l 0,0 c 0,0.119 -0.018,0.233 -0.035,0.347 l 0,0 c 0.482,0.467 0.785,1.116 0.785,1.84 l 0,0 c 0,0.679 -0.269,1.293 -0.7,1.751 l 0,0 c 0.431,0.458 0.7,1.071 0.7,1.749 l 0,0 c 0,0.959 -0.531,1.782 -1.311,2.222 l 0,0 c 0.772,0.348 1.311,1.119 1.311,2.02 l 0,0 c 0,0.301 -0.062,0.586 -0.17,0.847 l 0,0 c 1.476,0.504 0.445,1.695 0.445,2.684 l 0,0 c 0,0.378 -0.111,0.8 -0.332,1.177 l 0,0 c 0.156,0.312 0.254,0.66 0.254,1.033 l 0,0 c 0,1.277 -1.035,2.312 -2.312,2.312 l 0,0 c -0.745,0 -1.399,-0.357 -1.821,-0.902 l 0,0 c -0.404,0.545 -1.047,0.902 -1.777,0.902 l 0,0 c -0.68,0 -1.281,-0.312 -1.687,-0.795 l 0,0 c -0.407,0.483 -1.006,0.795 -1.688,0.795 l 0,0 c -0.781,0 -1.465,-0.408 -1.859,-1.02 l 0,0 c -0.417,0.616 -1.12,1.02 -1.918,1.02 l 0,0 c -0.906,0 -1.682,-0.526 -2.063,-1.285 l 0,0 c -0.262,0.292 -0.639,0.479 -1.063,0.479 l 0,0 c -0.075,0 -0.148,-0.011 -0.22,-0.023 l 0,0 c -0.555,1.334 -1.869,2.273 -3.404,2.273 l 0,0 c -1.084,0 -2.048,-0.476 -2.723,-1.22"
         inkscape:connector-curvature="0"
         id="path18" /></clipPath><linearGradient
       x1="0"
       y1="0"
       x2="1"
       y2="0"
       id="linearGradient24"
       gradientUnits="userSpaceOnUse"
       gradientTransform="matrix(8.7752104,-38.5355,-38.5355,-8.7752104,21.074707,45.578613)"
       spreadMethod="pad"><stop
         id="stop26"
         style="stop-color:#8bbb44;stop-opacity:1"
         offset="0" /><stop
         id="stop28"
         style="stop-color:#6a872a;stop-opacity:1"
         offset="1" /></linearGradient><clipPath
       id="clipPath36"><path
         d="m 0,46.831 51.382,0 L 51.382,0 0,0 0,46.831 z"
         inkscape:connector-curvature="0"
         id="path38" /></clipPath><clipPath
       id="clipPath64"><path
         d="m 15.268,39.91 c 0,-0.277 0.038,-0.541 0.1,-0.8 l 0,0 c -2.357,1.956 -6.09,2.737 -8.63,1.454 l 0,0 C 3.04,38.696 4.463,34.073 6.706,31.17 l 0,0 c -1.6,-2.162 -2.69,-4.594 -2.312,-7.213 l 0,0 C 2.123,22.338 0.72,20.131 1.047,17.051 l 0,0 c 0.181,-1.71 1.927,-3.199 3.625,-2.234 l 0,0 C 5.07,13.271 5.698,11.842 6.768,10.948 l 0,0 c 0.035,-1.694 1.293,-3.313 3,-4.535 l 0,0 c 1.437,-2.936 5.428,-4.622 8.425,-2.374 l 0,0 c 1.515,-0.602 3.514,-0.285 5.303,0.606 l 0,0 C 24.632,3.198 26.66,2.871 28.823,3.353 l 0,0 C 29.462,2.641 30.38,2.185 31.412,2.185 l 0,0 c 1.215,0 2.283,0.624 2.908,1.565 l 0,0 c 2.683,-0.172 5.392,0.072 8.227,0.301 l 0,0 c 1.495,0.119 2.314,1.058 2.5,2.5 l 0,0 c 0.087,0.683 0.048,1.254 -0.104,1.752 l 0,0 c 1.967,1.51 3.197,3.57 3.149,5.968 l 0,0 c 3.051,1.971 2.851,6.059 0.595,8.9 l 0,0 c 0.934,0.989 0.65,2.42 -0.123,3.397 l 0,0 c -0.9,1.138 0.125,3.576 0.068,4.935 l 0,0 c -0.023,0.56 -0.175,1.034 -0.402,1.457 l 0,0 c 1.588,3.391 -1.543,6.499 -5.271,7.188 l 0,0 c -0.202,1.115 -1.172,1.964 -2.346,1.964 l 0,0 c -0.881,0 -1.643,-0.483 -2.057,-1.194 l 0,0 c -0.337,0.534 -0.928,0.893 -1.607,0.893 l 0,0 c -0.73,0 -1.356,-0.415 -1.674,-1.019 l 0,0 c -1.179,0.202 -2.467,0.164 -3.789,0.025 l 0,0 c -0.324,0.589 -0.942,0.994 -1.663,0.994 l 0,0 c -0.763,0 -1.417,-0.453 -1.72,-1.101 l 0,0 c -0.719,1.078 -1.943,1.789 -3.337,1.789 l 0,0 c -1.104,0 -2.102,-0.446 -2.828,-1.169 l 0,0 c -0.544,1.218 -1.761,2.069 -3.181,2.069 l 0,0 c -1.927,0 -3.489,-1.562 -3.489,-3.489"
         inkscape:connector-curvature="0"
         id="path66" /></clipPath><linearGradient
       x1="0"
       y1="0"
       x2="1"
       y2="0"
       id="linearGradient72"
       gradientUnits="userSpaceOnUse"
       gradientTransform="matrix(38.66573,-2.6669366,-2.6669366,-38.66573,3.2744141,24.248535)"
       spreadMethod="pad"><stop
         id="stop74"
         style="stop-color:#e5f7ff;stop-opacity:1"
         offset="0" /><stop
         id="stop76"
         style="stop-color:#eef7ff;stop-opacity:1"
         offset="0.270408" /><stop
         id="stop78"
         style="stop-color:#e4f7ff;stop-opacity:1"
         offset="0.42857099" /><stop
         id="stop80"
         style="stop-color:#eef7ff;stop-opacity:1"
         offset="1" /></linearGradient><clipPath
       id="clipPath88"><path
         d="m 0,46.831 51.382,0 L 51.382,0 0,0 0,46.831 z"
         inkscape:connector-curvature="0"
         id="path90" /></clipPath><clipPath
       id="clipPath100"><path
         d="m 1.00684,20.8086 49.37446,0 0,-18.62305 -49.37446,0 0,18.62305 z"
         inkscape:connector-curvature="0"
         id="path102" /></clipPath></defs><g
     transform="matrix(1.25,0,0,-1.25,0,58.53825)"
     id="g10"><g
       id="g12"><g
         clip-path="url(#clipPath16)"
         id="g14"><g
           id="g20"><g
             id="g22"><path
               d="m 24.691,44.611 c -0.37,0.29 -0.832,0.47 -1.34,0.47 l 0,0 c -0.382,0 -0.736,-0.107 -1.048,-0.279 l 0,0 c -0.344,0.173 -0.726,0.279 -1.139,0.279 l 0,0 c -0.68,0 -1.291,-0.269 -1.75,-0.699 l 0,0 c -0.459,0.43 -1.072,0.699 -1.75,0.699 l 0,0 c -1.103,0 -2.037,-0.703 -2.396,-1.682 l 0,0 c -0.399,0.596 -1.075,0.988 -1.844,0.988 l 0,0 c -0.602,0 -1.147,-0.242 -1.545,-0.631 l 0,0 c -0.688,0.804 -1.697,1.325 -2.838,1.325 l 0,0 c -2.072,0 -3.75,-1.679 -3.75,-3.75 l 0,0 c 0,-0.808 0.26,-1.551 0.693,-2.162 l 0,0 C 5.72,38.805 5.553,38.368 5.553,37.884 l 0,0 c 0,-0.681 0.312,-1.282 0.795,-1.688 l 0,0 C 5.865,35.789 5.553,35.188 5.553,34.509 l 0,0 c 0,-0.783 0.408,-1.467 1.02,-1.861 l 0,0 C 5.957,32.233 5.553,31.528 5.553,30.73 l 0,0 c 0,-0.886 0.506,-1.642 1.238,-2.029 l 0,0 0,-0.086 C 6.528,28.356 6.359,28.003 6.359,27.605 l 0,0 c 0,-0.075 0.01,-0.149 0.022,-0.221 l 0,0 C 5.047,26.829 4.109,25.515 4.109,23.98 l 0,0 c 0,-1.083 0.475,-2.049 1.219,-2.724 l 0,0 C 5.039,20.885 4.859,20.424 4.859,19.918 l 0,0 c 0,-0.383 0.105,-0.736 0.277,-1.049 l 0,0 C 4.964,18.526 4.859,18.14 4.859,17.731 l 0,0 c 0,-0.68 0.268,-1.293 0.699,-1.751 l 0,0 C 5.127,15.521 4.859,14.908 4.859,14.231 l 0,0 c 0,-1.106 0.701,-2.038 1.682,-2.399 l 0,0 C 5.945,11.435 5.553,10.758 5.553,9.988 l 0,0 c 0,-0.601 0.242,-1.145 0.631,-1.542 l 0,0 C 5.379,7.756 4.859,6.748 4.859,5.605 l 0,0 c 0,-2.07 1.678,-3.749 3.75,-3.749 l 0,0 c 0.819,0 1.571,0.269 2.186,0.714 l 0,0 C 10.928,2.547 11.06,2.529 11.2,2.529 l 0,0 c 0.681,0 1.28,0.313 1.687,0.796 l 0,0 c 0.406,-0.483 1.007,-0.796 1.688,-0.796 l 0,0 c 0.544,0 1.036,0.203 1.421,0.529 l 0,0 C 16.244,2.963 16.51,2.904 16.791,2.904 l 0,0 c 0.365,0 0.703,0.098 1.006,0.256 l 0,0 c 0.31,-0.91 1.164,-1.568 2.179,-1.568 l 0,0 c 0.92,0 1.708,0.541 2.08,1.319 l 0,0 C 22.781,1.766 24.053,1 25.508,1 l 0,0 c 1.722,0 3.189,1.065 3.794,2.57 l 0,0 c 0.467,-0.629 1.207,-1.041 2.051,-1.041 l 0,0 c 0.678,0 1.291,0.27 1.75,0.699 l 0,0 c 0.459,-0.429 1.07,-0.699 1.75,-0.699 l 0,0 c 0.847,0 1.593,0.417 2.059,1.051 l 0,0 0.304,0 c 0.391,-0.629 1.083,-1.051 1.877,-1.051 l 0,0 c 0.301,0 0.588,0.063 0.85,0.17 l 0,0 c 0.502,-1.476 3.996,-1.175 5.318,-0.195 l 0,0 c 2.25,1.666 1.565,3.822 0.961,4.24 l 0,0 c 0.488,0.406 0.807,1.009 0.807,1.695 l 0,0 c 0,0.68 -0.313,1.282 -0.795,1.688 l 0,0 c 0.482,0.407 0.795,1.008 0.795,1.687 l 0,0 c 0,0.745 -0.371,1.401 -0.934,1.803 l 0,0 c 0.672,0.404 1.127,1.133 1.127,1.975 l 0,0 c 0,0.939 -0.562,1.744 -1.367,2.107 l 0,0 c 0.262,0.26 0.424,0.62 0.424,1.017 l 0,0 c 0,0.077 -0.012,0.149 -0.023,0.224 l 0,0 c 1.333,0.554 2.273,1.866 2.273,3.402 l 0,0 c 0,1.566 -0.978,2.894 -2.354,3.43 l 0,0 c 0.061,0.201 0.104,0.411 0.104,0.633 l 0,0 c 0,0.119 -0.018,0.233 -0.035,0.347 l 0,0 c 0.482,0.467 0.785,1.116 0.785,1.84 l 0,0 c 0,0.679 -0.269,1.293 -0.7,1.751 l 0,0 c 0.431,0.458 0.7,1.071 0.7,1.749 l 0,0 c 0,0.959 -0.531,1.782 -1.311,2.222 l 0,0 c 0.772,0.348 1.311,1.119 1.311,2.02 l 0,0 c 0,0.301 -0.062,0.586 -0.17,0.847 l 0,0 c 1.476,0.504 0.445,1.695 0.445,2.684 l 0,0 c 0,0.378 -0.111,0.8 -0.332,1.177 l 0,0 c 0.156,0.312 0.254,0.66 0.254,1.033 l 0,0 c 0,1.277 -1.035,2.312 -2.312,2.312 l 0,0 c -0.745,0 -1.399,-0.357 -1.821,-0.902 l 0,0 c -0.404,0.545 -1.047,0.902 -1.777,0.902 l 0,0 c -0.68,0 -1.281,-0.312 -1.687,-0.795 l 0,0 c -0.407,0.483 -1.006,0.795 -1.688,0.795 l 0,0 c -0.781,0 -1.465,-0.408 -1.859,-1.02 l 0,0 c -0.417,0.616 -1.12,1.02 -1.918,1.02 l 0,0 c -0.906,0 -1.682,-0.526 -2.063,-1.285 l 0,0 c -0.262,0.292 -0.639,0.479 -1.063,0.479 l 0,0 c -0.075,0 -0.148,-0.011 -0.22,-0.023 l 0,0 c -0.555,1.334 -1.869,2.273 -3.404,2.273 l 0,0 c -1.084,0 -2.048,-0.476 -2.723,-1.22"
               inkscape:connector-curvature="0"
               id="path30"
               style="fill:url(#linearGradient24);stroke:none" /></g></g></g></g><g
       id="g32"><g
         clip-path="url(#clipPath36)"
         id="g34"><g
           transform="translate(5.002,20.6758)"
           id="g40"><path
             d="M 0,0 C 0.047,0 0.094,-0.004 0.141,-0.006 0.133,0.07 0.133,0.148 0.129,0.227 0.088,0.15 0.031,0.082 0,0"
             inkscape:connector-curvature="0"
             id="path42"
             style="fill:#b6cc5c;fill-opacity:1;fill-rule:nonzero;stroke:none" /></g><g
           transform="translate(44.9136,44.3872)"
           id="g44"><path
             d="M 0,0 C -0.744,0 -1.398,-0.357 -1.82,-0.902 -2.225,-0.357 -2.867,0 -3.598,0 -4.277,0 -4.879,-0.312 -5.285,-0.795 -5.691,-0.312 -6.291,0 -6.973,0 -7.754,0 -8.438,-0.408 -8.832,-1.02 -9.248,-0.404 -9.951,0 -10.75,0 c -0.906,0 -1.682,-0.525 -2.063,-1.285 -0.261,0.292 -0.638,0.478 -1.062,0.478 -0.076,0 -0.148,-0.01 -0.221,-0.022 -0.554,1.334 -1.869,2.272 -3.404,2.272 -1.083,0 -2.048,-0.475 -2.722,-1.219 -0.371,0.29 -0.832,0.469 -1.34,0.469 -0.383,0 -0.736,-0.106 -1.049,-0.278 -0.344,0.173 -0.726,0.278 -1.139,0.278 -0.679,0 -1.291,-0.268 -1.75,-0.699 -0.458,0.431 -1.072,0.699 -1.75,0.699 -1.103,0 -2.037,-0.702 -2.396,-1.681 C -30.044,-0.393 -30.72,0 -31.49,0 c -0.601,0 -1.146,-0.242 -1.545,-0.631 -0.687,0.804 -1.697,1.324 -2.838,1.324 -2.072,0 -3.75,-1.678 -3.75,-3.75 0,-0.807 0.26,-1.55 0.694,-2.162 -0.264,-0.363 -0.432,-0.801 -0.432,-1.285 0,-0.68 0.313,-1.281 0.795,-1.687 -0.482,-0.407 -0.795,-1.008 -0.795,-1.688 0,-0.782 0.408,-1.467 1.02,-1.86 -0.616,-0.415 -1.02,-1.12 -1.02,-1.918 0,-0.886 0.506,-1.642 1.238,-2.03 l 0,-0.084 c -0.263,-0.26 -0.431,-0.614 -0.431,-1.011 0,-0.075 0.01,-0.149 0.021,-0.221 -1.334,-0.556 -2.272,-1.869 -2.272,-3.404 0,-0.974 0.399,-1.84 1.016,-2.5 -0.628,1.935 0.018,5.217 3.288,5.217 -0.157,0.361 -0.247,0.758 -0.247,1.177 0,0.49 0.129,0.945 0.344,1.349 0.957,1.267 2.547,1.987 4.223,1.711 0.224,-0.037 0.437,-0.106 0.646,-0.176 -0.459,0.528 -1.086,0.91 -1.828,1.032 -1.22,0.202 -2.383,-0.342 -3.051,-1.291 -0.211,0.617 -0.334,1.274 -0.334,1.961 0,0.765 0.147,1.494 0.405,2.167 0.002,-0.011 0.002,-0.022 0.006,-0.034 0.086,0.262 0.197,0.512 0.322,0.752 0.035,0.066 0.076,0.131 0.113,0.195 0.078,0.136 0.164,0.266 0.252,0.393 0.065,0.091 0.125,0.183 0.193,0.269 1.049,1.32 2.702,2.119 4.51,1.977 0.1,-0.008 0.197,-0.025 0.295,-0.042 -0.441,-0.844 -0.541,-1.86 -0.166,-2.816 0.125,-0.317 0.303,-0.592 0.504,-0.846 -0.283,2.142 0.897,4.283 2.998,5.111 0.231,0.09 0.469,0.143 0.703,0.197 -0.724,0.235 -1.525,0.244 -2.287,-0.056 -0.711,-0.28 -1.264,-0.778 -1.637,-1.383 -0.537,0.403 -1.179,0.676 -1.9,0.732 -1.271,0.1 -2.441,-0.455 -3.184,-1.378 -0.078,0.261 -0.13,0.535 -0.13,0.823 0,1.644 1.334,2.977 2.978,2.977 0.791,0 1.506,-0.313 2.039,-0.817 0.463,0.5 1.119,0.817 1.856,0.817 0.802,0 1.509,-0.38 1.976,-0.963 0.457,1.009 1.469,1.713 2.649,1.713 0.75,0 1.425,-0.291 1.941,-0.756 0.537,0.906 1.516,1.519 2.645,1.519 0.925,0 1.746,-0.416 2.31,-1.062 0.455,0.193 0.955,0.299 1.48,0.299 1.246,0 2.34,-0.61 3.029,-1.539 0.006,-0.036 0.02,-0.075 0.026,-0.112 -1.471,-0.27 -2.645,-1.482 -2.776,-3.045 -0.027,-0.34 0.01,-0.665 0.078,-0.981 0.696,2.045 2.7,3.444 4.95,3.256 0.248,-0.021 0.484,-0.078 0.716,-0.132 -0.544,0.529 -1.257,0.892 -2.074,0.96 -0.16,0.012 -0.314,0.001 -0.468,-0.008 0.792,1.979 3.074,2.316 4.482,0.37 0.019,0.95 -0.371,1.574 -0.938,1.923 0.061,0.002 0.118,0.012 0.178,0.012 1.303,0 2.465,-0.562 3.287,-1.446 0.539,0.898 0.928,0.993 2.051,0.993 0.6,0 1.361,-0.871 1.834,-1.167 0.563,0.748 1.826,2.445 2.834,2.445 0.086,0 0.168,-0.019 0.252,-0.026 C 1.17,-0.244 0.615,0 0,0"
             inkscape:connector-curvature="0"
             id="path46"
             style="fill:#b6cc5c;fill-opacity:1;fill-rule:nonzero;stroke:none" /></g><g
           transform="translate(46.2632,34.6655)"
           id="g48"><path
             d="m 0,0 c 0.467,0.406 0.766,1.001 0.766,1.668 0,0.029 -0.008,0.057 -0.01,0.086 C 0.717,1.597 0.695,1.445 0.639,1.283 0.479,0.837 0.262,0.407 0,0"
             inkscape:connector-curvature="0"
             id="path50"
             style="fill:#547723;fill-opacity:1;fill-rule:nonzero;stroke:none" /></g><g
           transform="translate(48.6108,22.3418)"
           id="g52"><path
             d="m 0,0 c 0,1.566 -0.979,2.894 -2.354,3.43 0.061,0.201 0.104,0.411 0.104,0.633 0,0.119 -0.016,0.233 -0.035,0.347 0.482,0.466 0.785,1.117 0.785,1.84 0,0.679 -0.268,1.292 -0.699,1.75 0.431,0.458 0.699,1.072 0.699,1.75 0,0.874 -0.453,1.621 -1.121,2.082 C -3.432,10.787 -4.547,9.945 -5.764,9.488 -5.777,9.4 -5.793,9.313 -5.82,9.221 -5.967,8.741 -6.299,8.31 -6.715,7.99 -6.727,7.949 -6.734,7.928 -6.746,7.887 -5.975,7.435 -5.617,6.534 -5.898,5.463 -6.15,4.499 -6.852,3.635 -7.727,3.109 c 0.643,-0.456 0.956,-1.276 0.76,-2.228 -0.17,-0.826 -0.691,-1.572 -1.375,-2.09 0.506,-0.477 0.766,-1.201 0.639,-2.037 -0.09,-0.596 -0.371,-1.145 -0.758,-1.602 0.438,-0.74 0.656,-1.656 0.563,-2.662 -0.057,-0.623 -0.233,-1.219 -0.495,-1.771 1.071,-0.299 1.86,-1.27 1.86,-2.436 0,-1.404 -1.137,-2.543 -2.541,-2.543 -1.272,0 -2.315,0.936 -2.502,2.155 -0.426,-0.141 -0.863,-0.247 -1.322,-0.266 -1.422,-0.061 -2.643,0.519 -3.426,1.463 -0.524,-0.518 -1.207,-0.867 -1.946,-0.926 -0.943,-0.074 -1.746,0.336 -2.183,1.029 -0.522,-1.258 -1.689,-2.238 -3.029,-2.39 -0.824,-0.094 -1.555,0.146 -2.09,0.605 -0.578,-0.605 -1.326,-1.039 -2.148,-1.158 -0.496,-0.072 -0.957,-0.01 -1.369,0.141 -0.383,-0.272 -0.815,-0.475 -1.276,-0.551 -0.613,-0.102 -1.168,0.023 -1.611,0.303 -0.834,-1.065 -1.994,-1.866 -3.307,-2.131 -1.857,-0.379 -3.478,0.4 -4.16,1.92 -0.088,-0.036 -0.178,-0.069 -0.271,-0.09 -0.522,-0.121 -2.389,-0.033 -2.713,0.26 -0.766,-0.891 -1.16,-2.227 -1.172,-2.229 -0.035,-0.201 -0.07,-0.4 -0.07,-0.611 0,-2.071 1.679,-3.75 3.75,-3.75 0.818,0 1.57,0.269 2.187,0.715 0.131,-0.024 0.266,-0.041 0.404,-0.041 0.68,0 1.282,0.312 1.688,0.794 0.406,-0.482 1.008,-0.794 1.687,-0.794 0.543,0 1.036,0.203 1.422,0.529 0.246,-0.096 0.512,-0.154 0.793,-0.154 0.365,0 0.705,0.097 1.008,0.255 0.311,-0.91 1.162,-1.568 2.178,-1.568 0.92,0 1.709,0.541 2.08,1.318 0.726,-1.144 1.996,-1.91 3.453,-1.91 1.72,0 3.189,1.065 3.792,2.571 0.467,-0.629 1.209,-1.041 2.051,-1.041 0.68,0 1.293,0.269 1.75,0.699 0.459,-0.43 1.072,-0.699 1.75,-0.699 0.848,0 1.594,0.416 2.061,1.05 l 0.302,0 c 0.391,-0.629 1.084,-1.05 1.879,-1.05 0.301,0 0.586,0.062 0.848,0.169 0.504,-1.476 3.996,-1.175 5.32,-0.195 2.25,1.666 1.563,3.822 0.961,4.24 0.489,0.407 0.805,1.01 0.805,1.696 0,0.679 -0.312,1.281 -0.795,1.687 0.483,0.406 0.795,1.008 0.795,1.688 0,0.744 -0.371,1.4 -0.934,1.802 0.672,0.405 1.127,1.133 1.127,1.975 0,0.939 -0.562,1.744 -1.367,2.107 0.262,0.26 0.424,0.62 0.424,1.018 0,0.076 -0.01,0.148 -0.021,0.223 C -0.937,-2.848 0,-1.535 0,0"
             inkscape:connector-curvature="0"
             id="path54"
             style="fill:#547723;fill-opacity:1;fill-rule:nonzero;stroke:none" /></g><g
           transform="translate(48.5288,22.3418)"
           id="g56"><path
             d="m 0,0 c 0,1.566 -0.979,2.894 -2.354,3.43 0.061,0.201 0.104,0.411 0.104,0.633 0,0.119 -0.018,0.233 -0.035,0.347 0.482,0.466 0.785,1.117 0.785,1.84 0,0.679 -0.27,1.292 -0.699,1.75 0.429,0.458 0.699,1.072 0.699,1.75 0,0.958 -0.531,1.783 -1.311,2.222 0.772,0.348 1.311,1.119 1.311,2.02 0,0.3 -0.062,0.586 -0.17,0.847 1.477,0.504 0.445,1.695 0.445,2.684 0,0.378 -0.111,0.8 -0.332,1.177 0.157,0.312 0.254,0.66 0.254,1.033 0,1.277 -1.035,2.312 -2.312,2.312 -0.744,0 -1.399,-0.357 -1.821,-0.902 -0.404,0.545 -1.046,0.902 -1.777,0.902 -0.68,0 -1.281,-0.312 -1.687,-0.795 -0.407,0.483 -1.006,0.795 -1.688,0.795 -0.781,0 -1.465,-0.408 -1.859,-1.019 -0.416,0.615 -1.119,1.019 -1.918,1.019 -0.906,0 -1.682,-0.525 -2.063,-1.285 -0.261,0.292 -0.638,0.479 -1.062,0.479 -0.076,0 -0.149,-0.011 -0.221,-0.023 -0.555,1.334 -1.869,2.273 -3.404,2.273 -1.084,0 -2.049,-0.476 -2.722,-1.22 -0.371,0.29 -0.832,0.47 -1.34,0.47 -0.383,0 -0.737,-0.107 -1.049,-0.279 -0.344,0.173 -0.727,0.279 -1.139,0.279 -0.679,0 -1.291,-0.269 -1.75,-0.699 -0.459,0.43 -1.072,0.699 -1.75,0.699 -1.103,0 -2.037,-0.702 -2.396,-1.682 -0.399,0.596 -1.074,0.988 -1.844,0.988 -0.602,0 -1.146,-0.242 -1.545,-0.63 -0.687,0.803 -1.697,1.324 -2.838,1.324 -2.072,0 -3.75,-1.679 -3.75,-3.75 0,-0.808 0.26,-1.551 0.694,-2.162 -0.264,-0.364 -0.432,-0.801 -0.432,-1.285 0,-0.68 0.312,-1.282 0.795,-1.688 -0.483,-0.406 -0.795,-1.008 -0.795,-1.687 0,-0.783 0.408,-1.467 1.019,-1.861 -0.615,-0.415 -1.019,-1.12 -1.019,-1.918 0,-0.886 0.506,-1.641 1.238,-2.029 l 0,-0.085 c -0.263,-0.26 -0.431,-0.613 -0.431,-1.011 0,-0.075 0.009,-0.148 0.021,-0.221 -1.334,-0.555 -2.272,-1.869 -2.272,-3.404 0,-1.083 0.475,-2.048 1.219,-2.724 -0.289,-0.371 -0.468,-0.832 -0.468,-1.338 0,-0.383 0.105,-0.736 0.277,-1.049 -0.172,-0.343 -0.277,-0.728 -0.277,-1.138 0,-0.68 0.267,-1.293 0.699,-1.75 -0.432,-0.459 -0.699,-1.073 -0.699,-1.75 0,-1.106 0.701,-2.037 1.681,-2.399 -0.595,-0.396 -0.988,-1.074 -0.988,-1.844 0,-0.601 0.242,-1.144 0.631,-1.542 -0.805,-0.69 -1.324,-1.698 -1.324,-2.84 0,-2.071 1.677,-3.75 3.75,-3.75 0.818,0 1.57,0.269 2.185,0.715 0.133,-0.024 0.266,-0.041 0.404,-0.041 0.682,0 1.282,0.312 1.688,0.794 0.406,-0.482 1.008,-0.794 1.687,-0.794 0.545,0 1.038,0.203 1.422,0.529 0.248,-0.096 0.514,-0.154 0.795,-0.154 0.365,0 0.703,0.097 1.006,0.255 0.311,-0.91 1.164,-1.568 2.18,-1.568 0.92,0 1.707,0.541 2.08,1.318 0.724,-1.144 1.996,-1.91 3.451,-1.91 1.722,0 3.189,1.065 3.794,2.571 0.467,-0.629 1.207,-1.041 2.051,-1.041 0.678,0 1.291,0.269 1.75,0.699 0.459,-0.43 1.071,-0.699 1.75,-0.699 0.848,0 1.594,0.416 2.059,1.05 l 0.304,0 c 0.391,-0.629 1.083,-1.05 1.877,-1.05 0.301,0 0.588,0.062 0.85,0.169 0.502,-1.476 3.996,-1.175 5.318,-0.195 2.25,1.666 1.565,3.822 0.961,4.24 0.489,0.407 0.807,1.01 0.807,1.696 0,0.679 -0.312,1.281 -0.795,1.687 0.483,0.406 0.795,1.008 0.795,1.688 0,0.744 -0.371,1.4 -0.934,1.802 0.672,0.405 1.127,1.133 1.127,1.975 0,0.939 -0.562,1.744 -1.367,2.107 0.262,0.26 0.424,0.62 0.424,1.018 0,0.076 -0.012,0.148 -0.023,0.223 C -0.939,-2.848 0,-1.535 0,0 z"
             inkscape:connector-curvature="0"
             id="path58"
             style="fill:none;stroke:#375917;stroke-width:2;stroke-linecap:butt;stroke-linejoin:miter;stroke-miterlimit:10;stroke-opacity:1;stroke-dasharray:none" /></g></g></g><g
       id="g60"><g
         clip-path="url(#clipPath64)"
         id="g62"><g
           id="g68"><g
             id="g70"><path
               d="m 15.268,39.91 c 0,-0.277 0.038,-0.541 0.1,-0.8 l 0,0 c -2.357,1.956 -6.09,2.737 -8.63,1.454 l 0,0 C 3.04,38.696 4.463,34.073 6.706,31.17 l 0,0 c -1.6,-2.162 -2.69,-4.594 -2.312,-7.213 l 0,0 C 2.123,22.338 0.72,20.131 1.047,17.051 l 0,0 c 0.181,-1.71 1.927,-3.199 3.625,-2.234 l 0,0 C 5.07,13.271 5.698,11.842 6.768,10.948 l 0,0 c 0.035,-1.694 1.293,-3.313 3,-4.535 l 0,0 c 1.437,-2.936 5.428,-4.622 8.425,-2.374 l 0,0 c 1.515,-0.602 3.514,-0.285 5.303,0.606 l 0,0 C 24.632,3.198 26.66,2.871 28.823,3.353 l 0,0 C 29.462,2.641 30.38,2.185 31.412,2.185 l 0,0 c 1.215,0 2.283,0.624 2.908,1.565 l 0,0 c 2.683,-0.172 5.392,0.072 8.227,0.301 l 0,0 c 1.495,0.119 2.314,1.058 2.5,2.5 l 0,0 c 0.087,0.683 0.048,1.254 -0.104,1.752 l 0,0 c 1.967,1.51 3.197,3.57 3.149,5.968 l 0,0 c 3.051,1.971 2.851,6.059 0.595,8.9 l 0,0 c 0.934,0.989 0.65,2.42 -0.123,3.397 l 0,0 c -0.9,1.138 0.125,3.576 0.068,4.935 l 0,0 c -0.023,0.56 -0.175,1.034 -0.402,1.457 l 0,0 c 1.588,3.391 -1.543,6.499 -5.271,7.188 l 0,0 c -0.202,1.115 -1.172,1.964 -2.346,1.964 l 0,0 c -0.881,0 -1.643,-0.483 -2.057,-1.194 l 0,0 c -0.337,0.534 -0.928,0.893 -1.607,0.893 l 0,0 c -0.73,0 -1.356,-0.415 -1.674,-1.019 l 0,0 c -1.179,0.202 -2.467,0.164 -3.789,0.025 l 0,0 c -0.324,0.589 -0.942,0.994 -1.663,0.994 l 0,0 c -0.763,0 -1.417,-0.453 -1.72,-1.101 l 0,0 c -0.719,1.078 -1.943,1.789 -3.337,1.789 l 0,0 c -1.104,0 -2.102,-0.446 -2.828,-1.169 l 0,0 c -0.544,1.218 -1.761,2.069 -3.181,2.069 l 0,0 c -1.927,0 -3.489,-1.562 -3.489,-3.489"
               inkscape:connector-curvature="0"
               id="path82"
               style="fill:url(#linearGradient72);stroke:none" /></g></g></g></g><g
       id="g84"><g
         clip-path="url(#clipPath88)"
         id="g86"><g
           transform="translate(48.687,23.1714)"
           id="g92"><path
             d="m 0,0 c 0.934,0.988 0.65,2.419 -0.123,3.396 -0.9,1.139 0.125,3.577 0.068,4.935 C -0.078,8.892 -0.23,9.365 -0.457,9.788 1.131,13.18 -2,16.287 -5.729,16.977 -5.93,18.092 -6.9,18.94 -8.074,18.94 c -0.881,0 -1.643,-0.483 -2.057,-1.194 -0.338,0.535 -0.928,0.894 -1.607,0.894 -0.731,0 -1.356,-0.415 -1.674,-1.019 -1.18,0.201 -2.467,0.164 -3.789,0.025 -0.324,0.589 -0.942,0.994 -1.662,0.994 -0.764,0 -1.418,-0.453 -1.721,-1.102 -0.719,1.078 -1.943,1.789 -3.336,1.789 -1.105,0 -2.103,-0.446 -2.829,-1.169 -0.544,1.218 -1.761,2.07 -3.181,2.07 -1.927,0 -3.489,-1.563 -3.489,-3.49 0,-0.276 0.039,-0.541 0.099,-0.799 -2.355,1.956 -6.089,2.737 -8.629,1.454 -3.697,-1.868 -2.275,-6.492 -0.032,-9.395 -1.601,-2.161 -2.69,-4.594 -2.312,-7.212 -2.27,-1.619 -3.674,-3.827 -3.347,-6.907 0.181,-1.709 1.927,-3.199 3.625,-2.234 0.397,-1.545 1.026,-2.975 2.096,-3.869 0.035,-1.693 1.294,-3.313 3,-4.535 1.437,-2.936 5.427,-4.621 8.425,-2.373 1.515,-0.602 3.514,-0.285 5.303,0.605 1.136,-1.447 3.164,-1.773 5.328,-1.291 0.638,-0.713 1.556,-1.168 2.588,-1.168 1.214,0 2.283,0.623 2.908,1.565 2.683,-0.172 5.392,0.072 8.226,0.3 1.496,0.12 2.315,1.059 2.5,2.5 0.088,0.684 0.049,1.254 -0.103,1.752 1.967,1.51 3.197,3.571 3.148,5.969 C 2.455,-6.929 2.256,-2.841 0,0 z"
             inkscape:connector-curvature="0"
             id="path94"
             style="fill:none;stroke:#b6e7ef;stroke-width:2;stroke-linecap:butt;stroke-linejoin:miter;stroke-miterlimit:10;stroke-opacity:1;stroke-dasharray:none" /></g><g
           id="g96"><g
             id="g98" /><g
             id="g104"><g
               clip-path="url(#clipPath100)"
               id="g106"
               style="opacity:0.60000598"><g
                 transform="translate(49.9897,20.8086)"
                 id="g108"><path
                   d="m 0,0 c -0.055,-1.617 -0.766,-3.123 -2.287,-4.105 0.049,-2.399 -1.18,-4.459 -3.147,-5.969 0.153,-0.498 0.192,-1.069 0.104,-1.752 -0.186,-1.442 -1.004,-2.381 -2.5,-2.5 -2.836,-0.229 -5.545,-0.473 -8.229,-0.301 -0.625,-0.941 -1.691,-1.564 -2.908,-1.564 -1.031,0 -1.947,0.455 -2.586,1.168 -2.165,-0.483 -4.193,-0.157 -5.327,1.291 -1.789,-0.891 -3.789,-1.207 -5.303,-0.606 -2.999,-2.248 -6.99,-0.562 -8.427,2.373 -1.706,1.223 -2.966,2.842 -3,4.535 -1.069,0.895 -1.698,2.325 -2.095,3.869 -1.303,-0.74 -2.63,-0.033 -3.261,1.106 -0.025,-0.418 -0.025,-0.848 0.023,-1.303 0.181,-1.709 1.927,-3.199 3.625,-2.234 0.398,-1.545 1.026,-2.975 2.096,-3.869 0.035,-1.694 1.294,-3.313 3,-4.535 1.437,-2.936 5.428,-4.622 8.426,-2.374 1.514,-0.601 3.513,-0.285 5.302,0.606 1.136,-1.447 3.164,-1.773 5.328,-1.291 0.639,-0.713 1.557,-1.168 2.588,-1.168 1.215,0 2.283,0.623 2.908,1.564 2.684,-0.171 5.393,0.073 8.227,0.301 1.496,0.119 2.314,1.059 2.5,2.5 0.088,0.684 0.048,1.254 -0.104,1.752 1.967,1.51 3.197,3.57 3.149,5.969 C 0.375,-5.07 0.842,-2.428 0,0"
                   inkscape:connector-curvature="0"
                   id="path110"
                   style="fill:#b6e7ef;fill-opacity:1;fill-rule:nonzero;stroke:none" /></g></g></g></g></g></g></g></svg>