<?xml version="1.0" encoding="UTF-8" standalone="no"?>
<svg xmlns="http://www.w3.org/2000/svg" x="0px" y="0px" width="220px" height="220px">
 <defs>
 <radialGradient id="SVGID_1_" gradientUnits="userSpaceOnUse" cy="121.38" cx="108.51" gradientTransform="translate(.44139 -17.279)" r="11.165">
 <stop stop-color="#6D6D6D" offset="0"/>
 <stop stop-color="#3D3D3D" offset="1"/>
 </radialGradient>
 </defs>
 <g>
 <title>background</title>
 <rect id="canvas_background" height="222" width="222" y="-1" x="-1" fill="none"/>
 </g>
 <g>
 <title>Layer 1</title>
 <g id="Layer_1">
 <g id="svg_1">
 <path id="svg_2" d="m122.22 105.49c0-3.218-1.369-6.109-3.549-8.146-1.762-22.853-5.995-73.198-6.221-75.878h-1.993c-0.224 2.651-4.373 51.981-6.167 75.156-2.671 2.04-4.401 5.248-4.401 8.868 0 0.50998 0.046021 1.009 0.112 1.5-0.065979 0.49199-0.112 0.98999-0.112 1.5 0 6.167 4.999 11.166 11.166 11.166 6.166 0 11.166-4.999 11.166-11.166 0-0.51001-0.046997-1.008-0.11298-1.5 0.065979-0.49101 0.112-0.99002 0.112-1.5z"/>
 <g id="svg_3">
 <path id="svg_4" d="m109.35 20.156s-6.979 82.917-6.979 86.771 3.125 6.979 6.979 6.979 6.978-3.124 6.978-6.979-6.978-86.771-6.978-86.771zm0 90.402c-1.806 0-3.269-1.465-3.269-3.27s1.463-3.27 3.269-3.27c1.805 0 3.269 1.465 3.269 3.27s-1.464 3.27-3.269 3.27z" stroke="#BC3A11" stroke-miterlimit="10" stroke-width="2" fill="#F05A24"/>
 <g id="svg_5">
 <circle id="svg_6" cy="107.1" cx="108.95" r="11.164" fill="#262626"/>
 <circle id="svg_7" cy="104.1" cx="108.95" r="11.164" fill="url(#SVGID_1_)"/>
 </g>
 </g>
 </g>
 </g>
 </g>
</svg>
