<?xml version="1.0" encoding="UTF-8" standalone="no"?>
<!-- Created with Inkscape (http://www.inkscape.org/) -->
<svg id="svg2" xmlns:rdf="http://www.w3.org/1999/02/22-rdf-syntax-ns#" xmlns="http://www.w3.org/2000/svg" xml:space="preserve" x="0px" y="0px" width="246.33376px" height="117.37913px" version="1.1" xmlns:cc="http://creativecommons.org/ns#" xmlns:dc="http://purl.org/dc/elements/1.1/"><metadata id="metadata8"><rdf:RDF><cc:Work rdf:about=""><dc:format>image/svg+xml</dc:format><dc:type rdf:resource="http://purl.org/dc/dcmitype/StillImage"/></cc:Work></rdf:RDF></metadata><defs id="defs6"><clipPath id="clipPath20"><path id="path22" d="m0 93.903h197.07v-93.903h-197.07v93.903z"/></clipPath><clipPath id="clipPath64"><path id="path66" d="m0 93.903h197.07v-93.903h-197.07v93.903z"/></clipPath><linearGradient id="linearGradient112" gradientUnits="userSpaceOnUse" gradientTransform="matrix(125.76 0 0 -125.76 35.52 47.969)"><stop id="stop114" stop-color="#232323" offset="0"/><stop id="stop116" stop-color="#303030" offset=".22449"/><stop id="stop118" stop-color="#232323" offset="1"/></linearGradient><clipPath id="clipPath160"><path id="path162" d="m0 93.903h197.07v-93.903h-197.07v93.903z"/></clipPath><clipPath id="clipPath168"><path id="path170" d="m4.4629 18.725h18.725v-18.725h-18.725v18.725z"/></clipPath><radialGradient id="radialGradient192" gradientUnits="userSpaceOnUse" cy="0" cx="0" gradientTransform="matrix(7.2019 0 0 -7.2019 13.825 11.363)" r="1"><stop id="stop194" stop-color="#fadd19" offset="0"/><stop id="stop196" stop-color="#ff921e" offset="1"/></radialGradient><clipPath id="clipPath204"><path id="path206" d="m0 93.903h197.07v-93.903h-197.07v93.903z"/></clipPath><clipPath id="clipPath216"><path id="path218" d="m10.347 16.319h6.957v-6.957h-6.957v6.957z"/></clipPath><clipPath id="clipPath220"><path id="path222" d="m17.304 12.841c0-1.921-1.557-3.479-3.479-3.479-1.921 0-3.478 1.558-3.478 3.479s1.557 3.478 3.478 3.478c1.922 0 3.479-1.557 3.479-3.478"/></clipPath><linearGradient id="linearGradient228" gradientUnits="userSpaceOnUse" gradientTransform="matrix(-2e-7 5.5025 5.5025 2e-7 13.825 9.1523)"><stop id="stop230" stop-color="#fff" stop-opacity="0" offset="0"/><stop id="stop232" stop-color="#fff" offset="1"/></linearGradient><mask id="mask234"><g id="g236"><g id="g238"><g id="g240"><g id="g242"><path id="path244" d="m-32768 32767h65535v-65535h-65535v65535z" fill="url(#linearGradient228)"/></g></g></g></g></mask><linearGradient id="linearGradient246" gradientUnits="userSpaceOnUse" gradientTransform="matrix(-2e-7 5.5025 5.5025 2e-7 13.825 9.1523)"><stop id="stop248" stop-color="#fff" offset="0"/><stop id="stop250" stop-color="#fff" offset="1"/></linearGradient><clipPath id="clipPath274"><path id="path276" d="m173.32 93.064h18.724v-18.725h-18.724v18.725z"/></clipPath><radialGradient id="radialGradient298" gradientUnits="userSpaceOnUse" cy="0" cx="0" gradientTransform="matrix(7.2014 0 0 -7.2014 182.69 85.702)" r="1"><stop id="stop300" stop-color="#f70" offset="0"/><stop id="stop302" stop-color="#ff6000" offset="1"/></radialGradient><clipPath id="clipPath310"><path id="path312" d="m0 93.903h197.07v-93.903h-197.07v93.903z"/></clipPath><clipPath id="clipPath322"><path id="path324" d="m179.21 90.658h6.957v-6.957h-6.957v6.957z"/></clipPath><clipPath id="clipPath326"><path id="path328" d="m186.16 87.18c0-1.921-1.557-3.479-3.479-3.479s-3.478 1.558-3.478 3.479 1.556 3.478 3.478 3.478 3.479-1.557 3.479-3.478"/></clipPath><linearGradient id="linearGradient334" gradientUnits="userSpaceOnUse" gradientTransform="matrix(-2e-7 5.5025 5.5025 2e-7 182.69 83.491)"><stop id="stop336" stop-color="#fff" stop-opacity="0" offset="0"/><stop id="stop338" stop-color="#fff" offset="1"/></linearGradient><mask id="mask340"><g id="g342"><g id="g344"><g id="g346"><g id="g348"><path id="path350" d="m-32768 32767h65535v-65535h-65535v65535z" fill="url(#linearGradient334)"/></g></g></g></g></mask><linearGradient id="linearGradient352" gradientUnits="userSpaceOnUse" gradientTransform="matrix(-2e-7 5.5025 5.5025 2e-7 182.69 83.491)"><stop id="stop354" stop-color="#fff" offset="0"/><stop id="stop356" stop-color="#fff" offset="1"/></linearGradient></defs><g id="g10" transform="matrix(1.25 0 0 -1.25 0 117.38)"><path id="path12" d="m0.5 15.064h30.533v65.891h-30.533v-65.891z" fill="#efe3b1"/><path id="path14" d="m0 14.565h31.533v66.891h-31.533v-66.891zm1 65.891h29.533v-64.891h-29.533v64.891z" fill="#b79c77"/><g id="g16"><g id="g18" clip-path="url(#clipPath20)"><g id="g24" transform="translate(0 24.489)"><path id="path26" d="m0 0h31.534" stroke="#b79c77" stroke-miterlimit="10" fill="none"/></g><g id="g28" transform="translate(0 33.9)"><path id="path30" d="m0 0h31.534" stroke="#b79c77" stroke-miterlimit="10" fill="none"/></g><g id="g32" transform="translate(0 43.312)"><path id="path34" d="m0 0h31.534" stroke="#b79c77" stroke-miterlimit="10" fill="none"/></g><g id="g36" transform="translate(0 52.724)"><path id="path38" d="m0 0h31.534" stroke="#b79c77" stroke-miterlimit="10" fill="none"/></g><g id="g40" transform="translate(0 62.135)"><path id="path42" d="m0 0h31.534" stroke="#b79c77" stroke-miterlimit="10" fill="none"/></g><g id="g44" transform="translate(0 71.547)"><path id="path46" d="m0 0h31.534" stroke="#b79c77" stroke-miterlimit="10" fill="none"/></g></g></g><g id="g48" transform="translate(20.867 14.562)"><path id="path50" d="m0 0v66.873" stroke="#b79c77" stroke-miterlimit="10" fill="none"/></g><g id="g52" transform="translate(10.684 14.562)"><path id="path54" d="m0 0v66.873" stroke="#b79c77" stroke-miterlimit="10" fill="none"/></g><path id="path56" d="m166.03 80.955h30.533v-65.891h-30.533v65.891z" fill="#efe3b1"/><path id="path58" d="m165.53 14.565h31.533v66.891h-31.533v-66.891zm1 65.891h29.534v-64.891h-29.534v64.891z" fill="#b79c77"/><g id="g60"><g id="g62" clip-path="url(#clipPath64)"><g id="g68" transform="translate(165.53 24.489)"><path id="path70" d="m0 0h31.533" stroke="#b79c77" stroke-miterlimit="10" fill="none"/></g><g id="g72" transform="translate(165.53 33.9)"><path id="path74" d="m0 0h31.533" stroke="#b79c77" stroke-miterlimit="10" fill="none"/></g><g id="g76" transform="translate(165.53 43.312)"><path id="path78" d="m0 0h31.533" stroke="#b79c77" stroke-miterlimit="10" fill="none"/></g><g id="g80" transform="translate(165.53 52.724)"><path id="path82" d="m0 0h31.533" stroke="#b79c77" stroke-miterlimit="10" fill="none"/></g><g id="g84" transform="translate(165.53 62.135)"><path id="path86" d="m0 0h31.533" stroke="#b79c77" stroke-miterlimit="10" fill="none"/></g><g id="g88" transform="translate(165.53 71.547)"><path id="path90" d="m0 0h31.533" stroke="#b79c77" stroke-miterlimit="10" fill="none"/></g></g></g><g id="g92" transform="translate(186.4 14.562)"><path id="path94" d="m0 0v66.873" stroke="#b79c77" stroke-miterlimit="10" fill="none"/></g><g id="g96" transform="translate(176.22 14.562)"><path id="path98" d="m0 0v66.873" stroke="#b79c77" stroke-miterlimit="10" fill="none"/></g><g id="g100"><g id="g102"><g id="g108"><g id="g110"><path id="path120" d="m161.28 18.56h-125.76v58.818h125.76v-58.818z" fill="url(#linearGradient112)"/></g></g></g></g><path id="path122" d="m48.093 18.632h-12.573v58.818h12.573v-58.818z" fill="#ddd"/><path id="path124" d="m73.243 18.632h-12.569v58.818h12.569v-58.818z" fill="#ddd"/><path id="path126" d="m98.397 18.632h-12.573v58.818h12.573v-58.818z" fill="#ddd"/><path id="path128" d="m123.55 18.632h-12.568v58.818h12.568v-58.818z" fill="#ddd"/><path id="path130" d="m148.7 18.632h-12.573v58.818h12.573v-58.818z" fill="#ddd"/><g id="g132" transform="translate(35.52 14.564)"><path id="path134" d="m0 0h1" stroke="#ddd" stroke-miterlimit="10" stroke-width="2" fill="none"/></g><g id="g136" transform="translate(47.008 14.564)"><path id="path138" d="m0 0h108.03" stroke="#ddd" stroke-miterlimit="10" stroke-dasharray="2.098, 10.488" stroke-width="2" fill="none"/></g><g id="g140" transform="translate(160.28 14.564)"><path id="path142" d="m0 0h1" stroke="#ddd" stroke-miterlimit="10" stroke-width="2" fill="none"/></g><g id="g144" transform="translate(35.52 81.455)"><path id="path146" d="m0 0h1" stroke="#ddd" stroke-miterlimit="10" stroke-width="2" fill="none"/></g><g id="g148" transform="translate(47.008 81.455)"><path id="path150" d="m0 0h108.03" stroke="#ddd" stroke-miterlimit="10" stroke-dasharray="2.098, 10.488" stroke-width="2" fill="none"/></g><g id="g152" transform="translate(160.28 81.455)"><path id="path154" d="m0 0h1" stroke="#ddd" stroke-miterlimit="10" stroke-width="2" fill="none"/></g><g id="g156"><g id="g158" clip-path="url(#clipPath160)"><g id="g164"><g id="g172"><g id="g174" opacity=".2" clip-path="url(#clipPath168)"><g id="g176" transform="translate(23.188 9.3633)"><path id="path178" d="m0 0c0-5.171-4.191-9.363-9.362-9.363s-9.363 4.192-9.363 9.363c0 5.169 4.192 9.361 9.363 9.361s9.362-4.192 9.362-9.361" fill="#183049"/></g></g></g></g></g></g><g id="g180"><g id="g182"><g id="g188"><g id="g190"><path id="path198" d="m6.623 11.363c0-3.978 3.225-7.202 7.202-7.202 3.978 0 7.202 3.224 7.202 7.202 0 3.977-3.224 7.201-7.202 7.201-3.977 0-7.202-3.224-7.202-7.201" fill="url(#radialGradient192)"/></g></g></g></g><g id="g200"><g id="g202" clip-path="url(#clipPath204)"><g id="g208" transform="translate(21.027 11.363)"><path id="path210" d="m0 0c0-3.978-3.224-7.202-7.202-7.202-3.977 0-7.201 3.224-7.201 7.202 0 3.977 3.224 7.201 7.201 7.201 3.978 0 7.202-3.224 7.202-7.201z" stroke="#f05a24" stroke-miterlimit="10" stroke-width="2" fill="none"/></g><g id="g212"><g id="g252"><g id="g254" opacity=".39999" clip-path="url(#clipPath216)"><g id="g256"><g id="g258" clip-path="url(#clipPath220)"><g id="g260"><g id="g264" mask="url(#mask234)"><g id="g266"><path id="path268" d="m17.304 12.841c0-1.921-1.557-3.479-3.479-3.479-1.921 0-3.478 1.558-3.478 3.479s1.557 3.478 3.478 3.478c1.922 0 3.479-1.557 3.479-3.478" fill="url(#linearGradient246)"/></g></g></g></g></g></g></g></g><g id="g270"><g id="g278"><g id="g280" opacity=".2" clip-path="url(#clipPath274)"><g id="g282" transform="translate(192.05 83.702)"><path id="path284" d="m0 0c0-5.171-4.191-9.363-9.362-9.363s-9.363 4.192-9.363 9.363c0 5.169 4.192 9.361 9.363 9.361s9.362-4.192 9.362-9.361" fill="#183049"/></g></g></g></g></g></g><g id="g286"><g id="g288"><g id="g294"><g id="g296"><path id="path304" d="m175.48 85.702c0-3.977 3.223-7.202 7.201-7.202s7.201 3.225 7.201 7.202-3.223 7.201-7.201 7.201-7.201-3.224-7.201-7.201" fill="url(#radialGradient298)"/></g></g></g></g><g id="g306"><g id="g308" clip-path="url(#clipPath310)"><g id="g314" transform="translate(189.89 85.702)"><path id="path316" d="m0 0c0-3.978-3.224-7.202-7.201-7.202-3.978 0-7.201 3.224-7.201 7.202 0 3.977 3.223 7.201 7.201 7.201 3.977 0 7.201-3.224 7.201-7.201z" stroke="#f05a24" stroke-miterlimit="10" stroke-width="2" fill="none"/></g><g id="g318"><g id="g358"><g id="g360" opacity=".39999" clip-path="url(#clipPath322)"><g id="g362"><g id="g364" clip-path="url(#clipPath326)"><g id="g366"><g id="g370" mask="url(#mask340)"><g id="g372"><path id="path374" d="m186.16 87.18c0-1.921-1.557-3.479-3.479-3.479s-3.478 1.558-3.478 3.479 1.556 3.478 3.478 3.478 3.479-1.557 3.479-3.478" fill="url(#linearGradient352)"/></g></g></g></g></g></g></g></g></g></g></g></svg>
