<?xml version="1.0" encoding="utf-8"?>
<!-- Generator: Adobe Illustrator 16.2.1, SVG Export Plug-In . SVG Version: 6.00 Build 0)  -->
<!DOCTYPE svg PUBLIC "-//W3C//DTD SVG 1.1//EN" "http://www.w3.org/Graphics/SVG/1.1/DTD/svg11.dtd">
<svg version="1.1" xmlns="http://www.w3.org/2000/svg" xmlns:xlink="http://www.w3.org/1999/xlink" 
	 viewBox="0 0 219.814 219.814" enable-background="new 0 0 219.814 219.814"
	 xml:space="preserve">
<g id="Layer_1">
	<g>
		<g>
			<linearGradient id="SVGID_1_" gradientUnits="userSpaceOnUse" x1="109.9067" y1="9.9463" x2="109.9067" y2="186.3554">
				<stop  offset="0" style="stop-color:#050505"/>
				<stop  offset="1" style="stop-color:#111111"/>
			</linearGradient>
			<circle fill="url(#SVGID_1_)" cx="109.907" cy="109.907" r="106.407"/>
			<g>
				<g>
					<path fill="none" stroke="#FFFFFF" stroke-width="4" stroke-miterlimit="10" d="M32.451,149.607
						c-0.076-0.148-0.152-0.297-0.227-0.445"/>
					<path fill="none" stroke="#FFFFFF" stroke-width="4" stroke-miterlimit="10" stroke-dasharray="0.9604,28.8111" d="
						M23.691,121.783c-0.53-3.883-0.804-7.848-0.804-11.876c0-48.059,38.96-87.02,87.02-87.02c48.059,0,87.02,38.961,87.02,87.02
						c0,9.543-1.535,18.727-4.374,27.317"/>
					<path fill="none" stroke="#FFFFFF" stroke-width="4" stroke-miterlimit="10" d="M186.914,150.472
						c-0.077,0.147-0.155,0.295-0.234,0.441"/>
				</g>
			</g>
			<path fill="#1E1E1E" d="M109.907,208.059c55.466,0,101.012-52.042,105.955-106.22c0.294,3.225,0.452,6.488,0.452,9.789
				c0,58.767-47.641,106.407-106.407,106.407S3.5,170.395,3.5,111.628c0-3.301,0.158-6.564,0.453-9.789
				C8.896,156.017,54.441,208.059,109.907,208.059z"/>
			<path fill="#141414" d="M109.907,23.078c55.466,0,101.012,42.44,105.955,96.618c0.294-3.225,0.452-6.488,0.452-9.789
				C216.314,51.141,168.674,3.5,109.907,3.5S3.5,51.141,3.5,109.907c0,3.301,0.158,6.564,0.453,9.789
				C8.896,65.519,54.441,23.078,109.907,23.078z"/>
			<circle fill="none" stroke="#3A3A3A" stroke-width="7" stroke-miterlimit="10" cx="109.907" cy="109.907" r="106.407"/>
			<circle fill="none" stroke="#E8E8E8" stroke-miterlimit="10" cx="109.907" cy="109.907" r="92.574"/>
			<g>
				<g>
					<path fill="none" stroke="#E8E8E8" stroke-width="10" stroke-miterlimit="10" d="M32.451,149.607
						c-0.076-0.148-0.152-0.297-0.227-0.445"/>
					<path fill="none" stroke="#E8E8E8" stroke-width="10" stroke-miterlimit="10" stroke-dasharray="0.9762,58.5694" d="
						M24.695,92.176c8.189-39.556,43.229-69.288,85.212-69.288c48.059,0,87.02,38.961,87.02,87.02c0,4.38-0.324,8.684-0.947,12.889"
						/>
					<path fill="none" stroke="#E8E8E8" stroke-width="10" stroke-miterlimit="10" d="M186.914,150.472
						c-0.077,0.147-0.155,0.295-0.234,0.441"/>
				</g>
			</g>
			<text transform="matrix(1 0 0 1 35.708 106.0244)" fill="#FFFFFF" font-family="'Eagle-Book'" font-size="25">10</text>
			<text transform="matrix(1 0 0 1 42.708 146.001)" fill="#FFFFFF" font-family="'Eagle-Book'" font-size="25">0</text>
			<text transform="matrix(1 0 0 1 54.6079 70.5986)" fill="#FFFFFF" font-family="'Eagle-Book'" font-size="25">20</text>
			<text transform="matrix(1 0 0 1 133.376 70.5986)" fill="#FFFFFF" font-family="'Eagle-Book'" font-size="25">40</text>
			<text transform="matrix(1 0 0 1 95.043 50.5986)" fill="#FFFFFF" font-family="'Eagle-Book'" font-size="25">30</text>
			<text transform="matrix(1 0 0 1 153.1787 106.0244)" fill="#FFFFFF" font-family="'Eagle-Book'" font-size="25">50</text>
			<text transform="matrix(1 0 0 1 145.2793 146.001)" fill="#FFFFFF" font-family="'Eagle-Book'" font-size="25">60</text>
		</g>
		<g>
			<g>
				<g>
					<circle fill="#111111" cx="109.907" cy="162.407" r="31.922"/>
					<path fill="none" stroke="#FFFFFF" stroke-miterlimit="10" d="M109.907,194.779c-17.85,0-32.372-14.522-32.372-32.372
						s14.522-32.372,32.372-32.372s32.372,14.522,32.372,32.372S127.757,194.779,109.907,194.779z"/>
				</g>
				<g>
					<path fill="none" stroke="#FFFFFF" stroke-miterlimit="10" d="M109.907,190.329c-15.396,0-27.922-12.525-27.922-27.922
						s12.525-27.922,27.922-27.922s27.922,12.525,27.922,27.922S125.304,190.329,109.907,190.329z"/>
				</g>
				<g>
					<g>
						<path fill="none" stroke="#E8E8E8" stroke-width="5" stroke-miterlimit="10" d="M87.458,173.635
							c-0.076-0.148-0.15-0.297-0.224-0.446"/>
						<path fill="none" stroke="#E8E8E8" stroke-width="5" stroke-miterlimit="10" stroke-dasharray="0.9858,19.7154" d="
							M86.027,153.995c3.384-9.938,12.797-17.088,23.88-17.088c13.929,0,25.221,11.293,25.221,25.223
							c0,0.675-0.025,1.344-0.078,2.006"/>
						<path fill="none" stroke="#E8E8E8" stroke-width="5" stroke-miterlimit="10" d="M132.39,173.569
							c-0.075,0.148-0.152,0.297-0.23,0.443"/>
					</g>
				</g>
				<path fill="none" stroke="#C0272D" stroke-width="5" stroke-miterlimit="10" d="M87.758,173.734
					c-1.771-3.452-2.872-7.463-2.872-11.604c0-3.016,0.83-6.405,1.8-9.086"/>
			</g>
			<path fill-rule="evenodd" clip-rule="evenodd" fill="#FFFFFF" d="M107.291,170.864h5.18c0.33,0,0.602,0.312,0.602,0.695v5.121
				c0.587-0.037,1.591,0.017,1.591,0.832v3.799c0,0.404,0.076,0.633,0.204,0.748c0.126,0.113,0.338,0.146,0.595,0.146h0.004v0.002
				c0.237-0.002,0.425-0.082,0.553-0.205c0.119-0.115,0.186-0.271,0.186-0.438v-0.002v-5.361l0.11-1.126l-0.401-1.03
				c-0.341-0.557-0.688-0.812-0.688-0.812l0.222-0.299c0.003,0.002,0.393,0.29,0.771,0.906l0.73,0.459l0.148,1.238l-0.15,0.664
				v5.361v0.002c0,0.363-0.146,0.711-0.41,0.971c-0.259,0.25-0.623,0.412-1.07,0.412v0.002h-0.004c-0.427,0-0.802-0.078-1.09-0.338
				c-0.287-0.256-0.451-0.66-0.451-1.301v-3.799c0-0.171-0.514-0.137-0.849-0.096v5.404h0.446c0.234,0,0.424,0.19,0.424,0.425v0.581
				c0,0.234-0.189,0.425-0.424,0.425h-7.276c-0.234,0-0.424-0.19-0.424-0.425v-0.581c0-0.234,0.19-0.425,0.424-0.425h0.446V171.56
				C106.688,171.177,106.96,170.864,107.291,170.864L107.291,170.864z M107.983,171.638c-0.34,0-0.619,0.279-0.619,0.619v3.521
				c0,0.341,0.279,0.619,0.619,0.619h3.792c0.343,0,0.621-0.278,0.621-0.619v-3.521c0-0.34-0.278-0.619-0.621-0.619H107.983z"/>
		</g>
	</g>
</g>
<g id="needleFuel">
</g>
<g id="needleSpeed">
</g>
<g id="shine">
	<g>
		<linearGradient id="SVGID_2_" gradientUnits="userSpaceOnUse" x1="109.9067" y1="5.8555" x2="109.9067" y2="115.9741">
			<stop  offset="0" style="stop-color:#FFFFFF;stop-opacity:0.4"/>
			<stop  offset="1" style="stop-color:#FFFFFF;stop-opacity:0"/>
		</linearGradient>
		<path fill="url(#SVGID_2_)" d="M200.751,86.907c0,50.171-37.953,11.059-90.844,11.059s-90.844,39.112-90.844-11.059
			c0-32.939,43.466-72.468,90.844-72.468S200.751,54.987,200.751,86.907z"/>
		
			<radialGradient id="SVGID_3_" cx="108.9072" cy="6639.0918" r="177.5678" gradientTransform="matrix(1 0 0 -0.2806 0 2019.4016)" gradientUnits="userSpaceOnUse">
			<stop  offset="0.2893" style="stop-color:#FFFFFF;stop-opacity:0"/>
			<stop  offset="1" style="stop-color:#FFFFFF;stop-opacity:0.4"/>
		</radialGradient>
		<path fill="url(#SVGID_3_)" d="M179.014,167.618c0-24.466-28.872-5.393-69.106-5.393s-69.106-19.073-69.106,5.393
			c0,16.062,33.065,37.135,69.106,37.135C145.949,204.753,179.014,183.183,179.014,167.618z"/>
	</g>
</g>
</svg>
