<?xml version="1.0" encoding="utf-8"?>
<!-- Generator: Adobe Illustrator 16.2.1, SVG Export Plug-In . SVG Version: 6.00 Build 0)  -->
<!DOCTYPE svg PUBLIC "-//W3C//DTD SVG 1.1//EN" "http://www.w3.org/Graphics/SVG/1.1/DTD/svg11.dtd">
<svg version="1.1" id="Layer_1" xmlns="http://www.w3.org/2000/svg" xmlns:xlink="http://www.w3.org/1999/xlink" 
	 viewBox="0 0 91.333 34.169" enable-background="new 0 0 91.333 34.169" xml:space="preserve">
<g>
	<path opacity="0.6" fill="#1A263A" d="M82.334,9.996h-3.173l-0.243-1.89c-0.162-1.26-1.284-2.247-2.555-2.247H51.306
		c-1.271,0-2.393,0.987-2.555,2.248l-0.243,1.889H17.997c-1.033-1.978-3.101-3.333-5.483-3.333c-3.411,0-6.185,2.774-6.185,6.185
		s2.774,6.186,6.185,6.186c2.422,0,4.517-1.403,5.532-3.436h29.742l-0.205,1.597c-0.081,0.634,0.104,1.263,0.511,1.724
		c0.406,0.462,1.007,0.727,1.646,0.727h0.054c0.126,0.264,0.391,0.45,0.701,0.45h0.026c0,3.149,2.562,5.712,5.712,5.712
		s5.712-2.562,5.712-5.712h0.026c0.311,0,0.575-0.187,0.701-0.45h2.044c0.125,0.264,0.391,0.45,0.7,0.45h0.026
		c0,3.149,2.562,5.712,5.712,5.712s5.712-2.562,5.712-5.712h0.027c0.31,0,0.574-0.187,0.7-0.45h0.335
		c0.639,0,1.239-0.265,1.646-0.727c0.406-0.461,0.593-1.09,0.511-1.725l-0.205-1.596h2.453c1.544,0,2.801-1.256,2.801-2.801
		C85.135,11.252,83.878,9.996,82.334,9.996z"/>
	<g>
		<circle fill="#FAAF3B" stroke="#CC8425" stroke-width="2" stroke-miterlimit="10" cx="7.959" cy="8.902" r="6.731"/>
		<path fill="#B26912" d="M6.628,12.041l2.817,3.032c2.38-1.037,4.045-3.408,4.045-6.171c0-2.648-1.533-4.933-3.756-6.031
			L6.628,5.673V12.041z"/>
		<path fill="#FAAF3B" stroke="#CC8425" stroke-width="2" stroke-miterlimit="10" d="M5.128,8.838c0,1.381,1.12,2.501,2.501,2.501
			h80.106c1.381,0,2.5-1.12,2.5-2.501l0,0c0-1.381-1.119-2.501-2.5-2.501H7.629C6.248,6.337,5.128,7.458,5.128,8.838L5.128,8.838z"
			/>
		<polygon fill="#B26912" points="42.097,11.339 87.11,11.339 86.097,6.337 43.109,6.337 		"/>
		<path fill="none" stroke="#CC8425" stroke-width="2" stroke-miterlimit="10" d="M5.128,8.838c0,1.381,1.12,2.501,2.501,2.501
			h80.106c1.381,0,2.5-1.12,2.5-2.501l0,0c0-1.381-1.119-2.501-2.5-2.501H7.629C6.248,6.337,5.128,7.458,5.128,8.838L5.128,8.838z"
			/>
		<g>
			<linearGradient id="SVGID_1_" gradientUnits="userSpaceOnUse" x1="55.1094" y1="17.9604" x2="55.1094" y2="33.0091">
				<stop  offset="0" style="stop-color:#00FF00"/>
				<stop  offset="1" style="stop-color:#00FF00;stop-opacity:0"/>
			</linearGradient>
			<polygon opacity="0.6" fill="url(#SVGID_1_)" points="68.389,34.169 41.83,34.169 48.469,17.96 61.749,17.96 			"/>
			<g>
				<path fill="#600B15" stroke="#490713" stroke-miterlimit="10" d="M80.402,17.96c0,3.667-2.973,6.64-6.64,6.64
					c-3.668,0-6.641-2.973-6.641-6.64H80.402z"/>
				<linearGradient id="SVGID_2_" gradientUnits="userSpaceOnUse" x1="55.1089" y1="20.5967" x2="55.1089" y2="17.1778">
					<stop  offset="0" style="stop-color:#00FF00"/>
					<stop  offset="1" style="stop-color:#4F8553"/>
				</linearGradient>
				<path fill="url(#SVGID_2_)" stroke="#287013" stroke-miterlimit="10" d="M61.749,17.96c0,3.667-2.973,6.64-6.64,6.64
					s-6.64-2.973-6.64-6.64H61.749z"/>
				<linearGradient id="SVGID_3_" gradientUnits="userSpaceOnUse" x1="73.7622" y1="22.4282" x2="73.7622" y2="17.5447">
					<stop  offset="0" style="stop-color:#FFFFFF"/>
					<stop  offset="1" style="stop-color:#FFFFFF;stop-opacity:0"/>
				</linearGradient>
				<path opacity="0.5" fill="url(#SVGID_3_)" d="M78.174,19.328c0,2.157-1.976,3.904-4.412,3.904s-4.412-1.747-4.412-3.904H78.174z
					"/>
				<linearGradient id="SVGID_4_" gradientUnits="userSpaceOnUse" x1="55.1094" y1="22.4282" x2="55.1094" y2="17.5447">
					<stop  offset="0" style="stop-color:#FFFFFF"/>
					<stop  offset="1" style="stop-color:#FFFFFF;stop-opacity:0"/>
				</linearGradient>
				<path opacity="0.5" fill="url(#SVGID_4_)" d="M59.521,19.328c0,2.157-1.976,3.904-4.411,3.904c-2.438,0-4.412-1.747-4.412-3.904
					H59.521z"/>
				<path fill="#6D6D6D" d="M63.258,15.813c0-0.537-0.439-0.977-0.977-0.977H47.936c-0.537,0-0.977,0.439-0.977,0.977v1.171
					c0,0.537,0.439,0.977,0.977,0.977h14.346c0.537,0,0.977-0.439,0.977-0.977V15.813z"/>
				<path fill="#6D6D6D" d="M81.912,15.813c0-0.537-0.439-0.977-0.977-0.977H66.588c-0.537,0-0.977,0.439-0.977,0.977v1.171
					c0,0.537,0.439,0.977,0.977,0.977h14.347c0.537,0,0.977-0.439,0.977-0.977V15.813z"/>
				<g>
					<path fill="#1F2533" d="M83.933,14.461c0.137,1.065-0.63,1.937-1.704,1.937H46.993c-1.075,0-1.841-0.871-1.705-1.937
						l1.459-11.358c0.138-1.065,1.128-1.937,2.202-1.937h31.322c1.074,0,2.064,0.871,2.201,1.937L83.933,14.461z"/>
					<path fill="none" stroke="#11161E" stroke-width="2" stroke-miterlimit="10" d="M83.933,14.461
						c0.137,1.065-0.63,1.937-1.704,1.937H46.993c-1.075,0-1.841-0.871-1.705-1.937l1.459-11.358
						c0.138-1.065,1.128-1.937,2.202-1.937h31.322c1.074,0,2.064,0.871,2.201,1.937L83.933,14.461z"/>
				</g>
				<path fill="#555E70" d="M78.211,3.621H50.625c-0.791,0-1.52,0.642-1.621,1.426l-1.074,8.359c0,0,0.588-4.479,4.181-6.695
					C55.704,4.495,78.211,3.621,78.211,3.621z"/>
			</g>
		</g>
	</g>
</g>
</svg>
