<?xml version="1.0" encoding="utf-8"?>
<!-- Generator: Adobe Illustrator 16.0.0, SVG Export Plug-In . SVG Version: 6.00 Build 0)  -->
<!DOCTYPE svg PUBLIC "-//W3C//DTD SVG 1.1//EN" "http://www.w3.org/Graphics/SVG/1.1/DTD/svg11.dtd">
<svg version="1.1" id="Layer_1" xmlns="http://www.w3.org/2000/svg" xmlns:xlink="http://www.w3.org/1999/xlink" x="0px" y="0px"
	 width="63.134px" height="121.823px" viewBox="0 0 63.134 121.823" enable-background="new 0 0 63.134 121.823"
	 xml:space="preserve">
<g>
	<path opacity="0.4" fill="#060D1C" d="M62.822,36.824c-0.71-0.94-3.283-1.734-4.543-1.743c-0.055-3.859-0.26-9.428-0.693-14.42
		c-0.244-2.81-0.533-5.101-0.856-6.81c-0.535-2.821-1.077-3.548-1.49-3.866l-0.198-0.153c-2.1-1.63-7.016-5.448-21.42-5.448
		c-14.404,0-19.32,3.818-21.419,5.449l-0.197,0.152c-0.413,0.318-0.955,1.045-1.49,3.865c-0.324,1.709-0.612,3.999-0.856,6.808
		c-0.434,4.992-0.64,10.562-0.694,14.424c-0.014-0.001-0.029-0.001-0.043-0.001c-1.253,0-3.849,0.798-4.562,1.743
		c-0.582,0.771-0.223,1.611,0.048,1.949l0.295,0.367l0.108-0.03c0.285,0.205,0.741,0.396,1.449,0.396
		c0.439,0,0.941-0.074,1.494-0.221c0.586-0.155,1.025-0.309,1.357-0.457c0.072,0.322,0.154,0.552,0.22,0.704L9.153,65.284
		c-0.047,0.015-0.093,0.034-0.138,0.054H8.606v0.238v0.057c-0.221,0.234-0.358,0.551-0.358,0.898v53.979
		c0,0.348,0.137,0.664,0.358,0.898v0.057h0.057c0.235,0.222,0.551,0.358,0.899,0.358h48.137c0.348,0,0.663-0.137,0.898-0.358h0.057
		v-0.057c0.222-0.234,0.358-0.551,0.358-0.898V66.531c0-0.348-0.137-0.663-0.358-0.898v-0.057v-0.238h-0.409
		c-0.049-0.022-0.101-0.043-0.153-0.06l-0.177-25.746c0.063-0.147,0.143-0.37,0.213-0.679c0.324,0.141,0.747,0.285,1.301,0.432
		c0.553,0.146,1.055,0.221,1.493,0.221c0.708,0,1.164-0.19,1.449-0.396l0.108,0.03l0.295-0.367
		C63.045,38.436,63.403,37.596,62.822,36.824z M62.143,37.137c-0.008-0.008-0.017-0.016-0.025-0.024
		C62.126,37.121,62.135,37.129,62.143,37.137z M59.657,37.912c0.745,0.203,1.413,0.477,1.965,0.778
		c-0.004,0.001-0.009,0.003-0.013,0.004C60.891,38.326,60.227,38.078,59.657,37.912z M5.571,38.694
		c-0.004-0.001-0.008-0.003-0.012-0.004c0.552-0.302,1.219-0.575,1.964-0.778C6.953,38.078,6.29,38.326,5.571,38.694z M9.508,37.615
		c0,0,0-0.006,0-0.009C9.508,37.609,9.508,37.612,9.508,37.615z M9.506,37.574c0.023-0.002,0.047-0.003,0.071-0.004
		C9.553,37.571,9.529,37.572,9.506,37.574z M9.508,37.602l0-0.007L9.508,37.602z M9.507,37.591c0-0.001-0.001-0.003-0.001-0.005
		C9.506,37.588,9.507,37.59,9.507,37.591z M9.505,37.583l0-0.003L9.505,37.583z M57.225,39.315
		C57.225,39.314,57.225,39.314,57.225,39.315C57.225,39.314,57.225,39.314,57.225,39.315z M57.207,39.349
		c0.001-0.001,0.002-0.003,0.002-0.005C57.209,39.346,57.208,39.347,57.207,39.349z M57.571,37.568L57.571,37.568l-0.001,0.018
		L57.571,37.568z M56.865,20.648c0.002,0.026,0.005,0.053,0.008,0.08C56.87,20.701,56.867,20.675,56.865,20.648z M56.902,21.08
		c0.004,0.047,0.008,0.094,0.012,0.141C56.91,21.174,56.906,21.127,56.902,21.08z M56.939,21.536
		c0.006,0.062,0.01,0.124,0.016,0.186C56.949,21.66,56.945,21.598,56.939,21.536z M56.979,22.025c0.005,0.064,0.01,0.13,0.016,0.195
		C56.988,22.155,56.983,22.09,56.979,22.025z M57.017,22.525c0.005,0.066,0.011,0.134,0.015,0.2
		C57.027,22.659,57.021,22.592,57.017,22.525z M57.053,23.022c0.006,0.07,0.01,0.141,0.016,0.211
		C57.062,23.163,57.059,23.093,57.053,23.022z M57.088,23.53c0.006,0.07,0.01,0.142,0.016,0.212
		C57.098,23.672,57.094,23.601,57.088,23.53z M57.122,24.033c0.005,0.075,0.011,0.15,0.015,0.227
		C57.133,24.184,57.127,24.108,57.122,24.033z M57.154,24.538c0.006,0.078,0.01,0.156,0.016,0.234
		C57.164,24.694,57.16,24.616,57.154,24.538z M57.187,25.053c0.005,0.078,0.009,0.156,0.015,0.233
		C57.195,25.209,57.191,25.131,57.187,25.053z M57.217,25.564c0.004,0.08,0.01,0.158,0.014,0.238
		C57.227,25.723,57.221,25.645,57.217,25.564z M57.246,26.078c0.004,0.079,0.008,0.159,0.013,0.238
		C57.254,26.237,57.25,26.157,57.246,26.078z M57.273,26.596c0.004,0.076,0.008,0.153,0.012,0.23
		C57.281,26.749,57.277,26.672,57.273,26.596z M57.3,27.105c0.005,0.08,0.009,0.159,0.013,0.238
		C57.309,27.265,57.305,27.186,57.3,27.105z M57.325,27.617c0.004,0.077,0.007,0.154,0.011,0.23
		C57.332,27.771,57.329,27.694,57.325,27.617z M57.35,28.131c0.004,0.075,0.006,0.149,0.01,0.225
		C57.355,28.28,57.354,28.206,57.35,28.131z M57.371,28.631c0.004,0.08,0.008,0.159,0.012,0.238
		C57.379,28.79,57.375,28.711,57.371,28.631z M57.394,29.139c0.003,0.073,0.006,0.146,0.009,0.217
		C57.399,29.284,57.396,29.212,57.394,29.139z M57.414,29.644c0.003,0.071,0.006,0.141,0.008,0.212
		C57.42,29.785,57.417,29.715,57.414,29.644z M57.434,30.135c0.002,0.072,0.004,0.144,0.007,0.215
		C57.438,30.278,57.436,30.207,57.434,30.135z M57.451,30.629c0.002,0.067,0.004,0.135,0.006,0.201
		C57.455,30.764,57.453,30.696,57.451,30.629z M57.467,31.116c0.003,0.061,0.004,0.12,0.006,0.181
		C57.471,31.236,57.47,31.177,57.467,31.116z M57.482,31.605c0.002,0.041,0.004,0.084,0.004,0.125
		C57.486,31.689,57.484,31.646,57.482,31.605z M57.498,32.083c0,0.026,0.001,0.054,0.002,0.08
		C57.499,32.137,57.498,32.109,57.498,32.083z M57.511,32.552c0,0.007,0,0.013,0.001,0.02
		C57.511,32.564,57.511,32.559,57.511,32.552z M55.808,12.951c0.011,0.046,0.021,0.093,0.032,0.14
		C55.829,13.044,55.818,12.997,55.808,12.951z M55.877,13.258c0.01,0.048,0.021,0.096,0.031,0.146
		C55.898,13.354,55.887,13.306,55.877,13.258z M55.945,13.581c0.01,0.049,0.02,0.099,0.029,0.147
		C55.965,13.68,55.955,13.63,55.945,13.581z M56.012,13.915c0.01,0.052,0.02,0.104,0.029,0.155
		C56.031,14.019,56.021,13.967,56.012,13.915z M56.076,14.265c0.01,0.052,0.02,0.104,0.029,0.158
		C56.096,14.369,56.086,14.316,56.076,14.265z M56.141,14.628c0.009,0.052,0.018,0.105,0.026,0.158
		C56.158,14.733,56.149,14.68,56.141,14.628z M56.203,15.002c0.008,0.055,0.017,0.108,0.025,0.162
		C56.22,15.11,56.211,15.057,56.203,15.002z M56.264,15.387c0.008,0.055,0.016,0.109,0.023,0.165
		C56.279,15.496,56.271,15.441,56.264,15.387z M56.322,15.788c0.008,0.052,0.015,0.104,0.022,0.157
		C56.337,15.893,56.33,15.84,56.322,15.788z M56.38,16.195c0.007,0.053,0.015,0.106,0.021,0.16
		C56.395,16.302,56.387,16.248,56.38,16.195z M56.436,16.613c0.007,0.053,0.014,0.105,0.02,0.157
		C56.449,16.719,56.442,16.666,56.436,16.613z M56.49,17.041c0.006,0.051,0.012,0.102,0.019,0.153
		C56.502,17.143,56.496,17.092,56.49,17.041z M56.543,17.48c0.006,0.045,0.011,0.09,0.016,0.135
		C56.554,17.57,56.549,17.525,56.543,17.48z M56.595,17.926c0.005,0.039,0.009,0.078,0.013,0.118
		C56.604,18.004,56.6,17.965,56.595,17.926z M56.645,18.381c0.004,0.023,0.006,0.047,0.008,0.07
		C56.65,18.428,56.648,18.404,56.645,18.381z M56.693,18.84c0,0,0.002,0.011,0.002,0.016C56.695,18.851,56.693,18.845,56.693,18.84z
		 M10.616,18.226c0.012-0.108,0.024-0.216,0.036-0.323C10.64,18.01,10.627,18.117,10.616,18.226z M10.669,17.752
		c0.011-0.099,0.023-0.198,0.035-0.297C10.692,17.554,10.68,17.653,10.669,17.752z M10.723,17.297
		c0.011-0.094,0.022-0.188,0.034-0.279C10.745,17.109,10.734,17.203,10.723,17.297z M10.777,16.857
		c0.012-0.09,0.023-0.18,0.035-0.269C10.8,16.678,10.789,16.768,10.777,16.857z M10.833,16.428c0.011-0.086,0.023-0.173,0.035-0.258
		C10.856,16.255,10.844,16.342,10.833,16.428z M10.891,16.007c0.011-0.081,0.023-0.163,0.035-0.243
		C10.914,15.844,10.902,15.926,10.891,16.007z M10.95,15.596c0.012-0.076,0.023-0.153,0.034-0.229
		C10.973,15.442,10.961,15.52,10.95,15.596z M11.01,15.203c0.012-0.075,0.023-0.15,0.035-0.223
		C11.033,15.053,11.021,15.128,11.01,15.203z M11.071,14.82c0.012-0.072,0.023-0.143,0.036-0.213
		C11.095,14.678,11.083,14.748,11.071,14.82z M11.134,14.448c0.012-0.068,0.024-0.136,0.036-0.202
		C11.159,14.312,11.146,14.38,11.134,14.448z M11.199,14.092c0.012-0.065,0.024-0.13,0.037-0.193
		C11.223,13.962,11.211,14.026,11.199,14.092z M11.265,13.748c0.012-0.062,0.024-0.124,0.037-0.186
		C11.29,13.624,11.277,13.686,11.265,13.748z M11.333,13.418c0.013-0.06,0.025-0.117,0.038-0.176
		C11.357,13.301,11.345,13.358,11.333,13.418z M11.401,13.103c0.013-0.057,0.026-0.112,0.039-0.167
		C11.427,12.99,11.414,13.046,11.401,13.103z M10.019,39.315l0-0.002L10.019,39.315z M10.048,39.369c0,0-0.001-0.002-0.003-0.006
		C10.046,39.365,10.048,39.369,10.048,39.369z M10.036,39.348c-0.001-0.001-0.001-0.002-0.002-0.004
		C10.035,39.346,10.036,39.347,10.036,39.348z M57.59,37.569c0.029,0.002,0.057,0.003,0.086,0.005
		C57.646,37.572,57.619,37.57,57.59,37.569z M57.672,37.605c0,0.005,0,0.009,0.001,0.013C57.672,37.614,57.672,37.61,57.672,37.605z
		 M57.676,37.58c0,0,0,0.002-0.001,0.003C57.676,37.582,57.676,37.58,57.676,37.58z M57.674,37.586c0,0.002,0,0.004,0,0.004
		S57.674,37.588,57.674,37.586z M57.673,37.595c0,0.003,0,0.006,0,0.006S57.673,37.598,57.673,37.595z M58.287,35.799
		c-0.014,0-0.027-0.001-0.039-0.001c0.004,0,0.008,0,0.012,0C58.268,35.798,58.278,35.799,58.287,35.799z M61.98,36.998
		c-0.008-0.008-0.019-0.014-0.027-0.021C61.962,36.984,61.973,36.99,61.98,36.998z M61.802,36.873
		c-0.009-0.006-0.019-0.012-0.028-0.019C61.783,36.861,61.793,36.867,61.802,36.873z M61.584,36.743
		c-0.016-0.009-0.031-0.017-0.048-0.026C61.553,36.727,61.568,36.734,61.584,36.743z M61.324,36.608
		c-0.007-0.003-0.014-0.007-0.021-0.01C61.311,36.602,61.317,36.605,61.324,36.608z M61.088,36.5
		c-0.018-0.008-0.036-0.016-0.055-0.023C61.052,36.484,61.07,36.492,61.088,36.5z M60.796,36.379
		c-0.019-0.008-0.038-0.015-0.056-0.021C60.758,36.364,60.777,36.371,60.796,36.379z M60.516,36.274
		c-0.014-0.005-0.027-0.01-0.041-0.015C60.488,36.265,60.502,36.27,60.516,36.274z M60.22,36.175
		c-0.022-0.007-0.045-0.015-0.067-0.021C60.175,36.16,60.197,36.168,60.22,36.175z M59.896,36.077
		c-0.014-0.004-0.028-0.008-0.043-0.012C59.868,36.069,59.883,36.073,59.896,36.077z M59.624,36.005
		c-0.021-0.005-0.04-0.011-0.061-0.016C59.584,35.994,59.604,36,59.624,36.005z M59.316,35.933
		c-0.021-0.005-0.041-0.009-0.061-0.013C59.275,35.924,59.295,35.928,59.316,35.933z M59.032,35.877
		c-0.011-0.002-0.021-0.004-0.032-0.006C59.011,35.873,59.021,35.875,59.032,35.877z M58.77,35.836
		c-0.02-0.002-0.039-0.005-0.057-0.007C58.73,35.831,58.75,35.834,58.77,35.836z M58.498,35.808
		c-0.012-0.001-0.023-0.002-0.035-0.003C58.475,35.806,58.486,35.807,58.498,35.808z M58.082,35.805
		c-0.013,0.002-0.025,0.004-0.037,0.004C58.057,35.809,58.069,35.807,58.082,35.805z M57.918,35.83
		c-0.008,0.001-0.014,0.002-0.021,0.004C57.904,35.832,57.91,35.831,57.918,35.83z M57.783,35.873
		c-0.008,0.004-0.016,0.008-0.022,0.012C57.768,35.881,57.775,35.877,57.783,35.873z M55.77,12.793
		c-0.012-0.046-0.021-0.09-0.033-0.134C55.748,12.703,55.758,12.747,55.77,12.793z M55.697,12.51
		c-0.011-0.043-0.022-0.086-0.034-0.128C55.675,12.424,55.687,12.467,55.697,12.51z M55.625,12.243
		c-0.012-0.042-0.024-0.082-0.037-0.122C55.601,12.161,55.613,12.201,55.625,12.243z M55.549,11.992
		c-0.012-0.039-0.023-0.077-0.037-0.115C55.525,11.915,55.537,11.953,55.549,11.992z M55.473,11.758
		c-0.012-0.037-0.025-0.072-0.039-0.108C55.447,11.686,55.461,11.721,55.473,11.758z M55.395,11.541
		c-0.014-0.035-0.026-0.068-0.039-0.102C55.368,11.473,55.381,11.506,55.395,11.541z M55.314,11.343
		c-0.014-0.033-0.027-0.063-0.041-0.095C55.287,11.279,55.301,11.31,55.314,11.343z M55.066,10.857
		c-0.018-0.025-0.033-0.048-0.051-0.071C55.033,10.81,55.049,10.832,55.066,10.857z M55.234,11.162
		c-0.016-0.03-0.029-0.059-0.045-0.086C55.205,11.104,55.219,11.132,55.234,11.162z M55.15,11c-0.016-0.027-0.031-0.053-0.046-0.078
		C55.119,10.947,55.135,10.973,55.15,11z M54.98,10.735c-0.02-0.024-0.039-0.045-0.059-0.066
		C54.941,10.69,54.961,10.711,54.98,10.735z M54.893,10.634c-0.03-0.03-0.061-0.058-0.09-0.081
		C54.832,10.576,54.862,10.604,54.893,10.634z M12.442,10.553c-0.03,0.023-0.06,0.051-0.09,0.081
		C12.382,10.604,12.412,10.576,12.442,10.553z M12.231,10.783c-0.018,0.023-0.036,0.048-0.053,0.075
		C12.195,10.831,12.213,10.807,12.231,10.783z M12.324,10.666c-0.02,0.022-0.04,0.045-0.06,0.07
		C12.284,10.711,12.304,10.688,12.324,10.666z M11.472,12.803c0.013-0.054,0.026-0.105,0.039-0.157
		C11.498,12.697,11.485,12.749,11.472,12.803z M11.544,12.518c0.014-0.051,0.027-0.1,0.041-0.148
		C11.571,12.418,11.558,12.467,11.544,12.518z M11.618,12.25c0.014-0.049,0.027-0.095,0.041-0.141
		C11.645,12.155,11.631,12.201,11.618,12.25z M11.693,11.996c0.014-0.044,0.028-0.086,0.042-0.129
		C11.721,11.91,11.707,11.952,11.693,11.996z M11.77,11.762c0.014-0.042,0.028-0.081,0.043-0.121
		C11.798,11.681,11.784,11.72,11.77,11.762z M11.848,11.544c0.015-0.038,0.029-0.075,0.044-0.111
		C11.877,11.469,11.863,11.506,11.848,11.544z M11.928,11.344c0.015-0.035,0.03-0.068,0.045-0.102
		C11.958,11.275,11.943,11.309,11.928,11.344z M12.01,11.163c0.016-0.032,0.031-0.062,0.047-0.093
		C12.041,11.101,12.025,11.131,12.01,11.163z M12.093,11.001c0.017-0.029,0.033-0.056,0.049-0.083
		C12.125,10.945,12.109,10.971,12.093,11.001z M10.553,18.818c-0.049,0.47-0.095,0.951-0.14,1.441
		C10.458,19.77,10.504,19.288,10.553,18.818z M10.602,18.356c-0.014,0.127-0.027,0.255-0.041,0.384
		C10.574,18.611,10.587,18.483,10.602,18.356z M9.744,32.157c0.001-0.026,0.001-0.052,0.002-0.079
		C9.746,32.105,9.745,32.131,9.744,32.157z M9.758,31.695c0.001-0.028,0.002-0.057,0.003-0.084
		C9.76,31.639,9.759,31.667,9.758,31.695z M9.772,31.245c0.001-0.04,0.003-0.078,0.004-0.118
		C9.775,31.167,9.773,31.205,9.772,31.245z M9.788,30.787c0.001-0.05,0.003-0.1,0.005-0.15C9.791,30.688,9.789,30.737,9.788,30.787z
		 M9.804,30.332c0.002-0.064,0.004-0.129,0.007-0.195C9.808,30.203,9.806,30.268,9.804,30.332z M9.822,29.843
		c0.003-0.066,0.005-0.134,0.008-0.201C9.827,29.709,9.825,29.776,9.822,29.843z M9.841,29.354c0.003-0.07,0.006-0.141,0.009-0.211
		C9.847,29.213,9.844,29.283,9.841,29.354z M9.863,28.844c0.003-0.067,0.006-0.136,0.009-0.203
		C9.869,28.708,9.866,28.776,9.863,28.844z M9.884,28.353c0.003-0.075,0.007-0.151,0.01-0.228
		C9.891,28.201,9.888,28.277,9.884,28.353z M9.908,27.846c0.003-0.076,0.007-0.151,0.011-0.227
		C9.915,27.694,9.911,27.77,9.908,27.846z M9.932,27.337c0.004-0.078,0.008-0.155,0.012-0.233
		C9.94,27.182,9.936,27.259,9.932,27.337z M9.958,26.832c0.005-0.084,0.009-0.168,0.014-0.252
		C9.967,26.664,9.962,26.748,9.958,26.832z M9.985,26.325c0.004-0.087,0.009-0.174,0.014-0.261
		C9.994,26.151,9.989,26.238,9.985,26.325z M10.013,25.811c0.005-0.088,0.01-0.176,0.015-0.265
		C10.023,25.635,10.018,25.723,10.013,25.811z M10.042,25.299c0.006-0.092,0.011-0.184,0.017-0.275
		C10.054,25.115,10.048,25.207,10.042,25.299z M10.074,24.786c0.006-0.093,0.012-0.185,0.017-0.276
		C10.085,24.602,10.08,24.693,10.074,24.786z M10.106,24.272c0.006-0.095,0.013-0.19,0.019-0.285
		C10.119,24.082,10.112,24.178,10.106,24.272z M10.14,23.763c0.006-0.098,0.013-0.194,0.02-0.292
		C10.153,23.568,10.146,23.665,10.14,23.763z M10.175,23.252c0.007-0.1,0.014-0.198,0.021-0.297
		C10.188,23.054,10.182,23.152,10.175,23.252z M10.211,22.744c0.007-0.101,0.015-0.2,0.022-0.301
		C10.226,22.544,10.218,22.644,10.211,22.744z M10.249,22.238c0.008-0.104,0.016-0.207,0.024-0.309
		C10.265,22.031,10.257,22.135,10.249,22.238z M10.288,21.738c0.009-0.111,0.018-0.221,0.027-0.332
		C10.306,21.518,10.296,21.627,10.288,21.738z M10.328,21.24c0.01-0.115,0.02-0.231,0.029-0.347
		C10.348,21.009,10.338,21.125,10.328,21.24z M10.37,20.746c0.012-0.135,0.023-0.27,0.036-0.403
		C10.394,20.477,10.382,20.611,10.37,20.746z M9.671,35.93L9.671,35.93c-0.054,0.006-0.11,0.011-0.168,0.012
		C9.562,35.94,9.617,35.936,9.671,35.93z M9.42,35.885c-0.007-0.004-0.015-0.008-0.023-0.012C9.405,35.877,9.413,35.881,9.42,35.885
		z M9.283,35.834c-0.006-0.002-0.013-0.003-0.02-0.004C9.27,35.831,9.277,35.832,9.283,35.834z M9.135,35.809
		c-0.012,0-0.024-0.002-0.037-0.004C9.111,35.807,9.123,35.809,9.135,35.809z M8.933,35.798c-0.013,0-0.027,0.001-0.04,0.001
		c0.008,0,0.019-0.001,0.027-0.001C8.925,35.798,8.929,35.798,8.933,35.798z M5.2,36.998c0.009-0.008,0.019-0.014,0.028-0.021
		C5.218,36.984,5.208,36.99,5.2,36.998z M5.38,36.872c0.009-0.005,0.017-0.011,0.026-0.017C5.397,36.861,5.389,36.867,5.38,36.872z
		 M5.598,36.743c0.015-0.009,0.03-0.017,0.045-0.025C5.628,36.727,5.612,36.734,5.598,36.743z M5.857,36.607
		c0.005-0.002,0.011-0.005,0.016-0.008C5.868,36.603,5.863,36.605,5.857,36.607z M6.094,36.5c0.018-0.008,0.035-0.016,0.052-0.023
		C6.129,36.484,6.112,36.492,6.094,36.5z M6.386,36.379c0.018-0.008,0.035-0.014,0.053-0.021
		C6.421,36.365,6.404,36.371,6.386,36.379z M6.668,36.273c0.013-0.004,0.025-0.009,0.038-0.014
		C6.693,36.265,6.681,36.27,6.668,36.273z M6.962,36.174c0.021-0.006,0.043-0.014,0.065-0.02C7.005,36.16,6.984,36.168,6.962,36.174
		z M7.285,36.077c0.013-0.004,0.027-0.007,0.04-0.011C7.312,36.07,7.298,36.073,7.285,36.077z M7.557,36.004
		c0.02-0.004,0.04-0.01,0.06-0.015C7.597,35.994,7.577,36,7.557,36.004z M7.865,35.932c0.021-0.004,0.04-0.008,0.06-0.012
		C7.905,35.924,7.885,35.928,7.865,35.932z M8.148,35.877c0.011-0.002,0.021-0.004,0.032-0.006
		C8.169,35.873,8.159,35.875,8.148,35.877z M8.412,35.836c0.019-0.002,0.038-0.005,0.057-0.007
		C8.45,35.831,8.43,35.834,8.412,35.836z M8.682,35.808c0.012-0.001,0.024-0.002,0.036-0.003
		C8.706,35.806,8.694,35.807,8.682,35.808z M5.063,37.112c-0.009,0.009-0.017,0.017-0.025,0.024
		C5.046,37.129,5.055,37.121,5.063,37.112z M5.05,38.301L5.05,38.301L5.05,38.301l-0.085,0.023L5.05,38.301z M7.57,38.593
		c1.201-0.318,1.663-0.601,1.836-0.787C9.233,37.992,8.772,38.274,7.57,38.593z M9.508,37.62l-0.001,0.011L9.508,37.62z
		 M9.505,37.636c0,0.005-0.002,0.01-0.003,0.015C9.503,37.646,9.505,37.641,9.505,37.636z M9.501,37.654
		c-0.001,0.005-0.003,0.01-0.005,0.016C9.498,37.664,9.5,37.659,9.501,37.654z M9.495,37.674c-0.002,0.007-0.005,0.014-0.009,0.021
		C9.489,37.688,9.492,37.681,9.495,37.674z M9.485,37.696c-0.003,0.008-0.008,0.015-0.012,0.022
		C9.477,37.711,9.481,37.704,9.485,37.696z M9.472,37.721c-0.004,0.008-0.01,0.016-0.016,0.024
		C9.462,37.736,9.467,37.729,9.472,37.721z M9.455,37.747c-0.006,0.009-0.013,0.019-0.021,0.028
		C9.441,37.766,9.448,37.756,9.455,37.747z M9.433,37.775c-0.007,0.009-0.016,0.019-0.024,0.027
		C9.417,37.794,9.426,37.784,9.433,37.775z M57.686,37.674c0.062,0.164,0.39,0.512,1.925,0.919
		C58.074,38.187,57.748,37.838,57.686,37.674z M57.673,37.62c0.001,0.003,0.001,0.008,0.001,0.013
		C57.674,37.628,57.674,37.623,57.673,37.62z M57.675,37.636c0.001,0.005,0.003,0.011,0.005,0.017
		C57.678,37.646,57.676,37.641,57.675,37.636z M57.68,37.654c0.001,0.006,0.004,0.012,0.006,0.019
		C57.684,37.666,57.681,37.66,57.68,37.654z M62.131,38.301L62.131,38.301L62.131,38.301l0.084,0.023L62.131,38.301z"/>
	<g>
		<g>
			<path fill="#3F3F3F" d="M29.576,0.717c14.633,0,19.216,3.939,21.18,5.453c1.898,1.461,2.699,17.196,2.771,25.381
				c0.035,0.002,0.068,0.006,0.105,0.008c0.097-0.101,0.305-0.145,0.582-0.145c1.143,0,3.46,0.756,3.99,1.457
				c0.398,0.529-0.035,1.069-0.035,1.069l-0.085-0.023c0.013,0.015,0.017,0.023,0.017,0.023s-0.223,0.466-1.227,0.466
				c-0.34,0-0.77-0.055-1.311-0.197c-2.131-0.564-1.934-1.017-1.932-1.019c-0.035-0.003-0.072-0.004-0.106-0.006
				c-0.063,1.301-0.376,1.801-0.376,1.801l0.18,25.97H5.822l0.179-25.97c0,0-0.313-0.501-0.376-1.805
				c-0.056,0.003-0.113,0.006-0.169,0.01c0.001,0.002,0.199,0.454-1.933,1.019c-0.541,0.143-0.971,0.197-1.311,0.197
				c-1.003,0-1.227-0.466-1.227-0.466s0.005-0.009,0.018-0.023L0.919,33.94c0,0-0.434-0.54-0.035-1.069
				c0.529-0.701,2.847-1.457,3.99-1.457c0.276,0,0.484,0.044,0.582,0.145c0.059-0.002,0.114-0.007,0.168-0.013
				C5.698,23.361,6.498,7.631,8.396,6.17C10.36,4.656,14.943,0.717,29.576,0.717 M29.576,0C15.171,0,10.255,3.818,8.155,5.449
				L7.958,5.602C7.545,5.92,7.003,6.646,6.468,9.467c-0.324,1.709-0.612,3.999-0.856,6.808c-0.434,4.992-0.64,10.562-0.694,14.423
				c-0.015,0-0.029,0-0.043,0c-1.253,0-3.849,0.798-4.562,1.742c-0.582,0.771-0.223,1.613,0.048,1.949l0.296,0.368l0.108-0.03
				c0.286,0.205,0.741,0.396,1.449,0.396c0.438,0,0.941-0.074,1.494-0.221c0.586-0.155,1.025-0.309,1.357-0.458
				c0.072,0.323,0.154,0.553,0.219,0.705L5.106,60.95l-0.005,0.722h0.721H53.33h0.721l-0.005-0.722l-0.179-25.802
				c0.064-0.148,0.145-0.37,0.215-0.679c0.324,0.141,0.746,0.285,1.299,0.432s1.057,0.221,1.494,0.221
				c0.709,0,1.164-0.19,1.449-0.396l0.108,0.03l0.296-0.368c0.271-0.336,0.629-1.178,0.048-1.949
				c-0.71-0.939-3.282-1.734-4.542-1.742c-0.055-3.859-0.261-9.428-0.694-14.42c-0.244-2.809-0.532-5.1-0.856-6.81
				c-0.535-2.821-1.077-3.548-1.49-3.866l-0.197-0.152C48.896,3.818,43.979,0,29.576,0L29.576,0z"/>
			<g>
				<g>
					<linearGradient id="SVGID_1_" gradientUnits="userSpaceOnUse" x1="29.5757" y1="-0.062" x2="29.5757" y2="63.2502">
						<stop  offset="0" style="stop-color:#CBCBCB"/>
						<stop  offset="0.3163" style="stop-color:#8D8D8D"/>
						<stop  offset="0.9286" style="stop-color:#666666"/>
						<stop  offset="0.9745" style="stop-color:#333333"/>
					</linearGradient>
					<path fill="url(#SVGID_1_)" d="M53.33,60.955l-0.18-25.97c0,0,0.441-0.698,0.382-2.609c-0.024-7.898-0.812-24.694-2.776-26.206
						c-1.964-1.514-6.547-5.453-21.18-5.453c-14.633,0-19.216,3.939-21.181,5.453C6.431,7.682,5.643,24.478,5.62,32.376
						c-0.06,1.911,0.382,2.609,0.382,2.609l-0.179,25.97H53.33z"/>
					<path fill-rule="evenodd" clip-rule="evenodd" fill="#3F3F3F" d="M9.285,60.955c0,0-3.204-1.558-3.523-5.895v5.895H9.285z"/>
					<path fill-rule="evenodd" clip-rule="evenodd" fill="#3F3F3F" d="M49.834,60.955c0,0,3.205-1.558,3.523-5.895v5.895H49.834z"/>
					<path fill="#333333" d="M6.82,27.467l-0.238-0.009c0.005-0.134,0.515-13.449,0.796-15.851l0.237,0.028
						C7.335,14.027,6.826,27.333,6.82,27.467z"/>
					<path fill="#333333" d="M52.42,28.312c-0.006-0.135-0.615-13.406-0.896-15.799l0.238-0.028
						c0.281,2.401,0.891,15.683,0.896,15.815L52.42,28.312z"/>
					<g>
						<path fill="#FFFFFF" d="M7.434,13.193c-0.06-1.552,0.418-4.835,1.374-5.91c0.955-1.074,8.429-4.548,7.497-3.779
							c-1.756,1.447-7.258,6.107-7.855,7.004C7.852,11.402,7.912,13.135,7.434,13.193z"/>
						<path fill="#333333" d="M7.32,13.328l-0.005-0.13c-0.055-1.437,0.39-4.854,1.403-5.994c0.862-0.97,7.06-3.929,7.632-3.929
							c0.105,0,0.138,0.069,0.146,0.091c0.037,0.104-0.062,0.187-0.116,0.23c-1.808,1.489-7.245,6.097-7.832,6.977
							c-0.275,0.413-0.406,1.021-0.522,1.558c-0.137,0.637-0.246,1.141-0.577,1.182L7.32,13.328z M15.959,3.635
							c-1.453,0.555-6.29,2.859-7.062,3.729c-0.86,0.968-1.358,3.887-1.348,5.584c0.098-0.186,0.174-0.541,0.245-0.867
							c0.12-0.557,0.256-1.188,0.557-1.639C8.924,9.58,13.927,5.32,15.959,3.635z"/>
					</g>
					<g>
						<path fill="#FFFFFF" d="M51.623,13.193c0.061-1.552-0.418-4.835-1.373-5.91c-0.955-1.074-8.43-4.548-7.496-3.779
							c1.756,1.447,7.258,6.107,7.854,7.004C51.205,11.402,51.146,13.135,51.623,13.193z"/>
						<path fill="#333333" d="M51.737,13.328l-0.129-0.016c-0.331-0.041-0.44-0.545-0.577-1.182
							c-0.115-0.536-0.247-1.145-0.522-1.558c-0.587-0.88-6.022-5.487-7.831-6.977c-0.053-0.044-0.153-0.126-0.116-0.23
							c0.009-0.021,0.041-0.091,0.146-0.091c0.572,0,6.769,2.959,7.632,3.929c1.013,1.14,1.458,4.558,1.402,5.994L51.737,13.328z
							 M43.1,3.635c2.031,1.686,7.034,5.945,7.607,6.807c0.301,0.451,0.438,1.082,0.558,1.639c0.069,0.326,0.147,0.682,0.245,0.867
							c0.01-1.697-0.488-4.616-1.35-5.584C49.389,6.494,44.552,4.189,43.1,3.635z"/>
					</g>
					<g>
						<path fill="#9F9F9F" d="M29.584,19.354c7.625,0,17.188,0.596,21.189,5.178l0.025-0.169c0,0-0.4-12.245-0.879-14.572
							c-0.512-0.632-4.439-4.187-6.717-5.959c-0.135-0.109-0.271-0.216-0.416-0.317c-0.082-0.061-0.161-0.119-0.236-0.172h-0.025
							c-3.246-2.067-8.75-2.148-12.941-2.148c-4.191,0-9.695,0.081-12.941,2.148l0,0c-0.001,0-0.002,0.001-0.003,0.002
							c-0.312,0.199-0.605,0.416-0.873,0.654c-0.021,0.018-0.042,0.039-0.062,0.059c-2.305,1.832-5.938,5.127-6.43,5.733
							c-0.479,2.327-0.879,14.741-0.879,14.741h0C12.397,19.949,21.959,19.354,29.584,19.354z"/>
						<path fill="#333333" d="M50.852,24.803l-0.168-0.192c-3.977-4.554-13.365-5.138-21.099-5.138
							c-7.734,0-17.122,0.584-21.099,5.138l-0.093,0.106l-0.089-0.109c-0.066-0.082,0.23-6.515,0.233-6.58
							c0.212-4.511,0.421-7.29,0.621-8.262l0.006-0.028l0.019-0.022c0.485-0.599,4.139-3.917,6.448-5.752l0.017-0.016
							c0.014-0.014,0.027-0.027,0.041-0.039c0.259-0.23,0.554-0.451,0.877-0.658l0.025-0.016c3.391-2.16,9.402-2.16,12.994-2.16
							c3.582,0,9.568,0,12.976,2.147h0.029l0.031,0.022c0.075,0.055,0.154,0.113,0.236,0.174c0.131,0.091,0.266,0.193,0.42,0.32
							c2.248,1.749,6.213,5.333,6.735,5.977l0.019,0.022l0.006,0.028c0.475,2.311,0.865,14.093,0.882,14.593L50.852,24.803z
							 M29.584,19.234c7.668,0,16.957,0.575,21.093,5.014c-0.041-1.15-0.423-12.158-0.869-14.405
							c-0.584-0.692-4.463-4.194-6.68-5.917c-0.152-0.125-0.282-0.225-0.41-0.313c-0.072-0.054-0.141-0.104-0.206-0.151H42.49
							l-0.029-0.02c-3.344-2.128-9.311-2.128-12.876-2.128c-3.565,0-9.534,0-12.877,2.128c-0.32,0.205-0.608,0.421-0.861,0.646
							l-0.061,0.058c-2.279,1.812-5.853,5.051-6.4,5.698c-0.426,2.146-0.793,12.403-0.86,14.368
							C12.681,19.807,21.938,19.234,29.584,19.234z"/>
					</g>
					<path fill="#7F7F7F" d="M29.598,19.184c6.974,0,15.533,0.82,20.172,4.223c0.486-0.829-2.999-16.418-6.078-19.104
						c-3.104-2.708-9.404-3.108-14.094-3.108c-4.689,0-10.99,0.4-14.094,3.108c-3.079,2.687-6.564,18.275-6.078,19.104
						C14.063,20.004,22.624,19.184,29.598,19.184z"/>
					<path fill="#A7A7A7" d="M29.598,19.184c6.837,0,15.229,0.482,19.775,3.884c0.479-0.829-2.939-16.384-5.959-19.069
						c-3.043-2.708-9.22-2.805-13.816-2.805C25,1.193,18.824,1.29,15.78,3.998c-3.019,2.686-6.436,18.24-5.958,19.069
						C14.368,19.666,22.76,19.184,29.598,19.184z"/>
					<g opacity="0.9">
						
							<linearGradient id="SVGID_2_" gradientUnits="userSpaceOnUse" x1="202.5264" y1="17.9365" x2="202.5264" y2="5.1814" gradientTransform="matrix(-1 0 0 1 232.1172 0)">
							<stop  offset="0" style="stop-color:#FBFBFB;stop-opacity:0"/>
							<stop  offset="0.3635" style="stop-color:#FBFBFB"/>
							<stop  offset="0.6426" style="stop-color:#FBFBFB;stop-opacity:0.7804"/>
							<stop  offset="1" style="stop-color:#FBFBFB;stop-opacity:0"/>
						</linearGradient>
						<path fill="url(#SVGID_2_)" d="M29.59,18.365c2.925,0,7.289,0.17,7.289,0.17s-0.939-4.301-0.049-4.528
							c2.233-0.569,10.262,2.235,10.262,2.235S44.848,6.133,43.828,5.609S33.92,4.176,29.59,4.176s-13.217,0.91-14.237,1.434
							s-3.264,10.633-3.264,10.633s8.099-2.745,10.331-2.168c0.875,0.228,0.018,4.461,0.018,4.461S26.665,18.365,29.59,18.365z"/>
					</g>
					<g>
						<g>
							<path d="M29.583,19.184c7.881,0,17.831,0.637,21.573,5.652c-0.16,5.731-1.434,14.806-1.593,15.602
								c-0.128,0.307-0.637,0-0.637,0s-4.458-2.865-19.343-2.865c-14.886,0-19.343,2.865-19.343,2.865s-0.508,0.307-0.637,0
								c-0.159-0.796-1.433-9.87-1.592-15.602C11.753,19.82,21.703,19.184,29.583,19.184z"/>
							<path fill="#171D23" d="M29.583,19.669c7.723,0,17.475,0.353,21.141,5.268c-0.156,5.616-1.404,14.171-1.561,14.952
								c-0.127,0.3-0.624,0-0.624,0s-4.368-2.809-18.957-2.809c-14.588,0-18.956,2.809-18.956,2.809s-0.498,0.3-0.624,0
								c-0.156-0.781-1.404-9.336-1.561-14.952C12.11,20.021,21.86,19.669,29.583,19.669z"/>
							<linearGradient id="SVGID_3_" gradientUnits="userSpaceOnUse" x1="9.5" y1="29.5864" x2="49.668" y2="29.5864">
								<stop  offset="0" style="stop-color:#636668;stop-opacity:0"/>
								<stop  offset="0.1426" style="stop-color:#636668"/>
								<stop  offset="0.834" style="stop-color:#636668"/>
								<stop  offset="1" style="stop-color:#636668;stop-opacity:0"/>
							</linearGradient>
							<path opacity="0.5" fill="url(#SVGID_3_)" d="M29.583,20.178c7.336,0,16.6,0.326,20.084,4.87
								c-0.148,5.193-1.335,13.103-1.483,13.824c-0.119,0.277-0.593,0-0.593,0s-4.149-2.597-18.008-2.597
								c-13.858,0-18.008,2.597-18.008,2.597s-0.473,0.277-0.593,0C10.834,38.15,9.648,30.241,9.5,25.048
								C12.983,20.504,22.247,20.178,29.583,20.178z"/>
							<g>
								<defs>
									<path id="SVGID_4_" d="M29.583,19.669c7.723,0,17.475,0.353,21.141,5.268c-0.156,5.616-1.404,14.171-1.561,14.952
										c-0.127,0.3-0.624,0-0.624,0s-4.368-2.809-18.957-2.809c-14.588,0-18.956,2.809-18.956,2.809s-0.498,0.3-0.624,0
										c-0.156-0.781-1.404-9.336-1.561-14.952C12.11,20.021,21.86,19.669,29.583,19.669z"/>
								</defs>
								<clipPath id="SVGID_5_">
									<use xlink:href="#SVGID_4_"  overflow="visible"/>
								</clipPath>
								<g opacity="0.7" clip-path="url(#SVGID_5_)">
									<linearGradient id="SVGID_6_" gradientUnits="userSpaceOnUse" x1="23.313" y1="20.355" x2="23.313" y2="36.7349">
										<stop  offset="0" style="stop-color:#FFFFFF;stop-opacity:0"/>
										<stop  offset="0.4796" style="stop-color:#FFFFFF"/>
										<stop  offset="0.7347" style="stop-color:#FFFFFF"/>
										<stop  offset="1" style="stop-color:#FFFFFF;stop-opacity:0"/>
									</linearGradient>
									<rect x="21.73" y="17.942" fill="url(#SVGID_6_)" width="3.165" height="21.443"/>
									<linearGradient id="SVGID_7_" gradientUnits="userSpaceOnUse" x1="26.2886" y1="20.355" x2="26.2886" y2="36.7349">
										<stop  offset="0" style="stop-color:#FFFFFF;stop-opacity:0"/>
										<stop  offset="0.4796" style="stop-color:#FFFFFF"/>
										<stop  offset="0.7347" style="stop-color:#FFFFFF"/>
										<stop  offset="1" style="stop-color:#FFFFFF;stop-opacity:0"/>
									</linearGradient>
									<rect x="25.777" y="17.942" fill="url(#SVGID_7_)" width="1.023" height="21.443"/>
								</g>
							</g>
						</g>
						<g>
							<path d="M19.782,21.733c0,0,0.232-0.065,0.652-0.151c0.209-0.045,0.464-0.098,0.756-0.146
								c0.292-0.051,0.622-0.112,0.983-0.166c0.362-0.046,0.754-0.096,1.169-0.148c0.415-0.057,0.854-0.097,1.309-0.129
								c0.455-0.034,0.925-0.07,1.402-0.106c0.479-0.017,0.964-0.032,1.451-0.05c0.486-0.008,0.972-0.029,1.451-0.026
								c0.479,0.004,0.949,0.021,1.405,0.03c0.455,0.013,0.896,0.025,1.312,0.038c0.417,0.017,0.811,0.058,1.174,0.085
								c0.726,0.058,1.33,0.123,1.753,0.16c0.423,0.042,0.664,0.071,0.664,0.071l-0.017,0.238c0,0-0.243,0.006-0.667,0.007
								c-0.423-0.003-1.027,0.004-1.752-0.008c-0.363-0.003-0.755-0.017-1.169-0.017c-0.415,0.005-0.852,0.01-1.305,0.015
								c-0.452,0.002-0.92,0.009-1.395,0.005c-0.475,0.001-0.956,0.028-1.438,0.04c-0.482,0.012-0.964,0.023-1.438,0.035
								c-0.474,0.024-0.94,0.049-1.391,0.071c-0.452,0.022-0.888,0.038-1.301,0.074c-0.414,0.028-0.804,0.055-1.166,0.079
								c-0.36,0.031-0.69,0.06-0.982,0.085c-0.294,0.021-0.548,0.05-0.756,0.075C20.278,21.92,20.113,21.93,20,21.946
								c-0.113,0.015-0.173,0.021-0.173,0.021L19.782,21.733z"/>
							<path d="M15.208,21.483c0.032,0.515,0.398,0.359,4.596,0.03c1.72-0.135,4.084-0.158,7.332-0.397
								C15.962,20.987,15.19,21.187,15.208,21.483z"/>
							<path d="M28.21,21.389v-0.57c0,0-2.029,0.058-2.447,0.09v0.617L28.21,21.389z"/>
						</g>
						<g>
							<path d="M35.324,21.052c0,0,0.242-0.005,0.67,0.018c0.213,0.009,0.473,0.022,0.768,0.049
								c0.297,0.023,0.631,0.048,0.994,0.086c0.361,0.047,0.754,0.097,1.168,0.15c0.416,0.05,0.852,0.121,1.3,0.204
								c0.448,0.082,0.912,0.165,1.384,0.25c0.467,0.104,0.941,0.211,1.416,0.316c0.473,0.115,0.949,0.216,1.411,0.34
								c0.462,0.125,0.914,0.259,1.353,0.382c0.438,0.128,0.859,0.251,1.26,0.368c0.4,0.121,0.771,0.26,1.115,0.377
								c0.689,0.238,1.258,0.454,1.656,0.597c0.399,0.146,0.625,0.235,0.625,0.235l-0.075,0.227c0,0-0.237-0.055-0.646-0.16
								c-0.409-0.11-0.997-0.256-1.694-0.449c-0.352-0.094-0.727-0.206-1.128-0.311c-0.403-0.1-0.827-0.204-1.267-0.312
								c-0.438-0.113-0.893-0.224-1.351-0.348c-0.46-0.117-0.933-0.213-1.401-0.322c-0.471-0.11-0.939-0.22-1.402-0.328
								c-0.464-0.096-0.921-0.189-1.363-0.28c-0.443-0.093-0.869-0.187-1.277-0.256c-0.408-0.077-0.793-0.149-1.148-0.217
								c-0.356-0.061-0.684-0.115-0.973-0.165c-0.29-0.053-0.543-0.089-0.751-0.117c-0.208-0.027-0.37-0.061-0.483-0.072
								c-0.113-0.015-0.174-0.022-0.174-0.022L35.324,21.052z"/>
							<path d="M30.883,20.109c-0.067,0.511,0.321,0.43,4.503,0.917c1.714,0.2,4.037,0.634,7.271,1.026
								C31.719,19.768,30.922,19.814,30.883,20.109z"/>
							<path d="M43.568,22.838l0.144-0.551c0,0-1.978-0.455-2.391-0.529l-0.155,0.598L43.568,22.838z"/>
						</g>
					</g>
					<g>
						<g>
							<g>
								<path fill="#BBBBBB" d="M10.897,20.358c0.239-0.942,1.134-3.284,1.612-3.702c0.478-0.418,9.165-2.839,9.672-2.269
									c0.506,0.571,0.095,3.632-0.203,3.99c-0.161,0.193-2.872,0.419-5.602,1.058c-2.324,0.545-4.515,1.485-4.763,1.596
									C11.076,21.27,10.762,20.891,10.897,20.358z"/>
								<path fill="#666666" d="M11.307,21.223c-0.175,0-0.328-0.07-0.428-0.201c-0.131-0.168-0.166-0.42-0.097-0.693
									c0.225-0.889,1.133-3.31,1.649-3.762c0.458-0.4,7.526-2.385,9.343-2.385c0.266,0,0.419,0.039,0.497,0.127
									c0.555,0.625,0.142,3.734-0.201,4.146c-0.095,0.114-0.409,0.173-1.713,0.373c-1.057,0.163-2.504,0.386-3.953,0.726
									c-2.441,0.571-4.718,1.577-4.741,1.587C11.538,21.195,11.418,21.223,11.307,21.223z M21.773,14.421
									c-1.859,0-8.835,2.019-9.186,2.325c-0.441,0.387-1.338,2.709-1.575,3.642c-0.051,0.2-0.031,0.378,0.054,0.487
									c0.099,0.127,0.28,0.144,0.498,0.047c0.023-0.011,2.321-1.025,4.784-1.603c1.458-0.341,2.911-0.564,3.971-0.728
									c0.759-0.117,1.475-0.228,1.574-0.298c0.264-0.318,0.662-3.304,0.198-3.827C22.089,14.466,22.041,14.421,21.773,14.421z"/>
							</g>
							<g>
								<linearGradient id="SVGID_8_" gradientUnits="userSpaceOnUse" x1="16.6123" y1="16.1182" x2="16.7317" y2="17.9089">
									<stop  offset="0" style="stop-color:#323232"/>
									<stop  offset="1" style="stop-color:#141414"/>
								</linearGradient>
								<path fill="url(#SVGID_8_)" d="M11.777,19.703c0.21-0.746,0.616-2.332,1.037-2.664c0.421-0.332,8.259-2.557,8.706-2.104
									c0.446,0.452,0.084,2.604-0.179,2.888c-0.142,0.153-2.533,0.434-4.941,0.94c-2.05,0.432-3.983,1.245-4.201,1.332
									C11.725,20.285,11.658,20.126,11.777,19.703z"/>
								<path d="M11.891,20.295c-0.125,0-0.191-0.055-0.226-0.101c-0.077-0.101-0.077-0.257-0.002-0.522l0.064-0.232
									c0.304-1.098,0.633-2.195,1.014-2.494c0.449-0.354,6.985-2.189,8.482-2.189c0.199,0,0.317,0.029,0.383,0.096
									c0.495,0.501,0.145,2.707-0.177,3.053c-0.093,0.101-0.429,0.165-1.826,0.397c-0.907,0.15-2.035,0.339-3.177,0.579
									c-1.236,0.26-2.7,0.723-4.123,1.303l-0.059,0.023C12.094,20.267,11.982,20.295,11.891,20.295z M21.222,14.994
									c-1.597,0-8.038,1.906-8.334,2.139c-0.351,0.275-0.728,1.639-0.931,2.371l-0.064,0.232
									c-0.076,0.268-0.039,0.312-0.037,0.314c0.004,0.003,0.069,0.026,0.3-0.065l0.057-0.022c1.436-0.586,2.915-1.053,4.164-1.316
									c1.147-0.241,2.278-0.43,3.188-0.58c0.821-0.137,1.597-0.266,1.699-0.332c0.221-0.24,0.567-2.315,0.173-2.715l0,0
									C21.434,15.02,21.392,14.994,21.222,14.994z"/>
							</g>
						</g>
						<g>
							<g>
								
									<rect x="12.473" y="16.986" transform="matrix(0.9592 0.2828 -0.2828 0.9592 5.7902 -2.7997)" fill="#111111" width="0.238" height="3.337"/>
								
									<rect x="13.071" y="16.767" transform="matrix(0.9595 0.2817 -0.2817 0.9595 5.728 -2.9693)" fill="#111111" width="0.239" height="3.338"/>
								
									<rect x="13.646" y="16.564" transform="matrix(0.9604 0.2785 -0.2785 0.9604 5.6226 -3.1122)" fill="#111111" width="0.238" height="3.337"/>
								
									<rect x="14.255" y="16.369" transform="matrix(0.964 0.2661 -0.2661 0.964 5.306 -3.1758)" fill="#111111" width="0.239" height="3.254"/>
								
									<rect x="14.864" y="16.208" transform="matrix(0.9673 0.2536 -0.2536 0.9673 5.0018 -3.2181)" fill="#111111" width="0.239" height="3.17"/>
								
									<rect x="15.473" y="16.006" transform="matrix(0.9684 0.2493 -0.2493 0.9684 4.8851 -3.3303)" fill="#111111" width="0.239" height="3.236"/>
								
									<rect x="16.082" y="15.828" transform="matrix(0.9651 0.2617 -0.2617 0.9651 5.142 -3.6309)" fill="#111111" width="0.239" height="3.32"/>
								
									<rect x="16.675" y="15.747" transform="matrix(0.9753 0.2208 -0.2208 0.9753 4.2429 -3.2806)" fill="#111111" width="0.239" height="3.179"/>
								
									<rect x="17.216" y="15.659" transform="matrix(0.9836 0.1803 -0.1803 0.9836 3.3921 -2.8435)" fill="#111111" width="0.238" height="3.152"/>
								
									<rect x="17.774" y="15.604" transform="matrix(0.9909 0.1348 -0.1348 0.9909 2.4714 -2.2565)" fill="#111111" width="0.239" height="3.025"/>
								
									<rect x="21.162" y="14.995" transform="matrix(0.9996 0.0286 -0.0286 0.9996 0.479 -0.6011)" fill="#111111" width="0.239" height="2.949"/>
								
									<rect x="20.672" y="14.993" transform="matrix(0.9981 0.0614 -0.0614 0.9981 1.0528 -1.2446)" fill="#111111" width="0.239" height="3.055"/>
								
									<rect x="20.165" y="14.992" transform="matrix(0.9984 0.0573 -0.0573 0.9984 0.9825 -1.1347)" fill="#111111" width="0.239" height="3.156"/>
								
									<rect x="19.607" y="15.194" transform="matrix(0.9973 0.0736 -0.0736 0.9973 1.2825 -1.406)" fill="#111111" width="0.239" height="3.023"/>
								
									<rect x="18.997" y="15.327" transform="matrix(0.9952 0.0981 -0.0981 0.9952 1.7458 -1.7938)" fill="#111111" width="0.239" height="3.063"/>
								
									<rect x="18.388" y="15.429" transform="matrix(0.9952 0.0983 -0.0983 0.9952 1.7566 -1.7369)" fill="#111111" width="0.238" height="3.063"/>
							</g>
							<path fill="#111111" d="M11.923,20.414c-0.124,0-0.191-0.055-0.226-0.101c-0.077-0.101-0.077-0.257-0.002-0.522l0.064-0.232
								c0.305-1.098,0.633-2.194,1.014-2.494c0.449-0.354,6.985-2.189,8.482-2.189c0.199,0,0.317,0.029,0.383,0.096
								c0.495,0.502,0.145,2.707-0.176,3.053c-0.093,0.101-0.429,0.165-1.827,0.397c-0.906,0.151-2.035,0.339-3.177,0.579
								c-1.236,0.26-2.7,0.723-4.123,1.303l-0.058,0.023C12.127,20.387,12.015,20.414,11.923,20.414z M21.255,15.113
								c-1.597,0-8.038,1.906-8.334,2.139c-0.351,0.276-0.728,1.639-0.931,2.371l-0.064,0.232c-0.076,0.268-0.039,0.312-0.037,0.314
								c0.004,0.003,0.069,0.027,0.3-0.064l0.057-0.023c1.436-0.586,2.915-1.053,4.164-1.316c1.147-0.241,2.278-0.429,3.187-0.58
								c0.821-0.137,1.597-0.266,1.7-0.332c0.221-0.24,0.568-2.315,0.173-2.715C21.469,15.139,21.449,15.113,21.255,15.113z"/>
						</g>
					</g>
					<g>
						<g>
							<g>
								<path fill="#BBBBBB" d="M48.419,20.358c-0.239-0.942-1.134-3.284-1.612-3.702c-0.477-0.418-9.164-2.839-9.672-2.269
									c-0.506,0.571-0.096,3.497,0.203,3.854c0.161,0.194,2.872,0.42,5.602,1.059c2.324,0.544,4.516,1.484,4.764,1.595
									C48.24,21.135,48.554,20.891,48.419,20.358z"/>
								<path fill="#666666" d="M48.074,21.106L48.074,21.106c-0.127,0-0.268-0.034-0.42-0.102
									c-0.023-0.011-2.301-1.017-4.742-1.588c-1.448-0.339-2.896-0.562-3.953-0.725c-1.304-0.201-1.618-0.26-1.713-0.374
									c-0.341-0.408-0.757-3.383-0.2-4.01c0.078-0.088,0.231-0.127,0.497-0.127c1.816,0,8.885,1.984,9.343,2.385
									c0.517,0.452,1.423,2.873,1.649,3.762c0.08,0.321,0.006,0.506-0.071,0.605C48.375,21.047,48.24,21.106,48.074,21.106z
									 M37.543,14.421c-0.268,0-0.316,0.045-0.318,0.047c-0.466,0.523-0.066,3.373,0.205,3.698
									c0.091,0.062,0.808,0.174,1.566,0.29c1.061,0.163,2.514,0.388,3.971,0.729c2.463,0.577,4.762,1.591,4.784,1.602
									c0.241,0.107,0.44,0.108,0.524,0.001c0.062-0.081,0.072-0.223,0.027-0.399c-0.236-0.933-1.133-3.255-1.574-3.642
									C46.378,16.439,39.402,14.421,37.543,14.421z"/>
							</g>
							<g>
								<path fill="#1E1E1E" d="M47.539,19.703c-0.211-0.746-0.615-2.332-1.037-2.664s-8.26-2.557-8.706-2.104
									c-0.446,0.452-0.084,2.604,0.179,2.888c0.143,0.153,2.533,0.434,4.941,0.94c2.05,0.432,3.982,1.245,4.201,1.332
									C47.591,20.285,47.658,20.126,47.539,19.703z"/>
								<path d="M47.426,20.295c-0.092,0-0.204-0.028-0.354-0.088l-0.057-0.023c-1.423-0.58-2.888-1.043-4.125-1.303
									c-1.142-0.24-2.27-0.429-3.177-0.579c-1.397-0.232-1.733-0.297-1.827-0.397c-0.32-0.346-0.67-2.552-0.176-3.053
									c0.065-0.066,0.184-0.096,0.383-0.096c1.496,0,8.033,1.836,8.482,2.189c0.381,0.299,0.709,1.397,1.014,2.497l0.064,0.229
									c0.074,0.266,0.073,0.422-0.003,0.522C47.617,20.24,47.549,20.295,47.426,20.295z M38.094,14.994
									c-0.174,0-0.214,0.026-0.216,0.027c-0.392,0.397-0.045,2.473,0.185,2.721c0.094,0.059,0.869,0.188,1.69,0.324
									c0.909,0.15,2.04,0.339,3.188,0.58c1.251,0.264,2.729,0.73,4.165,1.316l0.056,0.022c0.229,0.092,0.294,0.069,0.3,0.064
									c0.002-0.001,0.038-0.046-0.037-0.313l-0.064-0.23c-0.203-0.732-0.58-2.097-0.932-2.373
									C46.133,16.9,39.691,14.994,38.094,14.994z"/>
							</g>
						</g>
						<g>
							
								<rect x="45.088" y="18.416" transform="matrix(0.2821 0.9594 -0.9594 0.2821 51.3468 -31.5519)" width="3.337" height="0.238"/>
							
								<rect x="44.49" y="18.197" transform="matrix(0.2815 0.9596 -0.9596 0.2815 50.7395 -31.1314)" width="3.337" height="0.238"/>
							
								<rect x="43.915" y="17.994" transform="matrix(0.2818 0.9595 -0.9595 0.2818 50.1183 -30.7276)" width="3.337" height="0.239"/>
							
								<rect x="43.347" y="17.757" transform="matrix(0.2683 0.9633 -0.9633 0.2683 50.1289 -30.2449)" width="3.254" height="0.238"/>
							
								<rect x="42.78" y="17.554" transform="matrix(0.2538 0.9672 -0.9672 0.2538 50.1987 -29.7249)" width="3.17" height="0.239"/>
							
								<rect x="42.138" y="17.386" transform="matrix(0.2486 0.9686 -0.9686 0.2486 49.8317 -29.2293)" width="3.236" height="0.238"/>
							<rect x="41.488" y="17.25" transform="matrix(0.263 0.9648 -0.9648 0.263 48.5553 -28.8277)" width="3.319" height="0.239"/>
							
								<rect x="40.966" y="17.097" transform="matrix(0.2218 0.9751 -0.9751 0.2218 49.9041 -28.0972)" width="3.179" height="0.239"/>
							
								<rect x="40.437" y="16.996" transform="matrix(0.1803 0.9836 -0.9836 0.1803 51.2733 -27.2949)" width="3.152" height="0.239"/>
							
								<rect x="39.942" y="16.878" transform="matrix(0.132 0.9912 -0.9912 0.132 52.8302 -26.3386)" width="3.026" height="0.239"/>
							
								<rect x="36.593" y="16.23" transform="matrix(0.0295 0.9996 -0.9996 0.0295 53.2865 -22.1823)" width="2.948" height="0.239"/>
							
								<rect x="37.031" y="16.281" transform="matrix(0.062 0.9981 -0.9981 0.062 52.5343 -23.1004)" width="3.054" height="0.239"/>
							
								<rect x="37.487" y="16.332" transform="matrix(0.0597 0.9982 -0.9982 0.0597 53.1531 -23.5268)" width="3.155" height="0.239"/>
							
								<rect x="38.112" y="16.467" transform="matrix(0.0737 0.9973 -0.9973 0.0737 53.2459 -24.1507)" width="3.023" height="0.239"/>
							
								<rect x="38.701" y="16.62" transform="matrix(0.0947 0.9955 -0.9955 0.0947 53.0837 -24.8975)" width="3.062" height="0.238"/>
							
								<rect x="39.31" y="16.721" transform="matrix(0.0947 0.9955 -0.9955 0.0947 53.7364 -25.4122)" width="3.062" height="0.238"/>
						</g>
					</g>
					<g>
						<path fill="#DFDFDF" d="M43.415,3.998c-3.044-2.708-9.221-2.805-13.817-2.805C25,1.193,18.824,1.29,15.78,3.998
							c-0.189,0.168-0.38,0.387-0.572,0.65c0.623,0.418,6.826-1.204,14.389-1.126c7.563-0.078,13.767,1.544,14.389,1.126
							C43.795,4.385,43.604,4.166,43.415,3.998z"/>
						<g>
							<path fill="#191919" d="M42.589,3.395c0.001-0.004,0.001-0.007,0.002-0.01c-3.237-2.108-8.786-2.191-13.006-2.191
								c-4.21,0-9.745,0.082-12.984,2.177c0.002,0.008,0.004,0.017,0.006,0.024c-0.913,1.023,5.257-0.848,12.991-0.768
								C37.332,2.547,43.5,4.418,42.589,3.395z"/>
							<path d="M42.245,3.82c-0.485,0-1.327-0.116-2.493-0.277c-2.391-0.332-6.057-0.837-10.153-0.797
								c-0.164-0.002-0.325-0.002-0.485-0.002c-3.903,0-7.375,0.48-9.672,0.799C18.277,3.704,17.436,3.82,16.95,3.82
								c-0.226,0-0.465-0.021-0.535-0.176c-0.048-0.107,0.01-0.214,0.06-0.279l-0.013-0.046l0.073-0.05
								c3.396-2.195,9.438-2.195,13.049-2.195c3.621,0,9.678,0,13.072,2.211l0.075,0.049l-0.011,0.033
								c0.05,0.065,0.107,0.171,0.059,0.277C42.725,3.77,42.568,3.82,42.245,3.82z M30.081,2.505c3.919,0,7.401,0.482,9.704,0.802
								c1.156,0.16,1.99,0.275,2.46,0.275c0.2,0,0.279-0.022,0.308-0.035c-0.007-0.014-0.021-0.038-0.053-0.073l-0.014-0.015
								c-3.341-2.146-9.322-2.146-12.902-2.146c-3.558,0-9.496,0-12.847,2.11l-0.042,0.05c-0.031,0.035-0.046,0.06-0.053,0.073
								c0.028,0.013,0.107,0.035,0.308,0.035c0.469,0,1.304-0.115,2.459-0.275c2.398-0.333,6.07-0.84,10.19-0.799
								C29.758,2.506,29.921,2.505,30.081,2.505z"/>
						</g>
						<g>
							<path fill="#333333" d="M17.894,3.28l-0.065-0.229c0.048-0.014,4.92-1.379,11.77-1.379c6.85,0,11.637,1.365,11.686,1.379
								L41.216,3.28c-0.048-0.014-4.806-1.37-11.618-1.37C22.782,1.91,17.942,3.267,17.894,3.28z"/>
							<rect x="17.742" y="2.7" fill="#333333" width="0.239" height="0.931"/>
							
								<rect x="41.107" y="2.699" transform="matrix(0.9995 0.0325 -0.0325 0.9995 0.1247 -1.3383)" fill="#333333" width="0.24" height="0.932"/>
						</g>
						<path d="M42.245,3.82c-0.485,0-1.327-0.116-2.493-0.277c-2.391-0.332-6.057-0.837-10.153-0.797
							c-0.164-0.002-0.325-0.002-0.485-0.002c-3.903,0-7.375,0.48-9.672,0.799C18.277,3.704,17.436,3.82,16.95,3.82
							c-0.226,0-0.465-0.021-0.535-0.176c-0.048-0.107,0.01-0.214,0.06-0.279l-0.013-0.046l0.073-0.05
							c3.396-2.195,9.438-2.195,13.049-2.195c3.621,0,9.678,0,13.072,2.211l0.075,0.049l-0.011,0.033
							c0.05,0.065,0.107,0.171,0.059,0.277C42.725,3.77,42.568,3.82,42.245,3.82z M30.081,2.505c3.919,0,7.401,0.482,9.704,0.802
							c1.156,0.16,1.99,0.275,2.46,0.275c0.2,0,0.279-0.022,0.308-0.035c-0.007-0.014-0.021-0.038-0.053-0.073l-0.014-0.015
							c-3.341-2.146-9.322-2.146-12.902-2.146c-3.558,0-9.496,0-12.847,2.11l-0.042,0.05c-0.031,0.035-0.046,0.06-0.053,0.073
							c0.028,0.013,0.107,0.035,0.308,0.035c0.469,0,1.304-0.115,2.459-0.275c2.398-0.333,6.07-0.84,10.19-0.799
							C29.758,2.506,29.921,2.505,30.081,2.505z"/>
						<g>
							<ellipse fill="#D0D0D0" cx="29.597" cy="1.791" rx="1.254" ry="0.358"/>
							<path d="M29.598,2.269c-0.51,0-1.374-0.101-1.374-0.478s0.863-0.478,1.374-0.478c0.51,0,1.373,0.101,1.373,0.478
								S30.107,2.269,29.598,2.269z M29.598,1.552c-0.74,0-1.111,0.174-1.135,0.243c0.023,0.062,0.395,0.234,1.135,0.234
								c0.739,0,1.111-0.173,1.135-0.242C30.708,1.726,30.336,1.552,29.598,1.552z"/>
						</g>
					</g>
					<g>
						<path d="M8.449,55.522c0.239-0.547,0.263-1.313,0.263-1.313s0.3-10.627,0.3-12.418S7.484,26.229,6.807,26.189
							c-0.318,0.318-0.309,5.114-0.309,5.114S6.857,52.54,6.857,54.062C6.857,54.607,8.151,56.205,8.449,55.522z"/>
						<path fill="#171D23" d="M8.225,54.884c0.164-0.511,0.181-1.259,0.181-1.259s0.206-9.914,0.206-11.585
							S7.36,27.116,6.896,27.079c-0.219,0.297-0.009,5.177-0.009,5.177s0.246,20.083,0.246,21.502
							C7.133,54.267,8.021,55.521,8.225,54.884z"/>
						<polygon points="8.611,42.229 7.261,41.137 7.261,40.227 8.575,41.296 						"/>
					</g>
					<g>
						<path d="M50.732,55.522c-0.238-0.547-0.263-1.313-0.263-1.313s-0.3-10.627-0.3-12.418s1.528-15.562,2.205-15.602
							c0.318,0.318,0.309,5.114,0.309,5.114s-0.359,21.236-0.359,22.758C52.324,54.607,51.03,56.205,50.732,55.522z"/>
						<path fill="#171D23" d="M50.957,54.884c-0.164-0.511-0.181-1.259-0.181-1.259S50.57,43.711,50.57,42.04
							s1.252-14.924,1.716-14.961c0.218,0.297,0.009,5.177,0.009,5.177s-0.246,20.083-0.246,21.502
							C52.049,54.267,51.161,55.521,50.957,54.884z"/>
						<polygon points="50.57,42.229 51.921,41.137 51.921,40.227 50.607,41.296 						"/>
					</g>
					<g>
						<path d="M0.919,33.94c0,0-0.434-0.54-0.035-1.069C1.542,32,4.957,31.045,5.457,31.559l0.005,1.118L0.919,33.94z"/>
						<path fill="#0C0C0C" d="M6.927,30.836c0.831-0.093,1.363,2.259,1.084,3.841c-0.278,1.194-0.786-1.513-1.831-1.513
							c-1.94,0-3.702,0.567-4.866,1.254c-0.358-0.06-0.329-0.478-0.329-0.478s0.411-0.747,4.47-1.463v-0.919
							C6.479,31.528,6.792,30.854,6.927,30.836z"/>
						<path fill="#BCEAFF" d="M1.315,34.418c0,0,0.073,0.356,2.209-0.209c2.136-0.566,1.933-1.019,1.933-1.019
							S3.643,33.164,1.315,34.418z"/>
					</g>
					<path fill="#CBCBCB" d="M9.776,10.166c0.305-0.478,3.205-3.217,4.426-4.338c-2.251,3.781-4.241,10.468-5.19,17.239
						L9.776,10.166z"/>
					<path fill="#CBCBCB" d="M49.422,10.166c-0.305-0.478-3.205-3.217-4.426-4.338c2.25,3.781,4.24,10.468,5.189,17.239
						L49.422,10.166z"/>
					<g>
						<path d="M58.17,33.94c0,0,0.434-0.54,0.035-1.069c-0.658-0.871-4.072-1.826-4.572-1.312l-0.006,1.118L58.17,33.94z"/>
						<path fill="#0C0C0C" d="M52.162,30.836c-0.831-0.093-1.363,2.259-1.085,3.841c0.278,1.194,0.786-1.513,1.831-1.513
							c1.94,0,3.701,0.567,4.865,1.254c0.359-0.06,0.328-0.478,0.328-0.478s-0.41-0.747-4.469-1.463v-0.919
							C52.609,31.528,52.297,30.854,52.162,30.836z"/>
						<path fill="#BCEAFF" d="M57.773,34.418c0,0-0.072,0.356-2.209-0.209c-2.136-0.566-1.932-1.019-1.932-1.019
							S55.445,33.164,57.773,34.418z"/>
					</g>
				</g>
				<g>
					<path fill="#7A7A7A" d="M29.566,41.312c3.002,0,6.145,0.223,9.046,0.59c0-0.009,0-2.146,0-3.219
						c-1.373-0.179-3.88-0.358-9.051-0.358c-5.17,0-7.678,0.18-9.051,0.358c0,1.074,0,3.22,0,3.22h0
						C23.416,41.535,26.56,41.312,29.566,41.312z"/>
					<path fill="#A9A9A9" d="M20.511,38.684c0,0,6.446,0.379,9.073,0.379c2.467,0,9.029-0.379,9.029-0.379
						c-1.373-0.179-3.88-0.358-9.051-0.358C24.391,38.325,21.884,38.505,20.511,38.684z"/>
					<path fill="#232323" d="M20.511,38.684l0.556,2.387c0,0,4.129-0.496,8.441-0.496s8.553,0.365,8.553,0.365l0.552-2.256
						l0.005,3.22c0,0-5.297-0.591-9.055-0.591c-3.759,0-9.051,0.615-9.051,0.615V38.684z"/>
				</g>
				<g>
					<linearGradient id="SVGID_9_" gradientUnits="userSpaceOnUse" x1="29.562" y1="59.48" x2="29.562" y2="39.9717">
						<stop  offset="0" style="stop-color:#D7D7D7"/>
						<stop  offset="0.3305" style="stop-color:#B6B6B6"/>
						<stop  offset="1" style="stop-color:#636162"/>
					</linearGradient>
					<path fill="url(#SVGID_9_)" d="M29.562,60.955H49.35c0,0,0.213-16.339-0.584-16.681c-3.345-1.577-11.705-2.962-19.204-2.962
						s-15.859,1.385-19.204,2.962c-0.796,0.342-0.583,16.681-0.583,16.681H29.562"/>
					<path fill="#232323" d="M49.467,61.074H9.657l-0.001-0.117c-0.05-3.852-0.151-16.446,0.656-16.792
						c3.531-1.666,11.989-2.972,19.251-2.972s15.719,1.306,19.254,2.974c0.804,0.344,0.703,12.938,0.652,16.79L49.467,61.074z
						 M29.562,41.432c-7.232,0-15.645,1.297-19.153,2.951c-0.522,0.432-0.594,10.269-0.516,16.453l19.669-0.001l19.669,0.001
						c0.078-6.185,0.006-16.022-0.519-16.455C45.207,42.729,36.794,41.432,29.562,41.432z"/>
				</g>
				<linearGradient id="SVGID_10_" gradientUnits="userSpaceOnUse" x1="29.562" y1="60.1172" x2="29.562" y2="44.4127">
					<stop  offset="0" style="stop-color:#FBFBFB;stop-opacity:0"/>
					<stop  offset="0.3635" style="stop-color:#FBFBFB"/>
					<stop  offset="0.6426" style="stop-color:#FBFBFB;stop-opacity:0.7804"/>
					<stop  offset="1" style="stop-color:#FBFBFB;stop-opacity:0"/>
				</linearGradient>
				<path opacity="0.8" fill="url(#SVGID_10_)" d="M29.562,60.852l17.81,0.002c0,0,0.19-14.706-0.525-15.014
					c-3.012-1.42-10.535-2.666-17.284-2.666c-6.749,0-14.272,1.246-17.284,2.666c-0.716,0.308-0.524,15.014-0.524,15.014
					L29.562,60.852"/>
				<g>
					<path fill-rule="evenodd" clip-rule="evenodd" d="M25.436,54.92c-0.169-0.604-0.195-1.209-0.074-1.82
						c0.411-2.063,2.214-3.481,4.331-3.407c2.029,0.072,3.731,1.641,4,3.688c0.312,2.371-1.455,4.556-3.841,4.736
						c-1.02,0.076-1.994-0.094-2.869-0.655c-0.607-0.39-1.051-0.913-1.215-1.634c-0.27-1.185,0.686-2.822,2.481-2.441
						c0.736,0.156,1.261,0.832,1.267,1.581c0.006,0.744-0.491,1.414-1.187,1.593c-0.222,0.058-0.446,0.072-0.685-0.012
						c0.245-0.219,0.349-0.48,0.307-0.791c-0.06-0.449-0.468-0.785-0.92-0.764c-0.439,0.02-0.834,0.432-0.858,0.901
						c-0.025,0.517,0.214,0.909,0.623,1.189c1.438,0.987,3.381,0.279,3.837-1.378c0.281-1.023,0.082-1.94-0.723-2.661
						c-0.792-0.709-1.72-0.933-2.724-0.532c-1.009,0.402-1.592,1.168-1.73,2.256C25.449,54.819,25.442,54.869,25.436,54.92z"/>
					<g>
						<path fill-rule="evenodd" clip-rule="evenodd" d="M25.433,46.596c0,0.585,0,1.139,0,1.706c-0.185,0-0.357,0-0.538,0
							c0-1.415,0-2.825,0-4.245c0.179,0,0.348,0,0.526,0c0.005,0.104,0.01,0.198,0.016,0.321c0.379-0.356,0.805-0.485,1.291-0.393
							c0.372,0.07,0.679,0.253,0.914,0.552c0.473,0.602,0.412,1.494-0.124,2.04C27.095,47.01,26.157,47.274,25.433,46.596z
							 M25.419,45.48c-0.003,0.557,0.441,1.015,0.986,1.02c0.542,0.006,0.997-0.453,1-1.007c0.002-0.554-0.446-1.018-0.988-1.021
							C25.874,44.469,25.421,44.926,25.419,45.48z"/>
						<path fill-rule="evenodd" clip-rule="evenodd" d="M29.002,46.586c-0.006,0.135-0.011,0.23-0.016,0.335
							c-0.176,0-0.344,0-0.522,0c0-0.957,0-1.905,0-2.863c0.174,0,0.338,0,0.521,0c0.005,0.095,0.01,0.188,0.017,0.319
							c0.419-0.387,0.886-0.504,1.411-0.365c0.339,0.09,0.614,0.277,0.822,0.56c0.422,0.573,0.386,1.406-0.085,1.935
							c-0.281,0.314-0.635,0.479-1.054,0.505C29.682,47.036,29.321,46.906,29.002,46.586z M28.984,45.48
							c-0.004,0.553,0.443,1.015,0.987,1.02c0.543,0.005,0.995-0.45,1-1.006c0.005-0.554-0.443-1.018-0.986-1.021
							C29.444,44.468,28.989,44.926,28.984,45.48z"/>
						<path fill-rule="evenodd" clip-rule="evenodd" d="M34.734,45.488c-0.002-0.865,0.664-1.531,1.529-1.532
							c0.867-0.001,1.535,0.663,1.535,1.527c0.002,0.867-0.658,1.528-1.53,1.53C35.4,47.017,34.734,46.355,34.734,45.488z
							 M36.271,44.473c-0.543-0.002-0.997,0.456-1.002,1.01c-0.002,0.551,0.447,1.014,0.992,1.018c0.541,0.004,0.998-0.457,1-1.009
							S36.811,44.475,36.271,44.473z"/>
						<path fill-rule="evenodd" clip-rule="evenodd" d="M24.377,45.496c-0.003,0.864-0.675,1.523-1.544,1.518
							c-0.87-0.006-1.528-0.671-1.522-1.538c0.005-0.864,0.673-1.522,1.544-1.52C23.718,43.959,24.38,44.629,24.377,45.496z
							 M22.845,44.473c-0.541-0.001-0.996,0.461-0.996,1.013c-0.001,0.553,0.451,1.014,0.993,1.015c0.542,0,0.997-0.461,0.997-1.012
							C23.84,44.937,23.386,44.474,22.845,44.473z"/>
						<path fill-rule="evenodd" clip-rule="evenodd" d="M32.034,44.771c-0.086-0.161-0.167-0.312-0.246-0.46
							c0.426-0.483,1.431-0.473,1.989,0.016c0.625,0.548,0.691,1.535,0.147,2.164c-0.528,0.611-1.524,0.699-2.143,0.176
							c0.082-0.153,0.165-0.311,0.249-0.469c0.587,0.404,1.096,0.385,1.471-0.047c0.339-0.39,0.331-0.965-0.018-1.354
							C33.109,44.379,32.602,44.365,32.034,44.771z"/>
					</g>
				</g>
				<g>
					<path fill-rule="evenodd" clip-rule="evenodd" fill="#0F0F0F" d="M38.656,60.955c0,0-0.894-1.197-1.49-1.197
						c-0.598,0-7.583,0-7.583,0s-6.985,0-7.582,0c-0.597,0-1.491,1.197-1.491,1.197H38.656z"/>
					<path fill="#1E1E1E" d="M38.895,61.074H20.272l0.143-0.191c0.095-0.127,0.948-1.244,1.586-1.244h15.165
						c0.639,0,1.49,1.117,1.586,1.244L38.895,61.074z M20.758,60.836h17.651c-0.313-0.377-0.875-0.958-1.243-0.958H22.001
						C21.632,59.878,21.071,60.459,20.758,60.836z"/>
				</g>
				<path fill="#232323" d="M21.822,38.325"/>
				<g>
					<linearGradient id="SVGID_11_" gradientUnits="userSpaceOnUse" x1="14.9487" y1="41.8882" x2="14.9487" y2="38.862">
						<stop  offset="0" style="stop-color:#A9A9A9"/>
						<stop  offset="1" style="stop-color:#A9A9A9;stop-opacity:0"/>
					</linearGradient>
					<path fill="url(#SVGID_11_)" d="M9.85,43.876v-2.874c1.465-0.775,6.247-2.166,10.13-2.42l0.067,2.832
						C20.047,41.414,13.464,42.229,9.85,43.876z"/>
					<linearGradient id="SVGID_12_" gradientUnits="userSpaceOnUse" x1="44.1592" y1="41.8882" x2="44.1592" y2="38.862">
						<stop  offset="0" style="stop-color:#A9A9A9"/>
						<stop  offset="1" style="stop-color:#A9A9A9;stop-opacity:0"/>
					</linearGradient>
					<path fill="url(#SVGID_12_)" d="M49.258,43.876v-2.874c-1.465-0.775-6.248-2.166-10.13-2.42l-0.067,2.832
						C39.061,41.414,45.643,42.229,49.258,43.876z"/>
				</g>
				<path fill="#6D6D6D" d="M8.611,10.962c0,0-0.873,13.015-0.856,14.966c0.017,1.95-0.656,0-0.656,0L7.704,13.47
					C8.131,13.191,8.611,10.962,8.611,10.962z"/>
				<path fill="#6D6D6D" d="M50.49,10.962c0,0,0.873,13.015,0.855,14.966c-0.017,1.95,0.656,0,0.656,0L51.397,13.47
					C50.971,13.191,50.49,10.962,50.49,10.962z"/>
			</g>
		</g>
		<path fill-rule="evenodd" clip-rule="evenodd" fill="none" stroke="#3F3F3F" stroke-width="3" stroke-miterlimit="10" d="
			M9.285,59.758"/>
		<g>
			<g>
				<g>
					<g>
						<linearGradient id="SVGID_13_" gradientUnits="userSpaceOnUse" x1="29.5835" y1="63.1484" x2="29.5835" y2="111.5018">
							<stop  offset="0" style="stop-color:#DF0000"/>
							<stop  offset="1" style="stop-color:#A00404"/>
						</linearGradient>
						<path fill-rule="evenodd" clip-rule="evenodd" fill="url(#SVGID_13_)" d="M54.607,113.081c0,2.2-1.799,4-4,4H8.56
							c-2.2,0-4-1.8-4-4V65.192c0-2.2,1.8-4,4-4h42.048c2.201,0,4,1.8,4,4V113.081z"/>
					</g>
					<path fill="#6D0000" d="M53.652,117.439H5.515c-0.724,0-1.313-0.59-1.313-1.313V62.147c0-0.724,0.589-1.313,1.313-1.313h48.138
						c0.725,0,1.314,0.59,1.314,1.313v53.979C54.967,116.85,54.377,117.439,53.652,117.439z M5.515,61.551
						c-0.329,0-0.597,0.268-0.597,0.597v53.979c0,0.329,0.268,0.597,0.597,0.597h48.138c0.33,0,0.598-0.268,0.598-0.597V62.147
						c0-0.329-0.268-0.597-0.598-0.597H5.515z"/>
				</g>
				<g>
					<path fill-rule="evenodd" clip-rule="evenodd" fill="#700000" d="M48.725,85.209c0,1.1-0.899,2-2,2H12.441c-1.1,0-2-0.9-2-2
						V69.737c0-1.101,0.9-2,2-2h34.284c1.101,0,2,0.899,2,2V85.209z"/>
				</g>
				<g>
					<g>
						<linearGradient id="SVGID_14_" gradientUnits="userSpaceOnUse" x1="29.5835" y1="68.6338" x2="29.5835" y2="83.2576">
							<stop  offset="0" style="stop-color:#DF0000"/>
							<stop  offset="1" style="stop-color:#A00404"/>
						</linearGradient>
						<path fill-rule="evenodd" clip-rule="evenodd" fill="url(#SVGID_14_)" d="M47.711,83.918c0,1.1-0.9,2-2,2H13.456
							c-1.1,0-2-0.9-2-2V69.607c0-1.1,0.9-2,2-2h32.255c1.1,0,2,0.9,2,2V83.918z"/>
					</g>
					<path fill="#A80000" d="M47.232,86.275H11.934c-0.461,0-0.836-0.375-0.836-0.836V68.085c0-0.461,0.375-0.836,0.836-0.836
						h35.298c0.461,0,0.836,0.375,0.836,0.836v17.354C48.068,85.9,47.693,86.275,47.232,86.275z M11.934,67.966
						c-0.065,0-0.12,0.054-0.12,0.119v17.354c0,0.065,0.055,0.12,0.12,0.12h35.298c0.064,0,0.119-0.055,0.119-0.12V68.085
						c0-0.065-0.055-0.119-0.119-0.119H11.934z"/>
				</g>
				<g>
					<g>
						<linearGradient id="SVGID_15_" gradientUnits="userSpaceOnUse" x1="29.5835" y1="81.8506" x2="29.5835" y2="91.7062">
							<stop  offset="0" style="stop-color:#DF0000"/>
							<stop  offset="1" style="stop-color:#A00404"/>
						</linearGradient>
						<path fill-rule="evenodd" clip-rule="evenodd" fill="url(#SVGID_15_)" d="M45.898,83.512c0,1.1-0.9,2-2,2H15.269
							c-1.1,0-2-0.9-2-2V70.014c0-1.1,0.9-2,2-2h28.629c1.1,0,2,0.9,2,2V83.512z"/>
					</g>
					<path opacity="0.4" fill-rule="evenodd" clip-rule="evenodd" fill="#FFFFFF" d="M13.868,84.119
						c0.001-0.479,0.034-14.237,0.034-14.237s-0.241-1.009,0.955-1.009c1.592,0,28.821-0.086,29.93,0
						c-1.034,0.205-28.577,0-29.85,1.114S14.101,83.36,13.868,84.119z"/>
				</g>
				<g>
					<linearGradient id="SVGID_16_" gradientUnits="userSpaceOnUse" x1="29.5884" y1="82.0273" x2="29.5884" y2="84.8486">
						<stop  offset="0" style="stop-color:#DF0000"/>
						<stop  offset="1" style="stop-color:#A00404"/>
					</linearGradient>
					<path fill-rule="evenodd" clip-rule="evenodd" fill="url(#SVGID_16_)" d="M45.225,83.43c0,0.805-1.35,1.463-3,1.463H16.952
						c-1.65,0-3-0.658-3-1.463s1.35-1.463,3-1.463h25.272C43.875,81.967,45.225,82.625,45.225,83.43z"/>
				</g>
			</g>
			<g opacity="0.3">
				<path fill-rule="evenodd" clip-rule="evenodd" fill="#FFFFFF" d="M6.796,113.02c0.735-0.716,1.815-46.336,1.815-47.888
					c0-1.553-2.113-1.791-2.113-1.791L6.796,113.02z"/>
				<path fill-rule="evenodd" clip-rule="evenodd" fill="#FFFFFF" d="M52.287,113.02c-0.736-0.716-1.815-46.336-1.815-47.888
					c0-1.553,2.113-1.791,2.113-1.791L52.287,113.02z"/>
			</g>
			<g>
				<linearGradient id="SVGID_17_" gradientUnits="userSpaceOnUse" x1="29.5415" y1="63.7588" x2="29.5415" y2="64.8944">
					<stop  offset="0" style="stop-color:#700000;stop-opacity:0"/>
					<stop  offset="1" style="stop-color:#700000"/>
				</linearGradient>
				<path opacity="0.5" fill-rule="evenodd" clip-rule="evenodd" fill="url(#SVGID_17_)" d="M8.611,65.132
					c0,0.038,0,0.119-0.002,0.238h41.864c-0.001-0.119-0.002-0.2-0.002-0.238c0-1.553,2.113-1.791,2.113-1.791H6.499
					C6.499,63.341,8.611,63.579,8.611,65.132z"/>
			</g>
			<g>
				<path fill-rule="evenodd" clip-rule="evenodd" fill="#870000" d="M5.087,116.371c-0.29,0-0.527-1.8-0.527-4V64.955
					c0-2.2,1.8-4,4-4h42.048c2.201,0,4,1.8,4,4v47.416c0,2.2-0.24,4-0.535,4c-0.294,0-0.535-1.8-0.535-4v-46.01c0-2.2-1.799-4-4-4
					H9.614c-2.2,0-4,1.8-4,4v46.01C5.614,114.571,5.376,116.371,5.087,116.371z"/>
			</g>
			<path fill="#6D0000" d="M53.652,117.439H5.515c-0.724,0-1.313-0.59-1.313-1.313V62.147c0-0.724,0.589-1.313,1.313-1.313h48.138
				c0.725,0,1.314,0.59,1.314,1.313v53.979C54.967,116.85,54.377,117.439,53.652,117.439z M5.515,61.551
				c-0.329,0-0.597,0.268-0.597,0.597v53.979c0,0.329,0.268,0.597,0.597,0.597h48.138c0.33,0,0.598-0.268,0.598-0.597V62.147
				c0-0.329-0.268-0.597-0.598-0.597H5.515z"/>
		</g>
	</g>
</g>
</svg>
