<?xml version="1.0" encoding="utf-8"?>
<!-- Generator: Adobe Illustrator 16.0.0, SVG Export Plug-In . SVG Version: 6.00 Build 0)  -->
<!DOCTYPE svg PUBLIC "-//W3C//DTD SVG 1.1//EN" "http://www.w3.org/Graphics/SVG/1.1/DTD/svg11.dtd">
<svg version="1.1" id="Layer_1" xmlns="http://www.w3.org/2000/svg" xmlns:xlink="http://www.w3.org/1999/xlink" x="0px" y="0px"
	 width="64.063px" height="123.758px" viewBox="2.931 15.906 64.063 123.758" enable-background="new 2.931 15.906 64.063 123.758"
	 xml:space="preserve">
<g>
	<path opacity="0.4" fill="#060D1C" d="M66.682,54.511c-0.711-0.941-3.289-1.737-4.551-1.744c-0.055-3.867-0.262-9.445-0.695-14.447
		c-0.244-2.813-0.533-5.109-0.857-6.821c-0.536-2.827-1.08-3.554-1.492-3.873l-0.199-0.153c-2.104-1.633-7.029-5.458-21.458-5.458
		c-14.431,0-19.355,3.825-21.458,5.458l-0.197,0.153c-0.414,0.319-0.957,1.046-1.493,3.871c-0.325,1.712-0.613,4.008-0.858,6.82
		c-0.434,5.001-0.64,10.581-0.695,14.45c-0.015,0-0.029-0.001-0.043-0.001c-1.255,0-3.856,0.798-4.57,1.745
		c-0.583,0.773-0.224,1.615,0.048,1.953l0.296,0.368l0.109-0.03c0.285,0.205,0.742,0.396,1.451,0.396
		c0.439,0,0.943-0.074,1.497-0.221c0.587-0.156,1.028-0.311,1.36-0.459c0.072,0.323,0.154,0.554,0.22,0.706l-0.178,25.798
		c-0.047,0.015-0.093,0.033-0.138,0.055h-0.41v0.237v0.058c-0.222,0.235-0.359,0.552-0.359,0.899v54.075
		c0,0.349,0.137,0.666,0.359,0.9v0.058h0.057c0.235,0.222,0.552,0.358,0.9,0.358h48.223c0.349,0,0.665-0.137,0.9-0.358h0.058v-0.058
		c0.221-0.234,0.358-0.552,0.358-0.9V84.272c0-0.348-0.138-0.664-0.358-0.899v-0.058v-0.237h-0.41
		c-0.05-0.023-0.102-0.044-0.154-0.061l-0.178-25.792c0.064-0.147,0.145-0.371,0.215-0.681c0.325,0.142,0.748,0.286,1.302,0.434
		c0.554,0.146,1.058,0.221,1.497,0.221c0.709,0,1.166-0.191,1.451-0.396l0.108,0.03l0.296-0.368
		C66.905,56.126,67.264,55.284,66.682,54.511z M66.001,54.824c-0.009-0.007-0.017-0.016-0.026-0.024
		C65.985,54.809,65.993,54.818,66.001,54.824z M63.511,55.602c0.747,0.203,1.415,0.478,1.969,0.779
		c-0.005,0.001-0.009,0.003-0.013,0.005C64.747,56.016,64.083,55.767,63.511,55.602z M9.328,56.386
		c-0.003-0.002-0.008-0.004-0.012-0.005c0.553-0.302,1.221-0.576,1.968-0.779C10.713,55.767,10.048,56.016,9.328,56.386z
		 M13.272,55.305c0-0.004,0-0.007,0-0.01C13.273,55.298,13.272,55.301,13.272,55.305z M13.271,55.263
		c0.023-0.002,0.047-0.002,0.07-0.004C13.317,55.261,13.293,55.261,13.271,55.263z M13.272,55.29c0-0.002,0-0.004,0-0.006
		C13.272,55.286,13.272,55.288,13.272,55.29z M13.271,55.281c0-0.002,0-0.004-0.001-0.006
		C13.271,55.277,13.271,55.279,13.271,55.281z M13.27,55.272c0-0.001,0-0.003-0.001-0.003C13.27,55.269,13.27,55.271,13.27,55.272z
		 M61.074,57.007c0.001,0,0.001-0.001,0.001-0.002C61.075,57.006,61.075,57.007,61.074,57.007z M61.057,57.041
		c0.001-0.002,0.002-0.004,0.002-0.006C61.059,57.038,61.058,57.039,61.057,57.041z M61.422,55.257L61.422,55.257
		c0,0.006-0.001,0.012-0.002,0.018C61.421,55.269,61.421,55.263,61.422,55.257z M60.714,38.306c0.002,0.027,0.005,0.055,0.007,0.081
		C60.719,38.361,60.716,38.333,60.714,38.306z M60.751,38.74c0.004,0.047,0.008,0.094,0.012,0.142
		C60.759,38.833,60.755,38.786,60.751,38.74z M60.79,39.197c0.004,0.062,0.01,0.123,0.015,0.186
		C60.799,39.32,60.793,39.259,60.79,39.197z M60.829,39.687c0.004,0.064,0.01,0.13,0.015,0.195
		C60.838,39.817,60.833,39.751,60.829,39.687z M60.866,40.187c0.005,0.068,0.01,0.135,0.016,0.201
		C60.875,40.322,60.871,40.255,60.866,40.187z M60.903,40.686c0.005,0.069,0.01,0.141,0.015,0.21
		C60.913,40.826,60.908,40.755,60.903,40.686z M60.938,41.194c0.005,0.071,0.01,0.142,0.015,0.214
		C60.948,41.335,60.943,41.265,60.938,41.194z M60.971,41.698c0.006,0.075,0.011,0.151,0.016,0.228
		C60.982,41.849,60.977,41.773,60.971,41.698z M61.004,42.204c0.005,0.078,0.01,0.156,0.015,0.234
		C61.014,42.361,61.009,42.282,61.004,42.204z M61.036,42.72c0.005,0.077,0.01,0.155,0.014,0.232
		C61.045,42.875,61.041,42.797,61.036,42.72z M61.067,43.232c0.004,0.08,0.008,0.159,0.014,0.238
		C61.075,43.391,61.071,43.312,61.067,43.232z M61.096,43.746c0.004,0.079,0.008,0.159,0.012,0.239
		C61.104,43.906,61.1,43.825,61.096,43.746z M61.124,44.265c0.004,0.077,0.008,0.153,0.012,0.23
		C61.131,44.418,61.127,44.342,61.124,44.265z M61.15,44.776c0.004,0.079,0.008,0.159,0.013,0.239
		C61.158,44.935,61.154,44.855,61.15,44.776z M61.175,45.288c0.003,0.077,0.007,0.154,0.011,0.231
		C61.182,45.443,61.178,45.365,61.175,45.288z M61.2,45.803c0.003,0.075,0.006,0.149,0.01,0.224
		C61.206,45.952,61.203,45.878,61.2,45.803z M61.221,46.304c0.004,0.08,0.008,0.16,0.011,0.238
		C61.229,46.464,61.225,46.384,61.221,46.304z M61.244,46.814c0.003,0.072,0.006,0.145,0.009,0.216
		C61.25,46.958,61.247,46.886,61.244,46.814z M61.264,47.319c0.003,0.07,0.006,0.142,0.008,0.212
		C61.27,47.46,61.267,47.389,61.264,47.319z M61.284,47.811c0.002,0.072,0.004,0.144,0.008,0.216
		C61.288,47.954,61.286,47.883,61.284,47.811z M61.301,48.306c0.002,0.067,0.004,0.134,0.006,0.201
		C61.305,48.44,61.303,48.373,61.301,48.306z M61.318,48.794c0.002,0.06,0.004,0.12,0.005,0.18
		C61.322,48.914,61.32,48.854,61.318,48.794z M61.333,49.282c0.002,0.043,0.004,0.085,0.004,0.127
		C61.336,49.367,61.334,49.325,61.333,49.282z M61.348,49.762c0,0.027,0.001,0.055,0.002,0.081
		C61.349,49.817,61.348,49.789,61.348,49.762z M61.361,50.232c0,0.006,0,0.014,0.001,0.02
		C61.361,50.245,61.361,50.238,61.361,50.232z M59.655,30.595c0.01,0.047,0.021,0.094,0.033,0.142
		C59.676,30.689,59.665,30.642,59.655,30.595z M59.725,30.904c0.01,0.047,0.02,0.096,0.031,0.145
		C59.745,30.999,59.735,30.95,59.725,30.904z M59.793,31.228c0.01,0.049,0.02,0.098,0.029,0.147
		C59.813,31.325,59.803,31.277,59.793,31.228z M59.86,31.562c0.01,0.051,0.02,0.104,0.029,0.156
		C59.879,31.665,59.87,31.613,59.86,31.562z M59.924,31.912c0.01,0.052,0.02,0.105,0.028,0.158
		C59.944,32.018,59.934,31.964,59.924,31.912z M59.989,32.277c0.009,0.052,0.018,0.104,0.026,0.158
		C60.006,32.38,59.998,32.328,59.989,32.277z M60.051,32.651c0.008,0.054,0.017,0.108,0.025,0.163
		C60.068,32.759,60.059,32.704,60.051,32.651z M60.112,33.036c0.008,0.055,0.016,0.11,0.023,0.164
		C60.127,33.147,60.12,33.091,60.112,33.036z M60.17,33.438c0.008,0.052,0.016,0.104,0.022,0.157
		C60.186,33.542,60.178,33.49,60.17,33.438z M60.228,33.847c0.007,0.052,0.015,0.105,0.021,0.159
		C60.243,33.952,60.235,33.899,60.228,33.847z M60.284,34.265c0.008,0.052,0.014,0.104,0.021,0.157
		C60.297,34.369,60.292,34.317,60.284,34.265z M60.338,34.693c0.006,0.051,0.013,0.104,0.019,0.154
		C60.351,34.796,60.344,34.743,60.338,34.693z M60.392,35.133c0.005,0.046,0.011,0.091,0.016,0.136
		C60.403,35.224,60.397,35.179,60.392,35.133z M60.444,35.579c0.004,0.039,0.008,0.079,0.014,0.118
		C60.452,35.658,60.448,35.618,60.444,35.579z M60.495,36.035c0.002,0.023,0.004,0.047,0.007,0.07
		C60.499,36.082,60.497,36.059,60.495,36.035z M60.542,36.495c0.001,0.005,0.001,0.011,0.001,0.016
		C60.543,36.506,60.543,36.5,60.542,36.495z M14.382,35.88c0.012-0.109,0.023-0.217,0.036-0.323
		C14.405,35.663,14.394,35.771,14.382,35.88z M14.436,35.406c0.011-0.1,0.022-0.199,0.034-0.297
		C14.458,35.206,14.447,35.306,14.436,35.406z M14.489,34.95c0.011-0.094,0.022-0.188,0.034-0.28
		C14.512,34.763,14.5,34.857,14.489,34.95z M14.543,34.509c0.012-0.091,0.023-0.18,0.035-0.27
		C14.566,34.329,14.555,34.418,14.543,34.509z M14.6,34.078c0.012-0.086,0.022-0.173,0.035-0.257
		C14.622,33.906,14.611,33.992,14.6,34.078z M14.657,33.657c0.012-0.082,0.023-0.163,0.035-0.244
		C14.68,33.494,14.669,33.575,14.657,33.657z M14.717,33.245c0.011-0.076,0.022-0.153,0.034-0.229
		C14.739,33.092,14.728,33.169,14.717,33.245z M14.776,32.851c0.012-0.074,0.024-0.148,0.036-0.223
		C14.8,32.702,14.788,32.777,14.776,32.851z M14.838,32.468c0.012-0.071,0.023-0.142,0.036-0.213
		C14.862,32.326,14.85,32.397,14.838,32.468z M14.901,32.096c0.012-0.069,0.024-0.137,0.037-0.202
		C14.926,31.959,14.914,32.027,14.901,32.096z M14.966,31.739c0.012-0.065,0.024-0.13,0.037-0.194
		C14.991,31.609,14.978,31.673,14.966,31.739z M15.032,31.394c0.012-0.062,0.024-0.124,0.037-0.186
		C15.057,31.27,15.044,31.331,15.032,31.394z M15.1,31.064c0.013-0.06,0.025-0.119,0.038-0.176
		C15.125,30.945,15.113,31.004,15.1,31.064z M15.169,30.747c0.012-0.057,0.025-0.111,0.039-0.166
		C15.195,30.636,15.182,30.691,15.169,30.747z M13.784,57.007c0-0.001,0-0.001,0-0.002C13.784,57.006,13.784,57.006,13.784,57.007z
		 M13.813,57.061c0,0-0.001-0.002-0.003-0.005C13.811,57.058,13.813,57.061,13.813,57.061z M13.801,57.039
		c0-0.001,0-0.002-0.001-0.003C13.8,57.037,13.8,57.038,13.801,57.039z M61.441,55.259c0.028,0.002,0.057,0.002,0.085,0.004
		C61.498,55.261,61.469,55.259,61.441,55.259z M61.523,55.295c0,0.004,0,0.008,0.001,0.013
		C61.523,55.303,61.523,55.299,61.523,55.295z M61.526,55.269c0,0,0,0.002,0,0.003C61.526,55.271,61.526,55.269,61.526,55.269z
		 M61.525,55.275c-0.001,0.002-0.001,0.004-0.001,0.006C61.524,55.279,61.524,55.277,61.525,55.275z M61.524,55.284
		c-0.001,0.002-0.001,0.005-0.001,0.008C61.523,55.289,61.523,55.286,61.524,55.284z M62.139,53.485
		c-0.014,0-0.027-0.001-0.04-0.001c0.005,0,0.008,0,0.013,0C62.12,53.484,62.129,53.485,62.139,53.485z M65.839,54.686
		c-0.009-0.007-0.019-0.014-0.028-0.021C65.821,54.672,65.831,54.679,65.839,54.686z M65.66,54.562
		c-0.009-0.007-0.019-0.014-0.028-0.02C65.641,54.548,65.651,54.555,65.66,54.562z M65.442,54.431
		c-0.016-0.009-0.031-0.018-0.048-0.025C65.411,54.413,65.426,54.422,65.442,54.431z M65.182,54.296
		c-0.008-0.004-0.015-0.008-0.021-0.01C65.167,54.288,65.174,54.292,65.182,54.296z M64.946,54.187
		c-0.02-0.008-0.037-0.016-0.057-0.023C64.909,54.171,64.926,54.179,64.946,54.187z M64.652,54.066
		c-0.019-0.007-0.038-0.014-0.056-0.021C64.614,54.052,64.633,54.059,64.652,54.066z M64.371,53.961
		c-0.014-0.005-0.027-0.011-0.041-0.015C64.343,53.95,64.357,53.956,64.371,53.961z M64.075,53.862
		c-0.022-0.008-0.045-0.015-0.067-0.021C64.03,53.847,64.052,53.854,64.075,53.862z M63.75,53.764
		c-0.014-0.005-0.027-0.008-0.042-0.012C63.723,53.756,63.737,53.759,63.75,53.764z M63.478,53.691
		c-0.021-0.005-0.04-0.01-0.061-0.016C63.438,53.681,63.458,53.686,63.478,53.691z M63.168,53.618
		c-0.02-0.004-0.04-0.009-0.06-0.013C63.128,53.61,63.149,53.615,63.168,53.618z M62.885,53.562
		c-0.01-0.001-0.021-0.003-0.031-0.005C62.864,53.559,62.875,53.561,62.885,53.562z M62.622,53.522
		c-0.02-0.003-0.037-0.005-0.057-0.007C62.584,53.517,62.602,53.519,62.622,53.522z M62.35,53.492c-0.012,0-0.023-0.001-0.035-0.001
		C62.327,53.491,62.338,53.492,62.35,53.492z M61.933,53.491c-0.013,0.001-0.024,0.002-0.037,0.003
		C61.909,53.493,61.92,53.492,61.933,53.491z M61.768,53.515c-0.006,0.002-0.014,0.003-0.02,0.004
		C61.754,53.518,61.762,53.517,61.768,53.515z M61.634,53.559c-0.009,0.003-0.016,0.007-0.022,0.011
		C61.619,53.566,61.625,53.562,61.634,53.559z M59.617,30.437c-0.011-0.045-0.022-0.09-0.033-0.133
		C59.594,30.347,59.606,30.392,59.617,30.437z M59.545,30.154c-0.012-0.043-0.023-0.085-0.035-0.129
		C59.522,30.069,59.534,30.111,59.545,30.154z M59.471,29.887c-0.012-0.042-0.023-0.082-0.036-0.123
		C59.448,29.805,59.459,29.845,59.471,29.887z M59.396,29.636c-0.013-0.04-0.024-0.078-0.037-0.117
		C59.372,29.558,59.383,29.596,59.396,29.636z M59.319,29.401c-0.012-0.037-0.025-0.073-0.038-0.109
		C59.293,29.327,59.307,29.364,59.319,29.401z M59.241,29.184c-0.013-0.035-0.026-0.068-0.039-0.103
		C59.214,29.115,59.228,29.149,59.241,29.184z M59.162,28.985c-0.014-0.033-0.028-0.063-0.042-0.095
		C59.133,28.921,59.148,28.951,59.162,28.985z M58.913,28.499c-0.018-0.026-0.034-0.049-0.051-0.072
		C58.878,28.45,58.895,28.473,58.913,28.499z M59.081,28.803c-0.016-0.03-0.029-0.058-0.045-0.085
		C59.051,28.745,59.065,28.773,59.081,28.803z M58.997,28.642c-0.016-0.027-0.031-0.053-0.047-0.078
		C58.965,28.589,58.981,28.615,58.997,28.642z M58.826,28.377c-0.02-0.024-0.038-0.046-0.058-0.068
		C58.788,28.331,58.806,28.353,58.826,28.377z M58.738,28.275c-0.03-0.03-0.061-0.058-0.091-0.08
		C58.677,28.217,58.708,28.244,58.738,28.275z M16.211,28.195c-0.03,0.022-0.06,0.05-0.09,0.08
		C16.151,28.244,16.181,28.217,16.211,28.195z M16,28.424c-0.018,0.024-0.036,0.049-0.053,0.075
		C15.964,28.473,15.982,28.448,16,28.424z M16.094,28.308c-0.021,0.021-0.041,0.044-0.061,0.069
		C16.053,28.352,16.073,28.329,16.094,28.308z M15.24,30.447c0.013-0.053,0.026-0.105,0.039-0.157
		C15.266,30.341,15.253,30.394,15.24,30.447z M15.312,30.161c0.014-0.051,0.026-0.101,0.04-0.149
		C15.338,30.061,15.326,30.111,15.312,30.161z M15.386,29.894c0.014-0.049,0.027-0.095,0.042-0.142
		C15.413,29.799,15.399,29.845,15.386,29.894z M15.461,29.64c0.014-0.045,0.028-0.087,0.042-0.131
		C15.489,29.553,15.475,29.595,15.461,29.64z M15.538,29.405c0.014-0.042,0.029-0.081,0.043-0.122
		C15.567,29.323,15.552,29.363,15.538,29.405z M15.617,29.186c0.015-0.038,0.029-0.075,0.044-0.11
		C15.646,29.111,15.631,29.148,15.617,29.186z M15.697,28.986c0.015-0.035,0.03-0.068,0.046-0.103
		C15.727,28.917,15.712,28.95,15.697,28.986z M15.778,28.805c0.016-0.033,0.032-0.063,0.047-0.093
		C15.81,28.741,15.794,28.772,15.778,28.805z M15.862,28.642c0.016-0.029,0.033-0.057,0.049-0.083
		C15.895,28.585,15.878,28.613,15.862,28.642z M14.319,36.473c-0.049,0.472-0.096,0.954-0.14,1.444
		C14.223,37.427,14.27,36.945,14.319,36.473z M14.368,36.011c-0.014,0.127-0.028,0.255-0.041,0.384
		C14.34,36.266,14.354,36.138,14.368,36.011z M13.509,49.836c0.001-0.026,0.001-0.052,0.002-0.078
		C13.51,49.784,13.51,49.81,13.509,49.836z M13.522,49.373c0.001-0.028,0.002-0.056,0.003-0.084
		C13.524,49.318,13.523,49.345,13.522,49.373z M13.537,48.923c0.001-0.04,0.002-0.078,0.004-0.118
		C13.54,48.845,13.538,48.883,13.537,48.923z M13.552,48.464c0.002-0.051,0.004-0.101,0.005-0.151
		C13.556,48.364,13.554,48.413,13.552,48.464z M13.568,48.008c0.002-0.064,0.005-0.13,0.008-0.195
		C13.573,47.878,13.57,47.944,13.568,48.008z M13.587,47.518c0.002-0.066,0.005-0.134,0.007-0.201
		C13.592,47.384,13.589,47.451,13.587,47.518z M13.606,47.029c0.003-0.071,0.006-0.142,0.009-0.213
		C13.612,46.887,13.609,46.957,13.606,47.029z M13.627,46.518c0.003-0.068,0.006-0.137,0.009-0.205
		C13.633,46.381,13.63,46.449,13.627,46.518z M13.649,46.025c0.003-0.074,0.007-0.15,0.01-0.227
		C13.656,45.874,13.652,45.95,13.649,46.025z M13.672,45.517c0.004-0.076,0.007-0.151,0.011-0.227
		C13.68,45.365,13.676,45.441,13.672,45.517z M13.697,45.007c0.004-0.078,0.008-0.156,0.012-0.233
		C13.705,44.851,13.701,44.929,13.697,45.007z M13.723,44.501c0.004-0.084,0.009-0.168,0.013-0.252
		C13.732,44.333,13.727,44.417,13.723,44.501z M13.75,43.994c0.005-0.088,0.01-0.175,0.015-0.263
		C13.759,43.82,13.754,43.906,13.75,43.994z M13.778,43.479c0.005-0.089,0.01-0.177,0.016-0.266
		C13.788,43.302,13.783,43.39,13.778,43.479z M13.808,42.966c0.005-0.092,0.011-0.185,0.017-0.275
		C13.819,42.781,13.813,42.874,13.808,42.966z M13.839,42.452c0.005-0.094,0.011-0.185,0.017-0.277
		C13.85,42.268,13.844,42.359,13.839,42.452z M13.872,41.938c0.006-0.095,0.012-0.191,0.018-0.285
		C13.884,41.746,13.877,41.843,13.872,41.938z M13.905,41.427c0.007-0.098,0.013-0.195,0.02-0.293
		C13.918,41.232,13.912,41.329,13.905,41.427z M13.94,40.915c0.007-0.099,0.014-0.197,0.021-0.298
		C13.954,40.718,13.947,40.817,13.94,40.915z M13.977,40.407c0.007-0.102,0.014-0.201,0.022-0.303
		C13.991,40.206,13.984,40.306,13.977,40.407z M14.015,39.9c0.007-0.104,0.016-0.207,0.024-0.309
		C14.031,39.693,14.022,39.796,14.015,39.9z M14.054,39.399c0.008-0.111,0.017-0.222,0.027-0.331
		C14.071,39.177,14.062,39.287,14.054,39.399z M14.094,38.9c0.009-0.116,0.019-0.23,0.029-0.348
		C14.113,38.669,14.104,38.783,14.094,38.9z M14.136,38.406c0.012-0.136,0.023-0.271,0.036-0.404
		C14.159,38.135,14.147,38.27,14.136,38.406z M13.436,53.616L13.436,53.616c-0.054,0.005-0.11,0.01-0.168,0.012
		C13.326,53.626,13.381,53.621,13.436,53.616z M13.184,53.57c-0.008-0.004-0.015-0.008-0.023-0.011
		C13.169,53.562,13.176,53.566,13.184,53.57z M13.047,53.519c-0.006-0.001-0.013-0.002-0.02-0.004
		C13.034,53.517,13.041,53.518,13.047,53.519z M12.899,53.494c-0.012-0.001-0.024-0.002-0.037-0.003
		C12.875,53.492,12.887,53.493,12.899,53.494z M12.696,53.484c-0.013,0-0.026,0.001-0.039,0.001c0.008,0,0.019-0.001,0.027-0.001
		C12.688,53.484,12.692,53.484,12.696,53.484z M8.957,54.686c0.009-0.007,0.018-0.014,0.027-0.021
		C8.975,54.672,8.965,54.679,8.957,54.686z M9.137,54.56c0.008-0.006,0.017-0.012,0.026-0.018
		C9.154,54.548,9.146,54.554,9.137,54.56z M9.354,54.431c0.015-0.009,0.031-0.018,0.046-0.025
		C9.385,54.413,9.37,54.422,9.354,54.431z M9.615,54.295c0.005-0.003,0.011-0.005,0.017-0.008C9.626,54.29,9.62,54.292,9.615,54.295
		z M9.852,54.187c0.018-0.008,0.035-0.016,0.052-0.023C9.887,54.171,9.87,54.179,9.852,54.187z M10.145,54.065
		c0.017-0.007,0.035-0.013,0.053-0.02C10.18,54.052,10.162,54.058,10.145,54.065z M10.427,53.96c0.013-0.005,0.025-0.01,0.038-0.014
		C10.453,53.95,10.44,53.955,10.427,53.96z M10.722,53.861c0.021-0.007,0.043-0.014,0.064-0.02
		C10.765,53.847,10.744,53.854,10.722,53.861z M11.045,53.764c0.013-0.005,0.027-0.008,0.04-0.012
		C11.072,53.756,11.059,53.759,11.045,53.764z M11.318,53.691c0.021-0.005,0.04-0.01,0.06-0.016
		C11.358,53.681,11.338,53.686,11.318,53.691z M11.626,53.618c0.021-0.004,0.04-0.009,0.06-0.013
		C11.667,53.61,11.646,53.615,11.626,53.618z M11.91,53.562c0.011-0.001,0.022-0.003,0.032-0.005
		C11.932,53.559,11.92,53.561,11.91,53.562z M12.173,53.522c0.02-0.003,0.039-0.005,0.057-0.007
		C12.212,53.517,12.193,53.519,12.173,53.522z M12.445,53.492c0.012,0,0.023-0.001,0.036-0.001
		C12.468,53.491,12.457,53.492,12.445,53.492z M8.82,54.8c-0.009,0.009-0.017,0.018-0.025,0.024
		C8.803,54.818,8.811,54.809,8.82,54.8z M8.807,55.991L8.807,55.991L8.807,55.991l-0.085,0.022L8.807,55.991z M11.331,56.284
		c1.203-0.319,1.666-0.603,1.839-0.789C12.997,55.682,12.535,55.965,11.331,56.284z M13.272,55.308c0,0.004-0.001,0.009-0.001,0.013
		C13.271,55.317,13.272,55.312,13.272,55.308z M13.27,55.325c-0.001,0.004-0.002,0.01-0.003,0.014
		C13.268,55.335,13.269,55.329,13.27,55.325z M13.266,55.343c-0.001,0.005-0.003,0.011-0.005,0.016
		C13.262,55.354,13.264,55.348,13.266,55.343z M13.259,55.363c-0.002,0.008-0.005,0.014-0.009,0.021
		C13.253,55.376,13.256,55.37,13.259,55.363z M13.249,55.386c-0.003,0.007-0.007,0.015-0.012,0.021
		C13.242,55.401,13.246,55.393,13.249,55.386z M13.236,55.409c-0.004,0.008-0.01,0.017-0.016,0.025
		C13.226,55.426,13.231,55.417,13.236,55.409z M13.219,55.437c-0.006,0.009-0.013,0.019-0.021,0.027
		C13.206,55.455,13.212,55.446,13.219,55.437z M13.197,55.464c-0.007,0.01-0.015,0.02-0.024,0.028
		C13.182,55.484,13.19,55.474,13.197,55.464z M61.537,55.363c0.062,0.165,0.39,0.514,1.928,0.922
		C61.926,55.876,61.599,55.528,61.537,55.363z M61.524,55.308c0,0.004,0,0.009,0.001,0.014
		C61.524,55.317,61.524,55.312,61.524,55.308z M61.526,55.325c0,0.005,0.002,0.01,0.004,0.017
		C61.528,55.335,61.526,55.33,61.526,55.325z M61.53,55.343c0.002,0.006,0.004,0.013,0.006,0.02
		C61.534,55.356,61.532,55.349,61.53,55.343z M65.989,55.991L65.989,55.991L65.989,55.991l0.085,0.022L65.989,55.991z"/>
	<g>
		<g>
			<g>
				<g>
					<linearGradient id="SVGID_1_" gradientUnits="userSpaceOnUse" x1="33.2778" y1="16.5608" x2="33.2778" y2="79.9885">
						<stop  offset="0" style="stop-color:#CBCBCB"/>
						<stop  offset="0.3163" style="stop-color:#8D8D8D"/>
						<stop  offset="0.9286" style="stop-color:#666666"/>
						<stop  offset="0.9745" style="stop-color:#333333"/>
					</linearGradient>
					<path fill="url(#SVGID_1_)" d="M57.075,77.689l-0.18-26.018c0,0,0.441-0.699,0.383-2.613
						c-0.024-7.913-0.814-24.738-2.781-26.254c-1.969-1.516-6.56-5.463-21.219-5.463s-19.251,3.947-21.219,5.463
						c-1.967,1.516-2.757,18.341-2.781,26.254c-0.06,1.914,0.383,2.613,0.383,2.613l-0.18,26.018H57.075z"/>
					<path fill-rule="evenodd" clip-rule="evenodd" fill="#3F3F3F" d="M12.951,77.689c0,0-3.21-1.562-3.53-5.906v5.906H12.951z"/>
					<path fill-rule="evenodd" clip-rule="evenodd" fill="#3F3F3F" d="M53.573,77.689c0,0,3.209-1.562,3.529-5.906v5.906H53.573z"/>
					<path fill="#333333" d="M10.481,44.14l-0.239-0.01c0.005-0.134,0.516-13.473,0.798-15.879l0.237,0.029
						C10.997,30.676,10.487,44.005,10.481,44.14z"/>
					<path fill="#333333" d="M56.164,44.987c-0.007-0.135-0.617-13.43-0.897-15.827l0.236-0.028
						c0.282,2.405,0.895,15.711,0.9,15.845L56.164,44.987z"/>
					<g>
						<path fill="#FFFFFF" d="M11.097,29.841c-0.06-1.556,0.418-4.846,1.375-5.922c0.958-1.076,8.445-4.556,7.511-3.785
							c-1.759,1.449-7.271,6.119-7.87,7.016C11.515,28.046,11.575,29.781,11.097,29.841z"/>
						<path fill="#333333" d="M10.981,29.976l-0.004-0.131c-0.056-1.438,0.39-4.862,1.405-6.004
							c0.864-0.973,7.072-3.937,7.646-3.937c0.105,0,0.138,0.069,0.146,0.091c0.037,0.105-0.063,0.187-0.116,0.23
							c-1.812,1.492-7.259,6.109-7.846,6.99c-0.276,0.414-0.408,1.022-0.523,1.56c-0.138,0.638-0.246,1.143-0.578,1.184
							L10.981,29.976z M19.637,20.265c-1.456,0.555-6.302,2.864-7.076,3.734c-0.862,0.971-1.361,3.895-1.35,5.595
							c0.097-0.187,0.174-0.542,0.245-0.869c0.12-0.557,0.257-1.19,0.558-1.642C12.588,26.222,17.6,21.953,19.637,20.265z"/>
					</g>
					<g>
						<path fill="#FFFFFF" d="M55.365,29.841c0.06-1.556-0.419-4.846-1.376-5.922s-8.444-4.556-7.51-3.785
							c1.76,1.449,7.271,6.119,7.869,7.016S54.885,29.781,55.365,29.841z"/>
						<path fill="#333333" d="M55.479,29.976l-0.129-0.017c-0.332-0.041-0.441-0.546-0.578-1.184
							c-0.117-0.537-0.248-1.146-0.523-1.56c-0.588-0.882-6.034-5.498-7.846-6.99c-0.053-0.044-0.153-0.125-0.116-0.23
							c0.008-0.021,0.042-0.091,0.147-0.091c0.572,0,6.781,2.964,7.645,3.937c1.016,1.142,1.461,4.566,1.406,6.004L55.479,29.976z
							 M46.825,20.265c2.036,1.688,7.047,5.956,7.623,6.818c0.301,0.451,0.438,1.085,0.558,1.642
							c0.069,0.327,0.147,0.683,0.245,0.869c0.01-1.7-0.488-4.624-1.352-5.595C53.125,23.129,48.28,20.82,46.825,20.265z"/>
					</g>
					<g>
						<path fill="#9F9F9F" d="M33.287,36.011c7.639,0,17.219,0.598,21.227,5.188l0.026-0.17c0,0-0.401-12.267-0.881-14.599
							c-0.514-0.633-4.447-4.195-6.73-5.969c-0.134-0.11-0.271-0.217-0.416-0.318c-0.082-0.061-0.161-0.119-0.236-0.174H46.25
							c-3.252-2.069-8.766-2.15-12.964-2.15c-4.199,0-9.713,0.081-12.964,2.15l0,0c-0.001,0.002-0.002,0.002-0.003,0.004
							c-0.313,0.199-0.607,0.416-0.875,0.654c-0.021,0.019-0.042,0.04-0.063,0.059c-2.309,1.836-5.949,5.137-6.441,5.744
							c-0.48,2.332-0.881,14.769-0.881,14.769h0C16.068,36.609,25.647,36.011,33.287,36.011z"/>
						<path fill="#333333" d="M54.592,41.471l-0.17-0.192c-3.982-4.562-13.387-5.148-21.136-5.148
							c-7.749,0-17.153,0.586-21.137,5.148l-0.093,0.105l-0.09-0.109c-0.066-0.081,0.23-6.526,0.233-6.591
							c0.213-4.52,0.423-7.304,0.623-8.276l0.006-0.029l0.018-0.023c0.486-0.599,4.147-3.924,6.46-5.761l0.017-0.017
							c0.014-0.014,0.027-0.026,0.042-0.039c0.259-0.23,0.554-0.452,0.878-0.659l0.025-0.016c3.397-2.164,9.42-2.164,13.018-2.164
							c3.587,0,9.585,0,12.999,2.151h0.029l0.031,0.022c0.076,0.054,0.155,0.113,0.238,0.175c0.13,0.091,0.264,0.193,0.42,0.321
							c2.252,1.751,6.225,5.342,6.747,5.985l0.018,0.023l0.007,0.029c0.477,2.313,0.867,14.116,0.883,14.619L54.592,41.471z
							 M33.287,35.892c7.683,0,16.986,0.577,21.132,5.023c-0.041-1.153-0.424-12.18-0.871-14.432
							c-0.586-0.693-4.473-4.201-6.691-5.928c-0.154-0.125-0.283-0.225-0.412-0.314c-0.072-0.053-0.141-0.104-0.206-0.151h-0.022
							l-0.029-0.019c-3.35-2.133-9.328-2.133-12.899-2.133c-3.572,0-9.551,0-12.9,2.133c-0.321,0.205-0.61,0.421-0.863,0.646
							l-0.06,0.057c-2.284,1.814-5.864,5.061-6.412,5.709c-0.426,2.149-0.795,12.425-0.862,14.394
							C16.353,36.465,25.626,35.892,33.287,35.892z"/>
					</g>
					<path fill="#7F7F7F" d="M33.299,35.842c6.986,0,15.562,0.821,20.208,4.229c0.487-0.831-3.004-16.447-6.089-19.139
						c-3.11-2.712-9.422-3.113-14.119-3.113S22.29,18.221,19.18,20.933c-3.084,2.691-6.577,18.308-6.088,19.139
						C17.737,36.663,26.313,35.842,33.299,35.842z"/>
					<path fill="#A7A7A7" d="M33.299,35.842c6.85,0,15.257,0.482,19.812,3.891c0.477-0.831-2.945-16.413-5.971-19.104
						c-3.049-2.712-9.236-2.809-13.842-2.809s-10.793,0.097-13.842,2.809c-3.024,2.691-6.448,18.273-5.969,19.104
						C18.042,36.324,26.45,35.842,33.299,35.842z"/>
					<g opacity="0.9">
						
							<linearGradient id="SVGID_2_" gradientUnits="userSpaceOnUse" x1="198.9575" y1="34.592" x2="198.9575" y2="21.8144" gradientTransform="matrix(-1 0 0 1 232.251 0)">
							<stop  offset="0" style="stop-color:#FBFBFB;stop-opacity:0"/>
							<stop  offset="0.3635" style="stop-color:#FBFBFB"/>
							<stop  offset="0.6426" style="stop-color:#FBFBFB;stop-opacity:0.7804"/>
							<stop  offset="1" style="stop-color:#FBFBFB;stop-opacity:0"/>
						</linearGradient>
						<path fill="url(#SVGID_2_)" d="M33.292,35.021c2.932,0,7.303,0.171,7.303,0.171s-0.941-4.309-0.05-4.536
							c2.237-0.57,10.281,2.238,10.281,2.238s-2.249-10.127-3.271-10.651s-9.926-1.436-14.264-1.436
							c-4.336,0-13.24,0.911-14.262,1.436c-1.021,0.524-3.27,10.651-3.27,10.651s8.113-2.749,10.35-2.171
							c0.877,0.228,0.018,4.469,0.018,4.469S30.362,35.021,33.292,35.021z"/>
					</g>
					<g>
						<g>
							<path d="M33.286,35.842c7.895,0,17.863,0.638,21.611,5.662c-0.16,5.741-1.436,14.831-1.596,15.629
								c-0.129,0.308-0.638,0-0.638,0s-4.466-2.871-19.378-2.871c-14.913,0-19.378,2.871-19.378,2.871s-0.509,0.308-0.638,0
								c-0.159-0.798-1.436-9.888-1.595-15.629C15.423,36.48,25.391,35.842,33.286,35.842z"/>
							<path d="M33.286,36.328c7.736,0,17.506,0.354,21.179,5.276c-0.157,5.627-1.407,14.196-1.563,14.979
								c-0.127,0.3-0.625,0-0.625,0s-4.376-2.814-18.99-2.814s-18.991,2.814-18.991,2.814s-0.499,0.3-0.625,0
								c-0.156-0.782-1.407-9.352-1.563-14.979C15.78,36.682,25.548,36.328,33.286,36.328z"/>
							<linearGradient id="SVGID_3_" gradientUnits="userSpaceOnUse" x1="13.166" y1="46.2629" x2="53.4048" y2="46.2629">
								<stop  offset="0" style="stop-color:#636668;stop-opacity:0"/>
								<stop  offset="0.1426" style="stop-color:#636668"/>
								<stop  offset="0.834" style="stop-color:#636668"/>
								<stop  offset="1" style="stop-color:#636668;stop-opacity:0"/>
							</linearGradient>
							<path opacity="0.4" fill="url(#SVGID_3_)" d="M33.286,36.837c7.35,0,16.63,0.327,20.119,4.879
								c-0.148,5.203-1.336,13.127-1.484,13.85c-0.12,0.277-0.594,0-0.594,0s-4.158-2.602-18.041-2.602
								c-13.883,0-18.041,2.602-18.041,2.602s-0.474,0.277-0.594,0c-0.147-0.723-1.336-8.646-1.484-13.85
								C16.655,37.164,25.936,36.837,33.286,36.837z"/>
							<g>
								<defs>
									<path id="SVGID_4_" d="M33.286,36.328c7.736,0,17.506,0.354,21.179,5.276c-0.157,5.627-1.407,14.196-1.563,14.979
										c-0.127,0.3-0.625,0-0.625,0s-4.376-2.814-18.99-2.814s-18.991,2.814-18.991,2.814s-0.499,0.3-0.625,0
										c-0.156-0.782-1.407-9.352-1.563-14.979C15.78,36.682,25.548,36.328,33.286,36.328z"/>
								</defs>
								<clipPath id="SVGID_5_">
									<use xlink:href="#SVGID_4_"  overflow="visible"/>
								</clipPath>
								<g opacity="0.7" clip-path="url(#SVGID_5_)">
									<linearGradient id="SVGID_6_" gradientUnits="userSpaceOnUse" x1="27.0029" y1="37.0149" x2="27.0029" y2="53.4239">
										<stop  offset="0" style="stop-color:#FFFFFF;stop-opacity:0"/>
										<stop  offset="0.4796" style="stop-color:#FFFFFF"/>
										<stop  offset="0.7347" style="stop-color:#FFFFFF"/>
										<stop  offset="1" style="stop-color:#FFFFFF;stop-opacity:0"/>
									</linearGradient>
									<rect x="25.418" y="34.598" fill="url(#SVGID_6_)" width="3.17" height="21.481"/>
									<linearGradient id="SVGID_7_" gradientUnits="userSpaceOnUse" x1="29.9844" y1="37.0149" x2="29.9844" y2="53.4239">
										<stop  offset="0" style="stop-color:#FFFFFF;stop-opacity:0"/>
										<stop  offset="0.4796" style="stop-color:#FFFFFF"/>
										<stop  offset="0.7347" style="stop-color:#FFFFFF"/>
										<stop  offset="1" style="stop-color:#FFFFFF;stop-opacity:0"/>
									</linearGradient>
									<rect x="29.472" y="34.598" fill="url(#SVGID_7_)" width="1.025" height="21.481"/>
								</g>
							</g>
						</g>
						<g>
							<path d="M23.466,38.396c0,0,0.233-0.066,0.653-0.151c0.21-0.044,0.465-0.097,0.758-0.146
								c0.292-0.051,0.623-0.112,0.985-0.167c0.363-0.046,0.755-0.096,1.171-0.148c0.416-0.057,0.855-0.097,1.311-0.129
								c0.456-0.035,0.926-0.07,1.405-0.106c0.479-0.017,0.966-0.034,1.453-0.051c0.487-0.007,0.974-0.03,1.453-0.026
								c0.48,0.005,0.951,0.021,1.408,0.03c0.456,0.013,0.896,0.026,1.315,0.038c0.417,0.018,0.812,0.058,1.176,0.086
								c0.728,0.058,1.333,0.122,1.757,0.16c0.423,0.042,0.664,0.071,0.664,0.071l-0.016,0.239c0,0-0.244,0.006-0.668,0.006
								c-0.424-0.002-1.03,0.004-1.756-0.008c-0.363-0.002-0.756-0.016-1.172-0.016c-0.415,0.004-0.854,0.01-1.307,0.015
								c-0.453,0.001-0.921,0.009-1.396,0.005c-0.476,0.001-0.958,0.027-1.441,0.039c-0.483,0.013-0.966,0.024-1.441,0.036
								c-0.475,0.024-0.941,0.048-1.394,0.071c-0.452,0.022-0.89,0.037-1.303,0.074c-0.414,0.027-0.805,0.055-1.167,0.079
								c-0.361,0.031-0.691,0.061-0.984,0.086c-0.295,0.021-0.549,0.05-0.757,0.074c-0.21,0.026-0.375,0.035-0.488,0.053
								c-0.113,0.014-0.174,0.021-0.174,0.021L23.466,38.396z"/>
							<path d="M18.885,38.146c0.032,0.516,0.398,0.359,4.604,0.029c1.724-0.135,4.091-0.157,7.345-0.398
								C19.64,37.649,18.866,37.849,18.885,38.146z"/>
							<path d="M31.91,38.05v-0.57c0,0-2.032,0.057-2.451,0.089v0.619L31.91,38.05z"/>
						</g>
						<g>
							<path d="M39.036,37.713c0,0,0.242-0.005,0.672,0.018c0.213,0.009,0.474,0.022,0.77,0.048
								c0.296,0.024,0.631,0.048,0.994,0.087c0.363,0.047,0.756,0.098,1.172,0.15c0.416,0.051,0.852,0.122,1.301,0.205
								c0.45,0.082,0.914,0.165,1.387,0.25c0.469,0.105,0.943,0.212,1.42,0.318c0.473,0.113,0.949,0.215,1.413,0.339
								c0.462,0.125,0.915,0.259,1.354,0.383c0.438,0.129,0.861,0.252,1.264,0.369c0.399,0.121,0.771,0.26,1.115,0.379
								c0.691,0.237,1.26,0.453,1.66,0.596c0.4,0.146,0.626,0.237,0.626,0.237l-0.075,0.226c0,0-0.238-0.055-0.648-0.161
								c-0.41-0.109-0.998-0.255-1.697-0.449c-0.352-0.093-0.728-0.206-1.13-0.311c-0.403-0.1-0.829-0.205-1.269-0.314
								c-0.439-0.112-0.895-0.223-1.354-0.347c-0.461-0.119-0.935-0.214-1.404-0.324c-0.471-0.109-0.941-0.22-1.404-0.328
								c-0.465-0.095-0.922-0.189-1.366-0.281c-0.443-0.092-0.871-0.186-1.28-0.256c-0.407-0.077-0.793-0.149-1.148-0.217
								c-0.357-0.061-0.686-0.116-0.976-0.165c-0.29-0.054-0.543-0.089-0.752-0.118c-0.208-0.026-0.372-0.061-0.485-0.072
								c-0.113-0.015-0.174-0.022-0.174-0.022L39.036,37.713z"/>
							<path d="M34.587,36.769c-0.067,0.512,0.321,0.431,4.511,0.919c1.719,0.2,4.046,0.635,7.285,1.028
								C35.424,36.427,34.627,36.474,34.587,36.769z"/>
							<path d="M47.295,39.502l0.144-0.552c0,0-1.981-0.457-2.395-0.53l-0.155,0.6L47.295,39.502z"/>
						</g>
					</g>
					<g>
						<g>
							<g>
								<path fill="#BBBBBB" d="M14.565,37.019c0.239-0.945,1.136-3.29,1.615-3.709c0.479-0.418,9.182-2.845,9.688-2.272
									c0.508,0.571,0.096,3.638-0.203,3.997c-0.161,0.193-2.876,0.42-5.611,1.061c-2.329,0.545-4.523,1.487-4.771,1.598
									C14.745,37.931,14.431,37.552,14.565,37.019z"/>
								<path fill="#666666" d="M14.976,37.884c-0.175,0-0.328-0.071-0.429-0.201c-0.13-0.168-0.167-0.422-0.097-0.694
									c0.226-0.89,1.135-3.316,1.652-3.769c0.458-0.4,7.54-2.39,9.359-2.39c0.267,0,0.42,0.04,0.498,0.128
									c0.556,0.627,0.142,3.74-0.201,4.152c-0.095,0.114-0.41,0.174-1.716,0.373c-1.059,0.164-2.508,0.387-3.96,0.728
									c-2.446,0.572-4.728,1.579-4.75,1.59C15.207,37.857,15.087,37.884,14.976,37.884z M25.46,31.071
									c-1.862,0-8.85,2.022-9.202,2.329c-0.442,0.387-1.341,2.714-1.578,3.648c-0.051,0.2-0.031,0.379,0.054,0.488
									c0.099,0.127,0.281,0.144,0.499,0.047c0.023-0.012,2.325-1.027,4.792-1.605c1.46-0.342,2.916-0.566,3.979-0.729
									c0.76-0.117,1.478-0.228,1.577-0.298c0.264-0.319,0.663-3.311,0.197-3.834C25.778,31.115,25.729,31.071,25.46,31.071z"/>
							</g>
							<g>
								<linearGradient id="SVGID_8_" gradientUnits="userSpaceOnUse" x1="20.291" y1="32.7693" x2="20.4106" y2="34.5637">
									<stop  offset="0" style="stop-color:#323232"/>
									<stop  offset="1" style="stop-color:#141414"/>
								</linearGradient>
								<path fill="url(#SVGID_8_)" d="M15.447,36.362c0.211-0.747,0.617-2.337,1.039-2.669s8.274-2.562,8.722-2.107
									c0.447,0.453,0.084,2.609-0.18,2.894c-0.142,0.154-2.538,0.435-4.949,0.942c-2.054,0.432-3.991,1.248-4.209,1.334
									C15.395,36.945,15.328,36.785,15.447,36.362z"/>
								<path d="M15.561,36.954c-0.124,0-0.192-0.055-0.227-0.101c-0.076-0.101-0.077-0.258-0.002-0.524l0.064-0.229
									c0.305-1.102,0.635-2.201,1.016-2.502c0.45-0.354,6.998-2.193,8.498-2.193c0.2,0,0.317,0.029,0.383,0.096
									c0.496,0.502,0.145,2.712-0.177,3.059c-0.093,0.101-0.43,0.165-1.83,0.397c-0.908,0.151-2.039,0.34-3.183,0.581
									c-1.239,0.261-2.707,0.724-4.132,1.305l-0.057,0.023C15.765,36.926,15.652,36.954,15.561,36.954z M24.909,31.644
									c-1.6,0-8.053,1.91-8.35,2.144c-0.352,0.276-0.73,1.644-0.933,2.377l-0.064,0.23c-0.075,0.269-0.039,0.313-0.037,0.315
									c0.005,0.004,0.071,0.026,0.301-0.066l0.055-0.022c1.438-0.586,2.92-1.054,4.173-1.317c1.149-0.242,2.283-0.43,3.193-0.583
									c0.823-0.136,1.6-0.265,1.703-0.332c0.221-0.239,0.568-2.318,0.173-2.72l0,0C25.122,31.669,25.079,31.644,24.909,31.644z"/>
							</g>
						</g>
						<g>
							<g>
								
									<rect x="16.144" y="33.639" transform="matrix(0.9595 0.2817 -0.2817 0.9595 10.6066 -3.1515)" fill="#111111" width="0.239" height="3.344"/>
								
									<rect x="16.743" y="33.421" transform="matrix(0.9608 0.2774 -0.2774 0.9608 10.397 -3.3006)" fill="#111111" width="0.239" height="3.344"/>
								
									<rect x="17.319" y="33.217" transform="matrix(0.9608 0.2774 -0.2774 0.9608 10.3631 -3.4684)" fill="#111111" width="0.239" height="3.344"/>
								
									<rect x="17.929" y="33.023" transform="matrix(0.9629 0.2699 -0.2699 0.9629 10.0206 -3.585)" fill="#111111" width="0.239" height="3.258"/>
								
									<rect x="18.539" y="32.861" transform="matrix(0.9664 0.2569 -0.2569 0.9664 9.4761 -3.6373)" fill="#111111" width="0.239" height="3.176"/>
								
									<rect x="19.15" y="32.658" transform="matrix(0.9694 0.2454 -0.2454 0.9694 9.0022 -3.6807)" fill="#111111" width="0.239" height="3.242"/>
								
									<rect x="19.76" y="32.481" transform="matrix(0.9653 0.2612 -0.2612 0.9653 9.609 -4.0075)" fill="#111111" width="0.239" height="3.325"/>
								
									<rect x="20.354" y="32.398" transform="matrix(0.9754 0.2204 -0.2204 0.9754 7.9944 -3.6763)" fill="#111111" width="0.239" height="3.185"/>
								
									<rect x="20.896" y="32.31" transform="matrix(0.9838 0.1792 -0.1792 0.9838 6.4148 -3.2181)" fill="#111111" width="0.24" height="3.158"/>
								
									<rect x="21.455" y="32.256" transform="matrix(0.9915 0.1303 -0.1303 0.9915 4.5841 -2.5232)" fill="#111111" width="0.24" height="3.03"/>
								
									<rect x="24.849" y="31.645" transform="matrix(0.9996 0.0286 -0.0286 0.9996 0.9561 -0.6996)" fill="#111111" width="0.239" height="2.954"/>
								
									<rect x="24.358" y="31.642" transform="matrix(0.9981 0.0612 -0.0612 0.9981 2.0772 -1.4366)" fill="#111111" width="0.239" height="3.061"/>
								
									<rect x="23.85" y="31.642" transform="matrix(0.9981 0.0611 -0.0611 0.9981 2.0751 -1.4027)" fill="#111111" width="0.24" height="3.162"/>
								
									<rect x="23.29" y="31.845" transform="matrix(0.9976 0.0694 -0.0694 0.9976 2.3702 -1.5434)" fill="#111111" width="0.239" height="3.028"/>
								
									<rect x="22.68" y="31.978" transform="matrix(0.9956 0.0938 -0.0938 0.9956 3.2456 -1.9918)" fill="#111111" width="0.239" height="3.068"/>
								
									<rect x="22.07" y="32.079" transform="matrix(0.996 0.0898 -0.0898 0.996 3.1081 -1.8568)" fill="#111111" width="0.239" height="3.068"/>
							</g>
							<path fill="#111111" d="M15.594,37.073c-0.124,0-0.192-0.054-0.227-0.1c-0.077-0.102-0.077-0.258-0.002-0.524l0.065-0.234
								c0.305-1.099,0.634-2.196,1.015-2.497c0.451-0.354,6.999-2.193,8.498-2.193c0.199,0,0.318,0.03,0.383,0.096
								c0.496,0.503,0.146,2.713-0.177,3.06c-0.093,0.1-0.43,0.165-1.83,0.397c-0.908,0.15-2.039,0.339-3.183,0.58
								c-1.237,0.261-2.703,0.723-4.129,1.305l-0.06,0.024C15.799,37.045,15.684,37.073,15.594,37.073z M24.942,31.764
								c-1.6,0-8.052,1.909-8.349,2.143c-0.351,0.276-0.729,1.641-0.933,2.372l-0.065,0.236c-0.076,0.269-0.039,0.312-0.038,0.314
								c0.005,0.004,0.071,0.026,0.3-0.064l0.059-0.023c1.438-0.588,2.92-1.055,4.169-1.318c1.149-0.242,2.283-0.43,3.193-0.582
								c0.823-0.137,1.6-0.266,1.703-0.332c0.221-0.24,0.568-2.319,0.173-2.72l0,0C25.154,31.789,25.112,31.764,24.942,31.764z"/>
						</g>
					</g>
					<g>
						<g>
							<g>
								<path fill="#BBBBBB" d="M52.155,37.019c-0.239-0.945-1.137-3.29-1.615-3.709c-0.479-0.418-9.182-2.845-9.689-2.272
									c-0.508,0.571-0.096,3.503,0.204,3.862c0.161,0.193,2.877,0.419,5.611,1.06c2.329,0.545,4.524,1.487,4.771,1.598
									C51.975,37.796,52.29,37.552,52.155,37.019z"/>
								<path fill="#666666" d="M51.809,37.767L51.809,37.767c-0.127,0-0.268-0.033-0.421-0.102c-0.022-0.01-2.304-1.018-4.749-1.59
									c-1.452-0.34-2.902-0.564-3.961-0.727c-1.307-0.2-1.621-0.26-1.717-0.373c-0.341-0.41-0.758-3.389-0.2-4.018
									c0.078-0.088,0.231-0.128,0.498-0.128c1.819,0,8.901,1.989,9.359,2.39c0.517,0.452,1.427,2.879,1.651,3.769
									c0.082,0.321,0.007,0.506-0.07,0.605C52.112,37.708,51.976,37.767,51.809,37.767z M41.259,31.071
									c-0.269,0-0.317,0.044-0.319,0.046c-0.467,0.525-0.066,3.38,0.206,3.705c0.091,0.063,0.809,0.174,1.569,0.291
									c1.062,0.164,2.518,0.388,3.978,0.73c2.468,0.577,4.77,1.594,4.792,1.604c0.242,0.107,0.442,0.107,0.525,0
									c0.063-0.081,0.073-0.223,0.028-0.399c-0.237-0.935-1.136-3.262-1.577-3.648C50.11,33.093,43.122,31.071,41.259,31.071z"/>
							</g>
							<g>
								<path fill="#1E1E1E" d="M51.273,36.362c-0.21-0.747-0.616-2.337-1.039-2.669c-0.422-0.332-8.274-2.562-8.722-2.107
									c-0.447,0.453-0.084,2.609,0.18,2.894c0.143,0.154,2.537,0.435,4.949,0.942c2.055,0.432,3.99,1.248,4.209,1.334
									C51.325,36.945,51.392,36.785,51.273,36.362z"/>
								<path d="M51.159,36.954c-0.091,0-0.203-0.028-0.354-0.087l-0.057-0.024c-1.426-0.581-2.893-1.044-4.132-1.305
									c-1.144-0.241-2.274-0.43-3.183-0.581c-1.4-0.232-1.736-0.297-1.83-0.397c-0.321-0.347-0.672-2.557-0.177-3.059
									c0.065-0.066,0.185-0.096,0.384-0.096c1.499,0,8.047,1.839,8.497,2.193c0.382,0.301,0.711,1.4,1.017,2.502l0.063,0.229
									c0.074,0.267,0.073,0.424-0.003,0.524C51.351,36.9,51.284,36.954,51.159,36.954z M41.811,31.644
									c-0.175,0-0.215,0.026-0.217,0.027c-0.393,0.399-0.045,2.479,0.186,2.727c0.094,0.059,0.871,0.188,1.693,0.323
									c0.91,0.153,2.044,0.341,3.193,0.583c1.252,0.264,2.734,0.731,4.172,1.317l0.057,0.022c0.229,0.093,0.295,0.07,0.3,0.066
									c0.001-0.002,0.038-0.047-0.037-0.315l-0.064-0.23c-0.203-0.733-0.581-2.101-0.933-2.377
									C49.864,33.554,43.411,31.644,41.811,31.644z"/>
							</g>
						</g>
						<g>
							
								<rect x="48.818" y="35.072" transform="matrix(0.2819 0.9594 -0.9594 0.2819 70.0189 -23.1719)" width="3.343" height="0.239"/>
							
								<rect x="48.218" y="34.854" transform="matrix(0.2816 0.9595 -0.9595 0.2816 69.3998 -22.7463)" width="3.343" height="0.238"/>
							
								<rect x="47.642" y="34.65" transform="matrix(0.2816 0.9595 -0.9595 0.2816 68.7905 -22.3397)" width="3.343" height="0.239"/>
							
								<rect x="47.074" y="34.412" transform="matrix(0.2685 0.9633 -0.9633 0.2685 68.8928 -21.6543)" width="3.259" height="0.239"/>
							
								<rect x="46.505" y="34.21" transform="matrix(0.2539 0.9672 -0.9672 0.2539 69.0883 -20.9036)" width="3.177" height="0.238"/>
							
								<rect x="45.862" y="34.04" transform="matrix(0.2486 0.9686 -0.9686 0.2486 68.7681 -20.3239)" width="3.241" height="0.239"/>
							
								<rect x="45.211" y="33.904" transform="matrix(0.2631 0.9648 -0.9648 0.2631 67.3637 -20.151)" width="3.325" height="0.239"/>
							
								<rect x="44.688" y="33.752" transform="matrix(0.2214 0.9752 -0.9752 0.2214 69.0637 -18.7593)" width="3.185" height="0.238"/>
							
								<rect x="44.159" y="33.649" transform="matrix(0.1806 0.9836 -0.9836 0.1806 70.693 -17.3144)" width="3.158" height="0.24"/>
							
								<rect x="43.662" y="33.531" transform="matrix(0.1318 0.9913 -0.9913 0.1318 72.5822 -15.5671)" width="3.031" height="0.239"/>
							
								<rect x="40.307" y="32.883" transform="matrix(0.0298 0.9996 -0.9996 0.0298 73.5283 -9.7446)" width="2.953" height="0.24"/>
							
								<rect x="40.746" y="32.934" transform="matrix(0.0619 0.9981 -0.9981 0.0619 72.6459 -11.1881)" width="3.059" height="0.239"/>
							
								<rect x="41.203" y="32.984" transform="matrix(0.0596 0.9982 -0.9982 0.0596 73.2762 -11.5778)" width="3.16" height="0.239"/>
							
								<rect x="41.828" y="33.12" transform="matrix(0.0735 0.9973 -0.9973 0.0735 73.3044 -12.4298)" width="3.028" height="0.239"/>
							
								<rect x="42.418" y="33.273" transform="matrix(0.0948 0.9955 -0.9955 0.0948 73.026 -13.5291)" width="3.069" height="0.239"/>
							
								<rect x="43.029" y="33.374" transform="matrix(0.0945 0.9955 -0.9955 0.0945 73.6951 -14.036)" width="3.068" height="0.239"/>
						</g>
					</g>
					<g>
						<path fill="#DFDFDF" d="M47.141,20.628c-3.049-2.712-9.236-2.809-13.842-2.809s-10.793,0.097-13.842,2.809
							c-0.189,0.168-0.381,0.389-0.572,0.652c0.624,0.419,6.838-1.207,14.415-1.127c7.577-0.08,13.791,1.546,14.415,1.127
							C47.523,21.017,47.333,20.796,47.141,20.628z"/>
						<g>
							<path fill="#191919" d="M46.314,20.023c0.001-0.002,0.001-0.005,0.003-0.009c-3.243-2.112-8.803-2.194-13.03-2.194
								c-4.218,0-9.762,0.081-13.008,2.18c0.002,0.008,0.004,0.017,0.006,0.023c-0.914,1.025,5.266-0.848,13.014-0.768
								C41.047,19.175,47.227,21.048,46.314,20.023z"/>
							<path d="M45.969,20.45c-0.486,0-1.33-0.117-2.496-0.277c-2.396-0.332-6.064-0.839-10.172-0.799
								c-0.164-0.001-0.326-0.002-0.486-0.002c-3.91,0-7.388,0.481-9.69,0.801c-1.167,0.16-2.01,0.277-2.496,0.277
								c-0.226,0-0.466-0.021-0.536-0.176c-0.048-0.108,0.011-0.214,0.061-0.279l-0.013-0.047l0.073-0.05
								c3.402-2.199,9.456-2.199,13.073-2.199c3.626,0,9.695,0,13.095,2.215l0.076,0.049l-0.01,0.034
								c0.049,0.065,0.105,0.171,0.058,0.277C46.45,20.4,46.293,20.45,45.969,20.45z M33.784,19.133
								c3.927,0,7.414,0.482,9.723,0.803c1.156,0.16,1.992,0.275,2.463,0.275c0.201,0,0.28-0.021,0.309-0.034
								c-0.007-0.015-0.021-0.038-0.053-0.074l-0.014-0.014c-3.348-2.15-9.34-2.15-12.925-2.15c-3.565,0-9.514,0-12.87,2.114
								l-0.042,0.05c-0.032,0.036-0.046,0.06-0.053,0.074c0.029,0.013,0.107,0.034,0.308,0.034c0.47,0,1.306-0.115,2.463-0.275
								c2.403-0.333,6.087-0.845,10.209-0.801C33.46,19.133,33.624,19.133,33.784,19.133z"/>
						</g>
						<g>
							<path fill="#333333" d="M21.574,19.909l-0.065-0.229c0.049-0.015,4.929-1.382,11.791-1.382s11.658,1.367,11.706,1.382
								l-0.067,0.229c-0.047-0.014-4.812-1.373-11.639-1.373C26.471,18.536,21.623,19.896,21.574,19.909z"/>
							<rect x="21.422" y="19.327" fill="#333333" width="0.239" height="0.934"/>
							
								<rect x="44.83" y="19.329" transform="matrix(0.9993 0.0367 -0.0367 0.9993 0.757 -1.6367)" fill="#333333" width="0.239" height="0.933"/>
						</g>
						<path d="M45.969,20.45c-0.486,0-1.33-0.117-2.496-0.277c-2.396-0.332-6.064-0.839-10.172-0.799
							c-0.164-0.001-0.326-0.002-0.486-0.002c-3.91,0-7.388,0.481-9.69,0.801c-1.167,0.16-2.01,0.277-2.496,0.277
							c-0.226,0-0.466-0.021-0.536-0.176c-0.048-0.108,0.011-0.214,0.061-0.279l-0.013-0.047l0.073-0.05
							c3.402-2.199,9.456-2.199,13.073-2.199c3.626,0,9.695,0,13.095,2.215l0.076,0.049l-0.01,0.034
							c0.049,0.065,0.105,0.171,0.058,0.277C46.45,20.4,46.293,20.45,45.969,20.45z M33.784,19.133c3.927,0,7.414,0.482,9.723,0.803
							c1.156,0.16,1.992,0.275,2.463,0.275c0.201,0,0.28-0.021,0.309-0.034c-0.007-0.015-0.021-0.038-0.053-0.074l-0.014-0.014
							c-3.348-2.15-9.34-2.15-12.925-2.15c-3.565,0-9.514,0-12.87,2.114l-0.042,0.05c-0.032,0.036-0.046,0.06-0.053,0.074
							c0.029,0.013,0.107,0.034,0.308,0.034c0.47,0,1.306-0.115,2.463-0.275c2.403-0.333,6.087-0.845,10.209-0.801
							C33.46,19.133,33.624,19.133,33.784,19.133z"/>
						<g>
							<ellipse fill="#D0D0D0" cx="33.299" cy="18.417" rx="1.256" ry="0.358"/>
							<path d="M33.299,18.896c-0.511,0-1.375-0.101-1.375-0.479c0-0.377,0.865-0.479,1.375-0.479c0.512,0,1.376,0.102,1.376,0.479
								C34.675,18.795,33.811,18.896,33.299,18.896z M33.299,18.179c-0.74,0-1.113,0.174-1.137,0.242
								c0.023,0.062,0.396,0.236,1.137,0.236s1.113-0.174,1.137-0.243C34.413,18.353,34.04,18.179,33.299,18.179z"/>
						</g>
					</g>
					<g>
						<path d="M12.113,72.245c0.24-0.547,0.264-1.316,0.264-1.316s0.3-10.645,0.3-12.439s-1.531-15.59-2.208-15.631
							c-0.32,0.32-0.31,5.124-0.31,5.124s0.359,21.274,0.359,22.799C10.519,71.328,11.815,72.929,12.113,72.245z"/>
						<path fill="#171D23" d="M11.889,71.606c0.164-0.512,0.181-1.261,0.181-1.261s0.206-9.932,0.206-11.605
							s-1.254-14.951-1.718-14.989c-0.219,0.298-0.009,5.188-0.009,5.188s0.247,20.118,0.247,21.54
							C10.795,70.988,11.685,72.243,11.889,71.606z"/>
						<polygon points="12.275,58.928 10.923,57.834 10.923,56.923 12.239,57.993 						"/>
					</g>
					<g>
						<path d="M54.473,72.245c-0.24-0.547-0.264-1.316-0.264-1.316s-0.301-10.645-0.301-12.439s1.531-15.59,2.209-15.631
							c0.318,0.32,0.309,5.124,0.309,5.124s-0.359,21.274-0.359,22.799C56.067,71.328,54.77,72.929,54.473,72.245z"/>
						<path fill="#171D23" d="M54.697,71.606c-0.163-0.512-0.181-1.261-0.181-1.261S54.31,60.413,54.31,58.74
							s1.253-14.951,1.718-14.989c0.219,0.298,0.01,5.188,0.01,5.188s-0.246,20.118-0.246,21.54
							C55.792,70.988,54.901,72.243,54.697,71.606z"/>
						<polygon points="54.311,58.928 55.663,57.834 55.663,56.923 54.346,57.993 						"/>
					</g>
					<g>
						<path d="M4.569,50.624c0,0-0.435-0.54-0.035-1.07c0.659-0.873,4.08-1.83,4.581-1.316l0.005,1.121L4.569,50.624z"/>
						<path fill="#0C0C0C" d="M10.588,47.515c0.832-0.093,1.366,2.262,1.087,3.848c-0.279,1.195-0.788-1.516-1.834-1.516
							c-1.944,0-3.708,0.567-4.875,1.256c-0.359-0.06-0.33-0.479-0.33-0.479s0.411-0.748,4.479-1.465v-0.922
							C10.139,48.208,10.454,47.532,10.588,47.515z"/>
						<path fill="#BCEAFF" d="M4.966,51.103c0,0,0.073,0.357,2.212-0.209c2.14-0.566,1.937-1.021,1.937-1.021
							S7.299,49.847,4.966,51.103z"/>
					</g>
					<path fill="#CBCBCB" d="M13.443,26.808c0.305-0.479,3.21-3.223,4.434-4.346c-2.255,3.788-4.249,10.486-5.2,17.271
						L13.443,26.808z"/>
					<path fill="#CBCBCB" d="M53.159,26.808c-0.305-0.479-3.211-3.223-4.434-4.346c2.254,3.788,4.248,10.486,5.199,17.271
						L53.159,26.808z"/>
					<g>
						<path d="M61.922,50.624c0,0,0.436-0.54,0.035-1.07c-0.658-0.873-4.08-1.83-4.58-1.316l-0.006,1.121L61.922,50.624z"/>
						<path fill="#0C0C0C" d="M55.905,47.515c-0.832-0.093-1.366,2.262-1.088,3.848c0.28,1.195,0.788-1.516,1.835-1.516
							c1.944,0,3.708,0.567,4.874,1.256c0.359-0.06,0.33-0.479,0.33-0.479s-0.412-0.748-4.479-1.465v-0.922
							C56.353,48.208,56.039,47.532,55.905,47.515z"/>
						<path fill="#BCEAFF" d="M61.526,51.103c0,0-0.072,0.357-2.213-0.209c-2.14-0.566-1.936-1.021-1.936-1.021
							S59.194,49.847,61.526,51.103z"/>
					</g>
				</g>
				<g>
					<path fill="#7A7A7A" d="M33.268,58.01c3.008,0,6.155,0.224,9.062,0.591c0-0.008,0-2.15,0-3.225
						c-1.375-0.179-3.888-0.358-9.066-0.358c-5.18,0-7.692,0.18-9.068,0.358c0,1.077,0,3.226,0,3.226h0
						C27.106,58.234,30.256,58.01,33.268,58.01z"/>
					<path fill="#A9A9A9" d="M24.196,55.376c0,0,6.458,0.379,9.089,0.379c2.473,0,9.045-0.379,9.045-0.379
						c-1.375-0.179-3.888-0.358-9.066-0.358C28.084,55.018,25.572,55.198,24.196,55.376z"/>
					<path fill="#232323" d="M24.196,55.376l0.556,2.391c0,0,4.137-0.497,8.457-0.497c4.32,0,8.568,0.366,8.568,0.366l0.553-2.26
						l0.005,3.226c0,0-5.306-0.592-9.071-0.592c-3.766,0-9.068,0.616-9.068,0.616V55.376z"/>
				</g>
				<g>
					<linearGradient id="SVGID_9_" gradientUnits="userSpaceOnUse" x1="33.2632" y1="76.2112" x2="33.2632" y2="56.6675">
						<stop  offset="0" style="stop-color:#D7D7D7"/>
						<stop  offset="0.3305" style="stop-color:#B6B6B6"/>
						<stop  offset="1" style="stop-color:#636162"/>
					</linearGradient>
					<path fill="url(#SVGID_9_)" d="M33.264,77.688l19.822,0.001c0,0,0.213-16.369-0.584-16.711
						c-3.352-1.581-11.727-2.968-19.238-2.968c-7.512,0-15.887,1.387-19.239,2.968c-0.797,0.342-0.583,16.711-0.583,16.711
						L33.264,77.688"/>
					<path fill="#232323" d="M53.205,77.807H13.323l-0.002-0.117c-0.05-3.859-0.151-16.476,0.657-16.822
						c3.538-1.668,12.011-2.978,19.286-2.978s15.748,1.31,19.289,2.979c0.805,0.345,0.703,12.961,0.652,16.82L53.205,77.807z
						 M33.264,58.13c-7.245,0-15.673,1.298-19.188,2.955c-0.523,0.432-0.595,10.287-0.518,16.482h19.706h19.705
						c0.078-6.195,0.006-16.051-0.521-16.484C48.937,59.428,40.509,58.13,33.264,58.13z"/>
				</g>
				<linearGradient id="SVGID_10_" gradientUnits="userSpaceOnUse" x1="33.2632" y1="76.8479" x2="33.2632" y2="61.1161">
					<stop  offset="0" style="stop-color:#FBFBFB;stop-opacity:0"/>
					<stop  offset="0.3635" style="stop-color:#FBFBFB"/>
					<stop  offset="0.6426" style="stop-color:#FBFBFB;stop-opacity:0.7804"/>
					<stop  offset="1" style="stop-color:#FBFBFB;stop-opacity:0"/>
				</linearGradient>
				<path opacity="0.8" fill="url(#SVGID_10_)" d="M33.264,77.585h17.84c0,0,0.191-14.732-0.525-15.039
					c-3.018-1.423-10.555-2.672-17.314-2.672c-6.761,0-14.299,1.249-17.315,2.672c-0.718,0.307-0.526,15.039-0.526,15.039H33.264"/>
				<g>
					<path fill-rule="evenodd" clip-rule="evenodd" fill="#0F0F0F" d="M42.375,77.688c0,0-0.896-1.198-1.493-1.198
						c-0.599,0-7.596,0-7.596,0s-6.998,0-7.596,0c-0.598,0-1.493,1.198-1.493,1.198H42.375z"/>
					<path fill="#1E1E1E" d="M42.614,77.807H23.958l0.143-0.19c0.095-0.129,0.949-1.247,1.589-1.247h15.192
						c0.64,0,1.494,1.118,1.589,1.247L42.614,77.807z M24.443,77.568h17.684c-0.314-0.377-0.877-0.959-1.246-0.959H25.689
						C25.32,76.609,24.757,77.191,24.443,77.568z"/>
				</g>
				<path fill="#232323" d="M25.51,55.018"/>
				<g>
					<linearGradient id="SVGID_11_" gradientUnits="userSpaceOnUse" x1="18.6245" y1="58.5867" x2="18.6245" y2="55.5549">
						<stop  offset="0" style="stop-color:#A9A9A9"/>
						<stop  offset="1" style="stop-color:#A9A9A9;stop-opacity:0"/>
					</linearGradient>
					<path fill="url(#SVGID_11_)" d="M13.517,60.578v-2.88c1.467-0.775,6.258-2.169,10.147-2.424l0.067,2.837
						C23.732,58.112,17.137,58.928,13.517,60.578z"/>
					<linearGradient id="SVGID_12_" gradientUnits="userSpaceOnUse" x1="47.8872" y1="58.5867" x2="47.8872" y2="55.5549">
						<stop  offset="0" style="stop-color:#A9A9A9"/>
						<stop  offset="1" style="stop-color:#A9A9A9;stop-opacity:0"/>
					</linearGradient>
					<path fill="url(#SVGID_12_)" d="M52.995,60.578v-2.88c-1.468-0.775-6.258-2.169-10.148-2.424l-0.066,2.837
						C42.78,58.112,49.374,58.928,52.995,60.578z"/>
				</g>
				<path fill="#6D6D6D" d="M12.275,27.606c0,0-0.874,13.038-0.857,14.991c0.017,1.954-0.657,0-0.657,0l0.605-12.479
					C11.794,29.838,12.275,27.606,12.275,27.606z"/>
				<path fill="#6D6D6D" d="M54.229,27.606c0,0,0.875,13.038,0.858,14.991c-0.018,1.954,0.657,0,0.657,0l-0.605-12.479
					C54.711,29.838,54.229,27.606,54.229,27.606z"/>
			</g>
			<path fill="#212121" d="M33.278,17.341c14.659,0,19.25,3.947,21.219,5.463c1.9,1.465,2.703,17.228,2.775,25.426
				c0.035,0.004,0.068,0.007,0.105,0.008c0.098-0.1,0.305-0.145,0.582-0.145c1.146,0,3.468,0.758,3.998,1.461
				c0.4,0.53-0.035,1.07-0.035,1.07l-0.084-0.023c0.012,0.016,0.018,0.023,0.018,0.023s-0.225,0.467-1.229,0.467
				c-0.341,0-0.771-0.054-1.313-0.197c-2.135-0.565-1.938-1.02-1.936-1.021c-0.035-0.002-0.071-0.003-0.106-0.005
				c-0.063,1.304-0.376,1.804-0.376,1.804l0.18,26.018H9.481l0.18-26.018c0,0-0.314-0.502-0.376-1.808
				c-0.057,0.004-0.113,0.006-0.169,0.009c0.001,0.002,0.199,0.456-1.937,1.021c-0.542,0.144-0.972,0.197-1.313,0.197
				c-1.004,0-1.229-0.467-1.229-0.467s0.005-0.008,0.018-0.023l-0.085,0.023c0,0-0.435-0.54-0.035-1.07
				c0.531-0.703,2.852-1.461,3.998-1.461c0.277,0,0.485,0.045,0.583,0.145c0.059-0.002,0.114-0.006,0.168-0.011
				c0.073-8.2,0.875-23.959,2.775-25.423C14.027,21.288,18.619,17.341,33.278,17.341 M33.278,15.906
				c-14.677,0-19.738,3.932-21.9,5.609l-0.194,0.152c-0.784,0.604-1.294,1.852-1.76,4.307c-0.329,1.735-0.622,4.054-0.868,6.891
				c-0.412,4.743-0.62,10.004-0.688,13.844c-1.432,0.189-3.67,0.908-4.479,1.981c-0.738,0.978-0.485,2.153,0.062,2.834l0.592,0.736
				l0.27-0.075c0.401,0.206,0.917,0.341,1.553,0.341c0.501,0,1.067-0.082,1.681-0.245c0.243-0.063,0.468-0.129,0.676-0.195
				L8.046,77.678l-0.01,1.445h1.445h47.593h1.444l-0.01-1.445l-0.177-25.573c0.191,0.06,0.395,0.119,0.613,0.176
				c0.613,0.163,1.18,0.245,1.681,0.245c0.636,0,1.151-0.135,1.554-0.341l0.27,0.075l0.592-0.736
				c0.547-0.681,0.799-1.856,0.062-2.834c-0.799-1.058-2.982-1.771-4.416-1.974C58.62,42.877,58.413,37.615,58,32.868
				c-0.247-2.839-0.539-5.157-0.868-6.895c-0.466-2.455-0.976-3.702-1.76-4.307l-0.196-0.152
				C53.014,19.837,47.954,15.906,33.278,15.906L33.278,15.906z"/>
		</g>
		<path fill-rule="evenodd" clip-rule="evenodd" fill="none" stroke="#3F3F3F" stroke-width="3" stroke-miterlimit="10" d="
			M12.951,76.49"/>
		<g>
			<g>
				<g>
					<linearGradient id="SVGID_13_" gradientUnits="userSpaceOnUse" x1="33.2974" y1="79.885" x2="33.2974" y2="128.325">
						<stop  offset="0" style="stop-color:#DF0000"/>
						<stop  offset="1" style="stop-color:#A00404"/>
					</linearGradient>
					<path fill-rule="evenodd" clip-rule="evenodd" fill="url(#SVGID_13_)" d="M58.366,132.958c0,0.525-0.43,0.956-0.957,0.956
						H9.185c-0.526,0-0.957-0.431-0.957-0.956V78.882c0-0.525,0.431-0.957,0.957-0.957h48.224c0.527,0,0.957,0.432,0.957,0.957
						V132.958z"/>
					<path fill="#6D0000" d="M57.409,134.274H9.185c-0.726,0-1.316-0.591-1.316-1.315V78.882c0-0.725,0.59-1.316,1.316-1.316h48.224
						c0.727,0,1.316,0.592,1.316,1.316v54.076C58.725,133.683,58.135,134.274,57.409,134.274z M9.185,78.284
						c-0.33,0-0.599,0.268-0.599,0.598v54.076c0,0.33,0.269,0.597,0.599,0.597h48.224c0.33,0,0.6-0.267,0.6-0.597V78.882
						c0-0.33-0.27-0.598-0.6-0.598H9.185z"/>
				</g>
				<path fill-rule="evenodd" clip-rule="evenodd" fill="#700000" d="M52.461,103.511c0,0.264-0.215,0.479-0.479,0.479H14.587
					c-0.263,0-0.478-0.215-0.478-0.479V84.96c0-0.264,0.215-0.479,0.478-0.479h37.396c0.264,0,0.479,0.215,0.479,0.479V103.511z"/>
				<g>
					<linearGradient id="SVGID_14_" gradientUnits="userSpaceOnUse" x1="33.2856" y1="85.3801" x2="33.2856" y2="100.0304">
						<stop  offset="0" style="stop-color:#DF0000"/>
						<stop  offset="1" style="stop-color:#A00404"/>
					</linearGradient>
					<path fill-rule="evenodd" clip-rule="evenodd" fill="url(#SVGID_14_)" d="M51.445,102.216c0,0.264-0.216,0.479-0.479,0.479
						H15.604c-0.263,0-0.479-0.216-0.479-0.479V84.83c0-0.263,0.215-0.479,0.479-0.479h35.362c0.263,0,0.479,0.216,0.479,0.479
						V102.216z"/>
					<path fill="#A80000" d="M50.966,103.054H15.604c-0.461,0-0.837-0.376-0.837-0.838V84.83c0-0.462,0.376-0.837,0.837-0.837
						h35.362c0.462,0,0.837,0.375,0.837,0.837v17.386C51.803,102.678,51.428,103.054,50.966,103.054z M15.604,84.711
						c-0.065,0-0.12,0.055-0.12,0.119v17.386c0,0.065,0.055,0.12,0.12,0.12h35.362c0.065,0,0.12-0.055,0.12-0.12V84.83
						c0-0.064-0.055-0.119-0.12-0.119H15.604z"/>
				</g>
				<g>
					<linearGradient id="SVGID_15_" gradientUnits="userSpaceOnUse" x1="33.2856" y1="98.6213" x2="33.2856" y2="108.4945">
						<stop  offset="0" style="stop-color:#DF0000"/>
						<stop  offset="1" style="stop-color:#A00404"/>
					</linearGradient>
					<path fill-rule="evenodd" clip-rule="evenodd" fill="url(#SVGID_15_)" d="M49.629,101.81c0,0.263-0.216,0.479-0.479,0.479
						H17.42c-0.263,0-0.478-0.216-0.478-0.479V85.238c0-0.264,0.215-0.479,0.478-0.479h31.731c0.263,0,0.479,0.215,0.479,0.479
						V101.81z"/>
					<path opacity="0.4" fill-rule="evenodd" clip-rule="evenodd" fill="#FFFFFF" d="M17.542,100.894
						c0.002-0.48,0.034-14.263,0.034-14.263s-0.242-1.011,0.957-1.011c1.595,0,28.873-0.086,29.985,0
						c-1.037,0.205-28.629-0.002-29.905,1.116C17.336,87.853,17.775,100.134,17.542,100.894z"/>
				</g>
				<linearGradient id="SVGID_16_" gradientUnits="userSpaceOnUse" x1="33.2915" y1="98.7971" x2="33.2915" y2="101.6241">
					<stop  offset="0" style="stop-color:#DF0000"/>
					<stop  offset="1" style="stop-color:#A00404"/>
				</linearGradient>
				<path fill-rule="evenodd" clip-rule="evenodd" fill="url(#SVGID_16_)" d="M48.956,100.951c0,0.395-0.323,0.717-0.718,0.717
					H18.344c-0.395,0-0.718-0.322-0.718-0.717v-1.497c0-0.395,0.323-0.718,0.718-0.718h29.894c0.395,0,0.718,0.323,0.718,0.718
					V100.951z"/>
				<g>
					<g>
						<path fill-rule="evenodd" clip-rule="evenodd" fill="#FFFFFF" d="M15.918,110.221c-0.724-2.574-0.832-5.163-0.316-7.767
							c1.755-8.812,9.448-14.86,18.484-14.54c8.661,0.304,15.925,7.001,17.073,15.738c1.33,10.12-6.207,19.444-16.391,20.21
							c-4.353,0.328-8.509-0.396-12.245-2.797c-2.587-1.66-4.484-3.89-5.183-6.972c-1.157-5.054,2.925-12.043,10.583-10.413
							c3.146,0.666,5.384,3.548,5.41,6.748c0.028,3.175-2.098,6.032-5.063,6.798c-0.954,0.241-1.906,0.303-2.93-0.051
							c1.044-0.938,1.49-2.054,1.315-3.381c-0.258-1.918-2.005-3.35-3.931-3.258c-1.872,0.083-3.561,1.843-3.661,3.853
							c-0.109,2.199,0.915,3.877,2.654,5.071c6.136,4.214,14.432,1.193,16.379-5.883c1.199-4.368,0.351-8.279-3.087-11.357
							c-3.378-3.024-7.339-3.977-11.628-2.268c-4.301,1.715-6.789,4.984-7.379,9.627C15.977,109.797,15.943,110.004,15.918,110.221z
							"/>
					</g>
					<g>
						<path fill-rule="evenodd" clip-rule="evenodd" fill="#3F3F3F" d="M51.16,103.653c-1.148-8.737-8.412-15.435-17.073-15.738
							c-9.037-0.32-16.729,5.729-18.484,14.54c-0.102,0.513-0.172,1.023-0.225,1.535h2.712c1.249-1.762,3.006-3.125,5.292-4.036
							c4.29-1.709,8.25-0.757,11.628,2.268c0.628,0.562,1.167,1.153,1.626,1.769h14.551
							C51.173,103.876,51.174,103.766,51.16,103.653z"/>
						<path fill-rule="evenodd" clip-rule="evenodd" fill="#3F3F3F" d="M22.692,103.99h6.232c-0.323-0.125-0.654-0.235-1-0.309
							C25.924,103.255,24.174,103.427,22.692,103.99z"/>
					</g>
					<path fill-rule="evenodd" clip-rule="evenodd" fill="#CCCCCC" d="M15.563,102.687c-0.025,0.136-0.047,0.271-0.069,0.407h3.316
						c1-1.126,2.255-2.049,3.76-2.761c0.268-0.14,0.537-0.271,0.811-0.38c4.29-1.709,8.25-0.757,11.628,2.268
						c0.303,0.271,0.577,0.55,0.84,0.834l15.208,0.021c-0.021-0.129-0.044-0.257-0.067-0.385l-0.001-0.001
						c-0.191-1.03-0.469-2.028-0.823-2.987c-0.002-0.005-0.003-0.009-0.005-0.014c-0.175-0.471-0.368-0.932-0.578-1.383
						c-0.008-0.015-0.015-0.03-0.022-0.046c-0.206-0.438-0.43-0.866-0.668-1.284c-0.017-0.029-0.033-0.058-0.05-0.086
						c-0.232-0.401-0.48-0.794-0.741-1.175c-0.03-0.044-0.062-0.088-0.093-0.132c-0.253-0.362-0.518-0.715-0.795-1.056
						c-0.049-0.061-0.1-0.118-0.148-0.178c-0.268-0.32-0.543-0.632-0.83-0.933c-0.072-0.075-0.146-0.146-0.219-0.22
						c-0.275-0.278-0.557-0.549-0.849-0.809c-0.098-0.087-0.2-0.168-0.3-0.253c-0.277-0.236-0.559-0.468-0.851-0.687
						c-0.127-0.096-0.259-0.184-0.389-0.276c-0.275-0.195-0.553-0.389-0.839-0.569c-0.16-0.1-0.325-0.19-0.488-0.285
						c-0.269-0.157-0.536-0.315-0.813-0.458c-0.194-0.101-0.395-0.188-0.593-0.281c-0.257-0.121-0.513-0.246-0.776-0.354
						c-0.23-0.096-0.468-0.175-0.703-0.26c-0.242-0.089-0.482-0.183-0.729-0.261c-0.271-0.085-0.549-0.151-0.824-0.223
						c-0.222-0.058-0.439-0.125-0.664-0.174c-0.328-0.072-0.664-0.122-0.999-0.175c-0.18-0.028-0.355-0.068-0.536-0.092
						c-0.52-0.065-1.046-0.109-1.577-0.128c-9.037-0.32-16.729,5.729-18.484,14.54C15.586,102.532,15.577,102.61,15.563,102.687
						L15.563,102.687z"/>
					<path fill-rule="evenodd" clip-rule="evenodd" fill="#FFFFFF" d="M49.629,101.81v-3.402
						c-2.783-6.042-8.723-10.254-15.543-10.493c-7.552-0.268-14.151,3.922-17.145,10.446v3.449c0,0.263,0.215,0.479,0.478,0.479
						h2.176c1.049-0.954,2.301-1.743,3.785-2.335c4.29-1.709,8.25-0.757,11.628,2.268c0.024,0.022,0.046,0.045,0.07,0.067h14.071
						C49.414,102.288,49.629,102.073,49.629,101.81z"/>
					<linearGradient id="SVGID_17_" gradientUnits="userSpaceOnUse" x1="33.2915" y1="98.5784" x2="33.2915" y2="101.7542">
						<stop  offset="0" style="stop-color:#000000;stop-opacity:0"/>
						<stop  offset="1" style="stop-color:#000404;stop-opacity:0.4"/>
					</linearGradient>
					<path fill-rule="evenodd" clip-rule="evenodd" fill="url(#SVGID_17_)" d="M48.956,100.951v-1.497
						c0-0.395-0.323-0.718-0.718-0.718H18.344c-0.395,0-0.718,0.323-0.718,0.718v1.497c0,0.395,0.323,0.717,0.718,0.717h1.987
						c0.889-0.678,1.9-1.256,3.05-1.715c4.016-1.6,7.744-0.867,10.975,1.715h13.882C48.632,101.668,48.956,101.346,48.956,100.951z"
						/>
				</g>
			</g>
			<g opacity="0.3">
				<path fill-rule="evenodd" clip-rule="evenodd" fill="#FFFFFF" d="M10.458,129.846c0.737-0.718,1.818-46.419,1.818-47.974
					c0-1.556-2.116-1.795-2.116-1.795L10.458,129.846z"/>
				<path fill-rule="evenodd" clip-rule="evenodd" fill="#FFFFFF" d="M56.029,129.846c-0.736-0.718-1.817-46.419-1.817-47.974
					c0-1.556,2.117-1.795,2.117-1.795L56.029,129.846z"/>
			</g>
			<g>
				<linearGradient id="SVGID_18_" gradientUnits="userSpaceOnUse" x1="33.2446" y1="80.4963" x2="33.2446" y2="81.6341">
					<stop  offset="0" style="stop-color:#700000;stop-opacity:0"/>
					<stop  offset="1" style="stop-color:#700000"/>
				</linearGradient>
				<path opacity="0.5" fill-rule="evenodd" clip-rule="evenodd" fill="url(#SVGID_18_)" d="M12.275,81.872
					c0,0.038,0,0.119-0.001,0.238h41.939c-0.002-0.119-0.002-0.2-0.002-0.238c0-1.556,2.117-1.795,2.117-1.795H10.159
					C10.159,80.077,12.275,80.317,12.275,81.872z"/>
			</g>
			<path fill-rule="evenodd" clip-rule="evenodd" fill="#870000" d="M8.745,133.203c-0.291,0-0.528-0.431-0.528-0.958V78.644
				c0-0.526,0.431-0.956,0.957-0.956h48.223c0.527,0,0.957,0.43,0.957,0.956v53.602c0,0.527-0.24,0.958-0.535,0.958
				s-0.536-0.431-0.536-0.958V80.054c0-0.527-0.431-0.957-0.957-0.957H10.229c-0.526,0-0.957,0.43-0.957,0.957v52.191
				C9.273,132.773,9.035,133.203,8.745,133.203z"/>
			<path fill="#490000" d="M57.397,134.632H9.174c-0.924,0-1.675-0.752-1.675-1.674V78.882c0-0.923,0.751-1.674,1.675-1.674h48.223
				c0.924,0,1.676,0.751,1.676,1.674v54.076C59.073,133.88,58.321,134.632,57.397,134.632z M9.174,78.644
				c-0.13,0-0.24,0.108-0.24,0.238v54.076c0,0.129,0.11,0.238,0.24,0.238h48.223c0.131,0,0.24-0.109,0.24-0.238V78.882
				c0-0.13-0.109-0.238-0.24-0.238H9.174z"/>
		</g>
	</g>
</g>
</svg>
