<?xml version="1.0" encoding="utf-8"?>
<!-- Generator: Adobe Illustrator 16.2.1, SVG Export Plug-In . SVG Version: 6.00 Build 0)  -->
<!DOCTYPE svg PUBLIC "-//W3C//DTD SVG 1.1//EN" "http://www.w3.org/Graphics/SVG/1.1/DTD/svg11.dtd">
<svg version="1.1" id="Layer_1" xmlns="http://www.w3.org/2000/svg" xmlns:xlink="http://www.w3.org/1999/xlink" 
	 viewBox="0 0 47.035 47.161" enable-background="new 0 0 47.035 47.161" xml:space="preserve">
<g>
	<linearGradient id="SVGID_1_" gradientUnits="userSpaceOnUse" x1="18.3652" y1="1.354" x2="27.1404" y2="39.8895">
		<stop  offset="0.0018" style="stop-color:#8BBB44"/>
		<stop  offset="1" style="stop-color:#6A872A"/>
	</linearGradient>
	<path fill="url(#SVGID_1_)" d="M45.82,24.589c0-1.565-0.979-2.894-2.354-3.43c0.061-0.201,0.104-0.411,0.104-0.633
		c0-0.119-0.017-0.233-0.035-0.347c0.482-0.467,0.785-1.117,0.785-1.841c0-0.679-0.269-1.292-0.699-1.75
		c0.431-0.458,0.699-1.071,0.699-1.75c0-0.958-0.531-1.782-1.31-2.222c0.771-0.348,1.31-1.119,1.31-2.02
		c0-0.301-0.062-0.586-0.17-0.848c1.477-0.504,0.445-1.694,0.445-2.684c0-0.378-0.111-0.8-0.332-1.177
		c0.157-0.312,0.254-0.66,0.254-1.033c0-1.277-1.035-2.312-2.312-2.312c-0.743,0-1.397,0.357-1.82,0.902
		c-0.404-0.545-1.046-0.902-1.776-0.902c-0.68,0-1.281,0.312-1.688,0.795c-0.406-0.482-1.007-0.795-1.688-0.795
		c-0.782,0-1.466,0.408-1.86,1.02c-0.415-0.615-1.119-1.02-1.918-1.02c-0.906,0-1.682,0.525-2.062,1.285
		c-0.263-0.292-0.64-0.479-1.063-0.479c-0.075,0-0.148,0.011-0.221,0.022c-0.555-1.334-1.869-2.272-3.404-2.272
		c-1.083,0-2.048,0.476-2.723,1.22c-0.371-0.29-0.832-0.47-1.34-0.47c-0.382,0-0.735,0.106-1.048,0.278
		c-0.345-0.173-0.728-0.278-1.14-0.278c-0.679,0-1.291,0.269-1.75,0.699c-0.458-0.431-1.071-0.699-1.75-0.699
		c-1.104,0-2.036,0.702-2.396,1.682c-0.397-0.596-1.074-0.988-1.844-0.988c-0.602,0-1.146,0.242-1.545,0.631
		C8.482,2.372,7.473,1.851,6.332,1.851c-2.071,0-3.75,1.679-3.75,3.75c0,0.808,0.261,1.551,0.694,2.162
		C3.012,8.126,2.844,8.564,2.844,9.048c0,0.68,0.312,1.281,0.795,1.688c-0.482,0.406-0.795,1.008-0.795,1.688
		c0,0.782,0.408,1.467,1.02,1.86c-0.615,0.415-1.02,1.12-1.02,1.918c0,0.886,0.506,1.642,1.238,2.029v0.085
		c-0.263,0.26-0.432,0.613-0.432,1.011c0,0.075,0.011,0.148,0.022,0.221C2.339,20.103,1.4,21.417,1.4,22.952
		c0,1.083,0.476,2.048,1.22,2.724c-0.29,0.371-0.47,0.832-0.47,1.339c0,0.382,0.106,0.735,0.278,1.048
		c-0.173,0.345-0.278,0.729-0.278,1.14c0,0.679,0.269,1.292,0.699,1.75c-0.431,0.458-0.699,1.071-0.699,1.75
		c0,1.104,0.702,2.036,1.682,2.397c-0.596,0.396-0.988,1.074-0.988,1.844c0,0.602,0.242,1.145,0.631,1.544
		c-0.804,0.688-1.324,1.697-1.324,2.839c0,2.07,1.679,3.75,3.75,3.75c0.818,0,1.57-0.27,2.187-0.715
		c0.132,0.024,0.266,0.041,0.404,0.041c0.681,0,1.281-0.312,1.688-0.795c0.406,0.482,1.008,0.795,1.688,0.795
		c0.544,0,1.036-0.203,1.422-0.529c0.247,0.097,0.513,0.154,0.794,0.154c0.365,0,0.704-0.098,1.007-0.256
		c0.311,0.91,1.163,1.568,2.179,1.568c0.92,0,1.708-0.541,2.08-1.318c0.726,1.145,1.996,1.911,3.452,1.911
		c1.722,0,3.189-1.065,3.794-2.571c0.467,0.629,1.208,1.041,2.051,1.041c0.679,0,1.292-0.269,1.75-0.699
		c0.459,0.431,1.071,0.699,1.75,0.699c0.848,0,1.594-0.416,2.06-1.051h0.304c0.391,0.629,1.083,1.051,1.878,1.051
		c0.301,0,0.587-0.062,0.849-0.17c0.503,1.477,3.996,1.177,5.319,0.196c2.25-1.667,1.563-3.822,0.961-4.24
		c0.488-0.406,0.806-1.01,0.806-1.695c0-0.68-0.312-1.281-0.795-1.688c0.482-0.406,0.795-1.008,0.795-1.688
		c0-0.744-0.371-1.4-0.934-1.803c0.672-0.404,1.127-1.133,1.127-1.976c0-0.939-0.562-1.744-1.367-2.106
		c0.262-0.26,0.424-0.62,0.424-1.019c0-0.075-0.011-0.148-0.022-0.222C44.882,27.438,45.82,26.125,45.82,24.589z"/>
	<g>
		<path fill="#B6CC5C" d="M2.294,26.255c0.047,0.001,0.093,0.005,0.14,0.007c-0.008-0.076-0.008-0.155-0.012-0.233
			C2.382,26.106,2.325,26.173,2.294,26.255z"/>
		<path fill="#B6CC5C" d="M42.205,2.544c-0.743,0-1.397,0.357-1.82,0.902c-0.404-0.545-1.046-0.902-1.776-0.902
			c-0.68,0-1.281,0.312-1.688,0.795c-0.406-0.482-1.007-0.795-1.688-0.795c-0.782,0-1.466,0.408-1.86,1.02
			c-0.415-0.615-1.119-1.02-1.918-1.02c-0.906,0-1.682,0.525-2.062,1.285c-0.263-0.292-0.64-0.479-1.063-0.479
			c-0.075,0-0.148,0.011-0.221,0.022c-0.555-1.334-1.869-2.272-3.404-2.272c-1.083,0-2.048,0.476-2.723,1.22
			c-0.371-0.29-0.832-0.47-1.34-0.47c-0.382,0-0.735,0.106-1.048,0.278c-0.345-0.173-0.728-0.278-1.14-0.278
			c-0.679,0-1.291,0.269-1.75,0.699c-0.458-0.431-1.071-0.699-1.75-0.699c-1.104,0-2.036,0.702-2.396,1.682
			c-0.397-0.596-1.074-0.988-1.844-0.988c-0.602,0-1.146,0.242-1.545,0.631C8.482,2.372,7.473,1.851,6.332,1.851
			c-2.071,0-3.75,1.679-3.75,3.75c0,0.808,0.261,1.551,0.694,2.162C3.012,8.126,2.844,8.564,2.844,9.048
			c0,0.68,0.312,1.281,0.795,1.688c-0.482,0.406-0.795,1.008-0.795,1.688c0,0.782,0.408,1.467,1.02,1.86
			c-0.615,0.415-1.02,1.12-1.02,1.918c0,0.886,0.506,1.642,1.238,2.029v0.085c-0.263,0.26-0.432,0.613-0.432,1.011
			c0,0.075,0.011,0.148,0.022,0.221C2.339,20.103,1.4,21.417,1.4,22.952c0,0.974,0.398,1.84,1.017,2.499
			c-0.63-1.935,0.017-5.216,3.287-5.216c-0.157-0.361-0.246-0.759-0.246-1.178c0-0.489,0.129-0.944,0.343-1.349
			c0.957-1.267,2.548-1.987,4.224-1.711c0.225,0.037,0.437,0.105,0.646,0.176c-0.459-0.528-1.086-0.91-1.828-1.032
			c-1.222-0.202-2.384,0.343-3.051,1.291c-0.211-0.616-0.334-1.273-0.334-1.961c0-0.765,0.146-1.494,0.403-2.167
			c0.003,0.011,0.003,0.022,0.006,0.034c0.087-0.262,0.198-0.512,0.322-0.752c0.036-0.066,0.076-0.131,0.114-0.195
			c0.078-0.136,0.163-0.266,0.252-0.393c0.063-0.091,0.125-0.183,0.192-0.27c1.049-1.319,2.701-2.118,4.51-1.977
			c0.101,0.008,0.198,0.025,0.296,0.042c-0.442,0.844-0.542,1.86-0.166,2.816c0.125,0.316,0.302,0.592,0.503,0.846
			c-0.282-2.143,0.896-4.283,2.999-5.111c0.23-0.09,0.468-0.143,0.702-0.197c-0.724-0.234-1.524-0.243-2.286,0.057
			c-0.712,0.28-1.265,0.778-1.638,1.383c-0.537-0.403-1.18-0.676-1.899-0.732c-1.271-0.1-2.441,0.455-3.185,1.379
			C6.506,8.972,6.453,8.699,6.453,8.411c0-1.645,1.334-2.978,2.979-2.978c0.791,0,1.506,0.313,2.039,0.817
			c0.464-0.5,1.12-0.817,1.855-0.817c0.804,0,1.511,0.38,1.977,0.963c0.458-1.009,1.469-1.713,2.648-1.713
			c0.75,0,1.426,0.291,1.942,0.756c0.537-0.905,1.515-1.519,2.644-1.519c0.926,0,1.746,0.416,2.312,1.062
			c0.455-0.193,0.955-0.3,1.479-0.3c1.247,0,2.341,0.61,3.03,1.539c0.006,0.036,0.019,0.075,0.025,0.112
			c-1.472,0.27-2.645,1.482-2.775,3.045c-0.028,0.34,0.009,0.665,0.077,0.981c0.695-2.046,2.699-3.444,4.95-3.257
			c0.247,0.021,0.483,0.078,0.717,0.133c-0.545-0.529-1.259-0.893-2.075-0.96c-0.159-0.013-0.313-0.001-0.469,0.008
			c0.793-1.979,3.075-2.316,4.483-0.37c0.019-0.95-0.371-1.574-0.938-1.923c0.061-0.002,0.118-0.013,0.179-0.013
			c1.302,0,2.465,0.562,3.286,1.446c0.539-0.897,0.929-0.993,2.052-0.993c0.599,0,1.36,0.871,1.834,1.167
			c0.562-0.748,1.825-2.444,2.833-2.444c0.087,0,0.169,0.019,0.253,0.025C43.376,2.789,42.82,2.544,42.205,2.544z"/>
	</g>
	<path fill="#547723" d="M43.555,12.266c0.467-0.406,0.766-1.001,0.766-1.668c0-0.029-0.008-0.057-0.009-0.086
		c-0.04,0.157-0.061,0.309-0.118,0.471C44.034,11.429,43.816,11.859,43.555,12.266z"/>
	<path fill="#547723" d="M45.903,24.589c0-1.565-0.979-2.894-2.354-3.43c0.061-0.201,0.104-0.411,0.104-0.633
		c0-0.119-0.017-0.233-0.035-0.347c0.482-0.467,0.785-1.117,0.785-1.841c0-0.679-0.269-1.292-0.699-1.75
		c0.431-0.458,0.699-1.071,0.699-1.75c0-0.873-0.453-1.62-1.121-2.081c-0.812,1.045-1.926,1.887-3.144,2.344
		c-0.013,0.088-0.028,0.175-0.056,0.267c-0.146,0.48-0.479,0.911-0.896,1.231c-0.012,0.041-0.019,0.062-0.03,0.103
		c0.771,0.452,1.128,1.354,0.848,2.424c-0.252,0.965-0.953,1.828-1.828,2.354c0.642,0.456,0.954,1.275,0.759,2.228
		c-0.169,0.827-0.69,1.573-1.375,2.09c0.506,0.478,0.766,1.202,0.64,2.038c-0.09,0.596-0.372,1.144-0.759,1.602
		c0.438,0.739,0.657,1.655,0.563,2.662c-0.058,0.623-0.233,1.219-0.495,1.771c1.07,0.299,1.86,1.271,1.86,2.437
		c0,1.404-1.138,2.542-2.542,2.542c-1.271,0-2.314-0.935-2.502-2.153c-0.425,0.141-0.863,0.245-1.322,0.265
		c-1.422,0.062-2.643-0.52-3.426-1.463c-0.522,0.518-1.207,0.867-1.944,0.926c-0.944,0.075-1.746-0.335-2.185-1.028
		c-0.521,1.258-1.688,2.237-3.028,2.391c-0.824,0.094-1.555-0.146-2.09-0.606c-0.578,0.605-1.327,1.04-2.148,1.159
		c-0.497,0.072-0.958,0.009-1.37-0.141c-0.383,0.271-0.813,0.475-1.275,0.551c-0.613,0.102-1.167-0.023-1.611-0.303
		c-0.833,1.063-1.994,1.864-3.306,2.131c-1.857,0.378-3.479-0.401-4.16-1.92c-0.089,0.035-0.179,0.068-0.272,0.09
		c-0.521,0.12-2.388,0.032-2.713-0.26c-0.766,0.891-1.159,2.226-1.172,2.229c-0.034,0.2-0.069,0.4-0.069,0.61
		c0,2.07,1.679,3.75,3.75,3.75c0.818,0,1.57-0.27,2.187-0.715c0.132,0.024,0.266,0.041,0.404,0.041c0.681,0,1.281-0.312,1.688-0.795
		c0.406,0.482,1.008,0.795,1.688,0.795c0.544,0,1.036-0.203,1.422-0.529c0.247,0.097,0.513,0.154,0.794,0.154
		c0.365,0,0.704-0.098,1.007-0.256c0.311,0.91,1.163,1.568,2.179,1.568c0.92,0,1.708-0.541,2.08-1.318
		c0.726,1.145,1.996,1.911,3.452,1.911c1.722,0,3.189-1.065,3.794-2.571c0.467,0.629,1.208,1.041,2.051,1.041
		c0.679,0,1.292-0.269,1.75-0.699c0.459,0.431,1.071,0.699,1.75,0.699c0.848,0,1.594-0.416,2.06-1.051h0.304
		c0.391,0.629,1.083,1.051,1.878,1.051c0.301,0,0.587-0.062,0.849-0.17c0.503,1.477,3.996,1.177,5.319,0.196
		c2.25-1.667,1.563-3.822,0.961-4.24c0.488-0.406,0.806-1.01,0.806-1.695c0-0.68-0.312-1.281-0.795-1.688
		c0.482-0.406,0.795-1.008,0.795-1.688c0-0.744-0.371-1.4-0.934-1.803c0.672-0.404,1.127-1.133,1.127-1.976
		c0-0.939-0.562-1.744-1.367-2.106c0.262-0.26,0.424-0.62,0.424-1.019c0-0.075-0.011-0.148-0.022-0.222
		C44.965,27.438,45.903,26.125,45.903,24.589z"/>
	<path fill="none" stroke="#375917" stroke-width="2" stroke-miterlimit="10" d="M45.82,24.589c0-1.565-0.979-2.894-2.354-3.43
		c0.061-0.201,0.104-0.411,0.104-0.633c0-0.119-0.017-0.233-0.035-0.347c0.482-0.467,0.785-1.117,0.785-1.841
		c0-0.679-0.269-1.292-0.699-1.75c0.431-0.458,0.699-1.071,0.699-1.75c0-0.958-0.531-1.782-1.31-2.222
		c0.771-0.348,1.31-1.119,1.31-2.02c0-0.301-0.062-0.586-0.17-0.848c1.477-0.504,0.445-1.694,0.445-2.684
		c0-0.378-0.111-0.8-0.332-1.177c0.157-0.312,0.254-0.66,0.254-1.033c0-1.277-1.035-2.312-2.312-2.312
		c-0.743,0-1.397,0.357-1.82,0.902c-0.404-0.545-1.046-0.902-1.776-0.902c-0.68,0-1.281,0.312-1.688,0.795
		c-0.406-0.482-1.007-0.795-1.688-0.795c-0.782,0-1.466,0.408-1.86,1.02c-0.415-0.615-1.119-1.02-1.918-1.02
		c-0.906,0-1.682,0.525-2.062,1.285c-0.263-0.292-0.64-0.479-1.063-0.479c-0.075,0-0.148,0.011-0.221,0.022
		c-0.555-1.334-1.869-2.272-3.404-2.272c-1.083,0-2.048,0.476-2.723,1.22c-0.371-0.29-0.832-0.47-1.34-0.47
		c-0.382,0-0.735,0.106-1.048,0.278c-0.345-0.173-0.728-0.278-1.14-0.278c-0.679,0-1.291,0.269-1.75,0.699
		c-0.458-0.431-1.071-0.699-1.75-0.699c-1.104,0-2.036,0.702-2.396,1.682c-0.397-0.596-1.074-0.988-1.844-0.988
		c-0.602,0-1.146,0.242-1.545,0.631C8.482,2.372,7.473,1.851,6.332,1.851c-2.071,0-3.75,1.679-3.75,3.75
		c0,0.808,0.261,1.551,0.694,2.162C3.012,8.126,2.844,8.564,2.844,9.048c0,0.68,0.312,1.281,0.795,1.688
		c-0.482,0.406-0.795,1.008-0.795,1.688c0,0.782,0.408,1.467,1.02,1.86c-0.615,0.415-1.02,1.12-1.02,1.918
		c0,0.886,0.506,1.642,1.238,2.029v0.085c-0.263,0.26-0.432,0.613-0.432,1.011c0,0.075,0.011,0.148,0.022,0.221
		C2.339,20.103,1.4,21.417,1.4,22.952c0,1.083,0.476,2.048,1.22,2.724c-0.29,0.371-0.47,0.832-0.47,1.339
		c0,0.382,0.106,0.735,0.278,1.048c-0.173,0.345-0.278,0.729-0.278,1.14c0,0.679,0.269,1.292,0.699,1.75
		c-0.431,0.458-0.699,1.071-0.699,1.75c0,1.104,0.702,2.036,1.682,2.397c-0.596,0.396-0.988,1.074-0.988,1.844
		c0,0.602,0.242,1.145,0.631,1.544c-0.804,0.688-1.324,1.697-1.324,2.839c0,2.07,1.679,3.75,3.75,3.75
		c0.818,0,1.57-0.27,2.187-0.715c0.132,0.024,0.266,0.041,0.404,0.041c0.681,0,1.281-0.312,1.688-0.795
		c0.406,0.482,1.008,0.795,1.688,0.795c0.544,0,1.036-0.203,1.422-0.529c0.247,0.097,0.513,0.154,0.794,0.154
		c0.365,0,0.704-0.098,1.007-0.256c0.311,0.91,1.163,1.568,2.179,1.568c0.92,0,1.708-0.541,2.08-1.318
		c0.726,1.145,1.996,1.911,3.452,1.911c1.722,0,3.189-1.065,3.794-2.571c0.467,0.629,1.208,1.041,2.051,1.041
		c0.679,0,1.292-0.269,1.75-0.699c0.459,0.431,1.071,0.699,1.75,0.699c0.848,0,1.594-0.416,2.06-1.051h0.304
		c0.391,0.629,1.083,1.051,1.878,1.051c0.301,0,0.587-0.062,0.849-0.17c0.503,1.477,3.996,1.177,5.319,0.196
		c2.25-1.667,1.563-3.822,0.961-4.24c0.488-0.406,0.806-1.01,0.806-1.695c0-0.68-0.312-1.281-0.795-1.688
		c0.482-0.406,0.795-1.008,0.795-1.688c0-0.744-0.371-1.4-0.934-1.803c0.672-0.404,1.127-1.133,1.127-1.976
		c0-0.939-0.562-1.744-1.367-2.106c0.262-0.26,0.424-0.62,0.424-1.019c0-0.075-0.011-0.148-0.022-0.222
		C44.882,27.438,45.82,26.125,45.82,24.589z"/>
</g>
</svg>
