<?xml version="1.0" encoding="utf-8"?>
<!-- Generator: Adobe Illustrator 16.2.1, SVG Export Plug-In . SVG Version: 6.00 Build 0)  -->
<!DOCTYPE svg PUBLIC "-//W3C//DTD SVG 1.1//EN" "http://www.w3.org/Graphics/SVG/1.1/DTD/svg11.dtd">
<svg version="1.1" id="Layer_1" xmlns="http://www.w3.org/2000/svg" xmlns:xlink="http://www.w3.org/1999/xlink" x="0px" y="0px"
	 width="98.57px" height="115.912px" viewBox="0 0 98.57 115.912" enable-background="new 0 0 98.57 115.912" xml:space="preserve">
<g>
	<radialGradient id="SVGID_1_" cx="37.9521" cy="49.4121" r="104.0022" gradientUnits="userSpaceOnUse">
		<stop  offset="0.0861" style="stop-color:#8BC53F"/>
		<stop  offset="1" style="stop-color:#009345"/>
	</radialGradient>
	<path fill="url(#SVGID_1_)" stroke="#006838" stroke-width="3" stroke-miterlimit="10" d="M52.82,22.912
		c-13.75,0-48.25-4.75-51.25,35.75c-1.5,21.75,21.25,54.75,37.75,54.5c3.145,0,4.25-1.75,6.75-1.75s5,3,11,3s40-19.75,40-56.25
		c0-28.25-25.176-37.75-30.5-37.75S52.82,22.912,52.82,22.912z"/>
	<path opacity="0.3" fill="#006838" d="M90.934,36.693c0.018,0.469,0.036,0.938,0.036,1.41c0,28.029-22.722,50.751-50.751,50.751
		c-14.48,0-27.527-6.078-36.771-15.808c5.685,19.479,22.749,40.314,35.873,40.115c3.145,0,4.25-1.75,6.75-1.75s5,3,11,3
		s40-19.75,40-56.25C97.07,49.226,94.547,42.17,90.934,36.693z"/>
	<radialGradient id="SVGID_2_" cx="83.6191" cy="38.9121" r="80.9585" gradientUnits="userSpaceOnUse">
		<stop  offset="0" style="stop-color:#EE4036"/>
		<stop  offset="1" style="stop-color:#EE4036;stop-opacity:0"/>
	</radialGradient>
	<path opacity="0.6" fill="url(#SVGID_2_)" d="M52.82,22.912c-13.75,0-48.25-4.75-51.25,35.75c-1.5,21.75,21.25,54.75,37.75,54.5
		c3.145,0,4.25-1.75,6.75-1.75s5,3,11,3s40-19.75,40-56.25c0-28.25-25.176-37.75-30.5-37.75S52.82,22.912,52.82,22.912z"/>
	<path fill="none" stroke="#006838" stroke-width="3" stroke-miterlimit="10" d="M52.82,22.912c-13.75,0-48.25-4.75-51.25,35.75
		c-1.5,21.75,21.25,54.75,37.75,54.5c3.145,0,4.25-1.75,6.75-1.75s5,3,11,3s40-19.75,40-56.25c0-28.25-25.176-37.75-30.5-37.75
		S52.82,22.912,52.82,22.912z"/>
	<g>
		<path fill="#603813" stroke="#3B2314" stroke-width="3" stroke-miterlimit="10" d="M61.098,1.71
			c-1.445-0.465-2.846-0.133-3.129,0.743c-0.047,0.147-0.049,0.301-0.03,0.456c-0.89,2.232-4.493,11.316-5.368,14.086
			c-1,3.167-1.75,14.667-1.75,14.667l2.416,1c0,0,2-11.333,3.168-15.126C57.441,14.164,62,6.216,63,4.49
			c0.088-0.105,0.162-0.22,0.204-0.35C63.486,3.264,62.543,2.176,61.098,1.71z"/>
		<path fill="#603813" stroke="#3B2314" stroke-miterlimit="10" d="M58.138,2.411c0,0-4.567,11.418-5.567,14.585
			s-1.75,12.667-1.75,12.667l2.416,1c0,0,2-9.333,3.168-13.126c1.166-3.793,6.8-13.396,6.8-13.396L58.138,2.411z"/>
		
			<ellipse transform="matrix(0.9518 0.3066 -0.3066 0.9518 3.9293 -18.4184)" fill="#9F6A3C" stroke="#3B2314" stroke-miterlimit="10" cx="60.586" cy="3.297" rx="2.75" ry="1.667"/>
		<g>
			<path fill="#006838" d="M40.57,29.995c0,0,1.635,0.273,4.011,0.795c1.183,0.258,2.562,0.56,4.04,0.883
				c1.474,0.312,3.031,0.643,4.592,0.899c0.754,0.098,1.593,0.248,2.268,0.31c0.857,0.035,1.452,0.064,2.145-0.053
				c0.684-0.085,1.333-0.27,1.945-0.477c0.604-0.228,1.17-0.486,1.676-0.771c0.499-0.294,0.961-0.58,1.347-0.869
				c0.39-0.285,0.722-0.554,0.989-0.785c0.537-0.461,0.822-0.766,0.822-0.766s-0.14,0.393-0.518,1.021
				c-0.379,0.623-0.999,1.49-1.975,2.334c-0.24,0.216-0.516,0.41-0.791,0.629c-0.295,0.188-0.6,0.391-0.934,0.565
				c-0.667,0.343-1.407,0.686-2.229,0.847c-0.396,0.113-0.841,0.164-1.291,0.215c-0.479,0.077-0.819,0.035-1.236,0.04
				c-0.918-0.053-1.686-0.177-2.543-0.268c-0.822-0.153-1.627-0.346-2.428-0.516c-0.796-0.18-1.55-0.449-2.294-0.659
				c-0.744-0.209-1.434-0.5-2.098-0.737c-0.667-0.231-1.275-0.511-1.841-0.755c-1.133-0.483-2.043-0.966-2.678-1.31
				C40.918,30.219,40.57,29.995,40.57,29.995z"/>
		</g>
	</g>
</g>
<linearGradient id="SVGID_3_" gradientUnits="userSpaceOnUse" x1="48.5698" y1="31.5059" x2="48.5698" y2="68.6385">
	<stop  offset="0" style="stop-color:#FFFFFF;stop-opacity:0.3"/>
	<stop  offset="1" style="stop-color:#FFFFFF;stop-opacity:0"/>
</linearGradient>
<path fill="url(#SVGID_3_)" d="M88.07,53.408c0,8.254-14,15.895-39.5,15.895c-29.91,0-39.5-4.641-39.5-15.641
	c0-29.5,31.319-16.5,42.215-16.5C63.254,37.162,88.07,31.307,88.07,53.408z"/>
</svg>
