<?xml version="1.0" encoding="utf-8"?>
<!-- Generator: Adobe Illustrator 16.0.0, SVG Export Plug-In . SVG Version: 6.00 Build 0)  -->
<!DOCTYPE svg PUBLIC "-//W3C//DTD SVG 1.1//EN" "http://www.w3.org/Graphics/SVG/1.1/DTD/svg11.dtd">
<svg version="1.1" id="Layer_1" xmlns="http://www.w3.org/2000/svg" xmlns:xlink="http://www.w3.org/1999/xlink" x="0px" y="0px"
	 width="52.221px" height="61.333px" viewBox="0 0 52.221 61.333" enable-background="new 0 0 52.221 61.333" xml:space="preserve">
<g>
	<g>
		<radialGradient id="SVGID_1_" cx="20.1548" cy="26.1772" r="54.6503" gradientUnits="userSpaceOnUse">
			<stop  offset="0.0861" style="stop-color:#8BC53F"/>
			<stop  offset="1" style="stop-color:#009345"/>
		</radialGradient>
		<path fill="url(#SVGID_1_)" d="M27.968,12.252c-7.225,0-25.354-2.496-26.931,18.786c-0.789,11.429,11.167,28.77,19.837,28.639
			c1.652,0,2.233-0.92,3.547-0.92c1.313,0,2.628,1.576,5.78,1.576S51.22,49.955,51.22,30.774c0-14.844-13.229-19.836-16.026-19.836
			S27.968,12.252,27.968,12.252z"/>
		<path opacity="0.3" fill="#006838" d="M47.995,19.493c0.01,0.246,0.02,0.493,0.02,0.741c0,14.729-11.939,26.669-26.668,26.669
			c-7.609,0-14.465-3.194-19.323-8.307C5.01,48.833,13.978,59.78,20.874,59.677c1.652,0,2.233-0.92,3.547-0.92
			c1.313,0,2.628,1.576,5.78,1.576S51.22,49.955,51.22,30.774C51.22,26.079,49.895,22.371,47.995,19.493z"/>
		<radialGradient id="SVGID_2_" cx="44.1514" cy="20.6597" r="42.5417" gradientUnits="userSpaceOnUse">
			<stop  offset="0" style="stop-color:#EE4036"/>
			<stop  offset="1" style="stop-color:#EE4036;stop-opacity:0"/>
		</radialGradient>
		<path opacity="0.6" fill="url(#SVGID_2_)" d="M27.968,12.252c-7.225,0-25.354-2.496-26.931,18.786
			c-0.789,11.429,11.167,28.77,19.837,28.639c1.652,0,2.233-0.92,3.547-0.92c1.313,0,2.628,1.576,5.78,1.576
			S51.22,49.955,51.22,30.774c0-14.844-13.229-19.836-16.026-19.836S27.968,12.252,27.968,12.252z"/>
		<path fill="none" stroke="#006838" stroke-width="2" stroke-miterlimit="10" d="M27.968,12.252
			c-7.225,0-25.354-2.496-26.931,18.786c-0.789,11.429,11.167,28.77,19.837,28.639c1.652,0,2.233-0.92,3.547-0.92
			c1.313,0,2.628,1.576,5.78,1.576S51.22,49.955,51.22,30.774c0-14.844-13.229-19.836-16.026-19.836S27.968,12.252,27.968,12.252z"
			/>
		<g>
			<path fill="#603813" stroke="#3B2314" stroke-width="2" stroke-miterlimit="10" d="M32.317,1.11
				c-0.759-0.244-1.495-0.069-1.644,0.391c-0.025,0.078-0.025,0.158-0.017,0.24c-0.468,1.173-2.36,5.945-2.821,7.402
				c-0.525,1.663-0.919,7.706-0.919,7.706l1.27,0.525c0,0,1.052-5.955,1.665-7.948c0.545-1.771,2.939-5.949,3.466-6.855
				c0.046-0.055,0.085-0.115,0.106-0.184C33.572,1.927,33.076,1.355,32.317,1.11z"/>
			<path fill="#603813" d="M30.762,1.479c0,0-2.4,6-2.926,7.665c-0.525,1.663-0.919,6.655-0.919,6.655l1.27,0.525
				c0,0,1.052-4.904,1.665-6.897s3.572-7.039,3.572-7.039L30.762,1.479z"/>
			
				<ellipse transform="matrix(0.9517 0.3069 -0.3069 0.9517 2.1431 -9.7415)" fill="#9F6A3C" stroke="#3B2314" stroke-miterlimit="10" cx="32.049" cy="1.944" rx="1.445" ry="0.876"/>
			<g>
				<path fill="#006838" d="M21.531,16.97c0,0,0.924-0.006,2.195,0.154c0.634,0.089,1.375,0.163,2.145,0.3
					c0.382,0.071,0.777,0.146,1.178,0.221c0.396,0.042,0.793,0.105,1.191,0.167c0.361,0.068,0.725,0.139,1.08,0.207
					c0.211,0,0.42,0.006,0.625,0.017c0.209,0.011,0.425,0.022,0.539-0.015c0.276-0.058,0.566-0.032,0.875-0.156
					c0.156-0.041,0.309-0.081,0.455-0.12c0.145-0.06,0.283-0.117,0.417-0.173c0.546-0.225,0.993-0.502,1.318-0.698
					c0.317-0.204,0.505-0.341,0.505-0.341s-0.041,0.225-0.2,0.596c-0.093,0.173-0.181,0.414-0.351,0.637
					c-0.162,0.229-0.338,0.511-0.607,0.743c-0.131,0.126-0.266,0.257-0.406,0.392c-0.158,0.114-0.332,0.221-0.51,0.337
					c-0.333,0.249-0.816,0.399-1.312,0.548c-0.27,0.095-0.462,0.101-0.665,0.12c-0.206,0.022-0.414,0.04-0.623,0.054l-0.079,0.005
					l-0.02,0.002l-0.129-0.003l-0.041-0.005l-0.165-0.021l-0.333-0.046l-0.667-0.102c-0.444-0.08-0.889-0.157-1.321-0.254
					c-0.426-0.104-0.818-0.263-1.207-0.401c-0.386-0.143-0.755-0.293-1.102-0.44c-0.349-0.138-0.661-0.325-0.951-0.483
					C22.202,17.584,21.531,16.97,21.531,16.97z"/>
			</g>
		</g>
	</g>
	<linearGradient id="SVGID_3_" gradientUnits="userSpaceOnUse" x1="25.7344" y1="16.7676" x2="25.7344" y2="36.28">
		<stop  offset="0" style="stop-color:#FFFFFF;stop-opacity:0.3"/>
		<stop  offset="1" style="stop-color:#FFFFFF;stop-opacity:0"/>
	</linearGradient>
	<path fill="url(#SVGID_3_)" d="M46.491,28.276c0,4.338-7.357,8.353-20.757,8.353c-15.717,0-20.756-2.438-20.756-8.219
		c0-15.501,16.458-8.671,22.183-8.671C33.451,19.739,46.491,16.663,46.491,28.276z"/>
</g>
</svg>
