<?xml version="1.0" encoding="utf-8"?>
<!-- Generator: Adobe Illustrator 16.0.0, SVG Export Plug-In . SVG Version: 6.00 Build 0)  -->
<!DOCTYPE svg PUBLIC "-//W3C//DTD SVG 1.1//EN" "http://www.w3.org/Graphics/SVG/1.1/DTD/svg11.dtd">
<svg version="1.1" xmlns="http://www.w3.org/2000/svg" xmlns:xlink="http://www.w3.org/1999/xlink" x="0px" y="0px"
	 width="351.229px" height="351.228px" viewBox="0 0 351.229 351.228" enable-background="new 0 0 351.229 351.228"
	 xml:space="preserve">
<g id="btnGo">
	<g>
		<linearGradient id="SVGID_1_" gradientUnits="userSpaceOnUse" x1="175.6138" y1="141.1294" x2="175.6138" y2="246.4567">
			<stop  offset="0" style="stop-color:#8BC53F"/>
			<stop  offset="1" style="stop-color:#009145"/>
		</linearGradient>
		<circle fill="url(#SVGID_1_)" stroke="#009145" stroke-width="5" stroke-miterlimit="10" cx="175.614" cy="175.614" r="44.524"/>
		<linearGradient id="SVGID_2_" gradientUnits="userSpaceOnUse" x1="175.6138" y1="141.3945" x2="175.6138" y2="207.2557">
			<stop  offset="0.0051" style="stop-color:#FFFFFF;stop-opacity:0.4"/>
			<stop  offset="1" style="stop-color:#FFFFFF;stop-opacity:0"/>
		</linearGradient>
		<path fill="url(#SVGID_2_)" d="M212.569,172.614c0,20.411-16.545,26.956-36.955,26.956c-20.41,0-36.955-6.545-36.955-26.956
			c0-20.409,16.545-34.954,36.955-34.954C196.024,137.66,212.569,152.205,212.569,172.614z"/>
		<g>
			<path fill="#FFFFFF" d="M172.83,188.594c-0.16,0-0.32-0.08-0.44-0.12l-4.679-2.6c-1.879,1.4-4.079,2.96-8.239,2.96
				c-8.039,0-14.518-5.439-14.518-14.518c0-8.358,6.199-14.317,14.758-14.317c6.799,0,10.998,3.399,12.918,8.118
				c0.16,0.44,0.2,0.561-0.12,0.72l-7.479,3.319c-0.32,0.12-0.52-0.079-0.64-0.399c-0.92-1.76-2.879-2.6-4.719-2.6
				c-3.279,0-5.319,2.199-5.319,5.279c0,3.439,2.04,5.359,5.479,5.359c2.319,0,3.919-1.04,4.679-3.12
				c0.12-0.28,0.16-0.399,0.32-0.399h8.039c0.32,0,0.32,0.04,0.32,0.279c0,3.72,0,7.959,0,11.878
				C173.189,188.434,173.189,188.594,172.83,188.594z"/>
			<path fill="#FFFFFF" d="M189.392,188.875c-8.559,0-14.678-6.319-14.678-14.478c0-8.599,6.68-14.438,14.678-14.438
				c7.639,0,14.678,5.559,14.678,14.478C204.069,182.916,197.15,188.875,189.392,188.875z M189.392,169.358
				c-3.119,0-5.079,2.079-5.079,4.999c0,3.319,2.079,5.239,5.079,5.239c2.879,0,5.079-2,5.079-5.239
				C194.471,171.277,192.472,169.358,189.392,169.358z"/>
		</g>
	</g>
</g>
<g id="arrowLeft">
	<g>
		<linearGradient id="SVGID_3_" gradientUnits="userSpaceOnUse" x1="55.2432" y1="136.585" x2="55.2432" y2="209.9459">
			<stop  offset="0" style="stop-color:#FBED21"/>
			<stop  offset="1" style="stop-color:#FAAF3B"/>
		</linearGradient>
		<path fill="url(#SVGID_3_)" stroke="#F6921E" stroke-width="5" stroke-miterlimit="10" d="M58.626,225.894
			c0,5.5-3.182,6.818-7.071,2.929L5.417,182.684c-3.89-3.889-3.89-10.253,0-14.143l46.138-46.138c3.89-3.889,7.071-2.57,7.071,2.93
			v19.914h39.359c5.5,0,10,4.5,10,10v41.326c0,5.5-4.5,10-10,10H58.626V225.894z"/>
		<linearGradient id="SVGID_4_" gradientUnits="userSpaceOnUse" x1="56.2427" y1="157.2529" x2="56.2427" y2="193.2591">
			<stop  offset="0.0051" style="stop-color:#FFFFFF;stop-opacity:0.4"/>
			<stop  offset="1" style="stop-color:#FFFFFF;stop-opacity:0"/>
		</linearGradient>
		<path fill="url(#SVGID_4_)" d="M100.163,175.615c0-2.029,0-14.258,0-14.258c0-3.85-3.15-7-7-7H51.611v-13.939
			c0-3.85-2.227-4.772-4.95-2.051l-32.296,32.297c-1.362,1.361-2.042,3.147-2.042,4.951c0,5.471,16.512,7,42.92,7
			S100.163,182.335,100.163,175.615z"/>
	</g>
</g>
<g id="arrowDown">
	<g>
		
			<linearGradient id="SVGID_5_" gradientUnits="userSpaceOnUse" x1="175.6147" y1="5962.5308" x2="175.6147" y2="6078.8052" gradientTransform="matrix(1 0 0 -1 0 6319.7256)">
			<stop  offset="0" style="stop-color:#FBED21"/>
			<stop  offset="1" style="stop-color:#FAAF3B"/>
		</linearGradient>
		<path fill="url(#SVGID_5_)" stroke="#F6921E" stroke-width="5" stroke-miterlimit="10" d="M225.896,292.602
			c5.5,0,6.818,3.182,2.928,7.071l-46.139,46.138c-3.889,3.89-10.252,3.89-14.142,0l-46.138-46.138
			c-3.889-3.89-2.57-7.071,2.93-7.071h19.914v-39.359c0-5.5,4.5-10,10-10h41.327c5.5,0,10,4.5,10,10v39.359H225.896z"/>
		<linearGradient id="SVGID_6_" gradientUnits="userSpaceOnUse" x1="175.6147" y1="245.9185" x2="175.6147" y2="312.5887">
			<stop  offset="0.0051" style="stop-color:#FFFFFF;stop-opacity:0.4"/>
			<stop  offset="1" style="stop-color:#FFFFFF;stop-opacity:0"/>
		</linearGradient>
		<path fill="url(#SVGID_6_)" d="M210.812,299.643c3.85,0,4.772,2.227,2.05,4.949l-32.298,32.297c-2.721,2.723-7.176,2.723-9.899,0
			l-32.296-32.297c-2.722-2.723-1.799-4.949,2.051-4.949h13.939V258.09c0-3.85,3.15-7,7-7h28.929c3.85,0,7,3.15,7,7v41.553H210.812z
			"/>
	</g>
</g>
<g id="arrowRight">
	<g>
		<linearGradient id="SVGID_7_" gradientUnits="userSpaceOnUse" x1="295.9854" y1="138.585" x2="295.9854" y2="203.3075">
			<stop  offset="0" style="stop-color:#FBED21"/>
			<stop  offset="1" style="stop-color:#FAAF3B"/>
		</linearGradient>
		<path fill="url(#SVGID_7_)" stroke="#F6921E" stroke-width="5" stroke-miterlimit="10" d="M292.603,225.894
			c0,5.5,3.182,6.818,7.07,2.929l46.139-46.139c3.889-3.889,3.889-10.253,0-14.143l-46.139-46.138c-3.889-3.889-7.07-2.57-7.07,2.93
			v19.914h-39.359c-5.5,0-10,4.5-10,10v41.326c0,5.5,4.5,10,10,10h39.359V225.894z"/>
		
			<linearGradient id="SVGID_8_" gradientUnits="userSpaceOnUse" x1="-1259.8999" y1="157.2529" x2="-1259.8999" y2="193.2579" gradientTransform="matrix(-1 0 0 1 -964.9902 0)">
			<stop  offset="0.0051" style="stop-color:#FFFFFF;stop-opacity:0.4"/>
			<stop  offset="1" style="stop-color:#FFFFFF;stop-opacity:0"/>
		</linearGradient>
		<path fill="url(#SVGID_8_)" d="M250.989,175.615c0-2.029,0-14.258,0-14.258c0-3.85,3.15-7,7-7h41.552v-13.939
			c0-3.85,2.228-4.772,4.95-2.051l32.296,32.297c1.362,1.361,2.042,3.147,2.042,4.951c0,5.471-16.512,7-42.92,7
			C269.502,182.615,250.989,182.335,250.989,175.615z"/>
	</g>
</g>
<g id="arrowUp">
	<g>
		<linearGradient id="SVGID_9_" gradientUnits="userSpaceOnUse" x1="175.6147" y1="-5.9663" x2="175.6147" y2="110.3081">
			<stop  offset="0" style="stop-color:#FBED21"/>
			<stop  offset="1" style="stop-color:#FAAF3B"/>
		</linearGradient>
		<path fill="url(#SVGID_9_)" stroke="#F6921E" stroke-width="5" stroke-miterlimit="10" d="M225.896,58.626
			c5.5,0,6.818-3.182,2.928-7.071L182.685,5.417c-3.889-3.89-10.252-3.89-14.142,0l-46.138,46.138
			c-3.889,3.89-2.57,7.071,2.93,7.071h19.914v39.359c0,5.5,4.5,10,10,10h41.327c5.5,0,10-4.5,10-10V58.626H225.896z"/>
		<linearGradient id="SVGID_10_" gradientUnits="userSpaceOnUse" x1="175.6147" y1="29.2515" x2="175.6147" y2="77.4184">
			<stop  offset="0.0051" style="stop-color:#FFFFFF;stop-opacity:0.4"/>
			<stop  offset="1" style="stop-color:#FFFFFF;stop-opacity:0"/>
		</linearGradient>
		<path fill="url(#SVGID_10_)" d="M210.812,51.611c3.85,0,4.772-2.227,2.05-4.949l-32.298-32.297c-2.721-2.723-7.176-2.723-9.899,0
			l-32.296,32.297c-2.722,2.723-1.799,4.949,2.051,4.949h13.939v41.553c0,3.85,3.15,7,7,7h28.929c3.85,0,7-3.15,7-7V51.611H210.812z
			"/>
	</g>
</g>
</svg>
