<?xml version="1.0" encoding="utf-8"?>
<!-- Generator: Adobe Illustrator 16.0.0, SVG Export Plug-In . SVG Version: 6.00 Build 0)  -->
<!DOCTYPE svg PUBLIC "-//W3C//DTD SVG 1.1//EN" "http://www.w3.org/Graphics/SVG/1.1/DTD/svg11.dtd">
<svg version="1.1" xmlns="http://www.w3.org/2000/svg" xmlns:xlink="http://www.w3.org/1999/xlink" x="0px" y="0px"
	 width="320.795px" height="313.297px" viewBox="0 0 320.795 313.297" enable-background="new 0 0 320.795 313.297"
	 xml:space="preserve">

<g id="turnRight">
	<g>
		
			<linearGradient id="SVGID_9_" gradientUnits="userSpaceOnUse" x1="-4387.187" y1="1371.4795" x2="-4387.187" y2="1465.8977" gradientTransform="matrix(-4.371139e-08 1 -1 -4.371139e-08 1696.6494 4525.5532)">
			<stop  offset="0" style="stop-color:#FBED21"/>
			<stop  offset="1" style="stop-color:#FAAF3B"/>
		</linearGradient>
		<path fill="url(#SVGID_9_)" stroke="#F6921E" stroke-width="5" stroke-miterlimit="10" d="M283.972,163.939
			c0,3.363,1.945,4.17,4.323,1.791l28.215-28.217c2.38-2.375,2.38-6.27,0-8.646l-28.215-28.215c-2.378-2.379-4.323-1.57-4.323,1.791
			l-0.04,15.369h-44.954c-3.465,0-6.301,2.836-6.301,6.303l-0.039,47.033c0,3.465,2.834,6.301,6.299,6.301h19.193
			c3.465,0,6.301-2.836,6.301-6.301v-6.025l0.039-16.234h19.462L283.972,163.939z"/>
		
			<linearGradient id="SVGID_10_" gradientUnits="userSpaceOnUse" x1="-4400.9697" y1="1381.9131" x2="-4400.9697" y2="1459.4117" gradientTransform="matrix(-4.371139e-08 1 -1 -4.371139e-08 1696.6494 4525.5532)">
			<stop  offset="0.0051" style="stop-color:#FFFFFF;stop-opacity:0.4"/>
			<stop  offset="1" style="stop-color:#FFFFFF;stop-opacity:0"/>
		</linearGradient>
		<path fill="url(#SVGID_10_)" d="M309.093,130.364l-16.93-16.929c-1.427-1.428-2.594-0.942-2.594,1.074l-0.023,9.222h-46.973
			c-2.079,0-3.781,1.702-3.781,3.782l-0.007,3.553C238.786,137.594,309.093,139.387,309.093,130.364z"/>
	</g>
</g>
</svg>
