<?xml version="1.0" encoding="utf-8"?>
<!-- Generator: Adobe Illustrator 16.0.0, SVG Export Plug-In . SVG Version: 6.00 Build 0)  -->
<!DOCTYPE svg PUBLIC "-//W3C//DTD SVG 1.1//EN" "http://www.w3.org/Graphics/SVG/1.1/DTD/svg11.dtd">
<svg version="1.1" xmlns="http://www.w3.org/2000/svg" xmlns:xlink="http://www.w3.org/1999/xlink" x="0px" y="0px"
	 width="320.795px" height="313.297px" viewBox="0 0 320.795 313.297" enable-background="new 0 0 320.795 313.297"
	 xml:space="preserve">
<g id="turnLeft">
	<g>
		
			<linearGradient id="SVGID_5_" gradientUnits="userSpaceOnUse" x1="-4387.187" y1="4931.6982" x2="-4387.187" y2="5026.1167" gradientTransform="matrix(4.366649e-08 1 1 -4.366649e-08 -4936.0732 4525.5532)">
			<stop  offset="0" style="stop-color:#FBED21"/>
			<stop  offset="1" style="stop-color:#FAAF3B"/>
		</linearGradient>
		<path fill="url(#SVGID_5_)" stroke="#F6921E" stroke-width="5" stroke-miterlimit="10" d="M36.823,163.939
			c0,3.363-1.945,4.17-4.323,1.791L4.285,137.514c-2.38-2.375-2.38-6.27,0-8.646L32.5,100.652c2.378-2.379,4.323-1.57,4.323,1.791
			l0.04,15.369h44.954c3.465,0,6.301,2.836,6.301,6.303l0.039,47.033c0,3.465-2.834,6.301-6.299,6.301H62.665
			c-3.465,0-6.301-2.836-6.301-6.301v-6.025l-0.039-16.234H36.863L36.823,163.939z"/>
		
			<linearGradient id="SVGID_6_" gradientUnits="userSpaceOnUse" x1="-4400.9697" y1="4942.1328" x2="-4400.9697" y2="5019.6313" gradientTransform="matrix(4.366649e-08 1 1 -4.366649e-08 -4936.0732 4525.5532)">
			<stop  offset="0.0051" style="stop-color:#FFFFFF;stop-opacity:0.4"/>
			<stop  offset="1" style="stop-color:#FFFFFF;stop-opacity:0"/>
		</linearGradient>
		<path fill="url(#SVGID_6_)" d="M11.703,130.364l16.929-16.929c1.427-1.428,2.594-0.942,2.594,1.074l0.024,9.222h46.972
			c2.079,0,3.781,1.702,3.781,3.782l0.007,3.553C82.01,137.594,11.703,139.387,11.703,130.364z"/>
	</g>
</g>
</svg>
