<?xml version="1.0"?>
<svg width="320.795" height="313.297" xmlns="http://www.w3.org/2000/svg" xmlns:svg="http://www.w3.org/2000/svg">
 <g>
  <title>Layer 1</title>
  <g id="btnGo">
   <g id="svg_1">
    <linearGradient id="SVGID_1_" x1="0.500008" y1="0.112746" x2="0.500008" y2="1.29556">
     <stop offset="0" stop-color="#8BC53F"/>
     <stop offset="1" stop-color="#009145"/>
    </linearGradient>
    <circle fill="url(#SVGID_1_)" stroke="#009145" stroke-width="5" stroke-miterlimit="10" cx="162.075" cy="151.744" r="44.524002" id="svg_2"/>
    <linearGradient id="SVGID_2_" x1="0.499996" y1="0.060328" x2="0.499996" y2="1.12415">
     <stop offset="0.0051" stop-opacity="0.4" stop-color="#FFFFFF"/>
     <stop offset="1" stop-opacity="0" stop-color="#FFFFFF"/>
    </linearGradient>
    <path fill="url(#SVGID_2_)" d="m199.031006,148.744003c0,20.410995 -16.544998,26.955994 -36.955002,26.955994c-20.410004,0 -36.955002,-6.544998 -36.955002,-26.955994c0,-20.408997 16.544998,-34.954002 36.955002,-34.954002c20.409988,0 36.955002,14.545006 36.955002,34.954002z" id="svg_3"/>
    <g id="svg_4"/>
   </g>
  </g>
  <g id="goForward">
   <g id="svg_5">
    <linearGradient id="SVGID_3_" x1="0.489723" y1="-0.094846" x2="0.489723" y2="1.022334">
     <stop offset="0" stop-color="#FBED21"/>
     <stop offset="1" stop-color="#FAAF3B"/>
    </linearGradient>
    <path fill="url(#SVGID_3_)" stroke="#F6921E" stroke-width="5" stroke-miterlimit="10" d="m200.492004,45.375c4.19899,0 5.207001,-2.43 2.235992,-5.402l-35.246002,-35.243c-2.969009,-2.975 -7.832001,-2.975 -10.803009,0l-35.244987,35.242c-2.972,2.973 -1.961998,5.402 2.237999,5.402l19.712006,0l0,30.068001c0,4.198997 3.438004,7.639 7.640991,7.639l24.069,0c4.201004,0 7.639999,-3.439003 7.639999,-7.639l0,-30.067001l17.758011,0z" id="svg_6"/>
    <linearGradient id="SVGID_4_" x1="0.48973" y1="-0.09138" x2="0.48973" y2="1.022218">
     <stop offset="0.0051" stop-opacity="0.4" stop-color="#FFFFFF"/>
     <stop offset="1" stop-opacity="0" stop-color="#FFFFFF"/>
    </linearGradient>
    <path fill="url(#SVGID_4_)" d="m185.126999,38.341999c2.520004,0 3.124008,-1.458 1.341995,-3.242001l-21.146988,-21.144999c-1.781006,-1.785 -4.699005,-1.785 -6.48201,0l-21.147003,21.144999c-1.783005,1.784 -1.177002,3.242001 1.343002,3.242001l11.826996,0l0,33.041004c0,2.519997 2.063004,4.583 4.584,4.583l14.442001,0c2.520996,0 4.582993,-2.063004 4.582993,-4.583l0,-33.041004l10.655014,0z" id="svg_7"/>
   </g>
  </g>
  <g id="turnLeft">
   <g id="svg_8">
    <linearGradient id="SVGID_5_" x1="-0.091222" y1="0.491087" x2="1.022245" y2="0.491087">
     <stop offset="0" stop-color="#FBED21"/>
     <stop offset="1" stop-color="#FAAF3B"/>
    </linearGradient>
    <path fill="url(#SVGID_5_)" stroke="#F6921E" stroke-width="5" stroke-miterlimit="10" d="m36.823002,163.938995c0,3.363007 -1.945004,4.169998 -4.323002,1.791l-28.215,-28.215988c-2.38,-2.375 -2.38,-6.270004 0,-8.645996l28.215,-28.216011c2.377998,-2.378998 4.323002,-1.57 4.323002,1.791l0.039997,15.368996l44.954002,0c3.464996,0 6.300995,2.836006 6.300995,6.303001l0.039001,47.032997c0,3.465012 -2.834,6.30101 -6.298996,6.30101l-19.193001,0c-3.465,0 -6.301003,-2.835999 -6.301003,-6.30101l0,-6.024994l-0.038998,-16.233994l-19.462002,0l-0.039997,15.049988z" id="svg_9"/>
    <linearGradient id="SVGID_6_" x1="-0.080271" y1="0.489546" x2="1.022016" y2="0.489545">
     <stop offset="0.0051" stop-opacity="0.4" stop-color="#FFFFFF"/>
     <stop offset="1" stop-opacity="0" stop-color="#FFFFFF"/>
    </linearGradient>
    <path fill="url(#SVGID_6_)" d="m11.703,130.363998l16.929,-16.929001c1.427,-1.427994 2.594,-0.942001 2.594,1.074005l0.024,9.222l46.972,0c2.079002,0 3.780998,1.701996 3.780998,3.781998l0.007004,3.552994c0,6.528 -70.307002,8.320999 -70.307002,-0.701996z" id="svg_10"/>
   </g>
  </g>
  <g id="uTurn">
   <g id="svg_11">
    <linearGradient id="SVGID_7_" x1="0.507523" y1="1.089112" x2="0.507523" y2="-0.022199">
     <stop offset="0" stop-color="#FBED21"/>
     <stop offset="1" stop-color="#FAAF3B"/>
    </linearGradient>
    <path fill="url(#SVGID_7_)" stroke="#F6921E" stroke-width="5" stroke-miterlimit="10" d="m150.432999,278.764008c-3.138992,0 -3.891998,1.813995 -1.671997,4.035004l26.334991,26.332001c2.218002,2.221008 5.852005,2.221008 8.071014,0l26.332993,-26.332001c2.220993,-2.221008 1.466003,-4.035004 -1.671997,-4.035004l-14.363998,0l0,-60.787003c0,-3.231995 -2.646011,-5.878998 -5.881012,-5.878998l-57.040985,0c-3.234009,0 -5.881004,2.645996 -5.881004,5.878998l0,43.650009c0,3.234009 2.645996,5.880981 5.881004,5.880981l17.800995,0c3.233994,0 5.880997,-2.645996 5.880997,-5.880981l0,-14.96701l10.238007,0l0,32.104004l-14.029007,0z" id="svg_12"/>
    <linearGradient id="SVGID_8_" x1="0.505767" y1="-0.148185" x2="0.505767" y2="0.73005">
     <stop offset="0.0051" stop-opacity="0.4" stop-color="#FFFFFF"/>
     <stop offset="1" stop-opacity="0" stop-color="#FFFFFF"/>
    </linearGradient>
    <path fill="url(#SVGID_8_)" d="m161.895996,283.837006c-1.882996,0 -2.334991,1.088989 -1.002991,2.42099l15.800995,15.799011c1.330994,1.333008 3.511002,1.333008 4.843002,0l15.800003,-15.799011c1.332993,-1.332001 0.87999,-2.42099 -1.003006,-2.42099l-8.619003,0l0,-61.908997c0,-1.938995 -1.587997,-3.526993 -3.526993,-3.526993l-49.542007,0c-1.940994,0 -3.528992,1.587997 -3.528992,3.526993l0,35.188995c0,1.94101 1.587997,3.528992 3.528992,3.528992l10.680008,0c1.940994,0 3.528992,-1.587982 3.528992,-3.528992l0,-17.980011l21.460007,0l0,44.700012l-8.419006,0z" id="svg_13"/>
   </g>
  </g>
  <g id="turnRight">
   <g id="svg_14">
    <linearGradient id="SVGID_9_" x1="1.091221" y1="0.491089" x2="-0.022242" y2="0.491089">
     <stop offset="0" stop-color="#FBED21"/>
     <stop offset="1" stop-color="#FAAF3B"/>
    </linearGradient>
    <path fill="url(#SVGID_9_)" stroke="#F6921E" stroke-width="5" stroke-miterlimit="10" d="m283.971985,163.938995c0,3.363007 1.945007,4.169998 4.322998,1.791l28.214996,-28.216995c2.380005,-2.375 2.380005,-6.270004 0,-8.645996l-28.214996,-28.215004c-2.377991,-2.378998 -4.322998,-1.57 -4.322998,1.791l-0.040009,15.368996l-44.953979,0c-3.465012,0 -6.30101,2.836006 -6.30101,6.303001l-0.039001,47.032997c0,3.465012 2.834,6.30101 6.299011,6.30101l19.193008,0c3.464996,0 6.300995,-2.835999 6.300995,-6.30101l0,-6.024994l0.039001,-16.233994l19.461975,0l0.040009,15.049988z" id="svg_15"/>
    <linearGradient id="SVGID_10_" x1="1.080269" y1="0.489552" x2="-0.022004" y2="0.489552">
     <stop offset="0.0051" stop-opacity="0.4" stop-color="#FFFFFF"/>
     <stop offset="1" stop-opacity="0" stop-color="#FFFFFF"/>
    </linearGradient>
    <path fill="url(#SVGID_10_)" d="m309.092987,130.363998l-16.929993,-16.929001c-1.427002,-1.427994 -2.593994,-0.942001 -2.593994,1.074005l-0.02301,9.222l-46.973007,0c-2.078995,0 -3.780991,1.701996 -3.780991,3.781998l-0.007004,3.552994c0.001007,6.528 70.307999,8.320999 70.307999,-0.701996z" id="svg_16"/>
   </g>
  </g>
  <text font-weight="bold" stroke="#cccccc" transform="matrix(1.2306152252442861,0,0,1.328855236811958,-94.56174359703002,-61.598047530295744) " xml:space="preserve" text-anchor="middle" font-family="Sans-serif" font-size="24" id="svg_17" y="161.419779" x="207.18011" stroke-width="0" fill="#ffffff">start</text>
  <text xml:space="preserve" text-anchor="middle" font-family="serif" font-size="24" id="svg_18" y="260.703003" x="96.397491" stroke-linecap="null" stroke-linejoin="null" stroke-dasharray="null" stroke-width="0" stroke="#000000" fill="#ffffff"/>
  <text stroke="#ffffff" transform="matrix(1.1711983646472246,0,0,1.2518127791111302,-26.959949196467836,-41.87429063636119) " font-weight="bold" xml:space="preserve" text-anchor="middle" font-family="Sans-serif" font-size="24" id="svg_19" y="174.703003" x="160.397491" stroke-linecap="null" stroke-linejoin="null" stroke-dasharray="null" stroke-width="0" fill="#ffffff">over</text>
 </g>
</svg>