<?xml version="1.0" encoding="utf-8"?>
<!-- Generator: Adobe Illustrator 16.0.0, SVG Export Plug-In . SVG Version: 6.00 Build 0)  -->
<!DOCTYPE svg PUBLIC "-//W3C//DTD SVG 1.1//EN" "http://www.w3.org/Graphics/SVG/1.1/DTD/svg11.dtd">
<svg version="1.1" xmlns="http://www.w3.org/2000/svg" xmlns:xlink="http://www.w3.org/1999/xlink" x="0px" y="0px"
	 width="320.795px" height="313.297px" viewBox="0 0 320.795 313.297" enable-background="new 0 0 320.795 313.297"
	 xml:space="preserve">
<g id="btnGo">
	<g>
		<linearGradient id="SVGID_1_" gradientUnits="userSpaceOnUse" x1="161.0757" y1="114.2598" x2="161.0757" y2="219.587">
			<stop  offset="0" style="stop-color:#8BC53F"/>
			<stop  offset="1" style="stop-color:#009145"/>
		</linearGradient>
		<circle fill="url(#SVGID_1_)" stroke="#009145" stroke-width="5" stroke-miterlimit="10" cx="161.075" cy="148.744" r="44.524"/>
		<linearGradient id="SVGID_2_" gradientUnits="userSpaceOnUse" x1="161.0757" y1="114.5249" x2="161.0757" y2="180.3861">
			<stop  offset="0.0051" style="stop-color:#FFFFFF;stop-opacity:0.4"/>
			<stop  offset="1" style="stop-color:#FFFFFF;stop-opacity:0"/>
		</linearGradient>
		<path fill="url(#SVGID_2_)" d="M198.031,145.744c0,20.411-16.545,26.956-36.955,26.956c-20.41,0-36.955-6.545-36.955-26.956
			c0-20.409,16.545-34.954,36.955-34.954C181.486,110.79,198.031,125.335,198.031,145.744z"/>
		<g>
			<path fill="#FFFFFF" d="M158.291,161.725c-0.16,0-0.32-0.08-0.44-0.12l-4.679-2.6c-1.879,1.4-4.079,2.96-8.239,2.96
				c-8.039,0-14.518-5.439-14.518-14.518c0-8.358,6.199-14.317,14.758-14.317c6.799,0,10.998,3.399,12.918,8.118
				c0.16,0.44,0.2,0.561-0.12,0.72l-7.479,3.319c-0.32,0.12-0.52-0.079-0.64-0.399c-0.92-1.76-2.879-2.6-4.719-2.6
				c-3.279,0-5.319,2.199-5.319,5.279c0,3.439,2.04,5.359,5.479,5.359c2.319,0,3.919-1.04,4.679-3.12
				c0.12-0.28,0.16-0.399,0.32-0.399h8.039c0.32,0,0.32,0.04,0.32,0.279c0,3.72,0,7.959,0,11.878
				C158.651,161.564,158.651,161.725,158.291,161.725z"/>
			<path fill="#FFFFFF" d="M174.853,162.005c-8.559,0-14.678-6.319-14.678-14.478c0-8.599,6.68-14.438,14.678-14.438
				c7.639,0,14.678,5.559,14.678,14.478C189.531,156.046,182.612,162.005,174.853,162.005z M174.853,142.488
				c-3.119,0-5.079,2.079-5.079,4.999c0,3.319,2.079,5.239,5.079,5.239c2.879,0,5.079-2,5.079-5.239
				C179.932,144.407,177.933,142.488,174.853,142.488z"/>
		</g>
	</g>
</g>
<g id="goForward">
	<g>
		
			<linearGradient id="SVGID_3_" gradientUnits="userSpaceOnUse" x1="257.5845" y1="155.5835" x2="257.5845" y2="244.4075" gradientTransform="matrix(1 0 0 1 -95.5029 -159.5508)">
			<stop  offset="0" style="stop-color:#FBED21"/>
			<stop  offset="1" style="stop-color:#FAAF3B"/>
		</linearGradient>
		<path fill="url(#SVGID_3_)" stroke="#F6921E" stroke-width="5" stroke-miterlimit="10" d="M200.492,45.375
			c4.199,0,5.207-2.43,2.236-5.402L167.482,4.73c-2.969-2.975-7.832-2.975-10.803,0l-35.245,35.242
			c-2.972,2.973-1.962,5.402,2.238,5.402h19.712v30.068c0,4.199,3.438,7.639,7.641,7.639h24.069c4.201,0,7.64-3.439,7.64-7.639
			V45.375H200.492z"/>
		
			<linearGradient id="SVGID_4_" gradientUnits="userSpaceOnUse" x1="257.5845" y1="167.082" x2="257.5845" y2="236.91" gradientTransform="matrix(1 0 0 1 -95.5029 -159.5508)">
			<stop  offset="0.0051" style="stop-color:#FFFFFF;stop-opacity:0.4"/>
			<stop  offset="1" style="stop-color:#FFFFFF;stop-opacity:0"/>
		</linearGradient>
		<path fill="url(#SVGID_4_)" d="M185.127,38.342c2.52,0,3.124-1.458,1.342-3.242l-21.147-21.145c-1.781-1.785-4.699-1.785-6.482,0
			L137.693,35.1c-1.783,1.784-1.177,3.242,1.343,3.242h11.827v33.041c0,2.52,2.063,4.583,4.584,4.583h14.442
			c2.521,0,4.583-2.063,4.583-4.583V38.342H185.127z"/>
	</g>
</g>
<g id="turnLeft">
	<g>
		
			<linearGradient id="SVGID_5_" gradientUnits="userSpaceOnUse" x1="-4387.187" y1="4931.6982" x2="-4387.187" y2="5026.1167" gradientTransform="matrix(4.366649e-08 1 1 -4.366649e-08 -4936.0732 4525.5532)">
			<stop  offset="0" style="stop-color:#FBED21"/>
			<stop  offset="1" style="stop-color:#FAAF3B"/>
		</linearGradient>
		<path fill="url(#SVGID_5_)" stroke="#F6921E" stroke-width="5" stroke-miterlimit="10" d="M36.823,163.939
			c0,3.363-1.945,4.17-4.323,1.791L4.285,137.514c-2.38-2.375-2.38-6.27,0-8.646L32.5,100.652c2.378-2.379,4.323-1.57,4.323,1.791
			l0.04,15.369h44.954c3.465,0,6.301,2.836,6.301,6.303l0.039,47.033c0,3.465-2.834,6.301-6.299,6.301H62.665
			c-3.465,0-6.301-2.836-6.301-6.301v-6.025l-0.039-16.234H36.863L36.823,163.939z"/>
		
			<linearGradient id="SVGID_6_" gradientUnits="userSpaceOnUse" x1="-4400.9697" y1="4942.1328" x2="-4400.9697" y2="5019.6313" gradientTransform="matrix(4.366649e-08 1 1 -4.366649e-08 -4936.0732 4525.5532)">
			<stop  offset="0.0051" style="stop-color:#FFFFFF;stop-opacity:0.4"/>
			<stop  offset="1" style="stop-color:#FFFFFF;stop-opacity:0"/>
		</linearGradient>
		<path fill="url(#SVGID_6_)" d="M11.703,130.364l16.929-16.929c1.427-1.428,2.594-0.942,2.594,1.074l0.024,9.222h46.972
			c2.079,0,3.781,1.702,3.781,3.782l0.007,3.553C82.01,137.594,11.703,139.387,11.703,130.364z"/>
	</g>
</g>
<g id="uTurn">
	<g>
		
			<linearGradient id="SVGID_7_" gradientUnits="userSpaceOnUse" x1="-2935.6279" y1="6172.4443" x2="-2935.6279" y2="6281.2373" gradientTransform="matrix(-1 0 0 -1 -2767.9092 6491.1621)">
			<stop  offset="0" style="stop-color:#FBED21"/>
			<stop  offset="1" style="stop-color:#FAAF3B"/>
		</linearGradient>
		<path fill="url(#SVGID_7_)" stroke="#F6921E" stroke-width="5" stroke-miterlimit="10" d="M150.433,278.764
			c-3.139,0-3.892,1.814-1.672,4.035l26.335,26.332c2.218,2.221,5.852,2.221,8.071,0l26.333-26.332
			c2.221-2.221,1.466-4.035-1.672-4.035h-14.364v-60.787c0-3.232-2.646-5.879-5.881-5.879h-57.041c-3.234,0-5.881,2.646-5.881,5.879
			v43.65c0,3.234,2.646,5.881,5.881,5.881h17.801c3.234,0,5.881-2.646,5.881-5.881V246.66h10.238v32.104H150.433z"/>
		<linearGradient id="SVGID_8_" gradientUnits="userSpaceOnUse" x1="164.6089" y1="205.9277" x2="164.6089" y2="279.8523">
			<stop  offset="0.0051" style="stop-color:#FFFFFF;stop-opacity:0.4"/>
			<stop  offset="1" style="stop-color:#FFFFFF;stop-opacity:0"/>
		</linearGradient>
		<path fill="url(#SVGID_8_)" d="M161.896,283.837c-1.883,0-2.335,1.089-1.003,2.421l15.801,15.799c1.331,1.333,3.511,1.333,4.843,0
			l15.8-15.799c1.333-1.332,0.88-2.421-1.003-2.421h-8.619v-61.909c0-1.939-1.588-3.527-3.527-3.527h-49.542
			c-1.941,0-3.529,1.588-3.529,3.527v35.189c0,1.941,1.588,3.529,3.529,3.529h10.68c1.941,0,3.529-1.588,3.529-3.529v-17.98h21.46
			v44.7H161.896z"/>
	</g>
</g>
<g id="turnRight">
	<g>
		
			<linearGradient id="SVGID_9_" gradientUnits="userSpaceOnUse" x1="-4387.187" y1="1371.4795" x2="-4387.187" y2="1465.8977" gradientTransform="matrix(-4.371139e-08 1 -1 -4.371139e-08 1696.6494 4525.5532)">
			<stop  offset="0" style="stop-color:#FBED21"/>
			<stop  offset="1" style="stop-color:#FAAF3B"/>
		</linearGradient>
		<path fill="url(#SVGID_9_)" stroke="#F6921E" stroke-width="5" stroke-miterlimit="10" d="M283.972,163.939
			c0,3.363,1.945,4.17,4.323,1.791l28.215-28.217c2.38-2.375,2.38-6.27,0-8.646l-28.215-28.215c-2.378-2.379-4.323-1.57-4.323,1.791
			l-0.04,15.369h-44.954c-3.465,0-6.301,2.836-6.301,6.303l-0.039,47.033c0,3.465,2.834,6.301,6.299,6.301h19.193
			c3.465,0,6.301-2.836,6.301-6.301v-6.025l0.039-16.234h19.462L283.972,163.939z"/>
		
			<linearGradient id="SVGID_10_" gradientUnits="userSpaceOnUse" x1="-4400.9697" y1="1381.9131" x2="-4400.9697" y2="1459.4117" gradientTransform="matrix(-4.371139e-08 1 -1 -4.371139e-08 1696.6494 4525.5532)">
			<stop  offset="0.0051" style="stop-color:#FFFFFF;stop-opacity:0.4"/>
			<stop  offset="1" style="stop-color:#FFFFFF;stop-opacity:0"/>
		</linearGradient>
		<path fill="url(#SVGID_10_)" d="M309.093,130.364l-16.93-16.929c-1.427-1.428-2.594-0.942-2.594,1.074l-0.023,9.222h-46.973
			c-2.079,0-3.781,1.702-3.781,3.782l-0.007,3.553C238.786,137.594,309.093,139.387,309.093,130.364z"/>
	</g>
</g>
</svg>
