<?xml version="1.0" encoding="utf-8"?>
<!-- Generator: Adobe Illustrator 16.2.1, SVG Export Plug-In . SVG Version: 6.00 Build 0)  -->
<!DOCTYPE svg PUBLIC "-//W3C//DTD SVG 1.1//EN" "http://www.w3.org/Graphics/SVG/1.1/DTD/svg11.dtd">
<svg version="1.1" xmlns="http://www.w3.org/2000/svg" xmlns:xlink="http://www.w3.org/1999/xlink" x="0px" y="0px"
	 width="351.229px" height="351.228px" viewBox="0 0 351.229 351.228" enable-background="new 0 0 351.229 351.228"
	 xml:space="preserve">
<g id="btnGo">
</g>
<g id="arrowLeft">
</g>
<g id="arrowDown">
	<g>
		
			<linearGradient id="SVGID_1_" gradientUnits="userSpaceOnUse" x1="175.6147" y1="5962.5308" x2="175.6147" y2="6078.8052" gradientTransform="matrix(1 0 0 -1 0 6319.7256)">
			<stop  offset="0" style="stop-color:#FBED21"/>
			<stop  offset="1" style="stop-color:#FAAF3B"/>
		</linearGradient>
		<path fill="url(#SVGID_1_)" stroke="#F6921E" stroke-width="5" stroke-miterlimit="10" d="M225.896,292.602
			c5.5,0,6.818,3.182,2.928,7.071l-46.139,46.138c-3.889,3.89-10.252,3.89-14.142,0l-46.138-46.138
			c-3.889-3.89-2.57-7.071,2.93-7.071h19.914v-39.359c0-5.5,4.5-10,10-10h41.327c5.5,0,10,4.5,10,10v39.359H225.896z"/>
		<linearGradient id="SVGID_2_" gradientUnits="userSpaceOnUse" x1="175.6147" y1="245.9185" x2="175.6147" y2="312.5887">
			<stop  offset="0.0051" style="stop-color:#FFFFFF;stop-opacity:0.4"/>
			<stop  offset="1" style="stop-color:#FFFFFF;stop-opacity:0"/>
		</linearGradient>
		<path fill="url(#SVGID_2_)" d="M210.812,299.643c3.85,0,4.772,2.227,2.05,4.949l-32.298,32.297c-2.721,2.723-7.176,2.723-9.899,0
			l-32.296-32.297c-2.722-2.723-1.799-4.949,2.051-4.949h13.939V258.09c0-3.85,3.15-7,7-7h28.929c3.85,0,7,3.15,7,7v41.553H210.812z
			"/>
	</g>
</g>
<g id="arrowRight">
</g>
<g id="arrowUp">
</g>
</svg>
