<?xml version="1.0" encoding="UTF-8" standalone="no"?>
<!-- Generator: Adobe Illustrator 16.0.0, SVG Export Plug-In . SVG Version: 6.00 Build 0)  -->

<svg
   xmlns:dc="http://purl.org/dc/elements/1.1/"
   xmlns:cc="http://creativecommons.org/ns#"
   xmlns:rdf="http://www.w3.org/1999/02/22-rdf-syntax-ns#"
   xmlns:svg="http://www.w3.org/2000/svg"
   xmlns="http://www.w3.org/2000/svg"
   xmlns:sodipodi="http://sodipodi.sourceforge.net/DTD/sodipodi-0.dtd"
   xmlns:inkscape="http://www.inkscape.org/namespaces/inkscape"
   version="1.1"
   x="0px"
   y="0px"
   width="120"
   height="120"
   viewBox="0 0 120 120"
   enable-background="new 0 0 320.795 313.297"
   xml:space="preserve"
   id="svg4190"
   inkscape:version="0.48.4 r9939"
   sodipodi:docname="arrow_u.svg"><metadata
     id="metadata4213"><rdf:RDF><cc:Work
         rdf:about=""><dc:format>image/svg+xml</dc:format><dc:type
           rdf:resource="http://purl.org/dc/dcmitype/StillImage" /></cc:Work></rdf:RDF></metadata><defs
     id="defs4211" /><sodipodi:namedview
     pagecolor="#ffffff"
     bordercolor="#666666"
     borderopacity="1"
     objecttolerance="10"
     gridtolerance="10"
     guidetolerance="10"
     inkscape:pageopacity="0"
     inkscape:pageshadow="2"
     inkscape:window-width="640"
     inkscape:window-height="480"
     id="namedview4209"
     showgrid="false"
     inkscape:zoom="0.75327884"
     inkscape:cx="160.39751"
     inkscape:cy="156.6485"
     inkscape:window-x="180"
     inkscape:window-y="36"
     inkscape:window-maximized="0"
     inkscape:current-layer="svg4190" /><g
     id="uTurn"
     transform="matrix(1.0915393,0,0,1.0915393,-121.5726,-223.2123)"><g
       id="g4193"><linearGradient
         id="SVGID_7_"
         gradientUnits="userSpaceOnUse"
         x1="-2935.6279"
         y1="6172.4443"
         x2="-2935.6279"
         y2="6281.2373"
         gradientTransform="matrix(-1,0,0,-1,-2767.9092,6491.1621)"><stop
           offset="0"
           style="stop-color:#FBED21"
           id="stop4196" /><stop
           offset="1"
           style="stop-color:#FAAF3B"
           id="stop4198" /></linearGradient><path
         stroke-miterlimit="10"
         d="m 150.433,278.764 c -3.139,0 -3.892,1.814 -1.672,4.035 l 26.335,26.332 c 2.218,2.221 5.852,2.221 8.071,0 L 209.5,282.799 c 2.221,-2.221 1.466,-4.035 -1.672,-4.035 h -14.364 v -60.787 c 0,-3.232 -2.646,-5.879 -5.881,-5.879 h -57.041 c -3.234,0 -5.881,2.646 -5.881,5.879 v 43.65 c 0,3.234 2.646,5.881 5.881,5.881 h 17.801 c 3.234,0 5.881,-2.646 5.881,-5.881 V 246.66 h 10.238 v 32.104 h -14.029 z"
         id="path4200"
         style="fill:url(#SVGID_7_);stroke:#f6921e;stroke-width:5;stroke-miterlimit:10"
         inkscape:connector-curvature="0" /><linearGradient
         id="SVGID_8_"
         gradientUnits="userSpaceOnUse"
         x1="164.6089"
         y1="205.9277"
         x2="164.6089"
         y2="279.85229"><stop
           offset="0.0051"
           style="stop-color:#FFFFFF;stop-opacity:0.4"
           id="stop4203" /><stop
           offset="1"
           style="stop-color:#FFFFFF;stop-opacity:0"
           id="stop4205" /></linearGradient><path
         d="m 161.896,283.837 c -1.883,0 -2.335,1.089 -1.003,2.421 l 15.801,15.799 c 1.331,1.333 3.511,1.333 4.843,0 l 15.8,-15.799 c 1.333,-1.332 0.88,-2.421 -1.003,-2.421 h -8.619 v -61.909 c 0,-1.939 -1.588,-3.527 -3.527,-3.527 h -49.542 c -1.941,0 -3.529,1.588 -3.529,3.527 v 35.189 c 0,1.941 1.588,3.529 3.529,3.529 h 10.68 c 1.941,0 3.529,-1.588 3.529,-3.529 v -17.98 h 21.46 v 44.7 h -8.419 z"
         id="path4207"
         style="fill:url(#SVGID_8_)"
         inkscape:connector-curvature="0" /></g></g></svg>