<?xml version="1.0" encoding="utf-8"?>
<!-- Generator: Adobe Illustrator 16.2.1, SVG Export Plug-In . SVG Version: 6.00 Build 0)  -->
<!DOCTYPE svg PUBLIC "-//W3C//DTD SVG 1.1//EN" "http://www.w3.org/Graphics/SVG/1.1/DTD/svg11.dtd">
<svg version="1.1" xmlns="http://www.w3.org/2000/svg" xmlns:xlink="http://www.w3.org/1999/xlink" x="0px" y="0px"
	 width="351.229px" height="351.228px" viewBox="0 0 351.229 351.228" enable-background="new 0 0 351.229 351.228"
	 xml:space="preserve">
<g id="btnGo">
</g>
<g id="arrowLeft">
</g>
<g id="arrowDown">
</g>
<g id="arrowRight">
	<g>
		<linearGradient id="SVGID_1_" gradientUnits="userSpaceOnUse" x1="295.9854" y1="138.585" x2="295.9854" y2="203.3075">
			<stop  offset="0" style="stop-color:#FBED21"/>
			<stop  offset="1" style="stop-color:#FAAF3B"/>
		</linearGradient>
		<path fill="url(#SVGID_1_)" stroke="#F6921E" stroke-width="5" stroke-miterlimit="10" d="M292.603,225.894
			c0,5.5,3.182,6.818,7.07,2.929l46.139-46.139c3.889-3.889,3.889-10.253,0-14.143l-46.139-46.138c-3.889-3.889-7.07-2.57-7.07,2.93
			v19.914h-39.359c-5.5,0-10,4.5-10,10v41.326c0,5.5,4.5,10,10,10h39.359V225.894z"/>
		
			<linearGradient id="SVGID_2_" gradientUnits="userSpaceOnUse" x1="-1259.8999" y1="157.2529" x2="-1259.8999" y2="193.2579" gradientTransform="matrix(-1 0 0 1 -964.9902 0)">
			<stop  offset="0.0051" style="stop-color:#FFFFFF;stop-opacity:0.4"/>
			<stop  offset="1" style="stop-color:#FFFFFF;stop-opacity:0"/>
		</linearGradient>
		<path fill="url(#SVGID_2_)" d="M250.989,175.615c0-2.029,0-14.258,0-14.258c0-3.85,3.15-7,7-7h41.552v-13.939
			c0-3.85,2.228-4.772,4.95-2.051l32.296,32.297c1.362,1.361,2.042,3.147,2.042,4.951c0,5.471-16.512,7-42.92,7
			C269.502,182.615,250.989,182.335,250.989,175.615z"/>
	</g>
</g>
<g id="arrowUp">
</g>
</svg>
