<!DOCTYPE svg PUBLIC '-//W3C//DTD SVG 1.1//EN' 'http://www.w3.org/Graphics/SVG/1.1/DTD/svg11.dtd'>
<svg xmlns="http://www.w3.org/2000/svg" xml:space="preserve" version="1.1" xmlns:xlink="http://www.w3.org/1999/xlink" viewBox="0 0 94.047 94.048" enable-background="new 0 0 94.047 94.048">
			<linearGradient id="d" y2="117.87" gradientUnits="userSpaceOnUse" y1="12.539" x2="47.023" x1="47.023">
				<stop stop-color="#FF413E" offset="0"/>
				<stop stop-color="#6F1420" offset="1"/>
			</linearGradient>
			<circle stroke-width="5" stroke="#93000B" cy="47.023" cx="47.023" stroke-miterlimit="10" r="44.523" fill="url(#d)"/>
			<linearGradient id="c" y2="68.553" gradientUnits="userSpaceOnUse" y1="12.804" x2="47.023" x1="47.023">
				<stop stop-color="#fff" stop-opacity=".4" offset=".0051"/>
				<stop stop-color="#fff" stop-opacity="0" offset="1"/>
			</linearGradient>
			<path d="m83.979 44.023c0 20.411-16.545 26.956-36.955 26.956s-36.955-6.545-36.955-26.956c0-20.409 16.545-34.954 36.955-34.954s36.955 14.545 36.955 34.954z" fill="url(#c)"/>
		<path d="m44.293 66.008c0 1.101-0.658 1.387-1.464 0.638l-9.718-9.044c-0.807-0.749-2.365-1.362-3.465-1.362h-5.089c-1.101 0-2-0.9-2-2v-14.387c0-1.1 0.899-2 2-2h5.089c1.1 0 2.658-0.613 3.465-1.362l9.718-9.044c0.806-0.749 1.464-0.463 1.464 0.638v37.923z" fill="#fff"/>
		<g stroke="#fff" stroke-width="3" stroke-miterlimit="10" stroke-linecap="round" fill="none">
				<line x2="71.489" y1="37.62" x1="52.638" y2="56.472"/>
				<line x2="52.638" y1="37.62" x1="71.489" y2="56.472"/>
		</g>
		<linearGradient id="b" y2="117.87" gradientUnits="userSpaceOnUse" y1="12.539" x2="-135.98" x1="-135.98">
			<stop stop-color="#8BC53F" offset="0"/>
			<stop stop-color="#009145" offset="1"/>
		</linearGradient>
		<circle stroke-width="5" stroke="#009145" cy="47.023" cx="-135.98" stroke-miterlimit="10" r="44.524" fill="url(#b)"/>
		<linearGradient id="a" y2="78.665" gradientUnits="userSpaceOnUse" y1="12.804" x2="-135.98" x1="-135.98">
			<stop stop-color="#fff" stop-opacity=".4" offset=".0051"/>
			<stop stop-color="#fff" stop-opacity="0" offset="1"/>
		</linearGradient>
		<path d="m-99.021 44.023c0 20.411-16.546 26.956-36.955 26.956-20.41 0-36.955-6.545-36.955-26.956 0-20.409 16.545-34.954 36.955-34.954s36.959 14.545 36.959 34.954z" fill="url(#a)"/>
		<g fill="#fff">
			<path d="m-139.61 66.008c0 1.101-0.659 1.387-1.464 0.638l-9.718-9.044c-0.806-0.749-2.364-1.362-3.464-1.362h-5.089c-1.1 0-2-0.9-2-2v-14.387c0-1.1 0.9-2 2-2h5.089c1.1 0 2.659-0.613 3.464-1.362l9.718-9.044c0.806-0.749 1.464-0.463 1.464 0.638v37.923z"/>
				<path d="m-133.41 55.899c-0.429 0-0.857-0.164-1.184-0.49-0.654-0.654-0.654-1.714 0-2.368 3.318-3.317 3.317-8.717 0-12.035-0.654-0.653-0.654-1.714 0-2.367 0.654-0.654 1.713-0.653 2.368 0 4.623 4.624 4.624 12.146 0 16.77-0.33 0.326-0.76 0.49-1.19 0.49z"/>
				<path d="m-126.77 61.592c-0.428 0-0.857-0.164-1.184-0.49-0.654-0.654-0.654-1.714 0-2.368 3.128-3.127 4.851-7.287 4.851-11.71 0-4.424-1.723-8.582-4.851-11.711-0.654-0.653-0.654-1.714 0-2.367 0.654-0.654 1.714-0.654 2.368 0 3.76 3.761 5.832 8.76 5.832 14.078 0 5.317-2.071 10.317-5.832 14.078-0.34 0.326-0.76 0.49-1.19 0.49z"/>
				<path d="m-120.31 68.102c-0.429 0-0.856-0.164-1.184-0.491-0.653-0.652-0.653-1.714 0-2.367 10.046-10.047 10.046-26.394 0-36.439-0.654-0.654-0.654-1.713 0-2.367s1.714-0.654 2.368 0c11.352 11.352 11.352 29.822 0 41.174-0.33 0.326-0.76 0.49-1.19 0.49z"/>
		</g>
</svg>
