<!DOCTYPE svg PUBLIC '-//W3C//DTD SVG 1.1//EN' 'http://www.w3.org/Graphics/SVG/1.1/DTD/svg11.dtd'>
<svg xmlns="http://www.w3.org/2000/svg" xml:space="preserve" version="1.1" xmlns:xlink="http://www.w3.org/1999/xlink" viewBox="0 0 94.048 94.048" enable-background="new 0 0 94.048 94.048">
		<linearGradient id="b" y2="117.87" gradientUnits="userSpaceOnUse" y1="12.539" x2="47.024" x1="47.024">
			<stop stop-color="#FF413E" offset="0"/>
			<stop stop-color="#6F1420" offset="1"/>
		</linearGradient>
		<circle stroke-width="5" stroke="#93000B" cy="47.023" cx="47.024" stroke-miterlimit="10" r="44.524" fill="url(#b)"/>
		<linearGradient id="a" y2="68.553" gradientUnits="userSpaceOnUse" y1="12.804" x2="47.024" x1="47.024">
			<stop stop-color="#fff" stop-opacity=".4" offset=".0051"/>
			<stop stop-color="#fff" stop-opacity="0" offset="1"/>
		</linearGradient>
		<path d="m83.979 44.023c0 20.411-16.546 26.956-36.955 26.956-20.41 0-36.955-6.545-36.955-26.956 0-20.409 16.545-34.954 36.955-34.954s36.955 14.545 36.955 34.954z" fill="url(#a)"/>
	<path d="m70.521 46.496c0-12.956-10.542-23.496-23.497-23.496s-23.497 10.54-23.497 23.496c0 2.281 1.85 4.132 4.131 4.132s4.131-1.851 4.131-4.132c0-8.4 6.834-15.234 15.234-15.234s15.234 6.834 15.234 15.234c0 8.343-6.741 15.137-15.063 15.229v-7.822c0-1.309-0.757-1.621-1.682-0.696l-10.972 12.922c-0.926 0.925-0.926 0.49 0 1.415l10.973 10.973c0.925 0.924 1.682 0.611 1.682-0.697v-7.83c12.877-0.094 23.326-10.595 23.326-23.494z" fill="#fff"/>
</svg>
