<?xml version="1.0" encoding="utf-8"?>
<!-- Generator: Adobe Illustrator 16.0.0, SVG Export Plug-In . SVG Version: 6.00 Build 0)  -->
<!DOCTYPE svg PUBLIC "-//W3C//DTD SVG 1.1//EN" "http://www.w3.org/Graphics/SVG/1.1/DTD/svg11.dtd">
<svg version="1.1" id="Layer_1" xmlns="http://www.w3.org/2000/svg" xmlns:xlink="http://www.w3.org/1999/xlink" 
	 viewBox="0 0 94.048 94.048" enable-background="new 0 0 94.048 94.048" xml:space="preserve">
<g>
	<g>
		<linearGradient id="SVGID_1_" gradientUnits="userSpaceOnUse" x1="47.0239" y1="12.5391" x2="47.0239" y2="117.8663">
			<stop  offset="0" style="stop-color:#FF413E"/>
			<stop  offset="1" style="stop-color:#6F1420"/>
		</linearGradient>
		<circle fill="url(#SVGID_1_)" stroke="#93000B" stroke-width="5" stroke-miterlimit="10" cx="47.024" cy="47.023" r="44.524"/>
		<linearGradient id="SVGID_2_" gradientUnits="userSpaceOnUse" x1="47.0239" y1="12.8037" x2="47.0239" y2="68.5534">
			<stop  offset="0.0051" style="stop-color:#FFFFFF;stop-opacity:0.4"/>
			<stop  offset="1" style="stop-color:#FFFFFF;stop-opacity:0"/>
		</linearGradient>
		<path fill="url(#SVGID_2_)" d="M83.979,44.023c0,20.411-16.546,26.956-36.955,26.956c-20.41,0-36.955-6.545-36.955-26.956
			c0-20.409,16.545-34.954,36.955-34.954C67.434,9.069,83.979,23.614,83.979,44.023z"/>
	</g>
	<path fill="#FFFFFF" d="M70.521,46.496C70.521,33.54,59.979,23,47.024,23S23.527,33.54,23.527,46.496
		c0,2.281,1.85,4.132,4.131,4.132s4.131-1.851,4.131-4.132c0-8.4,6.834-15.234,15.234-15.234s15.234,6.834,15.234,15.234
		c0,8.343-6.741,15.137-15.063,15.229v-7.822c0-1.309-0.757-1.621-1.682-0.696L34.54,66.129c-0.926,0.925-0.926,0.49,0,1.415
		l10.973,10.973c0.925,0.924,1.682,0.611,1.682-0.697v-7.83C60.072,69.896,70.521,59.395,70.521,46.496z"/>
</g>
</svg>
