<?xml version="1.0" encoding="UTF-8" standalone="no"?>
<!-- Generator: Adobe Illustrator 16.0.0, SVG Export Plug-In . SVG Version: 6.00 Build 0)  -->

<svg
   xmlns:dc="http://purl.org/dc/elements/1.1/"
   xmlns:cc="http://creativecommons.org/ns#"
   xmlns:rdf="http://www.w3.org/1999/02/22-rdf-syntax-ns#"
   xmlns:svg="http://www.w3.org/2000/svg"
   xmlns="http://www.w3.org/2000/svg"
   xmlns:xlink="http://www.w3.org/1999/xlink"
   xmlns:sodipodi="http://sodipodi.sourceforge.net/DTD/sodipodi-0.dtd"
   xmlns:inkscape="http://www.inkscape.org/namespaces/inkscape"
   version="1.1"
   id="Layer_3"
   x="0px"
   y="0px"
   width="697.7182"
   height="363.95917"
   viewBox="0 0 697.7182 363.95917"
   enable-background="new 0 0 900 900"
   xml:space="preserve"
   inkscape:version="0.48.4 r9939"
   sodipodi:docname="Clarice_right.svg"><metadata
     id="metadata4510"><rdf:RDF><cc:Work
         rdf:about=""><dc:format>image/svg+xml</dc:format><dc:type
           rdf:resource="http://purl.org/dc/dcmitype/StillImage" /><dc:title></dc:title></cc:Work></rdf:RDF></metadata><defs
     id="defs4508" /><sodipodi:namedview
     pagecolor="#ffffff"
     bordercolor="#666666"
     borderopacity="1"
     objecttolerance="10"
     gridtolerance="10"
     guidetolerance="10"
     inkscape:pageopacity="0"
     inkscape:pageshadow="2"
     inkscape:window-width="1920"
     inkscape:window-height="1053"
     id="namedview4506"
     showgrid="false"
     inkscape:zoom="0.93666667"
     inkscape:cx="212.90911"
     inkscape:cy="191.5047"
     inkscape:window-x="1920"
     inkscape:window-y="0"
     inkscape:window-maximized="1"
     inkscape:current-layer="Layer_3"
     fit-margin-top="0"
     fit-margin-left="0"
     fit-margin-right="0"
     fit-margin-bottom="0" /><g
     id="g4171"
     transform="matrix(0,1,-1,0,808.38421,-227.81382)"><path
       d="m 470.246,657.13 c 1.977,-12.979 16.686,-24.164 21.121,-37.01 6.881,-19.927 6.537,-40.528 -0.412,-60.223 -7.848,-22.246 -19.85,-43.029 -27.064,-65.457 -6.451,-20.056 15.498,-45.24 10.598,-68.066 -7.42,-34.55 -78.886,-21.263 -70.877,-68.704 2.148,-12.727 12.92,-20.742 14.064,-33.184 13.812,5.591 32.105,0.567 29.926,-17.775 -0.215,-1.706 -1.391,-9.452 -5.172,-8.84 -6.613,1.778 -6,13.392 -14.732,14.15 -16.094,0.825 -14.057,-8.442 -24.344,-22.049 -3.096,-4.206 -3.708,-11.181 -4.974,-16.062 -2.286,-8.818 -4.857,-17.65 -6.565,-26.604 0.094,0.506 7.332,-5.729 6.829,-4.84 6.62,-11.928 -28.026,-18.271 -36.667,-18.279 -5.168,-0.019 -32.854,4.537 -36.142,9.977 -3.35,5.584 -0.131,11.304 6.196,12.726 -0.166,-0.035 -6.424,29.305 -8.399,34.22 -8.981,22.348 -18.938,47.627 -43.802,28.4 -2.987,-2.244 -7.789,-5.204 -9.441,-0.247 -6.843,21.117 24.014,26.815 36.091,17.347 2.102,12.604 11.944,18.093 14.134,31.063 6.916,40.967 -46.161,36.53 -64.572,55.802 -25.819,27.027 15.215,58.946 3.037,82.904 -17.764,34.95 -36.51,65.704 -29.912,106.927 2.114,13.206 7.108,25.25 14.721,36.198 11.504,16.544 10.971,26.287 5.471,45.697 -11.733,41.408 16.262,62.499 55.952,69.14 15.742,2.633 43.546,-7.915 50.045,8.418 6.782,17.041 19.741,32.465 37.72,37.825 7.907,2.358 16.188,2.856 24.329,1.47 4.323,7.13 13.292,7.233 20.335,5.163 10.477,-3.079 21.113,-10.962 22.99,-22.296 -2.998,2.308 -3.803,3.839 -8.623,5.391 4.973,-4.816 8.41,-11 9.904,-17.722 -2.092,2.823 -9.271,8.877 -9.621,9.281 1.16,-7.79 1.141,-15.522 -0.645,-23.225 -1.391,8.292 -2.287,17.352 -6.953,24.594 -0.092,-3.554 -1.891,-6.73 -2.301,-10.196 1.852,22.141 -18.961,1.121 -26.354,17.13 -7.072,15.317 -54.035,-15.156 -45.337,-36.646 27.343,8.868 59.572,4.253 84.042,-10.458 41.791,-25.125 9.926,-49.941 15.404,-85.94 0.803,-5.279 -1.383,9.09 0,0 z"
       id="path4173"
       inkscape:connector-curvature="0"
       style="opacity:0.4" /><g
       id="g4175"><g
         id="g4177"><g
           id="g4179"><g
             id="g4181"><linearGradient
               id="SVGID_1_"
               gradientUnits="userSpaceOnUse"
               x1="656.4209"
               y1="160.83791"
               x2="334.27829"
               y2="698.89221"><stop
                 offset="0"
                 style="stop-color:#F4F4F4"
                 id="stop4184" /><stop
                 offset="1"
                 style="stop-color:#D2D2D2"
                 id="stop4186" /></linearGradient><path
               stroke-miterlimit="10"
               d="m 571.3,673.754 c 0,-17.912 -13.933,-41.743 -11.006,-60.967 2.927,-19.224 30.479,-22.557 30.479,-85.285 0,-25.497 -38.948,-97.169 -38.948,-108.166 0,-10.997 14.395,-35.801 14.395,-63.605 0,-44 -45.72,-28.731 -66.886,-52.731 -21.168,-24 -18.628,-32.667 -12.278,-52.333 0,-26.333 -30.004,-40.333 -51.222,-40.333 -21.221,0 -51.224,14 -51.224,40.333 6.35,19.667 8.892,28.333 -12.275,52.333 -21.168,24 -66.888,7.231 -66.888,52.731 0,27.804 14.394,52.609 14.394,63.605 0,10.996 -38.946,53.395 -38.946,108.166 0,57.229 27.968,68.509 30.48,85.285 2.512,16.776 -11.008,43.055 -11.008,60.967 0,33.618 66.354,62.884 120.084,49.568 4.211,2.784 6.523,6.891 8.471,11.785 3.791,9.523 9.1,17.275 15.545,25.258 7.291,9.029 16.25,14.66 27.572,18.036 23.697,7.067 44.768,-1.31 64.795,-14.067 0,0 -1.043,-5 -7.668,-1.667 C 489.5,783 456.5,765.001 447.168,744.334 442.606,734.232 443.383,727.642 445.365,723.536 501.221,742.231 571.3,708.521 571.3,673.754 z"
               id="path4188"
               style="fill:url(#SVGID_1_);stroke:#6d6d6d;stroke-width:2;stroke-miterlimit:10"
               inkscape:connector-curvature="0" /><linearGradient
               id="SVGID_2_"
               gradientUnits="userSpaceOnUse"
               x1="430.34961"
               y1="246.3345"
               x2="430.34961"
               y2="283.91769"><stop
                 offset="0"
                 style="stop-color:#070707"
                 id="stop4191" /><stop
                 offset="1"
                 style="stop-color:#070707;stop-opacity:0"
                 id="stop4193" /></linearGradient><path
               d="m 427.79,279.668 c 19.739,-4.869 39.77,-6.108 54.783,-7.382 -0.325,-6.57 1.717,-13.051 4.482,-21.619 0,-26.333 -30.004,-40.333 -51.222,-40.333 -21.221,0 -51.224,14 -51.224,40.333 6.215,19.247 8.766,27.968 -10.968,50.826 15.898,-8.104 36.327,-17.429 54.149,-21.825 z"
               id="path4195"
               style="fill:url(#SVGID_2_)"
               inkscape:connector-curvature="0" /></g><g
             id="g4197"><defs
               id="defs4199"><path
                 id="SVGID_3_"
                 d="m 571.3,673.754 c 0,-17.912 -13.933,-41.743 -11.006,-60.967 2.927,-19.224 30.479,-22.557 30.479,-85.285 0,-25.497 -38.948,-97.169 -38.948,-108.166 0,-10.997 14.395,-35.801 14.395,-63.605 0,-44 -45.72,-28.731 -66.886,-52.731 -21.168,-24 -18.628,-32.667 -12.278,-52.333 0,-26.333 -30.004,-40.333 -51.222,-40.333 -21.221,0 -51.224,14 -51.224,40.333 6.35,19.667 8.892,28.333 -12.275,52.333 -21.168,24 -66.888,7.231 -66.888,52.731 0,27.804 14.394,52.609 14.394,63.605 0,10.996 -38.946,53.395 -38.946,108.166 0,57.229 27.968,68.509 30.48,85.285 2.512,16.776 -11.008,43.055 -11.008,60.967 0,33.618 66.354,62.884 120.084,49.568 4.211,2.784 6.523,6.891 8.471,11.785 3.791,9.523 9.1,17.275 15.545,25.258 7.291,9.029 16.25,14.66 27.572,18.036 23.697,7.067 44.768,-1.31 64.795,-14.067 0,0 -1.043,-5 -7.668,-1.667 C 489.5,783 456.5,765.001 447.168,744.334 442.606,734.232 443.383,727.642 445.365,723.536 501.221,742.231 571.3,708.521 571.3,673.754 z"
                 inkscape:connector-curvature="0" /></defs><clipPath
               id="SVGID_4_"><use
                 xlink:href="#SVGID_3_"
                 overflow="visible"
                 id="use4203"
                 style="overflow:visible"
                 x="0"
                 y="0"
                 width="900"
                 height="900" /></clipPath><g
               clip-path="url(#SVGID_4_)"
               id="g4205"><linearGradient
                 id="SVGID_5_"
                 gradientUnits="userSpaceOnUse"
                 x1="248.2979"
                 y1="690.37939"
                 x2="530.90802"
                 y2="50.611801"><stop
                   offset="0"
                   style="stop-color:#1E1E1E"
                   id="stop4208" /><stop
                   offset="1"
                   style="stop-color:#333333"
                   id="stop4210" /></linearGradient><path
                 d="m 303.22,685.565 c 24.304,-14.634 77.303,-37.742 61.227,-74.364 -4.683,-10.668 -17.005,-23.042 -13.594,-35.697 2.744,-10.183 15.066,-15.273 23.126,-20.482 8.421,-5.441 15.239,-12.316 22.499,-19.194 4.659,-4.414 11.323,-9.046 14.235,-14.886 4.396,-8.816 2.931,-16.344 -0.874,-25.119 -3.662,-8.448 -0.535,-16.634 -3.092,-24.941 -1.733,-5.631 -7.346,-9.755 -11.744,-13.103 -6.766,-5.148 -10.418,-8.511 -15.632,-14.908 -5.884,-7.219 -13.805,-11.576 -23.37,-11.986 -11.26,-0.482 -20.055,7.419 -30.451,9.899 -22.089,5.27 -42.258,8.612 -59.308,24.631 -19.345,18.175 -31.25,42.866 -40.698,67.286 -4.994,12.907 -8.595,26.371 -9.126,40.261 -1.336,34.963 20.501,56.098 36.136,84.604 l 50.666,27.999 z"
                 id="path4212"
                 style="fill:url(#SVGID_5_)"
                 inkscape:connector-curvature="0" /><linearGradient
                 id="SVGID_6_"
                 gradientUnits="userSpaceOnUse"
                 x1="450.41599"
                 y1="776.91357"
                 x2="704.4151"
                 y2="201.91521"><stop
                   offset="0"
                   style="stop-color:#1E1E1E"
                   id="stop4215" /><stop
                   offset="1"
                   style="stop-color:#333333"
                   id="stop4217" /></linearGradient><path
                 d="m 464.342,694.924 c -3.756,-4.96 -5.221,-9.943 -2.859,-15.899 2.023,-5.105 7.072,-7.277 9.225,-12.202 3.676,-8.417 -5.438,-14.979 -7.602,-22.613 -2.564,-9.045 -2.84,-19.293 5.168,-25.384 7.723,-5.875 13.111,-7.303 15.924,-17.501 1.523,-5.522 1.242,-9.965 5.885,-14.336 5.018,-4.726 15.203,-7.202 22.006,-6.844 13.938,0.735 16.641,13.955 18.973,25.334 1.826,8.907 0.656,15.622 6.25,23.251 3.428,4.673 9.783,7.092 12.379,12.096 4.889,9.429 0.826,24.785 -1.334,34.559 -2.812,12.725 -6.33,15.687 -16.994,21.791 -7.699,4.406 -14.721,10.352 -25.053,10.352 -10.335,-10e-4 -36.572,-5.481 -41.968,-12.604 z"
                 id="path4219"
                 style="fill:url(#SVGID_6_)"
                 inkscape:connector-curvature="0" /><linearGradient
                 id="SVGID_7_"
                 gradientUnits="userSpaceOnUse"
                 x1="399.5596"
                 y1="675.19482"
                 x2="618.7251"
                 y2="179.0519"
                 gradientTransform="matrix(0.9986,0.0521,-0.0521,0.9986,22.0206,-26.0031)"><stop
                   offset="0"
                   style="stop-color:#1E1E1E"
                   id="stop4222" /><stop
                   offset="1"
                   style="stop-color:#333333"
                   id="stop4224" /></linearGradient><path
                 d="m 527.952,527.317 c -8.329,-0.435 -18.983,-9.444 -31.544,-8.14 -10.807,1.123 -37.851,6.525 -41.673,-8.517 -2.931,-11.524 10.055,-20.721 1.651,-31.672 -8.442,-11.002 -18.312,-16.223 -22.375,-30.333 -2.82,-9.792 1.294,-16.681 0.933,-26.009 -0.243,-6.309 -3.867,-9.506 1.072,-15.114 7.66,-8.699 27.435,-7.82 28.532,-22.078 0.443,-5.768 -3.392,-12.227 -3.854,-18.143 -0.67,-8.575 2.469,-17.417 10,-22.256 13.737,-8.826 44.569,-0.546 53.588,12.078 8.563,11.99 -4.188,18.349 -2.245,30.496 1.045,6.527 4.157,16.582 6.961,22.813 1.66,3.692 4.75,6.438 6.385,10.274 3.477,8.157 -1.959,11.756 -2.791,19.697 -0.729,6.962 3.387,12.964 7.744,18 14.6,16.87 19.22,31.241 8.423,50.118 -1.64,2.867 -4.435,19.64 -20.807,18.786 z"
                 id="path4226"
                 style="fill:url(#SVGID_7_)"
                 inkscape:connector-curvature="0" /><linearGradient
                 id="SVGID_8_"
                 gradientUnits="userSpaceOnUse"
                 x1="360.40479"
                 y1="736.95752"
                 x2="614.4032"
                 y2="161.9606"><stop
                   offset="0"
                   style="stop-color:#1E1E1E"
                   id="stop4229" /><stop
                   offset="1"
                   style="stop-color:#333333"
                   id="stop4231" /></linearGradient><path
                 d="m 321.162,720.837 c 2.814,-12.044 5.398,-27.502 19.426,-31.197 7.506,-1.979 24.36,2.684 25.105,-8.419 0.279,-4.151 -4.091,-7.19 -1.905,-11.562 2.248,-4.497 8.37,-4.131 12.763,-4.657 13.981,-1.676 27.947,-2.569 31.127,13.795 1.035,5.326 0.072,11.16 1.953,16.176 3.33,8.888 10.947,12.545 7.658,23.668 -3.516,11.883 -15.325,27.553 -26.491,33.757 -19.042,10.58 -43.081,3.728 -57.637,-10.893 l -11.999,-20.668 z"
                 id="path4233"
                 style="fill:url(#SVGID_8_)"
                 inkscape:connector-curvature="0" /><linearGradient
                 id="SVGID_9_"
                 gradientUnits="userSpaceOnUse"
                 x1="360.8262"
                 y1="739.43018"
                 x2="614.82507"
                 y2="164.4321"><stop
                   offset="0"
                   style="stop-color:#1E1E1E"
                   id="stop4236" /><stop
                   offset="1"
                   style="stop-color:#333333"
                   id="stop4238" /></linearGradient><path
                 d="m 394.631,602.816 c -0.078,-9.135 13.072,-16.479 20.705,-18.153 8.165,-1.792 11.591,4.185 18.812,4.519 7.643,0.354 10.533,-2.258 13.67,6.148 2.795,7.498 -0.434,10.844 -5.115,16.096 -4.469,5.016 -5.963,6.109 -7.357,11.225 -1.213,4.455 -2.199,12.844 -9.361,9.507 -9.247,-4.31 -31.267,-19.288 -31.354,-29.342 z"
                 id="path4240"
                 style="fill:url(#SVGID_9_)"
                 inkscape:connector-curvature="0" /><linearGradient
                 id="SVGID_10_"
                 gradientUnits="userSpaceOnUse"
                 x1="252.58839"
                 y1="668.67242"
                 x2="506.58771"
                 y2="93.673401"><stop
                   offset="0"
                   style="stop-color:#1E1E1E"
                   id="stop4243" /><stop
                   offset="1"
                   style="stop-color:#333333"
                   id="stop4245" /></linearGradient><path
                 d="m 388.076,300.118 c 2.429,2.155 7.646,-0.606 11.334,-0.68 4.266,-0.085 9.013,0.985 13.332,1.346 7.145,0.597 13.773,0.561 20.816,-0.815 15.549,-3.037 19.617,-16.741 32.553,-23.384 5.666,-2.909 12.611,-2.166 18.631,-3.785 6.498,-1.75 12.867,-7.739 16.699,-13.349 20.258,-29.652 -29.896,-45.267 -50.152,-48.031 -12.467,-1.701 -24.795,-0.461 -36.693,3.349 -26.115,8.362 -44.252,25.333 -52.52,52.015 l 26,33.334 z"
                 id="path4247"
                 style="fill:url(#SVGID_10_)"
                 inkscape:connector-curvature="0" /><linearGradient
                 id="SVGID_11_"
                 gradientUnits="userSpaceOnUse"
                 x1="211.91701"
                 y1="754.0083"
                 x2="527.70007"
                 y2="39.144299"
                 gradientTransform="matrix(0.5728,-0.8197,0.8197,0.5728,-135.9954,481.0548)"><stop
                   offset="0"
                   style="stop-color:#1E1E1E"
                   id="stop4250" /><stop
                   offset="1"
                   style="stop-color:#333333"
                   id="stop4252" /></linearGradient><path
                 d="m 408.412,359.962 c 4.092,11.86 16.888,22.302 10.391,35.626 -5.899,12.1 -20.649,16.615 -29.757,6.197 -8.43,-9.641 -8.724,-13.097 -21.198,-15.567 -6.298,-1.248 -15.137,-3.113 -19.031,-8.98 -10.322,-15.554 7.081,-41.037 24.472,-40.804 6.084,0.081 11.892,3.827 17.971,4.74 9.166,1.38 17.152,18.788 17.152,18.788 z"
                 id="path4254"
                 style="fill:url(#SVGID_11_)"
                 inkscape:connector-curvature="0" /></g></g><g
             id="g4256"
             style="opacity:0.4"><linearGradient
               id="SVGID_12_"
               gradientUnits="userSpaceOnUse"
               x1="552.89551"
               y1="385.94189"
               x2="501.95749"
               y2="471.02039"><stop
                 offset="0"
                 style="stop-color:#070707"
                 id="stop4259" /><stop
                 offset="1"
                 style="stop-color:#070707;stop-opacity:0"
                 id="stop4261" /></linearGradient><path
               d="m 551.825,419.336 c 0,-1.971 0.469,-3.998 1.229,-6.154 -12.309,5.807 -25.51,10.335 -40.135,12.629 -16.128,2.529 -33.232,2.396 -49.172,5.386 -8.801,1.651 -14.786,9.738 -6.145,15.582 5.422,3.667 13.565,5.954 20.271,7.555 21.654,5.173 43.646,8.601 66.109,11.444 8.319,1.053 17.69,2.04 27.503,2.634 -9.797,-22.645 -19.66,-43.542 -19.66,-49.076 z"
               id="path4263"
               style="fill:url(#SVGID_12_)"
               inkscape:connector-curvature="0" /><linearGradient
               id="SVGID_13_"
               gradientUnits="userSpaceOnUse"
               x1="388.88281"
               y1="382.3208"
               x2="333.22781"
               y2="475.2778"><stop
                 offset="0"
                 style="stop-color:#070707"
                 id="stop4266" /><stop
                 offset="1"
                 style="stop-color:#070707;stop-opacity:0"
                 id="stop4268" /></linearGradient><path
               d="m 396.523,422.394 c -21.991,-3.254 -41.577,-6.432 -61.165,-15.417 -8.595,-3.943 -16.897,-8.299 -25.083,-12.785 4.184,11.059 9.565,18.419 9.565,25.145 0,4.725 -9.864,19.14 -19.936,38.57 7.229,-0.198 19.021,0.458 26.372,0.844 10.309,0.543 20.671,1.018 30.999,1.471 20.955,0.921 57.198,4.701 65.959,-16.294 5.657,-13.555 -13.366,-19.559 -26.711,-21.534 z"
               id="path4270"
               style="fill:url(#SVGID_13_)"
               inkscape:connector-curvature="0" /><linearGradient
               id="SVGID_14_"
               gradientUnits="userSpaceOnUse"
               x1="391.14749"
               y1="546.83252"
               x2="322.32159"
               y2="661.78802"><stop
                 offset="0"
                 style="stop-color:#070707"
                 id="stop4273" /><stop
                 offset="1"
                 style="stop-color:#070707;stop-opacity:0"
                 id="stop4275" /></linearGradient><path
               d="m 400.47,589.703 c -14.161,-4.396 -36.419,1.692 -50.853,2.63 -14.506,0.942 -34.487,1.465 -49.04,0.748 3.167,6.418 11.644,13.484 11.644,23.484 0,6.71 -5.131,19.229 -8.201,37.455 8.233,-1.919 14.285,-3.951 21.969,-5.701 20.18,-4.597 40.533,-8.601 59.819,-15.208 12.301,-4.214 24.974,-8.974 27.794,-20.23 2.031,-8.118 -2.491,-19.874 -13.132,-23.178 z"
               id="path4277"
               style="fill:url(#SVGID_14_)"
               inkscape:connector-curvature="0" /><linearGradient
               id="SVGID_15_"
               gradientUnits="userSpaceOnUse"
               x1="575.3584"
               y1="540.73102"
               x2="523.06848"
               y2="628.06738"><stop
                 offset="0"
                 style="stop-color:#070707"
                 id="stop4280" /><stop
                 offset="1"
                 style="stop-color:#070707;stop-opacity:0"
                 id="stop4282" /></linearGradient><path
               d="m 560.294,612.788 c 0.26,-6.223 15.528,-23.855 23.139,-39.356 -11.309,0.974 -30.604,1.501 -42.062,2.358 -21.59,1.615 -52.172,2.162 -48.954,25.095 1.786,12.721 16.674,21.695 29.215,28.502 9.941,5.396 19.76,7.688 31.301,9.979 3.331,0.661 6.537,2.565 12.595,4.454 -6.64,-19.255 -5.464,-25.544 -5.234,-31.032 z"
               id="path4284"
               style="fill:url(#SVGID_15_)"
               inkscape:connector-curvature="0" /></g><linearGradient
             id="SVGID_16_"
             gradientUnits="userSpaceOnUse"
             x1="453.64551"
             y1="691.57373"
             x2="428.64529"
             y2="737.23932"><stop
               offset="0"
               style="stop-color:#070707"
               id="stop4287" /><stop
               offset="1"
               style="stop-color:#070707;stop-opacity:0"
               id="stop4289" /></linearGradient><path
             d="m 445.113,724.102 c -8.861,-3.526 -20.283,-2.289 -26.143,-0.86 0.496,0.025 0.98,0.058 1.48,0.081 4.211,2.784 6.523,6.891 8.471,11.785 1.957,4.915 4.324,9.354 7.037,13.601 2.863,-4.929 6.123,-7.905 9.135,-9.843 -2.021,-6.697 -1.404,-11.465 0.02,-14.764 z"
             id="path4291"
             style="fill:url(#SVGID_16_)"
             inkscape:connector-curvature="0" /><linearGradient
             id="SVGID_17_"
             gradientUnits="userSpaceOnUse"
             x1="503.30081"
             y1="772.71918"
             x2="491.96759"
             y2="784.71942"><stop
               offset="0"
               style="stop-color:#070707"
               id="stop4294" /><stop
               offset="1"
               style="stop-color:#070707;stop-opacity:0"
               id="stop4296" /></linearGradient><path
             d="m 516.238,775.284 c -0.328,-2.323 -0.66,-4.643 -0.99,-6.917 -9.273,2.86 -18.02,3.673 -25.998,2.965 -1.223,2.951 -2.326,6.206 -3.047,9.551 10.449,0.568 20.408,-1.655 30.035,-5.599 z"
             id="path4298"
             style="fill:url(#SVGID_17_)"
             inkscape:connector-curvature="0" /><path
             stroke-miterlimit="10"
             d="m 571.3,673.754 c 0,-17.912 -13.933,-41.743 -11.006,-60.967 2.927,-19.224 30.479,-22.557 30.479,-85.285 0,-25.497 -38.948,-97.169 -38.948,-108.166 0,-10.997 14.395,-35.801 14.395,-63.605 0,-44 -45.72,-28.731 -66.886,-52.731 -21.168,-24 -18.628,-32.667 -12.278,-52.333 0,-26.333 -30.004,-40.333 -51.222,-40.333 -21.221,0 -51.224,14 -51.224,40.333 6.35,19.667 8.892,28.333 -12.275,52.333 -21.168,24 -66.888,7.231 -66.888,52.731 0,27.804 14.394,52.609 14.394,63.605 0,10.996 -38.946,53.395 -38.946,108.166 0,57.229 27.968,68.509 30.48,85.285 2.512,16.776 -11.008,43.055 -11.008,60.967 0,33.618 66.354,62.884 120.084,49.568 4.211,2.784 6.523,6.891 8.471,11.785 3.791,9.523 9.1,17.275 15.545,25.258 7.291,9.029 16.25,14.66 27.572,18.036 23.697,7.067 44.768,-1.31 64.795,-14.067 0,0 -1.043,-5 -7.668,-1.667 C 489.5,783 456.5,765.001 447.168,744.334 442.606,734.232 443.383,727.642 445.365,723.536 501.221,742.231 571.3,708.521 571.3,673.754 z"
             id="path4300"
             inkscape:connector-curvature="0"
             style="fill:none;stroke:#6d6d6d;stroke-width:2;stroke-miterlimit:10" /><g
             id="g4302"><linearGradient
               id="SVGID_18_"
               gradientUnits="userSpaceOnUse"
               x1="456.75"
               y1="464.86179"
               x2="642.28333"
               y2="333.86551"><stop
                 offset="0"
                 style="stop-color:#FFFFFF;stop-opacity:0"
                 id="stop4305" /><stop
                 offset="1"
                 style="stop-color:#FFFFFF"
                 id="stop4307" /></linearGradient><path
               d="m 446.864,306.834 c 19.449,3.5 91.84,37.672 91.84,56.086 0,18.414 -17.146,56.245 -14.605,66.58 2.541,10.335 43.815,85.467 43.815,108.151 0,22.684 -31.115,34.684 -45.72,34.684 -14.605,0 -51.436,-22.686 -51.436,-38.093 0,-15.407 10.795,-87.407 11.43,-99.907 0.636,-12.5 29.21,-45.944 13.971,-72.472 -15.24,-26.529 -36.994,-47.529 -49.295,-55.029 z"
               id="path4309"
               style="opacity:0.5;fill:url(#SVGID_18_)"
               inkscape:connector-curvature="0" /><linearGradient
               id="SVGID_19_"
               gradientUnits="userSpaceOnUse"
               x1="510.4902"
               y1="668.54352"
               x2="531.0835"
               y2="615.08228"><stop
                 offset="0"
                 style="stop-color:#FFFFFF;stop-opacity:0"
                 id="stop4312" /><stop
                 offset="1"
                 style="stop-color:#FFFFFF"
                 id="stop4314" /></linearGradient><path
               d="m 475.628,663.467 c 0,-11.8 27.435,-14.8 39.539,-12.133 12.106,2.667 34.543,7.599 34.543,12.133 0,4.534 -29.186,2.534 -42.322,2.534 -13.134,0 -31.76,3.163 -31.76,-2.534 z"
               id="path4316"
               style="opacity:0.5;fill:url(#SVGID_19_)"
               inkscape:connector-curvature="0" /></g><linearGradient
             id="SVGID_20_"
             gradientUnits="userSpaceOnUse"
             x1="498.30179"
             y1="762.04742"
             x2="550.03119"
             y2="762.04742"><stop
               offset="0"
               style="stop-color:#333333"
               id="stop4319" /><stop
               offset="1"
               style="stop-color:#1E1E1E"
               id="stop4321" /></linearGradient><path
             stroke-miterlimit="10"
             d="m 500.076,779.168 c -4.572,-7.882 0.143,-17.125 8.982,-18.736 17.139,-3.126 17.82,9.871 20.301,-7.81 0.971,3.865 2.691,7.968 -0.207,11.447 7.199,-7.19 8.973,-18.102 10.629,-27.432 1.846,11.218 0.686,13.997 -0.699,24.372 3.262,-4.121 6.912,-7.907 10.949,-11.361 -1.564,6.493 -7.943,15.825 -13.658,19.696 4.688,-0.662 8.791,-2.499 12.312,-5.511 -3.408,16.844 -39.466,34.405 -48.609,15.335 z"
             id="path4323"
             style="fill:url(#SVGID_20_);stroke:#03080c;stroke-width:2;stroke-miterlimit:10"
             inkscape:connector-curvature="0" /></g><g
           id="g4325"><linearGradient
             id="SVGID_21_"
             gradientUnits="userSpaceOnUse"
             x1="505.57709"
             y1="79.9487"
             x2="194.2444"
             y2="599.948"><stop
               offset="0"
               style="stop-color:#F4F4F4"
               id="stop4328" /><stop
               offset="1"
               style="stop-color:#D2D2D2"
               id="stop4330" /></linearGradient><path
             stroke-miterlimit="10"
             d="m 435.625,111.666 c 16,0 22.668,6.667 22.668,6.667 0,0 15.332,-3.665 18.998,6.002 3.668,9.667 -7.332,11.667 -8.332,11.667 -1,0 10.119,41.512 11.666,48 1.547,6.488 18.666,16.667 18.666,40 0,23.333 -24.906,41.333 -63.666,41.333 -38.759,0 -63.667,-18 -63.667,-41.333 0,-23.333 17.12,-33.512 18.667,-40 1.546,-6.488 12.666,-48 11.666,-48 -1,0 -12,-2 -8.333,-11.667 3.667,-9.667 19,-6.002 19,-6.002 0,0 6.667,-6.667 22.667,-6.667 z"
             id="path4332"
             style="fill:url(#SVGID_21_);stroke:#6d6d6d;stroke-width:2;stroke-miterlimit:10"
             inkscape:connector-curvature="0" /><linearGradient
             id="SVGID_22_"
             gradientUnits="userSpaceOnUse"
             x1="395.25781"
             y1="286.897"
             x2="464.59131"
             y2="164.5632"><stop
               offset="0"
               style="stop-color:#1E1E1E"
               id="stop4335" /><stop
               offset="1"
               style="stop-color:#333333"
               id="stop4337" /></linearGradient><path
             d="m 477.7,256.012 c -0.232,-0.789 -0.442,-1.574 -0.562,-2.357 -1.247,-8.237 5.414,-20.661 -1.534,-26.722 -3.204,-2.795 -8.262,-4.803 -12.466,-5.384 -4.583,-0.633 -5.947,2.327 -9.586,3.015 -3.576,0.676 -6.092,-1.968 -8.71,-3.723 -5.268,-3.529 -11.372,-4.358 -17.723,-4.276 -6.062,0.079 -11.994,0.899 -17.057,4.326 -3.638,2.461 -5.827,8.026 -9.607,10.048 -7.757,4.149 -10.085,-11.777 -12.57,-15.707 -2.969,-4.697 -8.01,-6.774 -13.021,-6.933 -1.743,4.457 -2.907,9.631 -2.907,15.703 0,23.333 24.907,41.333 63.667,41.333 17.003,-10e-4 31.338,-3.465 42.076,-9.323 z"
             id="path4339"
             style="fill:url(#SVGID_22_)"
             inkscape:connector-curvature="0" /><g
             id="g4341"><linearGradient
               id="SVGID_23_"
               gradientUnits="userSpaceOnUse"
               x1="364.88431"
               y1="254.853"
               x2="430.88541"
               y2="92.349998"><stop
                 offset="0"
                 style="stop-color:#1E1E1E"
                 id="stop4344" /><stop
                 offset="1"
                 style="stop-color:#333333"
                 id="stop4346" /></linearGradient><path
               d="m 430.391,130.688 c -9.699,-7.976 -24.842,-10.31 -36.679,-5.629 -2.857,9.041 7.605,10.943 8.58,10.943 0.716,0 -4.783,21.288 -8.531,35.757 1.176,-1.25 2.223,-2.667 2.879,-3.392 6.572,-7.267 13.024,-8.629 22.557,-7.367 5.316,0.704 11.025,-1.187 8.773,-7.387 -1.406,-3.868 -0.525,-4.541 2.707,-7.082 4.993,-3.925 4.61,-11.814 -0.286,-15.843 z"
               id="path4348"
               style="fill:url(#SVGID_23_)"
               inkscape:connector-curvature="0" /></g><path
             stroke-miterlimit="10"
             d="m 435.625,111.666 c 16,0 22.668,6.667 22.668,6.667 0,0 15.332,-3.665 18.998,6.002 3.668,9.667 -7.332,11.667 -8.332,11.667 -1,0 10.119,41.512 11.666,48 1.547,6.488 18.666,16.667 18.666,40 0,23.333 -24.906,41.333 -63.666,41.333 -38.759,0 -63.667,-18 -63.667,-41.333 0,-23.333 17.12,-33.512 18.667,-40 1.546,-6.488 12.666,-48 11.666,-48 -1,0 -12,-2 -8.333,-11.667 3.667,-9.667 19,-6.002 19,-6.002 0,0 6.667,-6.667 22.667,-6.667 z"
             id="path4350"
             inkscape:connector-curvature="0"
             style="fill:none;stroke:#6d6d6d;stroke-width:2;stroke-miterlimit:10" /><g
             id="g4352"><linearGradient
               id="SVGID_24_"
               gradientUnits="userSpaceOnUse"
               x1="441.20801"
               y1="211.3447"
               x2="464.95801"
               y2="179.3447"><stop
                 offset="0"
                 style="stop-color:#070707"
                 id="stop4355" /><stop
                 offset="1"
                 style="stop-color:#070707;stop-opacity:0"
                 id="stop4357" /></linearGradient><path
               d="m 406.889,225.422 c -0.225,-1.417 0.803,-3.331 1.539,-5.136 2.928,-7.182 5.391,-15.525 10.906,-21.949 11.17,-12.733 25.037,-17.521 28.896,-19.234 -3.914,3.685 -8.594,6.388 -12.426,10.426 -3.596,3.787 -9.697,12.118 -9.697,12.118 0,0 18.801,-16.84 29.324,-15.244 -7.195,3.99 -13.039,11.124 -13.039,11.124 0,0 16.104,-5.219 21.934,-1.867 -3.863,0.751 -7.721,2.907 -11.574,5.042 5.891,0.281 15.199,3.328 15.199,3.328 0,0 -9.137,3.134 -11.047,6.951 -1.051,3.511 2.746,11.332 6.604,12.928"
               id="path4359"
               style="fill:url(#SVGID_24_)"
               inkscape:connector-curvature="0" /><g
               id="g4361"><linearGradient
                 id="SVGID_25_"
                 gradientUnits="userSpaceOnUse"
                 x1="396.64651"
                 y1="287.68411"
                 x2="465.98001"
                 y2="165.3503"><stop
                   offset="0"
                   style="stop-color:#1E1E1E"
                   id="stop4364" /><stop
                   offset="1"
                   style="stop-color:#333333"
                   id="stop4366" /></linearGradient><path
                 d="m 406.002,226.622 c -0.648,-1.48 -0.553,-4.732 -0.357,-6.617 0.777,-7.5 4.742,-16.212 8.334,-22.92 7.357,-13.296 19.791,-18.296 23.137,-20.085 -2.809,3.848 -6.68,6.671 -9.305,10.887 -2.459,3.955 -6.066,12.654 -6.066,12.654 0,0 13.758,-17.585 24.758,-15.919 -6,4.167 -9.707,11.616 -9.707,11.616 0,0 14.541,-5.45 21.373,-1.95 -3.637,0.784 -6.85,3.036 -10.062,5.266 5.975,0.294 16.195,3.476 16.195,3.476 0,0 -8.199,3.273 -8.965,7.259 0,3.667 6.498,13.087 10.832,14.754"
                 id="path4368"
                 style="fill:url(#SVGID_25_)"
                 inkscape:connector-curvature="0" /></g><g
               id="g4370"><path
                 d="m 448.105,202.387 c 3.711,0.183 9.059,1.479 12.58,2.436 1.92,-1.112 3.615,-1.793 3.615,-1.793 0,0 -6.83,-2.126 -12.588,-3.062 -1.216,0.758 -2.411,1.59 -3.607,2.419 z"
                 id="path4372"
                 inkscape:connector-curvature="0"
                 style="fill:#4f4f4f" /><path
                 d="m 436.795,199.071 c 0,0 9.621,-3.605 16.889,-3.067 1.439,-0.761 2.922,-1.379 4.484,-1.716 -5.227,-2.677 -14.957,-0.119 -19.244,1.232 -1.373,2.039 -2.129,3.551 -2.129,3.551 z"
                 id="path4374"
                 inkscape:connector-curvature="0"
                 style="fill:#4f4f4f" /><path
                 d="m 405.645,222.838 c 0.777,-7.5 4.742,-16.212 8.334,-22.92 5.309,-9.593 13.244,-14.854 18.518,-17.72 1.613,-1.676 3.244,-3.314 4.619,-5.198 -3.346,1.789 -15.779,6.789 -23.137,20.085 -3.592,6.708 -7.557,15.42 -8.334,22.92 -0.117,1.129 -0.195,2.745 -0.102,4.181 0.027,-0.487 0.061,-0.952 0.102,-1.348 z"
                 id="path4376"
                 inkscape:connector-curvature="0"
                 style="fill:#4f4f4f" /><path
                 d="m 424.295,197.567 c -1.424,3.088 -2.551,5.807 -2.551,5.807 0,0 11.135,-14.225 21.379,-15.869 1.023,-1.037 2.15,-2.03 3.379,-2.883 -8.113,-1.229 -17.719,8.009 -22.207,12.945 z"
                 id="path4378"
                 inkscape:connector-curvature="0"
                 style="fill:#4f4f4f" /></g><g
               id="g4380"><path
                 d="m 406.002,226.622 c -0.479,-1.214 -0.544,-2.55 -0.586,-3.845 -0.019,-1.294 0.017,-2.626 0.23,-3.906 0.093,-0.644 0.159,-1.289 0.274,-1.931 l 0.417,-1.92 c 0.25,-1.292 0.688,-2.52 1.025,-3.785 0.425,-1.233 0.821,-2.48 1.295,-3.697 0.48,-1.213 0.938,-2.438 1.477,-3.627 0.508,-1.203 1.055,-2.389 1.618,-3.566 0.542,-1.188 1.169,-2.333 1.75,-3.501 0.702,-1.161 1.263,-2.271 2.055,-3.367 0.722,-1.121 1.534,-2.157 2.351,-3.193 0.855,-1 1.7,-2.019 2.646,-2.938 0.91,-0.957 1.897,-1.833 2.886,-2.705 l 1.527,-1.258 1.58,-1.189 c 1.073,-0.767 2.169,-1.5 3.287,-2.196 1.127,-0.682 2.267,-1.344 3.429,-1.957 l 3.454,-1.787 3.435,-1.776 -2.354,3.02 -1.126,1.443 -1.191,1.365 c -0.816,0.88 -1.634,1.744 -2.453,2.593 -0.812,0.849 -1.596,1.71 -2.349,2.584 l -1.068,1.348 -0.961,1.408 c -0.258,0.421 -0.556,1.013 -0.831,1.511 l -0.844,1.561 c -0.581,1.037 -1.01,2.103 -1.523,3.152 -0.5,1.045 -0.984,2.109 -1.448,3.196 -0.474,1.078 -0.943,2.157 -1.391,3.241 l -1.608,-0.939 c 0.82,-1.033 1.651,-1.996 2.516,-2.957 0.861,-0.956 1.747,-1.891 2.658,-2.803 1.82,-1.823 3.743,-3.555 5.802,-5.138 2.056,-1.585 4.276,-2.999 6.708,-4.069 0.617,-0.251 1.233,-0.502 1.877,-0.701 0.639,-0.203 1.29,-0.386 1.962,-0.5 0.665,-0.137 1.352,-0.202 2.039,-0.233 0.347,0.002 0.692,-0.011 1.039,0.008 l 1.041,0.105 2.31,0.232 -1.906,1.503 -1.436,1.131 c -0.235,0.193 -0.488,0.365 -0.711,0.575 l -0.658,0.646 c -0.432,0.438 -0.898,0.839 -1.303,1.308 l -1.214,1.404 c -0.405,0.467 -0.756,0.984 -1.137,1.473 -0.386,0.488 -0.727,1.008 -1.073,1.525 -0.355,0.51 -0.682,1.039 -1.002,1.572 -0.327,0.522 -0.631,1.081 -0.908,1.6 l -1.131,-1.254 c 1.773,-0.635 3.532,-1.153 5.331,-1.619 0.896,-0.232 1.801,-0.438 2.709,-0.63 0.913,-0.175 1.822,-0.364 2.748,-0.484 0.463,-0.06 0.92,-0.148 1.388,-0.183 l 1.398,-0.135 c 0.94,-0.037 1.878,-0.104 2.831,-0.045 0.475,0.012 0.949,0.026 1.427,0.102 0.478,0.075 0.955,0.084 1.43,0.217 0.475,0.125 0.951,0.223 1.419,0.375 l 1.382,0.578 2.171,0.907 -2.37,0.613 -1.307,0.338 c -0.427,0.155 -0.856,0.299 -1.282,0.46 -0.418,0.188 -0.84,0.366 -1.256,0.562 -0.409,0.215 -0.822,0.421 -1.229,0.643 -0.81,0.458 -1.608,0.947 -2.398,1.458 l -2.363,1.582 -0.364,-1.271 2.113,0.226 c 0.704,0.075 1.384,0.228 2.077,0.338 0.693,0.11 1.376,0.252 2.056,0.408 0.679,0.154 1.365,0.285 2.038,0.459 2.709,0.65 5.375,1.405 8.034,2.236 l 1.422,0.444 -1.383,0.555 c -0.888,0.356 -1.782,0.776 -2.646,1.222 -0.869,0.443 -1.712,0.932 -2.52,1.467 -0.406,0.265 -0.794,0.552 -1.172,0.85 -0.196,0.143 -0.363,0.312 -0.547,0.467 -0.186,0.154 -0.355,0.319 -0.514,0.495 -0.157,0.175 -0.342,0.334 -0.471,0.527 -0.135,0.189 -0.295,0.366 -0.411,0.564 l -0.326,0.603 -0.21,0.638 0.007,-0.066 c 0.034,0.358 0.038,0.717 0.146,1.085 0.068,0.368 0.194,0.729 0.318,1.092 0.108,0.367 0.284,0.715 0.425,1.073 0.142,0.359 0.333,0.7 0.496,1.051 0.162,0.353 0.366,0.686 0.549,1.029 0.181,0.345 0.388,0.675 0.59,1.009 0.198,0.335 0.405,0.666 0.625,0.988 0.219,0.324 0.425,0.656 0.659,0.968 0.899,1.276 1.882,2.498 2.964,3.626 0.26,0.292 0.554,0.55 0.835,0.822 0.276,0.278 0.585,0.518 0.888,0.767 0.293,0.262 0.629,0.463 0.951,0.686 0.318,0.231 0.689,0.369 1.033,0.559 -0.351,-0.173 -0.731,-0.296 -1.061,-0.513 -0.333,-0.209 -0.682,-0.398 -0.987,-0.647 -0.315,-0.237 -0.639,-0.465 -0.929,-0.732 -0.295,-0.261 -0.604,-0.508 -0.879,-0.791 -0.575,-0.541 -1.111,-1.12 -1.642,-1.704 -0.512,-0.6 -1.017,-1.208 -1.49,-1.839 -0.247,-0.308 -0.467,-0.637 -0.698,-0.957 -0.234,-0.319 -0.455,-0.646 -0.668,-0.98 -0.216,-0.331 -0.437,-0.66 -0.633,-1.004 -0.197,-0.343 -0.415,-0.675 -0.593,-1.03 -0.181,-0.354 -0.386,-0.695 -0.545,-1.062 -0.158,-0.367 -0.35,-0.717 -0.479,-1.101 -0.143,-0.376 -0.288,-0.751 -0.378,-1.155 -0.127,-0.386 -0.157,-0.816 -0.204,-1.239 l -0.003,-0.032 0.01,-0.034 0.227,-0.783 c 0.109,-0.243 0.236,-0.477 0.355,-0.716 0.128,-0.232 0.295,-0.433 0.441,-0.651 0.143,-0.224 0.33,-0.399 0.498,-0.598 0.168,-0.199 0.347,-0.383 0.537,-0.553 0.189,-0.171 0.367,-0.361 0.567,-0.517 0.39,-0.329 0.788,-0.645 1.202,-0.936 1.654,-1.178 3.418,-2.129 5.286,-2.932 l 0.038,0.999 c -2.637,-0.765 -5.311,-1.464 -7.994,-2.051 -0.669,-0.159 -1.345,-0.273 -2.017,-0.412 -0.673,-0.14 -1.346,-0.266 -2.021,-0.358 -0.675,-0.093 -1.35,-0.23 -2.022,-0.288 l -2.017,-0.175 -1.941,-0.168 1.577,-1.103 2.354,-1.646 c 0.799,-0.54 1.615,-1.062 2.455,-1.56 0.424,-0.243 0.859,-0.472 1.289,-0.708 0.44,-0.22 0.894,-0.422 1.341,-0.633 0.461,-0.187 0.931,-0.356 1.397,-0.533 l 1.452,-0.407 -0.199,1.521 -1.157,-0.454 c -0.401,-0.121 -0.825,-0.195 -1.235,-0.298 -0.407,-0.112 -0.854,-0.117 -1.277,-0.182 -0.426,-0.067 -0.865,-0.076 -1.304,-0.084 -0.873,-0.051 -1.762,0.021 -2.645,0.06 l -1.328,0.137 c -0.443,0.035 -0.885,0.124 -1.327,0.184 -0.885,0.12 -1.765,0.31 -2.645,0.484 -0.878,0.191 -1.753,0.397 -2.624,0.628 -1.733,0.461 -3.479,0.991 -5.142,1.598 l -2.21,0.809 1.079,-2.062 c 0.317,-0.605 0.62,-1.167 0.963,-1.726 0.331,-0.561 0.67,-1.117 1.038,-1.653 0.358,-0.543 0.712,-1.089 1.112,-1.604 0.396,-0.517 0.76,-1.058 1.184,-1.555 l 1.272,-1.492 c 0.425,-0.497 0.921,-0.936 1.38,-1.406 l 0.701,-0.693 c 0.238,-0.227 0.512,-0.42 0.766,-0.631 l 1.557,-1.239 0.403,1.735 -0.857,-0.08 c -0.287,-0.014 -0.578,0.002 -0.867,0 -0.579,0.032 -1.163,0.088 -1.742,0.213 -0.58,0.102 -1.157,0.268 -1.726,0.454 -0.572,0.179 -1.132,0.413 -1.691,0.644 -2.22,0.995 -4.31,2.345 -6.295,3.839 -1.982,1.503 -3.858,3.169 -5.642,4.931 -0.892,0.882 -1.762,1.787 -2.608,2.714 -0.842,0.923 -1.679,1.881 -2.445,2.835 l -4.205,5.229 2.598,-6.168 c 0.463,-1.1 0.944,-2.187 1.43,-3.271 0.471,-1.086 0.974,-2.172 1.502,-3.257 0.532,-1.072 1.005,-2.2 1.588,-3.224 l 0.854,-1.555 c 0.301,-0.534 0.531,-1.003 0.891,-1.589 l 1.05,-1.515 1.145,-1.426 c 0.797,-0.914 1.611,-1.795 2.44,-2.65 0.83,-0.849 1.644,-1.697 2.441,-2.546 l 1.15,-1.3 1.065,-1.348 1.081,1.243 -3.505,1.729 c -1.15,0.577 -2.271,1.199 -3.382,1.84 -1.102,0.655 -2.18,1.346 -3.237,2.069 l -1.558,1.124 -1.506,1.191 c -0.976,0.827 -1.952,1.658 -2.853,2.568 -0.937,0.875 -1.774,1.846 -2.626,2.8 -0.813,0.991 -1.625,1.983 -2.333,3.037 -0.759,0.994 -1.405,2.197 -2.072,3.244 -0.602,1.145 -1.238,2.274 -1.812,3.434 -0.598,1.148 -1.178,2.306 -1.72,3.48 -0.573,1.162 -1.064,2.357 -1.581,3.544 -0.509,1.189 -0.941,2.409 -1.403,3.617 -0.371,1.234 -0.851,2.45 -1.135,3.704 l -0.475,1.875 c -0.135,0.633 -0.224,1.279 -0.337,1.918 -0.255,1.28 -0.354,2.554 -0.391,3.856 -0.013,1.293 -0.01,2.61 0.415,3.847 z"
                 id="path4382"
                 inkscape:connector-curvature="0"
                 style="fill:#03080c" /></g></g><g
             id="g4384"><path
               d="m 474.77,258.726 c 0,0 -1.12,0.524 -3.081,1.44 -0.955,0.48 -2.259,0.915 -3.69,1.485 -1.438,0.601 -3.093,1.075 -4.898,1.631 -0.897,0.297 -1.85,0.531 -2.838,0.768 -0.988,0.242 -2.009,0.493 -3.059,0.75 -1.061,0.202 -2.149,0.409 -3.263,0.621 -0.558,0.103 -1.121,0.207 -1.69,0.312 -0.573,0.075 -1.151,0.15 -1.735,0.226 -1.168,0.146 -2.354,0.296 -3.557,0.447 -1.206,0.094 -2.427,0.188 -3.658,0.284 -0.615,0.047 -1.233,0.093 -1.854,0.14 l -1.867,0.059 c -1.247,0.035 -2.5,0.07 -3.753,0.105 -1.318,-0.013 -2.494,-0.063 -3.744,-0.093 -1.227,-0.024 -2.456,-0.065 -3.705,-0.18 -1.239,-0.093 -2.469,-0.185 -3.684,-0.276 -1.202,-0.146 -2.391,-0.292 -3.559,-0.435 -0.584,-0.073 -1.163,-0.145 -1.736,-0.216 -0.569,-0.102 -1.134,-0.203 -1.692,-0.303 -1.113,-0.209 -2.204,-0.413 -3.265,-0.612 -1.051,-0.253 -2.072,-0.499 -3.061,-0.736 -0.987,-0.24 -1.944,-0.458 -2.843,-0.753 -1.805,-0.554 -3.471,-1.014 -4.892,-1.603 -1.428,-0.563 -2.699,-0.972 -3.691,-1.462 -2,-0.92 -3.142,-1.446 -3.142,-1.446 -0.551,-0.253 -0.792,-0.906 -0.539,-1.458 0.243,-0.528 0.853,-0.772 1.388,-0.568 l 0.071,0.027 c 0,0 1.135,0.435 3.123,1.197 0.974,0.422 2.232,0.753 3.633,1.226 1.396,0.493 3.034,0.853 4.787,1.346 0.873,0.258 1.808,0.438 2.771,0.64 0.962,0.2 1.957,0.406 2.979,0.619 1.033,0.16 2.095,0.323 3.18,0.491 0.542,0.086 1.09,0.172 1.643,0.26 0.558,0.063 1.119,0.127 1.687,0.191 1.134,0.126 2.286,0.255 3.453,0.386 1.165,0.075 2.344,0.151 3.532,0.228 0.597,0.034 1.186,0.088 1.794,0.107 l 1.843,0.032 c 1.218,0.019 2.439,0.039 3.662,0.058 1.219,-0.022 2.438,-0.043 3.652,-0.065 l 1.817,-0.037 c 0.603,-0.04 1.203,-0.079 1.802,-0.119 1.196,-0.08 2.384,-0.16 3.557,-0.238 1.167,-0.135 2.319,-0.268 3.453,-0.398 0.566,-0.067 1.128,-0.135 1.685,-0.201 0.553,-0.089 1.101,-0.178 1.642,-0.265 1.084,-0.171 2.146,-0.338 3.179,-0.501 1.021,-0.217 2.015,-0.429 2.976,-0.634 0.964,-0.198 1.894,-0.395 2.767,-0.655 1.751,-0.496 3.394,-0.871 4.767,-1.364 1.394,-0.476 2.613,-0.8 3.619,-1.243 2.016,-0.788 3.168,-1.238 3.168,-1.238 0.565,-0.222 1.204,0.057 1.426,0.623 0.211,0.544 -0.041,1.155 -0.56,1.4 z"
               id="path4386"
               inkscape:connector-curvature="0"
               style="fill:#161616" /></g><g
             id="g4388"><linearGradient
               id="SVGID_26_"
               gradientUnits="userSpaceOnUse"
               x1="375.8027"
               y1="230.54201"
               x2="378.63681"
               y2="196.7079"><stop
                 offset="0"
                 style="stop-color:#070707"
                 id="stop4391" /><stop
                 offset="1"
                 style="stop-color:#070707;stop-opacity:0"
                 id="stop4393" /></linearGradient><path
               d="m 381.167,217.001 c 0,0 -3.33,-2.178 -6.146,-9.094 -1.828,4.545 -3.063,9.844 -3.063,16.095 0,2.909 0.388,5.735 1.141,8.454 3.777,-6.175 8.068,-9.447 8.068,-11.701 0,-2.254 0,-3.754 0,-3.754 z"
               id="path4395"
               style="fill:url(#SVGID_26_)"
               inkscape:connector-curvature="0" /><linearGradient
               id="SVGID_27_"
               gradientUnits="userSpaceOnUse"
               x1="492.82709"
               y1="240.3438"
               x2="495.6611"
               y2="206.5108"><stop
                 offset="0"
                 style="stop-color:#070707"
                 id="stop4398" /><stop
                 offset="1"
                 style="stop-color:#070707;stop-opacity:0"
                 id="stop4400" /></linearGradient><path
               d="m 495.914,207.131 c -2.717,7.528 -6.338,9.87 -6.338,9.87 v 3.754 c 1.477,1.709 4.471,5.91 8.369,12.359 0.879,-2.921 1.346,-5.966 1.346,-9.112 0,-6.607 -1.373,-12.158 -3.377,-16.871 z"
               id="path4402"
               style="fill:url(#SVGID_27_)"
               inkscape:connector-curvature="0" /></g><g
             id="g4404"><path
               d="m 403.684,260.447 c -2.034,0.011 -3.957,-0.496 -5.779,-1.207 -1.8,-0.768 -3.554,-1.644 -5.275,-2.583 -3.431,-1.898 -6.689,-4.144 -9.625,-6.785 -2.924,-2.648 -5.52,-5.701 -7.545,-9.127 -2.029,-3.42 -3.466,-7.215 -4.151,-11.151 -0.345,-1.973 -0.507,-3.951 -0.493,-5.974 0.005,-1.891 0.148,-3.956 0.395,-5.896 0.277,-1.96 0.664,-3.907 1.185,-5.821 0.54,-1.908 1.201,-3.781 1.983,-5.601 1.555,-3.648 3.631,-7.045 5.945,-10.21 2.288,-3.179 4.963,-6.07 7.218,-9.038 0.553,-0.741 1.07,-1.496 1.44,-2.243 0.186,-0.373 0.322,-0.738 0.42,-1.086 l 0.349,-1.413 1.439,-5.61 2.902,-11.194 c 1.923,-7.462 3.854,-14.927 5.63,-22.405 0.439,-1.865 0.888,-3.743 1.24,-5.584 0.083,-0.442 0.169,-0.949 0.188,-1.261 0.003,-0.034 0,-0.05 0.003,-0.016 0.009,0.043 -0.005,0.07 0.079,0.282 0.1,0.139 0.11,0.36 0.646,0.605 0.786,0.147 0.147,0.038 0.331,0.071 -0.072,0 -0.384,-0.031 -0.477,-0.049 -0.282,-0.04 -0.537,-0.093 -0.797,-0.148 -1.024,-0.23 -2.008,-0.551 -2.968,-0.976 -1.896,-0.836 -3.77,-2.139 -4.914,-4.135 -0.554,-0.993 -0.879,-2.119 -0.957,-3.232 -0.082,-1.116 0.065,-2.207 0.33,-3.23 0.131,-0.541 0.286,-0.956 0.497,-1.55 0.201,-0.445 0.355,-0.86 0.665,-1.384 0.557,-0.979 1.217,-1.821 2.033,-2.547 1.622,-1.444 3.614,-2.317 5.604,-2.793 2.002,-0.467 4.028,-0.599 6.022,-0.542 2.007,0.07 3.946,0.297 5.943,0.744 l 0,0 -0.939,0.266 c 0.869,-0.803 1.697,-1.361 2.602,-1.926 0.889,-0.559 1.816,-1.033 2.755,-1.479 0.943,-0.433 1.901,-0.831 2.878,-1.169 0.971,-0.356 1.964,-0.641 2.958,-0.909 0.998,-0.255 1.999,-0.494 3.013,-0.664 1.007,-0.215 2.027,-0.317 3.043,-0.46 1.018,-0.129 2.041,-0.175 3.061,-0.266 l 3.092,-0.085 3.014,0.084 c 1.028,0.09 2.067,0.138 3.086,0.267 1.016,0.143 2.036,0.245 3.043,0.46 1.014,0.171 2.015,0.409 3.013,0.664 0.994,0.268 1.987,0.553 2.958,0.909 0.977,0.338 1.934,0.736 2.878,1.168 0.938,0.446 1.866,0.92 2.755,1.479 0.903,0.565 1.732,1.123 2.602,1.926 l -0.939,-0.266 0,0 c 1.995,-0.447 3.934,-0.674 5.938,-0.746 1.993,-0.058 4.017,0.072 6.019,0.538 1.989,0.475 3.981,1.345 5.604,2.786 1.618,1.427 2.717,3.486 3.198,5.457 0.275,1.056 0.419,2.122 0.342,3.245 -0.074,1.113 -0.396,2.24 -0.947,3.234 -1.134,2.003 -3.007,3.311 -4.9,4.151 -0.959,0.425 -1.941,0.75 -2.965,0.981 -0.259,0.057 -0.516,0.109 -0.795,0.15 -0.146,0.021 -0.267,0.041 -0.48,0.053 l -0.081,0.003 c -0.061,-0.009 0.577,-0.071 0.472,-0.109 0.549,-0.318 0.611,-0.714 0.595,-0.655 0.035,-0.11 0.035,-0.128 0.041,-0.153 0.014,-0.108 0.006,-0.066 0.009,-0.051 0.015,0.292 0.103,0.808 0.184,1.245 0.351,1.838 0.8,3.715 1.237,5.579 1.773,7.472 3.705,14.931 5.627,22.386 l 2.9,11.184 1.439,5.604 0.35,1.416 0.189,0.612 0.217,0.48 c 0.36,0.744 0.881,1.498 1.426,2.238 2.242,2.965 4.922,5.851 7.209,9.026 2.319,3.159 4.396,6.552 5.959,10.194 0.785,1.817 1.456,3.687 1.995,5.594 0.524,1.912 0.919,3.856 1.202,5.815 0.48,3.925 0.627,7.886 -0.065,11.865 -0.671,3.937 -2.092,7.736 -4.107,11.163 -2.012,3.433 -4.597,6.494 -7.511,9.151 -2.929,2.646 -6.178,4.904 -9.604,6.807 -1.72,0.937 -3.463,1.835 -5.271,2.582 -1.827,0.697 -3.739,1.196 -5.773,1.213 3.182,-2.505 6.75,-3.67 10.039,-5.592 3.294,-1.859 6.394,-4.05 9.166,-6.588 2.758,-2.549 5.175,-5.459 7.037,-8.688 1.866,-3.225 3.161,-6.766 3.76,-10.429 0.615,-3.627 0.459,-7.454 -0.022,-11.156 -0.281,-1.852 -0.667,-3.685 -1.173,-5.485 -0.521,-1.796 -1.167,-3.555 -1.92,-5.268 -1.502,-3.432 -3.491,-6.642 -5.748,-9.673 -2.247,-3.059 -4.805,-5.85 -7.217,-9.023 -0.592,-0.81 -1.179,-1.645 -1.662,-2.635 -0.125,-0.265 -0.244,-0.562 -0.358,-0.844 l -0.11,-0.351 -0.053,-0.173 -0.069,-0.246 -0.341,-1.389 -1.428,-5.589 -2.888,-11.188 c -1.915,-7.465 -3.837,-14.925 -5.612,-22.446 -0.435,-1.888 -0.861,-3.763 -1.218,-5.711 -0.083,-0.51 -0.175,-0.944 -0.209,-1.615 10e-4,-0.105 -0.009,-0.184 0.024,-0.411 0.01,-0.054 0.014,-0.103 0.061,-0.24 -0.01,0.029 0.067,-0.393 0.637,-0.734 -0.084,-0.058 0.587,-0.124 0.557,-0.133 l 0.009,-0.001 0.236,-0.026 c 0.197,-0.026 0.413,-0.068 0.625,-0.112 0.857,-0.185 1.714,-0.46 2.519,-0.809 1.611,-0.693 3.041,-1.737 3.829,-3.114 0.79,-1.365 0.866,-3.086 0.436,-4.733 -0.428,-1.764 -1.237,-3.242 -2.491,-4.4 -1.258,-1.135 -2.884,-1.892 -4.627,-2.324 -3.494,-0.853 -7.387,-0.672 -10.973,0.036 l 0,0 -0.521,0.12 -0.418,-0.385 c -0.607,-0.56 -1.439,-1.149 -2.24,-1.64 -0.812,-0.511 -1.675,-0.952 -2.549,-1.368 -0.881,-0.403 -1.779,-0.778 -2.7,-1.096 -0.913,-0.336 -1.854,-0.605 -2.798,-0.859 -0.947,-0.242 -1.899,-0.47 -2.867,-0.632 -0.959,-0.206 -1.938,-0.302 -2.911,-0.44 -0.973,-0.124 -1.942,-0.166 -2.914,-0.255 l -3.007,-0.084 -2.93,0.083 c -0.979,0.089 -1.965,0.132 -2.939,0.256 -0.972,0.138 -1.952,0.234 -2.91,0.44 -0.969,0.163 -1.92,0.39 -2.868,0.632 -0.942,0.254 -1.884,0.523 -2.797,0.859 -0.922,0.318 -1.819,0.692 -2.7,1.096 -0.874,0.416 -1.738,0.856 -2.549,1.368 -0.801,0.491 -1.633,1.081 -2.24,1.64 l -0.418,0.385 -0.521,-0.12 0,0 c -3.589,-0.709 -7.484,-0.892 -10.982,-0.037 -1.745,0.432 -3.373,1.191 -4.63,2.33 -0.626,0.557 -1.154,1.266 -1.544,1.96 -0.194,0.301 -0.385,0.789 -0.575,1.225 -0.097,0.319 -0.282,0.808 -0.367,1.208 -0.437,1.683 -0.351,3.382 0.443,4.756 0.797,1.376 2.23,2.42 3.846,3.111 0.806,0.349 1.666,0.622 2.523,0.806 0.212,0.042 0.429,0.085 0.625,0.11 0.145,0.017 0.073,0.017 0.241,0.025 0.213,0.037 -0.394,-0.08 0.42,0.082 0.567,0.251 0.59,0.507 0.704,0.67 0.107,0.268 0.101,0.354 0.117,0.458 0.014,0.155 0.011,0.259 0.008,0.346 -0.039,0.651 -0.129,1.094 -0.214,1.601 -0.357,1.948 -0.786,3.825 -1.22,5.714 -1.779,7.526 -3.704,14.992 -5.621,22.463 l -2.891,11.197 -1.429,5.594 -0.344,1.395 c -0.155,0.583 -0.365,1.119 -0.609,1.609 -0.489,0.982 -1.074,1.819 -1.669,2.623 -2.417,3.166 -4.976,5.963 -7.22,9.027 -2.253,3.038 -4.244,6.252 -5.739,9.692 -0.751,1.716 -1.388,3.48 -1.911,5.278 -0.504,1.804 -0.882,3.641 -1.158,5.495 -0.246,1.882 -0.391,3.667 -0.414,5.631 -0.025,1.832 0.112,3.712 0.421,5.538 0.612,3.666 1.922,7.207 3.803,10.429 1.877,3.227 4.308,6.133 7.077,8.677 2.781,2.536 5.894,4.717 9.195,6.572 3.288,1.942 6.879,3.013 10.063,5.557 z"
               id="path4406"
               inkscape:connector-curvature="0"
               style="fill:#6d6d6d" /></g><g
             id="g4408"><linearGradient
               id="SVGID_28_"
               gradientUnits="userSpaceOnUse"
               x1="398.69189"
               y1="186.87939"
               x2="405.8588"
               y2="179.04601"><stop
                 offset="0"
                 style="stop-color:#070707"
                 id="stop4411" /><stop
                 offset="1"
                 style="stop-color:#070707;stop-opacity:0"
                 id="stop4413" /></linearGradient><circle
               cx="400.07599"
               cy="185.367"
               r="9.6660004"
               id="circle4415"
               style="fill:url(#SVGID_28_)"
               sodipodi:cx="400.07599"
               sodipodi:cy="185.367"
               sodipodi:rx="9.6660004"
               sodipodi:ry="9.6660004"
               d="m 409.74199,185.367 c 0,5.33839 -4.32762,9.666 -9.666,9.666 -5.33839,0 -9.666,-4.32761 -9.666,-9.666 0,-5.33838 4.32761,-9.666 9.666,-9.666 5.33838,0 9.666,4.32762 9.666,9.666 z" /><linearGradient
               id="SVGID_29_"
               gradientUnits="userSpaceOnUse"
               x1="474.61911"
               y1="189.8765"
               x2="464.28671"
               y2="176.87711"><stop
                 offset="0"
                 style="stop-color:#070707"
                 id="stop4418" /><stop
                 offset="1"
                 style="stop-color:#070707;stop-opacity:0"
                 id="stop4420" /></linearGradient><circle
               cx="470.87601"
               cy="185.16701"
               r="9.6669998"
               id="circle4422"
               style="fill:url(#SVGID_29_)"
               sodipodi:cx="470.87601"
               sodipodi:cy="185.16701"
               sodipodi:rx="9.6669998"
               sodipodi:ry="9.6669998"
               d="m 480.54301,185.16701 c 0,5.33893 -4.32807,9.667 -9.667,9.667 -5.33894,0 -9.667,-4.32807 -9.667,-9.667 0,-5.33894 4.32806,-9.667 9.667,-9.667 5.33893,0 9.667,4.32806 9.667,9.667 z" /><g
               id="g4424"><circle
                 cx="398.375"
                 cy="186.666"
                 r="9.6660004"
                 id="circle4426"
                 sodipodi:cx="398.375"
                 sodipodi:cy="186.666"
                 sodipodi:rx="9.6660004"
                 sodipodi:ry="9.6660004"
                 style="fill:#1e1e1e"
                 d="m 408.041,186.666 c 0,5.33838 -4.32762,9.666 -9.666,9.666 -5.33838,0 -9.666,-4.32762 -9.666,-9.666 0,-5.33838 4.32762,-9.666 9.666,-9.666 5.33838,0 9.666,4.32762 9.666,9.666 z" /><g
                 id="g4428"><circle
                   cx="402.25"
                   cy="183.33299"
                   r="2.4159999"
                   id="circle4430"
                   sodipodi:cx="402.25"
                   sodipodi:cy="183.33299"
                   sodipodi:rx="2.4159999"
                   sodipodi:ry="2.4159999"
                   style="fill:#fdffff"
                   d="m 404.666,183.33299 c 0,1.33432 -1.08168,2.416 -2.416,2.416 -1.33432,0 -2.416,-1.08168 -2.416,-2.416 0,-1.33432 1.08168,-2.416 2.416,-2.416 1.33432,0 2.416,1.08168 2.416,2.416 z" /><circle
                   cx="393.20801"
                   cy="191.29201"
                   r="1.124"
                   id="circle4432"
                   sodipodi:cx="393.20801"
                   sodipodi:cy="191.29201"
                   sodipodi:rx="1.124"
                   sodipodi:ry="1.124"
                   style="fill:#fdffff"
                   d="m 394.33201,191.29201 c 0,0.62077 -0.50323,1.124 -1.124,1.124 -0.62077,0 -1.124,-0.50323 -1.124,-1.124 0,-0.62077 0.50323,-1.124 1.124,-1.124 0.62077,0 1.124,0.50323 1.124,1.124 z" /></g></g><g
               id="g4434"><circle
                 cx="472.87601"
                 cy="186.666"
                 r="9.6669998"
                 id="circle4436"
                 sodipodi:cx="472.87601"
                 sodipodi:cy="186.666"
                 sodipodi:rx="9.6669998"
                 sodipodi:ry="9.6669998"
                 style="fill:#1e1e1e"
                 d="m 482.54301,186.666 c 0,5.33894 -4.32807,9.667 -9.667,9.667 -5.33894,0 -9.667,-4.32806 -9.667,-9.667 0,-5.33894 4.32806,-9.667 9.667,-9.667 5.33893,0 9.667,4.32806 9.667,9.667 z" /><g
                 id="g4438"><circle
                   cx="476.75201"
                   cy="183.33299"
                   r="2.4159999"
                   id="circle4440"
                   sodipodi:cx="476.75201"
                   sodipodi:cy="183.33299"
                   sodipodi:rx="2.4159999"
                   sodipodi:ry="2.4159999"
                   style="fill:#fdffff"
                   d="m 479.16801,183.33299 c 0,1.33432 -1.08168,2.416 -2.416,2.416 -1.33432,0 -2.416,-1.08168 -2.416,-2.416 0,-1.33432 1.08168,-2.416 2.416,-2.416 1.33432,0 2.416,1.08168 2.416,2.416 z" /><circle
                   cx="467.70999"
                   cy="191.29201"
                   r="1.124"
                   id="circle4442"
                   sodipodi:cx="467.70999"
                   sodipodi:cy="191.29201"
                   sodipodi:rx="1.124"
                   sodipodi:ry="1.124"
                   style="fill:#fdffff"
                   d="m 468.83399,191.29201 c 0,0.62077 -0.50323,1.124 -1.124,1.124 -0.62077,0 -1.124,-0.50323 -1.124,-1.124 0,-0.62077 0.50323,-1.124 1.124,-1.124 0.62077,0 1.124,0.50323 1.124,1.124 z" /></g></g></g><g
             id="g4444"><path
               stroke-miterlimit="10"
               d="m 435.5,111.666 c 16,0 22.666,6.667 22.666,6.667 0,0 15.334,-3.665 19,6.002 3.668,9.667 -7.332,11.667 -8.332,11.667 -0.082,0 -7.758,1.33 -11.9,1.33 -6.977,0 -14.529,-4.576 -21.434,-4.576 -6.902,0 -14.457,4.576 -21.434,4.576 -4.143,0 -11.817,-1.33 -11.899,-1.33 -1,0 -12,-2 -8.333,-11.667 3.667,-9.667 19,-6.002 19,-6.002 0,0 6.666,-6.667 22.666,-6.667 z"
               id="path4446"
               inkscape:connector-curvature="0"
               style="fill:#ffd9d9;stroke:#f29c9c;stroke-width:2;stroke-miterlimit:10" /><path
               d="m 393.834,127.43 c 3.667,-9.667 19,-6.002 19,-6.002 0,0 6.666,-6.667 22.666,-6.667 16,0 22.666,6.667 22.666,6.667 0,0 15.334,-3.665 19,6.002 0.279,0.736 0.465,1.423 0.584,2.073 0.307,-1.415 0.193,-3.118 -0.584,-5.169 -3.666,-9.667 -19,-6.002 -19,-6.002 0,0 -6.666,-6.667 -22.666,-6.667 -16,0 -22.666,6.667 -22.666,6.667 0,0 -15.333,-3.665 -19,6.002 -0.778,2.051 -0.892,3.753 -0.585,5.168 0.121,-0.649 0.306,-1.335 0.585,-2.072 z"
               id="path4448"
               inkscape:connector-curvature="0"
               style="opacity:0.6;fill:#f29c9c" /><g
               id="g4450"><g
                 id="g4452"><path
                   d="m 399.959,122.334 c 0,0 0.706,-0.477 1.822,-0.922 0.586,-0.183 1.297,-0.351 2.076,-0.487 0.752,-0.081 1.562,-0.141 2.367,-0.131 0.801,0.043 1.605,0.084 2.346,0.228 0.741,0.13 1.427,0.289 2.004,0.494 1.159,0.359 1.885,0.818 1.885,0.818 0,0 -0.826,0.207 -2.011,0.323 -1.188,0.128 -2.735,0.182 -4.268,0.135 -0.382,-0.009 -0.765,-0.019 -1.141,-0.028 -0.375,-0.012 -0.747,-0.041 -1.106,-0.072 -0.689,-0.016 -1.348,-0.071 -1.936,-0.158 -1.201,-0.02 -2.038,-0.2 -2.038,-0.2 z"
                   id="path4454"
                   inkscape:connector-curvature="0"
                   style="fill:#f29c9c" /></g><g
                 id="g4456"><path
                   d="m 471.041,122.334 c 0,0 -0.837,0.179 -2.038,0.2 -0.588,0.086 -1.246,0.142 -1.936,0.158 -0.359,0.031 -0.731,0.06 -1.106,0.072 -0.376,0.009 -0.758,0.019 -1.14,0.029 -1.533,0.047 -3.08,-0.007 -4.269,-0.135 -1.184,-0.117 -2.01,-0.324 -2.01,-0.323 0,0 0.726,-0.459 1.885,-0.818 0.576,-0.205 1.263,-0.364 2.004,-0.494 0.739,-0.144 1.544,-0.185 2.345,-0.228 0.806,-0.009 1.615,0.051 2.367,0.131 0.778,0.136 1.49,0.304 2.076,0.487 1.116,0.444 1.822,0.921 1.822,0.921 z"
                   id="path4458"
                   inkscape:connector-curvature="0"
                   style="fill:#f29c9c" /></g></g></g><g
             id="g4460"><linearGradient
               id="SVGID_30_"
               gradientUnits="userSpaceOnUse"
               x1="516.02051"
               y1="192.48489"
               x2="489.0209"
               y2="305.14981"><stop
                 offset="0"
                 style="stop-color:#F4F4F4"
                 id="stop4463" /><stop
                 offset="1"
                 style="stop-color:#D2D2D2"
                 id="stop4465" /></linearGradient><path
               d="m 487.477,215.001 c 0,0 12.803,-1.746 24.469,-1.746 11.666,0 14.502,-19.92 18.834,-15.587 4.334,4.333 8.166,28.253 -11.834,30.587 -20,2.334 -23.803,-6.254 -29.469,-5.92"
               id="path4467"
               style="fill:url(#SVGID_30_)"
               inkscape:connector-curvature="0" /><path
               d="m 487.477,215.001 c 0,0 0.467,-0.077 1.344,-0.222 0.875,-0.151 2.163,-0.338 3.808,-0.559 0.822,-0.111 1.732,-0.234 2.724,-0.369 0.994,-0.105 2.07,-0.219 3.219,-0.341 1.15,-0.122 2.374,-0.251 3.664,-0.389 1.289,-0.164 2.657,-0.166 4.079,-0.262 1.424,-0.075 2.907,-0.152 4.443,-0.233 0.384,-0.02 0.771,-0.039 1.162,-0.059 0.31,-0.027 0.769,-0.044 1.127,-0.087 0.681,-0.117 1.413,-0.271 2.108,-0.571 1.402,-0.553 2.695,-1.482 3.838,-2.64 1.151,-1.149 2.18,-2.499 3.131,-3.95 0.961,-1.448 1.834,-3.004 2.766,-4.591 0.468,-0.794 0.945,-1.599 1.516,-2.4 0.284,-0.401 0.608,-0.798 0.986,-1.187 0.405,-0.375 0.873,-0.788 1.621,-0.989 0.196,-0.032 0.398,-0.053 0.597,-0.062 0.197,0.016 0.397,0.058 0.593,0.103 0.344,0.121 0.705,0.298 0.923,0.502 0.138,0.119 0.21,0.162 0.397,0.349 l 0.231,0.264 c 0.148,0.151 0.325,0.409 0.488,0.64 0.612,0.91 1.01,1.8 1.381,2.734 0.689,1.861 1.146,3.78 1.39,5.726 0.462,3.88 0.239,7.901 -1.094,11.602 -1.279,3.708 -3.943,6.927 -7.244,8.729 -1.635,0.918 -3.379,1.552 -5.119,1.892 -0.872,0.226 -1.718,0.277 -2.61,0.414 -0.833,0.061 -1.655,0.121 -2.466,0.18 -3.279,0.188 -6.447,0.144 -9.289,-0.325 -2.857,-0.422 -5.411,-1.197 -7.553,-2.129 -2.148,-0.922 -3.886,-1.97 -5.328,-2.769 -1.443,-0.791 -2.61,-1.373 -3.488,-1.509 -0.424,-0.14 -0.771,-0.088 -0.996,-0.129 -0.229,-0.018 -0.348,-0.026 -0.348,-0.026 0,0 0.118,0 0.348,-0.001 0.227,0.022 0.578,-0.056 1.015,0.05 0.9,0.076 2.153,0.548 3.647,1.27 1.499,0.718 3.279,1.65 5.426,2.423 2.143,0.778 4.647,1.376 7.424,1.682 2.788,0.33 5.809,0.242 9.013,-0.024 0.809,-0.084 1.629,-0.169 2.459,-0.255 0.751,-0.146 1.602,-0.222 2.379,-0.456 1.599,-0.373 3.171,-0.962 4.611,-1.814 1.444,-0.844 2.75,-1.954 3.814,-3.294 1.064,-1.339 1.894,-2.891 2.486,-4.555 1.187,-3.339 1.382,-7.089 0.931,-10.702 -0.215,-1.812 -0.634,-3.603 -1.244,-5.282 -0.314,-0.82 -0.7,-1.654 -1.132,-2.305 -0.108,-0.151 -0.18,-0.294 -0.357,-0.481 l -0.229,-0.265 c 0.017,0.027 -0.098,-0.073 -0.137,-0.106 -0.247,-0.183 -0.35,-0.226 -0.48,-0.189 -0.362,0.076 -1.021,0.731 -1.503,1.421 -0.515,0.694 -0.993,1.461 -1.466,2.232 -0.946,1.545 -1.869,3.123 -2.899,4.615 -1.025,1.492 -2.134,2.929 -3.448,4.15 -1.293,1.232 -2.797,2.255 -4.447,2.85 -0.813,0.316 -1.666,0.482 -2.546,0.591 -0.428,0.034 -0.755,0.035 -1.221,0.054 -0.388,0.004 -0.771,0.009 -1.152,0.014 -1.524,0.015 -2.997,0.029 -4.411,0.043 -2.831,-0.013 -5.425,0.141 -7.727,0.247 -1.152,0.054 -2.229,0.104 -3.227,0.15 -0.994,0.075 -1.907,0.144 -2.732,0.206 -1.649,0.137 -2.953,0.191 -3.836,0.281 -0.889,0.073 -1.36,0.113 -1.36,0.113 z"
               id="path4469"
               inkscape:connector-curvature="0"
               style="fill:#6d6d6d" /></g><g
             id="g4471"><linearGradient
               id="SVGID_31_"
               gradientUnits="userSpaceOnUse"
               x1="334.89551"
               y1="252.686"
               x2="404.22931"
               y2="130.3517"><stop
                 offset="0"
                 style="stop-color:#1E1E1E"
                 id="stop4474" /><stop
                 offset="1"
                 style="stop-color:#333333"
                 id="stop4476" /></linearGradient><path
               d="m 383.167,215.001 c 0,0 -14,4.333 -25.667,4.333 -11.666,0 -21.667,-16 -26,-11.667 -4.333,4.333 -1,24.333 19,26.667 20,2.334 25.001,-12.333 30.667,-12"
               id="path4478"
               style="fill:url(#SVGID_31_)"
               inkscape:connector-curvature="0" /><path
               d="m 383.167,215.001 c 0,0 -1.89,0.673 -5.273,1.623 -0.85,0.223 -1.79,0.47 -2.814,0.739 -1.032,0.241 -2.148,0.5 -3.341,0.779 -2.396,0.511 -5.112,1.064 -8.124,1.399 -1.497,0.24 -3.08,0.295 -4.716,0.401 -0.409,0.024 -0.822,0.049 -1.238,0.074 -0.473,0.014 -0.844,-0.016 -1.275,-0.021 -0.906,-0.081 -1.795,-0.206 -2.662,-0.43 -3.514,-0.865 -6.782,-2.807 -9.866,-5.007 -1.547,-1.103 -3.067,-2.281 -4.604,-3.426 -1.533,-1.122 -3.116,-2.309 -4.725,-2.959 -0.4,-0.169 -0.787,-0.24 -1.137,-0.274 -0.336,0.009 -0.63,0.041 -0.876,0.208 -0.112,0.062 -0.281,0.221 -0.335,0.268 -0.153,0.185 -0.354,0.399 -0.402,0.527 l -0.133,0.214 -0.131,0.282 c -0.096,0.183 -0.166,0.388 -0.233,0.595 -0.538,1.671 -0.553,3.622 -0.284,5.487 0.527,3.764 2.188,7.396 4.609,10.273 2.42,2.892 5.584,5.046 8.982,6.298 1.691,0.65 3.44,1.069 5.177,1.34 0.858,0.163 1.727,0.225 2.618,0.328 0.854,0.045 1.692,0.12 2.537,0.107 3.366,0.044 6.535,-0.51 9.303,-1.487 2.773,-0.98 5.118,-2.394 7.081,-3.799 1.965,-1.414 3.554,-2.834 4.934,-3.929 1.364,-1.107 2.578,-1.855 3.499,-2.11 0.453,-0.141 0.821,-0.175 1.062,-0.174 0.243,0.004 0.369,0.006 0.369,0.006 0,0 -0.125,0.007 -0.367,0.022 -0.239,0.017 -0.598,0.078 -1.029,0.249 -0.883,0.311 -1.985,1.144 -3.283,2.305 -1.305,1.16 -2.813,2.672 -4.732,4.224 -1.913,1.545 -4.256,3.151 -7.125,4.28 -2.85,1.146 -6.174,1.865 -9.699,1.907 -0.877,0.038 -1.783,-0.013 -2.693,-0.038 -0.866,-0.075 -1.786,-0.115 -2.711,-0.26 -1.844,-0.223 -3.711,-0.659 -5.542,-1.316 -3.661,-1.289 -7.204,-3.54 -9.856,-6.709 -2.666,-3.141 -4.504,-7.067 -5.111,-11.24 -0.277,-2.086 -0.29,-4.254 0.403,-6.394 0.089,-0.267 0.184,-0.532 0.317,-0.794 l 0.189,-0.393 0.264,-0.419 c 0.191,-0.312 0.343,-0.454 0.506,-0.652 0.292,-0.302 0.508,-0.476 0.815,-0.667 0.598,-0.383 1.328,-0.491 1.97,-0.476 0.635,0.05 1.225,0.195 1.734,0.407 2.054,0.85 3.597,2.108 5.157,3.281 1.542,1.192 3.021,2.379 4.515,3.484 2.98,2.187 6.022,4.112 9.209,4.99 0.795,0.231 1.589,0.359 2.346,0.457 0.404,0.018 0.863,0.061 1.213,0.057 0.406,-0.01 0.81,-0.019 1.209,-0.028 1.6,-0.04 3.151,-0.03 4.635,-0.207 2.975,-0.227 5.693,-0.619 8.099,-0.989 1.2,-0.21 2.323,-0.406 3.361,-0.588 1.034,-0.21 1.983,-0.404 2.841,-0.579 1.707,-0.388 3.058,-0.667 3.967,-0.899 0.91,-0.226 1.396,-0.347 1.396,-0.347 z"
               id="path4480"
               inkscape:connector-curvature="0"
               style="fill:#03080c" /></g><linearGradient
             id="SVGID_32_"
             gradientUnits="userSpaceOnUse"
             x1="436.48239"
             y1="110.2495"
             x2="435.48251"
             y2="138.8737"><stop
               offset="0"
               style="stop-color:#FFFFFF"
               id="stop4483" /><stop
               offset="1"
               style="stop-color:#FFFFFF;stop-opacity:0"
               id="stop4485" /></linearGradient><path
             d="m 454.814,125.584 c -2.123,0 -5.994,-6.602 -14.824,-8.488 -0.84,-0.325 -1.98,-0.512 -3.496,-0.512 -0.229,0 -0.438,0.024 -0.66,0.03 -0.225,-0.006 -0.432,-0.03 -0.662,-0.03 -1.516,0 -2.656,0.187 -3.494,0.512 -8.832,1.887 -12.703,8.488 -14.826,8.488 -2.475,0 -17.482,-0.5 -17.482,3.25 0,4.25 13.208,4.75 17.482,4.75 3.744,0 12.488,-4.548 18.982,-4.548 6.494,0 15.236,4.548 18.98,4.548 4.273,0 17.482,-0.5 17.482,-4.75 0.001,-3.75 -15.007,-3.25 -17.482,-3.25 z"
             id="path4487"
             style="fill:url(#SVGID_32_)"
             inkscape:connector-curvature="0" /><g
             id="g4489"><path
               d="m 493.084,217.084 c 0,0 2.666,-0.09 6.635,-0.095 1.979,-0.01 4.288,-0.021 6.762,-0.034 1.233,10e-4 2.506,-0.045 3.79,-0.078 1.286,-0.03 2.589,-0.098 3.855,-0.243 0.641,-0.047 1.254,-0.157 1.844,-0.264 l 0.751,-0.194 0.881,-0.42 c 0.854,-0.536 1.87,-1.375 2.712,-2.19 0.84,-0.86 1.659,-1.705 2.39,-2.558 0.734,-0.846 1.42,-1.665 2.042,-2.431 1.239,-1.536 2.258,-2.842 2.969,-3.759 0.713,-0.92 1.12,-1.446 1.12,-1.446 0,0 -1.031,2.468 -3.154,5.871 -1.062,1.701 -2.387,3.641 -4.1,5.546 -0.46,0.456 -0.878,0.952 -1.404,1.39 -0.265,0.224 -0.487,0.453 -0.792,0.675 l -0.947,0.642 -0.881,0.44 -0.137,0.064 -0.067,0.02 -0.134,0.039 -0.268,0.077 -0.539,0.152 c -0.701,0.144 -1.395,0.277 -2.074,0.336 -1.366,0.131 -2.711,0.176 -4.03,0.184 -1.321,0.024 -2.613,-0.041 -3.861,-0.095 -1.249,-0.044 -2.452,-0.153 -3.591,-0.248 -1.14,-0.091 -2.213,-0.214 -3.203,-0.334 -3.962,-0.47 -6.569,-1.047 -6.569,-1.047 z"
               id="path4491"
               inkscape:connector-curvature="0"
               style="fill:#ffffff" /></g><g
             id="g4493"><path
               d="m 376.563,220.123 c 0,0 -0.689,0.175 -1.872,0.525 -1.18,0.334 -2.852,0.887 -4.874,1.505 -2.021,0.625 -4.398,1.333 -7.031,1.871 -1.32,0.245 -2.695,0.505 -4.129,0.589 -1.425,0.133 -2.91,0.07 -4.393,-0.085 -1.464,-0.229 -2.999,-0.718 -4.25,-1.282 -1.313,-0.549 -2.535,-1.201 -3.717,-1.829 -2.349,-1.28 -4.442,-2.628 -6.175,-3.867 -1.739,-1.231 -3.115,-2.36 -4.03,-3.207 -0.461,-0.419 -0.795,-0.783 -1.008,-1.043 -0.105,-0.131 -0.178,-0.239 -0.215,-0.319 -0.037,-0.08 -0.031,-0.128 -0.036,-0.126 0.004,-10e-4 0.009,0.047 0.06,0.112 0.051,0.067 0.141,0.154 0.268,0.257 0.252,0.208 0.659,0.472 1.173,0.804 1.037,0.657 2.56,1.533 4.398,2.549 1.846,1.004 4.012,2.146 6.365,3.271 1.173,0.566 2.413,1.095 3.658,1.615 1.291,0.548 2.467,0.881 3.789,1.086 1.313,0.154 2.654,0.243 3.994,0.139 1.335,-0.069 2.664,-0.208 3.947,-0.394 1.282,-0.207 2.53,-0.401 3.713,-0.625 1.188,-0.222 2.31,-0.432 3.346,-0.625 2.081,-0.391 3.832,-0.665 5.075,-0.784 0.617,-0.082 1.104,-0.084 1.435,-0.108 0.332,-0.02 0.509,-0.029 0.509,-0.029 z"
               id="path4495"
               inkscape:connector-curvature="0"
               style="fill:#606060" /></g><radialGradient
             id="SVGID_33_"
             cx="434.83301"
             cy="195.334"
             r="129.769"
             gradientUnits="userSpaceOnUse"><stop
               offset="0.3318"
               style="stop-color:#FFFFFF;stop-opacity:0"
               id="stop4498" /><stop
               offset="1"
               style="stop-color:#FFFFFF"
               id="stop4500" /></radialGradient><ellipse
             cx="437.314"
             cy="232.811"
             rx="45.229"
             ry="24.903999"
             id="ellipse4502"
             style="opacity:0.3;fill:url(#SVGID_33_)"
             sodipodi:cx="437.314"
             sodipodi:cy="232.811"
             sodipodi:rx="45.229"
             sodipodi:ry="24.903999"
             d="m 482.543,232.811 c 0,13.7541 -20.24972,24.904 -45.229,24.904 -24.97929,0 -45.229,-11.1499 -45.229,-24.904 0,-13.75409 20.24971,-24.90399 45.229,-24.90399 24.97928,0 45.229,11.1499 45.229,24.90399 z" /></g><path
           stroke-miterlimit="10"
           d="M 460.334,122.334"
           id="path4504"
           inkscape:connector-curvature="0"
           style="fill:#f4f4f4;stroke:#6d6d6d;stroke-width:2;stroke-miterlimit:10" /></g></g></g></svg>