<?xml version="1.0" encoding="UTF-8" standalone="no"?>
<!-- Generator: Adobe Illustrator 16.0.0, SVG Export Plug-In . SVG Version: 6.00 Build 0)  -->

<svg
   xmlns:dc="http://purl.org/dc/elements/1.1/"
   xmlns:cc="http://creativecommons.org/ns#"
   xmlns:rdf="http://www.w3.org/1999/02/22-rdf-syntax-ns#"
   xmlns:svg="http://www.w3.org/2000/svg"
   xmlns="http://www.w3.org/2000/svg"
   xmlns:sodipodi="http://sodipodi.sourceforge.net/DTD/sodipodi-0.dtd"
   xmlns:inkscape="http://www.inkscape.org/namespaces/inkscape"
   version="1.1"
   id="Layer_3"
   x="0px"
   y="0px"
   width="677.94287"
   height="268.38913"
   viewBox="0 0 677.94287 268.38913"
   enable-background="new 0 0 900 900"
   xml:space="preserve"
   inkscape:version="0.48.4 r9939"
   sodipodi:docname="Clarice_Jersey.svg"><metadata
     id="metadata3553"><rdf:RDF><cc:Work
         rdf:about=""><dc:format>image/svg+xml</dc:format><dc:type
           rdf:resource="http://purl.org/dc/dcmitype/StillImage" /><dc:title></dc:title></cc:Work></rdf:RDF></metadata><defs
     id="defs3551" /><sodipodi:namedview
     pagecolor="#ffffff"
     bordercolor="#666666"
     borderopacity="1"
     objecttolerance="10"
     gridtolerance="10"
     guidetolerance="10"
     inkscape:pageopacity="0"
     inkscape:pageshadow="2"
     inkscape:window-width="1920"
     inkscape:window-height="1028"
     id="namedview3549"
     showgrid="false"
     fit-margin-top="0"
     fit-margin-left="0"
     fit-margin-right="0"
     fit-margin-bottom="0"
     inkscape:zoom="0.93666667"
     inkscape:cx="73.887133"
     inkscape:cy="22.44091"
     inkscape:window-x="0"
     inkscape:window-y="515"
     inkscape:window-maximized="1"
     inkscape:current-layer="Layer_3" /><g
     id="g3290"
     transform="matrix(0,1,-1,0,788.6089,-290.44487)"><path
       d="m 468.945,670.672 c -5.682,-33.646 1.547,-35.367 11.953,-72.301 10.518,-37.317 -16.854,-66.929 -21.344,-102.042 -0.453,-3.584 1.209,-7.693 2.383,-10.846 13.234,-35.585 1.016,-47.281 -25.158,-71.268 -11.049,-11.068 -22.557,-24.94 -20.197,-41.605 1.719,-11.901 19.473,-14.963 20.725,-30.486 13.254,5.58 40.523,-7.171 25.043,-22.643 1.758,1.757 -24.889,16.836 -26.037,12.347 -2.025,-7.974 -7.537,-13.869 -12.271,-20.392 0.703,-8.044 -17.01,-38.003 -8.029,-41.582 18.863,-7.518 -23.723,-18.612 -29.213,-18.612 -6.361,0 -36.093,4.079 -33.575,14.151 -0.743,3.865 7.85,3.525 6.06,11.135 -3.843,16.409 -8.375,30.779 -17.44,45.097 -2.01,0 -4.597,10.47 -4.965,12.513 -1.349,7.509 -25.142,-4.098 -28.104,-6.035 -9.644,-6.304 -3.755,12.232 -1.197,14.926 7.55,7.945 20.875,7.226 28.979,0.74 1.765,14.12 18.99,17.374 20.756,27.967 2.351,14.353 -6.098,28.207 -15.695,38.232 -15.49,16.182 -37.974,25.792 -35.767,51.334 1.677,13.415 11.368,26.652 7.419,40.236 -6.785,23.971 -17.768,46.807 -22.18,71.424 -5.072,28.366 21.513,51.466 17.294,78.658 -4.004,24.959 -14.603,55.364 11.054,71.51 13.197,8.338 53.483,8.765 59.404,17.488 9.236,13.611 11.568,27.708 28.521,36.35 7.211,3.674 11.395,4.1 19.633,5.276 13.18,0.71 9.918,3.714 20.213,5.058 10.791,1.407 27.051,-7.23 29.35,-18.586 -2.83,2.406 -6.088,3.863 -9.77,4.374 4.961,-3.361 9.434,-9.801 10.838,-15.629 -3.189,2.724 -6.082,5.729 -8.689,9.015 0.908,-6.797 1.684,-12.477 0.557,-19.338 -1.287,7.231 -3.922,30.01 -8.271,12.684 -2.113,15.066 -12.758,-0.433 -21.957,9.315 -5.152,5.461 -2.57,6.178 -9.859,5.529 -16.289,-1.444 -34.752,-13.07 -36.02,-30.814 -0.137,-1.893 0.012,-3.821 0.602,-5.634 0.914,-2.811 48.053,-8.362 56.512,-12.753 22.96,-11.955 22.235,-32.221 18.442,-54.793 -0.076,-0.466 0.049,0.279 0,0 z"
       id="path3292"
       inkscape:connector-curvature="0"
       style="opacity:0.4" /><g
       id="g3294"><g
         id="g3296"><g
           id="g3298"><linearGradient
             id="SVGID_1_"
             gradientUnits="userSpaceOnUse"
             x1="313.8345"
             y1="495.65671"
             x2="557.83398"
             y2="495.65671"><stop
               offset="0.2384"
               style="stop-color:#EFBD59"
               id="stop3301" /><stop
               offset="0.3978"
               style="stop-color:#EFA433"
               id="stop3303" /><stop
               offset="0.6414"
               style="stop-color:#EFA737"
               id="stop3305" /><stop
               offset="0.7586"
               style="stop-color:#EFBD59"
               id="stop3307" /></linearGradient><path
             stroke-miterlimit="10"
             d="m 542.5,669.754 c 0,-17.912 -8.666,-54.088 -8.666,-62.967 0,-8.879 24,-53.788 24,-79.285 0,-25.497 -30.668,-97.169 -30.668,-108.166 0,-10.997 11.334,-23.67 11.334,-51.474 0,-27.804 -36,-40.862 -52.666,-64.862 -16.668,-24 -14.668,-32.667 -9.668,-52.333 0,-26.333 -23.625,-40.333 -40.332,-40.333 -16.709,0 -40.333,14 -40.333,40.333 5,19.667 7.001,28.333 -9.666,52.333 -16.667,24 -52.667,37.058 -52.667,64.862 0,27.804 11.332,40.478 11.332,51.474 0,10.996 -30.666,82.669 -30.666,108.166 0,25.497 24,70.406 24,79.285 0,8.879 -8.667,45.055 -8.667,62.967 0,33.618 34.915,50.978 91.284,53.568 4.211,2.784 6.523,6.891 8.471,11.785 3.791,9.523 9.1,17.275 15.545,25.258 7.291,9.029 16.25,14.66 27.572,18.036 23.697,7.067 44.768,-1.31 64.795,-14.067 0,0 -1.043,-5 -7.668,-1.667 C 489.5,783 456.5,765.001 447.168,744.334 c -4.562,-10.102 -3.785,-16.692 -1.803,-20.798 59.795,-1.637 97.135,-19.015 97.135,-53.782 z"
             id="path3309"
             style="fill:url(#SVGID_1_);stroke:#b28029;stroke-width:2;stroke-miterlimit:10"
             inkscape:connector-curvature="0" /><g
             id="g3311"><path
               d="m 369.223,392.231 c 14.754,9.805 58.123,4.215 74.343,-6.63 -10.331,7.961 -22.476,8.7 -32.859,14.763 -7.212,4.211 -13.007,11.716 -19.547,16.949 1.401,-4.502 6.356,-8.139 2.745,-12.28 -2.267,-2.599 -9.576,-2.361 -12.831,-3.283 -5.525,-1.565 -18.983,-6.673 -17.185,-14.185 l 5.334,4.666 z"
               id="path3313"
               inkscape:connector-curvature="0"
               style="fill:#fff9de" /><path
               d="m 404.558,703.564 c -6.604,-3.468 -15.048,-3.762 -21.48,-8.281 -5.979,-4.201 -10.365,-11.595 -13.535,-18.071 -3.315,-6.775 -8.646,-19.791 -4.286,-26.746 -1.588,5.275 -4.658,20.795 -11.517,22.282 -10.806,2.343 -2.541,-24.021 -1.132,-28.967 -4.508,11.113 -9.932,22.268 -13.27,33.548 0.184,-0.731 0.403,-1.377 0.55,-2.231 -0.053,0.79 -0.139,1.673 0.153,2.416 0.441,-0.881 1.507,-1.807 2.351,-2.515 3.745,2.808 3.235,8.188 5.464,12.048 2.998,5.191 7.672,10.39 13.166,12.95 -5.621,-4.701 -6.894,-11.502 -8.851,-17.712 9.024,20.251 26.02,28.539 46.335,31.145 -0.832,-0.414 -2.417,-1.879 -3.229,-2.398 4.171,0.254 10.308,1.401 12.53,-3.467 -2.181,-2.008 -4.605,-2.847 -5.917,-5.333"
               id="path3315"
               inkscape:connector-curvature="0"
               style="fill:#fff9de" /><path
               d="m 519.471,611.231 c -10.188,7.373 -32.07,8.406 -44.711,10.98 9.498,4.117 20.553,2.336 29.695,-0.546 -5.135,6.165 -11.691,12.11 -18.479,16.78 10.676,-1.894 17.217,-10.856 25.381,-17.381 6.422,-5.131 13.038,-9.896 16.933,-17.416 -3.178,2.439 -8.819,7.583 -8.819,7.583 z"
               id="path3317"
               inkscape:connector-curvature="0"
               style="fill:#fff9de" /></g><linearGradient
             id="SVGID_2_"
             gradientUnits="userSpaceOnUse"
             x1="431.51559"
             y1="246.3345"
             x2="431.51559"
             y2="283.91769"><stop
               offset="0.0063"
               style="stop-color:#6A3500"
               id="stop3320" /><stop
               offset="1"
               style="stop-color:#6A3500;stop-opacity:0"
               id="stop3322" /></linearGradient><path
             d="m 429.5,279.668 c 15.543,-4.869 31.314,-6.108 43.137,-7.382 -0.256,-6.57 1.352,-13.051 3.529,-21.619 0,-26.333 -23.625,-40.333 -40.332,-40.333 -16.709,0 -40.333,14 -40.333,40.333 4.894,19.247 6.902,27.968 -8.636,50.826 12.516,-8.104 28.602,-17.429 42.635,-21.825 z"
             id="path3324"
             style="fill:url(#SVGID_2_)"
             inkscape:connector-curvature="0" /></g><linearGradient
           id="SVGID_3_"
           gradientUnits="userSpaceOnUse"
           x1="150.69189"
           y1="631.05908"
           x2="453.6925"
           y2="494.05869"><stop
             offset="0.0063"
             style="stop-color:#6A3500"
             id="stop3327" /><stop
             offset="1"
             style="stop-color:#6A3500;stop-opacity:0"
             id="stop3329" /></linearGradient><path
           d="m 408.334,721.674 c -62.863,-45.095 -48,-81.84 -48,-108.69 0,-26.85 -22.5,-67.149 -21.104,-87.421 1.396,-20.272 33.704,-92.289 21.604,-112.206 -20.954,-34.49 -3.056,-63.217 0.456,-86.156 -14.414,11.963 -28.122,23.505 -28.122,40.662 0,27.804 11.333,40.478 11.333,51.474 0,10.996 -30.666,82.669 -30.666,108.166 0,25.497 24,70.406 24,79.285 0,8.879 -8.667,45.055 -8.667,62.967 0,31.41 30.485,48.623 80.465,52.862 -0.426,-0.312 -0.858,-0.626 -1.299,-0.943 z"
           id="path3331"
           style="opacity:0.3;fill:url(#SVGID_3_)"
           inkscape:connector-curvature="0" /><g
           id="g3333"
           style="opacity:0.25"><linearGradient
             id="SVGID_4_"
             gradientUnits="userSpaceOnUse"
             x1="532.67969"
             y1="392.2915"
             x2="488.37289"
             y2="466.29431"><stop
               offset="0.0063"
               style="stop-color:#6A3500"
               id="stop3336" /><stop
               offset="1"
               style="stop-color:#6A3500;stop-opacity:0"
               id="stop3338" /></linearGradient><path
             d="m 527.166,419.336 c 0,-1.971 0.369,-3.998 0.967,-6.154 -9.691,5.807 -20.086,10.335 -31.602,12.629 -12.699,2.529 -26.168,2.396 -38.719,5.386 -6.93,1.651 -11.643,9.738 -4.838,15.582 4.27,3.667 10.682,5.954 15.961,7.555 17.051,5.173 34.367,8.601 52.055,11.444 6.551,1.053 13.93,2.04 21.656,2.634 -7.714,-22.645 -15.48,-43.542 -15.48,-49.076 z"
             id="path3340"
             style="fill:url(#SVGID_4_)"
             inkscape:connector-curvature="0" /><linearGradient
             id="SVGID_5_"
             gradientUnits="userSpaceOnUse"
             x1="398.854"
             y1="390.54929"
             x2="352.25479"
             y2="468.38101"><stop
               offset="0.0063"
               style="stop-color:#6A3500"
               id="stop3343" /><stop
               offset="1"
               style="stop-color:#6A3500;stop-opacity:0"
               id="stop3345" /></linearGradient><path
             d="m 404.881,422.394 c -17.316,-3.254 -32.738,-6.432 -48.162,-15.417 -6.768,-3.943 -13.305,-8.299 -19.75,-12.785 3.294,11.059 7.531,18.419 7.531,25.145 0,4.725 -5.662,20.654 -12.12,39.306 5.692,-0.198 11.4,-0.278 17.188,0.108 8.117,0.543 16.276,1.018 24.409,1.471 16.5,0.921 45.038,4.701 51.936,-16.294 4.454,-13.555 -10.524,-19.559 -21.032,-21.534 z"
             id="path3347"
             style="fill:url(#SVGID_5_)"
             inkscape:connector-curvature="0" /><linearGradient
             id="SVGID_6_"
             gradientUnits="userSpaceOnUse"
             x1="405.50589"
             y1="554.84912"
             x2="343.26859"
             y2="658.80017"><stop
               offset="0.0063"
               style="stop-color:#6A3500"
               id="stop3350" /><stop
               offset="1"
               style="stop-color:#6A3500;stop-opacity:0"
               id="stop3352" /></linearGradient><path
             d="m 407.988,589.703 c -11.151,-4.396 -28.676,1.692 -40.042,2.63 -11.422,0.942 -22.854,1.465 -34.312,0.748 2.493,6.418 4.2,11.345 4.2,13.707 0,6.71 -4.948,29.007 -7.366,47.232 6.483,-1.919 12.823,-3.951 18.873,-5.701 15.89,-4.597 31.916,-8.601 47.102,-15.208 9.686,-4.214 19.665,-8.974 21.885,-20.23 1.6,-8.118 -1.961,-19.874 -10.34,-23.178 z"
             id="path3354"
             style="fill:url(#SVGID_6_)"
             inkscape:connector-curvature="0" /><linearGradient
             id="SVGID_7_"
             gradientUnits="userSpaceOnUse"
             x1="549.76459"
             y1="551.43408"
             x2="504.04929"
             y2="627.78961"><stop
               offset="0.0063"
               style="stop-color:#6A3500"
               id="stop3357" /><stop
               offset="1"
               style="stop-color:#6A3500;stop-opacity:0"
               id="stop3359" /></linearGradient><path
             d="m 533.834,606.788 c 0,-4.435 5.986,-17.855 11.979,-33.356 -8.904,0.974 -17.857,1.501 -26.879,2.358 -17,1.615 -41.08,2.162 -38.547,25.095 1.406,12.721 13.129,21.695 23.004,28.502 7.828,5.396 15.559,7.688 24.646,9.979 2.623,0.661 6.873,2.565 11.643,4.454 -2.532,-15.601 -5.846,-31.539 -5.846,-37.032 z"
             id="path3361"
             style="fill:url(#SVGID_7_)"
             inkscape:connector-curvature="0" /></g><linearGradient
           id="SVGID_8_"
           gradientUnits="userSpaceOnUse"
           x1="453.64551"
           y1="691.57373"
           x2="428.64529"
           y2="737.23932"><stop
             offset="0.0063"
             style="stop-color:#6A3500"
             id="stop3364" /><stop
             offset="1"
             style="stop-color:#6A3500;stop-opacity:0"
             id="stop3366" /></linearGradient><path
           d="m 445.113,724.102 c -8.861,-3.526 -20.283,-2.289 -26.143,-0.86 0.496,0.025 0.98,0.058 1.48,0.081 4.211,2.784 6.523,6.891 8.471,11.785 1.957,4.915 4.324,9.354 7.037,13.601 2.863,-4.929 6.123,-7.905 9.135,-9.843 -2.021,-6.697 -1.404,-11.465 0.02,-14.764 z"
           id="path3368"
           style="fill:url(#SVGID_8_)"
           inkscape:connector-curvature="0" /><linearGradient
           id="SVGID_9_"
           gradientUnits="userSpaceOnUse"
           x1="503.30081"
           y1="772.71918"
           x2="491.96759"
           y2="784.71942"><stop
             offset="0.0063"
             style="stop-color:#6A3500"
             id="stop3371" /><stop
             offset="1"
             style="stop-color:#6A3500;stop-opacity:0"
             id="stop3373" /></linearGradient><path
           d="m 516.238,775.284 c -0.328,-2.323 -0.66,-4.643 -0.99,-6.917 -9.273,2.86 -18.02,3.673 -25.998,2.965 -1.223,2.951 -2.326,6.206 -3.047,9.551 10.449,0.568 20.408,-1.655 30.035,-5.599 z"
           id="path3375"
           style="fill:url(#SVGID_9_)"
           inkscape:connector-curvature="0" /><path
           stroke-miterlimit="10"
           d="m 500.076,779.168 c -4.572,-7.882 0.143,-17.125 8.982,-18.736 17.139,-3.126 17.82,9.871 20.301,-7.81 0.971,3.865 2.691,7.968 -0.207,11.447 7.199,-7.19 8.973,-18.102 10.629,-27.432 1.846,11.218 0.686,13.997 -0.699,24.372 3.262,-4.121 6.912,-7.907 10.949,-11.361 -1.564,6.493 -7.943,15.825 -13.658,19.696 4.688,-0.662 8.791,-2.499 12.312,-5.511 -3.408,16.844 -39.466,34.405 -48.609,15.335 z"
           id="path3377"
           inkscape:connector-curvature="0"
           style="fill:#d37826;stroke:#aa550e;stroke-width:2.30760002;stroke-miterlimit:10" /><g
           id="g3379"><linearGradient
             id="SVGID_10_"
             gradientUnits="userSpaceOnUse"
             x1="463.17969"
             y1="439.5845"
             x2="599.68237"
             y2="439.5845"><stop
               offset="0"
               style="stop-color:#FFFFB0;stop-opacity:0"
               id="stop3382" /><stop
               offset="1"
               style="stop-color:#FFFF98"
               id="stop3384" /></linearGradient><path
             d="m 444.52,306.834 c 15.314,3.5 72.314,37.672 72.314,56.086 0,18.414 -13.5,56.245 -11.5,66.58 2,10.335 34.5,85.467 34.5,108.151 0,22.684 -24.5,34.684 -36,34.684 -11.5,0 -40.5,-22.686 -40.5,-38.093 0,-15.407 8.5,-87.407 9,-99.907 0.5,-12.5 23,-45.944 11,-72.472 -12,-26.528 -29.129,-47.529 -38.814,-55.029 z"
             id="path3386"
             style="opacity:0.5;fill:url(#SVGID_10_)"
             inkscape:connector-curvature="0" /><linearGradient
             id="SVGID_11_"
             gradientUnits="userSpaceOnUse"
             x1="494.5264"
             y1="667.43597"
             x2="511.86069"
             y2="622.4353"><stop
               offset="0"
               style="stop-color:#FFFFB0;stop-opacity:0"
               id="stop3389" /><stop
               offset="1"
               style="stop-color:#FFFF98"
               id="stop3391" /></linearGradient><path
             d="m 467.168,663.467 c 0,-11.8 21.602,-14.8 31.133,-12.133 9.533,2.667 27.199,7.599 27.199,12.133 0,4.534 -22.98,2.534 -33.324,2.534 -10.342,0 -25.008,3.163 -25.008,-2.534 z"
             id="path3393"
             style="opacity:0.5;fill:url(#SVGID_11_)"
             inkscape:connector-curvature="0" /></g></g><g
         id="g3395"><linearGradient
           id="SVGID_12_"
           gradientUnits="userSpaceOnUse"
           x1="371.9585"
           y1="188.5005"
           x2="499.29099"
           y2="188.5005"><stop
             offset="0.2384"
             style="stop-color:#EFBD59"
             id="stop3398" /><stop
             offset="0.3978"
             style="stop-color:#EFA433"
             id="stop3400" /><stop
             offset="0.6414"
             style="stop-color:#EFA737"
             id="stop3402" /><stop
             offset="0.7586"
             style="stop-color:#EFBD59"
             id="stop3404" /></linearGradient><path
           stroke-miterlimit="10"
           d="m 435.625,111.666 c 16,0 22.668,6.667 22.668,6.667 0,0 15.332,-3.665 18.998,6.002 3.668,9.667 -7.332,11.667 -8.332,11.667 -1,0 10.119,41.512 11.666,48 1.547,6.488 18.666,16.667 18.666,40 0,23.333 -24.906,41.333 -63.666,41.333 -38.759,0 -63.667,-18 -63.667,-41.333 0,-23.333 17.12,-33.512 18.667,-40 1.546,-6.488 12.666,-48 11.666,-48 -1,0 -12,-2 -8.333,-11.667 3.667,-9.667 19,-6.002 19,-6.002 0,0 6.667,-6.667 22.667,-6.667 z"
           id="path3406"
           style="fill:url(#SVGID_12_);stroke:#b28029;stroke-width:2;stroke-miterlimit:10"
           inkscape:connector-curvature="0" /><path
           d="m 450.896,143.656 c 4.794,1.853 9.904,0.854 14.75,-0.184 1.453,-0.311 2.976,-0.558 4.518,-0.795 -0.938,-4.042 -1.456,-6.675 -1.204,-6.675 1,0 12,-2 8.332,-11.667 -3.666,-9.667 -18.998,-6.002 -18.998,-6.002 0,0 -6.668,-6.667 -22.668,-6.667 -16,0 -22.666,6.667 -22.666,6.667 0,0 -15.333,-3.665 -19,6.002 -3.667,9.667 7.333,11.667 8.333,11.667 0.194,0 -0.07,1.569 -0.631,4.139 3.005,6.424 16.61,4.058 20.404,3.44 4.731,-0.77 7.827,-4.316 12.752,-4.68 6.598,-0.489 10.444,2.578 16.078,4.755 z"
           id="path3408"
           inkscape:connector-curvature="0"
           style="fill:#fff9de" /><path
           stroke-miterlimit="10"
           d="m 435.625,111.666 c 16,0 22.668,6.667 22.668,6.667 0,0 15.332,-3.665 18.998,6.002 3.668,9.667 -7.332,11.667 -8.332,11.667 -1,0 10.119,41.512 11.666,48 1.547,6.488 18.666,16.667 18.666,40 0,23.333 -24.906,41.333 -63.666,41.333 -38.759,0 -63.667,-18 -63.667,-41.333 0,-23.333 17.12,-33.512 18.667,-40 1.546,-6.488 12.666,-48 11.666,-48 -1,0 -12,-2 -8.333,-11.667 3.667,-9.667 19,-6.002 19,-6.002 0,0 6.667,-6.667 22.667,-6.667 z"
           id="path3410"
           inkscape:connector-curvature="0"
           style="fill:none;stroke:#6d6d6d;stroke-width:2;stroke-miterlimit:10" /><g
           id="g3412"><path
             d="m 474.77,258.726 c 0,0 -1.12,0.524 -3.081,1.44 -0.955,0.48 -2.259,0.915 -3.69,1.485 -1.438,0.601 -3.093,1.075 -4.898,1.631 -0.897,0.297 -1.85,0.531 -2.838,0.768 -0.988,0.242 -2.009,0.493 -3.059,0.75 -1.061,0.202 -2.149,0.409 -3.263,0.621 -0.558,0.103 -1.121,0.207 -1.69,0.312 -0.573,0.075 -1.151,0.15 -1.735,0.226 -1.168,0.146 -2.354,0.296 -3.557,0.447 -1.206,0.094 -2.427,0.188 -3.658,0.284 -0.615,0.047 -1.233,0.093 -1.854,0.14 l -1.867,0.059 c -1.247,0.035 -2.5,0.07 -3.753,0.105 -1.318,-0.013 -2.494,-0.063 -3.744,-0.093 -1.227,-0.024 -2.456,-0.065 -3.705,-0.18 -1.239,-0.093 -2.469,-0.185 -3.684,-0.276 -1.202,-0.146 -2.391,-0.292 -3.559,-0.435 -0.584,-0.073 -1.163,-0.145 -1.736,-0.216 -0.569,-0.102 -1.134,-0.203 -1.692,-0.303 -1.113,-0.209 -2.204,-0.413 -3.265,-0.612 -1.051,-0.253 -2.072,-0.499 -3.061,-0.736 -0.987,-0.24 -1.944,-0.458 -2.843,-0.753 -1.805,-0.554 -3.471,-1.014 -4.892,-1.603 -1.428,-0.563 -2.699,-0.972 -3.691,-1.462 -2,-0.92 -3.142,-1.446 -3.142,-1.446 -0.551,-0.253 -0.792,-0.906 -0.539,-1.458 0.243,-0.528 0.853,-0.772 1.388,-0.568 l 0.071,0.027 c 0,0 1.135,0.435 3.123,1.197 0.974,0.422 2.232,0.753 3.633,1.226 1.396,0.493 3.034,0.853 4.787,1.346 0.873,0.258 1.808,0.438 2.771,0.64 0.962,0.2 1.957,0.406 2.979,0.619 1.033,0.16 2.095,0.323 3.18,0.491 0.542,0.086 1.09,0.172 1.643,0.26 0.558,0.063 1.119,0.127 1.687,0.191 1.134,0.126 2.286,0.255 3.453,0.386 1.165,0.075 2.344,0.151 3.532,0.228 0.597,0.034 1.186,0.088 1.794,0.107 l 1.843,0.032 c 1.218,0.019 2.439,0.039 3.662,0.058 1.219,-0.022 2.438,-0.043 3.652,-0.065 l 1.817,-0.037 c 0.603,-0.04 1.203,-0.079 1.802,-0.119 1.196,-0.08 2.384,-0.16 3.557,-0.238 1.167,-0.135 2.319,-0.268 3.453,-0.398 0.566,-0.067 1.128,-0.135 1.685,-0.201 0.553,-0.089 1.101,-0.178 1.642,-0.265 1.084,-0.171 2.146,-0.338 3.179,-0.501 1.021,-0.217 2.015,-0.429 2.976,-0.634 0.964,-0.198 1.894,-0.395 2.767,-0.655 1.751,-0.496 3.394,-0.871 4.767,-1.364 1.394,-0.476 2.613,-0.8 3.619,-1.243 2.016,-0.788 3.168,-1.238 3.168,-1.238 0.565,-0.222 1.204,0.057 1.426,0.623 0.211,0.544 -0.041,1.155 -0.56,1.4 z"
             id="path3414"
             inkscape:connector-curvature="0"
             style="fill:#7f571c" /></g><g
           id="g3416"><linearGradient
             id="SVGID_13_"
             gradientUnits="userSpaceOnUse"
             x1="375.8027"
             y1="230.54201"
             x2="378.63681"
             y2="196.7079"><stop
               offset="0.0063"
               style="stop-color:#6A3500"
               id="stop3419" /><stop
               offset="1"
               style="stop-color:#6A3500;stop-opacity:0"
               id="stop3421" /></linearGradient><path
             d="m 381.167,217.001 c 0,0 -3.33,-2.178 -6.146,-9.094 -1.828,4.545 -3.063,9.844 -3.063,16.095 0,2.909 0.388,5.735 1.141,8.454 3.777,-6.175 8.068,-9.447 8.068,-11.701 0,-2.254 0,-3.754 0,-3.754 z"
             id="path3423"
             style="fill:url(#SVGID_13_)"
             inkscape:connector-curvature="0" /><linearGradient
             id="SVGID_14_"
             gradientUnits="userSpaceOnUse"
             x1="492.82709"
             y1="240.3438"
             x2="495.6611"
             y2="206.5108"><stop
               offset="0.0063"
               style="stop-color:#6A3500"
               id="stop3426" /><stop
               offset="1"
               style="stop-color:#6A3500;stop-opacity:0"
               id="stop3428" /></linearGradient><path
             d="m 495.914,207.131 c -2.717,7.528 -6.338,9.87 -6.338,9.87 v 3.754 c 1.477,1.709 4.471,5.91 8.369,12.359 0.879,-2.921 1.346,-5.966 1.346,-9.112 0,-6.607 -1.373,-12.158 -3.377,-16.871 z"
             id="path3430"
             style="fill:url(#SVGID_14_)"
             inkscape:connector-curvature="0" /></g><g
           id="g3432"><path
             d="m 403.684,260.447 c -2.034,0.011 -3.957,-0.496 -5.779,-1.207 -1.8,-0.768 -3.554,-1.644 -5.275,-2.583 -3.431,-1.898 -6.689,-4.144 -9.625,-6.785 -2.924,-2.648 -5.52,-5.701 -7.545,-9.127 -2.029,-3.42 -3.466,-7.215 -4.151,-11.151 -0.345,-1.973 -0.507,-3.951 -0.493,-5.974 0.005,-1.891 0.148,-3.956 0.395,-5.896 0.277,-1.96 0.664,-3.907 1.185,-5.821 0.54,-1.908 1.201,-3.781 1.983,-5.601 1.555,-3.648 3.631,-7.045 5.945,-10.21 2.288,-3.179 4.963,-6.07 7.218,-9.038 0.553,-0.741 1.07,-1.496 1.44,-2.243 0.186,-0.373 0.322,-0.738 0.42,-1.086 l 0.349,-1.413 1.439,-5.61 2.902,-11.194 c 1.923,-7.462 3.854,-14.927 5.63,-22.405 0.439,-1.865 0.888,-3.743 1.24,-5.584 0.083,-0.442 0.169,-0.949 0.188,-1.261 0.003,-0.034 0,-0.05 0.003,-0.016 0.009,0.043 -0.005,0.07 0.079,0.282 0.1,0.139 0.11,0.36 0.646,0.605 0.786,0.147 0.147,0.038 0.331,0.071 -0.072,0 -0.384,-0.031 -0.477,-0.049 -0.282,-0.04 -0.537,-0.093 -0.797,-0.148 -1.024,-0.23 -2.008,-0.551 -2.968,-0.976 -1.896,-0.836 -3.77,-2.139 -4.914,-4.135 -0.554,-0.993 -0.879,-2.119 -0.957,-3.232 -0.082,-1.116 0.065,-2.207 0.33,-3.23 0.131,-0.541 0.286,-0.956 0.497,-1.55 0.201,-0.445 0.355,-0.86 0.665,-1.384 0.557,-0.979 1.217,-1.821 2.033,-2.547 1.622,-1.444 3.614,-2.317 5.604,-2.793 2.002,-0.467 4.028,-0.599 6.022,-0.542 2.007,0.07 3.946,0.297 5.943,0.744 l 0,0 -0.939,0.266 c 0.869,-0.803 1.697,-1.361 2.602,-1.926 0.889,-0.559 1.816,-1.033 2.755,-1.479 0.943,-0.433 1.901,-0.831 2.878,-1.169 0.971,-0.356 1.964,-0.641 2.958,-0.909 0.998,-0.255 1.999,-0.494 3.013,-0.664 1.007,-0.215 2.027,-0.317 3.043,-0.46 1.018,-0.129 2.041,-0.175 3.061,-0.266 l 3.092,-0.085 3.014,0.084 c 1.028,0.09 2.067,0.138 3.086,0.267 1.016,0.143 2.036,0.245 3.043,0.46 1.014,0.171 2.015,0.409 3.013,0.664 0.994,0.268 1.987,0.553 2.958,0.909 0.977,0.338 1.934,0.736 2.878,1.168 0.938,0.446 1.866,0.92 2.755,1.479 0.903,0.565 1.732,1.123 2.602,1.926 l -0.939,-0.266 0,0 c 1.995,-0.447 3.934,-0.674 5.938,-0.746 1.993,-0.058 4.017,0.072 6.019,0.538 1.989,0.475 3.981,1.345 5.604,2.786 1.618,1.427 2.717,3.486 3.198,5.457 0.275,1.056 0.419,2.122 0.342,3.245 -0.074,1.113 -0.396,2.24 -0.947,3.234 -1.134,2.003 -3.007,3.311 -4.9,4.151 -0.959,0.425 -1.941,0.75 -2.965,0.981 -0.259,0.057 -0.516,0.109 -0.795,0.15 -0.146,0.021 -0.267,0.041 -0.48,0.053 l -0.081,0.003 c -0.061,-0.009 0.577,-0.071 0.472,-0.109 0.549,-0.318 0.611,-0.714 0.595,-0.655 0.035,-0.11 0.035,-0.128 0.041,-0.153 0.014,-0.108 0.006,-0.066 0.009,-0.051 0.015,0.292 0.103,0.808 0.184,1.245 0.351,1.838 0.8,3.715 1.237,5.579 1.773,7.472 3.705,14.931 5.627,22.386 l 2.9,11.184 1.439,5.604 0.35,1.416 0.189,0.612 0.217,0.48 c 0.36,0.744 0.881,1.498 1.426,2.238 2.242,2.965 4.922,5.851 7.209,9.026 2.319,3.159 4.396,6.552 5.959,10.194 0.785,1.817 1.456,3.687 1.995,5.594 0.524,1.912 0.919,3.856 1.202,5.815 0.48,3.925 0.627,7.886 -0.065,11.865 -0.671,3.937 -2.092,7.736 -4.107,11.163 -2.012,3.433 -4.597,6.494 -7.511,9.151 -2.929,2.646 -6.178,4.904 -9.604,6.807 -1.72,0.937 -3.463,1.835 -5.271,2.582 -1.827,0.697 -3.739,1.196 -5.773,1.213 3.182,-2.505 6.75,-3.67 10.039,-5.592 3.294,-1.859 6.394,-4.05 9.166,-6.588 2.758,-2.549 5.175,-5.459 7.037,-8.688 1.866,-3.225 3.161,-6.766 3.76,-10.429 0.615,-3.627 0.459,-7.454 -0.022,-11.156 -0.281,-1.852 -0.667,-3.685 -1.173,-5.485 -0.521,-1.796 -1.167,-3.555 -1.92,-5.268 -1.502,-3.432 -3.491,-6.642 -5.748,-9.673 -2.247,-3.059 -4.805,-5.85 -7.217,-9.023 -0.592,-0.81 -1.179,-1.645 -1.662,-2.635 -0.125,-0.265 -0.244,-0.562 -0.358,-0.844 l -0.11,-0.351 -0.053,-0.173 -0.069,-0.246 -0.341,-1.389 -1.428,-5.589 -2.888,-11.188 c -1.915,-7.465 -3.837,-14.925 -5.612,-22.446 -0.435,-1.888 -0.861,-3.763 -1.218,-5.711 -0.083,-0.51 -0.175,-0.944 -0.209,-1.615 10e-4,-0.105 -0.009,-0.184 0.024,-0.411 0.01,-0.054 0.014,-0.103 0.061,-0.24 -0.01,0.029 0.067,-0.393 0.637,-0.734 -0.084,-0.058 0.587,-0.124 0.557,-0.133 l 0.009,-0.001 0.236,-0.026 c 0.197,-0.026 0.413,-0.068 0.625,-0.112 0.857,-0.185 1.714,-0.46 2.519,-0.809 1.611,-0.693 3.041,-1.737 3.829,-3.114 0.79,-1.365 0.866,-3.086 0.436,-4.733 -0.428,-1.764 -1.237,-3.242 -2.491,-4.4 -1.258,-1.135 -2.884,-1.892 -4.627,-2.324 -3.494,-0.853 -7.387,-0.672 -10.973,0.036 l 0,0 -0.521,0.12 -0.418,-0.385 c -0.607,-0.56 -1.439,-1.149 -2.24,-1.64 -0.812,-0.511 -1.675,-0.952 -2.549,-1.368 -0.881,-0.403 -1.779,-0.778 -2.7,-1.096 -0.913,-0.336 -1.854,-0.605 -2.798,-0.859 -0.947,-0.242 -1.899,-0.47 -2.867,-0.632 -0.959,-0.206 -1.938,-0.302 -2.911,-0.44 -0.973,-0.124 -1.942,-0.166 -2.914,-0.255 l -3.007,-0.084 -2.93,0.083 c -0.979,0.089 -1.965,0.132 -2.939,0.256 -0.972,0.138 -1.952,0.234 -2.91,0.44 -0.969,0.163 -1.92,0.39 -2.868,0.632 -0.942,0.254 -1.884,0.523 -2.797,0.859 -0.922,0.318 -1.819,0.692 -2.7,1.096 -0.874,0.416 -1.738,0.856 -2.549,1.368 -0.801,0.491 -1.633,1.081 -2.24,1.64 l -0.418,0.385 -0.521,-0.12 0,0 c -3.589,-0.709 -7.484,-0.892 -10.982,-0.037 -1.745,0.432 -3.373,1.191 -4.63,2.33 -0.626,0.557 -1.154,1.266 -1.544,1.96 -0.194,0.301 -0.385,0.789 -0.575,1.225 -0.097,0.319 -0.282,0.808 -0.367,1.208 -0.437,1.683 -0.351,3.382 0.443,4.756 0.797,1.376 2.23,2.42 3.846,3.111 0.806,0.349 1.666,0.622 2.523,0.806 0.212,0.042 0.429,0.085 0.625,0.11 0.145,0.017 0.073,0.017 0.241,0.025 0.213,0.037 -0.394,-0.08 0.42,0.082 0.567,0.251 0.59,0.507 0.704,0.67 0.107,0.268 0.101,0.354 0.117,0.458 0.014,0.155 0.011,0.259 0.008,0.346 -0.039,0.651 -0.129,1.094 -0.214,1.601 -0.357,1.948 -0.786,3.825 -1.22,5.714 -1.779,7.526 -3.704,14.992 -5.621,22.463 l -2.891,11.197 -1.429,5.594 -0.344,1.395 c -0.155,0.583 -0.365,1.119 -0.609,1.609 -0.489,0.982 -1.074,1.819 -1.669,2.623 -2.417,3.166 -4.976,5.963 -7.22,9.027 -2.253,3.038 -4.244,6.252 -5.739,9.692 -0.751,1.716 -1.388,3.48 -1.911,5.278 -0.504,1.804 -0.882,3.641 -1.158,5.495 -0.246,1.882 -0.391,3.667 -0.414,5.631 -0.025,1.832 0.112,3.712 0.421,5.538 0.612,3.666 1.922,7.207 3.803,10.429 1.877,3.227 4.308,6.133 7.077,8.677 2.781,2.536 5.894,4.717 9.195,6.572 3.288,1.942 6.879,3.013 10.063,5.557 z"
             id="path3434"
             inkscape:connector-curvature="0"
             style="fill:#b28029" /></g><g
           id="g3436"><linearGradient
             id="SVGID_15_"
             gradientUnits="userSpaceOnUse"
             x1="398.69189"
             y1="186.87939"
             x2="405.8588"
             y2="179.04601"><stop
               offset="0.0063"
               style="stop-color:#6A3500"
               id="stop3439" /><stop
               offset="1"
               style="stop-color:#6A3500;stop-opacity:0"
               id="stop3441" /></linearGradient><circle
             cx="400.07599"
             cy="185.367"
             r="9.6660004"
             id="circle3443"
             style="fill:url(#SVGID_15_)"
             sodipodi:cx="400.07599"
             sodipodi:cy="185.367"
             sodipodi:rx="9.6660004"
             sodipodi:ry="9.6660004"
             d="m 409.74199,185.367 c 0,5.33839 -4.32762,9.666 -9.666,9.666 -5.33839,0 -9.666,-4.32761 -9.666,-9.666 0,-5.33838 4.32761,-9.666 9.666,-9.666 5.33838,0 9.666,4.32762 9.666,9.666 z" /><linearGradient
             id="SVGID_16_"
             gradientUnits="userSpaceOnUse"
             x1="474.61911"
             y1="189.8765"
             x2="464.28671"
             y2="176.87711"><stop
               offset="0.0063"
               style="stop-color:#6A3500"
               id="stop3446" /><stop
               offset="1"
               style="stop-color:#6A3500;stop-opacity:0"
               id="stop3448" /></linearGradient><circle
             cx="470.87601"
             cy="185.16701"
             r="9.6669998"
             id="circle3450"
             style="fill:url(#SVGID_16_)"
             sodipodi:cx="470.87601"
             sodipodi:cy="185.16701"
             sodipodi:rx="9.6669998"
             sodipodi:ry="9.6669998"
             d="m 480.54301,185.16701 c 0,5.33893 -4.32807,9.667 -9.667,9.667 -5.33894,0 -9.667,-4.32807 -9.667,-9.667 0,-5.33894 4.32806,-9.667 9.667,-9.667 5.33893,0 9.667,4.32806 9.667,9.667 z" /><g
             id="g3452"><circle
               cx="398.375"
               cy="186.666"
               r="9.6660004"
               id="circle3454"
               sodipodi:cx="398.375"
               sodipodi:cy="186.666"
               sodipodi:rx="9.6660004"
               sodipodi:ry="9.6660004"
               style="fill:#1e1e1e"
               d="m 408.041,186.666 c 0,5.33838 -4.32762,9.666 -9.666,9.666 -5.33838,0 -9.666,-4.32762 -9.666,-9.666 0,-5.33838 4.32762,-9.666 9.666,-9.666 5.33838,0 9.666,4.32762 9.666,9.666 z" /><g
               id="g3456"><circle
                 cx="402.25"
                 cy="183.33299"
                 r="2.4159999"
                 id="circle3458"
                 sodipodi:cx="402.25"
                 sodipodi:cy="183.33299"
                 sodipodi:rx="2.4159999"
                 sodipodi:ry="2.4159999"
                 style="fill:#fdffff"
                 d="m 404.666,183.33299 c 0,1.33432 -1.08168,2.416 -2.416,2.416 -1.33432,0 -2.416,-1.08168 -2.416,-2.416 0,-1.33432 1.08168,-2.416 2.416,-2.416 1.33432,0 2.416,1.08168 2.416,2.416 z" /><circle
                 cx="393.20801"
                 cy="191.29201"
                 r="1.124"
                 id="circle3460"
                 sodipodi:cx="393.20801"
                 sodipodi:cy="191.29201"
                 sodipodi:rx="1.124"
                 sodipodi:ry="1.124"
                 style="fill:#fdffff"
                 d="m 394.33201,191.29201 c 0,0.62077 -0.50323,1.124 -1.124,1.124 -0.62077,0 -1.124,-0.50323 -1.124,-1.124 0,-0.62077 0.50323,-1.124 1.124,-1.124 0.62077,0 1.124,0.50323 1.124,1.124 z" /></g></g><g
             id="g3462"><circle
               cx="472.87601"
               cy="186.666"
               r="9.6669998"
               id="circle3464"
               sodipodi:cx="472.87601"
               sodipodi:cy="186.666"
               sodipodi:rx="9.6669998"
               sodipodi:ry="9.6669998"
               style="fill:#1e1e1e"
               d="m 482.54301,186.666 c 0,5.33894 -4.32807,9.667 -9.667,9.667 -5.33894,0 -9.667,-4.32806 -9.667,-9.667 0,-5.33894 4.32806,-9.667 9.667,-9.667 5.33893,0 9.667,4.32806 9.667,9.667 z" /><g
               id="g3466"><circle
                 cx="476.75201"
                 cy="183.33299"
                 r="2.4159999"
                 id="circle3468"
                 sodipodi:cx="476.75201"
                 sodipodi:cy="183.33299"
                 sodipodi:rx="2.4159999"
                 sodipodi:ry="2.4159999"
                 style="fill:#fdffff"
                 d="m 479.16801,183.33299 c 0,1.33432 -1.08168,2.416 -2.416,2.416 -1.33432,0 -2.416,-1.08168 -2.416,-2.416 0,-1.33432 1.08168,-2.416 2.416,-2.416 1.33432,0 2.416,1.08168 2.416,2.416 z" /><circle
                 cx="467.70999"
                 cy="191.29201"
                 r="1.124"
                 id="circle3470"
                 sodipodi:cx="467.70999"
                 sodipodi:cy="191.29201"
                 sodipodi:rx="1.124"
                 sodipodi:ry="1.124"
                 style="fill:#fdffff"
                 d="m 468.83399,191.29201 c 0,0.62077 -0.50323,1.124 -1.124,1.124 -0.62077,0 -1.124,-0.50323 -1.124,-1.124 0,-0.62077 0.50323,-1.124 1.124,-1.124 0.62077,0 1.124,0.50323 1.124,1.124 z" /></g></g></g><g
           id="g3472"><linearGradient
             id="SVGID_17_"
             gradientUnits="userSpaceOnUse"
             x1="393.0889"
             y1="124.4985"
             x2="477.91211"
             y2="124.4985"><stop
               offset="0"
               style="stop-color:#1E1E1E"
               id="stop3475" /><stop
               offset="1"
               style="stop-color:#333333"
               id="stop3477" /></linearGradient><path
             stroke-miterlimit="10"
             d="m 435.5,111.666 c 16,0 22.666,6.667 22.666,6.667 0,0 15.334,-3.665 19,6.002 3.668,9.667 -7.332,11.667 -8.332,11.667 -0.082,0 -7.758,1.33 -11.9,1.33 -6.977,0 -14.529,-4.576 -21.434,-4.576 -6.902,0 -14.457,4.576 -21.434,4.576 -4.143,0 -11.817,-1.33 -11.899,-1.33 -1,0 -12,-2 -8.333,-11.667 3.667,-9.667 19,-6.002 19,-6.002 0,0 6.666,-6.667 22.666,-6.667 z"
             id="path3479"
             style="fill:url(#SVGID_17_);stroke:#03080c;stroke-width:2;stroke-miterlimit:10"
             inkscape:connector-curvature="0" /><path
             d="m 393.834,127.43 c 3.667,-9.667 19,-6.002 19,-6.002 0,0 6.666,-6.667 22.666,-6.667 16,0 22.666,6.667 22.666,6.667 0,0 15.334,-3.665 19,6.002 0.279,0.736 0.465,1.423 0.584,2.073 0.307,-1.415 0.193,-3.118 -0.584,-5.169 -3.666,-9.667 -19,-6.002 -19,-6.002 0,0 -6.666,-6.667 -22.666,-6.667 -16,0 -22.666,6.667 -22.666,6.667 0,0 -15.333,-3.665 -19,6.002 -0.778,2.051 -0.892,3.753 -0.585,5.168 0.121,-0.649 0.306,-1.335 0.585,-2.072 z"
             id="path3481"
             inkscape:connector-curvature="0"
             style="opacity:0.6;fill:#111111" /><g
             id="g3483"><g
               id="g3485"><path
                 d="m 399.959,122.334 c 0,0 0.706,-0.477 1.822,-0.922 0.586,-0.183 1.297,-0.351 2.076,-0.487 0.752,-0.081 1.562,-0.141 2.367,-0.131 0.801,0.043 1.605,0.084 2.346,0.228 0.741,0.13 1.427,0.289 2.004,0.494 1.159,0.359 1.885,0.818 1.885,0.818 0,0 -0.826,0.207 -2.011,0.323 -1.188,0.128 -2.735,0.182 -4.268,0.135 -0.382,-0.009 -0.765,-0.019 -1.141,-0.028 -0.375,-0.012 -0.747,-0.041 -1.106,-0.072 -0.689,-0.016 -1.348,-0.071 -1.936,-0.158 -1.201,-0.02 -2.038,-0.2 -2.038,-0.2 z"
                 id="path3487"
                 inkscape:connector-curvature="0"
                 style="fill:#03080c" /></g><g
               id="g3489"><path
                 d="m 471.041,122.334 c 0,0 -0.837,0.179 -2.038,0.2 -0.588,0.086 -1.246,0.142 -1.936,0.158 -0.359,0.031 -0.731,0.06 -1.106,0.072 -0.376,0.009 -0.758,0.019 -1.14,0.029 -1.533,0.047 -3.08,-0.007 -4.269,-0.135 -1.184,-0.117 -2.01,-0.324 -2.01,-0.323 0,0 0.726,-0.459 1.885,-0.818 0.576,-0.205 1.263,-0.364 2.004,-0.494 0.739,-0.144 1.544,-0.185 2.345,-0.228 0.806,-0.009 1.615,0.051 2.367,0.131 0.778,0.136 1.49,0.304 2.076,0.487 1.116,0.444 1.822,0.921 1.822,0.921 z"
                 id="path3491"
                 inkscape:connector-curvature="0"
                 style="fill:#03080c" /></g></g></g><g
           id="g3493"><path
             d="m 487.477,215.001 c 0,0 12.803,-1.746 24.469,-1.746 11.666,0 14.502,-19.92 18.834,-15.587 4.334,4.333 8.166,28.253 -11.834,30.587 -20,2.334 -23.803,-6.254 -29.469,-5.92"
             id="path3495"
             inkscape:connector-curvature="0"
             style="fill:#efbd59" /><path
             d="m 487.477,215.001 c 0,0 0.467,-0.077 1.344,-0.222 0.875,-0.151 2.163,-0.338 3.808,-0.559 0.822,-0.111 1.732,-0.234 2.724,-0.369 0.994,-0.105 2.07,-0.219 3.219,-0.341 1.15,-0.122 2.374,-0.251 3.664,-0.389 1.289,-0.164 2.657,-0.166 4.079,-0.262 1.424,-0.075 2.907,-0.152 4.443,-0.233 0.384,-0.02 0.771,-0.039 1.162,-0.059 0.31,-0.027 0.769,-0.044 1.127,-0.087 0.681,-0.117 1.413,-0.271 2.108,-0.571 1.402,-0.553 2.695,-1.482 3.838,-2.64 1.151,-1.149 2.18,-2.499 3.131,-3.95 0.961,-1.448 1.834,-3.004 2.766,-4.591 0.468,-0.794 0.945,-1.599 1.516,-2.4 0.284,-0.401 0.608,-0.798 0.986,-1.187 0.405,-0.375 0.873,-0.788 1.621,-0.989 0.196,-0.032 0.398,-0.053 0.597,-0.062 0.197,0.016 0.397,0.058 0.593,0.103 0.344,0.121 0.705,0.298 0.923,0.502 0.138,0.119 0.21,0.162 0.397,0.349 l 0.231,0.264 c 0.148,0.151 0.325,0.409 0.488,0.64 0.612,0.91 1.01,1.8 1.381,2.734 0.689,1.861 1.146,3.78 1.39,5.726 0.462,3.88 0.239,7.901 -1.094,11.602 -1.279,3.708 -3.943,6.927 -7.244,8.729 -1.635,0.918 -3.379,1.552 -5.119,1.892 -0.872,0.226 -1.718,0.277 -2.61,0.414 -0.833,0.061 -1.655,0.121 -2.466,0.18 -3.279,0.188 -6.447,0.144 -9.289,-0.325 -2.857,-0.422 -5.411,-1.197 -7.553,-2.129 -2.148,-0.922 -3.886,-1.97 -5.328,-2.769 -1.443,-0.791 -2.61,-1.373 -3.488,-1.509 -0.424,-0.14 -0.771,-0.088 -0.996,-0.129 -0.229,-0.018 -0.348,-0.026 -0.348,-0.026 0,0 0.118,0 0.348,-0.001 0.227,0.022 0.578,-0.056 1.015,0.05 0.9,0.076 2.153,0.548 3.647,1.27 1.499,0.718 3.279,1.65 5.426,2.423 2.143,0.778 4.647,1.376 7.424,1.682 2.788,0.33 5.809,0.242 9.013,-0.024 0.809,-0.084 1.629,-0.169 2.459,-0.255 0.751,-0.146 1.602,-0.222 2.379,-0.456 1.599,-0.373 3.171,-0.962 4.611,-1.814 1.444,-0.844 2.75,-1.954 3.814,-3.294 1.064,-1.339 1.894,-2.891 2.486,-4.555 1.187,-3.339 1.382,-7.089 0.931,-10.702 -0.215,-1.812 -0.634,-3.603 -1.244,-5.282 -0.314,-0.82 -0.7,-1.654 -1.132,-2.305 -0.108,-0.151 -0.18,-0.294 -0.357,-0.481 l -0.229,-0.265 c 0.017,0.027 -0.098,-0.073 -0.137,-0.106 -0.247,-0.183 -0.35,-0.226 -0.48,-0.189 -0.362,0.076 -1.021,0.731 -1.503,1.421 -0.515,0.694 -0.993,1.461 -1.466,2.232 -0.946,1.545 -1.869,3.123 -2.899,4.615 -1.025,1.492 -2.134,2.929 -3.448,4.15 -1.293,1.232 -2.797,2.255 -4.447,2.85 -0.813,0.316 -1.666,0.482 -2.546,0.591 -0.428,0.034 -0.755,0.035 -1.221,0.054 -0.388,0.004 -0.771,0.009 -1.152,0.014 -1.524,0.015 -2.997,0.029 -4.411,0.043 -2.831,-0.013 -5.425,0.141 -7.727,0.247 -1.152,0.054 -2.229,0.104 -3.227,0.15 -0.994,0.075 -1.907,0.144 -2.732,0.206 -1.649,0.137 -2.953,0.191 -3.836,0.281 -0.889,0.073 -1.36,0.113 -1.36,0.113 z"
             id="path3497"
             inkscape:connector-curvature="0"
             style="fill:#b28029" /></g><g
           id="g3499"><path
             d="m 383.167,215.001 c 0,0 -14,4.333 -25.667,4.333 -11.666,0 -21.667,-16 -26,-11.667 -4.333,4.333 -1,24.333 19,26.667 20,2.334 25.001,-12.333 30.667,-12"
             id="path3501"
             inkscape:connector-curvature="0"
             style="fill:#efbd59" /><path
             d="m 383.167,215.001 c 0,0 -1.89,0.673 -5.273,1.623 -0.85,0.223 -1.79,0.47 -2.814,0.739 -1.032,0.241 -2.148,0.5 -3.341,0.779 -2.396,0.511 -5.112,1.064 -8.124,1.399 -1.497,0.24 -3.08,0.295 -4.716,0.401 -0.409,0.024 -0.822,0.049 -1.238,0.074 -0.473,0.014 -0.844,-0.016 -1.275,-0.021 -0.906,-0.081 -1.795,-0.206 -2.662,-0.43 -3.514,-0.865 -6.782,-2.807 -9.866,-5.007 -1.547,-1.103 -3.067,-2.281 -4.604,-3.426 -1.533,-1.122 -3.116,-2.309 -4.725,-2.959 -0.4,-0.169 -0.787,-0.24 -1.137,-0.274 -0.336,0.009 -0.63,0.041 -0.876,0.208 -0.112,0.062 -0.281,0.221 -0.335,0.268 -0.153,0.185 -0.354,0.399 -0.402,0.527 l -0.133,0.214 -0.131,0.282 c -0.096,0.183 -0.166,0.388 -0.233,0.595 -0.538,1.671 -0.553,3.622 -0.284,5.487 0.527,3.764 2.188,7.396 4.609,10.273 2.42,2.892 5.584,5.046 8.982,6.298 1.691,0.65 3.44,1.069 5.177,1.34 0.858,0.163 1.727,0.225 2.618,0.328 0.854,0.045 1.692,0.12 2.537,0.107 3.366,0.044 6.535,-0.51 9.303,-1.487 2.773,-0.98 5.118,-2.394 7.081,-3.799 1.965,-1.414 3.554,-2.834 4.934,-3.929 1.364,-1.107 2.578,-1.855 3.499,-2.11 0.453,-0.141 0.821,-0.175 1.062,-0.174 0.243,0.004 0.369,0.006 0.369,0.006 0,0 -0.125,0.007 -0.367,0.022 -0.239,0.017 -0.598,0.078 -1.029,0.249 -0.883,0.311 -1.985,1.144 -3.283,2.305 -1.305,1.16 -2.813,2.672 -4.732,4.224 -1.913,1.545 -4.256,3.151 -7.125,4.28 -2.85,1.146 -6.174,1.865 -9.699,1.907 -0.877,0.038 -1.783,-0.013 -2.693,-0.038 -0.866,-0.075 -1.786,-0.115 -2.711,-0.26 -1.844,-0.223 -3.711,-0.659 -5.542,-1.316 -3.661,-1.289 -7.204,-3.54 -9.856,-6.709 -2.666,-3.141 -4.504,-7.067 -5.111,-11.24 -0.277,-2.086 -0.29,-4.254 0.403,-6.394 0.089,-0.267 0.184,-0.532 0.317,-0.794 l 0.189,-0.393 0.264,-0.419 c 0.191,-0.312 0.343,-0.454 0.506,-0.652 0.292,-0.302 0.508,-0.476 0.815,-0.667 0.598,-0.383 1.328,-0.491 1.97,-0.476 0.635,0.05 1.225,0.195 1.734,0.407 2.054,0.85 3.597,2.108 5.157,3.281 1.542,1.192 3.021,2.379 4.515,3.484 2.98,2.187 6.022,4.112 9.209,4.99 0.795,0.231 1.589,0.359 2.346,0.457 0.404,0.018 0.863,0.061 1.213,0.057 0.406,-0.01 0.81,-0.019 1.209,-0.028 1.6,-0.04 3.151,-0.03 4.635,-0.207 2.975,-0.227 5.693,-0.619 8.099,-0.989 1.2,-0.21 2.323,-0.406 3.361,-0.588 1.034,-0.21 1.983,-0.404 2.841,-0.579 1.707,-0.388 3.058,-0.667 3.967,-0.899 0.91,-0.226 1.396,-0.347 1.396,-0.347 z"
             id="path3503"
             inkscape:connector-curvature="0"
             style="fill:#b28029" /></g><linearGradient
           id="SVGID_18_"
           gradientUnits="userSpaceOnUse"
           x1="436.48239"
           y1="110.2495"
           x2="435.48251"
           y2="138.8737"><stop
             offset="0"
             style="stop-color:#FFFFFF"
             id="stop3506" /><stop
             offset="1"
             style="stop-color:#FFFFFF;stop-opacity:0"
             id="stop3508" /></linearGradient><path
           d="m 454.814,125.584 c -2.123,0 -5.994,-6.602 -14.824,-8.488 -0.84,-0.325 -1.98,-0.512 -3.496,-0.512 -0.229,0 -0.438,0.024 -0.66,0.03 -0.225,-0.006 -0.432,-0.03 -0.662,-0.03 -1.516,0 -2.656,0.187 -3.494,0.512 -8.832,1.887 -12.703,8.488 -14.826,8.488 -2.475,0 -17.482,-0.5 -17.482,3.25 0,4.25 13.208,4.75 17.482,4.75 3.744,0 12.488,-4.548 18.982,-4.548 6.494,0 15.236,4.548 18.98,4.548 4.273,0 17.482,-0.5 17.482,-4.75 0.001,-3.75 -15.007,-3.25 -17.482,-3.25 z"
           id="path3510"
           style="opacity:0.3;fill:url(#SVGID_18_)"
           inkscape:connector-curvature="0" /><g
           id="g3512"><path
             d="m 493.084,217.084 c 0,0 2.666,-0.09 6.635,-0.095 1.979,-0.01 4.288,-0.021 6.762,-0.034 1.233,10e-4 2.506,-0.045 3.79,-0.078 1.286,-0.03 2.589,-0.098 3.855,-0.243 0.641,-0.047 1.254,-0.157 1.844,-0.264 l 0.751,-0.194 0.881,-0.42 c 0.854,-0.536 1.87,-1.375 2.712,-2.19 0.84,-0.86 1.659,-1.705 2.39,-2.558 0.734,-0.846 1.42,-1.665 2.042,-2.431 1.239,-1.536 2.258,-2.842 2.969,-3.759 0.713,-0.92 1.12,-1.446 1.12,-1.446 0,0 -1.031,2.468 -3.154,5.871 -1.062,1.701 -2.387,3.641 -4.1,5.546 -0.46,0.456 -0.878,0.952 -1.404,1.39 -0.265,0.224 -0.487,0.453 -0.792,0.675 l -0.947,0.642 -0.881,0.44 -0.137,0.064 -0.067,0.02 -0.134,0.039 -0.268,0.077 -0.539,0.152 c -0.701,0.144 -1.395,0.277 -2.074,0.336 -1.366,0.131 -2.711,0.176 -4.03,0.184 -1.321,0.024 -2.613,-0.041 -3.861,-0.095 -1.249,-0.044 -2.452,-0.153 -3.591,-0.248 -1.14,-0.091 -2.213,-0.214 -3.203,-0.334 -3.962,-0.47 -6.569,-1.047 -6.569,-1.047 z"
             id="path3514"
             inkscape:connector-curvature="0"
             style="fill:#ffffff" /></g><g
           id="g3516"><path
             d="m 376.563,220.123 c 0,0 -0.689,0.175 -1.872,0.525 -1.18,0.334 -2.852,0.887 -4.874,1.505 -2.021,0.625 -4.398,1.333 -7.031,1.871 -1.32,0.245 -2.695,0.505 -4.129,0.589 -1.425,0.133 -2.91,0.07 -4.393,-0.085 -1.464,-0.229 -2.999,-0.718 -4.25,-1.282 -1.313,-0.549 -2.535,-1.201 -3.717,-1.829 -2.349,-1.28 -4.442,-2.628 -6.175,-3.867 -1.739,-1.231 -3.115,-2.36 -4.03,-3.207 -0.461,-0.419 -0.795,-0.783 -1.008,-1.043 -0.105,-0.131 -0.178,-0.239 -0.215,-0.319 -0.037,-0.08 -0.031,-0.128 -0.036,-0.126 0.004,-10e-4 0.009,0.047 0.06,0.112 0.051,0.067 0.141,0.154 0.268,0.257 0.252,0.208 0.659,0.472 1.173,0.804 1.037,0.657 2.56,1.533 4.398,2.549 1.846,1.004 4.012,2.146 6.365,3.271 1.173,0.566 2.413,1.095 3.658,1.615 1.291,0.548 2.467,0.881 3.789,1.086 1.313,0.154 2.654,0.243 3.994,0.139 1.335,-0.069 2.664,-0.208 3.947,-0.394 1.282,-0.207 2.53,-0.401 3.713,-0.625 1.188,-0.222 2.31,-0.432 3.346,-0.625 2.081,-0.391 3.832,-0.665 5.075,-0.784 0.617,-0.082 1.104,-0.084 1.435,-0.108 0.332,-0.02 0.509,-0.029 0.509,-0.029 z"
             id="path3518"
             inkscape:connector-curvature="0"
             style="fill:#ffffff" /></g><path
           d="m 388.708,194.833 c 0,0 4.619,4.238 8.565,4.238 3.946,0 12.359,-5.129 12.359,-5.129 0,0 -5.104,12.981 -11.258,12.981 -6.154,0 -9.666,-12.09 -9.666,-12.09 z"
           id="path3520"
           inkscape:connector-curvature="0"
           style="fill:#fff9de" /><path
           d="m 482.303,194.833 c 0,0 -4.619,4.238 -8.565,4.238 -3.946,0 -12.358,-5.129 -12.358,-5.129 0,0 5.104,12.981 11.258,12.981 6.154,0 9.665,-12.09 9.665,-12.09 z"
           id="path3522"
           inkscape:connector-curvature="0"
           style="fill:#fff9de" /><g
           id="g3524"><linearGradient
             id="SVGID_19_"
             gradientUnits="userSpaceOnUse"
             x1="426.8916"
             y1="240.3862"
             x2="457.89191"
             y2="206.05231"><stop
               offset="0.0063"
               style="stop-color:#6A3500"
               id="stop3527" /><stop
               offset="1"
               style="stop-color:#6A3500;stop-opacity:0"
               id="stop3529" /></linearGradient><path
             d="m 424.763,241.523 c 2.145,-0.213 4.447,-1.111 6.389,-0.825 -4.638,-2.346 -9.959,-4.201 -11.509,-8.658 2.154,-0.233 4.101,0.38 6.187,0.217 -2.551,-6.023 -2.783,-12.911 -2.301,-19.184 2.251,3.053 2.685,5.64 6.115,5.988 0.732,-6 4.479,-14.026 8.974,-19.085 -0.422,2.419 -0.396,5.057 1.217,7.156 3.04,-0.916 4.13,-3.757 5.619,-6.842 0.039,3.085 0.738,5.825 1.3,8.956 3.002,-1.546 3.072,-3.191 5.766,-4.811 0.313,4.392 -0.674,10.529 -3.095,14.709 2.672,-1.618 4.523,-4.478 7.228,-6.138 0.913,4.498 -5.079,12.696 -8.188,16.382 4.258,-0.176 7.007,-0.729 10.894,-4.575 -0.37,6.208 -4.09,10.553 -9.401,15.5 2.467,-0.608 1.589,1.216 4.107,0.533 -1.076,3.358 -11.865,9.987 -15.443,6.629 -0.002,-0.001 -10.727,0.433 -13.859,-5.952 z"
             id="path3531"
             style="fill:url(#SVGID_19_)"
             inkscape:connector-curvature="0" /><path
             stroke-miterlimit="10"
             d="m 420.763,241.523 c 2.145,-0.213 4.447,-1.111 6.389,-0.825 -4.638,-2.346 -9.959,-4.201 -11.509,-8.658 2.154,-0.233 4.101,0.38 6.187,0.217 -2.551,-6.023 -2.783,-12.911 -2.301,-19.184 2.251,3.053 2.685,5.64 6.115,5.988 0.732,-6 4.479,-14.026 8.974,-19.085 -0.422,2.419 -0.396,5.057 1.217,7.156 3.04,-0.916 4.13,-3.757 5.619,-6.842 0.039,3.085 0.738,5.825 1.3,8.956 3.002,-1.546 3.072,-3.191 5.766,-4.811 0.313,4.392 -0.674,10.529 -3.095,14.709 2.672,-1.618 4.523,-4.478 7.228,-6.138 0.913,4.498 -5.079,12.696 -8.188,16.382 4.258,-0.176 7.007,-0.729 10.894,-4.575 -0.37,6.208 -4.09,10.553 -9.401,15.5 2.467,-0.608 1.589,1.216 4.107,0.533 -1.076,3.358 -11.865,9.987 -15.443,6.629 -0.002,-0.001 -10.727,0.433 -13.859,-5.952 z"
             id="path3533"
             inkscape:connector-curvature="0"
             style="fill:#d37826;stroke:#aa550e;stroke-width:2.30760002;stroke-miterlimit:10" /><g
             id="g3535"><path
               d="m 423.012,244.286 c 0.381,0.307 0.782,0.588 1.202,0.839 0.204,0.007 0.407,0.016 0.604,0.045 -0.593,-0.301 -1.199,-0.593 -1.806,-0.884 z"
               id="path3537"
               inkscape:connector-curvature="0"
               style="fill:#f9ab6b" /><path
               d="m 428.46,209.741 c 1.164,-1.944 2.459,-3.757 3.824,-5.294 -0.422,2.419 -0.396,5.057 1.217,7.156 3.04,-0.916 5.612,-2.953 7.102,-6.038 0.039,3.085 -0.744,5.021 -0.183,8.152 3.002,-1.546 3.072,-3.191 5.766,-4.811 0.313,4.392 -1.634,11.102 -4.055,15.281 2.672,-1.618 4.871,-4.064 8.188,-6.71 0.286,1.408 -0.105,3.178 -0.872,5.059 2.081,-3.379 3.713,-7.027 3.205,-9.53 -2.704,1.661 -4.556,4.52 -7.228,6.138 2.421,-4.18 3.408,-10.317 3.095,-14.709 -2.693,1.62 -2.764,3.265 -5.766,4.811 -0.562,-3.131 -1.261,-5.871 -1.3,-8.956 -1.489,3.085 -2.579,5.926 -5.619,6.842 -1.612,-2.1 -1.639,-4.737 -1.217,-7.156 -2.375,2.672 -4.534,6.173 -6.157,9.765 z"
               id="path3539"
               inkscape:connector-curvature="0"
               style="fill:#f9ab6b" /><path
               d="m 455.357,224.812 c -3.53,3.493 -6.126,4.268 -9.762,4.513 -1.237,1.785 -2.492,3.38 -3.465,4.533 4.258,-0.176 7.007,-0.729 10.894,-4.575 -0.09,1.502 -0.379,2.894 -0.836,4.213 1.824,-2.616 2.973,-5.386 3.169,-8.684 z"
               id="path3541"
               inkscape:connector-curvature="0"
               style="fill:#f9ab6b" /><path
               d="m 423.311,223.532 c 0.181,-1.483 0.548,-3.091 1.062,-4.747 -2.312,-0.808 -2.908,-3.085 -4.845,-5.712 -0.198,2.573 -0.263,5.249 -0.109,7.926 0.915,1.368 1.896,2.331 3.892,2.533 z"
               id="path3543"
               inkscape:connector-curvature="0"
               style="fill:#f9ab6b" /></g><path
             stroke-miterlimit="10"
             d="m 420.763,241.523 c 2.145,-0.213 4.447,-1.111 6.389,-0.825 -4.638,-2.346 -9.959,-4.201 -11.509,-8.658 2.154,-0.233 4.101,0.38 6.187,0.217 -2.551,-6.023 -2.783,-12.911 -2.301,-19.184 2.251,3.053 2.685,5.64 6.115,5.988 0.732,-6 4.479,-14.026 8.974,-19.085 -0.422,2.419 -0.396,5.057 1.217,7.156 3.04,-0.916 4.13,-3.757 5.619,-6.842 0.039,3.085 0.738,5.825 1.3,8.956 3.002,-1.546 3.072,-3.191 5.766,-4.811 0.313,4.392 -0.674,10.529 -3.095,14.709 2.672,-1.618 4.523,-4.478 7.228,-6.138 0.913,4.498 -5.079,12.696 -8.188,16.382 4.258,-0.176 7.007,-0.729 10.894,-4.575 -0.37,6.208 -4.09,10.553 -9.401,15.5 2.467,-0.608 1.589,1.216 4.107,0.533 -1.076,3.358 -11.865,9.987 -15.443,6.629 -0.002,-0.001 -10.727,0.433 -13.859,-5.952 z"
             id="path3545"
             inkscape:connector-curvature="0"
             style="fill:none;stroke:#aa550e;stroke-width:2.30760002;stroke-miterlimit:10" /></g></g><path
         stroke-miterlimit="10"
         d="M 460.334,122.334"
         id="path3547"
         inkscape:connector-curvature="0"
         style="fill:#f4f4f4;stroke:#6d6d6d;stroke-width:2;stroke-miterlimit:10" /></g></g></svg>