<svg xmlns="http://www.w3.org/2000/svg" viewBox="0 0 220 220">
 <defs>
 <linearGradient id="c" y1=".49999" x1=".000008" y2=".49999">
 <stop stop-color="#050505" offset="0"/>
 <stop stop-color="#111" offset="1"/>
 </linearGradient>
 <linearGradient id="b" x2=".50001" y1="-.087566" x1=".50001" y2="1.0357">
 <stop stop-color="#fff" stop-opacity=".4" offset="0"/>
 <stop stop-color="#fff" stop-opacity="0" offset="1"/>
 </linearGradient>
 <radialGradient id="a" gradientUnits="userSpaceOnUse" cy="6626.7" cx="306.04" gradientTransform="matrix(1.8097 0 0 -.53089 -444.83 3677.3)" r="96.47">
 <stop stop-color="#fff" stop-opacity="0" offset=".2893"/>
 <stop stop-color="#fff" stop-opacity=".4" offset="1"/>
 </radialGradient>
 </defs>
 <g>
 <title>background</title>
 <rect height="222" width="222" y="-1" x="-1" fill="none"/>
 </g>
 <g>
 <title>Layer 1</title>
 <circle cy="111.49" cx="109.29" r="103.76" fill="url(#c)"/>
 <path d="m109.29 24.094c54.882 0 99.95 42.807 104.84 97.452 0.29044-3.2522 0.44662-6.5456 0.44662-9.8746 0-59.27-47.139-107.32-105.29-107.32s-105.29 48.052-105.29 107.32c0 3.329 0.15623 6.6224 0.44659 9.8746 4.8924-54.645 49.96-97.452 104.84-97.452z" fill="#141414"/>
 <path d="m109.29 205.37c-50.784 0-92.095-42.112-92.095-93.875s41.313-93.875 92.095-93.875 92.095 42.112 92.095 93.875-41.311 93.875-92.095 93.875z" stroke="#fff" stroke-miterlimit="10" fill="none"/>
 <g stroke="#E8E8E8" stroke-width="5" stroke-miterlimit="10" fill="none">
 <path d="m31.542 152.3c-0.13966-0.27725-0.27752-0.5564-0.41538-0.83368"/>
 <path stroke-dasharray="0.9561,47.8063" d="m34.49 65.682c15.298-25.797 43.076-43.043 74.801-43.043 47.558 0 86.241 38.751 87.324 86.968"/>
 <path d="m186.78 152.81c-0.1415 0.27539-0.28485 0.55263-0.42821 0.82614"/>
 </g>
 <path d="m32.584 152.65c-6.1329-12.188-9.9447-28.228-9.9447-42.848 0-17.402 7.1842-34.939 13.449-45.415" stroke="#C0272D" stroke-miterlimit="10" stroke-width="5" fill="none"/>
 <path d="m100.66 139.93h17.087c1.088 0 1.9849 1.051 1.9849 2.3361v17.218c1.9352-0.12367 5.2452 0.054291 5.2452 2.797v12.771c0 1.3601 0.25362 2.1282 0.67449 2.516 0.41723 0.38031 1.1138 0.49271 1.9592 0.49271h0.016548v0.009354c0.78107-0.007492 1.4004-0.27539 1.8213-0.69128 0.3915-0.38591 0.61017-0.91046 0.61017-1.4706v-18.032l0.36575-3.7861-1.3251-3.4639c-1.1229-1.8715-2.2697-2.7333-2.2697-2.7333l0.73144-1.0023c0.009193 0.00563 1.2939 0.97418 2.5454 3.0461l2.4076 1.5418 0.48885 4.1645-0.4962 2.2312v18.032c0 1.2214-0.48151 2.3904-1.349 3.2634-0.8546 0.84112-2.0565 1.3863-3.5305 1.3863v0.007477h-0.016548c-1.406 0-2.6428-0.26413-3.593-1.1371-0.94462-0.85988-1.4904-2.2181-1.4904-4.3725v-12.771c0-0.57512-1.6909-0.45897-2.7954-0.3222v18.168h1.4721c0.77187 0 1.3967 0.64069 1.3967 1.4313v1.952c0 0.78873-0.62487 1.4294-1.3967 1.4294h-24.001c-0.77187 0-1.3986-0.64069-1.3986-1.4294v-1.952c0-0.7906 0.62671-1.4313 1.3986-1.4313h1.4722v-37.863c0-1.2852 0.89504-2.3361 1.9849-2.3361zm2.2863 2.6003c-1.1229 0-2.0418 0.94044-2.0418 2.0813v11.836c0 1.1446 0.91893 2.0813 2.0418 2.0813h12.507c1.1303 0 2.0492-0.93669 2.0492-2.0813v-11.836c0-1.1409-0.91893-2.0813-2.0492-2.0813h-12.507z" fill="#fff" clip-rule="evenodd" fill-rule="evenodd"/>
 <circle r="103.76" cy="111.49" stroke="#3A3A3A" cx="109.29" stroke-miterlimit="10" stroke-width="5" fill="none"/>
 <path d="m200.51 87.228c0 52.259-37.816 11.518-90.514 11.518s-90.514 40.74-90.514-11.518c0-34.313 43.307-75.486 90.514-75.486s90.514 42.237 90.514 75.486z" fill="url(#b)"/>
 <path d="m177.95 170.83c0-25.148-28.39-5.5416-67.947-5.5416-39.559 0-67.949-19.607-67.949 5.5416 0 16.513 32.51 38.171 67.949 38.171 35.435-0.001877 67.947-22.17 67.947-38.171z" fill="url(#a)"/>
 </g>
</svg>
