<?xml version="1.0" encoding="UTF-8"?>
<svg width="220" height="220" xmlns="http://www.w3.org/2000/svg">
 <defs>
  <radialGradient gradientTransform="matrix(1,0,0,1,0.44139033555984497,-17.278560638427734)" gradientUnits="userSpaceOnUse" r="11.1653" cy="121.376" cx="108.5083" id="SVGID_1_">
   <stop stop-color="#6D6D6D" offset="0"/>
   <stop stop-color="#3D3D3D" offset="1"/>
  </radialGradient>
 </defs>
 <g>
  <title>background</title>
  <rect fill="none" id="canvas_background" height="222" width="222" y="-1" x="-1"/>
 </g>
 <g>
  <title>Layer 1</title>
  <g id="Layer_1">
   <g id="svg_1">
    <path id="svg_2" d="m122.215378,105.49437c0,-3.218018 -1.369019,-6.109009 -3.549011,-8.146011c-1.761993,-22.852997 -5.994987,-73.197948 -6.221008,-75.877899l-1.992981,0c-0.223999,2.650951 -4.373009,51.980911 -6.167023,75.155899c-2.67099,2.040009 -4.401001,5.248001 -4.401001,8.868011c0,0.509979 0.046021,1.008987 0.112,1.5c-0.065979,0.491989 -0.112,0.98999 -0.112,1.5c0,6.166992 4.999023,11.165977 11.166016,11.165977c6.165985,0 11.165985,-4.998985 11.165985,-11.165977c0,-0.51001 -0.046997,-1.008011 -0.112976,-1.5c0.065979,-0.491013 0.112,-0.990021 0.112,-1.5z"/>
    <g id="svg_3">
     <path id="svg_4" d="m109.34935,20.15645c0,0 -6.978973,82.916899 -6.978973,86.770918s3.125,6.979004 6.978973,6.979004s6.978027,-3.124016 6.978027,-6.979004s-6.978027,-86.770918 -6.978027,-86.770918zm0,90.401907c-1.806007,0 -3.268982,-1.464989 -3.268982,-3.269997s1.462975,-3.270004 3.268982,-3.270004c1.805023,0 3.26902,1.464996 3.26902,3.270004s-1.463997,3.269997 -3.26902,3.269997z" stroke-miterlimit="10" stroke-width="2" stroke="#BC3A11" fill="#F05A24"/>
     <g id="svg_5">
      <circle id="svg_6" r="11.164063" cy="107.096428" cx="108.94939" fill="#262626"/>
      <circle id="svg_7" r="11.164063" cy="104.096428" cx="108.94939" fill="url(#SVGID_1_)"/>
     </g>
    </g>
   </g>
  </g>
  <g id="needleFuel"/>
  <g id="needleSpeed"/>
 </g>
</svg>