<?xml version="1.0" encoding="UTF-8"?>
<svg width="220" height="220" xmlns="http://www.w3.org/2000/svg">
 <defs>
  <linearGradient y2="0.499987" x2="1.000009" y1="0.499987" x1="0.000008" id="SVGID_2_">
   <stop stop-color="#050505" offset="0"/>
   <stop stop-color="#111111" offset="1"/>
  </linearGradient>
  <linearGradient y2="1.035655" x2="0.50001" y1="-0.087566" x1="0.50001" id="SVGID_7_">
   <stop stop-color="#FFFFFF" stop-opacity="0.4" offset="0"/>
   <stop stop-color="#FFFFFF" stop-opacity="0" offset="1"/>
  </linearGradient>
  <radialGradient gradientUnits="userSpaceOnUse" gradientTransform="matrix(1.8097459077835083,0,0,-0.5308914184570312,-444.8304138183594,3677.3173828125)" r="96.4702" cy="6626.7017" cx="306.0371" id="SVGID_8_">
   <stop stop-color="#FFFFFF" stop-opacity="0" offset="0.2893"/>
   <stop stop-color="#FFFFFF" stop-opacity="0.4" offset="1"/>
  </radialGradient>
 </defs>
 <g>
  <title>background</title>
  <rect fill="none" id="canvas_background" height="222" width="222" y="-1" x="-1"/>
 </g>
 <g>
  <title>Layer 1</title>
  <g id="Layer_1">
   <g id="svg_26">
    <g id="svg_27">
     <g id="svg_28">
      <g id="svg_29">
       <circle id="svg_30" r="103.756927" cy="111.493597" cx="109.290673" fill="url(#SVGID_2_)"/>
      </g>
      <path id="svg_31" d="m109.290688,24.094461c54.882072,0 99.949989,42.806913 104.842323,97.451727c0.290436,-3.25219 0.446625,-6.545624 0.446625,-9.874626c0,-59.270218 -47.139145,-107.322602 -105.288948,-107.322602s-105.288949,48.052384 -105.288949,107.322602c0,3.329002 0.15623,6.622437 0.446592,9.874626c4.892378,-54.644814 49.960296,-97.451727 104.842357,-97.451727z" fill="#141414"/>
      <g id="svg_32">
       <path id="svg_33" d="m109.290688,205.370911c-50.783619,0 -92.095005,-42.111877 -92.095005,-93.875435s41.313179,-93.875427 92.095005,-93.875427s92.095009,42.111877 92.095009,93.875427s-41.311371,93.875435 -92.095009,93.875435z" stroke-miterlimit="10" stroke="#FFFFFF" fill="none"/>
      </g>
      <g id="svg_34">
       <g id="svg_35">
        <path id="svg_36" d="m31.541988,152.297852c-0.139656,-0.277252 -0.277517,-0.556396 -0.41538,-0.833679" stroke-miterlimit="10" stroke-width="5" stroke="#E8E8E8" fill="none"/>
        <path id="svg_37" d="m34.489918,65.681793c15.298325,-25.796547 43.075657,-43.04294 74.80077,-43.04294c47.558189,0 86.241402,38.751009 87.323875,86.968256" stroke-dasharray="0.9561,47.8063" stroke-miterlimit="10" stroke-width="5" stroke="#E8E8E8" fill="none"/>
        <path id="svg_38" d="m186.782059,152.805542c-0.141495,0.275391 -0.284851,0.552628 -0.428207,0.826141" stroke-miterlimit="10" stroke-width="5" stroke="#E8E8E8" fill="none"/>
       </g>
      </g>
      <path id="svg_39" d="m32.584084,152.650055c-6.132936,-12.188248 -9.94466,-28.228188 -9.94466,-42.848106c0,-17.401886 7.184174,-34.93869 13.449474,-45.41465" stroke-miterlimit="10" stroke-width="5" stroke="#C0272D" fill="none"/>
     </g>
     <path id="svg_40" d="m100.660088,139.927872l17.086548,0c1.088028,0 1.984917,1.05098 1.984917,2.336121l0,17.218323c1.935226,-0.123672 5.245201,0.054291 5.245201,2.796951l0,12.770874c0,1.360077 0.253624,2.128174 0.674492,2.515961c0.417229,0.38031 1.113777,0.492706 1.959175,0.492706l0.016548,0l0,0.009354c0.781067,-0.007492 1.400436,-0.275391 1.821304,-0.691284c0.391495,-0.38591 0.610168,-0.910461 0.610168,-1.470627l0,-0.0056l0,-18.025742l0.365753,-3.786102l-1.325119,-3.463898c-1.122917,-1.871506 -2.26973,-2.733276 -2.26973,-2.733276l0.731438,-1.002274c0.009193,0.00563 1.293861,0.974182 2.545448,3.046143l2.407593,1.541809l0.488846,4.164536l-0.496201,2.231201l0,18.025726l0,0.00563c0,1.221436 -0.481506,2.390442 -1.348999,3.263443c-0.854599,0.841125 -2.056549,1.386292 -3.530502,1.386292l0,0.007477l-0.016548,0c-1.405983,0 -2.642815,-0.26413 -3.59304,-1.137131c-0.944618,-0.859879 -1.490448,-2.218094 -1.490448,-4.372482l0,-12.770889c0,-0.575119 -1.690865,-0.458969 -2.79538,-0.322205l0,18.168091l1.472115,0c0.771866,0 1.396736,0.640686 1.396736,1.43129l0,1.952042c0,0.788727 -0.62487,1.429413 -1.396736,1.429413l-24.000603,0c-0.771873,0 -1.398582,-0.640686 -1.398582,-1.429413l0,-1.952042c0,-0.790604 0.626709,-1.43129 1.398582,-1.43129l1.472168,0l0,-37.863007c0,-1.285172 0.895035,-2.336121 1.984856,-2.336121l0,0zm2.286331,2.600266c-1.122917,0 -2.041847,0.940445 -2.041847,2.081314l0,11.83609c0,1.144623 0.91893,2.081314 2.041847,2.081314l12.506599,0c1.130318,0 2.049248,-0.936691 2.049248,-2.081314l0,-11.83609c0,-1.140869 -0.91893,-2.081314 -2.049248,-2.081314l-12.506599,0z" fill="#FFFFFF" clip-rule="evenodd" fill-rule="evenodd"/>
    </g>
    <g id="svg_41">
     <circle id="svg_42" r="103.756927" cy="111.493597" cx="109.290673" stroke-miterlimit="10" stroke-width="5" stroke="#3A3A3A" fill="none"/>
    </g>
   </g>
  </g>
  <g id="shine">
   <path id="svg_58" d="m200.514114,87.228416c0,52.258553 -37.816452,11.51841 -90.514412,11.51841s-90.514469,40.740143 -90.514469,-11.51841c0,-34.313065 43.307205,-75.486475 90.514469,-75.486475s90.514412,42.236696 90.514412,75.486475z" fill="url(#SVGID_7_)"/>
   <path id="svg_59" d="m177.94841,170.829605c0,-25.14827 -28.389511,-5.541626 -67.946884,-5.541626c-39.55925,0 -67.948757,-19.606644 -67.948757,5.541626c0,16.51326 32.510258,38.170837 67.948757,38.170837c35.434799,-0.001877 67.946884,-22.170303 67.946884,-38.170837z" fill="url(#SVGID_8_)"/>
  </g>
 </g>
</svg>