<?xml version="1.0" encoding="UTF-8" standalone="no"?>
<!-- Generator: Adobe Illustrator 16.0.0, SVG Export Plug-In . SVG Version: 6.00 Build 0)  -->

<svg
   xmlns:dc="http://purl.org/dc/elements/1.1/"
   xmlns:cc="http://creativecommons.org/ns#"
   xmlns:rdf="http://www.w3.org/1999/02/22-rdf-syntax-ns#"
   xmlns:svg="http://www.w3.org/2000/svg"
   xmlns="http://www.w3.org/2000/svg"
   xmlns:sodipodi="http://sodipodi.sourceforge.net/DTD/sodipodi-0.dtd"
   xmlns:inkscape="http://www.inkscape.org/namespaces/inkscape"
   version="1.1"
   id="Layer_1"
   x="0px"
   y="0px"
   width="100"
   height="37.387436"
   viewBox="0 0 100 37.387435"
   enable-background="new 0 0 221.989 82.996"
   xml:space="preserve"
   inkscape:version="0.48.4 r9939"
   sodipodi:docname="hide_button.svg"><metadata
     id="metadata35"><rdf:RDF><cc:Work
         rdf:about=""><dc:format>image/svg+xml</dc:format><dc:type
           rdf:resource="http://purl.org/dc/dcmitype/StillImage" /></cc:Work></rdf:RDF></metadata><defs
     id="defs33" /><sodipodi:namedview
     pagecolor="#ffffff"
     bordercolor="#666666"
     borderopacity="1"
     objecttolerance="10"
     gridtolerance="10"
     guidetolerance="10"
     inkscape:pageopacity="0"
     inkscape:pageshadow="2"
     inkscape:window-width="1375"
     inkscape:window-height="876"
     id="namedview31"
     showgrid="false"
     inkscape:zoom="1.8602289"
     inkscape:cx="-39.715395"
     inkscape:cy="18.975143"
     inkscape:window-x="65"
     inkscape:window-y="204"
     inkscape:window-maximized="1"
     inkscape:current-layer="g3"
     fit-margin-top="0"
     fit-margin-left="0"
     fit-margin-right="0"
     fit-margin-bottom="0" /><g
     id="g3"
     transform="matrix(0.45047277,0,0,0.45047277,1.3023499e-7,-1.50946e-6)"><g
       id="g5"><linearGradient
         id="SVGID_1_"
         gradientUnits="userSpaceOnUse"
         x1="110.9946"
         y1="-3.5"
         x2="110.9946"
         y2="70.096802"><stop
           offset="0"
           style="stop-color:#FBED21"
           id="stop8" /><stop
           offset="1"
           style="stop-color:#FAAF3B"
           id="stop10" /></linearGradient><path
         d="m 219.489,70.496 c 0,5.5 -4.5,10 -10,10 H 12.5 c -5.5,0 -10,-4.5 -10,-10 V 12.5 C 2.5,7 7,2.5 12.5,2.5 h 196.989 c 5.5,0 10,4.5 10,10 v 57.996 z"
         id="path12"
         style="fill:url(#SVGID_1_)"
         inkscape:connector-curvature="0" /><path
         stroke-miterlimit="10"
         d="m 219.489,70.496 c 0,5.5 -4.5,10 -10,10 H 12.5 c -5.5,0 -10,-4.5 -10,-10 V 12.5 C 2.5,7 7,2.5 12.5,2.5 h 196.989 c 5.5,0 10,4.5 10,10 v 57.996 z"
         id="path14"
         inkscape:connector-curvature="0"
         style="fill:none;stroke:#f6921e;stroke-width:5;stroke-miterlimit:10" /></g><g
       id="g18"><linearGradient
         id="SVGID_2_"
         gradientUnits="userSpaceOnUse"
         x1="111.062"
         y1="10.1445"
         x2="111.062"
         y2="56.058899"><stop
           offset="0.0051"
           style="stop-color:#FFFFFF;stop-opacity:0.4"
           id="stop21" /><stop
           offset="1"
           style="stop-color:#FFFFFF;stop-opacity:0"
           id="stop23" /></linearGradient><path
         d="m 212.957,37.492 c 0,8.548 -203.789,10.448 -203.789,0 0,-10.449 0,-23.992 0,-23.992 0,-2.75 2.25,-5 5,-5 h 193.789 c 2.75,0 5,2.25 5,5 0,0 0,15.443 0,23.992 z"
         id="path25"
         style="fill:url(#SVGID_2_)"
         inkscape:connector-curvature="0" /></g><g
       id="g3012"
       transform="translate(0.70959706,0)"><text
         y="55.8223"
         x="86.219612"
         style="font-size:40px;fill:#232323;font-family:Eagle-Bold"
         id="text16"
         font-size="40">HIDE</text>
<g
         transform="translate(-133.1934,0)"
         id="g27"><path
           style="fill:none;stroke:#232323;stroke-width:4;stroke-linecap:round;stroke-miterlimit:10"
           inkscape:connector-curvature="0"
           id="path29"
           d="m 190.974,23.276 -15.801,15.801 c -1.334,1.33 -1.334,3.512 0,4.842 l 15.801,15.801"
           stroke-miterlimit="10" /></g></g></g></svg>