<!DOCTYPE svg PUBLIC '-//W3C//DTD SVG 1.1//EN' 'http://www.w3.org/Graphics/SVG/1.1/DTD/svg11.dtd'>
<svg xmlns="http://www.w3.org/2000/svg" xml:space="preserve" version="1.1" xmlns:xlink="http://www.w3.org/1999/xlink" viewBox="0 0 66.664 144.224" enable-background="new 0 0 66.664 144.224">
		<rect y="51.481" x="31.322" fill="#E09336" width="5.074" height="65.545"/>
		<linearGradient id="f" y2="93.167" gradientUnits="userSpaceOnUse" y1="64.132" x2="33.859" x1="33.859">
			<stop stop-color="#FFFF4E" stop-opacity=".6" offset="0"/>
			<stop stop-color="#fff" stop-opacity="0" offset="1"/>
		</linearGradient>
		<polygon points="35.128 56.275 35.128 113.1 32.591 113.1 32.591 56.275 33.859 56.41" fill="url(#f)"/>
			<path d="m30.331 118.45v21.246c0 1.949 1.579 3.529 3.528 3.529 1.948 0 3.527-1.58 3.527-3.529v-21.246h-7.055z" fill="#E89E0C"/>
			<path d="m30.331 123.21c0.985 0.135 2.109 0.193 3.305 0.193 1.381 0 2.665-0.08 3.751-0.264v-4.695h-7.056v4.77z" fill="#A55D1B"/>
			<path d="m33.859 140.45c-1.949 0-3.528-1.58-3.528-3.527v2.77c0 1.949 1.579 3.529 3.528 3.529 1.948 0 3.527-1.58 3.527-3.529v-2.77c0.001 1.95-1.578 3.53-3.527 3.53z" fill="#E8890C"/>
			<path stroke="#BF6616" stroke-width="2" stroke-miterlimit="10" d="m30.331 118.45v21.246c0 1.949 1.579 3.529 3.528 3.529 1.948 0 3.527-1.58 3.527-3.529v-21.246h-7.055z" fill="none"/>
			<rect y="127.63" x="35.354" fill="#E8890C" width="1.427" height="6.301"/>
		<g fill="#654213">
			<path d="m54.496 124.98c0.001 0.012 0.002 0.025 0-0.002-0.001-0.016 0-0.01 0 0-0.067-0.826-0.759-1.354-1.302-1.898-0.914 0.52-16.153 4.547-17.841 4.547l0.783 0.785h9.816l-0.003 1.371 0.782 0.783h7.765c0.003-1.53 0.12-4.06 0-5.59z"/>
			<path d="m35.296 138.74l0.782 0.783h14.776c1.311 0 3.268 0.295 3.636-1.424 0.16-0.689 0.042-1.486 0.044-2.195 0.001-0.889 0.002-3.127 0.003-4.016l-0.783-0.785s-16.674 7.64-18.458 7.64z"/>
		</g>
			<linearGradient id="e" y2="136.49" gradientUnits="userSpaceOnUse" y1="120.92" x2="60.712" x1="38.099">
				<stop stop-color="#EABF0A" offset=".0357"/>
				<stop stop-color="#fff" offset=".0969"/>
				<stop stop-color="#EABF0A" offset=".2143"/>
				<stop stop-color="#EABD0A" offset=".6122"/>
				<stop stop-color="#F4DE7F" offset=".6786"/>
				<stop stop-color="#EABB0A" offset=".7857"/>
				<stop stop-color="#EA940A" offset=".9694"/>
			</linearGradient>
			<path stroke="#BF6616" stroke-width="2" stroke-miterlimit="10" d="m51.249 122.83c0.989 0 1.797 0.807 1.795 1.793l-0.001 1.35-0.004 3.145h-6.417c0.043-1.588-0.025-2.158-2.337-2.158h-8.348l0.004-4.129h15.308z" fill="url(#e)"/>
			<linearGradient id="d" y2="143" gradientUnits="userSpaceOnUse" y1="127.43" x2="56.223" x1="33.611">
				<stop stop-color="#EABF0A" offset=".0357"/>
				<stop stop-color="#fff" offset=".0969"/>
				<stop stop-color="#EABF0A" offset=".2143"/>
				<stop stop-color="#EABD0A" offset=".6122"/>
				<stop stop-color="#F4DE7F" offset=".6786"/>
				<stop stop-color="#EABB0A" offset=".7857"/>
				<stop stop-color="#EA940A" offset=".9694"/>
			</linearGradient>
			<path stroke="#BF6616" stroke-width="2" stroke-miterlimit="10" d="m53.036 131.77l-0.004 3.143-0.002 1.346c-0.002 0.99-0.811 1.799-1.801 1.799h-15.305l0.004-4.129h8.349c2.312 0 2.381-0.57 2.343-2.158h6.416z" fill="url(#d)"/>
		<path d="m31.322 55.052c0.761 0.206 1.628 0.325 2.549 0.325 0.911 0 1.77-0.116 2.525-0.319v-3.576h-5.074v3.57z" fill="#A55D1B"/>
			<rect height="65.545" width="5.074" stroke="#BF6616" stroke-miterlimit="10" y="51.481" x="31.322" stroke-width="2" fill="none"/>
		<path stroke="#BF6616" stroke-width="2" stroke-miterlimit="10" d="m40.673 118.06c0 1.736-1.408 3.145-3.145 3.145h-7.338c-1.737 0-3.146-1.408-3.146-3.145 0-1.738 1.408-3.145 3.146-3.145h7.338c1.737 0 3.145 1.41 3.145 3.14z" fill="#EABF0A"/>
		<linearGradient id="c" y2="118.35" gradientUnits="userSpaceOnUse" y1="116.08" x2="33.905" x1="33.905">
			<stop stop-color="#FFFF69" stop-opacity=".6" offset="0"/>
			<stop stop-color="#fff" stop-opacity="0" offset="1"/>
		</linearGradient>
		<path d="m37.305 117.17c0 0.693-0.563 1.258-1.259 1.258h-4.283c-0.693 0-1.257-0.564-1.257-1.258 0-0.695 0.563-1.258 1.257-1.258h4.283c0.695 0 1.259 0.56 1.259 1.26z" fill="url(#c)"/>
		<path d="m37.528 118.85h-7.338c-1.319 0-2.447-0.812-2.914-1.965-0.147 0.363-0.231 0.762-0.231 1.18 0 1.736 1.408 3.145 3.146 3.145h7.338c1.736 0 3.145-1.408 3.145-3.145 0-0.418-0.084-0.816-0.23-1.18-0.469 1.16-1.596 1.97-2.916 1.97z" fill="#E8890C"/>
		<path stroke="#BF6616" stroke-width="2" stroke-miterlimit="10" d="m40.673 118.06c0 1.736-1.408 3.145-3.145 3.145h-7.338c-1.737 0-3.146-1.408-3.146-3.145 0-1.738 1.408-3.145 3.146-3.145h7.338c1.737 0 3.145 1.41 3.145 3.14z" fill="none"/>
	<g fill="#764C16">
		<path d="m4.924 30.048c0.032 0.966 0.293 1.923 0.753 2.772 0.556 1.018 1.428 1.788 2.237 2.598-2.381-2.385-2.378-6.325-0.059-8.743 2.382-2.483 6.469-2.531 8.902-0.095-1.021-1.022-1.967-2.06-3.347-2.589-1.344-0.516-2.853-0.543-4.215-0.082-2.585 0.873-4.369 3.4-4.271 6.139 0.002 0.078-0.003-0.074 0 0z"/>
		<path d="m18.177 19.872c-0.017 0.296-0.028 0.594-0.029 0.893l1.175 1.176c0.015-5.038 2.44-10 6.54-12.965 3.995-2.892 9.344-3.592 13.943-1.801 1.911 0.744 3.651 1.898 5.1 3.348-1.706-1.708-3.402-3.264-5.636-4.258-2.17-0.966-4.627-1.418-6.999-1.214-4.959 0.426-9.332 3.186-11.861 7.481-1.321 2.219-2.077 4.763-2.233 7.34-0.017 0.296 0.006-0.094 0 0z"/>
		<path d="m22.652 32.236c-0.583-1.029-0.345-2.339 0.535-3.119 0.976-0.847 2.485-0.805 3.404 0.114l-1.174-1.176c-1.169-1.169-3.21-0.858-3.973 0.601-0.284 0.544-0.36 1.162-0.222 1.76 0.239 0.993 1.141 1.659 1.829 2.349-0.154-0.156-0.29-0.337-0.399-0.529-0.006-0.011 0.045 0.08 0 0z"/>
		<path d="m33.233 33.822l1.174 1.175c-0.339-1.291-0.844-2.546-1.429-3.744-0.538-1.098-1.165-2.155-1.888-3.142-0.854-1.17-1.875-2.174-2.897-3.197 2.402 2.405 4.177 5.62 5.04 8.908z"/>
		<path d="m44.604 28.056c-1.167-1.169-3.208-0.858-3.973 0.601-0.284 0.543-0.362 1.163-0.222 1.759 0.238 0.994 1.141 1.66 1.829 2.349-0.957-0.963-0.949-2.555-0.001-3.519 0.956-0.971 2.574-0.982 3.54-0.015l-0.002-0.002c-0.077-0.156-0.337-0.336-0.467-0.468-0.234-0.234-0.468-0.469-0.704-0.705-0.451-0.451 0.392 0.392 0 0z"/>
		<path d="m47.975 7.757c2.929 3.426 4.581 7.854 4.612 12.362l1.174 1.176c-0.021-2.682-0.606-5.348-1.708-7.792-0.581-1.282-1.3-2.504-2.145-3.629-0.883-1.17-1.919-2.192-2.952-3.226 0.356 0.354 0.692 0.728 1.019 1.109 0.239 0.28-0.068-0.078 0 0z"/>
		<path d="m57.765 24.068c-2.884-1.201-6.548-0.024-7.956 2.848-0.68 1.387-0.927 2.921-0.545 4.437 0.437 1.725 1.596 2.848 2.81 4.065-2.381-2.381-2.378-6.327-0.061-8.742 2.384-2.483 6.471-2.534 8.904-0.096-0.963-0.966-1.867-1.966-3.152-2.512-0.013-0.005 0.159 0.068 0 0z"/>
		<path d="m66.491 32.667c0.323-1.731 0.193-3.542-0.399-5.203-0.71-1.993-2.043-3.403-3.507-4.87 3.604 3.604 3.843 9.537 0.583 13.44-2.054 2.459-5.006 3.603-8.152 3.603h-44.059c-2.63 0-5.19-1.059-7.048-2.92 1.126 1.129 2.206 2.24 3.639 2.983 1.413 0.732 2.993 1.113 4.584 1.113h43.661c0.544 0 1.086 0.009 1.629-0.032 2.116-0.163 4.15-1.005 5.759-2.392 1.713-1.477 2.882-3.504 3.31-5.722 0.033-0.179-0.008 0.041 0 0z"/>
	</g>
		<path d="m39.337 44.146v4.492c0 2.233-1.81 4.043-4.043 4.043h-2.846c-2.233 0-4.043-1.81-4.043-4.043v-4.492h10.932z" fill="#CE7D25"/>
		<linearGradient id="b" y2="46.375" gradientUnits="userSpaceOnUse" y1="51.333" x2="33.87" x1="33.87">
			<stop stop-color="#FFFF4E" stop-opacity=".6" offset="0"/>
			<stop stop-color="#fff" stop-opacity="0" offset="1"/>
		</linearGradient>
		<path d="m37.424 45.639v2.92c0 1.451-1.177 2.628-2.629 2.628h-1.849c-1.452 0-2.629-1.177-2.629-2.628v-2.92h7.107z" fill="url(#b)"/>
		<path d="m28.405 45.26c1.356 0.487 3.305 0.794 5.478 0.794 2.16 0 4.099-0.304 5.454-0.786v-1.123h-10.932v1.115z" fill="#A55D1B"/>
		<path stroke="#BF6616" stroke-width="2" stroke-miterlimit="10" d="m39.337 44.146v4.492c0 2.233-1.81 4.043-4.043 4.043h-2.846c-2.233 0-4.043-1.81-4.043-4.043v-4.492h10.932z" fill="none"/>
		<path d="m48.833 38.754c0 2.977-2.413 5.391-5.391 5.391h-19.167c-2.978 0-5.391-2.414-5.391-5.391h29.949z" fill="#E09336"/>
		<path d="m18.885 38.754c0 2.18 1.296 4.054 3.158 4.903-0.03-0.058-1.164-2.207 0.003-2.207h23.65c1.167 0 0.033 2.149 0.002 2.207 1.862-0.849 3.159-2.723 3.159-4.903h-29.972z" fill="#CE7D25"/>
		<path stroke="#BF6616" stroke-width="2" stroke-miterlimit="10" d="m48.833 38.754c0 2.977-2.413 5.391-5.391 5.391h-19.167c-2.978 0-5.391-2.414-5.391-5.391h29.949z" fill="none"/>
		<linearGradient id="a" y2="30.546" gradientUnits="userSpaceOnUse" y1="16.394" x2="66.191" x1="5.9922">
			<stop stop-color="#EABF0A" offset=".0357"/>
			<stop stop-color="#fff" offset=".0969"/>
			<stop stop-color="#EABF0A" offset=".2143"/>
			<stop stop-color="#EABD0A" offset=".6122"/>
			<stop stop-color="#F4DE7F" offset=".6786"/>
			<stop stop-color="#EABB0A" offset=".7857"/>
			<stop stop-color="#EA940A" offset=".9694"/>
		</linearGradient>
		<path stroke="#BF6616" stroke-width="2" stroke-miterlimit="10" d="m55.536 19.674c5.516 0 9.972 4.47 9.957 9.981s-4.496 9.981-10.013 9.981h-44.523c-5.515 0-9.973-4.47-9.957-9.981 0.015-5.511 4.497-9.981 10.013-9.981 1.025 0 2.014 0.153 2.946 0.444 0.138-10.578 8.766-19.118 19.364-19.118 10.604 0 19.183 8.54 19.264 19.119 0.933-0.292 1.923-0.445 2.949-0.445zm-22.303 14.148c0.175-0.653 3.5-13.058 15.161-13.058 0.021-8.354-6.382-15.755-15.083-15.755-8.696 0-15.141 7.401-15.164 15.755 11.662 0 14.915 12.405 15.086 13.058zm22.072 2.245c3.448 0 6.25-2.798 6.26-6.243 0.01-3.448-2.777-6.246-6.225-6.246-3.449 0-6.25 2.798-6.26 6.246-0.01 3.445 2.776 6.243 6.225 6.243m-44.159 0c3.447 0 6.25-2.798 6.258-6.243 0.011-3.448-2.775-6.246-6.225-6.246-3.448 0-6.249 2.798-6.258 6.246-0.01 3.445 2.776 6.243 6.225 6.243m31.681-3.747c1.381 0 2.502-1.118 2.506-2.495 0.004-1.38-1.111-2.499-2.492-2.499-1.378 0-2.499 1.119-2.502 2.499-0.005 1.377 1.11 2.495 2.488 2.495m-19.188 0c1.382 0 2.504-1.118 2.507-2.495 0.004-1.38-1.111-2.499-2.493-2.499-1.375 0-2.498 1.119-2.501 2.499-0.005 1.377 1.111 2.495 2.487 2.495" fill="url(#a)"/>
</svg>
