<?xml version="1.0" encoding="utf-8"?>
<!-- Generator: Adobe Illustrator 16.2.1, SVG Export Plug-In . SVG Version: 6.00 Build 0)  -->
<!DOCTYPE svg PUBLIC "-//W3C//DTD SVG 1.1//EN" "http://www.w3.org/Graphics/SVG/1.1/DTD/svg11.dtd">
<svg version="1.1" id="Layer_1" xmlns="http://www.w3.org/2000/svg" xmlns:xlink="http://www.w3.org/1999/xlink" x="0px" y="0px"
	 width="66.664px" height="144.224px" viewBox="0 0 66.664 144.224" enable-background="new 0 0 66.664 144.224"
	 xml:space="preserve">
<g>
	<g>
		<rect x="31.322" y="51.481" fill="#E09336" width="5.074" height="65.545"/>
		<linearGradient id="SVGID_1_" gradientUnits="userSpaceOnUse" x1="33.8594" y1="64.1318" x2="33.8594" y2="93.1668">
			<stop  offset="0" style="stop-color:#FFFF4E;stop-opacity:0.6"/>
			<stop  offset="1" style="stop-color:#FFFFFF;stop-opacity:0"/>
		</linearGradient>
		<polygon fill="url(#SVGID_1_)" points="35.128,56.275 35.128,113.104 32.591,113.104 32.591,56.275 33.859,56.41 		"/>
		<g>
			<path fill="#E89E0C" d="M30.331,118.448v21.246c0,1.949,1.579,3.529,3.528,3.529l0,0c1.948,0,3.527-1.58,3.527-3.529v-21.246
				H30.331z"/>
			<path fill="#A55D1B" d="M30.331,123.214c0.985,0.135,2.109,0.193,3.305,0.193c1.381,0,2.665-0.08,3.751-0.264v-4.695h-7.056
				V123.214z"/>
			<path fill="#E8890C" d="M33.859,140.452c-1.949,0-3.528-1.58-3.528-3.527v2.77c0,1.949,1.579,3.529,3.528,3.529
				c1.948,0,3.527-1.58,3.527-3.529v-2.77C37.387,138.872,35.808,140.452,33.859,140.452z"/>
			<path fill="none" stroke="#BF6616" stroke-width="2" stroke-miterlimit="10" d="M30.331,118.448v21.246
				c0,1.949,1.579,3.529,3.528,3.529l0,0c1.948,0,3.527-1.58,3.527-3.529v-21.246H30.331z"/>
			<rect x="35.354" y="127.63" fill="#E8890C" width="1.427" height="6.301"/>
		</g>
		<g>
			<path fill="#654213" d="M54.496,124.983c0.001,0.012,0.002,0.025,0-0.002c-0.001-0.016,0-0.01,0,0
				c-0.067-0.826-0.759-1.354-1.302-1.898c-0.914,0.52-16.153,4.547-17.841,4.547l0.783,0.785h9.816l-0.003,1.371l0.782,0.783h7.765
				C54.499,129.04,54.616,126.511,54.496,124.983z"/>
			<path fill="#654213" d="M35.296,138.735l0.782,0.783c4.478,0,10.299,0,14.776,0c1.311,0,3.268,0.295,3.636-1.424
				c0.16-0.689,0.042-1.486,0.044-2.195c0.001-0.889,0.002-3.127,0.003-4.016l-0.783-0.785
				C53.754,131.099,37.08,138.735,35.296,138.735z"/>
		</g>
		<g>
			<linearGradient id="SVGID_2_" gradientUnits="userSpaceOnUse" x1="38.0986" y1="120.915" x2="60.7125" y2="136.4904">
				<stop  offset="0.0357" style="stop-color:#EABF0A"/>
				<stop  offset="0.0969" style="stop-color:#FFFFFF"/>
				<stop  offset="0.2143" style="stop-color:#EABF0A"/>
				<stop  offset="0.6122" style="stop-color:#EABD0A"/>
				<stop  offset="0.6786" style="stop-color:#F4DE7F"/>
				<stop  offset="0.7857" style="stop-color:#EABB0A"/>
				<stop  offset="0.9694" style="stop-color:#EA940A"/>
			</linearGradient>
			<path fill="url(#SVGID_2_)" stroke="#BF6616" stroke-width="2" stroke-miterlimit="10" d="M51.249,122.827
				c0.989,0,1.797,0.807,1.795,1.793l-0.001,1.35l-0.004,3.145h-6.417c0.043-1.588-0.025-2.158-2.337-2.158h-8.348l0.004-4.129
				H51.249z"/>
		</g>
		<g>
			<linearGradient id="SVGID_3_" gradientUnits="userSpaceOnUse" x1="33.6113" y1="127.4307" x2="56.223" y2="143.0045">
				<stop  offset="0.0357" style="stop-color:#EABF0A"/>
				<stop  offset="0.0969" style="stop-color:#FFFFFF"/>
				<stop  offset="0.2143" style="stop-color:#EABF0A"/>
				<stop  offset="0.6122" style="stop-color:#EABD0A"/>
				<stop  offset="0.6786" style="stop-color:#F4DE7F"/>
				<stop  offset="0.7857" style="stop-color:#EABB0A"/>
				<stop  offset="0.9694" style="stop-color:#EA940A"/>
			</linearGradient>
			<path fill="url(#SVGID_3_)" stroke="#BF6616" stroke-width="2" stroke-miterlimit="10" d="M53.036,131.772l-0.004,3.143
				l-0.002,1.346c-0.002,0.99-0.811,1.799-1.801,1.799H35.924l0.004-4.129h8.349c2.312,0,2.381-0.57,2.343-2.158H53.036z"/>
		</g>
		<path fill="#A55D1B" d="M31.322,55.052c0.761,0.206,1.628,0.325,2.549,0.325c0.911,0,1.77-0.116,2.525-0.319v-3.576h-5.074V55.052
			z"/>
		
			<rect x="31.322" y="51.481" fill="none" stroke="#BF6616" stroke-width="2" stroke-miterlimit="10" width="5.074" height="65.545"/>
		<path fill="#EABF0A" stroke="#BF6616" stroke-width="2" stroke-miterlimit="10" d="M40.673,118.065
			c0,1.736-1.408,3.145-3.145,3.145H30.19c-1.737,0-3.146-1.408-3.146-3.145l0,0c0-1.738,1.408-3.145,3.146-3.145h7.338
			C39.265,114.921,40.673,116.327,40.673,118.065L40.673,118.065z"/>
		<linearGradient id="SVGID_4_" gradientUnits="userSpaceOnUse" x1="33.9053" y1="116.082" x2="33.9053" y2="118.3481">
			<stop  offset="0" style="stop-color:#FFFF69;stop-opacity:0.6"/>
			<stop  offset="1" style="stop-color:#FFFFFF;stop-opacity:0"/>
		</linearGradient>
		<path fill="url(#SVGID_4_)" d="M37.305,117.167c0,0.693-0.563,1.258-1.259,1.258h-4.283c-0.693,0-1.257-0.564-1.257-1.258l0,0
			c0-0.695,0.563-1.258,1.257-1.258h4.283C36.741,115.909,37.305,116.472,37.305,117.167L37.305,117.167z"/>
		<path fill="#E8890C" d="M37.528,118.851H30.19c-1.319,0-2.447-0.812-2.914-1.965c-0.147,0.363-0.231,0.762-0.231,1.18
			c0,1.736,1.408,3.145,3.146,3.145h7.338c1.736,0,3.145-1.408,3.145-3.145c0-0.418-0.084-0.816-0.23-1.18
			C39.975,118.038,38.848,118.851,37.528,118.851z"/>
		<path fill="none" stroke="#BF6616" stroke-width="2" stroke-miterlimit="10" d="M40.673,118.065c0,1.736-1.408,3.145-3.145,3.145
			H30.19c-1.737,0-3.146-1.408-3.146-3.145l0,0c0-1.738,1.408-3.145,3.146-3.145h7.338
			C39.265,114.921,40.673,116.327,40.673,118.065L40.673,118.065z"/>
	</g>
	<g>
		<path fill="#764C16" d="M4.924,30.048c0.032,0.966,0.293,1.923,0.753,2.772c0.556,1.018,1.428,1.788,2.237,2.598
			c-2.381-2.385-2.378-6.325-0.059-8.743c2.382-2.483,6.469-2.531,8.902-0.095c-1.021-1.022-1.967-2.06-3.347-2.589
			c-1.344-0.516-2.853-0.543-4.215-0.082C6.61,24.782,4.826,27.309,4.924,30.048C4.926,30.126,4.921,29.974,4.924,30.048z"/>
		<path fill="#764C16" d="M18.177,19.872c-0.017,0.296-0.028,0.594-0.029,0.893l1.175,1.176c0.015-5.038,2.44-10,6.54-12.965
			c3.995-2.892,9.344-3.592,13.943-1.801c1.911,0.744,3.651,1.898,5.1,3.348c-1.706-1.708-3.402-3.264-5.636-4.258
			c-2.17-0.966-4.627-1.418-6.999-1.214c-4.959,0.426-9.332,3.186-11.861,7.481C19.089,14.751,18.333,17.295,18.177,19.872
			C18.16,20.168,18.183,19.778,18.177,19.872z"/>
		<path fill="#764C16" d="M22.652,32.236c-0.583-1.029-0.345-2.339,0.535-3.119c0.976-0.847,2.485-0.805,3.404,0.114l-1.174-1.176
			c-1.169-1.169-3.21-0.858-3.973,0.601c-0.284,0.544-0.36,1.162-0.222,1.76c0.239,0.993,1.141,1.659,1.829,2.349
			C22.897,32.609,22.761,32.428,22.652,32.236C22.646,32.225,22.697,32.316,22.652,32.236z"/>
		<path fill="#764C16" d="M33.233,33.822l1.174,1.175c-0.339-1.291-0.844-2.546-1.429-3.744c-0.538-1.098-1.165-2.155-1.888-3.142
			c-0.854-1.17-1.875-2.174-2.897-3.197C30.595,27.319,32.37,30.534,33.233,33.822z"/>
		<path fill="#764C16" d="M44.604,28.056c-1.167-1.169-3.208-0.858-3.973,0.601c-0.284,0.543-0.362,1.163-0.222,1.759
			c0.238,0.994,1.141,1.66,1.829,2.349c-0.957-0.963-0.949-2.555-0.001-3.519c0.956-0.971,2.574-0.982,3.54-0.015l-0.002-0.002
			c-0.077-0.156-0.337-0.336-0.467-0.468C45.074,28.527,44.84,28.292,44.604,28.056C44.153,27.605,44.996,28.448,44.604,28.056z"/>
		<path fill="#764C16" d="M47.975,7.757c2.929,3.426,4.581,7.854,4.612,12.362l1.174,1.176c-0.021-2.682-0.606-5.348-1.708-7.792
			c-0.581-1.282-1.3-2.504-2.145-3.629c-0.883-1.17-1.919-2.192-2.952-3.226C47.312,7.002,47.648,7.376,47.975,7.757
			C48.214,8.037,47.907,7.679,47.975,7.757z"/>
		<path fill="#764C16" d="M57.765,24.068c-2.884-1.201-6.548-0.024-7.956,2.848c-0.68,1.387-0.927,2.921-0.545,4.437
			c0.437,1.725,1.596,2.848,2.81,4.065c-2.381-2.381-2.378-6.327-0.061-8.742c2.384-2.483,6.471-2.534,8.904-0.096
			C59.954,25.614,59.05,24.614,57.765,24.068C57.752,24.063,57.924,24.136,57.765,24.068z"/>
		<path fill="#764C16" d="M66.491,32.667c0.323-1.731,0.193-3.542-0.399-5.203c-0.71-1.993-2.043-3.403-3.507-4.87
			c3.604,3.604,3.843,9.537,0.583,13.44c-2.054,2.459-5.006,3.603-8.152,3.603c-4.905,0-9.808,0-14.712,0c-2.879,0-5.759,0-8.637,0
			c-5.291,0-10.581,0-15.871,0c-1.613,0-3.227,0-4.839,0c-2.63,0-5.19-1.059-7.048-2.92c1.126,1.129,2.206,2.24,3.639,2.983
			c1.413,0.732,2.993,1.113,4.584,1.113c4.127,0,8.256,0,12.384,0c3.412,0,6.823,0,10.234,0c4.826,0,9.653,0,14.479,0
			c2.188,0,4.376,0,6.564,0c0.544,0,1.086,0.009,1.629-0.032c2.116-0.163,4.15-1.005,5.759-2.392
			C64.894,36.912,66.063,34.885,66.491,32.667C66.524,32.488,66.483,32.708,66.491,32.667z"/>
	</g>
	<g>
		<path fill="#CE7D25" d="M39.337,44.146v4.492c0,2.233-1.81,4.043-4.043,4.043h-2.846c-2.233,0-4.043-1.81-4.043-4.043v-4.492
			H39.337z"/>
		<linearGradient id="SVGID_5_" gradientUnits="userSpaceOnUse" x1="33.8701" y1="51.333" x2="33.8701" y2="46.3753">
			<stop  offset="0" style="stop-color:#FFFF4E;stop-opacity:0.6"/>
			<stop  offset="1" style="stop-color:#FFFFFF;stop-opacity:0"/>
		</linearGradient>
		<path fill="url(#SVGID_5_)" d="M37.424,45.639v2.92c0,1.451-1.177,2.628-2.629,2.628h-1.849c-1.452,0-2.629-1.177-2.629-2.628
			v-2.92H37.424z"/>
		<path fill="#A55D1B" d="M28.405,45.26c1.356,0.487,3.305,0.794,5.478,0.794c2.16,0,4.099-0.304,5.454-0.786v-1.123H28.405V45.26z"
			/>
		<path fill="none" stroke="#BF6616" stroke-width="2" stroke-miterlimit="10" d="M39.337,44.146v4.492
			c0,2.233-1.81,4.043-4.043,4.043h-2.846c-2.233,0-4.043-1.81-4.043-4.043v-4.492H39.337z"/>
	</g>
	<g>
		<path fill="#E09336" d="M48.833,38.754c0,2.977-2.413,5.391-5.391,5.391H24.275c-2.978,0-5.391-2.414-5.391-5.391H48.833z"/>
		<path fill="#CE7D25" d="M18.885,38.754c0,2.18,1.296,4.054,3.158,4.903c-0.03-0.058-1.164-2.207,0.003-2.207
			c0.977,0,22.665,0,23.65,0c1.167,0,0.033,2.149,0.002,2.207c1.862-0.849,3.159-2.723,3.159-4.903H18.885z"/>
		<path fill="none" stroke="#BF6616" stroke-width="2" stroke-miterlimit="10" d="M48.833,38.754c0,2.977-2.413,5.391-5.391,5.391
			H24.275c-2.978,0-5.391-2.414-5.391-5.391H48.833z"/>
	</g>
	<g>
		<linearGradient id="SVGID_6_" gradientUnits="userSpaceOnUse" x1="5.9922" y1="16.3945" x2="66.1911" y2="30.5458">
			<stop  offset="0.0357" style="stop-color:#EABF0A"/>
			<stop  offset="0.0969" style="stop-color:#FFFFFF"/>
			<stop  offset="0.2143" style="stop-color:#EABF0A"/>
			<stop  offset="0.6122" style="stop-color:#EABD0A"/>
			<stop  offset="0.6786" style="stop-color:#F4DE7F"/>
			<stop  offset="0.7857" style="stop-color:#EABB0A"/>
			<stop  offset="0.9694" style="stop-color:#EA940A"/>
		</linearGradient>
		<path fill="url(#SVGID_6_)" stroke="#BF6616" stroke-width="2" stroke-miterlimit="10" d="M55.536,19.674
			c5.516,0,9.972,4.47,9.957,9.981s-4.496,9.981-10.013,9.981H33.217h-22.26c-5.515,0-9.973-4.47-9.957-9.981
			c0.015-5.511,4.497-9.981,10.013-9.981c1.025,0,2.014,0.153,2.946,0.444C14.097,9.54,22.725,1,33.323,1
			c10.604,0,19.183,8.54,19.264,19.119C53.52,19.827,54.51,19.674,55.536,19.674z M33.233,33.822
			c0.175-0.653,3.5-13.058,15.161-13.058c0.021-8.354-6.382-15.755-15.083-15.755c-8.696,0-15.141,7.401-15.164,15.755
			C29.809,20.764,33.062,33.169,33.233,33.822z M55.305,36.067c3.448,0,6.25-2.798,6.26-6.243c0.01-3.448-2.777-6.246-6.225-6.246
			c-3.449,0-6.25,2.798-6.26,6.246C49.07,33.269,51.856,36.067,55.305,36.067 M11.146,36.067c3.447,0,6.25-2.798,6.258-6.243
			c0.011-3.448-2.775-6.246-6.225-6.246c-3.448,0-6.249,2.798-6.258,6.246C4.911,33.269,7.697,36.067,11.146,36.067 M42.827,32.32
			c1.381,0,2.502-1.118,2.506-2.495c0.004-1.38-1.111-2.499-2.492-2.499c-1.378,0-2.499,1.119-2.502,2.499
			C40.334,31.202,41.449,32.32,42.827,32.32 M23.639,32.32c1.382,0,2.504-1.118,2.507-2.495c0.004-1.38-1.111-2.499-2.493-2.499
			c-1.375,0-2.498,1.119-2.501,2.499C21.147,31.202,22.263,32.32,23.639,32.32"/>
	</g>
</g>
</svg>
