<?xml version="1.0" encoding="UTF-8" standalone="no"?>
<!-- Created with Inkscape (http://www.inkscape.org/) -->

<svg
   xmlns:osb="http://www.openswatchbook.org/uri/2009/osb"
   xmlns:dc="http://purl.org/dc/elements/1.1/"
   xmlns:cc="http://creativecommons.org/ns#"
   xmlns:rdf="http://www.w3.org/1999/02/22-rdf-syntax-ns#"
   xmlns:svg="http://www.w3.org/2000/svg"
   xmlns="http://www.w3.org/2000/svg"
   xmlns:sodipodi="http://sodipodi.sourceforge.net/DTD/sodipodi-0.dtd"
   xmlns:inkscape="http://www.inkscape.org/namespaces/inkscape"
   width="100"
   height="100"
   id="svg2"
   version="1.1"
   inkscape:version="0.48.4 r9939"
   sodipodi:docname="menu_button_mute.svg">
  <defs
     id="defs4">
    <linearGradient
       id="linearGradient3815"
       osb:paint="gradient">
      <stop
         style="stop-color:#ffffff;stop-opacity:1;"
         offset="0"
         id="stop3817" />
      <stop
         style="stop-color:#ffffff;stop-opacity:0;"
         offset="1"
         id="stop3819" />
    </linearGradient>
    <linearGradient
       id="linearGradient3797">
      <stop
         style="stop-color:#ffffff;stop-opacity:0;"
         offset="0"
         id="stop3799" />
      <stop
         id="stop3805"
         offset="0"
         style="stop-color:#787878;stop-opacity:0.09803922;" />
      <stop
         style="stop-color:#000000;stop-opacity:1;"
         offset="1"
         id="stop3801" />
    </linearGradient>
  </defs>
  <sodipodi:namedview
     id="base"
     pagecolor="#ffffff"
     bordercolor="#666666"
     borderopacity="1.0"
     inkscape:pageopacity="0.0"
     inkscape:pageshadow="2"
     inkscape:zoom="0.98994949"
     inkscape:cx="-116.65541"
     inkscape:cy="41.638838"
     inkscape:document-units="px"
     inkscape:current-layer="g23"
     showgrid="false"
     inkscape:window-width="1295"
     inkscape:window-height="744"
     inkscape:window-x="65"
     inkscape:window-y="24"
     inkscape:window-maximized="1" />
  <metadata
     id="metadata7">
    <rdf:RDF>
      <cc:Work
         rdf:about="">
        <dc:format>image/svg+xml</dc:format>
        <dc:type
           rdf:resource="http://purl.org/dc/dcmitype/StillImage" />
        <dc:title></dc:title>
      </cc:Work>
    </rdf:RDF>
  </metadata>
  <g
     inkscape:label="Layer 1"
     inkscape:groupmode="layer"
     id="layer1"
     transform="translate(0,-952.36218)">
    <rect
       style="fill:#0000de;fill-opacity:1;stroke:none"
       id="rect2991"
       width="99.999863"
       height="100.00027"
       x="6.8664551e-05"
       y="952.36206"
       ry="6.4814944"
       rx="6.481472" />
    <rect
       style="fill:#8989ef;fill-opacity:1;stroke:#000000;stroke-width:1.38359475;stroke-miterlimit:4;stroke-opacity:1;stroke-dasharray:none"
       id="rect2991-7"
       width="86.262367"
       height="86.262733"
       x="6.8688164"
       y="959.23083"
       ry="5.5910978"
       rx="5.5910797" />
    <g
       transform="matrix(1.3557036,0,0,1.3557036,-14.427101,938.58107)"
       id="g23"
       style="fill:#000000;fill-opacity:1;stroke:#000000;stroke-opacity:1">
      <g
         id="g3908"
         transform="translate(-0.77715693,0)">
        <path
           id="path25"
           d="m 44.293,66.008 c 0,1.101 -0.658,1.387 -1.464,0.638 L 33.111,57.602 C 32.304,56.853 30.746,56.24 29.646,56.24 h -5.089 c -1.101,0 -2,-0.9 -2,-2 V 39.853 c 0,-1.1 0.899,-2 2,-2 h 5.089 c 1.1,0 2.658,-0.613 3.465,-1.362 l 9.718,-9.044 c 0.806,-0.749 1.464,-0.463 1.464,0.638 v 37.923 z"
           inkscape:connector-curvature="0"
           style="fill:#000000;fill-opacity:1;stroke:#000000;stroke-opacity:1" />
        <g
           style="fill:#000000;fill-opacity:1;stroke:#000000;stroke-opacity:1"
           id="g3037"
           transform="matrix(0.9793508,0,0,0.9793508,182.37767,0.9927739)">
          <path
             id="path3039"
             d="m -133.407,55.899 c -0.429,0 -0.857,-0.164 -1.184,-0.49 -0.654,-0.654 -0.654,-1.714 0,-2.368 3.318,-3.317 3.317,-8.717 0,-12.035 -0.654,-0.653 -0.654,-1.714 0,-2.367 0.654,-0.654 1.713,-0.653 2.368,0 4.623,4.624 4.624,12.146 0,16.77 -0.327,0.326 -0.756,0.49 -1.184,0.49 z"
             inkscape:connector-curvature="0"
             style="fill:#000000;fill-opacity:1;stroke:#000000;stroke-opacity:1" />
          <path
             id="path3041"
             d="m -126.772,61.592 c -0.428,0 -0.857,-0.164 -1.184,-0.49 -0.654,-0.654 -0.654,-1.714 0,-2.368 3.128,-3.127 4.851,-7.287 4.851,-11.71 0,-4.424 -1.723,-8.582 -4.851,-11.711 -0.654,-0.653 -0.654,-1.714 0,-2.367 0.654,-0.654 1.714,-0.654 2.368,0 3.76,3.761 5.832,8.76 5.832,14.078 0,5.317 -2.071,10.317 -5.832,14.078 -0.327,0.326 -0.756,0.49 -1.184,0.49 z"
             inkscape:connector-curvature="0"
             style="fill:#000000;fill-opacity:1;stroke:#000000;stroke-opacity:1" />
          <path
             id="path3043"
             d="m -120.306,68.102 c -0.429,0 -0.856,-0.164 -1.184,-0.491 -0.653,-0.652 -0.653,-1.714 0,-2.367 10.046,-10.047 10.046,-26.394 0,-36.439 -0.654,-0.654 -0.654,-1.713 0,-2.367 0.654,-0.654 1.714,-0.654 2.368,0 11.352,11.352 11.352,29.822 0,41.174 -0.327,0.326 -0.755,0.49 -1.184,0.49 z"
             inkscape:connector-curvature="0"
             style="fill:#000000;fill-opacity:1;stroke:#000000;stroke-opacity:1" />
        </g>
      </g>
    </g>
  </g>
</svg>
