<!DOCTYPE svg PUBLIC '-//W3C//DTD SVG 1.1//EN' 'http://www.w3.org/Graphics/SVG/1.1/DTD/svg11.dtd'>
<svg xmlns="http://www.w3.org/2000/svg" xml:space="preserve" version="1.1" xmlns:xlink="http://www.w3.org/1999/xlink" viewBox="0 0 263.523 509.279" enable-background="new 0 0 263.523 509.279">
	<path opacity=".4" d="m262.22 153.35c-2.972-3.938-13.747-7.263-19.022-7.297-0.228-16.162-1.09-39.479-2.905-60.385-1.021-11.763-2.228-21.356-3.585-28.515-2.24-11.814-4.512-14.857-6.239-16.188l-0.828-0.641c-8.792-6.828-29.382-22.817-89.696-22.817-60.318 0-80.903 15.99-89.694 22.818l-0.825 0.64c-1.728 1.331-3.999 4.373-6.239 16.184-1.357 7.156-2.564 16.748-3.586 28.508-1.816 20.904-2.678 44.231-2.906 60.397-0.061-0.001-0.121-0.002-0.183-0.002-5.246 0-16.118 3.34-19.103 7.298-2.436 3.229-0.934 6.751 0.201 8.162l1.237 1.539 0.454-0.126c1.193 0.859 3.102 1.656 6.066 1.656 1.838 0 3.941-0.312 6.256-0.924 2.455-0.65 4.295-1.294 5.684-1.916 0.3 1.35 0.644 2.312 0.919 2.948l-0.743 107.84c-0.198 0.064-0.391 0.143-0.578 0.229h-1.711v1.232c-0.928 0.984-1.5 2.307-1.5 3.763v226.03c0 1.456 0.572 2.778 1.5 3.763v0.237h0.236c0.984 0.927 2.307 1.5 3.764 1.5h201.56c1.456 0 2.778-0.573 3.763-1.5h0.237v-0.237c0.927-0.984 1.5-2.307 1.5-3.763v-226.05c0-1.456-0.573-2.777-1.5-3.763v-1.232h-1.713c-0.208-0.096-0.421-0.184-0.643-0.253l-0.743-107.81c0.269-0.618 0.602-1.548 0.896-2.842 1.359 0.589 3.128 1.196 5.443 1.81 2.314 0.612 4.419 0.924 6.256 0.924 2.965 0 4.873-0.797 6.067-1.656l0.453 0.126 1.237-1.539c1.12-1.4 2.62-4.92 0.19-8.15zm-2.85 1.31c-0.035-0.034-0.07-0.069-0.107-0.104 0.04 0.03 0.08 0.06 0.11 0.1zm-10.41 3.24c3.123 0.852 5.918 1.994 8.229 3.259-0.017 0.006-0.035 0.011-0.053 0.017-3.01-1.54-5.79-2.58-8.18-3.28zm-226.48 3.28c-0.017-0.006-0.035-0.011-0.053-0.017 2.311-1.265 5.104-2.406 8.227-3.258-2.386 0.7-5.164 1.74-8.174 3.28zm16.485-4.52c0-0.014 0.002-0.027 0.002-0.039 0 0.01-0.002 0.03-0.002 0.04zm-0.008-0.17c0.098-0.007 0.197-0.01 0.295-0.016-0.099 0.01-0.197 0.01-0.295 0.02zm0.008 0.11c0-0.01 0-0.02-0.002-0.028 0.002 0.01 0.002 0.02 0.002 0.03zm-0.004-0.04c0-0.007-0.002-0.015-0.003-0.021 0.001 0 0.003 0.01 0.003 0.02zm-0.006-0.04c-0.001-0.005-0.002-0.01-0.004-0.014 0.002 0 0.003 0.01 0.004 0.01zm199.83 7.26c0.002-0.004 0.004-0.007 0.005-0.01v0.01zm-0.08 0.14c0.004-0.006 0.007-0.013 0.011-0.02 0 0.01 0 0.01-0.01 0.02zm1.53-7.46c0 0.025-0.002 0.048-0.004 0.073v-0.07zm-2.96-70.851c0.01 0.112 0.021 0.224 0.03 0.337-0.01-0.113-0.02-0.224-0.03-0.337zm0.16 1.808c0.017 0.197 0.033 0.395 0.05 0.593-0.02-0.198-0.04-0.396-0.05-0.593zm0.15 1.911c0.021 0.259 0.043 0.518 0.063 0.778-0.01-0.26-0.04-0.518-0.06-0.778zm0.17 2.047c0.021 0.272 0.042 0.545 0.063 0.818-0.02-0.273-0.04-0.546-0.06-0.818zm0.16 2.096c0.021 0.28 0.042 0.56 0.062 0.839-0.02-0.28-0.04-0.559-0.06-0.839zm0.15 2.081c0.021 0.295 0.043 0.589 0.063 0.885-0.02-0.296-0.04-0.59-0.06-0.885zm0.15 2.126c0.02 0.297 0.04 0.594 0.061 0.891-0.02-0.298-0.04-0.594-0.06-0.891zm0.14 2.106c0.021 0.315 0.042 0.631 0.062 0.947-0.02-0.31-0.04-0.63-0.06-0.946zm0.13 2.116c0.021 0.328 0.041 0.654 0.062 0.982-0.02-0.33-0.04-0.65-0.06-0.98zm0.14 2.16c0.02 0.326 0.039 0.651 0.059 0.977-0.02-0.33-0.04-0.66-0.06-0.98zm0.12 2.14c0.019 0.332 0.038 0.663 0.057 0.994l-0.06-0.99zm0.12 2.15c0.019 0.333 0.037 0.667 0.055 1.001-0.02-0.34-0.04-0.67-0.06-1zm0.12 2.17c0.017 0.322 0.034 0.644 0.051 0.966-0.01-0.33-0.03-0.65-0.05-0.97zm0.11 2.13c0.017 0.334 0.033 0.667 0.05 1-0.01-0.33-0.03-0.67-0.05-1zm0.11 2.14c0.016 0.322 0.031 0.644 0.046 0.966-0.02-0.32-0.04-0.64-0.05-0.97zm0.1 2.15c0.015 0.312 0.028 0.625 0.043 0.937-0.01-0.31-0.03-0.62-0.04-0.94zm0.09 2.1c0.015 0.332 0.029 0.663 0.043 0.994-0.01-0.33-0.02-0.66-0.04-0.99zm0.09 2.13c0.013 0.304 0.025 0.606 0.037 0.908-0.01-0.31-0.02-0.61-0.04-0.91zm0.09 2.11c0.012 0.296 0.022 0.59 0.034 0.886-0.01-0.3-0.02-0.6-0.03-0.89zm0.08 2.06c0.011 0.302 0.021 0.601 0.032 0.901l-0.03-0.9zm0.07 2.06c0.01 0.282 0.019 0.562 0.028 0.843-0.01-0.27-0.02-0.55-0.03-0.84zm0.07 2.05c0.009 0.252 0.017 0.502 0.024 0.754 0-0.25-0.01-0.5-0.02-0.75zm0.07 2.04c0.006 0.177 0.011 0.352 0.016 0.527-0.01-0.18-0.02-0.35-0.02-0.53zm0.06 2l0.009 0.336c0-0.11-0.01-0.22-0.01-0.34zm0.06 1.97c0 0.026 0.001 0.054 0.002 0.081v-0.08zm-7.14-82.082c0.045 0.194 0.091 0.389 0.136 0.587-0.05-0.198-0.09-0.393-0.14-0.587zm0.29 1.285c0.044 0.201 0.088 0.403 0.132 0.608-0.04-0.205-0.08-0.407-0.13-0.608zm0.29 1.355c0.042 0.204 0.084 0.411 0.125 0.619-0.04-0.209-0.08-0.415-0.12-0.619zm0.28 1.398c0.042 0.216 0.083 0.433 0.123 0.651-0.04-0.218-0.08-0.435-0.12-0.651zm0.27 1.463c0.04 0.219 0.079 0.44 0.118 0.662-0.04-0.222-0.08-0.443-0.12-0.662zm0.27 1.522c0.037 0.218 0.074 0.439 0.11 0.661-0.04-0.221-0.07-0.443-0.11-0.661zm0.26 1.568c0.035 0.225 0.071 0.451 0.107 0.679-0.04-0.228-0.08-0.455-0.11-0.679zm0.25 1.611c0.034 0.228 0.068 0.458 0.104 0.688-0.03-0.23-0.07-0.46-0.1-0.688zm0.25 1.678c0.031 0.217 0.062 0.438 0.093 0.657-0.03-0.22-0.06-0.44-0.09-0.657zm0.24 1.706c0.03 0.221 0.06 0.445 0.09 0.668-0.03-0.223-0.06-0.447-0.09-0.668zm0.23 1.751c0.028 0.218 0.056 0.438 0.084 0.658-0.02-0.22-0.05-0.44-0.08-0.658zm0.23 1.791c0.026 0.212 0.052 0.427 0.078 0.641-0.03-0.214-0.05-0.429-0.08-0.641zm0.22 1.839c0.022 0.188 0.044 0.378 0.066 0.566-0.02-0.188-0.04-0.379-0.07-0.566zm0.22 1.863c0.019 0.164 0.037 0.331 0.056 0.496-0.02-0.165-0.04-0.332-0.06-0.496zm0.21 1.908c0.011 0.097 0.021 0.196 0.031 0.293-0.01-0.097-0.02-0.195-0.03-0.293zm0.2 1.921c0.002 0.022 0.004 0.046 0.007 0.068 0-0.022 0-0.045-0.01-0.068zm-192.95-2.571c0.051-0.453 0.1-0.906 0.15-1.354-0.051 0.448-0.1 0.901-0.15 1.354zm0.223-1.983c0.048-0.415 0.095-0.831 0.144-1.242-0.049 0.411-0.096 0.827-0.144 1.242zm0.225-1.906c0.048-0.391 0.095-0.783 0.143-1.169-0.048 0.386-0.095 0.779-0.143 1.169zm0.227-1.843c0.049-0.376 0.096-0.752 0.145-1.123-0.049 0.371-0.096 0.747-0.145 1.123zm0.235-1.796c0.049-0.362 0.096-0.724 0.146-1.079-0.051 0.355-0.097 0.716-0.146 1.079zm0.24-1.762c0.049-0.342 0.097-0.683 0.146-1.019-0.049 0.336-0.097 0.677-0.146 1.019zm0.249-1.723c0.048-0.321 0.095-0.642 0.144-0.957-0.049 0.316-0.096 0.636-0.144 0.957zm0.251-1.646c0.049-0.313 0.098-0.625 0.147-0.933-0.049 0.308-0.098 0.62-0.147 0.933zm0.258-1.603c0.049-0.299 0.098-0.596 0.148-0.889-0.051 0.293-0.099 0.59-0.148 0.889zm0.263-1.557c0.051-0.285 0.102-0.568 0.151-0.848-0.049 0.28-0.1 0.563-0.151 0.848zm0.271-1.493c0.051-0.272 0.103-0.544 0.153-0.811-0.051 0.267-0.102 0.539-0.153 0.811zm0.276-1.44c0.052-0.261 0.104-0.519 0.156-0.773-0.052 0.254-0.104 0.512-0.156 0.773zm0.283-1.381c0.053-0.248 0.105-0.492 0.158-0.733-0.052 0.241-0.105 0.485-0.158 0.733zm0.29-1.32c0.053-0.236 0.107-0.468 0.162-0.697-0.055 0.229-0.11 0.46-0.162 0.697zm-5.79 109.77c0-0.003-0.002-0.005-0.003-0.008 0.002 0 0.003 0.01 0.003 0.01zm0.122 0.22s-0.006-0.009-0.016-0.025l0.016 0.02zm-0.051-0.09c-0.002-0.005-0.004-0.008-0.008-0.015 0.004 0 0.006 0.01 0.008 0.01zm199.14-7.44c0.118 0.007 0.237 0.011 0.354 0.02-0.11-0.01-0.23-0.02-0.35-0.02zm0.34 0.15c0 0.017 0 0.034 0.002 0.052v-0.05zm0.02-0.11c-0.001 0.004-0.002 0.009-0.003 0.014-0.01 0-0.01-0.01 0-0.01zm-0.01 0.03c-0.001 0.006-0.002 0.014-0.003 0.021v-0.02zm-0.01 0.03c-0.001 0.011-0.001 0.023-0.002 0.036v-0.04zm2.58-7.52c-0.055 0-0.112-0.002-0.166-0.002 0.019 0 0.033-0.002 0.051-0.002h0.12zm15.47 5.02c-0.038-0.029-0.08-0.059-0.12-0.088 0.04 0.04 0.08 0.06 0.12 0.09zm-0.76-0.52c-0.04-0.025-0.077-0.052-0.118-0.077 0.05 0.03 0.08 0.06 0.12 0.08zm-0.91-0.54c-0.065-0.036-0.133-0.072-0.201-0.109 0.07 0.04 0.14 0.07 0.2 0.11zm-1.09-0.57c-0.029-0.014-0.06-0.027-0.088-0.041 0.04 0.02 0.07 0.03 0.09 0.04zm-0.98-0.45c-0.077-0.034-0.153-0.068-0.231-0.102 0.07 0.03 0.15 0.07 0.23 0.1zm-1.23-0.51c-0.078-0.03-0.157-0.061-0.235-0.091 0.07 0.03 0.15 0.06 0.23 0.09zm-1.17-0.44c-0.058-0.021-0.115-0.042-0.173-0.062 0.05 0.02 0.11 0.04 0.17 0.06zm-1.24-0.41c-0.094-0.03-0.188-0.06-0.283-0.09 0.09 0.03 0.19 0.06 0.28 0.09zm-1.36-0.41c-0.058-0.017-0.116-0.031-0.175-0.048 0.07 0.02 0.12 0.03 0.18 0.05zm-1.14-0.3c-0.085-0.021-0.171-0.044-0.255-0.064 0.1 0.01 0.18 0.03 0.26 0.06zm-1.29-0.31c-0.085-0.019-0.169-0.035-0.253-0.053 0.08 0.02 0.17 0.03 0.25 0.05zm-1.18-0.23c-0.044-0.008-0.09-0.018-0.134-0.025 0.04 0 0.08 0.01 0.13 0.02zm-1.11-0.17c-0.08-0.011-0.159-0.021-0.237-0.03 0.09 0.01 0.16 0.02 0.24 0.03zm-1.13-0.12c-0.052-0.004-0.099-0.006-0.149-0.009 0.05 0 0.1 0 0.15 0.01zm-1.74-0.01c-0.054 0.005-0.104 0.012-0.155 0.017 0.04-0.01 0.09-0.02 0.15-0.02zm-0.69 0.1c-0.027 0.006-0.058 0.01-0.084 0.017 0.02-0.01 0.05-0.01 0.08-0.02zm-0.56 0.18c-0.033 0.016-0.064 0.032-0.096 0.049 0.03-0.01 0.06-0.03 0.1-0.05zm-8.44-96.645c-0.046-0.189-0.093-0.375-0.14-0.56 0.05 0.185 0.1 0.37 0.14 0.56zm-0.3-1.184c-0.048-0.182-0.097-0.359-0.146-0.537 0.06 0.178 0.11 0.356 0.15 0.537zm-0.3-1.117c-0.05-0.174-0.101-0.343-0.151-0.513 0.05 0.17 0.1 0.338 0.15 0.513zm-0.32-1.051c-0.052-0.166-0.104-0.324-0.156-0.484 0.06 0.16 0.11 0.318 0.16 0.484zm-0.32-0.979c-0.054-0.156-0.107-0.306-0.162-0.456 0.06 0.15 0.11 0.3 0.16 0.456zm-0.32-0.909c-0.056-0.146-0.112-0.284-0.168-0.425 0.05 0.14 0.11 0.278 0.17 0.425zm-0.34-0.831c-0.058-0.139-0.117-0.267-0.177-0.397 0.06 0.13 0.12 0.258 0.18 0.397zm-1.04-2.031c-0.069-0.107-0.141-0.203-0.211-0.301 0.07 0.098 0.14 0.194 0.21 0.301zm0.7 1.273c-0.061-0.126-0.122-0.241-0.183-0.359 0.06 0.118 0.12 0.233 0.18 0.359zm-0.35-0.678c-0.064-0.115-0.13-0.221-0.194-0.328 0.06 0.107 0.13 0.212 0.19 0.328zm-0.71-1.106c-0.08-0.103-0.161-0.19-0.242-0.28 0.08 0.089 0.16 0.177 0.24 0.28zm-0.37-0.426c-0.124-0.127-0.25-0.24-0.376-0.338 0.13 0.098 0.25 0.211 0.38 0.338zm-177.76-0.338c-0.127 0.098-0.252 0.211-0.377 0.338 0.125-0.127 0.25-0.24 0.377-0.338zm-0.885 0.961c-0.074 0.103-0.148 0.203-0.223 0.316 0.075-0.113 0.149-0.214 0.223-0.316zm0.391-0.487c-0.084 0.093-0.168 0.185-0.252 0.291 0.084-0.107 0.168-0.199 0.252-0.291zm-3.569 8.944c0.055-0.223 0.109-0.441 0.164-0.657-0.054 0.215-0.109 0.434-0.164 0.657zm0.303-1.194c0.056-0.212 0.111-0.418 0.168-0.623-0.056 0.206-0.112 0.413-0.168 0.623zm0.308-1.122c0.058-0.2 0.114-0.394 0.173-0.586-0.059 0.193-0.116 0.386-0.173 0.586zm0.315-1.059c0.059-0.185 0.117-0.363 0.175-0.541-0.058 0.178-0.116 0.356-0.175 0.541zm0.322-0.984c0.06-0.174 0.12-0.34 0.181-0.507-0.061 0.168-0.122 0.334-0.181 0.507zm0.329-0.912c0.061-0.161 0.122-0.312 0.184-0.465-0.062 0.153-0.124 0.304-0.184 0.465zm0.334-0.837c0.063-0.148 0.127-0.287 0.191-0.428-0.064 0.141-0.128 0.28-0.191 0.428zm0.341-0.756c0.064-0.137 0.131-0.263 0.197-0.39-0.066 0.127-0.132 0.253-0.197 0.39zm0.348-0.68c0.068-0.123 0.138-0.234 0.207-0.349-0.069 0.115-0.139 0.225-0.207 0.349zm-6.449 32.734c-0.204 1.969-0.398 3.984-0.584 6.035 0.185-2.05 0.38-4.066 0.584-6.035zm0.204-1.931c-0.058 0.53-0.114 1.066-0.17 1.604 0.056-0.538 0.112-1.074 0.17-1.604zm-3.589 57.785l0.009-0.327-0.009 0.33zm0.057-1.93c0.004-0.117 0.008-0.234 0.012-0.353-0.004 0.11-0.008 0.23-0.012 0.35zm0.06-1.89c0.004-0.164 0.01-0.326 0.016-0.491-0.006 0.17-0.012 0.33-0.016 0.49zm0.064-1.91c0.007-0.211 0.015-0.421 0.022-0.633-0.008 0.21-0.015 0.42-0.022 0.63zm0.067-1.91c0.01-0.272 0.02-0.543 0.03-0.816-0.01 0.28-0.02 0.55-0.03 0.82zm0.077-2.05c0.011-0.28 0.021-0.561 0.032-0.843-0.01 0.28-0.021 0.56-0.032 0.84zm0.081-2.05c0.012-0.296 0.023-0.592 0.037-0.888-0.013 0.3-0.025 0.6-0.037 0.89zm0.09-2.13c0.012-0.285 0.023-0.569 0.036-0.854-0.012 0.28-0.024 0.57-0.036 0.85zm0.09-2.06c0.014-0.317 0.028-0.634 0.043-0.951-0.015 0.32-0.029 0.64-0.043 0.95zm0.098-2.12c0.016-0.315 0.03-0.631 0.045-0.946-0.015 0.32-0.03 0.63-0.045 0.95zm0.103-2.13c0.016-0.325 0.031-0.65 0.049-0.976-0.018 0.33-0.033 0.65-0.049 0.98zm0.107-2.12c0.019-0.352 0.037-0.704 0.056-1.057-0.019 0.36-0.038 0.71-0.056 1.06zm0.112-2.12c0.02-0.365 0.04-0.73 0.061-1.096-0.021 0.37-0.042 0.74-0.061 1.1zm0.119-2.15c0.021-0.369 0.043-0.738 0.064-1.107-0.021 0.37-0.042 0.74-0.064 1.11zm0.125-2.15c0.021-0.384 0.045-0.768 0.068-1.15-0.023 0.39-0.046 0.77-0.068 1.15zm0.129-2.14c0.023-0.387 0.049-0.771 0.072-1.158-0.023 0.38-0.049 0.77-0.072 1.16zm0.136-2.15c0.025-0.398 0.052-0.797 0.078-1.194-0.026 0.395-0.053 0.794-0.078 1.194zm0.14-2.139c0.027-0.408 0.056-0.815 0.083-1.223-0.027 0.408-0.055 0.815-0.083 1.223zm0.147-2.136c0.028-0.416 0.06-0.83 0.089-1.244-0.031 0.414-0.061 0.828-0.089 1.244zm0.152-2.127c0.03-0.421 0.062-0.84 0.094-1.26-0.032 0.42-0.064 0.839-0.094 1.26zm0.158-2.121c0.032-0.432 0.067-0.862 0.101-1.292-0.033 0.429-0.067 0.86-0.101 1.292zm0.163-2.092c0.037-0.465 0.074-0.926 0.112-1.388-0.037 0.462-0.074 0.923-0.112 1.388zm0.17-2.083c0.039-0.487 0.081-0.972 0.123-1.455-0.042 0.483-0.084 0.967-0.123 1.455zm0.175-2.071c0.05-0.567 0.099-1.13 0.149-1.691-0.05 0.562-0.099 1.124-0.149 1.691zm-2.927 63.579c-0.227 0.024-0.459 0.043-0.704 0.05 0.245 0 0.478-0.02 0.704-0.05zm-1.05-0.19c-0.032-0.017-0.063-0.033-0.098-0.049 0.034 0.02 0.065 0.04 0.098 0.05zm-0.575-0.21c-0.025-0.006-0.055-0.01-0.082-0.016 0.028 0.01 0.057 0.01 0.082 0.02zm-0.618-0.1c-0.052-0.005-0.101-0.012-0.153-0.017 0.053 0 0.102 0.01 0.153 0.02zm-0.848-0.05c-0.053 0-0.11 0.002-0.165 0.002 0.036 0 0.079-0.004 0.115-0.004h0.05zm-15.631 5.02c0.037-0.028 0.076-0.057 0.115-0.084-0.038 0.03-0.078 0.05-0.115 0.08zm0.755-0.52c0.037-0.023 0.071-0.048 0.11-0.072-0.039 0.02-0.073 0.04-0.11 0.07zm0.909-0.54c0.062-0.035 0.127-0.069 0.191-0.104-0.064 0.03-0.129 0.06-0.191 0.1zm1.088-0.57c0.023-0.011 0.047-0.021 0.068-0.032-0.021 0.01-0.045 0.02-0.068 0.03zm0.993-0.45c0.073-0.032 0.145-0.064 0.218-0.096-0.074 0.03-0.145 0.07-0.218 0.1zm1.222-0.51c0.073-0.029 0.148-0.057 0.223-0.086-0.075 0.03-0.15 0.06-0.223 0.09zm1.179-0.44c0.054-0.019 0.105-0.038 0.159-0.058-0.053 0.02-0.105 0.04-0.159 0.06zm1.233-0.41c0.092-0.029 0.182-0.058 0.272-0.086-0.091 0.03-0.181 0.06-0.272 0.09zm1.353-0.41c0.055-0.017 0.111-0.03 0.166-0.046-0.054 0.02-0.111 0.03-0.166 0.05zm1.139-0.31c0.084-0.021 0.167-0.043 0.25-0.063-0.083 0.02-0.166 0.04-0.25 0.06zm1.289-0.3c0.086-0.018 0.168-0.034 0.252-0.052-0.084 0.02-0.167 0.03-0.252 0.05zm1.185-0.23c0.045-0.008 0.091-0.018 0.136-0.025-0.046 0-0.092 0.01-0.136 0.02zm1.102-0.17c0.08-0.012 0.16-0.021 0.238-0.031-0.078 0.01-0.158 0.02-0.238 0.03zm1.135-0.12c0.051-0.004 0.099-0.006 0.148-0.009-0.05 0-0.097 0-0.148 0.01zm-15.154 5.46c-0.036 0.034-0.07 0.068-0.105 0.104 0.034-0.03 0.067-0.06 0.105-0.1zm-0.055 4.98l-0.355 0.099 0.355-0.1zm10.553 1.22c5.03-1.332 6.963-2.516 7.689-3.295-0.727 0.78-2.658 1.96-7.689 3.29zm8.112-4.07c-0.001 0.016-0.004 0.032-0.007 0.049 0.003-0.02 0.006-0.04 0.007-0.05zm-0.009 0.06c-0.004 0.02-0.008 0.04-0.014 0.061 0.005-0.02 0.01-0.04 0.014-0.06zm-0.017 0.08c-0.006 0.021-0.014 0.045-0.022 0.067 0.008-0.02 0.016-0.05 0.022-0.07zm-0.029 0.09c-0.011 0.027-0.022 0.056-0.036 0.085 0.014-0.04 0.025-0.07 0.036-0.09zm-0.04 0.09c-0.016 0.03-0.032 0.062-0.051 0.094 0.019-0.03 0.036-0.06 0.051-0.09zm-0.056 0.1c-0.019 0.031-0.041 0.065-0.065 0.1 0.024-0.03 0.047-0.07 0.065-0.1zm-0.071 0.11c-0.026 0.037-0.056 0.075-0.088 0.115 0.033-0.03 0.062-0.07 0.088-0.11zm-0.09 0.12c-0.031 0.037-0.064 0.076-0.102 0.116 0.038-0.04 0.071-0.08 0.102-0.12zm202.06-0.42c0.261 0.686 1.63 2.144 8.059 3.847-6.43-1.71-7.8-3.17-8.06-3.85zm-0.06-0.23c0.001 0.016 0.004 0.033 0.007 0.052 0-0.02 0-0.04-0.01-0.05zm0.01 0.06c0.004 0.022 0.01 0.046 0.017 0.07-0.01-0.02-0.01-0.04-0.02-0.07zm0.02 0.08c0.007 0.024 0.016 0.051 0.026 0.079-0.01-0.03-0.02-0.05-0.03-0.08zm18.64 2.71l0.355 0.099-0.36-0.1z" fill="#060D1C"/>
					<linearGradient id="i" y2="268.19" gradientUnits="userSpaceOnUse" y1="3.0713" x2="127.19" x1="127.19">
						<stop stop-color="#CBCBCB" offset="0"/>
						<stop stop-color="#8D8D8D" offset=".3163"/>
						<stop stop-color="#666" offset=".9286"/>
						<stop stop-color="#333" offset=".9745"/>
					</linearGradient>
					<path d="m226.65 258.58l-0.75-108.75s1.85-2.925 1.6-10.925c-0.1-33.075-3.398-103.4-11.623-109.74-8.227-6.335-27.418-22.835-88.693-22.835s-80.469 16.5-88.693 22.835-11.525 76.665-11.625 109.74c-0.25 8 1.6 10.925 1.6 10.925l-0.75 108.75h198.93z" fill="url(#i)"/>
					<path fill-rule="evenodd" clip-rule="evenodd" d="m42.218 258.58s-13.417-6.524-14.754-24.685v24.685h14.754z" fill="#3F3F3F"/>
					<path fill-rule="evenodd" clip-rule="evenodd" d="m212.02 258.58s13.418-6.524 14.754-24.685v24.685h-14.75z" fill="#3F3F3F"/><g stroke="#333" stroke-miterlimit="10">
					<path d="m31.398 118.33s2.142-56.182 3.332-66.333" fill="none"/>
					<path d="m223.35 121.87s-2.566-56.04-3.756-66.191" fill="none"/>
					<path d="m34.468 58.583c-0.25-6.5 1.75-20.25 5.75-24.75s35.299-19.044 31.392-15.825c-7.354 6.058-30.393 25.575-32.893 29.325s-2.249 11-4.249 11.25z" fill="#fff"/>
					<path d="m219.51 58.583c0.25-6.5-1.75-20.25-5.75-24.75s-35.299-19.044-31.391-15.825c7.354 6.058 30.391 25.575 32.891 29.325s2.25 11 4.25 11.25z" fill="#fff"/>
					<path d="m127.22 84.375c31.932 0 71.975 2.498 88.729 21.685l0.109-0.708s-1.678-51.278-3.684-61.023c-2.145-2.645-18.59-17.532-28.129-24.952-0.561-0.459-1.135-0.905-1.74-1.327-0.342-0.254-0.674-0.499-0.986-0.724h-0.109c-13.592-8.654-36.637-8.992-54.189-8.992-17.551 0-40.598 0.338-54.189 8.992-0.006 0.003-0.01 0.006-0.014 0.01-1.311 0.834-2.537 1.742-3.656 2.738-0.088 0.078-0.174 0.167-0.262 0.249-9.654 7.67-24.869 21.47-26.925 24.006-2.005 9.745-3.683 61.731-3.683 61.731h0.002c16.756-19.187 56.797-21.685 88.727-21.685z" fill="#9F9F9F"/>
					</g><path d="m127.28 83.667c29.203 0 65.049 3.433 84.469 17.679 2.037-3.471-12.557-68.75-25.453-79.998-12.998-11.339-39.381-13.015-59.016-13.015s-46.018 1.676-59.018 13.015c-12.895 11.248-27.49 76.527-25.451 79.998 19.417-14.25 55.262-17.683 84.469-17.683z" fill="#7F7F7F"/>
					<path d="m127.28 83.667c28.631 0 63.773 2.016 82.812 16.262 1.998-3.471-12.311-68.607-24.953-79.855-12.744-11.339-38.609-11.74-57.859-11.74s-45.115 0.401-57.861 11.74c-12.641 11.248-26.95 76.385-24.951 79.855 19.035-14.246 54.178-16.262 82.812-16.262z" fill="#A7A7A7"/>
					<g opacity=".9">
							<linearGradient id="h" x1="1335.5" gradientUnits="userSpaceOnUse" y1="78.444" gradientTransform="matrix(-1 0 0 1 1462.8 0)" x2="1335.5" y2="25.034">
							<stop stop-color="#FBFBFB" stop-opacity="0" offset="0"/>
							<stop stop-color="#FBFBFB" offset=".3635"/>
							<stop stop-color="#FBFBFB" stop-opacity=".7804" offset=".6426"/>
							<stop stop-color="#FBFBFB" stop-opacity="0" offset="1"/>
						</linearGradient>
						<path d="m127.25 80.235c12.25 0 30.521 0.713 30.521 0.713s-3.934-18.011-0.209-18.96c9.355-2.385 42.977 9.359 42.977 9.359s-9.398-42.334-13.67-44.526-41.488-6-59.619-6-55.348 3.808-59.619 6-13.67 44.526-13.67 44.526 33.914-11.496 43.262-9.076c3.666 0.949 0.074 18.677 0.074 18.677s17.703-0.713 29.953-0.713z" fill="url(#h)"/>
					</g>
							<path d="m127.22 83.667c33 0 74.666 2.666 90.334 23.666-0.668 24-6.002 61.999-6.668 65.333-0.539 1.282-2.666 0-2.666 0s-18.666-12-81-12-81 12-81 12-2.127 1.282-2.666 0c-0.666-3.334-6-41.333-6.666-65.333 15.674-20.997 57.34-23.663 90.342-23.663z"/>
							<path d="m127.22 85.696c32.34 0 73.174 1.479 88.527 22.059-0.654 23.521-5.881 59.343-6.535 62.61-0.527 1.256-2.611 0-2.611 0s-18.293-11.76-79.381-11.76c-61.086 0-79.379 11.76-79.379 11.76s-2.086 1.256-2.613 0c-0.652-3.268-5.881-39.09-6.533-62.61 15.341-20.585 56.173-22.064 88.515-22.064z"/>
							<linearGradient id="g" y2="127.23" gradientUnits="userSpaceOnUse" y1="127.23" x2="211.32" x1="43.118">
								<stop stop-color="#636668" stop-opacity="0" offset="0"/>
								<stop stop-color="#636668" offset=".1426"/>
								<stop stop-color="#636668" offset=".834"/>
								<stop stop-color="#636668" stop-opacity="0" offset="1"/>
							</linearGradient>
							<path opacity=".4" d="m127.22 87.827c30.723 0 69.514 1.367 84.102 20.395-0.621 21.747-5.588 54.868-6.209 57.889-0.5 1.161-2.48 0-2.48 0s-17.379-10.872-75.412-10.872c-58.031 0-75.41 10.872-75.41 10.872s-1.98 1.161-2.482 0c-0.619-3.021-5.586-36.142-6.207-57.889 14.583-19.026 53.374-20.393 84.099-20.393z" fill="url(#g)"/>
								<defs>
									<path id="f" d="m127.22 85.696c32.34 0 73.174 1.479 88.527 22.059-0.654 23.521-5.881 59.343-6.535 62.61-0.527 1.256-2.611 0-2.611 0s-18.293-11.76-79.381-11.76c-61.086 0-79.379 11.76-79.379 11.76s-2.086 1.256-2.613 0c-0.652-3.268-5.881-39.09-6.533-62.61 15.341-20.585 56.173-22.064 88.515-22.064z"/>
								</defs>
								<clipPath id="e">
									<use overflow="visible" xlink:href="#f"/>
								</clipPath>
								<g opacity=".7" clip-path="url(#e)">
									<linearGradient id="d" y2="157.16" gradientUnits="userSpaceOnUse" y1="88.571" x2="100.96" x1="100.96">
										<stop stop-color="#fff" stop-opacity="0" offset="0"/>
										<stop stop-color="#fff" offset=".4796"/>
										<stop stop-color="#fff" offset=".7347"/>
										<stop stop-color="#fff" stop-opacity="0" offset="1"/>
									</linearGradient>
									<rect y="78.468" x="94.333" fill="url(#d)" width="13.252" height="89.792"/>
									<linearGradient id="c" y2="157.16" gradientUnits="userSpaceOnUse" y1="88.571" x2="113.42" x1="113.42">
										<stop stop-color="#fff" stop-opacity="0" offset="0"/>
										<stop stop-color="#fff" offset=".4796"/>
										<stop stop-color="#fff" offset=".7347"/>
										<stop stop-color="#fff" stop-opacity="0" offset="1"/>
									</linearGradient>
									<rect y="78.468" x="111.28" fill="url(#c)" width="4.285" height="89.792"/>
								</g>
							<path d="m86.173 94.342s0.975-0.273 2.73-0.632c0.877-0.188 1.943-0.408 3.166-0.613 1.225-0.214 2.604-0.472 4.117-0.696 1.516-0.192 3.158-0.401 4.895-0.623 1.738-0.234 3.576-0.405 5.482-0.538 1.904-0.145 3.871-0.295 5.871-0.446 2.004-0.069 4.039-0.138 6.074-0.208 2.037-0.035 4.072-0.126 6.076-0.111 2.004 0.018 3.975 0.086 5.883 0.124 1.906 0.056 3.75 0.11 5.498 0.162 1.746 0.071 3.395 0.241 4.916 0.356 3.041 0.24 5.57 0.514 7.342 0.671 1.77 0.175 2.779 0.297 2.779 0.297l-0.068 0.998s-1.018 0.025-2.791 0.028c-1.773-0.013-4.307 0.018-7.34-0.034-1.518-0.009-3.16-0.067-4.896-0.067-1.736 0.021-3.568 0.041-5.463 0.063-1.895 0.005-3.852 0.036-5.84 0.019-1.986 0.004-4.004 0.116-6.021 0.168-2.02 0.049-4.037 0.098-6.023 0.146-1.984 0.102-3.936 0.202-5.826 0.299-1.891 0.093-3.719 0.159-5.447 0.311-1.73 0.117-3.367 0.229-4.879 0.331-1.508 0.131-2.891 0.251-4.115 0.356-1.232 0.09-2.293 0.21-3.166 0.312-0.875 0.109-1.566 0.148-2.039 0.22-0.473 0.059-0.727 0.09-0.727 0.09l-0.181-0.983z"/>
							<path d="m67.022 93.295c0.135 2.155 1.666 1.505 19.244 0.126 7.203-0.564 17.102-0.662 30.701-1.664-46.791-0.539-50.026 0.296-49.948 1.538z"/>
							<path d="m121.47 92.897v-2.385s-8.496 0.24-10.246 0.373v2.588l10.25-0.576z"/>
							<path d="m151.26 91.486s1.012-0.02 2.803 0.075c0.895 0.039 1.982 0.094 3.217 0.203 1.24 0.101 2.641 0.199 4.162 0.361 1.516 0.195 3.156 0.406 4.893 0.629 1.742 0.21 3.562 0.508 5.441 0.857 1.879 0.34 3.82 0.689 5.795 1.045 1.957 0.438 3.943 0.883 5.932 1.327 1.979 0.478 3.971 0.902 5.908 1.421 1.934 0.521 3.826 1.082 5.662 1.6 1.832 0.533 3.602 1.051 5.279 1.54 1.674 0.509 3.225 1.087 4.668 1.581 2.885 0.998 5.264 1.899 6.938 2.496 1.67 0.614 2.615 0.987 2.615 0.987l-0.316 0.948s-0.99-0.231-2.707-0.674c-1.715-0.459-4.176-1.066-7.098-1.88-1.467-0.391-3.039-0.86-4.721-1.297-1.686-0.417-3.465-0.858-5.305-1.313-1.834-0.473-3.734-0.934-5.654-1.451-1.926-0.495-3.906-0.895-5.871-1.352-1.967-0.461-3.932-0.92-5.867-1.373-1.945-0.4-3.859-0.795-5.713-1.176-1.854-0.387-3.641-0.782-5.35-1.07-1.705-0.322-3.318-0.627-4.807-0.907-1.492-0.253-2.861-0.484-4.074-0.689-1.213-0.224-2.27-0.374-3.143-0.494-0.873-0.114-1.553-0.251-2.027-0.301-0.473-0.062-0.727-0.096-0.727-0.096l0.09-1.005z"/>
							<path d="m132.66 87.54c-0.283 2.141 1.346 1.8 18.857 3.842 7.178 0.838 16.908 2.654 30.445 4.299-45.8-9.569-49.14-9.373-49.3-8.141z"/>
							<path d="m185.78 98.968l0.6-2.309s-8.283-1.906-10.01-2.217l-0.65 2.506 10.06 2.02z"/>
					<g stroke-miterlimit="10">
							<path stroke="#666" d="m48.968 88.583c1-3.945 4.75-13.75 6.75-15.5s38.379-11.889 40.5-9.5 0.4 15.208-0.85 16.708c-0.674 0.811-12.025 1.754-23.457 4.431-9.732 2.278-18.908 6.217-19.943 6.677-2.25 1-3.565-0.586-3-2.816z" fill="#bbb"/>
							<linearGradient id="b" y2="78.326" gradientUnits="userSpaceOnUse" y1="70.826" x2="73.399" x1="72.899">
								<stop stop-color="#323232" offset="0"/>
								<stop stop-color="#141414" offset="1"/>
							</linearGradient>
							<path stroke="#000" d="m52.653 85.843c0.881-3.128 2.578-9.771 4.342-11.158 1.764-1.389 34.586-10.705 36.457-8.811 1.869 1.895 0.352 10.904-0.75 12.094-0.596 0.643-10.607 1.815-20.689 3.938-8.586 1.808-16.68 5.215-17.592 5.58-1.986 0.793-2.266 0.126-1.768-1.643z" fill="url(#b)"/>
						<g stroke="#111" fill="none">
								<line x2="58.034" y1="88.151" x1="54.097" y2="74.744"/>
								<line x2="60.54" y1="87.237" x1="56.601" y2="73.829"/>
								<line x2="62.948" y1="86.388" x1="59.009" y2="72.979"/>
								<line x2="65.356" y1="85.253" x1="61.702" y2="72.128"/>
								<line x2="67.767" y1="84.262" x1="64.394" y2="71.421"/>
								<line x2="70.317" y1="83.695" x1="66.944" y2="70.571"/>
								<line x2="73.009" y1="83.271" x1="69.354" y2="69.862"/>
								<line x2="75.136" y1="82.421" x1="72.188" y2="69.438"/>
								<line x2="77.12" y1="81.996" x1="74.739" y2="69.013"/>
								<line x2="79.104" y1="81.288" x1="77.431" y2="68.729"/>
								<line x2="92.272" y1="66.128" x1="92.638" y2="78.468"/>
								<line x2="90.007" y1="66.128" x1="90.796" y2="78.894"/>
								<line x2="87.882" y1="66.128" x1="88.671" y2="79.317"/>
								<line x2="85.474" y1="66.978" x1="86.405" y2="79.601"/>
								<line x2="82.78" y1="67.545" x1="83.995" y2="80.311"/>
								<line x2="80.229" y1="67.97" x1="81.444" y2="80.735"/>
							<path d="m52.79 86.343c0.883-3.128 2.58-9.771 4.344-11.158 1.764-1.389 34.584-10.705 36.455-8.811s0.354 10.904-0.75 12.094c-0.594 0.643-10.607 1.815-20.689 3.938-8.584 1.808-16.678 5.215-17.592 5.58-1.985 0.793-2.266 0.126-1.768-1.643z"/>
						</g>
					</g>
					<g stroke-miterlimit="10">
							<path stroke="#666" d="m206.09 88.583c-1-3.945-4.75-13.75-6.75-15.5s-38.379-11.889-40.5-9.5-0.4 14.642 0.85 16.142c0.674 0.811 12.025 1.754 23.457 4.431 9.732 2.278 18.908 6.218 19.943 6.678 2.25 0.999 3.57-0.021 3-2.251z" fill="#bbb"/>
							<path stroke="#000" d="m202.4 85.843c-0.881-3.128-2.578-9.771-4.342-11.158-1.764-1.389-34.586-10.705-36.457-8.811-1.869 1.895-0.352 10.904 0.75 12.094 0.596 0.643 10.607 1.815 20.689 3.938 8.586 1.808 16.68 5.215 17.592 5.58 1.99 0.793 2.27 0.126 1.77-1.643z" fill="#1E1E1E"/>
						<g stroke="#000" fill="none">
							<line x2="197.16" y1="87.651" x1="201.1" y2="74.244"/>
							<line x2="194.66" y1="86.737" x1="198.6" y2="73.329"/>
							<line x2="192.25" y1="85.888" x1="196.19" y2="72.479"/>
							<line x2="189.84" y1="84.753" x1="193.5" y2="71.628"/>
							<line x2="187.43" y1="83.762" x1="190.8" y2="70.921"/>
							<line x2="184.88" y1="83.195" x1="188.25" y2="70.071"/>
							<line x2="182.19" y1="82.771" x1="185.84" y2="69.362"/>
							<line x2="180.06" y1="81.921" x1="183.01" y2="68.938"/>
							<line x2="178.08" y1="81.496" x1="180.46" y2="68.513"/>
							<line x2="176.09" y1="80.788" x1="177.76" y2="68.229"/>
							<line x2="162.92" y1="65.628" x1="162.56" y2="77.968"/>
							<line x2="165.19" y1="65.628" x1="164.4" y2="78.394"/>
							<line x2="167.32" y1="65.628" x1="166.52" y2="78.817"/>
							<line x2="169.72" y1="66.478" x1="168.79" y2="79.101"/>
							<line x2="172.42" y1="67.045" x1="171.2" y2="79.811"/>
							<line x2="174.97" y1="67.47" x1="173.75" y2="80.235"/>
						</g>
					</g>
						<path d="m185.14 20.073c-12.746-11.339-38.611-11.74-57.861-11.74s-45.115 0.401-57.859 11.74c-0.793 0.706-1.594 1.624-2.395 2.726 2.609 1.751 28.584-5.042 60.254-4.714 31.672-0.328 57.648 6.467 60.254 4.713-0.8-1.101-1.6-2.019-2.39-2.725z" fill="#DFDFDF"/><g stroke-miterlimit="10">
						<path stroke="#000" d="m181.68 17.547c0.004-0.013 0.006-0.027 0.01-0.04-13.555-8.828-36.793-9.174-54.465-9.174-17.631 0-40.805 0.343-54.371 9.112 0.01 0.033 0.016 0.068 0.025 0.102-3.82 4.286 22.014-3.547 54.4-3.214 32.39-0.333 58.23 7.5 54.41 3.214z" fill="#191919"/>
						<g stroke="#333" fill="none">
							<path d="m78.13 16.589s20.205-5.756 49.146-5.756 48.791 5.756 48.791 5.756"/>
							<line x2="78.13" y1="18.539" x1="78.13" y2="14.64"/>
							<line x2="176.04" y1="18.539" x1="175.9" y2="14.64"/>
						</g>
						<path stroke="#000" d="m181.68 17.547c0.004-0.013 0.006-0.027 0.01-0.04-13.555-8.828-36.793-9.174-54.465-9.174-17.631 0-40.805 0.343-54.371 9.112 0.01 0.033 0.016 0.068 0.025 0.102-3.82 4.286 22.014-3.547 54.4-3.214 32.39-0.333 58.23 7.5 54.41 3.214z" fill="none"/>
						<ellipse rx="5.25" stroke="#000" ry="1.5" cy="10.833" cx="127.28" fill="#D0D0D0"/>
						</g><path d="m38.718 235.83c1.001-2.291 1.102-5.5 1.102-5.5s1.258-44.5 1.258-52-6.402-65.167-9.234-65.334c-1.334 1.334-1.294 21.418-1.294 21.418s1.503 88.927 1.503 95.298c-0.001 2.28 5.419 8.97 6.665 6.11z"/>
						<path d="m37.78 233.16c0.686-2.138 0.756-5.272 0.756-5.272s0.861-41.514 0.861-48.511-5.241-62.495-7.184-62.65c-0.914 1.244-0.036 21.681-0.036 21.681s1.03 84.094 1.03 90.037c0.001 2.13 3.718 7.37 4.573 4.71z" fill="#171D23"/>
						<polygon points="39.396 180.17 33.743 175.6 33.743 171.78 39.243 176.26"/>
						<path d="m215.78 235.83c-1.002-2.291-1.102-5.5-1.102-5.5s-1.258-44.5-1.258-52 6.402-65.167 9.234-65.334c1.334 1.334 1.293 21.418 1.293 21.418s-1.502 88.927-1.502 95.298c0.01 2.28-5.41 8.97-6.66 6.11z"/>
						<path d="m216.72 233.16c-0.686-2.138-0.756-5.272-0.756-5.272s-0.861-41.514-0.861-48.511 5.24-62.495 7.184-62.65c0.914 1.244 0.035 21.681 0.035 21.681s-1.029 84.094-1.029 90.037c0 2.13-3.72 7.37-4.57 4.71z" fill="#171D23"/>
						<polygon points="215.1 180.17 220.76 175.6 220.76 171.78 215.26 176.26"/>
						<path d="m7.185 145.46s-1.816-2.259-0.144-4.476c2.753-3.649 17.052-7.649 19.146-5.5l0.021 4.686-19.023 5.29z"/>
						<path d="m32.343 132.46c3.479-0.387 5.709 9.458 4.543 16.083-1.168 5-3.293-6.333-7.668-6.333-8.125 0-15.5 2.375-20.375 5.25-1.5-0.25-1.375-2-1.375-2s1.719-3.125 18.719-6.125v-3.851c4.281-0.13 5.593-2.96 6.156-3.03z" fill="#0C0C0C"/>
						<path d="m8.843 147.46s0.306 1.494 9.25-0.875c8.945-2.369 8.094-4.266 8.094-4.266s-7.594-0.1-17.344 5.15z" fill="#BCEAFF"/>
					<path d="m44.276 45.905c1.275-2 13.42-13.473 18.533-18.166-9.424 15.833-17.758 43.833-21.732 72.189l3.199-54.023z" fill="#CBCBCB"/>
					<path d="m210.29 45.905c-1.275-2-13.42-13.473-18.533-18.166 9.424 15.833 17.758 43.833 21.732 72.189l-3.2-54.023z" fill="#CBCBCB"/>
						<path d="m246.92 145.46s1.816-2.259 0.145-4.476c-2.754-3.649-17.053-7.649-19.146-5.5l-0.021 4.686 19.03 5.29z"/>
						<path d="m221.76 132.46c-3.479-0.387-5.709 9.458-4.543 16.083 1.168 5 3.293-6.333 7.668-6.333 8.125 0 15.5 2.375 20.375 5.25 1.5-0.25 1.375-2 1.375-2s-1.719-3.125-18.719-6.125v-3.851c-4.28-0.13-5.59-2.96-6.16-3.03z" fill="#0C0C0C"/>
						<path d="m245.26 147.46s-0.305 1.494-9.25-0.875-8.094-4.266-8.094-4.266 7.6-0.1 17.34 5.15z" fill="#BCEAFF"/>
					<path d="m127.14 176.33c12.576 0 25.73 0.932 37.883 2.471v-13.479c-5.75-0.75-16.25-1.5-37.9-1.5s-32.15 0.75-37.9 1.5v13.482h0.002c12.168-1.54 25.338-2.47 37.918-2.47z" fill="#7A7A7A"/>
					<path d="m89.226 165.32s26.992 1.584 37.992 1.584c10.334 0 37.809-1.584 37.809-1.584-5.75-0.75-16.25-1.5-37.9-1.5s-32.154 0.75-37.904 1.5z" fill="#A9A9A9"/>
					<path d="m89.226 165.32l2.326 9.991s17.291-2.076 35.35-2.076 35.816 1.528 35.816 1.528l2.309-9.443 0.021 13.482s-22.18-2.475-37.92-2.475-37.902 2.575-37.902 2.575v-13.58z" fill="#232323"/>
				<linearGradient id="a" y2="170.71" gradientUnits="userSpaceOnUse" y1="252.41" x2="127.13" x1="127.13">
					<stop stop-color="#D7D7D7" offset="0"/>
					<stop stop-color="#B6B6B6" offset=".3305"/>
					<stop stop-color="#636162" offset="1"/>
				</linearGradient>
				<path stroke="#232323" stroke-miterlimit="10" d="m127.13 258.58l82.859 0.003s0.891-68.421-2.443-69.85c-14.008-6.607-49.016-12.404-80.416-12.404s-66.408 5.797-80.418 12.404c-3.332 1.429-2.441 69.85-2.441 69.85h82.859" fill="url(#a)"/>
				<linearGradient id="q" y2="189.31" gradientUnits="userSpaceOnUse" y1="255.07" x2="127.13" x1="127.13">
					<stop stop-color="#FBFBFB" stop-opacity="0" offset="0"/>
					<stop stop-color="#FBFBFB" offset=".3635"/>
					<stop stop-color="#FBFBFB" stop-opacity=".7804" offset=".6426"/>
					<stop stop-color="#FBFBFB" stop-opacity="0" offset="1"/>
				</linearGradient>
				<path opacity=".8" d="m127.13 258.15l74.574 0.003s0.801-61.579-2.197-62.864c-12.609-5.947-44.115-11.164-72.377-11.164-28.26 0-59.766 5.217-72.375 11.164-3 1.285-2.197 62.864-2.197 62.864h74.582" fill="url(#q)"/>
				<g clip-rule="evenodd" fill-rule="evenodd">
					<path d="m109.85 233.31c-0.707-2.525-0.816-5.062-0.309-7.62 1.721-8.642 9.27-14.579 18.135-14.267 8.498 0.301 15.627 6.87 16.752 15.443 1.307 9.932-6.092 19.078-16.082 19.832-4.271 0.322-8.348-0.389-12.012-2.742-2.543-1.632-4.402-3.821-5.09-6.843-1.131-4.958 2.873-11.817 10.389-10.221 3.084 0.654 5.281 3.485 5.307 6.621 0.025 3.116-2.059 5.919-4.971 6.671-0.932 0.24-1.869 0.301-2.869-0.049 1.023-0.92 1.459-2.016 1.283-3.316-0.25-1.882-1.961-3.285-3.854-3.197-1.84 0.084-3.494 1.809-3.592 3.776-0.107 2.163 0.895 3.807 2.605 4.979 6.021 4.133 14.16 1.17 16.068-5.771 1.178-4.286 0.344-8.125-3.027-11.143-3.316-2.968-7.203-3.904-11.406-2.229-4.225 1.684-6.666 4.891-7.246 9.447-0.04 0.21-0.06 0.42-0.09 0.63z"/>
						<path d="m109.84 198.45v7.143h-2.254v-17.774h2.201c0.021 0.43 0.043 0.827 0.068 1.345 1.586-1.494 3.369-2.033 5.406-1.646 1.559 0.296 2.844 1.061 3.826 2.311 1.979 2.521 1.723 6.258-0.518 8.544-1.78 1.83-5.71 2.94-8.74 0.09zm-0.06-4.67c-0.012 2.329 1.846 4.25 4.131 4.271 2.268 0.021 4.174-1.9 4.188-4.219 0.01-2.317-1.869-4.262-4.137-4.273-2.28-0.01-4.17 1.9-4.18 4.22z"/>
						<path d="m124.78 198.41c-0.025 0.564-0.045 0.965-0.066 1.402h-2.188v-11.99h2.18c0.021 0.395 0.043 0.791 0.072 1.335 1.756-1.618 3.711-2.108 5.908-1.525 1.418 0.376 2.57 1.157 3.441 2.34 1.77 2.401 1.619 5.889-0.355 8.101-1.176 1.316-2.658 2.009-4.414 2.115-1.72 0.1-3.23-0.45-4.57-1.79zm-0.07-4.63c-0.02 2.315 1.854 4.252 4.133 4.273 2.273 0.02 4.168-1.887 4.188-4.215 0.021-2.316-1.855-4.258-4.129-4.277-2.27-0.02-4.17 1.9-4.19 4.22z"/>
						<path d="m148.78 193.82c-0.008-3.622 2.781-6.414 6.408-6.417 3.633-0.002 6.428 2.776 6.43 6.396 0.004 3.632-2.762 6.398-6.41 6.41-3.63 0.01-6.42-2.76-6.43-6.39zm6.44-4.26c-2.273-0.007-4.174 1.909-4.191 4.226-0.014 2.309 1.873 4.247 4.15 4.263 2.27 0.017 4.18-1.912 4.188-4.223 0.01-2.31-1.89-4.26-4.15-4.27z"/>
						<path d="m105.42 193.85c-0.014 3.616-2.826 6.38-6.465 6.354-3.643-0.025-6.398-2.811-6.375-6.443 0.02-3.62 2.82-6.374 6.465-6.362 3.615 0.01 6.385 2.82 6.375 6.45zm-6.421-4.29c-2.266-0.004-4.168 1.929-4.17 4.24-0.004 2.315 1.889 4.246 4.16 4.248s4.174-1.929 4.176-4.237c0.01-2.3-1.9-4.25-4.161-4.25z"/>
						<path d="m137.48 190.81c-0.359-0.674-0.697-1.305-1.027-1.928 1.787-2.023 5.992-1.979 8.326 0.066 2.615 2.295 2.898 6.432 0.619 9.062-2.215 2.559-6.381 2.931-8.973 0.734 0.342-0.64 0.691-1.299 1.045-1.963 2.455 1.693 4.586 1.615 6.156-0.193 1.42-1.633 1.387-4.041-0.076-5.67-1.58-1.75-3.71-1.81-6.08-0.11z"/>
				</g>
				<path d="m165.21 258.58s-3.742-5.01-6.242-5.01-31.75 0-31.75 0-29.25 0-31.75 0-6.242 5.01-6.242 5.01h75.982z" fill-rule="evenodd" stroke="#1E1E1E" clip-rule="evenodd" stroke-miterlimit="10" fill="#0F0F0F"/>
				<path d="m94.718 163.82" fill="#232323"/>
					<linearGradient id="p" y2="166.07" gradientUnits="userSpaceOnUse" y1="178.74" x2="65.935" x1="65.935">
						<stop stop-color="#A9A9A9" offset="0"/>
						<stop stop-color="#A9A9A9" stop-opacity="0" offset="1"/>
					</linearGradient>
					<path d="m44.585 187.06v-12.033c6.133-3.246 26.16-9.068 42.418-10.134l0.281 11.859s-27.566 3.41-42.699 10.3z" fill="url(#p)"/>
					<linearGradient id="o" y2="166.07" gradientUnits="userSpaceOnUse" y1="178.74" x2="188.25" x1="188.25">
						<stop stop-color="#A9A9A9" offset="0"/>
						<stop stop-color="#A9A9A9" stop-opacity="0" offset="1"/>
					</linearGradient>
					<path d="m209.6 187.06v-12.033c-6.135-3.246-26.16-9.068-42.418-10.134l-0.283 11.859s27.57 3.41 42.7 10.3z" fill="url(#o)"/>
				<path d="m39.397 49.237s-3.656 54.5-3.584 62.667c0.071 8.167-2.749 0-2.749 0l2.533-52.167c1.789-1.162 3.8-10.496 3.8-10.496z" fill="#6D6D6D"/>
				<path d="m214.76 49.237s3.656 54.5 3.586 62.667c-0.072 8.167 2.748 0 2.748 0l-2.533-52.167c-1.79-1.162-3.81-10.496-3.81-10.496z" fill="#6D6D6D"/>
				<path d="m127.19 6.333c61.275 0 80.467 16.5 88.693 22.835 7.947 6.122 11.297 72.012 11.602 106.28 0.146 0.011 0.287 0.025 0.439 0.03 0.408-0.419 1.279-0.604 2.438-0.604 4.79 0 14.491 3.166 16.708 6.104 1.672 2.217-0.145 4.476-0.145 4.476l-0.355-0.099c0.051 0.063 0.072 0.099 0.072 0.099s-0.937 1.949-5.137 1.949c-1.424 0-3.223-0.224-5.488-0.824-8.926-2.363-8.098-4.257-8.094-4.266-0.146-0.01-0.297-0.016-0.443-0.024-0.264 5.447-1.574 7.54-1.574 7.54l0.75 108.75h-198.93l0.75-108.75s-1.312-2.097-1.573-7.555c-0.235 0.014-0.474 0.022-0.708 0.039 0.004 0.009 0.832 1.902-8.094 4.266-2.265 0.6-4.063 0.824-5.487 0.824-4.2 0-5.138-1.949-5.138-1.949s0.021-0.035 0.072-0.099l-0.355 0.099s-1.816-2.259-0.144-4.476c2.217-2.938 11.918-6.104 16.708-6.104 1.159 0 2.03 0.185 2.438 0.604 0.244-0.007 0.478-0.025 0.703-0.05 0.307-34.276 3.656-100.14 11.604-106.26 8.222-6.337 27.415-22.837 88.694-22.837m0-6c-61.349 0-82.505 16.433-91.54 23.45l-0.815 0.631c-3.278 2.525-5.41 7.74-7.356 18.001-1.376 7.255-2.597 16.947-3.627 28.807-1.722 19.826-2.59 41.816-2.874 57.865-5.987 0.792-15.34 3.796-18.724 8.282-3.083 4.086-2.028 9.006 0.258 11.849l2.475 3.078 1.126-0.312c1.68 0.858 3.837 1.424 6.496 1.424 2.096 0 4.459-0.344 7.023-1.024 1.015-0.269 1.956-0.542 2.827-0.82l-0.738 106.98-0.042 6.042h211.02l-0.042-6.042-0.737-106.9c0.796 0.25 1.649 0.495 2.563 0.737 2.564 0.679 4.928 1.023 7.023 1.023 2.659 0 4.815-0.565 6.495-1.424l1.126 0.312 2.475-3.078c2.285-2.842 3.341-7.762 0.259-11.848-3.336-4.421-12.466-7.402-18.461-8.246-0.283-16.048-1.15-38.049-2.873-57.889-1.03-11.863-2.25-21.557-3.626-28.814-1.946-10.263-4.078-15.479-7.356-18.005l-0.818-0.634c-9.03-7.013-30.19-23.445-91.53-23.445z" fill="#212121"/>
		<path d="m42.218 253.57" fill-rule="evenodd" stroke="#3F3F3F" clip-rule="evenodd" stroke-miterlimit="10" stroke-width="3" fill="none"/>
					<linearGradient id="n" y2="470.25" gradientUnits="userSpaceOnUse" y1="267.77" x2="127.22" x1="127.22">
						<stop stop-color="#DF0000" offset="0"/>
						<stop stop-color="#A00404" offset="1"/>
					</linearGradient>
					<path fill-rule="evenodd" clip-rule="evenodd" d="m232.01 489.61c0 2.2-1.8 4-4 4h-201.58c-2.2 0-4-1.8-4-4v-226.03c0-2.2 1.8-4 4-4h201.58c2.2 0 4 1.8 4 4v226.03z" fill="url(#n)"/>
					<path stroke="#6D0000" stroke-width="3" stroke-miterlimit="10" d="m232.01 489.61c0 2.2-1.8 4-4 4h-201.58c-2.2 0-4-1.8-4-4v-226.03c0-2.2 1.8-4 4-4h201.58c2.2 0 4 1.8 4 4v226.03z" fill="none"/>
					<path fill-rule="evenodd" clip-rule="evenodd" d="m207.37 366.52c0 1.1-0.9 2-2 2h-156.31c-1.1 0-2-0.9-2-2v-77.541c0-1.1 0.9-2 2-2h156.31c1.1 0 2 0.9 2 2v77.54z" fill="#700000"/>
					<linearGradient id="m" y2="351.97" gradientUnits="userSpaceOnUse" y1="290.74" x2="127.22" x1="127.22">
						<stop stop-color="#DF0000" offset="0"/>
						<stop stop-color="#A00404" offset="1"/>
					</linearGradient>
					<path fill-rule="evenodd" clip-rule="evenodd" d="m203.12 361.11c0 1.1-0.9 2-2 2h-147.81c-1.1 0-2-0.9-2-2v-72.674c0-1.1 0.9-2 2-2h147.81c1.1 0 2 0.9 2 2v72.67z" fill="url(#m)"/>
					<path stroke="#A80000" stroke-width="3" stroke-miterlimit="10" d="m203.12 361.11c0 1.1-0.9 2-2 2h-147.81c-1.1 0-2-0.9-2-2v-72.674c0-1.1 0.9-2 2-2h147.81c1.1 0 2 0.9 2 2v72.67z" fill="none"/>
						<linearGradient id="l" y2="387.35" gradientUnits="userSpaceOnUse" y1="346.08" x2="127.22" x1="127.22">
							<stop stop-color="#DF0000" offset="0"/>
							<stop stop-color="#A00404" offset="1"/>
						</linearGradient>
						<path fill-rule="evenodd" clip-rule="evenodd" d="m195.53 359.41c0 1.1-0.9 2-2 2h-132.63c-1.1 0-2-0.9-2-2v-69.273c0-1.1 0.9-2 2-2h132.63c1.1 0 2 0.9 2 2v69.27z" fill="url(#l)"/>
					<path opacity=".4" fill-rule="evenodd" clip-rule="evenodd" d="m61.409 355.58c0.006-2.011 0.143-59.62 0.143-59.62s-1.012-4.225 4-4.225c6.666 0 120.68-0.359 125.33 0-4.334 0.859-119.67-0.002-125 4.666-5.328 4.66-3.494 55.99-4.471 59.17z" fill="#fff"/>
					<linearGradient id="k" y2="358.64" gradientUnits="userSpaceOnUse" y1="346.82" x2="127.24" x1="127.24">
						<stop stop-color="#DF0000" offset="0"/>
						<stop stop-color="#A00404" offset="1"/>
					</linearGradient>
					<path fill-rule="evenodd" clip-rule="evenodd" d="m192.72 355.82c0 1.65-1.35 3-3 3h-124.96c-1.65 0-3-1.35-3-3v-6.254c0-1.65 1.35-3 3-3h124.96c1.65 0 3 1.35 3 3v6.25z" fill="url(#k)"/>
			<g opacity=".3" fill-rule="evenodd" clip-rule="evenodd" fill="#fff">
				<path d="m31.798 476.6c3.08-3 7.6-194.03 7.6-200.53s-8.849-7.5-8.849-7.5l1.249 208.03z"/>
				<path d="m222.29 476.6c-3.08-3-7.6-194.03-7.6-200.53s8.85-7.5 8.85-7.5l-1.25 208.03z"/>
			</g>
				<linearGradient id="j" y2="275.08" gradientUnits="userSpaceOnUse" y1="270.32" x2="127.04" x1="127.04">
					<stop stop-color="#700000" stop-opacity="0" offset="0"/>
					<stop stop-color="#700000" offset="1"/>
				</linearGradient>
				<path opacity=".5" fill-rule="evenodd" clip-rule="evenodd" d="m39.397 276.07c0 0.16-0.003 0.501-0.008 1h175.3c-0.006-0.499-0.008-0.84-0.008-1 0-6.5 8.85-7.5 8.85-7.5h-192.98c-0.001 0 8.847 1 8.847 7.5z" fill="url(#j)"/>
				<path fill-rule="evenodd" clip-rule="evenodd" d="m24.638 490.64c-1.214 0-2.207-1.8-2.207-4v-224.06c0-2.2 1.8-4 4-4h201.58c2.2 0 4 1.8 4 4v224.06c0 2.2-1.008 4-2.24 4s-2.24-1.8-2.24-4v-218.17c0-2.2-1.8-4-4-4h-192.68c-2.2 0-4 1.8-4 4v218.16c-0.005 2.21-0.998 4.01-2.212 4.01z" fill="#870000"/>
				<path stroke="#490000" stroke-width="6" stroke-miterlimit="10" d="m232.01 489.61c0 2.2-1.8 4-4 4h-201.58c-2.2 0-4-1.8-4-4v-226.03c0-2.2 1.8-4 4-4h201.58c2.2 0 4 1.8 4 4v226.03z" fill="none"/>
</svg>
