<?xml version="1.0" encoding="utf-8"?>
<!-- Generator: Adobe Illustrator 16.2.1, SVG Export Plug-In . SVG Version: 6.00 Build 0)  -->
<!DOCTYPE svg PUBLIC "-//W3C//DTD SVG 1.1//EN" "http://www.w3.org/Graphics/SVG/1.1/DTD/svg11.dtd">
<svg version="1.1" id="Layer_1" xmlns="http://www.w3.org/2000/svg" xmlns:xlink="http://www.w3.org/1999/xlink" 
	 viewBox="0 0 263.523 509.279" enable-background="new 0 0 263.523 509.279"
	 xml:space="preserve">
<g>
	<path opacity="0.4" fill="#060D1C" d="M262.216,153.346c-2.972-3.938-13.747-7.263-19.022-7.297
		c-0.228-16.162-1.09-39.479-2.905-60.385c-1.021-11.763-2.228-21.356-3.585-28.515c-2.24-11.814-4.512-14.857-6.239-16.188
		l-0.828-0.641c-8.792-6.828-29.382-22.817-89.696-22.817c-60.318,0-80.903,15.99-89.694,22.818l-0.825,0.64
		c-1.728,1.331-3.999,4.373-6.239,16.184c-1.357,7.156-2.564,16.748-3.586,28.508c-1.816,20.904-2.678,44.231-2.906,60.397
		c-0.061-0.001-0.121-0.002-0.183-0.002c-5.246,0-16.118,3.34-19.103,7.298c-2.436,3.229-0.934,6.751,0.201,8.162l1.237,1.539
		l0.454-0.126c1.193,0.859,3.102,1.656,6.066,1.656c1.838,0,3.941-0.312,6.256-0.924c2.455-0.65,4.295-1.294,5.684-1.916
		c0.3,1.35,0.644,2.312,0.919,2.948l-0.743,107.836c-0.198,0.064-0.391,0.143-0.578,0.229h-1.711v0.995v0.237
		c-0.928,0.984-1.5,2.307-1.5,3.763v226.034c0,1.456,0.572,2.778,1.5,3.763v0.237h0.236c0.984,0.927,2.307,1.5,3.764,1.5H240.76
		c1.456,0,2.778-0.573,3.763-1.5h0.237v-0.237c0.927-0.984,1.5-2.307,1.5-3.763V277.745c0-1.456-0.573-2.777-1.5-3.763v-0.237
		v-0.995h-1.713c-0.208-0.096-0.421-0.184-0.643-0.253l-0.743-107.812c0.269-0.618,0.602-1.548,0.896-2.842
		c1.359,0.589,3.128,1.196,5.443,1.81c2.314,0.612,4.419,0.924,6.256,0.924c2.965,0,4.873-0.797,6.067-1.656l0.453,0.126
		l1.237-1.539C263.148,160.097,264.65,156.575,262.216,153.346z M259.372,154.657c-0.035-0.034-0.07-0.069-0.107-0.104
		C259.302,154.588,259.337,154.623,259.372,154.657z M248.963,157.902c3.123,0.852,5.918,1.994,8.229,3.259
		c-0.017,0.006-0.035,0.011-0.053,0.017C254.128,159.635,251.351,158.596,248.963,157.902z M22.479,161.178
		c-0.017-0.006-0.035-0.011-0.053-0.017c2.311-1.265,5.104-2.406,8.227-3.258C28.267,158.596,25.489,159.635,22.479,161.178z
		 M38.964,156.661c0-0.014,0.002-0.027,0.002-0.039C38.966,156.634,38.964,156.647,38.964,156.661z M38.956,156.486
		c0.098-0.007,0.197-0.01,0.295-0.016C39.152,156.476,39.054,156.479,38.956,156.486z M38.964,156.603c0-0.01,0-0.02-0.002-0.028
		C38.964,156.583,38.964,156.593,38.964,156.603z M38.96,156.558c0-0.007-0.002-0.015-0.003-0.021
		C38.958,156.543,38.96,156.551,38.96,156.558z M38.954,156.523c-0.001-0.005-0.002-0.01-0.004-0.014
		C38.952,156.514,38.953,156.519,38.954,156.523z M238.775,163.78c0.002-0.004,0.004-0.007,0.005-0.01
		C238.779,163.773,238.777,163.776,238.775,163.78z M238.704,163.918c0.004-0.006,0.007-0.013,0.011-0.02
		C238.711,163.907,238.708,163.911,238.704,163.918z M240.229,156.463L240.229,156.463c0,0.025-0.002,0.048-0.004,0.073
		C240.228,156.512,240.229,156.487,240.229,156.463z M237.271,85.609c0.01,0.112,0.021,0.224,0.03,0.337
		C237.292,85.833,237.281,85.722,237.271,85.609z M237.427,87.417c0.017,0.197,0.033,0.395,0.05,0.593
		C237.46,87.812,237.443,87.614,237.427,87.417z M237.584,89.328c0.021,0.259,0.043,0.518,0.063,0.778
		C237.627,89.846,237.605,89.588,237.584,89.328z M237.747,91.375c0.021,0.272,0.042,0.545,0.063,0.818
		C237.789,91.92,237.768,91.647,237.747,91.375z M237.906,93.471c0.021,0.28,0.042,0.56,0.062,0.839
		C237.948,94.03,237.927,93.751,237.906,93.471z M238.058,95.552c0.021,0.295,0.043,0.589,0.063,0.885
		C238.101,96.141,238.079,95.847,238.058,95.552z M238.207,97.678c0.02,0.297,0.04,0.594,0.061,0.891
		C238.247,98.271,238.227,97.975,238.207,97.678z M238.348,99.784c0.021,0.315,0.042,0.631,0.062,0.947
		C238.39,100.415,238.369,100.1,238.348,99.784z M238.484,101.899c0.021,0.328,0.041,0.654,0.062,0.982
		C238.525,102.554,238.505,102.228,238.484,101.899z M238.617,104.056c0.02,0.326,0.039,0.651,0.059,0.977
		C238.656,104.707,238.637,104.382,238.617,104.056z M238.744,106.198c0.019,0.332,0.038,0.663,0.057,0.994
		C238.782,106.861,238.763,106.53,238.744,106.198z M238.865,108.347c0.019,0.333,0.037,0.667,0.055,1.001
		C238.902,109.014,238.884,108.68,238.865,108.347z M238.982,110.515c0.017,0.322,0.034,0.644,0.051,0.966
		C239.017,111.158,238.999,110.837,238.982,110.515z M239.093,112.649c0.017,0.334,0.033,0.667,0.05,1
		C239.126,113.316,239.109,112.983,239.093,112.649z M239.198,114.794c0.016,0.322,0.031,0.644,0.046,0.966
		C239.229,115.438,239.214,115.116,239.198,114.794z M239.3,116.945c0.015,0.312,0.028,0.625,0.043,0.937
		C239.328,117.57,239.314,117.258,239.3,116.945z M239.394,119.04c0.015,0.332,0.029,0.663,0.043,0.994
		C239.423,119.703,239.408,119.372,239.394,119.04z M239.484,121.166c0.013,0.304,0.025,0.606,0.037,0.908
		C239.51,121.772,239.497,121.47,239.484,121.166z M239.57,123.278c0.012,0.296,0.022,0.59,0.034,0.886
		C239.593,123.869,239.582,123.574,239.57,123.278z M239.649,125.336c0.011,0.302,0.021,0.601,0.032,0.901
		C239.671,125.937,239.66,125.638,239.649,125.336z M239.725,127.404c0.01,0.282,0.019,0.562,0.028,0.843
		C239.743,127.967,239.734,127.687,239.725,127.404z M239.794,129.446c0.009,0.252,0.017,0.502,0.024,0.754
		C239.811,129.948,239.803,129.698,239.794,129.446z M239.859,131.491c0.006,0.177,0.011,0.352,0.016,0.527
		C239.87,131.843,239.865,131.668,239.859,131.491z M239.92,133.494c0.003,0.112,0.006,0.224,0.009,0.336
		C239.926,133.718,239.923,133.606,239.92,133.494z M239.975,135.457c0,0.026,0.001,0.054,0.002,0.081
		C239.976,135.511,239.975,135.483,239.975,135.457z M232.843,53.378c0.045,0.194,0.091,0.389,0.136,0.587
		C232.934,53.767,232.888,53.572,232.843,53.378z M233.134,54.663c0.044,0.201,0.088,0.403,0.132,0.608
		C233.222,55.066,233.178,54.864,233.134,54.663z M233.421,56.018c0.042,0.204,0.084,0.411,0.125,0.619
		C233.504,56.428,233.463,56.222,233.421,56.018z M233.698,57.416c0.042,0.216,0.083,0.433,0.123,0.651
		C233.781,57.849,233.74,57.632,233.698,57.416z M233.971,58.879c0.04,0.219,0.079,0.44,0.118,0.662
		C234.05,59.319,234.011,59.098,233.971,58.879z M234.238,60.401c0.037,0.218,0.074,0.439,0.11,0.661
		C234.312,60.841,234.275,60.619,234.238,60.401z M234.498,61.969c0.035,0.225,0.071,0.451,0.107,0.679
		C234.569,62.42,234.533,62.193,234.498,61.969z M234.75,63.58c0.034,0.228,0.068,0.458,0.104,0.688
		C234.818,64.038,234.784,63.808,234.75,63.58z M234.999,65.258c0.031,0.217,0.062,0.438,0.093,0.657
		C235.061,65.695,235.03,65.475,234.999,65.258z M235.239,66.964c0.03,0.221,0.06,0.445,0.09,0.668
		C235.299,67.409,235.27,67.185,235.239,66.964z M235.474,68.715c0.028,0.218,0.056,0.438,0.084,0.658
		C235.529,69.153,235.502,68.933,235.474,68.715z M235.701,70.506c0.026,0.212,0.052,0.427,0.078,0.641
		C235.753,70.933,235.728,70.718,235.701,70.506z M235.924,72.345c0.022,0.188,0.044,0.378,0.066,0.566
		C235.968,72.723,235.946,72.532,235.924,72.345z M236.14,74.208c0.019,0.164,0.037,0.331,0.056,0.496
		C236.177,74.539,236.158,74.372,236.14,74.208z M236.351,76.116c0.011,0.097,0.021,0.196,0.031,0.293
		C236.371,76.312,236.361,76.214,236.351,76.116z M236.554,78.037c0.002,0.022,0.004,0.046,0.007,0.068
		C236.558,78.083,236.556,78.06,236.554,78.037z M43.603,75.466c0.051-0.453,0.1-0.906,0.15-1.354
		C43.702,74.56,43.653,75.013,43.603,75.466z M43.826,73.483c0.048-0.415,0.095-0.831,0.144-1.242
		C43.921,72.652,43.874,73.068,43.826,73.483z M44.051,71.577c0.048-0.391,0.095-0.783,0.143-1.169
		C44.146,70.794,44.099,71.187,44.051,71.577z M44.278,69.734c0.049-0.376,0.096-0.752,0.145-1.123
		C44.374,68.982,44.327,69.358,44.278,69.734z M44.513,67.938c0.049-0.362,0.096-0.724,0.146-1.079
		C44.608,67.214,44.562,67.575,44.513,67.938z M44.753,66.176c0.049-0.342,0.097-0.683,0.146-1.019
		C44.85,65.493,44.802,65.834,44.753,66.176z M45.002,64.453c0.048-0.321,0.095-0.642,0.144-0.957
		C45.097,63.812,45.05,64.132,45.002,64.453z M45.253,62.807c0.049-0.313,0.098-0.625,0.147-0.933
		C45.351,62.182,45.302,62.494,45.253,62.807z M45.511,61.204c0.049-0.299,0.098-0.596,0.148-0.889
		C45.608,60.608,45.56,60.905,45.511,61.204z M45.774,59.647c0.051-0.285,0.102-0.568,0.151-0.848
		C45.876,59.079,45.825,59.362,45.774,59.647z M46.045,58.154c0.051-0.272,0.103-0.544,0.153-0.811
		C46.147,57.61,46.096,57.882,46.045,58.154z M46.321,56.714c0.052-0.261,0.104-0.519,0.156-0.773
		C46.425,56.195,46.373,56.453,46.321,56.714z M46.604,55.333c0.053-0.248,0.105-0.492,0.158-0.733
		C46.71,54.841,46.657,55.085,46.604,55.333z M46.894,54.013c0.053-0.236,0.107-0.468,0.162-0.697
		C47.001,53.545,46.946,53.776,46.894,54.013z M41.104,163.778c0-0.003-0.002-0.005-0.003-0.008
		C41.103,163.773,41.104,163.775,41.104,163.778z M41.226,164.003c0,0-0.006-0.009-0.016-0.025
		C41.218,163.99,41.226,164.003,41.226,164.003z M41.175,163.914c-0.002-0.005-0.004-0.008-0.008-0.015
		C41.171,163.905,41.173,163.909,41.175,163.914z M240.31,156.468c0.118,0.007,0.237,0.011,0.354,0.02
		C240.547,156.479,240.428,156.474,240.31,156.468z M240.652,156.621c0,0.017,0,0.034,0.002,0.052
		C240.652,156.655,240.652,156.638,240.652,156.621z M240.666,156.51c-0.001,0.004-0.002,0.009-0.003,0.014
		C240.664,156.519,240.665,156.514,240.666,156.51z M240.66,156.537c-0.001,0.006-0.002,0.014-0.003,0.021
		C240.658,156.551,240.659,156.543,240.66,156.537z M240.654,156.574c-0.001,0.011-0.001,0.023-0.002,0.036
		C240.653,156.598,240.653,156.585,240.654,156.574z M243.227,149.052c-0.055,0-0.112-0.002-0.166-0.002
		c0.019,0,0.033-0.002,0.051-0.002C243.147,149.048,243.189,149.052,243.227,149.052z M258.695,154.074
		c-0.038-0.029-0.08-0.059-0.12-0.088C258.615,154.016,258.657,154.045,258.695,154.074z M257.944,153.552
		c-0.04-0.025-0.077-0.052-0.118-0.077C257.867,153.5,257.904,153.526,257.944,153.552z M257.033,153.009
		c-0.065-0.036-0.133-0.072-0.201-0.109C256.9,152.937,256.967,152.973,257.033,153.009z M255.945,152.443
		c-0.029-0.014-0.06-0.027-0.088-0.041C255.886,152.416,255.916,152.43,255.945,152.443z M254.956,151.991
		c-0.077-0.034-0.153-0.068-0.231-0.102C254.803,151.923,254.879,151.957,254.956,151.991z M253.731,151.482
		c-0.078-0.03-0.157-0.061-0.235-0.091C253.574,151.422,253.653,151.452,253.731,151.482z M252.557,151.045
		c-0.058-0.021-0.115-0.042-0.173-0.062C252.441,151.003,252.499,151.024,252.557,151.045z M251.319,150.628
		c-0.094-0.03-0.188-0.06-0.283-0.09C251.131,150.568,251.226,150.598,251.319,150.628z M249.963,150.218
		c-0.058-0.017-0.116-0.031-0.175-0.048C249.847,150.187,249.905,150.201,249.963,150.218z M248.825,149.915
		c-0.085-0.021-0.171-0.044-0.255-0.064C248.655,149.871,248.74,149.894,248.825,149.915z M247.533,149.612
		c-0.085-0.019-0.169-0.035-0.253-0.053C247.364,149.577,247.447,149.594,247.533,149.612z M246.347,149.38
		c-0.044-0.008-0.09-0.018-0.134-0.025C246.257,149.362,246.303,149.372,246.347,149.38z M245.245,149.209
		c-0.08-0.011-0.159-0.021-0.237-0.03C245.086,149.188,245.165,149.198,245.245,149.209z M244.111,149.089
		c-0.052-0.004-0.099-0.006-0.149-0.009C244.013,149.083,244.06,149.085,244.111,149.089z M242.367,149.08
		c-0.054,0.005-0.104,0.012-0.155,0.017C242.264,149.092,242.313,149.085,242.367,149.08z M241.678,149.183
		c-0.027,0.006-0.058,0.01-0.084,0.017C241.62,149.192,241.65,149.188,241.678,149.183z M241.117,149.362
		c-0.033,0.016-0.064,0.032-0.096,0.049C241.053,149.395,241.084,149.378,241.117,149.362z M232.684,52.715
		c-0.046-0.189-0.093-0.375-0.14-0.56C232.591,52.34,232.638,52.525,232.684,52.715z M232.384,51.531
		c-0.048-0.182-0.097-0.359-0.146-0.537C232.287,51.172,232.336,51.35,232.384,51.531z M232.077,50.414
		c-0.05-0.174-0.101-0.343-0.151-0.513C231.977,50.071,232.027,50.239,232.077,50.414z M231.763,49.363
		c-0.052-0.166-0.104-0.324-0.156-0.484C231.659,49.039,231.711,49.197,231.763,49.363z M231.442,48.384
		c-0.054-0.156-0.107-0.306-0.162-0.456C231.335,48.078,231.389,48.228,231.442,48.384z M231.115,47.475
		c-0.056-0.146-0.112-0.284-0.168-0.425C231.003,47.19,231.06,47.328,231.115,47.475z M230.781,46.644
		c-0.058-0.139-0.117-0.267-0.177-0.397C230.664,46.377,230.724,46.505,230.781,46.644z M229.738,44.613
		c-0.069-0.107-0.141-0.203-0.211-0.301C229.598,44.41,229.669,44.506,229.738,44.613z M230.44,45.886
		c-0.061-0.126-0.122-0.241-0.183-0.359C230.318,45.645,230.38,45.76,230.44,45.886z M230.093,45.208
		c-0.064-0.115-0.13-0.221-0.194-0.328C229.963,44.987,230.028,45.092,230.093,45.208z M229.377,44.102
		c-0.08-0.103-0.161-0.19-0.242-0.28C229.216,43.911,229.297,43.999,229.377,44.102z M229.009,43.676
		c-0.124-0.127-0.25-0.24-0.376-0.338C228.759,43.436,228.885,43.549,229.009,43.676z M51.251,43.338
		c-0.127,0.098-0.252,0.211-0.377,0.338C50.999,43.549,51.124,43.436,51.251,43.338z M50.366,44.299
		c-0.074,0.103-0.148,0.203-0.223,0.316C50.218,44.502,50.292,44.401,50.366,44.299z M50.757,43.812
		c-0.084,0.093-0.168,0.185-0.252,0.291C50.589,43.996,50.673,43.904,50.757,43.812z M47.188,52.756
		c0.055-0.223,0.109-0.441,0.164-0.657C47.298,52.314,47.243,52.533,47.188,52.756z M47.491,51.562
		c0.056-0.212,0.111-0.418,0.168-0.623C47.603,51.145,47.547,51.352,47.491,51.562z M47.799,50.44
		c0.058-0.2,0.114-0.394,0.173-0.586C47.913,50.047,47.856,50.24,47.799,50.44z M48.114,49.381c0.059-0.185,0.117-0.363,0.175-0.541
		C48.231,49.018,48.173,49.196,48.114,49.381z M48.436,48.397c0.06-0.174,0.12-0.34,0.181-0.507
		C48.556,48.058,48.495,48.224,48.436,48.397z M48.765,47.485c0.061-0.161,0.122-0.312,0.184-0.465
		C48.887,47.173,48.825,47.324,48.765,47.485z M49.099,46.648c0.063-0.148,0.127-0.287,0.191-0.428
		C49.226,46.361,49.162,46.5,49.099,46.648z M49.44,45.892c0.064-0.137,0.131-0.263,0.197-0.39
		C49.571,45.629,49.505,45.755,49.44,45.892z M49.788,45.212c0.068-0.123,0.138-0.234,0.207-0.349
		C49.926,44.978,49.856,45.088,49.788,45.212z M43.339,77.946c-0.204,1.969-0.398,3.984-0.584,6.035
		C42.94,81.931,43.135,79.915,43.339,77.946z M43.543,76.015c-0.058,0.53-0.114,1.066-0.17,1.604
		C43.429,77.081,43.485,76.545,43.543,76.015z M39.954,133.803c0.003-0.109,0.006-0.218,0.009-0.327
		C39.96,133.585,39.957,133.693,39.954,133.803z M40.011,131.868c0.004-0.117,0.008-0.234,0.012-0.353
		C40.019,131.634,40.015,131.751,40.011,131.868z M40.071,129.983c0.004-0.164,0.01-0.326,0.016-0.491
		C40.081,129.657,40.075,129.819,40.071,129.983z M40.135,128.068c0.007-0.211,0.015-0.421,0.022-0.633
		C40.149,127.647,40.142,127.857,40.135,128.068z M40.202,126.162c0.01-0.272,0.02-0.543,0.03-0.816
		C40.222,125.619,40.212,125.89,40.202,126.162z M40.279,124.113c0.011-0.28,0.021-0.561,0.032-0.843
		C40.301,123.553,40.29,123.833,40.279,124.113z M40.36,122.065c0.012-0.296,0.023-0.592,0.037-0.888
		C40.384,121.474,40.372,121.77,40.36,122.065z M40.45,119.931c0.012-0.285,0.023-0.569,0.036-0.854
		C40.474,119.361,40.462,119.646,40.45,119.931z M40.54,117.873c0.014-0.317,0.028-0.634,0.043-0.951
		C40.568,117.239,40.554,117.556,40.54,117.873z M40.638,115.747c0.016-0.315,0.03-0.631,0.045-0.946
		C40.668,115.116,40.653,115.432,40.638,115.747z M40.741,113.618c0.016-0.325,0.031-0.65,0.049-0.976
		C40.772,112.968,40.757,113.293,40.741,113.618z M40.848,111.505c0.019-0.352,0.037-0.704,0.056-1.057
		C40.885,110.801,40.866,111.153,40.848,111.505z M40.96,109.384c0.02-0.365,0.04-0.73,0.061-1.096
		C41,108.653,40.979,109.019,40.96,109.384z M41.079,107.228c0.021-0.369,0.043-0.738,0.064-1.107
		C41.122,106.489,41.101,106.858,41.079,107.228z M41.204,105.083c0.021-0.384,0.045-0.768,0.068-1.15
		C41.249,104.315,41.226,104.699,41.204,105.083z M41.333,102.937c0.023-0.387,0.049-0.771,0.072-1.158
		C41.382,102.165,41.356,102.55,41.333,102.937z M41.469,100.788c0.025-0.398,0.052-0.797,0.078-1.194
		C41.521,99.991,41.494,100.39,41.469,100.788z M41.609,98.651c0.027-0.408,0.056-0.815,0.083-1.223
		C41.665,97.836,41.637,98.243,41.609,98.651z M41.756,96.515c0.028-0.416,0.06-0.83,0.089-1.244
		C41.814,95.685,41.784,96.099,41.756,96.515z M41.908,94.388c0.03-0.421,0.062-0.84,0.094-1.26
		C41.97,93.548,41.938,93.967,41.908,94.388z M42.066,92.267c0.032-0.432,0.067-0.862,0.101-1.292
		C42.134,91.404,42.1,91.835,42.066,92.267z M42.229,90.175c0.037-0.465,0.074-0.926,0.112-1.388
		C42.304,89.249,42.267,89.71,42.229,90.175z M42.399,88.092c0.039-0.487,0.081-0.972,0.123-1.455
		C42.48,87.12,42.438,87.604,42.399,88.092z M42.574,86.021c0.05-0.567,0.099-1.13,0.149-1.691
		C42.673,84.892,42.624,85.454,42.574,86.021z M39.647,149.603L39.647,149.603c-0.227,0.024-0.459,0.043-0.704,0.05
		C39.188,149.646,39.421,149.627,39.647,149.603z M38.597,149.411c-0.032-0.017-0.063-0.033-0.098-0.049
		C38.533,149.378,38.564,149.395,38.597,149.411z M38.022,149.198c-0.025-0.006-0.055-0.01-0.082-0.016
		C37.968,149.188,37.997,149.192,38.022,149.198z M37.404,149.097c-0.052-0.005-0.101-0.012-0.153-0.017
		C37.304,149.085,37.353,149.092,37.404,149.097z M36.556,149.05c-0.053,0-0.11,0.002-0.165,0.002c0.036,0,0.079-0.004,0.115-0.004
		C36.524,149.048,36.538,149.05,36.556,149.05z M20.925,154.073c0.037-0.028,0.076-0.057,0.115-0.084
		C21.002,154.017,20.962,154.045,20.925,154.073z M21.68,153.548c0.037-0.023,0.071-0.048,0.11-0.072
		C21.751,153.5,21.717,153.524,21.68,153.548z M22.589,153.007c0.062-0.035,0.127-0.069,0.191-0.104
		C22.716,152.938,22.651,152.972,22.589,153.007z M23.677,152.441c0.023-0.011,0.047-0.021,0.068-0.032
		C23.724,152.42,23.7,152.431,23.677,152.441z M24.67,151.987c0.073-0.032,0.145-0.064,0.218-0.096
		C24.814,151.923,24.743,151.955,24.67,151.987z M25.892,151.48c0.073-0.029,0.148-0.057,0.223-0.086
		C26.04,151.423,25.965,151.451,25.892,151.48z M27.071,151.041c0.054-0.019,0.105-0.038,0.159-0.058
		C27.177,151.003,27.125,151.022,27.071,151.041z M28.304,150.626c0.092-0.029,0.182-0.058,0.272-0.086
		C28.485,150.568,28.395,150.597,28.304,150.626z M29.657,150.218c0.055-0.017,0.111-0.03,0.166-0.046
		C29.769,150.188,29.712,150.201,29.657,150.218z M30.796,149.914c0.084-0.021,0.167-0.043,0.25-0.063
		C30.963,149.871,30.88,149.894,30.796,149.914z M32.085,149.611c0.086-0.018,0.168-0.034,0.252-0.052
		C32.253,149.577,32.17,149.594,32.085,149.611z M33.27,149.38c0.045-0.008,0.091-0.018,0.136-0.025
		C33.36,149.362,33.314,149.372,33.27,149.38z M34.372,149.21c0.08-0.012,0.16-0.021,0.238-0.031
		C34.532,149.188,34.452,149.199,34.372,149.21z M35.507,149.089c0.051-0.004,0.099-0.006,0.148-0.009
		C35.605,149.083,35.558,149.085,35.507,149.089z M20.353,154.554c-0.036,0.034-0.07,0.068-0.105,0.104
		C20.282,154.622,20.315,154.588,20.353,154.554z M20.298,159.529L20.298,159.529L20.298,159.529l-0.355,0.099L20.298,159.529z
		 M30.851,160.753c5.03-1.332,6.963-2.516,7.689-3.295C37.813,158.237,35.882,159.421,30.851,160.753z M38.963,156.679
		c-0.001,0.016-0.004,0.032-0.007,0.049C38.959,156.711,38.962,156.694,38.963,156.679z M38.954,156.745
		c-0.004,0.02-0.008,0.04-0.014,0.061C38.945,156.785,38.95,156.765,38.954,156.745z M38.937,156.821
		c-0.006,0.021-0.014,0.045-0.022,0.067C38.923,156.866,38.931,156.843,38.937,156.821z M38.908,156.906
		c-0.011,0.027-0.022,0.056-0.036,0.085C38.886,156.962,38.897,156.934,38.908,156.906z M38.868,157
		c-0.016,0.03-0.032,0.062-0.051,0.094C38.836,157.062,38.853,157.03,38.868,157z M38.812,157.103
		c-0.019,0.031-0.041,0.065-0.065,0.1C38.771,157.168,38.794,157.134,38.812,157.103z M38.741,157.213
		c-0.026,0.037-0.056,0.075-0.088,0.115C38.686,157.288,38.715,157.25,38.741,157.213z M38.651,157.331
		c-0.031,0.037-0.064,0.076-0.102,0.116C38.587,157.407,38.62,157.368,38.651,157.331z M240.709,156.906
		c0.261,0.686,1.63,2.144,8.059,3.847C242.338,159.051,240.97,157.592,240.709,156.906z M240.654,156.679
		c0.001,0.016,0.004,0.033,0.007,0.052C240.658,156.712,240.655,156.694,240.654,156.679z M240.663,156.745
		c0.004,0.022,0.01,0.046,0.017,0.07C240.673,156.791,240.667,156.768,240.663,156.745z M240.681,156.821
		c0.007,0.024,0.016,0.051,0.026,0.079C240.696,156.872,240.688,156.846,240.681,156.821z M259.32,159.529
		C259.32,159.53,259.32,159.529,259.32,159.529C259.32,159.53,259.32,159.529,259.32,159.529l0.355,0.099L259.32,159.529z"/>
	<g>
		<g>
			<g>
				<g>
					<linearGradient id="SVGID_1_" gradientUnits="userSpaceOnUse" x1="127.1855" y1="3.0713" x2="127.1855" y2="268.1936">
						<stop  offset="0" style="stop-color:#CBCBCB"/>
						<stop  offset="0.3163" style="stop-color:#8D8D8D"/>
						<stop  offset="0.9286" style="stop-color:#666666"/>
						<stop  offset="0.9745" style="stop-color:#333333"/>
					</linearGradient>
					<path fill="url(#SVGID_1_)" d="M226.653,258.583l-0.75-108.75c0,0,1.85-2.925,1.6-10.925
						c-0.1-33.075-3.398-103.405-11.623-109.74c-8.227-6.335-27.418-22.835-88.693-22.835s-80.469,16.5-88.693,22.835
						s-11.525,76.665-11.625,109.74c-0.25,8,1.6,10.925,1.6,10.925l-0.75,108.75H226.653z"/>
					<path fill-rule="evenodd" clip-rule="evenodd" fill="#3F3F3F" d="M42.218,258.583c0,0-13.417-6.524-14.754-24.685v24.685
						H42.218z"/>
					<path fill-rule="evenodd" clip-rule="evenodd" fill="#3F3F3F" d="M212.017,258.583c0,0,13.418-6.524,14.754-24.685v24.685
						H212.017z"/>
					<path fill="none" stroke="#333333" stroke-miterlimit="10" d="M31.398,118.333c0,0,2.142-56.182,3.332-66.333"/>
					<path fill="none" stroke="#333333" stroke-miterlimit="10" d="M223.347,121.867c0,0-2.566-56.04-3.756-66.191"/>
					<path fill="#FFFFFF" stroke="#333333" stroke-miterlimit="10" d="M34.468,58.583c-0.25-6.5,1.75-20.25,5.75-24.75
						S75.517,14.789,71.61,18.008c-7.354,6.058-30.393,25.575-32.893,29.325S36.468,58.333,34.468,58.583z"/>
					<path fill="#FFFFFF" stroke="#333333" stroke-miterlimit="10" d="M219.509,58.583c0.25-6.5-1.75-20.25-5.75-24.75
						s-35.299-19.044-31.391-15.825c7.354,6.058,30.391,25.575,32.891,29.325S217.509,58.333,219.509,58.583z"/>
					<path fill="#9F9F9F" stroke="#333333" stroke-miterlimit="10" d="M127.222,84.375c31.932,0,71.975,2.498,88.729,21.685
						l0.109-0.708c0,0-1.678-51.278-3.684-61.023c-2.145-2.645-18.59-17.532-28.129-24.952c-0.561-0.459-1.135-0.905-1.74-1.327
						c-0.342-0.254-0.674-0.499-0.986-0.724h-0.109c-13.592-8.654-36.637-8.992-54.189-8.992c-17.551,0-40.598,0.338-54.189,8.992
						l0,0c-0.006,0.003-0.01,0.006-0.014,0.01c-1.311,0.834-2.537,1.742-3.656,2.738c-0.088,0.078-0.174,0.167-0.262,0.249
						c-9.654,7.67-24.869,21.47-26.925,24.006c-2.005,9.745-3.683,61.731-3.683,61.731h0.002
						C55.249,86.873,95.29,84.375,127.222,84.375z"/>
					<path fill="#7F7F7F" d="M127.276,83.667c29.203,0,65.049,3.433,84.469,17.679c2.037-3.471-12.557-68.75-25.453-79.998
						c-12.998-11.339-39.381-13.015-59.016-13.015s-46.018,1.676-59.018,13.015c-12.895,11.248-27.49,76.527-25.451,79.998
						C62.228,87.1,98.073,83.667,127.276,83.667z"/>
					<path fill="#A7A7A7" d="M127.276,83.667c28.631,0,63.773,2.016,82.812,16.262c1.998-3.471-12.311-68.607-24.953-79.855
						c-12.744-11.339-38.609-11.74-57.859-11.74s-45.115,0.401-57.861,11.74c-12.641,11.248-26.95,76.385-24.951,79.855
						C63.503,85.683,98.646,83.667,127.276,83.667z"/>
					<g opacity="0.9">
						
							<linearGradient id="SVGID_2_" gradientUnits="userSpaceOnUse" x1="1335.5361" y1="78.4438" x2="1335.5361" y2="25.0345" gradientTransform="matrix(-1 0 0 1 1462.7832 0)">
							<stop  offset="0" style="stop-color:#FBFBFB;stop-opacity:0"/>
							<stop  offset="0.3635" style="stop-color:#FBFBFB"/>
							<stop  offset="0.6426" style="stop-color:#FBFBFB;stop-opacity:0.7804"/>
							<stop  offset="1" style="stop-color:#FBFBFB;stop-opacity:0"/>
						</linearGradient>
						<path fill="url(#SVGID_2_)" d="M127.247,80.235c12.25,0,30.521,0.713,30.521,0.713s-3.934-18.011-0.209-18.96
							c9.355-2.385,42.977,9.359,42.977,9.359s-9.398-42.334-13.67-44.526s-41.488-6-59.619-6s-55.348,3.808-59.619,6
							s-13.67,44.526-13.67,44.526s33.914-11.496,43.262-9.076c3.666,0.949,0.074,18.677,0.074,18.677
							S114.997,80.235,127.247,80.235z"/>
					</g>
					<g>
						<g>
							<path d="M127.218,83.667c33,0,74.666,2.666,90.334,23.666c-0.668,24-6.002,61.999-6.668,65.333c-0.539,1.282-2.666,0-2.666,0
								s-18.666-12-81-12s-81,12-81,12s-2.127,1.282-2.666,0c-0.666-3.334-6-41.333-6.666-65.333
								C52.552,86.333,94.218,83.667,127.218,83.667z"/>
							<path d="M127.218,85.696c32.34,0,73.174,1.479,88.527,22.059c-0.654,23.521-5.881,59.343-6.535,62.61
								c-0.527,1.256-2.611,0-2.611,0s-18.293-11.76-79.381-11.76c-61.086,0-79.379,11.76-79.379,11.76s-2.086,1.256-2.613,0
								c-0.652-3.268-5.881-39.09-6.533-62.61C54.046,87.175,94.878,85.696,127.218,85.696z"/>
							<linearGradient id="SVGID_3_" gradientUnits="userSpaceOnUse" x1="43.1182" y1="127.2266" x2="211.3193" y2="127.2266">
								<stop  offset="0" style="stop-color:#636668;stop-opacity:0"/>
								<stop  offset="0.1426" style="stop-color:#636668"/>
								<stop  offset="0.834" style="stop-color:#636668"/>
								<stop  offset="1" style="stop-color:#636668;stop-opacity:0"/>
							</linearGradient>
							<path opacity="0.4" fill="url(#SVGID_3_)" d="M127.218,87.827c30.723,0,69.514,1.367,84.102,20.395
								c-0.621,21.747-5.588,54.868-6.209,57.889c-0.5,1.161-2.48,0-2.48,0s-17.379-10.872-75.412-10.872
								c-58.031,0-75.41,10.872-75.41,10.872s-1.98,1.161-2.482,0c-0.619-3.021-5.586-36.142-6.207-57.889
								C57.704,89.194,96.495,87.827,127.218,87.827z"/>
							<g>
								<defs>
									<path id="SVGID_4_" d="M127.218,85.696c32.34,0,73.174,1.479,88.527,22.059c-0.654,23.521-5.881,59.343-6.535,62.61
										c-0.527,1.256-2.611,0-2.611,0s-18.293-11.76-79.381-11.76c-61.086,0-79.379,11.76-79.379,11.76s-2.086,1.256-2.613,0
										c-0.652-3.268-5.881-39.09-6.533-62.61C54.046,87.175,94.878,85.696,127.218,85.696z"/>
								</defs>
								<clipPath id="SVGID_5_">
									<use xlink:href="#SVGID_4_"  overflow="visible"/>
								</clipPath>
								<g opacity="0.7" clip-path="url(#SVGID_5_)">
									<linearGradient id="SVGID_6_" gradientUnits="userSpaceOnUse" x1="100.959" y1="88.5713" x2="100.959" y2="157.1606">
										<stop  offset="0" style="stop-color:#FFFFFF;stop-opacity:0"/>
										<stop  offset="0.4796" style="stop-color:#FFFFFF"/>
										<stop  offset="0.7347" style="stop-color:#FFFFFF"/>
										<stop  offset="1" style="stop-color:#FFFFFF;stop-opacity:0"/>
									</linearGradient>
									<rect x="94.333" y="78.468" fill="url(#SVGID_6_)" width="13.252" height="89.792"/>
									<linearGradient id="SVGID_7_" gradientUnits="userSpaceOnUse" x1="113.4209" y1="88.5713" x2="113.4209" y2="157.1606">
										<stop  offset="0" style="stop-color:#FFFFFF;stop-opacity:0"/>
										<stop  offset="0.4796" style="stop-color:#FFFFFF"/>
										<stop  offset="0.7347" style="stop-color:#FFFFFF"/>
										<stop  offset="1" style="stop-color:#FFFFFF;stop-opacity:0"/>
									</linearGradient>
									<rect x="111.278" y="78.468" fill="url(#SVGID_7_)" width="4.285" height="89.792"/>
								</g>
							</g>
						</g>
						<g>
							<path d="M86.173,94.342c0,0,0.975-0.273,2.73-0.632c0.877-0.188,1.943-0.408,3.166-0.613
								c1.225-0.214,2.604-0.472,4.117-0.696c1.516-0.192,3.158-0.401,4.895-0.623c1.738-0.234,3.576-0.405,5.482-0.538
								c1.904-0.145,3.871-0.295,5.871-0.446c2.004-0.069,4.039-0.138,6.074-0.208c2.037-0.035,4.072-0.126,6.076-0.111
								c2.004,0.018,3.975,0.086,5.883,0.124c1.906,0.056,3.75,0.11,5.498,0.162c1.746,0.071,3.395,0.241,4.916,0.356
								c3.041,0.24,5.57,0.514,7.342,0.671c1.77,0.175,2.779,0.297,2.779,0.297l-0.068,0.998c0,0-1.018,0.025-2.791,0.028
								c-1.773-0.013-4.307,0.018-7.34-0.034c-1.518-0.009-3.16-0.067-4.896-0.067c-1.736,0.021-3.568,0.041-5.463,0.063
								c-1.895,0.005-3.852,0.036-5.84,0.019c-1.986,0.004-4.004,0.116-6.021,0.168c-2.02,0.049-4.037,0.098-6.023,0.146
								c-1.984,0.102-3.936,0.202-5.826,0.299c-1.891,0.093-3.719,0.159-5.447,0.311c-1.73,0.117-3.367,0.229-4.879,0.331
								c-1.508,0.131-2.891,0.251-4.115,0.356c-1.232,0.09-2.293,0.21-3.166,0.312c-0.875,0.109-1.566,0.148-2.039,0.22
								c-0.473,0.059-0.727,0.09-0.727,0.09L86.173,94.342z"/>
							<path d="M67.022,93.295c0.135,2.155,1.666,1.505,19.244,0.126c7.203-0.564,17.102-0.662,30.701-1.664
								C70.179,91.218,66.944,92.053,67.022,93.295z"/>
							<path d="M121.468,92.897v-2.385c0,0-8.496,0.24-10.246,0.373v2.588L121.468,92.897z"/>
						</g>
						<g>
							<path d="M151.257,91.486c0,0,1.012-0.02,2.803,0.075c0.895,0.039,1.982,0.094,3.217,0.203
								c1.24,0.101,2.641,0.199,4.162,0.361c1.516,0.195,3.156,0.406,4.893,0.629c1.742,0.21,3.562,0.508,5.441,0.857
								c1.879,0.34,3.82,0.689,5.795,1.045c1.957,0.438,3.943,0.883,5.932,1.327c1.979,0.478,3.971,0.902,5.908,1.421
								c1.934,0.521,3.826,1.082,5.662,1.6c1.832,0.533,3.602,1.051,5.279,1.54c1.674,0.509,3.225,1.087,4.668,1.581
								c2.885,0.998,5.264,1.899,6.938,2.496c1.67,0.614,2.615,0.987,2.615,0.987l-0.316,0.948c0,0-0.99-0.231-2.707-0.674
								c-1.715-0.459-4.176-1.066-7.098-1.88c-1.467-0.391-3.039-0.86-4.721-1.297c-1.686-0.417-3.465-0.858-5.305-1.313
								c-1.834-0.473-3.734-0.934-5.654-1.451c-1.926-0.495-3.906-0.895-5.871-1.352c-1.967-0.461-3.932-0.92-5.867-1.373
								c-1.945-0.4-3.859-0.795-5.713-1.176c-1.854-0.387-3.641-0.782-5.35-1.07c-1.705-0.322-3.318-0.627-4.807-0.907
								c-1.492-0.253-2.861-0.484-4.074-0.689c-1.213-0.224-2.27-0.374-3.143-0.494c-0.873-0.114-1.553-0.251-2.027-0.301
								c-0.473-0.062-0.727-0.096-0.727-0.096L151.257,91.486z"/>
							<path d="M132.661,87.54c-0.283,2.141,1.346,1.8,18.857,3.842c7.178,0.838,16.908,2.654,30.445,4.299
								C136.161,86.112,132.825,86.308,132.661,87.54z"/>
							<path d="M185.78,98.968l0.6-2.309c0,0-8.283-1.906-10.01-2.217l-0.65,2.506L185.78,98.968z"/>
						</g>
					</g>
					<g>
						<g>
							<path fill="#BBBBBB" stroke="#666666" stroke-miterlimit="10" d="M48.968,88.583c1-3.945,4.75-13.75,6.75-15.5
								s38.379-11.889,40.5-9.5s0.4,15.208-0.85,16.708c-0.674,0.811-12.025,1.754-23.457,4.431
								C62.179,87,53.003,90.939,51.968,91.399C49.718,92.399,48.403,90.813,48.968,88.583z"/>
							<linearGradient id="SVGID_8_" gradientUnits="userSpaceOnUse" x1="72.8989" y1="70.8257" x2="73.399" y2="78.3264">
								<stop  offset="0" style="stop-color:#323232"/>
								<stop  offset="1" style="stop-color:#141414"/>
							</linearGradient>
							<path fill="url(#SVGID_8_)" stroke="#000000" stroke-miterlimit="10" d="M52.653,85.843
								c0.881-3.128,2.578-9.771,4.342-11.158c1.764-1.389,34.586-10.705,36.457-8.811c1.869,1.895,0.352,10.904-0.75,12.094
								c-0.596,0.643-10.607,1.815-20.689,3.938c-8.586,1.808-16.68,5.215-17.592,5.58C52.435,88.279,52.155,87.612,52.653,85.843z"
								/>
						</g>
						<g>
							<g>
								<line fill="none" stroke="#111111" stroke-miterlimit="10" x1="54.097" y1="88.151" x2="58.034" y2="74.744"/>
								<line fill="none" stroke="#111111" stroke-miterlimit="10" x1="56.601" y1="87.237" x2="60.54" y2="73.829"/>
								<line fill="none" stroke="#111111" stroke-miterlimit="10" x1="59.009" y1="86.388" x2="62.948" y2="72.979"/>
								<line fill="none" stroke="#111111" stroke-miterlimit="10" x1="61.702" y1="85.253" x2="65.356" y2="72.128"/>
								<line fill="none" stroke="#111111" stroke-miterlimit="10" x1="64.394" y1="84.262" x2="67.767" y2="71.421"/>
								<line fill="none" stroke="#111111" stroke-miterlimit="10" x1="66.944" y1="83.695" x2="70.317" y2="70.571"/>
								<line fill="none" stroke="#111111" stroke-miterlimit="10" x1="69.354" y1="83.271" x2="73.009" y2="69.862"/>
								<line fill="none" stroke="#111111" stroke-miterlimit="10" x1="72.188" y1="82.421" x2="75.136" y2="69.438"/>
								<line fill="none" stroke="#111111" stroke-miterlimit="10" x1="74.739" y1="81.996" x2="77.12" y2="69.013"/>
								<line fill="none" stroke="#111111" stroke-miterlimit="10" x1="77.431" y1="81.288" x2="79.104" y2="68.729"/>
								<line fill="none" stroke="#111111" stroke-miterlimit="10" x1="92.638" y1="66.128" x2="92.272" y2="78.468"/>
								<line fill="none" stroke="#111111" stroke-miterlimit="10" x1="90.796" y1="66.128" x2="90.007" y2="78.894"/>
								<line fill="none" stroke="#111111" stroke-miterlimit="10" x1="88.671" y1="66.128" x2="87.882" y2="79.317"/>
								<line fill="none" stroke="#111111" stroke-miterlimit="10" x1="86.405" y1="66.978" x2="85.474" y2="79.601"/>
								<line fill="none" stroke="#111111" stroke-miterlimit="10" x1="83.995" y1="67.545" x2="82.78" y2="80.311"/>
								<line fill="none" stroke="#111111" stroke-miterlimit="10" x1="81.444" y1="67.97" x2="80.229" y2="80.735"/>
							</g>
							<path fill="none" stroke="#111111" stroke-miterlimit="10" d="M52.79,86.343c0.883-3.128,2.58-9.771,4.344-11.158
								c1.764-1.389,34.584-10.705,36.455-8.811s0.354,10.904-0.75,12.094c-0.594,0.643-10.607,1.815-20.689,3.938
								c-8.584,1.808-16.678,5.215-17.592,5.58C52.573,88.779,52.292,88.112,52.79,86.343z"/>
						</g>
					</g>
					<g>
						<g>
							<path fill="#BBBBBB" stroke="#666666" stroke-miterlimit="10" d="M206.091,88.583c-1-3.945-4.75-13.75-6.75-15.5
								s-38.379-11.889-40.5-9.5s-0.4,14.642,0.85,16.142c0.674,0.811,12.025,1.754,23.457,4.431
								c9.732,2.278,18.908,6.218,19.943,6.678C205.341,91.833,206.655,90.813,206.091,88.583z"/>
							<path fill="#1E1E1E" stroke="#000000" stroke-miterlimit="10" d="M202.405,85.843c-0.881-3.128-2.578-9.771-4.342-11.158
								c-1.764-1.389-34.586-10.705-36.457-8.811c-1.869,1.895-0.352,10.904,0.75,12.094c0.596,0.643,10.607,1.815,20.689,3.938
								c8.586,1.808,16.68,5.215,17.592,5.58C202.624,88.279,202.903,87.612,202.405,85.843z"/>
						</g>
						<g>
							<line fill="none" stroke="#000000" stroke-miterlimit="10" x1="201.101" y1="87.651" x2="197.161" y2="74.244"/>
							<line fill="none" stroke="#000000" stroke-miterlimit="10" x1="198.595" y1="86.737" x2="194.657" y2="73.329"/>
							<line fill="none" stroke="#000000" stroke-miterlimit="10" x1="196.187" y1="85.888" x2="192.249" y2="72.479"/>
							<line fill="none" stroke="#000000" stroke-miterlimit="10" x1="193.495" y1="84.753" x2="189.839" y2="71.628"/>
							<line fill="none" stroke="#000000" stroke-miterlimit="10" x1="190.802" y1="83.762" x2="187.431" y2="70.921"/>
							<line fill="none" stroke="#000000" stroke-miterlimit="10" x1="188.251" y1="83.195" x2="184.88" y2="70.071"/>
							<line fill="none" stroke="#000000" stroke-miterlimit="10" x1="185.843" y1="82.771" x2="182.187" y2="69.362"/>
							<line fill="none" stroke="#000000" stroke-miterlimit="10" x1="183.009" y1="81.921" x2="180.062" y2="68.938"/>
							<line fill="none" stroke="#000000" stroke-miterlimit="10" x1="180.458" y1="81.496" x2="178.077" y2="68.513"/>
							<line fill="none" stroke="#000000" stroke-miterlimit="10" x1="177.765" y1="80.788" x2="176.093" y2="68.229"/>
							<line fill="none" stroke="#000000" stroke-miterlimit="10" x1="162.558" y1="65.628" x2="162.923" y2="77.968"/>
							<line fill="none" stroke="#000000" stroke-miterlimit="10" x1="164.399" y1="65.628" x2="165.19" y2="78.394"/>
							<line fill="none" stroke="#000000" stroke-miterlimit="10" x1="166.524" y1="65.628" x2="167.315" y2="78.817"/>
							<line fill="none" stroke="#000000" stroke-miterlimit="10" x1="168.792" y1="66.478" x2="169.724" y2="79.101"/>
							<line fill="none" stroke="#000000" stroke-miterlimit="10" x1="171.2" y1="67.045" x2="172.417" y2="79.811"/>
							<line fill="none" stroke="#000000" stroke-miterlimit="10" x1="173.751" y1="67.47" x2="174.968" y2="80.235"/>
						</g>
					</g>
					<g>
						<path fill="#DFDFDF" d="M185.138,20.073c-12.746-11.339-38.611-11.74-57.861-11.74s-45.115,0.401-57.859,11.74
							c-0.793,0.706-1.594,1.624-2.395,2.726c2.609,1.751,28.584-5.042,60.254-4.714c31.672-0.328,57.648,6.467,60.254,4.713
							C186.729,21.697,185.931,20.779,185.138,20.073z"/>
						<path fill="#191919" stroke="#000000" stroke-miterlimit="10" d="M181.677,17.547c0.004-0.013,0.006-0.027,0.01-0.04
							c-13.555-8.828-36.793-9.174-54.465-9.174c-17.631,0-40.805,0.343-54.371,9.112c0.01,0.033,0.016,0.068,0.025,0.102
							c-3.82,4.286,22.014-3.547,54.4-3.214C159.663,14,185.495,21.833,181.677,17.547z"/>
						<g>
							<path fill="none" stroke="#333333" stroke-miterlimit="10" d="M78.13,16.589c0,0,20.205-5.756,49.146-5.756
								s48.791,5.756,48.791,5.756"/>
							<line fill="none" stroke="#333333" stroke-miterlimit="10" x1="78.13" y1="18.539" x2="78.13" y2="14.64"/>
							<line fill="none" stroke="#333333" stroke-miterlimit="10" x1="175.903" y1="18.539" x2="176.044" y2="14.64"/>
						</g>
						<path fill="none" stroke="#000000" stroke-miterlimit="10" d="M181.677,17.547c0.004-0.013,0.006-0.027,0.01-0.04
							c-13.555-8.828-36.793-9.174-54.465-9.174c-17.631,0-40.805,0.343-54.371,9.112c0.01,0.033,0.016,0.068,0.025,0.102
							c-3.82,4.286,22.014-3.547,54.4-3.214C159.663,14,185.495,21.833,181.677,17.547z"/>
						<ellipse fill="#D0D0D0" stroke="#000000" stroke-miterlimit="10" cx="127.276" cy="10.833" rx="5.25" ry="1.5"/>
					</g>
					<g>
						<path d="M38.718,235.833c1.001-2.291,1.102-5.5,1.102-5.5s1.258-44.5,1.258-52s-6.402-65.167-9.234-65.334
							c-1.334,1.334-1.294,21.418-1.294,21.418s1.503,88.927,1.503,95.298C32.052,231.999,37.472,238.689,38.718,235.833z"/>
						<path fill="#171D23" d="M37.78,233.16c0.686-2.138,0.756-5.272,0.756-5.272s0.861-41.514,0.861-48.511
							s-5.241-62.495-7.184-62.65c-0.914,1.244-0.036,21.681-0.036,21.681s1.03,84.094,1.03,90.037
							C33.208,230.575,36.925,235.825,37.78,233.16z"/>
						<polygon points="39.396,180.168 33.743,175.596 33.743,171.783 39.243,176.259 						"/>
					</g>
					<g>
						<path d="M215.78,235.833c-1.002-2.291-1.102-5.5-1.102-5.5s-1.258-44.5-1.258-52s6.402-65.167,9.234-65.334
							c1.334,1.334,1.293,21.418,1.293,21.418s-1.502,88.927-1.502,95.298C222.446,231.999,217.026,238.689,215.78,235.833z"/>
						<path fill="#171D23" d="M216.718,233.16c-0.686-2.138-0.756-5.272-0.756-5.272s-0.861-41.514-0.861-48.511
							s5.24-62.495,7.184-62.65c0.914,1.244,0.035,21.681,0.035,21.681s-1.029,84.094-1.029,90.037
							C221.29,230.575,217.573,235.825,216.718,233.16z"/>
						<polygon points="215.103,180.168 220.755,175.596 220.755,171.783 215.255,176.259 						"/>
					</g>
					<g>
						<path d="M7.185,145.458c0,0-1.816-2.259-0.144-4.476c2.753-3.649,17.052-7.649,19.146-5.5l0.021,4.686L7.185,145.458z"/>
						<path fill="#0C0C0C" d="M32.343,132.458c3.479-0.387,5.709,9.458,4.543,16.083c-1.168,5-3.293-6.333-7.668-6.333
							c-8.125,0-15.5,2.375-20.375,5.25c-1.5-0.25-1.375-2-1.375-2s1.719-3.125,18.719-6.125v-3.851
							C30.468,135.357,31.78,132.531,32.343,132.458z"/>
						<path fill="#BCEAFF" d="M8.843,147.458c0,0,0.306,1.494,9.25-0.875c8.945-2.369,8.094-4.266,8.094-4.266
							S18.593,142.208,8.843,147.458z"/>
					</g>
					<path fill="#CBCBCB" d="M44.276,45.905c1.275-2,13.42-13.473,18.533-18.166c-9.424,15.833-17.758,43.833-21.732,72.189
						L44.276,45.905z"/>
					<path fill="#CBCBCB" d="M210.288,45.905c-1.275-2-13.42-13.473-18.533-18.166c9.424,15.833,17.758,43.833,21.732,72.189
						L210.288,45.905z"/>
					<g>
						<path d="M246.923,145.458c0,0,1.816-2.259,0.145-4.476c-2.754-3.649-17.053-7.649-19.146-5.5l-0.021,4.686L246.923,145.458z"
							/>
						<path fill="#0C0C0C" d="M221.765,132.458c-3.479-0.387-5.709,9.458-4.543,16.083c1.168,5,3.293-6.333,7.668-6.333
							c8.125,0,15.5,2.375,20.375,5.25c1.5-0.25,1.375-2,1.375-2s-1.719-3.125-18.719-6.125v-3.851
							C223.64,135.357,222.327,132.531,221.765,132.458z"/>
						<path fill="#BCEAFF" d="M245.265,147.458c0,0-0.305,1.494-9.25-0.875s-8.094-4.266-8.094-4.266
							S235.515,142.208,245.265,147.458z"/>
					</g>
				</g>
				<g>
					<path fill="#7A7A7A" d="M127.144,176.329c12.576,0,25.73,0.932,37.883,2.471c0-0.036,0-8.988,0-13.479
						c-5.75-0.75-16.25-1.5-37.9-1.5s-32.15,0.75-37.9,1.5c0,4.5,0,13.482,0,13.482h0.002
						C101.39,177.262,114.556,176.329,127.144,176.329z"/>
					<path fill="#A9A9A9" d="M89.226,165.321c0,0,26.992,1.584,37.992,1.584c10.334,0,37.809-1.584,37.809-1.584
						c-5.75-0.75-16.25-1.5-37.9-1.5S94.976,164.571,89.226,165.321z"/>
					<path fill="#232323" d="M89.226,165.321l2.326,9.991c0,0,17.291-2.076,35.35-2.076s35.816,1.528,35.816,1.528l2.309-9.443
						l0.021,13.482c0,0-22.18-2.475-37.92-2.475s-37.902,2.575-37.902,2.575V165.321z"/>
				</g>
				<linearGradient id="SVGID_9_" gradientUnits="userSpaceOnUse" x1="127.1274" y1="252.4053" x2="127.1274" y2="170.7138">
					<stop  offset="0" style="stop-color:#D7D7D7"/>
					<stop  offset="0.3305" style="stop-color:#B6B6B6"/>
					<stop  offset="1" style="stop-color:#636162"/>
				</linearGradient>
				<path fill="url(#SVGID_9_)" stroke="#232323" stroke-miterlimit="10" d="M127.128,258.58l82.859,0.003
					c0,0,0.891-68.421-2.443-69.85c-14.008-6.607-49.016-12.404-80.416-12.404s-66.408,5.797-80.418,12.404
					c-3.332,1.429-2.441,69.85-2.441,69.85L127.128,258.58"/>
				<linearGradient id="SVGID_10_" gradientUnits="userSpaceOnUse" x1="127.1265" y1="255.0713" x2="127.1265" y2="189.3137">
					<stop  offset="0" style="stop-color:#FBFBFB;stop-opacity:0"/>
					<stop  offset="0.3635" style="stop-color:#FBFBFB"/>
					<stop  offset="0.6426" style="stop-color:#FBFBFB;stop-opacity:0.7804"/>
					<stop  offset="1" style="stop-color:#FBFBFB;stop-opacity:0"/>
				</linearGradient>
				<path opacity="0.8" fill="url(#SVGID_10_)" d="M127.126,258.151l74.574,0.003c0,0,0.801-61.579-2.197-62.864
					c-12.609-5.947-44.115-11.164-72.377-11.164c-28.26,0-59.766,5.217-72.375,11.164c-3,1.285-2.197,62.864-2.197,62.864
					L127.126,258.151"/>
				<g>
					<path fill-rule="evenodd" clip-rule="evenodd" d="M109.849,233.308c-0.707-2.525-0.816-5.062-0.309-7.62
						c1.721-8.642,9.27-14.579,18.135-14.267c8.498,0.301,15.627,6.87,16.752,15.443c1.307,9.932-6.092,19.078-16.082,19.832
						c-4.271,0.322-8.348-0.389-12.012-2.742c-2.543-1.632-4.402-3.821-5.09-6.843c-1.131-4.958,2.873-11.817,10.389-10.221
						c3.084,0.654,5.281,3.485,5.307,6.621c0.025,3.116-2.059,5.919-4.971,6.671c-0.932,0.24-1.869,0.301-2.869-0.049
						c1.023-0.92,1.459-2.016,1.283-3.316c-0.25-1.882-1.961-3.285-3.854-3.197c-1.84,0.084-3.494,1.809-3.592,3.776
						c-0.107,2.163,0.895,3.807,2.605,4.979c6.021,4.133,14.16,1.17,16.068-5.771c1.178-4.286,0.344-8.125-3.027-11.143
						c-3.316-2.968-7.203-3.904-11.406-2.229c-4.225,1.684-6.666,4.891-7.246,9.447C109.905,232.89,109.876,233.099,109.849,233.308
						z"/>
					<g>
						<path fill-rule="evenodd" clip-rule="evenodd" d="M109.839,198.454c0,2.448,0,4.766,0,7.143c-0.775,0-1.496,0-2.254,0
							c0-5.924,0-11.831,0-17.774c0.748,0,1.457,0,2.201,0c0.021,0.43,0.043,0.827,0.068,1.345c1.586-1.494,3.369-2.033,5.406-1.646
							c1.559,0.296,2.844,1.061,3.826,2.311c1.979,2.521,1.723,6.258-0.518,8.544C116.796,200.187,112.868,201.296,109.839,198.454z
							 M109.778,193.782c-0.012,2.329,1.846,4.25,4.131,4.271c2.268,0.021,4.174-1.9,4.188-4.219
							c0.01-2.317-1.869-4.262-4.137-4.273C111.685,189.548,109.79,191.462,109.778,193.782z"/>
						<path fill-rule="evenodd" clip-rule="evenodd" d="M124.784,198.413c-0.025,0.564-0.045,0.965-0.066,1.402
							c-0.736,0-1.441,0-2.188,0c0-4.008,0-7.98,0-11.99c0.729,0,1.416,0,2.18,0c0.021,0.395,0.043,0.791,0.072,1.335
							c1.756-1.618,3.711-2.108,5.908-1.525c1.418,0.376,2.57,1.157,3.441,2.34c1.77,2.401,1.619,5.889-0.355,8.101
							c-1.176,1.316-2.658,2.009-4.414,2.115C127.628,200.296,126.118,199.753,124.784,198.413z M124.708,193.78
							c-0.02,2.315,1.854,4.252,4.133,4.273c2.273,0.02,4.168-1.887,4.188-4.215c0.021-2.316-1.855-4.258-4.129-4.277
							C126.634,189.543,124.728,191.462,124.708,193.78z"/>
						<path fill-rule="evenodd" clip-rule="evenodd" d="M148.784,193.815c-0.008-3.622,2.781-6.414,6.408-6.417
							c3.633-0.002,6.428,2.776,6.43,6.396c0.004,3.632-2.762,6.398-6.41,6.41C151.579,200.216,148.79,197.446,148.784,193.815z
							 M155.222,189.562c-2.273-0.007-4.174,1.909-4.191,4.226c-0.014,2.309,1.873,4.247,4.15,4.263
							c2.27,0.017,4.18-1.912,4.188-4.223C159.376,191.517,157.483,189.57,155.222,189.562z"/>
						<path fill-rule="evenodd" clip-rule="evenodd" d="M105.415,193.85c-0.014,3.616-2.826,6.38-6.465,6.354
							c-3.643-0.025-6.398-2.811-6.375-6.443c0.02-3.62,2.82-6.374,6.465-6.362C102.657,187.411,105.429,190.215,105.415,193.85z
							 M98.999,189.562c-2.266-0.004-4.168,1.929-4.17,4.24c-0.004,2.315,1.889,4.246,4.16,4.248s4.174-1.929,4.176-4.237
							C103.167,191.506,101.265,189.565,98.999,189.562z"/>
						<path fill-rule="evenodd" clip-rule="evenodd" d="M137.479,190.81c-0.359-0.674-0.697-1.305-1.027-1.928
							c1.787-2.023,5.992-1.979,8.326,0.066c2.615,2.295,2.898,6.432,0.619,9.062c-2.215,2.559-6.381,2.931-8.973,0.734
							c0.342-0.64,0.691-1.299,1.045-1.963c2.455,1.693,4.586,1.615,6.156-0.193c1.42-1.633,1.387-4.041-0.076-5.67
							C141.979,189.169,139.854,189.114,137.479,190.81z"/>
					</g>
				</g>
				<path fill-rule="evenodd" clip-rule="evenodd" fill="#0F0F0F" stroke="#1E1E1E" stroke-miterlimit="10" d="M165.21,258.581
					c0,0-3.742-5.01-6.242-5.01s-31.75,0-31.75,0s-29.25,0-31.75,0s-6.242,5.01-6.242,5.01H165.21z"/>
				<path fill="#232323" d="M94.718,163.821"/>
				<g>
					<linearGradient id="SVGID_11_" gradientUnits="userSpaceOnUse" x1="65.9346" y1="178.7383" x2="65.9346" y2="166.0669">
						<stop  offset="0" style="stop-color:#A9A9A9"/>
						<stop  offset="1" style="stop-color:#A9A9A9;stop-opacity:0"/>
					</linearGradient>
					<path fill="url(#SVGID_11_)" d="M44.585,187.062v-12.033c6.133-3.246,26.16-9.068,42.418-10.134l0.281,11.859
						C87.284,176.755,59.718,180.168,44.585,187.062z"/>
					<linearGradient id="SVGID_12_" gradientUnits="userSpaceOnUse" x1="188.252" y1="178.7383" x2="188.252" y2="166.0669">
						<stop  offset="0" style="stop-color:#A9A9A9"/>
						<stop  offset="1" style="stop-color:#A9A9A9;stop-opacity:0"/>
					</linearGradient>
					<path fill="url(#SVGID_12_)" d="M209.603,187.062v-12.033c-6.135-3.246-26.16-9.068-42.418-10.134l-0.283,11.859
						C166.901,176.755,194.468,180.168,209.603,187.062z"/>
				</g>
				<path fill="#6D6D6D" d="M39.397,49.237c0,0-3.656,54.5-3.584,62.667c0.071,8.167-2.749,0-2.749,0l2.533-52.167
					C37.386,58.571,39.397,49.237,39.397,49.237z"/>
				<path fill="#6D6D6D" d="M214.763,49.237c0,0,3.656,54.5,3.586,62.667c-0.072,8.167,2.748,0,2.748,0l-2.533-52.167
					C216.776,58.571,214.763,49.237,214.763,49.237z"/>
			</g>
			<g>
				<path fill="#212121" d="M127.187,6.333c61.275,0,80.467,16.5,88.693,22.835c7.947,6.122,11.297,72.012,11.602,106.284
					c0.146,0.011,0.287,0.025,0.439,0.03c0.408-0.419,1.279-0.604,2.438-0.604c4.79,0,14.491,3.166,16.708,6.104
					c1.672,2.217-0.145,4.476-0.145,4.476l-0.355-0.099c0.051,0.063,0.072,0.099,0.072,0.099s-0.937,1.949-5.137,1.949
					c-1.424,0-3.223-0.224-5.488-0.824c-8.926-2.363-8.098-4.257-8.094-4.266c-0.146-0.01-0.297-0.016-0.443-0.024
					c-0.264,5.447-1.574,7.54-1.574,7.54l0.75,108.75H27.718l0.75-108.75c0,0-1.312-2.097-1.573-7.555
					c-0.235,0.014-0.474,0.022-0.708,0.039c0.004,0.009,0.832,1.902-8.094,4.266c-2.265,0.6-4.063,0.824-5.487,0.824
					c-4.2,0-5.138-1.949-5.138-1.949s0.021-0.035,0.072-0.099l-0.355,0.099c0,0-1.816-2.259-0.144-4.476
					c2.217-2.938,11.918-6.104,16.708-6.104c1.159,0,2.03,0.185,2.438,0.604c0.244-0.007,0.478-0.025,0.703-0.05
					c0.307-34.276,3.656-100.144,11.604-106.265C46.718,22.833,65.911,6.333,127.187,6.333 M127.187,0.333
					c-61.349,0-82.505,16.433-91.54,23.45l-0.815,0.631c-3.278,2.525-5.41,7.74-7.356,18.001
					c-1.376,7.255-2.597,16.947-3.627,28.807c-1.722,19.826-2.59,41.816-2.874,57.865c-5.987,0.792-15.34,3.796-18.724,8.282
					c-3.083,4.086-2.028,9.006,0.258,11.849l2.475,3.078l1.126-0.312c1.68,0.858,3.837,1.424,6.496,1.424
					c2.096,0,4.459-0.344,7.023-1.024c1.015-0.269,1.956-0.542,2.827-0.82l-0.738,106.979l-0.042,6.042h6.042h198.936h6.042
					l-0.042-6.042l-0.737-106.895c0.796,0.25,1.649,0.495,2.563,0.737c2.564,0.679,4.928,1.023,7.023,1.023
					c2.659,0,4.815-0.565,6.495-1.424l1.126,0.312l2.475-3.078c2.285-2.842,3.341-7.762,0.259-11.848
					c-3.336-4.421-12.466-7.402-18.461-8.246c-0.283-16.048-1.15-38.049-2.873-57.889c-1.03-11.863-2.25-21.557-3.626-28.814
					c-1.946-10.263-4.078-15.479-7.356-18.005l-0.818-0.634C209.688,16.765,188.529,0.333,127.187,0.333L127.187,0.333z"/>
			</g>
		</g>
		<path fill-rule="evenodd" clip-rule="evenodd" fill="none" stroke="#3F3F3F" stroke-width="3" stroke-miterlimit="10" d="
			M42.218,253.571"/>
		<g>
			<g>
				<g>
					<linearGradient id="SVGID_13_" gradientUnits="userSpaceOnUse" x1="127.2188" y1="267.7676" x2="127.2187" y2="470.2462">
						<stop  offset="0" style="stop-color:#DF0000"/>
						<stop  offset="1" style="stop-color:#A00404"/>
					</linearGradient>
					<path fill-rule="evenodd" clip-rule="evenodd" fill="url(#SVGID_13_)" d="M232.007,489.609c0,2.2-1.8,4-4,4H26.431
						c-2.2,0-4-1.8-4-4V263.575c0-2.2,1.8-4,4-4h201.576c2.2,0,4,1.8,4,4V489.609z"/>
					<path fill="none" stroke="#6D0000" stroke-width="3" stroke-miterlimit="10" d="M232.007,489.609c0,2.2-1.8,4-4,4H26.431
						c-2.2,0-4-1.8-4-4V263.575c0-2.2,1.8-4,4-4h201.576c2.2,0,4,1.8,4,4V489.609z"/>
				</g>
				<g>
					<path fill-rule="evenodd" clip-rule="evenodd" fill="#700000" d="M207.374,366.522c0,1.1-0.9,2-2,2H49.06c-1.1,0-2-0.9-2-2
						v-77.541c0-1.1,0.9-2,2-2h156.314c1.1,0,2,0.9,2,2V366.522z"/>
				</g>
				<g>
					<linearGradient id="SVGID_14_" gradientUnits="userSpaceOnUse" x1="127.2168" y1="290.7383" x2="127.2168" y2="351.9741">
						<stop  offset="0" style="stop-color:#DF0000"/>
						<stop  offset="1" style="stop-color:#A00404"/>
					</linearGradient>
					<path fill-rule="evenodd" clip-rule="evenodd" fill="url(#SVGID_14_)" d="M203.124,361.112c0,1.1-0.9,2-2,2H53.31
						c-1.1,0-2-0.9-2-2v-72.674c0-1.1,0.9-2,2-2h147.814c1.1,0,2,0.9,2,2V361.112z"/>
					<path fill="none" stroke="#A80000" stroke-width="3" stroke-miterlimit="10" d="M203.124,361.112c0,1.1-0.9,2-2,2H53.31
						c-1.1,0-2-0.9-2-2v-72.674c0-1.1,0.9-2,2-2h147.814c1.1,0,2,0.9,2,2V361.112z"/>
				</g>
				<g>
					<g>
						<linearGradient id="SVGID_15_" gradientUnits="userSpaceOnUse" x1="127.2178" y1="346.0825" x2="127.2178" y2="387.3529">
							<stop  offset="0" style="stop-color:#DF0000"/>
							<stop  offset="1" style="stop-color:#A00404"/>
						</linearGradient>
						<path fill-rule="evenodd" clip-rule="evenodd" fill="url(#SVGID_15_)" d="M195.534,359.412c0,1.1-0.9,2-2,2H60.901
							c-1.1,0-2-0.9-2-2v-69.273c0-1.1,0.9-2,2-2h132.633c1.1,0,2,0.9,2,2V359.412z"/>
					</g>
					<path opacity="0.4" fill-rule="evenodd" clip-rule="evenodd" fill="#FFFFFF" d="M61.409,355.583
						c0.006-2.011,0.143-59.62,0.143-59.62s-1.012-4.225,4-4.225c6.666,0,120.684-0.359,125.334,0
						c-4.334,0.859-119.668-0.002-125,4.666C60.552,301.072,62.386,352.405,61.409,355.583z"/>
				</g>
				<g>
					<linearGradient id="SVGID_16_" gradientUnits="userSpaceOnUse" x1="127.2402" y1="346.8213" x2="127.2402" y2="358.6376">
						<stop  offset="0" style="stop-color:#DF0000"/>
						<stop  offset="1" style="stop-color:#A00404"/>
					</linearGradient>
					<path fill-rule="evenodd" clip-rule="evenodd" fill="url(#SVGID_16_)" d="M192.718,355.821c0,1.65-1.35,3-3,3H64.763
						c-1.65,0-3-1.35-3-3v-6.254c0-1.65,1.35-3,3-3h124.955c1.65,0,3,1.35,3,3V355.821z"/>
				</g>
			</g>
			<g opacity="0.3">
				<path fill-rule="evenodd" clip-rule="evenodd" fill="#FFFFFF" d="M31.798,476.604c3.08-3,7.6-194.032,7.6-200.532
					s-8.849-7.5-8.849-7.5L31.798,476.604z"/>
				<path fill-rule="evenodd" clip-rule="evenodd" fill="#FFFFFF" d="M222.286,476.604c-3.08-3-7.6-194.032-7.6-200.532
					s8.85-7.5,8.85-7.5L222.286,476.604z"/>
			</g>
			<g>
				<linearGradient id="SVGID_17_" gradientUnits="userSpaceOnUse" x1="127.0425" y1="270.3213" x2="127.0425" y2="275.0779">
					<stop  offset="0" style="stop-color:#700000;stop-opacity:0"/>
					<stop  offset="1" style="stop-color:#700000"/>
				</linearGradient>
				<path opacity="0.5" fill-rule="evenodd" clip-rule="evenodd" fill="url(#SVGID_17_)" d="M39.397,276.071
					c0,0.16-0.003,0.501-0.008,1h175.305c-0.006-0.499-0.008-0.84-0.008-1c0-6.5,8.85-7.5,8.85-7.5H30.549
					C30.549,268.571,39.397,269.571,39.397,276.071z"/>
			</g>
			<g>
				<path fill-rule="evenodd" clip-rule="evenodd" fill="#870000" d="M24.638,490.636c-1.214,0-2.207-1.8-2.207-4V262.58
					c0-2.2,1.8-4,4-4h201.576c2.2,0,4,1.8,4,4v224.056c0,2.2-1.008,4-2.24,4s-2.24-1.8-2.24-4V268.472c0-2.2-1.8-4-4-4H30.845
					c-2.2,0-4,1.8-4,4v218.164C26.845,488.836,25.852,490.636,24.638,490.636z"/>
			</g>
			<g>
				<path fill="none" stroke="#490000" stroke-width="6" stroke-miterlimit="10" d="M232.007,489.609c0,2.2-1.8,4-4,4H26.431
					c-2.2,0-4-1.8-4-4V263.575c0-2.2,1.8-4,4-4h201.576c2.2,0,4,1.8,4,4V489.609z"/>
			</g>
		</g>
	</g>
</g>
</svg>
