<!DOCTYPE svg PUBLIC '-//W3C//DTD SVG 1.1//EN' 'http://www.w3.org/Graphics/SVG/1.1/DTD/svg11.dtd'>
<svg xmlns="http://www.w3.org/2000/svg" xml:space="preserve" version="1.1" xmlns:xlink="http://www.w3.org/1999/xlink" viewBox="0 0 687.991 738.642" enable-background="new 0 0 687.991 738.642">
		<linearGradient id="i" y2="166.27" gradientUnits="userSpaceOnUse" y1="166.27" x2="666.79" x1="66.79">
			<stop stop-color="#232323" offset="0"/>
			<stop stop-color="#303030" offset=".2245"/>
			<stop stop-color="#303030" offset=".7449"/>
			<stop stop-color="#232323" offset="1"/>
		</linearGradient>
		<path d="m514.52 143c12.83 0 23.268 10.438 23.268 23.268s-10.438 23.269-23.268 23.269h-295.46c-12.83 0-23.268-10.438-23.268-23.269s10.44-23.27 23.27-23.27h295.46m0-129h-295.46c-84.1 0-152.27 68.172-152.27 152.27 0 84.094 68.173 152.27 152.27 152.27h295.46c84.096 0 152.27-68.175 152.27-152.27 0-84.098-68.17-152.27-152.27-152.27z" fill="url(#i)"/><g stroke-miterlimit="10" fill="none"><g stroke="#F4D100" stroke-width="6">
			<path d="m514.79 78.734h-295.76c-48.342 0-87.532 39.189-87.532 87.533 0 48.342 39.19 87.533 87.532 87.533h295.76c48.344 0 87.533-39.191 87.533-87.533 0-48.35-39.19-87.536-87.53-87.536z" stroke-dasharray="57.0762,57.0762"/>
					<line x2="311.82" y1="14" x1="303.82" y2="14"/>
						<line x2="413.84" y1="14" x1="327.51" stroke-dasharray="15.6955,15.6955" y2="14"/>
					<line x2="429.68" y1="14" x1="421.68" y2="14"/>
					<line x2="374.65" y1="3" x1="366.65" y2="3"/>
						<line x2="413.84" y1="3" x1="390.33" stroke-dasharray="15.6787,15.6787" y2="3"/>
					<line x2="429.68" y1="3" x1="421.68" y2="3"/>
		</g><path d="m514.52 143c12.83 0 23.268 10.438 23.268 23.268s-10.438 23.269-23.268 23.269h-295.46c-12.83 0-23.268-10.438-23.268-23.269s10.44-23.27 23.27-23.27h295.46m-212.9-129h-82.559c-84.1 0-152.27 68.172-152.27 152.27 0 84.094 68.173 152.27 152.27 152.27h295.46c84.096 0 152.27-68.175 152.27-152.27 0-84.098-68.17-152.27-152.27-152.27h-82.838" stroke="#101928" stroke-linecap="square" stroke-width="4"/>
	</g><path opacity=".2" d="m650.54 299.43v-17.717h-119v-108.05c0.872-2.029 1.358-4.263 1.358-6.612s-0.486-4.582-1.358-6.611v-8.079h-7.328c-2.398-1.322-5.152-2.079-8.084-2.079h-299.42c-2.932 0-5.686 0.757-8.084 2.079h-7.607v8.816c-0.686 1.831-1.079 3.804-1.079 5.874s0.393 4.045 1.079 5.875v108.79h-120.79v17.717h-37.447v264.18h-42.783v140.17h42.783v34.858h645.21v-439.21h-37.45z" fill="#0C1C2B"/>
		<path stroke="#705A4A" stroke-width="3" stroke-miterlimit="10" d="m527.79 166.8c0 7.977-6.466 14.441-14.441 14.441h-294.86c-7.976 0-14.441-6.465-14.441-14.441 0-7.975 6.465-14.44 14.441-14.44h294.86c7.97 0 14.44 6.47 14.44 14.44z" fill="#C6B198"/>
			<rect height="128" width="61" stroke="#820000" stroke-miterlimit="10" y="570.24" x="5.79" stroke-width="3" fill="#BA0000"/>
			<polygon points="66.791 698.24 57.29 698.24 45.29 570.24 66.791 570.24" fill="#820000"/>
			<path opacity=".2" d="m67.791 584.64h-23.703c-2.339-1.795-5.254-2.875-8.423-2.875-7.651 0-13.875 6.225-13.875 13.875s6.224 13.875 13.875 13.875c3.169 0 6.084-1.08 8.423-2.875h23.702v-22z" fill="#183049"/>
			<path opacity=".2" d="m67.791 617.14h-23.703c-2.339-1.795-5.254-2.875-8.423-2.875-7.651 0-13.875 6.225-13.875 13.875s6.224 13.875 13.875 13.875c3.169 0 6.084-1.08 8.423-2.875h23.702v-22z" fill="#183049"/>
					<circle stroke-width="2" stroke="#383838" cy="592.64" cx="35.665" stroke-miterlimit="10" r="12.875" fill="#878787"/>
					<path d="m66.791 602.64h-30.5c-5.523 0-10-4.478-10-10s4.477-10 10-10h30.5v20z" fill="#5B5B5B"/>
				<path d="m60.791 582.64h-24.5c-5.523 0-10 4.478-10 10h34.5v-10z" fill="#898989"/><g stroke="#383838" stroke-miterlimit="10" fill="none">
				<path d="m40.29 602.64c-5.523 0-10-4.478-10-10s4.477-10 10-10"/>
				<path d="m44.29 602.64c-3.314 0-6-4.478-6-10s2.686-10 6-10"/>
				<path d="m49.54 602.64c-1.657 0-3-4.478-3-10s1.343-10 3-10"/>
				<line x1="56.54" y1="602.64" x2="56.54" y2="582.64"/>
				<path stroke-width="2" d="m66.791 602.64h-30.5c-5.523 0-10-4.478-10-10s4.477-10 10-10h30.5v20z"/>
					</g><circle stroke-width="2" stroke="#383838" cy="624.93" cx="35.665" stroke-miterlimit="10" r="12.875" fill="#878787"/>
					<path d="m66.791 634.93h-30.5c-5.523 0-10-4.478-10-10s4.477-10 10-10h30.5v20z" fill="#5B5B5B"/>
				<path d="m60.791 614.93h-24.5c-5.523 0-10 4.478-10 10h34.5v-10z" fill="#898989"/><g stroke-miterlimit="10" fill="none"><g stroke="#383838">
				<path d="m40.29 634.93c-5.523 0-10-4.478-10-10s4.477-10 10-10"/>
				<path d="m44.29 634.93c-3.314 0-6-4.478-6-10s2.686-10 6-10"/>
				<path d="m49.54 634.93c-1.657 0-3-4.478-3-10s1.343-10 3-10"/>
				<line x1="56.54" y1="634.93" x2="56.54" y2="614.93"/>
				<path stroke-width="2" d="m66.791 634.93h-30.5c-5.523 0-10-4.478-10-10s4.477-10 10-10h30.5v20z"/>
			</g><g stroke="#820000" stroke-width="2" stroke-linecap="round">
					<line x2="41.29" y1="677.19" x1="17.04" y2="677.19"/>
					<line x2="41.29" y1="673.01" x1="17.04" y2="673.01"/>
					<line x2="41.29" y1="668.82" x1="17.04" y2="668.82"/>
					<line x2="41.29" y1="664.64" x1="17.04" y2="664.64"/>
					<line x2="41.29" y1="681.38" x1="17.04" y2="681.38"/>
					<line x2="41.29" y1="685.56" x1="17.04" y2="685.56"/>
					<line x2="41.29" y1="689.74" x1="17.04" y2="689.74"/>
			</g>
			</g><rect y="152.27" x="211.02" fill="#C6B198" width="311.19" height="147.98"/>
			<rect y="165.66" x="225.91" fill="#BAA38A" width="281.32" height="134.58"/>
			<polygon points="230.91 170.66 507.23 170.66 507.23 165.66 225.91 165.66 225.91 300.24 230.91 300.24" fill="#988575"/>
			<polygon points="522.21 291.08 507.96 291.08 506.7 293.08 227 293.08 226.36 291.08 211.02 291.08 211.02 300.24 522.21 300.24" fill="#988575"/><g stroke-width="3" stroke-miterlimit="10">
				<rect height="134.58" width="281.32" stroke="#705A4A" y="165.66" x="225.91" fill="none"/>
				<rect height="147.98" width="311.19" stroke="#705A4A" y="152.27" x="211.02" fill="none"/>
				<rect height="18.294" width="530" stroke="#383838" y="300.24" x="101.61" fill="#707070"/>
			</g><rect y="309.39" x="101.61" fill="#545454" width="530" height="9.147"/>
				<rect height="18.294" width="530" stroke="#383838" stroke-miterlimit="10" y="300.24" x="101.61" stroke-width="3" fill="none"/>
				<rect height="400" width="600" stroke="#383838" stroke-miterlimit="10" y="317.73" x="66.613" stroke-width="3" fill="#707070"/>
			<linearGradient id="h" y2="725.49" gradientUnits="userSpaceOnUse" y1="325.49" x2="658.07" x1="96.072">
				<stop stop-color="#919191" offset="0"/>
				<stop stop-color="#919191" stop-opacity="0" offset="1"/>
			</linearGradient>
			<path d="m647.61 702.74h-572v-376.5h572v376.5zm-564-8h556v-360.5h-556v360.5z" fill="url(#h)"/>
			<rect y="348.84" x="103.2" fill="#919191" width="530" height="338.52"/>
			<path fill-rule="evenodd" clip-rule="evenodd" d="m471.08 492.66c4.268 15.234 4.939 30.533 1.865 45.971-10.387 52.139-55.922 87.961-109.42 86.07-51.273-1.809-94.275-41.445-101.07-93.168-7.875-59.926 36.756-115.1 97.039-119.66 25.774-1.947 50.366 2.348 72.472 16.541 15.342 9.846 26.555 23.057 30.713 41.285 6.822 29.918-17.334 71.301-62.676 61.67-18.613-3.951-31.87-21.027-32.024-39.951-0.154-18.801 12.409-35.705 29.985-40.242 5.629-1.453 11.281-1.818 17.305 0.287-6.168 5.551-8.793 12.168-7.738 20.01 1.523 11.357 11.828 19.828 23.25 19.299 11.109-0.512 21.092-10.922 21.678-22.791 0.645-13.049-5.402-22.969-15.715-30.041-36.334-24.934-85.44-7.061-96.952 34.822-7.109 25.854-2.068 49.021 18.265 67.225 20.009 17.906 43.446 23.555 68.823 13.443 25.482-10.15 40.219-29.502 43.707-57 0.16-1.27 0.33-2.53 0.49-3.78z" fill="#EFEFEF"/>
			<g stroke="#4C4C4C" stroke-miterlimit="10" fill="none">
				<line x2="113.2" y1="348.84" x1="113.2" y2="687.84"/>
				<line x2="123.2" y1="348.84" x1="123.2" y2="687.84"/>
				<line x2="133.2" y1="348.84" x1="133.2" y2="687.84"/>
				<line x2="143.2" y1="348.84" x1="143.2" y2="687.84"/>
				<line x2="153.2" y1="348.84" x1="153.2" y2="687.84"/>
				<line x2="163.2" y1="348.84" x1="163.2" y2="687.84"/>
				<line x2="173.2" y1="348.84" x1="173.2" y2="687.84"/>
				<line x2="183.2" y1="348.84" x1="183.2" y2="687.84"/>
				<line x2="193.2" y1="348.84" x1="193.2" y2="687.84"/>
				<line x2="203.2" y1="348.84" x1="203.2" y2="687.84"/>
				<line x2="213.2" y1="348.84" x1="213.2" y2="687.84"/>
				<line x2="223.2" y1="348.84" x1="223.2" y2="687.84"/>
				<line x2="233.2" y1="348.84" x1="233.2" y2="687.84"/>
				<line x2="243.2" y1="348.84" x1="243.2" y2="687.84"/>
				<line x2="253.2" y1="348.84" x1="253.2" y2="687.84"/>
				<line x2="263.2" y1="348.84" x1="263.2" y2="687.84"/>
				<line x2="273.2" y1="348.84" x1="273.2" y2="687.84"/>
				<line x2="283.2" y1="348.84" x1="283.2" y2="687.84"/>
				<line x2="293.2" y1="348.84" x1="293.2" y2="687.84"/>
				<line x2="303.2" y1="348.84" x1="303.2" y2="687.84"/>
				<line x2="313.2" y1="348.84" x1="313.2" y2="687.84"/>
				<line x2="323.2" y1="348.84" x1="323.2" y2="687.84"/>
				<line x2="333.2" y1="348.84" x1="333.2" y2="687.84"/>
				<line x2="343.2" y1="348.84" x1="343.2" y2="687.84"/>
				<line x2="353.2" y1="348.84" x1="353.2" y2="687.84"/>
				<line x2="363.2" y1="348.84" x1="363.2" y2="687.84"/>
				<line x2="373.2" y1="348.84" x1="373.2" y2="687.84"/>
				<line x2="383.2" y1="348.84" x1="383.2" y2="687.84"/>
				<line x2="393.2" y1="348.84" x1="393.2" y2="687.84"/>
				<line x2="403.2" y1="348.84" x1="403.2" y2="687.84"/>
				<line x2="413.2" y1="348.84" x1="413.2" y2="687.84"/>
				<line x2="423.2" y1="348.84" x1="423.2" y2="687.84"/>
				<line x2="433.2" y1="348.84" x1="433.2" y2="687.84"/>
				<line x2="443.2" y1="348.84" x1="443.2" y2="687.84"/>
				<line x2="453.2" y1="348.84" x1="453.2" y2="687.84"/>
				<line x2="463.2" y1="348.84" x1="463.2" y2="687.84"/>
				<line x2="473.2" y1="348.84" x1="473.2" y2="687.84"/>
				<line x2="483.2" y1="348.84" x1="483.2" y2="687.84"/>
				<line x2="493.2" y1="348.84" x1="493.2" y2="687.84"/>
				<line x2="503.2" y1="348.84" x1="503.2" y2="687.84"/>
				<line x2="513.2" y1="348.84" x1="513.2" y2="687.84"/>
				<line x2="523.2" y1="348.84" x1="523.2" y2="687.84"/>
				<line x2="533.2" y1="348.84" x1="533.2" y2="687.84"/>
				<line x2="543.2" y1="348.84" x1="543.2" y2="687.84"/>
				<line x2="553.2" y1="348.84" x1="553.2" y2="687.84"/>
				<line x2="563.2" y1="348.84" x1="563.2" y2="687.84"/>
				<line x2="573.2" y1="348.84" x1="573.2" y2="687.84"/>
				<line x2="583.2" y1="348.84" x1="583.2" y2="687.84"/>
				<line x2="593.2" y1="348.84" x1="593.2" y2="687.84"/>
				<line x2="603.2" y1="348.84" x1="603.2" y2="687.84"/>
				<line x2="613.2" y1="348.84" x1="613.2" y2="687.84"/>
				<line x2="623.2" y1="348.84" x1="623.2" y2="687.84"/>
			</g>
			<polygon points="113.2 358.84 633.2 358.84 633.2 348.84 103.2 348.84 103.2 687.36 113.2 687.36" fill="#6D6D6D"/>
			<g stroke="#B7B7B7" stroke-miterlimit="10" fill="none">
				<line x2="112.2" y1="348.84" x1="112.2" y2="687.84"/>
				<line x2="122.2" y1="348.84" x1="122.2" y2="687.84"/>
				<line x2="132.2" y1="348.84" x1="132.2" y2="687.84"/>
				<line x2="142.2" y1="348.84" x1="142.2" y2="687.84"/>
				<line x2="152.2" y1="348.84" x1="152.2" y2="687.84"/>
				<line x2="162.2" y1="348.84" x1="162.2" y2="687.84"/>
				<line x2="172.2" y1="348.84" x1="172.2" y2="687.84"/>
				<line x2="182.2" y1="348.84" x1="182.2" y2="687.84"/>
				<line x2="192.2" y1="348.84" x1="192.2" y2="687.84"/>
				<line x2="202.2" y1="348.84" x1="202.2" y2="687.84"/>
				<line x2="212.2" y1="348.84" x1="212.2" y2="687.84"/>
				<line x2="222.2" y1="348.84" x1="222.2" y2="687.84"/>
				<line x2="232.2" y1="348.84" x1="232.2" y2="687.84"/>
				<line x2="242.2" y1="348.84" x1="242.2" y2="687.84"/>
				<line x2="252.2" y1="348.84" x1="252.2" y2="687.84"/>
				<line x2="262.2" y1="348.84" x1="262.2" y2="687.84"/>
				<line x2="272.2" y1="348.84" x1="272.2" y2="687.84"/>
				<line x2="282.2" y1="348.84" x1="282.2" y2="687.84"/>
				<line x2="292.2" y1="348.84" x1="292.2" y2="687.84"/>
				<line x2="302.2" y1="348.84" x1="302.2" y2="687.84"/>
				<line x2="312.2" y1="348.84" x1="312.2" y2="687.84"/>
				<line x2="322.2" y1="348.84" x1="322.2" y2="687.84"/>
				<line x2="332.2" y1="348.84" x1="332.2" y2="687.84"/>
				<line x2="342.2" y1="348.84" x1="342.2" y2="687.84"/>
				<line x2="352.2" y1="348.84" x1="352.2" y2="687.84"/>
				<line x2="362.2" y1="348.84" x1="362.2" y2="687.84"/>
				<line x2="372.2" y1="348.84" x1="372.2" y2="687.84"/>
				<line x2="382.2" y1="348.84" x1="382.2" y2="687.84"/>
				<line x2="392.2" y1="348.84" x1="392.2" y2="687.84"/>
				<line x2="402.2" y1="348.84" x1="402.2" y2="687.84"/>
				<line x2="412.2" y1="348.84" x1="412.2" y2="687.84"/>
				<line x2="422.2" y1="348.84" x1="422.2" y2="687.84"/>
				<line x2="432.2" y1="348.84" x1="432.2" y2="687.84"/>
				<line x2="442.2" y1="348.84" x1="442.2" y2="687.84"/>
				<line x2="452.2" y1="348.84" x1="452.2" y2="687.84"/>
				<line x2="462.2" y1="348.84" x1="462.2" y2="687.84"/>
				<line x2="472.2" y1="348.84" x1="472.2" y2="687.84"/>
				<line x2="482.2" y1="348.84" x1="482.2" y2="687.84"/>
				<line x2="492.2" y1="348.84" x1="492.2" y2="687.84"/>
				<line x2="502.2" y1="348.84" x1="502.2" y2="687.84"/>
				<line x2="512.2" y1="348.84" x1="512.2" y2="687.84"/>
				<line x2="522.2" y1="348.84" x1="522.2" y2="687.84"/>
				<line x2="532.2" y1="348.84" x1="532.2" y2="687.84"/>
				<line x2="542.2" y1="348.84" x1="542.2" y2="687.84"/>
				<line x2="552.2" y1="348.84" x1="552.2" y2="687.84"/>
				<line x2="562.2" y1="348.84" x1="562.2" y2="687.84"/>
				<line x2="572.2" y1="348.84" x1="572.2" y2="687.84"/>
				<line x2="582.2" y1="348.84" x1="582.2" y2="687.84"/>
				<line x2="592.2" y1="348.84" x1="592.2" y2="687.84"/>
				<line x2="602.2" y1="348.84" x1="602.2" y2="687.84"/>
				<line x2="612.2" y1="348.84" x1="612.2" y2="687.84"/>
				<line x2="622.2" y1="348.84" x1="622.2" y2="687.84"/>
			</g>
				<rect height="338.52" width="530" stroke="#383838" stroke-miterlimit="10" y="348.84" x="103.2" stroke-width="3" fill="none"/>
			<rect opacity=".3" height="118.48" width="119.36" y="561.27" x="498.4" fill="#183049"/>
				<rect opacity=".4" height="268.29" width="110" y="384.2" x="118.56" fill="#183049"/>
				<g opacity=".2">
					<rect y="650.1" x="195.07" fill="#183049" width="5.344" height="9.047"/>
					<path stroke="#183049" stroke-width="2" stroke-miterlimit="10" d="m197.49 658.14c1.5 40.5 87.549-34.975 119-3.523 53.884 53.884 110.1 2.023 191.5 2.023" fill="none"/>
				</g>
					<rect y="648.2" x="194.37" fill="#232323" width="5.344" height="9.047"/>
					<path stroke="#232323" stroke-width="2" stroke-miterlimit="10" d="m196.79 656.24c1.5 40.5 87.549-34.975 119-3.523 53.883 53.884 110.1 2.023 191.5 2.023" fill="none"/>
					<rect y="388.2" x="123.25" fill="#0D2735" width="101" height="260"/><g stroke-miterlimit="10">
					<g stroke="#0F303F" fill="none">
							<line x2="121.75" y1="398.2" x1="225.75" y2="398.2"/>
							<line x2="121.75" y1="408.2" x1="225.75" y2="408.2"/>
							<line x2="121.75" y1="418.2" x1="225.75" y2="418.2"/>
							<line x2="121.75" y1="428.2" x1="225.75" y2="428.2"/>
							<line x2="121.75" y1="438.2" x1="225.75" y2="438.2"/>
							<line x2="121.75" y1="448.2" x1="225.75" y2="448.2"/>
							<line x2="121.75" y1="458.2" x1="225.75" y2="458.2"/>
							<line x2="121.75" y1="468.2" x1="225.75" y2="468.2"/>
							<line x2="121.75" y1="478.2" x1="225.75" y2="478.2"/>
							<line x2="121.75" y1="488.2" x1="225.75" y2="488.2"/>
							<line x2="121.75" y1="498.2" x1="225.75" y2="498.2"/>
							<line x2="121.75" y1="508.2" x1="225.75" y2="508.2"/>
							<line x2="121.75" y1="518.2" x1="225.75" y2="518.2"/>
							<line x2="121.75" y1="528.2" x1="225.75" y2="528.2"/>
							<line x2="121.75" y1="538.2" x1="225.75" y2="538.2"/>
							<line x2="121.75" y1="548.2" x1="225.75" y2="548.2"/>
							<line x2="121.75" y1="558.2" x1="225.75" y2="558.2"/>
							<line x2="121.75" y1="568.2" x1="225.75" y2="568.2"/>
							<line x2="121.75" y1="578.2" x1="225.75" y2="578.2"/>
							<line x2="121.75" y1="588.2" x1="225.75" y2="588.2"/>
							<line x2="121.75" y1="598.2" x1="225.75" y2="598.2"/>
							<line x2="121.75" y1="608.2" x1="225.75" y2="608.2"/>
							<line x2="121.75" y1="618.2" x1="225.75" y2="618.2"/>
							<line x2="121.75" y1="628.2" x1="225.75" y2="628.2"/>
							<line x2="121.75" y1="638.2" x1="225.75" y2="638.2"/>
						<line x2="133.35" y1="388.2" x1="133.35" y2="648.2"/>
						<line x2="143.45" y1="388.2" x1="143.45" y2="648.2"/>
						<line x2="153.55" y1="388.2" x1="153.55" y2="648.2"/>
						<line x2="163.65" y1="388.2" x1="163.65" y2="648.2"/>
						<line x2="173.75" y1="388.2" x1="173.75" y2="648.2"/>
						<line x2="183.85" y1="388.2" x1="183.85" y2="648.2"/>
						<line x2="193.95" y1="388.2" x1="193.95" y2="648.2"/>
						<line x2="204.05" y1="388.2" x1="204.05" y2="648.2"/>
						<line x2="214.15" y1="388.2" x1="214.15" y2="648.2"/>
					</g>
						<rect height="260" width="101" stroke="#CCAE00" y="388.2" x="123.25" stroke-width="3" fill="none"/>
					<g stroke="#CCAE00" stroke-width="2">
							<line x2="173.75" y1="388.2" x1="173.75" y2="648.2" fill="none"/>
							<line x2="121.75" y1="518.2" x1="225.75" y2="518.2" fill="none"/>
							<line x2="121.75" y1="453.2" x1="225.75" y2="453.2" fill="#0D2735"/>
							<line x2="121.75" y1="583.2" x1="225.75" y2="583.2" fill="none"/>
					</g>
					</g><linearGradient id="g" y2="431.84" gradientUnits="userSpaceOnUse" y1="379.84" x2="154.04" x1="129.54">
						<stop stop-color="#fff" stop-opacity=".4" offset="0"/>
						<stop stop-color="#fff" stop-opacity="0" offset="1"/>
					</linearGradient>
					<rect y="393.2" x="128.79" fill="url(#g)" width="40" height="55"/>
					<linearGradient id="f" y2="431.84" gradientUnits="userSpaceOnUse" y1="379.84" x2="203.54" x1="179.04">
						<stop stop-color="#fff" stop-opacity=".4" offset="0"/>
						<stop stop-color="#fff" stop-opacity="0" offset="1"/>
					</linearGradient>
					<rect y="393.2" x="178.29" fill="url(#f)" width="40" height="55"/>
					<linearGradient id="e" y2="495.84" gradientUnits="userSpaceOnUse" y1="443.84" x2="154.04" x1="129.54">
						<stop stop-color="#fff" stop-opacity=".4" offset="0"/>
						<stop stop-color="#fff" stop-opacity="0" offset="1"/>
					</linearGradient>
					<rect y="457.2" x="128.79" fill="url(#e)" width="40" height="55"/>
					<linearGradient id="d" y2="495.84" gradientUnits="userSpaceOnUse" y1="443.84" x2="203.54" x1="179.04">
						<stop stop-color="#fff" stop-opacity=".4" offset="0"/>
						<stop stop-color="#fff" stop-opacity="0" offset="1"/>
					</linearGradient>
					<rect y="457.2" x="178.29" fill="url(#d)" width="40" height="55"/>
					<linearGradient id="c" y2="560.74" gradientUnits="userSpaceOnUse" y1="508.74" x2="154.04" x1="129.54">
						<stop stop-color="#fff" stop-opacity=".4" offset="0"/>
						<stop stop-color="#fff" stop-opacity="0" offset="1"/>
					</linearGradient>
					<rect y="522.09" x="128.79" fill="url(#c)" width="40" height="55"/>
					<linearGradient id="b" y2="560.74" gradientUnits="userSpaceOnUse" y1="508.74" x2="203.54" x1="179.04">
						<stop stop-color="#fff" stop-opacity=".4" offset="0"/>
						<stop stop-color="#fff" stop-opacity="0" offset="1"/>
					</linearGradient>
					<rect y="522.09" x="178.29" fill="url(#b)" width="40" height="55"/>
					<linearGradient id="a" y2="625.64" gradientUnits="userSpaceOnUse" y1="573.64" x2="154.04" x1="129.54">
						<stop stop-color="#fff" stop-opacity=".4" offset="0"/>
						<stop stop-color="#fff" stop-opacity="0" offset="1"/>
					</linearGradient>
					<rect y="586.99" x="128.79" fill="url(#a)" width="40" height="55"/>
					<linearGradient id="j" y2="625.64" gradientUnits="userSpaceOnUse" y1="573.64" x2="203.54" x1="179.04">
						<stop stop-color="#fff" stop-opacity=".4" offset="0"/>
						<stop stop-color="#fff" stop-opacity="0" offset="1"/>
					</linearGradient>
					<rect y="586.99" x="178.29" fill="url(#j)" width="40" height="55"/>
					<rect height="110" width="110" stroke="#847061" stroke-miterlimit="10" y="564.93" x="503.2" stroke-width="3" fill="#C6B198"/>
				<rect y="580.33" x="518.6" fill="#E5BE98" width="79.2" height="79.2"/>
				<polygon points="525 585.73 597.8 585.73 597.8 580.33 518.6 580.33 518.6 659.53 525 659.53" fill="#CCA07F"/>
					<rect height="79.2" width="79.2" stroke="#826E5F" stroke-miterlimit="10" y="580.33" x="518.6" stroke-width="3" fill="none"/>
</svg>
