<?xml version="1.0" encoding="utf-8"?>
<!-- Generator: Adobe Illustrator 16.0.0, SVG Export Plug-In . SVG Version: 6.00 Build 0)  -->
<!DOCTYPE svg PUBLIC "-//W3C//DTD SVG 1.1//EN" "http://www.w3.org/Graphics/SVG/1.1/DTD/svg11.dtd">
<svg version="1.1" id="Layer_1" xmlns="http://www.w3.org/2000/svg" xmlns:xlink="http://www.w3.org/1999/xlink" 
	 viewBox="0 0 68.306 52.778" enable-background="new 0 0 68.306 52.778" xml:space="preserve">
<g>
	<g>
		<polygon fill="#C3996B" stroke="#8A5D3B" stroke-width="2" stroke-linejoin="round" stroke-miterlimit="10" points="
			32.692,51.778 1,45.607 1,22.334 32.692,28.505 		"/>
		<polygon fill="#A3704D" points="1,22.158 15.309,41.111 32.692,29.033 		"/>
		<polygon fill="#A3704D" stroke="#8A5D3B" stroke-width="2" stroke-linejoin="round" stroke-miterlimit="10" points="67.25,30.444 
			32.692,51.778 32.692,28.505 67.25,7.171 		"/>
		<polygon fill="none" stroke="#A3704D" stroke-width="2" stroke-linejoin="round" stroke-miterlimit="10" points="32.692,51.692 
			15.563,33.092 1,45.521 		"/>
		<polygon fill="none" stroke="#8A5D3B" stroke-width="2" stroke-linejoin="round" stroke-miterlimit="10" points="32.692,51.692 
			15.211,34.502 1,45.521 		"/>
		<polygon fill="#C3996B" stroke="#8A5D3B" stroke-width="2" stroke-linejoin="round" stroke-miterlimit="10" points="35.668,1 
			67.306,7.171 32.692,28.505 1,22.334 		"/>
		<polygon fill="#D3A87D" points="35.456,2.926 62.664,8.232 32.897,26.58 5.642,21.273 		"/>
		<g>
			<g>
				<path fill="#35251B" d="M24.706,16.291c0.014-0.344,0.581-0.371,1.205-0.582c0.59-0.199,0.908-0.533,1.17-0.78
					c0.424-0.401,0.971-0.66,1.684-0.966c0.703-0.301,1.138-0.703,1.671-1.041c0.424-0.27,1.025-0.482,1.505-0.739
					c0.494-0.265,0.856-0.591,1.294-0.887c0.939-0.633,1.972-1.299,2.709-2.078c0.298-0.314-0.709-0.373-0.998-0.062
					c-0.772,0.829-1.932,1.524-2.922,2.195c-1.026,0.695-2.277,1.249-3.293,1.928c-0.461,0.307-1.065,0.556-1.688,0.833
					c-0.634,0.282-0.921,0.655-1.329,0.998c-0.421,0.354-1.167,0.381-1.776,0.659c-0.464,0.212-0.48,0.443-0.496,0.675
					C23.421,16.743,24.694,16.585,24.706,16.291L24.706,16.291z"/>
				<path fill="#35251B" d="M27.845,16.972c-0.159-0.372,0.119-0.546,0.795-0.832c0.676-0.285,1.202-0.595,1.641-0.921
					c0.14-0.104,0.268-0.211,0.318-0.324c0.105-0.229,0.157-0.273,0.59-0.41c0.767-0.242,1.355-0.641,1.893-0.967
					c0.653-0.398,1.226-0.824,1.79-1.266c0.468-0.367,0.847-0.727,1.544-1.07c0.991-0.488,2.469-1.078,2.756-1.783
					c0.132-0.326-0.947-0.232-1.07,0.088c-0.274,0.713-2.354,1.344-3.189,1.891c-0.617,0.403-1.048,0.849-1.59,1.241
					c-0.579,0.419-1.213,0.813-1.92,1.188c-0.329,0.176-0.608,0.311-1.084,0.41c-0.275,0.059-0.41,0.17-0.536,0.279
					c-0.154,0.133-0.137,0.299-0.251,0.438c-0.186,0.228-0.664,0.459-1.026,0.662c-0.447,0.251-1.109,0.439-1.535,0.72
					c-0.4,0.263-0.395,0.538-0.293,0.797C26.785,17.394,27.965,17.252,27.845,16.972L27.845,16.972z"/>
				<path fill="#35251B" d="M30.083,17.865c1.258-0.109,1.453-0.536,1.731-0.947c0.459-0.677,1.668-1.26,2.706-1.77
					c0.843-0.413,1.683-0.952,2.244-1.456c0.197-0.177,0.924-1.151,1.412-1.182c0.169-0.011,0.392-0.054,0.485-0.133
					c0.908-0.773,2.659-1.526,2.913-2.479c0.088-0.327-1.021-0.219-1.107,0.105c-0.218,0.818-1.84,1.5-2.644,2.176
					c0.16-0.044,0.321-0.088,0.483-0.135c-0.784,0.056-1.218,0.377-1.562,0.661c-0.574,0.475-0.996,0.915-1.639,1.35
					c-0.856,0.579-1.906,1.062-2.86,1.616c-0.476,0.277-0.873,0.58-1.231,0.895c-0.242,0.213-0.356,0.783-1.091,0.847
					C29.185,17.477,29.331,17.931,30.083,17.865L30.083,17.865z"/>
				<path fill="#35251B" d="M33.926,18.51c0.198-0.305,0.479-0.449,1.04-0.649c0.327-0.118,0.517-0.305,0.654-0.46
					c0.459-0.523,0.571-1.074,1.483-1.508c0.61-0.291,0.764-0.55,0.991-0.908c0.245-0.383,1.26-0.555,1.437-0.988
					c0.119-0.295-0.996-0.265-1.121,0.022c-0.079,0.181-0.49,0.302-0.784,0.429c-0.293,0.127-0.454,0.273-0.597,0.429
					c-0.157,0.173-0.158,0.347-0.369,0.515c-0.241,0.192-0.72,0.365-1.022,0.545c-0.688,0.412-0.743,0.967-1.259,1.424
					c-0.22,0.195-0.679,0.28-1.003,0.446c-0.347,0.177-0.494,0.368-0.651,0.585C32.51,18.688,33.732,18.807,33.926,18.51
					L33.926,18.51z"/>
			</g>
		</g>
		<polygon fill="#C3996B" stroke="#8A5D3B" stroke-width="2" stroke-linejoin="round" stroke-miterlimit="10" points="1,22.334 
			15.309,38.819 32.692,28.505 		"/>
		<g opacity="0.3">
			<path fill="#D4FFFD" d="M17.791,42.393c-0.21-0.244-0.314-0.364-0.524-0.602c-0.26,0.173-0.389,0.257-0.648,0.421
				c-0.198-0.184-0.297-0.272-0.495-0.45c-0.272,0.111-0.408,0.165-0.68,0.27c-0.197-0.129-0.297-0.191-0.495-0.316
				c-0.173,0.07-0.26,0.105-0.433,0.174c-0.173-0.184-0.26-0.272-0.433-0.45c-0.137,0.134-0.204,0.2-0.341,0.331
				c0-3.312,0-4.969,0-8.281c0.26,0.133,0.39,0.201,0.649,0.343c0.271-0.214,0.407-0.323,0.679-0.547
				c0.198,0.296,0.298,0.445,0.496,0.752c0.21-0.357,0.315-0.539,0.525-0.909c0.186,0.297,0.278,0.447,0.464,0.754
				c0.211-0.356,0.315-0.537,0.526-0.906c0.147,0.094,0.223,0.141,0.371,0.236c0.135-0.137,0.202-0.205,0.338-0.346
				C17.791,36.676,17.791,38.582,17.791,42.393z"/>
		</g>
	</g>
	<g>
		<path fill="#A3704D" d="M23.758,18.73c-0.295,0.169-0.67,0.246-0.951,0.188c-0.282-0.059-0.384-0.234-0.271-0.443
			c-0.316-0.065-0.476-0.1-0.792-0.165c-0.295,0.169-0.669,0.246-0.95,0.188c-0.281-0.06-0.384-0.235-0.271-0.443
			c-0.317-0.065-0.477-0.099-0.794-0.165c-0.293,0.17-0.666,0.246-0.947,0.188c-0.282-0.059-0.385-0.234-0.274-0.443
			c-0.317-0.066-0.477-0.1-0.793-0.166c-0.292,0.17-0.664,0.247-0.945,0.188c-0.282-0.059-0.385-0.235-0.276-0.443
			c-0.316-0.066-0.476-0.1-0.793-0.165c-0.292,0.17-0.662,0.247-0.944,0.188c-0.281-0.059-0.386-0.234-0.278-0.443
			c-0.123-0.025-0.186-0.039-0.309-0.064c-0.11,0.104-0.163,0.155-0.269,0.255c0.168,0.12,0.163,0.323-0.029,0.509
			c-0.194,0.185-0.519,0.299-0.822,0.311c-0.158,0.152-0.234,0.228-0.385,0.375c0.18,0.108,0.205,0.285,0.037,0.449
			s-0.479,0.27-0.777,0.276c-0.146,0.144-0.218,0.217-0.366,0.363c0.181,0.108,0.206,0.286,0.031,0.459
			c-0.175,0.175-0.501,0.294-0.805,0.309c-0.162,0.161-0.246,0.244-0.42,0.417c0.17,0.118,0.17,0.321-0.046,0.535
			s-0.585,0.376-0.908,0.407c-0.109,0.106-0.164,0.161-0.279,0.272c0.124,0.026,0.187,0.04,0.31,0.065
			c0.317-0.204,0.705-0.304,0.986-0.245c0.28,0.059,0.369,0.257,0.236,0.5c0.316,0.066,0.476,0.1,0.793,0.166
			c0.314-0.205,0.699-0.305,0.98-0.246s0.372,0.256,0.241,0.5c0.316,0.066,0.476,0.102,0.793,0.167
			c0.312-0.207,0.693-0.308,0.975-0.249s0.374,0.259,0.247,0.505c0.317,0.065,0.476,0.099,0.793,0.165
			c0.309-0.209,0.69-0.309,0.971-0.25c0.281,0.059,0.375,0.258,0.252,0.506c0.317,0.065,0.476,0.1,0.792,0.166
			c0.306-0.21,0.685-0.312,0.966-0.254s0.377,0.26,0.257,0.508c0.133,0.028,0.199,0.042,0.332,0.07
			c0.105-0.115,0.157-0.171,0.258-0.279c-0.172-0.133-0.158-0.373,0.052-0.594c0.21-0.222,0.551-0.357,0.862-0.374
			c0.166-0.173,0.246-0.255,0.403-0.415c-0.185-0.113-0.204-0.307-0.026-0.483s0.499-0.282,0.803-0.288
			c0.147-0.144,0.221-0.214,0.367-0.354c-0.188-0.106-0.219-0.281-0.043-0.446c0.175-0.165,0.503-0.271,0.81-0.274
			c0.154-0.144,0.232-0.216,0.395-0.364c-0.184-0.11-0.199-0.296,0.004-0.482c0.202-0.187,0.562-0.317,0.882-0.333
			c0.105-0.098,0.16-0.148,0.271-0.251C23.957,18.771,23.891,18.758,23.758,18.73z"/>
		<g>
			<g>
				<path fill="#C6C6C6" d="M14.158,16.475c-0.123-0.025-0.186-0.038-0.309-0.064c-0.111,0.104-0.164,0.155-0.269,0.255
					c0.168,0.12,0.163,0.323-0.03,0.509s-0.518,0.299-0.821,0.311c-0.158,0.152-0.234,0.229-0.386,0.375
					c0.181,0.109,0.205,0.285,0.038,0.45c-0.168,0.164-0.479,0.269-0.777,0.276c-0.146,0.144-0.218,0.216-0.366,0.363
					c0.181,0.107,0.207,0.285,0.031,0.459c-0.175,0.174-0.501,0.293-0.805,0.309c-0.162,0.16-0.246,0.243-0.42,0.416
					c0.17,0.118,0.17,0.321-0.046,0.535s-0.585,0.376-0.908,0.407c-0.108,0.106-0.165,0.161-0.279,0.272
					c0.124,0.026,0.186,0.04,0.31,0.066c0.318-0.205,0.705-0.305,0.986-0.246c0.28,0.059,0.369,0.257,0.236,0.5
					c0.316,0.066,0.477,0.1,0.793,0.166c0.314-0.205,0.699-0.305,0.98-0.246s0.371,0.256,0.241,0.501
					c0.316,0.065,0.476,0.1,0.792,0.166c0.312-0.206,0.694-0.308,0.976-0.249s0.374,0.26,0.247,0.505
					c0.317,0.066,0.477,0.099,0.793,0.165c0.309-0.208,0.69-0.309,0.971-0.25c0.281,0.059,0.375,0.259,0.252,0.506
					c0.316,0.066,0.476,0.1,0.792,0.166c0.306-0.21,0.685-0.312,0.966-0.254s0.377,0.26,0.257,0.508
					c0.133,0.028,0.199,0.043,0.332,0.07c0.105-0.114,0.157-0.17,0.258-0.278c-0.172-0.133-0.158-0.373,0.052-0.595
					c0.209-0.221,0.551-0.357,0.861-0.373c0.167-0.174,0.247-0.256,0.404-0.415c-0.185-0.113-0.204-0.308-0.027-0.484
					c0.178-0.177,0.5-0.282,0.804-0.287c0.147-0.144,0.22-0.215,0.367-0.354c-0.188-0.105-0.219-0.281-0.044-0.446
					c0.176-0.165,0.504-0.271,0.811-0.274c0.154-0.143,0.232-0.215,0.395-0.364c-0.184-0.109-0.199-0.296,0.003-0.481
					c0.203-0.188,0.562-0.318,0.882-0.334c0.106-0.098,0.161-0.148,0.272-0.25c-0.133-0.029-0.199-0.042-0.332-0.07
					c-0.296,0.17-0.67,0.246-0.952,0.188c-0.281-0.059-0.383-0.234-0.271-0.442c-0.316-0.066-0.476-0.1-0.792-0.166
					c-0.295,0.17-0.668,0.246-0.95,0.188c-0.281-0.059-0.384-0.235-0.272-0.442c-0.316-0.066-0.476-0.1-0.793-0.166
					c-0.293,0.17-0.666,0.246-0.947,0.188c-0.282-0.059-0.385-0.234-0.275-0.443c-0.316-0.065-0.475-0.1-0.792-0.165
					c-0.292,0.17-0.664,0.247-0.945,0.188c-0.282-0.06-0.385-0.236-0.276-0.444c-0.316-0.065-0.477-0.099-0.793-0.165
					c-0.292,0.17-0.662,0.246-0.944,0.188C14.155,16.859,14.05,16.684,14.158,16.475z"/>
				<path fill="#A51627" d="M21.814,19.001c-1.469,1.358-1.844,1.685-3.367,3.277c-3.041-0.632-4.562-0.947-7.604-1.579
					c1.578-1.57,1.917-1.918,3.347-3.289C17.24,18.047,18.765,18.364,21.814,19.001z"/>
				<path fill="#C6C6C6" d="M17.916,19.504c-0.081-0.27-0.407-0.504-0.94-0.615c-0.412-0.086-0.876-0.082-1.302-0.008
					c0.021-0.02,0.031-0.029,0.053-0.05c-0.805-0.165-1.208-0.247-2.014-0.412c0.145,0.144,0.217,0.216,0.36,0.359
					c-0.335,0.043-0.502,0.064-0.837,0.108c0.146,0.143,0.218,0.213,0.362,0.356c-0.335,0.044-0.503,0.066-0.839,0.112
					c0.144,0.145,0.215,0.219,0.355,0.366c-0.338,0.048-0.508,0.073-0.85,0.125c0.801,0.165,1.201,0.248,2.002,0.414
					c0.022-0.022,0.033-0.032,0.055-0.054c0.142,0.203,0.424,0.374,0.836,0.459c0.531,0.11,1.155,0.054,1.675-0.106
					c-0.166,0.635,0.336,1.306,1.461,1.539c1.377-1.431,1.758-1.773,3.071-2.991C20.238,18.872,18.85,19.066,17.916,19.504z"/>
			</g>
		</g>
	</g>
</g>
</svg>
