<svg width="1440" height="41" viewBox="0 0 1440 41" fill="none" xmlns="http://www.w3.org/2000/svg">
<g clip-path="url(#clip0_1836_1252)">
<rect width="1440" height="41" fill="#1E30A6"/>
<path d="M1146.39 -2.60795L1149 -9.65065C1149.17 -10.1164 1149.83 -10.1164 1150 -9.65065L1152.61 -2.60779L1159.65 -0.00171947C1160.12 0.170583 1160.12 0.829576 1159.65 1.00188L1152.61 3.60795L1150 10.6508C1149.83 11.1166 1149.17 11.1166 1149 10.6508L1146.39 3.60795L1139.35 1.00188C1138.88 0.829576 1138.88 0.170583 1139.35 -0.00171947L1146.39 -2.60779L1146.39 -2.60795Z" fill="white"/>
<path d="M965.392 18.392L967.998 11.3493C968.17 10.8836 968.829 10.8836 969.002 11.3493L971.608 18.3922L978.651 20.9983C979.116 21.1706 979.116 21.8296 978.651 22.0019L971.608 24.608L969.002 31.6508C968.829 32.1166 968.17 32.1166 967.998 31.6508L965.392 24.608L958.349 22.0019C957.884 21.8296 957.884 21.1706 958.349 20.9983L965.392 18.3922L965.392 18.392Z" fill="white"/>
<path d="M322.392 36.392L324.998 29.3493C325.17 28.8836 325.829 28.8836 326.002 29.3493L328.608 36.3922L335.651 38.9983C336.116 39.1706 336.116 39.8296 335.651 40.0019L328.608 42.608L326.002 49.6508C325.829 50.1166 325.17 50.1166 324.998 49.6508L322.392 42.608L315.349 40.0019C314.884 39.8296 314.884 39.1706 315.349 38.9983L322.392 36.3922L322.392 36.392Z" fill="white"/>
<path d="M1349 34.9998L1349 6.00001L1320 6.00001C1320 22.0174 1332.98 34.9998 1349 34.9998Z" fill="#213CE7"/>
<path d="M1244.86 19.8721C1252.37 19.8721 1252.37 30.8962 1259.88 30.8962C1267.39 30.8962 1267.4 19.8721 1274.91 19.8721C1282.42 19.8721 1282.42 30.8962 1289.93 30.8962C1297.44 30.8962 1297.44 19.8721 1304.95 19.8721C1312.47 19.8721 1312.47 30.8962 1319.98 30.8962C1327.49 30.8962 1327.49 19.8721 1335 19.8721" stroke="#D841C3" stroke-width="4" stroke-linecap="round" stroke-linejoin="round"/>
<path d="M1244.86 31.7442L1221 22.1552V17.6461L1244.86 8V11.9954L1224.94 19.8721L1244.86 27.7488V31.7442Z" fill="#F5CD50"/>
<path d="M183 10L204 18.4808V22.4687L183 31L183 27.4663L200.535 20.5L183 13.5337L183 10Z" fill="#D841C3"/>
<path d="M99 19C105.667 19 105.667 29 112.333 29C118.999 29 119 19 125.666 19C132.332 19 132.333 29 139 29C145.666 29 145.666 19 152.333 19C159 19 159 29 165.666 29C172.332 29 172.333 19 179 19" stroke="#F5CD50" stroke-width="3" stroke-linecap="round" stroke-linejoin="round"/>
<path d="M464 20V44H488C488 30.7441 477.256 20 464 20Z" fill="#F6BE00"/>
</g>
<defs>
<clipPath id="clip0_1836_1252">
<rect width="1440" height="41" fill="white"/>
</clipPath>
</defs>
</svg>
