<svg width="1440" height="41" viewBox="0 0 1440 41" fill="none" xmlns="http://www.w3.org/2000/svg">
<g clip-path="url(#clip0_1836_1252)">
<rect width="1440" height="41" fill="#1E30A6"/>
<path d="M1146.39 -2.60795L1149 -9.65065C1149.17 -10.1164 1149.83 -10.1164 1150 -9.65065L1152.61 -2.60779L1159.65 -0.00171947C1160.12 0.170583 1160.12 0.829576 1159.65 1.00188L1152.61 3.60795L1150 10.6508C1149.83 11.1166 1149.17 11.1166 1149 10.6508L1146.39 3.60795L1139.35 1.00188C1138.88 0.829576 1138.88 0.170583 1139.35 -0.00171947L1146.39 -2.60779L1146.39 -2.60795Z" fill="white"/>
<path d="M965.392 18.392L967.998 11.3493C968.17 10.8836 968.829 10.8836 969.002 11.3493L971.608 18.3922L978.651 20.9983C979.116 21.1706 979.116 21.8296 978.651 22.0019L971.608 24.608L969.002 31.6508C968.829 32.1166 968.17 32.1166 967.998 31.6508L965.392 24.608L958.349 22.0019C957.884 21.8296 957.884 21.1706 958.349 20.9983L965.392 18.3922L965.392 18.392Z" fill="white"/>
<path d="M322.392 36.392L324.998 29.3493C325.17 28.8836 325.829 28.8836 326.002 29.3493L328.608 36.3922L335.651 38.9983C336.116 39.1706 336.116 39.8296 335.651 40.0019L328.608 42.608L326.002 49.6508C325.829 50.1166 325.17 50.1166 324.998 49.6508L322.392 42.608L315.349 40.0019C314.884 39.8296 314.884 39.1706 315.349 38.9983L322.392 36.3922L322.392 36.392Z" fill="white"/>
<path d="M1349 34.9998L1349 6.00001L1320 6.00001C1320 22.0174 1332.98 34.9998 1349 34.9998Z" fill="#213CE7"/>
<path d="M1244.86 19.8721C1252.37 19.8721 1252.37 30.8962 1259.88 30.8962C1267.39 30.8962 1267.4 19.8721 1274.91 19.8721C1282.42 19.8721 1282.42 30.8962 1289.93 30.8962C1297.44 30.8962 1297.44 19.8721 1304.95 19.8721C1312.47 19.8721 1312.47 30.8962 1319.98 30.8962C1327.49 30.8962 1327.49 19.8721 1335 19.8721" stroke="#D841C3" stroke-width="4" stroke-linecap="round" stroke-linejoin="round"/>
<path d="M1244.86 31.7442L1221 22.1552V17.6461L1244.86 8V11.9954L1224.94 19.8721L1244.86 27.7488V31.7442Z" fill="#F5CD50"/>
<path d="M183 10L204 18.4808V22.4687L183 31L183 27.4663L200.535 20.5L183 13.5337L183 10Z" fill="#D841C3"/>
<path d="M99 19C105.667 19 105.667 29 112.333 29C118.999 29 119 19 125.666 19C132.332 19 132.333 29 139 29C145.666 29 145.666 19 152.333 19C159 19 159 29 165.666 29C172.332 29 172.333 19 179 19" stroke="#F5CD50" stroke-width="3" stroke-linecap="round" stroke-linejoin="round"/>
<path d="M464 20V44H488C488 30.7441 477.256 20 464 20Z" fill="#F6BE00"/>
<path d="M48.7585 27V18.2727H54.6392V19.794H50.6037V21.8736H54.3366V23.3949H50.6037V25.4787H54.6562V27H48.7585ZM57.5891 20.4545L58.7908 22.7429L60.0224 20.4545H61.8846L59.9883 23.7273L61.9357 27H60.082L58.7908 24.7372L57.521 27H55.646L57.5891 23.7273L55.7141 20.4545H57.5891ZM62.9627 27V20.4545H64.7781V27H62.9627ZM63.8746 19.6108C63.6048 19.6108 63.3732 19.5213 63.18 19.3423C62.9897 19.1605 62.8945 18.9432 62.8945 18.6903C62.8945 18.4403 62.9897 18.2259 63.18 18.0469C63.3732 17.8651 63.6048 17.7741 63.8746 17.7741C64.1445 17.7741 64.3746 17.8651 64.565 18.0469C64.7582 18.2259 64.8548 18.4403 64.8548 18.6903C64.8548 18.9432 64.7582 19.1605 64.565 19.3423C64.3746 19.5213 64.1445 19.6108 63.8746 19.6108ZM69.7138 20.4545V21.8182H65.772V20.4545H69.7138ZM66.6669 18.8864H68.4822V24.9886C68.4822 25.1562 68.5078 25.2869 68.5589 25.3807C68.6101 25.4716 68.6811 25.5355 68.772 25.5724C68.8658 25.6094 68.9737 25.6278 69.0959 25.6278C69.1811 25.6278 69.2663 25.6207 69.3516 25.6065C69.4368 25.5895 69.5021 25.5767 69.5476 25.5682L69.8331 26.919C69.7422 26.9474 69.6143 26.9801 69.4496 27.017C69.2848 27.0568 69.0845 27.081 68.8487 27.0895C68.4112 27.1065 68.0277 27.0483 67.6982 26.9148C67.3714 26.7812 67.1172 26.5739 66.9354 26.2926C66.7536 26.0114 66.6641 25.6562 66.6669 25.2273V18.8864Z" fill="white"/>
<path d="M26.8 26.275C26.6 26.075 26.504 25.8333 26.512 25.55C26.5207 25.2667 26.625 25.025 26.825 24.825L28.65 23H21C20.7167 23 20.4793 22.904 20.288 22.712C20.096 22.5207 20 22.2833 20 22C20 21.7167 20.096 21.479 20.288 21.287C20.4793 21.0957 20.7167 21 21 21H28.65L26.8 19.15C26.6 18.95 26.5 18.7127 26.5 18.438C26.5 18.1627 26.6 17.925 26.8 17.725C27 17.525 27.2377 17.425 27.513 17.425C27.7877 17.425 28.025 17.525 28.225 17.725L31.8 21.3C31.9 21.4 31.971 21.5083 32.013 21.625C32.0543 21.7417 32.075 21.8667 32.075 22C32.075 22.1333 32.0543 22.2583 32.013 22.375C31.971 22.4917 31.9 22.6 31.8 22.7L28.2 26.3C28.0167 26.4833 27.7877 26.575 27.513 26.575C27.2377 26.575 27 26.475 26.8 26.275ZM22 31C21.45 31 20.979 30.8043 20.587 30.413C20.1957 30.021 20 29.55 20 29V26C20 25.7167 20.096 25.479 20.288 25.287C20.4793 25.0957 20.7167 25 21 25C21.2833 25 21.521 25.0957 21.713 25.287C21.9043 25.479 22 25.7167 22 26V29H36V15H22V18C22 18.2833 21.9043 18.5207 21.713 18.712C21.521 18.904 21.2833 19 21 19C20.7167 19 20.4793 18.904 20.288 18.712C20.096 18.5207 20 18.2833 20 18V15C20 14.45 20.1957 13.979 20.587 13.587C20.979 13.1957 21.45 13 22 13H36C36.55 13 37.021 13.1957 37.413 13.587C37.8043 13.979 38 14.45 38 15V29C38 29.55 37.8043 30.021 37.413 30.413C37.021 30.8043 36.55 31 36 31H22Z" fill="white"/>
</g>
<defs>
<clipPath id="clip0_1836_1252">
<rect width="1440" height="41" fill="white"/>
</clipPath>
</defs>
</svg>
