<?xml version="1.0" encoding="utf-8"?>
<!-- Generator: Adobe Illustrator 16.2.1, SVG Export Plug-In . SVG Version: 6.00 Build 0)  -->
<!DOCTYPE svg PUBLIC "-//W3C//DTD SVG 1.1//EN" "http://www.w3.org/Graphics/SVG/1.1/DTD/svg11.dtd">
<svg version="1.1" id="Layer_1" xmlns="http://www.w3.org/2000/svg" xmlns:xlink="http://www.w3.org/1999/xlink" x="0px" y="0px"
	 width="200px" height="200px" viewBox="0 0 200 200" enable-background="new 0 0 200 200" xml:space="preserve">
<g>
	<g>
		<rect x="-0.1" fill="#DDCF8A" width="198.9" height="200"/>
		<g>
			<g>
				<line fill="none" stroke="#B79C77" stroke-miterlimit="10" x1="3.082" y1="180.492" x2="28.261" y2="180.492"/>
				<line fill="none" stroke="#B79C77" stroke-miterlimit="10" x1="3.082" y1="140.143" x2="28.261" y2="140.143"/>
				<line fill="none" stroke="#B79C77" stroke-miterlimit="10" x1="3.082" y1="99.794" x2="28.261" y2="99.794"/>
				<line fill="none" stroke="#B79C77" stroke-miterlimit="10" x1="3.082" y1="59.447" x2="28.261" y2="59.447"/>
				<line fill="none" stroke="#B79C77" stroke-miterlimit="10" x1="3.082" y1="19.099" x2="28.261" y2="19.099"/>
			</g>
			<g>
				<line fill="none" stroke="#B79C77" stroke-miterlimit="10" x1="171.979" y1="180.492" x2="197.157" y2="180.492"/>
				<line fill="none" stroke="#B79C77" stroke-miterlimit="10" x1="171.979" y1="140.144" x2="197.157" y2="140.144"/>
				<line fill="none" stroke="#B79C77" stroke-miterlimit="10" x1="171.979" y1="99.795" x2="197.157" y2="99.795"/>
				<line fill="none" stroke="#B79C77" stroke-miterlimit="10" x1="171.979" y1="59.447" x2="197.157" y2="59.447"/>
				<line fill="none" stroke="#B79C77" stroke-miterlimit="10" x1="171.979" y1="19.099" x2="197.157" y2="19.099"/>
			</g>
		</g>
		<g>
			
				<line fill="none" stroke="#72612E" stroke-width="3" stroke-miterlimit="10" x1="27.306" y1="199.727" x2="172.893" y2="199.727"/>
			
				<line fill="none" stroke="#72612E" stroke-width="3" stroke-miterlimit="10" x1="27.306" y1="159.761" x2="172.893" y2="159.761"/>
			
				<line fill="none" stroke="#72612E" stroke-width="3" stroke-miterlimit="10" x1="27.306" y1="119.796" x2="172.893" y2="119.796"/>
			<line fill="none" stroke="#72612E" stroke-width="3" stroke-miterlimit="10" x1="27.306" y1="79.831" x2="172.893" y2="79.831"/>
			<line fill="none" stroke="#72612E" stroke-width="3" stroke-miterlimit="10" x1="27.306" y1="39.866" x2="172.893" y2="39.866"/>
			<line fill="none" stroke="#72612E" stroke-width="3" stroke-miterlimit="10" x1="27.306" y1="-0.1" x2="172.893" y2="-0.1"/>
		</g>
		<line fill="none" stroke="#72612E" stroke-width="3" stroke-miterlimit="10" x1="27.306" y1="200" x2="27.306" y2="-0.1"/>
		<line fill="none" stroke="#72612E" stroke-width="3" stroke-miterlimit="10" x1="172.891" y1="200" x2="172.891" y2="-0.1"/>
	</g>
	<linearGradient id="SVGID_1_" gradientUnits="userSpaceOnUse" x1="36.2744" y1="99.9502" x2="164.3252" y2="99.9502">
		<stop  offset="0" style="stop-color:#232323"/>
		<stop  offset="0.2245" style="stop-color:#303030"/>
		<stop  offset="0.7449" style="stop-color:#303030"/>
		<stop  offset="1" style="stop-color:#232323"/>
	</linearGradient>
	<rect x="36.274" y="-0.1" fill="url(#SVGID_1_)" width="128.051" height="200.1"/>
	<line fill="none" stroke="#101928" stroke-width="4" stroke-miterlimit="10" x1="36.274" y1="200" x2="36.274" y2="-0.1"/>
	<line fill="none" stroke="#101928" stroke-width="4" stroke-miterlimit="10" x1="164.325" y1="-0.1" x2="164.325" y2="200"/>
	<g>
		<g>
			<line fill="none" stroke="#F4D100" stroke-width="6" stroke-miterlimit="10" x1="100.3" y1="-0.1" x2="100.3" y2="29.9"/>
			
				<line fill="none" stroke="#F4D100" stroke-width="6" stroke-miterlimit="10" stroke-dasharray="70.031,35.0155" x1="100.3" y1="64.916" x2="100.3" y2="152.454"/>
			<line fill="none" stroke="#F4D100" stroke-width="6" stroke-miterlimit="10" x1="100.3" y1="169.962" x2="100.3" y2="199.962"/>
		</g>
	</g>
	<line fill="none" stroke="#72612E" stroke-width="3" stroke-miterlimit="10" x1="1.5" y1="200" x2="1.5" y2="0"/>
	<line fill="none" stroke="#72612E" stroke-width="3" stroke-miterlimit="10" x1="198.5" y1="0" x2="198.5" y2="200"/>
</g>
</svg>
