<?xml version="1.0" encoding="UTF-8" standalone="no"?>
<!-- Created with Inkscape (http://www.inkscape.org/) -->

<svg
   xmlns:dc="http://purl.org/dc/elements/1.1/"
   xmlns:cc="http://creativecommons.org/ns#"
   xmlns:rdf="http://www.w3.org/1999/02/22-rdf-syntax-ns#"
   xmlns:svg="http://www.w3.org/2000/svg"
   xmlns="http://www.w3.org/2000/svg"
   xmlns:inkscape="http://www.inkscape.org/namespaces/inkscape"
   version="1.1"
   width="121.25"
   height="101.25"
   id="svg2"
   xml:space="preserve"><metadata
     id="metadata8"><rdf:RDF><cc:Work
         rdf:about=""><dc:format>image/svg+xml</dc:format><dc:type
           rdf:resource="http://purl.org/dc/dcmitype/StillImage" /></cc:Work></rdf:RDF></metadata><defs
     id="defs6"><clipPath
       id="clipPath18"><path
         d="M 0,81 97,81 97,0 0,0 0,81 z"
         inkscape:connector-curvature="0"
         id="path20" /></clipPath></defs><g
     transform="matrix(1.25,0,0,-1.25,0,101.25)"
     id="g10"><path
       d="M 0,0 97,0 97,81 0,81 0,0 z"
       inkscape:connector-curvature="0"
       id="path12"
       style="fill:#eef7ff;fill-opacity:1;fill-rule:nonzero;stroke:none" /><g
       id="g14"><g
         clip-path="url(#clipPath18)"
         id="g16"><g
           transform="translate(65.5132,44.1592)"
           id="g22"><path
             d="m 0,0 c -4.104,0.948 -8.084,0.046 -11.818,-1.748 1.318,3.669 4.89,5.021 8.425,5.679 -4.062,-0.43 -8.357,-1.953 -9.574,-6.322 -1.088,-0.66 -2.142,-1.359 -3.112,-2.185 -2.549,2.053 -5.664,3.711 -8.995,3.934 -3.288,0.469 -7.147,-0.246 -10.069,-1.842 5.974,2.547 13.029,1.078 17.62,-3.383 -1.607,-1.578 -3.147,-3.345 -4.148,-5.382 3.11,2.796 6.502,5.459 10.196,7.437 2.116,1.133 4.301,2.027 6.619,2.649 1.997,0.452 3.944,0.645 5.972,0.874 0,0 -0.397,0.116 -1.116,0.289 -0.359,0.083 0.719,-0.173 0,0"
             inkscape:connector-curvature="0"
             id="path24"
             style="fill:#b6e7ef;fill-opacity:1;fill-rule:nonzero;stroke:none" /></g></g></g></g></svg>