<?xml version="1.0" encoding="UTF-8" standalone="no"?>
<!-- Created with Inkscape (http://www.inkscape.org/) -->

<svg
   xmlns:dc="http://purl.org/dc/elements/1.1/"
   xmlns:cc="http://creativecommons.org/ns#"
   xmlns:rdf="http://www.w3.org/1999/02/22-rdf-syntax-ns#"
   xmlns:svg="http://www.w3.org/2000/svg"
   xmlns="http://www.w3.org/2000/svg"
   xmlns:inkscape="http://www.inkscape.org/namespaces/inkscape"
   version="1.1"
   width="213.75"
   height="202.5"
   id="svg2"
   xml:space="preserve"><metadata
     id="metadata8"><rdf:RDF><cc:Work
         rdf:about=""><dc:format>image/svg+xml</dc:format><dc:type
           rdf:resource="http://purl.org/dc/dcmitype/StillImage" /></cc:Work></rdf:RDF></metadata><defs
     id="defs6"><clipPath
       id="clipPath20"><path
         d="M 0,162 171,162 171,0 0,0 0,162 z"
         inkscape:connector-curvature="0"
         id="path22" /></clipPath><clipPath
       id="clipPath36"><path
         d="m 25.8374,134.5 119.3256,0 0,-108 -119.3256,0 0,108 z"
         inkscape:connector-curvature="0"
         id="path38" /></clipPath></defs><g
     transform="matrix(1.25,0,0,-1.25,0,202.5)"
     id="g10"><path
       d="M 0,0 171,0 171,162 0,162 0,0 z"
       inkscape:connector-curvature="0"
       id="path12"
       style="fill:#eef7ff;fill-opacity:1;fill-rule:nonzero;stroke:none" /><path
       d="m 24.837,28.5 121.325,0 0,106 -121.325,0 0,-106 z"
       inkscape:connector-curvature="0"
       id="path14"
       style="fill:#a0c53a;fill-opacity:1;fill-rule:nonzero;stroke:none" /><g
       id="g16"><g
         clip-path="url(#clipPath20)"
         id="g18"><g
           transform="translate(59.4185,86.5059)"
           id="g24"><path
             d="M 0,0 C -0.072,0.583 -0.272,1.122 -0.5,1.651 -0.724,2.182 -0.98,2.698 -1.249,3.21 L -2.892,6.289 C -3.421,7.335 -3.938,8.4 -4.331,9.56 c -0.195,0.58 -0.345,1.19 -0.409,1.846 -0.062,0.649 -0.026,1.382 0.3,2.087 0.073,0.178 0.177,0.342 0.288,0.504 0.046,0.06 0.013,0.037 0.123,0.165 l 0.072,0.082 0.144,0.163 c 0.345,0.331 0.811,0.613 1.378,0.619 0.575,-0.003 0.988,-0.258 1.308,-0.486 0.322,-0.242 0.553,-0.502 0.769,-0.763 0.825,-1.05 1.334,-2.139 1.835,-3.233 0.481,-1.097 0.882,-2.21 1.269,-3.32 L 3.85,3.949 1.948,3.349 C 1.786,4.056 1.753,4.621 1.712,5.226 1.678,5.82 1.667,6.408 1.672,6.997 c 0.021,1.174 0.08,2.35 0.274,3.525 0.193,1.174 0.457,2.355 1.015,3.522 0.289,0.576 0.656,1.176 1.275,1.649 0.61,0.493 1.55,0.656 2.265,0.474 l 0.069,-0.014 0.035,-0.007 0.017,-0.003 0.092,-0.028 0.1,-0.039 C 6.896,16.039 6.91,16.05 7.049,15.973 7.167,15.909 7.283,15.836 7.392,15.759 7.481,15.683 7.553,15.607 7.631,15.528 7.915,15.208 8.09,14.849 8.187,14.518 8.395,13.846 8.422,13.22 8.407,12.614 8.365,11.405 8.17,10.26 7.925,9.132 7.667,8.007 7.371,6.902 7.038,5.81 6.718,4.713 6.328,3.643 6.037,2.542 c 0.087,1.142 0.297,2.267 0.465,3.39 0.171,1.123 0.351,2.241 0.463,3.359 0.124,1.112 0.21,2.232 0.142,3.298 -0.038,0.527 -0.113,1.049 -0.274,1.454 -0.074,0.21 -0.184,0.359 -0.283,0.456 L 6.479,14.56 c -0.012,-0.003 -0.016,0 -0.019,0.01 0.024,0.009 -0.11,0.039 -0.157,0.058 L 6.201,14.66 6.195,14.662 C 6.228,14.652 6.111,14.687 6.268,14.64 L 6.259,14.641 6.241,14.642 6.206,14.645 C 5.812,14.691 5.533,14.619 5.26,14.379 4.989,14.138 4.733,13.751 4.54,13.303 4.15,12.4 3.938,11.331 3.812,10.26 3.688,9.185 3.619,8.085 3.623,6.989 3.625,6.44 3.643,5.893 3.682,5.353 3.719,4.825 3.78,4.253 3.88,3.852 L 1.978,3.253 C 1.761,3.85 1.602,4.394 1.423,4.95 L 0.894,6.597 c -0.359,1.09 -0.747,2.164 -1.166,3.21 -0.417,1.034 -0.881,2.082 -1.467,2.885 -0.274,0.401 -0.667,0.672 -0.716,0.652 -0.024,0.009 -0.089,-0.015 -0.182,-0.057 L -2.792,13.133 -2.869,13.057 C -2.806,13.129 -2.876,13.043 -2.873,13.044 -2.932,12.97 -2.994,12.896 -3.035,12.805 -3.442,12.111 -3.311,10.971 -3.065,9.921 -2.813,8.845 -2.41,7.768 -1.993,6.694 -1.585,5.612 -1.13,4.539 -0.738,3.432 -0.361,2.332 0.043,1.181 0,0"
             inkscape:connector-curvature="0"
             id="path26"
             style="fill:#709922;fill-opacity:1;fill-rule:nonzero;stroke:none" /></g><g
           transform="translate(102.1177,60.7725)"
           id="g28"><path
             d="M 0,0 C -0.072,0.583 -0.272,1.122 -0.5,1.651 -0.724,2.182 -0.98,2.698 -1.249,3.21 L -2.892,6.289 C -3.421,7.335 -3.938,8.4 -4.331,9.56 c -0.195,0.58 -0.345,1.19 -0.409,1.846 -0.062,0.649 -0.026,1.382 0.3,2.087 0.073,0.178 0.177,0.342 0.288,0.504 0.046,0.06 0.013,0.037 0.123,0.165 l 0.072,0.082 0.144,0.163 c 0.345,0.331 0.811,0.613 1.378,0.619 0.575,-0.003 0.988,-0.258 1.308,-0.486 0.322,-0.242 0.553,-0.502 0.769,-0.763 0.825,-1.05 1.334,-2.139 1.835,-3.233 0.481,-1.097 0.882,-2.21 1.269,-3.32 L 3.85,3.949 1.948,3.349 C 1.786,4.056 1.753,4.621 1.712,5.226 1.678,5.82 1.667,6.408 1.672,6.997 c 0.021,1.174 0.08,2.35 0.274,3.525 0.193,1.174 0.457,2.355 1.015,3.522 0.289,0.576 0.656,1.176 1.275,1.649 0.61,0.493 1.55,0.656 2.265,0.474 l 0.069,-0.014 0.035,-0.007 0.017,-0.003 0.092,-0.028 0.1,-0.039 C 6.896,16.039 6.91,16.05 7.049,15.973 7.167,15.909 7.283,15.836 7.392,15.759 7.481,15.683 7.553,15.607 7.631,15.528 7.915,15.208 8.09,14.849 8.187,14.518 8.395,13.846 8.422,13.22 8.407,12.614 8.365,11.405 8.17,10.26 7.925,9.132 7.667,8.007 7.371,6.902 7.038,5.81 6.718,4.713 6.328,3.643 6.037,2.542 c 0.087,1.142 0.297,2.267 0.465,3.39 0.171,1.123 0.351,2.241 0.463,3.359 0.124,1.112 0.21,2.232 0.142,3.298 -0.038,0.527 -0.113,1.049 -0.274,1.454 -0.074,0.21 -0.184,0.359 -0.283,0.456 L 6.479,14.56 c -0.012,-0.003 -0.016,0 -0.019,0.01 0.024,0.009 -0.11,0.039 -0.157,0.058 L 6.201,14.66 6.195,14.662 C 6.228,14.652 6.111,14.687 6.268,14.64 L 6.259,14.641 6.241,14.642 6.206,14.645 C 5.812,14.691 5.533,14.619 5.26,14.379 4.989,14.138 4.733,13.751 4.54,13.303 4.15,12.4 3.938,11.331 3.812,10.26 3.688,9.185 3.619,8.085 3.623,6.989 3.625,6.44 3.643,5.893 3.682,5.353 3.719,4.825 3.78,4.253 3.88,3.852 L 1.978,3.253 C 1.761,3.85 1.602,4.394 1.423,4.95 L 0.894,6.597 c -0.359,1.09 -0.747,2.164 -1.166,3.21 -0.417,1.034 -0.881,2.082 -1.467,2.885 -0.274,0.401 -0.667,0.672 -0.716,0.652 -0.024,0.009 -0.089,-0.015 -0.182,-0.057 L -2.792,13.133 -2.869,13.057 C -2.806,13.129 -2.876,13.043 -2.873,13.044 -2.932,12.97 -2.994,12.896 -3.035,12.805 -3.442,12.111 -3.311,10.971 -3.065,9.921 -2.813,8.845 -2.41,7.768 -1.993,6.694 -1.585,5.612 -1.13,4.539 -0.738,3.432 -0.361,2.332 0.043,1.181 0,0"
             inkscape:connector-curvature="0"
             id="path30"
             style="fill:#709922;fill-opacity:1;fill-rule:nonzero;stroke:none" /></g><g
           id="g32"><g
             id="g34" /><g
             id="g40"><g
               clip-path="url(#clipPath36)"
               id="g42"
               style="opacity:0.19999701"><g
                 transform="translate(121.8989,58.6484)"
                 id="g44"><path
                   d="m 0,0 c -7.74,-0.502 -14.795,-2.504 -20.461,-5.55 -3.516,3.506 -8.365,5.674 -13.722,5.674 -6.391,0 -12.044,-3.099 -15.587,-7.86 -2.53,6.211 -8.62,10.593 -15.74,10.593 -3.448,0 -6.651,-1.033 -9.331,-2.797 2.241,4.002 3.524,8.612 3.524,13.525 0,8.807 -4.111,16.649 -10.513,21.728 1.951,3.613 3.059,7.702 3.059,12.039 0,0.505 -0.019,1.007 -0.048,1.506 2.51,-0.651 5.163,-1.006 7.911,-1.006 5.918,0 11.406,1.622 15.936,4.387 3.371,-2.685 8.278,-4.387 13.759,-4.387 1.738,0 3.414,0.181 5.008,0.5 7.38,-8.879 20.263,-14.767 34.934,-14.767 1.794,0 3.56,0.098 5.295,0.269 C 0.646,27.083 -1.271,19.417 -1.271,11.286 -1.271,7.401 -0.822,3.627 0,0 m 23.264,75.852 -119.325,0 0,-108 119.325,0 0,108 z"
                   inkscape:connector-curvature="0"
                   id="path46"
                   style="fill:#183049;fill-opacity:1;fill-rule:nonzero;stroke:none" /></g></g></g></g><g
           transform="translate(120.8989,60.6484)"
           id="g48"><path
             d="m 0,0 c -7.74,-0.502 -14.795,-2.504 -20.461,-5.55 -3.516,3.506 -8.365,5.674 -13.722,5.674 -6.391,0 -12.044,-3.099 -15.587,-7.86 -2.53,6.211 -8.62,10.593 -15.74,10.593 -3.448,0 -6.651,-1.033 -9.331,-2.797 2.241,4.002 3.524,8.612 3.524,13.525 0,8.807 -4.111,16.649 -10.513,21.728 1.951,3.613 3.059,7.702 3.059,12.039 0,0.505 -0.019,1.007 -0.048,1.506 2.51,-0.651 5.163,-1.006 7.911,-1.006 5.918,0 11.406,1.622 15.936,4.387 3.371,-2.685 8.278,-4.387 13.759,-4.387 1.738,0 3.414,0.181 5.008,0.5 7.38,-8.879 20.263,-14.767 34.934,-14.767 1.794,0 3.56,0.098 5.295,0.269 C 0.646,27.083 -1.271,19.417 -1.271,11.286 -1.271,7.401 -0.822,3.627 0,0 m 27.264,75.852 -125.325,0 0,-111 125.325,0 0,111 z"
             inkscape:connector-curvature="0"
             id="path50"
             style="fill:#eef7ff;fill-opacity:1;fill-rule:nonzero;stroke:none" /></g><g
           transform="translate(114.8706,99.0898)"
           id="g52"><path
             d="m 0,0 c -11.211,0 -21.952,3.615 -30.269,9.875 1.405,0.256 2.739,0.703 4,1.342 -3.578,-0.382 -7.24,-0.361 -10.806,0.157 -3.147,0.33 -6.196,1.215 -9.123,2.388 -1.916,0.796 -3.761,1.735 -5.537,2.817 0.568,-0.761 1.214,-1.45 1.937,-2.067 -0.032,-0.017 -0.059,-0.033 -0.093,-0.051 -6.301,-3.53 -15.977,-3.784 -22.923,-2.956 0,0 -0.794,2.435 -0.954,2.974 0.129,-0.546 0.511,-2.369 0.583,-2.789 0.281,-2.025 0.03,-4.186 -0.356,-6.211 -0.327,-2.412 -1.827,-6.283 -2.675,-8.327 l 0.828,-0.561 c 1.554,2.697 2.493,5.722 2.744,8.832 0.222,1.667 0.038,3.38 -0.159,5.036 7.063,-2.094 17.534,-1.588 23.568,3.006 0.148,0.104 0.266,0.199 0.367,0.285 0.951,-0.726 1.955,-1.331 2.992,-1.916 0.356,-0.17 0.72,-0.343 1.091,-0.52 0.77,-0.354 1.56,-0.651 2.372,-0.894 3.93,-1.119 8.124,-1.391 12.139,-0.546 8.673,-10.268 24.123,-16.052 40.103,-14.456 1,2.223 2.156,4.357 3.459,6.392 C 9.056,0.639 4.604,0 0,0"
             inkscape:connector-curvature="0"
             id="path54"
             style="fill:#b6e7ef;fill-opacity:1;fill-rule:nonzero;stroke:none" /></g><g
           transform="translate(68.8359,49.0352)"
           id="g56"><path
             d="m 0,0 c 0.515,3.219 3.25,6.172 5.876,7.889 4.523,3.091 9.804,4.114 15.166,3.629 C 24.079,11.281 27.25,9.698 29.665,7.92 31.82,6.33 33.923,4.248 35.147,1.834 30.274,6.074 24.073,8.975 17.524,8.719 11.247,8.473 3.398,5.631 0,0"
             inkscape:connector-curvature="0"
             id="path58"
             style="fill:#b6e7ef;fill-opacity:1;fill-rule:nonzero;stroke:none" /></g><g
           transform="translate(45.6226,60.9531)"
           id="g60"><path
             d="m 0,0 c 4.799,17.266 -0.974,31.446 -16.787,38.75 5.42,-0.208 10.433,-2.553 13.988,-6.715 C 5.439,23.079 5.814,9.916 0.871,-0.49 L 0,0 z"
             inkscape:connector-curvature="0"
             id="path62"
             style="fill:#b6e7ef;fill-opacity:1;fill-rule:nonzero;stroke:none" /></g><g
           transform="translate(70.3501,52.2432)"
           id="g64"><path
             d="m 0,0 c -0.616,2.806 -3.351,5.038 -5.679,6.449 -1.734,1.052 -3.681,2.048 -5.668,2.55 -3.464,0.873 -7.136,0.275 -10.474,-0.833 -2.728,-0.905 -5.191,-2.375 -7.86,-3.415 0,0 0.342,0.478 1.086,1.148 0.739,0.678 1.917,1.481 3.424,2.291 1.497,0.823 3.327,1.668 5.414,2.278 2.075,0.621 4.441,0.962 6.817,0.724 C -8.744,10.731 -4.528,8.419 -1.658,5.388 -1.056,4.736 -0.556,4.085 -0.181,3.46 0.191,2.833 0.457,2.252 0.634,1.755 0.825,1.229 0.982,0.658 0.995,0.095 L 0,0 z"
             inkscape:connector-curvature="0"
             id="path66"
             style="fill:#b6e7ef;fill-opacity:1;fill-rule:nonzero;stroke:none" /></g><g
           transform="translate(99.9917,55.2344)"
           id="g68"><path
             d="m 0,0 c 4.095,2.195 8.813,3.558 13.356,4.423 2.6,0.495 5.274,0.945 7.926,1.025 1.74,0.053 3.488,0.019 5.229,0.026 C 22.236,5.139 18.083,4.684 13.929,3.569 11.482,2.913 9.091,2.116 6.758,1.127 5.614,0.643 4.496,0.131 3.382,-0.419 3.118,-0.549 0.983,-1.46 0.983,-1.742 L 0,0 z"
             inkscape:connector-curvature="0"
             id="path70"
             style="fill:#b6e7ef;fill-opacity:1;fill-rule:nonzero;stroke:none" /></g><g
           transform="translate(130.8989,104.6201)"
           id="g72"><path
             d="m 0,0 c -0.172,0 -0.684,-0.937 -0.763,-1.056 -0.548,-0.828 -1.057,-1.685 -1.531,-2.558 -0.931,-1.664 -1.765,-3.396 -2.522,-5.144 -1.686,-3.883 -3.058,-7.938 -3.901,-12.089 -0.819,-4.04 -1.168,-8.174 -1.203,-12.291 -0.031,-3.609 0.176,-7.316 1.119,-10.816 -0.171,-0.063 -0.937,-0.463 -1.074,-0.387 -0.344,0.191 -0.556,1.875 -0.634,2.226 -0.45,2.003 -0.682,4.044 -0.794,6.091 -0.242,4.416 0.121,8.917 0.942,13.261 0.846,4.494 2.307,8.886 4.271,13.013 1.598,3.359 3.44,7.081 6.09,9.75"
             inkscape:connector-curvature="0"
             id="path74"
             style="fill:#b6e7ef;fill-opacity:1;fill-rule:nonzero;stroke:none" /></g></g></g></g></svg>