<?xml version="1.0" encoding="utf-8"?>
<!-- Generator: Adobe Illustrator 16.2.1, SVG Export Plug-In . SVG Version: 6.00 Build 0)  -->
<!DOCTYPE svg PUBLIC "-//W3C//DTD SVG 1.1//EN" "http://www.w3.org/Graphics/SVG/1.1/DTD/svg11.dtd">
<svg version="1.1" xmlns="http://www.w3.org/2000/svg" xmlns:xlink="http://www.w3.org/1999/xlink" x="0px" y="0px"
	 width="219.814px" height="219.814px" viewBox="0 0 219.814 219.814" enable-background="new 0 0 219.814 219.814"
	 xml:space="preserve">
<g id="bg">
	<g>
		<linearGradient id="SVGID_1_" gradientUnits="userSpaceOnUse" x1="109.9067" y1="9.9463" x2="109.9067" y2="186.3546">
			<stop  offset="0" style="stop-color:#050505"/>
			<stop  offset="1" style="stop-color:#111111"/>
		</linearGradient>
		<circle fill="url(#SVGID_1_)" stroke="#3A3A3A" stroke-width="7" stroke-miterlimit="10" cx="109.907" cy="109.907" r="106.407"/>
		<circle fill="none" stroke="#E8E8E8" stroke-miterlimit="10" cx="109.907" cy="109.907" r="92.574"/>
		<g>
			<g>
				<path fill="none" stroke="#FFFFFF" stroke-width="4" stroke-miterlimit="10" d="M32.451,149.606
					c-0.076-0.148-0.151-0.297-0.227-0.445"/>
				<path fill="none" stroke="#FFFFFF" stroke-width="4" stroke-miterlimit="10" stroke-dasharray="0.9925,16.872" d="
					M26.114,133.462c-2.103-7.492-3.227-15.393-3.227-23.555c0-48.059,38.96-87.02,87.02-87.02c48.059,0,87.02,38.961,87.02,87.02
					c0,11.652-2.291,22.77-6.445,32.928"/>
				<path fill="none" stroke="#FFFFFF" stroke-width="4" stroke-miterlimit="10" d="M186.913,150.472
					c-0.076,0.146-0.154,0.295-0.234,0.441"/>
			</g>
		</g>
		<g>
			<g>
				<path fill="none" stroke="#E8E8E8" stroke-width="10" stroke-miterlimit="10" d="M32.451,149.606
					c-0.076-0.148-0.151-0.297-0.227-0.445"/>
				<path fill="none" stroke="#E8E8E8" stroke-width="10" stroke-miterlimit="10" stroke-dasharray="1.0209,34.7109" d="
					M23.092,115.911c-0.136-1.984-0.204-3.986-0.204-6.004c0-48.059,38.96-87.02,87.02-87.02c48.059,0,87.02,38.961,87.02,87.02
					c0,8.508-1.221,16.732-3.498,24.506"/>
				<path fill="none" stroke="#E8E8E8" stroke-width="10" stroke-miterlimit="10" d="M186.913,150.472
					c-0.076,0.146-0.154,0.295-0.234,0.441"/>
			</g>
		</g>
	</g>
	<g>
		<g>
			<g>
				<circle fill="#111111" cx="109.907" cy="162.407" r="31.922"/>
				<path fill="#FFFFFF" d="M109.907,194.778c-17.85,0-32.372-14.521-32.372-32.371s14.522-32.373,32.372-32.373
					s32.371,14.523,32.371,32.373S127.757,194.778,109.907,194.778z M109.907,130.935c-17.354,0-31.473,14.119-31.473,31.473
					s14.119,31.473,31.473,31.473s31.473-14.119,31.473-31.473S127.261,130.935,109.907,130.935z"/>
			</g>
			<g>
				<path fill="#FFFFFF" d="M109.907,190.329c-15.396,0-27.922-12.525-27.922-27.922s12.525-27.922,27.922-27.922
					s27.922,12.525,27.922,27.922S125.304,190.329,109.907,190.329z M109.907,134.784c-15.23,0-27.622,12.393-27.622,27.623
					s12.392,27.621,27.622,27.621s27.621-12.391,27.621-27.621S125.138,134.784,109.907,134.784z"/>
			</g>
			<g>
				<g>
					<path fill="#FFFFFF" d="M135.507,170.038l-1.15-0.34l0.082-0.281l1.152,0.33L135.507,170.038z M136.519,164.661l-1.195-0.102
						c0.008-0.096,0.016-0.191,0.021-0.289l1.197,0.086C136.536,164.458,136.528,164.56,136.519,164.661z M135.229,159.335
						l-0.037-0.291l1.191-0.156l0.037,0.301L135.229,159.335z M84.636,158.938l-1.189-0.164l0.043-0.299l1.188,0.172L84.636,158.938
						z M134.077,154.237c-0.031-0.092-0.062-0.184-0.096-0.275l1.133-0.396c0.033,0.096,0.066,0.191,0.1,0.287L134.077,154.237z
						 M85.868,153.86l-1.131-0.402c0.035-0.096,0.069-0.191,0.104-0.287l1.126,0.414C85.935,153.677,85.901,153.769,85.868,153.86z
						 M131.901,149.485c-0.049-0.082-0.098-0.166-0.146-0.248l1.025-0.621c0.053,0.086,0.105,0.174,0.156,0.262L131.901,149.485z
						 M88.117,149.142l-1.024-0.625c0.054-0.086,0.107-0.174,0.161-0.26l1.017,0.639C88.219,148.978,88.168,149.06,88.117,149.142z
						 M128.806,145.278c-0.066-0.072-0.131-0.145-0.197-0.215l0.879-0.816c0.068,0.074,0.139,0.148,0.207,0.225L128.806,145.278z
						 M91.282,144.981l-0.877-0.82c0.069-0.072,0.139-0.146,0.209-0.221l0.868,0.83C91.415,144.841,91.349,144.911,91.282,144.981z
						 M124.917,141.784c-0.078-0.059-0.158-0.115-0.236-0.172l0.697-0.977c0.082,0.059,0.164,0.119,0.246,0.178L124.917,141.784z
						 M95.224,141.55l-0.692-0.98c0.083-0.059,0.166-0.117,0.25-0.174l0.681,0.988C95.382,141.438,95.303,141.493,95.224,141.55z
						 M120.401,139.153c-0.088-0.041-0.178-0.08-0.266-0.119l0.48-1.1c0.094,0.041,0.186,0.082,0.279,0.125L120.401,139.153z
						 M99.78,138.991l-0.479-1.102c0.094-0.041,0.187-0.08,0.279-0.119l0.465,1.105C99.957,138.915,99.868,138.952,99.78,138.991z
						 M115.44,137.503c-0.094-0.021-0.188-0.041-0.281-0.061l0.244-1.176c0.102,0.021,0.201,0.043,0.301,0.066L115.44,137.503z
						 M104.761,137.421l-0.24-1.176c0.1-0.02,0.199-0.041,0.299-0.059l0.227,1.178C104.951,137.382,104.856,137.401,104.761,137.421
						z M110.253,136.903l-0.292-0.002l0.003-1.201l0.304,0.004L110.253,136.903z"/>
					<polygon fill="#FFFFFF" points="133.466,174.993 132.411,174.423 132.478,174.298 133.54,174.854 					"/>
				</g>
			</g>
			<g>
				<path fill="#C0272D" d="M85.385,163.896c-0.015-0.023-0.029-0.053-0.044-0.074c0,0-2.511,0.137-2.995,0.162
					c-0.005,4.34,1.336,8.012,2.99,11.02l2.669-1.371c0.002-0.031,0.002-0.07,0.003-0.104
					C86.517,170.604,85.593,167.345,85.385,163.896z"/>
				<path fill="#FFFFFF" d="M137.415,164.745l-2.99-0.25c0.01-0.096,0.016-0.191,0.023-0.287l2.992,0.215
					C137.433,164.53,137.425,164.638,137.415,164.745z"/>
				<path fill="#FFFFFF" d="M133.228,154.536l-0.096-0.275l2.832-0.99c0.035,0.102,0.07,0.201,0.105,0.303L133.228,154.536z"/>
				<path fill="#FFFFFF" d="M86.716,154.163l-2.827-1.002c0.037-0.105,0.074-0.209,0.113-0.312l2.811,1.049
					C86.78,153.985,86.747,154.073,86.716,154.163z"/>
				<path fill="#FFFFFF" d="M128.146,145.89l-0.195-0.213l2.197-2.043c0.072,0.078,0.145,0.158,0.217,0.236L128.146,145.89z"/>
				<polygon fill="#FFFFFF" points="91.937,145.599 89.747,143.548 89.966,143.317 92.139,145.386 				"/>
				<path fill="#FFFFFF" d="M120.038,139.978c-0.088-0.041-0.176-0.08-0.264-0.119l1.201-2.748c0.1,0.043,0.199,0.088,0.297,0.131
					L120.038,139.978z"/>
				<path fill="#FFFFFF" d="M100.136,139.817l-1.193-2.752c0.098-0.043,0.196-0.086,0.296-0.127l1.163,2.766
					C100.312,139.741,100.225,139.778,100.136,139.817z"/>
				<polygon fill="#FFFFFF" points="110.25,137.804 109.957,137.802 109.966,134.802 110.285,134.804 				"/>
				<polygon fill="#FFFFFF" points="134.259,175.421 131.618,173.995 131.681,173.882 134.339,175.272 				"/>
			</g>
		</g>
		<path fill-rule="evenodd" clip-rule="evenodd" fill="#FFFFFF" d="M107.291,170.864h5.179c0.33,0,0.602,0.312,0.602,0.695v5.121
			c0.588-0.037,1.592,0.016,1.592,0.832v3.799c0,0.404,0.076,0.633,0.203,0.748c0.127,0.113,0.338,0.146,0.596,0.146h0.004v0.002
			c0.236-0.002,0.424-0.082,0.553-0.205c0.119-0.115,0.186-0.271,0.186-0.438v-0.002v-5.361l0.109-1.127l-0.4-1.029
			c-0.342-0.557-0.689-0.812-0.689-0.816l0.223-0.295c0.002,0.002,0.393,0.289,0.771,0.906l0.73,0.459l0.148,1.238l-0.15,0.664
			v5.361v0.002c0,0.363-0.146,0.711-0.41,0.971c-0.26,0.25-0.623,0.412-1.07,0.412v0.002h-0.004c-0.428,0-0.803-0.078-1.09-0.338
			c-0.287-0.256-0.451-0.66-0.451-1.301v-3.799c0-0.172-0.514-0.137-0.85-0.096v5.404h0.447c0.234,0,0.424,0.189,0.424,0.424v0.582
			c0,0.234-0.189,0.424-0.424,0.424h-7.276c-0.234,0-0.424-0.189-0.424-0.424v-0.582c0-0.234,0.19-0.424,0.424-0.424h0.446V171.56
			C106.688,171.177,106.96,170.864,107.291,170.864L107.291,170.864z M107.983,171.638c-0.34,0-0.619,0.279-0.619,0.619v3.52
			c0,0.342,0.279,0.619,0.619,0.619h3.791c0.344,0,0.621-0.277,0.621-0.619v-3.52c0-0.34-0.277-0.619-0.621-0.619H107.983z"/>
	</g>
</g>
<g id="needleFuel">
	<path fill="#F05A24" stroke="#BC3A11" stroke-miterlimit="10" d="M109.907,136.901c0,0-2.311,24.619-2.311,25.764
		s1.035,2.072,2.311,2.072s2.311-0.928,2.311-2.072S109.907,136.901,109.907,136.901z M109.907,163.743
		c-0.598,0-1.082-0.436-1.082-0.971c0-0.537,0.484-0.971,1.082-0.971s1.082,0.434,1.082,0.971
		C110.989,163.308,110.505,163.743,109.907,163.743z"/>
</g>
<g id="needleSpeed">
	<path fill="#F05A24" stroke="#BC3A11" stroke-width="2" stroke-miterlimit="10" d="M109.908,23.435c0,0-6.979,82.917-6.979,86.771
		c0,3.854,3.125,6.979,6.979,6.979s6.978-3.125,6.978-6.979C116.886,106.352,109.908,23.435,109.908,23.435z M109.908,113.837
		c-1.806,0-3.269-1.465-3.269-3.27s1.463-3.27,3.269-3.27c1.804,0,3.269,1.465,3.269,3.27S111.712,113.837,109.908,113.837z"/>
</g>
<g id="shine">
	<g>
		<linearGradient id="SVGID_2_" gradientUnits="userSpaceOnUse" x1="109.9067" y1="5.8555" x2="109.9067" y2="115.973">
			<stop  offset="0" style="stop-color:#FFFFFF;stop-opacity:0.4"/>
			<stop  offset="1" style="stop-color:#FFFFFF;stop-opacity:0"/>
		</linearGradient>
		<path fill="url(#SVGID_2_)" d="M200.751,86.907c0,50.17-37.953,11.059-90.844,11.059s-90.844,39.111-90.844-11.059
			c0-32.939,43.466-72.468,90.844-72.468C157.284,14.439,200.751,54.987,200.751,86.907z"/>
		
			<radialGradient id="SVGID_3_" cx="108.9067" cy="6634.8809" r="177.5638" gradientTransform="matrix(1 0 0 -0.2806 0 2021.7631)" gradientUnits="userSpaceOnUse">
			<stop  offset="0.2893" style="stop-color:#FFFFFF;stop-opacity:0"/>
			<stop  offset="1" style="stop-color:#FFFFFF;stop-opacity:0.4"/>
		</radialGradient>
		<path fill="url(#SVGID_3_)" d="M179.013,171.216c0-24.467-28.871-5.393-69.105-5.393s-69.106-19.074-69.106,5.393
			c0,16.062,33.065,35.338,69.106,35.338S179.013,186.78,179.013,171.216z"/>
	</g>
</g>
</svg>
