<!DOCTYPE svg PUBLIC '-//W3C//DTD SVG 1.1//EN' 'http://www.w3.org/Graphics/SVG/1.1/DTD/svg11.dtd'>
<svg xmlns="http://www.w3.org/2000/svg" xml:space="preserve" version="1.1" xmlns:xlink="http://www.w3.org/1999/xlink" viewBox="0 0 385.594 251.695" enable-background="new 0 0 385.594 251.695">
			<linearGradient id="h" y2="202.07" gradientUnits="userSpaceOnUse" y1="25.664" x2="134.88" x1="134.88">
				<stop stop-color="#050505" offset="0"/>
				<stop stop-color="#111" offset="1"/>
			</linearGradient>
			<circle cy="125.62" cx="134.88" r="106.41" fill="url(#h)"/>
				<g stroke="#fff" stroke-width="4" stroke-miterlimit="10" fill="none">
					<path d="m57.422 165.32c-0.076-0.148-0.152-0.297-0.227-0.445"/>
					<path stroke-dasharray="0.9604,28.8111" d="m48.663 137.5c-0.53-3.883-0.804-7.848-0.804-11.876 0-48.059 38.96-87.02 87.02-87.02 48.059 0 87.02 38.961 87.02 87.02 0 9.543-1.536 18.727-4.375 27.317"/>
					<path d="m211.88 166.19c-0.077 0.147-0.155 0.295-0.234 0.441"/>
				</g>
			<path d="m134.88 223.78c55.466 0 101.01-52.042 105.96-106.22 0.294 3.225 0.452 6.488 0.452 9.789 0 58.767-47.64 106.41-106.41 106.41s-106.41-47.65-106.41-106.42c0-3.301 0.158-6.564 0.453-9.789 4.944 54.18 50.49 106.23 105.96 106.23z" fill="#1E1E1E"/>
			<path d="m134.88 38.795c55.466 0 101.01 42.44 105.96 96.618 0.294-3.225 0.452-6.488 0.452-9.789 0-58.767-47.64-106.41-106.41-106.41s-106.41 47.648-106.41 106.41c0 3.301 0.158 6.564 0.453 9.789 4.944-54.174 50.49-96.615 105.96-96.615z" fill="#141414"/><g stroke-miterlimit="10" fill="none">
			<circle stroke-width="7" stroke="#3A3A3A" cy="125.62" cx="134.88" r="106.41"/>
			<circle stroke="#E8E8E8" cy="125.62" cx="134.88" r="92.574"/>
				<g stroke="#E8E8E8" stroke-width="10">
					<path d="m57.422 165.32c-0.076-0.148-0.152-0.297-0.227-0.445"/>
					<path stroke-dasharray="0.9762,58.5694" d="m49.667 107.89c8.189-39.556 43.229-69.288 85.212-69.288 48.059 0 87.02 38.961 87.02 87.02 0 4.38-0.324 8.684-0.948 12.889"/>
					<path d="m211.88 166.19c-0.077 0.147-0.155 0.295-0.234 0.441"/>
				</g></g><g fill="#FFFFFF"><g font-size="25" font-family="&apos;Eagle-Book&apos;">
			<text transform="translate(60.679 121.74)">10</text>
			<text transform="translate(67.679 161.72)">0</text>
			<text transform="translate(79.579 86.316)">20</text>
			<text transform="translate(158.35 86.316)">40</text>
			<text transform="translate(120.01 66.316)">30</text>
			<text transform="translate(178.15 121.74)">50</text>
			<text transform="translate(170.25 161.72)">60</text>
			</g><text font-size="20" font-family="&apos;Eagle-Bold&apos;" transform="translate(111.91 192.65)">mph</text>
					</g><linearGradient id="g" y2="176.46" gradientUnits="userSpaceOnUse" y1="176.46" x2="363.87" x1="249.29">
						<stop stop-color="#050505" offset="0"/>
						<stop stop-color="#111" offset="1"/>
					</linearGradient>
					<circle cy="176.46" cx="306.58" r="57.289" fill="url(#g)"/>
				<path d="m306.58 129.81c29.862 0 54.384 22.85 57.046 52.019 0.158-1.736 0.243-3.494 0.243-5.271 0-31.638-25.649-57.288-57.289-57.288s-57.289 25.65-57.289 57.288c0 1.777 0.085 3.535 0.243 5.271 2.67-29.17 27.19-52.02 57.05-52.02z" fill="#141414"/><g stroke-miterlimit="10" fill="none">
					<path stroke="#fff" d="m306.58 226.57c-27.632 0-50.11-22.479-50.11-50.11s22.479-50.11 50.11-50.11 50.11 22.479 50.11 50.11-22.48 50.11-50.11 50.11z"/>
					<g stroke="#E8E8E8" stroke-width="5">
						<path d="m264.28 198.24c-0.076-0.148-0.151-0.297-0.226-0.445"/>
						<path stroke-dasharray="0.9561,47.8063" d="m265.88 152.01c8.324-13.77 23.438-22.976 40.7-22.976 25.877 0 46.925 20.685 47.514 46.423"/>
						<path d="m348.74 198.52c-0.077 0.147-0.155 0.295-0.233 0.441"/>
					</g>
				<path stroke="#C0272D" stroke-width="5" d="m264.84 198.43c-3.337-6.506-5.411-15.068-5.411-22.872 0-9.289 3.909-18.65 7.318-24.242"/>
			</g><path fill-rule="evenodd" clip-rule="evenodd" d="m301.88 191.64h9.297c0.592 0 1.08 0.561 1.08 1.247v9.191c1.053-0.066 2.854 0.029 2.854 1.493v6.817c0 0.726 0.138 1.136 0.367 1.343 0.227 0.203 0.606 0.263 1.066 0.263h0.009v0.01c0.425-0.004 0.762-0.147 0.991-0.369 0.213-0.206 0.332-0.486 0.332-0.785v-9.625l0.199-2.021-0.721-1.849c-0.611-0.999-1.235-1.459-1.235-1.459l0.398-0.535c0.005 0.003 0.704 0.52 1.385 1.626l1.31 0.823 0.266 2.223-0.27 1.191v9.625c0 0.652-0.262 1.276-0.734 1.742-0.465 0.449-1.119 0.74-1.921 0.74v0.004h-0.009c-0.765 0-1.438-0.141-1.955-0.607-0.514-0.459-0.811-1.184-0.811-2.334v-6.817c0-0.307-0.92-0.245-1.521-0.172v9.698h0.801c0.42 0 0.76 0.342 0.76 0.764v1.042c0 0.421-0.34 0.763-0.76 0.763h-13.059c-0.42 0-0.761-0.342-0.761-0.763v-1.042c0-0.422 0.341-0.764 0.761-0.764h0.801v-20.211c-0.01-0.68 0.48-1.24 1.07-1.24zm1.25 1.39c-0.611 0-1.111 0.502-1.111 1.111v6.318c0 0.611 0.5 1.111 1.111 1.111h6.805c0.615 0 1.115-0.5 1.115-1.111v-6.318c0-0.609-0.5-1.111-1.115-1.111h-6.81z" fill="#fff"/>
			<circle stroke-width="5" stroke="#3A3A3A" cy="176.46" cx="306.58" stroke-miterlimit="10" r="57.289" fill="none"/>
	<path d="m315.1 176.99c0-1.949-0.843-3.689-2.168-4.918-1.068-12.379-3.53-38.626-3.662-40.037h-1.788c-0.132 1.411-2.594 27.66-3.662 40.039-1.324 1.229-2.166 2.967-2.166 4.916 0 0.308 0.051 0.604 0.09 0.904-0.039 0.297-0.09 0.592-0.09 0.902 0 3.713 3.01 6.725 6.723 6.725s6.724-3.012 6.724-6.725c0-0.311-0.051-0.605-0.091-0.902 0.05-0.31 0.1-0.6 0.1-0.91z"/>
		<path stroke="#BC3A11" stroke-miterlimit="10" d="m306.58 130.69s-4.146 44.184-4.146 46.237 1.857 3.719 4.146 3.719c2.291 0 4.146-1.665 4.146-3.719s-4.15-46.24-4.15-46.24zm0 48.17c-1.072 0-1.941-0.781-1.941-1.742 0-0.962 0.869-1.742 1.941-1.742s1.941 0.78 1.941 1.742c0 0.96-0.87 1.74-1.94 1.74z" fill="#F05A24"/>
			<circle cy="177.37" cx="306.58" r="6.723" fill="#262626"/>
			<radialGradient id="f" gradientUnits="userSpaceOnUse" cy="175.56" cx="306.58" r="6.7236">
				<stop stop-color="#6D6D6D" offset="0"/>
				<stop stop-color="#3D3D3D" offset="1"/>
			</radialGradient>
			<circle cy="175.56" cx="306.58" r="6.723" fill="url(#f)"/>
	<path d="m147.74 124.49c0-3.218-1.369-6.109-3.548-8.146-1.762-22.853-5.996-73.198-6.221-75.878h-1.993c-0.223 2.651-4.373 51.981-6.167 75.156-2.671 2.04-4.401 5.248-4.401 8.868 0 0.51 0.046 1.009 0.112 1.5-0.066 0.492-0.112 0.99-0.112 1.5 0 6.167 4.999 11.166 11.166 11.166s11.166-4.999 11.166-11.166c0-0.51-0.046-1.008-0.112-1.5 0.06-0.49 0.1-0.99 0.1-1.5z"/>
		<path stroke="#BC3A11" stroke-width="2" stroke-miterlimit="10" d="m134.88 39.152s-6.979 82.917-6.979 86.771 3.125 6.979 6.979 6.979 6.978-3.124 6.978-6.979-6.98-86.768-6.98-86.768zm0 90.398c-1.806 0-3.269-1.465-3.269-3.27s1.463-3.27 3.269-3.27c1.805 0 3.269 1.465 3.269 3.27s-1.47 3.27-3.27 3.27z" fill="#F05A24"/>
			<circle cy="126.09" cx="134.48" r="11.166" fill="#262626"/>
			<radialGradient id="e" gradientUnits="userSpaceOnUse" cy="123.09" cx="134.48" r="11.166">
				<stop stop-color="#6D6D6D" offset="0"/>
				<stop stop-color="#3D3D3D" offset="1"/>
			</radialGradient>
			<circle cy="123.09" cx="134.48" r="11.166" fill="url(#e)"/>
		<linearGradient id="d" y2="131.69" gradientUnits="userSpaceOnUse" y1="21.573" x2="134.88" x1="134.88">
			<stop stop-color="#fff" stop-opacity=".4" offset="0"/>
			<stop stop-color="#fff" stop-opacity="0" offset="1"/>
		</linearGradient>
		<path d="m225.72 102.62c0 50.171-37.954 11.059-90.844 11.059s-90.844 39.112-90.844-11.059c0-32.939 43.466-72.468 90.844-72.468s90.84 40.553 90.84 72.468z" fill="url(#d)"/>
			<radialGradient id="c" gradientUnits="userSpaceOnUse" cy="6656.8" cx="133.88" gradientTransform="matrix(1 0 0 -.2806 0 2040.1)" r="177.57">
			<stop stop-color="#fff" stop-opacity="0" offset=".2893"/>
			<stop stop-color="#fff" stop-opacity=".4" offset="1"/>
		</radialGradient>
		<path d="m203.98 183.34c0-24.466-28.872-5.393-69.106-5.393s-69.106-19.073-69.106 5.393c0 16.062 33.065 37.135 69.106 37.135 36.05-0.01 69.11-21.58 69.11-37.14z" fill="url(#c)"/>
	<linearGradient id="b" y2="180.23" gradientUnits="userSpaceOnUse" y1="119.6" x2="306.58" x1="306.58">
		<stop stop-color="#fff" stop-opacity=".4" offset="0"/>
		<stop stop-color="#fff" stop-opacity="0" offset="1"/>
	</linearGradient>
	<path d="m356.59 164.23c0 27.621-20.896 6.088-50.015 6.088s-50.015 21.533-50.015-6.088c0-18.136 23.93-39.898 50.015-39.898s50.01 22.32 50.01 39.9z" fill="url(#b)"/>
		<radialGradient id="a" gradientUnits="userSpaceOnUse" cy="6626.7" cx="306.04" gradientTransform="matrix(1 0 0 -.2806 0 2061.7)" r="96.47">
		<stop stop-color="#fff" stop-opacity="0" offset=".2893"/>
		<stop stop-color="#fff" stop-opacity=".4" offset="1"/>
	</radialGradient>
	<path d="m344.12 208.41c0-13.292-15.687-2.929-37.545-2.929-21.859 0-37.546-10.363-37.546 2.929 0 8.728 17.964 20.175 37.546 20.175 19.58 0.01 37.54-11.71 37.54-20.17z" fill="url(#a)"/>
</svg>
