<!DOCTYPE svg PUBLIC '-//W3C//DTD SVG 1.1//EN' 'http://www.w3.org/Graphics/SVG/1.1/DTD/svg11.dtd'>
<svg xmlns="http://www.w3.org/2000/svg" xml:space="preserve" version="1.1" xmlns:xlink="http://www.w3.org/1999/xlink" viewBox="0 0 219.814 219.814" enable-background="new 0 0 219.814 219.814">
	<path opacity=".3" d="m108.66 177.7c0-1.086-0.47-2.055-1.208-2.74-0.596-6.896-1.967-21.521-2.041-22.309h-0.996c-0.074 0.787-1.445 15.412-2.041 22.311-0.738 0.684-1.208 1.652-1.208 2.738 0 0.172 0.028 0.338 0.051 0.504-0.022 0.166-0.051 0.33-0.051 0.504 0 2.068 1.677 3.746 3.747 3.746s3.746-1.678 3.746-3.746c0-0.174-0.028-0.338-0.051-0.504 0.02-0.16 0.05-0.33 0.05-0.5z"/>
		<path stroke="#BC3A11" stroke-miterlimit="10" d="m103.91 151.9s-2.311 24.619-2.311 25.764 1.035 2.072 2.311 2.072c1.277 0 2.31-0.928 2.31-2.072s-2.31-25.76-2.31-25.76zm0 26.84c-0.598 0-1.082-0.436-1.082-0.971s0.484-0.971 1.082-0.971 1.082 0.436 1.082 0.971-0.48 0.97-1.08 0.97z" fill="#F05A24"/>
			<circle cy="177.91" cx="103.91" r="3.746" fill="#262626"/>
			<radialGradient id="a" gradientUnits="userSpaceOnUse" cy="176.9" cx="103.91" r="3.7468">
				<stop stop-color="#6D6D6D" offset="0"/>
				<stop stop-color="#3D3D3D" offset="1"/>
			</radialGradient>
			<circle cy="176.9" cx="103.91" r="3.746" fill="url(#a)"/>
</svg>
