<?xml version="1.0" encoding="utf-8"?>
<!-- Generator: Adobe Illustrator 16.2.1, SVG Export Plug-In . SVG Version: 6.00 Build 0)  -->
<!DOCTYPE svg PUBLIC "-//W3C//DTD SVG 1.1//EN" "http://www.w3.org/Graphics/SVG/1.1/DTD/svg11.dtd">
<svg version="1.1" id="Layer_1" xmlns="http://www.w3.org/2000/svg" xmlns:xlink="http://www.w3.org/1999/xlink" x="0px" y="0px"
	 width="219.814px" height="219.814px" viewBox="0 0 219.814 219.814" enable-background="new 0 0 219.814 219.814"
	 xml:space="preserve">
<g id="needleFuel">
</g>
<g>
	<path opacity="0.3" d="M108.655,177.7c0-1.086-0.47-2.055-1.208-2.74c-0.596-6.896-1.967-21.521-2.041-22.309h-0.996
		c-0.074,0.787-1.445,15.412-2.041,22.311c-0.738,0.684-1.208,1.652-1.208,2.738c0,0.172,0.028,0.338,0.051,0.504
		c-0.022,0.166-0.051,0.33-0.051,0.504c0,2.068,1.677,3.746,3.747,3.746s3.746-1.678,3.746-3.746c0-0.174-0.028-0.338-0.051-0.504
		C108.626,178.038,108.655,177.872,108.655,177.7z"/>
	<g>
		<path fill="#F05A24" stroke="#BC3A11" stroke-miterlimit="10" d="M103.908,151.901c0,0-2.311,24.619-2.311,25.764
			s1.035,2.072,2.311,2.072c1.277,0,2.31-0.928,2.31-2.072S103.908,151.901,103.908,151.901z M103.908,178.743
			c-0.598,0-1.082-0.436-1.082-0.971s0.484-0.971,1.082-0.971s1.082,0.436,1.082,0.971S104.506,178.743,103.908,178.743z"/>
		<g>
			<circle fill="#262626" cx="103.908" cy="177.911" r="3.746"/>
			<radialGradient id="SVGID_1_" cx="103.908" cy="176.9041" r="3.7468" gradientUnits="userSpaceOnUse">
				<stop  offset="0" style="stop-color:#6D6D6D"/>
				<stop  offset="1" style="stop-color:#3D3D3D"/>
			</radialGradient>
			<circle fill="url(#SVGID_1_)" cx="103.908" cy="176.903" r="3.746"/>
		</g>
	</g>
</g>
</svg>
