<?xml version="1.0" encoding="utf-8"?>
<!-- Generator: Adobe Illustrator 16.0.0, SVG Export Plug-In . SVG Version: 6.00 Build 0)  -->
<!DOCTYPE svg PUBLIC "-//W3C//DTD SVG 1.1//EN" "http://www.w3.org/Graphics/SVG/1.1/DTD/svg11.dtd">
<svg version="1.1" xmlns="http://www.w3.org/2000/svg" xmlns:xlink="http://www.w3.org/1999/xlink" x="0px" y="0px"
	 width="385.594px" height="251.695px" viewBox="0 0 385.594 251.695" enable-background="new 0 0 385.594 251.695"
	 xml:space="preserve">
<g id="Layer_1">
	<g>
		<g>
			<linearGradient id="SVGID_1_" gradientUnits="userSpaceOnUse" x1="134.8779" y1="25.6636" x2="134.8779" y2="202.0727">
				<stop  offset="0" style="stop-color:#050505"/>
				<stop  offset="1" style="stop-color:#111111"/>
			</linearGradient>
			<circle fill="url(#SVGID_1_)" cx="134.878" cy="125.625" r="106.407"/>
			<g>
				<g>
					<path fill="none" stroke="#FFFFFF" stroke-width="4" stroke-miterlimit="10" d="M57.422,165.325
						c-0.076-0.148-0.152-0.297-0.227-0.445"/>
					<path fill="none" stroke="#FFFFFF" stroke-width="4" stroke-miterlimit="10" stroke-dasharray="0.9604,28.8111" d="
						M48.663,137.5c-0.53-3.883-0.804-7.848-0.804-11.876c0-48.059,38.96-87.02,87.02-87.02c48.059,0,87.02,38.961,87.02,87.02
						c0,9.543-1.536,18.727-4.375,27.317"/>
					<path fill="none" stroke="#FFFFFF" stroke-width="4" stroke-miterlimit="10" d="M211.885,166.189
						c-0.077,0.147-0.155,0.295-0.234,0.441"/>
				</g>
			</g>
			<path fill="#1E1E1E" d="M134.878,223.776c55.466,0,101.012-52.042,105.955-106.22c0.294,3.225,0.452,6.488,0.452,9.789
				c0,58.767-47.64,106.407-106.407,106.407S28.471,186.112,28.471,127.345c0-3.301,0.158-6.564,0.453-9.789
				C33.867,171.734,79.413,223.776,134.878,223.776z"/>
			<path fill="#141414" d="M134.878,38.795c55.466,0,101.012,42.44,105.955,96.618c0.294-3.225,0.452-6.488,0.452-9.789
				c0-58.767-47.64-106.407-106.407-106.407S28.471,66.858,28.471,125.625c0,3.301,0.158,6.564,0.453,9.789
				C33.867,81.236,79.413,38.795,134.878,38.795z"/>
			<circle fill="none" stroke="#3A3A3A" stroke-width="7" stroke-miterlimit="10" cx="134.878" cy="125.625" r="106.407"/>
			<circle fill="none" stroke="#E8E8E8" stroke-miterlimit="10" cx="134.879" cy="125.625" r="92.574"/>
			<g>
				<g>
					<path fill="none" stroke="#E8E8E8" stroke-width="10" stroke-miterlimit="10" d="M57.422,165.325
						c-0.076-0.148-0.152-0.297-0.227-0.445"/>
					<path fill="none" stroke="#E8E8E8" stroke-width="10" stroke-miterlimit="10" stroke-dasharray="0.9762,58.5694" d="
						M49.667,107.893c8.189-39.556,43.229-69.288,85.212-69.288c48.059,0,87.02,38.961,87.02,87.02c0,4.38-0.324,8.684-0.948,12.889
						"/>
					<path fill="none" stroke="#E8E8E8" stroke-width="10" stroke-miterlimit="10" d="M211.885,166.189
						c-0.077,0.147-0.155,0.295-0.234,0.441"/>
				</g>
			</g>
			<text transform="matrix(1 0 0 1 60.6792 121.7417)" fill="#FFFFFF" font-family="'Eagle-Book'" font-size="25">10</text>
			<text transform="matrix(1 0 0 1 67.6792 161.7183)" fill="#FFFFFF" font-family="'Eagle-Book'" font-size="25">0</text>
			<text transform="matrix(1 0 0 1 79.5791 86.3159)" fill="#FFFFFF" font-family="'Eagle-Book'" font-size="25">20</text>
			<text transform="matrix(1 0 0 1 158.3472 86.3159)" fill="#FFFFFF" font-family="'Eagle-Book'" font-size="25">40</text>
			<text transform="matrix(1 0 0 1 120.0142 66.3159)" fill="#FFFFFF" font-family="'Eagle-Book'" font-size="25">30</text>
			<text transform="matrix(1 0 0 1 178.1504 121.7417)" fill="#FFFFFF" font-family="'Eagle-Book'" font-size="25">50</text>
			<text transform="matrix(1 0 0 1 170.2505 161.7183)" fill="#FFFFFF" font-family="'Eagle-Book'" font-size="25">60</text>
			<text transform="matrix(1 0 0 1 111.9082 192.6499)" fill="#FFFFFF" font-family="'Eagle-Bold'" font-size="20">mph</text>
		</g>
	</g>
	<g>
		<g>
			<g>
				<g>
					<linearGradient id="SVGID_2_" gradientUnits="userSpaceOnUse" x1="249.29" y1="176.4634" x2="363.8682" y2="176.4634">
						<stop  offset="0" style="stop-color:#050505"/>
						<stop  offset="1" style="stop-color:#111111"/>
					</linearGradient>
					<circle fill="url(#SVGID_2_)" cx="306.579" cy="176.463" r="57.289"/>
				</g>
				<path fill="#141414" d="M306.579,129.81c29.862,0,54.384,22.85,57.046,52.019c0.158-1.736,0.243-3.494,0.243-5.271
					c0-31.638-25.649-57.288-57.289-57.288s-57.289,25.65-57.289,57.288c0,1.777,0.085,3.535,0.243,5.271
					C252.195,152.66,276.717,129.81,306.579,129.81z"/>
				<g>
					<path fill="none" stroke="#FFFFFF" stroke-miterlimit="10" d="M306.579,226.574c-27.632,0-50.11-22.479-50.11-50.11
						s22.479-50.11,50.11-50.11s50.11,22.479,50.11,50.11S334.211,226.574,306.579,226.574z"/>
				</g>
				<g>
					<g>
						<path fill="none" stroke="#E8E8E8" stroke-width="5" stroke-miterlimit="10" d="M264.275,198.244
							c-0.076-0.148-0.151-0.297-0.226-0.445"/>
						<path fill="none" stroke="#E8E8E8" stroke-width="5" stroke-miterlimit="10" stroke-dasharray="0.9561,47.8063" d="
							M265.879,152.009c8.324-13.77,23.438-22.976,40.7-22.976c25.877,0,46.925,20.685,47.514,46.423"/>
						<path fill="none" stroke="#E8E8E8" stroke-width="5" stroke-miterlimit="10" d="M348.743,198.515
							c-0.077,0.147-0.155,0.295-0.233,0.441"/>
					</g>
				</g>
				<path fill="none" stroke="#C0272D" stroke-width="5" stroke-miterlimit="10" d="M264.842,198.432
					c-3.337-6.506-5.411-15.068-5.411-22.872c0-9.289,3.909-18.65,7.318-24.242"/>
			</g>
			<path fill-rule="evenodd" clip-rule="evenodd" fill="#FFFFFF" d="M301.883,191.641h9.297c0.592,0,1.08,0.561,1.08,1.247v9.191
				c1.053-0.066,2.854,0.029,2.854,1.493v6.817c0,0.726,0.138,1.136,0.367,1.343c0.227,0.203,0.606,0.263,1.066,0.263h0.009V212
				c0.425-0.004,0.762-0.147,0.991-0.369c0.213-0.206,0.332-0.486,0.332-0.785v-0.003v-9.622l0.199-2.021l-0.721-1.849
				c-0.611-0.999-1.235-1.459-1.235-1.459l0.398-0.535c0.005,0.003,0.704,0.52,1.385,1.626l1.31,0.823l0.266,2.223l-0.27,1.191
				v9.622v0.003c0,0.652-0.262,1.276-0.734,1.742c-0.465,0.449-1.119,0.74-1.921,0.74v0.004h-0.009
				c-0.765,0-1.438-0.141-1.955-0.607c-0.514-0.459-0.811-1.184-0.811-2.334v-6.817c0-0.307-0.92-0.245-1.521-0.172v9.698h0.801
				c0.42,0,0.76,0.342,0.76,0.764v1.042c0,0.421-0.34,0.763-0.76,0.763h-13.059c-0.42,0-0.761-0.342-0.761-0.763v-1.042
				c0-0.422,0.341-0.764,0.761-0.764h0.801v-20.211C300.803,192.202,301.29,191.641,301.883,191.641L301.883,191.641z
				 M303.127,193.029c-0.611,0-1.111,0.502-1.111,1.111v6.318c0,0.611,0.5,1.111,1.111,1.111h6.805c0.615,0,1.115-0.5,1.115-1.111
				v-6.318c0-0.609-0.5-1.111-1.115-1.111H303.127z"/>
		</g>
		<g>
			<circle fill="none" stroke="#3A3A3A" stroke-width="5" stroke-miterlimit="10" cx="306.579" cy="176.463" r="57.289"/>
		</g>
	</g>
</g>
<g id="needleFuel">
	<path d="M315.099,176.99c0-1.949-0.843-3.689-2.168-4.918c-1.068-12.379-3.53-38.626-3.662-40.037h-1.788
		c-0.132,1.411-2.594,27.66-3.662,40.039c-1.324,1.229-2.166,2.967-2.166,4.916c0,0.308,0.051,0.604,0.09,0.904
		c-0.039,0.297-0.09,0.592-0.09,0.902c0,3.713,3.01,6.725,6.723,6.725s6.724-3.012,6.724-6.725c0-0.311-0.051-0.605-0.091-0.902
		C315.048,177.593,315.099,177.297,315.099,176.99z"/>
	<g>
		<path fill="#F05A24" stroke="#BC3A11" stroke-miterlimit="10" d="M306.58,130.689c0,0-4.146,44.184-4.146,46.237
			s1.857,3.719,4.146,3.719c2.291,0,4.146-1.665,4.146-3.719S306.58,130.689,306.58,130.689z M306.58,178.861
			c-1.072,0-1.941-0.781-1.941-1.742c0-0.962,0.869-1.742,1.941-1.742s1.941,0.78,1.941,1.742
			C308.521,178.08,307.652,178.861,306.58,178.861z"/>
		<g>
			<circle fill="#262626" cx="306.581" cy="177.366" r="6.723"/>
			<radialGradient id="SVGID_3_" cx="306.5801" cy="175.5601" r="6.7236" gradientUnits="userSpaceOnUse">
				<stop  offset="0" style="stop-color:#6D6D6D"/>
				<stop  offset="1" style="stop-color:#3D3D3D"/>
			</radialGradient>
			<circle fill="url(#SVGID_3_)" cx="306.581" cy="175.559" r="6.723"/>
		</g>
	</g>
</g>
<g id="needleSpeedo">
	<path d="M147.745,124.491c0-3.218-1.369-6.109-3.548-8.146c-1.762-22.853-5.996-73.198-6.221-75.878h-1.993
		c-0.223,2.651-4.373,51.981-6.167,75.156c-2.671,2.04-4.401,5.248-4.401,8.868c0,0.51,0.046,1.009,0.112,1.5
		c-0.066,0.492-0.112,0.99-0.112,1.5c0,6.167,4.999,11.166,11.166,11.166s11.166-4.999,11.166-11.166c0-0.51-0.046-1.008-0.112-1.5
		C147.699,125.5,147.745,125,147.745,124.491z"/>
	<g>
		<path fill="#F05A24" stroke="#BC3A11" stroke-width="2" stroke-miterlimit="10" d="M134.879,39.152c0,0-6.979,82.917-6.979,86.771
			s3.125,6.979,6.979,6.979s6.978-3.124,6.978-6.979S134.879,39.152,134.879,39.152z M134.879,129.554
			c-1.806,0-3.269-1.465-3.269-3.27s1.463-3.27,3.269-3.27c1.805,0,3.269,1.465,3.269,3.27S136.684,129.554,134.879,129.554z"/>
		<g>
			<circle fill="#262626" cx="134.479" cy="126.092" r="11.166"/>
			<radialGradient id="SVGID_4_" cx="134.4795" cy="123.0928" r="11.1655" gradientUnits="userSpaceOnUse">
				<stop  offset="0" style="stop-color:#6D6D6D"/>
				<stop  offset="1" style="stop-color:#3D3D3D"/>
			</radialGradient>
			<circle fill="url(#SVGID_4_)" cx="134.479" cy="123.092" r="11.166"/>
		</g>
	</g>
</g>
<g id="shine">
	<g>
		<linearGradient id="SVGID_5_" gradientUnits="userSpaceOnUse" x1="134.8784" y1="21.5728" x2="134.8784" y2="131.6914">
			<stop  offset="0" style="stop-color:#FFFFFF;stop-opacity:0.4"/>
			<stop  offset="1" style="stop-color:#FFFFFF;stop-opacity:0"/>
		</linearGradient>
		<path fill="url(#SVGID_5_)" d="M225.723,102.625c0,50.171-37.954,11.059-90.844,11.059s-90.844,39.112-90.844-11.059
			c0-32.939,43.466-72.468,90.844-72.468S225.723,70.705,225.723,102.625z"/>
		
			<radialGradient id="SVGID_6_" cx="133.8779" cy="6656.8091" r="177.5678" gradientTransform="matrix(1 0 0 -0.2806 0 2040.0901)" gradientUnits="userSpaceOnUse">
			<stop  offset="0.2893" style="stop-color:#FFFFFF;stop-opacity:0"/>
			<stop  offset="1" style="stop-color:#FFFFFF;stop-opacity:0.4"/>
		</radialGradient>
		<path fill="url(#SVGID_6_)" d="M203.984,183.335c0-24.466-28.872-5.393-69.106-5.393s-69.106-19.073-69.106,5.393
			c0,16.062,33.065,37.135,69.106,37.135C170.92,220.47,203.984,198.9,203.984,183.335z"/>
	</g>
	<linearGradient id="SVGID_7_" gradientUnits="userSpaceOnUse" x1="306.5791" y1="119.6016" x2="306.5791" y2="180.2292">
		<stop  offset="0" style="stop-color:#FFFFFF;stop-opacity:0.4"/>
		<stop  offset="1" style="stop-color:#FFFFFF;stop-opacity:0"/>
	</linearGradient>
	<path fill="url(#SVGID_7_)" d="M356.594,164.226c0,27.621-20.896,6.088-50.015,6.088s-50.015,21.533-50.015-6.088
		c0-18.136,23.93-39.898,50.015-39.898S356.594,146.652,356.594,164.226z"/>
	
		<radialGradient id="SVGID_8_" cx="306.0371" cy="6626.7017" r="96.4702" gradientTransform="matrix(1 0 0 -0.2806 0 2061.7498)" gradientUnits="userSpaceOnUse">
		<stop  offset="0.2893" style="stop-color:#FFFFFF;stop-opacity:0"/>
		<stop  offset="1" style="stop-color:#FFFFFF;stop-opacity:0.4"/>
	</radialGradient>
	<path fill="url(#SVGID_8_)" d="M344.125,208.413c0-13.292-15.687-2.929-37.545-2.929c-21.859,0-37.546-10.363-37.546,2.929
		c0,8.728,17.964,20.175,37.546,20.175C326.16,228.587,344.125,216.87,344.125,208.413z"/>
</g>
</svg>
