<!DOCTYPE svg PUBLIC '-//W3C//DTD SVG 1.1//EN' 'http://www.w3.org/Graphics/SVG/1.1/DTD/svg11.dtd'>
<svg xmlns="http://www.w3.org/2000/svg" xml:space="preserve" version="1.1" xmlns:xlink="http://www.w3.org/1999/xlink" viewBox="0 0 219.814 219.814" enable-background="new 0 0 219.814 219.814">
		<path d="m121.77 122.77c0-3.218-1.369-6.109-3.549-8.146-1.762-22.853-5.995-73.198-6.221-75.878h-1.993c-0.224 2.651-4.373 51.981-6.167 75.156-2.671 2.04-4.401 5.248-4.401 8.868 0 0.51 0.046 1.009 0.112 1.5-0.066 0.492-0.112 0.99-0.112 1.5 0 6.167 4.999 11.166 11.166 11.166 6.166 0 11.166-4.999 11.166-11.166 0-0.51-0.047-1.008-0.113-1.5 0.07-0.49 0.11-0.99 0.11-1.5z"/>
			<path stroke="#BC3A11" stroke-width="2" stroke-miterlimit="10" d="m108.91 37.435s-6.979 82.917-6.979 86.771 3.125 6.979 6.979 6.979 6.978-3.124 6.978-6.979-6.98-86.775-6.98-86.775zm0 90.405c-1.806 0-3.269-1.465-3.269-3.27s1.463-3.27 3.269-3.27c1.805 0 3.269 1.465 3.269 3.27s-1.47 3.27-3.27 3.27z" fill="#F05A24"/>
				<circle cy="124.38" cx="108.51" r="11.166" fill="#262626"/>
				<radialGradient id="c" gradientUnits="userSpaceOnUse" cy="121.38" cx="108.51" r="11.165">
					<stop stop-color="#6D6D6D" offset="0"/>
					<stop stop-color="#3D3D3D" offset="1"/>
				</radialGradient>
				<circle cy="121.38" cx="108.51" r="11.166" fill="url(#c)"/>
		<linearGradient id="b" y2="115.97" gradientUnits="userSpaceOnUse" y1="5.8555" x2="109.91" x1="109.91">
			<stop stop-color="#fff" stop-opacity=".4" offset="0"/>
			<stop stop-color="#fff" stop-opacity="0" offset="1"/>
		</linearGradient>
		<path d="m200.75 86.907c0 50.171-37.953 11.059-90.844 11.059s-90.844 39.112-90.844-11.059c0-32.939 43.466-72.468 90.844-72.468s90.84 40.548 90.84 72.468z" fill="url(#b)"/>
			<radialGradient id="a" gradientUnits="userSpaceOnUse" cy="6639.1" cx="108.91" gradientTransform="matrix(1 0 0 -.2806 0 2019.4)" r="177.57">
			<stop stop-color="#fff" stop-opacity="0" offset=".2893"/>
			<stop stop-color="#fff" stop-opacity=".4" offset="1"/>
		</radialGradient>
		<path d="m179.01 167.62c0-24.466-28.872-5.393-69.106-5.393s-69.106-19.073-69.106 5.393c0 16.062 33.065 37.135 69.106 37.135 36.05-0.01 69.11-21.58 69.11-37.14z" fill="url(#a)"/>
</svg>
