<?xml version="1.0" encoding="utf-8"?>
<!-- Generator: Adobe Illustrator 16.0.0, SVG Export Plug-In . SVG Version: 6.00 Build 0)  -->
<!DOCTYPE svg PUBLIC "-//W3C//DTD SVG 1.1//EN" "http://www.w3.org/Graphics/SVG/1.1/DTD/svg11.dtd">
<svg version="1.1" id="Layer_1" xmlns="http://www.w3.org/2000/svg" xmlns:xlink="http://www.w3.org/1999/xlink" x="0px" y="0px"
	 width="91.007px" height="40.003px" viewBox="0 0 91.007 40.003" enable-background="new 0 0 91.007 40.003" xml:space="preserve">
<g>
	<path opacity="0.6" fill="#1A263A" d="M-47.227,9.829h-3.173l-0.243-1.89c-0.162-1.26-1.284-2.247-2.555-2.247h-25.058
		c-1.271,0-2.393,0.987-2.555,2.248l-0.243,1.889h-30.511c-1.033-1.978-3.101-3.333-5.483-3.333c-3.411,0-6.185,2.774-6.185,6.185
		s2.774,6.186,6.185,6.186c2.422,0,4.517-1.403,5.532-3.436h29.742l-0.205,1.597c-0.081,0.634,0.104,1.263,0.511,1.724
		c0.406,0.462,1.007,0.727,1.646,0.727h0.054c0.126,0.264,0.391,0.45,0.701,0.45h0.026c0,3.149,2.562,5.712,5.712,5.712
		s5.712-2.562,5.712-5.712h0.026c0.311,0,0.575-0.187,0.701-0.45h2.044c0.125,0.264,0.391,0.45,0.7,0.45h0.026
		c0,3.149,2.562,5.712,5.712,5.712s5.712-2.562,5.712-5.712h0.027c0.31,0,0.574-0.187,0.7-0.45h0.335
		c0.639,0,1.239-0.265,1.646-0.727c0.406-0.461,0.593-1.09,0.511-1.725l-0.205-1.596h2.453c1.544,0,2.801-1.256,2.801-2.801
		C-44.426,11.086-45.683,9.829-47.227,9.829z"/>
	<g>
		<circle fill="#FAAF3B" stroke="#CC8425" stroke-width="2" stroke-miterlimit="10" cx="-121.602" cy="8.735" r="6.731"/>
		<path fill="#B26912" d="M-122.933,11.874l2.817,3.032c2.38-1.037,4.045-3.408,4.045-6.171c0-2.648-1.533-4.933-3.756-6.031
			l-3.107,2.803V11.874z"/>
		<path fill="#FAAF3B" stroke="#CC8425" stroke-width="2" stroke-miterlimit="10" d="M-124.433,8.672
			c0,1.381,1.12,2.501,2.501,2.501h80.106c1.381,0,2.5-1.12,2.5-2.501l0,0c0-1.381-1.119-2.501-2.5-2.501h-80.106
			C-123.313,6.171-124.433,7.291-124.433,8.672L-124.433,8.672z"/>
		<polygon fill="#B26912" points="-87.464,11.173 -42.451,11.173 -43.464,6.171 -86.452,6.171 		"/>
		<path fill="none" stroke="#CC8425" stroke-width="2" stroke-miterlimit="10" d="M-124.433,8.672c0,1.381,1.12,2.501,2.501,2.501
			h80.106c1.381,0,2.5-1.12,2.5-2.501l0,0c0-1.381-1.119-2.501-2.5-2.501h-80.106C-123.313,6.171-124.433,7.291-124.433,8.672
			L-124.433,8.672z"/>
		<g>
			<linearGradient id="SVGID_1_" gradientUnits="userSpaceOnUse" x1="-74.4517" y1="17.7939" x2="-74.4517" y2="38.4131">
				<stop  offset="0" style="stop-color:#00FF00"/>
				<stop  offset="1" style="stop-color:#00FF00;stop-opacity:0"/>
			</linearGradient>
			<polygon opacity="0.6" fill="url(#SVGID_1_)" points="-61.172,40.003 -87.731,40.003 -81.092,17.794 -67.812,17.794 			"/>
			<g>
				<path fill="#600B15" stroke="#490713" stroke-miterlimit="10" d="M-49.159,17.794c0,3.667-2.973,6.64-6.64,6.64
					c-3.668,0-6.641-2.973-6.641-6.64H-49.159z"/>
				<linearGradient id="SVGID_2_" gradientUnits="userSpaceOnUse" x1="-74.4521" y1="20.4302" x2="-74.4521" y2="17.0113">
					<stop  offset="0" style="stop-color:#00FF00"/>
					<stop  offset="1" style="stop-color:#4F8553"/>
				</linearGradient>
				<path fill="url(#SVGID_2_)" stroke="#287013" stroke-miterlimit="10" d="M-67.812,17.794c0,3.667-2.973,6.64-6.64,6.64
					s-6.64-2.973-6.64-6.64H-67.812z"/>
				<linearGradient id="SVGID_3_" gradientUnits="userSpaceOnUse" x1="-55.7988" y1="22.2617" x2="-55.7988" y2="17.3782">
					<stop  offset="0" style="stop-color:#FFFFFF"/>
					<stop  offset="1" style="stop-color:#FFFFFF;stop-opacity:0"/>
				</linearGradient>
				<path opacity="0.5" fill="url(#SVGID_3_)" d="M-51.387,19.161c0,2.157-1.976,3.904-4.412,3.904s-4.412-1.747-4.412-3.904
					H-51.387z"/>
				<linearGradient id="SVGID_4_" gradientUnits="userSpaceOnUse" x1="-74.4517" y1="22.2617" x2="-74.4517" y2="17.3782">
					<stop  offset="0" style="stop-color:#FFFFFF"/>
					<stop  offset="1" style="stop-color:#FFFFFF;stop-opacity:0"/>
				</linearGradient>
				<path opacity="0.5" fill="url(#SVGID_4_)" d="M-70.04,19.161c0,2.157-1.976,3.904-4.411,3.904c-2.438,0-4.412-1.747-4.412-3.904
					H-70.04z"/>
				<path fill="#6D6D6D" d="M-66.303,15.646c0-0.537-0.439-0.977-0.977-0.977h-14.346c-0.537,0-0.977,0.439-0.977,0.977v1.171
					c0,0.537,0.439,0.977,0.977,0.977h14.346c0.537,0,0.977-0.439,0.977-0.977V15.646z"/>
				<path fill="#6D6D6D" d="M-47.649,15.646c0-0.537-0.439-0.977-0.977-0.977h-14.347c-0.537,0-0.977,0.439-0.977,0.977v1.171
					c0,0.537,0.439,0.977,0.977,0.977h14.347c0.537,0,0.977-0.439,0.977-0.977V15.646z"/>
				<g>
					<path fill="#1F2533" d="M-45.628,14.295c0.137,1.065-0.63,1.937-1.704,1.937h-35.236c-1.075,0-1.841-0.871-1.705-1.937
						l1.459-11.358C-82.676,1.871-81.686,1-80.611,1h31.322c1.074,0,2.064,0.871,2.201,1.937L-45.628,14.295z"/>
					<path fill="none" stroke="#11161E" stroke-width="2" stroke-miterlimit="10" d="M-45.628,14.295
						c0.137,1.065-0.63,1.937-1.704,1.937h-35.236c-1.075,0-1.841-0.871-1.705-1.937l1.459-11.358C-82.676,1.871-81.686,1-80.611,1
						h31.322c1.074,0,2.064,0.871,2.201,1.937L-45.628,14.295z"/>
				</g>
				<path fill="#555E70" d="M-51.35,3.454h-27.586c-0.791,0-1.52,0.642-1.621,1.426l-1.074,8.359c0,0,0.588-4.479,4.181-6.695
					C-73.857,4.328-51.35,3.454-51.35,3.454z"/>
			</g>
		</g>
	</g>
</g>
<g>
	<path opacity="0.6" fill="#1A263A" d="M82.106,9.829h-3.173l-0.243-1.89c-0.162-1.26-1.284-2.247-2.555-2.247H51.078
		c-1.271,0-2.393,0.987-2.555,2.248L48.28,9.829H17.769c-1.033-1.978-3.101-3.333-5.483-3.333c-3.411,0-6.185,2.774-6.185,6.185
		s2.774,6.186,6.185,6.186c2.422,0,4.517-1.403,5.532-3.436h29.742l-0.205,1.597c-0.081,0.634,0.104,1.263,0.511,1.724
		c0.406,0.462,1.007,0.727,1.646,0.727h0.054c0.126,0.264,0.391,0.45,0.701,0.45h0.026c0,3.149,2.562,5.712,5.712,5.712
		s5.712-2.562,5.712-5.712h0.026c0.311,0,0.575-0.187,0.701-0.45h2.044c0.125,0.264,0.391,0.45,0.7,0.45h0.026
		c0,3.149,2.562,5.712,5.712,5.712s5.712-2.562,5.712-5.712h0.027c0.31,0,0.574-0.187,0.7-0.45h0.335
		c0.639,0,1.239-0.265,1.646-0.727c0.406-0.461,0.593-1.09,0.511-1.725l-0.205-1.596h2.453c1.544,0,2.801-1.256,2.801-2.801
		C84.907,11.086,83.65,9.829,82.106,9.829z"/>
	<g>
		<circle fill="#FAAF3B" stroke="#CC8425" stroke-width="2" stroke-miterlimit="10" cx="7.731" cy="8.735" r="6.731"/>
		<path fill="#B26912" d="M6.4,11.874l2.817,3.032c2.38-1.037,4.045-3.408,4.045-6.171c0-2.648-1.533-4.933-3.756-6.031L6.4,5.507
			V11.874z"/>
		<path fill="#FAAF3B" stroke="#CC8425" stroke-width="2" stroke-miterlimit="10" d="M4.9,8.672c0,1.381,1.12,2.501,2.501,2.501
			h80.106c1.381,0,2.5-1.12,2.5-2.501l0,0c0-1.381-1.119-2.501-2.5-2.501H7.401C6.02,6.171,4.9,7.291,4.9,8.672L4.9,8.672z"/>
		<polygon fill="#B26912" points="41.869,11.173 86.882,11.173 85.869,6.171 42.881,6.171 		"/>
		<path fill="none" stroke="#CC8425" stroke-width="2" stroke-miterlimit="10" d="M4.9,8.672c0,1.381,1.12,2.501,2.501,2.501h80.106
			c1.381,0,2.5-1.12,2.5-2.501l0,0c0-1.381-1.119-2.501-2.5-2.501H7.401C6.02,6.171,4.9,7.291,4.9,8.672L4.9,8.672z"/>
		<g>
			<linearGradient id="SVGID_5_" gradientUnits="userSpaceOnUse" x1="73.5337" y1="17.7939" x2="73.5337" y2="38.4131">
				<stop  offset="0" style="stop-color:#FF0000"/>
				<stop  offset="1" style="stop-color:#FF0000;stop-opacity:0"/>
			</linearGradient>
			<polygon opacity="0.6" fill="url(#SVGID_5_)" points="86.813,40.003 60.254,40.003 66.894,17.794 80.173,17.794 			"/>
			<g>
				<linearGradient id="SVGID_6_" gradientUnits="userSpaceOnUse" x1="73.5337" y1="24" x2="73.5337" y2="17.4892">
					<stop  offset="0.4992" style="stop-color:#FF0000"/>
					<stop  offset="1" style="stop-color:#880000"/>
				</linearGradient>
				<path fill="url(#SVGID_6_)" stroke="#891019" stroke-miterlimit="10" d="M80.174,17.794c0,3.667-2.973,6.64-6.64,6.64
					c-3.668,0-6.641-2.973-6.641-6.64H80.174z"/>
				<path fill="#256011" stroke="#183F0A" stroke-miterlimit="10" d="M61.521,17.794c0,3.667-2.973,6.64-6.64,6.64
					s-6.64-2.973-6.64-6.64H61.521z"/>
				<linearGradient id="SVGID_7_" gradientUnits="userSpaceOnUse" x1="73.5342" y1="22.2617" x2="73.5342" y2="17.3782">
					<stop  offset="0" style="stop-color:#FFFFFF"/>
					<stop  offset="1" style="stop-color:#FFFFFF;stop-opacity:0"/>
				</linearGradient>
				<path opacity="0.5" fill="url(#SVGID_7_)" d="M77.946,19.161c0,2.157-1.976,3.904-4.412,3.904s-4.412-1.747-4.412-3.904H77.946z
					"/>
				<linearGradient id="SVGID_8_" gradientUnits="userSpaceOnUse" x1="54.8813" y1="22.2617" x2="54.8813" y2="17.3782">
					<stop  offset="0" style="stop-color:#FFFFFF"/>
					<stop  offset="1" style="stop-color:#FFFFFF;stop-opacity:0"/>
				</linearGradient>
				<path opacity="0.5" fill="url(#SVGID_8_)" d="M59.293,19.161c0,2.157-1.976,3.904-4.411,3.904c-2.438,0-4.412-1.747-4.412-3.904
					H59.293z"/>
				<path fill="#6D6D6D" d="M63.03,15.646c0-0.537-0.439-0.977-0.977-0.977H47.708c-0.537,0-0.977,0.439-0.977,0.977v1.171
					c0,0.537,0.439,0.977,0.977,0.977h14.346c0.537,0,0.977-0.439,0.977-0.977V15.646z"/>
				<path fill="#6D6D6D" d="M81.684,15.646c0-0.537-0.439-0.977-0.977-0.977H66.36c-0.537,0-0.977,0.439-0.977,0.977v1.171
					c0,0.537,0.439,0.977,0.977,0.977h14.347c0.537,0,0.977-0.439,0.977-0.977V15.646z"/>
				<g>
					<path fill="#1F2533" d="M83.705,14.295c0.137,1.065-0.63,1.937-1.704,1.937H46.765c-1.075,0-1.841-0.871-1.705-1.937
						L46.52,2.937C46.657,1.871,47.647,1,48.722,1h31.322c1.074,0,2.064,0.871,2.201,1.937L83.705,14.295z"/>
					<path fill="none" stroke="#11161E" stroke-width="2" stroke-miterlimit="10" d="M83.705,14.295
						c0.137,1.065-0.63,1.937-1.704,1.937H46.765c-1.075,0-1.841-0.871-1.705-1.937L46.52,2.937C46.657,1.871,47.647,1,48.722,1
						h31.322c1.074,0,2.064,0.871,2.201,1.937L83.705,14.295z"/>
				</g>
				<path fill="#555E70" d="M77.983,3.454H50.397c-0.791,0-1.52,0.642-1.621,1.426l-1.074,8.359c0,0,0.588-4.479,4.181-6.695
					C55.476,4.328,77.983,3.454,77.983,3.454z"/>
			</g>
		</g>
	</g>
</g>
</svg>
