<!DOCTYPE svg PUBLIC '-//W3C//DTD SVG 1.1//EN' 'http://www.w3.org/Graphics/SVG/1.1/DTD/svg11.dtd'>
<svg xmlns="http://www.w3.org/2000/svg" xml:space="preserve" version="1.1" xmlns:xlink="http://www.w3.org/1999/xlink" viewBox="0 0 91.333 34.169" enable-background="new 0 0 91.333 34.169">
	<path opacity=".6" d="m82.334 9.996h-3.173l-0.243-1.89c-0.162-1.26-1.284-2.247-2.555-2.247h-25.057c-1.271 0-2.393 0.987-2.555 2.248l-0.243 1.889h-30.511c-1.033-1.978-3.101-3.333-5.483-3.333-3.411 0-6.185 2.774-6.185 6.185s2.774 6.186 6.185 6.186c2.422 0 4.517-1.403 5.532-3.436h29.742l-0.205 1.597c-0.081 0.634 0.104 1.263 0.511 1.724 0.406 0.462 1.007 0.727 1.646 0.727h0.054c0.126 0.264 0.391 0.45 0.701 0.45h0.026c0 3.149 2.562 5.712 5.712 5.712s5.712-2.562 5.712-5.712h0.026c0.311 0 0.575-0.187 0.701-0.45h2.044c0.125 0.264 0.391 0.45 0.7 0.45h0.026c0 3.149 2.562 5.712 5.712 5.712s5.712-2.562 5.712-5.712h0.027c0.31 0 0.574-0.187 0.7-0.45h0.335c0.639 0 1.239-0.265 1.646-0.727 0.406-0.461 0.593-1.09 0.511-1.725l-0.205-1.596h2.453c1.544 0 2.801-1.256 2.801-2.801 0.001-1.545-1.256-2.801-2.8-2.801z" fill="#1A263A"/>
		<circle stroke-width="2" stroke="#CC8425" cy="8.902" cx="7.959" stroke-miterlimit="10" r="6.731" fill="#FAAF3B"/>
		<path d="m6.628 12.041l2.817 3.032c2.38-1.037 4.045-3.408 4.045-6.171 0-2.648-1.533-4.933-3.756-6.031l-3.106 2.802v6.368z" fill="#B26912"/>
		<path stroke="#CC8425" stroke-width="2" stroke-miterlimit="10" d="m5.128 8.838c0 1.381 1.12 2.501 2.501 2.501h80.106c1.381 0 2.5-1.12 2.5-2.501s-1.119-2.501-2.5-2.501h-80.106c-1.381 0-2.501 1.121-2.501 2.501z" fill="#FAAF3B"/>
		<polygon points="42.097 11.339 87.11 11.339 86.097 6.337 43.109 6.337" fill="#B26912"/>
		<path stroke="#CC8425" stroke-width="2" stroke-miterlimit="10" d="m5.128 8.838c0 1.381 1.12 2.501 2.501 2.501h80.106c1.381 0 2.5-1.12 2.5-2.501s-1.119-2.501-2.5-2.501h-80.106c-1.381 0-2.501 1.121-2.501 2.501z" fill="none"/>
			<linearGradient id="d" y2="33.009" gradientUnits="userSpaceOnUse" y1="17.96" x2="73.762" x1="73.762">
				<stop stop-color="#f00" offset="0"/>
				<stop stop-color="#f00" stop-opacity="0" offset="1"/>
			</linearGradient>
			<polygon opacity=".6" points="87.042 34.169 60.482 34.169 67.122 17.96 80.401 17.96" fill="url(#d)"/>
				<linearGradient id="c" y2="17.656" gradientUnits="userSpaceOnUse" y1="24.166" x2="73.762" x1="73.762">
					<stop stop-color="#f00" offset=".4992"/>
					<stop stop-color="#800" offset="1"/>
				</linearGradient>
				<path stroke="#891019" stroke-miterlimit="10" d="m80.402 17.96c0 3.667-2.973 6.64-6.64 6.64-3.668 0-6.641-2.973-6.641-6.64h13.281z" fill="url(#c)"/>
				<path stroke="#183F0A" stroke-miterlimit="10" d="m61.749 17.96c0 3.667-2.973 6.64-6.64 6.64s-6.64-2.973-6.64-6.64h13.28z" fill="#256011"/>
				<linearGradient id="b" y2="17.545" gradientUnits="userSpaceOnUse" y1="22.428" x2="73.762" x1="73.762">
					<stop stop-color="#fff" offset="0"/>
					<stop stop-color="#fff" stop-opacity="0" offset="1"/>
				</linearGradient>
				<path opacity=".5" d="m78.174 19.328c0 2.157-1.976 3.904-4.412 3.904s-4.412-1.747-4.412-3.904h8.824z" fill="url(#b)"/>
				<linearGradient id="a" y2="17.545" gradientUnits="userSpaceOnUse" y1="22.428" x2="55.109" x1="55.109">
					<stop stop-color="#fff" offset="0"/>
					<stop stop-color="#fff" stop-opacity="0" offset="1"/>
				</linearGradient>
				<path opacity=".5" d="m59.521 19.328c0 2.157-1.976 3.904-4.411 3.904-2.438 0-4.412-1.747-4.412-3.904h8.823z" fill="url(#a)"/>
				<path d="m63.258 15.813c0-0.537-0.439-0.977-0.977-0.977h-14.345c-0.537 0-0.977 0.439-0.977 0.977v1.171c0 0.537 0.439 0.977 0.977 0.977h14.346c0.537 0 0.977-0.439 0.977-0.977v-1.171z" fill="#6D6D6D"/>
				<path d="m81.912 15.813c0-0.537-0.439-0.977-0.977-0.977h-14.347c-0.537 0-0.977 0.439-0.977 0.977v1.171c0 0.537 0.439 0.977 0.977 0.977h14.347c0.537 0 0.977-0.439 0.977-0.977v-1.171z" fill="#6D6D6D"/>
					<path d="m83.933 14.461c0.137 1.065-0.63 1.937-1.704 1.937h-35.236c-1.075 0-1.841-0.871-1.705-1.937l1.459-11.358c0.138-1.065 1.128-1.937 2.202-1.937h31.322c1.074 0 2.064 0.871 2.201 1.937l1.461 11.358z" fill="#1F2533"/>
					<path stroke="#11161E" stroke-width="2" stroke-miterlimit="10" d="m83.933 14.461c0.137 1.065-0.63 1.937-1.704 1.937h-35.236c-1.075 0-1.841-0.871-1.705-1.937l1.459-11.358c0.138-1.065 1.128-1.937 2.202-1.937h31.322c1.074 0 2.064 0.871 2.201 1.937l1.461 11.358z" fill="none"/>
				<path d="m78.211 3.621h-27.586c-0.791 0-1.52 0.642-1.621 1.426l-1.074 8.359s0.588-4.479 4.181-6.695 26.1-3.09 26.1-3.09z" fill="#555E70"/>
</svg>
