<!DOCTYPE svg PUBLIC '-//W3C//DTD SVG 1.1//EN' 'http://www.w3.org/Graphics/SVG/1.1/DTD/svg11.dtd'>
<svg xmlns="http://www.w3.org/2000/svg" xml:space="preserve" version="1.1" xmlns:xlink="http://www.w3.org/1999/xlink" viewBox="0 0 63.134 121.82" enable-background="new 0 0 63.134 121.823">
	<path opacity=".4" d="m62.822 36.824c-0.71-0.94-3.283-1.734-4.543-1.743-0.055-3.859-0.26-9.428-0.693-14.42-0.244-2.81-0.533-5.101-0.856-6.81-0.535-2.821-1.077-3.548-1.49-3.866l-0.198-0.153c-2.1-1.63-7.016-5.448-21.42-5.448s-19.32 3.818-21.419 5.449l-0.197 0.152c-0.413 0.318-0.955 1.045-1.49 3.865-0.324 1.709-0.612 3.999-0.856 6.808-0.434 4.992-0.64 10.562-0.694 14.424-0.014-0.001-0.029-0.001-0.043-0.001-1.253 0-3.849 0.798-4.562 1.743-0.582 0.771-0.223 1.611 0.048 1.949l0.295 0.367 0.108-0.03c0.285 0.205 0.741 0.396 1.449 0.396 0.439 0 0.941-0.074 1.494-0.221 0.586-0.155 1.025-0.309 1.357-0.457 0.072 0.322 0.154 0.552 0.22 0.704l-0.179 25.752c-0.047 0.015-0.093 0.034-0.138 0.054h-0.409v0.295c-0.221 0.234-0.358 0.551-0.358 0.898v53.979c0 0.348 0.137 0.664 0.358 0.898v0.057h0.057c0.235 0.222 0.551 0.358 0.899 0.358h48.137c0.348 0 0.663-0.137 0.898-0.358h0.057v-0.057c0.222-0.234 0.358-0.551 0.358-0.898v-53.979c0-0.348-0.137-0.663-0.358-0.898v-0.295h-0.409c-0.049-0.022-0.101-0.043-0.153-0.06l-0.177-25.746c0.063-0.147 0.143-0.37 0.213-0.679 0.324 0.141 0.747 0.285 1.301 0.432 0.553 0.146 1.055 0.221 1.493 0.221 0.708 0 1.164-0.19 1.449-0.396l0.108 0.03 0.295-0.367c0.271-0.337 0.629-1.177 0.048-1.949zm-0.679 0.313c-0.008-0.008-0.017-0.016-0.025-0.024 0.008 0.008 0.017 0.016 0.025 0.024zm-2.486 0.775c0.745 0.203 1.413 0.477 1.965 0.778-0.004 0.001-0.009 0.003-0.013 0.004-0.718-0.368-1.382-0.616-1.952-0.782zm-54.086 0.782c-0.004-0.001-0.008-0.003-0.012-0.004 0.552-0.302 1.219-0.575 1.964-0.778-0.57 0.166-1.233 0.414-1.952 0.782zm3.937-1.079v-0.009 0.009zm-0.002-0.041c0.023-0.002 0.047-0.003 0.071-0.004-0.024 0.001-0.048 0.002-0.071 0.004zm0.002 0.028v-0.007 0.007zm-0.001-0.011c0-0.001-0.001-0.003-0.001-0.005 0 0.002 0.001 0.004 0.001 0.005zm-0.002-0.008v-0.003 0.003zm47.72 1.732zm-0.018 0.034c0.001-0.001 0.002-0.003 0.002-0.005 0 0.002-0.001 0.003-0.002 0.005zm0.364-1.781l-0.001 0.018 0.001-0.018zm-0.706-16.92c0.002 0.026 0.005 0.053 0.008 0.08-0.003-0.027-0.006-0.053-0.008-0.08zm0.037 0.432l0.012 0.141-0.012-0.141zm0.037 0.456c0.006 0.062 0.01 0.124 0.016 0.186-0.006-0.062-0.01-0.124-0.016-0.186zm0.04 0.489c0.005 0.064 0.01 0.13 0.016 0.195-0.007-0.065-0.012-0.13-0.016-0.195zm0.038 0.5c0.005 0.066 0.011 0.134 0.015 0.2-0.005-0.066-0.011-0.133-0.015-0.2zm0.036 0.497c0.006 0.07 0.01 0.141 0.016 0.211-0.007-0.07-0.01-0.14-0.016-0.211zm0.035 0.508c0.006 0.07 0.01 0.142 0.016 0.212-0.006-0.07-0.01-0.141-0.016-0.212zm0.034 0.503c0.005 0.075 0.011 0.15 0.015 0.227-0.004-0.076-0.01-0.152-0.015-0.227zm0.032 0.505c0.006 0.078 0.01 0.156 0.016 0.234-0.006-0.078-0.01-0.156-0.016-0.234zm0.033 0.515c0.005 0.078 0.009 0.156 0.015 0.233-0.007-0.077-0.011-0.155-0.015-0.233zm0.03 0.511c0.004 0.08 0.01 0.158 0.014 0.238-0.004-0.079-0.01-0.157-0.014-0.238zm0.029 0.514c0.004 0.079 0.008 0.159 0.013 0.238-0.005-0.079-0.009-0.159-0.013-0.238zm0.027 0.518c0.004 0.076 0.008 0.153 0.012 0.23-0.004-0.077-0.008-0.154-0.012-0.23zm0.027 0.509c0.005 0.08 0.009 0.159 0.013 0.238-0.004-0.078-0.008-0.157-0.013-0.238zm0.025 0.512c0.004 0.077 0.007 0.154 0.011 0.23-0.004-0.076-0.007-0.153-0.011-0.23zm0.025 0.514c0.004 0.075 0.006 0.149 0.01 0.225-0.005-0.076-0.006-0.15-0.01-0.225zm0.021 0.5c0.004 0.08 0.008 0.159 0.012 0.238-0.004-0.079-0.008-0.158-0.012-0.238zm0.023 0.508c0.003 0.073 0.006 0.146 0.009 0.217-0.004-0.072-0.007-0.144-0.009-0.217zm0.02 0.505c0.003 0.071 0.006 0.141 0.008 0.212-0.002-0.071-0.005-0.141-0.008-0.212zm0.02 0.491c0.002 0.072 0.004 0.144 0.007 0.215-0.003-0.072-0.005-0.143-0.007-0.215zm0.017 0.494c0.002 0.067 0.004 0.135 0.006 0.201-0.002-0.066-0.004-0.134-0.006-0.201zm0.016 0.487c0.003 0.061 0.004 0.12 0.006 0.181-0.002-0.061-0.003-0.12-0.006-0.181zm0.015 0.489c0.002 0.041 0.004 0.084 0.004 0.125 0-0.041-0.002-0.084-0.004-0.125zm0.016 0.478c0 0.026 0.001 0.054 0.002 0.08-0.001-0.026-0.002-0.054-0.002-0.08zm0.013 0.469c0 0.007 0 0.013 0.001 0.02-0.001-0.008-0.001-0.013-0.001-0.02zm-1.703-19.601c0.011 0.046 0.021 0.093 0.032 0.14-0.011-0.047-0.022-0.094-0.032-0.14zm0.069 0.307c0.01 0.048 0.021 0.096 0.031 0.146-0.01-0.05-0.021-0.098-0.031-0.146zm0.068 0.323c0.01 0.049 0.02 0.099 0.029 0.147-0.009-0.048-0.019-0.098-0.029-0.147zm0.067 0.334c0.01 0.052 0.02 0.104 0.029 0.155-0.01-0.051-0.02-0.103-0.029-0.155zm0.064 0.35c0.01 0.052 0.02 0.104 0.029 0.158-0.009-0.054-0.019-0.107-0.029-0.158zm0.065 0.363c0.009 0.052 0.018 0.105 0.026 0.158-0.009-0.053-0.018-0.106-0.026-0.158zm0.062 0.374c0.008 0.055 0.017 0.108 0.025 0.162-0.008-0.054-0.017-0.107-0.025-0.162zm0.061 0.385c0.008 0.055 0.016 0.109 0.023 0.165-0.008-0.056-0.016-0.111-0.023-0.165zm0.058 0.401c0.008 0.052 0.015 0.104 0.022 0.157-0.007-0.052-0.014-0.105-0.022-0.157zm0.058 0.407c0.007 0.053 0.015 0.106 0.021 0.16-0.006-0.053-0.014-0.107-0.021-0.16zm0.056 0.418c0.007 0.053 0.014 0.105 0.02 0.157-0.007-0.051-0.014-0.104-0.02-0.157zm0.054 0.428c0.006 0.051 0.012 0.102 0.019 0.153-0.007-0.051-0.013-0.102-0.019-0.153zm0.053 0.439c0.006 0.045 0.011 0.09 0.016 0.135-0.005-0.045-0.01-0.09-0.016-0.135zm0.052 0.446c0.005 0.039 0.009 0.078 0.013 0.118-0.004-0.04-0.008-0.079-0.013-0.118zm0.05 0.455c0.004 0.023 0.006 0.047 0.008 0.07-0.003-0.023-0.005-0.047-0.008-0.07zm0.048 0.459s0.002 0.011 0.002 0.016c0-0.005-0.002-0.011-0.002-0.016zm-46.077-0.614c0.012-0.108 0.024-0.216 0.036-0.323-0.012 0.107-0.025 0.214-0.036 0.323zm0.053-0.474c0.011-0.099 0.023-0.198 0.035-0.297-0.012 0.099-0.024 0.198-0.035 0.297zm0.054-0.455c0.011-0.094 0.022-0.188 0.034-0.279-0.012 0.091-0.023 0.185-0.034 0.279zm0.054-0.44c0.012-0.09 0.023-0.18 0.035-0.269-0.012 0.09-0.023 0.18-0.035 0.269zm0.056-0.429c0.011-0.086 0.023-0.173 0.035-0.258-0.012 0.085-0.024 0.172-0.035 0.258zm0.058-0.421c0.011-0.081 0.023-0.163 0.035-0.243-0.012 0.08-0.024 0.162-0.035 0.243zm0.059-0.411c0.012-0.076 0.023-0.153 0.034-0.229-0.011 0.075-0.023 0.153-0.034 0.229zm0.06-0.393c0.012-0.075 0.023-0.15 0.035-0.223-0.012 0.073-0.024 0.148-0.035 0.223zm0.061-0.383c0.012-0.072 0.023-0.143 0.036-0.213-0.012 0.071-0.024 0.141-0.036 0.213zm0.063-0.372c0.012-0.068 0.024-0.136 0.036-0.202-0.011 0.066-0.024 0.134-0.036 0.202zm0.065-0.356c0.012-0.065 0.024-0.13 0.037-0.193-0.013 0.063-0.025 0.127-0.037 0.193zm0.066-0.344c0.012-0.062 0.024-0.124 0.037-0.186-0.012 0.062-0.025 0.124-0.037 0.186zm0.068-0.33c0.013-0.06 0.025-0.117 0.038-0.176-0.014 0.059-0.026 0.116-0.038 0.176zm0.068-0.315c0.013-0.057 0.026-0.112 0.039-0.167-0.013 0.054-0.026 0.11-0.039 0.167zm-1.382 26.212v-0.002 0.002zm0.029 0.054l-0.003-0.006 0.003 0.006zm-0.012-0.021c-0.001-0.001-0.001-0.002-0.002-0.004 0.001 0.002 0.002 0.003 0.002 0.004zm47.554-1.779c0.029 0.002 0.057 0.003 0.086 0.005-0.03-0.002-0.057-0.004-0.086-0.005zm0.082 0.036c0 0.005 0 0.009 0.001 0.013-0.001-0.004-0.001-0.008-0.001-0.013zm0.004-0.025s0 0.002-0.001 0.003c0.001-0.001 0.001-0.003 0.001-0.003zm-0.002 0.006v0.004s0-0.002 0-0.004zm-0.001 0.009v0.006s0-0.003 0-0.006zm0.614-1.796c-0.014 0-0.027-0.001-0.039-0.001h0.012c0.008 0 0.018 0.001 0.027 0.001zm3.693 1.199c-0.008-0.008-0.019-0.014-0.027-0.021 0.009 0.007 0.02 0.013 0.027 0.021zm-0.178-0.125c-0.009-0.006-0.019-0.012-0.028-0.019 0.009 0.007 0.019 0.013 0.028 0.019zm-0.218-0.13c-0.016-0.009-0.031-0.017-0.048-0.026 0.017 0.01 0.032 0.017 0.048 0.026zm-0.26-0.135c-0.007-0.003-0.014-0.007-0.021-0.01 0.008 0.004 0.014 0.007 0.021 0.01zm-0.236-0.108c-0.018-0.008-0.036-0.016-0.055-0.023 0.019 0.007 0.037 0.015 0.055 0.023zm-0.292-0.121c-0.019-0.008-0.038-0.015-0.056-0.021 0.018 0.006 0.037 0.013 0.056 0.021zm-0.28-0.105c-0.014-0.005-0.027-0.01-0.041-0.015 0.013 0.006 0.027 0.011 0.041 0.015zm-0.296-0.099c-0.022-0.007-0.045-0.015-0.067-0.021 0.022 0.006 0.044 0.014 0.067 0.021zm-0.324-0.098c-0.014-0.004-0.028-0.008-0.043-0.012 0.015 0.004 0.03 0.008 0.043 0.012zm-0.272-0.072c-0.021-0.005-0.04-0.011-0.061-0.016 0.021 0.005 0.041 0.011 0.061 0.016zm-0.308-0.072c-0.021-0.005-0.041-0.009-0.061-0.013 0.02 0.004 0.04 0.008 0.061 0.013zm-0.284-0.056c-0.011-0.002-0.021-0.004-0.032-0.006 0.011 0.002 0.021 0.004 0.032 0.006zm-0.262-0.041c-0.02-0.002-0.039-0.005-0.057-0.007 0.017 0.002 0.037 0.005 0.057 0.007zm-0.272-0.028c-0.012-0.001-0.023-0.002-0.035-0.003 0.012 0.001 0.023 0.002 0.035 0.003zm-0.416-0.003c-0.013 0.002-0.025 0.004-0.037 0.004 0.012 0 0.024-0.002 0.037-0.004zm-0.164 0.025c-0.008 0.001-0.014 0.002-0.021 0.004 0.007-0.002 0.013-0.003 0.021-0.004zm-0.135 0.043c-0.008 0.004-0.016 0.008-0.022 0.012 0.007-0.004 0.014-0.008 0.022-0.012zm-2.013-23.08c-0.012-0.046-0.021-0.09-0.033-0.134 0.011 0.044 0.021 0.088 0.033 0.134zm-0.073-0.283c-0.011-0.043-0.022-0.086-0.034-0.128 0.012 0.042 0.024 0.085 0.034 0.128zm-0.072-0.267c-0.012-0.042-0.024-0.082-0.037-0.122 0.013 0.04 0.025 0.08 0.037 0.122zm-0.076-0.251c-0.012-0.039-0.023-0.077-0.037-0.115 0.013 0.038 0.025 0.076 0.037 0.115zm-0.076-0.234c-0.012-0.037-0.025-0.072-0.039-0.108 0.013 0.036 0.027 0.071 0.039 0.108zm-0.078-0.217c-0.014-0.035-0.026-0.068-0.039-0.102 0.012 0.034 0.025 0.067 0.039 0.102zm-0.081-0.198c-0.014-0.033-0.027-0.063-0.041-0.095 0.014 0.031 0.028 0.062 0.041 0.095zm-0.248-0.486c-0.018-0.025-0.033-0.048-0.051-0.071 0.018 0.024 0.034 0.046 0.051 0.071zm0.168 0.305c-0.016-0.03-0.029-0.059-0.045-0.086 0.016 0.028 0.03 0.056 0.045 0.086zm-0.084-0.162c-0.016-0.027-0.031-0.053-0.046-0.078 0.015 0.025 0.031 0.051 0.046 0.078zm-0.17-0.265c-0.02-0.024-0.039-0.045-0.059-0.066 0.02 0.021 0.04 0.042 0.059 0.066zm-0.087-0.101c-0.03-0.03-0.061-0.058-0.09-0.081 0.029 0.023 0.059 0.051 0.09 0.081zm-42.451-0.081c-0.03 0.023-0.06 0.051-0.09 0.081 0.03-0.03 0.06-0.058 0.09-0.081zm-0.211 0.23c-0.018 0.023-0.036 0.048-0.053 0.075 0.017-0.027 0.035-0.051 0.053-0.075zm0.093-0.117c-0.02 0.022-0.04 0.045-0.06 0.07 0.02-0.025 0.04-0.048 0.06-0.07zm-0.852 2.137c0.013-0.054 0.026-0.105 0.039-0.157-0.013 0.051-0.026 0.103-0.039 0.157zm0.072-0.285c0.014-0.051 0.027-0.1 0.041-0.148-0.014 0.048-0.027 0.097-0.041 0.148zm0.074-0.268c0.014-0.049 0.027-0.095 0.041-0.141-0.014 0.046-0.028 0.092-0.041 0.141zm0.075-0.254c0.014-0.044 0.028-0.086 0.042-0.129-0.014 0.043-0.028 0.085-0.042 0.129zm0.077-0.234c0.014-0.042 0.028-0.081 0.043-0.121-0.015 0.04-0.029 0.079-0.043 0.121zm0.078-0.218c0.015-0.038 0.029-0.075 0.044-0.111-0.015 0.036-0.029 0.073-0.044 0.111zm0.08-0.2c0.015-0.035 0.03-0.068 0.045-0.102-0.015 0.033-0.03 0.067-0.045 0.102zm0.082-0.181c0.016-0.032 0.031-0.062 0.047-0.093-0.016 0.031-0.032 0.061-0.047 0.093zm0.083-0.162c0.017-0.029 0.033-0.056 0.049-0.083-0.017 0.027-0.033 0.053-0.049 0.083zm-1.54 7.817c-0.049 0.47-0.095 0.951-0.14 1.441 0.045-0.489 0.091-0.971 0.14-1.441zm0.049-0.462c-0.014 0.127-0.027 0.255-0.041 0.384 0.013-0.129 0.026-0.257 0.041-0.384zm-0.858 13.801c0.001-0.026 0.001-0.052 0.002-0.079 0 0.027-0.001 0.053-0.002 0.079zm0.014-0.462c0.001-0.028 0.002-0.057 0.003-0.084l-0.003 0.084zm0.014-0.45c0.001-0.04 0.003-0.078 0.004-0.118-0.001 0.04-0.003 0.078-0.004 0.118zm0.016-0.458c0.001-0.05 0.003-0.1 0.005-0.15-0.002 0.051-0.004 0.1-0.005 0.15zm0.016-0.455c0.002-0.064 0.004-0.129 0.007-0.195-0.003 0.066-0.005 0.131-0.007 0.195zm0.018-0.489c0.003-0.066 0.005-0.134 0.008-0.201-0.003 0.067-0.005 0.134-0.008 0.201zm0.019-0.489c0.003-0.07 0.006-0.141 0.009-0.211-0.003 0.07-0.006 0.14-0.009 0.211zm0.022-0.51c0.003-0.067 0.006-0.136 0.009-0.203-0.003 0.067-0.006 0.135-0.009 0.203zm0.021-0.491c0.003-0.075 0.007-0.151 0.01-0.228-0.003 0.076-0.006 0.152-0.01 0.228zm0.024-0.507c0.003-0.076 0.007-0.151 0.011-0.227-0.004 0.075-0.008 0.151-0.011 0.227zm0.024-0.509c0.004-0.078 0.008-0.155 0.012-0.233-0.004 0.078-0.008 0.155-0.012 0.233zm0.026-0.505c0.005-0.084 0.009-0.168 0.014-0.252-0.005 0.084-0.01 0.168-0.014 0.252zm0.027-0.507c0.004-0.087 0.009-0.174 0.014-0.261-0.005 0.087-0.01 0.174-0.014 0.261zm0.028-0.514c0.005-0.088 0.01-0.176 0.015-0.265-0.005 0.089-0.01 0.177-0.015 0.265zm0.029-0.512c0.006-0.092 0.011-0.184 0.017-0.275-0.005 0.091-0.011 0.183-0.017 0.275zm0.032-0.513c0.006-0.093 0.012-0.185 0.017-0.276-0.006 0.092-0.011 0.183-0.017 0.276zm0.032-0.514c0.006-0.095 0.013-0.19 0.019-0.285-0.006 0.095-0.013 0.191-0.019 0.285zm0.034-0.509c0.006-0.098 0.013-0.194 0.02-0.292-0.007 0.097-0.014 0.194-0.02 0.292zm0.035-0.511c0.007-0.1 0.014-0.198 0.021-0.297-0.008 0.099-0.014 0.197-0.021 0.297zm0.036-0.508c0.007-0.101 0.015-0.2 0.022-0.301-0.007 0.101-0.015 0.201-0.022 0.301zm0.038-0.506c0.008-0.104 0.016-0.207 0.024-0.309-0.008 0.102-0.016 0.206-0.024 0.309zm0.039-0.5c0.009-0.111 0.018-0.221 0.027-0.332-0.009 0.112-0.019 0.221-0.027 0.332zm0.04-0.498c0.01-0.115 0.02-0.231 0.029-0.347-0.009 0.116-0.019 0.232-0.029 0.347zm0.042-0.494c0.012-0.135 0.023-0.27 0.036-0.403-0.012 0.134-0.024 0.268-0.036 0.403zm-0.699 15.184c-0.054 0.006-0.11 0.011-0.168 0.012 0.059-0.002 0.114-0.006 0.168-0.012zm-0.251-0.045c-0.007-0.004-0.015-0.008-0.023-0.012 0.008 0.004 0.016 0.008 0.023 0.012zm-0.137-0.051c-0.006-0.002-0.013-0.003-0.02-0.004 0.007 0.001 0.014 0.002 0.02 0.004zm-0.148-0.025c-0.012 0-0.024-0.002-0.037-0.004 0.013 0.002 0.025 0.004 0.037 0.004zm-0.202-0.011c-0.013 0-0.027 0.001-0.04 0.001 0.008 0 0.019-0.001 0.027-0.001h0.013zm-3.733 1.2c0.009-0.008 0.019-0.014 0.028-0.021-0.01 0.007-0.02 0.013-0.028 0.021zm0.18-0.126c0.009-0.005 0.017-0.011 0.026-0.017-0.009 0.006-0.017 0.012-0.026 0.017zm0.218-0.129c0.015-0.009 0.03-0.017 0.045-0.025-0.015 0.009-0.031 0.016-0.045 0.025zm0.259-0.136c0.005-0.002 0.011-0.005 0.016-0.008-0.005 0.004-0.01 0.006-0.016 0.008zm0.237-0.107c0.018-0.008 0.035-0.016 0.052-0.023-0.017 0.007-0.034 0.015-0.052 0.023zm0.292-0.121c0.018-0.008 0.035-0.014 0.053-0.021-0.018 0.007-0.035 0.013-0.053 0.021zm0.282-0.106c0.013-0.004 0.025-0.009 0.038-0.014-0.013 0.006-0.025 0.011-0.038 0.014zm0.294-0.099c0.021-0.006 0.043-0.014 0.065-0.02-0.022 0.006-0.043 0.014-0.065 0.02zm0.323-0.097c0.013-0.004 0.027-0.007 0.04-0.011-0.013 0.004-0.027 0.007-0.04 0.011zm0.272-0.073c0.02-0.004 0.04-0.01 0.06-0.015-0.02 0.005-0.04 0.011-0.06 0.015zm0.308-0.072c0.021-0.004 0.04-0.008 0.06-0.012l-0.06 0.012zm0.283-0.055c0.011-0.002 0.021-0.004 0.032-0.006-0.011 0.002-0.021 0.004-0.032 0.006zm0.264-0.041c0.019-0.002 0.038-0.005 0.057-0.007-0.019 0.002-0.039 0.005-0.057 0.007zm0.27-0.028l0.036-0.003-0.036 0.003zm-3.619 1.304c-0.009 0.009-0.017 0.017-0.025 0.024 0.008-0.007 0.017-0.015 0.025-0.024zm-0.013 1.189l-0.085 0.023 0.085-0.023zm2.52 0.292c1.201-0.318 1.663-0.601 1.836-0.787-0.173 0.186-0.634 0.468-1.836 0.787zm1.938-0.973l-0.001 0.011 0.001-0.011zm-0.003 0.016c0 0.005-0.002 0.01-0.003 0.015 0.001-0.005 0.003-0.01 0.003-0.015zm-0.004 0.018c-0.001 0.005-0.003 0.01-0.005 0.016 0.002-0.006 0.004-0.011 0.005-0.016zm-0.006 0.02c-0.002 0.007-0.005 0.014-0.009 0.021 0.003-0.007 0.006-0.014 0.009-0.021zm-0.01 0.022c-0.003 0.008-0.008 0.015-0.012 0.022 0.004-0.007 0.008-0.014 0.012-0.022zm-0.013 0.025c-0.004 0.008-0.01 0.016-0.016 0.024 0.006-0.009 0.011-0.016 0.016-0.024zm-0.017 0.026c-0.006 0.009-0.013 0.019-0.021 0.028 0.007-0.009 0.014-0.019 0.021-0.028zm-0.022 0.028c-0.007 0.009-0.016 0.019-0.024 0.027 0.008-0.008 0.017-0.018 0.024-0.027zm48.253-0.101c0.062 0.164 0.39 0.512 1.925 0.919-1.537-0.406-1.863-0.755-1.925-0.919zm-0.013-0.054c0.001 0.003 0.001 0.008 0.001 0.013 0-0.005 0-0.01-0.001-0.013zm0.002 0.016c0.001 0.005 0.003 0.011 0.005 0.017-0.002-0.007-0.004-0.012-0.005-0.017zm0.005 0.018c0.001 0.006 0.004 0.012 0.006 0.019-0.002-0.007-0.005-0.013-0.006-0.019zm4.451 0.647l0.084 0.023-0.084-0.023z" fill="#060D1C"/>
			<path d="m29.576 0.717c14.633 0 19.216 3.939 21.18 5.453 1.898 1.461 2.699 17.196 2.771 25.381 0.035 0.002 0.068 0.006 0.105 0.008 0.097-0.101 0.305-0.145 0.582-0.145 1.143 0 3.46 0.756 3.99 1.457 0.398 0.529-0.035 1.069-0.035 1.069l-0.085-0.023c0.013 0.015 0.017 0.023 0.017 0.023s-0.223 0.466-1.227 0.466c-0.34 0-0.77-0.055-1.311-0.197-2.131-0.564-1.934-1.017-1.932-1.019-0.035-0.003-0.072-0.004-0.106-0.006-0.063 1.301-0.376 1.801-0.376 1.801l0.18 25.97h-47.507l0.179-25.97s-0.313-0.501-0.376-1.805c-0.056 0.003-0.113 0.006-0.169 0.01 0.001 0.002 0.199 0.454-1.933 1.019-0.541 0.143-0.971 0.197-1.311 0.197-1.003 0-1.227-0.466-1.227-0.466s0.005-0.009 0.018-0.023l-0.084 0.023s-0.434-0.54-0.035-1.069c0.529-0.701 2.847-1.457 3.99-1.457 0.276 0 0.484 0.044 0.582 0.145 0.059-0.002 0.114-0.007 0.168-0.013 0.074-8.185 0.874-23.915 2.772-25.376 1.964-1.514 6.547-5.453 21.18-5.453m0-0.717c-14.405 0-19.321 3.818-21.421 5.449l-0.197 0.153c-0.413 0.318-0.955 1.044-1.49 3.865-0.324 1.709-0.612 3.999-0.856 6.808-0.434 4.992-0.64 10.562-0.694 14.423h-0.043c-1.253 0-3.849 0.798-4.562 1.742-0.582 0.771-0.223 1.613 0.048 1.949l0.296 0.368 0.108-0.03c0.286 0.205 0.741 0.396 1.449 0.396 0.438 0 0.941-0.074 1.494-0.221 0.586-0.155 1.025-0.309 1.357-0.458 0.072 0.323 0.154 0.553 0.219 0.705l-0.178 25.801-0.005 0.722h48.95l-0.005-0.722-0.179-25.802c0.064-0.148 0.145-0.37 0.215-0.679 0.324 0.141 0.746 0.285 1.299 0.432s1.057 0.221 1.494 0.221c0.709 0 1.164-0.19 1.449-0.396l0.108 0.03 0.296-0.368c0.271-0.336 0.629-1.178 0.048-1.949-0.71-0.939-3.282-1.734-4.542-1.742-0.055-3.859-0.261-9.428-0.694-14.42-0.244-2.809-0.532-5.1-0.856-6.81-0.535-2.821-1.077-3.548-1.49-3.866l-0.197-0.152c-2.101-1.631-7.018-5.449-21.421-5.449z" fill="#3F3F3F"/>
					<linearGradient id="i" y2="63.25" gradientUnits="userSpaceOnUse" y1="-.062" x2="29.576" x1="29.576">
						<stop stop-color="#CBCBCB" offset="0"/>
						<stop stop-color="#8D8D8D" offset=".3163"/>
						<stop stop-color="#666" offset=".9286"/>
						<stop stop-color="#333" offset=".9745"/>
					</linearGradient>
					<path d="m53.33 60.955l-0.18-25.97s0.441-0.698 0.382-2.609c-0.024-7.898-0.812-24.694-2.776-26.206-1.964-1.514-6.547-5.453-21.18-5.453s-19.216 3.939-21.181 5.453c-1.964 1.512-2.752 18.308-2.775 26.206-0.06 1.911 0.382 2.609 0.382 2.609l-0.179 25.97h47.507z" fill="url(#i)"/>
					<path fill-rule="evenodd" clip-rule="evenodd" d="m9.285 60.955s-3.204-1.558-3.523-5.895v5.895h3.523z" fill="#3F3F3F"/>
					<path fill-rule="evenodd" clip-rule="evenodd" d="m49.834 60.955s3.205-1.558 3.523-5.895v5.895h-3.523z" fill="#3F3F3F"/>
					<path d="m6.82 27.467l-0.238-0.009c0.005-0.134 0.515-13.449 0.796-15.851l0.237 0.028c-0.28 2.392-0.789 15.698-0.795 15.832z" fill="#333"/>
					<path d="m52.42 28.312c-0.006-0.135-0.615-13.406-0.896-15.799l0.238-0.028c0.281 2.401 0.891 15.683 0.896 15.815l-0.238 0.012z" fill="#333"/>
						<path d="m7.434 13.193c-0.06-1.552 0.418-4.835 1.374-5.91 0.955-1.074 8.429-4.548 7.497-3.779-1.756 1.447-7.258 6.107-7.855 7.004-0.598 0.894-0.538 2.627-1.016 2.685z" fill="#fff"/>
						<path d="m7.32 13.328l-0.005-0.13c-0.055-1.437 0.39-4.854 1.403-5.994 0.862-0.97 7.06-3.929 7.632-3.929 0.105 0 0.138 0.069 0.146 0.091 0.037 0.104-0.062 0.187-0.116 0.23-1.808 1.489-7.245 6.097-7.832 6.977-0.275 0.413-0.406 1.021-0.522 1.558-0.137 0.637-0.246 1.141-0.577 1.182l-0.129 0.015zm8.639-9.693c-1.453 0.555-6.29 2.859-7.062 3.729-0.86 0.968-1.358 3.887-1.348 5.584 0.098-0.186 0.174-0.541 0.245-0.867 0.12-0.557 0.256-1.188 0.557-1.639 0.573-0.862 5.576-5.122 7.608-6.807z" fill="#333"/>
						<path d="m51.623 13.193c0.061-1.552-0.418-4.835-1.373-5.91-0.955-1.074-8.43-4.548-7.496-3.779 1.756 1.447 7.258 6.107 7.854 7.004 0.597 0.894 0.538 2.627 1.015 2.685z" fill="#fff"/>
						<path d="m51.737 13.328l-0.129-0.016c-0.331-0.041-0.44-0.545-0.577-1.182-0.115-0.536-0.247-1.145-0.522-1.558-0.587-0.88-6.022-5.487-7.831-6.977-0.053-0.044-0.153-0.126-0.116-0.23 0.009-0.021 0.041-0.091 0.146-0.091 0.572 0 6.769 2.959 7.632 3.929 1.013 1.14 1.458 4.558 1.402 5.994l-0.005 0.131zm-8.637-9.693c2.031 1.686 7.034 5.945 7.607 6.807 0.301 0.451 0.438 1.082 0.558 1.639 0.069 0.326 0.147 0.682 0.245 0.867 0.01-1.697-0.488-4.616-1.35-5.584-0.771-0.87-5.608-3.175-7.06-3.729z" fill="#333"/>
						<path d="m29.584 19.354c7.625 0 17.188 0.596 21.189 5.178l0.025-0.169s-0.4-12.245-0.879-14.572c-0.512-0.632-4.439-4.187-6.717-5.959-0.135-0.109-0.271-0.216-0.416-0.317-0.082-0.061-0.161-0.119-0.236-0.172h-0.025c-3.246-2.067-8.75-2.148-12.941-2.148s-9.695 0.081-12.941 2.148c-0.001 0-0.002 0.001-0.003 0.002-0.312 0.199-0.605 0.416-0.873 0.654-0.021 0.018-0.042 0.039-0.062 0.059-2.305 1.832-5.938 5.127-6.43 5.733-0.479 2.327-0.879 14.741-0.879 14.741 4.001-4.583 13.563-5.178 21.188-5.178z" fill="#9F9F9F"/>
						<path d="m50.852 24.803l-0.168-0.192c-3.977-4.554-13.365-5.138-21.099-5.138s-17.122 0.584-21.099 5.138l-0.093 0.106-0.089-0.109c-0.066-0.082 0.23-6.515 0.233-6.58 0.212-4.511 0.421-7.29 0.621-8.262l0.006-0.028 0.019-0.022c0.485-0.599 4.139-3.917 6.448-5.752l0.017-0.016c0.014-0.014 0.027-0.027 0.041-0.039 0.259-0.23 0.554-0.451 0.877-0.658l0.025-0.016c3.391-2.16 9.402-2.16 12.994-2.16 3.582 0 9.568 0 12.976 2.147h0.029l0.031 0.022c0.075 0.055 0.154 0.113 0.236 0.174 0.131 0.091 0.266 0.193 0.42 0.32 2.248 1.749 6.213 5.333 6.735 5.977l0.019 0.022 0.006 0.028c0.475 2.311 0.865 14.093 0.882 14.593l-0.067 0.445zm-21.268-5.569c7.668 0 16.957 0.575 21.093 5.014-0.041-1.15-0.423-12.158-0.869-14.405-0.584-0.692-4.463-4.194-6.68-5.917-0.152-0.125-0.282-0.225-0.41-0.313-0.072-0.054-0.141-0.104-0.206-0.151h-0.022l-0.029-0.02c-3.344-2.128-9.311-2.128-12.876-2.128s-9.534 0-12.877 2.128c-0.32 0.205-0.608 0.421-0.861 0.646l-0.061 0.058c-2.279 1.812-5.853 5.051-6.4 5.698-0.426 2.146-0.793 12.403-0.86 14.368 4.155-4.405 13.412-4.978 21.058-4.978z" fill="#333"/>
					<path d="m29.598 19.184c6.974 0 15.533 0.82 20.172 4.223 0.486-0.829-2.999-16.418-6.078-19.104-3.104-2.708-9.404-3.108-14.094-3.108-4.689 0-10.99 0.4-14.094 3.108-3.079 2.687-6.564 18.275-6.078 19.104 4.637-3.403 13.198-4.223 20.172-4.223z" fill="#7F7F7F"/>
					<path d="m29.598 19.184c6.837 0 15.229 0.482 19.775 3.884 0.479-0.829-2.939-16.384-5.959-19.069-3.043-2.708-9.22-2.805-13.816-2.805-4.598-0.001-10.774 0.096-13.818 2.804-3.019 2.686-6.436 18.24-5.958 19.069 4.546-3.401 12.938-3.883 19.776-3.883z" fill="#A7A7A7"/>
					<g opacity=".9">
							<linearGradient id="h" x1="202.53" gradientUnits="userSpaceOnUse" y1="17.936" gradientTransform="matrix(-1 0 0 1 232.12 0)" x2="202.53" y2="5.1814">
							<stop stop-color="#FBFBFB" stop-opacity="0" offset="0"/>
							<stop stop-color="#FBFBFB" offset=".3635"/>
							<stop stop-color="#FBFBFB" stop-opacity=".7804" offset=".6426"/>
							<stop stop-color="#FBFBFB" stop-opacity="0" offset="1"/>
						</linearGradient>
						<path d="m29.59 18.365c2.925 0 7.289 0.17 7.289 0.17s-0.939-4.301-0.049-4.528c2.233-0.569 10.262 2.235 10.262 2.235s-2.244-10.109-3.264-10.633-9.908-1.433-14.238-1.433-13.217 0.91-14.237 1.434-3.264 10.633-3.264 10.633 8.099-2.745 10.331-2.168c0.875 0.228 0.018 4.461 0.018 4.461s4.227-0.171 7.152-0.171z" fill="url(#h)"/>
					</g>
							<path d="m29.583 19.184c7.881 0 17.831 0.637 21.573 5.652-0.16 5.731-1.434 14.806-1.593 15.602-0.128 0.307-0.637 0-0.637 0s-4.458-2.865-19.343-2.865c-14.886 0-19.343 2.865-19.343 2.865s-0.508 0.307-0.637 0c-0.159-0.796-1.433-9.87-1.592-15.602 3.742-5.016 13.692-5.652 21.572-5.652z"/>
							<path d="m29.583 19.669c7.723 0 17.475 0.353 21.141 5.268-0.156 5.616-1.404 14.171-1.561 14.952-0.127 0.3-0.624 0-0.624 0s-4.368-2.809-18.957-2.809c-14.588 0-18.956 2.809-18.956 2.809s-0.498 0.3-0.624 0c-0.156-0.781-1.404-9.336-1.561-14.952 3.669-4.916 13.419-5.268 21.142-5.268z" fill="#171D23"/>
							<linearGradient id="g" y2="29.586" gradientUnits="userSpaceOnUse" y1="29.586" x2="49.668" x1="9.5">
								<stop stop-color="#636668" stop-opacity="0" offset="0"/>
								<stop stop-color="#636668" offset=".1426"/>
								<stop stop-color="#636668" offset=".834"/>
								<stop stop-color="#636668" stop-opacity="0" offset="1"/>
							</linearGradient>
							<path opacity=".5" d="m29.583 20.178c7.336 0 16.6 0.326 20.084 4.87-0.148 5.193-1.335 13.103-1.483 13.824-0.119 0.277-0.593 0-0.593 0s-4.149-2.597-18.008-2.597c-13.858 0-18.008 2.597-18.008 2.597s-0.473 0.277-0.593 0c-0.148-0.722-1.334-8.631-1.482-13.824 3.483-4.544 12.747-4.87 20.083-4.87z" fill="url(#g)"/>
								<defs>
									<path id="f" d="m29.583 19.669c7.723 0 17.475 0.353 21.141 5.268-0.156 5.616-1.404 14.171-1.561 14.952-0.127 0.3-0.624 0-0.624 0s-4.368-2.809-18.957-2.809c-14.588 0-18.956 2.809-18.956 2.809s-0.498 0.3-0.624 0c-0.156-0.781-1.404-9.336-1.561-14.952 3.669-4.916 13.419-5.268 21.142-5.268z"/>
								</defs>
								<clipPath id="e">
									<use overflow="visible" xlink:href="#f"/>
								</clipPath>
								<g opacity=".7" clip-path="url(#e)">
									<linearGradient id="d" y2="36.735" gradientUnits="userSpaceOnUse" y1="20.355" x2="23.313" x1="23.313">
										<stop stop-color="#fff" stop-opacity="0" offset="0"/>
										<stop stop-color="#fff" offset=".4796"/>
										<stop stop-color="#fff" offset=".7347"/>
										<stop stop-color="#fff" stop-opacity="0" offset="1"/>
									</linearGradient>
									<rect y="17.942" x="21.73" fill="url(#d)" width="3.165" height="21.443"/>
									<linearGradient id="c" y2="36.735" gradientUnits="userSpaceOnUse" y1="20.355" x2="26.289" x1="26.289">
										<stop stop-color="#fff" stop-opacity="0" offset="0"/>
										<stop stop-color="#fff" offset=".4796"/>
										<stop stop-color="#fff" offset=".7347"/>
										<stop stop-color="#fff" stop-opacity="0" offset="1"/>
									</linearGradient>
									<rect y="17.942" x="25.777" fill="url(#c)" width="1.023" height="21.443"/>
								</g>
							<path d="m19.782 21.733s0.232-0.065 0.652-0.151c0.209-0.045 0.464-0.098 0.756-0.146 0.292-0.051 0.622-0.112 0.983-0.166 0.362-0.046 0.754-0.096 1.169-0.148 0.415-0.057 0.854-0.097 1.309-0.129 0.455-0.034 0.925-0.07 1.402-0.106 0.479-0.017 0.964-0.032 1.451-0.05 0.486-0.008 0.972-0.029 1.451-0.026 0.479 0.004 0.949 0.021 1.405 0.03 0.455 0.013 0.896 0.025 1.312 0.038 0.417 0.017 0.811 0.058 1.174 0.085 0.726 0.058 1.33 0.123 1.753 0.16 0.423 0.042 0.664 0.071 0.664 0.071l-0.017 0.238s-0.243 0.006-0.667 0.007c-0.423-0.003-1.027 0.004-1.752-0.008-0.363-0.003-0.755-0.017-1.169-0.017-0.415 0.005-0.852 0.01-1.305 0.015-0.452 0.002-0.92 0.009-1.395 0.005-0.475 0.001-0.956 0.028-1.438 0.04s-0.964 0.023-1.438 0.035c-0.474 0.024-0.94 0.049-1.391 0.071-0.452 0.022-0.888 0.038-1.301 0.074-0.414 0.028-0.804 0.055-1.166 0.079-0.36 0.031-0.69 0.06-0.982 0.085-0.294 0.021-0.548 0.05-0.756 0.075-0.208 0.026-0.373 0.036-0.486 0.052-0.113 0.015-0.173 0.021-0.173 0.021l-0.045-0.234z"/>
							<path d="m15.208 21.483c0.032 0.515 0.398 0.359 4.596 0.03 1.72-0.135 4.084-0.158 7.332-0.397-11.174-0.129-11.946 0.071-11.928 0.367z"/>
							<path d="m28.21 21.389v-0.57s-2.029 0.058-2.447 0.09v0.617l2.447-0.137z"/>
							<path d="m35.324 21.052s0.242-0.005 0.67 0.018c0.213 0.009 0.473 0.022 0.768 0.049 0.297 0.023 0.631 0.048 0.994 0.086 0.361 0.047 0.754 0.097 1.168 0.15 0.416 0.05 0.852 0.121 1.3 0.204 0.448 0.082 0.912 0.165 1.384 0.25 0.467 0.104 0.941 0.211 1.416 0.316 0.473 0.115 0.949 0.216 1.411 0.34 0.462 0.125 0.914 0.259 1.353 0.382 0.438 0.128 0.859 0.251 1.26 0.368 0.4 0.121 0.771 0.26 1.115 0.377 0.689 0.238 1.258 0.454 1.656 0.597 0.399 0.146 0.625 0.235 0.625 0.235l-0.075 0.227s-0.237-0.055-0.646-0.16c-0.409-0.11-0.997-0.256-1.694-0.449-0.352-0.094-0.727-0.206-1.128-0.311-0.403-0.1-0.827-0.204-1.267-0.312-0.438-0.113-0.893-0.224-1.351-0.348-0.46-0.117-0.933-0.213-1.401-0.322-0.471-0.11-0.939-0.22-1.402-0.328-0.464-0.096-0.921-0.189-1.363-0.28-0.443-0.093-0.869-0.187-1.277-0.256-0.408-0.077-0.793-0.149-1.148-0.217-0.356-0.061-0.684-0.115-0.973-0.165-0.29-0.053-0.543-0.089-0.751-0.117-0.208-0.027-0.37-0.061-0.483-0.072-0.113-0.015-0.174-0.022-0.174-0.022l0.013-0.24z"/>
							<path d="m30.883 20.109c-0.067 0.511 0.321 0.43 4.503 0.917 1.714 0.2 4.037 0.634 7.271 1.026-10.938-2.284-11.735-2.238-11.774-1.943z"/>
							<path d="m43.568 22.838l0.144-0.551s-1.978-0.455-2.391-0.529l-0.155 0.598 2.402 0.482z"/>
								<path d="m10.897 20.358c0.239-0.942 1.134-3.284 1.612-3.702s9.165-2.839 9.672-2.269c0.506 0.571 0.095 3.632-0.203 3.99-0.161 0.193-2.872 0.419-5.602 1.058-2.324 0.545-4.515 1.485-4.763 1.596-0.537 0.239-0.851-0.14-0.716-0.673z" fill="#bbb"/>
								<path d="m11.307 21.223c-0.175 0-0.328-0.07-0.428-0.201-0.131-0.168-0.166-0.42-0.097-0.693 0.225-0.889 1.133-3.31 1.649-3.762 0.458-0.4 7.526-2.385 9.343-2.385 0.266 0 0.419 0.039 0.497 0.127 0.555 0.625 0.142 3.734-0.201 4.146-0.095 0.114-0.409 0.173-1.713 0.373-1.057 0.163-2.504 0.386-3.953 0.726-2.441 0.571-4.718 1.577-4.741 1.587-0.125 0.054-0.245 0.082-0.356 0.082zm10.466-6.802c-1.859 0-8.835 2.019-9.186 2.325-0.441 0.387-1.338 2.709-1.575 3.642-0.051 0.2-0.031 0.378 0.054 0.487 0.099 0.127 0.28 0.144 0.498 0.047 0.023-0.011 2.321-1.025 4.784-1.603 1.458-0.341 2.911-0.564 3.971-0.728 0.759-0.117 1.475-0.228 1.574-0.298 0.264-0.318 0.662-3.304 0.198-3.827-0.002 0-0.05-0.045-0.318-0.045z" fill="#666"/>
								<linearGradient id="b" y2="17.909" gradientUnits="userSpaceOnUse" y1="16.118" x2="16.732" x1="16.612">
									<stop stop-color="#323232" offset="0"/>
									<stop stop-color="#141414" offset="1"/>
								</linearGradient>
								<path d="m11.777 19.703c0.21-0.746 0.616-2.332 1.037-2.664s8.259-2.557 8.706-2.104c0.446 0.452 0.084 2.604-0.179 2.888-0.142 0.153-2.533 0.434-4.941 0.94-2.05 0.432-3.983 1.245-4.201 1.332-0.474 0.19-0.541 0.031-0.422-0.392z" fill="url(#b)"/>
								<path d="m11.891 20.295c-0.125 0-0.191-0.055-0.226-0.101-0.077-0.101-0.077-0.257-0.002-0.522l0.064-0.232c0.304-1.098 0.633-2.195 1.014-2.494 0.449-0.354 6.985-2.189 8.482-2.189 0.199 0 0.317 0.029 0.383 0.096 0.495 0.501 0.145 2.707-0.177 3.053-0.093 0.101-0.429 0.165-1.826 0.397-0.907 0.15-2.035 0.339-3.177 0.579-1.236 0.26-2.7 0.723-4.123 1.303l-0.059 0.023c-0.15 0.059-0.262 0.087-0.353 0.087zm9.331-5.301c-1.597 0-8.038 1.906-8.334 2.139-0.351 0.275-0.728 1.639-0.931 2.371l-0.064 0.232c-0.076 0.268-0.039 0.312-0.037 0.314 0.004 0.003 0.069 0.026 0.3-0.065l0.057-0.022c1.436-0.586 2.915-1.053 4.164-1.316 1.147-0.241 2.278-0.43 3.188-0.58 0.821-0.137 1.597-0.266 1.699-0.332 0.221-0.24 0.567-2.315 0.173-2.715-0.003 0-0.045-0.026-0.215-0.026z"/>
						<g fill="#111">
									<rect y="16.986" width=".238" x="12.473" transform="matrix(.9592 .2828 -.2828 .9592 5.7902 -2.7997)" height="3.337"/>
									<rect y="16.767" width=".239" x="13.071" transform="matrix(.9595 .2817 -.2817 .9595 5.728 -2.9693)" height="3.338"/>
									<rect y="16.564" width=".238" x="13.646" transform="matrix(.9604 .2785 -.2785 .9604 5.6226 -3.1122)" height="3.337"/>
									<rect y="16.369" width=".239" x="14.255" transform="matrix(.964 .2661 -.2661 .964 5.306 -3.1758)" height="3.254"/>
									<rect y="16.208" width=".239" x="14.864" transform="matrix(.9673 .2536 -.2536 .9673 5.0018 -3.2181)" height="3.17"/>
									<rect y="16.006" width=".239" x="15.473" transform="matrix(.9684 .2493 -.2493 .9684 4.8851 -3.3303)" height="3.236"/>
									<rect y="15.828" width=".239" x="16.082" transform="matrix(.9651 .2617 -.2617 .9651 5.142 -3.6309)" height="3.32"/>
									<rect y="15.747" width=".239" x="16.675" transform="matrix(.9753 .2208 -.2208 .9753 4.2429 -3.2806)" height="3.179"/>
									<rect y="15.659" width=".238" x="17.216" transform="matrix(.9836 .1803 -.1803 .9836 3.3921 -2.8435)" height="3.152"/>
									<rect y="15.604" width=".239" x="17.774" transform="matrix(.9909 .1348 -.1348 .9909 2.4714 -2.2565)" height="3.025"/>
									<rect y="14.995" width=".239" x="21.162" transform="matrix(.9996 .0286 -.0286 .9996 .479 -.6011)" height="2.949"/>
									<rect y="14.993" width=".239" x="20.672" transform="matrix(.9981 .0614 -.0614 .9981 1.0528 -1.2446)" height="3.055"/>
									<rect y="14.992" width=".239" x="20.165" transform="matrix(.9984 .0573 -.0573 .9984 .9825 -1.1347)" height="3.156"/>
									<rect y="15.194" width=".239" x="19.607" transform="matrix(.9973 .0736 -.0736 .9973 1.2825 -1.406)" height="3.023"/>
									<rect y="15.327" width=".239" x="18.997" transform="matrix(.9952 .0981 -.0981 .9952 1.7458 -1.7938)" height="3.063"/>
									<rect y="15.429" width=".238" x="18.388" transform="matrix(.9952 .0983 -.0983 .9952 1.7566 -1.7369)" height="3.063"/>
							<path d="m11.923 20.414c-0.124 0-0.191-0.055-0.226-0.101-0.077-0.101-0.077-0.257-0.002-0.522l0.064-0.232c0.305-1.098 0.633-2.194 1.014-2.494 0.449-0.354 6.985-2.189 8.482-2.189 0.199 0 0.317 0.029 0.383 0.096 0.495 0.502 0.145 2.707-0.176 3.053-0.093 0.101-0.429 0.165-1.827 0.397-0.906 0.151-2.035 0.339-3.177 0.579-1.236 0.26-2.7 0.723-4.123 1.303l-0.058 0.023c-0.15 0.06-0.262 0.087-0.354 0.087zm9.332-5.301c-1.597 0-8.038 1.906-8.334 2.139-0.351 0.276-0.728 1.639-0.931 2.371l-0.064 0.232c-0.076 0.268-0.039 0.312-0.037 0.314 0.004 0.003 0.069 0.027 0.3-0.064l0.057-0.023c1.436-0.586 2.915-1.053 4.164-1.316 1.147-0.241 2.278-0.429 3.187-0.58 0.821-0.137 1.597-0.266 1.7-0.332 0.221-0.24 0.568-2.315 0.173-2.715-0.001 0-0.021-0.026-0.215-0.026z"/>
						</g>
								<path d="m48.419 20.358c-0.239-0.942-1.134-3.284-1.612-3.702-0.477-0.418-9.164-2.839-9.672-2.269-0.506 0.571-0.096 3.497 0.203 3.854 0.161 0.194 2.872 0.42 5.602 1.059 2.324 0.544 4.516 1.484 4.764 1.595 0.536 0.24 0.85-0.004 0.715-0.537z" fill="#bbb"/>
								<path d="m48.074 21.106c-0.127 0-0.268-0.034-0.42-0.102-0.023-0.011-2.301-1.017-4.742-1.588-1.448-0.339-2.896-0.562-3.953-0.725-1.304-0.201-1.618-0.26-1.713-0.374-0.341-0.408-0.757-3.383-0.2-4.01 0.078-0.088 0.231-0.127 0.497-0.127 1.816 0 8.885 1.984 9.343 2.385 0.517 0.452 1.423 2.873 1.649 3.762 0.08 0.321 0.006 0.506-0.071 0.605-0.089 0.115-0.224 0.174-0.39 0.174zm-10.531-6.685c-0.268 0-0.316 0.045-0.318 0.047-0.466 0.523-0.066 3.373 0.205 3.698 0.091 0.062 0.808 0.174 1.566 0.29 1.061 0.163 2.514 0.388 3.971 0.729 2.463 0.577 4.762 1.591 4.784 1.602 0.241 0.107 0.44 0.108 0.524 0.001 0.062-0.081 0.072-0.223 0.027-0.399-0.236-0.933-1.133-3.255-1.574-3.642-0.35-0.308-7.326-2.326-9.185-2.326z" fill="#666"/>
								<path d="m47.539 19.703c-0.211-0.746-0.615-2.332-1.037-2.664s-8.26-2.557-8.706-2.104c-0.446 0.452-0.084 2.604 0.179 2.888 0.143 0.153 2.533 0.434 4.941 0.94 2.05 0.432 3.982 1.245 4.201 1.332 0.474 0.19 0.541 0.031 0.422-0.392z" fill="#1E1E1E"/>
								<path d="m47.426 20.295c-0.092 0-0.204-0.028-0.354-0.088l-0.057-0.023c-1.423-0.58-2.888-1.043-4.125-1.303-1.142-0.24-2.27-0.429-3.177-0.579-1.397-0.232-1.733-0.297-1.827-0.397-0.32-0.346-0.67-2.552-0.176-3.053 0.065-0.066 0.184-0.096 0.383-0.096 1.496 0 8.033 1.836 8.482 2.189 0.381 0.299 0.709 1.397 1.014 2.497l0.064 0.229c0.074 0.266 0.073 0.422-0.003 0.522-0.033 0.047-0.101 0.102-0.224 0.102zm-9.332-5.301c-0.174 0-0.214 0.026-0.216 0.027-0.392 0.397-0.045 2.473 0.185 2.721 0.094 0.059 0.869 0.188 1.69 0.324 0.909 0.15 2.04 0.339 3.188 0.58 1.251 0.264 2.729 0.73 4.165 1.316l0.056 0.022c0.229 0.092 0.294 0.069 0.3 0.064 0.002-0.001 0.038-0.046-0.037-0.313l-0.064-0.23c-0.203-0.732-0.58-2.097-0.932-2.373-0.296-0.232-6.738-2.138-8.335-2.138z"/>
								<rect y="18.416" x="45.088" width="3.337" transform="matrix(.2821 .9594 -.9594 .2821 51.347 -31.552)" height=".238"/>
								<rect y="18.197" x="44.49" width="3.337" transform="matrix(.2815 .9596 -.9596 .2815 50.74 -31.131)" height=".238"/>
								<rect y="17.994" x="43.915" width="3.337" transform="matrix(.2818 .9595 -.9595 .2818 50.118 -30.728)" height=".239"/>
								<rect y="17.757" x="43.347" width="3.254" transform="matrix(.2683 .9633 -.9633 .2683 50.129 -30.245)" height=".238"/>
								<rect y="17.554" x="42.78" width="3.17" transform="matrix(.2538 .9672 -.9672 .2538 50.199 -29.725)" height=".239"/>
								<rect y="17.386" x="42.138" width="3.236" transform="matrix(.2486 .9686 -.9686 .2486 49.832 -29.229)" height=".238"/>
							<rect y="17.25" x="41.488" width="3.319" transform="matrix(.263 .9648 -.9648 .263 48.555 -28.828)" height=".239"/>
								<rect y="17.097" x="40.966" width="3.179" transform="matrix(.2218 .9751 -.9751 .2218 49.904 -28.097)" height=".239"/>
								<rect y="16.996" x="40.437" width="3.152" transform="matrix(.1803 .9836 -.9836 .1803 51.273 -27.295)" height=".239"/>
								<rect y="16.878" x="39.942" width="3.026" transform="matrix(.132 .9912 -.9912 .132 52.83 -26.339)" height=".239"/>
								<rect y="16.23" x="36.593" width="2.948" transform="matrix(.0295 .9996 -.9996 .0295 53.286 -22.182)" height=".239"/>
								<rect y="16.281" x="37.031" width="3.054" transform="matrix(.062 .9981 -.9981 .062 52.534 -23.1)" height=".239"/>
								<rect y="16.332" x="37.487" width="3.155" transform="matrix(.0597 .9982 -.9982 .0597 53.153 -23.527)" height=".239"/>
								<rect y="16.467" x="38.112" width="3.023" transform="matrix(.0737 .9973 -.9973 .0737 53.246 -24.151)" height=".239"/>
								<rect y="16.62" x="38.701" width="3.062" transform="matrix(.0947 .9955 -.9955 .0947 53.084 -24.898)" height=".238"/>
								<rect y="16.721" x="39.31" width="3.062" transform="matrix(.0947 .9955 -.9955 .0947 53.736 -25.412)" height=".238"/>
						<path d="m43.415 3.998c-3.044-2.708-9.221-2.805-13.817-2.805-4.598 0-10.774 0.097-13.818 2.805-0.189 0.168-0.38 0.387-0.572 0.65 0.623 0.418 6.826-1.204 14.389-1.126 7.563-0.078 13.767 1.544 14.389 1.126-0.191-0.263-0.382-0.482-0.571-0.65z" fill="#DFDFDF"/>
							<path d="m42.589 3.395c0.001-0.004 0.001-0.007 0.002-0.01-3.237-2.108-8.786-2.191-13.006-2.191-4.21 0-9.745 0.082-12.984 2.177 0.002 0.008 0.004 0.017 0.006 0.024-0.913 1.023 5.257-0.848 12.991-0.768 7.734-0.08 13.902 1.791 12.991 0.768z" fill="#191919"/>
							<path d="m42.245 3.82c-0.485 0-1.327-0.116-2.493-0.277-2.391-0.332-6.057-0.837-10.153-0.797-0.164-0.002-0.325-0.002-0.485-0.002-3.903 0-7.375 0.48-9.672 0.799-1.165 0.161-2.006 0.277-2.492 0.277-0.226 0-0.465-0.021-0.535-0.176-0.048-0.107 0.01-0.214 0.06-0.279l-0.013-0.046 0.073-0.05c3.396-2.195 9.438-2.195 13.049-2.195 3.621 0 9.678 0 13.072 2.211l0.075 0.049-0.011 0.033c0.05 0.065 0.107 0.171 0.059 0.277-0.054 0.126-0.211 0.176-0.534 0.176zm-12.164-1.315c3.919 0 7.401 0.482 9.704 0.802 1.156 0.16 1.99 0.275 2.46 0.275 0.2 0 0.279-0.022 0.308-0.035-0.007-0.014-0.021-0.038-0.053-0.073l-0.014-0.015c-3.341-2.146-9.322-2.146-12.902-2.146-3.558 0-9.496 0-12.847 2.11l-0.042 0.05c-0.031 0.035-0.046 0.06-0.053 0.073 0.028 0.013 0.107 0.035 0.308 0.035 0.469 0 1.304-0.115 2.459-0.275 2.398-0.333 6.07-0.84 10.19-0.799 0.159-0.001 0.322-0.002 0.482-0.002z"/>
						<g fill="#333">
							<path d="m17.894 3.28l-0.065-0.229c0.048-0.014 4.92-1.379 11.77-1.379s11.637 1.365 11.686 1.379l-0.069 0.229c-0.048-0.014-4.806-1.37-11.618-1.37-6.816 0-11.656 1.357-11.704 1.37z"/>
							<rect y="2.7" x="17.742" width=".239" height=".931"/>
								<rect y="2.699" width=".24" x="41.107" transform="matrix(.9995 .0325 -.0325 .9995 .1247 -1.3383)" height=".932"/>
						</g>
						<path d="m42.245 3.82c-0.485 0-1.327-0.116-2.493-0.277-2.391-0.332-6.057-0.837-10.153-0.797-0.164-0.002-0.325-0.002-0.485-0.002-3.903 0-7.375 0.48-9.672 0.799-1.165 0.161-2.006 0.277-2.492 0.277-0.226 0-0.465-0.021-0.535-0.176-0.048-0.107 0.01-0.214 0.06-0.279l-0.013-0.046 0.073-0.05c3.396-2.195 9.438-2.195 13.049-2.195 3.621 0 9.678 0 13.072 2.211l0.075 0.049-0.011 0.033c0.05 0.065 0.107 0.171 0.059 0.277-0.054 0.126-0.211 0.176-0.534 0.176zm-12.164-1.315c3.919 0 7.401 0.482 9.704 0.802 1.156 0.16 1.99 0.275 2.46 0.275 0.2 0 0.279-0.022 0.308-0.035-0.007-0.014-0.021-0.038-0.053-0.073l-0.014-0.015c-3.341-2.146-9.322-2.146-12.902-2.146-3.558 0-9.496 0-12.847 2.11l-0.042 0.05c-0.031 0.035-0.046 0.06-0.053 0.073 0.028 0.013 0.107 0.035 0.308 0.035 0.469 0 1.304-0.115 2.459-0.275 2.398-0.333 6.07-0.84 10.19-0.799 0.159-0.001 0.322-0.002 0.482-0.002z"/>
							<ellipse cy="1.791" cx="29.597" rx="1.254" ry=".358" fill="#D0D0D0"/>
							<path d="m29.598 2.269c-0.51 0-1.374-0.101-1.374-0.478s0.863-0.478 1.374-0.478c0.51 0 1.373 0.101 1.373 0.478s-0.864 0.478-1.373 0.478zm0-0.717c-0.74 0-1.111 0.174-1.135 0.243 0.023 0.062 0.395 0.234 1.135 0.234 0.739 0 1.111-0.173 1.135-0.242-0.025-0.061-0.397-0.235-1.135-0.235z"/>
						<path d="m8.449 55.522c0.239-0.547 0.263-1.313 0.263-1.313s0.3-10.627 0.3-12.418-1.528-15.562-2.205-15.602c-0.318 0.318-0.309 5.114-0.309 5.114s0.359 21.237 0.359 22.759c0 0.545 1.294 2.143 1.592 1.46z"/>
						<path d="m8.225 54.884c0.164-0.511 0.181-1.259 0.181-1.259s0.206-9.914 0.206-11.585-1.252-14.924-1.716-14.961c-0.219 0.297-0.009 5.177-0.009 5.177s0.246 20.083 0.246 21.502c0 0.509 0.888 1.763 1.092 1.126z" fill="#171D23"/>
						<polygon points="8.611 42.229 7.261 41.137 7.261 40.227 8.575 41.296"/>
						<path d="m50.732 55.522c-0.238-0.547-0.263-1.313-0.263-1.313s-0.3-10.627-0.3-12.418 1.528-15.562 2.205-15.602c0.318 0.318 0.309 5.114 0.309 5.114s-0.359 21.236-0.359 22.758c0 0.546-1.294 2.144-1.592 1.461z"/>
						<path d="m50.957 54.884c-0.164-0.511-0.181-1.259-0.181-1.259s-0.206-9.914-0.206-11.585 1.252-14.924 1.716-14.961c0.218 0.297 0.009 5.177 0.009 5.177s-0.246 20.083-0.246 21.502c0 0.509-0.888 1.763-1.092 1.126z" fill="#171D23"/>
						<polygon points="50.57 42.229 51.921 41.137 51.921 40.227 50.607 41.296"/>
						<path d="m0.919 33.94s-0.434-0.54-0.035-1.069c0.658-0.871 4.073-1.826 4.573-1.312l0.005 1.118-4.543 1.263z"/>
						<path d="m6.927 30.836c0.831-0.093 1.363 2.259 1.084 3.841-0.278 1.194-0.786-1.513-1.831-1.513-1.94 0-3.702 0.567-4.866 1.254-0.358-0.06-0.329-0.478-0.329-0.478s0.411-0.747 4.47-1.463v-0.919c1.024-0.03 1.337-0.704 1.472-0.722z" fill="#0C0C0C"/>
						<path d="m1.315 34.418s0.073 0.356 2.209-0.209c2.136-0.566 1.933-1.019 1.933-1.019s-1.814-0.026-4.142 1.228z" fill="#BCEAFF"/>
					<path d="m9.776 10.166c0.305-0.478 3.205-3.217 4.426-4.338-2.251 3.781-4.241 10.468-5.19 17.239l0.764-12.901z" fill="#CBCBCB"/>
					<path d="m49.422 10.166c-0.305-0.478-3.205-3.217-4.426-4.338 2.25 3.781 4.24 10.468 5.189 17.239l-0.763-12.901z" fill="#CBCBCB"/>
						<path d="m58.17 33.94s0.434-0.54 0.035-1.069c-0.658-0.871-4.072-1.826-4.572-1.312l-0.006 1.118 4.543 1.263z"/>
						<path d="m52.162 30.836c-0.831-0.093-1.363 2.259-1.085 3.841 0.278 1.194 0.786-1.513 1.831-1.513 1.94 0 3.701 0.567 4.865 1.254 0.359-0.06 0.328-0.478 0.328-0.478s-0.41-0.747-4.469-1.463v-0.919c-1.023-0.03-1.335-0.704-1.47-0.722z" fill="#0C0C0C"/>
						<path d="m57.773 34.418s-0.072 0.356-2.209-0.209c-2.136-0.566-1.932-1.019-1.932-1.019s1.813-0.026 4.141 1.228z" fill="#BCEAFF"/>
					<path d="m29.566 41.312c3.002 0 6.145 0.223 9.046 0.59v-3.219c-1.373-0.179-3.88-0.358-9.051-0.358-5.17 0-7.678 0.18-9.051 0.358v3.22c2.906-0.368 6.05-0.591 9.056-0.591z" fill="#7A7A7A"/>
					<path d="m20.511 38.684s6.446 0.379 9.073 0.379c2.467 0 9.029-0.379 9.029-0.379-1.373-0.179-3.88-0.358-9.051-0.358-5.171-0.001-7.678 0.179-9.051 0.358z" fill="#A9A9A9"/>
					<path d="m20.511 38.684l0.556 2.387s4.129-0.496 8.441-0.496 8.553 0.365 8.553 0.365l0.552-2.256 0.005 3.22s-5.297-0.591-9.055-0.591c-3.759 0-9.051 0.615-9.051 0.615v-3.244z" fill="#232323"/>
					<linearGradient id="a" y2="39.972" gradientUnits="userSpaceOnUse" y1="59.48" x2="29.562" x1="29.562">
						<stop stop-color="#D7D7D7" offset="0"/>
						<stop stop-color="#B6B6B6" offset=".3305"/>
						<stop stop-color="#636162" offset="1"/>
					</linearGradient>
					<path d="m29.562 60.955h19.788s0.213-16.339-0.584-16.681c-3.345-1.577-11.705-2.962-19.204-2.962s-15.859 1.385-19.204 2.962c-0.796 0.342-0.583 16.681-0.583 16.681h19.787" fill="url(#a)"/>
					<path d="m49.467 61.074h-39.81l-0.001-0.117c-0.05-3.852-0.151-16.446 0.656-16.792 3.531-1.666 11.989-2.972 19.251-2.972s15.719 1.306 19.254 2.974c0.804 0.344 0.703 12.938 0.652 16.79l-0.002 0.117zm-19.905-19.642c-7.232 0-15.645 1.297-19.153 2.951-0.522 0.432-0.594 10.269-0.516 16.453l19.669-0.001 19.669 0.001c0.078-6.185 0.006-16.022-0.519-16.455-3.505-1.652-11.918-2.949-19.15-2.949z" fill="#232323"/>
				<linearGradient id="q" y2="44.413" gradientUnits="userSpaceOnUse" y1="60.117" x2="29.562" x1="29.562">
					<stop stop-color="#FBFBFB" stop-opacity="0" offset="0"/>
					<stop stop-color="#FBFBFB" offset=".3635"/>
					<stop stop-color="#FBFBFB" stop-opacity=".7804" offset=".6426"/>
					<stop stop-color="#FBFBFB" stop-opacity="0" offset="1"/>
				</linearGradient>
				<path opacity=".8" d="m29.562 60.852l17.81 0.002s0.19-14.706-0.525-15.014c-3.012-1.42-10.535-2.666-17.284-2.666s-14.272 1.246-17.284 2.666c-0.716 0.308-0.524 15.014-0.524 15.014l17.807-0.002" fill="url(#q)"/>
				<g clip-rule="evenodd" fill-rule="evenodd">
					<path d="m25.436 54.92c-0.169-0.604-0.195-1.209-0.074-1.82 0.411-2.063 2.214-3.481 4.331-3.407 2.029 0.072 3.731 1.641 4 3.688 0.312 2.371-1.455 4.556-3.841 4.736-1.02 0.076-1.994-0.094-2.869-0.655-0.607-0.39-1.051-0.913-1.215-1.634-0.27-1.185 0.686-2.822 2.481-2.441 0.736 0.156 1.261 0.832 1.267 1.581 0.006 0.744-0.491 1.414-1.187 1.593-0.222 0.058-0.446 0.072-0.685-0.012 0.245-0.219 0.349-0.48 0.307-0.791-0.06-0.449-0.468-0.785-0.92-0.764-0.439 0.02-0.834 0.432-0.858 0.901-0.025 0.517 0.214 0.909 0.623 1.189 1.438 0.987 3.381 0.279 3.837-1.378 0.281-1.023 0.082-1.94-0.723-2.661-0.792-0.709-1.72-0.933-2.724-0.532-1.009 0.402-1.592 1.168-1.73 2.256-0.007 0.05-0.014 0.1-0.02 0.151z"/>
						<path d="m25.433 46.596v1.706h-0.538v-4.245h0.526c0.005 0.104 0.01 0.198 0.016 0.321 0.379-0.356 0.805-0.485 1.291-0.393 0.372 0.07 0.679 0.253 0.914 0.552 0.473 0.602 0.412 1.494-0.124 2.04-0.423 0.433-1.361 0.697-2.085 0.019zm-0.014-1.116c-0.003 0.557 0.441 1.015 0.986 1.02 0.542 0.006 0.997-0.453 1-1.007 0.002-0.554-0.446-1.018-0.988-1.021-0.543-0.003-0.996 0.454-0.998 1.008z"/>
						<path d="m29.002 46.586c-0.006 0.135-0.011 0.23-0.016 0.335h-0.522v-2.863h0.521c0.005 0.095 0.01 0.188 0.017 0.319 0.419-0.387 0.886-0.504 1.411-0.365 0.339 0.09 0.614 0.277 0.822 0.56 0.422 0.573 0.386 1.406-0.085 1.935-0.281 0.314-0.635 0.479-1.054 0.505-0.414 0.024-0.775-0.106-1.094-0.426zm-0.018-1.106c-0.004 0.553 0.443 1.015 0.987 1.02 0.543 0.005 0.995-0.45 1-1.006 0.005-0.554-0.443-1.018-0.986-1.021-0.541-0.005-0.996 0.453-1.001 1.007z"/>
						<path d="m34.734 45.488c-0.002-0.865 0.664-1.531 1.529-1.532 0.867-0.001 1.535 0.663 1.535 1.527 0.002 0.867-0.658 1.528-1.53 1.53-0.868 0.004-1.534-0.658-1.534-1.525zm1.537-1.015c-0.543-0.002-0.997 0.456-1.002 1.01-0.002 0.551 0.447 1.014 0.992 1.018 0.541 0.004 0.998-0.457 1-1.009s-0.45-1.017-0.99-1.019z"/>
						<path d="m24.377 45.496c-0.003 0.864-0.675 1.523-1.544 1.518-0.87-0.006-1.528-0.671-1.522-1.538 0.005-0.864 0.673-1.522 1.544-1.52 0.863 0.003 1.525 0.673 1.522 1.54zm-1.532-1.023c-0.541-0.001-0.996 0.461-0.996 1.013-0.001 0.553 0.451 1.014 0.993 1.015 0.542 0 0.997-0.461 0.997-1.012 0.001-0.552-0.453-1.015-0.994-1.016z"/>
						<path d="m32.034 44.771c-0.086-0.161-0.167-0.312-0.246-0.46 0.426-0.483 1.431-0.473 1.989 0.016 0.625 0.548 0.691 1.535 0.147 2.164-0.528 0.611-1.524 0.699-2.143 0.176 0.082-0.153 0.165-0.311 0.249-0.469 0.587 0.404 1.096 0.385 1.471-0.047 0.339-0.39 0.331-0.965-0.018-1.354-0.374-0.418-0.881-0.432-1.449-0.026z"/>
				</g>
					<path fill-rule="evenodd" clip-rule="evenodd" d="m38.656 60.955s-0.894-1.197-1.49-1.197h-7.583s-6.985 0-7.582 0c-0.597 0-1.491 1.197-1.491 1.197h18.146z" fill="#0F0F0F"/>
					<path d="m38.895 61.074h-18.623l0.143-0.191c0.095-0.127 0.948-1.244 1.586-1.244h15.165c0.639 0 1.49 1.117 1.586 1.244l0.143 0.191zm-18.137-0.238h17.651c-0.313-0.377-0.875-0.958-1.243-0.958h-15.165c-0.369 0-0.93 0.581-1.243 0.958z" fill="#1E1E1E"/>
				<path d="m21.822 38.325" fill="#232323"/>
					<linearGradient id="p" y2="38.862" gradientUnits="userSpaceOnUse" y1="41.888" x2="14.949" x1="14.949">
						<stop stop-color="#A9A9A9" offset="0"/>
						<stop stop-color="#A9A9A9" stop-opacity="0" offset="1"/>
					</linearGradient>
					<path d="m9.85 43.876v-2.874c1.465-0.775 6.247-2.166 10.13-2.42l0.067 2.832s-6.583 0.815-10.197 2.462z" fill="url(#p)"/>
					<linearGradient id="o" y2="38.862" gradientUnits="userSpaceOnUse" y1="41.888" x2="44.159" x1="44.159">
						<stop stop-color="#A9A9A9" offset="0"/>
						<stop stop-color="#A9A9A9" stop-opacity="0" offset="1"/>
					</linearGradient>
					<path d="m49.258 43.876v-2.874c-1.465-0.775-6.248-2.166-10.13-2.42l-0.067 2.832s6.582 0.815 10.197 2.462z" fill="url(#o)"/>
				<path d="m8.611 10.962s-0.873 13.015-0.856 14.966c0.017 1.95-0.656 0-0.656 0l0.605-12.458c0.427-0.279 0.907-2.508 0.907-2.508z" fill="#6D6D6D"/>
				<path d="m50.49 10.962s0.873 13.015 0.855 14.966c-0.017 1.95 0.656 0 0.656 0l-0.604-12.458c-0.426-0.279-0.907-2.508-0.907-2.508z" fill="#6D6D6D"/>
		<path d="m9.285 59.758" fill-rule="evenodd" stroke="#3F3F3F" clip-rule="evenodd" stroke-miterlimit="10" stroke-width="3" fill="none"/>
						<linearGradient id="n" y2="111.5" gradientUnits="userSpaceOnUse" y1="63.148" x2="29.584" x1="29.584">
							<stop stop-color="#DF0000" offset="0"/>
							<stop stop-color="#A00404" offset="1"/>
						</linearGradient>
						<path fill-rule="evenodd" clip-rule="evenodd" d="m54.607 113.08c0 2.2-1.799 4-4 4h-42.047c-2.2 0-4-1.8-4-4v-47.888c0-2.2 1.8-4 4-4h42.048c2.201 0 4 1.8 4 4v47.888z" fill="url(#n)"/>
					<path d="m53.652 117.44h-48.137c-0.724 0-1.313-0.59-1.313-1.313v-53.983c0-0.724 0.589-1.313 1.313-1.313h48.138c0.725 0 1.314 0.59 1.314 1.313v53.979c0 0.72-0.59 1.31-1.315 1.31zm-48.137-55.889c-0.329 0-0.597 0.268-0.597 0.597v53.979c0 0.329 0.268 0.597 0.597 0.597h48.138c0.33 0 0.598-0.268 0.598-0.597v-53.983c0-0.329-0.268-0.597-0.598-0.597h-48.138z" fill="#6D0000"/>
					<path fill-rule="evenodd" clip-rule="evenodd" d="m48.725 85.209c0 1.1-0.899 2-2 2h-34.284c-1.1 0-2-0.9-2-2v-15.472c0-1.101 0.9-2 2-2h34.284c1.101 0 2 0.899 2 2v15.472z" fill="#700000"/>
						<linearGradient id="m" y2="83.258" gradientUnits="userSpaceOnUse" y1="68.634" x2="29.584" x1="29.584">
							<stop stop-color="#DF0000" offset="0"/>
							<stop stop-color="#A00404" offset="1"/>
						</linearGradient>
						<path fill-rule="evenodd" clip-rule="evenodd" d="m47.711 83.918c0 1.1-0.9 2-2 2h-32.255c-1.1 0-2-0.9-2-2v-14.311c0-1.1 0.9-2 2-2h32.255c1.1 0 2 0.9 2 2v14.311z" fill="url(#m)"/>
					<path d="m47.232 86.275h-35.298c-0.461 0-0.836-0.375-0.836-0.836v-17.354c0-0.461 0.375-0.836 0.836-0.836h35.298c0.461 0 0.836 0.375 0.836 0.836v17.354c0 0.461-0.375 0.836-0.836 0.836zm-35.298-18.309c-0.065 0-0.12 0.054-0.12 0.119v17.354c0 0.065 0.055 0.12 0.12 0.12h35.298c0.064 0 0.119-0.055 0.119-0.12v-17.354c0-0.065-0.055-0.119-0.119-0.119h-35.298z" fill="#A80000"/>
						<linearGradient id="l" y2="91.706" gradientUnits="userSpaceOnUse" y1="81.851" x2="29.584" x1="29.584">
							<stop stop-color="#DF0000" offset="0"/>
							<stop stop-color="#A00404" offset="1"/>
						</linearGradient>
						<path fill-rule="evenodd" clip-rule="evenodd" d="m45.898 83.512c0 1.1-0.9 2-2 2h-28.629c-1.1 0-2-0.9-2-2v-13.498c0-1.1 0.9-2 2-2h28.629c1.1 0 2 0.9 2 2v13.498z" fill="url(#l)"/>
					<path opacity=".4" fill-rule="evenodd" clip-rule="evenodd" d="m13.868 84.119c0.001-0.479 0.034-14.237 0.034-14.237s-0.241-1.009 0.955-1.009c1.592 0 28.821-0.086 29.93 0-1.034 0.205-28.577 0-29.85 1.114s-0.836 13.373-1.069 14.132z" fill="#fff"/>
					<linearGradient id="k" y2="84.849" gradientUnits="userSpaceOnUse" y1="82.027" x2="29.588" x1="29.588">
						<stop stop-color="#DF0000" offset="0"/>
						<stop stop-color="#A00404" offset="1"/>
					</linearGradient>
					<path fill-rule="evenodd" clip-rule="evenodd" d="m45.225 83.43c0 0.805-1.35 1.463-3 1.463h-25.273c-1.65 0-3-0.658-3-1.463s1.35-1.463 3-1.463h25.272c1.651 0 3.001 0.658 3.001 1.463z" fill="url(#k)"/>
			<g opacity=".3" fill-rule="evenodd" clip-rule="evenodd" fill="#fff">
				<path d="m6.796 113.02c0.735-0.716 1.815-46.336 1.815-47.888 0-1.553-2.113-1.791-2.113-1.791l0.298 49.679z"/>
				<path d="m52.287 113.02c-0.736-0.716-1.815-46.336-1.815-47.888 0-1.553 2.113-1.791 2.113-1.791l-0.298 49.679z"/>
			</g>
				<linearGradient id="j" y2="64.894" gradientUnits="userSpaceOnUse" y1="63.759" x2="29.542" x1="29.542">
					<stop stop-color="#700000" stop-opacity="0" offset="0"/>
					<stop stop-color="#700000" offset="1"/>
				</linearGradient>
				<path opacity=".5" fill-rule="evenodd" clip-rule="evenodd" d="m8.611 65.132c0 0.038 0 0.119-0.002 0.238h41.864c-0.001-0.119-0.002-0.2-0.002-0.238 0-1.553 2.113-1.791 2.113-1.791h-46.085s2.112 0.238 2.112 1.791z" fill="url(#j)"/>
				<path fill-rule="evenodd" clip-rule="evenodd" d="m5.087 116.37c-0.29 0-0.527-1.8-0.527-4v-47.415c0-2.2 1.8-4 4-4h42.048c2.201 0 4 1.8 4 4v47.416c0 2.2-0.24 4-0.535 4-0.294 0-0.535-1.8-0.535-4v-46.01c0-2.2-1.799-4-4-4h-39.924c-2.2 0-4 1.8-4 4v46.01c0 2.2-0.238 4-0.527 4z" fill="#870000"/>
			<path d="m53.652 117.44h-48.137c-0.724 0-1.313-0.59-1.313-1.313v-53.983c0-0.724 0.589-1.313 1.313-1.313h48.138c0.725 0 1.314 0.59 1.314 1.313v53.979c0 0.72-0.59 1.31-1.315 1.31zm-48.137-55.889c-0.329 0-0.597 0.268-0.597 0.597v53.979c0 0.329 0.268 0.597 0.597 0.597h48.138c0.33 0 0.598-0.268 0.598-0.597v-53.983c0-0.329-0.268-0.597-0.598-0.597h-48.138z" fill="#6D0000"/>
</svg>
