<!DOCTYPE svg PUBLIC '-//W3C//DTD SVG 1.1//EN' 'http://www.w3.org/Graphics/SVG/1.1/DTD/svg11.dtd'>
<svg xmlns="http://www.w3.org/2000/svg" xml:space="preserve" height="123.76px" width="64.063px" version="1.1" xmlns:xlink="http://www.w3.org/1999/xlink" viewBox="2.931 15.906 64.063 123.758" enable-background="new 2.931 15.906 64.063 123.758">
	<path opacity=".4" d="m66.682 54.511c-0.711-0.941-3.289-1.737-4.551-1.744-0.055-3.867-0.262-9.445-0.695-14.447-0.244-2.813-0.533-5.109-0.857-6.821-0.536-2.827-1.08-3.554-1.492-3.873l-0.199-0.153c-2.104-1.633-7.029-5.458-21.458-5.458-14.431 0-19.355 3.825-21.458 5.458l-0.197 0.153c-0.414 0.319-0.957 1.046-1.493 3.871-0.325 1.712-0.613 4.008-0.858 6.82-0.434 5.001-0.64 10.581-0.695 14.45-0.015 0-0.029-0.001-0.043-0.001-1.255 0-3.856 0.798-4.57 1.745-0.583 0.773-0.224 1.615 0.048 1.953l0.296 0.368 0.109-0.03c0.285 0.205 0.742 0.396 1.451 0.396 0.439 0 0.943-0.074 1.497-0.221 0.587-0.156 1.028-0.311 1.36-0.459 0.072 0.323 0.154 0.554 0.22 0.706l-0.178 25.798c-0.047 0.015-0.093 0.033-0.138 0.055h-0.41v0.295c-0.222 0.235-0.359 0.552-0.359 0.899v54.075c0 0.349 0.137 0.666 0.359 0.9v0.058h0.057c0.235 0.222 0.552 0.358 0.9 0.358h48.223c0.349 0 0.665-0.137 0.9-0.358h0.058v-0.058c0.221-0.234 0.358-0.552 0.358-0.9v-54.078c0-0.348-0.138-0.664-0.358-0.899v-0.295h-0.41c-0.05-0.023-0.102-0.044-0.154-0.061l-0.178-25.792c0.064-0.147 0.145-0.371 0.215-0.681 0.325 0.142 0.748 0.286 1.302 0.434 0.554 0.146 1.058 0.221 1.497 0.221 0.709 0 1.166-0.191 1.451-0.396l0.108 0.03 0.296-0.368c0.269-0.339 0.628-1.181 0.046-1.954zm-0.681 0.313c-0.009-0.007-0.017-0.016-0.026-0.024 0.01 0.009 0.018 0.018 0.026 0.024zm-2.49 0.778c0.747 0.203 1.415 0.478 1.969 0.779-0.005 0.001-0.009 0.003-0.013 0.005-0.72-0.37-1.384-0.619-1.956-0.784zm-54.183 0.784c-0.003-0.002-0.008-0.004-0.012-0.005 0.553-0.302 1.221-0.576 1.968-0.779-0.571 0.165-1.236 0.414-1.956 0.784zm3.944-1.081v-0.01c0.001 0.003 0 0.006 0 0.01zm-0.001-0.042c0.023-0.002 0.047-0.002 0.07-0.004-0.024 0.002-0.048 0.002-0.07 0.004zm0.001 0.027v-0.006 0.006zm-0.001-0.009c0-0.002 0-0.004-0.001-0.006 0.001 0.002 0.001 0.004 0.001 0.006zm-0.001-0.009c0-0.001 0-0.003-0.001-0.003 0.001 0 0.001 0.002 0.001 0.003zm47.804 1.735c0.001 0 0.001-0.001 0.001-0.002 0 0.001 0 0.002-0.001 0.002zm-0.017 0.034c0.001-0.002 0.002-0.004 0.002-0.006 0 0.003-0.001 0.004-0.002 0.006zm0.365-1.784c0 0.006-0.001 0.012-0.002 0.018 0.001-0.006 0.001-0.012 0.002-0.018zm-0.708-16.951c0.002 0.027 0.005 0.055 0.007 0.081-0.002-0.026-0.005-0.054-0.007-0.081zm0.037 0.434c0.004 0.047 0.008 0.094 0.012 0.142-0.004-0.049-0.008-0.096-0.012-0.142zm0.039 0.457c0.004 0.062 0.01 0.123 0.015 0.186-0.006-0.063-0.012-0.124-0.015-0.186zm0.039 0.49c0.004 0.064 0.01 0.13 0.015 0.195-0.006-0.065-0.011-0.131-0.015-0.195zm0.037 0.5c0.005 0.068 0.01 0.135 0.016 0.201-0.007-0.066-0.011-0.133-0.016-0.201zm0.037 0.499c0.005 0.069 0.01 0.141 0.015 0.21-0.005-0.07-0.01-0.141-0.015-0.21zm0.035 0.508c0.005 0.071 0.01 0.142 0.015 0.214-0.005-0.073-0.01-0.143-0.015-0.214zm0.033 0.504c0.006 0.075 0.011 0.151 0.016 0.228-0.005-0.077-0.01-0.153-0.016-0.228zm0.033 0.506l0.015 0.234c-0.005-0.077-0.01-0.156-0.015-0.234zm0.032 0.516c0.005 0.077 0.01 0.155 0.014 0.232-0.005-0.077-0.009-0.155-0.014-0.232zm0.031 0.512c0.004 0.08 0.008 0.159 0.014 0.238-0.006-0.079-0.01-0.158-0.014-0.238zm0.029 0.514c0.004 0.079 0.008 0.159 0.012 0.239-0.004-0.079-0.008-0.16-0.012-0.239zm0.028 0.519c0.004 0.077 0.008 0.153 0.012 0.23-0.005-0.077-0.009-0.153-0.012-0.23zm0.026 0.511c0.004 0.079 0.008 0.159 0.013 0.239-0.005-0.08-0.009-0.16-0.013-0.239zm0.025 0.512c0.003 0.077 0.007 0.154 0.011 0.231-0.004-0.076-0.008-0.154-0.011-0.231zm0.025 0.515c0.003 0.075 0.006 0.149 0.01 0.224-0.004-0.075-0.007-0.149-0.01-0.224zm0.021 0.501c0.004 0.08 0.008 0.16 0.011 0.238-0.003-0.078-0.007-0.158-0.011-0.238zm0.023 0.51c0.003 0.072 0.006 0.145 0.009 0.216l-0.009-0.216zm0.02 0.505c0.003 0.07 0.006 0.142 0.008 0.212-0.002-0.071-0.005-0.142-0.008-0.212zm0.02 0.492c0.002 0.072 0.004 0.144 0.008 0.216-0.004-0.073-0.006-0.144-0.008-0.216zm0.017 0.495l0.006 0.201-0.006-0.201zm0.017 0.488c0.002 0.06 0.004 0.12 0.005 0.18-0.001-0.06-0.003-0.12-0.005-0.18zm0.015 0.488c0.002 0.043 0.004 0.085 0.004 0.127-0.001-0.042-0.003-0.084-0.004-0.127zm0.015 0.48c0 0.027 0.001 0.055 0.002 0.081-0.001-0.026-0.002-0.054-0.002-0.081zm0.013 0.47c0 0.006 0 0.014 0.001 0.02-0.001-0.007-0.001-0.014-0.001-0.02zm-1.706-19.637c0.01 0.047 0.021 0.094 0.033 0.142-0.012-0.048-0.023-0.095-0.033-0.142zm0.07 0.309c0.01 0.047 0.02 0.096 0.031 0.145-0.011-0.05-0.021-0.099-0.031-0.145zm0.068 0.324c0.01 0.049 0.02 0.098 0.029 0.147-0.009-0.05-0.019-0.098-0.029-0.147zm0.067 0.334c0.01 0.051 0.02 0.104 0.029 0.156-0.01-0.053-0.019-0.105-0.029-0.156zm0.064 0.35c0.01 0.052 0.02 0.105 0.028 0.158-0.008-0.052-0.018-0.106-0.028-0.158zm0.065 0.365c0.009 0.052 0.018 0.104 0.026 0.158-0.009-0.055-0.017-0.107-0.026-0.158zm0.062 0.374c0.008 0.054 0.017 0.108 0.025 0.163-0.008-0.055-0.017-0.11-0.025-0.163zm0.061 0.385c0.008 0.055 0.016 0.11 0.023 0.164-0.008-0.053-0.015-0.109-0.023-0.164zm0.058 0.402c0.008 0.052 0.016 0.104 0.022 0.157-0.006-0.053-0.014-0.105-0.022-0.157zm0.058 0.409c0.007 0.052 0.015 0.105 0.021 0.159-0.006-0.054-0.014-0.107-0.021-0.159zm0.056 0.418c0.008 0.052 0.014 0.104 0.021 0.157-0.008-0.053-0.013-0.105-0.021-0.157zm0.054 0.428c0.006 0.051 0.013 0.104 0.019 0.154-0.006-0.051-0.013-0.104-0.019-0.154zm0.054 0.44c0.005 0.046 0.011 0.091 0.016 0.136-0.005-0.045-0.011-0.09-0.016-0.136zm0.052 0.446c0.004 0.039 0.008 0.079 0.014 0.118-0.006-0.039-0.01-0.079-0.014-0.118zm0.051 0.456c0.002 0.023 0.004 0.047 0.007 0.07-0.003-0.023-0.005-0.046-0.007-0.07zm0.047 0.46c0.001 0.005 0.001 0.011 0.001 0.016 0-0.005 0-0.011-0.001-0.016zm-46.16-0.615c0.012-0.109 0.023-0.217 0.036-0.323-0.013 0.106-0.024 0.214-0.036 0.323zm0.054-0.474c0.011-0.1 0.022-0.199 0.034-0.297-0.012 0.097-0.023 0.197-0.034 0.297zm0.053-0.456c0.011-0.094 0.022-0.188 0.034-0.28-0.011 0.093-0.023 0.187-0.034 0.28zm0.054-0.441c0.012-0.091 0.023-0.18 0.035-0.27-0.012 0.09-0.023 0.179-0.035 0.27zm0.057-0.431c0.012-0.086 0.022-0.173 0.035-0.257-0.013 0.085-0.024 0.171-0.035 0.257zm0.057-0.421c0.012-0.082 0.023-0.163 0.035-0.244-0.012 0.081-0.023 0.162-0.035 0.244zm0.06-0.412c0.011-0.076 0.022-0.153 0.034-0.229-0.012 0.076-0.023 0.153-0.034 0.229zm0.059-0.394c0.012-0.074 0.024-0.148 0.036-0.223-0.012 0.074-0.024 0.149-0.036 0.223zm0.062-0.383c0.012-0.071 0.023-0.142 0.036-0.213l-0.036 0.213zm0.063-0.372c0.012-0.069 0.024-0.137 0.037-0.202-0.012 0.065-0.024 0.133-0.037 0.202zm0.065-0.357c0.012-0.065 0.024-0.13 0.037-0.194-0.012 0.064-0.025 0.128-0.037 0.194zm0.066-0.345c0.012-0.062 0.024-0.124 0.037-0.186-0.012 0.062-0.025 0.123-0.037 0.186zm0.068-0.33c0.013-0.06 0.025-0.119 0.038-0.176-0.013 0.057-0.025 0.116-0.038 0.176zm0.069-0.317c0.012-0.057 0.025-0.111 0.039-0.166-0.013 0.055-0.026 0.11-0.039 0.166zm-1.385 26.26v-0.002 0.002zm0.029 0.054s-0.001-0.002-0.003-0.005c0.001 0.002 0.003 0.005 0.003 0.005zm-0.012-0.022c0-0.001 0-0.002-0.001-0.003 0 0.001 0 0.002 0.001 0.003zm47.64-1.78c0.028 0.002 0.057 0.002 0.085 0.004-0.028-0.002-0.057-0.004-0.085-0.004zm0.082 0.036c0 0.004 0 0.008 0.001 0.013-0.001-0.005-0.001-0.009-0.001-0.013zm0.003-0.026v0.003-0.003zm-0.001 0.006c-0.001 0.002-0.001 0.004-0.001 0.006 0-0.002 0-0.004 0.001-0.006zm-0.001 0.009c-0.001 0.002-0.001 0.005-0.001 0.008 0-0.003 0-0.006 0.001-0.008zm0.615-1.799c-0.014 0-0.027-0.001-0.04-0.001h0.013c0.008 0 0.017 0.001 0.027 0.001zm3.7 1.201c-0.009-0.007-0.019-0.014-0.028-0.021 0.01 0.007 0.02 0.014 0.028 0.021zm-0.179-0.124c-0.009-0.007-0.019-0.014-0.028-0.02 0.009 0.006 0.019 0.013 0.028 0.02zm-0.218-0.131c-0.016-0.009-0.031-0.018-0.048-0.025 0.017 0.007 0.032 0.016 0.048 0.025zm-0.26-0.135c-0.008-0.004-0.015-0.008-0.021-0.01 0.006 0.002 0.013 0.006 0.021 0.01zm-0.236-0.109c-0.02-0.008-0.037-0.016-0.057-0.023 0.02 0.007 0.037 0.015 0.057 0.023zm-0.294-0.121c-0.019-0.007-0.038-0.014-0.056-0.021 0.018 0.007 0.037 0.014 0.056 0.021zm-0.281-0.105c-0.014-0.005-0.027-0.011-0.041-0.015 0.013 0.004 0.027 0.01 0.041 0.015zm-0.296-0.099c-0.022-0.008-0.045-0.015-0.067-0.021 0.022 0.006 0.044 0.013 0.067 0.021zm-0.325-0.098c-0.014-0.005-0.027-0.008-0.042-0.012 0.015 0.004 0.029 0.007 0.042 0.012zm-0.272-0.073c-0.021-0.005-0.04-0.01-0.061-0.016 0.021 0.006 0.041 0.011 0.061 0.016zm-0.31-0.073c-0.02-0.004-0.04-0.009-0.06-0.013 0.02 0.005 0.041 0.01 0.06 0.013zm-0.283-0.056c-0.01-0.001-0.021-0.003-0.031-0.005 0.01 0.002 0.021 0.004 0.031 0.005zm-0.263-0.04c-0.02-0.003-0.037-0.005-0.057-0.007 0.019 0.002 0.037 0.004 0.057 0.007zm-0.272-0.03c-0.012 0-0.023-0.001-0.035-0.001 0.012 0 0.023 0.001 0.035 0.001zm-0.417-0.001c-0.013 0.001-0.024 0.002-0.037 0.003 0.013-0.001 0.024-0.002 0.037-0.003zm-0.165 0.024c-0.006 0.002-0.014 0.003-0.02 0.004 0.006-0.001 0.014-0.002 0.02-0.004zm-0.134 0.044c-0.009 0.003-0.016 0.007-0.022 0.011 0.007-0.004 0.013-0.008 0.022-0.011zm-2.017-23.122c-0.011-0.045-0.022-0.09-0.033-0.133 0.01 0.043 0.022 0.088 0.033 0.133zm-0.072-0.283c-0.012-0.043-0.023-0.085-0.035-0.129 0.012 0.044 0.024 0.086 0.035 0.129zm-0.074-0.267c-0.012-0.042-0.023-0.082-0.036-0.123 0.013 0.041 0.024 0.081 0.036 0.123zm-0.075-0.251c-0.013-0.04-0.024-0.078-0.037-0.117 0.013 0.039 0.024 0.077 0.037 0.117zm-0.077-0.235c-0.012-0.037-0.025-0.073-0.038-0.109 0.012 0.035 0.026 0.072 0.038 0.109zm-0.078-0.217c-0.013-0.035-0.026-0.068-0.039-0.103 0.012 0.034 0.026 0.068 0.039 0.103zm-0.079-0.199c-0.014-0.033-0.028-0.063-0.042-0.095 0.013 0.031 0.028 0.061 0.042 0.095zm-0.249-0.486c-0.018-0.026-0.034-0.049-0.051-0.072 0.016 0.023 0.033 0.046 0.051 0.072zm0.168 0.304c-0.016-0.03-0.029-0.058-0.045-0.085 0.015 0.027 0.029 0.055 0.045 0.085zm-0.084-0.161c-0.016-0.027-0.031-0.053-0.047-0.078 0.015 0.025 0.031 0.051 0.047 0.078zm-0.171-0.265c-0.02-0.024-0.038-0.046-0.058-0.068 0.02 0.022 0.038 0.044 0.058 0.068zm-0.088-0.102c-0.03-0.03-0.061-0.058-0.091-0.08 0.03 0.022 0.061 0.049 0.091 0.08zm-42.527-0.08c-0.03 0.022-0.06 0.05-0.09 0.08 0.03-0.031 0.06-0.058 0.09-0.08zm-0.211 0.229c-0.018 0.024-0.036 0.049-0.053 0.075 0.017-0.026 0.035-0.051 0.053-0.075zm0.094-0.116c-0.021 0.021-0.041 0.044-0.061 0.069 0.02-0.025 0.04-0.048 0.061-0.069zm-0.854 2.139c0.013-0.053 0.026-0.105 0.039-0.157-0.013 0.051-0.026 0.104-0.039 0.157zm0.072-0.286c0.014-0.051 0.026-0.101 0.04-0.149-0.014 0.049-0.026 0.099-0.04 0.149zm0.074-0.267c0.014-0.049 0.027-0.095 0.042-0.142-0.015 0.047-0.029 0.093-0.042 0.142zm0.075-0.254c0.014-0.045 0.028-0.087 0.042-0.131-0.014 0.044-0.028 0.086-0.042 0.131zm0.077-0.235c0.014-0.042 0.029-0.081 0.043-0.122-0.014 0.04-0.029 0.08-0.043 0.122zm0.079-0.219c0.015-0.038 0.029-0.075 0.044-0.11-0.015 0.035-0.03 0.072-0.044 0.11zm0.08-0.2c0.015-0.035 0.03-0.068 0.046-0.103-0.016 0.034-0.031 0.067-0.046 0.103zm0.081-0.181c0.016-0.033 0.032-0.063 0.047-0.093-0.015 0.029-0.031 0.06-0.047 0.093zm0.084-0.163c0.016-0.029 0.033-0.057 0.049-0.083-0.016 0.026-0.033 0.054-0.049 0.083zm-1.543 7.831c-0.049 0.472-0.096 0.954-0.14 1.444 0.044-0.49 0.091-0.972 0.14-1.444zm0.049-0.462c-0.014 0.127-0.028 0.255-0.041 0.384 0.013-0.129 0.027-0.257 0.041-0.384zm-0.859 13.825c0.001-0.026 0.001-0.052 0.002-0.078-0.001 0.026-0.001 0.052-0.002 0.078zm0.013-0.463l0.003-0.084c-0.001 0.029-0.002 0.056-0.003 0.084zm0.015-0.45c0.001-0.04 0.002-0.078 0.004-0.118-0.001 0.04-0.003 0.078-0.004 0.118zm0.015-0.459c0.002-0.051 0.004-0.101 0.005-0.151-0.001 0.051-0.003 0.1-0.005 0.151zm0.016-0.456c0.002-0.064 0.005-0.13 0.008-0.195-0.003 0.065-0.006 0.131-0.008 0.195zm0.019-0.49c0.002-0.066 0.005-0.134 0.007-0.201-0.002 0.067-0.005 0.134-0.007 0.201zm0.019-0.489c0.003-0.071 0.006-0.142 0.009-0.213-0.003 0.071-0.006 0.141-0.009 0.213zm0.021-0.511c0.003-0.068 0.006-0.137 0.009-0.205-0.003 0.068-0.006 0.136-0.009 0.205zm0.022-0.493c0.003-0.074 0.007-0.15 0.01-0.227-0.003 0.076-0.007 0.152-0.01 0.227zm0.023-0.508c0.004-0.076 0.007-0.151 0.011-0.227-0.003 0.075-0.007 0.151-0.011 0.227zm0.025-0.51c0.004-0.078 0.008-0.156 0.012-0.233-0.004 0.077-0.008 0.155-0.012 0.233zm0.026-0.506c0.004-0.084 0.009-0.168 0.013-0.252-0.004 0.084-0.009 0.168-0.013 0.252zm0.027-0.507c0.005-0.088 0.01-0.175 0.015-0.263-0.006 0.089-0.011 0.175-0.015 0.263zm0.028-0.515c0.005-0.089 0.01-0.177 0.016-0.266-0.006 0.089-0.011 0.177-0.016 0.266zm0.03-0.513c0.005-0.092 0.011-0.185 0.017-0.275-0.006 0.09-0.012 0.183-0.017 0.275zm0.031-0.514c0.005-0.094 0.011-0.185 0.017-0.277-0.006 0.093-0.012 0.184-0.017 0.277zm0.033-0.514c0.006-0.095 0.012-0.191 0.018-0.285-0.006 0.093-0.013 0.19-0.018 0.285zm0.033-0.511c0.007-0.098 0.013-0.195 0.02-0.293-0.007 0.098-0.013 0.195-0.02 0.293zm0.035-0.512c0.007-0.099 0.014-0.197 0.021-0.298-0.007 0.101-0.014 0.2-0.021 0.298zm0.037-0.508c0.007-0.102 0.014-0.201 0.022-0.303-0.008 0.102-0.015 0.202-0.022 0.303zm0.038-0.507c0.007-0.104 0.016-0.207 0.024-0.309-0.008 0.102-0.017 0.205-0.024 0.309zm0.039-0.501c0.008-0.111 0.017-0.222 0.027-0.331-0.01 0.109-0.019 0.219-0.027 0.331zm0.04-0.499c0.009-0.116 0.019-0.23 0.029-0.348-0.01 0.117-0.019 0.231-0.029 0.348zm0.042-0.494c0.012-0.136 0.023-0.271 0.036-0.404-0.013 0.133-0.025 0.268-0.036 0.404zm-0.7 15.21c-0.054 0.005-0.11 0.01-0.168 0.012 0.058-0.002 0.113-0.007 0.168-0.012zm-0.252-0.046c-0.008-0.004-0.015-0.008-0.023-0.011 0.008 0.003 0.015 0.007 0.023 0.011zm-0.137-0.051c-0.006-0.001-0.013-0.002-0.02-0.004 0.007 0.002 0.014 0.003 0.02 0.004zm-0.148-0.025c-0.012-0.001-0.024-0.002-0.037-0.003 0.013 0.001 0.025 0.002 0.037 0.003zm-0.203-0.01c-0.013 0-0.026 0.001-0.039 0.001 0.008 0 0.019-0.001 0.027-0.001h0.012zm-3.739 1.202l0.027-0.021c-0.009 0.007-0.019 0.014-0.027 0.021zm0.18-0.126c0.008-0.006 0.017-0.012 0.026-0.018-0.009 0.006-0.017 0.012-0.026 0.018zm0.217-0.129c0.015-0.009 0.031-0.018 0.046-0.025-0.015 0.007-0.03 0.016-0.046 0.025zm0.261-0.136c0.005-0.003 0.011-0.005 0.017-0.008-0.006 0.003-0.012 0.005-0.017 0.008zm0.237-0.108c0.018-0.008 0.035-0.016 0.052-0.023-0.017 0.007-0.034 0.015-0.052 0.023zm0.293-0.122c0.017-0.007 0.035-0.013 0.053-0.02-0.018 0.007-0.036 0.013-0.053 0.02zm0.282-0.105c0.013-0.005 0.025-0.01 0.038-0.014-0.012 0.004-0.025 0.009-0.038 0.014zm0.295-0.099c0.021-0.007 0.043-0.014 0.064-0.02-0.021 0.006-0.042 0.013-0.064 0.02zm0.323-0.097c0.013-0.005 0.027-0.008 0.04-0.012-0.013 0.004-0.026 0.007-0.04 0.012zm0.273-0.073c0.021-0.005 0.04-0.01 0.06-0.016-0.02 0.006-0.04 0.011-0.06 0.016zm0.308-0.073c0.021-0.004 0.04-0.009 0.06-0.013-0.019 0.005-0.04 0.01-0.06 0.013zm0.284-0.056c0.011-0.001 0.022-0.003 0.032-0.005-0.01 0.002-0.022 0.004-0.032 0.005zm0.263-0.04c0.02-0.003 0.039-0.005 0.057-0.007-0.018 0.002-0.037 0.004-0.057 0.007zm0.272-0.03c0.012 0 0.023-0.001 0.036-0.001-0.013 0-0.024 0.001-0.036 0.001zm-3.625 1.308c-0.009 0.009-0.017 0.018-0.025 0.024 0.008-0.006 0.016-0.015 0.025-0.024zm-0.013 1.191l-0.085 0.022 0.085-0.022zm2.524 0.293c1.203-0.319 1.666-0.603 1.839-0.789-0.173 0.187-0.635 0.47-1.839 0.789zm1.941-0.976c0 0.004-0.001 0.009-0.001 0.013 0-0.004 0.001-0.009 0.001-0.013zm-0.002 0.017c-0.001 0.004-0.002 0.01-0.003 0.014 0.001-0.004 0.002-0.01 0.003-0.014zm-0.004 0.018c-0.001 0.005-0.003 0.011-0.005 0.016 0.001-0.005 0.003-0.011 0.005-0.016zm-0.007 0.02c-0.002 0.008-0.005 0.014-0.009 0.021 0.003-0.008 0.006-0.014 0.009-0.021zm-0.01 0.023c-0.003 0.007-0.007 0.015-0.012 0.021 0.005-0.006 0.009-0.014 0.012-0.021zm-0.013 0.023c-0.004 0.008-0.01 0.017-0.016 0.025 0.006-0.008 0.011-0.017 0.016-0.025zm-0.017 0.028c-0.006 0.009-0.013 0.019-0.021 0.027 0.008-0.009 0.014-0.018 0.021-0.027zm-0.022 0.027c-0.007 0.01-0.015 0.02-0.024 0.028 0.009-0.008 0.017-0.018 0.024-0.028zm48.34-0.101c0.062 0.165 0.39 0.514 1.928 0.922-1.539-0.409-1.866-0.757-1.928-0.922zm-0.013-0.055c0 0.004 0 0.009 0.001 0.014-0.001-0.005-0.001-0.01-0.001-0.014zm0.002 0.017c0 0.005 0.002 0.01 0.004 0.017-0.002-0.007-0.004-0.012-0.004-0.017zm0.004 0.018c0.002 0.006 0.004 0.013 0.006 0.02-0.002-0.007-0.004-0.014-0.006-0.02zm4.459 0.648l0.085 0.022-0.085-0.022z" fill="#060D1C"/>
					<linearGradient id="i" y2="79.988" gradientUnits="userSpaceOnUse" y1="16.561" x2="33.278" x1="33.278">
						<stop stop-color="#CBCBCB" offset="0"/>
						<stop stop-color="#8D8D8D" offset=".3163"/>
						<stop stop-color="#666" offset=".9286"/>
						<stop stop-color="#333" offset=".9745"/>
					</linearGradient>
					<path d="m57.075 77.689l-0.18-26.018s0.441-0.699 0.383-2.613c-0.024-7.913-0.814-24.738-2.781-26.254-1.969-1.516-6.56-5.463-21.219-5.463s-19.251 3.947-21.219 5.463c-1.967 1.516-2.757 18.341-2.781 26.254-0.06 1.914 0.383 2.613 0.383 2.613l-0.18 26.018h47.594z" fill="url(#i)"/>
					<path fill-rule="evenodd" clip-rule="evenodd" d="m12.951 77.689s-3.21-1.562-3.53-5.906v5.906h3.53z" fill="#3F3F3F"/>
					<path fill-rule="evenodd" clip-rule="evenodd" d="m53.573 77.689s3.209-1.562 3.529-5.906v5.906h-3.529z" fill="#3F3F3F"/>
					<path d="m10.481 44.14l-0.239-0.01c0.005-0.134 0.516-13.473 0.798-15.879l0.237 0.029c-0.28 2.396-0.79 15.725-0.796 15.86z" fill="#333"/>
					<path d="m56.164 44.987c-0.007-0.135-0.617-13.43-0.897-15.827l0.236-0.028c0.282 2.405 0.895 15.711 0.9 15.845l-0.239 0.01z" fill="#333"/>
						<path d="m11.097 29.841c-0.06-1.556 0.418-4.846 1.375-5.922 0.958-1.076 8.445-4.556 7.511-3.785-1.759 1.449-7.271 6.119-7.87 7.016-0.598 0.896-0.538 2.631-1.016 2.691z" fill="#fff"/>
						<path d="m10.981 29.976l-0.004-0.131c-0.056-1.438 0.39-4.862 1.405-6.004 0.864-0.973 7.072-3.937 7.646-3.937 0.105 0 0.138 0.069 0.146 0.091 0.037 0.105-0.063 0.187-0.116 0.23-1.812 1.492-7.259 6.109-7.846 6.99-0.276 0.414-0.408 1.022-0.523 1.56-0.138 0.638-0.246 1.143-0.578 1.184l-0.13 0.017zm8.656-9.711c-1.456 0.555-6.302 2.864-7.076 3.734-0.862 0.971-1.361 3.895-1.35 5.595 0.097-0.187 0.174-0.542 0.245-0.869 0.12-0.557 0.257-1.19 0.558-1.642 0.574-0.861 5.586-5.13 7.623-6.818z" fill="#333"/>
						<path d="m55.365 29.841c0.06-1.556-0.419-4.846-1.376-5.922s-8.444-4.556-7.51-3.785c1.76 1.449 7.271 6.119 7.869 7.016s0.537 2.631 1.017 2.691z" fill="#fff"/>
						<path d="m55.479 29.976l-0.129-0.017c-0.332-0.041-0.441-0.546-0.578-1.184-0.117-0.537-0.248-1.146-0.523-1.56-0.588-0.882-6.034-5.498-7.846-6.99-0.053-0.044-0.153-0.125-0.116-0.23 0.008-0.021 0.042-0.091 0.147-0.091 0.572 0 6.781 2.964 7.645 3.937 1.016 1.142 1.461 4.566 1.406 6.004l-0.006 0.131zm-8.654-9.711c2.036 1.688 7.047 5.956 7.623 6.818 0.301 0.451 0.438 1.085 0.558 1.642 0.069 0.327 0.147 0.683 0.245 0.869 0.01-1.7-0.488-4.624-1.352-5.595-0.774-0.87-5.619-3.179-7.074-3.734z" fill="#333"/>
						<path d="m33.287 36.011c7.639 0 17.219 0.598 21.227 5.188l0.026-0.17s-0.401-12.267-0.881-14.599c-0.514-0.633-4.447-4.195-6.73-5.969-0.134-0.11-0.271-0.217-0.416-0.318-0.082-0.061-0.161-0.119-0.236-0.174h-0.027c-3.252-2.069-8.766-2.15-12.964-2.15-4.199 0-9.713 0.081-12.964 2.15-0.001 0.002-0.002 0.002-0.003 0.004-0.313 0.199-0.607 0.416-0.875 0.654-0.021 0.019-0.042 0.04-0.063 0.059-2.309 1.836-5.949 5.137-6.441 5.744-0.48 2.332-0.881 14.769-0.881 14.769 4.009-4.59 13.588-5.188 21.228-5.188z" fill="#9F9F9F"/>
						<path d="m54.592 41.471l-0.17-0.192c-3.982-4.562-13.387-5.148-21.136-5.148s-17.153 0.586-21.137 5.148l-0.093 0.105-0.09-0.109c-0.066-0.081 0.23-6.526 0.233-6.591 0.213-4.52 0.423-7.304 0.623-8.276l0.006-0.029 0.018-0.023c0.486-0.599 4.147-3.924 6.46-5.761l0.017-0.017c0.014-0.014 0.027-0.026 0.042-0.039 0.259-0.23 0.554-0.452 0.878-0.659l0.025-0.016c3.397-2.164 9.42-2.164 13.018-2.164 3.587 0 9.585 0 12.999 2.151h0.029l0.031 0.022c0.076 0.054 0.155 0.113 0.238 0.175 0.13 0.091 0.264 0.193 0.42 0.321 2.252 1.751 6.225 5.342 6.747 5.985l0.018 0.023 0.007 0.029c0.477 2.313 0.867 14.116 0.883 14.619l-0.066 0.446zm-21.305-5.579c7.683 0 16.986 0.577 21.132 5.023-0.041-1.153-0.424-12.18-0.871-14.432-0.586-0.693-4.473-4.201-6.691-5.928-0.154-0.125-0.283-0.225-0.412-0.314-0.072-0.053-0.141-0.104-0.206-0.151h-0.022l-0.029-0.019c-3.35-2.133-9.328-2.133-12.899-2.133-3.572 0-9.551 0-12.9 2.133-0.321 0.205-0.61 0.421-0.863 0.646l-0.06 0.057c-2.284 1.814-5.864 5.061-6.412 5.709-0.426 2.149-0.795 12.425-0.862 14.394 4.161-4.412 13.434-4.985 21.095-4.985z" fill="#333"/>
					<path d="m33.299 35.842c6.986 0 15.562 0.821 20.208 4.229 0.487-0.831-3.004-16.447-6.089-19.139-3.11-2.712-9.422-3.113-14.119-3.113s-11.009 0.402-14.119 3.114c-3.084 2.691-6.577 18.308-6.088 19.139 4.645-3.409 13.221-4.23 20.207-4.23z" fill="#7F7F7F"/>
					<path d="m33.299 35.842c6.85 0 15.257 0.482 19.812 3.891 0.477-0.831-2.945-16.413-5.971-19.104-3.049-2.712-9.236-2.809-13.842-2.809s-10.793 0.097-13.842 2.809c-3.024 2.691-6.448 18.273-5.969 19.104 4.555-3.409 12.963-3.891 19.812-3.891z" fill="#A7A7A7"/>
					<g opacity=".9">
							<linearGradient id="h" x1="198.96" gradientUnits="userSpaceOnUse" y1="34.592" gradientTransform="matrix(-1 0 0 1 232.25 0)" x2="198.96" y2="21.814">
							<stop stop-color="#FBFBFB" stop-opacity="0" offset="0"/>
							<stop stop-color="#FBFBFB" offset=".3635"/>
							<stop stop-color="#FBFBFB" stop-opacity=".7804" offset=".6426"/>
							<stop stop-color="#FBFBFB" stop-opacity="0" offset="1"/>
						</linearGradient>
						<path d="m33.292 35.021c2.932 0 7.303 0.171 7.303 0.171s-0.941-4.309-0.05-4.536c2.237-0.57 10.281 2.238 10.281 2.238s-2.249-10.127-3.271-10.651-9.926-1.436-14.264-1.436c-4.336 0-13.24 0.911-14.262 1.436-1.021 0.524-3.27 10.651-3.27 10.651s8.113-2.749 10.35-2.171c0.877 0.228 0.018 4.469 0.018 4.469s4.235-0.171 7.165-0.171z" fill="url(#h)"/>
					</g>
							<path d="m33.286 35.842c7.895 0 17.863 0.638 21.611 5.662-0.16 5.741-1.436 14.831-1.596 15.629-0.129 0.308-0.638 0-0.638 0s-4.466-2.871-19.378-2.871c-14.913 0-19.378 2.871-19.378 2.871s-0.509 0.308-0.638 0c-0.159-0.798-1.436-9.888-1.595-15.629 3.749-5.024 13.717-5.662 21.612-5.662z"/>
							<path d="m33.286 36.328c7.736 0 17.506 0.354 21.179 5.276-0.157 5.627-1.407 14.196-1.563 14.979-0.127 0.3-0.625 0-0.625 0s-4.376-2.814-18.99-2.814-18.991 2.814-18.991 2.814-0.499 0.3-0.625 0c-0.156-0.782-1.407-9.352-1.563-14.979 3.672-4.922 13.44-5.276 21.178-5.276z"/>
							<linearGradient id="g" y2="46.263" gradientUnits="userSpaceOnUse" y1="46.263" x2="53.405" x1="13.166">
								<stop stop-color="#636668" stop-opacity="0" offset="0"/>
								<stop stop-color="#636668" offset=".1426"/>
								<stop stop-color="#636668" offset=".834"/>
								<stop stop-color="#636668" stop-opacity="0" offset="1"/>
							</linearGradient>
							<path opacity=".4" d="m33.286 36.837c7.35 0 16.63 0.327 20.119 4.879-0.148 5.203-1.336 13.127-1.484 13.85-0.12 0.277-0.594 0-0.594 0s-4.158-2.602-18.041-2.602c-13.883 0-18.041 2.602-18.041 2.602s-0.474 0.277-0.594 0c-0.147-0.723-1.336-8.646-1.484-13.85 3.488-4.552 12.769-4.879 20.119-4.879z" fill="url(#g)"/>
								<defs>
									<path id="f" d="m33.286 36.328c7.736 0 17.506 0.354 21.179 5.276-0.157 5.627-1.407 14.196-1.563 14.979-0.127 0.3-0.625 0-0.625 0s-4.376-2.814-18.99-2.814-18.991 2.814-18.991 2.814-0.499 0.3-0.625 0c-0.156-0.782-1.407-9.352-1.563-14.979 3.672-4.922 13.44-5.276 21.178-5.276z"/>
								</defs>
								<clipPath id="e">
									<use overflow="visible" xlink:href="#f"/>
								</clipPath>
								<g opacity=".7" clip-path="url(#e)">
									<linearGradient id="d" y2="53.424" gradientUnits="userSpaceOnUse" y1="37.015" x2="27.003" x1="27.003">
										<stop stop-color="#fff" stop-opacity="0" offset="0"/>
										<stop stop-color="#fff" offset=".4796"/>
										<stop stop-color="#fff" offset=".7347"/>
										<stop stop-color="#fff" stop-opacity="0" offset="1"/>
									</linearGradient>
									<rect y="34.598" x="25.418" fill="url(#d)" width="3.17" height="21.481"/>
									<linearGradient id="c" y2="53.424" gradientUnits="userSpaceOnUse" y1="37.015" x2="29.984" x1="29.984">
										<stop stop-color="#fff" stop-opacity="0" offset="0"/>
										<stop stop-color="#fff" offset=".4796"/>
										<stop stop-color="#fff" offset=".7347"/>
										<stop stop-color="#fff" stop-opacity="0" offset="1"/>
									</linearGradient>
									<rect y="34.598" x="29.472" fill="url(#c)" width="1.025" height="21.481"/>
								</g>
							<path d="m23.466 38.396s0.233-0.066 0.653-0.151c0.21-0.044 0.465-0.097 0.758-0.146 0.292-0.051 0.623-0.112 0.985-0.167 0.363-0.046 0.755-0.096 1.171-0.148 0.416-0.057 0.855-0.097 1.311-0.129 0.456-0.035 0.926-0.07 1.405-0.106 0.479-0.017 0.966-0.034 1.453-0.051 0.487-0.007 0.974-0.03 1.453-0.026 0.48 0.005 0.951 0.021 1.408 0.03 0.456 0.013 0.896 0.026 1.315 0.038 0.417 0.018 0.812 0.058 1.176 0.086 0.728 0.058 1.333 0.122 1.757 0.16 0.423 0.042 0.664 0.071 0.664 0.071l-0.016 0.239s-0.244 0.006-0.668 0.006c-0.424-0.002-1.03 0.004-1.756-0.008-0.363-0.002-0.756-0.016-1.172-0.016-0.415 0.004-0.854 0.01-1.307 0.015-0.453 0.001-0.921 0.009-1.396 0.005-0.476 0.001-0.958 0.027-1.441 0.039-0.483 0.013-0.966 0.024-1.441 0.036-0.475 0.024-0.941 0.048-1.394 0.071-0.452 0.022-0.89 0.037-1.303 0.074-0.414 0.027-0.805 0.055-1.167 0.079-0.361 0.031-0.691 0.061-0.984 0.086-0.295 0.021-0.549 0.05-0.757 0.074-0.21 0.026-0.375 0.035-0.488 0.053-0.113 0.014-0.174 0.021-0.174 0.021l-0.045-0.235z"/>
							<path d="m18.885 38.146c0.032 0.516 0.398 0.359 4.604 0.029 1.724-0.135 4.091-0.157 7.345-0.398-11.194-0.128-11.968 0.072-11.949 0.369z"/>
							<path d="m31.91 38.05v-0.57s-2.032 0.057-2.451 0.089v0.619l2.451-0.138z"/>
							<path d="m39.036 37.713s0.242-0.005 0.672 0.018c0.213 0.009 0.474 0.022 0.77 0.048 0.296 0.024 0.631 0.048 0.994 0.087 0.363 0.047 0.756 0.098 1.172 0.15 0.416 0.051 0.852 0.122 1.301 0.205 0.45 0.082 0.914 0.165 1.387 0.25 0.469 0.105 0.943 0.212 1.42 0.318 0.473 0.113 0.949 0.215 1.413 0.339 0.462 0.125 0.915 0.259 1.354 0.383 0.438 0.129 0.861 0.252 1.264 0.369 0.399 0.121 0.771 0.26 1.115 0.379 0.691 0.237 1.26 0.453 1.66 0.596 0.4 0.146 0.626 0.237 0.626 0.237l-0.075 0.226s-0.238-0.055-0.648-0.161c-0.41-0.109-0.998-0.255-1.697-0.449-0.352-0.093-0.728-0.206-1.13-0.311-0.403-0.1-0.829-0.205-1.269-0.314-0.439-0.112-0.895-0.223-1.354-0.347-0.461-0.119-0.935-0.214-1.404-0.324-0.471-0.109-0.941-0.22-1.404-0.328-0.465-0.095-0.922-0.189-1.366-0.281-0.443-0.092-0.871-0.186-1.28-0.256-0.407-0.077-0.793-0.149-1.148-0.217-0.357-0.061-0.686-0.116-0.976-0.165-0.29-0.054-0.543-0.089-0.752-0.118-0.208-0.026-0.372-0.061-0.485-0.072-0.113-0.015-0.174-0.022-0.174-0.022l0.014-0.24z"/>
							<path d="m34.587 36.769c-0.067 0.512 0.321 0.431 4.511 0.919 1.719 0.2 4.046 0.635 7.285 1.028-10.959-2.289-11.756-2.242-11.796-1.947z"/>
							<path d="m47.295 39.502l0.144-0.552s-1.981-0.457-2.395-0.53l-0.155 0.6 2.406 0.482z"/>
								<path d="m14.565 37.019c0.239-0.945 1.136-3.29 1.615-3.709 0.479-0.418 9.182-2.845 9.688-2.272 0.508 0.571 0.096 3.638-0.203 3.997-0.161 0.193-2.876 0.42-5.611 1.061-2.329 0.545-4.523 1.487-4.771 1.598-0.538 0.237-0.852-0.142-0.718-0.675z" fill="#bbb"/>
								<path d="m14.976 37.884c-0.175 0-0.328-0.071-0.429-0.201-0.13-0.168-0.167-0.422-0.097-0.694 0.226-0.89 1.135-3.316 1.652-3.769 0.458-0.4 7.54-2.39 9.359-2.39 0.267 0 0.42 0.04 0.498 0.128 0.556 0.627 0.142 3.74-0.201 4.152-0.095 0.114-0.41 0.174-1.716 0.373-1.059 0.164-2.508 0.387-3.96 0.728-2.446 0.572-4.728 1.579-4.75 1.59-0.125 0.056-0.245 0.083-0.356 0.083zm10.484-6.813c-1.862 0-8.85 2.022-9.202 2.329-0.442 0.387-1.341 2.714-1.578 3.648-0.051 0.2-0.031 0.379 0.054 0.488 0.099 0.127 0.281 0.144 0.499 0.047 0.023-0.012 2.325-1.027 4.792-1.605 1.46-0.342 2.916-0.566 3.979-0.729 0.76-0.117 1.478-0.228 1.577-0.298 0.264-0.319 0.663-3.311 0.197-3.834 0-0.002-0.049-0.046-0.318-0.046z" fill="#666"/>
								<linearGradient id="b" y2="34.564" gradientUnits="userSpaceOnUse" y1="32.769" x2="20.411" x1="20.291">
									<stop stop-color="#323232" offset="0"/>
									<stop stop-color="#141414" offset="1"/>
								</linearGradient>
								<path d="m15.447 36.362c0.211-0.747 0.617-2.337 1.039-2.669s8.274-2.562 8.722-2.107c0.447 0.453 0.084 2.609-0.18 2.894-0.142 0.154-2.538 0.435-4.949 0.942-2.054 0.432-3.991 1.248-4.209 1.334-0.475 0.189-0.542 0.029-0.423-0.394z" fill="url(#b)"/>
								<path d="m15.561 36.954c-0.124 0-0.192-0.055-0.227-0.101-0.076-0.101-0.077-0.258-0.002-0.524l0.064-0.229c0.305-1.102 0.635-2.201 1.016-2.502 0.45-0.354 6.998-2.193 8.498-2.193 0.2 0 0.317 0.029 0.383 0.096 0.496 0.502 0.145 2.712-0.177 3.059-0.093 0.101-0.43 0.165-1.83 0.397-0.908 0.151-2.039 0.34-3.183 0.581-1.239 0.261-2.707 0.724-4.132 1.305l-0.057 0.023c-0.149 0.06-0.262 0.088-0.353 0.088zm9.348-5.31c-1.6 0-8.053 1.91-8.35 2.144-0.352 0.276-0.73 1.644-0.933 2.377l-0.064 0.23c-0.075 0.269-0.039 0.313-0.037 0.315 0.005 0.004 0.071 0.026 0.301-0.066l0.055-0.022c1.438-0.586 2.92-1.054 4.173-1.317 1.149-0.242 2.283-0.43 3.193-0.583 0.823-0.136 1.6-0.265 1.703-0.332 0.221-0.239 0.568-2.318 0.173-2.72-0.001-0.001-0.044-0.026-0.214-0.026z"/>
						<g fill="#111">
									<rect y="33.639" width=".239" x="16.144" transform="matrix(.9595 .2817 -.2817 .9595 10.607 -3.1515)" height="3.344"/>
									<rect y="33.421" width=".239" x="16.743" transform="matrix(.9608 .2774 -.2774 .9608 10.397 -3.3006)" height="3.344"/>
									<rect y="33.217" width=".239" x="17.319" transform="matrix(.9608 .2774 -.2774 .9608 10.363 -3.4684)" height="3.344"/>
									<rect y="33.023" width=".239" x="17.929" transform="matrix(.9629 .2699 -.2699 .9629 10.021 -3.585)" height="3.258"/>
									<rect y="32.861" width=".239" x="18.539" transform="matrix(.9664 .2569 -.2569 .9664 9.4761 -3.6373)" height="3.176"/>
									<rect y="32.658" width=".239" x="19.15" transform="matrix(.9694 .2454 -.2454 .9694 9.0022 -3.6807)" height="3.242"/>
									<rect y="32.481" width=".239" x="19.76" transform="matrix(.9653 .2612 -.2612 .9653 9.609 -4.0075)" height="3.325"/>
									<rect y="32.398" width=".239" x="20.354" transform="matrix(.9754 .2204 -.2204 .9754 7.9944 -3.6763)" height="3.185"/>
									<rect y="32.31" width=".24" x="20.896" transform="matrix(.9838 .1792 -.1792 .9838 6.4148 -3.2181)" height="3.158"/>
									<rect y="32.256" width=".24" x="21.455" transform="matrix(.9915 .1303 -.1303 .9915 4.5841 -2.5232)" height="3.03"/>
									<rect y="31.645" width=".239" x="24.849" transform="matrix(.9996 .0286 -.0286 .9996 .9561 -.6996)" height="2.954"/>
									<rect y="31.642" width=".239" x="24.358" transform="matrix(.9981 .0612 -.0612 .9981 2.0772 -1.4366)" height="3.061"/>
									<rect y="31.642" width=".24" x="23.85" transform="matrix(.9981 .0611 -.0611 .9981 2.0751 -1.4027)" height="3.162"/>
									<rect y="31.845" width=".239" x="23.29" transform="matrix(.9976 .0694 -.0694 .9976 2.3702 -1.5434)" height="3.028"/>
									<rect y="31.978" width=".239" x="22.68" transform="matrix(.9956 .0938 -.0938 .9956 3.2456 -1.9918)" height="3.068"/>
									<rect y="32.079" width=".239" x="22.07" transform="matrix(.996 .0898 -.0898 .996 3.1081 -1.8568)" height="3.068"/>
							<path d="m15.594 37.073c-0.124 0-0.192-0.054-0.227-0.1-0.077-0.102-0.077-0.258-0.002-0.524l0.065-0.234c0.305-1.099 0.634-2.196 1.015-2.497 0.451-0.354 6.999-2.193 8.498-2.193 0.199 0 0.318 0.03 0.383 0.096 0.496 0.503 0.146 2.713-0.177 3.06-0.093 0.1-0.43 0.165-1.83 0.397-0.908 0.15-2.039 0.339-3.183 0.58-1.237 0.261-2.703 0.723-4.129 1.305l-0.06 0.024c-0.148 0.058-0.263 0.086-0.353 0.086zm9.348-5.309c-1.6 0-8.052 1.909-8.349 2.143-0.351 0.276-0.729 1.641-0.933 2.372l-0.065 0.236c-0.076 0.269-0.039 0.312-0.038 0.314 0.005 0.004 0.071 0.026 0.3-0.064l0.059-0.023c1.438-0.588 2.92-1.055 4.169-1.318 1.149-0.242 2.283-0.43 3.193-0.582 0.823-0.137 1.6-0.266 1.703-0.332 0.221-0.24 0.568-2.319 0.173-2.72 0-0.001-0.042-0.026-0.212-0.026z"/>
						</g>
								<path d="m52.155 37.019c-0.239-0.945-1.137-3.29-1.615-3.709-0.479-0.418-9.182-2.845-9.689-2.272-0.508 0.571-0.096 3.503 0.204 3.862 0.161 0.193 2.877 0.419 5.611 1.06 2.329 0.545 4.524 1.487 4.771 1.598 0.538 0.238 0.853-0.006 0.718-0.539z" fill="#bbb"/>
								<path d="m51.809 37.767c-0.127 0-0.268-0.033-0.421-0.102-0.022-0.01-2.304-1.018-4.749-1.59-1.452-0.34-2.902-0.564-3.961-0.727-1.307-0.2-1.621-0.26-1.717-0.373-0.341-0.41-0.758-3.389-0.2-4.018 0.078-0.088 0.231-0.128 0.498-0.128 1.819 0 8.901 1.989 9.359 2.39 0.517 0.452 1.427 2.879 1.651 3.769 0.082 0.321 0.007 0.506-0.07 0.605-0.087 0.115-0.223 0.174-0.39 0.174zm-10.55-6.696c-0.269 0-0.317 0.044-0.319 0.046-0.467 0.525-0.066 3.38 0.206 3.705 0.091 0.063 0.809 0.174 1.569 0.291 1.062 0.164 2.518 0.388 3.978 0.73 2.468 0.577 4.77 1.594 4.792 1.604 0.242 0.107 0.442 0.107 0.525 0 0.063-0.081 0.073-0.223 0.028-0.399-0.237-0.935-1.136-3.262-1.577-3.648-0.351-0.307-7.339-2.329-9.202-2.329z" fill="#666"/>
								<path d="m51.273 36.362c-0.21-0.747-0.616-2.337-1.039-2.669-0.422-0.332-8.274-2.562-8.722-2.107-0.447 0.453-0.084 2.609 0.18 2.894 0.143 0.154 2.537 0.435 4.949 0.942 2.055 0.432 3.99 1.248 4.209 1.334 0.475 0.189 0.542 0.029 0.423-0.394z" fill="#1E1E1E"/>
								<path d="m51.159 36.954c-0.091 0-0.203-0.028-0.354-0.087l-0.057-0.024c-1.426-0.581-2.893-1.044-4.132-1.305-1.144-0.241-2.274-0.43-3.183-0.581-1.4-0.232-1.736-0.297-1.83-0.397-0.321-0.347-0.672-2.557-0.177-3.059 0.065-0.066 0.185-0.096 0.384-0.096 1.499 0 8.047 1.839 8.497 2.193 0.382 0.301 0.711 1.4 1.017 2.502l0.063 0.229c0.074 0.267 0.073 0.424-0.003 0.524-0.033 0.047-0.1 0.101-0.225 0.101zm-9.348-5.31c-0.175 0-0.215 0.026-0.217 0.027-0.393 0.399-0.045 2.479 0.186 2.727 0.094 0.059 0.871 0.188 1.693 0.323 0.91 0.153 2.044 0.341 3.193 0.583 1.252 0.264 2.734 0.731 4.172 1.317l0.057 0.022c0.229 0.093 0.295 0.07 0.3 0.066 0.001-0.002 0.038-0.047-0.037-0.315l-0.064-0.23c-0.203-0.733-0.581-2.101-0.933-2.377-0.297-0.233-6.75-2.143-8.35-2.143z"/>
								<rect y="35.072" x="48.818" width="3.343" transform="matrix(.2819 .9594 -.9594 .2819 70.019 -23.172)" height=".239"/>
								<rect y="34.854" x="48.218" width="3.343" transform="matrix(.2816 .9595 -.9595 .2816 69.4 -22.746)" height=".238"/>
								<rect y="34.65" x="47.642" width="3.343" transform="matrix(.2816 .9595 -.9595 .2816 68.79 -22.34)" height=".239"/>
								<rect y="34.412" x="47.074" width="3.259" transform="matrix(.2685 .9633 -.9633 .2685 68.893 -21.654)" height=".239"/>
								<rect y="34.21" x="46.505" width="3.177" transform="matrix(.2539 .9672 -.9672 .2539 69.088 -20.904)" height=".238"/>
								<rect y="34.04" x="45.862" width="3.241" transform="matrix(.2486 .9686 -.9686 .2486 68.768 -20.324)" height=".239"/>
								<rect y="33.904" x="45.211" width="3.325" transform="matrix(.2631 .9648 -.9648 .2631 67.364 -20.151)" height=".239"/>
								<rect y="33.752" x="44.688" width="3.185" transform="matrix(.2214 .9752 -.9752 .2214 69.064 -18.759)" height=".238"/>
								<rect y="33.649" x="44.159" width="3.158" transform="matrix(.1806 .9836 -.9836 .1806 70.693 -17.314)" height=".24"/>
								<rect y="33.531" x="43.662" width="3.031" transform="matrix(.1318 .9913 -.9913 .1318 72.582 -15.567)" height=".239"/>
								<rect y="32.883" x="40.307" width="2.953" transform="matrix(.0298 .9996 -.9996 .0298 73.528 -9.7446)" height=".24"/>
								<rect y="32.934" x="40.746" width="3.059" transform="matrix(.0619 .9981 -.9981 .0619 72.646 -11.188)" height=".239"/>
								<rect y="32.984" x="41.203" width="3.16" transform="matrix(.0596 .9982 -.9982 .0596 73.276 -11.578)" height=".239"/>
								<rect y="33.12" x="41.828" width="3.028" transform="matrix(.0735 .9973 -.9973 .0735 73.304 -12.43)" height=".239"/>
								<rect y="33.273" x="42.418" width="3.069" transform="matrix(.0948 .9955 -.9955 .0948 73.026 -13.529)" height=".239"/>
								<rect y="33.374" x="43.029" width="3.068" transform="matrix(.0945 .9955 -.9955 .0945 73.695 -14.036)" height=".239"/>
						<path d="m47.141 20.628c-3.049-2.712-9.236-2.809-13.842-2.809s-10.793 0.097-13.842 2.809c-0.189 0.168-0.381 0.389-0.572 0.652 0.624 0.419 6.838-1.207 14.415-1.127 7.577-0.08 13.791 1.546 14.415 1.127-0.192-0.263-0.382-0.484-0.574-0.652z" fill="#DFDFDF"/>
							<path d="m46.314 20.023c0.001-0.002 0.001-0.005 0.003-0.009-3.243-2.112-8.803-2.194-13.03-2.194-4.218 0-9.762 0.081-13.008 2.18 0.002 0.008 0.004 0.017 0.006 0.023-0.914 1.025 5.266-0.848 13.014-0.768 7.748-0.08 13.928 1.793 13.015 0.768z" fill="#191919"/>
							<path d="m45.969 20.45c-0.486 0-1.33-0.117-2.496-0.277-2.396-0.332-6.064-0.839-10.172-0.799-0.164-0.001-0.326-0.002-0.486-0.002-3.91 0-7.388 0.481-9.69 0.801-1.167 0.16-2.01 0.277-2.496 0.277-0.226 0-0.466-0.021-0.536-0.176-0.048-0.108 0.011-0.214 0.061-0.279l-0.013-0.047 0.073-0.05c3.402-2.199 9.456-2.199 13.073-2.199 3.626 0 9.695 0 13.095 2.215l0.076 0.049-0.01 0.034c0.049 0.065 0.105 0.171 0.058 0.277-0.056 0.126-0.213 0.176-0.537 0.176zm-12.185-1.317c3.927 0 7.414 0.482 9.723 0.803 1.156 0.16 1.992 0.275 2.463 0.275 0.201 0 0.28-0.021 0.309-0.034-0.007-0.015-0.021-0.038-0.053-0.074l-0.014-0.014c-3.348-2.15-9.34-2.15-12.925-2.15-3.565 0-9.514 0-12.87 2.114l-0.042 0.05c-0.032 0.036-0.046 0.06-0.053 0.074 0.029 0.013 0.107 0.034 0.308 0.034 0.47 0 1.306-0.115 2.463-0.275 2.403-0.333 6.087-0.845 10.209-0.801 0.158-0.002 0.322-0.002 0.482-0.002z"/>
						<g fill="#333">
							<path d="m21.574 19.909l-0.065-0.229c0.049-0.015 4.929-1.382 11.791-1.382s11.658 1.367 11.706 1.382l-0.067 0.229c-0.047-0.014-4.812-1.373-11.639-1.373-6.829 0-11.677 1.36-11.726 1.373z"/>
							<rect y="19.327" x="21.422" width=".239" height=".934"/>
								<rect y="19.329" width=".239" x="44.83" transform="matrix(.9993 .0367 -.0367 .9993 .757 -1.6367)" height=".933"/>
						</g>
						<path d="m45.969 20.45c-0.486 0-1.33-0.117-2.496-0.277-2.396-0.332-6.064-0.839-10.172-0.799-0.164-0.001-0.326-0.002-0.486-0.002-3.91 0-7.388 0.481-9.69 0.801-1.167 0.16-2.01 0.277-2.496 0.277-0.226 0-0.466-0.021-0.536-0.176-0.048-0.108 0.011-0.214 0.061-0.279l-0.013-0.047 0.073-0.05c3.402-2.199 9.456-2.199 13.073-2.199 3.626 0 9.695 0 13.095 2.215l0.076 0.049-0.01 0.034c0.049 0.065 0.105 0.171 0.058 0.277-0.056 0.126-0.213 0.176-0.537 0.176zm-12.185-1.317c3.927 0 7.414 0.482 9.723 0.803 1.156 0.16 1.992 0.275 2.463 0.275 0.201 0 0.28-0.021 0.309-0.034-0.007-0.015-0.021-0.038-0.053-0.074l-0.014-0.014c-3.348-2.15-9.34-2.15-12.925-2.15-3.565 0-9.514 0-12.87 2.114l-0.042 0.05c-0.032 0.036-0.046 0.06-0.053 0.074 0.029 0.013 0.107 0.034 0.308 0.034 0.47 0 1.306-0.115 2.463-0.275 2.403-0.333 6.087-0.845 10.209-0.801 0.158-0.002 0.322-0.002 0.482-0.002z"/>
							<ellipse cy="18.417" cx="33.299" rx="1.256" ry=".358" fill="#D0D0D0"/>
							<path d="m33.299 18.896c-0.511 0-1.375-0.101-1.375-0.479 0-0.377 0.865-0.479 1.375-0.479 0.512 0 1.376 0.102 1.376 0.479 0 0.378-0.864 0.479-1.376 0.479zm0-0.717c-0.74 0-1.113 0.174-1.137 0.242 0.023 0.062 0.396 0.236 1.137 0.236s1.113-0.174 1.137-0.243c-0.023-0.061-0.396-0.235-1.137-0.235z"/>
						<path d="m12.113 72.245c0.24-0.547 0.264-1.316 0.264-1.316s0.3-10.645 0.3-12.439-1.531-15.59-2.208-15.631c-0.32 0.32-0.31 5.124-0.31 5.124s0.359 21.274 0.359 22.799c0.001 0.546 1.297 2.147 1.595 1.463z"/>
						<path d="m11.889 71.606c0.164-0.512 0.181-1.261 0.181-1.261s0.206-9.932 0.206-11.605-1.254-14.951-1.718-14.989c-0.219 0.298-0.009 5.188-0.009 5.188s0.247 20.118 0.247 21.54c-0.001 0.509 0.889 1.764 1.093 1.127z" fill="#171D23"/>
						<polygon points="12.275 58.928 10.923 57.834 10.923 56.923 12.239 57.993"/>
						<path d="m54.473 72.245c-0.24-0.547-0.264-1.316-0.264-1.316s-0.301-10.645-0.301-12.439 1.531-15.59 2.209-15.631c0.318 0.32 0.309 5.124 0.309 5.124s-0.359 21.274-0.359 22.799c0 0.546-1.297 2.147-1.594 1.463z"/>
						<path d="m54.697 71.606c-0.163-0.512-0.181-1.261-0.181-1.261s-0.206-9.932-0.206-11.605 1.253-14.951 1.718-14.989c0.219 0.298 0.01 5.188 0.01 5.188s-0.246 20.118-0.246 21.54c0 0.509-0.891 1.764-1.095 1.127z" fill="#171D23"/>
						<polygon points="54.311 58.928 55.663 57.834 55.663 56.923 54.346 57.993"/>
						<path d="m4.569 50.624s-0.435-0.54-0.035-1.07c0.659-0.873 4.08-1.83 4.581-1.316l0.005 1.121-4.551 1.265z"/>
						<path d="m10.588 47.515c0.832-0.093 1.366 2.262 1.087 3.848-0.279 1.195-0.788-1.516-1.834-1.516-1.944 0-3.708 0.567-4.875 1.256-0.359-0.06-0.33-0.479-0.33-0.479s0.411-0.748 4.479-1.465v-0.922c1.024-0.029 1.339-0.705 1.473-0.722z" fill="#0C0C0C"/>
						<path d="m4.966 51.103s0.073 0.357 2.212-0.209c2.14-0.566 1.937-1.021 1.937-1.021s-1.816-0.026-4.149 1.23z" fill="#BCEAFF"/>
					<path d="m13.443 26.808c0.305-0.479 3.21-3.223 4.434-4.346-2.255 3.788-4.249 10.486-5.2 17.271l0.766-12.925z" fill="#CBCBCB"/>
					<path d="m53.159 26.808c-0.305-0.479-3.211-3.223-4.434-4.346 2.254 3.788 4.248 10.486 5.199 17.271l-0.765-12.925z" fill="#CBCBCB"/>
						<path d="m61.922 50.624s0.436-0.54 0.035-1.07c-0.658-0.873-4.08-1.83-4.58-1.316l-0.006 1.121 4.551 1.265z"/>
						<path d="m55.905 47.515c-0.832-0.093-1.366 2.262-1.088 3.848 0.28 1.195 0.788-1.516 1.835-1.516 1.944 0 3.708 0.567 4.874 1.256 0.359-0.06 0.33-0.479 0.33-0.479s-0.412-0.748-4.479-1.465v-0.922c-1.024-0.029-1.338-0.705-1.472-0.722z" fill="#0C0C0C"/>
						<path d="m61.526 51.103s-0.072 0.357-2.213-0.209c-2.14-0.566-1.936-1.021-1.936-1.021s1.817-0.026 4.149 1.23z" fill="#BCEAFF"/>
					<path d="m33.268 58.01c3.008 0 6.155 0.224 9.062 0.591v-3.225c-1.375-0.179-3.888-0.358-9.066-0.358-5.18 0-7.692 0.18-9.068 0.358v3.226c2.91-0.368 6.06-0.592 9.072-0.592z" fill="#7A7A7A"/>
					<path d="m24.196 55.376s6.458 0.379 9.089 0.379c2.473 0 9.045-0.379 9.045-0.379-1.375-0.179-3.888-0.358-9.066-0.358-5.18 0-7.692 0.18-9.068 0.358z" fill="#A9A9A9"/>
					<path d="m24.196 55.376l0.556 2.391s4.137-0.497 8.457-0.497 8.568 0.366 8.568 0.366l0.553-2.26 0.005 3.226s-5.306-0.592-9.071-0.592c-3.766 0-9.068 0.616-9.068 0.616v-3.25z" fill="#232323"/>
					<linearGradient id="a" y2="56.668" gradientUnits="userSpaceOnUse" y1="76.211" x2="33.263" x1="33.263">
						<stop stop-color="#D7D7D7" offset="0"/>
						<stop stop-color="#B6B6B6" offset=".3305"/>
						<stop stop-color="#636162" offset="1"/>
					</linearGradient>
					<path d="m33.264 77.688l19.822 0.001s0.213-16.369-0.584-16.711c-3.352-1.581-11.727-2.968-19.238-2.968-7.512 0-15.887 1.387-19.239 2.968-0.797 0.342-0.583 16.711-0.583 16.711l19.822-0.001" fill="url(#a)"/>
					<path d="m53.205 77.807h-39.882l-0.002-0.117c-0.05-3.859-0.151-16.476 0.657-16.822 3.538-1.668 12.011-2.978 19.286-2.978s15.748 1.31 19.289 2.979c0.805 0.345 0.703 12.961 0.652 16.82v0.118zm-19.941-19.677c-7.245 0-15.673 1.298-19.188 2.955-0.523 0.432-0.595 10.287-0.518 16.482h39.411c0.078-6.195 0.006-16.051-0.521-16.484-3.511-1.655-11.939-2.953-19.184-2.953z" fill="#232323"/>
				<linearGradient id="r" y2="61.116" gradientUnits="userSpaceOnUse" y1="76.848" x2="33.263" x1="33.263">
					<stop stop-color="#FBFBFB" stop-opacity="0" offset="0"/>
					<stop stop-color="#FBFBFB" offset=".3635"/>
					<stop stop-color="#FBFBFB" stop-opacity=".7804" offset=".6426"/>
					<stop stop-color="#FBFBFB" stop-opacity="0" offset="1"/>
				</linearGradient>
				<path opacity=".8" d="m33.264 77.585h17.84s0.191-14.732-0.525-15.039c-3.018-1.423-10.555-2.672-17.314-2.672-6.761 0-14.299 1.249-17.315 2.672-0.718 0.307-0.526 15.039-0.526 15.039h17.84" fill="url(#r)"/>
					<path fill-rule="evenodd" clip-rule="evenodd" d="m42.375 77.688s-0.896-1.198-1.493-1.198h-7.596s-6.998 0-7.596 0c-0.598 0-1.493 1.198-1.493 1.198h18.178z" fill="#0F0F0F"/>
					<path d="m42.614 77.807h-18.656l0.143-0.19c0.095-0.129 0.949-1.247 1.589-1.247h15.192c0.64 0 1.494 1.118 1.589 1.247l0.143 0.19zm-18.171-0.239h17.684c-0.314-0.377-0.877-0.959-1.246-0.959h-15.192c-0.369 0-0.932 0.582-1.246 0.959z" fill="#1E1E1E"/>
				<path d="m25.51 55.018" fill="#232323"/>
					<linearGradient id="q" y2="55.555" gradientUnits="userSpaceOnUse" y1="58.587" x2="18.624" x1="18.624">
						<stop stop-color="#A9A9A9" offset="0"/>
						<stop stop-color="#A9A9A9" stop-opacity="0" offset="1"/>
					</linearGradient>
					<path d="m13.517 60.578v-2.88c1.467-0.775 6.258-2.169 10.147-2.424l0.067 2.837c0.001 0.001-6.594 0.817-10.214 2.467z" fill="url(#q)"/>
					<linearGradient id="p" y2="55.555" gradientUnits="userSpaceOnUse" y1="58.587" x2="47.887" x1="47.887">
						<stop stop-color="#A9A9A9" offset="0"/>
						<stop stop-color="#A9A9A9" stop-opacity="0" offset="1"/>
					</linearGradient>
					<path d="m52.995 60.578v-2.88c-1.468-0.775-6.258-2.169-10.148-2.424l-0.066 2.837c-0.001 0.001 6.593 0.817 10.214 2.467z" fill="url(#p)"/>
				<path d="m12.275 27.606s-0.874 13.038-0.857 14.991c0.017 1.954-0.657 0-0.657 0l0.605-12.479c0.428-0.28 0.909-2.512 0.909-2.512z" fill="#6D6D6D"/>
				<path d="m54.229 27.606s0.875 13.038 0.858 14.991c-0.018 1.954 0.657 0 0.657 0l-0.605-12.479c-0.428-0.28-0.91-2.512-0.91-2.512z" fill="#6D6D6D"/>
			<path d="m33.278 17.341c14.659 0 19.25 3.947 21.219 5.463 1.9 1.465 2.703 17.228 2.775 25.426 0.035 0.004 0.068 0.007 0.105 0.008 0.098-0.1 0.305-0.145 0.582-0.145 1.146 0 3.468 0.758 3.998 1.461 0.4 0.53-0.035 1.07-0.035 1.07l-0.084-0.023c0.012 0.016 0.018 0.023 0.018 0.023s-0.225 0.467-1.229 0.467c-0.341 0-0.771-0.054-1.313-0.197-2.135-0.565-1.938-1.02-1.936-1.021-0.035-0.002-0.071-0.003-0.106-0.005-0.063 1.304-0.376 1.804-0.376 1.804l0.18 26.018h-47.595l0.18-26.018s-0.314-0.502-0.376-1.808c-0.057 0.004-0.113 0.006-0.169 0.009 0.001 0.002 0.199 0.456-1.937 1.021-0.542 0.144-0.972 0.197-1.313 0.197-1.004 0-1.229-0.467-1.229-0.467s0.005-0.008 0.018-0.023l-0.085 0.023s-0.435-0.54-0.035-1.07c0.531-0.703 2.852-1.461 3.998-1.461 0.277 0 0.485 0.045 0.583 0.145 0.059-0.002 0.114-0.006 0.168-0.011 0.073-8.2 0.875-23.959 2.775-25.423 1.968-1.516 6.56-5.463 21.219-5.463m0-1.435c-14.677 0-19.738 3.932-21.9 5.609l-0.194 0.152c-0.784 0.604-1.294 1.852-1.76 4.307-0.329 1.735-0.622 4.054-0.868 6.891-0.412 4.743-0.62 10.004-0.688 13.844-1.432 0.189-3.67 0.908-4.479 1.981-0.738 0.978-0.485 2.153 0.062 2.834l0.592 0.736 0.27-0.075c0.401 0.206 0.917 0.341 1.553 0.341 0.501 0 1.067-0.082 1.681-0.245 0.243-0.063 0.468-0.129 0.676-0.195l-0.177 25.592-0.01 1.445h50.482l-0.01-1.445-0.177-25.573c0.191 0.06 0.395 0.119 0.613 0.176 0.613 0.163 1.18 0.245 1.681 0.245 0.636 0 1.151-0.135 1.554-0.341l0.27 0.075 0.592-0.736c0.547-0.681 0.799-1.856 0.062-2.834-0.799-1.058-2.982-1.771-4.416-1.974-0.067-3.839-0.274-9.101-0.687-13.848-0.247-2.839-0.539-5.157-0.868-6.895-0.466-2.455-0.976-3.702-1.76-4.307l-0.196-0.152c-2.162-1.677-7.222-5.608-21.898-5.608z" fill="#212121"/>
		<path d="m12.951 76.49" fill-rule="evenodd" stroke="#3F3F3F" clip-rule="evenodd" stroke-miterlimit="10" stroke-width="3" fill="none"/>
					<linearGradient id="o" y2="128.32" gradientUnits="userSpaceOnUse" y1="79.885" x2="33.297" x1="33.297">
						<stop stop-color="#DF0000" offset="0"/>
						<stop stop-color="#A00404" offset="1"/>
					</linearGradient>
					<path fill-rule="evenodd" clip-rule="evenodd" d="m58.366 132.96c0 0.525-0.43 0.956-0.957 0.956h-48.224c-0.526 0-0.957-0.431-0.957-0.956v-54.078c0-0.525 0.431-0.957 0.957-0.957h48.224c0.527 0 0.957 0.432 0.957 0.957v54.078z" fill="url(#o)"/>
					<path d="m57.409 134.27h-48.224c-0.726 0-1.316-0.591-1.316-1.315v-54.078c0-0.725 0.59-1.316 1.316-1.316h48.224c0.727 0 1.316 0.592 1.316 1.316v54.076c0 0.72-0.59 1.31-1.316 1.31zm-48.224-55.986c-0.33 0-0.599 0.268-0.599 0.598v54.076c0 0.33 0.269 0.597 0.599 0.597h48.224c0.33 0 0.6-0.267 0.6-0.597v-54.078c0-0.33-0.27-0.598-0.6-0.598h-48.224z" fill="#6D0000"/>
				<path fill-rule="evenodd" clip-rule="evenodd" d="m52.461 103.51c0 0.264-0.215 0.479-0.479 0.479h-37.395c-0.263 0-0.478-0.215-0.478-0.479v-18.55c0-0.264 0.215-0.479 0.478-0.479h37.396c0.264 0 0.479 0.215 0.479 0.479v18.55z" fill="#700000"/>
					<linearGradient id="n" y2="100.03" gradientUnits="userSpaceOnUse" y1="85.38" x2="33.286" x1="33.286">
						<stop stop-color="#DF0000" offset="0"/>
						<stop stop-color="#A00404" offset="1"/>
					</linearGradient>
					<path fill-rule="evenodd" clip-rule="evenodd" d="m51.445 102.22c0 0.264-0.216 0.479-0.479 0.479h-35.362c-0.263 0-0.479-0.216-0.479-0.479v-17.39c0-0.263 0.215-0.479 0.479-0.479h35.362c0.263 0 0.479 0.216 0.479 0.479v17.39z" fill="url(#n)"/>
					<path d="m50.966 103.05h-35.362c-0.461 0-0.837-0.376-0.837-0.838v-17.38c0-0.462 0.376-0.837 0.837-0.837h35.362c0.462 0 0.837 0.375 0.837 0.837v17.386c0 0.46-0.375 0.83-0.837 0.83zm-35.362-18.339c-0.065 0-0.12 0.055-0.12 0.119v17.386c0 0.065 0.055 0.12 0.12 0.12h35.362c0.065 0 0.12-0.055 0.12-0.12v-17.39c0-0.064-0.055-0.119-0.12-0.119h-35.362z" fill="#A80000"/>
				<g clip-rule="evenodd" fill-rule="evenodd">
					<linearGradient id="m" y2="108.49" gradientUnits="userSpaceOnUse" y1="98.621" x2="33.286" x1="33.286">
						<stop stop-color="#DF0000" offset="0"/>
						<stop stop-color="#A00404" offset="1"/>
					</linearGradient>
					<path d="m49.629 101.81c0 0.263-0.216 0.479-0.479 0.479h-31.73c-0.263 0-0.478-0.216-0.478-0.479v-16.572c0-0.264 0.215-0.479 0.478-0.479h31.731c0.263 0 0.479 0.215 0.479 0.479v16.572z" fill="url(#m)"/>
					<path opacity=".4" d="m17.542 100.89c0.002-0.48 0.034-14.263 0.034-14.263s-0.242-1.011 0.957-1.011c1.595 0 28.873-0.086 29.985 0-1.037 0.205-28.629-0.002-29.905 1.116-1.277 1.121-0.838 13.398-1.071 14.158z" fill="#fff"/>
				</g>
				<linearGradient id="l" y2="101.62" gradientUnits="userSpaceOnUse" y1="98.797" x2="33.292" x1="33.292">
					<stop stop-color="#DF0000" offset="0"/>
					<stop stop-color="#A00404" offset="1"/>
				</linearGradient><g clip-rule="evenodd" fill-rule="evenodd">
				<path d="m48.956 100.95c0 0.395-0.323 0.717-0.718 0.717h-29.894c-0.395 0-0.718-0.322-0.718-0.717v-1.497c0-0.395 0.323-0.718 0.718-0.718h29.894c0.395 0 0.718 0.323 0.718 0.718v1.497z" fill="url(#l)"/>
						<path d="m15.918 110.22c-0.724-2.574-0.832-5.163-0.316-7.767 1.755-8.812 9.448-14.86 18.484-14.54 8.661 0.304 15.925 7.001 17.073 15.738 1.33 10.12-6.207 19.444-16.391 20.21-4.353 0.328-8.509-0.396-12.245-2.797-2.587-1.66-4.484-3.89-5.183-6.972-1.157-5.054 2.925-12.043 10.583-10.413 3.146 0.666 5.384 3.548 5.41 6.748 0.028 3.175-2.098 6.032-5.063 6.798-0.954 0.241-1.906 0.303-2.93-0.051 1.044-0.938 1.49-2.054 1.315-3.381-0.258-1.918-2.005-3.35-3.931-3.258-1.872 0.083-3.561 1.843-3.661 3.853-0.109 2.199 0.915 3.877 2.654 5.071 6.136 4.214 14.432 1.193 16.379-5.883 1.199-4.368 0.351-8.279-3.087-11.357-3.378-3.024-7.339-3.977-11.628-2.268-4.301 1.715-6.789 4.984-7.379 9.627-0.025 0.22-0.059 0.42-0.084 0.64z" fill="#fff"/>
					<g fill="#3F3F3F">
						<path d="m51.16 103.65c-1.148-8.737-8.412-15.435-17.073-15.738-9.037-0.32-16.729 5.729-18.484 14.54-0.102 0.513-0.172 1.023-0.225 1.535h2.712c1.249-1.762 3.006-3.125 5.292-4.036 4.29-1.709 8.25-0.757 11.628 2.268 0.628 0.562 1.167 1.153 1.626 1.769h14.551c-0.014-0.1-0.013-0.21-0.027-0.33z"/>
						<path d="m22.692 103.99h6.232c-0.323-0.125-0.654-0.235-1-0.309-2-0.42-3.75-0.25-5.232 0.31z"/>
					</g>
					<path d="m15.563 102.69c-0.025 0.136-0.047 0.271-0.069 0.407h3.316c1-1.126 2.255-2.049 3.76-2.761 0.268-0.14 0.537-0.271 0.811-0.38 4.29-1.709 8.25-0.757 11.628 2.268 0.303 0.271 0.577 0.55 0.84 0.834l15.208 0.021c-0.021-0.129-0.044-0.257-0.067-0.385l-0.001-0.001c-0.191-1.03-0.469-2.028-0.823-2.987-0.002-0.005-0.003-0.009-0.005-0.014-0.175-0.471-0.368-0.932-0.578-1.383-0.008-0.015-0.015-0.03-0.022-0.046-0.206-0.438-0.43-0.866-0.668-1.284-0.017-0.029-0.033-0.058-0.05-0.086-0.232-0.401-0.48-0.794-0.741-1.175-0.03-0.044-0.062-0.088-0.093-0.132-0.253-0.362-0.518-0.715-0.795-1.056-0.049-0.061-0.1-0.118-0.148-0.178-0.268-0.32-0.543-0.632-0.83-0.933-0.072-0.075-0.146-0.146-0.219-0.22-0.275-0.278-0.557-0.549-0.849-0.809-0.098-0.087-0.2-0.168-0.3-0.253-0.277-0.236-0.559-0.468-0.851-0.687-0.127-0.096-0.259-0.184-0.389-0.276-0.275-0.195-0.553-0.389-0.839-0.569-0.16-0.1-0.325-0.19-0.488-0.285-0.269-0.157-0.536-0.315-0.813-0.458-0.194-0.101-0.395-0.188-0.593-0.281-0.257-0.121-0.513-0.246-0.776-0.354-0.23-0.096-0.468-0.175-0.703-0.26-0.242-0.089-0.482-0.183-0.729-0.261-0.271-0.085-0.549-0.151-0.824-0.223-0.222-0.058-0.439-0.125-0.664-0.174-0.328-0.072-0.664-0.122-0.999-0.175-0.18-0.028-0.355-0.068-0.536-0.092-0.52-0.065-1.046-0.109-1.577-0.128-9.037-0.32-16.729 5.729-18.484 14.54-0.017 0.07-0.026 0.15-0.04 0.23z" fill="#ccc"/>
					<path d="m49.629 101.81v-3.402c-2.783-6.042-8.723-10.254-15.543-10.493-7.552-0.268-14.151 3.922-17.145 10.446v3.449c0 0.263 0.215 0.479 0.478 0.479h2.176c1.049-0.954 2.301-1.743 3.785-2.335 4.29-1.709 8.25-0.757 11.628 2.268 0.024 0.022 0.046 0.045 0.07 0.067h14.071c0.265 0 0.48-0.22 0.48-0.48z" fill="#fff"/>
					</g><linearGradient id="k" y2="101.75" gradientUnits="userSpaceOnUse" y1="98.578" x2="33.292" x1="33.292">
						<stop stop-opacity="0" offset="0"/>
						<stop stop-color="#000404" stop-opacity=".4" offset="1"/>
					</linearGradient>
					<path fill-rule="evenodd" clip-rule="evenodd" d="m48.956 100.95v-1.497c0-0.395-0.323-0.718-0.718-0.718h-29.894c-0.395 0-0.718 0.323-0.718 0.718v1.497c0 0.395 0.323 0.717 0.718 0.717h1.987c0.889-0.678 1.9-1.256 3.05-1.715 4.016-1.6 7.744-0.867 10.975 1.715h13.882c0.394 0 0.718-0.32 0.718-0.72z" fill="url(#k)"/>
			<g opacity=".3" fill-rule="evenodd" clip-rule="evenodd" fill="#fff">
				<path d="m10.458 129.85c0.737-0.718 1.818-46.419 1.818-47.974 0-1.556-2.116-1.795-2.116-1.795l0.298 49.769z"/>
				<path d="m56.029 129.85c-0.736-0.718-1.817-46.419-1.817-47.974 0-1.556 2.117-1.795 2.117-1.795l-0.3 49.769z"/>
			</g>
				<linearGradient id="j" y2="81.634" gradientUnits="userSpaceOnUse" y1="80.496" x2="33.245" x1="33.245">
					<stop stop-color="#700000" stop-opacity="0" offset="0"/>
					<stop stop-color="#700000" offset="1"/>
				</linearGradient>
				<path opacity=".5" fill-rule="evenodd" clip-rule="evenodd" d="m12.275 81.872c0 0.038 0 0.119-0.001 0.238h41.939c-0.002-0.119-0.002-0.2-0.002-0.238 0-1.556 2.117-1.795 2.117-1.795h-46.169s2.116 0.24 2.116 1.795z" fill="url(#j)"/>
			<path fill-rule="evenodd" clip-rule="evenodd" d="m8.745 133.2c-0.291 0-0.528-0.431-0.528-0.958v-53.596c0-0.526 0.431-0.956 0.957-0.956h48.223c0.527 0 0.957 0.43 0.957 0.956v53.602c0 0.527-0.24 0.958-0.535 0.958s-0.536-0.431-0.536-0.958v-52.196c0-0.527-0.431-0.957-0.957-0.957h-46.097c-0.526 0-0.957 0.43-0.957 0.957v52.191c0.001 0.53-0.237 0.96-0.527 0.96z" fill="#870000"/>
			<path d="m57.397 134.63h-48.223c-0.924 0-1.675-0.752-1.675-1.674v-54.078c0-0.923 0.751-1.674 1.675-1.674h48.223c0.924 0 1.676 0.751 1.676 1.674v54.076c0 0.92-0.752 1.67-1.676 1.67zm-48.223-55.986c-0.13 0-0.24 0.108-0.24 0.238v54.076c0 0.129 0.11 0.238 0.24 0.238h48.223c0.131 0 0.24-0.109 0.24-0.238v-54.078c0-0.13-0.109-0.238-0.24-0.238h-48.223z" fill="#490000"/>
</svg>
