<svg xmlns:rdf="http://www.w3.org/1999/02/22-rdf-syntax-ns#" xmlns="http://www.w3.org/2000/svg" xml:space="preserve" viewBox="0 0 246.33376 117.37913" version="1.1" xmlns:cc="http://creativecommons.org/ns#" xmlns:dc="http://purl.org/dc/elements/1.1/"><defs><clipPath id="r"><path d="m0 93.903h197.07v-93.903h-197.07v93.903z"/></clipPath><clipPath id="j"><path d="m0 93.903h197.07v-93.903h-197.07v93.903z"/></clipPath><linearGradient id="i" gradientUnits="userSpaceOnUse" gradientTransform="matrix(125.76 0 0 -125.76 35.52 47.969)"><stop stop-color="#232323" offset="0"/><stop stop-color="#303030" offset=".22449"/><stop stop-color="#232323" offset="1"/></linearGradient><clipPath id="t"><path d="m0 93.903h197.07v-93.903h-197.07v93.903z"/></clipPath><clipPath id="s"><path d="m4.4629 18.725h18.725v-18.725h-18.725v18.725z"/></clipPath><radialGradient id="b" gradientUnits="userSpaceOnUse" cy="0" cx="0" gradientTransform="matrix(7.2019 0 0 -7.2019 13.825 11.363)" r="1"><stop stop-color="#fadd19" offset="0"/><stop stop-color="#ff921e" offset="1"/></radialGradient><clipPath id="q"><path d="m0 93.903h197.07v-93.903h-197.07v93.903z"/></clipPath><clipPath id="p"><path d="m10.347 16.319h6.957v-6.957h-6.957v6.957z"/></clipPath><clipPath id="o"><path d="m17.304 12.841c0-1.921-1.557-3.479-3.479-3.479-1.921 0-3.478 1.558-3.478 3.479s1.557 3.478 3.478 3.478c1.922 0 3.479-1.557 3.479-3.478"/></clipPath><linearGradient id="h" gradientUnits="userSpaceOnUse" gradientTransform="matrix(-2e-7 5.5025 5.5025 2e-7 13.825 9.1523)"><stop stop-color="#fff" stop-opacity="0" offset="0"/><stop stop-color="#fff" offset="1"/></linearGradient><mask id="d"><path fill="url(#h)" d="m-32768 32767h65535v-65535h-65535v65535z"/></mask><linearGradient id="g" gradientUnits="userSpaceOnUse" gradientTransform="matrix(-2e-7 5.5025 5.5025 2e-7 13.825 9.1523)"><stop stop-color="#fff" offset="0"/><stop stop-color="#fff" offset="1"/></linearGradient><clipPath id="n"><path d="m173.32 93.064h18.724v-18.725h-18.724v18.725z"/></clipPath><radialGradient id="a" gradientUnits="userSpaceOnUse" cy="0" cx="0" gradientTransform="matrix(7.2014 0 0 -7.2014 182.69 85.702)" r="1"><stop stop-color="#f70" offset="0"/><stop stop-color="#ff6000" offset="1"/></radialGradient><clipPath id="m"><path d="m0 93.903h197.07v-93.903h-197.07v93.903z"/></clipPath><clipPath id="l"><path d="m179.21 90.658h6.957v-6.957h-6.957v6.957z"/></clipPath><clipPath id="k"><path d="m186.16 87.18c0-1.921-1.557-3.479-3.479-3.479s-3.478 1.558-3.478 3.479 1.556 3.478 3.478 3.478 3.479-1.557 3.479-3.478"/></clipPath><linearGradient id="f" gradientUnits="userSpaceOnUse" gradientTransform="matrix(-2e-7 5.5025 5.5025 2e-7 182.69 83.491)"><stop stop-color="#fff" stop-opacity="0" offset="0"/><stop stop-color="#fff" offset="1"/></linearGradient><mask id="c"><path fill="url(#f)" d="m-32768 32767h65535v-65535h-65535v65535z"/></mask><linearGradient id="e" gradientUnits="userSpaceOnUse" gradientTransform="matrix(-2e-7 5.5025 5.5025 2e-7 182.69 83.491)"><stop stop-color="#fff" offset="0"/><stop stop-color="#fff" offset="1"/></linearGradient></defs><g transform="matrix(1.25 0 0 -1.25 0 117.38)"><path fill="#efe3b1" d="m0.5 15.064h30.533v65.891h-30.533v-65.891z"/><path fill="#b79c77" d="m0 14.565h31.533v66.891h-31.533v-66.891zm1 65.891h29.533v-64.891h-29.533v64.891z"/><g clip-path="url(#r)"><g transform="translate(0 24.489)"><path stroke="#b79c77" fill="none" stroke-miterlimit="10" d="m0 0h31.534"/></g><g transform="translate(0 33.9)"><path stroke="#b79c77" fill="none" stroke-miterlimit="10" d="m0 0h31.534"/></g><g transform="translate(0 43.312)"><path stroke="#b79c77" fill="none" stroke-miterlimit="10" d="m0 0h31.534"/></g><g transform="translate(0 52.724)"><path stroke="#b79c77" fill="none" stroke-miterlimit="10" d="m0 0h31.534"/></g><g transform="translate(0 62.135)"><path stroke="#b79c77" fill="none" stroke-miterlimit="10" d="m0 0h31.534"/></g><g transform="translate(0 71.547)"><path stroke="#b79c77" fill="none" stroke-miterlimit="10" d="m0 0h31.534"/></g></g><g transform="translate(20.867 14.562)"><path stroke="#b79c77" fill="none" stroke-miterlimit="10" d="m0 0v66.873"/></g><g transform="translate(10.684 14.562)"><path stroke="#b79c77" fill="none" stroke-miterlimit="10" d="m0 0v66.873"/></g><path fill="#efe3b1" d="m166.03 80.955h30.533v-65.891h-30.533v65.891z"/><path fill="#b79c77" d="m165.53 14.565h31.533v66.891h-31.533v-66.891zm1 65.891h29.534v-64.891h-29.534v64.891z"/><g clip-path="url(#j)"><g transform="translate(165.53 24.489)"><path stroke="#b79c77" fill="none" stroke-miterlimit="10" d="m0 0h31.533"/></g><g transform="translate(165.53 33.9)"><path stroke="#b79c77" fill="none" stroke-miterlimit="10" d="m0 0h31.533"/></g><g transform="translate(165.53 43.312)"><path stroke="#b79c77" fill="none" stroke-miterlimit="10" d="m0 0h31.533"/></g><g transform="translate(165.53 52.724)"><path stroke="#b79c77" fill="none" stroke-miterlimit="10" d="m0 0h31.533"/></g><g transform="translate(165.53 62.135)"><path stroke="#b79c77" fill="none" stroke-miterlimit="10" d="m0 0h31.533"/></g><g transform="translate(165.53 71.547)"><path stroke="#b79c77" fill="none" stroke-miterlimit="10" d="m0 0h31.533"/></g></g><g transform="translate(186.4 14.562)"><path stroke="#b79c77" fill="none" stroke-miterlimit="10" d="m0 0v66.873"/></g><g transform="translate(176.22 14.562)"><path stroke="#b79c77" fill="none" stroke-miterlimit="10" d="m0 0v66.873"/></g><path fill="url(#i)" d="m161.28 18.56h-125.76v58.818h125.76v-58.818z"/><g fill="#ddd"><path d="m48.093 18.632h-12.573v58.818h12.573v-58.818z"/><path d="m73.243 18.632h-12.569v58.818h12.569v-58.818z"/><path d="m98.397 18.632h-12.573v58.818h12.573v-58.818z"/><path d="m123.55 18.632h-12.568v58.818h12.568v-58.818z"/><path d="m148.7 18.632h-12.573v58.818h12.573v-58.818z"/></g><g transform="translate(35.52 14.564)"><path d="m0 0h1" stroke="#ddd" stroke-miterlimit="10" stroke-width="2" fill="none"/></g><g transform="translate(47.008 14.564)"><path d="m0 0h108.03" stroke="#ddd" stroke-dasharray="2.098, 10.488" stroke-miterlimit="10" stroke-width="2" fill="none"/></g><g transform="translate(160.28 14.564)"><path d="m0 0h1" stroke="#ddd" stroke-miterlimit="10" stroke-width="2" fill="none"/></g><g transform="translate(35.52 81.455)"><path d="m0 0h1" stroke="#ddd" stroke-miterlimit="10" stroke-width="2" fill="none"/></g><g transform="translate(47.008 81.455)"><path d="m0 0h108.03" stroke="#ddd" stroke-dasharray="2.098, 10.488" stroke-miterlimit="10" stroke-width="2" fill="none"/></g><g transform="translate(160.28 81.455)"><path d="m0 0h1" stroke="#ddd" stroke-miterlimit="10" stroke-width="2" fill="none"/></g><g clip-path="url(#t)"><g opacity=".2" clip-path="url(#s)"><g transform="translate(23.188 9.3633)"><path fill="#183049" d="m0 0c0-5.171-4.191-9.363-9.362-9.363s-9.363 4.192-9.363 9.363c0 5.169 4.192 9.361 9.363 9.361s9.362-4.192 9.362-9.361"/></g></g></g><path fill="url(#b)" d="m6.623 11.363c0-3.978 3.225-7.202 7.202-7.202 3.978 0 7.202 3.224 7.202 7.202 0 3.977-3.224 7.201-7.202 7.201-3.977 0-7.202-3.224-7.202-7.201"/><g clip-path="url(#q)"><g transform="translate(21.027 11.363)"><path d="m0 0c0-3.978-3.224-7.202-7.202-7.202-3.977 0-7.201 3.224-7.201 7.202 0 3.977 3.224 7.201 7.201 7.201 3.978 0 7.202-3.224 7.202-7.201z" stroke="#f05a24" stroke-miterlimit="10" stroke-width="2" fill="none"/></g><g opacity=".39999" clip-path="url(#p)"><g clip-path="url(#o)"><g mask="url(#d)"><path fill="url(#g)" d="m17.304 12.841c0-1.921-1.557-3.479-3.479-3.479-1.921 0-3.478 1.558-3.478 3.479s1.557 3.478 3.478 3.478c1.922 0 3.479-1.557 3.479-3.478"/></g></g></g><g opacity=".2" clip-path="url(#n)"><g transform="translate(192.05 83.702)"><path fill="#183049" d="m0 0c0-5.171-4.191-9.363-9.362-9.363s-9.363 4.192-9.363 9.363c0 5.169 4.192 9.361 9.363 9.361s9.362-4.192 9.362-9.361"/></g></g></g><path fill="url(#a)" d="m175.48 85.702c0-3.977 3.223-7.202 7.201-7.202s7.201 3.225 7.201 7.202-3.223 7.201-7.201 7.201-7.201-3.224-7.201-7.201"/><g clip-path="url(#m)"><g transform="translate(189.89 85.702)"><path d="m0 0c0-3.978-3.224-7.202-7.201-7.202-3.978 0-7.201 3.224-7.201 7.202 0 3.977 3.223 7.201 7.201 7.201 3.977 0 7.201-3.224 7.201-7.201z" stroke="#f05a24" stroke-miterlimit="10" stroke-width="2" fill="none"/></g><g opacity=".39999" clip-path="url(#l)"><g clip-path="url(#k)"><g mask="url(#c)"><path fill="url(#e)" d="m186.16 87.18c0-1.921-1.557-3.479-3.479-3.479s-3.478 1.558-3.478 3.479 1.556 3.478 3.478 3.478 3.479-1.557 3.479-3.478"/></g></g></g></g></g></svg>
