<?xml version="1.0" encoding="UTF-8" standalone="no"?>
<!-- Created with Inkscape (http://www.inkscape.org/) -->

<svg
   xmlns:dc="http://purl.org/dc/elements/1.1/"
   xmlns:cc="http://creativecommons.org/ns#"
   xmlns:rdf="http://www.w3.org/1999/02/22-rdf-syntax-ns#"
   xmlns:svg="http://www.w3.org/2000/svg"
   xmlns="http://www.w3.org/2000/svg"
   xmlns:inkscape="http://www.inkscape.org/namespaces/inkscape"
   version="1.1"
   width="246.33376"
   height="117.37913"
   id="svg2"
   xml:space="preserve"><metadata
     id="metadata8"><rdf:RDF><cc:Work
         rdf:about=""><dc:format>image/svg+xml</dc:format><dc:type
           rdf:resource="http://purl.org/dc/dcmitype/StillImage" /></cc:Work></rdf:RDF></metadata><defs
     id="defs6"><clipPath
       id="clipPath20"><path
         d="m 0,93.903 197.067,0 L 197.067,0 0,0 0,93.903 z"
         inkscape:connector-curvature="0"
         id="path22" /></clipPath><clipPath
       id="clipPath64"><path
         d="m 0,93.903 197.067,0 L 197.067,0 0,0 0,93.903 z"
         inkscape:connector-curvature="0"
         id="path66" /></clipPath><linearGradient
       x1="0"
       y1="0"
       x2="1"
       y2="0"
       id="linearGradient112"
       gradientUnits="userSpaceOnUse"
       gradientTransform="matrix(125.76367,0,0,-125.76367,35.52002,47.96875)"
       spreadMethod="pad"><stop
         id="stop114"
         style="stop-color:#232323;stop-opacity:1"
         offset="0" /><stop
         id="stop116"
         style="stop-color:#303030;stop-opacity:1"
         offset="0.22449" /><stop
         id="stop118"
         style="stop-color:#232323;stop-opacity:1"
         offset="1" /></linearGradient><clipPath
       id="clipPath160"><path
         d="m 0,93.903 197.067,0 L 197.067,0 0,0 0,93.903 z"
         inkscape:connector-curvature="0"
         id="path162" /></clipPath><clipPath
       id="clipPath168"><path
         d="m 4.46289,18.7246 18.72461,0 0,-18.7246 -18.72461,0 0,18.7246 z"
         inkscape:connector-curvature="0"
         id="path170" /></clipPath><radialGradient
       cx="0"
       cy="0"
       r="1"
       fx="0"
       fy="0"
       id="radialGradient192"
       gradientUnits="userSpaceOnUse"
       gradientTransform="matrix(7.2019043,0,0,-7.2019043,13.825195,11.363281)"
       spreadMethod="pad"><stop
         id="stop194"
         style="stop-color:#fadd19;stop-opacity:1"
         offset="0" /><stop
         id="stop196"
         style="stop-color:#ff921e;stop-opacity:1"
         offset="1" /></radialGradient><clipPath
       id="clipPath204"><path
         d="m 0,93.903 197.067,0 L 197.067,0 0,0 0,93.903 z"
         inkscape:connector-curvature="0"
         id="path206" /></clipPath><clipPath
       id="clipPath216"><path
         d="m 10.3467,16.3193 6.957,0 0,-6.957 -6.957,0 0,6.957 z"
         inkscape:connector-curvature="0"
         id="path218" /></clipPath><clipPath
       id="clipPath220"><path
         d="m 17.304,12.841 c 0,-1.921 -1.557,-3.479 -3.479,-3.479 -1.921,0 -3.478,1.558 -3.478,3.479 0,1.921 1.557,3.478 3.478,3.478 1.922,0 3.479,-1.557 3.479,-3.478"
         inkscape:connector-curvature="0"
         id="path222" /></clipPath><linearGradient
       x1="0"
       y1="0"
       x2="1"
       y2="0"
       id="linearGradient228"
       gradientUnits="userSpaceOnUse"
       gradientTransform="matrix(-2e-7,5.5025315,5.5025315,2e-7,13.825195,9.1523438)"
       spreadMethod="pad"><stop
         id="stop230"
         style="stop-color:#ffffff;stop-opacity:0"
         offset="0" /><stop
         id="stop232"
         style="stop-color:#ffffff;stop-opacity:1"
         offset="1" /></linearGradient><mask
       id="mask234"><g
         id="g236"><g
           id="g238"><g
             id="g240"><g
               id="g242"><path
                 d="m -32768,32767 65535,0 0,-65535 -65535,0 0,65535 z"
                 inkscape:connector-curvature="0"
                 id="path244"
                 style="fill:url(#linearGradient228);stroke:none" /></g></g></g></g></mask><linearGradient
       x1="0"
       y1="0"
       x2="1"
       y2="0"
       id="linearGradient246"
       gradientUnits="userSpaceOnUse"
       gradientTransform="matrix(-2e-7,5.5025315,5.5025315,2e-7,13.825195,9.1523438)"
       spreadMethod="pad"><stop
         id="stop248"
         style="stop-color:#ffffff;stop-opacity:1"
         offset="0" /><stop
         id="stop250"
         style="stop-color:#ffffff;stop-opacity:1"
         offset="1" /></linearGradient><clipPath
       id="clipPath274"><path
         d="m 173.324,93.0635 18.724,0 0,-18.7246 -18.724,0 0,18.7246 z"
         inkscape:connector-curvature="0"
         id="path276" /></clipPath><radialGradient
       cx="0"
       cy="0"
       r="1"
       fx="0"
       fy="0"
       id="radialGradient298"
       gradientUnits="userSpaceOnUse"
       gradientTransform="matrix(7.201416,0,0,-7.201416,182.68604,85.70166)"
       spreadMethod="pad"><stop
         id="stop300"
         style="stop-color:#ff7700;stop-opacity:1"
         offset="0" /><stop
         id="stop302"
         style="stop-color:#ff6000;stop-opacity:1"
         offset="1" /></radialGradient><clipPath
       id="clipPath310"><path
         d="m 0,93.903 197.067,0 L 197.067,0 0,0 0,93.903 z"
         inkscape:connector-curvature="0"
         id="path312" /></clipPath><clipPath
       id="clipPath322"><path
         d="m 179.208,90.6582 6.957,0 0,-6.957 -6.957,0 0,6.957 z"
         inkscape:connector-curvature="0"
         id="path324" /></clipPath><clipPath
       id="clipPath326"><path
         d="m 186.165,87.18 c 0,-1.921 -1.557,-3.479 -3.479,-3.479 -1.922,0 -3.478,1.558 -3.478,3.479 0,1.921 1.556,3.478 3.478,3.478 1.922,0 3.479,-1.557 3.479,-3.478"
         inkscape:connector-curvature="0"
         id="path328" /></clipPath><linearGradient
       x1="0"
       y1="0"
       x2="1"
       y2="0"
       id="linearGradient334"
       gradientUnits="userSpaceOnUse"
       gradientTransform="matrix(-2e-7,5.5025315,5.5025315,2e-7,182.68604,83.491211)"
       spreadMethod="pad"><stop
         id="stop336"
         style="stop-color:#ffffff;stop-opacity:0"
         offset="0" /><stop
         id="stop338"
         style="stop-color:#ffffff;stop-opacity:1"
         offset="1" /></linearGradient><mask
       id="mask340"><g
         id="g342"><g
           id="g344"><g
             id="g346"><g
               id="g348"><path
                 d="m -32768,32767 65535,0 0,-65535 -65535,0 0,65535 z"
                 inkscape:connector-curvature="0"
                 id="path350"
                 style="fill:url(#linearGradient334);stroke:none" /></g></g></g></g></mask><linearGradient
       x1="0"
       y1="0"
       x2="1"
       y2="0"
       id="linearGradient352"
       gradientUnits="userSpaceOnUse"
       gradientTransform="matrix(-2e-7,5.5025315,5.5025315,2e-7,182.68604,83.491211)"
       spreadMethod="pad"><stop
         id="stop354"
         style="stop-color:#ffffff;stop-opacity:1"
         offset="0" /><stop
         id="stop356"
         style="stop-color:#ffffff;stop-opacity:1"
         offset="1" /></linearGradient></defs><g
     transform="matrix(1.25,0,0,-1.25,0,117.37913)"
     id="g10"><path
       d="m 0.5,15.064 30.533,0 0,65.891 -30.533,0 0,-65.891 z"
       inkscape:connector-curvature="0"
       id="path12"
       style="fill:#efe3b1;fill-opacity:1;fill-rule:nonzero;stroke:none" /><path
       d="m 0,14.565 31.533,0 0,66.891 -31.533,0 0,-66.891 z m 1,65.891 29.533,0 0,-64.891 -29.533,0 0,64.891 z"
       inkscape:connector-curvature="0"
       id="path14"
       style="fill:#b79c77;fill-opacity:1;fill-rule:nonzero;stroke:none" /><g
       id="g16"><g
         clip-path="url(#clipPath20)"
         id="g18"><g
           transform="translate(0,24.4893)"
           id="g24"><path
             d="M 0,0 31.534,0"
             inkscape:connector-curvature="0"
             id="path26"
             style="fill:none;stroke:#b79c77;stroke-width:1;stroke-linecap:butt;stroke-linejoin:miter;stroke-miterlimit:10;stroke-opacity:1;stroke-dasharray:none" /></g><g
           transform="translate(0,33.9004)"
           id="g28"><path
             d="M 0,0 31.534,0"
             inkscape:connector-curvature="0"
             id="path30"
             style="fill:none;stroke:#b79c77;stroke-width:1;stroke-linecap:butt;stroke-linejoin:miter;stroke-miterlimit:10;stroke-opacity:1;stroke-dasharray:none" /></g><g
           transform="translate(0,43.3125)"
           id="g32"><path
             d="M 0,0 31.534,0"
             inkscape:connector-curvature="0"
             id="path34"
             style="fill:none;stroke:#b79c77;stroke-width:1;stroke-linecap:butt;stroke-linejoin:miter;stroke-miterlimit:10;stroke-opacity:1;stroke-dasharray:none" /></g><g
           transform="translate(0,52.7236)"
           id="g36"><path
             d="M 0,0 31.534,0"
             inkscape:connector-curvature="0"
             id="path38"
             style="fill:none;stroke:#b79c77;stroke-width:1;stroke-linecap:butt;stroke-linejoin:miter;stroke-miterlimit:10;stroke-opacity:1;stroke-dasharray:none" /></g><g
           transform="translate(0,62.1348)"
           id="g40"><path
             d="M 0,0 31.534,0"
             inkscape:connector-curvature="0"
             id="path42"
             style="fill:none;stroke:#b79c77;stroke-width:1;stroke-linecap:butt;stroke-linejoin:miter;stroke-miterlimit:10;stroke-opacity:1;stroke-dasharray:none" /></g><g
           transform="translate(0,71.5469)"
           id="g44"><path
             d="M 0,0 31.534,0"
             inkscape:connector-curvature="0"
             id="path46"
             style="fill:none;stroke:#b79c77;stroke-width:1;stroke-linecap:butt;stroke-linejoin:miter;stroke-miterlimit:10;stroke-opacity:1;stroke-dasharray:none" /></g></g></g><g
       transform="translate(20.8672,14.5625)"
       id="g48"><path
         d="M 0,0 0,66.873"
         inkscape:connector-curvature="0"
         id="path50"
         style="fill:none;stroke:#b79c77;stroke-width:1;stroke-linecap:butt;stroke-linejoin:miter;stroke-miterlimit:10;stroke-opacity:1;stroke-dasharray:none" /></g><g
       transform="translate(10.6836,14.5625)"
       id="g52"><path
         d="M 0,0 0,66.873"
         inkscape:connector-curvature="0"
         id="path54"
         style="fill:none;stroke:#b79c77;stroke-width:1;stroke-linecap:butt;stroke-linejoin:miter;stroke-miterlimit:10;stroke-opacity:1;stroke-dasharray:none" /></g><path
       d="m 166.034,80.955 30.533,0 0,-65.891 -30.533,0 0,65.891 z"
       inkscape:connector-curvature="0"
       id="path56"
       style="fill:#efe3b1;fill-opacity:1;fill-rule:nonzero;stroke:none" /><path
       d="m 165.533,14.565 31.533,0 0,66.891 -31.533,0 0,-66.891 z m 1,65.891 29.534,0 0,-64.891 -29.534,0 0,64.891 z"
       inkscape:connector-curvature="0"
       id="path58"
       style="fill:#b79c77;fill-opacity:1;fill-rule:nonzero;stroke:none" /><g
       id="g60"><g
         clip-path="url(#clipPath64)"
         id="g62"><g
           transform="translate(165.5337,24.4893)"
           id="g68"><path
             d="M 0,0 31.533,0"
             inkscape:connector-curvature="0"
             id="path70"
             style="fill:none;stroke:#b79c77;stroke-width:1;stroke-linecap:butt;stroke-linejoin:miter;stroke-miterlimit:10;stroke-opacity:1;stroke-dasharray:none" /></g><g
           transform="translate(165.5337,33.9004)"
           id="g72"><path
             d="M 0,0 31.533,0"
             inkscape:connector-curvature="0"
             id="path74"
             style="fill:none;stroke:#b79c77;stroke-width:1;stroke-linecap:butt;stroke-linejoin:miter;stroke-miterlimit:10;stroke-opacity:1;stroke-dasharray:none" /></g><g
           transform="translate(165.5337,43.3125)"
           id="g76"><path
             d="M 0,0 31.533,0"
             inkscape:connector-curvature="0"
             id="path78"
             style="fill:none;stroke:#b79c77;stroke-width:1;stroke-linecap:butt;stroke-linejoin:miter;stroke-miterlimit:10;stroke-opacity:1;stroke-dasharray:none" /></g><g
           transform="translate(165.5337,52.7236)"
           id="g80"><path
             d="M 0,0 31.533,0"
             inkscape:connector-curvature="0"
             id="path82"
             style="fill:none;stroke:#b79c77;stroke-width:1;stroke-linecap:butt;stroke-linejoin:miter;stroke-miterlimit:10;stroke-opacity:1;stroke-dasharray:none" /></g><g
           transform="translate(165.5337,62.1348)"
           id="g84"><path
             d="M 0,0 31.533,0"
             inkscape:connector-curvature="0"
             id="path86"
             style="fill:none;stroke:#b79c77;stroke-width:1;stroke-linecap:butt;stroke-linejoin:miter;stroke-miterlimit:10;stroke-opacity:1;stroke-dasharray:none" /></g><g
           transform="translate(165.5337,71.5469)"
           id="g88"><path
             d="M 0,0 31.533,0"
             inkscape:connector-curvature="0"
             id="path90"
             style="fill:none;stroke:#b79c77;stroke-width:1;stroke-linecap:butt;stroke-linejoin:miter;stroke-miterlimit:10;stroke-opacity:1;stroke-dasharray:none" /></g></g></g><g
       transform="translate(186.4009,14.5625)"
       id="g92"><path
         d="M 0,0 0,66.873"
         inkscape:connector-curvature="0"
         id="path94"
         style="fill:none;stroke:#b79c77;stroke-width:1;stroke-linecap:butt;stroke-linejoin:miter;stroke-miterlimit:10;stroke-opacity:1;stroke-dasharray:none" /></g><g
       transform="translate(176.2173,14.5625)"
       id="g96"><path
         d="M 0,0 0,66.873"
         inkscape:connector-curvature="0"
         id="path98"
         style="fill:none;stroke:#b79c77;stroke-width:1;stroke-linecap:butt;stroke-linejoin:miter;stroke-miterlimit:10;stroke-opacity:1;stroke-dasharray:none" /></g><g
       id="g100"><g
         id="g102"><g
           id="g108"><g
             id="g110"><path
               d="m 161.284,18.56 -125.764,0 0,58.818 125.764,0 0,-58.818 z"
               inkscape:connector-curvature="0"
               id="path120"
               style="fill:url(#linearGradient112);stroke:none" /></g></g></g></g><path
       d="m 48.093,18.632 -12.573,0 0,58.818 12.573,0 0,-58.818 z"
       inkscape:connector-curvature="0"
       id="path122"
       style="fill:#dddddd;fill-opacity:1;fill-rule:nonzero;stroke:none" /><path
       d="m 73.243,18.632 -12.569,0 0,58.818 12.569,0 0,-58.818 z"
       inkscape:connector-curvature="0"
       id="path124"
       style="fill:#dddddd;fill-opacity:1;fill-rule:nonzero;stroke:none" /><path
       d="m 98.397,18.632 -12.573,0 0,58.818 12.573,0 0,-58.818 z"
       inkscape:connector-curvature="0"
       id="path126"
       style="fill:#dddddd;fill-opacity:1;fill-rule:nonzero;stroke:none" /><path
       d="m 123.547,18.632 -12.568,0 0,58.818 12.568,0 0,-58.818 z"
       inkscape:connector-curvature="0"
       id="path128"
       style="fill:#dddddd;fill-opacity:1;fill-rule:nonzero;stroke:none" /><path
       d="m 148.703,18.632 -12.573,0 0,58.818 12.573,0 0,-58.818 z"
       inkscape:connector-curvature="0"
       id="path130"
       style="fill:#dddddd;fill-opacity:1;fill-rule:nonzero;stroke:none" /><g
       transform="translate(35.52,14.5645)"
       id="g132"><path
         d="M 0,0 1,0"
         inkscape:connector-curvature="0"
         id="path134"
         style="fill:none;stroke:#dddddd;stroke-width:2;stroke-linecap:butt;stroke-linejoin:miter;stroke-miterlimit:10;stroke-opacity:1;stroke-dasharray:none" /></g><g
       transform="translate(47.0083,14.5645)"
       id="g136"><path
         d="M 0,0 108.031,0"
         inkscape:connector-curvature="0"
         id="path138"
         style="fill:none;stroke:#dddddd;stroke-width:2;stroke-linecap:butt;stroke-linejoin:miter;stroke-miterlimit:10;stroke-opacity:1;stroke-dasharray:2.098, 10.488;stroke-dashoffset:0" /></g><g
       transform="translate(160.2837,14.5645)"
       id="g140"><path
         d="M 0,0 1,0"
         inkscape:connector-curvature="0"
         id="path142"
         style="fill:none;stroke:#dddddd;stroke-width:2;stroke-linecap:butt;stroke-linejoin:miter;stroke-miterlimit:10;stroke-opacity:1;stroke-dasharray:none" /></g><g
       transform="translate(35.52,81.4551)"
       id="g144"><path
         d="M 0,0 1,0"
         inkscape:connector-curvature="0"
         id="path146"
         style="fill:none;stroke:#dddddd;stroke-width:2;stroke-linecap:butt;stroke-linejoin:miter;stroke-miterlimit:10;stroke-opacity:1;stroke-dasharray:none" /></g><g
       transform="translate(47.0083,81.4551)"
       id="g148"><path
         d="M 0,0 108.031,0"
         inkscape:connector-curvature="0"
         id="path150"
         style="fill:none;stroke:#dddddd;stroke-width:2;stroke-linecap:butt;stroke-linejoin:miter;stroke-miterlimit:10;stroke-opacity:1;stroke-dasharray:2.098, 10.488;stroke-dashoffset:0" /></g><g
       transform="translate(160.2837,81.4551)"
       id="g152"><path
         d="M 0,0 1,0"
         inkscape:connector-curvature="0"
         id="path154"
         style="fill:none;stroke:#dddddd;stroke-width:2;stroke-linecap:butt;stroke-linejoin:miter;stroke-miterlimit:10;stroke-opacity:1;stroke-dasharray:none" /></g><g
       id="g156"><g
         clip-path="url(#clipPath160)"
         id="g158"><g
           id="g164"><g
             id="g166" /><g
             id="g172"><g
               clip-path="url(#clipPath168)"
               id="g174"
               style="opacity:0.19999701"><g
                 transform="translate(23.1875,9.3633)"
                 id="g176"><path
                   d="m 0,0 c 0,-5.171 -4.191,-9.363 -9.362,-9.363 -5.171,0 -9.363,4.192 -9.363,9.363 0,5.169 4.192,9.361 9.363,9.361 C -4.191,9.361 0,5.169 0,0"
                   inkscape:connector-curvature="0"
                   id="path178"
                   style="fill:#183049;fill-opacity:1;fill-rule:nonzero;stroke:none" /></g></g></g></g></g></g><g
       id="g180"><g
         id="g182"><g
           id="g188"><g
             id="g190"><path
               d="m 6.623,11.363 c 0,-3.978 3.225,-7.202 7.202,-7.202 l 0,0 c 3.978,0 7.202,3.224 7.202,7.202 l 0,0 c 0,3.977 -3.224,7.201 -7.202,7.201 l 0,0 c -3.977,0 -7.202,-3.224 -7.202,-7.201"
               inkscape:connector-curvature="0"
               id="path198"
               style="fill:url(#radialGradient192);stroke:none" /></g></g></g></g><g
       id="g200"><g
         clip-path="url(#clipPath204)"
         id="g202"><g
           transform="translate(21.0269,11.3633)"
           id="g208"><path
             d="m 0,0 c 0,-3.978 -3.224,-7.202 -7.202,-7.202 -3.977,0 -7.201,3.224 -7.201,7.202 0,3.977 3.224,7.201 7.201,7.201 C -3.224,7.201 0,3.977 0,0 z"
             inkscape:connector-curvature="0"
             id="path210"
             style="fill:none;stroke:#f05a24;stroke-width:2;stroke-linecap:butt;stroke-linejoin:miter;stroke-miterlimit:10;stroke-opacity:1;stroke-dasharray:none" /></g><g
           id="g212"><g
             id="g214" /><g
             id="g252"><g
               clip-path="url(#clipPath216)"
               id="g254"
               style="opacity:0.39999402"><g
                 id="g256"><g
                   clip-path="url(#clipPath220)"
                   id="g258"><g
                     id="g260"><g
                       id="g262" /><g
                       mask="url(#mask234)"
                       id="g264"><g
                         id="g266"><path
                           d="m 17.304,12.841 c 0,-1.921 -1.557,-3.479 -3.479,-3.479 -1.921,0 -3.478,1.558 -3.478,3.479 0,1.921 1.557,3.478 3.478,3.478 1.922,0 3.479,-1.557 3.479,-3.478"
                           inkscape:connector-curvature="0"
                           id="path268"
                           style="fill:url(#linearGradient246);stroke:none" /></g></g></g></g></g></g></g></g><g
           id="g270"><g
             id="g272" /><g
             id="g278"><g
               clip-path="url(#clipPath274)"
               id="g280"
               style="opacity:0.19999701"><g
                 transform="translate(192.0483,83.7021)"
                 id="g282"><path
                   d="m 0,0 c 0,-5.171 -4.191,-9.363 -9.362,-9.363 -5.171,0 -9.363,4.192 -9.363,9.363 0,5.169 4.192,9.361 9.363,9.361 C -4.191,9.361 0,5.169 0,0"
                   inkscape:connector-curvature="0"
                   id="path284"
                   style="fill:#183049;fill-opacity:1;fill-rule:nonzero;stroke:none" /></g></g></g></g></g></g><g
       id="g286"><g
         id="g288"><g
           id="g294"><g
             id="g296"><path
               d="m 175.485,85.702 c 0,-3.977 3.223,-7.202 7.201,-7.202 l 0,0 c 3.978,0 7.201,3.225 7.201,7.202 l 0,0 c 0,3.977 -3.223,7.201 -7.201,7.201 l 0,0 c -3.978,0 -7.201,-3.224 -7.201,-7.201"
               inkscape:connector-curvature="0"
               id="path304"
               style="fill:url(#radialGradient298);stroke:none" /></g></g></g></g><g
       id="g306"><g
         clip-path="url(#clipPath310)"
         id="g308"><g
           transform="translate(189.8872,85.7021)"
           id="g314"><path
             d="m 0,0 c 0,-3.978 -3.224,-7.202 -7.201,-7.202 -3.978,0 -7.201,3.224 -7.201,7.202 0,3.977 3.223,7.201 7.201,7.201 C -3.224,7.201 0,3.977 0,0 z"
             inkscape:connector-curvature="0"
             id="path316"
             style="fill:none;stroke:#f05a24;stroke-width:2;stroke-linecap:butt;stroke-linejoin:miter;stroke-miterlimit:10;stroke-opacity:1;stroke-dasharray:none" /></g><g
           id="g318"><g
             id="g320" /><g
             id="g358"><g
               clip-path="url(#clipPath322)"
               id="g360"
               style="opacity:0.39999402"><g
                 id="g362"><g
                   clip-path="url(#clipPath326)"
                   id="g364"><g
                     id="g366"><g
                       id="g368" /><g
                       mask="url(#mask340)"
                       id="g370"><g
                         id="g372"><path
                           d="m 186.165,87.18 c 0,-1.921 -1.557,-3.479 -3.479,-3.479 -1.922,0 -3.478,1.558 -3.478,3.479 0,1.921 1.556,3.478 3.478,3.478 1.922,0 3.479,-1.557 3.479,-3.478"
                           inkscape:connector-curvature="0"
                           id="path374"
                           style="fill:url(#linearGradient352);stroke:none" /></g></g></g></g></g></g></g></g></g></g></g></svg>