<?xml version="1.0" encoding="UTF-8" standalone="no"?>
<!-- Generator: Adobe Illustrator 16.2.1, SVG Export Plug-In . SVG Version: 6.00 Build 0)  -->

<svg
   xmlns:dc="http://purl.org/dc/elements/1.1/"
   xmlns:cc="http://creativecommons.org/ns#"
   xmlns:rdf="http://www.w3.org/1999/02/22-rdf-syntax-ns#"
   xmlns:svg="http://www.w3.org/2000/svg"
   xmlns="http://www.w3.org/2000/svg"
   xmlns:sodipodi="http://sodipodi.sourceforge.net/DTD/sodipodi-0.dtd"
   xmlns:inkscape="http://www.inkscape.org/namespaces/inkscape"
   version="1.1"
   id="Layer_1"
   x="0px"
   y="0px"
   width="687.991px"
   height="738.642px"
   viewBox="0 0 687.991 738.642"
   enable-background="new 0 0 687.991 738.642"
   xml:space="preserve"
   inkscape:version="0.48.4 r9939"
   sodipodi:docname="OcadoCFC_no_road.svg"><metadata
   id="metadata4085"><rdf:RDF><cc:Work
       rdf:about=""><dc:format>image/svg+xml</dc:format><dc:type
         rdf:resource="http://purl.org/dc/dcmitype/StillImage" /></cc:Work></rdf:RDF></metadata><defs
   id="defs4083" /><sodipodi:namedview
   pagecolor="#ffffff"
   bordercolor="#666666"
   borderopacity="1"
   objecttolerance="10"
   gridtolerance="10"
   guidetolerance="10"
   inkscape:pageopacity="0"
   inkscape:pageshadow="2"
   inkscape:window-width="1271"
   inkscape:window-height="1190"
   id="namedview4081"
   showgrid="false"
   inkscape:zoom="0.90369729"
   inkscape:cx="536.96241"
   inkscape:cy="370.51408"
   inkscape:window-x="0"
   inkscape:window-y="0"
   inkscape:window-maximized="0"
   inkscape:current-layer="g3539" />
<g
   id="g3537">
	<g
   id="g3539">
		<linearGradient
   id="SVGID_1_"
   gradientUnits="userSpaceOnUse"
   x1="66.79"
   y1="166.2681"
   x2="666.79"
   y2="166.2681">
			<stop
   offset="0"
   style="stop-color:#232323"
   id="stop3542" />
			<stop
   offset="0.2245"
   style="stop-color:#303030"
   id="stop3544" />
			<stop
   offset="0.7449"
   style="stop-color:#303030"
   id="stop3546" />
			<stop
   offset="1"
   style="stop-color:#232323"
   id="stop3548" />
		</linearGradient>
		
		<g
   id="g3552">
			
		</g>
		<g
   id="g3556">
			<g
   id="g3558">
				<g
   id="g3560">
					
					
						
					
				</g>
			</g>
			<g
   id="g3568">
				<g
   id="g3570">
					
					
						
					
				</g>
			</g>
		</g>
		
	</g>
	<path
   opacity="0.2"
   fill="#0C1C2B"
   d="M650.542,299.431v-17.717h-119V173.663c0.872-2.029,1.358-4.263,1.358-6.612   c0-2.349-0.486-4.582-1.358-6.611v-8.079h-7.328c-2.398-1.322-5.152-2.079-8.084-2.079H216.706c-2.932,0-5.686,0.757-8.084,2.079   h-7.607v8.816c-0.686,1.831-1.079,3.804-1.079,5.874s0.393,4.045,1.079,5.875v108.788H80.232v17.717H42.783v264.183H0v140.17   h42.783v34.858h645.208V299.431H650.542z"
   id="path3580" />
	<g
   id="g3582">
		<path
   fill="#C6B198"
   stroke="#705A4A"
   stroke-width="3"
   stroke-miterlimit="10"
   d="M527.79,166.801    c0,7.977-6.466,14.441-14.441,14.441H218.487c-7.976,0-14.441-6.465-14.441-14.441l0,0c0-7.975,6.465-14.44,14.441-14.44h294.862    C521.324,152.36,527.79,158.826,527.79,166.801L527.79,166.801z"
   id="path3584" />
		<g
   id="g3586">
			<rect
   x="5.79"
   y="570.242"
   fill="#BA0000"
   stroke="#820000"
   stroke-width="3"
   stroke-miterlimit="10"
   width="61"
   height="128"
   id="rect3588" />
			<polygon
   fill="#820000"
   points="66.791,698.242 57.29,698.242 45.29,570.242 66.791,570.242    "
   id="polygon3590" />
			<path
   opacity="0.2"
   fill="#183049"
   d="M67.791,584.643H44.088c-2.339-1.795-5.254-2.875-8.423-2.875     c-7.651,0-13.875,6.225-13.875,13.875s6.224,13.875,13.875,13.875c3.169,0,6.084-1.08,8.423-2.875h23.702V584.643z"
   id="path3592" />
			<path
   opacity="0.2"
   fill="#183049"
   d="M67.791,617.143H44.088c-2.339-1.795-5.254-2.875-8.423-2.875     c-7.651,0-13.875,6.225-13.875,13.875s6.224,13.875,13.875,13.875c3.169,0,6.084-1.08,8.423-2.875h23.702V617.143z"
   id="path3594" />
			<g
   id="g3596">
				<g
   id="g3598">
					<circle
   fill="#878787"
   stroke="#383838"
   stroke-width="2"
   stroke-miterlimit="10"
   cx="35.665"
   cy="592.643"
   r="12.875"
   id="circle3600" />
					<path
   fill="#5B5B5B"
   d="M66.791,602.643h-30.5c-5.523,0-10-4.478-10-10s4.477-10,10-10h30.5V602.643z"
   id="path3602" />
				</g>
				<path
   fill="#898989"
   d="M60.791,582.643h-24.5c-5.523,0-10,4.478-10,10h34.5V582.643z"
   id="path3604" />
				<path
   fill="none"
   stroke="#383838"
   stroke-miterlimit="10"
   d="M40.29,602.643c-5.523,0-10-4.478-10-10s4.477-10,10-10"
   id="path3606" />
				<path
   fill="none"
   stroke="#383838"
   stroke-miterlimit="10"
   d="M44.29,602.643c-3.314,0-6-4.478-6-10s2.686-10,6-10"
   id="path3608" />
				<path
   fill="none"
   stroke="#383838"
   stroke-miterlimit="10"
   d="M49.54,602.643c-1.657,0-3-4.478-3-10s1.343-10,3-10"
   id="path3610" />
				<line
   fill="none"
   stroke="#383838"
   stroke-miterlimit="10"
   x1="56.54"
   y1="602.643"
   x2="56.54"
   y2="582.643"
   id="line3612" />
				<path
   fill="none"
   stroke="#383838"
   stroke-width="2"
   stroke-miterlimit="10"
   d="M66.791,602.643h-30.5c-5.523,0-10-4.478-10-10      s4.477-10,10-10h30.5V602.643z"
   id="path3614" />
			</g>
			<g
   id="g3616">
				<g
   id="g3618">
					<circle
   fill="#878787"
   stroke="#383838"
   stroke-width="2"
   stroke-miterlimit="10"
   cx="35.665"
   cy="624.93"
   r="12.875"
   id="circle3620" />
					<path
   fill="#5B5B5B"
   d="M66.791,634.93h-30.5c-5.523,0-10-4.478-10-10s4.477-10,10-10h30.5V634.93z"
   id="path3622" />
				</g>
				<path
   fill="#898989"
   d="M60.791,614.93h-24.5c-5.523,0-10,4.478-10,10h34.5V614.93z"
   id="path3624" />
				<path
   fill="none"
   stroke="#383838"
   stroke-miterlimit="10"
   d="M40.29,634.93c-5.523,0-10-4.478-10-10s4.477-10,10-10"
   id="path3626" />
				<path
   fill="none"
   stroke="#383838"
   stroke-miterlimit="10"
   d="M44.29,634.93c-3.314,0-6-4.478-6-10s2.686-10,6-10"
   id="path3628" />
				<path
   fill="none"
   stroke="#383838"
   stroke-miterlimit="10"
   d="M49.54,634.93c-1.657,0-3-4.478-3-10s1.343-10,3-10"
   id="path3630" />
				<line
   fill="none"
   stroke="#383838"
   stroke-miterlimit="10"
   x1="56.54"
   y1="634.93"
   x2="56.54"
   y2="614.93"
   id="line3632" />
				<path
   fill="none"
   stroke="#383838"
   stroke-width="2"
   stroke-miterlimit="10"
   d="M66.791,634.93h-30.5c-5.523,0-10-4.478-10-10      s4.477-10,10-10h30.5V634.93z"
   id="path3634" />
			</g>
			<g
   id="g3636">
				
					<line
   fill="none"
   stroke="#820000"
   stroke-width="2"
   stroke-linecap="round"
   stroke-miterlimit="10"
   x1="17.04"
   y1="677.192"
   x2="41.29"
   y2="677.192"
   id="line3638" />
				
					<line
   fill="none"
   stroke="#820000"
   stroke-width="2"
   stroke-linecap="round"
   stroke-miterlimit="10"
   x1="17.04"
   y1="673.009"
   x2="41.29"
   y2="673.009"
   id="line3640" />
				
					<line
   fill="none"
   stroke="#820000"
   stroke-width="2"
   stroke-linecap="round"
   stroke-miterlimit="10"
   x1="17.04"
   y1="668.825"
   x2="41.29"
   y2="668.825"
   id="line3642" />
				
					<line
   fill="none"
   stroke="#820000"
   stroke-width="2"
   stroke-linecap="round"
   stroke-miterlimit="10"
   x1="17.04"
   y1="664.643"
   x2="41.29"
   y2="664.643"
   id="line3644" />
				
					<line
   fill="none"
   stroke="#820000"
   stroke-width="2"
   stroke-linecap="round"
   stroke-miterlimit="10"
   x1="17.04"
   y1="681.375"
   x2="41.29"
   y2="681.375"
   id="line3646" />
				
					<line
   fill="none"
   stroke="#820000"
   stroke-width="2"
   stroke-linecap="round"
   stroke-miterlimit="10"
   x1="17.04"
   y1="685.559"
   x2="41.29"
   y2="685.559"
   id="line3648" />
				
					<line
   fill="none"
   stroke="#820000"
   stroke-width="2"
   stroke-linecap="round"
   stroke-miterlimit="10"
   x1="17.04"
   y1="689.742"
   x2="41.29"
   y2="689.742"
   id="line3650" />
			</g>
		</g>
		<g
   id="g3652">
			<rect
   x="211.015"
   y="152.268"
   fill="#C6B198"
   width="311.194"
   height="147.975"
   id="rect3654" />
			<rect
   x="225.91"
   y="165.665"
   fill="#BAA38A"
   width="281.322"
   height="134.577"
   id="rect3656" />
			<polygon
   fill="#988575"
   points="230.91,170.665 507.231,170.665 507.231,165.665 225.91,165.665 225.91,300.242 230.91,300.242         "
   id="polygon3658" />
			<polygon
   fill="#988575"
   points="522.209,291.076 507.965,291.076 506.704,293.076 226.996,293.076 226.365,291.076      211.015,291.076 211.015,300.242 522.209,300.242    "
   id="polygon3660" />
			
				<rect
   x="225.91"
   y="165.665"
   fill="none"
   stroke="#705A4A"
   stroke-width="3"
   stroke-miterlimit="10"
   width="281.322"
   height="134.577"
   id="rect3662" />
			
				<rect
   x="211.015"
   y="152.268"
   fill="none"
   stroke="#705A4A"
   stroke-width="3"
   stroke-miterlimit="10"
   width="311.194"
   height="147.975"
   id="rect3664" />
		</g>
		<g
   id="g3666">
			
				<rect
   x="101.612"
   y="300.242"
   fill="#707070"
   stroke="#383838"
   stroke-width="3"
   stroke-miterlimit="10"
   width="530"
   height="18.294"
   id="rect3668" />
			<rect
   x="101.612"
   y="309.389"
   fill="#545454"
   width="530"
   height="9.147"
   id="rect3670" />
			
				<rect
   x="101.612"
   y="300.242"
   fill="none"
   stroke="#383838"
   stroke-width="3"
   stroke-miterlimit="10"
   width="530"
   height="18.294"
   id="rect3672" />
		</g>
		<g
   id="g3674">
			
				<rect
   x="66.613"
   y="317.734"
   fill="#707070"
   stroke="#383838"
   stroke-width="3"
   stroke-miterlimit="10"
   width="599.999"
   height="400.001"
   id="rect3676" />
			<linearGradient
   id="SVGID_2_"
   gradientUnits="userSpaceOnUse"
   x1="96.0718"
   y1="325.4922"
   x2="658.0743"
   y2="725.4937">
				<stop
   offset="0"
   style="stop-color:#919191"
   id="stop3679" />
				<stop
   offset="1"
   style="stop-color:#919191;stop-opacity:0"
   id="stop3681" />
			</linearGradient>
			<path
   fill="url(#SVGID_2_)"
   d="M647.611,702.735H75.613V326.242h571.999V702.735z M83.613,694.735h555.999V334.242H83.613     V694.735z"
   id="path3683" />
		</g>
		<g
   id="g3685">
			<rect
   x="103.203"
   y="348.838"
   fill="#919191"
   width="530"
   height="338.523"
   id="rect3687" />
			<path
   fill-rule="evenodd"
   clip-rule="evenodd"
   fill="#EFEFEF"
   d="M471.084,492.656c4.268,15.234,4.939,30.533,1.865,45.971     c-10.387,52.139-55.922,87.961-109.421,86.07c-51.273-1.809-94.275-41.445-101.072-93.168     c-7.875-59.926,36.756-115.104,97.039-119.656c25.774-1.947,50.366,2.348,72.472,16.541     c15.342,9.846,26.555,23.057,30.713,41.285c6.822,29.918-17.334,71.301-62.676,61.67c-18.613-3.951-31.87-21.027-32.024-39.951     c-0.154-18.801,12.409-35.705,29.985-40.242c5.629-1.453,11.281-1.818,17.305,0.287c-6.168,5.551-8.793,12.168-7.738,20.01     c1.523,11.357,11.828,19.828,23.25,19.299c11.109-0.512,21.092-10.922,21.678-22.791c0.645-13.049-5.402-22.969-15.715-30.041     c-36.334-24.934-85.44-7.061-96.952,34.822c-7.109,25.854-2.068,49.021,18.265,67.225c20.009,17.906,43.446,23.555,68.823,13.443     c25.482-10.15,40.219-29.502,43.707-57C470.746,495.17,470.92,493.912,471.084,492.656z"
   id="path3689" />
			<g
   id="g3691">
				<line
   fill="none"
   stroke="#4C4C4C"
   stroke-miterlimit="10"
   x1="113.203"
   y1="348.838"
   x2="113.203"
   y2="687.838"
   id="line3693" />
				<line
   fill="none"
   stroke="#4C4C4C"
   stroke-miterlimit="10"
   x1="123.203"
   y1="348.838"
   x2="123.203"
   y2="687.838"
   id="line3695" />
				<line
   fill="none"
   stroke="#4C4C4C"
   stroke-miterlimit="10"
   x1="133.203"
   y1="348.838"
   x2="133.203"
   y2="687.838"
   id="line3697" />
				<line
   fill="none"
   stroke="#4C4C4C"
   stroke-miterlimit="10"
   x1="143.203"
   y1="348.838"
   x2="143.203"
   y2="687.838"
   id="line3699" />
				<line
   fill="none"
   stroke="#4C4C4C"
   stroke-miterlimit="10"
   x1="153.203"
   y1="348.838"
   x2="153.203"
   y2="687.838"
   id="line3701" />
				<line
   fill="none"
   stroke="#4C4C4C"
   stroke-miterlimit="10"
   x1="163.203"
   y1="348.838"
   x2="163.203"
   y2="687.838"
   id="line3703" />
				<line
   fill="none"
   stroke="#4C4C4C"
   stroke-miterlimit="10"
   x1="173.203"
   y1="348.838"
   x2="173.203"
   y2="687.838"
   id="line3705" />
				<line
   fill="none"
   stroke="#4C4C4C"
   stroke-miterlimit="10"
   x1="183.203"
   y1="348.838"
   x2="183.203"
   y2="687.838"
   id="line3707" />
				<line
   fill="none"
   stroke="#4C4C4C"
   stroke-miterlimit="10"
   x1="193.203"
   y1="348.838"
   x2="193.203"
   y2="687.838"
   id="line3709" />
				<line
   fill="none"
   stroke="#4C4C4C"
   stroke-miterlimit="10"
   x1="203.203"
   y1="348.838"
   x2="203.203"
   y2="687.838"
   id="line3711" />
				<line
   fill="none"
   stroke="#4C4C4C"
   stroke-miterlimit="10"
   x1="213.203"
   y1="348.838"
   x2="213.203"
   y2="687.838"
   id="line3713" />
				<line
   fill="none"
   stroke="#4C4C4C"
   stroke-miterlimit="10"
   x1="223.203"
   y1="348.838"
   x2="223.203"
   y2="687.838"
   id="line3715" />
				<line
   fill="none"
   stroke="#4C4C4C"
   stroke-miterlimit="10"
   x1="233.203"
   y1="348.838"
   x2="233.203"
   y2="687.838"
   id="line3717" />
				<line
   fill="none"
   stroke="#4C4C4C"
   stroke-miterlimit="10"
   x1="243.203"
   y1="348.838"
   x2="243.203"
   y2="687.838"
   id="line3719" />
				<line
   fill="none"
   stroke="#4C4C4C"
   stroke-miterlimit="10"
   x1="253.203"
   y1="348.838"
   x2="253.203"
   y2="687.838"
   id="line3721" />
				<line
   fill="none"
   stroke="#4C4C4C"
   stroke-miterlimit="10"
   x1="263.203"
   y1="348.838"
   x2="263.203"
   y2="687.838"
   id="line3723" />
				<line
   fill="none"
   stroke="#4C4C4C"
   stroke-miterlimit="10"
   x1="273.203"
   y1="348.838"
   x2="273.203"
   y2="687.838"
   id="line3725" />
				<line
   fill="none"
   stroke="#4C4C4C"
   stroke-miterlimit="10"
   x1="283.203"
   y1="348.838"
   x2="283.203"
   y2="687.838"
   id="line3727" />
				<line
   fill="none"
   stroke="#4C4C4C"
   stroke-miterlimit="10"
   x1="293.203"
   y1="348.838"
   x2="293.203"
   y2="687.838"
   id="line3729" />
				<line
   fill="none"
   stroke="#4C4C4C"
   stroke-miterlimit="10"
   x1="303.203"
   y1="348.838"
   x2="303.203"
   y2="687.838"
   id="line3731" />
				<line
   fill="none"
   stroke="#4C4C4C"
   stroke-miterlimit="10"
   x1="313.203"
   y1="348.838"
   x2="313.203"
   y2="687.838"
   id="line3733" />
				<line
   fill="none"
   stroke="#4C4C4C"
   stroke-miterlimit="10"
   x1="323.203"
   y1="348.838"
   x2="323.203"
   y2="687.838"
   id="line3735" />
				<line
   fill="none"
   stroke="#4C4C4C"
   stroke-miterlimit="10"
   x1="333.203"
   y1="348.838"
   x2="333.203"
   y2="687.838"
   id="line3737" />
				<line
   fill="none"
   stroke="#4C4C4C"
   stroke-miterlimit="10"
   x1="343.203"
   y1="348.838"
   x2="343.203"
   y2="687.838"
   id="line3739" />
				<line
   fill="none"
   stroke="#4C4C4C"
   stroke-miterlimit="10"
   x1="353.202"
   y1="348.838"
   x2="353.202"
   y2="687.838"
   id="line3741" />
				<line
   fill="none"
   stroke="#4C4C4C"
   stroke-miterlimit="10"
   x1="363.202"
   y1="348.838"
   x2="363.202"
   y2="687.838"
   id="line3743" />
				<line
   fill="none"
   stroke="#4C4C4C"
   stroke-miterlimit="10"
   x1="373.203"
   y1="348.838"
   x2="373.203"
   y2="687.838"
   id="line3745" />
				<line
   fill="none"
   stroke="#4C4C4C"
   stroke-miterlimit="10"
   x1="383.203"
   y1="348.838"
   x2="383.203"
   y2="687.838"
   id="line3747" />
				<line
   fill="none"
   stroke="#4C4C4C"
   stroke-miterlimit="10"
   x1="393.203"
   y1="348.838"
   x2="393.203"
   y2="687.838"
   id="line3749" />
				<line
   fill="none"
   stroke="#4C4C4C"
   stroke-miterlimit="10"
   x1="403.203"
   y1="348.838"
   x2="403.203"
   y2="687.838"
   id="line3751" />
				<line
   fill="none"
   stroke="#4C4C4C"
   stroke-miterlimit="10"
   x1="413.203"
   y1="348.838"
   x2="413.203"
   y2="687.838"
   id="line3753" />
				<line
   fill="none"
   stroke="#4C4C4C"
   stroke-miterlimit="10"
   x1="423.203"
   y1="348.838"
   x2="423.203"
   y2="687.838"
   id="line3755" />
				<line
   fill="none"
   stroke="#4C4C4C"
   stroke-miterlimit="10"
   x1="433.203"
   y1="348.838"
   x2="433.203"
   y2="687.838"
   id="line3757" />
				<line
   fill="none"
   stroke="#4C4C4C"
   stroke-miterlimit="10"
   x1="443.203"
   y1="348.838"
   x2="443.203"
   y2="687.838"
   id="line3759" />
				<line
   fill="none"
   stroke="#4C4C4C"
   stroke-miterlimit="10"
   x1="453.203"
   y1="348.838"
   x2="453.203"
   y2="687.838"
   id="line3761" />
				<line
   fill="none"
   stroke="#4C4C4C"
   stroke-miterlimit="10"
   x1="463.203"
   y1="348.838"
   x2="463.203"
   y2="687.838"
   id="line3763" />
				<line
   fill="none"
   stroke="#4C4C4C"
   stroke-miterlimit="10"
   x1="473.203"
   y1="348.838"
   x2="473.203"
   y2="687.838"
   id="line3765" />
				<line
   fill="none"
   stroke="#4C4C4C"
   stroke-miterlimit="10"
   x1="483.203"
   y1="348.838"
   x2="483.203"
   y2="687.838"
   id="line3767" />
				<line
   fill="none"
   stroke="#4C4C4C"
   stroke-miterlimit="10"
   x1="493.203"
   y1="348.838"
   x2="493.203"
   y2="687.838"
   id="line3769" />
				<line
   fill="none"
   stroke="#4C4C4C"
   stroke-miterlimit="10"
   x1="503.203"
   y1="348.838"
   x2="503.203"
   y2="687.838"
   id="line3771" />
				<line
   fill="none"
   stroke="#4C4C4C"
   stroke-miterlimit="10"
   x1="513.203"
   y1="348.838"
   x2="513.203"
   y2="687.838"
   id="line3773" />
				<line
   fill="none"
   stroke="#4C4C4C"
   stroke-miterlimit="10"
   x1="523.203"
   y1="348.838"
   x2="523.203"
   y2="687.838"
   id="line3775" />
				<line
   fill="none"
   stroke="#4C4C4C"
   stroke-miterlimit="10"
   x1="533.203"
   y1="348.838"
   x2="533.203"
   y2="687.838"
   id="line3777" />
				<line
   fill="none"
   stroke="#4C4C4C"
   stroke-miterlimit="10"
   x1="543.203"
   y1="348.838"
   x2="543.203"
   y2="687.838"
   id="line3779" />
				<line
   fill="none"
   stroke="#4C4C4C"
   stroke-miterlimit="10"
   x1="553.203"
   y1="348.838"
   x2="553.203"
   y2="687.838"
   id="line3781" />
				<line
   fill="none"
   stroke="#4C4C4C"
   stroke-miterlimit="10"
   x1="563.203"
   y1="348.838"
   x2="563.203"
   y2="687.838"
   id="line3783" />
				<line
   fill="none"
   stroke="#4C4C4C"
   stroke-miterlimit="10"
   x1="573.203"
   y1="348.838"
   x2="573.203"
   y2="687.838"
   id="line3785" />
				<line
   fill="none"
   stroke="#4C4C4C"
   stroke-miterlimit="10"
   x1="583.203"
   y1="348.838"
   x2="583.203"
   y2="687.838"
   id="line3787" />
				<line
   fill="none"
   stroke="#4C4C4C"
   stroke-miterlimit="10"
   x1="593.203"
   y1="348.838"
   x2="593.203"
   y2="687.838"
   id="line3789" />
				<line
   fill="none"
   stroke="#4C4C4C"
   stroke-miterlimit="10"
   x1="603.203"
   y1="348.838"
   x2="603.203"
   y2="687.838"
   id="line3791" />
				<line
   fill="none"
   stroke="#4C4C4C"
   stroke-miterlimit="10"
   x1="613.203"
   y1="348.838"
   x2="613.203"
   y2="687.838"
   id="line3793" />
				<line
   fill="none"
   stroke="#4C4C4C"
   stroke-miterlimit="10"
   x1="623.203"
   y1="348.838"
   x2="623.203"
   y2="687.838"
   id="line3795" />
			</g>
			<polygon
   fill="#6D6D6D"
   points="113.203,358.838 633.203,358.838 633.203,348.838 103.203,348.838 103.203,687.361      113.203,687.361    "
   id="polygon3797" />
			<g
   id="g3799">
				<line
   fill="none"
   stroke="#B7B7B7"
   stroke-miterlimit="10"
   x1="112.203"
   y1="348.838"
   x2="112.203"
   y2="687.838"
   id="line3801" />
				<line
   fill="none"
   stroke="#B7B7B7"
   stroke-miterlimit="10"
   x1="122.203"
   y1="348.838"
   x2="122.203"
   y2="687.838"
   id="line3803" />
				<line
   fill="none"
   stroke="#B7B7B7"
   stroke-miterlimit="10"
   x1="132.203"
   y1="348.838"
   x2="132.203"
   y2="687.838"
   id="line3805" />
				<line
   fill="none"
   stroke="#B7B7B7"
   stroke-miterlimit="10"
   x1="142.203"
   y1="348.838"
   x2="142.203"
   y2="687.838"
   id="line3807" />
				<line
   fill="none"
   stroke="#B7B7B7"
   stroke-miterlimit="10"
   x1="152.203"
   y1="348.838"
   x2="152.203"
   y2="687.838"
   id="line3809" />
				<line
   fill="none"
   stroke="#B7B7B7"
   stroke-miterlimit="10"
   x1="162.203"
   y1="348.838"
   x2="162.203"
   y2="687.838"
   id="line3811" />
				<line
   fill="none"
   stroke="#B7B7B7"
   stroke-miterlimit="10"
   x1="172.203"
   y1="348.838"
   x2="172.203"
   y2="687.838"
   id="line3813" />
				<line
   fill="none"
   stroke="#B7B7B7"
   stroke-miterlimit="10"
   x1="182.203"
   y1="348.838"
   x2="182.203"
   y2="687.838"
   id="line3815" />
				<line
   fill="none"
   stroke="#B7B7B7"
   stroke-miterlimit="10"
   x1="192.203"
   y1="348.838"
   x2="192.203"
   y2="687.838"
   id="line3817" />
				<line
   fill="none"
   stroke="#B7B7B7"
   stroke-miterlimit="10"
   x1="202.203"
   y1="348.838"
   x2="202.203"
   y2="687.838"
   id="line3819" />
				<line
   fill="none"
   stroke="#B7B7B7"
   stroke-miterlimit="10"
   x1="212.203"
   y1="348.838"
   x2="212.203"
   y2="687.838"
   id="line3821" />
				<line
   fill="none"
   stroke="#B7B7B7"
   stroke-miterlimit="10"
   x1="222.203"
   y1="348.838"
   x2="222.203"
   y2="687.838"
   id="line3823" />
				<line
   fill="none"
   stroke="#B7B7B7"
   stroke-miterlimit="10"
   x1="232.203"
   y1="348.838"
   x2="232.203"
   y2="687.838"
   id="line3825" />
				<line
   fill="none"
   stroke="#B7B7B7"
   stroke-miterlimit="10"
   x1="242.203"
   y1="348.838"
   x2="242.203"
   y2="687.838"
   id="line3827" />
				<line
   fill="none"
   stroke="#B7B7B7"
   stroke-miterlimit="10"
   x1="252.203"
   y1="348.838"
   x2="252.203"
   y2="687.838"
   id="line3829" />
				<line
   fill="none"
   stroke="#B7B7B7"
   stroke-miterlimit="10"
   x1="262.203"
   y1="348.838"
   x2="262.203"
   y2="687.838"
   id="line3831" />
				<line
   fill="none"
   stroke="#B7B7B7"
   stroke-miterlimit="10"
   x1="272.203"
   y1="348.838"
   x2="272.203"
   y2="687.838"
   id="line3833" />
				<line
   fill="none"
   stroke="#B7B7B7"
   stroke-miterlimit="10"
   x1="282.203"
   y1="348.838"
   x2="282.203"
   y2="687.838"
   id="line3835" />
				<line
   fill="none"
   stroke="#B7B7B7"
   stroke-miterlimit="10"
   x1="292.203"
   y1="348.838"
   x2="292.203"
   y2="687.838"
   id="line3837" />
				<line
   fill="none"
   stroke="#B7B7B7"
   stroke-miterlimit="10"
   x1="302.203"
   y1="348.838"
   x2="302.203"
   y2="687.838"
   id="line3839" />
				<line
   fill="none"
   stroke="#B7B7B7"
   stroke-miterlimit="10"
   x1="312.203"
   y1="348.838"
   x2="312.203"
   y2="687.838"
   id="line3841" />
				<line
   fill="none"
   stroke="#B7B7B7"
   stroke-miterlimit="10"
   x1="322.203"
   y1="348.838"
   x2="322.203"
   y2="687.838"
   id="line3843" />
				<line
   fill="none"
   stroke="#B7B7B7"
   stroke-miterlimit="10"
   x1="332.203"
   y1="348.838"
   x2="332.203"
   y2="687.838"
   id="line3845" />
				<line
   fill="none"
   stroke="#B7B7B7"
   stroke-miterlimit="10"
   x1="342.203"
   y1="348.838"
   x2="342.203"
   y2="687.838"
   id="line3847" />
				<line
   fill="none"
   stroke="#B7B7B7"
   stroke-miterlimit="10"
   x1="352.202"
   y1="348.838"
   x2="352.202"
   y2="687.838"
   id="line3849" />
				<line
   fill="none"
   stroke="#B7B7B7"
   stroke-miterlimit="10"
   x1="362.202"
   y1="348.838"
   x2="362.202"
   y2="687.838"
   id="line3851" />
				<line
   fill="none"
   stroke="#B7B7B7"
   stroke-miterlimit="10"
   x1="372.203"
   y1="348.838"
   x2="372.203"
   y2="687.838"
   id="line3853" />
				<line
   fill="none"
   stroke="#B7B7B7"
   stroke-miterlimit="10"
   x1="382.203"
   y1="348.838"
   x2="382.203"
   y2="687.838"
   id="line3855" />
				<line
   fill="none"
   stroke="#B7B7B7"
   stroke-miterlimit="10"
   x1="392.203"
   y1="348.838"
   x2="392.203"
   y2="687.838"
   id="line3857" />
				<line
   fill="none"
   stroke="#B7B7B7"
   stroke-miterlimit="10"
   x1="402.203"
   y1="348.838"
   x2="402.203"
   y2="687.838"
   id="line3859" />
				<line
   fill="none"
   stroke="#B7B7B7"
   stroke-miterlimit="10"
   x1="412.203"
   y1="348.838"
   x2="412.203"
   y2="687.838"
   id="line3861" />
				<line
   fill="none"
   stroke="#B7B7B7"
   stroke-miterlimit="10"
   x1="422.203"
   y1="348.838"
   x2="422.203"
   y2="687.838"
   id="line3863" />
				<line
   fill="none"
   stroke="#B7B7B7"
   stroke-miterlimit="10"
   x1="432.203"
   y1="348.838"
   x2="432.203"
   y2="687.838"
   id="line3865" />
				<line
   fill="none"
   stroke="#B7B7B7"
   stroke-miterlimit="10"
   x1="442.203"
   y1="348.838"
   x2="442.203"
   y2="687.838"
   id="line3867" />
				<line
   fill="none"
   stroke="#B7B7B7"
   stroke-miterlimit="10"
   x1="452.203"
   y1="348.838"
   x2="452.203"
   y2="687.838"
   id="line3869" />
				<line
   fill="none"
   stroke="#B7B7B7"
   stroke-miterlimit="10"
   x1="462.203"
   y1="348.838"
   x2="462.203"
   y2="687.838"
   id="line3871" />
				<line
   fill="none"
   stroke="#B7B7B7"
   stroke-miterlimit="10"
   x1="472.203"
   y1="348.838"
   x2="472.203"
   y2="687.838"
   id="line3873" />
				<line
   fill="none"
   stroke="#B7B7B7"
   stroke-miterlimit="10"
   x1="482.203"
   y1="348.838"
   x2="482.203"
   y2="687.838"
   id="line3875" />
				<line
   fill="none"
   stroke="#B7B7B7"
   stroke-miterlimit="10"
   x1="492.203"
   y1="348.838"
   x2="492.203"
   y2="687.838"
   id="line3877" />
				<line
   fill="none"
   stroke="#B7B7B7"
   stroke-miterlimit="10"
   x1="502.203"
   y1="348.838"
   x2="502.203"
   y2="687.838"
   id="line3879" />
				<line
   fill="none"
   stroke="#B7B7B7"
   stroke-miterlimit="10"
   x1="512.203"
   y1="348.838"
   x2="512.203"
   y2="687.838"
   id="line3881" />
				<line
   fill="none"
   stroke="#B7B7B7"
   stroke-miterlimit="10"
   x1="522.203"
   y1="348.838"
   x2="522.203"
   y2="687.838"
   id="line3883" />
				<line
   fill="none"
   stroke="#B7B7B7"
   stroke-miterlimit="10"
   x1="532.203"
   y1="348.838"
   x2="532.203"
   y2="687.838"
   id="line3885" />
				<line
   fill="none"
   stroke="#B7B7B7"
   stroke-miterlimit="10"
   x1="542.203"
   y1="348.838"
   x2="542.203"
   y2="687.838"
   id="line3887" />
				<line
   fill="none"
   stroke="#B7B7B7"
   stroke-miterlimit="10"
   x1="552.203"
   y1="348.838"
   x2="552.203"
   y2="687.838"
   id="line3889" />
				<line
   fill="none"
   stroke="#B7B7B7"
   stroke-miterlimit="10"
   x1="562.203"
   y1="348.838"
   x2="562.203"
   y2="687.838"
   id="line3891" />
				<line
   fill="none"
   stroke="#B7B7B7"
   stroke-miterlimit="10"
   x1="572.203"
   y1="348.838"
   x2="572.203"
   y2="687.838"
   id="line3893" />
				<line
   fill="none"
   stroke="#B7B7B7"
   stroke-miterlimit="10"
   x1="582.203"
   y1="348.838"
   x2="582.203"
   y2="687.838"
   id="line3895" />
				<line
   fill="none"
   stroke="#B7B7B7"
   stroke-miterlimit="10"
   x1="592.203"
   y1="348.838"
   x2="592.203"
   y2="687.838"
   id="line3897" />
				<line
   fill="none"
   stroke="#B7B7B7"
   stroke-miterlimit="10"
   x1="602.203"
   y1="348.838"
   x2="602.203"
   y2="687.838"
   id="line3899" />
				<line
   fill="none"
   stroke="#B7B7B7"
   stroke-miterlimit="10"
   x1="612.203"
   y1="348.838"
   x2="612.203"
   y2="687.838"
   id="line3901" />
				<line
   fill="none"
   stroke="#B7B7B7"
   stroke-miterlimit="10"
   x1="622.203"
   y1="348.838"
   x2="622.203"
   y2="687.838"
   id="line3903" />
			</g>
			
				<rect
   x="103.203"
   y="348.838"
   fill="none"
   stroke="#383838"
   stroke-width="3"
   stroke-miterlimit="10"
   width="530"
   height="338.523"
   id="rect3905" />
		</g>
		<g
   id="g3907">
			<rect
   x="498.397"
   y="561.267"
   opacity="0.3"
   fill="#183049"
   width="119.359"
   height="118.476"
   id="rect3909" />
			<g
   id="g3911">
				<rect
   x="118.557"
   y="384.195"
   opacity="0.4"
   fill="#183049"
   width="110"
   height="268.287"
   id="rect3913" />
				<g
   opacity="0.2"
   id="g3915">
					<rect
   x="195.067"
   y="650.096"
   fill="#183049"
   width="5.344"
   height="9.047"
   id="rect3917" />
					<path
   fill="none"
   stroke="#183049"
   stroke-width="2"
   stroke-miterlimit="10"
   d="M197.49,658.143       c1.5,40.5,87.549-34.975,119-3.523c53.884,53.884,110.104,2.023,191.501,2.023"
   id="path3919" />
				</g>
				<g
   id="g3921">
					<rect
   x="194.368"
   y="648.195"
   fill="#232323"
   width="5.344"
   height="9.047"
   id="rect3923" />
					<path
   fill="none"
   stroke="#232323"
   stroke-width="2"
   stroke-miterlimit="10"
   d="M196.79,656.242       c1.5,40.5,87.549-34.975,119-3.523c53.883,53.884,110.103,2.023,191.5,2.023"
   id="path3925" />
				</g>
				<g
   id="g3927">
					<rect
   x="123.246"
   y="388.195"
   fill="#0D2735"
   width="101"
   height="260"
   id="rect3929" />
					<g
   id="g3931">
						<g
   id="g3933">
							<line
   fill="none"
   stroke="#0F303F"
   stroke-miterlimit="10"
   x1="225.746"
   y1="398.195"
   x2="121.746"
   y2="398.195"
   id="line3935" />
							<line
   fill="none"
   stroke="#0F303F"
   stroke-miterlimit="10"
   x1="225.746"
   y1="408.195"
   x2="121.746"
   y2="408.195"
   id="line3937" />
							<line
   fill="none"
   stroke="#0F303F"
   stroke-miterlimit="10"
   x1="225.746"
   y1="418.195"
   x2="121.746"
   y2="418.195"
   id="line3939" />
							<line
   fill="none"
   stroke="#0F303F"
   stroke-miterlimit="10"
   x1="225.746"
   y1="428.195"
   x2="121.746"
   y2="428.195"
   id="line3941" />
							<line
   fill="none"
   stroke="#0F303F"
   stroke-miterlimit="10"
   x1="225.746"
   y1="438.195"
   x2="121.746"
   y2="438.195"
   id="line3943" />
							<line
   fill="none"
   stroke="#0F303F"
   stroke-miterlimit="10"
   x1="225.746"
   y1="448.195"
   x2="121.746"
   y2="448.195"
   id="line3945" />
							<line
   fill="none"
   stroke="#0F303F"
   stroke-miterlimit="10"
   x1="225.746"
   y1="458.195"
   x2="121.746"
   y2="458.195"
   id="line3947" />
							<line
   fill="none"
   stroke="#0F303F"
   stroke-miterlimit="10"
   x1="225.746"
   y1="468.195"
   x2="121.746"
   y2="468.195"
   id="line3949" />
							<line
   fill="none"
   stroke="#0F303F"
   stroke-miterlimit="10"
   x1="225.746"
   y1="478.195"
   x2="121.746"
   y2="478.195"
   id="line3951" />
							<line
   fill="none"
   stroke="#0F303F"
   stroke-miterlimit="10"
   x1="225.746"
   y1="488.195"
   x2="121.746"
   y2="488.195"
   id="line3953" />
							<line
   fill="none"
   stroke="#0F303F"
   stroke-miterlimit="10"
   x1="225.746"
   y1="498.195"
   x2="121.746"
   y2="498.195"
   id="line3955" />
							<line
   fill="none"
   stroke="#0F303F"
   stroke-miterlimit="10"
   x1="225.746"
   y1="508.195"
   x2="121.746"
   y2="508.195"
   id="line3957" />
							<line
   fill="none"
   stroke="#0F303F"
   stroke-miterlimit="10"
   x1="225.746"
   y1="518.195"
   x2="121.746"
   y2="518.195"
   id="line3959" />
							<line
   fill="none"
   stroke="#0F303F"
   stroke-miterlimit="10"
   x1="225.746"
   y1="528.195"
   x2="121.746"
   y2="528.195"
   id="line3961" />
							<line
   fill="none"
   stroke="#0F303F"
   stroke-miterlimit="10"
   x1="225.746"
   y1="538.195"
   x2="121.746"
   y2="538.195"
   id="line3963" />
							<line
   fill="none"
   stroke="#0F303F"
   stroke-miterlimit="10"
   x1="225.746"
   y1="548.195"
   x2="121.746"
   y2="548.195"
   id="line3965" />
							<line
   fill="none"
   stroke="#0F303F"
   stroke-miterlimit="10"
   x1="225.746"
   y1="558.195"
   x2="121.746"
   y2="558.195"
   id="line3967" />
							<line
   fill="none"
   stroke="#0F303F"
   stroke-miterlimit="10"
   x1="225.746"
   y1="568.195"
   x2="121.746"
   y2="568.195"
   id="line3969" />
							<line
   fill="none"
   stroke="#0F303F"
   stroke-miterlimit="10"
   x1="225.746"
   y1="578.195"
   x2="121.746"
   y2="578.195"
   id="line3971" />
							<line
   fill="none"
   stroke="#0F303F"
   stroke-miterlimit="10"
   x1="225.746"
   y1="588.195"
   x2="121.746"
   y2="588.195"
   id="line3973" />
							<line
   fill="none"
   stroke="#0F303F"
   stroke-miterlimit="10"
   x1="225.746"
   y1="598.195"
   x2="121.746"
   y2="598.195"
   id="line3975" />
							<line
   fill="none"
   stroke="#0F303F"
   stroke-miterlimit="10"
   x1="225.746"
   y1="608.195"
   x2="121.746"
   y2="608.195"
   id="line3977" />
							<line
   fill="none"
   stroke="#0F303F"
   stroke-miterlimit="10"
   x1="225.746"
   y1="618.195"
   x2="121.746"
   y2="618.195"
   id="line3979" />
							<line
   fill="none"
   stroke="#0F303F"
   stroke-miterlimit="10"
   x1="225.746"
   y1="628.195"
   x2="121.746"
   y2="628.195"
   id="line3981" />
							<line
   fill="none"
   stroke="#0F303F"
   stroke-miterlimit="10"
   x1="225.746"
   y1="638.195"
   x2="121.746"
   y2="638.195"
   id="line3983" />
						</g>
						<line
   fill="none"
   stroke="#0F303F"
   stroke-miterlimit="10"
   x1="133.346"
   y1="388.195"
   x2="133.346"
   y2="648.195"
   id="line3985" />
						<line
   fill="none"
   stroke="#0F303F"
   stroke-miterlimit="10"
   x1="143.446"
   y1="388.195"
   x2="143.446"
   y2="648.195"
   id="line3987" />
						<line
   fill="none"
   stroke="#0F303F"
   stroke-miterlimit="10"
   x1="153.546"
   y1="388.195"
   x2="153.546"
   y2="648.195"
   id="line3989" />
						<line
   fill="none"
   stroke="#0F303F"
   stroke-miterlimit="10"
   x1="163.646"
   y1="388.195"
   x2="163.646"
   y2="648.195"
   id="line3991" />
						<line
   fill="none"
   stroke="#0F303F"
   stroke-miterlimit="10"
   x1="173.746"
   y1="388.195"
   x2="173.746"
   y2="648.195"
   id="line3993" />
						<line
   fill="none"
   stroke="#0F303F"
   stroke-miterlimit="10"
   x1="183.846"
   y1="388.195"
   x2="183.846"
   y2="648.195"
   id="line3995" />
						<line
   fill="none"
   stroke="#0F303F"
   stroke-miterlimit="10"
   x1="193.946"
   y1="388.195"
   x2="193.946"
   y2="648.195"
   id="line3997" />
						<line
   fill="none"
   stroke="#0F303F"
   stroke-miterlimit="10"
   x1="204.046"
   y1="388.195"
   x2="204.046"
   y2="648.195"
   id="line3999" />
						<line
   fill="none"
   stroke="#0F303F"
   stroke-miterlimit="10"
   x1="214.146"
   y1="388.195"
   x2="214.146"
   y2="648.195"
   id="line4001" />
					</g>
					
						<rect
   x="123.246"
   y="388.195"
   fill="none"
   stroke="#CCAE00"
   stroke-width="3"
   stroke-miterlimit="10"
   width="101"
   height="260"
   id="rect4003" />
					<g
   id="g4005">
						
							<line
   fill="none"
   stroke="#CCAE00"
   stroke-width="2"
   stroke-miterlimit="10"
   x1="173.746"
   y1="388.195"
   x2="173.746"
   y2="648.195"
   id="line4007" />
						
							<line
   fill="none"
   stroke="#CCAE00"
   stroke-width="2"
   stroke-miterlimit="10"
   x1="225.746"
   y1="518.195"
   x2="121.746"
   y2="518.195"
   id="line4009" />
						
							<line
   fill="#0D2735"
   stroke="#CCAE00"
   stroke-width="2"
   stroke-miterlimit="10"
   x1="225.746"
   y1="453.195"
   x2="121.746"
   y2="453.195"
   id="line4011" />
						
							<line
   fill="none"
   stroke="#CCAE00"
   stroke-width="2"
   stroke-miterlimit="10"
   x1="225.746"
   y1="583.195"
   x2="121.746"
   y2="583.195"
   id="line4013" />
					</g>
					<linearGradient
   id="SVGID_3_"
   gradientUnits="userSpaceOnUse"
   x1="129.5405"
   y1="379.8389"
   x2="154.0406"
   y2="431.8389">
						<stop
   offset="0"
   style="stop-color:#FFFFFF;stop-opacity:0.4"
   id="stop4016" />
						<stop
   offset="1"
   style="stop-color:#FFFFFF;stop-opacity:0"
   id="stop4018" />
					</linearGradient>
					<rect
   x="128.79"
   y="393.195"
   fill="url(#SVGID_3_)"
   width="40"
   height="55"
   id="rect4020" />
					<linearGradient
   id="SVGID_4_"
   gradientUnits="userSpaceOnUse"
   x1="179.04"
   y1="379.8398"
   x2="203.5401"
   y2="431.8398">
						<stop
   offset="0"
   style="stop-color:#FFFFFF;stop-opacity:0.4"
   id="stop4023" />
						<stop
   offset="1"
   style="stop-color:#FFFFFF;stop-opacity:0"
   id="stop4025" />
					</linearGradient>
					<rect
   x="178.29"
   y="393.195"
   fill="url(#SVGID_4_)"
   width="40"
   height="55"
   id="rect4027" />
					<linearGradient
   id="SVGID_5_"
   gradientUnits="userSpaceOnUse"
   x1="129.541"
   y1="443.8408"
   x2="154.0407"
   y2="495.8401">
						<stop
   offset="0"
   style="stop-color:#FFFFFF;stop-opacity:0.4"
   id="stop4030" />
						<stop
   offset="1"
   style="stop-color:#FFFFFF;stop-opacity:0"
   id="stop4032" />
					</linearGradient>
					<rect
   x="128.79"
   y="457.195"
   fill="url(#SVGID_5_)"
   width="40"
   height="55"
   id="rect4034" />
					<linearGradient
   id="SVGID_6_"
   gradientUnits="userSpaceOnUse"
   x1="179.041"
   y1="443.8398"
   x2="203.5407"
   y2="495.8391">
						<stop
   offset="0"
   style="stop-color:#FFFFFF;stop-opacity:0.4"
   id="stop4037" />
						<stop
   offset="1"
   style="stop-color:#FFFFFF;stop-opacity:0"
   id="stop4039" />
					</linearGradient>
					<rect
   x="178.29"
   y="457.195"
   fill="url(#SVGID_6_)"
   width="40"
   height="55"
   id="rect4041" />
					<linearGradient
   id="SVGID_7_"
   gradientUnits="userSpaceOnUse"
   x1="129.5405"
   y1="508.7383"
   x2="154.0406"
   y2="560.7383">
						<stop
   offset="0"
   style="stop-color:#FFFFFF;stop-opacity:0.4"
   id="stop4044" />
						<stop
   offset="1"
   style="stop-color:#FFFFFF;stop-opacity:0"
   id="stop4046" />
					</linearGradient>
					<rect
   x="128.79"
   y="522.094"
   fill="url(#SVGID_7_)"
   width="40"
   height="55"
   id="rect4048" />
					<linearGradient
   id="SVGID_8_"
   gradientUnits="userSpaceOnUse"
   x1="179.0405"
   y1="508.7383"
   x2="203.5406"
   y2="560.7383">
						<stop
   offset="0"
   style="stop-color:#FFFFFF;stop-opacity:0.4"
   id="stop4051" />
						<stop
   offset="1"
   style="stop-color:#FFFFFF;stop-opacity:0"
   id="stop4053" />
					</linearGradient>
					<rect
   x="178.29"
   y="522.094"
   fill="url(#SVGID_8_)"
   width="40"
   height="55"
   id="rect4055" />
					<linearGradient
   id="SVGID_9_"
   gradientUnits="userSpaceOnUse"
   x1="129.541"
   y1="573.6387"
   x2="154.0411"
   y2="625.6387">
						<stop
   offset="0"
   style="stop-color:#FFFFFF;stop-opacity:0.4"
   id="stop4058" />
						<stop
   offset="1"
   style="stop-color:#FFFFFF;stop-opacity:0"
   id="stop4060" />
					</linearGradient>
					<rect
   x="128.79"
   y="586.994"
   fill="url(#SVGID_9_)"
   width="40"
   height="55"
   id="rect4062" />
					<linearGradient
   id="SVGID_10_"
   gradientUnits="userSpaceOnUse"
   x1="179.0405"
   y1="573.6387"
   x2="203.5406"
   y2="625.6387">
						<stop
   offset="0"
   style="stop-color:#FFFFFF;stop-opacity:0.4"
   id="stop4065" />
						<stop
   offset="1"
   style="stop-color:#FFFFFF;stop-opacity:0"
   id="stop4067" />
					</linearGradient>
					<rect
   x="178.29"
   y="586.994"
   fill="url(#SVGID_10_)"
   width="40"
   height="55"
   id="rect4069" />
				</g>
			</g>
			<g
   id="g4071">
				
					<rect
   x="503.203"
   y="564.93"
   fill="#C6B198"
   stroke="#847061"
   stroke-width="3"
   stroke-miterlimit="10"
   width="110"
   height="110"
   id="rect4073" />
				<rect
   x="518.604"
   y="580.329"
   fill="#E5BE98"
   width="79.2"
   height="79.2"
   id="rect4075" />
				<polygon
   fill="#CCA07F"
   points="525.003,585.729 597.804,585.729 597.804,580.329 518.604,580.329 518.604,659.529       525.003,659.529     "
   id="polygon4077" />
				
					<rect
   x="518.604"
   y="580.329"
   fill="none"
   stroke="#826E5F"
   stroke-width="3"
   stroke-miterlimit="10"
   width="79.2"
   height="79.2"
   id="rect4079" />
			</g>
		</g>
	</g>
</g>
</svg>