<?xml version="1.0" encoding="utf-8"?>
<!-- Generator: Adobe Illustrator 26.0.0, SVG Export Plug-In . SVG Version: 6.00 Build 0)  -->
<svg version="1.1"
	 id="Layer_1" xmlns:cc="http://creativecommons.org/ns#" xmlns:dc="http://purl.org/dc/elements/1.1/" xmlns:rdf="http://www.w3.org/1999/02/22-rdf-syntax-ns#"
	 xmlns="http://www.w3.org/2000/svg" xmlns:xlink="http://www.w3.org/1999/xlink" x="0px" y="0px" viewBox="0 0 688 738.6"
	 style="enable-background:new 0 0 688 738.6;" xml:space="preserve">
<style type="text/css">
	.st0{fill:#C6B198;stroke:#705A4A;stroke-width:3;stroke-miterlimit:10;}
	.st1{fill:#BA0000;stroke:#820000;stroke-width:3;stroke-miterlimit:10;}
	.st2{fill:#820000;}
	.st3{opacity:0.2;fill:#183049;enable-background:new    ;}
	.st4{fill:#878787;stroke:#383838;stroke-width:2;stroke-miterlimit:10;}
	.st5{fill:#5B5B5B;}
	.st6{fill:#898989;}
	.st7{fill:none;stroke:#383838;stroke-miterlimit:10;}
	.st8{fill:none;stroke:#383838;stroke-width:2;stroke-miterlimit:10;}
	.st9{fill:none;stroke:#820000;stroke-width:2;stroke-linecap:round;stroke-miterlimit:10;}
	.st10{fill:#C6B198;}
	.st11{fill:#BAA38A;}
	.st12{fill:#988575;}
	.st13{fill:none;stroke:#705A4A;stroke-width:3;stroke-miterlimit:10;}
	.st14{fill:#707070;}
	.st15{fill:#545454;}
	.st16{fill:none;stroke:#383838;stroke-width:3;stroke-miterlimit:10;}
	.st17{fill:#707070;stroke:#383838;stroke-width:3;stroke-miterlimit:10;}
	.st18{fill:url(#SVGID_1_);}
	.st19{opacity:0.3;fill:#183049;enable-background:new    ;}
	.st20{opacity:0.2;fill:none;stroke:#183049;stroke-width:2;stroke-miterlimit:10;enable-background:new    ;}
	.st21{fill:#232323;}
	.st22{fill:none;stroke:#232323;stroke-width:2;stroke-miterlimit:10;}
	.st23{fill:#0D2735;}
	.st24{fill:none;stroke:#0F303F;stroke-miterlimit:10;}
	.st25{fill:url(#SVGID_00000171719522107680921250000001684180785697445524_);}
	.st26{fill:url(#SVGID_00000054247999265254137120000002798419057631739569_);}
	.st27{fill:url(#SVGID_00000120555533451227450720000006868326530100654981_);}
	.st28{fill:url(#SVGID_00000061469848409590989590000016403286254815034286_);}
	.st29{fill:url(#SVGID_00000163064185786220810070000015934983060790873769_);}
	.st30{fill:url(#SVGID_00000007397508546562853010000017578303078639970751_);}
	.st31{fill:url(#SVGID_00000146496746732753501290000016468307235839030974_);}
	.st32{fill:url(#SVGID_00000059282214135552746630000001393310476234907312_);}
	.st33{fill:#C6B198;stroke:#847061;stroke-width:3;stroke-miterlimit:10;}
	.st34{fill:#E5BE98;}
	.st35{fill:#CCA07F;}
	.st36{fill:none;stroke:#826E5F;stroke-width:3;stroke-miterlimit:10;}
	.st37{fill:none;stroke:#3C3C3C;stroke-miterlimit:10;}
	.st38{fill:none;stroke:#9EAEB8;stroke-width:4;}
	.st39{fill:none;stroke:#CCAE00;stroke-width:2;stroke-miterlimit:10;}
</style>
<path class="st0" d="M527.8,166.8c0,8-6.5,14.4-14.4,14.4H218.5c-8,0-14.4-6.5-14.4-14.4c0-8,6.5-14.4,14.4-14.4h294.9
	C521.3,152.4,527.8,158.8,527.8,166.8L527.8,166.8z"/>
<rect x="5.8" y="570.2" class="st1" width="61" height="128"/>
<polygon class="st2" points="66.8,698.2 57.3,698.2 45.3,570.2 66.8,570.2 "/>
<path class="st3" d="M67.8,584.6H44.1c-2.3-1.8-5.3-2.9-8.4-2.9c-7.7,0-13.9,6.2-13.9,13.9s6.2,13.9,13.9,13.9
	c3.2,0,6.1-1.1,8.4-2.9h23.7L67.8,584.6L67.8,584.6z"/>
<path class="st3" d="M67.8,617.1H44.1c-2.3-1.8-5.3-2.9-8.4-2.9c-7.7,0-13.9,6.2-13.9,13.9S28,642,35.7,642c3.2,0,6.1-1.1,8.4-2.9
	h23.7L67.8,617.1L67.8,617.1z"/>
<circle class="st4" cx="35.7" cy="592.6" r="12.9"/>
<circle class="st4" cx="35.7" cy="624.9" r="12.9"/>
<path class="st5" d="M66.8,634.9H36.3c-5.5,0-10-4.5-10-10s4.5-10,10-10h30.5V634.9z M66.8,602.6H36.3c-5.5,0-10-4.5-10-10
	s4.5-10,10-10h30.5V602.6z"/>
<path class="st6" d="M60.8,614.9H36.3c-5.5,0-10,4.5-10,10h34.5V614.9z M60.8,582.6H36.3c-5.5,0-10,4.5-10,10h34.5V582.6z"/>
<g>
	<path class="st7" d="M56.5,634.9v-20 M49.5,634.9c-1.7,0-3-4.5-3-10s1.3-10,3-10 M44.3,634.9c-3.3,0-6-4.5-6-10s2.7-10,6-10
		 M40.3,634.9c-5.5,0-10-4.5-10-10s4.5-10,10-10 M56.5,602.6v-20 M49.5,602.6c-1.7,0-3-4.5-3-10s1.3-10,3-10 M44.3,602.6
		c-3.3,0-6-4.5-6-10s2.7-10,6-10 M40.3,602.6c-5.5,0-10-4.5-10-10s4.5-10,10-10"/>
	<path class="st8" d="M66.8,634.9H36.3c-5.5,0-10-4.5-10-10s4.5-10,10-10h30.5V634.9z M66.8,602.6H36.3c-5.5,0-10-4.5-10-10
		s4.5-10,10-10h30.5V602.6z"/>
	<path class="st9" d="M17,689.7h24.2 M17,685.6h24.2 M17,681.4h24.2 M17,664.6h24.2 M17,668.8h24.2 M17,673h24.2 M17,677.2h24.2"/>
</g>
<rect x="211" y="152.3" class="st10" width="311.2" height="148"/>
<rect x="225.9" y="165.7" class="st11" width="281.3" height="134.6"/>
<path class="st12" d="M507.2,165.7H225.9v134.6h5V170.7h276.3V165.7z"/>
<path class="st12" d="M226.4,291.1H211v9.2h311.2v-9.2H508l-1.3,2H227L226.4,291.1z"/>
<g>
	<path class="st13" d="M225.9,165.7h281.3v134.6H225.9V165.7z"/>
	<rect x="211" y="152.3" class="st13" width="311.2" height="148"/>
	<rect x="101.6" y="300.2" class="st14" width="530" height="18.3"/>
</g>
<rect x="101.6" y="309.4" class="st15" width="530" height="9.1"/>
<rect x="101.6" y="300.2" class="st16" width="530" height="18.3"/>
<rect x="66.6" y="317.7" class="st17" width="600" height="400"/>
<linearGradient id="SVGID_1_" gradientUnits="userSpaceOnUse" x1="96.07" y1="414.5071" x2="658.068" y2="14.5071" gradientTransform="matrix(1 0 0 -1 0 740)">
	<stop  offset="0" style="stop-color:#919191"/>
	<stop  offset="1" style="stop-color:#919191;stop-opacity:0"/>
</linearGradient>
<path class="st18" d="M647.6,702.7h-572V326.2h572V702.7z M83.6,694.7h556V334.2h-556V694.7z"/>
<rect x="103.2" y="348.8" class="st16" width="530" height="338.5"/>
<rect x="498.4" y="561.3" class="st19" width="119.4" height="118.5"/>
<rect x="195.1" y="650.1" class="st3" width="5.3" height="9"/>
<path class="st20" d="M197.5,658.1c1.5,40.5,87.5-35,119-3.5c53.9,53.9,110.1,2,191.5,2"/>
<rect x="194.4" y="648.2" class="st21" width="5.3" height="9"/>
<path class="st22" d="M196.8,656.2c1.5,40.5,87.5-35,119-3.5c53.9,53.9,110.1,2,191.5,2"/>
<rect x="123.2" y="388.2" class="st23" width="101" height="260"/>
<line class="st24" x1="225.8" y1="518.2" x2="121.8" y2="518.2"/>
<line class="st24" x1="173.8" y1="388.2" x2="173.8" y2="648.2"/>
<linearGradient id="SVGID_00000109012920279042644500000015228385074231932562_" gradientUnits="userSpaceOnUse" x1="129.5389" y1="360.1595" x2="154.0389" y2="308.1595" gradientTransform="matrix(1 0 0 -1 0 740)">
	<stop  offset="0" style="stop-color:#728C9A"/>
	<stop  offset="1" style="stop-color:#0D2735"/>
</linearGradient>
<rect x="128.8" y="393.2" style="fill:url(#SVGID_00000109012920279042644500000015228385074231932562_);" width="40" height="55"/>
<linearGradient id="SVGID_00000043437062122952382420000011929455647566270892_" gradientUnits="userSpaceOnUse" x1="179.0389" y1="360.1595" x2="203.5389" y2="308.1595" gradientTransform="matrix(1 0 0 -1 0 740)">
	<stop  offset="0" style="stop-color:#728C9A"/>
	<stop  offset="1" style="stop-color:#0D2735"/>
</linearGradient>
<rect x="178.3" y="393.2" style="fill:url(#SVGID_00000043437062122952382420000011929455647566270892_);" width="40" height="55"/>
<linearGradient id="SVGID_00000163759970085351773280000015559391676757340584_" gradientUnits="userSpaceOnUse" x1="129.5389" y1="296.1595" x2="154.0389" y2="244.1595" gradientTransform="matrix(1 0 0 -1 0 740)">
	<stop  offset="0" style="stop-color:#728C9A"/>
	<stop  offset="1" style="stop-color:#0D2735"/>
</linearGradient>
<rect x="128.8" y="457.2" style="fill:url(#SVGID_00000163759970085351773280000015559391676757340584_);" width="40" height="55"/>
<linearGradient id="SVGID_00000071536400949483246280000017388336968347433876_" gradientUnits="userSpaceOnUse" x1="179.0389" y1="296.1595" x2="203.5389" y2="244.1595" gradientTransform="matrix(1 0 0 -1 0 740)">
	<stop  offset="0" style="stop-color:#728C9A"/>
	<stop  offset="1" style="stop-color:#0D2735"/>
</linearGradient>
<rect x="178.3" y="457.2" style="fill:url(#SVGID_00000071536400949483246280000017388336968347433876_);" width="40" height="55"/>
<linearGradient id="SVGID_00000080902777305907206780000008859940283155364770_" gradientUnits="userSpaceOnUse" x1="129.5427" y1="231.2613" x2="154.0427" y2="179.2613" gradientTransform="matrix(1 0 0 -1 0 740)">
	<stop  offset="0" style="stop-color:#728C9A"/>
	<stop  offset="1" style="stop-color:#0D2735"/>
</linearGradient>
<rect x="128.8" y="522.1" style="fill:url(#SVGID_00000080902777305907206780000008859940283155364770_);" width="40" height="55"/>
<linearGradient id="SVGID_00000151544816208415704510000014709429980318690475_" gradientUnits="userSpaceOnUse" x1="179.0427" y1="231.2613" x2="203.5427" y2="179.2613" gradientTransform="matrix(1 0 0 -1 0 740)">
	<stop  offset="0" style="stop-color:#728C9A"/>
	<stop  offset="1" style="stop-color:#0D2735"/>
</linearGradient>
<rect x="178.3" y="522.1" style="fill:url(#SVGID_00000151544816208415704510000014709429980318690475_);" width="40" height="55"/>
<linearGradient id="SVGID_00000026122879663106691370000015595689297128526001_" gradientUnits="userSpaceOnUse" x1="129.5428" y1="166.3613" x2="154.0428" y2="114.3613" gradientTransform="matrix(1 0 0 -1 0 740)">
	<stop  offset="0" style="stop-color:#728C9A"/>
	<stop  offset="1" style="stop-color:#0D2735"/>
</linearGradient>
<rect x="128.8" y="587" style="fill:url(#SVGID_00000026122879663106691370000015595689297128526001_);" width="40" height="55"/>
<linearGradient id="SVGID_00000073721171719763038990000015922051324058869684_" gradientUnits="userSpaceOnUse" x1="179.0428" y1="166.3613" x2="203.5428" y2="114.3613" gradientTransform="matrix(1 0 0 -1 0 740)">
	<stop  offset="0" style="stop-color:#728C9A"/>
	<stop  offset="1" style="stop-color:#0D2735"/>
</linearGradient>
<rect x="178.3" y="587" style="fill:url(#SVGID_00000073721171719763038990000015922051324058869684_);" width="40" height="55"/>
<rect x="503.2" y="564.9" class="st33" width="110" height="110"/>
<rect x="518.6" y="580.3" class="st34" width="79.2" height="79.2"/>
<polygon class="st35" points="518.6,659.5 525,659.5 525,585.7 597.8,585.7 597.8,580.3 518.6,580.3 "/>
<g>
	<g>
		<rect x="518.6" y="580.3" class="st36" width="79.2" height="79.2"/>
		<path class="st37" d="M232.2,348.8v339 M622.2,348.8v339 M612.2,348.8v339 M602.2,348.8v339 M592.2,348.8v339 M582.2,348.8v339
			 M572.2,348.8v339 M562.2,348.8v339 M552.2,348.8v339 M542.2,348.8v339 M532.2,348.8v339 M522.2,348.8v339 M512.2,348.8v339
			 M502.2,348.8v339 M492.2,348.8v339 M482.2,348.8v339 M472.2,348.8v339 M462.2,348.8v339 M452.2,348.8v339 M442.2,348.8v339
			 M432.2,348.8v339 M422.2,348.8v339 M412.2,348.8v339 M402.2,348.8v339 M392.2,348.8v339 M382.2,348.8v339 M372.2,348.8v339
			 M362.2,348.8v339 M352.2,348.8v339 M342.2,348.8v339 M332.2,348.8v339 M322.2,348.8v339 M312.2,348.8v339 M302.2,348.8v339
			 M292.2,348.8v339 M282.2,348.8v339 M272.2,348.8v339 M262.2,348.8v339 M252.2,348.8v339 M242.2,348.8v339 M222.2,348.8v339
			 M212.2,348.8v339 M202.2,348.8v339 M192.2,348.8v339 M182.2,348.8v339 M172.2,348.8v339 M162.2,348.8v339 M152.2,348.8v339
			 M142.2,348.8v339 M132.2,348.8v339 M122.2,348.8v339 M112.2,348.8v339"/>
		<path class="st24" d="M214.1,388.2v260 M204,388.2v260 M193.9,388.2v260 M183.8,388.2v260 M163.6,388.2v260 M153.5,388.2v260
			 M143.4,388.2v260 M133.3,388.2v260 M225.7,638.2h-104 M225.7,628.2h-104 M225.7,618.2h-104 M225.7,608.2h-104 M225.7,598.2h-104
			 M225.7,588.2h-104 M225.7,578.2h-104 M225.7,568.2h-104 M225.7,558.2h-104 M225.7,548.2h-104 M225.7,538.2h-104 M225.7,528.2
			h-104 M225.7,508.2h-104 M225.7,498.2h-104 M225.7,488.2h-104 M225.7,478.2h-104 M225.7,468.2h-104 M225.7,458.2h-104
			 M225.7,448.2h-104 M225.7,438.2h-104 M225.7,428.2h-104 M225.7,418.2h-104 M225.7,408.2h-104 M225.7,398.2h-104"/>
	</g>
	<path class="st38" d="M120.6,385.7h106.3v265.2H120.7L120.6,385.7z"/>
	<path class="st39" d="M224.2,583.2H123.3 M224.2,453.2H123.2 M224.3,518.2H123.1 M173.8,388.2v260 M123.3,388.2h101v260h-101V388.2
		z"/>
</g>
</svg>
