<?xml version="1.0" encoding="UTF-8" standalone="no"?>
<!-- Created with Inkscape (http://www.inkscape.org/) -->

<svg
   xmlns:dc="http://purl.org/dc/elements/1.1/"
   xmlns:cc="http://creativecommons.org/ns#"
   xmlns:rdf="http://www.w3.org/1999/02/22-rdf-syntax-ns#"
   xmlns:svg="http://www.w3.org/2000/svg"
   xmlns="http://www.w3.org/2000/svg"
   xmlns:inkscape="http://www.inkscape.org/namespaces/inkscape"
   version="1.1"
   width="295.81"
   height="195.35249"
   id="svg2"
   xml:space="preserve"><metadata
     id="metadata8"><rdf:RDF><cc:Work
         rdf:about=""><dc:format>image/svg+xml</dc:format><dc:type
           rdf:resource="http://purl.org/dc/dcmitype/StillImage" /></cc:Work></rdf:RDF></metadata><defs
     id="defs6"><clipPath
       id="clipPath16"><path
         d="M 106.815,156.281 C 97.024,156.245 86.762,154.945 75.76,151.52 l 0,0 C 32.748,138.128 0,117.601 0,75.76 l 0,0 C 0,33.919 33.919,0 75.76,0 l 0,0 c 52.838,0 76.168,42.718 110.982,46.143 l 0,0 c 33.366,3.284 49.762,33.437 49.906,48.027 l 0,0 0,0.384 c -0.005,0.494 -0.029,0.968 -0.073,1.422 l 0,0 c 0,27.521 -22.311,49.833 -49.833,49.833 l 0,0 c -26.684,0 -50.941,10.366 -79.058,10.472 l 0,0 -0.869,0 z"
         inkscape:connector-curvature="0"
         id="path18" /></clipPath><clipPath
       id="clipPath24"><path
         d="m -32768,32767 65535,0 0,-65535 -65535,0 0,65535 z"
         inkscape:connector-curvature="0"
         id="path26" /></clipPath><radialGradient
       cx="0"
       cy="0"
       r="1"
       fx="0"
       fy="0"
       id="radialGradient28"
       gradientUnits="userSpaceOnUse"
       gradientTransform="matrix(114.53595,0,0,-114.53595,118.32471,78.140625)"
       spreadMethod="pad"><stop
         id="stop30"
         style="stop-color:#ffffff;stop-opacity:1"
         offset="0" /><stop
         id="stop32"
         style="stop-color:#ffffff;stop-opacity:0"
         offset="1" /></radialGradient><mask
       id="mask34"><g
         id="g36"><g
           clip-path="url(#clipPath24)"
           id="g38"><g
             id="g40"><g
               id="g42"><path
                 d="m -32768,32767 65535,0 0,-65535 -65535,0 0,65535 z"
                 inkscape:connector-curvature="0"
                 id="path44"
                 style="fill:url(#radialGradient28);stroke:none" /></g></g></g></g></mask><radialGradient
       cx="0"
       cy="0"
       r="1"
       fx="0"
       fy="0"
       id="radialGradient50"
       gradientUnits="userSpaceOnUse"
       gradientTransform="matrix(114.53595,0,0,-114.53595,118.32471,78.140625)"
       spreadMethod="pad"><stop
         id="stop52"
         style="stop-color:#709922;stop-opacity:1"
         offset="0" /><stop
         id="stop54"
         style="stop-color:#709922;stop-opacity:1"
         offset="1" /></radialGradient><clipPath
       id="clipPath62"><path
         d="M 78.674,146.496 C 38.607,134.022 8.102,114.9 8.102,75.924 l 0,0 C 8.102,36.948 39.698,5.35 78.674,5.35 l 0,0 c 49.221,0 70.954,39.794 103.383,42.984 l 0,0 c 32.432,3.191 47.651,33.63 46.421,46.421 l 0,0 c 0,25.638 -20.782,46.421 -46.421,46.421 l 0,0 c -24.984,0 -47.686,9.755 -74.049,9.756 l 0,0 c -9.243,0.001 -18.933,-1.198 -29.334,-4.436"
         inkscape:connector-curvature="0"
         id="path64" /></clipPath><linearGradient
       x1="0"
       y1="0"
       x2="1"
       y2="0"
       id="linearGradient70"
       gradientUnits="userSpaceOnUse"
       gradientTransform="matrix(49.884952,-114.44175,-114.44175,-49.884952,98.023926,129.30762)"
       spreadMethod="pad"><stop
         id="stop72"
         style="stop-color:#79bae2;stop-opacity:1"
         offset="0" /><stop
         id="stop74"
         style="stop-color:#428de2;stop-opacity:1"
         offset="1" /></linearGradient><clipPath
       id="clipPath82"><path
         d="m 0,156.282 236.648,0 L 236.648,0 0,0 0,156.282 z"
         inkscape:connector-curvature="0"
         id="path84" /></clipPath><clipPath
       id="clipPath94"><path
         d="m 14.2148,147.867 209.2142,0 0,-137.8475 -209.2142,0 0,137.8475 z"
         inkscape:connector-curvature="0"
         id="path96" /></clipPath><clipPath
       id="clipPath110"><path
         d="m 17.3232,145.315 202.0028,0 0,-131.2427 -202.0028,0 0,131.2427 z"
         inkscape:connector-curvature="0"
         id="path112" /></clipPath><clipPath
       id="clipPath146"><path
         d="m 22.1533,107.02 47.5557,0 0,-47.5561 -47.5557,0 0,47.5561 z"
         inkscape:connector-curvature="0"
         id="path148" /></clipPath><clipPath
       id="clipPath174"><path
         d="m 146.829,110.391 33.588,0 0,-33.5892 -33.588,0 0,33.5892 z"
         inkscape:connector-curvature="0"
         id="path176" /></clipPath><clipPath
       id="clipPath198"><path
         d="m 170.757,115.242 4.027,0 0,-3.589 -4.027,0 0,3.589 z"
         inkscape:connector-curvature="0"
         id="path200" /></clipPath><clipPath
       id="clipPath214"><path
         d="m 149.29,115.616 26.502,0 0,-39.0926 -26.502,0 0,39.0926 z"
         inkscape:connector-curvature="0"
         id="path216" /></clipPath><linearGradient
       x1="0"
       y1="0"
       x2="1"
       y2="0"
       id="linearGradient238"
       gradientUnits="userSpaceOnUse"
       gradientTransform="matrix(18.416735,15.666223,15.666223,-18.416735,157.31689,91.155762)"
       spreadMethod="pad"><stop
         id="stop240"
         style="stop-color:#ffff00;stop-opacity:1"
         offset="0" /><stop
         id="stop242"
         style="stop-color:#ffa90b;stop-opacity:1"
         offset="1" /></linearGradient><clipPath
       id="clipPath250"><path
         d="m 0,156.282 236.648,0 L 236.648,0 0,0 0,156.282 z"
         inkscape:connector-curvature="0"
         id="path252" /></clipPath><clipPath
       id="clipPath262"><path
         d="m 154.095,110.546 19.831,0 0,-25.7169 -19.831,0 0,25.7169 z"
         inkscape:connector-curvature="0"
         id="path264" /></clipPath><linearGradient
       x1="0"
       y1="0"
       x2="1"
       y2="0"
       id="linearGradient286"
       gradientUnits="userSpaceOnUse"
       gradientTransform="matrix(-4.6865706,3.3049462,3.3049462,4.6865706,157.48682,99.557617)"
       spreadMethod="pad"><stop
         id="stop288"
         style="stop-color:#ffff00;stop-opacity:1"
         offset="0" /><stop
         id="stop290"
         style="stop-color:#ffa90b;stop-opacity:1"
         offset="1" /></linearGradient><clipPath
       id="clipPath298"><path
         d="m 0,156.282 236.648,0 L 236.648,0 0,0 0,156.282 z"
         inkscape:connector-curvature="0"
         id="path300" /></clipPath><linearGradient
       x1="0"
       y1="0"
       x2="1"
       y2="0"
       id="linearGradient318"
       gradientUnits="userSpaceOnUse"
       gradientTransform="matrix(8.9436226,-2.0666723,-2.0666723,-8.9436226,167.23975,92.486328)"
       spreadMethod="pad"><stop
         id="stop320"
         style="stop-color:#ffff00;stop-opacity:1"
         offset="0" /><stop
         id="stop322"
         style="stop-color:#ffa90b;stop-opacity:1"
         offset="1" /></linearGradient><clipPath
       id="clipPath330"><path
         d="m 0,156.282 236.648,0 L 236.648,0 0,0 0,156.282 z"
         inkscape:connector-curvature="0"
         id="path332" /></clipPath><radialGradient
       cx="0"
       cy="0"
       r="1"
       fx="0"
       fy="0"
       id="radialGradient350"
       gradientUnits="userSpaceOnUse"
       gradientTransform="matrix(6.0916004,0,0,-6.0916004,168.66064,105.68262)"
       spreadMethod="pad"><stop
         id="stop352"
         style="stop-color:#ffff00;stop-opacity:1"
         offset="0" /><stop
         id="stop354"
         style="stop-color:#ffa90b;stop-opacity:1"
         offset="1" /></radialGradient><clipPath
       id="clipPath362"><path
         d="m 0,156.282 236.648,0 L 236.648,0 0,0 0,156.282 z"
         inkscape:connector-curvature="0"
         id="path364" /></clipPath><clipPath
       id="clipPath374"><path
         d="m 165.868,109.824 1.841,0 0,-1.841 -1.841,0 0,1.841 z"
         inkscape:connector-curvature="0"
         id="path376" /></clipPath><clipPath
       id="clipPath398"><path
         d="m 171.488,106.603 1.841,0 0,-1.84 -1.841,0 0,1.84 z"
         inkscape:connector-curvature="0"
         id="path400" /></clipPath><clipPath
       id="clipPath426"><path
         d="m 169.824,114.009 3.477,0 0,-6.067 -3.477,0 0,6.067 z"
         inkscape:connector-curvature="0"
         id="path428" /></clipPath></defs><g
     transform="matrix(1.25,0,0,-1.25,0,195.3525)"
     id="g10"><g
       id="g12"><g
         clip-path="url(#clipPath16)"
         id="g14"><g
           id="g20"><g
             id="g22" /><g
             mask="url(#mask34)"
             id="g46"><g
               id="g48"><path
                 d="M 106.815,156.281 C 97.024,156.245 86.762,154.945 75.76,151.52 l 0,0 C 32.748,138.128 0,117.601 0,75.76 l 0,0 C 0,33.919 33.919,0 75.76,0 l 0,0 c 52.838,0 76.168,42.718 110.982,46.143 l 0,0 c 33.366,3.284 49.762,33.437 49.906,48.027 l 0,0 0,0.384 c -0.005,0.494 -0.029,0.968 -0.073,1.422 l 0,0 c 0,27.521 -22.311,49.833 -49.833,49.833 l 0,0 c -26.684,0 -50.941,10.366 -79.058,10.472 l 0,0 -0.869,0 z"
                 inkscape:connector-curvature="0"
                 id="path56"
                 style="fill:url(#radialGradient50);stroke:none" /></g></g></g></g></g><g
       id="g58"><g
         clip-path="url(#clipPath62)"
         id="g60"><g
           id="g66"><g
             id="g68"><path
               d="M 78.674,146.496 C 38.607,134.022 8.102,114.9 8.102,75.924 l 0,0 C 8.102,36.948 39.698,5.35 78.674,5.35 l 0,0 c 49.221,0 70.954,39.794 103.383,42.984 l 0,0 c 32.432,3.191 47.651,33.63 46.421,46.421 l 0,0 c 0,25.638 -20.782,46.421 -46.421,46.421 l 0,0 c -24.984,0 -47.686,9.755 -74.049,9.756 l 0,0 c -9.243,0.001 -18.933,-1.198 -29.334,-4.436"
               inkscape:connector-curvature="0"
               id="path76"
               style="fill:url(#linearGradient70);stroke:none" /></g></g></g></g><g
       id="g78"><g
         clip-path="url(#clipPath82)"
         id="g80"><g
           transform="translate(182.0571,141.1758)"
           id="g86"><path
             d="m 0,0 c -33.743,0 -63.316,17.795 -103.383,5.32 -40.067,-12.474 -70.573,-31.595 -70.573,-70.572 0,-38.977 31.597,-70.573 70.573,-70.573 49.221,0 70.953,39.793 103.383,42.983 32.432,3.192 47.65,33.63 46.421,46.421 C 46.421,-20.783 25.639,0 0,0 z"
             inkscape:connector-curvature="0"
             id="path88"
             style="fill:none;stroke:#3a8cb5;stroke-width:3;stroke-linecap:butt;stroke-linejoin:miter;stroke-miterlimit:10;stroke-opacity:1;stroke-dasharray:none" /></g><g
           id="g90"><g
             id="g92" /><g
             id="g98"><g
               clip-path="url(#clipPath94)"
               id="g100"
               style="opacity:0.5"><g
                 transform="translate(178.2329,138.1953)"
                 id="g102"><path
                   d="m 0,0 c -31.719,0 -59.517,16.727 -97.18,5.001 -37.663,-11.727 -66.338,-29.7 -66.338,-66.338 0,-36.639 29.701,-66.339 66.338,-66.339 46.268,0 66.696,37.405 97.18,40.405 30.485,3 45.791,31.612 44.636,43.635 C 44.636,-19.537 24.1,0 0,0 z"
                   inkscape:connector-curvature="0"
                   id="path104"
                   style="fill:none;stroke:#a7d4ea;stroke-width:1;stroke-linecap:butt;stroke-linejoin:miter;stroke-miterlimit:10;stroke-opacity:1;stroke-dasharray:none" /></g></g></g></g><g
           id="g106"><g
             id="g108" /><g
             id="g114"><g
               clip-path="url(#clipPath110)"
               id="g116"
               style="opacity:0.19999701"><g
                 transform="translate(176.436,135.9199)"
                 id="g118"><path
                   d="m 0,0 c -30.768,0 -57.731,16.225 -94.265,4.851 -36.533,-11.374 -64.348,-26.311 -64.348,-61.85 0,-35.539 28.81,-64.349 64.348,-64.349 44.88,0 64.695,36.284 94.265,39.193 29.57,2.91 43.447,30.664 42.326,42.326 C 42.326,-16.453 23.377,0 0,0 z"
                   inkscape:connector-curvature="0"
                   id="path120"
                   style="fill:none;stroke:#a7d4ea;stroke-width:1;stroke-linecap:butt;stroke-linejoin:miter;stroke-miterlimit:10;stroke-opacity:1;stroke-dasharray:none" /></g></g></g></g><g
           transform="translate(57.7354,52.874)"
           id="g122"><path
             d="m 0,0 c -4.255,-2.293 -6.352,-7.028 -5.49,-11.536 4.08,0.589 9.603,1.478 9.603,1.478 l -6.289,-7.418 c 3.296,-3.022 8.268,-3.788 12.426,-1.546 5.253,2.83 7.217,9.382 4.387,14.635 C 11.806,0.866 5.253,2.83 0,0"
             inkscape:connector-curvature="0"
             id="path124"
             style="fill:#76b82a;fill-opacity:1;fill-rule:nonzero;stroke:none" /></g><g
           transform="translate(57.7354,52.874)"
           id="g126"><path
             d="m 0,0 c -4.255,-2.293 -6.352,-7.028 -5.49,-11.536 4.08,0.589 9.603,1.478 9.603,1.478 l -6.289,-7.418 c 3.296,-3.022 8.268,-3.788 12.426,-1.546 5.253,2.83 7.217,9.382 4.387,14.635 C 11.806,0.866 5.253,2.83 0,0 z"
             inkscape:connector-curvature="0"
             id="path128"
             style="fill:none;stroke:#009641;stroke-width:3;stroke-linecap:butt;stroke-linejoin:miter;stroke-miterlimit:10;stroke-opacity:1;stroke-dasharray:none" /></g><g
           transform="translate(95.7925,59.8633)"
           id="g130"><path
             d="M 0,0 C 4.72,-1.039 9.399,1.18 11.688,5.158 8.212,7.375 3.447,10.305 3.447,10.305 l 9.606,1.516 C 12.528,16.263 9.261,20.087 4.648,21.103 -1.179,22.387 -6.944,18.703 -8.228,12.876 -9.511,7.048 -5.827,1.284 0,0"
             inkscape:connector-curvature="0"
             id="path132"
             style="fill:#76b82a;fill-opacity:1;fill-rule:nonzero;stroke:none" /></g><g
           transform="translate(95.7925,59.8633)"
           id="g134"><path
             d="M 0,0 C 4.72,-1.039 9.399,1.18 11.688,5.158 8.212,7.375 3.447,10.305 3.447,10.305 l 9.606,1.516 C 12.528,16.263 9.261,20.087 4.648,21.103 -1.179,22.387 -6.944,18.703 -8.228,12.876 -9.511,7.048 -5.827,1.284 0,0 z"
             inkscape:connector-curvature="0"
             id="path136"
             style="fill:none;stroke:#009641;stroke-width:3;stroke-linecap:butt;stroke-linejoin:miter;stroke-miterlimit:10;stroke-opacity:1;stroke-dasharray:none" /></g><g
           transform="translate(64.2871,84.5498)"
           id="g138"><path
             d="m 0,0 c 0,-10.197 -8.267,-18.465 -18.465,-18.465 -10.199,0 -18.466,8.268 -18.466,18.465 0,10.199 8.267,18.466 18.466,18.466 C -8.267,18.466 0,10.199 0,0 z"
             inkscape:connector-curvature="0"
             id="path140"
             style="fill:none;stroke:#a7d4ea;stroke-width:1;stroke-linecap:butt;stroke-linejoin:miter;stroke-miterlimit:10;stroke-opacity:1;stroke-dasharray:none" /></g><g
           id="g142"><g
             id="g144" /><g
             id="g150"><g
               clip-path="url(#clipPath146)"
               id="g152"
               style="opacity:0.39999402"><g
                 transform="translate(69.209,83.2412)"
                 id="g154"><path
                   d="m 0,0 c 0,-12.855 -10.422,-23.277 -23.278,-23.277 -12.856,0 -23.278,10.422 -23.278,23.277 0,12.857 10.422,23.278 23.278,23.278 C -10.422,23.278 0,12.857 0,0 z"
                   inkscape:connector-curvature="0"
                   id="path156"
                   style="fill:none;stroke:#a7d4ea;stroke-width:1;stroke-linecap:butt;stroke-linejoin:miter;stroke-miterlimit:10;stroke-opacity:1;stroke-dasharray:none" /></g></g></g></g><g
           transform="translate(47.0454,96.4521)"
           id="g158"><path
             d="m 0,0 c -4.651,1.313 -9.452,-0.629 -11.97,-4.466 3.34,-2.415 5.365,-5.017 5.365,-5.017 l -7.118,-1.554 c 0.264,-4.465 3.302,-8.474 7.848,-9.758 5.742,-1.622 11.712,1.718 13.335,7.46 C 9.082,-7.593 5.742,-1.623 0,0"
             inkscape:connector-curvature="0"
             id="path160"
             style="fill:#76b82a;fill-opacity:1;fill-rule:nonzero;stroke:none" /></g><g
           transform="translate(47.0454,96.4521)"
           id="g162"><path
             d="m 0,0 c -4.651,1.313 -9.452,-0.629 -11.97,-4.466 3.34,-2.415 5.365,-5.017 5.365,-5.017 l -7.118,-1.554 c 0.264,-4.465 3.302,-8.474 7.848,-9.758 5.742,-1.622 11.712,1.718 13.335,7.46 C 9.082,-7.593 5.742,-1.623 0,0 z"
             inkscape:connector-curvature="0"
             id="path164"
             style="fill:none;stroke:#009641;stroke-width:3;stroke-linecap:butt;stroke-linejoin:miter;stroke-miterlimit:10;stroke-opacity:1;stroke-dasharray:none" /></g><g
           transform="translate(176.4722,94.5117)"
           id="g166"><path
             d="m 0,0 c 0,-7.138 -5.786,-12.925 -12.925,-12.925 -7.139,0 -12.926,5.787 -12.926,12.925 0,7.14 5.787,12.927 12.926,12.927 C -5.786,12.927 0,7.14 0,0 z"
             inkscape:connector-curvature="0"
             id="path168"
             style="fill:none;stroke:#a7d4ea;stroke-width:1;stroke-linecap:butt;stroke-linejoin:miter;stroke-miterlimit:10;stroke-opacity:1;stroke-dasharray:none" /></g><g
           id="g170"><g
             id="g172" /><g
             id="g178"><g
               clip-path="url(#clipPath174)"
               id="g180"
               style="opacity:0.39999402"><g
                 transform="translate(179.9175,93.5957)"
                 id="g182"><path
                   d="m 0,0 c 0,-8.999 -7.295,-16.294 -16.294,-16.294 -9,0 -16.295,7.295 -16.295,16.294 0,9.001 7.295,16.295 16.295,16.295 C -7.295,16.295 0,9.001 0,0 z"
                   inkscape:connector-curvature="0"
                   id="path184"
                   style="fill:none;stroke:#a7d4ea;stroke-width:1;stroke-linecap:butt;stroke-linejoin:miter;stroke-miterlimit:10;stroke-opacity:1;stroke-dasharray:none" /></g></g></g></g><g
           transform="translate(170.6665,110.6572)"
           id="g186"><path
             d="m 0,0 c 0.03,-0.082 -0.073,-0.194 -0.229,-0.252 -0.157,-0.059 -0.308,-0.039 -0.338,0.043 -0.031,0.08 0.072,0.193 0.228,0.251 C -0.182,0.1 -0.03,0.081 0,0"
             inkscape:connector-curvature="0"
             id="path188"
             style="fill:#964c04;fill-opacity:1;fill-rule:nonzero;stroke:none" /></g><g
           transform="translate(171.6987,110.0654)"
           id="g190"><path
             d="m 0,0 c -0.085,-0.016 -0.131,-0.161 -0.102,-0.325 0.03,-0.165 0.123,-0.285 0.208,-0.271 0.084,0.015 0.131,0.16 0.102,0.325 C 0.179,-0.107 0.085,0.016 0,0"
             inkscape:connector-curvature="0"
             id="path192"
             style="fill:#964c04;fill-opacity:1;fill-rule:nonzero;stroke:none" /></g><g
           id="g194"><g
             id="g196" /><g
             id="g202"><g
               clip-path="url(#clipPath198)"
               id="g204"
               style="opacity:0.39999402"><g
                 transform="translate(170.7573,113.6436)"
                 id="g206"><path
                   d="M 0,0 C 0,0 0.058,0.099 0.157,0.271 0.208,0.357 0.265,0.466 0.364,0.568 0.462,0.67 0.552,0.814 0.695,0.917 0.837,1.02 0.974,1.16 1.159,1.246 1.248,1.295 1.34,1.346 1.435,1.396 1.534,1.435 1.641,1.466 1.747,1.5 1.853,1.541 1.965,1.561 2.083,1.569 2.198,1.576 2.315,1.615 2.437,1.59 2.557,1.574 2.679,1.566 2.8,1.543 L 3.149,1.407 C 3.376,1.259 3.528,1.142 3.685,0.911 3.772,0.812 3.814,0.7 3.858,0.591 3.903,0.482 3.954,0.377 3.966,0.264 3.987,0.152 4.011,0.044 4.026,-0.062 4.024,-0.171 4.023,-0.274 4.022,-0.378 4.034,-0.583 3.968,-0.769 3.945,-0.941 3.915,-1.114 3.839,-1.26 3.794,-1.393 3.751,-1.528 3.68,-1.63 3.632,-1.72 3.53,-1.893 3.472,-1.99 3.472,-1.99 c 0,0 0.041,0.105 0.111,0.294 0.034,0.092 0.09,0.2 0.112,0.337 0.026,0.135 0.077,0.281 0.096,0.447 0.006,0.167 0.056,0.346 0.026,0.534 C 3.812,-0.283 3.806,-0.187 3.799,-0.089 3.775,0.007 3.752,0.103 3.729,0.201 3.715,0.304 3.664,0.393 3.621,0.486 3.579,0.579 3.538,0.676 3.472,0.746 3.401,0.819 3.379,0.91 3.274,0.975 3.19,1.034 3.079,1.133 3.017,1.161 L 2.73,1.278 C 2.628,1.298 2.523,1.305 2.422,1.32 2.319,1.347 2.214,1.312 2.111,1.312 2.008,1.309 1.905,1.298 1.81,1.264 1.71,1.236 1.613,1.21 1.519,1.185 1.428,1.145 1.339,1.104 1.253,1.066 1.072,1.002 0.937,0.88 0.794,0.795 0.649,0.705 0.554,0.588 0.444,0.504 0.335,0.42 0.265,0.318 0.202,0.241 0.073,0.087 0,0 0,0"
                   inkscape:connector-curvature="0"
                   id="path208"
                   style="fill:#fce577;fill-opacity:1;fill-rule:nonzero;stroke:none" /></g></g></g></g><g
           id="g210"><g
             id="g212" /><g
             id="g218"><g
               clip-path="url(#clipPath214)"
               id="g220"
               style="opacity:0.19999701"><g
                 transform="translate(175.2974,111.3799)"
                 id="g222"><path
                   d="M 0,0 C 0.857,1.495 0.572,3.267 -0.635,3.959 -1.842,4.651 -3.514,4.001 -4.371,2.505 -4.68,1.968 -5.066,0.998 -5.38,-0.056 c -1.339,0.199 -2.702,-0.072 -3.857,-0.747 -1.206,-0.383 -2.435,-1.047 -3.651,-1.968 -2.23,-0.05 -9.651,-7.378 -10.432,-8.561 -0.182,-0.272 -4.389,-6.717 -1.907,-9.827 l 0.489,-0.613 0.453,0.638 c 0.287,0.406 0.642,0.925 0.978,1.425 0.069,-1.108 0.351,-2.396 1.092,-3.305 0.009,-1.083 0.066,-2.024 0.129,-2.747 -2.84,-1.839 -3.997,-3.36 -3.537,-4.646 0.105,-0.296 0.299,-0.531 0.558,-0.68 0.628,-0.359 1.562,-0.135 2.407,0.228 -0.514,-1.1 -0.977,-2.393 -0.774,-3.162 0.103,-0.384 0.332,-0.585 0.508,-0.686 0.233,-0.132 0.515,-0.178 0.842,-0.134 1.012,0.135 2.142,1.316 2.948,2.342 0.107,-0.753 0.343,-1.479 0.843,-1.766 0.518,-0.291 1.078,-0.305 1.578,-0.044 1.094,0.577 1.733,2.398 1.861,3.849 0.032,0.332 0.042,0.754 -0.025,1.14 l 0.676,0.405 c 0.17,0.103 0.34,0.205 0.512,0.309 l -0.185,-0.589 0.633,-0.136 c 1.329,-0.282 2.778,0.258 3.868,0.844 -0.248,-0.569 -0.504,-1.171 -0.697,-1.648 l -0.291,-0.719 0.771,-0.088 c 4.125,-0.467 7.401,6.788 7.434,6.861 0.644,1.455 2.207,9.507 1.712,12.575 0.424,2.086 0.46,3.987 0.091,5.61 -0.001,1.354 -0.469,2.683 -1.335,3.745 C -0.943,-1.353 -0.306,-0.534 0,0"
                   inkscape:connector-curvature="0"
                   id="path224"
                   style="fill:#0c1c2b;fill-opacity:1;fill-rule:nonzero;stroke:none" /></g></g></g></g></g></g><g
       id="g226"><g
         id="g228"><g
           id="g234"><g
             id="g236"><path
               d="m 156.645,101.137 c -2.579,-4.498 -2.793,-10.393 -2.398,-14.336 l 0,0 c -1.133,-0.712 -3.905,-2.548 -3.412,-3.927 l 0,0 c 0.484,-1.354 3.65,0.776 3.65,0.776 l 0,0 c 0,0 -2.876,-4.876 -0.896,-4.612 l 0,0 c 1.377,0.185 3.362,3.331 3.362,3.331 l 0,0 c 0,0 -0.116,-2.461 0.579,-2.85 l 0,0 c 1.332,-0.75 2.28,1.516 2.428,3.168 l 0,0 c 0.049,0.537 0.012,1.008 -0.123,1.289 l 0,0 c 4.067,2.449 8.19,4.642 10.778,9.156 l 0,0 c 4.162,7.261 4.565,14.218 0.28,16.675 l 0,0 c -0.874,0.501 -1.811,0.739 -2.784,0.739 l 0,0 c -3.799,10e-4 -8.15,-3.627 -11.464,-9.409"
               inkscape:connector-curvature="0"
               id="path244"
               style="fill:url(#linearGradient238);stroke:none" /></g></g></g></g><g
       id="g246"><g
         clip-path="url(#clipPath250)"
         id="g248"><g
           transform="translate(156.2114,85.4834)"
           id="g254"><path
             d="m 0,0 -1.246,-2.116 c -0.92,-1.562 -1.613,-3.308 -1.514,-3.78 0.017,0 0.037,0.001 0.063,0.004 0.769,0.104 2.197,1.861 2.965,3.077 l 1.127,1.784 -0.098,-2.11 c -0.049,-1.039 0.099,-2.157 0.307,-2.346 0.19,-0.105 0.312,-0.071 0.414,-0.017 0.526,0.276 1.062,1.539 1.172,2.757 0.048,0.528 -0.004,0.863 -0.07,1.001 l -0.218,0.457 1.444,0.864 c 3.738,2.23 7.269,4.336 9.571,8.351 4.113,7.176 4.313,13.72 0.486,15.913 C 10.576,26.032 5.031,22.553 0.918,15.377 -1.946,10.38 -1.663,3.92 -1.408,1.374 L -1.374,1.03 -1.667,0.846 c -3.382,-2.129 -3.246,-3.095 -3.185,-3.267 0.015,-0.04 0.026,-0.047 0.034,-0.051 0.321,-0.184 1.646,0.341 2.779,1.102 L 0,0 z m -3.346,-6.871 c -0.166,0.096 -0.383,0.286 -0.481,0.65 -0.193,0.729 0.247,1.954 0.733,2.996 -0.801,-0.343 -1.685,-0.556 -2.281,-0.215 -0.245,0.14 -0.428,0.363 -0.528,0.643 -0.435,1.219 0.661,2.66 3.351,4.402 -0.252,2.855 -0.401,9.264 2.501,14.328 4.511,7.87 10.543,11.436 15.01,8.876 C 19.426,22.248 19.397,15.24 14.887,7.37 12.439,3.102 8.615,0.822 4.918,-1.383 L 4.278,-1.767 C 4.342,-2.134 4.331,-2.533 4.303,-2.847 4.18,-4.221 3.574,-5.947 2.539,-6.493 2.064,-6.741 1.533,-6.728 1.044,-6.451 0.57,-6.18 0.346,-5.492 0.244,-4.779 -0.52,-5.751 -1.59,-6.87 -2.549,-6.998 c -0.309,-0.041 -0.577,0.002 -0.797,0.127"
             inkscape:connector-curvature="0"
             id="path256"
             style="fill:#ffc200;fill-opacity:1;fill-rule:nonzero;stroke:none" /></g><g
           id="g258"><g
             id="g260" /><g
             id="g266"><g
               clip-path="url(#clipPath262)"
               id="g268"
               style="opacity:0.30000299"><g
                 transform="translate(170.8931,109.8076)"
                 id="g270"><path
                   d="m 0,0 c -4.285,2.456 -10.085,-1.407 -14.248,-8.67 -2.209,-3.852 -2.68,-8.728 -2.523,-12.525 0.831,0.114 1.488,1.747 1.933,2.439 2.092,-1.964 2.938,3.531 3.381,4.626 0.459,1.134 1.138,2.23 1.693,3.318 0.465,0.916 1.11,2.457 1.879,3.095 0.787,-2.368 3.242,-3.462 5.65,-3.023 -1.414,-2.199 -2.777,-4.858 -4.467,-6.899 -0.971,-1.173 -2.091,-2.159 -2.858,-3.483 -0.537,-0.928 -0.341,-2.351 0.982,-2.185 -0.274,-0.773 -0.746,-1.228 -1.054,-1.672 3.583,2.141 7.067,4.316 9.352,8.303 C 3.883,-9.414 4.285,-2.457 0,0"
                   inkscape:connector-curvature="0"
                   id="path272"
                   style="fill:#ffc200;fill-opacity:1;fill-rule:nonzero;stroke:none" /></g></g></g></g></g></g><g
       id="g274"><g
         id="g276"><g
           id="g282"><g
             id="g284"><path
               d="m 152.956,100.451 c -0.91,-1.375 -3.663,-6.365 -1.836,-8.655 l 0,0 c 0.756,1.067 1.998,2.956 1.998,2.956 l 0,0 c 0,0 -0.483,-3.396 0.98,-4.89 l 0,0 c 0.916,1.101 1.653,5.196 1.653,5.196 l 0,0 c 0,0 0.209,-2.666 1.155,-2.812 l 0,0 c 0.608,-0.096 0.622,1.359 0.728,1.727 l 0,0 c 0.533,1.845 1.059,3.664 1.723,5.451 l 0,0 c 0.675,1.823 3.88,8.266 3.093,8.885 l 0,0 c -0.036,0.028 -0.085,0.041 -0.146,0.041 l 0,0 c -1.297,0.001 -8.083,-5.986 -9.348,-7.899"
               inkscape:connector-curvature="0"
               id="path292"
               style="fill:url(#linearGradient286);stroke:none" /></g></g></g></g><g
       id="g294"><g
         clip-path="url(#clipPath298)"
         id="g296"><g
           transform="translate(154.0161,97.1377)"
           id="g302"><path
             d="m 0,0 -0.346,-2.464 c -0.101,-0.72 -0.18,-2.549 0.384,-3.76 0.476,1.115 0.931,3.04 1.148,4.243 L 1.951,2.27 2.292,-2.037 c 0.065,-0.823 0.308,-1.83 0.567,-2.188 0.069,0.227 0.118,0.582 0.139,0.743 0.027,0.201 0.055,0.371 0.084,0.471 0.519,1.8 1.057,3.661 1.734,5.491 C 4.997,2.966 5.343,3.752 5.743,4.661 6.449,6.265 7.84,9.424 7.992,10.556 6.334,9.785 0.578,4.779 -0.594,3.006 -1.457,1.701 -3.469,-2.095 -2.829,-4.266 c 0.686,1.006 1.454,2.172 1.464,2.186 L 0,0 z m 0.115,-8.107 -0.432,0.442 c -0.843,0.86 -1.125,2.216 -1.197,3.35 -0.318,-0.474 -0.654,-0.965 -0.926,-1.349 l -0.429,-0.606 -0.463,0.581 c -2.353,2.947 1.635,9.052 1.806,9.31 0.786,1.19 8.658,8.942 10.217,8.048 l 0.088,-0.06 C 9.57,10.988 8.97,9.218 6.766,4.211 6.372,3.318 6.032,2.547 5.864,2.093 5.199,0.301 4.668,-1.541 4.154,-3.32 4.135,-3.387 4.123,-3.5 4.104,-3.634 4.024,-4.217 3.926,-4.939 3.468,-5.28 3.273,-5.425 3.045,-5.481 2.804,-5.443 2.67,-5.424 2.541,-5.377 2.419,-5.308 L 2.418,-5.307 C 2.144,-5.149 1.929,-4.871 1.761,-4.541 1.447,-5.726 1.014,-7.028 0.512,-7.633 L 0.115,-8.107 z"
             inkscape:connector-curvature="0"
             id="path304"
             style="fill:#ffc200;fill-opacity:1;fill-rule:nonzero;stroke:none" /></g></g></g><g
       id="g306"><g
         id="g308"><g
           id="g314"><g
             id="g316"><path
               d="m 167.437,93.835 c -1.173,-1.517 -2.451,-2.935 -3.749,-4.372 l 0,0 c -0.258,-0.287 -1.515,-1.071 -1.082,-1.541 l 0,0 c 0.675,-0.731 3.115,0.508 3.115,0.508 l 0,0 c 0,0 -3.138,-2.808 -3.565,-4.177 l 0,0 c 2.147,-0.457 4.823,1.761 4.823,1.761 l 0,0 c 0,0 -0.927,-2.065 -1.418,-3.279 l 0,0 c 3.049,-0.345 5.799,4.662 6.47,6.172 l 0,0 c 0.976,2.198 2.337,11.955 1.344,12.299 l 0,0 c -0.027,0.009 -0.055,0.014 -0.086,0.014 l 0,0 c -1.105,-0.001 -4.69,-5.88 -5.852,-7.385"
               inkscape:connector-curvature="0"
               id="path324"
               style="fill:url(#linearGradient318);stroke:none" /></g></g></g></g><g
       id="g326"><g
         clip-path="url(#clipPath330)"
         id="g328"><g
           transform="translate(169.2681,90.8564)"
           id="g334"><path
             d="m 0,0 -3.175,-2.843 c -0.926,-0.829 -2.347,-2.252 -3.036,-3.249 1.407,0.138 2.99,1.202 3.565,1.679 l 1.85,1.532 -0.983,-2.191 c -0.007,-0.016 -0.588,-1.31 -1.069,-2.438 2.29,0.561 4.459,4.346 5.101,5.787 C 3.13,0.252 4.167,7.967 3.844,9.684 2.973,9.018 0.979,6.075 -0.025,4.593 -0.586,3.765 -1.07,3.05 -1.389,2.638 -2.588,1.088 -3.897,-0.363 -5.165,-1.768 -5.236,-1.848 -5.37,-1.962 -5.53,-2.094 -5.667,-2.205 -5.939,-2.429 -6.093,-2.602 -5.625,-2.656 -4.58,-2.324 -3.8,-1.928 L 0,0 z m -7.828,-7.021 0.182,0.584 c 0.238,0.758 1.129,1.83 1.984,2.732 -0.563,-0.057 -1.095,0.051 -1.41,0.391 -0.169,0.183 -0.252,0.419 -0.237,0.663 0.04,0.576 0.612,1.045 1.071,1.421 0.105,0.087 0.196,0.157 0.244,0.21 1.254,1.389 2.549,2.825 3.721,4.34 0.298,0.385 0.773,1.086 1.323,1.9 3.026,4.466 4.272,5.992 5.241,5.657 L 4.416,10.819 C 5.961,9.934 4,-0.539 3.273,-2.176 3.242,-2.246 0.14,-9.119 -3.77,-8.677 l -0.73,0.083 0.275,0.682 c 0.184,0.451 0.427,1.022 0.661,1.561 -1.033,-0.555 -2.406,-1.067 -3.665,-0.799 l -0.599,0.129 z"
             inkscape:connector-curvature="0"
             id="path336"
             style="fill:#ffc200;fill-opacity:1;fill-rule:nonzero;stroke:none" /></g></g></g><g
       id="g338"><g
         id="g340"><g
           id="g346"><g
             id="g348"><path
               d="m 164.291,108.187 c -1.383,-2.414 -0.549,-5.492 1.866,-6.875 l 0,0 c 2.413,-1.383 5.491,-0.548 6.874,1.866 l 0,0 c 1.384,2.413 0.548,5.491 -1.864,6.875 l 0,0 c -0.791,0.452 -1.651,0.667 -2.501,0.667 l 0,0 c -1.746,0 -3.443,-0.909 -4.375,-2.533"
               inkscape:connector-curvature="0"
               id="path356"
               style="fill:url(#radialGradient350);stroke:none" /></g></g></g></g><g
       id="g358"><g
         clip-path="url(#clipPath362)"
         id="g360"><g
           transform="translate(170.8892,109.7998)"
           id="g366"><path
             d="M 0,0 C -2.143,1.228 -4.885,0.484 -6.113,-1.658 -7.342,-3.801 -6.598,-6.543 -4.455,-7.771 -2.313,-9 0.43,-8.256 1.658,-6.113 2.886,-3.971 2.142,-1.229 0,0 m -5.01,-8.74 c -2.677,1.534 -3.607,4.96 -2.072,7.636 1.534,2.678 4.961,3.607 7.637,2.073 2.676,-1.534 3.606,-4.96 2.072,-7.637 -1.535,-2.678 -4.961,-3.607 -7.637,-2.072"
             inkscape:connector-curvature="0"
             id="path368"
             style="fill:#ffc200;fill-opacity:1;fill-rule:nonzero;stroke:none" /></g><g
           id="g370"><g
             id="g372" /><g
             id="g378"><g
               clip-path="url(#clipPath374)"
               id="g380"
               style="opacity:0.30000299"><g
                 transform="translate(167.5864,108.4463)"
                 id="g382"><path
                   d="m 0,0 c -0.252,-0.441 -0.814,-0.594 -1.256,-0.341 -0.44,0.253 -0.594,0.816 -0.342,1.256 0.254,0.441 0.817,0.594 1.258,0.341 C 0.101,1.004 0.254,0.441 0,0"
                   inkscape:connector-curvature="0"
                   id="path384"
                   style="fill:#ffc200;fill-opacity:1;fill-rule:nonzero;stroke:none" /></g></g></g></g><g
           transform="translate(167.3813,108.3594)"
           id="g386"><path
             d="m 0,0 c -0.234,-0.409 -0.755,-0.55 -1.164,-0.315 -0.408,0.234 -0.551,0.754 -0.316,1.164 0.235,0.409 0.755,0.549 1.164,0.315 C 0.093,0.93 0.234,0.409 0,0"
             inkscape:connector-curvature="0"
             id="path388"
             style="fill:#000000;fill-opacity:1;fill-rule:nonzero;stroke:none" /></g><g
           transform="translate(167.2261,108.5645)"
           id="g390"><path
             d="M 0,0 C -0.056,-0.099 -0.183,-0.132 -0.28,-0.075 -0.378,-0.02 -0.413,0.106 -0.356,0.204 -0.3,0.303 -0.175,0.337 -0.076,0.28 0.022,0.224 0.057,0.099 0,0"
             inkscape:connector-curvature="0"
             id="path392"
             style="fill:#ffffff;fill-opacity:1;fill-rule:nonzero;stroke:none" /></g><g
           id="g394"><g
             id="g396" /><g
             id="g402"><g
               clip-path="url(#clipPath398)"
               id="g404"
               style="opacity:0.30000299"><g
                 transform="translate(173.2065,105.2246)"
                 id="g406"><path
                   d="m 0,0 c -0.253,-0.44 -0.815,-0.593 -1.257,-0.341 -0.439,0.253 -0.594,0.816 -0.34,1.256 0.252,0.441 0.816,0.594 1.256,0.342 C 0.101,1.004 0.253,0.441 0,0"
                   inkscape:connector-curvature="0"
                   id="path408"
                   style="fill:#ffc200;fill-opacity:1;fill-rule:nonzero;stroke:none" /></g></g></g></g><g
           transform="translate(173.1304,105.0645)"
           id="g410"><path
             d="m 0,0 c -0.234,-0.409 -0.755,-0.55 -1.164,-0.315 -0.409,0.234 -0.55,0.753 -0.315,1.164 0.234,0.408 0.754,0.548 1.164,0.314 C 0.093,0.929 0.235,0.409 0,0"
             inkscape:connector-curvature="0"
             id="path412"
             style="fill:#000000;fill-opacity:1;fill-rule:nonzero;stroke:none" /></g><g
           transform="translate(172.9585,105.2783)"
           id="g414"><path
             d="M 0,0 C -0.056,-0.098 -0.182,-0.132 -0.28,-0.076 -0.378,-0.02 -0.413,0.106 -0.356,0.205 -0.3,0.303 -0.174,0.337 -0.075,0.28 0.022,0.225 0.057,0.099 0,0"
             inkscape:connector-curvature="0"
             id="path416"
             style="fill:#ffffff;fill-opacity:1;fill-rule:nonzero;stroke:none" /></g><g
           transform="translate(174.5845,111.4961)"
           id="g418"><path
             d="m 0,0 c -0.811,-1.415 -4.062,-4.937 -5.205,-4.281 -1.144,0.655 0.253,5.241 1.063,6.655 0.813,1.417 2.398,2.033 3.541,1.377 C 0.543,3.096 0.812,1.417 0,0"
             inkscape:connector-curvature="0"
             id="path420"
             style="fill:#f6921e;fill-opacity:1;fill-rule:nonzero;stroke:none" /></g><g
           id="g422"><g
             id="g424" /><g
             id="g430"><g
               clip-path="url(#clipPath426)"
               id="g432"
               style="opacity:0.30000299"><g
                 transform="translate(173.3013,114.0088)"
                 id="g434"><path
                   d="m 0,0 c 0,0 -0.206,-0.386 -0.515,-0.964 -0.301,-0.583 -0.702,-1.361 -1.103,-2.139 -0.2,-0.387 -0.359,-0.801 -0.525,-1.178 -0.165,-0.378 -0.355,-0.71 -0.54,-0.982 -0.19,-0.268 -0.38,-0.473 -0.534,-0.606 -0.149,-0.135 -0.261,-0.197 -0.261,-0.197 0,0 -10e-4,0.127 0.039,0.324 0.037,0.199 0.119,0.467 0.253,0.767 0.141,0.297 0.332,0.629 0.575,0.963 0.24,0.333 0.517,0.679 0.752,1.048 0.467,0.739 0.935,1.478 1.287,2.032 C -0.229,-0.372 0,0 0,0"
                   inkscape:connector-curvature="0"
                   id="path436"
                   style="fill:#fce577;fill-opacity:1;fill-rule:nonzero;stroke:none" /></g></g></g></g></g></g></g></svg>