<?xml version="1.0" encoding="utf-8"?>
<!-- Generator: Adobe Illustrator 16.2.1, SVG Export Plug-In . SVG Version: 6.00 Build 0)  -->
<!DOCTYPE svg PUBLIC "-//W3C//DTD SVG 1.1//EN" "http://www.w3.org/Graphics/SVG/1.1/DTD/svg11.dtd">
<svg version="1.1" id="Layer_1" xmlns="http://www.w3.org/2000/svg" xmlns:xlink="http://www.w3.org/1999/xlink" x="0px" y="0px"
	 width="125.897px" height="116.525px" viewBox="0 0 125.897 116.525" enable-background="new 0 0 125.897 116.525"
	 xml:space="preserve">
<g>
	<path opacity="0.2" fill="#183049" d="M125.899,67.35c0-8.421-5.471-15.78-13.432-18.265c0.008-0.22,0.013-0.438,0.013-0.653
		c0-9.758-7.938-17.696-17.698-17.696c-0.066,0-0.132,0.001-0.197,0.003C90.095,24.05,82.681,20.083,74.6,20.083
		c-7.273,0-14.011,3.199-18.608,8.807c-0.919-0.132-1.795-0.195-2.658-0.195c-6.695,0-12.965,3.507-16.504,9.189
		c-7.791,1.709-13.385,8.615-13.385,16.647c0,0.667,0.047,1.354,0.141,2.083c-4.037,3.424-6.337,8.362-6.337,13.666
		c0,7.785,5.001,14.612,12.309,17.021c-0.138,0.773-0.207,1.546-0.207,2.31c0,7.4,5.984,13.432,13.367,13.504
		c2.843,7.947,10.526,13.414,19.032,13.414c5.135,0,9.971-1.9,13.715-5.369c3.674,1.404,7.873,1.146,11.366-0.693
		c3.226,1.754,6.852,2.676,10.536,2.676c12.179,0,22.085-9.906,22.085-22.087c0-2.818-0.523-5.553-1.558-8.148
		C122.927,79.303,125.899,73.569,125.899,67.35z"/>
	<g>
		<linearGradient id="SVGID_1_" gradientUnits="userSpaceOnUse" x1="49.209" y1="16.7446" x2="76.7028" y2="97.0314">
			<stop  offset="0" style="stop-color:#8BBB44"/>
			<stop  offset="1" style="stop-color:#729B2D"/>
		</linearGradient>
		<path fill="url(#SVGID_1_)" d="M123.374,54.208c0-9.581-6.593-17.602-15.482-19.831c0.061-0.613,0.094-1.234,0.094-1.863
			c0-10.38-8.416-18.794-18.795-18.794c-0.341,0-0.674,0.033-1.011,0.051C83.564,6.406,75.378,1.503,66.044,1.503
			c-8.438,0-15.938,4.008-20.71,10.219c-1.196-0.213-2.421-0.344-3.678-0.344c-7.687,0-14.382,4.18-17.983,10.379
			C15.261,23.297,8.88,30.651,8.88,39.508c0,1.028,0.106,2.03,0.271,3.013c-4.482,3.491-7.377,8.926-7.377,15.048
			c0,8.915,6.123,16.381,14.387,18.476c-0.322,1.178-0.509,2.412-0.509,3.693c0,7.723,6.261,13.982,13.982,13.982
			c0.31,0,0.612-0.026,0.917-0.047c2.682,8.93,10.958,15.432,20.756,15.432c6.021,0,11.468-2.457,15.395-6.42
			c1.822,0.83,3.84,1.305,5.973,1.305c2.708,0,5.232-0.76,7.398-2.057c3.543,2.088,7.67,3.291,12.08,3.291
			c13.16,0,23.827-10.671,23.827-23.831c0-3.531-0.774-6.881-2.153-9.896C119.558,67.871,123.374,61.493,123.374,54.208z"/>
		<path fill="#678E24" d="M16.026,75.946c-0.046,0.006-0.093,0.011-0.14,0.017c0.064,0.018,0.126,0.04,0.19,0.057
			C16.06,75.994,16.042,75.97,16.026,75.946z"/>
		<path fill="#678E24" d="M123.374,54.208c0-4.383-1.358-8.305-6.025-12.638c5.461,9.668,0.5,22-6.166,24.471
			c-0.2-0.726-0.445-1.44-0.785-2.13c-0.521-1.056-1.223-2.084-2.128-2.848c-0.138-0.12-0.808-0.671-1.238-0.866
			c0.104-1.021,0.08-2.068-0.122-3.127c-0.434,1.466-0.803,2.914-1.475,4.299c-0.827,1.709-1.918,3.137-3.184,4.54
			c-1.111,1.007-2.253,1.894-3.525,2.633c-0.003-0.008-0.006-0.017-0.009-0.024c0,0.01,0,0.02,0,0.029
			c-0.344,0.2-0.691,0.394-1.058,0.57c-1.367,0.659-2.805,1.024-4.252,1.453c1.83,0.354,3.626,0.206,5.29-0.31
			c-0.129,3.193-0.88,6.257-2.949,8.853c-1.552,1.945-4.097,3.703-6.256,4.206c-3.358,0.8-6.878,0.236-9.786-1.662
			c-2.564-1.676-4.244-4.028-5.658-6.688c0.158,1.494,0.584,2.908,1.213,4.207c-0.4,0.025-0.799,0.061-1.206,0.061
			c-4.196,0-8.074-1.332-11.261-3.58c-2.09,2.201-5.036,3.58-8.311,3.58c-2.156,0-4.164-0.607-5.887-1.643
			c-1.068-0.722-2.008-1.553-2.717-2.473c-3.148-4.084-2.876-9.725,0.373-13.477c-0.631,0.311-1.24,0.687-1.818,1.132
			c-4.661,3.595-5.525,10.286-1.93,14.948c0.809,1.049,1.883,1.961,3.104,2.72c-1.22,5.417-4.72,7.667-9.22,6.292
			c-6.665-2.036-7.542-11.041-3.944-14.02c-0.016,0.01-0.03,0.016-0.046,0.025c0.028-0.028,0.06-0.053,0.089-0.082
			c-6.361,3.027-13.334,3.66-19.761,0.379c-3.001-1.532-5.646-3.998-7.46-6.823c-1.85-2.727-2.645-5.76-3.391-8.914
			c-1.066,7.49,2.771,14.919,9.517,18.418c1.634,0.849,3.358,1.427,5.11,1.76c-0.545,0.486-0.851,1.186-0.851,2.257
			c0,7.723,6.261,13.982,13.982,13.982c0.31,0,0.612-0.026,0.917-0.047c2.682,8.93,10.958,15.432,20.756,15.432
			c6.021,0,11.468-2.457,15.395-6.42c1.822,0.83,3.84,1.305,5.973,1.305c2.708,0,5.232-0.76,7.398-2.057
			c3.543,2.088,7.67,3.291,12.08,3.291c13.16,0,23.827-10.671,23.827-23.831c0-3.531-0.774-6.881-2.153-9.896
			C119.558,67.871,123.374,61.493,123.374,54.208z M54.427,89.863c-6.595,0.027-8.788-4.658-7.086-8.493
			c3.506,2.108,9.148,3.044,15.105-0.385C62.976,82.75,61.022,89.836,54.427,89.863z M105.415,85.982
			c-2.314,0-4.34-1.215-5.495-3.037c-0.235,0.431-0.511,0.856-0.864,1.266c-3.438,3.978-9.81,1.852-9.81,1.852
			s3.687-1.096,6.718-3.77c1.785-1.575,2.818-3.858,3.368-5.473c0.556-2.169,0.566-4.489-0.075-6.747
			c3.63-1.335,6.509-4.485,7.477-8.25c0.559,0.534,0.987,1.198,1.305,1.899c0.813,1.796,0.962,3.77,0.667,5.697
			c-0.344,1.408-0.818,2.707-1.408,3.842c2.672,0.807,4.617,3.285,4.617,6.221C111.915,83.071,109.005,85.982,105.415,85.982z"/>
		<path fill="none" stroke="#43600C" stroke-width="3" stroke-miterlimit="10" d="M123.374,54.208
			c0-9.581-6.593-17.602-15.482-19.831c0.061-0.613,0.094-1.234,0.094-1.863c0-10.38-8.416-18.794-18.795-18.794
			c-0.341,0-0.674,0.033-1.011,0.051C83.564,6.406,75.378,1.503,66.044,1.503c-8.438,0-15.938,4.008-20.71,10.219
			c-1.196-0.213-2.421-0.344-3.678-0.344c-7.687,0-14.382,4.18-17.983,10.379C15.261,23.297,8.88,30.651,8.88,39.508
			c0,1.028,0.106,2.03,0.271,3.013c-4.482,3.491-7.377,8.926-7.377,15.048c0,8.915,6.123,16.381,14.387,18.476
			c-0.322,1.178-0.509,2.412-0.509,3.693c0,7.723,6.261,13.982,13.982,13.982c0.31,0,0.612-0.026,0.917-0.047
			c2.682,8.93,10.958,15.432,20.756,15.432c6.021,0,11.468-2.457,15.395-6.42c1.822,0.83,3.84,1.305,5.973,1.305
			c2.708,0,5.232-0.76,7.398-2.057c3.543,2.088,7.67,3.291,12.08,3.291c13.16,0,23.827-10.671,23.827-23.831
			c0-3.531-0.774-6.881-2.153-9.896C119.558,67.871,123.374,61.493,123.374,54.208z"/>
		<path fill="#678E24" d="M92.654,43.419c2.416,2.941,3.908,6.78,3.369,10.646c-0.34,4.702-3.132,8.793-6.918,11.445
			c-3.896,2.197-8.187,3.237-12.604,1.954c-4.05-1.177-7.164-3.843-9.054-7.577c2.544,2.519,5.392,4.514,8.979,5.203
			c3.746,0.863,7.586-0.081,10.84-1.978c3.229-1.882,5.648-5.418,6.479-9.034C94.597,50.363,94.001,46.917,92.654,43.419z"/>
		<path fill="#A4CE5B" d="M65.446,5.281c-7.87,0-14.624,4.771-17.536,11.575c-1.949-0.916-4.117-1.443-6.414-1.443
			c-6.828,0-12.594,4.529-14.471,10.745c-0.559-0.077-1.125-0.131-1.705-0.131c-6.873,0-12.445,5.572-12.445,12.445
			c0,2.115,0.531,4.105,1.463,5.85c-4.391,1.922-7.463,6.301-7.463,11.4c0,5.091,3.061,9.461,7.439,11.389
			c-0.002-0.102-0.016-0.2-0.016-0.302c0-5.642,3.236-10.519,7.948-12.902c0.888,1.905,2.149,3.546,3.663,4.869
			c-0.135-0.342-0.277-0.682-0.393-1.039c-2.823-8.801,2.022-18.222,10.822-21.045c0.144-0.046,0.289-0.081,0.434-0.124
			c-0.916,1.78-1.56,3.736-1.824,5.837c-0.416,3.287,0.125,6.469,1.376,9.292c0.026-0.438,0.043-0.875,0.099-1.32
			c1.379-10.932,11.357-18.671,22.287-17.292c3.574,0.45,6.796,1.832,9.479,3.854c-2.508-5.161-7.484-8.999-13.604-9.772
			c-1.113-0.141-2.213-0.163-3.294-0.097c0.94-9.178,8.693-16.338,18.119-16.338c5.384,0,10.207,2.35,13.542,6.062
			C80.025,10.023,73.291,5.281,65.446,5.281z"/>
		<path fill="#A4CE5B" d="M47.557,71.311c-0.569-4.658,2.744-8.896,7.401-9.464c1.523-0.188,2.998,0.047,4.316,0.603
			c-1.574-1.87-4.029-2.937-6.637-2.618c-4.104,0.503-7.023,4.236-6.521,8.341c0.172,1.401,0.727,2.658,1.537,3.694
			C47.62,71.683,47.581,71.5,47.557,71.311z"/>
		<path fill="#A4CE5B" d="M78.613,19.896c-5.085,4.332-6.953,11.916-3.703,17.79c-6.012,1.449-10.115,7.2-9.346,13.487
			c0.281,2.31,1.196,4.382,2.533,6.089c-0.057-0.302-0.121-0.603-0.16-0.915c-0.938-7.679,4.523-14.662,12.2-15.601
			c2.511-0.308,4.941,0.078,7.116,0.994c-2.104-2.499-5.168-4.103-8.541-4.35c-0.051-0.158-0.146-0.342-0.207-0.568
			c-0.249-0.911-0.392-1.881-0.453-2.821c-0.147-2.285,0.281-4.578,1.258-6.65c0.467-0.988,1.081-1.926,1.803-2.747
			c0.035-0.04,0.523-0.57,0.255-0.316c0.774-0.743,1.54-1.464,2.445-2.046c1.676-1.136,3.538-1.6,5.487-1.988
			c1.913-0.096,3.641-0.041,5.51,0.419c1.43,0.352,2.724,1.046,4.023,1.71C94.507,15.496,84.607,14.787,78.613,19.896z"/>
	</g>
</g>
</svg>
