<svg xmlns:rdf="http://www.w3.org/1999/02/22-rdf-syntax-ns#" xmlns="http://www.w3.org/2000/svg" xml:space="preserve" viewBox="0 0 88.845 89" version="1.1" xmlns:cc="http://creativecommons.org/ns#" enable-background="new 0 0 88.845 89" xmlns:dc="http://purl.org/dc/elements/1.1/"><linearGradient id="c" y2="69.183" gradientUnits="userSpaceOnUse" y1="30.183" x2="49.545" x1="41.545"><stop stop-color="#4C7F1B" offset="0"/><stop stop-color="#34661B" offset="1"/></linearGradient><polygon points="84.048 42.845 83.41 44.461 81.13 46.531 83.847 48.336 84.463 50.945 82.458 52.376 79.148 53.591 80.227 56.922 83.612 59.366 80.247 60.875 78.542 61.451 79.009 63.188 77.961 65.719 76.042 67.792 71.884 65.946 74.561 69.664 73.974 73.088 70.582 73.12 67.558 71.883 66.305 74.828 66.169 76.428 64.765 75.46 61.66 76.393 59.694 78.645 60.292 82.822 57.587 79.797 55.042 80.131 53.18 81.523 51.736 83.082 50.57 81.182 47.333 79.369 44.656 81.905 43.732 86.447 41.339 83.215 39.923 81.479 38.498 83.301 35.621 83.623 34.66 81.302 32.455 80.016 30.641 81.381 27.91 81.038 25.883 79.296 25.784 76.424 23.276 77.692 19.961 78.414 21.463 74.784 20.513 71.139 16.889 73.283 13.072 73.502 15.402 69.808 14.427 66.891 11.509 67.148 7.532 67.034 10.283 63.66 8.787 61.522 8.042 58.492 3.41 59.549 6.81 56.716 7.2 53.929 4.324 53.534 3.91 50.766 3.714 48.41 7.341 46.434 4.703 43.736 2.202 42.845 2.849 39.875 4.502 38.979 4.9 36.381 2.416 34.627 4.447 32.365 7.541 31.864 4.878 29.907 6.32 27.348 7.783 26.445 9.523 24.561 8.339 22.53 9.359 19.875 11.752 20.285 14.484 18.842 15.234 15.89 15.198 14.309 16.898 12.285 18.609 12.229 19.577 10.643 20.932 8.722 23.14 8.526 25.551 8.826 25.525 6.267 27.034 2.535 30.087 5.455 32.689 6.441 33.284 3.577 35.638 2.154 38.039 2.995 39.857 3.531 42.005 3.07 43.732 0.985 46.453 2.183 47.351 6.142 48.851 2.238 51.97 1.422 53.019 4.262 54.876 6.112 56.997 4.67 60.174 3.157 62.109 6.21 60.894 10.73 64.25 8.238 66.5 8.775 68.919 10.504 68.429 12.752 70.664 13.961 73.13 13.449 72.16 15.89 73.843 18.137 76.037 17.951 79.418 19 77.037 21.991 78.091 24.482 80.345 24.536 81.216 27.319 81.119 29.2 79.324 32.048 83.042 32.323 86.555 34.328 82.267 36.155 82.451 39.028 84.628 40.309" fill="url(#c)"/><path d="m83.612 59.366l-3.385-2.444-1.079-3.331 3.311-1.215 2.005-1.431-0.616-2.609-2.717-1.805 0.291-0.266c-1.965-0.77-4.623-1.754-4.623-1.754v-1.667h-3.25l3.25-3.989s-8.062 3.736-9.25 3.989-48.184 11.011-48.184 11.011h-4.816l3.052 2.75-6.802 2h5l-6.117 4.196 0.602 0.858-2.751 3.374 3.978 0.114 2.918-0.258 0.975 2.917-2.33 3.694 3.817-0.219 3.624-2.145 0.95 3.646-1.502 3.63 3.314-0.722 2.508-1.269 0.1 2.872 2.026 1.742 2.731 0.343 1.813-1.365 2.205 1.286 0.961 2.321 2.877-0.322 1.426-1.821 1.416 1.735 2.393 3.232 0.924-4.542 2.678-2.536 3.236 1.812 1.166 1.9 1.444-1.559 1.862-1.393 2.545-0.334 2.704 3.025-0.598-4.178 1.966-2.252 3.105-0.933 1.404 0.968 0.136-1.6 1.253-2.945 3.023 1.237 3.393-0.032 0.587-3.424-2.677-3.718 4.158 1.846 1.919-2.073 1.048-2.53-0.467-1.737 1.704-0.576 3.366-1.504z" fill="#2F5916"/><polygon stroke="#284912" points="84.048 42.845 83.41 44.461 81.13 46.531 83.847 48.336 84.463 50.945 82.458 52.376 79.148 53.591 80.227 56.922 83.612 59.366 80.247 60.875 78.542 61.451 79.009 63.188 77.961 65.719 76.042 67.792 71.884 65.946 74.561 69.664 73.974 73.088 70.582 73.12 67.558 71.883 66.305 74.828 66.169 76.428 64.765 75.46 61.66 76.393 59.694 78.645 60.292 82.822 57.587 79.797 55.042 80.131 53.18 81.523 51.736 83.082 50.57 81.182 47.333 79.369 44.656 81.905 43.732 86.447 41.339 83.215 39.923 81.479 38.498 83.301 35.621 83.623 34.66 81.302 32.455 80.016 30.641 81.381 27.91 81.038 25.883 79.296 25.784 76.424 23.276 77.692 19.961 78.414 21.463 74.784 20.513 71.139 16.889 73.283 13.072 73.502 15.402 69.808 14.427 66.891 11.509 67.148 7.532 67.034 10.283 63.66 8.787 61.522 8.042 58.492 3.41 59.549 6.81 56.716 7.2 53.929 4.324 53.534 3.91 50.766 3.714 48.41 7.341 46.434 4.703 43.736 2.202 42.845 2.849 39.875 4.502 38.979 4.9 36.381 2.416 34.627 4.447 32.365 7.541 31.864 4.878 29.907 6.32 27.348 7.783 26.445 9.523 24.561 8.339 22.53 9.359 19.875 11.752 20.285 14.484 18.842 15.234 15.89 15.198 14.309 16.898 12.285 18.609 12.229 19.577 10.643 20.932 8.722 23.14 8.526 25.551 8.826 25.525 6.267 27.034 2.535 30.087 5.455 32.689 6.441 33.284 3.577 35.638 2.154 38.039 2.995 39.857 3.531 42.005 3.07 43.732 0.985 46.453 2.183 47.351 6.142 48.851 2.238 51.97 1.422 53.019 4.262 54.876 6.112 56.997 4.67 60.174 3.157 62.109 6.21 60.894 10.73 64.25 8.238 66.5 8.775 68.919 10.504 68.429 12.752 70.664 13.961 73.13 13.449 72.16 15.89 73.843 18.137 76.037 17.951 79.418 19 77.037 21.991 78.091 24.482 80.345 24.536 81.216 27.319 81.119 29.2 79.324 32.048 83.042 32.323 86.555 34.328 82.267 36.155 82.451 39.028 84.628 40.309" stroke-miterlimit="10" stroke-width="2" fill="none"/><g fill="#6CA035"><path d="m8.587 28.723c0.5 0.264 3.333-3.403 3.333-3.403v-2.833l2.833-0.667 2-2.166v-4.667h2.834l3.166-4h4.805l1.362-3 5.399 1.767 2.101-4.1 3.833 2.5 4.125-2.5 3.209 6.166 3.166-5.166 4.167 3.166 5.167-3-7.167 8.167 3.667-1.279-5.834 3.328-1.5-2.382-3.256 0.166-1.619 2.216-2.958-4.882-2.167 1.554h-1.666l-2.334 3.328-3.166-1.716-2.834 1.716-1.695 3.951-6.721 0.167 1.583 2-5.167 0.333 2.667 3.667-5.333 0.5 1.342 4.014h-3.676l-3.666-2.945z"/><path d="m6.753 34.152c0.667 0.167 7.5 0 7.5 0l-1.666 2.167 1.666 4-8.333 1.5 1.611-3.167v-2.333l-0.778-2.167z"/></g><linearGradient id="b" y2="53.846" gradientUnits="userSpaceOnUse" y1="27.513" x2="45.573" x1="39.906"><stop stop-color="#4C7F1B" offset="0"/><stop stop-color="#34661B" offset="1"/></linearGradient><polygon points="66.777 44.512 68.359 46.161 68.101 47.792 69.255 49.695 67.399 50.998 67.353 52.711 65.759 53.854 64.859 55.191 66.622 58.034 65.615 59.487 64.951 61.2 63.468 62.283 60.604 61.911 61.091 64.906 57.628 63.311 58.32 67.128 56.49 67.519 54.939 68.301 52.81 67.695 50.99 67.438 49.332 67.363 47.815 67.656 46.558 69.953 44.797 68.74 43.208 71.672 41.587 69.215 39.71 71.072 38.253 69.405 36.88 68.11 35.542 67.084 34.004 66.722 32.556 66.107 29.412 68.396 28.496 66.523 26.998 65.631 25.353 64.866 25.458 62.257 24.527 60.891 22.07 60.729 20.837 59.459 21.718 56.914 19.244 56.328 19.453 54.35 18.192 53.003 17.537 51.392 19.835 49.164 19.496 47.637 16.543 46.26 15.929 44.512 19.117 42.931 17.915 41.18 17.375 39.372 16.644 37.392 19.864 36.583 17.708 33.945 21.792 33.949 19.291 30.697 22.657 30.778 22.72 28.787 22.811 26.619 26.303 27.603 25.799 24.658 28.677 25.568 29.865 24.537 30.683 22.812 31.08 19.92 32.74 19.236 35.3 21.221 36.537 19.617 37.972 18.188 39.891 19.336 41.42 17.238 43.208 20.737 44.833 19.721 46.677 18.162 48.496 17.933 49.635 20.538 50.986 21.605 52.941 21.021 53.982 22.669 55.018 24.057 58.14 22.174 60 22.635 60.453 24.851 60.496 27.229 62.562 27.541 64.083 28.496 65.808 29.412 67.113 30.711 65.947 33.301 66.921 34.691 68.583 35.899 67.35 38.041 68.855 39.41 70.428 40.928 68.537 42.851" fill="url(#b)"/><polygon points="64.214 48.521 65.382 46.861 61.976 46.861 31.238 54.09 24.882 57.855 27.048 54.29 21.718 56.914 20.837 59.459 22.07 60.729 24.527 60.891 25.458 62.257 25.353 64.866 26.998 65.631 28.496 66.523 29.412 68.396 32.556 66.107 34.004 66.722 35.542 67.084 36.88 68.11 38.253 69.405 39.71 71.072 41.587 69.215 43.208 71.672 44.797 68.74 46.558 69.953 47.815 67.656 49.332 67.363 50.99 67.438 52.81 67.695 54.939 68.301 56.49 67.519 58.32 67.128 57.628 63.311 61.091 64.906 60.604 61.911 63.468 62.283 64.951 61.2 65.615 59.487 66.622 58.034 64.859 55.191 65.759 53.854 67.353 52.711 67.399 50.998 69.255 49.695" fill="#2F5916"/><polygon stroke="#284912" points="66.777 44.512 68.359 46.161 68.101 47.792 69.255 49.695 67.399 50.998 67.353 52.711 65.759 53.854 64.859 55.191 66.622 58.034 65.615 59.487 64.951 61.2 63.468 62.283 60.604 61.911 61.091 64.906 57.628 63.311 58.32 67.128 56.49 67.519 54.939 68.301 52.81 67.695 50.99 67.438 49.332 67.363 47.815 67.656 46.558 69.953 44.797 68.74 43.208 71.672 41.587 69.215 39.71 71.072 38.253 69.405 36.88 68.11 35.542 67.084 34.004 66.722 32.556 66.107 29.412 68.396 28.496 66.523 26.998 65.631 25.353 64.866 25.458 62.257 24.527 60.891 22.07 60.729 20.837 59.459 21.718 56.914 19.244 56.328 19.453 54.35 18.192 53.003 17.537 51.392 19.835 49.164 19.496 47.637 16.543 46.26 15.929 44.512 19.117 42.931 17.915 41.18 17.375 39.372 16.644 37.392 19.864 36.583 17.708 33.945 21.792 33.949 19.291 30.697 22.657 30.778 22.72 28.787 22.811 26.619 26.303 27.603 25.799 24.658 28.677 25.568 29.865 24.537 30.683 22.812 31.08 19.92 32.74 19.236 35.3 21.221 36.537 19.617 37.972 18.188 39.891 19.336 41.42 17.238 43.208 20.737 44.833 19.721 46.677 18.162 48.496 17.933 49.635 20.538 50.986 21.605 52.941 21.021 53.982 22.669 55.018 24.057 58.14 22.174 60 22.635 60.453 24.851 60.496 27.229 62.562 27.541 64.083 28.496 65.808 29.412 67.113 30.711 65.947 33.301 66.921 34.691 68.583 35.899 67.35 38.041 68.855 39.41 70.428 40.928 68.537 42.851" stroke-miterlimit="10" stroke-width="2" fill="none"/><path d="m20.087 44.986l2.834-3.167-2.834-3.167 4.334-1.666-2.168-1 5.305-1.834-2.971-1.5 2.969-0.996s1.494-4.104 1.159-3.837c-0.345 0.274 2.767-0.366 2.767-0.366l0.939-2.801 3.332 1.334 2.668-4.167 3.332 1.833 4.871-1.833 2.629 3.167h2.834l1.834 3 3.332-2-3.301 4.064-2.699-3.064-4 1.736-2.207-2.736-3.293 2.736h-5.166l-2.834 2.944-3.038 1.735-1.294 3.25-2.668 2v5.6l-2.666 3.439 0.166-2.705h-4.166z" fill="#6CA035"/><linearGradient id="a" y2="65.635" gradientUnits="userSpaceOnUse" y1="37.969" x2="51.738" x1="43.071"><stop stop-color="#4C7F1B" offset="0"/><stop stop-color="#34661B" offset="1"/></linearGradient><polygon points="61.316 46.931 62.316 48.562 62.014 50.164 62.535 52.02 61.033 53.257 60.601 54.863 59.154 55.879 58.075 57.036 58.376 59.547 57.043 60.68 55.812 61.972 54.148 62.62 51.976 61.938 50.958 64.066 48.813 62.27 47.519 64.797 45.759 64.462 44.044 64.351 42.528 63.173 41.12 62.222 39.785 61.356 38.417 60.666 36.349 61.013 35.593 59.318 33.083 59.605 33.128 57.295 31.058 56.753 30.986 54.826 30.862 53.102 30.704 51.498 30.199 50.026 29.947 48.49 27.558 46.931 28.371 45.219 28.525 43.503 28.656 41.742 30.453 40.59 31.296 39.199 31.14 37.16 32.035 35.664 34.184 35.352 34.576 33.301 36.333 32.821 37.541 31.555 39.046 30.725 41.193 31.878 42.679 31.447 44.032 29.379 45.759 28.926 47.324 31.072 49.045 30.416 50.806 30.294 52.707 30.161 53.429 32.582 55.88 31.787 55.755 34.751 58.648 34.043 58.37 36.582 59.934 37.461 61.555 38.488 60.342 40.891 62.441 41.87 61.215 43.854 61.537 45.375" fill="url(#a)"/><polygon points="62.316 48.562 61.906 47.895 60.591 48.738 59.748 50.129 59.904 52.168 59.008 53.664 56.859 53.977 56.468 56.027 54.709 56.507 53.502 57.773 51.997 58.604 49.851 57.45 48.365 57.881 47.011 59.949 45.284 60.402 43.72 58.256 41.998 58.912 40.237 59.034 38.337 59.167 37.615 56.746 35.164 57.541 35.289 54.577 32.396 55.285 32.673 52.746 31.109 51.867 30.715 51.617 30.862 53.102 30.986 54.826 31.058 56.753 33.128 57.295 33.083 59.605 35.593 59.318 36.349 61.013 38.417 60.666 39.785 61.356 41.12 62.222 42.528 63.173 44.044 64.351 45.759 64.462 47.519 64.797 48.813 62.27 50.958 64.066 51.976 61.938 54.148 62.62 55.812 61.972 57.043 60.68 58.376 59.547 58.075 57.036 59.154 55.879 60.601 54.863 61.033 53.257 62.535 52.02 62.014 50.164" fill="#2F5916"/><polygon stroke="#284912" points="61.316 46.931 62.316 48.562 62.014 50.164 62.535 52.02 61.033 53.257 60.601 54.863 59.154 55.879 58.075 57.036 58.376 59.547 57.043 60.68 55.812 61.972 54.148 62.62 51.976 61.938 50.958 64.066 48.813 62.27 47.519 64.797 45.759 64.462 44.044 64.351 42.528 63.173 41.12 62.222 39.785 61.356 38.417 60.666 36.349 61.013 35.593 59.318 33.083 59.605 33.128 57.295 31.058 56.753 30.986 54.826 30.862 53.102 30.704 51.498 30.199 50.026 29.947 48.49 27.558 46.931 28.371 45.219 28.525 43.503 28.656 41.742 30.453 40.59 31.296 39.199 31.14 37.16 32.035 35.664 34.184 35.352 34.576 33.301 36.333 32.821 37.541 31.555 39.046 30.725 41.193 31.878 42.679 31.447 44.032 29.379 45.759 28.926 47.324 31.072 49.045 30.416 50.806 30.294 52.707 30.161 53.429 32.582 55.88 31.787 55.755 34.751 58.648 34.043 58.37 36.582 59.934 37.461 61.555 38.488 60.342 40.891 62.441 41.87 61.215 43.854 61.537 45.375" stroke-miterlimit="10" stroke-width="2" fill="none"/><path d="m17.753 31.87" fill="#728E2E"/><path d="m47.291 39.53l3.635-2.6-1.817 4.117 5.718-1.083-5.2 4.245 1.433 4.471-4.583 0.167-2.104 3.87s-3.195-2.787-2.545-3.221c0.649-0.433-6.067-0.816-6.067-0.816l5.2-2.216s-7.583-3.18-6.933-3.215c0.649-0.035 7.366 0 7.366 0l-1.95-7.186 3.369 4.983 2.427-4.983 2.051 3.467z" fill="#6CA035"/></svg>
