<svg xmlns:rdf="http://www.w3.org/1999/02/22-rdf-syntax-ns#" xmlns="http://www.w3.org/2000/svg" xml:space="preserve" viewBox="0 0 125.897 116.525" version="1.1" xmlns:cc="http://creativecommons.org/ns#" enable-background="new 0 0 125.897 116.525" xmlns:dc="http://purl.org/dc/elements/1.1/"><linearGradient id="a" y2="97.031" gradientUnits="userSpaceOnUse" y1="16.745" x2="76.703" x1="49.209"><stop stop-color="#8BBB44" offset="0"/><stop stop-color="#729B2D" offset="1"/></linearGradient><path d="m123.37 54.208c0-9.581-6.593-17.602-15.482-19.831 0.061-0.613 0.094-1.234 0.094-1.863 0-10.38-8.416-18.794-18.795-18.794-0.341 0-0.674 0.033-1.011 0.051-4.61-7.365-12.796-12.268-22.13-12.268-8.438 0-15.938 4.008-20.71 10.219-1.196-0.213-2.421-0.344-3.678-0.344-7.687 0-14.382 4.18-17.983 10.379-8.412 1.54-14.793 8.894-14.793 17.751 0 1.028 0.106 2.03 0.271 3.013-4.482 3.491-7.377 8.926-7.377 15.048 0 8.915 6.123 16.381 14.387 18.476-0.322 1.178-0.509 2.412-0.509 3.693 0 7.723 6.261 13.982 13.982 13.982 0.31 0 0.612-0.026 0.917-0.047 2.682 8.93 10.958 15.432 20.756 15.432 6.021 0 11.468-2.457 15.395-6.42 1.822 0.83 3.84 1.305 5.973 1.305 2.708 0 5.232-0.76 7.398-2.057 3.543 2.088 7.67 3.291 12.08 3.291 13.16 0 23.827-10.671 23.827-23.831 0-3.531-0.774-6.881-2.153-9.896 5.73-3.612 9.54-9.99 9.54-17.275z" fill="url(#a)"/><path d="m16.026 75.946c-0.046 0.006-0.093 0.011-0.14 0.017 0.064 0.018 0.126 0.04 0.19 0.057-0.016-0.026-0.034-0.05-0.05-0.074z" fill="#678E24"/><path d="m123.37 54.208c0-4.383-1.358-8.305-6.025-12.638 5.461 9.668 0.5 22-6.166 24.471-0.2-0.726-0.445-1.44-0.785-2.13-0.521-1.056-1.223-2.084-2.128-2.848-0.138-0.12-0.808-0.671-1.238-0.866 0.104-1.021 0.08-2.068-0.122-3.127-0.434 1.466-0.803 2.914-1.475 4.299-0.827 1.709-1.918 3.137-3.184 4.54-1.111 1.007-2.253 1.894-3.525 2.633-0.003-0.008-0.006-0.017-0.009-0.024v0.029c-0.344 0.2-0.691 0.394-1.058 0.57-1.367 0.659-2.805 1.024-4.252 1.453 1.83 0.354 3.626 0.206 5.29-0.31-0.129 3.193-0.88 6.257-2.949 8.853-1.552 1.945-4.097 3.703-6.256 4.206-3.358 0.8-6.878 0.236-9.786-1.662-2.564-1.676-4.244-4.028-5.658-6.688 0.158 1.494 0.584 2.908 1.213 4.207-0.4 0.025-0.799 0.061-1.206 0.061-4.196 0-8.074-1.332-11.261-3.58-2.09 2.201-5.036 3.58-8.311 3.58-2.156 0-4.164-0.607-5.887-1.643-1.068-0.722-2.008-1.553-2.717-2.473-3.148-4.084-2.876-9.725 0.373-13.477-0.631 0.311-1.24 0.687-1.818 1.132-4.661 3.595-5.525 10.286-1.93 14.948 0.809 1.049 1.883 1.961 3.104 2.72-1.22 5.417-4.72 7.667-9.22 6.292-6.665-2.036-7.542-11.041-3.944-14.02-0.016 0.01-0.03 0.016-0.046 0.025 0.028-0.028 0.06-0.053 0.089-0.082-6.361 3.027-13.334 3.66-19.761 0.379-3.001-1.532-5.646-3.998-7.46-6.823-1.85-2.727-2.645-5.76-3.391-8.914-1.066 7.49 2.771 14.919 9.517 18.418 1.634 0.849 3.358 1.427 5.11 1.76-0.545 0.486-0.851 1.186-0.851 2.257 0 7.723 6.261 13.982 13.982 13.982 0.31 0 0.612-0.026 0.917-0.047 2.682 8.93 10.958 15.432 20.756 15.432 6.021 0 11.468-2.457 15.395-6.42 1.822 0.83 3.84 1.305 5.973 1.305 2.708 0 5.232-0.76 7.398-2.057 3.543 2.088 7.67 3.291 12.08 3.291 13.16 0 23.827-10.671 23.827-23.831 0-3.531-0.774-6.881-2.153-9.896 5.74-3.612 9.55-9.99 9.55-17.275zm-68.943 35.655c-6.595 0.027-8.788-4.658-7.086-8.493 3.506 2.108 9.148 3.044 15.105-0.385 0.53 1.765-1.424 8.851-8.019 8.878zm50.993-3.881c-2.314 0-4.34-1.215-5.495-3.037-0.235 0.431-0.511 0.856-0.864 1.266-3.438 3.978-9.81 1.852-9.81 1.852s3.687-1.096 6.718-3.77c1.785-1.575 2.818-3.858 3.368-5.473 0.556-2.169 0.566-4.489-0.075-6.747 3.63-1.335 6.509-4.485 7.477-8.25 0.559 0.534 0.987 1.198 1.305 1.899 0.813 1.796 0.962 3.77 0.667 5.697-0.344 1.408-0.818 2.707-1.408 3.842 2.672 0.807 4.617 3.285 4.617 6.221 0 3.589-2.92 6.5-6.5 6.5z" fill="#678E24"/><path d="m123.37 54.208c0-9.581-6.593-17.602-15.482-19.831 0.061-0.613 0.094-1.234 0.094-1.863 0-10.38-8.416-18.794-18.795-18.794-0.341 0-0.674 0.033-1.011 0.051-4.61-7.365-12.796-12.268-22.13-12.268-8.438 0-15.938 4.008-20.71 10.219-1.196-0.213-2.421-0.344-3.678-0.344-7.687 0-14.382 4.18-17.983 10.379-8.412 1.54-14.793 8.894-14.793 17.751 0 1.028 0.106 2.03 0.271 3.013-4.482 3.491-7.377 8.926-7.377 15.048 0 8.915 6.123 16.381 14.387 18.476-0.322 1.178-0.509 2.412-0.509 3.693 0 7.723 6.261 13.982 13.982 13.982 0.31 0 0.612-0.026 0.917-0.047 2.682 8.93 10.958 15.432 20.756 15.432 6.021 0 11.468-2.457 15.395-6.42 1.822 0.83 3.84 1.305 5.973 1.305 2.708 0 5.232-0.76 7.398-2.057 3.543 2.088 7.67 3.291 12.08 3.291 13.16 0 23.827-10.671 23.827-23.831 0-3.531-0.774-6.881-2.153-9.896 5.73-3.612 9.54-9.99 9.54-17.275z" stroke="#43600C" stroke-miterlimit="10" stroke-width="3" fill="none"/><path d="m92.654 43.419c2.416 2.941 3.908 6.78 3.369 10.646-0.34 4.702-3.132 8.793-6.918 11.445-3.896 2.197-8.187 3.237-12.604 1.954-4.05-1.177-7.164-3.843-9.054-7.577 2.544 2.519 5.392 4.514 8.979 5.203 3.746 0.863 7.586-0.081 10.84-1.978 3.229-1.882 5.648-5.418 6.479-9.034 0.852-3.715 0.256-7.161-1.091-10.659z" fill="#678E24"/><g fill="#A4CE5B"><path d="m65.446 5.281c-7.87 0-14.624 4.771-17.536 11.575-1.949-0.916-4.117-1.443-6.414-1.443-6.828 0-12.594 4.529-14.471 10.745-0.559-0.077-1.125-0.131-1.705-0.131-6.873 0-12.445 5.572-12.445 12.445 0 2.115 0.531 4.105 1.463 5.85-4.391 1.922-7.463 6.301-7.463 11.4 0 5.091 3.061 9.461 7.439 11.389-0.002-0.102-0.016-0.2-0.016-0.302 0-5.642 3.236-10.519 7.948-12.902 0.888 1.905 2.149 3.546 3.663 4.869-0.135-0.342-0.277-0.682-0.393-1.039-2.823-8.801 2.022-18.222 10.822-21.045 0.144-0.046 0.289-0.081 0.434-0.124-0.916 1.78-1.56 3.736-1.824 5.837-0.416 3.287 0.125 6.469 1.376 9.292 0.026-0.438 0.043-0.875 0.099-1.32 1.379-10.932 11.357-18.671 22.287-17.292 3.574 0.45 6.796 1.832 9.479 3.854-2.508-5.161-7.484-8.999-13.604-9.772-1.113-0.141-2.213-0.163-3.294-0.097 0.94-9.178 8.693-16.338 18.119-16.338 5.384 0 10.207 2.35 13.542 6.062-2.927-6.771-9.661-11.513-17.506-11.513z"/><path d="m47.557 71.311c-0.569-4.658 2.744-8.896 7.401-9.464 1.523-0.188 2.998 0.047 4.316 0.603-1.574-1.87-4.029-2.937-6.637-2.618-4.104 0.503-7.023 4.236-6.521 8.341 0.172 1.401 0.727 2.658 1.537 3.694-0.033-0.184-0.072-0.367-0.096-0.556z"/><path d="m78.613 19.896c-5.085 4.332-6.953 11.916-3.703 17.79-6.012 1.449-10.115 7.2-9.346 13.487 0.281 2.31 1.196 4.382 2.533 6.089-0.057-0.302-0.121-0.603-0.16-0.915-0.938-7.679 4.523-14.662 12.2-15.601 2.511-0.308 4.941 0.078 7.116 0.994-2.104-2.499-5.168-4.103-8.541-4.35-0.051-0.158-0.146-0.342-0.207-0.568-0.249-0.911-0.392-1.881-0.453-2.821-0.147-2.285 0.281-4.578 1.258-6.65 0.467-0.988 1.081-1.926 1.803-2.747 0.035-0.04 0.523-0.57 0.255-0.316 0.774-0.743 1.54-1.464 2.445-2.046 1.676-1.136 3.538-1.6 5.487-1.988 1.913-0.096 3.641-0.041 5.51 0.419 1.43 0.352 2.724 1.046 4.023 1.71-4.326-6.887-14.226-7.596-20.22-2.487z"/></g></svg>
