<?xml version="1.0" encoding="utf-8"?>
<!-- Generator: Adobe Illustrator 16.0.0, SVG Export Plug-In . SVG Version: 6.00 Build 0)  -->
<!DOCTYPE svg PUBLIC "-//W3C//DTD SVG 1.1//EN" "http://www.w3.org/Graphics/SVG/1.1/DTD/svg11.dtd">
<svg version="1.1" id="Layer_1" xmlns="http://www.w3.org/2000/svg" xmlns:xlink="http://www.w3.org/1999/xlink" 
	 viewBox="0 0 165.724 166.479" enable-background="new 0 0 165.724 166.479"
	 xml:space="preserve">
<g>
	
		<linearGradient id="SVGID_1_" gradientUnits="userSpaceOnUse" x1="13.228" y1="8622.5293" x2="152.9199" y2="8622.5293" gradientTransform="matrix(1 0 0 -1 0 8637.7266)">
		<stop  offset="0" style="stop-color:#41342A"/>
		<stop  offset="0.195" style="stop-color:#5E4430"/>
		<stop  offset="0.425" style="stop-color:#5A4230"/>
		<stop  offset="0.575" style="stop-color:#4B3B2E"/>
		<stop  offset="0.835" style="stop-color:#544132"/>
		<stop  offset="1" style="stop-color:#41342A"/>
	</linearGradient>
	<path fill="url(#SVGID_1_)" d="M14.01,0.063h137.71c0.001,0.092,3.457,14.068-1.364,22.883
		c-6.239,11.406-12.023,0.307-25.025,0.307s-13.002-3.156-26.002-3.156s-13,5.371-26,5.371c-12.998,0-12.998,0.745-25.998,0.745
		c-12.998,0-18.67,9.063-28.275,0.307C10.297,18.537,14.01,0.15,14.01,0.063z"/>
	<path fill="none" stroke="#709922" stroke-width="4" stroke-miterlimit="10" d="M13.91,0.022c0,11.85-3.613,18.515,5.145,26.497
		c9.605,8.757,15.277-0.307,28.275-0.307c13,0,13-0.745,25.998-0.745c13,0,13-5.371,26-5.371s13,3.156,26.002,3.156
		s19.737,11.57,25.025-0.307c3.924-8.813,1.469-11.068,1.469-22.91"/>
	
		<linearGradient id="SVGID_2_" gradientUnits="userSpaceOnUse" x1="82.9023" y1="8483.6035" x2="82.9023" y2="8624.3652" gradientTransform="matrix(1 0 0 -1 0 8637.7266)">
		<stop  offset="0" style="stop-color:#41342A"/>
		<stop  offset="0.165" style="stop-color:#544132"/>
		<stop  offset="0.425" style="stop-color:#4B3B2E"/>
		<stop  offset="0.575" style="stop-color:#5A4230"/>
		<stop  offset="0.805" style="stop-color:#5E4430"/>
		<stop  offset="1" style="stop-color:#41342A"/>
	</linearGradient>
	<path fill="url(#SVGID_2_)" d="M165.571,153.493c-6.513-0.045-7.463-0.24-15.636-0.24c-9.229,0-9.229,1.5-18.459,1.5
		c-9.229,0-9.229-1.456-18.459-1.456c-9.227,0-9.227,2.083-18.453,2.083c-9.229,0-9.229-1.926-18.457-1.926
		c-9.228,0-9.228,0.314-18.455,0.314c-9.229,0-9.229-1.709-18.456-1.709s-9.228,1.119-18.453,1.119
		c-9.228,0-19.868-1.618-20.51-1.562V11.82c0.758,0.172,1.551,0.348,2.421,0.521c9.054,1.801,8.872,2.64,18.104,2.64
		c9.23,0,9.23-0.762,18.46-0.762s9.229,1.459,18.46,1.459c9.227,0,9.227-1.705,18.453-1.705c9.229,0,9.229,1.752,18.458,1.752
		c9.228,0,9.228-2.344,18.455-2.344s9.228-0.584,18.454-0.584s9.227,1.56,18.453,1.56c8.166,0,9.118-0.892,15.62-1.097V153.493z"/>
	<g>
		
			<linearGradient id="SVGID_3_" gradientUnits="userSpaceOnUse" x1="13.6587" y1="8619.9805" x2="153.5166" y2="8619.9805" gradientTransform="matrix(1 0 0 -1 0 8637.7266)">
			<stop  offset="0" style="stop-color:#41342A"/>
			<stop  offset="0.195" style="stop-color:#5E4430"/>
			<stop  offset="0.425" style="stop-color:#5A4230"/>
			<stop  offset="0.575" style="stop-color:#4B3B2E"/>
			<stop  offset="0.835" style="stop-color:#544132"/>
			<stop  offset="1" style="stop-color:#41342A"/>
		</linearGradient>
		<path fill="url(#SVGID_3_)" d="M22.01,0.339c-1.291,8.57-5.241,18.062-7.926,24.275s7.922,11.912,15.5,10.63
			c7.578-1.28,62.25-5.515,67-4.13c4.75,1.387,21.047,1.467,26.744-0.748c5.697-2.214,21.277,1.068,24.61,1.064
			c3.333-0.002,6.507-8.803,5.326-12.308c-1.181-3.507-6.955-10.97-6.326-12.729s-31.354-7.666-37.604-6.055s-28,3.488-34.25,2.951
			c-6.25-0.535-27.331-3.227-27.331-3.227L22.01,0.339z"/>
		<path opacity="0.3" fill="#281D14" d="M15.91,0.022c0-0.089,6.1,0.128,6.1,0.041h16.94c-0.134,4.7,1.934,9.474,1.778,14.171
			c-0.477-0.01-0.975-0.016-1.511-0.016c-9.229,0-9.229,0.762-18.46,0.762c-0.9,0-1.688-0.01-2.426-0.026
			c-1.938-0.108-2.663-0.985-3.139-2.297C15.341,8.464,15.91,3.508,15.91,0.022z"/>
		<path opacity="0.3" fill="#281D14" d="M149.823,0.063c0.001,0.092,0.804,13.698,1.098,14.285c-0.319,0.003-0.626,0.008-0.97,0.008
			c-9.227,0-9.227-1.56-18.453-1.56c-7.348,0-8.855,0.369-13.82,0.521c-1.029-4.222,1.915-6.368-0.466-13.254H149.823z"/>
		<path opacity="0.3" fill="#261915" d="M15.91,0.022c0-0.089,6.1,0.128,6.1,0.041h9.255l2.108,2.232l4.629,2.374l0.652,3.389
			l-3.225,2.908l-1.215,3.144l-0.089,0.211c-4.606,0.207-6.249,0.659-13.368,0.659c-0.9,0-1.688-0.01-2.426-0.026
			c-2.687,0.047-2.966-0.663-3.066-2.314C15.051,9.126,15.909,3.32,15.91,0.022z"/>
		<g opacity="0.3">
			<path fill="#261915" d="M130.981,0.063h18.941c0.001,0.092-0.316,8.136,0.741,12.344c0.2,0.797-0.037,1.354,0.257,1.941
				c-0.319,0.003-0.626,0.008-0.97,0.008c-7.006,0-8.699-0.897-13.145-1.331l-1.115-2.253l-3.008-2.936l2.705-3.908L130.981,0.063z"
				/>
		</g>
	</g>
	<g>
		<path opacity="0.3" fill="#281D14" d="M165.571,38.653c-3.699,0.144-20.489,5.684-24.62,5.154
			c-8.193-1.05-6.079-4.282-11.936-10.032c-4.416-4.335-7.961-9.627-9.863-15.451c-0.521-1.598-0.887-3.303-1.219-5.016
			c4.76-0.155,6.346-0.512,13.564-0.512c9.227,0,9.227,1.56,18.453,1.56c8.166,0,9.118-0.892,15.62-1.097V38.653z"/>
		<path opacity="0.3" fill="#261915" d="M165.571,33.657c-1.696,0.248-4.603-4.565-4.737-4.521
			c-0.188,0.062-2.688,2.312-2.688,2.312l-2.125-2.125l-3.113-0.875l-1.637,0.875c0,0-6.438-0.625-6.75-0.688
			s-3.188-1.312-3.312-1.562s-3.5-3.375-3.93-3.429s-1.761-2.259-1.761-2.259v-3l-1.81-1.562l3.619-2.745l-0.521-1.054
			c4.445,0.434,6.139,1.331,13.145,1.331c8.166,0,9.118-0.892,15.62-1.097V33.657z"/>
		<path opacity="0.3" fill="#281D14" d="M165.571,153.493c-6.513-0.045-7.463-0.24-15.636-0.24c-9.229,0-9.229,1.5-18.459,1.5
			c-9.229,0-9.229-1.456-18.459-1.456c-9.227,0-9.227,2.083-18.453,2.083c-9.229,0-9.229-1.926-18.457-1.926
			c-9.228,0-9.228,0.314-18.455,0.314c-9.229,0-9.229-1.709-18.456-1.709s-9.228,1.119-18.453,1.119
			c-9.228,0-19.868-1.618-20.51-1.562v-34.276c9.554,1.781,19.123,18.445,28.978,18.389c18.563-0.108,33.996-10.044,51.559-10.062
			c15.368-0.012,31.087,4.082,47.588,3.82c12.718-0.202,25.015-11.978,37.214-12.346V153.493z"/>
		<path opacity="0.3" fill="#261915" d="M165.571,153.493c-6.513-0.045-7.463-0.24-15.636-0.24c-9.229,0-9.229,1.5-18.459,1.5
			c-9.229,0-9.229-1.456-18.459-1.456c-9.227,0-9.227,2.083-18.453,2.083c-9.229,0-9.229-1.926-18.457-1.926
			c-9.228,0-9.228,0.314-18.455,0.314c-9.229,0-9.229-1.709-18.456-1.709s-9.228,1.119-18.453,1.119
			c-9.228,0-19.868-1.515-20.51-1.458V134.55l3.781,6.785l3.239-1.648l3.33,2.061l3.133-5.175l3.291,0.542l3.289,0.495l3.325,3.666
			l3.236-2.217l3.181,1.464l3.207-0.495l3.188,0.951l3.197,0.144l3.238-3.614l3.175,2.349l3.191,0.291l3.226-1.65l3.131,3.248
			l3.245-2.381l3.239-1.336l3.248-1.198l3.004,4.888l3.248-1.256l3.281-1.428l2.968,3.597l3.394-2.707l3.092,3.35l3.345-2.702
			l3.249,0.504l3.093-2.904l3.556,4.427l2.964-3.278l3.468,1.731l2.85-3.142l3.207-0.35l3.618,2.129l2.724-3.365l3.602,1.885
			l3.096-1.106l3.332,0.31l3.24-0.181l2.846-2.784l3.525,1.883l2.943-2.475l3.083-1.874l3.451,2.247l3.097-2.814l3.358,3.557
			l3.28-3.898l2.99,3.809l3.369-1.34l2.908,2.174l1.067-0.925V153.493z"/>
		<path opacity="0.3" fill="#281D14" d="M41.021,23.574c-1.578,5.891-2.499,7.018-7.034,11.25
			c-4.892,4.565-11.41,10.772-17.744,11.165c-5.232,0.324-10.619-7.979-16.009-7.11V11.82c0.758,0.172,1.55,0.348,2.42,0.521
			c9.054,1.801,8.872,2.64,18.104,2.64c9.23,0,9.23-0.762,18.46-0.762c0.821,0,0.748,0.016,1.437,0.036
			C41.176,17.354,41.621,21.336,41.021,23.574z"/>
		<path opacity="0.3" fill="#261915" d="M34.127,23.366l-3.168,1.75l-2.083,0.458c0,0-6.334,1.268-6.334,1.488
			s-3.083,1.554-3.083,1.554l-5.5,0.833l-4.75-1.274H5.084L2.15,29.095l-1.917,1.789V11.82c0.758,0.172,1.551,0.348,2.421,0.521
			c9.054,1.801,8.872,2.64,18.104,2.64c7.12,0,8.762-0.452,13.369-0.659l2.373,3.42v3.833L34.127,23.366z"/>
		<path fill="none" stroke="#709922" stroke-width="4" stroke-miterlimit="10" d="M165.571,13.813
			c-1.863-0.002-6.612,0.249-12.663,0.483"/>
		<circle fill="#709922" cx="153.004" cy="14.131" r="2.173"/>
		<path fill="none" stroke="#709922" stroke-width="4" stroke-miterlimit="10" d="M0.188,151.729c9.433,0,11.328,1.45,20.556,1.45
			c9.226,0,9.226-1.119,18.453-1.119s9.228,1.709,18.456,1.709c9.228,0,9.228-0.314,18.455-0.314c9.229,0,9.229,1.926,18.457,1.926
			c9.227,0,9.227-2.083,18.453-2.083c9.229,0,9.229,1.456,18.459,1.456c9.23,0,9.23-1.5,18.459-1.5
			c9.232,0,14.007-1.567,15.533-1.543"/>
		<path fill="none" stroke="#709922" stroke-width="4" stroke-miterlimit="10" d="M13.342,13.88
			c-5.005-0.271-6.396-0.042-13.189-0.042"/>
		<circle fill="#709922" cx="13.121" cy="13.748" r="2.095"/>
	</g>
	<path fill="#261915" d="M142.209,17.074"/>
	<g>
		<g>
			<path opacity="0.5" fill="#262626" d="M46.392,18.808c-0.186-1.767-2.619-4.99-2.619-4.99s-1.276-2.729-2.614-2.219
				c-1.339,0.513-4.196,2.033-4.665,2.752c-0.468,0.717-2.742,3.971,0.893,6.574c1.392,0.898,3.136,0.702,4.222,0.791
				C42.693,21.804,46.629,21.083,46.392,18.808z"/>
			<g>
				<path fill="#808080" stroke="#4D4D4D" stroke-width="2" stroke-miterlimit="10" d="M42.041,14.493
					c-1.154-2.168-1.966,1.157-2.505,0.244c-0.538-0.911-3.077,1.568-2.176,3.328c0.903,1.759,3.203,2.452,3.252,2.935
					c0.049,0.479,5.218,0.697,5.321-1.158s-2.287-3.957-2.287-3.957L42.041,14.493z"/>
				<path fill="#A5A5A5" d="M41.573,18.554c1.079,0.701,2.649,1.262,2.619,0.732s-1.735-2.328-1.735-2.328l-1.415-0.85l-0.675,2.057
					L41.573,18.554z"/>
			</g>
		</g>
		<g>
			<path opacity="0.5" fill="#262626" d="M24.933,15.244c9.485,0.215,8.23,3.734,7.44,8.49c-0.047,1.058-0.135,2.384-0.291,3.877
				c-0.189,7.037-2.878,13.524-8.071,19.455l-0.382,0.295l-0.467-0.107c-16.271-3.717-16.275-5.216-8.87-19.967l10.155-12.055
				L24.933,15.244z"/>
			<g>
				<path fill="#808080" stroke="#4D4D4D" stroke-width="2" stroke-miterlimit="10" d="M27.479,46.525
					c10.072-7.819,6.371-18.271,8.19-23.781c1.818-5.514-6.695-5.711-6.695-5.711l-9.541,11.285c0,0-7.213,14.361-4.159,15.231
					C18.328,44.419,27.479,46.525,27.479,46.525z"/>
				<path fill="#A5A5A5" stroke="#4D4D4D" stroke-miterlimit="10" d="M25.764,43.316l5.074-15.088c0,0-2.558-2.344-3.492-3.506
					c-0.934-1.162-6.313,5.466-6.313,5.466l-1.425,10.713L25.764,43.316z"/>
				<path fill="#A09D9A" stroke="#4D4D4D" stroke-miterlimit="10" d="M30.838,28.228l5.029-6.305c0,0,0.213,19.799-8.389,24.602
					l-1.715-3.209L30.838,28.228z"/>
				<path fill="#686868" stroke="#4D4D4D" stroke-miterlimit="10" d="M26.823,24.666c0.098-2.326,0.872-4.539,1.098-6.721
					c0,0,1.333-1.148,3.097-0.674c1.767,0.475,5.128,1.955,4.889,3.713c-0.237,1.76-5.068,7.244-5.068,7.244L26.823,24.666z"/>
			</g>
		</g>
		<g>
			<path opacity="0.5" fill="#262626" d="M43.2,26.044c0.262-0.312-0.653-3.012-0.653-3.012l-6.2,2.924l0.73,4.928
				c0,0,0.467,0.533,1.91,0.322c1.44-0.209,4.329-2.041,4.329-2.041L43.2,26.044z"/>
			<path fill="#808080" stroke="#4D4D4D" stroke-width="2" stroke-miterlimit="10" d="M38.758,30.156c0,0,4.565-0.171,4.559-0.99
				c-0.006-0.822-0.93-4.281-0.93-4.281l-4.32,2.091L38.758,30.156z"/>
		</g>
	</g>
	<g>
		<path fill="#60492F" d="M36.584,35.074c0,0,0.313-0.029,0.901-0.084c0.598-0.028,1.428-0.187,2.495-0.375
			c1.066-0.188,2.35-0.52,3.84-0.839c0.75-0.166,1.545-0.345,2.406-0.508c0.425-0.095,0.876-0.15,1.338-0.214
			c0.446-0.06,0.902-0.122,1.368-0.185c1.86-0.247,3.876-0.514,6.012-0.739c2.155-0.188,4.328-0.654,6.622-0.938
			c1.141-0.163,2.3-0.328,3.474-0.496c1.199-0.182,2.413-0.366,3.636-0.552c2.406-0.394,4.985-0.591,7.498-0.862
			c2.53-0.132,5.053-0.361,7.554-0.327c2.513-0.056,4.917,0.043,7.246,0.069c2.343,0.019,4.627,0.114,6.798,0.251
			c2.172,0.125,4.229,0.361,6.118,0.655c1.892,0.284,3.608,0.685,5.104,1.111c0.747,0.218,1.441,0.444,2.075,0.667
			c0.622,0.253,1.194,0.486,1.711,0.697c1.013,0.47,1.78,0.877,2.282,1.197c0.504,0.308,0.772,0.472,0.772,0.472
			s-0.301-0.091-0.866-0.262c-0.549-0.201-1.393-0.386-2.438-0.651c-0.53-0.1-1.118-0.211-1.758-0.332
			c-0.648-0.078-1.336-0.205-2.08-0.287c-1.49-0.16-3.173-0.266-5.013-0.324c-1.843-0.035-3.84-0.005-5.96,0.043
			c-2.131,0.091-4.378,0.187-6.702,0.285c-2.332,0.094-4.741,0.19-7.19,0.288c-2.418,0.053-4.874,0.286-7.33,0.434
			c-1.222,0.114-2.443,0.228-3.66,0.341l-1.824,0.165c-0.615,0.071-1.228,0.143-1.838,0.213c-1.21,0.145-2.456,0.28-3.611,0.387
			c-1.221,0.105-2.426,0.208-3.612,0.311c-2.363,0.195-4.671,0.422-6.809,0.413c-2.147,0.056-4.181,0.054-6.059,0.052
			c-0.954,0.003-1.819,0.001-2.651,0.028c-0.836,0.019-1.645,0.065-2.403,0.105c-1.525,0.091-2.869,0.143-3.983,0.119
			c-0.551,0.008-1.056-0.03-1.488-0.065c-0.433-0.023-0.792-0.067-1.083-0.119C36.895,35.124,36.584,35.074,36.584,35.074z"/>
	</g>
	<g>
		<path fill="#60492F" d="M7.418,71.219c0,0,0.508-0.04,1.461-0.113c0.955-0.056,2.345-0.232,4.137-0.239
			c1.794-0.062,3.968-0.075,6.455-0.027c2.477,0.061,5.271,0.128,8.319,0.202c3.031,0.025,6.31,0.071,9.723-0.166
			c0.837-0.07,1.758-0.072,2.556-0.199c0.89-0.112,1.791-0.226,2.702-0.34c0.904-0.126,1.845-0.208,2.748-0.358
			c0.903-0.153,1.814-0.308,2.732-0.464c1.828-0.284,3.717-0.673,5.628-1.064c1.917-0.392,3.857-0.789,5.812-1.189
			c3.925-0.792,7.959-1.57,12.049-2.179c2.043-0.295,4.131-0.424,6.186-0.641c2.074-0.111,4.155-0.114,6.21-0.171
			c1.021,0.054,2.037,0.108,3.049,0.163c1.03,0.118,2.055,0.235,3.073,0.352c1.977,0.29,3.92,0.591,5.809,0.938
			c3.783,0.662,7.389,1.444,10.804,2.122c3.418,0.651,6.64,1.303,9.625,1.745c2.987,0.473,5.73,0.741,8.176,0.912
			c1.222,0.021,2.365,0.042,3.423,0.061c1.057-0.06,2.027-0.114,2.904-0.164c0.869-0.136,1.646-0.257,2.32-0.363
			c0.345-0.037,0.652-0.11,0.928-0.201c0.28-0.081,0.534-0.153,0.762-0.219c0.92-0.258,1.411-0.396,1.411-0.396
			s-0.464,0.213-1.333,0.612c-0.22,0.099-0.465,0.209-0.735,0.331c-0.268,0.133-0.568,0.252-0.906,0.338
			c-0.674,0.198-1.447,0.426-2.313,0.682c-0.89,0.161-1.875,0.34-2.947,0.534c-1.079,0.127-2.255,0.217-3.514,0.314
			c-2.51,0.088-5.358,0.102-8.43-0.16c-6.16-0.402-13.242-1.584-20.733-2.671c-1.873-0.277-3.77-0.503-5.686-0.717
			c-0.934-0.075-1.873-0.151-2.817-0.227c-0.97-0.041-1.944-0.082-2.923-0.124c-1.945,0.083-3.902,0.104-5.87,0.231
			c-1.971,0.232-3.946,0.379-5.925,0.679c-3.963,0.544-7.926,1.258-11.858,2.006c-1.966,0.382-3.915,0.74-5.873,1.053
			c-1.946,0.329-3.867,0.656-5.818,0.892c-0.966,0.128-1.924,0.256-2.874,0.382c-0.948,0.131-1.863,0.156-2.782,0.229
			c-0.916,0.062-1.821,0.124-2.716,0.185c-0.984,0.09-1.841,0.035-2.748,0.06c-3.572,0.071-6.905-0.249-9.963-0.525
			c-3.053-0.306-5.83-0.657-8.289-0.965c-2.459-0.277-4.599-0.549-6.362-0.701c-1.764-0.192-3.171-0.263-4.122-0.336
			C7.926,71.255,7.418,71.219,7.418,71.219z"/>
	</g>
	<g opacity="0.5">
		<path fill="#60492F" d="M7.778,99.412c0,0,0.542-0.25,1.585-0.651c1.059-0.382,2.627-0.933,4.703-1.354
			c2.07-0.434,4.635-0.828,7.588-0.931c2.953-0.136,6.291-0.092,9.88,0.202c3.591,0.27,7.45,0.669,11.458,1.128
			c4.017,0.44,8.163,0.875,12.382,0.937c4.403,0.078,8.954,0.159,13.577,0.242c2.302,0.034,4.622,0.059,6.941,0.032
			c1.161,0.002,2.323,0.004,3.487,0.005l3.483-0.071c2.326-0.028,4.636-0.128,6.94-0.22c1.155-0.03,2.3-0.109,3.438-0.2
			c1.141-0.072,2.278-0.145,3.412-0.216c2.243-0.174,4.519-0.466,6.656-0.648c1.14-0.144,2.26-0.289,3.298-0.449
			c1.085-0.173,2.162-0.344,3.23-0.514c4.321-0.7,8.616-1.454,12.798-1.869c4.183-0.404,8.256-0.504,11.999-0.006
			c3.813,0.468,6.91,1.399,9.74,2.245c1.394,0.425,2.668,0.815,3.855,1.152c0.592,0.173,1.159,0.338,1.701,0.496
			c0.547,0.138,1.067,0.269,1.562,0.393c1.99,0.457,3.592,0.779,4.69,0.942c1.104,0.191,1.691,0.294,1.691,0.294
			s-0.593,0.075-1.704,0.217c-1.115,0.142-2.764,0.299-4.881,0.293c-1.062,0.008-2.234-0.026-3.51-0.109
			c-1.265-0.103-2.632-0.242-4.062-0.386c-1.459-0.148-2.882-0.26-4.521-0.405c-0.403-0.034-0.812-0.068-1.226-0.104
			c-0.188-0.013-0.455-0.046-0.584-0.042l-0.596-0.026c-0.795-0.047-1.609-0.072-2.446-0.047c-3.337,0.04-6.962,0.515-10.812,1.268
			c-3.856,0.758-7.944,1.79-12.316,2.792c-1.101,0.248-2.192,0.482-3.354,0.713c-1.177,0.24-2.296,0.441-3.41,0.638
			c-1.23,0.193-2.346,0.338-3.536,0.496c-1.174,0.145-2.354,0.341-3.54,0.444c-4.739,0.489-9.564,0.771-14.367,0.84
			c-4.807,0.099-9.595-0.014-14.288-0.237c-4.7-0.218-9.318-0.551-13.714-0.95c-4.636-0.366-8.973-1.233-12.97-2.087
			c-4.008-0.852-7.711-1.79-11.139-2.512c-3.428-0.698-6.561-1.323-9.365-1.672c-2.801-0.342-5.266-0.531-7.306-0.52
			c-2.037,0.019-3.661,0.104-4.754,0.242C8.369,99.337,7.778,99.412,7.778,99.412z"/>
	</g>
</g>
</svg>
