<?xml version="1.0" encoding="utf-8"?>
<!-- Generator: Adobe Illustrator 16.0.0, SVG Export Plug-In . SVG Version: 6.00 Build 0)  -->
<!DOCTYPE svg PUBLIC "-//W3C//DTD SVG 1.1//EN" "http://www.w3.org/Graphics/SVG/1.1/DTD/svg11.dtd">
<svg version="1.1" id="Layer_1" xmlns="http://www.w3.org/2000/svg" xmlns:xlink="http://www.w3.org/1999/xlink" 
	 viewBox="0 0 320.221 748.924" enable-background="new 0 0 320.221 748.924"
	 xml:space="preserve">
<g>
	<g>
		<rect fill="#A0C53A" width="319.57" height="747.553"/>
		<g>
			<g>
				<g>
					<path fill="#709922" d="M46.537,130.924c-0.072-0.582-0.272-1.122-0.5-1.651c-0.224-0.53-0.48-1.047-0.748-1.559l-1.644-3.079
						c-0.53-1.047-1.046-2.111-1.438-3.27c-0.196-0.581-0.346-1.191-0.41-1.848c-0.062-0.648-0.025-1.381,0.3-2.087
						c0.073-0.178,0.177-0.342,0.288-0.503c0.046-0.061,0.014-0.037,0.123-0.165l0.072-0.082l0.145-0.163
						c0.344-0.332,0.81-0.614,1.378-0.62c0.575,0.003,0.987,0.259,1.308,0.487c0.322,0.241,0.552,0.502,0.768,0.763
						c0.825,1.05,1.334,2.139,1.836,3.232c0.48,1.097,0.883,2.21,1.27,3.32l1.104,3.274l-1.902,0.6
						c-0.161-0.706-0.194-1.271-0.235-1.875c-0.034-0.596-0.045-1.184-0.04-1.771c0.021-1.176,0.08-2.351,0.274-3.525
						c0.192-1.174,0.456-2.355,1.014-3.522c0.288-0.575,0.655-1.176,1.274-1.649c0.609-0.492,1.55-0.656,2.266-0.473l0.069,0.013
						l0.034,0.007l0.098,0.027l0.012,0.004l0.1,0.039c0.082,0.037,0.096,0.025,0.235,0.104c0.118,0.064,0.234,0.137,0.343,0.215
						c0.09,0.075,0.161,0.151,0.238,0.23c0.284,0.32,0.459,0.68,0.557,1.01c0.207,0.672,0.234,1.298,0.22,1.904
						c-0.042,1.209-0.237,2.354-0.482,3.481c-0.258,1.124-0.554,2.229-0.888,3.322c-0.319,1.097-0.709,2.167-1,3.268
						c0.086-1.142,0.297-2.267,0.465-3.39c0.171-1.123,0.352-2.241,0.463-3.359c0.124-1.112,0.21-2.232,0.143-3.298
						c-0.039-0.526-0.113-1.048-0.274-1.454c-0.074-0.209-0.184-0.359-0.282-0.455l-0.071-0.062c-0.012,0.003-0.017,0-0.019-0.011
						c0.024-0.009-0.11-0.039-0.157-0.057l-0.103-0.033l-0.012-0.004c0.157,0.047,0.041,0.014,0.074,0.023h-0.004l-0.019-0.002
						l-0.035-0.002c-0.393-0.047-0.673,0.025-0.944,0.266c-0.271,0.241-0.527,0.628-0.721,1.076
						c-0.389,0.902-0.601,1.973-0.727,3.043c-0.125,1.075-0.193,2.174-0.189,3.271c0.002,0.548,0.02,1.096,0.059,1.635
						c0.037,0.528,0.099,1.101,0.199,1.502l-1.902,0.599c-0.218-0.597-0.377-1.142-0.556-1.697l-0.53-1.646
						c-0.357-1.091-0.746-2.164-1.165-3.21c-0.417-1.034-0.882-2.082-1.468-2.886c-0.273-0.401-0.667-0.671-0.715-0.651
						c-0.023-0.01-0.089,0.014-0.182,0.057l-0.155,0.154l-0.077,0.076c0.062-0.072-0.007,0.014-0.004,0.012
						c-0.059,0.075-0.121,0.15-0.162,0.24c-0.406,0.693-0.275,1.834-0.03,2.885c0.252,1.074,0.655,2.152,1.072,3.227
						c0.408,1.081,0.863,2.154,1.255,3.262C46.177,128.592,46.58,129.743,46.537,130.924z"/>
				</g>
				<g>
					<path fill="#709922" d="M70.115,236.651c-0.072-0.583-0.272-1.122-0.5-1.651c-0.224-0.53-0.48-1.047-0.748-1.559l-1.644-3.079
						c-0.53-1.046-1.046-2.11-1.438-3.271c-0.196-0.58-0.346-1.189-0.41-1.846c-0.062-0.649-0.025-1.383,0.3-2.088
						c0.073-0.178,0.177-0.342,0.288-0.504c0.046-0.06,0.014-0.037,0.123-0.164l0.072-0.082l0.145-0.164
						c0.345-0.331,0.81-0.613,1.378-0.619c0.575,0.002,0.987,0.259,1.308,0.486c0.322,0.242,0.553,0.502,0.769,0.764
						c0.825,1.049,1.334,2.139,1.835,3.232c0.481,1.097,0.883,2.21,1.27,3.32l1.104,3.275l-1.902,0.6
						c-0.161-0.707-0.194-1.271-0.235-1.877c-0.034-0.594-0.045-1.183-0.04-1.771c0.021-1.174,0.08-2.35,0.274-3.525
						c0.192-1.174,0.457-2.354,1.015-3.521c0.289-0.576,0.656-1.176,1.275-1.648c0.609-0.493,1.549-0.656,2.265-0.475l0.069,0.014
						l0.034,0.007l0.018,0.003l0.093,0.029l0.099,0.038c0.083,0.037,0.097,0.026,0.235,0.103c0.118,0.064,0.234,0.137,0.343,0.215
						c0.09,0.076,0.161,0.152,0.239,0.23c0.284,0.32,0.459,0.68,0.556,1.011c0.208,0.672,0.235,1.298,0.22,1.903
						c-0.042,1.209-0.237,2.354-0.482,3.482c-0.258,1.125-0.555,2.229-0.887,3.322c-0.319,1.096-0.71,2.167-1,3.268
						c0.086-1.142,0.296-2.267,0.465-3.39c0.17-1.124,0.351-2.241,0.462-3.359c0.124-1.112,0.21-2.233,0.144-3.298
						c-0.039-0.527-0.114-1.049-0.274-1.455c-0.074-0.209-0.184-0.359-0.282-0.455l-0.071-0.061c-0.013,0.002-0.017,0-0.019-0.011
						c0.023-0.009-0.111-0.039-0.158-0.058l-0.102-0.031l-0.007-0.002c0.034,0.01-0.084-0.025,0.074,0.021l-0.009-0.001
						l-0.019-0.001l-0.036-0.004c-0.393-0.046-0.672,0.027-0.945,0.267c-0.271,0.241-0.527,0.628-0.72,1.075
						c-0.39,0.903-0.602,1.973-0.728,3.044c-0.125,1.075-0.193,2.175-0.189,3.271c0.002,0.549,0.02,1.097,0.059,1.637
						c0.037,0.527,0.099,1.1,0.199,1.5l-1.902,0.6c-0.218-0.598-0.377-1.141-0.556-1.697l-0.529-1.646
						c-0.358-1.091-0.747-2.164-1.165-3.211c-0.418-1.033-0.882-2.082-1.468-2.885c-0.273-0.4-0.667-0.672-0.716-0.651
						c-0.023-0.009-0.089,0.015-0.182,0.058l-0.155,0.152l-0.077,0.077c0.062-0.072-0.007,0.013-0.004,0.013
						c-0.059,0.074-0.121,0.148-0.162,0.239c-0.406,0.693-0.275,1.833-0.03,2.884c0.252,1.076,0.655,2.153,1.072,3.227
						c0.407,1.082,0.862,2.156,1.255,3.262C69.755,234.319,70.158,235.471,70.115,236.651z"/>
				</g>
				<g>
					<path fill="#709922" d="M58.326,418.651c-0.072-0.583-0.272-1.122-0.5-1.651c-0.224-0.53-0.48-1.047-0.748-1.559l-1.644-3.079
						c-0.53-1.046-1.046-2.11-1.438-3.271c-0.196-0.58-0.346-1.189-0.41-1.846c-0.062-0.649-0.025-1.382,0.3-2.088
						c0.073-0.178,0.177-0.342,0.288-0.504c0.046-0.06,0.014-0.037,0.123-0.164l0.072-0.082l0.145-0.164
						c0.344-0.33,0.81-0.613,1.378-0.619c0.575,0.003,0.987,0.26,1.308,0.487c0.322,0.241,0.552,0.502,0.768,0.763
						c0.825,1.05,1.334,2.139,1.836,3.232c0.48,1.097,0.883,2.21,1.27,3.32l1.104,3.275l-1.902,0.6
						c-0.161-0.707-0.194-1.271-0.235-1.877c-0.034-0.594-0.045-1.183-0.04-1.771c0.021-1.175,0.08-2.351,0.274-3.525
						c0.192-1.174,0.456-2.354,1.014-3.522c0.288-0.575,0.655-1.176,1.274-1.648c0.609-0.493,1.55-0.656,2.266-0.475l0.069,0.014
						l0.034,0.007l0.098,0.027l0.012,0.005l0.1,0.039c0.082,0.037,0.096,0.025,0.235,0.103c0.118,0.064,0.234,0.138,0.343,0.214
						c0.09,0.076,0.161,0.152,0.238,0.231c0.284,0.32,0.459,0.679,0.557,1.011c0.207,0.672,0.234,1.297,0.22,1.903
						c-0.042,1.208-0.237,2.354-0.482,3.481c-0.258,1.125-0.554,2.23-0.888,3.322c-0.319,1.096-0.709,2.167-1,3.268
						c0.086-1.141,0.297-2.267,0.465-3.389c0.171-1.124,0.352-2.242,0.463-3.359c0.124-1.113,0.21-2.232,0.143-3.299
						c-0.039-0.526-0.113-1.049-0.274-1.454c-0.074-0.21-0.184-0.359-0.282-0.456l-0.071-0.061c-0.012,0.002-0.017,0-0.019-0.011
						c0.024-0.009-0.11-0.039-0.157-0.058l-0.103-0.031l-0.012-0.004c0.157,0.046,0.041,0.012,0.074,0.022h-0.004l-0.019-0.001
						l-0.035-0.004c-0.393-0.046-0.673,0.027-0.944,0.267c-0.271,0.241-0.527,0.628-0.721,1.075
						c-0.389,0.904-0.601,1.973-0.727,3.044c-0.125,1.075-0.193,2.175-0.189,3.271c0.002,0.549,0.02,1.098,0.059,1.637
						c0.037,0.527,0.099,1.1,0.199,1.5l-1.902,0.6c-0.218-0.598-0.377-1.141-0.556-1.697l-0.53-1.646
						c-0.357-1.09-0.746-2.164-1.165-3.21c-0.417-1.034-0.882-2.082-1.468-2.886c-0.273-0.4-0.667-0.672-0.715-0.651
						c-0.023-0.009-0.089,0.015-0.182,0.058l-0.155,0.152l-0.077,0.077c0.062-0.072-0.007,0.014-0.004,0.013
						c-0.059,0.074-0.121,0.148-0.162,0.24c-0.406,0.692-0.275,1.832-0.03,2.883c0.252,1.076,0.655,2.153,1.072,3.227
						c0.408,1.082,0.863,2.156,1.255,3.262C57.966,416.319,58.369,417.471,58.326,418.651z"/>
				</g>
				<g>
					<path fill="#709922" d="M203.49,410.924c-0.072-0.582-0.272-1.122-0.5-1.651c-0.224-0.53-0.48-1.047-0.748-1.559l-1.644-3.079
						c-0.53-1.047-1.046-2.111-1.438-3.27c-0.196-0.581-0.346-1.191-0.41-1.848c-0.062-0.648-0.025-1.381,0.3-2.087
						c0.073-0.178,0.177-0.342,0.288-0.503c0.046-0.061,0.014-0.037,0.123-0.165l0.072-0.082l0.145-0.163
						c0.344-0.332,0.81-0.614,1.378-0.62c0.575,0.003,0.987,0.259,1.308,0.487c0.322,0.241,0.552,0.502,0.768,0.763
						c0.825,1.05,1.334,2.139,1.836,3.232c0.48,1.097,0.883,2.21,1.27,3.32l1.104,3.274l-1.902,0.6
						c-0.161-0.706-0.194-1.271-0.235-1.875c-0.034-0.596-0.045-1.184-0.04-1.771c0.021-1.176,0.08-2.351,0.274-3.525
						c0.192-1.174,0.456-2.355,1.014-3.522c0.288-0.575,0.655-1.176,1.274-1.649c0.609-0.492,1.55-0.656,2.266-0.473l0.069,0.013
						l0.034,0.007l0.098,0.027l0.012,0.004l0.1,0.039c0.082,0.037,0.096,0.025,0.235,0.104c0.118,0.064,0.234,0.137,0.343,0.215
						c0.09,0.075,0.161,0.151,0.238,0.23c0.284,0.32,0.459,0.68,0.557,1.01c0.207,0.672,0.234,1.298,0.22,1.904
						c-0.042,1.209-0.237,2.354-0.482,3.481c-0.258,1.124-0.554,2.229-0.888,3.322c-0.319,1.097-0.709,2.167-1,3.268
						c0.086-1.142,0.297-2.267,0.465-3.39c0.171-1.123,0.352-2.241,0.463-3.359c0.124-1.112,0.21-2.232,0.143-3.298
						c-0.039-0.526-0.113-1.048-0.274-1.454c-0.074-0.209-0.184-0.359-0.282-0.455l-0.071-0.062c-0.012,0.003-0.017,0-0.019-0.011
						c0.024-0.009-0.11-0.039-0.157-0.057l-0.103-0.033l-0.012-0.004c0.157,0.047,0.041,0.014,0.074,0.023h-0.004l-0.019-0.002
						l-0.035-0.002c-0.393-0.047-0.673,0.025-0.944,0.266c-0.271,0.241-0.527,0.628-0.721,1.076
						c-0.389,0.902-0.601,1.973-0.727,3.043c-0.125,1.075-0.193,2.174-0.189,3.271c0.002,0.548,0.02,1.096,0.059,1.635
						c0.037,0.528,0.099,1.101,0.199,1.502l-1.902,0.599c-0.218-0.597-0.377-1.142-0.556-1.697l-0.53-1.646
						c-0.357-1.091-0.746-2.164-1.165-3.21c-0.417-1.034-0.882-2.082-1.468-2.886c-0.273-0.401-0.667-0.671-0.715-0.651
						c-0.023-0.01-0.089,0.014-0.182,0.057l-0.155,0.154l-0.077,0.076c0.062-0.072-0.007,0.014-0.004,0.012
						c-0.059,0.075-0.121,0.15-0.162,0.24c-0.406,0.693-0.275,1.834-0.03,2.885c0.252,1.074,0.655,2.152,1.072,3.227
						c0.408,1.081,0.863,2.154,1.255,3.262C203.13,408.592,203.533,409.743,203.49,410.924z"/>
				</g>
				<g>
					<path fill="#709922" d="M122.416,468.924c-0.072-0.583-0.272-1.122-0.5-1.651c-0.224-0.53-0.48-1.047-0.748-1.559l-1.644-3.079
						c-0.53-1.047-1.046-2.111-1.438-3.271c-0.196-0.58-0.346-1.19-0.41-1.847c-0.062-0.648-0.025-1.381,0.3-2.087
						c0.073-0.179,0.177-0.343,0.288-0.503c0.046-0.061,0.014-0.037,0.123-0.166l0.072-0.082l0.145-0.163
						c0.345-0.331,0.81-0.612,1.378-0.619c0.575,0.003,0.987,0.259,1.308,0.487c0.322,0.24,0.553,0.502,0.769,0.762
						c0.825,1.051,1.334,2.14,1.835,3.232c0.481,1.098,0.883,2.211,1.27,3.321l1.104,3.274l-1.902,0.6
						c-0.161-0.706-0.194-1.271-0.235-1.876c-0.034-0.595-0.045-1.183-0.04-1.771c0.021-1.176,0.08-2.351,0.274-3.525
						c0.192-1.174,0.457-2.355,1.015-3.523c0.289-0.574,0.656-1.176,1.275-1.648c0.609-0.492,1.549-0.656,2.265-0.474l0.069,0.014
						l0.034,0.007l0.018,0.004l0.093,0.027l0.099,0.039c0.083,0.037,0.097,0.026,0.235,0.104c0.118,0.063,0.234,0.137,0.343,0.214
						c0.09,0.075,0.161,0.151,0.239,0.23c0.284,0.32,0.459,0.679,0.556,1.011c0.208,0.672,0.235,1.298,0.22,1.904
						c-0.042,1.208-0.237,2.354-0.482,3.48c-0.258,1.125-0.555,2.23-0.887,3.323c-0.319,1.097-0.71,2.167-1,3.268
						c0.086-1.142,0.296-2.267,0.465-3.39c0.17-1.123,0.351-2.241,0.462-3.359c0.124-1.113,0.21-2.232,0.144-3.299
						c-0.039-0.525-0.114-1.049-0.274-1.453c-0.074-0.21-0.184-0.359-0.282-0.455l-0.071-0.062c-0.013,0.003-0.017,0-0.019-0.011
						c0.023-0.01-0.111-0.039-0.158-0.058l-0.102-0.032l-0.007-0.002c0.034,0.01-0.084-0.024,0.074,0.021h-0.009l-0.019-0.002
						l-0.036-0.002c-0.393-0.047-0.672,0.025-0.945,0.266c-0.271,0.242-0.527,0.628-0.72,1.076c-0.39,0.902-0.602,1.973-0.728,3.043
						c-0.125,1.075-0.193,2.174-0.189,3.271c0.002,0.548,0.02,1.096,0.059,1.635c0.037,0.528,0.099,1.101,0.199,1.502l-1.902,0.599
						c-0.218-0.597-0.377-1.142-0.556-1.697l-0.529-1.646c-0.358-1.091-0.747-2.165-1.165-3.21
						c-0.418-1.035-0.882-2.082-1.468-2.886c-0.273-0.401-0.667-0.671-0.716-0.651c-0.023-0.01-0.089,0.015-0.182,0.057
						l-0.155,0.154l-0.077,0.076c0.062-0.072-0.007,0.014-0.004,0.012c-0.059,0.075-0.121,0.149-0.162,0.24
						c-0.406,0.693-0.275,1.834-0.03,2.884c0.252,1.075,0.655,2.153,1.072,3.228c0.407,1.081,0.862,2.154,1.255,3.262
						C122.056,466.592,122.459,467.743,122.416,468.924z"/>
				</g>
				<g>
					<path fill="#709922" d="M234.027,530.924c-0.072-0.583-0.272-1.122-0.5-1.651c-0.224-0.53-0.48-1.047-0.748-1.559l-1.644-3.079
						c-0.53-1.047-1.046-2.111-1.438-3.271c-0.196-0.58-0.346-1.19-0.41-1.847c-0.062-0.648-0.025-1.381,0.3-2.087
						c0.073-0.179,0.177-0.343,0.288-0.503c0.046-0.061,0.014-0.037,0.123-0.166l0.072-0.082l0.145-0.163
						c0.345-0.331,0.81-0.612,1.378-0.619c0.575,0.003,0.987,0.259,1.308,0.487c0.322,0.24,0.553,0.502,0.769,0.762
						c0.825,1.051,1.334,2.14,1.835,3.232c0.481,1.098,0.883,2.211,1.27,3.321l1.104,3.274l-1.902,0.6
						c-0.161-0.706-0.194-1.271-0.235-1.876c-0.034-0.595-0.045-1.183-0.04-1.771c0.021-1.176,0.08-2.351,0.274-3.525
						c0.192-1.174,0.457-2.355,1.015-3.523c0.289-0.574,0.656-1.176,1.275-1.648c0.609-0.492,1.549-0.656,2.265-0.474l0.069,0.014
						l0.034,0.007l0.018,0.004l0.093,0.027l0.099,0.039c0.083,0.037,0.097,0.026,0.235,0.104c0.118,0.063,0.234,0.137,0.343,0.214
						c0.09,0.075,0.161,0.151,0.239,0.23c0.284,0.32,0.459,0.679,0.556,1.011c0.208,0.672,0.235,1.298,0.22,1.904
						c-0.042,1.208-0.237,2.354-0.482,3.48c-0.258,1.125-0.555,2.23-0.887,3.323c-0.319,1.097-0.71,2.167-1,3.268
						c0.086-1.142,0.296-2.267,0.465-3.39c0.17-1.123,0.351-2.241,0.462-3.359c0.124-1.113,0.21-2.232,0.144-3.299
						c-0.039-0.525-0.114-1.049-0.274-1.453c-0.074-0.21-0.184-0.359-0.282-0.455l-0.071-0.062c-0.013,0.003-0.017,0-0.019-0.011
						c0.023-0.01-0.111-0.039-0.158-0.058l-0.102-0.032l-0.007-0.002c0.034,0.01-0.084-0.024,0.074,0.021h-0.009l-0.019-0.002
						l-0.036-0.002c-0.393-0.047-0.672,0.025-0.945,0.266c-0.271,0.242-0.527,0.628-0.72,1.076c-0.39,0.902-0.602,1.973-0.728,3.043
						c-0.125,1.075-0.193,2.174-0.189,3.271c0.002,0.548,0.02,1.096,0.059,1.635c0.037,0.528,0.099,1.101,0.199,1.502l-1.902,0.599
						c-0.218-0.597-0.377-1.142-0.556-1.697l-0.529-1.646c-0.358-1.091-0.747-2.165-1.165-3.21
						c-0.418-1.035-0.882-2.082-1.468-2.886c-0.273-0.401-0.667-0.671-0.716-0.651c-0.023-0.01-0.089,0.015-0.182,0.057
						l-0.155,0.154l-0.077,0.076c0.062-0.072-0.007,0.014-0.004,0.012c-0.059,0.075-0.121,0.149-0.162,0.24
						c-0.406,0.693-0.275,1.834-0.03,2.884c0.252,1.075,0.655,2.153,1.072,3.228c0.407,1.081,0.862,2.154,1.255,3.262
						C233.667,528.592,234.07,529.743,234.027,530.924z"/>
				</g>
				<g>
					<path fill="#709922" d="M122.416,603.041c-0.072-0.583-0.272-1.122-0.5-1.651c-0.224-0.53-0.48-1.047-0.748-1.559l-1.644-3.079
						c-0.53-1.047-1.046-2.111-1.438-3.271c-0.196-0.58-0.346-1.19-0.41-1.847c-0.062-0.648-0.025-1.381,0.3-2.087
						c0.073-0.179,0.177-0.343,0.288-0.503c0.046-0.061,0.014-0.037,0.123-0.166l0.072-0.082l0.145-0.163
						c0.345-0.331,0.81-0.612,1.378-0.619c0.575,0.003,0.987,0.259,1.308,0.487c0.322,0.24,0.553,0.502,0.769,0.762
						c0.825,1.051,1.334,2.14,1.835,3.232c0.481,1.098,0.883,2.211,1.27,3.321l1.104,3.274l-1.902,0.6
						c-0.161-0.706-0.194-1.271-0.235-1.876c-0.034-0.595-0.045-1.183-0.04-1.771c0.021-1.176,0.08-2.351,0.274-3.525
						c0.192-1.174,0.457-2.355,1.015-3.523c0.289-0.574,0.656-1.176,1.275-1.648c0.609-0.492,1.549-0.656,2.265-0.474l0.069,0.014
						l0.034,0.007l0.018,0.004l0.093,0.027l0.099,0.039c0.083,0.037,0.097,0.026,0.235,0.104c0.118,0.063,0.234,0.137,0.343,0.214
						c0.09,0.075,0.161,0.151,0.239,0.23c0.284,0.32,0.459,0.679,0.556,1.011c0.208,0.672,0.235,1.298,0.22,1.904
						c-0.042,1.208-0.237,2.354-0.482,3.48c-0.258,1.125-0.555,2.23-0.887,3.323c-0.319,1.097-0.71,2.167-1,3.268
						c0.086-1.142,0.296-2.267,0.465-3.39c0.17-1.123,0.351-2.241,0.462-3.359c0.124-1.113,0.21-2.232,0.144-3.299
						c-0.039-0.525-0.114-1.049-0.274-1.453c-0.074-0.21-0.184-0.359-0.282-0.455l-0.071-0.062c-0.013,0.003-0.017,0-0.019-0.011
						c0.023-0.01-0.111-0.039-0.158-0.058l-0.102-0.032l-0.007-0.002c0.034,0.01-0.084-0.024,0.074,0.021h-0.009l-0.019-0.002
						l-0.036-0.002c-0.393-0.047-0.672,0.025-0.945,0.266c-0.271,0.242-0.527,0.628-0.72,1.076c-0.39,0.902-0.602,1.973-0.728,3.043
						c-0.125,1.075-0.193,2.174-0.189,3.271c0.002,0.548,0.02,1.096,0.059,1.635c0.037,0.528,0.099,1.101,0.199,1.502l-1.902,0.599
						c-0.218-0.597-0.377-1.142-0.556-1.697l-0.529-1.646c-0.358-1.091-0.747-2.165-1.165-3.21
						c-0.418-1.035-0.882-2.082-1.468-2.886c-0.273-0.401-0.667-0.671-0.716-0.651c-0.023-0.01-0.089,0.015-0.182,0.057
						l-0.155,0.154l-0.077,0.076c0.062-0.072-0.007,0.014-0.004,0.012c-0.059,0.075-0.121,0.149-0.162,0.24
						c-0.406,0.693-0.275,1.834-0.03,2.884c0.252,1.075,0.655,2.153,1.072,3.228c0.407,1.081,0.862,2.154,1.255,3.262
						C122.056,600.709,122.459,601.86,122.416,603.041z"/>
				</g>
				<g>
					<path fill="#709922" d="M239.922,637.347c-0.072-0.583-0.272-1.122-0.5-1.651c-0.224-0.53-0.48-1.047-0.748-1.559l-1.644-3.079
						c-0.53-1.046-1.046-2.11-1.438-3.271c-0.196-0.58-0.346-1.189-0.41-1.846c-0.062-0.649-0.025-1.383,0.3-2.088
						c0.073-0.178,0.177-0.342,0.288-0.504c0.046-0.06,0.014-0.037,0.123-0.164l0.072-0.082l0.145-0.164
						c0.345-0.331,0.81-0.613,1.378-0.619c0.575,0.002,0.987,0.259,1.308,0.486c0.322,0.242,0.553,0.502,0.769,0.764
						c0.825,1.049,1.334,2.139,1.835,3.232c0.481,1.097,0.883,2.21,1.27,3.32l1.104,3.275l-1.902,0.6
						c-0.161-0.707-0.194-1.271-0.235-1.877c-0.034-0.594-0.045-1.183-0.04-1.771c0.021-1.174,0.08-2.35,0.274-3.525
						c0.192-1.174,0.457-2.354,1.015-3.521c0.289-0.576,0.656-1.176,1.275-1.648c0.609-0.493,1.549-0.656,2.265-0.475l0.069,0.014
						l0.035,0.007l0.017,0.003l0.093,0.029l0.1,0.038c0.082,0.037,0.096,0.026,0.234,0.103c0.118,0.064,0.234,0.137,0.343,0.215
						c0.09,0.076,0.161,0.152,0.239,0.23c0.284,0.32,0.459,0.68,0.556,1.011c0.208,0.672,0.235,1.298,0.221,1.903
						c-0.042,1.209-0.237,2.354-0.482,3.482c-0.258,1.125-0.554,2.229-0.888,3.322c-0.319,1.096-0.709,2.167-1,3.268
						c0.086-1.142,0.297-2.267,0.465-3.39c0.171-1.123,0.352-2.241,0.463-3.359c0.124-1.112,0.21-2.232,0.143-3.298
						c-0.039-0.527-0.114-1.049-0.274-1.455c-0.074-0.209-0.184-0.358-0.282-0.455l-0.071-0.061c-0.012,0.002-0.017,0-0.019-0.011
						c0.023-0.009-0.11-0.039-0.158-0.058l-0.102-0.031l-0.006-0.002c0.033,0.01-0.085-0.025,0.073,0.021l-0.009-0.001l-0.019-0.001
						l-0.036-0.004c-0.393-0.046-0.672,0.027-0.945,0.267c-0.271,0.241-0.527,0.628-0.72,1.075c-0.39,0.903-0.602,1.973-0.728,3.043
						c-0.125,1.076-0.193,2.176-0.189,3.271c0.002,0.549,0.02,1.097,0.059,1.637c0.037,0.527,0.099,1.1,0.199,1.5l-1.902,0.6
						c-0.218-0.598-0.377-1.141-0.556-1.697l-0.529-1.646c-0.358-1.091-0.747-2.164-1.165-3.211
						c-0.418-1.033-0.882-2.082-1.468-2.885c-0.273-0.4-0.667-0.672-0.716-0.651c-0.023-0.009-0.089,0.015-0.182,0.058l-0.155,0.152
						l-0.077,0.077c0.062-0.072-0.007,0.013-0.004,0.013c-0.059,0.074-0.121,0.148-0.162,0.239c-0.406,0.693-0.275,1.833-0.03,2.884
						c0.252,1.076,0.655,2.153,1.072,3.227c0.407,1.082,0.862,2.156,1.255,3.262C239.562,635.015,239.965,636.166,239.922,637.347z"
						/>
				</g>
				<g>
					<path fill="#709922" d="M84.66,748.924c-0.072-0.582-0.273-1.122-0.5-1.651c-0.225-0.53-0.481-1.047-0.75-1.559l-1.643-3.079
						c-0.53-1.047-1.047-2.111-1.438-3.271c-0.196-0.58-0.347-1.19-0.41-1.847c-0.062-0.648-0.026-1.381,0.3-2.087
						c0.072-0.179,0.177-0.343,0.287-0.503c0.046-0.061,0.014-0.037,0.124-0.166l0.071-0.082l0.145-0.163
						c0.346-0.331,0.811-0.612,1.379-0.619c0.574,0.003,0.986,0.259,1.307,0.487c0.322,0.241,0.553,0.502,0.769,0.763
						c0.825,1.05,1.334,2.139,1.836,3.232c0.48,1.097,0.883,2.21,1.27,3.32l1.104,3.274l-1.901,0.602
						c-0.162-0.707-0.196-1.272-0.237-1.877c-0.034-0.595-0.045-1.184-0.04-1.771c0.021-1.176,0.08-2.351,0.273-3.525
						c0.192-1.174,0.457-2.355,1.015-3.523c0.289-0.574,0.656-1.176,1.275-1.648c0.609-0.492,1.549-0.656,2.265-0.473l0.069,0.013
						l0.035,0.007l0.017,0.004l0.093,0.027l0.1,0.039c0.082,0.037,0.096,0.026,0.234,0.104c0.118,0.064,0.234,0.137,0.343,0.214
						c0.09,0.075,0.161,0.151,0.239,0.231c0.284,0.319,0.459,0.678,0.556,1.01c0.208,0.672,0.235,1.297,0.221,1.904
						c-0.042,1.208-0.237,2.354-0.482,3.48c-0.258,1.125-0.554,2.23-0.888,3.323c-0.319,1.097-0.709,2.167-1,3.268
						c0.086-1.142,0.297-2.267,0.465-3.39c0.171-1.123,0.352-2.241,0.463-3.359c0.124-1.112,0.21-2.232,0.143-3.299
						c-0.039-0.525-0.114-1.048-0.274-1.453c-0.074-0.21-0.184-0.359-0.282-0.455l-0.071-0.062c-0.012,0.003-0.017,0-0.019-0.011
						c0.023-0.009-0.11-0.039-0.158-0.058l-0.102-0.032l-0.006-0.002c0.033,0.01-0.085-0.024,0.073,0.021h-0.009l-0.019-0.002
						l-0.036-0.002c-0.393-0.047-0.672,0.025-0.945,0.266c-0.271,0.241-0.527,0.628-0.72,1.076c-0.39,0.902-0.602,1.972-0.728,3.043
						c-0.125,1.075-0.193,2.174-0.189,3.271c0.003,0.547,0.021,1.096,0.06,1.635c0.038,0.527,0.099,1.1,0.199,1.5l-1.901,0.602
						c-0.218-0.598-0.377-1.142-0.557-1.697l-0.529-1.646c-0.358-1.092-0.747-2.165-1.166-3.211
						c-0.417-1.034-0.882-2.082-1.468-2.886c-0.272-0.401-0.667-0.671-0.715-0.651c-0.024-0.01-0.09,0.015-0.183,0.057l-0.155,0.154
						l-0.077,0.076c0.063-0.072-0.006,0.014-0.004,0.012c-0.059,0.074-0.12,0.149-0.161,0.24c-0.407,0.693-0.276,1.834-0.03,2.884
						c0.252,1.075,0.655,2.153,1.072,3.228c0.408,1.081,0.863,2.154,1.256,3.262C84.299,746.592,84.703,747.743,84.66,748.924z"/>
				</g>
				<g>
					<path fill="#709922" d="M40.643,663.448c-0.072-0.583-0.273-1.122-0.5-1.651c-0.225-0.53-0.481-1.047-0.75-1.559l-1.643-3.079
						c-0.53-1.046-1.047-2.11-1.438-3.271c-0.196-0.58-0.347-1.189-0.41-1.846c-0.062-0.649-0.026-1.383,0.3-2.088
						c0.072-0.178,0.177-0.342,0.287-0.504c0.046-0.061,0.014-0.037,0.124-0.165l0.071-0.081l0.145-0.164
						c0.346-0.332,0.811-0.613,1.379-0.619c0.574,0.003,0.986,0.259,1.307,0.487c0.322,0.241,0.553,0.502,0.769,0.763
						c0.825,1.05,1.334,2.139,1.836,3.232c0.48,1.098,0.883,2.21,1.27,3.32l1.104,3.274l-1.901,0.601
						c-0.162-0.707-0.196-1.271-0.237-1.877c-0.034-0.594-0.045-1.182-0.04-1.771c0.021-1.175,0.08-2.351,0.273-3.526
						c0.192-1.173,0.457-2.354,1.015-3.521c0.289-0.576,0.656-1.176,1.275-1.648c0.609-0.493,1.549-0.656,2.265-0.475l0.069,0.014
						l0.035,0.007l0.017,0.003l0.093,0.029l0.1,0.038c0.082,0.037,0.096,0.026,0.234,0.103c0.118,0.064,0.234,0.137,0.343,0.215
						c0.09,0.076,0.161,0.152,0.239,0.23c0.284,0.32,0.459,0.68,0.556,1.011c0.208,0.672,0.235,1.298,0.221,1.903
						c-0.042,1.209-0.237,2.354-0.482,3.482c-0.258,1.125-0.554,2.229-0.888,3.322c-0.319,1.096-0.709,2.167-1,3.268
						c0.086-1.142,0.297-2.267,0.465-3.39c0.171-1.123,0.352-2.241,0.463-3.359c0.124-1.112,0.21-2.232,0.143-3.298
						c-0.039-0.527-0.114-1.049-0.274-1.455c-0.074-0.209-0.184-0.358-0.282-0.455l-0.071-0.061c-0.012,0.002-0.017,0-0.019-0.011
						c0.023-0.009-0.11-0.039-0.158-0.058l-0.102-0.031l-0.006-0.002c0.033,0.01-0.085-0.025,0.073,0.021l-0.009-0.001l-0.019-0.001
						l-0.036-0.004c-0.393-0.046-0.672,0.027-0.945,0.267c-0.271,0.241-0.527,0.628-0.72,1.075c-0.39,0.903-0.602,1.973-0.728,3.043
						c-0.125,1.076-0.193,2.176-0.189,3.271c0.003,0.549,0.021,1.097,0.06,1.637c0.038,0.527,0.099,1.1,0.199,1.5l-1.901,0.601
						c-0.218-0.598-0.377-1.142-0.557-1.698l-0.529-1.646c-0.358-1.09-0.747-2.164-1.166-3.21c-0.417-1.034-0.882-2.083-1.468-2.886
						c-0.272-0.4-0.667-0.672-0.715-0.651c-0.024-0.009-0.09,0.015-0.183,0.058l-0.155,0.152l-0.077,0.077
						c0.063-0.073-0.006,0.013-0.004,0.012c-0.059,0.075-0.12,0.149-0.161,0.24c-0.407,0.692-0.276,1.833-0.03,2.884
						c0.252,1.076,0.655,2.153,1.072,3.227c0.408,1.082,0.863,2.156,1.256,3.262C40.281,661.116,40.686,662.268,40.643,663.448z"/>
				</g>
				<g>
					<path fill="#709922" d="M186.922,730.924c-0.072-0.583-0.272-1.122-0.5-1.651c-0.224-0.53-0.48-1.047-0.748-1.559l-1.644-3.079
						c-0.53-1.047-1.046-2.111-1.438-3.271c-0.196-0.58-0.346-1.19-0.41-1.847c-0.062-0.648-0.025-1.381,0.3-2.087
						c0.073-0.179,0.177-0.343,0.288-0.503c0.046-0.061,0.014-0.037,0.123-0.166l0.072-0.082l0.145-0.163
						c0.345-0.331,0.81-0.612,1.378-0.619c0.575,0.003,0.987,0.259,1.308,0.487c0.322,0.24,0.553,0.502,0.769,0.762
						c0.825,1.051,1.334,2.14,1.835,3.232c0.481,1.098,0.883,2.211,1.27,3.321l1.104,3.274l-1.902,0.6
						c-0.161-0.706-0.194-1.271-0.235-1.876c-0.034-0.595-0.045-1.183-0.04-1.771c0.021-1.176,0.08-2.351,0.274-3.525
						c0.192-1.174,0.457-2.355,1.015-3.523c0.289-0.574,0.656-1.176,1.275-1.648c0.609-0.492,1.549-0.656,2.265-0.473l0.069,0.013
						l0.035,0.007l0.017,0.004l0.093,0.027l0.1,0.039c0.082,0.037,0.096,0.026,0.234,0.104c0.118,0.064,0.234,0.137,0.343,0.214
						c0.09,0.075,0.161,0.151,0.239,0.231c0.284,0.319,0.459,0.678,0.556,1.01c0.208,0.672,0.235,1.297,0.221,1.904
						c-0.042,1.208-0.237,2.354-0.482,3.48c-0.258,1.125-0.554,2.23-0.888,3.323c-0.319,1.097-0.709,2.167-1,3.268
						c0.086-1.142,0.297-2.267,0.465-3.39c0.171-1.123,0.352-2.241,0.463-3.359c0.124-1.112,0.21-2.232,0.143-3.299
						c-0.039-0.525-0.114-1.048-0.274-1.453c-0.074-0.21-0.184-0.359-0.282-0.455l-0.071-0.062c-0.012,0.003-0.017,0-0.019-0.011
						c0.023-0.009-0.11-0.039-0.158-0.058l-0.102-0.032l-0.006-0.002c0.033,0.01-0.085-0.024,0.073,0.021h-0.009l-0.019-0.002
						l-0.036-0.002c-0.393-0.047-0.672,0.025-0.945,0.266c-0.271,0.241-0.527,0.628-0.72,1.076c-0.39,0.902-0.602,1.972-0.728,3.043
						c-0.125,1.075-0.193,2.174-0.189,3.271c0.002,0.548,0.02,1.096,0.059,1.635c0.037,0.528,0.099,1.101,0.199,1.502l-1.902,0.599
						c-0.218-0.597-0.377-1.142-0.556-1.697l-0.529-1.646c-0.358-1.091-0.747-2.165-1.165-3.21
						c-0.418-1.035-0.882-2.082-1.468-2.886c-0.273-0.401-0.667-0.671-0.716-0.651c-0.023-0.01-0.089,0.014-0.182,0.057
						l-0.155,0.154l-0.077,0.076c0.062-0.072-0.007,0.014-0.004,0.012c-0.059,0.075-0.121,0.149-0.162,0.24
						c-0.406,0.693-0.275,1.834-0.03,2.884c0.252,1.075,0.655,2.153,1.072,3.228c0.407,1.081,0.862,2.154,1.255,3.262
						C186.562,728.592,186.965,729.743,186.922,730.924z"/>
				</g>
				<g>
					<path fill="#709922" d="M228.133,62.266c-0.072-0.582-0.272-1.122-0.5-1.651c-0.224-0.53-0.48-1.047-0.748-1.559l-1.644-3.079
						c-0.53-1.047-1.046-2.111-1.438-3.27c-0.196-0.581-0.346-1.191-0.41-1.848c-0.062-0.648-0.025-1.381,0.3-2.087
						c0.073-0.178,0.177-0.342,0.288-0.503c0.046-0.061,0.014-0.037,0.123-0.165l0.072-0.082l0.145-0.163
						c0.344-0.332,0.81-0.614,1.378-0.62c0.575,0.003,0.987,0.259,1.308,0.487c0.322,0.241,0.552,0.502,0.768,0.763
						c0.825,1.05,1.334,2.139,1.836,3.232c0.48,1.097,0.883,2.21,1.27,3.32l1.104,3.274l-1.902,0.6
						c-0.161-0.706-0.194-1.271-0.235-1.875c-0.034-0.596-0.045-1.184-0.04-1.771c0.021-1.176,0.08-2.351,0.274-3.525
						c0.192-1.174,0.456-2.355,1.014-3.522c0.288-0.575,0.655-1.176,1.274-1.649c0.609-0.492,1.55-0.656,2.266-0.473l0.069,0.013
						l0.034,0.007l0.098,0.027l0.012,0.004l0.1,0.039c0.082,0.037,0.096,0.025,0.235,0.104c0.118,0.064,0.234,0.137,0.343,0.215
						c0.09,0.075,0.161,0.151,0.238,0.23c0.284,0.32,0.459,0.68,0.557,1.01c0.207,0.672,0.234,1.298,0.22,1.904
						c-0.042,1.209-0.237,2.354-0.482,3.481c-0.258,1.124-0.554,2.229-0.888,3.322c-0.319,1.097-0.709,2.167-1,3.268
						c0.086-1.142,0.297-2.267,0.465-3.39c0.171-1.123,0.352-2.241,0.463-3.359c0.124-1.112,0.21-2.232,0.143-3.298
						c-0.039-0.526-0.113-1.048-0.274-1.454c-0.074-0.209-0.184-0.359-0.282-0.455l-0.071-0.062c-0.012,0.003-0.017,0-0.019-0.011
						c0.024-0.009-0.11-0.039-0.157-0.057l-0.103-0.033l-0.012-0.004c0.157,0.047,0.041,0.014,0.074,0.023h-0.004l-0.019-0.002
						l-0.035-0.002c-0.393-0.047-0.673,0.025-0.944,0.266c-0.271,0.241-0.527,0.628-0.721,1.076
						c-0.389,0.902-0.601,1.973-0.727,3.043c-0.125,1.075-0.193,2.174-0.189,3.271c0.002,0.548,0.02,1.096,0.059,1.635
						c0.037,0.528,0.099,1.101,0.199,1.502l-1.902,0.599c-0.218-0.597-0.377-1.142-0.556-1.697l-0.53-1.646
						c-0.357-1.091-0.746-2.164-1.165-3.21c-0.417-1.034-0.882-2.082-1.468-2.886c-0.273-0.401-0.667-0.671-0.715-0.651
						c-0.023-0.01-0.089,0.014-0.182,0.057l-0.155,0.154l-0.077,0.076c0.062-0.072-0.007,0.014-0.004,0.012
						c-0.059,0.075-0.121,0.15-0.162,0.24c-0.406,0.693-0.275,1.834-0.03,2.885c0.252,1.074,0.655,2.152,1.072,3.227
						c0.408,1.081,0.863,2.154,1.255,3.262C227.772,59.934,228.176,61.085,228.133,62.266z"/>
				</g>
				<g>
					<path fill="#709922" d="M157.508,148.924c-0.072-0.582-0.273-1.122-0.5-1.651c-0.225-0.53-0.481-1.047-0.75-1.559l-1.643-3.079
						c-0.53-1.047-1.047-2.111-1.438-3.271c-0.196-0.58-0.347-1.19-0.41-1.847c-0.062-0.648-0.026-1.381,0.3-2.087
						c0.072-0.179,0.177-0.343,0.287-0.503c0.046-0.061,0.014-0.037,0.124-0.166l0.071-0.082l0.145-0.163
						c0.346-0.331,0.811-0.612,1.379-0.619c0.574,0.003,0.986,0.259,1.307,0.487c0.322,0.241,0.553,0.502,0.769,0.763
						c0.825,1.05,1.334,2.139,1.836,3.232c0.48,1.097,0.883,2.21,1.27,3.32l1.104,3.274l-1.901,0.602
						c-0.162-0.707-0.196-1.272-0.237-1.877c-0.034-0.595-0.045-1.184-0.04-1.771c0.021-1.176,0.08-2.351,0.273-3.525
						c0.192-1.174,0.457-2.355,1.015-3.523c0.289-0.574,0.656-1.176,1.275-1.648c0.609-0.492,1.549-0.656,2.265-0.473l0.069,0.013
						l0.035,0.007l0.017,0.004l0.093,0.027l0.1,0.039c0.082,0.037,0.096,0.026,0.234,0.104c0.118,0.064,0.234,0.137,0.343,0.214
						c0.09,0.075,0.161,0.151,0.239,0.231c0.284,0.319,0.459,0.678,0.556,1.01c0.208,0.672,0.235,1.297,0.221,1.904
						c-0.042,1.208-0.237,2.354-0.482,3.48c-0.258,1.125-0.554,2.23-0.888,3.323c-0.319,1.097-0.709,2.167-1,3.268
						c0.086-1.142,0.297-2.267,0.465-3.39c0.171-1.123,0.352-2.241,0.463-3.359c0.124-1.112,0.21-2.232,0.143-3.299
						c-0.039-0.525-0.114-1.048-0.274-1.453c-0.074-0.21-0.184-0.359-0.282-0.455l-0.071-0.062c-0.012,0.003-0.017,0-0.019-0.011
						c0.023-0.009-0.11-0.039-0.158-0.058l-0.102-0.032l-0.006-0.002c0.033,0.01-0.085-0.024,0.073,0.021h-0.009l-0.019-0.002
						l-0.036-0.002c-0.393-0.047-0.672,0.025-0.945,0.266c-0.271,0.241-0.527,0.628-0.72,1.076c-0.39,0.902-0.602,1.972-0.728,3.043
						c-0.125,1.075-0.193,2.174-0.189,3.271c0.003,0.547,0.021,1.096,0.06,1.635c0.038,0.527,0.099,1.1,0.199,1.5l-1.901,0.602
						c-0.218-0.598-0.377-1.142-0.557-1.697l-0.529-1.646c-0.358-1.092-0.747-2.165-1.166-3.211
						c-0.417-1.034-0.882-2.082-1.468-2.886c-0.272-0.401-0.667-0.671-0.715-0.651c-0.024-0.01-0.09,0.015-0.183,0.057l-0.155,0.154
						l-0.077,0.076c0.063-0.072-0.006,0.014-0.004,0.012c-0.059,0.074-0.12,0.149-0.161,0.24c-0.407,0.693-0.276,1.834-0.03,2.884
						c0.252,1.075,0.655,2.153,1.072,3.228c0.408,1.081,0.863,2.154,1.256,3.262C157.146,146.592,157.551,147.743,157.508,148.924z"
						/>
				</g>
				<g>
					<path fill="#709922" d="M245.816,156.651c-0.072-0.583-0.272-1.122-0.5-1.651c-0.224-0.53-0.48-1.047-0.748-1.559l-1.644-3.079
						c-0.53-1.046-1.046-2.11-1.438-3.271c-0.196-0.58-0.346-1.189-0.41-1.846c-0.062-0.649-0.025-1.383,0.3-2.088
						c0.073-0.178,0.177-0.342,0.288-0.504c0.046-0.06,0.014-0.037,0.123-0.164l0.072-0.082l0.145-0.164
						c0.345-0.331,0.81-0.613,1.378-0.619c0.575,0.002,0.987,0.259,1.308,0.486c0.322,0.242,0.553,0.502,0.769,0.764
						c0.825,1.049,1.334,2.139,1.835,3.232c0.481,1.097,0.883,2.21,1.27,3.32l1.104,3.275l-1.902,0.6
						c-0.161-0.707-0.194-1.271-0.235-1.877c-0.034-0.594-0.045-1.183-0.04-1.771c0.021-1.174,0.08-2.35,0.274-3.525
						c0.192-1.174,0.457-2.354,1.015-3.521c0.289-0.576,0.656-1.176,1.275-1.648c0.609-0.493,1.549-0.656,2.265-0.475l0.069,0.014
						l0.035,0.007l0.017,0.003l0.093,0.029l0.1,0.038c0.082,0.037,0.096,0.026,0.234,0.103c0.118,0.064,0.234,0.137,0.343,0.215
						c0.09,0.076,0.161,0.152,0.239,0.23c0.284,0.32,0.459,0.68,0.556,1.011c0.208,0.672,0.235,1.298,0.221,1.903
						c-0.042,1.209-0.237,2.354-0.482,3.482c-0.258,1.125-0.554,2.229-0.888,3.322c-0.319,1.096-0.709,2.167-1,3.268
						c0.086-1.142,0.297-2.267,0.465-3.39c0.171-1.123,0.352-2.241,0.463-3.359c0.124-1.112,0.21-2.232,0.143-3.298
						c-0.039-0.527-0.114-1.049-0.274-1.455c-0.074-0.209-0.184-0.358-0.282-0.455l-0.071-0.061c-0.012,0.002-0.017,0-0.019-0.011
						c0.023-0.009-0.11-0.039-0.158-0.058l-0.102-0.031l-0.006-0.002c0.033,0.01-0.085-0.025,0.073,0.021l-0.009-0.001l-0.019-0.001
						l-0.036-0.004c-0.393-0.046-0.672,0.027-0.945,0.267c-0.271,0.241-0.527,0.628-0.72,1.075c-0.39,0.903-0.602,1.973-0.728,3.043
						c-0.125,1.076-0.193,2.176-0.189,3.271c0.002,0.549,0.02,1.097,0.059,1.637c0.037,0.527,0.099,1.1,0.199,1.5l-1.902,0.6
						c-0.218-0.598-0.377-1.141-0.556-1.697l-0.529-1.646c-0.358-1.091-0.747-2.164-1.165-3.211
						c-0.418-1.033-0.882-2.082-1.468-2.885c-0.273-0.4-0.667-0.672-0.716-0.651c-0.023-0.009-0.089,0.015-0.182,0.058l-0.155,0.152
						l-0.077,0.077c0.062-0.072-0.007,0.013-0.004,0.013c-0.059,0.074-0.121,0.148-0.162,0.239c-0.406,0.693-0.275,1.833-0.03,2.884
						c0.252,1.076,0.655,2.153,1.072,3.227c0.407,1.082,0.862,2.156,1.255,3.262C245.456,154.319,245.859,155.471,245.816,156.651z"
						/>
				</g>
				<g>
					<path fill="#709922" d="M181.027,228.924c-0.072-0.583-0.272-1.122-0.5-1.651c-0.224-0.53-0.48-1.047-0.748-1.559l-1.644-3.079
						c-0.53-1.047-1.046-2.111-1.438-3.271c-0.196-0.58-0.346-1.19-0.41-1.847c-0.062-0.648-0.025-1.381,0.3-2.087
						c0.073-0.179,0.177-0.343,0.288-0.503c0.046-0.061,0.014-0.037,0.123-0.166l0.072-0.082l0.145-0.163
						c0.345-0.331,0.81-0.612,1.378-0.619c0.575,0.003,0.987,0.259,1.308,0.487c0.322,0.24,0.553,0.502,0.769,0.762
						c0.825,1.051,1.334,2.14,1.835,3.232c0.481,1.098,0.883,2.211,1.27,3.321l1.104,3.274l-1.902,0.6
						c-0.161-0.706-0.194-1.271-0.235-1.876c-0.034-0.595-0.045-1.183-0.04-1.771c0.021-1.176,0.08-2.351,0.274-3.525
						c0.192-1.174,0.457-2.355,1.015-3.523c0.289-0.574,0.656-1.176,1.275-1.648c0.609-0.492,1.549-0.656,2.265-0.473l0.069,0.013
						l0.035,0.007l0.017,0.004l0.093,0.027l0.1,0.039c0.082,0.037,0.096,0.026,0.234,0.104c0.118,0.064,0.234,0.137,0.343,0.214
						c0.09,0.075,0.161,0.151,0.239,0.231c0.284,0.319,0.459,0.678,0.556,1.01c0.208,0.672,0.235,1.297,0.221,1.904
						c-0.042,1.208-0.237,2.354-0.482,3.48c-0.258,1.125-0.554,2.23-0.888,3.323c-0.319,1.097-0.709,2.167-1,3.268
						c0.086-1.142,0.297-2.267,0.465-3.39c0.171-1.123,0.352-2.241,0.463-3.359c0.124-1.112,0.21-2.232,0.143-3.299
						c-0.039-0.525-0.114-1.048-0.274-1.453c-0.074-0.21-0.184-0.359-0.282-0.455l-0.071-0.062c-0.012,0.003-0.017,0-0.019-0.011
						c0.023-0.009-0.11-0.039-0.158-0.058l-0.102-0.032l-0.006-0.002c0.033,0.01-0.085-0.024,0.073,0.021h-0.009l-0.019-0.002
						l-0.036-0.002c-0.393-0.047-0.672,0.025-0.945,0.266c-0.271,0.241-0.527,0.628-0.72,1.076c-0.39,0.902-0.602,1.972-0.728,3.043
						c-0.125,1.075-0.193,2.174-0.189,3.271c0.002,0.548,0.02,1.096,0.059,1.635c0.037,0.528,0.099,1.101,0.199,1.502l-1.902,0.599
						c-0.218-0.597-0.377-1.142-0.556-1.697l-0.529-1.646c-0.358-1.091-0.747-2.165-1.165-3.21
						c-0.418-1.035-0.882-2.082-1.468-2.886c-0.273-0.401-0.667-0.671-0.716-0.651c-0.023-0.01-0.089,0.014-0.182,0.057
						l-0.155,0.154l-0.077,0.076c0.062-0.072-0.007,0.014-0.004,0.012c-0.059,0.075-0.121,0.149-0.162,0.24
						c-0.406,0.693-0.275,1.834-0.03,2.884c0.252,1.075,0.655,2.153,1.072,3.228c0.407,1.081,0.862,2.154,1.255,3.262
						C180.667,226.592,181.07,227.743,181.027,228.924z"/>
				</g>
				<g>
					<path fill="#709922" d="M134.205,330.924c-0.072-0.583-0.272-1.122-0.5-1.651c-0.224-0.53-0.48-1.047-0.748-1.559l-1.644-3.079
						c-0.53-1.047-1.046-2.111-1.438-3.271c-0.196-0.58-0.346-1.19-0.41-1.847c-0.062-0.648-0.025-1.381,0.3-2.087
						c0.073-0.179,0.177-0.343,0.288-0.503c0.046-0.061,0.014-0.037,0.123-0.166l0.072-0.082l0.145-0.163
						c0.345-0.331,0.81-0.612,1.378-0.619c0.575,0.003,0.987,0.259,1.308,0.487c0.322,0.24,0.553,0.502,0.769,0.762
						c0.825,1.051,1.334,2.14,1.835,3.232c0.481,1.098,0.883,2.211,1.27,3.321l1.104,3.274l-1.902,0.6
						c-0.161-0.706-0.194-1.271-0.235-1.876c-0.034-0.595-0.045-1.183-0.04-1.771c0.021-1.176,0.08-2.351,0.274-3.525
						c0.192-1.174,0.457-2.355,1.015-3.523c0.289-0.574,0.656-1.176,1.275-1.648c0.609-0.492,1.549-0.656,2.265-0.473l0.069,0.013
						l0.035,0.007l0.017,0.004l0.093,0.027l0.1,0.039c0.082,0.037,0.096,0.026,0.234,0.104c0.118,0.064,0.234,0.137,0.343,0.214
						c0.09,0.075,0.161,0.151,0.239,0.231c0.284,0.319,0.459,0.678,0.556,1.01c0.208,0.672,0.235,1.297,0.221,1.904
						c-0.042,1.208-0.237,2.354-0.482,3.48c-0.258,1.125-0.554,2.23-0.888,3.323c-0.319,1.097-0.709,2.167-1,3.268
						c0.086-1.142,0.297-2.267,0.465-3.39c0.171-1.123,0.352-2.241,0.463-3.359c0.124-1.112,0.21-2.232,0.143-3.299
						c-0.039-0.525-0.114-1.048-0.274-1.453c-0.074-0.21-0.184-0.359-0.282-0.455l-0.071-0.062c-0.012,0.003-0.017,0-0.019-0.011
						c0.023-0.009-0.11-0.039-0.158-0.058l-0.102-0.032l-0.006-0.002c0.033,0.01-0.085-0.024,0.073,0.021h-0.009l-0.019-0.002
						l-0.036-0.002c-0.393-0.047-0.672,0.025-0.945,0.266c-0.271,0.241-0.527,0.628-0.72,1.076c-0.39,0.902-0.602,1.972-0.728,3.043
						c-0.125,1.075-0.193,2.174-0.189,3.271c0.002,0.548,0.02,1.096,0.059,1.635c0.037,0.528,0.099,1.101,0.199,1.502l-1.902,0.599
						c-0.218-0.597-0.377-1.142-0.556-1.697l-0.529-1.646c-0.358-1.091-0.747-2.165-1.165-3.21
						c-0.418-1.035-0.882-2.082-1.468-2.886c-0.273-0.401-0.667-0.671-0.716-0.651c-0.023-0.01-0.089,0.014-0.182,0.057
						l-0.155,0.154l-0.077,0.076c0.062-0.072-0.007,0.014-0.004,0.012c-0.059,0.075-0.121,0.149-0.162,0.24
						c-0.406,0.693-0.275,1.834-0.03,2.884c0.252,1.075,0.655,2.153,1.072,3.228c0.407,1.081,0.862,2.154,1.255,3.262
						C133.845,328.592,134.248,329.743,134.205,330.924z"/>
				</g>
				<g>
					<path fill="#709922" d="M234.027,323.196c-0.072-0.583-0.272-1.122-0.5-1.651c-0.224-0.53-0.48-1.047-0.748-1.559l-1.644-3.079
						c-0.53-1.046-1.046-2.11-1.438-3.271c-0.196-0.58-0.346-1.189-0.41-1.846c-0.062-0.649-0.025-1.383,0.3-2.088
						c0.073-0.178,0.177-0.342,0.288-0.504c0.046-0.06,0.014-0.037,0.123-0.164l0.072-0.082l0.145-0.164
						c0.345-0.331,0.81-0.613,1.378-0.619c0.575,0.002,0.987,0.259,1.308,0.486c0.322,0.242,0.553,0.502,0.769,0.764
						c0.825,1.049,1.334,2.139,1.835,3.232c0.481,1.097,0.883,2.21,1.27,3.32l1.104,3.275l-1.902,0.6
						c-0.161-0.707-0.194-1.271-0.235-1.877c-0.034-0.594-0.045-1.183-0.04-1.771c0.021-1.174,0.08-2.35,0.274-3.525
						c0.192-1.174,0.457-2.354,1.015-3.521c0.289-0.576,0.656-1.176,1.275-1.648c0.609-0.493,1.549-0.656,2.265-0.475l0.069,0.014
						l0.034,0.007l0.018,0.003l0.093,0.029l0.099,0.038c0.083,0.037,0.097,0.026,0.235,0.103c0.118,0.064,0.234,0.137,0.343,0.215
						c0.09,0.076,0.161,0.152,0.239,0.23c0.284,0.32,0.459,0.68,0.556,1.011c0.208,0.672,0.235,1.298,0.22,1.903
						c-0.042,1.209-0.237,2.354-0.482,3.482c-0.258,1.125-0.555,2.229-0.887,3.322c-0.319,1.096-0.71,2.167-1,3.268
						c0.086-1.142,0.296-2.267,0.465-3.39c0.17-1.124,0.351-2.241,0.462-3.359c0.124-1.112,0.21-2.233,0.144-3.298
						c-0.039-0.527-0.114-1.049-0.274-1.455c-0.074-0.209-0.184-0.359-0.282-0.455l-0.071-0.061c-0.013,0.002-0.017,0-0.019-0.011
						c0.023-0.009-0.111-0.039-0.158-0.058l-0.102-0.031l-0.007-0.002c0.034,0.01-0.084-0.025,0.074,0.021l-0.009-0.001
						l-0.019-0.001l-0.036-0.004c-0.393-0.046-0.672,0.027-0.945,0.267c-0.271,0.241-0.527,0.628-0.72,1.075
						c-0.39,0.903-0.602,1.973-0.728,3.044c-0.125,1.075-0.193,2.175-0.189,3.271c0.002,0.549,0.02,1.097,0.059,1.637
						c0.037,0.527,0.099,1.1,0.199,1.5l-1.902,0.6c-0.218-0.598-0.377-1.141-0.556-1.697l-0.529-1.646
						c-0.358-1.091-0.747-2.164-1.165-3.211c-0.418-1.033-0.882-2.082-1.468-2.885c-0.273-0.4-0.667-0.672-0.716-0.651
						c-0.023-0.009-0.089,0.015-0.182,0.058l-0.155,0.152l-0.077,0.077c0.062-0.072-0.007,0.013-0.004,0.013
						c-0.059,0.074-0.121,0.148-0.162,0.239c-0.406,0.693-0.275,1.833-0.03,2.884c0.252,1.076,0.655,2.153,1.072,3.227
						c0.407,1.082,0.862,2.156,1.255,3.262C233.667,320.864,234.07,322.016,234.027,323.196z"/>
				</g>
				<g>
					<path fill="#709922" d="M90.555,62.266c-0.072-0.582-0.273-1.122-0.5-1.651c-0.225-0.53-0.481-1.047-0.75-1.559l-1.643-3.079
						c-0.53-1.047-1.047-2.111-1.438-3.271c-0.196-0.58-0.347-1.19-0.41-1.847c-0.062-0.648-0.026-1.381,0.3-2.087
						c0.072-0.179,0.177-0.343,0.287-0.503c0.046-0.061,0.014-0.037,0.124-0.166l0.071-0.082l0.145-0.163
						c0.346-0.331,0.811-0.612,1.379-0.619c0.574,0.003,0.986,0.259,1.307,0.487c0.322,0.241,0.553,0.502,0.769,0.763
						c0.825,1.05,1.334,2.139,1.836,3.232c0.48,1.097,0.883,2.21,1.27,3.32l1.104,3.274l-1.901,0.602
						c-0.162-0.707-0.196-1.272-0.237-1.877c-0.034-0.595-0.045-1.184-0.04-1.771c0.021-1.176,0.08-2.351,0.273-3.525
						c0.192-1.174,0.457-2.355,1.015-3.523c0.289-0.574,0.656-1.176,1.275-1.648c0.609-0.492,1.549-0.656,2.265-0.473l0.069,0.013
						l0.035,0.007l0.017,0.004l0.093,0.027l0.1,0.039c0.082,0.037,0.096,0.026,0.234,0.104c0.118,0.064,0.234,0.137,0.343,0.214
						c0.09,0.075,0.161,0.151,0.239,0.231c0.284,0.319,0.459,0.678,0.556,1.01c0.208,0.672,0.235,1.297,0.221,1.904
						c-0.042,1.208-0.237,2.354-0.482,3.48c-0.258,1.125-0.554,2.23-0.888,3.323c-0.319,1.097-0.709,2.167-1,3.268
						c0.086-1.142,0.297-2.267,0.465-3.39c0.171-1.123,0.352-2.241,0.463-3.359c0.124-1.112,0.21-2.232,0.143-3.299
						c-0.039-0.525-0.114-1.048-0.274-1.453c-0.074-0.21-0.184-0.359-0.282-0.455l-0.071-0.062c-0.012,0.003-0.017,0-0.019-0.011
						c0.023-0.009-0.11-0.039-0.158-0.058l-0.102-0.032l-0.006-0.002c0.033,0.01-0.085-0.024,0.073,0.021h-0.009l-0.019-0.002
						l-0.036-0.002c-0.393-0.047-0.672,0.025-0.945,0.266c-0.271,0.241-0.527,0.628-0.72,1.076c-0.39,0.902-0.602,1.972-0.728,3.043
						c-0.125,1.075-0.193,2.174-0.189,3.271c0.003,0.547,0.021,1.096,0.06,1.635c0.038,0.527,0.099,1.1,0.199,1.5l-1.901,0.602
						c-0.218-0.598-0.377-1.142-0.557-1.697l-0.529-1.646c-0.358-1.092-0.747-2.165-1.166-3.211
						c-0.417-1.034-0.882-2.082-1.468-2.886c-0.272-0.401-0.667-0.671-0.715-0.651c-0.024-0.01-0.09,0.015-0.183,0.057l-0.155,0.154
						l-0.077,0.076c0.063-0.072-0.006,0.014-0.004,0.012c-0.059,0.074-0.12,0.149-0.161,0.24c-0.407,0.693-0.276,1.834-0.03,2.884
						c0.252,1.075,0.655,2.153,1.072,3.228c0.408,1.081,0.863,2.154,1.256,3.262C90.193,59.934,90.598,61.085,90.555,62.266z"/>
				</g>
			</g>
		</g>
		<g>
			<g>
				<g>
					<path fill="#709922" d="M273.689,78.901c-0.072-0.583-0.273-1.122-0.5-1.651c-0.225-0.53-0.481-1.047-0.75-1.559l-1.643-3.079
						c-0.53-1.046-1.047-2.11-1.438-3.271c-0.196-0.58-0.347-1.189-0.41-1.846c-0.062-0.649-0.026-1.383,0.3-2.088
						c0.072-0.178,0.177-0.342,0.287-0.504c0.046-0.061,0.014-0.037,0.124-0.165l0.071-0.081l0.145-0.164
						c0.346-0.332,0.811-0.613,1.379-0.619c0.574,0.003,0.986,0.259,1.307,0.487c0.322,0.241,0.553,0.502,0.769,0.763
						c0.825,1.05,1.334,2.139,1.836,3.232c0.48,1.098,0.883,2.21,1.27,3.32l1.104,3.274l-1.901,0.601
						c-0.162-0.707-0.196-1.271-0.237-1.877c-0.034-0.594-0.045-1.182-0.04-1.771c0.021-1.175,0.08-2.351,0.273-3.526
						c0.192-1.173,0.457-2.354,1.015-3.521c0.289-0.576,0.656-1.176,1.275-1.648c0.609-0.493,1.549-0.656,2.265-0.475l0.069,0.014
						l0.035,0.007l0.017,0.003l0.093,0.029l0.1,0.038c0.082,0.037,0.096,0.026,0.234,0.103c0.118,0.064,0.234,0.137,0.343,0.215
						c0.09,0.076,0.161,0.152,0.239,0.23c0.284,0.32,0.459,0.68,0.556,1.011c0.208,0.672,0.235,1.298,0.221,1.903
						c-0.042,1.209-0.237,2.354-0.482,3.482c-0.258,1.125-0.554,2.229-0.888,3.322c-0.319,1.096-0.709,2.167-1,3.268
						c0.086-1.142,0.297-2.267,0.465-3.39c0.171-1.123,0.352-2.241,0.463-3.359c0.124-1.112,0.21-2.232,0.143-3.298
						c-0.039-0.527-0.114-1.049-0.274-1.455c-0.074-0.209-0.184-0.358-0.282-0.455l-0.071-0.061c-0.012,0.002-0.017,0-0.019-0.011
						c0.023-0.009-0.11-0.039-0.158-0.058l-0.102-0.031l-0.006-0.002c0.033,0.01-0.085-0.025,0.073,0.021l-0.009-0.001l-0.019-0.001
						l-0.036-0.004c-0.393-0.046-0.672,0.027-0.945,0.267c-0.271,0.241-0.527,0.628-0.72,1.075c-0.39,0.903-0.602,1.973-0.728,3.043
						c-0.125,1.076-0.193,2.176-0.189,3.271c0.003,0.549,0.021,1.097,0.06,1.637c0.038,0.527,0.099,1.1,0.199,1.5l-1.901,0.601
						c-0.218-0.598-0.377-1.142-0.557-1.698l-0.529-1.646c-0.358-1.09-0.747-2.164-1.166-3.21c-0.417-1.034-0.882-2.083-1.468-2.886
						c-0.272-0.4-0.667-0.672-0.715-0.651c-0.024-0.009-0.09,0.015-0.183,0.058l-0.155,0.152l-0.077,0.077
						c0.063-0.073-0.006,0.013-0.004,0.012c-0.059,0.075-0.12,0.149-0.161,0.24c-0.407,0.692-0.276,1.833-0.03,2.884
						c0.252,1.076,0.655,2.153,1.072,3.227c0.408,1.082,0.863,2.156,1.256,3.262C273.328,76.569,273.732,77.721,273.689,78.901z"/>
				</g>
				<g>
					<path fill="#709922" d="M297.268,184.629c-0.072-0.582-0.272-1.122-0.5-1.651c-0.224-0.53-0.48-1.047-0.748-1.559l-1.644-3.079
						c-0.53-1.047-1.046-2.111-1.438-3.27c-0.196-0.581-0.346-1.191-0.41-1.848c-0.062-0.648-0.025-1.381,0.3-2.087
						c0.073-0.178,0.177-0.342,0.288-0.503c0.046-0.061,0.014-0.037,0.123-0.165l0.072-0.082l0.145-0.163
						c0.344-0.332,0.81-0.614,1.378-0.62c0.575,0.003,0.987,0.259,1.308,0.487c0.322,0.241,0.552,0.502,0.768,0.763
						c0.825,1.05,1.334,2.139,1.836,3.232c0.48,1.097,0.883,2.21,1.27,3.32l1.104,3.274l-1.902,0.6
						c-0.161-0.706-0.194-1.271-0.235-1.875c-0.034-0.596-0.045-1.184-0.04-1.771c0.021-1.176,0.08-2.351,0.274-3.525
						c0.192-1.174,0.456-2.355,1.014-3.522c0.288-0.575,0.655-1.176,1.274-1.649c0.609-0.492,1.55-0.656,2.266-0.473l0.069,0.013
						l0.034,0.007l0.098,0.027l0.012,0.004l0.1,0.039c0.082,0.037,0.096,0.025,0.235,0.104c0.118,0.064,0.234,0.137,0.343,0.215
						c0.09,0.075,0.161,0.151,0.238,0.23c0.284,0.32,0.459,0.68,0.557,1.01c0.207,0.672,0.234,1.298,0.22,1.904
						c-0.042,1.209-0.237,2.354-0.482,3.481c-0.258,1.124-0.554,2.229-0.888,3.322c-0.319,1.097-0.709,2.167-1,3.268
						c0.086-1.142,0.297-2.267,0.465-3.39c0.171-1.123,0.352-2.241,0.463-3.359c0.124-1.112,0.21-2.232,0.143-3.298
						c-0.039-0.526-0.113-1.048-0.274-1.454c-0.074-0.209-0.184-0.359-0.282-0.455l-0.071-0.062c-0.012,0.003-0.017,0-0.019-0.011
						c0.024-0.009-0.11-0.039-0.157-0.057l-0.103-0.033l-0.012-0.004c0.157,0.047,0.041,0.014,0.074,0.023h-0.004l-0.019-0.002
						l-0.035-0.002c-0.393-0.047-0.673,0.025-0.944,0.266c-0.271,0.241-0.527,0.628-0.721,1.076
						c-0.389,0.902-0.601,1.973-0.727,3.043c-0.125,1.075-0.193,2.174-0.189,3.271c0.002,0.548,0.02,1.096,0.059,1.635
						c0.037,0.528,0.099,1.101,0.199,1.502l-1.902,0.599c-0.218-0.597-0.377-1.142-0.556-1.697l-0.53-1.646
						c-0.357-1.091-0.746-2.164-1.165-3.21c-0.417-1.034-0.882-2.082-1.468-2.886c-0.273-0.401-0.667-0.671-0.715-0.651
						c-0.023-0.01-0.089,0.014-0.182,0.057l-0.155,0.154l-0.077,0.076c0.062-0.072-0.007,0.014-0.004,0.012
						c-0.059,0.075-0.121,0.15-0.162,0.24c-0.406,0.693-0.275,1.834-0.03,2.885c0.252,1.074,0.655,2.152,1.072,3.227
						c0.408,1.081,0.863,2.154,1.255,3.262C296.907,182.297,297.311,183.448,297.268,184.629z"/>
				</g>
				<g>
					<path fill="#709922" d="M285.479,366.629c-0.072-0.582-0.273-1.122-0.5-1.651c-0.225-0.53-0.481-1.047-0.75-1.559l-1.643-3.079
						c-0.53-1.047-1.047-2.111-1.438-3.271c-0.196-0.58-0.347-1.19-0.41-1.847c-0.062-0.648-0.026-1.381,0.3-2.087
						c0.072-0.179,0.177-0.343,0.287-0.503c0.046-0.061,0.014-0.037,0.124-0.166l0.071-0.082l0.145-0.163
						c0.346-0.331,0.811-0.612,1.379-0.619c0.574,0.003,0.986,0.259,1.307,0.487c0.322,0.241,0.553,0.502,0.769,0.763
						c0.825,1.05,1.334,2.139,1.836,3.232c0.48,1.097,0.883,2.21,1.27,3.32l1.104,3.274l-1.901,0.602
						c-0.162-0.707-0.196-1.272-0.237-1.877c-0.034-0.595-0.045-1.184-0.04-1.771c0.021-1.176,0.08-2.351,0.273-3.525
						c0.192-1.174,0.457-2.355,1.015-3.523c0.289-0.574,0.656-1.176,1.275-1.648c0.609-0.492,1.549-0.656,2.265-0.473l0.069,0.013
						l0.035,0.007l0.017,0.004l0.093,0.027l0.1,0.039c0.082,0.037,0.096,0.026,0.234,0.104c0.118,0.064,0.234,0.137,0.343,0.214
						c0.09,0.075,0.161,0.151,0.239,0.231c0.284,0.319,0.459,0.678,0.556,1.01c0.208,0.672,0.235,1.297,0.221,1.904
						c-0.042,1.208-0.237,2.354-0.482,3.48c-0.258,1.125-0.554,2.23-0.888,3.323c-0.319,1.097-0.709,2.167-1,3.268
						c0.086-1.142,0.297-2.267,0.465-3.39c0.171-1.123,0.352-2.241,0.463-3.359c0.124-1.112,0.21-2.232,0.143-3.299
						c-0.039-0.525-0.114-1.048-0.274-1.453c-0.074-0.21-0.184-0.359-0.282-0.455l-0.071-0.062c-0.012,0.003-0.017,0-0.019-0.011
						c0.023-0.009-0.11-0.039-0.158-0.058l-0.102-0.032l-0.006-0.002c0.033,0.01-0.085-0.024,0.073,0.021h-0.009l-0.019-0.002
						l-0.036-0.002c-0.393-0.047-0.672,0.025-0.945,0.266c-0.271,0.241-0.527,0.628-0.72,1.076c-0.39,0.902-0.602,1.972-0.728,3.043
						c-0.125,1.075-0.193,2.174-0.189,3.271c0.003,0.547,0.021,1.096,0.06,1.635c0.038,0.527,0.099,1.1,0.199,1.5l-1.901,0.602
						c-0.218-0.598-0.377-1.142-0.557-1.697l-0.529-1.646c-0.358-1.092-0.747-2.165-1.166-3.211
						c-0.417-1.034-0.882-2.082-1.468-2.886c-0.272-0.401-0.667-0.671-0.715-0.651c-0.024-0.01-0.09,0.015-0.183,0.057l-0.155,0.154
						l-0.077,0.076c0.063-0.072-0.006,0.014-0.004,0.012c-0.059,0.074-0.12,0.149-0.161,0.24c-0.407,0.693-0.276,1.834-0.03,2.884
						c0.252,1.075,0.655,2.153,1.072,3.228c0.408,1.081,0.863,2.154,1.256,3.262C285.117,364.297,285.521,365.448,285.479,366.629z"
						/>
				</g>
				<g>
					<path fill="#709922" d="M311.811,696.901c-0.072-0.583-0.272-1.122-0.5-1.651c-0.224-0.53-0.48-1.047-0.748-1.559l-1.644-3.079
						c-0.53-1.046-1.046-2.11-1.438-3.271c-0.196-0.58-0.346-1.189-0.41-1.846c-0.062-0.649-0.025-1.383,0.3-2.088
						c0.073-0.178,0.177-0.342,0.288-0.504c0.046-0.06,0.014-0.037,0.123-0.164l0.072-0.082l0.145-0.164
						c0.345-0.331,0.81-0.613,1.378-0.619c0.575,0.002,0.987,0.259,1.308,0.486c0.322,0.242,0.553,0.502,0.769,0.764
						c0.825,1.049,1.334,2.139,1.835,3.232c0.481,1.097,0.883,2.21,1.27,3.32l1.104,3.275l-1.902,0.6
						c-0.161-0.707-0.194-1.271-0.235-1.877c-0.034-0.594-0.045-1.183-0.04-1.771c0.021-1.174,0.08-2.35,0.274-3.525
						c0.192-1.174,0.457-2.354,1.015-3.521c0.289-0.576,0.656-1.176,1.275-1.648c0.609-0.493,1.549-0.656,2.265-0.475l0.069,0.014
						l0.035,0.007l0.017,0.003l0.093,0.029l0.1,0.038c0.082,0.037,0.096,0.026,0.234,0.103c0.118,0.064,0.234,0.137,0.343,0.215
						c0.09,0.076,0.161,0.152,0.239,0.23c0.284,0.32,0.459,0.68,0.556,1.011c0.208,0.672,0.235,1.298,0.221,1.903
						c-0.042,1.209-0.237,2.354-0.482,3.482c-0.258,1.125-0.554,2.229-0.888,3.322c-0.319,1.096-0.709,2.167-1,3.268
						c0.086-1.142,0.297-2.267,0.465-3.39c0.171-1.123,0.352-2.241,0.463-3.359c0.124-1.112,0.21-2.232,0.143-3.298
						c-0.039-0.527-0.114-1.049-0.274-1.455c-0.074-0.209-0.184-0.358-0.282-0.455l-0.071-0.061c-0.012,0.002-0.017,0-0.019-0.011
						c0.023-0.009-0.11-0.039-0.158-0.058l-0.102-0.031l-0.006-0.002c0.033,0.01-0.085-0.025,0.073,0.021l-0.009-0.001l-0.019-0.001
						l-0.036-0.004c-0.393-0.046-0.672,0.027-0.945,0.267c-0.271,0.241-0.527,0.628-0.72,1.075c-0.39,0.903-0.602,1.973-0.728,3.043
						c-0.125,1.076-0.193,2.176-0.189,3.271c0.002,0.549,0.02,1.097,0.059,1.637c0.037,0.527,0.099,1.1,0.199,1.5l-1.902,0.6
						c-0.218-0.598-0.377-1.141-0.556-1.697l-0.529-1.646c-0.358-1.091-0.747-2.164-1.165-3.211
						c-0.418-1.033-0.882-2.082-1.468-2.885c-0.273-0.4-0.667-0.672-0.716-0.651c-0.023-0.009-0.089,0.015-0.182,0.058l-0.155,0.152
						l-0.077,0.077c0.062-0.072-0.007,0.013-0.004,0.013c-0.059,0.074-0.121,0.148-0.162,0.239c-0.406,0.693-0.275,1.833-0.03,2.884
						c0.252,1.076,0.655,2.153,1.072,3.227c0.407,1.082,0.862,2.156,1.255,3.262C311.45,694.569,311.854,695.721,311.811,696.901z"
						/>
				</g>
				<g>
					<path fill="#709922" d="M247.748,263.446c-0.072-0.583-0.272-1.122-0.5-1.651c-0.224-0.53-0.48-1.047-0.748-1.559l-1.644-3.079
						c-0.53-1.046-1.046-2.11-1.438-3.271c-0.196-0.58-0.346-1.189-0.41-1.846c-0.062-0.649-0.025-1.383,0.3-2.088
						c0.073-0.178,0.177-0.342,0.288-0.504c0.046-0.06,0.014-0.037,0.123-0.164l0.072-0.082l0.145-0.164
						c0.345-0.331,0.81-0.613,1.378-0.619c0.575,0.002,0.987,0.259,1.308,0.486c0.322,0.242,0.553,0.502,0.769,0.764
						c0.825,1.049,1.334,2.139,1.835,3.232c0.481,1.097,0.883,2.21,1.27,3.32l1.104,3.275l-1.902,0.6
						c-0.161-0.707-0.194-1.271-0.235-1.877c-0.034-0.594-0.045-1.183-0.04-1.771c0.021-1.174,0.08-2.35,0.274-3.525
						c0.192-1.174,0.457-2.354,1.015-3.521c0.289-0.576,0.656-1.176,1.275-1.648c0.609-0.493,1.549-0.656,2.265-0.475l0.069,0.014
						l0.035,0.007l0.017,0.003l0.093,0.029l0.1,0.038c0.082,0.037,0.096,0.026,0.234,0.103c0.118,0.064,0.234,0.137,0.343,0.215
						c0.09,0.076,0.161,0.152,0.239,0.23c0.284,0.32,0.459,0.68,0.556,1.011c0.208,0.672,0.235,1.298,0.221,1.903
						c-0.042,1.209-0.237,2.354-0.482,3.482c-0.258,1.125-0.554,2.229-0.888,3.322c-0.319,1.096-0.709,2.167-1,3.268
						c0.086-1.142,0.297-2.267,0.465-3.39c0.171-1.123,0.352-2.241,0.463-3.359c0.124-1.112,0.21-2.232,0.143-3.298
						c-0.039-0.527-0.114-1.049-0.274-1.455c-0.074-0.209-0.184-0.358-0.282-0.455l-0.071-0.061c-0.012,0.002-0.017,0-0.019-0.011
						c0.023-0.009-0.11-0.039-0.158-0.058l-0.102-0.031l-0.006-0.002c0.033,0.01-0.085-0.025,0.073,0.021l-0.009-0.001l-0.019-0.001
						l-0.036-0.004c-0.393-0.046-0.672,0.027-0.945,0.267c-0.271,0.241-0.527,0.628-0.72,1.075c-0.39,0.903-0.602,1.973-0.728,3.043
						c-0.125,1.076-0.193,2.176-0.189,3.271c0.002,0.549,0.02,1.097,0.059,1.637c0.037,0.527,0.099,1.1,0.199,1.5l-1.902,0.6
						c-0.218-0.598-0.377-1.141-0.556-1.697l-0.529-1.646c-0.358-1.091-0.747-2.164-1.165-3.211
						c-0.418-1.033-0.882-2.082-1.468-2.885c-0.273-0.4-0.667-0.672-0.716-0.651c-0.023-0.009-0.089,0.015-0.182,0.058l-0.155,0.152
						l-0.077,0.077c0.062-0.072-0.007,0.013-0.004,0.013c-0.059,0.074-0.121,0.148-0.162,0.239c-0.406,0.693-0.275,1.833-0.03,2.884
						c0.252,1.076,0.655,2.153,1.072,3.227c0.407,1.082,0.862,2.156,1.255,3.262C247.388,261.114,247.791,262.266,247.748,263.446z"
						/>
				</g>
			</g>
		</g>
	</g>
	<g>
		<defs>
			<rect id="SVGID_1_" width="319.57" height="747.553"/>
		</defs>
		<clipPath id="SVGID_2_">
			<use xlink:href="#SVGID_1_"  overflow="visible"/>
		</clipPath>
		<g clip-path="url(#SVGID_2_)">
			<linearGradient id="SVGID_3_" gradientUnits="userSpaceOnUse" x1="92.7803" y1="380.3584" x2="232.6855" y2="380.3584">
				<stop  offset="0" style="stop-color:#41342A"/>
				<stop  offset="0.195" style="stop-color:#5E4430"/>
				<stop  offset="0.425" style="stop-color:#5A4230"/>
				<stop  offset="0.575" style="stop-color:#4B3B2E"/>
				<stop  offset="0.835" style="stop-color:#544132"/>
				<stop  offset="1" style="stop-color:#41342A"/>
			</linearGradient>
			<path fill="url(#SVGID_3_)" stroke="#709922" stroke-width="4" stroke-miterlimit="10" d="M226.154,781.67
				c-9.607,8.758-10.436,4.221-23.436,4.221c-12.998,0-12.998-2.023-25.996-2.023c-13,0-13-1.677-26-1.677
				c-13.002,0-13.002,2.97-26.002,2.97c-13.002,0-15.678,7.293-25.289-1.462c-8.754-7.974-4.15-11.058-4.15-22.899
				s2.904-11.842,2.904-23.685c0-11.845,3.129-11.845,3.129-23.688c0-11.842-5.381-11.842-5.381-23.684
				c0-11.845,1.062-11.845,1.062-23.689c0-11.842,3.098-11.842,3.098-23.685c0-11.845-2.387-11.845-2.387-23.69
				c0-11.843-1.658-11.843-1.658-23.686c0-11.844,0.744-11.844,0.744-23.688s3.877-11.844,3.877-23.688s1.57-11.844,1.57-23.687
				c0-11.845-2.406-11.845-2.406-23.688c0-11.846,1.984-11.846,1.984-23.691c0-11.845-5.439-11.845-5.439-23.689
				c0-11.844-1.541-11.844-1.541-23.688s5.531-11.844,5.531-23.688s-0.371-11.845-0.371-23.688c0-11.845-2.152-11.845-2.152-23.689
				c0-11.847-1.141-11.847-1.141-23.693c0-11.845-1.889-11.845-1.889-23.689c0-11.847,1.688-11.847,1.688-23.693
				c0-11.845-0.213-11.845-0.213-23.689c0-11.846,0.305-11.846,0.305-23.691s5.059-11.846,5.059-23.691s-4.996-11.846-4.996-23.692
				c0-11.845-1.389-11.845-1.389-23.688c0-11.846,0.301-11.846,0.301-23.69s4.066-11.845,4.066-23.69
				c0-11.848,0.816-11.848,0.816-23.694s-3.752-11.847-3.752-23.694c0-11.847,3.115-11.847,3.115-23.693
				c0-11.848-2.221-11.848-2.221-23.695c0-11.85-0.201-11.85-0.201-23.699s-9.713-18.216-0.955-26.198
				c9.605-8.757,15.277,0.307,28.275,0.307c13,0,13,0.745,25.998,0.745c13,0,13,5.371,26,5.371s13-3.156,26.002-3.156
				s15.414-8.448,25.025,0.307c8.754,7.975-2.232,10.77-2.232,22.611s-0.416,11.842-0.416,23.684
				c0,11.844,7.102,11.844,7.102,23.688c0,11.842,0.492,11.842,0.492,23.684c0,11.845-7.314,11.845-7.314,23.69
				c0,11.843-0.172,11.843-0.172,23.686c0,11.845,1.311,11.845,1.311,23.689c0,11.843,4.65,11.843,4.65,23.686
				c0,11.844-6.09,11.844-6.09,23.688s3.387,11.845,3.387,23.688c0,11.843-1.064,11.843-1.064,23.686
				c0,11.845,3.434,11.845,3.434,23.689c0,11.846-0.445,11.846-0.445,23.691c0,11.844,1.188,11.844,1.188,23.688
				s-0.348,11.845-0.348,23.688c0,11.845-0.635,11.845-0.635,23.689c0,11.844-1.229,11.844-1.229,23.688s2.902,11.845,2.902,23.689
				c0,11.847-7.309,11.847-7.309,23.692s6.406,11.846,6.406,23.69c0,11.846-3.027,11.846-3.027,23.691
				c0,11.845-1.006,11.845-1.006,23.69s1.062,11.846,1.062,23.691s0.4,11.846,0.4,23.691s2.773,11.846,2.773,23.691
				c0,11.844-3.059,11.844-3.059,23.688s-3.158,11.845-3.158,23.69s-0.438,11.846-0.438,23.69c0,11.847,0.268,11.847,0.268,23.693
				s5.797,11.847,5.797,23.694c0,11.847,0.674,11.847,0.674,23.693c0,11.848-3.855,11.848-3.855,23.694
				c0,11.85,0.305,11.786,2.281,23.47C231.947,771.651,234.912,773.688,226.154,781.67z"/>
			<path opacity="0.3" fill="#261915" d="M124.6,444.504l-5.752-0.941l-0.426-3.491l1.895-4.038l0.305-3.401l-4.738-2.286
				l1.117-3.588l-2.291-2.956l-1.096-3.195l1.033-3.473l-1.064-3.202l0.949-3.411l1.355-3.413l-1.357-3.184l-0.967-3.232
				l1.434-3.374l-1.814-3.2l1.164-3.342l-3.27-3.181l1.178-3.335l-1.004-3.277l2.328-3.334l1.961-3.307l-4.791-3.266l2.371-3.299
				l-0.4-3.296l-0.307-3.299l0.74-3.288l-0.23-3.301l-0.662-3.315l2.418-3.242l-1.383-3.333l0.623-3.275l-1.008-3.33l0.652-3.275
				l1.697-3.231l-0.348-3.31l-3.572-3.459l1.443-3.236l3.928-3.107l-0.369-3.312l-0.371-3.314l-0.791-3.341l-2.625-3.451
				l5.193-2.994l-0.898-3.357l-2.502-3.459l2.961-3.112l-3.32-3.514l2.312-3.15l2.881-3.11l-4.924-3.624l2.445-3.133l-0.65-3.324
				l-0.148-3.268l0.133-3.248l-0.867-3.278l2.85-3.188l-2.082-3.292l2.98-3.249l-0.309-3.275l-1.074-3.256l0.934-3.291l0.982-3.308
				l-2.24-3.188l0.693-3.303l0.229-3.287l-1.365-3.189l2.496-3.452l-2.277-3.112l1.199-3.384l-1.83-3.124l-2.674-3.024l-1.047-3.168
				l4.076-3.701l-2.271-3.041l1.158-3.415l-0.012-3.288l-2.676-2.97l-2.223-3.016l0.223-3.304l1.441-3.458l-0.359-3.239l0.037-3.287
				l0.064-3.292l-3.131-2.904l1.219-3.433l-0.33-3.246l-1.121-3.156l2.006-3.514l-1.305-3.139l-1.426-3.13l0.285-3.314l0.6-3.335
				l-3.852-2.912l2.451-3.514l-1.984-3.108l3.707-3.586l-2.475-3.079l-3.156-3.437l1.932-3.395l0.363-3.433l0.125-3.496l1.074-3.262
				l2.43-2.858l3.432-2.602l-1.855-3.974l1.375-3.195l1.16-3.369l-1.762-3.453l0.525-3.562l-3.516-2.734l2.457-3.301l1.836-2.928
				l-0.285-3.44l-0.785-3.486l0.598-3.19l-0.84-3.403l1.545-3.052l3.109-2.939l-0.877-3.385l-1.979-3.415l3.299-3.077l-3.182-3.398
				l0.111-3.236l3.242-3.23l-3.471-3.252l2.799-3.307l2.381-3.365l-4.68-3.09l4.178-3.503l-1.645-3.196l1.303-3.397l-4.309-2.938
				l0.738-3.349l0.055-3.294l0.293-3.327l0.629-3.374l0.652-3.389l-3.225-2.908l-1.215-3.144l-1.32-3.123l0.248-3.339l0.594-3.392
				l-1.416-3.108l0.049-0.36c-1.709-0.524-3.277-0.901-4.791-0.901c-2.465,0-4.68,1.016-7.176,3.293
				c-4.406,4.016-3.201,7.184-1.205,12.433c1.318,3.465,2.812,7.393,2.812,12.287c0,5.908,0.051,8.911,0.1,11.815
				c0.051,2.922,0.102,5.942,0.102,11.884c0,5.738,0.521,8.526,1.076,11.479c0.562,3.002,1.145,6.106,1.145,12.216
				c0,6.182-0.826,9.32-1.623,12.355c-0.768,2.917-1.492,5.673-1.492,11.338c0,5.615,0.865,8.349,1.783,11.244
				c0.969,3.057,1.969,6.218,1.969,12.45c0,5.992-0.209,9.038-0.412,11.984c-0.199,2.878-0.404,5.854-0.404,11.71
				c0,6.257-1.088,9.428-2.143,12.495c-0.988,2.884-1.924,5.606-1.924,11.195c0,5.947-0.078,8.972-0.152,11.896
				c-0.072,2.899-0.148,5.897-0.148,11.795c0,5.805,0.33,8.625,0.68,11.61c0.348,2.969,0.709,6.039,0.709,12.078
				c0,5.519,1.137,8.215,2.342,11.069c1.305,3.096,2.654,6.296,2.654,12.623c0,6.332-1.367,9.534-2.689,12.631
				c-1.219,2.853-2.369,5.547-2.369,11.061c0,5.948-0.078,8.973-0.152,11.896c-0.074,2.899-0.152,5.897-0.152,11.795
				c0,5.904,0.055,8.906,0.107,11.809c0.051,2.921,0.105,5.94,0.105,11.881c0,6.065-0.439,9.147-0.863,12.129
				c-0.424,2.974-0.824,5.783-0.824,11.564c0,5.764,0.445,8.564,0.918,11.53c0.477,2.988,0.971,6.078,0.971,12.159
				c0,5.827,0.271,8.658,0.561,11.655c0.285,2.959,0.58,6.019,0.58,12.038c0,5.742,0.508,8.533,1.043,11.487
				c0.545,2.999,1.109,6.1,1.109,12.202c0,5.891,0.094,8.885,0.186,11.781c0.092,2.927,0.186,5.953,0.186,11.907
				c0,6.366-1.5,9.582-2.953,12.691c-1.326,2.838-2.578,5.52-2.578,10.997c0,5.792,0.367,8.606,0.754,11.586
				c0.387,2.975,0.787,6.05,0.787,12.102c0,5.485,1.232,8.169,2.537,11.01c1.426,3.107,2.902,6.32,2.902,12.68
				c0,6.089-0.52,9.184-1.02,12.176c-0.496,2.962-0.965,5.759-0.965,11.516c0,5.721,0.564,8.502,1.162,11.445
				c0.611,3.009,1.244,6.12,1.244,12.243c0,6.054-0.408,9.13-0.803,12.105c-0.395,2.979-0.768,5.791-0.768,11.581
				c0,6.241-1.037,9.405-2.039,12.466c-0.945,2.89-1.838,5.619-1.838,11.222c0,5.984-0.191,9.027-0.377,11.97
				c-0.18,2.88-0.367,5.858-0.367,11.718c0,5.782,0.393,8.591,0.811,11.565c0.416,2.979,0.848,6.06,0.848,12.12
				c0,5.724,0.561,8.506,1.154,11.451c0.605,3.008,1.232,6.118,1.232,12.239c0,6.179-0.82,9.315-1.615,12.349
				c-0.762,2.917-1.482,5.672-1.482,11.336c0,6.012-0.275,9.068-0.539,12.023c-0.27,3-0.523,5.833-0.523,11.666
				c0,5.487,1.219,8.172,2.51,11.015c1.412,3.104,2.871,6.315,2.871,12.669c0,6.182-0.83,9.319-1.631,12.354
				c-0.77,2.916-1.498,5.671-1.498,11.334c0,6.163-0.768,9.293-1.51,12.319c-0.717,2.924-1.395,5.687-1.395,11.365
				c0,3.639-0.422,6.519-0.762,8.833c-0.797,5.434-1.127,7.683,4.258,12.588c3.666,3.339,5.824,3.788,7.453,3.788
				c0.416,0,0.838-0.039,1.268-0.1l0.898-1.782l3.029-2.913l-2.678-3.929l1.52-3.123l-0.428-3.682l5.277-1.724l1.01-3.106
				l0.932-3.165l0.484-3.422l-1.059-2.141l0.801-3.825l-3.107-1.351v-3.527l-1.783-2.675l-2.252-2.751l-2.107-2.961l-0.85-3.26
				l2.129-3.6l1.488-3.395l-0.002-3.228l-0.617-3.2l-0.039-3.24l0.596-3.252l-0.387-3.238l-1.865-3.262l-0.129-3.272l-2.828-3.341
				l3.771-3.176l1.336-3.22l-2.406-3.374l-2.189-3.389l0.766-3.25l1.748-3.188l-1.957-3.393l5.27-2.971l-0.441-3.306l-0.393-3.305
				l-3.561-3.437l2.314-3.165l-1.361-3.226l0.59-3.189l-0.852-3.216l-0.043-3.2l3.711-3.123l-2.248-3.247l-0.193-3.2l1.75-3.172
				l-3.148-3.23l2.479-3.171l1.434-3.195l1.299-3.21l-4.791-3.152l1.354-3.209l1.531-3.234l-3.504-3.078l2.809-3.308l-3.25-3.194
				l2.803-3.259l-0.404-3.265l3-3.001l-4.316-3.69l3.369-2.861l-1.623-3.52l3.227-2.752l0.451-3.194l-2.016-3.682l3.445-2.618
				l-1.771-3.658l1.201-3.061l-0.205-3.34l0.279-3.233l2.871-2.757l-1.771-3.583l2.562-2.866l1.969-3.021l-2.139-3.52l2.906-3.009
				l-3.449-3.466l4-3.16l-3.715-3.104l1.441-3.328l-2.084-2.974l3.51-3.806l-2.213-2.915l-3.076-2.674l3.309-3.986l-1.85-2.901
				l-1.131-3.049l-2.822-2.682l1.094-3.525l-0.045-3.264l0.258-3.289l-3.953-2.622l2.027-3.523l-0.693-3.139l-2.258-3.123
				l1.461-3.267l-0.754-3.297l0.568-3.238l2.836-2.677l1.885-2.607l-3.393-4.829l1.334-3.222l3.922-1.456l2.904-1.753l2.912-1.492
				l1.689-2.794l1.053-2.618l-4.652-0.122L124.6,444.504z"/>
			<g opacity="0.3">
				<path fill="#261915" d="M229.23,766.494c-0.357-1.604-0.764-3.42-1.133-5.605c-0.262-1.554-0.496-2.899-0.703-4.093
					c-1.361-7.853-1.605-9.268-1.605-19.711c0-6.24,1.029-9.405,2.025-12.466c0.941-2.891,1.83-5.622,1.83-11.229
					c0-5.866-0.17-8.849-0.334-11.733c-0.168-2.939-0.34-5.979-0.34-11.96c0-5.461-1.309-8.137-2.695-10.969
					c-1.525-3.116-3.102-6.34-3.102-12.726c0-4.409-0.037-7.198-0.084-9.538l-0.389,0.695l-0.34,3.434l-0.1,3.498l-1.051,3.27
					l-2.41,2.875l-3.414,2.626l1.885,3.96l-1.352,3.205l-1.137,3.378l1.787,3.44l-0.5,3.566l3.535,2.709l-2.434,3.318l-1.814,2.939
					l0.309,3.439l0.811,3.48l-0.576,3.195l0.865,3.396l-1.523,3.062l-3.09,2.962l0.902,3.378l2.004,3.401l-3.277,3.101l3.205,3.377
					l-0.088,3.235l-3.219,3.253l3.492,3.228l-2.773,3.327l-2.357,3.383l4.701,3.056l-4.152,3.531l1.668,3.187l-1.279,3.406
					l4.33,2.906l-0.715,3.354l-0.031,3.294l-0.27,3.328l-0.605,3.379l-0.627,3.394l3.246,2.885l0.283,0.716
					c2.043-0.175,4.217-1.195,8.217-4.841C231.023,774.526,230.643,772.825,229.23,766.494z"/>
				<path fill="#261915" d="M223.371,97.453c0-6.491,2.102-9.894,3.955-12.896c1.803-2.919,3.359-5.439,3.359-10.794
					c0-5.879-0.125-8.868-0.244-11.759c-0.123-2.932-0.248-5.962-0.248-11.925c0-5.369-1.514-7.894-3.268-10.816
					c-1.797-2.998-3.834-6.396-3.834-12.872c0-5.956,0.105-8.984,0.209-11.912c0.102-2.894,0.207-5.886,0.207-11.771
					c0-5.442,2.074-9.118,3.74-12.072c2.184-3.869,3.086-5.471-0.855-9.061c-3.357-3.059-5.336-3.451-6.686-3.451
					c-1.518,0-3.074,0.562-5.043,1.273c-0.586,0.211-1.209,0.433-1.857,0.652l-1.789,2.224l-1.016,3.258l4.711,3.433l-1.637,3.307
					l-3.008,2.936l2.705,3.908l-1.498,3.134l0.455,3.68l-5.264,1.761l-0.99,3.113l-0.908,3.172l-0.459,3.426l1.074,2.133
					l-0.773,3.83l3.115,1.329l0.025,3.526l1.803,2.662l2.271,2.736l2.129,2.945l0.873,3.252l-2.105,3.615l-1.463,3.406l0.023,3.227
					l0.641,3.196l0.064,3.24l-0.572,3.256l0.408,3.235l1.889,3.248l0.152,3.271l2.852,3.32l-3.746,3.202l-1.314,3.229l2.428,3.357
					l2.217,3.373l-0.744,3.256l-1.725,3.199l1.98,3.378l-5.248,3.009l0.465,3.303l0.416,3.301l3.586,3.411l-2.293,3.183l1.387,3.215
					l-0.57,3.194l0.875,3.209l0.068,3.2l-3.691,3.15l2.273,3.23l0.215,3.197l-1.727,3.186l3.172,3.207l-2.457,3.188l-1.412,3.206
					l-1.275,3.22l4.814,3.119l-1.332,3.218l-1.506,3.246l3.525,3.052l-2.787,3.328l3.275,3.171l-2.781,3.279l0.428,3.261
					l-2.979,3.022l4.342,3.66l-3.348,2.885l1.648,3.509l-3.209,2.773l-0.426,3.197l2.043,3.668l-3.43,2.643l1.799,3.646l-1.18,3.068
					l0.23,3.338l-0.258,3.234l-2.852,2.779l1.799,3.569l-2.543,2.884l-1.947,3.037l2.164,3.504L202,233.552l3.475,3.442
					l-3.975,3.188l3.736,3.079l-1.42,3.337l2.105,2.958l-3.482,3.832l2.234,2.899l3.096,2.651l-3.281,4.01l1.871,2.888l1.152,3.041
					l2.84,2.661l-1.068,3.534l0.068,3.264l-0.234,3.29l3.973,2.593l-2.004,3.539l0.717,3.133l2.281,3.107l-1.438,3.277l0.775,3.291
					l-0.543,3.242l-2.818,2.696l-1.865,2.621l3.426,4.804l-1.311,3.232l-3.912,1.483l-2.893,1.774l-2.9,1.514l-1.668,2.805
					l-1.033,2.626l4.652,0.089l-1.262,4.53l5.76,0.901l0.449,3.487l-1.865,4.053l-0.281,3.403l4.754,2.251l-1.09,3.597l2.311,2.939
					l1.119,3.188l-1.008,3.48l1.088,3.194l-0.926,3.419l-1.33,3.422l1.379,3.173l0.99,3.226l-1.41,3.385l1.836,3.187l-1.139,3.351
					l3.293,3.156l-1.154,3.344l1.027,3.27l-2.307,3.352l-1.936,3.32l4.814,3.232l-2.346,3.314l0.422,3.293l0.33,3.297l-0.717,3.293
					l0.254,3.3l0.686,3.31l-2.395,3.26l1.406,3.323l-0.6,3.28l1.033,3.321l-0.629,3.28l-1.676,3.244l0.371,3.307l3.598,3.434
					l-1.42,3.247l-3.906,3.136l0.393,3.309l0.395,3.312l0.814,3.336l2.65,3.432l-5.172,3.03l0.922,3.352l2.527,3.44l-2.939,3.134
					l3.346,3.49l-2.291,3.166l-2.857,3.131l4.947,3.589l-2.42,3.15l0.672,3.32l0.174,3.266l-0.109,3.249l0.891,3.272l-2.828,3.208
					l2.105,3.278l-2.957,3.269l0.332,3.272l1.098,3.249l-0.91,3.298l-0.959,3.315l2.264,3.17l-0.67,3.309l-0.207,3.288l1.389,3.18
					l-2.473,3.47l2.303,3.097l-1.176,3.392l1.852,3.112l2.695,3.005l1.068,3.159l-4.049,3.73l2.293,3.024l-1.133,3.424l0.035,3.288
					l2.695,2.95l2.244,2.999l-0.199,3.306l-1.416,3.468l0.383,3.238l-0.014,3.287l-0.041,3.291l3.152,2.882l-1.195,3.442
					l0.354,3.243l1.145,3.147l-1.98,3.529l1.326,3.129l1.447,3.119l-0.26,3.317l-0.578,3.338l3.785,2.818
					c0.041-2.744,0.113-4.686,0.182-6.581c0.107-2.894,0.219-5.886,0.219-11.771c0-6.186,0.836-9.325,1.646-12.361
					c0.777-2.915,1.512-5.669,1.512-11.329c0-6.177,0.811-9.312,1.594-12.345c0.752-2.919,1.465-5.676,1.465-11.344
					c0-5.692-0.648-8.46-1.334-11.39c-0.707-3.022-1.439-6.148-1.439-12.302c0-5.889-0.102-8.883-0.199-11.778
					c-0.1-2.928-0.201-5.956-0.201-11.913c0-5.833-0.254-8.667-0.523-11.667c-0.266-2.956-0.539-6.012-0.539-12.024
					c0-6.008,0.26-9.062,0.51-12.015c0.256-3.003,0.496-5.838,0.496-11.676c0-6.175,0.801-9.31,1.576-12.341
					c0.746-2.921,1.451-5.68,1.451-11.351c0-5.416-1.438-8.076-2.961-10.894c-1.615-2.984-3.445-6.368-3.445-12.797
					c0-6.49,2.1-9.894,3.951-12.896c1.801-2.919,3.357-5.44,3.357-10.797c0-5.681-0.678-8.443-1.395-11.369
					c-0.742-3.026-1.508-6.156-1.508-12.32c0-6.026,0.316-9.089,0.625-12.051c0.311-2.993,0.604-5.819,0.604-11.638
					c0-5.976,0.162-9.014,0.32-11.952c0.154-2.885,0.314-5.868,0.314-11.737c0-5.951,0.09-8.977,0.174-11.902
					c0.086-2.897,0.174-5.893,0.174-11.786c0-5.822-0.283-8.651-0.584-11.646c-0.297-2.96-0.604-6.021-0.604-12.043
					c0-5.96,0.115-8.99,0.225-11.921c0.109-2.894,0.221-5.885,0.221-11.771c0-5.639-0.795-8.383-1.637-11.288
					c-0.885-3.045-1.797-6.195-1.797-12.401c0-6.012,0.273-9.067,0.541-12.022c0.27-2.999,0.523-5.832,0.523-11.663
					c0-5.642-0.785-8.387-1.615-11.294c-0.871-3.044-1.771-6.191-1.771-12.395c0-6.406,1.66-9.636,3.266-12.76
					c1.453-2.823,2.824-5.491,2.824-10.929c0-5.543-1.062-8.248-2.186-11.111c-1.211-3.085-2.465-6.274-2.465-12.574
					c0-5.812-0.312-8.636-0.643-11.625c-0.328-2.965-0.668-6.032-0.668-12.064c0-5.936,0.043-8.953,0.086-11.872
					C223.326,106.363,223.371,103.36,223.371,97.453z"/>
				<path fill="#261915" d="M221.428,650.338l1.564,1.68c-0.047-2.377-0.086-5.203-0.086-9.708c0-2.013,0.012-3.687,0.033-5.14
					l-2.334,3.399l2.006,3.095l-3.68,3.611L221.428,650.338z"/>
			</g>
			<g>
				<g opacity="0.5">
					<path fill="#60492F" d="M140.266,692.07c0,0-0.121-1.881-0.348-5.406c-0.199-3.525-0.55-8.695-0.88-15.278
						c-0.174-3.29-0.366-6.935-0.576-10.901c-0.099-1.982-0.201-4.047-0.308-6.188c-0.091-2.142-0.273-4.354-0.414-6.642
						c-0.612-9.15-1.305-19.465-1.937-30.713c-0.33-5.623-0.843-11.484-1.279-17.547c-0.421-6.064-0.856-12.333-1.304-18.777
						c-0.397-6.445-1.011-13.061-1.538-19.823c-0.573-6.761-1.039-13.675-1.567-20.702c-0.064-0.879-0.129-1.759-0.193-2.641
						c-0.061-0.907-0.121-1.816-0.182-2.727c-0.109-1.775-0.221-3.557-0.331-5.345c-0.198-3.587-0.495-7.155-0.617-10.826
						c-0.123-3.672-0.247-7.366-0.371-11.079c-0.153-3.727-0.104-7.412-0.153-11.141c-0.172-14.896,0.157-29.965,0.284-44.985
						c0.044-3.753,0.087-7.505,0.131-11.255c0.001-3.74,0.003-7.477,0.004-11.207c0.032-3.733-0.069-7.441-0.121-11.144
						c-0.062-3.724-0.123-7.437-0.185-11.134c-0.07-3.705-0.141-7.393-0.21-11.064c-0.049-3.67-0.097-7.323-0.146-10.954
						c-0.011-7.286,0.096-14.517,0.138-21.606c0.015-1.773,0.028-3.539,0.043-5.298c0.018-1.759,0.103-3.505,0.149-5.244
						c0.104-3.479,0.229-6.925,0.373-10.331c0.137-3.406,0.271-6.776,0.404-10.105c0.162-3.328,0.428-6.613,0.632-9.854
						c0.458-6.485,0.81-12.776,1.319-18.885c0.563-6.062,1.108-11.918,1.632-17.541c0.267-2.811,0.528-5.564,0.783-8.254
						c0.307-2.694,0.606-5.326,0.899-7.892c0.609-5.124,1.189-9.985,1.733-14.554c0.136-1.143,0.271-2.268,0.401-3.373
						c0.153-1.101,0.304-2.183,0.451-3.246c0.304-2.119,0.596-4.162,0.877-6.126c0.557-3.918,1-7.519,1.288-10.778
						c0.286-3.26,0.429-6.175,0.477-8.716c-0.013-2.534-0.071-4.704-0.31-6.438c-0.076-0.876-0.218-1.635-0.338-2.294
						c-0.059-0.331-0.112-0.635-0.161-0.913c-0.071-0.271-0.136-0.518-0.193-0.736c-0.236-0.881-0.358-1.336-0.358-1.336
						s0.171,0.439,0.503,1.29c0.082,0.214,0.174,0.454,0.276,0.72c0.079,0.273,0.166,0.572,0.262,0.896
						c0.197,0.648,0.415,1.405,0.578,2.279c0.411,1.735,0.685,3.914,0.947,6.485c0.217,2.571,0.328,5.54,0.305,8.858
						c-0.018,3.318-0.161,6.988-0.393,10.969c-0.194,3.983-0.634,8.252-0.803,12.822c-0.229,4.572-0.471,9.438-0.727,14.565
						c-0.141,2.562-0.285,5.188-0.434,7.877c-0.109,2.698-0.222,5.46-0.337,8.28c-0.219,5.643-0.447,11.52-0.684,17.604
						c-0.174,6.058-0.354,12.32-0.538,18.758c-0.077,3.221-0.214,6.481-0.246,9.787c-0.004,3.306-0.008,6.652-0.011,10.035
						c0.059,6.764-0.204,13.677,0.003,20.69c0.125,7.021,0.185,14.139,0.364,21.373c0.134,3.629,0.269,7.279,0.403,10.948
						c0.113,3.67,0.228,7.357,0.343,11.061c0.105,3.708,0.211,7.432,0.317,11.166c0.108,3.756,0.224,7.527,0.203,11.291
						c0.014,3.767,0.027,7.541,0.041,11.32c-0.031,3.769-0.062,7.541-0.093,11.314c-0.185,15.082-0.543,30.113-0.595,44.852
						c-0.079,7.396,0.058,14.633,0.113,21.812c0.033,3.59,0.249,7.225,0.363,10.796c0.068,1.79,0.138,3.574,0.206,5.351
						c0.037,0.865,0.074,1.729,0.111,2.59c0.044,0.887,0.089,1.77,0.132,2.652c0.721,14.113,1.355,27.755,1.769,40.704
						c0.396,12.952,0.724,25.192,0.868,36.502c0.09,11.319,0.058,21.69,0.031,30.876c0.018,4.594-0.065,8.887-0.205,12.857
						c-0.118,3.97-0.227,7.617-0.325,10.91c-0.178,6.588-0.41,11.766-0.527,15.295C140.344,690.188,140.266,692.07,140.266,692.07z"
						/>
				</g>
				<g opacity="0.5">
					<path fill="#60492F" d="M174.846,595.56c0,0,0.082-0.515,0.236-1.479c0.17-0.961,0.385-2.379,0.727-4.164
						c0.194-0.893,0.3-1.891,0.408-2.971c0.106-1.082,0.264-2.238,0.411-3.471c0.185-1.223,0.251-2.558,0.329-3.96
						c0.095-1.396,0.195-2.862,0.301-4.394c0.036-1.535,0.074-3.135,0.113-4.79c0.07-1.647,0.059-3.36,0.029-5.121
						c0.025-3.512-0.149-7.228-0.266-11.064c-0.097-1.922-0.195-3.876-0.295-5.854c-0.118-1.982-0.238-3.988-0.359-6.01l-0.043-0.76
						l-0.021-0.38l-0.027-0.294l-0.143-1.531c-0.112-1.004-0.16-2.085-0.308-3.035l-0.414-2.893
						c-0.132-0.964-0.362-1.966-0.538-2.947c-0.723-3.951-1.719-7.887-2.749-11.789c-0.526-1.955-1.048-3.896-1.563-5.812
						c-0.261-0.965-0.521-1.924-0.778-2.877c-0.128-0.477-0.255-0.953-0.381-1.426c-0.157-0.589-0.237-0.982-0.359-1.479
						c-0.225-0.944-0.446-1.882-0.667-2.81c-0.228-0.922-0.441-1.844-0.596-2.814c-0.171-0.951-0.34-1.893-0.506-2.823
						c-0.083-0.464-0.165-0.925-0.247-1.384c-0.065-0.459-0.107-0.918-0.161-1.373c-0.475-3.623-0.649-7.083-0.628-10.261
						c0.065-1.591,0.075-3.111,0.185-4.55c0.156-1.434,0.306-2.793,0.445-4.069c0.312-2.542,0.798-4.724,1.122-6.519
						c0.414-1.783,0.792-3.17,1.026-4.116c0.251-0.943,0.385-1.446,0.385-1.446s-0.016,0.521-0.043,1.5
						c-0.045,0.974-0.076,2.404-0.184,4.207c-0.004,0.904-0.01,1.905-0.016,2.994c0.029,1.089-0.084,2.256,0.002,3.506
						c0.05,1.246,0.104,2.57,0.16,3.967c0.102,1.391,0.257,2.846,0.391,4.359c0.342,3.023,0.851,6.268,1.605,9.657
						c0.088,0.424,0.177,0.851,0.266,1.28c0.11,0.422,0.221,0.848,0.332,1.275c0.221,0.854,0.445,1.719,0.671,2.593
						c0.208,0.864,0.481,1.767,0.763,2.683c0.275,0.914,0.554,1.836,0.834,2.766c1.104,3.594,2.417,7.466,3.549,11.409
						c1.182,3.943,2.234,8.044,3.035,12.233c0.182,1.059,0.407,2.08,0.549,3.166c0.144,1.084,0.287,2.167,0.431,3.248
						c0.157,1.09,0.175,2.072,0.259,3.109l0.104,1.533l0.028,0.472l0.012,0.386l0.024,0.77c0.155,4.094,0.183,8.143,0.153,12.062
						c-0.096,3.927-0.207,7.72-0.543,11.319c-0.219,3.596-0.793,6.986-1.197,10.1c-0.311,1.547-0.606,3.029-0.889,4.439
						c-0.292,1.405-0.559,2.735-0.938,3.977c-0.349,1.24-0.657,2.401-0.979,3.461c-0.307,1.064-0.592,2.033-0.941,2.873
						c-0.635,1.703-1.187,3.027-1.539,3.937C175.043,595.077,174.846,595.56,174.846,595.56z"/>
				</g>
				<g opacity="0.5">
					<path fill="#60492F" d="M185.822,505.07c0,0-0.405-1.057-1.166-3.039c-0.318-1.012-0.703-2.279-1.106-3.785
						c-0.167-0.76-0.348-1.576-0.539-2.445c-0.2-0.873-0.289-1.816-0.451-2.807c-0.556-3.973-0.79-8.875-0.517-14.443
						c0.234-5.564,0.894-11.793,1.412-18.479c0.131-1.674,0.219-3.374,0.297-5.103c0.047-0.865,0.042-1.732,0.066-2.609
						c0.019-0.898,0.038-1.805,0.057-2.72c0.073-3.654,0.219-7.428,0.329-11.311c0.245-7.763,0.456-15.955,0.846-24.414
						c0.382-8.455,0.69-17.195,1.16-26.068c0.112-2.219,0.225-4.446,0.338-6.681l0.042-0.838l0.017-0.78l0.033-1.684l0.083-3.37
						c0.165-4.526,0.118-8.962,0.104-13.413c0.024-4.447-0.15-8.958-0.215-13.417c-0.188-4.472-0.28-8.925-0.486-13.351
						c-0.431-8.863-0.854-17.587-1.264-26.028c-0.199-4.227-0.438-8.39-0.594-12.468c-0.043-1.02-0.085-2.034-0.127-3.042
						c-0.034-1.019-0.067-2.03-0.101-3.036c-0.062-1.991-0.122-3.959-0.183-5.9c-0.115-3.883-0.227-7.659-0.335-11.312
						c-0.108-3.648-0.056-7.207-0.08-10.604c-0.002-3.4-0.004-6.659-0.006-9.759c0.039-3.098-0.006-6.021,0.179-8.854
						c0.334-5.532,0.723-10.271,0.745-14.201c0.007-3.914-0.23-6.994-0.745-9.027c-0.09-0.521-0.285-0.939-0.39-1.329
						c-0.104-0.392-0.252-0.692-0.376-0.935c-0.238-0.493-0.361-0.748-0.361-0.748s0.159,0.234,0.468,0.688
						c0.161,0.227,0.356,0.513,0.518,0.888c0.164,0.371,0.422,0.785,0.58,1.297c0.776,2.006,1.491,5.109,1.896,9.089
						c0.416,3.972,0.596,8.837,0.728,14.315c0.067,2.676,0.378,5.605,0.622,8.68c0.232,3.074,0.477,6.306,0.732,9.678
						c0.45,6.734,1.179,14.053,1.789,21.796c0.16,1.935,0.323,3.897,0.488,5.883c0.083,0.983,0.167,1.972,0.251,2.967
						c0.095,1.003,0.188,2.012,0.284,3.026c0.396,4.057,0.721,8.205,1.096,12.431c0.381,4.22,0.708,8.522,1.037,12.881
						c0.359,4.353,0.623,8.778,0.898,13.233c0.27,4.457,0.472,8.966,0.664,13.486c0.058,2.266,0.115,4.537,0.174,6.81
						s0.131,4.544,0.111,6.843c-0.009,4.586,0.009,9.186-0.178,13.656l-0.104,3.371l-0.06,1.682l-0.034,0.899l-0.055,0.839
						c-0.148,2.237-0.297,4.468-0.443,6.689c-0.567,8.887-1.279,17.625-1.885,26.084c-0.58,8.456-1.286,16.617-1.921,24.361
						c-0.327,3.871-0.61,7.639-0.949,11.278c-0.085,0.909-0.168,1.812-0.251,2.706c-0.09,0.914-0.152,1.826-0.264,2.717
						c-0.209,1.785-0.426,3.531-0.681,5.225c-0.97,6.787-2.192,12.849-2.925,18.257c-0.721,5.399-1.057,10.13-0.939,14.037
						c0.031,1.956,0.223,3.689,0.356,5.211c0.202,1.503,0.414,2.78,0.601,3.824C185.568,503.967,185.822,505.07,185.822,505.07z"/>
				</g>
				<g opacity="0.5">
					<path fill="#60492F" d="M147.822-2.928c0,0,0.404,0.476,1.162,1.367c0.372,0.453,0.854,0.984,1.319,1.709
						c0.469,0.711,1.103,1.513,1.615,2.488c0.523,0.972,1.186,2.025,1.716,3.253c0.285,0.606,0.584,1.239,0.873,1.905
						c0.255,0.678,0.52,1.379,0.794,2.104c1.055,2.912,2.069,6.284,2.769,10.02c0.75,3.729,1.352,7.801,1.745,12.1
						c0.42,4.296,0.751,8.816,1.041,13.43c0.171,2.365,0.281,4.697,0.412,7.098c0.124,2.396,0.171,4.882,0.232,7.357
						c0.013,2.474,0.037,4.962,0.003,7.463c-0.083,2.5-0.12,5.012-0.243,7.521c-0.281,5.018-0.639,10.035-1.251,14.949
						c-0.148,1.229-0.297,2.453-0.445,3.672c-0.153,1.217-0.369,2.42-0.55,3.62c-0.188,1.198-0.377,2.39-0.563,3.573
						c-0.201,1.18-0.447,2.346-0.668,3.504c-0.227,1.156-0.451,2.305-0.674,3.441c-0.252,1.131-0.512,2.249-0.781,3.353
						c-0.264,1.104-0.525,2.194-0.784,3.272c-0.292,1.071-0.581,2.129-0.866,3.172c-0.562,2.086-1.108,4.113-1.761,6.043
						c-0.64,1.932-1.212,3.806-1.888,5.568c-0.661,1.766-1.237,3.473-1.886,5.062c-0.673,1.578-1.311,3.075-1.909,4.482
						c-1.193,2.811-2.452,5.168-3.393,7.137c-1.02,1.939-1.896,3.423-2.459,4.447c-0.582,1.014-0.893,1.555-0.893,1.555
						s0.717-2.406,2.062-6.527c0.3-1.043,0.632-2.197,0.994-3.455c0.341-1.262,0.811-2.586,1.163-4.055
						c0.383-1.453,0.789-3,1.218-4.631c0.396-1.636,0.812-3.355,1.245-5.15c0.46-1.783,0.808-3.678,1.212-5.621
						c0.207-0.971,0.416-1.957,0.629-2.958c0.188-1.007,0.379-2.03,0.571-3.066c0.193-1.035,0.389-2.085,0.587-3.147
						c0.164-1.068,0.33-2.15,0.498-3.244c0.164-1.094,0.34-2.195,0.529-3.307c0.151-1.117,0.305-2.246,0.459-3.385
						c0.154-1.137,0.311-2.283,0.467-3.438c0.133-1.158,0.267-2.325,0.401-3.499c0.289-2.344,0.499-4.727,0.729-7.126
						c0.442-4.799,0.778-9.688,1.016-14.582c0.141-2.445,0.195-4.898,0.299-7.338c0.05-2.442,0.101-4.875,0.15-7.289
						c0.007-2.409,0.014-4.8,0.021-7.162c-0.023-2.387-0.047-4.746-0.069-7.066c-0.069-4.686,0.018-9.158-0.055-13.378
						c-0.089-4.217-0.21-8.185-0.508-11.827c-0.302-3.643-0.782-6.947-1.369-9.853c-0.159-0.725-0.312-1.426-0.461-2.103
						c-0.184-0.668-0.36-1.311-0.53-1.93c-0.297-1.26-0.744-2.348-1.08-3.369c-0.778-1.975-1.418-3.552-2.017-4.568
						C148.111-2.374,147.822-2.928,147.822-2.928z"/>
				</g>
				<g>
					<path fill="#60492F" d="M177.156,185.07c0,0,0.007,0.401,0.019,1.154c0.007,0.751,0.045,1.856,0.036,3.258
						c0.007,2.806-0.014,6.812-0.148,11.609c-0.062,2.398-0.128,4.998-0.255,7.743c-0.071,2.745-0.073,5.642-0.184,8.63
						c-0.1,2.988-0.145,6.08-0.296,9.215c-0.133,3.133-0.269,6.316-0.404,9.499c-0.172,3.19-0.345,6.382-0.514,9.522
						c-0.134,3.125-0.265,6.2-0.391,9.176c-0.072,1.488-0.114,2.952-0.208,4.385c-0.038,0.663-0.042,1.428-0.051,2.104
						c0.007,0.681,0,1.343,0.023,2.026c0.089,2.738,0.174,5.328,0.251,7.719c0.076,2.41,0.054,4.639-0.058,6.611
						c-0.084,1.973-0.328,3.69-0.588,5.084c-0.255,1.397-0.587,2.467-0.831,3.18c-0.262,0.707-0.402,1.084-0.402,1.084
						s0.062-0.396,0.18-1.139c0.117-0.736,0.215-1.829,0.263-3.211c0.04-1.385-0.005-3.062-0.151-4.984
						c-0.148-1.922-0.409-4.083-0.701-6.451c-0.306-2.368-0.685-4.938-0.942-7.713c-0.074-0.687-0.122-1.416-0.182-2.143
						c-0.043-0.73-0.091-1.393-0.106-2.172c-0.032-1.449-0.011-2.93-0.019-4.438c0.024-3.01-0.061-6.139,0.054-9.291
						c0.125-3.143,0.253-6.336,0.38-9.529c0.183-3.199,0.366-6.398,0.546-9.549c0.168-3.148,0.438-6.24,0.643-9.234
						c0.207-2.994,0.457-5.886,0.723-8.621c0.298-2.731,0.633-5.309,0.941-7.688c0.604-4.76,1.201-8.719,1.64-11.488
						c0.207-1.386,0.415-2.471,0.537-3.212C177.088,185.465,177.156,185.07,177.156,185.07z"/>
				</g>
				<g opacity="0.5">
					<path fill="#60492F" d="M167.156,702.07c0,0,0.021-0.41,0.06-1.179c0.034-0.763,0.153-1.899,0.171-3.313
						c0.019-0.703,0.039-1.482,0.062-2.33c-0.025-0.855-0.01-1.773-0.014-2.753c-0.034-1.962-0.132-4.168-0.285-6.569
						c-0.293-4.805-0.891-10.387-1.549-16.422c-0.646-6.029-1.327-12.531-1.514-19.16l-0.021-2.492l-0.005-1.246l-0.032-1.105
						c-0.014-1.689-0.16-3.062-0.286-4.525c-0.367-3.014-0.924-6.023-1.517-8.96c-1.229-5.875-2.503-11.519-3.017-16.498
						c-0.292-2.478-0.351-4.792-0.297-6.829c-0.014-1.013,0.109-1.974,0.189-2.848c0.062-0.875,0.227-1.674,0.362-2.389
						c0.211-1.438,0.604-2.523,0.827-3.26c0.237-0.731,0.363-1.121,0.363-1.121s-0.008,0.411-0.023,1.182
						c-0.012,0.38-0.026,0.849-0.043,1.399c-0.028,0.546,0.052,1.184,0.066,1.884c0.03,0.701,0.05,1.471,0.186,2.311
						c0.136,0.838,0.153,1.735,0.363,2.691c0.186,0.957,0.32,1.968,0.604,3.026c0.25,1.06,0.483,2.171,0.822,3.323
						c0.592,2.307,1.384,4.794,2.197,7.437c0.832,2.65,1.729,5.454,2.57,8.433c0.824,2.984,1.617,6.131,2.115,9.457
						c0.211,1.716,0.453,3.547,0.462,5.096l0.048,1.322l0.02,1.188l0.041,2.379c0.069,3.182,0.238,6.385,0.386,9.558
						c0.167,3.177,0.322,6.315,0.424,9.377c0.116,3.056,0.144,6.035,0.117,8.86c-0.055,2.83-0.173,5.51-0.399,7.981
						c-0.211,2.471-0.549,4.728-0.9,6.712c-0.193,0.99-0.356,1.917-0.546,2.767c-0.222,0.848-0.425,1.626-0.608,2.329
						c-0.327,1.41-0.782,2.44-1.004,3.178C167.294,701.684,167.156,702.07,167.156,702.07z"/>
				</g>
			</g>
			<path opacity="0.3" fill="#281D14" d="M223.371,97.453c0-6.491,2.102-9.894,3.955-12.896c1.803-2.919,3.359-5.439,3.359-10.794
				c0-5.879-0.125-8.868-0.244-11.759c-0.123-2.932-0.248-5.962-0.248-11.925c0-5.369-1.514-7.894-3.268-10.816
				c-1.797-2.998-3.834-6.396-3.834-12.872c0-5.956,0.105-8.984,0.209-11.912c0.102-2.894,0.207-5.886,0.207-11.771
				c0-5.442,2.074-9.118,3.74-12.072c2.184-3.869,3.086-5.471-0.855-9.061c-3.357-3.059-5.336-3.451-6.686-3.451
				c-1.518,0-3.074,0.562-5.043,1.273c-2.951,1.066-6.625,2.393-11.949,2.393c-2.189,0-3.979,0.092-5.525,0.242
				c-2.178,7.028-3.701,14.072-4.135,18.699c-1.912,20.441,4.109,38.404,4.98,58.451c0.805,18.498-3.602,34.76-2.797,52.252
				c0.705,15.309,3.541,30.599,4.17,47.055c1.229,32.127,3.641,61.352,6.443,93.025c1.303,14.729,1.17,27.662-2.535,40.896
				c-5.293,18.897,2.525,34.623,1.744,57.052c-1.609,46.096,2.598,87.286-0.844,133.732c-2.01,27.129-7.42,52.47-7.906,80.091
				c-0.186,10.526-2.418,20.863-2.168,31.203c0.188,7.731,1.711,14.745,1.66,22.728c-0.062,9.532-2.162,20.755-1.113,30.251
				c0.307,2.78,1.566,4.766,1.963,7.342c0.893,5.821-0.223,5.614-0.381,10.013c-0.176,4.869-1.146,10.562-1.066,17.132
				c0.264,21.268-2.48,41.66,1.104,62.587c2.074,12.118,1.016,26.43,2.176,39.267c1.24,0.053,2.633,0.084,4.234,0.084
				c4.082,0,6.992,0.429,9.33,0.773c1.521,0.225,2.723,0.401,3.82,0.401c2.275,0,4.467-0.798,8.938-4.873
				c6.217-5.666,5.836-7.367,4.424-13.698c-0.357-1.604-0.764-3.42-1.133-5.605c-0.262-1.554-0.496-2.899-0.703-4.093
				c-1.361-7.853-1.605-9.268-1.605-19.711c0-6.24,1.029-9.405,2.025-12.466c0.941-2.891,1.83-5.622,1.83-11.229
				c0-5.866-0.17-8.849-0.334-11.733c-0.168-2.939-0.34-5.979-0.34-11.96c0-5.461-1.309-8.137-2.695-10.969
				c-1.525-3.116-3.102-6.34-3.102-12.726c0-5.9-0.068-8.9-0.133-11.802c-0.066-2.923-0.135-5.945-0.135-11.892
				c0-5.959,0.111-8.988,0.219-11.919c0.107-2.894,0.219-5.886,0.219-11.771c0-6.186,0.836-9.325,1.646-12.361
				c0.777-2.915,1.512-5.669,1.512-11.329c0-6.177,0.811-9.312,1.594-12.345c0.752-2.919,1.465-5.676,1.465-11.344
				c0-5.692-0.648-8.46-1.334-11.39c-0.707-3.022-1.439-6.148-1.439-12.302c0-5.889-0.102-8.883-0.199-11.778
				c-0.1-2.928-0.201-5.956-0.201-11.913c0-5.833-0.254-8.667-0.523-11.667c-0.266-2.956-0.539-6.012-0.539-12.024
				c0-6.008,0.26-9.062,0.51-12.015c0.256-3.003,0.496-5.838,0.496-11.676c0-6.175,0.801-9.31,1.576-12.341
				c0.746-2.921,1.451-5.68,1.451-11.351c0-5.416-1.438-8.076-2.961-10.894c-1.615-2.984-3.445-6.368-3.445-12.797
				c0-6.49,2.1-9.894,3.951-12.896c1.801-2.919,3.357-5.44,3.357-10.797c0-5.681-0.678-8.443-1.395-11.369
				c-0.742-3.026-1.508-6.156-1.508-12.32c0-6.026,0.316-9.089,0.625-12.051c0.311-2.993,0.604-5.819,0.604-11.638
				c0-5.976,0.162-9.014,0.32-11.952c0.154-2.885,0.314-5.868,0.314-11.737c0-5.951,0.09-8.977,0.174-11.902
				c0.086-2.897,0.174-5.893,0.174-11.786c0-5.822-0.283-8.651-0.584-11.646c-0.297-2.96-0.604-6.021-0.604-12.043
				c0-5.96,0.115-8.99,0.225-11.921c0.109-2.894,0.221-5.885,0.221-11.771c0-5.639-0.795-8.383-1.637-11.288
				c-0.885-3.045-1.797-6.195-1.797-12.401c0-6.012,0.273-9.067,0.541-12.022c0.27-2.999,0.523-5.832,0.523-11.663
				c0-5.642-0.785-8.387-1.615-11.294c-0.871-3.044-1.771-6.191-1.771-12.395c0-6.406,1.66-9.636,3.266-12.76
				c1.453-2.823,2.824-5.491,2.824-10.929c0-5.543-1.062-8.248-2.186-11.111c-1.211-3.085-2.465-6.274-2.465-12.574
				c0-5.812-0.312-8.636-0.643-11.625c-0.328-2.965-0.668-6.032-0.668-12.064c0-5.936,0.043-8.953,0.086-11.872
				C223.326,106.363,223.371,103.36,223.371,97.453z"/>
			<path opacity="0.3" fill="#281D14" d="M111.879,280.685c2.01-27.129,7.422-52.47,7.908-80.091
				c0.186-10.526,2.418-20.863,2.168-31.203c-0.188-7.731-1.713-14.745-1.66-22.728c0.062-9.532,2.162-20.755,1.113-30.251
				c-0.307-2.78-1.566-4.766-1.963-7.342c-0.895-5.821,0.223-5.614,0.381-10.013c0.176-4.869,1.146-10.562,1.064-17.132
				c-0.262-21.268,2.48-41.66-1.102-62.587c-2.191-12.796-0.889-28.035-2.393-41.403c-1.973-0.469-3.768-1.06-5.449-1.618
				c-2.6-0.863-4.846-1.609-6.984-1.609c-2.465,0-4.68,1.016-7.176,3.293c-4.406,4.016-3.201,7.184-1.205,12.433
				c1.318,3.465,2.812,7.393,2.812,12.287c0,5.908,0.051,8.911,0.1,11.815c0.051,2.922,0.102,5.942,0.102,11.884
				c0,5.738,0.521,8.526,1.076,11.479c0.562,3.002,1.145,6.106,1.145,12.216c0,6.182-0.826,9.32-1.623,12.355
				c-0.768,2.917-1.492,5.673-1.492,11.338c0,5.615,0.865,8.349,1.783,11.244c0.969,3.057,1.969,6.218,1.969,12.45
				c0,5.992-0.209,9.038-0.412,11.984c-0.199,2.878-0.404,5.854-0.404,11.71c0,6.257-1.088,9.428-2.143,12.495
				c-0.988,2.884-1.924,5.606-1.924,11.195c0,5.947-0.078,8.972-0.152,11.896c-0.072,2.899-0.148,5.897-0.148,11.795
				c0,5.805,0.33,8.625,0.68,11.61c0.348,2.969,0.709,6.039,0.709,12.078c0,5.519,1.137,8.215,2.342,11.069
				c1.305,3.096,2.654,6.296,2.654,12.623c0,6.332-1.367,9.534-2.689,12.631c-1.219,2.853-2.369,5.547-2.369,11.061
				c0,5.948-0.078,8.973-0.152,11.896c-0.074,2.899-0.152,5.897-0.152,11.795c0,5.904,0.055,8.906,0.107,11.809
				c0.051,2.921,0.105,5.94,0.105,11.881c0,6.065-0.439,9.147-0.863,12.129c-0.424,2.974-0.824,5.783-0.824,11.564
				c0,5.764,0.445,8.564,0.918,11.53c0.477,2.988,0.971,6.078,0.971,12.159c0,5.827,0.271,8.658,0.561,11.655
				c0.285,2.959,0.58,6.019,0.58,12.038c0,5.742,0.508,8.533,1.043,11.487c0.545,2.999,1.109,6.1,1.109,12.202
				c0,5.891,0.094,8.885,0.186,11.781c0.092,2.927,0.186,5.953,0.186,11.907c0,6.366-1.5,9.582-2.953,12.691
				c-1.326,2.838-2.578,5.52-2.578,10.997c0,5.792,0.367,8.606,0.754,11.586c0.387,2.975,0.787,6.05,0.787,12.102
				c0,5.485,1.232,8.169,2.537,11.01c1.426,3.107,2.902,6.32,2.902,12.68c0,6.089-0.52,9.184-1.02,12.176
				c-0.496,2.962-0.965,5.759-0.965,11.516c0,5.721,0.564,8.502,1.162,11.445c0.611,3.009,1.244,6.12,1.244,12.243
				c0,6.054-0.408,9.13-0.803,12.105c-0.395,2.979-0.768,5.791-0.768,11.581c0,6.241-1.037,9.405-2.039,12.466
				c-0.945,2.89-1.838,5.619-1.838,11.222c0,5.984-0.191,9.027-0.377,11.97c-0.18,2.88-0.367,5.858-0.367,11.718
				c0,5.782,0.393,8.591,0.811,11.565c0.416,2.979,0.848,6.06,0.848,12.12c0,5.724,0.561,8.506,1.154,11.451
				c0.605,3.008,1.232,6.118,1.232,12.239c0,6.179-0.82,9.315-1.615,12.349c-0.762,2.917-1.482,5.672-1.482,11.336
				c0,6.012-0.275,9.068-0.539,12.023c-0.27,3-0.523,5.833-0.523,11.666c0,5.487,1.219,8.172,2.51,11.015
				c1.412,3.104,2.871,6.315,2.871,12.669c0,6.182-0.83,9.319-1.631,12.354c-0.77,2.916-1.498,5.671-1.498,11.334
				c0,6.163-0.768,9.293-1.51,12.319c-0.717,2.924-1.395,5.687-1.395,11.365c0,3.639-0.422,6.519-0.762,8.833
				c-0.797,5.434-1.127,7.683,4.258,12.588c3.666,3.339,5.824,3.788,7.453,3.788c1.516,0,3.078-0.445,5.057-1.01
				c1.457-0.416,3.1-0.882,5.014-1.241c2.498-7.641,4.27-15.562,4.74-20.608c1.912-20.441-4.109-38.404-4.98-58.451
				c-0.803-18.498,3.604-34.76,2.799-52.252c-0.705-15.309-3.541-30.599-4.17-47.055c-1.229-32.127-3.643-61.352-6.443-93.025
				c-1.303-14.729-1.172-27.662,2.535-40.896c5.291-18.897,11.473-34.623,12.256-57.052
				C126.645,368.321,108.439,327.131,111.879,280.685z"/>
			<g>
				<g>
					<g>
						<path opacity="0.5" fill="#262626" d="M126.502,654.403c1.766-0.194,5.436,1.5,5.436,1.5s2.938,0.666,2.721,2.083
							c-0.215,1.417-1.094,4.533-1.695,5.142c-0.604,0.608-3.299,3.525-6.617,0.525c-1.172-1.171-1.352-2.916-1.668-3.958
							C124.359,658.653,124.229,654.653,126.502,654.403z"/>
						<g>
							<path fill="#808080" stroke="#4D4D4D" stroke-width="2" stroke-miterlimit="10" d="M131.643,657.737
								c2.365,0.667-0.711,2.167,0.295,2.5s-0.879,3.341-2.791,2.833c-1.91-0.508-3.076-2.609-3.557-2.555s-1.789-4.951,0-5.445
								c1.791-0.494,4.354,1.395,4.354,1.395L131.643,657.737z"/>
							<path fill="#A5A5A5" d="M127.777,659.058c-0.918-0.904-1.799-2.321-1.275-2.404c0.525-0.083,2.645,1.202,2.645,1.202
								l1.131,1.202l-1.865,1.096L127.777,659.058z"/>
						</g>
					</g>
					<g>
						<path opacity="0.5" fill="#262626" d="M134.545,674.614c-2.225-9.223-5.398-7.248-9.877-5.466
							c-1.023,0.271-2.301,0.638-3.725,1.108c-6.84,1.68-12.605,5.686-17.299,12.019l-0.207,0.437l0.205,0.436
							c7.088,15.108,8.555,14.794,21.396,4.423l9.619-12.483L134.545,674.614z"/>
						<g>
							<path fill="#808080" stroke="#4D4D4D" stroke-width="2" stroke-miterlimit="10" d="M103.438,678.773
								c5.5-11.505,16.5-10.108,21.5-13.057s7,5.329,7,5.329l-9,11.723c0,0-12.5,10.098-14,7.299S103.438,678.773,103.438,678.773z"
								/>
							<path fill="#A5A5A5" stroke="#4D4D4D" stroke-miterlimit="10" d="M106.938,679.77l13.666-8.167c0,0,2.832,2.001,4.166,2.667
								s-4,7.333-4,7.333l-10.166,3.667L106.938,679.77z"/>
							<path fill="#A09D9A" stroke="#4D4D4D" stroke-miterlimit="10" d="M120.604,671.603l5.092-6.253
								c0,0-19.393,3.998-22.258,13.424l3.5,0.996L120.604,671.603z"/>
							<path fill="#686868" stroke="#4D4D4D" stroke-miterlimit="10" d="M124.938,674.77c2.252-0.59,4.248-1.817,6.332-2.5
								c0,0,0.84-1.548,0-3.172c-0.838-1.624-2.996-4.594-4.664-3.987s-6.002,6.492-6.002,6.492L124.938,674.77z"/>
						</g>
					</g>
					<g>
						<path opacity="0.5" fill="#262626" d="M120.109,659.058c0.25-0.321,3.084,0,3.084,0l-1.541,6.679l-4.973,0.334
							c0,0-0.619-0.344-0.719-1.797c-0.102-1.453,1.076-4.666,1.076-4.666L120.109,659.058z"/>
						<path fill="#808080" stroke="#4D4D4D" stroke-width="2" stroke-miterlimit="10" d="M117.037,664.273c0,0-0.805-4.498,0-4.666
							c0.803-0.168,4.379,0,4.379,0l-1.125,4.666H117.037z"/>
					</g>
				</g>
				<g>
					<g>
						<path opacity="0.5" fill="#262626" d="M188.494,428.717c0.113,1.772,2.414,5.095,2.414,5.095s1.164,2.778,2.521,2.322
							c1.359-0.457,4.277-1.859,4.773-2.558c0.494-0.698,2.902-3.856-0.623-6.608c-1.355-0.951-3.105-0.828-4.188-0.961
							C192.312,425.874,188.35,426.434,188.494,428.717z"/>
						<g>
							<path fill="#808080" stroke="#4D4D4D" stroke-width="2" stroke-miterlimit="10" d="M192.664,433.206
								c1.064,2.214,2.014-1.075,2.514-0.142c0.502,0.934,3.141-1.441,2.311-3.237c-0.83-1.794-3.102-2.58-3.129-3.062
								c-0.029-0.482-5.188-0.91-5.365,0.938s2.125,4.048,2.125,4.048L192.664,433.206z"/>
							<path fill="#A5A5A5" d="M193.299,429.17c-1.049-0.747-2.596-1.372-2.588-0.841c0.01,0.531,1.641,2.397,1.641,2.397
								l1.379,0.905l0.758-2.025L193.299,429.17z"/>
						</g>
					</g>
					<g>
						<path opacity="0.5" fill="#262626" d="M209.789,433.155c-9.467-0.602-8.07-4.068-7.086-8.787
							c0.092-1.055,0.23-2.377,0.449-3.86c0.477-7.026,3.428-13.396,8.857-19.11l0.395-0.28l0.465,0.128
							c16.104,4.377,16.047,5.876,8.043,20.312l-10.637,11.629L209.789,433.155z"/>
						<g>
							<path fill="#808080" stroke="#4D4D4D" stroke-width="2" stroke-miterlimit="10" d="M208.525,401.796
								c-10.385,7.4-7.113,17.996-9.156,23.429c-2.043,5.434,6.455,5.977,6.455,5.977l9.996-10.886c0,0,7.793-14.053,4.777-15.049
								C217.582,404.272,208.525,401.796,208.525,401.796z"/>
							<path fill="#A5A5A5" stroke="#4D4D4D" stroke-miterlimit="10" d="M210.109,405.072l-5.689,14.87c0,0,2.459,2.444,3.346,3.644
								c0.885,1.199,6.533-5.204,6.533-5.204l1.859-10.646L210.109,405.072z"/>
							<path fill="#A09D9A" stroke="#4D4D4D" stroke-miterlimit="10" d="M204.42,419.942l-5.281,6.094c0,0,0.596-19.793,9.387-24.24
								l1.584,3.276L204.42,419.942z"/>
							<path fill="#686868" stroke="#4D4D4D" stroke-miterlimit="10" d="M208.287,423.665c-0.193,2.319-1.059,4.497-1.371,6.668
								c0,0-1.381,1.094-3.125,0.547c-1.744-0.546-5.041-2.16-4.732-3.908c0.311-1.747,5.361-7.029,5.361-7.029L208.287,423.665z"/>
						</g>
					</g>
					<g>
						<path opacity="0.5" fill="#262626" d="M191.979,421.618c-0.273,0.301,0.531,3.036,0.531,3.036l6.312-2.669l-0.527-4.955
							c0,0-0.445-0.551-1.895-0.398c-1.449,0.15-4.41,1.863-4.41,1.863L191.979,421.618z"/>
						<path fill="#808080" stroke="#4D4D4D" stroke-width="2" stroke-miterlimit="10" d="M196.586,417.691
							c0,0-4.57-0.017-4.596,0.804c-0.027,0.821,0.754,4.314,0.754,4.314l4.402-1.913L196.586,417.691z"/>
					</g>
				</g>
				<g>
					<g>
						<path opacity="0.5" fill="#262626" d="M120.166,129.371c-1.314-1.195-5.277-1.983-5.277-1.983s-2.768-1.188-3.428,0.084
							c-0.658,1.273-1.779,4.311-1.65,5.158c0.129,0.846,0.596,4.789,5.041,4.314c1.637-0.258,2.809-1.563,3.678-2.22
							S121.857,130.911,120.166,129.371z"/>
						<g>
							<path fill="#808080" stroke="#4D4D4D" stroke-width="2" stroke-miterlimit="10" d="M114.047,129.044
								c-2.305-0.851-0.699,2.172-1.707,1.85c-1.01-0.322-1.254,3.219,0.59,3.932s4.023-0.301,4.379,0.027
								c0.355,0.325,4.359-2.953,3.203-4.406c-1.158-1.452-4.342-1.432-4.342-1.432L114.047,129.044z"/>
							<path fill="#A5A5A5" d="M116.398,132.387c1.273-0.194,2.818-0.82,2.443-1.196c-0.375-0.375-2.846-0.583-2.846-0.583
								l-1.621,0.309l0.865,1.983L116.398,132.387z"/>
						</g>
					</g>
					<g>
						<path opacity="0.5" fill="#262626" d="M101.775,140.989c7.223-6.152,8.629-2.688,11.203,1.387
							c0.668,0.82,1.486,1.869,2.361,3.087c4.543,5.38,6.852,12.011,6.922,19.894l-0.088,0.475l-0.422,0.23
							c-14.617,8.053-15.619,6.937-19.906-9.004l-0.441-15.754L101.775,140.989z"/>
						<g>
							<path fill="#808080" stroke="#4D4D4D" stroke-width="2" stroke-miterlimit="10" d="M124.49,162.646
								c2.316-12.539-7.402-17.879-9.711-23.203c-2.311-5.325-8.797,0.193-8.797,0.193l0.387,14.773c0,0,4.172,15.519,7.031,14.137
								C116.26,167.163,124.49,162.646,124.49,162.646z"/>
							<path fill="#A5A5A5" stroke="#4D4D4D" stroke-miterlimit="10" d="M121.074,161.392l-6.252-14.641
								c0,0-3.467-0.047-4.939-0.293c-1.469-0.246-1.076,8.282-1.076,8.282l6.066,8.944L121.074,161.392z"/>
							<path fill="#A09D9A" stroke="#4D4D4D" stroke-miterlimit="10" d="M114.822,146.751l-0.441-8.053
								c0,0,13.334,14.64,10.109,23.947l-3.416-1.254L114.822,146.751z"/>
							<path fill="#686868" stroke="#4D4D4D" stroke-miterlimit="10" d="M109.455,146.765c-1.475-1.803-2.367-3.969-3.652-5.747
								c0,0,0.232-1.745,1.865-2.565s5.127-1.953,6.119-0.48c0.992,1.471,1.035,8.779,1.035,8.779L109.455,146.765z"/>
						</g>
					</g>
					<g>
						<path opacity="0.5" fill="#262626" d="M122.598,136.895c-0.012-0.406-2.492-1.812-2.492-1.812l-2.682,6.308l3.824,3.194
							c0,0,0.703,0.086,1.641-1.031c0.936-1.115,1.873-4.405,1.873-4.405L122.598,136.895z"/>
						<path fill="#808080" stroke="#4D4D4D" stroke-width="2" stroke-miterlimit="10" d="M122.018,142.921
							c0,0,3.295-3.166,2.744-3.773c-0.551-0.609-3.543-2.576-3.543-2.576l-1.834,4.436L122.018,142.921z"/>
					</g>
				</g>
			</g>
		</g>
	</g>
</g>
</svg>
