<?xml version="1.0" encoding="utf-8"?>
<!-- Generator: Adobe Illustrator 16.0.0, SVG Export Plug-In . SVG Version: 6.00 Build 0)  -->
<!DOCTYPE svg PUBLIC "-//W3C//DTD SVG 1.1//EN" "http://www.w3.org/Graphics/SVG/1.1/DTD/svg11.dtd">
<svg version="1.1" id="Layer_1" xmlns="http://www.w3.org/2000/svg" xmlns:xlink="http://www.w3.org/1999/xlink" 
	 viewBox="0 0 165.724 166.479" enable-background="new 0 0 165.724 166.479"
	 xml:space="preserve">
<g>
	<linearGradient id="SVGID_1_" gradientUnits="userSpaceOnUse" x1="13.2842" y1="151.2822" x2="152.9766" y2="151.2822">
		<stop  offset="0" style="stop-color:#41342A"/>
		<stop  offset="0.195" style="stop-color:#5E4430"/>
		<stop  offset="0.425" style="stop-color:#5A4230"/>
		<stop  offset="0.575" style="stop-color:#4B3B2E"/>
		<stop  offset="0.835" style="stop-color:#544132"/>
		<stop  offset="1" style="stop-color:#41342A"/>
	</linearGradient>
	<path fill="url(#SVGID_1_)" d="M14.066,166.417h137.71c0-0.092,3.457-14.068-1.365-22.883c-6.238-11.406-12.023-0.307-25.025-0.307
		s-13.002,3.156-26.002,3.156c-12.999,0-12.999-5.371-26-5.371c-12.998,0-12.998-0.745-25.998-0.745
		c-12.998,0-18.67-9.063-28.275-0.307C10.353,147.943,14.066,166.33,14.066,166.417z"/>
	<linearGradient id="SVGID_2_" gradientUnits="userSpaceOnUse" x1="89.7207" y1="12.3472" x2="89.7207" y2="152.1543">
		<stop  offset="0" style="stop-color:#41342A"/>
		<stop  offset="0.195" style="stop-color:#5E4430"/>
		<stop  offset="0.425" style="stop-color:#5A4230"/>
		<stop  offset="0.575" style="stop-color:#4B3B2E"/>
		<stop  offset="0.835" style="stop-color:#544132"/>
		<stop  offset="1" style="stop-color:#41342A"/>
	</linearGradient>
	<path fill="url(#SVGID_2_)" d="M165.628,12.986c-6.514,0.045-7.463,0.24-15.637,0.24c-9.229,0-9.229-1.5-18.459-1.5
		c-9.229,0-9.229,1.456-18.459,1.456c-9.227,0-9.227-2.083-18.453-2.083c-9.228,0-9.228,1.926-18.457,1.926
		c-9.228,0-17.089,6.972-24.718,12.127c-6.809,6.242-13.665,14.964-16.664,20.338c-4.816,0-11.16,2.733-15.699,36.901
		c-2.582,19.435,0.063,38.97-0.465,52.488c-0.322,8.247-3.602,14.265-4.804,16.621c9.23,0,16.23,0.762,25.46,0.762
		s9.229-1.459,18.46-1.459c9.227,0,9.227,1.705,18.453,1.705c9.229,0,9.229-1.752,18.458-1.752c9.227,0,9.227,2.344,18.455,2.344
		c9.227,0,9.227,0.584,18.453,0.584s9.227-1.56,18.453-1.56c8.166,0,9.119,0.892,15.621,1.097V12.986z"/>
	<linearGradient id="SVGID_3_" gradientUnits="userSpaceOnUse" x1="15.1758" y1="148.7783" x2="153.5723" y2="148.7783">
		<stop  offset="0" style="stop-color:#41342A"/>
		<stop  offset="0.195" style="stop-color:#5E4430"/>
		<stop  offset="0.425" style="stop-color:#5A4230"/>
		<stop  offset="0.575" style="stop-color:#4B3B2E"/>
		<stop  offset="0.835" style="stop-color:#544132"/>
		<stop  offset="1" style="stop-color:#41342A"/>
	</linearGradient>
	<path fill="url(#SVGID_3_)" d="M22.066,166.141c-1.291-8.57-4.094-14.3-6.778-20.513c-0.782-1.811,2.751-4.104,3.823-5.667
		c2.604-3.801,5.16-9.634,10.529-8.726c7.578,1.28,62.25,5.515,67,4.13c4.75-1.387,21.047-1.467,26.744,0.748
		c5.697,2.214,21.277-1.068,24.611-1.064c3.332,0.002,6.506,8.803,5.326,12.308c-1.182,3.507-6.955,10.97-6.326,12.729
		s-31.355,7.666-37.605,6.055s-28-3.488-34.25-2.951c-6.25,0.535-27.331,3.227-27.331,3.227L22.066,166.141z"/>
	<path opacity="0.3" fill="#281D14" d="M15.25,150.823c0.147,4.192,0.717,12.148,0.717,15.635c0,0.089,6.1-0.128,6.1-0.041h16.94
		c-0.134-4.7,1.934-9.474,1.778-14.171c0,0,3.271-24.507,0.009-30.507s-6.295-29.25-4.153-36c2.142-6.75,9.892-37.5,22.142-44.25
		s15.5-9,15.75-10.25s4.686-1.75,9.843-2.5c5.157-0.75,31.755,3.75,39.706,2.75s41.643,8.553,41.643,8.553V15.068
		c0,0-6.51-1.495-14.389-1.844c-7.877-0.349-19.152-3.063-32.729-0.274c-13.574,2.789-21.453-4.557-37.334-0.771
		c-15.881,3.785-30.99,9.312-46.49,33.312c-9.75,5.749-16.426,29.315-15.963,39.032c-2.287,8.467-1.4,43.137,0.031,52.927
		L15.25,150.823z"/>
	<path opacity="0.3" fill="#261915" d="M15.322,153.841c0.357,3.501,0.644,9.319,0.645,12.617c0,0.089,6.1-0.128,6.1-0.041h9.255
		l2.108-2.232l4.629-2.374l0.652-3.389l-3.225-2.908l-1.304-3.354l3.101-4.253l-1.75-2.833c0,0,2.666-7.417,2.666-7.667
		s-0.333-3.86-0.333-3.86l-1.226-5.89v-4.75v-3.166l-5.274-2.167c0,0,1.751-2.499,1.667-2.833s1.25-3.75,1.25-3.75l-0.917-3.25
		l-1.834-9.001l1-9.961l0.25-6.387l0.25-7.692l3.608-8.71l-4.608-4.75l4.608-5.25l3.142-7.25l1.25-4.75l8.75-5.902l2.25-1.598v-5
		l10.25-2.75l3.25-4.25l10.733-1.75l3.017-3l10.194-1.25c2.057,0.25,4.307,2.75,4.307,2.75l5.75-1l1.707-3l8.043,2.75l5.5,2.75
		l5.602-3.5l5.898,3l6.25-1.25l4.682-2.5l9.318,0.25l7.568,1.5l1.133,0.75l1.633,4.5l4.055,4.002l4.803,5.502V15.068
		c0,0-26.691-3.079-38.441-3.079c-16.5,4.25-47.25-6.75-69.5,8.75s-19.5,21.002-23,24.751s-18.5,15.499-17.25,67.25
		c0.75,17.5,1.48,26.317,1.48,26.317S14.362,144.442,15.322,153.841z"/>
	<g>
		<path opacity="0.3" fill="#281D14" d="M149.88,166.417c0-0.092,0.803-13.698,1.098-14.285c-0.32-0.003-0.627-0.008-0.971-0.008
			c-9.227,0-9.227,1.56-18.453,1.56c-7.348,0-8.855-0.369-13.82-0.521c-1.029,4.222,1.916,6.368-0.465,13.254H149.88z"/>
		<g opacity="0.3">
			<path fill="#261915" d="M131.038,166.417h18.941c0-0.092-0.316-8.136,0.74-12.344c0.201-0.797-0.037-1.354,0.258-1.941
				c-0.32-0.003-0.627-0.008-0.971-0.008c-7.006,0-8.699,0.897-13.145,1.331l-1.115,2.253l-3.008,2.936l2.705,3.908L131.038,166.417
				z"/>
		</g>
	</g>
	<path opacity="0.3" fill="#281D14" d="M165.628,118.827c-3.699-0.144-7.404-1.815-8.527-2.046
		c-4.053-0.83-11.963,5.362-16.094,5.892c-8.193,1.05-6.078,4.282-11.936,10.032c-4.416,4.335-7.961,9.627-9.863,15.451
		c-0.52,1.598-0.887,3.303-1.219,5.016c4.76,0.155,6.346,0.512,13.564,0.512c9.227,0,9.227-1.56,18.453-1.56
		c8.166,0,9.119,0.892,15.621,1.097V118.827z"/>
	<path opacity="0.3" fill="#261915" d="M165.628,138.222c-1.697-0.248-4.604-0.833-4.738-0.878
		c-0.188-0.062-2.688-2.312-2.688-2.312l-2.125,2.125l-3.113,0.875l-1.637-0.875c0,0-6.438,0.625-6.75,0.688
		s-3.188,1.312-3.312,1.562s-3.5,3.375-3.93,3.429s-1.76,2.259-1.76,2.259v3l-1.811,1.562l3.619,2.745l-0.521,1.054
		c4.445-0.434,6.139-1.331,13.145-1.331c8.166,0,9.119,0.892,15.621,1.097V138.222z"/>
	<path fill="none" stroke="#709922" stroke-width="4" stroke-miterlimit="10" d="M165.628,152.966
		c-1.863,0.002-6.613-0.548-12.664-0.782"/>
	<circle fill="#709922" cx="153.061" cy="152.349" r="2.173"/>
	<path fill="#261915" d="M142.265,149.406"/>
	<g>
		<g>
			<path opacity="0.5" fill="#262626" d="M163.081,135.271c0.586-1.678-0.24-5.633-0.24-5.633s0.01-3.012-1.418-3.121
				c-1.43-0.107-4.664,0.049-5.393,0.499c-0.729,0.449-4.174,2.422-1.998,6.327c0.877,1.406,2.537,1.973,3.48,2.516
				C158.458,136.401,162.325,137.429,163.081,135.271z"/>
			<g>
				<path fill="#808080" stroke="#4D4D4D" stroke-width="2" stroke-miterlimit="10" d="M160.987,129.511
					c-0.119-2.453-2.271,0.207-2.371-0.848c-0.098-1.055-3.451,0.105-3.387,2.082c0.066,1.976,1.852,3.585,1.689,4.041
					c-0.16,0.453,4.422,2.855,5.307,1.223c0.885-1.634-0.381-4.555-0.381-4.555L160.987,129.511z"/>
				<path fill="#A5A5A5" d="M158.831,132.983c0.678,1.096,1.857,2.273,2.057,1.78c0.199-0.491-0.576-2.847-0.576-2.847l-0.918-1.371
					l-1.486,1.572L158.831,132.983z"/>
			</g>
		</g>
		<g>
			<path opacity="0.5" fill="#262626" d="M145.192,122.892c8.488,4.24,5.852,6.889,3.107,10.854
				c-0.492,0.936-1.139,2.098-1.916,3.381c-3.174,6.285-8.373,11.004-15.6,14.153l-0.471,0.104l-0.377-0.297
				c-13.131-10.303-12.496-11.66,0.496-21.844l14.326-6.57L145.192,122.892z"/>
			<g>
				<path fill="#808080" stroke="#4D4D4D" stroke-width="2" stroke-miterlimit="10" d="M134.151,152.269
					c12.445-2.773,13.557-13.807,17.553-18.015c3.996-4.21-3.619-8.021-3.619-8.021l-13.445,6.137c0,0-12.648,9.912-10.258,12.002
					S134.151,152.269,134.151,152.269z"/>
				<path fill="#A5A5A5" stroke="#4D4D4D" stroke-miterlimit="10" d="M133.968,148.636l11.027-11.482c0,0-1.312-3.209-1.662-4.66
					c-0.35-1.449-8.043,2.25-8.043,2.25l-5.859,9.082L133.968,148.636z"/>
				<path fill="#A09D9A" stroke="#4D4D4D" stroke-miterlimit="10" d="M144.995,137.153l7.238-3.557c0,0-8.256,17.998-18.082,18.672
					l-0.184-3.633L144.995,137.153z"/>
				<path fill="#686868" stroke="#4D4D4D" stroke-miterlimit="10" d="M142.884,132.22c1.08-2.062,2.725-3.732,3.859-5.61
					c0,0,1.695-0.47,3.09,0.712c1.395,1.183,3.803,3.955,2.836,5.443c-0.965,1.489-7.674,4.389-7.674,4.389L142.884,132.22z"/>
			</g>
		</g>
		<g>
			<path opacity="0.5" fill="#262626" d="M157.108,140.452c0.369-0.17,0.693-3.003,0.693-3.003h-6.855l-1.441,4.77
				c0,0,0.195,0.681,1.59,1.106c1.393,0.424,4.787,0,4.787,0L157.108,140.452z"/>
			<path fill="#808080" stroke="#4D4D4D" stroke-width="2" stroke-miterlimit="10" d="M151.335,142.276c0,0,4.203,1.793,4.547,1.049
				c0.346-0.746,0.984-4.269,0.984-4.269l-4.799,0.048L151.335,142.276z"/>
		</g>
	</g>
	<g>
		<path fill="#60492F" d="M36.64,131.406c0,0,0.311-0.05,0.893-0.145c0.29-0.052,0.649-0.096,1.083-0.119
			c0.431-0.034,0.937-0.073,1.488-0.064c1.113-0.024,2.458,0.027,3.982,0.119c0.758,0.04,1.567,0.086,2.403,0.104
			c0.833,0.026,1.698,0.025,2.651,0.028c1.877-0.002,3.911-0.003,6.059,0.052c2.137-0.009,4.445,0.218,6.809,0.414
			c1.186,0.102,2.391,0.206,3.611,0.311c1.155,0.106,2.4,0.241,3.611,0.387c0.611,0.071,1.224,0.142,1.838,0.214l1.824,0.165
			c1.217,0.113,2.438,0.227,3.66,0.34c2.456,0.147,4.912,0.381,7.331,0.434c2.448,0.099,4.857,0.195,7.189,0.288
			c2.325,0.1,4.572,0.195,6.703,0.285c2.119,0.049,4.116,0.079,5.959,0.044c1.84-0.059,3.522-0.164,5.013-0.324
			c0.744-0.082,1.432-0.209,2.08-0.286c0.64-0.121,1.228-0.232,1.758-0.333c1.046-0.265,1.89-0.45,2.438-0.651
			c0.565-0.171,0.866-0.262,0.866-0.262s-0.269,0.164-0.772,0.472c-0.502,0.32-1.27,0.728-2.282,1.197
			c-0.517,0.211-1.089,0.443-1.711,0.697c-0.634,0.223-1.327,0.448-2.075,0.667c-1.496,0.426-3.213,0.826-5.104,1.11
			c-1.888,0.294-3.945,0.53-6.118,0.655c-2.171,0.138-4.455,0.232-6.798,0.251c-2.329,0.025-4.733,0.125-7.246,0.068
			c-2.501,0.035-5.023-0.194-7.554-0.326c-2.512-0.271-5.092-0.469-7.498-0.863c-1.223-0.186-2.437-0.37-3.635-0.552
			c-1.174-0.168-2.333-0.333-3.474-0.496c-2.293-0.283-4.466-0.749-6.622-0.937c-2.136-0.226-4.152-0.493-6.012-0.739
			c-0.466-0.062-0.922-0.124-1.368-0.185c-0.462-0.063-0.914-0.119-1.338-0.214c-0.861-0.163-1.657-0.343-2.406-0.508
			c-1.49-0.319-2.773-0.651-3.84-0.839c-1.067-0.188-1.897-0.348-2.495-0.376C36.954,131.436,36.64,131.406,36.64,131.406z"/>
	</g>
	<path fill="none" stroke="#709922" stroke-width="4" stroke-miterlimit="10" d="M152.964,152.184
		c0.096,2.338-1.084,2.419-1.084,14.261"/>
	<path fill="none" stroke="#709922" stroke-width="4" stroke-miterlimit="10" d="M13.966,166.458c0-11.85-3.613-18.515,5.145-26.497
		c0,0-8.996-76.804,15.671-94.471c0,0,14.678-34.391,59.838-34.391c9.227,0,9.227,2.083,18.453,2.083
		c9.23,0,9.23-1.456,18.459-1.456c9.23,0,9.23,1.5,18.459,1.5c9.232,0,14.207,1.866,15.732,1.842"/>
	<g>
		<g>
			<path fill="#60492F" d="M48.782,128.156c-0.033,0.006,0.214-0.592-0.124-1.619c-0.277-1.038-1.117-2.37-2.125-4.137
				c-0.474-0.895-1.104-1.899-1.313-3.253c-0.118-0.571-0.181-1.293-0.171-2c0.013-0.7,0.085-1.427,0.235-2.157
				c0.291-1.468,0.85-2.949,1.518-4.423c0.67-1.471,1.467-2.934,2.157-4.465c0.159-0.384,0.344-0.768,0.484-1.159l0.204-0.534
				l0.196-0.645c0.125-0.428,0.278-0.874,0.383-1.299c0.08-0.408,0.161-0.82,0.242-1.235c0.28-1.708,0.429-3.553,0.388-5.472
				c-0.035-1.926-0.181-3.937-0.296-6.045c-0.125-2.104-0.16-4.329,0.093-6.63c0.247-2.296,0.823-4.664,1.823-6.898l0.403-0.825
				l0.204-0.413l0.102-0.207l0.051-0.103l0.025-0.052c-0.026,0.041,0.065-0.114,0.066-0.114l0.878-1.44
				c0.595-0.957,1.193-1.918,1.794-2.884c2.732-3.868,5.697-7.66,9.194-10.88c1.673-1.702,3.583-3.127,5.414-4.628
				c0.913-0.756,1.926-1.368,2.88-2.055c0.979-0.65,1.905-1.38,2.928-1.94c2.007-1.186,3.976-2.407,6.053-3.349
				c1.019-0.498,2.03-0.993,3.034-1.484c0.997-0.461,1.986-0.92,2.968-1.375c3.898-1.855,7.857-3.587,11.83-4.689
				c0.487-0.159,0.998-0.25,1.492-0.371c0.522-0.114,0.934-0.229,1.536-0.337c0.955-0.136,1.896-0.271,2.821-0.403
				c1.859-0.231,3.626-0.54,5.377-0.682c1.758-0.104,3.443-0.203,5.046-0.297c0.799-0.04,1.577-0.079,2.333-0.117
				c0.754,0.004,1.485,0.009,2.194,0.013c2.833,0.039,5.298,0.001,7.324,0.16c4.052,0.251,6.355,0.442,6.355,0.442
				s-2.317,0.159-6.352,0.354c-1.009,0.03-2.123,0.122-3.334,0.243c-1.211,0.102-2.52,0.212-3.918,0.331
				c-0.698,0.059-1.418,0.119-2.16,0.181c-0.732,0.103-1.486,0.209-2.26,0.318c-1.542,0.203-3.163,0.417-4.855,0.639
				c-1.69,0.256-3.464,0.694-5.292,1.053c-0.916,0.184-1.848,0.371-2.794,0.561c-0.342,0.082-0.865,0.243-1.294,0.36
				c-0.45,0.135-0.909,0.238-1.358,0.412c-3.635,1.211-7.287,3.05-11.163,5.004c-3.932,1.942-7.762,3.934-11.528,6.304
				c-0.972,0.541-1.835,1.245-2.758,1.869c-0.896,0.66-1.854,1.247-2.707,1.97c-1.712,1.436-3.501,2.798-5.06,4.411
				c-0.796,0.786-1.662,1.506-2.404,2.343l-2.238,2.495c-0.782,0.81-1.404,1.707-2.073,2.574c-0.655,0.884-1.339,1.709-1.97,2.631
				c-0.613,0.958-1.223,1.912-1.83,2.862l-0.921,1.412l-0.67,1.275c-0.875,1.813-1.421,3.752-1.701,5.753
				c-0.549,4.004-0.155,8.197-0.31,12.283c-0.071,2.052-0.293,4.068-0.763,6.02c-0.137,0.492-0.272,0.981-0.407,1.466
				c-0.15,0.456-0.323,0.861-0.48,1.289l-0.24,0.629c-0.137,0.324-0.209,0.457-0.316,0.693c-0.19,0.429-0.414,0.82-0.616,1.225
				c-1.711,3.132-3.519,5.664-4.245,8.234c-0.191,0.635-0.31,1.262-0.376,1.874c-0.055,0.605-0.08,1.156-0.023,1.792
				c0.033,1.091,0.503,2.113,0.877,3.034c0.817,1.832,1.47,3.339,1.626,4.441C49.075,127.599,48.745,128.163,48.782,128.156z"/>
		</g>
		<g>
			<path fill="#60492F" d="M104.599,114.114c0,0-0.099-0.235-0.283-0.678c-0.206-0.431-0.382-1.115-0.568-2.039
				c-0.054-0.456-0.112-0.962-0.176-1.512c-0.014-0.551-0.028-1.154-0.001-1.798c0.088-1.284,0.241-2.751,0.805-4.327
				c0.134-0.396,0.341-0.793,0.521-1.205l0.071-0.154l0.036-0.078l0.018-0.038c-0.038,0.054,0.062-0.096,0.056-0.086l0.01-0.016
				l0.158-0.256l0.322-0.519c0.21-0.341,0.639-0.818,0.958-1.159c0.298-0.296,0.601-0.596,0.907-0.9
				c0.088-0.116,0.156-0.219,0.244-0.318c0.042-0.107,0.078-0.207,0.134-0.299c0.05-0.278,0.15-0.498,0.153-0.904l0.042-0.549
				l0.017-0.674c0.012-0.466,0.023-0.936,0.035-1.41c0.046-1.881,0.099-3.943,0.575-6.137c0.424-2.217,1.66-4.433,3.2-6.133
				l0.599-0.626l0.301-0.311l0.151-0.155l0.037-0.039l0.105-0.091l0.073-0.06l1.17-0.958c0.882-0.648,1.874-1.326,2.785-1.81
				c1.854-1.058,3.772-1.851,5.653-2.456c1.877-0.633,3.728-1.056,5.483-1.387c1.76-0.321,3.432-0.521,4.977-0.631
				c1.54-0.139,2.958-0.161,4.21-0.152c1.252-0.001,2.342,0.059,3.235,0.133c0.894,0.053,1.594,0.157,2.069,0.215
				c0.476,0.066,0.729,0.101,0.729,0.101s-1.003,0.174-2.759,0.479c-0.873,0.143-1.926,0.367-3.127,0.596
				c-1.199,0.248-2.544,0.55-3.996,0.897c-0.727,0.175-1.479,0.367-2.248,0.595c-0.775,0.206-1.565,0.444-2.375,0.693
				c-1.614,0.505-3.296,1.079-4.966,1.788c-0.845,0.338-1.666,0.737-2.503,1.128c-0.806,0.44-1.646,0.845-2.418,1.347
				c-0.832,0.479-1.467,0.983-2.216,1.513l-1.158,0.972l-0.842,0.895c-1.156,1.278-1.999,2.689-2.409,4.385
				c-0.43,1.685-0.617,3.552-0.808,5.449c-0.051,0.472-0.101,0.938-0.15,1.401l-0.079,0.712l-0.146,0.813
				c-0.062,0.509-0.304,1.141-0.544,1.697c-0.173,0.291-0.353,0.579-0.544,0.844c-0.212,0.223-0.435,0.446-0.647,0.643
				c-0.348,0.267-0.691,0.53-1.028,0.789c-0.28,0.249-0.455,0.354-0.739,0.66l-0.4,0.46l-0.196,0.228l-0.013,0.014
				c-0.015,0.02,0.081-0.118,0.037-0.054l-0.018,0.027l-0.035,0.053l-0.069,0.106c-0.179,0.289-0.387,0.55-0.546,0.853
				c-0.647,1.214-1.07,2.488-1.391,3.628c-0.15,0.574-0.228,1.125-0.355,1.633c-0.067,0.517-0.129,0.99-0.185,1.419
				c-0.021,0.836-0.089,1.541,0,2.019C104.577,113.859,104.599,114.114,104.599,114.114z"/>
		</g>
		<g>
			<path fill="#60492F" d="M90.782,77.489c0,0-0.039-0.115-0.112-0.33c-0.054-0.222-0.205-0.517-0.26-0.948
				c-0.037-0.217-0.077-0.458-0.121-0.72c-0.024-0.261-0.029-0.545-0.043-0.854c-0.002-0.308,0.031-0.633,0.05-0.985
				c0.035-0.348,0.122-0.705,0.196-1.086c0.203-0.74,0.462-1.557,0.898-2.33c0.413-0.789,0.95-1.559,1.574-2.281
				c0.615-0.736,1.333-1.402,2.089-2.032c0.755-0.633,1.575-1.186,2.399-1.721c3.349-2.065,6.975-3.326,9.709-4.076
				c1.364-0.394,2.519-0.659,3.331-0.851c0.812-0.188,1.289-0.288,1.289-0.288s-0.357,0.333-1.038,0.83
				c-0.679,0.5-1.676,1.173-2.9,1.891c-2.427,1.486-5.755,3.149-8.805,5.04c-1.519,0.95-2.97,1.958-4.163,3.048
				c-0.6,0.542-1.146,1.096-1.6,1.668c-0.477,0.562-0.845,1.146-1.179,1.706c-0.291,0.574-0.542,1.125-0.723,1.642
				c-0.078,0.259-0.144,0.507-0.225,0.738c-0.054,0.233-0.103,0.447-0.147,0.641c-0.1,0.391-0.12,0.737-0.162,0.955
				C90.803,77.369,90.782,77.489,90.782,77.489z"/>
		</g>
	</g>
	<radialGradient id="SVGID_4_" cx="114.0234" cy="112.9951" r="114.2768" gradientUnits="userSpaceOnUse">
		<stop  offset="0.6134" style="stop-color:#41342A;stop-opacity:0"/>
		<stop  offset="1" style="stop-color:#41342A"/>
	</radialGradient>
	<path fill="url(#SVGID_4_)" d="M154.101,83.662c0,33.458,20.016,60.582-59.447,60.582c-33.458,0-60.582-27.123-60.582-60.582
		c0-33.457,27.123-60.58,60.582-60.58C165.724,23.082,154.101,50.205,154.101,83.662z"/>
</g>
</svg>
