<?xml version="1.0" encoding="utf-8"?>
<!-- Generator: Adobe Illustrator 18.0.0, SVG Export Plug-In . SVG Version: 6.00 Build 0)  -->
<!DOCTYPE svg PUBLIC "-//W3C//DTD SVG 1.1//EN" "http://www.w3.org/Graphics/SVG/1.1/DTD/svg11.dtd">
<svg version="1.1" id="Layer_1" xmlns="http://www.w3.org/2000/svg" xmlns:xlink="http://www.w3.org/1999/xlink" 
	 viewBox="0 0 250.9 396.5" enable-background="new 0 0 250.9 396.5" xml:space="preserve">
<g>
	<g opacity="0.1">
		<path d="M226.4,203.6c-0.1-21.7-7.2-44.3-18.9-59.8c-1.1-2.3-3-6-4.7-8.6c0.3-1.6-1.1-3.4-2.3-2.9c-0.4-0.4-0.8-0.7-1.1-0.8
			c-0.2-0.5-0.4-0.9-0.6-1.2c-0.2-0.6-0.9-1.4-1.3-1.8c-0.5-1.6-1.2-3.3-2.5-4v-23.6c0-0.8-0.2-1.5-0.6-2.1v-0.3h-0.2
			c-0.4-0.5-1-0.8-1.6-0.8H60.1c-0.6,0-1.2,0.3-1.6,0.8h-0.2v0.3c-0.4,0.6-0.6,1.3-0.6,2.1v24.5c-0.7,0.9-1.2,2-1.5,3.1
			c-0.5,0.6-0.9,1.2-1.3,1.8c-0.2,0.4-0.4,0.8-0.6,1.2c-0.4,0.2-0.7,0.5-1.1,0.8c-1.2-0.5-2.6,1.3-2.3,2.9c-1.6,2.6-3.5,6.3-4.7,8.6
			C29.9,165.4,23,198.9,29.8,228c0,0.2-0.1,0.4-0.1,0.5l0.3,0.1c1.2,5.2,2.9,10,5.1,14.2c0,0.1,0,0.2,0,0.3l0.1,0
			c1,1.9,2.1,3.7,3.3,5.3c1.7,12.2,13.4,21.2,19.3,23.8c4.3,8.4,10.7,12.6,19.2,12.6c2,5.1,4.5,9.8,7.4,14c2.5,26,14.5,26.1,30,31.4
			l-0.3,0l0.2,5.6l1.6-0.1c-5.8,9.3-9.5,15.5-6.8,28.8c-2,5.9-1.6,10.7,1.2,14.4c1.4,5.4,5,4,3.5-1.3c0.4-1.2,0.4-2.3,0.1-3.5
			c1.2,3.4,3.4-0.1,4.3-1.4c1.5-0.3,2.7-1.3,3.7-2.9c-0.1,1.3-0.3,2.8,0.6,3.8c-0.5,6.3,3.2,6.5,3.6,0.1c1.4-2.8,1.9-6,1.5-9.6
			c3,7.2-2.6,16.2-0.7,22c-3.1,5.4,0.5,7.4,3.6,1.7c1.7-1.1,2.8-2.8,3.4-5.3c0.3,0.2,0.6,0.3,0.9,0.3c1.9,0,2.2-3.8,2.4-5.4
			c2.4-1.5,1.8-7.2,2.2-9.7c0.1,0.2,0.2,0.4,0.3,0.6c-2,5.1,2.4,5.9,3.8,0.6c1-1,1.6-2.4,1.7-4.1c0.4,1.7,1.3,2.8,2.6,3.5
			c1.9,4.4,5.3,2.7,3-2.7c0-1.7-0.5-3.1-1.4-4.4c0.7-0.3,1.2-0.9,1.4-1.8c0.9,7.6,5-6,4.9-5.3c10.4-8.9-12.5-17.7-16.6-19.9l0.3,0
			l-0.2-5.1c10.6,0,26.7-12.9,28.5-27.8c3.6-4.9,6.7-10.5,9.1-16.5c8.5,0.1,14.9-4.1,19.2-12.5c5.9-2.6,17.7-11.7,19.4-23.9
			c1.2-1.6,2.3-3.4,3.3-5.3l0.1,0c0-0.1,0-0.2,0-0.3c2.1-4.2,3.8-9,5.1-14.2l0.3-0.1c0-0.2-0.1-0.4-0.1-0.5
			C225.7,220.2,226.5,211.7,226.4,203.6C226.4,199.3,226.5,211.7,226.4,203.6z M125.3,347.8c-0.3-1.1-0.5-2.3-0.5-3.5
			c0.2,1,0.5,1.9,0.8,2.9C125.4,347.4,125.4,347.6,125.3,347.8C125.1,346.9,125.3,347.7,125.3,347.8z M120.4,353.3
			c-0.5-1.1-0.8-2.3-0.9-3.5c0.1-0.2,0.2-0.4,0.3-0.7C120.3,350.5,120.8,351.8,120.4,353.3C119.9,352.1,120.8,351.8,120.4,353.3z
			 M114.3,347.8c-0.3,0.6-0.6,1.2-0.9,1.9c0.2-0.9,0.5-1.7,0.9-2.5C114.3,347.4,114.3,347.6,114.3,347.8
			C114,348.5,114.3,347.6,114.3,347.8z M116.3,356.8c0.2,0.6,0.5,1.1,0.7,1.7c-0.1,0.2-0.3,0.3-0.4,0.5l-0.4,0.5
			c-0.4,0.4-0.8,0.9-1.2,1.3C115.4,359.5,115.8,358.1,116.3,356.8C116.4,357.1,115.8,358.1,116.3,356.8z M144.1,352.3
			c-0.7-1.2-1.5-2.3-2.2-3.5c1.2,1.4,2.2,2.9,2.9,4.6C144.6,353,144.4,352.6,144.1,352.3C143.4,351.1,144.4,352.6,144.1,352.3z
			 M60,223.1c-0.5,0.9-1,1.9-1.5,3.1c-3.8,0.9-7.5,2.5-11,4.6c-12.4-22.2-3.9-55.6,7.7-74.2c0.9-0.6,1.8-1.5,2.4-2.6v49.5
			c0,0.8,0.2,1.5,0.6,2.1v0.3h0.2c0.4,0.5,1,0.8,1.6,0.8h17.1c-0.1,0.7-0.2,1.3-0.2,2C70.7,212,64.9,216.6,60,223.1L60,223.1z
			 M176.7,208.7c-0.1-0.7-0.2-1.4-0.2-2h16.1c0.6,0,1.2-0.3,1.6-0.8h0.2v-0.3c0.4-0.6,0.6-1.3,0.6-2.1v-52.2l0.2,0.7
			c0.5,2,1.7,3.7,3.2,4.7c11.6,18.6,20.1,52,7.7,74.2c-3.5-2.1-7.2-3.6-11-4.6c-0.5-1.2-1-2.3-1.5-3.1l0-0.1
			C188.7,216.7,182.9,212.1,176.7,208.7C176.6,208,182.9,212.1,176.7,208.7z M113.6,369.5c0.7-0.1,1.3-0.5,1.9-0.9
			c-0.2,0.4-0.4,0.8-0.4,1.3c-0.7,0.8-1.2,1.8-1.5,2.9C113.6,371.7,113.5,370.6,113.6,369.5C114.2,369.4,113.5,370.6,113.6,369.5z
			 M139.9,361.1c0.2,1.2,0.2,2.5-0.2,3.8C139.8,363.6,139.9,362.4,139.9,361.1z M150.8,358.1c0-6.1-2.5-11.2-7.8-16.1
			c22.4,7.2,2,4.3,8.9,11.9c-0.2,1.2-0.6,2.4-1,3.5l-0.1,0.4C150.9,357.9,150.9,358,150.8,358.1C150.9,352.1,150.9,358,150.8,358.1z
			"/>
	</g>
	<g>
		<g>
			<g>
				
					<linearGradient id="SVGID_1_" gradientUnits="userSpaceOnUse" x1="34.4262" y1="265.9781" x2="37.7596" y2="264.2905" gradientTransform="matrix(1 0 0 -1 0 396)">
					<stop  offset="9.010001e-02" style="stop-color:#505050"/>
					<stop  offset="0.3154" style="stop-color:#8F929F"/>
					<stop  offset="0.5917" style="stop-color:#BEBEBE"/>
					<stop  offset="0.8163" style="stop-color:#8F929F"/>
					<stop  offset="1" style="stop-color:#505050"/>
				</linearGradient>
				<ellipse fill="url(#SVGID_1_)" stroke="#2B2B2B" stroke-miterlimit="10" cx="36.1" cy="130.9" rx="1.9" ry="1.9"/>
				
					<linearGradient id="SVGID_2_" gradientUnits="userSpaceOnUse" x1="44.0505" y1="252.9236" x2="28.0979" y2="260.7144" gradientTransform="matrix(1 0 0 -1 0 396)">
					<stop  offset="9.010001e-02" style="stop-color:#505050"/>
					<stop  offset="0.3154" style="stop-color:#8F929F"/>
					<stop  offset="0.5917" style="stop-color:#BEBEBE"/>
					<stop  offset="0.8163" style="stop-color:#8F929F"/>
					<stop  offset="1" style="stop-color:#505050"/>
				</linearGradient>
				<path fill="url(#SVGID_2_)" stroke="#2B2B2B" stroke-width="2" stroke-miterlimit="10" d="M42.6,146.8c-1.2,3.7-5.6,5.7-9.7,4.3
					c-4.1-1.4-6.5-5.5-5.3-9.2c0,0,5.4-8.8,8.4-11.5c1.9-1.7,3.1-2.1,4.3-1.7c4.1,1.4,7.8,1.6,6.6,5.3L42.6,146.8z"/>
				<g>
					
						<linearGradient id="SVGID_3_" gradientUnits="userSpaceOnUse" x1="36.8931" y1="253.491" x2="41.3667" y2="253.491" gradientTransform="matrix(0.8922 0.4517 0.4517 -0.8922 -107.742 336.3525)">
						<stop  offset="9.010001e-02" style="stop-color:#505050"/>
						<stop  offset="0.3154" style="stop-color:#8F929F"/>
						<stop  offset="0.5917" style="stop-color:#BEBEBE"/>
						<stop  offset="0.8163" style="stop-color:#8F929F"/>
						<stop  offset="1" style="stop-color:#505050"/>
					</linearGradient>
					<path fill="url(#SVGID_3_)" stroke="#2B2B2B" stroke-width="2" stroke-miterlimit="10" d="M42.7,130.5c0.2-0.2,1.2-1.1,1.3-3.6
						c0.2-2.6-2.3-1.5-2.3-1.5s-2.5,1.1-2.7,3.6C38.8,131.4,42.7,130.5,42.7,130.5z"/>
					
						<linearGradient id="SVGID_4_" gradientUnits="userSpaceOnUse" x1="37.1816" y1="257.0289" x2="41.4351" y2="257.0289" gradientTransform="matrix(0.8922 0.4517 0.4517 -0.8922 -107.742 336.3525)">
						<stop  offset="9.010001e-02" style="stop-color:#505050"/>
						<stop  offset="0.3154" style="stop-color:#8F929F"/>
						<stop  offset="0.5917" style="stop-color:#BEBEBE"/>
						<stop  offset="0.8163" style="stop-color:#8F929F"/>
						<stop  offset="1" style="stop-color:#505050"/>
					</linearGradient>
					<path fill="url(#SVGID_4_)" stroke="#2B2B2B" stroke-miterlimit="10" d="M44.9,121.7c1.3,0.6,0.4,4.1-0.3,5.5
						c-0.9,1.8-4.8,0.6-3.8-1.9C41.9,122.7,43.6,121.1,44.9,121.7z"/>
					
						<linearGradient id="SVGID_5_" gradientUnits="userSpaceOnUse" x1="36.3711" y1="249.6202" x2="41.9557" y2="249.6202" gradientTransform="matrix(0.8922 0.4517 0.4517 -0.8922 -107.742 336.3525)">
						<stop  offset="9.010001e-02" style="stop-color:#505050"/>
						<stop  offset="0.3154" style="stop-color:#8F929F"/>
						<stop  offset="0.5917" style="stop-color:#BEBEBE"/>
						<stop  offset="0.8163" style="stop-color:#8F929F"/>
						<stop  offset="1" style="stop-color:#505050"/>
					</linearGradient>
					<path fill="url(#SVGID_5_)" stroke="#2B2B2B" stroke-miterlimit="10" d="M39.7,126.7c0.5,0.3,0.4,1.5,1.6,2.1
						c1.2,0.6,1.5,0.4,2.4-0.1c0.9-0.5-2.4,7.8-5.5,6.2C35.3,133.5,38.9,126.3,39.7,126.7z"/>
				</g>
				<g>
					<path fill="#2B2B2B" d="M32.9,136.2c0,0,0.2,0,0.6,0.1c0.4,0.1,0.9,0.2,1.5,0.3c0.6,0.2,1.3,0.4,2,0.8c0.7,0.3,1.4,0.8,2.1,1.3
						c0.3,0.3,0.7,0.5,0.9,0.8c0.3,0.3,0.6,0.6,0.8,0.9c0.2,0.3,0.5,0.6,0.6,0.9c0.2,0.3,0.4,0.6,0.5,0.9c0.1,0.3,0.2,0.6,0.3,0.8
						c0.1,0.2,0.1,0.5,0.1,0.6c0.1,0.4,0.1,0.6,0.1,0.6s-0.1-0.2-0.2-0.5c-0.1-0.2-0.2-0.4-0.3-0.6c-0.1-0.2-0.3-0.4-0.4-0.7
						c-0.1-0.3-0.3-0.5-0.5-0.8c-0.2-0.3-0.4-0.5-0.7-0.8c-0.2-0.3-0.5-0.5-0.8-0.8c-0.3-0.3-0.6-0.5-0.9-0.8
						c-0.3-0.2-0.6-0.5-1-0.7c-0.3-0.2-0.6-0.4-1-0.6c-0.6-0.4-1.3-0.7-1.8-0.9c-0.5-0.2-1-0.5-1.3-0.6
						C33,136.3,32.9,136.2,32.9,136.2z"/>
				</g>
				<path opacity="0.4" fill="#3A3932" enable-background="new    " d="M47.5,131.2c-0.6-1.1-1.7-1.6-3.2-2.1
					c0.1-0.4,0.2-0.8,0.3-1.3c0.1-0.1,0.2-0.3,0.3-0.4c0.7-1.4,1.7-5.2,0.1-6c-0.2-0.1-0.5-0.2-0.8-0.2c-1.3,0-2.8,1.6-3.8,3.9
					c-0.5,0.4-1.1,0.9-1.6,1.7c-0.3,0.3-0.5,0.7-0.7,1.1c0.7,1.2,1.9,2,2.1,3.9c0.7,5.6,0.7,14-1.3,19.7c2-0.9,3.6-2.5,4.3-4.6
					l4.2-12.9C48,132.9,47.9,132,47.5,131.2z"/>
			</g>
			<g>
				
					<radialGradient id="SVGID_6_" cx="5.4817" cy="259.4471" r="114.8839" gradientTransform="matrix(0.7686 0 0 -0.7712 70.4205 394.853)" gradientUnits="userSpaceOnUse">
					<stop  offset="0.6207" style="stop-color:#505050"/>
					<stop  offset="0.6623" style="stop-color:#8F929F"/>
					<stop  offset="0.7091" style="stop-color:#BEBEBE"/>
					<stop  offset="0.7704" style="stop-color:#8F929F"/>
					<stop  offset="0.9688" style="stop-color:#505050"/>
				</radialGradient>
				<path fill="url(#SVGID_6_)" stroke="#2B2B2B" stroke-width="2" stroke-miterlimit="10" d="M23.5,239.9
					c-15.8-11.4-19.6-38.3-16.5-56c2.8-16.6,11.2-33.7,23.4-45.4c2.8-3.1,14.8,4.8,9.1,11.7c-7.6,9.1-13.1,20.3-15.7,31.8
					c-2.8,12.3-1.3,35.2,10.2,43.4C30.4,230.2,26.9,235,23.5,239.9z"/>
				<path opacity="0.4" fill="#3A3932" enable-background="new    " d="M24.6,212.2c-4.7,0-16,6.3-12.3,11.9c2.7,6,6.3,11.1,11,14.7
					l9.5-13.3C28.3,222,26.2,217.4,24.6,212.2z"/>
				<g>
					<path fill="none" stroke="#E6E7E8" stroke-miterlimit="10" d="M8.6,218.6c2.1-7.9,9.8-13.1,15.5-8.5"/>
					<path fill="none" stroke="#E6E7E8" stroke-miterlimit="10" d="M6.4,205.5c3.2-8.7,11.5-9.7,16-4.6"/>
					<path fill="none" stroke="#E6E7E8" stroke-miterlimit="10" d="M6.5,188.2c4.5-3.2,12.9-3.2,16.1,1.4"/>
					<path fill="none" stroke="#E6E7E8" stroke-miterlimit="10" d="M9.1,173.5c5-0.2,14.9,0.5,15.5,4.8"/>
					<path fill="none" stroke="#E6E7E8" stroke-miterlimit="10" d="M14.4,160.7c5.3-0.1,10.9,1.7,15,4.7"/>
					<path fill="none" stroke="#E6E7E8" stroke-miterlimit="10" d="M21.7,148.3c5.2,0.9,10.4,3.4,13.7,7.1"/>
					<path fill="none" stroke="#E6E7E8" stroke-miterlimit="10" d="M15.2,232c-0.9-6.6,6.3-15.9,13-12.6"/>
				</g>
				<g>
					<path fill="none" stroke="#2B2B2B" stroke-miterlimit="10" d="M8.9,218.1c0-7.3,9.3-13.1,15.2-8.4"/>
					<path fill="none" stroke="#2B2B2B" stroke-miterlimit="10" d="M6.7,205c2.2-8.7,11.3-9.3,15.9-4.5"/>
					<path fill="none" stroke="#2B2B2B" stroke-miterlimit="10" d="M6.5,188.1c3.9-3.8,13.9-3.2,16.1,1.5"/>
					<path fill="none" stroke="#2B2B2B" stroke-miterlimit="10" d="M9.1,173.5c5.2-1,13.7-0.1,15.8,4.3"/>
					<path fill="none" stroke="#2B2B2B" stroke-miterlimit="10" d="M14.7,160.3c5.3-0.1,10.9,1.7,15,4.7"/>
					<path fill="none" stroke="#2B2B2B" stroke-miterlimit="10" d="M22,147.8c5.2,0.9,10.4,3.4,13.7,7.1"/>
					<path fill="none" stroke="#2B2B2B" stroke-miterlimit="10" d="M15.5,231.5c-2-7.8,6.7-15.3,12.7-12.5"/>
				</g>
				<path fill="none" stroke="#2B2B2B" stroke-width="2" stroke-miterlimit="10" d="M23.5,240c-15.8-11.4-19.6-38.3-16.5-56
					c2.8-16.6,11.2-33.7,23.4-45.4c2.8-3.1,14.8,4.8,9.1,11.7c-7.6,9.1-13.1,20.3-15.7,31.8c-2.8,12.3-1.3,35.2,10.2,43.4
					C30.4,230.3,26.9,235.1,23.5,240z"/>
			</g>
			<g>
				
					<linearGradient id="SVGID_7_" gradientUnits="userSpaceOnUse" x1="19.914" y1="257.0586" x2="38.4563" y2="247.7874" gradientTransform="matrix(1 0 0 -1 0 396)">
					<stop  offset="0" style="stop-color:#FFFFFF"/>
					<stop  offset="0.8823" style="stop-color:#FFFFFF;stop-opacity:0"/>
				</linearGradient>
				<path fill="url(#SVGID_7_)" d="M25.5,147.2c0,0,4.3-6.3,6.1-7c1.7-0.7,7.2,1.8,7.3,7.3c-0.4,2.7-3.6,4.8-3.6,4.8
					S31.1,148.3,25.5,147.2z"/>
				
					<linearGradient id="SVGID_8_" gradientUnits="userSpaceOnUse" x1="13.9304" y1="245.0399" x2="32.4601" y2="235.7749" gradientTransform="matrix(1 0 0 -1 0 396)">
					<stop  offset="0" style="stop-color:#FFFFFF"/>
					<stop  offset="0.8823" style="stop-color:#FFFFFF;stop-opacity:0"/>
				</linearGradient>
				<path fill="url(#SVGID_8_)" d="M17,158.7c0,0,4.8-7.8,5.5-8.3c0.7-0.6,9.4,2.3,10.3,5c-1.2,2.3-4.2,7.5-4.2,7.5
					S25.8,159.3,17,158.7z"/>
				
					<linearGradient id="SVGID_9_" gradientUnits="userSpaceOnUse" x1="12.3997" y1="232.9752" x2="30.9287" y2="223.7107" gradientTransform="matrix(1.011 -0.1495 -0.1599 -1.0812 31.507 417.7177)">
					<stop  offset="0" style="stop-color:#FFFFFF"/>
					<stop  offset="0.8823" style="stop-color:#FFFFFF;stop-opacity:0"/>
				</linearGradient>
				<path fill="url(#SVGID_9_)" d="M11.5,172c0,0,3.6-9.1,4.3-9.9c0.6-0.7,9.9,1.1,11.2,3.8c-0.9,2.6-3.1,8.7-3.1,8.7
					S20.5,171.3,11.5,172z"/>
				
					<linearGradient id="SVGID_10_" gradientUnits="userSpaceOnUse" x1="15.5971" y1="225.3822" x2="34.1335" y2="216.114" gradientTransform="matrix(0.949 -0.3793 -0.4056 -1.0149 78.9661 413.7272)">
					<stop  offset="0" style="stop-color:#FFFFFF"/>
					<stop  offset="0.8823" style="stop-color:#FFFFFF;stop-opacity:0"/>
				</linearGradient>
				<path fill="url(#SVGID_10_)" d="M8.2,185.3c0,0,1.8-9.3,2.2-10.1c0.4-0.9,10.2-0.4,11.8,2.5c-0.3,2.8-1.3,8.5-1.3,8.5
					S16.7,182.5,8.2,185.3z"/>
				
					<linearGradient id="SVGID_11_" gradientUnits="userSpaceOnUse" x1="17.0364" y1="215.8583" x2="35.582" y2="206.5855" gradientTransform="matrix(0.8708 -0.5349 -0.5721 -0.9313 110.2436 404.1218)">
					<stop  offset="0" style="stop-color:#FFFFFF"/>
					<stop  offset="0.8823" style="stop-color:#FFFFFF;stop-opacity:0"/>
				</linearGradient>
				<path fill="url(#SVGID_11_)" d="M7.6,199.8c0,0-0.4-10.1,0.2-10.8c2.3-2.7,11-2.1,13.1,0.5c0.2,2.8,0.2,8.6,0.2,8.6
					S15.5,192.2,7.6,199.8z"/>
				
					<linearGradient id="SVGID_12_" gradientUnits="userSpaceOnUse" x1="26.9397" y1="203.6542" x2="45.4991" y2="194.3745" gradientTransform="matrix(0.6423 -0.7949 -0.8502 -0.6869 159.5068 370.6494)">
					<stop  offset="0" style="stop-color:#FFFFFF"/>
					<stop  offset="0.8823" style="stop-color:#FFFFFF;stop-opacity:0"/>
				</linearGradient>
				<path fill="url(#SVGID_12_)" d="M9.2,212.8c0,0-1.3-6.8-1-7.7c1.2-5,7-7.7,12.2-4.4c0.6,2.9,1.6,6.6,1.6,6.6S14.3,205,9.2,212.8
					z"/>
				
					<linearGradient id="SVGID_13_" gradientUnits="userSpaceOnUse" x1="23.169" y1="196.1329" x2="41.7254" y2="186.8546" gradientTransform="matrix(0.6423 -0.7949 -0.8502 -0.6869 159.5068 370.6494)">
					<stop  offset="0" style="stop-color:#FFFFFF"/>
					<stop  offset="0.8823" style="stop-color:#FFFFFF;stop-opacity:0"/>
				</linearGradient>
				<path fill="url(#SVGID_13_)" d="M11.2,219.9l-1-3c0.9-3.2,6.7-10.3,12.7-6.6l0.4,1.4C23.3,211.6,16.2,212.1,11.2,219.9z"/>
			</g>
		</g>
		<g>
			<g>
				<g>
					
						<linearGradient id="SVGID_14_" gradientUnits="userSpaceOnUse" x1="488.2766" y1="265.9781" x2="491.61" y2="264.2905" gradientTransform="matrix(-1 0 0 -1 707.3096 396)">
						<stop  offset="9.010001e-02" style="stop-color:#505050"/>
						<stop  offset="0.3154" style="stop-color:#8F929F"/>
						<stop  offset="0.5917" style="stop-color:#BEBEBE"/>
						<stop  offset="0.8163" style="stop-color:#8F929F"/>
						<stop  offset="1" style="stop-color:#505050"/>
					</linearGradient>
					<ellipse fill="url(#SVGID_14_)" stroke="#2B2B2B" stroke-miterlimit="10" cx="217.4" cy="130.9" rx="1.9" ry="1.9"/>
					
						<linearGradient id="SVGID_15_" gradientUnits="userSpaceOnUse" x1="497.9002" y1="252.9238" x2="481.9484" y2="260.7143" gradientTransform="matrix(-1 0 0 -1 707.3096 396)">
						<stop  offset="9.010001e-02" style="stop-color:#505050"/>
						<stop  offset="0.3154" style="stop-color:#8F929F"/>
						<stop  offset="0.5917" style="stop-color:#BEBEBE"/>
						<stop  offset="0.8163" style="stop-color:#8F929F"/>
						<stop  offset="1" style="stop-color:#505050"/>
					</linearGradient>
					<path fill="url(#SVGID_15_)" stroke="#2B2B2B" stroke-width="2" stroke-miterlimit="10" d="M210.8,146.8
						c1.2,3.7,5.6,5.7,9.7,4.3c4.1-1.4,6.5-5.5,5.3-9.2c0,0-5.4-8.8-8.4-11.5c-1.9-1.7-3.1-2.1-4.3-1.7c-4.1,1.4-7.8,1.6-6.6,5.3
						L210.8,146.8z"/>
					<g>
						
							<linearGradient id="SVGID_16_" gradientUnits="userSpaceOnUse" x1="441.797" y1="458.4842" x2="446.2705" y2="458.4842" gradientTransform="matrix(-0.8922 0.4517 -0.4517 -0.8922 815.0511 336.3525)">
							<stop  offset="9.010001e-02" style="stop-color:#505050"/>
							<stop  offset="0.3154" style="stop-color:#8F929F"/>
							<stop  offset="0.5917" style="stop-color:#BEBEBE"/>
							<stop  offset="0.8163" style="stop-color:#8F929F"/>
							<stop  offset="1" style="stop-color:#505050"/>
						</linearGradient>
						<path fill="url(#SVGID_16_)" stroke="#2B2B2B" stroke-width="2" stroke-miterlimit="10" d="M210.8,130.5
							c-0.2-0.2-1.2-1.1-1.3-3.6c-0.2-2.6,2.3-1.5,2.3-1.5s2.5,1.1,2.7,3.6C214.7,131.4,210.8,130.5,210.8,130.5z"/>
						
							<linearGradient id="SVGID_17_" gradientUnits="userSpaceOnUse" x1="442.0847" y1="462.0219" x2="446.3383" y2="462.0219" gradientTransform="matrix(-0.8922 0.4517 -0.4517 -0.8922 815.0511 336.3525)">
							<stop  offset="9.010001e-02" style="stop-color:#505050"/>
							<stop  offset="0.3154" style="stop-color:#8F929F"/>
							<stop  offset="0.5917" style="stop-color:#BEBEBE"/>
							<stop  offset="0.8163" style="stop-color:#8F929F"/>
							<stop  offset="1" style="stop-color:#505050"/>
						</linearGradient>
						<path fill="url(#SVGID_17_)" stroke="#2B2B2B" stroke-miterlimit="10" d="M208.6,121.7c-1.3,0.6-0.4,4.1,0.3,5.5
							c0.9,1.8,4.8,0.6,3.8-1.9C211.6,122.7,209.9,121.1,208.6,121.7z"/>
						
							<linearGradient id="SVGID_18_" gradientUnits="userSpaceOnUse" x1="441.2743" y1="454.6137" x2="446.8602" y2="454.6137" gradientTransform="matrix(-0.8922 0.4517 -0.4517 -0.8922 815.0511 336.3525)">
							<stop  offset="9.010001e-02" style="stop-color:#505050"/>
							<stop  offset="0.3154" style="stop-color:#8F929F"/>
							<stop  offset="0.5917" style="stop-color:#BEBEBE"/>
							<stop  offset="0.8163" style="stop-color:#8F929F"/>
							<stop  offset="1" style="stop-color:#505050"/>
						</linearGradient>
						<path fill="url(#SVGID_18_)" stroke="#2B2B2B" stroke-miterlimit="10" d="M213.7,126.7c-0.5,0.3-0.4,1.5-1.6,2.1
							c-1.2,0.6-1.5,0.4-2.4-0.1c-0.9-0.5,2.4,7.8,5.5,6.2C218.1,133.5,214.6,126.3,213.7,126.7z"/>
					</g>
					<g>
						<path fill="#2B2B2B" d="M220.6,136.2c0,0-0.2,0.1-0.5,0.2c-0.3,0.1-0.8,0.3-1.3,0.6c-0.5,0.3-1.2,0.6-1.8,0.9
							c-0.3,0.2-0.6,0.4-1,0.6c-0.3,0.2-0.6,0.4-1,0.7c-0.3,0.3-0.6,0.5-0.9,0.8c-0.3,0.3-0.6,0.5-0.8,0.8c-0.2,0.3-0.5,0.5-0.7,0.8
							c-0.2,0.3-0.4,0.5-0.5,0.8c-0.1,0.3-0.3,0.5-0.4,0.7c-0.1,0.2-0.2,0.4-0.3,0.6c-0.1,0.3-0.2,0.5-0.2,0.5s0-0.2,0.1-0.6
							c0-0.2,0.1-0.4,0.1-0.6c0.1-0.2,0.2-0.5,0.3-0.8c0.1-0.3,0.3-0.6,0.5-0.9c0.2-0.3,0.4-0.6,0.6-0.9c0.2-0.3,0.5-0.6,0.8-0.9
							c0.3-0.3,0.6-0.5,0.9-0.8c0.7-0.5,1.4-0.9,2.1-1.3c0.7-0.3,1.4-0.6,2-0.8c0.6-0.2,1.1-0.3,1.5-0.3
							C220.4,136.2,220.6,136.2,220.6,136.2z"/>
					</g>
					<path opacity="0.4" fill="#3A3932" enable-background="new    " d="M205.9,131.2c0.6-1.1,1.7-1.6,3.2-2.1
						c-0.1-0.4-0.2-0.8-0.3-1.3c-0.1-0.1-0.2-0.3-0.3-0.4c-0.7-1.4-1.7-5.2-0.1-6c0.2-0.1,0.5-0.2,0.8-0.2c1.3,0,2.8,1.6,3.8,3.9
						c0.5,0.4,1.1,0.9,1.6,1.7c0.3,0.3,0.5,0.7,0.7,1.1c-0.7,1.2-1.9,2-2.1,3.9c-0.7,5.6-0.7,14,1.3,19.7c-2-0.9-3.6-2.5-4.3-4.6
						l-4.2-12.9C205.5,132.9,205.5,132,205.9,131.2z"/>
				</g>
				<g>
					
						<radialGradient id="SVGID_19_" cx="566.2702" cy="259.4471" r="114.8848" gradientTransform="matrix(-0.7686 0 0 -0.7712 614.0648 394.853)" gradientUnits="userSpaceOnUse">
						<stop  offset="0.6207" style="stop-color:#505050"/>
						<stop  offset="0.6623" style="stop-color:#8F929F"/>
						<stop  offset="0.7091" style="stop-color:#BEBEBE"/>
						<stop  offset="0.7704" style="stop-color:#8F929F"/>
						<stop  offset="0.9688" style="stop-color:#505050"/>
					</radialGradient>
					<path fill="url(#SVGID_19_)" stroke="#2B2B2B" stroke-width="2" stroke-miterlimit="10" d="M230,239.9
						c15.8-11.4,19.6-38.3,16.5-56c-2.8-16.6-11.2-33.7-23.4-45.4c-2.8-3.1-14.8,4.8-9.1,11.7c7.6,9.1,13.1,20.3,15.7,31.8
						c2.8,12.3,1.3,35.2-10.2,43.4C223.1,230.2,226.5,235,230,239.9z"/>
					<path opacity="0.4" fill="#3A3932" enable-background="new    " d="M228.8,212.2c4.7,0,16,6.3,12.3,11.9
						c-2.7,6-6.3,11.1-11,14.7l-9.5-13.3C225.1,222,227.3,217.4,228.8,212.2z"/>
					<g>
						<path fill="none" stroke="#E6E7E8" stroke-miterlimit="10" d="M244.8,218.6c-2.1-7.9-9.8-13.1-15.5-8.5"/>
						<path fill="none" stroke="#E6E7E8" stroke-miterlimit="10" d="M247.1,205.5c-3.2-8.7-11.5-9.7-16-4.6"/>
						<path fill="none" stroke="#E6E7E8" stroke-miterlimit="10" d="M247,188.2c-4.5-3.2-12.9-3.2-16.1,1.4"/>
						<path fill="none" stroke="#E6E7E8" stroke-miterlimit="10" d="M244.3,173.5c-5-0.2-14.9,0.5-15.5,4.8"/>
						<path fill="none" stroke="#E6E7E8" stroke-miterlimit="10" d="M239.1,160.7c-5.3-0.1-10.9,1.7-15,4.7"/>
						<path fill="none" stroke="#E6E7E8" stroke-miterlimit="10" d="M231.8,148.3c-5.2,0.9-10.4,3.4-13.7,7.1"/>
						<path fill="none" stroke="#E6E7E8" stroke-miterlimit="10" d="M238.3,232c0.9-6.6-6.3-15.9-13-12.6"/>
					</g>
					<g>
						<path fill="none" stroke="#2B2B2B" stroke-miterlimit="10" d="M244.5,218.1c0-7.3-9.3-13.1-15.2-8.4"/>
						<path fill="none" stroke="#2B2B2B" stroke-miterlimit="10" d="M246.8,205c-2.2-8.7-11.3-9.3-15.9-4.5"/>
						<path fill="none" stroke="#2B2B2B" stroke-miterlimit="10" d="M247,188.1c-3.9-3.8-13.9-3.2-16.1,1.5"/>
						<path fill="none" stroke="#2B2B2B" stroke-miterlimit="10" d="M244.3,173.5c-5.2-1-13.7-0.1-15.8,4.3"/>
						<path fill="none" stroke="#2B2B2B" stroke-miterlimit="10" d="M238.8,160.3c-5.3-0.1-10.9,1.7-15,4.7"/>
						<path fill="none" stroke="#2B2B2B" stroke-miterlimit="10" d="M231.5,147.8c-5.2,0.9-10.4,3.4-13.7,7.1"/>
						<path fill="none" stroke="#2B2B2B" stroke-miterlimit="10" d="M238,231.5c2-7.8-6.7-15.3-12.7-12.5"/>
					</g>
					<path fill="none" stroke="#2B2B2B" stroke-width="2" stroke-miterlimit="10" d="M230,240c15.8-11.4,19.6-38.3,16.5-56
						c-2.8-16.6-11.2-33.7-23.4-45.4c-2.8-3.1-14.8,4.8-9.1,11.7c7.6,9.1,13.1,20.3,15.7,31.8c2.8,12.3,1.3,35.2-10.2,43.4
						C223.1,230.3,226.5,235.1,230,240z"/>
				</g>
				<g>
					
						<linearGradient id="SVGID_20_" gradientUnits="userSpaceOnUse" x1="473.763" y1="257.0592" x2="492.3063" y2="247.7876" gradientTransform="matrix(-1 0 0 -1 707.3096 396)">
						<stop  offset="0" style="stop-color:#FFFFFF"/>
						<stop  offset="0.8823" style="stop-color:#FFFFFF;stop-opacity:0"/>
					</linearGradient>
					<path fill="url(#SVGID_20_)" d="M227.9,147.2c0,0-4.3-6.3-6.1-7c-1.7-0.7-7.2,1.8-7.3,7.3c0.4,2.7,3.6,4.8,3.6,4.8
						S222.4,148.3,227.9,147.2z"/>
					
						<linearGradient id="SVGID_21_" gradientUnits="userSpaceOnUse" x1="467.7798" y1="245.0404" x2="486.3085" y2="235.776" gradientTransform="matrix(-1 0 0 -1 707.3096 396)">
						<stop  offset="0" style="stop-color:#FFFFFF"/>
						<stop  offset="0.8823" style="stop-color:#FFFFFF;stop-opacity:0"/>
					</linearGradient>
					<path fill="url(#SVGID_21_)" d="M236.4,158.7c0,0-4.8-7.8-5.5-8.3c-0.7-0.6-9.4,2.3-10.3,5c1.2,2.3,4.2,7.5,4.2,7.5
						S227.6,159.3,236.4,158.7z"/>
					
						<linearGradient id="SVGID_22_" gradientUnits="userSpaceOnUse" x1="451.7039" y1="172.232" x2="470.2339" y2="162.9669" gradientTransform="matrix(-1.011 -0.1495 0.1599 -1.0812 675.8025 417.7177)">
						<stop  offset="0" style="stop-color:#FFFFFF"/>
						<stop  offset="0.8823" style="stop-color:#FFFFFF;stop-opacity:0"/>
					</linearGradient>
					<path fill="url(#SVGID_22_)" d="M242,172c0,0-3.6-9.1-4.3-9.9c-0.6-0.7-9.9,1.1-11.2,3.8c0.9,2.6,3.1,8.7,3.1,8.7
						S233,171.3,242,172z"/>
					
						<linearGradient id="SVGID_23_" gradientUnits="userSpaceOnUse" x1="427.9696" y1="71.2656" x2="446.507" y2="61.9969" gradientTransform="matrix(-0.949 -0.3793 0.4056 -1.0149 628.3435 413.7272)">
						<stop  offset="0" style="stop-color:#FFFFFF"/>
						<stop  offset="0.8823" style="stop-color:#FFFFFF;stop-opacity:0"/>
					</linearGradient>
					<path fill="url(#SVGID_23_)" d="M245.3,185.3c0,0-1.8-9.3-2.2-10.1c-0.4-0.9-10.2-0.4-11.8,2.5c0.3,2.8,1.3,8.5,1.3,8.5
						S236.7,182.5,245.3,185.3z"/>
					
						<linearGradient id="SVGID_24_" gradientUnits="userSpaceOnUse" x1="395.4385" y1="-1.48" x2="413.9831" y2="-10.7523" gradientTransform="matrix(-0.8708 -0.5349 0.5721 -0.9313 597.0659 404.1218)">
						<stop  offset="0" style="stop-color:#FFFFFF"/>
						<stop  offset="0.8823" style="stop-color:#FFFFFF;stop-opacity:0"/>
					</linearGradient>
					<path fill="url(#SVGID_24_)" d="M245.8,199.8c0,0,0.4-10.1-0.2-10.8c-2.2-2.7-11-2.1-13.1,0.5c-0.2,2.8-0.2,8.6-0.2,8.6
						S238,192.2,245.8,199.8z"/>
					
						<linearGradient id="SVGID_25_" gradientUnits="userSpaceOnUse" x1="306.0306" y1="-119.3176" x2="324.5908" y2="-128.5977" gradientTransform="matrix(-0.6423 -0.7949 0.8502 -0.6869 547.8028 370.6494)">
						<stop  offset="0" style="stop-color:#FFFFFF"/>
						<stop  offset="0.8823" style="stop-color:#FFFFFF;stop-opacity:0"/>
					</linearGradient>
					<path fill="url(#SVGID_25_)" d="M244.2,212.8c0,0,1.3-6.8,1-7.7c-1.2-5-7-7.7-12.2-4.4c-0.6,2.9-1.6,6.6-1.6,6.6
						S239.2,205,244.2,212.8z"/>
					
						<linearGradient id="SVGID_26_" gradientUnits="userSpaceOnUse" x1="302.2601" y1="-126.8392" x2="320.8166" y2="-136.1174" gradientTransform="matrix(-0.6423 -0.7949 0.8502 -0.6869 547.8028 370.6494)">
						<stop  offset="0" style="stop-color:#FFFFFF"/>
						<stop  offset="0.8823" style="stop-color:#FFFFFF;stop-opacity:0"/>
					</linearGradient>
					<path fill="url(#SVGID_26_)" d="M242.3,219.9l1-3c-0.9-3.2-6.7-10.3-12.7-6.6l-0.4,1.4C230.2,211.6,237.2,212.1,242.3,219.9z"
						/>
				</g>
			</g>
			<g>
				
					<linearGradient id="SVGID_27_" gradientUnits="userSpaceOnUse" x1="487.5215" y1="180.3346" x2="487.5215" y2="140.884" gradientTransform="matrix(-1 0 0 -1 707.3096 396)">
					<stop  offset="0.1856" style="stop-color:#8C8B90"/>
					<stop  offset="0.4012" style="stop-color:#D8D8D8"/>
					<stop  offset="0.5963" style="stop-color:#AFADB2"/>
					<stop  offset="1" style="stop-color:#4E4F52"/>
				</linearGradient>
				<path fill="url(#SVGID_27_)" stroke="#2B2B2B" stroke-width="2" stroke-miterlimit="10" d="M207.8,259.2
					c4.5,0,26.3-10.4,26.3-24.9s-28.5-18-28.5-18L207.8,259.2z"/>
				<path opacity="0.4" fill="#3A3932" enable-background="new    " d="M206.3,217.1c1.5,0.2,4.9,0.8,8.8,2
					c6,15.5,4.8,27.5,2.3,35.5c-3.7,2.1-7.1,3.5-8.9,3.8L206.3,217.1z"/>
				<path fill="none" stroke="#2B2B2B" stroke-miterlimit="10" d="M206.5,234.3c0,0,15.7,2,27.6,0"/>
				<ellipse fill="#B1B5BF" stroke="#2B2B2B" stroke-miterlimit="10" cx="219.5" cy="230.9" rx="2.3" ry="2.4"/>
				<ellipse fill="#B1B5BF" stroke="#2B2B2B" stroke-miterlimit="10" cx="227.9" cy="231.3" rx="2" ry="2"/>
			</g>
		</g>
		<path fill="none" stroke="#1D1D1B" stroke-miterlimit="10" d="M126.5,240.7"/>
		<g>
			
				<linearGradient id="SVGID_28_" gradientUnits="userSpaceOnUse" x1="33.6703" y1="180.335" x2="33.6703" y2="140.8833" gradientTransform="matrix(1 0 0 -1 0 396)">
				<stop  offset="0.1856" style="stop-color:#8C8B90"/>
				<stop  offset="0.4012" style="stop-color:#D8D8D8"/>
				<stop  offset="0.5963" style="stop-color:#AFADB2"/>
				<stop  offset="1" style="stop-color:#4E4F52"/>
			</linearGradient>
			<path fill="url(#SVGID_28_)" stroke="#2B2B2B" stroke-width="2" stroke-miterlimit="10" d="M45.7,259.2
				c-4.5,0-26.3-10.4-26.3-24.9s28.5-18,28.5-18L45.7,259.2z"/>
			<path opacity="0.4" fill="#3A3932" enable-background="new    " d="M47.2,217.1c-1.5,0.2-4.9,0.8-8.8,2
				c-6,15.5-4.8,27.5-2.3,35.5c3.7,2.1,7.1,3.5,8.9,3.8L47.2,217.1z"/>
			<path fill="none" stroke="#2B2B2B" stroke-miterlimit="10" d="M47,234.3c0,0-15.7,2-27.6,0"/>
			<ellipse fill="#B1B5BF" stroke="#2B2B2B" stroke-miterlimit="10" cx="34" cy="230.9" rx="2.3" ry="2.4"/>
			<ellipse fill="#B1B5BF" stroke="#2B2B2B" stroke-miterlimit="10" cx="25.5" cy="231.3" rx="2" ry="2"/>
		</g>
		
			<linearGradient id="SVGID_29_" gradientUnits="userSpaceOnUse" x1="108.4527" y1="205.0612" x2="151.1747" y2="89.8974" gradientTransform="matrix(1 0 0 -1 0 396)">
			<stop  offset="0" style="stop-color:#F9B831"/>
			<stop  offset="0.1456" style="stop-color:#F9EC31"/>
			<stop  offset="0.279" style="stop-color:#F9EC79"/>
			<stop  offset="0.4467" style="stop-color:#F9EC31"/>
			<stop  offset="0.9155" style="stop-color:#F9B831"/>
		</linearGradient>
		<path fill="url(#SVGID_29_)" stroke="#F7A731" stroke-width="2" stroke-miterlimit="10" d="M126.3,192.2
			c23.6,0,60.1,0.4,81.2,21.6c5.6,7.2,10.7,30.7,5.2,41c-2.6,5-5.7,8.5-7.4,9.6c-5.2,3.3-35.6,11.9-79,11.9s-73-8.6-78.2-11.9
			c-1.7-1.1-4.8-4.6-7.4-9.6c-5.4-10.3-0.4-33.8,5.2-41C67,192.6,102.7,192.2,126.3,192.2"/>
		
			<linearGradient id="SVGID_30_" gradientUnits="userSpaceOnUse" x1="47.7707" y1="188.5482" x2="76.035" y2="142.4328" gradientTransform="matrix(1 0 0 -1 0 396)">
			<stop  offset="0" style="stop-color:#ACAEB0"/>
			<stop  offset="0.1998" style="stop-color:#FFFFFB"/>
			<stop  offset="0.3714" style="stop-color:#BBBDBF"/>
			<stop  offset="0.7024" style="stop-color:#919295"/>
			<stop  offset="0.8327" style="stop-color:#E5E6E4"/>
			<stop  offset="1" style="stop-color:#B1B3B5"/>
		</linearGradient>
		<path fill="url(#SVGID_30_)" stroke="#58595B" stroke-miterlimit="10" d="M72.2,198.4c-6.1,2-12,4.7-17.4,8.2
			c-4,20.6-2.4,45.3-0.5,60.4c3.7,1.2,8.7,2.6,14.9,3.9C66.6,241.6,70.3,211.1,72.2,198.4z"/>
		
			<linearGradient id="SVGID_31_" gradientUnits="userSpaceOnUse" x1="192.2181" y1="204.465" x2="188.8697" y2="134.5226" gradientTransform="matrix(1 0 0 -1 0 396)">
			<stop  offset="0" style="stop-color:#ACAEB0"/>
			<stop  offset="0.1998" style="stop-color:#FFFFFB"/>
			<stop  offset="0.3714" style="stop-color:#BBBDBF"/>
			<stop  offset="0.7024" style="stop-color:#919295"/>
			<stop  offset="0.8327" style="stop-color:#E5E6E4"/>
			<stop  offset="1" style="stop-color:#B1B3B5"/>
		</linearGradient>
		<path fill="url(#SVGID_31_)" stroke="#58595B" stroke-miterlimit="10" d="M180.9,198.4c6.1,2,12,4.7,17.4,8.2
			c4,20.6,2.4,45.3,0.5,60.4c-3.7,1.2-8.7,2.6-14.9,3.9C186.5,241.6,182.8,211.1,180.9,198.4z"/>
		<g>
			<g>
				<g>
					
						<linearGradient id="SVGID_32_" gradientUnits="userSpaceOnUse" x1="106.0827" y1="38.1668" x2="111.2305" y2="38.1668" gradientTransform="matrix(1 0 0 -1 0 396)">
						<stop  offset="2.550000e-02" style="stop-color:#FDE04C"/>
						<stop  offset="0.1122" style="stop-color:#FDF0C5"/>
						<stop  offset="0.301" style="stop-color:#FDE573"/>
						<stop  offset="0.6429" style="stop-color:#FDECA8"/>
						<stop  offset="1" style="stop-color:#FDE04C"/>
					</linearGradient>
					<path fill="url(#SVGID_32_)" stroke="#F6921E" stroke-miterlimit="10" d="M106.1,356.1c0.2,1.7,0.8,3.4,1.7,4.9
						c1.2,2.1,4.4,0.2,3.2-1.9c-0.7-1.3-1.1-2.6-1.3-4c-0.1-1-1.4-1.5-2.3-1.3C106.3,354.1,106,355.1,106.1,356.1L106.1,356.1z"/>
				</g>
				<g>
					
						<linearGradient id="SVGID_33_" gradientUnits="userSpaceOnUse" x1="115.5678" y1="37.8622" x2="119.5337" y2="37.8622" gradientTransform="matrix(0.998 6.290000e-02 6.290000e-02 -0.998 3.6685 384.0774)">
						<stop  offset="2.550000e-02" style="stop-color:#FDE04C"/>
						<stop  offset="0.1122" style="stop-color:#FDF0C5"/>
						<stop  offset="0.301" style="stop-color:#FDE573"/>
						<stop  offset="0.6429" style="stop-color:#FDECA8"/>
						<stop  offset="1" style="stop-color:#FDE04C"/>
					</linearGradient>
					<path fill="url(#SVGID_33_)" stroke="#F6921E" stroke-miterlimit="10" d="M121.7,350.9c0,1.6,0,3.3-0.4,4.9
						c-0.2,1,0.1,2,1.1,2.4c0.9,0.3,2.1-0.2,2.4-1.2c0.5-1.9,0.7-3.9,0.6-5.9c0-1-0.7-1.9-1.7-2
						C122.7,349.1,121.7,349.9,121.7,350.9L121.7,350.9z"/>
				</g>
				<g>
					
						<linearGradient id="SVGID_34_" gradientUnits="userSpaceOnUse" x1="125.0678" y1="29.2949" x2="131.7543" y2="29.2949" gradientTransform="matrix(1 0 0 -1 0 396)">
						<stop  offset="2.550000e-02" style="stop-color:#FDE04C"/>
						<stop  offset="0.1122" style="stop-color:#FDF0C5"/>
						<stop  offset="0.301" style="stop-color:#FDE573"/>
						<stop  offset="0.6429" style="stop-color:#FDECA8"/>
						<stop  offset="1" style="stop-color:#FDE04C"/>
					</linearGradient>
					<path fill="url(#SVGID_34_)" stroke="#F6921E" stroke-miterlimit="10" d="M128.3,363.9c-0.8,1.2-1.6,2.4-2.7,3.3
						c-0.8,0.7-0.7,1.9,0,2.6c0.7,0.8,1.9,0.7,2.6,0c1.3-1.2,2.2-2.7,3.3-4.1c0.6-0.8,0.1-2.1-0.7-2.5
						C129.9,362.7,128.9,363.1,128.3,363.9L128.3,363.9z"/>
				</g>
				<g>
					
						<linearGradient id="SVGID_35_" gradientUnits="userSpaceOnUse" x1="133.9838" y1="39.9808" x2="138.7804" y2="39.9808" gradientTransform="matrix(0.9958 9.150000e-02 9.150000e-02 -0.9958 4.9335 376.4722)">
						<stop  offset="2.550000e-02" style="stop-color:#FDE04C"/>
						<stop  offset="0.1122" style="stop-color:#FDF0C5"/>
						<stop  offset="0.301" style="stop-color:#FDE573"/>
						<stop  offset="0.6429" style="stop-color:#FDECA8"/>
						<stop  offset="1" style="stop-color:#FDE04C"/>
					</linearGradient>
					<path fill="url(#SVGID_35_)" stroke="#F6921E" stroke-miterlimit="10" d="M143.3,347.1c-0.1,1-0.6,1.9-1.1,2.7
						c-0.5,0.9-0.4,2,0.4,2.6c0.8,0.6,2.1,0.4,2.6-0.4c0.9-1.4,1.6-2.9,1.8-4.5C147.2,345.1,143.6,344.8,143.3,347.1L143.3,347.1z"
						/>
				</g>
				<g>
					
						<linearGradient id="SVGID_36_" gradientUnits="userSpaceOnUse" x1="151.5752" y1="48.0432" x2="156.7965" y2="48.0432" gradientTransform="matrix(1 0 0 -1 0 396)">
						<stop  offset="2.550000e-02" style="stop-color:#FDE04C"/>
						<stop  offset="0.1122" style="stop-color:#FDF0C5"/>
						<stop  offset="0.301" style="stop-color:#FDE573"/>
						<stop  offset="0.6429" style="stop-color:#FDECA8"/>
						<stop  offset="1" style="stop-color:#FDE04C"/>
					</linearGradient>
					<path fill="url(#SVGID_36_)" stroke="#F6921E" stroke-miterlimit="10" d="M151.8,347.5c0.3,0.4,0.5,0.9,0.8,1.3
						c0.1,0.2,0.2,0.4,0.3,0.6c0.1,0.1,0.1,0.2,0.2,0.4c0.1,0.2,0.1,0.2,0.1,0.1c0.4,0.9,1.2,1.6,2.3,1.3c0.9-0.2,1.7-1.3,1.3-2.3
						c-0.5-1.1-1-2.2-1.7-3.2c-0.5-0.9-1.7-1.2-2.5-0.7C151.6,345.5,151.3,346.6,151.8,347.5L151.8,347.5z"/>
				</g>
				<g>
					
						<linearGradient id="SVGID_37_" gradientUnits="userSpaceOnUse" x1="156.2428" y1="58.4067" x2="161.597" y2="58.4067" gradientTransform="matrix(1 0 0 -1 0 396)">
						<stop  offset="2.550000e-02" style="stop-color:#FDE04C"/>
						<stop  offset="0.1122" style="stop-color:#FDF0C5"/>
						<stop  offset="0.301" style="stop-color:#FDE573"/>
						<stop  offset="0.6429" style="stop-color:#FDECA8"/>
						<stop  offset="1" style="stop-color:#FDE04C"/>
					</linearGradient>
					<path fill="url(#SVGID_37_)" stroke="#F6921E" stroke-miterlimit="10" d="M157.9,335.1c-0.2,1.4-0.8,2.8-1.4,4.1
						c-0.4,0.9-0.3,2,0.7,2.5c0.8,0.5,2.1,0.3,2.5-0.7c0.9-2,1.6-3.8,1.9-6c0.1-1-0.9-1.9-1.9-1.9
						C158.6,333.2,158,334.1,157.9,335.1L157.9,335.1z"/>
				</g>
				<g>
					
						<linearGradient id="SVGID_38_" gradientUnits="userSpaceOnUse" x1="110.9911" y1="43.9809" x2="116.9004" y2="43.9809" gradientTransform="matrix(1 0 0 -1 0 396)">
						<stop  offset="2.550000e-02" style="stop-color:#FDE04C"/>
						<stop  offset="0.1122" style="stop-color:#FDF0C5"/>
						<stop  offset="0.301" style="stop-color:#FDE573"/>
						<stop  offset="0.6429" style="stop-color:#FDECA8"/>
						<stop  offset="1" style="stop-color:#FDE04C"/>
					</linearGradient>
					<path fill="url(#SVGID_38_)" stroke="#F6921E" stroke-miterlimit="10" d="M113.7,349.4c-0.8,0.8-1.5,1.7-2.2,2.6
						c-0.6,0.8-0.8,1.9,0,2.6c0.7,0.7,2,0.8,2.6,0c0.7-0.9,1.4-1.8,2.2-2.6c0.7-0.7,0.7-1.9,0-2.6
						C115.7,348.7,114.5,348.7,113.7,349.4L113.7,349.4z"/>
				</g>
			</g>
			<g>
				<path fill="#29B473" stroke="#167244" stroke-miterlimit="10" d="M74.6,279.6c1.4,7.3,0.8,14.6,5.7,21.1
					c4.8,6.3,15.1,10.4,23.7,11.3c2.5,0.2,11.7,0.5,10.9,4.1c-0.6,2.9-4.4,5.3-6.4,7.6c-6.1,6.8-5,15.2-2.8,23.1
					c0.8,2.9,6.2,1.7,5.4-1.2c-1.1-3.9-1.9-7.9-1.5-11.9c0.4-4.4,3.7-7.3,6.8-10.5c4.6-4.7,6.1-10.1-1-13.6
					c-3.9-1.9-8.6-1.7-12.9-2.3c-5.1-0.8-10.8-3.3-14.7-6.1c-7.6-5.5-6.4-15.1-7.8-22.6C79.3,275.4,74,276.6,74.6,279.6L74.6,279.6z
					"/>
				<path opacity="0.77" fill="#105B34" enable-background="new    " d="M115.4,323.4l0.7-0.7c2-2,4.2-5.1,3.7-8
					c-0.3-2-1.9-3.6-4.6-4.9c-2.7-1.3-5.8-1.6-8.9-1.8c-1.3-0.1-2.6-0.2-3.9-0.4c-4.8-0.7-10.7-3.2-14.9-6.2
					c-5.9-4.3-6.6-10.9-7.2-17.2c-0.1-1.1-0.2-2.2-0.4-3.3c-0.4,0.3-0.8,0.5-1.2,0.8l0.4,2.8c-0.8,15.6,3.4,21,19,24.5
					c3.8,0.8,11.8,1.1,15.3,4.4c0.6,0.3,1.2,0.7,1.5,1.1c0.4,0.5,0.5,1.1,0.4,1.8c-0.1,0.3-0.2,0.6-0.3,0.9c-0.2,4-4.8,9.3-6,12.5
					c-2.3,5.8-2.6,11.6-2.3,17.7c0.2,0.3,0.5,0.5,0.7,0.7c0.3,0.1,0.5,0.1,0.7,0.1l0,0c0.9,0,1.8-0.4,2.3-1c0.3-0.4,0.4-0.9,0.3-1.4
					c-1-3.5-1.9-7.7-1.5-12.1C109.6,329.3,112.4,326.4,115.4,323.4z"/>
			</g>
			<path fill="#1E8E56" stroke="#105B34" stroke-miterlimit="10" d="M82.2,283.4c-4,6.9-3.4,14.7,3.7,20c6.7,5,15.5,3.9,23.7,5.6
				c4,0.8,7.6,3,7.6,6.7c0,3.9-3.5,7.8-4.8,11.4c-1.3,3.6-0.3,6.7,1.5,10c2.4,4.3,5.5,8,0,11.6c-2.8,1.9,1.1,5.1,3.9,3.3
				c3.5-2.3,5.7-5.5,4.8-9.3c-0.9-3.9-4.6-7.2-5.2-11.1c-0.6-3.7,2.5-7.6,4-10.8c1.7-3.6,1.9-7-0.2-10.4c-3.8-6.3-13.8-6.5-21-7.2
				c-4.9-0.4-9-1.7-12.3-4.9c-3.7-3.5-3-8.7-0.7-12.6C88.6,283,83.8,280.7,82.2,283.4L82.2,283.4z"/>
			<g>
				<path fill="#29B473" stroke="#167244" stroke-miterlimit="10" d="M86.3,283.4c-5,7.3-3.5,15.2,5.7,19.2c4.5,2,9.4,2.2,14.3,2.4
					c4.2,0.2,8.3,0.5,10.4,3.9c2.6,4.1,1.6,9.8,1.5,14.2c-0.2,4.4,0.5,8.5,2.8,12.6c1.3,2.2,3.3,4.1,4.9,6.2
					c1.6,2.1,2.7,4.3,3.6,6.7c2,5.1,1.8,10.6-2.1,15c-2.2,2.4,2.7,4.7,4.8,2.4c6.8-7.6,4.1-17.9-1-25.6c-3-4.5-6.8-7.7-7.4-13.1
					c-0.5-4.5,0.4-9.1-0.2-13.6c-0.5-3.8-1.6-7.8-5.3-10.4c-3.1-2.2-7.3-2.6-11.2-2.8c-5.2-0.3-10.1-0.4-14.6-2.9
					c-5.1-2.9-4.1-7.9-1.5-11.8C92.9,283.1,88.1,280.8,86.3,283.4L86.3,283.4z"/>
				<path opacity="0.77" fill="#105B34" enable-background="new    " d="M131,340.4c-0.8-1.2-1.7-2.3-2.5-3.4
					c-2.3-3-4.5-5.8-4.9-9.8c-0.2-2.2-0.2-4.5-0.1-6.7c0-0.3,0-0.5,0-0.8c-2.5-0.2-4,1.1-4.8,3.1c0,0.1,0,0.3,0,0.4
					c-0.2,4.8,0.7,8.7,2.8,12.4c0.8,1.4,1.9,2.6,2.9,3.8c0.7,0.8,1.3,1.5,1.9,2.3c1.3,1.7,2.3,3.6,3.2,5.8c0.6-2,1.3-4.2,1.8-6.4
					C131.2,340.8,131.1,340.6,131,340.4z"/>
			</g>
			<g>
				<path fill="#148449" stroke="#006838" stroke-miterlimit="10" d="M89.3,285.2c-2.9,4.4-5.2,9.9,0.3,13.6
					c6.3,4.3,14.2,3.1,21.5,3.9c10.3,1.2,11.3,13.2,12.6,19.8c1.7,9.3,7.5,17,11.7,25.6c1.3,2.7,6.7,1.5,5.4-1.2
					c-3.9-7.9-9.2-15.1-11.3-23.5c-1.9-7.8-2.2-15.8-9.2-21.9c-4.7-4.1-11.6-3.4-17.7-3.7c-3.3-0.2-8.4-0.9-10.4-3.4
					c-1.6-1.9,0.9-5.2,2-6.8C95.8,285,91,282.6,89.3,285.2L89.3,285.2z"/>
				<path opacity="0.77" fill="#105B34" enable-background="new    " d="M140.4,348.4c0.2-0.4,0.2-0.8,0-1.3
					c-1.2-2.5-2.6-4.9-3.9-7.3c-2.9-5.2-5.9-10.5-7.3-16.3c-0.3-1.4-0.6-2.9-0.9-4.3c-1.1-5.3-2.1-10.4-5.6-14.8
					c-0.8-0.3-1.7-0.5-2.7-0.5l-0.2,1.3c1.3,2,3.8,6.8,4,9.1c0.2,1.3-0.2,2.7-0.4,4c0.2,0.8,0.3,1.6,0.4,2.4
					c0.1,0.7,0.2,1.3,0.3,1.9c0,0.2,0.1,0.4,0.1,0.6c0.5-0.3,1.1-0.6,1.6-0.9c-0.6,1-0.9,2-1.1,3c1.1,4,2.9,7.7,4.8,11.4
					c5.3-1.7,5.4,2.8,4.4,8c0.6,1.1,1.2,2.2,1.7,3.3c0.4,0.8,1.3,1.3,2.5,1.3C139.2,349.4,140,349,140.4,348.4z"/>
			</g>
			<path fill="#29B473" stroke="#167244" stroke-miterlimit="10" d="M118.7,300.1c3.4,7.8,10.3,17.2,8.1,25.8
				c-0.5,1.8-1.4,3.5-2.1,5.2c-1,2.3-1.2,4.6-1.7,7c-0.9,4.6-2,9.2-2.1,13.8c-0.1,3,5.5,3,5.6,0c0.1-5,1.5-9.9,2.3-14.8
				c0.7-4.1,3.1-7.8,3.8-11.9c1.6-9.1-4.9-18.3-8.5-26.5C122.8,296,117.4,297.3,118.7,300.1L118.7,300.1z"/>
			<path fill="#1E8E56" stroke="#105B34" stroke-miterlimit="10" d="M170.6,281.8c1.9,8.3-6.6,15.9-14,20.3c-3.8,2.3-8,4-12.5,4.9
				c-3.6,0.7-8.3-0.2-11.1,2.2c-7.1,6.1,4.1,12,10.1,13.8c5.6,1.7,17.4,3.1,14.2,10c-1.3,2.8,4.1,4,5.4,1.2
				c3.4-7.3-3.6-11.5-10.9-13.8c-3.4-1-6.9-1.7-10.1-3c-1.9-0.8-4.4-2-5.2-3.8c-0.9-1.9,4.3-1.8,5.5-1.8c9.2-0.3,17.9-5.2,24.3-10.4
				c6.7-5.4,11.6-12.9,9.8-20.9C175.3,277.6,169.9,278.8,170.6,281.8L170.6,281.8z"/>
			<g>
				<path fill="#29B473" stroke="#167244" stroke-miterlimit="10" d="M165.8,282.1c-1.4,7.8-6.3,14.3-14.1,18.7
					c-6.7,3.8-15.8,4.3-21.8,8.8c-6.4,4.9,2.1,11.4,6.5,14.3c6.5,4.4,14,8,13.7,15.9c-0.1,3,5.4,3,5.6,0c0.3-6.8-4-11.7-10.1-15.8
					c-3.4-2.3-7-4.4-10-7c-1-0.8-2.6-2.3-2.3-3.5c0.3-1.1,2.7-1.8,3.7-2.3c3.5-1.5,7.4-2.3,11.1-3.6c4.1-1.5,7.7-3.4,11.1-5.8
					c6.6-4.7,10.8-11.5,12-18.6C171.7,280.4,166.3,279.1,165.8,282.1L165.8,282.1z"/>
				<g opacity="0.77">
					<path fill="#105B34" d="M166.9,281c-0.4,0.2-0.7,0.5-0.8,1.1c-1.4,7.9-6.4,14.5-14.3,19c-3,1.7-6.5,2.8-10,3.8
						c-4.2,1.2-8.5,2.5-11.8,5c-1.5,1.1-2.2,2.4-2.2,3.8c0.1,2.8,3,6.1,8.7,9.9c0.8,0.6,1.7,1.1,2.5,1.6c2.7,1.7,5.3,3.4,7.4,5.5
						c-1.8-2.2-2-4.1-2.4-7.2c-0.5-0.3-1-0.7-1.5-1c-2.5-1.6-5.1-3.3-7.4-5.2c-0.9-0.8-2.8-2.4-2.4-3.9c0.3-1.1,2.1-1.8,3.4-2.3
						c0.2-0.1,0.4-0.1,0.5-0.2c1.8-0.7,3.6-1.3,5.5-1.8c1.1-4.1,6.3-3.5,14-7.6C164.8,297,165.1,289.3,166.9,281z"/>
					<path fill="#105B34" d="M155.3,338.1c-1.1-0.9-2.3-1.8-3.5-2.7c-1.7-1.2-2.9-2.3-3.9-3.2c1.7,2.1,2.7,4.5,2.6,7.6
						c0,0.5,0.1,0.9,0.4,1.2c0.4,0.4,1.1,0.7,1.9,0.7c1.2,0,2.5-0.6,2.5-1.9C155.3,339.2,155.3,338.7,155.3,338.1z"/>
				</g>
			</g>
			<path fill="#1E8E56" stroke="#105B34" stroke-miterlimit="10" d="M158.6,283.6c-0.3,3.6-4.6,6.3-7.6,8.3
				c-3.4,2.3-6.8,4.5-10.1,6.8c-6.5,4.5-14.4,9.8-14.7,17.5c-0.2,5.9,4.9,11,9.1,15.2c4.2,4.3,10.1,9.2,7.2,15.2
				c-1.4,2.8,4,4,5.4,1.2c6.1-12.3-13.5-19.6-15.9-30.4c-0.9-3.9,2.6-7.3,5.5-9.9c3.4-3,7.5-5.5,11.3-8.2
				c6.1-4.3,15.1-8.4,15.6-15.8C164.4,280.6,158.8,280.6,158.6,283.6L158.6,283.6z"/>
			<g>
				<path fill="#29B473" stroke="#167244" stroke-miterlimit="10" d="M161.3,284.2c-2.2,11.9-21,13.8-26.9,24
					c-8.4,14.4,9.8,27.1,16.1,39c1.5,2.7,6.2,0.4,4.8-2.4c-3.5-6.6-9.3-12-13.4-18.3c-3.7-5.5-5.8-13.2-0.7-18.6
					c7.8-8.4,23.3-10.5,25.6-22.5C167.2,282.5,161.9,281.3,161.3,284.2L161.3,284.2z"/>
				<g>
					<path fill="#41E592" d="M136,318.5c0,0,0,0.1,0,0.4c0,0.2,0.1,0.6,0.2,1.1c0,0.2,0.1,0.5,0.1,0.7c0.1,0.3,0.1,0.6,0.2,0.9
						c0.2,0.6,0.4,1.3,0.7,2c0.1,0.4,0.3,0.7,0.5,1.1c0.2,0.4,0.4,0.8,0.6,1.1c0.4,0.8,1,1.5,1.5,2.3c1.1,1.6,2.5,3.1,3.9,4.7
						c1.4,1.6,2.8,3.1,4.1,4.6c0.6,0.7,1.2,1.5,1.7,2.3c0.5,0.7,1,1.5,1.4,2.2c0.8,1.4,1.2,2.7,1.5,3.5c0.1,0.4,0.2,0.8,0.2,1
						c0,0.2,0.1,0.4,0.1,0.4s0-0.1-0.1-0.4c-0.1-0.2-0.2-0.6-0.3-1c-0.3-0.9-0.8-2.1-1.7-3.4c-0.8-1.3-2-2.7-3.3-4.2
						c-1.3-1.5-2.7-3-4.2-4.5c-1.4-1.6-2.8-3.2-3.9-4.8c-0.6-0.8-1.1-1.6-1.5-2.5c-0.2-0.4-0.4-0.8-0.6-1.2
						c-0.2-0.4-0.3-0.8-0.5-1.2c-0.3-0.7-0.5-1.5-0.6-2.1c-0.1-0.3-0.1-0.6-0.2-0.9c0-0.3-0.1-0.5-0.1-0.8c-0.1-0.5,0-0.8-0.1-1.1
						C136,318.7,136,318.5,136,318.5z"/>
				</g>
			</g>
			<g>
				<g>
					
						<linearGradient id="SVGID_39_" gradientUnits="userSpaceOnUse" x1="116.2167" y1="21.5691" x2="120.0339" y2="21.5691" gradientTransform="matrix(0.9754 0.2205 0.2205 -0.9754 16.8245 352.8398)">
						<stop  offset="2.550000e-02" style="stop-color:#FDE04C"/>
						<stop  offset="0.1122" style="stop-color:#FDF0C5"/>
						<stop  offset="0.301" style="stop-color:#FDE573"/>
						<stop  offset="0.6429" style="stop-color:#FDECA8"/>
						<stop  offset="1" style="stop-color:#FDE04C"/>
					</linearGradient>
					<path fill="url(#SVGID_39_)" stroke="#F6921E" stroke-miterlimit="10" d="M135.4,355.7c0,1.4-0.7,2.7-1,4
						c-0.6,2.3,3.1,3.1,3.6,0.8c0.4-1.7,1-3.3,1.1-5c0-1-1-1.8-1.9-1.8C136.1,353.8,135.4,354.7,135.4,355.7L135.4,355.7z"/>
				</g>
				<path fill="#29B473" stroke="#167244" stroke-miterlimit="10" d="M131.6,295.2c-6.6,9.5-7.7,19-3.3,29.4
					c2.1,4.9,5.8,9.3,7.8,14.2c2.1,5.4-0.9,10.9-1.1,16.3c-0.1,3,5.4,3,5.6,0c0.2-5,2.5-9.7,1.7-14.7c-0.8-4.6-3.8-8.5-6.3-12.6
					c-2.8-4.7-4.8-10-5-15.3c-0.2-5.4,2.3-10.3,5.5-14.9C138.2,294.9,133.4,292.6,131.6,295.2L131.6,295.2z"/>
				<g>
					<path fill="#41E592" d="M149.2,296.2c0,0-0.9,0.5-2.6,1.5c-0.8,0.5-1.8,1.1-2.9,1.8c-0.6,0.4-1.1,0.7-1.8,1.1
						c-0.6,0.4-1.3,0.9-1.9,1.3c-0.6,0.5-1.3,1-2,1.6c-0.3,0.3-0.7,0.6-1,0.9c-0.3,0.3-0.7,0.6-1,0.9c-1.3,1.3-2.6,2.8-3.6,4.5
						c-1,1.7-1.8,3.7-2.1,5.7c-0.3,2.1-0.2,4.2,0.3,6.3c0.4,2.1,1.2,4.1,2.1,6c0.9,1.9,1.9,3.8,2.8,5.6c0.9,1.8,1.7,3.6,2.3,5.4
						c0.6,1.8,1,3.6,1.1,5.2c0.1,1.6,0.1,3.1,0,4.5c-0.1,1.3-0.2,2.5-0.4,3.4c-0.3,1.9-0.5,3-0.5,3s0.1-1.1,0.3-3
						c0.1-0.9,0.2-2.1,0.2-3.4c0.1-1.3,0-2.8-0.1-4.4c-0.1-1.6-0.6-3.3-1.2-5.1c-0.6-1.7-1.5-3.5-2.4-5.3c-1.8-3.6-4.1-7.4-5-11.8
						c-0.5-2.1-0.5-4.4-0.2-6.6c0.3-2.2,1.1-4.2,2.2-6c1-1.8,2.4-3.3,3.8-4.6c0.3-0.3,0.7-0.6,1-0.9c0.4-0.3,0.7-0.6,1-0.8
						c0.7-0.6,1.4-1,2-1.5c0.7-0.5,1.3-0.9,2-1.3c0.6-0.4,1.2-0.7,1.8-1.1c1.1-0.7,2.2-1.2,3-1.7
						C148.2,296.7,149.2,296.2,149.2,296.2z"/>
				</g>
			</g>
			<path fill="#29B473" stroke="#167244" stroke-miterlimit="10" d="M136,295.2c-4.4,5.6-9.1,11-12.9,16.9c-3.2,4.9-7.4,11-5.5,16.8
				c0.7,2.3,2.7,4.3,1.3,6.7c-1.2,2-3.1,3.7-4.9,5.4c-1.7,1.6-6.8,4.8-5.7,7.4c1.2,2.8,4.7,0.6,5.8-0.5c0.6-0.6,1.2-1.1,1.7-1.6
				c1.7-1.5,3.3-3,4.9-4.7c3.2-3.3,5.2-6.5,3.7-10.8c-0.9-2.7-2.4-4.4-1.3-7.3c1.1-3.1,3-6.1,4.8-9c3.7-5.9,8.4-11.4,12.9-16.9
				C142.8,295,138,292.7,136,295.2L136,295.2z"/>
			<g>
				<path fill="#29B473" stroke="#167244" stroke-miterlimit="10" d="M125,295.4c-2.4,5-0.6,10.5-1.9,15.6c-1.5,5.6-5.5,10.7-9,15.6
					c-6.6,9-10.9,19.7-8.7,30.3c0.6,3,6,1.7,5.4-1.2c-2.4-11.1,4.2-21.1,10.7-30.2c3.1-4.4,6-9.1,7.3-14.1c1.3-4.9-0.6-10,1.7-14.6
					C131.7,293.9,126.3,292.7,125,295.4L125,295.4z"/>
				<g>
					<path fill="#41E592" d="M128.3,300.8c0,0,0,0.2,0,0.7c0,0.4,0.1,1.1,0,1.9c0,0.4,0,0.9-0.1,1.4c0,0.5-0.1,1-0.2,1.6
						c-0.1,1.1-0.4,2.4-0.8,3.8c-0.4,1.4-0.9,2.8-1.6,4.3c-0.7,1.5-1.5,3-2.4,4.5c-0.9,1.5-1.9,3-3,4.5c-1.1,1.5-2.1,3-3.2,4.5
						c-1.1,1.5-2.1,3-3.1,4.6c-0.9,1.5-1.8,3.1-2.6,4.6c-0.7,1.5-1.3,3.1-1.8,4.6c-0.5,1.5-0.8,3-1.1,4.3c-0.3,1.4-0.5,2.6-0.6,3.7
						c-0.1,1.1-0.2,2.1-0.2,2.9c0,0.4,0,0.8,0,1.1c0,0.3,0,0.6,0,0.8c0,0.4,0,0.7,0,0.7s0-0.2-0.1-0.7c-0.1-0.4-0.2-1.1-0.2-1.9
						c-0.1-0.8-0.1-1.8-0.1-3c0-1.1,0.1-2.4,0.3-3.8c0.2-1.4,0.4-2.9,0.9-4.5c0.4-1.6,1-3.2,1.7-4.8c0.7-1.6,1.6-3.2,2.5-4.8
						c1-1.6,2-3.1,3.1-4.7c1.1-1.5,2.2-3,3.2-4.5c1.1-1.5,2.1-2.9,3-4.4c0.9-1.5,1.8-2.9,2.5-4.3c0.7-1.4,1.3-2.8,1.8-4.1
						c0.2-0.7,0.4-1.3,0.6-1.9c0.1-0.3,0.2-0.6,0.3-0.9c0.1-0.3,0.1-0.6,0.2-0.8c0.1-0.5,0.2-1.1,0.3-1.5c0.1-0.5,0.1-0.9,0.2-1.3
						c0.1-0.8,0.1-1.4,0.2-1.9C128.2,301.1,128.3,300.8,128.3,300.8z"/>
				</g>
			</g>
			<path fill="#29B473" stroke="#167244" stroke-miterlimit="10" d="M93.7,287.4c-2.6,3.9-3.5,8.6,1.5,11.4
				c4.3,2.4,10.6,1.2,14.9-0.4c3.3-1.2,0.4-5.3-2.8-4c-2.6,1-5.7,1.4-8.4,0.8c-3.1-0.8-1.5-3.7-0.4-5.3
				C100.3,287.1,95.5,284.8,93.7,287.4L93.7,287.4z"/>
			<path opacity="0.77" fill="#105B34" enable-background="new    " d="M78.1,282.6c0,0,6,28.2,49.6,28.2s44.3-23.4,43.6-28.2
				C170.6,277.8,78.1,282.6,78.1,282.6z"/>
			<g>
				<path fill="#41E592" d="M129,329.3c0,0,0,0.3-0.1,0.9c-0.1,0.6-0.1,1.4-0.4,2.4c-0.2,1-0.4,2.2-0.7,3.4
					c-0.3,1.2-0.6,2.5-0.9,3.8c-0.3,1.3-0.7,2.6-1,3.8c-0.1,0.6-0.3,1.2-0.4,1.8c-0.1,0.6-0.2,1.1-0.3,1.6c-0.2,1-0.3,1.8-0.5,2.4
					c-0.1,0.6-0.2,0.9-0.2,0.9s0-0.3,0-0.9c0-0.3,0-0.7,0.1-1.1c0-0.4,0-0.9,0.1-1.4c0.1-0.5,0.1-1,0.2-1.6c0.1-0.6,0.2-1.2,0.3-1.8
					c0.1-0.6,0.2-1.3,0.4-1.9c0.2-0.6,0.3-1.3,0.5-2c0.4-1.3,0.7-2.6,1-3.8c0.2-0.6,0.3-1.2,0.5-1.7c0.2-0.6,0.3-1.1,0.4-1.6
					c0.3-1,0.5-1.8,0.6-2.4C128.9,329.6,129,329.3,129,329.3z"/>
			</g>
			<g>
				<path fill="#41E592" d="M121,328.4c0,0,0.2,0.2,0.6,0.6c0.2,0.2,0.4,0.5,0.6,0.8c0.2,0.3,0.4,0.7,0.6,1.2c0.2,0.4,0.3,1,0.4,1.5
					c0.1,0.6,0.1,1.2-0.1,1.8c-0.1,0.6-0.4,1.2-0.7,1.8c-0.3,0.6-0.7,1.1-1.1,1.6c-0.8,1-1.8,1.8-2.7,2.6c-0.9,0.7-1.8,1.3-2.6,1.8
					c-0.8,0.5-1.4,0.9-1.9,1.2c-0.5,0.3-0.7,0.4-0.7,0.4s0.2-0.2,0.6-0.6c0.4-0.3,1-0.9,1.7-1.4c0.7-0.6,1.6-1.3,2.4-2
					c0.9-0.8,1.8-1.6,2.5-2.5c0.8-0.9,1.4-2,1.7-3c0.1-0.5,0.2-1.1,0.2-1.6c0-0.5-0.1-1-0.2-1.4c-0.1-0.4-0.3-0.8-0.4-1.2
					c-0.1-0.3-0.3-0.6-0.4-0.9C121.2,328.7,121,328.4,121,328.4z"/>
			</g>
			<g>
				<path fill="#41E592" d="M131.7,350.2c0,0,0.1,0.2,0.3,0.6c0.1,0.2,0.2,0.4,0.3,0.7c0.1,0.1,0.1,0.3,0.2,0.4
					c0.1,0.2,0.1,0.3,0.2,0.5c0.1,0.4,0.2,0.7,0.3,1.2c0.1,0.4,0.1,0.9,0.2,1.3c0,0.5,0.1,0.9,0.1,1.4c0,0.5,0,1-0.1,1.5
					c-0.1,0.5-0.2,1-0.3,1.5c-0.1,0.5-0.3,0.9-0.4,1.4c-0.2,0.4-0.3,0.9-0.5,1.2c-0.2,0.4-0.4,0.7-0.6,1c-0.1,0.2-0.2,0.3-0.3,0.5
					c-0.1,0.1-0.2,0.3-0.3,0.4c-0.2,0.2-0.4,0.4-0.5,0.6c-0.3,0.3-0.4,0.5-0.4,0.5s0.1-0.2,0.3-0.6c0.1-0.2,0.2-0.4,0.4-0.7
					c0.2-0.3,0.3-0.5,0.4-0.9c0.1-0.3,0.3-0.7,0.5-1.1c0.1-0.2,0.2-0.4,0.2-0.6c0.1-0.2,0.1-0.4,0.2-0.6c0.1-0.4,0.3-0.9,0.3-1.3
					c0.1-0.5,0.2-0.9,0.2-1.4c0-0.5,0.1-0.9,0.1-1.4c0.1-0.5,0-0.9,0-1.4c-0.1-0.4,0-0.9-0.1-1.3c-0.1-0.4-0.1-0.8-0.2-1.1
					c0-0.4-0.1-0.7-0.2-1c-0.1-0.3-0.2-0.5-0.2-0.7C131.8,350.4,131.7,350.2,131.7,350.2z"/>
			</g>
			<polygon fill="#F9EC31" points="154.1,358.5 151.6,358.9 153.9,360 151.4,359.6 153.2,361.4 150.9,360.3 152.2,362.5 
				150.3,360.8 150.8,363.2 149.6,361 149.3,363.5 148.9,361 147.8,363.3 148.1,360.8 146.4,362.7 147.5,360.4 145.3,361.6 
				147,359.8 144.5,360.2 146.8,359 144.3,358.7 146.7,358.3 144.5,357.2 146.9,357.5 145.1,355.8 147.4,356.9 146.2,354.7 
				148,356.4 147.5,354 148.7,356.2 149,353.7 149.5,356.2 150.5,353.9 150.2,356.4 151.9,354.5 150.8,356.8 153.1,355.6 
				151.3,357.4 153.8,356.9 151.6,358.1 			"/>
			<polygon fill="#F9EC31" points="141,369.8 140.1,370 141,370.4 140,370.3 140.7,371 139.8,370.6 140.3,371.4 139.6,370.7 
				139.8,371.7 139.3,370.8 139.2,371.8 139,370.9 138.6,371.8 138.7,370.8 138,371.5 138.4,370.6 137.6,371.1 138.3,370.4 
				137.3,370.6 138.2,370.1 137.2,370 138.1,369.8 137.2,369.4 138.2,369.5 137.5,368.8 138.4,369.2 137.9,368.4 138.6,369 
				138.5,368.1 138.9,368.9 139,368 139.2,368.9 139.6,368 139.5,369 140.2,368.3 139.8,369.2 140.6,368.7 140,369.4 140.9,369.2 
				140.1,369.7 			"/>
			<polygon fill="#F9EC31" points="115.5,366.8 114.5,367 115.4,367.4 114.5,367.3 115.2,367.9 114.3,367.5 114.8,368.4 114,367.7 
				114.2,368.7 113.8,367.8 113.6,368.8 113.5,367.8 113,368.7 113.2,367.7 112.5,368.4 112.9,367.5 112.1,368 112.7,367.3 
				111.8,367.5 112.6,367 111.7,366.9 112.6,366.7 111.7,366.3 112.7,366.4 112,365.8 112.9,366.2 112.4,365.3 113.1,366 112.9,365 
				113.4,365.9 113.5,364.9 113.7,365.9 114.1,365 114,366 114.7,365.2 114.2,366.1 115.1,365.7 114.4,366.4 115.4,366.2 
				114.5,366.7 			"/>
			<g>
				<path fill="#1D1D1B" d="M141.8,314.4c0.1,1.4-2.2,2.7-5.1,2.9l-20.3,1c-2.9,0.1-5.2-0.9-5.3-2.3c-0.1-1.4,2.2-2.7,5.1-2.9
					l20.3-1C139.4,311.9,141.8,313,141.8,314.4z"/>
			</g>
		</g>
		<g>
			<g>
				<g>
					<path fill="#BE1E2D" d="M209.2,195.1c0,1.2-1,2.2-2.2,2.2H45.3c-1.2,0-2.2-1-2.2-2.2V99.3c0-1.2,1-2.2,2.2-2.2H207
						c1.2,0,2.2,1,2.2,2.2V195.1z"/>
					<path fill="none" stroke="#820F1D" stroke-width="2" stroke-miterlimit="10" d="M209.2,195.1c0,1.2-1,2.2-2.2,2.2H45.3
						c-1.2,0-2.2-1-2.2-2.2V99.3c0-1.2,1-2.2,2.2-2.2H207c1.2,0,2.2,1,2.2,2.2V195.1z"/>
				</g>
				<path fill="#D84456" d="M206.8,195H45.6V99.4h161.2L206.8,195L206.8,195z M50,190.6h152.3v-86.7H50V190.6z"/>
				
					<radialGradient id="SVGID_40_" cx="79.7311" cy="353.8395" r="210.0399" gradientTransform="matrix(0.7686 -7.326688e-03 -4.765375e-03 -0.5006 71.3625 343.1656)" gradientUnits="userSpaceOnUse">
					<stop  offset="0.2919" style="stop-color:#381014"/>
					<stop  offset="1" style="stop-color:#A31E2D"/>
				</radialGradient>
				<rect x="52.3" y="105.6" fill="url(#SVGID_40_)" stroke="#820F1D" stroke-miterlimit="10" width="147.7" height="83.2"/>
			</g>
			
				<linearGradient id="SVGID_41_" gradientUnits="userSpaceOnUse" x1="96.2824" y1="308.4884" x2="124.8784" y2="251.2964" gradientTransform="matrix(1 0 0 -1 0 396)">
				<stop  offset="0" style="stop-color:#A31E2D"/>
				<stop  offset="1" style="stop-color:#381014"/>
			</linearGradient>
			<rect x="59.7" y="116.4" fill="url(#SVGID_41_)" stroke="#820F1D" stroke-miterlimit="10" width="132.8" height="61.6"/>
			<g>
				
					<radialGradient id="SVGID_42_" cx="134.9266" cy="341.3557" r="26.8794" gradientTransform="matrix(0.7686 0 0 -0.7712 70.4205 394.853)" gradientUnits="userSpaceOnUse">
					<stop  offset="8.610000e-02" style="stop-color:#8BC541"/>
					<stop  offset="0.8204" style="stop-color:#009247"/>
				</radialGradient>
				
					<ellipse fill="url(#SVGID_42_)" stroke="#006938" stroke-width="2" stroke-miterlimit="10" cx="176.8" cy="126.9" rx="16.9" ry="17"/>
				
					<linearGradient id="SVGID_43_" gradientUnits="userSpaceOnUse" x1="204.2719" y1="331.6908" x2="205.9439" y2="301.4094" gradientTransform="matrix(0.818 -0.5753 -0.5753 -0.818 201.1464 501.3598)">
					<stop  offset="0" style="stop-color:#FFFFFF"/>
					<stop  offset="1" style="stop-color:#FFFFFF;stop-opacity:0"/>
				</linearGradient>
				<path opacity="0.4" fill="url(#SVGID_43_)" enable-background="new    " d="M186,119.6c1.7,2.4,2.2,5,1.1,5.7
					c-1.1,0.8-3.3-0.6-5-3c-1.7-2.4-2.2-5-1.1-5.7C182.1,115.8,184.3,117.2,186,119.6z"/>
				<g>
					<path fill="#603A17" stroke="#3B2416" stroke-miterlimit="10" d="M176.5,127.5c0,0,2.5-6.3,4-8c1.5-1.7,3.6,1.5,3.6,1.5
						l-6.4,8.1L176.5,127.5z"/>
					<path fill="#845834" stroke="#3B2416" stroke-miterlimit="10" d="M179.3,121.5l3,1.8l1.8-2.3c0,0-1.9-3.1-3.4-1.7
						C179.2,120.6,179.3,121.5,179.3,121.5z"/>
					<g>
						<path fill="#066938" d="M173,125.4c0,0,0.1,0,0.4,0.1c0.2,0.1,0.6,0.1,0.9,0.4c0.2,0.1,0.4,0.2,0.6,0.3
							c0.2,0.1,0.4,0.3,0.6,0.4c0.2,0.2,0.4,0.3,0.6,0.5c0.2,0.2,0.4,0.4,0.6,0.6c0.2,0.2,0.4,0.4,0.6,0.6c0.2,0.2,0.4,0.4,0.5,0.6
							c0.1,0.2,0.3,0.4,0.4,0.6c0.1,0.2,0.2,0.4,0.3,0.6c0.1,0.2,0.2,0.4,0.2,0.5c0,0.2,0.1,0.3,0.1,0.4c0,0.2,0.1,0.4,0.1,0.4
							s-0.1-0.1-0.2-0.3c-0.1-0.1-0.1-0.2-0.2-0.4c-0.1-0.1-0.2-0.3-0.3-0.4c-0.1-0.2-0.2-0.3-0.4-0.5c-0.2-0.2-0.3-0.4-0.5-0.6
							c-0.1-0.2-0.4-0.4-0.5-0.6c-0.2-0.2-0.3-0.4-0.5-0.6c-0.4-0.4-0.8-0.8-1.1-1.1c-0.2-0.2-0.4-0.4-0.5-0.5
							c-0.2-0.1-0.3-0.3-0.5-0.4c-0.2-0.1-0.3-0.3-0.4-0.3c-0.1-0.1-0.3-0.2-0.4-0.3C173.1,125.5,173,125.4,173,125.4z"/>
					</g>
					<g>
						<path fill="#066938" d="M177.7,128.9c0,0,0.1,0,0.3-0.1c0.2-0.1,0.4-0.2,0.7-0.3c0.6-0.2,1.4-0.5,2.3-0.6
							c0.4-0.1,0.8-0.2,1.3-0.2c0.2,0,0.4,0,0.6,0c0.2,0,0.4,0,0.5,0c0.6,0.1,1.1,0.1,1.1,0.1s-0.4,0-1.1,0c-0.2,0-0.3,0-0.5,0.1
							c-0.2,0-0.4,0.1-0.6,0.1c-0.4,0.1-0.8,0.2-1.2,0.3c-0.8,0.2-1.6,0.6-2.1,0.8c-0.3,0.1-0.5,0.3-0.7,0.3
							c-0.2,0.1-0.2,0.1-0.2,0.1L177.7,128.9z"/>
					</g>
				</g>
				
					<linearGradient id="SVGID_44_" gradientUnits="userSpaceOnUse" x1="173.897" y1="285.2539" x2="175.5712" y2="254.9329" gradientTransform="matrix(1 0 0 -1 0 396)">
					<stop  offset="0" style="stop-color:#FFFFFF"/>
					<stop  offset="1" style="stop-color:#FFFFFF;stop-opacity:0"/>
				</linearGradient>
				<path opacity="0.4" fill="url(#SVGID_44_)" enable-background="new    " d="M174.7,112.2c2.2-0.2,4.2,3.2,2.3,5.8
					c-1.9,2.6-7.1,4.5-5.6,8.3c2.8,1.6,4.2,4.2,5.6,7.2c1.4,2.9,1.8-2.6,7.3-3.2c5.6-0.6,4.2,9.7-4.4,11.2s-12.6-2.8-15.1-6.1
					c-2.5-3.2-4.9-13.3,1.4-18.6C170.5,113,172.5,112.4,174.7,112.2z"/>
			</g>
			<g>
				<path fill="#FCDA46" stroke="#F69220" stroke-width="2" stroke-miterlimit="10" d="M157.2,151.8c9.4-3.9,37-11.6,39.5,2.1
					c2.1,11.5-20.3,14.4-29.9,13.4S157.2,151.8,157.2,151.8z"/>
				<g>
					<g>
						<path fill="#F59121" d="M188.8,156.8c0,0,0,0.2,0.1,0.7c0,0.2,0,0.5,0,0.9c0,0.3-0.1,0.7-0.2,1.1c-0.2,0.4-0.3,0.8-0.5,1.1
							c-0.2,0.4-0.5,0.8-0.8,1.1c-0.3,0.4-0.7,0.7-1,1c-0.4,0.3-0.8,0.6-1.2,0.9c-0.8,0.6-1.7,1.1-2.5,1.5c-0.8,0.4-1.6,0.8-2.3,1
							c-0.7,0.3-1.3,0.5-1.7,0.6c-0.4,0.1-0.6,0.2-0.6,0.2s0.2-0.1,0.6-0.2c0.4-0.2,1-0.4,1.7-0.7c0.7-0.3,1.5-0.7,2.3-1.1
							c0.8-0.5,1.6-1,2.4-1.6c0.4-0.3,0.8-0.6,1.1-1c0.4-0.3,0.7-0.7,1-1c0.3-0.4,0.5-0.7,0.7-1.1c0.2-0.4,0.3-0.7,0.4-1.1
							c0.1-0.3,0.2-0.7,0.2-0.9c0-0.3,0-0.5,0-0.7c-0.1-0.4-0.1-0.7-0.1-0.7L188.8,156.8z"/>
					</g>
					<g>
						<path fill="#F59121" d="M187.4,154.1c0,0-0.3-0.2-0.9-0.4c-0.3-0.1-0.6-0.3-1-0.5c-0.2-0.1-0.4-0.2-0.6-0.3
							c-0.2-0.1-0.5-0.2-0.7-0.3c-0.5-0.2-1.1-0.4-1.6-0.6c-0.6-0.2-1.2-0.4-1.9-0.6c-0.7-0.2-1.3-0.4-2-0.5
							c-0.7-0.1-1.4-0.3-2.1-0.5c-0.7-0.1-1.4-0.2-2.1-0.3c-0.7-0.1-1.4-0.2-2.1-0.3c-0.7-0.1-1.3-0.2-2-0.2c-0.6,0-1.2-0.1-1.8-0.1
							c-1.1-0.1-2-0.1-2.6-0.2c-0.6,0-1-0.1-1-0.1s0.4,0,1,0c0.6,0,1.6,0,2.6,0.1c0.5,0,1.1,0.1,1.8,0.1c0.6,0,1.3,0.1,2,0.1
							c0.7,0.1,1.4,0.1,2.1,0.2c0.7,0.1,1.4,0.2,2.2,0.3c0.7,0.1,1.4,0.3,2.1,0.4c0.7,0.1,1.4,0.3,2.1,0.5c0.7,0.2,1.3,0.3,1.9,0.5
							c0.6,0.2,1.2,0.4,1.7,0.6c0.3,0.1,0.5,0.2,0.8,0.3c0.2,0.1,0.4,0.2,0.6,0.3c0.4,0.2,0.8,0.3,1,0.5c0.6,0.3,0.9,0.4,0.9,0.4
							L187.4,154.1z"/>
					</g>
					<path fill="none" stroke="#F59121" stroke-linejoin="round" stroke-miterlimit="10" d="M193.4,155.5c0,0,2.6-0.4,2.1,4.1"/>
				</g>
				<g>
					
						<linearGradient id="SVGID_45_" gradientUnits="userSpaceOnUse" x1="196.1509" y1="244.8592" x2="175.8124" y2="237.5027" gradientTransform="matrix(1 0 0 -1 0 396)">
						<stop  offset="0" style="stop-color:#FFFFFF"/>
						<stop  offset="1" style="stop-color:#FFFFFF;stop-opacity:0"/>
					</linearGradient>
					<path fill="url(#SVGID_45_)" d="M173.8,151.8c1.4-2.2,11.5,1.3,12.2,4.8c0.7,3.5-5.5,8.4-7.1,8.4
						C177.3,164.9,170.4,157.1,173.8,151.8z"/>
					
						<linearGradient id="SVGID_46_" gradientUnits="userSpaceOnUse" x1="205.0775" y1="251.1941" x2="182.1369" y2="242.8964" gradientTransform="matrix(1 0 0 -1 0 396)">
						<stop  offset="0" style="stop-color:#FFFFFF"/>
						<stop  offset="1" style="stop-color:#FFFFFF;stop-opacity:0"/>
					</linearGradient>
					<path fill="url(#SVGID_46_)" d="M177.9,148.3c0,0,9.6,3,12.5,4.4c2.9,1.4,2.5,1.7,4.1,2.2c1.6,0.5-1.4-6-5.8-6.6
						C184.2,147.6,177.9,148.3,177.9,148.3z"/>
				</g>
				<g>
					<polygon fill="#3B2416" stroke="#231F20" stroke-miterlimit="10" points="188.1,156.8 193.4,155.5 193,150.9 188.6,152.2 
						187.4,154 					"/>
					<polygon fill="#6D4832" stroke="#231F20" stroke-linejoin="round" stroke-miterlimit="10" points="188.6,152.2 189.4,155.3 
						193.4,155.5 193,150.9 					"/>
				</g>
				<path opacity="0.4" fill="#F69220" enable-background="new    " d="M175.8,147.5c-7.1,1.1-14.1,3.4-17.8,4.8
					c0.1,2.5,1.1,13.4,9,14.3c1.2,0.1,2.5,0.2,3.9,0.2c2.3,0,4.7-0.2,7.1-0.5C169.4,160.3,168.9,152.7,175.8,147.5z"/>
				
					<linearGradient id="SVGID_47_" gradientUnits="userSpaceOnUse" x1="178.9501" y1="250.0372" x2="178.9501" y2="250.0372" gradientTransform="matrix(1 0 0 -1 0 396)">
					<stop  offset="0" style="stop-color:#FFFFFF"/>
					<stop  offset="1" style="stop-color:#FFFFFF;stop-opacity:0"/>
				</linearGradient>
				<path fill="url(#SVGID_47_)" d="M179,146"/>
			</g>
			<g>
				<path fill="#C9E7F8" stroke="#58A9CD" stroke-width="2" stroke-linejoin="round" stroke-miterlimit="10" d="M76.7,126.3
					l-17.5,6.4v43.1H82h19.3V131c0,0-10.8-1-19.3-4.7C82,126.3,76.7,126.3,76.7,126.3z"/>
				<path opacity="0.3" fill="#58A9CD" enable-background="new    " d="M61.1,135.2l13.3-6.2v38.5c0,0-1.7,2.6-13.3,4.5
					C61.1,166.2,61.1,134.2,61.1,135.2z"/>
				<path opacity="0.3" fill="#58A9CD" enable-background="new    " d="M83.2,129c0,0,9.1,3.5,15.8,3.9c0,5.6,0,39.5,0,39.5
					c-7.2-1.4-13.1-2.9-15-4.7C83.9,163.1,83.2,129,83.2,129z"/>
				<rect x="76.7" y="124.8" fill="#EEFAFF" stroke="#58A9CD" stroke-width="2" stroke-miterlimit="10" width="5.3" height="45.1"/>
				<path fill="#C9E7F8" stroke="#58A9CD" stroke-width="2" stroke-linejoin="round" stroke-miterlimit="10" d="M62.2,173.2
					c0,0,9.2,0.1,14.5-3.3c5.3-3.3,0,4.9,0,4.9L62.2,173.2z"/>
			</g>
			<g>
				<g>
					<path fill="#E26927" d="M157.2,161.5c0,3.3-2.7,6-5.9,6h-43c-3.3,0-5.9-2.7-5.9-6v-43.2c0-3.3,2.7-6,5.9-6h43
						c3.3,0,5.9,2.7,5.9,6V161.5z"/>
					<path fill="none" stroke="#C94628" stroke-miterlimit="10" d="M157.2,161.5c0,3.3-2.7,6-5.9,6h-43c-3.3,0-5.9-2.7-5.9-6v-43.2
						c0-3.3,2.7-6,5.9-6h43c3.3,0,5.9,2.7,5.9,6V161.5z"/>
				</g>
				<path opacity="0.6" fill="#C94628" enable-background="new    " d="M124.1,144.2c-3.4-0.8-12.6-15-2-10.5c0-1.4,1-3.1,1-4.4
					c1.1,1,3.8,1.5,4.9,2.4c1.7-4.7,3-10.1,7.9-12.6c0.2,4.2-1.4,8.2-2.4,12.1c4.6-1.1,9.4-3.5,14-1.5c0,0,0.1,0.8,0,0.8
					c-1.7,0.8-3.5,2.7-5.3,3.4c2.8-0.3,4.8,0.7,7.1,1c-2.7,1.6-7.1,3.9-8.6,6.7c-1.3,2.4,1.7,5.8,0.2,7.7
					C131.4,158.4,123,146.1,124.1,144.2z"/>
				<g>
					<g>
						<path fill="#C94628" d="M130.3,132.8c0,0,0.4-0.2,1-0.5c0.3-0.2,0.7-0.3,1.2-0.5c0.5-0.2,0.9-0.5,1.5-0.8
							c0.5-0.3,1.1-0.6,1.7-0.9c0.6-0.3,1.2-0.8,1.8-1.1c0.6-0.4,1.3-0.8,1.9-1.3c0.6-0.5,1.3-0.9,2-1.4c0.6-0.5,1.3-1,1.9-1.5
							c0.6-0.5,1.2-1,1.7-1.5c0.5-0.5,1.1-1,1.6-1.5c0.5-0.5,0.9-1,1.3-1.4c0.2-0.2,0.4-0.4,0.6-0.6c0.2-0.2,0.3-0.4,0.5-0.6
							c0.3-0.4,0.6-0.7,0.8-1c0.4-0.6,0.7-0.9,0.7-0.9s-0.2,0.3-0.6,0.9c-0.2,0.3-0.5,0.6-0.7,1.1c-0.1,0.2-0.3,0.4-0.5,0.6
							c-0.2,0.2-0.4,0.4-0.6,0.7c-0.4,0.5-0.8,1-1.3,1.5c-0.5,0.5-1,1-1.5,1.6c-0.5,0.6-1.1,1.1-1.7,1.7c-0.6,0.5-1.2,1.1-1.8,1.6
							c-0.6,0.5-1.3,1-1.9,1.5c-0.6,0.5-1.3,1-1.9,1.4c-0.6,0.4-1.2,0.9-1.8,1.3c-0.6,0.4-1.2,0.7-1.7,1.1c-0.5,0.3-1,0.6-1.4,0.9
							c-0.4,0.2-0.8,0.4-1.1,0.6c-0.6,0.3-1,0.5-1,0.5L130.3,132.8z"/>
					</g>
					<g>
						<path fill="#C94628" d="M129.1,134.4c0,0-0.4,0-1,0c-0.3,0-0.7-0.1-1.2-0.1c-0.5,0-1-0.2-1.5-0.3c-0.6-0.1-1.1-0.3-1.8-0.5
							c-0.6-0.2-1.3-0.4-1.9-0.7c-0.7-0.3-1.3-0.5-2-0.8c-0.7-0.3-1.3-0.7-2-1c-0.6-0.4-1.3-0.7-1.9-1.1c-0.6-0.4-1.2-0.8-1.8-1.2
							c-0.6-0.4-1.1-0.8-1.6-1.2c-0.5-0.4-1-0.8-1.4-1.1c-0.4-0.4-0.8-0.7-1.1-1c-0.3-0.3-0.6-0.6-0.8-0.8c-0.4-0.5-0.7-0.7-0.7-0.7
							s0.3,0.3,0.7,0.7c0.2,0.2,0.5,0.5,0.9,0.8c0.3,0.3,0.7,0.6,1.2,0.9c0.4,0.3,0.9,0.7,1.4,1c0.5,0.3,1.1,0.7,1.7,1.1
							c0.6,0.4,1.2,0.7,1.8,1c0.6,0.4,1.3,0.6,1.9,1c0.7,0.3,1.3,0.6,2,0.8c0.7,0.3,1.3,0.5,2,0.7c0.6,0.2,1.3,0.4,1.9,0.5
							c0.6,0.1,1.2,0.3,1.7,0.3c0.5,0.1,1,0.2,1.4,0.2c0.4,0,0.8,0.1,1.1,0c0.6,0,1,0,1,0L129.1,134.4z"/>
					</g>
					<g>
						<path fill="#C94628" d="M127.3,132.3c0,0-0.2-0.2-0.5-0.6c-0.2-0.2-0.3-0.4-0.6-0.6c-0.1-0.1-0.2-0.3-0.3-0.4
							c-0.1-0.2-0.2-0.3-0.4-0.5c-0.2-0.3-0.5-0.7-0.8-1.1c-0.3-0.4-0.5-0.9-0.7-1.3c-0.3-0.5-0.5-0.9-0.7-1.4
							c-0.2-0.5-0.4-1-0.7-1.5c-0.2-0.5-0.4-1-0.6-1.5c-0.2-0.5-0.3-1-0.5-1.5c-0.1-0.5-0.3-1-0.4-1.4c-0.1-0.5-0.2-0.9-0.3-1.3
							c-0.2-0.8-0.3-1.5-0.4-1.9c-0.1-0.5-0.2-0.7-0.2-0.7s0.1,0.3,0.2,0.7c0.1,0.4,0.3,1.1,0.6,1.9c0.1,0.4,0.3,0.8,0.4,1.2
							c0.1,0.4,0.3,0.9,0.5,1.4c0.2,0.5,0.4,1,0.6,1.4c0.2,0.5,0.5,1,0.7,1.4c0.3,0.5,0.5,0.9,0.8,1.4c0.2,0.5,0.5,0.9,0.8,1.3
							c0.3,0.4,0.5,0.8,0.8,1.2c0.3,0.3,0.5,0.7,0.8,1c0.1,0.1,0.2,0.3,0.3,0.4c0.1,0.1,0.3,0.2,0.4,0.4c0.2,0.2,0.4,0.4,0.6,0.6
							c0.3,0.3,0.5,0.5,0.5,0.5L127.3,132.3z"/>
					</g>
					<g>
						<path fill="#C94628" d="M130.8,137.9c0,0-0.4,0.1-1.1,0.2c-0.3,0.1-0.8,0.1-1.3,0.2c-0.2,0-0.5,0.1-0.8,0.1
							c-0.3,0.1-0.5,0.1-0.8,0.2c-0.6,0.1-1.2,0.3-1.9,0.4c-0.7,0.2-1.3,0.4-2.1,0.6c-0.7,0.2-1.5,0.4-2.2,0.7
							c-0.7,0.3-1.5,0.5-2.2,0.8c-0.7,0.3-1.5,0.6-2.2,0.9c-0.7,0.3-1.4,0.6-2.1,0.9c-0.7,0.3-1.4,0.6-2,0.9
							c-0.6,0.3-1.2,0.6-1.7,0.9c-1.1,0.5-1.9,1-2.6,1.4c-0.6,0.3-1,0.5-1,0.5s0.3-0.2,0.9-0.6c0.6-0.4,1.4-0.9,2.5-1.5
							c0.5-0.3,1.1-0.6,1.7-1c0.6-0.3,1.3-0.7,1.9-1c0.7-0.3,1.4-0.7,2.1-1c0.7-0.3,1.4-0.7,2.2-1c0.7-0.3,1.5-0.6,2.2-0.9
							c0.7-0.3,1.5-0.6,2.2-0.8c0.7-0.2,1.4-0.5,2.1-0.7c0.7-0.2,1.3-0.4,1.9-0.5c0.3-0.1,0.6-0.2,0.8-0.2c0.3-0.1,0.5-0.1,0.8-0.2
							c0.5-0.1,0.9-0.2,1.2-0.3c0.7-0.1,1.1-0.2,1.1-0.2L130.8,137.9z"/>
					</g>
					<g>
						<path fill="#C94628" d="M137,137.2c0,0,0.1,0.3,0.4,0.9c0.1,0.3,0.3,0.6,0.5,1c0.2,0.4,0.4,0.8,0.7,1.2
							c0.1,0.2,0.3,0.4,0.4,0.7c0.2,0.2,0.3,0.5,0.5,0.7c0.3,0.5,0.8,0.9,1.2,1.4c0.5,0.5,0.9,1,1.4,1.4c0.5,0.5,1.1,0.9,1.6,1.4
							c2.2,1.7,4.7,3.2,6.5,4.4c1.8,1.1,3,1.9,3,1.9s-1.2-0.7-3.1-1.7c-1.9-1-4.4-2.4-6.8-4c-0.6-0.4-1.2-0.8-1.7-1.3
							c-0.6-0.4-1.1-0.9-1.6-1.4c-0.5-0.5-1-0.9-1.4-1.4c-0.2-0.2-0.4-0.5-0.6-0.7c-0.2-0.2-0.3-0.5-0.5-0.7
							c-0.3-0.4-0.6-0.9-0.8-1.3c-0.3-0.4-0.4-0.7-0.6-1c-0.3-0.6-0.5-0.9-0.5-0.9L137,137.2z"/>
					</g>
				</g>
				<path fill="#EA7542" stroke="#C94628" stroke-miterlimit="10" d="M122.6,141.9c-3.4-0.8-12.6-15-2-10.5c0-1.4,1-3.1,1-4.4
					c1.1,1,3.8,1.5,4.9,2.4c1.7-4.7,3-10.1,7.9-12.6c0.2,4.2-1.4,8.2-2.4,12.1c4.6-1.1,9.4-3.5,14-1.5c0,0,0.1,0.8,0,0.8
					c-1.7,0.8-3.5,2.7-5.3,3.4c2.8-0.3,4.8,0.7,7.1,1c-2.7,1.6-7.1,3.9-8.6,6.7c-1.3,2.4,1.7,5.8,0.2,7.7
					C129.9,156.1,121.5,143.8,122.6,141.9z"/>
				<g>
					
						<linearGradient id="SVGID_48_" gradientUnits="userSpaceOnUse" x1="115.969" y1="282.3175" x2="155.2705" y2="256.6107" gradientTransform="matrix(1 0 0 -1 0 396)">
						<stop  offset="0" style="stop-color:#E09A28"/>
						<stop  offset="1" style="stop-color:#E09A28;stop-opacity:0"/>
					</linearGradient>
					<path fill="url(#SVGID_48_)" d="M134,128.8c-0.2,0.6-0.3,1.1-0.5,1.7c3.8-0.9,7.7-2.7,11.5-2.1c0.2-0.1,0.4-0.2,0.6-0.3
						c0-0.1,0-0.2,0-0.3c-1.1-0.4-2.2-0.7-3.5-0.7c-2.3,0-4.6,0.7-6.9,1.4C134.9,128.6,134.4,128.7,134,128.8z"/>
					
						<linearGradient id="SVGID_49_" gradientUnits="userSpaceOnUse" x1="115.6488" y1="281.801" x2="154.9433" y2="256.0987" gradientTransform="matrix(1 0 0 -1 0 396)">
						<stop  offset="0" style="stop-color:#E09A28"/>
						<stop  offset="1" style="stop-color:#E09A28;stop-opacity:0"/>
					</linearGradient>
					<path fill="url(#SVGID_49_)" d="M146.8,132.9c-0.4-0.1-0.9-0.2-1.3-0.3c-0.5-0.1-0.9-0.2-1.4-0.3c-0.6,0.4-1.2,0.8-1.7,1
						c1.3-0.2,2.4,0,3.5,0.2c0.3-0.1,0.5-0.3,0.7-0.4C146.6,133,146.7,133,146.8,132.9z"/>
					
						<linearGradient id="SVGID_50_" gradientUnits="userSpaceOnUse" x1="112.618" y1="277.179" x2="151.9112" y2="251.4775" gradientTransform="matrix(1 0 0 -1 0 396)">
						<stop  offset="0" style="stop-color:#E09A28"/>
						<stop  offset="1" style="stop-color:#E09A28;stop-opacity:0"/>
					</linearGradient>
					<path fill="url(#SVGID_50_)" d="M122.2,133c0-1.4,1-3.1,1-4.4c1.1,1,3.8,1.5,4.9,2.4c1.4-3.9,2.5-8.4,5.8-11.2
						c0.1-0.8,0.2-1.5,0.1-2.3c-3.8,2.2-5.2,6.3-6.5,10.3c-0.2,0.6-0.4,1.2-0.6,1.8l-0.2,0.5l-0.4-0.3c-0.5-0.4-1.3-0.7-2.1-1
						c-0.8-0.3-1.6-0.6-2.3-1c-0.1,0.5-0.3,1-0.4,1.5c-0.2,0.8-0.5,1.6-0.5,2.2l0,0.6l-0.5-0.2c-1.3-0.6-2.4-0.9-3.2-0.9
						c-1,0-1.2,0.5-1.3,1c-0.2,1.5,1.3,4.3,3,6.5C116.6,134.5,115.7,130.2,122.2,133z"/>
				</g>
				<path fill="#C94628" d="M128.1,144c0.1,0.2,0-1.5,2.7-3.3s10.1-5.7,10.1-5.7s-7.2,1.4-9.2,1.8c-2,0.4,2.8-3.5,2.8-3.5
					s-2.1,1.4-2.8,1.8c-0.7,0.4,0.3-3.4,0-3.9c-0.3-0.5-1.9,2.5-2,3.4s0-7.5,0-7.5l-1.1,9.1l-6.3-2.5c0,0,3.4,1.3,5.9,4.2
					C130.8,140.7,127.5,142.5,128.1,144z"/>
				
					<linearGradient id="SVGID_51_" gradientUnits="userSpaceOnUse" x1="119.2053" y1="295.489" x2="134.0687" y2="253.1283" gradientTransform="matrix(1 0 0 -1 0 396)">
					<stop  offset="0" style="stop-color:#E09A28"/>
					<stop  offset="1" style="stop-color:#E09A28;stop-opacity:0"/>
				</linearGradient>
				<path fill="url(#SVGID_51_)" d="M105.2,144.2c0,0-2.4-23.9,0-27.8c2.1-2.1,6.7-2.6,8.9-2.4c2.2,0.2,36.7,0.4,39.1,0.9
					c2.4,0.6,1.9,30,1.9,30s-11.5,0.7-11.3-3.1c0.2-3.8,10.2-4.8,9.5-10c-0.7-5.2-5.4-2.4-5.4-2.4l4.3-8.2c0,0,3.1-5.8-4.3-4.7
					c-2.7,0.9-4.8,8.6-9.6,8.6c-1.8-0.7-1.1-8.7-1.1-8.7s-5.4-3.6-9.3,2.8c-3.9,6.4-1.7,5.9-1.7,5.9s-3.7-10.6-5.9-9.7
					c-2.2,0.9-1.4,7.1,0,9.4c1.4,2.3-4.6-1.5-4.6-1.5l1.5,4.4c0,0-9.7-7.8-10.2-6.1c-0.6,1.6,2.2,7,7.6,10.2
					c5.4,3.2-2.4,4.2-2.4,4.2l5,3.3L105.2,144.2z"/>
			</g>
		</g>
		<g>
			<path fill="#7F3F97" stroke="#572270" stroke-width="2" stroke-linejoin="round" stroke-miterlimit="10" d="M126.7,216.2h61.9
				c0,0-3-47.8-18.9-60.4c-6.3-5-20-9.9-43-9.9s-36.8,4.9-43.1,9.9c-15.9,12.6-18.9,60.4-18.9,60.4H126.7z"/>
			
				<linearGradient id="SVGID_52_" gradientUnits="userSpaceOnUse" x1="107.3538" y1="263.1842" x2="125.6826" y2="207.2078" gradientTransform="matrix(1 0 0 -1 0 396)">
				<stop  offset="0" style="stop-color:#A06ABA"/>
				<stop  offset="1" style="stop-color:#A06ABA;stop-opacity:0"/>
			</linearGradient>
			<path fill="url(#SVGID_52_)" d="M126.7,170.8c21.1,0,40.1,9,53.2,23.2c-2.3-12.9-6.7-28.5-14.5-34.6c-5.7-4.5-18-8.9-38.7-8.9
				s-33.1,4.5-38.8,8.9c-7.8,6.2-12.2,21.7-14.5,34.6C86.6,179.8,105.6,170.8,126.7,170.8z"/>
			
				<ellipse fill="#7F3F97" stroke="#572270" stroke-width="2" stroke-linejoin="round" stroke-miterlimit="10" cx="126.7" cy="240.7" rx="67.5" ry="65.9"/>
			
				<linearGradient id="SVGID_53_" gradientUnits="userSpaceOnUse" x1="126.7058" y1="217.789" x2="126.7058" y2="115.79" gradientTransform="matrix(1 0 0 -1 0 396)">
				<stop  offset="0" style="stop-color:#A06ABA"/>
				<stop  offset="1" style="stop-color:#A06ABA;stop-opacity:0"/>
			</linearGradient>
			<ellipse fill="url(#SVGID_53_)" cx="126.7" cy="240.7" rx="60.8" ry="59.3"/>
			<path fill="#FFFFFF" d="M112.6,188.4c-0.6-1.3-0.7-2.5-0.3-3.8c1.4-4.3,7.5-7.3,14.7-7.2c6.9,0.1,12.8,3.3,13.7,7.6
				c1.1,4.9-4.9,9.5-13,10c-3.5,0.2-6.8-0.1-9.8-1.3c-2.1-0.8-3.6-1.9-4.2-3.4c-0.9-2.5,2.3-5.9,8.4-5.2c2.5,0.3,4.3,1.7,4.4,3.3
				c0,1.6-1.7,3-4,3.4c-0.8,0.1-1.5,0.2-2.3,0c0.8-0.5,1.2-1,1-1.7c-0.2-0.9-1.6-1.6-3.2-1.6c-1.5,0.1-2.8,0.9-2.9,1.9
				c-0.1,1.1,0.7,1.9,2.1,2.5c4.9,2,11.5,0.5,13.1-3c0.9-2.1,0.2-4-2.5-5.5c-2.7-1.5-5.9-1.9-9.3-1c-3.4,0.9-5.4,2.5-5.9,4.8
				C112.7,188.2,112.7,188.3,112.6,188.4z"/>
			<g>
				<g opacity="0.7">
					
						<linearGradient id="SVGID_54_" gradientUnits="userSpaceOnUse" x1="142.519" y1="144.4313" x2="144.5027" y2="127.0754" gradientTransform="matrix(1 0 0 -1 0 396)">
						<stop  offset="1.020000e-02" style="stop-color:#572270"/>
						<stop  offset="1" style="stop-color:#572270;stop-opacity:0"/>
					</linearGradient>
					<path fill="url(#SVGID_54_)" d="M142.9,253.4c-0.1-0.1-0.2-0.2-0.3-0.4c0,0-0.1-0.1-0.1-0.1c0,0.1,0.1,0.1,0.1,0.2
						C142.7,253.2,142.8,253.3,142.9,253.4z"/>
					
						<linearGradient id="SVGID_55_" gradientUnits="userSpaceOnUse" x1="148.5537" y1="145.1443" x2="150.5329" y2="127.8284" gradientTransform="matrix(1 0 0 -1 0 396)">
						<stop  offset="1.020000e-02" style="stop-color:#572270"/>
						<stop  offset="1" style="stop-color:#572270;stop-opacity:0"/>
					</linearGradient>
					<path fill="url(#SVGID_55_)" d="M147.6,243C147.6,243,147.6,243,147.6,243C147.6,243,147.6,243,147.6,243
						C147.8,243,147.8,243,147.6,243z"/>
					
						<linearGradient id="SVGID_56_" gradientUnits="userSpaceOnUse" x1="127.5481" y1="142.7166" x2="129.5324" y2="125.3565" gradientTransform="matrix(1 0 0 -1 0 396)">
						<stop  offset="1.020000e-02" style="stop-color:#572270"/>
						<stop  offset="1" style="stop-color:#572270;stop-opacity:0"/>
					</linearGradient>
					<path fill="url(#SVGID_56_)" d="M147.5,243c-3.4-1.3-5.6-4-8.9-5.6c0,0-0.1-1-0.1-1c1.8-1.4,3.9-4.5,5.5-5.5
						c-3.9,0.9-8.4,0.5-12.3,1.6c0.1-3,1-6.1,2.7-8.6c0,0-3.8,4.3-5,7c-0.7-2.1-4.5-6.6-4.5-6.6s-1.7,5.5-1.8,7.9
						c-1.6-1.8-3.8-2.4-5.5-5.7c0.7,2.2,0.2,4.8,0.6,7.1c-2.8-0.8-9.6-0.9-9.6-0.9s4.3,5.7,6.9,7.5c-3.1,1.3-6.1,4.4-9.7,5.2
						c2.9,0.4,6.2,2.8,9.3,3.5c-2.6,1.4-8.6,5.3-8.6,5.3s4.8-0.3,9.1,1l2.8-3.3v4.4c1.8,0.9,3.3,2.3,4,4.3c0.4-2,3.4-7.4,3.4-7.3
						c1.7,2.7,3.8,3.1,5.2,6.8c0.3-7.4,5-11.4,11.5-7.2C138.6,247.3,140.5,243,147.5,243z"/>
				</g>
				<path fill="#7F3F97" stroke="#572270" stroke-width="2" stroke-linejoin="round" stroke-miterlimit="10" d="M141.6,251
					c-0.1-0.1-0.2-0.2-0.2-0.3c0,0-0.1,0-0.1-0.1c0,0.1,0.1,0.1,0.1,0.2C141.5,250.8,141.5,250.9,141.6,251z"/>
				<path fill="#7F3F97" stroke="#572270" stroke-width="2" stroke-linejoin="round" stroke-miterlimit="10" d="M146,241.3
					C145.9,241.3,145.9,241.3,146,241.3C145.9,241.3,145.9,241.4,146,241.3C146.2,241.3,146.2,241.3,146,241.3z"/>
				<path fill="#A168BC" stroke="#572270" stroke-width="2" stroke-linejoin="round" stroke-miterlimit="10" d="M145.9,241.3
					c-3.2-1.2-5.2-3.7-8.3-5.2c0,0-0.1-0.9-0.1-0.9c1.7-1.3,3.6-4.2,5.1-5.1c-3.6,0.8-7.8,0.5-11.4,1.5c0.1-2.8,1-5.6,2.5-8
					c0,0-3.5,4-4.7,6.5c-0.7-1.9-4.2-6.1-4.2-6.1s-1.5,5-1.7,7.3c-1.5-1.6-3.5-2.2-5.1-5.3c0.7,2,0.2,4.5,0.5,6.5
					c-2.6-0.7-8.9-0.8-8.9-0.8s4,5.3,6.4,7c-2.9,1.2-5.7,4.1-9,4.8c2.7,0.4,5.7,2.6,8.6,3.3c-2.4,1.3-7.9,4.9-7.9,4.9
					s4.4-0.3,8.5,0.9l2.6-3.1v4.1c1.7,0.9,3,2.1,3.7,3.9c0.4-1.9,3.2-6.9,3.1-6.8c1.6,2.5,3.5,2.9,4.8,6.3
					c0.3-6.9,4.6-10.6,10.7-6.7C137.7,245.4,139.4,241.4,145.9,241.3z"/>
			</g>
			
				<radialGradient id="SVGID_57_" cx="73.1009" cy="199.8855" r="10.3646" gradientTransform="matrix(0.7686 0 0 -0.7712 70.4205 394.853)" gradientUnits="userSpaceOnUse">
				<stop  offset="0" style="stop-color:#D8D8D8"/>
				<stop  offset="0.4478" style="stop-color:#AFADB2"/>
				<stop  offset="1" style="stop-color:#4E4F52"/>
			</radialGradient>
			
				<ellipse fill="url(#SVGID_57_)" stroke="#2B2B2B" stroke-width="2" stroke-miterlimit="10" cx="126.6" cy="240.7" rx="8" ry="8"/>
			
				<linearGradient id="SVGID_58_" gradientUnits="userSpaceOnUse" x1="126.6065" y1="165.4533" x2="126.6065" y2="152.6181" gradientTransform="matrix(1 0 0 -1 0 396)">
				<stop  offset="0" style="stop-color:#FFFFFF"/>
				<stop  offset="1" style="stop-color:#FFFFFF;stop-opacity:0"/>
			</linearGradient>
			<ellipse fill="url(#SVGID_58_)" cx="126.6" cy="239.8" rx="4.5" ry="4.5"/>
		</g>
	</g>
</g>
</svg>
