<?xml version="1.0" encoding="utf-8"?>
<!-- Generator: Adobe Illustrator 18.0.0, SVG Export Plug-In . SVG Version: 6.00 Build 0)  -->
<!DOCTYPE svg PUBLIC "-//W3C//DTD SVG 1.1//EN" "http://www.w3.org/Graphics/SVG/1.1/DTD/svg11.dtd">
<svg version="1.1" id="Layer_1" xmlns="http://www.w3.org/2000/svg" xmlns:xlink="http://www.w3.org/1999/xlink" 
	 viewBox="0 0 250.9 396.5" enable-background="new 0 0 250.9 396.5" xml:space="preserve">
<g>
	<path opacity="0.1" enable-background="new    " d="M133.7,121.1c60.6-4.2,112.4,26.7,115.6,68.9c3.2,42.3-43.4,79.9-104,84.1
		S32.9,247.5,29.7,205.2S73.1,125.3,133.7,121.1z"/>
	<g>
		<g>
			<path fill="#FFCC83" stroke="#BC802F" stroke-width="2" stroke-miterlimit="10" d="M152.8,140.5c0,0,15.2-12.1,23.7-9.7
				c8.5,2.4,2.6,23.4,2.6,23.4L152.8,140.5z"/>
			<path opacity="0.5" fill="#BC802F" enable-background="new    " d="M154.3,140.4l24.2,12.6c0.7-2.7,1.5-6.8,1.6-10.7
				c-5.5-2.9-13.4-4.8-19.4-6.2C158,137.7,155.6,139.4,154.3,140.4z"/>
		</g>
		<g>
			<path fill="#FFCC83" stroke="#BC802F" stroke-width="2" stroke-miterlimit="10" d="M127.6,142.3c0,0-15.2-12.1-23.7-9.7
				c-8.5,2.4-2.6,23.4-2.6,23.4L127.6,142.3z"/>
			<path opacity="0.5" fill="#BC802F" enable-background="new    " d="M100.3,145.5c0.3,3.5,0.9,7,1.5,9.4l24.2-12.6
				c-2-1.5-6.7-4.8-11.7-7C109,137.1,103.9,141.1,100.3,145.5z"/>
		</g>
		<g>
			<g>
				
					<linearGradient id="SVGID_1_" gradientUnits="userSpaceOnUse" x1="83.0448" y1="209.3258" x2="203.6454" y2="209.3258" gradientTransform="matrix(1 0 0 -1 0 396)">
					<stop  offset="0" style="stop-color:#953752"/>
					<stop  offset="1" style="stop-color:#72243C"/>
				</linearGradient>
				
					<ellipse fill="url(#SVGID_1_)" stroke="#4C1026" stroke-width="2" stroke-miterlimit="10" cx="143.3" cy="186.7" rx="60.3" ry="48.8"/>
			</g>
			<g>
				<ellipse fill="#5E0E2F" cx="143.3" cy="188.9" rx="57.5" ry="46.5"/>
			</g>
		</g>
		<g>
			
				<linearGradient id="SVGID_2_" gradientUnits="userSpaceOnUse" x1="200.3722" y1="259.3001" x2="217.0751" y2="220.5328" gradientTransform="matrix(1 0 0 -1 0 396)">
				<stop  offset="0" style="stop-color:#F7D7B8"/>
				<stop  offset="0.483" style="stop-color:#F7CFAF"/>
				<stop  offset="1" style="stop-color:#F7C7A6"/>
			</linearGradient>
			<path fill="url(#SVGID_2_)" stroke="#AF7045" stroke-width="2" stroke-miterlimit="10" d="M186.7,149.2
				c2.3-3.6,17.1-16.9,37.6-7.7c7.5,2.9,6.2,16.7,6.2,16.7s0.2,13.1-23.7,14.9C182.8,175,185.5,151.1,186.7,149.2z"/>
			<path fill="#D89060" d="M212.4,163.5c-8.4-0.5-19.1-9.7-24.3-14.7c-0.3,0.3-0.5,0.6-0.7,0.9c-0.6,1-1.7,9.4,2.1,15.6
				c3.2,5.3,9,7.7,17.2,7.1c13.1-1,18.7-5.5,21.1-9.1C224.6,163.2,220,163.9,212.4,163.5z"/>
			<path fill="#D89060" d="M210.1,139.2c-7.2,0-12.9,2.5-16.8,5.1c5.2,4.7,15.6,8.3,15.6,8.3s10.2-7.6,14.9-6.5l-8.4-4.1
				c0,0,0.3-1,0.7-2.2C214.1,139.4,212.1,139.2,210.1,139.2z"/>
			
				<linearGradient id="SVGID_3_" gradientUnits="userSpaceOnUse" x1="175.1346" y1="259.821" x2="205.86" y2="259.821" gradientTransform="matrix(1 0 0 -1 0 396)">
				<stop  offset="5.000000e-03" style="stop-color:#2FAC66"/>
				<stop  offset="1" style="stop-color:#2F8166"/>
			</linearGradient>
			<path fill="url(#SVGID_3_)" stroke="#12753A" stroke-width="2" stroke-miterlimit="10" d="M193.9,147.7c0,0-18.6-7.8-18.8-8.4
				c-0.2-0.6,12.6-0.4,13.2,0c0.6,0.4-9.8-8.2-9.8-8.2l13.7,5.1l-2.8-11.5l16.4,21.3L193.9,147.7z"/>
			
				<linearGradient id="SVGID_4_" gradientUnits="userSpaceOnUse" x1="197.3259" y1="260.4032" x2="217.1311" y2="260.4032" gradientTransform="matrix(1 0 0 -1 0 396)">
				<stop  offset="5.000000e-03" style="stop-color:#2FAC66"/>
				<stop  offset="1" style="stop-color:#2F8166"/>
			</linearGradient>
			<polygon fill="url(#SVGID_4_)" stroke="#12753A" stroke-width="2" stroke-miterlimit="10" points="200.5,149.2 197.3,120.2 
				203.7,134.7 208.6,121.9 208.6,138.3 217.1,131.5 209.3,151 			"/>
			<g>
				<path fill="#FFEEE1" d="M214.4,149.8c0,0,2.5-1.6,5.2-2.6c0.7-0.2,1.4-0.5,2.1-0.6c0.3-0.1,0.7-0.1,1-0.1c0.3-0.1,0.6,0,0.9,0
					c0.3,0,0.5,0.1,0.7,0.1c0.2,0,0.4,0.1,0.6,0.1c0.3,0.1,0.5,0.2,0.5,0.2s-0.2,0-0.5-0.1c-0.1-0.1-0.3-0.1-0.6-0.1
					c-0.2,0-0.5-0.1-0.7,0c-0.3,0-0.6,0-0.9,0.1c-0.3,0.1-0.6,0.1-0.9,0.2c-0.7,0.2-1.3,0.4-2,0.7c-1.3,0.6-2.5,1.3-3.4,1.9
					c-0.9,0.6-1.5,1-1.5,1L214.4,149.8z"/>
			</g>
			<g>
				
					<linearGradient id="SVGID_5_" gradientUnits="userSpaceOnUse" x1="206.7064" y1="260.792" x2="206.7064" y2="226.307" gradientTransform="matrix(1 0 0 -1 0 396)">
					<stop  offset="0" style="stop-color:#F7D7B8"/>
					<stop  offset="0.483" style="stop-color:#F7CFAF"/>
					<stop  offset="1" style="stop-color:#F7C7A6"/>
				</linearGradient>
				<path fill="url(#SVGID_5_)" d="M209.3,162.8c-6-2.7-15.4-5.2-14.9-13.5c0.4-8.3,19.4,0.5,24.7,3.7"/>
				<path fill="#AF7045" d="M209.3,162.8c0,0-0.7-0.3-2-0.7c-1.3-0.4-3.2-1-5.4-2c-1.1-0.5-2.3-1.1-3.4-1.8c-1.1-0.8-2.3-1.7-3.2-3
					c-0.9-1.3-1.5-2.8-1.7-4.4c0-0.4,0-0.8,0-1.2l0-0.3l0-0.1l0,0v0l0-0.1l0-0.1l0.1-0.6c0.2-1,0.7-1.8,1.5-2.4
					c0.8-0.6,1.7-0.8,2.6-0.9c0.9-0.1,1.7-0.1,2.5,0c1.6,0.2,3.2,0.5,4.6,1c2.9,0.9,5.4,2,7.5,3c2.1,1,3.8,2,5,2.8
					c1.2,0.7,1.8,1.2,1.8,1.2s-2.8-1.4-7.2-3.1c-2.2-0.8-4.7-1.8-7.5-2.5c-1.4-0.4-2.9-0.6-4.3-0.8c-1.4-0.1-3,0-3.9,0.7
					c-0.5,0.3-0.7,0.8-0.9,1.4l-0.1,0.6l0,0.1c0,0.1,0-0.1,0,0v0l0,0l0,0.1l0,0.3l0,1c0.2,1.4,0.6,2.6,1.3,3.7
					c0.7,1.1,1.7,2,2.7,2.8c1,0.8,2.1,1.4,3.1,2c1,0.6,2,1,2.8,1.5c0.9,0.4,1.6,0.8,2.2,1.1c0.6,0.3,1.1,0.6,1.4,0.7
					C209.1,162.7,209.3,162.8,209.3,162.8z"/>
			</g>
			<g>
				<path fill="#FFEEE1" d="M195.7,148.1c0,0,0.1-0.3,0.6-0.7c0.5-0.4,1.4-0.7,2.4-0.8c1.1-0.1,2.3,0,3.6,0.2c1.3,0.2,2.6,0.5,4,0.9
					c1.3,0.4,2.6,0.8,3.8,1.3c1.2,0.4,2.3,0.9,3.3,1.3c0.9,0.4,1.7,0.8,2.3,1c0.5,0.3,0.8,0.4,0.8,0.4s-0.3-0.1-0.9-0.3
					c-0.6-0.2-1.4-0.4-2.4-0.7c-1-0.3-2.1-0.7-3.3-1.1c-1.2-0.4-2.5-0.8-3.8-1.2c-1.3-0.4-2.6-0.7-3.9-1c-1.2-0.3-2.4-0.5-3.4-0.5
					c-0.5,0-1,0-1.4,0.1c-0.4,0.1-0.7,0.2-1,0.3c-0.2,0.2-0.4,0.3-0.5,0.4C195.8,148.1,195.7,148.1,195.7,148.1z"/>
			</g>
			<g>
				<path fill="#AF7045" d="M224.2,146.2c0,0-0.2,0-0.5,0c-0.3,0-0.8,0-1.4,0.1c-0.3,0-0.6,0.1-0.9,0.1c-0.3,0-0.6,0.1-1,0.2
					c-0.3,0.1-0.7,0.2-1,0.3c-0.3,0.1-0.7,0.2-1,0.4c-0.3,0.2-0.6,0.3-1,0.5c-0.3,0.1-0.6,0.3-0.9,0.5c-0.3,0.2-0.6,0.3-0.8,0.5
					c-0.2,0.2-0.4,0.4-0.7,0.5c-0.4,0.3-0.7,0.7-0.9,0.9c-0.2,0.2-0.3,0.3-0.3,0.3l-1.3-1.1c0,0,0.2-0.1,0.4-0.3
					c0.3-0.2,0.6-0.6,1.1-0.9c0.3-0.2,0.5-0.3,0.8-0.5c0.3-0.2,0.6-0.3,0.9-0.5c0.3-0.2,0.7-0.3,1-0.4c0.4-0.1,0.7-0.2,1.1-0.4
					c0.4-0.1,0.8-0.2,1.1-0.2c0.4-0.1,0.7-0.1,1.1-0.2c0.4,0,0.7-0.1,1-0.1c0.3,0,0.6,0,0.9,0c0.6,0,1,0.1,1.4,0.1
					C224,146.2,224.2,146.2,224.2,146.2z"/>
			</g>
			<g>
				<g>
					
						<linearGradient id="SVGID_6_" gradientUnits="userSpaceOnUse" x1="235.7205" y1="260.792" x2="235.7205" y2="226.3071" gradientTransform="matrix(1 0 0 -1 0 396)">
						<stop  offset="0" style="stop-color:#F7D7B8"/>
						<stop  offset="0.483" style="stop-color:#F7CFAF"/>
						<stop  offset="1" style="stop-color:#F7C7A6"/>
					</linearGradient>
					<path fill="url(#SVGID_6_)" d="M222.6,162.8l7.9,7.7l-6.3,2.8c0,0,8,16,8.9,16.3c0.9,0.3,17.4-16,15.6-21.5
						c-1.7-5.4-16.5-9-22-9.8"/>
					<path fill="#AF7045" d="M222.6,162.8c0.9,0.5,1.6,1,2.4,1.5c0.8,0.5,1.5,1.1,2.2,1.7c0.7,0.6,1.4,1.2,2,1.8
						c0.7,0.6,1.3,1.3,1.9,2l0.8,1l-1,0.3l0,0l-6.3,2.8l0.4-1.1l0,0l4.1,7.7l2.1,3.8c0.7,1.3,1.4,2.5,2.2,3.7
						c0.1,0.1,0.2,0.3,0.3,0.4c0,0,0.1,0.1,0.1,0.2l0,0c0,0-0.1-0.1-0.1-0.1c0,0-0.1,0-0.1,0l0,0l-0.3-0.1c0,0,0.1,0-0.1,0
						c-0.1,0-0.1,0-0.2,0c0,0-0.1,0-0.1,0c0,0,0,0,0,0c0,0,0,0,0,0c0,0,0.1-0.1,0.2-0.1c0.1-0.1,0.3-0.2,0.4-0.3
						c0.5-0.4,1.1-0.9,1.6-1.4c1.1-1,2.1-2,3.1-3.1c2-2.1,3.9-4.3,5.6-6.6c0.9-1.2,1.7-2.3,2.4-3.5c0.7-1.2,1.4-2.5,1.7-3.7
						c0.1-0.6,0.2-1.2,0-1.6c-0.1-0.4-0.2-0.5-0.4-0.8c-0.2-0.3-0.4-0.5-0.6-0.7c-0.9-1-2.1-1.7-3.4-2.4c-2.5-1.4-5.3-2.4-8.2-3.2
						c-1.4-0.4-2.9-0.8-4.3-1.1c-1.5-0.3-2.9-0.7-4.3-1.6c1.6-0.4,3.1-0.2,4.6,0.1c1.5,0.3,3,0.7,4.4,1.1c2.9,0.8,5.8,1.8,8.6,3.3
						c1.4,0.7,2.7,1.6,3.9,2.7c0.3,0.3,0.6,0.6,0.8,1c0.2,0.3,0.5,0.9,0.6,1.1c0.4,0.9,0.3,1.9,0.1,2.7c-0.4,1.6-1.1,3-1.8,4.3
						c-0.8,1.3-1.6,2.5-2.5,3.7c-1.8,2.4-3.7,4.6-5.8,6.8c-1,1.1-2.1,2.1-3.2,3.2c-0.6,0.5-1.1,1-1.7,1.5c-0.2,0.1-0.3,0.2-0.5,0.4
						c-0.1,0.1-0.2,0.1-0.3,0.2c-0.1,0-0.1,0.1-0.2,0.1l0,0l-0.1,0c-0.1,0-0.2,0-0.3,0.1c-0.2,0-0.2,0-0.2,0c-0.5-0.1-0.2,0-0.3-0.1
						l-0.1,0c-0.1,0-0.1-0.1-0.1-0.1c-0.1,0-0.2-0.2-0.2-0.2l-0.2-0.2c-0.1-0.1-0.1-0.2-0.2-0.3c-0.1-0.2-0.2-0.3-0.3-0.5
						c-0.8-1.3-1.5-2.6-2.2-3.9l-2-3.9c-1.3-2.6-2.6-5.2-3.9-7.8l0,0l-0.4-0.7l0.8-0.4l6.3-2.8l0,0l-0.2,1.3
						c-0.7-0.6-1.4-1.2-2.1-1.8c-0.7-0.6-1.3-1.3-1.9-2c-0.6-0.7-1.2-1.4-1.8-2.1C223.6,164.3,223,163.6,222.6,162.8z"/>
				</g>
				<path fill="#D89060" d="M245.1,175c-3.3-3-8.2-5-13.5-5l0.9-0.5c-0.4,0.2-0.8,0.4-1.3,0.6l0.7,0.8l-1,0.3l0,0l-5.5,2.5l3.7,7
					l2.1,3.8c0.7,1.3,1.4,2.5,2.2,3.7c0,0,0,0,0,0.1c0,0,0,0,0,0c0.5-0.4,1.1-0.9,1.6-1.4c1.1-1,2.1-2,3.1-3.1
					c2-2.1,3.9-4.3,5.6-6.6C244.2,176.4,244.7,175.7,245.1,175z"/>
				<g>
					<line fill="none" x1="229.9" y1="170.7" x2="240.5" y2="167"/>
					<polygon fill="#AF7045" points="229.6,169.9 240.5,167 230.2,171.4 					"/>
				</g>
			</g>
		</g>
		<g>
			<g>
				
					<linearGradient id="SVGID_7_" gradientUnits="userSpaceOnUse" x1="66.1097" y1="237.3365" x2="95.5959" y2="237.3365" gradientTransform="matrix(1 0 0 -1 0 396)">
					<stop  offset="0" style="stop-color:#F7D7B8"/>
					<stop  offset="0.483" style="stop-color:#F7CFAF"/>
					<stop  offset="1" style="stop-color:#F7C7A6"/>
				</linearGradient>
				<path fill="url(#SVGID_7_)" stroke="#AF7045" stroke-width="2" stroke-miterlimit="10" d="M66.1,161.4l18.5,20.2l11-3.3
					c0,0-12.8-33.1-15.6-41.3C77.3,128.8,66.1,161.4,66.1,161.4z"/>
				<path fill="#D89060" d="M79.2,137.3c-0.1-0.2-0.1-0.3-0.2-0.4c-0.4,0.1-0.8,0.1-1.1,0.2c-2.3,2.5-6.8,12.5-10.9,24.1l5,5.5
					c4.9-2.6,10.1-7.4,13.4-12.4C82.8,147.2,80.3,140.4,79.2,137.3z"/>
				
					<linearGradient id="SVGID_8_" gradientUnits="userSpaceOnUse" x1="1.9322" y1="258.9618" x2="81.9407" y2="258.9618" gradientTransform="matrix(1 0 0 -1 0 396)">
					<stop  offset="0" style="stop-color:#F7D7B8"/>
					<stop  offset="0.483" style="stop-color:#F7CFAF"/>
					<stop  offset="1" style="stop-color:#F7C7A6"/>
				</linearGradient>
				<path fill="url(#SVGID_8_)" stroke="#AF7045" stroke-width="2" stroke-miterlimit="10" d="M70.9,157.7c0,0-6.7,21-41.2,3.7
					C7.9,146.8,2.9,140.3,2.9,140.3s-2.1-6.3,0-7.8c2.1-1.5,6.8-1.9,12.4,1.7c5.5,3.7,0.6-2.8,0.6-2.8s-9.8-10.6-4.7-15.8
					s16.9,7.5,16.9,7.5l2.8-3.3c0,0-6.7-10.2-1.2-13.3s23.5,6.7,41.2,20.1c17.7,13.4,9.4,23,6.6,26
					C74.1,157.4,70.9,157.7,70.9,157.7z"/>
				<path opacity="0.3" fill="#FFEEE1" enable-background="new    " d="M75.5,139.1c2.6,1.6,2.9,5.5,0.6,8.8
					c-2.2,3.3-6.1,4.7-8.7,3.1s-2.9-5.5-0.6-8.8C69.1,138.9,73,137.5,75.5,139.1z"/>
				<path fill="#D89060" d="M30.2,107.1c-0.9,0.5-1.4,1.2-1.6,2.1c-1,3.8,3,10,3.1,10l0.3,0.5l-3.9,4.5l-0.7-0.7
					c-0.1-0.1-7.9-8.4-13.1-8.4c-1,0-1.8,0.3-2.5,1c-4.5,4.6,4.6,14.6,4.7,14.7c2.7,3.6,2.2,4.4,2.1,4.7c-0.2,0.4-0.6,0.6-1.1,0.6
					c-0.4,0-1.1-0.2-2.8-1.3c-3.4-2.2-6.1-2.7-7.8-2.7c-1.4,0-2.7,0.3-3.6,1c-1.1,0.8-0.5,4.5,0.3,6.8c0.7,0.9,6.6,7.5,26.5,20.8
					c4.3,2.2,8.4,3.8,12.2,4.9c0.1-0.1,0.3-0.2,0.4-0.3l-0.2,0.4c0.3,0.1,0.6,0.2,0.9,0.3c17.6-13.9,26.8-28.8,16.5-46.3
					c-12.1-8.1-22.4-13-27.6-13C31.5,106.6,30.7,106.8,30.2,107.1z"/>
				<g>
					<path fill="#AF7045" d="M56.1,139.6c0,0,0.5-0.7,1.2-1.6c0.4-0.5,0.8-1.1,1.3-1.7c0.5-0.6,1-1.2,1.5-1.9
						c0.5-0.6,1.1-1.2,1.6-1.8c0.3-0.3,0.5-0.6,0.7-0.8c0.2-0.3,0.5-0.5,0.7-0.7c0.9-0.9,1.4-1.5,1.4-1.5s-0.5,0.6-1.3,1.5
						c-0.2,0.2-0.4,0.5-0.6,0.7c-0.2,0.3-0.4,0.6-0.7,0.9c-0.5,0.6-1,1.2-1.5,1.9c-0.5,0.7-0.9,1.3-1.4,1.9
						c-0.4,0.6-0.8,1.2-1.1,1.7c-0.7,1-1.1,1.7-1.1,1.7L56.1,139.6z"/>
				</g>
				<g>
					<path fill="#AF7045" d="M55.6,137.2c0,0,0.3-0.6,0.7-1.5c0.1-0.2,0.2-0.5,0.4-0.7c0.1-0.3,0.3-0.5,0.5-0.8
						c0.3-0.5,0.7-1.1,1-1.7c0.4-0.5,0.8-1.1,1.2-1.6c0.2-0.2,0.4-0.5,0.5-0.7c0.2-0.2,0.4-0.4,0.5-0.6c0.7-0.7,1.1-1.2,1.1-1.2
						s-0.4,0.5-1,1.3c-0.2,0.2-0.3,0.4-0.5,0.6c-0.2,0.2-0.3,0.5-0.5,0.8c-0.3,0.5-0.7,1.1-1,1.6c-0.3,0.6-0.6,1.2-0.9,1.7
						c-0.1,0.3-0.3,0.5-0.4,0.8c-0.1,0.3-0.2,0.5-0.3,0.7c-0.4,0.9-0.6,1.5-0.6,1.5L55.6,137.2z"/>
				</g>
			</g>
			<g>
				<g>
					
						<linearGradient id="SVGID_9_" gradientUnits="userSpaceOnUse" x1="29.7448" y1="223.7185" x2="62.4434" y2="223.7185" gradientTransform="matrix(1 0 0 -1 0 396)">
						<stop  offset="5.000000e-03" style="stop-color:#2FAC66"/>
						<stop  offset="1" style="stop-color:#2F8166"/>
					</linearGradient>
					<path fill="url(#SVGID_9_)" stroke="#12753A" stroke-width="2" stroke-miterlimit="10" d="M38.2,162.7c0,0,16.5,4.9,24.3,3.7
						c-2.6,2.4-8.3,3.3-8.3,3.3s3.4,4,5.2,5.1c1.8,1.1,1.8,1.1,1.8,1.1l-12.9-0.4c0,0,5.4,6.2,6.5,7c-4.5,0.7-21.1-7.9-24.3-15.6
						C27.1,159.3,38.2,162.7,38.2,162.7z"/>
					<path opacity="0.5" fill="#12753A" enable-background="new    " d="M37.9,163.5c0,0-2.4-0.7-4.4-0.7c-0.9,0-2.1,0.1-2.6,0.8
						c-0.4,0.6-0.3,1.7,0.3,3.1c1.3,3.2,5.2,6.6,9.4,9.4c2.8-3.2,5.5-7,6.6-10.2C42.2,164.7,38.2,163.6,37.9,163.5z"/>
					<g opacity="0.4">
						<path fill="#3AD87A" d="M45.1,172.1c0,0,0.6-0.1,1.4,0c0.8,0,1.9,0.1,2.9,0.3c1.1,0.2,2.1,0.4,2.9,0.6
							c0.8,0.2,1.3,0.4,1.3,0.4s-0.6,0.1-1.4,0c-0.8,0-1.9-0.1-2.9-0.3c-1.1-0.2-2.1-0.4-2.9-0.6C45.6,172.3,45.1,172.1,45.1,172.1z
							"/>
					</g>
				</g>
				<g>
					
						<linearGradient id="SVGID_10_" gradientUnits="userSpaceOnUse" x1="22.9236" y1="235.8717" x2="44.0698" y2="235.8717" gradientTransform="matrix(1 0 0 -1 0 396)">
						<stop  offset="5.000000e-03" style="stop-color:#2FAC66"/>
						<stop  offset="1" style="stop-color:#2F8166"/>
					</linearGradient>
					<path fill="url(#SVGID_10_)" stroke="#12753A" stroke-width="2" stroke-miterlimit="10" d="M44,157.8c1,3.1-5.3,18.4-14.6,15.1
						c-9.3-3.3-7.7-23.2,0.2-25.7C37.4,144.7,44,157.8,44,157.8z"/>
					<path opacity="0.5" fill="#12753A" enable-background="new    " d="M43.2,158.1c-0.2-0.4-1.8-3.4-4.2-6
						c-5.1-0.2-10.9,1-14.4,2.8c-0.5,1.6-0.7,3.5-0.8,5.4c0,2.4,0.3,5,1.3,7.2c4.8-0.3,11-0.9,16.1-2.3
						C42.8,162.1,43.4,159.1,43.2,158.1z"/>
				</g>
				<g>
					
						<linearGradient id="SVGID_11_" gradientUnits="userSpaceOnUse" x1="42.3528" y1="280.5375" x2="86.0889" y2="280.5375" gradientTransform="matrix(1 0 0 -1 0 396)">
						<stop  offset="5.000000e-03" style="stop-color:#2FAC66"/>
						<stop  offset="1" style="stop-color:#2F8166"/>
					</linearGradient>
					<path fill="url(#SVGID_11_)" stroke="#12753A" stroke-width="2" stroke-miterlimit="10" d="M58.5,112c0,0,13.7-8.1,17.7-9.1
						c-2.1,2.9-5.3,9.1-5.3,9.1s11.7-2.6,15.1-2.4c-2.6,1.8-11.9,7.5-11.9,7.5s10.2,4,10.2,4.8s-16.6-1.5-31.4,4.7
						c-14.9,6.2-9.7-9.4-9.7-9.4L58.5,112z"/>
					<path opacity="0.5" fill="#12753A" enable-background="new    " d="M65.1,109.2c-3.3,1.9-6,3.5-6.1,3.5l-0.2,0.1l-14.9,4.9
						c-0.6,1.9-1.3,6.2,0.2,8.2c1.3,1.7,4.2,1.6,8.5-0.1c3.6-1.5,7.3-2.5,10.9-3.2C64.8,118.5,65.7,113.4,65.1,109.2z"/>
					<g opacity="0.4">
						<path fill="#3AD87A" d="M66.1,116.6c0,0,0.7-0.4,1.8-0.8c1.1-0.5,2.6-1,4-1.5c1.5-0.5,3-0.9,4.2-1.2c1.2-0.3,1.9-0.4,1.9-0.4
							s-0.7,0.4-1.8,0.8c-1.1,0.5-2.6,1-4.1,1.5c-1.5,0.5-3,0.9-4.2,1.2C66.9,116.5,66.1,116.6,66.1,116.6z"/>
					</g>
				</g>
				<g>
					
						<linearGradient id="SVGID_12_" gradientUnits="userSpaceOnUse" x1="35.4155" y1="276.3474" x2="59.566" y2="276.3474" gradientTransform="matrix(1 0 0 -1 0 396)">
						<stop  offset="5.000000e-03" style="stop-color:#2FAC66"/>
						<stop  offset="1" style="stop-color:#2F8166"/>
					</linearGradient>
					<path fill="url(#SVGID_12_)" stroke="#12753A" stroke-width="2" stroke-miterlimit="10" d="M37.4,112.9
						c1.7-2.9,17.7-8.8,21.5,0s-12.6,21.2-19.8,17.3C31.9,126.4,37.4,112.9,37.4,112.9z"/>
					<path opacity="0.5" fill="#12753A" enable-background="new    " d="M54.8,117.3c-3-3.4-6.4-5.7-10.3-7.3
						c-3.1,0.9-5.7,2.3-6.3,3.2c-0.4,1-4.9,12.9,1.4,16.3c0.8,0.4,1.7,0.6,2.8,0.6c4.5,0,10.9-3.9,14.2-8.6c0.2-0.3,0.4-0.7,0.6-1
						C56.6,119.5,55.8,118.5,54.8,117.3z"/>
				</g>
				
					<linearGradient id="SVGID_13_" gradientUnits="userSpaceOnUse" x1="38.9371" y1="256.4835" x2="59.3187" y2="256.4835" gradientTransform="matrix(1 0 0 -1 0 396)">
					<stop  offset="5.000000e-03" style="stop-color:#2FAC66"/>
					<stop  offset="1" style="stop-color:#2F8166"/>
				</linearGradient>
				<path fill="url(#SVGID_13_)" stroke="#12753A" stroke-width="2" stroke-miterlimit="10" d="M49.5,124.8c3,3.2,12.8,7.4,9,19.6
					c-3.7,11.8-19.5,9.8-19.5,9.8L49.5,124.8z"/>
				
					<linearGradient id="SVGID_14_" gradientUnits="userSpaceOnUse" x1="6.9568" y1="259.0991" x2="54.841" y2="259.0991" gradientTransform="matrix(1 0 0 -1 0 396)">
					<stop  offset="5.000000e-03" style="stop-color:#2FAC66"/>
					<stop  offset="1" style="stop-color:#2F8166"/>
				</linearGradient>
				<path fill="url(#SVGID_14_)" stroke="#12753A" stroke-width="2" stroke-miterlimit="10" d="M53.2,143.9
					c-4.8,14-18.7,22.2-31,18.3c-12.3-3.9-18.4-18.4-13.6-32.3c4.8-14,18.7-22.2,31-18.3S58,129.9,53.2,143.9z"/>
				
					<linearGradient id="SVGID_15_" gradientUnits="userSpaceOnUse" x1="-10.0287" y1="276.2325" x2="47.037" y2="252.5818" gradientTransform="matrix(1 0 0 -1 0 396)">
					<stop  offset="0" style="stop-color:#3AD87A"/>
					<stop  offset="1" style="stop-color:#3AD87A;stop-opacity:0.1"/>
				</linearGradient>
				<path fill="url(#SVGID_15_)" d="M9.6,136.3c0-12.5,12-22.5,25.8-22.3c5.3,0.3,6.1,3.1,6.1,3.1s-6,2.9-0.9,15.3
					c2.9,5.1,9,2.3,9,2.3s2.2,5.8-0.5,12.1c-2.4-3.7-7.2-6.9-15.6,0.5c-6,5.3-1.7,12.3-1.7,12.3S8.7,162,9.6,136.3z"/>
				
					<linearGradient id="SVGID_16_" gradientUnits="userSpaceOnUse" x1="3.2516" y1="271.7283" x2="32.394" y2="259.4355" gradientTransform="matrix(1 0 0 -1 0 396)">
					<stop  offset="0" style="stop-color:#FFFFFF"/>
					<stop  offset="1" style="stop-color:#FFFFFF;stop-opacity:0.1"/>
				</linearGradient>
				<path opacity="0.6" fill="url(#SVGID_16_)" enable-background="new    " d="M13.2,134.5c1.7-7.4,8.6-18,19.4-17.9
					c4.1,0.2,6.3,0.5,6.3,0.5s-6.2,6.6-2.2,16.3c2.3,3.9,11.9,3,11.9,3s0.7,2.8,0,7.7c-1.9-2.9-10.8-4.8-17.4,1.1
					c-4.7,4.1-2.4,11.1-2.4,11.1s-16.4,0-15.6-21V134.5z"/>
				<ellipse fill="#FFF9D7" stroke="#C6B159" stroke-miterlimit="10" cx="41.5" cy="154.5" rx="8" ry="7.7"/>
				<ellipse fill="#FFF9D7" stroke="#C6B159" stroke-miterlimit="10" cx="48.6" cy="124.8" rx="8" ry="7.7"/>
				<ellipse fill="#1D1D1B" cx="47.7" cy="157.7" rx="1.6" ry="1.5"/>
				<ellipse fill="#1D1D1B" cx="54.1" cy="128" rx="1.6" ry="1.5"/>
			</g>
			<g>
				<path fill="#AF7045" d="M71.6,158.3c0,0-0.2,0-0.5,0c-0.2,0-0.3,0-0.5,0c-0.2,0-0.4,0-0.7,0c-0.3,0-0.6,0-0.9,0
					c-0.3,0-0.6-0.1-1-0.1c-0.3-0.1-0.7-0.1-1-0.2c-0.3-0.1-0.7-0.2-1-0.3c-0.3-0.2-0.7-0.3-1-0.5c-0.3-0.1-0.6-0.4-0.9-0.6
					c-0.3-0.2-0.5-0.4-0.7-0.6c-0.2-0.2-0.4-0.4-0.6-0.6c-0.2-0.2-0.3-0.4-0.4-0.5c-0.1-0.2-0.2-0.3-0.3-0.4
					c-0.2-0.2-0.3-0.4-0.3-0.4s0.1,0.1,0.3,0.3c0.1,0.1,0.2,0.2,0.4,0.4c0.2,0.1,0.3,0.3,0.5,0.5c0.2,0.2,0.4,0.3,0.7,0.5
					c0.2,0.2,0.5,0.3,0.8,0.5c0.3,0.1,0.5,0.3,0.9,0.4c0.3,0.1,0.6,0.2,0.9,0.3c0.3,0,0.6,0.1,1,0.1c0.3,0.1,0.6,0,0.9,0
					c0.3,0,0.6,0,0.9,0c0.3,0,0.5-0.1,0.8-0.1c0.2,0,0.5-0.1,0.7-0.1c0.2,0,0.4-0.1,0.5-0.1c0.3-0.1,0.5-0.1,0.5-0.1L71.6,158.3z"/>
			</g>
		</g>
		<g>
			
				<linearGradient id="SVGID_17_" gradientUnits="userSpaceOnUse" x1="49.5791" y1="197.0034" x2="236.1711" y2="197.0034" gradientTransform="matrix(1 0 0 -1 0 396)">
				<stop  offset="0" style="stop-color:#67D3F9"/>
				<stop  offset="1" style="stop-color:#51A6F9"/>
			</linearGradient>
			<path fill="url(#SVGID_17_)" stroke="#3077B7" stroke-width="2" stroke-miterlimit="10" d="M49.6,206c0-7.2,2.7-22.6,37.7-30.2
				c35-7.5,111.6-3.3,111.6-3.3s33.1-11.4,36.9,11.6s-18.1,31.4-36.1,34.7c-17.9,3.3-128.2,10-129.1,9.4S49.6,231.1,49.6,206z"/>
			<path opacity="0.5" fill="#3077B7" enable-background="new    " d="M229.7,204.4c-2-7.3-7.7-15.2-10.1-24.5
				c-1.3-4.8-1.2-7.4-2.8-9.3c-0.4,0-0.7,0-1.1,0c-8.5,0-16.5,2.8-16.6,2.8l-0.2,0.1l-0.2,0c-0.2,0-21.9-1.2-47.1-1.2
				c-28.9,0-50.5,1.5-64.2,4.5c-11.6,2.5-20.5,6-26.7,10.6c-5.2,12.2-6.4,24.5-3.2,36.9c4.3,3.1,9.4,3.2,11.8,3.3
				c0.8,0,1.2,0,1.5,0.1c0.1,0,0.2,0,0.4,0c9.7,0,111.6-6.4,128.2-9.4C213.9,215.4,224,210.8,229.7,204.4z"/>
		</g>
		
			<linearGradient id="SVGID_18_" gradientUnits="userSpaceOnUse" x1="122.4391" y1="245.6945" x2="139.0806" y2="245.6945" gradientTransform="matrix(1 0 0 -1 0 396)">
			<stop  offset="0" style="stop-color:#F7D7B8"/>
			<stop  offset="0.483" style="stop-color:#F7CFAF"/>
			<stop  offset="1" style="stop-color:#F7C7A6"/>
		</linearGradient>
		
			<ellipse fill="url(#SVGID_18_)" stroke="#AF7045" stroke-width="2" stroke-miterlimit="10" cx="130.8" cy="150.3" rx="8.3" ry="8"/>
		
			<linearGradient id="SVGID_19_" gradientUnits="userSpaceOnUse" x1="61.8304" y1="189.0253" x2="214.8578" y2="189.0253" gradientTransform="matrix(1 0 0 -1 0 396)">
			<stop  offset="0" style="stop-color:#F7D7B8"/>
			<stop  offset="0.483" style="stop-color:#F7CFAF"/>
			<stop  offset="1" style="stop-color:#F7C7A6"/>
		</linearGradient>
		<path fill="url(#SVGID_19_)" stroke="#AF7045" stroke-width="2" stroke-miterlimit="10" d="M214.3,196c4.9,31.3-25.1,61.6-67,67.7
			c-42,6.1-80-14.4-84.9-45.7c-4.9-31.3,25.1-61.6,67-67.7C171.4,144.2,209.4,164.7,214.3,196z"/>
		<g>
			
				<linearGradient id="SVGID_20_" gradientUnits="userSpaceOnUse" x1="102.9749" y1="105.3103" x2="101.3416" y2="131.1707" gradientTransform="matrix(1 0 0 -1 0 396)">
				<stop  offset="0" style="stop-color:#E8871C"/>
				<stop  offset="1" style="stop-color:#E8651C"/>
			</linearGradient>
			<path fill="url(#SVGID_20_)" stroke="#C13F0C" stroke-width="2" stroke-miterlimit="10" d="M96.5,270.6c0,0-10.1,3.4-8.7,17
				c0,0,3-3.7,3.1-4.1s-0.6,8.3,4.8,10.2c0.3-3.1,0.7-4.5,0.7-4.5s3.3,8.3,13.4,3.5c10.1-4.8,7.5-14.7,6-16.7
				C114.3,274,107.6,269.1,96.5,270.6z"/>
			<path opacity="0.5" fill="#C13F0C" enable-background="new    " d="M101.6,285.2c6.4,0,11.5-4.1,11.5-9.1c0-0.5-0.1-1-0.2-1.4
				c-2.4-1.6-6.6-3.5-12.4-3.5c-1.3,0-2.6,0.1-3.9,0.3c-0.6,0.2-4.3,1.7-6.5,6C91.1,281.8,95.9,285.2,101.6,285.2z"/>
			<ellipse fill="#36A9E1" stroke="#197EA5" stroke-miterlimit="10" cx="100.7" cy="277.4" rx="5.1" ry="4.9"/>
			
				<linearGradient id="SVGID_21_" gradientUnits="userSpaceOnUse" x1="100.5631" y1="105.1485" x2="98.9286" y2="131.0296" gradientTransform="matrix(1 0 0 -1 0 396)">
				<stop  offset="0" style="stop-color:#E8871C"/>
				<stop  offset="1" style="stop-color:#E8651C"/>
			</linearGradient>
			<path fill="url(#SVGID_21_)" stroke="#C13F0C" stroke-width="2" stroke-miterlimit="10" d="M82,244.5c0,0-2.6,9.8,4.3,18.5
				c-1.7,4.1,5.1,11.4,8,12c0.9,2.7,6.4,3.8,9.6,1.4c3.2-2.4,0-7.6,0-7.6l2.6-4c0,0,4.3-1.2,8-8C118.2,249.9,82,244.5,82,244.5z"/>
			<path opacity="0.5" fill="#C13F0C" enable-background="new    " d="M82.7,245.4c-0.3,2-0.9,7.9,2.2,13.9c5.9,3.5,13,6.5,19.4,7.1
				l1.6-2.4l0.3-0.1c0,0,4-1.2,7.4-7.6c0.2-0.4,0.2-0.8,0-1.2C111.4,250.8,91.3,246.8,82.7,245.4z"/>
			<g>
				<path fill="#C13F0C" d="M86.8,262.3c0,0,0.1,0.1,0.2,0.2c0.1,0.1,0.3,0.3,0.4,0.5c0.1,0.1,0.2,0.2,0.3,0.3
					c0.1,0.1,0.2,0.2,0.4,0.3c0.3,0.2,0.6,0.4,0.9,0.6c0.3,0.2,0.6,0.4,1,0.5c0.3,0.1,0.6,0.3,0.9,0.3c0.3,0.1,0.5,0.1,0.7,0.2
					c0.2,0,0.3,0.1,0.3,0.1s-0.1,0-0.3,0c-0.2,0-0.4,0-0.7,0c-0.3,0-0.6,0-1-0.1c-0.4,0-0.7-0.1-1.1-0.2c-0.4-0.1-0.8-0.2-1.1-0.4
					c-0.2-0.1-0.3-0.1-0.5-0.2c-0.2-0.1-0.3-0.2-0.5-0.2c-0.3-0.2-0.5-0.3-0.6-0.4c-0.1-0.1-0.2-0.1-0.2-0.1L86.8,262.3z"/>
			</g>
			<g>
				<path fill="#C13F0C" d="M107,265.4c0,0-0.5,0.1-1.2,0.1c-0.2,0-0.4,0.1-0.6,0.1c-0.2,0-0.5,0-0.7,0c-0.5,0-1,0-1.5,0.1
					c-1,0-2,0-2.7,0c-0.7,0-1.2,0-1.2,0s0.5-0.1,1.2-0.2c0.7-0.1,1.7-0.4,2.6-0.6c0.5-0.1,0.9-0.2,1.4-0.3c0.2-0.1,0.4-0.1,0.6-0.2
					c0.2,0,0.4-0.1,0.6-0.2c0.7-0.2,1.2-0.4,1.2-0.4L107,265.4z"/>
			</g>
			<g>
				<path fill="#C13F0C" d="M105,268.8c0,0-0.2,0.1-0.6,0.3c-0.1,0.1-0.2,0.1-0.3,0.2c-0.1,0.1-0.2,0.1-0.4,0.2
					c-0.3,0.1-0.5,0.2-0.8,0.3c-0.3,0.1-0.6,0.1-0.8,0.2c-0.1,0-0.2,0.1-0.4,0.1c-0.1,0-0.2,0-0.3,0c-0.4,0-0.7,0-0.7,0
					s0.2-0.1,0.6-0.3c0.1,0,0.2-0.1,0.3-0.1c0.1,0,0.2-0.1,0.3-0.2c0.2-0.1,0.4-0.3,0.6-0.4c0.2-0.2,0.3-0.3,0.5-0.5
					c0.1-0.1,0.1-0.1,0.2-0.2c0.1-0.1,0.1-0.2,0.2-0.3c0.2-0.3,0.4-0.5,0.4-0.5L105,268.8z"/>
			</g>
			<g>
				<path fill="#FFA05F" d="M87.2,264.6c0,0,0.1,0.1,0.4,0.2c0.1,0,0.3,0.1,0.4,0.1c0.2,0,0.4,0.1,0.6,0.2c0.2,0,0.5,0.1,0.7,0.1
					c0.2,0.1,0.5,0.1,0.8,0.1c0.5,0.1,1.1,0.1,1.7,0.2c0.6,0.1,1.2,0.1,1.7,0.1c0.3,0,0.5,0,0.8,0.1c0.3,0,0.5,0,0.7,0
					c0.9,0,1.5,0.1,1.5,0.1s-0.6,0.2-1.5,0.3c-0.5,0.1-1,0.2-1.6,0.2c-0.6,0-1.2,0.1-1.8,0c-0.3,0-0.6-0.1-0.9-0.1
					c-0.3,0-0.6-0.1-0.9-0.2c-0.6-0.1-1.1-0.3-1.5-0.5c-0.2-0.1-0.4-0.2-0.6-0.3c-0.2-0.1-0.3-0.2-0.4-0.3
					C87.2,264.7,87.2,264.6,87.2,264.6z"/>
			</g>
			<g>
				<path fill="#FFA05F" d="M103.4,269.7c0,0-0.4,0.4-1.2,0.8c-0.4,0.2-0.9,0.4-1.4,0.5c-0.5,0.1-1.1,0.2-1.7,0.3
					c-0.3,0-0.6,0-0.9,0c-0.3,0-0.6-0.1-0.9-0.1c-0.3,0-0.5-0.1-0.8-0.2c-0.2-0.1-0.5-0.1-0.7-0.2c-0.4-0.1-0.7-0.3-0.9-0.5
					c-0.2-0.1-0.3-0.2-0.3-0.2s0.1,0,0.4,0.1c0.1,0,0.3,0,0.4,0.1c0.2,0,0.4,0,0.6,0.1c0.4,0.1,0.9,0.1,1.4,0.1c0.5,0,1.1,0,1.6,0
					c0.5,0,1.1-0.1,1.6-0.1c0.5-0.1,1-0.2,1.4-0.3C102.8,269.8,103.4,269.7,103.4,269.7z"/>
			</g>
			<g>
				<path fill="#FFA05F" d="M100.7,292.2c0,0,0.4,0.2,1.1,0.3c0.7,0.1,1.7,0.2,2.9,0.1c1.2-0.1,2.6-0.4,4-1c1.4-0.5,2.8-1.3,3.9-2.4
					c0.6-0.5,1.1-1.1,1.5-1.7c0.4-0.6,0.7-1.3,0.9-2c0.4-1.4,0.6-2.7,0.6-3.9c0-1.2,0-2.2,0-2.8c0-0.7,0-1.1,0-1.1
					c0,0,0,0.4,0.1,1.1c0.1,0.7,0.3,1.7,0.3,2.9c0,1.2,0,2.6-0.4,4.1c-0.2,0.7-0.5,1.5-0.9,2.2c-0.4,0.7-1,1.4-1.6,1.9
					c-1.3,1.1-2.8,1.9-4.3,2.4c-1.5,0.5-3,0.7-4.2,0.8c-1.3,0-2.3-0.2-3-0.4c-0.3-0.1-0.6-0.2-0.8-0.3
					C100.8,292.2,100.7,292.2,100.7,292.2z"/>
			</g>
		</g>
		<g>
			
				<linearGradient id="SVGID_22_" gradientUnits="userSpaceOnUse" x1="280.2086" y1="128.8232" x2="278.5741" y2="154.7039" gradientTransform="matrix(-0.9438 0.3304 -0.3304 -0.9438 499.9224 310.3916)">
				<stop  offset="0" style="stop-color:#E8871C"/>
				<stop  offset="1" style="stop-color:#E8651C"/>
			</linearGradient>
			<path fill="url(#SVGID_22_)" stroke="#C13F0C" stroke-width="2" stroke-miterlimit="10" d="M192.2,260.4c0,0,10.7,0,14.1,13.3
				c0,0-4.1-2.5-4.4-2.9s3.4,7.7-1,11.2c-1.3-2.9-2.2-4-2.2-4s-0.2,8.9-11.4,7.6c-11.2-1.3-12.2-11.5-11.4-13.9
				C176.5,269.2,181.2,262.5,192.2,260.4z"/>
			<path opacity="0.5" fill="#C13F0C" enable-background="new    " d="M192.4,275.7c-6,2-12.3-0.2-14-5c-0.2-0.5-0.3-0.9-0.3-1.4
				c1.7-2.3,5-5.3,10.5-7.2c1.2-0.4,2.4-0.7,3.7-1c0.6,0,4.6,0.3,8.2,3.6C201.1,269.2,197.8,273.9,192.4,275.7z"/>
			<ellipse fill="#36A9E1" stroke="#197EA5" stroke-miterlimit="10" cx="190.6" cy="268.1" rx="5.1" ry="4.9"/>
			
				<linearGradient id="SVGID_23_" gradientUnits="userSpaceOnUse" x1="278.257" y1="128.7346" x2="276.6278" y2="154.5304" gradientTransform="matrix(-0.9438 0.3304 -0.3304 -0.9438 499.9224 310.3916)">
				<stop  offset="0" style="stop-color:#E8871C"/>
				<stop  offset="1" style="stop-color:#E8651C"/>
			</linearGradient>
			<path fill="url(#SVGID_23_)" stroke="#C13F0C" stroke-width="2" stroke-miterlimit="10" d="M196.8,231.2c0,0,5.8,8.4,2.4,18.8
				c3,3.3-0.9,12.4-3.4,13.8c0.1,2.8-4.7,5.6-8.6,4.3c-3.9-1.3-2.6-7.2-2.6-7.2l-3.9-2.9c0,0-4.4,0.2-10.3-5
				C164.6,247.7,196.8,231.2,196.8,231.2z"/>
			<path opacity="0.5" fill="#C13F0C" enable-background="new    " d="M196.5,232.3c1,1.8,3.6,7.2,2.7,13.8
				c-4.4,5.1-10,10.3-15.9,12.8l-2.3-1.8l-0.3,0c0,0-4.2,0.1-9.6-4.8c-0.4-0.3-0.5-0.7-0.4-1.2C171.2,246.4,188.8,236.3,196.5,232.3
				z"/>
			<g>
				<path fill="#C13F0C" d="M200,250.3c0,0-0.1,0.1-0.2,0.2c-0.1,0.1-0.2,0.3-0.5,0.5c-0.1,0.1-0.2,0.2-0.4,0.4
					c-0.1,0.1-0.3,0.2-0.4,0.4c-0.3,0.2-0.6,0.5-0.9,0.7c-0.3,0.2-0.7,0.4-1,0.6c-0.3,0.2-0.6,0.3-0.9,0.4c-0.3,0.1-0.5,0.2-0.7,0.2
					c-0.2,0.1-0.3,0.1-0.3,0.1s0.1-0.1,0.2-0.1c0.1-0.1,0.3-0.2,0.6-0.4c0.2-0.2,0.5-0.4,0.7-0.6c0.3-0.2,0.5-0.5,0.7-0.8
					c0.2-0.3,0.5-0.5,0.6-0.8c0.1-0.1,0.2-0.3,0.3-0.4c0.1-0.1,0.1-0.2,0.2-0.3c0.1-0.2,0.2-0.4,0.3-0.6c0.1-0.1,0.1-0.2,0.1-0.2
					L200,250.3z"/>
			</g>
			<g>
				<path fill="#C13F0C" d="M180.3,257.2c0,0,0.5,0,1.2,0c0.2,0,0.4,0,0.6,0c0.2,0,0.4,0,0.6,0c0.4,0,0.9-0.1,1.4-0.1
					c1-0.1,1.9-0.2,2.7-0.3c0.7-0.1,1.2-0.2,1.2-0.2s-0.5,0.2-1.2,0.4c-0.7,0.3-1.6,0.5-2.6,0.9c-0.5,0.1-1,0.3-1.4,0.4
					c-0.2,0.1-0.5,0.1-0.7,0.2c-0.2,0.1-0.4,0.1-0.6,0.1c-0.7,0.2-1.2,0.3-1.2,0.3L180.3,257.2z"/>
			</g>
			<g>
				<path fill="#C13F0C" d="M184.2,259.8c0,0,0.2,0.1,0.6,0.4c0.1,0.1,0.2,0.1,0.3,0.2c0.1,0.1,0.2,0.1,0.3,0.1
					c0.2,0.1,0.4,0.2,0.6,0.3c0.2,0.1,0.5,0.1,0.7,0.2c0.1,0,0.2,0.1,0.3,0.1c0.1,0,0.2,0,0.3,0c0.4,0,0.7,0.1,0.7,0.1
					s-0.3,0.1-0.7,0.2c-0.1,0-0.2,0.1-0.3,0.1c-0.1,0-0.2,0-0.4,0.1c-0.3,0-0.6,0.1-0.8,0.1c-0.3,0-0.6,0-0.9-0.1
					c-0.1,0-0.3,0-0.4,0c-0.1,0-0.2,0-0.3-0.1c-0.4-0.1-0.7-0.1-0.7-0.1L184.2,259.8z"/>
			</g>
			<g>
				<path fill="#FFA05F" d="M198.9,251.7c0,0,0,0.1-0.2,0.4c-0.1,0.1-0.2,0.3-0.3,0.4c-0.1,0.1-0.3,0.3-0.4,0.5
					c-0.3,0.3-0.7,0.7-1.2,0.9c-0.2,0.1-0.5,0.3-0.8,0.4c-0.3,0.1-0.6,0.3-0.8,0.4c-0.6,0.3-1.1,0.4-1.7,0.6
					c-0.5,0.2-1.1,0.3-1.5,0.3c-0.9,0.1-1.5,0.2-1.5,0.2s0.6-0.3,1.4-0.6c0.2-0.1,0.4-0.2,0.7-0.2c0.2-0.1,0.5-0.2,0.7-0.3
					c0.5-0.2,1.1-0.4,1.6-0.6c0.5-0.2,1.1-0.4,1.6-0.7c0.2-0.1,0.5-0.2,0.7-0.4c0.2-0.1,0.4-0.2,0.6-0.3c0.2-0.1,0.3-0.2,0.5-0.3
					c0.2-0.1,0.3-0.2,0.4-0.3C198.8,251.8,198.9,251.7,198.9,251.7z"/>
			</g>
			<g>
				<path fill="#FFA05F" d="M185.4,261.7c0,0,0.6,0,1.4-0.1c0.4,0,0.9-0.1,1.4-0.2c0.5-0.1,1-0.2,1.6-0.4c0.5-0.1,1-0.3,1.5-0.5
					c0.5-0.2,0.9-0.4,1.3-0.6c0.2-0.1,0.4-0.2,0.5-0.3c0.2-0.1,0.3-0.2,0.4-0.2c0.2-0.1,0.4-0.2,0.4-0.2s-0.1,0.1-0.2,0.3
					c-0.2,0.2-0.4,0.5-0.7,0.7c-0.2,0.1-0.3,0.3-0.6,0.4c-0.2,0.1-0.4,0.3-0.7,0.4c-0.2,0.1-0.5,0.3-0.8,0.4
					c-0.3,0.1-0.5,0.2-0.8,0.3c-0.6,0.2-1.2,0.3-1.7,0.3c-0.6,0-1.1,0-1.5,0C185.9,261.9,185.4,261.7,185.4,261.7z"/>
			</g>
			<g>
				<path fill="#FFA05F" d="M195.7,282.1c0,0-0.1,0.1-0.2,0.2c-0.1,0.1-0.3,0.3-0.6,0.5c-0.6,0.4-1.5,0.9-2.7,1.3
					c-1.2,0.4-2.7,0.6-4.2,0.6c-1.6,0-3.3-0.3-4.9-0.9c-0.8-0.3-1.5-0.8-2.2-1.3c-0.6-0.5-1.2-1.2-1.6-1.8c-0.9-1.3-1.4-2.6-1.8-3.7
					c-0.4-1.1-0.5-2.1-0.7-2.8c-0.1-0.7-0.2-1.1-0.2-1.1c0,0,0.2,0.4,0.4,1c0.2,0.7,0.5,1.6,1,2.7c0.4,1.1,1.1,2.3,1.9,3.5
					c0.4,0.6,0.9,1.1,1.5,1.6c0.6,0.5,1.3,0.8,2,1.2c1.4,0.6,3,0.9,4.5,1c1.5,0.1,2.9-0.1,4.1-0.3c1.2-0.3,2.1-0.6,2.7-1
					C195.4,282.3,195.7,282.1,195.7,282.1z"/>
			</g>
		</g>
		<g>
			
				<linearGradient id="SVGID_24_" gradientUnits="userSpaceOnUse" x1="48.7638" y1="181.3038" x2="67.8929" y2="181.3038" gradientTransform="matrix(1 0 0 -1 0 396)">
				<stop  offset="0" style="stop-color:#F7D7B8"/>
				<stop  offset="0.483" style="stop-color:#F7CFAF"/>
				<stop  offset="1" style="stop-color:#F7C7A6"/>
			</linearGradient>
			<path fill="url(#SVGID_24_)" stroke="#AF7045" stroke-width="2" stroke-miterlimit="10" d="M64.6,207c0,0-17.1,2.3-15.8,10.7
				s18.3,3.3,19,3.1C68.5,220.5,64.6,207,64.6,207z"/>
			<path fill="#D89060" d="M64,207.9c-1.7,0.3-5.8,1.1-9.3,2.8c-0.5,3.4,0.3,7.1,1.6,10.9c0.3,0,0.5,0,0.8,0c0,0,0,0,0,0
				c4,0,8.4-1.1,9.9-1.5C66.8,218.4,65.4,213,64,207.9z"/>
		</g>
		<g>
			
				<linearGradient id="SVGID_25_" gradientUnits="userSpaceOnUse" x1="298.0252" y1="121.9936" x2="317.1543" y2="121.9936" gradientTransform="matrix(-1 0 0 1 524.7207 77.2588)">
				<stop  offset="0" style="stop-color:#F7D7B8"/>
				<stop  offset="0.483" style="stop-color:#F7CFAF"/>
				<stop  offset="1" style="stop-color:#F7C7A6"/>
			</linearGradient>
			<path fill="url(#SVGID_25_)" stroke="#AF7045" stroke-width="2" stroke-miterlimit="10" d="M210.8,207c0,0,17.1-2.3,15.8-10.7
				c-1.3-8.4-18.3-3.3-19-3.1C207,193.5,210.8,207,210.8,207z"/>
			<path fill="#D89060" d="M211.5,206c1.7-0.3,5.8-1.1,9.3-2.8c0.5-3.4-0.3-7.1-1.6-10.9c-0.3,0-0.5,0-0.8,0h0c-4,0-8.4,1.1-9.9,1.5
				C208.6,195.5,210,200.9,211.5,206z"/>
		</g>
		<g>
			
				<linearGradient id="SVGID_26_" gradientUnits="userSpaceOnUse" x1="138.1498" y1="236.9216" x2="138.1498" y2="126.1416" gradientTransform="matrix(1 0 0 -1 0 396)">
				<stop  offset="0" style="stop-color:#E8871C"/>
				<stop  offset="1" style="stop-color:#E8651C"/>
			</linearGradient>
			<path fill="url(#SVGID_26_)" stroke="#C13F0C" stroke-width="2" stroke-miterlimit="10" d="M214.3,196c3,31.5-25.1,61.6-67,67.7
				c-42,6.1-80-14.4-84.9-45.7c-3.7-23.5,9.8-53,38.2-58.9c11.4-2.4,33,3.1,33.9,3.7c-1.9-4.7-5.7-7.1-7.7-8.5
				c4.3-0.3,11.6,4,11.6,4l-1.1-7.3l7.6,2.1c5.4-2.7,13.4-7.5,22.5-5C176.5,150.6,210.6,156.5,214.3,196z"/>
			<g>
				<path fill="#FFA05F" d="M144.9,156c5.4-2.7,13.4-7.5,22.5-5c7.9,2.2,34.6,6.9,44,33.8c-7.8-26.7-32.2-32.8-42-35.4
					c-0.8-0.2-1.6-0.4-2.2-0.6c-1.6-0.4-3.3-0.7-5-0.7c-6,0-11.2,2.7-15.4,4.9c-0.5,0.2-0.9,0.5-1.4,0.7L145,154l-6.7-1.9l0.3,2.1
					L144.9,156z"/>
				<path fill="#FFA05F" d="M132.8,158.4c3,1.2,5.6,2.7,5.6,2.7L138,159l-0.1-0.1c-0.1,0-4.4-2.6-8.2-3.5
					C130.7,156.2,131.8,157.2,132.8,158.4z"/>
				<path fill="#FFA05F" d="M100.5,161.9c11.4-2.4,33,3.1,33.9,3.7c-0.4-0.9-0.8-1.8-1.3-2.5c-3.3-1-15.6-3.9-25.7-3.9
					c-2.6,0-4.8,0.2-6.7,0.6c-17.2,3.6-33.5,19-37.3,40.1C67.6,182.4,80.3,166.1,100.5,161.9z"/>
			</g>
			<g>
				<g>
					<line fill="none" x1="136.1" y1="168.8" x2="142.9" y2="257"/>
					<path fill="#C13F0C" d="M136.1,168.8c0,0,0.2,1.4,0.5,3.8c0.3,2.4,0.7,5.8,1.1,10c0.4,4.1,0.9,8.9,1.3,14.1
						c0.2,2.6,0.5,5.2,0.7,8c0.2,2.7,0.4,5.5,0.7,8.2c0.2,2.8,0.4,5.5,0.6,8.2c0.2,2.7,0.4,5.4,0.5,8c0.3,5.2,0.6,10,0.8,14.1
						c0.2,4.1,0.3,7.6,0.4,10c0.1,2.4,0.1,3.8,0.1,3.8s-0.2-1.4-0.5-3.8c-0.3-2.4-0.7-5.8-1.1-10c-0.4-4.1-0.9-8.9-1.3-14.1
						c-0.2-2.6-0.5-5.3-0.7-8c-0.2-2.7-0.4-5.5-0.7-8.2c-0.2-2.8-0.4-5.5-0.6-8.2c-0.2-2.7-0.4-5.4-0.5-8c-0.3-5.2-0.6-10-0.8-14.1
						c-0.2-4.1-0.3-7.6-0.4-10C136.1,170.2,136.1,168.8,136.1,168.8z"/>
				</g>
				<g>
					<path fill="#C13F0C" d="M136.2,174.4c0,0-0.7-0.6-2-1.5c-1.3-0.9-3.3-2.2-5.8-3.5c-2.5-1.3-5.5-2.6-8.9-3.6
						c-1.7-0.5-3.5-1-5.3-1.3c-0.9-0.2-1.8-0.3-2.8-0.5c-0.9-0.1-1.9-0.3-2.8-0.3c-0.9-0.1-1.9-0.2-2.8-0.2l-1.4,0
						c-0.5,0-0.9,0-1.4,0c-0.9,0-1.9,0.1-2.8,0.1c-0.9,0-1.8,0.2-2.7,0.3c-0.9,0.1-1.7,0.3-2.6,0.4c-0.8,0.1-1.7,0.3-2.5,0.5
						c-1.6,0.3-3.1,0.8-4.4,1.2c-1.3,0.5-2.6,0.9-3.6,1.4c-1.1,0.5-2,0.8-2.7,1.2c-1.5,0.7-2.3,1.1-2.3,1.1s0.8-0.4,2.3-1.2
						c0.7-0.4,1.7-0.8,2.7-1.2c1-0.5,2.3-0.9,3.6-1.4c1.4-0.4,2.8-0.9,4.4-1.3c0.8-0.2,1.6-0.4,2.5-0.6c0.8-0.2,1.7-0.3,2.6-0.5
						c0.9-0.1,1.8-0.3,2.7-0.3c0.9-0.1,1.8-0.2,2.8-0.2c0.5,0,0.9,0,1.4,0l1.4,0c1,0,1.9,0.1,2.9,0.1c1,0.1,1.9,0.2,2.9,0.3
						c0.9,0.2,1.9,0.3,2.8,0.5c1.9,0.3,3.7,0.8,5.4,1.3c3.4,1,6.5,2.3,9.1,3.6c5.1,2.5,8.1,5,8.1,5L136.2,174.4z"/>
				</g>
				<g>
					<path fill="#C13F0C" d="M136.7,180.4c0,0-0.8-0.4-2.3-1.1c-1.5-0.7-3.6-1.6-6.2-2.6c-1.3-0.5-2.7-1-4.2-1.5
						c-1.5-0.5-3.1-1-4.8-1.5c-1.7-0.4-3.4-0.9-5.2-1.2c-1.8-0.4-3.6-0.7-5.5-0.9c-1.9-0.2-3.7-0.4-5.6-0.4c-0.9,0-1.8-0.1-2.7,0
						c-0.5,0-0.9,0-1.3,0c-0.4,0-0.9,0.1-1.3,0.1c-0.9,0-1.7,0.1-2.6,0.2c-0.8,0.1-1.7,0.2-2.4,0.3c-0.8,0.1-1.6,0.3-2.3,0.4
						c-0.7,0.2-1.5,0.3-2.1,0.5c-1.4,0.3-2.6,0.8-3.6,1.2c-1.1,0.4-2,0.8-2.7,1.1c-1.5,0.7-2.3,1.1-2.3,1.1s0.8-0.4,2.3-1.2
						c0.7-0.3,1.6-0.7,2.7-1.2c1.1-0.4,2.3-0.8,3.6-1.2c0.7-0.2,1.4-0.4,2.1-0.5c0.7-0.2,1.5-0.3,2.3-0.5c0.8-0.1,1.6-0.3,2.5-0.4
						c0.8-0.1,1.7-0.2,2.6-0.3c0.4,0,0.9-0.1,1.3-0.1c0.4,0,0.9,0,1.4,0c0.9,0,1.8,0,2.8,0c1.9,0,3.7,0.2,5.6,0.4
						c1.9,0.2,3.7,0.5,5.5,0.8c1.8,0.3,3.6,0.8,5.3,1.2c1.7,0.4,3.3,0.9,4.9,1.4c1.5,0.5,3,1,4.3,1.5c5.3,1.9,8.6,3.7,8.6,3.7
						L136.7,180.4z"/>
				</g>
				<g>
					<path fill="#C13F0C" d="M136.4,176.8c0,0,2.5-3,7-6.7c1.1-0.9,2.4-1.9,3.7-2.9c1.4-1,2.9-1.9,4.4-2.9c1.6-0.9,3.3-1.8,5-2.6
						c1.7-0.8,3.6-1.5,5.5-2.1c1.9-0.6,3.8-1.1,5.7-1.4c1.9-0.3,3.8-0.5,5.7-0.5c0.9,0,1.8,0.1,2.7,0.1c0.9,0.1,1.8,0.2,2.6,0.3
						c0.8,0.1,1.6,0.3,2.4,0.5c0.8,0.2,1.5,0.4,2.2,0.6c0.7,0.2,1.4,0.4,2,0.7c0.6,0.2,1.2,0.4,1.8,0.7c1.1,0.5,2,0.9,2.8,1.3
						c1.5,0.8,2.3,1.3,2.3,1.3s-0.9-0.5-2.4-1.3c-0.7-0.4-1.7-0.8-2.8-1.3c-0.5-0.2-1.2-0.4-1.8-0.7c-0.6-0.2-1.3-0.5-2-0.7
						c-0.7-0.2-1.4-0.4-2.2-0.6c-0.8-0.1-1.6-0.3-2.4-0.4c-0.8-0.1-1.7-0.2-2.6-0.3c-0.9,0-1.8-0.1-2.7-0.1
						c-1.8,0.1-3.7,0.2-5.6,0.6c-1.9,0.3-3.8,0.8-5.7,1.4c-1.8,0.6-3.7,1.4-5.4,2.2c-1.7,0.8-3.4,1.8-4.9,2.7c-1.5,1-3,1.9-4.3,2.9
						c-1.3,1-2.6,2-3.7,2.9c-2.2,1.9-3.9,3.5-5.1,4.8c-1.2,1.2-1.8,1.9-1.8,1.9L136.4,176.8z"/>
				</g>
				<g>
					<path fill="#C13F0C" d="M138.4,207.4c0,0-4.2,0.3-10.5,0.8c-3.1,0.3-6.8,0.6-10.7,0.9c-2,0.2-4,0.4-6.1,0.5
						c-2.1,0.2-4.2,0.4-6.2,0.6c-2.1,0.2-4.2,0.4-6.2,0.6c-2.1,0.2-4.1,0.5-6,0.7c-2,0.2-3.9,0.4-5.6,0.7c-1.8,0.2-3.5,0.5-5,0.7
						c-1.6,0.2-3,0.4-4.3,0.6c-1.3,0.2-2.4,0.4-3.3,0.6c-1.8,0.3-2.8,0.5-2.8,0.5s1-0.2,2.8-0.5c0.9-0.2,2-0.4,3.3-0.6
						c1.3-0.3,2.7-0.5,4.2-0.7c1.6-0.2,3.3-0.5,5-0.7c1.8-0.3,3.7-0.5,5.6-0.7c2-0.2,4-0.5,6-0.8c2.1-0.3,4.1-0.5,6.2-0.7
						c2.1-0.2,4.2-0.5,6.2-0.7c2.1-0.2,4.1-0.4,6.1-0.6c3.9-0.4,7.6-0.8,10.7-1.1c6.3-0.6,10.5-1,10.5-1L138.4,207.4z"/>
				</g>
				<g>
					<path fill="#C13F0C" d="M139.5,214.7c0,0,16.6-0.2,33.1-1.3c8.3-0.6,16.5-1.4,22.6-2.5c3.1-0.5,5.6-1.2,7.3-1.8
						c0.4-0.1,0.8-0.3,1.1-0.4c0.3-0.1,0.6-0.3,0.8-0.4c0.4-0.2,0.6-0.4,0.6-0.4s-0.2,0.1-0.6,0.4c-0.2,0.1-0.5,0.3-0.8,0.4
						c-0.3,0.1-0.7,0.3-1.1,0.5c-1.7,0.6-4.2,1.3-7.2,1.9c-6.1,1.2-14.4,2.1-22.6,2.7c-16.5,1.3-33.1,1.7-33.1,1.7L139.5,214.7z"/>
				</g>
				<g>
					<path fill="#C13F0C" d="M140.4,228.7c0,0-16.6,3.2-33.4,5c-4.2,0.4-8.4,0.8-12.4,1c-2,0.1-3.9,0.2-5.7,0.2c-1.8,0-3.5,0-5.1,0
						c-1.6-0.1-3-0.1-4.3-0.3c-0.6-0.1-1.2-0.1-1.8-0.2c-0.6-0.1-1.1-0.1-1.5-0.2c-0.5-0.1-0.9-0.2-1.2-0.2
						c-0.3-0.1-0.6-0.2-0.9-0.2c-0.5-0.1-0.7-0.2-0.7-0.2s0.3,0.1,0.7,0.2c0.2,0.1,0.5,0.1,0.9,0.2c0.4,0.1,0.8,0.1,1.2,0.2
						c0.5,0.1,1,0.2,1.5,0.2c0.6,0.1,1.1,0.2,1.8,0.2c1.3,0.1,2.7,0.2,4.3,0.2c1.6,0,3.3,0,5.1,0c1.8-0.1,3.7-0.1,5.7-0.3
						c3.9-0.3,8.1-0.7,12.3-1.2c8.4-1,16.7-2.3,22.9-3.4c6.2-1.1,10.4-1.9,10.4-1.9L140.4,228.7z"/>
				</g>
				<g>
					<path fill="#C13F0C" d="M142.4,246.8c0,0,0.2,0.1,0.5,0.2c0.3,0.1,0.8,0.2,1.5,0.4c0.6,0.2,1.4,0.3,2.4,0.4
						c0.9,0.1,2,0.3,3.1,0.3c1.1,0.1,2.4,0.2,3.7,0.2c1.3,0,2.7,0,4.1,0c1.4-0.1,2.9-0.1,4.4-0.3c0.8-0.1,1.5-0.1,2.3-0.2
						c0.8-0.1,1.5-0.2,2.3-0.3c0.8-0.1,1.5-0.2,2.3-0.3c0.8-0.1,1.5-0.3,2.2-0.4c1.5-0.3,3-0.5,4.3-0.8c1.4-0.3,2.8-0.6,4-0.9
						c1.3-0.3,2.5-0.6,3.6-0.9c1.1-0.3,2.1-0.6,3-0.8c0.9-0.3,1.7-0.5,2.3-0.7c1.3-0.4,2-0.6,2-0.6s-0.7,0.2-2,0.6
						c-0.6,0.2-1.4,0.4-2.3,0.7c-0.9,0.3-1.9,0.6-3,0.9c-1.1,0.3-2.3,0.6-3.6,1c-1.3,0.3-2.6,0.6-4,1c-1.4,0.3-2.9,0.6-4.3,0.9
						c-0.7,0.1-1.5,0.3-2.2,0.4c-0.8,0.1-1.5,0.2-2.3,0.3c-0.8,0.1-1.5,0.2-2.3,0.3c-0.8,0.1-1.5,0.2-2.3,0.2
						c-1.5,0.2-3,0.2-4.4,0.4c-1.4,0.1-2.8,0.1-4.2,0.1c-1.3,0-2.6,0-3.7-0.1c-1.2-0.1-2.2-0.2-3.2-0.3c-0.9-0.1-1.8-0.3-2.4-0.4
						c-0.7-0.1-1.2-0.3-1.5-0.4c-0.4-0.1-0.5-0.2-0.5-0.2L142.4,246.8z"/>
				</g>
				<g>
					<path fill="#FFA05F" d="M140.4,179.6c0,0,0.7-0.5,2-1.3c0.6-0.4,1.4-0.8,2.4-1.4c0.9-0.5,2-1,3.2-1.6c0.6-0.3,1.2-0.5,1.9-0.8
						c0.7-0.3,1.3-0.5,2-0.8c0.7-0.3,1.4-0.5,2.2-0.7c0.7-0.2,1.5-0.5,2.3-0.7c0.8-0.2,1.6-0.4,2.4-0.6c0.8-0.2,1.7-0.4,2.5-0.5
						c1.7-0.4,3.4-0.6,5.1-0.9c1.7-0.2,3.5-0.4,5.2-0.5c0.9,0,1.7-0.1,2.6-0.1c0.8,0,1.7,0,2.5,0c0.8,0,1.6,0,2.4,0.1
						c0.8,0,1.6,0.1,2.3,0.1c0.7,0.1,1.5,0.2,2.2,0.2c0.4,0,0.7,0.1,1,0.1c0.3,0.1,0.7,0.1,1,0.2c1.3,0.2,2.5,0.4,3.5,0.7
						c1,0.3,1.9,0.5,2.7,0.7c1.4,0.5,2.3,0.8,2.3,0.8s-0.8-0.2-2.3-0.6c-0.7-0.2-1.6-0.4-2.7-0.6c-1-0.2-2.2-0.4-3.5-0.5
						c-0.3,0-0.7-0.1-1-0.1c-0.3,0-0.7,0-1-0.1c-0.7-0.1-1.4-0.1-2.2-0.2c-0.7,0-1.5,0-2.3-0.1c-0.8,0-1.6-0.1-2.4,0
						c-0.8,0-1.6,0-2.5,0.1c-0.8,0-1.7,0.1-2.5,0.2c-1.7,0.1-3.4,0.4-5.1,0.5c-1.7,0.3-3.4,0.5-5.1,0.8c-0.8,0.2-1.7,0.3-2.5,0.5
						c-0.8,0.2-1.6,0.4-2.4,0.6c-0.8,0.2-1.5,0.4-2.3,0.6c-0.7,0.2-1.5,0.4-2.2,0.6c-0.7,0.2-1.4,0.5-2,0.7
						c-0.7,0.2-1.3,0.5-1.9,0.7c-1.2,0.5-2.3,0.9-3.2,1.4c-0.9,0.5-1.8,0.8-2.4,1.2C141.1,179.2,140.4,179.6,140.4,179.6z"/>
				</g>
				<g>
					<path fill="#FFA05F" d="M116.3,184.4c0,0-0.7-0.1-1.9-0.3c-0.6-0.1-1.3-0.2-2.2-0.3c-0.4,0-0.9-0.1-1.3-0.1c-0.5,0-1,0-1.5-0.1
						c-1-0.1-2.2,0-3.3,0c-0.6,0-1.2,0-1.8,0.1c-0.6,0.1-1.3,0.1-1.9,0.1c-1.3,0.1-2.6,0.2-4,0.5c-1.3,0.2-2.7,0.5-4.1,0.7
						c-1.3,0.3-2.7,0.5-4,0.9c-1.3,0.3-2.6,0.7-3.9,1c-1.2,0.4-2.4,0.7-3.6,1c-1.1,0.4-2.2,0.7-3.2,1c-2,0.7-3.6,1.2-4.7,1.6
						c-1.1,0.4-1.8,0.6-1.8,0.6s0.6-0.3,1.7-0.8c0.6-0.2,1.2-0.5,2-0.8c0.8-0.3,1.7-0.7,2.6-1c1.9-0.7,4.2-1.6,6.7-2.3
						c1.3-0.4,2.5-0.7,3.9-1.1c1.3-0.4,2.7-0.6,4-0.9c1.4-0.2,2.7-0.5,4.1-0.6c1.4-0.2,2.7-0.3,4-0.4c1.3-0.1,2.6-0.1,3.8-0.1
						c1.2,0,2.3,0.1,3.4,0.2c0.5,0,1,0.1,1.5,0.1c0.5,0.1,0.9,0.1,1.3,0.2c0.8,0.1,1.6,0.2,2.2,0.4
						C115.6,184.2,116.3,184.4,116.3,184.4z"/>
				</g>
				<g>
					<path fill="#FFA05F" d="M102.7,201.1c0,0-0.4,0.1-1.2,0.2c-0.7,0.1-1.8,0.3-3.1,0.5c-1.3,0.2-2.7,0.4-4.3,0.6
						c-1.6,0.2-3.3,0.4-5,0.5c-1.7,0.2-3.4,0.5-4.9,0.7c-1.6,0.2-3.1,0.3-4.3,0.5c-1.3,0.1-2.3,0.2-3.1,0.3
						c-0.7,0.1-1.2,0.1-1.2,0.1s0.4-0.1,1.1-0.2c0.7-0.1,1.8-0.4,3-0.6c1.3-0.2,2.7-0.5,4.3-0.7c1.6-0.3,3.3-0.5,5-0.8
						c1.7-0.2,3.4-0.3,5-0.4c1.6-0.1,3.1-0.2,4.4-0.3c1.3-0.1,2.3-0.1,3.1-0.2C102.2,201.1,102.7,201.1,102.7,201.1z"/>
				</g>
				<g>
					<path fill="#FFA05F" d="M72.7,225.6c0,0,0.4,0,1.2,0c0.4,0,0.9,0,1.4,0.1c0.5,0,1.1,0,1.8,0.1c0.7,0,1.4,0,2.1,0
						c0.8,0,1.6,0,2.4,0c1.7,0,3.4-0.1,5.2-0.2c1.8-0.1,3.5-0.2,5.2-0.4c0.8-0.1,1.6-0.1,2.4-0.2c0.8-0.1,1.5-0.2,2.1-0.2
						c1.3-0.1,2.4-0.3,3.2-0.4c0.8-0.1,1.2-0.1,1.2-0.1s-0.4,0.1-1.2,0.3c-0.4,0.1-0.8,0.2-1.4,0.3c-0.5,0.1-1.1,0.3-1.8,0.4
						c-1.3,0.2-2.8,0.5-4.5,0.7c-0.8,0.1-1.7,0.2-2.6,0.3c-0.9,0.1-1.8,0.1-2.6,0.2c-0.9,0-1.8,0.1-2.7,0.1c-0.9,0-1.7,0-2.6,0
						c-0.8,0-1.6,0-2.4-0.1c-0.8-0.1-1.5-0.1-2.1-0.2c-0.7,0-1.3-0.1-1.8-0.2c-0.5-0.1-1-0.2-1.4-0.2
						C73.1,225.7,72.7,225.6,72.7,225.6z"/>
				</g>
				<g>
					<path fill="#FFA05F" d="M94.6,252.2c0,0,0.5,0.2,1.3,0.5c0.4,0.2,1,0.3,1.6,0.5c0.6,0.2,1.3,0.3,2,0.5c0.7,0.2,1.6,0.3,2.5,0.4
						c0.9,0.1,1.8,0.2,2.8,0.2c1,0.1,2,0.1,3,0.1c1,0,2.1,0,3.1,0c1-0.1,2.1-0.1,3.1-0.2c1-0.1,2-0.1,3-0.2c1.9-0.2,3.8-0.3,5.3-0.5
						c1.6-0.2,2.9-0.3,3.8-0.4c0.9-0.1,1.4-0.1,1.4-0.1s-0.5,0.1-1.4,0.3c-0.9,0.2-2.2,0.4-3.7,0.7s-3.3,0.5-5.3,0.8
						c-1,0.1-2,0.2-3,0.3c-1,0.1-2.1,0.1-3.1,0.2c-1.1,0-2.1,0.1-3.1,0c-1,0-2.1-0.1-3-0.2c-1-0.1-1.9-0.2-2.8-0.4
						c-0.9-0.2-1.7-0.3-2.5-0.6c-0.4-0.1-0.7-0.2-1.1-0.3c-0.3-0.1-0.7-0.2-1-0.4c-0.6-0.2-1.1-0.4-1.5-0.6
						C95,252.5,94.6,252.2,94.6,252.2z"/>
				</g>
				<g>
					<path fill="#FFA05F" d="M175.1,194.7c0,0,0.5-0.1,1.3-0.2c0.8-0.1,2-0.3,3.4-0.5c1.4-0.2,3-0.5,4.8-0.7
						c1.8-0.2,3.6-0.5,5.5-0.7c1.9-0.3,3.7-0.6,5.5-0.8c1.7-0.3,3.4-0.4,4.8-0.6c1.4-0.2,2.6-0.3,3.4-0.4c0.8-0.1,1.3-0.1,1.3-0.1
						s-0.5,0.1-1.3,0.3c-0.8,0.2-2,0.4-3.3,0.7c-1.4,0.3-3,0.6-4.8,0.9c-1.7,0.3-3.6,0.6-5.5,0.9c-1.9,0.2-3.7,0.4-5.5,0.6
						c-1.8,0.2-3.4,0.3-4.8,0.4c-1.4,0.1-2.6,0.2-3.4,0.2C175.5,194.7,175.1,194.7,175.1,194.7z"/>
				</g>
				<g>
					<path fill="#FFA05F" d="M178.8,216.7c0,0,0.5,0,1.3,0c0.4,0,0.9,0,1.5,0c0.6,0,1.2,0,1.9,0c0.7,0,1.5,0,2.3-0.1
						c0.8,0,1.7-0.1,2.5-0.2c0.9-0.1,1.8-0.1,2.7-0.3c0.9-0.1,1.8-0.3,2.8-0.4c0.9-0.2,1.8-0.4,2.7-0.6c0.9-0.2,1.8-0.4,2.6-0.6
						c0.8-0.3,1.7-0.4,2.4-0.7c0.8-0.3,1.5-0.5,2.1-0.8c0.3-0.1,0.6-0.2,1-0.3c0.3-0.1,0.6-0.3,0.8-0.4c0.5-0.2,1-0.4,1.3-0.6
						c0.8-0.3,1.2-0.5,1.2-0.5s-0.4,0.2-1.1,0.7c-0.4,0.2-0.8,0.5-1.3,0.7c-0.3,0.1-0.5,0.3-0.8,0.5c-0.3,0.1-0.6,0.3-0.9,0.4
						c-0.7,0.3-1.4,0.6-2.1,0.9c-0.8,0.3-1.6,0.5-2.4,0.8c-0.9,0.3-1.7,0.6-2.7,0.7c-0.9,0.2-1.9,0.4-2.8,0.6
						c-0.9,0.1-1.9,0.2-2.8,0.4c-0.9,0.2-1.9,0.2-2.8,0.2c-0.9,0-1.8,0.1-2.6,0.1c-0.8,0-1.6,0-2.3-0.1c-0.4,0-0.7,0-1,0
						c-0.3,0-0.6-0.1-0.9-0.1c-0.6-0.1-1.1-0.1-1.5-0.2C179.2,216.8,178.8,216.7,178.8,216.7z"/>
				</g>
			</g>
		</g>
		<g>
			<path opacity="0.2" fill="#C13F0C" enable-background="new    " d="M172.5,215.1c0,18.5-15.7,33.5-35,33.5c-19.3,0-35-15-35-33.5
				s15.7-33.5,35-33.5C156.8,181.6,172.5,196.6,172.5,215.1z"/>
			<g>
				<g>
					
						<linearGradient id="SVGID_27_" gradientUnits="userSpaceOnUse" x1="101.6073" y1="183.4152" x2="173.5089" y2="183.4152" gradientTransform="matrix(1 0 0 -1 0 396)">
						<stop  offset="0" style="stop-color:#F9B233"/>
						<stop  offset="0.215" style="stop-color:#F9CE33"/>
						<stop  offset="0.745" style="stop-color:#EE8D29"/>
						<stop  offset="1" style="stop-color:#F9B233"/>
					</linearGradient>
					<path fill="url(#SVGID_27_)" stroke="#CE6117" stroke-width="2" stroke-miterlimit="10" d="M166.9,203.5l-0.2-11.1l-11-3.6
						l-7-8.8l-11.1,3.2l-11.1-3.2l-7,8.8l-11,3.6l-0.2,11.1l-6.6,9.1l6.6,9.1l0.2,11.1l11,3.6l7,8.8l11.1-3.2l11.1,3.2l7-8.8l11-3.6
						l0.2-11.1l6.6-9.1L166.9,203.5z M137.3,231.1c-10.7,0-19.4-8.3-19.4-18.5s8.7-18.5,19.4-18.5s19.4,8.3,19.4,18.5
						C156.6,222.8,148,231.1,137.3,231.1z"/>
				</g>
				
					<linearGradient id="SVGID_28_" gradientUnits="userSpaceOnUse" x1="107.6111" y1="183.4151" x2="166.9232" y2="183.4151" gradientTransform="matrix(1 0 0 -1 0 396)">
					<stop  offset="0" style="stop-color:#DC7D22"/>
					<stop  offset="1" style="stop-color:#F79034"/>
				</linearGradient>
				<path fill="url(#SVGID_28_)" stroke="#CE6117" stroke-width="2" stroke-miterlimit="10" d="M166.9,212.6l-4-8l-1.7-8.7l-8.1-4.2
					l-6.7-6.1l-9.2,1.2l-9.2-1.2l-6.7,6.1l-8.1,4.2l-1.7,8.7l-4,8l4,8l1.7,8.7l8.1,4.2l6.7,6.1l9.2-1.2l9.2,1.2l6.7-6.1l8.1-4.2
					l1.7-8.7L166.9,212.6z M137.3,231.1c-10.7,0-19.4-8.3-19.4-18.5s8.7-18.5,19.4-18.5s19.4,8.3,19.4,18.5
					C156.6,222.8,148,231.1,137.3,231.1z"/>
				<g>
					<line fill="none" stroke="#CE6117" stroke-width="2" stroke-miterlimit="10" x1="148.7" y1="179.9" x2="146.4" y2="185.6"/>
					<line fill="none" stroke="#CE6117" stroke-width="2" stroke-miterlimit="10" x1="166.6" y1="192.4" x2="161.3" y2="195.9"/>
					<line fill="none" stroke="#CE6117" stroke-width="2" stroke-miterlimit="10" x1="173.5" y1="212.6" x2="166.9" y2="212.6"/>
					<line fill="none" stroke="#CE6117" stroke-width="2" stroke-miterlimit="10" x1="166.6" y1="232.8" x2="161.3" y2="229.3"/>
					<line fill="none" stroke="#CE6117" stroke-width="2" stroke-miterlimit="10" x1="148.7" y1="245.3" x2="146.4" y2="239.6"/>
					<line fill="none" stroke="#CE6117" stroke-width="2" stroke-miterlimit="10" x1="126.4" y1="245.3" x2="128.1" y2="239.6"/>
					<line fill="none" stroke="#CE6117" stroke-width="2" stroke-miterlimit="10" x1="108.5" y1="232.8" x2="113.3" y2="229.3"/>
					<line fill="none" stroke="#CE6117" stroke-width="2" stroke-miterlimit="10" x1="101.6" y1="212.6" x2="107.6" y2="212.6"/>
					<line fill="none" stroke="#CE6117" stroke-width="2" stroke-miterlimit="10" x1="108.5" y1="192.4" x2="113.3" y2="195.9"/>
					<line fill="none" stroke="#CE6117" stroke-width="2" stroke-miterlimit="10" x1="126.4" y1="179.9" x2="128.1" y2="185.6"/>
					<line fill="none" stroke="#CE6117" stroke-width="2" stroke-miterlimit="10" x1="108.2" y1="221.7" x2="111.6" y2="220.6"/>
					<line fill="none" stroke="#CE6117" stroke-width="2" stroke-miterlimit="10" x1="119.4" y1="236.4" x2="121.4" y2="233.5"/>
					<line fill="none" stroke="#CE6117" stroke-width="2" stroke-miterlimit="10" x1="137.6" y1="242.1" x2="137.3" y2="238.4"/>
					<line fill="none" stroke="#CE6117" stroke-width="2" stroke-miterlimit="10" x1="155.4" y1="236.8" x2="153.1" y2="233.5"/>
					<line fill="none" stroke="#CE6117" stroke-width="2" stroke-miterlimit="10" x1="166.9" y1="221.7" x2="162.9" y2="220.6"/>
					<line fill="none" stroke="#CE6117" stroke-width="2" stroke-miterlimit="10" x1="166.9" y1="203.5" x2="162.9" y2="204.6"/>
					<line fill="none" stroke="#CE6117" stroke-width="2" stroke-miterlimit="10" x1="155.7" y1="188.7" x2="153.1" y2="191.7"/>
					<line fill="none" stroke="#CE6117" stroke-width="2" stroke-miterlimit="10" x1="137.6" y1="183.1" x2="137.3" y2="186.8"/>
					<line fill="none" stroke="#CE6117" stroke-width="2" stroke-miterlimit="10" x1="119.4" y1="188.7" x2="121.4" y2="191.7"/>
					<line fill="none" stroke="#CE6117" stroke-width="2" stroke-miterlimit="10" x1="108.2" y1="203.5" x2="111.6" y2="204.6"/>
				</g>
			</g>
		</g>
		<g opacity="0.4">
			<path fill="#3AD87A" d="M56.4,134.6c0,0,0.2,0.2,0.3,0.7c0.1,0.2,0.2,0.5,0.3,0.8c0.1,0.3,0.2,0.7,0.2,1.1
				c0.1,0.4,0.1,0.8,0.1,1.3c0,0.5,0,1,0,1.5c0,0.5-0.1,1-0.2,1.6c-0.1,0.5-0.2,1.1-0.4,1.6c-0.2,0.5-0.4,1-0.6,1.5
				c-0.2,0.5-0.4,1-0.7,1.4c-0.3,0.4-0.5,0.9-0.8,1.3c-0.3,0.4-0.6,0.7-0.9,1c-0.3,0.3-0.6,0.6-0.8,0.8c-0.3,0.2-0.5,0.4-0.7,0.6
				c-0.4,0.3-0.6,0.5-0.6,0.5s0.2-0.2,0.5-0.6c0.2-0.2,0.3-0.4,0.6-0.6c0.2-0.3,0.4-0.6,0.7-0.9c0.3-0.3,0.5-0.7,0.7-1.1
				c0.3-0.4,0.5-0.8,0.7-1.3c0.3-0.4,0.4-0.9,0.6-1.4c0.2-0.5,0.4-1,0.5-1.5c0.1-0.5,0.3-1,0.4-1.5c0.1-0.5,0.2-1,0.3-1.5
				c0.1-0.5,0.1-1,0.1-1.4c0-0.5,0-0.9,0-1.3c0-0.8-0.1-1.5-0.1-1.9c0-0.2-0.1-0.4-0.1-0.5C56.5,134.7,56.4,134.6,56.4,134.6z"/>
		</g>
	</g>
</g>
</svg>
