<?xml version="1.0" encoding="utf-8"?>
<!-- Generator: Adobe Illustrator 18.0.0, SVG Export Plug-In . SVG Version: 6.00 Build 0)  -->
<!DOCTYPE svg PUBLIC "-//W3C//DTD SVG 1.1//EN" "http://www.w3.org/Graphics/SVG/1.1/DTD/svg11.dtd">
<svg version="1.1" id="Layer_1" xmlns="http://www.w3.org/2000/svg" xmlns:xlink="http://www.w3.org/1999/xlink" 
	 viewBox="0 0 250.9 396.5" enable-background="new 0 0 250.9 396.5" xml:space="preserve">
<g>
	<ellipse opacity="0.1" enable-background="new    " cx="125.3" cy="211.8" rx="124" ry="91.5"/>
	<g>
		<g>
			<path fill="#9B40C6" stroke="#5C0A8C" stroke-width="2" stroke-miterlimit="10" d="M58.6,174.2c0,0-10.1-17.3-5.8-26.7
				s16.4-16,24.2-15.3c16.1,1.3,15.2,8.9,19.4,22.4s-37.8,20.1-37.8,20.1"/>
			<path fill="#6C269E" d="M59.3,173.8c5.1-0.9,30.1-5.6,35.5-14.1c1-1.6,1.2-3.1,0.7-4.7c-0.7-2.2-1.2-4.2-1.7-6.1
				c-2.6-9.5-3.9-14.4-15.7-15.7c-3.8,2.2-6.6,5.7-6.8,9.8c-1.8-0.1-4.4-0.3-6,0.3c-4.2,1.7-5.8,7.3-8.3,10.1
				c-1.2,1.4-2.6,2.5-4,3.6C54.3,165.1,59.2,173.6,59.3,173.8z"/>
			
				<linearGradient id="SVGID_1_" gradientUnits="userSpaceOnUse" x1="50.926" y1="236.2849" x2="104.3073" y2="236.2849" gradientTransform="matrix(1 0 0 -1 0 396)">
				<stop  offset="1.670000e-02" style="stop-color:#8C715E"/>
				<stop  offset="1" style="stop-color:#7B553F"/>
			</linearGradient>
			<path fill="url(#SVGID_1_)" stroke="#35261B" stroke-width="3" stroke-miterlimit="10" d="M96.5,150.4c0.2-2.3-1.9-4.4-3.2-5
				c-0.5-0.2-0.7-13.2-8.4-13.1c-5.7,0-10.3,4.5-10.3,10.1c0,2.4,2.2,5.4,2.3,6.3c-0.7-0.4-1.8-3.3-6.1-3.3c-3.6,0-6.5,2.8-6.5,6.3
				c0,2.1,2.9,5,2.7,5.1c-0.2,0.1-3.2-2.4-5-1.9c-3.2,0-5.8,2.5-5.8,5.7c0,0.5,0.1,1,0.2,1.5c-0.4-0.1-0.8-0.2-1.2-0.2
				c-2.3,0-4.2,1.8-4.2,4.1s1.9,4.1,4.2,4.1c2,3.7,10.3,17.1,10.3,17.1l38.8-20.9C104.3,166.2,96.2,153.4,96.5,150.4z"/>
			<path fill="#CC937A" stroke="#AF6C54" stroke-width="0.5" stroke-miterlimit="10" d="M88.3,137.6c1.4,2.3-0.3,3.8-2.7,5.2
				c-2.4,1.4-4.5,2.2-5.9-0.1c-1.4-2.3-0.6-5.3,1.8-6.7C83.9,134.6,86.9,135.3,88.3,137.6z"/>
			<path fill="#CC937A" stroke="#AF6C54" stroke-width="0.5" stroke-miterlimit="10" d="M72.6,149c0.9,1.4-0.2,2.4-1.7,3.2
				c-1.5,0.9-2.9,1.4-3.7-0.1c-0.9-1.4-0.4-3.3,1.1-4.2C69.8,147.1,71.8,147.6,72.6,149z"/>
			<path fill="#CC937A" stroke="#AF6C54" stroke-width="0.5" stroke-miterlimit="10" d="M63.3,157.9c0.7,1.2-0.2,1.9-1.4,2.6
				c-1.2,0.7-2.3,1.1-3,0c-0.7-1.2-0.3-2.7,0.9-3.4C61,156.4,62.6,156.8,63.3,157.9z"/>
			<path fill="#CC937A" stroke="#AF6C54" stroke-width="0.5" stroke-miterlimit="10" d="M55.6,164.1c0.8,0.4,0.6,1.1,0.2,2
				c-0.4,0.8-0.9,1.4-1.7,1s-1.2-1.4-0.7-2.2C53.7,164.1,54.8,163.7,55.6,164.1z"/>
			<g>
				<path fill="#35261B" d="M83.7,150.7c0,0,0.1-0.1,0.4-0.2c0.2-0.1,0.6-0.2,1-0.4c0.2-0.1,0.4-0.2,0.6-0.3
					c0.2-0.1,0.4-0.2,0.7-0.3c0.5-0.2,0.9-0.5,1.4-0.8c0.4-0.3,0.9-0.6,1.3-0.9c0.2-0.2,0.4-0.3,0.6-0.5c0.2-0.2,0.3-0.3,0.5-0.5
					c0.3-0.3,0.5-0.6,0.7-0.7c0.2-0.2,0.3-0.3,0.3-0.3s0,0.1-0.1,0.4c-0.1,0.2-0.2,0.6-0.4,1c-0.1,0.2-0.2,0.4-0.4,0.6
					c-0.1,0.2-0.3,0.4-0.5,0.6c-0.2,0.2-0.4,0.4-0.6,0.6c-0.2,0.2-0.5,0.4-0.7,0.5c-0.3,0.1-0.5,0.3-0.8,0.4
					c-0.2,0.2-0.5,0.2-0.8,0.3c-0.3,0.1-0.5,0.2-0.8,0.3c-0.2,0.1-0.5,0.1-0.7,0.2c-0.4,0.1-0.8,0.1-1,0.1
					C83.8,150.7,83.7,150.7,83.7,150.7z"/>
			</g>
			<g>
				<path fill="#35261B" d="M71,156.6c0,0,0.1,0,0.3-0.1c0.2-0.1,0.5-0.1,0.8-0.2c0.1-0.1,0.3-0.1,0.5-0.2c0.2,0,0.3-0.2,0.5-0.2
					c0.2-0.1,0.4-0.2,0.5-0.3c0.2-0.1,0.3-0.2,0.5-0.3c0.2-0.1,0.3-0.3,0.5-0.4c0.2-0.1,0.3-0.3,0.4-0.4c0.1-0.1,0.3-0.3,0.4-0.4
					c0.1-0.1,0.2-0.3,0.3-0.4c0.2-0.2,0.3-0.5,0.4-0.6c0.1-0.2,0.2-0.3,0.2-0.3s0,0.1,0,0.3c0,0.2,0,0.5-0.1,0.8
					c-0.1,0.2-0.1,0.3-0.2,0.5c-0.1,0.2-0.2,0.4-0.3,0.5c-0.1,0.2-0.2,0.4-0.4,0.5c-0.2,0.2-0.4,0.3-0.5,0.5
					c-0.2,0.1-0.4,0.2-0.6,0.4c-0.2,0.1-0.4,0.2-0.6,0.2c-0.2,0.1-0.4,0.1-0.6,0.1c-0.2,0-0.4,0-0.6,0c-0.3,0-0.6-0.1-0.8-0.1
					C71.1,156.6,71,156.6,71,156.6z"/>
			</g>
			<g>
				<path fill="#35261B" d="M61.5,164.3c0,0,0.1-0.1,0.2-0.1c0.1-0.1,0.4-0.2,0.6-0.3c0.1-0.1,0.2-0.1,0.4-0.2
					c0.1-0.1,0.3-0.2,0.4-0.3c0.1-0.1,0.3-0.2,0.4-0.3c0.1-0.1,0.3-0.2,0.4-0.3c0.3-0.2,0.5-0.4,0.8-0.7c0.3-0.2,0.4-0.5,0.7-0.6
					c0.2-0.2,0.3-0.4,0.5-0.5c0.1-0.1,0.2-0.2,0.2-0.2s0,0.1,0,0.3c0,0.2-0.1,0.4-0.2,0.7c-0.1,0.3-0.3,0.6-0.5,0.9
					c-0.1,0.1-0.2,0.3-0.4,0.4l-0.4,0.4c-0.2,0.1-0.3,0.2-0.5,0.3c-0.2,0.1-0.3,0.2-0.5,0.3c-0.3,0.2-0.7,0.2-1,0.3
					c-0.3,0.1-0.5,0-0.7,0C61.6,164.3,61.5,164.3,61.5,164.3z"/>
			</g>
			<g>
				<path fill="#35261B" d="M57.2,168.7c0,0,0-0.1,0.1-0.2c0-0.1,0.1-0.2,0.2-0.4c0.1-0.1,0.1-0.3,0.2-0.4c0.1-0.2,0.2-0.3,0.2-0.5
					c0.2-0.3,0.3-0.7,0.4-0.9c0.1-0.3,0.3-0.5,0.3-0.5s0,0,0.1,0.1c0,0.1,0.1,0.2,0.2,0.4c0,0.2,0.1,0.4,0,0.6c0,0.1,0,0.2-0.1,0.3
					l-0.1,0.3l-0.2,0.3c-0.1,0.1-0.1,0.2-0.2,0.3c-0.1,0.2-0.3,0.3-0.5,0.4c-0.2,0.1-0.3,0.1-0.4,0.1
					C57.3,168.7,57.2,168.7,57.2,168.7z"/>
			</g>
			<path opacity="0.5" fill="#473426" enable-background="new    " d="M102.4,165.7c-2.5-4-7.5-12.6-7.2-15.5c0-0.2,0-0.3,0-0.5
				c-13.6,3.8-30.5,14.5-36.9,23.1c2.5,4.1,6.2,10.2,7.7,12.6L102.4,165.7z"/>
			<path fill="#9B40C6" stroke="#5C0A8C" stroke-width="2" stroke-miterlimit="10" d="M56.1,178.8c2.1-2.9,26.4-24.6,44.3-25.9
				c5.8,5.7,8.7,13.2,8.7,13.2S63.7,191.6,64.2,191C64.6,190.4,56.5,182.8,56.1,178.8z"/>
			<path fill="none" stroke="#35261B" stroke-miterlimit="10" d="M74.2,163.2"/>
			<path fill="#6C269E" d="M62.8,187.6c0.9,1,1.5,1.7,1.8,2.3c4.5-2.4,27.4-15.2,43.3-24.1c-0.7-1.7-2.9-6.3-6.5-10.4
				c-17.2,5-35.1,19.3-43.2,26.4C59.5,183.7,61.4,186,62.8,187.6z"/>
			<g>
				<path fill="#B062DD" d="M52.6,152.8c0,0,0-0.1,0-0.4c0-0.2,0-0.6,0.1-1.1c0.1-0.5,0.2-1,0.3-1.6c0.2-0.6,0.4-1.3,0.8-2
					c0.3-0.7,0.8-1.5,1.3-2.3c0.5-0.8,1.1-1.6,1.7-2.3c0.7-0.8,1.4-1.5,2.1-2.2c0.8-0.7,1.6-1.4,2.4-2.1c1.7-1.3,3.6-2.4,5.4-3.3
					c1.8-0.9,3.6-1.5,5.2-1.9c1.6-0.4,2.9-0.5,3.9-0.5c0.5,0,0.8,0.1,1.1,0.1c0.2,0.1,0.4,0.1,0.4,0.1s-0.1,0-0.4,0
					c-0.2,0-0.6,0-1.1,0.1c-0.9,0.2-2.1,0.5-3.6,1.1c-1.4,0.6-3.1,1.3-4.8,2.3c-0.8,0.5-1.7,1-2.5,1.5c-0.8,0.5-1.7,1.1-2.5,1.8
					c-0.8,0.6-1.6,1.3-2.4,1.9c-0.7,0.7-1.5,1.3-2.1,2c-0.7,0.7-1.3,1.4-1.8,2c-0.5,0.7-1,1.3-1.4,2c-0.4,0.6-0.7,1.2-1,1.8
					c-0.3,0.6-0.5,1.1-0.6,1.5c-0.1,0.4-0.3,0.8-0.3,1C52.7,152.6,52.6,152.8,52.6,152.8z"/>
			</g>
			<g>
				<path fill="#B062DD" d="M57.2,179c0,0,0.5-0.6,1.5-1.6c1-1,2.3-2.4,4.1-4c0.9-0.8,1.8-1.6,2.9-2.5c1-0.9,2.2-1.8,3.3-2.7
					c1.2-0.9,2.4-1.8,3.7-2.7c0.6-0.4,1.3-0.9,1.9-1.3c0.7-0.4,1.3-0.9,2-1.3c1.3-0.9,2.7-1.6,4.1-2.4c1.4-0.8,2.8-1.4,4.1-2.1
					c1.4-0.6,2.7-1.2,3.9-1.7c1.3-0.5,2.5-0.9,3.6-1.3c1.1-0.3,2.2-0.6,3.1-0.9c0.9-0.3,1.8-0.4,2.5-0.5c1.4-0.2,2.1-0.4,2.1-0.4
					s-0.7,0.3-2.1,0.7c-0.6,0.2-1.5,0.5-2.3,0.8c-0.9,0.4-1.9,0.8-3,1.2c-1.1,0.5-2.2,1-3.5,1.6c-1.2,0.6-2.5,1.2-3.8,1.9
					c-1.3,0.7-2.6,1.4-3.9,2.2c-1.3,0.8-2.7,1.5-4,2.4c-0.7,0.4-1.3,0.8-2,1.2c-0.6,0.4-1.3,0.9-1.9,1.3c-1.3,0.8-2.5,1.7-3.7,2.5
					c-1.2,0.9-2.4,1.6-3.4,2.4c-1.1,0.8-2.1,1.5-3.1,2.2c-1.9,1.4-3.4,2.6-4.5,3.4C57.8,178.6,57.2,179,57.2,179z"/>
			</g>
			<g>
				<path fill="#A88E7D" d="M83.1,150.4c0,0,0.1-0.1,0.4-0.2c0.1,0,0.3-0.1,0.5-0.2c0.2,0,0.4-0.1,0.6-0.2c0.2-0.1,0.4-0.2,0.6-0.3
					c0.2-0.1,0.4-0.3,0.7-0.4c0.2-0.1,0.5-0.3,0.7-0.4c0.2-0.2,0.5-0.3,0.7-0.5c0.5-0.4,0.9-0.7,1.3-1.1c0.2-0.2,0.4-0.3,0.6-0.5
					c0.2-0.2,0.3-0.3,0.5-0.5c0.2-0.2,0.3-0.3,0.4-0.4c0.1-0.1,0.2-0.3,0.3-0.4c0.2-0.2,0.3-0.3,0.3-0.3s0,0.1-0.1,0.4
					c-0.1,0.2-0.2,0.6-0.5,1c-0.2,0.4-0.5,0.9-0.9,1.3c-0.2,0.2-0.4,0.5-0.6,0.6c-0.2,0.2-0.5,0.4-0.7,0.6c-0.3,0.2-0.5,0.3-0.8,0.5
					c-0.3,0.2-0.5,0.3-0.8,0.4c-0.3,0.1-0.5,0.2-0.8,0.3c-0.3,0.1-0.5,0.1-0.8,0.2c-0.5,0.1-0.8,0.1-1.1,0.1
					C83.3,150.4,83.1,150.4,83.1,150.4z"/>
			</g>
			<g>
				<path fill="#A88E7D" d="M71,156.4c0,0,0.1-0.1,0.3-0.1c0.2-0.1,0.4-0.2,0.7-0.3c0.1-0.1,0.3-0.2,0.4-0.2
					c0.1-0.1,0.3-0.2,0.4-0.3c0.3-0.2,0.6-0.4,0.9-0.7c0.3-0.3,0.5-0.5,0.8-0.8c0.1-0.1,0.2-0.2,0.3-0.4c0.1-0.1,0.2-0.3,0.3-0.4
					c0.2-0.2,0.3-0.4,0.4-0.6c0.1-0.1,0.2-0.2,0.2-0.2s0,0.1,0,0.3c0,0.2,0,0.5-0.1,0.7c0,0.1-0.1,0.3-0.2,0.5
					c-0.1,0.2-0.2,0.3-0.3,0.5c-0.1,0.2-0.2,0.4-0.4,0.5c-0.1,0.2-0.3,0.3-0.4,0.5c-0.2,0.1-0.4,0.3-0.5,0.4
					c-0.2,0.1-0.4,0.2-0.6,0.3c-0.2,0.1-0.4,0.2-0.5,0.2c-0.2,0-0.4,0.1-0.5,0.1c-0.3,0.1-0.6,0-0.8,0C71.2,156.4,71,156.4,71,156.4
					z"/>
			</g>
			<g>
				<path fill="#A88E7D" d="M62.3,163.7c0,0,0.1-0.3,0.4-0.7c0.3-0.4,0.7-0.8,1.2-1.2c0.5-0.4,1-0.7,1.4-0.9
					c0.4-0.2,0.8-0.3,0.8-0.3s-0.1,0.3-0.4,0.7c-0.3,0.4-0.7,0.8-1.2,1.2c-0.5,0.4-1,0.7-1.4,0.9C62.6,163.7,62.3,163.7,62.3,163.7z
					"/>
			</g>
			<g>
				<path fill="#A88E7D" d="M57.2,167.8c0,0-0.1-0.2-0.1-0.4c0-0.2,0-0.5,0.1-0.7c0.1-0.2,0.3-0.5,0.4-0.6c0.2-0.1,0.4-0.2,0.4-0.2
					s0.1,0.2,0.1,0.4c0,0.2,0,0.5-0.1,0.7c-0.1,0.2-0.3,0.5-0.4,0.6C57.4,167.8,57.2,167.8,57.2,167.8z"/>
			</g>
		</g>
		<g>
			<path fill="#9B40C6" stroke="#5C0A8C" stroke-width="2" stroke-miterlimit="10" d="M165.6,174.2c0,0,10.1-17.3,5.8-26.7
				c-4.3-9.3-16.4-16-24.2-15.3c-16.1,1.3-15.2,8.9-19.4,22.4c-4.2,13.5,37.8,20.1,37.8,20.1"/>
			<path fill="#6C269E" d="M164.8,173.8c-5.1-0.9-30.1-5.6-35.5-14.1c-1-1.6-1.2-3.1-0.7-4.7c0.7-2.2,1.2-4.2,1.7-6.1
				c2.6-9.5,3.9-14.4,15.7-15.7c3.8,2.2,6.6,5.7,6.8,9.8c1.8-0.1,4.4-0.3,6,0.3c4.2,1.7,5.8,7.3,8.3,10.1c1.2,1.4,2.6,2.5,4,3.6
				C169.8,165.1,164.9,173.6,164.8,173.8z"/>
			
				<linearGradient id="SVGID_2_" gradientUnits="userSpaceOnUse" x1="149.865" y1="236.2849" x2="203.2472" y2="236.2849" gradientTransform="matrix(-1 0 0 -1 323.0977 396)">
				<stop  offset="1.670000e-02" style="stop-color:#8C715E"/>
				<stop  offset="1" style="stop-color:#7B553F"/>
			</linearGradient>
			<path fill="url(#SVGID_2_)" stroke="#35261B" stroke-width="3" stroke-miterlimit="10" d="M127.6,150.4c-0.2-2.3,1.9-4.4,3.2-5
				c0.5-0.2,0.7-13.2,8.4-13.1c5.7,0,10.3,4.5,10.3,10.1c0,2.4-2.2,5.4-2.3,6.3c0.7-0.4,1.8-3.3,6.1-3.3c3.6,0,6.5,2.8,6.5,6.3
				c0,2.1-2.9,5-2.7,5.1c0.2,0.1,3.2-2.4,5-1.9c3.2,0,5.8,2.5,5.8,5.7c0,0.5-0.1,1-0.2,1.5c0.4-0.1,0.8-0.2,1.2-0.2
				c2.3,0,4.2,1.8,4.2,4.1s-1.9,4.1-4.2,4.1c-2,3.7-10.3,17.1-10.3,17.1l-38.8-20.9C119.9,166.2,127.9,153.4,127.6,150.4z"/>
			<path fill="#CC937A" stroke="#AF6C54" stroke-width="0.5" stroke-miterlimit="10" d="M135.8,137.6c-1.4,2.3,0.3,3.8,2.7,5.2
				c2.4,1.4,4.5,2.2,5.9-0.1c1.4-2.3,0.6-5.3-1.8-6.7C140.3,134.6,137.2,135.3,135.8,137.6z"/>
			<path fill="#CC937A" stroke="#AF6C54" stroke-width="0.5" stroke-miterlimit="10" d="M151.5,149c-0.9,1.4,0.2,2.4,1.7,3.2
				c1.5,0.9,2.9,1.4,3.7-0.1c0.9-1.4,0.4-3.3-1.1-4.2C154.3,147.1,152.4,147.6,151.5,149z"/>
			<path fill="#CC937A" stroke="#AF6C54" stroke-width="0.5" stroke-miterlimit="10" d="M160.8,157.9c-0.7,1.2,0.2,1.9,1.4,2.6
				c1.2,0.7,2.3,1.1,3,0c0.7-1.2,0.3-2.7-0.9-3.4C163.1,156.4,161.6,156.8,160.8,157.9z"/>
			<path fill="#CC937A" stroke="#AF6C54" stroke-width="0.5" stroke-miterlimit="10" d="M168.6,164.1c-0.8,0.4-0.6,1.1-0.2,2
				c0.4,0.8,0.9,1.4,1.7,1s1.2-1.4,0.7-2.2C170.4,164.1,169.4,163.7,168.6,164.1z"/>
			<g>
				<path fill="#35261B" d="M140.5,150.7c0,0-0.1,0-0.4,0c-0.3,0-0.6,0-1-0.1c-0.2,0-0.5-0.1-0.7-0.2c-0.3-0.1-0.5-0.2-0.8-0.3
					c-0.3-0.1-0.5-0.2-0.8-0.3c-0.3-0.1-0.5-0.3-0.8-0.4c-0.2-0.2-0.5-0.4-0.7-0.5c-0.2-0.2-0.4-0.4-0.6-0.6
					c-0.2-0.2-0.4-0.4-0.5-0.6c-0.1-0.2-0.3-0.4-0.4-0.6c-0.2-0.4-0.3-0.7-0.4-1c-0.1-0.2-0.1-0.4-0.1-0.4s0.1,0.1,0.3,0.3
					c0.2,0.2,0.4,0.5,0.7,0.7c0.2,0.1,0.3,0.3,0.5,0.5c0.2,0.2,0.4,0.3,0.6,0.5c0.4,0.3,0.8,0.6,1.3,0.9c0.5,0.3,0.9,0.6,1.4,0.8
					c0.2,0.1,0.4,0.3,0.7,0.3c0.2,0.1,0.4,0.2,0.6,0.3c0.4,0.2,0.7,0.3,1,0.4C140.4,150.6,140.5,150.7,140.5,150.7z"/>
			</g>
			<g>
				<path fill="#35261B" d="M153.2,156.6c0,0-0.1,0-0.3,0.1c-0.2,0-0.5,0.1-0.8,0.1c-0.2,0-0.4,0-0.6,0c-0.2,0-0.4-0.1-0.6-0.1
					c-0.2-0.1-0.4-0.1-0.6-0.2c-0.2-0.1-0.4-0.2-0.6-0.4c-0.2-0.2-0.4-0.3-0.5-0.5c-0.2-0.1-0.3-0.4-0.4-0.5
					c-0.1-0.2-0.3-0.3-0.3-0.5c-0.1-0.2-0.1-0.4-0.2-0.5c-0.1-0.3-0.1-0.6-0.1-0.8c0-0.2,0-0.3,0-0.3s0.1,0.1,0.2,0.3
					c0.1,0.2,0.2,0.4,0.4,0.6c0.1,0.1,0.2,0.3,0.3,0.4c0.1,0.1,0.2,0.3,0.4,0.4c0.1,0.1,0.3,0.3,0.4,0.4c0.2,0.1,0.3,0.2,0.5,0.4
					c0.2,0.1,0.3,0.2,0.5,0.3c0.2,0.1,0.3,0.2,0.5,0.3c0.2,0.1,0.3,0.2,0.5,0.2c0.2,0.1,0.3,0.1,0.5,0.2c0.3,0.1,0.6,0.2,0.8,0.2
					C153.1,156.6,153.2,156.6,153.2,156.6z"/>
			</g>
			<g>
				<path fill="#35261B" d="M162.6,164.3c0,0-0.1,0-0.3,0c-0.2,0-0.4,0.1-0.7,0c-0.3,0-0.7-0.1-1-0.3c-0.2-0.1-0.4-0.1-0.5-0.3
					c-0.2-0.1-0.3-0.2-0.5-0.3l-0.4-0.4c-0.2-0.1-0.2-0.3-0.4-0.4c-0.2-0.3-0.4-0.6-0.5-0.9c-0.1-0.3-0.2-0.5-0.2-0.7
					c0-0.2,0-0.3,0-0.3s0.1,0.1,0.2,0.2c0.1,0.1,0.3,0.3,0.5,0.5c0.2,0.2,0.4,0.4,0.7,0.6c0.2,0.2,0.5,0.5,0.8,0.7
					c0.1,0.1,0.3,0.2,0.4,0.3c0.1,0.1,0.3,0.2,0.4,0.3c0.1,0.1,0.3,0.2,0.4,0.3c0.1,0.1,0.2,0.1,0.4,0.2c0.2,0.2,0.5,0.2,0.6,0.3
					C162.5,164.2,162.6,164.3,162.6,164.3z"/>
			</g>
			<g>
				<path fill="#35261B" d="M166.9,168.7c0,0-0.1,0-0.2,0c-0.1,0-0.2,0-0.4-0.1c-0.2-0.1-0.4-0.2-0.5-0.4c-0.1-0.1-0.2-0.2-0.2-0.3
					l-0.2-0.3l-0.1-0.3c-0.1-0.1,0-0.2-0.1-0.3c0-0.2,0-0.4,0-0.6c0-0.2,0.1-0.3,0.2-0.4c0.1-0.1,0.1-0.1,0.1-0.1s0.1,0.2,0.3,0.5
					c0.1,0.3,0.3,0.6,0.5,0.9c0.1,0.2,0.2,0.3,0.2,0.5c0,0.1,0.1,0.2,0.1,0.2c0,0.1,0.1,0.1,0.1,0.2c0.1,0.1,0.1,0.3,0.2,0.4
					C166.9,168.6,166.9,168.7,166.9,168.7z"/>
			</g>
			<path opacity="0.5" fill="#473426" enable-background="new    " d="M121.7,165.7c2.5-4,7.5-12.6,7.2-15.5c0-0.2,0-0.3,0-0.5
				c13.6,3.8,30.5,14.5,36.9,23.1c-2.5,4.1-6.2,10.2-7.7,12.6L121.7,165.7z"/>
			<path fill="#9B40C6" stroke="#5C0A8C" stroke-width="2" stroke-miterlimit="10" d="M168.1,178.8c-2.1-2.9-26.4-24.6-44.3-25.9
				c-5.8,5.7-8.7,13.2-8.7,13.2s45.3,25.5,44.9,24.9C159.5,190.4,167.7,182.8,168.1,178.8z"/>
			<path fill="none" stroke="#35261B" stroke-miterlimit="10" d="M150,163.2"/>
			<path fill="#6C269E" d="M161.4,187.6c-0.9,1-1.5,1.7-1.8,2.3c-4.5-2.4-27.4-15.2-43.3-24.1c0.7-1.7,2.9-6.3,6.5-10.4
				c17.2,5,35.1,19.3,43.2,26.4C164.7,183.7,162.7,186,161.4,187.6z"/>
			<g>
				<path fill="#B062DD" d="M171.5,152.8c0,0,0-0.1-0.1-0.4c-0.1-0.2-0.2-0.6-0.3-1c-0.2-0.4-0.4-0.9-0.6-1.5
					c-0.3-0.6-0.6-1.2-1-1.8c-0.4-0.6-0.9-1.3-1.4-2c-0.6-0.7-1.2-1.4-1.8-2c-0.7-0.7-1.4-1.3-2.1-2c-0.7-0.7-1.5-1.3-2.4-1.9
					c-0.8-0.6-1.6-1.2-2.5-1.8c-0.8-0.5-1.7-1.1-2.5-1.5c-1.7-0.9-3.3-1.7-4.8-2.3c-1.4-0.6-2.7-1-3.6-1.1c-0.4-0.1-0.8-0.1-1.1-0.1
					c-0.2,0-0.4,0-0.4,0s0.1-0.1,0.4-0.1c0.2-0.1,0.6-0.1,1.1-0.1c1,0,2.3,0.1,3.9,0.5c1.6,0.4,3.4,1,5.2,1.9c1.8,0.8,3.7,2,5.4,3.3
					c0.8,0.7,1.7,1.3,2.4,2.1c0.8,0.7,1.5,1.5,2.1,2.2c0.7,0.8,1.2,1.5,1.7,2.3c0.5,0.8,0.9,1.5,1.3,2.3c0.3,0.7,0.6,1.4,0.8,2
					c0.2,0.6,0.3,1.2,0.3,1.6c0.1,0.5,0.1,0.8,0.1,1.1C171.5,152.6,171.5,152.8,171.5,152.8z"/>
			</g>
			<g>
				<path fill="#B062DD" d="M166.9,179c0,0-0.6-0.5-1.7-1.3c-1.1-0.8-2.6-2-4.5-3.4c-0.9-0.7-2-1.4-3.1-2.2
					c-1.1-0.8-2.3-1.6-3.4-2.4c-1.2-0.8-2.5-1.7-3.7-2.5c-0.6-0.4-1.3-0.9-1.9-1.3c-0.7-0.4-1.3-0.8-2-1.2c-1.3-0.9-2.7-1.6-4-2.4
					c-1.3-0.8-2.7-1.5-3.9-2.2c-1.3-0.7-2.6-1.3-3.8-1.9c-1.2-0.5-2.4-1.1-3.5-1.6c-1.1-0.4-2.1-0.8-3-1.2c-0.9-0.4-1.7-0.6-2.3-0.8
					c-1.3-0.5-2.1-0.7-2.1-0.7s0.8,0.1,2.1,0.4c0.7,0.1,1.5,0.2,2.5,0.5c0.9,0.3,2,0.5,3.1,0.9c1.1,0.4,2.3,0.8,3.6,1.3
					c1.3,0.5,2.6,1.1,3.9,1.7c1.3,0.7,2.7,1.3,4.1,2.1c1.4,0.8,2.8,1.5,4.1,2.4c0.7,0.4,1.3,0.9,2,1.3c0.7,0.4,1.3,0.9,1.9,1.3
					c1.3,0.9,2.5,1.8,3.7,2.7c1.2,0.9,2.3,1.8,3.3,2.7c1,0.9,2,1.7,2.9,2.5c1.8,1.6,3.2,3,4.1,4C166.4,178.4,166.9,179,166.9,179z"
					/>
			</g>
			<g>
				<path fill="#A88E7D" d="M141.1,150.4c0,0-0.2,0-0.4,0c-0.3,0-0.7,0-1.1-0.1c-0.2,0-0.5-0.1-0.8-0.2c-0.3-0.1-0.5-0.2-0.8-0.3
					c-0.3-0.1-0.6-0.2-0.8-0.4c-0.3-0.2-0.5-0.3-0.8-0.5c-0.2-0.2-0.5-0.4-0.7-0.6c-0.3-0.2-0.4-0.4-0.6-0.6
					c-0.4-0.4-0.7-0.9-0.9-1.3c-0.3-0.4-0.4-0.8-0.5-1c-0.1-0.3-0.1-0.4-0.1-0.4s0.1,0.1,0.3,0.3c0.1,0.1,0.2,0.2,0.3,0.4
					c0.1,0.1,0.3,0.3,0.4,0.4c0.2,0.2,0.3,0.3,0.5,0.5c0.2,0.2,0.4,0.3,0.6,0.5c0.4,0.4,0.9,0.7,1.3,1.1c0.2,0.2,0.5,0.3,0.7,0.5
					c0.2,0.2,0.5,0.3,0.7,0.4c0.2,0.1,0.5,0.3,0.7,0.4c0.2,0.1,0.4,0.2,0.6,0.3c0.2,0.1,0.4,0.2,0.6,0.2c0.2,0.1,0.3,0.1,0.5,0.2
					C140.9,150.4,141.1,150.4,141.1,150.4z"/>
			</g>
			<g>
				<path fill="#A88E7D" d="M153.1,156.4c0,0-0.1,0-0.3,0c-0.2,0-0.4,0.1-0.8,0c-0.2,0-0.3-0.1-0.5-0.1c-0.2,0-0.4-0.1-0.5-0.2
					c-0.2-0.1-0.4-0.2-0.6-0.3c-0.2-0.1-0.3-0.3-0.5-0.4c-0.1-0.2-0.3-0.3-0.4-0.5c-0.2-0.1-0.2-0.3-0.4-0.5
					c-0.1-0.2-0.2-0.3-0.3-0.5c-0.1-0.2-0.1-0.3-0.2-0.5c-0.1-0.3-0.1-0.6-0.1-0.7c0-0.2,0-0.3,0-0.3s0.1,0.1,0.2,0.2
					c0.1,0.1,0.2,0.4,0.4,0.6c0.1,0.1,0.2,0.2,0.3,0.4c0.1,0.1,0.2,0.2,0.3,0.4c0.2,0.3,0.5,0.5,0.8,0.8c0.3,0.2,0.6,0.5,0.9,0.7
					c0.1,0.1,0.3,0.2,0.4,0.3c0.1,0.1,0.3,0.2,0.4,0.2c0.2,0.2,0.5,0.2,0.7,0.3C153,156.3,153.1,156.4,153.1,156.4z"/>
			</g>
			<g>
				<path fill="#A88E7D" d="M161.9,163.7c0,0-0.3-0.1-0.8-0.3c-0.4-0.2-0.9-0.5-1.4-0.9c-0.5-0.4-0.9-0.8-1.2-1.2
					c-0.3-0.4-0.4-0.7-0.4-0.7s0.3,0.1,0.8,0.3c0.4,0.2,1,0.5,1.4,0.9c0.5,0.4,0.9,0.8,1.2,1.2C161.8,163.4,161.9,163.7,161.9,163.7
					z"/>
			</g>
			<g>
				<path fill="#A88E7D" d="M167,167.8c0,0-0.2-0.1-0.4-0.2c-0.2-0.1-0.3-0.4-0.4-0.6c-0.1-0.2-0.1-0.5-0.1-0.7
					c0-0.2,0.1-0.4,0.1-0.4s0.2,0.1,0.4,0.2c0.2,0.1,0.3,0.4,0.4,0.6c0.1,0.2,0.1,0.5,0.1,0.7C167.1,167.6,167,167.8,167,167.8z"/>
			</g>
		</g>
		<g>
			
				<linearGradient id="SVGID_3_" gradientUnits="userSpaceOnUse" x1="14.9822" y1="200.4457" x2="52.9482" y2="200.4457" gradientTransform="matrix(0.9922 0.125 0.125 -0.9922 -24.8729 386.4285)">
				<stop  offset="1.670000e-02" style="stop-color:#8C715E"/>
				<stop  offset="1" style="stop-color:#7B553F"/>
			</linearGradient>
			<path fill="url(#SVGID_3_)" stroke="#35261B" stroke-width="3" stroke-miterlimit="10" d="M16.8,205.5c0.1-0.4-3.1-21.4,0-24.5
				c3.1-3.1,28.3-8,33.7,0.2s-0.1,23-0.6,25.5C49.3,209,16.8,205.5,16.8,205.5z"/>
			<path opacity="0.5" fill="#473426" enable-background="new    " d="M47.9,192.5c-3.3-2.6-4.6-7.5-8-9.7c-5-3.2-11.6-1.2-13.4,4
				c-2.3,6.4-4.1,9.5-9,12.2c0.2,1.5,0.3,3.1,0.5,4.9c0,0.2,0,0.3,0.1,0.4c4,0.4,18.3,1.9,26.3,1.9c2.8,0,3.9-0.2,4.4-0.3
				c0.1-0.3,0.2-0.6,0.3-1c0.6-2,1.6-5.5,2.2-9.3C50.3,194.6,49.2,193.6,47.9,192.5z"/>
			<g>
				
					<linearGradient id="SVGID_4_" gradientUnits="userSpaceOnUse" x1="26.3058" y1="204.6191" x2="40.7025" y2="204.6191" gradientTransform="matrix(1 0 0 -1 0 396)">
					<stop  offset="1.670000e-02" style="stop-color:#8C715E"/>
					<stop  offset="1" style="stop-color:#7B553F"/>
				</linearGradient>
				<path fill="url(#SVGID_4_)" stroke="#35261B" stroke-width="2" stroke-miterlimit="10" d="M26.9,199.8
					c-1.2-5.7-1.2-14.7,6.2-16.6c8.5-2.2,7.9,9.2,7.3,14.7"/>
				<g>
					<path fill="#35261B" d="M40.5,194.6c0,0,0.4,0.2,1.1,0.6c0.3,0.2,0.7,0.4,1.1,0.7c0.4,0.2,0.8,0.6,1.2,0.9
						c0.4,0.3,0.8,0.6,1.1,1c0.2,0.2,0.3,0.3,0.5,0.5c0.1,0.2,0.3,0.3,0.4,0.5c0.2,0.3,0.4,0.6,0.5,0.8c0.1,0.2,0.2,0.3,0.2,0.3
						s-0.1-0.1-0.2-0.2c-0.2-0.1-0.3-0.4-0.6-0.6c-0.1-0.1-0.3-0.2-0.4-0.4c-0.2-0.1-0.4-0.2-0.5-0.4c-0.4-0.3-0.8-0.5-1.2-0.7
						c-0.4-0.2-0.9-0.4-1.3-0.5c-0.4-0.2-0.8-0.3-1.2-0.4c-0.7-0.2-1.2-0.3-1.2-0.3L40.5,194.6z"/>
				</g>
				<g>
					<path fill="#35261B" d="M40.9,193.9c0,0,0.1,0,0.3,0.1c0.2,0.1,0.4,0.1,0.8,0.2c0.4,0.1,0.8,0.2,1.2,0.4
						c0.4,0.2,0.8,0.4,1.2,0.6c0.8,0.4,1.5,0.9,2.1,1.3c0.5,0.4,0.9,0.6,0.9,0.6s-0.4-0.2-1-0.4c-0.6-0.2-1.5-0.5-2.3-0.8
						c-0.4-0.1-0.8-0.2-1.2-0.3c-0.4-0.1-0.8-0.1-1-0.1c-0.3,0-0.6,0-0.8,0c-0.2,0-0.3,0-0.3,0L40.9,193.9z"/>
				</g>
				<g>
					<path fill="#35261B" d="M30.3,188.5c0,0,0-0.1,0.1-0.2c0.1-0.1,0.1-0.3,0.3-0.5c0.1-0.2,0.3-0.4,0.6-0.6
						c0.2-0.2,0.5-0.4,0.8-0.5c0.2-0.1,0.3-0.1,0.5-0.2c0.1-0.1,0.3-0.1,0.5-0.1c0.3-0.1,0.6-0.1,0.8,0c0.2,0,0.4,0.1,0.6,0.1
						c0.1,0,0.2,0.1,0.2,0.1s-0.1,0-0.2,0.1c-0.1,0.1-0.3,0.1-0.5,0.2c-0.4,0.2-0.9,0.4-1.5,0.6c-0.3,0.1-0.5,0.2-0.7,0.4
						c-0.1,0.1-0.2,0.1-0.3,0.2c-0.1,0.1-0.2,0.1-0.3,0.2c-0.2,0.1-0.4,0.2-0.5,0.3C30.4,188.5,30.3,188.5,30.3,188.5z"/>
				</g>
				<g>
					<path fill="#35261B" d="M30.6,186.5c0,0,0.1-0.3,0.4-0.6c0.1-0.1,0.1-0.2,0.2-0.2c0.1-0.1,0.2-0.1,0.3-0.2
						c0.2-0.1,0.5-0.3,0.8-0.4c0.3-0.1,0.6-0.1,0.8-0.1c0.1,0,0.3,0,0.4,0c0.1,0,0.2,0,0.3,0.1c0.4,0.1,0.7,0.2,0.7,0.2
						s-0.3,0.2-0.6,0.3c-0.1,0-0.2,0.1-0.3,0.1c-0.1,0-0.2,0.1-0.3,0.1c-0.2,0.1-0.5,0.1-0.7,0.2c-0.2,0.1-0.4,0.2-0.7,0.2
						c-0.1,0-0.2,0-0.3,0.1c-0.1,0-0.2,0.1-0.3,0.1C30.9,186.4,30.6,186.5,30.6,186.5z"/>
				</g>
			</g>
		</g>
		<g>
			
				<linearGradient id="SVGID_5_" gradientUnits="userSpaceOnUse" x1="162.009" y1="232.7772" x2="202.1568" y2="194.4039" gradientTransform="matrix(1 0 0 -1 0 396)">
				<stop  offset="1.670000e-02" style="stop-color:#8C715E"/>
				<stop  offset="1" style="stop-color:#7B553F"/>
			</linearGradient>
			<path fill="url(#SVGID_5_)" stroke="#35261B" stroke-width="3" stroke-miterlimit="10" d="M100.6,150
				c-0.8-13.1,10.3-10.3,10.3-10.3s-5.8-2.6-3.9-9.2c4-9.2,15.5-6.1,15.5-6.1s-3.1-12.2,10.8-10.9s47,18.8,61.4,33.2
				C209,161.1,222,190,225.6,200s-4.5,10.9-9.4,10.1l-1.3-7.9c0,0-0.9-17.9-26.6-37.2c0,0,7.3,35.4-5.2,35
				c-12.5-0.4-2.9-17.9-19.5-31S101.5,164.4,100.6,150z"/>
			<g>
				<path fill="#35261B" d="M110.9,138.3c0,0,0.6,0.1,1.7,0.3c1.1,0.2,2.6,0.5,4.5,0.9c1.8,0.4,4,0.9,6.2,1.4
					c2.3,0.6,4.7,1.1,7.1,1.8c1.2,0.3,2.4,0.7,3.6,1c1.2,0.3,2.3,0.7,3.5,1c2.2,0.7,4.3,1.3,6.1,1.9c3.5,1.2,5.9,2,5.9,2
					s-2.4-0.6-6-1.6c-1.8-0.5-3.9-0.9-6.2-1.5c-1.1-0.3-2.3-0.5-3.5-0.8c-1.2-0.2-2.4-0.5-3.6-0.7c-2.4-0.5-4.9-0.9-7.2-1.3
					c-2.3-0.4-4.4-0.7-6.3-1c-1.8-0.3-3.4-0.5-4.4-0.6c-1.1-0.1-1.7-0.2-1.7-0.2L110.9,138.3z"/>
			</g>
			<g>
				<polygon fill="#35261B" points="122.9,123.2 153,133.4 122.1,125.7 				"/>
			</g>
			<g>
				<path fill="#35261B" d="M157.5,148.4c0,0,0.1,0,0.4,0.1c0.2,0.1,0.6,0.2,1,0.4c0.4,0.2,0.8,0.5,1.2,0.9c0.2,0.2,0.4,0.3,0.6,0.6
					c0.2,0.2,0.4,0.4,0.6,0.7c0.2,0.2,0.3,0.5,0.5,0.7c0.2,0.2,0.3,0.5,0.4,0.7c0.3,0.5,0.4,1,0.5,1.4c0.1,0.4,0.1,0.8,0.2,1
					c0,0.3,0,0.4,0,0.4s-0.1-0.1-0.2-0.4c-0.1-0.2-0.2-0.5-0.5-0.9c-0.1-0.2-0.2-0.4-0.3-0.6c-0.1-0.2-0.3-0.4-0.4-0.6
					c-0.1-0.2-0.3-0.4-0.4-0.7c-0.2-0.2-0.3-0.4-0.5-0.7c-0.2-0.2-0.3-0.4-0.5-0.6c-0.2-0.2-0.4-0.4-0.5-0.6
					c-0.2-0.2-0.3-0.4-0.5-0.5c-0.2-0.2-0.3-0.3-0.5-0.5c-0.3-0.3-0.6-0.5-0.8-0.7C157.6,148.6,157.5,148.4,157.5,148.4z"/>
			</g>
			<g>
				<path fill="#35261B" d="M160.2,135.3c0,0,0.2,0,0.4,0.1c0.3,0.1,0.6,0.1,1.1,0.3c0.2,0.1,0.5,0.2,0.7,0.3
					c0.3,0.1,0.5,0.3,0.7,0.4c0.2,0.2,0.5,0.3,0.7,0.6c0.2,0.2,0.4,0.5,0.6,0.7c0.2,0.3,0.3,0.5,0.5,0.8c0.2,0.3,0.2,0.6,0.4,0.8
					c0.1,0.3,0.2,0.5,0.2,0.8c0,0.3,0.1,0.5,0.1,0.7c0,0.2,0,0.4,0,0.6c0,0.2,0,0.3,0,0.5c0,0.3,0,0.4,0,0.4s0-0.1-0.1-0.4
					c0-0.1-0.1-0.3-0.1-0.4c-0.1-0.2-0.1-0.4-0.2-0.6c-0.1-0.2-0.2-0.4-0.2-0.6c-0.1-0.2-0.2-0.5-0.3-0.7c-0.1-0.2-0.2-0.5-0.4-0.7
					c-0.2-0.2-0.3-0.5-0.5-0.7c-0.2-0.2-0.4-0.4-0.5-0.6c-0.2-0.2-0.4-0.4-0.6-0.6c-0.2-0.2-0.4-0.4-0.6-0.5
					c-0.2-0.1-0.4-0.3-0.6-0.4c-0.3-0.3-0.7-0.4-0.9-0.6C160.3,135.4,160.2,135.3,160.2,135.3z"/>
			</g>
			<g>
				<path fill="#A88E7D" d="M101.8,147.8c0,0,0-0.2,0.1-0.5c0-0.3,0.1-0.8,0.3-1.4c0.2-0.6,0.4-1.3,0.9-2.1c0.5-0.8,1.2-1.6,2.2-2.1
					c0.5-0.3,1-0.5,1.7-0.7c0.3-0.1,0.7-0.1,1-0.1c0.3,0,0.6,0,1,0c1.3,0.1,2.6,0.2,3.9,0.4c1.4,0.2,2.7,0.4,4.2,0.6
					c1.4,0.2,2.8,0.5,4.3,0.7c1.4,0.2,2.8,0.5,4.3,0.8c1.4,0.3,2.8,0.5,4.1,0.8c2.7,0.5,5.1,1.1,7.2,1.6c2.1,0.5,3.9,0.9,5.1,1.2
					c1.2,0.3,1.9,0.5,1.9,0.5s-0.7,0-2-0.1c-1.3-0.1-3.1-0.3-5.2-0.6c-2.2-0.3-4.7-0.6-7.3-1.1c-1.3-0.2-2.7-0.4-4.1-0.7
					c-1.4-0.2-2.8-0.5-4.2-0.7c-2.8-0.5-5.7-1-8.3-1.5c-1.3-0.2-2.6-0.5-3.8-0.6c-0.3,0-0.6-0.1-0.9-0.1c-0.3,0-0.5,0-0.8,0
					c-0.4,0.1-1,0.2-1.4,0.4c-0.9,0.4-1.6,1-2.2,1.7c-0.5,0.6-0.9,1.3-1.1,1.9c-0.2,0.6-0.4,1-0.5,1.3
					C101.8,147.6,101.8,147.8,101.8,147.8z"/>
			</g>
			<g>
				<path fill="#A88E7D" d="M108.2,131.1c0,0,0.1-0.1,0.2-0.4c0.1-0.3,0.4-0.7,0.7-1.1c0.3-0.5,0.8-1,1.4-1.5
					c0.6-0.5,1.4-1.1,2.3-1.5c1.8-0.9,4.3-1.4,6.8-1.2c1.3,0.1,2.5,0.3,3.8,0.5c1.3,0.2,2.5,0.5,3.8,0.8c2.5,0.6,5.1,1.2,7.4,1.8
					c2.4,0.6,4.6,1.2,6.4,1.8c1.9,0.6,3.4,1.1,4.5,1.4c0.5,0.2,1,0.3,1.2,0.4c0.3,0.1,0.4,0.2,0.4,0.2s-0.2,0-0.5-0.1
					c-0.3,0-0.7-0.1-1.3-0.2c-1.1-0.2-2.7-0.4-4.7-0.8c-1.9-0.3-4.2-0.8-6.6-1.3c-1.2-0.2-2.4-0.5-3.7-0.8c-1.3-0.3-2.5-0.5-3.8-0.8
					c-1.3-0.3-2.5-0.5-3.8-0.8c-1.2-0.2-2.5-0.5-3.6-0.7c-2.3-0.3-4.5,0-6.3,0.6c-0.9,0.3-1.6,0.7-2.3,1.1c-0.6,0.4-1.2,0.8-1.6,1.2
					c-0.4,0.4-0.7,0.7-0.9,0.9C108.3,130.9,108.2,131.1,108.2,131.1z"/>
			</g>
			<g>
				<path fill="#A88E7D" d="M124,121.2c0,0,0-0.2,0-0.5c0-0.3,0-0.7,0-1.3c0.1-0.5,0.3-1.3,0.8-1.9c0.5-0.7,1.2-1.3,2.1-1.8
					c0.9-0.5,2-0.8,3.2-1c0.6-0.1,1.2-0.1,1.8-0.1c0.7,0.1,1.2,0.1,1.8,0.2c1.2,0.2,2.5,0.5,3.7,0.8c1.3,0.3,2.5,0.6,3.8,1
					c1.3,0.3,2.5,0.8,3.7,1.2c1.2,0.4,2.4,0.9,3.5,1.3c1.1,0.4,2.2,0.9,3.2,1.3c1,0.5,2,0.9,2.8,1.3c0.9,0.4,1.7,0.8,2.4,1.2
					c0.7,0.4,1.3,0.7,1.8,1c1,0.6,1.5,0.9,1.5,0.9s-0.6-0.2-1.7-0.6c-1.1-0.4-2.6-1-4.4-1.6c-0.9-0.3-1.9-0.7-2.9-1
					c-1-0.4-2.2-0.7-3.3-1.1c-1.1-0.4-2.3-0.8-3.5-1.1c-1.2-0.4-2.4-0.8-3.7-1.1c-1.2-0.4-2.4-0.7-3.7-1c-1.2-0.3-2.4-0.6-3.5-0.9
					c-0.6-0.1-1.2-0.2-1.7-0.3c-0.5-0.1-1.1-0.1-1.6-0.1c-1,0.1-2,0.3-2.8,0.6c-0.8,0.3-1.5,0.8-2,1.3c-0.5,0.5-0.8,1.1-1,1.6
					c-0.2,0.5-0.3,0.9-0.3,1.2C124,121.1,124,121.2,124,121.2z"/>
			</g>
			<path opacity="0.5" fill="#473426" enable-background="new    " d="M217.3,208.9c0.6,0.1,1.2,0.1,1.7,0.1c1.5,0,4.1-0.3,5.3-1.9
				c1-1.4,1-3.6-0.1-6.6c-1.5-4.1-4.3-10.9-8-18.4c-2,0.7-3.5,1.3-3.9,1.5c-0.7,0.3-5-3.2-9.5-7c12.1,13.6,13.2,24.3,13.3,25.5
				L217.3,208.9z"/>
			<g>
				<line fill="none" x1="188.3" y1="165.8" x2="185.4" y2="157"/>
				<polygon fill="#35261B" points="187,166.3 185.4,157 189.6,165.4 				"/>
			</g>
		</g>
		<g>
			
				<linearGradient id="SVGID_6_" gradientUnits="userSpaceOnUse" x1="125.2861" y1="195.1028" x2="125.2861" y2="109.2781" gradientTransform="matrix(1 0 0 -1 0 396)">
				<stop  offset="0.1056" style="stop-color:#00A19A"/>
				<stop  offset="1" style="stop-color:#008DA0"/>
			</linearGradient>
			<path fill="url(#SVGID_6_)" stroke="#004C45" stroke-width="2" stroke-miterlimit="10" d="M8.3,223.2c0-28.8,29.3-24.5,49.1-26.2
				c19.9-1.7,115.8,4.4,116.9,5.2c1.1,0.9,18,2.2,25.4,3.1c0-5.2,0-10.9,0-10.9s29-10.5,37.9-6.1c9,4.4,3.7,41.1-5.8,56.3
				c-10.1,16.2-39,42.1-121,42.1C28.9,286.6,8.3,244.5,8.3,223.2z"/>
			<path opacity="0.4" fill="#004C45" enable-background="new    " d="M201.1,204.8c0.5,0.3,14.3-0.7,20.4,5.2
				c6.2,5.8,8.2,22.9-1.2,35.4c-9.4,12.5-9.7,5.2-9.7,5.2s14.2-36.3-11.2-45.3L201.1,204.8z"/>
			<g>
				<path fill="#004C45" d="M197.3,204.1c0,0,0.2,0,0.6,0.1c0.4,0.1,1,0.2,1.7,0.5c1.4,0.5,3.4,1.3,5.5,2.8c1,0.7,2.1,1.6,3.1,2.7
					c1,1,1.9,2.3,2.7,3.6c0.8,1.3,1.5,2.8,2,4.3c0.3,0.8,0.5,1.6,0.7,2.3c0.2,0.8,0.4,1.6,0.5,2.4c0.3,1.6,0.4,3.2,0.5,4.8
					c0.1,1.6,0,3.2-0.1,4.7c-0.1,0.8-0.1,1.5-0.2,2.2c-0.1,0.7-0.2,1.4-0.3,2.1c-0.2,1.4-0.5,2.7-0.7,3.9c-0.2,1.2-0.5,2.3-0.7,3.2
					c-0.2,1-0.5,1.8-0.7,2.5c-0.4,1.4-0.6,2.1-0.6,2.1s0.2-0.8,0.5-2.2c0.2-0.7,0.4-1.5,0.6-2.5c0.2-1,0.4-2,0.6-3.2
					c0.2-1.2,0.4-2.5,0.5-3.9c0.1-0.7,0.2-1.4,0.2-2.1c0-0.7,0.1-1.5,0.1-2.2c0-1.5,0-3.1-0.1-4.6c-0.1-1.6-0.3-3.2-0.6-4.7
					c-0.1-0.8-0.4-1.5-0.6-2.3c-0.2-0.8-0.5-1.5-0.8-2.2c-0.6-1.5-1.3-2.8-2.1-4.1c-0.8-1.2-1.7-2.4-2.7-3.3c-1-0.9-2-1.7-3-2.4
					c-2-1.3-3.9-2-5.2-2.4c-0.7-0.2-1.2-0.3-1.5-0.4c-0.4-0.1-0.5-0.1-0.5-0.1L197.3,204.1z"/>
			</g>
			<g>
				<path fill="#004C45" d="M199.8,204.6c0,0,0.5-0.3,1.4-0.7c0.4-0.2,1-0.5,1.7-0.8c0.7-0.3,1.4-0.5,2.3-0.8
					c0.9-0.2,1.8-0.5,2.8-0.6c1-0.2,2-0.2,3.1-0.3c0.5,0,1.1,0,1.7,0c0.6,0,1.1,0.1,1.7,0.1c1.1,0.1,2.3,0.3,3.4,0.5
					c1.1,0.2,2.2,0.5,3.3,0.8c1.1,0.3,2.1,0.6,3.2,0.9c2,0.6,3.9,1.2,5.5,1.8c3.2,1.1,5.3,1.9,5.3,1.9s-2.2-0.6-5.4-1.6
					c-1.6-0.5-3.5-1-5.6-1.5c-1-0.3-2.1-0.5-3.2-0.7c-1.1-0.2-2.2-0.4-3.3-0.6c-1.1-0.2-2.2-0.3-3.3-0.4c-0.5,0-1.1,0-1.6-0.1
					c-0.5,0-1.1,0-1.6,0c-1,0.1-2,0.2-2.9,0.4c-0.9,0.1-1.8,0.5-2.5,0.7c-0.8,0.3-1.5,0.5-2,0.9c-0.6,0.3-1.1,0.5-1.5,0.8
					c-0.8,0.5-1.3,0.8-1.3,0.8L199.8,204.6z"/>
			</g>
			<g>
				<path fill="#004C45" d="M199.5,204.2c0,0,0.4-0.3,1.2-1c0.2-0.2,0.4-0.3,0.6-0.5c0.3-0.2,0.5-0.4,0.9-0.5c0.3-0.2,0.6-0.4,1-0.6
					c0.3-0.2,0.7-0.4,1.1-0.6c0.4-0.2,0.8-0.4,1.2-0.6c0.4-0.2,0.9-0.3,1.4-0.5c0.5-0.2,1-0.3,1.5-0.5c0.5-0.1,1-0.3,1.5-0.4
					c1.1-0.2,2.1-0.4,3.3-0.5c1.1-0.2,2.3-0.2,3.4-0.2c1.1,0,2.3,0,3.4,0.1c1.1,0.1,2.2,0.2,3.3,0.4c1,0.2,2.1,0.3,3,0.6
					c0.9,0.2,1.8,0.4,2.6,0.7c0.8,0.2,1.6,0.4,2.2,0.7c0.7,0.2,1.2,0.4,1.7,0.6c0.9,0.3,1.5,0.5,1.5,0.5s-0.5-0.2-1.5-0.5
					c-0.5-0.2-1-0.3-1.7-0.5c-0.7-0.2-1.4-0.4-2.2-0.5c-0.8-0.2-1.7-0.4-2.7-0.5c-0.9-0.2-2-0.3-3-0.4c-1-0.1-2.1-0.2-3.2-0.2
					c-1.1-0.1-2.2,0-3.3,0c-1.1,0.1-2.2,0.1-3.3,0.4c-1.1,0.1-2.1,0.4-3.1,0.7c-0.5,0.1-1,0.3-1.4,0.5c-0.5,0.2-0.9,0.3-1.4,0.5
					c-0.4,0.2-0.8,0.4-1.2,0.5c-0.4,0.2-0.8,0.4-1.1,0.6c-0.4,0.2-0.7,0.4-1,0.6c-0.3,0.2-0.6,0.4-0.8,0.6c-0.3,0.2-0.5,0.4-0.7,0.5
					c-0.2,0.2-0.4,0.4-0.6,0.5c-0.7,0.6-1.1,1-1.1,1L199.5,204.2z"/>
			</g>
			<g>
				<path fill="#15CCBE" d="M197.2,205.9c0,0,0.9,0.1,2.3,0.5c1.4,0.4,3.4,1.2,5.5,2.7c1,0.7,2.1,1.7,3,2.8c0.5,0.5,0.9,1.1,1.4,1.8
					c0.4,0.6,0.9,1.3,1.2,2c0.8,1.4,1.4,2.9,1.9,4.5c0.2,0.8,0.5,1.6,0.6,2.4l0.3,1.2c0.1,0.4,0.1,0.8,0.2,1.2l0.2,1.2l0.1,1.2
					c0.1,0.8,0.1,1.7,0.1,2.5c0,0.4,0,0.8,0,1.2c0,0.4,0,0.8,0,1.2c0,0.8,0,1.6-0.1,2.4c-0.1,0.8-0.1,1.5-0.2,2.3
					c-0.1,0.7-0.2,1.5-0.3,2.2c-0.2,1.4-0.5,2.7-0.7,4c-0.2,1.2-0.6,2.3-0.8,3.3c-0.2,1-0.5,1.8-0.7,2.5c-0.4,1.4-0.7,2.2-0.7,2.2
					s0.2-0.8,0.5-2.2c0.2-0.7,0.4-1.6,0.5-2.6c0.2-1,0.4-2.1,0.6-3.3c0.2-1.2,0.4-2.5,0.6-4c0.1-0.7,0.2-1.4,0.2-2.2
					c0.1-0.7,0.1-1.5,0.2-2.3c0.1-0.8,0.1-1.6,0.1-2.3c0-0.4,0-0.8,0-1.2c0-0.4,0-0.8,0-1.2c0-0.8,0-1.6-0.1-2.4l-0.1-1.2l-0.2-1.2
					c-0.1-0.4-0.1-0.8-0.2-1.2l-0.2-1.2c-0.1-0.8-0.4-1.6-0.6-2.4c-0.5-1.5-1-3-1.8-4.4c-0.7-1.4-1.5-2.6-2.4-3.7
					c-0.9-1.1-1.9-2-2.8-2.8c-1-0.8-1.9-1.4-2.8-1.9c-0.9-0.5-1.7-0.8-2.4-1.1C198,206,197.2,205.9,197.2,205.9z"/>
			</g>
			<path opacity="0.4" fill="#004C45" enable-background="new    " d="M192.4,224c0.5-8.9-5.4-14.6-9-19.5c-6-0.6-8.6-1-9.5-1.5
				c-3.6-0.9-75.4-5.5-105.9-5.5c-4.6,0-8.2,0.1-10.5,0.3c-3.2,0.3-6.5,0.4-10.1,0.5c-1.5,0.1-2.9,0.1-4.4,0.2
				c-2.9,25.4-16.8,27.5-18.2,35c-2.5,13.4,8.5,10.3,12.5,21.4c1.9,5.4,2.4,10.4,2.8,14.9c15.7,9.3,38.4,15.9,70.7,15.9
				c21,0,51.6-1.9,77.7-11.2c0.2-9-1.5-19.5,3.9-22.9c6.1-3.9,13.2-7.7,13.3-14.6C206,229.3,204.6,226.9,192.4,224z"/>
		</g>
		<g>
			<g>
				
					<linearGradient id="SVGID_7_" gradientUnits="userSpaceOnUse" x1="27.8581" y1="159.1233" x2="50.8691" y2="159.1233" gradientTransform="matrix(1 0 0 -1 0 396)">
					<stop  offset="1.670000e-02" style="stop-color:#8C715E"/>
					<stop  offset="1" style="stop-color:#7B553F"/>
				</linearGradient>
				<path fill="url(#SVGID_7_)" stroke="#35261B" stroke-width="3" stroke-miterlimit="10" d="M42.7,230.8c0,0-7.6-2.7-11.2-0.9
					c-3.6,1.8-8.8,15.3,8.4,14.5c17.2-0.8,9.1-7.7,9.1-7.7L42.7,230.8z"/>
				<path opacity="0.5" fill="#473426" enable-background="new    " d="M49.2,240.9c-0.1-0.8-0.2-1.6-0.4-2.4
					c-0.2-0.3-0.5-0.6-0.7-0.7l-6.1-5.8c-0.7-0.2-2.8-0.9-5.1-1.2c-0.8,3.9-1.5,8.5-1.2,12.3c0.9,0.1,1.9,0.2,2.8,0.2l0,0
					c0.4,0,0.9,0,1.3,0C46.4,242.8,48.5,241.7,49.2,240.9z"/>
			</g>
			<g>
				
					<linearGradient id="SVGID_8_" gradientUnits="userSpaceOnUse" x1="299.9237" y1="159.1233" x2="322.9347" y2="159.1233" gradientTransform="matrix(-1 0 0 -1 500.1504 396)">
					<stop  offset="1.670000e-02" style="stop-color:#8C715E"/>
					<stop  offset="1" style="stop-color:#7B553F"/>
				</linearGradient>
				<path fill="url(#SVGID_8_)" stroke="#35261B" stroke-width="3" stroke-miterlimit="10" d="M185.4,230.8c0,0,7.6-2.7,11.2-0.9
					c3.6,1.8,8.8,15.3-8.4,14.5c-17.2-0.8-9.1-7.7-9.1-7.7L185.4,230.8z"/>
				<path opacity="0.5" fill="#473426" enable-background="new    " d="M178.9,240.9c0.1-0.8,0.2-1.6,0.4-2.4
					c0.2-0.3,0.5-0.6,0.7-0.7l6.1-5.8c0.7-0.2,2.8-0.9,5.1-1.2c0.8,3.9,1.5,8.5,1.2,12.3c-0.9,0.1-1.9,0.2-2.8,0.2h0
					c-0.4,0-0.9,0-1.3,0C181.7,242.8,179.6,241.7,178.9,240.9z"/>
			</g>
			
				<linearGradient id="SVGID_9_" gradientUnits="userSpaceOnUse" x1="41.2814" y1="155.1856" x2="186.4458" y2="155.1856" gradientTransform="matrix(1 0 0 -1 0 396)">
				<stop  offset="1.670000e-02" style="stop-color:#8C715E"/>
				<stop  offset="1" style="stop-color:#7B553F"/>
			</linearGradient>
			<path fill="url(#SVGID_9_)" stroke="#35261B" stroke-width="3" stroke-miterlimit="10" d="M186.4,239.5
				c0,45.5-32.5,82.3-72.6,82.3c-40.1,0-72.6-36.9-72.6-82.3c0-45.5,32.5-79.7,72.6-79.7S186.4,194,186.4,239.5z"/>
			
				<linearGradient id="SVGID_10_" gradientUnits="userSpaceOnUse" x1="115.8562" y1="206.9044" x2="115.8561" y2="91.371" gradientTransform="matrix(1 0 0 -1 0 396)">
				<stop  offset="0" style="stop-color:#231C18"/>
				<stop  offset="1" style="stop-color:#000000"/>
			</linearGradient>
			<path fill="url(#SVGID_10_)" d="M174.3,234.9c0.3-4.2-2.6-7.1-6.2-8.4c1.7-1.9,2.5-4.4,1.6-7.2c-1-3.2-4.1-5.1-7.3-5.9
				c2.6-3.5,2.9-7.8,0.1-12c-2.5-3.7-6.8-5.4-10.9-4.9c-0.3-4.7-5.3-8.3-10.4-7.6c-0.9-5.5-4.3-9.9-10.9-9.8c-2.8,0-5.4,1.8-6.6,4.3
				c-0.1,0.2-0.1,0.3-0.2,0.5c-2.5-1.5-5.2-2.2-9-1.1c-4.5,1.4-8.7,5.1-9.7,9.6c-3.7-0.9-7.5,0.3-10.4,2.7c-1.1-2-3.1-3.2-6-2.6
				c-3,0.6-4.4,3.1-4.7,5.8c-5.9-2.4-12.4,1.9-12.4,8.7c-7.9,0.9-13.5,11.4-9.1,16.7c-2.5,2.7-4.1,8-4.4,10.5
				c-0.4,3.1-0.6,7.1,1.8,9.7c0.5,0.6,1.1,1,1.6,1.2c-4.9,4.9-3.7,12.9,1.9,16.6c-8,6.4-3.1,22.8,7.7,21.6c0.3,4.2,1.5,7.4,6,9.7
				c3.2,1.6,5.9,0.9,7.9-1.1c1.8,1.9,4.2,3,7.1,1.9c0.8-0.3,1.5-0.7,2.1-1.2c0.7,2,1.8,3.9,3.6,5.3c3.3,2.5,7.6,2.9,11.5,1.9
				c3.8-1,7.3-3.8,8.7-7.4c5.6,3.5,14,2.5,15.8-3.6c3.9,1.1,7.9-2.9,8.5-7.6c6.8,2.3,14.5-3.3,15.7-9.5c3.8,0.4,7.8-1.4,10.1-4.6
				c3.5-4.9,1.5-9.3-2.3-12.4c2.4-1.4,4.4-3.6,5.3-6.3c0.9-2.4-0.1-4.5-1.7-6.3C172,240.9,174.1,238.6,174.3,234.9z"/>
			<g>
				<path fill="#493B34" d="M71.1,210.5c0-6.8,6.5-11.1,12.4-8.7c0.3-2.7,1.7-5.2,4.7-5.8c2.9-0.6,4.9,0.6,6,2.6
					c3-2.4,6.8-3.6,10.4-2.7c1-4.5,5.2-8.2,9.7-9.6c3.8-1.1,6.5-0.4,9,1.1c0.1-0.2,0.1-0.3,0.2-0.5c1.1-2.5,3.7-4.3,6.6-4.3
					c6.6-0.1,10,4.4,10.9,9.8c5.2-0.7,10.1,2.9,10.4,7.6c4.1-0.6,8.4,1.1,10.9,4.9c0.9,1.4,1.5,2.8,1.8,4.3c0.5-2.5,0-5.2-1.8-7.8
					c-2.5-3.7-6.8-5.4-10.9-4.9c-0.3-4.7-5.3-8.3-10.4-7.6c-0.9-5.5-4.3-9.9-10.9-9.8c-2.8,0-5.4,1.8-6.6,4.3
					c-0.1,0.2-0.1,0.3-0.2,0.5c-2.5-1.5-5.2-2.2-9-1.1c-4.5,1.4-8.7,5.1-9.7,9.6c-3.7-0.9-7.5,0.3-10.4,2.7c-1.1-2-3.1-3.2-6-2.6
					c-3,0.6-4.4,3.1-4.7,5.8c-5.9-2.4-12.4,1.9-12.4,8.7c-6.6,0.7-11.6,8.3-10.4,13.8C61.6,216,65.9,211.1,71.1,210.5z"/>
			</g>
			<g>
				<ellipse fill="none" stroke="#35261B" stroke-width="0.5" stroke-miterlimit="10" cx="121.3" cy="301.9" rx="1.4" ry="1.4"/>
				<ellipse fill="none" stroke="#35261B" stroke-width="0.5" stroke-miterlimit="10" cx="111.8" cy="303.3" rx="1.4" ry="1.4"/>
				<ellipse fill="none" stroke="#35261B" stroke-width="0.5" stroke-miterlimit="10" cx="173.8" cy="256.9" rx="1.4" ry="1.4"/>
				<ellipse fill="none" stroke="#35261B" stroke-width="0.5" stroke-miterlimit="10" cx="150.3" cy="304" rx="2.1" ry="2.1"/>
				<ellipse fill="none" stroke="#35261B" stroke-width="0.5" stroke-miterlimit="10" cx="101" cy="301.4" rx="0.8" ry="0.8"/>
				<ellipse fill="none" stroke="#35261B" stroke-width="0.5" stroke-miterlimit="10" cx="92.4" cy="299.9" rx="1.5" ry="1.4"/>
				<ellipse fill="none" stroke="#35261B" stroke-width="0.5" stroke-miterlimit="10" cx="86.2" cy="293.8" rx="1.1" ry="1"/>
				<ellipse fill="none" stroke="#35261B" stroke-width="0.5" stroke-miterlimit="10" cx="80.3" cy="298.4" rx="1.5" ry="1.5"/>
				<ellipse fill="none" stroke="#35261B" stroke-width="0.5" stroke-miterlimit="10" cx="93.7" cy="309" rx="1.3" ry="1.3"/>
				<ellipse fill="none" stroke="#35261B" stroke-width="0.5" stroke-miterlimit="10" cx="81" cy="305.5" rx="0.8" ry="0.8"/>
				<ellipse fill="none" stroke="#35261B" stroke-width="0.5" stroke-miterlimit="10" cx="66.8" cy="289.7" rx="1.9" ry="1.8"/>
				<ellipse fill="none" stroke="#35261B" stroke-width="0.5" stroke-miterlimit="10" cx="165.4" cy="287.9" rx="1.9" ry="1.8"/>
				<ellipse fill="none" stroke="#35261B" stroke-width="0.5" stroke-miterlimit="10" cx="163.5" cy="276.8" rx="1.9" ry="1.8"/>
				<ellipse fill="none" stroke="#35261B" stroke-width="0.5" stroke-miterlimit="10" cx="47.6" cy="251.6" rx="1.1" ry="1"/>
				<ellipse fill="none" stroke="#35261B" stroke-width="0.5" stroke-miterlimit="10" cx="131.8" cy="295.8" rx="1.1" ry="1"/>
				<ellipse fill="none" stroke="#35261B" stroke-width="0.5" stroke-miterlimit="10" cx="52.9" cy="229.3" rx="1.1" ry="1.1"/>
				<ellipse fill="none" stroke="#35261B" stroke-width="0.5" stroke-miterlimit="10" cx="141.7" cy="299.6" rx="1.3" ry="1.3"/>
				<ellipse fill="none" stroke="#35261B" stroke-width="0.5" stroke-miterlimit="10" cx="144.6" cy="291.7" rx="1" ry="1"/>
				<ellipse fill="none" stroke="#35261B" stroke-width="0.5" stroke-miterlimit="10" cx="152.9" cy="286.5" rx="1.4" ry="1.4"/>
				<ellipse fill="none" stroke="#35261B" stroke-width="0.5" stroke-miterlimit="10" cx="132.1" cy="304" rx="0.7" ry="0.7"/>
				<ellipse fill="none" stroke="#35261B" stroke-width="0.5" stroke-miterlimit="10" cx="52.9" cy="269.1" rx="0.8" ry="0.8"/>
				<ellipse fill="none" stroke="#35261B" stroke-width="0.5" stroke-miterlimit="10" cx="174.3" cy="270.4" rx="0.5" ry="0.5"/>
				<ellipse fill="none" stroke="#35261B" stroke-width="0.5" stroke-miterlimit="10" cx="158.9" cy="294.8" rx="0.5" ry="0.5"/>
				<ellipse fill="none" stroke="#35261B" stroke-width="0.5" stroke-miterlimit="10" cx="177.3" cy="260.8" rx="0.5" ry="0.5"/>
				<ellipse fill="none" stroke="#35261B" stroke-width="0.5" stroke-miterlimit="10" cx="129" cy="316.3" rx="2.1" ry="2.1"/>
				<ellipse fill="none" stroke="#35261B" stroke-width="0.5" stroke-miterlimit="10" cx="109.8" cy="317.3" rx="1.1" ry="1"/>
				<ellipse fill="none" stroke="#35261B" stroke-width="0.5" stroke-miterlimit="10" cx="119.2" cy="307.7" rx="0.8" ry="0.8"/>
				<ellipse fill="none" stroke="#35261B" stroke-width="0.5" stroke-miterlimit="10" cx="182.1" cy="249.8" rx="0.8" ry="0.8"/>
				<ellipse fill="none" stroke="#35261B" stroke-width="0.5" stroke-miterlimit="10" cx="120.4" cy="316.8" rx="0.5" ry="0.5"/>
				<ellipse fill="none" stroke="#35261B" stroke-width="0.5" stroke-miterlimit="10" cx="175.2" cy="248.9" rx="0.5" ry="0.5"/>
				<ellipse fill="none" stroke="#35261B" stroke-width="0.5" stroke-miterlimit="10" cx="140.4" cy="308.4" rx="0.5" ry="0.5"/>
				<ellipse fill="none" stroke="#35261B" stroke-width="0.5" stroke-miterlimit="10" cx="57.9" cy="279.2" rx="0.5" ry="0.5"/>
				<ellipse fill="none" stroke="#35261B" stroke-width="0.5" stroke-miterlimit="10" cx="181.3" cy="224.5" rx="0.5" ry="0.5"/>
				<ellipse fill="none" stroke="#35261B" stroke-width="0.5" stroke-miterlimit="10" cx="44.6" cy="225" rx="0.5" ry="0.5"/>
				<ellipse fill="none" stroke="#35261B" stroke-width="0.5" stroke-miterlimit="10" cx="176.7" cy="224.5" rx="0.5" ry="0.5"/>
				<ellipse fill="none" stroke="#35261B" stroke-width="0.5" stroke-miterlimit="10" cx="105.9" cy="308.4" rx="0.7" ry="0.7"/>
			</g>
			<path fill="none" stroke="#231C18" stroke-width="7" stroke-linecap="round" stroke-miterlimit="10" d="M69.9,174.8
				c0,0,12.3-12.2,31.3-13.9"/>
			<path fill="none" stroke="#231C18" stroke-width="7" stroke-linecap="round" stroke-miterlimit="10" d="M154.6,174.8
				c0,0-12.3-12.2-31.3-13.9"/>
		</g>
	</g>
</g>
</svg>
