<?xml version="1.0" encoding="UTF-8" standalone="no"?>
<!-- Generator: Adobe Illustrator 16.0.0, SVG Export Plug-In . SVG Version: 6.00 Build 0)  -->

<svg
   xmlns:dc="http://purl.org/dc/elements/1.1/"
   xmlns:cc="http://creativecommons.org/ns#"
   xmlns:rdf="http://www.w3.org/1999/02/22-rdf-syntax-ns#"
   xmlns:svg="http://www.w3.org/2000/svg"
   xmlns="http://www.w3.org/2000/svg"
   xmlns:xlink="http://www.w3.org/1999/xlink"
   xmlns:sodipodi="http://sodipodi.sourceforge.net/DTD/sodipodi-0.dtd"
   xmlns:inkscape="http://www.inkscape.org/namespaces/inkscape"
   version="1.1"
   id="Layer_1"
   
   viewBox="0 0 250.89999 396.54999"
   enable-background="new 0 0 63.134 121.823"
   xml:space="preserve"
   inkscape:version="0.48.4 r9939"
   sodipodi:docname="Van.svg"><metadata
     id="metadata468"><rdf:RDF><cc:Work
         rdf:about=""><dc:format>image/svg+xml</dc:format><dc:type
           rdf:resource="http://purl.org/dc/dcmitype/StillImage" /></cc:Work></rdf:RDF></metadata><defs
     id="defs466"><linearGradient
       id="SVGID_1_-4"
       gradientUnits="userSpaceOnUse"
       x1="33.277802"
       y1="16.560801"
       x2="33.277802"
       y2="79.988503"><stop
         offset="0"
         style="stop-color:#CBCBCB"
         id="stop3459" /><stop
         offset="0.3163"
         style="stop-color:#8D8D8D"
         id="stop3461" /><stop
         offset="0.9286"
         style="stop-color:#666666"
         id="stop3463" /><stop
         offset="0.9745"
         style="stop-color:#333333"
         id="stop3465" /></linearGradient><linearGradient
       id="SVGID_2_-6"
       gradientUnits="userSpaceOnUse"
       x1="198.9575"
       y1="34.591999"
       x2="198.9575"
       y2="21.8144"
       gradientTransform="matrix(-1,0,0,1,232.251,0)"><stop
         offset="0"
         style="stop-color:#FBFBFB;stop-opacity:0"
         id="stop3502" /><stop
         offset="0.3635"
         style="stop-color:#FBFBFB"
         id="stop3504" /><stop
         offset="0.6426"
         style="stop-color:#FBFBFB;stop-opacity:0.7804"
         id="stop3506" /><stop
         offset="1"
         style="stop-color:#FBFBFB;stop-opacity:0"
         id="stop3508" /></linearGradient><linearGradient
       id="SVGID_3_-2-5"
       gradientUnits="userSpaceOnUse"
       x1="13.166"
       y1="46.262901"
       x2="53.4048"
       y2="46.262901"><stop
         offset="0"
         style="stop-color:#636668;stop-opacity:0"
         id="stop3521" /><stop
         offset="0.1426"
         style="stop-color:#636668"
         id="stop3523" /><stop
         offset="0.834"
         style="stop-color:#636668"
         id="stop3525" /><stop
         offset="1"
         style="stop-color:#636668;stop-opacity:0"
         id="stop3527" /></linearGradient><clipPath
       id="SVGID_5_-1-5"><path
         d="m 33.286,36.328 c 7.736,0 17.506,0.354 21.179,5.276 -0.157,5.627 -1.407,14.196 -1.563,14.979 -0.127,0.3 -0.625,0 -0.625,0 0,0 -4.376,-2.814 -18.99,-2.814 -14.614,0 -18.991,2.814 -18.991,2.814 0,0 -0.499,0.3 -0.625,0 -0.156,-0.782 -1.407,-9.352 -1.563,-14.979 3.672,-4.922 13.44,-5.276 21.178,-5.276 z"
         id="use3537"
         inkscape:connector-curvature="0" /></clipPath><linearGradient
       id="SVGID_6_-7"
       gradientUnits="userSpaceOnUse"
       x1="27.002899"
       y1="37.0149"
       x2="27.002899"
       y2="53.423901"><stop
         offset="0"
         style="stop-color:#FFFFFF;stop-opacity:0"
         id="stop3542" /><stop
         offset="0.4796"
         style="stop-color:#FFFFFF"
         id="stop3544" /><stop
         offset="0.7347"
         style="stop-color:#FFFFFF"
         id="stop3546" /><stop
         offset="1"
         style="stop-color:#FFFFFF;stop-opacity:0"
         id="stop3548" /></linearGradient><linearGradient
       id="SVGID_7_-5"
       gradientUnits="userSpaceOnUse"
       x1="29.9844"
       y1="37.0149"
       x2="29.9844"
       y2="53.423901"><stop
         offset="0"
         style="stop-color:#FFFFFF;stop-opacity:0"
         id="stop3553" /><stop
         offset="0.4796"
         style="stop-color:#FFFFFF"
         id="stop3555" /><stop
         offset="0.7347"
         style="stop-color:#FFFFFF"
         id="stop3557" /><stop
         offset="1"
         style="stop-color:#FFFFFF;stop-opacity:0"
         id="stop3559" /></linearGradient><linearGradient
       id="SVGID_8_-1"
       gradientUnits="userSpaceOnUse"
       x1="20.291"
       y1="32.769299"
       x2="20.410601"
       y2="34.563702"><stop
         offset="0"
         style="stop-color:#323232"
         id="stop3592" /><stop
         offset="1"
         style="stop-color:#141414"
         id="stop3594" /></linearGradient><linearGradient
       id="SVGID_9_-2"
       gradientUnits="userSpaceOnUse"
       x1="33.263199"
       y1="76.211197"
       x2="33.263199"
       y2="56.6675"><stop
         offset="0"
         style="stop-color:#D7D7D7"
         id="stop3761" /><stop
         offset="0.3305"
         style="stop-color:#B6B6B6"
         id="stop3763" /><stop
         offset="1"
         style="stop-color:#636162"
         id="stop3765" /></linearGradient><linearGradient
       id="SVGID_10_-4"
       gradientUnits="userSpaceOnUse"
       x1="33.263199"
       y1="76.8479"
       x2="33.263199"
       y2="61.1161"><stop
         offset="0"
         style="stop-color:#FBFBFB;stop-opacity:0"
         id="stop3772" /><stop
         offset="0.3635"
         style="stop-color:#FBFBFB"
         id="stop3774" /><stop
         offset="0.6426"
         style="stop-color:#FBFBFB;stop-opacity:0.7804"
         id="stop3776" /><stop
         offset="1"
         style="stop-color:#FBFBFB;stop-opacity:0"
         id="stop3778" /></linearGradient><linearGradient
       id="SVGID_11_-9"
       gradientUnits="userSpaceOnUse"
       x1="18.6245"
       y1="58.5867"
       x2="18.6245"
       y2="55.554901"><stop
         offset="0"
         style="stop-color:#A9A9A9"
         id="stop3793" /><stop
         offset="1"
         style="stop-color:#A9A9A9;stop-opacity:0"
         id="stop3795" /></linearGradient><linearGradient
       id="SVGID_12_-6"
       gradientUnits="userSpaceOnUse"
       x1="47.887199"
       y1="58.5867"
       x2="47.887199"
       y2="55.554901"><stop
         offset="0"
         style="stop-color:#A9A9A9"
         id="stop3800" /><stop
         offset="1"
         style="stop-color:#A9A9A9;stop-opacity:0"
         id="stop3802" /></linearGradient><linearGradient
       id="SVGID_13_-8"
       gradientUnits="userSpaceOnUse"
       x1="33.297401"
       y1="79.885002"
       x2="33.297401"
       y2="128.325"><stop
         offset="0"
         style="stop-color:#DF0000"
         id="stop3821" /><stop
         offset="1"
         style="stop-color:#A00404"
         id="stop3823" /></linearGradient><linearGradient
       id="SVGID_14_-0"
       gradientUnits="userSpaceOnUse"
       x1="33.285599"
       y1="85.380096"
       x2="33.285599"
       y2="100.0304"><stop
         offset="0"
         style="stop-color:#DF0000"
         id="stop3834" /><stop
         offset="1"
         style="stop-color:#A00404"
         id="stop3836" /></linearGradient><linearGradient
       id="SVGID_15_-9"
       gradientUnits="userSpaceOnUse"
       x1="33.285599"
       y1="98.6213"
       x2="33.285599"
       y2="108.4945"><stop
         offset="0"
         style="stop-color:#DF0000"
         id="stop3845" /><stop
         offset="1"
         style="stop-color:#A00404"
         id="stop3847" /></linearGradient><linearGradient
       id="SVGID_16_-9"
       gradientUnits="userSpaceOnUse"
       x1="33.2915"
       y1="98.797096"
       x2="33.2915"
       y2="101.6241"><stop
         offset="0"
         style="stop-color:#DF0000"
         id="stop3854" /><stop
         offset="1"
         style="stop-color:#A00404"
         id="stop3856" /></linearGradient><linearGradient
       id="SVGID_17_-5"
       gradientUnits="userSpaceOnUse"
       x1="33.2915"
       y1="98.5784"
       x2="33.2915"
       y2="101.7542"><stop
         offset="0"
         style="stop-color:#000000;stop-opacity:0"
         id="stop3877" /><stop
         offset="1"
         style="stop-color:#000404;stop-opacity:0.4"
         id="stop3879" /></linearGradient><linearGradient
       id="SVGID_18_"
       gradientUnits="userSpaceOnUse"
       x1="33.244598"
       y1="80.4963"
       x2="33.244598"
       y2="81.634102"><stop
         offset="0"
         style="stop-color:#700000;stop-opacity:0"
         id="stop3892" /><stop
         offset="1"
         style="stop-color:#700000"
         id="stop3894" /></linearGradient></defs><sodipodi:namedview
     pagecolor="#ffffff"
     bordercolor="#666666"
     borderopacity="1"
     objecttolerance="10"
     gridtolerance="10"
     guidetolerance="10"
     inkscape:pageopacity="0"
     inkscape:pageshadow="2"
     inkscape:window-width="640"
     inkscape:window-height="480"
     id="namedview464"
     showgrid="false"
     fit-margin-top="0"
     fit-margin-left="0"
     fit-margin-right="0"
     fit-margin-bottom="0"
     inkscape:zoom="0.68491666"
     inkscape:cx="-146.4525"
     inkscape:cy="199.33263"
     inkscape:window-x="75"
     inkscape:window-y="204"
     inkscape:window-maximized="0"
     inkscape:current-layer="Layer_1" /><g
     id="g3"
     transform="matrix(3.2514664,0,0,3.2514664,22.81004,1.040583)"><path
       d="M 62.822,36.824 C 62.112,35.884 59.539,35.09 58.279,35.081 58.224,31.222 58.019,25.653 57.586,20.661 57.342,17.851 57.053,15.56 56.73,13.851 56.195,11.03 55.653,10.303 55.24,9.985 L 55.042,9.832 c -2.1,-1.63 -7.016,-5.448 -21.42,-5.448 -14.404,0 -19.32,3.818 -21.419,5.449 L 12.006,9.985 C 11.593,10.303 11.051,11.03 10.516,13.85 10.192,15.559 9.904,17.849 9.66,20.658 9.226,25.65 9.02,31.22 8.966,35.082 8.952,35.081 8.937,35.081 8.923,35.081 c -1.253,0 -3.849,0.798 -4.562,1.743 -0.582,0.771 -0.223,1.611 0.048,1.949 l 0.295,0.367 0.108,-0.03 c 0.285,0.205 0.741,0.396 1.449,0.396 0.439,0 0.941,-0.074 1.494,-0.221 0.586,-0.155 1.025,-0.309 1.357,-0.457 0.072,0.322 0.154,0.552 0.22,0.704 L 9.153,65.284 C 9.106,65.299 9.06,65.318 9.015,65.338 H 8.606 v 0.238 0.057 c -0.221,0.234 -0.358,0.551 -0.358,0.898 v 53.979 c 0,0.348 0.137,0.664 0.358,0.898 v 0.057 h 0.057 c 0.235,0.222 0.551,0.358 0.899,0.358 h 48.137 c 0.348,0 0.663,-0.137 0.898,-0.358 h 0.057 v -0.057 c 0.222,-0.234 0.358,-0.551 0.358,-0.898 V 66.531 c 0,-0.348 -0.137,-0.663 -0.358,-0.898 v -0.057 -0.238 h -0.409 c -0.049,-0.022 -0.101,-0.043 -0.153,-0.06 L 57.915,39.532 c 0.063,-0.147 0.143,-0.37 0.213,-0.679 0.324,0.141 0.747,0.285 1.301,0.432 0.553,0.146 1.055,0.221 1.493,0.221 0.708,0 1.164,-0.19 1.449,-0.396 l 0.108,0.03 0.295,-0.367 c 0.271,-0.337 0.629,-1.177 0.048,-1.949 z m -0.679,0.313 c -0.008,-0.008 -0.017,-0.016 -0.025,-0.024 0.008,0.008 0.017,0.016 0.025,0.024 z m -2.486,0.775 c 0.745,0.203 1.413,0.477 1.965,0.778 -0.004,0.001 -0.009,0.003 -0.013,0.004 -0.718,-0.368 -1.382,-0.616 -1.952,-0.782 z M 5.571,38.694 C 5.567,38.693 5.563,38.691 5.559,38.69 6.111,38.388 6.778,38.115 7.523,37.912 6.953,38.078 6.29,38.326 5.571,38.694 z m 3.937,-1.079 c 0,0 0,-0.006 0,-0.009 0,0.003 0,0.006 0,0.009 z M 9.506,37.574 C 9.529,37.572 9.553,37.571 9.577,37.57 9.553,37.571 9.529,37.572 9.506,37.574 z m 0.002,0.028 0,-0.007 0,0.007 z M 9.507,37.591 c 0,-10e-4 -10e-4,-0.003 -10e-4,-0.005 0,0.002 10e-4,0.004 10e-4,0.005 z m -0.002,-0.008 0,-0.003 0,0.003 z m 47.72,1.732 c 0,-10e-4 0,-10e-4 0,0 0,-10e-4 0,-10e-4 0,0 z m -0.018,0.034 c 10e-4,-10e-4 0.002,-0.003 0.002,-0.005 0,0.002 -0.001,0.003 -0.002,0.005 z m 0.364,-1.781 0,0 -10e-4,0.018 10e-4,-0.018 z m -0.706,-16.92 c 0.002,0.026 0.005,0.053 0.008,0.08 -0.003,-0.027 -0.006,-0.053 -0.008,-0.08 z m 0.037,0.432 c 0.004,0.047 0.008,0.094 0.012,0.141 -0.004,-0.047 -0.008,-0.094 -0.012,-0.141 z m 0.037,0.456 c 0.006,0.062 0.01,0.124 0.016,0.186 -0.006,-0.062 -0.01,-0.124 -0.016,-0.186 z m 0.04,0.489 c 0.005,0.064 0.01,0.13 0.016,0.195 -0.007,-0.065 -0.012,-0.13 -0.016,-0.195 z m 0.038,0.5 c 0.005,0.066 0.011,0.134 0.015,0.2 -0.005,-0.066 -0.011,-0.133 -0.015,-0.2 z m 0.036,0.497 c 0.006,0.07 0.01,0.141 0.016,0.211 -0.007,-0.07 -0.01,-0.14 -0.016,-0.211 z m 0.035,0.508 c 0.006,0.07 0.01,0.142 0.016,0.212 -0.006,-0.07 -0.01,-0.141 -0.016,-0.212 z m 0.034,0.503 c 0.005,0.075 0.011,0.15 0.015,0.227 -0.004,-0.076 -0.01,-0.152 -0.015,-0.227 z m 0.032,0.505 c 0.006,0.078 0.01,0.156 0.016,0.234 -0.006,-0.078 -0.01,-0.156 -0.016,-0.234 z m 0.033,0.515 c 0.005,0.078 0.009,0.156 0.015,0.233 -0.007,-0.077 -0.011,-0.155 -0.015,-0.233 z m 0.03,0.511 c 0.004,0.08 0.01,0.158 0.014,0.238 -0.004,-0.079 -0.01,-0.157 -0.014,-0.238 z m 0.029,0.514 c 0.004,0.079 0.008,0.159 0.013,0.238 -0.005,-0.079 -0.009,-0.159 -0.013,-0.238 z m 0.027,0.518 c 0.004,0.076 0.008,0.153 0.012,0.23 -0.004,-0.077 -0.008,-0.154 -0.012,-0.23 z m 0.027,0.509 c 0.005,0.08 0.009,0.159 0.013,0.238 -0.004,-0.078 -0.008,-0.157 -0.013,-0.238 z m 0.025,0.512 c 0.004,0.077 0.007,0.154 0.011,0.23 -0.004,-0.076 -0.007,-0.153 -0.011,-0.23 z m 0.025,0.514 c 0.004,0.075 0.006,0.149 0.01,0.225 -0.005,-0.076 -0.006,-0.15 -0.01,-0.225 z m 0.021,0.5 c 0.004,0.08 0.008,0.159 0.012,0.238 -0.004,-0.079 -0.008,-0.158 -0.012,-0.238 z m 0.023,0.508 c 0.003,0.073 0.006,0.146 0.009,0.217 -0.004,-0.072 -0.007,-0.144 -0.009,-0.217 z m 0.02,0.505 c 0.003,0.071 0.006,0.141 0.008,0.212 -0.002,-0.071 -0.005,-0.141 -0.008,-0.212 z m 0.02,0.491 c 0.002,0.072 0.004,0.144 0.007,0.215 -0.003,-0.072 -0.005,-0.143 -0.007,-0.215 z m 0.017,0.494 c 0.002,0.067 0.004,0.135 0.006,0.201 -0.002,-0.066 -0.004,-0.134 -0.006,-0.201 z m 0.016,0.487 c 0.003,0.061 0.004,0.12 0.006,0.181 -0.002,-0.061 -0.003,-0.12 -0.006,-0.181 z m 0.015,0.489 c 0.002,0.041 0.004,0.084 0.004,0.125 0,-0.041 -0.002,-0.084 -0.004,-0.125 z m 0.016,0.478 c 0,0.026 0.001,0.054 0.002,0.08 -10e-4,-0.026 -0.002,-0.054 -0.002,-0.08 z m 0.013,0.469 c 0,0.007 0,0.013 10e-4,0.02 -10e-4,-0.008 -10e-4,-0.013 -10e-4,-0.02 z M 55.808,12.951 c 0.011,0.046 0.021,0.093 0.032,0.14 -0.011,-0.047 -0.022,-0.094 -0.032,-0.14 z m 0.069,0.307 c 0.01,0.048 0.021,0.096 0.031,0.146 -0.01,-0.05 -0.021,-0.098 -0.031,-0.146 z m 0.068,0.323 c 0.01,0.049 0.02,0.099 0.029,0.147 -0.009,-0.048 -0.019,-0.098 -0.029,-0.147 z m 0.067,0.334 c 0.01,0.052 0.02,0.104 0.029,0.155 -0.01,-0.051 -0.02,-0.103 -0.029,-0.155 z m 0.064,0.35 c 0.01,0.052 0.02,0.104 0.029,0.158 -0.009,-0.054 -0.019,-0.107 -0.029,-0.158 z m 0.065,0.363 c 0.009,0.052 0.018,0.105 0.026,0.158 -0.009,-0.053 -0.018,-0.106 -0.026,-0.158 z m 0.062,0.374 c 0.008,0.055 0.017,0.108 0.025,0.162 -0.008,-0.054 -0.017,-0.107 -0.025,-0.162 z m 0.061,0.385 c 0.008,0.055 0.016,0.109 0.023,0.165 -0.008,-0.056 -0.016,-0.111 -0.023,-0.165 z m 0.058,0.401 c 0.008,0.052 0.015,0.104 0.022,0.157 -0.007,-0.052 -0.014,-0.105 -0.022,-0.157 z m 0.058,0.407 c 0.007,0.053 0.015,0.106 0.021,0.16 -0.006,-0.053 -0.014,-0.107 -0.021,-0.16 z m 0.056,0.418 c 0.007,0.053 0.014,0.105 0.02,0.157 -0.007,-0.051 -0.014,-0.104 -0.02,-0.157 z m 0.054,0.428 c 0.006,0.051 0.012,0.102 0.019,0.153 -0.007,-0.051 -0.013,-0.102 -0.019,-0.153 z m 0.053,0.439 c 0.006,0.045 0.011,0.09 0.016,0.135 -0.005,-0.045 -0.01,-0.09 -0.016,-0.135 z m 0.052,0.446 c 0.005,0.039 0.009,0.078 0.013,0.118 -0.004,-0.04 -0.008,-0.079 -0.013,-0.118 z m 0.05,0.455 c 0.004,0.023 0.006,0.047 0.008,0.07 -0.003,-0.023 -0.005,-0.047 -0.008,-0.07 z m 0.048,0.459 c 0,0 0.002,0.011 0.002,0.016 0,-0.005 -0.002,-0.011 -0.002,-0.016 z M 10.616,18.226 c 0.012,-0.108 0.024,-0.216 0.036,-0.323 -0.012,0.107 -0.025,0.214 -0.036,0.323 z m 0.053,-0.474 c 0.011,-0.099 0.023,-0.198 0.035,-0.297 -0.012,0.099 -0.024,0.198 -0.035,0.297 z m 0.054,-0.455 c 0.011,-0.094 0.022,-0.188 0.034,-0.279 -0.012,0.091 -0.023,0.185 -0.034,0.279 z m 0.054,-0.44 c 0.012,-0.09 0.023,-0.18 0.035,-0.269 -0.012,0.09 -0.023,0.18 -0.035,0.269 z m 0.056,-0.429 c 0.011,-0.086 0.023,-0.173 0.035,-0.258 -0.012,0.085 -0.024,0.172 -0.035,0.258 z m 0.058,-0.421 c 0.011,-0.081 0.023,-0.163 0.035,-0.243 -0.012,0.08 -0.024,0.162 -0.035,0.243 z m 0.059,-0.411 c 0.012,-0.076 0.023,-0.153 0.034,-0.229 -0.011,0.075 -0.023,0.153 -0.034,0.229 z m 0.06,-0.393 c 0.012,-0.075 0.023,-0.15 0.035,-0.223 -0.012,0.073 -0.024,0.148 -0.035,0.223 z m 0.061,-0.383 c 0.012,-0.072 0.023,-0.143 0.036,-0.213 -0.012,0.071 -0.024,0.141 -0.036,0.213 z m 0.063,-0.372 c 0.012,-0.068 0.024,-0.136 0.036,-0.202 -0.011,0.066 -0.024,0.134 -0.036,0.202 z m 0.065,-0.356 c 0.012,-0.065 0.024,-0.13 0.037,-0.193 -0.013,0.063 -0.025,0.127 -0.037,0.193 z m 0.066,-0.344 c 0.012,-0.062 0.024,-0.124 0.037,-0.186 -0.012,0.062 -0.025,0.124 -0.037,0.186 z m 0.068,-0.33 c 0.013,-0.06 0.025,-0.117 0.038,-0.176 -0.014,0.059 -0.026,0.116 -0.038,0.176 z m 0.068,-0.315 c 0.013,-0.057 0.026,-0.112 0.039,-0.167 -0.013,0.054 -0.026,0.11 -0.039,0.167 z m -1.382,26.212 0,-0.002 0,0.002 z m 0.029,0.054 c 0,0 -10e-4,-0.002 -0.003,-0.006 10e-4,0.002 0.003,0.006 0.003,0.006 z m -0.012,-0.021 c -10e-4,-10e-4 -10e-4,-0.002 -0.002,-0.004 10e-4,0.002 0.002,0.003 0.002,0.004 z M 57.59,37.569 c 0.029,0.002 0.057,0.003 0.086,0.005 -0.03,-0.002 -0.057,-0.004 -0.086,-0.005 z m 0.082,0.036 c 0,0.005 0,0.009 0.001,0.013 -0.001,-0.004 -0.001,-0.008 -0.001,-0.013 z m 0.004,-0.025 c 0,0 0,0.002 -0.001,0.003 0.001,-10e-4 0.001,-0.003 0.001,-0.003 z m -0.002,0.006 c 0,0.002 0,0.004 0,0.004 0,0 0,-0.002 0,-0.004 z m -10e-4,0.009 c 0,0.003 0,0.006 0,0.006 0,0 0,-0.003 0,-0.006 z m 0.614,-1.796 c -0.014,0 -0.027,-10e-4 -0.039,-10e-4 0.004,0 0.008,0 0.012,0 0.008,0 0.018,10e-4 0.027,10e-4 z m 3.693,1.199 c -0.008,-0.008 -0.019,-0.014 -0.027,-0.021 0.009,0.007 0.02,0.013 0.027,0.021 z m -0.178,-0.125 c -0.009,-0.006 -0.019,-0.012 -0.028,-0.019 0.009,0.007 0.019,0.013 0.028,0.019 z m -0.218,-0.13 c -0.016,-0.009 -0.031,-0.017 -0.048,-0.026 0.017,0.01 0.032,0.017 0.048,0.026 z m -0.26,-0.135 c -0.007,-0.003 -0.014,-0.007 -0.021,-0.01 0.008,0.004 0.014,0.007 0.021,0.01 z M 61.088,36.5 c -0.018,-0.008 -0.036,-0.016 -0.055,-0.023 0.019,0.007 0.037,0.015 0.055,0.023 z m -0.292,-0.121 c -0.019,-0.008 -0.038,-0.015 -0.056,-0.021 0.018,0.006 0.037,0.013 0.056,0.021 z m -0.28,-0.105 c -0.014,-0.005 -0.027,-0.01 -0.041,-0.015 0.013,0.006 0.027,0.011 0.041,0.015 z M 60.22,36.175 c -0.022,-0.007 -0.045,-0.015 -0.067,-0.021 0.022,0.006 0.044,0.014 0.067,0.021 z m -0.324,-0.098 c -0.014,-0.004 -0.028,-0.008 -0.043,-0.012 0.015,0.004 0.03,0.008 0.043,0.012 z M 59.624,36.005 C 59.603,36 59.584,35.994 59.563,35.989 c 0.021,0.005 0.041,0.011 0.061,0.016 z m -0.308,-0.072 c -0.021,-0.005 -0.041,-0.009 -0.061,-0.013 0.02,0.004 0.04,0.008 0.061,0.013 z M 59.032,35.877 C 59.021,35.875 59.011,35.873 59,35.871 c 0.011,0.002 0.021,0.004 0.032,0.006 z M 58.77,35.836 c -0.02,-0.002 -0.039,-0.005 -0.057,-0.007 0.017,0.002 0.037,0.005 0.057,0.007 z m -0.272,-0.028 c -0.012,-10e-4 -0.023,-0.002 -0.035,-0.003 0.012,10e-4 0.023,0.002 0.035,0.003 z m -0.416,-0.003 c -0.013,0.002 -0.025,0.004 -0.037,0.004 0.012,0 0.024,-0.002 0.037,-0.004 z m -0.164,0.025 c -0.008,0.001 -0.014,0.002 -0.021,0.004 0.007,-0.002 0.013,-0.003 0.021,-0.004 z m -0.135,0.043 c -0.008,0.004 -0.016,0.008 -0.022,0.012 0.007,-0.004 0.014,-0.008 0.022,-0.012 z M 55.77,12.793 c -0.012,-0.046 -0.021,-0.09 -0.033,-0.134 0.011,0.044 0.021,0.088 0.033,0.134 z M 55.697,12.51 c -0.011,-0.043 -0.022,-0.086 -0.034,-0.128 0.012,0.042 0.024,0.085 0.034,0.128 z m -0.072,-0.267 c -0.012,-0.042 -0.024,-0.082 -0.037,-0.122 0.013,0.04 0.025,0.08 0.037,0.122 z m -0.076,-0.251 c -0.012,-0.039 -0.023,-0.077 -0.037,-0.115 0.013,0.038 0.025,0.076 0.037,0.115 z m -0.076,-0.234 c -0.012,-0.037 -0.025,-0.072 -0.039,-0.108 0.013,0.036 0.027,0.071 0.039,0.108 z m -0.078,-0.217 c -0.014,-0.035 -0.026,-0.068 -0.039,-0.102 0.012,0.034 0.025,0.067 0.039,0.102 z M 55.314,11.343 C 55.3,11.31 55.287,11.28 55.273,11.248 c 0.014,0.031 0.028,0.062 0.041,0.095 z m -0.248,-0.486 c -0.018,-0.025 -0.033,-0.048 -0.051,-0.071 0.018,0.024 0.034,0.046 0.051,0.071 z m 0.168,0.305 c -0.016,-0.03 -0.029,-0.059 -0.045,-0.086 0.016,0.028 0.03,0.056 0.045,0.086 z M 55.15,11 c -0.016,-0.027 -0.031,-0.053 -0.046,-0.078 0.015,0.025 0.031,0.051 0.046,0.078 z m -0.17,-0.265 c -0.02,-0.024 -0.039,-0.045 -0.059,-0.066 0.02,0.021 0.04,0.042 0.059,0.066 z m -0.087,-0.101 c -0.03,-0.03 -0.061,-0.058 -0.09,-0.081 0.029,0.023 0.059,0.051 0.09,0.081 z M 12.442,10.553 c -0.03,0.023 -0.06,0.051 -0.09,0.081 0.03,-0.03 0.06,-0.058 0.09,-0.081 z m -0.211,0.23 c -0.018,0.023 -0.036,0.048 -0.053,0.075 0.017,-0.027 0.035,-0.051 0.053,-0.075 z m 0.093,-0.117 c -0.02,0.022 -0.04,0.045 -0.06,0.07 0.02,-0.025 0.04,-0.048 0.06,-0.07 z m -0.852,2.137 c 0.013,-0.054 0.026,-0.105 0.039,-0.157 -0.013,0.051 -0.026,0.103 -0.039,0.157 z m 0.072,-0.285 c 0.014,-0.051 0.027,-0.1 0.041,-0.148 -0.014,0.048 -0.027,0.097 -0.041,0.148 z m 0.074,-0.268 c 0.014,-0.049 0.027,-0.095 0.041,-0.141 -0.014,0.046 -0.028,0.092 -0.041,0.141 z m 0.075,-0.254 c 0.014,-0.044 0.028,-0.086 0.042,-0.129 -0.014,0.043 -0.028,0.085 -0.042,0.129 z m 0.077,-0.234 c 0.014,-0.042 0.028,-0.081 0.043,-0.121 -0.015,0.04 -0.029,0.079 -0.043,0.121 z m 0.078,-0.218 c 0.015,-0.038 0.029,-0.075 0.044,-0.111 -0.015,0.036 -0.029,0.073 -0.044,0.111 z m 0.08,-0.2 c 0.015,-0.035 0.03,-0.068 0.045,-0.102 -0.015,0.033 -0.03,0.067 -0.045,0.102 z m 0.082,-0.181 c 0.016,-0.032 0.031,-0.062 0.047,-0.093 -0.016,0.031 -0.032,0.061 -0.047,0.093 z m 0.083,-0.162 c 0.017,-0.029 0.033,-0.056 0.049,-0.083 -0.017,0.027 -0.033,0.053 -0.049,0.083 z m -1.54,7.817 c -0.049,0.47 -0.095,0.951 -0.14,1.441 0.045,-0.489 0.091,-0.971 0.14,-1.441 z m 0.049,-0.462 c -0.014,0.127 -0.027,0.255 -0.041,0.384 0.013,-0.129 0.026,-0.257 0.041,-0.384 z M 9.744,32.157 c 10e-4,-0.026 10e-4,-0.052 0.002,-0.079 0,0.027 -0.001,0.053 -0.002,0.079 z M 9.758,31.695 C 9.759,31.667 9.76,31.638 9.761,31.611 9.76,31.639 9.759,31.667 9.758,31.695 z m 0.014,-0.45 c 10e-4,-0.04 0.003,-0.078 0.004,-0.118 -10e-4,0.04 -0.003,0.078 -0.004,0.118 z m 0.016,-0.458 c 10e-4,-0.05 0.003,-0.1 0.005,-0.15 -0.002,0.051 -0.004,0.1 -0.005,0.15 z M 9.804,30.332 C 9.806,30.268 9.808,30.203 9.811,30.137 9.808,30.203 9.806,30.268 9.804,30.332 z M 9.822,29.843 C 9.825,29.777 9.827,29.709 9.83,29.642 9.827,29.709 9.825,29.776 9.822,29.843 z m 0.019,-0.489 c 0.003,-0.07 0.006,-0.141 0.009,-0.211 -0.003,0.07 -0.006,0.14 -0.009,0.211 z m 0.022,-0.51 c 0.003,-0.067 0.006,-0.136 0.009,-0.203 -0.003,0.067 -0.006,0.135 -0.009,0.203 z m 0.021,-0.491 c 0.003,-0.075 0.007,-0.151 0.01,-0.228 -0.003,0.076 -0.006,0.152 -0.01,0.228 z M 9.908,27.846 C 9.911,27.77 9.915,27.695 9.919,27.619 9.915,27.694 9.911,27.77 9.908,27.846 z M 9.932,27.337 C 9.936,27.259 9.94,27.182 9.944,27.104 9.94,27.182 9.936,27.259 9.932,27.337 z m 0.026,-0.505 c 0.005,-0.084 0.009,-0.168 0.014,-0.252 -0.005,0.084 -0.01,0.168 -0.014,0.252 z m 0.027,-0.507 c 0.004,-0.087 0.009,-0.174 0.014,-0.261 -0.005,0.087 -0.01,0.174 -0.014,0.261 z m 0.028,-0.514 c 0.005,-0.088 0.01,-0.176 0.015,-0.265 -0.005,0.089 -0.01,0.177 -0.015,0.265 z m 0.029,-0.512 c 0.006,-0.092 0.011,-0.184 0.017,-0.275 -0.005,0.091 -0.011,0.183 -0.017,0.275 z m 0.032,-0.513 c 0.006,-0.093 0.012,-0.185 0.017,-0.276 -0.006,0.092 -0.011,0.183 -0.017,0.276 z m 0.032,-0.514 c 0.006,-0.095 0.013,-0.19 0.019,-0.285 -0.006,0.095 -0.013,0.191 -0.019,0.285 z m 0.034,-0.509 c 0.006,-0.098 0.013,-0.194 0.02,-0.292 -0.007,0.097 -0.014,0.194 -0.02,0.292 z m 0.035,-0.511 c 0.007,-0.1 0.014,-0.198 0.021,-0.297 -0.008,0.099 -0.014,0.197 -0.021,0.297 z m 0.036,-0.508 c 0.007,-0.101 0.015,-0.2 0.022,-0.301 -0.007,0.101 -0.015,0.201 -0.022,0.301 z m 0.038,-0.506 c 0.008,-0.104 0.016,-0.207 0.024,-0.309 -0.008,0.102 -0.016,0.206 -0.024,0.309 z m 0.039,-0.5 c 0.009,-0.111 0.018,-0.221 0.027,-0.332 -0.009,0.112 -0.019,0.221 -0.027,0.332 z m 0.04,-0.498 c 0.01,-0.115 0.02,-0.231 0.029,-0.347 -0.009,0.116 -0.019,0.232 -0.029,0.347 z m 0.042,-0.494 c 0.012,-0.135 0.023,-0.27 0.036,-0.403 -0.012,0.134 -0.024,0.268 -0.036,0.403 z m -0.699,15.184 0,0 C 9.617,35.936 9.561,35.941 9.503,35.942 9.562,35.94 9.617,35.936 9.671,35.93 z M 9.42,35.885 C 9.413,35.881 9.405,35.877 9.397,35.873 9.405,35.877 9.413,35.881 9.42,35.885 z M 9.283,35.834 C 9.277,35.832 9.27,35.831 9.263,35.83 c 0.007,0.001 0.014,0.002 0.02,0.004 z M 9.135,35.809 c -0.012,0 -0.024,-0.002 -0.037,-0.004 0.013,0.002 0.025,0.004 0.037,0.004 z M 8.933,35.798 c -0.013,0 -0.027,10e-4 -0.04,10e-4 0.008,0 0.019,-10e-4 0.027,-10e-4 0.005,0 0.009,0 0.013,0 z M 5.2,36.998 C 5.209,36.99 5.219,36.984 5.228,36.977 5.218,36.984 5.208,36.99 5.2,36.998 z M 5.38,36.872 C 5.389,36.867 5.397,36.861 5.406,36.855 5.397,36.861 5.389,36.867 5.38,36.872 z m 0.218,-0.129 c 0.015,-0.009 0.03,-0.017 0.045,-0.025 -0.015,0.009 -0.031,0.016 -0.045,0.025 z m 0.259,-0.136 c 0.005,-0.002 0.011,-0.005 0.016,-0.008 -0.005,0.004 -0.01,0.006 -0.016,0.008 z M 6.094,36.5 C 6.112,36.492 6.129,36.484 6.146,36.477 6.129,36.484 6.112,36.492 6.094,36.5 z M 6.386,36.379 C 6.404,36.371 6.421,36.365 6.439,36.358 6.421,36.365 6.404,36.371 6.386,36.379 z M 6.668,36.273 C 6.681,36.269 6.693,36.264 6.706,36.259 6.693,36.265 6.681,36.27 6.668,36.273 z M 6.962,36.174 C 6.983,36.168 7.005,36.16 7.027,36.154 7.005,36.16 6.984,36.168 6.962,36.174 z M 7.285,36.077 C 7.298,36.073 7.312,36.07 7.325,36.066 7.312,36.07 7.298,36.073 7.285,36.077 z M 7.557,36.004 C 7.577,36 7.597,35.994 7.617,35.989 7.597,35.994 7.577,36 7.557,36.004 z m 0.308,-0.072 c 0.021,-0.004 0.04,-0.008 0.06,-0.012 -0.02,0.004 -0.04,0.008 -0.06,0.012 z M 8.148,35.877 C 8.159,35.875 8.169,35.873 8.18,35.871 8.169,35.873 8.159,35.875 8.148,35.877 z M 8.412,35.836 C 8.431,35.834 8.45,35.831 8.469,35.829 8.45,35.831 8.43,35.834 8.412,35.836 z m 0.27,-0.028 c 0.012,-10e-4 0.024,-0.002 0.036,-0.003 -0.012,10e-4 -0.024,0.002 -0.036,0.003 z m -3.619,1.304 c -0.009,0.009 -0.017,0.017 -0.025,0.024 0.008,-0.007 0.017,-0.015 0.025,-0.024 z m -0.013,1.189 0,0 0,0 -0.085,0.023 0.085,-0.023 z m 2.52,0.292 C 8.771,38.275 9.233,37.992 9.406,37.806 9.233,37.992 8.772,38.274 7.57,38.593 z M 9.508,37.62 9.507,37.631 9.508,37.62 z m -0.003,0.016 c 0,0.005 -0.002,0.01 -0.003,0.015 10e-4,-0.005 0.003,-0.01 0.003,-0.015 z M 9.501,37.654 C 9.5,37.659 9.498,37.664 9.496,37.67 9.498,37.664 9.5,37.659 9.501,37.654 z m -0.006,0.02 C 9.493,37.681 9.49,37.688 9.486,37.695 9.489,37.688 9.492,37.681 9.495,37.674 z m -0.01,0.022 c -0.003,0.008 -0.008,0.015 -0.012,0.022 0.004,-0.007 0.008,-0.014 0.012,-0.022 z m -0.013,0.025 c -0.004,0.008 -0.01,0.016 -0.016,0.024 0.006,-0.009 0.011,-0.016 0.016,-0.024 z m -0.017,0.026 c -0.006,0.009 -0.013,0.019 -0.021,0.028 0.007,-0.009 0.014,-0.019 0.021,-0.028 z m -0.022,0.028 c -0.007,0.009 -0.016,0.019 -0.024,0.027 0.008,-0.008 0.017,-0.018 0.024,-0.027 z m 48.253,-0.101 c 0.062,0.164 0.39,0.512 1.925,0.919 -1.537,-0.406 -1.863,-0.755 -1.925,-0.919 z M 57.673,37.62 c 10e-4,0.003 10e-4,0.008 10e-4,0.013 0,-0.005 0,-0.01 -10e-4,-0.013 z m 0.002,0.016 c 0.001,0.005 0.003,0.011 0.005,0.017 -0.002,-0.007 -0.004,-0.012 -0.005,-0.017 z m 0.005,0.018 c 10e-4,0.006 0.004,0.012 0.006,0.019 -0.002,-0.007 -0.005,-0.013 -0.006,-0.019 z m 4.451,0.647 0,0 0,0 0.084,0.023 -0.084,-0.023 z"
       id="path5"
       inkscape:connector-curvature="0"
       style="opacity:0.4;fill:#060d1c" /><g
       id="g7"><g
         id="g9"><path
           d="m 29.576,0.717 c 14.633,0 19.216,3.939 21.18,5.453 1.898,1.461 2.699,17.196 2.771,25.381 0.035,0.002 0.068,0.006 0.105,0.008 0.097,-0.101 0.305,-0.145 0.582,-0.145 1.143,0 3.46,0.756 3.99,1.457 0.398,0.529 -0.035,1.069 -0.035,1.069 l -0.085,-0.023 c 0.013,0.015 0.017,0.023 0.017,0.023 0,0 -0.223,0.466 -1.227,0.466 -0.34,0 -0.77,-0.055 -1.311,-0.197 -2.131,-0.564 -1.934,-1.017 -1.932,-1.019 -0.035,-0.003 -0.072,-0.004 -0.106,-0.006 -0.063,1.301 -0.376,1.801 -0.376,1.801 l 0.18,25.97 H 5.822 l 0.179,-25.97 c 0,0 -0.313,-0.501 -0.376,-1.805 -0.056,0.003 -0.113,0.006 -0.169,0.01 10e-4,0.002 0.199,0.454 -1.933,1.019 -0.541,0.143 -0.971,0.197 -1.311,0.197 -1.003,0 -1.227,-0.466 -1.227,-0.466 0,0 0.005,-0.009 0.018,-0.023 L 0.919,33.94 c 0,0 -0.434,-0.54 -0.035,-1.069 0.529,-0.701 2.847,-1.457 3.99,-1.457 0.276,0 0.484,0.044 0.582,0.145 C 5.515,31.557 5.57,31.552 5.624,31.546 5.698,23.361 6.498,7.631 8.396,6.17 10.36,4.656 14.943,0.717 29.576,0.717 M 29.576,0 C 15.171,0 10.255,3.818 8.155,5.449 L 7.958,5.602 C 7.545,5.92 7.003,6.646 6.468,9.467 6.144,11.176 5.856,13.466 5.612,16.275 5.178,21.267 4.972,26.837 4.918,30.698 c -0.015,0 -0.029,0 -0.043,0 -1.253,0 -3.849,0.798 -4.562,1.742 -0.582,0.771 -0.223,1.613 0.048,1.949 l 0.296,0.368 0.108,-0.03 c 0.286,0.205 0.741,0.396 1.449,0.396 0.438,0 0.941,-0.074 1.494,-0.221 0.586,-0.155 1.025,-0.309 1.357,-0.458 0.072,0.323 0.154,0.553 0.219,0.705 L 5.106,60.95 5.101,61.672 H 5.822 53.33 54.051 L 54.046,60.95 53.867,35.148 c 0.064,-0.148 0.145,-0.37 0.215,-0.679 0.324,0.141 0.746,0.285 1.299,0.432 0.553,0.147 1.057,0.221 1.494,0.221 0.709,0 1.164,-0.19 1.449,-0.396 l 0.108,0.03 0.296,-0.368 C 58.999,34.052 59.357,33.21 58.776,32.439 58.066,31.5 55.494,30.705 54.234,30.697 54.179,26.838 53.973,21.269 53.54,16.277 53.296,13.468 53.008,11.177 52.684,9.467 52.149,6.646 51.607,5.919 51.194,5.601 L 50.997,5.449 C 48.896,3.818 43.979,0 29.576,0 l 0,0 z"
           id="path11"
           inkscape:connector-curvature="0"
           style="fill:#3f3f3f" /><g
           id="g13"><g
             id="g15"><linearGradient
               id="SVGID_1_"
               gradientUnits="userSpaceOnUse"
               x1="29.575701"
               y1="-0.061999999"
               x2="29.575701"
               y2="63.250198"><stop
                 offset="0"
                 style="stop-color:#CBCBCB"
                 id="stop18" /><stop
                 offset="0.3163"
                 style="stop-color:#8D8D8D"
                 id="stop20" /><stop
                 offset="0.9286"
                 style="stop-color:#666666"
                 id="stop22" /><stop
                 offset="0.9745"
                 style="stop-color:#333333"
                 id="stop24" /></linearGradient><path
               d="m 53.33,60.955 -0.18,-25.97 c 0,0 0.441,-0.698 0.382,-2.609 C 53.508,24.478 52.72,7.682 50.756,6.17 48.792,4.656 44.209,0.717 29.576,0.717 14.943,0.717 10.36,4.656 8.395,6.17 6.431,7.682 5.643,24.478 5.62,32.376 5.56,34.287 6.002,34.985 6.002,34.985 L 5.823,60.955 H 53.33 z"
               id="path26"
               style="fill:url(#SVGID_1_)"
               inkscape:connector-curvature="0" /><path
               clip-rule="evenodd"
               d="m 9.285,60.955 c 0,0 -3.204,-1.558 -3.523,-5.895 v 5.895 h 3.523 z"
               id="path28"
               inkscape:connector-curvature="0"
               style="fill:#3f3f3f;fill-rule:evenodd" /><path
               clip-rule="evenodd"
               d="m 49.834,60.955 c 0,0 3.205,-1.558 3.523,-5.895 v 5.895 h -3.523 z"
               id="path30"
               inkscape:connector-curvature="0"
               style="fill:#3f3f3f;fill-rule:evenodd" /><path
               d="M 6.82,27.467 6.582,27.458 C 6.587,27.324 7.097,14.009 7.378,11.607 l 0.237,0.028 C 7.335,14.027 6.826,27.333 6.82,27.467 z"
               id="path32"
               inkscape:connector-curvature="0"
               style="fill:#333333" /><path
               d="M 52.42,28.312 C 52.414,28.177 51.805,14.906 51.524,12.513 l 0.238,-0.028 c 0.281,2.401 0.891,15.683 0.896,15.815 l -0.238,0.012 z"
               id="path34"
               inkscape:connector-curvature="0"
               style="fill:#333333" /><g
               id="g36"><path
                 d="M 7.434,13.193 C 7.374,11.641 7.852,8.358 8.808,7.283 9.763,6.209 17.237,2.735 16.305,3.504 14.549,4.951 9.047,9.611 8.45,10.508 7.852,11.402 7.912,13.135 7.434,13.193 z"
                 id="path38"
                 inkscape:connector-curvature="0"
                 style="fill:#ffffff" /><path
                 d="M 7.32,13.328 7.315,13.198 C 7.26,11.761 7.705,8.344 8.718,7.204 9.58,6.234 15.778,3.275 16.35,3.275 c 0.105,0 0.138,0.069 0.146,0.091 C 16.533,3.47 16.434,3.553 16.38,3.596 14.572,5.085 9.135,9.693 8.548,10.573 8.273,10.986 8.142,11.594 8.026,12.131 7.889,12.768 7.78,13.272 7.449,13.313 L 7.32,13.328 z M 15.959,3.635 C 14.506,4.19 9.669,6.494 8.897,7.364 8.037,8.332 7.539,11.251 7.549,12.948 7.647,12.762 7.723,12.407 7.794,12.081 7.914,11.524 8.05,10.893 8.351,10.442 8.924,9.58 13.927,5.32 15.959,3.635 z"
                 id="path40"
                 inkscape:connector-curvature="0"
                 style="fill:#333333" /></g><g
               id="g42"><path
                 d="M 51.623,13.193 C 51.684,11.641 51.205,8.358 50.25,7.283 49.295,6.209 41.82,2.735 42.754,3.504 c 1.756,1.447 7.258,6.107 7.854,7.004 0.597,0.894 0.538,2.627 1.015,2.685 z"
                 id="path44"
                 inkscape:connector-curvature="0"
                 style="fill:#ffffff" /><path
                 d="M 51.737,13.328 51.608,13.312 C 51.277,13.271 51.168,12.767 51.031,12.13 50.916,11.594 50.784,10.985 50.509,10.572 49.922,9.692 44.487,5.085 42.678,3.595 42.625,3.551 42.525,3.469 42.562,3.365 c 0.009,-0.021 0.041,-0.091 0.146,-0.091 0.572,0 6.769,2.959 7.632,3.929 1.013,1.14 1.458,4.558 1.402,5.994 l -0.005,0.131 z M 43.1,3.635 c 2.031,1.686 7.034,5.945 7.607,6.807 0.301,0.451 0.438,1.082 0.558,1.639 0.069,0.326 0.147,0.682 0.245,0.867 C 51.52,11.251 51.022,8.332 50.16,7.364 49.389,6.494 44.552,4.189 43.1,3.635 z"
                 id="path46"
                 inkscape:connector-curvature="0"
                 style="fill:#333333" /></g><g
               id="g48"><path
                 d="m 29.584,19.354 c 7.625,0 17.188,0.596 21.189,5.178 l 0.025,-0.169 c 0,0 -0.4,-12.245 -0.879,-14.572 C 49.407,9.159 45.48,5.604 43.202,3.832 43.067,3.723 42.931,3.616 42.786,3.515 42.704,3.454 42.625,3.396 42.55,3.343 H 42.525 C 39.279,1.276 33.775,1.195 29.584,1.195 c -4.191,0 -9.695,0.081 -12.941,2.148 l 0,0 c -0.001,0 -0.002,10e-4 -0.003,0.002 C 16.328,3.544 16.035,3.761 15.767,3.999 15.746,4.017 15.725,4.038 15.705,4.058 13.4,5.89 9.767,9.185 9.275,9.791 8.796,12.118 8.396,24.532 8.396,24.532 h 0 c 4.001,-4.583 13.563,-5.178 21.188,-5.178 z"
                 id="path50"
                 inkscape:connector-curvature="0"
                 style="fill:#9f9f9f" /><path
                 d="m 50.852,24.803 -0.168,-0.192 c -3.977,-4.554 -13.365,-5.138 -21.099,-5.138 -7.734,0 -17.122,0.584 -21.099,5.138 L 8.393,24.717 8.304,24.608 c -0.066,-0.082 0.23,-6.515 0.233,-6.58 0.212,-4.511 0.421,-7.29 0.621,-8.262 L 9.164,9.738 9.183,9.716 C 9.668,9.117 13.322,5.799 15.631,3.964 l 0.017,-0.016 c 0.014,-0.014 0.027,-0.027 0.041,-0.039 0.259,-0.23 0.554,-0.451 0.877,-0.658 l 0.025,-0.016 c 3.391,-2.16 9.402,-2.16 12.994,-2.16 3.582,0 9.568,0 12.976,2.147 h 0.029 l 0.031,0.022 c 0.075,0.055 0.154,0.113 0.236,0.174 0.131,0.091 0.266,0.193 0.42,0.32 2.248,1.749 6.213,5.333 6.735,5.977 l 0.019,0.022 0.006,0.028 c 0.475,2.311 0.865,14.093 0.882,14.593 l -0.067,0.445 z M 29.584,19.234 c 7.668,0 16.957,0.575 21.093,5.014 C 50.636,23.098 50.254,12.09 49.808,9.843 49.224,9.151 45.345,5.649 43.128,3.926 42.976,3.801 42.846,3.701 42.718,3.613 42.646,3.559 42.577,3.509 42.512,3.462 H 42.49 L 42.461,3.442 C 39.117,1.314 33.15,1.314 29.585,1.314 c -3.565,0 -9.534,0 -12.877,2.128 -0.32,0.205 -0.608,0.421 -0.861,0.646 L 15.786,4.146 C 13.507,5.958 9.933,9.197 9.386,9.844 8.96,11.99 8.593,22.247 8.526,24.212 12.681,19.807 21.938,19.234 29.584,19.234 z"
                 id="path52"
                 inkscape:connector-curvature="0"
                 style="fill:#333333" /></g><path
               d="m 29.598,19.184 c 6.974,0 15.533,0.82 20.172,4.223 C 50.256,22.578 46.771,6.989 43.692,4.303 40.588,1.595 34.288,1.195 29.598,1.195 c -4.689,0 -10.99,0.4 -14.094,3.108 C 12.425,6.99 8.94,22.578 9.426,23.407 14.063,20.004 22.624,19.184 29.598,19.184 z"
               id="path54"
               inkscape:connector-curvature="0"
               style="fill:#7f7f7f" /><path
               d="m 29.598,19.184 c 6.837,0 15.229,0.482 19.775,3.884 C 49.852,22.239 46.434,6.684 43.414,3.999 40.371,1.291 34.194,1.194 29.598,1.194 25,1.193 18.824,1.29 15.78,3.998 12.761,6.684 9.344,22.238 9.822,23.067 14.368,19.666 22.76,19.184 29.598,19.184 z"
               id="path56"
               inkscape:connector-curvature="0"
               style="fill:#a7a7a7" /><g
               id="g58"
               style="opacity:0.9"><linearGradient
                 id="SVGID_2_"
                 gradientUnits="userSpaceOnUse"
                 x1="202.5264"
                 y1="17.936501"
                 x2="202.5264"
                 y2="5.1813998"
                 gradientTransform="matrix(-1,0,0,1,232.1172,0)"><stop
                   offset="0"
                   style="stop-color:#FBFBFB;stop-opacity:0"
                   id="stop61" /><stop
                   offset="0.3635"
                   style="stop-color:#FBFBFB"
                   id="stop63" /><stop
                   offset="0.6426"
                   style="stop-color:#FBFBFB;stop-opacity:0.7804"
                   id="stop65" /><stop
                   offset="1"
                   style="stop-color:#FBFBFB;stop-opacity:0"
                   id="stop67" /></linearGradient><path
                 d="m 29.59,18.365 c 2.925,0 7.289,0.17 7.289,0.17 0,0 -0.939,-4.301 -0.049,-4.528 2.233,-0.569 10.262,2.235 10.262,2.235 0,0 -2.244,-10.109 -3.264,-10.633 C 42.808,5.085 33.92,4.176 29.59,4.176 c -4.33,0 -13.217,0.91 -14.237,1.434 -1.02,0.524 -3.264,10.633 -3.264,10.633 0,0 8.099,-2.745 10.331,-2.168 0.875,0.228 0.018,4.461 0.018,4.461 0,0 4.227,-0.171 7.152,-0.171 z"
                 id="path69"
                 style="fill:url(#SVGID_2_)"
                 inkscape:connector-curvature="0" /></g><g
               id="g71"><g
                 id="g73"><path
                   d="m 29.583,19.184 c 7.881,0 17.831,0.637 21.573,5.652 -0.16,5.731 -1.434,14.806 -1.593,15.602 -0.128,0.307 -0.637,0 -0.637,0 0,0 -4.458,-2.865 -19.343,-2.865 -14.886,0 -19.343,2.865 -19.343,2.865 0,0 -0.508,0.307 -0.637,0 C 9.444,39.642 8.17,30.568 8.011,24.836 11.753,19.82 21.703,19.184 29.583,19.184 z"
                   id="path75"
                   inkscape:connector-curvature="0" /><path
                   d="m 29.583,19.669 c 7.723,0 17.475,0.353 21.141,5.268 -0.156,5.616 -1.404,14.171 -1.561,14.952 -0.127,0.3 -0.624,0 -0.624,0 0,0 -4.368,-2.809 -18.957,-2.809 -14.588,0 -18.956,2.809 -18.956,2.809 0,0 -0.498,0.3 -0.624,0 C 9.846,39.108 8.598,30.553 8.441,24.937 12.11,20.021 21.86,19.669 29.583,19.669 z"
                   id="path77"
                   inkscape:connector-curvature="0"
                   style="fill:#171d23" /><linearGradient
                   id="SVGID_3_"
                   gradientUnits="userSpaceOnUse"
                   x1="9.5"
                   y1="29.586399"
                   x2="49.667999"
                   y2="29.586399"><stop
                     offset="0"
                     style="stop-color:#636668;stop-opacity:0"
                     id="stop80" /><stop
                     offset="0.1426"
                     style="stop-color:#636668"
                     id="stop82" /><stop
                     offset="0.834"
                     style="stop-color:#636668"
                     id="stop84" /><stop
                     offset="1"
                     style="stop-color:#636668;stop-opacity:0"
                     id="stop86" /></linearGradient><path
                   d="m 29.583,20.178 c 7.336,0 16.6,0.326 20.084,4.87 -0.148,5.193 -1.335,13.103 -1.483,13.824 -0.119,0.277 -0.593,0 -0.593,0 0,0 -4.149,-2.597 -18.008,-2.597 -13.858,0 -18.008,2.597 -18.008,2.597 0,0 -0.473,0.277 -0.593,0 C 10.834,38.15 9.648,30.241 9.5,25.048 c 3.483,-4.544 12.747,-4.87 20.083,-4.87 z"
                   id="path88"
                   style="opacity:0.5;fill:url(#SVGID_3_)"
                   inkscape:connector-curvature="0" /><g
                   id="g90"><defs
                     id="defs92"><path
                       id="SVGID_4_"
                       d="m 29.583,19.669 c 7.723,0 17.475,0.353 21.141,5.268 -0.156,5.616 -1.404,14.171 -1.561,14.952 -0.127,0.3 -0.624,0 -0.624,0 0,0 -4.368,-2.809 -18.957,-2.809 -14.588,0 -18.956,2.809 -18.956,2.809 0,0 -0.498,0.3 -0.624,0 C 9.846,39.108 8.598,30.553 8.441,24.937 12.11,20.021 21.86,19.669 29.583,19.669 z"
                       inkscape:connector-curvature="0" /></defs><clipPath
                     id="SVGID_5_"><use
                       xlink:href="#SVGID_4_"
                       overflow="visible"
                       id="use96"
                       style="overflow:visible"
                       x="0"
                       y="0"
                       width="63.133999"
                       height="121.823" /></clipPath><g
                     clip-path="url(#SVGID_5_)"
                     id="g98"
                     style="opacity:0.7"><linearGradient
                       id="SVGID_6_"
                       gradientUnits="userSpaceOnUse"
                       x1="23.313"
                       y1="20.355"
                       x2="23.313"
                       y2="36.734901"><stop
                         offset="0"
                         style="stop-color:#FFFFFF;stop-opacity:0"
                         id="stop101" /><stop
                         offset="0.4796"
                         style="stop-color:#FFFFFF"
                         id="stop103" /><stop
                         offset="0.7347"
                         style="stop-color:#FFFFFF"
                         id="stop105" /><stop
                         offset="1"
                         style="stop-color:#FFFFFF;stop-opacity:0"
                         id="stop107" /></linearGradient><rect
                       x="21.73"
                       y="17.941999"
                       width="3.165"
                       height="21.443001"
                       id="rect109"
                       style="fill:url(#SVGID_6_)" /><linearGradient
                       id="SVGID_7_"
                       gradientUnits="userSpaceOnUse"
                       x1="26.288601"
                       y1="20.355"
                       x2="26.288601"
                       y2="36.734901"><stop
                         offset="0"
                         style="stop-color:#FFFFFF;stop-opacity:0"
                         id="stop112" /><stop
                         offset="0.4796"
                         style="stop-color:#FFFFFF"
                         id="stop114" /><stop
                         offset="0.7347"
                         style="stop-color:#FFFFFF"
                         id="stop116" /><stop
                         offset="1"
                         style="stop-color:#FFFFFF;stop-opacity:0"
                         id="stop118" /></linearGradient><rect
                       x="25.777"
                       y="17.941999"
                       width="1.023"
                       height="21.443001"
                       id="rect120"
                       style="fill:url(#SVGID_7_)" /></g></g></g><g
                 id="g122"><path
                   d="m 19.782,21.733 c 0,0 0.232,-0.065 0.652,-0.151 0.209,-0.045 0.464,-0.098 0.756,-0.146 0.292,-0.051 0.622,-0.112 0.983,-0.166 0.362,-0.046 0.754,-0.096 1.169,-0.148 0.415,-0.057 0.854,-0.097 1.309,-0.129 0.455,-0.034 0.925,-0.07 1.402,-0.106 0.479,-0.017 0.964,-0.032 1.451,-0.05 0.486,-0.008 0.972,-0.029 1.451,-0.026 0.479,0.004 0.949,0.021 1.405,0.03 0.455,0.013 0.896,0.025 1.312,0.038 0.417,0.017 0.811,0.058 1.174,0.085 0.726,0.058 1.33,0.123 1.753,0.16 0.423,0.042 0.664,0.071 0.664,0.071 l -0.017,0.238 c 0,0 -0.243,0.006 -0.667,0.007 -0.423,-0.003 -1.027,0.004 -1.752,-0.008 -0.363,-0.003 -0.755,-0.017 -1.169,-0.017 -0.415,0.005 -0.852,0.01 -1.305,0.015 -0.452,0.002 -0.92,0.009 -1.395,0.005 -0.475,0.001 -0.956,0.028 -1.438,0.04 -0.482,0.012 -0.964,0.023 -1.438,0.035 -0.474,0.024 -0.94,0.049 -1.391,0.071 -0.452,0.022 -0.888,0.038 -1.301,0.074 -0.414,0.028 -0.804,0.055 -1.166,0.079 -0.36,0.031 -0.69,0.06 -0.982,0.085 -0.294,0.021 -0.548,0.05 -0.756,0.075 -0.208,0.026 -0.373,0.036 -0.486,0.052 -0.113,0.015 -0.173,0.021 -0.173,0.021 l -0.045,-0.234 z"
                   id="path124"
                   inkscape:connector-curvature="0" /><path
                   d="m 15.208,21.483 c 0.032,0.515 0.398,0.359 4.596,0.03 1.72,-0.135 4.084,-0.158 7.332,-0.397 -11.174,-0.129 -11.946,0.071 -11.928,0.367 z"
                   id="path126"
                   inkscape:connector-curvature="0" /><path
                   d="m 28.21,21.389 v -0.57 c 0,0 -2.029,0.058 -2.447,0.09 v 0.617 l 2.447,-0.137 z"
                   id="path128"
                   inkscape:connector-curvature="0" /></g><g
                 id="g130"><path
                   d="m 35.324,21.052 c 0,0 0.242,-0.005 0.67,0.018 0.213,0.009 0.473,0.022 0.768,0.049 0.297,0.023 0.631,0.048 0.994,0.086 0.361,0.047 0.754,0.097 1.168,0.15 0.416,0.05 0.852,0.121 1.3,0.204 0.448,0.082 0.912,0.165 1.384,0.25 0.467,0.104 0.941,0.211 1.416,0.316 0.473,0.115 0.949,0.216 1.411,0.34 0.462,0.125 0.914,0.259 1.353,0.382 0.438,0.128 0.859,0.251 1.26,0.368 0.4,0.121 0.771,0.26 1.115,0.377 0.689,0.238 1.258,0.454 1.656,0.597 0.399,0.146 0.625,0.235 0.625,0.235 l -0.075,0.227 c 0,0 -0.237,-0.055 -0.646,-0.16 -0.409,-0.11 -0.997,-0.256 -1.694,-0.449 -0.352,-0.094 -0.727,-0.206 -1.128,-0.311 -0.403,-0.1 -0.827,-0.204 -1.267,-0.312 -0.438,-0.113 -0.893,-0.224 -1.351,-0.348 -0.46,-0.117 -0.933,-0.213 -1.401,-0.322 -0.471,-0.11 -0.939,-0.22 -1.402,-0.328 -0.464,-0.096 -0.921,-0.189 -1.363,-0.28 -0.443,-0.093 -0.869,-0.187 -1.277,-0.256 -0.408,-0.077 -0.793,-0.149 -1.148,-0.217 -0.356,-0.061 -0.684,-0.115 -0.973,-0.165 -0.29,-0.053 -0.543,-0.089 -0.751,-0.117 -0.208,-0.027 -0.37,-0.061 -0.483,-0.072 -0.113,-0.015 -0.174,-0.022 -0.174,-0.022 l 0.013,-0.24 z"
                   id="path132"
                   inkscape:connector-curvature="0" /><path
                   d="m 30.883,20.109 c -0.067,0.511 0.321,0.43 4.503,0.917 1.714,0.2 4.037,0.634 7.271,1.026 C 31.719,19.768 30.922,19.814 30.883,20.109 z"
                   id="path134"
                   inkscape:connector-curvature="0" /><path
                   d="m 43.568,22.838 0.144,-0.551 c 0,0 -1.978,-0.455 -2.391,-0.529 l -0.155,0.598 2.402,0.482 z"
                   id="path136"
                   inkscape:connector-curvature="0" /></g></g><g
               id="g138"><g
                 id="g140"><g
                   id="g142"><path
                     d="m 10.897,20.358 c 0.239,-0.942 1.134,-3.284 1.612,-3.702 0.478,-0.418 9.165,-2.839 9.672,-2.269 0.506,0.571 0.095,3.632 -0.203,3.99 -0.161,0.193 -2.872,0.419 -5.602,1.058 -2.324,0.545 -4.515,1.485 -4.763,1.596 -0.537,0.239 -0.851,-0.14 -0.716,-0.673 z"
                     id="path144"
                     inkscape:connector-curvature="0"
                     style="fill:#bbbbbb" /><path
                     d="m 11.307,21.223 c -0.175,0 -0.328,-0.07 -0.428,-0.201 -0.131,-0.168 -0.166,-0.42 -0.097,-0.693 0.225,-0.889 1.133,-3.31 1.649,-3.762 0.458,-0.4 7.526,-2.385 9.343,-2.385 0.266,0 0.419,0.039 0.497,0.127 0.555,0.625 0.142,3.734 -0.201,4.146 -0.095,0.114 -0.409,0.173 -1.713,0.373 -1.057,0.163 -2.504,0.386 -3.953,0.726 -2.441,0.571 -4.718,1.577 -4.741,1.587 -0.125,0.054 -0.245,0.082 -0.356,0.082 z m 10.466,-6.802 c -1.859,0 -8.835,2.019 -9.186,2.325 -0.441,0.387 -1.338,2.709 -1.575,3.642 -0.051,0.2 -0.031,0.378 0.054,0.487 0.099,0.127 0.28,0.144 0.498,0.047 0.023,-0.011 2.321,-1.025 4.784,-1.603 1.458,-0.341 2.911,-0.564 3.971,-0.728 0.759,-0.117 1.475,-0.228 1.574,-0.298 0.264,-0.318 0.662,-3.304 0.198,-3.827 -0.002,0 -0.05,-0.045 -0.318,-0.045 z"
                     id="path146"
                     inkscape:connector-curvature="0"
                     style="fill:#666666" /></g><g
                   id="g148"><linearGradient
                     id="SVGID_8_"
                     gradientUnits="userSpaceOnUse"
                     x1="16.612301"
                     y1="16.1182"
                     x2="16.731701"
                     y2="17.908899"><stop
                       offset="0"
                       style="stop-color:#323232"
                       id="stop151" /><stop
                       offset="1"
                       style="stop-color:#141414"
                       id="stop153" /></linearGradient><path
                     d="m 11.777,19.703 c 0.21,-0.746 0.616,-2.332 1.037,-2.664 0.421,-0.332 8.259,-2.557 8.706,-2.104 0.446,0.452 0.084,2.604 -0.179,2.888 -0.142,0.153 -2.533,0.434 -4.941,0.94 -2.05,0.432 -3.983,1.245 -4.201,1.332 -0.474,0.19 -0.541,0.031 -0.422,-0.392 z"
                     id="path155"
                     style="fill:url(#SVGID_8_)"
                     inkscape:connector-curvature="0" /><path
                     d="m 11.891,20.295 c -0.125,0 -0.191,-0.055 -0.226,-0.101 -0.077,-0.101 -0.077,-0.257 -0.002,-0.522 l 0.064,-0.232 c 0.304,-1.098 0.633,-2.195 1.014,-2.494 0.449,-0.354 6.985,-2.189 8.482,-2.189 0.199,0 0.317,0.029 0.383,0.096 0.495,0.501 0.145,2.707 -0.177,3.053 -0.093,0.101 -0.429,0.165 -1.826,0.397 -0.907,0.15 -2.035,0.339 -3.177,0.579 -1.236,0.26 -2.7,0.723 -4.123,1.303 l -0.059,0.023 c -0.15,0.059 -0.262,0.087 -0.353,0.087 z m 9.331,-5.301 c -1.597,0 -8.038,1.906 -8.334,2.139 -0.351,0.275 -0.728,1.639 -0.931,2.371 l -0.064,0.232 c -0.076,0.268 -0.039,0.312 -0.037,0.314 0.004,0.003 0.069,0.026 0.3,-0.065 l 0.057,-0.022 c 1.436,-0.586 2.915,-1.053 4.164,-1.316 1.147,-0.241 2.278,-0.43 3.188,-0.58 0.821,-0.137 1.597,-0.266 1.699,-0.332 0.221,-0.24 0.567,-2.315 0.173,-2.715 l 0,0 c -0.003,0 -0.045,-0.026 -0.215,-0.026 z"
                     id="path157"
                     inkscape:connector-curvature="0" /></g></g><g
                 id="g159"><g
                   id="g161"><rect
                     x="12.473"
                     y="16.986"
                     transform="matrix(0.9592,0.2828,-0.2828,0.9592,5.7902,-2.7997)"
                     width="0.23800001"
                     height="3.3369999"
                     id="rect163"
                     style="fill:#111111" /><rect
                     x="13.071"
                     y="16.767"
                     transform="matrix(0.9595,0.2817,-0.2817,0.9595,5.728,-2.9693)"
                     width="0.23899999"
                     height="3.3380001"
                     id="rect165"
                     style="fill:#111111" /><rect
                     x="13.646"
                     y="16.563999"
                     transform="matrix(0.9604,0.2785,-0.2785,0.9604,5.6226,-3.1122)"
                     width="0.23800001"
                     height="3.3369999"
                     id="rect167"
                     style="fill:#111111" /><rect
                     x="14.255"
                     y="16.368999"
                     transform="matrix(0.964,0.2661,-0.2661,0.964,5.306,-3.1758)"
                     width="0.23899999"
                     height="3.2539999"
                     id="rect169"
                     style="fill:#111111" /><rect
                     x="14.864"
                     y="16.208"
                     transform="matrix(0.9673,0.2536,-0.2536,0.9673,5.0018,-3.2181)"
                     width="0.23899999"
                     height="3.1700001"
                     id="rect171"
                     style="fill:#111111" /><rect
                     x="15.473"
                     y="16.006001"
                     transform="matrix(0.9684,0.2493,-0.2493,0.9684,4.8851,-3.3303)"
                     width="0.23899999"
                     height="3.2360001"
                     id="rect173"
                     style="fill:#111111" /><rect
                     x="16.082001"
                     y="15.828"
                     transform="matrix(0.9651,0.2617,-0.2617,0.9651,5.142,-3.6309)"
                     width="0.23899999"
                     height="3.3199999"
                     id="rect175"
                     style="fill:#111111" /><rect
                     x="16.674999"
                     y="15.747"
                     transform="matrix(0.9753,0.2208,-0.2208,0.9753,4.2429,-3.2806)"
                     width="0.23899999"
                     height="3.1789999"
                     id="rect177"
                     style="fill:#111111" /><rect
                     x="17.216"
                     y="15.659"
                     transform="matrix(0.9836,0.1803,-0.1803,0.9836,3.3921,-2.8435)"
                     width="0.23800001"
                     height="3.152"
                     id="rect179"
                     style="fill:#111111" /><rect
                     x="17.774"
                     y="15.604"
                     transform="matrix(0.9909,0.1348,-0.1348,0.9909,2.4714,-2.2565)"
                     width="0.23899999"
                     height="3.0250001"
                     id="rect181"
                     style="fill:#111111" /><rect
                     x="21.162001"
                     y="14.995"
                     transform="matrix(0.9996,0.0286,-0.0286,0.9996,0.479,-0.6011)"
                     width="0.23899999"
                     height="2.9489999"
                     id="rect183"
                     style="fill:#111111" /><rect
                     x="20.672001"
                     y="14.993"
                     transform="matrix(0.9981,0.0614,-0.0614,0.9981,1.0528,-1.2446)"
                     width="0.23899999"
                     height="3.0550001"
                     id="rect185"
                     style="fill:#111111" /><rect
                     x="20.165001"
                     y="14.992"
                     transform="matrix(0.9984,0.0573,-0.0573,0.9984,0.9825,-1.1347)"
                     width="0.23899999"
                     height="3.1559999"
                     id="rect187"
                     style="fill:#111111" /><rect
                     x="19.607"
                     y="15.194"
                     transform="matrix(0.9973,0.0736,-0.0736,0.9973,1.2825,-1.406)"
                     width="0.23899999"
                     height="3.023"
                     id="rect189"
                     style="fill:#111111" /><rect
                     x="18.997"
                     y="15.327"
                     transform="matrix(0.9952,0.0981,-0.0981,0.9952,1.7458,-1.7938)"
                     width="0.23899999"
                     height="3.063"
                     id="rect191"
                     style="fill:#111111" /><rect
                     x="18.388"
                     y="15.429"
                     transform="matrix(0.9952,0.0983,-0.0983,0.9952,1.7566,-1.7369)"
                     width="0.23800001"
                     height="3.063"
                     id="rect193"
                     style="fill:#111111" /></g><path
                   d="m 11.923,20.414 c -0.124,0 -0.191,-0.055 -0.226,-0.101 -0.077,-0.101 -0.077,-0.257 -0.002,-0.522 l 0.064,-0.232 c 0.305,-1.098 0.633,-2.194 1.014,-2.494 0.449,-0.354 6.985,-2.189 8.482,-2.189 0.199,0 0.317,0.029 0.383,0.096 0.495,0.502 0.145,2.707 -0.176,3.053 -0.093,0.101 -0.429,0.165 -1.827,0.397 -0.906,0.151 -2.035,0.339 -3.177,0.579 -1.236,0.26 -2.7,0.723 -4.123,1.303 l -0.058,0.023 c -0.15,0.06 -0.262,0.087 -0.354,0.087 z m 9.332,-5.301 c -1.597,0 -8.038,1.906 -8.334,2.139 -0.351,0.276 -0.728,1.639 -0.931,2.371 l -0.064,0.232 c -0.076,0.268 -0.039,0.312 -0.037,0.314 0.004,0.003 0.069,0.027 0.3,-0.064 l 0.057,-0.023 c 1.436,-0.586 2.915,-1.053 4.164,-1.316 1.147,-0.241 2.278,-0.429 3.187,-0.58 0.821,-0.137 1.597,-0.266 1.7,-0.332 0.221,-0.24 0.568,-2.315 0.173,-2.715 -10e-4,0 -0.021,-0.026 -0.215,-0.026 z"
                   id="path195"
                   inkscape:connector-curvature="0"
                   style="fill:#111111" /></g></g><g
               id="g197"><g
                 id="g199"><g
                   id="g201"><path
                     d="m 48.419,20.358 c -0.239,-0.942 -1.134,-3.284 -1.612,-3.702 -0.477,-0.418 -9.164,-2.839 -9.672,-2.269 -0.506,0.571 -0.096,3.497 0.203,3.854 0.161,0.194 2.872,0.42 5.602,1.059 2.324,0.544 4.516,1.484 4.764,1.595 0.536,0.24 0.85,-0.004 0.715,-0.537 z"
                     id="path203"
                     inkscape:connector-curvature="0"
                     style="fill:#bbbbbb" /><path
                     d="m 48.074,21.106 0,0 c -0.127,0 -0.268,-0.034 -0.42,-0.102 -0.023,-0.011 -2.301,-1.017 -4.742,-1.588 -1.448,-0.339 -2.896,-0.562 -3.953,-0.725 -1.304,-0.201 -1.618,-0.26 -1.713,-0.374 -0.341,-0.408 -0.757,-3.383 -0.2,-4.01 0.078,-0.088 0.231,-0.127 0.497,-0.127 1.816,0 8.885,1.984 9.343,2.385 0.517,0.452 1.423,2.873 1.649,3.762 0.08,0.321 0.006,0.506 -0.071,0.605 -0.089,0.115 -0.224,0.174 -0.39,0.174 z M 37.543,14.421 c -0.268,0 -0.316,0.045 -0.318,0.047 -0.466,0.523 -0.066,3.373 0.205,3.698 0.091,0.062 0.808,0.174 1.566,0.29 1.061,0.163 2.514,0.388 3.971,0.729 2.463,0.577 4.762,1.591 4.784,1.602 0.241,0.107 0.44,0.108 0.524,0.001 0.062,-0.081 0.072,-0.223 0.027,-0.399 -0.236,-0.933 -1.133,-3.255 -1.574,-3.642 -0.35,-0.308 -7.326,-2.326 -9.185,-2.326 z"
                     id="path205"
                     inkscape:connector-curvature="0"
                     style="fill:#666666" /></g><g
                   id="g207"><path
                     d="m 47.539,19.703 c -0.211,-0.746 -0.615,-2.332 -1.037,-2.664 -0.422,-0.332 -8.26,-2.557 -8.706,-2.104 -0.446,0.452 -0.084,2.604 0.179,2.888 0.143,0.153 2.533,0.434 4.941,0.94 2.05,0.432 3.982,1.245 4.201,1.332 0.474,0.19 0.541,0.031 0.422,-0.392 z"
                     id="path209"
                     inkscape:connector-curvature="0"
                     style="fill:#1e1e1e" /><path
                     d="m 47.426,20.295 c -0.092,0 -0.204,-0.028 -0.354,-0.088 l -0.057,-0.023 c -1.423,-0.58 -2.888,-1.043 -4.125,-1.303 -1.142,-0.24 -2.27,-0.429 -3.177,-0.579 -1.397,-0.232 -1.733,-0.297 -1.827,-0.397 -0.32,-0.346 -0.67,-2.552 -0.176,-3.053 0.065,-0.066 0.184,-0.096 0.383,-0.096 1.496,0 8.033,1.836 8.482,2.189 0.381,0.299 0.709,1.397 1.014,2.497 l 0.064,0.229 c 0.074,0.266 0.073,0.422 -0.003,0.522 -0.033,0.047 -0.101,0.102 -0.224,0.102 z m -9.332,-5.301 c -0.174,0 -0.214,0.026 -0.216,0.027 -0.392,0.397 -0.045,2.473 0.185,2.721 0.094,0.059 0.869,0.188 1.69,0.324 0.909,0.15 2.04,0.339 3.188,0.58 1.251,0.264 2.729,0.73 4.165,1.316 l 0.056,0.022 c 0.229,0.092 0.294,0.069 0.3,0.064 0.002,-10e-4 0.038,-0.046 -0.037,-0.313 l -0.064,-0.23 C 47.158,18.773 46.781,17.408 46.429,17.132 46.133,16.9 39.691,14.994 38.094,14.994 z"
                     id="path211"
                     inkscape:connector-curvature="0" /></g></g><g
                 id="g213"><rect
                   x="45.088001"
                   y="18.416"
                   transform="matrix(0.2821,0.9594,-0.9594,0.2821,51.3468,-31.5519)"
                   width="3.3369999"
                   height="0.23800001"
                   id="rect215" /><rect
                   x="44.490002"
                   y="18.197001"
                   transform="matrix(0.2815,0.9596,-0.9596,0.2815,50.7395,-31.1314)"
                   width="3.3369999"
                   height="0.23800001"
                   id="rect217" /><rect
                   x="43.915001"
                   y="17.993999"
                   transform="matrix(0.2818,0.9595,-0.9595,0.2818,50.1183,-30.7276)"
                   width="3.3369999"
                   height="0.23899999"
                   id="rect219" /><rect
                   x="43.347"
                   y="17.757"
                   transform="matrix(0.2683,0.9633,-0.9633,0.2683,50.1289,-30.2449)"
                   width="3.2539999"
                   height="0.23800001"
                   id="rect221" /><rect
                   x="42.779999"
                   y="17.554001"
                   transform="matrix(0.2538,0.9672,-0.9672,0.2538,50.1987,-29.7249)"
                   width="3.1700001"
                   height="0.23899999"
                   id="rect223" /><rect
                   x="42.138"
                   y="17.386"
                   transform="matrix(0.2486,0.9686,-0.9686,0.2486,49.8317,-29.2293)"
                   width="3.2360001"
                   height="0.23800001"
                   id="rect225" /><rect
                   x="41.487999"
                   y="17.25"
                   transform="matrix(0.263,0.9648,-0.9648,0.263,48.5553,-28.8277)"
                   width="3.319"
                   height="0.23899999"
                   id="rect227" /><rect
                   x="40.966"
                   y="17.097"
                   transform="matrix(0.2218,0.9751,-0.9751,0.2218,49.9041,-28.0972)"
                   width="3.1789999"
                   height="0.23899999"
                   id="rect229" /><rect
                   x="40.437"
                   y="16.996"
                   transform="matrix(0.1803,0.9836,-0.9836,0.1803,51.2733,-27.2949)"
                   width="3.152"
                   height="0.23899999"
                   id="rect231" /><rect
                   x="39.942001"
                   y="16.878"
                   transform="matrix(0.132,0.9912,-0.9912,0.132,52.8302,-26.3386)"
                   width="3.026"
                   height="0.23899999"
                   id="rect233" /><rect
                   x="36.592999"
                   y="16.23"
                   transform="matrix(0.0295,0.9996,-0.9996,0.0295,53.2865,-22.1823)"
                   width="2.948"
                   height="0.23899999"
                   id="rect235" /><rect
                   x="37.030998"
                   y="16.281"
                   transform="matrix(0.062,0.9981,-0.9981,0.062,52.5343,-23.1004)"
                   width="3.0539999"
                   height="0.23899999"
                   id="rect237" /><rect
                   x="37.487"
                   y="16.332001"
                   transform="matrix(0.0597,0.9982,-0.9982,0.0597,53.1531,-23.5268)"
                   width="3.155"
                   height="0.23899999"
                   id="rect239" /><rect
                   x="38.112"
                   y="16.466999"
                   transform="matrix(0.0737,0.9973,-0.9973,0.0737,53.2459,-24.1507)"
                   width="3.023"
                   height="0.23899999"
                   id="rect241" /><rect
                   x="38.701"
                   y="16.620001"
                   transform="matrix(0.0947,0.9955,-0.9955,0.0947,53.0837,-24.8975)"
                   width="3.062"
                   height="0.23800001"
                   id="rect243" /><rect
                   x="39.310001"
                   y="16.721001"
                   transform="matrix(0.0947,0.9955,-0.9955,0.0947,53.7364,-25.4122)"
                   width="3.062"
                   height="0.23800001"
                   id="rect245" /></g></g><g
               id="g247"><path
                 d="M 43.415,3.998 C 40.371,1.29 34.194,1.193 29.598,1.193 25,1.193 18.824,1.29 15.78,3.998 15.591,4.166 15.4,4.385 15.208,4.648 15.831,5.066 22.034,3.444 29.597,3.522 37.16,3.444 43.364,5.066 43.986,4.648 43.795,4.385 43.604,4.166 43.415,3.998 z"
                 id="path249"
                 inkscape:connector-curvature="0"
                 style="fill:#dfdfdf" /><g
                 id="g251"><path
                   d="M 42.589,3.395 C 42.59,3.391 42.59,3.388 42.591,3.385 39.354,1.277 33.805,1.194 29.585,1.194 c -4.21,0 -9.745,0.082 -12.984,2.177 0.002,0.008 0.004,0.017 0.006,0.024 -0.913,1.023 5.257,-0.848 12.991,-0.768 7.734,-0.08 13.902,1.791 12.991,0.768 z"
                   id="path253"
                   inkscape:connector-curvature="0"
                   style="fill:#191919" /><path
                   d="M 42.245,3.82 C 41.76,3.82 40.918,3.704 39.752,3.543 37.361,3.211 33.695,2.706 29.599,2.746 29.435,2.744 29.274,2.744 29.114,2.744 c -3.903,0 -7.375,0.48 -9.672,0.799 -1.165,0.161 -2.006,0.277 -2.492,0.277 -0.226,0 -0.465,-0.021 -0.535,-0.176 -0.048,-0.107 0.01,-0.214 0.06,-0.279 l -0.013,-0.046 0.073,-0.05 c 3.396,-2.195 9.438,-2.195 13.049,-2.195 3.621,0 9.678,0 13.072,2.211 l 0.075,0.049 -0.011,0.033 c 0.05,0.065 0.107,0.171 0.059,0.277 C 42.725,3.77 42.568,3.82 42.245,3.82 z M 30.081,2.505 c 3.919,0 7.401,0.482 9.704,0.802 1.156,0.16 1.99,0.275 2.46,0.275 0.2,0 0.279,-0.022 0.308,-0.035 C 42.546,3.533 42.532,3.509 42.5,3.474 L 42.486,3.459 C 39.145,1.313 33.164,1.313 29.584,1.313 c -3.558,0 -9.496,0 -12.847,2.11 l -0.042,0.05 c -0.031,0.035 -0.046,0.06 -0.053,0.073 0.028,0.013 0.107,0.035 0.308,0.035 0.469,0 1.304,-0.115 2.459,-0.275 2.398,-0.333 6.07,-0.84 10.19,-0.799 0.159,-0.001 0.322,-0.002 0.482,-0.002 z"
                   id="path255"
                   inkscape:connector-curvature="0" /></g><g
                 id="g257"><path
                   d="M 17.894,3.28 17.829,3.051 c 0.048,-0.014 4.92,-1.379 11.77,-1.379 6.85,0 11.637,1.365 11.686,1.379 L 41.216,3.28 C 41.168,3.266 36.41,1.91 29.598,1.91 22.782,1.91 17.942,3.267 17.894,3.28 z"
                   id="path259"
                   inkscape:connector-curvature="0"
                   style="fill:#333333" /><rect
                   x="17.742001"
                   y="2.7"
                   width="0.23899999"
                   height="0.93099999"
                   id="rect261"
                   style="fill:#333333" /><rect
                   x="41.106998"
                   y="2.6989999"
                   transform="matrix(0.9995,0.0325,-0.0325,0.9995,0.1247,-1.3383)"
                   width="0.23999999"
                   height="0.93199998"
                   id="rect263"
                   style="fill:#333333" /></g><path
                 d="M 42.245,3.82 C 41.76,3.82 40.918,3.704 39.752,3.543 37.361,3.211 33.695,2.706 29.599,2.746 29.435,2.744 29.274,2.744 29.114,2.744 c -3.903,0 -7.375,0.48 -9.672,0.799 -1.165,0.161 -2.006,0.277 -2.492,0.277 -0.226,0 -0.465,-0.021 -0.535,-0.176 -0.048,-0.107 0.01,-0.214 0.06,-0.279 l -0.013,-0.046 0.073,-0.05 c 3.396,-2.195 9.438,-2.195 13.049,-2.195 3.621,0 9.678,0 13.072,2.211 l 0.075,0.049 -0.011,0.033 c 0.05,0.065 0.107,0.171 0.059,0.277 C 42.725,3.77 42.568,3.82 42.245,3.82 z M 30.081,2.505 c 3.919,0 7.401,0.482 9.704,0.802 1.156,0.16 1.99,0.275 2.46,0.275 0.2,0 0.279,-0.022 0.308,-0.035 C 42.546,3.533 42.532,3.509 42.5,3.474 L 42.486,3.459 C 39.145,1.313 33.164,1.313 29.584,1.313 c -3.558,0 -9.496,0 -12.847,2.11 l -0.042,0.05 c -0.031,0.035 -0.046,0.06 -0.053,0.073 0.028,0.013 0.107,0.035 0.308,0.035 0.469,0 1.304,-0.115 2.459,-0.275 2.398,-0.333 6.07,-0.84 10.19,-0.799 0.159,-0.001 0.322,-0.002 0.482,-0.002 z"
                 id="path265"
                 inkscape:connector-curvature="0" /><g
                 id="g267"><ellipse
                   cx="29.597"
                   cy="1.791"
                   rx="1.2539999"
                   ry="0.35800001"
                   id="ellipse269"
                   d="m 30.851,1.791 c 0,0.197718 -0.561435,0.358 -1.254,0.358 -0.692565,0 -1.254,-0.160282 -1.254,-0.358 0,-0.1977179 0.561435,-0.358 1.254,-0.358 0.692565,0 1.254,0.1602821 1.254,0.358 z"
                   sodipodi:cx="29.597"
                   sodipodi:cy="1.791"
                   sodipodi:rx="1.2539999"
                   sodipodi:ry="0.35800001"
                   style="fill:#d0d0d0" /><path
                   d="m 29.598,2.269 c -0.51,0 -1.374,-0.101 -1.374,-0.478 0,-0.377 0.863,-0.478 1.374,-0.478 0.51,0 1.373,0.101 1.373,0.478 0,0.377 -0.864,0.478 -1.373,0.478 z m 0,-0.717 c -0.74,0 -1.111,0.174 -1.135,0.243 0.023,0.062 0.395,0.234 1.135,0.234 0.739,0 1.111,-0.173 1.135,-0.242 C 30.708,1.726 30.336,1.552 29.598,1.552 z"
                   id="path271"
                   inkscape:connector-curvature="0" /></g></g><g
               id="g273"><path
                 d="m 8.449,55.522 c 0.239,-0.547 0.263,-1.313 0.263,-1.313 0,0 0.3,-10.627 0.3,-12.418 0,-1.791 -1.528,-15.562 -2.205,-15.602 -0.318,0.318 -0.309,5.114 -0.309,5.114 0,0 0.359,21.237 0.359,22.759 0,0.545 1.294,2.143 1.592,1.46 z"
                 id="path275"
                 inkscape:connector-curvature="0" /><path
                 d="m 8.225,54.884 c 0.164,-0.511 0.181,-1.259 0.181,-1.259 0,0 0.206,-9.914 0.206,-11.585 0,-1.671 -1.252,-14.924 -1.716,-14.961 -0.219,0.297 -0.009,5.177 -0.009,5.177 0,0 0.246,20.083 0.246,21.502 0,0.509 0.888,1.763 1.092,1.126 z"
                 id="path277"
                 inkscape:connector-curvature="0"
                 style="fill:#171d23" /><polygon
                 points="7.261,41.137 7.261,40.227 8.575,41.296 8.611,42.229 "
                 id="polygon279" /></g><g
               id="g281"><path
                 d="m 50.732,55.522 c -0.238,-0.547 -0.263,-1.313 -0.263,-1.313 0,0 -0.3,-10.627 -0.3,-12.418 0,-1.791 1.528,-15.562 2.205,-15.602 0.318,0.318 0.309,5.114 0.309,5.114 0,0 -0.359,21.236 -0.359,22.758 0,0.546 -1.294,2.144 -1.592,1.461 z"
                 id="path283"
                 inkscape:connector-curvature="0" /><path
                 d="m 50.957,54.884 c -0.164,-0.511 -0.181,-1.259 -0.181,-1.259 0,0 -0.206,-9.914 -0.206,-11.585 0,-1.671 1.252,-14.924 1.716,-14.961 0.218,0.297 0.009,5.177 0.009,5.177 0,0 -0.246,20.083 -0.246,21.502 0,0.509 -0.888,1.763 -1.092,1.126 z"
                 id="path285"
                 inkscape:connector-curvature="0"
                 style="fill:#171d23" /><polygon
                 points="51.921,41.137 51.921,40.227 50.607,41.296 50.57,42.229 "
                 id="polygon287" /></g><g
               id="g289"><path
                 d="m 0.919,33.94 c 0,0 -0.434,-0.54 -0.035,-1.069 C 1.542,32 4.957,31.045 5.457,31.559 l 0.005,1.118 -4.543,1.263 z"
                 id="path291"
                 inkscape:connector-curvature="0" /><path
                 d="m 6.927,30.836 c 0.831,-0.093 1.363,2.259 1.084,3.841 -0.278,1.194 -0.786,-1.513 -1.831,-1.513 -1.94,0 -3.702,0.567 -4.866,1.254 -0.358,-0.06 -0.329,-0.478 -0.329,-0.478 0,0 0.411,-0.747 4.47,-1.463 v -0.919 c 1.024,-0.03 1.337,-0.704 1.472,-0.722 z"
                 id="path293"
                 inkscape:connector-curvature="0"
                 style="fill:#0c0c0c" /><path
                 d="m 1.315,34.418 c 0,0 0.073,0.356 2.209,-0.209 2.136,-0.566 1.933,-1.019 1.933,-1.019 0,0 -1.814,-0.026 -4.142,1.228 z"
                 id="path295"
                 inkscape:connector-curvature="0"
                 style="fill:#bceaff" /></g><path
               d="M 9.776,10.166 C 10.081,9.688 12.981,6.949 14.202,5.828 11.951,9.609 9.961,16.296 9.012,23.067 L 9.776,10.166 z"
               id="path297"
               inkscape:connector-curvature="0"
               style="fill:#cbcbcb" /><path
               d="M 49.422,10.166 C 49.117,9.688 46.217,6.949 44.996,5.828 c 2.25,3.781 4.24,10.468 5.189,17.239 L 49.422,10.166 z"
               id="path299"
               inkscape:connector-curvature="0"
               style="fill:#cbcbcb" /><g
               id="g301"><path
                 d="m 58.17,33.94 c 0,0 0.434,-0.54 0.035,-1.069 C 57.547,32 54.133,31.045 53.633,31.559 l -0.006,1.118 4.543,1.263 z"
                 id="path303"
                 inkscape:connector-curvature="0" /><path
                 d="m 52.162,30.836 c -0.831,-0.093 -1.363,2.259 -1.085,3.841 0.278,1.194 0.786,-1.513 1.831,-1.513 1.94,0 3.701,0.567 4.865,1.254 0.359,-0.06 0.328,-0.478 0.328,-0.478 0,0 -0.41,-0.747 -4.469,-1.463 v -0.919 c -1.023,-0.03 -1.335,-0.704 -1.47,-0.722 z"
                 id="path305"
                 inkscape:connector-curvature="0"
                 style="fill:#0c0c0c" /><path
                 d="m 57.773,34.418 c 0,0 -0.072,0.356 -2.209,-0.209 -2.136,-0.566 -1.932,-1.019 -1.932,-1.019 0,0 1.813,-0.026 4.141,1.228 z"
                 id="path307"
                 inkscape:connector-curvature="0"
                 style="fill:#bceaff" /></g></g><g
             id="g309"><path
               d="m 29.566,41.312 c 3.002,0 6.145,0.223 9.046,0.59 0,-0.009 0,-2.146 0,-3.219 -1.373,-0.179 -3.88,-0.358 -9.051,-0.358 -5.17,0 -7.678,0.18 -9.051,0.358 0,1.074 0,3.22 0,3.22 h 0 c 2.906,-0.368 6.05,-0.591 9.056,-0.591 z"
               id="path311"
               inkscape:connector-curvature="0"
               style="fill:#7a7a7a" /><path
               d="m 20.511,38.684 c 0,0 6.446,0.379 9.073,0.379 2.467,0 9.029,-0.379 9.029,-0.379 -1.373,-0.179 -3.88,-0.358 -9.051,-0.358 -5.171,-10e-4 -7.678,0.179 -9.051,0.358 z"
               id="path313"
               inkscape:connector-curvature="0"
               style="fill:#a9a9a9" /><path
               d="m 20.511,38.684 0.556,2.387 c 0,0 4.129,-0.496 8.441,-0.496 4.312,0 8.553,0.365 8.553,0.365 l 0.552,-2.256 0.005,3.22 c 0,0 -5.297,-0.591 -9.055,-0.591 -3.759,0 -9.051,0.615 -9.051,0.615 v -3.244 z"
               id="path315"
               inkscape:connector-curvature="0"
               style="fill:#232323" /></g><g
             id="g317"><linearGradient
               id="SVGID_9_"
               gradientUnits="userSpaceOnUse"
               x1="29.562"
               y1="59.48"
               x2="29.562"
               y2="39.971699"><stop
                 offset="0"
                 style="stop-color:#D7D7D7"
                 id="stop320" /><stop
                 offset="0.3305"
                 style="stop-color:#B6B6B6"
                 id="stop322" /><stop
                 offset="1"
                 style="stop-color:#636162"
                 id="stop324" /></linearGradient><path
               d="M 29.562,60.955 H 49.35 c 0,0 0.213,-16.339 -0.584,-16.681 -3.345,-1.577 -11.705,-2.962 -19.204,-2.962 -7.499,0 -15.859,1.385 -19.204,2.962 -0.796,0.342 -0.583,16.681 -0.583,16.681 h 19.787"
               id="path326"
               style="fill:url(#SVGID_9_)"
               inkscape:connector-curvature="0" /><path
               d="M 49.467,61.074 H 9.657 L 9.656,60.957 c -0.05,-3.852 -0.151,-16.446 0.656,-16.792 3.531,-1.666 11.989,-2.972 19.251,-2.972 7.262,0 15.719,1.306 19.254,2.974 0.804,0.344 0.703,12.938 0.652,16.79 l -0.002,0.117 z M 29.562,41.432 c -7.232,0 -15.645,1.297 -19.153,2.951 -0.522,0.432 -0.594,10.269 -0.516,16.453 l 19.669,-10e-4 19.669,10e-4 C 49.309,54.651 49.237,44.814 48.712,44.381 45.207,42.729 36.794,41.432 29.562,41.432 z"
               id="path328"
               inkscape:connector-curvature="0"
               style="fill:#232323" /></g><linearGradient
             id="SVGID_10_"
             gradientUnits="userSpaceOnUse"
             x1="29.562"
             y1="60.117199"
             x2="29.562"
             y2="44.412701"><stop
               offset="0"
               style="stop-color:#FBFBFB;stop-opacity:0"
               id="stop331" /><stop
               offset="0.3635"
               style="stop-color:#FBFBFB"
               id="stop333" /><stop
               offset="0.6426"
               style="stop-color:#FBFBFB;stop-opacity:0.7804"
               id="stop335" /><stop
               offset="1"
               style="stop-color:#FBFBFB;stop-opacity:0"
               id="stop337" /></linearGradient><path
             d="m 29.562,60.852 17.81,0.002 c 0,0 0.19,-14.706 -0.525,-15.014 -3.012,-1.42 -10.535,-2.666 -17.284,-2.666 -6.749,0 -14.272,1.246 -17.284,2.666 -0.716,0.308 -0.524,15.014 -0.524,15.014 l 17.807,-0.002"
             id="path339"
             style="opacity:0.8;fill:url(#SVGID_10_)"
             inkscape:connector-curvature="0" /><g
             id="g341"><path
               clip-rule="evenodd"
               d="m 25.436,54.92 c -0.169,-0.604 -0.195,-1.209 -0.074,-1.82 0.411,-2.063 2.214,-3.481 4.331,-3.407 2.029,0.072 3.731,1.641 4,3.688 0.312,2.371 -1.455,4.556 -3.841,4.736 -1.02,0.076 -1.994,-0.094 -2.869,-0.655 -0.607,-0.39 -1.051,-0.913 -1.215,-1.634 -0.27,-1.185 0.686,-2.822 2.481,-2.441 0.736,0.156 1.261,0.832 1.267,1.581 0.006,0.744 -0.491,1.414 -1.187,1.593 -0.222,0.058 -0.446,0.072 -0.685,-0.012 0.245,-0.219 0.349,-0.48 0.307,-0.791 -0.06,-0.449 -0.468,-0.785 -0.92,-0.764 -0.439,0.02 -0.834,0.432 -0.858,0.901 -0.025,0.517 0.214,0.909 0.623,1.189 1.438,0.987 3.381,0.279 3.837,-1.378 0.281,-1.023 0.082,-1.94 -0.723,-2.661 -0.792,-0.709 -1.72,-0.933 -2.724,-0.532 -1.009,0.402 -1.592,1.168 -1.73,2.256 -0.007,0.05 -0.014,0.1 -0.02,0.151 z"
               id="path343"
               inkscape:connector-curvature="0"
               style="fill-rule:evenodd" /><g
               id="g345"><path
                 clip-rule="evenodd"
                 d="m 25.433,46.596 c 0,0.585 0,1.139 0,1.706 -0.185,0 -0.357,0 -0.538,0 0,-1.415 0,-2.825 0,-4.245 0.179,0 0.348,0 0.526,0 0.005,0.104 0.01,0.198 0.016,0.321 0.379,-0.356 0.805,-0.485 1.291,-0.393 0.372,0.07 0.679,0.253 0.914,0.552 0.473,0.602 0.412,1.494 -0.124,2.04 -0.423,0.433 -1.361,0.697 -2.085,0.019 z M 25.419,45.48 c -0.003,0.557 0.441,1.015 0.986,1.02 0.542,0.006 0.997,-0.453 1,-1.007 0.002,-0.554 -0.446,-1.018 -0.988,-1.021 -0.543,-0.003 -0.996,0.454 -0.998,1.008 z"
                 id="path347"
                 inkscape:connector-curvature="0"
                 style="fill-rule:evenodd" /><path
                 clip-rule="evenodd"
                 d="m 29.002,46.586 c -0.006,0.135 -0.011,0.23 -0.016,0.335 -0.176,0 -0.344,0 -0.522,0 0,-0.957 0,-1.905 0,-2.863 0.174,0 0.338,0 0.521,0 0.005,0.095 0.01,0.188 0.017,0.319 0.419,-0.387 0.886,-0.504 1.411,-0.365 0.339,0.09 0.614,0.277 0.822,0.56 0.422,0.573 0.386,1.406 -0.085,1.935 -0.281,0.314 -0.635,0.479 -1.054,0.505 -0.414,0.024 -0.775,-0.106 -1.094,-0.426 z M 28.984,45.48 c -0.004,0.553 0.443,1.015 0.987,1.02 0.543,0.005 0.995,-0.45 1,-1.006 0.005,-0.554 -0.443,-1.018 -0.986,-1.021 -0.541,-0.005 -0.996,0.453 -1.001,1.007 z"
                 id="path349"
                 inkscape:connector-curvature="0"
                 style="fill-rule:evenodd" /><path
                 clip-rule="evenodd"
                 d="m 34.734,45.488 c -0.002,-0.865 0.664,-1.531 1.529,-1.532 0.867,-0.001 1.535,0.663 1.535,1.527 0.002,0.867 -0.658,1.528 -1.53,1.53 -0.868,0.004 -1.534,-0.658 -1.534,-1.525 z m 1.537,-1.015 c -0.543,-0.002 -0.997,0.456 -1.002,1.01 -0.002,0.551 0.447,1.014 0.992,1.018 0.541,0.004 0.998,-0.457 1,-1.009 0.002,-0.552 -0.45,-1.017 -0.99,-1.019 z"
                 id="path351"
                 inkscape:connector-curvature="0"
                 style="fill-rule:evenodd" /><path
                 clip-rule="evenodd"
                 d="m 24.377,45.496 c -0.003,0.864 -0.675,1.523 -1.544,1.518 -0.87,-0.006 -1.528,-0.671 -1.522,-1.538 0.005,-0.864 0.673,-1.522 1.544,-1.52 0.863,0.003 1.525,0.673 1.522,1.54 z m -1.532,-1.023 c -0.541,-10e-4 -0.996,0.461 -0.996,1.013 -0.001,0.553 0.451,1.014 0.993,1.015 0.542,0 0.997,-0.461 0.997,-1.012 0.001,-0.552 -0.453,-1.015 -0.994,-1.016 z"
                 id="path353"
                 inkscape:connector-curvature="0"
                 style="fill-rule:evenodd" /><path
                 clip-rule="evenodd"
                 d="m 32.034,44.771 c -0.086,-0.161 -0.167,-0.312 -0.246,-0.46 0.426,-0.483 1.431,-0.473 1.989,0.016 0.625,0.548 0.691,1.535 0.147,2.164 -0.528,0.611 -1.524,0.699 -2.143,0.176 0.082,-0.153 0.165,-0.311 0.249,-0.469 0.587,0.404 1.096,0.385 1.471,-0.047 0.339,-0.39 0.331,-0.965 -0.018,-1.354 -0.374,-0.418 -0.881,-0.432 -1.449,-0.026 z"
                 id="path355"
                 inkscape:connector-curvature="0"
                 style="fill-rule:evenodd" /></g></g><g
             id="g357"><path
               clip-rule="evenodd"
               d="m 38.656,60.955 c 0,0 -0.894,-1.197 -1.49,-1.197 -0.598,0 -7.583,0 -7.583,0 0,0 -6.985,0 -7.582,0 -0.597,0 -1.491,1.197 -1.491,1.197 h 18.146 z"
               id="path359"
               inkscape:connector-curvature="0"
               style="fill:#0f0f0f;fill-rule:evenodd" /><path
               d="M 38.895,61.074 H 20.272 l 0.143,-0.191 c 0.095,-0.127 0.948,-1.244 1.586,-1.244 h 15.165 c 0.639,0 1.49,1.117 1.586,1.244 l 0.143,0.191 z M 20.758,60.836 H 38.409 C 38.096,60.459 37.534,59.878 37.166,59.878 H 22.001 c -0.369,0 -0.93,0.581 -1.243,0.958 z"
               id="path361"
               inkscape:connector-curvature="0"
               style="fill:#1e1e1e" /></g><path
             d="M 21.822,38.325"
             id="path363"
             inkscape:connector-curvature="0"
             style="fill:#232323" /><g
             id="g365"><linearGradient
               id="SVGID_11_"
               gradientUnits="userSpaceOnUse"
               x1="14.9487"
               y1="41.888199"
               x2="14.9487"
               y2="38.862"><stop
                 offset="0"
                 style="stop-color:#A9A9A9"
                 id="stop368" /><stop
                 offset="1"
                 style="stop-color:#A9A9A9;stop-opacity:0"
                 id="stop370" /></linearGradient><path
               d="m 9.85,43.876 v -2.874 c 1.465,-0.775 6.247,-2.166 10.13,-2.42 l 0.067,2.832 c 0,0 -6.583,0.815 -10.197,2.462 z"
               id="path372"
               style="fill:url(#SVGID_11_)"
               inkscape:connector-curvature="0" /><linearGradient
               id="SVGID_12_"
               gradientUnits="userSpaceOnUse"
               x1="44.159199"
               y1="41.888199"
               x2="44.159199"
               y2="38.862"><stop
                 offset="0"
                 style="stop-color:#A9A9A9"
                 id="stop375" /><stop
                 offset="1"
                 style="stop-color:#A9A9A9;stop-opacity:0"
                 id="stop377" /></linearGradient><path
               d="m 49.258,43.876 v -2.874 c -1.465,-0.775 -6.248,-2.166 -10.13,-2.42 l -0.067,2.832 c 0,0 6.582,0.815 10.197,2.462 z"
               id="path379"
               style="fill:url(#SVGID_12_)"
               inkscape:connector-curvature="0" /></g><path
             d="m 8.611,10.962 c 0,0 -0.873,13.015 -0.856,14.966 0.017,1.95 -0.656,0 -0.656,0 L 7.704,13.47 c 0.427,-0.279 0.907,-2.508 0.907,-2.508 z"
             id="path381"
             inkscape:connector-curvature="0"
             style="fill:#6d6d6d" /><path
             d="m 50.49,10.962 c 0,0 0.873,13.015 0.855,14.966 -0.017,1.95 0.656,0 0.656,0 L 51.397,13.47 C 50.971,13.191 50.49,10.962 50.49,10.962 z"
             id="path383"
             inkscape:connector-curvature="0"
             style="fill:#6d6d6d" /></g></g><path
         clip-rule="evenodd"
         stroke-miterlimit="10"
         d="M 9.285,59.758"
         id="path385"
         inkscape:connector-curvature="0"
         style="fill:none;stroke:#3f3f3f;stroke-width:3;stroke-miterlimit:10" /><g
         id="g387"><g
           id="g389"><g
             id="g391"><g
               id="g393"><linearGradient
                 id="SVGID_13_"
                 gradientUnits="userSpaceOnUse"
                 x1="29.5835"
                 y1="63.148399"
                 x2="29.5835"
                 y2="111.5018"><stop
                   offset="0"
                   style="stop-color:#DF0000"
                   id="stop396" /><stop
                   offset="1"
                   style="stop-color:#A00404"
                   id="stop398" /></linearGradient><path
                 clip-rule="evenodd"
                 d="m 54.607,113.081 c 0,2.2 -1.799,4 -4,4 H 8.56 c -2.2,0 -4,-1.8 -4,-4 V 65.192 c 0,-2.2 1.8,-4 4,-4 h 42.048 c 2.201,0 4,1.8 4,4 v 47.889 z"
                 id="path400"
                 style="fill:url(#SVGID_13_);fill-rule:evenodd"
                 inkscape:connector-curvature="0" /></g><path
               d="M 53.652,117.439 H 5.515 c -0.724,0 -1.313,-0.59 -1.313,-1.313 V 62.147 c 0,-0.724 0.589,-1.313 1.313,-1.313 h 48.138 c 0.725,0 1.314,0.59 1.314,1.313 v 53.979 c 0,0.724 -0.59,1.313 -1.315,1.313 z M 5.515,61.551 c -0.329,0 -0.597,0.268 -0.597,0.597 v 53.979 c 0,0.329 0.268,0.597 0.597,0.597 h 48.138 c 0.33,0 0.598,-0.268 0.598,-0.597 v -53.98 c 0,-0.329 -0.268,-0.597 -0.598,-0.597 H 5.515 z"
               id="path402"
               inkscape:connector-curvature="0"
               style="fill:#6d0000" /></g><g
             id="g404"><path
               clip-rule="evenodd"
               d="m 48.725,85.209 c 0,1.1 -0.899,2 -2,2 H 12.441 c -1.1,0 -2,-0.9 -2,-2 V 69.737 c 0,-1.101 0.9,-2 2,-2 h 34.284 c 1.101,0 2,0.899 2,2 v 15.472 z"
               id="path406"
               inkscape:connector-curvature="0"
               style="fill:#700000;fill-rule:evenodd" /></g><g
             id="g408"><g
               id="g410"><linearGradient
                 id="SVGID_14_"
                 gradientUnits="userSpaceOnUse"
                 x1="29.5835"
                 y1="68.633797"
                 x2="29.5835"
                 y2="83.257599"><stop
                   offset="0"
                   style="stop-color:#DF0000"
                   id="stop413" /><stop
                   offset="1"
                   style="stop-color:#A00404"
                   id="stop415" /></linearGradient><path
                 clip-rule="evenodd"
                 d="m 47.711,83.918 c 0,1.1 -0.9,2 -2,2 H 13.456 c -1.1,0 -2,-0.9 -2,-2 V 69.607 c 0,-1.1 0.9,-2 2,-2 h 32.255 c 1.1,0 2,0.9 2,2 v 14.311 z"
                 id="path417"
                 style="fill:url(#SVGID_14_);fill-rule:evenodd"
                 inkscape:connector-curvature="0" /></g><path
               d="M 47.232,86.275 H 11.934 c -0.461,0 -0.836,-0.375 -0.836,-0.836 V 68.085 c 0,-0.461 0.375,-0.836 0.836,-0.836 h 35.298 c 0.461,0 0.836,0.375 0.836,0.836 v 17.354 c 0,0.461 -0.375,0.836 -0.836,0.836 z M 11.934,67.966 c -0.065,0 -0.12,0.054 -0.12,0.119 v 17.354 c 0,0.065 0.055,0.12 0.12,0.12 h 35.298 c 0.064,0 0.119,-0.055 0.119,-0.12 V 68.085 c 0,-0.065 -0.055,-0.119 -0.119,-0.119 H 11.934 z"
               id="path419"
               inkscape:connector-curvature="0"
               style="fill:#a80000" /></g><g
             id="g421"><g
               id="g423"><linearGradient
                 id="SVGID_15_"
                 gradientUnits="userSpaceOnUse"
                 x1="29.5835"
                 y1="81.850601"
                 x2="29.5835"
                 y2="91.7062"><stop
                   offset="0"
                   style="stop-color:#DF0000"
                   id="stop426" /><stop
                   offset="1"
                   style="stop-color:#A00404"
                   id="stop428" /></linearGradient><path
                 clip-rule="evenodd"
                 d="m 45.898,83.512 c 0,1.1 -0.9,2 -2,2 H 15.269 c -1.1,0 -2,-0.9 -2,-2 V 70.014 c 0,-1.1 0.9,-2 2,-2 h 28.629 c 1.1,0 2,0.9 2,2 v 13.498 z"
                 id="path430"
                 style="fill:url(#SVGID_15_);fill-rule:evenodd"
                 inkscape:connector-curvature="0" /></g><path
               clip-rule="evenodd"
               d="m 13.868,84.119 c 10e-4,-0.479 0.034,-14.237 0.034,-14.237 0,0 -0.241,-1.009 0.955,-1.009 1.592,0 28.821,-0.086 29.93,0 -1.034,0.205 -28.577,0 -29.85,1.114 -1.273,1.114 -0.836,13.373 -1.069,14.132 z"
               id="path432"
               inkscape:connector-curvature="0"
               style="opacity:0.4;fill:#ffffff;fill-rule:evenodd" /></g><g
             id="g434"><linearGradient
               id="SVGID_16_"
               gradientUnits="userSpaceOnUse"
               x1="29.5884"
               y1="82.027298"
               x2="29.5884"
               y2="84.848602"><stop
                 offset="0"
                 style="stop-color:#DF0000"
                 id="stop437" /><stop
                 offset="1"
                 style="stop-color:#A00404"
                 id="stop439" /></linearGradient><path
               clip-rule="evenodd"
               d="m 45.225,83.43 c 0,0.805 -1.35,1.463 -3,1.463 H 16.952 c -1.65,0 -3,-0.658 -3,-1.463 0,-0.805 1.35,-1.463 3,-1.463 h 25.272 c 1.651,0 3.001,0.658 3.001,1.463 z"
               id="path441"
               style="fill:url(#SVGID_16_);fill-rule:evenodd"
               inkscape:connector-curvature="0" /></g></g><g
           id="g443"
           style="opacity:0.3"><path
             clip-rule="evenodd"
             d="m 6.796,113.02 c 0.735,-0.716 1.815,-46.336 1.815,-47.888 0,-1.553 -2.113,-1.791 -2.113,-1.791 l 0.298,49.679 z"
             id="path445"
             inkscape:connector-curvature="0"
             style="fill:#ffffff;fill-rule:evenodd" /><path
             clip-rule="evenodd"
             d="m 52.287,113.02 c -0.736,-0.716 -1.815,-46.336 -1.815,-47.888 0,-1.553 2.113,-1.791 2.113,-1.791 l -0.298,49.679 z"
             id="path447"
             inkscape:connector-curvature="0"
             style="fill:#ffffff;fill-rule:evenodd" /></g><g
           id="g449"><linearGradient
             id="SVGID_17_"
             gradientUnits="userSpaceOnUse"
             x1="29.5415"
             y1="63.758801"
             x2="29.5415"
             y2="64.894402"><stop
               offset="0"
               style="stop-color:#700000;stop-opacity:0"
               id="stop452" /><stop
               offset="1"
               style="stop-color:#700000"
               id="stop454" /></linearGradient><path
             clip-rule="evenodd"
             d="m 8.611,65.132 c 0,0.038 0,0.119 -0.002,0.238 h 41.864 c -10e-4,-0.119 -0.002,-0.2 -0.002,-0.238 0,-1.553 2.113,-1.791 2.113,-1.791 H 6.499 c 0,0 2.112,0.238 2.112,1.791 z"
             id="path456"
             style="opacity:0.5;fill:url(#SVGID_17_);fill-rule:evenodd"
             inkscape:connector-curvature="0" /></g><g
           id="g458"><path
             clip-rule="evenodd"
             d="m 5.087,116.371 c -0.29,0 -0.527,-1.8 -0.527,-4 V 64.955 c 0,-2.2 1.8,-4 4,-4 h 42.048 c 2.201,0 4,1.8 4,4 v 47.416 c 0,2.2 -0.24,4 -0.535,4 -0.294,0 -0.535,-1.8 -0.535,-4 v -46.01 c 0,-2.2 -1.799,-4 -4,-4 H 9.614 c -2.2,0 -4,1.8 -4,4 v 46.01 c 0,2.2 -0.238,4 -0.527,4 z"
             id="path460"
             inkscape:connector-curvature="0"
             style="fill:#870000;fill-rule:evenodd" /></g><path
           d="M 53.652,117.439 H 5.515 c -0.724,0 -1.313,-0.59 -1.313,-1.313 V 62.147 c 0,-0.724 0.589,-1.313 1.313,-1.313 h 48.138 c 0.725,0 1.314,0.59 1.314,1.313 v 53.979 c 0,0.724 -0.59,1.313 -1.315,1.313 z M 5.515,61.551 c -0.329,0 -0.597,0.268 -0.597,0.597 v 53.979 c 0,0.329 0.268,0.597 0.597,0.597 h 48.138 c 0.33,0 0.598,-0.268 0.598,-0.597 v -53.98 c 0,-0.329 -0.268,-0.597 -0.598,-0.597 H 5.515 z"
           id="path462"
           inkscape:connector-curvature="0"
           style="fill:#6d0000" /></g></g></g></svg>