<?xml version="1.0" encoding="UTF-8" standalone="no"?>
<!-- Generator: Adobe Illustrator 18.0.0, SVG Export Plug-In . SVG Version: 6.00 Build 0)  -->

<svg
   xmlns:dc="http://purl.org/dc/elements/1.1/"
   xmlns:cc="http://creativecommons.org/ns#"
   xmlns:rdf="http://www.w3.org/1999/02/22-rdf-syntax-ns#"
   xmlns:svg="http://www.w3.org/2000/svg"
   xmlns="http://www.w3.org/2000/svg"
   xmlns:xlink="http://www.w3.org/1999/xlink"
   xmlns:sodipodi="http://sodipodi.sourceforge.net/DTD/sodipodi-0.dtd"
   xmlns:inkscape="http://www.inkscape.org/namespaces/inkscape"
   version="1.1"
   id="Layer_1"
   
   viewBox="0 0 250.9 396.5"
   enable-background="new 0 0 250.9 396.5"
   xml:space="preserve"
   inkscape:version="0.48.4 r9939"
   width="100%"
   height="100%"
   sodipodi:docname="Van2.svg"><metadata
     id="metadata3743"><rdf:RDF><cc:Work
         rdf:about=""><dc:format>image/svg+xml</dc:format><dc:type
           rdf:resource="http://purl.org/dc/dcmitype/StillImage" /></cc:Work></rdf:RDF></metadata><defs
     id="defs3741"><linearGradient
       id="SVGID_1_-1"
       gradientUnits="userSpaceOnUse"
       x1="29.575701"
       y1="-0.061999999"
       x2="29.575701"
       y2="63.250198"><stop
         offset="0"
         style="stop-color:#CBCBCB"
         id="stop18" /><stop
         offset="0.3163"
         style="stop-color:#8D8D8D"
         id="stop20" /><stop
         offset="0.9286"
         style="stop-color:#666666"
         id="stop22" /><stop
         offset="0.9745"
         style="stop-color:#333333"
         id="stop24" /></linearGradient><linearGradient
       id="SVGID_2_-7"
       gradientUnits="userSpaceOnUse"
       x1="202.5264"
       y1="17.936501"
       x2="202.5264"
       y2="5.1813998"
       gradientTransform="matrix(-1,0,0,1,232.1172,0)"><stop
         offset="0"
         style="stop-color:#FBFBFB;stop-opacity:0"
         id="stop61" /><stop
         offset="0.3635"
         style="stop-color:#FBFBFB"
         id="stop63" /><stop
         offset="0.6426"
         style="stop-color:#FBFBFB;stop-opacity:0.7804"
         id="stop65" /><stop
         offset="1"
         style="stop-color:#FBFBFB;stop-opacity:0"
         id="stop67" /></linearGradient><linearGradient
       id="SVGID_3_-2"
       gradientUnits="userSpaceOnUse"
       x1="9.5"
       y1="29.586399"
       x2="49.667999"
       y2="29.586399"><stop
         offset="0"
         style="stop-color:#636668;stop-opacity:0"
         id="stop80" /><stop
         offset="0.1426"
         style="stop-color:#636668"
         id="stop82" /><stop
         offset="0.834"
         style="stop-color:#636668"
         id="stop84" /><stop
         offset="1"
         style="stop-color:#636668;stop-opacity:0"
         id="stop86" /></linearGradient><clipPath
       id="SVGID_5_-1"><path
         d="m 29.583,19.669 c 7.723,0 17.475,0.353 21.141,5.268 -0.156,5.616 -1.404,14.171 -1.561,14.952 -0.127,0.3 -0.624,0 -0.624,0 0,0 -4.368,-2.809 -18.957,-2.809 -14.588,0 -18.956,2.809 -18.956,2.809 0,0 -0.498,0.3 -0.624,0 C 9.846,39.108 8.598,30.553 8.441,24.937 12.11,20.021 21.86,19.669 29.583,19.669 z"
         id="use96"
         inkscape:connector-curvature="0" /></clipPath><linearGradient
       id="SVGID_6_-8"
       gradientUnits="userSpaceOnUse"
       x1="23.313"
       y1="20.355"
       x2="23.313"
       y2="36.734901"><stop
         offset="0"
         style="stop-color:#FFFFFF;stop-opacity:0"
         id="stop101" /><stop
         offset="0.4796"
         style="stop-color:#FFFFFF"
         id="stop103" /><stop
         offset="0.7347"
         style="stop-color:#FFFFFF"
         id="stop105" /><stop
         offset="1"
         style="stop-color:#FFFFFF;stop-opacity:0"
         id="stop107" /></linearGradient><linearGradient
       id="SVGID_7_-0"
       gradientUnits="userSpaceOnUse"
       x1="26.288601"
       y1="20.355"
       x2="26.288601"
       y2="36.734901"><stop
         offset="0"
         style="stop-color:#FFFFFF;stop-opacity:0"
         id="stop112" /><stop
         offset="0.4796"
         style="stop-color:#FFFFFF"
         id="stop114" /><stop
         offset="0.7347"
         style="stop-color:#FFFFFF"
         id="stop116" /><stop
         offset="1"
         style="stop-color:#FFFFFF;stop-opacity:0"
         id="stop118" /></linearGradient><linearGradient
       id="SVGID_8_-8"
       gradientUnits="userSpaceOnUse"
       x1="16.612301"
       y1="16.1182"
       x2="16.731701"
       y2="17.908899"><stop
         offset="0"
         style="stop-color:#323232"
         id="stop151" /><stop
         offset="1"
         style="stop-color:#141414"
         id="stop153" /></linearGradient><linearGradient
       id="SVGID_9_-6"
       gradientUnits="userSpaceOnUse"
       x1="29.562"
       y1="59.48"
       x2="29.562"
       y2="39.971699"><stop
         offset="0"
         style="stop-color:#D7D7D7"
         id="stop320" /><stop
         offset="0.3305"
         style="stop-color:#B6B6B6"
         id="stop322" /><stop
         offset="1"
         style="stop-color:#636162"
         id="stop324" /></linearGradient><linearGradient
       id="SVGID_10_-9"
       gradientUnits="userSpaceOnUse"
       x1="29.562"
       y1="60.117199"
       x2="29.562"
       y2="44.412701"><stop
         offset="0"
         style="stop-color:#FBFBFB;stop-opacity:0"
         id="stop331" /><stop
         offset="0.3635"
         style="stop-color:#FBFBFB"
         id="stop333" /><stop
         offset="0.6426"
         style="stop-color:#FBFBFB;stop-opacity:0.7804"
         id="stop335" /><stop
         offset="1"
         style="stop-color:#FBFBFB;stop-opacity:0"
         id="stop337" /></linearGradient><linearGradient
       id="SVGID_11_"
       gradientUnits="userSpaceOnUse"
       x1="14.9487"
       y1="41.888199"
       x2="14.9487"
       y2="38.862"><stop
         offset="0"
         style="stop-color:#A9A9A9"
         id="stop368" /><stop
         offset="1"
         style="stop-color:#A9A9A9;stop-opacity:0"
         id="stop370" /></linearGradient><linearGradient
       id="SVGID_12_"
       gradientUnits="userSpaceOnUse"
       x1="44.159199"
       y1="41.888199"
       x2="44.159199"
       y2="38.862"><stop
         offset="0"
         style="stop-color:#A9A9A9"
         id="stop375" /><stop
         offset="1"
         style="stop-color:#A9A9A9;stop-opacity:0"
         id="stop377" /></linearGradient><linearGradient
       id="SVGID_13_"
       gradientUnits="userSpaceOnUse"
       x1="29.5835"
       y1="63.148399"
       x2="29.5835"
       y2="111.5018"><stop
         offset="0"
         style="stop-color:#DF0000"
         id="stop396" /><stop
         offset="1"
         style="stop-color:#A00404"
         id="stop398" /></linearGradient><linearGradient
       id="SVGID_14_"
       gradientUnits="userSpaceOnUse"
       x1="29.5835"
       y1="68.633797"
       x2="29.5835"
       y2="83.257599"><stop
         offset="0"
         style="stop-color:#DF0000"
         id="stop413" /><stop
         offset="1"
         style="stop-color:#A00404"
         id="stop415" /></linearGradient><linearGradient
       id="SVGID_15_"
       gradientUnits="userSpaceOnUse"
       x1="29.5835"
       y1="81.850601"
       x2="29.5835"
       y2="91.7062"><stop
         offset="0"
         style="stop-color:#DF0000"
         id="stop426" /><stop
         offset="1"
         style="stop-color:#A00404"
         id="stop428" /></linearGradient><linearGradient
       id="SVGID_16_"
       gradientUnits="userSpaceOnUse"
       x1="29.5884"
       y1="82.027298"
       x2="29.5884"
       y2="84.848602"><stop
         offset="0"
         style="stop-color:#DF0000"
         id="stop437" /><stop
         offset="1"
         style="stop-color:#A00404"
         id="stop439" /></linearGradient><linearGradient
       id="SVGID_17_"
       gradientUnits="userSpaceOnUse"
       x1="29.5415"
       y1="63.758801"
       x2="29.5415"
       y2="64.894402"><stop
         offset="0"
         style="stop-color:#700000;stop-opacity:0"
         id="stop452" /><stop
         offset="1"
         style="stop-color:#700000"
         id="stop454" /></linearGradient><linearGradient
       id="SVGID_1_-4"
       gradientUnits="userSpaceOnUse"
       x1="33.277802"
       y1="16.560801"
       x2="33.277802"
       y2="79.988503"><stop
         offset="0"
         style="stop-color:#CBCBCB"
         id="stop3459" /><stop
         offset="0.3163"
         style="stop-color:#8D8D8D"
         id="stop3461" /><stop
         offset="0.9286"
         style="stop-color:#666666"
         id="stop3463" /><stop
         offset="0.9745"
         style="stop-color:#333333"
         id="stop3465" /></linearGradient><linearGradient
       id="SVGID_2_-6"
       gradientUnits="userSpaceOnUse"
       x1="198.9575"
       y1="34.591999"
       x2="198.9575"
       y2="21.8144"
       gradientTransform="matrix(-1,0,0,1,232.251,0)"><stop
         offset="0"
         style="stop-color:#FBFBFB;stop-opacity:0"
         id="stop3502" /><stop
         offset="0.3635"
         style="stop-color:#FBFBFB"
         id="stop3504" /><stop
         offset="0.6426"
         style="stop-color:#FBFBFB;stop-opacity:0.7804"
         id="stop3506" /><stop
         offset="1"
         style="stop-color:#FBFBFB;stop-opacity:0"
         id="stop3508" /></linearGradient><linearGradient
       id="SVGID_3_-2-5"
       gradientUnits="userSpaceOnUse"
       x1="13.166"
       y1="46.262901"
       x2="53.4048"
       y2="46.262901"><stop
         offset="0"
         style="stop-color:#636668;stop-opacity:0"
         id="stop3521" /><stop
         offset="0.1426"
         style="stop-color:#636668"
         id="stop3523" /><stop
         offset="0.834"
         style="stop-color:#636668"
         id="stop3525" /><stop
         offset="1"
         style="stop-color:#636668;stop-opacity:0"
         id="stop3527" /></linearGradient><clipPath
       id="SVGID_5_-1-5"><use
         height="1052.3622"
         width="744.09448"
         y="0"
         x="0"
         style="overflow:visible"
         xlink:href="#SVGID_4_-0"
         overflow="visible"
         id="use3537" /></clipPath><linearGradient
       id="SVGID_6_-7"
       gradientUnits="userSpaceOnUse"
       x1="27.002899"
       y1="37.0149"
       x2="27.002899"
       y2="53.423901"><stop
         offset="0"
         style="stop-color:#FFFFFF;stop-opacity:0"
         id="stop3542" /><stop
         offset="0.4796"
         style="stop-color:#FFFFFF"
         id="stop3544" /><stop
         offset="0.7347"
         style="stop-color:#FFFFFF"
         id="stop3546" /><stop
         offset="1"
         style="stop-color:#FFFFFF;stop-opacity:0"
         id="stop3548" /></linearGradient><linearGradient
       id="SVGID_7_-5"
       gradientUnits="userSpaceOnUse"
       x1="29.9844"
       y1="37.0149"
       x2="29.9844"
       y2="53.423901"><stop
         offset="0"
         style="stop-color:#FFFFFF;stop-opacity:0"
         id="stop3553" /><stop
         offset="0.4796"
         style="stop-color:#FFFFFF"
         id="stop3555" /><stop
         offset="0.7347"
         style="stop-color:#FFFFFF"
         id="stop3557" /><stop
         offset="1"
         style="stop-color:#FFFFFF;stop-opacity:0"
         id="stop3559" /></linearGradient><linearGradient
       id="SVGID_8_-1"
       gradientUnits="userSpaceOnUse"
       x1="20.291"
       y1="32.769299"
       x2="20.410601"
       y2="34.563702"><stop
         offset="0"
         style="stop-color:#323232"
         id="stop3592" /><stop
         offset="1"
         style="stop-color:#141414"
         id="stop3594" /></linearGradient><linearGradient
       id="SVGID_9_-2"
       gradientUnits="userSpaceOnUse"
       x1="33.263199"
       y1="76.211197"
       x2="33.263199"
       y2="56.6675"><stop
         offset="0"
         style="stop-color:#D7D7D7"
         id="stop3761" /><stop
         offset="0.3305"
         style="stop-color:#B6B6B6"
         id="stop3763" /><stop
         offset="1"
         style="stop-color:#636162"
         id="stop3765" /></linearGradient><linearGradient
       id="SVGID_10_-4"
       gradientUnits="userSpaceOnUse"
       x1="33.263199"
       y1="76.8479"
       x2="33.263199"
       y2="61.1161"><stop
         offset="0"
         style="stop-color:#FBFBFB;stop-opacity:0"
         id="stop3772" /><stop
         offset="0.3635"
         style="stop-color:#FBFBFB"
         id="stop3774" /><stop
         offset="0.6426"
         style="stop-color:#FBFBFB;stop-opacity:0.7804"
         id="stop3776" /><stop
         offset="1"
         style="stop-color:#FBFBFB;stop-opacity:0"
         id="stop3778" /></linearGradient><linearGradient
       id="SVGID_11_-9"
       gradientUnits="userSpaceOnUse"
       x1="18.6245"
       y1="58.5867"
       x2="18.6245"
       y2="55.554901"><stop
         offset="0"
         style="stop-color:#A9A9A9"
         id="stop3793" /><stop
         offset="1"
         style="stop-color:#A9A9A9;stop-opacity:0"
         id="stop3795" /></linearGradient><linearGradient
       id="SVGID_12_-6"
       gradientUnits="userSpaceOnUse"
       x1="47.887199"
       y1="58.5867"
       x2="47.887199"
       y2="55.554901"><stop
         offset="0"
         style="stop-color:#A9A9A9"
         id="stop3800" /><stop
         offset="1"
         style="stop-color:#A9A9A9;stop-opacity:0"
         id="stop3802" /></linearGradient><linearGradient
       id="SVGID_13_-8"
       gradientUnits="userSpaceOnUse"
       x1="33.297401"
       y1="79.885002"
       x2="33.297401"
       y2="128.325"><stop
         offset="0"
         style="stop-color:#DF0000"
         id="stop3821" /><stop
         offset="1"
         style="stop-color:#A00404"
         id="stop3823" /></linearGradient><linearGradient
       id="SVGID_14_-0"
       gradientUnits="userSpaceOnUse"
       x1="33.285599"
       y1="85.380096"
       x2="33.285599"
       y2="100.0304"><stop
         offset="0"
         style="stop-color:#DF0000"
         id="stop3834" /><stop
         offset="1"
         style="stop-color:#A00404"
         id="stop3836" /></linearGradient><linearGradient
       id="SVGID_15_-9"
       gradientUnits="userSpaceOnUse"
       x1="33.285599"
       y1="98.6213"
       x2="33.285599"
       y2="108.4945"><stop
         offset="0"
         style="stop-color:#DF0000"
         id="stop3845" /><stop
         offset="1"
         style="stop-color:#A00404"
         id="stop3847" /></linearGradient><linearGradient
       id="SVGID_16_-9"
       gradientUnits="userSpaceOnUse"
       x1="33.2915"
       y1="98.797096"
       x2="33.2915"
       y2="101.6241"><stop
         offset="0"
         style="stop-color:#DF0000"
         id="stop3854" /><stop
         offset="1"
         style="stop-color:#A00404"
         id="stop3856" /></linearGradient><linearGradient
       id="SVGID_17_-5"
       gradientUnits="userSpaceOnUse"
       x1="33.2915"
       y1="98.5784"
       x2="33.2915"
       y2="101.7542"><stop
         offset="0"
         style="stop-color:#000000;stop-opacity:0"
         id="stop3877" /><stop
         offset="1"
         style="stop-color:#000404;stop-opacity:0.4"
         id="stop3879" /></linearGradient><linearGradient
       id="SVGID_18_"
       gradientUnits="userSpaceOnUse"
       x1="33.244598"
       y1="80.4963"
       x2="33.244598"
       y2="81.634102"><stop
         offset="0"
         style="stop-color:#700000;stop-opacity:0"
         id="stop3892" /><stop
         offset="1"
         style="stop-color:#700000"
         id="stop3894" /></linearGradient></defs><sodipodi:namedview
     pagecolor="#ffffff"
     bordercolor="#666666"
     borderopacity="1"
     objecttolerance="10"
     gridtolerance="10"
     guidetolerance="10"
     inkscape:pageopacity="0"
     inkscape:pageshadow="2"
     inkscape:window-width="640"
     inkscape:window-height="480"
     id="namedview3739"
     showgrid="false"
     inkscape:zoom="0.59520807"
     inkscape:cx="-74.480085"
     inkscape:cy="19.118719"
     inkscape:window-x="75"
     inkscape:window-y="204"
     inkscape:window-maximized="0"
     inkscape:current-layer="Layer_1" /><g
     transform="matrix(3.196498,0,0,3.196498,13.691178,-49.026234)"
     id="g3446"><path
       style="opacity:0.4;fill:#060d1c"
       inkscape:connector-curvature="0"
       d="M 66.682,54.511 C 65.971,53.57 63.393,52.774 62.131,52.767 62.076,48.9 61.869,43.322 61.436,38.32 61.192,35.507 60.903,33.211 60.579,31.499 60.043,28.672 59.499,27.945 59.087,27.626 L 58.888,27.473 C 56.784,25.84 51.859,22.015 37.43,22.015 c -14.431,0 -19.355,3.825 -21.458,5.458 l -0.197,0.153 c -0.414,0.319 -0.957,1.046 -1.493,3.871 -0.325,1.712 -0.613,4.008 -0.858,6.82 -0.434,5.001 -0.64,10.581 -0.695,14.45 -0.015,0 -0.029,-0.001 -0.043,-0.001 -1.255,0 -3.856,0.798 -4.57,1.745 -0.583,0.773 -0.224,1.615 0.048,1.953 l 0.296,0.368 0.109,-0.03 c 0.285,0.205 0.742,0.396 1.451,0.396 0.439,0 0.943,-0.074 1.497,-0.221 0.587,-0.156 1.028,-0.311 1.36,-0.459 0.072,0.323 0.154,0.554 0.22,0.706 l -0.178,25.798 c -0.047,0.015 -0.093,0.033 -0.138,0.055 h -0.41 v 0.237 0.058 c -0.222,0.235 -0.359,0.552 -0.359,0.899 v 54.075 c 0,0.349 0.137,0.666 0.359,0.9 v 0.058 h 0.057 c 0.235,0.222 0.552,0.358 0.9,0.358 h 48.223 c 0.349,0 0.665,-0.137 0.9,-0.358 h 0.058 v -0.058 c 0.221,-0.234 0.358,-0.552 0.358,-0.9 V 84.272 c 0,-0.348 -0.138,-0.664 -0.358,-0.899 v -0.058 -0.237 h -0.41 c -0.05,-0.023 -0.102,-0.044 -0.154,-0.061 L 61.767,57.225 c 0.064,-0.147 0.145,-0.371 0.215,-0.681 0.325,0.142 0.748,0.286 1.302,0.434 0.554,0.146 1.058,0.221 1.497,0.221 0.709,0 1.166,-0.191 1.451,-0.396 l 0.108,0.03 0.296,-0.368 c 0.269,-0.339 0.628,-1.181 0.046,-1.954 z m -0.681,0.313 c -0.009,-0.007 -0.017,-0.016 -0.026,-0.024 0.01,0.009 0.018,0.018 0.026,0.024 z m -2.49,0.778 c 0.747,0.203 1.415,0.478 1.969,0.779 -0.005,10e-4 -0.009,0.003 -0.013,0.005 -0.72,-0.37 -1.384,-0.619 -1.956,-0.784 z M 9.328,56.386 C 9.325,56.384 9.32,56.382 9.316,56.381 c 0.553,-0.302 1.221,-0.576 1.968,-0.779 -0.571,0.165 -1.236,0.414 -1.956,0.784 z m 3.944,-1.081 c 0,-0.004 0,-0.007 0,-0.01 10e-4,0.003 0,0.006 0,0.01 z m -10e-4,-0.042 c 0.023,-0.002 0.047,-0.002 0.07,-0.004 -0.024,0.002 -0.048,0.002 -0.07,0.004 z m 10e-4,0.027 c 0,-0.002 0,-0.004 0,-0.006 0,0.002 0,0.004 0,0.006 z m -10e-4,-0.009 c 0,-0.002 0,-0.004 -0.001,-0.006 0.001,0.002 0.001,0.004 0.001,0.006 z M 13.27,55.272 c 0,-10e-4 0,-0.003 -10e-4,-0.003 10e-4,0 10e-4,0.002 10e-4,0.003 z m 47.804,1.735 c 0.001,0 0.001,-10e-4 0.001,-0.002 0,10e-4 0,0.002 -0.001,0.002 z m -0.017,0.034 c 10e-4,-0.002 0.002,-0.004 0.002,-0.006 0,0.003 -10e-4,0.004 -0.002,0.006 z m 0.365,-1.784 0,0 c 0,0.006 -10e-4,0.012 -0.002,0.018 10e-4,-0.006 10e-4,-0.012 0.002,-0.018 z M 60.714,38.306 c 0.002,0.027 0.005,0.055 0.007,0.081 -0.002,-0.026 -0.005,-0.054 -0.007,-0.081 z m 0.037,0.434 c 0.004,0.047 0.008,0.094 0.012,0.142 -0.004,-0.049 -0.008,-0.096 -0.012,-0.142 z m 0.039,0.457 c 0.004,0.062 0.01,0.123 0.015,0.186 -0.006,-0.063 -0.012,-0.124 -0.015,-0.186 z m 0.039,0.49 c 0.004,0.064 0.01,0.13 0.015,0.195 -0.006,-0.065 -0.011,-0.131 -0.015,-0.195 z m 0.037,0.5 c 0.005,0.068 0.01,0.135 0.016,0.201 -0.007,-0.066 -0.011,-0.133 -0.016,-0.201 z m 0.037,0.499 c 0.005,0.069 0.01,0.141 0.015,0.21 -0.005,-0.07 -0.01,-0.141 -0.015,-0.21 z m 0.035,0.508 c 0.005,0.071 0.01,0.142 0.015,0.214 -0.005,-0.073 -0.01,-0.143 -0.015,-0.214 z m 0.033,0.504 c 0.006,0.075 0.011,0.151 0.016,0.228 -0.005,-0.077 -0.01,-0.153 -0.016,-0.228 z m 0.033,0.506 c 0.005,0.078 0.01,0.156 0.015,0.234 -0.005,-0.077 -0.01,-0.156 -0.015,-0.234 z m 0.032,0.516 c 0.005,0.077 0.01,0.155 0.014,0.232 -0.005,-0.077 -0.009,-0.155 -0.014,-0.232 z m 0.031,0.512 c 0.004,0.08 0.008,0.159 0.014,0.238 -0.006,-0.079 -0.01,-0.158 -0.014,-0.238 z m 0.029,0.514 c 0.004,0.079 0.008,0.159 0.012,0.239 -0.004,-0.079 -0.008,-0.16 -0.012,-0.239 z m 0.028,0.519 c 0.004,0.077 0.008,0.153 0.012,0.23 -0.005,-0.077 -0.009,-0.153 -0.012,-0.23 z m 0.026,0.511 c 0.004,0.079 0.008,0.159 0.013,0.239 -0.005,-0.08 -0.009,-0.16 -0.013,-0.239 z m 0.025,0.512 c 0.003,0.077 0.007,0.154 0.011,0.231 -0.004,-0.076 -0.008,-0.154 -0.011,-0.231 z m 0.025,0.515 c 0.003,0.075 0.006,0.149 0.01,0.224 -0.004,-0.075 -0.007,-0.149 -0.01,-0.224 z m 0.021,0.501 c 0.004,0.08 0.008,0.16 0.011,0.238 -0.003,-0.078 -0.007,-0.158 -0.011,-0.238 z m 0.023,0.51 c 0.003,0.072 0.006,0.145 0.009,0.216 -0.003,-0.072 -0.006,-0.144 -0.009,-0.216 z m 0.02,0.505 c 0.003,0.07 0.006,0.142 0.008,0.212 -0.002,-0.071 -0.005,-0.142 -0.008,-0.212 z m 0.02,0.492 c 0.002,0.072 0.004,0.144 0.008,0.216 -0.004,-0.073 -0.006,-0.144 -0.008,-0.216 z m 0.017,0.495 c 0.002,0.067 0.004,0.134 0.006,0.201 -0.002,-0.067 -0.004,-0.134 -0.006,-0.201 z m 0.017,0.488 c 0.002,0.06 0.004,0.12 0.005,0.18 -10e-4,-0.06 -0.003,-0.12 -0.005,-0.18 z m 0.015,0.488 c 0.002,0.043 0.004,0.085 0.004,0.127 -0.001,-0.042 -0.003,-0.084 -0.004,-0.127 z m 0.015,0.48 c 0,0.027 10e-4,0.055 0.002,0.081 -0.001,-0.026 -0.002,-0.054 -0.002,-0.081 z m 0.013,0.47 c 0,0.006 0,0.014 0.001,0.02 -0.001,-0.007 -0.001,-0.014 -0.001,-0.02 z M 59.655,30.595 c 0.01,0.047 0.021,0.094 0.033,0.142 -0.012,-0.048 -0.023,-0.095 -0.033,-0.142 z m 0.07,0.309 c 0.01,0.047 0.02,0.096 0.031,0.145 -0.011,-0.05 -0.021,-0.099 -0.031,-0.145 z m 0.068,0.324 c 0.01,0.049 0.02,0.098 0.029,0.147 -0.009,-0.05 -0.019,-0.098 -0.029,-0.147 z m 0.067,0.334 c 0.01,0.051 0.02,0.104 0.029,0.156 -0.01,-0.053 -0.019,-0.105 -0.029,-0.156 z m 0.064,0.35 c 0.01,0.052 0.02,0.105 0.028,0.158 -0.008,-0.052 -0.018,-0.106 -0.028,-0.158 z m 0.065,0.365 c 0.009,0.052 0.018,0.104 0.026,0.158 -0.009,-0.055 -0.017,-0.107 -0.026,-0.158 z m 0.062,0.374 c 0.008,0.054 0.017,0.108 0.025,0.163 -0.008,-0.055 -0.017,-0.11 -0.025,-0.163 z m 0.061,0.385 c 0.008,0.055 0.016,0.11 0.023,0.164 -0.008,-0.053 -0.015,-0.109 -0.023,-0.164 z m 0.058,0.402 c 0.008,0.052 0.016,0.104 0.022,0.157 -0.006,-0.053 -0.014,-0.105 -0.022,-0.157 z m 0.058,0.409 c 0.007,0.052 0.015,0.105 0.021,0.159 -0.006,-0.054 -0.014,-0.107 -0.021,-0.159 z m 0.056,0.418 c 0.008,0.052 0.014,0.104 0.021,0.157 -0.008,-0.053 -0.013,-0.105 -0.021,-0.157 z m 0.054,0.428 c 0.006,0.051 0.013,0.104 0.019,0.154 -0.006,-0.051 -0.013,-0.104 -0.019,-0.154 z m 0.054,0.44 c 0.005,0.046 0.011,0.091 0.016,0.136 -0.005,-0.045 -0.011,-0.09 -0.016,-0.136 z m 0.052,0.446 c 0.004,0.039 0.008,0.079 0.014,0.118 -0.006,-0.039 -0.01,-0.079 -0.014,-0.118 z m 0.051,0.456 c 0.002,0.023 0.004,0.047 0.007,0.07 -0.003,-0.023 -0.005,-0.046 -0.007,-0.07 z m 0.047,0.46 c 10e-4,0.005 10e-4,0.011 10e-4,0.016 0,-0.005 0,-0.011 -10e-4,-0.016 z M 14.382,35.88 c 0.012,-0.109 0.023,-0.217 0.036,-0.323 -0.013,0.106 -0.024,0.214 -0.036,0.323 z m 0.054,-0.474 c 0.011,-0.1 0.022,-0.199 0.034,-0.297 -0.012,0.097 -0.023,0.197 -0.034,0.297 z m 0.053,-0.456 c 0.011,-0.094 0.022,-0.188 0.034,-0.28 -0.011,0.093 -0.023,0.187 -0.034,0.28 z m 0.054,-0.441 c 0.012,-0.091 0.023,-0.18 0.035,-0.27 -0.012,0.09 -0.023,0.179 -0.035,0.27 z M 14.6,34.078 c 0.012,-0.086 0.022,-0.173 0.035,-0.257 -0.013,0.085 -0.024,0.171 -0.035,0.257 z m 0.057,-0.421 c 0.012,-0.082 0.023,-0.163 0.035,-0.244 -0.012,0.081 -0.023,0.162 -0.035,0.244 z m 0.06,-0.412 c 0.011,-0.076 0.022,-0.153 0.034,-0.229 -0.012,0.076 -0.023,0.153 -0.034,0.229 z m 0.059,-0.394 c 0.012,-0.074 0.024,-0.148 0.036,-0.223 -0.012,0.074 -0.024,0.149 -0.036,0.223 z m 0.062,-0.383 c 0.012,-0.071 0.023,-0.142 0.036,-0.213 -0.012,0.071 -0.024,0.142 -0.036,0.213 z m 0.063,-0.372 c 0.012,-0.069 0.024,-0.137 0.037,-0.202 -0.012,0.065 -0.024,0.133 -0.037,0.202 z m 0.065,-0.357 c 0.012,-0.065 0.024,-0.13 0.037,-0.194 -0.012,0.064 -0.025,0.128 -0.037,0.194 z m 0.066,-0.345 c 0.012,-0.062 0.024,-0.124 0.037,-0.186 -0.012,0.062 -0.025,0.123 -0.037,0.186 z m 0.068,-0.33 c 0.013,-0.06 0.025,-0.119 0.038,-0.176 -0.013,0.057 -0.025,0.116 -0.038,0.176 z m 0.069,-0.317 c 0.012,-0.057 0.025,-0.111 0.039,-0.166 -0.013,0.055 -0.026,0.11 -0.039,0.166 z m -1.385,26.26 c 0,-10e-4 0,-10e-4 0,-0.002 0,10e-4 0,10e-4 0,0.002 z m 0.029,0.054 c 0,0 -0.001,-0.002 -0.003,-0.005 10e-4,0.002 0.003,0.005 0.003,0.005 z m -0.012,-0.022 c 0,-0.001 0,-0.002 -10e-4,-0.003 0,10e-4 0,0.002 10e-4,0.003 z m 47.64,-1.78 c 0.028,0.002 0.057,0.002 0.085,0.004 -0.028,-0.002 -0.057,-0.004 -0.085,-0.004 z m 0.082,0.036 c 0,0.004 0,0.008 10e-4,0.013 -10e-4,-0.005 -10e-4,-0.009 -10e-4,-0.013 z m 0.003,-0.026 c 0,0 0,0.002 0,0.003 0,-10e-4 0,-0.003 0,-0.003 z m -0.001,0.006 c -10e-4,0.002 -10e-4,0.004 -10e-4,0.006 0,-0.002 0,-0.004 10e-4,-0.006 z m -10e-4,0.009 c -10e-4,0.002 -10e-4,0.005 -10e-4,0.008 0,-0.003 0,-0.006 10e-4,-0.008 z m 0.615,-1.799 c -0.014,0 -0.027,-10e-4 -0.04,-10e-4 0.005,0 0.008,0 0.013,0 0.008,0 0.017,10e-4 0.027,10e-4 z m 3.7,1.201 c -0.009,-0.007 -0.019,-0.014 -0.028,-0.021 0.01,0.007 0.02,0.014 0.028,0.021 z M 65.66,54.562 c -0.009,-0.007 -0.019,-0.014 -0.028,-0.02 0.009,0.006 0.019,0.013 0.028,0.02 z m -0.218,-0.131 c -0.016,-0.009 -0.031,-0.018 -0.048,-0.025 0.017,0.007 0.032,0.016 0.048,0.025 z m -0.26,-0.135 c -0.008,-0.004 -0.015,-0.008 -0.021,-0.01 0.006,0.002 0.013,0.006 0.021,0.01 z m -0.236,-0.109 c -0.02,-0.008 -0.037,-0.016 -0.057,-0.023 0.02,0.007 0.037,0.015 0.057,0.023 z m -0.294,-0.121 c -0.019,-0.007 -0.038,-0.014 -0.056,-0.021 0.018,0.007 0.037,0.014 0.056,0.021 z m -0.281,-0.105 c -0.014,-0.005 -0.027,-0.011 -0.041,-0.015 0.013,0.004 0.027,0.01 0.041,0.015 z m -0.296,-0.099 c -0.022,-0.008 -0.045,-0.015 -0.067,-0.021 0.022,0.006 0.044,0.013 0.067,0.021 z M 63.75,53.764 c -0.014,-0.005 -0.027,-0.008 -0.042,-0.012 0.015,0.004 0.029,0.007 0.042,0.012 z m -0.272,-0.073 c -0.021,-0.005 -0.04,-0.01 -0.061,-0.016 0.021,0.006 0.041,0.011 0.061,0.016 z m -0.31,-0.073 c -0.02,-0.004 -0.04,-0.009 -0.06,-0.013 0.02,0.005 0.041,0.01 0.06,0.013 z m -0.283,-0.056 c -0.01,-10e-4 -0.021,-0.003 -0.031,-0.005 0.01,0.002 0.021,0.004 0.031,0.005 z m -0.263,-0.04 c -0.02,-0.003 -0.037,-0.005 -0.057,-0.007 0.019,0.002 0.037,0.004 0.057,0.007 z m -0.272,-0.03 c -0.012,0 -0.023,-10e-4 -0.035,-10e-4 0.012,0 0.023,10e-4 0.035,10e-4 z m -0.417,-10e-4 c -0.013,10e-4 -0.024,0.002 -0.037,0.003 0.013,-10e-4 0.024,-0.002 0.037,-0.003 z m -0.165,0.024 c -0.006,0.002 -0.014,0.003 -0.02,0.004 0.006,-10e-4 0.014,-0.002 0.02,-0.004 z m -0.134,0.044 c -0.009,0.003 -0.016,0.007 -0.022,0.011 0.007,-0.004 0.013,-0.008 0.022,-0.011 z M 59.617,30.437 c -0.011,-0.045 -0.022,-0.09 -0.033,-0.133 0.01,0.043 0.022,0.088 0.033,0.133 z m -0.072,-0.283 c -0.012,-0.043 -0.023,-0.085 -0.035,-0.129 0.012,0.044 0.024,0.086 0.035,0.129 z m -0.074,-0.267 c -0.012,-0.042 -0.023,-0.082 -0.036,-0.123 0.013,0.041 0.024,0.081 0.036,0.123 z m -0.075,-0.251 c -0.013,-0.04 -0.024,-0.078 -0.037,-0.117 0.013,0.039 0.024,0.077 0.037,0.117 z m -0.077,-0.235 c -0.012,-0.037 -0.025,-0.073 -0.038,-0.109 0.012,0.035 0.026,0.072 0.038,0.109 z m -0.078,-0.217 c -0.013,-0.035 -0.026,-0.068 -0.039,-0.103 0.012,0.034 0.026,0.068 0.039,0.103 z m -0.079,-0.199 c -0.014,-0.033 -0.028,-0.063 -0.042,-0.095 0.013,0.031 0.028,0.061 0.042,0.095 z m -0.249,-0.486 c -0.018,-0.026 -0.034,-0.049 -0.051,-0.072 0.016,0.023 0.033,0.046 0.051,0.072 z m 0.168,0.304 c -0.016,-0.03 -0.029,-0.058 -0.045,-0.085 0.015,0.027 0.029,0.055 0.045,0.085 z m -0.084,-0.161 c -0.016,-0.027 -0.031,-0.053 -0.047,-0.078 0.015,0.025 0.031,0.051 0.047,0.078 z m -0.171,-0.265 c -0.02,-0.024 -0.038,-0.046 -0.058,-0.068 0.02,0.022 0.038,0.044 0.058,0.068 z m -0.088,-0.102 c -0.03,-0.03 -0.061,-0.058 -0.091,-0.08 0.03,0.022 0.061,0.049 0.091,0.08 z m -42.527,-0.08 c -0.03,0.022 -0.06,0.05 -0.09,0.08 0.03,-0.031 0.06,-0.058 0.09,-0.08 z M 16,28.424 c -0.018,0.024 -0.036,0.049 -0.053,0.075 0.017,-0.026 0.035,-0.051 0.053,-0.075 z m 0.094,-0.116 c -0.021,0.021 -0.041,0.044 -0.061,0.069 0.02,-0.025 0.04,-0.048 0.061,-0.069 z m -0.854,2.139 c 0.013,-0.053 0.026,-0.105 0.039,-0.157 -0.013,0.051 -0.026,0.104 -0.039,0.157 z m 0.072,-0.286 c 0.014,-0.051 0.026,-0.101 0.04,-0.149 -0.014,0.049 -0.026,0.099 -0.04,0.149 z m 0.074,-0.267 c 0.014,-0.049 0.027,-0.095 0.042,-0.142 -0.015,0.047 -0.029,0.093 -0.042,0.142 z m 0.075,-0.254 c 0.014,-0.045 0.028,-0.087 0.042,-0.131 -0.014,0.044 -0.028,0.086 -0.042,0.131 z m 0.077,-0.235 c 0.014,-0.042 0.029,-0.081 0.043,-0.122 -0.014,0.04 -0.029,0.08 -0.043,0.122 z m 0.079,-0.219 c 0.015,-0.038 0.029,-0.075 0.044,-0.11 -0.015,0.035 -0.03,0.072 -0.044,0.11 z m 0.08,-0.2 c 0.015,-0.035 0.03,-0.068 0.046,-0.103 -0.016,0.034 -0.031,0.067 -0.046,0.103 z m 0.081,-0.181 c 0.016,-0.033 0.032,-0.063 0.047,-0.093 -0.015,0.029 -0.031,0.06 -0.047,0.093 z m 0.084,-0.163 c 0.016,-0.029 0.033,-0.057 0.049,-0.083 -0.016,0.026 -0.033,0.054 -0.049,0.083 z m -1.543,7.831 c -0.049,0.472 -0.096,0.954 -0.14,1.444 0.044,-0.49 0.091,-0.972 0.14,-1.444 z m 0.049,-0.462 c -0.014,0.127 -0.028,0.255 -0.041,0.384 0.013,-0.129 0.027,-0.257 0.041,-0.384 z m -0.859,13.825 c 10e-4,-0.026 10e-4,-0.052 0.002,-0.078 -10e-4,0.026 -10e-4,0.052 -0.002,0.078 z m 0.013,-0.463 c 10e-4,-0.028 0.002,-0.056 0.003,-0.084 -0.001,0.029 -0.002,0.056 -0.003,0.084 z m 0.015,-0.45 c 10e-4,-0.04 0.002,-0.078 0.004,-0.118 -0.001,0.04 -0.003,0.078 -0.004,0.118 z m 0.015,-0.459 c 0.002,-0.051 0.004,-0.101 0.005,-0.151 -0.001,0.051 -0.003,0.1 -0.005,0.151 z m 0.016,-0.456 c 0.002,-0.064 0.005,-0.13 0.008,-0.195 -0.003,0.065 -0.006,0.131 -0.008,0.195 z m 0.019,-0.49 c 0.002,-0.066 0.005,-0.134 0.007,-0.201 -0.002,0.067 -0.005,0.134 -0.007,0.201 z m 0.019,-0.489 c 0.003,-0.071 0.006,-0.142 0.009,-0.213 -0.003,0.071 -0.006,0.141 -0.009,0.213 z m 0.021,-0.511 c 0.003,-0.068 0.006,-0.137 0.009,-0.205 -0.003,0.068 -0.006,0.136 -0.009,0.205 z m 0.022,-0.493 c 0.003,-0.074 0.007,-0.15 0.01,-0.227 -0.003,0.076 -0.007,0.152 -0.01,0.227 z m 0.023,-0.508 c 0.004,-0.076 0.007,-0.151 0.011,-0.227 -0.003,0.075 -0.007,0.151 -0.011,0.227 z m 0.025,-0.51 c 0.004,-0.078 0.008,-0.156 0.012,-0.233 -0.004,0.077 -0.008,0.155 -0.012,0.233 z m 0.026,-0.506 c 0.004,-0.084 0.009,-0.168 0.013,-0.252 -0.004,0.084 -0.009,0.168 -0.013,0.252 z m 0.027,-0.507 c 0.005,-0.088 0.01,-0.175 0.015,-0.263 -0.006,0.089 -0.011,0.175 -0.015,0.263 z m 0.028,-0.515 c 0.005,-0.089 0.01,-0.177 0.016,-0.266 -0.006,0.089 -0.011,0.177 -0.016,0.266 z m 0.03,-0.513 c 0.005,-0.092 0.011,-0.185 0.017,-0.275 -0.006,0.09 -0.012,0.183 -0.017,0.275 z m 0.031,-0.514 c 0.005,-0.094 0.011,-0.185 0.017,-0.277 -0.006,0.093 -0.012,0.184 -0.017,0.277 z m 0.033,-0.514 c 0.006,-0.095 0.012,-0.191 0.018,-0.285 -0.006,0.093 -0.013,0.19 -0.018,0.285 z m 0.033,-0.511 c 0.007,-0.098 0.013,-0.195 0.02,-0.293 -0.007,0.098 -0.013,0.195 -0.02,0.293 z m 0.035,-0.512 c 0.007,-0.099 0.014,-0.197 0.021,-0.298 -0.007,0.101 -0.014,0.2 -0.021,0.298 z m 0.037,-0.508 c 0.007,-0.102 0.014,-0.201 0.022,-0.303 -0.008,0.102 -0.015,0.202 -0.022,0.303 z M 14.015,39.9 c 0.007,-0.104 0.016,-0.207 0.024,-0.309 -0.008,0.102 -0.017,0.205 -0.024,0.309 z m 0.039,-0.501 c 0.008,-0.111 0.017,-0.222 0.027,-0.331 -0.01,0.109 -0.019,0.219 -0.027,0.331 z m 0.04,-0.499 c 0.009,-0.116 0.019,-0.23 0.029,-0.348 -0.01,0.117 -0.019,0.231 -0.029,0.348 z m 0.042,-0.494 c 0.012,-0.136 0.023,-0.271 0.036,-0.404 -0.013,0.133 -0.025,0.268 -0.036,0.404 z m -0.7,15.21 0,0 c -0.054,0.005 -0.11,0.01 -0.168,0.012 0.058,-0.002 0.113,-0.007 0.168,-0.012 z M 13.184,53.57 c -0.008,-0.004 -0.015,-0.008 -0.023,-0.011 0.008,0.003 0.015,0.007 0.023,0.011 z m -0.137,-0.051 c -0.006,-10e-4 -0.013,-0.002 -0.02,-0.004 0.007,0.002 0.014,0.003 0.02,0.004 z m -0.148,-0.025 c -0.012,-10e-4 -0.024,-0.002 -0.037,-0.003 0.013,10e-4 0.025,0.002 0.037,0.003 z m -0.203,-0.01 c -0.013,0 -0.026,10e-4 -0.039,10e-4 0.008,0 0.019,-10e-4 0.027,-10e-4 0.004,0 0.008,0 0.012,0 z M 8.957,54.686 C 8.966,54.679 8.975,54.672 8.984,54.665 8.975,54.672 8.965,54.679 8.957,54.686 z M 9.137,54.56 C 9.145,54.554 9.154,54.548 9.163,54.542 9.154,54.548 9.146,54.554 9.137,54.56 z M 9.354,54.431 C 9.369,54.422 9.385,54.413 9.4,54.406 9.385,54.413 9.37,54.422 9.354,54.431 z M 9.615,54.295 C 9.62,54.292 9.626,54.29 9.632,54.287 9.626,54.29 9.62,54.292 9.615,54.295 z M 9.852,54.187 C 9.87,54.179 9.887,54.171 9.904,54.164 9.887,54.171 9.87,54.179 9.852,54.187 z m 0.293,-0.122 c 0.017,-0.007 0.035,-0.013 0.053,-0.02 -0.018,0.007 -0.036,0.013 -0.053,0.02 z m 0.282,-0.105 c 0.013,-0.005 0.025,-0.01 0.038,-0.014 -0.012,0.004 -0.025,0.009 -0.038,0.014 z m 0.295,-0.099 c 0.021,-0.007 0.043,-0.014 0.064,-0.02 -0.021,0.006 -0.042,0.013 -0.064,0.02 z m 0.323,-0.097 c 0.013,-0.005 0.027,-0.008 0.04,-0.012 -0.013,0.004 -0.026,0.007 -0.04,0.012 z m 0.273,-0.073 c 0.021,-0.005 0.04,-0.01 0.06,-0.016 -0.02,0.006 -0.04,0.011 -0.06,0.016 z m 0.308,-0.073 c 0.021,-0.004 0.04,-0.009 0.06,-0.013 -0.019,0.005 -0.04,0.01 -0.06,0.013 z m 0.284,-0.056 c 0.011,-10e-4 0.022,-0.003 0.032,-0.005 -0.01,0.002 -0.022,0.004 -0.032,0.005 z m 0.263,-0.04 c 0.02,-0.003 0.039,-0.005 0.057,-0.007 -0.018,0.002 -0.037,0.004 -0.057,0.007 z m 0.272,-0.03 c 0.012,0 0.023,-10e-4 0.036,-10e-4 -0.013,0 -0.024,10e-4 -0.036,10e-4 z M 8.82,54.8 C 8.811,54.809 8.803,54.818 8.795,54.824 8.803,54.818 8.811,54.809 8.82,54.8 z m -0.013,1.191 0,0 0,0 -0.085,0.022 0.085,-0.022 z m 2.524,0.293 c 1.203,-0.319 1.666,-0.603 1.839,-0.789 -0.173,0.187 -0.635,0.47 -1.839,0.789 z m 1.941,-0.976 c 0,0.004 -10e-4,0.009 -10e-4,0.013 0,-0.004 10e-4,-0.009 10e-4,-0.013 z m -0.002,0.017 c -10e-4,0.004 -0.002,0.01 -0.003,0.014 0.001,-0.004 0.002,-0.01 0.003,-0.014 z m -0.004,0.018 c -10e-4,0.005 -0.003,0.011 -0.005,0.016 0.001,-0.005 0.003,-0.011 0.005,-0.016 z m -0.007,0.02 c -0.002,0.008 -0.005,0.014 -0.009,0.021 0.003,-0.008 0.006,-0.014 0.009,-0.021 z m -0.01,0.023 c -0.003,0.007 -0.007,0.015 -0.012,0.021 0.005,-0.006 0.009,-0.014 0.012,-0.021 z m -0.013,0.023 c -0.004,0.008 -0.01,0.017 -0.016,0.025 0.006,-0.008 0.011,-0.017 0.016,-0.025 z m -0.017,0.028 c -0.006,0.009 -0.013,0.019 -0.021,0.027 0.008,-0.009 0.014,-0.018 0.021,-0.027 z m -0.022,0.027 c -0.007,0.01 -0.015,0.02 -0.024,0.028 0.009,-0.008 0.017,-0.018 0.024,-0.028 z m 48.34,-0.101 c 0.062,0.165 0.39,0.514 1.928,0.922 -1.539,-0.409 -1.866,-0.757 -1.928,-0.922 z m -0.013,-0.055 c 0,0.004 0,0.009 10e-4,0.014 -10e-4,-0.005 -10e-4,-0.01 -10e-4,-0.014 z m 0.002,0.017 c 0,0.005 0.002,0.01 0.004,0.017 -0.002,-0.007 -0.004,-0.012 -0.004,-0.017 z m 0.004,0.018 c 0.002,0.006 0.004,0.013 0.006,0.02 -0.002,-0.007 -0.004,-0.014 -0.006,-0.02 z m 4.459,0.648 0,0 0,0 0.085,0.022 -0.085,-0.022 z"
       id="path3448" /><g
       id="g3450"><g
         id="g3452"><g
           id="g3454"><g
             id="g3456"><linearGradient
               id="linearGradient4356"
               gradientUnits="userSpaceOnUse"
               x1="33.277802"
               y1="16.560801"
               x2="33.277802"
               y2="79.988503"><stop
                 offset="0"
                 style="stop-color:#CBCBCB"
                 id="stop4358" /><stop
                 offset="0.3163"
                 style="stop-color:#8D8D8D"
                 id="stop4360" /><stop
                 offset="0.9286"
                 style="stop-color:#666666"
                 id="stop4362" /><stop
                 offset="0.9745"
                 style="stop-color:#333333"
                 id="stop4364" /></linearGradient><path
               style="fill:url(#SVGID_1_-4)"
               inkscape:connector-curvature="0"
               d="m 57.075,77.689 -0.18,-26.018 c 0,0 0.441,-0.699 0.383,-2.613 -0.024,-7.913 -0.814,-24.738 -2.781,-26.254 -1.969,-1.516 -6.56,-5.463 -21.219,-5.463 -14.659,0 -19.251,3.947 -21.219,5.463 -1.967,1.516 -2.757,18.341 -2.781,26.254 -0.06,1.914 0.383,2.613 0.383,2.613 l -0.18,26.018 h 47.594 z"
               id="path3467" /><path
               style="fill:#3f3f3f;fill-rule:evenodd"
               inkscape:connector-curvature="0"
               clip-rule="evenodd"
               d="m 12.951,77.689 c 0,0 -3.21,-1.562 -3.53,-5.906 v 5.906 h 3.53 z"
               id="path3469" /><path
               style="fill:#3f3f3f;fill-rule:evenodd"
               inkscape:connector-curvature="0"
               clip-rule="evenodd"
               d="m 53.573,77.689 c 0,0 3.209,-1.562 3.529,-5.906 v 5.906 h -3.529 z"
               id="path3471" /><path
               style="fill:#333333"
               inkscape:connector-curvature="0"
               d="m 10.481,44.14 -0.239,-0.01 c 0.005,-0.134 0.516,-13.473 0.798,-15.879 l 0.237,0.029 c -0.28,2.396 -0.79,15.725 -0.796,15.86 z"
               id="path3473" /><path
               style="fill:#333333"
               inkscape:connector-curvature="0"
               d="M 56.164,44.987 C 56.157,44.852 55.547,31.557 55.267,29.16 l 0.236,-0.028 c 0.282,2.405 0.895,15.711 0.9,15.845 l -0.239,0.01 z"
               id="path3475" /><g
               id="g3477"><path
                 style="fill:#ffffff"
                 inkscape:connector-curvature="0"
                 d="m 11.097,29.841 c -0.06,-1.556 0.418,-4.846 1.375,-5.922 0.958,-1.076 8.445,-4.556 7.511,-3.785 -1.759,1.449 -7.271,6.119 -7.87,7.016 -0.598,0.896 -0.538,2.631 -1.016,2.691 z"
                 id="path3479" /><path
                 style="fill:#333333"
                 inkscape:connector-curvature="0"
                 d="m 10.981,29.976 -0.004,-0.131 c -0.056,-1.438 0.39,-4.862 1.405,-6.004 0.864,-0.973 7.072,-3.937 7.646,-3.937 0.105,0 0.138,0.069 0.146,0.091 0.037,0.105 -0.063,0.187 -0.116,0.23 -1.812,1.492 -7.259,6.109 -7.846,6.99 -0.276,0.414 -0.408,1.022 -0.523,1.56 -0.138,0.638 -0.246,1.143 -0.578,1.184 l -0.13,0.017 z m 8.656,-9.711 c -1.456,0.555 -6.302,2.864 -7.076,3.734 -0.862,0.971 -1.361,3.895 -1.35,5.595 0.097,-0.187 0.174,-0.542 0.245,-0.869 0.12,-0.557 0.257,-1.19 0.558,-1.642 0.574,-0.861 5.586,-5.13 7.623,-6.818 z"
                 id="path3481" /></g><g
               id="g3483"><path
                 style="fill:#ffffff"
                 inkscape:connector-curvature="0"
                 d="m 55.365,29.841 c 0.06,-1.556 -0.419,-4.846 -1.376,-5.922 -0.957,-1.076 -8.444,-4.556 -7.51,-3.785 1.76,1.449 7.271,6.119 7.869,7.016 0.598,0.897 0.537,2.631 1.017,2.691 z"
                 id="path3485" /><path
                 style="fill:#333333"
                 inkscape:connector-curvature="0"
                 d="M 55.479,29.976 55.35,29.959 c -0.332,-0.041 -0.441,-0.546 -0.578,-1.184 -0.117,-0.537 -0.248,-1.146 -0.523,-1.56 -0.588,-0.882 -6.034,-5.498 -7.846,-6.99 -0.053,-0.044 -0.153,-0.125 -0.116,-0.23 0.008,-0.021 0.042,-0.091 0.147,-0.091 0.572,0 6.781,2.964 7.645,3.937 1.016,1.142 1.461,4.566 1.406,6.004 l -0.006,0.131 z m -8.654,-9.711 c 2.036,1.688 7.047,5.956 7.623,6.818 0.301,0.451 0.438,1.085 0.558,1.642 0.069,0.327 0.147,0.683 0.245,0.869 0.01,-1.7 -0.488,-4.624 -1.352,-5.595 -0.774,-0.87 -5.619,-3.179 -7.074,-3.734 z"
                 id="path3487" /></g><g
               id="g3489"><path
                 style="fill:#9f9f9f"
                 inkscape:connector-curvature="0"
                 d="m 33.287,36.011 c 7.639,0 17.219,0.598 21.227,5.188 l 0.026,-0.17 c 0,0 -0.401,-12.267 -0.881,-14.599 -0.514,-0.633 -4.447,-4.195 -6.73,-5.969 -0.134,-0.11 -0.271,-0.217 -0.416,-0.318 -0.082,-0.061 -0.161,-0.119 -0.236,-0.174 H 46.25 c -3.252,-2.069 -8.766,-2.15 -12.964,-2.15 -4.199,0 -9.713,0.081 -12.964,2.15 l 0,0 c -10e-4,0.002 -0.002,0.002 -0.003,0.004 -0.313,0.199 -0.607,0.416 -0.875,0.654 -0.021,0.019 -0.042,0.04 -0.063,0.059 -2.309,1.836 -5.949,5.137 -6.441,5.744 -0.48,2.332 -0.881,14.769 -0.881,14.769 h 0 c 4.009,-4.59 13.588,-5.188 21.228,-5.188 z"
                 id="path3491" /><path
                 style="fill:#333333"
                 inkscape:connector-curvature="0"
                 d="m 54.592,41.471 -0.17,-0.192 C 50.44,36.717 41.035,36.131 33.286,36.131 c -7.749,0 -17.153,0.586 -21.137,5.148 l -0.093,0.105 -0.09,-0.109 c -0.066,-0.081 0.23,-6.526 0.233,-6.591 0.213,-4.52 0.423,-7.304 0.623,-8.276 l 0.006,-0.029 0.018,-0.023 c 0.486,-0.599 4.147,-3.924 6.46,-5.761 l 0.017,-0.017 c 0.014,-0.014 0.027,-0.026 0.042,-0.039 0.259,-0.23 0.554,-0.452 0.878,-0.659 l 0.025,-0.016 C 23.665,17.7 29.688,17.7 33.286,17.7 c 3.587,0 9.585,0 12.999,2.151 h 0.029 l 0.031,0.022 c 0.076,0.054 0.155,0.113 0.238,0.175 0.13,0.091 0.264,0.193 0.42,0.321 2.252,1.751 6.225,5.342 6.747,5.985 l 0.018,0.023 0.007,0.029 c 0.477,2.313 0.867,14.116 0.883,14.619 l -0.066,0.446 z M 33.287,35.892 c 7.683,0 16.986,0.577 21.132,5.023 C 54.378,39.762 53.995,28.735 53.548,26.483 52.962,25.79 49.075,22.282 46.857,20.555 46.703,20.43 46.574,20.33 46.445,20.241 46.373,20.188 46.304,20.137 46.239,20.09 h -0.022 l -0.029,-0.019 c -3.35,-2.133 -9.328,-2.133 -12.899,-2.133 -3.572,0 -9.551,0 -12.9,2.133 -0.321,0.205 -0.61,0.421 -0.863,0.646 l -0.06,0.057 c -2.284,1.814 -5.864,5.061 -6.412,5.709 -0.426,2.149 -0.795,12.425 -0.862,14.394 4.161,-4.412 13.434,-4.985 21.095,-4.985 z"
                 id="path3493" /></g><path
               style="fill:#7f7f7f"
               inkscape:connector-curvature="0"
               d="m 33.299,35.842 c 6.986,0 15.562,0.821 20.208,4.229 0.487,-0.831 -3.004,-16.447 -6.089,-19.139 -3.11,-2.712 -9.422,-3.113 -14.119,-3.113 -4.697,0 -11.009,0.402 -14.119,3.114 -3.084,2.691 -6.577,18.308 -6.088,19.139 4.645,-3.409 13.221,-4.23 20.207,-4.23 z"
               id="path3495" /><path
               style="fill:#a7a7a7"
               inkscape:connector-curvature="0"
               d="m 33.299,35.842 c 6.85,0 15.257,0.482 19.812,3.891 C 53.588,38.902 50.166,23.32 47.14,20.629 44.091,17.917 37.904,17.82 33.298,17.82 c -4.606,0 -10.793,0.097 -13.842,2.809 -3.024,2.691 -6.448,18.273 -5.969,19.104 4.555,-3.409 12.963,-3.891 19.812,-3.891 z"
               id="path3497" /><g
               style="opacity:0.9"
               id="g3499"><linearGradient
                 id="linearGradient4383"
                 gradientUnits="userSpaceOnUse"
                 x1="198.9575"
                 y1="34.591999"
                 x2="198.9575"
                 y2="21.8144"
                 gradientTransform="matrix(-1,0,0,1,232.251,0)"><stop
                   offset="0"
                   style="stop-color:#FBFBFB;stop-opacity:0"
                   id="stop4385" /><stop
                   offset="0.3635"
                   style="stop-color:#FBFBFB"
                   id="stop4387" /><stop
                   offset="0.6426"
                   style="stop-color:#FBFBFB;stop-opacity:0.7804"
                   id="stop4389" /><stop
                   offset="1"
                   style="stop-color:#FBFBFB;stop-opacity:0"
                   id="stop4391" /></linearGradient><path
                 style="fill:url(#SVGID_2_-6)"
                 inkscape:connector-curvature="0"
                 d="m 33.292,35.021 c 2.932,0 7.303,0.171 7.303,0.171 0,0 -0.941,-4.309 -0.05,-4.536 2.237,-0.57 10.281,2.238 10.281,2.238 0,0 -2.249,-10.127 -3.271,-10.651 -1.022,-0.524 -9.926,-1.436 -14.264,-1.436 -4.336,0 -13.24,0.911 -14.262,1.436 -1.021,0.524 -3.27,10.651 -3.27,10.651 0,0 8.113,-2.749 10.35,-2.171 0.877,0.228 0.018,4.469 0.018,4.469 0,0 4.235,-0.171 7.165,-0.171 z"
                 id="path3510" /></g><g
               id="g3512"><g
                 id="g3514"><path
                   inkscape:connector-curvature="0"
                   d="m 33.286,35.842 c 7.895,0 17.863,0.638 21.611,5.662 -0.16,5.741 -1.436,14.831 -1.596,15.629 -0.129,0.308 -0.638,0 -0.638,0 0,0 -4.466,-2.871 -19.378,-2.871 -14.913,0 -19.378,2.871 -19.378,2.871 0,0 -0.509,0.308 -0.638,0 -0.159,-0.798 -1.436,-9.888 -1.595,-15.629 3.749,-5.024 13.717,-5.662 21.612,-5.662 z"
                   id="path3516" /><path
                   inkscape:connector-curvature="0"
                   d="m 33.286,36.328 c 7.736,0 17.506,0.354 21.179,5.276 -0.157,5.627 -1.407,14.196 -1.563,14.979 -0.127,0.3 -0.625,0 -0.625,0 0,0 -4.376,-2.814 -18.99,-2.814 -14.614,0 -18.991,2.814 -18.991,2.814 0,0 -0.499,0.3 -0.625,0 -0.156,-0.782 -1.407,-9.352 -1.563,-14.979 3.672,-4.922 13.44,-5.276 21.178,-5.276 z"
                   id="path3518" /><linearGradient
                   id="linearGradient4398"
                   gradientUnits="userSpaceOnUse"
                   x1="13.166"
                   y1="46.262901"
                   x2="53.4048"
                   y2="46.262901"><stop
                     offset="0"
                     style="stop-color:#636668;stop-opacity:0"
                     id="stop4400" /><stop
                     offset="0.1426"
                     style="stop-color:#636668"
                     id="stop4402" /><stop
                     offset="0.834"
                     style="stop-color:#636668"
                     id="stop4404" /><stop
                     offset="1"
                     style="stop-color:#636668;stop-opacity:0"
                     id="stop4406" /></linearGradient><path
                   style="opacity:0.4;fill:url(#SVGID_3_-2-5)"
                   inkscape:connector-curvature="0"
                   d="m 33.286,36.837 c 7.35,0 16.63,0.327 20.119,4.879 -0.148,5.203 -1.336,13.127 -1.484,13.85 -0.12,0.277 -0.594,0 -0.594,0 0,0 -4.158,-2.602 -18.041,-2.602 -13.883,0 -18.041,2.602 -18.041,2.602 0,0 -0.474,0.277 -0.594,0 -0.147,-0.723 -1.336,-8.646 -1.484,-13.85 3.488,-4.552 12.769,-4.879 20.119,-4.879 z"
                   id="path3529" /><g
                   id="g3531"><defs
                     id="defs3533"><path
                       inkscape:connector-curvature="0"
                       id="SVGID_4_-0"
                       d="m 33.286,36.328 c 7.736,0 17.506,0.354 21.179,5.276 -0.157,5.627 -1.407,14.196 -1.563,14.979 -0.127,0.3 -0.625,0 -0.625,0 0,0 -4.376,-2.814 -18.99,-2.814 -14.614,0 -18.991,2.814 -18.991,2.814 0,0 -0.499,0.3 -0.625,0 -0.156,-0.782 -1.407,-9.352 -1.563,-14.979 3.672,-4.922 13.44,-5.276 21.178,-5.276 z" /></defs><clipPath
                     id="clipPath4412"><use
                       height="1052.3622"
                       width="744.09448"
                       y="0"
                       x="0"
                       style="overflow:visible"
                       xlink:href="#SVGID_4_-0"
                       overflow="visible"
                       id="use4414" /></clipPath><g
                     style="opacity:0.7"
                     clip-path="url(#SVGID_5_-1-5)"
                     id="g3539"><linearGradient
                       id="linearGradient4417"
                       gradientUnits="userSpaceOnUse"
                       x1="27.002899"
                       y1="37.0149"
                       x2="27.002899"
                       y2="53.423901"><stop
                         offset="0"
                         style="stop-color:#FFFFFF;stop-opacity:0"
                         id="stop4419" /><stop
                         offset="0.4796"
                         style="stop-color:#FFFFFF"
                         id="stop4421" /><stop
                         offset="0.7347"
                         style="stop-color:#FFFFFF"
                         id="stop4423" /><stop
                         offset="1"
                         style="stop-color:#FFFFFF;stop-opacity:0"
                         id="stop4425" /></linearGradient><rect
                       style="fill:url(#SVGID_6_-7)"
                       x="25.417999"
                       y="34.598"
                       width="3.1700001"
                       height="21.481001"
                       id="rect3550" /><linearGradient
                       id="linearGradient4428"
                       gradientUnits="userSpaceOnUse"
                       x1="29.9844"
                       y1="37.0149"
                       x2="29.9844"
                       y2="53.423901"><stop
                         offset="0"
                         style="stop-color:#FFFFFF;stop-opacity:0"
                         id="stop4430" /><stop
                         offset="0.4796"
                         style="stop-color:#FFFFFF"
                         id="stop4432" /><stop
                         offset="0.7347"
                         style="stop-color:#FFFFFF"
                         id="stop4434" /><stop
                         offset="1"
                         style="stop-color:#FFFFFF;stop-opacity:0"
                         id="stop4436" /></linearGradient><rect
                       style="fill:url(#SVGID_7_-5)"
                       x="29.472"
                       y="34.598"
                       width="1.025"
                       height="21.481001"
                       id="rect3561" /></g></g></g><g
                 id="g3563"><path
                   inkscape:connector-curvature="0"
                   d="m 23.466,38.396 c 0,0 0.233,-0.066 0.653,-0.151 0.21,-0.044 0.465,-0.097 0.758,-0.146 0.292,-0.051 0.623,-0.112 0.985,-0.167 0.363,-0.046 0.755,-0.096 1.171,-0.148 0.416,-0.057 0.855,-0.097 1.311,-0.129 0.456,-0.035 0.926,-0.07 1.405,-0.106 0.479,-0.017 0.966,-0.034 1.453,-0.051 0.487,-0.007 0.974,-0.03 1.453,-0.026 0.48,0.005 0.951,0.021 1.408,0.03 0.456,0.013 0.896,0.026 1.315,0.038 0.417,0.018 0.812,0.058 1.176,0.086 0.728,0.058 1.333,0.122 1.757,0.16 0.423,0.042 0.664,0.071 0.664,0.071 l -0.016,0.239 c 0,0 -0.244,0.006 -0.668,0.006 -0.424,-0.002 -1.03,0.004 -1.756,-0.008 -0.363,-0.002 -0.756,-0.016 -1.172,-0.016 -0.415,0.004 -0.854,0.01 -1.307,0.015 -0.453,10e-4 -0.921,0.009 -1.396,0.005 -0.476,10e-4 -0.958,0.027 -1.441,0.039 -0.483,0.013 -0.966,0.024 -1.441,0.036 -0.475,0.024 -0.941,0.048 -1.394,0.071 -0.452,0.022 -0.89,0.037 -1.303,0.074 -0.414,0.027 -0.805,0.055 -1.167,0.079 -0.361,0.031 -0.691,0.061 -0.984,0.086 -0.295,0.021 -0.549,0.05 -0.757,0.074 -0.21,0.026 -0.375,0.035 -0.488,0.053 -0.113,0.014 -0.174,0.021 -0.174,0.021 l -0.045,-0.235 z"
                   id="path3565" /><path
                   inkscape:connector-curvature="0"
                   d="m 18.885,38.146 c 0.032,0.516 0.398,0.359 4.604,0.029 1.724,-0.135 4.091,-0.157 7.345,-0.398 -11.194,-0.128 -11.968,0.072 -11.949,0.369 z"
                   id="path3567" /><path
                   inkscape:connector-curvature="0"
                   d="m 31.91,38.05 v -0.57 c 0,0 -2.032,0.057 -2.451,0.089 v 0.619 L 31.91,38.05 z"
                   id="path3569" /></g><g
                 id="g3571"><path
                   inkscape:connector-curvature="0"
                   d="m 39.036,37.713 c 0,0 0.242,-0.005 0.672,0.018 0.213,0.009 0.474,0.022 0.77,0.048 0.296,0.024 0.631,0.048 0.994,0.087 0.363,0.047 0.756,0.098 1.172,0.15 0.416,0.051 0.852,0.122 1.301,0.205 0.45,0.082 0.914,0.165 1.387,0.25 0.469,0.105 0.943,0.212 1.42,0.318 0.473,0.113 0.949,0.215 1.413,0.339 0.462,0.125 0.915,0.259 1.354,0.383 0.438,0.129 0.861,0.252 1.264,0.369 0.399,0.121 0.771,0.26 1.115,0.379 0.691,0.237 1.26,0.453 1.66,0.596 0.4,0.146 0.626,0.237 0.626,0.237 l -0.075,0.226 c 0,0 -0.238,-0.055 -0.648,-0.161 -0.41,-0.109 -0.998,-0.255 -1.697,-0.449 -0.352,-0.093 -0.728,-0.206 -1.13,-0.311 -0.403,-0.1 -0.829,-0.205 -1.269,-0.314 C 48.926,39.971 48.47,39.86 48.011,39.736 47.55,39.617 47.076,39.522 46.607,39.412 46.136,39.303 45.666,39.192 45.203,39.084 44.738,38.989 44.281,38.895 43.837,38.803 43.394,38.711 42.966,38.617 42.557,38.547 42.15,38.47 41.764,38.398 41.409,38.33 41.052,38.269 40.723,38.214 40.433,38.165 40.143,38.111 39.89,38.076 39.681,38.047 39.473,38.021 39.309,37.986 39.196,37.975 39.083,37.96 39.022,37.953 39.022,37.953 l 0.014,-0.24 z"
                   id="path3573" /><path
                   inkscape:connector-curvature="0"
                   d="m 34.587,36.769 c -0.067,0.512 0.321,0.431 4.511,0.919 1.719,0.2 4.046,0.635 7.285,1.028 C 35.424,36.427 34.627,36.474 34.587,36.769 z"
                   id="path3575" /><path
                   inkscape:connector-curvature="0"
                   d="m 47.295,39.502 0.144,-0.552 c 0,0 -1.981,-0.457 -2.395,-0.53 l -0.155,0.6 2.406,0.482 z"
                   id="path3577" /></g></g><g
               id="g3579"><g
                 id="g3581"><g
                   id="g3583"><path
                     style="fill:#bbbbbb"
                     inkscape:connector-curvature="0"
                     d="m 14.565,37.019 c 0.239,-0.945 1.136,-3.29 1.615,-3.709 0.479,-0.418 9.182,-2.845 9.688,-2.272 0.508,0.571 0.096,3.638 -0.203,3.997 -0.161,0.193 -2.876,0.42 -5.611,1.061 -2.329,0.545 -4.523,1.487 -4.771,1.598 -0.538,0.237 -0.852,-0.142 -0.718,-0.675 z"
                     id="path3585" /><path
                     style="fill:#666666"
                     inkscape:connector-curvature="0"
                     d="m 14.976,37.884 c -0.175,0 -0.328,-0.071 -0.429,-0.201 -0.13,-0.168 -0.167,-0.422 -0.097,-0.694 0.226,-0.89 1.135,-3.316 1.652,-3.769 0.458,-0.4 7.54,-2.39 9.359,-2.39 0.267,0 0.42,0.04 0.498,0.128 0.556,0.627 0.142,3.74 -0.201,4.152 -0.095,0.114 -0.41,0.174 -1.716,0.373 -1.059,0.164 -2.508,0.387 -3.96,0.728 -2.446,0.572 -4.728,1.579 -4.75,1.59 -0.125,0.056 -0.245,0.083 -0.356,0.083 z M 25.46,31.071 c -1.862,0 -8.85,2.022 -9.202,2.329 -0.442,0.387 -1.341,2.714 -1.578,3.648 -0.051,0.2 -0.031,0.379 0.054,0.488 0.099,0.127 0.281,0.144 0.499,0.047 0.023,-0.012 2.325,-1.027 4.792,-1.605 1.46,-0.342 2.916,-0.566 3.979,-0.729 0.76,-0.117 1.478,-0.228 1.577,-0.298 0.264,-0.319 0.663,-3.311 0.197,-3.834 0,-0.002 -0.049,-0.046 -0.318,-0.046 z"
                     id="path3587" /></g><g
                   id="g3589"><linearGradient
                     id="linearGradient4453"
                     gradientUnits="userSpaceOnUse"
                     x1="20.291"
                     y1="32.769299"
                     x2="20.410601"
                     y2="34.563702"><stop
                       offset="0"
                       style="stop-color:#323232"
                       id="stop4455" /><stop
                       offset="1"
                       style="stop-color:#141414"
                       id="stop4457" /></linearGradient><path
                     style="fill:url(#SVGID_8_-1)"
                     inkscape:connector-curvature="0"
                     d="m 15.447,36.362 c 0.211,-0.747 0.617,-2.337 1.039,-2.669 0.422,-0.332 8.274,-2.562 8.722,-2.107 0.447,0.453 0.084,2.609 -0.18,2.894 -0.142,0.154 -2.538,0.435 -4.949,0.942 -2.054,0.432 -3.991,1.248 -4.209,1.334 -0.475,0.189 -0.542,0.029 -0.423,-0.394 z"
                     id="path3596" /><path
                     inkscape:connector-curvature="0"
                     d="m 15.561,36.954 c -0.124,0 -0.192,-0.055 -0.227,-0.101 -0.076,-0.101 -0.077,-0.258 -0.002,-0.524 L 15.396,36.1 c 0.305,-1.102 0.635,-2.201 1.016,-2.502 0.45,-0.354 6.998,-2.193 8.498,-2.193 0.2,0 0.317,0.029 0.383,0.096 0.496,0.502 0.145,2.712 -0.177,3.059 -0.093,0.101 -0.43,0.165 -1.83,0.397 -0.908,0.151 -2.039,0.34 -3.183,0.581 -1.239,0.261 -2.707,0.724 -4.132,1.305 l -0.057,0.023 c -0.149,0.06 -0.262,0.088 -0.353,0.088 z m 9.348,-5.31 c -1.6,0 -8.053,1.91 -8.35,2.144 -0.352,0.276 -0.73,1.644 -0.933,2.377 l -0.064,0.23 c -0.075,0.269 -0.039,0.313 -0.037,0.315 0.005,0.004 0.071,0.026 0.301,-0.066 l 0.055,-0.022 c 1.438,-0.586 2.92,-1.054 4.173,-1.317 1.149,-0.242 2.283,-0.43 3.193,-0.583 0.823,-0.136 1.6,-0.265 1.703,-0.332 0.221,-0.239 0.568,-2.318 0.173,-2.72 l 0,0 c -0.001,-0.001 -0.044,-0.026 -0.214,-0.026 z"
                     id="path3598" /></g></g><g
                 id="g3600"><g
                   id="g3602"><rect
                     style="fill:#111111"
                     x="16.143999"
                     y="33.639"
                     transform="matrix(0.9595,0.2817,-0.2817,0.9595,10.6066,-3.1515)"
                     width="0.23899999"
                     height="3.3440001"
                     id="rect3604" /><rect
                     style="fill:#111111"
                     x="16.743"
                     y="33.421001"
                     transform="matrix(0.9608,0.2774,-0.2774,0.9608,10.397,-3.3006)"
                     width="0.23899999"
                     height="3.3440001"
                     id="rect3606" /><rect
                     style="fill:#111111"
                     x="17.319"
                     y="33.216999"
                     transform="matrix(0.9608,0.2774,-0.2774,0.9608,10.3631,-3.4684)"
                     width="0.23899999"
                     height="3.3440001"
                     id="rect3608" /><rect
                     style="fill:#111111"
                     x="17.929001"
                     y="33.022999"
                     transform="matrix(0.9629,0.2699,-0.2699,0.9629,10.0206,-3.585)"
                     width="0.23899999"
                     height="3.2579999"
                     id="rect3610" /><rect
                     style="fill:#111111"
                     x="18.539"
                     y="32.861"
                     transform="matrix(0.9664,0.2569,-0.2569,0.9664,9.4761,-3.6373)"
                     width="0.23899999"
                     height="3.1760001"
                     id="rect3612" /><rect
                     style="fill:#111111"
                     x="19.15"
                     y="32.658001"
                     transform="matrix(0.9694,0.2454,-0.2454,0.9694,9.0022,-3.6807)"
                     width="0.23899999"
                     height="3.2420001"
                     id="rect3614" /><rect
                     style="fill:#111111"
                     x="19.76"
                     y="32.480999"
                     transform="matrix(0.9653,0.2612,-0.2612,0.9653,9.609,-4.0075)"
                     width="0.23899999"
                     height="3.325"
                     id="rect3616" /><rect
                     style="fill:#111111"
                     x="20.354"
                     y="32.397999"
                     transform="matrix(0.9754,0.2204,-0.2204,0.9754,7.9944,-3.6763)"
                     width="0.23899999"
                     height="3.1849999"
                     id="rect3618" /><rect
                     style="fill:#111111"
                     x="20.896"
                     y="32.310001"
                     transform="matrix(0.9838,0.1792,-0.1792,0.9838,6.4148,-3.2181)"
                     width="0.23999999"
                     height="3.158"
                     id="rect3620" /><rect
                     style="fill:#111111"
                     x="21.455"
                     y="32.256001"
                     transform="matrix(0.9915,0.1303,-0.1303,0.9915,4.5841,-2.5232)"
                     width="0.23999999"
                     height="3.03"
                     id="rect3622" /><rect
                     style="fill:#111111"
                     x="24.849001"
                     y="31.645"
                     transform="matrix(0.9996,0.0286,-0.0286,0.9996,0.9561,-0.6996)"
                     width="0.23899999"
                     height="2.954"
                     id="rect3624" /><rect
                     style="fill:#111111"
                     x="24.358"
                     y="31.642"
                     transform="matrix(0.9981,0.0612,-0.0612,0.9981,2.0772,-1.4366)"
                     width="0.23899999"
                     height="3.0610001"
                     id="rect3626" /><rect
                     style="fill:#111111"
                     x="23.85"
                     y="31.642"
                     transform="matrix(0.9981,0.0611,-0.0611,0.9981,2.0751,-1.4027)"
                     width="0.23999999"
                     height="3.1619999"
                     id="rect3628" /><rect
                     style="fill:#111111"
                     x="23.290001"
                     y="31.844999"
                     transform="matrix(0.9976,0.0694,-0.0694,0.9976,2.3702,-1.5434)"
                     width="0.23899999"
                     height="3.0280001"
                     id="rect3630" /><rect
                     style="fill:#111111"
                     x="22.68"
                     y="31.978001"
                     transform="matrix(0.9956,0.0938,-0.0938,0.9956,3.2456,-1.9918)"
                     width="0.23899999"
                     height="3.0680001"
                     id="rect3632" /><rect
                     style="fill:#111111"
                     x="22.07"
                     y="32.078999"
                     transform="matrix(0.996,0.0898,-0.0898,0.996,3.1081,-1.8568)"
                     width="0.23899999"
                     height="3.0680001"
                     id="rect3634" /></g><path
                   style="fill:#111111"
                   inkscape:connector-curvature="0"
                   d="m 15.594,37.073 c -0.124,0 -0.192,-0.054 -0.227,-0.1 -0.077,-0.102 -0.077,-0.258 -0.002,-0.524 l 0.065,-0.234 c 0.305,-1.099 0.634,-2.196 1.015,-2.497 0.451,-0.354 6.999,-2.193 8.498,-2.193 0.199,0 0.318,0.03 0.383,0.096 0.496,0.503 0.146,2.713 -0.177,3.06 -0.093,0.1 -0.43,0.165 -1.83,0.397 -0.908,0.15 -2.039,0.339 -3.183,0.58 -1.237,0.261 -2.703,0.723 -4.129,1.305 l -0.06,0.024 c -0.148,0.058 -0.263,0.086 -0.353,0.086 z m 9.348,-5.309 c -1.6,0 -8.052,1.909 -8.349,2.143 -0.351,0.276 -0.729,1.641 -0.933,2.372 l -0.065,0.236 c -0.076,0.269 -0.039,0.312 -0.038,0.314 0.005,0.004 0.071,0.026 0.3,-0.064 l 0.059,-0.023 c 1.438,-0.588 2.92,-1.055 4.169,-1.318 1.149,-0.242 2.283,-0.43 3.193,-0.582 0.823,-0.137 1.6,-0.266 1.703,-0.332 0.221,-0.24 0.568,-2.319 0.173,-2.72 l 0,0 c 0,-10e-4 -0.042,-0.026 -0.212,-0.026 z"
                   id="path3636" /></g></g><g
               id="g3638"><g
                 id="g3640"><g
                   id="g3642"><path
                     style="fill:#bbbbbb"
                     inkscape:connector-curvature="0"
                     d="m 52.155,37.019 c -0.239,-0.945 -1.137,-3.29 -1.615,-3.709 -0.479,-0.418 -9.182,-2.845 -9.689,-2.272 -0.508,0.571 -0.096,3.503 0.204,3.862 0.161,0.193 2.877,0.419 5.611,1.06 2.329,0.545 4.524,1.487 4.771,1.598 0.538,0.238 0.853,-0.006 0.718,-0.539 z"
                     id="path3644" /><path
                     style="fill:#666666"
                     inkscape:connector-curvature="0"
                     d="m 51.809,37.767 0,0 c -0.127,0 -0.268,-0.033 -0.421,-0.102 -0.022,-0.01 -2.304,-1.018 -4.749,-1.59 -1.452,-0.34 -2.902,-0.564 -3.961,-0.727 -1.307,-0.2 -1.621,-0.26 -1.717,-0.373 -0.341,-0.41 -0.758,-3.389 -0.2,-4.018 0.078,-0.088 0.231,-0.128 0.498,-0.128 1.819,0 8.901,1.989 9.359,2.39 0.517,0.452 1.427,2.879 1.651,3.769 0.082,0.321 0.007,0.506 -0.07,0.605 -0.087,0.115 -0.223,0.174 -0.39,0.174 z m -10.55,-6.696 c -0.269,0 -0.317,0.044 -0.319,0.046 -0.467,0.525 -0.066,3.38 0.206,3.705 0.091,0.063 0.809,0.174 1.569,0.291 1.062,0.164 2.518,0.388 3.978,0.73 2.468,0.577 4.77,1.594 4.792,1.604 0.242,0.107 0.442,0.107 0.525,0 0.063,-0.081 0.073,-0.223 0.028,-0.399 C 51.801,36.113 50.902,33.786 50.461,33.4 50.11,33.093 43.122,31.071 41.259,31.071 z"
                     id="path3646" /></g><g
                   id="g3648"><path
                     style="fill:#1e1e1e"
                     inkscape:connector-curvature="0"
                     d="m 51.273,36.362 c -0.21,-0.747 -0.616,-2.337 -1.039,-2.669 -0.422,-0.332 -8.274,-2.562 -8.722,-2.107 -0.447,0.453 -0.084,2.609 0.18,2.894 0.143,0.154 2.537,0.435 4.949,0.942 2.055,0.432 3.99,1.248 4.209,1.334 0.475,0.189 0.542,0.029 0.423,-0.394 z"
                     id="path3650" /><path
                     inkscape:connector-curvature="0"
                     d="m 51.159,36.954 c -0.091,0 -0.203,-0.028 -0.354,-0.087 l -0.057,-0.024 c -1.426,-0.581 -2.893,-1.044 -4.132,-1.305 -1.144,-0.241 -2.274,-0.43 -3.183,-0.581 -1.4,-0.232 -1.736,-0.297 -1.83,-0.397 -0.321,-0.347 -0.672,-2.557 -0.177,-3.059 0.065,-0.066 0.185,-0.096 0.384,-0.096 1.499,0 8.047,1.839 8.497,2.193 0.382,0.301 0.711,1.4 1.017,2.502 l 0.063,0.229 c 0.074,0.267 0.073,0.424 -0.003,0.524 -0.033,0.047 -0.1,0.101 -0.225,0.101 z m -9.348,-5.31 c -0.175,0 -0.215,0.026 -0.217,0.027 -0.393,0.399 -0.045,2.479 0.186,2.727 0.094,0.059 0.871,0.188 1.693,0.323 0.91,0.153 2.044,0.341 3.193,0.583 1.252,0.264 2.734,0.731 4.172,1.317 l 0.057,0.022 c 0.229,0.093 0.295,0.07 0.3,0.066 10e-4,-0.002 0.038,-0.047 -0.037,-0.315 l -0.064,-0.23 c -0.203,-0.733 -0.581,-2.101 -0.933,-2.377 -0.297,-0.233 -6.75,-2.143 -8.35,-2.143 z"
                     id="path3652" /></g></g><g
                 id="g3654"><rect
                   x="48.818001"
                   y="35.071999"
                   transform="matrix(0.2819,0.9594,-0.9594,0.2819,70.0189,-23.1719)"
                   width="3.3429999"
                   height="0.23899999"
                   id="rect3656" /><rect
                   x="48.217999"
                   y="34.854"
                   transform="matrix(0.2816,0.9595,-0.9595,0.2816,69.3998,-22.7463)"
                   width="3.3429999"
                   height="0.23800001"
                   id="rect3658" /><rect
                   x="47.641998"
                   y="34.650002"
                   transform="matrix(0.2816,0.9595,-0.9595,0.2816,68.7905,-22.3397)"
                   width="3.3429999"
                   height="0.23899999"
                   id="rect3660" /><rect
                   x="47.074001"
                   y="34.411999"
                   transform="matrix(0.2685,0.9633,-0.9633,0.2685,68.8928,-21.6543)"
                   width="3.2590001"
                   height="0.23899999"
                   id="rect3662" /><rect
                   x="46.505001"
                   y="34.209999"
                   transform="matrix(0.2539,0.9672,-0.9672,0.2539,69.0883,-20.9036)"
                   width="3.177"
                   height="0.23800001"
                   id="rect3664" /><rect
                   x="45.862"
                   y="34.040001"
                   transform="matrix(0.2486,0.9686,-0.9686,0.2486,68.7681,-20.3239)"
                   width="3.2409999"
                   height="0.23899999"
                   id="rect3666" /><rect
                   x="45.210999"
                   y="33.903999"
                   transform="matrix(0.2631,0.9648,-0.9648,0.2631,67.3637,-20.151)"
                   width="3.325"
                   height="0.23899999"
                   id="rect3668" /><rect
                   x="44.688"
                   y="33.751999"
                   transform="matrix(0.2214,0.9752,-0.9752,0.2214,69.0637,-18.7593)"
                   width="3.1849999"
                   height="0.23800001"
                   id="rect3670" /><rect
                   x="44.159"
                   y="33.648998"
                   transform="matrix(0.1806,0.9836,-0.9836,0.1806,70.693,-17.3144)"
                   width="3.158"
                   height="0.23999999"
                   id="rect3672" /><rect
                   x="43.661999"
                   y="33.530998"
                   transform="matrix(0.1318,0.9913,-0.9913,0.1318,72.5822,-15.5671)"
                   width="3.0309999"
                   height="0.23899999"
                   id="rect3674" /><rect
                   x="40.306999"
                   y="32.882999"
                   transform="matrix(0.0298,0.9996,-0.9996,0.0298,73.5283,-9.7446)"
                   width="2.9530001"
                   height="0.23999999"
                   id="rect3676" /><rect
                   x="40.745998"
                   y="32.933998"
                   transform="matrix(0.0619,0.9981,-0.9981,0.0619,72.6459,-11.1881)"
                   width="3.059"
                   height="0.23899999"
                   id="rect3678" /><rect
                   x="41.202999"
                   y="32.984001"
                   transform="matrix(0.0596,0.9982,-0.9982,0.0596,73.2762,-11.5778)"
                   width="3.1600001"
                   height="0.23899999"
                   id="rect3680" /><rect
                   x="41.827999"
                   y="33.119999"
                   transform="matrix(0.0735,0.9973,-0.9973,0.0735,73.3044,-12.4298)"
                   width="3.0280001"
                   height="0.23899999"
                   id="rect3682" /><rect
                   x="42.417999"
                   y="33.272999"
                   transform="matrix(0.0948,0.9955,-0.9955,0.0948,73.026,-13.5291)"
                   width="3.069"
                   height="0.23899999"
                   id="rect3684" /><rect
                   x="43.028999"
                   y="33.374001"
                   transform="matrix(0.0945,0.9955,-0.9955,0.0945,73.6951,-14.036)"
                   width="3.0680001"
                   height="0.23899999"
                   id="rect3686" /></g></g><g
               id="g3688"><path
                 style="fill:#dfdfdf"
                 inkscape:connector-curvature="0"
                 d="m 47.141,20.628 c -3.049,-2.712 -9.236,-2.809 -13.842,-2.809 -4.606,0 -10.793,0.097 -13.842,2.809 -0.189,0.168 -0.381,0.389 -0.572,0.652 0.624,0.419 6.838,-1.207 14.415,-1.127 7.577,-0.08 13.791,1.546 14.415,1.127 -0.192,-0.263 -0.382,-0.484 -0.574,-0.652 z"
                 id="path3690" /><g
                 id="g3692"><path
                   style="fill:#191919"
                   inkscape:connector-curvature="0"
                   d="m 46.314,20.023 c 10e-4,-0.002 10e-4,-0.005 0.003,-0.009 -3.243,-2.112 -8.803,-2.194 -13.03,-2.194 -4.218,0 -9.762,0.081 -13.008,2.18 0.002,0.008 0.004,0.017 0.006,0.023 -0.914,1.025 5.266,-0.848 13.014,-0.768 7.748,-0.08 13.928,1.793 13.015,0.768 z"
                   id="path3694" /><path
                   inkscape:connector-curvature="0"
                   d="m 45.969,20.45 c -0.486,0 -1.33,-0.117 -2.496,-0.277 -2.396,-0.332 -6.064,-0.839 -10.172,-0.799 -0.164,-10e-4 -0.326,-0.002 -0.486,-0.002 -3.91,0 -7.388,0.481 -9.69,0.801 -1.167,0.16 -2.01,0.277 -2.496,0.277 -0.226,0 -0.466,-0.021 -0.536,-0.176 -0.048,-0.108 0.011,-0.214 0.061,-0.279 l -0.013,-0.047 0.073,-0.05 c 3.402,-2.199 9.456,-2.199 13.073,-2.199 3.626,0 9.695,0 13.095,2.215 l 0.076,0.049 -0.01,0.034 c 0.049,0.065 0.105,0.171 0.058,0.277 C 46.45,20.4 46.293,20.45 45.969,20.45 z M 33.784,19.133 c 3.927,0 7.414,0.482 9.723,0.803 1.156,0.16 1.992,0.275 2.463,0.275 0.201,0 0.28,-0.021 0.309,-0.034 -0.007,-0.015 -0.021,-0.038 -0.053,-0.074 l -0.014,-0.014 c -3.348,-2.15 -9.34,-2.15 -12.925,-2.15 -3.565,0 -9.514,0 -12.87,2.114 l -0.042,0.05 c -0.032,0.036 -0.046,0.06 -0.053,0.074 0.029,0.013 0.107,0.034 0.308,0.034 0.47,0 1.306,-0.115 2.463,-0.275 2.403,-0.333 6.087,-0.845 10.209,-0.801 0.158,-0.002 0.322,-0.002 0.482,-0.002 z"
                   id="path3696" /></g><g
                 id="g3698"><path
                   style="fill:#333333"
                   inkscape:connector-curvature="0"
                   d="M 21.574,19.909 21.509,19.68 c 0.049,-0.015 4.929,-1.382 11.791,-1.382 6.862,0 11.658,1.367 11.706,1.382 l -0.067,0.229 C 44.892,19.895 40.127,18.536 33.3,18.536 c -6.829,0 -11.677,1.36 -11.726,1.373 z"
                   id="path3700" /><rect
                   style="fill:#333333"
                   x="21.422001"
                   y="19.327"
                   width="0.23899999"
                   height="0.93400002"
                   id="rect3702" /><rect
                   style="fill:#333333"
                   x="44.830002"
                   y="19.329"
                   transform="matrix(0.9993,0.0367,-0.0367,0.9993,0.757,-1.6367)"
                   width="0.23899999"
                   height="0.93300003"
                   id="rect3704" /></g><path
                 inkscape:connector-curvature="0"
                 d="m 45.969,20.45 c -0.486,0 -1.33,-0.117 -2.496,-0.277 -2.396,-0.332 -6.064,-0.839 -10.172,-0.799 -0.164,-10e-4 -0.326,-0.002 -0.486,-0.002 -3.91,0 -7.388,0.481 -9.69,0.801 -1.167,0.16 -2.01,0.277 -2.496,0.277 -0.226,0 -0.466,-0.021 -0.536,-0.176 -0.048,-0.108 0.011,-0.214 0.061,-0.279 l -0.013,-0.047 0.073,-0.05 c 3.402,-2.199 9.456,-2.199 13.073,-2.199 3.626,0 9.695,0 13.095,2.215 l 0.076,0.049 -0.01,0.034 c 0.049,0.065 0.105,0.171 0.058,0.277 C 46.45,20.4 46.293,20.45 45.969,20.45 z M 33.784,19.133 c 3.927,0 7.414,0.482 9.723,0.803 1.156,0.16 1.992,0.275 2.463,0.275 0.201,0 0.28,-0.021 0.309,-0.034 -0.007,-0.015 -0.021,-0.038 -0.053,-0.074 l -0.014,-0.014 c -3.348,-2.15 -9.34,-2.15 -12.925,-2.15 -3.565,0 -9.514,0 -12.87,2.114 l -0.042,0.05 c -0.032,0.036 -0.046,0.06 -0.053,0.074 0.029,0.013 0.107,0.034 0.308,0.034 0.47,0 1.306,-0.115 2.463,-0.275 2.403,-0.333 6.087,-0.845 10.209,-0.801 0.158,-0.002 0.322,-0.002 0.482,-0.002 z"
                 id="path3706" /><g
                 id="g3708"><ellipse
                   style="fill:#d0d0d0"
                   sodipodi:ry="0.35800001"
                   sodipodi:rx="1.256"
                   sodipodi:cy="18.417"
                   sodipodi:cx="33.299"
                   d="m 34.555,18.417 c 0,0.197718 -0.562331,0.358 -1.256,0.358 -0.69367,0 -1.256,-0.160282 -1.256,-0.358 0,-0.197718 0.56233,-0.358 1.256,-0.358 0.693669,0 1.256,0.160282 1.256,0.358 z"
                   cx="33.299"
                   cy="18.417"
                   rx="1.256"
                   ry="0.35800001"
                   id="ellipse3710" /><path
                   inkscape:connector-curvature="0"
                   d="m 33.299,18.896 c -0.511,0 -1.375,-0.101 -1.375,-0.479 0,-0.377 0.865,-0.479 1.375,-0.479 0.512,0 1.376,0.102 1.376,0.479 0,0.378 -0.864,0.479 -1.376,0.479 z m 0,-0.717 c -0.74,0 -1.113,0.174 -1.137,0.242 0.023,0.062 0.396,0.236 1.137,0.236 0.741,0 1.113,-0.174 1.137,-0.243 -0.023,-0.061 -0.396,-0.235 -1.137,-0.235 z"
                   id="path3712" /></g></g><g
               id="g3714"><path
                 inkscape:connector-curvature="0"
                 d="m 12.113,72.245 c 0.24,-0.547 0.264,-1.316 0.264,-1.316 0,0 0.3,-10.645 0.3,-12.439 0,-1.794 -1.531,-15.59 -2.208,-15.631 -0.32,0.32 -0.31,5.124 -0.31,5.124 0,0 0.359,21.274 0.359,22.799 10e-4,0.546 1.297,2.147 1.595,1.463 z"
                 id="path3716" /><path
                 style="fill:#171d23"
                 inkscape:connector-curvature="0"
                 d="m 11.889,71.606 c 0.164,-0.512 0.181,-1.261 0.181,-1.261 0,0 0.206,-9.932 0.206,-11.605 0,-1.673 -1.254,-14.951 -1.718,-14.989 -0.219,0.298 -0.009,5.188 -0.009,5.188 0,0 0.247,20.118 0.247,21.54 -10e-4,0.509 0.889,1.764 1.093,1.127 z"
                 id="path3718" /><polygon
                 points="12.275,58.928 10.923,57.834 10.923,56.923 12.239,57.993 "
                 id="polygon3720" /></g><g
               id="g3722"><path
                 inkscape:connector-curvature="0"
                 d="m 54.473,72.245 c -0.24,-0.547 -0.264,-1.316 -0.264,-1.316 0,0 -0.301,-10.645 -0.301,-12.439 0,-1.794 1.531,-15.59 2.209,-15.631 0.318,0.32 0.309,5.124 0.309,5.124 0,0 -0.359,21.274 -0.359,22.799 0,0.546 -1.297,2.147 -1.594,1.463 z"
                 id="path3724" /><path
                 style="fill:#171d23"
                 inkscape:connector-curvature="0"
                 d="m 54.697,71.606 c -0.163,-0.512 -0.181,-1.261 -0.181,-1.261 0,0 -0.206,-9.932 -0.206,-11.605 0,-1.673 1.253,-14.951 1.718,-14.989 0.219,0.298 0.01,5.188 0.01,5.188 0,0 -0.246,20.118 -0.246,21.54 0,0.509 -0.891,1.764 -1.095,1.127 z"
                 id="path3726" /><polygon
                 points="54.311,58.928 55.663,57.834 55.663,56.923 54.346,57.993 "
                 id="polygon3728" /></g><g
               id="g3730"><path
                 inkscape:connector-curvature="0"
                 d="m 4.569,50.624 c 0,0 -0.435,-0.54 -0.035,-1.07 0.659,-0.873 4.08,-1.83 4.581,-1.316 l 0.005,1.121 -4.551,1.265 z"
                 id="path3732" /><path
                 style="fill:#0c0c0c"
                 inkscape:connector-curvature="0"
                 d="m 10.588,47.515 c 0.832,-0.093 1.366,2.262 1.087,3.848 -0.279,1.195 -0.788,-1.516 -1.834,-1.516 -1.944,0 -3.708,0.567 -4.875,1.256 -0.359,-0.06 -0.33,-0.479 -0.33,-0.479 0,0 0.411,-0.748 4.479,-1.465 v -0.922 c 1.024,-0.029 1.339,-0.705 1.473,-0.722 z"
                 id="path3734" /><path
                 style="fill:#bceaff"
                 inkscape:connector-curvature="0"
                 d="m 4.966,51.103 c 0,0 0.073,0.357 2.212,-0.209 2.14,-0.566 1.937,-1.021 1.937,-1.021 0,0 -1.816,-0.026 -4.149,1.23 z"
                 id="path3736" /></g><path
               style="fill:#cbcbcb"
               inkscape:connector-curvature="0"
               d="m 13.443,26.808 c 0.305,-0.479 3.21,-3.223 4.434,-4.346 -2.255,3.788 -4.249,10.486 -5.2,17.271 l 0.766,-12.925 z"
               id="path3738" /><path
               style="fill:#cbcbcb"
               inkscape:connector-curvature="0"
               d="m 53.159,26.808 c -0.305,-0.479 -3.211,-3.223 -4.434,-4.346 2.254,3.788 4.248,10.486 5.199,17.271 L 53.159,26.808 z"
               id="path3740" /><g
               id="g3742"><path
                 inkscape:connector-curvature="0"
                 d="m 61.922,50.624 c 0,0 0.436,-0.54 0.035,-1.07 -0.658,-0.873 -4.08,-1.83 -4.58,-1.316 l -0.006,1.121 4.551,1.265 z"
                 id="path3744" /><path
                 style="fill:#0c0c0c"
                 inkscape:connector-curvature="0"
                 d="m 55.905,47.515 c -0.832,-0.093 -1.366,2.262 -1.088,3.848 0.28,1.195 0.788,-1.516 1.835,-1.516 1.944,0 3.708,0.567 4.874,1.256 0.359,-0.06 0.33,-0.479 0.33,-0.479 0,0 -0.412,-0.748 -4.479,-1.465 v -0.922 c -1.024,-0.029 -1.338,-0.705 -1.472,-0.722 z"
                 id="path3746" /><path
                 style="fill:#bceaff"
                 inkscape:connector-curvature="0"
                 d="m 61.526,51.103 c 0,0 -0.072,0.357 -2.213,-0.209 -2.14,-0.566 -1.936,-1.021 -1.936,-1.021 0,0 1.817,-0.026 4.149,1.23 z"
                 id="path3748" /></g></g><g
             id="g3750"><path
               style="fill:#7a7a7a"
               inkscape:connector-curvature="0"
               d="m 33.268,58.01 c 3.008,0 6.155,0.224 9.062,0.591 0,-0.008 0,-2.15 0,-3.225 -1.375,-0.179 -3.888,-0.358 -9.066,-0.358 -5.18,0 -7.692,0.18 -9.068,0.358 0,1.077 0,3.226 0,3.226 h 0 c 2.91,-0.368 6.06,-0.592 9.072,-0.592 z"
               id="path3752" /><path
               style="fill:#a9a9a9"
               inkscape:connector-curvature="0"
               d="m 24.196,55.376 c 0,0 6.458,0.379 9.089,0.379 2.473,0 9.045,-0.379 9.045,-0.379 -1.375,-0.179 -3.888,-0.358 -9.066,-0.358 -5.18,0 -7.692,0.18 -9.068,0.358 z"
               id="path3754" /><path
               style="fill:#232323"
               inkscape:connector-curvature="0"
               d="m 24.196,55.376 0.556,2.391 c 0,0 4.137,-0.497 8.457,-0.497 4.32,0 8.568,0.366 8.568,0.366 l 0.553,-2.26 0.005,3.226 c 0,0 -5.306,-0.592 -9.071,-0.592 -3.766,0 -9.068,0.616 -9.068,0.616 v -3.25 z"
               id="path3756" /></g><g
             id="g3758"><linearGradient
               id="linearGradient4541"
               gradientUnits="userSpaceOnUse"
               x1="33.263199"
               y1="76.211197"
               x2="33.263199"
               y2="56.6675"><stop
                 offset="0"
                 style="stop-color:#D7D7D7"
                 id="stop4543" /><stop
                 offset="0.3305"
                 style="stop-color:#B6B6B6"
                 id="stop4545" /><stop
                 offset="1"
                 style="stop-color:#636162"
                 id="stop4547" /></linearGradient><path
               style="fill:url(#SVGID_9_-2)"
               inkscape:connector-curvature="0"
               d="m 33.264,77.688 19.822,10e-4 c 0,0 0.213,-16.369 -0.584,-16.711 C 49.15,59.397 40.775,58.01 33.264,58.01 c -7.512,0 -15.887,1.387 -19.239,2.968 -0.797,0.342 -0.583,16.711 -0.583,16.711 l 19.822,-10e-4"
               id="path3767" /><path
               style="fill:#232323"
               inkscape:connector-curvature="0"
               d="M 53.205,77.807 H 13.323 L 13.321,77.69 C 13.271,73.831 13.17,61.214 13.978,60.868 17.516,59.2 25.989,57.89 33.264,57.89 c 7.275,0 15.748,1.31 19.289,2.979 0.805,0.345 0.703,12.961 0.652,16.82 l 0,0.118 z M 33.264,58.13 c -7.245,0 -15.673,1.298 -19.188,2.955 -0.523,0.432 -0.595,10.287 -0.518,16.482 H 33.264 52.969 C 53.047,71.372 52.975,61.516 52.448,61.083 48.937,59.428 40.509,58.13 33.264,58.13 z"
               id="path3769" /></g><linearGradient
             id="linearGradient4551"
             gradientUnits="userSpaceOnUse"
             x1="33.263199"
             y1="76.8479"
             x2="33.263199"
             y2="61.1161"><stop
               offset="0"
               style="stop-color:#FBFBFB;stop-opacity:0"
               id="stop4553" /><stop
               offset="0.3635"
               style="stop-color:#FBFBFB"
               id="stop4555" /><stop
               offset="0.6426"
               style="stop-color:#FBFBFB;stop-opacity:0.7804"
               id="stop4557" /><stop
               offset="1"
               style="stop-color:#FBFBFB;stop-opacity:0"
               id="stop4559" /></linearGradient><path
             style="opacity:0.8;fill:url(#SVGID_10_-4)"
             inkscape:connector-curvature="0"
             d="m 33.264,77.585 h 17.84 c 0,0 0.191,-14.732 -0.525,-15.039 -3.018,-1.423 -10.555,-2.672 -17.314,-2.672 -6.761,0 -14.299,1.249 -17.315,2.672 -0.718,0.307 -0.526,15.039 -0.526,15.039 h 17.84"
             id="path3780" /><g
             id="g3782"><path
               style="fill:#0f0f0f;fill-rule:evenodd"
               inkscape:connector-curvature="0"
               clip-rule="evenodd"
               d="m 42.375,77.688 c 0,0 -0.896,-1.198 -1.493,-1.198 -0.599,0 -7.596,0 -7.596,0 0,0 -6.998,0 -7.596,0 -0.598,0 -1.493,1.198 -1.493,1.198 h 18.178 z"
               id="path3784" /><path
               style="fill:#1e1e1e"
               inkscape:connector-curvature="0"
               d="M 42.614,77.807 H 23.958 l 0.143,-0.19 C 24.196,77.488 25.05,76.37 25.69,76.37 h 15.192 c 0.64,0 1.494,1.118 1.589,1.247 l 0.143,0.19 z M 24.443,77.568 H 42.127 C 41.813,77.191 41.25,76.609 40.881,76.609 H 25.689 c -0.369,0 -0.932,0.582 -1.246,0.959 z"
               id="path3786" /></g><path
             style="fill:#232323"
             inkscape:connector-curvature="0"
             d="M 25.51,55.018"
             id="path3788" /><g
             id="g3790"><linearGradient
               id="linearGradient4567"
               gradientUnits="userSpaceOnUse"
               x1="18.6245"
               y1="58.5867"
               x2="18.6245"
               y2="55.554901"><stop
                 offset="0"
                 style="stop-color:#A9A9A9"
                 id="stop4569" /><stop
                 offset="1"
                 style="stop-color:#A9A9A9;stop-opacity:0"
                 id="stop4571" /></linearGradient><path
               style="fill:url(#SVGID_11_-9)"
               inkscape:connector-curvature="0"
               d="m 13.517,60.578 v -2.88 c 1.467,-0.775 6.258,-2.169 10.147,-2.424 l 0.067,2.837 c 10e-4,0.001 -6.594,0.817 -10.214,2.467 z"
               id="path3797" /><linearGradient
               id="linearGradient4574"
               gradientUnits="userSpaceOnUse"
               x1="47.887199"
               y1="58.5867"
               x2="47.887199"
               y2="55.554901"><stop
                 offset="0"
                 style="stop-color:#A9A9A9"
                 id="stop4576" /><stop
                 offset="1"
                 style="stop-color:#A9A9A9;stop-opacity:0"
                 id="stop4578" /></linearGradient><path
               style="fill:url(#SVGID_12_-6)"
               inkscape:connector-curvature="0"
               d="m 52.995,60.578 v -2.88 C 51.527,56.923 46.737,55.529 42.847,55.274 l -0.066,2.837 c -10e-4,0.001 6.593,0.817 10.214,2.467 z"
               id="path3804" /></g><path
             style="fill:#6d6d6d"
             inkscape:connector-curvature="0"
             d="m 12.275,27.606 c 0,0 -0.874,13.038 -0.857,14.991 0.017,1.954 -0.657,0 -0.657,0 l 0.605,-12.479 c 0.428,-0.28 0.909,-2.512 0.909,-2.512 z"
             id="path3806" /><path
             style="fill:#6d6d6d"
             inkscape:connector-curvature="0"
             d="m 54.229,27.606 c 0,0 0.875,13.038 0.858,14.991 -0.018,1.954 0.657,0 0.657,0 L 55.139,30.118 c -0.428,-0.28 -0.91,-2.512 -0.91,-2.512 z"
             id="path3808" /></g><path
           style="fill:#212121"
           inkscape:connector-curvature="0"
           d="m 33.278,17.341 c 14.659,0 19.25,3.947 21.219,5.463 1.9,1.465 2.703,17.228 2.775,25.426 0.035,0.004 0.068,0.007 0.105,0.008 0.098,-0.1 0.305,-0.145 0.582,-0.145 1.146,0 3.468,0.758 3.998,1.461 0.4,0.53 -0.035,1.07 -0.035,1.07 l -0.084,-0.023 c 0.012,0.016 0.018,0.023 0.018,0.023 0,0 -0.225,0.467 -1.229,0.467 -0.341,0 -0.771,-0.054 -1.313,-0.197 -2.135,-0.565 -1.938,-1.02 -1.936,-1.021 -0.035,-0.002 -0.071,-0.003 -0.106,-0.005 -0.063,1.304 -0.376,1.804 -0.376,1.804 l 0.18,26.018 H 9.481 l 0.18,-26.018 c 0,0 -0.314,-0.502 -0.376,-1.808 -0.057,0.004 -0.113,0.006 -0.169,0.009 0.001,0.002 0.199,0.456 -1.937,1.021 -0.542,0.144 -0.972,0.197 -1.313,0.197 -1.004,0 -1.229,-0.467 -1.229,-0.467 0,0 0.005,-0.008 0.018,-0.023 L 4.57,50.624 c 0,0 -0.435,-0.54 -0.035,-1.07 0.531,-0.703 2.852,-1.461 3.998,-1.461 0.277,0 0.485,0.045 0.583,0.145 0.059,-0.002 0.114,-0.006 0.168,-0.011 0.073,-8.2 0.875,-23.959 2.775,-25.423 1.968,-1.516 6.56,-5.463 21.219,-5.463 m 0,-1.435 c -14.677,0 -19.738,3.932 -21.9,5.609 l -0.194,0.152 C 10.4,22.271 9.89,23.519 9.424,25.974 9.095,27.709 8.802,30.028 8.556,32.865 8.144,37.608 7.936,42.869 7.868,46.709 6.436,46.898 4.198,47.617 3.389,48.69 2.651,49.668 2.904,50.843 3.451,51.524 l 0.592,0.736 0.27,-0.075 c 0.401,0.206 0.917,0.341 1.553,0.341 0.501,0 1.067,-0.082 1.681,-0.245 0.243,-0.063 0.468,-0.129 0.676,-0.195 l -0.177,25.592 -0.01,1.445 h 1.445 47.593 1.444 l -0.01,-1.445 -0.177,-25.573 c 0.191,0.06 0.395,0.119 0.613,0.176 0.613,0.163 1.18,0.245 1.681,0.245 0.636,0 1.151,-0.135 1.554,-0.341 l 0.27,0.075 0.592,-0.736 C 63.588,50.843 63.84,49.668 63.103,48.69 62.304,47.632 60.121,46.919 58.687,46.716 58.62,42.877 58.413,37.615 58,32.868 57.753,30.029 57.461,27.711 57.132,25.973 56.666,23.518 56.156,22.271 55.372,21.666 L 55.176,21.514 C 53.014,19.837 47.954,15.906 33.278,15.906 l 0,0 z"
           id="path3810" /></g><path
         style="fill:none;stroke:#3f3f3f;stroke-width:3;stroke-miterlimit:10"
         inkscape:connector-curvature="0"
         clip-rule="evenodd"
         stroke-miterlimit="10"
         d="M 12.951,76.49"
         id="path3812" /><g
         id="g3814"><g
           id="g3816"><g
             id="g3818"><linearGradient
               id="linearGradient4588"
               gradientUnits="userSpaceOnUse"
               x1="33.297401"
               y1="79.885002"
               x2="33.297401"
               y2="128.325"><stop
                 offset="0"
                 style="stop-color:#DF0000"
                 id="stop4590" /><stop
                 offset="1"
                 style="stop-color:#A00404"
                 id="stop4592" /></linearGradient><path
               style="fill:url(#SVGID_13_-8);fill-rule:evenodd"
               inkscape:connector-curvature="0"
               clip-rule="evenodd"
               d="m 58.366,132.958 c 0,0.525 -0.43,0.956 -0.957,0.956 H 9.185 c -0.526,0 -0.957,-0.431 -0.957,-0.956 V 78.882 c 0,-0.525 0.431,-0.957 0.957,-0.957 h 48.224 c 0.527,0 0.957,0.432 0.957,0.957 v 54.076 z"
               id="path3825" /><path
               style="fill:#6d0000"
               inkscape:connector-curvature="0"
               d="M 57.409,134.274 H 9.185 c -0.726,0 -1.316,-0.591 -1.316,-1.315 V 78.882 c 0,-0.725 0.59,-1.316 1.316,-1.316 h 48.224 c 0.727,0 1.316,0.592 1.316,1.316 v 54.076 c 0,0.725 -0.59,1.316 -1.316,1.316 z M 9.185,78.284 c -0.33,0 -0.599,0.268 -0.599,0.598 v 54.076 c 0,0.33 0.269,0.597 0.599,0.597 h 48.224 c 0.33,0 0.6,-0.267 0.6,-0.597 V 78.882 c 0,-0.33 -0.27,-0.598 -0.6,-0.598 H 9.185 z"
               id="path3827" /></g><path
             style="fill:#700000;fill-rule:evenodd"
             inkscape:connector-curvature="0"
             clip-rule="evenodd"
             d="m 52.461,103.511 c 0,0.264 -0.215,0.479 -0.479,0.479 H 14.587 c -0.263,0 -0.478,-0.215 -0.478,-0.479 V 84.96 c 0,-0.264 0.215,-0.479 0.478,-0.479 h 37.396 c 0.264,0 0.479,0.215 0.479,0.479 v 18.551 z"
             id="path3829" /><g
             id="g3831"><linearGradient
               id="linearGradient4598"
               gradientUnits="userSpaceOnUse"
               x1="33.285599"
               y1="85.380096"
               x2="33.285599"
               y2="100.0304"><stop
                 offset="0"
                 style="stop-color:#DF0000"
                 id="stop4600" /><stop
                 offset="1"
                 style="stop-color:#A00404"
                 id="stop4602" /></linearGradient><path
               style="fill:url(#SVGID_14_-0);fill-rule:evenodd"
               inkscape:connector-curvature="0"
               clip-rule="evenodd"
               d="m 51.445,102.216 c 0,0.264 -0.216,0.479 -0.479,0.479 H 15.604 c -0.263,0 -0.479,-0.216 -0.479,-0.479 V 84.83 c 0,-0.263 0.215,-0.479 0.479,-0.479 h 35.362 c 0.263,0 0.479,0.216 0.479,0.479 v 17.386 z"
               id="path3838" /><path
               style="fill:#a80000"
               inkscape:connector-curvature="0"
               d="M 50.966,103.054 H 15.604 c -0.461,0 -0.837,-0.376 -0.837,-0.838 V 84.83 c 0,-0.462 0.376,-0.837 0.837,-0.837 h 35.362 c 0.462,0 0.837,0.375 0.837,0.837 v 17.386 c 0,0.462 -0.375,0.838 -0.837,0.838 z M 15.604,84.711 c -0.065,0 -0.12,0.055 -0.12,0.119 v 17.386 c 0,0.065 0.055,0.12 0.12,0.12 h 35.362 c 0.065,0 0.12,-0.055 0.12,-0.12 V 84.83 c 0,-0.064 -0.055,-0.119 -0.12,-0.119 H 15.604 z"
               id="path3840" /></g><g
             id="g3842"><linearGradient
               id="linearGradient4607"
               gradientUnits="userSpaceOnUse"
               x1="33.285599"
               y1="98.6213"
               x2="33.285599"
               y2="108.4945"><stop
                 offset="0"
                 style="stop-color:#DF0000"
                 id="stop4609" /><stop
                 offset="1"
                 style="stop-color:#A00404"
                 id="stop4611" /></linearGradient><path
               style="fill:url(#SVGID_15_-9);fill-rule:evenodd"
               inkscape:connector-curvature="0"
               clip-rule="evenodd"
               d="m 49.629,101.81 c 0,0.263 -0.216,0.479 -0.479,0.479 H 17.42 c -0.263,0 -0.478,-0.216 -0.478,-0.479 V 85.238 c 0,-0.264 0.215,-0.479 0.478,-0.479 h 31.731 c 0.263,0 0.479,0.215 0.479,0.479 v 16.572 z"
               id="path3849" /><path
               style="opacity:0.4;fill:#ffffff;fill-rule:evenodd"
               inkscape:connector-curvature="0"
               clip-rule="evenodd"
               d="m 17.542,100.894 c 0.002,-0.48 0.034,-14.263 0.034,-14.263 0,0 -0.242,-1.011 0.957,-1.011 1.595,0 28.873,-0.086 29.985,0 -1.037,0.205 -28.629,-0.002 -29.905,1.116 -1.277,1.117 -0.838,13.398 -1.071,14.158 z"
               id="path3851" /></g><linearGradient
             id="linearGradient4615"
             gradientUnits="userSpaceOnUse"
             x1="33.2915"
             y1="98.797096"
             x2="33.2915"
             y2="101.6241"><stop
               offset="0"
               style="stop-color:#DF0000"
               id="stop4617" /><stop
               offset="1"
               style="stop-color:#A00404"
               id="stop4619" /></linearGradient><path
             style="fill:url(#SVGID_16_-9);fill-rule:evenodd"
             inkscape:connector-curvature="0"
             clip-rule="evenodd"
             d="m 48.956,100.951 c 0,0.395 -0.323,0.717 -0.718,0.717 H 18.344 c -0.395,0 -0.718,-0.322 -0.718,-0.717 v -1.497 c 0,-0.395 0.323,-0.718 0.718,-0.718 h 29.894 c 0.395,0 0.718,0.323 0.718,0.718 v 1.497 z"
             id="path3858" /><g
             id="g3860"><g
               id="g3862"><path
                 style="fill:#ffffff;fill-rule:evenodd"
                 inkscape:connector-curvature="0"
                 clip-rule="evenodd"
                 d="m 15.918,110.221 c -0.724,-2.574 -0.832,-5.163 -0.316,-7.767 1.755,-8.812 9.448,-14.86 18.484,-14.54 8.661,0.304 15.925,7.001 17.073,15.738 1.33,10.12 -6.207,19.444 -16.391,20.21 -4.353,0.328 -8.509,-0.396 -12.245,-2.797 -2.587,-1.66 -4.484,-3.89 -5.183,-6.972 -1.157,-5.054 2.925,-12.043 10.583,-10.413 3.146,0.666 5.384,3.548 5.41,6.748 0.028,3.175 -2.098,6.032 -5.063,6.798 -0.954,0.241 -1.906,0.303 -2.93,-0.051 1.044,-0.938 1.49,-2.054 1.315,-3.381 -0.258,-1.918 -2.005,-3.35 -3.931,-3.258 -1.872,0.083 -3.561,1.843 -3.661,3.853 -0.109,2.199 0.915,3.877 2.654,5.071 6.136,4.214 14.432,1.193 16.379,-5.883 1.199,-4.368 0.351,-8.279 -3.087,-11.357 -3.378,-3.024 -7.339,-3.977 -11.628,-2.268 -4.301,1.715 -6.789,4.984 -7.379,9.627 -0.025,0.218 -0.059,0.425 -0.084,0.642 z"
                 id="path3864" /></g><g
               id="g3866"><path
                 style="fill:#3f3f3f;fill-rule:evenodd"
                 inkscape:connector-curvature="0"
                 clip-rule="evenodd"
                 d="M 51.16,103.653 C 50.012,94.916 42.748,88.218 34.087,87.915 c -9.037,-0.32 -16.729,5.729 -18.484,14.54 -0.102,0.513 -0.172,1.023 -0.225,1.535 h 2.712 c 1.249,-1.762 3.006,-3.125 5.292,-4.036 4.29,-1.709 8.25,-0.757 11.628,2.268 0.628,0.562 1.167,1.153 1.626,1.769 h 14.551 c -0.014,-0.115 -0.013,-0.225 -0.027,-0.338 z"
                 id="path3868" /><path
                 style="fill:#3f3f3f;fill-rule:evenodd"
                 inkscape:connector-curvature="0"
                 clip-rule="evenodd"
                 d="m 22.692,103.99 h 6.232 c -0.323,-0.125 -0.654,-0.235 -1,-0.309 -2,-0.426 -3.75,-0.254 -5.232,0.309 z"
                 id="path3870" /></g><path
               style="fill:#cccccc;fill-rule:evenodd"
               inkscape:connector-curvature="0"
               clip-rule="evenodd"
               d="m 15.563,102.687 c -0.025,0.136 -0.047,0.271 -0.069,0.407 h 3.316 c 1,-1.126 2.255,-2.049 3.76,-2.761 0.268,-0.14 0.537,-0.271 0.811,-0.38 4.29,-1.709 8.25,-0.757 11.628,2.268 0.303,0.271 0.577,0.55 0.84,0.834 l 15.208,0.021 c -0.021,-0.129 -0.044,-0.257 -0.067,-0.385 l -0.001,-0.001 c -0.191,-1.03 -0.469,-2.028 -0.823,-2.987 -0.002,-0.005 -0.003,-0.009 -0.005,-0.014 -0.175,-0.471 -0.368,-0.932 -0.578,-1.383 -0.008,-0.015 -0.015,-0.03 -0.022,-0.046 -0.206,-0.438 -0.43,-0.866 -0.668,-1.284 -0.017,-0.029 -0.033,-0.058 -0.05,-0.086 -0.232,-0.401 -0.48,-0.794 -0.741,-1.175 -0.03,-0.044 -0.062,-0.088 -0.093,-0.132 -0.253,-0.362 -0.518,-0.715 -0.795,-1.056 -0.049,-0.061 -0.1,-0.118 -0.148,-0.178 -0.268,-0.32 -0.543,-0.632 -0.83,-0.933 -0.072,-0.075 -0.146,-0.146 -0.219,-0.22 -0.275,-0.278 -0.557,-0.549 -0.849,-0.809 -0.098,-0.087 -0.2,-0.168 -0.3,-0.253 -0.277,-0.236 -0.559,-0.468 -0.851,-0.687 -0.127,-0.096 -0.259,-0.184 -0.389,-0.276 -0.275,-0.195 -0.553,-0.389 -0.839,-0.569 -0.16,-0.1 -0.325,-0.19 -0.488,-0.285 -0.269,-0.157 -0.536,-0.315 -0.813,-0.458 -0.194,-0.101 -0.395,-0.188 -0.593,-0.281 -0.257,-0.121 -0.513,-0.246 -0.776,-0.354 -0.23,-0.096 -0.468,-0.175 -0.703,-0.26 -0.242,-0.089 -0.482,-0.183 -0.729,-0.261 -0.271,-0.085 -0.549,-0.151 -0.824,-0.223 -0.222,-0.058 -0.439,-0.125 -0.664,-0.174 -0.328,-0.072 -0.664,-0.122 -0.999,-0.175 -0.18,-0.028 -0.355,-0.068 -0.536,-0.092 -0.52,-0.065 -1.046,-0.109 -1.577,-0.128 -9.037,-0.32 -16.729,5.729 -18.484,14.54 -0.017,0.081 -0.026,0.159 -0.04,0.236 l 0,0 z"
               id="path3872" /><path
               style="fill:#ffffff;fill-rule:evenodd"
               inkscape:connector-curvature="0"
               clip-rule="evenodd"
               d="M 49.629,101.81 V 98.408 C 46.846,92.366 40.906,88.154 34.086,87.915 26.534,87.647 19.935,91.837 16.941,98.361 v 3.449 c 0,0.263 0.215,0.479 0.478,0.479 h 2.176 c 1.049,-0.954 2.301,-1.743 3.785,-2.335 4.29,-1.709 8.25,-0.757 11.628,2.268 0.024,0.022 0.046,0.045 0.07,0.067 h 14.071 c 0.265,-0.001 0.48,-0.216 0.48,-0.479 z"
               id="path3874" /><linearGradient
               id="linearGradient4630"
               gradientUnits="userSpaceOnUse"
               x1="33.2915"
               y1="98.5784"
               x2="33.2915"
               y2="101.7542"><stop
                 offset="0"
                 style="stop-color:#000000;stop-opacity:0"
                 id="stop4632" /><stop
                 offset="1"
                 style="stop-color:#000404;stop-opacity:0.4"
                 id="stop4634" /></linearGradient><path
               style="fill:url(#SVGID_17_-5);fill-rule:evenodd"
               inkscape:connector-curvature="0"
               clip-rule="evenodd"
               d="m 48.956,100.951 v -1.497 c 0,-0.395 -0.323,-0.718 -0.718,-0.718 H 18.344 c -0.395,0 -0.718,0.323 -0.718,0.718 v 1.497 c 0,0.395 0.323,0.717 0.718,0.717 h 1.987 c 0.889,-0.678 1.9,-1.256 3.05,-1.715 4.016,-1.6 7.744,-0.867 10.975,1.715 h 13.882 c 0.394,0 0.718,-0.322 0.718,-0.717 z"
               id="path3881" /></g></g><g
           style="opacity:0.3"
           id="g3883"><path
             style="fill:#ffffff;fill-rule:evenodd"
             inkscape:connector-curvature="0"
             clip-rule="evenodd"
             d="m 10.458,129.846 c 0.737,-0.718 1.818,-46.419 1.818,-47.974 0,-1.556 -2.116,-1.795 -2.116,-1.795 l 0.298,49.769 z"
             id="path3885" /><path
             style="fill:#ffffff;fill-rule:evenodd"
             inkscape:connector-curvature="0"
             clip-rule="evenodd"
             d="m 56.029,129.846 c -0.736,-0.718 -1.817,-46.419 -1.817,-47.974 0,-1.556 2.117,-1.795 2.117,-1.795 l -0.3,49.769 z"
             id="path3887" /></g><g
           id="g3889"><linearGradient
             id="linearGradient4641"
             gradientUnits="userSpaceOnUse"
             x1="33.244598"
             y1="80.4963"
             x2="33.244598"
             y2="81.634102"><stop
               offset="0"
               style="stop-color:#700000;stop-opacity:0"
               id="stop4643" /><stop
               offset="1"
               style="stop-color:#700000"
               id="stop4645" /></linearGradient><path
             style="opacity:0.5;fill:url(#SVGID_18_);fill-rule:evenodd"
             inkscape:connector-curvature="0"
             clip-rule="evenodd"
             d="m 12.275,81.872 c 0,0.038 0,0.119 -0.001,0.238 h 41.939 c -0.002,-0.119 -0.002,-0.2 -0.002,-0.238 0,-1.556 2.117,-1.795 2.117,-1.795 H 10.159 c 0,0 2.116,0.24 2.116,1.795 z"
             id="path3896" /></g><path
           style="fill:#870000;fill-rule:evenodd"
           inkscape:connector-curvature="0"
           clip-rule="evenodd"
           d="m 8.745,133.203 c -0.291,0 -0.528,-0.431 -0.528,-0.958 V 78.644 c 0,-0.526 0.431,-0.956 0.957,-0.956 h 48.223 c 0.527,0 0.957,0.43 0.957,0.956 v 53.602 c 0,0.527 -0.24,0.958 -0.535,0.958 -0.295,0 -0.536,-0.431 -0.536,-0.958 V 80.054 c 0,-0.527 -0.431,-0.957 -0.957,-0.957 H 10.229 c -0.526,0 -0.957,0.43 -0.957,0.957 v 52.191 c 10e-4,0.528 -0.237,0.958 -0.527,0.958 z"
           id="path3898" /><path
           style="fill:#490000"
           inkscape:connector-curvature="0"
           d="M 57.397,134.632 H 9.174 c -0.924,0 -1.675,-0.752 -1.675,-1.674 V 78.882 c 0,-0.923 0.751,-1.674 1.675,-1.674 h 48.223 c 0.924,0 1.676,0.751 1.676,1.674 v 54.076 c 0,0.922 -0.752,1.674 -1.676,1.674 z M 9.174,78.644 c -0.13,0 -0.24,0.108 -0.24,0.238 v 54.076 c 0,0.129 0.11,0.238 0.24,0.238 h 48.223 c 0.131,0 0.24,-0.109 0.24,-0.238 V 78.882 c 0,-0.13 -0.109,-0.238 -0.24,-0.238 H 9.174 z"
           id="path3900" /></g></g></g></svg>