<?xml version="1.0" encoding="utf-8"?>
<!-- Generator: Adobe Illustrator 16.0.0, SVG Export Plug-In . SVG Version: 6.00 Build 0)  -->
<!DOCTYPE svg PUBLIC "-//W3C//DTD SVG 1.1//EN" "http://www.w3.org/Graphics/SVG/1.1/DTD/svg11.dtd">
<svg version="1.1" xmlns="http://www.w3.org/2000/svg" xmlns:xlink="http://www.w3.org/1999/xlink" 
	 viewBox="0 0 250.886 396.549" enable-background="new 0 0 250.886 396.549"
	 xml:space="preserve">
<g id="Layer_2">
	<g>
		<path opacity="0.1" d="M250.835,289.417l0.051-1.492l-1.628,0.768c-2.063,1.24-4.06,2.555-5.989,3.942
			c0.906-8.938-0.741-16.198-4.798-21.084c-1.465-5.297-5.459-10.092-10.459-12.542l-2.461-1.207l0.923,2.163
			c0.389,0.912,0.672,1.887,0.841,2.88c-0.906-0.495-1.826-0.937-2.753-1.354c0.21-6.138,0.78-12.287,1.276-16.739
			c9.813-3.452,10.793-7.612,2.939-12.479l-2.613-5.371l-2.04,5.065c-1.291,0.212-2.497,0.66-3.519,1.319
			c-1.196-1.954-3.453-3.373-6.11-3.895l-2.417-4.97l-1.992,4.947c-2.07,0.396-3.906,1.341-5.197,2.691
			c-1.003-0.86-2.274-1.477-3.683-1.806l-2.596-5.343l-2.159,5.356c-7.984,4.342-7.73,8.511,0.761,12.506
			c0.331,4.846,0.202,10.169-0.064,15.122c-3.574-7.534-6.767-15.186-9.578-22.958c2.628-2.505,4.87-5.865,6.358-9.533
			c3.445-2.934,7.167-6.604,8.929-11.601l1.151-3.265l-2.92,2.489c-0.446,0.379-0.947,0.736-1.476,1.08
			c1.276-2.179,2.242-4.646,2.777-7.173l0.545-2.576l-2.319,1.869c-1.723,1.476-3.518,2.884-5.384,4.227
			c-0.681-2.399-1.869-4.471-3.483-6.19c6.082-4.052,9.201-7.205,10.73-9.532c0.471,2.07,1.139,4.538,2.003,6.574l0.509,1.204
			l1.185-0.861c4.14-3.007,6.192-9.004,7.132-12.918c7.581,17.117,5.38-10.907,3.644-14.903c1.707,0.467,4.548,1.494,8.021,3.711
			l1.699,1.084v-1.721c0-3.352-4.412-8.126-6.781-10.449h5.529l-0.73-1.179c-0.183-0.297-4.26-6.763-11.91-11.066l0.139-1.492
			c0.264-2.781,0.411-5.547,0.651-8.295h-0.001l0.002-0.01l-2.078-0.11c0,0.003,0,0.006,0,0.01l0,0l-0.184,0.872
			c-0.028,0.145-0.047,0.292-0.123,0.436l-0.184,0.434l-0.181,0.436c-0.05,0.147-0.152,0.285-0.232,0.428l-0.502,0.849l-0.603,0.824
			c-0.03,0.044-0.068,0.086-0.102,0.129l0.751-11.199l0.275-4.119l-2.259,3.727c-2.53,4.172-5.348,8.035-8.142,12.051
			c-7.281-1.948-14.537-3.965-21.767-6.054c-18.26-6.613-19.887-18.936-18.644-31.229c0.005-0.014,0.011-0.035,0.011-0.035
			l-0.007-0.001c1.302-12.833,10.538-31.902-18.616-31.542c-0.964-7.013-28.093-7.011-29.058,0
			c-40.957-0.507-2.161,50.094-37.203,62.789c-8.309,2.333-16.614,4.678-24.915,7.032l-6.841-12.978l-2.323-4.405l0.319,4.763
			l0.771,11.487c-0.022-0.019-0.045-0.037-0.066-0.057l-0.566-0.482c-0.197-0.155-0.421-0.295-0.63-0.444l-1.281-0.875l-1.979-1.353
			l0.316,2.069l0.616,4.031c0.098,0.673,0.198,1.345,0.384,2.003l0.271,1.1c-6.791,4.262-10.403,9.997-10.575,10.276l-0.729,1.179
			h5.529c-2.37,2.322-6.781,7.097-6.781,10.449v1.721l1.697-1.084c3.477-2.218,6.316-3.246,8.022-3.712
			c-1.734,3.992-3.946,32.023,3.645,14.904c0.938,3.914,2.991,9.911,7.131,12.918l1.186,0.861l0.51-1.204
			c0.862-2.036,1.53-4.504,2-6.574c1.371,2.084,4.021,4.834,8.926,8.295c-2.28,4.12-3.177,8.163-2.63,12.071
			c-1.319-0.635-2.59-1.339-3.813-2.11l-4.118-3.3l2.426,4.213c2.412,4.189,5.917,7.25,9.049,9.692
			c1.516,2.152,3.524,4.304,5.975,6.399c-2.794,9.03-6.343,17.825-10.647,26.385c-0.21-4.51-0.284-9.25,0.014-13.604
			c8.489-3.996,8.742-8.165,0.76-12.506l-2.157-5.356l-2.6,5.343c-1.406,0.329-2.678,0.945-3.682,1.806
			c-1.29-1.351-3.126-2.296-5.195-2.691l-1.992-4.947l-2.418,4.97c-2.657,0.521-4.915,1.94-6.111,3.895
			c-1.021-0.659-2.226-1.107-3.517-1.318l-2.042-5.066l-2.612,5.371c-7.856,4.866-6.876,9.026,2.938,12.479
			c0.488,4.379,1.049,10.401,1.267,16.439c-6.416,2.728-11.525,6.55-15.327,11.466c-0.561-1.299-1.07-2.652-1.537-3.892
			l-0.819-2.174l-1.208,1.684c-4.592,6.401-5.224,16.174-1.892,23.393c-1.245-1.105-2.374-2.457-3.376-4.047L0,281.127l2.147,7.05
			c2.468,11.36,7.755,21.86,15.859,31.5c10.276,18.383,25.047,29.325,39.409,29.159c9.481,6.397,19.347,12.339,29.597,17.821
			l-0.009,0.303l0.159-0.234c3.907,1.768,8.02,3.311,12.483,4.548c3.695,8.321,9.174,15.897,14.898,21.785l3.393,3.49l-1.565-4.219
			c-1.584-4.269-2.309-8.078-2.162-11.359c4.943,4.776,12.892,7.091,19.021,8.204l1.869,0.34l1.16,2.763l0.54-3.699
			c0.1-0.689,0.225-1.375,0.353-2.06c5.372,0.729,10.653,0.155,15.842-1.719l1.614-0.601l-1.46-0.811
			c-1.351-1.052-2.576-2.196-3.677-3.435c3.896,0.441,7.21,0.052,9.909-1.098c4.232,2.52,8.77,4.743,13.525,6.614l6.803,2.675
			l-5.637-4.016c-2.318-1.652-4.376-3.354-6.173-5.104l1.669-1.831c4.951-5.429,7.359-11.252,8.1-17.197
			c5.557-3.521,11.063-7.099,16.52-10.733l0.017,0.013c0,0,0.05-0.042,0.121-0.104c0.173-0.114,0.337-0.225,0.51-0.338
			c13.362,0.166,26.896-9.145,37.176-25.404c5.813-4.313,12.894-12.173,14.852-18.498l0.16-0.124l-0.027-0.296l0.689-2.369
			l-1.983,1.419h-0.205l-0.307,0.249c-0.107,0.086-0.17,0.177-0.214,0.263c-0.294,0.202-0.576,0.386-0.84,0.54
			C248.332,300.076,250.684,293.927,250.835,289.417z M164.333,375.045c1.072-1.396,1.896-3.071,2.453-5.017
			c0.464,2.104,0.767,4.344,0.896,6.725l0.12,2.178C166.506,377.661,165.354,376.364,164.333,375.045
			C165.405,373.648,165.354,376.364,164.333,375.045z M131.98,385.28c0.487,0.172,0.988,0.325,1.495,0.468
			c0.325,0.729,0.658,1.489,0.996,2.286l-0.229-0.202C133.366,387.056,132.679,386.193,131.98,385.28
			C132.468,385.452,132.679,386.193,131.98,385.28z"/>
		<g>
			<g>
				<polygon fill="#132A3A" stroke="#061016" stroke-miterlimit="10" points="28.271,192.562 30.585,186.514 32.502,192.562 				"/>
				<polygon fill="#132A3A" stroke="#061016" stroke-miterlimit="10" points="41.791,189.538 44.105,183.489 46.022,189.538 				"/>
				<polygon fill="#132A3A" stroke="#061016" stroke-miterlimit="10" points="54.719,190.136 57.034,184.087 58.951,190.136 				"/>
				<linearGradient id="SVGID_1_" gradientUnits="userSpaceOnUse" x1="43.9067" y1="41.7783" x2="43.9067" y2="406.2934">
					<stop  offset="0.0114" style="stop-color:#93AFC6"/>
					<stop  offset="1" style="stop-color:#6B7A9A"/>
				</linearGradient>
				<path fill="url(#SVGID_1_)" stroke="#25363D" stroke-width="2" stroke-miterlimit="10" d="M63.718,196.642
					c0-3.802-3.082-6.884-6.883-6.884c-2.483,0-4.652,1.319-5.863,3.29c-1.307-2.545-3.953-4.29-7.011-4.29
					c-3.646,0-6.706,2.479-7.606,5.842c-1.262-1.578-3.199-2.592-5.376-2.592c-3.802,0-6.883,3.082-6.883,6.884
					c0,3.801,3.082,6.883,6.883,6.883c0.297,0,0.587-0.025,0.875-0.062c0.977,10.838,2.227,29.366,0.649,40.629
					c-2.333,16.666,24.333-1.541,25.667-1.938c1.17-0.348-1.766-23.545-0.701-40.912C60.973,203.173,63.718,200.229,63.718,196.642z
					"/>
				<g>
					<path fill="#B8CEDD" d="M25.135,199.78c0,0-0.002-0.238-0.006-0.654c-0.008-0.208-0.006-0.459,0.038-0.751
						c0.035-0.292,0.055-0.629,0.159-0.979c0.044-0.178,0.091-0.362,0.139-0.554c0.073-0.185,0.149-0.375,0.228-0.571
						c0.069-0.203,0.175-0.393,0.293-0.585c0.122-0.188,0.211-0.408,0.373-0.581c0.15-0.182,0.298-0.374,0.463-0.556
						c0.185-0.164,0.373-0.329,0.562-0.496c0.412-0.291,0.856-0.571,1.349-0.745c0.239-0.114,0.492-0.172,0.747-0.229
						c0.253-0.061,0.508-0.126,0.765-0.132c0.255-0.016,0.513-0.05,0.764-0.047c0.251,0.016,0.499,0.032,0.742,0.048
						c0.486,0.043,0.941,0.162,1.377,0.256c0.416,0.142,0.824,0.258,1.179,0.404c0.703,0.307,1.28,0.59,1.651,0.831
						c0.385,0.227,0.605,0.355,0.605,0.355l-1.19,1.607c0,0-0.174-0.135-0.479-0.372c-0.297-0.257-0.752-0.556-1.316-0.9
						c-0.284-0.164-0.607-0.3-0.944-0.471c-0.347-0.121-0.716-0.275-1.107-0.362c-0.198-0.04-0.399-0.081-0.602-0.122
						c-0.205-0.031-0.412-0.026-0.623-0.043c-0.214-0.027-0.421,0.002-0.633,0.024c-0.213,0.018-0.429,0.035-0.631,0.104
						c-0.423,0.085-0.815,0.269-1.197,0.465c-0.18,0.12-0.357,0.24-0.533,0.357c-0.161,0.138-0.31,0.288-0.465,0.43
						c-0.166,0.132-0.266,0.318-0.399,0.473c-0.13,0.158-0.251,0.319-0.337,0.496c-0.097,0.172-0.191,0.339-0.282,0.501
						c-0.068,0.174-0.134,0.342-0.198,0.503c-0.145,0.321-0.204,0.634-0.275,0.911c-0.08,0.274-0.116,0.525-0.135,0.733
						C25.164,199.544,25.135,199.78,25.135,199.78z"/>
				</g>
				<g>
					<linearGradient id="SVGID_2_" gradientUnits="userSpaceOnUse" x1="37.0776" y1="41.7788" x2="37.0776" y2="406.2912">
						<stop  offset="0.0114" style="stop-color:#93AFC6"/>
						<stop  offset="1" style="stop-color:#6B7A9A"/>
					</linearGradient>
					<path fill="url(#SVGID_2_)" d="M36.455,194.4c0,0-1.794,3.421,1.706,8.921"/>
					<path fill="#25363D" d="M37.362,194.821c0,0-0.019,0.032-0.053,0.092c-0.044,0.072-0.058,0.117-0.102,0.2
						c-0.088,0.13-0.183,0.462-0.303,0.82c-0.038,0.194-0.078,0.404-0.121,0.626c-0.061,0.223-0.056,0.469-0.07,0.725
						c-0.006,0.255-0.037,0.522-0.025,0.795c0.029,0.274,0.059,0.552,0.088,0.831c0.035,0.279,0.039,0.57,0.129,0.837
						c0.071,0.273,0.141,0.542,0.208,0.803c0.071,0.261,0.128,0.521,0.205,0.759c0.097,0.231,0.188,0.449,0.272,0.65
						c0.342,0.817,0.57,1.362,0.57,1.362s-0.339-0.487-0.847-1.218c-0.128-0.186-0.268-0.386-0.415-0.599
						c-0.129-0.222-0.243-0.47-0.374-0.722c-0.128-0.255-0.26-0.52-0.395-0.788c-0.153-0.264-0.225-0.563-0.327-0.855
						c-0.097-0.296-0.193-0.593-0.289-0.885c-0.078-0.298-0.112-0.604-0.167-0.898c-0.047-0.295-0.109-0.582-0.1-0.863
						c-0.005-0.282-0.011-0.549-0.015-0.795c0.051-0.505,0.074-0.905,0.181-1.254c0.09-0.354,0.134-0.463,0.134-0.463
						L37.362,194.821z"/>
				</g>
				<g>
					<path fill="#B8CEDD" d="M50.81,193.333c0,0,0.192-0.148,0.529-0.406c0.155-0.128,0.381-0.288,0.669-0.471
						c0.276-0.185,0.587-0.388,0.938-0.56c0.34-0.194,0.729-0.37,1.152-0.532c0.41-0.182,0.885-0.293,1.359-0.418
						c0.49-0.095,0.996-0.172,1.525-0.166c0.26-0.024,0.528,0.028,0.792,0.054c0.266,0.017,0.527,0.078,0.784,0.163
						c0.259,0.072,0.515,0.144,0.749,0.28c0.232,0.131,0.488,0.211,0.685,0.389c0.205,0.161,0.416,0.309,0.603,0.476
						c0.167,0.186,0.331,0.37,0.493,0.551c0.295,0.376,0.531,0.778,0.727,1.157c0.156,0.401,0.352,0.758,0.44,1.118
						c0.097,0.355,0.185,0.681,0.263,0.97c0.046,0.294,0.086,0.55,0.119,0.761c0.063,0.419,0.099,0.659,0.099,0.659
						s-0.066-0.233-0.183-0.641c-0.059-0.202-0.131-0.448-0.213-0.729c-0.112-0.27-0.238-0.574-0.376-0.906
						c-0.128-0.334-0.361-0.649-0.552-1.002c-0.229-0.329-0.49-0.665-0.793-0.962c-0.16-0.139-0.323-0.28-0.488-0.422
						c-0.179-0.121-0.374-0.22-0.559-0.332c-0.177-0.129-0.404-0.16-0.602-0.244c-0.198-0.088-0.417-0.116-0.631-0.146
						c-0.212-0.043-0.426-0.066-0.645-0.048c-0.217,0.009-0.428-0.012-0.643,0.04c-0.427,0.048-0.836,0.169-1.227,0.298
						c-0.383,0.161-0.759,0.294-1.087,0.498c-0.336,0.182-0.644,0.37-0.912,0.575c-0.283,0.186-0.505,0.381-0.701,0.55
						c-0.195,0.157-0.372,0.317-0.525,0.479c-0.3,0.3-0.472,0.471-0.472,0.471L50.81,193.333z"/>
				</g>
				<g>
					<linearGradient id="SVGID_3_" gradientUnits="userSpaceOnUse" x1="50.3062" y1="41.7793" x2="50.3061" y2="406.2917">
						<stop  offset="0.0114" style="stop-color:#93AFC6"/>
						<stop  offset="1" style="stop-color:#6B7A9A"/>
					</linearGradient>
					<path fill="url(#SVGID_3_)" d="M50.929,192.898c0,0,1.794,3.421-1.706,8.921"/>
					<path fill="#25363D" d="M51.836,192.478c0,0,0.044,0.109,0.134,0.463c0.107,0.349,0.13,0.749,0.181,1.254
						c-0.004,0.246-0.01,0.513-0.015,0.795c0.009,0.281-0.053,0.568-0.1,0.863c-0.055,0.294-0.088,0.6-0.167,0.898
						c-0.095,0.292-0.192,0.589-0.289,0.885c-0.102,0.292-0.174,0.592-0.327,0.855c-0.134,0.268-0.267,0.532-0.395,0.788
						c-0.13,0.252-0.244,0.5-0.373,0.722c-0.147,0.213-0.287,0.414-0.415,0.599c-0.508,0.73-0.847,1.218-0.847,1.218
						s0.228-0.545,0.57-1.362c0.084-0.201,0.175-0.419,0.271-0.65c0.078-0.238,0.134-0.498,0.206-0.759
						c0.067-0.261,0.138-0.53,0.208-0.803c0.09-0.267,0.094-0.558,0.129-0.837c0.029-0.278,0.059-0.557,0.088-0.831
						c0.012-0.273-0.019-0.541-0.025-0.795c-0.014-0.255-0.009-0.501-0.07-0.725c-0.043-0.222-0.083-0.433-0.121-0.626
						c-0.121-0.358-0.215-0.69-0.303-0.82c-0.043-0.083-0.057-0.128-0.102-0.2c-0.035-0.06-0.053-0.092-0.053-0.092L51.836,192.478z
						"/>
				</g>
				<path opacity="0.6" fill="#4A5B77" d="M37.166,252.357h0.001c5.49,0,14.703-5.446,18.638-7.771
					c0.81-0.479,1.285-0.759,1.599-0.926c0.159-1.244-0.104-5.72-0.358-10.059c-0.333-5.675-0.746-12.745-0.806-19.771
					c-7.705,0.48-15.736,1.779-22.46,4.332c0.552,9.576,0.79,20.636-0.287,28.318c-0.32,2.285-0.075,3.913,0.729,4.837
					C34.83,252.017,35.792,252.357,37.166,252.357z"/>
				<g>
					<path fill="#B8CEDD" d="M36.978,198.06c0,0-0.015-0.084-0.042-0.243c-0.02-0.159-0.085-0.388-0.101-0.688
						c-0.004-0.3-0.047-0.692,0.018-1.116c0.033-0.432,0.126-0.922,0.304-1.437c0.174-0.515,0.41-1.077,0.783-1.595
						c0.349-0.535,0.803-1.053,1.351-1.498c0.545-0.448,1.174-0.835,1.858-1.132c0.691-0.274,1.425-0.478,2.176-0.558
						c0.187-0.032,0.375-0.026,0.563-0.037l0.281-0.01l0.07-0.002l0.035-0.001l0.018,0l0.11,0.004l0.125,0.013
						c0.331,0.038,0.66,0.075,0.987,0.112c0.298,0.001,0.739,0.181,1.095,0.292c0.376,0.122,0.74,0.248,1.036,0.456
						c0.304,0.196,0.629,0.348,0.889,0.577c0.245,0.244,0.484,0.483,0.717,0.716c0.24,0.221,0.377,0.52,0.548,0.768
						c0.155,0.261,0.319,0.5,0.395,0.772c0.195,0.52,0.364,0.986,0.381,1.432c0.054,0.434,0.103,0.8,0.048,1.111
						c-0.062,0.613-0.119,0.941-0.119,0.941s-0.114-0.338-0.276-0.891c-0.052-0.282-0.236-0.592-0.388-0.946
						c-0.129-0.366-0.408-0.709-0.651-1.091c-0.106-0.202-0.293-0.357-0.463-0.528c-0.183-0.158-0.303-0.38-0.526-0.508
						c-0.203-0.142-0.412-0.287-0.625-0.436c-0.224-0.125-0.475-0.22-0.71-0.337c-0.235-0.14-0.488-0.183-0.733-0.235l-0.367-0.092
						c-0.105-0.047-0.26-0.064-0.434-0.069c-0.328-0.023-0.659-0.046-0.992-0.069l-0.125-0.01c-0.086-0.004,0.109,0.004,0.086,0.004
						l-0.007,0l-0.014,0.001l-0.027,0.001l-0.055,0.003l-0.219,0.013c-0.146,0.011-0.293,0.007-0.436,0.035
						c-0.583,0.051-1.146,0.206-1.693,0.375c-0.53,0.211-1.058,0.426-1.513,0.737c-0.449,0.312-0.884,0.633-1.233,1.012
						c-0.187,0.18-0.342,0.376-0.493,0.571c-0.167,0.184-0.29,0.389-0.419,0.582c-0.242,0.394-0.455,0.778-0.602,1.14
						c-0.168,0.36-0.259,0.682-0.362,0.957C37.069,197.731,36.978,198.06,36.978,198.06z"/>
				</g>
			</g>
			<g>
				<polygon fill="#132A3A" stroke="#061016" stroke-miterlimit="10" points="224.476,192.562 222.161,186.514 220.244,192.562 				
					"/>
				<polygon fill="#132A3A" stroke="#061016" stroke-miterlimit="10" points="210.955,189.538 208.641,183.489 206.724,189.538 				
					"/>
				<polygon fill="#132A3A" stroke="#061016" stroke-miterlimit="10" points="198.027,190.136 195.713,184.087 193.795,190.136 				
					"/>
				<linearGradient id="SVGID_4_" gradientUnits="userSpaceOnUse" x1="208.8389" y1="41.7783" x2="208.8389" y2="406.2934">
					<stop  offset="0.0114" style="stop-color:#93AFC6"/>
					<stop  offset="1" style="stop-color:#6B7A9A"/>
				</linearGradient>
				<path fill="url(#SVGID_4_)" stroke="#25363D" stroke-width="2" stroke-miterlimit="10" d="M189.027,196.642
					c0-3.802,3.082-6.884,6.884-6.884c2.483,0,4.652,1.319,5.862,3.29c1.308-2.545,3.953-4.29,7.012-4.29
					c3.646,0,6.706,2.479,7.606,5.842c1.262-1.578,3.199-2.592,5.376-2.592c3.803,0,6.884,3.082,6.884,6.884
					c0,3.801-3.081,6.883-6.884,6.883c-0.297,0-0.587-0.025-0.874-0.062c-0.977,10.838-2.227,29.366-0.649,40.629
					c2.334,16.666-24.334-1.541-25.666-1.938c-1.17-0.348,1.766-23.545,0.7-40.912C191.773,203.173,189.027,200.229,189.027,196.642
					z"/>
				<path opacity="0.6" fill="#4A5B77" d="M196.511,213.465c-0.05,7.146-0.472,14.362-0.81,20.136
					c-0.255,4.339-0.517,8.815-0.357,10.06c0.312,0.167,0.788,0.447,1.597,0.925c3.935,2.326,13.149,7.772,18.641,7.772
					c1.372,0,2.335-0.34,2.943-1.04c0.804-0.924,1.05-2.552,0.729-4.837c-1.045-7.46-0.852-18.103-0.334-27.481
					C211.731,216.53,203.95,214.062,196.511,213.465z"/>
				<g>
					<path fill="#B8CEDD" d="M227.64,199.78c0,0-0.029-0.236-0.08-0.649c-0.019-0.208-0.055-0.458-0.135-0.733
						c-0.071-0.277-0.13-0.59-0.275-0.911c-0.063-0.161-0.129-0.33-0.198-0.503c-0.091-0.162-0.185-0.33-0.282-0.501
						c-0.086-0.177-0.207-0.337-0.337-0.496c-0.133-0.154-0.233-0.34-0.399-0.473c-0.155-0.142-0.304-0.292-0.465-0.43
						c-0.176-0.118-0.354-0.237-0.533-0.357c-0.382-0.196-0.773-0.38-1.197-0.465c-0.202-0.069-0.418-0.086-0.631-0.104
						c-0.212-0.022-0.42-0.051-0.634-0.024c-0.211,0.017-0.418,0.013-0.622,0.043c-0.204,0.041-0.405,0.082-0.603,0.122
						c-0.392,0.087-0.761,0.242-1.107,0.362c-0.337,0.171-0.66,0.308-0.944,0.471c-0.564,0.344-1.02,0.643-1.316,0.9
						c-0.304,0.236-0.478,0.372-0.478,0.372l-1.191-1.607c0,0,0.221-0.129,0.605-0.355c0.371-0.241,0.948-0.524,1.651-0.831
						c0.355-0.146,0.764-0.263,1.18-0.404c0.436-0.094,0.891-0.213,1.377-0.256c0.244-0.016,0.491-0.032,0.742-0.048
						c0.251-0.003,0.509,0.031,0.764,0.047c0.256,0.006,0.511,0.071,0.765,0.132c0.254,0.056,0.507,0.114,0.746,0.229
						c0.493,0.173,0.938,0.454,1.35,0.745c0.188,0.167,0.377,0.332,0.562,0.496c0.165,0.182,0.313,0.375,0.464,0.556
						c0.162,0.173,0.251,0.393,0.373,0.582c0.118,0.191,0.225,0.382,0.293,0.584c0.078,0.196,0.154,0.387,0.229,0.571
						c0.048,0.192,0.094,0.377,0.138,0.554c0.105,0.349,0.125,0.687,0.159,0.979c0.044,0.292,0.046,0.543,0.038,0.751
						C227.642,199.542,227.64,199.78,227.64,199.78z"/>
				</g>
				<g>
					<path fill="#B8CEDD" d="M200.646,194.837c0,0-0.172-0.171-0.472-0.471c-0.153-0.163-0.33-0.322-0.525-0.479
						c-0.196-0.169-0.418-0.365-0.7-0.55c-0.269-0.205-0.575-0.393-0.911-0.575c-0.328-0.204-0.704-0.337-1.087-0.498
						c-0.392-0.128-0.801-0.25-1.228-0.298c-0.214-0.052-0.426-0.031-0.643-0.04c-0.22-0.018-0.434,0.005-0.645,0.048
						c-0.215,0.03-0.434,0.058-0.632,0.146c-0.198,0.084-0.426,0.115-0.602,0.244c-0.185,0.112-0.38,0.211-0.559,0.332
						c-0.165,0.143-0.328,0.284-0.488,0.422c-0.303,0.298-0.564,0.634-0.793,0.962c-0.19,0.354-0.423,0.668-0.552,1.002
						c-0.138,0.332-0.264,0.636-0.376,0.906c-0.082,0.282-0.153,0.527-0.212,0.729c-0.117,0.408-0.184,0.641-0.184,0.641
						s0.036-0.24,0.1-0.659c0.032-0.211,0.072-0.467,0.118-0.761c0.078-0.289,0.167-0.614,0.263-0.969
						c0.089-0.361,0.284-0.717,0.44-1.119c0.195-0.379,0.432-0.781,0.727-1.157c0.162-0.181,0.326-0.365,0.493-0.551
						c0.187-0.167,0.397-0.315,0.603-0.476c0.196-0.177,0.452-0.258,0.685-0.389c0.233-0.136,0.489-0.208,0.748-0.28
						c0.258-0.085,0.519-0.146,0.784-0.163c0.265-0.026,0.533-0.079,0.793-0.054c0.529-0.007,1.036,0.07,1.525,0.166
						c0.474,0.125,0.949,0.236,1.359,0.418c0.422,0.162,0.812,0.337,1.151,0.532c0.351,0.171,0.662,0.375,0.938,0.56
						c0.288,0.183,0.513,0.343,0.669,0.471c0.336,0.258,0.528,0.406,0.528,0.406L200.646,194.837z"/>
				</g>
				<g>
					<linearGradient id="SVGID_5_" gradientUnits="userSpaceOnUse" x1="215.6689" y1="41.7788" x2="215.6689" y2="406.2912">
						<stop  offset="0.0114" style="stop-color:#93AFC6"/>
						<stop  offset="1" style="stop-color:#6B7A9A"/>
					</linearGradient>
					<path fill="url(#SVGID_5_)" d="M216.291,194.4c0,0,1.795,3.421-1.705,8.921"/>
					<path fill="#25363D" d="M217.198,193.98c0,0,0.044,0.109,0.134,0.463c0.106,0.349,0.13,0.748,0.181,1.254
						c-0.004,0.246-0.01,0.513-0.015,0.795c0.009,0.281-0.053,0.567-0.1,0.863c-0.055,0.294-0.089,0.6-0.167,0.898
						c-0.095,0.292-0.191,0.588-0.288,0.885c-0.103,0.292-0.174,0.592-0.327,0.855c-0.135,0.268-0.267,0.532-0.395,0.788
						c-0.131,0.252-0.244,0.5-0.374,0.722c-0.146,0.213-0.286,0.414-0.414,0.599c-0.509,0.73-0.848,1.218-0.848,1.218
						s0.228-0.545,0.57-1.362c0.084-0.201,0.175-0.419,0.271-0.65c0.077-0.238,0.134-0.498,0.205-0.759
						c0.067-0.261,0.138-0.53,0.209-0.803c0.089-0.268,0.093-0.558,0.128-0.837c0.029-0.278,0.06-0.557,0.088-0.831
						c0.013-0.273-0.019-0.541-0.024-0.795c-0.014-0.255-0.009-0.501-0.07-0.725c-0.043-0.222-0.083-0.433-0.121-0.626
						c-0.12-0.358-0.215-0.69-0.304-0.82c-0.043-0.083-0.057-0.128-0.102-0.2c-0.034-0.06-0.053-0.092-0.053-0.092L217.198,193.98z"
						/>
				</g>
				<g>
					<linearGradient id="SVGID_6_" gradientUnits="userSpaceOnUse" x1="202.4404" y1="41.7793" x2="202.4404" y2="406.2917">
						<stop  offset="0.0114" style="stop-color:#93AFC6"/>
						<stop  offset="1" style="stop-color:#6B7A9A"/>
					</linearGradient>
					<path fill="url(#SVGID_6_)" d="M201.817,192.898c0,0-1.794,3.421,1.706,8.921"/>
					<path fill="#25363D" d="M202.725,193.319c0,0-0.019,0.032-0.053,0.092c-0.045,0.071-0.059,0.117-0.102,0.2
						c-0.089,0.13-0.183,0.462-0.304,0.821c-0.037,0.194-0.078,0.404-0.121,0.626c-0.061,0.223-0.056,0.469-0.069,0.725
						c-0.006,0.255-0.037,0.522-0.025,0.795c0.029,0.274,0.059,0.552,0.089,0.831c0.035,0.279,0.038,0.57,0.128,0.837
						c0.071,0.273,0.142,0.542,0.209,0.803c0.071,0.261,0.128,0.521,0.205,0.759c0.097,0.231,0.188,0.449,0.271,0.65
						c0.343,0.817,0.57,1.362,0.57,1.362s-0.339-0.487-0.848-1.218c-0.128-0.186-0.268-0.386-0.414-0.599
						c-0.13-0.222-0.243-0.47-0.374-0.722c-0.128-0.255-0.26-0.52-0.395-0.788c-0.153-0.264-0.225-0.563-0.327-0.855
						c-0.097-0.296-0.193-0.593-0.289-0.885c-0.078-0.298-0.111-0.604-0.166-0.898c-0.047-0.295-0.109-0.582-0.1-0.863
						c-0.006-0.282-0.011-0.548-0.016-0.794c0.051-0.506,0.074-0.905,0.181-1.254c0.09-0.355,0.134-0.464,0.134-0.464
						L202.725,193.319z"/>
				</g>
				<g>
					<path fill="#B8CEDD" d="M215.798,198.06c0,0-0.092-0.329-0.251-0.904c-0.104-0.275-0.194-0.597-0.362-0.957
						c-0.146-0.362-0.36-0.746-0.602-1.14c-0.13-0.193-0.252-0.398-0.42-0.582c-0.15-0.195-0.306-0.391-0.492-0.571
						c-0.35-0.378-0.784-0.7-1.233-1.012c-0.455-0.311-0.983-0.526-1.513-0.737c-0.547-0.169-1.109-0.325-1.692-0.375
						c-0.144-0.028-0.291-0.023-0.437-0.035l-0.219-0.013l-0.055-0.003l-0.027-0.001l-0.014-0.001l-0.007,0
						c-0.022,0,0.173-0.008,0.086-0.004l-0.124,0.01c-0.332,0.023-0.663,0.046-0.992,0.069c-0.173,0.005-0.327,0.022-0.434,0.069
						l-0.366,0.092c-0.246,0.052-0.498,0.095-0.733,0.235c-0.236,0.118-0.486,0.212-0.711,0.338
						c-0.213,0.148-0.422,0.294-0.625,0.436c-0.223,0.128-0.343,0.35-0.526,0.508c-0.169,0.171-0.356,0.326-0.463,0.528
						c-0.243,0.381-0.522,0.725-0.651,1.09c-0.151,0.354-0.336,0.665-0.389,0.946c-0.161,0.553-0.275,0.891-0.275,0.891
						s-0.057-0.328-0.119-0.941c-0.054-0.311-0.005-0.677,0.049-1.111c0.018-0.446,0.187-0.912,0.382-1.432
						c0.075-0.272,0.239-0.511,0.395-0.772c0.171-0.248,0.309-0.547,0.548-0.768c0.233-0.232,0.473-0.471,0.717-0.716
						c0.26-0.229,0.585-0.38,0.89-0.576c0.295-0.208,0.659-0.334,1.036-0.456c0.355-0.111,0.797-0.291,1.095-0.292
						c0.327-0.037,0.656-0.075,0.987-0.112l0.124-0.013l0.111-0.004l0.018,0l0.035,0.001l0.07,0.002l0.281,0.01
						c0.188,0.011,0.376,0.005,0.562,0.037c0.75,0.08,1.485,0.284,2.176,0.558c0.684,0.297,1.312,0.684,1.858,1.132
						c0.548,0.445,1.002,0.962,1.351,1.498c0.374,0.518,0.609,1.08,0.783,1.595c0.178,0.515,0.271,1.004,0.304,1.436
						c0.065,0.424,0.022,0.816,0.019,1.116c-0.016,0.3-0.081,0.529-0.102,0.688C215.812,197.975,215.798,198.06,215.798,198.06z"/>
				</g>
			</g>
			<g>
				<g>
					<linearGradient id="SVGID_7_" gradientUnits="userSpaceOnUse" x1="126.4351" y1="41.7798" x2="126.435" y2="406.2922">
						<stop  offset="0.0114" style="stop-color:#93AFC6"/>
						<stop  offset="1" style="stop-color:#6B7A9A"/>
					</linearGradient>
					<path fill="url(#SVGID_7_)" stroke="#25363D" stroke-width="2" stroke-miterlimit="10" d="M244.797,261.235
						c-2.704,1.622-4.644,4.445-7.452,5.937c1.158-10.955-0.044-20.842-4.354-27.312c-1.206-5.744-4.68-11.761-9.629-14.844
						c0.636,1.894,0.979,3.921,1.029,5.931c-15.573-12.125-29.806-4.5-29.806-4.5s-2.169-5.389-5.894-16.47
						c-1.184-3.521-2.858-9.029-4.73-15.407c2.692-3.115,4.896-7.333,6.329-11.91c3.722-4.008,6.946-8.337,8.492-13.904
						c-1.676,1.815-4.021,3.163-5.659,4.658c2.594-3.46,4.399-8.202,5.188-12.933c-1.95,1.998-3.956,4.525-6.573,6.17
						c-0.861-5.355-3.32-10.021-7.902-12.704c-20.5-12-119-1.5-119-1.5c-4.168,7.319-5.271,14.022-4.01,20.216
						c-1.809-1.287-4.356-2.556-5.708-3.933c2.144,4.731,5.174,8.26,8.581,11.627c1.547,2.822,3.588,5.535,6.046,8.148
						c-2.789,9.706-5.207,18.061-6.24,21.472c-3.169,10.47-6.669,16.47-6.669,16.47s-18.336-10.265-36.5,11.866
						c-1.204,1.467-2.205,3.164-3.027,5.043c-0.926-2.343-1.711-5.036-2.411-7.394c-4.923,8.724-4.985,22.834-0.02,31.455
						c0.006,0.057,0.012,0.113,0.018,0.17c-2.975-1.814-5.212-4.827-6.822-8.071c3.12,13.014,3.988,28.759,15.072,38.046
						c8.525,19.485,22.379,35.632,37.356,35.177c19.669,16.372,34.507,31.446,65.596,31.446c31.088,0,45.926-15.074,65.596-31.446
						c13.783,0.419,26.615-13.224,35.219-30.589c5.838-5.452,12.483-15.096,14.174-22.477c-2.327,2.116-3.665,2.229-6.182,3.485
						C240.727,278.371,244.6,268.679,244.797,261.235z"/>
					<linearGradient id="SVGID_8_" gradientUnits="userSpaceOnUse" x1="241.0967" y1="41.7798" x2="241.0967" y2="406.2924">
						<stop  offset="0.0114" style="stop-color:#93AFC6"/>
						<stop  offset="1" style="stop-color:#6B7A9A"/>
					</linearGradient>
					<path fill="url(#SVGID_8_)" stroke="#25363D" stroke-width="2" stroke-miterlimit="10" d="M241.096,279.639
						c-0.003,0.011-0.007,0.023-0.009,0.034c0.007-0.006,0.014-0.011,0.021-0.018C241.095,279.479,241.091,279.474,241.096,279.639z
						"/>
				</g>
				<g opacity="0.6">
					<path fill="#4A5B77" d="M223.776,231.735c-5.672-4.416-11.785-6.655-18.17-6.655c-5.558,0-9.533,1.757-10.377,2.162
						c3.889,9.657,8.449,26.43,4.528,56.954c5.657-12.088,4.959-35.082,5.813-47.416c0.771-11.143,5.2-5.451,19.564-3.986
						L223.776,231.735z"/>
					<path fill="#4A5B77" d="M225.038,227.538c0.204,1.112,0.323,2.251,0.353,3.383l0.048,1.902
						c1.235,0.119,2.549,0.204,3.933,0.247C228.173,230.933,226.691,229.029,225.038,227.538z"/>
				</g>
				<path opacity="0.6" fill="#4A5B77" d="M46.022,236.78c0.854,12.334,0.156,35.328,5.812,47.416
					c-3.912-30.45,0.618-47.216,4.5-56.884c-0.163-0.089-4.206-2.243-10.176-2.243c-4.878,0-11.703,1.497-18.953,7.641
					C40.972,231.131,45.265,225.836,46.022,236.78z"/>
				<g>
					<path fill="#25363D" d="M57.729,226.893c0,0-0.099,0.2-0.285,0.574c-0.181,0.358-0.429,0.933-0.75,1.649
						c-0.294,0.733-0.678,1.613-1.046,2.656c-0.399,1.029-0.778,2.22-1.204,3.515c-0.385,1.309-0.827,2.722-1.196,4.242
						c-0.187,0.761-0.378,1.543-0.575,2.341c-0.186,0.802-0.335,1.629-0.51,2.467c-0.372,1.671-0.609,3.425-0.895,5.2
						c-0.276,1.777-0.422,3.602-0.642,5.418c-0.116,1.826-0.232,3.652-0.347,5.45c-0.027,1.804-0.054,3.578-0.081,5.296
						c0.059,1.718,0.117,3.378,0.171,4.953c0.048,1.576,0.238,3.057,0.336,4.43c0.125,1.371,0.199,2.633,0.381,3.737
						c0.154,1.109,0.288,2.075,0.398,2.872c0.221,1.593,0.348,2.503,0.348,2.503s-0.157-0.905-0.432-2.489
						c-0.138-0.793-0.305-1.756-0.497-2.86c-0.22-1.101-0.338-2.36-0.509-3.729c-0.146-1.372-0.387-2.853-0.489-4.432
						c-0.108-1.579-0.223-3.245-0.34-4.969c-0.033-1.728-0.066-3.514-0.1-5.328c0.054-1.816,0.108-3.661,0.162-5.506
						c0.159-1.839,0.245-3.688,0.462-5.494c0.228-1.805,0.408-3.59,0.727-5.297c0.148-0.854,0.271-1.7,0.433-2.52
						c0.171-0.818,0.339-1.619,0.502-2.398c0.323-1.56,0.724-3.016,1.072-4.363c0.39-1.338,0.736-2.568,1.111-3.642
						c0.342-1.082,0.707-2.007,0.986-2.775c0.31-0.763,0.542-1.357,0.736-1.775C55.842,226.215,55.94,226,55.94,226L57.729,226.893z
						"/>
				</g>
				<g>
					<path fill="#25363D" d="M195.574,226.309c0,0,0.097,0.215,0.275,0.617c0.189,0.417,0.416,1.008,0.716,1.768
						c0.272,0.765,0.624,1.687,0.955,2.763c0.363,1.067,0.691,2.293,1.07,3.623c0.326,1.343,0.722,2.787,1.021,4.34
						c0.156,0.774,0.316,1.569,0.479,2.383c0.133,0.818,0.268,1.654,0.405,2.505c0.305,1.695,0.459,3.469,0.677,5.26
						c0.191,1.795,0.273,3.629,0.416,5.454c0.039,1.832,0.105,3.662,0.117,5.463c-0.044,1.8-0.088,3.571-0.13,5.286
						c-0.124,1.709-0.243,3.361-0.356,4.928c-0.115,1.565-0.351,3.034-0.5,4.395c-0.172,1.358-0.297,2.606-0.515,3.699
						c-0.191,1.095-0.358,2.05-0.495,2.836c-0.274,1.571-0.432,2.47-0.432,2.47s0.126-0.903,0.347-2.483
						c0.109-0.79,0.243-1.748,0.396-2.849c0.181-1.096,0.263-2.348,0.388-3.707c0.103-1.362,0.287-2.831,0.349-4.395
						c0.059-1.562,0.121-3.209,0.186-4.914c-0.017-1.703-0.033-3.464-0.051-5.253c-0.073-1.787-0.201-3.6-0.302-5.41
						c-0.203-1.805-0.347-3.613-0.596-5.38c-0.276-1.764-0.488-3.507-0.846-5.167c-0.164-0.832-0.325-1.65-0.483-2.452
						c-0.188-0.794-0.372-1.57-0.552-2.326c-0.346-1.515-0.783-2.917-1.146-4.22c-0.415-1.287-0.775-2.473-1.165-3.497
						c-0.357-1.037-0.729-1.913-1.016-2.643c-0.311-0.714-0.553-1.285-0.729-1.642c-0.182-0.372-0.278-0.57-0.278-0.57
						L195.574,226.309z"/>
				</g>
				<g>
					<path fill="#25363D" d="M68.389,189.623c0,0,0.12-0.304,0.33-0.836c0.2-0.531,0.539-1.297,0.82-2.198
						c0.313-0.901,0.665-1.964,0.973-3.139c0.164-0.583,0.344-1.184,0.47-1.807c0.14-0.621,0.283-1.252,0.425-1.884
						c0.123-0.634,0.214-1.274,0.321-1.903c0.116-0.629,0.201-1.25,0.24-1.855c0.055-0.606,0.108-1.191,0.159-1.747
						c0-0.557,0-1.083,0-1.569c-0.01-0.486,0.027-0.939-0.048-1.328c-0.05-0.393-0.094-0.736-0.13-1.019
						c-0.072-0.568-0.114-0.893-0.114-0.893s0.072,0.318,0.198,0.876c0.063,0.28,0.14,0.621,0.229,1.011
						c0.113,0.39,0.12,0.842,0.177,1.332c0.047,0.493,0.098,1.026,0.152,1.59c0.003,0.566,0.006,1.163,0.009,1.781
						c0.019,0.621-0.006,1.259-0.062,1.905c-0.047,0.647-0.079,1.309-0.142,1.967c-0.083,0.656-0.166,1.311-0.248,1.956
						c-0.068,0.649-0.193,1.277-0.303,1.888c-0.199,1.223-0.457,2.362-0.696,3.342c-0.213,0.996-0.469,1.755-0.619,2.312
						c-0.158,0.55-0.249,0.864-0.249,0.864L68.389,189.623z"/>
				</g>
				<g>
					<path fill="#25363D" d="M183.217,196.002c0,0-0.061-0.295-0.166-0.811c-0.053-0.258-0.117-0.571-0.19-0.931
						c-0.069-0.363-0.169-0.756-0.236-1.216c-0.124-0.918-0.337-1.984-0.435-3.123c-0.056-0.569-0.114-1.156-0.173-1.753
						c-0.032-0.598-0.065-1.205-0.099-1.812c-0.042-0.606-0.042-1.213-0.051-1.81c-0.006-0.596-0.024-1.182-0.007-1.749
						c0.014-1.134,0.04-2.188,0.083-3.092c0.085-1.805,0.142-3.008,0.142-3.008s0.068,1.202,0.171,3.005
						c0.051,0.901,0.134,1.95,0.237,3.069c0.04,0.561,0.119,1.136,0.186,1.722c0.07,0.585,0.132,1.179,0.235,1.768
						c0.094,0.589,0.188,1.177,0.279,1.757c0.118,0.574,0.233,1.138,0.346,1.685c0.21,1.096,0.518,2.075,0.722,2.93
						c0.106,0.424,0.252,0.824,0.356,1.172c0.11,0.35,0.207,0.655,0.286,0.906c0.158,0.502,0.249,0.79,0.249,0.79L183.217,196.002z"
						/>
				</g>
				<path opacity="0.6" fill="#4A5B77" d="M182.085,171.087c2.511-4.375,4.995-7.215,7.377-8.965
					c-1.114-2.736-2.989-5.473-6.132-7.312c-6.365-3.726-21.274-5.615-44.314-5.615c-31.763,0-68.789,3.702-73.562,4.193
					c-2.314,4.18-3.651,8.285-4.011,12.272c4.249,0.399,10.47,2.679,14.393,12.537c6.333,15.918,25.303,26.366,50.818,26.366
					S171.425,189.661,182.085,171.087z"/>
				<g>
					<path fill="#25363D" d="M60.801,334.285c0,0-0.275-0.302-0.755-0.83c-0.236-0.28-0.543-0.544-0.854-0.998
						c-0.315-0.427-0.669-0.908-1.057-1.434c-0.326-0.54-0.68-1.125-1.054-1.744c-0.345-0.631-0.672-1.313-1.028-2.009
						c-0.306-0.715-0.623-1.453-0.944-2.203c-0.273-0.768-0.583-1.534-0.832-2.319c-0.245-0.787-0.513-1.565-0.713-2.35
						c-0.222-0.778-0.423-1.547-0.593-2.297c-0.363-1.493-0.624-2.902-0.839-4.109c-0.407-2.42-0.547-4.046-0.547-4.046
						s0.265,1.612,0.853,3.981c0.306,1.183,0.671,2.558,1.143,4.005c0.225,0.727,0.481,1.469,0.758,2.217
						c0.256,0.755,0.578,1.498,0.875,2.248c0.301,0.749,0.661,1.471,0.982,2.194c0.366,0.699,0.725,1.388,1.073,2.054
						c0.393,0.638,0.753,1.265,1.125,1.836c0.395,0.552,0.768,1.074,1.112,1.557c0.372,0.433,0.712,0.83,1.015,1.182
						c0.271,0.356,0.646,0.644,0.888,0.891c0.52,0.489,0.816,0.769,0.816,0.769L60.801,334.285z"/>
				</g>
				<g>
					<path fill="#25363D" d="M190.018,332.879c0,0,0.297-0.279,0.817-0.769c0.241-0.247,0.617-0.534,0.888-0.891
						c0.302-0.352,0.643-0.749,1.015-1.182c0.344-0.482,0.717-1.005,1.111-1.557c0.372-0.571,0.732-1.198,1.125-1.836
						c0.348-0.666,0.707-1.354,1.072-2.054c0.321-0.723,0.682-1.445,0.982-2.194c0.297-0.75,0.619-1.493,0.875-2.248
						c0.277-0.748,0.533-1.49,0.758-2.217c0.473-1.447,0.838-2.822,1.144-4.005c0.588-2.369,0.853-3.981,0.853-3.981
						s-0.141,1.626-0.547,4.046c-0.215,1.207-0.476,2.616-0.839,4.109c-0.171,0.75-0.372,1.52-0.593,2.297
						c-0.201,0.784-0.469,1.562-0.714,2.35c-0.248,0.785-0.559,1.552-0.832,2.319c-0.321,0.75-0.638,1.489-0.943,2.203
						c-0.356,0.695-0.683,1.378-1.028,2.009c-0.374,0.619-0.728,1.204-1.054,1.744c-0.388,0.525-0.742,1.007-1.057,1.434
						c-0.312,0.454-0.619,0.718-0.854,0.999c-0.48,0.527-0.755,0.829-0.755,0.829L190.018,332.879z"/>
				</g>
				<g>
					<g>
						<path fill="#25363D" d="M82.833,204.445l-1.813,1.753l-1.675,1.87l-3.193,3.899c-0.559,0.633-1.102,1.279-1.674,1.901
							l-0.896,0.905c-0.304,0.296-0.585,0.615-0.909,0.892l-0.982,0.819c-0.333,0.267-0.646,0.56-0.995,0.805l-2.162,1.391
							l-0.338-0.758l2.081-0.694c0.701-0.202,1.409-0.379,2.113-0.57l4.234-0.945c0.693-0.176,1.398-0.318,2.081-0.521
							c0.677-0.215,1.375-0.375,2.036-0.636l0.996-0.375c0.33-0.13,0.67-0.236,0.985-0.401l1.93-0.901l1.558-0.727l-0.923,1.442
							l-0.882,1.379l-0.813,1.435c-0.521,0.975-1.037,1.962-1.58,2.945c-0.288,0.485-0.548,0.983-0.86,1.458
							c-0.32,0.468-0.604,0.959-0.954,1.407l-0.523,0.673c-0.181,0.22-0.335,0.461-0.539,0.66l-1.167,1.243l-0.496-0.681
							l1.164-0.471c0.39-0.146,0.775-0.326,1.168-0.441l2.357-0.689l2.343-0.655l2.277-0.781l0.586-0.201l-0.208,0.566l-0.485,1.315
							c-0.138,0.446-0.248,0.9-0.38,1.35c-0.065,0.225-0.089,0.458-0.136,0.688l-0.124,0.691c-0.057,0.464-0.077,0.932-0.118,1.4
							c0,0.468,0.021,0.938,0.03,1.409l0.179,1.402l0.301,1.386l0.41,1.363l-0.501-1.336c-0.137-0.455-0.262-0.916-0.388-1.377
							l-0.252-1.413c-0.034-0.478-0.078-0.956-0.103-1.437c0.018-0.479,0.015-0.962,0.049-1.442l0.092-0.717
							c0.036-0.237,0.049-0.48,0.104-0.715c0.109-0.469,0.207-0.943,0.337-1.407l0.458-1.371l0.377,0.364l-2.312,0.874l-2.334,0.731
							l-2.304,0.75c-0.384,0.125-0.732,0.307-1.099,0.455l-1.091,0.462l-1.834,0.775l1.339-1.457l1.104-1.201
							c0.194-0.192,0.338-0.426,0.509-0.637l0.495-0.649c0.332-0.432,0.601-0.911,0.904-1.363c0.295-0.459,0.546-0.951,0.821-1.426
							c0.522-0.969,1.028-1.96,1.546-2.952l0.817-1.478l0.902-1.441l0.635,0.715l-1.993,0.938c-0.328,0.166-0.681,0.273-1.024,0.404
							l-1.034,0.378c-0.687,0.262-1.404,0.42-2.104,0.634c-0.704,0.201-1.418,0.338-2.126,0.51l-4.231,0.9
							c-0.691,0.181-1.387,0.347-2.075,0.538l-2.038,0.648l-3.395,1.08l3.057-1.838l2.117-1.272c0.345-0.226,0.655-0.502,0.985-0.75
							l0.978-0.766c0.323-0.259,0.608-0.564,0.915-0.845l0.905-0.86c0.583-0.596,1.14-1.221,1.712-1.83
							c1.108-1.256,2.239-2.504,3.373-3.748l1.781-1.799L82.833,204.445z"/>
					</g>
					<g>
						<path fill="#25363D" d="M185.5,239.778c0.579,1.262,1.126,2.535,1.679,3.808c0.48,1.302,0.925,2.623,1.379,3.942l1.285,3.954
							l1.334,3.911l0.861,2.527l-1.705-2.104c-0.201-0.248-0.381-0.506-0.588-0.753l-0.668-0.723
							c-0.473-0.466-0.952-0.928-1.455-1.375l-1.514-1.345l-0.761-0.686c-0.254-0.223-0.508-0.487-0.76-0.737l0.782-0.574
							c0.303,0.654,0.649,1.312,0.912,1.964l0.807,1.966l0.75,1.989c0.133,0.324,0.225,0.682,0.331,1.027l0.309,1.041l0.113,0.382
							l-0.438,0.072l-1.24,0.205c-0.394,0.141-0.798,0.261-1.188,0.416l-0.556,0.302c-0.179,0.109-0.385,0.181-0.545,0.32
							l-0.502,0.39c-0.165,0.134-0.348,0.248-0.488,0.41c-0.286,0.314-0.626,0.589-0.876,0.939c-0.246,0.353-0.54,0.678-0.752,1.057
							l-0.322,0.566c-0.102,0.192-0.23,0.373-0.311,0.575l-0.541,1.199l0.407-1.257c0.061-0.214,0.177-0.403,0.263-0.607
							l0.281-0.604c0.185-0.404,0.455-0.762,0.682-1.147c0.23-0.385,0.557-0.7,0.834-1.056c0.288-0.349,0.67-0.605,1.004-0.912
							c0.166-0.157,0.38-0.248,0.568-0.376l0.586-0.355c0.413-0.19,0.846-0.345,1.271-0.518l1.344-0.292l-0.324,0.454
							c-0.24-0.647-0.438-1.288-0.705-1.936l-0.791-1.944l-0.847-1.922c-0.27-0.653-0.59-1.238-0.881-1.861l-1.121-2.405
							l1.903,1.831c0.232,0.224,0.447,0.448,0.705,0.671l0.754,0.668c0.51,0.442,1.021,0.895,1.522,1.356
							c0.506,0.458,0.998,0.94,1.485,1.43l0.704,0.775c0.226,0.273,0.438,0.57,0.65,0.858l-0.844,0.423l-1.248-3.993l-1.086-4.016
							c-0.381-1.323-0.771-2.646-1.125-3.986C186.382,242.41,185.922,241.102,185.5,239.778z"/>
					</g>
					<g>
						<path fill="#25363D" d="M24.167,275.112c-0.595-0.797-1.169-1.607-1.75-2.413l-0.857-1.223l-0.797-1.271l-0.731-1.319
							c-0.213-0.457-0.438-0.91-0.641-1.374c-0.175-0.475-0.37-0.945-0.524-1.429l-0.389-1.476l-0.202-0.766l0.756,0.236
							l0.788,0.247c0.261,0.086,0.532,0.158,0.784,0.257l1.479,0.651c0.956,0.473,1.912,0.908,2.849,1.352l-0.68,0.567
							c-0.327-1.559-0.549-3.097-0.67-4.668c-0.055-0.784-0.097-1.572-0.068-2.369c0.016-0.398,0.046-0.799,0.113-1.205
							c0.059-0.402,0.166-0.818,0.381-1.232l0.132-0.254l0.289,0.104c0.269,0.098,0.537,0.226,0.809,0.283
							c0.136,0.042,0.271,0.074,0.405,0.083c0.136,0.023,0.268,0.032,0.394,0.015c0.262-0.003,0.488-0.106,0.694-0.255
							c0.201-0.157,0.379-0.375,0.526-0.623c0.299-0.495,0.52-1.066,0.764-1.621c0.236-0.561,0.507-1.109,0.815-1.633
							c-0.232,0.562-0.417,1.137-0.602,1.712c-0.186,0.576-0.341,1.163-0.611,1.739c-0.136,0.286-0.307,0.575-0.566,0.813
							c-0.263,0.227-0.609,0.398-0.955,0.427c-0.175,0.032-0.344,0.032-0.51,0.016c-0.171-0.003-0.332-0.03-0.489-0.066
							c-0.326-0.052-0.617-0.168-0.923-0.259l0.421-0.149c-0.12,0.286-0.201,0.633-0.228,1c-0.037,0.362-0.042,0.739-0.033,1.115
							c0.014,0.754,0.066,1.516,0.148,2.276c0.181,1.515,0.398,3.054,0.73,4.526l0.218,0.969l-0.897-0.401
							c-0.984-0.44-1.938-0.914-2.875-1.383l-1.417-0.643c-0.475-0.183-0.954-0.338-1.432-0.511l0.554-0.529l0.324,1.413
							c0.139,0.463,0.287,0.924,0.427,1.39c0.166,0.456,0.356,0.904,0.533,1.358l0.63,1.327l1.428,2.595
							C23.205,273.374,23.699,274.234,24.167,275.112z"/>
					</g>
					<g>
						<path fill="#25363D" d="M216.167,283.112c0.507-0.729,1.028-1.448,1.535-2.175l0.721-1.113
							c0.233-0.376,0.494-0.73,0.703-1.121l0.657-1.148c0.216-0.385,0.463-0.751,0.647-1.151l0.592-1.181
							c0.188-0.396,0.413-0.776,0.565-1.189l0.5-1.218c0.155-0.41,0.359-0.801,0.474-1.226l0.401-1.25
							c0.127-0.418,0.3-0.823,0.39-1.25l0.296-1.276c0.092-0.426,0.213-0.847,0.28-1.277l0.327-2.593l0.745,0.423
							c-0.67,0.5-1.31,1.168-2.02,1.774c-0.361,0.303-0.737,0.602-1.164,0.856c-0.212,0.127-0.459,0.225-0.688,0.334
							c-0.115,0.056-0.259,0.072-0.387,0.108l-0.397,0.089l-1.177,0.264l0.735-1.041l0.814-1.151l0.732-1.205l0.649-1.255
							l0.566-1.297l0.488-1.332l0.417-1.361c0.255-0.916,0.498-1.838,0.705-2.772c0.421-1.867,0.737-3.767,1.125-5.657
							c0.198-0.944,0.41-1.887,0.639-2.824c0.228-0.938,0.5-1.865,0.792-2.783c-0.405,1.885-0.728,3.778-0.98,5.686
							c-0.27,1.904-0.525,3.813-0.86,5.723c-0.171,0.954-0.365,1.906-0.603,2.853l-0.408,1.407l-0.485,1.386l-0.569,1.358
							c-0.22,0.439-0.429,0.886-0.659,1.32l-0.749,1.273l-0.835,1.219l-0.441-0.777l0.267-0.071
							c0.089-0.028,0.179-0.028,0.268-0.076c0.177-0.094,0.358-0.161,0.533-0.271c0.35-0.223,0.697-0.475,1.036-0.754
							c0.683-0.562,1.312-1.212,2.108-1.793l0.896-0.653l-0.151,1.076l-0.378,2.681c-0.076,0.443-0.207,0.877-0.308,1.315
							l-0.324,1.311c-0.101,0.439-0.282,0.854-0.42,1.281l-0.457,1.268c-0.137,0.429-0.362,0.821-0.539,1.232l-0.565,1.22
							c-0.174,0.413-0.418,0.791-0.628,1.186l-0.653,1.171c-0.205,0.397-0.471,0.758-0.707,1.137l-0.739,1.115
							c-0.238,0.376-0.529,0.719-0.791,1.078l-0.805,1.066C217.333,281.773,216.742,282.437,216.167,283.112z"/>
					</g>
				</g>
			</g>
			<g>
				<linearGradient id="SVGID_9_" gradientUnits="userSpaceOnUse" x1="126.4155" y1="58.8716" x2="126.4155" y2="386.9319">
					<stop  offset="0.0114" style="stop-color:#93AFC6"/>
					<stop  offset="1" style="stop-color:#6B7A9A"/>
				</linearGradient>
				<path fill="url(#SVGID_9_)" stroke="#25363D" stroke-width="2" stroke-miterlimit="10" d="M126.416,190.901
					c30.978,0,42.986-10.439,54.236-28.291c22.05-15.599,18.899-22.459,18.899-22.459s0.9,7.91,2.701,13.31
					c5.85-5.4,7.199-19.639,7.199-19.639s3.6,14.239,6.301,8.82c2.699-5.419-4.051-23.831-4.051-23.831s4.051,0.45,9.9,5.197
					c0-5.153-7.65-13.747-7.65-13.747h5.85c0,0-4.562-9.374-13.049-14.4c-9.148-5.417-15.848-6.144-31.051-12.15
					c-28.35-13.05-16.199-43.65-16.199-63.45c0-19.8-33.087-11.25-33.087-11.25S93.33,0.461,93.33,20.261
					c0,19.8,12.15,50.4-16.2,63.45c-15.204,6.006-21.902,6.733-31.05,12.15c-8.488,5.026-13.05,14.4-13.05,14.4h5.85
					c0,0-7.65,8.594-7.65,13.747c5.85-4.747,9.9-5.197,9.9-5.197s-6.75,18.411-4.05,23.831c2.7,5.419,6.3-8.82,6.3-8.82
					s1.35,14.239,7.2,19.639c1.8-5.4,2.7-13.31,2.7-13.31s-3.15,6.86,18.9,22.459C83.43,180.462,95.439,190.901,126.416,190.901z"/>
				<path opacity="0.6" fill="#4A5B77" d="M128.312,170.429c-12.753,0-24.304-5.442-31.922-20.995
					c5.502,4.483,9.418,1.101,9.418,1.101c-10.193-11.729-11.271-21.503-6.543-36.505c1.768,4.073,5.635,8.384,7.326,11.968
					c-0.643-7.896,1.85-14.555,2.565-22.246c1.828,6.909,6.001,14.463,7.869,20.912c-2.392-11.749,3.562-22.696,14.147-29.238
					c-2.751,6.553-6.239,13.612-4.624,20.228c4.165-6.552,8.597-10.691,13.511-16.135c-3.537,8.6-0.217,17.151-0.217,17.151
					s6.756-3.499,9.334-10.491c-0.016-0.505-0.029-0.504-0.042,0.002c4.252,12.577-0.441,25.601,0.073,25.112
					c0,0,2.518,0.555,7.406-3.667c1.189,14.111-1.47,22.911-14.717,30.683c2.951-1.419,9.401-2.847,11.67-4.76
					C149.194,162.157,138.357,170.429,128.312,170.429z"/>
				<linearGradient id="SVGID_10_" gradientUnits="userSpaceOnUse" x1="111.3721" y1="111.5234" x2="137.8529" y2="153.5813">
					<stop  offset="0" style="stop-color:#728DB5"/>
					<stop  offset="1" style="stop-color:#4D6993"/>
				</linearGradient>
				<path fill="url(#SVGID_10_)" stroke="#223B60" stroke-miterlimit="10" d="M128.212,169.979c-11.99,0-22.847-5.115-30.007-19.735
					c5.172,4.214,8.853,1.035,8.853,1.035c-9.582-11.025-10.594-20.213-6.15-34.315c1.661,3.829,5.296,7.882,6.886,11.25
					c-0.604-7.422,1.739-13.681,2.411-20.91c1.719,6.495,5.641,13.595,7.397,19.657c-2.249-11.043,3.349-21.334,13.298-27.484
					c-2.586,6.16-5.865,12.795-4.346,19.014c3.916-6.159,8.083-10.05,12.701-15.167c-3.325,8.084-0.204,16.122-0.204,16.122
					s6.351-3.289,8.774-9.862c-0.015-0.475-0.028-0.474-0.04,0.002c3.998,11.822-0.414,24.064,0.07,23.605
					c0,0,2.365,0.521,6.961-3.447c1.119,13.265-1.381,21.536-13.834,28.842c2.774-1.334,8.837-2.676,10.971-4.475
					C147.841,162.203,137.654,169.979,128.212,169.979z"/>
				<path fill="#191E2D" stroke="#000000" stroke-miterlimit="10" d="M126.416,0.61c3.631,0,13.511-1.5,13.511,6.556
					c0,4.544-9.576,11.294-13.511,11.294c-3.936,0-13.512-6.75-13.512-11.294C112.904-0.889,122.784,0.61,126.416,0.61z"/>
				<g>
					<path opacity="0.6" fill="#4A5B77" d="M81.793,129.372l9.358-10.082c0,0-20.203-11.998-28.794-29.349
						c-5.817,1.937-10.192,3.444-15.313,6.408c0.685,6.123,2.791,13.319,7.018,21.022C70.693,147.672,81.793,129.372,81.793,129.372
						z"/>
					<g>
						<linearGradient id="SVGID_11_" gradientUnits="userSpaceOnUse" x1="67.2583" y1="58.8716" x2="67.2583" y2="386.9319">
							<stop  offset="0.0114" style="stop-color:#93AFC6"/>
							<stop  offset="1" style="stop-color:#6B7A9A"/>
						</linearGradient>
						<path fill="url(#SVGID_11_)" d="M70.558,156.294c-6.9-6.284-19.801-26.083-23.7-33.583c3,0.9,4.8,3.584,4.8,3.584
							s-8.399-21.584-9.6-37.785c2.4,1.8,4.2,4.44,4.2,4.44l-0.9-17.04l10.95,26.4l1.35-5.7c0,0,14.101,16.8,34.8,23.1"/>
						<path fill="#25363D" d="M70.558,156.294l-1.837-1.806c-0.617-0.597-1.232-1.196-1.778-1.863
							c-1.11-1.309-2.307-2.569-3.355-3.931l-1.605-2.021c-0.529-0.679-1.086-1.338-1.592-2.034l-3.084-4.142l-2.987-4.213
							c-1.004-1.399-1.937-2.849-2.909-4.272c-0.978-1.419-1.888-2.888-2.807-4.349c-0.939-1.444-1.771-2.983-2.633-4.49l0-0.001
							l-1.317-2.373l2.492,0.954l0.805,0.308c0.274,0.095,0.532,0.215,0.774,0.362c0.246,0.14,0.5,0.271,0.738,0.42l0.683,0.49
							c0.235,0.155,0.427,0.355,0.642,0.533s0.412,0.372,0.603,0.572c0.197,0.193,0.384,0.399,0.562,0.613
							c0.188,0.215,0.345,0.418,0.538,0.688l-1.763,0.919c-0.583-1.547-1.145-3.077-1.675-4.628
							c-0.526-1.55-1.076-3.092-1.556-4.657c-0.481-1.564-1.021-3.11-1.454-4.69l-1.351-4.724l-1.179-4.775
							c-0.186-0.799-0.417-1.585-0.554-2.397l-0.468-2.42l-0.468-2.42c-0.178-0.802-0.274-1.622-0.368-2.443l-0.592-4.917
							l-0.304-2.525l1.901,1.651l1.229,1.067c0.201,0.181,0.416,0.351,0.604,0.542l0.543,0.588c0.355,0.398,0.743,0.77,1.062,1.197
							c0.332,0.418,0.668,0.822,0.987,1.283l-1.825,0.616l-0.9-17.04l-0.307-5.811l2.229,5.375l10.95,26.399l-1.897,0.153l1.35-5.7
							l0.452-1.908l1.287,1.496l0.001,0.001l3.554,3.774c1.21,1.252,2.469,2.458,3.75,3.645l1.958,1.739l2.012,1.679
							c0.667,0.565,1.375,1.077,2.062,1.619c0.685,0.545,1.393,1.058,2.109,1.56c0.719,0.497,1.411,1.039,2.154,1.501l2.203,1.431
							c0.741,0.467,1.508,0.89,2.262,1.338c0.752,0.452,1.516,0.883,2.302,1.27l2.341,1.206l2.407,1.07l1.207,0.533l1.236,0.458
							l2.477,0.918l-2.522-0.788l-1.264-0.395l-1.236-0.47l-2.474-0.948l-2.417-1.087c-0.814-0.349-1.605-0.742-2.387-1.157
							c-0.783-0.411-1.581-0.798-2.354-1.23l-2.301-1.328c-0.777-0.428-1.503-0.937-2.258-1.402
							c-0.752-0.47-1.497-0.952-2.219-1.467c-0.724-0.512-1.471-0.995-2.177-1.531l-2.132-1.597l-2.083-1.663
							c-1.366-1.137-2.714-2.299-4.018-3.513c-1.311-1.216-2.571-2.454-3.724-3.88l-0.001-0.001l1.739-0.413l-1.35,5.7l-0.712,3.008
							l-1.185-2.855l-10.95-26.399l1.922-0.436l0.9,17.04l0.186,3.519l-2.011-2.903c-0.263-0.379-0.581-0.762-0.884-1.145
							c-0.292-0.394-0.648-0.729-0.972-1.095l-0.496-0.539c-0.17-0.172-0.36-0.318-0.538-0.479l-1.083-0.946l1.597-0.874
							l0.579,4.786c0.09,0.798,0.183,1.596,0.359,2.387l0.459,2.377l0.459,2.377c0.134,0.796,0.363,1.576,0.546,2.363l1.164,4.713
							l1.336,4.673c0.428,1.562,0.963,3.096,1.44,4.645c0.475,1.551,1.02,3.078,1.541,4.613c0.523,1.531,1.085,3.061,1.651,4.562
							l2.567,6.812l-4.33-5.893c-0.104-0.142-0.254-0.344-0.403-0.509c-0.146-0.176-0.301-0.347-0.467-0.508
							c-0.159-0.168-0.323-0.33-0.501-0.476c-0.177-0.145-0.336-0.317-0.528-0.439l-0.554-0.399
							c-0.191-0.119-0.392-0.219-0.586-0.331c-0.192-0.121-0.393-0.214-0.602-0.282l-0.615-0.24l1.174-1.419l0,0.001l1.212,2.237
							c0.388,0.753,0.804,1.496,1.239,2.233c0.866,1.472,1.677,2.977,2.576,4.435c0.891,1.461,1.742,2.95,2.667,4.391l2.751,4.343
							l2.853,4.278c0.468,0.72,0.986,1.401,1.477,2.104l1.493,2.094c0.976,1.415,2.085,2.709,3.126,4.076
							c0.509,0.692,1.092,1.323,1.678,1.952L70.558,156.294z"/>
					</g>
					<g>
						<path fill="#B8CEDD" d="M46.618,81.4c0.993,2.226,1.918,4.476,2.863,6.719c0.954,2.24,1.859,4.498,2.771,6.752l2.684,6.784
							l2.615,6.81l-1.799,0.104l1.941-8.229l0.41-1.74l1.261,1.297c0.535,0.55,1.132,1.118,1.721,1.66l1.804,1.617
							c1.218,1.064,2.475,2.086,3.76,3.072c1.29,0.98,2.592,1.945,3.928,2.862c1.334,0.92,2.703,1.79,4.085,2.639
							c2.772,1.685,5.644,3.211,8.613,4.544c1.484,0.667,2.983,1.312,4.519,1.869c0.765,0.29,1.539,0.552,2.317,0.803
							c0.773,0.275,1.562,0.497,2.345,0.749c-0.807-0.146-1.625-0.256-2.429-0.434c-0.805-0.173-1.608-0.358-2.404-0.572
							c-0.802-0.194-1.589-0.441-2.385-0.667c-0.784-0.255-1.582-0.482-2.354-0.778c-3.117-1.111-6.134-2.503-9.045-4.088
							c-1.456-0.794-2.871-1.66-4.269-2.552c-1.396-0.895-2.767-1.832-4.089-2.833c-1.327-0.996-2.626-2.03-3.889-3.11
							c-0.633-0.538-1.255-1.09-1.862-1.661c-0.611-0.575-1.198-1.142-1.799-1.773l1.671-0.442l-2.021,8.21l-0.758,3.079
							l-1.042-2.976l-2.41-6.885l-2.34-6.91c-0.763-2.31-1.533-4.617-2.253-6.942C48.049,86.055,47.3,83.74,46.618,81.4z"/>
					</g>
				</g>
				<g>
					<path fill="#25363D" d="M73.558,152.111c0,0,0.364-0.086,0.958-0.288c0.601-0.19,1.441-0.502,2.42-0.903
						c0.492-0.196,1.009-0.443,1.559-0.686c0.546-0.253,1.107-0.55,1.69-0.84c1.153-0.615,2.349-1.32,3.503-2.092
						c0.598-0.354,1.132-0.805,1.705-1.181c0.548-0.416,1.087-0.825,1.608-1.221c0.508-0.42,0.999-0.826,1.464-1.211
						c0.478-0.376,0.881-0.786,1.291-1.13c0.389-0.364,0.792-0.662,1.097-0.973c0.312-0.306,0.601-0.561,0.837-0.774
						c0.477-0.424,0.767-0.659,0.767-0.659s-0.152,0.333-0.451,0.902c-0.152,0.283-0.333,0.631-0.561,1.017
						c-0.21,0.401-0.513,0.803-0.833,1.253c-0.328,0.443-0.65,0.958-1.088,1.417c-0.424,0.471-0.846,0.999-1.352,1.474
						c-0.517,0.463-1.015,0.989-1.592,1.439c-0.583,0.441-1.154,0.923-1.79,1.315c-0.628,0.401-1.255,0.805-1.917,1.127
						c-0.64,0.362-1.319,0.621-1.959,0.896c-0.646,0.267-1.294,0.465-1.909,0.64c-0.615,0.175-1.206,0.304-1.758,0.388
						c-0.544,0.112-1.061,0.138-1.508,0.179c-0.452,0.028-0.845,0.031-1.17,0.017C73.917,152.194,73.558,152.111,73.558,152.111z"/>
				</g>
				<g>
					<path opacity="0.6" fill="#4A5B77" d="M109.579,90.186c0,0-0.921-9.297-15.186-3.681c-14.265,5.615-6.814,15.124-6.814,15.124
						L109.579,90.186z"/>
					<g>
						<path fill="#223B60" d="M109.723,90.46c-0.016-0.01-0.219-0.141-0.688-0.356c-0.234-0.101-0.52-0.222-0.861-0.335
							c-0.336-0.126-0.733-0.227-1.163-0.34c-0.436-0.096-0.908-0.204-1.419-0.265c-0.507-0.091-1.051-0.109-1.613-0.156
							c-0.563-0.013-1.148-0.025-1.741,0.001c-0.591,0.052-1.2,0.053-1.797,0.159c-0.599,0.088-1.204,0.152-1.786,0.296
							c-0.583,0.133-1.167,0.228-1.711,0.403c-0.547,0.162-1.083,0.302-1.581,0.465c-0.494,0.179-0.96,0.348-1.391,0.503
							c-0.87,0.293-1.549,0.653-2.046,0.851c-0.491,0.215-0.772,0.337-0.772,0.337s0.274-0.137,0.753-0.376
							c0.487-0.223,1.149-0.619,2.006-0.957c0.425-0.179,0.885-0.373,1.372-0.577c0.493-0.189,1.024-0.358,1.569-0.55
							c0.541-0.206,1.125-0.332,1.71-0.497c0.583-0.176,1.194-0.273,1.801-0.394c0.604-0.138,1.226-0.172,1.832-0.256
							c0.608-0.059,1.212-0.077,1.796-0.093c0.584,0.019,1.152,0.01,1.688,0.077c0.538,0.037,1.042,0.125,1.508,0.203
							c0.462,0.097,0.89,0.184,1.259,0.3c0.373,0.104,0.693,0.22,0.957,0.319c0.519,0.203,0.843,0.386,0.826,0.377L109.723,90.46z"
							/>
					</g>
					<radialGradient id="SVGID_12_" cx="98.6338" cy="96.9072" r="9.5445" gradientUnits="userSpaceOnUse">
						<stop  offset="0.577" style="stop-color:#FFEDA1"/>
						<stop  offset="1" style="stop-color:#FFED00"/>
					</radialGradient>
					<path fill="url(#SVGID_12_)" stroke="#25363D" stroke-miterlimit="10" d="M109.649,90.03c1.677,3.237-1.985,8.463-8.181,11.674
						c-6.196,3.212-12.578,3.191-14.255-0.045c0,0,2.82-6.632,9.015-9.843C102.423,88.605,109.649,90.03,109.649,90.03z"/>
					<linearGradient id="SVGID_13_" gradientUnits="userSpaceOnUse" x1="98.855" y1="58.8716" x2="98.855" y2="386.9347">
						<stop  offset="0.0114" style="stop-color:#93AFC6"/>
						<stop  offset="1" style="stop-color:#6B7A9A"/>
					</linearGradient>
					<path fill="url(#SVGID_13_)" stroke="#25363D" stroke-width="2" stroke-linejoin="bevel" stroke-miterlimit="10" d="
						M102.658,104.1c6.076-3.433,8.715-10.74,6.921-13.914c0,0,0.289,1.311-7.521,6.706c-7.81,5.395-14.479,4.737-14.479,4.737
						C89.372,104.802,96.583,107.533,102.658,104.1z"/>
					<path fill="#1D1D1B" d="M99.974,94.149c1.979,0,3.584-1.604,3.584-3.584c0-0.229-0.026-0.452-0.067-0.669
						c-2.117,0.242-4.54,0.806-6.843,1.984C97.172,93.208,98.459,94.149,99.974,94.149z"/>
				</g>
				<g>
					<path fill="#25363D" d="M178.433,152.111c0,0-0.358,0.083-1.012,0.104c-0.325,0.015-0.718,0.012-1.17-0.017
						c-0.447-0.041-0.964-0.066-1.508-0.179c-0.552-0.084-1.143-0.213-1.758-0.388c-0.614-0.175-1.264-0.373-1.909-0.639
						c-0.641-0.275-1.319-0.534-1.959-0.896c-0.662-0.322-1.289-0.726-1.918-1.127c-0.636-0.392-1.206-0.874-1.79-1.315
						c-0.577-0.45-1.075-0.977-1.592-1.439c-0.507-0.475-0.929-1.003-1.353-1.474c-0.438-0.458-0.761-0.974-1.088-1.417
						c-0.319-0.451-0.622-0.853-0.833-1.253c-0.228-0.386-0.409-0.734-0.561-1.017c-0.299-0.569-0.451-0.902-0.451-0.902
						s0.29,0.235,0.767,0.659c0.236,0.214,0.525,0.469,0.837,0.774c0.306,0.312,0.708,0.609,1.097,0.973
						c0.41,0.345,0.813,0.754,1.292,1.13c0.465,0.385,0.956,0.791,1.464,1.211c0.521,0.396,1.061,0.805,1.608,1.22
						c0.573,0.376,1.107,0.827,1.705,1.182c1.155,0.772,2.351,1.477,3.504,2.092c0.583,0.29,1.144,0.587,1.689,0.84
						c0.55,0.242,1.067,0.489,1.559,0.686c0.979,0.401,1.819,0.713,2.421,0.903C178.068,152.025,178.433,152.11,178.433,152.111z"/>
				</g>
				<g>
					<path opacity="0.6" fill="#4A5B77" d="M146.114,90.186c0,0,2.114-9.297,16.379-3.681c14.265,5.615,5.623,15.124,5.623,15.124
						L146.114,90.186z"/>
					<g>
						<path fill="#223B60" d="M145.292,89.599c-0.018,0.008,0.308-0.175,0.826-0.377c0.263-0.099,0.583-0.215,0.956-0.319
							c0.37-0.116,0.797-0.203,1.26-0.3c0.466-0.078,0.97-0.166,1.508-0.203c0.535-0.067,1.103-0.059,1.688-0.077
							c0.583,0.016,1.188,0.034,1.796,0.093c0.605,0.084,1.227,0.118,1.831,0.256c0.607,0.121,1.219,0.218,1.802,0.394
							c0.585,0.165,1.17,0.291,1.71,0.497c0.545,0.192,1.077,0.361,1.569,0.55c0.487,0.205,0.947,0.398,1.372,0.577
							c0.856,0.338,1.519,0.734,2.006,0.957c0.479,0.239,0.753,0.376,0.753,0.376s-0.28-0.123-0.771-0.337
							c-0.498-0.198-1.177-0.558-2.047-0.851c-0.431-0.156-0.896-0.325-1.391-0.503c-0.498-0.163-1.033-0.303-1.581-0.464
							c-0.544-0.176-1.128-0.271-1.711-0.404c-0.581-0.144-1.187-0.208-1.785-0.296c-0.598-0.105-1.206-0.107-1.798-0.159
							c-0.593-0.026-1.178-0.014-1.74-0.001c-0.562,0.047-1.106,0.065-1.613,0.156c-0.512,0.061-0.983,0.169-1.419,0.265
							c-0.431,0.114-0.827,0.214-1.163,0.34c-0.342,0.113-0.627,0.235-0.86,0.336c-0.47,0.215-0.673,0.347-0.688,0.356
							L145.292,89.599z"/>
					</g>
					<radialGradient id="SVGID_14_" cx="156.5596" cy="96.9072" r="9.5445" gradientUnits="userSpaceOnUse">
						<stop  offset="0.577" style="stop-color:#FFEDA1"/>
						<stop  offset="1" style="stop-color:#FFED00"/>
					</radialGradient>
					<path fill="url(#SVGID_14_)" stroke="#25363D" stroke-miterlimit="10" d="M145.546,90.03c-1.678,3.237,1.984,8.463,8.18,11.674
						c6.197,3.212,12.578,3.191,14.256-0.045c0,0-2.82-6.632-9.016-9.843S145.546,90.03,145.546,90.03z"/>
					<linearGradient id="SVGID_15_" gradientUnits="userSpaceOnUse" x1="156.2803" y1="58.8711" x2="156.2803" y2="386.9382">
						<stop  offset="0.0114" style="stop-color:#93AFC6"/>
						<stop  offset="1" style="stop-color:#6B7A9A"/>
					</linearGradient>
					<path fill="url(#SVGID_15_)" stroke="#25363D" stroke-width="2" stroke-linejoin="bevel" stroke-miterlimit="10" d="
						M151.726,103.988c-6.076-3.433-7.813-10.719-6.021-13.893c0,0-0.38,1.401,7.431,6.796c7.81,5.395,14.391,4.647,14.391,4.647
						C165.733,104.711,157.801,107.422,151.726,103.988z"/>
					<path fill="#1D1D1B" d="M155.31,94.149c-1.979,0-3.584-1.604-3.584-3.584c0-0.229,0.026-0.452,0.066-0.669
						c2.117,0.242,4.541,0.806,6.844,1.984C158.112,93.208,156.823,94.149,155.31,94.149z"/>
				</g>
				<linearGradient id="SVGID_16_" gradientUnits="userSpaceOnUse" x1="126.4155" y1="0.3721" x2="126.4155" y2="11.497">
					<stop  offset="0" style="stop-color:#454C5E"/>
					<stop  offset="1" style="stop-color:#454C5E;stop-opacity:0"/>
				</linearGradient>
				<path fill="url(#SVGID_16_)" d="M126.416,2.384c2.905,0,10.809-1.199,10.809,5.245c0,3.635-7.661,9.035-10.809,9.035
					c-3.149,0-10.81-5.4-10.81-9.035C115.606,1.185,123.51,2.384,126.416,2.384z"/>
				<linearGradient id="SVGID_17_" gradientUnits="userSpaceOnUse" x1="95.3887" y1="49.2217" x2="146.2549" y2="49.2217">
					<stop  offset="0.0048" style="stop-color:#B8CEDD"/>
					<stop  offset="1" style="stop-color:#B8CEDD;stop-opacity:0"/>
				</linearGradient>
				<path opacity="0.5" fill="url(#SVGID_17_)" d="M126.522,22.573c9.84,0,15.983-6.982,22.964,0
					c6.981,6.982-0.899,56.4-22.964,56.4s-29.947-49.417-22.965-56.4C110.54,15.591,116.682,22.573,126.522,22.573z"/>
				<g>
					<g opacity="0.6">
						<path fill="#4A5B77" d="M205.271,125.141c-0.072,0.091-0.149,0.178-0.231,0.26c-0.004,0.001-0.007,0.003-0.01,0.005
							c0.003,0.001,0.006,0,0.01,0.002C205.119,125.321,205.196,125.232,205.271,125.141z"/>
						<path fill="#4A5B77" d="M212.318,101.464c-1.705-1.751-3.718-3.462-6.024-4.829c-5.521-3.269-10.084-4.787-16.4-6.887
							c-0.605-0.202-1.229-0.41-1.861-0.622c-6.459,11.899-13.497,23.065-26.74,29.445l3.002,13.8
							c12.082,17.896,28.689-0.399,40.736-6.966c-0.477-0.239-1.576,0.536-1.998,0.628c2.381-4.529,3.57-9.398,5.387-14.159
							C209.78,108.309,211.159,104.859,212.318,101.464z"/>
					</g>
					<g>
						<linearGradient id="SVGID_18_" gradientUnits="userSpaceOnUse" x1="183.8301" y1="58.8716" x2="183.8301" y2="386.9319">
							<stop  offset="0.0114" style="stop-color:#93AFC6"/>
							<stop  offset="1" style="stop-color:#6B7A9A"/>
						</linearGradient>
						<path fill="url(#SVGID_18_)" d="M180.531,156.294c1.828-2.028,5.126-5.983,5.126-5.983s14.201-15,17.801-21.6
							c-6.601,4.841-3.5,0.139-1.646-4.703c0.003-0.009,0.003-0.013,0.005-0.022c6.817-16.335,6.46-29.489,7.214-39.675
							c-0.26,4.212-4.199,8.64-4.199,8.64l0.9-17.04c0,0-7.32,15.586-12.3,20.7c-4.981,5.114-14.101,16.8-34.802,23.1"/>
						<path fill="#25363D" d="M180.531,156.294l2.809-3.506l1.404-1.753c0.453-0.584,0.949-1.175,1.448-1.729
							c1.967-2.251,3.896-4.539,5.799-6.842c0.964-1.142,1.877-2.323,2.816-3.482c0.948-1.154,1.826-2.356,2.733-3.536
							c0.449-0.593,0.912-1.178,1.323-1.791c0.42-0.609,0.845-1.213,1.308-1.79l0.666-0.885l0.581-0.917l1.161-1.831l1.47,1.285
							l-0.002,0.001c-0.801,0.583-1.606,1.154-2.535,1.676c-0.241,0.128-0.489,0.254-0.784,0.367
							c-0.163,0.055-0.307,0.112-0.532,0.148c-0.089,0.021-0.223,0.035-0.377,0.03c-0.12,0.008-0.337-0.03-0.534-0.108
							c-0.443-0.151-0.781-0.712-0.797-0.974c-0.068-0.316-0.043-0.513-0.026-0.694c0.044-0.358,0.121-0.632,0.203-0.894
							c0.333-1.029,0.738-1.901,1.12-2.798l0.569-1.325l0.498-1.228l0.041-0.119l1.756-4.693l0.439-1.173l0.354-1.201l0.703-2.404
							c0.223-0.804,0.493-1.596,0.678-2.41l0.537-2.447l0.537-2.447l0.394-2.477l0.39-2.478l0.276-2.498l0.266-2.499l0.184-2.514
							c0.251-3.349,0.394-6.73,0.627-10.123l1.995,0.135l-0.213,1.344c-0.037,0.224-0.066,0.451-0.146,0.654l-0.206,0.627
							l-0.208,0.626c-0.061,0.214-0.166,0.4-0.253,0.599l-0.548,1.171l-0.637,1.109c-0.206,0.374-0.46,0.712-0.688,1.07
							c-0.227,0.358-0.49,0.69-0.739,1.033c-0.257,0.345-0.513,0.661-0.812,1.01l-1.901,2.226l0.155-2.943l0.9-17.04l1.904,0.478
							l0,0c-1.215,2.521-2.431,5.018-3.782,7.459c-0.646,1.233-1.365,2.432-2.049,3.647c-0.675,1.22-1.453,2.391-2.174,3.587
							c-0.727,1.194-1.586,2.327-2.372,3.491c-0.41,0.575-0.913,1.107-1.365,1.661c-0.47,0.555-0.918,1.103-1.415,1.575
							l-2.902,2.975c-0.98,0.991-1.979,1.967-3.001,2.92c-1.023,0.953-2.078,1.871-3.148,2.77c-1.09,0.876-2.174,1.758-3.313,2.566
							c-1.112,0.846-2.297,1.589-3.451,2.371c-1.203,0.708-2.365,1.481-3.605,2.12l-1.837,0.996l-1.881,0.908
							c-1.238,0.636-2.547,1.122-3.823,1.668c-1.285,0.528-2.609,0.957-3.91,1.438l-3.977,1.222l3.908-1.412
							c1.273-0.544,2.568-1.034,3.819-1.621c1.243-0.606,2.512-1.152,3.72-1.822l1.83-0.967l1.781-1.051
							c1.201-0.675,2.322-1.482,3.481-2.222c1.111-0.814,2.25-1.586,3.313-2.459c1.093-0.835,2.127-1.742,3.165-2.641
							c1.02-0.921,2.021-1.86,2.993-2.833c1.952-1.94,3.765-3.997,5.645-6.065c0.488-0.506,0.907-1.039,1.322-1.551
							c0.412-0.527,0.86-1.012,1.245-1.571c0.74-1.147,1.543-2.24,2.233-3.428c0.687-1.19,1.424-2.343,2.068-3.562
							c0.652-1.213,1.337-2.404,1.955-3.638c1.262-2.447,2.534-4.903,3.716-7.38l0,0l2.169-4.546l-0.265,5.024l-0.9,17.04
							l-1.746-0.717c0.229-0.269,0.486-0.584,0.713-0.891c0.229-0.315,0.472-0.62,0.68-0.949c0.208-0.328,0.445-0.64,0.63-0.979
							l0.577-1.004l0.483-1.037c0.076-0.173,0.175-0.343,0.222-0.522l0.174-0.531l0.177-0.53c0.073-0.176,0.09-0.354,0.117-0.531
							l0.176-1.063l1.995,0.135c-0.23,3.352-0.372,6.727-0.626,10.12l-0.186,2.542l-0.271,2.542l-0.281,2.542l-0.397,2.531
							l-0.402,2.53l-0.55,2.505l-0.55,2.505c-0.19,0.833-0.466,1.646-0.694,2.469l-0.721,2.462l-0.363,1.23l-0.449,1.201
							l-1.798,4.805l0.041-0.118l-0.003,0.011l-0.032,0.102l-0.008,0.021l-0.018,0.043l-0.034,0.087l-0.067,0.174l-0.138,0.346
							l-0.282,0.685l-0.578,1.346c-0.379,0.883-0.783,1.777-1.045,2.594c-0.064,0.199-0.111,0.397-0.125,0.52
							c-0.012,0.057,0.001,0.108-0.013,0.027c0.011-0.017-0.153-0.367-0.38-0.422c-0.081-0.042-0.184-0.04-0.18-0.046
							c-0.032,0-0.046,0.008-0.017-0.002c0.016,0.003,0.099-0.029,0.166-0.05c0.157-0.06,0.342-0.152,0.529-0.25
							c0.762-0.427,1.545-0.973,2.309-1.532l0.001-0.001l4.231-3.032l-2.762,4.317l-1.251,1.955l-0.628,0.975l-0.68,0.911
							c-0.883,1.231-1.855,2.402-2.849,3.53c-0.995,1.13-1.963,2.285-2.99,3.38c-1.021,1.103-2.016,2.227-3.058,3.307
							c-2.06,2.182-4.138,4.34-6.256,6.464c-0.539,0.524-1.041,1.048-1.545,1.615l-1.517,1.656L180.531,156.294z"/>
					</g>
					<g>
						<path fill="#B8CEDD" d="M204.493,80.772c0,0-0.088,0.218-0.251,0.626c-0.174,0.405-0.383,1.018-0.679,1.778
							c-0.302,0.761-0.64,1.704-1.104,2.752c-0.229,0.526-0.474,1.087-0.73,1.678c-0.283,0.58-0.58,1.189-0.891,1.826
							c-0.298,0.645-0.682,1.276-1.04,1.952c-0.364,0.674-0.757,1.361-1.204,2.042c-0.438,0.687-0.89,1.392-1.35,2.113
							c-0.506,0.691-1.022,1.397-1.548,2.116c-0.509,0.732-1.116,1.405-1.7,2.112c-0.603,0.69-1.154,1.445-1.834,2.089
							c-1.313,1.333-2.622,2.717-4.087,3.933c-0.729,0.61-1.422,1.264-2.181,1.83c-0.761,0.562-1.519,1.122-2.271,1.678
							c-0.377,0.277-0.751,0.554-1.124,0.829c-0.38,0.264-0.784,0.488-1.171,0.732c-0.781,0.477-1.552,0.948-2.311,1.412
							c-0.38,0.23-0.756,0.458-1.129,0.685c-0.39,0.197-0.775,0.391-1.157,0.584c-0.765,0.379-1.513,0.751-2.241,1.112
							c-1.431,0.773-2.883,1.288-4.198,1.809c-1.325,0.498-2.505,1.034-3.619,1.327c-1.102,0.319-2.062,0.596-2.854,0.825
							c-1.583,0.432-2.488,0.678-2.488,0.678s0.857-0.383,2.356-1.054c0.751-0.322,1.663-0.714,2.708-1.163
							c0.529-0.206,1.073-0.47,1.637-0.77c0.569-0.284,1.168-0.583,1.793-0.894c1.245-0.629,2.618-1.251,3.979-2.085
							c0.688-0.398,1.396-0.806,2.12-1.224c0.363-0.206,0.729-0.415,1.1-0.625c0.355-0.234,0.714-0.471,1.075-0.71
							c1.428-0.98,2.972-1.891,4.386-3.031c0.723-0.548,1.452-1.1,2.184-1.654c0.729-0.557,1.389-1.203,2.09-1.798
							c1.436-1.159,2.715-2.483,4.005-3.757c0.662-0.621,1.216-1.333,1.828-1.976c0.591-0.664,1.207-1.293,1.726-1.985
							c0.542-0.674,1.074-1.338,1.595-1.987c0.491-0.673,0.973-1.332,1.44-1.973c0.481-0.634,0.894-1.288,1.306-1.913
							c0.406-0.629,0.837-1.215,1.182-1.819c0.723-1.189,1.386-2.285,1.935-3.28c0.552-0.998,1.032-1.868,1.429-2.584
							c0.39-0.726,0.71-1.285,0.94-1.66C204.372,80.973,204.493,80.772,204.493,80.772z"/>
					</g>
				</g>
				<g>
					<g>
						<path fill="#25363D" d="M96.568,44.269c0,0,0.247,1.54,0.618,3.849c0.194,1.15,0.379,2.513,0.594,3.963
							c0.224,1.449,0.404,3.005,0.603,4.555c0.107,0.773,0.169,1.556,0.251,2.321c0.075,0.767,0.165,1.518,0.206,2.251
							c0.05,0.732,0.098,1.439,0.143,2.11c0.02,0.672,0.038,1.308,0.055,1.895c0.02,0.586-0.017,1.125-0.021,1.601
							c-0.002,0.476-0.027,0.89-0.066,1.231c-0.061,0.68-0.096,1.068-0.096,1.068s0.003-0.39,0.01-1.071
							c0.012-0.34,0.004-0.753-0.032-1.227c-0.035-0.473-0.041-1.006-0.107-1.586c-0.063-0.579-0.132-1.206-0.205-1.87
							c-0.099-0.66-0.202-1.356-0.31-2.077c-0.098-0.721-0.248-1.46-0.383-2.213c-0.143-0.751-0.266-1.517-0.434-2.277
							c-0.321-1.522-0.623-3.045-0.96-4.463c-0.328-1.42-0.617-2.743-0.904-3.879c-0.554-2.272-0.924-3.787-0.924-3.787
							L96.568,44.269z"/>
					</g>
					<g>
						<path fill="#25363D" d="M158.235,44.664c0,0-0.37,1.515-0.925,3.787c-0.286,1.137-0.575,2.459-0.903,3.879
							c-0.337,1.417-0.639,2.941-0.96,4.463c-0.167,0.76-0.29,1.525-0.433,2.277c-0.135,0.753-0.285,1.492-0.383,2.213
							c-0.107,0.72-0.212,1.417-0.31,2.077c-0.073,0.664-0.142,1.291-0.205,1.87c-0.066,0.58-0.073,1.113-0.107,1.586
							c-0.036,0.474-0.044,0.886-0.032,1.227c0.006,0.682,0.01,1.071,0.01,1.071s-0.035-0.388-0.096-1.068
							c-0.039-0.341-0.064-0.755-0.066-1.231c-0.004-0.476-0.04-1.015-0.021-1.601c0.018-0.586,0.036-1.222,0.055-1.895
							c0.046-0.67,0.094-1.378,0.144-2.11c0.041-0.734,0.131-1.485,0.206-2.251c0.082-0.765,0.145-1.548,0.251-2.321
							c0.199-1.55,0.379-3.106,0.604-4.555c0.214-1.45,0.399-2.813,0.593-3.963c0.371-2.309,0.618-3.849,0.618-3.849L158.235,44.664
							z"/>
					</g>
				</g>
			</g>
			<g>
				<path opacity="0.6" fill="#4A5B77" d="M145.733,255.165c3.576-1.64,10.208-6.173,15.294-7.683
					c-69.18-0.763-79.715,52.57-80.88,89.718c0.285,0.354,8.581-6.239,6.945-2.999c-0.18,5.622-1.051,11.208-2.031,16.755
					c2.333,1.539,4.727,2.975,7.218,4.281c0.637-1.236,1.26-2.472,1.868-3.722c0.447,1.797,0.849,3.538,1.228,5.25
					c8.553,3.975,18.343,6.419,30.723,6.419c23.962,0,38.234-9.151,52.577-20.852c-1.171-4.801-2.619-9.561-4.182-14.214
					c2.38,4.052,4.929,7.766,7.32,11.621c1.367-1.143,2.741-2.302,4.132-3.477c1.444-1.22,2.916-2.458,4.402-3.7
					C192.176,298.989,181.947,253.896,145.733,255.165z"/>
				<linearGradient id="SVGID_19_" gradientUnits="userSpaceOnUse" x1="128.4287" y1="381.7031" x2="130.4287" y2="353.0375">
					<stop  offset="0" style="stop-color:#4A5B77"/>
					<stop  offset="1" style="stop-color:#2C3D56"/>
				</linearGradient>
				<path fill="url(#SVGID_19_)" stroke="#25363D" stroke-width="2" stroke-miterlimit="10" d="M100.835,316.78
					c-9.203,23.271,0.291,51.153,14.941,70.306c-1.57-5.377-2.662-11.416-1.874-16.95c3.998,6.65,11.874,10.145,19.239,11.846
					c-1.861-2.094-2.886-4.666-4.605-6.807c6.539,4.933,15.781,4.918,22.923,1.54c-2.134-1.506-4.034-5.298-5.571-6.557
					c32.828,8.497,17.456-56.359-3.053-65.044L100.835,316.78z"/>
				<linearGradient id="SVGID_20_" gradientUnits="userSpaceOnUse" x1="135.3486" y1="41.7798" x2="135.3486" y2="406.2923">
					<stop  offset="0.0114" style="stop-color:#93AFC6"/>
					<stop  offset="1" style="stop-color:#6B7A9A"/>
				</linearGradient>
				<path fill="url(#SVGID_20_)" stroke="#25363D" stroke-width="2" stroke-miterlimit="10" d="M157.296,243.098
					c-4.347,1.291-10.015,5.165-13.071,6.566c37.332-1.308,42.355,55.03,35.957,82.211c-0.006,0.493,0,0.492,0.02-0.002
					c-2.967-7.544-7.459-13.15-11.396-19.854c6.192,18.44,10.315,38.823-1.822,55.74c-0.441-10.297-3.051-20.803-10.032-27.926
					c-2.625,15.175,3.307,27.577,14.495,37.709c-13.649-6.823-25.352-17.412-33.16-30.391c3.658,9.971-1.451,22.016-2.938,34.963
					c-4.847-14.667-8.01-19.635-14.381-29.6c-7.133,3.933-10.317,10.258-11.799,19.6c-4.783-14.406-5.376-25.404-9.035-40.099
					c-2.965,6.099-6.299,11.765-10.497,19.661c0.239-11.275,4.093-22.778,4.467-34.46c1.397-2.77-5.692,2.865-5.936,2.563
					C89.164,288.03,98.168,242.446,157.296,243.098z"/>
				<g>
					<path fill="#B8CEDD" d="M146.119,247.543c0.516-0.288,1.049-0.591,1.603-0.906c1.438-0.821,2.969-1.694,4.498-2.477
						c-23.285,0.852-40.313,9.583-50.647,25.986c-3.962,6.29-6.951,13.671-9.017,22.246
						C98.736,270.713,113.135,250.837,146.119,247.543z"/>
					<path fill="#B8CEDD" d="M135.349,253.737c22.82-2.975,37.195,11.839,42.553,28.093c-2.491-8.629-5.532-15.849-9.224-19.762
						c-13.009-13.789-24.509-11.092-28.279-11.092C138.443,252.085,136.656,253.138,135.349,253.737z"/>
				</g>
				<linearGradient id="SVGID_21_" gradientUnits="userSpaceOnUse" x1="134.5771" y1="274.7295" x2="142.2362" y2="389.6089">
					<stop  offset="0" style="stop-color:#B8CEDD;stop-opacity:0"/>
					<stop  offset="1" style="stop-color:#B8CEDD"/>
				</linearGradient>
				<path fill="url(#SVGID_21_)" d="M136.481,261.074c-18-1.333-29.241,32.612-33.575,50.665c4.146-3.516,10.792-5.197,14.526-7.859
					c-5.348,11.351-6.591,24.153-3.798,36.362c2.056-6.296,6.676-11.388,9.065-17.108c-0.439,6.741,1.972,14.838,2.005,20.577
					c2.625-6.706,8.53-12.085,12.13-17.996c0.664,4.557,3.855,10.479,4.133,15.876c3.832-9.847,7.507-21.062,14.42-27.708
					c1.188,1.782,0.993,4.273,2.079,5.994c3.744-8.53,3.817-18.803,3.469-28.664c2.692,1.835,6.083,3.218,9.098,5.849
					C170.978,281.835,154.481,262.407,136.481,261.074z"/>
				<g>
					<path fill="#25363D" d="M117.5,277.112l-2.584,3.772l-2.325,3.922l-2.082,4.054l-1.853,4.161l-1.62,4.255l-1.412,4.328
						l-1.226,4.384l-1.029,4.434l-0.768-0.44l0.754-0.617c0.255-0.198,0.495-0.429,0.764-0.6c0.53-0.358,1.05-0.741,1.589-1.08
						c1.076-0.683,2.162-1.334,3.246-1.979c1.083-0.646,2.157-1.292,3.208-1.966c0.515-0.349,1.018-0.711,1.527-1.064
						c0.484-0.38,0.943-0.783,1.418-1.173l1.302-1.069l-0.53,1.573l-1.533,4.554l-1.32,4.62l-1.107,4.677l-0.894,4.724l-0.636,4.767
						l-0.37,4.797l-0.085,4.815l0.232,4.818l-0.464-4.81l-0.107-4.837c0.062-1.611,0.135-3.225,0.225-4.837l0.523-4.816l0.785-4.782
						l1.055-4.731l1.294-4.671l1.509-4.606l0.772,0.504c-0.496,0.417-0.983,0.85-1.489,1.252c-0.523,0.371-1.042,0.751-1.569,1.113
						c-1.071,0.695-2.147,1.371-3.243,2.002c-1.09,0.637-2.174,1.275-3.234,1.937c-0.533,0.328-1.033,0.691-1.551,1.035
						c-0.266,0.166-0.484,0.377-0.729,0.562l-0.716,0.575l-1.083,0.871l0.315-1.311l1.073-4.465l1.272-4.412l1.504-4.339l1.737-4.25
						l1.968-4.146l2.227-4.011l2.494-3.85L117.5,277.112z"/>
				</g>
				<g>
					<path fill="#25363D" d="M159.5,270.445c0.587,1.011,1.187,2.015,1.764,3.03c0.527,1.044,1.071,2.083,1.587,3.136
						c0.474,1.07,0.962,2.136,1.424,3.214c0.417,1.095,0.854,2.184,1.254,3.286l1.064,3.356l0.881,3.411l0.682,3.461l0.463,3.501
						l0.13,0.981l-0.794-0.637l-3.219-2.58l-3.347-2.391l0.692-0.371l-0.066,3.902l-0.243,3.896l-0.419,3.882l-0.596,3.858
						l-0.795,3.823l-0.968,3.781l-1.139,3.734l-1.305,3.678l-0.624,1.758l-0.239-1.888l-0.31-2.444
						c-0.025-0.413-0.173-0.803-0.268-1.202l-0.316-1.193c-0.094-0.398-0.261-0.791-0.388-1.188l-0.403-1.187l-0.745-2.437
						l0.761-0.055l-0.562,3.266l-0.808,3.209l-1.039,3.139c-0.419,1.02-0.825,2.043-1.254,3.056
						c-0.49,0.985-0.969,1.976-1.469,2.953l-1.642,2.856l-1.797,2.756l-1.949,2.647l1.821-2.732l1.693-2.808l1.533-2.895
						c0.462-0.988,0.902-1.986,1.354-2.978l1.175-3.048l0.96-3.118l0.728-3.178l0.483-3.22l0.244-1.623l0.517,1.568l0.778,2.365
						l0.425,1.191c0.131,0.402,0.298,0.784,0.4,1.203l0.339,1.238c0.102,0.416,0.256,0.82,0.287,1.25l0.341,2.551l-0.862-0.13
						l1.266-3.648l1.1-3.701l0.932-3.746l0.762-3.784l0.615-3.811l0.441-3.835l0.268-3.853l0.092-3.86l0.021-0.858l0.672,0.487
						l3.379,2.449l3.214,2.643l-0.664,0.345l-0.384-3.459l-0.601-3.433l-0.801-3.396l-0.985-3.35l-1.142-3.303
						c-0.422-1.085-0.871-2.161-1.306-3.244c-0.477-1.062-0.98-2.114-1.471-3.174L159.5,270.445z"/>
				</g>
			</g>
		</g>
	</g>
</g>
</svg>
