<?xml version="1.0" encoding="utf-8"?>
<!-- Generator: Adobe Illustrator 16.0.0, SVG Export Plug-In . SVG Version: 6.00 Build 0)  -->
<!DOCTYPE svg PUBLIC "-//W3C//DTD SVG 1.1//EN" "http://www.w3.org/Graphics/SVG/1.1/DTD/svg11.dtd">
<svg version="1.1" id="Layer_2" xmlns="http://www.w3.org/2000/svg" xmlns:xlink="http://www.w3.org/1999/xlink" x="0px" y="0px"
	 width="327.649px" height="380.875px" viewBox="0 0 327.649 380.875" enable-background="new 0 0 327.649 380.875"
	 xml:space="preserve">
<g>
	<g opacity="0.1">
		<path d="M296.995,137.482c-0.156-28.164-9.408-57.448-24.564-77.568c-1.475-2.997-3.932-7.816-6.059-11.135
			c0.429-2.07-1.438-4.407-2.996-3.771c-0.52-0.487-1.006-0.855-1.471-1.101c-0.263-0.633-0.542-1.187-0.817-1.585
			c-0.293-0.767-1.168-1.85-1.726-2.336c-0.631-2.063-1.605-4.331-3.224-5.209V4.139c0-1.041-0.307-1.98-0.792-2.708V1.034h-0.301
			C254.487,0.399,253.769,0,252.972,0H80.514c-0.795,0-1.515,0.399-2.072,1.034H78.14v0.396c-0.485,0.728-0.791,1.667-0.791,2.708
			V35.93c-0.876,1.113-1.502,2.555-1.949,4.057c-0.586,0.766-1.144,1.577-1.727,2.34c-0.271,0.529-0.542,1.056-0.816,1.581
			c-0.463,0.246-0.953,0.614-1.469,1.101c-1.562-0.637-3.42,1.699-2.998,3.771c-2.125,3.318-4.584,8.138-6.059,11.135
			C41.272,87.909,32.335,131.4,41.161,169.102c-0.052,0.229-0.108,0.455-0.155,0.687l0.346,0.121
			c1.618,6.681,3.798,12.944,6.58,18.383c0.01,0.123,0.013,0.248,0.024,0.37l0.155-0.026c1.285,2.473,2.689,4.774,4.229,6.855
			c2.156,15.775,17.475,27.467,25.117,30.912c5.625,10.901,13.956,16.331,24.992,16.292c2.628,6.558,5.854,12.667,9.583,18.212
			c3.229,33.775,18.896,33.901,39.009,40.742l-0.394,0.025l0.275,7.248l2.095-0.134c-7.511,12.061-12.295,20.093-8.875,37.38
			c-2.6,7.659-2.1,13.874,1.501,18.644c1.843,7.052,6.515,5.181,4.601-1.663c0.492-1.496,0.546-3,0.161-4.511
			c1.546,4.351,4.4-0.12,5.574-1.837c1.932-0.411,3.522-1.654,4.771-3.728c-0.094,1.667-0.332,3.614,0.792,4.905
			c-0.66,8.224,4.136,8.376,4.732,0.167c1.819-3.665,2.479-7.805,1.979-12.42c3.914,9.312-3.349,20.997-0.876,28.484
			c-4.091,7.055,0.692,9.609,4.639,2.182c2.167-1.368,3.639-3.668,4.415-6.896c0.368,0.218,0.744,0.327,1.132,0.327
			c2.42,0,2.864-4.947,3.175-6.953c3.058-1.881,2.35-9.308,2.888-12.61c0.09,0.292,0.217,0.556,0.382,0.787
			c-2.634,6.591,3.065,7.624,4.895,0.73c1.311-1.33,2.069-3.109,2.271-5.338c0.585,2.16,1.691,3.688,3.323,4.581
			c2.487,5.708,6.949,3.497,3.954-3.444c-0.045-2.165-0.653-4.066-1.827-5.703c0.872-0.412,1.602-1.203,1.882-2.365
			c1.131,9.799,6.496-7.806,6.37-6.819c13.513-11.512-16.328-22.949-21.652-25.851l0.412-0.026l-0.251-6.677
			c13.814,0,34.772-16.749,37.071-36.071c4.688-6.364,8.683-13.568,11.823-21.415c11.021,0.068,19.342-5.336,24.962-16.217
			c7.618-3.409,23.018-15.12,25.179-30.94c1.541-2.081,2.945-4.383,4.229-6.855l0.155,0.026c0.014-0.122,0.016-0.247,0.024-0.37
			c2.78-5.438,4.963-11.702,6.58-18.383l0.348-0.121c-0.049-0.231-0.104-0.458-0.157-0.687
			C295.967,158.986,297.065,147.977,296.995,137.482C296.963,131.921,297.065,147.977,296.995,137.482z M165.387,324.449
			c-0.399-1.491-0.625-3.015-0.678-4.575c0.292,1.256,0.622,2.491,0.979,3.714C165.586,323.875,165.486,324.161,165.387,324.449
			C165.088,323.316,165.42,324.356,165.387,324.449z M158.969,331.501c-0.688-1.43-1.095-2.946-1.22-4.544
			c0.142-0.288,0.287-0.578,0.431-0.867C158.885,327.991,159.49,329.675,158.969,331.501
			C158.395,330.056,159.49,329.675,158.969,331.501z M151.11,324.47c-0.393,0.803-0.77,1.602-1.133,2.403
			c0.299-1.144,0.711-2.215,1.203-3.245C151.148,323.911,151.127,324.191,151.11,324.47
			C150.717,325.272,151.127,324.191,151.11,324.47z M153.736,336.1c0.31,0.718,0.622,1.434,0.938,2.147
			c-0.181,0.225-0.364,0.446-0.545,0.669l-0.583,0.712c-0.5,0.569-1.007,1.124-1.524,1.664
			C152.514,339.55,153.09,337.821,153.736,336.1C153.89,336.452,153.09,337.821,153.736,336.1z M189.902,330.223
			c-0.94-1.502-1.892-3.029-2.823-4.577c1.567,1.799,2.864,3.757,3.721,6.011C190.5,331.178,190.2,330.698,189.902,330.223
			C188.961,328.721,190.2,330.698,189.902,330.223z M80.505,162.674c-0.667,1.105-1.32,2.481-1.951,4.053
			c-4.962,1.216-9.72,3.189-14.276,5.92c-16.146-28.749-5.056-72.086,9.998-96.201c1.219-0.783,2.28-1.929,3.073-3.363v64.191
			c0,1.041,0.305,1.981,0.791,2.71v0.395h0.303c0.557,0.637,1.276,1.035,2.072,1.035h22.229c-0.108,0.876-0.21,1.737-0.31,2.586
			c-8.063,4.368-15.571,10.351-21.867,18.585L80.505,162.674z M232.286,144.062c-0.102-0.87-0.205-1.752-0.315-2.648h21.002
			c0.797,0,1.515-0.398,2.073-1.035h0.301v-0.395c0.485-0.729,0.792-1.669,0.792-2.71V69.531l0.216,0.859
			c0.665,2.653,2.225,4.829,4.13,6.055c15.054,24.115,26.143,67.452,9.998,96.201c-4.572-2.741-9.35-4.719-14.332-5.935
			c-0.627-1.566-1.278-2.938-1.942-4.038l-0.063-0.09C247.879,154.389,240.372,148.423,232.286,144.062
			C232.184,143.191,240.372,148.423,232.286,144.062z M150.167,352.596c0.859-0.122,1.748-0.617,2.504-1.21
			c-0.307,0.5-0.471,1.06-0.476,1.646c-0.896,1.066-1.548,2.336-1.957,3.808C150.14,355.415,150.118,354,150.167,352.596
			C151.027,352.474,150.118,354,150.167,352.596z M184.362,341.637c0.262,1.605,0.228,3.265-0.225,4.978
			C184.323,344.977,184.42,343.316,184.362,341.637z M198.635,337.827c0.038-7.891-3.192-14.57-10.102-20.883
			c29.093,9.349,2.578,5.627,11.609,15.459c-0.228,1.55-0.734,3.078-1.241,4.562l-0.163,0.481
			C198.696,337.573,198.667,337.7,198.635,337.827C198.673,329.937,198.667,337.7,198.635,337.827z"/>
	</g>
	<g>
		<g>
			<g>
				<linearGradient id="SVGID_1_" gradientUnits="userSpaceOnUse" x1="39.3506" y1="54.1123" x2="43.8429" y2="56.3866">
					<stop  offset="0.0901" style="stop-color:#505050"/>
					<stop  offset="0.3154" style="stop-color:#8F929F"/>
					<stop  offset="0.5917" style="stop-color:#BEBEBE"/>
					<stop  offset="0.8163" style="stop-color:#8F929F"/>
					<stop  offset="1" style="stop-color:#505050"/>
				</linearGradient>
				<circle fill="url(#SVGID_1_)" stroke="#2B2B2B" stroke-miterlimit="10" cx="41.596" cy="55.248" r="2.517"/>
				<linearGradient id="SVGID_2_" gradientUnits="userSpaceOnUse" x1="52.3149" y1="71.6641" x2="30.8139" y2="61.1636">
					<stop  offset="0.0901" style="stop-color:#505050"/>
					<stop  offset="0.3154" style="stop-color:#8F929F"/>
					<stop  offset="0.5917" style="stop-color:#BEBEBE"/>
					<stop  offset="0.8163" style="stop-color:#8F929F"/>
					<stop  offset="1" style="stop-color:#505050"/>
				</linearGradient>
				<path fill="url(#SVGID_2_)" stroke="#2B2B2B" stroke-width="2" stroke-miterlimit="10" d="M50.406,76.598
					c-1.652,5.004-7.543,7.6-13.093,5.767c-5.548-1.831-8.737-7.424-7.085-12.428c0,0,7.23-11.78,11.316-15.506
					c2.506-2.286,4.199-2.854,5.752-2.305c5.51,1.948,10.49,2.118,8.837,7.122L50.406,76.598z"/>
				<g>
					
						<linearGradient id="SVGID_3_" gradientUnits="userSpaceOnUse" x1="49.7075" y1="48.9004" x2="55.7358" y2="48.9004" gradientTransform="matrix(0.8922 0.4517 -0.4517 0.8922 24.1696 -16.2306)">
						<stop  offset="0.0901" style="stop-color:#505050"/>
						<stop  offset="0.3154" style="stop-color:#8F929F"/>
						<stop  offset="0.5917" style="stop-color:#BEBEBE"/>
						<stop  offset="0.8163" style="stop-color:#8F929F"/>
						<stop  offset="1" style="stop-color:#505050"/>
					</linearGradient>
					<path fill="url(#SVGID_3_)" stroke="#2B2B2B" stroke-width="2" stroke-miterlimit="10" d="M50.463,54.697
						c0.225-0.26,1.573-1.445,1.813-4.873c0.241-3.428-3.158-2.065-3.158-2.065s-3.432,1.532-3.656,4.874
						C45.24,55.976,50.463,54.697,50.463,54.697z"/>
					
						<linearGradient id="SVGID_4_" gradientUnits="userSpaceOnUse" x1="50.1025" y1="44.1431" x2="55.8335" y2="44.1431" gradientTransform="matrix(0.8922 0.4517 -0.4517 0.8922 24.1696 -16.2306)">
						<stop  offset="0.0901" style="stop-color:#505050"/>
						<stop  offset="0.3154" style="stop-color:#8F929F"/>
						<stop  offset="0.5917" style="stop-color:#BEBEBE"/>
						<stop  offset="0.8163" style="stop-color:#8F929F"/>
						<stop  offset="1" style="stop-color:#505050"/>
					</linearGradient>
					<path fill="url(#SVGID_4_)" stroke="#2B2B2B" stroke-miterlimit="10" d="M53.448,42.945c1.707,0.863,0.528,5.553-0.388,7.369
						c-1.209,2.398-6.418,0.86-5.059-2.562C49.36,44.331,51.716,42.068,53.448,42.945z"/>
					
						<linearGradient id="SVGID_5_" gradientUnits="userSpaceOnUse" x1="49.001" y1="54.104" x2="56.5269" y2="54.104" gradientTransform="matrix(0.8922 0.4517 -0.4517 0.8922 24.1696 -16.2306)">
						<stop  offset="0.0901" style="stop-color:#505050"/>
						<stop  offset="0.3154" style="stop-color:#8F929F"/>
						<stop  offset="0.5917" style="stop-color:#BEBEBE"/>
						<stop  offset="0.8163" style="stop-color:#8F929F"/>
						<stop  offset="1" style="stop-color:#505050"/>
					</linearGradient>
					<path fill="url(#SVGID_5_)" stroke="#2B2B2B" stroke-miterlimit="10" d="M46.508,49.683c0.707,0.358,0.551,2.021,2.211,2.862
						s2,0.555,3.258-0.093s-3.295,10.497-7.458,8.39C40.552,58.833,45.385,49.114,46.508,49.683z"/>
				</g>
				<g>
					<path fill="#2B2B2B" d="M37.229,62.416c0,0,0.277,0.013,0.754,0.094c0.475,0.085,1.158,0.211,1.957,0.447
						c0.793,0.247,1.719,0.561,2.655,1.031c0.952,0.438,1.901,1.043,2.812,1.703c0.424,0.372,0.884,0.7,1.267,1.105
						c0.391,0.396,0.781,0.779,1.09,1.214c0.328,0.417,0.639,0.822,0.86,1.258c0.235,0.424,0.486,0.807,0.615,1.214
						c0.156,0.392,0.284,0.755,0.396,1.074c0.07,0.333,0.13,0.623,0.181,0.862c0.094,0.476,0.132,0.746,0.132,0.746
						s-0.125-0.251-0.318-0.688c-0.094-0.217-0.209-0.48-0.341-0.783c-0.173-0.283-0.367-0.6-0.561-0.949
						c-0.176-0.359-0.471-0.688-0.726-1.063c-0.247-0.383-0.587-0.728-0.911-1.102c-0.305-0.391-0.715-0.71-1.08-1.08
						c-0.364-0.372-0.81-0.67-1.211-1.014c-0.427-0.314-0.855-0.631-1.295-0.916c-0.452-0.267-0.871-0.574-1.319-0.805
						c-0.865-0.514-1.719-0.914-2.448-1.274c-0.739-0.334-1.358-0.629-1.806-0.795C37.484,62.518,37.229,62.416,37.229,62.416z"/>
				</g>
				<path opacity="0.4" fill="#3A3932" d="M57.022,55.646c-0.751-1.438-2.344-2.212-4.311-2.871c0.177-0.52,0.308-1.088,0.406-1.691
					c0.151-0.164,0.288-0.342,0.39-0.545c0.929-1.842,2.343-6.939,0.167-8.04c-0.319-0.161-0.663-0.243-1.022-0.243
					c-1.79,0-3.834,2.117-5.097,5.271c-0.689,0.481-1.543,1.227-2.184,2.262c-0.339,0.374-0.68,0.892-1.002,1.479
					c0.921,1.564,2.504,2.629,2.859,5.297c0.996,7.473,0.91,18.75-1.699,26.471c2.752-1.156,4.904-3.334,5.826-6.124l5.728-17.35
					C57.601,57.995,57.58,56.715,57.022,55.646z"/>
			</g>
			<g>
				<radialGradient id="SVGID_6_" cx="93.5703" cy="141.1191" r="119.0779" gradientUnits="userSpaceOnUse">
					<stop  offset="0.6207" style="stop-color:#505050"/>
					<stop  offset="0.6623" style="stop-color:#8F929F"/>
					<stop  offset="0.7091" style="stop-color:#BEBEBE"/>
					<stop  offset="0.7704" style="stop-color:#8F929F"/>
					<stop  offset="0.9688" style="stop-color:#505050"/>
				</radialGradient>
				<path fill="url(#SVGID_6_)" stroke="#2B2B2B" stroke-width="2" stroke-miterlimit="10" d="M24.594,201.726
					C3.291,186.431-1.789,150.241,2.295,126.417c3.826-22.315,15.055-45.353,31.517-60.988c3.767-4.107,20.017,6.393,12.253,15.688
					c-10.269,12.293-17.646,27.259-21.237,42.79C21,140.47,23.011,171.269,38.564,182.21
					C33.907,188.716,29.251,195.221,24.594,201.726z"/>
				<path opacity="0.4" fill="#3A3932" d="M26.111,164.577c-6.331,0-21.55,8.523-16.624,15.942
					c3.588,8.014,8.506,14.956,14.884,19.799l12.805-17.888C31.13,177.789,28.245,171.545,26.111,164.577z"/>
				<g>
					<path fill="none" stroke="#E6E7E8" stroke-miterlimit="10" d="M4.561,173.101c2.852-10.684,13.269-17.669,20.932-11.403"/>
					<path fill="none" stroke="#E6E7E8" stroke-miterlimit="10" d="M1.558,155.531c4.355-11.678,15.555-13.016,21.608-6.224"/>
					<path fill="none" stroke="#E6E7E8" stroke-miterlimit="10" d="M1.624,132.302c6.124-4.296,17.455-4.336,21.752,1.853"/>
					<path fill="none" stroke="#E6E7E8" stroke-miterlimit="10" d="M5.229,112.568c6.771-0.296,20.142,0.68,20.961,6.406"/>
					<path fill="none" stroke="#E6E7E8" stroke-miterlimit="10" d="M12.294,95.382c7.103-0.12,14.75,2.31,20.269,6.255"/>
					<path fill="none" stroke="#E6E7E8" stroke-miterlimit="10" d="M22.169,78.632c6.961,1.271,14.089,4.523,18.464,9.528"/>
					<path fill="none" stroke="#E6E7E8" stroke-miterlimit="10" d="M13.359,191.147c-1.154-8.872,8.497-21.369,17.585-16.972"/>
				</g>
				<g>
					<path fill="none" stroke="#2B2B2B" stroke-miterlimit="10" d="M4.971,172.5c0-9.75,12.608-17.569,20.432-11.304"/>
					<path fill="none" stroke="#2B2B2B" stroke-miterlimit="10" d="M1.968,154.931c3.003-11.716,15.278-12.548,21.408-6.023"/>
					<path fill="none" stroke="#2B2B2B" stroke-miterlimit="10" d="M1.624,132.203c5.289-5.061,18.705-4.237,21.752,1.951"/>
					<path fill="none" stroke="#2B2B2B" stroke-miterlimit="10" d="M5.229,112.568c7.069-1.289,18.41-0.096,21.372,5.806"/>
					<path fill="none" stroke="#2B2B2B" stroke-miterlimit="10" d="M12.704,94.781c7.103-0.12,14.75,2.31,20.269,6.255"/>
					<path fill="none" stroke="#2B2B2B" stroke-miterlimit="10" d="M22.579,78.031c6.961,1.271,14.089,4.523,18.464,9.528"/>
					<path fill="none" stroke="#2B2B2B" stroke-miterlimit="10" d="M13.77,190.547c-2.69-10.511,9.069-20.568,17.085-16.771"/>
				</g>
				<path fill="none" stroke="#2B2B2B" stroke-width="2" stroke-miterlimit="10" d="M24.594,201.87
					c-21.303-15.296-26.383-51.484-22.299-75.31c3.826-22.315,15.055-45.353,31.517-60.987c3.767-4.107,20.017,6.393,12.253,15.687
					c-10.269,12.293-17.646,27.259-21.237,42.79c-3.829,16.564-1.817,47.363,13.735,58.305
					C33.907,188.859,29.251,195.364,24.594,201.87z"/>
			</g>
			<g>
				<linearGradient id="SVGID_7_" gradientUnits="userSpaceOnUse" x1="19.7783" y1="66.0684" x2="44.7783" y2="78.5684">
					<stop  offset="0" style="stop-color:#FFFFFF"/>
					<stop  offset="0.8823" style="stop-color:#FFFFFF;stop-opacity:0"/>
				</linearGradient>
				<path fill="url(#SVGID_7_)" d="M27.364,77.216c0,0,5.851-8.517,8.2-9.425c2.349-0.909,9.77,2.457,9.893,9.774
					c-0.527,3.673-4.824,6.4-4.824,6.4S34.829,78.632,27.364,77.216z"/>
				<linearGradient id="SVGID_8_" gradientUnits="userSpaceOnUse" x1="11.6997" y1="82.229" x2="36.6982" y2="94.7283">
					<stop  offset="0" style="stop-color:#FFFFFF"/>
					<stop  offset="0.8823" style="stop-color:#FFFFFF;stop-opacity:0"/>
				</linearGradient>
				<path fill="url(#SVGID_8_)" d="M15.914,92.716c0,0,6.509-10.442,7.462-11.222c0.953-0.778,12.649,3.111,13.853,6.666
					c-1.665,3.056-5.718,10.047-5.718,10.047S27.749,93.466,15.914,92.716z"/>
				
					<linearGradient id="SVGID_9_" gradientUnits="userSpaceOnUse" x1="2.1987" y1="98.2861" x2="27.1972" y2="110.7854" gradientTransform="matrix(1.011 -0.1495 0.1599 1.0812 -15.8682 -6.2174)">
					<stop  offset="0" style="stop-color:#FFFFFF"/>
					<stop  offset="0.8823" style="stop-color:#FFFFFF;stop-opacity:0"/>
				</linearGradient>
				<path fill="url(#SVGID_9_)" d="M8.418,110.576c0,0,4.911-12.264,5.75-13.248c0.839-0.985,13.286,1.473,15.071,5.135
					c-1.195,3.553-4.174,11.719-4.174,11.719S20.504,109.617,8.418,110.576z"/>
				
					<linearGradient id="SVGID_10_" gradientUnits="userSpaceOnUse" x1="-6.5215" y1="112.0811" x2="18.4785" y2="124.5811" gradientTransform="matrix(0.949 -0.3793 0.4056 1.0149 -43.1777 3.8045)">
					<stop  offset="0" style="stop-color:#FFFFFF"/>
					<stop  offset="0.8823" style="stop-color:#FFFFFF;stop-opacity:0"/>
				</linearGradient>
				<path fill="url(#SVGID_10_)" d="M3.963,128.399c0,0,2.442-12.466,3.031-13.618c0.588-1.152,13.747-0.508,15.879,3.355
					c-0.341,3.732-1.751,11.466-1.751,11.466S15.5,124.672,3.963,128.399z"/>
				
					<linearGradient id="SVGID_11_" gradientUnits="userSpaceOnUse" x1="-15.1387" y1="125.3672" x2="9.8639" y2="137.8685" gradientTransform="matrix(0.8708 -0.5349 0.5721 0.9313 -63.4722 15.2219)">
					<stop  offset="0" style="stop-color:#FFFFFF"/>
					<stop  offset="0.8823" style="stop-color:#FFFFFF;stop-opacity:0"/>
				</linearGradient>
				<path fill="url(#SVGID_11_)" d="M3.204,147.841c0,0-0.582-13.558,0.241-14.556c3.035-3.683,14.862-2.835,17.619,0.61
					c0.298,3.736,0.221,11.597,0.221,11.597S13.829,137.716,3.204,147.841z"/>
				
					<linearGradient id="SVGID_12_" gradientUnits="userSpaceOnUse" x1="-23.8296" y1="136.416" x2="1.1691" y2="148.9154" gradientTransform="matrix(0.6423 -0.7949 0.8502 0.6869 -102.7953 48.0807)">
					<stop  offset="0" style="stop-color:#FFFFFF"/>
					<stop  offset="0.8823" style="stop-color:#FFFFFF;stop-opacity:0"/>
				</linearGradient>
				<path fill="url(#SVGID_12_)" d="M5.362,165.308c0,0-1.706-9.12-1.399-10.377c1.628-6.67,9.415-10.382,16.491-5.965
					c0.839,3.875,2.167,8.893,2.167,8.893S12.149,154.931,5.362,165.308z"/>
				
					<linearGradient id="SVGID_13_" gradientUnits="userSpaceOnUse" x1="-28.8901" y1="146.5347" x2="-3.8902" y2="159.0347" gradientTransform="matrix(0.6423 -0.7949 0.8502 0.6869 -102.7953 48.0807)">
					<stop  offset="0" style="stop-color:#FFFFFF"/>
					<stop  offset="0.8823" style="stop-color:#FFFFFF;stop-opacity:0"/>
				</linearGradient>
				<path fill="url(#SVGID_13_)" d="M8.003,174.855l-1.343-3.974c1.261-4.366,9.049-13.791,17.106-8.916l0.575,1.841
					C24.342,163.807,14.79,164.479,8.003,174.855z"/>
			</g>
		</g>
		<g>
			<g>
				<g>
					
						<linearGradient id="SVGID_14_" gradientUnits="userSpaceOnUse" x1="369.0112" y1="54.1113" x2="373.5044" y2="56.386" gradientTransform="matrix(-1 0 0 1 657.3096 0)">
						<stop  offset="0.0901" style="stop-color:#505050"/>
						<stop  offset="0.3154" style="stop-color:#8F929F"/>
						<stop  offset="0.5917" style="stop-color:#BEBEBE"/>
						<stop  offset="0.8163" style="stop-color:#8F929F"/>
						<stop  offset="1" style="stop-color:#505050"/>
					</linearGradient>
					<circle fill="url(#SVGID_14_)" stroke="#2B2B2B" stroke-miterlimit="10" cx="286.052" cy="55.248" r="2.517"/>
					
						<linearGradient id="SVGID_15_" gradientUnits="userSpaceOnUse" x1="381.9751" y1="71.6646" x2="360.4751" y2="61.1645" gradientTransform="matrix(-1 0 0 1 657.3096 0)">
						<stop  offset="0.0901" style="stop-color:#505050"/>
						<stop  offset="0.3154" style="stop-color:#8F929F"/>
						<stop  offset="0.5917" style="stop-color:#BEBEBE"/>
						<stop  offset="0.8163" style="stop-color:#8F929F"/>
						<stop  offset="1" style="stop-color:#505050"/>
					</linearGradient>
					<path fill="url(#SVGID_15_)" stroke="#2B2B2B" stroke-width="2" stroke-miterlimit="10" d="M277.242,76.598
						c1.652,5.004,7.544,7.6,13.094,5.767c5.548-1.831,8.736-7.424,7.084-12.428c0,0-7.229-11.78-11.315-15.506
						c-2.507-2.286-4.198-2.854-5.753-2.305c-5.51,1.948-10.489,2.118-8.837,7.122L277.242,76.598z"/>
					<g>
						
							<linearGradient id="SVGID_16_" gradientUnits="userSpaceOnUse" x1="343.8149" y1="-99.999" x2="349.8433" y2="-99.999" gradientTransform="matrix(-0.8922 0.4517 0.4517 0.8922 633.1395 -16.2306)">
							<stop  offset="0.0901" style="stop-color:#505050"/>
							<stop  offset="0.3154" style="stop-color:#8F929F"/>
							<stop  offset="0.5917" style="stop-color:#BEBEBE"/>
							<stop  offset="0.8163" style="stop-color:#8F929F"/>
							<stop  offset="1" style="stop-color:#505050"/>
						</linearGradient>
						<path fill="url(#SVGID_16_)" stroke="#2B2B2B" stroke-width="2" stroke-miterlimit="10" d="M277.185,54.697
							c-0.226-0.26-1.574-1.445-1.814-4.873s3.158-2.065,3.158-2.065s3.432,1.532,3.656,4.874
							C282.408,55.976,277.185,54.697,277.185,54.697z"/>
						
							<linearGradient id="SVGID_17_" gradientUnits="userSpaceOnUse" x1="344.2104" y1="-104.7563" x2="349.9399" y2="-104.7563" gradientTransform="matrix(-0.8922 0.4517 0.4517 0.8922 633.1395 -16.2306)">
							<stop  offset="0.0901" style="stop-color:#505050"/>
							<stop  offset="0.3154" style="stop-color:#8F929F"/>
							<stop  offset="0.5917" style="stop-color:#BEBEBE"/>
							<stop  offset="0.8163" style="stop-color:#8F929F"/>
							<stop  offset="1" style="stop-color:#505050"/>
						</linearGradient>
						<path fill="url(#SVGID_17_)" stroke="#2B2B2B" stroke-miterlimit="10" d="M274.2,42.945c-1.706,0.863-0.528,5.553,0.388,7.369
							c1.209,2.398,6.418,0.86,5.059-2.562C278.289,44.331,275.931,42.068,274.2,42.945z"/>
						
							<linearGradient id="SVGID_18_" gradientUnits="userSpaceOnUse" x1="343.1079" y1="-94.7954" x2="350.6353" y2="-94.7954" gradientTransform="matrix(-0.8922 0.4517 0.4517 0.8922 633.1395 -16.2306)">
							<stop  offset="0.0901" style="stop-color:#505050"/>
							<stop  offset="0.3154" style="stop-color:#8F929F"/>
							<stop  offset="0.5917" style="stop-color:#BEBEBE"/>
							<stop  offset="0.8163" style="stop-color:#8F929F"/>
							<stop  offset="1" style="stop-color:#505050"/>
						</linearGradient>
						<path fill="url(#SVGID_18_)" stroke="#2B2B2B" stroke-miterlimit="10" d="M281.14,49.683
							c-0.707,0.358-0.551,2.021-2.212,2.862s-2.001,0.555-3.259-0.093s3.295,10.497,7.459,8.39
							C287.096,58.833,282.263,49.114,281.14,49.683z"/>
					</g>
					<g>
						<path fill="#2B2B2B" d="M290.419,62.416c0,0-0.255,0.102-0.702,0.281c-0.448,0.166-1.066,0.461-1.806,0.795
							c-0.729,0.36-1.584,0.76-2.448,1.274c-0.447,0.23-0.867,0.538-1.319,0.805c-0.439,0.285-0.868,0.601-1.295,0.916
							c-0.402,0.343-0.849,0.642-1.212,1.014c-0.364,0.37-0.774,0.689-1.079,1.08c-0.324,0.375-0.664,0.719-0.911,1.102
							c-0.255,0.375-0.551,0.704-0.727,1.063c-0.193,0.35-0.387,0.666-0.561,0.949c-0.132,0.302-0.246,0.566-0.341,0.783
							c-0.193,0.437-0.318,0.688-0.318,0.688s0.038-0.27,0.132-0.746c0.051-0.239,0.111-0.529,0.182-0.862
							c0.111-0.319,0.239-0.682,0.396-1.074c0.129-0.407,0.38-0.79,0.615-1.214c0.222-0.436,0.533-0.841,0.86-1.258
							c0.309-0.435,0.698-0.818,1.09-1.214c0.383-0.405,0.844-0.733,1.268-1.105c0.91-0.66,1.859-1.265,2.812-1.703
							c0.936-0.47,1.861-0.785,2.655-1.031c0.799-0.236,1.48-0.362,1.956-0.447C290.142,62.429,290.419,62.416,290.419,62.416z"/>
					</g>
					<path opacity="0.4" fill="#3A3932" d="M270.626,55.646c0.751-1.438,2.344-2.212,4.311-2.871
						c-0.178-0.52-0.309-1.088-0.406-1.691c-0.151-0.164-0.287-0.342-0.39-0.545c-0.929-1.842-2.343-6.939-0.167-8.04
						c0.318-0.161,0.662-0.243,1.021-0.243c1.79,0,3.834,2.117,5.098,5.271c0.688,0.481,1.543,1.227,2.184,2.262
						c0.339,0.374,0.68,0.892,1.002,1.479c-0.922,1.564-2.504,2.629-2.859,5.297c-0.996,7.473-0.91,18.75,1.699,26.471
						c-2.753-1.156-4.904-3.334-5.826-6.124l-5.729-17.35C270.047,57.995,270.068,56.715,270.626,55.646z"/>
				</g>
				<g>
					
						<radialGradient id="SVGID_19_" cx="423.2329" cy="141.1191" r="119.0788" gradientTransform="matrix(-1 0 0 1 657.3096 0)" gradientUnits="userSpaceOnUse">
						<stop  offset="0.6207" style="stop-color:#505050"/>
						<stop  offset="0.6623" style="stop-color:#8F929F"/>
						<stop  offset="0.7091" style="stop-color:#BEBEBE"/>
						<stop  offset="0.7704" style="stop-color:#8F929F"/>
						<stop  offset="0.9688" style="stop-color:#505050"/>
					</radialGradient>
					<path fill="url(#SVGID_19_)" stroke="#2B2B2B" stroke-width="2" stroke-miterlimit="10" d="M303.054,201.726
						c21.303-15.295,26.383-51.484,22.299-75.309c-3.826-22.315-15.056-45.353-31.518-60.988
						c-3.767-4.107-20.017,6.393-12.253,15.688c10.269,12.293,17.646,27.259,21.237,42.79c3.828,16.563,1.816,47.362-13.736,58.304
						C293.741,188.716,298.397,195.221,303.054,201.726z"/>
					<path opacity="0.4" fill="#3A3932" d="M301.537,164.577c6.332,0,21.551,8.523,16.624,15.942
						c-3.588,8.014-8.506,14.956-14.884,19.799l-12.805-17.888C296.518,177.789,299.403,171.545,301.537,164.577z"/>
					<g>
						<path fill="none" stroke="#E6E7E8" stroke-miterlimit="10" d="M323.087,173.101c-2.852-10.684-13.27-17.669-20.932-11.403"/>
						<path fill="none" stroke="#E6E7E8" stroke-miterlimit="10" d="M326.09,155.531c-4.354-11.678-15.556-13.016-21.608-6.224"/>
						<path fill="none" stroke="#E6E7E8" stroke-miterlimit="10" d="M326.024,132.302c-6.124-4.296-17.455-4.336-21.752,1.853"/>
						<path fill="none" stroke="#E6E7E8" stroke-miterlimit="10" d="M322.419,112.568c-6.771-0.296-20.142,0.68-20.961,6.406"/>
						<path fill="none" stroke="#E6E7E8" stroke-miterlimit="10" d="M315.354,95.382c-7.103-0.12-14.75,2.31-20.269,6.255"/>
						<path fill="none" stroke="#E6E7E8" stroke-miterlimit="10" d="M305.479,78.632c-6.961,1.271-14.089,4.523-18.464,9.528"/>
						<path fill="none" stroke="#E6E7E8" stroke-miterlimit="10" d="M314.289,191.147c1.154-8.872-8.496-21.369-17.586-16.972"/>
					</g>
					<g>
						<path fill="none" stroke="#2B2B2B" stroke-miterlimit="10" d="M322.677,172.5c0-9.75-12.608-17.569-20.432-11.304"/>
						<path fill="none" stroke="#2B2B2B" stroke-miterlimit="10" d="M325.68,154.931c-3.003-11.716-15.278-12.548-21.408-6.023"/>
						<path fill="none" stroke="#2B2B2B" stroke-miterlimit="10" d="M326.024,132.203c-5.288-5.061-18.705-4.237-21.752,1.951"/>
						<path fill="none" stroke="#2B2B2B" stroke-miterlimit="10" d="M322.419,112.568c-7.069-1.289-18.41-0.096-21.371,5.806"/>
						<path fill="none" stroke="#2B2B2B" stroke-miterlimit="10" d="M314.944,94.781c-7.103-0.12-14.75,2.31-20.269,6.255"/>
						<path fill="none" stroke="#2B2B2B" stroke-miterlimit="10" d="M305.069,78.031c-6.961,1.271-14.089,4.523-18.464,9.528"/>
						<path fill="none" stroke="#2B2B2B" stroke-miterlimit="10" d="M313.878,190.547c2.69-10.511-9.068-20.568-17.085-16.771"/>
					</g>
					<path fill="none" stroke="#2B2B2B" stroke-width="2" stroke-miterlimit="10" d="M303.054,201.87
						c21.303-15.296,26.383-51.484,22.299-75.31c-3.826-22.315-15.056-45.353-31.518-60.987
						c-3.767-4.107-20.017,6.393-12.253,15.687c10.269,12.293,17.646,27.259,21.237,42.79c3.828,16.564,1.816,47.363-13.736,58.305
						C293.741,188.859,298.397,195.364,303.054,201.87z"/>
				</g>
				<g>
					
						<linearGradient id="SVGID_20_" gradientUnits="userSpaceOnUse" x1="349.438" y1="66.0674" x2="374.4394" y2="78.5681" gradientTransform="matrix(-1 0 0 1 657.3096 0)">
						<stop  offset="0" style="stop-color:#FFFFFF"/>
						<stop  offset="0.8823" style="stop-color:#FFFFFF;stop-opacity:0"/>
					</linearGradient>
					<path fill="url(#SVGID_20_)" d="M300.284,77.216c0,0-5.851-8.517-8.2-9.425c-2.348-0.909-9.77,2.457-9.893,9.774
						c0.527,3.673,4.824,6.4,4.824,6.4S292.819,78.632,300.284,77.216z"/>
					
						<linearGradient id="SVGID_21_" gradientUnits="userSpaceOnUse" x1="341.3599" y1="82.2285" x2="366.3569" y2="94.7271" gradientTransform="matrix(-1 0 0 1 657.3096 0)">
						<stop  offset="0" style="stop-color:#FFFFFF"/>
						<stop  offset="0.8823" style="stop-color:#FFFFFF;stop-opacity:0"/>
					</linearGradient>
					<path fill="url(#SVGID_21_)" d="M311.734,92.716c0,0-6.509-10.442-7.462-11.222c-0.953-0.778-12.649,3.111-13.853,6.666
						c1.664,3.056,5.718,10.047,5.718,10.047S299.899,93.466,311.734,92.716z"/>
					
						<linearGradient id="SVGID_22_" gradientUnits="userSpaceOnUse" x1="321.2935" y1="142.4082" x2="346.2934" y2="154.9082" gradientTransform="matrix(-1.011 -0.1495 -0.1599 1.0812 673.1777 -6.2174)">
						<stop  offset="0" style="stop-color:#FFFFFF"/>
						<stop  offset="0.8823" style="stop-color:#FFFFFF;stop-opacity:0"/>
					</linearGradient>
					<path fill="url(#SVGID_22_)" d="M319.23,110.576c0,0-4.911-12.264-5.75-13.248c-0.84-0.985-13.286,1.473-15.072,5.135
						c1.195,3.553,4.175,11.719,4.175,11.719S307.144,109.617,319.23,110.576z"/>
					
						<linearGradient id="SVGID_23_" gradientUnits="userSpaceOnUse" x1="293.0122" y1="224.0264" x2="318.0136" y2="236.5271" gradientTransform="matrix(-0.949 -0.3793 -0.4056 1.0149 700.4873 3.8045)">
						<stop  offset="0" style="stop-color:#FFFFFF"/>
						<stop  offset="0.8823" style="stop-color:#FFFFFF;stop-opacity:0"/>
					</linearGradient>
					<path fill="url(#SVGID_23_)" d="M323.685,128.399c0,0-2.442-12.466-3.031-13.618c-0.588-1.152-13.747-0.508-15.879,3.355
						c0.341,3.732,1.752,11.466,1.752,11.466S312.148,124.672,323.685,128.399z"/>
					
						<linearGradient id="SVGID_24_" gradientUnits="userSpaceOnUse" x1="259.7202" y1="283.2354" x2="284.7215" y2="295.736" gradientTransform="matrix(-0.8708 -0.5349 -0.5721 0.9313 720.7817 15.2219)">
						<stop  offset="0" style="stop-color:#FFFFFF"/>
						<stop  offset="0.8823" style="stop-color:#FFFFFF;stop-opacity:0"/>
					</linearGradient>
					<path fill="url(#SVGID_24_)" d="M324.444,147.841c0,0,0.581-13.558-0.241-14.556c-3.034-3.683-14.861-2.835-17.618,0.61
						c-0.298,3.736-0.221,11.597-0.221,11.597S313.819,137.716,324.444,147.841z"/>
					
						<linearGradient id="SVGID_25_" gradientUnits="userSpaceOnUse" x1="178.8921" y1="371.0127" x2="203.892" y2="383.5127" gradientTransform="matrix(-0.6423 -0.7949 -0.8502 0.6869 760.1049 48.0807)">
						<stop  offset="0" style="stop-color:#FFFFFF"/>
						<stop  offset="0.8823" style="stop-color:#FFFFFF;stop-opacity:0"/>
					</linearGradient>
					<path fill="url(#SVGID_25_)" d="M322.286,165.308c0,0,1.706-9.12,1.399-10.377c-1.628-6.67-9.415-10.382-16.491-5.965
						c-0.839,3.875-2.167,8.893-2.167,8.893S315.5,154.931,322.286,165.308z"/>
					
						<linearGradient id="SVGID_26_" gradientUnits="userSpaceOnUse" x1="173.8325" y1="381.1309" x2="198.8325" y2="393.6309" gradientTransform="matrix(-0.6423 -0.7949 -0.8502 0.6869 760.1049 48.0807)">
						<stop  offset="0" style="stop-color:#FFFFFF"/>
						<stop  offset="0.8823" style="stop-color:#FFFFFF;stop-opacity:0"/>
					</linearGradient>
					<path fill="url(#SVGID_26_)" d="M319.644,174.855l1.344-3.974c-1.262-4.366-9.049-13.791-17.106-8.916l-0.575,1.841
						C303.306,163.807,312.858,164.479,319.644,174.855z"/>
				</g>
			</g>
			<g>
				
					<linearGradient id="SVGID_27_" gradientUnits="userSpaceOnUse" x1="367.9907" y1="169.2158" x2="367.9907" y2="222.2361" gradientTransform="matrix(-1 0 0 1 657.3096 0)">
					<stop  offset="0.1856" style="stop-color:#8C8B90"/>
					<stop  offset="0.4012" style="stop-color:#D8D8D8"/>
					<stop  offset="0.5963" style="stop-color:#AFADB2"/>
					<stop  offset="1" style="stop-color:#4E4F52"/>
				</linearGradient>
				<path fill="url(#SVGID_27_)" stroke="#2B2B2B" stroke-width="2" stroke-miterlimit="10" d="M273.089,227.696
					c6.02,0,35.479-13.98,35.479-33.48s-38.5-24.237-38.5-24.237L273.089,227.696z"/>
				<path opacity="0.4" fill="#3A3932" d="M271.131,171.143c2.076,0.323,6.65,1.133,11.876,2.637
					c8.123,20.898,6.513,36.896,3.041,47.768c-5,2.854-9.574,4.642-12.016,5.057L271.131,171.143z"/>
				<path fill="none" stroke="#2B2B2B" stroke-miterlimit="10" d="M271.337,194.216c0,0,21.234,2.66,37.231,0"/>
				<circle fill="#B1B5BF" stroke="#2B2B2B" stroke-miterlimit="10" cx="288.918" cy="189.72" r="3.165"/>
				<circle fill="#B1B5BF" stroke="#2B2B2B" stroke-miterlimit="10" cx="300.284" cy="190.167" r="2.651"/>
			</g>
		</g>
		<path fill="none" stroke="#1D1D1B" stroke-miterlimit="10" d="M163.524,202.855"/>
		<g>
			<linearGradient id="SVGID_28_" gradientUnits="userSpaceOnUse" x1="38.3291" y1="169.2153" x2="38.3291" y2="222.237">
				<stop  offset="0.1856" style="stop-color:#8C8B90"/>
				<stop  offset="0.4012" style="stop-color:#D8D8D8"/>
				<stop  offset="0.5963" style="stop-color:#AFADB2"/>
				<stop  offset="1" style="stop-color:#4E4F52"/>
			</linearGradient>
			<path fill="url(#SVGID_28_)" stroke="#2B2B2B" stroke-width="2" stroke-miterlimit="10" d="M54.559,227.696
				c-6.02,0-35.48-13.98-35.48-33.48s38.5-24.237,38.5-24.237L54.559,227.696z"/>
			<path opacity="0.4" fill="#3A3932" d="M56.517,171.143c-2.076,0.323-6.65,1.133-11.875,2.637
				c-8.124,20.898-6.513,36.896-3.041,47.768c5,2.854,9.574,4.642,12.015,5.057L56.517,171.143z"/>
			<path fill="none" stroke="#2B2B2B" stroke-miterlimit="10" d="M56.311,194.216c0,0-21.235,2.66-37.232,0"/>
			<circle fill="#B1B5BF" stroke="#2B2B2B" stroke-miterlimit="10" cx="38.729" cy="189.72" r="3.166"/>
			<circle fill="#B1B5BF" stroke="#2B2B2B" stroke-miterlimit="10" cx="27.364" cy="190.167" r="2.652"/>
		</g>
		<linearGradient id="SVGID_29_" gradientUnits="userSpaceOnUse" x1="139.2271" y1="135.9102" x2="196.727" y2="290.9104">
			<stop  offset="0" style="stop-color:#F9B831"/>
			<stop  offset="0.1456" style="stop-color:#F9EC31"/>
			<stop  offset="0.279" style="stop-color:#F9EC79"/>
			<stop  offset="0.4467" style="stop-color:#F9EC31"/>
			<stop  offset="0.9155" style="stop-color:#F9B831"/>
		</linearGradient>
		<path fill="url(#SVGID_29_)" stroke="#F7A731" stroke-width="2" stroke-miterlimit="10" d="M163.238,137.716
			c31.805,0,81.055,0.5,109.555,29c7.589,9.619,14.365,41.264,7.036,55.057c-3.57,6.721-7.743,11.469-10.036,12.943
			c-7,4.5-48.055,16-106.555,16s-98.445-11.5-105.445-16c-2.293-1.475-6.465-6.223-10.036-12.943
			c-7.329-13.793-0.553-45.438,7.036-55.057C83.293,138.216,131.432,137.716,163.238,137.716"/>
		<linearGradient id="SVGID_30_" gradientUnits="userSpaceOnUse" x1="57.4058" y1="158.1621" x2="95.4058" y2="220.1621">
			<stop  offset="0" style="stop-color:#ACAEB0"/>
			<stop  offset="0.1998" style="stop-color:#FFFFFB"/>
			<stop  offset="0.3714" style="stop-color:#BBBDBF"/>
			<stop  offset="0.7024" style="stop-color:#919295"/>
			<stop  offset="0.8327" style="stop-color:#E5E6E4"/>
			<stop  offset="1" style="stop-color:#B1B3B5"/>
		</linearGradient>
		<path fill="url(#SVGID_30_)" stroke="#58595B" stroke-miterlimit="10" d="M90.256,145.954
			c-8.287,2.698-16.231,6.282-23.459,11.037c-5.348,27.642-3.284,60.854-0.667,81.211c4.935,1.636,11.714,3.466,20.124,5.215
			C82.745,204.088,87.724,163.053,90.256,145.954z"/>
		<linearGradient id="SVGID_31_" gradientUnits="userSpaceOnUse" x1="252.1313" y1="136.7876" x2="247.6313" y2="230.7871">
			<stop  offset="0" style="stop-color:#ACAEB0"/>
			<stop  offset="0.1998" style="stop-color:#FFFFFB"/>
			<stop  offset="0.3714" style="stop-color:#BBBDBF"/>
			<stop  offset="0.7024" style="stop-color:#919295"/>
			<stop  offset="0.8327" style="stop-color:#E5E6E4"/>
			<stop  offset="1" style="stop-color:#B1B3B5"/>
		</linearGradient>
		<path fill="url(#SVGID_31_)" stroke="#58595B" stroke-miterlimit="10" d="M236.901,145.954c8.287,2.698,16.231,6.282,23.46,11.037
			c5.348,27.642,3.283,60.854,0.666,81.211c-4.935,1.636-11.714,3.466-20.123,5.215
			C244.412,204.088,239.433,163.053,236.901,145.954z"/>
		<g>
			<g>
				<g>
					<linearGradient id="SVGID_32_" gradientUnits="userSpaceOnUse" x1="135.9805" y1="360.2842" x2="142.9229" y2="360.2842">
						<stop  offset="0.0255" style="stop-color:#FDE04C"/>
						<stop  offset="0.1122" style="stop-color:#FDF0C5"/>
						<stop  offset="0.301" style="stop-color:#FDE573"/>
						<stop  offset="0.6429" style="stop-color:#FDECA8"/>
						<stop  offset="1" style="stop-color:#FDE04C"/>
					</linearGradient>
					<path fill="url(#SVGID_32_)" stroke="#F6921E" stroke-miterlimit="10" d="M136.019,357.945
						c0.323,2.314,1.123,4.554,2.252,6.597c1.56,2.822,5.878,0.301,4.317-2.523c-0.929-1.682-1.483-3.502-1.748-5.403
						c-0.188-1.352-1.892-2.071-3.075-1.746C136.324,355.266,135.831,356.597,136.019,357.945L136.019,357.945z"/>
				</g>
				<g>
					
						<linearGradient id="SVGID_33_" gradientUnits="userSpaceOnUse" x1="156.9072" y1="355.1357" x2="162.2563" y2="355.1357" gradientTransform="matrix(0.998 0.0629 -0.0629 0.998 22.3627 -9.7541)">
						<stop  offset="0.0255" style="stop-color:#FDE04C"/>
						<stop  offset="0.1122" style="stop-color:#FDF0C5"/>
						<stop  offset="0.301" style="stop-color:#FDE573"/>
						<stop  offset="0.6429" style="stop-color:#FDECA8"/>
						<stop  offset="1" style="stop-color:#FDE04C"/>
					</linearGradient>
					<path fill="url(#SVGID_33_)" stroke="#F6921E" stroke-miterlimit="10" d="M157.062,350.94c0.067,2.215-0.029,4.407-0.575,6.562
						c-0.334,1.32,0.181,2.709,1.549,3.18c1.206,0.415,2.844-0.228,3.179-1.549c0.66-2.606,0.917-5.193,0.836-7.878
						c-0.041-1.361-0.882-2.561-2.337-2.652C158.45,348.522,157.021,349.575,157.062,350.94L157.062,350.94z"/>
				</g>
				<g>
					<linearGradient id="SVGID_34_" gradientUnits="userSpaceOnUse" x1="161.5835" y1="372.208" x2="170.6001" y2="372.208">
						<stop  offset="0.0255" style="stop-color:#FDE04C"/>
						<stop  offset="0.1122" style="stop-color:#FDF0C5"/>
						<stop  offset="0.301" style="stop-color:#FDE573"/>
						<stop  offset="0.6429" style="stop-color:#FDECA8"/>
						<stop  offset="1" style="stop-color:#FDE04C"/>
					</linearGradient>
					<path fill="url(#SVGID_34_)" stroke="#F6921E" stroke-miterlimit="10" d="M165.92,368.454c-1.126,1.593-2.135,3.19-3.609,4.494
						c-1.021,0.902-0.919,2.616,0,3.535c1.007,1.008,2.516,0.902,3.535,0c1.779-1.572,3.031-3.584,4.391-5.506
						c0.789-1.114,0.202-2.776-0.896-3.42C168.087,366.823,166.706,367.344,165.92,368.454L165.92,368.454z"/>
				</g>
				<g>
					
						<linearGradient id="SVGID_35_" gradientUnits="userSpaceOnUse" x1="185.0337" y1="348.8262" x2="191.5034" y2="348.8262" gradientTransform="matrix(0.9958 0.0915 -0.0915 0.9958 32.0955 -15.9887)">
						<stop  offset="0.0255" style="stop-color:#FDE04C"/>
						<stop  offset="0.1122" style="stop-color:#FDF0C5"/>
						<stop  offset="0.301" style="stop-color:#FDE573"/>
						<stop  offset="0.6429" style="stop-color:#FDECA8"/>
						<stop  offset="1" style="stop-color:#FDE04C"/>
					</linearGradient>
					<path fill="url(#SVGID_35_)" stroke="#F6921E" stroke-miterlimit="10" d="M186.128,345.912
						c-0.158,1.318-0.809,2.497-1.495,3.617c-0.713,1.161-0.585,2.654,0.579,3.487c1.05,0.752,2.776,0.582,3.488-0.58
						c1.162-1.895,2.139-3.832,2.407-6.066C191.493,343.166,186.512,342.717,186.128,345.912L186.128,345.912z"/>
				</g>
				<g>
					<linearGradient id="SVGID_36_" gradientUnits="userSpaceOnUse" x1="197.3296" y1="347.0107" x2="204.3726" y2="347.0107">
						<stop  offset="0.0255" style="stop-color:#FDE04C"/>
						<stop  offset="0.1122" style="stop-color:#FDF0C5"/>
						<stop  offset="0.301" style="stop-color:#FDE573"/>
						<stop  offset="0.6429" style="stop-color:#FDECA8"/>
						<stop  offset="1" style="stop-color:#FDE04C"/>
					</linearGradient>
					<path fill="url(#SVGID_36_)" stroke="#F6921E" stroke-miterlimit="10" d="M197.668,346.392c0.348,0.58,0.692,1.161,1.024,1.75
						c0.139,0.247,0.271,0.498,0.401,0.75c0.084,0.165,0.166,0.332,0.246,0.5c0.126,0.283,0.15,0.335,0.075,0.153
						c0.521,1.258,1.64,2.141,3.076,1.746c1.191-0.328,2.267-1.813,1.746-3.076c-0.63-1.524-1.405-2.934-2.253-4.347
						c-0.699-1.167-2.234-1.592-3.42-0.896C197.4,343.653,196.966,345.223,197.668,346.392L197.668,346.392z"/>
				</g>
				<g>
					<linearGradient id="SVGID_37_" gradientUnits="userSpaceOnUse" x1="203.6235" y1="333.083" x2="210.8442" y2="333.083">
						<stop  offset="0.0255" style="stop-color:#FDE04C"/>
						<stop  offset="0.1122" style="stop-color:#FDF0C5"/>
						<stop  offset="0.301" style="stop-color:#FDE573"/>
						<stop  offset="0.6429" style="stop-color:#FDECA8"/>
						<stop  offset="1" style="stop-color:#FDE04C"/>
					</linearGradient>
					<path fill="url(#SVGID_37_)" stroke="#F6921E" stroke-miterlimit="10" d="M205.829,329.716
						c-0.256,1.904-1.138,3.75-1.908,5.488c-0.554,1.245-0.375,2.676,0.896,3.42c1.076,0.631,2.867,0.35,3.42-0.896
						c1.165-2.624,2.207-5.151,2.592-8.012c0.182-1.354-1.275-2.5-2.5-2.5C206.829,327.216,206.01,328.365,205.829,329.716
						L205.829,329.716z"/>
				</g>
				<g>
					<linearGradient id="SVGID_38_" gradientUnits="userSpaceOnUse" x1="142.5996" y1="352.4697" x2="150.5684" y2="352.4697">
						<stop  offset="0.0255" style="stop-color:#FDE04C"/>
						<stop  offset="0.1122" style="stop-color:#FDF0C5"/>
						<stop  offset="0.301" style="stop-color:#FDE573"/>
						<stop  offset="0.6429" style="stop-color:#FDECA8"/>
						<stop  offset="1" style="stop-color:#FDE04C"/>
					</linearGradient>
					<path fill="url(#SVGID_38_)" stroke="#F6921E" stroke-miterlimit="10" d="M146.312,348.948c-1.081,1.096-2.04,2.3-3,3.5
						c-0.851,1.062-1.043,2.492,0,3.535c0.883,0.884,2.683,1.065,3.535,0c0.96-1.2,1.919-2.404,3-3.5
						c0.957-0.97,0.968-2.567,0-3.535C148.889,347.99,147.268,347.979,146.312,348.948L146.312,348.948z"/>
				</g>
			</g>
			<g>
				<path fill="#29B473" stroke="#167244" stroke-miterlimit="10" d="M93.463,255.117c1.887,9.744,1.13,19.684,7.751,28.323
					c6.476,8.45,20.352,14.041,32.027,15.188c3.429,0.336,15.758,0.632,14.688,5.484c-0.867,3.931-5.933,7.114-8.659,10.167
					c-8.195,9.176-6.758,20.471-3.807,30.988c1.103,3.93,8.334,2.263,7.232-1.665c-1.489-5.305-2.535-10.564-1.991-16.025
					c0.586-5.872,4.954-9.857,9.189-14.178c6.14-6.265,8.271-13.625-1.41-18.24c-5.262-2.509-11.606-2.227-17.385-3.105
					c-6.891-1.048-14.605-4.477-19.868-8.262c-10.208-7.344-8.596-20.322-10.536-30.339
					C99.925,249.476,92.699,251.17,93.463,255.117L93.463,255.117z"/>
				<path opacity="0.77" fill="#105B34" d="M148.574,314.026l0.963-0.977c2.665-2.72,5.692-6.798,4.986-10.789
					c-0.471-2.659-2.575-4.896-6.254-6.65c-3.625-1.729-7.875-2.111-11.984-2.481c-1.739-0.157-3.538-0.318-5.261-0.581
					c-6.529-0.993-14.413-4.271-20.084-8.35c-7.969-5.733-8.877-14.604-9.755-23.182c-0.155-1.518-0.31-2.98-0.497-4.403
					c-0.542,0.34-1.08,0.699-1.607,1.103l0.5,3.75c-1.078,21.02,4.563,28.279,25.622,32.932c5.08,1.122,15.951,1.449,20.663,5.908
					c0.875,0.415,1.598,0.912,2.053,1.524c0.525,0.707,0.694,1.511,0.5,2.39c-0.089,0.402-0.225,0.794-0.386,1.178
					c-0.272,5.384-6.449,12.491-8.118,16.744c-3.038,7.747-3.502,15.538-3.041,23.78c0.323,0.354,0.654,0.674,0.991,0.973
					c0.387,0.095,0.732,0.116,0.921,0.116h0c1.255,0,2.467-0.53,3.089-1.35c0.426-0.562,0.541-1.209,0.34-1.924
					c-1.322-4.71-2.594-10.319-2.007-16.21C140.766,321.925,144.559,318.088,148.574,314.026z"/>
			</g>
			<path fill="#1E8E56" stroke="#105B34" stroke-miterlimit="10" d="M103.841,260.218c-5.456,9.305-4.556,19.713,4.991,26.881
				c9.04,6.786,20.961,5.308,31.948,7.529c5.406,1.094,10.23,4.039,10.185,9.07c-0.048,5.21-4.724,10.456-6.475,15.376
				c-1.703,4.783-0.436,9.022,1.975,13.418c3.202,5.836,7.361,10.725-0.038,15.573c-3.802,2.491,1.545,6.89,5.304,4.426
				c4.719-3.092,7.656-7.405,6.412-12.527c-1.274-5.248-6.142-9.654-6.976-14.915c-0.781-4.92,3.311-10.163,5.408-14.561
				c2.276-4.773,2.527-9.377-0.289-13.996c-5.145-8.442-18.614-8.78-28.356-9.666c-6.619-0.602-12.091-2.228-16.603-6.526
				c-4.975-4.739-4.083-11.681-1.01-16.922C112.435,259.767,105.967,256.592,103.841,260.218L103.841,260.218z"/>
			<g>
				<path fill="#29B473" stroke="#167244" stroke-miterlimit="10" d="M109.341,260.218c-6.708,9.751-4.717,20.403,7.7,25.863
					c6.018,2.647,12.705,2.973,19.349,3.214c5.631,0.204,11.167,0.646,14.057,5.181c3.476,5.455,2.206,13.188,1.982,19.122
					c-0.224,5.949,0.722,11.471,3.823,16.869c1.724,3.001,4.458,5.517,6.565,8.326c2.105,2.804,3.659,5.845,4.872,8.987
					c2.652,6.867,2.45,14.202-2.849,20.117c-2.9,3.236,3.616,6.352,6.476,3.159c9.207-10.275,5.591-24.022-1.325-34.436
					c-3.999-6.021-9.183-10.399-9.972-17.612c-0.666-6.083,0.507-12.189-0.227-18.29c-0.617-5.127-2.217-10.515-7.182-13.922
					c-4.225-2.898-9.806-3.431-15.07-3.713c-7.074-0.378-13.611-0.505-19.729-3.898c-6.918-3.838-5.582-10.593-1.995-15.808
					C118.229,259.871,111.748,256.719,109.341,260.218L109.341,260.218z"/>
				<path opacity="0.77" fill="#105B34" d="M169.576,336.897c-1.077-1.62-2.252-3.137-3.389-4.604
					c-3.124-4.03-6.074-7.837-6.665-13.23c-0.331-3.022-0.212-6.083-0.097-9.043c0.014-0.364,0.026-0.734,0.039-1.101
					c-3.383-0.212-5.419,1.455-6.511,4.189c-0.008,0.168-0.019,0.342-0.025,0.507c-0.243,6.441,0.951,11.717,3.757,16.602
					c1.043,1.815,2.504,3.495,3.917,5.12c0.885,1.018,1.8,2.07,2.614,3.155c1.709,2.277,3.14,4.845,4.375,7.768
					c0.851-2.635,1.713-5.59,2.425-8.656C169.867,337.369,169.732,337.134,169.576,336.897z"/>
			</g>
			<g>
				<path fill="#148449" stroke="#006838" stroke-miterlimit="10" d="M113.341,262.723c-3.951,5.911-7.052,13.289,0.381,18.283
					c8.513,5.717,19.09,4.121,29.056,5.263c13.826,1.583,15.266,17.7,16.931,26.67c2.329,12.539,10.063,22.881,15.753,34.416
					c1.814,3.679,9.074,2.069,7.232-1.665c-5.22-10.582-12.446-20.29-15.178-31.642c-2.52-10.474-2.945-21.283-12.369-29.441
					c-6.375-5.52-15.611-4.558-23.928-5.011c-4.424-0.241-11.327-1.263-14.084-4.549c-2.184-2.604,1.192-6.938,2.681-9.165
					C122.175,262.353,115.697,259.196,113.341,262.723L113.341,262.723z"/>
				<path opacity="0.77" fill="#105B34" d="M182.262,347.645c0.311-0.499,0.306-1.083-0.016-1.734
					c-1.641-3.326-3.514-6.623-5.324-9.811c-3.936-6.931-8.006-14.097-9.892-21.935c-0.468-1.944-0.868-3.925-1.256-5.84
					c-1.453-7.182-2.852-14.027-7.615-19.891c-1.12-0.384-2.309-0.636-3.581-0.719l-0.25,1.75c1.693,2.654,5.058,9.144,5.422,12.217
					c0.21,1.777-0.214,3.596-0.569,5.394c0.209,1.12,0.397,2.207,0.573,3.233c0.153,0.893,0.299,1.743,0.446,2.538
					c0.051,0.276,0.113,0.548,0.169,0.822c0.718-0.42,1.469-0.842,2.164-1.179c-0.76,1.316-1.228,2.682-1.471,4.065
					c1.472,5.35,3.845,10.31,6.535,15.292c7.164-2.285,7.324,3.77,5.989,10.814c0.797,1.476,1.581,2.966,2.323,4.471
					c0.556,1.127,1.807,1.8,3.347,1.8C180.576,348.934,181.783,348.416,182.262,347.645z"/>
			</g>
			<path fill="#29B473" stroke="#167244" stroke-miterlimit="10" d="M152.963,282.663c4.615,10.476,13.907,23.116,10.902,34.673
				c-0.626,2.411-1.895,4.727-2.886,7.042c-1.306,3.051-1.662,6.199-2.264,9.379c-1.172,6.192-2.744,12.317-2.886,18.608
				c-0.091,4.039,7.409,4.031,7.5,0c0.151-6.709,1.998-13.242,3.147-19.858c0.961-5.532,4.188-10.452,5.151-15.951
				c2.136-12.191-6.578-24.539-11.432-35.557C158.541,277.243,151.29,278.865,152.963,282.663L152.963,282.663z"/>
			<path fill="#1E8E56" stroke="#105B34" stroke-miterlimit="10" d="M222.962,258.039c2.547,11.161-8.935,21.33-18.909,27.262
				c-5.097,3.029-10.79,5.382-16.897,6.561c-4.849,0.937-11.153-0.319-15.031,3.016c-9.521,8.188,5.515,16.112,13.664,18.558
				c7.523,2.258,23.524,4.103,19.174,13.474c-1.75,3.771,5.504,5.387,7.232,1.665c4.552-9.807-4.798-15.475-14.689-18.519
				c-4.547-1.4-9.309-2.263-13.654-4.089c-2.563-1.078-5.97-2.691-7.05-5.061c-1.175-2.577,5.819-2.408,7.377-2.467
				c12.361-0.465,24.129-7.055,32.759-13.994c9.026-7.259,15.694-17.39,13.258-28.069
				C229.291,252.411,222.063,254.095,222.962,258.039L222.962,258.039z"/>
			<g>
				<path fill="#29B473" stroke="#167244" stroke-miterlimit="10" d="M216.462,258.461c-1.888,10.467-8.484,19.222-19.009,25.146
					c-9.033,5.084-21.272,5.73-29.419,11.876c-8.689,6.557,2.86,15.297,8.832,19.283c8.797,5.871,18.893,10.766,18.462,21.321
					c-0.165,4.039,7.336,4.026,7.5,0c0.376-9.201-5.327-15.702-13.617-21.227c-4.6-3.065-9.396-5.851-13.548-9.359
					c-1.285-1.086-3.535-3.047-3.063-4.767c0.401-1.462,3.642-2.479,5.015-3.049c4.776-1.979,10.035-3.056,14.919-4.826
					c5.471-1.983,10.388-4.575,14.934-7.793c8.881-6.285,14.507-15.405,16.228-24.941
					C224.407,256.178,217.181,254.48,216.462,258.461L216.462,258.461z"/>
				<g opacity="0.77">
					<path fill="#105B34" d="M217.992,257.055c-0.475,0.265-0.896,0.713-1.037,1.495c-1.925,10.67-8.583,19.485-19.256,25.493
						c-4.071,2.291-8.83,3.705-13.432,5.073c-5.646,1.677-11.484,3.412-15.932,6.767c-1.996,1.506-2.98,3.228-2.926,5.117
						c0.107,3.732,4.056,8.225,11.734,13.351c1.117,0.745,2.255,1.475,3.39,2.202c3.579,2.296,7.204,4.633,10.034,7.423
						c-2.396-3.007-2.663-5.57-3.214-9.727c-0.691-0.45-1.38-0.903-2.073-1.35c-3.371-2.168-6.857-4.41-9.94-7.016
						c-1.23-1.04-3.792-3.204-3.223-5.28c0.408-1.487,2.825-2.418,4.591-3.098c0.269-0.104,0.513-0.197,0.715-0.281
						c2.384-0.987,4.909-1.757,7.391-2.484c1.533-5.507,8.437-4.727,18.861-10.194C215.118,278.545,215.62,268.21,217.992,257.055z"
						/>
					<path fill="#105B34" d="M202.286,333.819c-1.44-1.235-3.134-2.442-4.715-3.606c-2.246-1.654-3.945-3.056-5.254-4.328
						c2.272,2.812,3.68,6.104,3.512,10.224c-0.026,0.627,0.166,1.158,0.57,1.58c0.556,0.578,1.51,0.924,2.552,0.924
						c1.577,0,3.307-0.796,3.378-2.545C202.36,335.303,202.337,334.557,202.286,333.819z"/>
				</g>
			</g>
			<path fill="#1E8E56" stroke="#105B34" stroke-miterlimit="10" d="M206.829,260.546c-0.339,4.78-6.231,8.434-10.309,11.204
				c-4.542,3.085-9.158,6.081-13.681,9.189c-8.734,6.004-19.455,13.237-19.768,23.491c-0.242,7.922,6.552,14.726,12.225,20.469
				c5.663,5.732,13.595,12.419,9.666,20.373c-1.844,3.732,5.415,5.343,7.232,1.665c8.186-16.573-18.146-26.353-21.503-40.854
				c-1.212-5.235,3.448-9.773,7.444-13.261c4.639-4.049,10.067-7.431,15.18-11.04c8.189-5.781,20.304-11.233,21.013-21.236
				C214.615,256.512,207.113,256.534,206.829,260.546L206.829,260.546z"/>
			<g>
				<path fill="#29B473" stroke="#167244" stroke-miterlimit="10" d="M210.462,261.383c-3.016,15.966-28.264,18.582-36.282,32.241
					c-11.339,19.314,13.169,36.46,21.66,52.391c1.963,3.684,8.424,0.495,6.477-3.159c-4.714-8.844-12.487-16.154-18.121-24.561
					c-4.993-7.449-7.861-17.718-0.995-25.011c10.578-11.235,31.454-14.146,34.494-30.236
					C218.441,259.1,211.214,257.404,210.462,261.383L210.462,261.383z"/>
				<g>
					<path fill="#41E592" d="M176.28,307.466c0,0,0.023,0.175,0.067,0.503c0.055,0.326,0.083,0.816,0.214,1.417
						c0.058,0.301,0.122,0.634,0.192,0.996c0.095,0.357,0.197,0.743,0.307,1.156c0.241,0.818,0.562,1.724,0.958,2.691
						c0.194,0.485,0.444,0.971,0.677,1.483c0.272,0.494,0.526,1.018,0.84,1.529c0.6,1.037,1.322,2.075,2.074,3.146
						c1.54,2.118,3.391,4.229,5.31,6.286c1.882,2.093,3.823,4.149,5.538,6.186c0.872,1.005,1.647,2.038,2.358,3.032
						c0.7,1.004,1.335,1.974,1.851,2.912c1.064,1.858,1.644,3.562,1.965,4.758c0.183,0.594,0.244,1.08,0.309,1.405
						c0.06,0.325,0.091,0.499,0.091,0.499s-0.05-0.17-0.144-0.487c-0.095-0.317-0.221-0.784-0.441-1.359
						c-0.396-1.163-1.146-2.756-2.263-4.528c-1.104-1.784-2.647-3.69-4.383-5.666c-1.727-1.985-3.696-4.001-5.618-6.077
						c-1.896-2.1-3.739-4.27-5.277-6.458c-0.767-1.096-1.44-2.205-2.005-3.296c-0.294-0.538-0.53-1.09-0.783-1.607
						c-0.214-0.538-0.444-1.046-0.62-1.553c-0.369-1.006-0.619-1.957-0.795-2.807c-0.077-0.427-0.15-0.826-0.217-1.194
						c-0.042-0.373-0.081-0.716-0.115-1.025c-0.09-0.616-0.051-1.104-0.075-1.434C176.285,307.643,176.28,307.466,176.28,307.466z"
						/>
				</g>
			</g>
			<g>
				<g>
					
						<linearGradient id="SVGID_39_" gradientUnits="userSpaceOnUse" x1="176.688" y1="359.9482" x2="181.8374" y2="359.9482" gradientTransform="matrix(0.9754 0.2205 -0.2205 0.9754 81.9185 -30.3169)">
						<stop  offset="0.0255" style="stop-color:#FDE04C"/>
						<stop  offset="0.1122" style="stop-color:#FDF0C5"/>
						<stop  offset="0.301" style="stop-color:#FDE573"/>
						<stop  offset="0.6429" style="stop-color:#FDECA8"/>
						<stop  offset="1" style="stop-color:#FDE04C"/>
					</linearGradient>
					<path fill="url(#SVGID_39_)" stroke="#F6921E" stroke-miterlimit="10" d="M175.512,357.393c-0.059,1.868-0.88,3.63-1.317,5.428
						c-0.764,3.135,4.114,4.232,4.877,1.103c0.558-2.29,1.362-4.374,1.438-6.765c0.043-1.363-1.335-2.44-2.615-2.381
						C176.456,354.844,175.556,356.031,175.512,357.393L175.512,357.393z"/>
				</g>
				<path fill="#29B473" stroke="#167244" stroke-miterlimit="10" d="M170.34,276.078c-8.95,12.782-10.446,25.56-4.427,39.491
					c2.856,6.61,7.839,12.453,10.457,19.095c2.848,7.227-1.253,14.594-1.542,21.875c-0.16,4.039,7.34,4.025,7.5,0
					c0.265-6.663,3.426-12.995,2.228-19.732c-1.111-6.248-5.117-11.431-8.433-16.984c-3.781-6.335-6.48-13.485-6.74-20.584
					c-0.265-7.2,3.166-13.907,7.434-20.001C179.262,275.744,172.779,272.596,170.34,276.078L170.34,276.078z"/>
				<g>
					<path fill="#41E592" d="M194.079,277.466c0,0-1.259,0.738-3.463,2.03c-1.104,0.641-2.427,1.449-3.937,2.385
						c-0.744,0.484-1.535,0.999-2.37,1.542c-0.811,0.577-1.689,1.144-2.566,1.791c-0.861,0.667-1.802,1.308-2.681,2.084
						c-0.449,0.377-0.905,0.76-1.368,1.149c-0.437,0.417-0.88,0.841-1.329,1.271c-1.761,1.744-3.498,3.728-4.837,6.062
						c-1.332,2.315-2.447,4.915-2.772,7.72c-0.354,2.786-0.288,5.664,0.345,8.5c0.597,2.768,1.652,5.5,2.844,8.081
						c1.195,2.593,2.526,5.086,3.745,7.545c1.229,2.453,2.312,4.896,3.104,7.305c0.788,2.4,1.307,4.777,1.447,6.972
						c0.166,2.207,0.124,4.233-0.024,6.011c-0.132,1.78-0.334,3.321-0.505,4.588c-0.371,2.529-0.633,3.966-0.633,3.966
						s0.16-1.45,0.439-3.989c0.122-1.271,0.264-2.813,0.327-4.585c0.075-1.773,0.036-3.771-0.163-5.926
						c-0.192-2.176-0.751-4.458-1.579-6.801c-0.831-2.342-1.964-4.716-3.189-7.151c-2.438-4.865-5.478-9.965-6.797-15.841
						c-0.619-2.872-0.68-5.921-0.282-8.812c0.365-2.927,1.549-5.638,2.949-8.025c1.396-2.42,3.246-4.406,5.078-6.142
						c0.468-0.427,0.929-0.847,1.383-1.261c0.479-0.384,0.951-0.762,1.415-1.133c0.91-0.767,1.874-1.391,2.759-2.043
						c0.901-0.629,1.793-1.189,2.631-1.736c0.859-0.513,1.673-0.999,2.438-1.457c1.55-0.88,2.903-1.638,4.033-2.236
						C192.774,278.12,194.079,277.466,194.079,277.466z"/>
				</g>
			</g>
			<path fill="#29B473" stroke="#167244" stroke-miterlimit="10" d="M176.34,276.078c-5.989,7.469-12.206,14.811-17.366,22.713
				c-4.311,6.602-9.918,14.821-7.411,22.517c0.986,3.026,3.599,5.759,1.703,8.945c-1.602,2.693-4.217,4.995-6.588,7.222
				c-2.264,2.125-9.126,6.442-7.714,9.88c1.56,3.795,6.395,0.74,7.8-0.644c0.754-0.742,1.555-1.454,2.342-2.172
				c2.243-2.048,4.476-4.098,6.57-6.253c4.271-4.396,7.006-8.688,5.04-14.456c-1.224-3.589-3.183-5.912-1.77-9.812
				c1.507-4.16,4.089-8.235,6.504-12.066c5.012-7.95,11.393-15.263,17.367-22.714C185.515,275.871,179.016,272.741,176.34,276.078
				L176.34,276.078z"/>
			<g>
				<path fill="#29B473" stroke="#167244" stroke-miterlimit="10" d="M161.463,276.408c-3.236,6.75-0.806,14.049-2.608,21.004
					c-1.959,7.562-7.407,14.426-12.179,20.932c-8.881,12.11-14.759,26.413-11.713,40.696c0.847,3.971,8.074,2.283,7.232-1.664
					c-3.181-14.92,5.621-28.314,14.418-40.647c4.229-5.928,8.058-12.191,9.815-18.975c1.689-6.519-0.754-13.385,2.266-19.682
					C170.494,274.321,163.237,272.708,161.463,276.408L161.463,276.408z"/>
				<g>
					<path fill="#41E592" d="M165.891,283.675c0,0,0.017,0.312,0.049,0.899c0.03,0.587,0.104,1.443,0.054,2.548
						c-0.004,0.552-0.022,1.164-0.089,1.825c-0.05,0.663-0.101,1.383-0.223,2.144c-0.172,1.534-0.554,3.238-1.064,5.072
						c-0.547,1.823-1.25,3.77-2.162,5.753c-0.918,1.979-2.001,4.009-3.241,6.027c-1.237,2.021-2.574,4.065-4,6.082
						c-1.421,2.01-2.864,4.05-4.308,6.091c-1.44,2.03-2.843,4.077-4.122,6.146c-1.271,2.072-2.47,4.138-3.466,6.218
						c-1.006,2.074-1.82,4.148-2.466,6.158c-0.647,2.003-1.09,3.969-1.462,5.797c-0.369,1.817-0.632,3.508-0.827,5.008
						c-0.175,1.503-0.259,2.822-0.284,3.91c-0.003,0.545-0.006,1.032-0.008,1.455c0.004,0.424,0.036,0.783,0.047,1.076
						c0.031,0.587,0.047,0.899,0.047,0.899s-0.054-0.309-0.155-0.887c-0.116-0.578-0.239-1.434-0.32-2.533
						c-0.075-1.099-0.11-2.438-0.07-3.977c0.056-1.537,0.165-3.269,0.438-5.148c0.25-1.867,0.572-3.904,1.161-6.02
						c0.57-2.11,1.305-4.312,2.301-6.479c0.982-2.172,2.115-4.362,3.417-6.486c1.292-2.131,2.696-4.228,4.134-6.287
						c1.464-2.029,2.928-4.059,4.369-6.057c1.422-1.998,2.831-3.948,4.086-5.9c1.254-1.951,2.414-3.865,3.392-5.746
						c0.961-1.887,1.764-3.721,2.413-5.454c0.288-0.877,0.598-1.711,0.813-2.526c0.118-0.406,0.234-0.802,0.346-1.187
						c0.09-0.39,0.178-0.77,0.263-1.137c0.187-0.732,0.298-1.431,0.406-2.077c0.123-0.646,0.194-1.241,0.247-1.781
						c0.134-1.078,0.194-1.941,0.226-2.527C165.871,283.987,165.891,283.675,165.891,283.675z"/>
				</g>
			</g>
			<path fill="#29B473" stroke="#167244" stroke-miterlimit="10" d="M119.341,265.644c-3.485,5.181-4.744,11.563,1.984,15.269
				c5.831,3.212,14.292,1.677,20.146-0.552c4.396-1.673,0.581-7.067-3.785-5.406c-3.496,1.331-7.646,1.926-11.382,1.02
				c-4.245-1.03-1.965-4.973-0.487-7.17C128.188,265.279,121.708,262.124,119.341,265.644L119.341,265.644z"/>
			<path opacity="0.77" fill="#105B34" d="M98.204,259.113c0,0,8.156,37.853,66.828,37.853c58.672,0,59.752-31.455,58.837-37.853
				S98.204,259.113,98.204,259.113z"/>
			<g>
				<path fill="#41E592" d="M166.829,321.966c0,0-0.052,0.45-0.142,1.237c-0.126,0.782-0.195,1.915-0.479,3.246
					c-0.264,1.334-0.538,2.905-0.94,4.551c-0.375,1.657-0.829,3.403-1.271,5.154c-0.44,1.747-0.906,3.49-1.29,5.132
					c-0.181,0.822-0.425,1.606-0.573,2.363c-0.163,0.757-0.316,1.472-0.458,2.131c-0.3,1.319-0.454,2.435-0.607,3.212
					c-0.152,0.778-0.239,1.224-0.239,1.224s0.017-0.452,0.045-1.244c0.021-0.396,0.046-0.878,0.075-1.43
					c0.021-0.555,0.059-1.18,0.17-1.851c0.092-0.675,0.192-1.406,0.298-2.18c0.092-0.777,0.267-1.579,0.43-2.415
					c0.173-0.832,0.32-1.702,0.545-2.563c0.209-0.867,0.423-1.747,0.636-2.628c0.473-1.743,0.945-3.487,1.388-5.121
					c0.231-0.813,0.455-1.6,0.667-2.346c0.204-0.746,0.396-1.451,0.575-2.103c0.369-1.3,0.632-2.405,0.837-3.169
					C166.708,322.402,166.829,321.966,166.829,321.966z"/>
			</g>
			<g>
				<path fill="#41E592" d="M156.079,320.716c0,0,0.29,0.302,0.766,0.856c0.208,0.301,0.514,0.641,0.772,1.087
					c0.284,0.432,0.568,0.949,0.796,1.552c0.231,0.601,0.424,1.284,0.504,2.032c0.068,0.744,0.077,1.558-0.123,2.359
					c-0.184,0.803-0.476,1.607-0.881,2.362c-0.413,0.75-0.907,1.46-1.443,2.128c-1.1,1.316-2.362,2.456-3.603,3.429
					c-1.237,0.979-2.468,1.777-3.505,2.477c-1.04,0.696-1.944,1.218-2.555,1.615c-0.622,0.384-0.977,0.603-0.977,0.603
					s0.305-0.287,0.862-0.76c0.564-0.463,1.355-1.147,2.339-1.914c0.982-0.768,2.102-1.695,3.275-2.699
					c1.161-1.017,2.37-2.13,3.391-3.385c1.036-1.236,1.864-2.633,2.243-4.06c0.198-0.711,0.258-1.426,0.252-2.104
					c-0.016-0.681-0.14-1.323-0.31-1.903c-0.178-0.576-0.375-1.103-0.59-1.554c-0.191-0.465-0.438-0.824-0.603-1.148
					C156.301,321.069,156.079,320.716,156.079,320.716z"/>
			</g>
			<g>
				<path fill="#41E592" d="M170.579,349.966c0,0,0.163,0.287,0.428,0.798c0.13,0.257,0.288,0.568,0.47,0.925
					c0.09,0.179,0.187,0.369,0.288,0.569c0.093,0.204,0.145,0.441,0.225,0.678c0.148,0.479,0.31,1.002,0.467,1.562
					c0.193,0.557,0.198,1.164,0.295,1.787c0.062,0.624,0.197,1.271,0.13,1.932c-0.025,0.661-0.052,1.332-0.078,2.004
					c-0.128,0.659-0.257,1.319-0.384,1.969c-0.084,0.659-0.365,1.256-0.567,1.851c-0.233,0.582-0.378,1.179-0.689,1.668
					c-0.283,0.5-0.55,0.972-0.797,1.407c-0.13,0.213-0.231,0.429-0.368,0.611c-0.146,0.176-0.283,0.343-0.412,0.5
					c-0.257,0.312-0.48,0.583-0.665,0.807c-0.37,0.442-0.591,0.684-0.591,0.684s0.152-0.298,0.434-0.798
					c0.141-0.248,0.312-0.549,0.509-0.894c0.205-0.339,0.419-0.727,0.59-1.185c0.191-0.444,0.398-0.925,0.617-1.433
					c0.124-0.246,0.216-0.514,0.284-0.797c0.083-0.277,0.168-0.561,0.253-0.849c0.169-0.575,0.385-1.156,0.461-1.784
					c0.11-0.617,0.222-1.245,0.334-1.873c0.035-0.637,0.07-1.273,0.105-1.9c0.071-0.628-0.006-1.243-0.04-1.841
					c-0.069-0.592-0.011-1.193-0.149-1.72c-0.099-0.54-0.191-1.05-0.277-1.521c-0.062-0.479-0.188-0.914-0.316-1.294
					c-0.118-0.383-0.221-0.717-0.306-0.991C170.661,350.286,170.579,349.966,170.579,349.966z"/>
			</g>
			<polygon fill="#F9EC31" points="200.695,361.116 197.364,361.729 200.431,363.167 197.069,362.717 199.544,365.036 
				196.486,363.582 198.124,366.546 195.667,364.206 196.304,367.539 194.69,364.556 194.268,367.923 193.656,364.585 
				192.214,367.656 192.659,364.292 190.344,366.768 191.81,363.717 188.835,365.344 191.176,362.887 187.843,363.529 
				190.826,361.916 187.462,361.496 190.797,360.882 187.726,359.443 191.092,359.895 188.613,357.574 191.675,359.03 
				190.038,356.066 192.49,358.406 191.852,355.071 193.467,358.057 193.889,354.689 194.501,358.027 195.944,354.954 
				195.499,358.32 197.816,355.843 196.351,358.896 199.322,357.267 196.984,359.726 200.314,359.083 197.335,360.695 			"/>
			<polygon fill="#F9EC31" points="183.117,376.425 181.803,376.666 183.015,377.233 181.689,377.055 182.664,377.968 
				181.458,377.395 182.103,378.563 181.136,377.641 181.388,378.954 180.751,377.778 180.585,379.106 180.344,377.791 
				179.777,379.001 179.952,377.675 179.04,378.651 179.616,377.448 178.446,378.091 179.369,377.122 178.055,377.376 
				179.229,376.739 177.904,376.573 179.217,376.332 178.01,375.765 179.334,375.943 178.359,375.028 179.563,375.604 
				178.917,374.435 179.885,375.357 179.634,374.044 180.27,375.218 180.436,373.893 180.677,375.207 181.246,373.997 
				181.07,375.323 181.982,374.347 181.404,375.55 182.576,374.908 181.655,375.876 182.968,375.622 181.792,376.259 			"/>
			<polygon fill="#F9EC31" points="148.705,372.319 147.392,372.561 148.603,373.128 147.277,372.949 148.252,373.865 
				147.046,373.291 147.691,374.459 146.724,373.535 146.976,374.849 146.338,373.675 146.173,375.001 145.932,373.687 
				145.365,374.896 145.54,373.57 144.626,374.547 145.204,373.343 144.034,373.985 144.957,373.017 143.643,373.271 
				144.816,372.635 143.492,372.469 144.805,372.228 143.597,371.66 144.922,371.839 143.946,370.925 145.151,371.498 
				144.506,370.329 145.473,371.253 145.222,369.939 145.857,371.114 146.023,369.787 146.265,371.102 146.833,369.894 
				146.657,371.218 147.569,370.242 146.993,371.445 148.164,370.803 147.244,371.771 148.557,371.518 147.38,372.153 			"/>
			<g>
				<path fill="#1D1D1B" d="M184.2,301.893c0.096,1.927-2.973,3.658-6.817,3.848l-27.371,1.352c-3.846,0.189-7.07-1.231-7.165-3.158
					s2.973-3.658,6.818-3.848l27.371-1.352C180.88,298.545,184.105,299.966,184.2,301.893z"/>
			</g>
		</g>
		<g>
			<g>
				<g>
					<path fill="#BE1E2D" d="M275.018,141.549c0,1.65-1.35,3-3,3h-218c-1.65,0-3-1.35-3-3V12.883c0-1.65,1.35-3,3-3h218
						c1.65,0,3,1.35,3,3V141.549z"/>
					<path fill="none" stroke="#820F1D" stroke-width="2" stroke-miterlimit="10" d="M275.018,141.549c0,1.65-1.35,3-3,3h-218
						c-1.65,0-3-1.35-3-3V12.883c0-1.65,1.35-3,3-3h218c1.65,0,3,1.35,3,3V141.549z"/>
				</g>
				<path fill="#D84456" d="M271.739,141.489H54.398V12.942h217.34V141.489z M60.398,135.489h205.34V18.942H60.398V135.489z"/>
				
					<radialGradient id="SVGID_40_" cx="169.5181" cy="101.7158" r="217.7077" gradientTransform="matrix(1 -0.0095 0.0062 0.6491 -0.622 37.3114)" gradientUnits="userSpaceOnUse">
					<stop  offset="0.2919" style="stop-color:#381014"/>
					<stop  offset="1" style="stop-color:#A31E2D"/>
				</radialGradient>
				
					<rect x="63.455" y="21.312" fill="url(#SVGID_40_)" stroke="#820F1D" stroke-miterlimit="10" width="199.126" height="111.807"/>
			</g>
			<linearGradient id="SVGID_41_" gradientUnits="userSpaceOnUse" x1="122.8301" y1="-3.1602" x2="161.3301" y2="73.8398">
				<stop  offset="0" style="stop-color:#A31E2D"/>
				<stop  offset="1" style="stop-color:#381014"/>
			</linearGradient>
			<rect x="73.463" y="35.848" fill="url(#SVGID_41_)" stroke="#820F1D" stroke-miterlimit="10" width="179.111" height="82.736"/>
			<g>
				<radialGradient id="SVGID_42_" cx="227.7407" cy="56.2202" r="27.8378" gradientUnits="userSpaceOnUse">
					<stop  offset="0.0861" style="stop-color:#8BC541"/>
					<stop  offset="0.8204" style="stop-color:#009247"/>
				</radialGradient>
				
					<circle fill="url(#SVGID_42_)" stroke="#006938" stroke-width="2" stroke-miterlimit="10" cx="231.407" cy="49.887" r="22.829"/>
				
					<linearGradient id="SVGID_43_" gradientUnits="userSpaceOnUse" x1="235.2896" y1="25.3374" x2="237.5394" y2="66.0847" gradientTransform="matrix(0.818 -0.5753 0.5753 0.818 25.157 145.2133)">
					<stop  offset="0" style="stop-color:#FFFFFF"/>
					<stop  offset="1" style="stop-color:#FFFFFF;stop-opacity:0"/>
				</linearGradient>
				<path opacity="0.4" fill="url(#SVGID_43_)" d="M243.75,40.086c2.288,3.254,2.978,6.709,1.541,7.72s-4.455-0.808-6.743-4.061
					s-2.978-6.708-1.542-7.719C238.443,35.016,241.461,36.834,243.75,40.086z"/>
				<g>
					<path fill="#603A17" stroke="#3B2416" stroke-miterlimit="10" d="M230.909,50.732c0,0,3.392-8.447,5.416-10.745
						c2.024-2.297,4.896,2.011,4.896,2.011l-8.577,10.884L230.909,50.732z"/>
					<path fill="#845834" stroke="#3B2416" stroke-miterlimit="10" d="M234.716,42.642l4.103,2.402l2.401-3.046
						c0,0-2.617-4.164-4.641-2.341C234.556,41.481,234.716,42.642,234.716,42.642z"/>
					<g>
						<path fill="#066938" d="M226.246,47.883c0,0,0.182,0.05,0.499,0.137c0.31,0.113,0.772,0.188,1.27,0.481
							c0.254,0.131,0.532,0.275,0.82,0.442c0.301,0.156,0.561,0.37,0.851,0.579c0.277,0.221,0.599,0.414,0.863,0.676
							c0.271,0.256,0.547,0.516,0.823,0.776c0.278,0.258,0.505,0.566,0.751,0.846c0.238,0.288,0.48,0.562,0.67,0.868
							c0.2,0.296,0.378,0.592,0.548,0.87c0.187,0.266,0.287,0.573,0.407,0.831c0.113,0.264,0.22,0.5,0.29,0.722
							c0.048,0.23,0.09,0.43,0.124,0.595c0.061,0.327,0.084,0.509,0.084,0.509s-0.099-0.162-0.271-0.444
							c-0.079-0.138-0.174-0.306-0.283-0.499c-0.132-0.179-0.281-0.381-0.443-0.602c-0.169-0.215-0.312-0.465-0.526-0.696
							c-0.203-0.237-0.418-0.483-0.625-0.749c-0.197-0.272-0.476-0.499-0.701-0.771c-0.242-0.259-0.466-0.543-0.738-0.781
							c-0.507-0.514-1.014-1.027-1.526-1.47c-0.258-0.214-0.479-0.477-0.724-0.652c-0.24-0.185-0.462-0.374-0.67-0.55
							c-0.204-0.179-0.4-0.342-0.597-0.462c-0.186-0.132-0.349-0.247-0.482-0.341C226.395,47.997,226.246,47.883,226.246,47.883z"/>
					</g>
					<g>
						<path fill="#066938" d="M232.54,52.549c0,0,0.134-0.058,0.367-0.16c0.241-0.105,0.586-0.242,0.997-0.385
							c0.821-0.303,1.946-0.617,3.084-0.835c0.578-0.071,1.142-0.203,1.687-0.215c0.271-0.011,0.532-0.022,0.78-0.033
							c0.248-0.004,0.479-0.037,0.696-0.003c0.856,0.079,1.428,0.131,1.428,0.131s-0.57,0.01-1.425,0.025
							c-0.213-0.01-0.441,0.047-0.683,0.078c-0.24,0.037-0.494,0.076-0.756,0.116c-0.524,0.068-1.065,0.26-1.61,0.387
							c-1.078,0.333-2.123,0.752-2.874,1.128c-0.382,0.181-0.686,0.343-0.893,0.461c-0.213,0.122-0.334,0.191-0.334,0.191
							L232.54,52.549z"/>
					</g>
				</g>
				<linearGradient id="SVGID_44_" gradientUnits="userSpaceOnUse" x1="227.436" y1="28.208" x2="229.6861" y2="68.959">
					<stop  offset="0" style="stop-color:#FFFFFF"/>
					<stop  offset="1" style="stop-color:#FFFFFF;stop-opacity:0"/>
				</linearGradient>
				<path opacity="0.4" fill="url(#SVGID_44_)" d="M228.579,30.216c3-0.25,5.693,4.25,3.097,7.75s-9.597,6.052-7.597,11.15
					c3.75,2.1,5.693,5.687,7.597,9.643c1.903,3.957,2.403-3.543,9.903-4.293s5.632,12.994-5.996,15s-16.932-3.812-20.343-8.156
					s-6.661-17.844,1.839-25.06C222.905,31.304,225.579,30.466,228.579,30.216z"/>
			</g>
			<g>
				<path fill="#FCDA46" stroke="#F69220" stroke-width="2" stroke-miterlimit="10" d="M204.913,83.396
					c12.666-5.18,49.921-15.604,53.333,2.82c2.873,15.514-27.335,19.334-40.334,18S204.913,83.396,204.913,83.396z"/>
				<g>
					<g>
						<path fill="#F59121" d="M247.575,90.157c0,0,0.032,0.333,0.089,0.917c0.047,0.278-0.021,0.707-0.039,1.146
							c-0.025,0.452-0.184,0.914-0.309,1.433c-0.208,0.489-0.392,1.039-0.725,1.542c-0.28,0.536-0.69,1.016-1.088,1.526
							c-0.44,0.473-0.891,0.963-1.41,1.391c-0.489,0.462-1.057,0.842-1.597,1.25c-1.119,0.766-2.29,1.441-3.421,2.002
							c-1.128,0.567-2.212,1.024-3.146,1.401c-0.941,0.357-1.726,0.653-2.285,0.831c-0.556,0.187-0.873,0.294-0.873,0.294
							s0.312-0.122,0.858-0.334c0.55-0.204,1.319-0.535,2.239-0.935c0.912-0.418,1.968-0.923,3.059-1.537
							c1.093-0.607,2.215-1.329,3.273-2.126c0.508-0.423,1.043-0.817,1.491-1.284c0.482-0.436,0.888-0.923,1.283-1.388
							c0.349-0.497,0.714-0.962,0.943-1.464c0.287-0.475,0.422-0.976,0.59-1.418c0.084-0.459,0.212-0.889,0.21-1.253
							c-0.01-0.375,0.057-0.661-0.006-0.963c-0.084-0.581-0.131-0.912-0.131-0.912L247.575,90.157z"/>
					</g>
					<g>
						<path fill="#F59121" d="M245.615,86.418c0,0-0.441-0.217-1.214-0.597c-0.386-0.19-0.855-0.42-1.393-0.685
							c-0.27-0.131-0.556-0.27-0.858-0.417c-0.309-0.118-0.634-0.241-0.973-0.37c-0.68-0.259-1.416-0.54-2.194-0.836
							c-0.783-0.288-1.648-0.497-2.523-0.766c-0.877-0.267-1.788-0.526-2.734-0.709c-0.943-0.2-1.896-0.431-2.858-0.612
							c-0.969-0.156-1.937-0.312-2.89-0.465c-0.951-0.174-1.901-0.24-2.814-0.358c-0.915-0.097-1.798-0.225-2.641-0.276
							c-0.843-0.066-1.639-0.128-2.373-0.187c-1.47-0.125-2.699-0.154-3.559-0.209c-0.859-0.045-1.351-0.07-1.351-0.07
							s0.491,0.01,1.353,0.027c0.859,0.028,2.091,0.018,3.564,0.096c0.738,0.034,1.537,0.072,2.382,0.111
							c0.847,0.025,1.733,0.125,2.655,0.193c0.919,0.088,1.875,0.124,2.835,0.269c0.964,0.124,1.942,0.25,2.921,0.375
							c0.975,0.151,1.942,0.354,2.899,0.525c0.962,0.154,1.892,0.387,2.788,0.629c0.896,0.244,1.774,0.428,2.587,0.696
							c0.811,0.28,1.576,0.545,2.284,0.79c0.354,0.123,0.693,0.241,1.016,0.353c0.308,0.137,0.599,0.268,0.873,0.39
							c0.546,0.248,1.021,0.463,1.413,0.641c0.784,0.355,1.232,0.558,1.232,0.558L245.615,86.418z"/>
					</g>
					<path fill="none" stroke="#F59121" stroke-linejoin="round" stroke-miterlimit="10" d="M253.713,88.365
						c0,0,3.528-0.561,2.863,5.562"/>
				</g>
				<g>
					<linearGradient id="SVGID_45_" gradientUnits="userSpaceOnUse" x1="257.437" y1="82.4673" x2="230.0143" y2="92.3862">
						<stop  offset="0" style="stop-color:#FFFFFF"/>
						<stop  offset="1" style="stop-color:#FFFFFF;stop-opacity:0"/>
					</linearGradient>
					<path fill="url(#SVGID_45_)" d="M227.329,83.396c1.92-2.981,15.5,1.74,16.5,6.405s-7.416,11.307-9.583,11.235
						C232.079,100.966,222.754,90.498,227.329,83.396z"/>
					<linearGradient id="SVGID_46_" gradientUnits="userSpaceOnUse" x1="269.4907" y1="73.9487" x2="238.5402" y2="85.1436">
						<stop  offset="0" style="stop-color:#FFFFFF"/>
						<stop  offset="1" style="stop-color:#FFFFFF;stop-opacity:0"/>
					</linearGradient>
					<path fill="url(#SVGID_46_)" d="M232.833,78.632c0,0,12.999,4.089,16.857,5.963c3.858,1.873,3.354,2.309,5.496,2.965
						s-1.884-8.012-7.871-8.928S232.833,78.632,232.833,78.632z"/>
				</g>
				<g>
					<polygon fill="#3B2416" stroke="#231F20" stroke-miterlimit="10" points="246.534,90.101 253.713,88.365 253.184,82.235 
						247.204,83.876 245.668,86.318 					"/>
					<polygon fill="#6D4832" stroke="#231F20" stroke-linejoin="round" stroke-miterlimit="10" points="247.204,83.876 
						248.391,88.022 253.713,88.365 253.184,82.235 					"/>
				</g>
				<path opacity="0.4" fill="#F69220" d="M229.996,77.565c-9.58,1.455-19.057,4.516-24.062,6.497
					c0.154,3.337,1.44,18.066,12.081,19.159c1.558,0.159,3.323,0.24,5.245,0.24c3.039,0,6.308-0.208,9.574-0.623
					C221.402,94.829,220.723,84.616,229.996,77.565z"/>
				<linearGradient id="SVGID_47_" gradientUnits="userSpaceOnUse" x1="234.2456" y1="75.5381" x2="234.2456" y2="75.5381">
					<stop  offset="0" style="stop-color:#FFFFFF"/>
					<stop  offset="1" style="stop-color:#FFFFFF;stop-opacity:0"/>
				</linearGradient>
				<path fill="url(#SVGID_47_)" d="M234.246,75.538"/>
			</g>
			<g>
				<path fill="#C9E7F8" stroke="#58A9CD" stroke-width="2" stroke-linejoin="round" stroke-miterlimit="10" d="M96.406,49.116
					l-23.655,8.649v57.982h30.74h25.969V55.383c0,0-14.557-1.365-25.969-6.267H96.406z"/>
				<path opacity="0.3" fill="#58A9CD" d="M75.329,61.107l18-8.376v51.73c0,0-2.25,3.484-18,5.994
					C75.329,102.716,75.329,59.749,75.329,61.107z"/>
				<path opacity="0.3" fill="#58A9CD" d="M105.079,52.731c0,0,12.25,4.738,21.25,5.236c0,7.492,0,53.081,0,53.081
					c-9.75-1.833-17.662-3.833-20.25-6.333C106.079,98.637,105.079,52.731,105.079,52.731z"/>
				
					<rect x="96.406" y="47.116" fill="#EEFAFF" stroke="#58A9CD" stroke-width="2" stroke-miterlimit="10" width="7.085" height="60.6"/>
				<path fill="#C9E7F8" stroke="#58A9CD" stroke-width="2" stroke-linejoin="round" stroke-miterlimit="10" d="M76.855,112.1
					c0,0,12.466,0.116,19.551-4.384s0,6.558,0,6.558L76.855,112.1z"/>
			</g>
			<g>
				<g>
					<path fill="#E26927" d="M204.913,96.442c0,4.4-3.6,8-8,8h-58c-4.4,0-8-3.6-8-8V38.441c0-4.4,3.6-8,8-8h58c4.4,0,8,3.6,8,8
						V96.442z"/>
					<path fill="none" stroke="#C94628" stroke-miterlimit="10" d="M204.913,96.442c0,4.4-3.6,8-8,8h-58c-4.4,0-8-3.6-8-8V38.441
						c0-4.4,3.6-8,8-8h58c4.4,0,8,3.6,8,8V96.442z"/>
				</g>
				<path opacity="0.6" fill="#C94628" d="M160.246,73.208c-4.542-1.041-17.032-20.173-2.643-14.051
					c0.037-1.857,1.282-4.146,1.377-5.88c1.474,1.383,5.119,2.063,6.606,3.214c2.248-6.279,3.981-13.632,10.592-16.915
					c0.293,5.619-1.907,10.986-3.215,16.249c6.178-1.425,12.71-4.671,18.897-1.967c0.058-0.041,0.074,1.042,0.066,1.034
					c-2.322,1.058-4.773,3.629-7.18,4.6c3.74-0.444,6.506,0.979,9.546,1.366c-3.634,2.161-9.509,5.187-11.646,8.987
					c-1.805,3.209,2.264,7.821,0.252,10.404C170.079,92.292,158.788,75.75,160.246,73.208z"/>
				<g>
					<g>
						<path fill="#C94628" d="M168.629,57.823c0,0,0.495-0.232,1.362-0.639c0.434-0.203,0.96-0.45,1.563-0.733
							c0.617-0.27,1.268-0.619,1.966-1.014c0.706-0.388,1.471-0.809,2.28-1.254c0.806-0.455,1.621-1.01,2.485-1.543
							c0.861-0.54,1.756-1.094,2.609-1.738c0.868-0.625,1.75-1.259,2.633-1.894c0.843-0.687,1.687-1.373,2.516-2.049
							c0.851-0.656,1.61-1.386,2.359-2.081c0.738-0.703,1.496-1.344,2.139-2.025c0.641-0.684,1.246-1.331,1.806-1.927
							c0.28-0.299,0.549-0.585,0.804-0.858c0.243-0.283,0.455-0.565,0.665-0.824c0.415-0.521,0.776-0.975,1.074-1.349
							c0.597-0.75,0.938-1.178,0.938-1.178s-0.315,0.447-0.868,1.229c-0.276,0.391-0.613,0.867-0.998,1.412
							c-0.195,0.271-0.394,0.568-0.621,0.866c-0.24,0.288-0.492,0.59-0.756,0.906c-0.527,0.632-1.1,1.317-1.704,2.042
							c-0.609,0.723-1.331,1.409-2.036,2.161c-0.715,0.743-1.441,1.525-2.26,2.235c-0.801,0.731-1.613,1.475-2.427,2.217
							c-0.856,0.694-1.713,1.387-2.556,2.07c-0.83,0.703-1.704,1.317-2.549,1.917c-0.849,0.594-1.643,1.203-2.445,1.719
							c-0.812,0.508-1.578,0.989-2.286,1.433c-0.708,0.454-1.361,0.852-1.952,1.151c-0.586,0.317-1.098,0.594-1.519,0.822
							c-0.843,0.455-1.324,0.715-1.324,0.715L168.629,57.823z"/>
					</g>
					<g>
						<path fill="#C94628" d="M167.068,59.966c0,0-0.496-0.022-1.363-0.06c-0.42,0.001-0.998-0.097-1.63-0.17
							c-0.647-0.062-1.33-0.216-2.081-0.37c-0.758-0.13-1.542-0.398-2.387-0.614c-0.828-0.271-1.705-0.543-2.584-0.89
							c-0.882-0.341-1.787-0.707-2.681-1.131c-0.91-0.39-1.788-0.879-2.685-1.325c-0.87-0.5-1.757-0.962-2.585-1.497
							c-0.845-0.505-1.648-1.045-2.42-1.575c-0.774-0.525-1.491-1.079-2.177-1.591c-0.661-0.547-1.313-1.026-1.862-1.535
							c-0.559-0.496-1.079-0.939-1.504-1.374c-0.429-0.428-0.822-0.781-1.106-1.111c-0.587-0.64-0.922-1.006-0.922-1.006
							s0.357,0.344,0.983,0.945c0.303,0.31,0.717,0.638,1.17,1.036c0.448,0.404,0.993,0.812,1.577,1.269
							c0.574,0.468,1.253,0.904,1.938,1.402c0.711,0.463,1.452,0.964,2.248,1.435c0.794,0.474,1.618,0.956,2.479,1.4
							c0.845,0.474,1.747,0.872,2.627,1.308c0.906,0.38,1.792,0.804,2.702,1.127c0.896,0.358,1.794,0.657,2.667,0.933
							c0.87,0.282,1.729,0.488,2.535,0.698c0.818,0.154,1.58,0.364,2.299,0.439c0.714,0.1,1.372,0.206,1.933,0.221
							c0.572,0.029,1.039,0.093,1.489,0.064c0.868-0.017,1.364-0.026,1.364-0.026L167.068,59.966z"/>
					</g>
					<g>
						<path fill="#C94628" d="M164.608,57.16c0,0-0.24-0.273-0.661-0.75c-0.21-0.239-0.465-0.528-0.758-0.861
							c-0.146-0.167-0.302-0.345-0.465-0.532c-0.151-0.214-0.309-0.44-0.474-0.675c-0.327-0.469-0.681-0.977-1.055-1.515
							c-0.371-0.536-0.656-1.143-1.007-1.746c-0.341-0.606-0.697-1.229-0.976-1.902c-0.297-0.661-0.599-1.333-0.901-2.005
							c-0.255-0.688-0.511-1.376-0.763-2.054c-0.267-0.67-0.458-1.354-0.662-2.008c-0.194-0.657-0.413-1.282-0.564-1.891
							c-0.156-0.607-0.304-1.18-0.44-1.71c-0.29-1.053-0.443-1.952-0.591-2.571c-0.135-0.621-0.212-0.976-0.212-0.976
							s0.107,0.347,0.296,0.955c0.2,0.604,0.429,1.482,0.807,2.504c0.18,0.513,0.375,1.068,0.582,1.656
							c0.201,0.588,0.471,1.188,0.718,1.819c0.257,0.627,0.501,1.282,0.821,1.917c0.303,0.641,0.61,1.291,0.918,1.942
							c0.349,0.626,0.698,1.252,1.042,1.869c0.324,0.627,0.72,1.194,1.095,1.746c0.382,0.542,0.711,1.109,1.093,1.568
							c0.379,0.458,0.738,0.89,1.069,1.289c0.164,0.199,0.32,0.389,0.469,0.571c0.179,0.172,0.349,0.335,0.508,0.488
							c0.32,0.306,0.599,0.573,0.83,0.792c0.459,0.439,0.722,0.69,0.722,0.69L164.608,57.16z"/>
					</g>
					<g>
						<path fill="#C94628" d="M169.257,64.7c0,0-0.534,0.082-1.469,0.225c-0.467,0.072-1.034,0.159-1.686,0.258
							c-0.324,0.052-0.675,0.097-1.033,0.165c-0.352,0.08-0.722,0.164-1.109,0.252c-0.775,0.175-1.614,0.365-2.502,0.565
							c-0.889,0.206-1.815,0.512-2.782,0.78c-0.965,0.278-1.967,0.556-2.958,0.923c-0.999,0.346-2.014,0.698-3.029,1.05
							c-1,0.398-1.999,0.796-2.982,1.188c-0.992,0.376-1.94,0.81-2.861,1.224c-0.919,0.418-1.821,0.797-2.654,1.203
							c-0.831,0.411-1.617,0.798-2.342,1.157c-1.464,0.695-2.625,1.384-3.463,1.82c-0.832,0.45-1.307,0.707-1.307,0.707
							s0.459-0.284,1.263-0.781c0.812-0.484,1.936-1.242,3.359-2.021c0.706-0.401,1.471-0.835,2.279-1.295
							c0.812-0.456,1.693-0.887,2.592-1.361c0.901-0.469,1.831-0.96,2.805-1.396c0.968-0.452,1.952-0.911,2.935-1.371
							c1.004-0.415,2.009-0.829,2.998-1.237c0.982-0.429,1.98-0.77,2.944-1.108c0.968-0.331,1.885-0.693,2.791-0.959
							c0.91-0.262,1.77-0.509,2.564-0.737c0.398-0.114,0.78-0.224,1.143-0.327c0.362-0.09,0.704-0.154,1.026-0.225
							c0.645-0.137,1.206-0.257,1.668-0.355c0.925-0.197,1.453-0.31,1.453-0.31L169.257,64.7z"/>
					</g>
					<g>
						<path fill="#C94628" d="M177.728,63.779c0,0,0.195,0.438,0.537,1.206c0.166,0.393,0.378,0.85,0.65,1.32
							c0.268,0.485,0.54,1.046,0.939,1.623c0.188,0.293,0.385,0.599,0.588,0.915c0.226,0.301,0.458,0.613,0.697,0.934
							c0.462,0.657,1.048,1.271,1.616,1.941c0.619,0.624,1.235,1.297,1.939,1.905c0.676,0.639,1.42,1.226,2.151,1.83
							c3,2.336,6.279,4.349,8.706,5.896c2.436,1.541,4.025,2.617,4.025,2.617s-1.656-0.971-4.184-2.348
							c-2.521-1.387-5.926-3.178-9.14-5.359c-0.787-0.568-1.589-1.119-2.329-1.733c-0.767-0.58-1.454-1.237-2.143-1.847
							c-0.641-0.661-1.298-1.269-1.832-1.93c-0.275-0.323-0.552-0.631-0.803-0.942c-0.238-0.322-0.469-0.632-0.69-0.931
							c-0.459-0.582-0.81-1.187-1.139-1.707c-0.345-0.525-0.591-0.979-0.776-1.349c-0.391-0.744-0.614-1.168-0.614-1.168
							L177.728,63.779z"/>
					</g>
				</g>
				<path fill="#EA7542" stroke="#C94628" stroke-miterlimit="10" d="M158.246,70.108c-4.542-1.042-17.032-20.174-2.643-14.052
					c0.037-1.857,1.282-4.146,1.377-5.88c1.474,1.384,5.119,2.063,6.606,3.215c2.248-6.279,3.981-13.632,10.591-16.916
					c0.293,5.62-1.907,10.987-3.215,16.249c6.178-1.425,12.71-4.671,18.897-1.967c0.058-0.04,0.074,1.042,0.066,1.034
					c-2.322,1.059-4.773,3.63-7.18,4.601c3.74-0.445,6.506,0.979,9.546,1.365c-3.634,2.162-9.509,5.188-11.646,8.987
					c-1.805,3.21,2.264,7.822,0.252,10.405C168.079,89.191,156.788,72.649,158.246,70.108z"/>
				<g>
					<linearGradient id="SVGID_48_" gradientUnits="userSpaceOnUse" x1="149.3086" y1="32.0825" x2="202.3168" y2="66.7549">
						<stop  offset="0" style="stop-color:#E09A28"/>
						<stop  offset="1" style="stop-color:#E09A28;stop-opacity:0"/>
					</linearGradient>
					<path fill="url(#SVGID_48_)" d="M173.667,52.531c-0.216,0.764-0.424,1.525-0.612,2.284c5.077-1.171,10.394-3.564,15.562-2.882
						c0.271-0.166,0.541-0.319,0.81-0.455c-0.003-0.12-0.008-0.256-0.015-0.368c-1.468-0.602-3.03-0.895-4.766-0.895
						c-3.062,0-6.228,0.929-9.288,1.828C174.8,52.207,174.233,52.371,173.667,52.531z"/>
					<linearGradient id="SVGID_49_" gradientUnits="userSpaceOnUse" x1="148.874" y1="32.7573" x2="201.8741" y2="67.4244">
						<stop  offset="0" style="stop-color:#E09A28"/>
						<stop  offset="1" style="stop-color:#E09A28;stop-opacity:0"/>
					</linearGradient>
					<path fill="url(#SVGID_49_)" d="M190.86,58.018c-0.601-0.127-1.193-0.276-1.774-0.423c-0.627-0.158-1.268-0.312-1.921-0.446
						c-0.776,0.539-1.554,1.022-2.326,1.335c1.736-0.207,3.259-0.005,4.699,0.303c0.342-0.199,0.679-0.396,1.002-0.582
						C190.648,58.142,190.754,58.079,190.86,58.018z"/>
					<linearGradient id="SVGID_50_" gradientUnits="userSpaceOnUse" x1="144.7861" y1="39.0132" x2="197.7783" y2="73.6751">
						<stop  offset="0" style="stop-color:#E09A28"/>
						<stop  offset="1" style="stop-color:#E09A28;stop-opacity:0"/>
					</linearGradient>
					<path fill="url(#SVGID_50_)" d="M157.694,58.147c0.037-1.857,1.282-4.146,1.377-5.88c1.474,1.384,5.119,2.063,6.606,3.215
						c1.895-5.292,3.436-11.337,7.826-15.076c0.133-1.031,0.211-2.068,0.2-3.11c-5.084,2.912-6.984,8.492-8.826,13.896
						c-0.272,0.799-0.542,1.592-0.82,2.367l-0.232,0.648l-0.545-0.421c-0.622-0.481-1.706-0.892-2.854-1.325
						c-1.091-0.412-2.211-0.835-3.068-1.375c-0.13,0.634-0.344,1.299-0.566,1.989c-0.33,1.027-0.672,2.091-0.69,2.99l-0.015,0.74
						l-0.681-0.29c-1.818-0.773-3.266-1.165-4.304-1.165c-1.385,0-1.64,0.685-1.708,1.281c-0.23,2.029,1.791,5.76,4.101,8.711
						C150.153,60.109,148.89,54.401,157.694,58.147z"/>
				</g>
				<path fill="#C94628" d="M165.704,72.941c0.101,0.229,0-2,3.625-4.5s13.609-7.625,13.609-7.625s-9.721,1.875-12.353,2.375
					s3.735-4.75,3.735-4.75s-2.854,1.875-3.735,2.375s0.382-4.625,0-5.25s-2.589,3.375-2.673,4.625s0-10.079,0-10.079l-1.459,12.204
					l-8.5-3.331c0,0,4.625,1.706,8,5.581C169.329,68.441,164.829,70.941,165.704,72.941z"/>
				<linearGradient id="SVGID_51_" gradientUnits="userSpaceOnUse" x1="153.7085" y1="14.4067" x2="173.7085" y2="71.4067">
					<stop  offset="0" style="stop-color:#E09A28"/>
					<stop  offset="1" style="stop-color:#E09A28;stop-opacity:0"/>
				</linearGradient>
				<path fill="url(#SVGID_51_)" d="M134.829,73.166c0,0-3.25-32.113,0-37.419c2.86-2.805,9-3.531,12-3.281s49.5,0.5,52.75,1.25
					s2.5,40.375,2.5,40.375s-15.5,0.94-15.25-4.218c0.25-5.157,13.75-6.407,12.75-13.407s-7.285-3.177-7.285-3.177l5.785-11.033
					c0,0,4.18-7.79-5.785-6.29c-3.621,1.177-6.465,11.553-12.965,11.526c-2.472-1.005-1.5-11.745-1.5-11.745s-7.25-4.811-12.5,3.829
					c-5.25,8.64-2.31,7.916-2.31,7.916s-4.939-14.276-7.939-13.026s-1.901,9.59,0,12.65s-6.201-2.071-6.201-2.071l2,5.937
					c0,0-13.049-10.436-13.799-8.226s3,9.46,10.25,13.71s-3.22,5.619-3.22,5.619l6.77,4.381L134.829,73.166z"/>
			</g>
		</g>
		<g>
			<path fill="#7F3F97" stroke="#572270" stroke-width="2" stroke-linejoin="round" stroke-miterlimit="10" d="M163.792,169.979
				h83.523c0,0-3.992-64.187-25.49-81.11c-8.484-6.679-27.019-13.33-57.963-13.33s-49.619,6.651-58.103,13.33
				c-21.498,16.924-25.49,81.11-25.49,81.11H163.792z"/>
			<linearGradient id="SVGID_52_" gradientUnits="userSpaceOnUse" x1="137.7544" y1="57.8018" x2="162.4214" y2="133.1353">
				<stop  offset="0" style="stop-color:#A06ABA"/>
				<stop  offset="1" style="stop-color:#A06ABA;stop-opacity:0"/>
			</linearGradient>
			<path fill="url(#SVGID_52_)" d="M163.793,108.958c28.507,0,54.124,12.03,71.789,31.154c-3.154-17.33-9.019-38.256-19.561-46.555
				c-7.636-6.011-24.316-11.997-52.167-11.997c-27.851,0-44.657,5.986-52.293,11.997c-10.542,8.299-16.406,29.225-19.561,46.555
				C109.668,120.988,135.285,108.958,163.793,108.958z"/>
			
				<ellipse fill="#7F3F97" stroke="#572270" stroke-width="2" stroke-linejoin="round" stroke-miterlimit="10" cx="163.792" cy="202.856" rx="91.041" ry="88.582"/>
			<linearGradient id="SVGID_53_" gradientUnits="userSpaceOnUse" x1="163.792" y1="118.8784" x2="163.792" y2="255.9615">
				<stop  offset="0" style="stop-color:#A06ABA"/>
				<stop  offset="1" style="stop-color:#A06ABA;stop-opacity:0"/>
			</linearGradient>
			<ellipse fill="url(#SVGID_53_)" cx="163.792" cy="202.855" rx="81.937" ry="79.725"/>
			<path fill="#FFFFFF" d="M144.819,132.517c-0.791-1.684-0.927-3.379-0.381-5.097c1.842-5.799,10.099-9.84,19.839-9.711
				c9.333,0.123,17.199,4.455,18.484,10.182c1.487,6.636-6.586,12.823-17.556,13.419c-4.69,0.255-9.169-0.185-13.207-1.726
				c-2.801-1.069-4.854-2.518-5.628-4.532c-1.27-3.31,3.09-7.937,11.352-6.937c3.393,0.411,5.821,2.285,5.868,4.384
				c0.045,2.085-2.227,3.979-5.422,4.508c-1.023,0.171-2.052,0.22-3.149-0.005c1.118-0.626,1.589-1.363,1.39-2.231
				c-0.288-1.258-2.171-2.182-4.25-2.105c-2.022,0.074-3.831,1.244-3.927,2.562c-0.104,1.447,1.005,2.539,2.889,3.309
				c6.637,2.711,15.559,0.654,17.614-4.01c1.271-2.878,0.333-5.44-3.386-7.43c-3.657-1.956-7.929-2.546-12.54-1.386
				c-4.628,1.164-7.293,3.332-7.903,6.388C144.878,132.237,144.847,132.377,144.819,132.517z"/>
			<g>
				<g opacity="0.7">
					<linearGradient id="SVGID_54_" gradientUnits="userSpaceOnUse" x1="185.1187" y1="217.4678" x2="187.7856" y2="240.8008">
						<stop  offset="0.0102" style="stop-color:#572270"/>
						<stop  offset="1" style="stop-color:#572270;stop-opacity:0"/>
					</linearGradient>
					<path fill="url(#SVGID_54_)" d="M185.629,219.913c-0.162-0.131-0.279-0.297-0.352-0.5c-0.061-0.039-0.119-0.072-0.182-0.113
						c0.053,0.076,0.094,0.15,0.148,0.229C185.381,219.647,185.508,219.776,185.629,219.913z"/>
					<linearGradient id="SVGID_55_" gradientUnits="userSpaceOnUse" x1="193.2544" y1="216.5381" x2="195.9214" y2="239.8711">
						<stop  offset="0.0102" style="stop-color:#572270"/>
						<stop  offset="1" style="stop-color:#572270;stop-opacity:0"/>
					</linearGradient>
					<path fill="url(#SVGID_55_)" d="M191.93,205.89c-0.016,0-0.027,0.002-0.043,0.002c0.016,0.006,0.029,0.014,0.043,0.02
						C192.274,205.903,192.274,205.896,191.93,205.89z"/>
					<linearGradient id="SVGID_56_" gradientUnits="userSpaceOnUse" x1="164.9263" y1="219.7744" x2="167.5933" y2="243.1074">
						<stop  offset="0.0102" style="stop-color:#572270"/>
						<stop  offset="1" style="stop-color:#572270;stop-opacity:0"/>
					</linearGradient>
					<path fill="url(#SVGID_56_)" d="M191.887,205.892c-4.592-1.801-7.516-5.387-12.051-7.527c-0.035,0.032-0.154-1.374-0.09-1.329
						c2.465-1.819,5.217-6.059,7.404-7.35c-5.236,1.187-11.375,0.736-16.619,2.186c0.141-4,1.396-8.139,3.652-11.561
						c0,0-5.168,5.736-6.807,9.37c-1.002-2.828-6.09-8.866-6.09-8.866s-2.234,7.325-2.423,10.591
						c-2.208-2.395-5.111-3.232-7.406-7.627c0.967,2.954,0.233,6.466,0.789,9.489c-3.82-1.021-12.911-1.23-12.911-1.23
						s5.833,7.639,9.327,10.13c-4.22,1.736-8.259,5.961-13.067,6.998c3.945,0.559,8.345,3.721,12.486,4.76
						c-3.56,1.896-11.556,7.141-11.556,7.141s6.421-0.416,12.335,1.324l3.737-4.455v5.941c2.425,1.271,4.439,3.098,5.395,5.725
						c0.547-2.689,4.603-10.01,4.573-9.803c2.315,3.576,5.149,4.201,6.965,9.199c0.389-9.994,6.734-15.363,15.564-9.697
						C179.858,211.716,182.415,205.929,191.887,205.892z"/>
				</g>
				<path fill="#7F3F97" stroke="#572270" stroke-width="2" stroke-linejoin="round" stroke-miterlimit="10" d="M183.919,216.705
					c-0.15-0.121-0.258-0.274-0.326-0.463c-0.056-0.036-0.11-0.067-0.167-0.104c0.049,0.071,0.087,0.14,0.137,0.211
					C183.689,216.46,183.808,216.579,183.919,216.705z"/>
				<path fill="#7F3F97" stroke="#572270" stroke-width="2" stroke-linejoin="round" stroke-miterlimit="10" d="M189.754,203.721
					c-0.015,0-0.026,0.001-0.04,0.001c0.014,0.006,0.026,0.014,0.04,0.019C190.073,203.733,190.073,203.727,189.754,203.721z"/>
				<path fill="#A168BC" stroke="#572270" stroke-width="2" stroke-linejoin="round" stroke-miterlimit="10" d="M189.714,203.722
					c-4.252-1.667-6.96-4.987-11.158-6.97c-0.032,0.03-0.143-1.271-0.083-1.23c2.282-1.685,4.83-5.609,6.854-6.805
					c-4.849,1.099-10.531,0.682-15.387,2.023c0.129-3.704,1.292-7.536,3.382-10.704c0,0-4.786,5.312-6.303,8.676
					c-0.928-2.618-5.64-8.209-5.64-8.209s-2.068,6.782-2.243,9.806c-2.045-2.217-4.732-2.993-6.857-7.062
					c0.895,2.735,0.216,5.986,0.73,8.786c-3.537-0.945-11.955-1.14-11.955-1.14s5.401,7.073,8.637,9.38
					c-3.907,1.607-7.647,5.52-12.1,6.479c3.653,0.519,7.727,3.445,11.562,4.407c-3.296,1.756-10.7,6.612-10.7,6.612
					s5.945-0.386,11.422,1.227l3.46-4.125v5.501c2.245,1.178,4.11,2.868,4.995,5.301c0.506-2.491,4.262-9.269,4.234-9.077
					c2.145,3.312,4.768,3.89,6.45,8.518c0.36-9.254,6.236-14.225,14.412-8.979C178.576,209.116,180.943,203.758,189.714,203.722z"/>
			</g>
			<radialGradient id="SVGID_57_" cx="163.6577" cy="202.8564" r="10.7432" gradientUnits="userSpaceOnUse">
				<stop  offset="0" style="stop-color:#D8D8D8"/>
				<stop  offset="0.4478" style="stop-color:#AFADB2"/>
				<stop  offset="1" style="stop-color:#4E4F52"/>
			</radialGradient>
			
				<circle fill="url(#SVGID_57_)" stroke="#2B2B2B" stroke-width="2" stroke-miterlimit="10" cx="163.658" cy="202.855" r="10.743"/>
			<linearGradient id="SVGID_58_" gradientUnits="userSpaceOnUse" x1="163.6572" y1="189.2158" x2="163.6572" y2="206.4658">
				<stop  offset="0" style="stop-color:#FFFFFF"/>
				<stop  offset="1" style="stop-color:#FFFFFF;stop-opacity:0"/>
			</linearGradient>
			<circle fill="url(#SVGID_58_)" cx="163.658" cy="201.632" r="6.083"/>
		</g>
	</g>
</g>
</svg>
