<?xml version="1.0" encoding="utf-8"?>
<!-- Generator: Adobe Illustrator 16.0.0, SVG Export Plug-In . SVG Version: 6.00 Build 0)  -->
<!DOCTYPE svg PUBLIC "-//W3C//DTD SVG 1.1//EN" "http://www.w3.org/Graphics/SVG/1.1/DTD/svg11.dtd">
<svg version="1.1" id="Layer_2" xmlns="http://www.w3.org/2000/svg" xmlns:xlink="http://www.w3.org/1999/xlink" x="0px" y="0px"
	 width="291.492px" height="237.116px" viewBox="0 0 291.492 237.116" enable-background="new 0 0 291.492 237.116"
	 xml:space="preserve">
<g>
	
		<ellipse transform="matrix(0.9974 -0.0721 0.0721 0.9974 -8.0647 12.004)" opacity="0.1" cx="162.233" cy="117.706" rx="129.002" ry="94.016"/>
	<g>
		<g>
			<path fill="#FFCC83" stroke="#BC802F" stroke-width="2" stroke-miterlimit="10" d="M177.79,47.7c0,0,17.833-14.833,27.75-11.833
				c9.916,3,3.082,28.621,3.082,28.621L177.79,47.7z"/>
			<path opacity="0.5" fill="#BC802F" d="M179.594,47.543l28.375,15.45c0.801-3.326,1.714-8.347,1.904-13.12
				c-6.39-3.542-15.745-5.929-22.699-7.576C183.862,44.333,181.079,46.393,179.594,47.543z"/>
		</g>
		<g>
			<path fill="#FFCC83" stroke="#BC802F" stroke-width="2" stroke-miterlimit="10" d="M148.206,49.977
				c0,0-17.833-14.833-27.75-11.833s-3.083,28.621-3.083,28.621L148.206,49.977z"/>
			<path opacity="0.5" fill="#BC802F" d="M116.215,53.788c0.305,4.258,1.101,8.536,1.812,11.483l28.375-15.45
				c-2.335-1.809-7.864-5.862-13.652-8.532C126.488,43.538,120.474,48.427,116.215,53.788z"/>
		</g>
		<g>
			<g>
				<linearGradient id="SVGID_1_" gradientUnits="userSpaceOnUse" x1="96.0454" y1="104.2925" x2="237.3613" y2="104.2925">
					<stop  offset="0" style="stop-color:#953752"/>
					<stop  offset="1" style="stop-color:#72243C"/>
				</linearGradient>
				
					<ellipse fill="url(#SVGID_1_)" stroke="#4C1026" stroke-width="2" stroke-miterlimit="10" cx="166.703" cy="104.292" rx="70.658" ry="59.783"/>
			</g>
			<g>
				<ellipse fill="#5E0E2F" cx="166.703" cy="107.069" rx="67.377" ry="57.007"/>
			</g>
		</g>
		<g>
			<linearGradient id="SVGID_2_" gradientUnits="userSpaceOnUse" x1="233.2021" y1="43.2876" x2="253.452" y2="90.2874">
				<stop  offset="0" style="stop-color:#F7D7B8"/>
				<stop  offset="0.483" style="stop-color:#F7CFAF"/>
				<stop  offset="1" style="stop-color:#F7C7A6"/>
			</linearGradient>
			<path fill="url(#SVGID_2_)" stroke="#AF7045" stroke-width="2" stroke-miterlimit="10" d="M217.456,58.404
				c2.728-4.444,20-20.677,44-9.427c8.75,3.5,7.25,20.5,7.25,20.5s0.234,16-27.758,18.25S216.049,60.697,217.456,58.404z"/>
			<path fill="#D89060" d="M247.581,75.852c-9.882-0.569-22.365-11.93-28.498-17.982c-0.346,0.424-0.608,0.786-0.774,1.057
				c-0.698,1.209-1.946,11.51,2.457,19.14c3.753,6.502,10.543,9.433,20.103,8.664c15.398-1.238,21.954-6.711,24.752-11.164
				C261.87,75.506,256.534,76.368,247.581,75.852z"/>
			<path fill="#D89060" d="M244.902,46.079c-8.392,0-15.073,3.067-19.67,6.268c6.04,5.698,18.307,10.13,18.307,10.13
				s11.917-9.266,17.5-7.93l-9.833-4.987c0,0,0.408-1.25,0.852-2.708C249.657,46.347,247.269,46.079,244.902,46.079z"/>
			<linearGradient id="SVGID_3_" gradientUnits="userSpaceOnUse" x1="203.9531" y1="42.417" x2="239.9561" y2="42.417">
				<stop  offset="0.005" style="stop-color:#2FAC66"/>
				<stop  offset="1" style="stop-color:#2F8166"/>
			</linearGradient>
			<path fill="url(#SVGID_3_)" stroke="#12753A" stroke-width="2" stroke-miterlimit="10" d="M225.956,56.477
				c0,0-21.75-9.5-22-10.25s14.75-0.5,15.5,0s-11.5-10-11.5-10l16,6.25l-3.25-14.12l19.25,26.12L225.956,56.477z"/>
			<linearGradient id="SVGID_4_" gradientUnits="userSpaceOnUse" x1="229.9561" y1="41.7036" x2="253.1631" y2="41.7036">
				<stop  offset="0.005" style="stop-color:#2FAC66"/>
				<stop  offset="1" style="stop-color:#2F8166"/>
			</linearGradient>
			<polygon fill="url(#SVGID_4_)" stroke="#12753A" stroke-width="2" stroke-miterlimit="10" points="233.706,58.404 
				229.956,22.858 237.456,40.631 243.206,24.977 243.206,44.977 253.163,36.727 243.956,60.549 			"/>
			<g>
				<path fill="#FFEEE1" d="M249.96,59.072c0,0,2.884-1.964,6.14-3.155c0.811-0.295,1.636-0.561,2.434-0.708
					c0.393-0.099,0.786-0.133,1.154-0.175c0.366-0.062,0.722-0.027,1.044-0.033c0.324-0.019,0.616,0.065,0.875,0.098
					c0.262,0.027,0.479,0.093,0.653,0.169c0.351,0.13,0.551,0.205,0.551,0.205s-0.205-0.06-0.563-0.163
					c-0.175-0.063-0.394-0.112-0.654-0.12c-0.258-0.013-0.544-0.075-0.861-0.033c-0.316,0.03-0.659,0.02-1.015,0.107
					c-0.356,0.068-0.732,0.127-1.109,0.252c-0.764,0.2-1.55,0.518-2.318,0.863c-1.539,0.693-2.985,1.578-4.036,2.282
					c-1.057,0.707-1.707,1.221-1.707,1.221L249.96,59.072z"/>
			</g>
			<g>
				<linearGradient id="SVGID_5_" gradientUnits="userSpaceOnUse" x1="240.9482" y1="41.2271" x2="240.9482" y2="83.4838">
					<stop  offset="0" style="stop-color:#F7D7B8"/>
					<stop  offset="0.483" style="stop-color:#F7CFAF"/>
					<stop  offset="1" style="stop-color:#F7C7A6"/>
				</linearGradient>
				<path fill="url(#SVGID_5_)" d="M243.956,74.977c-7-3.25-18-6.396-17.5-16.573s22.75,0.573,29,4.573"/>
				<path fill="#AF7045" d="M243.956,74.977c0,0-0.873-0.308-2.401-0.847c-1.521-0.548-3.72-1.281-6.271-2.464
					c-1.27-0.603-2.645-1.297-3.979-2.266c-1.342-0.939-2.714-2.105-3.749-3.667c-1.049-1.533-1.802-3.397-2.014-5.364
					c-0.029-0.488-0.033-0.979-0.048-1.471l-0.009-0.37l-0.002-0.093l-0.001-0.046v-0.023l0.007-0.097l0.021-0.171l0.079-0.685
					c0.218-1.182,0.809-2.258,1.748-2.986c0.936-0.716,2.021-1.015,3.03-1.159c1.024-0.149,2.002-0.087,2.962-0.017
					c1.909,0.188,3.692,0.669,5.383,1.182c3.372,1.061,6.346,2.426,8.831,3.696c2.485,1.271,4.471,2.485,5.829,3.375
					c1.358,0.895,2.085,1.472,2.085,1.472s-3.286-1.728-8.393-3.803c-2.558-1.02-5.563-2.162-8.844-3.049
					c-1.636-0.445-3.352-0.782-5.065-0.95c-1.682-0.138-3.506-0.022-4.591,0.831c-0.541,0.392-0.875,1.039-1.027,1.655l-0.088,0.684
					l-0.022,0.17c-0.007,0.074,0.007-0.076,0.006-0.054v0.02l0.001,0.04l0.002,0.08l0.005,0.317l0.021,1.264
					c0.177,1.66,0.698,3.229,1.559,4.581c0.842,1.361,1.983,2.499,3.179,3.449c1.186,0.965,2.438,1.748,3.614,2.442
					c1.188,0.677,2.301,1.275,3.303,1.784c1.003,0.514,1.878,0.961,2.598,1.33c0.726,0.365,1.279,0.679,1.66,0.888
					C243.753,74.865,243.956,74.977,243.956,74.977z"/>
			</g>
			<g>
				<path fill="#FFEEE1" d="M228.081,57.075c0.02,0.016,0.109-0.409,0.672-0.898c0.564-0.464,1.589-0.862,2.828-0.926
					c1.237-0.077,2.678,0.019,4.182,0.286c1.507,0.256,3.079,0.666,4.632,1.125c1.547,0.477,3.075,1,4.485,1.548
					c1.415,0.537,2.704,1.115,3.813,1.593c1.11,0.479,2.006,0.945,2.644,1.246c0.632,0.314,0.987,0.507,0.987,0.507
					s-0.39-0.11-1.061-0.326c-0.667-0.226-1.636-0.508-2.774-0.901c-1.143-0.377-2.477-0.817-3.905-1.289
					c-1.428-0.465-2.946-0.971-4.479-1.421c-1.525-0.472-3.063-0.888-4.514-1.22c-1.45-0.321-2.818-0.573-3.995-0.586
					c-0.586-0.001-1.122,0.024-1.589,0.107c-0.464,0.092-0.847,0.246-1.143,0.416c-0.283,0.189-0.486,0.363-0.606,0.512
					C228.143,56.995,228.081,57.075,228.081,57.075z"/>
			</g>
			<g>
				<path fill="#AF7045" d="M261.456,54.727c0,0-0.221,0.009-0.605,0.026c-0.383,0.036-0.943-0.002-1.591,0.112
					c-0.322,0.048-0.671,0.1-1.04,0.155c-0.368,0.034-0.746,0.177-1.14,0.265c-0.391,0.108-0.801,0.186-1.191,0.357
					c-0.394,0.15-0.794,0.303-1.193,0.456c-0.378,0.196-0.755,0.392-1.127,0.585c-0.38,0.172-0.706,0.428-1.035,0.645
					c-0.317,0.234-0.658,0.406-0.917,0.663c-0.271,0.235-0.525,0.458-0.762,0.664c-0.481,0.394-0.781,0.833-1.036,1.084
					c-0.241,0.267-0.379,0.419-0.379,0.419l-1.467-1.359c0,0,0.181-0.152,0.496-0.417c0.329-0.248,0.733-0.677,1.333-1.045
					c0.293-0.189,0.61-0.395,0.945-0.612c0.322-0.235,0.727-0.379,1.106-0.582c0.392-0.185,0.778-0.404,1.215-0.535
					c0.424-0.148,0.854-0.299,1.286-0.449c0.442-0.101,0.886-0.202,1.321-0.301c0.43-0.118,0.871-0.14,1.288-0.194
					c0.422-0.034,0.816-0.122,1.208-0.104c0.385-0.002,0.749-0.004,1.085-0.006c0.668-0.02,1.21,0.096,1.596,0.115
					C261.236,54.705,261.456,54.727,261.456,54.727z"/>
			</g>
			<g>
				<g>
					<linearGradient id="SVGID_6_" gradientUnits="userSpaceOnUse" x1="274.9453" y1="41.2271" x2="274.9453" y2="83.4837">
						<stop  offset="0" style="stop-color:#F7D7B8"/>
						<stop  offset="0.483" style="stop-color:#F7CFAF"/>
						<stop  offset="1" style="stop-color:#F7C7A6"/>
					</linearGradient>
					<path fill="url(#SVGID_6_)" d="M259.54,74.977l9.264,9.391l-7.348,3.482c0,0,9.417,19.627,10.417,19.96
						s20.333-19.667,18.333-26.333s-19.339-11-25.836-12"/>
					<path fill="#AF7045" d="M259.54,74.977c1.001,0.557,1.916,1.199,2.804,1.867c0.882,0.673,1.737,1.375,2.558,2.109
						c0.823,0.731,1.631,1.479,2.402,2.262c0.773,0.781,1.527,1.582,2.212,2.45l0.93,1.179l-1.213,0.427l-0.003,0.001l-7.345,3.481
						l0.473-1.336l0.002,0.003l4.771,9.459l2.436,4.694c0.822,1.547,1.664,3.115,2.539,4.56c0.107,0.174,0.221,0.352,0.323,0.5
						c0.044,0.059,0.116,0.171,0.136,0.187l0.036,0.047c0.011,0.01-0.088-0.091-0.144-0.117c-0.034-0.021-0.07-0.038-0.106-0.052
						l-0.056-0.018l-0.334-0.069c0.009,0.003,0.132,0-0.092-0.007c-0.075,0.002-0.15,0.015-0.22,0.036
						c-0.035,0.011-0.069,0.023-0.102,0.038c-0.005,0.002-0.002,0-0.004,0.001c-0.005-0.001-0.016,0.01,0.018-0.013
						c0.039-0.022,0.115-0.077,0.183-0.125c0.144-0.106,0.301-0.235,0.457-0.366c0.628-0.534,1.26-1.135,1.876-1.741
						c1.236-1.218,2.437-2.493,3.608-3.791c2.339-2.6,4.572-5.305,6.601-8.128c1.01-1.413,1.966-2.859,2.824-4.336
						c0.842-1.473,1.609-3.019,1.956-4.527c0.173-0.75,0.202-1.468,0.005-1.979c-0.166-0.486-0.275-0.655-0.469-0.979
						c-0.19-0.313-0.433-0.612-0.684-0.908c-1.056-1.166-2.459-2.135-3.929-2.979c-2.973-1.675-6.261-2.91-9.584-3.96
						c-1.668-0.519-3.354-0.992-5.053-1.406c-1.707-0.399-3.365-0.9-4.982-1.964c1.878-0.516,3.685-0.291,5.419,0.122
						c1.744,0.396,3.473,0.853,5.191,1.358c3.429,1.029,6.828,2.233,10.054,3.983c1.602,0.893,3.179,1.914,4.53,3.354
						c0.329,0.372,0.65,0.757,0.929,1.194c0.282,0.42,0.583,1.042,0.698,1.394c0.436,1.157,0.323,2.287,0.129,3.25
						c-0.428,1.954-1.257,3.616-2.133,5.222c-0.885,1.602-1.889,3.107-2.938,4.57c-2.102,2.921-4.383,5.677-6.776,8.334
						c-1.199,1.327-2.426,2.627-3.71,3.892c-0.645,0.633-1.295,1.253-2.014,1.865c-0.184,0.153-0.368,0.305-0.58,0.462
						c-0.112,0.081-0.214,0.157-0.365,0.248c-0.059,0.039-0.169,0.097-0.273,0.146l-0.041,0.02l-0.14,0.05
						c-0.097,0.03-0.198,0.051-0.299,0.062c-0.275,0.019-0.209,0.005-0.255,0.009c-0.592-0.112-0.215-0.052-0.37-0.087l-0.089-0.043
						c-0.059-0.03-0.117-0.064-0.173-0.101c-0.099-0.061-0.248-0.188-0.273-0.22l-0.179-0.206c-0.128-0.149-0.17-0.228-0.258-0.346
						c-0.149-0.216-0.272-0.413-0.396-0.614c-0.951-1.586-1.742-3.159-2.56-4.745l-2.374-4.765
						c-1.565-3.181-3.086-6.377-4.569-9.597l-0.001-0.003l-0.436-0.906l0.909-0.431l7.345-3.481l0.002-0.001l-0.283,1.606
						c-0.859-0.697-1.649-1.461-2.42-2.245c-0.772-0.781-1.509-1.6-2.229-2.433c-0.724-0.83-1.412-1.694-2.074-2.586
						C260.712,76.909,260.083,75.986,259.54,74.977z"/>
				</g>
				<path fill="#D89060" d="M285.992,89.986c-3.922-3.632-9.663-6.164-15.786-6.176l1-0.667c-0.461,0.212-0.99,0.444-1.558,0.69
					l0.797,1.01l-1.213,0.427l-0.003,0.001l-6.419,3.042l4.319,8.565l2.436,4.694c0.822,1.547,1.664,3.115,2.539,4.56
					c0.017,0.027,0.033,0.05,0.05,0.077c0.016-0.013,0.03-0.023,0.046-0.037c0.628-0.534,1.26-1.135,1.876-1.741
					c1.236-1.218,2.437-2.493,3.608-3.791c2.339-2.6,4.572-5.305,6.601-8.128C284.879,91.685,285.444,90.839,285.992,89.986z"/>
				<g>
					<linearGradient id="SVGID_7_" gradientUnits="userSpaceOnUse" x1="268.1445" y1="82.4121" x2="280.54" y2="82.4121">
						<stop  offset="0" style="stop-color:#F7D7B8"/>
						<stop  offset="0.483" style="stop-color:#F7CFAF"/>
						<stop  offset="1" style="stop-color:#F7C7A6"/>
					</linearGradient>
					<line fill="url(#SVGID_7_)" x1="268.145" y1="84.68" x2="280.54" y2="80.144"/>
					<polygon fill="#AF7045" points="267.801,83.741 280.54,80.144 268.488,85.619 					"/>
				</g>
			</g>
		</g>
		<g>
			<g>
				<linearGradient id="SVGID_8_" gradientUnits="userSpaceOnUse" x1="76.2007" y1="69.9683" x2="110.7515" y2="69.9683">
					<stop  offset="0" style="stop-color:#F7D7B8"/>
					<stop  offset="0.483" style="stop-color:#F7CFAF"/>
					<stop  offset="1" style="stop-color:#F7C7A6"/>
				</linearGradient>
				<path fill="url(#SVGID_8_)" stroke="#AF7045" stroke-width="2" stroke-miterlimit="10" d="M76.201,73.349l21.661,24.74l12.89-4
					c0,0-15.056-40.571-18.223-50.619S76.201,73.349,76.201,73.349z"/>
				<path fill="#D89060" d="M91.575,43.771c-0.064-0.205-0.127-0.364-0.186-0.49c-0.442,0.071-0.883,0.167-1.322,0.294
					C87.402,46.625,82.053,58.89,77.33,73.12l5.899,6.738c5.74-3.23,11.796-9.046,15.682-15.166
					C95.728,55.896,92.78,47.594,91.575,43.771z"/>
				<linearGradient id="SVGID_9_" gradientUnits="userSpaceOnUse" x1="1" y1="43.4692" x2="94.7515" y2="43.4692">
					<stop  offset="0" style="stop-color:#F7D7B8"/>
					<stop  offset="0.483" style="stop-color:#F7CFAF"/>
					<stop  offset="1" style="stop-color:#F7C7A6"/>
				</linearGradient>
				<path fill="url(#SVGID_9_)" stroke="#AF7045" stroke-width="2" stroke-miterlimit="10" d="M81.861,68.797
					c0,0-7.793,25.729-48.271,4.552C8.012,55.381,2.111,47.422,2.111,47.422s-2.5-7.737,0-9.619s8-2.381,14.5,2.119
					s0.75-3.492,0.75-3.492s-11.5-13.039-5.5-19.398s19.75,9.14,19.75,9.14l3.331-4.006c0,0-7.874-12.494-1.352-16.244
					s27.521,8.188,48.271,24.594s11,28.156,7.75,31.906C85.611,68.422,81.861,68.797,81.861,68.797z"/>
				
					<ellipse transform="matrix(0.8409 0.5412 -0.5412 0.8409 41.9597 -36.188)" opacity="0.3" fill="#FFEEE1" cx="82.528" cy="53.27" rx="6.483" ry="8.698"/>
				<path fill="#D89060" d="M34.088,6.789c-0.997,0.573-1.62,1.411-1.906,2.56c-1.155,4.644,3.558,12.209,3.605,12.285l0.386,0.614
					l-4.538,5.459l-0.773-0.871C30.771,26.732,21.617,16.5,15.493,16.5c-1.181,0-2.131,0.398-2.904,1.218
					c-5.312,5.631,5.414,17.927,5.522,18.051c3.164,4.389,2.636,5.419,2.438,5.807c-0.231,0.451-0.694,0.721-1.237,0.721
					c-0.509,0-1.295-0.185-3.271-1.552C12.086,38.005,8.887,37.43,6.9,37.43c-1.696,0-3.183,0.416-4.188,1.172
					c-1.291,0.972-0.598,5.485,0.297,8.344c0.856,1.059,7.75,9.137,31.102,25.546c5.095,2.662,9.878,4.678,14.325,6.05
					c0.144-0.137,0.293-0.258,0.436-0.399l-0.203,0.473c0.369,0.112,0.733,0.214,1.097,0.317
					c20.617-17.003,31.409-35.351,19.293-56.721c-14.2-9.941-26.26-15.984-32.372-15.984C35.609,6.229,34.734,6.417,34.088,6.789z"
					/>
				<g>
					<path fill="#AF7045" d="M64.442,46.649c0,0,0.562-0.807,1.405-2.017c0.418-0.606,0.906-1.315,1.489-2.042
						c0.567-0.733,1.171-1.516,1.776-2.298c0.639-0.75,1.278-1.501,1.877-2.205c0.304-0.347,0.578-0.7,0.873-1.003
						c0.29-0.309,0.563-0.601,0.816-0.87c1.01-1.076,1.683-1.792,1.683-1.792s-0.626,0.758-1.565,1.895
						c-0.234,0.284-0.488,0.591-0.757,0.917c-0.274,0.32-0.525,0.69-0.805,1.054c-0.55,0.736-1.138,1.522-1.725,2.307
						c-0.548,0.81-1.096,1.62-1.609,2.379c-0.525,0.747-0.967,1.485-1.347,2.119c-0.764,1.261-1.273,2.102-1.273,2.102
						L64.442,46.649z"/>
				</g>
				<g>
					<path fill="#AF7045" d="M63.9,43.728c0,0,0.341-0.727,0.853-1.818c0.128-0.272,0.266-0.568,0.413-0.88
						c0.135-0.316,0.351-0.628,0.534-0.962c0.384-0.659,0.793-1.361,1.202-2.064c0.467-0.66,0.933-1.32,1.37-1.938
						c0.225-0.304,0.417-0.616,0.644-0.878c0.226-0.263,0.439-0.511,0.637-0.741c0.786-0.914,1.31-1.523,1.31-1.523
						s-0.475,0.647-1.187,1.619c-0.177,0.242-0.369,0.504-0.572,0.781c-0.204,0.276-0.371,0.602-0.569,0.92
						c-0.383,0.643-0.792,1.328-1.201,2.014c-0.345,0.714-0.689,1.429-1.013,2.099c-0.153,0.339-0.335,0.642-0.446,0.972
						c-0.122,0.323-0.237,0.628-0.343,0.91c-0.425,1.127-0.708,1.879-0.708,1.879L63.9,43.728z"/>
				</g>
			</g>
			<g>
				<g>
					<linearGradient id="SVGID_10_" gradientUnits="userSpaceOnUse" x1="33.5898" y1="86.6558" x2="71.9048" y2="86.6558">
						<stop  offset="0.005" style="stop-color:#2FAC66"/>
						<stop  offset="1" style="stop-color:#2F8166"/>
					</linearGradient>
					<path fill="url(#SVGID_10_)" stroke="#12753A" stroke-width="2" stroke-miterlimit="10" d="M43.449,74.925
						c0,0,19.289,5.985,28.456,4.55c-3.024,2.897-9.774,4.098-9.774,4.098s3.94,4.888,6.08,6.214
						c2.139,1.326,2.139,1.326,2.139,1.326l-15.145-0.465c0,0,6.323,7.595,7.558,8.613c-5.28,0.881-24.743-9.716-28.491-19.116
						C30.523,70.745,43.449,74.925,43.449,74.925z"/>
					<path opacity="0.5" fill="#12753A" d="M43.153,75.88c-0.038-0.012-2.763-0.881-5.208-0.881c-1.08,0-2.485,0.174-3.048,1.005
						c-0.494,0.729-0.389,2.033,0.304,3.771c1.56,3.911,6.054,8.078,11.031,11.468c3.277-3.936,6.467-8.583,7.7-12.542
						C48.165,77.424,43.5,75.988,43.153,75.88z"/>
					<g opacity="0.4">
						<path fill="#3AD87A" d="M51.528,86.453c0,0,0.647-0.063,1.597-0.026c0.951,0.028,2.205,0.15,3.445,0.351
							c1.24,0.208,2.467,0.493,3.376,0.772c0.911,0.271,1.503,0.539,1.503,0.539s-0.647,0.064-1.597,0.028
							c-0.951-0.028-2.204-0.151-3.445-0.352c-1.24-0.208-2.466-0.495-3.376-0.773C52.121,86.72,51.528,86.453,51.528,86.453z"/>
					</g>
				</g>
				<g>
					<linearGradient id="SVGID_11_" gradientUnits="userSpaceOnUse" x1="25.5972" y1="71.7637" x2="50.3755" y2="71.7637">
						<stop  offset="0.005" style="stop-color:#2FAC66"/>
						<stop  offset="1" style="stop-color:#2F8166"/>
					</linearGradient>
					<path fill="url(#SVGID_11_)" stroke="#12753A" stroke-width="2" stroke-miterlimit="10" d="M50.246,68.887
						c1.211,3.845-6.198,22.532-17.146,18.536c-10.947-3.996-9.071-28.482,0.187-31.497C42.546,52.911,50.246,68.887,50.246,68.887z
						"/>
					<path opacity="0.5" fill="#12753A" d="M49.31,69.25c-0.275-0.551-2.126-4.159-4.885-7.39c-6.031-0.272-12.812,1.21-16.915,3.45
						c-0.544,1.999-0.868,4.229-0.909,6.572c-0.052,2.943,0.373,6.159,1.476,8.866c5.571-0.399,12.926-1.135,18.817-2.777
						C48.854,74.134,49.619,70.445,49.31,69.25z"/>
				</g>
				<g>
					<linearGradient id="SVGID_12_" gradientUnits="userSpaceOnUse" x1="48.3628" y1="17.0317" x2="99.6113" y2="17.0317">
						<stop  offset="0.005" style="stop-color:#2FAC66"/>
						<stop  offset="1" style="stop-color:#2F8166"/>
					</linearGradient>
					<path fill="url(#SVGID_12_)" stroke="#12753A" stroke-width="2" stroke-miterlimit="10" d="M67.325,12.842
						c0,0,16.037-9.92,20.787-11.17c-2.5,3.5-6.25,11.17-6.25,11.17s13.75-3.17,17.75-2.92c-3,2.25-14,9.131-14,9.131
						s12,4.869,12,5.869s-19.409-1.834-36.83,5.708s-11.42-11.577-11.42-11.577L67.325,12.842z"/>
					<path opacity="0.5" fill="#12753A" d="M75.006,9.417c-3.905,2.268-7.084,4.231-7.155,4.275l-0.199,0.095L50.176,19.83
						c-0.645,2.341-1.559,7.555,0.277,10.053c1.537,2.089,4.926,1.997,9.931-0.17c4.224-1.829,8.556-3.059,12.757-3.888
						C74.687,20.709,75.773,14.559,75.006,9.417z"/>
					<g opacity="0.4">
						<path fill="#3AD87A" d="M76.201,18.451c0,0,0.821-0.458,2.096-1.019c1.272-0.569,2.996-1.247,4.745-1.85
							c1.752-0.596,3.529-1.117,4.883-1.446c1.352-0.337,2.281-0.477,2.281-0.477s-0.821,0.458-2.095,1.021
							c-1.272,0.569-2.996,1.247-4.746,1.848c-1.752,0.596-3.53,1.116-4.884,1.445C77.13,18.31,76.201,18.451,76.201,18.451z"/>
					</g>
				</g>
				<g>
					<linearGradient id="SVGID_13_" gradientUnits="userSpaceOnUse" x1="40.2349" y1="22.1655" x2="68.5337" y2="22.1655">
						<stop  offset="0.005" style="stop-color:#2FAC66"/>
						<stop  offset="1" style="stop-color:#2F8166"/>
					</linearGradient>
					<path fill="url(#SVGID_13_)" stroke="#12753A" stroke-width="2" stroke-miterlimit="10" d="M42.611,13.922
						c2-3.5,20.75-10.75,25.25,0s-14.75,26-23.25,21.25S42.611,13.922,42.611,13.922z"/>
					<path opacity="0.5" fill="#12753A" d="M62.912,19.337c-3.548-4.124-7.547-6.974-12.066-8.9
						c-3.653,1.132-6.64,2.832-7.332,3.923c-0.441,1.168-5.784,15.82,1.585,19.938c0.909,0.508,2.006,0.766,3.262,0.766
						c5.315,0,12.785-4.726,16.65-10.536c0.272-0.409,0.515-0.817,0.743-1.225C65.016,22.028,64.09,20.707,62.912,19.337z"/>
				</g>
				<linearGradient id="SVGID_14_" gradientUnits="userSpaceOnUse" x1="44.3613" y1="46.5073" x2="68.2441" y2="46.5073">
					<stop  offset="0.005" style="stop-color:#2FAC66"/>
					<stop  offset="1" style="stop-color:#2F8166"/>
				</linearGradient>
				<path fill="url(#SVGID_14_)" stroke="#12753A" stroke-width="2" stroke-miterlimit="10" d="M56.736,28.428
					c3.5,3.963,14.949,9.06,10.492,23.982c-4.333,14.511-22.867,12.011-22.867,12.011L56.736,28.428z"/>
				<linearGradient id="SVGID_15_" gradientUnits="userSpaceOnUse" x1="6.8872" y1="43.3018" x2="62.9966" y2="43.3018">
					<stop  offset="0.005" style="stop-color:#2FAC66"/>
					<stop  offset="1" style="stop-color:#2F8166"/>
				</linearGradient>
				<path fill="url(#SVGID_15_)" stroke="#12753A" stroke-width="2" stroke-miterlimit="10" d="M61.06,51.911
					c-5.646,17.126-21.916,27.156-36.34,22.401C10.295,69.558,3.179,51.819,8.824,34.692C14.47,17.566,30.74,7.536,45.164,12.291
					S66.706,34.784,61.06,51.911z"/>
				<linearGradient id="SVGID_16_" gradientUnits="userSpaceOnUse" x1="-13.3516" y1="23.0581" x2="54.0245" y2="50.982">
					<stop  offset="0" style="stop-color:#3AD87A"/>
					<stop  offset="1" style="stop-color:#3AD87A;stop-opacity:0.1"/>
				</linearGradient>
				<path fill="url(#SVGID_16_)" d="M9.956,42.547c0-15.373,14.058-27.57,30.279-27.32c6.169,0.375,7.126,3.826,7.126,3.826
					s-6.987,3.576-1.071,18.75c3.445,6.197,10.541,2.869,10.541,2.869s2.568,7.125-0.528,14.875
					c-2.81-4.57-8.436-8.502-18.316,0.661c-7.03,6.52-2.03,15.081-2.03,15.081S8.873,73.999,9.956,42.547z"/>
				<linearGradient id="SVGID_17_" gradientUnits="userSpaceOnUse" x1="2.3452" y1="28.3716" x2="36.7202" y2="42.8716">
					<stop  offset="0" style="stop-color:#FFFFFF"/>
					<stop  offset="1" style="stop-color:#FFFFFF;stop-opacity:0.1"/>
				</linearGradient>
				<path opacity="0.6" fill="url(#SVGID_17_)" d="M14.208,40.367c1.95-9.025,10.095-22.11,22.748-21.915
					c4.812,0.292,7.405,0.601,7.405,0.601s-7.207,8.118-2.592,19.954c2.688,4.833,13.896,3.679,13.896,3.679s0.851,3.454,0,9.384
					c-2.192-3.564-12.666-5.854-20.373,1.292c-5.484,5.085-2.821,13.56-2.821,13.56s-19.238,0.02-18.263-25.678V40.367z"/>
				<circle fill="#FFF9D7" stroke="#C6B159" stroke-miterlimit="10" cx="47.361" cy="64.922" r="9.375"/>
				<circle fill="#FFF9D7" stroke="#C6B159" stroke-miterlimit="10" cx="55.665" cy="28.428" r="9.375"/>
				<circle fill="#1D1D1B" cx="54.623" cy="68.797" r="1.875"/>
				<circle fill="#1D1D1B" cx="62.111" cy="32.391" r="1.875"/>
			</g>
			<g>
				<path fill="#AF7045" d="M82.638,69.583c0,0-0.204,0.008-0.56,0.021c-0.178,0.007-0.395,0.015-0.643,0.023
					c-0.255,0.002-0.512,0.037-0.851,0.012c-0.327-0.014-0.68-0.03-1.054-0.047c-0.373-0.001-0.761-0.063-1.16-0.134
					c-0.397-0.083-0.811-0.095-1.218-0.243c-0.404-0.128-0.814-0.259-1.224-0.391c-0.382-0.195-0.765-0.39-1.141-0.582
					c-0.384-0.168-0.68-0.477-1.005-0.697c-0.321-0.231-0.618-0.465-0.852-0.742c-0.246-0.259-0.478-0.503-0.691-0.729
					c-0.223-0.215-0.357-0.473-0.512-0.669c-0.145-0.203-0.271-0.381-0.375-0.527c-0.207-0.29-0.324-0.456-0.324-0.456
					s0.142,0.146,0.392,0.403c0.124,0.127,0.274,0.282,0.446,0.459c0.181,0.167,0.345,0.395,0.595,0.57
					c0.238,0.184,0.495,0.383,0.768,0.593c0.257,0.227,0.572,0.402,0.903,0.57c0.335,0.156,0.636,0.397,1.013,0.494
					c0.36,0.119,0.727,0.241,1.093,0.362c0.38,0.059,0.761,0.118,1.135,0.176c0.365,0.078,0.754,0.026,1.11,0.046
					c0.36,0.009,0.705,0.013,1.032-0.04c0.325-0.034,0.631-0.067,0.915-0.097c0.272-0.016,0.567-0.098,0.805-0.136
					c0.244-0.047,0.457-0.088,0.632-0.122c0.351-0.067,0.551-0.105,0.551-0.105L82.638,69.583z"/>
			</g>
		</g>
		<g>
			<linearGradient id="SVGID_18_" gradientUnits="userSpaceOnUse" x1="56.8311" y1="119.3911" x2="275.4736" y2="119.3911">
				<stop  offset="0" style="stop-color:#67D3F9"/>
				<stop  offset="1" style="stop-color:#51A6F9"/>
			</linearGradient>
			<path fill="url(#SVGID_18_)" stroke="#3077B7" stroke-width="2" stroke-miterlimit="10" d="M56.831,127.977
				c0-8.794,3.125-27.75,44.125-37s130.75-4,130.75-4s38.75-14,43.25,14.25s-21.25,38.5-42.25,42.5s-150.25,12.25-151.25,11.5
				S56.831,158.722,56.831,127.977z"/>
			<path opacity="0.5" fill="#3077B7" d="M267.933,125.961c-2.323-8.965-9.035-18.667-11.852-29.972
				c-1.47-5.899-1.372-9.024-3.269-11.445c-0.435-0.013-0.858-0.036-1.306-0.036c-9.908,0-19.366,3.375-19.461,3.409l-0.193,0.07
				l-0.205-0.012c-0.253-0.015-25.681-1.482-55.232-1.482c-33.868,0-59.182,1.837-75.239,5.459
				c-13.605,3.069-24.032,7.4-31.25,12.954c-6.13,14.949-7.483,29.979-3.807,45.178c5.015,3.825,10.98,3.955,13.857,4.015
				c0.947,0.02,1.437,0.029,1.791,0.168c0.114,0.007,0.285,0.008,0.51,0.008c11.324,0,130.778-7.823,150.24-11.53
				C249.42,139.526,261.237,133.907,267.933,125.961z"/>
		</g>
		<linearGradient id="SVGID_19_" gradientUnits="userSpaceOnUse" x1="142.2061" y1="59.7271" x2="161.7061" y2="59.7271">
			<stop  offset="0" style="stop-color:#F7D7B8"/>
			<stop  offset="0.483" style="stop-color:#F7CFAF"/>
			<stop  offset="1" style="stop-color:#F7C7A6"/>
		</linearGradient>
		<circle fill="url(#SVGID_19_)" stroke="#AF7045" stroke-width="2" stroke-miterlimit="10" cx="151.956" cy="59.727" r="9.75"/>
		<linearGradient id="SVGID_20_" gradientUnits="userSpaceOnUse" x1="71.187" y1="129.1675" x2="250.499" y2="129.1675">
			<stop  offset="0" style="stop-color:#F7D7B8"/>
			<stop  offset="0.483" style="stop-color:#F7CFAF"/>
			<stop  offset="1" style="stop-color:#F7C7A6"/>
		</linearGradient>
		<path fill="url(#SVGID_20_)" stroke="#AF7045" stroke-width="2" stroke-miterlimit="10" d="M249.876,115.735
			c5.788,38.364-29.381,75.479-78.553,82.896c-49.171,7.419-93.725-17.667-99.513-56.03c-5.788-38.364,29.38-75.478,78.552-82.897
			C199.533,52.285,244.088,77.372,249.876,115.735z"/>
		<g>
			<linearGradient id="SVGID_21_" gradientUnits="userSpaceOnUse" x1="119.4214" y1="231.7446" x2="117.4214" y2="200.0777">
				<stop  offset="0" style="stop-color:#E8871C"/>
				<stop  offset="1" style="stop-color:#E8651C"/>
			</linearGradient>
			<path fill="url(#SVGID_21_)" stroke="#C13F0C" stroke-width="2" stroke-miterlimit="10" d="M111.833,207.144
				c0,0-11.834,4.166-10.167,20.833c0,0,3.5-4.5,3.667-5s-0.667,10.167,5.667,12.5c0.333-3.833,0.833-5.5,0.833-5.5
				s3.833,10.166,15.667,4.333s8.833-18,7-20.5S124.833,205.311,111.833,207.144z"/>
			<path opacity="0.5" fill="#C13F0C" d="M117.797,224.978c7.442,0,13.476-5,13.476-11.166c0-0.603-0.074-1.19-0.185-1.767
				c-2.818-1.985-7.685-4.244-14.481-4.244c-1.474,0-2.997,0.107-4.527,0.318c-0.707,0.274-4.995,2.125-7.586,7.386
				C105.479,220.866,111.051,224.978,117.797,224.978z"/>
			<circle fill="#36A9E1" stroke="#197EA5" stroke-miterlimit="10" cx="116.706" cy="215.477" r="6"/>
			<linearGradient id="SVGID_22_" gradientUnits="userSpaceOnUse" x1="116.6987" y1="231.9175" x2="114.6987" y2="200.2497">
				<stop  offset="0" style="stop-color:#E8871C"/>
				<stop  offset="1" style="stop-color:#E8651C"/>
			</linearGradient>
			<path fill="url(#SVGID_22_)" stroke="#C13F0C" stroke-width="2" stroke-miterlimit="10" d="M94.873,175.167
				c0,0-3,11.978,5,22.644c-2,5,6,13.999,9.333,14.666c1,3.334,7.5,4.667,11.25,1.667s0-9.333,0-9.333l3.083-4.88
				c0,0,5-1.454,9.333-9.787S94.873,175.167,94.873,175.167z"/>
			<path opacity="0.5" fill="#C13F0C" d="M95.671,176.308c-0.402,2.476-1.094,9.69,2.604,17.014
				c6.923,4.261,15.252,8.005,22.778,8.674l1.844-2.919l0.364-0.105c0.04-0.013,4.679-1.509,8.725-9.288
				c0.266-0.512,0.266-0.975-0.001-1.503C129.293,182.853,105.725,177.958,95.671,176.308z"/>
			<g>
				<path fill="#C13F0C" d="M100.427,196.983c0,0,0.074,0.085,0.204,0.232c0.125,0.129,0.327,0.4,0.526,0.567
					c0.104,0.1,0.218,0.208,0.337,0.322c0.117,0.119,0.284,0.228,0.435,0.351c0.304,0.255,0.67,0.473,1.032,0.71
					c0.376,0.203,0.752,0.437,1.13,0.591c0.372,0.179,0.73,0.318,1.045,0.424c0.312,0.123,0.583,0.179,0.771,0.233
					c0.19,0.051,0.299,0.08,0.299,0.08s-0.112,0.002-0.308,0.006c-0.196-0.001-0.483,0.021-0.822-0.013
					c-0.342-0.015-0.741-0.052-1.166-0.124c-0.433-0.049-0.876-0.173-1.334-0.274c-0.445-0.137-0.904-0.259-1.313-0.439
					c-0.208-0.088-0.41-0.15-0.604-0.255c-0.195-0.103-0.38-0.199-0.55-0.288c-0.37-0.187-0.544-0.336-0.729-0.442
					c-0.165-0.106-0.26-0.167-0.26-0.167L100.427,196.983z"/>
			</g>
			<g>
				<path fill="#C13F0C" d="M124.122,200.812c0,0-0.572,0.07-1.43,0.176c-0.219,0.021-0.438,0.067-0.702,0.072
					c-0.257,0.013-0.529,0.026-0.81,0.04c-0.554,0.023-1.146,0.049-1.737,0.074c-1.159-0.001-2.31,0.027-3.175-0.001
					c-0.863-0.018-1.438-0.029-1.438-0.029s0.563-0.112,1.409-0.282c0.845-0.157,1.962-0.435,3.077-0.68
					c0.54-0.143,1.079-0.286,1.585-0.421c0.249-0.066,0.49-0.131,0.718-0.191c0.226-0.052,0.45-0.151,0.651-0.217
					c0.812-0.287,1.353-0.479,1.353-0.479L124.122,200.812z"/>
			</g>
			<g>
				<path fill="#C13F0C" d="M121.715,204.881c0,0-0.273,0.166-0.682,0.414c-0.103,0.062-0.213,0.129-0.331,0.2
					c-0.106,0.072-0.288,0.139-0.436,0.209c-0.307,0.131-0.634,0.27-0.962,0.408c-0.328,0.076-0.657,0.151-0.964,0.223
					c-0.153,0.026-0.29,0.081-0.436,0.079c-0.142,0.008-0.275,0.016-0.398,0.022c-0.48,0.024-0.8,0.04-0.8,0.04
					s0.287-0.137,0.718-0.342c0.104-0.05,0.217-0.104,0.336-0.162c0.122-0.046,0.23-0.15,0.35-0.228
					c0.23-0.164,0.475-0.338,0.721-0.513c0.197-0.202,0.395-0.404,0.58-0.594c0.089-0.101,0.173-0.154,0.254-0.277
					c0.081-0.11,0.158-0.215,0.229-0.312c0.283-0.386,0.471-0.644,0.471-0.644L121.715,204.881z"/>
			</g>
			<g>
				<path fill="#FFA05F" d="M100.873,199.744c0,0,0.16,0.094,0.456,0.192c0.151,0.046,0.306,0.12,0.517,0.17
					c0.207,0.052,0.438,0.11,0.681,0.184c0.258,0.043,0.535,0.09,0.821,0.153c0.282,0.073,0.601,0.083,0.917,0.134
					c0.634,0.102,1.32,0.154,2.009,0.199c0.682,0.101,1.38,0.064,2.03,0.122c0.327,0.021,0.643,0.043,0.942,0.062
					c0.3,0,0.585,0.012,0.849,0.024c1.055,0.043,1.778,0.159,1.778,0.159s-0.685,0.219-1.743,0.414
					c-0.528,0.11-1.148,0.207-1.822,0.221c-0.673,0.026-1.391,0.076-2.112-0.007c-0.359-0.038-0.719-0.077-1.072-0.115
					c-0.354-0.034-0.695-0.15-1.028-0.219c-0.667-0.132-1.263-0.402-1.762-0.611c-0.244-0.131-0.461-0.263-0.65-0.377
					c-0.193-0.104-0.342-0.258-0.466-0.351C100.972,199.897,100.881,199.736,100.873,199.744z"/>
			</g>
			<g>
				<path fill="#FFA05F" d="M119.873,205.979c0,0-0.486,0.506-1.415,0.974c-0.458,0.243-1.024,0.467-1.652,0.641
					c-0.627,0.175-1.319,0.285-2.016,0.321c-0.348,0.028-0.698-0.006-1.04-0.011c-0.343-0.002-0.676-0.084-0.999-0.121
					c-0.323-0.04-0.625-0.146-0.913-0.217c-0.29-0.064-0.549-0.183-0.79-0.277c-0.486-0.177-0.856-0.404-1.113-0.56
					c-0.256-0.155-0.396-0.252-0.396-0.252s0.17,0.024,0.467,0.066c0.145,0.026,0.319,0.058,0.521,0.095
					c0.196,0.046,0.43,0.053,0.672,0.096c0.487,0.081,1.057,0.125,1.658,0.174c0.604,0.026,1.246,0.055,1.886,0.009
					c0.642-0.013,1.279-0.1,1.878-0.182c0.598-0.095,1.158-0.204,1.638-0.318C119.218,206.192,119.873,205.979,119.873,205.979z"/>
			</g>
			<g>
				<path fill="#FFA05F" d="M116.706,233.602c0,0,0.45,0.196,1.271,0.356c0.819,0.172,2.018,0.234,3.432,0.098
					c1.415-0.132,3.041-0.526,4.675-1.188c1.63-0.663,3.278-1.614,4.624-2.891c0.666-0.64,1.282-1.339,1.724-2.112
					c0.448-0.779,0.792-1.614,1.034-2.455c0.479-1.686,0.673-3.354,0.72-4.784c0.043-1.433,0.036-2.64-0.004-3.483
					c-0.033-0.843-0.024-1.34,0.025-1.328c-0.055-0.005,0.032,0.476,0.171,1.31c0.12,0.837,0.333,2.037,0.376,3.502
					c0.039,1.459,0.026,3.196-0.433,5.015c-0.229,0.904-0.55,1.836-1.049,2.706c-0.495,0.884-1.156,1.66-1.879,2.356
					c-1.476,1.373-3.248,2.362-4.997,2.982c-1.75,0.631-3.479,0.88-4.952,0.926c-1.48,0.047-2.702-0.213-3.515-0.468
					c-0.407-0.13-0.713-0.277-0.916-0.378C116.812,233.66,116.706,233.602,116.706,233.602z"/>
			</g>
		</g>
		<g>
			
				<linearGradient id="SVGID_23_" gradientUnits="userSpaceOnUse" x1="213.6484" y1="222.8726" x2="211.6484" y2="191.2045" gradientTransform="matrix(-0.9438 0.3304 0.3304 0.9438 352.8682 -60.6008)">
				<stop  offset="0" style="stop-color:#E8871C"/>
				<stop  offset="1" style="stop-color:#E8651C"/>
			</linearGradient>
			<path fill="url(#SVGID_23_)" stroke="#C13F0C" stroke-width="2" stroke-miterlimit="10" d="M223.896,194.61
				c0,0,12.546,0.021,16.481,16.303c0,0-4.792-3.091-5.114-3.508s3.99,9.376-1.218,13.671c-1.581-3.508-2.604-4.916-2.604-4.916
				s-0.257,10.861-13.354,9.267s-14.286-14.069-13.381-17.035C205.61,205.425,211.021,197.175,223.896,194.61z"/>
			<path opacity="0.5" fill="#C13F0C" d="M224.16,213.413c-7.024,2.459-14.371-0.267-16.408-6.086
				c-0.199-0.568-0.323-1.148-0.41-1.729c2.003-2.805,5.851-6.545,12.266-8.791c1.392-0.487,2.863-0.889,4.378-1.195
				c0.759,0.025,5.416,0.355,9.601,4.464C234.427,205.461,230.526,211.184,224.16,213.413z"/>
			<circle fill="#36A9E1" stroke="#197EA5" stroke-miterlimit="10" cx="222.05" cy="204.085" r="6"/>
			
				<linearGradient id="SVGID_24_" gradientUnits="userSpaceOnUse" x1="210.9277" y1="223.0454" x2="208.9276" y2="191.3762" gradientTransform="matrix(-0.9438 0.3304 0.3304 0.9438 352.8682 -60.6008)">
				<stop  offset="0" style="stop-color:#E8871C"/>
				<stop  offset="1" style="stop-color:#E8651C"/>
			</linearGradient>
			<path fill="url(#SVGID_24_)" stroke="#C13F0C" stroke-width="2" stroke-miterlimit="10" d="M229.337,158.825
				c0,0,6.79,10.313,2.764,23.023c3.54,4.059-1.037,15.195-3.963,16.927c0.157,3.478-5.537,6.883-10.067,5.291
				c-4.531-1.593-3.084-8.809-3.084-8.809l-4.523-3.587c0,0-5.199,0.279-12.042-6.153
				C191.576,179.084,229.337,158.825,229.337,158.825z"/>
			<path opacity="0.5" fill="#C13F0C" d="M228.96,160.166c1.198,2.203,4.234,8.784,3.165,16.918
				c-5.126,6.309-11.75,12.595-18.632,15.713l-2.705-2.146l-0.379,0.021c-0.041,0.001-4.914,0.122-11.304-5.884
				c-0.42-0.395-0.573-0.832-0.495-1.419C199.39,177.453,220.017,165.044,228.96,160.166z"/>
			<g>
				<path fill="#C13F0C" d="M233.037,182.247c0,0-0.069,0.089-0.19,0.243c-0.138,0.162-0.254,0.36-0.541,0.659
					c-0.132,0.141-0.274,0.293-0.425,0.453c-0.148,0.163-0.317,0.288-0.485,0.441c-0.327,0.305-0.72,0.572-1.094,0.848
					c-0.399,0.248-0.777,0.512-1.169,0.7c-0.377,0.209-0.742,0.375-1.06,0.503c-0.309,0.143-0.587,0.217-0.771,0.282
					c-0.187,0.062-0.293,0.097-0.293,0.097s0.093-0.063,0.256-0.174c0.16-0.114,0.397-0.256,0.65-0.476
					c0.263-0.203,0.556-0.454,0.847-0.745c0.306-0.271,0.584-0.615,0.871-0.932c0.264-0.344,0.537-0.67,0.74-1.011
					c0.101-0.166,0.223-0.323,0.294-0.475c0.075-0.147,0.146-0.286,0.212-0.415c0.133-0.224,0.233-0.547,0.309-0.71
					c0.073-0.182,0.115-0.286,0.115-0.286L233.037,182.247z"/>
			</g>
			<g>
				<path fill="#C13F0C" d="M210.034,190.702c0,0,0.574,0.002,1.435,0.005c0.211-0.006,0.457,0.015,0.687-0.012
					c0.235-0.018,0.484-0.036,0.741-0.057c0.521-0.04,1.078-0.083,1.635-0.126c1.133-0.137,2.278-0.245,3.129-0.375
					c0.854-0.12,1.423-0.2,1.423-0.2s-0.539,0.201-1.348,0.503c-0.808,0.313-1.902,0.666-2.996,1.051
					c-0.566,0.171-1.133,0.343-1.664,0.503c-0.27,0.08-0.529,0.157-0.776,0.23c-0.251,0.082-0.474,0.111-0.687,0.163
					c-0.845,0.185-1.408,0.307-1.408,0.307L210.034,190.702z"/>
			</g>
			<g>
				<path fill="#C13F0C" d="M214.608,193.902c0,0,0.263,0.181,0.657,0.451c0.099,0.068,0.206,0.142,0.319,0.22
					c0.117,0.089,0.213,0.111,0.331,0.177c0.237,0.117,0.49,0.243,0.743,0.368c0.289,0.084,0.578,0.168,0.85,0.246
					c0.139,0.033,0.275,0.096,0.406,0.1c0.132,0.015,0.256,0.028,0.371,0.042c0.474,0.051,0.79,0.085,0.79,0.085
					s-0.308,0.091-0.769,0.227c-0.118,0.034-0.247,0.071-0.383,0.11c-0.138,0.05-0.284,0.044-0.438,0.069
					c-0.314,0.035-0.649,0.072-0.984,0.109c-0.354-0.023-0.71-0.046-1.042-0.067c-0.163-0.019-0.356-0.021-0.481-0.054
					c-0.134-0.028-0.261-0.056-0.378-0.08c-0.468-0.099-0.78-0.165-0.78-0.165L214.608,193.902z"/>
			</g>
			<g>
				<path fill="#FFA05F" d="M231.795,184.002c-0.011-0.005-0.043,0.178-0.207,0.449c-0.086,0.129-0.177,0.323-0.324,0.485
					c-0.141,0.171-0.302,0.366-0.489,0.571c-0.402,0.361-0.875,0.813-1.461,1.159c-0.291,0.174-0.575,0.396-0.897,0.546
					c-0.321,0.152-0.647,0.308-0.975,0.463c-0.653,0.316-1.347,0.507-1.991,0.704c-0.641,0.209-1.258,0.323-1.792,0.394
					c-1.063,0.165-1.782,0.186-1.782,0.186s0.645-0.349,1.625-0.737c0.245-0.1,0.51-0.205,0.794-0.304
					c0.275-0.118,0.566-0.242,0.868-0.371c0.594-0.269,1.266-0.465,1.876-0.786c0.635-0.27,1.266-0.546,1.83-0.852
					c0.282-0.152,0.579-0.267,0.821-0.43c0.249-0.154,0.495-0.289,0.724-0.416c0.206-0.149,0.404-0.28,0.582-0.398
					c0.183-0.115,0.305-0.238,0.433-0.331C231.676,184.144,231.795,184.002,231.795,184.002z"/>
			</g>
			<g>
				<path fill="#FFA05F" d="M215.923,196.167c0,0,0.688-0.015,1.668-0.12c0.491-0.051,1.056-0.133,1.65-0.241
					c0.594-0.12,1.224-0.249,1.833-0.449c0.619-0.168,1.215-0.407,1.776-0.631c0.552-0.245,1.075-0.476,1.507-0.712
					c0.215-0.121,0.433-0.204,0.603-0.313c0.178-0.101,0.333-0.188,0.46-0.261c0.267-0.138,0.419-0.217,0.419-0.217
					s-0.101,0.138-0.291,0.369c-0.191,0.23-0.465,0.568-0.865,0.896c-0.195,0.169-0.4,0.366-0.653,0.522
					c-0.248,0.162-0.498,0.361-0.79,0.506c-0.292,0.142-0.578,0.33-0.901,0.445c-0.322,0.117-0.641,0.265-0.979,0.354
					c-0.669,0.195-1.358,0.32-2.009,0.362c-0.649,0.044-1.258,0.021-1.771-0.059C216.549,196.483,215.923,196.167,215.923,196.167z"
					/>
			</g>
			<g>
				<path fill="#FFA05F" d="M228.039,221.192c0,0-0.082,0.089-0.235,0.257c-0.158,0.161-0.397,0.401-0.739,0.659
					c-0.683,0.509-1.751,1.158-3.163,1.603c-1.404,0.442-3.12,0.779-4.979,0.762c-1.855-0.008-3.854-0.354-5.701-1.163
					c-0.912-0.419-1.793-0.933-2.553-1.604c-0.758-0.656-1.369-1.429-1.884-2.207c-1.033-1.564-1.62-3.2-2.065-4.59
					c-0.443-1.396-0.639-2.601-0.803-3.43c-0.145-0.832-0.221-1.314-0.271-1.292c0.043-0.027,0.215,0.439,0.463,1.245
					c0.241,0.81,0.634,1.951,1.146,3.289c0.518,1.335,1.252,2.845,2.261,4.277c0.506,0.714,1.106,1.388,1.787,1.976
					c0.672,0.584,1.485,1.04,2.324,1.424c1.691,0.76,3.562,1.113,5.319,1.2c1.761,0.084,3.426-0.08,4.805-0.424
					c1.38-0.338,2.491-0.793,3.207-1.227C227.679,221.526,228.039,221.192,228.039,221.192z"/>
			</g>
		</g>
		<g>
			<linearGradient id="SVGID_25_" gradientUnits="userSpaceOnUse" x1="55.876" y1="138.6294" x2="78.2905" y2="138.6294">
				<stop  offset="0" style="stop-color:#F7D7B8"/>
				<stop  offset="0.483" style="stop-color:#F7CFAF"/>
				<stop  offset="1" style="stop-color:#F7C7A6"/>
			</linearGradient>
			<path fill="url(#SVGID_25_)" stroke="#AF7045" stroke-width="2" stroke-miterlimit="10" d="M74.467,129.167
				c0,0-20.011,2.81-18.511,13.06s21.5,4,22.25,3.75S74.467,129.167,74.467,129.167z"/>
			<path fill="#D89060" d="M73.738,130.303c-1.957,0.354-6.846,1.39-10.866,3.472c-0.529,4.138,0.389,8.732,1.834,13.297
				c0.313,0.013,0.635,0.02,0.967,0.02c0,0,0.001,0,0.002,0c4.714,0,9.842-1.364,11.591-1.874
				C77.037,143.228,75.416,136.554,73.738,130.303z"/>
		</g>
		<g>
			
				<linearGradient id="SVGID_26_" gradientUnits="userSpaceOnUse" x1="210.3506" y1="157.5532" x2="232.7656" y2="157.5532" gradientTransform="matrix(-1 0 0 -1 474.7207 277.2588)">
				<stop  offset="0" style="stop-color:#F7D7B8"/>
				<stop  offset="0.483" style="stop-color:#F7CFAF"/>
				<stop  offset="1" style="stop-color:#F7C7A6"/>
			</linearGradient>
			<path fill="url(#SVGID_26_)" stroke="#AF7045" stroke-width="2" stroke-miterlimit="10" d="M245.778,129.167
				c0,0,20.012-2.81,18.512-13.06s-21.5-4-22.25-3.75S245.778,129.167,245.778,129.167z"/>
			<path fill="#D89060" d="M246.508,128.032c1.956-0.354,6.846-1.39,10.866-3.472c0.529-4.138-0.389-8.732-1.834-13.297
				c-0.312-0.013-0.635-0.02-0.967-0.02h-0.002c-4.715,0-9.842,1.364-11.592,1.874C243.208,115.107,244.829,121.781,246.508,128.032
				z"/>
		</g>
		<g>
			<linearGradient id="SVGID_27_" gradientUnits="userSpaceOnUse" x1="160.6152" y1="70.4771" x2="160.6152" y2="206.223">
				<stop  offset="0" style="stop-color:#E8871C"/>
				<stop  offset="1" style="stop-color:#E8651C"/>
			</linearGradient>
			<path fill="url(#SVGID_27_)" stroke="#C13F0C" stroke-width="2" stroke-miterlimit="10" d="M249.876,115.735
				c3.457,38.645-29.381,75.479-78.553,82.896c-49.171,7.419-93.725-17.667-99.513-56.03c-4.341-28.773,11.474-64.945,44.721-72.209
				c13.341-2.915,38.675,3.751,39.675,4.585c-2.227-5.713-6.667-8.664-9-10.415c5-0.418,13.637,4.915,13.637,4.915l-1.262-8.928
				l8.958,2.595c6.334-3.333,15.668-9.139,26.334-6.069S245.546,67.326,249.876,115.735z"/>
			<g>
				<path fill="#FFA05F" d="M168.539,66.664c6.334-3.333,15.668-9.139,26.334-6.069c9.247,2.661,40.545,8.42,51.53,41.452
					c-9.104-32.663-37.675-40.253-49.255-43.318c-0.972-0.257-1.828-0.484-2.552-0.692c-1.91-0.55-3.892-0.829-5.89-0.829
					c-6.998,0-13.139,3.3-18.072,5.952c-0.562,0.303-1.106,0.595-1.63,0.87l-0.356,0.188l-7.861-2.277l0.365,2.584L168.539,66.664z"
					/>
				<path fill="#FFA05F" d="M154.332,69.704c3.496,1.437,6.511,3.293,6.511,3.293l-0.363-2.568l-0.162-0.1
					c-0.063-0.039-5.18-3.174-9.626-4.35C151.876,66.966,153.154,68.19,154.332,69.704z"/>
				<path fill="#FFA05F" d="M116.531,73.912c13.341-2.915,38.675,3.751,39.675,4.585c-0.442-1.135-0.974-2.156-1.557-3.085
					c-3.82-1.211-18.235-4.752-30.086-4.752c-3.032,0-5.663,0.239-7.818,0.71C96.649,75.76,77.448,94.617,72.98,120.451
					C77.957,99.012,92.799,79.097,116.531,73.912z"/>
			</g>
			<g>
				<g>
					<linearGradient id="SVGID_28_" gradientUnits="userSpaceOnUse" x1="162.1792" y1="93.1411" x2="162.1792" y2="195.2078">
						<stop  offset="0" style="stop-color:#E8871C"/>
						<stop  offset="1" style="stop-color:#E8651C"/>
					</linearGradient>
					<line fill="url(#SVGID_28_)" x1="158.206" y1="82.412" x2="166.152" y2="190.477"/>
					<path fill="#C13F0C" d="M158.206,82.412c0,0,0.194,1.683,0.535,4.629c0.303,2.948,0.792,7.157,1.277,12.214
						c0.501,5.056,1.042,10.958,1.579,17.285c0.261,3.163,0.53,6.433,0.804,9.755c0.256,3.323,0.516,6.699,0.776,10.076
						c0.237,3.378,0.474,6.756,0.708,10.08c0.215,3.327,0.427,6.601,0.633,9.769c0.396,6.337,0.724,12.255,0.967,17.329
						c0.261,5.074,0.39,9.309,0.521,12.271c0.094,2.964,0.147,4.657,0.147,4.657s-0.194-1.684-0.535-4.629
						c-0.303-2.949-0.795-7.157-1.279-12.214c-0.501-5.057-1.043-10.958-1.578-17.285c-0.26-3.164-0.529-6.434-0.802-9.756
						c-0.256-3.323-0.516-6.699-0.775-10.075c-0.237-3.378-0.474-6.756-0.707-10.081c-0.215-3.326-0.427-6.6-0.632-9.769
						c-0.395-6.337-0.723-12.254-0.967-17.329c-0.26-5.074-0.391-9.309-0.523-12.27C158.26,84.106,158.206,82.412,158.206,82.412z"
						/>
				</g>
				<g>
					<path fill="#C13F0C" d="M158.38,89.225c0,0-0.809-0.724-2.384-1.862c-1.564-1.14-3.882-2.67-6.813-4.249
						c-2.932-1.571-6.485-3.181-10.448-4.465c-1.983-0.634-4.06-1.208-6.203-1.651c-1.066-0.246-2.16-0.394-3.249-0.598
						c-1.099-0.126-2.198-0.31-3.307-0.391c-1.109-0.082-2.216-0.197-3.325-0.203l-1.658-0.046
						c-0.551,0.012-1.101,0.024-1.648,0.036c-1.096,0.005-2.18,0.086-3.25,0.179c-1.073,0.06-2.123,0.217-3.158,0.356
						c-1.039,0.115-2.044,0.323-3.032,0.512c-0.992,0.169-1.948,0.397-2.875,0.641c-1.87,0.423-3.584,1.021-5.181,1.517
						c-1.557,0.609-3.024,1.073-4.254,1.658c-1.238,0.561-2.347,0.992-3.205,1.461c-1.743,0.884-2.738,1.39-2.738,1.39
						s0.989-0.52,2.719-1.428c0.852-0.481,1.955-0.928,3.187-1.507c1.223-0.604,2.686-1.088,4.239-1.721
						c1.593-0.519,3.305-1.143,5.175-1.594c0.927-0.257,1.885-0.5,2.878-0.684c0.989-0.204,1.998-0.427,3.04-0.558
						c1.039-0.154,2.093-0.327,3.172-0.402c1.076-0.108,2.166-0.206,3.27-0.226c0.551-0.02,1.105-0.04,1.66-0.059l1.671,0.022
						c1.118-0.009,2.235,0.09,3.355,0.157c1.12,0.067,2.23,0.236,3.343,0.348c1.101,0.19,2.208,0.325,3.288,0.558
						c2.17,0.417,4.277,0.968,6.291,1.582c4.025,1.242,7.644,2.82,10.636,4.371c5.998,3.111,9.457,6.1,9.457,6.1L158.38,89.225z"/>
				</g>
				<g>
					<path fill="#C13F0C" d="M158.963,96.605c0,0-0.938-0.536-2.652-1.39c-1.713-0.848-4.191-2.01-7.236-3.238
						c-1.526-0.604-3.184-1.251-4.965-1.857c-1.775-0.624-3.67-1.214-5.643-1.783c-1.979-0.544-4.031-1.089-6.144-1.519
						c-2.106-0.462-4.27-0.809-6.438-1.118c-2.174-0.262-4.355-0.479-6.511-0.55c-1.077-0.039-2.146-0.079-3.204-0.047
						c-0.528,0.006-1.054,0.012-1.575,0.019c-0.521,0.031-1.038,0.062-1.55,0.092c-1.027,0.041-2.031,0.148-3.014,0.265
						c-0.986,0.088-1.939,0.25-2.869,0.409c-0.933,0.134-1.828,0.331-2.691,0.534c-0.868,0.184-1.701,0.384-2.486,0.631
						c-1.593,0.419-3.003,0.958-4.261,1.414c-1.24,0.497-2.3,0.989-3.179,1.375c-1.703,0.892-2.676,1.401-2.676,1.401
						s0.966-0.523,2.657-1.44c0.874-0.399,1.928-0.906,3.164-1.422c1.254-0.474,2.66-1.034,4.252-1.478
						c0.784-0.259,1.617-0.472,2.485-0.668c0.864-0.217,1.76-0.427,2.695-0.575c0.931-0.172,1.887-0.35,2.876-0.452
						c0.985-0.131,1.994-0.253,3.025-0.31c0.515-0.038,1.034-0.076,1.558-0.114c0.524-0.014,1.052-0.027,1.583-0.042
						c1.062-0.046,2.138-0.022,3.223,0.001c2.17,0.042,4.368,0.229,6.56,0.46c2.186,0.279,4.369,0.598,6.495,1.033
						c2.133,0.402,4.207,0.92,6.207,1.441c1.994,0.544,3.911,1.112,5.708,1.714c1.803,0.584,3.482,1.212,5.028,1.799
						c6.175,2.389,10.065,4.539,10.065,4.539L158.963,96.605z"/>
				</g>
				<g>
					<path fill="#C13F0C" d="M158.519,92.162c0,0,2.957-3.644,8.236-8.205c1.328-1.128,2.783-2.332,4.39-3.518
						c1.588-1.21,3.342-2.378,5.176-3.551c1.866-1.122,3.809-2.264,5.881-3.236c2.048-1.019,4.215-1.871,6.407-2.634
						c2.215-0.696,4.455-1.338,6.717-1.686c2.248-0.42,4.502-0.565,6.676-0.603c1.087-0.019,2.155,0.082,3.2,0.115
						c1.042,0.095,2.056,0.251,3.044,0.369c0.98,0.17,1.925,0.397,2.842,0.583c0.916,0.195,1.77,0.509,2.605,0.743
						c0.841,0.223,1.61,0.543,2.346,0.835c0.731,0.302,1.447,0.536,2.078,0.851c1.258,0.638,2.389,1.127,3.258,1.645
						c1.739,1.033,2.733,1.623,2.733,1.623s-1.001-0.577-2.754-1.585c-0.875-0.505-2.012-0.979-3.274-1.598
						c-0.634-0.306-1.352-0.529-2.084-0.821c-0.737-0.28-1.508-0.589-2.349-0.8c-0.836-0.221-1.689-0.522-2.604-0.705
						c-0.916-0.173-1.856-0.386-2.834-0.542c-0.984-0.104-1.992-0.246-3.027-0.326c-1.039-0.019-2.1-0.105-3.178-0.071
						c-2.155,0.067-4.386,0.241-6.606,0.687c-2.235,0.374-4.445,1.041-6.628,1.758c-2.16,0.786-4.293,1.657-6.307,2.693
						c-2.037,0.989-3.946,2.146-5.777,3.281c-1.801,1.187-3.521,2.366-5.077,3.586c-1.574,1.195-2.999,2.407-4.299,3.541
						c-2.578,2.292-4.592,4.348-5.95,5.827c-1.36,1.486-2.065,2.373-2.065,2.373L158.519,92.162z"/>
				</g>
				<g>
					<path fill="#C13F0C" d="M160.885,129.666c0,0-4.915,0.405-12.287,1.013c-3.685,0.32-7.985,0.686-12.587,1.129
						c-2.302,0.217-4.68,0.439-7.097,0.666c-2.415,0.249-4.867,0.502-7.32,0.755c-2.452,0.262-4.909,0.487-7.318,0.775
						c-2.411,0.283-4.783,0.562-7.079,0.832c-2.295,0.274-4.519,0.51-6.614,0.828c-2.098,0.296-4.082,0.576-5.913,0.835
						c-1.831,0.262-3.515,0.471-4.985,0.781c-1.477,0.278-2.764,0.521-3.824,0.722c-2.121,0.399-3.333,0.628-3.333,0.628
						s1.209-0.244,3.324-0.67c1.058-0.214,2.343-0.473,3.816-0.771c1.469-0.329,3.149-0.561,4.978-0.845
						c1.829-0.282,3.81-0.588,5.905-0.91c2.093-0.346,4.312-0.609,6.605-0.913c2.293-0.299,4.663-0.607,7.071-0.922
						c2.408-0.318,4.861-0.575,7.311-0.868c2.451-0.284,4.901-0.568,7.313-0.848c2.415-0.258,4.791-0.511,7.091-0.756
						c4.599-0.502,8.896-0.922,12.578-1.29c7.368-0.701,12.28-1.168,12.28-1.168L160.885,129.666z"/>
				</g>
				<g>
					<path fill="#C13F0C" d="M162.17,138.592c0,0,19.421-0.229,38.792-1.611c9.682-0.688,19.353-1.673,26.513-3.006
						c3.578-0.66,6.525-1.419,8.509-2.179c0.507-0.161,0.926-0.386,1.304-0.551c0.38-0.162,0.693-0.319,0.928-0.482
						c0.483-0.3,0.741-0.46,0.741-0.46s-0.256,0.163-0.735,0.47c-0.233,0.166-0.545,0.327-0.923,0.495
						c-0.376,0.17-0.794,0.4-1.299,0.568c-1.978,0.786-4.92,1.585-8.495,2.292c-7.153,1.428-16.821,2.538-26.503,3.352
						c-19.371,1.633-38.812,2.112-38.812,2.112L162.17,138.592z"/>
				</g>
				<g>
					<path fill="#C13F0C" d="M163.252,155.764c0,0-19.446,3.91-39.146,6.11c-4.922,0.55-9.857,0.995-14.494,1.263
						c-2.317,0.142-4.562,0.227-6.689,0.264c-2.128,0.044-4.141,0.03-5.998-0.035c-1.856-0.062-3.557-0.17-5.058-0.335
						c-0.752-0.062-1.451-0.163-2.097-0.264c-0.646-0.094-1.241-0.174-1.769-0.299c-0.53-0.11-1.003-0.209-1.415-0.295
						c-0.405-0.116-0.749-0.215-1.027-0.295c-0.557-0.161-0.854-0.247-0.854-0.247s0.298,0.082,0.857,0.236
						c0.28,0.076,0.625,0.171,1.03,0.281c0.413,0.081,0.887,0.174,1.418,0.277c0.528,0.118,1.124,0.19,1.77,0.276
						c0.646,0.092,1.344,0.184,2.097,0.236c1.5,0.146,3.199,0.232,5.053,0.271c1.854,0.041,3.864,0.029,5.987-0.042
						c2.124-0.063,4.363-0.176,6.675-0.347c4.625-0.326,9.547-0.833,14.456-1.443c9.817-1.226,19.577-2.87,26.873-4.211
						c7.297-1.343,12.128-2.382,12.128-2.382L163.252,155.764z"/>
				</g>
				<g>
					<path fill="#C13F0C" d="M165.627,178.007c0,0,0.215,0.082,0.593,0.198c0.384,0.115,0.971,0.294,1.728,0.459
						c0.753,0.188,1.685,0.35,2.755,0.537c1.077,0.14,2.29,0.338,3.63,0.426c1.334,0.14,2.788,0.186,4.326,0.241
						c1.539,0.024,3.165,0.021,4.845-0.037c1.679-0.099,3.419-0.136,5.176-0.34c0.88-0.085,1.767-0.17,2.657-0.255
						c0.889-0.097,1.776-0.241,2.667-0.359c0.89-0.124,1.779-0.248,2.666-0.372c0.881-0.16,1.759-0.32,2.629-0.479
						c1.742-0.311,3.457-0.623,5.096-1.021c1.642-0.386,3.243-0.701,4.736-1.103c1.493-0.4,2.905-0.779,4.209-1.129
						c1.31-0.332,2.49-0.701,3.537-1.031c1.048-0.325,1.961-0.608,2.713-0.842c1.505-0.467,2.365-0.733,2.365-0.733
						s-0.855,0.281-2.352,0.774c-0.748,0.246-1.657,0.546-2.699,0.889c-1.041,0.349-2.217,0.738-3.521,1.093
						c-1.299,0.373-2.706,0.777-4.194,1.204c-1.488,0.428-3.086,0.771-4.725,1.187c-1.636,0.428-3.349,0.771-5.09,1.112
						c-0.871,0.174-1.748,0.35-2.629,0.525c-0.888,0.14-1.779,0.28-2.67,0.421c-0.892,0.134-1.781,0.294-2.673,0.407
						c-0.894,0.102-1.783,0.202-2.666,0.302c-1.763,0.235-3.514,0.305-5.203,0.433c-1.691,0.088-3.332,0.12-4.886,0.123
						c-1.556-0.03-3.027-0.051-4.383-0.168c-1.358-0.067-2.597-0.246-3.696-0.37c-1.096-0.172-2.051-0.321-2.832-0.501
						c-0.785-0.157-1.388-0.329-1.813-0.449c-0.431-0.126-0.637-0.202-0.638-0.202L165.627,178.007z"/>
				</g>
				<g>
					<path fill="#FFA05F" d="M163.206,95.644c0,0,0.837-0.586,2.304-1.613c0.714-0.541,1.692-1.029,2.767-1.672
						c1.067-0.666,2.351-1.25,3.74-1.915c0.688-0.347,1.426-0.662,2.2-0.961c0.77-0.311,1.566-0.633,2.385-0.963
						c0.825-0.311,1.689-0.585,2.565-0.89c0.876-0.304,1.774-0.606,2.708-0.842c0.929-0.253,1.873-0.511,2.829-0.771
						c0.96-0.245,1.945-0.439,2.931-0.664c1.966-0.482,4.006-0.746,6.027-1.117c2.044-0.208,4.078-0.52,6.101-0.603
						c1.01-0.057,2.009-0.146,3-0.174c0.991-0.014,1.97-0.027,2.933-0.04c0.963-0.031,1.91,0.014,2.836,0.065
						c0.926,0.055,1.833,0.078,2.712,0.155c0.878,0.097,1.731,0.191,2.557,0.282c0.413,0.046,0.818,0.09,1.217,0.134
						c0.395,0.069,0.782,0.136,1.162,0.203c1.518,0.267,2.911,0.489,4.111,0.854c1.204,0.339,2.274,0.552,3.108,0.896
						c1.681,0.617,2.642,0.969,2.642,0.969s-0.981-0.285-2.698-0.783c-0.843-0.295-1.924-0.448-3.134-0.718
						c-1.206-0.293-2.603-0.435-4.11-0.661c-0.378-0.053-0.763-0.106-1.156-0.162c-0.396-0.03-0.799-0.061-1.209-0.092
						c-0.819-0.063-1.667-0.127-2.538-0.194c-0.872-0.047-1.771-0.04-2.688-0.063c-0.917-0.009-1.853-0.066-2.806-0.018
						c-0.952,0.023-1.921,0.047-2.901,0.071c-0.979,0.04-1.969,0.138-2.967,0.206c-2,0.103-4.01,0.438-6.029,0.661
						c-2.003,0.345-4.026,0.583-5.977,1.039c-0.979,0.212-1.955,0.394-2.908,0.625c-0.949,0.248-1.887,0.492-2.81,0.733
						c-0.929,0.219-1.814,0.524-2.694,0.786c-0.875,0.273-1.741,0.516-2.569,0.795c-0.82,0.3-1.619,0.592-2.391,0.875
						c-0.778,0.271-1.52,0.559-2.211,0.879c-1.393,0.622-2.703,1.13-3.788,1.726c-1.096,0.578-2.096,1.009-2.84,1.511
						C164.082,95.116,163.206,95.644,163.206,95.644z"/>
				</g>
				<g>
					<path fill="#FFA05F" d="M135.04,101.477c0,0-0.804-0.125-2.211-0.343c-0.7-0.137-1.56-0.223-2.542-0.307
						c-0.49-0.046-1.012-0.095-1.561-0.147c-0.553-0.024-1.134-0.049-1.74-0.076c-1.211-0.084-2.526-0.058-3.914-0.031
						c-0.694-0.005-1.406,0.051-2.134,0.103c-0.727,0.062-1.471,0.071-2.225,0.146c-1.506,0.16-3.065,0.297-4.635,0.563
						c-1.577,0.207-3.159,0.554-4.747,0.851c-1.578,0.353-3.167,0.661-4.706,1.075c-1.55,0.37-3.055,0.816-4.516,1.23
						c-1.449,0.453-2.863,0.856-4.189,1.285c-1.325,0.431-2.582,0.833-3.727,1.245c-2.301,0.797-4.218,1.473-5.55,1.973
						c-1.338,0.487-2.103,0.765-2.103,0.765s0.738-0.344,2.029-0.945c0.651-0.288,1.442-0.638,2.35-1.039
						c0.906-0.404,1.938-0.841,3.078-1.281c2.271-0.902,4.942-1.91,7.86-2.832c1.466-0.438,2.976-0.909,4.535-1.304
						c1.547-0.438,3.147-0.776,4.739-1.15c1.612-0.278,3.214-0.606,4.815-0.794c1.591-0.247,3.174-0.365,4.701-0.505
						c1.532-0.083,3.015-0.156,4.421-0.112c1.407,0.031,2.734,0.062,3.955,0.198c0.61,0.055,1.195,0.108,1.751,0.159
						c0.553,0.09,1.077,0.177,1.569,0.257c0.985,0.154,1.837,0.299,2.525,0.484C134.249,101.284,135.04,101.477,135.04,101.477z"/>
				</g>
				<g>
					<path fill="#FFA05F" d="M119.04,121.977c0,0-0.493,0.087-1.354,0.238c-0.864,0.131-2.094,0.357-3.578,0.558
						c-1.484,0.199-3.211,0.463-5.069,0.688c-1.856,0.236-3.84,0.45-5.823,0.669c-1.971,0.282-3.94,0.568-5.793,0.8
						c-1.851,0.245-3.587,0.416-5.072,0.593c-1.485,0.175-2.734,0.261-3.604,0.349c-0.874,0.067-1.373,0.105-1.373,0.105
						s0.487-0.108,1.341-0.297c0.857-0.168,2.075-0.449,3.551-0.714c1.475-0.263,3.193-0.604,5.043-0.909
						c1.849-0.317,3.826-0.617,5.803-0.921c1.985-0.197,3.971-0.396,5.836-0.548c1.864-0.163,3.609-0.261,5.103-0.373
						c1.493-0.109,2.744-0.142,3.616-0.192C118.54,121.994,119.04,121.977,119.04,121.977z"/>
				</g>
				<g>
					<path fill="#FFA05F" d="M83.873,151.977c0,0,0.52,0.021,1.429,0.057c0.454,0.023,1.005,0.053,1.637,0.087
						c0.632,0.046,1.346,0.052,2.12,0.065c0.773,0.016,1.611,0.033,2.498,0.051c0.886,0.012,1.825-0.045,2.792-0.041
						c1.936,0.01,3.999-0.133,6.062-0.203c2.059-0.158,4.123-0.254,6.049-0.467c0.962-0.106,1.9-0.154,2.783-0.257
						c0.883-0.104,1.717-0.204,2.488-0.296c1.545-0.165,2.824-0.37,3.725-0.486c0.903-0.112,1.419-0.177,1.419-0.177
						s-0.502,0.134-1.381,0.367c-0.441,0.111-0.978,0.245-1.593,0.399c-0.613,0.166-1.312,0.321-2.081,0.452
						c-1.533,0.287-3.322,0.648-5.263,0.872c-0.968,0.124-1.967,0.277-2.991,0.339c-1.022,0.083-2.061,0.167-3.099,0.251
						c-1.042,0.031-2.083,0.063-3.109,0.095c-1.024,0.052-2.035,0.011-3.012-0.011c-0.977-0.024-1.92-0.043-2.815-0.112
						c-0.894-0.077-1.739-0.15-2.519-0.218c-0.781-0.054-1.49-0.14-2.113-0.256c-0.625-0.102-1.169-0.19-1.618-0.263
						C84.385,152.068,83.873,151.977,83.873,151.977z"/>
				</g>
				<g>
					<path fill="#FFA05F" d="M109.54,184.644c0,0,0.569,0.226,1.565,0.621c0.487,0.229,1.116,0.393,1.821,0.607
						c0.697,0.236,1.514,0.408,2.401,0.608c0.877,0.234,1.864,0.334,2.888,0.504c1.033,0.121,2.127,0.222,3.259,0.3
						c1.134,0.065,2.306,0.112,3.501,0.11c1.193,0.037,2.408-0.032,3.621-0.054c1.214-0.067,2.429-0.1,3.623-0.206
						c1.194-0.086,2.371-0.177,3.508-0.284c2.274-0.217,4.403-0.413,6.224-0.624c1.82-0.209,3.347-0.334,4.412-0.443
						c1.068-0.089,1.678-0.14,1.678-0.14s-0.6,0.121-1.65,0.332c-1.053,0.189-2.55,0.511-4.361,0.809
						c-1.811,0.298-3.924,0.664-6.207,0.942c-1.142,0.133-2.321,0.283-3.527,0.371c-1.203,0.118-2.433,0.164-3.659,0.242
						c-1.231,0.01-2.46,0.068-3.673,0.019c-1.213-0.002-2.405-0.105-3.557-0.198c-1.151-0.101-2.26-0.278-3.303-0.458
						c-1.037-0.231-2.027-0.389-2.91-0.678c-0.444-0.13-0.87-0.254-1.274-0.372c-0.402-0.125-0.77-0.3-1.121-0.433
						c-0.697-0.285-1.312-0.508-1.774-0.779C110.079,184.934,109.54,184.644,109.54,184.644z"/>
				</g>
				<g>
					<path fill="#FFA05F" d="M203.873,114.144c0,0,0.545-0.101,1.497-0.276c0.956-0.155,2.315-0.416,3.956-0.657
						c1.642-0.24,3.552-0.552,5.605-0.829c2.053-0.288,4.247-0.555,6.439-0.831c2.177-0.352,4.354-0.708,6.399-1.006
						c2.045-0.31,3.963-0.543,5.604-0.772c1.641-0.228,3.021-0.357,3.981-0.477c0.966-0.098,1.518-0.154,1.518-0.154
						s-0.538,0.125-1.48,0.345c-0.947,0.198-2.293,0.523-3.922,0.84c-1.63,0.315-3.527,0.718-5.57,1.088
						c-2.042,0.383-4.227,0.753-6.41,1.127c-2.195,0.255-4.392,0.506-6.454,0.71c-2.062,0.214-3.991,0.36-5.643,0.513
						c-1.651,0.151-3.035,0.218-4,0.292C204.426,114.113,203.873,114.144,203.873,114.144z"/>
				</g>
				<g>
					<path fill="#FFA05F" d="M208.206,141.144c0,0,0.557,0.004,1.531,0.011c0.486,0.01,1.077,0.022,1.756,0.036
						c0.678,0.03,1.442,0.011,2.27-0.023c0.828-0.024,1.725-0.052,2.672-0.081c0.946-0.025,1.943-0.181,2.975-0.246
						c1.031-0.085,2.098-0.16,3.168-0.346c1.074-0.156,2.165-0.315,3.256-0.475c1.078-0.229,2.155-0.459,3.216-0.685
						c1.069-0.195,2.091-0.501,3.081-0.795c0.983-0.312,1.971-0.513,2.857-0.845c0.888-0.335,1.727-0.65,2.501-0.942
						c0.389-0.146,0.761-0.284,1.115-0.417c0.342-0.161,0.665-0.314,0.969-0.458c0.609-0.292,1.14-0.547,1.577-0.756
						c0.885-0.411,1.391-0.646,1.391-0.646s-0.471,0.296-1.295,0.814c-0.417,0.255-0.923,0.564-1.504,0.919
						c-0.293,0.176-0.604,0.363-0.932,0.562c-0.348,0.157-0.714,0.323-1.095,0.496c-0.767,0.345-1.597,0.718-2.475,1.112
						c-0.881,0.393-1.86,0.666-2.855,1.003c-1,0.324-2.025,0.691-3.112,0.892c-1.077,0.24-2.171,0.484-3.265,0.729
						c-1.109,0.15-2.22,0.301-3.312,0.449c-1.089,0.184-2.176,0.204-3.223,0.264c-1.049,0.047-2.058,0.128-3.021,0.097
						c-0.962-0.03-1.872-0.059-2.711-0.085c-0.419-0.015-0.819-0.028-1.201-0.042c-0.378-0.045-0.736-0.087-1.072-0.126
						c-0.674-0.082-1.26-0.153-1.743-0.212C208.758,141.218,208.206,141.144,208.206,141.144z"/>
				</g>
			</g>
		</g>
		<g>
			<path opacity="0.2" fill="#C13F0C" d="M200.878,139.092c0,22.646-18.357,41.003-41.007,41.003
				c-22.645,0-41.003-18.357-41.003-41.003c0-22.646,18.358-41.004,41.003-41.004C182.521,98.088,200.878,116.446,200.878,139.092z"
				/>
			<g>
				<g>
					<linearGradient id="SVGID_29_" gradientUnits="userSpaceOnUse" x1="117.7969" y1="136.0415" x2="202.0469" y2="136.0415">
						<stop  offset="0" style="stop-color:#F9B233"/>
						<stop  offset="0.215" style="stop-color:#F9CE33"/>
						<stop  offset="0.745" style="stop-color:#EE8D29"/>
						<stop  offset="1" style="stop-color:#F9B233"/>
					</linearGradient>
					<path fill="url(#SVGID_29_)" stroke="#CE6117" stroke-width="2" stroke-miterlimit="10" d="M194.288,124.875l-0.284-13.596
						l-12.849-4.467l-8.213-10.844l-13.021,3.949l-13.02-3.949l-8.213,10.844l-12.848,4.466l-0.286,13.597l-7.758,11.167
						l7.758,11.167l0.286,13.597l12.848,4.466l8.213,10.844l13.021-3.948l13.021,3.948l8.212-10.844l12.849-4.466l0.285-13.597
						l7.759-11.167L194.288,124.875z M159.581,158.722c-12.525,0-22.68-10.154-22.68-22.68c0-12.526,10.154-22.68,22.68-22.68
						s22.68,10.154,22.68,22.68C182.261,148.568,172.106,158.722,159.581,158.722z"/>
				</g>
				<linearGradient id="SVGID_30_" gradientUnits="userSpaceOnUse" x1="124.8311" y1="136.0425" x2="194.3311" y2="136.0425">
					<stop  offset="0" style="stop-color:#DC7D22"/>
					<stop  offset="1" style="stop-color:#F79034"/>
				</linearGradient>
				<path fill="url(#SVGID_30_)" stroke="#CE6117" stroke-width="2" stroke-miterlimit="10" d="M194.331,136.042l-4.664-9.776
					l-1.972-10.652l-9.526-5.16l-7.847-7.469l-10.741,1.432l-10.741-1.432l-7.846,7.468l-9.527,5.161l-1.971,10.652l-4.665,9.776
					l4.665,9.776l1.971,10.652l9.527,5.16l7.846,7.469l10.741-1.433l10.741,1.433l7.847-7.469l9.526-5.16l1.972-10.652
					L194.331,136.042z M159.581,158.722c-12.525,0-22.68-10.154-22.68-22.68c0-12.526,10.154-22.68,22.68-22.68
					s22.68,10.154,22.68,22.68C182.261,148.568,172.106,158.722,159.581,158.722z"/>
				<g>
					
						<line fill="#F79034" stroke="#CE6117" stroke-width="2" stroke-miterlimit="10" x1="172.942" y1="95.968" x2="170.322" y2="102.984"/>
					
						<line fill="#F79034" stroke="#CE6117" stroke-width="2" stroke-miterlimit="10" x1="194.004" y1="111.279" x2="187.695" y2="115.614"/>
					
						<line fill="#F79034" stroke="#CE6117" stroke-width="2" stroke-miterlimit="10" x1="202.047" y1="136.042" x2="194.331" y2="136.042"/>
					
						<line fill="#F79034" stroke="#CE6117" stroke-width="2" stroke-miterlimit="10" x1="194.003" y1="160.806" x2="187.695" y2="156.471"/>
					
						<line fill="#F79034" stroke="#CE6117" stroke-width="2" stroke-miterlimit="10" x1="172.942" y1="176.116" x2="170.322" y2="169.1"/>
					
						<line fill="#F79034" stroke="#CE6117" stroke-width="2" stroke-miterlimit="10" x1="146.901" y1="176.116" x2="148.84" y2="169.1"/>
					
						<line fill="#F79034" stroke="#CE6117" stroke-width="2" stroke-miterlimit="10" x1="125.841" y1="160.806" x2="131.467" y2="156.471"/>
					
						<line fill="#F79034" stroke="#CE6117" stroke-width="2" stroke-miterlimit="10" x1="117.797" y1="136.042" x2="124.831" y2="136.042"/>
					
						<line fill="#F79034" stroke="#CE6117" stroke-width="2" stroke-miterlimit="10" x1="125.841" y1="111.279" x2="131.467" y2="115.614"/>
					
						<line fill="#F79034" stroke="#CE6117" stroke-width="2" stroke-miterlimit="10" x1="146.902" y1="95.968" x2="148.84" y2="102.984"/>
					
						<line fill="#F79034" stroke="#CE6117" stroke-width="2" stroke-miterlimit="10" x1="125.555" y1="147.209" x2="129.496" y2="145.819"/>
					
						<line fill="#F79034" stroke="#CE6117" stroke-width="2" stroke-miterlimit="10" x1="138.688" y1="165.272" x2="140.994" y2="161.631"/>
					
						<line fill="#F79034" stroke="#CE6117" stroke-width="2" stroke-miterlimit="10" x1="159.922" y1="172.167" x2="159.581" y2="167.667"/>
					
						<line fill="#F79034" stroke="#CE6117" stroke-width="2" stroke-miterlimit="10" x1="180.834" y1="165.695" x2="178.169" y2="161.631"/>
					
						<line fill="#F79034" stroke="#CE6117" stroke-width="2" stroke-miterlimit="10" x1="194.288" y1="147.209" x2="189.667" y2="145.819"/>
					
						<line fill="#F79034" stroke="#CE6117" stroke-width="2" stroke-miterlimit="10" x1="194.288" y1="124.875" x2="189.667" y2="126.266"/>
					
						<line fill="#F79034" stroke="#CE6117" stroke-width="2" stroke-miterlimit="10" x1="181.155" y1="106.812" x2="178.169" y2="110.454"/>
					
						<line fill="#F79034" stroke="#CE6117" stroke-width="2" stroke-miterlimit="10" x1="159.922" y1="99.917" x2="159.581" y2="104.417"/>
					
						<line fill="#F79034" stroke="#CE6117" stroke-width="2" stroke-miterlimit="10" x1="138.689" y1="106.812" x2="140.994" y2="110.453"/>
					
						<line fill="#F79034" stroke="#CE6117" stroke-width="2" stroke-miterlimit="10" x1="125.555" y1="124.875" x2="129.496" y2="126.266"/>
				</g>
			</g>
		</g>
		<g opacity="0.4">
			<path fill="#3AD87A" d="M64.861,40.472c-0.017,0.01,0.196,0.268,0.386,0.826c0.115,0.277,0.189,0.618,0.307,1.011
				c0.081,0.396,0.206,0.845,0.253,1.344c0.077,0.497,0.123,1.038,0.144,1.614c0.023,0.575,0.021,1.184-0.02,1.811
				c-0.055,0.626-0.094,1.278-0.227,1.927c-0.092,0.657-0.276,1.305-0.433,1.96c-0.198,0.643-0.418,1.281-0.663,1.896
				c-0.278,0.602-0.516,1.212-0.852,1.749c-0.314,0.547-0.609,1.081-0.97,1.533c-0.347,0.461-0.645,0.918-1.006,1.271
				c-0.338,0.371-0.658,0.7-0.94,0.989c-0.31,0.262-0.579,0.491-0.801,0.679c-0.446,0.371-0.708,0.569-0.708,0.569
				s0.203-0.266,0.571-0.708c0.184-0.219,0.406-0.485,0.662-0.791c0.225-0.331,0.477-0.701,0.764-1.092
				c0.302-0.38,0.534-0.859,0.832-1.324c0.307-0.461,0.536-1.001,0.815-1.533c0.3-0.523,0.471-1.128,0.736-1.699
				c0.222-0.589,0.418-1.201,0.599-1.814c0.16-0.621,0.348-1.235,0.445-1.86c0.131-0.619,0.222-1.234,0.3-1.833
				c0.062-0.599,0.126-1.182,0.151-1.735c0.022-0.554,0.044-1.08,0.03-1.565c-0.013-0.97-0.067-1.79-0.175-2.344
				c-0.048-0.277-0.086-0.504-0.137-0.651C64.883,40.551,64.861,40.472,64.861,40.472z"/>
		</g>
	</g>
</g>
</svg>
