<?xml version="1.0" encoding="utf-8"?>
<!-- Generator: Adobe Illustrator 16.0.0, SVG Export Plug-In . SVG Version: 6.00 Build 0)  -->
<!DOCTYPE svg PUBLIC "-//W3C//DTD SVG 1.1//EN" "http://www.w3.org/Graphics/SVG/1.1/DTD/svg11.dtd">
<svg version="1.1" id="Layer_2" xmlns="http://www.w3.org/2000/svg" xmlns:xlink="http://www.w3.org/1999/xlink" x="0px" y="0px"
	 width="276.642px" height="241.462px" viewBox="0 0 276.642 241.462" enable-background="new 0 0 276.642 241.462"
	 xml:space="preserve">
<g>
	<ellipse opacity="0.1" cx="138.321" cy="114.066" rx="138.321" ry="104.714"/>
	<g>
		<g>
			<path fill="#9B40C6" stroke="#5C0A8C" stroke-width="2" stroke-miterlimit="10" d="M63.855,71.112
				c0,0-11.296-19.823-6.453-30.495s18.343-18.339,27.01-17.505c18,1.5,16.95,10.211,21.667,25.667s-42.224,23-42.224,23"/>
			<path fill="#6C269E" d="M64.723,70.614c5.718-1.023,33.564-6.456,39.596-16.129c1.11-1.78,1.373-3.551,0.804-5.414
				c-0.759-2.489-1.382-4.848-1.932-6.929c-2.866-10.86-4.35-16.478-17.56-17.909c-4.207,2.536-7.371,6.563-7.577,11.187
				c-1.955-0.074-4.889-0.382-6.716,0.371c-4.686,1.932-6.512,8.315-9.294,11.548c-1.391,1.615-2.913,2.888-4.436,4.17
				C59.165,60.707,64.59,70.379,64.723,70.614z"/>
			<linearGradient id="SVGID_1_" gradientUnits="userSpaceOnUse" x1="55.3457" y1="54.5024" x2="114.9126" y2="54.5024">
				<stop  offset="0.0167" style="stop-color:#8C715E"/>
				<stop  offset="1" style="stop-color:#7B553F"/>
			</linearGradient>
			<path fill="url(#SVGID_1_)" stroke="#35261B" stroke-width="3" stroke-miterlimit="10" d="M106.246,43.791
				c0.251-2.637-2.125-5.053-3.625-5.678c-0.541-0.225-0.75-15.125-9.375-15c-6.351,0-11.5,5.149-11.5,11.5
				c0,2.716,2.458,6.125,2.521,7.175c-0.73-0.466-1.983-3.726-6.772-3.725c-4.004,0-7.25,3.246-7.25,7.25
				c0,2.4,3.228,5.715,2.968,5.841s-3.593-2.791-5.567-2.191c-3.59,0-6.5,2.91-6.5,6.5c0,0.592,0.086,1.163,0.234,1.708
				c-0.426-0.127-0.868-0.216-1.334-0.216c-2.596,0-4.7,2.104-4.7,4.7s2.104,4.7,4.7,4.7c2.227,4.237,11.533,19.54,11.533,19.54
				l43.333-23.932C114.913,61.962,105.913,47.279,106.246,43.791z"/>
			<path fill="#CC937A" stroke="#AF6C54" stroke-width="0.5" stroke-miterlimit="10" d="M97.093,29.164
				c1.569,2.601-0.349,4.298-3.009,5.903c-2.659,1.605-5.055,2.51-6.624-0.091s-0.685-6.01,1.976-7.615
				C92.095,25.756,95.524,26.564,97.093,29.164z"/>
			<path fill="#CC937A" stroke="#AF6C54" stroke-width="0.5" stroke-miterlimit="10" d="M79.581,42.273
				c0.988,1.638-0.219,2.707-1.895,3.717c-1.675,1.011-3.184,1.581-4.171-0.058s-0.431-3.785,1.244-4.795
				C76.434,40.127,78.593,40.636,79.581,42.273z"/>
			<path fill="#CC937A" stroke="#AF6C54" stroke-width="0.5" stroke-miterlimit="10" d="M69.167,52.458
				c0.801,1.328-0.178,2.193-1.535,3.013c-1.357,0.819-2.58,1.28-3.38-0.047c-0.8-1.328-0.35-3.067,1.008-3.886
				C66.616,50.719,68.366,51.132,69.167,52.458z"/>
			<path fill="#CC937A" stroke="#AF6C54" stroke-width="0.5" stroke-miterlimit="10" d="M60.544,59.572
				c0.928,0.459,0.688,1.299,0.218,2.248c-0.47,0.95-0.992,1.648-1.92,1.189s-1.299-1.601-0.829-2.55
				C58.482,59.51,59.616,59.113,60.544,59.572z"/>
			<g>
				<path fill="#35261B" d="M91.882,44.183c0,0,0.146-0.077,0.405-0.195c0.25-0.13,0.65-0.25,1.063-0.473
					c0.21-0.104,0.436-0.217,0.677-0.32c0.241-0.101,0.477-0.269,0.736-0.392c0.521-0.251,1.023-0.603,1.549-0.913
					c0.484-0.366,1.004-0.693,1.419-1.084c0.205-0.197,0.453-0.345,0.624-0.544c0.178-0.192,0.358-0.368,0.527-0.531
					c0.352-0.316,0.552-0.654,0.756-0.855c0.194-0.212,0.305-0.333,0.305-0.333s-0.041,0.156-0.13,0.428
					c-0.107,0.26-0.191,0.689-0.467,1.1c-0.126,0.212-0.267,0.444-0.427,0.683c-0.148,0.249-0.369,0.455-0.577,0.688
					c-0.217,0.224-0.419,0.485-0.691,0.67c-0.259,0.202-0.521,0.407-0.784,0.612c-0.289,0.164-0.578,0.328-0.863,0.489
					c-0.276,0.177-0.587,0.272-0.873,0.39c-0.291,0.11-0.562,0.227-0.845,0.291c-0.278,0.072-0.543,0.126-0.786,0.175
					c-0.482,0.12-0.884,0.09-1.169,0.114C92.046,44.188,91.882,44.183,91.882,44.183z"/>
			</g>
			<g>
				<path fill="#35261B" d="M77.746,50.946c0,0,0.12-0.049,0.331-0.12c0.203-0.082,0.529-0.131,0.858-0.271
					c0.164-0.069,0.336-0.143,0.519-0.205c0.185-0.048,0.362-0.179,0.556-0.263c0.189-0.099,0.396-0.175,0.573-0.31
					c0.185-0.119,0.374-0.24,0.562-0.361c0.171-0.143,0.343-0.286,0.512-0.427c0.18-0.13,0.314-0.302,0.464-0.454
					c0.137-0.161,0.312-0.288,0.415-0.458c0.114-0.161,0.234-0.31,0.348-0.448c0.227-0.278,0.353-0.553,0.49-0.729
					c0.125-0.182,0.207-0.288,0.207-0.288s0,0.125-0.018,0.349c-0.033,0.217-0.026,0.559-0.164,0.921
					c-0.064,0.183-0.138,0.384-0.229,0.591c-0.074,0.218-0.22,0.408-0.361,0.613c-0.151,0.195-0.27,0.438-0.48,0.599
					c-0.195,0.177-0.393,0.357-0.591,0.538c-0.231,0.134-0.462,0.269-0.689,0.401c-0.218,0.151-0.482,0.192-0.713,0.28
					c-0.237,0.075-0.458,0.155-0.695,0.167c-0.229,0.03-0.446,0.042-0.641,0.053c-0.389,0.027-0.687-0.071-0.909-0.099
					C77.871,50.98,77.746,50.946,77.746,50.946z"/>
			</g>
			<g>
				<path fill="#35261B" d="M67.192,59.72c0,0,0.093-0.064,0.258-0.161c0.155-0.106,0.429-0.199,0.672-0.377
					c0.127-0.083,0.26-0.171,0.403-0.249c0.143-0.078,0.28-0.211,0.435-0.303c0.155-0.097,0.305-0.209,0.452-0.333
					c0.149-0.121,0.308-0.231,0.453-0.36c0.29-0.259,0.587-0.51,0.846-0.778c0.28-0.248,0.502-0.518,0.73-0.731
					c0.224-0.217,0.387-0.42,0.53-0.55c0.137-0.133,0.225-0.207,0.225-0.207s-0.011,0.11-0.048,0.299
					c-0.045,0.185-0.086,0.468-0.222,0.767c-0.131,0.301-0.286,0.662-0.542,0.99c-0.13,0.161-0.229,0.361-0.398,0.505l-0.476,0.468
					c-0.175,0.14-0.367,0.261-0.546,0.389c-0.174,0.137-0.38,0.219-0.572,0.306c-0.372,0.188-0.774,0.282-1.109,0.335
					c-0.332,0.08-0.594,0.02-0.788,0.021C67.303,59.737,67.192,59.72,67.192,59.72z"/>
			</g>
			<g>
				<path fill="#35261B" d="M62.38,64.764c0,0,0.02-0.07,0.063-0.181c0.037-0.11,0.132-0.258,0.196-0.42
					c0.065-0.166,0.151-0.319,0.232-0.509c0.084-0.176,0.174-0.363,0.264-0.551c0.169-0.374,0.346-0.754,0.502-1.076
					c0.145-0.317,0.306-0.567,0.306-0.567s0.041,0.057,0.097,0.164c0.049,0.105,0.137,0.263,0.168,0.459
					c0.038,0.195,0.073,0.433,0.034,0.682c-0.022,0.123-0.015,0.26-0.07,0.382l-0.133,0.381l-0.208,0.346
					c-0.061,0.119-0.167,0.205-0.25,0.299c-0.165,0.185-0.38,0.322-0.561,0.417c-0.175,0.104-0.336,0.117-0.452,0.148
					C62.453,64.759,62.38,64.764,62.38,64.764z"/>
			</g>
			<path opacity="0.5" fill="#473426" d="M112.82,61.404c-2.735-4.558-8.385-14.437-8.068-17.756
				c0.018-0.188,0.002-0.376-0.02-0.564C89.566,47.471,70.746,59.72,63.529,69.486c2.749,4.739,6.903,11.62,8.586,14.398
				L112.82,61.404z"/>
			<path fill="#9B40C6" stroke="#5C0A8C" stroke-width="2" stroke-miterlimit="10" d="M61.074,76.279
				c2.31-3.318,29.415-28.167,49.415-29.667c6.5,6.5,9.667,15.152,9.667,15.152S69.557,90.945,70.106,90.279
				S61.53,80.959,61.074,76.279z"/>
			<path fill="none" stroke="#35261B" stroke-miterlimit="10" d="M81.304,58.446"/>
			<path fill="#6C269E" d="M68.54,86.345c0.951,1.146,1.628,1.962,2.055,2.584c5.004-2.697,30.559-17.363,48.31-27.599
				c-0.813-1.947-3.224-7.21-7.223-11.935c-19.216,5.676-39.12,22.083-48.182,30.245C64.908,81.966,67.046,84.545,68.54,86.345z"/>
			<g>
				<path fill="#B062DD" d="M57.262,46.562c0,0,0.004-0.148,0.012-0.427c0.002-0.278,0.024-0.686,0.089-1.213
					c0.073-0.521,0.183-1.153,0.376-1.866c0.205-0.707,0.461-1.507,0.847-2.333c0.356-0.842,0.842-1.706,1.4-2.59
					c0.567-0.876,1.206-1.779,1.95-2.637c0.735-0.865,1.52-1.741,2.395-2.544c0.861-0.818,1.769-1.61,2.705-2.363
					c1.889-1.514,3.982-2.793,6.016-3.765c2.036-0.982,4.027-1.697,5.78-2.137c1.748-0.455,3.264-0.625,4.324-0.592
					c0.53,0.006,0.944,0.083,1.217,0.151c0.274,0.066,0.411,0.125,0.411,0.125s-0.148-0.022-0.424-0.018
					c-0.274-0.004-0.675,0.043-1.174,0.134c-1,0.187-2.388,0.624-3.999,1.281c-1.608,0.663-3.439,1.542-5.323,2.608
					c-0.947,0.523-1.886,1.13-2.832,1.746c-0.947,0.62-1.862,1.288-2.751,2.028c-0.907,0.718-1.8,1.452-2.636,2.219
					c-0.835,0.766-1.658,1.52-2.394,2.304c-0.741,0.78-1.427,1.56-2.044,2.327c-0.592,0.782-1.156,1.528-1.603,2.264
					c-0.459,0.729-0.828,1.428-1.145,2.06c-0.292,0.641-0.533,1.212-0.709,1.692c-0.158,0.481-0.303,0.866-0.37,1.137
					C57.304,46.419,57.262,46.562,57.262,46.562z"/>
			</g>
			<g>
				<path fill="#B062DD" d="M62.38,76.615c0,0,0.566-0.682,1.629-1.817c1.066-1.132,2.617-2.722,4.584-4.519
					c0.974-0.91,2.052-1.87,3.22-2.854c1.156-0.999,2.413-2.008,3.72-3.043c1.341-0.99,2.673-2.09,4.129-3.066
					c0.719-0.5,1.444-1.005,2.172-1.512c0.743-0.485,1.488-0.973,2.234-1.46c1.49-0.977,3.048-1.847,4.56-2.738
					c1.509-0.895,3.085-1.622,4.559-2.406c1.51-0.721,2.996-1.365,4.399-1.978c1.433-0.554,2.794-1.053,4.049-1.51
					c1.279-0.398,2.461-0.728,3.504-1.025c1.031-0.333,1.983-0.448,2.741-0.617c1.526-0.283,2.399-0.445,2.399-0.445
					s-0.834,0.301-2.293,0.829c-0.724,0.272-1.625,0.521-2.609,0.961c-0.991,0.408-2.108,0.867-3.327,1.369
					c-1.191,0.568-2.479,1.179-3.85,1.8c-1.337,0.694-2.748,1.426-4.206,2.183c-1.427,0.818-2.916,1.631-4.399,2.513
					c-1.476,0.896-2.994,1.772-4.452,2.751c-0.741,0.47-1.481,0.94-2.219,1.409c-0.724,0.49-1.446,0.979-2.161,1.463
					c-1.441,0.955-2.821,1.952-4.178,2.889c-1.321,0.985-2.639,1.886-3.845,2.8c-1.21,0.91-2.354,1.771-3.411,2.565
					c-2.103,1.604-3.839,2.971-5.05,3.934C63.07,76.06,62.38,76.615,62.38,76.615z"/>
			</g>
			<g>
				<path fill="#A88E7D" d="M91.246,43.862c0,0,0.16-0.071,0.442-0.179c0.142-0.051,0.314-0.113,0.511-0.184
					c0.205-0.055,0.41-0.167,0.631-0.274c0.222-0.109,0.458-0.225,0.71-0.331c0.248-0.127,0.5-0.299,0.77-0.438
					c0.273-0.14,0.542-0.305,0.805-0.491c0.268-0.177,0.539-0.358,0.811-0.538c0.506-0.41,1.054-0.773,1.492-1.203
					c0.219-0.213,0.467-0.389,0.663-0.591c0.187-0.208,0.376-0.399,0.553-0.576c0.178-0.176,0.343-0.338,0.459-0.504
					c0.13-0.16,0.243-0.298,0.337-0.413c0.201-0.229,0.316-0.36,0.316-0.36s-0.044,0.165-0.14,0.453
					c-0.112,0.277-0.21,0.73-0.507,1.162c-0.259,0.459-0.598,0.982-1.06,1.454c-0.223,0.243-0.438,0.515-0.719,0.72
					c-0.267,0.221-0.539,0.445-0.811,0.669c-0.3,0.185-0.6,0.37-0.895,0.552c-0.287,0.196-0.606,0.324-0.912,0.451
					c-0.305,0.13-0.596,0.252-0.887,0.344c-0.301,0.08-0.587,0.14-0.847,0.194c-0.518,0.142-0.943,0.085-1.247,0.099
					C91.42,43.874,91.246,43.862,91.246,43.862z"/>
			</g>
			<g>
				<path fill="#A88E7D" d="M77.796,50.696c0,0,0.102-0.065,0.284-0.163c0.171-0.108,0.468-0.2,0.74-0.383
					c0.139-0.087,0.285-0.18,0.441-0.262c0.159-0.071,0.304-0.224,0.471-0.322c0.337-0.207,0.64-0.499,0.964-0.757
					c0.29-0.299,0.604-0.575,0.846-0.89c0.118-0.158,0.277-0.284,0.37-0.442c0.102-0.153,0.21-0.292,0.313-0.424
					c0.21-0.26,0.33-0.512,0.458-0.675c0.118-0.168,0.196-0.265,0.196-0.265s0.004,0.117-0.006,0.325
					c-0.023,0.202-0.01,0.519-0.127,0.857c-0.052,0.171-0.111,0.359-0.187,0.553c-0.061,0.203-0.184,0.385-0.299,0.582
					c-0.126,0.189-0.222,0.414-0.399,0.58c-0.163,0.178-0.328,0.359-0.493,0.54c-0.196,0.147-0.392,0.294-0.585,0.438
					c-0.184,0.158-0.414,0.239-0.617,0.342c-0.21,0.094-0.396,0.2-0.613,0.243c-0.208,0.057-0.405,0.096-0.584,0.129
					c-0.356,0.083-0.64,0.023-0.848,0.025C77.916,50.713,77.796,50.696,77.796,50.696z"/>
			</g>
			<g>
				<path fill="#A88E7D" d="M67.996,59.112c0,0,0.149-0.344,0.461-0.76c0.306-0.423,0.771-0.922,1.288-1.361
					c0.532-0.42,1.116-0.782,1.598-1.004c0.477-0.229,0.854-0.315,0.854-0.315s-0.153,0.337-0.472,0.744
					c-0.314,0.413-0.791,0.898-1.32,1.325c-0.522,0.434-1.097,0.808-1.57,1.04C68.366,59.02,67.996,59.112,67.996,59.112z"/>
			</g>
			<g>
				<path fill="#A88E7D" d="M62.329,63.779c0,0-0.104-0.199-0.138-0.451c-0.041-0.255-0.015-0.565,0.086-0.848
					c0.107-0.28,0.289-0.533,0.486-0.7c0.189-0.17,0.399-0.252,0.399-0.252s0.105,0.199,0.139,0.451
					c0.041,0.255,0.014,0.565-0.087,0.847c-0.107,0.28-0.29,0.532-0.487,0.699C62.538,63.696,62.329,63.779,62.329,63.779z"/>
			</g>
		</g>
		<g>
			<path fill="#9B40C6" stroke="#5C0A8C" stroke-width="2" stroke-miterlimit="10" d="M183.313,71.112
				c0,0,11.296-19.823,6.453-30.495c-4.844-10.672-18.344-18.339-27.01-17.505c-18,1.5-16.951,10.211-21.668,25.667
				c-4.716,15.456,42.225,23,42.225,23"/>
			<path fill="#6C269E" d="M182.446,70.614c-5.719-1.023-33.564-6.456-39.596-16.129c-1.11-1.78-1.373-3.551-0.805-5.414
				c0.76-2.489,1.382-4.848,1.932-6.929c2.866-10.86,4.35-16.478,17.561-17.909c4.206,2.536,7.371,6.563,7.576,11.187
				c1.955-0.074,4.889-0.382,6.716,0.371c4.686,1.932,6.512,8.315,9.294,11.548c1.391,1.615,2.913,2.888,4.437,4.17
				C188.004,60.707,182.579,70.379,182.446,70.614z"/>
			
				<linearGradient id="SVGID_2_" gradientUnits="userSpaceOnUse" x1="81.2744" y1="54.5024" x2="140.8408" y2="54.5024" gradientTransform="matrix(-1 0 0 1 273.0977 0)">
				<stop  offset="0.0167" style="stop-color:#8C715E"/>
				<stop  offset="1" style="stop-color:#7B553F"/>
			</linearGradient>
			<path fill="url(#SVGID_2_)" stroke="#35261B" stroke-width="3" stroke-miterlimit="10" d="M140.923,43.791
				c-0.252-2.637,2.125-5.053,3.625-5.678c0.541-0.225,0.75-15.125,9.375-15c6.352,0,11.5,5.149,11.5,11.5
				c0,2.716-2.459,6.125-2.521,7.175c0.73-0.466,1.982-3.726,6.771-3.725c4.004,0,7.25,3.246,7.25,7.25
				c0,2.4-3.227,5.715-2.968,5.841s3.593-2.791,5.567-2.191c3.59,0,6.5,2.91,6.5,6.5c0,0.592-0.086,1.163-0.234,1.708
				c0.426-0.127,0.867-0.216,1.334-0.216c2.596,0,4.701,2.104,4.701,4.7s-2.105,4.7-4.701,4.7
				c-2.227,4.237-11.533,19.54-11.533,19.54l-43.333-23.932C132.256,61.962,141.256,47.279,140.923,43.791z"/>
			<path fill="#CC937A" stroke="#AF6C54" stroke-width="0.5" stroke-miterlimit="10" d="M150.075,29.164
				c-1.569,2.601,0.349,4.298,3.009,5.903c2.659,1.605,5.056,2.51,6.624-0.091s0.685-6.01-1.976-7.615
				C155.073,25.756,151.645,26.564,150.075,29.164z"/>
			<path fill="#CC937A" stroke="#AF6C54" stroke-width="0.5" stroke-miterlimit="10" d="M167.587,42.273
				c-0.988,1.638,0.22,2.707,1.895,3.717c1.676,1.011,3.184,1.581,4.172-0.058s0.432-3.785-1.244-4.795
				C170.735,40.127,168.575,40.636,167.587,42.273z"/>
			<path fill="#CC937A" stroke="#AF6C54" stroke-width="0.5" stroke-miterlimit="10" d="M178.001,52.458
				c-0.801,1.328,0.178,2.193,1.535,3.013c1.357,0.819,2.58,1.28,3.381-0.047c0.801-1.328,0.35-3.067-1.008-3.886
				S178.802,51.132,178.001,52.458z"/>
			<path fill="#CC937A" stroke="#AF6C54" stroke-width="0.5" stroke-miterlimit="10" d="M186.624,59.572
				c-0.928,0.459-0.688,1.299-0.218,2.248c0.47,0.95,0.992,1.648,1.92,1.189s1.3-1.601,0.829-2.55
				C188.687,59.51,187.553,59.113,186.624,59.572z"/>
			<g>
				<path fill="#35261B" d="M155.286,44.183c0,0-0.165,0.005-0.449-0.003c-0.285-0.024-0.688,0.006-1.17-0.114
					c-0.242-0.049-0.507-0.103-0.785-0.175c-0.282-0.063-0.554-0.18-0.845-0.291c-0.285-0.118-0.596-0.213-0.872-0.39
					c-0.285-0.161-0.574-0.325-0.863-0.489c-0.263-0.205-0.525-0.41-0.784-0.612c-0.271-0.185-0.475-0.446-0.691-0.67
					c-0.208-0.234-0.428-0.439-0.577-0.688c-0.16-0.238-0.301-0.47-0.427-0.683c-0.275-0.411-0.359-0.84-0.467-1.1
					c-0.09-0.272-0.13-0.428-0.13-0.428s0.111,0.121,0.305,0.333c0.204,0.202,0.403,0.539,0.756,0.855
					c0.169,0.164,0.349,0.339,0.526,0.531c0.172,0.199,0.42,0.347,0.624,0.544c0.416,0.392,0.936,0.718,1.42,1.084
					c0.525,0.31,1.027,0.662,1.549,0.913c0.259,0.123,0.495,0.291,0.736,0.392c0.24,0.104,0.466,0.216,0.677,0.32
					c0.413,0.223,0.813,0.342,1.063,0.473C155.141,44.106,155.286,44.183,155.286,44.183z"/>
			</g>
			<g>
				<path fill="#35261B" d="M169.423,50.946c0,0-0.125,0.034-0.343,0.078c-0.222,0.028-0.521,0.126-0.909,0.099
					c-0.195-0.01-0.412-0.023-0.641-0.053c-0.237-0.012-0.458-0.092-0.695-0.167c-0.23-0.087-0.495-0.128-0.713-0.28
					c-0.228-0.132-0.458-0.267-0.688-0.401c-0.198-0.18-0.396-0.36-0.591-0.537c-0.212-0.161-0.329-0.403-0.481-0.599
					c-0.141-0.205-0.287-0.395-0.361-0.613c-0.091-0.207-0.165-0.408-0.229-0.591c-0.137-0.362-0.131-0.704-0.163-0.921
					c-0.019-0.223-0.019-0.349-0.019-0.349s0.082,0.106,0.207,0.287c0.138,0.176,0.264,0.452,0.49,0.729
					c0.113,0.139,0.233,0.287,0.348,0.448c0.102,0.17,0.277,0.297,0.415,0.458c0.148,0.151,0.283,0.324,0.463,0.454
					c0.169,0.141,0.341,0.284,0.512,0.427c0.188,0.121,0.377,0.242,0.562,0.361c0.179,0.134,0.385,0.21,0.574,0.31
					c0.193,0.084,0.371,0.215,0.556,0.263c0.183,0.062,0.355,0.135,0.52,0.205c0.328,0.14,0.655,0.189,0.858,0.271
					C169.303,50.896,169.423,50.946,169.423,50.946z"/>
			</g>
			<g>
				<path fill="#35261B" d="M179.977,59.72c0,0-0.111,0.017-0.303,0.032c-0.193-0.001-0.455,0.059-0.787-0.021
					c-0.335-0.053-0.737-0.147-1.109-0.335c-0.192-0.087-0.398-0.169-0.572-0.306c-0.18-0.128-0.371-0.249-0.546-0.389l-0.477-0.468
					c-0.168-0.144-0.268-0.344-0.397-0.504c-0.257-0.329-0.412-0.69-0.543-0.991c-0.137-0.299-0.177-0.582-0.222-0.767
					c-0.037-0.189-0.049-0.299-0.049-0.299s0.088,0.074,0.225,0.207c0.143,0.129,0.307,0.333,0.53,0.55
					c0.229,0.213,0.451,0.483,0.73,0.731c0.259,0.268,0.557,0.519,0.847,0.778c0.145,0.129,0.304,0.239,0.452,0.36
					c0.147,0.123,0.297,0.236,0.452,0.333c0.154,0.092,0.292,0.225,0.435,0.303c0.144,0.077,0.276,0.166,0.403,0.249
					c0.244,0.178,0.518,0.271,0.673,0.377C179.884,59.656,179.977,59.72,179.977,59.72z"/>
			</g>
			<g>
				<path fill="#35261B" d="M184.788,64.764c0,0-0.072-0.005-0.189-0.028c-0.116-0.031-0.276-0.045-0.452-0.148
					c-0.18-0.094-0.396-0.232-0.561-0.417c-0.083-0.094-0.189-0.18-0.25-0.298l-0.209-0.346l-0.133-0.381
					c-0.056-0.122-0.048-0.259-0.07-0.382c-0.039-0.249-0.004-0.486,0.034-0.682c0.031-0.196,0.119-0.354,0.169-0.459
					c0.056-0.106,0.097-0.164,0.097-0.164s0.161,0.25,0.306,0.567c0.156,0.322,0.334,0.703,0.503,1.076
					c0.09,0.188,0.18,0.375,0.264,0.551c0.051,0.083,0.075,0.192,0.121,0.265c0.044,0.077,0.078,0.162,0.111,0.244
					c0.064,0.163,0.159,0.311,0.196,0.42C184.769,64.694,184.788,64.764,184.788,64.764z"/>
			</g>
			<path opacity="0.5" fill="#473426" d="M134.349,61.404c2.734-4.558,8.384-14.437,8.067-17.756
				c-0.019-0.188-0.003-0.376,0.021-0.564c15.166,4.387,33.986,16.636,41.203,26.402c-2.748,4.739-6.902,11.62-8.586,14.398
				L134.349,61.404z"/>
			<path fill="#9B40C6" stroke="#5C0A8C" stroke-width="2" stroke-miterlimit="10" d="M186.095,76.279
				c-2.31-3.318-29.415-28.167-49.415-29.667c-6.5,6.5-9.667,15.152-9.667,15.152s50.599,29.181,50.049,28.515
				S185.638,80.959,186.095,76.279z"/>
			<path fill="none" stroke="#35261B" stroke-miterlimit="10" d="M165.864,58.446"/>
			<path fill="#6C269E" d="M178.628,86.345c-0.951,1.146-1.628,1.962-2.055,2.584c-5.004-2.697-30.559-17.363-48.31-27.599
				c0.814-1.947,3.225-7.21,7.223-11.935c19.216,5.676,39.12,22.083,48.181,30.245C182.261,81.966,180.122,84.545,178.628,86.345z"
				/>
			<g>
				<path fill="#B062DD" d="M189.906,46.562c0,0-0.042-0.143-0.119-0.41c-0.067-0.271-0.213-0.656-0.371-1.137
					c-0.176-0.48-0.417-1.052-0.708-1.692c-0.316-0.631-0.686-1.331-1.145-2.06c-0.446-0.735-1.011-1.481-1.604-2.263
					c-0.617-0.768-1.303-1.547-2.044-2.327c-0.736-0.785-1.558-1.538-2.394-2.304c-0.836-0.767-1.729-1.501-2.637-2.219
					c-0.889-0.74-1.804-1.408-2.75-2.028c-0.947-0.616-1.885-1.223-2.832-1.746c-1.884-1.067-3.715-1.945-5.323-2.608
					c-1.61-0.657-2.999-1.094-3.999-1.281c-0.499-0.091-0.899-0.138-1.174-0.134c-0.275-0.004-0.424,0.018-0.424,0.018
					s0.137-0.059,0.411-0.125c0.273-0.068,0.688-0.146,1.217-0.151c1.061-0.032,2.576,0.137,4.324,0.592
					c1.753,0.44,3.744,1.154,5.779,2.137c2.034,0.972,4.127,2.251,6.017,3.765c0.936,0.753,1.844,1.544,2.705,2.363
					c0.874,0.803,1.659,1.679,2.395,2.544c0.744,0.858,1.383,1.761,1.95,2.637c0.559,0.884,1.043,1.748,1.4,2.59
					c0.386,0.827,0.643,1.626,0.847,2.333c0.193,0.713,0.304,1.345,0.377,1.866c0.064,0.527,0.087,0.935,0.089,1.213
					C189.902,46.414,189.906,46.562,189.906,46.562z"/>
			</g>
			<g>
				<path fill="#B062DD" d="M184.788,76.615c0,0-0.69-0.556-1.898-1.527c-1.212-0.963-2.947-2.33-5.051-3.934
					c-1.056-0.794-2.2-1.655-3.41-2.565c-1.206-0.914-2.524-1.814-3.845-2.8c-1.356-0.936-2.737-1.934-4.178-2.889
					c-0.716-0.484-1.438-0.973-2.161-1.462c-0.738-0.469-1.479-0.939-2.22-1.409c-1.457-0.979-2.976-1.856-4.451-2.751
					c-1.483-0.881-2.973-1.695-4.399-2.513c-1.459-0.757-2.869-1.489-4.206-2.183c-1.37-0.621-2.658-1.231-3.85-1.8
					c-1.219-0.501-2.336-0.961-3.327-1.368c-0.983-0.44-1.884-0.689-2.608-0.961c-1.459-0.527-2.293-0.829-2.293-0.829
					s0.873,0.162,2.399,0.445c0.758,0.169,1.71,0.284,2.74,0.617c1.043,0.297,2.225,0.627,3.504,1.025
					c1.255,0.457,2.616,0.956,4.049,1.51c1.403,0.613,2.889,1.258,4.399,1.978c1.474,0.785,3.049,1.511,4.559,2.407
					c1.512,0.891,3.07,1.761,4.56,2.738c0.746,0.487,1.491,0.975,2.234,1.46c0.728,0.506,1.452,1.011,2.172,1.512
					c1.456,0.976,2.788,2.076,4.129,3.066c1.307,1.035,2.563,2.044,3.72,3.043c1.168,0.984,2.246,1.944,3.22,2.854
					c1.968,1.797,3.519,3.387,4.584,4.519C184.222,75.934,184.788,76.615,184.788,76.615z"/>
			</g>
			<g>
				<path fill="#A88E7D" d="M155.923,43.862c0,0-0.174,0.011-0.477,0.016c-0.303-0.013-0.728,0.043-1.246-0.099
					c-0.26-0.054-0.546-0.115-0.847-0.194c-0.292-0.092-0.583-0.214-0.888-0.344c-0.306-0.127-0.625-0.255-0.912-0.451
					c-0.295-0.182-0.595-0.367-0.895-0.552c-0.271-0.224-0.543-0.449-0.811-0.669c-0.28-0.206-0.496-0.477-0.719-0.72
					c-0.462-0.473-0.801-0.995-1.06-1.455c-0.298-0.431-0.396-0.885-0.507-1.162c-0.097-0.289-0.141-0.453-0.141-0.453
					s0.115,0.131,0.316,0.36c0.093,0.115,0.206,0.253,0.337,0.413c0.115,0.166,0.28,0.328,0.458,0.504
					c0.178,0.177,0.366,0.367,0.554,0.576c0.194,0.202,0.443,0.378,0.662,0.591c0.438,0.429,0.985,0.793,1.491,1.203
					c0.272,0.181,0.544,0.361,0.812,0.538c0.264,0.187,0.532,0.351,0.805,0.491c0.271,0.14,0.522,0.312,0.771,0.438
					c0.252,0.106,0.488,0.222,0.71,0.331c0.222,0.107,0.427,0.219,0.632,0.274c0.197,0.071,0.369,0.133,0.511,0.184
					C155.763,43.792,155.923,43.862,155.923,43.862z"/>
			</g>
			<g>
				<path fill="#A88E7D" d="M169.372,50.696c0,0-0.119,0.017-0.325,0.031c-0.208-0.002-0.492,0.058-0.849-0.025
					c-0.179-0.034-0.377-0.073-0.584-0.13c-0.217-0.043-0.403-0.148-0.613-0.243c-0.203-0.103-0.434-0.184-0.617-0.342
					c-0.192-0.145-0.389-0.292-0.585-0.438c-0.165-0.181-0.33-0.362-0.492-0.54c-0.177-0.166-0.273-0.391-0.398-0.58
					c-0.116-0.197-0.239-0.378-0.3-0.582c-0.076-0.194-0.135-0.382-0.187-0.553c-0.117-0.338-0.104-0.655-0.127-0.857
					c-0.011-0.208-0.006-0.325-0.006-0.325s0.078,0.097,0.195,0.265c0.129,0.163,0.248,0.415,0.458,0.675
					c0.104,0.131,0.212,0.271,0.313,0.424c0.094,0.159,0.253,0.285,0.37,0.442c0.241,0.315,0.557,0.591,0.846,0.89
					c0.325,0.259,0.628,0.55,0.965,0.757c0.167,0.098,0.312,0.251,0.471,0.322c0.156,0.082,0.303,0.175,0.441,0.262
					c0.272,0.184,0.568,0.275,0.74,0.383C169.271,50.631,169.372,50.696,169.372,50.696z"/>
			</g>
			<g>
				<path fill="#A88E7D" d="M179.173,59.112c0,0-0.37-0.093-0.838-0.331c-0.474-0.232-1.049-0.606-1.571-1.04
					c-0.529-0.427-1.006-0.913-1.319-1.325c-0.319-0.407-0.473-0.744-0.473-0.744s0.377,0.086,0.854,0.315
					c0.482,0.222,1.066,0.583,1.599,1.003c0.518,0.439,0.981,0.939,1.288,1.362C179.023,58.769,179.173,59.112,179.173,59.112z"/>
			</g>
			<g>
				<path fill="#A88E7D" d="M184.839,63.779c0,0-0.209-0.083-0.398-0.252c-0.196-0.167-0.379-0.419-0.486-0.699
					c-0.102-0.282-0.129-0.592-0.087-0.847c0.033-0.252,0.139-0.451,0.139-0.451s0.21,0.082,0.399,0.252
					c0.197,0.167,0.379,0.419,0.485,0.7c0.101,0.282,0.127,0.593,0.086,0.848C184.943,63.58,184.839,63.779,184.839,63.779z"/>
			</g>
		</g>
		<g>
			
				<linearGradient id="SVGID_3_" gradientUnits="userSpaceOnUse" x1="14.6611" y1="91.5317" x2="57.063" y2="91.5317" gradientTransform="matrix(0.9922 0.125 -0.125 0.9922 12.1821 -4.1221)">
				<stop  offset="0.0167" style="stop-color:#8C715E"/>
				<stop  offset="1" style="stop-color:#7B553F"/>
			</linearGradient>
			<path fill="url(#SVGID_3_)" stroke="#35261B" stroke-width="3" stroke-miterlimit="10" d="M17.303,106.857
				c0.062-0.496-3.469-24.459,0.007-28.052c3.477-3.594,31.555-9.126,37.603,0.203c6.048,9.329-0.065,26.365-0.7,29.141
				S17.303,106.857,17.303,106.857z"/>
			<path opacity="0.5" fill="#473426" d="M51.973,92.058c-3.675-2.969-5.156-8.604-8.938-11.133
				c-5.538-3.704-12.934-1.362-15.003,4.572c-2.565,7.356-4.571,10.901-10.03,13.904c0.169,1.722,0.37,3.587,0.612,5.623
				c0.021,0.174,0.04,0.332,0.056,0.474c4.49,0.481,20.471,2.122,29.323,2.122c3.12,0,4.402-0.209,4.895-0.337
				c0.085-0.312,0.195-0.695,0.324-1.142c0.657-2.279,1.795-6.243,2.421-10.609C54.619,94.369,53.397,93.208,51.973,92.058z"/>
			<g>
				<linearGradient id="SVGID_4_" gradientUnits="userSpaceOnUse" x1="27.873" y1="90.7271" x2="43.938" y2="90.7271">
					<stop  offset="0.0167" style="stop-color:#8C715E"/>
					<stop  offset="1" style="stop-color:#7B553F"/>
				</linearGradient>
				<path fill="url(#SVGID_4_)" stroke="#35261B" stroke-width="2" stroke-miterlimit="10" d="M28.535,100.377
					c-1.369-6.533-1.284-16.802,6.932-18.985c9.443-2.509,8.813,10.552,8.118,16.791"/>
				<g>
					<path fill="#35261B" d="M43.725,94.362c0,0,0.48,0.248,1.227,0.668c0.376,0.216,0.814,0.463,1.26,0.764
						c0.457,0.277,0.913,0.637,1.371,0.974c0.434,0.382,0.879,0.734,1.233,1.141c0.178,0.2,0.372,0.367,0.513,0.569
						c0.146,0.194,0.284,0.378,0.412,0.547c0.264,0.327,0.4,0.662,0.532,0.863c0.119,0.21,0.188,0.33,0.188,0.33
						s-0.094-0.102-0.258-0.281c-0.175-0.168-0.37-0.451-0.695-0.705c-0.155-0.13-0.324-0.272-0.502-0.422
						c-0.17-0.155-0.393-0.273-0.597-0.418c-0.404-0.296-0.897-0.527-1.36-0.78c-0.496-0.212-0.971-0.439-1.452-0.598
						c-0.467-0.18-0.915-0.311-1.293-0.426c-0.771-0.228-1.32-0.369-1.32-0.369L43.725,94.362z"/>
				</g>
				<g>
					<path fill="#35261B" d="M44.165,93.612c0,0,0.122,0.03,0.334,0.084c0.225,0.066,0.49,0.102,0.907,0.25
						c0.403,0.129,0.861,0.284,1.301,0.493c0.458,0.185,0.909,0.444,1.365,0.681c0.893,0.512,1.729,1.077,2.34,1.519
						c0.606,0.446,1.01,0.743,1.01,0.743s-0.463-0.188-1.159-0.469c-0.696-0.275-1.634-0.608-2.573-0.869
						c-0.475-0.11-0.94-0.241-1.384-0.298c-0.445-0.087-0.838-0.111-1.165-0.133c-0.306-0.039-0.669-0.009-0.873-0.017
						c-0.219,0-0.344,0.001-0.344,0.001L44.165,93.612z"/>
				</g>
				<g>
					<path fill="#35261B" d="M32.352,87.42c0,0,0.028-0.091,0.088-0.24c0.071-0.146,0.133-0.359,0.309-0.577
						c0.162-0.227,0.377-0.49,0.647-0.7c0.253-0.242,0.587-0.406,0.909-0.589c0.173-0.063,0.347-0.127,0.517-0.19
						c0.166-0.075,0.351-0.083,0.518-0.121c0.337-0.073,0.664-0.062,0.937-0.045c0.272,0.007,0.5,0.089,0.653,0.127
						c0.155,0.047,0.24,0.084,0.24,0.084s-0.085,0.048-0.23,0.115c-0.145,0.073-0.349,0.136-0.583,0.242
						c-0.472,0.191-1.059,0.438-1.635,0.695c-0.281,0.141-0.575,0.264-0.836,0.41c-0.126,0.077-0.276,0.124-0.389,0.194
						c-0.115,0.071-0.234,0.128-0.347,0.183c-0.229,0.103-0.42,0.243-0.565,0.305C32.44,87.386,32.352,87.42,32.352,87.42z"/>
				</g>
				<g>
					<path fill="#35261B" d="M32.643,85.105c0,0,0.149-0.305,0.448-0.653c0.074-0.088,0.154-0.184,0.247-0.273
						c0.08-0.099,0.217-0.171,0.344-0.25c0.257-0.163,0.557-0.305,0.856-0.445c0.312-0.068,0.626-0.132,0.923-0.157
						c0.148-0.014,0.289-0.04,0.427-0.012c0.137,0.016,0.267,0.043,0.384,0.07c0.472,0.1,0.756,0.257,0.756,0.257
						s-0.307,0.181-0.72,0.316c-0.104,0.036-0.214,0.073-0.331,0.098c-0.118,0.02-0.231,0.102-0.355,0.136
						c-0.242,0.102-0.505,0.167-0.766,0.239c-0.241,0.099-0.482,0.196-0.731,0.256c-0.12,0.046-0.25,0.04-0.368,0.105
						c-0.117,0.054-0.235,0.094-0.344,0.131C32.981,85.076,32.643,85.105,32.643,85.105z"/>
				</g>
			</g>
		</g>
		<g>
			<linearGradient id="SVGID_5_" gradientUnits="userSpaceOnUse" x1="179.4961" y1="58.3276" x2="224.7464" y2="101.5779">
				<stop  offset="0.0167" style="stop-color:#8C715E"/>
				<stop  offset="1" style="stop-color:#7B553F"/>
			</linearGradient>
			<path fill="url(#SVGID_5_)" stroke="#35261B" stroke-width="3" stroke-miterlimit="10" d="M110.746,43.413
				c-0.907-14.973,11.5-11.8,11.5-11.8s-6.5-3-4.4-10.5c4.5-10.5,17.345-7,17.345-7s-3.445-14,12.055-12.5
				c15.5,1.5,52.5,21.5,68.5,38s30.5,49.5,34.5,61s-5,12.5-10.5,11.5l-1.5-9c0,0-1-20.5-29.678-42.5c0,0,8.162,40.5-5.822,40
				s-3.276-20.5-21.776-35.5S111.746,59.913,110.746,43.413z"/>
			<g>
				<path fill="#35261B" d="M122.269,30.029c0,0,0.686,0.132,1.886,0.364c1.21,0.231,2.921,0.593,4.966,1.037
					c2.048,0.438,4.423,1.011,6.969,1.606c2.531,0.662,5.247,1.289,7.928,2.056c1.342,0.375,2.684,0.75,4.005,1.119
					c1.324,0.354,2.612,0.761,3.858,1.149c2.488,0.796,4.834,1.447,6.798,2.163c3.939,1.374,6.565,2.29,6.565,2.29
					s-2.68-0.736-6.699-1.84c-1.999-0.58-4.385-1.071-6.909-1.695c-1.265-0.302-2.569-0.62-3.911-0.883
					c-1.336-0.278-2.694-0.56-4.052-0.842c-2.71-0.582-5.451-1.022-8.001-1.508c-2.564-0.419-4.953-0.828-7.007-1.124
					c-2.055-0.303-3.765-0.545-4.957-0.691c-1.201-0.148-1.887-0.233-1.887-0.233L122.269,30.029z"/>
			</g>
			<g>
				<polygon fill="#35261B" points="135.639,12.681 169.245,24.413 134.742,15.543 				"/>
			</g>
			<g>
				<path fill="#35261B" d="M174.245,41.612c0,0,0.157,0.053,0.424,0.16c0.263,0.119,0.65,0.242,1.069,0.509
					c0.422,0.26,0.937,0.567,1.389,0.992c0.226,0.215,0.5,0.398,0.702,0.659c0.216,0.248,0.436,0.5,0.654,0.752
					c0.198,0.27,0.371,0.558,0.554,0.831c0.195,0.266,0.321,0.568,0.454,0.852c0.286,0.559,0.447,1.124,0.564,1.608
					c0.148,0.473,0.133,0.905,0.17,1.187c0.019,0.288,0.02,0.451,0.02,0.451s-0.077-0.146-0.213-0.402
					c-0.144-0.25-0.266-0.629-0.516-1.038c-0.116-0.208-0.241-0.431-0.359-0.67c-0.119-0.239-0.3-0.464-0.44-0.717
					c-0.145-0.252-0.308-0.502-0.49-0.747c-0.178-0.246-0.347-0.504-0.536-0.748c-0.194-0.24-0.389-0.48-0.58-0.717
					c-0.183-0.245-0.401-0.452-0.594-0.671c-0.203-0.208-0.374-0.444-0.572-0.617c-0.193-0.182-0.369-0.366-0.534-0.538
					c-0.326-0.346-0.655-0.604-0.85-0.812C174.356,41.735,174.245,41.612,174.245,41.612z"/>
			</g>
			<g>
				<path fill="#35261B" d="M177.245,26.612c0,0,0.172,0.021,0.466,0.072c0.292,0.072,0.717,0.09,1.196,0.303
					c0.242,0.101,0.509,0.213,0.786,0.348c0.294,0.115,0.534,0.321,0.808,0.512c0.262,0.203,0.568,0.377,0.786,0.656
					c0.234,0.26,0.484,0.517,0.712,0.791c0.185,0.305,0.369,0.609,0.551,0.909c0.207,0.286,0.264,0.641,0.396,0.942
					c0.115,0.311,0.228,0.609,0.258,0.913c0.053,0.297,0.089,0.579,0.12,0.837c0.051,0.255,0.019,0.498,0.012,0.708
					c-0.014,0.209-0.026,0.393-0.037,0.543c-0.027,0.299-0.053,0.466-0.053,0.466s-0.053-0.164-0.146-0.451
					c-0.04-0.141-0.088-0.313-0.144-0.509c-0.057-0.195-0.095-0.417-0.195-0.645c-0.091-0.23-0.187-0.477-0.273-0.738
					c-0.072-0.268-0.23-0.518-0.355-0.788c-0.143-0.261-0.237-0.558-0.426-0.808c-0.168-0.259-0.34-0.523-0.511-0.786
					c-0.193-0.246-0.406-0.478-0.604-0.716c-0.187-0.25-0.426-0.44-0.645-0.642c-0.229-0.186-0.414-0.429-0.646-0.562
					c-0.223-0.151-0.429-0.309-0.623-0.457c-0.387-0.301-0.797-0.47-1.037-0.641C177.387,26.711,177.245,26.612,177.245,26.612z"/>
			</g>
			<g>
				<path fill="#A88E7D" d="M112.079,40.82c0,0,0.024-0.201,0.069-0.578c0.048-0.375,0.137-0.934,0.322-1.629
					c0.205-0.687,0.498-1.527,1.044-2.402c0.551-0.859,1.356-1.779,2.499-2.425c0.589-0.326,1.153-0.577,1.932-0.776
					c0.283-0.064,0.736-0.091,1.098-0.093c0.354-0.005,0.71,0.003,1.062,0.026c1.417,0.08,2.883,0.221,4.396,0.407
					c1.51,0.195,3.065,0.411,4.642,0.646c1.571,0.263,3.167,0.531,4.763,0.798c1.594,0.274,3.179,0.594,4.743,0.889
					c1.564,0.292,3.095,0.621,4.578,0.933c2.966,0.62,5.723,1.251,8.08,1.821c2.359,0.557,4.317,1.063,5.689,1.414
					c1.373,0.354,2.158,0.556,2.158,0.556s-0.812-0.029-2.227-0.154c-1.414-0.125-3.43-0.336-5.835-0.664
					c-2.407-0.313-5.206-0.728-8.193-1.223c-1.494-0.246-3.04-0.489-4.603-0.776c-1.564-0.277-3.153-0.559-4.742-0.84
					c-3.169-0.582-6.338-1.163-9.309-1.708c-1.482-0.262-2.917-0.531-4.264-0.701c-0.333-0.038-0.662-0.075-0.985-0.112
					c-0.312-0.024-0.525-0.056-0.889-0.019c-0.497,0.085-1.125,0.275-1.612,0.503c-1.023,0.458-1.831,1.164-2.421,1.896
					c-0.587,0.739-0.989,1.485-1.271,2.122c-0.271,0.643-0.457,1.162-0.563,1.528C112.135,40.626,112.079,40.82,112.079,40.82z"/>
			</g>
			<g>
				<path fill="#A88E7D" d="M119.306,21.737c0,0,0.08-0.164,0.23-0.472c0.142-0.308,0.393-0.755,0.772-1.287
					c0.383-0.523,0.889-1.146,1.587-1.744c0.693-0.599,1.546-1.216,2.576-1.712c2.043-1.011,4.75-1.591,7.607-1.395
					c1.44,0.109,2.837,0.342,4.256,0.622c1.414,0.274,2.843,0.565,4.268,0.874c2.843,0.648,5.675,1.322,8.311,2.031
					c2.64,0.697,5.089,1.397,7.178,2.041c2.092,0.634,3.821,1.214,5.026,1.638c0.604,0.206,1.072,0.393,1.394,0.514
					c0.32,0.12,0.485,0.203,0.485,0.203s-0.175-0.046-0.514-0.099c-0.338-0.055-0.833-0.134-1.463-0.236
					c-1.259-0.208-3.055-0.509-5.199-0.914c-2.147-0.394-4.643-0.887-7.31-1.441c-1.332-0.281-2.708-0.572-4.106-0.867
					c-1.396-0.303-2.813-0.611-4.231-0.919c-1.414-0.311-2.828-0.622-4.219-0.928c-1.388-0.277-2.756-0.6-4.031-0.752
					c-2.581-0.3-5.025,0.007-6.996,0.699c-0.981,0.354-1.835,0.804-2.561,1.26c-0.722,0.465-1.298,0.957-1.751,1.389
					c-0.437,0.441-0.781,0.803-0.984,1.082C119.418,21.594,119.306,21.737,119.306,21.737z"/>
			</g>
			<g>
				<path fill="#A88E7D" d="M136.871,10.487c0,0-0.013-0.181-0.039-0.52c-0.044-0.336-0.038-0.835,0.053-1.496
					c0.149-0.626,0.338-1.443,0.909-2.203c0.536-0.771,1.344-1.515,2.367-2.06c1.017-0.554,2.22-0.954,3.532-1.123
					c0.658-0.072,1.34-0.124,2.055-0.073c0.732,0.071,1.323,0.161,2.019,0.271c1.365,0.263,2.783,0.515,4.157,0.888
					c1.397,0.328,2.789,0.742,4.187,1.143c1.398,0.399,2.762,0.901,4.116,1.355c1.362,0.434,2.659,0.981,3.922,1.486
					c1.262,0.51,2.487,0.984,3.608,1.533c1.133,0.52,2.193,1.034,3.17,1.511c0.987,0.453,1.852,0.955,2.623,1.386
					c0.767,0.438,1.436,0.819,1.986,1.133c1.095,0.639,1.709,1.02,1.709,1.02s-0.69-0.23-1.881-0.661
					c-1.197-0.414-2.857-1.107-4.894-1.824c-1.019-0.357-2.119-0.745-3.271-1.18c-1.147-0.451-2.401-0.809-3.663-1.267
					c-1.266-0.451-2.584-0.881-3.927-1.307c-1.343-0.428-2.695-0.897-4.075-1.271c-1.367-0.417-2.732-0.847-4.093-1.189
					c-1.364-0.378-2.675-0.719-3.952-1.021c-0.633-0.139-1.354-0.261-1.909-0.373c-0.579-0.09-1.175-0.094-1.751-0.078
					c-1.152,0.068-2.242,0.296-3.175,0.672c-0.931,0.382-1.703,0.907-2.266,1.504c-0.583,0.589-0.879,1.27-1.122,1.83
					c-0.173,0.573-0.308,1.056-0.327,1.398C136.895,10.308,136.871,10.487,136.871,10.487z"/>
			</g>
			<path opacity="0.5" fill="#473426" d="M241.046,110.791c0.649,0.077,1.302,0.117,1.926,0.117c1.63,0,4.57-0.287,5.938-2.211
				c1.141-1.604,1.113-4.159-0.081-7.592c-1.65-4.745-4.827-12.459-8.979-21.051c-2.186,0.768-3.87,1.496-4.354,1.73
				c-0.741,0.36-5.591-3.645-10.571-8.035c13.538,15.515,14.725,27.842,14.814,29.195L241.046,110.791z"/>
			<g>
				<linearGradient id="SVGID_6_" gradientUnits="userSpaceOnUse" x1="205.3721" y1="56.4414" x2="208.6504" y2="56.4414">
					<stop  offset="0.0167" style="stop-color:#8C715E"/>
					<stop  offset="1" style="stop-color:#7B553F"/>
				</linearGradient>
				<line fill="url(#SVGID_6_)" x1="208.65" y1="61.52" x2="205.372" y2="51.362"/>
				<polygon fill="#35261B" points="207.223,61.981 205.372,51.362 210.078,61.059 				"/>
			</g>
		</g>
		<g>
			<linearGradient id="SVGID_7_" gradientUnits="userSpaceOnUse" x1="138.3203" y1="101.6123" x2="138.3203" y2="199.7882">
				<stop  offset="0.1056" style="stop-color:#00A19A"/>
				<stop  offset="1" style="stop-color:#008DA0"/>
			</linearGradient>
			<path fill="url(#SVGID_7_)" stroke="#004C45" stroke-width="2" stroke-miterlimit="10" d="M7.746,127.112
				c0-33,32.668-28,54.834-30s129.208,5,130.437,6s20.051,2.5,28.39,3.5c0-6,0-12.5,0-12.5s32.339-12,42.339-7
				s4.141,46.962-6.5,64.352c-11.32,18.501-43.5,48.148-135,48.148C30.746,199.612,7.746,151.464,7.746,127.112z"/>
			<path opacity="0.4" fill="#004C45" d="M222.952,106.112c0.543,0.375,15.918-0.75,22.793,5.938s9.125,26.188-1.375,40.438
				s-10.877,5.948-10.877,5.948s15.877-41.573-12.498-51.823L222.952,106.112z"/>
			<g>
				<path fill="#004C45" d="M218.657,105.297c-0.021-0.002,0.271,0.037,0.719,0.133c0.451,0.102,1.104,0.261,1.906,0.526
					c1.602,0.528,3.834,1.485,6.179,3.158c1.163,0.844,2.338,1.872,3.46,3.069c1.121,1.201,2.132,2.609,3.053,4.13
					c0.89,1.541,1.651,3.213,2.256,4.966c0.299,0.876,0.545,1.778,0.787,2.679c0.18,0.917,0.437,1.822,0.552,2.75
					c0.298,1.847,0.474,3.708,0.52,5.539c0.077,1.832-0.003,3.632-0.095,5.368c-0.076,0.865-0.151,1.717-0.225,2.551
					c-0.076,0.832-0.215,1.64-0.315,2.429c-0.186,1.581-0.508,3.052-0.749,4.417c-0.244,1.365-0.578,2.594-0.815,3.693
					c-0.235,1.101-0.518,2.042-0.726,2.823c-0.425,1.558-0.668,2.448-0.668,2.448s0.213-0.898,0.585-2.47
					c0.182-0.786,0.431-1.734,0.628-2.842c0.2-1.105,0.491-2.341,0.688-3.709c0.194-1.368,0.465-2.842,0.597-4.419
					c0.072-0.787,0.184-1.593,0.231-2.421c0.045-0.827,0.09-1.673,0.136-2.533c0.033-1.72,0.052-3.499-0.085-5.296
					c-0.105-1.798-0.341-3.614-0.691-5.4c-0.142-0.9-0.422-1.769-0.624-2.65c-0.265-0.863-0.531-1.724-0.847-2.555
					c-0.638-1.663-1.418-3.23-2.308-4.658c-0.92-1.407-1.912-2.696-2.996-3.781c-1.086-1.081-2.208-1.998-3.312-2.744
					c-2.225-1.475-4.312-2.286-5.786-2.717c-0.739-0.217-1.327-0.338-1.723-0.414c-0.401-0.071-0.567-0.086-0.588-0.089
					L218.657,105.297z"/>
			</g>
			<g>
				<path fill="#004C45" d="M221.448,105.845c0,0,0.556-0.3,1.527-0.825c0.461-0.276,1.145-0.546,1.873-0.879
					c0.729-0.362,1.597-0.596,2.519-0.934c0.952-0.237,1.972-0.559,3.09-0.69c1.104-0.204,2.287-0.258,3.5-0.299
					c0.606,0.011,1.223,0.022,1.847,0.034c0.618,0.056,1.244,0.113,1.874,0.17c1.252,0.163,2.522,0.337,3.765,0.62
					c1.254,0.24,2.48,0.572,3.692,0.878c1.201,0.34,2.384,0.671,3.516,1.028c2.266,0.706,4.358,1.419,6.148,2.042
					c3.567,1.273,5.946,2.122,5.946,2.122s-2.417-0.73-6.042-1.825c-1.816-0.533-3.938-1.141-6.226-1.731
					c-1.142-0.299-2.331-0.569-3.535-0.847c-1.212-0.243-2.438-0.512-3.677-0.685c-1.232-0.217-2.476-0.324-3.692-0.422
					c-0.609-0.025-1.213-0.05-1.81-0.075c-0.595,0.019-1.181,0.037-1.758,0.055c-1.146,0.097-2.254,0.201-3.273,0.444
					c-1.035,0.17-1.968,0.522-2.838,0.782c-0.838,0.358-1.645,0.615-2.278,0.976c-0.653,0.343-1.216,0.581-1.691,0.896
					c-0.944,0.573-1.484,0.9-1.484,0.9L221.448,105.845z"/>
			</g>
			<g>
				<path fill="#004C45" d="M221.093,105.354c0,0,0.485-0.397,1.336-1.094c0.218-0.172,0.436-0.371,0.716-0.571
					c0.293-0.193,0.611-0.402,0.95-0.625c0.339-0.221,0.7-0.457,1.08-0.705c0.39-0.221,0.811-0.422,1.243-0.648
					c0.438-0.211,0.874-0.477,1.363-0.665c0.487-0.191,0.991-0.388,1.51-0.591c0.51-0.223,1.062-0.366,1.621-0.528
					c0.562-0.149,1.122-0.352,1.714-0.464c1.181-0.241,2.396-0.493,3.651-0.603c1.245-0.184,2.525-0.179,3.794-0.234
					c1.271,0.023,2.541,0.029,3.782,0.158c1.246,0.067,2.456,0.277,3.631,0.424c1.163,0.223,2.296,0.389,3.348,0.654
					c1.057,0.242,2.052,0.477,2.957,0.75c0.912,0.244,1.738,0.501,2.463,0.75c0.729,0.236,1.363,0.444,1.875,0.646
					c1.03,0.384,1.618,0.604,1.618,0.604s-0.599-0.19-1.646-0.522c-0.52-0.176-1.163-0.352-1.9-0.551
					c-0.734-0.212-1.568-0.426-2.487-0.624c-0.911-0.227-1.912-0.411-2.97-0.599c-1.054-0.21-2.185-0.318-3.342-0.481
					c-1.167-0.086-2.366-0.234-3.593-0.239c-1.224-0.066-2.466-0.009-3.705,0.029c-1.232,0.116-2.473,0.171-3.665,0.41
					c-1.205,0.165-2.358,0.467-3.473,0.751c-0.56,0.134-1.082,0.356-1.606,0.523c-0.522,0.179-1.037,0.339-1.507,0.574
					c-0.477,0.215-0.94,0.423-1.389,0.625c-0.45,0.198-0.843,0.47-1.242,0.686c-0.391,0.23-0.777,0.437-1.122,0.656
					c-0.327,0.238-0.638,0.463-0.929,0.675c-0.291,0.21-0.563,0.406-0.815,0.587c-0.25,0.196-0.473,0.419-0.677,0.598
					c-0.814,0.737-1.28,1.159-1.28,1.159L221.093,105.354z"/>
			</g>
			<g>
				<path fill="#15CCBE" d="M218.529,107.29c0,0,0.954,0.062,2.556,0.535c1.58,0.497,3.849,1.378,6.15,3.125
					c1.16,0.854,2.316,1.92,3.393,3.176c0.562,0.61,1.045,1.311,1.567,2.006c0.465,0.734,0.961,1.475,1.357,2.287
					c0.868,1.586,1.531,3.337,2.103,5.138c0.243,0.913,0.542,1.822,0.71,2.763l0.293,1.406c0.085,0.471,0.141,0.947,0.213,1.421
					l0.183,1.425l0.103,1.429c0.087,0.95,0.111,1.897,0.114,2.838c0.007,0.471,0.014,0.938,0.021,1.404
					c-0.016,0.465-0.032,0.928-0.049,1.388c-0.044,0.92-0.044,1.83-0.143,2.719c-0.081,0.89-0.16,1.765-0.237,2.621
					c-0.124,0.85-0.245,1.682-0.363,2.491c-0.205,1.623-0.564,3.129-0.81,4.532c-0.268,1.399-0.614,2.661-0.88,3.786
					c-0.257,1.128-0.562,2.091-0.781,2.891c-0.466,1.592-0.732,2.502-0.732,2.502s0.197-0.927,0.543-2.549
					c0.172-0.812,0.418-1.786,0.607-2.925c0.194-1.137,0.463-2.409,0.689-3.809c0.193-1.403,0.496-2.91,0.641-4.526
					c0.088-0.806,0.178-1.634,0.27-2.479c0.062-0.848,0.124-1.713,0.188-2.594c0.088-0.88,0.077-1.777,0.109-2.684
					c0.011-0.454,0.021-0.91,0.032-1.368c-0.013-0.458-0.024-0.919-0.037-1.381c-0.015-0.925-0.05-1.855-0.146-2.785l-0.116-1.398
					l-0.193-1.391c-0.064-0.463-0.113-0.93-0.191-1.39l-0.27-1.373c-0.151-0.922-0.433-1.806-0.657-2.698
					c-0.535-1.756-1.157-3.462-1.979-5.004c-0.79-1.557-1.7-2.988-2.714-4.228c-0.997-1.253-2.081-2.328-3.179-3.199
					c-1.097-0.871-2.165-1.601-3.173-2.145c-1.004-0.548-1.922-0.952-2.695-1.24C219.473,107.44,218.529,107.29,218.529,107.29z"/>
			</g>
			<path opacity="0.4" fill="#004C45" d="M213.265,128.02c0.561-10.17-6.021-16.708-10.089-22.302
				c-6.685-0.725-9.634-1.184-10.595-1.702c-3.971-1-84.157-6.261-118.216-6.261c-5.162,0-9.097,0.119-11.696,0.354
				c-3.542,0.319-7.271,0.458-11.219,0.606c-1.635,0.061-3.274,0.124-4.907,0.197c-3.19,29.108-18.737,31.511-20.302,40.092
				c-2.8,15.353,9.437,11.767,13.91,24.433c2.173,6.156,2.665,11.843,3.174,17.011c17.489,10.624,42.877,18.165,78.92,18.165
				c23.379,0,57.553-2.205,86.716-12.779c0.271-10.302-1.651-22.271,4.303-26.221c6.784-4.5,14.705-8.774,14.88-16.757
				C228.337,134.074,226.797,131.375,213.265,128.02z"/>
		</g>
		<g>
			<g>
				<linearGradient id="SVGID_8_" gradientUnits="userSpaceOnUse" x1="29.606" y1="142.7686" x2="55.2827" y2="142.7686">
					<stop  offset="0.0167" style="stop-color:#8C715E"/>
					<stop  offset="1" style="stop-color:#7B553F"/>
				</linearGradient>
				<path fill="url(#SVGID_8_)" stroke="#35261B" stroke-width="3" stroke-miterlimit="10" d="M46.143,135.812
					c0,0-8.471-3.117-12.471-1c-4,2.116-9.819,17.496,9.339,16.616s10.161-8.761,10.161-8.761L46.143,135.812z"/>
				<path opacity="0.5" fill="#473426" d="M53.409,147.399c-0.117-0.906-0.273-1.831-0.464-2.766
					c-0.268-0.352-0.549-0.654-0.76-0.839l-6.85-6.677c-0.808-0.274-3.178-1.03-5.671-1.371c-0.892,4.479-1.634,9.686-1.293,14.021
					c1.044,0.142,2.104,0.195,3.103,0.195h0c0.472,0,0.961-0.011,1.469-0.034C50.322,149.591,52.665,148.231,53.409,147.399z"/>
			</g>
			<g>
				
					<linearGradient id="SVGID_9_" gradientUnits="userSpaceOnUse" x1="228.2061" y1="142.7686" x2="253.8828" y2="142.7686" gradientTransform="matrix(-1 0 0 1 450.1504 0)">
					<stop  offset="0.0167" style="stop-color:#8C715E"/>
					<stop  offset="1" style="stop-color:#7B553F"/>
				</linearGradient>
				<path fill="url(#SVGID_9_)" stroke="#35261B" stroke-width="3" stroke-miterlimit="10" d="M205.407,135.812
					c0,0,8.471-3.117,12.471-1c4,2.116,9.819,17.496-9.339,16.616s-10.161-8.761-10.161-8.761L205.407,135.812z"/>
				<path opacity="0.5" fill="#473426" d="M198.142,147.399c0.117-0.906,0.272-1.831,0.464-2.766
					c0.269-0.352,0.55-0.654,0.761-0.839l6.85-6.677c0.808-0.274,3.178-1.03,5.671-1.371c0.892,4.479,1.635,9.686,1.293,14.021
					c-1.045,0.142-2.104,0.195-3.103,0.195h-0.001c-0.472,0-0.961-0.011-1.469-0.034
					C201.229,149.591,198.886,148.231,198.142,147.399z"/>
			</g>
			<linearGradient id="SVGID_10_" gradientUnits="userSpaceOnUse" x1="44.5845" y1="147.2744" x2="206.5674" y2="147.2744">
				<stop  offset="0.0167" style="stop-color:#8C715E"/>
				<stop  offset="1" style="stop-color:#7B553F"/>
			</linearGradient>
			<path fill="url(#SVGID_10_)" stroke="#35261B" stroke-width="3" stroke-miterlimit="10" d="M206.567,145.773
				c0,52.019-36.261,94.188-80.991,94.188c-44.731,0-80.992-42.17-80.992-94.188c0-52.017,36.261-91.186,80.992-91.186
				C170.307,54.587,206.567,93.756,206.567,145.773z"/>
			<linearGradient id="SVGID_11_" gradientUnits="userSpaceOnUse" x1="127.7979" y1="88.1123" x2="127.7978" y2="220.2723">
				<stop  offset="0" style="stop-color:#231C18"/>
				<stop  offset="1" style="stop-color:#000000"/>
			</linearGradient>
			<path fill="url(#SVGID_11_)" d="M192.998,140.514c0.296-4.854-2.931-8.148-6.971-9.611c1.892-2.228,2.833-4.997,1.809-8.293
				c-1.153-3.708-4.543-5.813-8.195-6.799c2.868-3.986,3.281-8.969,0.138-13.772c-2.771-4.235-7.555-6.217-12.168-5.55
				c-0.341-5.379-5.874-9.466-11.656-8.646c-1.021-6.246-4.841-11.288-12.217-11.226c-3.162,0.027-6.074,2.115-7.309,4.946
				c-0.08,0.185-0.146,0.369-0.208,0.553c-2.762-1.709-5.807-2.525-9.993-1.223c-5.048,1.57-9.755,5.794-10.862,10.926
				c-4.095-1.042-8.318,0.374-11.657,3.087c-1.206-2.272-3.443-3.662-6.7-2.991c-3.395,0.699-4.899,3.549-5.273,6.66
				c-6.544-2.767-13.866,2.155-13.827,9.938c-8.771,1.014-15.065,12.999-10.107,19.086c-2.824,3.108-4.555,9.184-4.939,11.999
				c-0.49,3.592-0.616,8.146,1.964,11.049c0.563,0.634,1.183,1.095,1.838,1.419c-5.428,5.564-4.121,14.811,2.065,18.959
				c-8.891,7.365-3.506,26.028,8.588,24.732c0.288,4.825,1.625,8.443,6.715,11.051c3.562,1.825,6.637,1.068,8.807-1.203
				c2.001,2.168,4.635,3.406,7.87,2.189c0.89-0.335,1.669-0.815,2.354-1.399c0.759,2.315,2.043,4.421,4.058,6.036
				c3.632,2.91,8.473,3.368,12.859,2.166c4.252-1.166,8.106-4.301,9.763-8.426c6.242,4.022,15.57,2.898,17.675-4.171
				c4.333,1.221,8.803-3.362,9.532-8.664c7.555,2.611,16.225-3.8,17.531-10.903c4.198,0.502,8.703-1.599,11.297-5.309
				c3.956-5.657,1.728-10.679-2.573-14.131c2.726-1.55,4.857-4.102,5.951-7.216c0.956-2.723-0.116-5.091-1.848-7.16
				C190.453,147.417,192.737,144.779,192.998,140.514z"/>
			<g>
				<path fill="#493B34" d="M77.907,112.561c-0.039-7.784,7.283-12.706,13.827-9.938c0.375-3.111,1.878-5.961,5.273-6.66
					c3.257-0.671,5.494,0.719,6.7,2.991c3.339-2.713,7.562-4.129,11.657-3.087c1.107-5.132,5.814-9.356,10.862-10.926
					c4.186-1.302,7.231-0.486,9.993,1.223c0.062-0.184,0.128-0.368,0.208-0.553c1.235-2.831,4.147-4.919,7.309-4.946
					c7.376-0.062,11.195,4.98,12.217,11.226c5.782-0.82,11.315,3.268,11.656,8.646c4.613-0.667,9.397,1.314,12.168,5.55
					c1.058,1.616,1.703,3.251,1.998,4.863c0.539-2.85-0.037-5.916-1.998-8.911c-2.771-4.235-7.555-6.217-12.168-5.55
					c-0.341-5.379-5.874-9.466-11.656-8.646c-1.021-6.246-4.841-11.288-12.217-11.226c-3.162,0.027-6.074,2.115-7.309,4.946
					c-0.08,0.185-0.146,0.369-0.208,0.553c-2.762-1.709-5.807-2.525-9.993-1.223c-5.048,1.57-9.755,5.794-10.862,10.926
					c-4.095-1.042-8.318,0.374-11.657,3.087c-1.206-2.272-3.443-3.662-6.7-2.991c-3.395,0.699-4.899,3.549-5.273,6.66
					c-6.544-2.767-13.866,2.155-13.827,9.938c-7.376,0.853-12.999,9.464-11.652,15.802
					C67.263,118.854,72.025,113.241,77.907,112.561z"/>
			</g>
			<g>
				<circle fill="none" stroke="#35261B" stroke-width="0.5" stroke-miterlimit="10" cx="133.921" cy="217.199" r="1.582"/>
				<circle fill="none" stroke="#35261B" stroke-width="0.5" stroke-miterlimit="10" cx="123.222" cy="218.781" r="1.582"/>
				<circle fill="none" stroke="#35261B" stroke-width="0.5" stroke-miterlimit="10" cx="192.424" cy="165.694" r="1.582"/>
				<circle fill="none" stroke="#35261B" stroke-width="0.5" stroke-miterlimit="10" cx="166.245" cy="219.571" r="2.373"/>
				<circle fill="none" stroke="#35261B" stroke-width="0.5" stroke-miterlimit="10" cx="111.262" cy="216.561" r="0.944"/>
				<circle fill="none" stroke="#35261B" stroke-width="0.5" stroke-miterlimit="10" cx="101.584" cy="214.902" r="1.658"/>
				<circle fill="none" stroke="#35261B" stroke-width="0.5" stroke-miterlimit="10" cx="94.674" cy="207.839" r="1.187"/>
				<circle fill="none" stroke="#35261B" stroke-width="0.5" stroke-miterlimit="10" cx="88.082" cy="213.112" r="1.714"/>
				<circle fill="none" stroke="#35261B" stroke-width="0.5" stroke-miterlimit="10" cx="103.071" cy="225.277" r="1.488"/>
				<circle fill="none" stroke="#35261B" stroke-width="0.5" stroke-miterlimit="10" cx="88.875" cy="221.285" r="0.922"/>
				<circle fill="none" stroke="#35261B" stroke-width="0.5" stroke-miterlimit="10" cx="73.026" cy="203.224" r="2.109"/>
				<circle fill="none" stroke="#35261B" stroke-width="0.5" stroke-miterlimit="10" cx="183.077" cy="201.115" r="2.109"/>
				<circle fill="none" stroke="#35261B" stroke-width="0.5" stroke-miterlimit="10" cx="180.968" cy="188.46" r="2.109"/>
				<circle fill="none" stroke="#35261B" stroke-width="0.5" stroke-miterlimit="10" cx="51.58" cy="159.613" r="1.177"/>
				<circle fill="none" stroke="#35261B" stroke-width="0.5" stroke-miterlimit="10" cx="145.56" cy="210.211" r="1.186"/>
				<circle fill="none" stroke="#35261B" stroke-width="0.5" stroke-miterlimit="10" cx="57.524" cy="134.074" r="1.252"/>
				<circle fill="none" stroke="#35261B" stroke-width="0.5" stroke-miterlimit="10" cx="156.633" cy="214.562" r="1.451"/>
				<circle fill="none" stroke="#35261B" stroke-width="0.5" stroke-miterlimit="10" cx="159.828" cy="205.433" r="1.153"/>
				<circle fill="none" stroke="#35261B" stroke-width="0.5" stroke-miterlimit="10" cx="169.155" cy="199.533" r="1.582"/>
				<circle fill="none" stroke="#35261B" stroke-width="0.5" stroke-miterlimit="10" cx="145.955" cy="219.571" r="0.791"/>
				<circle fill="none" stroke="#35261B" stroke-width="0.5" stroke-miterlimit="10" cx="57.526" cy="179.612" r="0.932"/>
				<circle fill="none" stroke="#35261B" stroke-width="0.5" stroke-miterlimit="10" cx="193.017" cy="181.137" r="0.593"/>
				<circle fill="none" stroke="#35261B" stroke-width="0.5" stroke-miterlimit="10" cx="175.839" cy="209.025" r="0.593"/>
				<circle fill="none" stroke="#35261B" stroke-width="0.5" stroke-miterlimit="10" cx="196.322" cy="170.113" r="0.593"/>
				<circle fill="none" stroke="#35261B" stroke-width="0.5" stroke-miterlimit="10" cx="142.489" cy="233.62" r="2.373"/>
				<circle fill="none" stroke="#35261B" stroke-width="0.5" stroke-miterlimit="10" cx="121.001" cy="234.807" r="1.187"/>
				<circle fill="none" stroke="#35261B" stroke-width="0.5" stroke-miterlimit="10" cx="131.554" cy="223.79" r="0.932"/>
				<circle fill="none" stroke="#35261B" stroke-width="0.5" stroke-miterlimit="10" cx="201.745" cy="157.503" r="0.932"/>
				<circle fill="none" stroke="#35261B" stroke-width="0.5" stroke-miterlimit="10" cx="132.825" cy="234.213" r="0.593"/>
				<circle fill="none" stroke="#35261B" stroke-width="0.5" stroke-miterlimit="10" cx="194.005" cy="156.572" r="0.593"/>
				<circle fill="none" stroke="#35261B" stroke-width="0.5" stroke-miterlimit="10" cx="155.183" cy="224.534" r="0.593"/>
				<circle fill="none" stroke="#35261B" stroke-width="0.5" stroke-miterlimit="10" cx="63.162" cy="191.163" r="0.593"/>
				<circle fill="none" stroke="#35261B" stroke-width="0.5" stroke-miterlimit="10" cx="200.812" cy="128.613" r="0.593"/>
				<circle fill="none" stroke="#35261B" stroke-width="0.5" stroke-miterlimit="10" cx="48.246" cy="129.207" r="0.593"/>
				<circle fill="none" stroke="#35261B" stroke-width="0.5" stroke-miterlimit="10" cx="195.729" cy="128.613" r="0.593"/>
				<circle fill="none" stroke="#35261B" stroke-width="0.5" stroke-miterlimit="10" cx="116.72" cy="224.534" r="0.745"/>
			</g>
			<path fill="none" stroke="#231C18" stroke-width="7" stroke-linecap="round" stroke-miterlimit="10" d="M76.482,71.779
				c0,0,13.764-13.917,34.926-15.851"/>
			<path fill="none" stroke="#231C18" stroke-width="7" stroke-linecap="round" stroke-miterlimit="10" d="M171.04,71.779
				c0,0-13.764-13.917-34.926-15.851"/>
		</g>
	</g>
</g>
</svg>
