<?xml version="1.0" encoding="UTF-8" standalone="no"?>
<!-- Generator: Adobe Illustrator 18.0.0, SVG Export Plug-In . SVG Version: 6.00 Build 0) -->
<!DOCTYPE svg PUBLIC '-//W3C//DTD SVG 1.1//EN' 'http://www.w3.org/Graphics/SVG/1.1/DTD/svg11.dtd'>
<svg id="Layer_1" xmlns="http://www.w3.org/2000/svg" xml:space="preserve" version="1.1" xmlns:xlink="http://www.w3.org/1999/xlink" x="0px" y="0px" width="200px" height="200px" enable-background="new 0 0 200 200">
		<linearGradient id="SVGID_1_" y2="175.29" gradientUnits="userSpaceOnUse" x2="143.16" gradientTransform="matrix(1.2012 0 0 1.2012 .4805 -38.438)" y1="175.29" x1="20.989">
		<stop stop-color="#41342A" offset="0"/>
		<stop stop-color="#5F4431" offset=".195"/>
		<stop stop-color="#5A4230" offset=".425"/>
		<stop stop-color="#4B3B2E" offset=".575"/>
		<stop stop-color="#544132" offset=".835"/>
		<stop stop-color="#41342A" offset="1"/>
	</linearGradient>
	<path d="m168.5 178.6c0.1-2.3 2.3-3.2 3.9-2.8-0.1-4.1-0.8-8.6-2.7-12.2-6.5-12.4-12.6-0.3-26.3-0.3s-13.7 3.5-27.3 3.5c-13.7 0-13.7-5.9-27.3-5.9-13.7 0-13.7-0.8-27.3-0.8s-19.6-9.9-29.7-0.3c-9.2 8.6-5.3 28.6-5.3 28.7h141.7c0.1-3.2 0.1-6.6 0.3-9.9z" fill="url(#SVGID_1_)"/>
		<linearGradient id="SVGID_2_" y2="49.197" gradientUnits="userSpaceOnUse" x2="145.15" gradientTransform="matrix(1.2012 0 0 1.2012 .4805 -38.438)" y1="49.197" x1="18.506">
		<stop stop-color="#41342A" offset="0"/>
		<stop stop-color="#5F4431" offset=".054721"/>
		<stop stop-color="#5A4230" offset=".9143"/>
		<stop stop-color="#584231" offset=".9242"/>
		<stop stop-color="#544132" offset=".9273"/>
		<stop stop-color="#544132" offset=".9641"/>
		<stop stop-color="#544132" offset=".9789"/>
		<stop stop-color="#41342A" offset="1"/>
	</linearGradient>
	<path d="m172.9 17v-0.3c-0.1-0.3-0.2-0.6-0.2-0.9-0.5-0.4-0.8-0.9-0.9-1.7-0.8-5.2-2.6-10.8-2.8-16.3l-140.8-0.1v9.9c0 16.3-11.2 14.7-1.6 25.8 10.4 12.2 13 0.4 27.1 0.4s14.1-4.4 28.2-4.4 14.1 7.5 28.2 7.5 14.1 1 28.2 1 20.3 12.6 30.7 0.4c5.5-6.4 6.1-12 5.6-18.7-0.8-0.5-1.6-1.3-1.7-2.6z" fill="url(#SVGID_2_)"/>
	<path stroke="#3D2F26" stroke-width="4" stroke-miterlimit="10" d="m29.2 200.1c0-24.1-10.5-17.9 5.1-38.8 9.7-12.9 15.4 0.4 28.5 0.4s13.1 1 26.2 1 13.1 7.9 26.2 7.9 13.1-4.7 26.2-4.7 19.8-17 25.2 0.4c3.9 12.9 1.5 16.2 1.5 33.5" fill="none"/>
	<path stroke="#3D2F26" stroke-width="4" stroke-miterlimit="10" d="m29.7-1.7c0.5 8.7-1.5 17.7-4.5 26.7-2 8 5 15 12 15 5 0 9-3 14-4 12 0 22-6 34-3 19 4 37 6 56 6 7 1 13 4 20 5 2 0 6.9 5 8.9 4 16-9-1.4-34.9-0.2-50.2" fill="none"/>
		<linearGradient id="SVGID_3_" y2="176.95" gradientUnits="userSpaceOnUse" x2="82.846" gradientTransform="matrix(1.2012 0 0 1.2012 .4805 -38.438)" y1="49.477" x1="82.846">
		<stop stop-color="#41342A" offset="0"/>
		<stop stop-color="#5A4230" offset=".058794"/>
		<stop stop-color="#5F4431" offset=".9835"/>
		<stop stop-color="#544132" offset="1"/>
	</linearGradient>
	<path d="m178.8 26.6c-1.7-0.4-2.3-1.9-2.1-3.2-7.6-0.6-8.2-3.1-18.1-3.1-11.1 0-11.1 1.6-22.3 1.6-11.1 0-11.1-2.3-22.3-2.3-11.1 0-11.1 2.1-22.3 2.1s-11.1-0.3-22.3-0.3c-11.1 0-11.1 1.8-22.3 1.8s-11.2-1.2-22.4-1.2h-0.8c0.2 1.1 0 2.2-1 2.8-0.3 0.3-0.7 0.5-1.2 0.6-1.2 0.3-2.4 0.6-3.7 0.9-1.1 0.4-2.3 0.7-3.5 0.9-1.5 0.4-3.1 0.7-4.6 1-1.3 0.2-2.4 0.2-3.6 0.1-2.1 0.2-4.2 0.3-6.3 0.6v141.6c5-0.8 10 0.6 14.6 2.6 2.4-0.4 5.1-0.5 10.1-0.5 11.1 0 11.1 0.9 22.3 0.9s11.1-1.6 22.3-1.6c11.1 0 11.1 1.8 22.3 1.8 11.1 0 11.1-2 22.3-2 11.1 0 11.1 2.5 22.3 2.5s11.1 0.7 22.3 0.7 11.1-1.7 22.3-1.7c3.5 0 5.9 0.1 7.9 0.3 2.4-0.9 4.5-2.6 7.1-3.1 1-0.2 2.1-0.3 3.2-0.3 0.3-0.1 0.6-0.3 0.9-0.4v-137c-7.3-0.5-13.7-4.3-21.1-6.1z" fill="url(#SVGID_3_)"/>
			<linearGradient id="SVGID_4_" y2="175.38" gradientUnits="userSpaceOnUse" x2="147.84" gradientTransform="matrix(1.2012 0 0 1.2012 .4805 -38.438)" y1="175.38" x1="17.472">
			<stop stop-color="#41342A" offset="0"/>
			<stop stop-color="#5F4431" offset=".04637"/>
			<stop stop-color="#5A4230" offset=".9274"/>
			<stop stop-color="#544132" offset=".956"/>
			<stop stop-color="#41342A" offset="1"/>
		</linearGradient>
		<path d="m171.8 142c-3.7 0-21.2 7.3-27.6 2.4-6.4-4.8-24.5-4.6-29.9-1.5s-66.5-6.2-75.1-9c-2.1-0.7-4.4-0.5-6.6 0.5-1.2 11.5-2 23.1-2 34.6 0.2 0.4 0.3 0.9 0.3 1.4s-0.1 0.9-0.3 1.4v3.6c0 1.5-0.8 2.4-1.8 2.7v9.4c0 0.8-0.3 1.4-0.7 1.9 1.1 7.1 2.1 14.4 2.6 21.4l28.9 0.2s23.6-5.9 30.6-7c6.9-1.1 31.4 3.1 38.3 6.6 5.6 2.8 30-5.2 38.9-10.4-2.4-8.1-0.1-16.4 1-24.7 0.2-1.4 1.1-2.1 2.1-2.2-0.6-1.7 0.3-4.1 2.6-4.1h4.6v-0.1c1.4-7.8-2.2-27.1-5.9-27.1z" fill="url(#SVGID_4_)"/>
		<path opacity=".3" enable-background="new " d="m29.3 200c0 0.2 5.4-0.2 5.4 0h15.1c-0.1-8.7 1.7-17.5 1.6-26.1h-1.3c-8.2 0-8.2-1.5-16.5-1.5h-2.1c-1.7 0.2-2.4 1.8-2.8 4.2 0.1 7.7 0.6 16.9 0.6 23.4z" fill="#271D15"/>
		<path opacity=".3" enable-background="new " d="m167.1 199.6c-0.1-0.3-0.1-0.7 0-1.1 0.7-4.4 0.3-8.9 1.1-13.3 0.4-2.2 1-4.2 2-6.2 0.3-0.4 0.6-0.8 1-1.2-0.3-0.6-0.4-1.3-0.1-2.2 0.5-1.2 1.2-2 2-2.5-7 0.5-8 2.8-16.9 2.8-7.9 0-9.7-0.7-15-0.9-1.1 7.8 2.1 11.8-0.5 24.6h26.4z" fill="#271D15"/>
		<path opacity=".3" enable-background="new " d="m45 178.6l-1.3-6.3-0.1-0.4c-5.1-0.4-6.8-1.4-14.7-1.4h-2.5c0.1 0.8-0.1 1.7-0.5 2.4 0.1 0.4 0.2 0.8 0.2 1.2 0 2.4 0 4.9-0.1 7.3 1.6 6 1.6 12.8 1.4 19.3 1.4 0 2.7-0.1 2.7 0h10.2l2.3-4.5 5.1-4.9 0.8-6.9-3.5-5.8z" fill="#261915"/>
		<g opacity=".3">
			<path d="m166.8 200c0.1-5 1.1-9.9 2-14.9 0.2-2.9 0.2-5.9 1.7-8.3 0.5-0.8 1.3-1.3 2.1-1.4 0-0.9 0-1.6 0.2-2.3h-0.9c-6.5 0-8 1.7-12.1 2.5l-1 4.4-2.8 5.5 2.5 7.4-4.1 7.2h12.4z" fill="#261915"/>
		</g>
		<path opacity=".3" enable-background="new " d="m189.4 172c3.5-0.8 7-1.7 10.6-2.4l-0.1-33.3c-4.9-0.2-9.9-1.6-11.3-1.9-5.3-0.9-15.6 6-21 6.6-10.7 1.2-7.9 4.8-15.5 11.1-5.7 4.8-10.4 10.7-12.9 17.3-0.7 1.8-1.2 3.7-1.6 5.6 6.2 0.2 8.2 0.6 17.7 0.6 12 0 12-1.8 24.1-1.8 3.4 0 5.8 0.1 7.9 0.2 0.2-0.9 0.9-1.7 2.1-2z" fill="#271D15"/>
		<path opacity=".3" enable-background="new " d="m189.4 173.1c2.7-3.1 6.6-3.8 10.7-3.8v-11.4c-2.4-0.2-6.7-1-6.9-1-0.3-0.1-3.8-2.5-3.8-2.5l-2.9 2.3-4.3 1-2.2-1s-9 0.7-9.5 0.8c-0.6 0.1-4.5 1.4-4.6 1.7s-4.9 3.7-5.5 3.7-2.5 2.5-2.5 2.5v3.3l-2.5 1.7 5 2.9-0.7 1.2c6.2-0.4 8.6-1.4 18.4-1.4 5.3 0 8.4 0.2 11.1 0.4-0.1-0.1 0-0.3 0.2-0.4z" fill="#261915"/>
		<path opacity=".3" enable-background="new " d="m54.5 160.2c-0.3-0.8-0.4-1.2-0.5-1.7-4.4-2.2-8.3-5.2-11.1-8.8-4-0.6-7.7-1.7-11.2-3.3-3.3 0.9-6.8 1.4-10.4 1.4-8 0-15.5-2.4-21.2-6.4v28.3c3.3 0.4 6.5 1 9.8 1.4 0.1 0 0.3 0 0.4 0.1 5.4-1.1 7.6-1.6 15.6-1.6-0.1-1.9 1.4-3.9 3.7-3.2 4.1 1.2 8.3 1.7 12.6 2.1 1.3 0.1 2.2 0.9 2.6 1.9 2 0.1 4.3 0.1 7.4 0.1h1.9c0.5-3.4 1.2-7.9 0.4-10.3z" fill="#271D15"/>
		<path opacity=".3" enable-background="new " d="m45.3 160.1l-4.4-2-2.9-0.5s-8.6-1.4-8.6-1.6-4.2-1.7-4.2-1.7l-7.5-0.9-6.6 1.4h-5.6l-4-0.9-2.6-6.1v21.1c3.2-0.4 6.3 1 9.4 2.2 6.8-1.2 8.6-1.8 18.7-1.8 9.7 0 12 0.5 18.3 0.8l3.3-3.7v-4.1l-3.3-2.2z" fill="#261915"/>
		<path stroke="#3D2F26" stroke-width="4" stroke-miterlimit="10" d="m200 170.4c-1.7-4.5-12.8 3-24.1 2.7" fill="none"/>
		<path d="m175.5 170.9c1.7-0.4 3.3 1.1 2.8 2.8-0.2 0.9-0.9 1.5-1.7 1.7-1.7 0.4-3.3-1.1-2.8-2.8 0.2-0.8 0.9-1.4 1.7-1.7z" fill="#3D2F26"/>
		<path stroke="#3D2F26" stroke-width="4" stroke-miterlimit="10" d="m24.5 173.6c-9-1.5-12.4-5.2-25.6-5.2" fill="none"/>
		<path d="m23.6 171.5c1.7-0.4 3.1 1.1 2.8 2.8-0.2 0.8-0.9 1.4-1.6 1.6-1.7 0.4-3.1-1.1-2.8-2.8 0.2-0.7 0.9-1.4 1.6-1.6z" fill="#3D2F26"/>
	<path d="m164.4 170.1" fill="#261915"/>
			<path opacity=".5" enable-background="new " d="m187 154.7c0.7-1.8-0.2-6.1-0.2-6.1s0-3.3-1.5-3.4c-1.5-0.1-5.1 0-5.9 0.5-0.8 0.4-4.6 2.6-2.2 6.9 1 1.5 2.7 2.2 3.8 2.7 1.1 0.6 5.1 1.7 6-0.6z" fill="#262626"/>
				<path stroke="#4E4D4D" stroke-width="2" stroke-miterlimit="10" d="m184.7 148.4c-0.1-2.7-2.5 0.2-2.6-0.9-0.1-1.2-3.8 0.1-3.7 2.3s2.1 3.9 1.8 4.4c-0.2 0.5 4.8 3.2 5.8 1.3 1-1.7-0.4-5-0.4-5l-0.9-2.1z" fill="#7F8080"/>
				<path d="m182.3 152.2c0.8 1.2 2.1 2.5 2.3 2s-0.7-3-0.7-3l-1-1.5-1.6 1.7 1 0.8z" fill="#A4A3A3"/>
			<path opacity=".5" enable-background="new " d="m167.6 141.2c9.2 4.6 6.4 7.5 3.4 11.9-0.5 1-1.2 2.3-2.1 3.7-3.5 6.9-9.1 12-16.9 15.4l-0.5 0.1-0.5-0.3c-14.2-11.2-13.6-12.7 0.5-23.7l15.5-7.2 0.6 0.1z" fill="#262626"/>
			<g stroke="#4E4D4D" stroke-miterlimit="10">
				<path stroke-width="2" d="m155.5 173.2c13.5-3 14.8-15 19.1-19.6s-3.9-8.7-3.9-8.7l-14.5 6.6s-13.7 10.8-11.2 13.1c2.6 2.3 10.5 8.6 10.5 8.6z" fill="#7F8080"/>
				<path d="m155.4 169.2l11.9-12.5s-1.4-3.5-1.8-5.1c-0.3-1.5-8.7 2.4-8.7 2.4l-6.4 9.9 5 5.3z" fill="#A4A3A3"/>
				<path d="m167.3 156.8l7.8-3.9s-9 19.6-19.6 20.3l-0.2-3.9 12-12.5z" fill="#A09C99"/>
				<path d="m165.1 151.4c1.2-2.3 2.9-4 4.2-6.1 0 0 1.8-0.5 3.4 0.8 1.5 1.3 4.1 4.4 3 5.9-1.1 1.6-8.4 4.8-8.4 4.8l-2.2-5.4z" fill="#696969"/>
			</g>
			<path opacity=".5" enable-background="new " d="m180.5 160.4c0.4-0.2 0.8-3.3 0.8-3.3h-7.5l-1.5 5.2s0.2 0.8 1.7 1.2 5.2 0 5.2 0l1.3-3.1z" fill="#262626"/>
			<path stroke="#4E4D4D" stroke-width="2" stroke-miterlimit="10" d="m174.2 162.3s4.6 2 4.9 1.1c0.3-0.8 1.1-4.7 1.1-4.7h-5.2l-0.8 3.6z" fill="#7F8080"/>
		<path d="m49.7 150.5s0.3-0.1 1-0.1c0.3-0.1 0.7-0.1 1.2-0.1 0.4 0 1-0.1 1.6-0.1 1.2 0 2.7 0 4.3 0.1 0.9 0 1.7 0.1 2.6 0.1h2.9c2.1 0 4.2 0 6.6 0.1 2.3 0 4.8 0.2 7.4 0.4l3.9 0.3c1.3 0.1 2.6 0.2 3.9 0.4 0.7 0.1 1.3 0.1 2 0.2l2 0.2c1.3 0.1 2.6 0.2 4 0.3 2.7 0.1 5.3 0.4 7.9 0.4 2.6 0.1 5.3 0.2 7.8 0.3s5 0.2 7.3 0.3c2.3 0 4.4 0.1 6.5 0 2-0.1 3.8-0.2 5.4-0.3 0.8-0.1 1.5-0.2 2.3-0.3 0.7-0.1 1.3-0.2 2-0.3 1.1-0.3 2.1-0.5 2.6-0.8 0.7-0.2 1-0.3 1-0.3s-0.3 0.2-0.9 0.5c-0.5 0.3-1.4 0.8-2.5 1.3-0.5 0.2-1.2 0.4-1.8 0.8-0.7 0.2-1.4 0.4-2.3 0.8-1.6 0.4-3.5 0.9-5.5 1.2-2.1 0.3-4.2 0.5-6.6 0.8-2.4 0.1-4.9 0.2-7.4 0.3-2.5 0-5.1 0.1-7.8 0.1s-5.4-0.2-8.2-0.3c-2.7-0.3-5.5-0.5-8.1-1-1.3-0.2-2.6-0.4-3.9-0.7-1.3-0.2-2.5-0.3-3.8-0.5-2.5-0.3-4.9-0.8-7.2-1s-4.6-0.5-6.5-0.8c-0.5-0.1-1-0.1-1.5-0.2s-1-0.1-1.4-0.2c-1-0.2-1.8-0.3-2.6-0.5-1.6-0.3-3-0.8-4.1-0.9-1.2-0.2-2.1-0.3-2.7-0.4-1.1-0.1-1.4-0.1-1.4-0.1z" fill="#60492F"/>
		<path d="m41 97.4s0.4 0 1.2-0.1 2-0.1 3.4-0.3 3.1-0.4 5.1-0.8c2-0.3 4.2-0.8 6.6-1.1 2.5-0.3 5.2-0.7 8.1-0.5h2.2c0.8 0.1 1.4 0.1 2.2 0.2 1.4 0.1 3 0.4 4.6 0.7 1.6 0.2 3.1 0.7 4.7 1s3.1 0.8 4.7 1.2c3.1 0.8 6.3 1.5 9.4 2.2 1.5 0.3 3.1 0.4 4.7 0.8 1.5 0.1 3.1 0.1 4.6 0.2 3-0.1 6.1-0.5 9-1.2 6-1.2 11.6-2.5 16.7-2.9 2.5-0.2 4.8-0.3 6.8-0.1 2.1 0.1 3.8 0.5 5.2 1 1.4 0.4 2.4 1.1 3.1 1.4 0.7 0.4 1 0.7 1 0.7s-0.3-0.1-1.1-0.4c-0.8-0.2-1.7-0.7-3.1-0.8-1.4-0.2-3.1-0.2-5-0.1-2 0.1-4.1 0.4-6.5 1-2.4 0.5-4.9 1.2-7.6 1.8-2.7 0.8-5.5 1.6-8.6 2.3-1.5 0.3-3 0.8-4.7 1-0.8 0.1-1.6 0.3-2.5 0.4-0.4 0.1-0.9 0.1-1.3 0.1l-1.2 0.1c-1.7 0-3.5-0.1-5.2-0.2-1.6-0.2-3.4-0.4-5.1-0.7-3.4-0.7-6.5-1.5-9.7-2.4-3.1-0.9-6.2-1.7-9-2.4-1.4-0.3-2.8-0.7-4.3-0.9-0.8-0.1-1.4-0.2-2.2-0.3l-0.5-0.1h-0.1s-0.1 0 0 0h-0.3c-0.3 0-0.7-0.1-1-0.1-0.7 0-1.3-0.1-2.1-0.1s-1.3 0-2 0c-1.3-0.1-2.6 0-3.8 0-2.4 0-4.6 0-6.6 0.1h-5.2c-1.4 0-2.6-0.2-3.4-0.2-0.8-0.4-1.2-0.5-1.2-0.5z" fill="#60492F"/>
	<g opacity=".5">
		<path d="m22 80.5s0.7 0.1 1.8 0.2c1.2 0.1 2.9 0.2 5.2 0.2 2.2 0 4.9-0.2 7.9-0.5s6.4-1.1 10.2-1.8c3.7-0.8 7.7-1.8 12-2.7 4.3-1 9-1.8 14.1-2.3 4.8-0.4 9.8-0.8 14.9-1.1 5.1-0.2 10.3-0.3 15.5-0.2s10.4 0.4 15.6 0.9c1.3 0.1 2.6 0.3 3.8 0.4 1.3 0.2 2.5 0.3 3.8 0.5 1.2 0.2 2.4 0.4 3.7 0.7 1.3 0.2 2.5 0.5 3.7 0.8 4.8 1.1 9.2 2.2 13.3 3 4.2 0.9 8.1 1.3 11.7 1.4h4c0.4 0 0.9-0.1 1.3-0.1 1.7-0.1 3.4-0.3 4.9-0.4s3-0.3 4.4-0.4 2.6-0.1 3.8-0.1c2.3 0 4.1 0.2 5.3 0.3s1.8 0.2 1.8 0.2-0.7 0.1-1.8 0.3c-1.2 0.2-2.9 0.5-5.1 1-0.5 0.1-1.1 0.3-1.7 0.4-0.5 0.2-1.2 0.3-1.8 0.5-1.3 0.3-2.7 0.8-4.2 1.3-3 0.9-6.4 2-10.5 2.4-4 0.5-8.5 0.4-13 0-4.6-0.4-9.2-1.3-13.9-2.1-1.2-0.2-2.3-0.3-3.5-0.5-1.1-0.2-2.4-0.3-3.6-0.4-2.3-0.2-4.8-0.5-7.3-0.7-1.2-0.1-2.5-0.1-3.7-0.2s-2.5-0.2-3.7-0.2c-2.5-0.1-5-0.2-7.5-0.2l-3.7-0.1h-11.3c-5 0.1-10 0.2-14.8 0.2-4.6 0.1-9.1 0.5-13.5 1-4.3 0.5-8.6 1-12.5 1.2-3.9 0.3-7.5 0.3-10.7 0.2-3.3-0.1-6-0.5-8.2-1s-3.9-1.1-5.1-1.5c-1-0.3-1.6-0.6-1.6-0.6z" fill="#60492F"/>
	</g>
			<linearGradient id="SVGID_5_" y2="9154.5" gradientUnits="userSpaceOnUse" x2="8567.8" gradientTransform="matrix(-1.2012 0 0 -1.2012 10314 11025)" y1="9154.5" x1="8441.5">
			<stop stop-color="#41342A" offset="0"/>
			<stop stop-color="#4B3B2E" offset="0"/>
			<stop stop-color="#5F4431" offset=".059965"/>
			<stop stop-color="#544132" offset=".062629"/>
			<stop stop-color="#5F4431" offset=".063327"/>
			<stop stop-color="#5A4230" offset=".956"/>
			<stop stop-color="#41342A" offset="1"/>
		</linearGradient>
		<path d="m165.4 10.1c1.4 9.4 5.6 19.7 8.6 26.4s-8.6 12.9-16.8 11.5c-8.2-1.4-67.5-6-72.7-4.5s-22.8 1.6-29-0.8c-6.2-2.3-23.2 1.3-26.8 1.3s-7.1-9.6-5.8-13.4 7.6-12 6.8-13.8 34.1-8.4 40.8-6.6 30.4 3.8 37.1 3.3c6.8-0.8 29.7-3.7 29.7-3.7l28.1 0.3z" fill="url(#SVGID_5_)"/>
		<path opacity=".3" enable-background="new " d="m192.9 32c-5.5-1.4-10.8-3.1-15.5-6.4-0.9-0.6-1.3-1.5-1.3-2.4-0.5-0.5-0.7-1.1-0.8-1.7-0.9-0.9-1.2-2.3-0.8-3.4 0-0.2 0-0.5-0.1-0.7-0.5-0.3-0.9-0.9-1-1.7-0.2-1.3-0.5-2.6-0.8-3.8-0.4-1.3-0.7-2.6-1-3.9-0.7-2.6-1.5-5.2-2-7.9h-21.7c0.4 2 0.6 3.8 0.6 6 3.2 5.2 5.1 11.2 5.1 17.7 0 0.7 0 1.3-0.1 2 3.1 4.8 4.8 10.5 5.1 16.4 5.8 5.8 14 9.9 23.4 7.3 6.5-1.9 15.5 3.2 18 2.8v-19.6c-2.4 0.3-4.9-0.2-7.1-0.7z" fill="#271D15"/>
		<path opacity=".3" enable-background="new " d="m61.9 20.6c1.9-7.8-7.4-6.6-6.7-14 0.4-3.1-4.8-3.6-4.8-6.5h-22.3c0.6 3.9 0 8.1-1.1 11.9 7.2 10.8 2.9 9.3-1.9 7.7 0 0.2 0 0.3-0.1 0.5 0 0.3-0.1 0.6-0.2 0.8-0.2 0.9-0.7 1.7-1.5 2.2-0.1 1.4-1.1 2.7-2.9 2.7-3.5 0-7-0.3-10.4 0.4-2.8 0.5-5.5 1-8.4 1-0.6 0-1.1-0.2-1.6-0.4v23.3h6.2c65.7 10.8 55.7-29.6 55.7-29.6z" fill="#271D15"/>
		<path opacity=".3" enable-background="new " d="m53 5.3l-0.8-2.4 4.2-3-27.5 0.1c0.2 2 0 4.1-0.3 6.2-0.6 5.4-1 10.8-2.8 15.9-0.5 1.3-1.5 1.9-2.6 2-0.5 0.4-1.1 0.6-1.7 0.8-3.4 1.9-6.7 3.8-10.7 4.3-3.7 0.4-7.2 0-10.8-0.5v18.6l5-5.9 6.1-2.3 5.9 4.6 3-2.7 9.8-1.8 7.6-2.4 1.3-4.3 7.6-1.4 1.9-7.1 1.9-3.5 5-4.4-4.6-6.1 2.5-4.7z" fill="#261915"/>
	<path opacity=".3" enable-background="new " d="m192.7 31.2c-3.6-0.6-6.9-1.8-10-3.4-0.5 0.5-1.2 0.9-2.1 0.9-2.3 0-3.2-2.2-2.8-3.9-1.1-0.4-2.2-2.3-2.5-3.1-0.8 0-1.3 0.1-1.3 0.1-1.5-3.5-1.9-6.3-2-10-1.3-3.8-2.4-7.6-3.1-11.5h-18c1.5 11.6 4.1 23.1 8.2 34.1 0.8 2.1-0.8 3.6-2.7 3.8l3.2 3.5c0.7 0 1.6-0.2 2.5-0.4 7.6-1.8 15.4-1.7 22.8 0.1l3.1-0.6s0.3 0.7 0.8 1.7c4.1 1.3 8 3.2 11.6 5.5v-15.4c-2.7-0.4-5.2-1-7.7-1.4z" fill="#261915"/>
	<path stroke="#3D2F26" stroke-width="4" stroke-miterlimit="10" d="m173.9 23.5c0.8 0 4.8 5.9 5.7 6.1 16.2 4.8 26.2 2.4 23.2 0.6" fill="none"/>
	<path stroke="#3D2F26" stroke-width="4" stroke-miterlimit="10" d="m0 28.9c14.4 0 24-3.8 23.7-3.7" fill="none"/>
	<path d="m174.9 24.2c1.7-0.4 3.4 1.1 2.9 2.9-0.2 0.9-0.9 1.5-1.7 1.7-1.7 0.4-3.4-1.1-2.9-2.9 0.2-0.7 1-1.4 1.7-1.7z" fill="#3D2F26"/>
			<path opacity=".5" enable-background="new " d="m62.4 19.2c-0.3-2-3.1-5.2-3.1-5.2s-1.5-2.9-2.9-2.3c-1.4 0.7-4.4 2.5-4.9 3.3s-2.7 4.5 1.4 7.1c1.5 0.9 3.5 0.5 4.7 0.5 1 0.1 5.2-0.9 4.8-3.4z" fill="#262626"/>
				<path stroke="#4E4D4D" stroke-width="2" stroke-miterlimit="10" d="m57.4 14.8c-1.4-2.3-2.1 1.4-2.7 0.4-0.7-1-3.3 1.8-2.2 3.7s3.6 2.5 3.7 2.9c0.1 0.5 5.6 0.4 5.6-1.6s-2.7-4.1-2.7-4.1l-1.7-1.3z" fill="#7F8080"/>
				<path d="m57.2 19.3c1.2 0.7 2.9 1.2 2.9 0.7-0.1-0.6-2.1-2.4-2.1-2.4l-1.6-0.9-0.6 2.3 1.4 0.3z" fill="#A4A3A3"/>
			<path opacity=".5" enable-background="new " d="m38.9 16.7c10.3-0.3 9.1 3.6 8.6 8.8 0 1.2 0 2.6-0.1 4.2 0.2 7.6-2.3 14.9-7.5 21.6l-0.4 0.2-0.5-0.1c-17.9-2.8-18-4.5-10.9-21l10.3-13.7h0.5z" fill="#262626"/>
			<g stroke="#4E4D4D" stroke-miterlimit="10">
				<path stroke-width="2" d="m43.6 50.5c10.4-9.1 5.8-20.2 7.4-26.3s-7.6-5.8-7.6-5.8l-9.7 12.8s-6.9 16-3.6 16.8c3.5 0.8 13.5 2.5 13.5 2.5z" fill="#7F8080"/>
				<path d="m41.5 47.1l4.6-16.8s-2.9-2.4-4-3.6-6.5 6.3-6.5 6.3l-0.9 11.7 6.8 2.4z" fill="#A4A3A3"/>
				<path d="m46.1 30.4l5.1-7.2s1.4 21.5-7.6 27.2l-2.1-3.4 4.6-16.6z" fill="#A09C99"/>
				<path d="m41.5 26.8c0-2.5 0.7-5 0.8-7.4 0 0 1.4-1.3 3.4-1 2 0.4 5.6 1.8 5.5 3.7-0.1 2-5.1 8.2-5.1 8.2l-4.6-3.5z" fill="#696969"/>
			</g>
			<path opacity=".5" enable-background="new " d="m59.3 27.2c0.2-0.3-0.9-3.3-0.9-3.3l-6.4 3.7 1.1 5.3s0.5 0.5 2.1 0.2c1.5-0.3 4.6-2.5 4.6-2.5l-0.5-3.4z" fill="#262626"/>
			<path stroke="#4E4D4D" stroke-width="2" stroke-miterlimit="10" d="m54.8 32s4.9-0.4 4.9-1.3c-0.1-0.9-1.3-4.6-1.3-4.6l-4.6 2.5 1 3.4z" fill="#7F8080"/>
<path d="m23.1 21.2c1.7-0.4 3.4 1.1 2.9 2.9-0.2 0.9-0.9 1.5-1.7 1.7-1.7 0.4-3.4-1.1-2.9-2.9 0.2-0.7 1-1.4 1.7-1.7z" fill="#3D2F26"/>
</svg>
