<?xml version="1.0" encoding="UTF-8" standalone="no"?>
<svg xmlns:rdf="http://www.w3.org/1999/02/22-rdf-syntax-ns#" xmlns="http://www.w3.org/2000/svg" xml:space="preserve" version="1.1" xmlns:cc="http://creativecommons.org/ns#" enable-background="new 0 0 200 200" x="0px" y="0px" width="200px" height="200px" viewBox="0 0 200 200" xmlns:dc="http://purl.org/dc/elements/1.1/">
    <path d="m-1.2712 168.43-0.2119-138.77c15.89 2.967 35.805-13.135 30.508-30.719l142.38 0.21154c-2.54 16.101 10.8 35.169 29.87 31.355v137.92c-15.466-2.1186-32.203 13.559-29.873 32.627l-143.01 0.21c2.33-10.17-2.331-33.9-29.661-32.84z" fill="#5c4430"/>
    <g opacity=".5">
        <path d="m22 80.5s0.7 0.1 1.8 0.2c1.2 0.1 2.9 0.2 5.2 0.2 2.2 0 4.9-0.2 7.9-0.5s6.4-1.1 10.2-1.8c3.7-0.8 7.7-1.8 12-2.7 4.3-1 9-1.8 14.1-2.3 4.8-0.4 9.8-0.8 14.9-1.1 5.1-0.2 10.3-0.3 15.5-0.2s10.4 0.4 15.6 0.9c1.3 0.1 2.6 0.3 3.8 0.4 1.3 0.2 2.5 0.3 3.8 0.5 1.2 0.2 2.4 0.4 3.7 0.7 1.3 0.2 2.5 0.5 3.7 0.8 4.8 1.1 9.2 2.2 13.3 3 4.2 0.9 8.1 1.3 11.7 1.4h4c0.4 0 0.9-0.1 1.3-0.1 1.7-0.1 3.4-0.3 4.9-0.4s3-0.3 4.4-0.4 2.6-0.1 3.8-0.1c2.3 0 4.1 0.2 5.3 0.3s1.8 0.2 1.8 0.2-0.7 0.1-1.8 0.3c-1.2 0.2-2.9 0.5-5.1 1-0.5 0.1-1.1 0.3-1.7 0.4-0.5 0.2-1.2 0.3-1.8 0.5-1.3 0.3-2.7 0.8-4.2 1.3-3 0.9-6.4 2-10.5 2.4-4 0.5-8.5 0.4-13 0-4.6-0.4-9.2-1.3-13.9-2.1-1.2-0.2-2.3-0.3-3.5-0.5-1.1-0.2-2.4-0.3-3.6-0.4-2.3-0.2-4.8-0.5-7.3-0.7-1.2-0.1-2.5-0.1-3.7-0.2s-2.5-0.2-3.7-0.2c-2.5-0.1-5-0.2-7.5-0.2l-3.7-0.1h-11.3c-5 0.1-10 0.2-14.8 0.2-4.6 0.1-9.1 0.5-13.5 1-4.3 0.5-8.6 1-12.5 1.2-3.9 0.3-7.5 0.3-10.7 0.2-3.3-0.1-6-0.5-8.2-1s-3.9-1.1-5.1-1.5c-1-0.3-1.6-0.6-1.6-0.6zm19 16.9s0.4 0 1.2-0.1 2-0.1 3.4-0.3 3.1-0.4 5.1-0.8c2-0.3 4.2-0.8 6.6-1.1 2.5-0.3 5.2-0.7 8.1-0.5h2.2c0.8 0.1 1.4 0.1 2.2 0.2 1.4 0.1 3 0.4 4.6 0.7 1.6 0.2 3.1 0.7 4.7 1s3.1 0.8 4.7 1.2c3.1 0.8 6.3 1.5 9.4 2.2 1.5 0.3 3.1 0.4 4.7 0.8 1.5 0.1 3.1 0.1 4.6 0.2 3-0.1 6.1-0.5 9-1.2 6-1.2 11.6-2.5 16.7-2.9 2.5-0.2 4.8-0.3 6.8-0.1 2.1 0.1 3.8 0.5 5.2 1 1.4 0.4 2.4 1.1 3.1 1.4 0.7 0.4 1 0.7 1 0.7s-0.3-0.1-1.1-0.4c-0.8-0.2-1.7-0.7-3.1-0.8-1.4-0.2-3.1-0.2-5-0.1-2 0.1-4.1 0.4-6.5 1-2.4 0.5-4.9 1.2-7.6 1.8-2.7 0.8-5.5 1.6-8.6 2.3-1.5 0.3-3 0.8-4.7 1-0.8 0.1-1.6 0.3-2.5 0.4-0.4 0.1-0.9 0.1-1.3 0.1l-1.2 0.1c-1.7 0-3.5-0.1-5.2-0.2-1.6-0.2-3.4-0.4-5.1-0.7-3.4-0.7-6.5-1.5-9.7-2.4-3.1-0.9-6.2-1.7-9-2.4-1.4-0.3-2.8-0.7-4.3-0.9-0.8-0.1-1.4-0.2-2.2-0.3l-0.5-0.1h-0.1s-0.1 0 0 0h-0.3c-0.3 0-0.7-0.1-1-0.1-0.7 0-1.3-0.1-2.1-0.1h-2c-1.3-0.1-2.6 0-3.8 0-2.4 0-4.6 0-6.6 0.1h-5.2c-1.4 0-2.6-0.2-3.4-0.2-0.8-0.4-1.2-0.5-1.2-0.5zm8.7 53.1s0.3-0.1 1-0.1c0.3-0.1 0.7-0.1 1.2-0.1 0.4 0 1-0.1 1.6-0.1 1.2 0 2.7 0 4.3 0.1 0.9 0 1.7 0.1 2.6 0.1h2.9c2.1 0 4.2 0 6.6 0.1 2.3 0 4.8 0.2 7.4 0.4l3.9 0.3c1.3 0.1 2.6 0.2 3.9 0.4 0.7 0.1 1.3 0.1 2 0.2l2 0.2c1.3 0.1 2.6 0.2 4 0.3 2.7 0.1 5.3 0.4 7.9 0.4 2.6 0.1 5.3 0.2 7.8 0.3s5 0.2 7.3 0.3c2.3 0 4.4 0.1 6.5 0 2-0.1 3.8-0.2 5.4-0.3 0.8-0.1 1.5-0.2 2.3-0.3 0.7-0.1 1.3-0.2 2-0.3 1.1-0.3 2.1-0.5 2.6-0.8 0.7-0.2 1-0.3 1-0.3s-0.3 0.2-0.9 0.5c-0.5 0.3-1.4 0.8-2.5 1.3-0.5 0.2-1.2 0.4-1.8 0.8-0.7 0.2-1.4 0.4-2.3 0.8-1.6 0.4-3.5 0.9-5.5 1.2-2.1 0.3-4.2 0.5-6.6 0.8-2.4 0.1-4.9 0.2-7.4 0.3-2.5 0-5.1 0.1-7.8 0.1s-5.4-0.2-8.2-0.3c-2.7-0.3-5.5-0.5-8.1-1-1.3-0.2-2.6-0.4-3.9-0.7-1.3-0.2-2.5-0.3-3.8-0.5-2.5-0.3-4.9-0.8-7.2-1s-4.6-0.5-6.5-0.8c-0.5-0.1-1-0.1-1.5-0.2s-1-0.1-1.4-0.2c-1-0.2-1.8-0.3-2.6-0.5-1.6-0.3-3-0.8-4.1-0.9-1.2-0.2-2.1-0.3-2.7-0.4-1.1-0.1-1.4-0.1-1.4-0.1z" fill="#60492f"/>
    </g>
    <path d="m53.002 168.36c-0.3-0.8-1.3738-7.4172-1.4738-7.9172-4.4-2.19-5.828-7.14-8.628-10.74-4-0.6-7.7-1.7-11.2-3.3-3.3 0.9-6.8 1.4-10.4 1.4-8 0-15.5-2.4-21.2-6.4v28.3c24.971 0.92069 26.201 4.9936 29.2 30.3 6.8017-0.0282 23.197 0.0749 23.197 0.0749-0.1-8.7-1.5209-13.38-1.6209-21.98" fill="#4d371e"/>
    <path d="m45.3 170.1 3.3-3.7v-4.1l-3.3-2.2-4.4-2-2.9-0.5s-8.6-1.4-8.6-1.6-4.2-1.7-4.2-1.7l-7.5-0.9-6.6 1.4h-5.6l-4-0.9-2.6-6.1v21.1c14.906 1.0487 33.144 8.9539 28.5 31.8 4.2858-0.0416 8.5595 0 12.9 0l2.3-4.5 3.2274-4.8251 0.8-6.9-1.627-5.88-1.3-6.3" fill="#432e08"/>
    <path stroke="#3d2f26" stroke-width="4" stroke-miterlimit="10" d="m29.968 200.04c1.262-22.77-15.321-32.54-31.068-31.64" fill="none"/>
    <path d="m53.002 30.659c-0.3 0.8-1.3738 7.4172-1.4738 7.9172-4.4 2.2-5.8281 7.1475-8.6281 10.748-4 0.6-7.7 1.7-11.2 3.3-3.3-0.9-6.8-1.4-10.4-1.4-8 0-15.5 2.4-21.2 6.4v-28.3c24.971-0.92069 26.201-4.9936 29.2-30.3 6.8017 0.0282 23.197-0.0749 23.197-0.0749-0.1 8.7-1.5209 13.38-1.6209 21.98" fill="#4d371e"/>
    <path d="m45.3 28.924 3.3 3.7v4.1l-3.3 2.2-4.4 2-2.9 0.5s-8.6 1.4-8.6 1.6-4.2 1.7-4.2 1.7l-7.5 0.9-6.6-1.4h-5.6l-4 0.9-2.6 6.1v-21.1c14.906-1.0487 33.144-8.9539 28.5-31.8 4.2858 0.0416 8.5595 0 12.9 0l2.3 4.5 3.2274 4.8251 0.8 6.9-1.627 5.875-1.3 6.3" fill="#432e08"/>
    <path stroke="#3d2f26" stroke-width="4" stroke-miterlimit="10" d="m29.968-1.0176c1.262 22.774-15.321 32.541-31.068 31.642" fill="none"/>
    <path d="m147.91 168.36c0.3-0.8 1.3738-7.4172 1.4738-7.9172 4.4-2.2 5.8281-7.1475 8.6281-10.748 4-0.6 7.7-1.7 11.2-3.3 3.3 0.9 6.8 1.4 10.4 1.4 8 0 15.5-2.4 21.2-6.4v28.3c-24.971 0.92069-26.201 4.9936-29.2 30.3-6.8017-0.0282-23.197 0.0749-23.197 0.0749 0.1-8.7 1.5209-13.38 1.6209-21.98" fill="#4d371e"/>
    <path d="m155.61 170.1-3.3-3.7v-4.1l3.3-2.2 4.4-2 2.9-0.5s8.6-1.4 8.6-1.6 4.2-1.7 4.2-1.7l7.5-0.9 6.6 1.4h5.6l4-0.9 2.6-6.1v21.1c-14.906 1.0487-33.144 8.9539-28.5 31.8-4.2858-0.0416-8.5595 0-12.9 0l-2.3-4.5-3.2274-4.8251-0.8-6.9 1.6274-5.8749 1.3-6.3" fill="#432e08"/>
    <path stroke="#3d2f26" stroke-width="4" stroke-miterlimit="10" d="m170.94 200.04c-1.262-22.773 15.321-32.54 31.068-31.642" fill="none"/>
    <path d="m147.91 30.659c0.3 0.8 1.3738 7.4172 1.4738 7.9172 4.4 2.2 5.8281 7.1475 8.6281 10.748 4 0.6 7.7 1.7 11.2 3.3 3.3-0.9 6.8-1.4 10.4-1.4 8 0 15.5 2.4 21.2 6.4v-28.3c-24.971-0.92069-26.201-4.9936-29.2-30.3-6.8017 0.0282-23.197-0.0749-23.197-0.0749 0.1 8.7 1.5209 13.38 1.6209 21.98" fill="#4d371e"/>
    <path d="m155.61 28.924-3.3 3.7v4.1l3.3 2.2 4.4 2 2.9 0.5s8.6 1.4 8.6 1.6 4.2 1.7 4.2 1.7l7.5 0.9 6.6-1.4h5.6l4 0.9 2.6 6.1v-21.1c-14.906-1.0487-33.144-8.9539-28.5-31.8-4.2858 0.0416-8.5595 0-12.9 0l-2.3 4.5-3.2274 4.8251-0.8 6.9 1.6274 5.8749 1.3 6.3" fill="#432e08"/>
    <path stroke="#3d2f26" stroke-width="4" stroke-miterlimit="10" d="m170.94-1.0176c-1.262 22.773 15.321 32.54 31.068 31.642" fill="none"/>
    <path d="m164.4 170.1" fill="#261915"/>
    <path enable-background="new " d="m187 154.7c0.7-1.8-0.2-6.1-0.2-6.1s0-3.3-1.5-3.4c-1.5-0.1-5.1 0-5.9 0.5-0.8 0.4-4.6 2.6-2.2 6.9 1 1.5 2.7 2.2 3.8 2.7 1.1 0.6 5.1 1.7 6-0.6z" fill="#3e3024"/>
    <path stroke="#4E4D4D" stroke-width="2" stroke-miterlimit="10" d="m184.7 148.4c-0.1-2.7-2.5 0.2-2.6-0.9-0.1-1.2-3.8 0.1-3.7 2.3s2.1 3.9 1.8 4.4c-0.2 0.5 4.8 3.2 5.8 1.3 1-1.7-0.4-5-0.4-5l-0.9-2.1z" fill="#7F8080"/>
    <path d="m182.3 152.2c0.8 1.2 2.1 2.5 2.3 2s-0.7-3-0.7-3l-1-1.5-1.6 1.7 1 0.8z" fill="#A4A3A3"/>
    <path enable-background="new " d="m167.6 141.2c9.2 4.6 6.4 7.5 3.4 11.9-0.5 1-1.2 2.3-2.1 3.7-3.5 6.9-9.1 12-16.9 15.4l-0.5 0.1-0.5-0.3c-14.2-11.2-13.6-12.7 0.5-23.7l15.5-7.2 0.6 0.1z" fill="#3e3024"/>
    <g stroke="#4E4D4D" stroke-miterlimit="10">
        <path stroke-width="2" d="m155.5 173.2c13.5-3 14.8-15 19.1-19.6s-3.9-8.7-3.9-8.7l-14.5 6.6s-13.7 10.8-11.2 13.1c2.6 2.3 10.5 8.6 10.5 8.6z" fill="#7F8080"/>
        <path d="m155.4 169.2l11.9-12.5s-1.4-3.5-1.8-5.1c-0.3-1.5-8.7 2.4-8.7 2.4l-6.4 9.9 5 5.3z" fill="#A4A3A3"/>
        <path d="m167.3 156.8l7.8-3.9s-9 19.6-19.6 20.3l-0.2-3.9 12-12.5z" fill="#A09C99"/>
        <path d="m165.1 151.4c1.2-2.3 2.9-4 4.2-6.1 0 0 1.8-0.5 3.4 0.8 1.5 1.3 4.1 4.4 3 5.9-1.1 1.6-8.4 4.8-8.4 4.8l-2.2-5.4z" fill="#696969"/>
    </g>
    <path enable-background="new " d="m180.5 160.4c0.4-0.2 0.8-3.3 0.8-3.3h-7.5l-1.5 5.2s0.2 0.8 1.7 1.2 5.2 0 5.2 0l1.3-3.1z" fill="#3e3024"/>
    <path stroke="#4E4D4D" stroke-width="2" stroke-miterlimit="10" d="m174.2 162.3s4.6 2 4.9 1.1c0.3-0.8 1.1-4.7 1.1-4.7h-5.2l-0.8 3.6z" fill="#7F8080"/>
    <path enable-background="new " d="m62.4 19.2c-0.3-2-3.1-5.2-3.1-5.2s-1.5-2.9-2.9-2.3c-1.4 0.7-4.4 2.5-4.9 3.3s-2.7 4.5 1.4 7.1c1.5 0.9 3.5 0.5 4.7 0.5 1 0.1 5.2-0.9 4.8-3.4z" fill="#3e3024"/>
    <path stroke="#4E4D4D" stroke-width="2" stroke-miterlimit="10" d="m57.4 14.8c-1.4-2.3-2.1 1.4-2.7 0.4-0.7-1-3.3 1.8-2.2 3.7s3.6 2.5 3.7 2.9c0.1 0.5 5.6 0.4 5.6-1.6s-2.7-4.1-2.7-4.1l-1.7-1.3z" fill="#7F8080"/>
    <path d="m57.2 19.3c1.2 0.7 2.9 1.2 2.9 0.7-0.1-0.6-2.1-2.4-2.1-2.4l-1.6-0.9-0.6 2.3 1.4 0.3z" fill="#A4A3A3"/>
    <path enable-background="new " d="m38.9 16.7c10.3-0.3 9.1 3.6 8.6 8.8 0 1.2 0 2.6-0.1 4.2 0.2 7.6-2.3 14.9-7.5 21.6l-0.4 0.2-0.5-0.1c-17.9-2.8-18-4.5-10.9-21l10.3-13.7h0.5z" fill="#3e3024"/>
    <g stroke="#4E4D4D" stroke-miterlimit="10">
        <path stroke-width="2" d="m43.6 50.5c10.4-9.1 5.8-20.2 7.4-26.3s-7.6-5.8-7.6-5.8l-9.7 12.8s-6.9 16-3.6 16.8c3.5 0.8 13.5 2.5 13.5 2.5z" fill="#7F8080"/>
        <path d="m41.5 47.1l4.6-16.8s-2.9-2.4-4-3.6-6.5 6.3-6.5 6.3l-0.9 11.7 6.8 2.4z" fill="#A4A3A3"/>
        <path d="m46.1 30.4l5.1-7.2s1.4 21.5-7.6 27.2l-2.1-3.4 4.6-16.6z" fill="#A09C99"/>
        <path d="m41.5 26.8c0-2.5 0.7-5 0.8-7.4 0 0 1.4-1.3 3.4-1 2 0.4 5.6 1.8 5.5 3.7-0.1 2-5.1 8.2-5.1 8.2l-4.6-3.5z" fill="#696969"/>
    </g>
    <path enable-background="new " d="m59.3 27.2c0.2-0.3-0.9-3.3-0.9-3.3l-6.4 3.7 1.1 5.3s0.5 0.5 2.1 0.2c1.5-0.3 4.6-2.5 4.6-2.5l-0.5-3.4z" fill="#3e3024"/>
    <path stroke="#4E4D4D" stroke-width="2" stroke-miterlimit="10" d="m54.8 32s4.9-0.4 4.9-1.3c-0.1-0.9-1.3-4.6-1.3-4.6l-4.6 2.5 1 3.4z" fill="#7F8080"/>
    <g stroke="#3f2e17" stroke-width="7px" fill="none">
        <path d="m30 0h140"/>
        <path d="m30 200h140"/>
        <path d="m0 29.5v140"/>
        <path d="m200 29.5v140"/>
    </g>
</svg>
