<?xml version="1.0" encoding="UTF-8" standalone="no"?>
<svg xmlns:rdf="http://www.w3.org/1999/02/22-rdf-syntax-ns#" xmlns="http://www.w3.org/2000/svg" xml:space="preserve" version="1.1" xmlns:cc="http://creativecommons.org/ns#" enable-background="new 0 0 200 200" x="0px" y="0px" width="200px" height="200px" viewBox="0 0 200 200" xmlns:dc="http://purl.org/dc/elements/1.1/">
    <path d="m169.2 39.4c0.8 4.2-5.5 7.4-5.5 15.3 0 10.2-0.4 10.2-0.4 20.4s7.1 10.2 7.1 20.4 0.5 10.2 0.5 20.4-7.3 10.2-7.3 20.5c0 10.2-0.2 10.2-0.2 20.4s1.3 10.2 1.3 20.5c0 10.2 4.6 10.2 4.6 20.4 0 10 0.2 10.2-0.1 19.8h-138.6c-0.1-9.5 2.5-9.7 2.5-19.7 0-10.2 0.3-10.2 0.3-20.5 0-10.2 4.1-10.2 4.1-20.5s0.8-10.2 0.8-20.5c0-10.2-3.8-10.2-3.8-20.5 0-10.2 3.1-10.2 3.1-20.5 0-10.2-2.2-10.2-2.2-20.5s-0.2-10.2-0.2-20.5c0-6.5-3.8-11.1-4.5-15.3 0 0-1.1-16.7 5.2-17.2s30.8-1.8 32.1-1.4c1.3 0.5 9 5.8 13.7 6s22.5-7.2 27.1-5.9c4.5 1.3 9.7 4.8 11 4.8s20.1-5.9 24-4.9c3.9 0.8 14.3 4.3 23 2.9 2.1 0.4 3.7 3.3 2.4 16.1z" fill="#604430"/>
    <path enable-background="new " d="m161.6 62.4c0.6-0.6 1.3-1.2 2.1-1.7 0-1.6 0.1-3.5 0.1-6 0-7.8 6.4-11.1 5.5-15.3 1.2-12.9-0.4-15.7-2.2-15.7-8.7 1.4-19.1-2-23-2.9-3.9-0.8-22.7 4.9-24 4.9s-6.5-3.4-11-4.8c-4.5-1.3-22.3 6.2-27.1 5.9-4.7-0.2-12.3-5.5-13.7-6-1.3-0.5-25.8 0.8-32.1 1.3s-5.3 17.3-5.3 17.3c0.7 4.2 4.5 8.8 4.5 15.3 0 7.2 0.1 9.4 0.2 13.6 0.7 0.1 1.3 0.1 2 0.1v6.7c0 4.9 0.5 7.3 1.1 10 0.6 2.6 1.1 5.3 1.1 10.6s-0.8 8-1.6 10.7c-0.8 2.5-1.5 4.9-1.5 9.8 0 4.8 0.9 7.2 1.8 9.7 1 2.6 2 5.4 2 10.8 0 5.2-0.2 7.8-0.4 10.3s-0.4 5-0.4 10.1c0 5.4-1.1 8.2-2.1 10.8-1 2.5-1.9 4.8-1.9 9.7 0 5.2-0.1 7.8-0.2 10.3s-0.1 5-0.1 10.2c0 5-4.4 15-4.4 19.7h25.2c-1.4-11.2 4.2-12.7 4-19.1-0.2-6.7-1.7-12.7-1.7-19.7 0.1-8.3 2.2-17.9 1.1-26.2-0.3-2.4-1.6-4.1-2-6.4-0.9-5 0.2-4.8 0.4-8.6 0.2-4.2 1.1-9.1 1.1-14.8-0.3-18.4 2.5-36-1.1-54.1-0.2-1.2-0.4-2.4-0.6-3.7 0.4-1.4 0.2-2.9 0.8-4.3 1.2-2.5 4-4.2 6.5-5.8 3.3-2.2 6.3-3.5 10.6-3.6 2.5-0.1 5.2 0.2 7.7-0.2 2-0.5 3.8-1.4 6-1.9 7.8-1.4 17.7-1.1 23.7 3.8 0.2 0.2 0.5 0.4 0.7 0.6h0.6c13.6 0 25.1 13.7 25.1 30 0 5.3-1.2 10.2-3.2 14.5 0.2 1.7 0.3 3.4 0.4 5 0.4 8.5-0.6 16.6-1.6 24.5 3.1 4.7 5 10.5 5.3 16.6 2.5 4.7 4 10.2 4 16.2 0 6.8-2 13.2-5.3 18.3 0.8 3 1.3 6.1 1.3 9.4 0 1.4-0.1 2.9-0.3 4.2 0.2 1.3 0.3 2.8 0.3 4.2 0 2.2-0.2 4.2-0.6 6.1 1.6 4 2.6 8.4 2.6 13.1v1.8h27c0.1-5-1.5-15.1-1.5-19.8 0-4.8-1.1-7.1-2.2-9.6-1.2-2.6-2.5-5.4-2.5-10.8 0-5-0.3-7.4-0.6-10.1-0.3-2.5-0.7-5.2-0.7-10.5 0-5.2 0-7.7 0.1-10.2 0-2.5 0.1-5.2 0.1-10.2 0-5.6 2.1-8.5 4-11.2 1.8-2.5 3.4-4.7 3.4-9.4 0-5-0.1-7.7-0.2-10.2s-0.2-5.2-0.2-10.3c0-4.7-1.5-6.8-3.3-9.4s-3.8-5.5-3.8-11.2c0-5.2 0.1-7.8 0.2-10.3-0.3-0.4-0.2-1.3-0.2-2.1z" fill="#4d371e"/>
    <path enable-background="new " d="m163.4 66c0.1-3 0.3-5.5 0.3-11.4 0-7.8 6.4-11.1 5.5-15.3 1.2-12.9-0.4-15.7-2.2-15.7-8.7 1.4-19.1-2-23-2.9s-22.7 4.9-24 4.9c-1.3 0-6.5-3.4-11-4.8-4.5-1.3-22.3 6.2-27.1 5.9-4.7-0.2-12.3-5.5-13.7-6-1.5-0.5-25.9 0.8-32.2 1.3s-5.2 17.4-5.2 17.4c0.7 4.2 4.5 8.8 4.5 15.3 0 7.7 0.1 9.6 0.2 14.4 0.7-0.2 1.3-0.5 2-0.7v6.8c0 4.9 0.5 7.3 1.1 10 0.6 2.6 1.1 5.3 1.1 10.6s-0.8 8-1.6 10.7c-0.8 2.5-1.5 4.9-1.5 9.8 0 4.8 0.9 7.2 1.8 9.7 1 2.6 2 5.4 2 10.8 0 5.2-0.2 7.8-0.4 10.3s-0.4 5-0.4 10.1c0 5.4-1.1 8.2-2.1 10.8-1 2.5-1.9 4.8-1.9 9.7 0 5.2-0.1 7.8-0.2 10.3s-0.1 5-0.1 10.2c0 5-4.6 15-4.6 19.7h17.7l2.6-0.4-2.2-2.6 0.2-2.9 1.4-3-0.4-2.8v-2.9l0.1-2.9-3.1-2.5 1.2-3-0.3-2.8-1.1-2.8 2-3-1.3-2.8-1.4-2.8 0.3-2.9 0.6-2.9-3.9-2.5 2.5-3-2-2.6 3.7-3.1-2.5-2.6-3.2-3 1.9-2.9 0.4-3 0.1-3 1.1-2.8 2.4-2.5 3.4-2.3-1.9-3.5 1.4-2.8 1.2-2.9-1.9-3 0.5-3.1-3.5-2.4 2.5-2.9 1.8-2.5-0.3-3-0.8-3 0.6-2.8-0.8-2.9 1.5-2.6 3.1-2.5-0.9-2.9-2-3 3.3-2.6-3-3 0.1-2.8 3.2-2.8-3.5-2.8 2.8-2.9 2.4-2.9-4.7-2.6 4.2-3-1.5-2.4 1.3-2.9-4.3-2.5 0.7-2.8 4.4-7.2 3.7-6s3.8 0.5 4.2 0 2.5-7.1 2.5-7.1 0.8-1.6 1.8 0c1 1.6 8.8 0 9.2-0.7s3.6-3.5 4.4-2.8c0.9 0.6 3.1 1.7 3.1 1.7l8.2-1.8s6.6-0.4 6.2 0 4.3 3.6 4.3 3.6h2.2c1.5-0.6 5.2 1.1 5.2 1.1s-1.5 3.7 0 3.7c1.2 0 6.8 0.6 8.9 0.5 0.1 0.1 0.2 0.2 0.3 0.5 1.5 1.9 1.2 6.2 2.4 6.2s9.1-1.6 9.1-1.6 0.2 2.6 0 3.2 4.3 7.3 5.1 7.1c0.9-0.2 4.4 3.7 4.4 3.7l0.4 0.1-0.1 0.4-0.5 3 1.1 1.8-0.8 3.4 3.1 1.2v3l1.8 2.3 2.3 2.4 2.1 2.5 0.9 2.8-2.1 3.1-1.5 3v2.8l0.6 2.8 0.1 2.8-0.6 2.8 0.4 2.8 1.9 2.8 0.2 2.9 2.9 2.9-3.7 2.8-1.3 2.8 2.4 2.9 2.2 2.9-0.7 2.8-1.7 2.8 2 2.9-5.2 2.6 0.5 2.9 0.4 2.9 3.6 3-2.3 2.8 1.4 2.8-0.6 2.8 0.9 2.8 0.1 2.8-3.7 2.8 2.3 2.8 0.2 2.8-1.7 2.8 3.2 2.8-2.5 2.8-1.4 2.8-1.3 2.8 4.8 2.6-1.3 2.8-1.5 2.8 3.5 2.6-2.8 2.9 3.3 2.8-2.8 2.9 0.4 2.8-3 2.6 4.3 3.1-3.3 2.5 1.6 3-2.6 1.9h21c0.1-5-1.9-15.1-1.9-19.8 0-4.8-1.1-7.1-2.2-9.6-1.2-2.6-2.5-5.4-2.5-10.9 0-5-0.3-7.4-0.6-10.1-0.3-2.5-0.7-5.2-0.7-10.5 0-5.2 0-7.7 0.1-10.2 0-2.5 0.1-5.2 0.1-10.2 0-5.6 2.1-8.5 4-11.2 1.8-2.5 3.4-4.7 3.4-9.4 0-5-0.1-7.7-0.2-10.2s-0.2-5.2-0.2-10.3c0-4.7-1.5-6.8-3.3-9.4s-3.8-5.5-3.8-11.2c0-4.3 0.1-6.8 0.2-9.1l2.1-0.4z" fill="#432e08"/>
    <path d="m78.2 137.7v-1.1s0.1-1.7 0.2-2.9 0.3-2.8 0.5-4.4c0.3-1.7 0.6-3.6 1-5.8 0.4-2 0.9-4.3 1.4-6.6s1-4.8 1.6-7.3c0.5-2.5 1-5.2 1.4-7.8 0.2-1.3 0.4-2.6 0.5-4l0.2-2c0-0.4 0.1-1.4 0-1.9v-0.9l-0.1-1c-0.1-0.6-0.2-1.2-0.3-1.9-0.2-1.3-0.5-2.5-0.9-3.8-0.7-2.6-1.4-5.3-1.8-8-0.2-1.4-0.4-2.8-0.3-4.2v-3.6c0-2.4-0.1-4.7-0.1-6.8-0.1-4.3 0.2-7.9 0.8-10.5 0.3-1.2 0.6-2.2 0.9-2.8l0.4-0.8s-0.1 0.4-0.2 1-0.2 1.6-0.3 2.8 0 2.6 0.1 4.3 0.4 3.6 0.6 5.6c0.3 2 0.6 4.3 0.8 6.8 0.1 0.6 0.1 1.2 0.1 1.9v1c0 0.4 0 0.6 0.1 0.8 0.1 1.1 0.2 2.3 0.5 3.5 0.5 2.4 1.3 4.8 2 7.6 0.4 1.3 0.8 2.8 1 4.2 0.3 1.6 0.5 2.9 0.5 4.7 0 1 0 1.3-0.1 2.3l-0.2 2.2c-0.2 1.4-0.4 2.9-0.7 4.3-0.5 2.8-1.2 5.5-1.8 8-0.7 2.5-1.4 4.9-2.1 7.2s-1.4 4.4-2 6.4c-0.6 1.9-1.2 3.7-1.7 5.4-0.5 1.6-0.9 3-1.2 4.2s-0.6 2.2-0.7 2.8c0 0.7-0.1 1.1-0.1 1.1zm39.2 64.6s-0.1-0.1-0.3-0.2-0.5-0.5-0.8-0.8c-0.6-0.8-1.5-2.2-2.2-4.2s-1.2-4.6-1.4-7.6-0.2-6.4 0.1-10 0.7-7.4 1.3-11.5 1.3-8.3 2-12.5c0.3-2.2 0.7-4.3 0.9-6.5s0.4-4.3 0.3-6.1c-0.1-1.1-0.2-2.3-0.2-3.4-0.1-1.1-0.2-2.3-0.3-3.4-0.2-2.3-0.5-4.6-0.7-6.8-0.6-4.7-1.1-9.2-1.7-13.8-0.5-4.6-1-9.2-1.3-13.7-0.6-9-0.2-17.8 1.3-25 0.7-3.6 1.7-6.7 2.8-9.5 1-2.8 2.2-4.9 3.1-6.6 1-1.8 1.8-3 2.5-3.8 0.6-0.8 0.9-1.3 0.9-1.3s-0.2 0.6-0.6 1.6-0.9 2.5-1.5 4.4c-0.3 1-0.6 2-0.9 3.2-0.1 0.6-0.3 1.2-0.5 1.8-0.1 0.6-0.3 1.3-0.4 1.9-0.5 2.8-1 5.8-1.2 9.2-0.5 6.7-0.2 14.7 0.9 23.2 0.5 4.3 1.1 8.8 1.7 13.3 0.6 4.6 1.2 9.2 1.7 14.1l0.6 7.2c0.1 1.2 0.1 2.4 0.2 3.6 0 1.2 0 2.4 0.1 3.6 0 2.8-0.4 5.3-0.7 7.6-0.4 2.3-0.9 4.6-1.3 6.7-1 4.3-2 8.4-2.9 12.3-0.9 3.8-1.8 7.4-2.4 10.9-1.3 6.7-1.7 12.5-1.1 16.5 0.3 1.9 0.8 3.5 1.3 4.3 0.2 0.5 0.4 0.8 0.6 1.1 0 0.1 0.1 0.2 0.1 0.2z" fill="#60492f"/>
    <path enable-background="new " d="m152.8 89.3c-1.3-1.4-5.3-2.4-5.3-2.4s-2.8-1.4-3.4 0.1c-0.7 1.6-1.8 5.2-1.7 6.2s0.6 5.8 5 5.2c1.6-0.4 2.8-1.9 3.7-2.6 0.9-0.8 3.4-4.7 1.7-6.5z" fill="#3e3024"/>
    <path stroke="#4D4D4D" stroke-width="2" stroke-miterlimit="10" d="m146.7 88.9c-2.3-1.1-0.7 2.6-1.7 2.2s-1.3 3.8 0.6 4.7c1.9 0.8 4-0.4 4.4 0s4.4-3.6 3.2-5.3c-1.2-1.8-4.3-1.7-4.3-1.7l-2.2 0.1z" fill="#808080"/>
    <path d="m149.1 92.9c1.3-0.2 2.8-1 2.4-1.4-0.4-0.5-2.8-0.7-2.8-0.7l-1.6 0.4 0.9 2.4 1.1-0.7z" fill="#A5A5A5"/>
    <path enable-background="new " d="m134.4 103.2c7.2-7.4 8.6-3.2 11.2 1.7 0.7 1 1.5 2.3 2.4 3.7 4.5 6.5 6.9 14.4 6.9 23.9l-0.1 0.6-0.4 0.2c-14.6 9.7-15.6 8.3-19.9-10.8l-0.4-19 0.3-0.3z" fill="#3e3024"/>
    <g stroke="#4D4D4D" stroke-miterlimit="10">
    <path stroke-width="2" d="m157.2 129.3c2.3-15-7.4-21.5-9.7-27.9s-8.8 0.2-8.8 0.2l0.4 17.8s4.2 18.6 7 16.9c2.8-1.6 11.1-7 11.1-7z" fill="#808080"/>
    <path d="m153.8 127.7l-6.3-17.5s-3.5 0-4.9-0.4c-1.5-0.2-1.1 10-1.1 10l6.1 10.7 6.2-2.8z" fill="#A5A5A5"/>
    <path d="m147.5 110.2l-0.4-9.7s13.3 17.5 10.1 28.7l-3.4-1.6-6.3-17.4z" fill="#A09D9A"/>
    <path d="m142 110.2c-1.5-2.2-2.4-4.8-3.7-6.8 0 0 0.2-2 1.9-3.1s5.1-2.4 6.1-0.6 1 10.6 1 10.6l-5.3-0.1z" fill="#686868"/>
    </g>
    <path enable-background="new " d="m155.3 98.3c0-0.5-2.5-2.2-2.5-2.2l-2.7 7.6 3.8 3.8s0.7 0.1 1.6-1.2 1.9-5.3 1.9-5.3l-2.1-2.7z" fill="#3e3024"/>
    <path stroke="#4D4D4D" stroke-width="2" stroke-miterlimit="10" d="m154.7 105.6s3.3-3.8 2.7-4.6c-0.6-0.7-3.5-3.1-3.5-3.1l-1.8 5.3 2.6 2.4z" fill="#808080"/>
    <path stroke="#3D2F26" stroke-width="4" stroke-miterlimit="10" d="m30.8 217.8c-0.1-9.5 2.3-9.7 2.3-19.7 0-10.2 0.3-10.2 0.3-20.5 0-10.2 4.1-10.2 4.1-20.5s0.8-10.2 0.8-20.5c0-10.2-3.8-10.2-3.8-20.5 0-10.2 3.1-10.2 3.1-20.5 0-10.2-2.2-10.2-2.2-20.5s-0.2-10.2-0.2-20.5c0-6.5-4.4-10-4.4-15.3 0 0-0.6-18 7.5-17.8s28.1-1.7 32.5 0c4.3 1.7 6.6 4.9 11.8 4.9s23.2-5.4 26.3-5.3c3 0.1 8.5 3.4 9.9 4.4 1.4 1.2 23.3-4.6 23.4-4.4 0.1 0.1 2.5-1 8.8 1.9s16.7 0.2 17.8 0.8c1.1 0.6 1.8 10.7 0.2 15.7 0 5.5-5.3 7.4-5.3 15.3 0 10.2-0.4 10.2-0.4 20.4s7.1 10.2 7.1 20.4 0.5 10.2 0.5 20.4-7.3 10.2-7.3 20.5c0 10.2-0.2 10.2-0.2 20.4s1.3 10.2 1.3 20.5c0 10.2 4.6 10.2 4.6 20.4 0 10 0 10.2-0.3 19.8" fill="none"/>
    <path stroke="#3f2e17" stroke-width="7px" d="m30 200h140" fill="none"/>
</svg>
