<?xml version="1.0" encoding="UTF-8" standalone="no"?>
<svg xmlns:rdf="http://www.w3.org/1999/02/22-rdf-syntax-ns#" xmlns="http://www.w3.org/2000/svg" xml:space="preserve" version="1.1" xmlns:cc="http://creativecommons.org/ns#" enable-background="new 0 0 200 200" x="0px" y="0px" width="200px" height="200px" viewBox="0 0 200 200" xmlns:dc="http://purl.org/dc/elements/1.1/"><path d="m172.9 86c0-12-0.5-12-0.5-23.9 0-12-7.2-12-7.2-23.9 0-12 0.4-12 0.4-23.9 0-9.1 6.5-12.9 5.6-17.7h-140c0.7 4.9 4.6 10.2 4.6 17.7 0 12 0.2 12 0.2 23.9 0 12 2.3 12 2.3 23.9 0 12-3.2 12-3.2 23.9s3.8 12 3.8 23.9c0 12-0.8 12-0.8 23.9 0 12-4.1 12-4.1 23.9s-0.4 12.1-0.4 24c0 11.6-2.6 12-2.6 23h140.3c0.3-11.1 0.1-11.4 0.1-23.1 0-12-4.7-12-4.7-23.9 0-12-1.3-12-1.3-23.9 0-12 0.2-12 0.2-23.9-0.1-12 7.3-12 7.3-23.9z" fill="#5c4430"/><path d="m59.6 182.4c-0.2-7.7-2-14.9-2-22.9 0.1-9.6 2.6-20.9 1.3-30.5-0.4-2.7-1.9-4.7-2.3-7.4-1.1-5.9 0.3-5.6 0.5-10.1 0.2-4.9 1.4-10.6 1.3-17.2-0.3-21.5 3-42-1.3-63.1-2.2-10.7-1.5-23.1-2.2-34.6h-27.5c0.3 1.6 1.1 3.4 2 5.4 1.6 3.5 3.4 7.5 3.4 12.4 0 6 0.1 9 0.1 11.9 0.1 3 0.1 6 0.1 12 0 5.7 0.6 8.6 1.3 11.6s1.4 6.1 1.4 12.4c0 6.2-1 9.4-1.9 12.5-0.4 1.4-0.8 2.7-1.2 4.4v1c0 1.1-0.1 2.2-0.2 3.4 0 1.5-0.1 3.1-0.3 4.6 0.2 1.6 0.3 3.1 0.4 4.6 0.4 1.9 0.9 3.4 1.5 4.9 1.2 3.1 2.4 6.2 2.4 12.5 0 6-0.2 9.1-0.5 12.1-0.1 1.7-0.3 3.6-0.4 6.1 0.5 3 0.3 6-0.2 9-0.2 2.7-0.8 4.9-1.4 6.6-0.3 1.4-0.7 2.7-1 4.1-0.2 1-0.6 1.6-1.1 2-0.3 2.4-0.5 4.7-0.6 7-0.2 8.2 1 16.2 0 24.4-0.1 0.5-0.2 0.9-0.5 1.2v1c-0.8 7-1.9 14-1.9 20.9h26c-1.6-13 5.1-14.9 4.8-22.2zm104.7-12.1c-1.2-3.1-2.5-6.4-2.5-12.6 0-5.9-0.3-8.7-0.6-11.7s-0.7-6.1-0.7-12.1 0-9 0.1-12c0-2.9 0.1-6 0.1-11.9 0-6.5 2.1-10 4-13 1.8-3 3.4-5.5 3.4-10.9 0-5.9-0.1-9-0.2-11.9-0.1-3-0.2-6-0.2-12 0-5.4-1.5-8-3.3-10.9-1.8-3-3.8-6.5-3.8-13 0-6 0.1-9.1 0.2-12s0.2-6 0.2-11.9c0-5.5 2.1-9.2 3.7-12.1 1.3-2.4 2.2-3.9 1.7-5.6h-21.2c-1.2 10.1-3.2 20.1-5 30.1-0.5 2.9-1 5.9-1.4 8.9-0.1 0.9-0.4 3.4-0.5 4.4-0.1 1.5-0.2 3.1-0.1 4.6 0 0.6 0.1 1.6 0.2 2.5 1.5 8.2 3.8 16.4 5.1 24.7 2.1 14.1 2.1 26.5-0.1 40.7-0.6 3.9-1.4 7.6-2.1 11.5-0.3 1.5-0.5 2.9-0.8 4.4 0 1.4-0.1 2.7 0 4.1 0.1 0.9 0.3 1.9 0.4 2.5 0.9 4.4 2 8.6 3 13 2.2 10.1 4.4 21.6 3.3 32.2-1 9.7-2 15.7-5.1 24.6h26c0.1-6-1.5-17.6-1.5-23.1-0.2-5.9-1.2-8.7-2.3-11.5z" fill="#4d371e"/><path d="m122 68.1v4.5c0 1.4 0 3.1-0.1 5.1s-0.1 4.2-0.1 6.6-0.1 5-0.2 7.7-0.1 5.7-0.2 8.7-0.2 6.1-0.3 9.4c-0.1 3.1-0.3 6.4-0.4 9.6-0.2 3.2-0.3 6.5-0.5 9.6-0.1 3.1-0.3 6.2-0.4 9.2-0.1 1.5-0.1 3-0.2 4.4v4.1c0.1 2.7 0.2 5.4 0.3 7.7 0.1 2.5 0.1 4.7-0.1 6.7-0.1 2-0.3 3.7-0.6 5.1-0.1 0.7-0.3 1.4-0.4 1.9s-0.3 1-0.4 1.4c-0.3 0.7-0.4 1.1-0.4 1.1s0.1-0.4 0.2-1.1 0.2-1.9 0.3-3.2c0-1.4 0-3.1-0.1-5s-0.4-4.1-0.7-6.5-0.7-5-0.9-7.7c-0.1-0.7-0.1-1.5-0.2-2.2 0-0.7-0.1-1.4-0.1-2.2v-4.5c0-3-0.1-6.2 0-9.4 0.1-3.1 0.3-6.4 0.4-9.6 0.2-3.2 0.3-6.5 0.5-9.6s0.4-6.2 0.6-9.2 0.5-5.9 0.7-8.7c0.3-2.7 0.6-5.4 0.9-7.7 0.1-1.2 0.3-2.4 0.4-3.5s0.3-2.1 0.5-3.1c0.3-2 0.6-3.6 0.8-5 0.4-3 0.7-4.6 0.7-4.6zm-36.6-59.3s0.4 0.4 1.1 1.2c0.7 0.7 1.7 2.1 2.8 3.9 1.1 1.9 2.3 4.1 3.4 7.1 0.6 1.5 1 3 1.6 4.7 0.4 1.7 0.9 3.5 1.3 5.4 0.8 3.7 1.4 8 1.8 12.4s0.7 9 1 13.7c0.2 2.4 0.3 4.7 0.4 7.2s0.2 5 0.2 7.6v7.6c-0.1 2.6-0.1 5.1-0.3 7.7-0.3 5.1-0.7 10.4-1.3 15.4-0.2 1.2-0.3 2.5-0.5 3.7s-0.4 2.5-0.6 3.7-0.4 2.5-0.6 3.6c-0.2 1.2-0.5 2.4-0.7 3.6-0.4 2.4-0.9 4.6-1.5 6.9-0.5 2.2-1.1 4.4-1.7 6.5-0.3 1-0.6 2.1-0.9 3.1s-0.6 2-0.9 3c-0.6 2-1.2 3.9-1.9 5.6s-1.2 3.5-1.9 5-1.3 3-1.9 4.4c-1.2 2.7-2.4 5-3.3 7-1 1.9-1.8 3.2-2.4 4.2l-0.9 1.5s0.2-0.6 0.5-1.7c0.4-1.1 0.8-2.7 1.5-4.7 0.6-2.1 1.3-4.6 2.1-7.5 0.4-1.5 0.8-3 1.2-4.6s0.8-3.4 1.2-5.1 0.8-3.6 1.2-5.6l0.6-3c0.2-1 0.4-2 0.6-3.1 0.2-1 0.4-2.1 0.6-3.1 0.2-1.1 0.3-2.1 0.5-3.2s0.4-2.2 0.5-3.4c0.2-1.1 0.3-2.2 0.5-3.4 0.2-1.1 0.3-2.2 0.5-3.5 0.1-1.1 0.3-2.4 0.4-3.5 0.3-2.4 0.5-4.7 0.7-7.2 0.5-4.9 0.8-9.9 1-14.7l0.3-7.5c0.1-2.5 0.1-5 0.2-7.4v-7.2c0-2.5 0-4.9-0.1-7.2-0.1-4.7 0-9.4-0.1-13.6s-0.2-8.2-0.6-12c-0.3-3.6-0.8-7-1.4-9.9s-1.4-5.4-2.1-7.4c-0.8-1.9-1.4-3.5-2-4.5 0.2-1.2-0.1-1.7-0.1-1.7z" fill="#60492f"/><path enable-background="new " d="m57.9 127c-1.3-1.5-5.3-2.5-5.3-2.5s-2.8-1.5-3.4 0.1c-0.7 1.6-1.8 5.4-1.6 6.5 0.1 1 0.6 6 5 5.4 1.6-0.4 2.8-2 3.7-2.7 0.8-0.9 3.2-4.8 1.6-6.8z" fill="#3e3024"/><path stroke="#4D4D4D" stroke-width="2" stroke-miterlimit="10" d="m51.7 126.7c-2.3-1.1-0.7 2.7-1.7 2.4-1-0.4-1.3 4 0.6 4.9 1.8 0.9 4-0.4 4.4 0s4.4-3.7 3.2-5.5c-1.2-1.9-4.3-1.7-4.3-1.7h-2.2z" fill="#808080"/><path d="m54.1 130.8c1.3-0.2 2.8-1 2.4-1.5s-2.8-0.7-2.8-0.7l-1.6 0.4 0.9 2.5 1.1-0.7z" fill="#A5A5A5"/><path enable-background="new " d="m60.3 136.4c0-0.5-2.5-2.2-2.5-2.2l-2.7 7.9 3.8 4s0.7 0.1 1.6-1.2c0.9-1.4 1.9-5.5 1.9-5.5l-2.1-3z" fill="#3e3024"/><path stroke="#4D4D4D" stroke-width="2" stroke-miterlimit="10" d="m59.7 144s3.3-4 2.7-4.7-3.5-3.2-3.5-3.2l-1.8 5.5 2.6 2.4z" fill="#808080"/><path d="m54.4 49.7-4.2-3.2 3.4-3.4 2.9-3.4-5.7-3.1 5.1-3.5-2-3.2 1.6-3.4-5.3-3 0.9-3.4 0.1-3.4 0.4-3.4 0.8-3.4 0.7-3.4-3.9-2.9-1.5-3.1-1.6-3.1 0.1-0.9h-18.8c0.3 1.6 1.1 3.4 2 5.4 1.6 3.5 3.4 7.5 3.4 12.4 0 6 0.1 9 0.1 11.9 0.1 3 0.1 6 0.1 12 0 5.7 0.6 8.6 1.3 11.6s1.4 6.1 1.4 12.4c0 6.2-1 9.4-2 12.5-0.9 3-1.8 5.7-1.8 11.4s1.1 8.4 2.2 11.4c1.2 3.1 2.4 6.2 2.4 12.5 0 6-0.3 9.1-0.5 12.1-0.2 2.9-0.5 5.9-0.5 11.7 0 6.2-1.3 9.5-2.6 12.6-1.2 2.9-2.3 5.6-2.3 11.2 0 6-0.1 9-0.2 12 0 1.2-0.1 2.4-0.1 3.9v0.1c0.1 2.2 0.1 4.4-0.1 6.4v1.6c0 0.6-0.1 1.4-0.2 2.2 0.1 1.4 0.1 2.7 0 4 0.3 5.6-0.7 11.2-1.9 16.7h18l3.2-0.5-2.7-3 0.3-3.4 1.8-3.5-0.4-3.2v-3.4l0.1-3.4-3.9-2.7 1.5-3.4-0.4-3.2-1.4-3.1 2.4-3.5-1.6-3.1-1.7-3.1 0.3-3.4 0.7-3.4-4.7-2.9 3-3.5-2.4-3.1 4.5-3.6-3-3.1-3.9-3.5 2.4-3.4 0.4-3.5 0.2-3.5 1.3-3.2 3-2.9 4.2-2.6-2.3-4 1.7-3.2 1.4-3.4-2.2-3.5 0.6-3.6-4.3-2.7 3-3.4 2.2-3-0.3-3.6-1-3.5 0.7-3.2-1-3.4 1.9-3.1 3.8-3-1.1-3.4-2.4-3.6 4-3.1-3.9-3.4 0.1-3.2 4.2-3.4zm106.3 60.2c0-6.5 2.1-10 4-13 1.8-3 3.4-5.5 3.4-10.9 0-5.9-0.1-9-0.2-11.9-0.1-3-0.2-6-0.2-12 0-5.4-1.5-8-3.3-10.9-1.8-3-3.8-6.5-3.8-13 0-6 0.1-9.1 0.2-12s0.2-6 0.2-11.9c0-5.5 2.1-9.2 3.7-12.1 1.3-2.4 2.2-3.9 1.7-5.6h-18.8l-0.1 0.4 4.7 3.5-1.6 3.5-3 3 2.7 4-1.5 3.1 0.5 3.7-5.3 1.7-1 3.1-0.9 3.2-0.5 3.5 1.1 2.1-0.8 3.9 3.1 1.4v3.5l1.8 2.6 2.3 2.7 2.1 3 0.9 3.2-2.1 3.6-1.5 3.4v3.2l0.6 3.2 0.1 3.2-0.6 3.2 0.4 3.2 1.9 3.2 0.2 3.2 2.9 3.4-3.7 3.2-1.3 3.2 2.4 3.4 2.2 3.4-0.7 3.2-1.7 3.2 2 3.4-5.2 3 0.5 3.4 0.4 3.4 3.6 3.5-2.3 3.2 1.4 3.2-0.6 3.2 0.9 3.2 0.1 3.2-3.7 3.1 2.3 3.2 0.2 3.2-1.7 3.2 3.2 3.2-2.5 3.2-1.4 3.2-1.3 3.2 4.8 3.1-1.3 3.2-1.5 3.2 3.5 3.1-2.8 3.4 3.3 3.2-2.8 3.2 0.4 3.2-3 3 4.3 3.7-3.3 2.9 1.6 3.5-2.6 2.2h20.9c0.1-6-1.9-17.6-1.9-23.1 0-5.6-1.1-8.4-2.2-11.2-1.2-3.1-2.5-6.4-2.5-12.6 0-5.9-0.3-8.7-0.6-11.7s-0.7-6.1-0.7-12.1 0-9 0.1-12c-0.2-1.7-0.1-4.7-0.1-10.6z" fill="#432e08"/><path stroke="#3d2f26" stroke-width="5" d="m168.1-3.4c0 6.4-5.3 8.6-5.3 17.7 0 12-0.4 12-0.4 23.9 0 12 7.1 12 7.1 23.9 0 12 0.5 12 0.5 23.9 0 12-7.3 12-7.3 23.9 0 12-0.2 12-0.2 23.9 0 12 1.3 12 1.3 23.9 0 12 4.6 12 4.6 23.9 0 11.6 0 12-0.3 23.1m-137.3-208.1c0 6.1 4.4 10.2 4.4 17.7 0 12-0.6 3-0.9 16.6-0.2 11.2 3.2 19.1 3.2 31.1s-3.1 12-3.1 23.9 3.8 12 3.8 23.9c0 12-0.8 12-0.8 23.9 0 12-4.1 12-4.1 23.9s-0.3 12-0.3 23.9c0 11.6-2.4 12-2.3 23" fill="none"/><path d="m138.6 16.2l0.9 2.4" fill="#A5A5A5"/><path enable-background="new " d="m146.5 28.9c-0.3-2.2-3.5-6.4-3.5-6.4s-1.7-3.5-3.3-2.9c-1.7 0.5-5.1 2.1-5.6 3.1-0.5 0.8-3.2 4.7 1.3 8.1 1.8 1.1 3.9 1.1 5.3 1.3 1.3 0.2 6-0.4 5.8-3.2z" fill="#3e3024"/><path stroke="#4D4D4D" stroke-width="2" stroke-miterlimit="10" d="m140.5 21c-0.5-2.8-6.6 2.9-4.4 6-1-0.4 0.3 2 2.3 2.8 1.9 0.8 4.1-0.4 4.5 0s4.5-3.6 3.3-5.3c-1.2-1.8-4.4-1.7-4.4-1.7l-1.3-1.8z" fill="#808080"/><path d="m143.9 25.5c1.3-0.2 0.3-0.9-0.1-1.4-0.3-0.4-3.5-1.5-4.1-1.6-0.1 0 1.1 0.9 1 0.9l-0.1-0.1c-0.4-0.4-0.9-0.7-1.5-0.9-0.4-0.1-0.7-0.3-0.5 0.2l0.5 1c0.6 1.4 2.2 2.3 3.7 2l1.1-0.1z" fill="#A5A5A5"/><path enable-background="new " d="m147.3 37.2c-1.3-1.4-5.5-2.4-5.5-2.4s-2.9-1.4-3.5 0.1c-0.7 1.6-1.9 5.2-1.6 6.2 0.1 1 0.6 5.8 5.1 5.2 1.6-0.4 2.9-1.9 3.8-2.6 0.9-0.9 3.4-4.6 1.7-6.5z" fill="#3e3024"/><path stroke="#4D4D4D" stroke-width="2" stroke-miterlimit="10" d="m140.8 36.7c-2.4-1.1-0.7 2.6-1.8 2.3-1-0.4-1.3 3.8 0.6 4.7 1.9 0.8 4.1-0.4 4.5 0s4.5-3.6 3.3-5.3c-1.2-1.8-4.4-1.7-4.4-1.7h-2.2z" fill="#808080"/><path d="m143.1 40.6c1.3-0.2 2.9-1 2.5-1.4-0.4-0.5-2.9-0.7-2.9-0.7l-1.6 0.4 0.9 2.4 1.1-0.7z" fill="#A5A5A5"/><path enable-background="new " d="m142.8 181.1c0-0.5-2.6-2.2-2.6-2.2l-2.8 7.6 3.9 3.8s0.7 0.1 1.6-1.2 2-5.3 2-5.3l-2.1-2.7z" fill="#3e3024"/><path stroke="#4D4D4D" stroke-width="2" stroke-miterlimit="10" d="m142.1 187.9s3.4-3.8 2.8-4.6c-0.6-0.7-3.6-3.1-3.6-3.1l-1.9 5.3 2.7 2.4z" fill="#808080"/><path stroke="#646464" stroke-width="1px" d="m30 0h140" fill="none"/><path stroke="#646464" stroke-width="1px" d="m30 200h140" fill="none"/></svg>
