<?xml version="1.0" encoding="UTF-8" standalone="no"?>
<svg xmlns:rdf="http://www.w3.org/1999/02/22-rdf-syntax-ns#" xmlns="http://www.w3.org/2000/svg" xml:space="preserve" version="1.1" xmlns:cc="http://creativecommons.org/ns#" enable-background="new 0 0 200 200" x="0px" y="0px" width="200px" height="200px" viewBox="0 0 200 200" xmlns:dc="http://purl.org/dc/elements/1.1/"><path d="m172.3 138.7c0-11.3 2.2-11.3 2.2-22.7 0-11.3-2-11.3-2-22.7s0.4-11.3 0.4-22.7c0-11.3-1.8-11.3-1.8-22.7s1.1-11.3 1.1-22.7-1.7-24.4-1.6-25.2h-140.9c-0.1 4.2 0.1 8.4-0.5 12.6-0.7 4.2-1.9 8.1-3.7 12 0 0.2-0.1 0.4-0.1 0.7-1.7 11.2-27.171 5.3271-27.171 5.3271l-1.4883 134.37s27.659 7.6983 27.659 19.098l2.7 9.7c2.1 3 3.6 6.4 5.6 9.5l139.7 0.1c0-8-0.2-9.2-0.2-19.1 0-11.3 1.6-11.3 1.6-22.7s-1.5-11.5-1.5-22.9z" fill="#5c4430"/><path d="m47.6 25.8c-0.4-9 0.1-18.1 2-26.7-0.1-0.2-0.1-0.5-0.1-0.7-4.2 0-8.5 0-12.7 0.3-0.8 0.1-1.4-0.1-1.8-0.4-0.7 0.2-1.4 0.4-2.2 0.6-6.5763 29.932-1.4872 33.233-34.469 32.741-3.4211 6.3439-1.1321 8.7944-1.0776 15.483 0.1 0.7 6.3401-0.63973 8.8639 0.27756 2.3419 0.85117 7.7902 0.02547 7.6902 0.12547 3.001 0.4 12.293 2.173 14.293 1.473 7.8-2.5 9.3-4 15-11.3 1.9-2.5 4.1-5.3 6.1-8.2 0-0.1 0-0.2-0.1-0.3-0.8-0.6-1.5-1.8-1.5-3.4zm120.9 175.3c0-7.9-0.2-9.1-0.2-18.9 0-11.2 1.6-11.2 1.6-22.4s-1.6-11.2-1.6-22.4 2.3-11.2 2.3-22.4-2.1-11.2-2.1-22.4 0.4-11.2 0.4-22.4-1.8-11.2-1.8-22.4 1.2-11.2 1.2-22.4-1.7-24.1-1.6-24.9h-27.3c2 11.6 9.8 23.2 9.8 35.2-0.2 22.3-11.2 41-11.2 62.2 0 18.7 4.4 37.7 4.2 57.7-0.2 15.4-2.7 30.3-3.1 45.1l29.4 0.4zm-120.7-29.9c-1.1-9.9-4.8-7.4-11-14.4-4-4.5-8.8-8.3-14-10.8-2.2 2.9-5.7237-1.7381-8.6237 0.16186-0.2 0.5-7.0737 1.3178-7.3737 1.6178-0.1 1.7-10.164-5.9398-10.164-3.3398 0 8.8-0.37712 14.296 0.022881 20.096 9.8552 1 26.712 12.55 28.039 17.76 1.1 3.2 1.4 6.9 1.1 10.7 0 0.2 0.1 0.3 0.1 0.5 0.4 2.6 1.6 5 2.7 7.5l23.2-0.1c0.1-4.5 2.2-9 2.6-10.3 0.9-4.9-5.9-14.5-6.6-19.4z" fill="#4d371e"/><path d="m38.4 192.6 1 4.6 6.1 3-15 1c-3.835-21.69-19.477-32.78-33.594-37.3l-2.273-6.8934 7.3955-1.6277 5.5483 0.0749 1.4008 1.0038 4.397-0.74262 4.6198-0.8947s10.519 7.3859 10.619 7.3859c0.2 0 6.6662 6.4981 6.6662 6.4981l4.4206 9.3992-1.3 7.9zm0-184.2l1-4.6 6.1-3-15-1c2.521 27.723-11.015 32.605-31.594 31.303l-2.273 6.8935 7.3955 1.6277 5.5483-0.07491 1.4008-1.0038 4.397 0.74262 4.6198 0.8947s8.5187-1.3859 8.6187-1.3859c0.2 0 6.6662-6.4981 6.6662-6.4981l4.42-9.399-1.3-7.9zm130.1 192.7c0-7.9-0.2-9.1-0.2-18.9 0-11.2 1.6-11.2 1.6-22.4s-1.6-11.2-1.6-22.4 2.3-11.2 2.3-22.4-2.1-11.2-2.1-22.4 0.4-11.2 0.4-22.4-1.8-11.2-1.8-22.4 1.2-11.2 1.2-22.4-1.6-24.1-1.6-24.9h-19l7.5 4.6-1.7 3.9 2.3 4-5.7 3.8 0.5 4 0.5 4 4 4-2.4 3.9 1.6 3.9-0.5 3.9 1 3.9 0.1 3.9-3.9 3.9 2.7 4.2 0.4 3.9-1.8 3.9 3.5 3.8-2.7 3.9-1.5 3.9-1.3 3.9 5.4 3.6-1.5 3.9-1.6 4 3.9 3.6-2.9 4.1 3.7 3.8-2.9 4 0.5 4-3.2 3.8 4.9 4.4-3.7 3.6 1.8 4.2-3.4 3.4-0.3 3.9 2.3 4.4-3.8 3.3 2.1 4.4-1.2 3.8 0.4 4-0.2 3.9-3.1 3.4 2.1 4.2-2.7 3.5-1.9 4.1 2.4 4.2-3.1 3.8 3.9 4.1-4.3 4 4.2 3.6-1.5 4.1 2.4 3.5-1 1.3 20.5-0.5z" fill="#432e08"/><path stroke="#3d2f26" stroke-width="5" stroke-miterlimit="10" d="m-0.94425 31.397c28.839 4.44 34.168-10.836 32.444-31.497m136.9 0.5c0 11.4 1.8 13.8 1.8 25.1 0 11.2-1.2 11.2-1.2 22.4s1.8 11.2 1.8 22.4-0.4 11.2-0.4 22.4 2.1 11.2 2.1 22.4-2.3 11.2-2.3 22.4 1.6 11.2 1.6 22.4-1.6 11.2-1.6 22.4-2.1 17.2-2.1 19m-138.1 1.9c0-2.3-4.2026-33.951-32.367-38.654" fill="none"/><path enable-background="new " d="m33.9 197.8c1.8 0.7 6.1-0.2 6.1-0.2s3.3 0 3.4-1.7 0-5.7-0.5-6.6c-0.5-0.8-2.7-5.1-7-2.4-1.6 1.1-2.2 3-2.7 4.2-0.6 1.2-1.7 5.8 0.7 6.7z" fill="#3e3024"/><path stroke="#4D4D4D" stroke-width="2" stroke-miterlimit="10" d="m40.2 195.3c2.7-0.1-0.2-2.8 1-2.9s-0.1-4.2-2.3-4.1-3.9 2.2-4.4 2.1c-0.5-0.2-3.2 5.3-1.3 6.4 1.7 1.1 5-0.5 5-0.5l2-1z" fill="#808080"/><path d="m36.4 192.6c-1.2 0.8-2.6 2.3-2 2.5 0.5 0.2 3.1-0.7 3.1-0.7l1.6-1.1-1.7-1.8-1 1.1z" fill="#A5A5A5"/><path enable-background="new " d="m47.6 176.1c-4.8 10.3-7.6 7-12 3.8-1-0.6-2.3-1.3-3.8-2.3-7-3.9-12.1-10.2-15.5-18.9l-0.1-0.6 0.4-0.5c11.4-15.9 12.9-15.2 24 0.6l7.2 17.3-0.2 0.6z" fill="#3e3024"/><g stroke="#4D4D4D" stroke-miterlimit="10"><path stroke-width="2" d="m15.3 162.7c3.1 15 15.2 16.5 19.8 21.3s8.8-4.4 8.8-4.4l-6.7-16.3s-10.9-15.4-13.2-12.5c-2.4 3-8.7 11.9-8.7 11.9z" fill="#808080"/><path d="m19.3 162.5l12.6 13.3s3.5-1.6 5.1-2.1c1.6-0.4-2.4-9.7-2.4-9.7l-10-7.2-5.3 5.7z" fill="#A5A5A5"/><path d="m31.9 175.9l3.8 8.7s-19.8-10.1-20.6-22l3.9-0.2 12.9 13.5z" fill="#A09D9A"/><path d="m37.3 173.3c2.3 1.3 4 3.3 6.1 4.7 0 0 0.5 2.1-0.7 3.8-1.3 1.7-4.4 4.6-6 3.4s-4.9-9.3-4.9-9.3l5.5-2.6z" fill="#686868"/></g><path enable-background="new " d="m28.2 190.6c0.2 0.5 3.3 0.8 3.3 0.8v-8.4l-5.3-1.7s-0.7 0.2-1.2 1.9 0 5.8 0 5.8l3.2 1.6z" fill="#3e3024"/><path stroke="#4D4D4D" stroke-width="2" stroke-miterlimit="10" d="m26.1 183.5s-2 5.1-1.2 5.5c2.4 0.8 6.1 1.5 4.8 1.2v-5.8l-3.6-0.9z" fill="#808080"/><g opacity=".5" fill="#60492f"><path opacity="1" d="m109.1 9.6s-0.1 0.7-0.2 2.1-0.2 3.4-0.2 5.9 0.2 5.6 0.6 9.1c0.5 3.5 1.1 7.4 1.8 11.6 0.9 4.2 1.8 8.9 2.8 13.8 0.5 2.5 0.9 5.1 1.3 7.8 0.2 1.3 0.4 2.8 0.5 4.1 0.1 0.7 0.1 1.3 0.2 2.1 0.1 0.6 0.1 1.5 0.2 1.9 0.4 2.4 0.7 5.1 1.3 7.8 0.5 2.7 1.2 5.3 2 8.1 1.5 5.5 2.9 11.2 4.4 17 1.3 5.8 2.6 11.9 2.7 18.2 0.1 1.6 0 3.2 0 4.7 0 0.8-0.1 1.6-0.2 2.4l-0.1 1.2-0.1 0.6-0.1 0.5v0.2c-0.1 0.4-0.1 0.6-0.2 1.1l-0.4 1.3c-0.2 0.8-0.5 1.6-0.7 2.3-0.5 1.5-1.1 2.9-1.7 4.2-2.7 5.3-5.6 9.6-8.1 13.6-2.6 4-4.4 7.9-5.1 11.5-0.2 0.8-0.4 1.8-0.4 2.7v1.3s0.1 1 0.1 1.5c0.1 1.9 0.4 3.9 0.5 5.6 0.1 1.8 0.4 3.5 0.5 5.1s0.1 3 0.1 4.4c0 2.7-0.1 4.7-0.4 6.1-0.1 1.3-0.2 2.1-0.2 2.1s-0.1-0.7-0.4-2.1c-0.1-0.7-0.2-1.6-0.5-2.5-0.2-1-0.4-2.1-0.6-3.3-0.5-2.4-1.3-5.3-2.3-8.9-0.5-1.7-1-3.6-1.5-5.6-0.1-0.5-0.2-1-0.4-1.6-0.1-0.6-0.2-1.2-0.2-1.8-0.1-1.2-0.1-2.5 0-3.8 0.2-2.5 0.7-5.1 1.6-7.5s1.8-4.9 3.1-7c2.3-4.6 4.9-9 6.8-13.6 0.5-1.1 0.9-2.3 1.2-3.4 0.2-0.6 0.4-1.1 0.5-1.7l0.1-0.7c0-0.2 0.1-0.7 0.1-1v-0.3 0.1-0.5l0.1-1c0-0.6 0.1-1.2 0.1-1.9 0-1.3 0-2.5-0.1-3.9-0.4-5.2-1.3-10.8-2.7-16.3-1.2-5.6-2.7-11.2-4-16.9-0.6-2.9-1.2-5.7-1.7-8.6s-0.9-5.8-1.1-8.9c-0.1-0.7-0.1-1.5-0.1-2.1 0-0.7 0-1.3-0.1-2.1-0.1-1.3-0.1-2.5-0.2-3.9-0.1-2.5-0.5-5.1-0.6-7.6-0.5-5-1-9.8-1.3-14.2-0.1-2.2-0.4-4.4-0.4-6.4v-5.8c0.1-3.6 0.5-6.9 1-9.5s1.1-4.5 1.6-5.8c0.2-0.6 0.5-1.1 0.5-1.5 0.6-0.1 0.6-0.3 0.6-0.3zm-31-0.5s0 0.6 0.1 1.8 0.1 2.9 0.4 5c0.1 2.2 0.5 4.7 0.7 7.8 0.4 3 0.7 6.3 1.1 10.1s0.6 7.8 0.5 12.1c0 1.1 0 2.2-0.1 3.3s-0.1 2.2-0.2 3.3-0.1 2.2-0.2 3.4c-0.1 1.1-0.4 2.3-0.5 3.5-0.2 2.3-0.6 4.7-1 7-0.4 2.4-0.7 4.7-1.2 7.2-0.9 4.7-1.6 9.6-2.2 14.4-0.4 2.4-0.5 4.9-0.7 7.2-0.1 2.4-0.2 4.7-0.2 7.2 0 1.2 0.1 2.4 0.1 3.5 0.1 1.1 0.1 2.3 0.2 3.4 0.2 2.3 0.5 4.6 0.7 6.9 1.2 9.1 2.6 17.7 2.8 25.1 0.4 3.8 0.2 7.2 0.2 10.2-0.1 1.6-0.2 2.9-0.4 4.2s-0.5 2.5-0.5 3.5c-0.4 1.1-0.5 1.9-0.7 2.8-0.1 0.4-0.2 0.7-0.4 1.1-0.1 0.4-0.2 0.6-0.4 0.8-0.5 1.1-0.6 1.6-0.6 1.6s0.1-0.6 0.5-1.7c0.1-0.2 0.1-0.6 0.2-1s0.2-0.7 0.2-1.1c0.1-0.8 0.2-1.8 0.5-2.8 0.1-1.1 0.1-2.2 0.2-3.5 0-1.3 0-2.7-0.1-4.1-0.2-2.9-0.5-6.3-1-9.9s-1.2-7.5-1.8-11.6c-0.7-4.1-1.6-8.5-2.3-13.1-0.4-2.3-0.6-4.6-1-7-0.1-1.2-0.2-2.4-0.4-3.8-0.1-1.2-0.1-2.4-0.2-3.8 0.1-2.5 0.1-5 0.2-7.5 0.2-2.5 0.5-5 0.6-7.5 0.6-5 1.6-9.8 2.4-14.6 0.5-2.4 0.9-4.7 1.3-7 0.5-2.3 0.9-4.6 1.2-6.8 0.2-1.1 0.4-2.2 0.5-3.3 0.2-1.1 0.2-2.2 0.5-3.3 0.1-1.1 0.2-2.2 0.4-3.3 0.1-1 0.1-2.1 0.2-3.2 0.2-4.1 0.2-8.1 0.2-11.8-0.1-3.6-0.1-7-0.2-10.1v-7.9s0.2-3.9 0.2-5c0.2-1.1 0.2-1.7 0.2-1.7zm-39.8 35.4s0 0.4 0.1 1.1c0.1 0.4 0.1 0.7 0.1 1.3 0 0.5 0.1 1.1 0.1 1.8 0 1.3 0 3-0.1 4.9 0 1-0.1 1.9-0.1 2.9v3.3c0 2.3 0 4.7-0.1 7.4 0 2.5-0.2 5.3-0.5 8.2-0.1 1.5-0.2 2.9-0.4 4.4-0.1 1.5-0.2 2.9-0.5 4.4-0.1 0.7-0.1 1.5-0.2 2.2l-0.2 2.2c-0.1 1.5-0.2 2.9-0.4 4.5-0.1 3-0.5 5.9-0.5 8.9-0.1 2.9-0.2 5.9-0.4 8.7-0.1 2.8-0.2 5.6-0.4 8.1-0.1 2.5-0.1 5-0.1 7.3 0.1 2.2 0.2 4.2 0.4 6.1 0.1 0.8 0.2 1.7 0.4 2.5 0.1 0.7 0.2 1.5 0.4 2.2 0.4 1.2 0.5 2.3 0.6 2.9 0.2 0.7 0.4 1.1 0.4 1.1l-0.5-1c-0.4-0.6-0.7-1.6-1.3-2.8-0.2-0.6-0.5-1.3-0.7-2.1-0.2-0.7-0.5-1.6-0.7-2.5-0.5-1.8-0.9-3.9-1.2-6.2-0.4-2.3-0.5-4.7-0.6-7.4s-0.2-5.5-0.2-8.2c0-2.8-0.1-5.7-0.1-8.7s0.2-6.1 0.4-9.2c0.4-3 0.5-6.2 1-9.1 0.2-1.5 0.5-2.9 0.6-4.4s0.4-2.8 0.5-4.2c0.4-2.8 0.9-5.5 1-8 0.2-2.5 0.5-5.1 0.7-7.3 0.1-0.6 0.1-1.1 0.2-1.7s0.1-1.1 0.2-1.6c0.2-1.1 0.4-2.1 0.5-2.9 0.4-1.8 0.7-3.4 0.9-4.6 0.2-1.3 0.5-2.3 0.5-3 0.2-1.1 0.2-1.5 0.2-1.5z" fill="#60492f"/></g><g stroke="#646464" stroke-width="1px" fill="none"><path d="m30 0h140"/><path d="m30 200h140"/><path d="m0 29.5v140"/></g></svg>
