<?xml version="1.0" encoding="UTF-8" standalone="no"?>
<svg xmlns:rdf="http://www.w3.org/1999/02/22-rdf-syntax-ns#" xmlns="http://www.w3.org/2000/svg" xml:space="preserve" version="1.1" xmlns:cc="http://creativecommons.org/ns#" enable-background="new 0 0 200 200" x="0px" y="0px" width="200px" height="200px" viewBox="0 0 200 200" xmlns:dc="http://purl.org/dc/elements/1.1/">
    <path d="m170.7 180.8c-1.6-3.4-1.4992-8.4-1.7992-14.3-0.7-14.8 2.4-36.3-0.6-57.6-5.2-37.5-12.6-40.5-18.2-40.5-3.5-5.8-11.5-15.5-19.3-22.3-8.8-5.6-17.9-13.3-28.6-13.3-10.8 0-10.8-2.1-21.4-2.1-10.8 0-10.8 2.3-21.4 2.3-10.8 0-10.8-1.6-21.4-1.6-10.8 0-10.8 1.6-21.4 1.6-9.4 0-10.5-0.2-18.1-0.2l-0.1 134.5h0.2c2.4 0.3 5.2 0.9 8 1.8 0.4-0.3 1-0.5 1.6-0.5 4.2 0 8.8 0.4 12.1 3.2 0.4 0.2 0.7 0.4 1 0.8 2.3 2.7 5.3 5.4 6.4 8.9 0.4 1.4 0.8 3.1 1 4.7 2.2 0.3 2.6322 16.278 2.6322 16.278l135.39-1.9237 3.5356-16.366c-0.1-1 0.54152-2.0881 0.44152-3.3881z" fill="#5c4430"/>
    <path d="m50.5 178.5c-3.2-3.7-5.7-8.2-6.7-13-4.2-3-7.6-7-9.9-11.6-2.3-0.5-4.5-1.2-6.6-2-3.7-0.5-7.3-1.7-10.6-3.4-2.8 0.8-5.7 1.3-8.5 1.3-3.4 0-6.5-0.6-9.5-1.5l-0.2 19.7c0.3-0.1 0.5-0.1 0.8-0.1 1.6 0 3.2 0.2 4.8 0.4 0.5-0.5 1.2-0.8 2.2-0.7 2.7 0.3 5.1 1.1 7.4 2.2 0.9 0.1 1.8 0.2 2.6 0.2s1.4 0.3 1.9 0.6c0.2 0.1 0.4 0.2 0.6 0.4 0.4 0.3 0.8 0.7 1.2 1 1-0.2 2 0.1 2.8 0.8 2.7 2.3 5.3 4.9 6.6 8.3 0.2 0.6 0.2 1.3-0.1 1.9 2.5 0.4 2.0373 20.292 2.0373 20.292 6.1 0 18.434 1.0712 21.534 0.87118-0.5-1.7-2.171-23.96-2.371-25.66zm120.7 9.6 0.3-0.6v-9.6l-1.6-5.9c1.6-10.9 2.7-49.3 0-58.6 0.6-10.7-7.2-36.9-18.7-43.2-18.1-26.7-35.7-32.8-54.2-37-18.5-4.3-27.7 3.8-43.6 0.8-15.9-3.1-29.1-0.1-38.2 0.3-9.2 0.3-16.8 2-16.8 2v15.9c0.3 0 0.6 0.1 0.9 0.2 1 0 1.7 0.4 2.2 1h0.2c0.6 0 1.2 0.2 1.6 0.4 0.4-0.3 0.9-0.4 1.6-0.4 1.7 0 2.7 1.2 2.9 2.5 3.8 0.3 7.7 0.9 11.4 1.2 1.1 0.1 1.8 0.6 2.3 1.3 10.3-2.4 21.2-4.5 25.5-3.9 9.2 1.1 40.3-3.9 46.3-3.1 6.1 0.9 11.2 1.3 11.4 2.8 0.2 1.4 4.1 3.9 18.4 11.3s23.3 41.5 25.8 48.9c2.5 7.5-1.1 33.2-4.9 39.9-3.9 6.6 0 33.8 0 33.8 0 1.4-0.8 3-1.9 4.4 3.6 3 1.4152 5.8407 3.2152 10.241l20.48 1.06c0-0.1 1.9 0 3.7 0-0.8-5.4-0.4-10.7 1.7-15.7z" fill="#4d371e"/>
    <path d="m40.1 180.7-1.3-3.5c-0.7-0.7-1.3-2-1.5-3.6-0.2-0.5-0.4-1-0.6-1.7-1-4.8-2.2-10-3.9-14.4-0.1 0-0.1 0-0.2-0.1-0.5 0.5-1.2 0.9-2.1 0.9-1 0-1.7-0.4-2.2-1-1.2 0-2-0.6-2.5-1.4-0.5 0.4-1.1 0.7-1.9 0.7s-1.5-0.3-2-0.7c-0.3 0.1-0.7 0.2-1.2 0.2-1.3 0-2.2-0.7-2.6-1.6-5.1 1.9-10.8 1.8-15.5 1.8-1.4 0-2.3-1.2-2.8-2.8-0.4 0-0.7-0.1-1-0.3-0.1 0.1-0.3 0.1-0.4 0.2v12.2c4.7-0.1 10 0.7 14.6 3.9h0.2c0.3 0 0.5 0.1 0.8 0.1s0.5-0.1 0.8-0.1c1.7 0.1 3.2 0.7 4.4 1.6 1.3 0.7 2.5 1.7 3.5 3 0.4 0.5 0.7 1.1 0.9 1.7 4.7 2.1 4.9 7.8 6.1 12.3 0 0.2 0.1 0.4 0.1 0.5 0.5 2.1 0.37627 11.827 0.67627 13.827 1.5 0.7 11.898-0.29492 13.798 0.20508l1.6305-12.439zm130.5-5v-0.3c-1-1.9-1.9-2.9-1.9-2.9s0.8-9.8 1.8-29.3c1.4-57.8-16.1-70.8-20.1-75-4.1-4.1-0.9-10.4-26.9-27.7-25.2-16.8-59.8-5.7-79.4-9.4-0.5 0.6-1.2 1.1-2.3 1.1-4.2 0-8.4 0.5-12.5-0.7-0.1 0-0.3-0.1-0.4-0.2-14.5 1-31.5 2.9-31.5 2.9v13.4h0.2c0.3 0 0.6 0 0.8 0.1 0.5-0.5 1.2-0.8 2.1-0.8 1.2 0 2 0.6 2.5 1.4 0.3-0.1 0.6-0.2 0.9-0.2 0.5 0 1 0.1 1.4 0.3l2.4-2.6 1.9-5 1.3-0.9 8.9-1.7 10.8-0.2 5.5 2.8 7.2 1.3 6.9-3.3 6.5 3.9 6.4-3.1 9.3-3.1 2 3.3 6.8 1.1s2.6-2.8 5-3.1l11.9 1.3 3.5 3.3 12.5 2 3.7 4.7 11.9 3.1v5.6l2.6 1.8 10.3 6.6 1.4 5.4 3.6 8 5.4 5.8-5.4 5.4 4.2 9.7 0.2 8.6 0.2 7.1 1.2 11.2-2.1 10-1.1 3.6s1.5 3.8 1.4 4.2c-0.1 0.3 2 3.1 2 3.1l-6.2 2.5v8.8l-1.4 6.6s-0.4 4-0.4 4.4c0 0.3 3.2 8.6 3.2 8.6l-1.4 2.2c6.9 5 3.3492 11.529 3.6492 20.229l13.55 1.27c0-0.1 1.8 0 3.5 0 0-2.8 0.5-5.3 0.9-8.2 0.5-3.2 0.7-6.4 1.4-9.5 0.1-0.5 0.3-0.8 0.5-1.1-0.2-2.8-0.2-5.6-0.3-8.4z" fill="#432e08"/>
    <path stroke="#3D2F26" stroke-miterlimit="10" d="m23.5 169.8c2.9-1.5 4.6 0.2 3.1 3.1-0.4 0.9-1 1.7-1.9 1.9-1.9 0.5-3.6-1.2-3.1-3.1 0.2-0.9 1.1-1.6 1.9-1.9z" fill="#3D2F26"/>
    <path d="m26.7 183.7" fill="#261915"/>
    <path stroke="#3D2F26" stroke-width="4" stroke-miterlimit="10" d="m23.3 171.8c5.3 3.7 10.5 19.7 7.3 35.5" fill="none"/>
    <path stroke="#3d2f26" stroke-width="5" d="m168.9 209.8c-4.1-13.2 4.1-25.2-0.2-34.4 2.3-30.3 3.5-62.8-6.9-91.9-1.2-3.4-4.6-6.7-6.9-10.1-2.3-2.2-4.6-3.4-5.8-5.6-16.2-29.2-52.1-42.6-84.5-34.8-22-1.1-47.2 3-67.1-2.2m-5.2 133.1c9.9 6.1 23.6 0.6 31.6 7" fill="none"/>
    <path d="m88.6 98.4s0-0.1-0.1-0.4c0-0.2-0.1-0.7-0.2-1.2 0-0.2-0.1-0.5-0.1-0.7-0.2-0.1-0.2-0.5-0.3-0.7-0.2-0.6-0.5-1.3-0.8-1.9-0.4-0.7-0.8-1.3-1.4-2s-1.2-1.3-1.9-2c-1.4-1.3-3.1-2.5-5.1-3.6-3.6-2.3-7.7-4.3-10.6-5.9-1.4-0.8-2.6-1.7-3.5-2.3l-1.2-0.9s0.6 0.1 1.6 0.4c1 0.2 2.4 0.6 4 1.1 3.2 0.9 7.7 2.4 11.7 4.9 1 0.6 1.9 1.3 2.9 2s1.8 1.5 2.5 2.4c0.7 0.8 1.4 1.8 1.9 2.7s0.8 1.9 1.1 2.7c0.1 0.5 0.2 0.8 0.2 1.3s0.1 0.8 0 1.2v1.1s-0.1 0.6-0.1 0.8c-0.1 0.5-0.2 0.8-0.4 1.1-0.1-0.2-0.2-0.1-0.2-0.1zm-16.6 43.4s0-0.4 0.1-0.8c0.1-0.6 0-1.4 0-2.4-0.1-0.5-0.1-1.1-0.2-1.7s-0.2-1.3-0.5-1.9c-0.4-1.3-0.8-2.8-1.7-4.3-0.2-0.4-0.5-0.7-0.6-1.1l-0.1-0.1v-0.1c0-0.1 0.1 0.1 0 0.1l-0.2-0.2-0.5-0.7c-0.4-0.4-0.6-0.5-0.8-0.8-0.4-0.4-0.8-0.6-1.2-0.9l-0.7-0.7c-0.2-0.4-0.5-0.7-0.6-0.9-0.2-0.7-0.6-1.4-0.6-2l-0.1-0.9-0.1-0.8c0-0.6-0.1-1.1-0.1-1.7-0.2-2.3-0.5-4.5-1-6.4-0.5-2-1.6-3.7-2.9-5.2l-1-1.1-1.4-1.2c-0.8-0.6-1.7-1.2-2.6-1.8-1-0.6-1.9-1.1-2.9-1.5-1-0.5-2-0.9-3-1.3-2-0.8-4.1-1.5-6-2.1-1-0.2-1.9-0.6-2.9-0.8s-1.8-0.5-2.6-0.7c-1.8-0.4-3.4-0.7-4.8-1.1-1.7-0.4-3-0.7-4-0.9-2.2-0.4-3.4-0.6-3.4-0.6s0.4 0 0.8-0.1c0.6-0.1 1.4-0.2 2.5-0.2 1.1-0.1 2.4-0.1 3.9-0.1 1.6 0 3.2 0 5.1 0.2 1.8 0.1 3.9 0.4 6 0.7 2.2 0.4 4.3 0.9 6.6 1.7s4.6 1.7 6.9 3c1.1 0.6 2.3 1.4 3.4 2.1l1.4 1.2 0.1 0.1 0.1 0.1-0.2-0.1 0.4 0.4 0.7 0.7c1.8 2 3.4 4.6 3.9 7.2 0.6 2.6 0.6 5.1 0.7 7.2v3.1c0 0.5 0.1 0.7 0.2 1.1 0.1 0.2 0.1 0.4 0.1 0.5 0.1 0.1 0.2 0.2 0.2 0.4l1.1 1.1c0.4 0.4 0.8 0.9 1.2 1.4l0.4 0.6 0.2 0.4 0.1 0.1v0.1l0.1 0.2c0.2 0.5 0.5 0.9 0.6 1.4 0.7 1.9 0.8 3.6 1 5.1v2.1c-0.1 0.7-0.1 1.3-0.2 1.8-0.2 1.1-0.5 1.9-0.7 2.4-0.1 0.5-0.2 0.7-0.2 0.7zm67.2 16.8s-0.4-0.7-0.1-2 1-3.1 1.9-5.2c0.5-1.1 1-2.3 1.1-3.6 0.1-0.7 0-1.4 0-2.1-0.1-0.7-0.2-1.4-0.5-2.3-0.8-3.1-3-6-5.1-9.7-0.2-0.5-0.5-0.9-0.7-1.4-0.1-0.2-0.2-0.5-0.4-0.8l-0.2-0.7c-0.2-0.5-0.4-0.9-0.6-1.5-0.1-0.6-0.4-1.2-0.5-1.8-0.6-2.4-0.8-4.7-1-7.1-0.2-4.9 0.2-9.8-0.4-14.6-0.4-2.4-1-4.6-2-6.9l-0.8-1.5-1.1-1.7c-0.7-1.1-1.4-2.3-2.2-3.4-0.7-1.1-1.6-2-2.4-3.1s-1.6-2.1-2.5-3.1l-2.6-3c-0.8-0.9-1.9-1.9-2.9-2.7-1.9-1.9-4-3.6-6.1-5.2-1.1-0.8-2.2-1.5-3.2-2.4-1.1-0.7-2.2-1.5-3.4-2.3-4.6-2.8-9.1-5.2-13.8-7.5-4.7-2.4-9-4.5-13.5-5.9-0.5-0.2-1.1-0.4-1.7-0.5-0.5-0.1-1.2-0.4-1.6-0.5-1.1-0.2-2.3-0.5-3.4-0.7-2.2-0.5-4.3-0.9-6.4-1.3-2-0.2-4-0.5-5.9-0.7-1-0.1-1.8-0.2-2.8-0.4-0.8-0.1-1.8-0.1-2.6-0.2-1.7-0.1-3.2-0.2-4.7-0.4s-2.8-0.2-4-0.2c-4.8-0.2-7.7-0.5-7.7-0.5s2.8-0.2 7.7-0.5c2.4-0.2 5.4-0.1 8.8-0.2h2.6c1 0 1.8 0.1 2.8 0.1 1.9 0.1 4 0.2 6 0.4 2.2 0.1 4.2 0.6 6.5 0.8 1.1 0.1 2.3 0.4 3.4 0.5 0.7 0.1 1.2 0.2 1.8 0.4s1.2 0.2 1.8 0.5c4.8 1.3 9.5 3.3 14.2 5.6 1.2 0.6 2.4 1.1 3.6 1.7l3.6 1.8c2.5 1.1 4.8 2.6 7.3 3.9 1.2 0.7 2.3 1.5 3.5 2.3s2.4 1.5 3.5 2.5c2.2 1.8 4.5 3.4 6.5 5.5 4.2 3.8 7.8 8.3 11.1 12.9 0.7 1.2 1.4 2.3 2.2 3.4l1.1 1.7s0.1 0.2 0.1 0.1v-0.1l0.1 0.1 0.1 0.2 0.2 0.5 0.5 0.9c1.2 2.6 1.9 5.5 2.2 8.2 0.4 2.7 0.2 5.3 0.1 7.8s-0.4 4.9-0.4 7.1 0.1 4.5 0.5 6.5c0.1 0.5 0.2 0.9 0.2 1.4 0.1 0.5 0.4 1.1 0.5 1.5l0.2 0.7 0.2 0.6c0.1 0.5 0.4 0.9 0.6 1.4 0.8 1.8 1.8 3.6 2.6 5.3 0.8 1.8 1.4 3.6 1.8 5.2 0.2 0.8 0.2 1.8 0.2 2.6s-0.1 1.7-0.2 2.4c-0.2 1.7-1 2.8-1.6 3.9-1.2 2.1-2.2 3.7-2.5 4.9 0.1 1.7 0.5 2.4 0.4 2.4z" fill="#60492f"/>
    <path enable-background="new " d="m120.9 63.1c-0.1 2.1-2.8 6.2-2.8 6.2s-1.3 3.3-2.9 2.8c-1.7-0.5-5.2-2-5.8-2.8s-3.6-4.5 0.5-7.8c1.6-1.2 3.7-1.1 5.1-1.3 1.3-0.3 6 0.2 5.9 2.9z" fill="#3e3024"/>
    <path stroke="#4D4D4D" stroke-width="2" stroke-miterlimit="10" d="m116 68.6c-1.2 2.6-2.4-1.2-3-0.1s-3.9-1.5-2.9-3.8c1-2.1 3.6-3.2 3.6-3.8s6.3-1.3 6.5 0.9c0.2 2.3-2.4 4.9-2.4 4.9l-1.8 1.9z" fill="#808080"/>
    <path d="m115.1 63.8c1.2-0.9 3.1-1.7 3.1-1.1s-1.9 2.8-1.9 2.8l-1.7 1.1-1-2.4 1.5-0.4z" fill="#A5A5A5"/>
    <path enable-background="new " d="m95.5 69.2c11.3-1.1 9.5-5.1 8.2-10.7-0.1-1.3-0.4-2.8-0.7-4.5-0.8-8.3-4.6-15.8-11.3-22.3l-0.5-0.4-0.6 0.1c-19.3 5.8-19.1 7.6-8.9 24.3l13.2 13.4h0.6z" fill="#3e3024"/>
    <g stroke="#4D4D4D" stroke-miterlimit="10">
        <path stroke-width="2" d="m95.8 31.9c12.8 8.4 9.3 21.1 11.9 27.4 2.6 6.4-7.6 7.4-7.6 7.4l-12.3-12.6s-9.9-16.4-6.3-17.7c3.5-1.2 14.3-4.5 14.3-4.5z" fill="#808080"/>
        <path d="m94 35.8l7.3 17.4s-2.9 3-3.9 4.4-8.1-5.9-8.1-5.9l-2.6-12.6 7.3-3.3z" fill="#A5A5A5"/>
        <path d="m101.4 53.3l6.6 7s-1.4-23.5-12.2-28.3l-1.8 3.8 7.4 17.5z" fill="#A09D9A"/>
        <path d="m96.9 57.9c0.4 2.7 1.4 5.3 1.9 7.8 0 0 1.7 1.3 3.7 0.6s6-2.7 5.5-4.9c-0.5-2-6.7-8.2-6.7-8.2l-4.4 4.7z" fill="#686868"/>
    </g>
    <path enable-background="new " d="m116.4 54.8c0.4 0.4-0.5 3.7-0.5 3.7l-7.7-3 0.5-5.9s0.5-0.7 2.3-0.6 5.4 2 5.4 2v3.8z" fill="#3e3024"/>
    <path stroke="#4D4D4D" stroke-width="2" stroke-miterlimit="10" d="m110.7 50.3s5.5-0.2 5.5 0.8c0.1 0.9-0.7 5.1-0.7 5.1l-5.4-2.1 0.6-3.8z" fill="#808080"/>
    <path stroke="#3f2e17" stroke-width="7px" d="m30 200h140" fill="none"/>
    <path stroke="#3f2e17" stroke-width="7px" d="m0 29.5v140" fill="none"/>
</svg>
