<?xml version="1.0" encoding="UTF-8" standalone="no"?>
<svg xmlns:rdf="http://www.w3.org/1999/02/22-rdf-syntax-ns#" xmlns="http://www.w3.org/2000/svg" version="1.1" xmlns:cc="http://creativecommons.org/ns#" x="0px" y="0px" width="200px" height="200px" viewBox="0 0 200 200" xmlns:dc="http://purl.org/dc/elements/1.1/">
 <defs>
 <linearGradient id="roadGradient">
 <stop stop-color="#232323" offset="0"/>
 <stop stop-color="#303030" offset=".25"/>
 <stop stop-color="#303030" offset=".75"/>
 <stop stop-color="#232323" offset="1"/>
 </linearGradient>
 <radialGradient id="turnGradient">
 <stop stop-color="#303030" offset="0"/>
 <stop stop-color="#303030" offset=".5"/>
 <stop stop-color="#232323" offset="1"/>
 </radialGradient>
 </defs>
 <path d="m35 200v-100a65 65 180 0 1 130 0v100h-130" fill="#ddcf8a"/>
 <path stroke="#b79c77" stroke-width=".8" d="m35 180h15m-15-40h15m-15-40h15m-2.6-38.2l12.1 8.8m20.4-32.4l4.6 14.2m35.5-14.2l-5 14.2m38 9.4l-13 8.8m10 29.4h15m-15 40h15m-15 40h15"/>
 <path stroke="#72612e" stroke-width="2.5" d="m35 200v-100a65 65 180 0 1 130 0v100" fill="none"/>
 <path stroke="#72612e" stroke-width="2.5" d="m35 200v-100a65 65 180 0 1 130 0v100" fill="none"/>
 <path stroke="#72612e" stroke-width="2" d="m50 200v-100a50 50 180 0 1 100 0v100m-100 0h5m-5-40h5m-5-40h5m90 0h5m-5 40h5m-5 40h5m-50-100l-47.6-15.5m47.6 15.5l-29.4-40.5m29.4 40.5v-50m0 50l29.4-40.5m-29 40.5l47.6-15.5" fill="none"/>
 <circle cy="100" cx="100" r="45" fill="url(#turnGradient)"/>
 <rect y="100" width="90" height="100" x="55" fill="url(#roadGradient)"/>
 <path stroke="#808080" stroke-width="7" d="m55 200h90"/>
 <path stroke="#101928" stroke-width="3" d="m55 200v-100a45 45 180 0 1 90 0v100" fill="none"/>
 <path stroke="#f4d100" stroke-width="5" d="m100 92.5v30m0 28v33.3" fill="none"/>
</svg>
