<?xml version="1.0" encoding="UTF-8" standalone="no"?>
<svg xmlns:rdf="http://www.w3.org/1999/02/22-rdf-syntax-ns#" xmlns="http://www.w3.org/2000/svg" version="1.1" xmlns:cc="http://creativecommons.org/ns#" x="0px" y="0px" width="200px" height="200px" viewBox="0 0 200 200" xmlns:dc="http://purl.org/dc/elements/1.1/">
 <defs>
 <linearGradient id="roadGradient">
 <stop stop-color="#232323" offset="0"/>
 <stop stop-color="#303030" offset=".25"/>
 <stop stop-color="#303030" offset=".75"/>
 <stop stop-color="#232323" offset="1"/>
 </linearGradient>
 </defs>
 <rect y="0" width="130" fill="#ddcf8a" x="35" height="200"/>
 <path stroke="#b79c77" stroke-width=".8" d="m35 20h130m-130 40h130m-130 40h130m-130 40h130m-130 40h130"/>
 <rect y="0" width="100" fill="#ddcf8a" x="50" height="200"/>
 <path stroke="#72612e" stroke-width="2.5" d="m35 0v200m130-200v200"/>
 <path stroke="#72612e" stroke-width="2" d="m50 0v200m100-200v200m-100-200h100m-100 40h100m-100 40h100m-100 40h100m-100 40h100m-100 40h100"/>
 <rect y="0" width="90" fill="url(#roadGradient)" x="55" height="200"/>
 <path stroke="#808080" d="m55 0h90m-90 200h90"/>
 <path stroke="#101928" stroke-width="3" d="m55 0v200m90-200v200"/>
 <path stroke="#f4d100" stroke-width="5" d="m100 16.7v33.3m0 33.3v33.3m0 33.3v33.3"/>
</svg>
