<?xml version="1.0" encoding="UTF-8" standalone="no"?>
<svg xmlns:rdf="http://www.w3.org/1999/02/22-rdf-syntax-ns#" xmlns="http://www.w3.org/2000/svg" version="1.1" xmlns:cc="http://creativecommons.org/ns#" x="0px" y="0px" width="200px" height="200px" viewBox="0 0 200 200" xmlns:dc="http://purl.org/dc/elements/1.1/">
 <defs>
 <linearGradient id="roadGradient1">
 <stop stop-color="#303030" offset=".5"/>
 <stop stop-color="#232323" offset="1"/>
 </linearGradient>
 <radialGradient id="roadGradient2" gradientUnits="userSpaceOnUse" cy="200" cx="0" r="200">
 <stop stop-color="#232323" offset=".275"/>
 <stop stop-color="#303030" offset=".388"/>
 </radialGradient>
 <radialGradient id="roadGradient3" gradientUnits="userSpaceOnUse" cy="0" cx="0" r="200">
 <stop stop-color="#232323" offset=".275"/>
 <stop stop-color="#303030" offset=".388"/>
 </radialGradient>
 </defs>
 <path d="m35 0h130v200h-130a35 35 -90 0 0 -35 -35v-130a35 35 -90 0 0 35 -35" fill="#ddcf8a"/>
 <path stroke="#b79c77" stroke-width=".8" d="m150 20h15m-15 40h15m-15 40h15m-15 40h15m-15 40h15m-151.6-12l5.7-14m13.2 33l13.9-6m-32.8-149l5.7 14m13.2-33l13.9 6"/>
 <path stroke="#72612e" stroke-width="2.5" d="m165 0v200m-130 0a35 35 -90 0 0 -35 -35m0-130a35 35 -90 0 0 35 -35" fill="none"/>
 <path stroke="#72612e" stroke-width="2" d="m150 0v200m-5-200h5m-5 40h5m-5 40h5m-5 40h5m-5 40h5m-5 40h5m-150-55v5a50 50 90 0 1 50 50h5m-19.6-35l3.5-4m-38.9-106v-5a50 50 -90 0 0 50 -50h5m-19.6 35l3.5 4" fill="none"/>
 <rect y="0" width="45" height="200" x="100" fill="url(#roadGradient1)"/>
 <path d="m0 100h100v100h-45a55 55 -90 0 0 -55 -55v-45" fill="url(#roadGradient2)"/>
 <path d="m0 100h100v-100h-45a55 55 -90 0 1 -55 55v45" fill="url(#roadGradient3)"/>
 <path stroke="#808080" d="m55 0h90m-90 200h90m-145-55v-90"/>
 <path stroke="#101928" stroke-width="3" d="m145 0v200m-90 0a55 55 -90 0 0 -55 -55m0-90a55 55 -90 0 0 55 -55" fill="none"/>
 <path stroke="#f4d100" stroke-width="5" d="m100 16.7v33.3m0 33.3v33.3m0 33.3v33.3m-83.4-83.2h38.4"/>
 <path stroke="#f4d100" stroke-width="2" stroke-dasharray="7.5, 7.5" d="m55 35v130m-5-130v65"/>
</svg>
