<?xml version="1.0" encoding="utf-8"?>
<!-- Generator: Adobe Illustrator 16.0.0, SVG Export Plug-In . SVG Version: 6.00 Build 0)  -->
<!DOCTYPE svg PUBLIC "-//W3C//DTD SVG 1.1//EN" "http://www.w3.org/Graphics/SVG/1.1/DTD/svg11.dtd">
<svg version="1.1" id="Layer_3" xmlns="http://www.w3.org/2000/svg" xmlns:xlink="http://www.w3.org/1999/xlink" x="0px" y="0px"
	 width="900px" height="900px" viewBox="0 0 900 900" enable-background="new 0 0 900 900" xml:space="preserve">
<g>
	<path opacity="0.1" d="M494.823,671.551c-5.683-33.646,1.547-35.367,11.953-72.301c10.518-37.317-16.854-66.929-21.344-102.042
		c-0.453-3.584,1.209-7.693,2.382-10.846c13.235-35.585,1.017-47.281-25.158-71.268c-11.049-11.068-22.556-24.94-20.197-41.605
		c1.72-11.901,19.474-14.963,20.725-30.486c13.255,5.58,40.523-7.171,25.044-22.643c1.758,1.757-24.889,16.836-26.037,12.347
		c-2.026-7.974-7.538-13.869-12.271-20.392c0.702-8.044-17.01-38.003-8.03-41.582c18.863-7.518-23.723-18.612-29.213-18.612
		c-6.36,0-36.093,4.079-33.574,14.151c-0.743,3.865,7.85,3.525,6.06,11.135c-3.843,16.409-8.375,30.779-17.44,45.097
		c-2.01,0-4.597,10.47-4.965,12.513c-1.349,7.509-25.142-4.098-28.104-6.035c-9.644-6.304-3.755,12.232-1.197,14.926
		c7.55,7.945,20.875,7.226,28.979,0.74c1.765,14.12,18.99,17.374,20.756,27.967c2.351,14.353-6.098,28.207-15.695,38.232
		c-15.49,16.182-37.974,25.792-35.767,51.334c1.677,13.415,11.368,26.652,7.419,40.236c-6.785,23.971-17.768,46.807-22.18,71.424
		c-5.072,28.366,21.513,51.466,17.294,78.658c-4.004,24.959-14.603,55.364,11.054,71.51c13.197,8.338,53.483,8.765,59.404,17.488
		c9.236,13.611,11.567,27.708,28.521,36.35c7.211,3.674,11.396,4.1,19.634,5.276c13.179,0.71,9.918,3.714,20.212,5.058
		c10.792,1.407,27.052-7.23,29.35-18.586c-2.829,2.406-6.087,3.863-9.769,4.374c4.961-3.361,9.433-9.801,10.837-15.629
		c-3.188,2.724-6.082,5.729-8.688,9.015c0.907-6.797,1.684-12.477,0.556-19.338c-1.286,7.231-3.921,30.01-8.271,12.684
		c-2.114,15.066-12.758-0.433-21.958,9.315c-5.151,5.461-2.57,6.178-9.858,5.529c-16.289-1.444-34.753-13.07-36.021-30.814
		c-0.137-1.893,0.012-3.821,0.602-5.634c0.914-2.811,48.054-8.362,56.512-12.753C499.341,714.389,498.615,694.123,494.823,671.551
		C494.746,671.084,494.871,671.83,494.823,671.551z"/>
	<g>
		<g>
			<g>
				<linearGradient id="SVGID_1_" gradientUnits="userSpaceOnUse" x1="662.5674" y1="173.9409" x2="351.2332" y2="693.9427">
					<stop  offset="0" style="stop-color:#F4F4F4"/>
					<stop  offset="1" style="stop-color:#D2D2D2"/>
				</linearGradient>
				<path fill="url(#SVGID_1_)" stroke="#6D6D6D" stroke-width="2" stroke-miterlimit="10" d="M542.5,669.754
					c0-17.912-8.666-54.088-8.666-62.967s24-53.788,24-79.285s-30.667-97.169-30.667-108.166s11.333-23.67,11.333-51.474
					S502.5,327,485.834,303c-16.668-24-14.667-32.667-9.667-52.333c0-26.333-23.625-40.333-40.333-40.333s-40.333,14-40.333,40.333
					c5,19.667,7.001,28.333-9.666,52.333s-52.667,37.058-52.667,64.862s11.333,40.478,11.333,51.474s-30.666,82.669-30.666,108.166
					s24,70.406,24,79.285s-8.667,45.055-8.667,62.967c0,33.618,34.915,50.978,91.283,53.568c4.211,2.784,6.524,6.891,8.472,11.785
					c3.791,9.523,9.099,17.275,15.545,25.258c7.291,9.029,16.25,14.66,27.572,18.036c23.696,7.067,44.768-1.31,64.794-14.067
					c0,0-1.043-5-7.667-1.667c-39.667,20.333-72.666,2.334-81.999-18.333c-4.562-10.102-3.785-16.692-1.802-20.798
					C505.16,721.899,542.5,704.521,542.5,669.754z"/>
				<g>
					<linearGradient id="SVGID_2_" gradientUnits="userSpaceOnUse" x1="374.2622" y1="642.0005" x2="596.929" y2="239.3332">
						<stop  offset="0" style="stop-color:#1E1E1E"/>
						<stop  offset="1" style="stop-color:#333333"/>
					</linearGradient>
					<path fill="url(#SVGID_2_)" d="M533.834,606.788c0-8.879,24-53.788,24-79.285s-30.667-97.169-30.667-108.166
						s11.333-23.67,11.333-51.474c0-0.363-0.031-0.712-0.043-1.07c-1.676-0.941-3.352-1.878-5.026-2.82
						c-8.31-2.394-18.965,1.914-27.13,2.902c-17.727,2.145-27.585-8.604-47.76,1.729c-14.446,7.4-20.133,24.778-36.937,28.133
						c-21.428,4.278-43.698-3.351-64.79,5.083c-4.452,1.781-8.715,7.128-12.832,13.155c0.328,1.501,0.519,2.947,0.519,4.363
						c0,5.01-6.364,22.613-13.295,42.706c7.162,11.355,18.499,22.691,22.95,29.958c15.488,25.289-0.808,43.778,30.565,57.359
						c15.88,6.882,1.742,21.29,0.557,35.458c-4.063,48.548,79.122,35.725,106.681,37.329c15.705,0.914,30.996,4.725,45.204,7.052
						C535.379,619.152,533.834,610.536,533.834,606.788z"/>
					<linearGradient id="SVGID_3_" gradientUnits="userSpaceOnUse" x1="443.7207" y1="680.4106" x2="666.3876" y2="277.7432">
						<stop  offset="0" style="stop-color:#1E1E1E"/>
						<stop  offset="1" style="stop-color:#333333"/>
					</linearGradient>
					<path fill="url(#SVGID_3_)" d="M496.297,644.334c-13.332,0.126-26.884,4.156-37.597-6.426
						c-12.806-12.652-19.858,7.426-29.095,12.94c-14.511,8.659-31.886-4.242-47.27-0.026c-27.008,7.402-37.033,24.38-43.818,45.153
						c11.439,13.634,32.93,22.111,61.988,25.698c3.482-9.838,7.142-19.649,15.215-26.129c17.498-14.042,27.927-4.804,49.21-9.086
						c20.113-4.04,12.568,6.42,25.401,14.775c5.605,3.648,12.455,7.462,19.908,10.737c20.639-8.858,32.26-22.832,32.26-42.218
						c0-5.764-0.899-13.42-2.116-21.448C524.848,645.424,507.718,644.227,496.297,644.334z"/>
					<linearGradient id="SVGID_4_" gradientUnits="userSpaceOnUse" x1="309.7515" y1="606.3276" x2="532.4174" y2="203.662">
						<stop  offset="0" style="stop-color:#1E1E1E"/>
						<stop  offset="1" style="stop-color:#333333"/>
					</linearGradient>
					<path fill="url(#SVGID_4_)" d="M345.554,629.911c5.714-8.914-0.918-14.727,2.406-23.477
						c6.026-15.863,27.842-19.707,12.735-40.6c-6.866-9.496-16.398-18.025-19.496-29.802c-4.158-15.804-0.51-27.514-15.063-39.111
						c-1.648-1.313-3.386-2.504-5.188-3.593c-4.118,13.727-7.113,26.205-7.113,34.174c0,25.497,24,70.406,24,79.285
						c0,7.935-6.918,37.662-8.39,56.68C335.103,649.109,341.851,635.687,345.554,629.911z"/>
					<linearGradient id="SVGID_5_" gradientUnits="userSpaceOnUse" x1="276.1304" y1="587.7349" x2="498.7959" y2="185.0699">
						<stop  offset="0" style="stop-color:#1E1E1E"/>
						<stop  offset="1" style="stop-color:#333333"/>
					</linearGradient>
					<path fill="url(#SVGID_5_)" d="M333.232,371.257c0.025,0.731,0.055,1.457,0.096,2.166c0.009,0.158,0.021,0.312,0.03,0.47
						c0.048,0.77,0.103,1.531,0.168,2.276c0.007,0.079,0.014,0.156,0.021,0.235c0.075,0.831,0.158,1.649,0.251,2.451
						c0.001,0.004,0.001,0.008,0.002,0.012c9.404-11.732,21.397-22.602,26.583-25.787c12.296-7.551,25.971-12.577,40.559-10.925
						c11.211,1.27,26.106,8.087,32.405-2.833c13.999-24.273,46.062-8.969,65.202-22.263c-0.002-0.002-0.004-0.004-0.006-0.005
						c-1.573-1.441-3.104-2.913-4.583-4.417c-0.248-0.253-0.499-0.505-0.744-0.76c-0.312-0.325-0.619-0.654-0.927-0.983
						c-0.298-0.319-0.595-0.639-0.887-0.961c-0.274-0.303-0.546-0.607-0.814-0.913c-0.322-0.366-0.639-0.734-0.952-1.105
						c-0.236-0.279-0.473-0.558-0.704-0.84c-0.354-0.432-0.699-0.869-1.042-1.307c-0.183-0.234-0.37-0.466-0.549-0.702
						c-0.517-0.681-1.021-1.369-1.507-2.067c-16.668-24-14.667-32.667-9.667-52.333c0-26.333-23.625-40.333-40.333-40.333
						s-40.333,14-40.333,40.333c5,19.667,7.001,28.333-9.666,52.333s-52.667,37.058-52.667,64.862c0,0.949,0.015,1.877,0.041,2.79
						C333.215,370.857,333.226,371.055,333.232,371.257z"/>
				</g>
				<linearGradient id="SVGID_6_" gradientUnits="userSpaceOnUse" x1="431.5166" y1="246.3345" x2="431.5166" y2="283.9177">
					<stop  offset="0" style="stop-color:#070707"/>
					<stop  offset="1" style="stop-color:#070707;stop-opacity:0"/>
				</linearGradient>
				<path fill="url(#SVGID_6_)" d="M429.501,279.668c15.542-4.869,31.313-6.108,43.136-7.382c-0.256-6.57,1.352-13.051,3.53-21.619
					c0-26.333-23.625-40.333-40.333-40.333s-40.333,14-40.333,40.333c4.894,19.247,6.902,27.968-8.636,50.826
					C399.382,293.389,415.467,284.064,429.501,279.668z"/>
			</g>
			<linearGradient id="SVGID_7_" gradientUnits="userSpaceOnUse" x1="150.6919" y1="631.0591" x2="453.693" y2="494.0584">
				<stop  offset="0" style="stop-color:#070707"/>
				<stop  offset="1" style="stop-color:#070707;stop-opacity:0"/>
			</linearGradient>
			<path fill="url(#SVGID_7_)" d="M408.334,721.674c-62.862-45.095-48-81.84-48-108.69s-22.5-67.149-21.104-87.421
				s33.704-92.289,21.604-112.206c-20.954-34.49-3.056-63.217,0.456-86.156c-14.414,11.963-28.122,23.505-28.122,40.662
				c0,27.804,11.333,40.478,11.333,51.474s-30.666,82.669-30.666,108.166s24,70.406,24,79.285s-8.667,45.055-8.667,62.967
				c0,31.41,30.485,48.623,80.465,52.862C409.207,722.305,408.775,721.991,408.334,721.674z"/>
			<g opacity="0.4">
				<linearGradient id="SVGID_8_" gradientUnits="userSpaceOnUse" x1="532.6797" y1="392.2915" x2="488.3729" y2="466.2943">
					<stop  offset="0" style="stop-color:#070707"/>
					<stop  offset="1" style="stop-color:#070707;stop-opacity:0"/>
				</linearGradient>
				<path fill="url(#SVGID_8_)" d="M527.167,419.336c0-1.971,0.368-3.998,0.966-6.154c-9.691,5.807-20.086,10.335-31.602,12.629
					c-12.699,2.529-26.168,2.396-38.718,5.386c-6.93,1.651-11.644,9.738-4.839,15.582c4.27,3.667,10.682,5.954,15.961,7.555
					c17.052,5.173,34.367,8.601,52.055,11.444c6.551,1.053,13.931,2.04,21.657,2.634
					C534.932,445.767,527.167,424.87,527.167,419.336z"/>
				<linearGradient id="SVGID_9_" gradientUnits="userSpaceOnUse" x1="398.8555" y1="390.5498" x2="352.2561" y2="468.3817">
					<stop  offset="0" style="stop-color:#070707"/>
					<stop  offset="1" style="stop-color:#070707;stop-opacity:0"/>
				</linearGradient>
				<path fill="url(#SVGID_9_)" d="M404.882,422.394c-17.316-3.254-32.738-6.432-48.162-15.417
					c-6.768-3.943-13.305-8.299-19.75-12.785c3.294,11.059,7.531,18.419,7.531,25.145c0,4.725-5.662,20.654-12.12,39.306
					c5.692-0.198,11.4-0.278,17.188,0.108c8.117,0.543,16.276,1.018,24.409,1.471c16.5,0.921,45.038,4.701,51.937-16.294
					C430.368,430.373,415.389,424.369,404.882,422.394z"/>
				<linearGradient id="SVGID_10_" gradientUnits="userSpaceOnUse" x1="405.5068" y1="554.8491" x2="343.2697" y2="658.7999">
					<stop  offset="0" style="stop-color:#070707"/>
					<stop  offset="1" style="stop-color:#070707;stop-opacity:0"/>
				</linearGradient>
				<path fill="url(#SVGID_10_)" d="M407.988,589.703c-11.15-4.396-28.676,1.692-40.041,2.63
					c-11.422,0.942-22.854,1.465-34.312,0.748c2.493,6.418,4.2,11.345,4.2,13.707c0,6.71-4.948,29.007-7.366,47.232
					c6.483-1.919,12.823-3.951,18.873-5.701c15.89-4.597,31.916-8.601,47.102-15.208c9.686-4.214,19.665-8.974,21.885-20.23
					C419.929,604.763,416.368,593.007,407.988,589.703z"/>
				<linearGradient id="SVGID_11_" gradientUnits="userSpaceOnUse" x1="549.7646" y1="551.4341" x2="504.0494" y2="627.7893">
					<stop  offset="0" style="stop-color:#070707"/>
					<stop  offset="1" style="stop-color:#070707;stop-opacity:0"/>
				</linearGradient>
				<path fill="url(#SVGID_11_)" d="M533.834,606.788c0-4.435,5.986-17.855,11.979-33.356c-8.904,0.974-17.857,1.501-26.878,2.358
					c-17.001,1.615-41.08,2.162-38.547,25.095c1.405,12.721,13.129,21.695,23.003,28.502c7.829,5.396,15.56,7.688,24.647,9.979
					c2.623,0.661,6.872,2.565,11.642,4.454C537.149,628.219,533.834,612.281,533.834,606.788z"/>
			</g>
			<linearGradient id="SVGID_12_" gradientUnits="userSpaceOnUse" x1="453.6455" y1="691.5737" x2="428.6453" y2="737.2393">
				<stop  offset="0" style="stop-color:#070707"/>
				<stop  offset="1" style="stop-color:#070707;stop-opacity:0"/>
			</linearGradient>
			<path fill="url(#SVGID_12_)" d="M445.113,724.102c-8.861-3.526-20.283-2.289-26.142-0.86c0.496,0.025,0.98,0.058,1.479,0.081
				c4.211,2.784,6.524,6.891,8.472,11.785c1.957,4.915,4.324,9.354,7.036,13.601c2.863-4.929,6.123-7.905,9.136-9.843
				C443.073,732.169,443.689,727.401,445.113,724.102z"/>
			<linearGradient id="SVGID_13_" gradientUnits="userSpaceOnUse" x1="503.3008" y1="772.7192" x2="491.9678" y2="784.7192">
				<stop  offset="0" style="stop-color:#070707"/>
				<stop  offset="1" style="stop-color:#070707;stop-opacity:0"/>
			</linearGradient>
			<path fill="url(#SVGID_13_)" d="M516.238,775.284c-0.328-2.323-0.66-4.643-0.99-6.917c-9.273,2.86-18.02,3.673-25.997,2.965
				c-1.223,2.951-2.327,6.206-3.047,9.551C496.652,781.451,506.612,779.228,516.238,775.284z"/>
			<path fill="none" stroke="#6D6D6D" stroke-width="2" stroke-miterlimit="10" d="M542.5,669.754
				c0-17.912-8.666-54.088-8.666-62.967s24-53.788,24-79.285s-30.667-97.169-30.667-108.166s11.333-23.67,11.333-51.474
				S502.5,327,485.834,303c-16.668-24-14.667-32.667-9.667-52.333c0-26.333-23.625-40.333-40.333-40.333s-40.333,14-40.333,40.333
				c5,19.667,7.001,28.333-9.666,52.333s-52.667,37.058-52.667,64.862s11.333,40.478,11.333,51.474s-30.666,82.669-30.666,108.166
				s24,70.406,24,79.285s-8.667,45.055-8.667,62.967c0,33.618,34.915,50.978,91.283,53.568c4.211,2.784,6.524,6.891,8.472,11.785
				c3.791,9.523,9.099,17.275,15.545,25.258c7.291,9.029,16.25,14.66,27.572,18.036c23.696,7.067,44.768-1.31,64.794-14.067
				c0,0-1.043-5-7.667-1.667c-39.667,20.333-72.666,2.334-81.999-18.333c-4.562-10.102-3.785-16.692-1.802-20.798
				C505.16,721.899,542.5,704.521,542.5,669.754z"/>
			<linearGradient id="SVGID_14_" gradientUnits="userSpaceOnUse" x1="498.3018" y1="762.0474" x2="550.0322" y2="762.0474">
				<stop  offset="0" style="stop-color:#333333"/>
				<stop  offset="1" style="stop-color:#1E1E1E"/>
			</linearGradient>
			<path fill="url(#SVGID_14_)" stroke="#03080C" stroke-width="2" stroke-miterlimit="10" d="M500.076,779.168
				c-4.572-7.882,0.143-17.125,8.982-18.736c17.139-3.126,17.821,9.871,20.302-7.81c0.97,3.865,2.691,7.968-0.207,11.447
				c7.198-7.19,8.972-18.102,10.628-27.432c1.847,11.218,0.687,13.997-0.699,24.372c3.263-4.121,6.913-7.907,10.95-11.361
				c-1.565,6.493-7.943,15.825-13.659,19.696c4.688-0.662,8.792-2.499,12.313-5.511
				C545.277,780.677,509.219,798.238,500.076,779.168z"/>
			<g>
				<linearGradient id="SVGID_15_" gradientUnits="userSpaceOnUse" x1="444.9697" y1="463.6904" x2="618.4705" y2="341.1898">
					<stop  offset="0" style="stop-color:#FFFFFF;stop-opacity:0"/>
					<stop  offset="1" style="stop-color:#FFFFFF"/>
				</linearGradient>
				<path opacity="0.5" fill="url(#SVGID_15_)" d="M444.521,306.834c15.313,3.5,72.313,37.672,72.313,56.086
					s-13.5,56.245-11.5,66.58s34.5,85.467,34.5,108.151s-24.5,34.684-36,34.684s-40.5-22.686-40.5-38.093s8.5-87.407,9-99.907
					s23-45.944,11-72.472S454.206,314.334,444.521,306.834z"/>
				<linearGradient id="SVGID_16_" gradientUnits="userSpaceOnUse" x1="494.5273" y1="667.436" x2="511.8616" y2="622.4353">
					<stop  offset="0" style="stop-color:#FFFFFF;stop-opacity:0"/>
					<stop  offset="1" style="stop-color:#FFFFFF"/>
				</linearGradient>
				<path opacity="0.5" fill="url(#SVGID_16_)" d="M467.168,663.467c0-11.8,21.602-14.8,31.134-12.133s27.199,7.599,27.199,12.133
					s-22.981,2.534-33.324,2.534S467.168,669.164,467.168,663.467z"/>
			</g>
		</g>
		<g>
			<linearGradient id="SVGID_17_" gradientUnits="userSpaceOnUse" x1="505.5791" y1="79.9492" x2="194.2468" y2="599.9478">
				<stop  offset="0" style="stop-color:#F4F4F4"/>
				<stop  offset="1" style="stop-color:#D2D2D2"/>
			</linearGradient>
			<path fill="url(#SVGID_17_)" stroke="#6D6D6D" stroke-width="2" stroke-miterlimit="10" d="M435.626,111.666
				c15.999,0,22.667,6.667,22.667,6.667s15.332-3.665,18.999,6.002s-7.333,11.667-8.333,11.667s10.12,41.512,11.666,48
				c1.547,6.488,18.667,16.667,18.667,40s-24.907,41.333-63.666,41.333c-38.76,0-63.667-18-63.667-41.333s17.12-33.512,18.667-40
				c1.546-6.488,12.666-48,11.666-48s-12-2-8.333-11.667s19-6.002,19-6.002S419.626,111.666,435.626,111.666z"/>
			<linearGradient id="SVGID_18_" gradientUnits="userSpaceOnUse" x1="232.918" y1="563.8403" x2="455.5844" y2="161.1738">
				<stop  offset="0" style="stop-color:#1E1E1E"/>
				<stop  offset="1" style="stop-color:#333333"/>
			</linearGradient>
			<path fill="url(#SVGID_18_)" d="M483.136,246.234c-6.052,1.35-9.816,10.408-14.302,3.85s12.457-10.604,12.006-15.678
				c-0.32-3.593-2.242-6.964-4.349-9.813c-7.915-10.706-23.657-13.053-35.404-18.249c-4.536-2.006-12.354-3.355-14.683-7.935
				c-1.295-2.548-0.002-9.764-2.546-10.365c-1.056-0.25-3.057,2.117-4.69,1.972c-1.146-0.102-7.927-11.765-6.709-19.183
				s15.19-12.572,16.041-25.75c0.479-7.431-1.601-17.385-4.772-23.953c-1.179-2.44-2.87-4.558-4.874-6.37
				c-4.043,1.742-5.895,3.571-5.895,3.571s-15.333-3.665-19,6.002s7.333,11.667,8.333,11.667c0.667,0-4.053,18.45-7.732,32.673
				c9.417,0.892,16.774,8.513,16.774,17.785c0,9.872-8.339,17.875-18.625,17.875c-5.082,0-9.684-1.959-13.045-5.126
				c-4.07,6.091-7.705,14.044-7.705,24.793c0,23.333,24.907,41.333,63.667,41.333c9.909,0,25.985,0.11,34.132-6.587
				c0.211-0.174,0.399-0.366,0.594-0.553l2.625,0.135c7.577-3.339,13.706-7.741,18.137-12.916
				C488.534,245.14,489.188,244.884,483.136,246.234z"/>
			<path fill="none" stroke="#6D6D6D" stroke-width="2" stroke-miterlimit="10" d="M435.626,111.666
				c15.999,0,22.667,6.667,22.667,6.667s15.332-3.665,18.999,6.002s-7.333,11.667-8.333,11.667s10.12,41.512,11.666,48
				c1.547,6.488,18.667,16.667,18.667,40s-24.907,41.333-63.666,41.333c-38.76,0-63.667-18-63.667-41.333s17.12-33.512,18.667-40
				c1.546-6.488,12.666-48,11.666-48s-12-2-8.333-11.667s19-6.002,19-6.002S419.626,111.666,435.626,111.666z"/>
			<g>
				<linearGradient id="SVGID_19_" gradientUnits="userSpaceOnUse" x1="441.208" y1="211.3447" x2="464.958" y2="179.3447">
					<stop  offset="0" style="stop-color:#070707"/>
					<stop  offset="1" style="stop-color:#070707;stop-opacity:0"/>
				</linearGradient>
				<path fill="url(#SVGID_19_)" d="M406.889,225.422c-0.225-1.417,0.804-3.331,1.54-5.136c2.928-7.182,5.391-15.525,10.905-21.949
					c11.17-12.733,25.038-17.521,28.896-19.234c-3.913,3.685-8.594,6.388-12.426,10.426c-3.595,3.787-9.696,12.118-9.696,12.118
					s18.801-16.84,29.323-15.244c-7.194,3.99-13.038,11.124-13.038,11.124s16.103-5.219,21.933-1.867
					c-3.863,0.751-7.721,2.907-11.574,5.042c5.891,0.281,15.199,3.328,15.199,3.328s-9.137,3.134-11.047,6.951
					c-1.051,3.511,2.747,11.332,6.604,12.928"/>
				<g>
					<g>
						<linearGradient id="SVGID_20_" gradientUnits="userSpaceOnUse" x1="242.168" y1="568.9556" x2="464.8342" y2="166.2893">
							<stop  offset="0" style="stop-color:#1E1E1E"/>
							<stop  offset="1" style="stop-color:#333333"/>
						</linearGradient>
						<path fill="url(#SVGID_20_)" d="M406.003,226.622c-0.649-1.48-0.553-4.732-0.357-6.617c0.777-7.5,4.742-16.212,8.333-22.92
							c7.357-13.296,19.792-18.296,23.138-20.085c-2.81,3.848-6.681,6.671-9.305,10.887c-2.46,3.955-6.067,12.654-6.067,12.654
							s13.759-17.585,24.759-15.919c-6,4.167-9.707,11.616-9.707,11.616s14.54-5.45,21.373-1.95
							c-3.638,0.784-6.85,3.036-10.063,5.266c5.975,0.294,16.195,3.476,16.195,3.476s-8.198,3.273-8.965,7.259
							c0,3.667,6.499,13.087,10.833,14.754"/>
						<path fill="#03080C" d="M406.003,226.622c-0.479-1.214-0.544-2.55-0.586-3.845c-0.019-1.294,0.017-2.626,0.23-3.906
							c0.093-0.644,0.159-1.289,0.274-1.931l0.417-1.92c0.25-1.292,0.688-2.52,1.024-3.785c0.426-1.233,0.822-2.48,1.295-3.697
							c0.481-1.213,0.938-2.438,1.478-3.627c0.508-1.204,1.054-2.389,1.617-3.566c0.542-1.188,1.169-2.333,1.75-3.502
							c0.703-1.161,1.264-2.271,2.056-3.367c0.721-1.121,1.534-2.157,2.35-3.193c0.856-1,1.701-2.019,2.646-2.938
							c0.909-0.957,1.896-1.833,2.886-2.705l1.527-1.258l1.58-1.19c1.073-0.766,2.168-1.499,3.288-2.195
							c1.126-0.682,2.266-1.344,3.428-1.957l3.454-1.787l3.436-1.777l-2.354,3.02l-1.126,1.443l-1.192,1.365
							c-0.815,0.88-1.634,1.744-2.452,2.592c-0.812,0.849-1.597,1.71-2.35,2.584l-1.067,1.349l-0.961,1.408
							c-0.258,0.422-0.556,1.013-0.832,1.512l-0.844,1.561c-0.581,1.037-1.01,2.103-1.523,3.152c-0.5,1.045-0.984,2.108-1.447,3.196
							c-0.475,1.078-0.944,2.157-1.392,3.241l-1.608-0.939c0.82-1.033,1.651-1.996,2.516-2.957c0.862-0.956,1.748-1.891,2.658-2.803
							c1.821-1.823,3.743-3.555,5.803-5.138c2.056-1.585,4.276-2.999,6.708-4.069c0.617-0.251,1.233-0.502,1.876-0.701
							c0.639-0.203,1.291-0.386,1.963-0.5c0.665-0.137,1.352-0.202,2.039-0.233c0.347,0.002,0.692-0.011,1.039,0.008l1.041,0.105
							l2.31,0.232l-1.906,1.503l-1.436,1.131c-0.235,0.193-0.487,0.365-0.711,0.575l-0.659,0.646
							c-0.431,0.438-0.897,0.839-1.302,1.308l-1.214,1.404c-0.405,0.467-0.756,0.984-1.137,1.473
							c-0.386,0.488-0.727,1.008-1.072,1.525c-0.356,0.51-0.683,1.039-1.003,1.572c-0.327,0.522-0.631,1.081-0.908,1.6l-1.131-1.254
							c1.773-0.635,3.532-1.153,5.331-1.62c0.896-0.232,1.801-0.438,2.709-0.629c0.913-0.175,1.822-0.364,2.748-0.484
							c0.463-0.06,0.92-0.148,1.388-0.183l1.398-0.135c0.94-0.037,1.878-0.104,2.831-0.045c0.475,0.012,0.949,0.026,1.428,0.102
							c0.477,0.075,0.955,0.084,1.43,0.217c0.473,0.125,0.95,0.223,1.418,0.375l1.382,0.578l2.171,0.907l-2.37,0.613l-1.307,0.338
							c-0.427,0.155-0.857,0.299-1.282,0.46c-0.418,0.188-0.84,0.366-1.256,0.562c-0.409,0.215-0.822,0.421-1.229,0.643
							c-0.81,0.458-1.608,0.947-2.399,1.458l-2.363,1.582l-0.364-1.271l2.113,0.226c0.704,0.075,1.384,0.228,2.077,0.338
							s1.376,0.252,2.056,0.408c0.679,0.154,1.365,0.285,2.038,0.459c2.709,0.65,5.375,1.405,8.034,2.236l1.422,0.444l-1.383,0.555
							c-0.887,0.356-1.782,0.776-2.646,1.222c-0.869,0.443-1.712,0.932-2.52,1.466c-0.406,0.266-0.794,0.553-1.172,0.851
							c-0.196,0.142-0.363,0.312-0.547,0.466c-0.185,0.154-0.355,0.319-0.514,0.495c-0.157,0.175-0.341,0.334-0.471,0.527
							c-0.134,0.189-0.295,0.366-0.41,0.564l-0.327,0.604l-0.21,0.638l0.007-0.066c0.034,0.358,0.038,0.717,0.146,1.085
							c0.068,0.368,0.194,0.729,0.318,1.092c0.108,0.367,0.284,0.715,0.426,1.073c0.141,0.359,0.332,0.7,0.495,1.051
							c0.162,0.353,0.366,0.686,0.549,1.029c0.182,0.345,0.388,0.675,0.59,1.009c0.198,0.335,0.405,0.666,0.626,0.988
							c0.218,0.324,0.425,0.656,0.659,0.968c0.898,1.276,1.882,2.498,2.963,3.626c0.261,0.293,0.555,0.551,0.836,0.822
							c0.276,0.278,0.585,0.518,0.887,0.767c0.294,0.262,0.63,0.463,0.952,0.686c0.317,0.231,0.688,0.369,1.033,0.559
							c-0.351-0.173-0.731-0.296-1.061-0.513c-0.333-0.209-0.682-0.398-0.987-0.647c-0.315-0.237-0.639-0.465-0.929-0.732
							c-0.295-0.261-0.604-0.508-0.879-0.791c-0.575-0.541-1.111-1.12-1.642-1.704c-0.513-0.6-1.018-1.208-1.49-1.839
							c-0.248-0.308-0.468-0.637-0.699-0.957c-0.233-0.319-0.454-0.646-0.667-0.98c-0.216-0.331-0.437-0.66-0.633-1.004
							c-0.198-0.343-0.416-0.675-0.594-1.03c-0.18-0.354-0.386-0.695-0.545-1.062c-0.158-0.367-0.35-0.717-0.478-1.101
							c-0.144-0.376-0.289-0.751-0.379-1.155c-0.127-0.386-0.157-0.816-0.204-1.239l-0.003-0.032l0.01-0.034l0.227-0.783
							c0.109-0.243,0.236-0.477,0.356-0.715c0.128-0.233,0.294-0.434,0.44-0.651c0.143-0.224,0.331-0.399,0.498-0.597
							c0.168-0.199,0.347-0.384,0.538-0.553c0.188-0.172,0.366-0.361,0.566-0.518c0.39-0.329,0.788-0.645,1.202-0.936
							c1.654-1.178,3.418-2.129,5.286-2.932l0.038,0.999c-2.637-0.765-5.311-1.464-7.994-2.051
							c-0.669-0.159-1.345-0.273-2.017-0.412c-0.673-0.14-1.346-0.266-2.021-0.358c-0.675-0.093-1.35-0.23-2.022-0.288l-2.017-0.175
							l-1.941-0.168l1.577-1.103l2.355-1.646c0.799-0.54,1.615-1.062,2.454-1.56c0.425-0.243,0.859-0.472,1.289-0.708
							c0.441-0.22,0.895-0.422,1.342-0.633c0.46-0.187,0.931-0.356,1.397-0.533l1.452-0.407l-0.199,1.521l-1.157-0.454
							c-0.4-0.121-0.825-0.195-1.234-0.298c-0.408-0.112-0.854-0.117-1.278-0.182c-0.426-0.067-0.865-0.076-1.304-0.084
							c-0.873-0.051-1.762,0.021-2.645,0.06l-1.328,0.137c-0.443,0.035-0.885,0.125-1.327,0.185c-0.886,0.12-1.765,0.31-2.645,0.484
							c-0.878,0.191-1.753,0.397-2.624,0.628c-1.734,0.461-3.479,0.991-5.142,1.598l-2.21,0.809l1.079-2.062
							c0.317-0.605,0.62-1.167,0.963-1.726c0.331-0.561,0.67-1.117,1.038-1.653c0.358-0.543,0.712-1.089,1.112-1.604
							c0.396-0.517,0.76-1.058,1.184-1.555l1.272-1.492c0.425-0.497,0.921-0.936,1.379-1.406l0.702-0.693
							c0.237-0.227,0.512-0.42,0.766-0.631l1.557-1.239l0.403,1.735l-0.857-0.08c-0.287-0.014-0.578,0.002-0.867,0
							c-0.58,0.032-1.163,0.088-1.742,0.213c-0.58,0.102-1.157,0.268-1.727,0.454c-0.571,0.179-1.131,0.413-1.69,0.644
							c-2.22,0.995-4.31,2.345-6.295,3.839c-1.982,1.503-3.858,3.169-5.643,4.931c-0.892,0.882-1.762,1.787-2.608,2.714
							c-0.842,0.923-1.679,1.881-2.445,2.835l-4.205,5.229l2.598-6.167c0.463-1.1,0.944-2.187,1.43-3.271
							c0.472-1.086,0.974-2.172,1.503-3.257c0.532-1.071,1.004-2.2,1.587-3.223l0.854-1.555c0.301-0.533,0.531-1.003,0.891-1.588
							l1.05-1.516l1.145-1.426c0.796-0.914,1.61-1.795,2.44-2.65c0.829-0.848,1.644-1.697,2.441-2.546l1.15-1.299l1.065-1.348
							l1.081,1.243l-3.505,1.729c-1.15,0.577-2.271,1.199-3.382,1.84c-1.102,0.655-2.18,1.346-3.237,2.069l-1.558,1.124
							l-1.506,1.191c-0.977,0.827-1.953,1.658-2.854,2.568c-0.937,0.874-1.774,1.845-2.626,2.8
							c-0.812,0.991-1.624,1.983-2.332,3.037c-0.76,0.994-1.406,2.197-2.073,3.243c-0.602,1.146-1.237,2.275-1.812,3.434
							c-0.598,1.149-1.178,2.306-1.72,3.48c-0.573,1.162-1.064,2.357-1.581,3.544c-0.509,1.189-0.941,2.409-1.403,3.617
							c-0.371,1.234-0.851,2.45-1.135,3.704l-0.475,1.875c-0.135,0.633-0.224,1.279-0.337,1.918
							c-0.255,1.28-0.354,2.554-0.392,3.856C405.575,224.068,405.578,225.385,406.003,226.622z"/>
					</g>
				</g>
				<g>
					<path fill="#4F4F4F" d="M448.105,202.387c3.711,0.183,9.06,1.479,12.58,2.436c1.92-1.112,3.615-1.793,3.615-1.793
						s-6.83-2.126-12.588-3.062C450.496,200.726,449.301,201.558,448.105,202.387z"/>
					<path fill="#4F4F4F" d="M436.796,199.071c0,0,9.62-3.605,16.888-3.067c1.439-0.761,2.922-1.379,4.485-1.716
						c-5.227-2.677-14.957-0.119-19.245,1.232C437.552,197.559,436.796,199.071,436.796,199.071z"/>
					<path fill="#4F4F4F" d="M405.646,222.838c0.777-7.5,4.742-16.212,8.333-22.92c5.309-9.593,13.245-14.854,18.519-17.72
						c1.613-1.676,3.243-3.314,4.619-5.198c-3.346,1.789-15.78,6.789-23.138,20.085c-3.591,6.708-7.556,15.42-8.333,22.92
						c-0.117,1.129-0.195,2.745-0.102,4.181C405.57,223.699,405.604,223.234,405.646,222.838z"/>
					<path fill="#4F4F4F" d="M424.295,197.567c-1.424,3.088-2.551,5.807-2.551,5.807s11.135-14.225,21.379-15.869
						c1.024-1.037,2.15-2.03,3.38-2.883C438.39,183.393,428.783,192.631,424.295,197.567z"/>
				</g>
				<g>
					<path fill="#03080C" d="M406.003,226.622c-0.479-1.214-0.544-2.55-0.586-3.845c-0.019-1.294,0.017-2.626,0.23-3.906
						c0.093-0.644,0.159-1.289,0.274-1.931l0.417-1.92c0.25-1.292,0.688-2.52,1.024-3.785c0.426-1.233,0.822-2.48,1.295-3.697
						c0.481-1.213,0.938-2.438,1.478-3.627c0.508-1.204,1.054-2.389,1.617-3.566c0.542-1.188,1.169-2.333,1.75-3.502
						c0.703-1.161,1.264-2.271,2.056-3.367c0.721-1.121,1.534-2.157,2.35-3.193c0.856-1,1.701-2.019,2.646-2.938
						c0.909-0.957,1.896-1.833,2.886-2.705l1.527-1.258l1.58-1.19c1.073-0.766,2.168-1.499,3.288-2.195
						c1.126-0.682,2.266-1.344,3.428-1.957l3.454-1.787l3.436-1.777l-2.354,3.02l-1.126,1.443l-1.192,1.365
						c-0.815,0.88-1.634,1.744-2.452,2.592c-0.812,0.849-1.597,1.71-2.35,2.584l-1.067,1.349l-0.961,1.408
						c-0.258,0.422-0.556,1.013-0.832,1.512l-0.844,1.561c-0.581,1.037-1.01,2.103-1.523,3.152c-0.5,1.045-0.984,2.108-1.447,3.196
						c-0.475,1.078-0.944,2.157-1.392,3.241l-1.608-0.939c0.82-1.033,1.651-1.996,2.516-2.957c0.862-0.956,1.748-1.891,2.658-2.803
						c1.821-1.823,3.743-3.555,5.803-5.138c2.056-1.585,4.276-2.999,6.708-4.069c0.617-0.251,1.233-0.502,1.876-0.701
						c0.639-0.203,1.291-0.386,1.963-0.5c0.665-0.137,1.352-0.202,2.039-0.233c0.347,0.002,0.692-0.011,1.039,0.008l1.041,0.105
						l2.31,0.232l-1.906,1.503l-1.436,1.131c-0.235,0.193-0.487,0.365-0.711,0.575l-0.659,0.646
						c-0.431,0.438-0.897,0.839-1.302,1.308l-1.214,1.404c-0.405,0.467-0.756,0.984-1.137,1.473
						c-0.386,0.488-0.727,1.008-1.072,1.525c-0.356,0.51-0.683,1.039-1.003,1.572c-0.327,0.522-0.631,1.081-0.908,1.6l-1.131-1.254
						c1.773-0.635,3.532-1.153,5.331-1.62c0.896-0.232,1.801-0.438,2.709-0.629c0.913-0.175,1.822-0.364,2.748-0.484
						c0.463-0.06,0.92-0.148,1.388-0.183l1.398-0.135c0.94-0.037,1.878-0.104,2.831-0.045c0.475,0.012,0.949,0.026,1.428,0.102
						c0.477,0.075,0.955,0.084,1.43,0.217c0.473,0.125,0.95,0.223,1.418,0.375l1.382,0.578l2.171,0.907l-2.37,0.613l-1.307,0.338
						c-0.427,0.155-0.857,0.299-1.282,0.46c-0.418,0.188-0.84,0.366-1.256,0.562c-0.409,0.215-0.822,0.421-1.229,0.643
						c-0.81,0.458-1.608,0.947-2.399,1.458l-2.363,1.582l-0.364-1.271l2.113,0.226c0.704,0.075,1.384,0.228,2.077,0.338
						s1.376,0.252,2.056,0.408c0.679,0.154,1.365,0.285,2.038,0.459c2.709,0.65,5.375,1.405,8.034,2.236l1.422,0.444l-1.383,0.555
						c-0.887,0.356-1.782,0.776-2.646,1.222c-0.869,0.443-1.712,0.932-2.52,1.466c-0.406,0.266-0.794,0.553-1.172,0.851
						c-0.196,0.142-0.363,0.312-0.547,0.466c-0.185,0.154-0.355,0.319-0.514,0.495c-0.157,0.175-0.341,0.334-0.471,0.527
						c-0.134,0.189-0.295,0.366-0.41,0.564l-0.327,0.604l-0.21,0.638l0.007-0.066c0.034,0.358,0.038,0.717,0.146,1.085
						c0.068,0.368,0.194,0.729,0.318,1.092c0.108,0.367,0.284,0.715,0.426,1.073c0.141,0.359,0.332,0.7,0.495,1.051
						c0.162,0.353,0.366,0.686,0.549,1.029c0.182,0.345,0.388,0.675,0.59,1.009c0.198,0.335,0.405,0.666,0.626,0.988
						c0.218,0.324,0.425,0.656,0.659,0.968c0.898,1.276,1.882,2.498,2.963,3.626c0.261,0.293,0.555,0.551,0.836,0.822
						c0.276,0.278,0.585,0.518,0.887,0.767c0.294,0.262,0.63,0.463,0.952,0.686c0.317,0.231,0.688,0.369,1.033,0.559
						c-0.351-0.173-0.731-0.296-1.061-0.513c-0.333-0.209-0.682-0.398-0.987-0.647c-0.315-0.237-0.639-0.465-0.929-0.732
						c-0.295-0.261-0.604-0.508-0.879-0.791c-0.575-0.541-1.111-1.12-1.642-1.704c-0.513-0.6-1.018-1.208-1.49-1.839
						c-0.248-0.308-0.468-0.637-0.699-0.957c-0.233-0.319-0.454-0.646-0.667-0.98c-0.216-0.331-0.437-0.66-0.633-1.004
						c-0.198-0.343-0.416-0.675-0.594-1.03c-0.18-0.354-0.386-0.695-0.545-1.062c-0.158-0.367-0.35-0.717-0.478-1.101
						c-0.144-0.376-0.289-0.751-0.379-1.155c-0.127-0.386-0.157-0.816-0.204-1.239l-0.003-0.032l0.01-0.034l0.227-0.783
						c0.109-0.243,0.236-0.477,0.356-0.715c0.128-0.233,0.294-0.434,0.44-0.651c0.143-0.224,0.331-0.399,0.498-0.597
						c0.168-0.199,0.347-0.384,0.538-0.553c0.188-0.172,0.366-0.361,0.566-0.518c0.39-0.329,0.788-0.645,1.202-0.936
						c1.654-1.178,3.418-2.129,5.286-2.932l0.038,0.999c-2.637-0.765-5.311-1.464-7.994-2.051c-0.669-0.159-1.345-0.273-2.017-0.412
						c-0.673-0.14-1.346-0.266-2.021-0.358c-0.675-0.093-1.35-0.23-2.022-0.288l-2.017-0.175l-1.941-0.168l1.577-1.103l2.355-1.646
						c0.799-0.54,1.615-1.062,2.454-1.56c0.425-0.243,0.859-0.472,1.289-0.708c0.441-0.22,0.895-0.422,1.342-0.633
						c0.46-0.187,0.931-0.356,1.397-0.533l1.452-0.407l-0.199,1.521l-1.157-0.454c-0.4-0.121-0.825-0.195-1.234-0.298
						c-0.408-0.112-0.854-0.117-1.278-0.182c-0.426-0.067-0.865-0.076-1.304-0.084c-0.873-0.051-1.762,0.021-2.645,0.06
						l-1.328,0.137c-0.443,0.035-0.885,0.125-1.327,0.185c-0.886,0.12-1.765,0.31-2.645,0.484c-0.878,0.191-1.753,0.397-2.624,0.628
						c-1.734,0.461-3.479,0.991-5.142,1.598l-2.21,0.809l1.079-2.062c0.317-0.605,0.62-1.167,0.963-1.726
						c0.331-0.561,0.67-1.117,1.038-1.653c0.358-0.543,0.712-1.089,1.112-1.604c0.396-0.517,0.76-1.058,1.184-1.555l1.272-1.492
						c0.425-0.497,0.921-0.936,1.379-1.406l0.702-0.693c0.237-0.227,0.512-0.42,0.766-0.631l1.557-1.239l0.403,1.735l-0.857-0.08
						c-0.287-0.014-0.578,0.002-0.867,0c-0.58,0.032-1.163,0.088-1.742,0.213c-0.58,0.102-1.157,0.268-1.727,0.454
						c-0.571,0.179-1.131,0.413-1.69,0.644c-2.22,0.995-4.31,2.345-6.295,3.839c-1.982,1.503-3.858,3.169-5.643,4.931
						c-0.892,0.882-1.762,1.787-2.608,2.714c-0.842,0.923-1.679,1.881-2.445,2.835l-4.205,5.229l2.598-6.167
						c0.463-1.1,0.944-2.187,1.43-3.271c0.472-1.086,0.974-2.172,1.503-3.257c0.532-1.071,1.004-2.2,1.587-3.223l0.854-1.555
						c0.301-0.533,0.531-1.003,0.891-1.588l1.05-1.516l1.145-1.426c0.796-0.914,1.61-1.795,2.44-2.65
						c0.829-0.848,1.644-1.697,2.441-2.546l1.15-1.299l1.065-1.348l1.081,1.243l-3.505,1.729c-1.15,0.577-2.271,1.199-3.382,1.84
						c-1.102,0.655-2.18,1.346-3.237,2.069l-1.558,1.124l-1.506,1.191c-0.977,0.827-1.953,1.658-2.854,2.568
						c-0.937,0.874-1.774,1.845-2.626,2.8c-0.812,0.991-1.624,1.983-2.332,3.037c-0.76,0.994-1.406,2.197-2.073,3.243
						c-0.602,1.146-1.237,2.275-1.812,3.434c-0.598,1.149-1.178,2.306-1.72,3.48c-0.573,1.162-1.064,2.357-1.581,3.544
						c-0.509,1.189-0.941,2.409-1.403,3.617c-0.371,1.234-0.851,2.45-1.135,3.704l-0.475,1.875
						c-0.135,0.633-0.224,1.279-0.337,1.918c-0.255,1.28-0.354,2.554-0.392,3.856C405.575,224.068,405.578,225.385,406.003,226.622z
						"/>
				</g>
			</g>
			<g>
				<path fill="#161616" d="M474.771,258.726c0,0-1.12,0.524-3.081,1.44c-0.955,0.481-2.259,0.915-3.69,1.485
					c-1.438,0.601-3.093,1.075-4.898,1.632c-0.897,0.297-1.851,0.531-2.839,0.768c-0.987,0.243-2.008,0.493-3.058,0.751
					c-1.061,0.202-2.149,0.409-3.263,0.621c-0.558,0.103-1.122,0.207-1.69,0.312c-0.573,0.074-1.152,0.15-1.735,0.226
					c-1.168,0.146-2.355,0.296-3.557,0.447c-1.206,0.094-2.428,0.188-3.658,0.284c-0.615,0.047-1.233,0.093-1.854,0.14l-1.867,0.059
					c-1.248,0.035-2.501,0.07-3.754,0.105c-1.317-0.013-2.494-0.063-3.743-0.093c-1.227-0.024-2.456-0.065-3.705-0.18
					c-1.239-0.093-2.469-0.185-3.684-0.276c-1.203-0.147-2.391-0.292-3.56-0.435c-0.584-0.073-1.162-0.145-1.736-0.216
					c-0.569-0.102-1.133-0.203-1.691-0.303c-1.114-0.208-2.204-0.413-3.265-0.612c-1.051-0.252-2.072-0.499-3.062-0.736
					c-0.987-0.24-1.944-0.458-2.842-0.752c-1.805-0.554-3.471-1.015-4.893-1.604c-1.427-0.563-2.699-0.972-3.69-1.462
					c-2-0.92-3.142-1.446-3.142-1.446c-0.552-0.253-0.793-0.906-0.539-1.458c0.243-0.528,0.853-0.772,1.388-0.568l0.071,0.027
					c0,0,1.136,0.435,3.123,1.197c0.974,0.422,2.232,0.753,3.633,1.226c1.396,0.493,3.035,0.853,4.787,1.346
					c0.874,0.258,1.809,0.439,2.771,0.64c0.963,0.2,1.957,0.407,2.98,0.619c1.033,0.16,2.095,0.324,3.18,0.491
					c0.542,0.086,1.09,0.172,1.643,0.26c0.557,0.063,1.119,0.127,1.687,0.191c1.134,0.126,2.286,0.255,3.453,0.386
					c1.165,0.075,2.344,0.151,3.532,0.228c0.597,0.034,1.186,0.088,1.794,0.107l1.843,0.032c1.218,0.019,2.439,0.039,3.662,0.058
					c1.219-0.022,2.438-0.043,3.652-0.065l1.817-0.037c0.603-0.04,1.203-0.079,1.802-0.119c1.196-0.08,2.384-0.16,3.557-0.238
					c1.167-0.135,2.319-0.268,3.452-0.398c0.567-0.067,1.129-0.135,1.686-0.201c0.553-0.089,1.1-0.178,1.642-0.265
					c1.084-0.171,2.146-0.338,3.179-0.501c1.021-0.217,2.015-0.429,2.976-0.634c0.964-0.198,1.894-0.395,2.767-0.655
					c1.75-0.496,3.394-0.871,4.767-1.364c1.394-0.476,2.613-0.8,3.619-1.243c2.016-0.788,3.168-1.238,3.168-1.238
					c0.565-0.222,1.204,0.057,1.426,0.623C475.542,257.87,475.29,258.481,474.771,258.726z"/>
			</g>
			<g>
				<linearGradient id="SVGID_21_" gradientUnits="userSpaceOnUse" x1="375.8027" y1="230.542" x2="378.6368" y2="196.7079">
					<stop  offset="0" style="stop-color:#070707"/>
					<stop  offset="1" style="stop-color:#070707;stop-opacity:0"/>
				</linearGradient>
				<path fill="url(#SVGID_21_)" d="M381.168,217.001c0,0-3.33-2.178-6.146-9.094c-1.828,4.545-3.063,9.844-3.063,16.095
					c0,2.909,0.388,5.735,1.141,8.454c3.777-6.175,8.068-9.447,8.068-11.701S381.168,217.001,381.168,217.001z"/>
				<linearGradient id="SVGID_22_" gradientUnits="userSpaceOnUse" x1="492.8281" y1="240.3438" x2="495.6621" y2="206.5108">
					<stop  offset="0" style="stop-color:#070707"/>
					<stop  offset="1" style="stop-color:#070707;stop-opacity:0"/>
				</linearGradient>
				<path fill="url(#SVGID_22_)" d="M495.915,207.131c-2.718,7.528-6.339,9.87-6.339,9.87v3.754
					c1.477,1.709,4.472,5.91,8.369,12.359c0.879-2.921,1.347-5.966,1.347-9.112C499.292,217.395,497.918,211.844,495.915,207.131z"
					/>
			</g>
			<g>
				<path fill="#6D6D6D" d="M403.685,260.447c-2.034,0.011-3.957-0.496-5.779-1.207c-1.8-0.768-3.554-1.644-5.275-2.583
					c-3.431-1.898-6.69-4.144-9.626-6.784c-2.924-2.648-5.52-5.701-7.545-9.128c-2.029-3.42-3.465-7.214-4.151-11.151
					c-0.345-1.973-0.507-3.951-0.493-5.974c0.005-1.891,0.148-3.956,0.395-5.896c0.277-1.96,0.664-3.907,1.185-5.821
					c0.54-1.908,1.201-3.781,1.983-5.601c1.555-3.648,3.631-7.045,5.946-10.21c2.288-3.18,4.963-6.071,7.217-9.038
					c0.553-0.741,1.071-1.496,1.44-2.243c0.187-0.373,0.322-0.738,0.42-1.086l0.349-1.413l1.439-5.61l2.902-11.194
					c1.923-7.462,3.855-14.927,5.63-22.405c0.438-1.865,0.887-3.743,1.239-5.584c0.083-0.442,0.169-0.949,0.188-1.261
					c0.003-0.034,0-0.051,0.004-0.016c0.009,0.044-0.006,0.067,0.078,0.28c0.091,0.128,0.114,0.361,0.632,0.601
					c0.783,0.158,0.177,0.042,0.346,0.077c-0.072,0-0.384-0.031-0.477-0.049c-0.282-0.04-0.537-0.093-0.797-0.147
					c-1.025-0.23-2.008-0.552-2.968-0.976c-1.896-0.836-3.77-2.139-4.914-4.134c-0.555-0.993-0.88-2.119-0.958-3.232
					c-0.082-1.116,0.065-2.207,0.33-3.231c0.132-0.542,0.286-0.956,0.497-1.55c0.201-0.445,0.354-0.86,0.665-1.384
					c0.557-0.979,1.216-1.822,2.033-2.547c1.622-1.444,3.614-2.318,5.604-2.793c2.002-0.467,4.028-0.599,6.022-0.542
					c2.007,0.07,3.946,0.297,5.943,0.744l0,0l-0.939,0.266c0.869-0.803,1.697-1.361,2.602-1.926
					c0.889-0.559,1.816-1.033,2.755-1.479c0.943-0.433,1.901-0.831,2.878-1.168c0.971-0.356,1.964-0.641,2.958-0.909
					c0.998-0.255,1.999-0.494,3.013-0.664c1.007-0.215,2.027-0.317,3.043-0.46c1.018-0.129,2.041-0.175,3.061-0.266l3.065-0.086
					l3.04,0.085c1.028,0.09,2.067,0.138,3.086,0.267c1.016,0.143,2.036,0.245,3.043,0.46c1.014,0.171,2.015,0.409,3.013,0.664
					c0.994,0.268,1.987,0.553,2.958,0.909c0.977,0.337,1.934,0.736,2.878,1.168c0.938,0.446,1.866,0.92,2.755,1.479
					c0.904,0.565,1.732,1.123,2.602,1.926l-0.939-0.266l0,0c1.995-0.447,3.934-0.674,5.938-0.746
					c1.993-0.058,4.017,0.072,6.019,0.538c1.989,0.475,3.981,1.345,5.604,2.785c1.618,1.427,2.717,3.486,3.198,5.458
					c0.275,1.056,0.419,2.121,0.343,3.245c-0.075,1.112-0.396,2.24-0.947,3.234c-1.135,2.003-3.008,3.31-4.901,4.15
					c-0.958,0.425-1.94,0.751-2.964,0.981c-0.259,0.056-0.516,0.109-0.795,0.15c-0.146,0.021-0.267,0.04-0.48,0.053l-0.082,0.003
					c-0.067-0.006,0.594-0.079,0.455-0.102c0.547-0.296,0.633-0.722,0.61-0.66c0.035-0.109,0.036-0.132,0.041-0.155
					c0.015-0.11,0.007-0.067,0.01-0.052c0.015,0.292,0.103,0.808,0.184,1.245c0.351,1.838,0.8,3.715,1.237,5.579
					c1.774,7.472,3.705,14.931,5.627,22.386l2.901,11.184l1.438,5.605l0.35,1.416l0.189,0.612l0.217,0.48
					c0.36,0.744,0.881,1.498,1.426,2.238c2.242,2.965,4.922,5.851,7.21,9.026c2.319,3.159,4.396,6.552,5.959,10.194
					c0.785,1.817,1.456,3.686,1.995,5.594c0.524,1.912,0.919,3.855,1.202,5.815c0.48,3.925,0.627,7.886-0.065,11.865
					c-0.671,3.937-2.092,7.736-4.107,11.163c-2.012,3.434-4.597,6.494-7.512,9.151c-2.929,2.646-6.177,4.904-9.603,6.807
					c-1.721,0.937-3.464,1.835-5.272,2.582c-1.827,0.697-3.739,1.196-5.773,1.213c3.182-2.505,6.75-3.67,10.039-5.592
					c3.294-1.859,6.394-4.05,9.166-6.588c2.758-2.549,5.176-5.459,7.038-8.688c1.866-3.225,3.161-6.766,3.759-10.429
					c0.616-3.627,0.46-7.454-0.021-11.156c-0.281-1.852-0.666-3.685-1.173-5.485c-0.521-1.796-1.167-3.555-1.92-5.268
					c-1.502-3.432-3.491-6.642-5.749-9.673c-2.246-3.059-4.805-5.85-7.217-9.023c-0.592-0.81-1.179-1.645-1.662-2.635
					c-0.125-0.265-0.244-0.562-0.358-0.844l-0.11-0.351l-0.053-0.173l-0.069-0.246l-0.341-1.389l-1.428-5.589l-2.888-11.189
					c-1.915-7.465-3.837-14.925-5.612-22.445c-0.435-1.888-0.861-3.763-1.218-5.712c-0.083-0.51-0.175-0.944-0.209-1.614
					c0.001-0.106-0.009-0.184,0.024-0.413c0.01-0.052,0.016-0.105,0.062-0.243c-0.015,0.033,0.086-0.419,0.652-0.738
					c-0.115-0.041,0.578-0.119,0.54-0.125l0.009-0.001l0.236-0.026c0.198-0.027,0.414-0.068,0.626-0.113
					c0.856-0.184,1.714-0.46,2.519-0.809c1.61-0.693,3.04-1.737,3.829-3.114c0.79-1.365,0.865-3.086,0.435-4.733
					c-0.427-1.764-1.236-3.241-2.491-4.4c-1.258-1.136-2.884-1.892-4.627-2.324c-3.494-0.853-7.387-0.672-10.973,0.036l0,0
					l-0.521,0.12l-0.418-0.385c-0.607-0.56-1.439-1.149-2.24-1.64c-0.812-0.511-1.675-0.952-2.549-1.368
					c-0.881-0.403-1.779-0.778-2.7-1.096c-0.913-0.336-1.854-0.605-2.798-0.859c-0.947-0.242-1.899-0.47-2.867-0.632
					c-0.959-0.206-1.938-0.302-2.911-0.44c-0.973-0.124-1.942-0.166-2.914-0.255l-2.98-0.084l-2.956,0.083
					c-0.979,0.089-1.965,0.132-2.939,0.256c-0.972,0.138-1.951,0.234-2.91,0.44c-0.969,0.162-1.92,0.39-2.867,0.631
					c-0.943,0.254-1.885,0.524-2.798,0.86c-0.921,0.318-1.819,0.692-2.7,1.096c-0.874,0.416-1.738,0.857-2.549,1.368
					c-0.801,0.49-1.633,1.08-2.24,1.64l-0.418,0.385l-0.521-0.12l0,0c-3.589-0.709-7.484-0.892-10.982-0.036
					c-1.745,0.432-3.373,1.191-4.63,2.329c-0.626,0.557-1.154,1.266-1.544,1.961c-0.195,0.301-0.385,0.789-0.575,1.225
					c-0.097,0.319-0.283,0.808-0.367,1.208c-0.437,1.682-0.351,3.382,0.443,4.755c0.797,1.376,2.231,2.42,3.846,3.111
					c0.806,0.35,1.666,0.622,2.523,0.806c0.211,0.042,0.429,0.085,0.625,0.11c0.146,0.017,0.072,0.017,0.241,0.025
					c0.199,0.039-0.375-0.084,0.436,0.088c0.547,0.247,0.584,0.514,0.689,0.667c0.106,0.268,0.099,0.352,0.116,0.456
					c0.013,0.155,0.011,0.259,0.007,0.345c-0.038,0.65-0.129,1.094-0.213,1.601c-0.358,1.948-0.786,3.825-1.221,5.714
					c-1.779,7.526-3.704,14.992-5.621,22.463l-2.891,11.197l-1.429,5.594l-0.343,1.394c-0.156,0.583-0.365,1.12-0.609,1.61
					c-0.489,0.981-1.074,1.819-1.67,2.623c-2.417,3.166-4.976,5.963-7.219,9.027c-2.253,3.038-4.245,6.252-5.739,9.692
					c-0.751,1.716-1.388,3.48-1.911,5.278c-0.504,1.803-0.882,3.64-1.158,5.495c-0.246,1.883-0.391,3.667-0.414,5.632
					c-0.025,1.831,0.112,3.712,0.421,5.537c0.612,3.666,1.923,7.208,3.803,10.43c1.877,3.227,4.308,6.133,7.078,8.676
					c2.781,2.536,5.894,4.717,9.194,6.573C396.91,256.832,400.501,257.903,403.685,260.447z"/>
			</g>
			<g>
				<linearGradient id="SVGID_23_" gradientUnits="userSpaceOnUse" x1="398.6934" y1="186.8799" x2="405.8604" y2="179.0464">
					<stop  offset="0" style="stop-color:#070707"/>
					<stop  offset="1" style="stop-color:#070707;stop-opacity:0"/>
				</linearGradient>
				<circle fill="url(#SVGID_23_)" cx="400.077" cy="185.367" r="9.667"/>
				<linearGradient id="SVGID_24_" gradientUnits="userSpaceOnUse" x1="474.6191" y1="189.8765" x2="464.2867" y2="176.8771">
					<stop  offset="0" style="stop-color:#070707"/>
					<stop  offset="1" style="stop-color:#070707;stop-opacity:0"/>
				</linearGradient>
				<circle fill="url(#SVGID_24_)" cx="470.876" cy="185.167" r="9.667"/>
				<g>
					<circle fill="#1E1E1E" cx="398.375" cy="186.666" r="9.667"/>
					<g>
						<circle fill="#FDFFFF" cx="402.251" cy="183.333" r="2.416"/>
						<circle fill="#FDFFFF" cx="393.209" cy="191.292" r="1.124"/>
					</g>
				</g>
				<g>
					<circle fill="#1E1E1E" cx="472.876" cy="186.666" r="9.667"/>
					<g>
						<circle fill="#FDFFFF" cx="476.752" cy="183.333" r="2.416"/>
						<circle fill="#FDFFFF" cx="467.71" cy="191.292" r="1.124"/>
					</g>
				</g>
			</g>
			<g>
				<path fill="#FFD9D9" stroke="#F29C9C" stroke-width="2" stroke-miterlimit="10" d="M435.501,111.666
					c15.999,0,22.666,6.667,22.666,6.667s15.333-3.665,18.999,6.002c3.668,9.667-7.332,11.667-8.332,11.667
					c-0.082,0-7.758,1.33-11.9,1.33c-6.976,0-14.528-4.576-21.433-4.576c-6.903,0-14.458,4.576-21.434,4.576
					c-4.143,0-11.817-1.33-11.899-1.33c-1,0-12-2-8.333-11.667s18.999-6.002,18.999-6.002S419.501,111.666,435.501,111.666z"/>
				<path opacity="0.6" fill="#F29C9C" d="M393.835,127.43c3.667-9.667,18.999-6.002,18.999-6.002s6.667-6.667,22.667-6.667
					c15.999,0,22.666,6.667,22.666,6.667s15.333-3.665,18.999,6.002c0.279,0.736,0.465,1.423,0.585,2.073
					c0.307-1.415,0.193-3.118-0.585-5.169c-3.666-9.667-18.999-6.002-18.999-6.002s-6.667-6.667-22.666-6.667
					c-16,0-22.667,6.667-22.667,6.667s-15.332-3.665-18.999,6.002c-0.778,2.051-0.892,3.753-0.585,5.168
					C393.37,128.853,393.556,128.167,393.835,127.43z"/>
				<g>
					<g>
						<path fill="#F29C9C" d="M399.96,122.334c0,0,0.706-0.477,1.822-0.922c0.586-0.183,1.297-0.351,2.076-0.487
							c0.753-0.081,1.562-0.141,2.367-0.131c0.801,0.043,1.606,0.084,2.346,0.228c0.741,0.13,1.427,0.289,2.004,0.494
							c1.159,0.359,1.885,0.818,1.885,0.818c0,0-0.826,0.207-2.01,0.323c-1.188,0.128-2.736,0.182-4.269,0.135
							c-0.382-0.009-0.764-0.019-1.14-0.028c-0.376-0.012-0.748-0.041-1.106-0.072c-0.689-0.016-1.348-0.071-1.937-0.158
							C400.796,122.514,399.96,122.334,399.96,122.334z"/>
					</g>
					<g>
						<path fill="#F29C9C" d="M471.042,122.334c0,0-0.837,0.179-2.038,0.2c-0.589,0.086-1.247,0.142-1.937,0.158
							c-0.358,0.031-0.73,0.06-1.106,0.072c-0.376,0.009-0.758,0.019-1.14,0.028c-1.532,0.047-3.08-0.006-4.269-0.135
							c-1.184-0.117-2.01-0.324-2.01-0.323c0,0,0.726-0.459,1.885-0.818c0.577-0.205,1.263-0.364,2.004-0.494
							c0.739-0.144,1.545-0.185,2.346-0.228c0.805-0.009,1.614,0.051,2.367,0.131c0.778,0.136,1.49,0.304,2.076,0.487
							C470.336,121.858,471.042,122.334,471.042,122.334z"/>
					</g>
				</g>
			</g>
			<g>
				<linearGradient id="SVGID_25_" gradientUnits="userSpaceOnUse" x1="516.0205" y1="192.4849" x2="489.0209" y2="305.1498">
					<stop  offset="0" style="stop-color:#F4F4F4"/>
					<stop  offset="1" style="stop-color:#D2D2D2"/>
				</linearGradient>
				<path fill="url(#SVGID_25_)" d="M487.477,215.001c0,0,12.803-1.746,24.469-1.746c11.667,0,14.502-19.92,18.834-15.587
					c4.334,4.333,8.166,28.253-11.834,30.587s-23.803-6.254-29.469-5.92"/>
				<path fill="#6D6D6D" d="M487.477,215.001c0,0,0.467-0.077,1.344-0.222c0.875-0.151,2.163-0.338,3.808-0.559
					c0.822-0.111,1.732-0.234,2.724-0.369c0.994-0.105,2.07-0.219,3.219-0.341c1.15-0.122,2.374-0.251,3.664-0.389
					c1.289-0.164,2.657-0.166,4.079-0.262c1.424-0.075,2.907-0.152,4.443-0.233c0.384-0.02,0.771-0.039,1.162-0.059
					c0.31-0.027,0.769-0.044,1.127-0.087c0.681-0.117,1.413-0.271,2.108-0.571c1.402-0.553,2.696-1.481,3.838-2.64
					c1.151-1.149,2.18-2.499,3.132-3.95c0.96-1.448,1.833-3.004,2.765-4.591c0.468-0.794,0.945-1.599,1.516-2.401
					c0.284-0.401,0.608-0.797,0.986-1.187c0.405-0.375,0.873-0.788,1.621-0.989c0.196-0.032,0.398-0.053,0.597-0.062
					c0.197,0.016,0.397,0.058,0.593,0.103c0.344,0.121,0.704,0.298,0.923,0.502c0.138,0.119,0.21,0.162,0.397,0.349l0.231,0.264
					c0.148,0.152,0.325,0.41,0.488,0.64c0.612,0.911,1.01,1.801,1.381,2.735c0.689,1.861,1.146,3.78,1.39,5.725
					c0.462,3.88,0.239,7.902-1.094,11.602c-1.279,3.707-3.943,6.927-7.244,8.729c-1.635,0.918-3.379,1.552-5.119,1.892
					c-0.872,0.226-1.718,0.277-2.61,0.414c-0.833,0.061-1.655,0.121-2.466,0.18c-3.279,0.188-6.447,0.144-9.289-0.325
					c-2.857-0.422-5.411-1.197-7.553-2.129c-2.148-0.922-3.886-1.97-5.328-2.769c-1.443-0.791-2.61-1.373-3.488-1.509
					c-0.424-0.14-0.771-0.088-0.996-0.129c-0.229-0.018-0.348-0.026-0.348-0.026s0.118,0,0.348-0.001
					c0.227,0.022,0.578-0.056,1.015,0.05c0.9,0.076,2.153,0.548,3.647,1.27c1.499,0.718,3.279,1.65,5.426,2.423
					c2.143,0.778,4.647,1.376,7.424,1.682c2.788,0.33,5.809,0.242,9.013-0.024c0.809-0.084,1.629-0.169,2.46-0.255
					c0.75-0.146,1.601-0.222,2.378-0.456c1.599-0.373,3.171-0.962,4.611-1.814c1.444-0.844,2.75-1.954,3.814-3.294
					c1.064-1.339,1.894-2.891,2.486-4.555c1.187-3.339,1.382-7.089,0.931-10.702c-0.215-1.812-0.634-3.602-1.244-5.282
					c-0.314-0.82-0.7-1.654-1.132-2.305c-0.108-0.151-0.18-0.294-0.357-0.481l-0.229-0.265c0.017,0.027-0.098-0.073-0.137-0.106
					c-0.247-0.183-0.35-0.226-0.48-0.189c-0.362,0.076-1.021,0.731-1.503,1.421c-0.515,0.694-0.992,1.461-1.465,2.232
					c-0.947,1.545-1.87,3.123-2.899,4.615c-1.026,1.493-2.134,2.929-3.448,4.15c-1.294,1.232-2.798,2.255-4.448,2.85
					c-0.813,0.316-1.666,0.482-2.546,0.591c-0.428,0.034-0.755,0.035-1.221,0.054c-0.388,0.004-0.771,0.009-1.152,0.014
					c-1.524,0.015-2.997,0.029-4.411,0.043c-2.831-0.013-5.425,0.141-7.727,0.247c-1.152,0.054-2.229,0.104-3.227,0.15
					c-0.994,0.075-1.907,0.144-2.732,0.206c-1.649,0.137-2.953,0.191-3.836,0.281C487.948,214.961,487.477,215.001,487.477,215.001z
					"/>
			</g>
			<g>
				<linearGradient id="SVGID_26_" gradientUnits="userSpaceOnUse" x1="179.6392" y1="534.3755" x2="402.3032" y2="131.7133">
					<stop  offset="0" style="stop-color:#1E1E1E"/>
					<stop  offset="1" style="stop-color:#333333"/>
				</linearGradient>
				<path fill="url(#SVGID_26_)" d="M383.168,215.001c0,0-14,4.333-25.667,4.333c-11.666,0-21.667-16-26-11.667s-1,24.333,19,26.667
					s25.001-12.333,30.667-12"/>
				<path fill="#03080C" d="M383.168,215.001c0,0-1.89,0.673-5.273,1.623c-0.85,0.223-1.79,0.47-2.814,0.739
					c-1.032,0.241-2.148,0.5-3.341,0.779c-2.396,0.511-5.112,1.064-8.124,1.399c-1.496,0.24-3.08,0.295-4.716,0.401
					c-0.409,0.024-0.822,0.049-1.238,0.074c-0.473,0.014-0.844-0.016-1.275-0.021c-0.906-0.081-1.794-0.206-2.662-0.43
					c-3.513-0.865-6.782-2.807-9.867-5.007c-1.546-1.103-3.067-2.281-4.604-3.426c-1.533-1.122-3.116-2.309-4.725-2.959
					c-0.4-0.169-0.787-0.24-1.137-0.274c-0.336,0.009-0.63,0.041-0.876,0.208c-0.112,0.062-0.28,0.221-0.335,0.268
					c-0.153,0.185-0.354,0.399-0.402,0.527l-0.133,0.214l-0.13,0.282c-0.096,0.183-0.166,0.388-0.233,0.595
					c-0.539,1.671-0.554,3.622-0.284,5.487c0.527,3.764,2.188,7.396,4.609,10.273c2.42,2.892,5.584,5.046,8.982,6.298
					c1.691,0.65,3.44,1.069,5.177,1.34c0.858,0.163,1.727,0.225,2.618,0.328c0.854,0.045,1.692,0.12,2.537,0.107
					c3.366,0.044,6.535-0.51,9.303-1.487c2.773-0.98,5.118-2.394,7.082-3.799c1.965-1.414,3.554-2.834,4.933-3.929
					c1.365-1.107,2.578-1.855,3.499-2.11c0.454-0.141,0.822-0.175,1.063-0.174c0.243,0.004,0.369,0.006,0.369,0.006
					s-0.125,0.007-0.367,0.022c-0.239,0.017-0.598,0.078-1.029,0.249c-0.883,0.311-1.985,1.144-3.283,2.305
					c-1.305,1.16-2.813,2.672-4.732,4.224c-1.913,1.545-4.256,3.151-7.125,4.28c-2.85,1.146-6.174,1.865-9.699,1.907
					c-0.877,0.038-1.783-0.013-2.693-0.038c-0.866-0.075-1.786-0.115-2.711-0.26c-1.843-0.223-3.711-0.659-5.542-1.316
					c-3.661-1.289-7.204-3.54-9.856-6.709c-2.666-3.141-4.504-7.067-5.111-11.24c-0.277-2.086-0.29-4.254,0.403-6.394
					c0.089-0.267,0.184-0.532,0.317-0.794l0.189-0.393l0.264-0.419c0.191-0.312,0.343-0.454,0.506-0.652
					c0.292-0.302,0.508-0.476,0.815-0.667c0.598-0.383,1.328-0.491,1.97-0.476c0.635,0.05,1.224,0.195,1.734,0.407
					c2.054,0.85,3.597,2.108,5.157,3.281c1.542,1.192,3.021,2.379,4.515,3.484c2.98,2.187,6.022,4.112,9.209,4.99
					c0.795,0.231,1.589,0.359,2.347,0.457c0.404,0.018,0.862,0.061,1.212,0.057c0.406-0.01,0.81-0.019,1.209-0.028
					c1.6-0.04,3.151-0.03,4.635-0.207c2.975-0.227,5.693-0.619,8.098-0.989c1.2-0.21,2.323-0.406,3.361-0.588
					c1.034-0.21,1.983-0.404,2.841-0.579c1.707-0.388,3.058-0.667,3.967-0.899C382.682,215.122,383.168,215.001,383.168,215.001z"/>
			</g>
			<linearGradient id="SVGID_27_" gradientUnits="userSpaceOnUse" x1="436.4834" y1="110.2495" x2="435.4834" y2="138.8737">
				<stop  offset="0" style="stop-color:#FFFFFF"/>
				<stop  offset="1" style="stop-color:#FFFFFF;stop-opacity:0"/>
			</linearGradient>
			<path fill="url(#SVGID_27_)" d="M454.814,125.584c-2.123,0-5.994-6.602-14.824-8.488c-0.839-0.325-1.979-0.512-3.495-0.512
				c-0.229,0-0.438,0.024-0.661,0.03c-0.224-0.006-0.432-0.03-0.661-0.03c-1.517,0-2.656,0.187-3.495,0.512
				c-8.831,1.887-12.702,8.488-14.825,8.488c-2.476,0-17.482-0.5-17.482,3.25c0,4.25,13.208,4.75,17.482,4.75
				c3.744,0,12.487-4.548,18.981-4.548s15.236,4.548,18.98,4.548c4.274,0,17.483-0.5,17.483-4.75
				C472.298,125.084,457.29,125.584,454.814,125.584z"/>
			<g>
				<path fill="#FFFFFF" d="M493.084,217.084c0,0,2.666-0.09,6.635-0.095c1.979-0.01,4.288-0.021,6.762-0.034
					c1.233,0.001,2.506-0.045,3.79-0.078c1.286-0.03,2.589-0.098,3.855-0.243c0.641-0.047,1.254-0.157,1.844-0.264l0.751-0.194
					l0.881-0.42c0.854-0.536,1.87-1.375,2.712-2.19c0.84-0.86,1.659-1.705,2.39-2.558c0.734-0.846,1.42-1.665,2.042-2.431
					c1.239-1.536,2.258-2.842,2.969-3.759c0.713-0.92,1.12-1.446,1.12-1.446s-1.031,2.468-3.154,5.871
					c-1.062,1.701-2.387,3.641-4.1,5.546c-0.46,0.456-0.878,0.952-1.404,1.39c-0.265,0.224-0.487,0.453-0.792,0.675l-0.947,0.642
					l-0.881,0.44L517.42,218l-0.067,0.02l-0.134,0.039l-0.268,0.077l-0.539,0.152c-0.701,0.144-1.395,0.277-2.074,0.336
					c-1.366,0.131-2.711,0.176-4.03,0.184c-1.321,0.024-2.613-0.041-3.861-0.095c-1.249-0.044-2.452-0.153-3.591-0.248
					c-1.14-0.091-2.213-0.214-3.203-0.334C495.691,217.661,493.084,217.084,493.084,217.084z"/>
			</g>
			<g>
				<path fill="#606060" d="M376.563,220.123c0,0-0.689,0.175-1.872,0.525c-1.18,0.334-2.852,0.887-4.874,1.505
					c-2.021,0.625-4.399,1.333-7.031,1.871c-1.32,0.245-2.695,0.505-4.129,0.589c-1.425,0.133-2.911,0.07-4.393-0.085
					c-1.464-0.229-2.999-0.718-4.25-1.282c-1.313-0.549-2.535-1.201-3.717-1.829c-2.349-1.28-4.442-2.628-6.175-3.867
					c-1.739-1.231-3.115-2.36-4.03-3.207c-0.461-0.419-0.795-0.783-1.008-1.043c-0.105-0.131-0.178-0.239-0.215-0.319
					c-0.038-0.08-0.032-0.128-0.036-0.126c0.004-0.001,0.009,0.047,0.06,0.112c0.051,0.067,0.141,0.154,0.268,0.257
					c0.253,0.208,0.659,0.472,1.173,0.804c1.037,0.657,2.559,1.533,4.398,2.549c1.846,1.004,4.012,2.146,6.365,3.271
					c1.172,0.566,2.413,1.095,3.658,1.615c1.291,0.548,2.467,0.881,3.789,1.086c1.313,0.154,2.653,0.243,3.994,0.139
					c1.335-0.069,2.664-0.208,3.947-0.394c1.282-0.207,2.53-0.401,3.713-0.625c1.188-0.222,2.31-0.432,3.346-0.625
					c2.081-0.391,3.832-0.665,5.075-0.784c0.617-0.082,1.104-0.084,1.435-0.108C376.387,220.132,376.563,220.123,376.563,220.123z"
					/>
			</g>
			<radialGradient id="SVGID_28_" cx="434.834" cy="195.334" r="129.768" gradientUnits="userSpaceOnUse">
				<stop  offset="0.3318" style="stop-color:#FFFFFF;stop-opacity:0"/>
				<stop  offset="1" style="stop-color:#FFFFFF"/>
			</radialGradient>
			<ellipse opacity="0.3" fill="url(#SVGID_28_)" cx="437.314" cy="232.811" rx="45.229" ry="24.904"/>
		</g>
		<path fill="#F4F4F4" stroke="#6D6D6D" stroke-width="2" stroke-miterlimit="10" d="M460.334,122.334"/>
	</g>
</g>
</svg>
