<?xml version="1.0" encoding="UTF-8" standalone="no"?>
<!-- Generator: Adobe Illustrator 16.0.0, SVG Export Plug-In . SVG Version: 6.00 Build 0) -->

<svg
   xmlns:dc="http://purl.org/dc/elements/1.1/"
   xmlns:cc="http://creativecommons.org/ns#"
   xmlns:rdf="http://www.w3.org/1999/02/22-rdf-syntax-ns#"
   xmlns:svg="http://www.w3.org/2000/svg"
   xmlns="http://www.w3.org/2000/svg"
   xmlns:sodipodi="http://sodipodi.sourceforge.net/DTD/sodipodi-0.dtd"
   xmlns:inkscape="http://www.inkscape.org/namespaces/inkscape"
   id="Layer_1"
   xml:space="preserve"
   x="0px"
   y="0px"
   width="4240"
   height="3440"
   viewBox="0 0 4240.0001 3440"
   version="1.1"
   enable-background="new 0 0 63.134 121.823"
   inkscape:version="0.91 r13725"
   sodipodi:docname="NightModeVan_Wreckage.svg"><sodipodi:namedview
     pagecolor="#ffffff"
     bordercolor="#666666"
     borderopacity="1"
     objecttolerance="10"
     gridtolerance="10"
     guidetolerance="10"
     inkscape:pageopacity="0"
     inkscape:pageshadow="2"
     inkscape:window-width="1412"
     inkscape:window-height="732"
     id="namedview5040"
     showgrid="false"
     inkscape:zoom="0.10756503"
     inkscape:cx="2207.2516"
     inkscape:cy="1627.3194"
     inkscape:window-x="78"
     inkscape:window-y="0"
     inkscape:window-maximized="0"
     inkscape:current-layer="Layer_1"
     showguides="false" /><metadata
     id="metadata3451"><rdf:RDF><cc:Work
         rdf:about=""><dc:format>image/svg+xml</dc:format><dc:type
           rdf:resource="http://purl.org/dc/dcmitype/StillImage" /><dc:title /></cc:Work></rdf:RDF></metadata><defs
     id="defs3449"><linearGradient
       id="linearGradient4862"
       y2="111.5"
       gradientUnits="userSpaceOnUse"
       y1="63.147999"
       x2="29.584"
       x1="29.584"
       gradientTransform="matrix(0.33759066,0,0,0.33759066,-0.00724255,82.173574)"><stop
         id="stop3379"
         stop-color="#DF0000"
         offset="0" /><stop
         id="stop3381"
         stop-color="#A00404"
         offset="1" /></linearGradient><linearGradient
       id="linearGradient14621"
       y2="29.846001"
       gradientUnits="userSpaceOnUse"
       x2="50.723999"
       y1="29.846001"
       x1="8.441"
       gradientTransform="matrix(0.33759066,0,0,0.33759066,-0.00724255,82.173574)"><stop
         id="stop3063"
         offset="0" /><stop
         id="stop3065"
         stop-color="#505050"
         offset=".1426" /><stop
         id="stop3067"
         stop-color="#505050"
         offset=".834" /><stop
         id="stop3069"
         offset="1" /></linearGradient></defs><g
     id="g8244"
     transform="matrix(0.33876833,0,0,0.34058797,2109.9924,1699.9707)"><path
       id="path8182"
       d="m 29.576,0.80304 c 14.633,0 19.216,3.939 21.18,5.453 1.898,1.461 2.699,17.196 2.771,25.381 -0.1425,1.0952 -0.06121,2.4394 -0.378,3.434 l 0.18,25.97 -47.507,0 0.179,-25.97 c -0.1925,-3.42 0.2972,-2.425 -0.377,-3.439 0.074,-8.185 0.874,-23.915 2.772,-25.376 1.964,-1.514 6.547,-5.453 21.18,-5.453 m 0,-0.717 c -14.405,4.2e-5 -19.321,3.818 -21.421,5.449 l -0.197,0.153 c -0.413,0.318 -0.955,1.044 -1.49,3.865 -0.324,1.709 -0.612,3.999 -0.856,6.808 -0.434,4.992 -0.64,10.562 -0.694,14.423 l -0.043,0 c -1.253,0 -3.849,0.798 -4.562,1.742 -0.80713,1.3295 0.14403,2.8927 1.901,2.683 0.438,0 0.941,-0.074 1.494,-0.221 0.586,-0.155 1.025,-0.309 1.357,-0.458 0.072,0.323 0.154,0.553 0.219,0.705 l -0.178,25.801 -0.005,0.722 48.95,0 -0.005,-0.722 -0.179,-25.802 c 0.064,-0.148 0.145,-0.37 0.215,-0.679 0.324,0.141 0.746,0.285 1.299,0.432 0.553,0.147 1.057,0.221 1.494,0.221 1.7333,0.19235 2.6994,-1.5536 1.901,-2.683 -0.71,-0.939 -3.282,-1.734 -4.542,-1.742 -0.055,-3.859 -0.261,-9.428 -0.694,-14.42 -0.244,-2.809 -0.532,-5.1 -0.856,-6.81 -0.535,-2.821 -1.077,-3.548 -1.49,-3.866 l -0.197,-0.152 c -2.101,-1.631 -7.018,-5.449 -21.421,-5.449 z"
       inkscape:connector-curvature="0"
       style="fill:#3f3f3f" /><path
       id="path8184"
       d="m 53.33,61.041 -0.18,-25.97 c 0,0 0.441,-0.698 0.382,-2.609 C 53.508,24.564 52.72,7.768 50.756,6.256 48.792,4.742 44.209,0.803 29.576,0.803 14.943,0.80304 10.36,4.742 8.395,6.256 6.431,7.768 5.643,24.564 5.62,32.462 c -0.06,1.911 0.382,2.609 0.382,2.609 l -0.179,25.97 47.507,0 z"
       inkscape:connector-curvature="0"
       style="fill:#c2b7b9" /><path
       id="path8186"
       d="m 9.285,61.041 c 0,0 -3.204,-1.558 -3.523,-5.895 l 0,5.895 3.523,0 z"
       inkscape:connector-curvature="0"
       style="clip-rule:evenodd;fill:#3f3f3f;fill-rule:evenodd" /><path
       id="path8188"
       d="m 49.834,61.041 c 0,0 3.205,-1.558 3.523,-5.895 l 0,5.895 -3.523,0 z"
       inkscape:connector-curvature="0"
       style="clip-rule:evenodd;fill:#3f3f3f;fill-rule:evenodd" /><path
       id="path8190"
       d="m 16.28,3.4922 c -0.819,0.1645 -6.6329,2.9353 -7.4685,3.875 -0.956,1.075 -1.435,4.3548 -1.375,5.9068 0.478,-0.058 0.402,-1.794 1,-2.688 0.597,-0.897 6.1195,-5.553 7.8745,-7 0.117,-0.0961 0.086,-0.1172 -0.031,-0.0938 z m 26.407,0 c -0.004,0.0166 0.004,0.0457 0.062,0.0938 1.756,1.447 7.248,6.103 7.844,7 0.597,0.894 0.554,2.63 1.031,2.688 0.061,-1.552 -0.42,-4.8318 -1.375,-5.9068 -0.895,-1.0068 -7.507,-4.123 -7.562,-3.875 z"
       inkscape:connector-curvature="0" /><path
       id="path8192"
       d="m 50.852,24.889 -0.168,-0.192 c -3.977,-4.554 -13.365,-5.138 -21.099,-5.138 -7.734,0 -17.122,0.584 -21.099,5.138 L 8.393,24.803 8.304,24.694 c -0.066,-0.082 0.23,-6.515 0.233,-6.58 0.212,-4.511 0.421,-7.29 0.621,-8.262 L 9.164,9.824 9.183,9.802 C 9.668,9.203 13.322,5.885 15.631,4.05 l 0.017,-0.016 c 0.014,-0.014 0.027,-0.027 0.041,-0.039 0.259,-0.23 0.554,-0.451 0.877,-0.658 l 0.025,-0.016 c 3.391,-2.16 9.402,-2.16 12.994,-2.16 3.582,0 9.568,0 12.976,2.147 l 0.029,0 0.031,0.022 c 0.075,0.055 0.154,0.113 0.236,0.174 0.131,0.091 0.266,0.193 0.42,0.32 2.248,1.749 6.213,5.333 6.735,5.977 l 0.019,0.022 0.006,0.028 c 0.475,2.311 0.865,14.093 0.882,14.593 l -0.067,0.445 z M 29.584,19.32 c 7.668,0 16.957,0.575 21.093,5.014 C 50.636,23.184 50.254,12.176 49.808,9.929 49.224,9.237 45.345,5.735 43.128,4.012 42.976,3.887 42.846,3.787 42.718,3.699 42.646,3.645 42.577,3.595 42.512,3.548 l -0.022,0 -0.029,-0.02 C 39.117,1.4 33.15,1.4 29.585,1.4 26.02,1.4 20.051,1.4 16.708,3.528 16.388,3.733 16.1,3.949 15.847,4.174 L 15.786,4.232 C 13.507,6.044 9.933,9.283 9.386,9.93 9.128,12.268 8.761,22.525 8.694,24.49 12.849,20.085 22.106,19.512 29.752,19.512 Z"
       inkscape:connector-curvature="0"
       style="fill:#333333" /><path
       id="path8194"
       d="m 29.598,19.27 c 6.837,0 15.229,0.482 19.775,3.884 C 49.852,22.325 46.434,6.77 43.414,4.085 40.371,1.377 34.194,1.28 29.598,1.28 25,1.279 18.824,1.376 15.78,4.084 12.761,6.77 9.344,22.324 9.822,23.153 14.368,19.752 22.76,19.27 29.598,19.27 Z"
       inkscape:connector-curvature="0"
       style="fill:#c2b7b9" /><path
       id="path8196"
       d="m 47.539,19.789 c -0.211,-0.746 -0.615,-2.332 -1.037,-2.664 -0.422,-0.332 -8.26,-2.557 -8.706,-2.104 -0.446,0.452 -0.084,2.604 0.179,2.888 0.143,0.153 2.533,0.434 4.941,0.94 2.05,0.432 3.982,1.245 4.201,1.332 0.474,0.19 0.541,0.031 0.422,-0.392 z m -35.762,0 c 0.21,-0.746 0.616,-2.332 1.037,-2.664 0.421,-0.332 8.259,-2.557 8.706,-2.104 0.446,0.452 0.084,2.604 -0.179,2.888 -0.142,0.153 -2.533,0.434 -4.941,0.94 -2.05,0.432 -3.983,1.245 -4.201,1.332 -0.474,0.19 -0.541,0.031 -0.422,-0.392 z"
       inkscape:connector-curvature="0"
       style="fill:#3c3c3c" /><path
       id="path8198"
       d="m 14.187,5.8986 c -1.221,1.121 -4.1014,3.8659 -4.4064,4.3439 l -0.7812,12.907 c 0.949,-6.771 2.9366,-13.469 5.1876,-17.25 z m 30.813,0 c 2.25,3.781 4.2386,10.479 5.1876,17.25 l -0.781,-12.907 c -0.305,-0.4775 -3.186,-3.2224 -4.407,-4.3434 z"
       inkscape:connector-curvature="0" /><path
       id="path8200"
       d="M 42.589,3.481 C 42.59,3.477 42.59,3.474 42.591,3.471 39.354,1.363 33.805,1.28 29.585,1.28 c -4.21,0 -9.745,0.082 -12.984,2.177 0.002,0.008 0.004,0.017 0.006,0.024 -0.913,1.023 5.257,-0.848 12.991,-0.768 7.734,-0.08 13.902,1.791 12.991,0.768 z"
       inkscape:connector-curvature="0"
       style="fill:#191919;stroke:#1f1f1f;stroke-width:0.2" /><path
       id="path8202"
       d="m 6.9054,27.18 c -0.2189,0.297 -0.0312,5.156 -0.0312,5.156 0,0 0.25,20.081 0.25,21.5 0,0.509 0.8898,1.762 1.0938,1.125 0.1639,-0.511 0.1874,-1.25 0.1874,-1.25 0,0 0.2188,-9.923 0.2188,-11.594 0,-1.671 -1.2548,-14.9 -1.7188,-14.937 z m 45.375,0 c -0.464,0.037 -1.719,13.266 -1.719,14.937 0,1.671 0.219,11.594 0.219,11.594 0,0 0.024,0.739 0.188,1.25 0.204,0.637 1.093,-0.616 1.093,-1.125 0,-1.419 0.219,-21.5 0.219,-21.5 0,0 0.218,-4.859 0,-5.156 z"
       inkscape:connector-curvature="0"
       style="fill:#171d23" /><path
       id="path8204"
       d="m 6.9367,30.93 c -0.135,0.018 -0.4448,0.689 -1.4687,0.718 -0.6692,-0.596 -2.9889,0.195 -3.875,0.719 -1.0958,0.557 -1.2849,1.447 -0.2813,2.125 1.164,-0.687 2.935,-1.25 4.875,-1.25 1.045,0 1.5345,2.725 1.8125,1.532 0.279,-1.582 -0.2315,-3.937 -1.0625,-3.844 z m 45.062,0 c -0.742,0.187 -1.198,2.36 -0.938,3.844 0.278,1.193 0.799,-1.532 1.844,-1.532 1.94,0 3.711,0.563 4.875,1.25 0.814,-0.529 0.819,-1.43 0.125,-1.844 -2.577,-1.644 -4.127,-1.18 -4.281,-1 -1.023,-0.029 -1.334,-0.7 -1.469,-0.718 -0.052,-0.006 -0.107,-0.013 -0.156,0 z"
       inkscape:connector-curvature="0"
       style="fill:#0c0c0c" /><path
       id="path8206"
       d="m 29.562,61.041 19.788,0 c 0,0 0.213,-16.339 -0.584,-16.681 -3.345,-1.577 -11.705,-2.962 -19.204,-2.962 -7.499,0 -15.859,1.385 -19.204,2.962 -0.796,0.342 -0.583,16.681 -0.583,16.681 l 19.787,0"
       inkscape:connector-curvature="0"
       style="fill:#141414;stroke:#1f1f1f;stroke-width:0.2" /><path
       id="path8208"
       d="M 21.822,38.411"
       inkscape:connector-curvature="0"
       style="fill:#232323" /><g
       id="g8210"
       style="clip-rule:evenodd"><path
         id="path8212"
         d="M 9.285,59.844"
         stroke-miterlimit="10"
         inkscape:connector-curvature="0"
         style="fill:none;stroke:#3f3f3f;stroke-width:3;stroke-miterlimit:10" /><g
         id="g8214"
         style="fill-rule:evenodd"><path
           id="path8216"
           d="m 54.607,113.17 c 0,2.2 -1.799,4 -4,4 l -42.047,0 c -2.2,0 -4,-1.8 -4,-4 l 0,-47.892 c 0,-2.2 1.8,-4 4,-4 l 42.048,0 c 2.201,0 4,1.8 4,4 l 0,47.889 z"
           inkscape:connector-curvature="0"
           style="fill:#3c3c3c" /><path
           id="path8218"
           d="m 47.711,84.004 c 0,1.1 -0.9,2 -2,2 l -32.255,0 c -1.1,0 -2,-0.9 -2,-2 l 0,-14.311 c 0,-1.1 0.9,-2 2,-2 l 32.255,0 c 1.1,0 2,0.9 2,2 l 0,14.311 z"
           inkscape:connector-curvature="0"
           style="fill:#141414" /><path
           id="path8220"
           d="m 5.087,116.46 c -0.29,0 -0.527,-1.8 -0.527,-4 l 0,-47.419 c 0,-2.2 1.8,-4 4,-4 l 42.048,0 c 2.201,0 4,1.8 4,4 l 0,47.416 c 0,2.2 -0.24,4 -0.535,4 -0.294,0 -0.535,-1.8 -0.535,-4 l 0,-46.013 c 0,-2.2 -1.799,-4 -4,-4 l -39.924,0 c -2.2,0 -4,1.8 -4,4 l 0,46.01 c 0,2.2 -0.238,4 -0.527,4 z"
           inkscape:connector-curvature="0"
           style="fill:#141414" /></g></g><path
       id="path8222"
       d="m 53.652,117.53 -48.137,0 c -0.724,0 -1.313,-0.59 -1.313,-1.313 l 0,-53.99 c 0,-0.724 0.589,-1.313 1.313,-1.313 l 48.138,0 c 0.725,0 1.314,0.59 1.314,1.313 l 0,53.979 c 0,0.724 -0.59,1.313 -1.315,1.313 z M 5.515,61.637 c -0.329,0 -0.597,0.268 -0.597,0.597 l 0,53.979 c 0,0.329 0.268,0.597 0.597,0.597 l 48.138,0 c 0.33,0 0.598,-0.268 0.598,-0.597 l 0,-53.977 c 0,-0.329 -0.268,-0.597 -0.598,-0.597 l -48.138,0 z"
       inkscape:connector-curvature="0"
       style="fill:#c2b7b9" /><path
       id="path8224"
       d="m 21.999,59.836 c -0.597,0 -1.5,1.219 -1.5,1.219 l 18.156,0 c 0,0 -0.904,-1.219 -1.5,-1.219 z"
       inkscape:connector-curvature="0"
       style="fill:#c2b7b9" /><path
       id="path8226"
       d="m 29.583,20.097 c 7.4404,0 16.836,0.34008 20.367,5.0752 -0.15029,5.4105 -1.3526,13.652 -1.5039,14.405 -0.12235,0.28902 -0.60117,0 -0.60117,0 0,0 -4.2082,-2.7062 -18.263,-2.7062 -14.054,0 -18.262,2.7062 -18.262,2.7062 0,0 -0.47978,0.28902 -0.60117,0 -0.151,-0.752 -1.3531,-8.994 -1.5044,-14.405 3.5344,-4.736 12.928,-5.075 20.368,-5.075 z"
       inkscape:connector-curvature="0"
       style="fill:#3c3c3c" /><path
       id="path8228"
       d="m 19.968,38.68 c -3.883,0.254 -8.66,1.631 -10.125,2.406 l 0,2.875 c 3.614,-1.647 10.218,-2.469 10.218,-2.469 z m 19.156,0 -0.0625,2.8125 c 0,0 6.5726,0.82179 10.188,2.4688 l 0,-2.875 c -1.465,-0.775 -6.243,-2.152 -10.125,-2.406 z"
       inkscape:connector-curvature="0" /><path
       id="path8230"
       d="m 20.499,38.774 c 0,0 5.5649,0.36783 9.095,0.34716 3.5051,0 9.03,-0.34716 9.03,-0.34716 l -0.563,2.25 c 0,0 -4.25,-0.376 -8.562,-0.376 -4.312,0 -8.438,0.5 -8.438,0.5 z"
       inkscape:connector-curvature="0" /><path
       id="path8232"
       d="m 29.575,18.527 c 2.9051,0 6.9756,0.10286 6.9756,0.10286 0,0 -0.86664,-4.6018 0.0173,-4.8273 2.2178,-0.56514 10.324,1.8898 10.324,1.8898 0,0 -2.1628,-9.3145 -3.1758,-9.8349 -1.0131,-0.52045 -9.8408,-1.4233 -14.141,-1.4233 -4.3006,0 -13.127,0.90383 -14.14,1.4242 -1.0131,0.52044 -3.0438,9.9009 -3.0438,9.9009 0,0 8.1101,-2.4624 10.327,-1.8893 0.86906,0.22646 0.0839,4.8267 0.0839,4.8267 0,0 3.8684,-0.16984 6.7735,-0.16984 z"
       inkscape:connector-curvature="0"
       style="opacity:0.9;fill:#141414" /><path
       id="path8234"
       d="M 6.9057,27.352 7.4939,13.132"
       inkscape:connector-curvature="0"
       style="fill:none;stroke:#000000;stroke-width:0.30000001" /><path
       id="path8236"
       d="M 52.33,27.173 51.58828,13.259"
       inkscape:connector-curvature="0"
       style="fill:none;stroke:#000000;stroke-width:0.30000001" /></g><path
     inkscape:connector-curvature="0"
     style="fill:#000000;fill-opacity:0.91025636"
     d="m -2.395e-5,3440 0,-3440.0000044000003 4240.00002395,0 L 4240,3440 -2.395e-5,3440 Z M 2120,1747.8907 A 27.890104,27.890104 0 0 0 2147.8906,1720 27.890104,27.890104 0 0 0 2120,1692.1094 27.890104,27.890104 0 0 0 2092.1113,1720 27.890104,27.890104 0 0 0 2120,1747.8907 Z"
     id="rect5907" /><ellipse
     style="fill:#e8e800;fill-opacity:0.63461537"
     id="path5966"
     cx="2120"
     cy="-1720"
     rx="27.988327"
     ry="27.880661"
     transform="scale(1,-1)" /></svg>