<?xml version="1.0" encoding="UTF-8" standalone="no"?>
<svg xmlns:rdf="http://www.w3.org/1999/02/22-rdf-syntax-ns#" xmlns="http://www.w3.org/2000/svg" xml:space="preserve" version="1.1" xmlns:cc="http://creativecommons.org/ns#" enable-background="new 0 0 63.134 121.82" x="0px" y="0px" width="63.134px" height="121.82px" viewBox="0 0 63.134 121.82" xmlns:dc="http://purl.org/dc/elements/1.1/"><path d="m29.576 0.80304c14.633 0 19.216 3.939 21.18 5.453 1.898 1.461 2.699 17.196 2.771 25.381-0.1425 1.0952-0.06121 2.4394-0.378 3.434l0.18 25.97h-47.507l0.179-25.97c-0.1925-3.42 0.2972-2.425-0.377-3.439 0.074-8.185 0.874-23.915 2.772-25.376 1.964-1.514 6.547-5.453 21.18-5.453m0-0.717c-14.405 0.000042-19.321 3.818-21.421 5.449l-0.197 0.153c-0.413 0.318-0.955 1.044-1.49 3.865-0.324 1.709-0.612 3.999-0.856 6.808-0.434 4.992-0.64 10.562-0.694 14.423h-0.043c-1.253 0-3.849 0.798-4.562 1.742-0.80713 1.3295 0.14403 2.8927 1.901 2.683 0.438 0 0.941-0.074 1.494-0.221 0.586-0.155 1.025-0.309 1.357-0.458 0.072 0.323 0.154 0.553 0.219 0.705l-0.178 25.801-0.005 0.722h48.95l-0.005-0.722-0.179-25.802c0.064-0.148 0.145-0.37 0.215-0.679 0.324 0.141 0.746 0.285 1.299 0.432s1.057 0.221 1.494 0.221c1.7333 0.19235 2.6994-1.5536 1.901-2.683-0.71-0.939-3.282-1.734-4.542-1.742-0.055-3.859-0.261-9.428-0.694-14.42-0.244-2.809-0.532-5.1-0.856-6.81-0.535-2.821-1.077-3.548-1.49-3.866l-0.197-0.152c-2.101-1.631-7.018-5.449-21.421-5.449z" fill="#3f3f3f"/><path d="m53.33 61.041-0.18-25.97s0.441-0.698 0.382-2.609c-0.024-7.898-0.812-24.694-2.776-26.206-1.964-1.514-6.547-5.453-21.18-5.453-14.633 0.00004-19.216 3.939-21.181 5.453-1.964 1.512-2.752 18.308-2.775 26.206-0.06 1.911 0.382 2.609 0.382 2.609l-0.179 25.97h47.507z" fill="#c2b7b9"/><path fill-rule="evenodd" clip-rule="evenodd" d="m9.285 61.041s-3.204-1.558-3.523-5.895v5.895h3.523z" fill="#3f3f3f"/><path fill-rule="evenodd" clip-rule="evenodd" d="m49.834 61.041s3.205-1.558 3.523-5.895v5.895h-3.523z" fill="#3f3f3f"/><path d="m16.28 3.4922c-0.819 0.1645-6.6329 2.9353-7.4685 3.875-0.956 1.075-1.435 4.3548-1.375 5.9068 0.478-0.058 0.402-1.794 1-2.688 0.597-0.897 6.1195-5.553 7.8745-7 0.117-0.0961 0.086-0.1172-0.031-0.0938zm26.407 0c-0.004 0.0166 0.004 0.0457 0.062 0.0938 1.756 1.447 7.248 6.103 7.844 7 0.597 0.894 0.554 2.63 1.031 2.688 0.061-1.552-0.42-4.8318-1.375-5.9068-0.895-1.0068-7.507-4.123-7.562-3.875z"/><path d="m50.852 24.889-0.168-0.192c-3.977-4.554-13.365-5.138-21.099-5.138s-17.122 0.584-21.099 5.138l-0.093 0.106-0.089-0.109c-0.066-0.082 0.23-6.515 0.233-6.58 0.212-4.511 0.421-7.29 0.621-8.262l0.006-0.028 0.019-0.022c0.485-0.599 4.139-3.917 6.448-5.752l0.017-0.016c0.014-0.014 0.027-0.027 0.041-0.039 0.259-0.23 0.554-0.451 0.877-0.658l0.025-0.016c3.391-2.16 9.402-2.16 12.994-2.16 3.582 0 9.568 0 12.976 2.147h0.029l0.031 0.022c0.075 0.055 0.154 0.113 0.236 0.174 0.131 0.091 0.266 0.193 0.42 0.32 2.248 1.749 6.213 5.333 6.735 5.977l0.019 0.022 0.006 0.028c0.475 2.311 0.865 14.093 0.882 14.593l-0.067 0.445zm-21.268-5.569c7.668 0 16.957 0.575 21.093 5.014-0.041-1.15-0.423-12.158-0.869-14.405-0.584-0.692-4.463-4.194-6.68-5.917-0.152-0.125-0.282-0.225-0.41-0.313-0.072-0.054-0.141-0.104-0.206-0.151h-0.022l-0.029-0.02c-3.344-2.128-9.311-2.128-12.876-2.128s-9.534 0-12.877 2.128c-0.32 0.205-0.608 0.421-0.861 0.646l-0.061 0.058c-2.279 1.812-5.853 5.051-6.4 5.698-0.258 2.338-0.625 12.595-0.692 14.56 4.155-4.405 13.412-4.978 21.058-4.978z" fill="#333"/><path d="m29.598 19.27c6.837 0 15.229 0.482 19.775 3.884 0.479-0.829-2.939-16.384-5.959-19.069-3.043-2.708-9.22-2.805-13.816-2.805-4.598-0.001-10.774 0.096-13.818 2.804-3.019 2.686-6.436 18.24-5.958 19.069 4.546-3.401 12.938-3.883 19.776-3.883z" fill="#c2b7b9"/><path d="m47.539 19.789c-0.211-0.746-0.615-2.332-1.037-2.664s-8.26-2.557-8.706-2.104c-0.446 0.452-0.084 2.604 0.179 2.888 0.143 0.153 2.533 0.434 4.941 0.94 2.05 0.432 3.982 1.245 4.201 1.332 0.474 0.19 0.541 0.031 0.422-0.392zm-35.762 0c0.21-0.746 0.616-2.332 1.037-2.664s8.259-2.557 8.706-2.104c0.446 0.452 0.084 2.604-0.179 2.888-0.142 0.153-2.533 0.434-4.941 0.94-2.05 0.432-3.983 1.245-4.201 1.332-0.474 0.19-0.541 0.031-0.422-0.392z" fill="#3c3c3c"/><path d="m14.187 5.8986c-1.221 1.121-4.1014 3.8659-4.4064 4.3439l-0.7812 12.907c0.949-6.771 2.9366-13.469 5.1876-17.25zm30.813 0c2.25 3.781 4.2386 10.479 5.1876 17.25l-0.781-12.907c-0.305-0.4775-3.186-3.2224-4.407-4.3434z"/><path stroke="#1f1f1f" stroke-width=".2" d="m42.589 3.481c0.001-0.004 0.001-0.007 0.002-0.01-3.237-2.108-8.786-2.191-13.006-2.191-4.21 0-9.745 0.082-12.984 2.177 0.002 0.008 0.004 0.017 0.006 0.024-0.913 1.023 5.257-0.848 12.991-0.768 7.734-0.08 13.902 1.791 12.991 0.768z" fill="#191919"/><path d="m6.9054 27.18c-0.2189 0.297-0.0312 5.156-0.0312 5.156s0.25 20.081 0.25 21.5c0 0.509 0.8898 1.762 1.0938 1.125 0.1639-0.511 0.1874-1.25 0.1874-1.25s0.2188-9.923 0.2188-11.594-1.2548-14.9-1.7188-14.937zm45.375 0c-0.464 0.037-1.719 13.266-1.719 14.937s0.219 11.594 0.219 11.594 0.024 0.739 0.188 1.25c0.204 0.637 1.093-0.616 1.093-1.125 0-1.419 0.219-21.5 0.219-21.5s0.218-4.859 0-5.156z" fill="#171d23"/><path d="m6.9367 30.93c-0.135 0.018-0.4448 0.689-1.4687 0.718-0.6692-0.596-2.9889 0.195-3.875 0.719-1.0958 0.557-1.2849 1.447-0.2813 2.125 1.164-0.687 2.935-1.25 4.875-1.25 1.045 0 1.5345 2.725 1.8125 1.532 0.279-1.582-0.2315-3.937-1.0625-3.844zm45.062 0c-0.742 0.187-1.198 2.36-0.938 3.844 0.278 1.193 0.799-1.532 1.844-1.532 1.94 0 3.711 0.563 4.875 1.25 0.814-0.529 0.819-1.43 0.125-1.844-2.577-1.644-4.127-1.18-4.281-1-1.023-0.029-1.334-0.7-1.469-0.718-0.052-0.006-0.107-0.013-0.156 0z" fill="#0c0c0c"/><path stroke="#1f1f1f" stroke-width=".2" d="m29.562 61.041h19.788s0.213-16.339-0.584-16.681c-3.345-1.577-11.705-2.962-19.204-2.962s-15.859 1.385-19.204 2.962c-0.796 0.342-0.583 16.681-0.583 16.681h19.787" fill="#141414"/><path d="m21.822 38.411" fill="#232323"/><g clip-rule="evenodd"><path stroke="#3f3f3f" stroke-width="3" stroke-miterlimit="10" d="m9.285 59.844" fill="none"/><g fill-rule="evenodd"><path d="m54.607 113.17c0 2.2-1.799 4-4 4h-42.047c-2.2 0-4-1.8-4-4v-47.892c0-2.2 1.8-4 4-4h42.048c2.201 0 4 1.8 4 4v47.889z" fill="#3c3c3c"/><path d="m47.711 84.004c0 1.1-0.9 2-2 2h-32.255c-1.1 0-2-0.9-2-2v-14.311c0-1.1 0.9-2 2-2h32.255c1.1 0 2 0.9 2 2v14.311z" fill="#141414"/><path d="m5.087 116.46c-0.29 0-0.527-1.8-0.527-4v-47.419c0-2.2 1.8-4 4-4h42.048c2.201 0 4 1.8 4 4v47.416c0 2.2-0.24 4-0.535 4-0.294 0-0.535-1.8-0.535-4v-46.013c0-2.2-1.799-4-4-4h-39.924c-2.2 0-4 1.8-4 4v46.01c0 2.2-0.238 4-0.527 4z" fill="#141414"/></g></g><path d="m53.652 117.53h-48.137c-0.724 0-1.313-0.59-1.313-1.313v-53.99c0-0.724 0.589-1.313 1.313-1.313h48.138c0.725 0 1.314 0.59 1.314 1.313v53.979c0 0.724-0.59 1.313-1.315 1.313zm-48.137-55.893c-0.329 0-0.597 0.268-0.597 0.597v53.979c0 0.329 0.268 0.597 0.597 0.597h48.138c0.33 0 0.598-0.268 0.598-0.597v-53.977c0-0.329-0.268-0.597-0.598-0.597h-48.138z" fill="#c2b7b9"/><path d="m21.999 59.836c-0.597 0-1.5 1.219-1.5 1.219h18.156s-0.904-1.219-1.5-1.219z" fill="#c2b7b9"/><path d="m29.583 20.097c7.4404 0 16.836 0.34008 20.367 5.0752-0.15029 5.4105-1.3526 13.652-1.5039 14.405-0.12235 0.28902-0.60117 0-0.60117 0s-4.2082-2.7062-18.263-2.7062c-14.054 0-18.262 2.7062-18.262 2.7062s-0.47978 0.28902-0.60117 0c-0.151-0.752-1.3531-8.994-1.5044-14.405 3.5344-4.736 12.928-5.075 20.368-5.075z" fill="#3c3c3c"/><path d="m19.968 38.68c-3.883 0.254-8.66 1.631-10.125 2.406v2.875c3.614-1.647 10.218-2.469 10.218-2.469zm19.156 0-0.0625 2.8125s6.5726 0.82179 10.188 2.4688v-2.875c-1.465-0.775-6.243-2.152-10.125-2.406z"/><path d="m20.499 38.774s5.5649 0.36783 9.095 0.34716c3.5051 0 9.03-0.34716 9.03-0.34716l-0.563 2.25s-4.25-0.376-8.562-0.376-8.438 0.5-8.438 0.5z"/><path opacity=".9" d="m29.575 18.527c2.9051 0 6.9756 0.10286 6.9756 0.10286s-0.86664-4.6018 0.0173-4.8273c2.2178-0.56514 10.324 1.8898 10.324 1.8898s-2.1628-9.3145-3.1758-9.8349c-1.0131-0.52045-9.8408-1.4233-14.141-1.4233-4.3006 0-13.127 0.90383-14.14 1.4242-1.0131 0.52044-3.0438 9.9009-3.0438 9.9009s8.1101-2.4624 10.327-1.8893c0.86906 0.22646 0.0839 4.8267 0.0839 4.8267s3.8684-0.16984 6.7735-0.16984z" fill="#141414"/><path stroke="#000" stroke-width=".3" d="m6.9057 27.352 0.5882-14.22" fill="none"/><path stroke="#000" stroke-width=".3" d="m52.33 27.173-0.74172-13.914" fill="none"/></svg>
