<?xml version="1.0" encoding="UTF-8" standalone="no"?>
<!-- Generator: Adobe Illustrator 16.0.0, SVG Export Plug-In . SVG Version: 6.00 Build 0)  -->

<svg
   xmlns:dc="http://purl.org/dc/elements/1.1/"
   xmlns:cc="http://creativecommons.org/ns#"
   xmlns:rdf="http://www.w3.org/1999/02/22-rdf-syntax-ns#"
   xmlns:svg="http://www.w3.org/2000/svg"
   xmlns="http://www.w3.org/2000/svg"
   xmlns:sodipodi="http://sodipodi.sourceforge.net/DTD/sodipodi-0.dtd"
   xmlns:inkscape="http://www.inkscape.org/namespaces/inkscape"
   version="1.1"
   id="Layer_1"
   x="0px"
   y="0px"
   width="204.989px"
   height="82.996px"
   viewBox="0 0 204.989 82.996"
   enable-background="new 0 0 204.989 82.996"
   xml:space="preserve"
   inkscape:version="0.48.4 r9939"
   sodipodi:docname="btn_play.svg"><metadata
     id="metadata35"><rdf:RDF><cc:Work
         rdf:about=""><dc:format>image/svg+xml</dc:format><dc:type
           rdf:resource="http://purl.org/dc/dcmitype/StillImage" /></cc:Work></rdf:RDF></metadata><defs
     id="defs33" /><sodipodi:namedview
     pagecolor="#ffffff"
     bordercolor="#666666"
     borderopacity="1"
     objecttolerance="10"
     gridtolerance="10"
     guidetolerance="10"
     inkscape:pageopacity="0"
     inkscape:pageshadow="2"
     inkscape:window-width="1375"
     inkscape:window-height="876"
     id="namedview31"
     showgrid="false"
     inkscape:zoom="1.4244667"
     inkscape:cx="102.4945"
     inkscape:cy="41.498001"
     inkscape:window-x="65"
     inkscape:window-y="204"
     inkscape:window-maximized="1"
     inkscape:current-layer="g3" /><g
     id="g3"><g
       id="g5"><linearGradient
         id="SVGID_1_"
         gradientUnits="userSpaceOnUse"
         x1="102.4946"
         y1="-3.5"
         x2="102.4946"
         y2="70.0968"><stop
           offset="0"
           style="stop-color:#FBED21"
           id="stop8" /><stop
           offset="1"
           style="stop-color:#FAAF3B"
           id="stop10" /></linearGradient><path
         fill="url(#SVGID_1_)"
         d="M202.489,70.496c0,5.5-4.5,10-10,10H12.5c-5.5,0-10-4.5-10-10V12.5c0-5.5,4.5-10,10-10h179.989    c5.5,0,10,4.5,10,10V70.496z"
         id="path12" /><path
         fill="none"
         stroke="#F6921E"
         stroke-width="5"
         stroke-miterlimit="10"
         d="M202.489,70.496c0,5.5-4.5,10-10,10H12.5    c-5.5,0-10-4.5-10-10V12.5c0-5.5,4.5-10,10-10h179.989c5.5,0,10,4.5,10,10V70.496z"
         id="path14" /></g><g
       id="g3065"
       transform="translate(13.190953,-1.8287666)"><text
         style="font-size:40px;fill:#232323;font-family:Eagle-Bold"
         id="text16"
         font-size="40"
         transform="translate(67.207,55.8223)">Play</text>
<g
         id="g27"><path
           id="path29"
           d="m 29.154,58.717 c 0,1.884 1.09,2.335 2.42,1.003 L 47.375,43.919 c 1.334,-1.33 1.334,-3.512 0,-4.842 L 31.574,23.276 c -1.33,-1.332 -2.42,-0.879 -2.42,1.003 v 34.438 z"
           inkscape:connector-curvature="0"
           style="fill:#232323" /></g></g><g
       id="g18"><linearGradient
         id="SVGID_2_"
         gradientUnits="userSpaceOnUse"
         x1="102.562"
         y1="10.1445"
         x2="102.562"
         y2="56.0651"><stop
           offset="0.0051"
           style="stop-color:#FFFFFF;stop-opacity:0.4"
           id="stop21" /><stop
           offset="1"
           style="stop-color:#FFFFFF;stop-opacity:0"
           id="stop23" /></linearGradient><path
         fill="url(#SVGID_2_)"
         d="M195.957,37.496c0,8.55-186.789,10.45-186.789,0s0-23.996,0-23.996c0-2.75,2.25-5,5-5h176.789    c2.75,0,5,2.25,5,5C195.957,13.5,195.957,28.946,195.957,37.496z"
         id="path25" /></g></g></svg>