<?xml version="1.0" encoding="UTF-8" standalone="no"?>
<!-- Generator: Adobe Illustrator 16.0.0, SVG Export Plug-In . SVG Version: 6.00 Build 0)  -->

<svg
   xmlns:dc="http://purl.org/dc/elements/1.1/"
   xmlns:cc="http://creativecommons.org/ns#"
   xmlns:rdf="http://www.w3.org/1999/02/22-rdf-syntax-ns#"
   xmlns:svg="http://www.w3.org/2000/svg"
   xmlns="http://www.w3.org/2000/svg"
   xmlns:sodipodi="http://sodipodi.sourceforge.net/DTD/sodipodi-0.dtd"
   xmlns:inkscape="http://www.inkscape.org/namespaces/inkscape"
   version="1.1"
   id="Layer_1"
   x="0px"
   y="0px"
   width="204.989px"
   height="82.996px"
   viewBox="0 0 204.989 82.996"
   enable-background="new 0 0 204.989 82.996"
   xml:space="preserve"
   inkscape:version="0.48.4 r9939"
   sodipodi:docname="btn_load.svg"><metadata
     id="metadata35"><rdf:RDF><cc:Work
         rdf:about=""><dc:format>image/svg+xml</dc:format><dc:type
           rdf:resource="http://purl.org/dc/dcmitype/StillImage" /></cc:Work></rdf:RDF></metadata><defs
     id="defs33" /><sodipodi:namedview
     pagecolor="#ffffff"
     bordercolor="#666666"
     borderopacity="1"
     objecttolerance="10"
     gridtolerance="10"
     guidetolerance="10"
     inkscape:pageopacity="0"
     inkscape:pageshadow="2"
     inkscape:window-width="1375"
     inkscape:window-height="876"
     id="namedview31"
     showgrid="false"
     inkscape:zoom="1.4244667"
     inkscape:cx="18.954464"
     inkscape:cy="41.498001"
     inkscape:window-x="65"
     inkscape:window-y="204"
     inkscape:window-maximized="1"
     inkscape:current-layer="g2997" /><g
     id="g5"><linearGradient
       y2="70.096802"
       x2="102.4946"
       y1="-3.5"
       x1="102.4946"
       gradientUnits="userSpaceOnUse"
       id="SVGID_1_"><stop
         id="stop8"
         style="stop-color:#FBED21"
         offset="0" /><stop
         id="stop10"
         style="stop-color:#FAAF3B"
         offset="1" /></linearGradient><path
       inkscape:connector-curvature="0"
       style="fill:url(#SVGID_1_)"
       id="path12"
       d="m 202.489,70.496 c 0,5.5 -4.5,10 -10,10 H 12.5 c -5.5,0 -10,-4.5 -10,-10 V 12.5 C 2.5,7 7,2.5 12.5,2.5 h 179.989 c 5.5,0 10,4.5 10,10 v 57.996 z" /><path
       style="fill:none;stroke:#f6921e;stroke-width:5;stroke-miterlimit:10"
       inkscape:connector-curvature="0"
       id="path14"
       d="m 202.489,70.496 c 0,5.5 -4.5,10 -10,10 H 12.5 c -5.5,0 -10,-4.5 -10,-10 V 12.5 C 2.5,7 7,2.5 12.5,2.5 h 179.989 c 5.5,0 10,4.5 10,10 v 57.996 z"
       stroke-miterlimit="10" /></g><g
     id="g2997"
     transform="translate(2.3281413,0)"><g
       style="font-size:40px;fill:#232323;font-family:Eagle-Bold"
       id="text16"><path
         d="m 85.132782,26.898392 3.945312,0 0,25.839843 14.199216,0 0,3.320313 -18.144528,0 0,-29.160156"
         style="font-size:40px;fill:#232323;font-family:Eagle-Bold"
         id="path2999" /><path
         d="m 115.01559,36.703079 c -1.92709,2e-5 -3.45053,0.755227 -4.57031,2.265625 -1.1198,1.497412 -1.67969,3.554701 -1.67969,6.171875 0,2.617196 0.55338,4.680996 1.66016,6.191406 1.11978,1.4974 2.64973,2.246097 4.58984,2.246094 1.91405,3e-6 3.43098,-0.755205 4.55079,-2.265625 1.11977,-1.51041 1.67966,-3.5677 1.67968,-6.171875 -2e-5,-2.591132 -0.55991,-4.641911 -1.67968,-6.152344 -1.11981,-1.523418 -2.63674,-2.285136 -4.55079,-2.285156 m 0,-3.046875 c 3.12499,2.3e-5 5.57941,1.015647 7.36329,3.046875 1.78383,2.031268 2.67575,4.843765 2.67578,8.4375 -3e-5,3.580737 -0.89195,6.393234 -2.67578,8.4375 -1.78388,2.031251 -4.2383,3.046875 -7.36329,3.046875 -3.13803,0 -5.59896,-1.015624 -7.38281,-3.046875 -1.77083,-2.044266 -2.65625,-4.856763 -2.65625,-8.4375 0,-3.593735 0.88542,-6.406232 2.65625,-8.4375 1.78385,-2.031228 4.24478,-3.046852 7.38281,-3.046875"
         style="font-size:40px;fill:#232323;font-family:Eagle-Bold"
         id="path3001" /><path
         d="m 140.93356,45.062454 c -2.90365,1.1e-5 -4.91537,0.332042 -6.03515,0.996094 -1.1198,0.664072 -1.6797,1.796883 -1.67969,3.398437 -1e-5,1.276047 0.41666,2.291671 1.25,3.046875 0.84635,0.742191 1.99218,1.113284 3.4375,1.113282 1.99217,2e-6 3.58722,-0.703122 4.78516,-2.109375 1.21092,-1.419265 1.81638,-3.300774 1.8164,-5.644532 l 0,-0.800781 -3.57422,0 m 7.16797,-1.484375 0,12.480469 -3.59375,0 0,-3.320313 c -0.82033,1.328127 -1.84246,2.311199 -3.0664,2.949219 -1.22398,0.625 -2.72137,0.9375 -4.49219,0.9375 -2.23959,0 -4.02344,-0.625 -5.35156,-1.875 -1.31511,-1.263018 -1.97266,-2.949214 -1.97266,-5.058594 0,-2.460928 0.82031,-4.316395 2.46094,-5.566406 1.65364,-1.249987 4.11457,-1.874986 7.38281,-1.875 l 5.03906,0 0,-0.351562 c -2e-5,-1.65363 -0.54689,-2.929671 -1.64062,-3.828125 -1.08075,-0.91144 -2.60418,-1.367168 -4.57032,-1.367188 -1.25001,2e-5 -2.46745,0.149759 -3.65234,0.449219 -1.1849,0.299498 -2.32422,0.748716 -3.41797,1.347656 l 0,-3.320312 c 1.3151,-0.507791 2.59114,-0.885395 3.82813,-1.132813 1.23697,-0.260394 2.44139,-0.390602 3.61328,-0.390625 3.16405,2.3e-5 5.52733,0.820334 7.08984,2.460938 1.56248,1.640643 2.34373,4.12762 2.34375,7.460937"
         style="font-size:40px;fill:#232323;font-family:Eagle-Bold"
         id="path3003" /><path
         d="m 169.91794,37.50386 0,-11.835937 3.59375,0 0,30.390625 -3.59375,0 0,-3.28125 c -0.75523,1.302085 -1.71226,2.272136 -2.8711,2.910156 -1.14584,0.625 -2.52605,0.9375 -4.14062,0.9375 -2.64324,0 -4.79818,-1.054687 -6.46484,-3.164062 -1.65365,-2.109371 -2.48048,-4.882805 -2.48047,-8.320313 -1e-5,-3.437485 0.82682,-6.21092 2.48047,-8.320312 1.66666,-2.109354 3.8216,-3.16404 6.46484,-3.164063 1.61457,2.3e-5 2.99478,0.319033 4.14062,0.957031 1.15884,0.625021 2.11587,1.588562 2.8711,2.890625 m -12.2461,7.636719 c 0,2.643238 0.54036,4.720059 1.6211,6.230469 1.09374,1.497399 2.59113,2.246096 4.49219,2.246094 1.90102,2e-6 3.39842,-0.748695 4.49218,-2.246094 1.09374,-1.51041 1.64061,-3.587231 1.64063,-6.230469 -2e-5,-2.643215 -0.54689,-4.713526 -1.64063,-6.210937 -1.09376,-1.510398 -2.59116,-2.265606 -4.49218,-2.265625 -1.90106,1.9e-5 -3.39845,0.755227 -4.49219,2.265625 -1.08074,1.497411 -1.6211,3.567722 -1.6211,6.210937"
         style="font-size:40px;fill:#232323;font-family:Eagle-Bold"
         id="path3005" /></g><g
       transform="matrix(0.62119152,0,0,0.62119152,16.06103,-582.89479)"
       id="g4543"><g
         transform="matrix(0.79772529,0,0,0.89886265,31.99145,159.43653)"
         id="g4589"><path
           sodipodi:nodetypes="ccccc"
           inkscape:connector-curvature="0"
           id="path4020-8-4"
           d="m -8.6298696,962.97587 57.2163336,-0.7983 12.755136,-30.80369 -52.9213432,0 z"
           style="fill:#000000;fill-opacity:1;stroke:#000000;stroke-width:5.60368586;stroke-linecap:butt;stroke-linejoin:round;stroke-miterlimit:4;stroke-opacity:1;stroke-dasharray:none" /><path
           inkscape:connector-curvature="0"
           id="path4530-2-2"
           d="m -15.415584,924.36043 13.7048994,0 1.862861,-5.58745 18.0963276,0 2.128971,5.58745 27.769055,-0.10479 -0.01745,0.10479 -44.436794,0 -15.374064,27.01728 z"
           style="fill:#000000;fill-opacity:1;stroke:#000000;stroke-width:5.60354519;stroke-linecap:butt;stroke-linejoin:round;stroke-miterlimit:4;stroke-opacity:1;stroke-dasharray:none"
           sodipodi:nodetypes="cccccccccc" /></g></g></g><g
     id="g18"><linearGradient
       y2="56.065102"
       x2="102.562"
       y1="10.1445"
       x1="102.562"
       gradientUnits="userSpaceOnUse"
       id="SVGID_2_"><stop
         id="stop21"
         style="stop-color:#FFFFFF;stop-opacity:0.4"
         offset="0.0051" /><stop
         id="stop23"
         style="stop-color:#FFFFFF;stop-opacity:0"
         offset="1" /></linearGradient><path
       inkscape:connector-curvature="0"
       style="fill:url(#SVGID_2_)"
       id="path25"
       d="m 195.957,37.496 c 0,8.55 -186.789,10.45 -186.789,0 0,-10.45 0,-23.996 0,-23.996 0,-2.75 2.25,-5 5,-5 h 176.789 c 2.75,0 5,2.25 5,5 0,0 0,15.446 0,23.996 z" /></g></svg>