<?xml version="1.0" encoding="UTF-8" standalone="no"?>
<!-- Created with Inkscape (http://www.inkscape.org/) -->
<svg id="svg2" xmlns:rdf="http://www.w3.org/1999/02/22-rdf-syntax-ns#" xmlns="http://www.w3.org/2000/svg" xml:space="preserve" x="0px" y="0px" width="160.32625px" height="151.48px" viewBox="0 0 160.32625 151.48" version="1.1" xmlns:cc="http://creativecommons.org/ns#" xmlns:dc="http://purl.org/dc/elements/1.1/"><metadata id="metadata8"><rdf:RDF><cc:Work rdf:about=""><dc:format>image/svg+xml</dc:format><dc:type rdf:resource="http://purl.org/dc/dcmitype/StillImage"/></cc:Work></rdf:RDF></metadata><defs id="defs6"><clipPath id="clipPath16"><path id="path18" d="m0 121.18h128.26v-121.18h-128.26v121.18z"/></clipPath><clipPath id="clipPath24"><path id="path26" d="m18.542 96.442h108.65v-96.442h-108.65v96.442z"/></clipPath><clipPath id="clipPath40"><path id="path42" d="m46.628 104.8c-1.196 0.214-2.422 0.344-3.678 0.344-7.686 0-14.382-4.179-17.983-10.379-8.413-1.534-14.793-8.887-14.793-17.744 0-1.029 0.107-2.031 0.271-3.013-4.483-3.492-7.378-8.926-7.378-15.048 0-8.915 6.124-16.381 14.389-18.476-0.324-1.177-0.51-2.412-0.51-3.692 0-7.723 6.26-13.983 13.982-13.983 0.309 0 0.613 0.026 0.918 0.047 2.682-8.926 10.958-15.429 20.755-15.429 6.021 0 11.468 2.457 15.395 6.421 1.822-0.831 3.839-1.306 5.971-1.306 2.709 0 5.234 0.76 7.399 2.057 3.544-2.087 7.67-3.29 12.08-3.29 13.158 0 23.827 10.667 23.827 23.826 0 3.531-0.776 6.881-2.155 9.895 5.73 3.628 9.547 10.006 9.547 17.29 0 9.581-6.592 17.602-15.482 19.832 0.06 0.612 0.093 1.233 0.093 1.862 0 10.38-8.414 18.794-18.793 18.794-0.342 0-0.674-0.032-1.01-0.05-4.616 7.366-12.801 12.268-22.135 12.268-8.438 0-15.939-4.008-20.71-10.22"/></clipPath><linearGradient id="linearGradient48" gradientUnits="userSpaceOnUse" gradientTransform="matrix(27.493 -80.284 -80.284 -27.493 50.501 99.78)"><stop id="stop50" stop-color="#8aba45" offset="0"/><stop id="stop52" stop-color="#729a2d" offset="1"/></linearGradient><clipPath id="clipPath60"><path id="path62" d="m0 121.18h128.26v-121.18h-128.26v121.18z"/></clipPath><clipPath id="clipPath88"><path id="path90" d="m46.023 109.12c-1.88 0.748-3.925 1.172-6.071 1.172-7.739 0-14.212-5.355-15.961-12.556-0.162 0.004-0.318 0.024-0.481 0.024-9.081 0-16.442-7.361-16.442-16.441 0-2.346 0.499-4.575 1.386-6.593-4.486-2.939-7.454-8-7.454-13.761 0-9.082 7.361-16.443 16.442-16.443 1.414 0 2.777 0.197 4.087 0.534-0.093-0.671-0.158-1.348-0.158-2.043 0-7.334 5.347-13.406 12.352-14.563 2.374-8.343 10.034-14.457 19.138-14.457 6.37 0 12.027 3.002 15.673 7.657 1.04-0.242 2.118-0.384 3.232-0.384 6.701 0 12.308 4.639 13.819 10.878 0.141-0.004 0.275-0.022 0.416-0.022 4.494 0 8.496 2.092 11.105 5.346 1.366-3.01 4.389-5.107 7.909-5.107 4.799 0 8.689 3.892 8.689 8.691 0 0.996-0.175 1.951-0.485 2.841 8.132 2.507 14.042 10.078 14.042 19.033 0 8.745-5.65 16.149-13.491 18.824-0.675 0.88-1.472 1.659-2.371 2.311 0.123 0.88 0.196 1.777 0.196 2.691 0 10.997-8.918 19.913-19.916 19.913-1.975 0-3.877-0.297-5.679-0.832-3.171 8.386-11.272 14.353-20.771 14.353-8.203 0-15.362-4.452-19.206-11.068m36.161-28.176c1.113-3.83 4.641-6.632 8.831-6.632 0.68 0 1.337 0.093 1.975 0.236 0.1-0.134 0.204-0.264 0.299-0.4 0.152-2.61 1.172-4.978 2.783-6.829 0.009-0.049 0.016-0.101 0.023-0.15-4.896-1.294-8.513-5.738-8.513-11.043 0-0.541 0.05-1.07 0.123-1.589-0.737 0.187-1.505 0.298-2.301 0.298-2.914 0-5.511-1.35-7.209-3.453-2.028 1.83-4.707 2.955-7.654 2.955-0.885 0-1.742-0.109-2.568-0.299-0.038 3.729-1.863 7.023-4.656 9.084 1.451 1.627 2.342 3.766 2.342 6.119 0 0.687-0.082 1.355-0.224 2 1.367 1.299 2.335 3.01 2.702 4.939 2.232 0.622 4.112 2.069 5.312 3.987 0.543 0.212 1.099 0.393 1.67 0.549 1.013-0.386 2.111-0.602 3.261-0.602 1.359 0 2.642 0.302 3.804 0.83"/></clipPath><linearGradient id="linearGradient96" gradientUnits="userSpaceOnUse" gradientTransform="matrix(126.26 0 0 -126.26 1 67.088)"><stop id="stop98" stop-color="#e4f3fc" offset="0"/><stop id="stop100" stop-color="#edf6fd" offset=".27041"/><stop id="stop102" stop-color="#e3f3fb" offset=".42857"/><stop id="stop104" stop-color="#edf6fd" offset="1"/></linearGradient><clipPath id="clipPath112"><path id="path114" d="m0 121.18h128.26v-121.18h-128.26v121.18z"/></clipPath></defs><g id="g10" transform="matrix(1.25,0,0,-1.25,0,151.48)"><g id="g12"><g id="g14" clip-path="url(#clipPath16)"><g id="g20"><g id="g28"><g id="g30" opacity=".2" clip-path="url(#clipPath24)"><g id="g32" transform="translate(127.19 49.175)"><path id="path34" d="m0 0c0 8.421-5.471 15.78-13.432 18.265 0.008 0.219 0.014 0.438 0.014 0.653 0 9.758-7.939 17.696-17.697 17.696-0.067 0-0.131-0.001-0.197-0.003-4.491 6.689-11.905 10.657-19.985 10.657-7.273 0-14.012-3.2-18.608-8.807-0.919 0.132-1.796 0.195-2.659 0.195-6.696 0-12.965-3.507-16.504-9.189-7.791-1.709-13.384-8.615-13.384-16.648 0-0.667 0.046-1.354 0.14-2.083-4.038-3.424-6.336-8.362-6.336-13.666 0-7.785 5-14.612 12.308-17.021-0.139-0.774-0.207-1.546-0.207-2.31 0-7.4 5.984-13.428 13.367-13.5 2.842-7.947 10.526-13.414 19.033-13.414 5.133 0 9.969 1.901 13.713 5.369 3.674-1.404 7.873-1.147 11.368 0.693 3.224-1.754 6.851-2.676 10.535-2.676 12.177 0 22.084 9.906 22.084 22.084 0 2.818-0.524 5.553-1.557 8.148 5.033 3.604 8.006 9.338 8.006 15.557" fill="#193049"/></g></g></g></g></g></g><g id="g36"><g id="g38" clip-path="url(#clipPath40)"><g id="g44"><g id="g46"><path id="path54" d="m46.628 104.8c-1.196 0.214-2.422 0.344-3.678 0.344-7.686 0-14.382-4.179-17.983-10.379-8.413-1.534-14.793-8.887-14.793-17.744 0-1.029 0.107-2.031 0.271-3.013-4.483-3.492-7.378-8.926-7.378-15.048 0-8.915 6.124-16.381 14.389-18.476-0.324-1.177-0.51-2.412-0.51-3.692 0-7.723 6.26-13.983 13.982-13.983 0.309 0 0.613 0.026 0.918 0.047 2.682-8.926 10.958-15.429 20.755-15.429 6.021 0 11.468 2.457 15.395 6.421 1.822-0.831 3.839-1.306 5.971-1.306 2.709 0 5.234 0.76 7.399 2.057 3.544-2.087 7.67-3.29 12.08-3.29 13.158 0 23.827 10.667 23.827 23.826 0 3.531-0.776 6.881-2.155 9.895 5.73 3.628 9.547 10.006 9.547 17.29 0 9.581-6.592 17.602-15.482 19.832 0.06 0.612 0.093 1.233 0.093 1.862 0 10.38-8.414 18.794-18.793 18.794-0.342 0-0.674-0.032-1.01-0.05-4.616 7.366-12.801 12.268-22.135 12.268-8.438 0-15.939-4.008-20.71-10.22" fill="url(#linearGradient48)"/></g></g></g></g><g id="g56"><g id="g58" clip-path="url(#clipPath60)"><g id="g64" transform="translate(17.319 40.579)"><path id="path66" d="m0 0c-0.047-0.006-0.094-0.011-0.14-0.017 0.064-0.017 0.126-0.04 0.191-0.056-0.018 0.025-0.035 0.049-0.051 0.073" fill="#678e2e"/></g><g id="g68" transform="translate(106.71 30.543)"><path id="path70" d="m0 0c-2.315 0-4.343 1.215-5.493 3.037-0.236-0.431-0.512-0.856-0.865-1.266-3.437-3.977-9.809-1.851-9.809-1.851s3.687 1.096 6.717 3.769c1.785 1.576 2.818 3.859 3.369 5.473 0.555 2.169 0.566 4.489-0.076 6.747 3.629 1.335 6.508 4.486 7.476 8.25 0.559-0.534 0.987-1.198 1.305-1.899 0.814-1.796 0.962-3.77 0.667-5.698-0.345-1.408-0.819-2.707-1.409-3.841 2.672-0.807 4.618-3.285 4.618-6.221 0-3.589-2.91-6.5-6.5-6.5m-50.987-3.881c-6.594-0.027-8.787 4.658-7.086 8.493 3.506-2.108 9.148-3.044 15.105 0.385 0.53-1.766-1.424-8.851-8.019-8.878m68.945 35.654c0 4.383-1.357 8.305-6.024 12.638 5.46-9.668 0.5-22-6.167-24.471-0.2 0.726-0.445 1.441-0.786 2.13-0.521 1.056-1.221 2.084-2.127 2.848-0.138 0.12-0.808 0.671-1.238 0.866 0.104 1.021 0.08 2.069-0.122 3.127-0.434-1.466-0.804-2.914-1.474-4.299-0.828-1.709-1.918-3.136-3.187-4.54-1.111-1.007-2.249-1.893-3.52-2.633-0.003 0.008-0.006 0.017-0.009 0.025v-0.029c-0.344-0.201-0.692-0.394-1.059-0.571-1.367-0.659-2.805-1.024-4.251-1.453 1.829-0.354 3.626-0.206 5.29 0.31-0.129-3.194-0.881-6.257-2.949-8.853-1.552-1.945-4.098-3.703-6.256-4.206-3.359-0.8-6.879-0.236-9.786 1.662-2.565 1.676-4.244 4.029-5.659 6.688 0.158-1.494 0.584-2.908 1.213-4.207-0.401-0.026-0.799-0.061-1.205-0.061-4.197 0-8.075 1.332-11.262 3.58-2.09-2.201-5.035-3.58-8.311-3.58-2.155 0-4.163 0.608-5.885 1.643-1.069 0.721-2.008 1.552-2.718 2.472-3.149 4.084-2.875 9.725 0.373 13.477-0.631-0.311-1.24-0.687-1.818-1.132-4.661-3.595-5.525-10.286-1.93-14.948 0.808-1.049 1.884-1.961 3.104-2.72-1.219-5.417-4.719-7.667-9.219-6.292-6.666 2.036-7.542 11.041-3.946 14.02-0.015-0.01-0.029-0.016-0.045-0.026 0.029 0.029 0.06 0.053 0.088 0.082-6.361-3.027-13.334-3.66-19.76-0.379-3.001 1.533-5.646 3.998-7.46 6.824-1.85 2.726-2.644 5.759-3.391 8.914-1.066-7.491 2.772-14.919 9.517-18.418 1.634-0.849 3.358-1.427 5.11-1.76-0.545-0.486-0.85-1.186-0.85-2.257 0-7.723 6.26-13.982 13.983-13.982 0.308 0 0.612 0.026 0.917 0.047 2.681-8.926 10.958-15.429 20.756-15.429 6.02 0 11.467 2.457 15.394 6.421 1.821-0.831 3.839-1.306 5.972-1.306 2.709 0 5.233 0.76 7.398 2.058 3.543-2.088 7.67-3.291 12.08-3.291 13.158 0 23.826 10.667 23.826 23.826 0 3.531-0.775 6.881-2.154 9.895 5.731 3.628 9.547 10.006 9.547 17.29" fill="#678e2e"/></g><g id="g72" transform="translate(124.66 62.316)"><path id="path74" d="m0 0c0 9.581-6.592 17.602-15.482 19.831 0.06 0.613 0.093 1.234 0.093 1.863 0 10.38-8.414 18.794-18.793 18.794-0.341 0-0.673-0.033-1.01-0.05-4.617 7.365-12.801 12.267-22.135 12.267-8.439 0-15.939-4.008-20.71-10.219-1.196 0.213-2.422 0.344-3.678 0.344-7.686 0-14.383-4.18-17.983-10.379-8.413-1.54-14.793-8.893-14.793-17.751 0-1.028 0.106-2.03 0.27-3.012-4.482-3.492-7.377-8.926-7.377-15.048 0-8.915 6.123-16.381 14.388-18.476-0.323-1.178-0.509-2.412-0.509-3.693 0-7.723 6.26-13.983 13.983-13.983 0.308 0 0.612 0.027 0.917 0.047 2.681-8.926 10.958-15.429 20.756-15.429 6.02 0 11.467 2.457 15.394 6.421 1.821-0.831 3.839-1.305 5.972-1.305 2.709 0 5.233 0.759 7.398 2.057 3.543-2.088 7.67-3.291 12.08-3.291 13.158 0 23.826 10.667 23.826 23.826 0 3.532-0.775 6.881-2.154 9.896 5.732 3.628 9.548 10.006 9.548 17.29z" stroke="#446126" stroke-miterlimit="10" stroke-width="3" fill="none"/></g><g id="g76" transform="translate(92.847 74.806)"><path id="path78" d="m0 0c2.416-2.941 3.908-6.78 3.369-10.646-0.34-4.702-3.131-8.794-6.918-11.446-3.896-2.198-8.185-3.237-12.603-1.953-4.049 1.175-7.164 3.841-9.053 7.576 2.543-2.518 5.391-4.514 8.978-5.203 3.747-0.864 7.586 0.082 10.84 1.978 3.229 1.881 5.649 5.418 6.479 9.034 0.851 3.717 0.256 7.162-1.092 10.66" fill="#678e2e"/></g><g id="g80" transform="translate(78.806 98.33)"><path id="path82" d="m0 0c-5.084-4.332-6.953-11.916-3.703-17.79-6.012-1.449-10.116-7.2-9.346-13.487 0.281-2.31 1.197-4.382 2.533-6.089-0.056 0.302-0.121 0.602-0.16 0.915-0.937 7.679 4.524 14.662 12.201 15.6 2.51 0.308 4.942-0.078 7.116-0.994-2.104 2.499-5.168 4.103-8.541 4.35-0.051 0.158-0.145 0.342-0.207 0.568-0.248 0.911-0.391 1.881-0.454 2.822-0.146 2.285 0.282 4.578 1.258 6.65 0.467 0.988 1.082 1.926 1.803 2.747 0.035 0.04 0.523 0.57 0.256 0.316 0.773 0.744 1.539 1.464 2.445 2.046 1.676 1.136 3.537 1.6 5.487 1.989 1.914 0.095 3.64 0.041 5.509-0.419 1.43-0.352 2.725-1.046 4.024-1.71-4.326 6.886-14.227 7.595-20.221 2.486" fill="#a3c85d"/></g></g></g><g id="g84"><g id="g86" clip-path="url(#clipPath88)"><g id="g92"><g id="g94"><path id="path106" d="m46.023 109.12c-1.88 0.748-3.925 1.172-6.071 1.172-7.739 0-14.212-5.355-15.961-12.556-0.162 0.004-0.318 0.024-0.481 0.024-9.081 0-16.442-7.361-16.442-16.441 0-2.346 0.499-4.575 1.386-6.593-4.486-2.939-7.454-8-7.454-13.761 0-9.082 7.361-16.443 16.442-16.443 1.414 0 2.777 0.197 4.087 0.534-0.093-0.671-0.158-1.348-0.158-2.043 0-7.334 5.347-13.406 12.352-14.563 2.374-8.343 10.034-14.457 19.138-14.457 6.37 0 12.027 3.002 15.673 7.657 1.04-0.242 2.118-0.384 3.232-0.384 6.701 0 12.308 4.639 13.819 10.878 0.141-0.004 0.275-0.022 0.416-0.022 4.494 0 8.496 2.092 11.105 5.346 1.366-3.01 4.389-5.107 7.909-5.107 4.799 0 8.689 3.892 8.689 8.691 0 0.996-0.175 1.951-0.485 2.841 8.132 2.507 14.042 10.078 14.042 19.033 0 8.745-5.65 16.149-13.491 18.824-0.675 0.88-1.472 1.659-2.371 2.311 0.123 0.88 0.196 1.777 0.196 2.691 0 10.997-8.918 19.913-19.916 19.913-1.975 0-3.877-0.297-5.679-0.832-3.171 8.386-11.272 14.353-20.771 14.353-8.203 0-15.362-4.452-19.206-11.068m36.161-28.176c1.113-3.83 4.641-6.632 8.831-6.632 0.68 0 1.337 0.093 1.975 0.236 0.1-0.134 0.204-0.264 0.299-0.4 0.152-2.61 1.172-4.978 2.783-6.829 0.009-0.049 0.016-0.101 0.023-0.15-4.896-1.294-8.513-5.738-8.513-11.043 0-0.541 0.05-1.07 0.123-1.589-0.737 0.187-1.505 0.298-2.301 0.298-2.914 0-5.511-1.35-7.209-3.453-2.028 1.83-4.707 2.955-7.654 2.955-0.885 0-1.742-0.109-2.568-0.299-0.038 3.729-1.863 7.023-4.656 9.084 1.451 1.627 2.342 3.766 2.342 6.119 0 0.687-0.082 1.355-0.224 2 1.367 1.299 2.335 3.01 2.702 4.939 2.232 0.622 4.112 2.069 5.312 3.987 0.543 0.212 1.099 0.393 1.67 0.549 1.013-0.386 2.111-0.602 3.261-0.602 1.359 0 2.642 0.302 3.804 0.83" fill="url(#linearGradient96)"/></g></g></g></g><g id="g108"><g id="g110" clip-path="url(#clipPath112)"><g id="g116" transform="translate(124.66 62.316)"><path id="path118" d="m0 0c0 4.383-1.357 8.305-6.024 12.638 5.46-9.668 0.5-22-6.167-24.471-0.2 0.726-0.445 1.44-0.786 2.13-0.521 1.056-1.221 2.084-2.127 2.848-0.138 0.12-0.808 0.67-1.238 0.866 0.104 1.02 0.08 2.068-0.122 3.127-0.434-1.466-0.804-2.914-1.474-4.299-0.828-1.709-1.918-3.137-3.187-4.54-1.111-1.007-2.249-1.894-3.521-2.633-0.002 0.008-0.005 0.017-0.008 0.024v-0.029c-0.344-0.2-0.692-0.393-1.059-0.57-1.367-0.659-2.805-1.025-4.251-1.453 1.829-0.355 3.626-0.206 5.29 0.309-0.129-3.193-0.881-6.257-2.949-8.852-0.177-0.222-0.369-0.44-0.57-0.655 0.214 0.235 0.435 0.461 0.634 0.709 0.334-0.735 0.77-1.414 1.284-2.022 1.107 1.401 1.814 3.026 2.236 4.262 0.555 2.169 0.566 4.489-0.076 6.747 3.629 1.335 6.508 4.485 7.476 8.25 0.559-0.534 0.987-1.199 1.305-1.9 0.813-1.796 0.962-3.769 0.667-5.697-0.345-1.408-0.819-2.707-1.409-3.842 2.386-0.719 4.181-2.776 4.542-5.298 0.364 0.96 0.573 1.997 0.573 3.084 0 0.996-0.176 1.952-0.485 2.842 0.704 0.217 1.383 0.486 2.051 0.776-0.051 0.119-0.098 0.241-0.152 0.359 5.731 3.628 9.547 10.006 9.547 17.29" fill="#b7dfe9"/></g><g id="g120" transform="translate(101.06 33.329)"><path id="path122" d="m0 0c0.167-0.086 0.335-0.167 0.508-0.242-0.123 0.16-0.247 0.321-0.356 0.493-0.046-0.085-0.102-0.167-0.152-0.251" fill="#b7dfe9"/></g><g id="g124" transform="translate(6.5596 50.308)"><path id="path126" d="m0 0c-1.85 2.727-2.644 5.76-3.391 8.914-0.346-2.434-0.167-4.857 0.453-7.145 1.555-2.413 3.718-4.388 6.279-5.714-1.285 1.174-2.421 2.512-3.341 3.945" fill="#b7dfe9"/></g><g id="g128" transform="translate(55.72 26.662)"><path id="path130" d="m0 0c-6.594-0.027-8.787 4.658-7.086 8.493 3.506-2.108 9.149-3.044 15.106 0.385 0.529-1.766-1.424-8.852-8.02-8.878m29.866 5.479c0.14-0.003 0.275-0.021 0.415-0.021 4.115 0 7.805 1.766 10.403 4.561-1.556-1.642-3.734-3.038-5.618-3.476-3.359-0.8-6.879-0.236-9.786 1.662-2.565 1.676-4.244 4.028-5.659 6.688 0.158-1.495 0.584-2.909 1.213-4.207-0.4-0.026-0.799-0.061-1.205-0.061-4.196 0-8.074 1.332-11.262 3.58-2.09-2.201-5.035-3.58-8.31-3.58-2.156 0-4.163 0.607-5.886 1.643-1.068 0.721-2.008 1.552-2.718 2.472-3.148 4.084-2.875 9.725 0.373 13.477-0.631-0.311-1.24-0.687-1.818-1.132-4.66-3.595-5.525-10.286-1.93-14.948 0.809-1.049 1.884-1.961 3.105-2.72-1.22-5.417-4.72-7.667-9.22-6.292-6.666 2.036-7.542 11.041-3.945 14.02-0.016-0.01-0.03-0.016-0.045-0.026 0.028 0.028 0.059 0.053 0.088 0.082-3.959-1.884-8.155-2.839-12.308-2.502 0.733-6.577 5.779-11.844 12.25-12.913 2.374-8.343 10.035-14.457 19.138-14.457 6.37 0 12.027 3.002 15.673 7.656 1.04-0.242 2.118-0.382 3.232-0.382 6.702 0 12.308 4.638 13.82 10.876" fill="#b7dfe9"/></g><g id="g132" transform="translate(65.639 112.94)"><path id="path134" d="m0 0c-7.871 0-14.624-4.771-17.537-11.575-1.949 0.916-4.117 1.443-6.413 1.443-6.829 0-12.595-4.529-14.472-10.745-0.558 0.077-1.125 0.131-1.705 0.131-6.873 0-12.444-5.572-12.444-12.445 0-2.116 0.531-4.106 1.462-5.85-4.391-1.922-7.462-6.301-7.462-11.4 0-5.091 3.06-9.462 7.438-11.39-0.002 0.102-0.014 0.202-0.014 0.303 0 5.641 3.236 10.518 7.948 12.902 0.887-1.905 2.148-3.546 3.663-4.869-0.135 0.342-0.278 0.682-0.393 1.039-2.823 8.801 2.023 18.222 10.822 21.045 0.144 0.046 0.289 0.081 0.433 0.124-0.916-1.78-1.558-3.736-1.824-5.837-0.416-3.287 0.125-6.469 1.377-9.292 0.025 0.437 0.043 0.875 0.098 1.32 1.379 10.932 11.358 18.671 22.287 17.292 3.574-0.45 6.797-1.832 9.479-3.854-2.508 5.161-7.485 8.999-13.604 9.772-1.114 0.141-2.213 0.163-3.294 0.097 0.94 9.178 8.693 16.338 18.118 16.338 5.385 0 10.207-2.35 13.543-6.063-2.927 6.772-9.662 11.514-17.506 11.514" fill="#fff"/></g><g id="g136" transform="translate(78.806 98.33)"><path id="path138" d="m0 0c-5.045-4.299-6.918-11.798-3.77-17.653 0.03 0.008 0.058 0.021 0.088 0.029 1.014-0.386 2.112-0.602 3.261-0.602 0.901 0 1.767 0.144 2.589 0.388-0.674 0.167-1.362 0.291-2.068 0.343-0.051 0.158-0.145 0.342-0.207 0.568-0.248 0.911-0.391 1.881-0.454 2.822-0.146 2.285 0.282 4.578 1.258 6.65 0.467 0.988 1.082 1.926 1.803 2.747 0.035 0.04 0.523 0.57 0.256 0.316 0.773 0.744 1.539 1.464 2.445 2.046 1.676 1.136 3.537 1.6 5.487 1.989 1.914 0.095 3.64 0.041 5.509-0.419 1.43-0.352 2.725-1.046 4.024-1.71-4.326 6.886-14.227 7.595-20.221 2.486" fill="#fff"/></g><g id="g140" transform="translate(47.75 46.915)"><path id="path142" d="m0 0c-0.57 4.658 2.744 8.895 7.4 9.463 1.524 0.187 2.998-0.047 4.318-0.602-1.575 1.869-4.03 2.936-6.638 2.618-4.103-0.502-7.023-4.237-6.521-8.34 0.171-1.403 0.726-2.659 1.537-3.696-0.034 0.184-0.073 0.368-0.096 0.557" fill="#fff"/></g><g id="g144" transform="translate(75.124 80.706)"><path id="path146" d="m0 0c1.014-0.386 2.111-0.602 3.261-0.602 1.358 0 2.642 0.302 3.803 0.831 1.114-3.831 4.642-6.632 8.832-6.632 0.68 0 1.337 0.092 1.975 0.235 0.1-0.134 0.203-0.264 0.299-0.399 0.152-2.61 1.172-4.979 2.783-6.829 0.009-0.05 0.016-0.101 0.024-0.151-4.897-1.294-8.514-5.738-8.514-11.042 0-0.541 0.051-1.071 0.123-1.59-0.736 0.187-1.505 0.299-2.301 0.299-2.914 0-5.512-1.35-7.209-3.453-2.027 1.83-4.707 2.955-7.654 2.955-0.885 0-1.742-0.11-2.568-0.299-0.038 3.728-1.863 7.022-4.656 9.083 1.451 1.627 2.342 3.767 2.342 6.119 0 0.688-0.082 1.356-0.225 2 1.368 1.299 2.336 3.01 2.703 4.939 2.232 0.623 4.112 2.069 5.312 3.987 0.543 0.212 1.1 0.394 1.67 0.549zm52.137-17.782c0 8.745-5.651 16.149-13.491 18.824-0.675 0.881-1.472 1.659-2.371 2.312 0.122 0.879 0.196 1.776 0.196 2.691 0 10.997-8.917 19.913-19.915 19.913-1.976 0-3.878-0.298-5.68-0.833-3.171 8.387-11.272 14.354-20.771 14.354-8.203 0-15.362-4.453-19.206-11.069-1.88 0.748-3.924 1.172-6.071 1.172-7.74 0-14.212-5.354-15.961-12.556-0.161 0.005-0.319 0.025-0.481 0.025-9.081 0-16.442-7.362-16.442-16.442 0-2.346 0.499-4.574 1.386-6.593-4.486-2.937-7.454-7.997-7.454-13.758 0-9.082 7.361-16.443 16.442-16.443 1.413 0 2.778 0.197 4.087 0.533-0.093-0.67-0.158-1.348-0.158-2.043 0-7.334 5.347-13.405 12.352-14.562 2.374-8.343 10.034-14.457 19.137-14.457 6.37 0 12.028 3.002 15.674 7.656 1.039-0.242 2.117-0.383 3.232-0.383 6.702 0 12.307 4.639 13.82 10.877 0.14-0.004 0.274-0.021 0.415-0.021 4.494 0 8.496 2.091 11.105 5.345 1.366-3.01 4.389-5.107 7.909-5.107 4.798 0 8.689 3.892 8.689 8.691 0 0.996-0.176 1.951-0.485 2.842 8.132 2.506 14.042 10.078 14.042 19.032z" stroke="#b7dfe9" stroke-miterlimit="10" stroke-width="2" fill="none"/></g></g></g></g></svg>
