<?xml version="1.0" encoding="UTF-8"?>
<svg id="Layer_1" data-name="Layer 1" xmlns="http://www.w3.org/2000/svg" viewBox="0 0 768 778">
  <defs>
    <style>
      .cls-1 {
        stroke: #000;
        stroke-miterlimit: 5.44;
        stroke-width: 1.36px;
      }

      .cls-1, .cls-2 {
        fill: #000;
      }

      .cls-2 {
        stroke-width: 0px;
      }
    </style>
  </defs>
  <path class="cls-2" d="M492.21,386.87c-89.4,0-161.97,72.58-161.97,161.96s72.58,161.72,161.97,161.72,161.96-72.33,161.96-161.72-72.58-161.96-161.96-161.96ZM459,441h66v75h75v66h-75v74h-66v-74h-74v-66h74v-75Z"/>
  <g>
    <path class="cls-1" d="M493,360c27.34,0,53.32,5.82,76.79,16.26l.24-26.8-216.08-192.12-216.08,192.12-2.51,282.54h146.57v-130.15h27.99c20.95-81.57,94.97-141.85,183.07-141.85Z"/>
    <path class="cls-1" d="M50.4,328.22l28.88,26.37L356.79,112.24l272.48,239.83,23.86-30.14L356.78,62,50.4,328.22Z"/>
    <path class="cls-1" d="M137.89,202.95v-111.76h77.08v46.46l-77.08,65.3Z"/>
  </g>
</svg>