<svg xmlns:rdf="http://www.w3.org/1999/02/22-rdf-syntax-ns#" xmlns="http://www.w3.org/2000/svg" viewBox="0 0 100 100" version="1.1" xmlns:cc="http://creativecommons.org/ns#" xmlns:dc="http://purl.org/dc/elements/1.1/">
 <g transform="translate(0 -.47178)">
 <path opacity="0.99" d="m15.892 12.295v72.219h27.188c-1.5742-3.1805-2.4688-6.7733-2.4688-10.562 0.33387-6.4703 2.5672-12.236 6.75-16.594h-5.1875v-17.875h8.2188v15.25c3.9368-2.8767 8.7819-4.5938 14.031-4.5938 3.8387 0 7.4761 0.91827 10.688 2.5313v-40.375zm26.625 2.2812h8.2188v17.938h-8.2188z"/>
 <path stroke-width="3.4998" d="m64.438 52.969c-11.332 0-20.532 9.2-20.532 20.531 0 11.332 9.2 20.5 20.532 20.5s20.531-9.169 20.531-20.5c0-11.332-9.2-20.531-20.531-20.531zm-4.219 6.875h8.343v9.531h9.469v8.281h-9.469v9.406h-8.343v-9.406h-9.375v-8.281h9.375v-9.531z" transform="translate(0 .47178)"/>
 </g>
</svg>
