<?xml version="1.0" encoding="UTF-8" standalone="no"?>
<!-- Created with Inkscape (http://www.inkscape.org/) -->
<svg id="svg2" xmlns:rdf="http://www.w3.org/1999/02/22-rdf-syntax-ns#" xmlns="http://www.w3.org/2000/svg" xmlns:osb="http://www.openswatchbook.org/uri/2009/osb" viewBox="0 0 100 100" version="1.1" xmlns:cc="http://creativecommons.org/ns#" xmlns:xlink="http://www.w3.org/1999/xlink" xmlns:dc="http://purl.org/dc/elements/1.1/">
 <metadata id="metadata7">
 <rdf:RDF>
 <cc:Work rdf:about="">
 <dc:format>image/svg+xml</dc:format>
 <dc:type rdf:resource="http://purl.org/dc/dcmitype/StillImage"/>
 <dc:title/>
 </cc:Work>
 </rdf:RDF>
 </metadata>
 <g id="layer1" transform="translate(0 -952.36)">
 <g id="g3784" transform="matrix(.54399 0 0 .54399 56.062 416.52)">
 <g id="g3836">
 <g id="g3197" transform="matrix(1.1155 0 0 1.1155 1.2874 -124.43)">
 <g id="g3005" stroke="#000" transform="translate(37.059 -.000055978)">
 <path id="path3012-3-5" stroke-width="1px" d="m-90.422 1125.9c-3.2733-20.464 3.1319-55.111 21.004-67.471 12.574 9.5285 26.357 11.97 41.12-0.7143 25.337 18.073 24.178 68.543 22.223 67.175-9.8702 16.175-27.316 20.265-42.428 19.639-12.866-0.5329-27.148-0.732-41.92-18.628z"/>
 <path id="path3782-7-9" stroke-linejoin="round" d="m-139.64-24.286c0 11.243-9.1142 20.357-20.357 20.357s-20.357-9.1142-20.357-20.357 9.1142-20.357 20.357-20.357 20.357 9.1142 20.357 20.357z" transform="matrix(1.2568 0 0 1.2568 152.92 1065.5)"/>
 </g>
 </g>
 </g>
 </g>
 </g>
</svg>
