<svg xmlns:rdf="http://www.w3.org/1999/02/22-rdf-syntax-ns#" xmlns="http://www.w3.org/2000/svg" xmlns:osb="http://www.openswatchbook.org/uri/2009/osb" viewBox="0 0 100 100" version="1.1" xmlns:cc="http://creativecommons.org/ns#" xmlns:xlink="http://www.w3.org/1999/xlink" xmlns:dc="http://purl.org/dc/elements/1.1/">
 <g transform="translate(0 -952.36)">
 <g transform="matrix(2.1844 0 0 2.1844 -44.984 912.64)" fill="#232323">
 <path d="m56.892 24.45h-8.972v-1.506c0-1.354-1.618-2.375-3.766-2.375h-2.548c-2.147 0-3.767 1.021-3.767 2.375v1.506h-7.765c-0.796 0-1.447 0.652-1.447 1.449v2.048c0 0.797 0.651 1.448 1.447 1.448h26.816c0.796 0 1.447-0.651 1.447-1.448v-2.048c0.002-0.796-0.649-1.449-1.445-1.449zm-17.314 0-0.002-1.486c0.061-0.181 0.776-0.656 2.03-0.656h2.548c1.254 0 1.97 0.476 2.027 0.637v1.506h-6.603z"/>
 <path d="m55.442 30.871h-23.918c-1.593 0-2.834 1.303-2.757 2.894l1.206 24.92c0.077 1.592 1.443 2.894 3.036 2.894h20.947c1.594 0 2.96-1.302 3.037-2.894l1.205-24.92c0.078-1.591-1.163-2.894-2.756-2.894zm-19.13 27.924c-0.032 0.002-0.064 0.003-0.096 0.003-0.758 0-1.394-0.587-1.444-1.353l-1.449-22.037c-0.052-0.798 0.553-1.488 1.351-1.541 0.794-0.052 1.488 0.553 1.541 1.351l1.448 22.037c0.052 0.799-0.553 1.488-1.351 1.54zm8.621-1.442c0 0.8-0.649 1.448-1.449 1.448s-1.448-0.648-1.448-1.448v-22.038c0-0.8 0.648-1.449 1.448-1.449s1.449 0.649 1.449 1.449v22.038zm7.261 0.092c-0.05 0.766-0.687 1.353-1.443 1.353-0.032 0-0.064-0.001-0.097-0.003-0.798-0.052-1.402-0.741-1.351-1.54l1.449-22.037c0.052-0.798 0.734-1.402 1.54-1.351 0.799 0.053 1.402 0.743 1.351 1.541l-1.449 22.037z"/>
 </g>
 </g>
</svg>
