<svg xmlns:rdf="http://www.w3.org/1999/02/22-rdf-syntax-ns#" xmlns="http://www.w3.org/2000/svg" xmlns:osb="http://www.openswatchbook.org/uri/2009/osb" viewBox="0 0 100 100" version="1.1" xmlns:cc="http://creativecommons.org/ns#" xmlns:xlink="http://www.w3.org/1999/xlink" xmlns:dc="http://purl.org/dc/elements/1.1/">
 <g stroke="#000" transform="translate(0 -952.36)">
 <path stroke-linejoin="round" stroke-width="2.1062" d="m39.203 958.92-18.107 21.734h9.7563l-15.886 19.934h11.696l-16.139 19.428h24.039v12.596h9.8406v-12.596h4.1049c1.1832-5.2472 4.2162-9.7807 8.3786-12.905l-5.1452-6.523h10.853l-15.576-19.934h8.9128l-16.729-21.734z"/>
 <path stroke-width="3.4998" d="m72.175 1005.7c-11.332 0-20.52 9.1886-20.52 20.52 0 11.332 9.1886 20.52 20.52 20.52 11.332 0 20.52-9.1887 20.52-20.52 0-11.332-9.1886-20.52-20.52-20.52zm13.587 16.392v8.2962h-27.173v-8.2962z"/>
 </g>
</svg>
