<svg xmlns:rdf="http://www.w3.org/1999/02/22-rdf-syntax-ns#" xmlns="http://www.w3.org/2000/svg" viewBox="0 0 100 100" version="1.1" xmlns:cc="http://creativecommons.org/ns#" xmlns:dc="http://purl.org/dc/elements/1.1/">
 <path opacity="0.99" d="m16.25 11.812v72.219h27.188c-1.5742-3.1805-2.4688-6.7733-2.4688-10.562 0.33387-6.4703 2.5672-12.236 6.75-16.594h-5.1875v-17.875h8.2188v15.25c3.9368-2.8767 8.7819-4.5938 14.031-4.5938 3.8387 0 7.4761 0.91827 10.688 2.5312v-40.375zm26.625 2.2812h8.2188v17.938h-8.2188z"/>
 <path d="m64.794 52.963c-11.332 0-20.52 9.1886-20.52 20.52 0 11.332 9.1886 20.52 20.52 20.52 11.332 0 20.52-9.1887 20.52-20.52 0-11.332-9.1886-20.52-20.52-20.52zm13.587 16.392v8.2962h-27.173v-8.2962z" stroke-width="3.4998"/>
</svg>
