<svg width="1em" height="1em" viewBox="0 0 24 24" fill="none" xmlns="http://www.w3.org/2000/svg">
    <path d="M12 9.33333C10.5333 9.33333 9.33333 10.5333 9.33333 12C9.33333 13.4667 10.5333 14.6667 12 14.6667C13.4667 14.6667 14.6667 13.4667 14.6667 12C14.6667 10.5333 13.4667 9.33333 12 9.33333ZM21.3333 0H2.66667C1.18667 0 0 1.2 0 2.66667V21.3333C0 22.8 1.18667 24 2.66667 24H21.3333C22.8133 24 24 22.8 24 21.3333V2.66667C24 1.2 22.8133 0 21.3333 0ZM19 12C19 12.3067 18.9733 12.6133 18.9333 12.9067L20.9067 14.4533C21.08 14.6 21.1333 14.8533 21.0133 15.0533L19.1467 18.28C19.0267 18.48 18.7867 18.56 18.5733 18.48L16.2533 17.5467C15.7733 17.92 15.24 18.2267 14.68 18.4667L14.3333 20.9333C14.2933 21.16 14.0933 21.3333 13.8667 21.3333H10.1333C9.90667 21.3333 9.70667 21.16 9.66667 20.9467L9.32 18.48C8.74667 18.24 8.22667 17.9333 7.74667 17.56L5.42667 18.4933C5.21333 18.5733 4.97333 18.4933 4.85333 18.2933L2.98667 15.0667C2.86667 14.8667 2.92 14.6133 3.09333 14.4667L5.06667 12.92C5.02667 12.6133 5 12.3067 5 12C5 11.6933 5.02667 11.3867 5.06667 11.0933L3.09333 9.54667C2.92 9.4 2.86667 9.14667 2.98667 8.94667L4.85333 5.72C4.97333 5.52 5.21333 5.44 5.42667 5.52L7.74667 6.45333C8.22667 6.08 8.76 5.77333 9.32 5.53333L9.66667 3.06667C9.70667 2.84 9.90667 2.66667 10.1333 2.66667H13.8667C14.0933 2.66667 14.2933 2.84 14.3333 3.05333L14.68 5.52C15.2533 5.76 15.7733 6.06667 16.2533 6.44L18.5733 5.50667C18.7867 5.42667 19.0267 5.50667 19.1467 5.70667L21.0133 8.93333C21.1333 9.13333 21.08 9.38667 20.9067 9.53333L18.9333 11.08C18.9733 11.3867 19 11.6933 19 12Z" fill="#0000FF"/>
</svg>
