<svg xmlns:rdf="http://www.w3.org/1999/02/22-rdf-syntax-ns#" xmlns="http://www.w3.org/2000/svg" xmlns:osb="http://www.openswatchbook.org/uri/2009/osb" viewBox="0 0 100 100" version="1.1" xmlns:cc="http://creativecommons.org/ns#" xmlns:xlink="http://www.w3.org/1999/xlink" xmlns:dc="http://purl.org/dc/elements/1.1/">
 <g transform="translate(0 -952.36)">
 <g stroke="#000" transform="matrix(1.7496 0 0 1.7496 -33.145 920.05)">
 <path d="m44.293 66.008c0 1.101-0.658 1.387-1.464 0.638l-9.718-9.044c-0.807-0.749-2.365-1.362-3.465-1.362h-5.089c-1.101 0-2-0.9-2-2v-14.387c0-1.1 0.899-2 2-2h5.089c1.1 0 2.658-0.613 3.465-1.362l9.718-9.044c0.806-0.749 1.464-0.463 1.464 0.638v37.923z"/>
 <g stroke-width="3" stroke-miterlimit="10" stroke-linecap="round">
 <line x2="71.489" y1="37.62" x1="52.638" y2="56.472"/>
 <line x2="52.638" y1="37.62" x1="71.489" y2="56.472"/>
 </g>
 </g>
 </g>
</svg>
