<?xml version="1.0" encoding="UTF-8" standalone="no"?>
<!-- Created with Inkscape (http://www.inkscape.org/) -->

<svg
 xmlns:dc="http://purl.org/dc/elements/1.1/"
 xmlns:cc="http://creativecommons.org/ns#"
 xmlns:rdf="http://www.w3.org/1999/02/22-rdf-syntax-ns#"
 xmlns:svg="http://www.w3.org/2000/svg"
 xmlns="http://www.w3.org/2000/svg"
 xmlns:sodipodi="http://sodipodi.sourceforge.net/DTD/sodipodi-0.dtd"
 xmlns:inkscape="http://www.inkscape.org/namespaces/inkscape"
 id="svg2"
 viewBox="0 0 100 100"
 version="1.1"
 inkscape:version="0.48.4 r9939"
 
 
 sodipodi:docname="origin.svg">
 <defs
 id="defs18" />
 <sodipodi:namedview
 pagecolor="#ffffff"
 bordercolor="#666666"
 borderopacity="1"
 objecttolerance="10"
 gridtolerance="10"
 guidetolerance="10"
 inkscape:pageopacity="0"
 inkscape:pageshadow="2"
 inkscape:window-width="1375"
 inkscape:window-height="876"
 id="namedview16"
 showgrid="false"
 inkscape:zoom="3.337544"
 inkscape:cx="50"
 inkscape:cy="50"
 inkscape:window-x="65"
 inkscape:window-y="204"
 inkscape:window-maximized="1"
 inkscape:current-layer="layer1" />
 <metadata
 id="metadata7">
 <rdf:RDF>
 <cc:Work
 rdf:about="">
 <dc:format>image/svg+xml</dc:format>
 <dc:type
 rdf:resource="http://purl.org/dc/dcmitype/StillImage" />
 <dc:title />
 </cc:Work>
 </rdf:RDF>
 </metadata>
 <g
 id="layer1"
 transform="translate(0 -952.36)">
 <path
 d="m 11.102844,965.70011 0,75.72059 28.402536,0 0,-75.72059 -28.402536,0 z m 5.856193,3.86508 3.777244,0 0,13.73278 -3.777244,0 0,-13.73278 z m 6.266126,0 3.777245,0 0,13.73278 -3.777245,0 0,-13.73278 z m 6.266127,0 3.777244,0 0,13.73278 -3.777244,0 0,-13.73278 z"
 id="rect3169"
 inkscape:connector-curvature="0" />
 <path
 d="m 55.932001,1004.6731 0,29.6616 c -0.31747,-0.1191 7.504536,-0.093 15.78244,-0.059 a 8.9044055,8.9044055 0 0 1 -0.02928,-0.732 8.9044055,8.9044055 0 1 1 17.802827,0 8.9044055,8.9044055 0 0 1 -0.05856,0.7906 c 0.458603,-9e-4 1.873981,0.01 1.873981,0 l 0,-15.6068 c 0,-0.8676 -2.546553,-3.6015 -4.919202,-3.6015 l -8.520761,0 c -3.756115,-5.1657 -7.948821,-8.2558 -10.687552,-10.2191 l -11.24389,-0.2342 z m 1.873982,2.2253 8.81357,0.059 c 4.042835,2.9317 6.860835,5.6978 8.19867,8.2865 l -17.01224,0 0,-8.3451 z"
 id="path3182-2"
 inkscape:connector-curvature="0" />
 <path
 id="path3990"
 d="m 88.19835,1034.1902 a 7.6139716,7.6139716 0 0 1 -15.227944,0 7.6139716,7.6139716 0 1 1 15.227944,0 z"
 inkscape:connector-curvature="0"
 style="opacity:0.98999999" />
 <rect
 id="rect4010"
 height="36.203453"
 width="14.197287"
 y="998.12817"
 x="40.959824"
 style="opacity:0.98999999" />
 </g>
</svg>
