<svg xmlns:rdf="http://www.w3.org/1999/02/22-rdf-syntax-ns#" xmlns="http://www.w3.org/2000/svg" viewBox="0 0 100 100" version="1.1" xmlns:cc="http://creativecommons.org/ns#" xmlns:dc="http://purl.org/dc/elements/1.1/">
 <g transform="translate(0 -952.36)">
 <path d="m11.103 965.7v75.721h28.403v-75.721h-28.403zm5.8562 3.8651h3.7772v13.733h-3.7772v-13.733zm6.2661 0h3.7772v13.733h-3.7772v-13.733zm6.2661 0h3.7772v13.733h-3.7772v-13.733z"/>
 <path d="m55.932 1004.7v29.662c-0.31747-0.1191 7.5045-0.093 15.782-0.059a8.9044 8.9044 0 0 1 -0.02928 -0.732 8.9044 8.9044 0 1 1 17.803 0 8.9044 8.9044 0 0 1 -0.05856 0.7906c0.4586-0.0009 1.874 0.01 1.874 0v-15.607c0-0.8676-2.5466-3.6015-4.9192-3.6015h-8.5208c-3.7561-5.1657-7.9488-8.2558-10.688-10.219l-11.244-0.2342zm1.874 2.2253 8.8136 0.059c4.0428 2.9317 6.8608 5.6978 8.1987 8.2865h-17.012v-8.3451z"/>
 <path opacity="0.99" d="m88.198 1034.2a7.614 7.614 0 0 1 -15.228 0 7.614 7.614 0 1 1 15.228 0z"/>
 <rect opacity="0.99" height="36.203" width="14.197" y="998.13" x="40.96"/>
 </g>
</svg>
