<svg xmlns:rdf="http://www.w3.org/1999/02/22-rdf-syntax-ns#" xmlns="http://www.w3.org/2000/svg" xmlns:osb="http://www.openswatchbook.org/uri/2009/osb" viewBox="0 0 100 100" version="1.1" xmlns:cc="http://creativecommons.org/ns#" xmlns:xlink="http://www.w3.org/1999/xlink" xmlns:dc="http://purl.org/dc/elements/1.1/">
 <g transform="translate(0 -952.36)">
 <g transform="matrix(1.0559 0 0 1.0559 -2.7934 -56.081)">
 <path d="m49.548 996.59h22.968v-14.602h5.78c5.2534 0 8.2898 5.4602 8.2898 8.2898v26.542c0 5.1052-3.9799 8.705-8.4038 8.705h-6.1223v-14.333h-22.36z"/>
 <rect opacity=".99" rx=".30935" ry=".40068" height="24.185" width="18.253" y="967.69" x="49.774"/>
 <path opacity=".99" d="m50.085 1015.8c-0.17138 0-0.31057 0.1781-0.31057 0.4001v4.5455h13.096c0.17138 0 0.30586 0.178 0.30586 0.3999v4.2162c0 0.222-0.13448 0.4-0.30586 0.4h-13.096v4.4891h13.246c0.17138 0 0.31057 0.1779 0.31057 0.3999v4.2162c0 0.2219-0.13919 0.4047-0.31057 0.4047h-13.246v4.315c0 0.2219 0.13919 0.3999 0.31057 0.3999h17.632c0.17137 0 0.31056-0.178 0.31056-0.3999v-23.386c0-0.222-0.13919-0.4001-0.31056-0.4001h-17.632z"/>
 <path d="m50.456 996.59h-22.968v-14.602h-5.78c-5.2534 0-8.2898 5.4602-8.2898 8.2898v26.542c0 5.1052 3.9799 8.705 8.4039 8.705h6.1223v-14.333h22.36z"/>
 <rect opacity=".99" ry=".40068" rx=".30935" transform="scale(-1,1)" height="24.185" width="18.253" y="967.69" x="-50.23"/>
 <path opacity=".99" d="m49.919 1015.8c0.17137 0 0.31056 0.1781 0.31056 0.4001v4.5455h-13.095c-0.17138 0-0.30587 0.178-0.30587 0.3999v4.2162c0 0.222 0.13449 0.4 0.30587 0.4h13.095v4.4891h-13.246c-0.17138 0-0.31057 0.1779-0.31057 0.3999v4.2162c0 0.2219 0.13919 0.4047 0.31057 0.4047h13.246v4.315c0 0.2219-0.13919 0.3999-0.31056 0.3999h-17.632c-0.17138 0-0.31057-0.178-0.31057-0.3999v-23.386c0-0.222 0.13919-0.4001 0.31057-0.4001h17.632z"/>
 </g>
 </g>
</svg>
