<svg xmlns:rdf="http://www.w3.org/1999/02/22-rdf-syntax-ns#" xmlns="http://www.w3.org/2000/svg" xmlns:osb="http://www.openswatchbook.org/uri/2009/osb" viewBox="0 0 100 100" version="1.1" xmlns:cc="http://creativecommons.org/ns#" xmlns:xlink="http://www.w3.org/1999/xlink" xmlns:dc="http://purl.org/dc/elements/1.1/">
 <g transform="translate(0 -952.36)">
 <g stroke="black" stroke-width="2" transform="matrix(1.2881 0 0 1.2881 -14.983 -284.81)">
 <path d="m27.093 980.18v15.682h7.1002c2.6276 0.00002 4.6589-0.68018 6.0939-2.0406 1.4349-1.3604 2.1524-3.2985 2.1524-5.8143-0.000026-2.4972-0.7175-4.426-2.1524-5.7864-1.435-1.3604-3.4663-2.0406-6.0939-2.0406h-7.1002m-5.6466-4.6403h12.747c4.6775 0.00005 8.209 1.0623 10.594 3.1867 2.404 2.1059 3.606 5.1994 3.606 9.2806-0.000033 4.1185-1.202 7.2307-3.606 9.3365-2.3854 2.1059-5.9169 3.1588-10.594 3.1587h-7.1002v16.772h-5.6466v-41.735"/>
 <path d="m68.8 1020.2c-1.4536 3.7271-2.8699 6.1591-4.2489 7.2958-1.3791 1.1368-3.224 1.7052-5.5348 1.7052h-4.1092v-4.3048h3.019c1.4163 0 2.5158-0.3355 3.2985-1.0064 0.78269-0.6709 1.6492-2.2549 2.5997-4.7521l0.92247-2.3481-12.663-30.805h5.4509l9.7838 24.487 9.7838-24.487h5.4509l-13.753 34.215"/>
 </g>
 </g>
</svg>
