<svg xmlns:rdf="http://www.w3.org/1999/02/22-rdf-syntax-ns#" xmlns="http://www.w3.org/2000/svg" xmlns:osb="http://www.openswatchbook.org/uri/2009/osb" viewBox="0 0 100 100" version="1.1" xmlns:cc="http://creativecommons.org/ns#" xmlns:xlink="http://www.w3.org/1999/xlink" xmlns:dc="http://purl.org/dc/elements/1.1/">
 <g transform="translate(0 -952.36)">
 <g transform="matrix(1.7702 0 0 1.7702 -32.156 925.03)" fill="#232323">
 <path d="m66.209 56.86-7.629-14.117c-0.607-1.125-2.026-1.548-3.151-0.939l-14.116 7.629c-1.125 0.607-1.549 2.025-0.94 3.15l7.63 14.117c0.606 1.125 2.025 1.548 3.15 0.94l14.116-7.628c1.126-0.609 1.547-2.027 0.94-3.152zm-11.576-6.639c-1.12-0.334-1.756-1.513-1.422-2.633s1.512-1.757 2.632-1.423c1.121 0.335 1.758 1.515 1.424 2.634-0.335 1.119-1.515 1.756-2.634 1.422zm-1.947 6.529c-1.119-0.334-1.758-1.515-1.424-2.633 0.336-1.12 1.514-1.757 2.634-1.423 1.119 0.333 1.757 1.512 1.423 2.633-0.335 1.119-1.514 1.757-2.633 1.423zm-1.95 6.529c-1.12-0.334-1.756-1.512-1.421-2.633 0.333-1.12 1.512-1.758 2.632-1.425 1.121 0.337 1.757 1.515 1.423 2.633-0.334 1.122-1.513 1.759-2.634 1.425z"/>
 <path d="m49.156 24.539-15.42-4.434c-1.23-0.354-2.524 0.363-2.879 1.593l-4.435 15.42c-0.353 1.229 0.363 2.524 1.593 2.878l15.421 4.434c1.229 0.354 2.524-0.362 2.878-1.592l4.434-15.421c0.354-1.229-0.362-2.524-1.592-2.878zm-15.507 12.879c-1.023 0.565-2.311 0.196-2.875-0.827-0.567-1.021-0.197-2.311 0.825-2.877 1.023-0.565 2.311-0.195 2.877 0.828 0.566 1.022 0.196 2.311-0.827 2.876zm2.663-9.261c-1.022 0.566-2.311 0.195-2.876-0.828-0.566-1.022-0.196-2.309 0.826-2.875 1.023-0.566 2.311-0.195 2.875 0.827 0.568 1.023 0.198 2.311-0.825 2.876zm3.298 5.962c-1.021 0.566-2.311 0.196-2.876-0.827-0.565-1.022-0.194-2.311 0.829-2.876 1.021-0.565 2.309-0.196 2.875 0.827s0.196 2.309-0.828 2.876zm3.299 5.963c-1.023 0.564-2.311 0.195-2.876-0.826-0.565-1.024-0.196-2.311 0.827-2.877 1.021-0.566 2.311-0.195 2.876 0.826 0.567 1.024 0.197 2.311-0.827 2.877zm2.663-9.261c-1.022 0.565-2.311 0.194-2.876-0.828s-0.196-2.311 0.827-2.875c1.021-0.566 2.311-0.197 2.877 0.826 0.566 1.024 0.196 2.311-0.828 2.877z"/>
 </g>
 </g>
</svg>
