<svg id="Layer_1" data-name="Layer 1" xmlns="http://www.w3.org/2000/svg" viewBox="0 0 100 100"><title>Solution</title><path d="M76.56,45.89c0,4.16,0,8.09,0,12q0,10.52,0,21a8,8,0,0,1-8.27,8.28H18.23a8,8,0,0,1-8.12-8.09q0-23.78,0-47.56a7.92,7.92,0,0,1,8-8.13q23.28,0,46.56,0l0.35,0a5.25,5.25,0,0,1-.38.53c-3,3.18-5.94,6.36-8.94,9.51a1.84,1.84,0,0,1-1.21.48q-15.92,0-31.84,0c-1.6,0-2,.37-2,1.94q0,19.41,0,38.83c0,1.47.4,1.88,1.86,1.88H64c1.69,0,2-.34,2-2,0-4.63,0-9.26,0-13.89a1.92,1.92,0,0,1,.29-1.07q5-6.72,10-13.4Z"/><path d="M47.25,51.08a6,6,0,0,1,.5-0.74L80,15.94c0.72-.77,1.39-1.58,2.17-2.29a2.45,2.45,0,0,1,3.4-.35A23.79,23.79,0,0,1,89,15.93a2.23,2.23,0,0,1,.4,3.28C88,21.35,86.51,23.44,85,25.48Q67.52,48.94,50,72.37c-1,1.38-2.16,1.89-3.48,1.37a3.81,3.81,0,0,1-1.66-1.27Q36.19,60,27.59,47.46a18.57,18.57,0,0,1-1.2-2.08,2.23,2.23,0,0,1,.36-2.77A23.46,23.46,0,0,1,30,40a2.77,2.77,0,0,1,3.34.27c1.58,1.17,3.13,2.38,4.68,3.59C41,46.17,44,48.54,47.25,51.08Z"/></svg>