<svg xmlns:rdf="http://www.w3.org/1999/02/22-rdf-syntax-ns#" xmlns="http://www.w3.org/2000/svg" xmlns:osb="http://www.openswatchbook.org/uri/2009/osb" viewBox="0 0 100 100" version="1.1" xmlns:cc="http://creativecommons.org/ns#" xmlns:xlink="http://www.w3.org/1999/xlink" xmlns:dc="http://purl.org/dc/elements/1.1/">
 <g transform="translate(0 -952.36)">
 <g stroke="#000" transform="matrix(1.7791 0 0 1.7791 -34.549 918.66)">
 <g stroke="#000" transform="translate(-.77716)">
 <path d="m44.293 66.008c0 1.101-0.658 1.387-1.464 0.638l-9.718-9.044c-0.807-0.749-2.365-1.362-3.465-1.362h-5.089c-1.101 0-2-0.9-2-2v-14.387c0-1.1 0.899-2 2-2h5.089c1.1 0 2.658-0.613 3.465-1.362l9.718-9.044c0.806-0.749 1.464-0.463 1.464 0.638v37.923z"/>
 <g transform="matrix(.97935 0 0 .97935 182.38 .99277)">
 <path d="m-133.41 55.899c-0.429 0-0.857-0.164-1.184-0.49-0.654-0.654-0.654-1.714 0-2.368 3.318-3.317 3.317-8.717 0-12.035-0.654-0.653-0.654-1.714 0-2.367 0.654-0.654 1.713-0.653 2.368 0 4.623 4.624 4.624 12.146 0 16.77-0.327 0.326-0.756 0.49-1.184 0.49z"/>
 <path d="m-126.77 61.592c-0.428 0-0.857-0.164-1.184-0.49-0.654-0.654-0.654-1.714 0-2.368 3.128-3.127 4.851-7.287 4.851-11.71 0-4.424-1.723-8.582-4.851-11.711-0.654-0.653-0.654-1.714 0-2.367 0.654-0.654 1.714-0.654 2.368 0 3.76 3.761 5.832 8.76 5.832 14.078 0 5.317-2.071 10.317-5.832 14.078-0.327 0.326-0.756 0.49-1.184 0.49z"/>
 <path d="m-120.31 68.102c-0.429 0-0.856-0.164-1.184-0.491-0.653-0.652-0.653-1.714 0-2.367 10.046-10.047 10.046-26.394 0-36.439-0.654-0.654-0.654-1.713 0-2.367s1.714-0.654 2.368 0c11.352 11.352 11.352 29.822 0 41.174-0.327 0.326-0.755 0.49-1.184 0.49z"/>
 </g>
 </g>
 </g>
 </g>
</svg>
