<svg xmlns="http://www.w3.org/2000/svg" aria-hidden="true" role="img" width="1em" height="1em"
    preserveAspectRatio="xMidYMid meet" viewBox="0 0 24 24">
    <path fill="currentColor"
        d="M14 20.725v-2.05q2.25-.65 3.625-2.5t1.375-4.2q0-2.35-1.375-4.2T14 5.275v-2.05q3.1.7 5.05 3.137Q21 8.8 21 11.975q0 3.175-1.95 5.612q-1.95 2.438-5.05 3.138ZM3 15V9h4l5-5v16l-5-5Zm11 1V7.95q1.175.55 1.838 1.65q.662 1.1.662 2.4q0 1.275-.662 2.362Q15.175 15.45 14 16Zm-4-7.15L7.85 11H5v2h2.85L10 15.15ZM7.5 12Z" />
</svg>