<?xml version="1.0" encoding="UTF-8" standalone="no"?>
<!-- Generator: Adobe Illustrator 18.0.0, SVG Export Plug-In . SVG Version: 6.00 Build 0) -->
<!DOCTYPE svg PUBLIC '-//W3C//DTD SVG 1.1//EN' 'http://www.w3.org/Graphics/SVG/1.1/DTD/svg11.dtd'>
<svg id="Layer_1" xmlns="http://www.w3.org/2000/svg" xml:space="preserve" version="1.1" xmlns:xlink="http://www.w3.org/1999/xlink" viewBox="0 0 250.9 396.5" enable-background="new 0 0 250.9 396.5">
	<path opacity=".1" enable-background="new " d="m133.7 121.1c60.6-4.2 112.4 26.7 115.6 68.9 3.2 42.3-43.4 79.9-104 84.1s-112.4-26.6-115.6-68.9 43.4-79.9 104-84.1z"/>
			<path stroke="#BC802F" stroke-width="2" stroke-miterlimit="10" d="m152.8 140.5s15.2-12.1 23.7-9.7 2.6 23.4 2.6 23.4l-26.3-13.7z" fill="#FFCC83"/>
			<path opacity=".5" enable-background="new " d="m154.3 140.4l24.2 12.6c0.7-2.7 1.5-6.8 1.6-10.7-5.5-2.9-13.4-4.8-19.4-6.2-2.7 1.6-5.1 3.3-6.4 4.3z" fill="#BC802F"/>
			<path stroke="#BC802F" stroke-width="2" stroke-miterlimit="10" d="m127.6 142.3s-15.2-12.1-23.7-9.7-2.6 23.4-2.6 23.4l26.3-13.7z" fill="#FFCC83"/>
			<path opacity=".5" enable-background="new " d="m100.3 145.5c0.3 3.5 0.9 7 1.5 9.4l24.2-12.6c-2-1.5-6.7-4.8-11.7-7-5.3 1.8-10.4 5.8-14 10.2z" fill="#BC802F"/>
					<linearGradient id="SVGID_1_" y2="209.33" gradientUnits="userSpaceOnUse" x2="203.65" gradientTransform="matrix(1 0 0 -1 0 396)" y1="209.33" x1="83.045">
					<stop stop-color="#953752" offset="0"/>
					<stop stop-color="#72243C" offset="1"/>
				</linearGradient>
					<ellipse rx="60.3" stroke="#4C1026" ry="48.8" cy="186.7" cx="143.3" stroke-miterlimit="10" stroke-width="2" fill="url(#SVGID_1_)"/>
				<ellipse cy="188.9" cx="143.3" rx="57.5" ry="46.5" fill="#5E0E2F"/>
				<linearGradient id="SVGID_2_" y2="220.53" gradientUnits="userSpaceOnUse" x2="217.08" gradientTransform="matrix(1 0 0 -1 0 396)" y1="259.3" x1="200.37">
				<stop stop-color="#F7D7B8" offset="0"/>
				<stop stop-color="#F7CFAF" offset=".483"/>
				<stop stop-color="#F7C7A6" offset="1"/>
			</linearGradient>
			<path stroke="#AF7045" stroke-width="2" stroke-miterlimit="10" d="m186.7 149.2c2.3-3.6 17.1-16.9 37.6-7.7 7.5 2.9 6.2 16.7 6.2 16.7s0.2 13.1-23.7 14.9c-24 1.9-21.3-22-20.1-23.9z" fill="url(#SVGID_2_)"/>
			<path d="m212.4 163.5c-8.4-0.5-19.1-9.7-24.3-14.7-0.3 0.3-0.5 0.6-0.7 0.9-0.6 1-1.7 9.4 2.1 15.6 3.2 5.3 9 7.7 17.2 7.1 13.1-1 18.7-5.5 21.1-9.1-3.2-0.1-7.8 0.6-15.4 0.2z" fill="#D89060"/>
			<path d="m210.1 139.2c-7.2 0-12.9 2.5-16.8 5.1 5.2 4.7 15.6 8.3 15.6 8.3s10.2-7.6 14.9-6.5l-8.4-4.1s0.3-1 0.7-2.2c-2-0.4-4-0.6-6-0.6z" fill="#D89060"/>
				<linearGradient id="SVGID_3_" y2="259.82" gradientUnits="userSpaceOnUse" x2="205.86" gradientTransform="matrix(1 0 0 -1 0 396)" y1="259.82" x1="175.13">
				<stop stop-color="#2FAC66" offset=".005"/>
				<stop stop-color="#2F8166" offset="1"/>
			</linearGradient>
			<path stroke="#12753A" stroke-width="2" stroke-miterlimit="10" d="m193.9 147.7s-18.6-7.8-18.8-8.4 12.6-0.4 13.2 0-9.8-8.2-9.8-8.2l13.7 5.1-2.8-11.5 16.4 21.3-11.9 1.7z" fill="url(#SVGID_3_)"/>
				<linearGradient id="SVGID_4_" y2="260.4" gradientUnits="userSpaceOnUse" x2="217.13" gradientTransform="matrix(1 0 0 -1 0 396)" y1="260.4" x1="197.33">
				<stop stop-color="#2FAC66" offset=".005"/>
				<stop stop-color="#2F8166" offset="1"/>
			</linearGradient>
			<polygon stroke="#12753A" stroke-width="2" stroke-miterlimit="10" points="200.5 149.2 197.3 120.2 203.7 134.7 208.6 121.9 208.6 138.3 217.1 131.5 209.3 151" fill="url(#SVGID_4_)"/>
				<path d="m214.4 149.8s2.5-1.6 5.2-2.6c0.7-0.2 1.4-0.5 2.1-0.6 0.3-0.1 0.7-0.1 1-0.1 0.3-0.1 0.6 0 0.9 0s0.5 0.1 0.7 0.1 0.4 0.1 0.6 0.1c0.3 0.1 0.5 0.2 0.5 0.2s-0.2 0-0.5-0.1c-0.1-0.1-0.3-0.1-0.6-0.1-0.2 0-0.5-0.1-0.7 0-0.3 0-0.6 0-0.9 0.1s-0.6 0.1-0.9 0.2c-0.7 0.2-1.3 0.4-2 0.7-1.3 0.6-2.5 1.3-3.4 1.9l-1.5 1-0.5-0.8z" fill="#FFEEE1"/>
					<linearGradient id="SVGID_5_" y2="226.31" gradientUnits="userSpaceOnUse" x2="206.71" gradientTransform="matrix(1 0 0 -1 0 396)" y1="260.79" x1="206.71">
					<stop stop-color="#F7D7B8" offset="0"/>
					<stop stop-color="#F7CFAF" offset=".483"/>
					<stop stop-color="#F7C7A6" offset="1"/>
				</linearGradient>
				<path d="m209.3 162.8c-6-2.7-15.4-5.2-14.9-13.5 0.4-8.3 19.4 0.5 24.7 3.7" fill="url(#SVGID_5_)"/>
				<path d="m209.3 162.8s-0.7-0.3-2-0.7-3.2-1-5.4-2c-1.1-0.5-2.3-1.1-3.4-1.8-1.1-0.8-2.3-1.7-3.2-3s-1.5-2.8-1.7-4.4v-1.8l0.1-0.6c0.2-1 0.7-1.8 1.5-2.4s1.7-0.8 2.6-0.9 1.7-0.1 2.5 0c1.6 0.2 3.2 0.5 4.6 1 2.9 0.9 5.4 2 7.5 3s3.8 2 5 2.8c1.2 0.7 1.8 1.2 1.8 1.2s-2.8-1.4-7.2-3.1c-2.2-0.8-4.7-1.8-7.5-2.5-1.4-0.4-2.9-0.6-4.3-0.8-1.4-0.1-3 0-3.9 0.7-0.5 0.3-0.7 0.8-0.9 1.4l-0.1 0.6v1.5c0.2 1.4 0.6 2.6 1.3 3.7s1.7 2 2.7 2.8 2.1 1.4 3.1 2 2 1 2.8 1.5c0.9 0.4 1.6 0.8 2.2 1.1s1.1 0.6 1.4 0.7c0.3-0.1 0.5 0 0.5 0z" fill="#AF7045"/>
				<path d="m195.7 148.1s0.1-0.3 0.6-0.7 1.4-0.7 2.4-0.8c1.1-0.1 2.3 0 3.6 0.2s2.6 0.5 4 0.9c1.3 0.4 2.6 0.8 3.8 1.3 1.2 0.4 2.3 0.9 3.3 1.3 0.9 0.4 1.7 0.8 2.3 1 0.5 0.3 0.8 0.4 0.8 0.4s-0.3-0.1-0.9-0.3c-0.6-0.2-1.4-0.4-2.4-0.7s-2.1-0.7-3.3-1.1-2.5-0.8-3.8-1.2-2.6-0.7-3.9-1c-1.2-0.3-2.4-0.5-3.4-0.5-0.5 0-1 0-1.4 0.1s-0.7 0.2-1 0.3c-0.2 0.2-0.4 0.3-0.5 0.4-0.1 0.4-0.2 0.4-0.2 0.4z" fill="#FFEEE1"/>
				<path d="m224.2 146.2h-0.5c-0.3 0-0.8 0-1.4 0.1-0.3 0-0.6 0.1-0.9 0.1s-0.6 0.1-1 0.2c-0.3 0.1-0.7 0.2-1 0.3s-0.7 0.2-1 0.4-0.6 0.3-1 0.5c-0.3 0.1-0.6 0.3-0.9 0.5s-0.6 0.3-0.8 0.5-0.4 0.4-0.7 0.5c-0.4 0.3-0.7 0.7-0.9 0.9l-0.3 0.3-1.3-1.1s0.2-0.1 0.4-0.3c0.3-0.2 0.6-0.6 1.1-0.9 0.3-0.2 0.5-0.3 0.8-0.5s0.6-0.3 0.9-0.5 0.7-0.3 1-0.4c0.4-0.1 0.7-0.2 1.1-0.4 0.4-0.1 0.8-0.2 1.1-0.2 0.4-0.1 0.7-0.1 1.1-0.2 0.4 0 0.7-0.1 1-0.1h0.9c0.6 0 1 0.1 1.4 0.1 0.7 0.2 0.9 0.2 0.9 0.2z" fill="#AF7045"/>
						<linearGradient id="SVGID_6_" y2="226.31" gradientUnits="userSpaceOnUse" x2="235.72" gradientTransform="matrix(1 0 0 -1 0 396)" y1="260.79" x1="235.72">
						<stop stop-color="#F7D7B8" offset="0"/>
						<stop stop-color="#F7CFAF" offset=".483"/>
						<stop stop-color="#F7C7A6" offset="1"/>
					</linearGradient>
					<path d="m222.6 162.8l7.9 7.7-6.3 2.8s8 16 8.9 16.3 17.4-16 15.6-21.5c-1.7-5.4-16.5-9-22-9.8" fill="url(#SVGID_6_)"/>
					<path d="m222.6 162.8c0.9 0.5 1.6 1 2.4 1.5s1.5 1.1 2.2 1.7 1.4 1.2 2 1.8c0.7 0.6 1.3 1.3 1.9 2l0.8 1-1 0.3-6.3 2.8 0.4-1.1 4.1 7.7 2.1 3.8c0.7 1.3 1.4 2.5 2.2 3.7 0.1 0.1 0.2 0.3 0.3 0.4 0 0 0.1 0.1 0.1 0.2l-0.1-0.1h-0.1l-0.3-0.1h-0.4s0.1-0.1 0.2-0.1c0.1-0.1 0.3-0.2 0.4-0.3 0.5-0.4 1.1-0.9 1.6-1.4 1.1-1 2.1-2 3.1-3.1 2-2.1 3.9-4.3 5.6-6.6 0.9-1.2 1.7-2.3 2.4-3.5s1.4-2.5 1.7-3.7c0.1-0.6 0.2-1.2 0-1.6-0.1-0.4-0.2-0.5-0.4-0.8s-0.4-0.5-0.6-0.7c-0.9-1-2.1-1.7-3.4-2.4-2.5-1.4-5.3-2.4-8.2-3.2-1.4-0.4-2.9-0.8-4.3-1.1-1.5-0.3-2.9-0.7-4.3-1.6 1.6-0.4 3.1-0.2 4.6 0.1s3 0.7 4.4 1.1c2.9 0.8 5.8 1.8 8.6 3.3 1.4 0.7 2.7 1.6 3.9 2.7 0.3 0.3 0.6 0.6 0.8 1 0.2 0.3 0.5 0.9 0.6 1.1 0.4 0.9 0.3 1.9 0.1 2.7-0.4 1.6-1.1 3-1.8 4.3-0.8 1.3-1.6 2.5-2.5 3.7-1.8 2.4-3.7 4.6-5.8 6.8-1 1.1-2.1 2.1-3.2 3.2-0.6 0.5-1.1 1-1.7 1.5-0.2 0.1-0.3 0.2-0.5 0.4-0.1 0.1-0.2 0.1-0.3 0.2-0.1 0-0.1 0.1-0.2 0.1h-0.1c-0.1 0-0.2 0-0.3 0.1h-0.2c-0.5-0.1-0.2 0-0.3-0.1h-0.1c-0.1 0-0.1-0.1-0.1-0.1-0.1 0-0.2-0.2-0.2-0.2l-0.2-0.2c-0.1-0.1-0.1-0.2-0.2-0.3-0.1-0.2-0.2-0.3-0.3-0.5-0.8-1.3-1.5-2.6-2.2-3.9l-2-3.9-3.9-7.8-0.4-0.7 0.8-0.4 6.3-2.8-0.2 1.3-2.1-1.8c-0.7-0.6-1.3-1.3-1.9-2s-1.2-1.4-1.8-2.1c-0.7-0.8-1.3-1.5-1.7-2.3z" fill="#AF7045"/>
				<path d="m245.1 175c-3.3-3-8.2-5-13.5-5l0.9-0.5c-0.4 0.2-0.8 0.4-1.3 0.6l0.7 0.8-1 0.3-5.5 2.5 3.7 7 2.1 3.8c0.7 1.3 1.4 2.5 2.2 3.7v0.1c0.5-0.4 1.1-0.9 1.6-1.4 1.1-1 2.1-2 3.1-3.1 2-2.1 3.9-4.3 5.6-6.6 0.5-0.8 1-1.5 1.4-2.2z" fill="#D89060"/>
					<line y1="170.7" x2="240.5" x1="229.9" y2="167" fill="none"/>
					<polygon points="229.6 169.9 240.5 167 230.2 171.4" fill="#AF7045"/>
					<linearGradient id="SVGID_7_" y2="237.34" gradientUnits="userSpaceOnUse" x2="95.596" gradientTransform="matrix(1 0 0 -1 0 396)" y1="237.34" x1="66.11">
					<stop stop-color="#F7D7B8" offset="0"/>
					<stop stop-color="#F7CFAF" offset=".483"/>
					<stop stop-color="#F7C7A6" offset="1"/>
				</linearGradient>
				<path stroke="#AF7045" stroke-width="2" stroke-miterlimit="10" d="m66.1 161.4l18.5 20.2 11-3.3s-12.8-33.1-15.6-41.3c-2.7-8.2-13.9 24.4-13.9 24.4z" fill="url(#SVGID_7_)"/>
				<path d="m79.2 137.3c-0.1-0.2-0.1-0.3-0.2-0.4-0.4 0.1-0.8 0.1-1.1 0.2-2.3 2.5-6.8 12.5-10.9 24.1l5 5.5c4.9-2.6 10.1-7.4 13.4-12.4-2.6-7.1-5.1-13.9-6.2-17z" fill="#D89060"/>
					<linearGradient id="SVGID_8_" y2="258.96" gradientUnits="userSpaceOnUse" x2="81.941" gradientTransform="matrix(1 0 0 -1 0 396)" y1="258.96" x1="1.9322">
					<stop stop-color="#F7D7B8" offset="0"/>
					<stop stop-color="#F7CFAF" offset=".483"/>
					<stop stop-color="#F7C7A6" offset="1"/>
				</linearGradient>
				<path stroke="#AF7045" stroke-width="2" stroke-miterlimit="10" d="m70.9 157.7s-6.7 21-41.2 3.7c-21.8-14.6-26.8-21.1-26.8-21.1s-2.1-6.3 0-7.8c2.1-1.5 6.8-1.9 12.4 1.7 5.5 3.7 0.6-2.8 0.6-2.8s-9.8-10.6-4.7-15.8 16.9 7.5 16.9 7.5l2.8-3.3s-6.7-10.2-1.2-13.3 23.5 6.7 41.2 20.1c17.7 13.4 9.4 23 6.6 26-3.4 4.8-6.6 5.1-6.6 5.1z" fill="url(#SVGID_8_)"/>
				<path opacity=".3" enable-background="new " d="m75.5 139.1c2.6 1.6 2.9 5.5 0.6 8.8-2.2 3.3-6.1 4.7-8.7 3.1s-2.9-5.5-0.6-8.8c2.3-3.3 6.2-4.7 8.7-3.1z" fill="#FFEEE1"/>
				<path d="m30.2 107.1c-0.9 0.5-1.4 1.2-1.6 2.1-1 3.8 3 10 3.1 10l0.3 0.5-3.9 4.5-0.7-0.7c-0.1-0.1-7.9-8.4-13.1-8.4-1 0-1.8 0.3-2.5 1-4.5 4.6 4.6 14.6 4.7 14.7 2.7 3.6 2.2 4.4 2.1 4.7-0.2 0.4-0.6 0.6-1.1 0.6-0.4 0-1.1-0.2-2.8-1.3-3.4-2.2-6.1-2.7-7.8-2.7-1.4 0-2.7 0.3-3.6 1-1.1 0.8-0.5 4.5 0.3 6.8 0.7 0.9 6.6 7.5 26.5 20.8 4.3 2.2 8.4 3.8 12.2 4.9 0.1-0.1 0.3-0.2 0.4-0.3l-0.2 0.4c0.3 0.1 0.6 0.2 0.9 0.3 17.6-13.9 26.8-28.8 16.5-46.3-12.1-8.1-22.4-13-27.6-13-0.8-0.1-1.6 0.1-2.1 0.4z" fill="#D89060"/>
					<path d="m56.1 139.6s0.5-0.7 1.2-1.6c0.4-0.5 0.8-1.1 1.3-1.7s1-1.2 1.5-1.9c0.5-0.6 1.1-1.2 1.6-1.8 0.3-0.3 0.5-0.6 0.7-0.8 0.2-0.3 0.5-0.5 0.7-0.7 0.9-0.9 1.4-1.5 1.4-1.5s-0.5 0.6-1.3 1.5c-0.2 0.2-0.4 0.5-0.6 0.7-0.2 0.3-0.4 0.6-0.7 0.9-0.5 0.6-1 1.2-1.5 1.9s-0.9 1.3-1.4 1.9c-0.4 0.6-0.8 1.2-1.1 1.7-0.7 1-1.1 1.7-1.1 1.7l-0.7-0.3z" fill="#AF7045"/>
					<path d="m55.6 137.2s0.3-0.6 0.7-1.5c0.1-0.2 0.2-0.5 0.4-0.7 0.1-0.3 0.3-0.5 0.5-0.8 0.3-0.5 0.7-1.1 1-1.7 0.4-0.5 0.8-1.1 1.2-1.6 0.2-0.2 0.4-0.5 0.5-0.7 0.2-0.2 0.4-0.4 0.5-0.6 0.7-0.7 1.1-1.2 1.1-1.2s-0.4 0.5-1 1.3c-0.2 0.2-0.3 0.4-0.5 0.6s-0.3 0.5-0.5 0.8c-0.3 0.5-0.7 1.1-1 1.6-0.3 0.6-0.6 1.2-0.9 1.7-0.1 0.3-0.3 0.5-0.4 0.8s-0.2 0.5-0.3 0.7c-0.4 0.9-0.6 1.5-0.6 1.5l-0.7-0.2z" fill="#AF7045"/>
						<linearGradient id="SVGID_9_" y2="223.72" gradientUnits="userSpaceOnUse" x2="62.443" gradientTransform="matrix(1 0 0 -1 0 396)" y1="223.72" x1="29.745">
						<stop stop-color="#2FAC66" offset=".005"/>
						<stop stop-color="#2F8166" offset="1"/>
					</linearGradient>
					<path stroke="#12753A" stroke-width="2" stroke-miterlimit="10" d="m38.2 162.7s16.5 4.9 24.3 3.7c-2.6 2.4-8.3 3.3-8.3 3.3s3.4 4 5.2 5.1l1.8 1.1-12.9-0.4s5.4 6.2 6.5 7c-4.5 0.7-21.1-7.9-24.3-15.6-3.4-7.6 7.7-4.2 7.7-4.2z" fill="url(#SVGID_9_)"/>
					<path opacity=".5" enable-background="new " d="m37.9 163.5s-2.4-0.7-4.4-0.7c-0.9 0-2.1 0.1-2.6 0.8-0.4 0.6-0.3 1.7 0.3 3.1 1.3 3.2 5.2 6.6 9.4 9.4 2.8-3.2 5.5-7 6.6-10.2-5-1.2-9-2.3-9.3-2.4z" fill="#12753A"/>
					<g opacity=".4">
						<path d="m45.1 172.1s0.6-0.1 1.4 0c0.8 0 1.9 0.1 2.9 0.3 1.1 0.2 2.1 0.4 2.9 0.6s1.3 0.4 1.3 0.4-0.6 0.1-1.4 0c-0.8 0-1.9-0.1-2.9-0.3-1.1-0.2-2.1-0.4-2.9-0.6s-1.3-0.4-1.3-0.4z" fill="#3AD87A"/>
					</g>
						<linearGradient id="SVGID_10_" y2="235.87" gradientUnits="userSpaceOnUse" x2="44.07" gradientTransform="matrix(1 0 0 -1 0 396)" y1="235.87" x1="22.924">
						<stop stop-color="#2FAC66" offset=".005"/>
						<stop stop-color="#2F8166" offset="1"/>
					</linearGradient>
					<path stroke="#12753A" stroke-width="2" stroke-miterlimit="10" d="m44 157.8c1 3.1-5.3 18.4-14.6 15.1s-7.7-23.2 0.2-25.7c7.8-2.5 14.4 10.6 14.4 10.6z" fill="url(#SVGID_10_)"/>
					<path opacity=".5" enable-background="new " d="m43.2 158.1c-0.2-0.4-1.8-3.4-4.2-6-5.1-0.2-10.9 1-14.4 2.8-0.5 1.6-0.7 3.5-0.8 5.4 0 2.4 0.3 5 1.3 7.2 4.8-0.3 11-0.9 16.1-2.3 1.6-3.1 2.2-6.1 2-7.1z" fill="#12753A"/>
						<linearGradient id="SVGID_11_" y2="280.54" gradientUnits="userSpaceOnUse" x2="86.089" gradientTransform="matrix(1 0 0 -1 0 396)" y1="280.54" x1="42.353">
						<stop stop-color="#2FAC66" offset=".005"/>
						<stop stop-color="#2F8166" offset="1"/>
					</linearGradient>
					<path stroke="#12753A" stroke-width="2" stroke-miterlimit="10" d="m58.5 112s13.7-8.1 17.7-9.1c-2.1 2.9-5.3 9.1-5.3 9.1s11.7-2.6 15.1-2.4c-2.6 1.8-11.9 7.5-11.9 7.5s10.2 4 10.2 4.8-16.6-1.5-31.4 4.7c-14.9 6.2-9.7-9.4-9.7-9.4l15.3-5.2z" fill="url(#SVGID_11_)"/>
					<path opacity=".5" enable-background="new " d="m65.1 109.2c-3.3 1.9-6 3.5-6.1 3.5l-0.2 0.1-14.9 4.9c-0.6 1.9-1.3 6.2 0.2 8.2 1.3 1.7 4.2 1.6 8.5-0.1 3.6-1.5 7.3-2.5 10.9-3.2 1.3-4.1 2.2-9.2 1.6-13.4z" fill="#12753A"/>
					<g opacity=".4">
						<path d="m66.1 116.6s0.7-0.4 1.8-0.8c1.1-0.5 2.6-1 4-1.5 1.5-0.5 3-0.9 4.2-1.2s1.9-0.4 1.9-0.4-0.7 0.4-1.8 0.8c-1.1 0.5-2.6 1-4.1 1.5s-3 0.9-4.2 1.2c-1 0.3-1.8 0.4-1.8 0.4z" fill="#3AD87A"/>
					</g>
						<linearGradient id="SVGID_12_" y2="276.35" gradientUnits="userSpaceOnUse" x2="59.566" gradientTransform="matrix(1 0 0 -1 0 396)" y1="276.35" x1="35.416">
						<stop stop-color="#2FAC66" offset=".005"/>
						<stop stop-color="#2F8166" offset="1"/>
					</linearGradient>
					<path stroke="#12753A" stroke-width="2" stroke-miterlimit="10" d="m37.4 112.9c1.7-2.9 17.7-8.8 21.5 0s-12.6 21.2-19.8 17.3c-7.2-3.8-1.7-17.3-1.7-17.3z" fill="url(#SVGID_12_)"/>
					<path opacity=".5" enable-background="new " d="m54.8 117.3c-3-3.4-6.4-5.7-10.3-7.3-3.1 0.9-5.7 2.3-6.3 3.2-0.4 1-4.9 12.9 1.4 16.3 0.8 0.4 1.7 0.6 2.8 0.6 4.5 0 10.9-3.9 14.2-8.6 0.2-0.3 0.4-0.7 0.6-1-0.6-1-1.4-2-2.4-3.2z" fill="#12753A"/>
					<linearGradient id="SVGID_13_" y2="256.48" gradientUnits="userSpaceOnUse" x2="59.319" gradientTransform="matrix(1 0 0 -1 0 396)" y1="256.48" x1="38.937">
					<stop stop-color="#2FAC66" offset=".005"/>
					<stop stop-color="#2F8166" offset="1"/>
				</linearGradient>
				<path stroke="#12753A" stroke-width="2" stroke-miterlimit="10" d="m49.5 124.8c3 3.2 12.8 7.4 9 19.6-3.7 11.8-19.5 9.8-19.5 9.8l10.5-29.4z" fill="url(#SVGID_13_)"/>
					<linearGradient id="SVGID_14_" y2="259.1" gradientUnits="userSpaceOnUse" x2="54.841" gradientTransform="matrix(1 0 0 -1 0 396)" y1="259.1" x1="6.9568">
					<stop stop-color="#2FAC66" offset=".005"/>
					<stop stop-color="#2F8166" offset="1"/>
				</linearGradient>
				<path stroke="#12753A" stroke-width="2" stroke-miterlimit="10" d="m53.2 143.9c-4.8 14-18.7 22.2-31 18.3s-18.4-18.4-13.6-32.3c4.8-14 18.7-22.2 31-18.3s18.4 18.3 13.6 32.3z" fill="url(#SVGID_14_)"/>
					<linearGradient id="SVGID_15_" y2="252.58" gradientUnits="userSpaceOnUse" x2="47.037" gradientTransform="matrix(1 0 0 -1 0 396)" y1="276.23" x1="-10.029">
					<stop stop-color="#3AD87A" offset="0"/>
					<stop stop-color="#3AD87A" stop-opacity=".1" offset="1"/>
				</linearGradient>
				<path d="m9.6 136.3c0-12.5 12-22.5 25.8-22.3 5.3 0.3 6.1 3.1 6.1 3.1s-6 2.9-0.9 15.3c2.9 5.1 9 2.3 9 2.3s2.2 5.8-0.5 12.1c-2.4-3.7-7.2-6.9-15.6 0.5-6 5.3-1.7 12.3-1.7 12.3s-23.1 2.4-22.2-23.3z" fill="url(#SVGID_15_)"/>
					<linearGradient id="SVGID_16_" y2="259.44" gradientUnits="userSpaceOnUse" x2="32.394" gradientTransform="matrix(1 0 0 -1 0 396)" y1="271.73" x1="3.2516">
					<stop stop-color="#fff" offset="0"/>
					<stop stop-color="#fff" stop-opacity=".1" offset="1"/>
				</linearGradient>
				<path opacity=".6" enable-background="new " d="m13.2 134.5c1.7-7.4 8.6-18 19.4-17.9 4.1 0.2 6.3 0.5 6.3 0.5s-6.2 6.6-2.2 16.3c2.3 3.9 11.9 3 11.9 3s0.7 2.8 0 7.7c-1.9-2.9-10.8-4.8-17.4 1.1-4.7 4.1-2.4 11.1-2.4 11.1s-16.4 0-15.6-21v-0.8z" fill="url(#SVGID_16_)"/>
				<ellipse rx="8" stroke="#C6B159" ry="7.7" cy="154.5" cx="41.5" stroke-miterlimit="10" fill="#FFF9D7"/>
				<ellipse rx="8" stroke="#C6B159" ry="7.7" cy="124.8" cx="48.6" stroke-miterlimit="10" fill="#FFF9D7"/>
				<ellipse cy="157.7" cx="47.7" rx="1.6" ry="1.5" fill="#1D1D1B"/>
				<ellipse cy="128" cx="54.1" rx="1.6" ry="1.5" fill="#1D1D1B"/>
				<path d="m71.6 158.3h-2.6c-0.3 0-0.6-0.1-1-0.1-0.3-0.1-0.7-0.1-1-0.2s-0.7-0.2-1-0.3c-0.3-0.2-0.7-0.3-1-0.5-0.3-0.1-0.6-0.4-0.9-0.6s-0.5-0.4-0.7-0.6l-0.6-0.6c-0.2-0.2-0.3-0.4-0.4-0.5-0.1-0.2-0.2-0.3-0.3-0.4-0.2-0.2-0.3-0.4-0.3-0.4s0.1 0.1 0.3 0.3l0.4 0.4c0.2 0.1 0.3 0.3 0.5 0.5s0.4 0.3 0.7 0.5c0.2 0.2 0.5 0.3 0.8 0.5 0.3 0.1 0.5 0.3 0.9 0.4 0.3 0.1 0.6 0.2 0.9 0.3 0.3 0 0.6 0.1 1 0.1 0.3 0.1 0.6 0 0.9 0h0.9c0.3 0 0.5-0.1 0.8-0.1 0.2 0 0.5-0.1 0.7-0.1s0.4-0.1 0.5-0.1c0.3-0.1 0.5-0.1 0.5-0.1v1.6z" fill="#AF7045"/>
				<linearGradient id="SVGID_17_" y2="197" gradientUnits="userSpaceOnUse" x2="236.17" gradientTransform="matrix(1 0 0 -1 0 396)" y1="197" x1="49.579">
				<stop stop-color="#67D3F9" offset="0"/>
				<stop stop-color="#51A6F9" offset="1"/>
			</linearGradient>
			<path stroke="#3077B7" stroke-width="2" stroke-miterlimit="10" d="m49.6 206c0-7.2 2.7-22.6 37.7-30.2 35-7.5 111.6-3.3 111.6-3.3s33.1-11.4 36.9 11.6-18.1 31.4-36.1 34.7c-17.9 3.3-128.2 10-129.1 9.4s-21 2.9-21-22.2z" fill="url(#SVGID_17_)"/>
			<path opacity=".5" enable-background="new " d="m229.7 204.4c-2-7.3-7.7-15.2-10.1-24.5-1.3-4.8-1.2-7.4-2.8-9.3h-1.1c-8.5 0-16.5 2.8-16.6 2.8l-0.2 0.1h-0.2c-0.2 0-21.9-1.2-47.1-1.2-28.9 0-50.5 1.5-64.2 4.5-11.6 2.5-20.5 6-26.7 10.6-5.2 12.2-6.4 24.5-3.2 36.9 4.3 3.1 9.4 3.2 11.8 3.3 0.8 0 1.2 0 1.5 0.1h0.4c9.7 0 111.6-6.4 128.2-9.4 14.5-2.9 24.6-7.5 30.3-13.9z" fill="#3077B7"/>
			<linearGradient id="SVGID_18_" y2="245.69" gradientUnits="userSpaceOnUse" x2="139.08" gradientTransform="matrix(1 0 0 -1 0 396)" y1="245.69" x1="122.44">
			<stop stop-color="#F7D7B8" offset="0"/>
			<stop stop-color="#F7CFAF" offset=".483"/>
			<stop stop-color="#F7C7A6" offset="1"/>
		</linearGradient>
			<ellipse rx="8.3" stroke="#AF7045" ry="8" cy="150.3" cx="130.8" stroke-miterlimit="10" stroke-width="2" fill="url(#SVGID_18_)"/>
			<linearGradient id="SVGID_19_" y2="189.03" gradientUnits="userSpaceOnUse" x2="214.86" gradientTransform="matrix(1 0 0 -1 0 396)" y1="189.03" x1="61.83">
			<stop stop-color="#F7D7B8" offset="0"/>
			<stop stop-color="#F7CFAF" offset=".483"/>
			<stop stop-color="#F7C7A6" offset="1"/>
		</linearGradient>
		<path stroke="#AF7045" stroke-width="2" stroke-miterlimit="10" d="m214.3 196c4.9 31.3-25.1 61.6-67 67.7-42 6.1-80-14.4-84.9-45.7s25.1-61.6 67-67.7c42-6.1 80 14.4 84.9 45.7z" fill="url(#SVGID_19_)"/>
				<linearGradient id="SVGID_20_" y2="131.17" gradientUnits="userSpaceOnUse" x2="101.34" gradientTransform="matrix(1 0 0 -1 0 396)" y1="105.31" x1="102.97">
				<stop stop-color="#E8871C" offset="0"/>
				<stop stop-color="#E8651C" offset="1"/>
			</linearGradient>
			<path stroke="#C13F0C" stroke-width="2" stroke-miterlimit="10" d="m96.5 270.6s-10.1 3.4-8.7 17 3-3.7 3.1-4.1-0.6 8.3 4.8 10.2c0.3-3.1 0.7-4.5 0.7-4.5s3.3 8.3 13.4 3.5c10.1-4.8 7.5-14.7 6-16.7s-8.2-6.9-19.3-5.4z" fill="url(#SVGID_20_)"/>
			<path opacity=".5" enable-background="new " d="m101.6 285.2c6.4 0 11.5-4.1 11.5-9.1 0-0.5-0.1-1-0.2-1.4-2.4-1.6-6.6-3.5-12.4-3.5-1.3 0-2.6 0.1-3.9 0.3-0.6 0.2-4.3 1.7-6.5 6 1 4.3 5.8 7.7 11.5 7.7z" fill="#C13F0C"/>
			<ellipse rx="5.1" stroke="#197EA5" ry="4.9" cy="277.4" cx="100.7" stroke-miterlimit="10" fill="#36A9E1"/>
				<linearGradient id="SVGID_21_" y2="131.03" gradientUnits="userSpaceOnUse" x2="98.929" gradientTransform="matrix(1 0 0 -1 0 396)" y1="105.15" x1="100.56">
				<stop stop-color="#E8871C" offset="0"/>
				<stop stop-color="#E8651C" offset="1"/>
			</linearGradient>
			<path stroke="#C13F0C" stroke-width="2" stroke-miterlimit="10" d="m82 244.5s-2.6 9.8 4.3 18.5c-1.7 4.1 5.1 11.4 8 12 0.9 2.7 6.4 3.8 9.6 1.4s0-7.6 0-7.6l2.6-4s4.3-1.2 8-8c3.7-6.9-32.5-12.3-32.5-12.3z" fill="url(#SVGID_21_)"/>
			<path opacity=".5" enable-background="new " d="m82.7 245.4c-0.3 2-0.9 7.9 2.2 13.9 5.9 3.5 13 6.5 19.4 7.1l1.6-2.4 0.3-0.1s4-1.2 7.4-7.6c0.2-0.4 0.2-0.8 0-1.2-2.2-4.3-22.3-8.3-30.9-9.7z" fill="#C13F0C"/>
				<path d="m86.8 262.3l0.2 0.2c0.1 0.1 0.3 0.3 0.4 0.5l0.3 0.3c0.1 0.1 0.2 0.2 0.4 0.3l0.9 0.6c0.3 0.2 0.6 0.4 1 0.5 0.3 0.1 0.6 0.3 0.9 0.3 0.3 0.1 0.5 0.1 0.7 0.2 0.2 0 0.3 0.1 0.3 0.1s-0.1 0-0.3 0h-0.7c-0.3 0-0.6 0-1-0.1-0.4 0-0.7-0.1-1.1-0.2s-0.8-0.2-1.1-0.4c-0.2-0.1-0.3-0.1-0.5-0.2s-0.3-0.2-0.5-0.2c-0.3-0.2-0.5-0.3-0.6-0.4s-0.2-0.1-0.2-0.1l0.9-1.4z" fill="#C13F0C"/>
				<path d="m107 265.4s-0.5 0.1-1.2 0.1c-0.2 0-0.4 0.1-0.6 0.1h-0.7c-0.5 0-1 0-1.5 0.1h-3.9s0.5-0.1 1.2-0.2c0.7-0.1 1.7-0.4 2.6-0.6 0.5-0.1 0.9-0.2 1.4-0.3 0.2-0.1 0.4-0.1 0.6-0.2 0.2 0 0.4-0.1 0.6-0.2 0.7-0.2 1.2-0.4 1.2-0.4l0.3 1.6z" fill="#C13F0C"/>
				<path d="m105 268.8l-0.6 0.3c-0.1 0.1-0.2 0.1-0.3 0.2s-0.2 0.1-0.4 0.2c-0.3 0.1-0.5 0.2-0.8 0.3s-0.6 0.1-0.8 0.2c-0.1 0-0.2 0.1-0.4 0.1h-1s0.2-0.1 0.6-0.3c0.1 0 0.2-0.1 0.3-0.1s0.2-0.1 0.3-0.2c0.2-0.1 0.4-0.3 0.6-0.4l0.5-0.5 0.2-0.2c0.1-0.1 0.1-0.2 0.2-0.3 0.2-0.3 0.4-0.5 0.4-0.5l1.2 1.2z" fill="#C13F0C"/>
				<path d="m87.2 264.6s0.1 0.1 0.4 0.2c0.1 0 0.3 0.1 0.4 0.1 0.2 0 0.4 0.1 0.6 0.2 0.2 0 0.5 0.1 0.7 0.1 0.2 0.1 0.5 0.1 0.8 0.1 0.5 0.1 1.1 0.1 1.7 0.2s1.2 0.1 1.7 0.1c0.3 0 0.5 0 0.8 0.1h0.7c0.9 0 1.5 0.1 1.5 0.1s-0.6 0.2-1.5 0.3c-0.5 0.1-1 0.2-1.6 0.2s-1.2 0.1-1.8 0c-0.3 0-0.6-0.1-0.9-0.1s-0.6-0.1-0.9-0.2c-0.6-0.1-1.1-0.3-1.5-0.5l-0.6-0.3c-0.2-0.1-0.3-0.2-0.4-0.3-0.1-0.2-0.1-0.3-0.1-0.3z" fill="#FFA05F"/>
				<path d="m103.4 269.7s-0.4 0.4-1.2 0.8c-0.4 0.2-0.9 0.4-1.4 0.5s-1.1 0.2-1.7 0.3h-0.9c-0.3 0-0.6-0.1-0.9-0.1s-0.5-0.1-0.8-0.2c-0.2-0.1-0.5-0.1-0.7-0.2-0.4-0.1-0.7-0.3-0.9-0.5-0.2-0.1-0.3-0.2-0.3-0.2s0.1 0 0.4 0.1c0.1 0 0.3 0 0.4 0.1 0.2 0 0.4 0 0.6 0.1 0.4 0.1 0.9 0.1 1.4 0.1h1.6c0.5 0 1.1-0.1 1.6-0.1 0.5-0.1 1-0.2 1.4-0.3 0.8-0.3 1.4-0.4 1.4-0.4z" fill="#FFA05F"/>
				<path d="m100.7 292.2s0.4 0.2 1.1 0.3 1.7 0.2 2.9 0.1 2.6-0.4 4-1c1.4-0.5 2.8-1.3 3.9-2.4 0.6-0.5 1.1-1.1 1.5-1.7s0.7-1.3 0.9-2c0.4-1.4 0.6-2.7 0.6-3.9v-3.9s0 0.4 0.1 1.1 0.3 1.7 0.3 2.9 0 2.6-0.4 4.1c-0.2 0.7-0.5 1.5-0.9 2.2s-1 1.4-1.6 1.9c-1.3 1.1-2.8 1.9-4.3 2.4s-3 0.7-4.2 0.8c-1.3 0-2.3-0.2-3-0.4-0.3-0.1-0.6-0.2-0.8-0.3 0-0.2-0.1-0.2-0.1-0.2z" fill="#FFA05F"/>
				<linearGradient id="SVGID_22_" y2="154.7" gradientUnits="userSpaceOnUse" x2="278.57" gradientTransform="matrix(-.9438 .3304 -.3304 -.9438 499.92 310.39)" y1="128.82" x1="280.21">
				<stop stop-color="#E8871C" offset="0"/>
				<stop stop-color="#E8651C" offset="1"/>
			</linearGradient>
			<path stroke="#C13F0C" stroke-width="2" stroke-miterlimit="10" d="m192.2 260.4s10.7 0 14.1 13.3-4.1-2.5-4.4-2.9 3.4 7.7-1 11.2c-1.3-2.9-2.2-4-2.2-4s-0.2 8.9-11.4 7.6c-11.2-1.3-12.2-11.5-11.4-13.9 0.6-2.5 5.3-9.2 16.3-11.3z" fill="url(#SVGID_22_)"/>
			<path opacity=".5" enable-background="new " d="m192.4 275.7c-6 2-12.3-0.2-14-5-0.2-0.5-0.3-0.9-0.3-1.4 1.7-2.3 5-5.3 10.5-7.2 1.2-0.4 2.4-0.7 3.7-1 0.6 0 4.6 0.3 8.2 3.6 0.6 4.5-2.7 9.2-8.1 11z" fill="#C13F0C"/>
			<ellipse rx="5.1" stroke="#197EA5" ry="4.9" cy="268.1" cx="190.6" stroke-miterlimit="10" fill="#36A9E1"/>
				<linearGradient id="SVGID_23_" y2="154.53" gradientUnits="userSpaceOnUse" x2="276.63" gradientTransform="matrix(-.9438 .3304 -.3304 -.9438 499.92 310.39)" y1="128.73" x1="278.26">
				<stop stop-color="#E8871C" offset="0"/>
				<stop stop-color="#E8651C" offset="1"/>
			</linearGradient>
			<path stroke="#C13F0C" stroke-width="2" stroke-miterlimit="10" d="m196.8 231.2s5.8 8.4 2.4 18.8c3 3.3-0.9 12.4-3.4 13.8 0.1 2.8-4.7 5.6-8.6 4.3s-2.6-7.2-2.6-7.2l-3.9-2.9s-4.4 0.2-10.3-5c-5.8-5.3 26.4-21.8 26.4-21.8z" fill="url(#SVGID_23_)"/>
			<path opacity=".5" enable-background="new " d="m196.5 232.3c1 1.8 3.6 7.2 2.7 13.8-4.4 5.1-10 10.3-15.9 12.8l-2.3-1.8h-0.3s-4.2 0.1-9.6-4.8c-0.4-0.3-0.5-0.7-0.4-1.2 0.5-4.7 18.1-14.8 25.8-18.8z" fill="#C13F0C"/>
				<path d="m200 250.3l-0.2 0.2c-0.1 0.1-0.2 0.3-0.5 0.5l-0.4 0.4c-0.1 0.1-0.3 0.2-0.4 0.4-0.3 0.2-0.6 0.5-0.9 0.7s-0.7 0.4-1 0.6-0.6 0.3-0.9 0.4-0.5 0.2-0.7 0.2c-0.2 0.1-0.3 0.1-0.3 0.1s0.1-0.1 0.2-0.1c0.1-0.1 0.3-0.2 0.6-0.4 0.2-0.2 0.5-0.4 0.7-0.6 0.3-0.2 0.5-0.5 0.7-0.8s0.5-0.5 0.6-0.8c0.1-0.1 0.2-0.3 0.3-0.4s0.1-0.2 0.2-0.3l0.3-0.6c0.1-0.1 0.1-0.2 0.1-0.2l1.6 0.7z" fill="#C13F0C"/>
				<path d="m180.3 257.2h2.4c0.4 0 0.9-0.1 1.4-0.1 1-0.1 1.9-0.2 2.7-0.3 0.7-0.1 1.2-0.2 1.2-0.2s-0.5 0.2-1.2 0.4c-0.7 0.3-1.6 0.5-2.6 0.9-0.5 0.1-1 0.3-1.4 0.4-0.2 0.1-0.5 0.1-0.7 0.2s-0.4 0.1-0.6 0.1c-0.7 0.2-1.2 0.3-1.2 0.3v-1.7z" fill="#C13F0C"/>
				<path d="m184.2 259.8s0.2 0.1 0.6 0.4c0.1 0.1 0.2 0.1 0.3 0.2s0.2 0.1 0.3 0.1l0.6 0.3c0.2 0.1 0.5 0.1 0.7 0.2 0.1 0 0.2 0.1 0.3 0.1h0.3c0.4 0 0.7 0.1 0.7 0.1s-0.3 0.1-0.7 0.2c-0.1 0-0.2 0.1-0.3 0.1s-0.2 0-0.4 0.1c-0.3 0-0.6 0.1-0.8 0.1-0.3 0-0.6 0-0.9-0.1h-0.4c-0.1 0-0.2 0-0.3-0.1-0.4-0.1-0.7-0.1-0.7-0.1l0.7-1.6z" fill="#C13F0C"/>
				<path d="m198.9 251.7s0 0.1-0.2 0.4c-0.1 0.1-0.2 0.3-0.3 0.4s-0.3 0.3-0.4 0.5c-0.3 0.3-0.7 0.7-1.2 0.9-0.2 0.1-0.5 0.3-0.8 0.4s-0.6 0.3-0.8 0.4c-0.6 0.3-1.1 0.4-1.7 0.6-0.5 0.2-1.1 0.3-1.5 0.3-0.9 0.1-1.5 0.2-1.5 0.2s0.6-0.3 1.4-0.6c0.2-0.1 0.4-0.2 0.7-0.2 0.2-0.1 0.5-0.2 0.7-0.3 0.5-0.2 1.1-0.4 1.6-0.6s1.1-0.4 1.6-0.7c0.2-0.1 0.5-0.2 0.7-0.4l0.6-0.3c0.2-0.1 0.3-0.2 0.5-0.3s0.3-0.2 0.4-0.3c0.1-0.3 0.2-0.4 0.2-0.4z" fill="#FFA05F"/>
				<path d="m185.4 261.7s0.6 0 1.4-0.1c0.4 0 0.9-0.1 1.4-0.2s1-0.2 1.6-0.4c0.5-0.1 1-0.3 1.5-0.5s0.9-0.4 1.3-0.6c0.2-0.1 0.4-0.2 0.5-0.3 0.2-0.1 0.3-0.2 0.4-0.2l0.4-0.2s-0.1 0.1-0.2 0.3c-0.2 0.2-0.4 0.5-0.7 0.7-0.2 0.1-0.3 0.3-0.6 0.4-0.2 0.1-0.4 0.3-0.7 0.4-0.2 0.1-0.5 0.3-0.8 0.4s-0.5 0.2-0.8 0.3c-0.6 0.2-1.2 0.3-1.7 0.3h-1.5c-1-0.1-1.5-0.3-1.5-0.3z" fill="#FFA05F"/>
				<path d="m195.7 282.1l-0.2 0.2c-0.1 0.1-0.3 0.3-0.6 0.5-0.6 0.4-1.5 0.9-2.7 1.3s-2.7 0.6-4.2 0.6c-1.6 0-3.3-0.3-4.9-0.9-0.8-0.3-1.5-0.8-2.2-1.3-0.6-0.5-1.2-1.2-1.6-1.8-0.9-1.3-1.4-2.6-1.8-3.7s-0.5-2.1-0.7-2.8c-0.1-0.7-0.2-1.1-0.2-1.1s0.2 0.4 0.4 1c0.2 0.7 0.5 1.6 1 2.7 0.4 1.1 1.1 2.3 1.9 3.5 0.4 0.6 0.9 1.1 1.5 1.6s1.3 0.8 2 1.2c1.4 0.6 3 0.9 4.5 1s2.9-0.1 4.1-0.3c1.2-0.3 2.1-0.6 2.7-1 0.7-0.5 1-0.7 1-0.7z" fill="#FFA05F"/>
				<linearGradient id="SVGID_24_" y2="181.3" gradientUnits="userSpaceOnUse" x2="67.893" gradientTransform="matrix(1 0 0 -1 0 396)" y1="181.3" x1="48.764">
				<stop stop-color="#F7D7B8" offset="0"/>
				<stop stop-color="#F7CFAF" offset=".483"/>
				<stop stop-color="#F7C7A6" offset="1"/>
			</linearGradient>
			<path stroke="#AF7045" stroke-width="2" stroke-miterlimit="10" d="m64.6 207s-17.1 2.3-15.8 10.7 18.3 3.3 19 3.1c0.7-0.3-3.2-13.8-3.2-13.8z" fill="url(#SVGID_24_)"/>
			<path d="m64 207.9c-1.7 0.3-5.8 1.1-9.3 2.8-0.5 3.4 0.3 7.1 1.6 10.9h0.8c4 0 8.4-1.1 9.9-1.5-0.2-1.7-1.6-7.1-3-12.2z" fill="#D89060"/>
				<linearGradient id="SVGID_25_" y2="121.99" gradientUnits="userSpaceOnUse" x2="317.15" gradientTransform="matrix(-1 0 0 1 524.72 77.259)" y1="121.99" x1="298.03">
				<stop stop-color="#F7D7B8" offset="0"/>
				<stop stop-color="#F7CFAF" offset=".483"/>
				<stop stop-color="#F7C7A6" offset="1"/>
			</linearGradient>
			<path stroke="#AF7045" stroke-width="2" stroke-miterlimit="10" d="m210.8 207s17.1-2.3 15.8-10.7-18.3-3.3-19-3.1c-0.6 0.3 3.2 13.8 3.2 13.8z" fill="url(#SVGID_25_)"/>
			<path d="m211.5 206c1.7-0.3 5.8-1.1 9.3-2.8 0.5-3.4-0.3-7.1-1.6-10.9h-0.8c-4 0-8.4 1.1-9.9 1.5 0.1 1.7 1.5 7.1 3 12.2z" fill="#D89060"/>
				<linearGradient id="SVGID_26_" y2="126.14" gradientUnits="userSpaceOnUse" x2="138.15" gradientTransform="matrix(1 0 0 -1 0 396)" y1="236.92" x1="138.15">
				<stop stop-color="#E8871C" offset="0"/>
				<stop stop-color="#E8651C" offset="1"/>
			</linearGradient>
			<path stroke="#C13F0C" stroke-width="2" stroke-miterlimit="10" d="m214.3 196c3 31.5-25.1 61.6-67 67.7-42 6.1-80-14.4-84.9-45.7-3.7-23.5 9.8-53 38.2-58.9 11.4-2.4 33 3.1 33.9 3.7-1.9-4.7-5.7-7.1-7.7-8.5 4.3-0.3 11.6 4 11.6 4l-1.1-7.3 7.6 2.1c5.4-2.7 13.4-7.5 22.5-5s43.2 8.4 46.9 47.9z" fill="url(#SVGID_26_)"/>
			<g fill="#FFA05F">
				<path d="m144.9 156c5.4-2.7 13.4-7.5 22.5-5 7.9 2.2 34.6 6.9 44 33.8-7.8-26.7-32.2-32.8-42-35.4-0.8-0.2-1.6-0.4-2.2-0.6-1.6-0.4-3.3-0.7-5-0.7-6 0-11.2 2.7-15.4 4.9-0.5 0.2-0.9 0.5-1.4 0.7l-0.4 0.3-6.7-1.9 0.3 2.1 6.3 1.8z"/>
				<path d="m132.8 158.4c3 1.2 5.6 2.7 5.6 2.7l-0.4-2.1-0.1-0.1c-0.1 0-4.4-2.6-8.2-3.5 1 0.8 2.1 1.8 3.1 3z"/>
				<path d="m100.5 161.9c11.4-2.4 33 3.1 33.9 3.7-0.4-0.9-0.8-1.8-1.3-2.5-3.3-1-15.6-3.9-25.7-3.9-2.6 0-4.8 0.2-6.7 0.6-17.2 3.6-33.5 19-37.3 40.1 4.2-17.5 16.9-33.8 37.1-38z"/>
			</g>
					<line y1="168.8" x2="142.9" x1="136.1" y2="257" fill="none"/>
					<path d="m136.1 168.8s0.2 1.4 0.5 3.8 0.7 5.8 1.1 10c0.4 4.1 0.9 8.9 1.3 14.1 0.2 2.6 0.5 5.2 0.7 8 0.2 2.7 0.4 5.5 0.7 8.2 0.2 2.8 0.4 5.5 0.6 8.2s0.4 5.4 0.5 8c0.3 5.2 0.6 10 0.8 14.1s0.3 7.6 0.4 10 0.1 3.8 0.1 3.8-0.2-1.4-0.5-3.8c-0.3-2.4-0.7-5.8-1.1-10-0.4-4.1-0.9-8.9-1.3-14.1-0.2-2.6-0.5-5.3-0.7-8s-0.4-5.5-0.7-8.2c-0.2-2.8-0.4-5.5-0.6-8.2s-0.4-5.4-0.5-8c-0.3-5.2-0.6-10-0.8-14.1s-0.3-7.6-0.4-10-0.1-3.8-0.1-3.8z" fill="#C13F0C"/>
					<path d="m136.2 174.4s-0.7-0.6-2-1.5-3.3-2.2-5.8-3.5-5.5-2.6-8.9-3.6c-1.7-0.5-3.5-1-5.3-1.3-0.9-0.2-1.8-0.3-2.8-0.5-0.9-0.1-1.9-0.3-2.8-0.3-0.9-0.1-1.9-0.2-2.8-0.2h-2.8c-0.9 0-1.9 0.1-2.8 0.1s-1.8 0.2-2.7 0.3-1.7 0.3-2.6 0.4c-0.8 0.1-1.7 0.3-2.5 0.5-1.6 0.3-3.1 0.8-4.4 1.2-1.3 0.5-2.6 0.9-3.6 1.4-1.1 0.5-2 0.8-2.7 1.2-1.5 0.7-2.3 1.1-2.3 1.1s0.8-0.4 2.3-1.2c0.7-0.4 1.7-0.8 2.7-1.2 1-0.5 2.3-0.9 3.6-1.4 1.4-0.4 2.8-0.9 4.4-1.3 0.8-0.2 1.6-0.4 2.5-0.6 0.8-0.2 1.7-0.3 2.6-0.5 0.9-0.1 1.8-0.3 2.7-0.3 0.9-0.1 1.8-0.2 2.8-0.2h2.8c1 0 1.9 0.1 2.9 0.1 1 0.1 1.9 0.2 2.9 0.3 0.9 0.2 1.9 0.3 2.8 0.5 1.9 0.3 3.7 0.8 5.4 1.3 3.4 1 6.5 2.3 9.1 3.6 5.1 2.5 8.1 5 8.1 5l-0.8 0.6z" fill="#C13F0C"/>
					<path d="m136.7 180.4s-0.8-0.4-2.3-1.1-3.6-1.6-6.2-2.6c-1.3-0.5-2.7-1-4.2-1.5s-3.1-1-4.8-1.5c-1.7-0.4-3.4-0.9-5.2-1.2-1.8-0.4-3.6-0.7-5.5-0.9s-3.7-0.4-5.6-0.4c-0.9 0-1.8-0.1-2.7 0h-1.3c-0.4 0-0.9 0.1-1.3 0.1-0.9 0-1.7 0.1-2.6 0.2-0.8 0.1-1.7 0.2-2.4 0.3-0.8 0.1-1.6 0.3-2.3 0.4-0.7 0.2-1.5 0.3-2.1 0.5-1.4 0.3-2.6 0.8-3.6 1.2-1.1 0.4-2 0.8-2.7 1.1-1.5 0.7-2.3 1.1-2.3 1.1s0.8-0.4 2.3-1.2c0.7-0.3 1.6-0.7 2.7-1.2 1.1-0.4 2.3-0.8 3.6-1.2 0.7-0.2 1.4-0.4 2.1-0.5 0.7-0.2 1.5-0.3 2.3-0.5 0.8-0.1 1.6-0.3 2.5-0.4 0.8-0.1 1.7-0.2 2.6-0.3 0.4 0 0.9-0.1 1.3-0.1h4.2c1.9 0 3.7 0.2 5.6 0.4s3.7 0.5 5.5 0.8 3.6 0.8 5.3 1.2 3.3 0.9 4.9 1.4c1.5 0.5 3 1 4.3 1.5 5.3 1.9 8.6 3.7 8.6 3.7l-0.7 0.7z" fill="#C13F0C"/>
					<path d="m136.4 176.8s2.5-3 7-6.7c1.1-0.9 2.4-1.9 3.7-2.9 1.4-1 2.9-1.9 4.4-2.9 1.6-0.9 3.3-1.8 5-2.6s3.6-1.5 5.5-2.1 3.8-1.1 5.7-1.4 3.8-0.5 5.7-0.5c0.9 0 1.8 0.1 2.7 0.1 0.9 0.1 1.8 0.2 2.6 0.3s1.6 0.3 2.4 0.5 1.5 0.4 2.2 0.6 1.4 0.4 2 0.7c0.6 0.2 1.2 0.4 1.8 0.7 1.1 0.5 2 0.9 2.8 1.3 1.5 0.8 2.3 1.3 2.3 1.3s-0.9-0.5-2.4-1.3c-0.7-0.4-1.7-0.8-2.8-1.3-0.5-0.2-1.2-0.4-1.8-0.7-0.6-0.2-1.3-0.5-2-0.7s-1.4-0.4-2.2-0.6c-0.8-0.1-1.6-0.3-2.4-0.4s-1.7-0.2-2.6-0.3c-0.9 0-1.8-0.1-2.7-0.1-1.8 0.1-3.7 0.2-5.6 0.6-1.9 0.3-3.8 0.8-5.7 1.4-1.8 0.6-3.7 1.4-5.4 2.2s-3.4 1.8-4.9 2.7c-1.5 1-3 1.9-4.3 2.9s-2.6 2-3.7 2.9c-2.2 1.9-3.9 3.5-5.1 4.8-1.2 1.2-1.8 1.9-1.8 1.9l-0.4-0.4z" fill="#C13F0C"/>
					<path d="m138.4 207.4s-4.2 0.3-10.5 0.8c-3.1 0.3-6.8 0.6-10.7 0.9-2 0.2-4 0.4-6.1 0.5-2.1 0.2-4.2 0.4-6.2 0.6-2.1 0.2-4.2 0.4-6.2 0.6-2.1 0.2-4.1 0.5-6 0.7-2 0.2-3.9 0.4-5.6 0.7-1.8 0.2-3.5 0.5-5 0.7-1.6 0.2-3 0.4-4.3 0.6s-2.4 0.4-3.3 0.6c-1.8 0.3-2.8 0.5-2.8 0.5s1-0.2 2.8-0.5c0.9-0.2 2-0.4 3.3-0.6 1.3-0.3 2.7-0.5 4.2-0.7 1.6-0.2 3.3-0.5 5-0.7 1.8-0.3 3.7-0.5 5.6-0.7 2-0.2 4-0.5 6-0.8 2.1-0.3 4.1-0.5 6.2-0.7s4.2-0.5 6.2-0.7c2.1-0.2 4.1-0.4 6.1-0.6 3.9-0.4 7.6-0.8 10.7-1.1l10.5-1 0.1 0.9z" fill="#C13F0C"/>
					<path d="m139.5 214.7s16.6-0.2 33.1-1.3c8.3-0.6 16.5-1.4 22.6-2.5 3.1-0.5 5.6-1.2 7.3-1.8 0.4-0.1 0.8-0.3 1.1-0.4s0.6-0.3 0.8-0.4c0.4-0.2 0.6-0.4 0.6-0.4s-0.2 0.1-0.6 0.4c-0.2 0.1-0.5 0.3-0.8 0.4s-0.7 0.3-1.1 0.5c-1.7 0.6-4.2 1.3-7.2 1.9-6.1 1.2-14.4 2.1-22.6 2.7-16.5 1.3-33.1 1.7-33.1 1.7l-0.1-0.8z" fill="#C13F0C"/>
					<path d="m140.4 228.7s-16.6 3.2-33.4 5c-4.2 0.4-8.4 0.8-12.4 1-2 0.1-3.9 0.2-5.7 0.2h-5.1c-1.6-0.1-3-0.1-4.3-0.3-0.6-0.1-1.2-0.1-1.8-0.2s-1.1-0.1-1.5-0.2c-0.5-0.1-0.9-0.2-1.2-0.2-0.3-0.1-0.6-0.2-0.9-0.2-0.5-0.1-0.7-0.2-0.7-0.2s0.3 0.1 0.7 0.2c0.2 0.1 0.5 0.1 0.9 0.2s0.8 0.1 1.2 0.2c0.5 0.1 1 0.2 1.5 0.2 0.6 0.1 1.1 0.2 1.8 0.2 1.3 0.1 2.7 0.2 4.3 0.2h5.1c1.8-0.1 3.7-0.1 5.7-0.3 3.9-0.3 8.1-0.7 12.3-1.2 8.4-1 16.7-2.3 22.9-3.4s10.4-1.9 10.4-1.9l0.2 0.7z" fill="#C13F0C"/>
					<path d="m142.4 246.8s0.2 0.1 0.5 0.2 0.8 0.2 1.5 0.4c0.6 0.2 1.4 0.3 2.4 0.4 0.9 0.1 2 0.3 3.1 0.3 1.1 0.1 2.4 0.2 3.7 0.2h4.1c1.4-0.1 2.9-0.1 4.4-0.3 0.8-0.1 1.5-0.1 2.3-0.2s1.5-0.2 2.3-0.3 1.5-0.2 2.3-0.3 1.5-0.3 2.2-0.4c1.5-0.3 3-0.5 4.3-0.8 1.4-0.3 2.8-0.6 4-0.9 1.3-0.3 2.5-0.6 3.6-0.9s2.1-0.6 3-0.8c0.9-0.3 1.7-0.5 2.3-0.7 1.3-0.4 2-0.6 2-0.6s-0.7 0.2-2 0.6c-0.6 0.2-1.4 0.4-2.3 0.7s-1.9 0.6-3 0.9-2.3 0.6-3.6 1c-1.3 0.3-2.6 0.6-4 1-1.4 0.3-2.9 0.6-4.3 0.9-0.7 0.1-1.5 0.3-2.2 0.4-0.8 0.1-1.5 0.2-2.3 0.3s-1.5 0.2-2.3 0.3-1.5 0.2-2.3 0.2c-1.5 0.2-3 0.2-4.4 0.4-1.4 0.1-2.8 0.1-4.2 0.1-1.3 0-2.6 0-3.7-0.1-1.2-0.1-2.2-0.2-3.2-0.3-0.9-0.1-1.8-0.3-2.4-0.4-0.7-0.1-1.2-0.3-1.5-0.4-0.4-0.1-0.5-0.2-0.5-0.2l0.2-0.7z" fill="#C13F0C"/>
					<path d="m140.4 179.6s0.7-0.5 2-1.3c0.6-0.4 1.4-0.8 2.4-1.4 0.9-0.5 2-1 3.2-1.6 0.6-0.3 1.2-0.5 1.9-0.8s1.3-0.5 2-0.8 1.4-0.5 2.2-0.7c0.7-0.2 1.5-0.5 2.3-0.7l2.4-0.6c0.8-0.2 1.7-0.4 2.5-0.5 1.7-0.4 3.4-0.6 5.1-0.9 1.7-0.2 3.5-0.4 5.2-0.5 0.9 0 1.7-0.1 2.6-0.1h2.5c0.8 0 1.6 0 2.4 0.1 0.8 0 1.6 0.1 2.3 0.1 0.7 0.1 1.5 0.2 2.2 0.2 0.4 0 0.7 0.1 1 0.1 0.3 0.1 0.7 0.1 1 0.2 1.3 0.2 2.5 0.4 3.5 0.7s1.9 0.5 2.7 0.7c1.4 0.5 2.3 0.8 2.3 0.8s-0.8-0.2-2.3-0.6c-0.7-0.2-1.6-0.4-2.7-0.6-1-0.2-2.2-0.4-3.5-0.5-0.3 0-0.7-0.1-1-0.1s-0.7 0-1-0.1c-0.7-0.1-1.4-0.1-2.2-0.2-0.7 0-1.5 0-2.3-0.1-0.8 0-1.6-0.1-2.4 0-0.8 0-1.6 0-2.5 0.1-0.8 0-1.7 0.1-2.5 0.2-1.7 0.1-3.4 0.4-5.1 0.5-1.7 0.3-3.4 0.5-5.1 0.8-0.8 0.2-1.7 0.3-2.5 0.5l-2.4 0.6c-0.8 0.2-1.5 0.4-2.3 0.6-0.7 0.2-1.5 0.4-2.2 0.6s-1.4 0.5-2 0.7c-0.7 0.2-1.3 0.5-1.9 0.7-1.2 0.5-2.3 0.9-3.2 1.4s-1.8 0.8-2.4 1.2c-1.5 0.9-2.2 1.3-2.2 1.3z" fill="#FFA05F"/>
					<path d="m116.3 184.4s-0.7-0.1-1.9-0.3c-0.6-0.1-1.3-0.2-2.2-0.3-0.4 0-0.9-0.1-1.3-0.1-0.5 0-1 0-1.5-0.1-1-0.1-2.2 0-3.3 0-0.6 0-1.2 0-1.8 0.1s-1.3 0.1-1.9 0.1c-1.3 0.1-2.6 0.2-4 0.5-1.3 0.2-2.7 0.5-4.1 0.7-1.3 0.3-2.7 0.5-4 0.9-1.3 0.3-2.6 0.7-3.9 1-1.2 0.4-2.4 0.7-3.6 1-1.1 0.4-2.2 0.7-3.2 1-2 0.7-3.6 1.2-4.7 1.6s-1.8 0.6-1.8 0.6 0.6-0.3 1.7-0.8c0.6-0.2 1.2-0.5 2-0.8s1.7-0.7 2.6-1c1.9-0.7 4.2-1.6 6.7-2.3 1.3-0.4 2.5-0.7 3.9-1.1 1.3-0.4 2.7-0.6 4-0.9 1.4-0.2 2.7-0.5 4.1-0.6 1.4-0.2 2.7-0.3 4-0.4s2.6-0.1 3.8-0.1 2.3 0.1 3.4 0.2c0.5 0 1 0.1 1.5 0.1 0.5 0.1 0.9 0.1 1.3 0.2 0.8 0.1 1.6 0.2 2.2 0.4 1.3 0.2 2 0.4 2 0.4z" fill="#FFA05F"/>
					<path d="m102.7 201.1s-0.4 0.1-1.2 0.2c-0.7 0.1-1.8 0.3-3.1 0.5s-2.7 0.4-4.3 0.6-3.3 0.4-5 0.5c-1.7 0.2-3.4 0.5-4.9 0.7-1.6 0.2-3.1 0.3-4.3 0.5-1.3 0.1-2.3 0.2-3.1 0.3-0.7 0.1-1.2 0.1-1.2 0.1s0.4-0.1 1.1-0.2c0.7-0.1 1.8-0.4 3-0.6 1.3-0.2 2.7-0.5 4.3-0.7 1.6-0.3 3.3-0.5 5-0.8 1.7-0.2 3.4-0.3 5-0.4s3.1-0.2 4.4-0.3 2.3-0.1 3.1-0.2c0.7-0.2 1.2-0.2 1.2-0.2z" fill="#FFA05F"/>
					<path d="m72.7 225.6h1.2c0.4 0 0.9 0 1.4 0.1 0.5 0 1.1 0 1.8 0.1h4.5c1.7 0 3.4-0.1 5.2-0.2s3.5-0.2 5.2-0.4c0.8-0.1 1.6-0.1 2.4-0.2s1.5-0.2 2.1-0.2c1.3-0.1 2.4-0.3 3.2-0.4s1.2-0.1 1.2-0.1-0.4 0.1-1.2 0.3c-0.4 0.1-0.8 0.2-1.4 0.3-0.5 0.1-1.1 0.3-1.8 0.4-1.3 0.2-2.8 0.5-4.5 0.7-0.8 0.1-1.7 0.2-2.6 0.3s-1.8 0.1-2.6 0.2c-0.9 0-1.8 0.1-2.7 0.1h-2.6c-0.8 0-1.6 0-2.4-0.1s-1.5-0.1-2.1-0.2c-0.7 0-1.3-0.1-1.8-0.2s-1-0.2-1.4-0.2c-0.7-0.2-1.1-0.3-1.1-0.3z" fill="#FFA05F"/>
					<path d="m94.6 252.2s0.5 0.2 1.3 0.5c0.4 0.2 1 0.3 1.6 0.5s1.3 0.3 2 0.5 1.6 0.3 2.5 0.4 1.8 0.2 2.8 0.2c1 0.1 2 0.1 3 0.1h3.1c1-0.1 2.1-0.1 3.1-0.2s2-0.1 3-0.2c1.9-0.2 3.8-0.3 5.3-0.5 1.6-0.2 2.9-0.3 3.8-0.4s1.4-0.1 1.4-0.1-0.5 0.1-1.4 0.3c-0.9 0.2-2.2 0.4-3.7 0.7s-3.3 0.5-5.3 0.8l-3 0.3c-1 0.1-2.1 0.1-3.1 0.2-1.1 0-2.1 0.1-3.1 0-1 0-2.1-0.1-3-0.2-1-0.1-1.9-0.2-2.8-0.4s-1.7-0.3-2.5-0.6c-0.4-0.1-0.7-0.2-1.1-0.3-0.3-0.1-0.7-0.2-1-0.4-0.6-0.2-1.1-0.4-1.5-0.6-1-0.3-1.4-0.6-1.4-0.6z" fill="#FFA05F"/>
					<path d="m175.1 194.7s0.5-0.1 1.3-0.2 2-0.3 3.4-0.5 3-0.5 4.8-0.7 3.6-0.5 5.5-0.7c1.9-0.3 3.7-0.6 5.5-0.8 1.7-0.3 3.4-0.4 4.8-0.6s2.6-0.3 3.4-0.4 1.3-0.1 1.3-0.1-0.5 0.1-1.3 0.3c-0.8 0.2-2 0.4-3.3 0.7-1.4 0.3-3 0.6-4.8 0.9-1.7 0.3-3.6 0.6-5.5 0.9-1.9 0.2-3.7 0.4-5.5 0.6s-3.4 0.3-4.8 0.4-2.6 0.2-3.4 0.2h-1.4z" fill="#FFA05F"/>
					<path d="m178.8 216.7h4.7c0.7 0 1.5 0 2.3-0.1 0.8 0 1.7-0.1 2.5-0.2 0.9-0.1 1.8-0.1 2.7-0.3 0.9-0.1 1.8-0.3 2.8-0.4l2.7-0.6c0.9-0.2 1.8-0.4 2.6-0.6 0.8-0.3 1.7-0.4 2.4-0.7 0.8-0.3 1.5-0.5 2.1-0.8 0.3-0.1 0.6-0.2 1-0.3 0.3-0.1 0.6-0.3 0.8-0.4 0.5-0.2 1-0.4 1.3-0.6 0.8-0.3 1.2-0.5 1.2-0.5s-0.4 0.2-1.1 0.7c-0.4 0.2-0.8 0.5-1.3 0.7-0.3 0.1-0.5 0.3-0.8 0.5-0.3 0.1-0.6 0.3-0.9 0.4l-2.1 0.9c-0.8 0.3-1.6 0.5-2.4 0.8-0.9 0.3-1.7 0.6-2.7 0.7-0.9 0.2-1.9 0.4-2.8 0.6-0.9 0.1-1.9 0.2-2.8 0.4s-1.9 0.2-2.8 0.2-1.8 0.1-2.6 0.1-1.6 0-2.3-0.1h-1c-0.3 0-0.6-0.1-0.9-0.1-0.6-0.1-1.1-0.1-1.5-0.2-0.7 0-1.1-0.1-1.1-0.1z" fill="#FFA05F"/>
			<path opacity=".2" enable-background="new " d="m172.5 215.1c0 18.5-15.7 33.5-35 33.5s-35-15-35-33.5 15.7-33.5 35-33.5c19.3 0 35 15 35 33.5z" fill="#C13F0C"/>
						<linearGradient id="SVGID_27_" y2="183.42" gradientUnits="userSpaceOnUse" x2="173.51" gradientTransform="matrix(1 0 0 -1 0 396)" y1="183.42" x1="101.61">
						<stop stop-color="#F9B233" offset="0"/>
						<stop stop-color="#F9CE33" offset=".215"/>
						<stop stop-color="#EE8D29" offset=".745"/>
						<stop stop-color="#F9B233" offset="1"/>
					</linearGradient>
					<path stroke="#CE6117" stroke-width="2" stroke-miterlimit="10" d="m166.9 203.5l-0.2-11.1-11-3.6-7-8.8-11.1 3.2-11.1-3.2-7 8.8-11 3.6-0.2 11.1-6.6 9.1 6.6 9.1 0.2 11.1 11 3.6 7 8.8 11.1-3.2 11.1 3.2 7-8.8 11-3.6 0.2-11.1 6.6-9.1-6.6-9.1zm-29.6 27.6c-10.7 0-19.4-8.3-19.4-18.5s8.7-18.5 19.4-18.5 19.4 8.3 19.4 18.5c-0.1 10.2-8.7 18.5-19.4 18.5z" fill="url(#SVGID_27_)"/>
					<linearGradient id="SVGID_28_" y2="183.42" gradientUnits="userSpaceOnUse" x2="166.92" gradientTransform="matrix(1 0 0 -1 0 396)" y1="183.42" x1="107.61">
					<stop stop-color="#DC7D22" offset="0"/>
					<stop stop-color="#F79034" offset="1"/>
				</linearGradient>
				<path stroke="#CE6117" stroke-width="2" stroke-miterlimit="10" d="m166.9 212.6l-4-8-1.7-8.7-8.1-4.2-6.7-6.1-9.2 1.2-9.2-1.2-6.7 6.1-8.1 4.2-1.7 8.7-4 8 4 8 1.7 8.7 8.1 4.2 6.7 6.1 9.2-1.2 9.2 1.2 6.7-6.1 8.1-4.2 1.7-8.7 4-8zm-29.6 18.5c-10.7 0-19.4-8.3-19.4-18.5s8.7-18.5 19.4-18.5 19.4 8.3 19.4 18.5c-0.1 10.2-8.7 18.5-19.4 18.5z" fill="url(#SVGID_28_)"/>
				<g stroke="#CE6117" stroke-width="2" stroke-miterlimit="10" fill="none">
					<line x2="146.4" y1="179.9" x1="148.7" y2="185.6"/>
					<line x2="161.3" y1="192.4" x1="166.6" y2="195.9"/>
					<line x2="166.9" y1="212.6" x1="173.5" y2="212.6"/>
					<line x2="161.3" y1="232.8" x1="166.6" y2="229.3"/>
					<line x2="146.4" y1="245.3" x1="148.7" y2="239.6"/>
					<line x2="128.1" y1="245.3" x1="126.4" y2="239.6"/>
					<line x2="113.3" y1="232.8" x1="108.5" y2="229.3"/>
					<line x2="107.6" y1="212.6" x1="101.6" y2="212.6"/>
					<line x2="113.3" y1="192.4" x1="108.5" y2="195.9"/>
					<line x2="128.1" y1="179.9" x1="126.4" y2="185.6"/>
					<line x2="111.6" y1="221.7" x1="108.2" y2="220.6"/>
					<line x2="121.4" y1="236.4" x1="119.4" y2="233.5"/>
					<line x2="137.3" y1="242.1" x1="137.6" y2="238.4"/>
					<line x2="153.1" y1="236.8" x1="155.4" y2="233.5"/>
					<line x2="162.9" y1="221.7" x1="166.9" y2="220.6"/>
					<line x2="162.9" y1="203.5" x1="166.9" y2="204.6"/>
					<line x2="153.1" y1="188.7" x1="155.7" y2="191.7"/>
					<line x2="137.3" y1="183.1" x1="137.6" y2="186.8"/>
					<line x2="121.4" y1="188.7" x1="119.4" y2="191.7"/>
					<line x2="111.6" y1="203.5" x1="108.2" y2="204.6"/>
				</g>
		<g opacity=".4">
			<path d="m56.4 134.6s0.2 0.2 0.3 0.7c0.1 0.2 0.2 0.5 0.3 0.8s0.2 0.7 0.2 1.1c0.1 0.4 0.1 0.8 0.1 1.3v1.5c0 0.5-0.1 1-0.2 1.6-0.1 0.5-0.2 1.1-0.4 1.6l-0.6 1.5c-0.2 0.5-0.4 1-0.7 1.4s-0.5 0.9-0.8 1.3-0.6 0.7-0.9 1l-0.8 0.8c-0.3 0.2-0.5 0.4-0.7 0.6-0.4 0.3-0.6 0.5-0.6 0.5s0.2-0.2 0.5-0.6c0.2-0.2 0.3-0.4 0.6-0.6 0.2-0.3 0.4-0.6 0.7-0.9s0.5-0.7 0.7-1.1c0.3-0.4 0.5-0.8 0.7-1.3 0.3-0.4 0.4-0.9 0.6-1.4s0.4-1 0.5-1.5 0.3-1 0.4-1.5l0.3-1.5c0.1-0.5 0.1-1 0.1-1.4v-1.3c0-0.8-0.1-1.5-0.1-1.9 0-0.2-0.1-0.4-0.1-0.5s-0.1-0.2-0.1-0.2z" fill="#3AD87A"/>
		</g>
</svg>
