<?xml version="1.0" encoding="utf-8"?>
<!-- Generator: Adobe Illustrator 16.0.0, SVG Export Plug-In . SVG Version: 6.00 Build 0)  -->
<!DOCTYPE svg PUBLIC "-//W3C//DTD SVG 1.1//EN" "http://www.w3.org/Graphics/SVG/1.1/DTD/svg11.dtd">
<svg version="1.1" id="Layer_1" xmlns="http://www.w3.org/2000/svg" xmlns:xlink="http://www.w3.org/1999/xlink" x="0px" y="0px"
	 width="444.871px" height="445.783px" viewBox="0 0 444.871 445.783" enable-background="new 0 0 444.871 445.783"
	 xml:space="preserve">
<g>
	<circle opacity="0.1" cx="219.556" cy="210.884" r="210.884"/>
	<g>
		<g>
			<g>
				<linearGradient id="SVGID_1_" gradientUnits="userSpaceOnUse" x1="221.8164" y1="20.876" x2="221.8164" y2="474.9046">
					<stop  offset="0" style="stop-color:#8FC4F7"/>
					<stop  offset="1" style="stop-color:#B5A3F5"/>
				</linearGradient>
				<path fill="url(#SVGID_1_)" stroke="#10659E" stroke-width="2" stroke-miterlimit="10" d="M390.43,289.086
					c12.777-24.983,20.358-52.835,20.358-82.21c0-107.696-84.606-195-188.972-195c-104.366,0-188.972,87.304-188.972,195
					c0,23.058,4.675,45.176,12.86,65.707c-0.854-0.141-1.698-0.272-2.574-0.132c1.584,6.422,6.045,12.817,11.248,18.926
					c3.863,7.317,8.178,14.378,12.874,21.152c-2.17-0.229-4.559-0.144-6.636-0.55c4.236,12.199,22.137,23.252,31.884,30.812
					c-4.643-0.945-9.305-1.036-13.93-2.879c10.033,9.094,23.206,18.093,36.442,22.386c0.602,0.458,1.204,0.914,1.81,1.364
					c-3.358,0.614-7.099,1.541-11.09,1.189c11.776,4.984,24.46,10.383,36.272,14.965c10.531,5.751,32.238,14.045,32.238,14.045
					s31.77,37.347,40.437,47.681l-3.333-11.666c0,0,5.205,4.333,8.936,6.333c-0.936-6.198-4.123-12.667-4.123-12.667
					s13.656-19.571,32.266-24.252l-0.017-0.001c9.995-1.896,20.024-4.799,29.925-8.63c20.67-5.241,42.994-14.467,59.181-27.184
					c-3.024,0.368-6.368-0.154-9.382,0.313c14.241-13.326,31.622-21.532,43.759-37.96c-1.9,0.681-4.475,0.879-6.468,1.163
					c0.324-0.393,0.642-0.793,0.963-1.188c12.688-7.479,29.938-25.03,36.505-36.475C398.771,289.441,394.401,289.525,390.43,289.086
					z"/>
				<g>
					<path fill="#10659E" d="M173.092,392.346c0,0,0.614,0.229,1.672,0.578c1.052,0.369,2.596,0.838,4.443,1.413
						c0.93,0.267,1.938,0.557,3.003,0.862c1.067,0.303,2.191,0.633,3.368,0.919c1.174,0.299,2.388,0.607,3.62,0.921
						c1.229,0.333,2.5,0.574,3.76,0.867c1.263,0.281,2.525,0.562,3.769,0.84c1.251,0.237,2.482,0.472,3.674,0.699
						c1.193,0.224,2.346,0.439,3.44,0.645c1.091,0.224,2.137,0.346,3.096,0.498c3.845,0.574,6.409,0.956,6.409,0.956
						s-2.58-0.259-6.451-0.646c-0.967-0.105-2.021-0.178-3.123-0.349c-1.104-0.152-2.27-0.313-3.475-0.479
						c-1.206-0.17-2.451-0.345-3.717-0.523c-1.26-0.217-2.54-0.438-3.82-0.658c-1.278-0.233-2.567-0.415-3.816-0.689
						c-1.254-0.255-2.488-0.507-3.683-0.75c-1.198-0.23-2.344-0.508-3.434-0.761c-1.089-0.257-2.119-0.5-3.069-0.724
						c-1.893-0.491-3.471-0.888-4.576-1.217c-1.112-0.309-1.724-0.503-1.724-0.503L173.092,392.346z"/>
				</g>
			</g>
			<linearGradient id="SVGID_2_" gradientUnits="userSpaceOnUse" x1="220.2666" y1="67.4531" x2="220.2666" y2="-36.7822">
				<stop  offset="0" style="stop-color:#93C8F7"/>
				<stop  offset="1" style="stop-color:#C3BCF4"/>
			</linearGradient>
			<path fill="url(#SVGID_2_)" d="M221.817,13.453c-63.024,0-118.901,32.181-153.022,81.454
				c4.724,18.017,16.066,37.134,42.884,38.046c51.242,1.742,71.45-45.499,112.725-45c41.275,0.5,88.275,49.833,117.275,38.167
				c10.622-4.273,22.178-18.406,30.059-35.553C337.389,43.755,282.97,13.453,221.817,13.453z"/>
			<g>
				<g>
					<path fill="#10659E" d="M231.529,291.953c0.007-0.143,0.011-0.294-0.06-0.415c-0.071-0.123-0.219-0.158-0.354-0.151
						c-0.278,0.027-0.544,0.145-0.799,0.269c-0.51,0.257-0.99,0.573-1.461,0.901c-0.94,0.659-1.854,1.359-2.752,2.079
						c-1.795,1.442-3.545,2.943-5.292,4.45l-5.262,4.505c-1.774,1.489-3.527,2.983-5.473,4.344l-0.275-1.328l2.861,0.342l2.881,0.11
						l2.886-0.092l2.878-0.271l2.86-0.442l2.836-0.595l2.808-0.73l2.777-0.845l4.22-1.284l-3.287,2.937l-1.966,1.757l-1.908,1.807
						l-1.836,1.87l-1.744,1.942l-1.642,2.018l-1.502,2.11l-1.333,2.21l-1.13,2.308l-1.205-1.294l1.869-0.499l1.881-0.279
						c0.625-0.052,1.247-0.075,1.871-0.113c0.62-0.021,1.233-0.005,1.851-0.01c1.226,0.021,2.439,0.071,3.637,0.117l1.781,0.038
						c0.3,0.013,0.581-0.015,0.873-0.021l0.868-0.03l1.729-0.061l-0.935,1.368l-2.554,3.741l-2.652,3.654l-5.413,7.192l-2.68,3.606
						l-2.605,3.656c-0.833,1.242-1.64,2.502-2.463,3.755l-2.286,3.873l0.986-2.024c0.335-0.672,0.646-1.359,1.003-2.021
						c0.75-1.302,1.486-2.615,2.25-3.912l2.398-3.822l2.505-3.75l5.129-7.396l2.522-3.708l2.418-3.76l0.795,1.308l-0.94,0.052
						c-0.311,0.012-0.632,0.046-0.936,0.038l-1.839-0.005c-1.215-0.023-2.414-0.052-3.602-0.05c-0.59,0.016-1.185,0.011-1.769,0.042
						c-0.58,0.047-1.164,0.078-1.74,0.137l-1.697,0.266l-1.626,0.444l-2.106,0.575l0.901-1.869l1.194-2.479
						c0.466-0.784,0.924-1.576,1.401-2.354c0.522-0.745,1.037-1.497,1.569-2.234l1.703-2.119l1.821-2.007l1.903-1.916l1.966-1.839
						l2.013-1.776l0.934,1.652l-2.863,0.853l-2.903,0.709l-2.939,0.561l-2.969,0.403l-2.991,0.227
						c-1.001,0.021-2.003,0.019-3.003,0.021l-3-0.206l-2.976-0.447l-1.862-0.28l1.587-1.048c1.873-1.237,3.699-2.668,5.522-4.066
						l5.463-4.252c1.834-1.405,3.675-2.807,5.561-4.148c0.946-0.667,1.896-1.33,2.896-1.922c0.501-0.294,1.012-0.576,1.552-0.798
						c0.271-0.105,0.553-0.206,0.854-0.212c0.146,0.002,0.318,0.059,0.385,0.202C231.564,291.661,231.546,291.812,231.529,291.953z"
						/>
				</g>
				<g>
					<path fill="#10659E" d="M222.529,353.953c0.332-0.175,0.661-0.359,1.053-0.447c0.189-0.042,0.412-0.081,0.638,0.029
						c0.251,0.095,0.349,0.378,0.388,0.592c0.048,0.445-0.066,0.825-0.161,1.208c-0.109,0.376-0.25,0.737-0.399,1.091
						c-0.596,1.417-1.354,2.731-2.125,4.032c-0.771,1.302-1.613,2.553-2.445,3.808c-0.835,1.25-1.723,2.469-2.566,3.69l-1.38-1.229
						l0.993-0.792l0.504-0.388c0.169-0.124,0.335-0.271,0.508-0.368l2.049-1.283l1.983-1.239l1.811-1.322l2.293-1.674l-0.701,2.673
						c-0.467,1.779-0.941,3.556-1.451,5.326c-0.401,1.787-0.833,3.571-1.266,5.359c-0.149,0.903-0.314,1.806-0.486,2.709
						l-0.252,1.357c-0.075,0.454-0.188,0.904-0.25,1.36c-0.215,1.828-0.447,3.661-0.737,5.508c-0.096-1.852-0.133-3.717-0.154-5.588
						c-0.001-0.468,0.051-0.931,0.084-1.396l0.111-1.396c0.072-0.932,0.149-1.865,0.243-2.798c0.288-1.844,0.603-3.688,0.95-5.527
						c0.413-1.817,0.861-3.627,1.316-5.436l1.591,0.999l-2.008,1.517l-2.068,1.256l-2.002,1.212
						c-0.176,0.096-0.306,0.216-0.458,0.324l-0.444,0.331l-0.903,0.646l-5.205,3.723l3.824-4.952l2.748-3.56
						c0.926-1.171,1.816-2.366,2.711-3.554c0.883-1.196,1.755-2.403,2.511-3.661c0.189-0.315,0.355-0.639,0.513-0.962
						c0.141-0.321,0.291-0.665,0.305-0.977c0.031-0.308-0.206-0.452-0.586-0.432C223.256,353.729,222.887,353.844,222.529,353.953z"
						/>
				</g>
			</g>
			<g>
				<path fill="#10659E" d="M203.679,44.953l-7.28-0.997l-7.29-0.886l-7.304-0.725l-7.315-0.507l-7.321-0.23
					c-1.219-0.006-2.438,0.035-3.657,0.049l-3.654,0.063c-1.216,0.053-2.427,0.175-3.64,0.258l-3.635,0.277
					c-1.205,0.143-2.4,0.35-3.6,0.521l-3.593,0.537l-0.076-1.98h0l2.806,0.495l2.669,0.722l2.596,0.761
					c0.431,0.122,0.85,0.212,1.275,0.32l1.271,0.313l2.732,0.673l-2.437,1.187c-1.951,0.95-3.896,1.917-5.853,2.85l-6.025,2.392
					l-6.113,2.082l-6.144,1.915l-6.13,1.884l-6.074,1.988l-5.964,2.228l-5.78,2.604l-0.621-1.878l1.997-0.256l1.988-0.111
					c1.318-0.022,2.624-0.008,3.918,0.035l3.839,0.111l1.89-0.009l1.865-0.103l3.679-0.203l-2.984,1.994
					c-3.049,2.038-6.042,4.108-8.997,6.232l-2.172,1.648l-2.127,1.705l-2.057,1.786l-1.977,1.875l-1.882,1.973
					c-0.581,0.698-1.176,1.386-1.746,2.095c-0.532,0.736-1.088,1.458-1.602,2.208c-0.475,0.775-0.984,1.532-1.433,2.324
					c-0.411,0.812-0.85,1.612-1.222,2.443c-0.332,0.847-0.706,1.681-1.003,2.541c-0.257,0.874-0.544,1.74-0.777,2.621l-0.274,1.34
					l-0.137,0.67c-0.082,0.216-0.031,0.462,0.854,0.821l-1.978-0.301c0.974-0.088,1.115-0.289,1.122-0.521l0.131-0.671l0.262-1.343
					c0.226-0.883,0.505-1.752,0.755-2.63c0.291-0.864,0.658-1.702,0.983-2.554c0.362-0.837,0.806-1.638,1.196-2.463
					c0.429-0.805,0.919-1.578,1.376-2.37c0.497-0.767,1.036-1.506,1.552-2.261c0.553-0.728,1.134-1.435,1.701-2.153l1.808-2.067
					l1.91-1.975l1.986-1.899l2.038-1.844l2.083-1.791c1.393-1.189,2.796-2.364,4.209-3.523c1.419-1.15,2.82-2.32,4.202-3.506
					l0.694,1.791l-1.988,0.11l-1.969,0.01l-3.877-0.112c-1.277-0.042-2.544-0.055-3.8-0.035l-1.866,0.104l-1.832,0.235l-6.692,0.858
					l6.072-2.736l5.926-2.671l6.064-2.265l6.129-2.006l6.144-1.888l6.115-1.906l6.042-2.058l5.909-2.345l5.691-2.771l0.295,1.859
					l-1.364-0.333c-0.451-0.114-0.917-0.217-1.356-0.341l-2.611-0.765l-2.57-0.696l-2.538-0.45l0,0l-6.349-1.258l6.273-0.723
					l3.69-0.425c1.23-0.133,2.457-0.301,3.687-0.404l3.7-0.157c1.232-0.043,2.464-0.124,3.695-0.135l3.693,0.062
					c1.23,0.027,2.461,0.028,3.689,0.076l7.355,0.482l7.323,0.758l7.292,0.976l7.264,1.135L203.679,44.953z"/>
			</g>
			<linearGradient id="SVGID_3_" gradientUnits="userSpaceOnUse" x1="239.4292" y1="-0.5469" x2="239.4292" y2="95.9651">
				<stop  offset="0" style="stop-color:#BFE4F7"/>
				<stop  offset="1" style="stop-color:#BFE4F7;stop-opacity:0"/>
			</linearGradient>
			<path opacity="0.6" fill="url(#SVGID_3_)" d="M217.679,67.953c-8.979-5.95-18.702-16.793-30.092-16.01
				c2.878,1.224,5.933,3.485,8.597,4.908c-8.407-0.141-17.497-2.452-25.062,1.102c0.687,0.537,2.58,0.934,3.147,1.526
				c-13.068,1.841-31.98,3.939-42.649,11.947c1.827,0.439,5.564,2.962,8.017,3.518c-9.283,6.708-31.981,23.1-15.613,33.403
				c15.989,10.063,60.874-17.654,76.537-21.703c30.06-7.77,65.809-8.207,94.237,6.043c9.051,4.537,16.273,14.219,25.83,17.186
				c18.61,5.776,31.561-9.787,39.975-24.179c-1.517,2.682-3.686,4.249-5.462,6.219c-2.257-9.062-7.21-17.01-13.498-23.793
				c-0.283,1.365,0.243,2.907-0.042,4.293c-7.021-6.295-10.498-19.678-20.359-20.407c2.401,20.548-29.986,0.185-43.41-1.113
				c2.323,1.845,4.484,4.844,6.58,6.496c-8.072-2.297-16.57-4.344-25.158-4.358c-0.403,6.713-1.193,4.133-6.176,6.177
				c-1.565,0.642-10.737,3.466-12.126,3.862c-6.322,1.805-12.736,4.425-19.273,5.885L217.679,67.953z"/>
			<g>
				<path fill="#10659E" d="M238.679,51.953l1.124-1.752l1.238-1.684c0.444-0.535,0.877-1.083,1.335-1.609
					c0.474-0.511,0.935-1.037,1.42-1.538c0.979-0.997,2-1.951,3.057-2.867c1.065-0.907,2.164-1.774,3.289-2.608l1.714-1.213
					l1.755-1.157c1.186-0.746,2.39-1.463,3.612-2.149c1.229-0.676,2.472-1.326,3.73-1.946c1.263-0.612,2.539-1.195,3.829-1.753l0,0
					l3.137-1.276l-1.988,2.83l-0.612,0.872l-0.555,0.955c-0.345,0.667-0.681,1.348-0.999,2.054l-0.986,2.149
					c-0.165,0.361-0.369,0.73-0.552,1.094c-0.192,0.366-0.438,0.734-0.656,1.099l-1.134-1.517l4.927-1.566l4.977-1.455l5.042-1.268
					l5.122-0.993l3.018-0.585l-2.162,2.289l-1.961,2.076l-2.012,2.17l-0.884-1.689h0.002c0.973-0.115,1.941-0.26,2.913-0.348
					c0.974-0.061,1.944-0.164,2.916-0.187c0.972-0.014,1.942-0.073,2.912-0.047c0.969,0.028,1.939,0.013,2.905,0.077
					c0.966,0.066,1.934,0.096,2.896,0.191c0.962,0.101,1.925,0.175,2.883,0.297l2.868,0.399l2.85,0.5l2.828,0.606l2.801,0.711
					c0.93,0.252,1.848,0.547,2.771,0.818c0.92,0.281,1.821,0.625,2.731,0.933c0.909,0.315,1.79,0.708,2.685,1.057
					c0.893,0.357,1.749,0.799,2.624,1.193c0.868,0.411,1.697,0.9,2.546,1.346c0.831,0.48,1.63,1.014,2.444,1.517
					c-0.837-0.468-1.656-0.965-2.504-1.407c-0.866-0.408-1.711-0.858-2.592-1.229c-0.888-0.355-1.756-0.756-2.657-1.072
					c-0.904-0.309-1.793-0.66-2.708-0.933c-0.917-0.267-1.822-0.568-2.746-0.807c-0.926-0.229-1.846-0.481-2.775-0.69l-2.8-0.582
					l-2.817-0.478l-2.831-0.371l-2.841-0.27c-0.947-0.079-1.898-0.111-2.846-0.169c-0.948-0.052-1.898-0.04-2.847-0.063
					c-0.948-0.022-1.896,0.035-2.842,0.048c-0.946,0.016-1.888,0.116-2.831,0.169c-0.942,0.063-1.875,0.205-2.811,0.303
					c-0.932,0.126-1.853,0.306-2.778,0.455l-0.001,0l-2.831,0.414l1.947-2.103l1.952-2.108l2.044-2.163l0.855,1.704l-4.997,0.969
					l-4.953,1.245l-4.916,1.438l-4.896,1.556l-2.472,0.786l1.338-2.303c0.18-0.309,0.374-0.591,0.546-0.918
					c0.168-0.336,0.346-0.652,0.506-1.003l0.972-2.12c0.326-0.721,0.682-1.445,1.058-2.168l0.625-1.076l0.737-1.049l1.148,1.553v0
					c-1.289,0.468-2.569,0.962-3.839,1.486c-1.267,0.532-2.52,1.094-3.762,1.683c-1.236,0.6-2.457,1.231-3.664,1.892l-1.787,1.03
					l-1.754,1.089c-1.152,0.752-2.282,1.538-3.384,2.367c-1.094,0.838-2.155,1.718-3.18,2.643c-0.509,0.466-0.995,0.956-1.494,1.434
					c-0.483,0.493-0.943,1.009-1.417,1.513l-1.327,1.595L238.679,51.953z"/>
			</g>
			<path opacity="0.3" fill="#10659E" d="M207.929,431.203c-18.917-29.659,3-29.659,3-29.659c-13.354-1.201-26.361-4.7-35.277-7.568
				c3.567,4.193,21.208,24.938,32.441,38.212C208.043,431.863,208.117,431.498,207.929,431.203z"/>
		</g>
		<g>
			<path opacity="0.3" fill="#10659E" d="M228.085,101.787c-19.111,0-52.925,14.871-59.406,20.93s-9.987,11.244-9.987,11.244
				l-2.513-5.508l-7.833,8.667c0,0-3.667,5.666-5,4.333s-5.667,6.052-5.667,6.052l-6.333-4.954c0,0-3.667,7.234-3.333,12.901
				s-5.667-2.703-5.667-2.703s-4.798,25.506-2,31.536s4.691,28.167,34.346,45.5c-2.555,2.575-8.346,0-8.346,0s16.667,16.334,22,20
				c-5,1-7,0-7,0s16.872,25.333,64.603,25.333s66.397-28.333,67.397-30.333c-4.333-0.667-5.246-1.667-5.246-1.667l5.246-5.927
				c0,0,26.358-1.407,43.346-41.74c3.987-19.667,0-29,0-29l-4.346,4c0,0-2.334-19-16.667-26.333c-1,2-2.333,5-2.333,5
				s-12.999-14.907-17.333-16.12c1,3.787,1,3.787,1,3.787S270.158,101.787,228.085,101.787z"/>
			<linearGradient id="SVGID_4_" gradientUnits="userSpaceOnUse" x1="229.1245" y1="21.4531" x2="229.1245" y2="475.4811">
				<stop  offset="0" style="stop-color:#8FC4F7"/>
				<stop  offset="1" style="stop-color:#B5A3F5"/>
			</linearGradient>
			<path fill="url(#SVGID_4_)" stroke="#10659E" stroke-width="2" stroke-miterlimit="10" d="M156.775,141.453
				c0,0,26.956-35.25,71.311-35.25s66.355,31.584,72.355,42.917c2.26,3.992,6.667,7.667,6.667,7.667s-2.666-11.803-4.333-14.235
				c8.333,5.901,13,16.235,14,22.568c1.434-4.324,2.332-13.83,1.666-14.249s13.001,11.915,9.334,33.582c3.161-0.391,4.333-4,4.333-4
				s0.333,11-4.667,19.5c3,1.25,7-2,7-2s-26.25,33-43.5,35c-5.25,8.75-9,12.25-13,16.25s2.5,1.25,2.5,1.25
				s-18.211,18.25-52.355,18.25s-45.645-9.25-51.645-13.5c0,0,9.25,1,10.25,1s-15.25-6.75-22-15c6.5,2,8.083,2,8.083,2
				s-13.083-14.801-15.333-21.051c-7.75-0.5-24.25-5.949-32.5-40.449c-2.553-11.787,0-21,0-21l5,11c0,0-1.25-15.413,2.75-20.832
				c1.25,1.332,2,5.082,2,5.082s2.75-3.655,7.5-3.203c-2.25-4.297,1.25-7.297,1.25-7.297l5,1c2.5-6.5,4-6.5,5.75-8.5
				C154.192,141.453,156.775,141.453,156.775,141.453z"/>
			<g opacity="0.7">
				<ellipse fill="#8432CC" cx="218.526" cy="254.459" rx="8.854" ry="8.923"/>
				
					<ellipse transform="matrix(0.6931 0.7208 -0.7208 0.6931 223.28 -58.9302)" fill="#8432CC" cx="180.85" cy="232.763" rx="8.628" ry="7.527"/>
				
					<ellipse transform="matrix(0.6931 0.7208 -0.7208 0.6931 203.9189 -58.0707)" fill="#8432CC" cx="170.159" cy="210.453" rx="3.533" ry="3.083"/>
				
					<ellipse transform="matrix(0.6931 0.7209 -0.7209 0.6931 211.6096 -51.0382)" fill="#8432CC" cx="165.741" cy="222.984" rx="1.767" ry="1.541"/>
				
					<ellipse transform="matrix(0.6931 0.7209 -0.7209 0.6931 221.2663 -70.3947)" fill="#8432CC" cx="193.301" cy="224.646" rx="1.767" ry="1.541"/>
				
					<ellipse transform="matrix(0.6931 0.7208 -0.7208 0.6931 239.8311 -64.4227)" fill="#8432CC" cx="195.575" cy="249.453" rx="3.797" ry="4.045"/>
				
					<ellipse transform="matrix(0.6931 0.7208 -0.7208 0.6931 260.7311 -97.8793)" fill="#8432CC" cx="245.325" cy="257.29" rx="3.798" ry="4.045"/>
				
					<ellipse transform="matrix(0.6932 0.7208 -0.7208 0.6932 230.8679 -72.6612)" fill="#8432CC" cx="200.775" cy="234.826" rx="3.63" ry="3.868"/>
			</g>
			<g>
				<path opacity="0.3" fill="#10659E" d="M264.083,121.497c-7.146-1.46-12.24-1.318-15.991-0.279
					c2.298-2.887,4.859-6.36,6.795-9.686c-7.789-2.668-16.692-4.329-26.801-4.329c-9.541,0-18.282,1.673-26.119,4.283
					c1.558,3.144,4.127,6.624,6.589,9.614c-3.708-0.933-8.687-1.008-15.56,0.396c-22.238,4.543-24.438,21.957-22.103,23.707
					c10.251,7.681,54.188-5.818,50.308-11.854c-1.116-1.736-2.126-4.018-3.689-6.181c2.506-1.259,6.656-2.996,10.573-3.049
					c3.999-0.054,8.849,1.542,11.765,2.668c-1.727,2.273-2.79,4.723-3.972,6.561c-3.88,6.036,40.057,19.535,50.308,11.854
					C288.521,143.453,286.322,126.04,264.083,121.497z"/>
				<g>
					<path fill="#10659E" d="M207.629,128.409c0.002,0.005-0.063-0.112-0.148-0.233c-0.075-0.127-0.251-0.348-0.458-0.62
						c-0.233-0.261-0.502-0.591-0.868-0.927c-0.34-0.36-0.793-0.698-1.27-1.086c-0.511-0.344-1.051-0.745-1.692-1.063
						c-0.611-0.375-1.325-0.63-2.045-0.945c-0.366-0.141-0.757-0.238-1.143-0.362c-0.389-0.117-0.78-0.255-1.193-0.315
						c-0.818-0.153-1.648-0.353-2.504-0.39l-1.276-0.113c-0.426-0.021-0.852,0.002-1.274,0.001
						c-0.424,0.005-0.844,0.009-1.259,0.014c-0.416,0.007-0.823,0.077-1.226,0.111c-0.802,0.103-1.593,0.126-2.321,0.285
						c-0.732,0.143-1.425,0.277-2.064,0.402c-0.646,0.104-1.216,0.284-1.728,0.425c-0.511,0.143-0.957,0.268-1.324,0.371
						c-0.735,0.206-1.156,0.324-1.156,0.324s0.411-0.147,1.129-0.405c0.36-0.129,0.797-0.286,1.298-0.466
						c0.502-0.179,1.064-0.4,1.703-0.551c0.635-0.172,1.323-0.358,2.051-0.555c0.726-0.213,1.521-0.295,2.332-0.458
						c0.408-0.064,0.819-0.165,1.243-0.203c0.425-0.035,0.855-0.071,1.29-0.107c0.435-0.03,0.873-0.085,1.314-0.095l1.333,0.021
						c0.894-0.023,1.78,0.12,2.659,0.222c0.442,0.035,0.868,0.149,1.293,0.244c0.423,0.103,0.849,0.18,1.255,0.302
						c0.802,0.281,1.599,0.508,2.301,0.869c0.729,0.302,1.363,0.7,1.962,1.047c0.568,0.395,1.104,0.745,1.527,1.127
						c0.444,0.355,0.792,0.718,1.087,1.008c0.281,0.314,0.496,0.548,0.65,0.761c0.136,0.184,0.208,0.282,0.208,0.282
						L207.629,128.409z"/>
				</g>
				
					<radialGradient id="SVGID_5_" cx="197.7578" cy="134.1636" r="12.8668" gradientTransform="matrix(0.9783 -0.2072 0.2072 0.9783 -27.1557 42.5094)" gradientUnits="userSpaceOnUse">
					<stop  offset="0.6178" style="stop-color:#FCDFA9"/>
					<stop  offset="1" style="stop-color:#F9B233"/>
				</radialGradient>
				<path fill="url(#SVGID_5_)" stroke="#E07F00" stroke-miterlimit="10" d="M209.761,129.472
					c0.992,4.683-5.212,9.962-13.857,11.793c-8.645,1.831-16.456-0.48-17.448-5.164c-0.992-4.683,5.212-9.962,13.857-11.793
					C200.957,122.478,208.769,124.789,209.761,129.472z"/>
				<circle fill="#1D1D1B" cx="196.442" cy="128.453" r="4.333"/>
				<linearGradient id="SVGID_6_" gradientUnits="userSpaceOnUse" x1="172.7754" y1="142.5518" x2="221.5898" y2="142.5518">
					<stop  offset="0" style="stop-color:#8470CC"/>
					<stop  offset="1" style="stop-color:#8432CC"/>
				</linearGradient>
				<path fill="url(#SVGID_6_)" stroke="#440389" stroke-width="2" stroke-miterlimit="10" d="M220.108,142.787
					c0,0,3.333-6.667,0-10s-40.333,13.667-47.333,13.333c4,4.333,6,7.666,13.333,6.333S212.775,139.12,220.108,142.787z"/>
				<g>
					<path fill="#AB6AEF" d="M219.179,141.453c-0.014,0-0.102-0.042-0.458-0.022c-0.329-0.003-0.759,0.004-1.329,0.033
						c-0.565,0.031-1.249,0.084-2.028,0.175c-0.779,0.088-1.654,0.22-2.604,0.37c-0.945,0.191-1.979,0.347-3.047,0.589
						c-1.051,0.247-2.171,0.543-3.308,0.898c-1.138,0.36-2.301,0.782-3.482,1.219c-1.18,0.442-2.363,0.943-3.551,1.44
						c-2.383,1.022-4.766,2.045-7,3.004c-1.124,0.484-2.239,0.901-3.301,1.29c-1.062,0.393-2.094,0.705-3.063,0.95
						c-0.966,0.251-1.883,0.396-2.704,0.45c-0.821,0.06-1.55-0.014-2.125-0.155c-0.579-0.138-0.99-0.372-1.249-0.539
						c-0.26-0.17-0.378-0.285-0.378-0.285s0.142,0.085,0.426,0.19c0.281,0.109,0.712,0.214,1.259,0.249
						c1.103,0.073,2.655-0.291,4.432-0.985c0.892-0.342,1.838-0.776,2.843-1.234c1-0.482,2.053-0.991,3.143-1.518
						c2.178-1.075,4.528-2.21,6.939-3.25c1.206-0.519,2.437-0.988,3.66-1.43c1.221-0.446,2.452-0.817,3.658-1.126
						c1.208-0.312,2.384-0.562,3.533-0.711c1.131-0.158,2.203-0.216,3.192-0.265c0.993-0.024,1.9-0.037,2.707,0.026
						c0.804,0.037,1.503,0.121,2.074,0.217c0.566,0.083,1.024,0.202,1.299,0.278C218.963,141.425,219.194,141.45,219.179,141.453z"
						/>
				</g>
				<g>
					<path fill="#10659E" d="M247.765,127.331c0,0,0.073-0.098,0.209-0.282c0.154-0.212,0.369-0.446,0.649-0.761
						c0.295-0.29,0.644-0.653,1.088-1.008c0.423-0.382,0.959-0.732,1.527-1.127c0.599-0.347,1.233-0.745,1.962-1.047
						c0.701-0.36,1.499-0.587,2.301-0.868c0.406-0.123,0.832-0.2,1.255-0.303c0.425-0.094,0.851-0.209,1.293-0.244
						c0.879-0.102,1.765-0.245,2.658-0.222l1.333-0.021c0.442,0.009,0.88,0.064,1.314,0.095c0.435,0.036,0.864,0.072,1.29,0.107
						c0.424,0.038,0.835,0.138,1.242,0.203c0.811,0.163,1.606,0.245,2.332,0.458c0.728,0.197,1.416,0.383,2.051,0.555
						c0.64,0.151,1.201,0.373,1.703,0.551c0.501,0.18,0.938,0.337,1.298,0.466c0.719,0.258,1.129,0.405,1.129,0.405
						s-0.42-0.118-1.156-0.324c-0.367-0.103-0.812-0.228-1.324-0.371c-0.511-0.142-1.081-0.321-1.728-0.425
						c-0.639-0.125-1.331-0.26-2.063-0.402c-0.728-0.159-1.519-0.183-2.32-0.285c-0.403-0.035-0.811-0.104-1.227-0.111
						c-0.415-0.004-0.835-0.009-1.259-0.014c-0.423,0.001-0.849-0.022-1.274-0.001l-1.276,0.113
						c-0.855,0.037-1.686,0.237-2.504,0.39c-0.414,0.06-0.804,0.199-1.193,0.315c-0.387,0.125-0.776,0.222-1.144,0.362
						c-0.72,0.315-1.435,0.571-2.045,0.945c-0.641,0.318-1.181,0.72-1.691,1.063c-0.477,0.389-0.93,0.727-1.27,1.086
						c-0.366,0.335-0.635,0.666-0.868,0.927c-0.208,0.271-0.383,0.493-0.459,0.62c-0.085,0.121-0.15,0.238-0.147,0.233
						L247.765,127.331z"/>
				</g>
				
					<radialGradient id="SVGID_7_" cx="297.4839" cy="155.2856" r="12.8674" gradientTransform="matrix(-0.9783 -0.2072 -0.2072 0.9783 586.1743 42.5094)" gradientUnits="userSpaceOnUse">
					<stop  offset="0.6178" style="stop-color:#FCDFA9"/>
					<stop  offset="1" style="stop-color:#F9B233"/>
				</radialGradient>
				<path fill="url(#SVGID_7_)" stroke="#E07F00" stroke-miterlimit="10" d="M247.318,129.472
					c-0.991,4.683,5.213,9.962,13.857,11.793c8.645,1.831,16.457-0.48,17.449-5.164c0.991-4.683-5.213-9.962-13.857-11.793
					C256.123,122.478,248.31,124.789,247.318,129.472z"/>
				<circle fill="#1D1D1B" cx="260.638" cy="128.453" r="4.333"/>
				
					<linearGradient id="SVGID_8_" gradientUnits="userSpaceOnUse" x1="274.7144" y1="142.5518" x2="323.5288" y2="142.5518" gradientTransform="matrix(-1 0 0 1 559.0186 0)">
					<stop  offset="0" style="stop-color:#8470CC"/>
					<stop  offset="1" style="stop-color:#8432CC"/>
				</linearGradient>
				<path fill="url(#SVGID_8_)" stroke="#440389" stroke-width="2" stroke-miterlimit="10" d="M236.971,142.787
					c0,0-3.333-6.667,0-10s40.333,13.667,47.333,13.333c-4,4.333-6,7.666-13.333,6.333S244.304,139.12,236.971,142.787z"/>
				<g>
					<path fill="#AB6AEF" d="M237.9,141.453c0,0,0.193-0.048,0.459-0.141c0.282-0.076,0.735-0.195,1.303-0.278
						c0.57-0.097,1.271-0.18,2.074-0.217c0.807-0.062,1.714-0.05,2.706-0.026c0.99,0.049,2.061,0.108,3.192,0.266
						c1.149,0.149,2.324,0.398,3.532,0.71c1.207,0.31,2.438,0.68,3.658,1.126c1.223,0.442,2.454,0.91,3.66,1.43
						c2.411,1.04,4.761,2.175,6.939,3.25c1.09,0.526,2.144,1.036,3.143,1.518c1.005,0.458,1.951,0.892,2.843,1.234
						c1.777,0.694,3.329,1.058,4.433,0.985c0.548-0.034,0.978-0.139,1.26-0.249c0.284-0.105,0.426-0.19,0.426-0.19
						s-0.118,0.114-0.378,0.285c-0.259,0.167-0.67,0.4-1.249,0.539c-0.576,0.141-1.305,0.214-2.126,0.155
						c-0.82-0.053-1.737-0.198-2.704-0.45c-0.969-0.245-2.001-0.557-3.062-0.95c-1.062-0.389-2.177-0.806-3.302-1.29
						c-2.234-0.958-4.617-1.981-7-3.004c-1.188-0.498-2.37-0.999-3.551-1.44c-1.182-0.437-2.344-0.858-3.482-1.219
						c-1.137-0.354-2.257-0.652-3.308-0.898c-1.067-0.242-2.102-0.398-3.047-0.589c-0.95-0.15-1.824-0.283-2.604-0.37
						c-0.778-0.091-1.463-0.144-2.027-0.175c-0.569-0.029-1.004-0.037-1.326-0.033C238.024,141.431,237.9,141.453,237.9,141.453z"/>
				</g>
			</g>
			<g>
				<path opacity="0.3" fill="#10659E" d="M210.143,199.543c-3.446-11.306-5.991-22.29-4.666-34.155
					c2.373,7.477,6.435,12.724,11.606,17.894c-2.943-10.768-6.144-26.123,3.06-33.972c-0.468,4.329,2.126,10.56,2.317,14.938
					c1.532-6.929,4.508-13.476,8.295-19.187c-0.227,6.257,3.161,16.576,6.758,21.325c1.272-1.515,3.849-0.583,4.929-2.167
					L210.143,199.543z"/>
				<g>
					<linearGradient id="SVGID_9_" gradientUnits="userSpaceOnUse" x1="223.4307" y1="10.9531" x2="223.4306" y2="429.9532">
						<stop  offset="0" style="stop-color:#8FC4F7"/>
						<stop  offset="1" style="stop-color:#B5A3F5"/>
					</linearGradient>
					<path fill="url(#SVGID_9_)" d="M209.442,205.453c-3.446-11.306-5.991-22.39-4.666-34.255
						c2.373,7.477,6.435,12.724,11.606,17.894c-2.943-10.768-6.144-26.123,3.06-33.972c-0.468,4.329,2.126,10.56,2.317,14.938
						c1.532-6.929,4.508-13.476,8.299-19.187c-0.227,6.257,3.795,13.214,7.392,17.962c1.272-1.515,3.912-3.13,4.992-4.714"/>
					<path fill="#10659E" d="M209.442,205.453l-1.373-4.133l-1.239-4.183l-1.09-4.229l-0.907-4.28
						c-0.229-1.442-0.458-2.886-0.662-4.334l-0.369-4.378l-0.07-4.402l0.251-4.403l0.212-3.715l1.341,3.562l0.929,2.468
						c0.161,0.409,0.363,0.799,0.542,1.199l0.553,1.193c0.182,0.399,0.418,0.771,0.625,1.157l0.638,1.148
						c0.212,0.383,0.472,0.738,0.705,1.109l0.709,1.106c0.503,0.718,1.037,1.417,1.552,2.126l1.68,2.037l1.785,1.958l1.866,1.895
						l-1.749,1.016c-0.405-1.452-0.802-2.909-1.159-4.38c-0.354-1.472-0.671-2.956-0.962-4.447l-0.385-2.251l-0.304-2.27
						c-0.086-0.76-0.14-1.526-0.21-2.289c-0.061-0.764-0.063-1.537-0.098-2.305c-0.029-0.769,0.027-1.545,0.037-2.318
						c0.01-0.773,0.134-1.549,0.203-2.322c0.068-0.775,0.27-1.542,0.4-2.312c0.141-0.771,0.419-1.519,0.625-2.278
						c0.232-0.754,0.591-1.474,0.884-2.21c0.342-0.717,0.777-1.396,1.165-2.092c0.459-0.655,0.967-1.279,1.452-1.916l1.715-1.684
						l1.848-1.813l-0.065,2.755l-0.02,0.856c0.002,0.288-0.041,0.563-0.004,0.862l0.086,0.89c0.037,0.298,0.036,0.59,0.099,0.894
						c0.105,0.604,0.194,1.206,0.311,1.812l0.387,1.829c0.281,1.226,0.557,2.464,0.822,3.723c0.125,0.633,0.226,1.281,0.339,1.92
						c0.056,0.32,0.07,0.663,0.106,0.993l0.091,0.999l-1.932-0.169l1.474-5.142l1.985-4.954c0.795-1.589,1.614-3.164,2.42-4.743
						l2.816-4.508l1.163-1.862l0.066,2.257l0.034,1.181c0.017,0.394,0.008,0.79,0.044,1.184l0.201,1.178
						c0.072,0.392,0.119,0.79,0.212,1.179l0.672,2.319l0.863,2.272l1.035,2.211c0.38,0.721,0.78,1.434,1.171,2.152
						c0.414,0.704,0.856,1.394,1.283,2.093c0.451,0.684,0.923,1.354,1.384,2.033l-0.351-0.009c0.405-0.433,0.835-0.827,1.28-1.195
						l1.358-1.063c0.453-0.351,0.9-0.706,1.334-1.079c0.218-0.186,0.417-0.39,0.627-0.585c0.2-0.203,0.374-0.431,0.564-0.646
						c-0.174,0.227-0.333,0.469-0.521,0.687c-0.196,0.209-0.383,0.431-0.588,0.632c-0.41,0.405-0.834,0.794-1.264,1.177
						l-1.276,1.148c-0.419,0.386-0.813,0.79-1.172,1.214l-0.182,0.215l-0.169-0.224c-0.5-0.659-1.011-1.311-1.502-1.978
						c-0.469-0.683-0.952-1.357-1.41-2.049c-0.434-0.708-0.878-1.41-1.304-2.125l-1.177-2.207l-1.014-2.299
						c-0.285-0.791-0.527-1.6-0.792-2.4c-0.11-0.408-0.177-0.829-0.267-1.244l-0.252-1.25c-0.054-0.423-0.061-0.854-0.092-1.282
						l-0.075-1.287l1.229,0.395l-2.609,4.49c-0.735,1.566-1.483,3.124-2.207,4.689l-1.77,4.859l-1.316,4.988l-1.345,5.098
						l-0.587-5.266l-0.099-0.887c-0.038-0.297-0.05-0.588-0.109-0.889c-0.118-0.603-0.221-1.202-0.35-1.807
						c-0.276-1.21-0.569-2.434-0.874-3.667l-0.428-1.874c-0.132-0.632-0.24-1.279-0.361-1.918c-0.07-0.315-0.082-0.659-0.122-0.988
						l-0.099-0.997c-0.041-0.33-0.001-0.688-0.004-1.03l0.027-1.039l1.782,0.941l-1.484,1.473c-0.414,0.561-0.854,1.102-1.252,1.672
						c-0.331,0.617-0.711,1.205-1.01,1.839c-0.251,0.658-0.569,1.287-0.773,1.966c-0.177,0.688-0.43,1.351-0.552,2.057
						c-0.113,0.707-0.297,1.397-0.355,2.117c-0.054,0.719-0.175,1.428-0.189,2.154c-0.012,0.726-0.071,1.447-0.046,2.176
						c0.029,0.729,0.026,1.457,0.081,2.187c0.064,0.729,0.11,1.459,0.189,2.189l0.281,2.187l0.361,2.183
						c0.276,1.452,0.577,2.9,0.916,4.345c0.346,1.443,0.699,2.887,1.08,4.328l1.043,3.945l-2.792-2.929l-1.883-1.975l-1.812-2.053
						l-1.713-2.148c-0.529-0.751-1.074-1.49-1.588-2.251l-0.726-1.174c-0.233-0.397-0.491-0.778-0.702-1.187l-0.633-1.227
						c-0.204-0.412-0.437-0.81-0.615-1.233l-0.541-1.269c-0.175-0.425-0.372-0.841-0.527-1.272l-0.887-2.604l1.553-0.152
						l-0.381,4.278l-0.068,4.303l0.226,4.306l0.466,4.297l0.677,4.28l0.865,4.254l1.005,4.229L209.442,205.453z"/>
				</g>
				<g>
					<path fill="#C7EEFF" d="M209.543,205.396c-1.48-4.543-2.51-9.236-3.278-13.962c-0.387-2.364-0.703-4.741-0.942-7.13
						c-0.118-1.194-0.22-2.392-0.291-3.596c-0.031-0.603-0.064-1.205-0.071-1.816c-0.012-0.614-0.015-1.211,0.071-1.916v0
						l0.312-1.963l0.995,1.735l1.251,2.182l1.335,2.134l1.421,2.083l1.506,2.028c1.038,1.328,2.111,2.632,3.22,3.91
						c1.114,1.272,2.253,2.524,3.406,3.766l0,0c-0.97-2.693-1.866-5.415-2.604-8.192c-0.755-2.772-1.356-5.604-1.685-8.495
						c-0.158-1.445-0.271-2.905-0.264-4.374c-0.002-1.468,0.096-2.945,0.327-4.412c0.449-2.928,1.459-5.834,3.128-8.325v0
						l1.349-1.782l0.325,1.945c0.12,0.714,0.287,1.416,0.391,2.11c0.102,0.697,0.254,1.381,0.336,2.075
						c0.226,1.375,0.408,2.752,0.614,4.121c0.084,0.688,0.172,1.374,0.278,2.057l0.249,2.059l0.225,2.06
						c0.067,0.687,0.094,1.378,0.144,2.066h-0.001c0.396-1.834,0.847-3.656,1.338-5.467c0.477-1.816,1.031-3.61,1.612-5.398
						c0.597-1.782,1.241-3.553,1.983-5.291c0.719-1.75,1.572-3.446,2.541-5.107l0.74-1.271l0.331,1.463
						c0.303,1.338,0.701,2.654,1.21,3.931c0.507,1.277,1.125,2.513,1.826,3.708c1.402,2.393,3.115,4.619,4.744,6.9l-0.241-0.006
						c0.809-0.896,1.713-1.667,2.591-2.465c0.439-0.398,0.875-0.8,1.298-1.215c0.213-0.206,0.409-0.428,0.615-0.642
						c0.2-0.219,0.375-0.458,0.564-0.687c-0.179,0.236-0.345,0.484-0.535,0.712c-0.196,0.222-0.385,0.454-0.589,0.67
						c-0.406,0.435-0.825,0.856-1.248,1.274c-0.842,0.834-1.715,1.648-2.46,2.551l-0.12,0.146l-0.121-0.151
						c-1.743-2.189-3.573-4.321-5.136-6.69c-0.78-1.183-1.486-2.424-2.082-3.722c-0.599-1.297-1.087-2.647-1.475-4.023l1.071,0.192
						c-0.563,0.726-1.098,1.482-1.583,2.272c-0.488,0.789-0.952,1.596-1.391,2.419c-0.858,1.656-1.617,3.37-2.287,5.119
						c-1.352,3.496-2.372,7.117-3.197,10.776h-0.001c-0.063-0.688-0.105-1.376-0.187-2.062c-0.096-0.683-0.163-1.37-0.283-2.05
						c-0.245-1.358-0.493-2.714-0.832-4.053c-0.327-1.339-0.703-2.667-1.132-3.973c-0.211-0.656-0.463-1.293-0.708-1.932
						c-0.239-0.643-0.556-1.236-0.843-1.841l1.673,0.163v0c-0.31,0.607-0.613,1.215-0.885,1.836
						c-0.264,0.626-0.497,1.263-0.718,1.905c-0.425,1.29-0.749,2.617-0.976,3.968c-0.227,1.351-0.364,2.725-0.431,4.109
						c-0.057,1.385-0.064,2.782,0.01,4.181c0.137,2.8,0.497,5.609,0.943,8.415c0.222,1.404,0.502,2.8,0.754,4.205l0.806,4.212l0,0
						c-1.236-1.158-2.461-2.329-3.666-3.524c-1.199-1.201-2.367-2.434-3.506-3.699l-1.663-1.941l-1.587-2.009l-1.508-2.073
						l-1.429-2.132l1.307-0.228l0,0c-0.08,0.479-0.121,1.078-0.134,1.657c-0.022,0.583-0.019,1.174-0.018,1.765
						c0.011,1.183,0.052,2.37,0.111,3.556c0.12,2.374,0.316,4.748,0.584,7.114C207.499,196.071,208.29,200.783,209.543,205.396z"/>
				</g>
			</g>
			<g>
				<path opacity="0.3" fill="#10659E" d="M149.403,219.077c2.99-3.258,5.289-5.891,5.289-5.891l-5.037-39.772l-13.724-2.485
					c-1.108-3.002-2.856-7.441-4.836-11.385c-0.647,5.769-0.165,11.981-0.157,12.078l0.463,5.709l-6.076-13.367
					c-0.535,3.586-1.025,10.053,0.594,17.527C128.265,191.299,134.882,212.348,149.403,219.077z"/>
				<g>
					<linearGradient id="SVGID_10_" gradientUnits="userSpaceOnUse" x1="132.8169" y1="8.9238" x2="132.8169" y2="492.6183">
						<stop  offset="0" style="stop-color:#8FC4F7"/>
						<stop  offset="1" style="stop-color:#B5A3F5"/>
					</linearGradient>
					<path fill="url(#SVGID_10_)" d="M158.692,212.703c-14,3-25.469-8.564-29.75-8.61s-9.75,5.61-9.75,5.61v-5.61l-6,3.11l8.25-9.5
						c0,0-8,3.25-14.5,5c4.75-6.25,44.288-30.25,44.288-30.25"/>
					<path fill="#10659E" d="M158.692,212.703l-1.311,0.334l-1.34,0.254c-0.898,0.14-1.809,0.22-2.723,0.239
						c-0.914,0.017-1.832-0.005-2.745-0.09c-0.915-0.08-1.823-0.229-2.723-0.41c-1.8-0.365-3.576-0.872-5.278-1.554
						c-1.707-0.666-3.372-1.433-4.992-2.258c-1.63-0.809-3.191-1.731-4.757-2.569c-0.78-0.42-1.562-0.825-2.332-1.143
						c-0.379-0.146-0.766-0.293-1.105-0.354c-0.166-0.048-0.352-0.042-0.434-0.06c-0.233,0.004-0.456,0.015-0.595,0.038
						c-0.72,0.087-1.511,0.354-2.256,0.701c-0.752,0.352-1.487,0.784-2.198,1.266c-0.712,0.479-1.401,1.009-2.07,1.565
						c-0.662,0.554-1.326,1.155-1.911,1.746l-1.743,1.765l-0.003-2.471l-0.008-5.61l1.496,0.91l-5.995,3.118l-4.855,2.524
						l3.598-4.12l8.275-9.478l0,0l1.131,1.583c-2.367,1.042-4.763,1.956-7.176,2.865c-1.212,0.438-2.428,0.866-3.66,1.262
						c-1.22,0.421-2.477,0.763-3.722,1.129l-3.647,1.074l2.353-2.999c0.826-1.053,1.687-1.77,2.56-2.549
						c0.88-0.743,1.771-1.452,2.673-2.137c1.8-1.377,3.638-2.681,5.495-3.951c3.705-2.551,7.489-4.965,11.29-7.346
						c3.809-2.369,7.649-4.682,11.521-6.94c1.938-1.126,3.878-2.248,5.837-3.338c1.956-1.095,3.908-2.195,5.888-3.248
						l-22.208,15.113c-3.694,2.519-7.36,5.076-10.986,7.667c-1.807,1.304-3.597,2.625-5.348,3.975
						c-0.875,0.675-1.73,1.368-2.556,2.076c-0.799,0.702-1.657,1.444-2.214,2.161l-1.294-1.925c1.209-0.351,2.422-0.676,3.63-1.062
						c1.212-0.359,2.411-0.775,3.62-1.161c2.41-0.792,4.809-1.664,7.192-2.52l3.873-1.393l-2.742,2.975v0l-8.224,9.521l-1.256-1.596
						l6.004-3.101l1.499-0.774l-0.002,1.683l-0.008,5.61l-1.747-0.707c0.682-0.687,1.358-1.289,2.076-1.89
						c0.716-0.593,1.458-1.159,2.239-1.682c0.781-0.524,1.601-1.008,2.481-1.416c0.887-0.403,1.815-0.739,2.886-0.868
						c0.307-0.037,0.534-0.042,0.75-0.046c0.366,0.018,0.632,0.043,0.902,0.112c0.545,0.114,0.999,0.301,1.456,0.484
						c0.888,0.384,1.698,0.824,2.496,1.267l4.681,2.676c1.548,0.88,3.123,1.693,4.738,2.411c1.618,0.707,3.26,1.36,4.961,1.833
						c0.848,0.243,1.708,0.444,2.578,0.6c0.867,0.175,1.746,0.287,2.631,0.365c0.885,0.072,1.774,0.082,2.67,0.079l1.34-0.067
						L158.692,212.703z"/>
				</g>
				<g>
					<path fill="#10659E" d="M157.442,206.703c0,0-0.869-1.482-1.795-3.851c-0.243-0.588-0.498-1.229-0.723-1.92
						c-0.236-0.688-0.496-1.412-0.726-2.171c-0.226-0.76-0.46-1.547-0.662-2.356c-0.197-0.81-0.432-1.624-0.604-2.454
						c-0.297-1.67-0.681-3.321-0.827-4.911c-0.099-0.79-0.158-1.559-0.22-2.285c-0.06-0.727-0.133-1.41-0.112-2.053
						c-0.007-2.56,0.17-4.25,0.17-4.25c-0.001,0,0.496,1.655,0.97,4.113c0.104,0.616,0.307,1.274,0.45,1.976
						c0.16,0.701,0.334,1.437,0.478,2.204c0.13,0.769,0.354,1.548,0.519,2.352c0.173,0.801,0.349,1.615,0.525,2.429
						c0.146,0.82,0.355,1.629,0.527,2.431c0.191,0.798,0.313,1.601,0.486,2.364c0.349,1.526,0.597,2.975,0.845,4.209
						c0.237,1.239,0.406,2.281,0.528,3.012C157.38,206.281,157.442,206.703,157.442,206.703z"/>
				</g>
				<g>
					<path fill="#10659E" d="M155.192,174.453c-0.217-1.728-0.336-3.453-0.438-5.177c-0.058-1.732-0.049-3.471-0.045-5.213
						c0.158-1.736,0.269-3.484,0.495-5.219c0.331-1.721,0.701-3.438,1.092-5.146l1.008-4.404l0.897,4.562
						c0.043,0.218,0.063,0.429,0.114,0.654c0.068,0.232,0.126,0.46,0.196,0.699c0.152,0.478,0.33,0.964,0.524,1.456l0.606,1.507
						c0.196,0.518,0.375,1.064,0.523,1.645l-1.417-0.138c0.392-0.617,0.771-1.24,1.177-1.845c0.404-0.606,0.793-1.219,1.206-1.814
						c0.92-1.131,1.838-2.253,2.811-3.316c-0.631,1.314-1.317,2.57-2.001,3.816c-0.604,1.295-1.195,2.584-1.83,3.843l-0.786,1.56
						l-0.631-1.698c-0.334-0.899-0.847-1.854-1.306-2.845c-0.235-0.5-0.462-1.013-0.672-1.553c-0.105-0.271-0.182-0.567-0.271-0.851
						c-0.075-0.298-0.123-0.625-0.179-0.938l1.906,0.157c-0.322,1.661-0.665,3.314-1.046,4.962c-0.13,0.836-0.213,1.681-0.351,2.518
						l-0.377,2.521c-0.168,1.698-0.345,3.397-0.562,5.105C155.665,171.019,155.477,172.737,155.192,174.453z"/>
				</g>
				<g>
					<path fill="#C7EEFF" d="M111.929,199.543c0,0,2.234-1.682,5.817-4.077c0.892-0.604,1.843-1.337,2.887-2.062
						c1.037-0.736,2.127-1.523,3.291-2.315c1.161-0.792,2.345-1.635,3.588-2.453c1.24-0.822,2.5-1.656,3.76-2.491
						c1.306-0.805,2.45-1.651,3.665-2.476c1.188-0.823,2.357-1.632,3.489-2.415c2.269-1.57,4.387-3.036,6.202-4.292
						c1.819-1.257,3.357-2.28,4.44-2.99c0.547-0.348,0.978-0.621,1.271-0.807c0.303-0.172,0.464-0.264,0.464-0.264
						s-0.139,0.122-0.399,0.35c-0.251,0.239-0.621,0.588-1.09,1.034c-0.945,0.886-2.305,2.138-3.985,3.585
						c-0.842,0.722-1.749,1.511-2.738,2.308c-0.99,0.798-2.014,1.661-3.125,2.496c-1.11,0.831-2.229,1.751-3.419,2.574
						c-1.174,0.823-2.388,1.751-3.587,2.503c-1.215,0.767-2.43,1.534-3.626,2.289c-1.193,0.759-2.406,1.469-3.566,2.178
						c-1.157,0.709-2.31,1.374-3.399,2.014c-1.09,0.64-2.125,1.248-3.125,1.79C114.748,198.188,111.929,199.543,111.929,199.543z"/>
				</g>
			</g>
			<g>
				<path opacity="0.3" fill="#10659E" d="M330.568,201.029c-1.184,0.293-2.469,0.282-3.511-0.153l-1.059-0.441l0.581-0.989
					c1.764-2.998,2.842-6.343,3.502-9.381l-9.652-4.862l-17.641-5.75c0,0,3.141-19.75,2.391-18s-4.781,2.125-4.781,2.125
					l-2.469,10.875l-3.75,11.893L289.676,216l16.009,8.941C315.708,217.687,325.684,206.712,330.568,201.029z"/>
				<g>
					<linearGradient id="SVGID_11_" gradientUnits="userSpaceOnUse" x1="311.5669" y1="21.4541" x2="311.5669" y2="475.478">
						<stop  offset="0" style="stop-color:#8FC4F7"/>
						<stop  offset="1" style="stop-color:#B5A3F5"/>
					</linearGradient>
					<path fill="url(#SVGID_11_)" d="M292.692,161.703l4.75-6.25c0,0,1,10.75,0,13.25c3.25-5.5,3.75-6.625,3.75-6.625
						s0.25,12.125-4.25,17.125c0.583,2.826,32.25,18,39.75,30c-6.318-0.54-11.75-5.11-11.75-5.11l6,10.11l-8.162-3.133
						c0,0-0.088,5.633-0.838,6.133s-5-4.506-7.25-4.003s-20.75,3.253-28.25,2.753"/>
					<path fill="#10659E" d="M292.692,161.703l3.954-6.855l1.222-2.118l0.569,2.631l0.001,0c0.196,2.236,0.338,4.455,0.412,6.7
						c0.03,1.123,0.053,2.246,0.017,3.386c-0.023,0.573-0.043,1.143-0.11,1.734c-0.021,0.289-0.071,0.596-0.126,0.903
						c-0.032,0.29-0.161,0.66-0.26,0.99l-1.79-0.88l1.89-3.282l0.944-1.641c0.334-0.556,0.571-1.066,0.863-1.599l1.865-3.408
						l0.049,3.794c0.01,0.794-0.013,1.542-0.046,2.31c-0.033,0.763-0.083,1.524-0.152,2.285c-0.134,1.521-0.332,3.041-0.637,4.551
						c-0.068,0.378-0.147,0.755-0.244,1.131c-0.094,0.375-0.17,0.753-0.281,1.127c-0.214,0.748-0.439,1.494-0.731,2.228
						c-0.126,0.372-0.294,0.733-0.465,1.093s-0.321,0.727-0.544,1.071c-0.215,0.346-0.395,0.706-0.642,1.037l-0.765,0.982
						l0.236-0.871c0.045-0.02-0.031-0.098,0.014-0.038l0.164,0.19c0.154,0.145,0.318,0.301,0.499,0.451
						c0.372,0.306,0.774,0.604,1.187,0.899c0.834,0.583,1.692,1.154,2.568,1.71c1.746,1.117,3.526,2.206,5.305,3.3
						c3.561,2.185,7.126,4.383,10.638,6.679c3.507,2.304,6.973,4.688,10.281,7.32c0.831,0.653,1.64,1.337,2.447,2.024
						c0.798,0.7,1.585,1.415,2.35,2.162c0.761,0.751,1.502,1.527,2.206,2.349c0.704,0.82,1.355,1.7,1.96,2.626l1.222,1.871
						l-2.154-0.345l-1.701-0.272c-0.282-0.051-0.57-0.082-0.847-0.15l-0.817-0.242l-0.816-0.244
						c-0.271-0.087-0.551-0.148-0.807-0.269l-1.562-0.648c-0.522-0.214-1.004-0.502-1.508-0.75
						c-0.507-0.245-0.983-0.539-1.461-0.831c-0.485-0.28-0.951-0.592-1.412-0.912c-0.473-0.314-0.904-0.646-1.377-1.021l1.504-1.275
						l6,10.109l1.469,2.476l-2.688-1.031l-8.162-3.133l1.358-0.918v0.003c0.006,0.928-0.022,1.833-0.081,2.756
						c-0.067,0.928-0.119,1.836-0.362,2.857l-0.127,0.419c-0.064,0.165-0.131,0.328-0.261,0.54
						c-0.252,0.287-0.394,0.585-1.131,0.641c-0.54-0.033-0.613-0.134-0.808-0.204c-0.592-0.307-0.917-0.591-1.305-0.881
						c-0.729-0.576-1.409-1.139-2.097-1.659c-0.675-0.518-1.384-1.007-2.03-1.261c-0.156-0.06-0.309-0.106-0.429-0.12
						c-0.064-0.015-0.111-0.01-0.16-0.015c-0.035,0.005-0.061,0.002-0.202,0.026l-1.331,0.221c-1.809,0.275-3.619,0.494-5.406,0.682
						c-1.793,0.209-3.593,0.358-5.387,0.54c-1.8,0.144-3.597,0.292-5.401,0.375l-2.705,0.123c-0.899,0.055-1.806,0.046-2.709,0.045
						c-0.904-0.019-1.803,0.031-2.707-0.044l-2.699-0.177l2.696-0.102c0.896-0.018,1.791-0.16,2.684-0.233
						c0.893-0.101,1.786-0.151,2.677-0.277l2.672-0.332c1.78-0.224,3.554-0.518,5.332-0.746c1.773-0.282,3.55-0.532,5.317-0.841
						l5.267-0.912l1.323-0.264c0.079-0.017,0.276-0.055,0.465-0.07c0.176-0.008,0.354-0.009,0.512,0.014
						c0.328,0.033,0.611,0.114,0.878,0.204c1.043,0.38,1.83,0.928,2.602,1.47c0.759,0.55,1.46,1.143,2.146,1.675
						c0.327,0.254,0.709,0.536,0.921,0.637c0.008,0.025,0.147,0.012-0.168-0.007c-0.062,0.002-0.126,0.013-0.187,0.03
						c-0.054,0.015-0.142,0.059-0.1,0.04l0.04-0.016l0.02-0.008c-0.086,0.046,0.206-0.106-0.19,0.102l-0.013,0.005
						c-0.067,0.031-0.127,0.088-0.161,0.152c-0.021,0.019,0.007-0.026,0.022-0.069l0.067-0.227c0.163-0.733,0.277-1.622,0.348-2.487
						c0.072-0.87,0.125-1.763,0.168-2.633v-0.003l0.026-1.429l1.332,0.511l8.162,3.133l-1.219,1.444l-6-10.11l-2.739-4.617
						l4.243,3.341c0.375,0.295,0.801,0.626,1.23,0.909c0.428,0.297,0.86,0.587,1.312,0.848c0.446,0.271,0.89,0.547,1.358,0.772
						c0.467,0.228,0.916,0.5,1.396,0.694l1.434,0.596c0.235,0.112,0.487,0.164,0.732,0.242l0.737,0.221l0.737,0.222
						c0.248,0.061,0.501,0.085,0.751,0.13l1.502,0.245l-0.933,1.526c-0.54-0.823-1.13-1.625-1.787-2.39
						c-0.655-0.766-1.357-1.5-2.083-2.217c-0.73-0.713-1.489-1.403-2.262-2.08c-0.783-0.667-1.569-1.332-2.381-1.97
						c-3.232-2.571-6.656-4.929-10.132-7.211c-3.481-2.277-7.028-4.464-10.589-6.648c-1.78-1.095-3.563-2.187-5.337-3.32
						c-0.888-0.563-1.77-1.149-2.646-1.763c-0.438-0.313-0.875-0.636-1.31-0.993c-0.22-0.184-0.438-0.386-0.66-0.602l-0.345-0.406
						c-0.119-0.143-0.271-0.48-0.351-0.728l-0.128-0.401l0.364-0.47l0.613-0.792c0.202-0.267,0.355-0.583,0.538-0.872
						c0.188-0.284,0.32-0.614,0.471-0.929c0.15-0.316,0.301-0.633,0.413-0.972c0.264-0.658,0.471-1.345,0.67-2.037
						c0.103-0.344,0.173-0.702,0.262-1.052c0.09-0.35,0.164-0.705,0.229-1.064c0.288-1.425,0.479-2.879,0.606-4.34
						c0.066-0.73,0.114-1.463,0.146-2.196c0.032-0.728,0.054-1.478,0.044-2.181l1.914,0.386c-0.312,0.583-0.619,1.221-0.94,1.753
						l-0.954,1.658l-1.908,3.316l-3.151,5.475l1.361-6.355c0.044-0.205,0.122-0.355,0.152-0.619
						c0.041-0.238,0.084-0.477,0.103-0.743c0.059-0.51,0.078-1.049,0.1-1.583c0.034-1.076,0.013-2.171-0.017-3.264
						c-0.072-2.187-0.213-4.396-0.404-6.576v-0.001l1.791,0.512L292.692,161.703z"/>
				</g>
				<g>
					<path fill="#10659E" d="M284.508,210.453c0,0,0.121-0.403,0.36-1.095c0.114-0.346,0.284-0.76,0.434-1.24
						c0.144-0.482,0.303-1.022,0.498-1.597c0.201-0.567,0.357-1.222,0.567-1.891c0.191-0.676,0.426-1.373,0.621-2.114
						c0.21-0.736,0.398-1.503,0.641-2.267c0.225-0.77,0.412-1.564,0.621-2.352c0.231-0.782,0.455-1.566,0.632-2.35
						c0.18-0.783,0.413-1.541,0.609-2.282c0.369-1.487,0.715-2.879,1.07-4.067c0.572-2.396,1.13-3.996,1.13-3.996
						s0.111,1.671,0.004,4.178c-0.05,0.623-0.106,1.298-0.193,2.009c-0.085,0.711-0.145,1.469-0.287,2.237
						c-0.149,0.767-0.271,1.567-0.454,2.368c-0.16,0.806-0.362,1.616-0.58,2.422c-0.237,0.801-0.453,1.607-0.705,2.391
						c-0.257,0.782-0.559,1.536-0.823,2.273c-0.246,0.742-0.606,1.422-0.896,2.079c-0.296,0.656-0.58,1.27-0.911,1.821
						c-0.307,0.558-0.606,1.055-0.87,1.491c-0.258,0.439-0.549,0.775-0.76,1.073C284.776,210.129,284.508,210.453,284.508,210.453z"
						/>
				</g>
				<g>
					<path fill="#C7EEFF" d="M296.904,181.203c0,0,0.632,0.308,1.717,0.879c1.079,0.58,2.615,1.42,4.426,2.482
						c1.806,1.067,3.89,2.349,6.092,3.769c1.096,0.717,2.227,1.462,3.355,2.248c1.131,0.784,2.293,1.561,3.431,2.373
						c2.259,1.628,4.518,3.257,6.636,4.784c1.064,0.757,2.065,1.536,3.029,2.253c0.964,0.719,1.852,1.436,2.67,2.096
						c1.633,1.331,2.933,2.515,3.811,3.372c0.865,0.871,1.359,1.369,1.359,1.369s-0.582-0.39-1.602-1.07
						c-0.495-0.355-1.133-0.741-1.833-1.217c-0.698-0.48-1.522-0.972-2.39-1.549c-0.882-0.558-1.837-1.163-2.848-1.803
						c-1.007-0.646-2.087-1.302-3.18-2.023c-1.096-0.721-2.229-1.465-3.379-2.222c-1.131-0.782-2.278-1.576-3.427-2.371
						c-1.147-0.788-2.271-1.611-3.39-2.402c-1.122-0.786-2.199-1.6-3.254-2.37c-2.125-1.519-4.078-2.981-5.735-4.264
						C299.052,183.021,296.904,181.203,296.904,181.203z"/>
				</g>
			</g>
			<g>
				<g>
					<linearGradient id="SVGID_12_" gradientUnits="userSpaceOnUse" x1="228.0854" y1="50.4531" x2="228.0854" y2="323.865">
						<stop  offset="0" style="stop-color:#8FC4F7"/>
						<stop  offset="1" style="stop-color:#B5A3F5"/>
					</linearGradient>
					<path fill="url(#SVGID_12_)" d="M236.028,129.953c0,0,30.611-47.5-7.944-47.5c-38.551,0-7.941,47.5-7.941,47.5"/>
					<path fill="#10659E" d="M236.028,129.953c0,0,0.79-1.801,2.174-4.952c0.691-1.565,1.502-3.475,2.391-5.668
						c0.896-2.189,1.853-4.674,2.786-7.404c0.906-2.735,1.804-5.729,2.287-8.937c0.122-0.801,0.239-1.612,0.281-2.433
						c0.09-0.822,0.088-1.646,0.081-2.478c0.025-0.836-0.12-1.651-0.176-2.486c-0.19-0.797-0.258-1.649-0.567-2.411
						c-0.441-1.6-1.307-3.017-2.371-4.257l-0.852-0.898l-1.005-0.755c-0.17-0.125-0.328-0.263-0.506-0.378l-0.568-0.303
						l-1.136-0.617c-3.216-1.412-6.997-1.853-10.763-1.878l-2.869,0.099c-0.977,0.036-1.817,0.212-2.732,0.304
						c-0.451,0.035-0.894,0.144-1.335,0.253l-1.326,0.31c-0.875,0.223-1.677,0.592-2.515,0.878l-1.141,0.615l-0.571,0.302
						c-0.179,0.115-0.339,0.253-0.509,0.377l-1.012,0.755l-0.859,0.899c-1.075,1.242-1.949,2.667-2.395,4.274
						c-0.312,0.766-0.381,1.62-0.574,2.421c-0.058,0.838-0.205,1.656-0.182,2.495c-0.008,0.834-0.012,1.661,0.077,2.485
						c0.041,0.823,0.157,1.637,0.278,2.44c0.479,3.216,1.371,6.217,2.277,8.957c0.933,2.734,1.895,5.22,2.799,7.408
						c0.899,2.191,1.72,4.097,2.423,5.657c1.415,3.134,2.224,4.924,2.224,4.924s-0.31-0.385-0.891-1.108
						c-0.563-0.736-1.362-1.835-2.32-3.276c-0.951-1.446-2.044-3.242-3.186-5.371c-1.129-2.134-2.322-4.596-3.383-7.395
						c-1.075-2.792-2.032-5.918-2.645-9.354c-0.15-0.86-0.294-1.734-0.362-2.639c-0.115-0.895-0.137-1.817-0.148-2.753
						c-0.044-0.931,0.091-1.892,0.145-2.853c0.194-0.959,0.267-1.945,0.614-2.905c0.506-1.949,1.544-3.849,2.931-5.453l1.1-1.166
						l1.264-0.979c0.214-0.159,0.421-0.333,0.643-0.479l0.693-0.386l1.396-0.766c0.976-0.362,1.948-0.804,2.95-1.074l1.511-0.374
						c0.504-0.128,1.009-0.255,1.533-0.307c1.024-0.124,2.113-0.327,3.092-0.373l3.005-0.135c4.047,0.054,8.227,0.51,12.107,2.231
						l1.401,0.763l0.695,0.385c0.223,0.146,0.432,0.319,0.646,0.478l1.271,0.979l1.107,1.167c1.397,1.605,2.443,3.513,2.955,5.469
						c0.351,0.964,0.426,1.952,0.621,2.916c0.057,0.963,0.193,1.928,0.15,2.861c-0.01,0.938-0.029,1.864-0.144,2.761
						c-0.066,0.907-0.209,1.783-0.358,2.645c-0.608,3.445-1.56,6.579-2.634,9.375c-1.061,2.804-2.26,5.267-3.396,7.4
						c-1.151,2.127-2.256,3.919-3.219,5.359c-0.971,1.436-1.781,2.529-2.354,3.259C236.343,129.571,236.028,129.953,236.028,129.953
						z"/>
				</g>
				<linearGradient id="SVGID_13_" gradientUnits="userSpaceOnUse" x1="228.0854" y1="65.4531" x2="228.0854" y2="129.9529">
					<stop  offset="0" style="stop-color:#BFE4F7"/>
					<stop  offset="1" style="stop-color:#BFE4F7;stop-opacity:0"/>
				</linearGradient>
				<path fill="url(#SVGID_13_)" d="M233.854,129.953c0,0,22.233-41.736-5.771-41.736c-28,0-5.767,41.736-5.767,41.736"/>
				<g>
					<path fill="#10659E" d="M224.429,131.953c0,0,0.318-0.457,0.88-0.891c0.14-0.111,0.291-0.231,0.457-0.338
						c0.154-0.118,0.382-0.183,0.592-0.267c0.434-0.156,0.919-0.284,1.409-0.371c0.482-0.022,0.967,0,1.414,0.057
						c0.224,0.036,0.438,0.051,0.638,0.13c0.2,0.071,0.386,0.157,0.554,0.238c0.678,0.312,1.057,0.692,1.057,0.691
						c0,0-0.507,0.284-1.158,0.453c-0.164,0.045-0.339,0.092-0.52,0.123c-0.181,0.023-0.371,0.104-0.564,0.139
						c-0.387,0.089-0.794,0.138-1.202,0.156c-0.387,0.07-0.778,0.1-1.167,0.091c-0.197,0.007-0.381-0.042-0.584-0.016
						c-0.197,0.013-0.391,0.006-0.568-0.001C224.957,132.132,224.429,131.953,224.429,131.953z"/>
				</g>
			</g>
		</g>
		<g>
			<path opacity="0.3" fill="#10659E" d="M41.381,257.183c1.524,5.043,3.27,10.056,5.252,15.03l0.656,1.645l-1.747-0.288
				c-0.349-0.058-0.73-0.12-1.109-0.153c0.557,1.836,1.376,3.743,2.464,5.753c21.584,1.062,49.082-0.818,49.082-0.818
				C73.132,277.489,52.006,264.75,41.381,257.183z"/>
			<path opacity="0.3" fill="#10659E" d="M102.639,158.963c0,0-15.21-31.88-24.96-37.07c-2,2.06-3.5,2.988-3.5,2.988
				s-9.325-12.614-11.413-13.896s-4.319-1.9-4.319-1.9l-7.441,12.513c0,0,2.922,40.855,5.922,41.98s46.065-4.034,46.065-4.034"/>
			<g>
				<linearGradient id="SVGID_14_" gradientUnits="userSpaceOnUse" x1="54.5967" y1="21.4531" x2="54.5967" y2="475.4816">
					<stop  offset="0" style="stop-color:#8FC4F7"/>
					<stop  offset="1" style="stop-color:#B5A3F5"/>
				</linearGradient>
				<path fill="url(#SVGID_14_)" d="M101.179,278.453c-1.5-0.5-26.521,3.328-62.511-23.336S0.179,198.238,1.179,186.346l12,11.482
					c0,0-11-25.28-10-45.078l5.5,2.703c0,0-4-20,5.5-44.5c2.5,5,2.5,5,2.5,5s6-10.5,5.5-12s10.5-49,19-55
					s41.183-20.602,62.341,5.699c-31.841,27.301-52.25,66.844-52.25,66.844l17.909,14.457c0,0-4.5-12.5-7-17
					c7.5,4.5,20.5,22.5,20.5,22.5l-4-13c0,0,23,24,29.5,41.5"/>
				<path fill="#10659E" d="M101.179,278.453c-1.558-0.075-3.113,0.06-4.677,0.014c-1.561-0.024-3.125-0.07-4.682-0.214
					c-1.563-0.094-3.111-0.32-4.666-0.51c-1.547-0.23-3.09-0.511-4.627-0.81c-1.521-0.367-3.057-0.689-4.57-1.096
					c-1.503-0.44-3.016-0.856-4.514-1.318L69,272.977c-1.469-0.548-2.908-1.172-4.365-1.755c-1.465-0.566-2.863-1.278-4.281-1.95
					c-1.405-0.694-2.854-1.31-4.212-2.095l-4.131-2.254c-1.385-0.739-2.684-1.62-4.031-2.424c-1.324-0.84-2.699-1.604-3.98-2.508
					l-3.875-2.668l-1.933-1.342l-1.87-1.457l-3.68-2.887l-0.92-0.722l-0.884-0.786l-1.764-1.581
					c-1.165-1.066-2.379-2.086-3.502-3.191l-3.294-3.387c-0.539-0.574-1.122-1.107-1.624-1.716l-1.528-1.805
					c-0.998-1.22-2.082-2.372-3.01-3.649l-2.794-3.823c-0.92-1.282-1.694-2.666-2.548-3.994c-0.406-0.678-0.86-1.326-1.226-2.027
					l-1.11-2.096l-1.109-2.096c-0.371-0.698-0.657-1.439-0.989-2.156c-0.625-1.453-1.335-2.871-1.835-4.376
					c-1.127-2.956-2.088-5.982-2.785-9.072l-0.512-2.32c-0.176-0.772-0.262-1.562-0.397-2.343c-0.115-0.784-0.267-1.562-0.351-2.35
					l-0.234-2.366c-0.249-3.16-0.329-6.34-0.042-9.519l0.189-2.09l1.499,1.451l0.004,0.004l11.996,11.479l-1.608,1.122
					c-0.771-1.821-1.476-3.626-2.149-5.46c-0.679-1.828-1.319-3.669-1.927-5.522c-0.606-1.853-1.197-3.711-1.724-5.59
					c-0.261-0.94-0.553-1.871-0.785-2.819L4.945,176c-0.429-1.906-0.895-3.802-1.236-5.73c-0.179-0.961-0.387-1.917-0.517-2.888
					l-0.44-2.904l-0.312-2.927c-0.124-0.973-0.16-1.957-0.209-2.939c-0.037-0.983-0.135-1.962-0.093-2.951l0.042-2.96l0.021-1.544
					l1.418,0.697l5.5,2.703l-1.421,1.093c-0.178-0.993-0.307-1.927-0.41-2.888c-0.118-0.955-0.182-1.91-0.258-2.865
					c-0.048-0.956-0.125-1.911-0.137-2.867c-0.026-0.956-0.057-1.911-0.039-2.867c0.006-0.955,0.003-1.911,0.056-2.865
					c0.05-0.953,0.054-1.91,0.145-2.86l0.228-2.855l0.333-2.844c0.092-0.951,0.281-1.888,0.419-2.833
					c0.152-0.942,0.284-1.888,0.492-2.82l0.572-2.806c0.202-0.933,0.457-1.854,0.683-2.78c0.238-0.924,0.445-1.857,0.742-2.765
					l0.831-2.74c0.256-0.92,0.613-1.807,0.926-2.708l0.967-2.695l0.781-2.177l1.046,2.091l2.5,5l-1.763-0.049
					c1.428-2.533,2.826-5.117,4.062-7.727c0.306-0.652,0.6-1.309,0.857-1.96c0.128-0.324,0.248-0.65,0.339-0.958
					c0.049-0.156,0.083-0.301,0.112-0.434c0.025-0.1,0.021-0.282,0.032-0.146l0.008,0.02c-0.016-0.075,0.049,0.195-0.033-0.165
					l-0.003-0.069l-0.007-0.137c-0.008-0.074,0.003-0.256,0.008-0.379l0.032-0.412l0.042-0.304c0.053-0.383,0.115-0.757,0.182-1.123
					c0.13-0.738,0.272-1.465,0.423-2.19c1.208-5.79,2.659-11.493,4.219-17.178c1.572-5.679,3.287-11.322,5.272-16.891
					c0.998-2.782,2.064-5.546,3.295-8.259c0.625-1.353,1.263-2.703,2.018-4.014c0.74-1.315,1.547-2.612,2.635-3.802
					c0.137-0.148,0.263-0.3,0.411-0.444l0.483-0.413c0.167-0.134,0.315-0.278,0.498-0.401l0.456-0.309
					c0.604-0.405,1.287-0.834,1.925-1.2c1.296-0.759,2.622-1.453,3.972-2.091c2.695-1.287,5.477-2.379,8.324-3.271
					c5.687-1.785,11.654-2.817,17.662-2.706c3,0.057,6.003,0.406,8.938,1.088c2.937,0.671,5.796,1.705,8.487,3.067
					c2.694,1.357,5.219,3.033,7.548,4.94c2.305,1.94,4.376,4.126,6.29,6.434l0.603,0.728l-0.731,0.658l-3.938,3.544l-1.965,1.776
					l-1.89,1.858c-1.255,1.244-2.53,2.468-3.77,3.727l-3.632,3.865c-1.23,1.271-2.381,2.614-3.546,3.945
					c-1.153,1.341-2.357,2.638-3.468,4.016l-3.369,4.102c-1.12,1.37-2.177,2.79-3.27,4.182c-1.097,1.389-2.156,2.807-3.194,4.241
					c-1.039,1.433-2.117,2.837-3.116,4.3l-3.034,4.359l-2.949,4.417l-2.863,4.474c-0.923,1.51-1.869,3.007-2.773,4.528
					c-1.819,3.031-3.591,6.113-5.236,9.21l-0.26-1.236l17.909,14.456l-1.569,1.117c-0.519-1.435-1.057-2.864-1.604-4.291
					l-0.814-2.143c-0.271-0.714-0.57-1.415-0.854-2.123l-0.861-2.118c-0.295-0.7-0.554-1.428-0.88-2.103l-1.92-4.076l-1.596-3.387
					l2.984,2.043c0.554,0.379,1.125,0.747,1.662,1.141l1.536,1.241c0.971,0.869,1.933,1.745,2.837,2.666
					c0.467,0.449,0.907,0.918,1.351,1.385c0.442,0.468,0.895,0.928,1.319,1.409c0.869,0.948,1.721,1.908,2.555,2.882
					c3.343,3.895,6.499,7.908,9.535,12.048l-1.767,0.879l-4-13l-1.253-4.073l2.931,3.087l0.001,0.001
					c2.896,3.186,5.648,6.447,8.35,9.77c1.353,1.657,2.667,3.345,3.977,5.036c1.295,1.703,2.581,3.411,3.822,5.153
					c0.635,0.86,1.243,1.74,1.846,2.624c0.598,0.887,1.229,1.749,1.8,2.654l1.742,2.693l1.657,2.747
					c0.565,0.907,1.068,1.852,1.577,2.792c0.506,0.941,1.04,1.867,1.478,2.843c0.448,0.97,0.945,1.916,1.351,2.904l1.178,2.976
					l-1.292-2.925c-0.443-0.968-0.977-1.894-1.46-2.841c-0.473-0.953-1.042-1.855-1.582-2.772c-0.542-0.915-1.079-1.833-1.676-2.715
					l-1.754-2.666l-1.836-2.609c-0.601-0.877-1.264-1.712-1.893-2.569c-0.633-0.854-1.271-1.705-1.936-2.536
					c-1.301-1.683-2.646-3.331-3.998-4.972c-1.367-1.629-2.738-3.255-4.146-4.848c-2.807-3.189-5.685-6.339-8.647-9.353
					l-0.001-0.001l1.678-0.986l4,13l1.743,5.665l-3.509-4.786c-2.989-4.075-6.136-8.078-9.43-11.914
					c-0.823-0.961-1.662-1.906-2.514-2.836c-0.418-0.474-0.859-0.922-1.292-1.38c-0.433-0.457-0.864-0.917-1.316-1.35
					c-0.881-0.897-1.803-1.735-2.73-2.566l-1.436-1.16c-0.49-0.358-0.993-0.679-1.487-1.022l1.389-1.343l2.003,4.243
					c0.339,0.707,0.594,1.426,0.895,2.138l0.871,2.142c0.286,0.715,0.588,1.425,0.862,2.144l0.819,2.156
					c0.551,1.435,1.092,2.875,1.617,4.324l1.219,3.368l-2.789-2.251l-17.909-14.456L50,121.756l0.381-0.718
					c1.688-3.18,3.46-6.259,5.298-9.322c0.912-1.533,1.864-3.041,2.794-4.562l2.883-4.505l2.97-4.448l3.055-4.39
					c1.006-1.473,2.092-2.888,3.139-4.331c1.046-1.444,2.113-2.873,3.218-4.273c1.101-1.403,2.166-2.834,3.295-4.215l3.396-4.136
					c1.12-1.389,2.335-2.698,3.499-4.051c1.175-1.342,2.337-2.697,3.579-3.981l3.668-3.902c1.253-1.272,2.541-2.51,3.81-3.767
					l1.91-1.878l1.988-1.798l3.986-3.586l-0.128,1.386c-1.837-2.214-3.817-4.304-6.011-6.151c-2.217-1.815-4.611-3.403-7.164-4.689
					c-2.549-1.292-5.257-2.271-8.047-2.908c-2.788-0.647-5.65-0.981-8.521-1.035c-5.749-0.108-11.512,0.883-17.022,2.613
					c-2.759,0.863-5.459,1.924-8.065,3.169c-1.306,0.616-2.585,1.287-3.823,2.012c-0.634,0.366-1.197,0.718-1.813,1.129
					l-0.456,0.309c-0.122,0.082-0.235,0.199-0.354,0.294c-0.24,0.19-0.476,0.399-0.691,0.666c-0.899,0.977-1.669,2.187-2.364,3.429
					c-0.711,1.235-1.331,2.544-1.938,3.856c-1.197,2.638-2.248,5.359-3.233,8.106c-1.96,5.5-3.665,11.105-5.228,16.749
					c-1.548,5.645-2.995,11.334-4.187,17.046c-0.148,0.713-0.288,1.428-0.413,2.136c-0.066,0.356-0.123,0.707-0.171,1.051
					l-0.035,0.241c-0.004,0.046-0.011,0.091-0.021,0.136c-0.004,0.06-0.038,0.06-0.026,0.169l0.007,0.138l0.003,0.069
					c-0.079-0.337-0.009-0.044-0.022-0.097l0.019,0.088c0.086,0.498,0.009,0.687-0.021,0.947c-0.047,0.227-0.1,0.438-0.16,0.633
					c-0.118,0.396-0.254,0.76-0.395,1.118c-0.283,0.714-0.591,1.399-0.908,2.076c-1.279,2.7-2.68,5.286-4.136,7.87l-0.921,1.635
					l-0.842-1.684l-2.5-5l1.827-0.085l-0.946,2.638c-0.306,0.883-0.657,1.75-0.907,2.652l-0.813,2.682
					c-0.291,0.889-0.493,1.802-0.726,2.707c-0.221,0.908-0.472,1.809-0.669,2.722l-0.56,2.747c-0.204,0.912-0.332,1.838-0.481,2.76
					c-0.135,0.924-0.32,1.842-0.41,2.772l-0.326,2.784l-0.222,2.793c-0.09,0.93-0.092,1.865-0.142,2.797
					c-0.052,0.933-0.048,1.866-0.055,2.8c-0.019,0.934,0.012,1.866,0.037,2.798c0.011,0.934,0.087,1.862,0.133,2.793
					c0.075,0.927,0.137,1.858,0.25,2.777c0.097,0.917,0.229,1.855,0.384,2.721l0.35,1.964l-1.771-0.871l-5.5-2.703l1.439-0.847
					l-0.039,2.852c-0.043,0.949,0.055,1.904,0.09,2.856c0.048,0.953,0.081,1.906,0.203,2.857l0.304,2.854l0.431,2.842
					c0.127,0.95,0.332,1.889,0.507,2.833c0.333,1.89,0.793,3.758,1.214,5.633l0.721,2.793c0.229,0.934,0.518,1.854,0.774,2.78
					c0.52,1.853,1.103,3.689,1.702,5.519c0.6,1.83,1.233,3.649,1.903,5.454c0.662,1.803,1.368,3.609,2.108,5.356l1.894,4.473
					l-3.502-3.352L0.492,187.072l-0.004-0.003l1.688-0.639c-0.24,3.039-0.127,6.115,0.147,9.162l0.253,2.285
					c0.089,0.761,0.246,1.514,0.366,2.271c0.14,0.753,0.23,1.516,0.41,2.262l0.521,2.241c0.724,2.979,1.63,5.917,2.732,8.782
					c0.483,1.459,1.176,2.835,1.783,4.244c0.323,0.696,0.599,1.415,0.96,2.094l1.08,2.036l1.08,2.036
					c0.355,0.682,0.8,1.313,1.195,1.972c0.833,1.292,1.584,2.639,2.483,3.887l2.698,3.747c0.893,1.255,1.944,2.389,2.909,3.589
					l1.477,1.778c0.485,0.6,1.053,1.126,1.575,1.693l3.198,3.346c1.087,1.091,2.258,2.087,3.383,3.137l1.703,1.557l0.854,0.775
					l0.914,0.729l3.654,2.919l1.806,1.433l1.894,1.348l3.777,2.71c1.25,0.918,2.592,1.696,3.884,2.552
					c1.314,0.818,2.583,1.717,3.936,2.472l4.037,2.304c1.328,0.804,2.745,1.435,4.12,2.148c1.386,0.691,2.757,1.42,4.189,2.01
					c1.419,0.619,2.823,1.28,4.257,1.867l4.344,1.66c1.466,0.502,2.947,0.96,4.422,1.442c1.484,0.448,2.992,0.812,4.489,1.224
					c1.514,0.334,3.027,0.686,4.551,0.983c1.531,0.256,3.059,0.552,4.605,0.713c1.541,0.212,3.093,0.328,4.646,0.422
					C98.059,278.372,99.629,278.308,101.179,278.453z"/>
			</g>
			<g>
				<path fill="#C7EEFF" d="M106.16,165.739c0,0-1.815-1.841-4.33-4.767c-1.257-1.464-2.672-3.217-4.164-5.114
					c-0.737-0.955-1.523-1.925-2.279-2.942c-0.765-1.008-1.541-2.032-2.318-3.056c-0.761-1.034-1.521-2.067-2.27-3.084
					c-0.758-1.011-1.456-2.041-2.158-3.019c-0.688-0.987-1.354-1.941-1.986-2.846c-0.651-0.886-1.247-1.74-1.796-2.53
					C82.651,135.23,81.304,133,81.304,133s1.855,1.789,4.452,4.665c1.312,1.427,2.808,3.127,4.287,5.027
					c0.744,0.949,1.539,1.911,2.298,2.923c0.769,1.006,1.549,2.029,2.33,3.051c0.757,1.037,1.515,2.074,2.26,3.095
					c0.746,1.018,1.438,2.05,2.131,3.033c1.374,1.976,2.613,3.851,3.666,5.472C104.871,163.485,106.16,165.739,106.16,165.739z"/>
			</g>
			<g>
				<path fill="#C7EEFF" d="M84.429,145.703c0,0-1.488-1.145-3.509-3.06c-1.016-0.953-2.175-2.088-3.368-3.349
					c-0.591-0.635-1.224-1.273-1.827-1.956c-0.604-0.683-1.217-1.376-1.83-2.07c-0.595-0.71-1.189-1.42-1.774-2.119
					c-0.584-0.701-1.114-1.429-1.651-2.112c-1.071-1.367-1.997-2.713-2.757-3.887c-0.383-0.585-0.742-1.109-1.014-1.618
					c-0.283-0.499-0.511-0.944-0.701-1.306c-0.375-0.728-0.57-1.148-0.57-1.148s0.339,0.333,0.899,0.924
					c0.277,0.297,0.617,0.654,0.986,1.073c0.366,0.419,0.841,0.857,1.305,1.368c0.479,0.501,0.994,1.045,1.517,1.636
					c0.528,0.587,1.122,1.182,1.689,1.832c0.573,0.646,1.189,1.293,1.77,1.988c0.6,0.681,1.208,1.373,1.817,2.065
					c0.593,0.706,1.186,1.412,1.769,2.107c0.595,0.686,1.142,1.395,1.692,2.062c1.082,1.351,2.079,2.625,2.901,3.748
					C83.437,144.108,84.429,145.703,84.429,145.703z"/>
			</g>
			<g>
				<path fill="#10659E" d="M50.649,122.281c0,0-0.226-0.206-0.603-0.513c-0.37-0.32-0.944-0.76-1.632-1.291
					c-0.341-0.269-0.734-0.531-1.137-0.824c-0.41-0.285-0.827-0.61-1.291-0.897c-0.918-0.587-1.879-1.255-2.9-1.821
					c-0.505-0.294-1.011-0.589-1.508-0.878c-0.498-0.291-1.012-0.527-1.498-0.784c-0.981-0.491-1.883-0.993-2.702-1.316
					c-1.62-0.702-2.699-1.169-2.699-1.169s1.125,0.352,2.813,0.878c0.857,0.238,1.808,0.642,2.848,1.031
					c0.515,0.206,1.062,0.39,1.593,0.629c0.533,0.239,1.074,0.481,1.615,0.724c1.096,0.463,2.139,1.034,3.139,1.533
					c0.504,0.244,0.963,0.528,1.414,0.775c0.444,0.256,0.875,0.481,1.255,0.721c0.765,0.47,1.404,0.86,1.851,1.168
					c0.435,0.297,0.683,0.467,0.683,0.467L50.649,122.281z"/>
			</g>
			<g>
				<linearGradient id="SVGID_15_" gradientUnits="userSpaceOnUse" x1="90.8457" y1="55.2334" x2="90.8457" y2="69.166">
					<stop  offset="0" style="stop-color:#8FC4F7"/>
					<stop  offset="1" style="stop-color:#B5A3F5"/>
				</linearGradient>
				<path fill="url(#SVGID_15_)" d="M94.679,63.12c0,0-1.333-4-7.667-7.333"/>
				<path fill="#10659E" d="M93.743,63.473c0,0-0.011-0.041-0.033-0.117c-0.023-0.088-0.053-0.153-0.091-0.269
					c-0.055-0.209-0.242-0.577-0.436-0.993c-0.246-0.402-0.49-0.907-0.868-1.383c-0.18-0.246-0.366-0.5-0.556-0.758
					c-0.215-0.24-0.435-0.484-0.654-0.728c-0.228-0.237-0.424-0.512-0.678-0.717c-0.243-0.219-0.483-0.435-0.714-0.644
					c-0.234-0.21-0.46-0.414-0.674-0.606c-0.233-0.169-0.453-0.33-0.657-0.478c-0.822-0.596-1.37-0.993-1.37-0.993
					s0.614,0.291,1.535,0.728c0.232,0.111,0.483,0.23,0.75,0.357c0.251,0.153,0.517,0.315,0.791,0.482
					c0.276,0.169,0.562,0.344,0.852,0.521c0.302,0.165,0.554,0.405,0.838,0.608c0.277,0.213,0.555,0.427,0.829,0.637
					c0.258,0.229,0.501,0.47,0.745,0.697c0.502,0.439,0.884,0.945,1.245,1.353c0.326,0.451,0.595,0.797,0.77,1.134
					c0.189,0.328,0.249,0.463,0.249,0.463L93.743,63.473z"/>
			</g>
			<g>
				<path fill="#10659E" d="M52.115,118.755c0,0-0.418-0.987-1.099-2.406c-0.346-0.711-0.708-1.559-1.172-2.439
					c-0.451-0.886-0.933-1.832-1.414-2.777c-0.935-1.91-2.036-3.728-2.791-5.136c-0.776-1.397-1.294-2.328-1.294-2.328
					s0.623,0.864,1.557,2.159c0.914,1.31,2.229,2.999,3.387,4.793c0.593,0.89,1.187,1.779,1.743,2.613
					c0.568,0.827,1.039,1.645,1.474,2.324c0.867,1.371,1.391,2.291,1.391,2.291L52.115,118.755z"/>
			</g>
			<g>
				<path fill="#10659E" d="M21.282,104.379c0,0,5.342-5.996,10.683-11.991c2.686-2.984,5.387-5.955,7.447-8.153
					c1.03-1.098,1.898-2.005,2.527-2.62c0.324-0.299,0.55-0.56,0.75-0.692c0.186-0.143,0.285-0.219,0.285-0.219
					s-0.095,0.083-0.272,0.238c-0.187,0.14-0.4,0.418-0.702,0.734c-0.587,0.65-1.396,1.608-2.354,2.767
					c-1.917,2.318-4.425,5.449-6.917,8.592c-4.954,6.311-9.907,12.622-9.907,12.622L21.282,104.379z"/>
			</g>
			<path opacity="0.3" fill="#10659E" d="M100.917,53.191c-2.039-2.24-4.266-4.273-6.754-6.005
				c-2.669-1.859-5.553-3.328-8.576-4.419l0,0c-0.003-0.001-0.005-0.002-0.008-0.003c-1.294-0.467-2.613-0.867-3.955-1.189
				c-0.115-0.028-0.231-0.048-0.346-0.075c-0.559-0.128-1.118-0.254-1.684-0.357c-0.701-0.129-1.407-0.24-2.118-0.329
				c-0.595-0.074-1.192-0.127-1.789-0.172c-5.642-0.458-11.349,0.204-16.815,1.634c-5.796,1.516-11.662,3.804-16.645,7.176
				c-1.602,1.083-2.693,2.698-3.643,4.356c-1.276,2.228-2.337,4.573-3.312,6.946c-2.006,4.88-3.663,9.906-5.197,14.951
				c-1.552,5.104-2.958,10.254-4.244,15.432c-0.627,2.522-1.219,5.054-1.765,7.596c-0.225,1.049-0.439,2.102-0.629,3.159
				c8.76-10.693,38.875-40.188,56.241-40.188c7.333,0-19.167,37.583-25.083,47.25c0,0-2.176-1.963-9.367-3.936
				c6.551,10.897,4.616,12.125,4.616,12.125s-5.167-2.188-13.421-3.74c4.727,1.369,11.646,5.881,14.024,7.516
				c0.641-1.203,1.292-2.399,1.959-3.586c1.562-2.776,3.187-5.517,4.861-8.226c1.353-2.188,2.703-4.385,4.131-6.524
				c3.452-5.169,6.969-10.283,10.706-15.254c8.337-11.092,17.568-21.563,27.89-30.849c0.55-0.495,1.1-0.99,1.65-1.484
				c0.148-0.133,0.296-0.267,0.445-0.4C102.168,54.524,101.053,53.342,100.917,53.191z"/>
			<g>
				<path fill="#C7EEFF" d="M70.846,138.62c0,0-2.413-1.314-5.866-3.525c-0.862-0.554-1.804-1.144-2.774-1.805
					c-0.972-0.658-2.013-1.331-3.056-2.075c-1.043-0.744-2.139-1.486-3.221-2.29c-1.078-0.813-2.183-1.609-3.266-2.47
					c-2.178-1.708-4.192-3.544-6.107-5.202c-0.972-0.802-1.902-1.592-2.819-2.298c-0.902-0.727-1.812-1.342-2.613-1.968
					c-0.833-0.587-1.596-1.125-2.273-1.602c-0.686-0.47-1.284-0.879-1.776-1.217c-0.984-0.68-1.54-1.088-1.54-1.088
					s0.636,0.255,1.737,0.735c0.546,0.247,1.226,0.521,1.971,0.9c0.748,0.375,1.596,0.795,2.503,1.289
					c0.89,0.523,1.885,1.048,2.865,1.721c0.494,0.33,1.013,0.655,1.523,1.014c0.502,0.371,1.015,0.749,1.537,1.134
					c1.018,0.798,2.07,1.612,3.085,2.478c1.037,0.863,2.085,1.717,3.146,2.543c1.038,0.854,2.133,1.671,3.185,2.494
					c1.055,0.825,2.094,1.637,3.1,2.422c2.01,1.575,3.874,3.066,5.456,4.368C68.816,136.769,70.846,138.62,70.846,138.62z"/>
			</g>
		</g>
		<g>
			<path opacity="0.3" fill="#10659E" d="M348.679,278.453c0,0,20.949,4.727,47.096-3.267c2.384-5.68,4.474-11.408,6.251-17.182
				C391.816,264.854,368.022,279.192,348.679,278.453z"/>
			<path opacity="0.3" fill="#10659E" d="M342.232,158.963c0,0,15.21-31.88,24.96-37.07c2,2.06,3.5,2.988,3.5,2.988
				s9.325-12.614,11.412-13.896c2.088-1.282,4.319-1.9,4.319-1.9l7.44,12.513c0,0-2.922,40.855-5.922,41.98
				s-46.065-4.034-46.065-4.034"/>
			<g>
				
					<linearGradient id="SVGID_16_" gradientUnits="userSpaceOnUse" x1="428.9194" y1="21.4541" x2="428.9194" y2="475.4789" gradientTransform="matrix(-1 0 0 1 819.1943 0)">
					<stop  offset="0" style="stop-color:#8FC4F7"/>
					<stop  offset="1" style="stop-color:#B5A3F5"/>
				</linearGradient>
				<path fill="url(#SVGID_16_)" d="M343.692,278.453c1.5-0.5,26.521,3.328,62.511-23.336s38.489-56.879,37.489-68.771l-12,11.482
					c0,0,11-25.28,10-45.078l-5.5,2.703c0,0,4-20-5.5-44.5c-2.5,5-2.5,5-2.5,5s-6-10.5-5.5-12s-10.5-49-19-55
					s-41.183-20.602-62.342,5.699c31.842,27.301,52.251,66.844,52.251,66.844l-17.909,14.457c0,0,4.5-12.5,7-17
					c-7.5,4.5-20.5,22.5-20.5,22.5l4-13c0,0-23,24-29.5,41.5"/>
				<path fill="#10659E" d="M343.692,278.453c1.55-0.146,3.12-0.081,4.67-0.195c1.554-0.094,3.106-0.21,4.647-0.422
					c1.546-0.161,3.074-0.457,4.604-0.713c1.523-0.298,3.037-0.649,4.551-0.983c1.497-0.411,3.005-0.775,4.489-1.224
					c1.475-0.482,2.956-0.94,4.421-1.442l4.344-1.66c1.435-0.587,2.838-1.248,4.258-1.867c1.433-0.59,2.803-1.318,4.189-2.01
					c1.375-0.714,2.791-1.345,4.119-2.148l4.037-2.304c1.353-0.755,2.621-1.653,3.936-2.472c1.292-0.855,2.634-1.634,3.884-2.552
					l3.777-2.71l1.894-1.348l1.806-1.433l3.654-2.919l0.914-0.729l0.854-0.775l1.703-1.557c1.125-1.05,2.295-2.046,3.383-3.137
					l3.198-3.346c0.522-0.567,1.09-1.094,1.575-1.693l1.478-1.778c0.964-1.2,2.016-2.334,2.908-3.589l2.698-3.747
					c0.898-1.248,1.65-2.595,2.482-3.887c0.396-0.658,0.84-1.29,1.195-1.972l1.079-2.036l1.08-2.036
					c0.361-0.679,0.638-1.397,0.961-2.094c0.606-1.409,1.3-2.785,1.783-4.244c1.103-2.865,2.009-5.803,2.732-8.782l0.521-2.241
					c0.181-0.746,0.271-1.509,0.41-2.262c0.119-0.757,0.277-1.509,0.366-2.271l0.252-2.285c0.275-3.047,0.388-6.123,0.148-9.162
					l1.688,0.639l-0.004,0.003l-11.996,11.479l-3.503,3.352l1.895-4.473c0.74-1.748,1.446-3.553,2.107-5.356
					c0.67-1.805,1.303-3.624,1.903-5.454c0.599-1.83,1.183-3.666,1.702-5.519c0.257-0.927,0.546-1.846,0.773-2.78l0.722-2.793
					c0.421-1.875,0.881-3.743,1.215-5.633c0.175-0.943,0.38-1.883,0.507-2.833l0.431-2.842l0.304-2.854
					c0.122-0.951,0.155-1.904,0.203-2.857c0.035-0.952,0.133-1.907,0.09-2.856l-0.039-2.852l1.44,0.847l-5.5,2.703l-1.771,0.871
					l0.35-1.964c0.154-0.866,0.287-1.803,0.384-2.721c0.114-0.919,0.176-1.851,0.25-2.777c0.047-0.931,0.123-1.859,0.134-2.793
					c0.025-0.932,0.056-1.864,0.037-2.798c-0.006-0.934-0.003-1.867-0.055-2.8c-0.05-0.932-0.052-1.867-0.142-2.797l-0.222-2.793
					l-0.326-2.784c-0.09-0.93-0.275-1.848-0.411-2.772c-0.149-0.922-0.277-1.848-0.481-2.76l-0.559-2.747
					c-0.198-0.913-0.448-1.814-0.669-2.722c-0.233-0.904-0.436-1.818-0.727-2.707l-0.813-2.682c-0.25-0.901-0.6-1.769-0.906-2.652
					l-0.946-2.638l1.827,0.085l-2.5,5l-0.842,1.684l-0.921-1.635c-1.456-2.584-2.856-5.17-4.136-7.87
					c-0.317-0.677-0.625-1.362-0.908-2.076c-0.141-0.358-0.276-0.722-0.395-1.118c-0.061-0.194-0.113-0.407-0.16-0.633
					c-0.03-0.26-0.107-0.448-0.021-0.947l0.02-0.087c-0.013,0.053,0.058-0.241-0.021,0.097l0.003-0.069l0.007-0.138
					c0.013-0.11-0.021-0.11-0.025-0.169c-0.011-0.045-0.018-0.09-0.022-0.136l-0.034-0.241c-0.048-0.344-0.105-0.695-0.171-1.051
					c-0.125-0.708-0.264-1.423-0.412-2.136c-1.192-5.712-2.639-11.402-4.188-17.046c-1.562-5.643-3.267-11.249-5.227-16.749
					c-0.985-2.747-2.037-5.469-3.233-8.106c-0.606-1.312-1.226-2.622-1.938-3.856c-0.694-1.242-1.465-2.452-2.363-3.429
					c-0.216-0.267-0.451-0.476-0.691-0.666c-0.119-0.096-0.232-0.213-0.354-0.294l-0.456-0.309
					c-0.616-0.412-1.179-0.764-1.813-1.129c-1.238-0.725-2.518-1.396-3.823-2.012c-2.605-1.245-5.306-2.306-8.064-3.169
					c-5.511-1.73-11.273-2.721-17.022-2.613c-2.871,0.054-5.733,0.388-8.521,1.035c-2.79,0.638-5.498,1.617-8.047,2.908
					c-2.553,1.286-4.947,2.875-7.164,4.689c-2.193,1.847-4.174,3.937-6.011,6.151l-0.128-1.386l3.985,3.586l1.988,1.798l1.91,1.878
					c1.27,1.257,2.558,2.495,3.811,3.767l3.668,3.902c1.241,1.284,2.403,2.639,3.579,3.981c1.163,1.353,2.378,2.662,3.498,4.051
					l3.396,4.136c1.129,1.381,2.194,2.812,3.295,4.215c1.105,1.4,2.173,2.829,3.219,4.272c1.047,1.443,2.133,2.859,3.139,4.332
					l3.056,4.39l2.97,4.448l2.883,4.505c0.931,1.521,1.883,3.029,2.794,4.562c1.837,3.062,3.609,6.142,5.298,9.322l0.382,0.718
					l-0.643,0.519l-17.909,14.456l-2.788,2.251l1.22-3.368c0.524-1.449,1.065-2.889,1.616-4.324l0.819-2.156
					c0.273-0.719,0.575-1.429,0.862-2.144l0.87-2.142c0.301-0.712,0.556-1.431,0.895-2.138l2.004-4.243l1.389,1.343
					c-0.494,0.344-0.997,0.665-1.486,1.022l-1.436,1.16c-0.927,0.831-1.849,1.668-2.73,2.566c-0.452,0.434-0.883,0.894-1.316,1.35
					c-0.432,0.458-0.873,0.906-1.292,1.38c-0.852,0.93-1.69,1.875-2.514,2.836c-3.294,3.836-6.44,7.838-9.43,11.914l-3.51,4.786
					l1.743-5.665l4-13l1.678,0.986l-0.001,0.001c-2.963,3.014-5.841,6.164-8.647,9.353c-1.408,1.593-2.779,3.219-4.146,4.848
					c-1.353,1.641-2.697,3.29-3.998,4.972c-0.665,0.831-1.303,1.682-1.937,2.536c-0.628,0.857-1.291,1.692-1.892,2.569l-1.837,2.609
					l-1.754,2.666c-0.598,0.881-1.134,1.8-1.676,2.715c-0.54,0.917-1.109,1.819-1.582,2.772c-0.483,0.947-1.018,1.873-1.46,2.841
					l-1.292,2.925l1.178-2.976c0.406-0.988,0.904-1.934,1.352-2.904c0.438-0.977,0.973-1.902,1.479-2.843
					c0.509-0.94,1.012-1.885,1.576-2.792l1.656-2.747l1.742-2.693c0.57-0.906,1.202-1.768,1.8-2.654
					c0.603-0.883,1.211-1.763,1.846-2.624c1.241-1.742,2.527-3.451,3.821-5.153c1.311-1.69,2.625-3.379,3.978-5.036
					c2.701-3.322,5.454-6.583,8.35-9.77l0.002-0.001l2.931-3.087l-1.253,4.073l-4,13l-1.767-0.879
					c3.036-4.14,6.192-8.153,9.535-12.048c0.834-0.974,1.687-1.934,2.555-2.882c0.426-0.481,0.878-0.941,1.319-1.409
					c0.444-0.467,0.884-0.937,1.352-1.385c0.904-0.921,1.866-1.797,2.837-2.666l1.536-1.241c0.537-0.394,1.108-0.761,1.662-1.141
					l2.984-2.043l-1.596,3.387l-1.92,4.076c-0.326,0.675-0.585,1.403-0.881,2.103l-0.86,2.118c-0.283,0.708-0.582,1.409-0.854,2.123
					l-0.814,2.143c-0.547,1.427-1.085,2.856-1.604,4.291l-1.569-1.117l17.909-14.456l-0.261,1.236
					c-1.645-3.097-3.417-6.18-5.235-9.21c-0.904-1.521-1.851-3.018-2.773-4.528l-2.862-4.474l-2.95-4.417l-3.034-4.359
					c-0.998-1.462-2.076-2.867-3.115-4.3c-1.039-1.434-2.098-2.852-3.194-4.241c-1.092-1.392-2.15-2.812-3.27-4.182l-3.369-4.102
					c-1.11-1.378-2.315-2.674-3.468-4.016c-1.165-1.331-2.317-2.674-3.547-3.945l-3.632-3.865c-1.24-1.258-2.515-2.483-3.771-3.727
					l-1.89-1.858l-1.965-1.776l-3.938-3.544l-0.732-0.658l0.604-0.728c1.913-2.308,3.984-4.494,6.289-6.434
					c2.329-1.908,4.854-3.583,7.549-4.94c2.69-1.362,5.55-2.396,8.487-3.067c2.935-0.682,5.938-1.031,8.938-1.088
					c6.008-0.111,11.975,0.92,17.662,2.706c2.848,0.892,5.629,1.983,8.324,3.271c1.35,0.638,2.676,1.332,3.972,2.091
					c0.639,0.366,1.321,0.795,1.926,1.2l0.456,0.309c0.183,0.123,0.331,0.267,0.498,0.401l0.483,0.413
					c0.148,0.143,0.273,0.296,0.41,0.444c1.088,1.19,1.896,2.486,2.636,3.801c0.755,1.312,1.393,2.661,2.018,4.014
					c1.231,2.713,2.297,5.477,3.296,8.259c1.984,5.568,3.699,11.211,5.271,16.89c1.56,5.685,3.011,11.388,4.219,17.178
					c0.15,0.725,0.292,1.452,0.423,2.19c0.067,0.366,0.129,0.74,0.183,1.123l0.042,0.304l0.031,0.412
					c0.006,0.124,0.017,0.306,0.009,0.379l-0.007,0.138l-0.004,0.069c-0.081,0.36-0.016,0.089-0.032,0.165l0.008-0.02
					c0.011-0.136,0.007,0.046,0.032,0.146c0.028,0.132,0.062,0.278,0.112,0.434c0.091,0.308,0.211,0.634,0.339,0.958
					c0.258,0.651,0.552,1.308,0.857,1.96c1.235,2.609,2.634,5.194,4.062,7.727l-1.763,0.049l2.5-5l1.046-2.091l0.781,2.177
					l0.967,2.695c0.312,0.901,0.67,1.788,0.926,2.708l0.831,2.74c0.296,0.908,0.503,1.84,0.741,2.765
					c0.227,0.927,0.481,1.847,0.683,2.78l0.572,2.806c0.208,0.932,0.339,1.878,0.492,2.82c0.138,0.944,0.326,1.881,0.419,2.833
					l0.333,2.844l0.228,2.855c0.091,0.951,0.094,1.907,0.145,2.86c0.053,0.954,0.049,1.91,0.056,2.865
					c0.019,0.956-0.013,1.911-0.038,2.867c-0.012,0.956-0.089,1.911-0.137,2.867c-0.077,0.955-0.141,1.91-0.259,2.865
					c-0.104,0.961-0.232,1.895-0.41,2.888l-1.422-1.093l5.5-2.703l1.418-0.697l0.022,1.544l0.041,2.96
					c0.043,0.989-0.056,1.968-0.092,2.951c-0.05,0.982-0.085,1.966-0.209,2.939l-0.312,2.927l-0.44,2.904
					c-0.13,0.972-0.338,1.927-0.517,2.888c-0.341,1.928-0.808,3.824-1.235,5.73l-0.732,2.835c-0.232,0.949-0.524,1.879-0.784,2.819
					c-0.527,1.878-1.118,3.737-1.725,5.59c-0.607,1.853-1.248,3.694-1.927,5.522c-0.674,1.834-1.378,3.64-2.149,5.46L431,197.105
					l11.996-11.479l0.004-0.004l1.499-1.451l0.188,2.09c0.287,3.179,0.207,6.359-0.041,9.519l-0.235,2.366
					c-0.083,0.788-0.235,1.566-0.35,2.35c-0.136,0.78-0.222,1.571-0.397,2.343l-0.512,2.32c-0.697,3.09-1.658,6.116-2.786,9.072
					c-0.499,1.505-1.209,2.923-1.835,4.376c-0.332,0.717-0.617,1.458-0.988,2.156l-1.109,2.096l-1.109,2.096
					c-0.366,0.701-0.82,1.35-1.227,2.027c-0.854,1.328-1.628,2.712-2.549,3.994l-2.794,3.823c-0.928,1.277-2.012,2.43-3.01,3.649
					l-1.528,1.805c-0.502,0.608-1.085,1.142-1.623,1.716l-3.295,3.387c-1.122,1.105-2.338,2.125-3.502,3.191l-1.765,1.581
					l-0.884,0.786l-0.92,0.722l-3.68,2.887l-1.87,1.457l-1.933,1.342l-3.874,2.668c-1.282,0.903-2.657,1.668-3.981,2.508
					c-1.347,0.804-2.646,1.685-4.03,2.424l-4.131,2.254c-1.358,0.785-2.808,1.4-4.213,2.095c-1.417,0.672-2.814,1.384-4.28,1.95
					c-1.457,0.583-2.896,1.207-4.365,1.755l-4.443,1.543c-1.498,0.462-3.011,0.878-4.514,1.318c-1.514,0.406-3.05,0.729-4.571,1.096
					c-1.537,0.299-3.079,0.579-4.627,0.81c-1.555,0.189-3.103,0.416-4.666,0.51c-1.557,0.144-3.121,0.189-4.682,0.214
					C346.805,278.513,345.25,278.378,343.692,278.453z"/>
			</g>
			<g>
				<path fill="#C7EEFF" d="M338.711,165.739c0,0,1.289-2.254,3.43-5.472c1.053-1.621,2.293-3.497,3.666-5.472
					c0.693-0.983,1.386-2.016,2.132-3.033c0.745-1.021,1.503-2.058,2.261-3.095c0.78-1.022,1.562-2.045,2.33-3.051
					c0.76-1.013,1.554-1.974,2.298-2.923c1.479-1.9,2.976-3.601,4.287-5.027c2.597-2.876,4.452-4.665,4.452-4.665
					s-1.348,2.23-3.555,5.381c-0.549,0.791-1.146,1.645-1.796,2.53c-0.632,0.905-1.297,1.859-1.986,2.846
					c-0.701,0.978-1.399,2.008-2.157,3.019c-0.748,1.017-1.509,2.05-2.27,3.084c-0.777,1.023-1.554,2.047-2.318,3.056
					c-0.756,1.017-1.542,1.987-2.279,2.942c-1.492,1.897-2.907,3.65-4.164,5.114C340.527,163.897,338.711,165.739,338.711,165.739z"
					/>
			</g>
			<g>
				<path fill="#C7EEFF" d="M360.442,145.703c0,0,0.992-1.595,2.655-3.82c0.821-1.122,1.819-2.396,2.901-3.748
					c0.55-0.668,1.097-1.377,1.691-2.062c0.584-0.695,1.177-1.401,1.77-2.107c0.608-0.692,1.218-1.384,1.817-2.065
					c0.58-0.695,1.197-1.342,1.77-1.988c0.567-0.65,1.161-1.245,1.689-1.832c0.523-0.591,1.038-1.135,1.517-1.636
					c0.464-0.511,0.938-0.949,1.305-1.368c0.368-0.419,0.708-0.776,0.985-1.073c0.56-0.591,0.899-0.925,0.899-0.925
					s-0.194,0.42-0.57,1.148c-0.189,0.362-0.417,0.807-0.7,1.306c-0.271,0.509-0.631,1.033-1.014,1.618
					c-0.76,1.173-1.686,2.52-2.757,3.887c-0.537,0.684-1.067,1.411-1.651,2.112c-0.585,0.699-1.18,1.409-1.774,2.119
					c-0.613,0.694-1.226,1.388-1.829,2.071c-0.604,0.682-1.236,1.32-1.827,1.955c-1.193,1.261-2.353,2.396-3.368,3.349
					C361.929,144.558,360.442,145.703,360.442,145.703z"/>
			</g>
			<g>
				<path fill="#10659E" d="M392.98,120.712c0,0,0.249-0.169,0.684-0.467c0.446-0.308,1.086-0.699,1.851-1.168
					c0.381-0.239,0.812-0.464,1.256-0.721c0.45-0.247,0.909-0.531,1.413-0.775c1-0.5,2.042-1.07,3.139-1.533
					c0.541-0.243,1.082-0.485,1.615-0.724c0.531-0.239,1.078-0.423,1.594-0.629c1.04-0.389,1.99-0.792,2.848-1.031
					c1.688-0.527,2.813-0.878,2.813-0.878s-1.08,0.468-2.699,1.169c-0.818,0.324-1.721,0.825-2.701,1.316
					c-0.486,0.256-1.001,0.493-1.499,0.784c-0.497,0.29-1.002,0.584-1.508,0.878c-1.021,0.565-1.981,1.233-2.9,1.821
					c-0.463,0.288-0.881,0.613-1.29,0.897c-0.403,0.293-0.797,0.555-1.138,0.824c-0.688,0.531-1.262,0.971-1.632,1.291
					c-0.377,0.308-0.603,0.513-0.603,0.513L392.98,120.712z"/>
			</g>
			<g>
				
					<linearGradient id="SVGID_17_" gradientUnits="userSpaceOnUse" x1="465.1694" y1="55.2339" x2="465.1694" y2="69.1665" gradientTransform="matrix(-1 0 0 1 819.1943 0)">
					<stop  offset="0" style="stop-color:#8FC4F7"/>
					<stop  offset="1" style="stop-color:#B5A3F5"/>
				</linearGradient>
				<path fill="url(#SVGID_17_)" d="M350.192,63.12c0,0,1.333-4,7.666-7.333"/>
				<path fill="#10659E" d="M349.256,62.768c0,0,0.06-0.135,0.249-0.463c0.175-0.337,0.444-0.683,0.77-1.134
					c0.361-0.408,0.743-0.913,1.245-1.353c0.243-0.227,0.486-0.468,0.744-0.697c0.273-0.21,0.552-0.424,0.829-0.637
					c0.283-0.203,0.536-0.443,0.838-0.608c0.29-0.177,0.575-0.352,0.852-0.521c0.274-0.167,0.54-0.329,0.791-0.482
					c0.266-0.127,0.518-0.247,0.749-0.357c0.921-0.437,1.535-0.728,1.535-0.728s-0.548,0.397-1.37,0.993
					c-0.203,0.148-0.424,0.308-0.656,0.478c-0.215,0.193-0.44,0.396-0.674,0.607c-0.232,0.208-0.472,0.424-0.715,0.643
					c-0.253,0.205-0.45,0.48-0.678,0.717c-0.219,0.244-0.438,0.488-0.653,0.728c-0.189,0.258-0.375,0.512-0.556,0.758
					c-0.378,0.476-0.622,0.981-0.868,1.383c-0.193,0.417-0.381,0.784-0.436,0.993c-0.038,0.116-0.068,0.181-0.091,0.269
					c-0.022,0.076-0.034,0.117-0.034,0.117L349.256,62.768z"/>
			</g>
			<g>
				<path fill="#10659E" d="M390.972,117.849c0,0,0.524-0.92,1.392-2.291c0.435-0.68,0.906-1.498,1.474-2.324
					c0.557-0.833,1.15-1.723,1.743-2.613c1.157-1.794,2.474-3.484,3.388-4.793c0.934-1.295,1.557-2.159,1.557-2.159
					s-0.518,0.931-1.294,2.328c-0.755,1.408-1.855,3.226-2.791,5.136c-0.481,0.946-0.963,1.891-1.414,2.777
					c-0.463,0.88-0.826,1.728-1.172,2.439c-0.681,1.418-1.099,2.406-1.099,2.406L390.972,117.849z"/>
			</g>
			<g>
				<path fill="#10659E" d="M422.049,105.655c0,0-4.954-6.311-9.907-12.622c-2.492-3.143-5.001-6.273-6.917-8.592
					c-0.959-1.158-1.768-2.116-2.354-2.767c-0.302-0.316-0.516-0.594-0.701-0.734c-0.178-0.155-0.272-0.238-0.272-0.238
					s0.1,0.076,0.285,0.22c0.201,0.132,0.427,0.393,0.75,0.692c0.629,0.615,1.497,1.522,2.527,2.62
					c2.06,2.198,4.761,5.168,7.446,8.153c5.342,5.996,10.683,11.991,10.683,11.991L422.049,105.655z"/>
			</g>
			<path opacity="0.3" fill="#10659E" d="M343.955,53.191c2.039-2.24,4.266-4.273,6.754-6.005c2.669-1.859,5.553-3.328,8.575-4.419
				l0,0c0.004-0.001,0.006-0.002,0.009-0.003c1.294-0.467,2.612-0.867,3.955-1.189c0.114-0.028,0.231-0.048,0.347-0.075
				c0.559-0.128,1.117-0.254,1.684-0.357c0.701-0.129,1.406-0.24,2.117-0.329c0.596-0.074,1.191-0.127,1.789-0.172
				c5.641-0.458,11.348,0.204,16.814,1.634c5.796,1.516,11.662,3.804,16.645,7.176c1.602,1.083,2.693,2.698,3.643,4.356
				c1.277,2.228,2.338,4.573,3.312,6.946c2.006,4.88,3.663,9.906,5.197,14.951c1.553,5.104,2.957,10.254,4.244,15.432
				c0.627,2.522,1.219,5.054,1.765,7.596c0.226,1.049,0.439,2.102,0.629,3.159c-8.76-10.693-38.876-40.188-56.241-40.188
				c-7.334,0,19.166,37.583,25.082,47.25c0,0,2.176-1.963,9.367-3.936c-6.551,10.897-4.616,12.125-4.616,12.125
				s5.167-2.188,13.421-3.74c-4.727,1.369-11.646,5.881-14.023,7.516c-0.641-1.203-1.292-2.399-1.96-3.586
				c-1.562-2.776-3.187-5.517-4.861-8.226c-1.353-2.188-2.702-4.385-4.132-6.524c-3.451-5.169-6.969-10.283-10.705-15.254
				c-8.338-11.092-17.568-21.563-27.89-30.849c-0.55-0.495-1.1-0.99-1.649-1.484c-0.148-0.133-0.297-0.267-0.445-0.4
				C342.703,54.524,343.818,53.342,343.955,53.191z"/>
			<g>
				<path fill="#C7EEFF" d="M374.026,138.62c0,0,2.03-1.851,5.203-4.44c1.581-1.302,3.444-2.793,5.455-4.368
					c1.005-0.786,2.044-1.598,3.1-2.422c1.052-0.822,2.147-1.639,3.185-2.494c1.061-0.826,2.109-1.68,3.146-2.542
					c1.015-0.866,2.067-1.68,3.085-2.478c0.521-0.385,1.035-0.763,1.537-1.134c0.51-0.359,1.029-0.684,1.523-1.014
					c0.98-0.673,1.976-1.197,2.865-1.721c0.907-0.494,1.755-0.915,2.503-1.289c0.745-0.379,1.424-0.653,1.971-0.9
					c1.102-0.48,1.737-0.735,1.737-0.735s-0.556,0.408-1.54,1.088c-0.492,0.337-1.09,0.748-1.775,1.217
					c-0.677,0.477-1.44,1.015-2.273,1.602c-0.802,0.626-1.711,1.242-2.613,1.968c-0.916,0.706-1.847,1.496-2.818,2.298
					c-1.915,1.658-3.93,3.495-6.107,5.202c-1.082,0.861-2.188,1.656-3.266,2.47c-1.081,0.803-2.178,1.545-3.221,2.29
					c-1.042,0.745-2.083,1.417-3.055,2.075c-0.971,0.661-1.912,1.251-2.774,1.805C376.438,137.306,374.026,138.62,374.026,138.62z"
					/>
			</g>
		</g>
		<g opacity="0.7">
			
				<ellipse transform="matrix(0.9473 0.3204 -0.3204 0.9473 97.1105 -33.3563)" fill="#8432CC" cx="149.929" cy="278.453" rx="10.141" ry="8.265"/>
			
				<ellipse transform="matrix(0.802 0.5974 -0.5974 0.802 179.5481 -20.8988)" fill="#8432CC" cx="121.295" cy="260.358" rx="7.49" ry="6.104"/>
			
				<ellipse transform="matrix(-0.802 0.5974 -0.5974 -0.802 748.2914 343.8463)" fill="#8432CC" cx="317.15" cy="295.958" rx="7.49" ry="6.104"/>
			
				<ellipse transform="matrix(0.8188 -0.574 0.574 0.8188 -110.9756 222.4292)" fill="#8432CC" cx="296.904" cy="287.032" rx="10.142" ry="8.265"/>
			
				<ellipse transform="matrix(0.9473 0.3204 -0.3204 0.9473 101.5626 -43.4594)" fill="#8432CC" cx="182.86" cy="286.932" rx="5.071" ry="4.132"/>
			
				<ellipse transform="matrix(-0.9473 0.3204 -0.3204 -0.9473 703.5492 420.9358)" fill="#8432CC" cx="317.15" cy="268.339" rx="5.071" ry="4.132"/>
			
				<ellipse transform="matrix(0.9473 0.3204 -0.3204 0.9473 110.7712 -45.9239)" fill="#8432CC" cx="194.954" cy="313.686" rx="5.071" ry="4.132"/>
			
				<ellipse transform="matrix(0.8931 -0.4499 0.4499 0.8931 -99.3114 147.4744)" fill="#8432CC" cx="260.638" cy="282.693" rx="5.071" ry="4.131"/>
			
				<ellipse transform="matrix(0.9473 0.3203 -0.3203 0.9473 105.5098 -37.9341)" fill="#8432CC" cx="168.058" cy="301.736" rx="2.535" ry="2.066"/>
			
				<ellipse transform="matrix(0.9473 0.3203 -0.3203 0.9473 100.0902 -25.753)" fill="#8432CC" cx="128.323" cy="291.353" rx="2.535" ry="2.066"/>
			
				<ellipse transform="matrix(-0.9473 0.3203 -0.3203 -0.9473 639.4233 498.288)" fill="#8432CC" cx="278.728" cy="301.736" rx="2.535" ry="2.066"/>
			
				<ellipse transform="matrix(-0.9473 0.3203 -0.3203 -0.9473 608.8935 541.646)" fill="#8432CC" cx="259.897" cy="320.904" rx="2.535" ry="2.066"/>
		</g>
	</g>
</g>
</svg>
