<?xml version="1.0" encoding="utf-8"?>
<!-- Generator: Adobe Illustrator 18.0.0, SVG Export Plug-In . SVG Version: 6.00 Build 0)  -->
<!DOCTYPE svg PUBLIC "-//W3C//DTD SVG 1.1//EN" "http://www.w3.org/Graphics/SVG/1.1/DTD/svg11.dtd">
<svg version="1.1" id="Layer_1" xmlns="http://www.w3.org/2000/svg" xmlns:xlink="http://www.w3.org/1999/xlink" 
	 viewBox="0 0 200 200" enable-background="new 0 0 200 200" xml:space="preserve">
<g id="Layer_1_1_" display="none">
	
		<image display="inline" overflow="visible" enable-background="new    " width="500" height="500" xlink:href="87777392BD4773FE.jpeg"  transform="matrix(0.5044 0 0 0.5044 -25.937 -18.7796)">
	</image>
</g>
<g>
	<ellipse opacity="0.1" enable-background="new    " cx="99.4" cy="92.6" rx="91.2" ry="91.2"/>
	<g>
		<g>
			<g>
				
					<linearGradient id="SVGID_1_" gradientUnits="userSpaceOnUse" x1="100.3714" y1="189.5958" x2="100.3714" y2="-6.8232" gradientTransform="matrix(1 0 0 -1 0 200)">
					<stop  offset="0" style="stop-color:#8FC4F7"/>
					<stop  offset="1" style="stop-color:#B5A3F5"/>
				</linearGradient>
				<path fill="url(#SVGID_1_)" stroke="#10659E" stroke-width="2" stroke-miterlimit="10" d="M173.3,126.4
					c5.5-10.8,8.8-22.9,8.8-35.6c0-46.6-36.6-84.4-81.7-84.4S18.6,44.3,18.6,90.9c0,10,2,19.5,5.6,28.4c-0.4-0.1-0.7-0.1-1.1-0.1
					c0.7,2.8,2.6,5.5,4.9,8.2c1.7,3.2,3.5,6.2,5.6,9.2c-0.9-0.1-2-0.1-2.9-0.2c1.8,5.3,9.6,10.1,13.8,13.3c-2-0.4-4-0.4-6-1.2
					c4.3,3.9,10,7.8,15.8,9.7c0.3,0.2,0.5,0.4,0.8,0.6c-1.5,0.3-3.1,0.7-4.8,0.5c5.1,2.2,10.6,4.5,15.7,6.5
					c4.6,2.5,13.9,6.1,13.9,6.1s13.7,16.2,17.5,20.6l-1.4-5c0,0,2.3,1.9,3.9,2.7c-0.4-2.7-1.8-5.5-1.8-5.5s5.9-8.5,14-10.5l0,0
					c4.3-0.8,8.7-2.1,12.9-3.7c8.9-2.3,18.6-6.3,25.6-11.8c-1.3,0.2-2.8-0.1-4.1,0.1c6.2-5.8,13.7-9.3,18.9-16.4
					c-0.8,0.3-1.9,0.4-2.8,0.5c0.1-0.2,0.3-0.3,0.4-0.5c5.5-3.2,12.9-10.8,15.8-15.8C176.9,126.6,175,126.6,173.3,126.4z"/>
				<g>
					<path fill="#10659E" d="M79.3,171.1c0,0,0.3,0.1,0.7,0.3c0.5,0.2,1.1,0.4,1.9,0.6c0.4,0.1,0.8,0.2,1.3,0.4
						c0.5,0.1,0.9,0.3,1.5,0.4c0.5,0.1,1,0.3,1.6,0.4c0.5,0.1,1.1,0.2,1.6,0.4c0.5,0.1,1.1,0.2,1.6,0.4c0.5,0.1,1.1,0.2,1.6,0.3
						c0.5,0.1,1,0.2,1.5,0.3c0.5,0.1,0.9,0.1,1.3,0.2c1.7,0.2,2.8,0.4,2.8,0.4s-1.1-0.1-2.8-0.3c-0.4,0-0.9-0.1-1.4-0.2
						c-0.5-0.1-1-0.1-1.5-0.2c-0.5-0.1-1.1-0.1-1.6-0.2c-0.5-0.1-1.1-0.2-1.7-0.3c-0.6-0.1-1.1-0.2-1.7-0.3
						c-0.5-0.1-1.1-0.2-1.6-0.3c-0.5-0.1-1-0.2-1.5-0.3c-0.5-0.1-0.9-0.2-1.3-0.3c-0.8-0.2-1.5-0.4-2-0.5c-0.5-0.1-0.7-0.2-0.7-0.2
						L79.3,171.1z"/>
				</g>
			</g>
			
				<linearGradient id="SVGID_2_" gradientUnits="userSpaceOnUse" x1="99.7012" y1="169.446" x2="99.7012" y2="214.5396" gradientTransform="matrix(1 0 0 -1 0 200)">
				<stop  offset="0" style="stop-color:#93C8F7"/>
				<stop  offset="1" style="stop-color:#C3BCF4"/>
			</linearGradient>
			<path fill="url(#SVGID_2_)" d="M100.4,7.2c-27.3,0-51.4,13.9-66.2,35.2c2,7.8,6.9,16.1,18.5,16.5c22.2,0.8,30.9-19.7,48.8-19.5
				c17.9,0.2,38.2,21.6,50.7,16.5c4.6-1.8,9.6-8,13-15.4C150.4,20.3,126.8,7.2,100.4,7.2z"/>
			<g>
				<g>
					<path fill="#10659E" d="M104.6,127.7c0-0.1,0-0.1,0-0.2c0-0.1-0.1-0.1-0.2-0.1c-0.1,0-0.2,0.1-0.3,0.1
						c-0.2,0.1-0.4,0.2-0.6,0.4c-0.4,0.3-0.8,0.6-1.2,0.9c-0.8,0.6-1.5,1.3-2.3,1.9l-2.3,1.9c-0.8,0.6-1.5,1.3-2.4,1.9l-0.1-0.6
						l1.2,0.1l1.2,0l1.2,0l1.2-0.1l1.2-0.2l1.2-0.3l1.2-0.3l1.2-0.4l1.8-0.6l-1.4,1.3l-0.9,0.8l-0.8,0.8L103,136l-0.8,0.8l-0.7,0.9
						l-0.6,0.9l-0.6,1l-0.5,1l-0.5-0.6l0.8-0.2l0.8-0.1c0.3,0,0.5,0,0.8,0c0.3,0,0.5,0,0.8,0c0.5,0,1.1,0,1.6,0.1l0.8,0
						c0.1,0,0.3,0,0.4,0l0.4,0l0.7,0l-0.4,0.6l-1.1,1.6l-1.1,1.6l-2.3,3.1l-1.2,1.6l-1.1,1.6c-0.4,0.5-0.7,1.1-1.1,1.6l-1,1.7
						l0.4-0.9c0.1-0.3,0.3-0.6,0.4-0.9c0.3-0.6,0.6-1.1,1-1.7l1-1.7l1.1-1.6l2.2-3.2l1.1-1.6l1-1.6l0.3,0.6l-0.4,0
						c-0.1,0-0.3,0-0.4,0l-0.8,0c-0.5,0-1,0-1.6,0c-0.3,0-0.5,0-0.8,0c-0.3,0-0.5,0-0.8,0.1l-0.7,0.1l-0.7,0.2l-0.9,0.2l0.4-0.8
						l0.5-1.1c0.2-0.3,0.4-0.7,0.6-1c0.2-0.3,0.4-0.6,0.7-1l0.7-0.9l0.8-0.9l0.8-0.8l0.9-0.8l0.9-0.8l0.4,0.7l-1.2,0.4l-1.3,0.3
						l-1.3,0.2l-1.3,0.2l-1.3,0.1c-0.4,0-0.9,0-1.3,0l-1.3-0.1l-1.3-0.2l-0.8-0.1l0.7-0.5c0.8-0.5,1.6-1.2,2.4-1.8l2.4-1.8
						c0.8-0.6,1.6-1.2,2.4-1.8c0.4-0.3,0.8-0.6,1.3-0.8c0.2-0.1,0.4-0.2,0.7-0.3c0.1,0,0.2-0.1,0.4-0.1c0.1,0,0.1,0,0.2,0.1
						C104.6,127.5,104.6,127.6,104.6,127.7z"/>
				</g>
				<g>
					<path fill="#10659E" d="M100.7,154.5c0.1-0.1,0.3-0.2,0.5-0.2c0.1,0,0.2,0,0.3,0c0.1,0,0.2,0.2,0.2,0.3c0,0.2,0,0.4-0.1,0.5
						c0,0.2-0.1,0.3-0.2,0.5c-0.3,0.6-0.6,1.2-0.9,1.7c-0.3,0.6-0.7,1.1-1.1,1.6c-0.4,0.5-0.7,1.1-1.1,1.6l-0.6-0.5l0.4-0.3l0.2-0.2
						c0.1-0.1,0.1-0.1,0.2-0.2l0.9-0.6l0.9-0.5l0.8-0.6l1-0.7l-0.3,1.2c-0.2,0.8-0.4,1.5-0.6,2.3c-0.2,0.8-0.4,1.5-0.5,2.3
						c-0.1,0.4-0.1,0.8-0.2,1.2l-0.1,0.6c0,0.2-0.1,0.4-0.1,0.6c-0.1,0.8-0.2,1.6-0.3,2.4c0-0.8-0.1-1.6-0.1-2.4c0-0.2,0-0.4,0-0.6
						l0-0.6c0-0.4,0.1-0.8,0.1-1.2c0.1-0.8,0.3-1.6,0.4-2.4c0.2-0.8,0.4-1.6,0.6-2.4l0.7,0.4l-0.9,0.7l-0.9,0.5l-0.9,0.5
						c-0.1,0-0.1,0.1-0.2,0.1l-0.2,0.1l-0.4,0.3l-2.3,1.6l1.7-2.1l1.2-1.5c0.4-0.5,0.8-1,1.2-1.5c0.4-0.5,0.8-1,1.1-1.6
						c0.1-0.1,0.2-0.3,0.2-0.4c0.1-0.1,0.1-0.3,0.1-0.4c0-0.1-0.1-0.2-0.3-0.2C101,154.4,100.8,154.5,100.7,154.5z"/>
				</g>
			</g>
			<g>
				<path fill="#10659E" d="M92.5,20.8l-3.1-0.4L86.2,20l-3.2-0.3l-3.2-0.2l-3.2-0.1c-0.5,0-1.1,0-1.6,0l-1.6,0
					c-0.5,0-1,0.1-1.6,0.1l-1.6,0.1c-0.5,0.1-1,0.2-1.6,0.2l-1.6,0.2l0-0.9l0,0l1.2,0.2l1.2,0.3l1.1,0.3c0.2,0.1,0.4,0.1,0.6,0.1
					l0.5,0.1l1.2,0.3L72,21.2c-0.8,0.4-1.7,0.8-2.5,1.2l-2.6,1l-2.6,0.9l-2.7,0.8L58.9,26l-2.6,0.9l-2.6,1L51.2,29l-0.3-0.8l0.9-0.1
					l0.9,0c0.6,0,1.1,0,1.7,0l1.7,0l0.8,0l0.8,0l1.6-0.1l-1.3,0.9c-1.3,0.9-2.6,1.8-3.9,2.7l-0.9,0.7l-0.9,0.7l-0.9,0.8l-0.9,0.8
					l-0.8,0.9c-0.3,0.3-0.5,0.6-0.8,0.9c-0.2,0.3-0.5,0.6-0.7,1c-0.2,0.3-0.4,0.7-0.6,1c-0.2,0.4-0.4,0.7-0.5,1.1
					c-0.1,0.4-0.3,0.7-0.4,1.1c-0.1,0.4-0.2,0.8-0.3,1.1l-0.1,0.6l-0.1,0.3c0,0.1,0,0.2,0.4,0.4l-0.9-0.1c0.4,0,0.5-0.1,0.5-0.2
					l0.1-0.3l0.1-0.6c0.1-0.4,0.2-0.8,0.3-1.1c0.1-0.4,0.3-0.7,0.4-1.1c0.2-0.4,0.3-0.7,0.5-1.1c0.2-0.3,0.4-0.7,0.6-1
					c0.2-0.3,0.4-0.7,0.7-1c0.2-0.3,0.5-0.6,0.7-0.9l0.8-0.9l0.8-0.9l0.9-0.8l0.9-0.8l0.9-0.8c0.6-0.5,1.2-1,1.8-1.5
					c0.6-0.5,1.2-1,1.8-1.5l0.3,0.8l-0.9,0l-0.9,0l-1.7,0c-0.6,0-1.1,0-1.6,0l-0.8,0L51.1,29l-2.9,0.4l2.6-1.2l2.6-1.2l2.6-1
					l2.7-0.9l2.7-0.8l2.6-0.8l2.6-0.9l2.6-1l2.5-1.2l0.1,0.8l-0.6-0.1c-0.2,0-0.4-0.1-0.6-0.1l-1.1-0.3l-1.1-0.3l-1.1-0.2l0,0
					l-2.7-0.5l2.7-0.3l1.6-0.2c0.5-0.1,1.1-0.1,1.6-0.2l1.6-0.1c0.5,0,1.1-0.1,1.6-0.1l1.6,0c0.5,0,1.1,0,1.6,0l3.2,0.2l3.2,0.3
					l3.2,0.4l3.1,0.5L92.5,20.8z"/>
			</g>
			
				<linearGradient id="SVGID_3_" gradientUnits="userSpaceOnUse" x1="107.989" y1="198.8637" x2="107.989" y2="157.1113" gradientTransform="matrix(1 0 0 -1 0 200)">
				<stop  offset="0" style="stop-color:#BFE4F7"/>
				<stop  offset="1" style="stop-color:#BFE4F7;stop-opacity:0"/>
			</linearGradient>
			<path opacity="0.6" fill="url(#SVGID_3_)" enable-background="new    " d="M98.6,30.8c-3.9-2.6-8.1-7.3-13-6.9
				c1.2,0.5,2.6,1.5,3.7,2.1c-3.6-0.1-7.6-1.1-10.8,0.5c0.3,0.2,1.1,0.4,1.4,0.7c-5.7,0.8-13.8,1.7-18.4,5.2
				c0.8,0.2,2.4,1.3,3.5,1.5c-4,2.9-13.8,10-6.8,14.5c6.9,4.4,26.3-7.6,33.1-9.4c13-3.4,28.5-3.6,40.8,2.6c3.9,2,7,6.2,11.2,7.4
				c8,2.5,13.7-4.2,17.3-10.5c-0.7,1.2-1.6,1.8-2.4,2.7c-1-3.9-3.1-7.4-5.8-10.3c-0.1,0.6,0.1,1.3,0,1.9c-3-2.7-4.5-8.5-8.8-8.8
				c1,8.9-13,0.1-18.8-0.5c1,0.8,1.9,2.1,2.8,2.8c-3.5-1-7.2-1.9-10.9-1.9c-0.2,2.9-0.5,1.8-2.7,2.7c-0.7,0.3-4.6,1.5-5.2,1.7
				c-2.7,0.8-5.5,1.9-8.3,2.5L98.6,30.8z"/>
			<g>
				<path fill="#10659E" d="M107.7,23.8l0.5-0.8l0.5-0.7c0.2-0.2,0.4-0.5,0.6-0.7c0.2-0.2,0.4-0.4,0.6-0.7c0.4-0.4,0.9-0.8,1.3-1.2
					c0.5-0.4,0.9-0.8,1.4-1.1l0.7-0.5l0.8-0.5c0.5-0.3,1-0.6,1.6-0.9c0.5-0.3,1.1-0.6,1.6-0.8c0.5-0.3,1.1-0.5,1.7-0.8l0,0l1.4-0.6
					l-0.9,1.2l-0.3,0.4l-0.2,0.4c-0.1,0.3-0.3,0.6-0.4,0.9l-0.4,0.9c-0.1,0.2-0.2,0.3-0.2,0.5c-0.1,0.2-0.2,0.3-0.3,0.5l-0.5-0.7
					l2.1-0.7l2.2-0.6l2.2-0.5l2.2-0.4l1.3-0.3l-0.9,1l-0.8,0.9l-0.9,0.9l-0.4-0.7h0c0.4,0,0.8-0.1,1.3-0.2c0.4,0,0.8-0.1,1.3-0.1
					c0.4,0,0.8,0,1.3,0c0.4,0,0.8,0,1.3,0c0.4,0,0.8,0,1.3,0.1c0.4,0,0.8,0.1,1.2,0.1l1.2,0.2l1.2,0.2l1.2,0.3l1.2,0.3
					c0.4,0.1,0.8,0.2,1.2,0.4c0.4,0.1,0.8,0.3,1.2,0.4c0.4,0.1,0.8,0.3,1.2,0.5c0.4,0.2,0.8,0.3,1.1,0.5c0.4,0.2,0.7,0.4,1.1,0.6
					c0.4,0.2,0.7,0.4,1.1,0.7c-0.4-0.2-0.7-0.4-1.1-0.6c-0.4-0.2-0.7-0.4-1.1-0.5c-0.4-0.2-0.8-0.3-1.1-0.5
					c-0.4-0.1-0.8-0.3-1.2-0.4c-0.4-0.1-0.8-0.2-1.2-0.3c-0.4-0.1-0.8-0.2-1.2-0.3l-1.2-0.3L134,19l-1.2-0.2l-1.2-0.1
					c-0.4,0-0.8,0-1.2-0.1c-0.4,0-0.8,0-1.2,0c-0.4,0-0.8,0-1.2,0c-0.4,0-0.8,0.1-1.2,0.1c-0.4,0-0.8,0.1-1.2,0.1
					c-0.4,0.1-0.8,0.1-1.2,0.2h0l-1.2,0.2l0.8-0.9l0.8-0.9l0.9-0.9l0.4,0.7l-2.2,0.4l-2.1,0.5l-2.1,0.6l-2.1,0.7l-1.1,0.3l0.6-1
					c0.1-0.1,0.2-0.3,0.2-0.4c0.1-0.1,0.1-0.3,0.2-0.4l0.4-0.9c0.1-0.3,0.3-0.6,0.5-0.9l0.3-0.5l0.3-0.5l0.5,0.7l0,0
					c-0.6,0.2-1.1,0.4-1.7,0.6c-0.5,0.2-1.1,0.5-1.6,0.7c-0.5,0.3-1.1,0.5-1.6,0.8l-0.8,0.4l-0.8,0.5c-0.5,0.3-1,0.7-1.5,1
					c-0.5,0.4-0.9,0.7-1.4,1.1c-0.2,0.2-0.4,0.4-0.6,0.6c-0.2,0.2-0.4,0.4-0.6,0.7l-0.6,0.7L107.7,23.8z"/>
			</g>
			<path opacity="0.3" fill="#10659E" enable-background="new    " d="M94.4,187.9c-8.2-12.8,1.3-12.8,1.3-12.8
				c-5.8-0.5-11.4-2-15.3-3.3c1.5,1.8,9.2,10.8,14,16.5C94.4,188.2,94.4,188,94.4,187.9z"/>
		</g>
		<g>
			<path opacity="0.3" fill="#10659E" enable-background="new    " d="M103.1,45.4c-8.3,0-22.9,6.4-25.7,9.1
				c-2.8,2.6-4.3,4.9-4.3,4.9L72,56.9l-3.4,3.7c0,0-1.6,2.5-2.2,1.9C65.9,62,64,65.2,64,65.2L61.2,63c0,0-1.6,3.1-1.4,5.6
				c0.1,2.5-2.5-1.2-2.5-1.2s-2.1,11-0.9,13.6c1.2,2.6,2,12.2,14.9,19.7c-1.1,1.1-3.6,0-3.6,0s7.2,7.1,9.5,8.7c-2.2,0.4-3,0-3,0
				s7.3,11,27.9,11s28.7-12.3,29.2-13.1c-1.9-0.3-2.3-0.7-2.3-0.7l2.3-2.6c0,0,11.4-0.6,18.7-18.1c1.7-8.5,0-12.5,0-12.5l-1.9,1.7
				c0,0-1-8.2-7.2-11.4c-0.4,0.9-1,2.2-1,2.2s-5.6-6.4-7.5-7c0.4,1.6,0.4,1.6,0.4,1.6S121.3,45.4,103.1,45.4z"/>
			
				<linearGradient id="SVGID_4_" gradientUnits="userSpaceOnUse" x1="103.5322" y1="189.3462" x2="103.5322" y2="-7.0726" gradientTransform="matrix(1 0 0 -1 0 200)">
				<stop  offset="0" style="stop-color:#8FC4F7"/>
				<stop  offset="1" style="stop-color:#B5A3F5"/>
			</linearGradient>
			<path fill="url(#SVGID_4_)" stroke="#10659E" stroke-width="2" stroke-miterlimit="10" d="M72.2,62.6c0,0,11.7-15.2,30.8-15.2
				s28.7,13.7,31.3,18.6c1,1.7,2.9,3.3,2.9,3.3s-1.2-5.1-1.9-6.2c3.6,2.6,5.6,7,6.1,9.8c0.6-1.9,1-6,0.7-6.2s5.6,5.2,4,14.5
				c1.4-0.2,1.9-1.7,1.9-1.7s0.1,4.8-2,8.4c1.3,0.5,3-0.9,3-0.9s-11.4,14.3-18.8,15.1c-2.3,3.8-3.9,5.3-5.6,7s1.1,0.5,1.1,0.5
				s-7.9,7.9-22.6,7.9s-19.7-4-22.3-5.8c0,0,4,0.4,4.4,0.4c0.4,0-6.6-2.9-9.5-6.5c2.8,0.9,3.5,0.9,3.5,0.9s-5.7-6.4-6.6-9.1
				C69.2,97.3,62,94.9,58.5,80c-1.1-5.1,0-9.1,0-9.1l2.2,4.8c0,0-0.5-6.7,1.2-9c0.5,0.6,0.9,2.2,0.9,2.2s1.2-1.6,3.2-1.4
				c-1-1.9,0.5-3.2,0.5-3.2l2.2,0.4c1.1-2.8,1.7-2.8,2.5-3.7C71.1,62.6,72.2,62.6,72.2,62.6z"/>
			<g opacity="0.7">
				<ellipse fill="#8432CC" cx="98.9" cy="111.5" rx="3.8" ry="3.9"/>
				
					<ellipse transform="matrix(0.7208 -0.6932 0.6932 0.7208 -47.6705 85.7957)" fill="#8432CC" cx="82.7" cy="102.1" rx="3.3" ry="3.7"/>
				
					<ellipse transform="matrix(0.7208 -0.6932 0.6932 0.7208 -42.2714 79.8954)" fill="#8432CC" cx="78" cy="92.4" rx="1.3" ry="1.5"/>
				
					<ellipse transform="matrix(0.7208 -0.6931 0.6931 0.7208 -46.5682 80.0759)" fill="#8432CC" cx="76.1" cy="97.8" rx="0.7" ry="0.8"/>
				
					<ellipse transform="matrix(0.7208 -0.6931 0.6931 0.7208 -43.7388 88.5396)" fill="#8432CC" cx="88" cy="98.6" rx="0.7" ry="0.8"/>
				
					<ellipse transform="matrix(0.7208 -0.6932 0.6932 0.7208 -50.8966 92.2273)" fill="#8432CC" cx="89" cy="109.3" rx="1.7" ry="1.6"/>
				
					<ellipse transform="matrix(0.7208 -0.6932 0.6932 0.7208 -47.2393 108.085)" fill="#8432CC" cx="110.5" cy="112.7" rx="1.7" ry="1.6"/>
				
					<ellipse transform="matrix(0.7207 -0.6932 0.6932 0.7207 -45.889 92.0332)" fill="#8432CC" cx="91.3" cy="103" rx="1.7" ry="1.6"/>
			</g>
			<g>
				<path opacity="0.3" fill="#10659E" enable-background="new    " d="M118.7,53.9c-3.1-0.6-5.3-0.6-6.9-0.1c1-1.2,2.1-2.8,2.9-4.2
					c-3.4-1.2-7.2-1.9-11.6-1.9c-4.1,0-7.9,0.7-11.3,1.9c0.7,1.4,1.8,2.9,2.8,4.2c-1.6-0.4-3.8-0.4-6.7,0.2
					c-9.6,2-10.6,9.5-9.6,10.3c4.4,3.3,23.4-2.5,21.8-5.1c-0.5-0.8-0.9-1.7-1.6-2.7c1.1-0.5,2.9-1.3,4.6-1.3c1.7,0,3.8,0.7,5.1,1.2
					c-0.7,1-1.2,2-1.7,2.8c-1.7,2.6,17.3,8.5,21.8,5.1C129.2,63.4,128.3,55.9,118.7,53.9z"/>
				<g>
					<path fill="#10659E" d="M94.2,56.9c0,0,0,0-0.1-0.1c0-0.1-0.1-0.2-0.2-0.3c-0.1-0.1-0.2-0.3-0.4-0.4c-0.1-0.2-0.3-0.3-0.5-0.5
						c-0.2-0.1-0.5-0.3-0.7-0.5c-0.3-0.2-0.6-0.3-0.9-0.4c-0.2-0.1-0.3-0.1-0.5-0.2c-0.2-0.1-0.3-0.1-0.5-0.1
						c-0.4-0.1-0.7-0.2-1.1-0.2l-0.6,0c-0.2,0-0.4,0-0.6,0c-0.2,0-0.4,0-0.5,0c-0.2,0-0.4,0-0.5,0c-0.3,0-0.7,0.1-1,0.1
						c-0.3,0.1-0.6,0.1-0.9,0.2c-0.3,0-0.5,0.1-0.7,0.2c-0.2,0.1-0.4,0.1-0.6,0.2c-0.3,0.1-0.5,0.1-0.5,0.1s0.2-0.1,0.5-0.2
						c0.2-0.1,0.3-0.1,0.6-0.2c0.2-0.1,0.5-0.2,0.7-0.2c0.3-0.1,0.6-0.2,0.9-0.2c0.3-0.1,0.7-0.1,1-0.2c0.2,0,0.4-0.1,0.5-0.1
						c0.2,0,0.4,0,0.6,0c0.2,0,0.4,0,0.6,0l0.6,0c0.4,0,0.8,0.1,1.2,0.1c0.2,0,0.4,0.1,0.6,0.1c0.2,0,0.4,0.1,0.5,0.1
						c0.3,0.1,0.7,0.2,1,0.4c0.3,0.1,0.6,0.3,0.8,0.5c0.2,0.2,0.5,0.3,0.7,0.5c0.2,0.2,0.3,0.3,0.5,0.4c0.1,0.1,0.2,0.2,0.3,0.3
						c0.1,0.1,0.1,0.1,0.1,0.1L94.2,56.9z"/>
				</g>
				
					<radialGradient id="SVGID_5_" cx="107.103" cy="162.8998" r="5.3511" gradientTransform="matrix(1.0174 -0.2155 -0.2155 -1.0176 14.5204 247.6724)" gradientUnits="userSpaceOnUse">
					<stop  offset="0.6178" style="stop-color:#FCDFA9"/>
					<stop  offset="1" style="stop-color:#F9B233"/>
				</radialGradient>
				<path fill="url(#SVGID_5_)" stroke="#E07F00" stroke-miterlimit="10" d="M95.2,57.4c0.4,2-2.3,4.3-6,5.1
					c-3.7,0.8-7.1-0.2-7.5-2.2c-0.4-2,2.3-4.3,6-5.1C91.3,54.4,94.7,55.4,95.2,57.4z"/>
				<circle fill="#1D1D1B" cx="89.4" cy="56.9" r="1.9"/>
				
					<linearGradient id="SVGID_6_" gradientUnits="userSpaceOnUse" x1="79.1597" y1="136.9571" x2="100.2733" y2="136.9571" gradientTransform="matrix(1 0 0 -1 0 200)">
					<stop  offset="0" style="stop-color:#8470CC"/>
					<stop  offset="1" style="stop-color:#8432CC"/>
				</linearGradient>
				<path fill="url(#SVGID_6_)" stroke="#440389" stroke-width="2" stroke-miterlimit="10" d="M99.6,63.1c0,0,1.4-2.9,0-4.3
					c-1.4-1.4-17.4,5.9-20.5,5.8c1.7,1.9,2.6,3.3,5.8,2.7S96.5,61.6,99.6,63.1z"/>
				<g>
					<path fill="#AB6AEF" d="M99.2,62.6c0,0,0,0-0.2,0c-0.1,0-0.3,0-0.6,0c-0.2,0-0.5,0-0.9,0.1c-0.3,0-0.7,0.1-1.1,0.2
						c-0.4,0.1-0.9,0.2-1.3,0.3c-0.5,0.1-0.9,0.2-1.4,0.4c-0.5,0.2-1,0.3-1.5,0.5c-0.5,0.2-1,0.4-1.5,0.6c-1,0.4-2.1,0.9-3,1.3
						c-0.5,0.2-1,0.4-1.4,0.6c-0.5,0.2-0.9,0.3-1.3,0.4c-0.4,0.1-0.8,0.2-1.2,0.2c-0.4,0-0.7,0-0.9-0.1c-0.3-0.1-0.4-0.2-0.5-0.2
						c-0.1-0.1-0.2-0.1-0.2-0.1s0.1,0,0.2,0.1c0.1,0,0.3,0.1,0.5,0.1c0.5,0,1.1-0.1,1.9-0.4c0.4-0.1,0.8-0.3,1.2-0.5
						c0.4-0.2,0.9-0.4,1.4-0.7c0.9-0.5,2-1,3-1.4c0.5-0.2,1.1-0.4,1.6-0.6c0.5-0.2,1.1-0.4,1.6-0.5c0.5-0.1,1-0.2,1.5-0.3
						c0.5-0.1,1-0.1,1.4-0.1c0.4,0,0.8,0,1.2,0c0.3,0,0.7,0.1,0.9,0.1c0.2,0,0.4,0.1,0.6,0.1C99.1,62.6,99.2,62.6,99.2,62.6z"/>
				</g>
				<g>
					<path fill="#10659E" d="M111.6,56.5c0,0,0,0,0.1-0.1c0.1-0.1,0.2-0.2,0.3-0.3c0.1-0.1,0.3-0.3,0.5-0.4c0.2-0.2,0.4-0.3,0.7-0.5
						c0.3-0.2,0.5-0.3,0.8-0.5c0.3-0.2,0.6-0.3,1-0.4c0.2-0.1,0.4-0.1,0.5-0.1c0.2,0,0.4-0.1,0.6-0.1c0.4,0,0.8-0.1,1.1-0.1l0.6,0
						c0.2,0,0.4,0,0.6,0c0.2,0,0.4,0,0.6,0c0.2,0,0.4,0.1,0.5,0.1c0.4,0.1,0.7,0.1,1,0.2c0.3,0.1,0.6,0.2,0.9,0.2
						c0.3,0.1,0.5,0.2,0.7,0.2c0.2,0.1,0.4,0.1,0.6,0.2c0.3,0.1,0.5,0.2,0.5,0.2s-0.2-0.1-0.5-0.1c-0.2,0-0.4-0.1-0.6-0.2
						c-0.2-0.1-0.5-0.1-0.7-0.2c-0.3-0.1-0.6-0.1-0.9-0.2c-0.3-0.1-0.7-0.1-1-0.1c-0.2,0-0.4,0-0.5,0c-0.2,0-0.4,0-0.5,0
						c-0.2,0-0.4,0-0.6,0l-0.6,0c-0.4,0-0.7,0.1-1.1,0.2c-0.2,0-0.3,0.1-0.5,0.1c-0.2,0.1-0.3,0.1-0.5,0.2c-0.3,0.1-0.6,0.2-0.9,0.4
						c-0.3,0.1-0.5,0.3-0.7,0.5c-0.2,0.2-0.4,0.3-0.5,0.5c-0.2,0.1-0.3,0.3-0.4,0.4c-0.1,0.1-0.2,0.2-0.2,0.3c0,0.1-0.1,0.1-0.1,0.1
						L111.6,56.5z"/>
				</g>
				
					<radialGradient id="SVGID_7_" cx="459.0535" cy="88.3581" r="5.3513" gradientTransform="matrix(-1.0174 -0.2155 0.2155 -1.0176 566.185 247.6724)" gradientUnits="userSpaceOnUse">
					<stop  offset="0.6178" style="stop-color:#FCDFA9"/>
					<stop  offset="1" style="stop-color:#F9B233"/>
				</radialGradient>
				<path fill="url(#SVGID_7_)" stroke="#E07F00" stroke-miterlimit="10" d="M111.4,57.4c-0.4,2,2.3,4.3,6,5.1
					c3.7,0.8,7.1-0.2,7.5-2.2c0.4-2-2.3-4.3-6-5.1C115.2,54.4,111.8,55.4,111.4,57.4z"/>
				<circle fill="#1D1D1B" cx="117.2" cy="56.9" r="1.9"/>
				
					<linearGradient id="SVGID_8_" gradientUnits="userSpaceOnUse" x1="431.6193" y1="136.9571" x2="452.733" y2="136.9571" gradientTransform="matrix(-1 0 0 -1 559.0186 200)">
					<stop  offset="0" style="stop-color:#8470CC"/>
					<stop  offset="1" style="stop-color:#8432CC"/>
				</linearGradient>
				<path fill="url(#SVGID_8_)" stroke="#440389" stroke-width="2" stroke-miterlimit="10" d="M106.9,63.1c0,0-1.4-2.9,0-4.3
					c1.4-1.4,17.4,5.9,20.5,5.8c-1.7,1.9-2.6,3.3-5.8,2.7C118.5,66.7,110.1,61.6,106.9,63.1z"/>
				<g>
					<path fill="#AB6AEF" d="M107.3,62.6c0,0,0.1,0,0.2-0.1c0.1,0,0.3-0.1,0.6-0.1c0.2,0,0.5-0.1,0.9-0.1c0.3,0,0.7,0,1.2,0
						c0.4,0,0.9,0,1.4,0.1c0.5,0.1,1,0.2,1.5,0.3c0.5,0.1,1.1,0.3,1.6,0.5c0.5,0.2,1.1,0.4,1.6,0.6c1,0.4,2.1,0.9,3,1.4
						c0.5,0.2,0.9,0.4,1.4,0.7c0.4,0.2,0.8,0.4,1.2,0.5c0.8,0.3,1.4,0.5,1.9,0.4c0.2,0,0.4-0.1,0.5-0.1c0.1,0,0.2-0.1,0.2-0.1
						s-0.1,0-0.2,0.1c-0.1,0.1-0.3,0.2-0.5,0.2c-0.2,0.1-0.6,0.1-0.9,0.1c-0.4,0-0.8-0.1-1.2-0.2c-0.4-0.1-0.9-0.2-1.3-0.4
						c-0.5-0.2-0.9-0.3-1.4-0.6c-1-0.4-2-0.9-3-1.3c-0.5-0.2-1-0.4-1.5-0.6c-0.5-0.2-1-0.4-1.5-0.5c-0.5-0.2-1-0.3-1.4-0.4
						c-0.5-0.1-0.9-0.2-1.3-0.3c-0.4-0.1-0.8-0.1-1.1-0.2c-0.3,0-0.6-0.1-0.9-0.1c-0.2,0-0.4,0-0.6,0
						C107.4,62.6,107.3,62.6,107.3,62.6z"/>
				</g>
			</g>
			<g>
				<path opacity="0.3" fill="#10659E" enable-background="new    " d="M95.3,87.7c-1.5-4.9-2.6-9.6-2-14.8c1,3.2,2.8,5.5,5,7.7
					C97.1,76,95.7,69.4,99.6,66c-0.2,1.9,0.9,4.6,1,6.5c0.7-3,1.9-5.8,3.6-8.3c-0.1,2.7,1.4,7.2,2.9,9.2c0.6-0.7,1.7-0.3,2.1-0.9
					L95.3,87.7z"/>
				<g>
					
						<linearGradient id="SVGID_9_" gradientUnits="userSpaceOnUse" x1="101.0698" y1="193.8886" x2="101.0697" y2="12.6234" gradientTransform="matrix(1 0 0 -1 0 200)">
						<stop  offset="0" style="stop-color:#8FC4F7"/>
						<stop  offset="1" style="stop-color:#B5A3F5"/>
					</linearGradient>
					<path fill="url(#SVGID_9_)" d="M95,90.3c-1.5-4.9-2.6-9.7-2-14.8c1,3.2,2.8,5.5,5,7.7c-1.3-4.7-2.7-11.3,1.3-14.7
						c-0.2,1.9,0.9,4.6,1,6.5c0.7-3,1.9-5.8,3.6-8.3c-0.1,2.7,1.6,5.7,3.2,7.8c0.6-0.7,1.7-1.4,2.2-2"/>
					<path fill="#10659E" d="M95,90.3l-0.6-1.8l-0.5-1.8l-0.5-1.8L93,83c-0.1-0.6-0.2-1.2-0.3-1.9l-0.2-1.9l0-1.9l0.1-1.9l0.1-1.6
						l0.6,1.5l0.4,1.1c0.1,0.2,0.2,0.3,0.2,0.5l0.2,0.5c0.1,0.2,0.2,0.3,0.3,0.5l0.3,0.5c0.1,0.2,0.2,0.3,0.3,0.5l0.3,0.5
						c0.2,0.3,0.4,0.6,0.7,0.9l0.7,0.9l0.8,0.8l0.8,0.8l-0.8,0.4c-0.2-0.6-0.3-1.3-0.5-1.9c-0.2-0.6-0.3-1.3-0.4-1.9l-0.2-1l-0.1-1
						c0-0.3-0.1-0.7-0.1-1c0-0.3,0-0.7,0-1c0-0.3,0-0.7,0-1c0-0.3,0.1-0.7,0.1-1c0-0.3,0.1-0.7,0.2-1c0.1-0.3,0.2-0.7,0.3-1
						c0.1-0.3,0.3-0.6,0.4-1c0.1-0.3,0.3-0.6,0.5-0.9c0.2-0.3,0.4-0.6,0.6-0.8l0.7-0.7l0.8-0.8l0,1.2l0,0.4c0,0.1,0,0.2,0,0.4l0,0.4
						c0,0.1,0,0.3,0,0.4c0,0.3,0.1,0.5,0.1,0.8l0.2,0.8c0.1,0.5,0.2,1.1,0.4,1.6c0.1,0.3,0.1,0.6,0.1,0.8c0,0.1,0,0.3,0,0.4l0,0.4
						l-0.8-0.1l0.6-2.2l0.9-2.1c0.3-0.7,0.7-1.4,1-2.1l1.2-2l0.5-0.8l0,1l0,0.5c0,0.2,0,0.3,0,0.5l0.1,0.5c0,0.2,0.1,0.3,0.1,0.5
						l0.3,1l0.4,1l0.4,1c0.2,0.3,0.3,0.6,0.5,0.9c0.2,0.3,0.4,0.6,0.6,0.9c0.2,0.3,0.4,0.6,0.6,0.9l-0.2,0c0.2-0.2,0.4-0.4,0.6-0.5
						l0.6-0.5c0.2-0.2,0.4-0.3,0.6-0.5c0.1-0.1,0.2-0.2,0.3-0.3c0.1-0.1,0.2-0.2,0.2-0.3c-0.1,0.1-0.1,0.2-0.2,0.3
						c-0.1,0.1-0.2,0.2-0.3,0.3c-0.2,0.2-0.4,0.3-0.5,0.5l-0.6,0.5c-0.2,0.2-0.4,0.3-0.5,0.5l-0.1,0.1l-0.1-0.1
						c-0.2-0.3-0.4-0.6-0.6-0.9c-0.2-0.3-0.4-0.6-0.6-0.9c-0.2-0.3-0.4-0.6-0.6-0.9l-0.5-1l-0.4-1c-0.1-0.3-0.2-0.7-0.3-1
						c0-0.2-0.1-0.4-0.1-0.5l-0.1-0.5c0-0.2,0-0.4,0-0.6l0-0.6l0.5,0.2l-1.1,1.9c-0.3,0.7-0.6,1.4-1,2l-0.8,2.1l-0.6,2.2l-0.6,2.2
						L99.9,75l0-0.4c0-0.1,0-0.3,0-0.4c-0.1-0.3-0.1-0.5-0.2-0.8c-0.1-0.5-0.2-1.1-0.4-1.6L99.1,71c-0.1-0.3-0.1-0.6-0.2-0.8
						c0-0.1,0-0.3-0.1-0.4l0-0.4c0-0.1,0-0.3,0-0.4l0-0.4l0.8,0.4L99,69.5c-0.2,0.2-0.4,0.5-0.5,0.7c-0.1,0.3-0.3,0.5-0.4,0.8
						c-0.1,0.3-0.2,0.6-0.3,0.9c-0.1,0.3-0.2,0.6-0.2,0.9c0,0.3-0.1,0.6-0.2,0.9c0,0.3-0.1,0.6-0.1,0.9c0,0.3,0,0.6,0,0.9
						c0,0.3,0,0.6,0,0.9c0,0.3,0,0.6,0.1,0.9l0.1,0.9l0.2,0.9c0.1,0.6,0.2,1.3,0.4,1.9c0.1,0.6,0.3,1.2,0.5,1.9l0.5,1.7l-1.2-1.3
						l-0.8-0.9l-0.8-0.9l-0.7-0.9c-0.2-0.3-0.5-0.6-0.7-1l-0.3-0.5c-0.1-0.2-0.2-0.3-0.3-0.5l-0.3-0.5c-0.1-0.2-0.2-0.4-0.3-0.5
						l-0.2-0.5c-0.1-0.2-0.2-0.4-0.2-0.6l-0.4-1.1l0.7-0.1l-0.2,1.9l0,1.9l0.1,1.9l0.2,1.9l0.3,1.9l0.4,1.8l0.4,1.8L95,90.3z"/>
				</g>
				<g>
					<path fill="#C7EEFF" d="M95.1,90.2c-0.6-2-1.1-4-1.4-6c-0.2-1-0.3-2.1-0.4-3.1c-0.1-0.5-0.1-1-0.1-1.6c0-0.3,0-0.5,0-0.8
						c0-0.3,0-0.5,0-0.8l0,0l0.1-0.8l0.4,0.8l0.5,0.9l0.6,0.9l0.6,0.9l0.7,0.9c0.4,0.6,0.9,1.1,1.4,1.7c0.5,0.6,1,1.1,1.5,1.6l0,0
						c-0.4-1.2-0.8-2.3-1.1-3.5c-0.3-1.2-0.6-2.4-0.7-3.7C97,77,97,76.3,97,75.7c0-0.6,0-1.3,0.1-1.9c0.2-1.3,0.6-2.5,1.4-3.6l0,0
						l0.6-0.8l0.1,0.8c0.1,0.3,0.1,0.6,0.2,0.9c0,0.3,0.1,0.6,0.1,0.9c0.1,0.6,0.2,1.2,0.3,1.8c0,0.3,0.1,0.6,0.1,0.9l0.1,0.9
						l0.1,0.9c0,0.3,0,0.6,0.1,0.9h0c0.2-0.8,0.4-1.6,0.6-2.4c0.2-0.8,0.4-1.6,0.7-2.3c0.3-0.8,0.5-1.5,0.9-2.3
						c0.3-0.8,0.7-1.5,1.1-2.2l0.3-0.5l0.1,0.6c0.1,0.6,0.3,1.1,0.5,1.7c0.2,0.6,0.5,1.1,0.8,1.6c0.6,1,1.3,2,2.1,3l-0.1,0
						c0.3-0.4,0.7-0.7,1.1-1.1c0.2-0.2,0.4-0.3,0.6-0.5c0.1-0.1,0.2-0.2,0.3-0.3c0.1-0.1,0.2-0.2,0.2-0.3c-0.1,0.1-0.1,0.2-0.2,0.3
						c-0.1,0.1-0.2,0.2-0.3,0.3c-0.2,0.2-0.4,0.4-0.5,0.6c-0.4,0.4-0.7,0.7-1.1,1.1l-0.1,0.1l-0.1-0.1c-0.8-0.9-1.5-1.9-2.2-2.9
						c-0.3-0.5-0.6-1-0.9-1.6c-0.3-0.6-0.5-1.1-0.6-1.7l0.5,0.1c-0.2,0.3-0.5,0.6-0.7,1c-0.2,0.3-0.4,0.7-0.6,1
						c-0.4,0.7-0.7,1.5-1,2.2c-0.6,1.5-1,3.1-1.4,4.7h0c0-0.3,0-0.6-0.1-0.9c0-0.3-0.1-0.6-0.1-0.9c-0.1-0.6-0.2-1.2-0.4-1.8
						c-0.1-0.6-0.3-1.2-0.5-1.7c-0.1-0.3-0.2-0.6-0.3-0.8c-0.1-0.3-0.2-0.5-0.4-0.8l0.7,0.1l0,0c-0.1,0.3-0.3,0.5-0.4,0.8
						c-0.1,0.3-0.2,0.5-0.3,0.8c-0.2,0.6-0.3,1.1-0.4,1.7c-0.1,0.6-0.2,1.2-0.2,1.8c0,0.6,0,1.2,0,1.8c0.1,1.2,0.2,2.4,0.4,3.6
						c0.1,0.6,0.2,1.2,0.3,1.8l0.3,1.8l0,0c-0.5-0.5-1.1-1-1.6-1.5c-0.5-0.5-1-1.1-1.5-1.6l-0.7-0.8L94.4,80l-0.7-0.9l-0.6-0.9
						l0.6-0.1l0,0c0,0.2-0.1,0.5-0.1,0.7c0,0.3,0,0.5,0,0.8c0,0.5,0,1,0,1.5c0.1,1,0.1,2.1,0.3,3.1C94.2,86.2,94.5,88.2,95.1,90.2z"
						/>
				</g>
			</g>
			<g>
				<path opacity="0.3" fill="#10659E" enable-background="new    " d="M69.1,96.1c1.3-1.4,2.3-2.5,2.3-2.5l-2.2-17.2l-5.9-1.1
					c-0.5-1.3-1.2-3.2-2.1-4.9c-0.3,2.5-0.1,5.2-0.1,5.2l0.2,2.5l-2.6-5.8c-0.2,1.6-0.4,4.3,0.3,7.6C59.9,84.1,62.8,93.2,69.1,96.1z
					"/>
				<g>
					
						<linearGradient id="SVGID_10_" gradientUnits="userSpaceOnUse" x1="61.8766" y1="194.7665" x2="61.8766" y2="-14.4864" gradientTransform="matrix(1 0 0 -1 0 200)">
						<stop  offset="0" style="stop-color:#8FC4F7"/>
						<stop  offset="1" style="stop-color:#B5A3F5"/>
					</linearGradient>
					<path fill="url(#SVGID_10_)" d="M73.1,93.4c-6.1,1.3-11-3.7-12.9-3.7c-1.9,0-4.2,2.4-4.2,2.4v-2.4L53.4,91l3.6-4.1
						c0,0-3.5,1.4-6.3,2.2C52.7,86.4,69.8,76,69.8,76"/>
					<path fill="#10659E" d="M73.1,93.4l-0.6,0.1l-0.6,0.1c-0.4,0.1-0.8,0.1-1.2,0.1c-0.4,0-0.8,0-1.2,0c-0.4,0-0.8-0.1-1.2-0.2
						c-0.8-0.2-1.5-0.4-2.3-0.7c-0.7-0.3-1.5-0.6-2.2-1c-0.7-0.3-1.4-0.7-2.1-1.1c-0.3-0.2-0.7-0.4-1-0.5c-0.2-0.1-0.3-0.1-0.5-0.2
						c-0.1,0-0.2,0-0.2,0c-0.1,0-0.2,0-0.3,0c-0.3,0-0.7,0.2-1,0.3c-0.3,0.2-0.6,0.3-1,0.5c-0.3,0.2-0.6,0.4-0.9,0.7
						c-0.3,0.2-0.6,0.5-0.8,0.8l-0.8,0.8l0-1.1l0-2.4l0.6,0.4l-2.6,1.3l-2.1,1.1l1.6-1.8l3.6-4.1l0,0l0.5,0.7
						c-1,0.5-2.1,0.8-3.1,1.2c-0.5,0.2-1.1,0.4-1.6,0.5c-0.5,0.2-1.1,0.3-1.6,0.5L49.2,90l1-1.3c0.4-0.5,0.7-0.8,1.1-1.1
						c0.4-0.3,0.8-0.6,1.2-0.9c0.8-0.6,1.6-1.2,2.4-1.7c1.6-1.1,3.2-2.1,4.9-3.2c1.6-1,3.3-2,5-3c0.8-0.5,1.7-1,2.5-1.4
						c0.8-0.5,1.7-0.9,2.5-1.4l-9.6,6.5c-1.6,1.1-3.2,2.2-4.8,3.3c-0.8,0.6-1.6,1.1-2.3,1.7c-0.4,0.3-0.7,0.6-1.1,0.9
						c-0.3,0.3-0.7,0.6-1,0.9l-0.6-0.8c0.5-0.2,1-0.3,1.6-0.5c0.5-0.2,1-0.3,1.6-0.5c1-0.3,2.1-0.7,3.1-1.1l1.7-0.6l-1.2,1.3l0,0
						l-3.6,4.1l-0.5-0.7l2.6-1.3l0.6-0.3l0,0.7l0,2.4l-0.8-0.3c0.3-0.3,0.6-0.6,0.9-0.8c0.3-0.3,0.6-0.5,1-0.7
						c0.3-0.2,0.7-0.4,1.1-0.6c0.4-0.2,0.8-0.3,1.2-0.4c0.1,0,0.2,0,0.3,0c0.2,0,0.3,0,0.4,0c0.2,0,0.4,0.1,0.6,0.2
						c0.4,0.2,0.7,0.4,1.1,0.5l2,1.2c0.7,0.4,1.4,0.7,2,1c0.7,0.3,1.4,0.6,2.1,0.8c0.4,0.1,0.7,0.2,1.1,0.3c0.4,0.1,0.8,0.1,1.1,0.2
						c0.4,0,0.8,0,1.2,0l0.6,0L73.1,93.4z"/>
				</g>
				<g>
					<path fill="#10659E" d="M72.5,90.8c0,0-0.4-0.6-0.8-1.7c-0.1-0.3-0.2-0.5-0.3-0.8c-0.1-0.3-0.2-0.6-0.3-0.9
						c-0.1-0.3-0.2-0.7-0.3-1c-0.1-0.4-0.2-0.7-0.3-1.1c-0.1-0.7-0.3-1.4-0.4-2.1c0-0.3-0.1-0.7-0.1-1c0-0.3-0.1-0.6,0-0.9
						c0-1.1,0.1-1.8,0.1-1.8c0,0,0.2,0.7,0.4,1.8c0,0.3,0.1,0.6,0.2,0.9c0.1,0.3,0.1,0.6,0.2,1c0.1,0.3,0.2,0.7,0.2,1
						c0.1,0.3,0.2,0.7,0.2,1.1c0.1,0.4,0.2,0.7,0.2,1.1c0.1,0.3,0.1,0.7,0.2,1c0.2,0.7,0.3,1.3,0.4,1.8c0.1,0.5,0.2,1,0.2,1.3
						C72.5,90.6,72.5,90.8,72.5,90.8z"/>
				</g>
				<g>
					<path fill="#10659E" d="M71.6,76.8c-0.1-0.7-0.1-1.5-0.2-2.2c0-0.7,0-1.5,0-2.3c0.1-0.8,0.1-1.5,0.2-2.3
						c0.1-0.7,0.3-1.5,0.5-2.2l0.4-1.9l0.4,2c0,0.1,0,0.2,0,0.3c0,0.1,0.1,0.2,0.1,0.3c0.1,0.2,0.1,0.4,0.2,0.6l0.3,0.7
						c0.1,0.2,0.2,0.5,0.2,0.7l-0.6-0.1c0.2-0.3,0.3-0.5,0.5-0.8c0.2-0.3,0.3-0.5,0.5-0.8c0.4-0.5,0.8-1,1.2-1.4
						c-0.3,0.6-0.6,1.1-0.9,1.7c-0.3,0.6-0.5,1.1-0.8,1.7l-0.3,0.7l-0.3-0.7c-0.1-0.4-0.4-0.8-0.6-1.2c-0.1-0.2-0.2-0.4-0.3-0.7
						c0-0.1-0.1-0.2-0.1-0.4c0-0.1-0.1-0.3-0.1-0.4l0.8,0.1c-0.1,0.7-0.3,1.4-0.5,2.1c-0.1,0.4-0.1,0.7-0.2,1.1l-0.2,1.1
						c-0.1,0.7-0.1,1.5-0.2,2.2C71.8,75.4,71.7,76.1,71.6,76.8z"/>
				</g>
				<g>
					<path fill="#C7EEFF" d="M52.8,87.7c0,0,1-0.7,2.5-1.8c0.4-0.3,0.8-0.6,1.2-0.9c0.4-0.3,0.9-0.7,1.4-1c0.5-0.3,1-0.7,1.6-1.1
						c0.5-0.4,1.1-0.7,1.6-1.1c0.6-0.3,1.1-0.7,1.6-1.1c0.5-0.4,1-0.7,1.5-1c1-0.7,1.9-1.3,2.7-1.9c0.8-0.5,1.5-1,1.9-1.3
						c0.2-0.2,0.4-0.3,0.5-0.3c0.1-0.1,0.2-0.1,0.2-0.1s-0.1,0.1-0.2,0.2c-0.1,0.1-0.3,0.3-0.5,0.4c-0.4,0.4-1,0.9-1.7,1.6
						c-0.4,0.3-0.8,0.7-1.2,1c-0.4,0.3-0.9,0.7-1.4,1.1c-0.5,0.4-1,0.8-1.5,1.1c-0.5,0.4-1,0.8-1.6,1.1c-0.5,0.3-1.1,0.7-1.6,1
						c-0.5,0.3-1,0.6-1.5,0.9c-0.5,0.3-1,0.6-1.5,0.9c-0.5,0.3-0.9,0.5-1.4,0.8C54.1,87.1,52.8,87.7,52.8,87.7z"/>
				</g>
			</g>
			<g>
				<path opacity="0.3" fill="#10659E" enable-background="new    " d="M147.4,88.3c-0.5,0.1-1.1,0.1-1.5-0.1l-0.5-0.2l0.3-0.4
					c0.8-1.3,1.2-2.7,1.5-4.1l-4.2-2.1l-7.6-2.5c0,0,1.4-8.5,1-7.8c-0.3,0.8-2.1,0.9-2.1,0.9l-1.1,4.7l-1.6,5.1l-1.9,12.8l6.9,3.9
					C141,95.5,145.3,90.8,147.4,88.3z"/>
				<g>
					
						<linearGradient id="SVGID_11_" gradientUnits="userSpaceOnUse" x1="139.1914" y1="189.3457" x2="139.1914" y2="-7.0713" gradientTransform="matrix(1 0 0 -1 0 200)">
						<stop  offset="0" style="stop-color:#8FC4F7"/>
						<stop  offset="1" style="stop-color:#B5A3F5"/>
					</linearGradient>
					<path fill="url(#SVGID_11_)" d="M131,71.3l2.1-2.7c0,0,0.4,4.7,0,5.7c1.4-2.4,1.6-2.9,1.6-2.9s0.1,5.2-1.8,7.4
						c0.3,1.2,13.9,7.8,17.2,13c-2.7-0.2-5.1-2.2-5.1-2.2l2.6,4.4l-3.5-1.4c0,0,0,2.4-0.4,2.7c-0.3,0.2-2.2-1.9-3.1-1.7
						s-9,1.4-12.2,1.2"/>
					<path fill="#10659E" d="M131,71.3l1.7-3l0.5-0.9l0.2,1.1h0c0.1,1,0.1,1.9,0.2,2.9c0,0.5,0,1,0,1.5c0,0.2,0,0.5,0,0.8
						c0,0.1,0,0.3-0.1,0.4c0,0.1-0.1,0.3-0.1,0.4l-0.8-0.4l0.8-1.4l0.4-0.7c0.1-0.2,0.2-0.5,0.4-0.7l0.8-1.5l0,1.6c0,0.3,0,0.7,0,1
						c0,0.3,0,0.7-0.1,1c-0.1,0.7-0.1,1.3-0.3,2c0,0.2-0.1,0.3-0.1,0.5c0,0.2-0.1,0.3-0.1,0.5c-0.1,0.3-0.2,0.6-0.3,1
						c-0.1,0.2-0.1,0.3-0.2,0.5s-0.1,0.3-0.2,0.5c-0.1,0.1-0.2,0.3-0.3,0.4l-0.3,0.4l0.1-0.4c0,0,0,0,0,0l0.1,0.1
						c0.1,0.1,0.1,0.1,0.2,0.2c0.2,0.1,0.3,0.3,0.5,0.4c0.4,0.3,0.7,0.5,1.1,0.7c0.8,0.5,1.5,1,2.3,1.4c1.5,0.9,3.1,1.9,4.6,2.9
						c1.5,1,3,2,4.4,3.2c0.4,0.3,0.7,0.6,1.1,0.9c0.3,0.3,0.7,0.6,1,0.9c0.3,0.3,0.6,0.7,1,1c0.3,0.4,0.6,0.7,0.8,1.1l0.5,0.8
						l-0.9-0.1l-0.7-0.1c-0.1,0-0.2,0-0.4-0.1l-0.4-0.1l-0.4-0.1c-0.1,0-0.2-0.1-0.3-0.1l-0.7-0.3c-0.2-0.1-0.4-0.2-0.7-0.3
						c-0.2-0.1-0.4-0.2-0.6-0.4c-0.2-0.1-0.4-0.3-0.6-0.4c-0.2-0.1-0.4-0.3-0.6-0.4l0.7-0.6l2.6,4.4l0.6,1.1l-1.2-0.4l-3.5-1.4
						l0.6-0.4v0c0,0.4,0,0.8,0,1.2c0,0.4-0.1,0.8-0.2,1.2l-0.1,0.2c0,0.1-0.1,0.1-0.1,0.2c-0.1,0.1-0.2,0.3-0.5,0.3
						c-0.2,0-0.3-0.1-0.3-0.1c-0.3-0.1-0.4-0.3-0.6-0.4c-0.3-0.2-0.6-0.5-0.9-0.7c-0.3-0.2-0.6-0.4-0.9-0.5c-0.1,0-0.1,0-0.2-0.1
						c0,0,0,0-0.1,0c0,0,0,0-0.1,0l-0.6,0.1c-0.8,0.1-1.6,0.2-2.3,0.3c-0.8,0.1-1.6,0.2-2.3,0.2c-0.8,0.1-1.6,0.1-2.3,0.2l-1.2,0.1
						c-0.4,0-0.8,0-1.2,0c-0.4,0-0.8,0-1.2,0l-1.2-0.1l1.2,0c0.4,0,0.8-0.1,1.2-0.1c0.4,0,0.8-0.1,1.2-0.1l1.2-0.1
						c0.8-0.1,1.5-0.2,2.3-0.3c0.8-0.1,1.5-0.2,2.3-0.4l2.3-0.4l0.6-0.1c0,0,0.1,0,0.2,0c0.1,0,0.2,0,0.2,0c0.1,0,0.3,0,0.4,0.1
						c0.5,0.2,0.8,0.4,1.1,0.6c0.3,0.2,0.6,0.5,0.9,0.7c0.1,0.1,0.3,0.2,0.4,0.3c0,0,0.1,0-0.1,0c0,0-0.1,0-0.1,0c0,0-0.1,0,0,0l0,0
						l0,0c0,0,0.1,0-0.1,0l0,0c0,0-0.1,0-0.1,0.1c0,0,0,0,0,0l0-0.1c0.1-0.3,0.1-0.7,0.2-1.1c0-0.4,0.1-0.8,0.1-1.1v0l0-0.6l0.6,0.2
						l3.5,1.4l-0.5,0.6l-2.6-4.4l-1.2-2l1.8,1.4c0.2,0.1,0.3,0.3,0.5,0.4c0.2,0.1,0.4,0.3,0.6,0.4c0.2,0.1,0.4,0.2,0.6,0.3
						c0.2,0.1,0.4,0.2,0.6,0.3l0.6,0.3c0.1,0,0.2,0.1,0.3,0.1l0.3,0.1l0.3,0.1c0.1,0,0.2,0,0.3,0.1l0.6,0.1l-0.4,0.7
						c-0.2-0.4-0.5-0.7-0.8-1c-0.3-0.3-0.6-0.6-0.9-1c-0.3-0.3-0.6-0.6-1-0.9c-0.3-0.3-0.7-0.6-1-0.9c-1.4-1.1-2.9-2.1-4.4-3.1
						c-1.5-1-3-1.9-4.6-2.9c-0.8-0.5-1.5-0.9-2.3-1.4c-0.4-0.2-0.8-0.5-1.1-0.8c-0.2-0.1-0.4-0.3-0.6-0.4c-0.1-0.1-0.2-0.2-0.3-0.3
						l-0.1-0.2c-0.1-0.1-0.1-0.2-0.2-0.3l-0.1-0.2l0.2-0.2l0.3-0.3c0.1-0.1,0.2-0.3,0.2-0.4c0.1-0.1,0.1-0.3,0.2-0.4
						c0.1-0.1,0.1-0.3,0.2-0.4c0.1-0.3,0.2-0.6,0.3-0.9c0-0.1,0.1-0.3,0.1-0.5c0-0.2,0.1-0.3,0.1-0.5c0.1-0.6,0.2-1.2,0.3-1.9
						c0-0.3,0-0.6,0.1-1c0-0.3,0-0.6,0-0.9l0.8,0.2c-0.1,0.3-0.3,0.5-0.4,0.8l-0.4,0.7l-0.8,1.4l-1.4,2.4l0.6-2.7
						c0-0.1,0.1-0.2,0.1-0.3c0-0.1,0-0.2,0-0.3c0-0.2,0-0.5,0-0.7c0-0.5,0-0.9,0-1.4c0-0.9-0.1-1.9-0.2-2.8v0l0.8,0.2L131,71.3z"/>
				</g>
				<g>
					<path fill="#10659E" d="M127.5,92.4c0,0,0.1-0.2,0.2-0.5c0-0.1,0.1-0.3,0.2-0.5c0.1-0.2,0.1-0.4,0.2-0.7
						c0.1-0.2,0.2-0.5,0.2-0.8c0.1-0.3,0.2-0.6,0.3-0.9c0.1-0.3,0.2-0.7,0.3-1c0.1-0.3,0.2-0.7,0.3-1c0.1-0.3,0.2-0.7,0.3-1
						c0.1-0.3,0.2-0.7,0.3-1c0.2-0.6,0.3-1.2,0.5-1.8c0.2-1,0.5-1.7,0.5-1.7s0,0.7,0,1.8c0,0.3,0,0.6-0.1,0.9c0,0.3-0.1,0.6-0.1,1
						c-0.1,0.3-0.1,0.7-0.2,1c-0.1,0.3-0.2,0.7-0.3,1c-0.1,0.3-0.2,0.7-0.3,1c-0.1,0.3-0.2,0.7-0.4,1c-0.1,0.3-0.3,0.6-0.4,0.9
						c-0.1,0.3-0.3,0.5-0.4,0.8c-0.1,0.2-0.3,0.5-0.4,0.6c-0.1,0.2-0.2,0.3-0.3,0.5C127.6,92.3,127.5,92.4,127.5,92.4z"/>
				</g>
				<g>
					<path fill="#C7EEFF" d="M132.8,79.8c0,0,0.3,0.1,0.7,0.4c0.5,0.3,1.1,0.6,1.9,1.1c0.8,0.5,1.7,1,2.6,1.6c0.5,0.3,1,0.6,1.5,1
						c0.5,0.3,1,0.7,1.5,1c1,0.7,2,1.4,2.9,2.1c0.5,0.3,0.9,0.7,1.3,1c0.4,0.3,0.8,0.6,1.2,0.9c0.7,0.6,1.3,1.1,1.6,1.5
						c0.4,0.4,0.6,0.6,0.6,0.6s-0.3-0.2-0.7-0.5c-0.2-0.2-0.5-0.3-0.8-0.5c-0.3-0.2-0.7-0.4-1-0.7c-0.4-0.2-0.8-0.5-1.2-0.8
						c-0.4-0.3-0.9-0.6-1.4-0.9c-0.5-0.3-1-0.6-1.5-1c-0.5-0.3-1-0.7-1.5-1c-0.5-0.3-1-0.7-1.5-1c-0.5-0.3-1-0.7-1.4-1
						c-0.9-0.7-1.8-1.3-2.5-1.8C133.8,80.6,132.8,79.8,132.8,79.8z"/>
				</g>
			</g>
			<g>
				<g>
					
						<linearGradient id="SVGID_12_" gradientUnits="userSpaceOnUse" x1="103.0831" y1="176.8004" x2="103.0831" y2="58.5186" gradientTransform="matrix(1 0 0 -1 0 200)">
						<stop  offset="0" style="stop-color:#8FC4F7"/>
						<stop  offset="1" style="stop-color:#B5A3F5"/>
					</linearGradient>
					<path fill="url(#SVGID_12_)" d="M106.5,57.6c0,0,13.2-20.5-3.4-20.5c-16.7,0-3.4,20.5-3.4,20.5"/>
					<path fill="#10659E" d="M106.5,57.6c0,0,0.3-0.8,0.9-2.1c0.3-0.7,0.6-1.5,1-2.5c0.4-0.9,0.8-2,1.2-3.2c0.4-1.2,0.8-2.5,1-3.9
						c0.1-0.3,0.1-0.7,0.1-1.1c0-0.4,0-0.7,0-1.1c0-0.4-0.1-0.7-0.1-1.1c-0.1-0.3-0.1-0.7-0.2-1c-0.2-0.7-0.6-1.3-1-1.8l-0.4-0.4
						l-0.4-0.3c-0.1-0.1-0.1-0.1-0.2-0.2l-0.2-0.1l-0.5-0.3c-1.4-0.6-3-0.8-4.7-0.8l-1.2,0c-0.4,0-0.8,0.1-1.2,0.1
						c-0.2,0-0.4,0.1-0.6,0.1l-0.6,0.1c-0.4,0.1-0.7,0.3-1.1,0.4l-0.5,0.3l-0.2,0.1c-0.1,0-0.1,0.1-0.2,0.2L97,39.4l-0.4,0.4
						c-0.5,0.5-0.8,1.2-1,1.8c-0.1,0.3-0.2,0.7-0.2,1c0,0.4-0.1,0.7-0.1,1.1c0,0.4,0,0.7,0,1.1c0,0.4,0.1,0.7,0.1,1.1
						c0.2,1.4,0.6,2.7,1,3.9c0.4,1.2,0.8,2.3,1.2,3.2c0.4,0.9,0.7,1.8,1,2.4c0.6,1.4,1,2.1,1,2.1s-0.1-0.2-0.4-0.5
						c-0.2-0.3-0.6-0.8-1-1.4c-0.4-0.6-0.9-1.4-1.4-2.3c-0.5-0.9-1-2-1.5-3.2c-0.5-1.2-0.9-2.6-1.1-4c-0.1-0.4-0.1-0.8-0.2-1.1
						c0-0.4-0.1-0.8-0.1-1.2c0-0.4,0-0.8,0.1-1.2c0.1-0.4,0.1-0.8,0.3-1.3c0.2-0.8,0.7-1.7,1.3-2.4l0.5-0.5l0.5-0.4
						c0.1-0.1,0.2-0.1,0.3-0.2l0.3-0.2l0.6-0.3c0.4-0.2,0.8-0.3,1.3-0.5l0.7-0.2c0.2-0.1,0.4-0.1,0.7-0.1c0.4-0.1,0.9-0.1,1.3-0.2
						l1.3-0.1c1.8,0,3.6,0.2,5.2,1l0.6,0.3l0.3,0.2c0.1,0.1,0.2,0.1,0.3,0.2l0.5,0.4l0.5,0.5c0.6,0.7,1.1,1.5,1.3,2.4
						c0.2,0.4,0.2,0.8,0.3,1.3c0,0.4,0.1,0.8,0.1,1.2c0,0.4,0,0.8-0.1,1.2c0,0.4-0.1,0.8-0.2,1.1c-0.3,1.5-0.7,2.8-1.1,4.1
						c-0.5,1.2-1,2.3-1.5,3.2c-0.5,0.9-1,1.7-1.4,2.3c-0.4,0.6-0.8,1.1-1,1.4C106.7,57.4,106.5,57.6,106.5,57.6z"/>
				</g>
				
					<linearGradient id="SVGID_13_" gradientUnits="userSpaceOnUse" x1="103.0827" y1="170.3112" x2="103.0827" y2="142.4077" gradientTransform="matrix(1 0 0 -1 0 200)">
					<stop  offset="0" style="stop-color:#BFE4F7"/>
					<stop  offset="1" style="stop-color:#BFE4F7;stop-opacity:0"/>
				</linearGradient>
				<path fill="url(#SVGID_13_)" d="M105.6,57.6c0,0,9.6-18.1-2.5-18.1c-12.1,0-2.5,18.1-2.5,18.1"/>
				<g>
					<path fill="#10659E" d="M101.5,58.5c0,0,0.1-0.2,0.4-0.4c0.1,0,0.1-0.1,0.2-0.1c0.1-0.1,0.2-0.1,0.3-0.1
						c0.2-0.1,0.4-0.1,0.6-0.2c0.2,0,0.4,0,0.6,0c0.1,0,0.2,0,0.3,0.1c0.1,0,0.2,0.1,0.2,0.1c0.3,0.1,0.5,0.3,0.5,0.3
						c0,0-0.2,0.1-0.5,0.2c-0.1,0-0.1,0-0.2,0.1c-0.1,0-0.2,0-0.2,0.1c-0.2,0-0.3,0.1-0.5,0.1c-0.2,0-0.3,0-0.5,0
						c-0.1,0-0.2,0-0.3,0c-0.1,0-0.2,0-0.2,0C101.7,58.5,101.5,58.5,101.5,58.5z"/>
				</g>
			</g>
		</g>
		<g>
			<path opacity="0.3" fill="#10659E" enable-background="new    " d="M22.3,112.6c0.7,2.2,1.4,4.4,2.3,6.5l0.3,0.7l-0.8-0.1
				c-0.2,0-0.3-0.1-0.5-0.1c0.2,0.8,0.6,1.6,1.1,2.5c9.3,0.5,21.2-0.4,21.2-0.4C36.1,121.4,26.9,115.9,22.3,112.6z"/>
			<path opacity="0.3" fill="#10659E" enable-background="new    " d="M48.8,70.1c0,0-6.6-13.8-10.8-16c-0.9,0.9-1.5,1.3-1.5,1.3
				s-4-5.5-4.9-6c-0.9-0.6-1.9-0.8-1.9-0.8L26.5,54c0,0,1.3,17.7,2.6,18.2c1.3,0.5,19.9-1.7,19.9-1.7"/>
			<g>
				
					<linearGradient id="SVGID_14_" gradientUnits="userSpaceOnUse" x1="28.0439" y1="189.3462" x2="28.0439" y2="-7.0728" gradientTransform="matrix(1 0 0 -1 0 200)">
					<stop  offset="0" style="stop-color:#8FC4F7"/>
					<stop  offset="1" style="stop-color:#B5A3F5"/>
				</linearGradient>
				<path fill="url(#SVGID_14_)" d="M48.2,121.8c-0.6-0.2-11.5,1.4-27-10.1S4.5,87.1,4.9,82l5.2,5c0,0-4.8-10.9-4.3-19.5l2.4,1.2
					c0,0-1.7-8.7,2.4-19.3c1.1,2.2,1.1,2.2,1.1,2.2s2.6-4.5,2.4-5.2c-0.2-0.6,4.5-21.2,8.2-23.8s17.8-8.9,27,2.5
					C35.4,36.8,26.6,53.9,26.6,53.9l7.7,6.3c0,0-1.9-5.4-3-7.4c3.2,1.9,8.9,9.7,8.9,9.7l-1.7-5.6c0,0,9.9,10.4,12.8,18"/>
				<path fill="#10659E" d="M48.2,121.8c-0.7,0-1.3,0-2,0c-0.7,0-1.4,0-2-0.1c-0.7,0-1.3-0.1-2-0.2c-0.7-0.1-1.3-0.2-2-0.4
					c-0.7-0.2-1.3-0.3-2-0.5c-0.7-0.2-1.3-0.4-2-0.6l-1.9-0.7c-0.6-0.2-1.3-0.5-1.9-0.8c-0.6-0.2-1.2-0.6-1.9-0.8
					c-0.6-0.3-1.2-0.6-1.8-0.9l-1.8-1c-0.6-0.3-1.2-0.7-1.7-1c-0.6-0.4-1.2-0.7-1.7-1.1l-1.7-1.2l-0.8-0.6l-0.8-0.6l-1.6-1.2
					l-0.4-0.3l-0.4-0.3l-0.8-0.7c-0.5-0.5-1-0.9-1.5-1.4l-1.4-1.5c-0.2-0.2-0.5-0.5-0.7-0.7l-0.7-0.8c-0.4-0.5-0.9-1-1.3-1.6
					l-1.2-1.7c-0.4-0.6-0.7-1.2-1.1-1.7c-0.2-0.3-0.4-0.6-0.5-0.9l-0.5-0.9l-0.5-0.9c-0.2-0.3-0.3-0.6-0.4-0.9
					c-0.3-0.6-0.6-1.2-0.8-1.9c-0.5-1.3-0.9-2.6-1.2-3.9l-0.2-1c-0.1-0.3-0.1-0.7-0.2-1c0-0.3-0.1-0.7-0.2-1l-0.1-1
					c-0.1-1.4-0.1-2.7,0-4.1L4.6,81l0.6,0.6l0,0l5.2,5l-0.7,0.5c-0.3-0.8-0.6-1.6-0.9-2.4C8.5,84,8.2,83.2,8,82.4
					c-0.3-0.8-0.5-1.6-0.7-2.4c-0.1-0.4-0.2-0.8-0.3-1.2l-0.3-1.2C6.4,76.7,6.2,75.9,6,75c-0.1-0.4-0.2-0.8-0.2-1.2l-0.2-1.3
					l-0.1-1.3c-0.1-0.4-0.1-0.8-0.1-1.3c0-0.4-0.1-0.8,0-1.3l0-1.3l0-0.7L6,67.1l2.4,1.2l-0.6,0.5c-0.1-0.4-0.1-0.8-0.2-1.2
					c-0.1-0.4-0.1-0.8-0.1-1.2c0-0.4-0.1-0.8-0.1-1.2c0-0.4,0-0.8,0-1.2c0-0.4,0-0.8,0-1.2c0-0.4,0-0.8,0.1-1.2L7.6,60l0.1-1.2
					c0-0.4,0.1-0.8,0.2-1.2C8,57.2,8,56.8,8.1,56.4l0.2-1.2c0.1-0.4,0.2-0.8,0.3-1.2c0.1-0.4,0.2-0.8,0.3-1.2l0.4-1.2
					c0.1-0.4,0.3-0.8,0.4-1.2l0.4-1.2l0.3-0.9l0.5,0.9l1.1,2.2l-0.8,0c0.6-1.1,1.2-2.2,1.8-3.3c0.1-0.3,0.3-0.6,0.4-0.8
					c0.1-0.1,0.1-0.3,0.1-0.4c0-0.1,0-0.1,0-0.2c0,0,0-0.1,0-0.1l0,0c0,0,0,0.1,0-0.1l0,0l0-0.1c0,0,0-0.1,0-0.2l0-0.2l0-0.1
					c0-0.2,0-0.3,0.1-0.5c0.1-0.3,0.1-0.6,0.2-0.9c0.5-2.5,1.2-5,1.8-7.4c0.7-2.5,1.4-4.9,2.3-7.3c0.4-1.2,0.9-2.4,1.4-3.6
					c0.3-0.6,0.5-1.2,0.9-1.7c0.3-0.6,0.7-1.1,1.1-1.6c0.1-0.1,0.1-0.1,0.2-0.2l0.2-0.2c0.1-0.1,0.1-0.1,0.2-0.2l0.2-0.1
					c0.3-0.2,0.6-0.4,0.8-0.5c0.6-0.3,1.1-0.6,1.7-0.9c1.2-0.6,2.4-1,3.6-1.4c2.5-0.8,5-1.2,7.6-1.2c1.3,0,2.6,0.2,3.9,0.5
					c1.3,0.3,2.5,0.7,3.7,1.3c1.2,0.6,2.3,1.3,3.3,2.1c1,0.8,1.9,1.8,2.7,2.8l0.3,0.3l-0.3,0.3l-1.7,1.5l-0.8,0.8l-0.8,0.8
					c-0.5,0.5-1.1,1.1-1.6,1.6l-1.6,1.7c-0.5,0.5-1,1.1-1.5,1.7c-0.5,0.6-1,1.1-1.5,1.7L38.4,37c-0.5,0.6-0.9,1.2-1.4,1.8
					c-0.5,0.6-0.9,1.2-1.4,1.8c-0.4,0.6-0.9,1.2-1.3,1.9L33,44.3l-1.3,1.9l-1.2,1.9c-0.4,0.7-0.8,1.3-1.2,2c-0.8,1.3-1.6,2.6-2.3,4
					l-0.1-0.5l7.7,6.3l-0.7,0.5c-0.2-0.6-0.5-1.2-0.7-1.9l-0.4-0.9c-0.1-0.3-0.2-0.6-0.4-0.9l-0.4-0.9c-0.1-0.3-0.2-0.6-0.4-0.9
					L30.9,53l-0.7-1.5l1.3,0.9c0.2,0.2,0.5,0.3,0.7,0.5l0.7,0.5c0.4,0.4,0.8,0.8,1.2,1.2c0.2,0.2,0.4,0.4,0.6,0.6
					c0.2,0.2,0.4,0.4,0.6,0.6c0.4,0.4,0.7,0.8,1.1,1.2c1.4,1.7,2.8,3.4,4.1,5.2l-0.8,0.4L38,57.1l-0.5-1.8l1.3,1.3l0,0
					c1.3,1.4,2.4,2.8,3.6,4.2c0.6,0.7,1.2,1.4,1.7,2.2c0.6,0.7,1.1,1.5,1.7,2.2c0.3,0.4,0.5,0.8,0.8,1.1c0.3,0.4,0.5,0.8,0.8,1.1
					l0.8,1.2l0.7,1.2c0.2,0.4,0.5,0.8,0.7,1.2c0.2,0.4,0.4,0.8,0.6,1.2c0.2,0.4,0.4,0.8,0.6,1.3l0.5,1.3l-0.6-1.3
					c-0.2-0.4-0.4-0.8-0.6-1.2c-0.2-0.4-0.5-0.8-0.7-1.2c-0.2-0.4-0.5-0.8-0.7-1.2l-0.8-1.2l-0.8-1.1c-0.3-0.4-0.5-0.7-0.8-1.1
					c-0.3-0.4-0.5-0.7-0.8-1.1c-0.6-0.7-1.1-1.4-1.7-2.2c-0.6-0.7-1.2-1.4-1.8-2.1c-1.2-1.4-2.5-2.7-3.7-4l0,0l0.7-0.4l1.7,5.6
					l0.8,2.5l-1.5-2.1c-1.3-1.8-2.7-3.5-4.1-5.2c-0.4-0.4-0.7-0.8-1.1-1.2c-0.2-0.2-0.4-0.4-0.6-0.6c-0.2-0.2-0.4-0.4-0.6-0.6
					c-0.4-0.4-0.8-0.8-1.2-1.1l-0.6-0.5c-0.2-0.2-0.4-0.3-0.6-0.4l0.6-0.6l0.9,1.8c0.1,0.3,0.3,0.6,0.4,0.9l0.4,0.9
					c0.1,0.3,0.3,0.6,0.4,0.9l0.4,0.9c0.2,0.6,0.5,1.2,0.7,1.9l0.5,1.5l-1.2-1l-7.7-6.3L26.1,54l0.2-0.3c0.7-1.4,1.5-2.7,2.3-4
					c0.4-0.7,0.8-1.3,1.2-2l1.2-1.9l1.3-1.9l1.3-1.9c0.4-0.6,0.9-1.2,1.4-1.9c0.5-0.6,0.9-1.2,1.4-1.8c0.5-0.6,0.9-1.2,1.4-1.8
					l1.5-1.8c0.5-0.6,1-1.2,1.5-1.8c0.5-0.6,1-1.2,1.5-1.7l1.6-1.7c0.5-0.6,1.1-1.1,1.6-1.6l0.8-0.8l0.9-0.8l1.7-1.6l-0.1,0.6
					c-0.8-1-1.7-1.9-2.6-2.7c-1-0.8-2-1.5-3.1-2c-1.1-0.6-2.3-1-3.5-1.3c-1.2-0.3-2.4-0.4-3.7-0.4c-2.5,0-5,0.4-7.4,1.1
					c-1.2,0.4-2.4,0.8-3.5,1.4c-0.6,0.3-1.1,0.6-1.7,0.9c-0.3,0.2-0.5,0.3-0.8,0.5l-0.2,0.1c-0.1,0-0.1,0.1-0.2,0.1
					c-0.1,0.1-0.2,0.2-0.3,0.3c-0.4,0.4-0.7,0.9-1,1.5c-0.3,0.5-0.6,1.1-0.8,1.7c-0.5,1.1-1,2.3-1.4,3.5c-0.8,2.4-1.6,4.8-2.3,7.2
					c-0.7,2.4-1.3,4.9-1.8,7.4c-0.1,0.3-0.1,0.6-0.2,0.9c0,0.2-0.1,0.3-0.1,0.5l0,0.1c0,0,0,0,0,0.1c0,0,0,0,0,0.1l0,0.1l0,0
					c0-0.1,0,0,0,0l0,0c0,0.2,0,0.3,0,0.4c0,0.1,0,0.2-0.1,0.3c-0.1,0.2-0.1,0.3-0.2,0.5c-0.1,0.3-0.3,0.6-0.4,0.9
					c-0.6,1.2-1.2,2.3-1.8,3.4l-0.4,0.7l-0.4-0.7l-1.1-2.2l0.8,0l-0.4,1.1c-0.1,0.4-0.3,0.8-0.4,1.1L9.8,53
					c-0.1,0.4-0.2,0.8-0.3,1.2c-0.1,0.4-0.2,0.8-0.3,1.2L9,56.5c-0.1,0.4-0.1,0.8-0.2,1.2c-0.1,0.4-0.1,0.8-0.2,1.2l-0.1,1.2
					l-0.1,1.2c0,0.4,0,0.8-0.1,1.2c0,0.4,0,0.8,0,1.2c0,0.4,0,0.8,0,1.2c0,0.4,0,0.8,0.1,1.2c0,0.4,0.1,0.8,0.1,1.2
					c0,0.4,0.1,0.8,0.2,1.2l0.2,0.8L8,69l-2.4-1.2l0.6-0.4l0,1.2c0,0.4,0,0.8,0,1.2c0,0.4,0,0.8,0.1,1.2l0.1,1.2l0.2,1.2
					c0.1,0.4,0.1,0.8,0.2,1.2c0.1,0.8,0.3,1.6,0.5,2.4l0.3,1.2c0.1,0.4,0.2,0.8,0.3,1.2c0.2,0.8,0.5,1.6,0.7,2.4
					c0.3,0.8,0.5,1.6,0.8,2.4c0.3,0.8,0.6,1.6,0.9,2.3l0.8,1.9l-1.5-1.5l-5.2-5l0,0L5.4,82c-0.1,1.3-0.1,2.6,0.1,4l0.1,1
					c0,0.3,0.1,0.7,0.2,1c0.1,0.3,0.1,0.7,0.2,1l0.2,1c0.3,1.3,0.7,2.6,1.2,3.8c0.2,0.6,0.5,1.2,0.8,1.8c0.1,0.3,0.3,0.6,0.4,0.9
					l0.5,0.9l0.5,0.9c0.2,0.3,0.3,0.6,0.5,0.9c0.4,0.6,0.7,1.1,1.1,1.7l1.2,1.6c0.4,0.5,0.8,1,1.3,1.6l0.6,0.8
					c0.2,0.3,0.5,0.5,0.7,0.7l1.4,1.4c0.5,0.5,1,0.9,1.5,1.4l0.7,0.7l0.4,0.3l0.4,0.3l1.6,1.3l0.8,0.6l0.8,0.6l1.6,1.2
					c0.5,0.4,1.1,0.7,1.7,1.1c0.6,0.4,1.1,0.7,1.7,1.1l1.7,1c0.6,0.3,1.2,0.6,1.8,0.9c0.6,0.3,1.2,0.6,1.8,0.9
					c0.6,0.3,1.2,0.6,1.8,0.8l1.9,0.7c0.6,0.2,1.3,0.4,1.9,0.6c0.6,0.2,1.3,0.4,1.9,0.5c0.7,0.1,1.3,0.3,2,0.4
					c0.7,0.1,1.3,0.2,2,0.3c0.7,0.1,1.3,0.1,2,0.2C46.8,121.8,47.5,121.8,48.2,121.8z"/>
			</g>
			<g>
				<path fill="#C7EEFF" d="M50.3,73.1c0,0-0.8-0.8-1.9-2.1c-0.5-0.6-1.2-1.4-1.8-2.2c-0.3-0.4-0.7-0.8-1-1.3
					c-0.3-0.4-0.7-0.9-1-1.3c-0.3-0.4-0.7-0.9-1-1.3c-0.3-0.4-0.6-0.9-0.9-1.3c-0.3-0.4-0.6-0.8-0.9-1.2c-0.3-0.4-0.5-0.8-0.8-1.1
					c-1-1.4-1.5-2.3-1.5-2.3s0.8,0.8,1.9,2c0.6,0.6,1.2,1.4,1.9,2.2c0.3,0.4,0.7,0.8,1,1.3c0.3,0.4,0.7,0.9,1,1.3
					c0.3,0.4,0.7,0.9,1,1.3c0.3,0.4,0.6,0.9,0.9,1.3c0.6,0.9,1.1,1.7,1.6,2.4C49.8,72.1,50.3,73.1,50.3,73.1z"/>
			</g>
			<g>
				<path fill="#C7EEFF" d="M40.9,64.4c0,0-0.6-0.5-1.5-1.3c-0.4-0.4-0.9-0.9-1.5-1.4c-0.3-0.3-0.5-0.6-0.8-0.8
					c-0.3-0.3-0.5-0.6-0.8-0.9c-0.3-0.3-0.5-0.6-0.8-0.9c-0.3-0.3-0.5-0.6-0.7-0.9c-0.5-0.6-0.9-1.2-1.2-1.7
					c-0.2-0.3-0.3-0.5-0.4-0.7c-0.1-0.2-0.2-0.4-0.3-0.6c-0.2-0.3-0.2-0.5-0.2-0.5s0.1,0.1,0.4,0.4c0.1,0.1,0.3,0.3,0.4,0.5
					c0.2,0.2,0.4,0.4,0.6,0.6c0.2,0.2,0.4,0.5,0.7,0.7c0.2,0.3,0.5,0.5,0.7,0.8c0.2,0.3,0.5,0.6,0.8,0.9c0.3,0.3,0.5,0.6,0.8,0.9
					c0.3,0.3,0.5,0.6,0.8,0.9c0.3,0.3,0.5,0.6,0.7,0.9c0.5,0.6,0.9,1.1,1.3,1.6C40.5,63.7,40.9,64.4,40.9,64.4z"/>
			</g>
			<g>
				<path fill="#10659E" d="M26.3,54.3c0,0-0.1-0.1-0.3-0.2c-0.2-0.1-0.4-0.3-0.7-0.6c-0.1-0.1-0.3-0.2-0.5-0.4
					c-0.2-0.1-0.4-0.3-0.6-0.4c-0.4-0.3-0.8-0.5-1.3-0.8c-0.2-0.1-0.4-0.3-0.7-0.4c-0.2-0.1-0.4-0.2-0.6-0.3
					c-0.4-0.2-0.8-0.4-1.2-0.6c-0.7-0.3-1.2-0.5-1.2-0.5s0.5,0.2,1.2,0.4c0.4,0.1,0.8,0.3,1.2,0.4c0.2,0.1,0.5,0.2,0.7,0.3
					c0.2,0.1,0.5,0.2,0.7,0.3c0.5,0.2,0.9,0.4,1.4,0.7c0.2,0.1,0.4,0.2,0.6,0.3c0.2,0.1,0.4,0.2,0.5,0.3c0.3,0.2,0.6,0.4,0.8,0.5
					c0.2,0.1,0.3,0.2,0.3,0.2L26.3,54.3z"/>
			</g>
			<g>
				
					<linearGradient id="SVGID_15_" gradientUnits="userSpaceOnUse" x1="43.7227" y1="174.7324" x2="43.7227" y2="168.7049" gradientTransform="matrix(1 0 0 -1 0 200)">
					<stop  offset="0" style="stop-color:#8FC4F7"/>
					<stop  offset="1" style="stop-color:#B5A3F5"/>
				</linearGradient>
				<path fill="url(#SVGID_15_)" d="M45.4,28.7c0,0-0.6-1.7-3.3-3.2"/>
				<path fill="#10659E" d="M45,28.8C45,28.8,45,28.8,45,28.8c0-0.1,0-0.1-0.1-0.2c0-0.1-0.1-0.2-0.2-0.4c-0.1-0.2-0.2-0.4-0.4-0.6
					c-0.1-0.1-0.2-0.2-0.2-0.3c-0.1-0.1-0.2-0.2-0.3-0.3c-0.1-0.1-0.2-0.2-0.3-0.3c-0.1-0.1-0.2-0.2-0.3-0.3
					c-0.1-0.1-0.2-0.2-0.3-0.3c-0.1-0.1-0.2-0.1-0.3-0.2c-0.4-0.3-0.6-0.4-0.6-0.4s0.3,0.1,0.7,0.3c0.1,0,0.2,0.1,0.3,0.2
					c0.1,0.1,0.2,0.1,0.3,0.2c0.1,0.1,0.2,0.1,0.4,0.2c0.1,0.1,0.2,0.2,0.4,0.3c0.1,0.1,0.2,0.2,0.4,0.3c0.1,0.1,0.2,0.2,0.3,0.3
					c0.2,0.2,0.4,0.4,0.5,0.6c0.1,0.2,0.3,0.3,0.3,0.5c0.1,0.1,0.1,0.2,0.1,0.2L45,28.8z"/>
			</g>
			<g>
				<path fill="#10659E" d="M27,52.7c0,0-0.2-0.4-0.5-1c-0.1-0.3-0.3-0.7-0.5-1.1c-0.2-0.4-0.4-0.8-0.6-1.2
					c-0.4-0.8-0.9-1.6-1.2-2.2c-0.3-0.6-0.6-1-0.6-1s0.3,0.4,0.7,0.9c0.4,0.6,1,1.3,1.5,2.1c0.3,0.4,0.5,0.8,0.8,1.1
					c0.2,0.4,0.4,0.7,0.6,1c0.4,0.6,0.6,1,0.6,1L27,52.7z"/>
			</g>
			<g>
				<path fill="#10659E" d="M13.6,46.5c0,0,2.3-2.6,4.6-5.2c1.2-1.3,2.3-2.6,3.2-3.5c0.4-0.5,0.8-0.9,1.1-1.1
					c0.1-0.1,0.2-0.2,0.3-0.3c0.1-0.1,0.1-0.1,0.1-0.1s0,0-0.1,0.1c-0.1,0.1-0.2,0.2-0.3,0.3c-0.3,0.3-0.6,0.7-1,1.2
					c-0.8,1-1.9,2.4-3,3.7c-2.1,2.7-4.3,5.5-4.3,5.5L13.6,46.5z"/>
			</g>
			<path opacity="0.3" fill="#10659E" enable-background="new    " d="M48.1,24.4c-0.9-1-1.8-1.8-2.9-2.6c-1.2-0.8-2.4-1.4-3.7-1.9
				l0,0c0,0,0,0,0,0c-0.6-0.2-1.1-0.4-1.7-0.5c0,0-0.1,0-0.1,0c-0.2-0.1-0.5-0.1-0.7-0.2c-0.3-0.1-0.6-0.1-0.9-0.1
				c-0.3,0-0.5-0.1-0.8-0.1c-2.4-0.2-4.9,0.1-7.3,0.7c-2.5,0.7-5,1.6-7.2,3.1c-0.7,0.5-1.2,1.2-1.6,1.9c-0.6,1-1,2-1.4,3
				c-0.9,2.1-1.6,4.3-2.2,6.5c-0.7,2.2-1.3,4.4-1.8,6.7c-0.3,1.1-0.5,2.2-0.8,3.3c-0.1,0.5-0.2,0.9-0.3,1.4
				c3.8-4.6,16.8-17.4,24.3-17.4c3.2,0-8.3,16.3-10.8,20.4c0,0-0.9-0.8-4.1-1.7c2.8,4.7,2,5.2,2,5.2s-2.2-0.9-5.8-1.6
				c2,0.6,5,2.5,6.1,3.3c0.3-0.5,0.6-1,0.8-1.6c0.7-1.2,1.4-2.4,2.1-3.6c0.6-0.9,1.2-1.9,1.8-2.8c1.5-2.2,3-4.4,4.6-6.6
				c3.6-4.8,7.6-9.3,12.1-13.3c0.2-0.2,0.5-0.4,0.7-0.6c0.1-0.1,0.1-0.1,0.2-0.2C48.6,25,48.1,24.4,48.1,24.4z"/>
			<g>
				<path fill="#C7EEFF" d="M35.1,61.3c0,0-1-0.6-2.5-1.5c-0.4-0.2-0.8-0.5-1.2-0.8c-0.4-0.3-0.9-0.6-1.3-0.9
					c-0.5-0.3-0.9-0.6-1.4-1c-0.5-0.4-0.9-0.7-1.4-1.1c-0.9-0.7-1.8-1.5-2.6-2.3c-0.4-0.3-0.8-0.7-1.2-1c-0.4-0.3-0.8-0.6-1.1-0.9
					c-0.4-0.3-0.7-0.5-1-0.7c-0.3-0.2-0.6-0.4-0.8-0.5c-0.4-0.3-0.7-0.5-0.7-0.5s0.3,0.1,0.8,0.3c0.2,0.1,0.5,0.2,0.9,0.4
					c0.3,0.2,0.7,0.3,1.1,0.6c0.4,0.2,0.8,0.5,1.2,0.7c0.2,0.1,0.4,0.3,0.7,0.4c0.2,0.2,0.4,0.3,0.7,0.5c0.4,0.3,0.9,0.7,1.3,1.1
					c0.4,0.4,0.9,0.7,1.4,1.1c0.4,0.4,0.9,0.7,1.4,1.1c0.5,0.4,0.9,0.7,1.3,1c0.9,0.7,1.7,1.3,2.4,1.9
					C34.2,60.5,35.1,61.3,35.1,61.3z"/>
			</g>
		</g>
		<g>
			<path opacity="0.3" fill="#10659E" enable-background="new    " d="M155.2,121.8c0,0,9.1,2,20.4-1.4c1-2.5,1.9-4.9,2.7-7.4
				C173.9,116,163.6,122.2,155.2,121.8z"/>
			<path opacity="0.3" fill="#10659E" enable-background="new    " d="M152.5,70.1c0,0,6.6-13.8,10.8-16c0.9,0.9,1.5,1.3,1.5,1.3
				s4-5.5,4.9-6c0.9-0.6,1.9-0.8,1.9-0.8l3.2,5.4c0,0-1.3,17.7-2.6,18.2c-1.3,0.5-19.9-1.7-19.9-1.7"/>
			<g>
				
					<linearGradient id="SVGID_16_" gradientUnits="userSpaceOnUse" x1="645.9595" y1="189.3457" x2="645.9595" y2="-7.0717" gradientTransform="matrix(-1 0 0 -1 819.1943 200)">
					<stop  offset="0" style="stop-color:#8FC4F7"/>
					<stop  offset="1" style="stop-color:#B5A3F5"/>
				</linearGradient>
				<path fill="url(#SVGID_16_)" d="M153.1,121.8c0.6-0.2,11.5,1.4,27-10.1s16.6-24.6,16.2-29.8l-5.2,5c0,0,4.8-10.9,4.3-19.5
					l-2.4,1.2c0,0,1.7-8.7-2.4-19.3c-1.1,2.2-1.1,2.2-1.1,2.2s-2.6-4.5-2.4-5.2c0.2-0.6-4.5-21.2-8.2-23.8c-3.7-2.6-17.8-8.9-27,2.5
					c13.8,11.8,22.6,28.9,22.6,28.9l-7.7,6.3c0,0,1.9-5.4,3-7.4c-3.2,1.9-8.9,9.7-8.9,9.7l1.7-5.6c0,0-9.9,10.4-12.8,18"/>
				<path fill="#10659E" d="M153.1,121.8c0.7-0.1,1.3,0,2-0.1c0.7,0,1.3-0.1,2-0.2c0.7-0.1,1.3-0.2,2-0.3c0.7-0.1,1.3-0.3,2-0.4
					c0.6-0.2,1.3-0.3,1.9-0.5c0.6-0.2,1.3-0.4,1.9-0.6l1.9-0.7c0.6-0.3,1.2-0.5,1.8-0.8c0.6-0.3,1.2-0.6,1.8-0.9
					c0.6-0.3,1.2-0.6,1.8-0.9l1.7-1c0.6-0.3,1.1-0.7,1.7-1.1c0.6-0.4,1.1-0.7,1.7-1.1l1.6-1.2l0.8-0.6l0.8-0.6l1.6-1.3l0.4-0.3
					l0.4-0.3l0.7-0.7c0.5-0.5,1-0.9,1.5-1.4l1.4-1.4c0.2-0.2,0.5-0.5,0.7-0.7l0.6-0.8c0.4-0.5,0.9-1,1.3-1.6l1.2-1.6
					c0.4-0.5,0.7-1.1,1.1-1.7c0.2-0.3,0.4-0.6,0.5-0.9l0.5-0.9l0.5-0.9c0.2-0.3,0.3-0.6,0.4-0.9c0.3-0.6,0.6-1.2,0.8-1.8
					c0.5-1.2,0.9-2.5,1.2-3.8l0.2-1c0.1-0.3,0.1-0.7,0.2-1c0.1-0.3,0.1-0.7,0.2-1l0.1-1c0.1-1.3,0.2-2.6,0.1-4l0.7,0.3l0,0l-5.2,5
					l-1.5,1.5l0.8-1.9c0.3-0.8,0.6-1.5,0.9-2.3c0.3-0.8,0.6-1.6,0.8-2.4c0.3-0.8,0.5-1.6,0.7-2.4c0.1-0.4,0.2-0.8,0.3-1.2l0.3-1.2
					c0.2-0.8,0.4-1.6,0.5-2.4c0.1-0.4,0.2-0.8,0.2-1.2l0.2-1.2l0.1-1.2c0.1-0.4,0.1-0.8,0.1-1.2c0-0.4,0.1-0.8,0-1.2l0-1.2l0.6,0.4
					l-2.4,1.2l-0.8,0.4l0.2-0.8c0.1-0.4,0.1-0.8,0.2-1.2c0-0.4,0.1-0.8,0.1-1.2c0-0.4,0.1-0.8,0.1-1.2c0-0.4,0-0.8,0-1.2
					c0-0.4,0-0.8,0-1.2c0-0.4,0-0.8-0.1-1.2l-0.1-1.2l-0.1-1.2c0-0.4-0.1-0.8-0.2-1.2c-0.1-0.4-0.1-0.8-0.2-1.2l-0.2-1.2
					c-0.1-0.4-0.2-0.8-0.3-1.2c-0.1-0.4-0.2-0.8-0.3-1.2l-0.4-1.2c-0.1-0.4-0.3-0.8-0.4-1.1l-0.4-1.1l0.8,0l-1.1,2.2l-0.4,0.7
					l-0.4-0.7c-0.6-1.1-1.2-2.2-1.8-3.4c-0.1-0.3-0.3-0.6-0.4-0.9c-0.1-0.2-0.1-0.3-0.2-0.5c0-0.1,0-0.2-0.1-0.3c0-0.1,0-0.2,0-0.4
					l0,0c0,0,0-0.1,0,0l0,0l0-0.1c0,0,0,0,0-0.1c0,0,0,0,0-0.1l0-0.1c0-0.1,0-0.3-0.1-0.5c-0.1-0.3-0.1-0.6-0.2-0.9
					c-0.5-2.5-1.1-4.9-1.8-7.4c-0.7-2.4-1.4-4.9-2.3-7.2c-0.4-1.2-0.9-2.4-1.4-3.5c-0.3-0.6-0.5-1.1-0.8-1.7c-0.3-0.5-0.6-1.1-1-1.5
					c-0.1-0.1-0.2-0.2-0.3-0.3c-0.1,0-0.1-0.1-0.2-0.1l-0.2-0.1c-0.3-0.2-0.5-0.3-0.8-0.5c-0.5-0.3-1.1-0.6-1.7-0.9
					c-1.1-0.5-2.3-1-3.5-1.4c-2.4-0.7-4.9-1.2-7.4-1.1c-1.2,0-2.5,0.2-3.7,0.4c-1.2,0.3-2.4,0.7-3.5,1.3c-1.1,0.6-2.1,1.2-3.1,2
					c-0.9,0.8-1.8,1.7-2.6,2.7l-0.1-0.6l1.7,1.6l0.9,0.8l0.8,0.8c0.5,0.5,1.1,1.1,1.6,1.6l1.6,1.7c0.5,0.6,1,1.1,1.5,1.7
					c0.5,0.6,1,1.2,1.5,1.8l1.5,1.8c0.5,0.6,0.9,1.2,1.4,1.8c0.5,0.6,0.9,1.2,1.4,1.8c0.5,0.6,0.9,1.2,1.4,1.9l1.3,1.9l1.3,1.9
					l1.2,1.9c0.4,0.7,0.8,1.3,1.2,2c0.8,1.3,1.6,2.7,2.3,4l0.2,0.3l-0.3,0.2l-7.7,6.3l-1.2,1l0.5-1.5c0.2-0.6,0.5-1.2,0.7-1.9
					l0.4-0.9c0.1-0.3,0.2-0.6,0.4-0.9l0.4-0.9c0.1-0.3,0.2-0.6,0.4-0.9l0.9-1.8l0.6,0.6c-0.2,0.1-0.4,0.3-0.6,0.4l-0.6,0.5
					c-0.4,0.4-0.8,0.7-1.2,1.1c-0.2,0.2-0.4,0.4-0.6,0.6c-0.2,0.2-0.4,0.4-0.6,0.6c-0.4,0.4-0.7,0.8-1.1,1.2
					c-1.4,1.7-2.8,3.4-4.1,5.2l-1.5,2.1l0.8-2.5l1.7-5.6l0.7,0.4l0,0c-1.3,1.3-2.5,2.7-3.7,4c-0.6,0.7-1.2,1.4-1.8,2.1
					c-0.6,0.7-1.2,1.4-1.7,2.2c-0.3,0.4-0.6,0.7-0.8,1.1c-0.3,0.4-0.6,0.7-0.8,1.1l-0.8,1.1l-0.8,1.2c-0.3,0.4-0.5,0.8-0.7,1.2
					c-0.2,0.4-0.5,0.8-0.7,1.2c-0.2,0.4-0.4,0.8-0.6,1.2l-0.6,1.3l0.5-1.3c0.2-0.4,0.4-0.8,0.6-1.3c0.2-0.4,0.4-0.8,0.6-1.2
					c0.2-0.4,0.4-0.8,0.7-1.2l0.7-1.2l0.8-1.2c0.2-0.4,0.5-0.8,0.8-1.1c0.3-0.4,0.5-0.8,0.8-1.1c0.5-0.8,1.1-1.5,1.7-2.2
					c0.6-0.7,1.1-1.5,1.7-2.2c1.2-1.4,2.4-2.8,3.6-4.2l0,0l1.3-1.3l-0.5,1.8l-1.7,5.6l-0.8-0.4c1.3-1.8,2.7-3.5,4.1-5.2
					c0.4-0.4,0.7-0.8,1.1-1.2c0.2-0.2,0.4-0.4,0.6-0.6c0.2-0.2,0.4-0.4,0.6-0.6c0.4-0.4,0.8-0.8,1.2-1.2L169,53
					c0.2-0.2,0.5-0.3,0.7-0.5l1.3-0.9l-0.7,1.5l-0.8,1.8c-0.1,0.3-0.3,0.6-0.4,0.9l-0.4,0.9c-0.1,0.3-0.3,0.6-0.4,0.9l-0.4,0.9
					c-0.2,0.6-0.5,1.2-0.7,1.9l-0.7-0.5l7.7-6.3l-0.1,0.5c-0.7-1.3-1.5-2.7-2.3-4c-0.4-0.7-0.8-1.3-1.2-2l-1.2-1.9l-1.3-1.9
					l-1.3-1.9c-0.4-0.6-0.9-1.2-1.3-1.9c-0.4-0.6-0.9-1.2-1.4-1.8c-0.5-0.6-0.9-1.2-1.4-1.8l-1.5-1.8c-0.5-0.6-1-1.2-1.5-1.7
					c-0.5-0.6-1-1.2-1.5-1.7l-1.6-1.7c-0.5-0.5-1.1-1.1-1.6-1.6l-0.8-0.8l-0.8-0.8l-1.7-1.5l-0.3-0.3l0.3-0.3c0.8-1,1.7-1.9,2.7-2.8
					c1-0.8,2.1-1.6,3.3-2.1c1.2-0.6,2.4-1,3.7-1.3c1.3-0.3,2.6-0.4,3.9-0.5c2.6,0,5.2,0.4,7.6,1.2c1.2,0.4,2.4,0.9,3.6,1.4
					c0.6,0.3,1.2,0.6,1.7,0.9c0.3,0.2,0.6,0.3,0.8,0.5l0.2,0.1c0.1,0.1,0.1,0.1,0.2,0.2l0.2,0.2c0.1,0.1,0.1,0.1,0.2,0.2
					c0.5,0.5,0.8,1.1,1.1,1.6c0.3,0.6,0.6,1.2,0.9,1.7c0.5,1.2,1,2.4,1.4,3.6c0.9,2.4,1.6,4.9,2.3,7.3c0.7,2.5,1.3,4.9,1.8,7.4
					c0.1,0.3,0.1,0.6,0.2,0.9c0,0.2,0.1,0.3,0.1,0.5l0,0.1l0,0.2c0,0.1,0,0.1,0,0.2l0,0.1l0,0c0,0.2,0,0,0,0.1l0,0c0-0.1,0,0,0,0.1
					c0,0.1,0,0.1,0,0.2c0,0.1,0.1,0.3,0.1,0.4c0.1,0.3,0.2,0.6,0.4,0.8c0.5,1.1,1.1,2.2,1.8,3.3l-0.8,0l1.1-2.2l0.5-0.9l0.3,0.9
					l0.4,1.2c0.1,0.4,0.3,0.8,0.4,1.2l0.4,1.2c0.1,0.4,0.2,0.8,0.3,1.2c0.1,0.4,0.2,0.8,0.3,1.2l0.2,1.2c0.1,0.4,0.1,0.8,0.2,1.2
					c0.1,0.4,0.1,0.8,0.2,1.2l0.1,1.2l0.1,1.2c0,0.4,0,0.8,0.1,1.2c0,0.4,0,0.8,0,1.2c0,0.4,0,0.8,0,1.2c0,0.4,0,0.8-0.1,1.2
					c0,0.4-0.1,0.8-0.1,1.2c0,0.4-0.1,0.8-0.2,1.2l-0.6-0.5l2.4-1.2l0.6-0.3l0,0.7l0,1.3c0,0.4,0,0.9,0,1.3c0,0.4,0,0.9-0.1,1.3
					l-0.1,1.3l-0.2,1.3c-0.1,0.4-0.1,0.8-0.2,1.2c-0.1,0.8-0.3,1.7-0.5,2.5l-0.3,1.2c-0.1,0.4-0.2,0.8-0.3,1.2
					c-0.2,0.8-0.5,1.6-0.7,2.4c-0.3,0.8-0.5,1.6-0.8,2.4c-0.3,0.8-0.6,1.6-0.9,2.4l-0.7-0.5l5.2-5l0,0l0.6-0.6l0.1,0.9
					c0.1,1.4,0.1,2.8,0,4.1l-0.1,1c0,0.3-0.1,0.7-0.2,1c-0.1,0.3-0.1,0.7-0.2,1l-0.2,1c-0.3,1.3-0.7,2.6-1.2,3.9
					c-0.2,0.7-0.5,1.3-0.8,1.9c-0.1,0.3-0.3,0.6-0.4,0.9l-0.5,0.9l-0.5,0.9c-0.2,0.3-0.4,0.6-0.5,0.9c-0.4,0.6-0.7,1.2-1.1,1.7
					l-1.2,1.7c-0.4,0.6-0.9,1.1-1.3,1.6l-0.7,0.8c-0.2,0.3-0.5,0.5-0.7,0.7l-1.4,1.5c-0.5,0.5-1,0.9-1.5,1.4l-0.8,0.7l-0.4,0.3
					l-0.4,0.3l-1.6,1.2l-0.8,0.6l-0.8,0.6l-1.7,1.2c-0.6,0.4-1.1,0.7-1.7,1.1c-0.6,0.3-1.1,0.7-1.7,1l-1.8,1
					c-0.6,0.3-1.2,0.6-1.8,0.9c-0.6,0.3-1.2,0.6-1.9,0.8c-0.6,0.3-1.3,0.5-1.9,0.8l-1.9,0.7c-0.6,0.2-1.3,0.4-2,0.6
					c-0.7,0.2-1.3,0.3-2,0.5c-0.7,0.1-1.3,0.3-2,0.4c-0.7,0.1-1.3,0.2-2,0.2c-0.7,0.1-1.3,0.1-2,0.1
					C154.4,121.9,153.8,121.8,153.1,121.8z"/>
			</g>
			<g>
				<path fill="#C7EEFF" d="M150.9,73.1c0,0,0.6-1,1.5-2.4c0.5-0.7,1-1.5,1.6-2.4c0.3-0.4,0.6-0.9,0.9-1.3c0.3-0.4,0.7-0.9,1-1.3
					c0.3-0.4,0.7-0.9,1-1.3c0.3-0.4,0.7-0.9,1-1.3c0.6-0.8,1.3-1.6,1.9-2.2c1.1-1.2,1.9-2,1.9-2s-0.6,1-1.5,2.3
					c-0.2,0.3-0.5,0.7-0.8,1.1c-0.3,0.4-0.6,0.8-0.9,1.2c-0.3,0.4-0.6,0.9-0.9,1.3c-0.3,0.4-0.7,0.9-1,1.3c-0.3,0.4-0.7,0.9-1,1.3
					c-0.3,0.4-0.7,0.9-1,1.3c-0.6,0.8-1.3,1.6-1.8,2.2C151.7,72.3,150.9,73.1,150.9,73.1z"/>
			</g>
			<g>
				<path fill="#C7EEFF" d="M160.3,64.4c0,0,0.4-0.7,1.1-1.7c0.4-0.5,0.8-1,1.3-1.6c0.2-0.3,0.5-0.6,0.7-0.9
					c0.3-0.3,0.5-0.6,0.8-0.9c0.3-0.3,0.5-0.6,0.8-0.9c0.3-0.3,0.5-0.6,0.8-0.9c0.2-0.3,0.5-0.5,0.7-0.8c0.2-0.3,0.4-0.5,0.7-0.7
					c0.2-0.2,0.4-0.4,0.6-0.6c0.2-0.2,0.3-0.3,0.4-0.5c0.2-0.3,0.4-0.4,0.4-0.4s-0.1,0.2-0.2,0.5c-0.1,0.2-0.2,0.3-0.3,0.6
					c-0.1,0.2-0.3,0.4-0.4,0.7c-0.3,0.5-0.7,1.1-1.2,1.7c-0.2,0.3-0.5,0.6-0.7,0.9c-0.3,0.3-0.5,0.6-0.8,0.9
					c-0.3,0.3-0.5,0.6-0.8,0.9c-0.3,0.3-0.5,0.6-0.8,0.8c-0.5,0.5-1,1-1.5,1.4C161,63.9,160.3,64.4,160.3,64.4z"/>
			</g>
			<g>
				<path fill="#10659E" d="M174.4,53.6c0,0,0.1-0.1,0.3-0.2c0.2-0.1,0.5-0.3,0.8-0.5c0.2-0.1,0.4-0.2,0.5-0.3
					c0.2-0.1,0.4-0.2,0.6-0.3c0.4-0.2,0.9-0.5,1.4-0.7c0.2-0.1,0.5-0.2,0.7-0.3c0.2-0.1,0.5-0.2,0.7-0.3c0.4-0.2,0.9-0.3,1.2-0.4
					c0.7-0.2,1.2-0.4,1.2-0.4s-0.5,0.2-1.2,0.5c-0.4,0.1-0.7,0.4-1.2,0.6c-0.2,0.1-0.4,0.2-0.6,0.3c-0.2,0.1-0.4,0.3-0.7,0.4
					c-0.4,0.2-0.9,0.5-1.3,0.8c-0.2,0.1-0.4,0.3-0.6,0.4c-0.2,0.1-0.3,0.2-0.5,0.4c-0.3,0.2-0.5,0.4-0.7,0.6
					c-0.2,0.1-0.3,0.2-0.3,0.2L174.4,53.6z"/>
			</g>
			<g>
				
					<linearGradient id="SVGID_17_" gradientUnits="userSpaceOnUse" x1="661.6385" y1="174.7321" x2="661.6385" y2="168.7047" gradientTransform="matrix(-1 0 0 -1 819.1943 200)">
					<stop  offset="0" style="stop-color:#8FC4F7"/>
					<stop  offset="1" style="stop-color:#B5A3F5"/>
				</linearGradient>
				<path fill="url(#SVGID_17_)" d="M155.9,28.7c0,0,0.6-1.7,3.3-3.2"/>
				<path fill="#10659E" d="M155.5,28.5c0,0,0-0.1,0.1-0.2c0.1-0.1,0.2-0.3,0.3-0.5c0.2-0.2,0.3-0.4,0.5-0.6
					c0.1-0.1,0.2-0.2,0.3-0.3c0.1-0.1,0.2-0.2,0.4-0.3c0.1-0.1,0.2-0.2,0.4-0.3c0.1-0.1,0.2-0.2,0.4-0.2c0.1-0.1,0.2-0.1,0.3-0.2
					c0.1-0.1,0.2-0.1,0.3-0.2c0.4-0.2,0.7-0.3,0.7-0.3s-0.2,0.2-0.6,0.4c-0.1,0.1-0.2,0.1-0.3,0.2c-0.1,0.1-0.2,0.2-0.3,0.3
					c-0.1,0.1-0.2,0.2-0.3,0.3c-0.1,0.1-0.2,0.2-0.3,0.3c-0.1,0.1-0.2,0.2-0.3,0.3c-0.1,0.1-0.2,0.2-0.2,0.3
					c-0.2,0.2-0.3,0.4-0.4,0.6c-0.1,0.2-0.2,0.3-0.2,0.4c0,0.1,0,0.1,0,0.1c0,0,0,0.1,0,0.1L155.5,28.5z"/>
			</g>
			<g>
				<path fill="#10659E" d="M173.5,52.4c0,0,0.2-0.4,0.6-1c0.2-0.3,0.4-0.6,0.6-1c0.2-0.4,0.5-0.7,0.8-1.1c0.5-0.8,1.1-1.5,1.5-2.1
					c0.4-0.6,0.7-0.9,0.7-0.9s-0.2,0.4-0.6,1c-0.3,0.6-0.8,1.4-1.2,2.2c-0.2,0.4-0.4,0.8-0.6,1.2c-0.2,0.4-0.4,0.7-0.5,1.1
					c-0.3,0.6-0.5,1-0.5,1L173.5,52.4z"/>
			</g>
			<g>
				<path fill="#10659E" d="M187,47.1c0,0-2.1-2.7-4.3-5.5c-1.1-1.4-2.2-2.7-3-3.7c-0.4-0.5-0.8-0.9-1-1.2c-0.1-0.1-0.2-0.3-0.3-0.3
					c-0.1-0.1-0.1-0.1-0.1-0.1s0,0,0.1,0.1c0.1,0.1,0.2,0.2,0.3,0.3c0.3,0.3,0.6,0.7,1.1,1.1c0.9,1,2.1,2.2,3.2,3.5
					c2.3,2.6,4.6,5.2,4.6,5.2L187,47.1z"/>
			</g>
			<path opacity="0.3" fill="#10659E" enable-background="new    " d="M153.2,24.4c0.9-1,1.8-1.8,2.9-2.6c1.2-0.8,2.4-1.4,3.7-1.9
				l0,0c0,0,0,0,0,0c0.6-0.2,1.1-0.4,1.7-0.5c0,0,0.1,0,0.2,0c0.2-0.1,0.5-0.1,0.7-0.2c0.3-0.1,0.6-0.1,0.9-0.1
				c0.3,0,0.5-0.1,0.8-0.1c2.4-0.2,4.9,0.1,7.3,0.7c2.5,0.7,5,1.6,7.2,3.1c0.7,0.5,1.2,1.2,1.6,1.9c0.6,1,1,2,1.4,3
				c0.9,2.1,1.6,4.3,2.2,6.5c0.7,2.2,1.3,4.4,1.8,6.7c0.3,1.1,0.5,2.2,0.8,3.3c0.1,0.5,0.2,0.9,0.3,1.4
				c-3.8-4.6-16.8-17.4-24.3-17.4c-3.2,0,8.3,16.3,10.8,20.4c0,0,0.9-0.8,4.1-1.7c-2.8,4.7-2,5.2-2,5.2s2.2-0.9,5.8-1.6
				c-2,0.6-5,2.5-6.1,3.3c-0.3-0.5-0.6-1-0.8-1.6c-0.7-1.2-1.4-2.4-2.1-3.6c-0.6-0.9-1.2-1.9-1.8-2.8c-1.5-2.2-3-4.4-4.6-6.6
				c-3.6-4.8-7.6-9.3-12.1-13.3c-0.2-0.2-0.5-0.4-0.7-0.6c-0.1-0.1-0.1-0.1-0.2-0.2C152.7,25,153.1,24.4,153.2,24.4z"/>
			<g>
				<path fill="#C7EEFF" d="M166.2,61.3c0,0,0.9-0.8,2.3-1.9c0.7-0.6,1.5-1.2,2.4-1.9c0.4-0.3,0.9-0.7,1.3-1
					c0.5-0.4,0.9-0.7,1.4-1.1c0.5-0.4,0.9-0.7,1.4-1.1c0.4-0.4,0.9-0.7,1.3-1.1c0.2-0.2,0.4-0.3,0.7-0.5c0.2-0.2,0.4-0.3,0.7-0.4
					c0.4-0.3,0.9-0.5,1.2-0.7c0.4-0.2,0.8-0.4,1.1-0.6c0.3-0.2,0.6-0.3,0.9-0.4c0.5-0.2,0.8-0.3,0.8-0.3s-0.2,0.2-0.7,0.5
					c-0.2,0.1-0.5,0.3-0.8,0.5c-0.3,0.2-0.6,0.4-1,0.7c-0.3,0.3-0.7,0.5-1.1,0.9c-0.4,0.3-0.8,0.6-1.2,1c-0.8,0.7-1.7,1.5-2.6,2.3
					c-0.5,0.4-0.9,0.7-1.4,1.1c-0.5,0.3-0.9,0.7-1.4,1c-0.5,0.3-0.9,0.6-1.3,0.9c-0.4,0.3-0.8,0.5-1.2,0.8
					C167.3,60.8,166.2,61.3,166.2,61.3z"/>
			</g>
		</g>
		<g opacity="0.7">
			
				<ellipse transform="matrix(0.3203 -0.9473 0.9473 0.3203 -68.3343 148.4332)" fill="#8432CC" cx="69.3" cy="121.8" rx="3.6" ry="4.4"/>
			
				<ellipse transform="matrix(0.5973 -0.802 0.802 0.5973 -68.5304 91.5401)" fill="#8432CC" cx="56.9" cy="114" rx="2.6" ry="3.2"/>
			
				<ellipse transform="matrix(0.5973 0.802 -0.802 0.5973 160.8083 -61.4524)" fill="#8432CC" cx="141.6" cy="129.4" rx="2.6" ry="3.2"/>
			
				<ellipse transform="matrix(-0.574 -0.8189 0.8189 -0.574 106.2781 306.3845)" fill="#8432CC" cx="132.8" cy="125.5" rx="3.6" ry="4.4"/>
			
				<ellipse transform="matrix(0.3203 -0.9473 0.9473 0.3203 -62.1288 164.4197)" fill="#8432CC" cx="83.5" cy="125.5" rx="1.8" ry="2.2"/>
			
				<ellipse transform="matrix(0.3203 0.9473 -0.9473 0.3203 207.5165 -54.3015)" fill="#8432CC" cx="141.6" cy="117.5" rx="1.8" ry="2.2"/>
			
				<ellipse transform="matrix(0.3203 -0.9473 0.9473 0.3203 -69.5381 177.2413)" fill="#8432CC" cx="88.7" cy="137.1" rx="1.8" ry="2.2"/>
			
				<ellipse transform="matrix(-0.4498 -0.8931 0.8931 -0.4498 59.4226 283.9395)" fill="#8432CC" cx="117.2" cy="123.7" rx="1.8" ry="2.2"/>
			
				<ellipse transform="matrix(0.3202 -0.9473 0.9473 0.3202 -72.5341 162.7234)" fill="#8432CC" cx="77.1" cy="131.9" rx="0.9" ry="1.1"/>
			
				<ellipse transform="matrix(0.3202 -0.9473 0.9473 0.3202 -79.9619 143.389)" fill="#8432CC" cx="59.9" cy="127.4" rx="0.9" ry="1.1"/>
			
				<ellipse transform="matrix(0.3202 0.9473 -0.9473 0.3202 209.9218 -28.7462)" fill="#8432CC" cx="125" cy="131.9" rx="0.9" ry="1.1"/>
			
				<ellipse transform="matrix(0.3202 0.9473 -0.9473 0.3202 212.2412 -15.3934)" fill="#8432CC" cx="116.8" cy="140.2" rx="0.9" ry="1.1"/>
		</g>
	</g>
</g>
</svg>
