<?xml version="1.0" encoding="UTF-8" standalone="no"?>
<!-- Generator: Adobe Illustrator 18.0.0, SVG Export Plug-In . SVG Version: 6.00 Build 0) -->

<svg
   xmlns:dc="http://purl.org/dc/elements/1.1/"
   xmlns:cc="http://creativecommons.org/ns#"
   xmlns:rdf="http://www.w3.org/1999/02/22-rdf-syntax-ns#"
   xmlns:svg="http://www.w3.org/2000/svg"
   xmlns="http://www.w3.org/2000/svg"
   xmlns:sodipodi="http://sodipodi.sourceforge.net/DTD/sodipodi-0.dtd"
   xmlns:inkscape="http://www.inkscape.org/namespaces/inkscape"
   id="Layer_1"
   xml:space="preserve"
   version="1.1"
   viewBox="0 0 200 200"
   enable-background="new 0 0 200 200"
   inkscape:version="0.48.4 r9939"
   width="100%"
   height="100%"
   sodipodi:docname="Phil.svg"><metadata
     id="metadata6820"><rdf:RDF><cc:Work
         rdf:about=""><dc:format>image/svg+xml</dc:format><dc:type
           rdf:resource="http://purl.org/dc/dcmitype/StillImage" /></cc:Work></rdf:RDF></metadata><defs
     id="defs6818" /><sodipodi:namedview
     pagecolor="#ffffff"
     bordercolor="#666666"
     borderopacity="1"
     objecttolerance="10"
     gridtolerance="10"
     guidetolerance="10"
     inkscape:pageopacity="0"
     inkscape:pageshadow="2"
     inkscape:window-width="640"
     inkscape:window-height="480"
     id="namedview6816"
     showgrid="false"
     inkscape:zoom="1.18"
     inkscape:cx="2.1186441"
     inkscape:cy="100"
     inkscape:window-x="0"
     inkscape:window-y="0"
     inkscape:window-maximized="0"
     inkscape:current-layer="Layer_1" /><ellipse
     rx="91.199997"
     ry="91.199997"
     cy="92.599998"
     cx="99.400002"
     enable-background="new "
     id="ellipse6551"
     sodipodi:cx="99.400002"
     sodipodi:cy="92.599998"
     sodipodi:rx="91.199997"
     sodipodi:ry="91.199997"
     transform="translate(-0.6375,2.5499992)"
     style="opacity:0.1" /><linearGradient
     id="SVGID_1_"
     y2="-6.8232"
     gradientUnits="userSpaceOnUse"
     x2="100.37"
     gradientTransform="matrix(1,0,0,-1,-0.6375,202.55)"
     y1="189.6"
     x1="100.37"><stop
       stop-color="#8FC4F7"
       offset="0"
       id="stop6554" /><stop
       stop-color="#B5A3F5"
       offset="1"
       id="stop6556" /></linearGradient><path
     stroke-miterlimit="10"
     d="m 172.6625,128.95 c 5.5,-10.8 8.8,-22.9 8.8,-35.600001 0,-46.6 -36.6,-84.3999998 -81.7,-84.3999998 -45.1,0 -81.8,37.8999998 -81.8,84.4999998 0,10.000001 2,19.500001 5.6,28.400001 -0.4,-0.1 -0.7,-0.1 -1.1,-0.1 0.7,2.8 2.6,5.5 4.9,8.2 1.7,3.2 3.5,6.2 5.6,9.2 -0.9,-0.1 -2,-0.1 -2.9,-0.2 1.8,5.3 9.6,10.1 13.8,13.3 -2,-0.4 -4,-0.4 -6,-1.2 4.3,3.9 10,7.8 15.8,9.7 0.3,0.2 0.5,0.4 0.8,0.6 -1.5,0.3 -3.1,0.7 -4.8,0.5 5.1,2.2 10.6,4.5 15.7,6.5 4.6,2.5 13.9,6.1 13.9,6.1 0,0 13.7,16.2 17.5,20.6 l -1.4,-5 c 0,0 2.3,1.9 3.9,2.7 -0.4,-2.7 -1.8,-5.5 -1.8,-5.5 0,0 5.9,-8.5 14,-10.5 4.3,-0.8 8.7,-2.1 12.9,-3.7 8.9,-2.3 18.6,-6.3 25.6,-11.8 -1.3,0.2 -2.8,-0.1 -4.1,0.1 6.2,-5.8 13.7,-9.3 18.9,-16.4 -0.8,0.3 -1.9,0.4 -2.8,0.5 0.1,-0.2 0.3,-0.3 0.4,-0.5 5.5,-3.2 12.9,-10.8 15.8,-15.8 -1.9,0 -3.8,0 -5.5,-0.2 z"
     id="path6558"
     style="fill:url(#SVGID_1_);stroke:#10659e;stroke-width:2;stroke-miterlimit:10"
     inkscape:connector-curvature="0" /><path
     d="m 78.6625,173.65 c 0,0 0.3,0.1 0.7,0.3 0.5,0.2 1.1,0.4 1.9,0.6 0.4,0.1 0.8,0.2 1.3,0.4 0.5,0.1 0.9,0.3 1.5,0.4 0.5,0.1 1,0.3 1.6,0.4 0.5,0.1 1.1,0.2 1.6,0.4 0.5,0.1 1.1,0.2 1.6,0.4 0.5,0.1 1.1,0.2 1.6,0.3 l 1.5,0.3 c 0.5,0.1 0.9,0.1 1.3,0.2 1.7,0.2 2.8,0.4 2.8,0.4 0,0 -1.1,-0.1 -2.8,-0.3 -0.4,0 -0.9,-0.1 -1.4,-0.2 -0.5,-0.1 -1,-0.1 -1.5,-0.2 -0.5,-0.1 -1.1,-0.1 -1.6,-0.2 -0.5,-0.1 -1.1,-0.2 -1.7,-0.3 -0.6,-0.1 -1.1,-0.2 -1.7,-0.3 -0.5,-0.1 -1.1,-0.2 -1.6,-0.3 l -1.5,-0.3 c -0.5,-0.1 -0.9,-0.2 -1.3,-0.3 -0.8,-0.2 -1.5,-0.4 -2,-0.5 -0.5,-0.1 -0.7,-0.2 -0.7,-0.2 l 0.4,-1 z"
     id="path6560"
     inkscape:connector-curvature="0"
     style="fill:#10659e" /><linearGradient
     id="SVGID_2_"
     y2="214.54"
     gradientUnits="userSpaceOnUse"
     x2="99.701"
     gradientTransform="matrix(1,0,0,-1,-0.6375,202.55)"
     y1="169.45"
     x1="99.701"><stop
       stop-color="#93C8F7"
       offset="0"
       id="stop6563" /><stop
       stop-color="#C3BCF4"
       offset="1"
       id="stop6565" /></linearGradient><path
     d="m 99.7625,9.7499992 c -27.3,0 -51.4,13.8999998 -66.2,35.1999998 2,7.8 6.9,16.1 18.5,16.5 22.2,0.8 30.9,-19.7 48.8,-19.5 17.9,0.2 38.2,21.6 50.7,16.5 4.6,-1.8 9.6,-8 13,-15.4 -14.8,-20.2 -38.4,-33.2999998 -64.8,-33.2999998 z"
     id="path6567"
     style="fill:url(#SVGID_2_)"
     inkscape:connector-curvature="0" /><path
     d="m 103.9625,130.25 v -0.2 c 0,-0.1 -0.1,-0.1 -0.2,-0.1 -0.1,0 -0.2,0.1 -0.3,0.1 -0.2,0.1 -0.4,0.2 -0.6,0.4 l -1.2,0.9 c -0.8,0.6 -1.5,1.3 -2.3,1.9 l -2.3,1.9 c -0.8,0.6 -1.5,1.3 -2.4,1.9 l -0.1,-0.6 1.2,0.1 h 2.4 l 1.2,-0.1 1.2,-0.2 1.2,-0.3 1.2,-0.3 1.2,-0.4 1.8,-0.6 -1.4,1.3 -0.9,0.8 -0.8,0.8 -0.5,1 -0.8,0.8 -0.7,0.9 -0.6,0.9 -0.6,1 -0.5,1 -0.5,-0.6 0.8,-0.2 0.8,-0.1 h 1.6 c 0.5,0 1.1,0 1.6,0.1 h 2.3 l -0.4,0.6 -1.1,1.6 -1.1,1.6 -2.3,3.1 -1.2,1.6 -1.1,1.6 c -0.4,0.5 -0.7,1.1 -1.1,1.6 l -1,1.7 0.4,-0.9 c 0.1,-0.3 0.3,-0.6 0.4,-0.9 0.3,-0.6 0.6,-1.1 1,-1.7 l 1,-1.7 1.1,-1.6 2.2,-3.2 1.1,-1.6 1,-1.6 0.3,0.6 h -4 c -0.3,0 -0.5,0 -0.8,0.1 l -0.7,0.1 -0.7,0.2 -0.9,0.2 0.4,-0.8 0.5,-1.1 c 0.2,-0.3 0.4,-0.7 0.6,-1 0.2,-0.3 0.4,-0.6 0.7,-1 l 0.7,-0.9 0.8,-0.9 0.8,-0.8 0.9,-0.8 0.9,-0.8 0.4,0.7 -1.2,0.4 -1.3,0.3 -1.3,0.2 -1.3,0.2 -1.3,0.1 h -1.3 l -1.3,-0.1 -1.3,-0.2 -0.8,-0.1 0.7,-0.5 c 0.8,-0.5 1.6,-1.2 2.4,-1.8 l 2.4,-1.8 2.4,-1.8 c 0.4,-0.3 0.8,-0.6 1.3,-0.8 0.2,-0.1 0.4,-0.2 0.7,-0.3 0.1,0 0.2,-0.1 0.4,-0.1 0.1,0 0.1,0 0.2,0.1 v 0.1 z"
     id="path6569"
     inkscape:connector-curvature="0"
     style="fill:#10659e" /><path
     d="m 100.0625,157.05 c 0.1,-0.1 0.3,-0.2 0.5,-0.2 h 0.3 c 0.1,0 0.2,0.2 0.2,0.3 0,0.2 0,0.4 -0.1,0.5 0,0.2 -0.1,0.3 -0.2,0.5 -0.3,0.6 -0.6,1.2 -0.9,1.7 -0.3,0.6 -0.7,1.1 -1.1,1.6 -0.4,0.5 -0.7,1.1 -1.1,1.6 l -0.6,-0.5 0.4,-0.3 0.2,-0.2 0.2,-0.2 0.9,-0.6 0.9,-0.5 0.8,-0.6 1,-0.7 -0.3,1.2 c -0.2,0.8 -0.4,1.5 -0.6,2.3 -0.2,0.8 -0.4,1.5 -0.5,2.3 -0.1,0.4 -0.1,0.8 -0.2,1.2 l -0.1,0.6 c 0,0.2 -0.1,0.4 -0.1,0.6 l -0.3,2.4 c 0,-0.8 -0.1,-1.6 -0.1,-2.4 v -1.2 c 0,-0.4 0.1,-0.8 0.1,-1.2 0.1,-0.8 0.3,-1.6 0.4,-2.4 l 0.6,-2.4 0.7,0.4 -0.9,0.7 -0.9,0.5 -0.9,0.5 c -0.1,0 -0.1,0.1 -0.2,0.1 l -0.2,0.1 -0.4,0.3 -2.3,1.6 1.7,-2.1 1.2,-1.5 1.2,-1.5 c 0.4,-0.5 0.8,-1 1.1,-1.6 0.1,-0.1 0.2,-0.3 0.2,-0.4 0.1,-0.1 0.1,-0.3 0.1,-0.4 0,-0.1 -0.1,-0.2 -0.3,-0.2 -0.1,0 -0.3,0.1 -0.4,0.1 z"
     id="path6571"
     inkscape:connector-curvature="0"
     style="fill:#10659e" /><path
     d="m 91.8625,23.349999 -3.1,-0.4 -3.2,-0.4 -3.2,-0.3 -3.2,-0.2 -3.2,-0.1 h -3.2 c -0.5,0 -1,0.1 -1.6,0.1 l -1.6,0.1 c -0.5,0.1 -1,0.2 -1.6,0.2 l -1.6,0.2 v -0.9 l 1.2,0.2 1.2,0.3 1.1,0.3 c 0.2,0.1 0.4,0.1 0.6,0.1 l 0.5,0.1 1.2,0.3 -0.8,0.8 c -0.8,0.4 -1.7,0.8 -2.5,1.2 l -2.6,1 -2.6,0.9 -2.7,0.8 -2.7,0.9 -2.6,0.9 -2.6,1 -2.5,1.1 -0.3,-0.8 0.9,-0.1 h 5.9 l 1.6,-0.1 -1.3,0.9 -3.9,2.7 -0.9,0.7 -0.9,0.7 -0.9,0.8 -0.9,0.8 -0.8,0.9 c -0.3,0.3 -0.5,0.6 -0.8,0.9 -0.2,0.3 -0.5,0.6 -0.7,1 -0.2,0.3 -0.4,0.7 -0.6,1 -0.2,0.4 -0.4,0.7 -0.5,1.1 -0.1,0.4 -0.3,0.7 -0.4,1.1 -0.1,0.4 -0.2,0.8 -0.3,1.1 l -0.1,0.6 -0.1,0.3 c 0,0.1 0,0.2 0.4,0.4 l -0.9,-0.1 c 0.4,0 0.5,-0.1 0.5,-0.2 l 0.1,-0.3 0.1,-0.6 c 0.1,-0.4 0.2,-0.8 0.3,-1.1 0.1,-0.4 0.3,-0.7 0.4,-1.1 0.2,-0.4 0.3,-0.7 0.5,-1.1 0.2,-0.3 0.4,-0.7 0.6,-1 0.2,-0.3 0.4,-0.7 0.7,-1 0.2,-0.3 0.5,-0.6 0.7,-0.9 l 0.8,-0.9 0.8,-0.9 0.9,-0.8 0.9,-0.8 0.9,-0.8 1.8,-1.5 1.8,-1.5 0.3,0.8 h -5.9 l -0.8,-0.2 -2.9,0.4 2.6,-1.2 2.6,-1.2 2.6,-1 2.7,-0.9 2.7,-0.8 2.6,-0.8 2.6,-0.9 2.6,-1 2.5,-1.2 0.1,0.8 -0.6,-0.1 c -0.2,0 -0.4,-0.1 -0.6,-0.1 l -1.1,-0.3 -1.1,-0.3 -1.1,-0.2 -2.7,-0.5 2.7,-0.3 1.6,-0.2 c 0.5,-0.1 1.1,-0.1 1.6,-0.2 l 1.6,-0.1 c 0.5,0 1.1,-0.1 1.6,-0.1 h 3.2 l 3.2,0.2 3.2,0.3 3.2,0.4 3.1,0.5 2.9,0.6 z"
     id="path6573"
     inkscape:connector-curvature="0"
     style="fill:#10659e" /><linearGradient
     id="SVGID_3_"
     y2="157.11"
     gradientUnits="userSpaceOnUse"
     x2="107.99"
     gradientTransform="matrix(1,0,0,-1,-0.6375,202.55)"
     y1="198.86"
     x1="107.99"><stop
       stop-color="#BFE4F7"
       offset="0"
       id="stop6576" /><stop
       stop-color="#BFE4F7"
       stop-opacity="0"
       offset="1"
       id="stop6578" /></linearGradient><path
     enable-background="new "
     d="m 97.9625,33.349999 c -3.9,-2.6 -8.1,-7.3 -13,-6.9 1.2,0.5 2.6,1.5 3.7,2.1 -3.6,-0.1 -7.6,-1.1 -10.8,0.5 0.3,0.2 1.1,0.4 1.4,0.7 -5.7,0.8 -13.8,1.7 -18.4,5.2 0.8,0.2 2.4,1.3 3.5,1.5 -4,2.9 -13.8,10 -6.8,14.5 6.9,4.4 26.3,-7.6 33.1,-9.4 13,-3.4 28.5,-3.6 40.8,2.6 3.9,2 7,6.2 11.2,7.4 8,2.5 13.7,-4.2 17.3,-10.5 -0.7,1.2 -1.6,1.8 -2.4,2.7 -1,-3.9 -3.1,-7.4 -5.8,-10.3 -0.1,0.6 0.1,1.3 0,1.9 -3,-2.7 -4.5,-8.5 -8.8,-8.8 1,8.9 -13,0.1 -18.8,-0.5 1,0.8 1.9,2.1 2.8,2.8 -3.5,-1 -7.2,-1.9 -10.9,-1.9 -0.2,2.9 -0.5,1.8 -2.7,2.7 -0.7,0.3 -4.6,1.5 -5.2,1.7 -2.7,0.8 -5.5,1.9 -8.3,2.5 l -1.9,-0.5 z"
     id="path6580"
     style="opacity:0.6;fill:url(#SVGID_3_)"
     inkscape:connector-curvature="0" /><path
     d="m 107.0625,26.349999 0.5,-0.8 0.5,-0.7 c 0.2,-0.2 0.4,-0.5 0.6,-0.7 0.2,-0.2 0.4,-0.4 0.6,-0.7 0.4,-0.4 0.9,-0.8 1.3,-1.2 0.5,-0.4 0.9,-0.8 1.4,-1.1 l 0.7,-0.5 0.8,-0.5 c 0.5,-0.3 1,-0.6 1.6,-0.9 0.5,-0.3 1.1,-0.6 1.6,-0.8 0.5,-0.3 1.1,-0.5 1.7,-0.8 l 1.4,-0.6 -0.9,1.2 -0.3,0.4 -0.2,0.4 c -0.1,0.3 -0.3,0.6 -0.4,0.9 l -0.4,0.9 c -0.1,0.2 -0.2,0.3 -0.2,0.5 -0.1,0.2 -0.2,0.3 -0.3,0.5 l -0.5,-0.7 2.1,-0.7 2.2,-0.6 2.2,-0.5 2.2,-0.4 1.3,-0.3 -0.9,1 -0.8,0.9 -0.9,0.9 -0.4,-0.7 c 0.4,0 0.8,-0.1 1.3,-0.2 0.4,0 0.8,-0.1 1.3,-0.1 h 2.6 c 0.4,0 0.8,0 1.3,0.1 0.4,0 0.8,0.1 1.2,0.1 l 1.2,0.2 1.2,0.2 1.2,0.3 1.2,0.3 c 0.4,0.1 0.8,0.2 1.2,0.4 0.4,0.1 0.8,0.3 1.2,0.4 0.4,0.1 0.8,0.3 1.2,0.5 0.4,0.2 0.8,0.3 1.1,0.5 0.4,0.2 0.7,0.4 1.1,0.6 0.4,0.2 0.7,0.4 1.1,0.7 -0.4,-0.2 -0.7,-0.4 -1.1,-0.6 -0.4,-0.2 -0.7,-0.4 -1.1,-0.5 -0.4,-0.2 -0.8,-0.3 -1.1,-0.5 -0.4,-0.1 -0.8,-0.3 -1.2,-0.4 l -1.2,-0.3 -1.2,-0.3 -1.2,-0.3 -1.5,-0.3 -1.2,-0.2 -1.2,-0.1 c -0.4,0 -0.8,0 -1.2,-0.1 h -2.4 c -0.4,0 -0.8,0.1 -1.2,0.1 -0.4,0 -0.8,0.1 -1.2,0.1 -0.4,0.1 -0.8,0.1 -1.2,0.2 l -1.2,0.2 0.8,-0.9 0.8,-0.9 0.9,-0.9 0.4,0.7 -2.2,0.4 -2.1,0.5 -2.1,0.6 -2.1,0.7 -1.1,0.3 0.6,-1 c 0.1,-0.1 0.2,-0.3 0.2,-0.4 0.1,-0.1 0.1,-0.3 0.2,-0.4 l 0.4,-0.9 c 0.1,-0.3 0.3,-0.6 0.5,-0.9 l 0.3,-0.5 0.3,-0.5 0.5,0.7 c -0.6,0.2 -1.1,0.4 -1.7,0.6 -0.5,0.2 -1.1,0.5 -1.6,0.7 -0.5,0.3 -1.1,0.5 -1.6,0.8 l -0.8,0.4 -0.8,0.5 c -0.5,0.3 -1,0.7 -1.5,1 -0.5,0.4 -0.9,0.7 -1.4,1.1 l -0.6,0.6 c -0.2,0.2 -0.4,0.4 -0.6,0.7 l -0.6,0.7 -0.6,0.9 z"
     id="path6582"
     inkscape:connector-curvature="0"
     style="fill:#10659e" /><path
     enable-background="new "
     d="m 93.7625,190.45 c -8.2,-12.8 1.3,-12.8 1.3,-12.8 -5.8,-0.5 -11.4,-2 -15.3,-3.3 1.5,1.8 9.2,10.8 14,16.5 v -0.4 z"
     id="path6584"
     inkscape:connector-curvature="0"
     style="opacity:0.3;fill:#10659e" /><path
     enable-background="new "
     d="m 102.4625,47.949999 c -8.3,0 -22.9,6.4 -25.7,9.1 -2.8,2.6 -4.3,4.9 -4.3,4.9 l -1.1,-2.5 -3.4,3.7 c 0,0 -1.6,2.5 -2.2,1.9 -0.5,-0.5 -2.4,2.7 -2.4,2.7 l -2.8,-2.2 c 0,0 -1.6,3.1 -1.4,5.6 0.1,2.5 -2.5,-1.2 -2.5,-1.2 0,0 -2.1,11 -0.9,13.6 1.2,2.6 2,12.2 14.9,19.700001 -1.1,1.1 -3.6,0 -3.6,0 0,0 7.2,7.1 9.5,8.7 -2.2,0.4 -3,0 -3,0 0,0 7.3,11 27.9,11 20.6,0 28.7,-12.3 29.2,-13.1 -1.9,-0.3 -2.3,-0.7 -2.3,-0.7 l 2.3,-2.6 c 0,0 11.4,-0.6 18.7,-18.100001 1.7,-8.5 0,-12.5 0,-12.5 l -1.9,1.7 c 0,0 -1,-8.2 -7.2,-11.4 -0.4,0.9 -1,2.2 -1,2.2 0,0 -5.6,-6.4 -7.5,-7 l 0.4,1.6 c 0,0 -11.5,-15.1 -29.7,-15.1 z"
     id="path6586"
     inkscape:connector-curvature="0"
     style="opacity:0.3;fill:#10659e" /><linearGradient
     id="SVGID_4_"
     y2="-7.0726"
     gradientUnits="userSpaceOnUse"
     x2="103.53"
     gradientTransform="matrix(1,0,0,-1,-0.6375,202.55)"
     y1="189.35"
     x1="103.53"><stop
       stop-color="#8FC4F7"
       offset="0"
       id="stop6589" /><stop
       stop-color="#B5A3F5"
       offset="1"
       id="stop6591" /></linearGradient><path
     stroke-miterlimit="10"
     d="m 71.5625,65.149999 c 0,0 11.7,-15.2 30.8,-15.2 19.1,0 28.7,13.7 31.3,18.6 1,1.7 2.9,3.3 2.9,3.3 0,0 -1.2,-5.1 -1.9,-6.2 3.6,2.6 5.6,7 6.1,9.8 0.6,-1.9 1,-6 0.7,-6.2 -0.3,-0.2 5.6,5.2 4,14.5 1.4,-0.2 1.9,-1.7 1.9,-1.7 0,0 0.1,4.8 -2,8.4 1.3,0.5 3,-0.9 3,-0.9 0,0 -11.4,14.300001 -18.8,15.100001 -2.3,3.8 -3.9,5.3 -5.6,7 -1.7,1.7 1.1,0.5 1.1,0.5 0,0 -7.9,7.9 -22.6,7.9 -14.7,0 -19.7,-4 -22.3,-5.8 -2.6,-1.8 4,0.4 4.4,0.4 0.4,0 -6.6,-2.9 -9.5,-6.5 2.8,0.9 3.5,0.9 3.5,0.9 0,0 -5.7,-6.4 -6.6,-9.100001 -3.4,-0.1 -10.6,-2.5 -14.1,-17.4 -1.1,-5.1 0,-9.1 0,-9.1 l 2.2,4.8 c 0,0 -0.5,-6.7 1.2,-9 0.5,0.6 0.9,2.2 0.9,2.2 0,0 1.2,-1.6 3.2,-1.4 -1,-1.9 0.5,-3.2 0.5,-3.2 l 2.2,0.4 c 1.1,-2.8 1.7,-2.8 2.5,-3.7 -0.1,1.6 1,1.6 1,1.6 z"
     id="path6593"
     style="fill:url(#SVGID_4_);stroke:#10659e;stroke-width:2;stroke-miterlimit:10"
     inkscape:connector-curvature="0" /><g
     id="g6595"
     transform="translate(-0.6375,2.5499992)"
     style="opacity:0.7;fill:#8432cc"><ellipse
       cy="111.5"
       cx="98.900002"
       rx="3.8"
       ry="3.9000001"
       id="ellipse6597"
       sodipodi:cx="98.900002"
       sodipodi:cy="111.5"
       sodipodi:rx="3.8"
       sodipodi:ry="3.9000001"
       d="m 102.7,111.5 c 0,2.15391 -1.70132,3.9 -3.799998,3.9 -2.098682,0 -3.8,-1.74609 -3.8,-3.9 0,-2.15391 1.701318,-3.9 3.8,-3.9 2.098678,0 3.799998,1.74609 3.799998,3.9 z" /><ellipse
       cy="102.1"
       cx="82.699997"
       rx="3.3"
       ry="3.7"
       transform="matrix(0.7208,-0.6932,0.6932,0.7208,-47.67,85.796)"
       id="ellipse6599"
       sodipodi:cx="82.699997"
       sodipodi:cy="102.1"
       sodipodi:rx="3.3"
       sodipodi:ry="3.7"
       d="m 85.999997,102.1 c 0,2.04345 -1.47746,3.7 -3.3,3.7 -1.82254,0 -3.3,-1.65655 -3.3,-3.7 0,-2.04346 1.47746,-3.700002 3.3,-3.700002 1.82254,0 3.3,1.656542 3.3,3.700002 z" /><ellipse
       cy="92.400002"
       cx="78"
       rx="1.3"
       ry="1.5"
       transform="matrix(0.7208,-0.6932,0.6932,0.7208,-42.271,79.895)"
       id="ellipse6601"
       sodipodi:cx="78"
       sodipodi:cy="92.400002"
       sodipodi:rx="1.3"
       sodipodi:ry="1.5"
       d="m 79.3,92.400002 c 0,0.828427 -0.58203,1.5 -1.3,1.5 -0.71797,0 -1.3,-0.671573 -1.3,-1.5 0,-0.828428 0.58203,-1.5 1.3,-1.5 0.71797,0 1.3,0.671572 1.3,1.5 z" /><ellipse
       cy="97.800003"
       cx="76.099998"
       rx="0.69999999"
       ry="0.80000001"
       transform="matrix(0.7208,-0.6931,0.6931,0.7208,-46.568,80.076)"
       id="ellipse6603"
       sodipodi:cx="76.099998"
       sodipodi:cy="97.800003"
       sodipodi:rx="0.69999999"
       sodipodi:ry="0.80000001"
       d="m 76.799998,97.800003 c 0,0.441828 -0.3134,0.8 -0.7,0.8 -0.386599,0 -0.7,-0.358172 -0.7,-0.8 0,-0.441828 0.313401,-0.8 0.7,-0.8 0.3866,0 0.7,0.358172 0.7,0.8 z" /><ellipse
       cy="98.599998"
       cx="88"
       rx="0.69999999"
       ry="0.80000001"
       transform="matrix(0.7208,-0.6931,0.6931,0.7208,-43.739,88.54)"
       id="ellipse6605"
       sodipodi:cx="88"
       sodipodi:cy="98.599998"
       sodipodi:rx="0.69999999"
       sodipodi:ry="0.80000001"
       d="m 88.7,98.599998 c 0,0.441828 -0.313401,0.8 -0.7,0.8 -0.386599,0 -0.7,-0.358172 -0.7,-0.8 0,-0.441827 0.313401,-0.8 0.7,-0.8 0.386599,0 0.7,0.358173 0.7,0.8 z" /><ellipse
       cy="109.3"
       cx="89"
       rx="1.7"
       ry="1.6"
       transform="matrix(0.7208,-0.6932,0.6932,0.7208,-50.897,92.227)"
       id="ellipse6607"
       sodipodi:cx="89"
       sodipodi:cy="109.3"
       sodipodi:rx="1.7"
       sodipodi:ry="1.6"
       d="m 90.7,109.3 c 0,0.88366 -0.761116,1.6 -1.7,1.6 -0.938884,0 -1.7,-0.71634 -1.7,-1.6 0,-0.88365 0.761116,-1.6 1.7,-1.6 0.938884,0 1.7,0.71635 1.7,1.6 z" /><ellipse
       cy="112.7"
       cx="110.5"
       rx="1.7"
       ry="1.6"
       transform="matrix(0.7208,-0.6932,0.6932,0.7208,-47.239,108.08)"
       id="ellipse6609"
       sodipodi:cx="110.5"
       sodipodi:cy="112.7"
       sodipodi:rx="1.7"
       sodipodi:ry="1.6"
       d="m 112.2,112.7 c 0,0.88365 -0.76112,1.6 -1.7,1.6 -0.93888,0 -1.7,-0.71635 -1.7,-1.6 0,-0.88366 0.76112,-1.6 1.7,-1.6 0.93888,0 1.7,0.71634 1.7,1.6 z" /><ellipse
       cy="103"
       cx="91.300003"
       rx="1.7"
       ry="1.6"
       transform="matrix(0.7207,-0.6932,0.6932,0.7207,-45.889,92.033)"
       id="ellipse6611"
       sodipodi:cx="91.300003"
       sodipodi:cy="103"
       sodipodi:rx="1.7"
       sodipodi:ry="1.6"
       d="m 93.000003,103 c 0,0.88366 -0.761116,1.6 -1.7,1.6 -0.938884,0 -1.7,-0.71634 -1.7,-1.6 0,-0.88366 0.761116,-1.6 1.7,-1.6 0.938884,0 1.7,0.71634 1.7,1.6 z" /></g><path
     enable-background="new "
     d="m 118.0625,56.449999 c -3.1,-0.6 -5.3,-0.6 -6.9,-0.1 1,-1.2 2.1,-2.8 2.9,-4.2 -3.4,-1.2 -7.2,-1.9 -11.6,-1.9 -4.1,0 -7.9,0.7 -11.3,1.9 0.7,1.4 1.8,2.9 2.8,4.2 -1.6,-0.4 -3.8,-0.4 -6.7,0.2 -9.6,2 -10.6,9.5 -9.6,10.3 4.4,3.3 23.4,-2.5 21.8,-5.1 -0.5,-0.8 -0.9,-1.7 -1.6,-2.7 1.1,-0.5 2.9,-1.3 4.6,-1.3 1.7,0 3.8,0.7 5.1,1.2 -0.7,1 -1.2,2 -1.7,2.8 -1.7,2.6 17.3,8.5 21.8,5.1 0.9,-0.9 0,-8.4 -9.6,-10.4 z"
     id="path6613"
     inkscape:connector-curvature="0"
     style="opacity:0.3;fill:#10659e" /><path
     d="m 93.5625,59.449999 -0.1,-0.1 c 0,-0.1 -0.1,-0.2 -0.2,-0.3 -0.1,-0.1 -0.2,-0.3 -0.4,-0.4 -0.1,-0.2 -0.3,-0.3 -0.5,-0.5 -0.2,-0.1 -0.5,-0.3 -0.7,-0.5 -0.3,-0.2 -0.6,-0.3 -0.9,-0.4 -0.2,-0.1 -0.3,-0.1 -0.5,-0.2 -0.2,-0.1 -0.3,-0.1 -0.5,-0.1 -0.4,-0.1 -0.7,-0.2 -1.1,-0.2 h -2.2 c -0.3,0 -0.7,0.1 -1,0.1 -0.3,0.1 -0.6,0.1 -0.9,0.2 -0.3,0 -0.5,0.1 -0.7,0.2 -0.2,0.1 -0.4,0.1 -0.6,0.2 -0.3,0.1 -0.5,0.1 -0.5,0.1 0,0 0.2,-0.1 0.5,-0.2 0.2,-0.1 0.3,-0.1 0.6,-0.2 0.2,-0.1 0.5,-0.2 0.7,-0.2 0.3,-0.1 0.6,-0.2 0.9,-0.2 0.3,-0.1 0.7,-0.1 1,-0.2 0.2,0 0.4,-0.1 0.5,-0.1 h 1.8 c 0.4,0 0.8,0.1 1.2,0.1 0.2,0 0.4,0.1 0.6,0.1 0.2,0 0.4,0.1 0.5,0.1 0.3,0.1 0.7,0.2 1,0.4 0.3,0.1 0.6,0.3 0.8,0.5 0.2,0.2 0.5,0.3 0.7,0.5 0.2,0.2 0.3,0.3 0.5,0.4 l 0.3,0.3 0.1,0.1 -0.9,0.5 z"
     id="path6615"
     inkscape:connector-curvature="0"
     style="fill:#10659e" /><radialGradient
     id="SVGID_5_"
     gradientUnits="userSpaceOnUse"
     cy="162.9"
     cx="107.1"
     gradientTransform="matrix(1.0174,-0.2155,-0.2155,-1.0176,13.8825,250.22)"
     r="5.3511"><stop
       stop-color="#FCDFA9"
       offset=".6178"
       id="stop6618" /><stop
       stop-color="#F9B233"
       offset="1"
       id="stop6620" /></radialGradient><path
     stroke-miterlimit="10"
     d="m 94.5625,59.949999 c 0.4,2 -2.3,4.3 -6,5.1 -3.7,0.8 -7.1,-0.2 -7.5,-2.2 -0.4,-2 2.3,-4.3 6,-5.1 3.6,-0.8 7,0.2 7.5,2.2 z"
     id="path6622"
     style="fill:url(#SVGID_5_);stroke:#e07f00;stroke-miterlimit:10"
     inkscape:connector-curvature="0" /><circle
     cy="56.900002"
     cx="89.400002"
     r="1.9"
     id="circle6624"
     sodipodi:cx="89.400002"
     sodipodi:cy="56.900002"
     sodipodi:rx="1.9"
     sodipodi:ry="1.9"
     transform="translate(-0.6375,2.5499992)"
     style="fill:#1d1d1b" /><linearGradient
     id="SVGID_6_"
     y2="136.96"
     gradientUnits="userSpaceOnUse"
     x2="100.27"
     gradientTransform="matrix(1,0,0,-1,-0.6375,202.55)"
     y1="136.96"
     x1="79.16"><stop
       stop-color="#8470CC"
       offset="0"
       id="stop6627" /><stop
       stop-color="#8432CC"
       offset="1"
       id="stop6629" /></linearGradient><path
     stroke-miterlimit="10"
     d="m 98.9625,65.649999 c 0,0 1.4,-2.9 0,-4.3 -1.4,-1.4 -17.4,5.9 -20.5,5.8 1.7,1.9 2.6,3.3 5.8,2.7 3.2,-0.6 11.6,-5.7 14.7,-4.2 z"
     id="path6631"
     style="fill:url(#SVGID_6_);stroke:#440389;stroke-width:2;stroke-miterlimit:10"
     inkscape:connector-curvature="0" /><path
     d="m 98.5625,65.149999 h -0.8 c -0.2,0 -0.5,0 -0.9,0.1 -0.3,0 -0.7,0.1 -1.1,0.2 -0.4,0.1 -0.9,0.2 -1.3,0.3 -0.5,0.1 -0.9,0.2 -1.4,0.4 -0.5,0.2 -1,0.3 -1.5,0.5 l -1.5,0.6 c -1,0.4 -2.1,0.9 -3,1.3 -0.5,0.2 -1,0.4 -1.4,0.6 -0.5,0.2 -0.9,0.3 -1.3,0.4 -0.4,0.1 -0.8,0.2 -1.2,0.2 -0.4,0 -0.7,0 -0.9,-0.1 -0.3,-0.1 -0.4,-0.2 -0.5,-0.2 -0.1,-0.1 -0.2,-0.1 -0.2,-0.1 0,0 0.1,0 0.2,0.1 0.1,0 0.3,0.1 0.5,0.1 0.5,0 1.1,-0.1 1.9,-0.4 0.4,-0.1 0.8,-0.3 1.2,-0.5 0.4,-0.2 0.9,-0.4 1.4,-0.7 0.9,-0.5 2,-1 3,-1.4 0.5,-0.2 1.1,-0.4 1.6,-0.6 0.5,-0.2 1.1,-0.4 1.6,-0.5 l 1.5,-0.3 c 0.5,-0.1 1,-0.1 1.4,-0.1 h 1.2 c 0.3,0 0.7,0.1 0.9,0.1 0.2,0 0.4,0.1 0.6,0.1 -0.1,-0.1 0,-0.1 0,-0.1 z"
     id="path6633"
     inkscape:connector-curvature="0"
     style="fill:#ab6aef" /><path
     d="m 110.9625,59.049999 0.1,-0.1 0.3,-0.3 c 0.1,-0.1 0.3,-0.3 0.5,-0.4 0.2,-0.2 0.4,-0.3 0.7,-0.5 0.3,-0.2 0.5,-0.3 0.8,-0.5 0.3,-0.2 0.6,-0.3 1,-0.4 0.2,-0.1 0.4,-0.1 0.5,-0.1 0.2,0 0.4,-0.1 0.6,-0.1 0.4,0 0.8,-0.1 1.1,-0.1 h 1.8 c 0.2,0 0.4,0.1 0.5,0.1 0.4,0.1 0.7,0.1 1,0.2 0.3,0.1 0.6,0.2 0.9,0.2 0.3,0.1 0.5,0.2 0.7,0.2 0.2,0.1 0.4,0.1 0.6,0.2 0.3,0.1 0.5,0.2 0.5,0.2 0,0 -0.2,-0.1 -0.5,-0.1 -0.2,0 -0.4,-0.1 -0.6,-0.2 -0.2,-0.1 -0.5,-0.1 -0.7,-0.2 -0.3,-0.1 -0.6,-0.1 -0.9,-0.2 -0.3,-0.1 -0.7,-0.1 -1,-0.1 h -2.2 c -0.4,0 -0.7,0.1 -1.1,0.2 -0.2,0 -0.3,0.1 -0.5,0.1 -0.2,0.1 -0.3,0.1 -0.5,0.2 -0.3,0.1 -0.6,0.2 -0.9,0.4 -0.3,0.1 -0.5,0.3 -0.7,0.5 -0.2,0.2 -0.4,0.3 -0.5,0.5 -0.2,0.1 -0.3,0.3 -0.4,0.4 -0.1,0.1 -0.2,0.2 -0.2,0.3 0,0.1 -0.1,0.1 -0.1,0.1 l -0.8,-0.5 z"
     id="path6635"
     inkscape:connector-curvature="0"
     style="fill:#10659e" /><radialGradient
     id="SVGID_7_"
     gradientUnits="userSpaceOnUse"
     cy="88.358"
     cx="459.05"
     gradientTransform="matrix(-1.0174,-0.2155,0.2155,-1.0176,565.5425,250.22)"
     r="5.3513"><stop
       stop-color="#FCDFA9"
       offset=".6178"
       id="stop6638" /><stop
       stop-color="#F9B233"
       offset="1"
       id="stop6640" /></radialGradient><path
     stroke-miterlimit="10"
     d="m 110.7625,59.949999 c -0.4,2 2.3,4.3 6,5.1 3.7,0.8 7.1,-0.2 7.5,-2.2 0.4,-2 -2.3,-4.3 -6,-5.1 -3.7,-0.8 -7.1,0.2 -7.5,2.2 z"
     id="path6642"
     style="fill:url(#SVGID_7_);stroke:#e07f00;stroke-miterlimit:10"
     inkscape:connector-curvature="0" /><circle
     cy="56.900002"
     cx="117.2"
     r="1.9"
     id="circle6644"
     sodipodi:cx="117.2"
     sodipodi:cy="56.900002"
     sodipodi:rx="1.9"
     sodipodi:ry="1.9"
     transform="translate(-0.6375,2.5499992)"
     style="fill:#1d1d1b" /><linearGradient
     id="SVGID_8_"
     y2="136.96"
     gradientUnits="userSpaceOnUse"
     x2="452.73"
     gradientTransform="matrix(-1,0,0,-1,558.3825,202.55)"
     y1="136.96"
     x1="431.62"><stop
       stop-color="#8470CC"
       offset="0"
       id="stop6647" /><stop
       stop-color="#8432CC"
       offset="1"
       id="stop6649" /></linearGradient><path
     stroke-miterlimit="10"
     d="m 106.2625,65.649999 c 0,0 -1.4,-2.9 0,-4.3 1.4,-1.4 17.4,5.9 20.5,5.8 -1.7,1.9 -2.6,3.3 -5.8,2.7 -3.1,-0.6 -11.5,-5.7 -14.7,-4.2 z"
     id="path6651"
     style="fill:url(#SVGID_8_);stroke:#440389;stroke-width:2;stroke-miterlimit:10"
     inkscape:connector-curvature="0" /><path
     d="m 106.6625,65.149999 c 0,0 0.1,0 0.2,-0.1 0.1,0 0.3,-0.1 0.6,-0.1 0.2,0 0.5,-0.1 0.9,-0.1 h 1.2 c 0.4,0 0.9,0 1.4,0.1 l 1.5,0.3 c 0.5,0.1 1.1,0.3 1.6,0.5 0.5,0.2 1.1,0.4 1.6,0.6 1,0.4 2.1,0.9 3,1.4 0.5,0.2 0.9,0.4 1.4,0.7 0.4,0.2 0.8,0.4 1.2,0.5 0.8,0.3 1.4,0.5 1.9,0.4 0.2,0 0.4,-0.1 0.5,-0.1 0.1,0 0.2,-0.1 0.2,-0.1 0,0 -0.1,0 -0.2,0.1 -0.1,0.1 -0.3,0.2 -0.5,0.2 -0.2,0.1 -0.6,0.1 -0.9,0.1 -0.4,0 -0.8,-0.1 -1.2,-0.2 -0.4,-0.1 -0.9,-0.2 -1.3,-0.4 -0.5,-0.2 -0.9,-0.3 -1.4,-0.6 -1,-0.4 -2,-0.9 -3,-1.3 l -1.5,-0.6 c -0.5,-0.2 -1,-0.4 -1.5,-0.5 -0.5,-0.2 -1,-0.3 -1.4,-0.4 -0.5,-0.1 -0.9,-0.2 -1.3,-0.3 -0.4,-0.1 -0.8,-0.1 -1.1,-0.2 -0.3,0 -0.6,-0.1 -0.9,-0.1 h -0.6 c -0.3,0.2 -0.4,0.2 -0.4,0.2 z"
     id="path6653"
     inkscape:connector-curvature="0"
     style="fill:#ab6aef" /><path
     enable-background="new "
     d="m 94.6625,90.249999 c -1.5,-4.9 -2.6,-9.6 -2,-14.8 1,3.2 2.8,5.5 5,7.7 -1.2,-4.6 -2.6,-11.2 1.3,-14.6 -0.2,1.9 0.9,4.6 1,6.5 0.7,-3 1.9,-5.8 3.6,-8.3 -0.1,2.7 1.4,7.2 2.9,9.2 0.6,-0.7 1.7,-0.3 2.1,-0.9 l -13.9,15.2 z"
     id="path6655"
     inkscape:connector-curvature="0"
     style="opacity:0.3;fill:#10659e" /><linearGradient
     id="SVGID_9_"
     y2="12.623"
     gradientUnits="userSpaceOnUse"
     x2="101.07"
     gradientTransform="matrix(1,0,0,-1,-0.6375,202.55)"
     y1="193.89"
     x1="101.07"><stop
       stop-color="#8FC4F7"
       offset="0"
       id="stop6658" /><stop
       stop-color="#B5A3F5"
       offset="1"
       id="stop6660" /></linearGradient><path
     d="m 94.3625,92.849999 c -1.5,-4.9 -2.6,-9.7 -2,-14.8 1,3.2 2.8,5.5 5,7.7 -1.3,-4.7 -2.7,-11.3 1.3,-14.7 -0.2,1.9 0.9,4.6 1,6.5 0.7,-3 1.9,-5.8 3.6,-8.3 -0.1,2.7 1.6,5.7 3.2,7.8 0.6,-0.7 1.7,-1.4 2.2,-2"
     id="path6662"
     style="fill:url(#SVGID_9_)"
     inkscape:connector-curvature="0" /><path
     d="m 94.3625,92.849999 -0.6,-1.8 -0.5,-1.8 -0.5,-1.8 -0.4,-1.9 c -0.1,-0.6 -0.2,-1.2 -0.3,-1.9 l -0.2,-1.9 v -1.9 l 0.1,-1.9 0.1,-1.6 0.6,1.5 0.4,1.1 c 0.1,0.2 0.2,0.3 0.2,0.5 l 0.2,0.5 c 0.1,0.2 0.2,0.3 0.3,0.5 l 0.3,0.5 c 0.1,0.2 0.2,0.3 0.3,0.5 l 0.3,0.5 c 0.2,0.3 0.4,0.6 0.7,0.9 l 0.7,0.9 0.8,0.8 0.8,0.8 -0.8,0.4 c -0.2,-0.6 -0.3,-1.3 -0.5,-1.9 -0.2,-0.6 -0.3,-1.3 -0.4,-1.9 l -0.2,-1 -0.1,-1 c 0,-0.3 -0.1,-0.7 -0.1,-1 v -2 c 0,-0.3 0.1,-0.7 0.1,-1 0,-0.3 0.1,-0.7 0.2,-1 0.1,-0.3 0.2,-0.7 0.3,-1 0.1,-0.3 0.3,-0.6 0.4,-1 0.1,-0.3 0.3,-0.6 0.5,-0.9 0.2,-0.3 0.4,-0.6 0.6,-0.8 l 0.7,-0.7 0.8,-0.8 v 2.8 c 0,0.3 0.1,0.5 0.1,0.8 l 0.2,0.8 c 0.1,0.5 0.2,1.1 0.4,1.6 0.1,0.3 0.1,0.6 0.1,0.8 v 0.8 l -0.8,-0.1 0.6,-2.2 0.9,-2.1 c 0.3,-0.7 0.7,-1.4 1,-2.1 l 1.2,-2 0.5,-0.8 v 2 l 0.1,0.5 c 0,0.2 0.1,0.3 0.1,0.5 l 0.3,1 0.4,1 0.4,1 c 0.2,0.3 0.3,0.6 0.5,0.9 l 0.6,0.9 0.6,0.9 h -0.2 c 0.2,-0.2 0.4,-0.4 0.6,-0.5 l 0.6,-0.5 c 0.2,-0.2 0.4,-0.3 0.6,-0.5 l 0.3,-0.3 c 0.1,-0.1 0.2,-0.2 0.2,-0.3 -0.1,0.1 -0.1,0.2 -0.2,0.3 l -0.3,0.3 c -0.2,0.2 -0.4,0.3 -0.5,0.5 l -0.6,0.5 c -0.2,0.2 -0.4,0.3 -0.5,0.5 l -0.1,0.1 -0.1,-0.1 -0.6,-0.9 -0.6,-0.9 -0.6,-0.9 -0.5,-1 -0.4,-1 c -0.1,-0.3 -0.2,-0.7 -0.3,-1 0,-0.2 -0.1,-0.4 -0.1,-0.5 l -0.1,-0.5 v -1.2 l 0.5,0.2 -1.1,1.9 c -0.3,0.7 -0.6,1.4 -1,2 l -0.8,2.1 -0.6,2.2 -0.6,2.2 -0.1,-1.9 v -0.8 c -0.1,-0.3 -0.1,-0.5 -0.2,-0.8 -0.1,-0.5 -0.2,-1.1 -0.4,-1.6 l -0.2,-0.8 c -0.1,-0.3 -0.1,-0.6 -0.2,-0.8 0,-0.1 0,-0.3 -0.1,-0.4 v -1.2 l 0.8,0.4 -0.6,0.5 c -0.2,0.2 -0.4,0.5 -0.5,0.7 -0.1,0.3 -0.3,0.5 -0.4,0.8 l -0.3,0.9 c -0.1,0.3 -0.2,0.6 -0.2,0.9 0,0.3 -0.1,0.6 -0.2,0.9 0,0.3 -0.1,0.6 -0.1,0.9 v 1.8 c 0,0.3 0,0.6 0.1,0.9 l 0.1,0.9 0.2,0.9 c 0.1,0.6 0.2,1.3 0.4,1.9 0.1,0.6 0.3,1.2 0.5,1.9 l 0.5,1.7 -1.2,-1.3 -0.8,-0.9 -0.8,-0.9 -0.7,-0.9 c -0.2,-0.3 -0.5,-0.6 -0.7,-1 l -0.3,-0.5 c -0.1,-0.2 -0.2,-0.3 -0.3,-0.5 l -0.3,-0.5 c -0.1,-0.2 -0.2,-0.4 -0.3,-0.5 l -0.2,-0.5 c -0.1,-0.2 -0.2,-0.4 -0.2,-0.6 l -0.4,-1.1 0.7,-0.1 -0.2,1.9 v 1.9 l 0.1,1.9 0.2,1.9 0.3,1.9 0.4,1.8 0.4,1.8 0.2,1.9 z"
     id="path6664"
     inkscape:connector-curvature="0"
     style="fill:#10659e" /><path
     d="m 94.4625,92.749999 c -0.6,-2 -1.1,-4 -1.4,-6 -0.2,-1 -0.3,-2.1 -0.4,-3.1 -0.1,-0.5 -0.1,-1 -0.1,-1.6 v -1.6 l 0.1,-0.8 0.4,0.8 0.5,0.9 0.6,0.9 0.6,0.9 0.7,0.9 c 0.4,0.6 0.9,1.1 1.4,1.7 0.5,0.6 1,1.1 1.5,1.6 -0.4,-1.2 -0.8,-2.3 -1.1,-3.5 -0.3,-1.2 -0.6,-2.4 -0.7,-3.7 -0.2,-0.6 -0.2,-1.3 -0.2,-1.9 0,-0.6 0,-1.3 0.1,-1.9 0.2,-1.3 0.6,-2.5 1.4,-3.6 l 0.6,-0.8 0.1,0.8 c 0.1,0.3 0.1,0.6 0.2,0.9 0,0.3 0.1,0.6 0.1,0.9 l 0.3,1.8 c 0,0.3 0.1,0.6 0.1,0.9 l 0.1,0.9 0.1,0.9 c 0,0.3 0,0.6 0.1,0.9 l 0.6,-2.4 c 0.2,-0.8 0.4,-1.6 0.7,-2.3 0.3,-0.8 0.5,-1.5 0.9,-2.3 0.3,-0.8 0.7,-1.5 1.1,-2.2 l 0.3,-0.5 0.1,0.6 c 0.1,0.6 0.3,1.1 0.5,1.7 0.2,0.6 0.5,1.1 0.8,1.6 0.6,1 1.3,2 2.1,3 h -0.1 c 0.3,-0.4 0.7,-0.7 1.1,-1.1 0.2,-0.2 0.4,-0.3 0.6,-0.5 l 0.3,-0.3 c 0.1,-0.1 0.2,-0.2 0.2,-0.3 -0.1,0.1 -0.1,0.2 -0.2,0.3 l -0.3,0.3 c -0.2,0.2 -0.4,0.4 -0.5,0.6 l -1.1,1.1 -0.1,0.1 -0.1,-0.1 c -0.8,-0.9 -1.5,-1.9 -2.2,-2.9 -0.3,-0.5 -0.6,-1 -0.9,-1.6 -0.3,-0.6 -0.5,-1.1 -0.6,-1.7 l 0.5,0.1 c -0.2,0.3 -0.5,0.6 -0.7,1 -0.2,0.3 -0.4,0.7 -0.6,1 -0.4,0.7 -0.7,1.5 -1,2.2 -0.6,1.5 -1,3.1 -1.4,4.7 0,-0.3 0,-0.6 -0.1,-0.9 0,-0.3 -0.1,-0.6 -0.1,-0.9 -0.1,-0.6 -0.2,-1.2 -0.4,-1.8 -0.1,-0.6 -0.3,-1.2 -0.5,-1.7 -0.1,-0.3 -0.2,-0.6 -0.3,-0.8 -0.1,-0.3 -0.2,-0.5 -0.4,-0.8 l 0.7,0.1 c -0.1,0.3 -0.3,0.5 -0.4,0.8 -0.1,0.3 -0.2,0.5 -0.3,0.8 -0.2,0.6 -0.3,1.1 -0.4,1.7 -0.1,0.6 -0.2,1.2 -0.2,1.8 v 1.8 c 0.1,1.2 0.2,2.4 0.4,3.6 l 0.3,1.8 0.3,1.8 c -0.5,-0.5 -1.1,-1 -1.6,-1.5 -0.5,-0.5 -1,-1.1 -1.5,-1.6 l -0.7,-0.8 -0.6,-0.9 -0.7,-0.9 -0.6,-0.9 0.6,-0.1 c 0,0.2 -0.1,0.5 -0.1,0.7 v 2.3 c 0.1,1 0.1,2.1 0.3,3.1 0.3,2 0.6,4 1.2,6 z"
     id="path6666"
     inkscape:connector-curvature="0"
     style="fill:#c7eeff" /><path
     enable-background="new "
     d="m 68.4625,98.649999 c 1.3,-1.4 2.3,-2.5 2.3,-2.5 l -2.2,-17.2 -5.9,-1.1 c -0.5,-1.3 -1.2,-3.2 -2.1,-4.9 -0.3,2.5 -0.1,5.2 -0.1,5.2 l 0.2,2.5 -2.6,-5.8 c -0.2,1.6 -0.4,4.3 0.3,7.6 0.9,4.2 3.8,13.3 10.1,16.2 z"
     id="path6668"
     inkscape:connector-curvature="0"
     style="opacity:0.3;fill:#10659e" /><linearGradient
     id="SVGID_10_"
     y2="-14.486"
     gradientUnits="userSpaceOnUse"
     x2="61.877"
     gradientTransform="matrix(1,0,0,-1,-0.6375,202.55)"
     y1="194.77"
     x1="61.877"><stop
       stop-color="#8FC4F7"
       offset="0"
       id="stop6671" /><stop
       stop-color="#B5A3F5"
       offset="1"
       id="stop6673" /></linearGradient><path
     d="m 72.4625,95.949999 c -6.1,1.3 -11,-3.7 -12.9,-3.7 -1.9,0 -4.2,2.4 -4.2,2.4 v -2.4 l -2.6,1.3 3.6,-4.1 c 0,0 -3.5,1.4 -6.3,2.2 2,-2.7 19.1,-13.1 19.1,-13.1"
     id="path6675"
     style="fill:url(#SVGID_10_)"
     inkscape:connector-curvature="0" /><path
     d="m 72.4625,95.949999 -0.6,0.1 -0.6,0.1 c -0.4,0.1 -0.8,0.1 -1.2,0.1 h -1.2 c -0.4,0 -0.8,-0.1 -1.2,-0.2 -0.8,-0.2 -1.5,-0.4 -2.3,-0.7 -0.7,-0.3 -1.5,-0.6 -2.2,-1 -0.7,-0.3 -1.4,-0.7 -2.1,-1.1 -0.3,-0.2 -0.7,-0.4 -1,-0.5 -0.2,-0.1 -0.3,-0.1 -0.5,-0.2 h -0.5 c -0.3,0 -0.7,0.2 -1,0.3 -0.3,0.2 -0.6,0.3 -1,0.5 -0.3,0.2 -0.6,0.4 -0.9,0.7 -0.3,0.2 -0.6,0.5 -0.8,0.8 l -0.8,0.8 v -3.5 l 0.6,0.4 -2.6,1.3 -2.1,1.1 1.6,-1.8 3.6,-4.1 0.5,0.7 c -1,0.5 -2.1,0.8 -3.1,1.2 -0.5,0.2 -1.1,0.4 -1.6,0.5 -0.5,0.2 -1.1,0.3 -1.6,0.5 l -1.3,0.6 1,-1.3 c 0.4,-0.5 0.7,-0.8 1.1,-1.1 l 1.2,-0.9 c 0.8,-0.6 1.6,-1.2 2.4,-1.7 1.6,-1.1 3.2,-2.1 4.9,-3.2 1.6,-1 3.3,-2 5,-3 0.8,-0.5 1.7,-1 2.5,-1.4 0.8,-0.5 1.7,-0.9 2.5,-1.4 l -9.6,6.5 -4.8,3.3 c -0.8,0.6 -1.6,1.1 -2.3,1.7 -0.4,0.3 -0.7,0.6 -1.1,0.9 -0.3,0.3 -0.7,0.6 -1,0.9 l -0.6,-0.8 c 0.5,-0.2 1,-0.3 1.6,-0.5 0.5,-0.2 1,-0.3 1.6,-0.5 1,-0.3 2.1,-0.7 3.1,-1.1 l 1.7,-0.6 -1.2,1.3 -3.6,4.1 -0.5,-0.7 2.6,-1.3 0.6,-0.3 v 3.1 l -0.8,-0.3 c 0.3,-0.3 0.6,-0.6 0.9,-0.8 0.3,-0.3 0.6,-0.5 1,-0.7 0.3,-0.2 0.7,-0.4 1.1,-0.6 0.4,-0.2 0.8,-0.3 1.2,-0.4 h 0.7 c 0.2,0 0.4,0.1 0.6,0.2 0.4,0.2 0.7,0.4 1.1,0.5 l 2,1.2 c 0.7,0.4 1.4,0.7 2,1 0.7,0.3 1.4,0.6 2.1,0.8 0.4,0.1 0.7,0.2 1.1,0.3 0.4,0.1 0.8,0.1 1.1,0.2 h 2.7 z"
     id="path6677"
     inkscape:connector-curvature="0"
     style="fill:#10659e" /><path
     d="m 71.8625,93.349999 c 0,0 -0.4,-0.6 -0.8,-1.7 -0.1,-0.3 -0.2,-0.5 -0.3,-0.8 l -0.3,-0.9 c -0.1,-0.3 -0.2,-0.7 -0.3,-1 -0.1,-0.4 -0.2,-0.7 -0.3,-1.1 -0.1,-0.7 -0.3,-1.4 -0.4,-2.1 0,-0.3 -0.1,-0.7 -0.1,-1 0,-0.3 -0.1,-0.6 0,-0.9 0,-1.1 0.1,-1.8 0.1,-1.8 0,0 0.2,0.7 0.4,1.8 0,0.3 0.1,0.6 0.2,0.9 0.1,0.3 0.1,0.6 0.2,1 0.1,0.3 0.2,0.7 0.2,1 0.1,0.3 0.2,0.7 0.2,1.1 0.1,0.4 0.2,0.7 0.2,1.1 0.1,0.3 0.1,0.7 0.2,1 0.2,0.7 0.3,1.3 0.4,1.8 0.1,0.5 0.2,1 0.2,1.3 0.2,0.1 0.2,0.3 0.2,0.3 z"
     id="path6679"
     inkscape:connector-curvature="0"
     style="fill:#10659e" /><path
     d="m 70.9625,79.349999 c -0.1,-0.7 -0.1,-1.5 -0.2,-2.2 v -2.3 c 0.1,-0.8 0.1,-1.5 0.2,-2.3 0.1,-0.7 0.3,-1.5 0.5,-2.2 l 0.4,-1.9 0.4,2 v 0.3 c 0,0.1 0.1,0.2 0.1,0.3 0.1,0.2 0.1,0.4 0.2,0.6 l 0.3,0.7 c 0.1,0.2 0.2,0.5 0.2,0.7 l -0.6,-0.1 c 0.2,-0.3 0.3,-0.5 0.5,-0.8 0.2,-0.3 0.3,-0.5 0.5,-0.8 0.4,-0.5 0.8,-1 1.2,-1.4 -0.3,0.6 -0.6,1.1 -0.9,1.7 -0.3,0.6 -0.5,1.1 -0.8,1.7 l -0.3,0.7 -0.3,-0.7 c -0.1,-0.4 -0.4,-0.8 -0.6,-1.2 -0.1,-0.2 -0.2,-0.4 -0.3,-0.7 0,-0.1 -0.1,-0.2 -0.1,-0.4 0,-0.1 -0.1,-0.3 -0.1,-0.4 l 0.8,0.1 c -0.1,0.7 -0.3,1.4 -0.5,2.1 -0.1,0.4 -0.1,0.7 -0.2,1.1 l -0.2,1.1 c -0.1,0.7 -0.1,1.5 -0.2,2.2 0.2,0.7 0.1,1.4 0,2.1 z"
     id="path6681"
     inkscape:connector-curvature="0"
     style="fill:#10659e" /><path
     d="m 52.1625,90.249999 c 0,0 1,-0.7 2.5,-1.8 l 1.2,-0.9 c 0.4,-0.3 0.9,-0.7 1.4,-1 0.5,-0.3 1,-0.7 1.6,-1.1 0.5,-0.4 1.1,-0.7 1.6,-1.1 0.6,-0.3 1.1,-0.7 1.6,-1.1 0.5,-0.4 1,-0.7 1.5,-1 1,-0.7 1.9,-1.3 2.7,-1.9 0.8,-0.5 1.5,-1 1.9,-1.3 0.2,-0.2 0.4,-0.3 0.5,-0.3 0.1,-0.1 0.2,-0.1 0.2,-0.1 0,0 -0.1,0.1 -0.2,0.2 -0.1,0.1 -0.3,0.3 -0.5,0.4 -0.4,0.4 -1,0.9 -1.7,1.6 -0.4,0.3 -0.8,0.7 -1.2,1 -0.4,0.3 -0.9,0.7 -1.4,1.1 -0.5,0.4 -1,0.8 -1.5,1.1 -0.5,0.4 -1,0.8 -1.6,1.1 -0.5,0.3 -1.1,0.7 -1.6,1 l -1.5,0.9 -1.5,0.9 c -0.5,0.3 -0.9,0.5 -1.4,0.8 -1.3,0.9 -2.6,1.5 -2.6,1.5 z"
     id="path6683"
     inkscape:connector-curvature="0"
     style="fill:#c7eeff" /><path
     enable-background="new "
     d="m 146.7625,90.849999 c -0.5,0.1 -1.1,0.1 -1.5,-0.1 l -0.5,-0.2 0.3,-0.4 c 0.8,-1.3 1.2,-2.7 1.5,-4.1 l -4.2,-2.1 -7.6,-2.5 c 0,0 1.4,-8.5 1,-7.8 -0.3,0.8 -2.1,0.9 -2.1,0.9 l -1.1,4.7 -1.6,5.1 -1.9,12.8 6.9,3.900001 c 4.4,-3.000001 8.7,-7.700001 10.8,-10.200001 z"
     id="path6685"
     inkscape:connector-curvature="0"
     style="opacity:0.3;fill:#10659e" /><linearGradient
     id="SVGID_11_"
     y2="-7.0713"
     gradientUnits="userSpaceOnUse"
     x2="139.19"
     gradientTransform="matrix(1,0,0,-1,-0.6375,202.55)"
     y1="189.35"
     x1="139.19"><stop
       stop-color="#8FC4F7"
       offset="0"
       id="stop6688" /><stop
       stop-color="#B5A3F5"
       offset="1"
       id="stop6690" /></linearGradient><path
     d="m 130.3625,73.849999 2.1,-2.7 c 0,0 0.4,4.7 0,5.7 1.4,-2.4 1.6,-2.9 1.6,-2.9 0,0 0.1,5.2 -1.8,7.4 0.3,1.2 13.9,7.8 17.2,13 -2.7,-0.2 -5.1,-2.2 -5.1,-2.2 l 2.6,4.4 -3.5,-1.4 c 0,0 0,2.4 -0.4,2.7 -0.3,0.2 -2.2,-1.9 -3.1,-1.7 -0.9,0.2 -9,1.4 -12.2,1.2"
     id="path6692"
     style="fill:url(#SVGID_11_)"
     inkscape:connector-curvature="0" /><path
     d="m 130.3625,73.849999 1.7,-3 0.5,-0.9 0.2,1.1 c 0.1,1 0.1,1.9 0.2,2.9 v 2.3 c 0,0.1 0,0.3 -0.1,0.4 0,0.1 -0.1,0.3 -0.1,0.4 l -0.8,-0.4 0.8,-1.4 0.4,-0.7 c 0.1,-0.2 0.2,-0.5 0.4,-0.7 l 0.8,-1.5 v 2.6 c 0,0.3 0,0.7 -0.1,1 -0.1,0.7 -0.1,1.3 -0.3,2 0,0.2 -0.1,0.3 -0.1,0.5 0,0.2 -0.1,0.3 -0.1,0.5 -0.1,0.3 -0.2,0.6 -0.3,1 -0.1,0.2 -0.1,0.3 -0.2,0.5 -0.1,0.2 -0.1,0.3 -0.2,0.5 -0.1,0.1 -0.2,0.3 -0.3,0.4 l -0.3,0.4 0.1,-0.4 0.1,0.1 0.2,0.2 c 0.2,0.1 0.3,0.3 0.5,0.4 0.4,0.3 0.7,0.5 1.1,0.7 0.8,0.5 1.5,1 2.3,1.4 1.5,0.9 3.1,1.9 4.6,2.9 1.5,1 3,2 4.4,3.2 0.4,0.3 0.7,0.6 1.1,0.9 0.3,0.3 0.7,0.6 1,0.9 0.3,0.3 0.6,0.7 1,1 0.3,0.4 0.6,0.7 0.8,1.1 l 0.5,0.8 -0.9,-0.1 -0.7,-0.1 c -0.1,0 -0.2,0 -0.4,-0.1 l -0.4,-0.1 -0.4,-0.1 c -0.1,0 -0.2,-0.1 -0.3,-0.1 l -0.7,-0.3 c -0.2,-0.1 -0.4,-0.2 -0.7,-0.3 -0.2,-0.1 -0.4,-0.2 -0.6,-0.4 -0.2,-0.1 -0.4,-0.3 -0.6,-0.4 -0.2,-0.1 -0.4,-0.3 -0.6,-0.4 l 0.7,-0.6 2.6,4.4 0.6,1.1 -1.2,-0.4 -3.5,-1.4 0.6,-0.4 v 1.2 c 0,0.4 -0.1,0.8 -0.2,1.2 l -0.1,0.2 c 0,0.1 -0.1,0.1 -0.1,0.2 -0.1,0.1 -0.2,0.3 -0.5,0.3 -0.2,0 -0.3,-0.1 -0.3,-0.1 -0.3,-0.1 -0.4,-0.3 -0.6,-0.4 -0.3,-0.2 -0.6,-0.5 -0.9,-0.7 -0.3,-0.2 -0.6,-0.4 -0.9,-0.5 -0.1,0 -0.1,0 -0.2,-0.1 h -0.2 l -0.6,0.1 c -0.8,0.1 -1.6,0.2 -2.3,0.3 -0.8,0.1 -1.6,0.2 -2.3,0.2 -0.8,0.1 -1.6,0.1 -2.3,0.2 l -1.2,0.1 h -2.4 l -1.2,-0.1 h 1.2 c 0.4,0 0.8,-0.1 1.2,-0.1 0.4,0 0.8,-0.1 1.2,-0.1 l 1.2,-0.1 c 0.8,-0.1 1.5,-0.2 2.3,-0.3 0.8,-0.1 1.5,-0.2 2.3,-0.4 l 2.3,-0.4 0.6,-0.1 h 0.4 c 0.1,0 0.3,0 0.4,0.1 0.5,0.2 0.8,0.4 1.1,0.6 0.3,0.2 0.6,0.5 0.9,0.7 0.1,0.1 0.3,0.2 0.4,0.3 h -0.2 c 0,0 -0.1,0 0,0 h -0.1 c 0,0 -0.1,0 -0.1,0.1 v -0.1 c 0.1,-0.3 0.1,-0.7 0.2,-1.1 0,-0.4 0.1,-0.8 0.1,-1.1 v -0.6 l 0.6,0.2 3.5,1.4 -0.5,0.6 -2.6,-4.4 -1.2,-2 1.8,1.4 c 0.2,0.1 0.3,0.3 0.5,0.4 0.2,0.1 0.4,0.3 0.6,0.4 l 0.6,0.3 0.6,0.3 0.6,0.3 c 0.1,0 0.2,0.1 0.3,0.1 l 0.3,0.1 0.3,0.1 c 0.1,0 0.2,0 0.3,0.1 l 0.6,0.1 -0.4,0.7 c -0.2,-0.4 -0.5,-0.7 -0.8,-1 -0.3,-0.3 -0.6,-0.6 -0.9,-1 -0.3,-0.3 -0.6,-0.6 -1,-0.9 -0.3,-0.3 -0.7,-0.6 -1,-0.9 -1.4,-1.1 -2.9,-2.1 -4.4,-3.1 -1.5,-1 -3,-1.9 -4.6,-2.9 -0.8,-0.5 -1.5,-0.9 -2.3,-1.4 -0.4,-0.2 -0.8,-0.5 -1.1,-0.8 -0.2,-0.1 -0.4,-0.3 -0.6,-0.4 l -0.3,-0.3 -0.1,-0.2 c -0.1,-0.1 -0.1,-0.2 -0.2,-0.3 l -0.1,-0.2 0.2,-0.2 0.3,-0.3 c 0.1,-0.1 0.2,-0.3 0.2,-0.4 0.1,-0.1 0.1,-0.3 0.2,-0.4 0.1,-0.1 0.1,-0.3 0.2,-0.4 l 0.3,-0.9 c 0,-0.1 0.1,-0.3 0.1,-0.5 0,-0.2 0.1,-0.3 0.1,-0.5 0.1,-0.6 0.2,-1.2 0.3,-1.9 0,-0.3 0,-0.6 0.1,-1 v -0.9 l 0.8,0.2 c -0.1,0.3 -0.3,0.5 -0.4,0.8 l -0.4,0.7 -0.8,1.4 -1.4,2.4 0.6,-2.7 c 0,-0.1 0.1,-0.2 0.1,-0.3 v -2.4 c 0,-0.9 -0.1,-1.9 -0.2,-2.8 l 0.8,0.2 -2,2.3 z"
     id="path6694"
     inkscape:connector-curvature="0"
     style="fill:#10659e" /><path
     d="m 126.8625,94.949999 c 0,0 0.1,-0.2 0.2,-0.5 0,-0.1 0.1,-0.3 0.2,-0.5 0.1,-0.2 0.1,-0.4 0.2,-0.7 0.1,-0.2 0.2,-0.5 0.2,-0.8 l 0.3,-0.9 c 0.1,-0.3 0.2,-0.7 0.3,-1 0.1,-0.3 0.2,-0.7 0.3,-1 0.1,-0.3 0.2,-0.7 0.3,-1 0.1,-0.3 0.2,-0.7 0.3,-1 0.2,-0.6 0.3,-1.2 0.5,-1.8 0.2,-1 0.5,-1.7 0.5,-1.7 0,0 0,0.7 0,1.8 0,0.3 0,0.6 -0.1,0.9 0,0.3 -0.1,0.6 -0.1,1 -0.1,0.3 -0.1,0.7 -0.2,1 -0.1,0.3 -0.2,0.7 -0.3,1 -0.1,0.3 -0.2,0.7 -0.3,1 -0.1,0.3 -0.2,0.7 -0.4,1 -0.1,0.3 -0.3,0.6 -0.4,0.9 -0.1,0.3 -0.3,0.5 -0.4,0.8 -0.1,0.2 -0.3,0.5 -0.4,0.6 -0.1,0.2 -0.2,0.3 -0.3,0.5 l -0.4,0.4 z"
     id="path6696"
     inkscape:connector-curvature="0"
     style="fill:#10659e" /><path
     d="m 132.1625,82.349999 c 0,0 0.3,0.1 0.7,0.4 0.5,0.3 1.1,0.6 1.9,1.1 0.8,0.5 1.7,1 2.6,1.6 0.5,0.3 1,0.6 1.5,1 0.5,0.3 1,0.7 1.5,1 1,0.7 2,1.4 2.9,2.1 0.5,0.3 0.9,0.7 1.3,1 l 1.2,0.9 c 0.7,0.6 1.3,1.1 1.6,1.5 l 0.6,0.6 c 0,0 -0.3,-0.2 -0.7,-0.5 -0.2,-0.2 -0.5,-0.3 -0.8,-0.5 -0.3,-0.2 -0.7,-0.4 -1,-0.7 -0.4,-0.2 -0.8,-0.5 -1.2,-0.8 -0.4,-0.3 -0.9,-0.6 -1.4,-0.9 -0.5,-0.3 -1,-0.6 -1.5,-1 -0.5,-0.3 -1,-0.7 -1.5,-1 -0.5,-0.3 -1,-0.7 -1.5,-1 -0.5,-0.3 -1,-0.7 -1.4,-1 -0.9,-0.7 -1.8,-1.3 -2.5,-1.8 -1.3,-1.2 -2.3,-2 -2.3,-2 z"
     id="path6698"
     inkscape:connector-curvature="0"
     style="fill:#c7eeff" /><linearGradient
     id="SVGID_12_"
     y2="58.519"
     gradientUnits="userSpaceOnUse"
     x2="103.08"
     gradientTransform="matrix(1,0,0,-1,-0.6375,202.55)"
     y1="176.8"
     x1="103.08"><stop
       stop-color="#8FC4F7"
       offset="0"
       id="stop6701" /><stop
       stop-color="#B5A3F5"
       offset="1"
       id="stop6703" /></linearGradient><path
     d="m 105.8625,60.149999 c 0,0 13.2,-20.5 -3.4,-20.5 -16.7,0 -3.4,20.5 -3.4,20.5"
     id="path6705"
     style="fill:url(#SVGID_12_)"
     inkscape:connector-curvature="0" /><path
     d="m 105.8625,60.149999 c 0,0 0.3,-0.8 0.9,-2.1 0.3,-0.7 0.6,-1.5 1,-2.5 0.4,-0.9 0.8,-2 1.2,-3.2 0.4,-1.2 0.8,-2.5 1,-3.9 0.1,-0.3 0.1,-0.7 0.1,-1.1 v -1.1 c 0,-0.4 -0.1,-0.7 -0.1,-1.1 -0.1,-0.3 -0.1,-0.7 -0.2,-1 -0.2,-0.7 -0.6,-1.3 -1,-1.8 l -0.4,-0.4 -0.4,-0.3 -0.2,-0.2 -0.2,-0.1 -0.5,-0.3 c -1.4,-0.6 -3,-0.8 -4.7,-0.8 h -1.2 c -0.4,0 -0.8,0.1 -1.2,0.1 -0.2,0 -0.4,0.1 -0.6,0.1 l -0.6,0.1 c -0.4,0.1 -0.7,0.3 -1.1,0.4 l -0.5,0.3 -0.2,0.1 c -0.1,0 -0.1,0.1 -0.2,0.2 l -0.4,0.4 -0.4,0.4 c -0.5,0.5 -0.8,1.2 -1,1.8 -0.1,0.3 -0.2,0.7 -0.2,1 0,0.4 -0.1,0.7 -0.1,1.1 v 1.1 c 0,0.4 0.1,0.7 0.1,1.1 0.2,1.4 0.6,2.7 1,3.9 0.4,1.2 0.8,2.3 1.2,3.2 0.4,0.9 0.7,1.8 1,2.4 0.6,1.4 1,2.1 1,2.1 0,0 -0.1,-0.2 -0.4,-0.5 -0.2,-0.3 -0.6,-0.8 -1,-1.4 -0.4,-0.6 -0.9,-1.4 -1.4,-2.3 -0.5,-0.9 -1,-2 -1.5,-3.2 -0.5,-1.2 -0.9,-2.6 -1.1,-4 -0.1,-0.4 -0.1,-0.8 -0.2,-1.1 0,-0.4 -0.1,-0.8 -0.1,-1.2 0,-0.4 0,-0.8 0.1,-1.2 0.1,-0.4 0.1,-0.8 0.3,-1.3 0.2,-0.8 0.7,-1.7 1.3,-2.4 l 0.5,-0.5 0.5,-0.4 c 0.1,-0.1 0.2,-0.1 0.3,-0.2 l 0.3,-0.2 0.6,-0.3 c 0.4,-0.2 0.8,-0.3 1.3,-0.5 l 0.7,-0.2 c 0.2,-0.1 0.4,-0.1 0.7,-0.1 0.4,-0.1 0.9,-0.1 1.3,-0.2 l 1.3,-0.1 c 1.8,0 3.6,0.2 5.2,1 l 0.6,0.3 0.3,0.2 c 0.1,0.1 0.2,0.1 0.3,0.2 l 0.5,0.4 0.5,0.5 c 0.6,0.7 1.1,1.5 1.3,2.4 0.2,0.4 0.2,0.8 0.3,1.3 0,0.4 0.1,0.8 0.1,1.2 0,0.4 0,0.8 -0.1,1.2 0,0.4 -0.1,0.8 -0.2,1.1 -0.3,1.5 -0.7,2.8 -1.1,4.1 -0.5,1.2 -1,2.3 -1.5,3.2 -0.5,0.9 -1,1.7 -1.4,2.3 -0.4,0.6 -0.8,1.1 -1,1.4 -0.2,0.4 -0.4,0.6 -0.4,0.6 z"
     id="path6707"
     inkscape:connector-curvature="0"
     style="fill:#10659e" /><linearGradient
     id="SVGID_13_"
     y2="142.41"
     gradientUnits="userSpaceOnUse"
     x2="103.08"
     gradientTransform="matrix(1,0,0,-1,-0.6375,202.55)"
     y1="170.31"
     x1="103.08"><stop
       stop-color="#BFE4F7"
       offset="0"
       id="stop6710" /><stop
       stop-color="#BFE4F7"
       stop-opacity="0"
       offset="1"
       id="stop6712" /></linearGradient><path
     d="m 104.9625,60.149999 c 0,0 9.6,-18.1 -2.5,-18.1 -12.1,0 -2.5,18.1 -2.5,18.1"
     id="path6714"
     style="fill:url(#SVGID_13_)"
     inkscape:connector-curvature="0" /><path
     d="m 100.8625,61.049999 c 0,0 0.1,-0.2 0.4,-0.4 0.1,0 0.1,-0.1 0.2,-0.1 0.1,-0.1 0.2,-0.1 0.3,-0.1 0.2,-0.1 0.4,-0.1 0.6,-0.2 h 0.6 c 0.1,0 0.2,0 0.3,0.1 0.1,0 0.2,0.1 0.2,0.1 0.3,0.1 0.5,0.3 0.5,0.3 0,0 -0.2,0.1 -0.5,0.2 -0.1,0 -0.1,0 -0.2,0.1 -0.1,0 -0.2,0 -0.2,0.1 -0.2,0 -0.3,0.1 -0.5,0.1 h -1 c -0.5,-0.2 -0.7,-0.2 -0.7,-0.2 z"
     id="path6716"
     inkscape:connector-curvature="0"
     style="fill:#10659e" /><path
     enable-background="new "
     d="m 21.6625,115.15 c 0.7,2.2 1.4,4.4 2.3,6.5 l 0.3,0.7 -0.8,-0.1 c -0.2,0 -0.3,-0.1 -0.5,-0.1 0.2,0.8 0.6,1.6 1.1,2.5 9.3,0.5 21.2,-0.4 21.2,-0.4 -9.8,-0.3 -19,-5.8 -23.6,-9.1 z"
     id="path6718"
     inkscape:connector-curvature="0"
     style="opacity:0.3;fill:#10659e" /><path
     enable-background="new "
     d="m 48.1625,72.649999 c 0,0 -6.6,-13.8 -10.8,-16 -0.9,0.9 -1.5,1.3 -1.5,1.3 0,0 -4,-5.5 -4.9,-6 -0.9,-0.6 -1.9,-0.8 -1.9,-0.8 l -3.2,5.4 c 0,0 1.3,17.7 2.6,18.2 1.3,0.5 19.9,-1.7 19.9,-1.7"
     id="path6720"
     inkscape:connector-curvature="0"
     style="opacity:0.3;fill:#10659e" /><linearGradient
     id="SVGID_14_"
     y2="-7.0728"
     gradientUnits="userSpaceOnUse"
     x2="28.044"
     gradientTransform="matrix(1,0,0,-1,-0.6375,202.55)"
     y1="189.35"
     x1="28.044"><stop
       stop-color="#8FC4F7"
       offset="0"
       id="stop6723" /><stop
       stop-color="#B5A3F5"
       offset="1"
       id="stop6725" /></linearGradient><path
     d="m 47.5625,124.35 c -0.6,-0.2 -11.5,1.4 -27,-10.1 -15.5,-11.5 -16.7,-24.600001 -16.3,-29.700001 l 5.2,5 c 0,0 -4.8,-10.9 -4.3,-19.5 l 2.4,1.2 c 0,0 -1.7,-8.7 2.4,-19.3 l 1.1,2.2 c 0,0 2.6,-4.5 2.4,-5.2 -0.2,-0.6 4.5,-21.2 8.2,-23.8 3.7,-2.6 17.8,-8.9 27,2.5 -13.9,11.7 -22.7,28.8 -22.7,28.8 l 7.7,6.3 c 0,0 -1.9,-5.4 -3,-7.4 3.2,1.9 8.9,9.7 8.9,9.7 l -1.7,-5.6 c 0,0 9.9,10.4 12.8,18"
     id="path6727"
     style="fill:url(#SVGID_14_)"
     inkscape:connector-curvature="0" /><path
     d="m 47.5625,124.35 h -2 c -0.7,0 -1.4,0 -2,-0.1 -0.7,0 -1.3,-0.1 -2,-0.2 -0.7,-0.1 -1.3,-0.2 -2,-0.4 -0.7,-0.2 -1.3,-0.3 -2,-0.5 -0.7,-0.2 -1.3,-0.4 -2,-0.6 l -1.9,-0.7 c -0.6,-0.2 -1.3,-0.5 -1.9,-0.8 -0.6,-0.2 -1.2,-0.6 -1.9,-0.8 l -1.8,-0.9 -1.8,-1 c -0.6,-0.3 -1.2,-0.7 -1.7,-1 -0.6,-0.4 -1.2,-0.7 -1.7,-1.1 l -1.7,-1.2 -0.8,-0.6 -0.8,-0.6 -1.6,-1.2 -0.4,-0.3 -0.4,-0.3 -0.8,-0.7 c -0.5,-0.5 -1,-0.9 -1.5,-1.4 l -1.4,-1.5 -0.7,-0.7 -0.7,-0.8 c -0.4,-0.5 -0.9,-1 -1.3,-1.6 l -1.2,-1.7 c -0.4,-0.6 -0.7,-1.2 -1.1,-1.7 -0.2,-0.3 -0.4,-0.6 -0.5,-0.9 l -0.5,-0.9 -0.5,-0.900001 c -0.2,-0.3 -0.3,-0.6 -0.4,-0.9 -0.3,-0.6 -0.6,-1.2 -0.8,-1.9 -0.5,-1.3 -0.9,-2.6 -1.2,-3.9 l -0.2,-1 c -0.1,-0.3 -0.1,-0.7 -0.2,-1 0,-0.3 -0.1,-0.7 -0.2,-1 l -0.1,-1 c -0.1,-1.4 -0.1,-2.7 0,-4.1 l 0.1,-0.9 0.6,0.6 5.2,5 -0.7,0.5 c -0.3,-0.8 -0.6,-1.6 -0.9,-2.4 -0.3,-0.7 -0.6,-1.5 -0.8,-2.3 -0.3,-0.8 -0.5,-1.6 -0.7,-2.4 l -0.3,-1.2 -0.3,-1.2 c -0.3,-0.9 -0.5,-1.7 -0.7,-2.6 -0.1,-0.4 -0.2,-0.8 -0.2,-1.2 l -0.2,-1.3 -0.1,-1.3 c -0.1,-0.4 -0.1,-0.8 -0.1,-1.3 0,-0.4 -0.1,-0.8 0,-1.3 v -2 l 0.6,0.5 2.4,1.2 -0.6,0.5 c -0.1,-0.4 -0.1,-0.8 -0.2,-1.2 -0.1,-0.4 -0.1,-0.8 -0.1,-1.2 0,-0.4 -0.1,-0.8 -0.1,-1.2 v -2.4 c 0,-0.4 0,-0.8 0.1,-1.2 l 0.1,-1.6 0.1,-1.2 c 0,-0.4 0.1,-0.8 0.2,-1.2 0.1,-0.4 0.1,-0.8 0.2,-1.2 l 0.2,-1.2 0.3,-1.2 0.3,-1.2 0.4,-1.2 c 0.1,-0.4 0.3,-0.8 0.4,-1.2 l 0.4,-1.2 0.3,-0.9 0.5,0.9 1.1,2.2 h -0.8 l 1.8,-3.3 c 0.1,-0.3 0.3,-0.6 0.4,-0.8 0.1,-0.1 0.1,-0.3 0.1,-0.4 v -1 c 0,-0.2 0,-0.3 0.1,-0.5 0.1,-0.3 0.1,-0.6 0.2,-0.9 0.5,-2.5 1.2,-5 1.8,-7.4 0.7,-2.5 1.4,-4.9 2.3,-7.3 0.4,-1.2 0.9,-2.4 1.4,-3.6 0.3,-0.6 0.5,-1.2 0.9,-1.7 0.3,-0.6 0.7,-1.1 1.1,-1.6 l 0.2,-0.2 0.2,-0.2 0.2,-0.2 0.2,-0.1 c 0.3,-0.2 0.6,-0.4 0.8,-0.5 0.6,-0.3 1.1,-0.6 1.7,-0.9 1.2,-0.6 2.4,-1 3.6,-1.4 2.5,-0.8 5,-1.2 7.6,-1.2 1.3,0 2.6,0.2 3.9,0.5 1.3,0.3 2.5,0.7 3.7,1.3 1.2,0.6 2.3,1.3 3.3,2.1 1,0.8 1.9,1.8 2.7,2.8 l 0.3,0.3 -0.3,0.3 -1.7,1.5 -0.8,0.8 -0.8,0.8 -1.6,1.6 -1.6,1.7 c -0.5,0.5 -1,1.1 -1.5,1.7 -0.5,0.6 -1,1.1 -1.5,1.7 l -1.5,1.7 c -0.5,0.6 -0.9,1.2 -1.4,1.8 -0.5,0.6 -0.9,1.2 -1.4,1.8 -0.4,0.6 -0.9,1.2 -1.3,1.9 l -1.3,1.8 -1.3,1.9 -1.2,1.9 c -0.4,0.7 -0.8,1.3 -1.2,2 -0.8,1.3 -1.6,2.6 -2.3,4 l -0.1,-0.5 7.7,6.3 -0.7,0.5 c -0.2,-0.6 -0.5,-1.2 -0.7,-1.9 l -0.4,-0.9 c -0.1,-0.3 -0.2,-0.6 -0.4,-0.9 l -0.4,-0.9 c -0.1,-0.3 -0.2,-0.6 -0.4,-0.9 l -0.7,-1.9 -0.7,-1.5 1.3,0.9 c 0.2,0.2 0.5,0.3 0.7,0.5 l 0.7,0.5 1.2,1.2 0.6,0.6 0.6,0.6 c 0.4,0.4 0.7,0.8 1.1,1.2 1.4,1.7 2.8,3.4 4.1,5.2 l -0.8,0.4 -1.7,-5.5 -0.5,-1.8 1.3,1.3 c 1.3,1.4 2.4,2.8 3.6,4.2 0.6,0.7 1.2,1.4 1.7,2.2 0.6,0.7 1.1,1.5 1.7,2.2 0.3,0.4 0.5,0.8 0.8,1.1 0.3,0.4 0.5,0.8 0.8,1.1 l 0.8,1.2 0.7,1.2 c 0.2,0.4 0.5,0.8 0.7,1.2 l 0.6,1.2 c 0.2,0.4 0.4,0.8 0.6,1.3 l 0.5,1.3 -0.6,-1.3 -0.6,-1.2 c -0.2,-0.4 -0.5,-0.8 -0.7,-1.2 -0.2,-0.4 -0.5,-0.8 -0.7,-1.2 l -0.8,-1.2 -0.8,-1.1 c -0.3,-0.4 -0.5,-0.7 -0.8,-1.1 -0.3,-0.4 -0.5,-0.7 -0.8,-1.1 -0.6,-0.7 -1.1,-1.4 -1.7,-2.2 -0.6,-0.7 -1.2,-1.4 -1.8,-2.1 -1.2,-1.4 -2.5,-2.7 -3.7,-4 l 0.7,-0.4 1.7,5.6 0.8,2.5 -1.5,-2.1 c -1.3,-1.8 -2.7,-3.5 -4.1,-5.2 -0.4,-0.4 -0.7,-0.8 -1.1,-1.2 l -0.6,-0.6 -0.6,-0.6 c -0.4,-0.4 -0.8,-0.8 -1.2,-1.1 l -0.6,-0.5 c -0.2,-0.2 -0.4,-0.3 -0.6,-0.4 l 0.6,-0.6 0.9,1.8 c 0.1,0.3 0.3,0.6 0.4,0.9 l 0.4,0.9 c 0.1,0.3 0.3,0.6 0.4,0.9 l 0.4,0.9 c 0.2,0.6 0.5,1.2 0.7,1.9 l 0.5,1.5 -1.2,-1 -7.7,-6.3 h -0.5 l 0.2,-0.3 c 0.7,-1.4 1.5,-2.7 2.3,-4 0.4,-0.7 0.8,-1.3 1.2,-2 l 1.2,-1.9 1.3,-1.9 1.3,-1.9 c 0.4,-0.6 0.9,-1.2 1.4,-1.9 0.5,-0.6 0.9,-1.2 1.4,-1.8 0.5,-0.6 0.9,-1.2 1.4,-1.8 l 1.5,-1.8 1.5,-1.8 c 0.5,-0.6 1,-1.2 1.5,-1.7 l 1.6,-1.7 c 0.5,-0.6 1.1,-1.1 1.6,-1.6 l 0.8,-0.8 0.9,-0.8 1.7,-1.6 -0.1,0.6 c -0.8,-1 -1.7,-1.9 -2.6,-2.7 -1,-0.8 -2,-1.5 -3.1,-2 -1.1,-0.6 -2.3,-1 -3.5,-1.3 -1.2,-0.3 -2.4,-0.4 -3.7,-0.4 -2.5,0 -5,0.4 -7.4,1.1 -1.2,0.4 -2.4,0.8 -3.5,1.4 -0.6,0.3 -1.1,0.6 -1.7,0.9 -0.3,0.2 -0.5,0.3 -0.8,0.5 l -0.2,0.1 c -0.1,0 -0.1,0.1 -0.2,0.1 l -0.3,0.3 c -0.4,0.4 -0.7,0.9 -1,1.5 -0.3,0.5 -0.6,1.1 -0.8,1.7 -0.5,1.1 -1,2.3 -1.4,3.5 -0.8,2.4 -1.6,4.8 -2.3,7.2 -0.7,2.4 -1.3,4.9 -1.8,7.4 -0.1,0.3 -0.1,0.6 -0.2,0.9 0,0.2 -0.1,0.3 -0.1,0.5 v 0.8 c 0,0.1 0,0.2 -0.1,0.3 -0.1,0.2 -0.1,0.3 -0.2,0.5 -0.1,0.3 -0.3,0.6 -0.4,0.9 -0.6,1.2 -1.2,2.3 -1.8,3.4 l -0.4,0.7 -0.4,-0.7 -1.1,-2.2 h 0.8 l -0.4,1.1 c -0.1,0.4 -0.3,0.8 -0.4,1.1 v 1.1 l -0.3,1.2 -0.3,1.2 -0.2,1.1 c -0.1,0.4 -0.1,0.8 -0.2,1.2 -0.1,0.4 -0.1,0.8 -0.2,1.2 l -0.1,1.2 -0.1,1.2 c 0,0.4 0,0.8 -0.1,1.2 v 2.4 c 0,0.4 0,0.8 0.1,1.2 0,0.4 0.1,0.8 0.1,1.2 0,0.4 0.1,0.8 0.2,1.2 l 0.2,0.8 -0.9,-0.3 -2.4,-1.2 0.6,-0.4 v 2.4 c 0,0.4 0,0.8 0.1,1.2 l 0.1,1.2 0.2,1.2 c 0.1,0.4 0.1,0.8 0.2,1.2 0.1,0.8 0.3,1.6 0.5,2.4 l 0.3,1.2 0.3,1.2 c 0.2,0.8 0.5,1.6 0.7,2.4 0.3,0.8 0.5,1.6 0.8,2.4 0.3,0.8 0.6,1.6 0.9,2.3 l 0.8,1.9 -1.5,-1.5 -5.2,-5 1,0.1 c -0.1,1.3 -0.1,2.6 0.1,4 l 0.1,1 c 0,0.3 0.1,0.7 0.2,1 0.1,0.3 0.1,0.7 0.2,1 l 0.2,1 c 0.3,1.3 0.7,2.6 1.2,3.8 0.2,0.6 0.5,1.2 0.8,1.8 0.1,0.3 0.3,0.6 0.4,0.9 l 0.5,0.9 0.5,0.900001 c 0.2,0.3 0.3,0.6 0.5,0.9 0.4,0.6 0.7,1.1 1.1,1.7 l 1.2,1.6 c 0.4,0.5 0.8,1 1.3,1.6 l 0.6,0.8 c 0.2,0.3 0.5,0.5 0.7,0.7 l 1.4,1.4 c 0.5,0.5 1,0.9 1.5,1.4 l 0.7,0.7 0.4,0.3 0.4,0.3 1.6,1.3 0.8,0.6 0.8,0.6 1.6,1.2 c 0.5,0.4 1.1,0.7 1.7,1.1 0.6,0.4 1.1,0.7 1.7,1.1 l 1.7,1 1.8,0.9 1.8,0.9 c 0.6,0.3 1.2,0.6 1.8,0.8 l 1.9,0.7 c 0.6,0.2 1.3,0.4 1.9,0.6 0.6,0.2 1.3,0.4 1.9,0.5 0.7,0.1 1.3,0.3 2,0.4 0.7,0.1 1.3,0.2 2,0.3 0.7,0.1 1.3,0.1 2,0.2 0.4,-0.1 1.1,-0.1 1.8,-0.1 z"
     id="path6729"
     inkscape:connector-curvature="0"
     style="fill:#10659e" /><path
     d="m 49.6625,75.649999 c 0,0 -0.8,-0.8 -1.9,-2.1 -0.5,-0.6 -1.2,-1.4 -1.8,-2.2 -0.3,-0.4 -0.7,-0.8 -1,-1.3 -0.3,-0.4 -0.7,-0.9 -1,-1.3 -0.3,-0.4 -0.7,-0.9 -1,-1.3 -0.3,-0.4 -0.6,-0.9 -0.9,-1.3 -0.3,-0.4 -0.6,-0.8 -0.9,-1.2 -0.3,-0.4 -0.5,-0.8 -0.8,-1.1 -1,-1.4 -1.5,-2.3 -1.5,-2.3 0,0 0.8,0.8 1.9,2 0.6,0.6 1.2,1.4 1.9,2.2 0.3,0.4 0.7,0.8 1,1.3 0.3,0.4 0.7,0.9 1,1.3 0.3,0.4 0.7,0.9 1,1.3 0.3,0.4 0.6,0.9 0.9,1.3 0.6,0.9 1.1,1.7 1.6,2.4 1,1.3 1.5,2.3 1.5,2.3 z"
     id="path6731"
     inkscape:connector-curvature="0"
     style="fill:#c7eeff" /><path
     d="m 40.2625,66.949999 c 0,0 -0.6,-0.5 -1.5,-1.3 -0.4,-0.4 -0.9,-0.9 -1.5,-1.4 -0.3,-0.3 -0.5,-0.6 -0.8,-0.8 -0.3,-0.3 -0.5,-0.6 -0.8,-0.9 -0.3,-0.3 -0.5,-0.6 -0.8,-0.9 -0.3,-0.3 -0.5,-0.6 -0.7,-0.9 -0.5,-0.6 -0.9,-1.2 -1.2,-1.7 -0.2,-0.3 -0.3,-0.5 -0.4,-0.7 l -0.3,-0.6 c -0.2,-0.3 -0.2,-0.5 -0.2,-0.5 0,0 0.1,0.1 0.4,0.4 0.1,0.1 0.3,0.3 0.4,0.5 l 0.6,0.6 c 0.2,0.2 0.4,0.5 0.7,0.7 0.2,0.3 0.5,0.5 0.7,0.8 0.2,0.3 0.5,0.6 0.8,0.9 0.3,0.3 0.5,0.6 0.8,0.9 0.3,0.3 0.5,0.6 0.8,0.9 0.3,0.3 0.5,0.6 0.7,0.9 0.5,0.6 0.9,1.1 1.3,1.6 0.6,0.8 1,1.5 1,1.5 z"
     id="path6733"
     inkscape:connector-curvature="0"
     style="fill:#c7eeff" /><path
     d="m 25.6625,56.849999 c 0,0 -0.1,-0.1 -0.3,-0.2 -0.2,-0.1 -0.4,-0.3 -0.7,-0.6 -0.1,-0.1 -0.3,-0.2 -0.5,-0.4 -0.2,-0.1 -0.4,-0.3 -0.6,-0.4 -0.4,-0.3 -0.8,-0.5 -1.3,-0.8 -0.2,-0.1 -0.4,-0.3 -0.7,-0.4 l -0.6,-0.3 -1.2,-0.6 c -0.7,-0.3 -1.2,-0.5 -1.2,-0.5 0,0 0.5,0.2 1.2,0.4 0.4,0.1 0.8,0.3 1.2,0.4 0.2,0.1 0.5,0.2 0.7,0.3 0.2,0.1 0.5,0.2 0.7,0.3 0.5,0.2 0.9,0.4 1.4,0.7 l 0.6,0.3 c 0.2,0.1 0.4,0.2 0.5,0.3 0.3,0.2 0.6,0.4 0.8,0.5 0.2,0.1 0.3,0.2 0.3,0.2 l -0.3,0.8 z"
     id="path6735"
     inkscape:connector-curvature="0"
     style="fill:#10659e" /><linearGradient
     id="SVGID_15_"
     y2="168.7"
     gradientUnits="userSpaceOnUse"
     x2="43.723"
     gradientTransform="matrix(1,0,0,-1,-0.6375,202.55)"
     y1="174.73"
     x1="43.723"><stop
       stop-color="#8FC4F7"
       offset="0"
       id="stop6738" /><stop
       stop-color="#B5A3F5"
       offset="1"
       id="stop6740" /></linearGradient><path
     d="m 44.7625,31.249999 c 0,0 -0.6,-1.7 -3.3,-3.2"
     id="path6742"
     style="fill:url(#SVGID_15_)"
     inkscape:connector-curvature="0" /><path
     d="m 44.3625,31.349999 c 0,-0.1 0,-0.1 -0.1,-0.2 0,-0.1 -0.1,-0.2 -0.2,-0.4 -0.1,-0.2 -0.2,-0.4 -0.4,-0.6 -0.1,-0.1 -0.2,-0.2 -0.2,-0.3 l -0.3,-0.3 -0.3,-0.3 -0.3,-0.3 -0.3,-0.3 c -0.1,-0.1 -0.2,-0.1 -0.3,-0.2 -0.4,-0.3 -0.6,-0.4 -0.6,-0.4 0,0 0.3,0.1 0.7,0.3 0.1,0 0.2,0.1 0.3,0.2 0.1,0.1 0.2,0.1 0.3,0.2 0.1,0.1 0.2,0.1 0.4,0.2 0.1,0.1 0.2,0.2 0.4,0.3 0.1,0.1 0.2,0.2 0.4,0.3 l 0.3,0.3 c 0.2,0.2 0.4,0.4 0.5,0.6 0.1,0.2 0.3,0.3 0.3,0.5 0.1,0.1 0.1,0.2 0.1,0.2 l -0.7,0.2 z"
     id="path6744"
     inkscape:connector-curvature="0"
     style="fill:#10659e" /><path
     d="m 26.3625,55.249999 -0.5,-1 c -0.1,-0.3 -0.3,-0.7 -0.5,-1.1 l -0.6,-1.2 c -0.4,-0.8 -0.9,-1.6 -1.2,-2.2 -0.3,-0.6 -0.6,-1 -0.6,-1 0,0 0.3,0.4 0.7,0.9 0.4,0.6 1,1.3 1.5,2.1 0.3,0.4 0.5,0.8 0.8,1.1 0.2,0.4 0.4,0.7 0.6,1 0.4,0.6 0.6,1 0.6,1 l -0.8,0.4 z"
     id="path6746"
     inkscape:connector-curvature="0"
     style="fill:#10659e" /><path
     d="m 12.9625,49.049999 c 0,0 2.3,-2.6 4.6,-5.2 1.2,-1.3 2.3,-2.6 3.2,-3.5 0.4,-0.5 0.8,-0.9 1.1,-1.1 l 0.3,-0.3 0.1,-0.1 c 0,0 0,0 -0.1,0.1 l -0.3,0.3 c -0.3,0.3 -0.6,0.7 -1,1.2 -0.8,1 -1.9,2.4 -3,3.7 -2.1,2.7 -4.3,5.5 -4.3,5.5 l -0.6,-0.6 z"
     id="path6748"
     inkscape:connector-curvature="0"
     style="fill:#10659e" /><path
     enable-background="new "
     d="m 47.4625,26.949999 c -0.9,-1 -1.8,-1.8 -2.9,-2.6 -1.2,-0.8 -2.4,-1.4 -3.7,-1.9 -0.6,-0.2 -1.1,-0.4 -1.7,-0.5 h -0.1 c -0.2,-0.1 -0.5,-0.1 -0.7,-0.2 -0.3,-0.1 -0.6,-0.1 -0.9,-0.1 -0.3,0 -0.5,-0.1 -0.8,-0.1 -2.4,-0.2 -4.9,0.1 -7.3,0.7 -2.5,0.7 -5,1.6 -7.2,3.1 -0.7,0.5 -1.2,1.2 -1.6,1.9 -0.6,1 -1,2 -1.4,3 -0.9,2.1 -1.6,4.3 -2.2,6.5 -0.7,2.2 -1.3,4.4 -1.8,6.7 -0.3,1.1 -0.5,2.2 -0.8,3.3 -0.1,0.5 -0.2,0.9 -0.3,1.4 3.8,-4.6 16.8,-17.4 24.3,-17.4 3.2,0 -8.3,16.3 -10.8,20.4 0,0 -0.9,-0.8 -4.1,-1.7 2.8,4.7 2,5.2 2,5.2 0,0 -2.2,-0.9 -5.8,-1.6 2,0.6 5,2.5 6.1,3.3 0.3,-0.5 0.6,-1 0.8,-1.6 l 2.1,-3.6 c 0.6,-0.9 1.2,-1.9 1.8,-2.8 1.5,-2.2 3,-4.4 4.6,-6.6 3.6,-4.8 7.6,-9.3 12.1,-13.3 0.2,-0.2 0.5,-0.4 0.7,-0.6 l 0.2,-0.2 c -0.1,-0.1 -0.6,-0.7 -0.6,-0.7 z"
     id="path6750"
     inkscape:connector-curvature="0"
     style="opacity:0.3;fill:#10659e" /><path
     d="m 34.4625,63.849999 -2.5,-1.5 c -0.4,-0.2 -0.8,-0.5 -1.2,-0.8 -0.4,-0.3 -0.9,-0.6 -1.3,-0.9 -0.5,-0.3 -0.9,-0.6 -1.4,-1 -0.5,-0.4 -0.9,-0.7 -1.4,-1.1 -0.9,-0.7 -1.8,-1.5 -2.6,-2.3 -0.4,-0.3 -0.8,-0.7 -1.2,-1 -0.4,-0.3 -0.8,-0.6 -1.1,-0.9 -0.4,-0.3 -0.7,-0.5 -1,-0.7 -0.3,-0.2 -0.6,-0.4 -0.8,-0.5 -0.4,-0.3 -0.7,-0.5 -0.7,-0.5 0,0 0.3,0.1 0.8,0.3 0.2,0.1 0.5,0.2 0.9,0.4 0.3,0.2 0.7,0.3 1.1,0.6 0.4,0.2 0.8,0.5 1.2,0.7 0.2,0.1 0.4,0.3 0.7,0.4 0.2,0.2 0.4,0.3 0.7,0.5 0.4,0.3 0.9,0.7 1.3,1.1 0.4,0.4 0.9,0.7 1.4,1.1 0.4,0.4 0.9,0.7 1.4,1.1 0.5,0.4 0.9,0.7 1.3,1 0.9,0.7 1.7,1.3 2.4,1.9 1.1,1.3 2,2.1 2,2.1 z"
     id="path6752"
     inkscape:connector-curvature="0"
     style="fill:#c7eeff" /><path
     enable-background="new "
     d="m 154.5625,124.35 c 0,0 9.1,2 20.4,-1.4 1,-2.5 1.9,-4.9 2.7,-7.4 -4.4,3 -14.7,9.2 -23.1,8.8 z"
     id="path6754"
     inkscape:connector-curvature="0"
     style="opacity:0.3;fill:#10659e" /><path
     enable-background="new "
     d="m 151.8625,72.649999 c 0,0 6.6,-13.8 10.8,-16 0.9,0.9 1.5,1.3 1.5,1.3 0,0 4,-5.5 4.9,-6 0.9,-0.6 1.9,-0.8 1.9,-0.8 l 3.2,5.4 c 0,0 -1.3,17.7 -2.6,18.2 -1.3,0.5 -19.9,-1.7 -19.9,-1.7"
     id="path6756"
     inkscape:connector-curvature="0"
     style="opacity:0.3;fill:#10659e" /><linearGradient
     id="SVGID_16_"
     y2="-7.0717"
     gradientUnits="userSpaceOnUse"
     x2="645.96"
     gradientTransform="matrix(-1,0,0,-1,818.5525,202.55)"
     y1="189.35"
     x1="645.96"><stop
       stop-color="#8FC4F7"
       offset="0"
       id="stop6759" /><stop
       stop-color="#B5A3F5"
       offset="1"
       id="stop6761" /></linearGradient><path
     d="m 152.4625,124.35 c 0.6,-0.2 11.5,1.4 27,-10.1 15.5,-11.5 16.6,-24.600001 16.2,-29.800001 l -5.2,5 c 0,0 4.8,-10.9 4.3,-19.5 l -2.4,1.2 c 0,0 1.7,-8.7 -2.4,-19.3 l -1.1,2.2 c 0,0 -2.6,-4.5 -2.4,-5.2 0.2,-0.6 -4.5,-21.2 -8.2,-23.8 -3.7,-2.6 -17.8,-8.9 -27,2.5 13.8,11.8 22.6,28.9 22.6,28.9 l -7.7,6.3 c 0,0 1.9,-5.4 3,-7.4 -3.2,1.9 -8.9,9.7 -8.9,9.7 l 1.7,-5.6 c 0,0 -9.9,10.4 -12.8,18"
     id="path6763"
     style="fill:url(#SVGID_16_)"
     inkscape:connector-curvature="0" /><path
     d="m 152.4625,124.35 c 0.7,-0.1 1.3,0 2,-0.1 0.7,0 1.3,-0.1 2,-0.2 0.7,-0.1 1.3,-0.2 2,-0.3 0.7,-0.1 1.3,-0.3 2,-0.4 0.6,-0.2 1.3,-0.3 1.9,-0.5 0.6,-0.2 1.3,-0.4 1.9,-0.6 l 1.9,-0.7 c 0.6,-0.3 1.2,-0.5 1.8,-0.8 l 1.8,-0.9 1.8,-0.9 1.7,-1 c 0.6,-0.3 1.1,-0.7 1.7,-1.1 0.6,-0.4 1.1,-0.7 1.7,-1.1 l 1.6,-1.2 0.8,-0.6 0.8,-0.6 1.6,-1.3 0.4,-0.3 0.4,-0.3 0.7,-0.7 c 0.5,-0.5 1,-0.9 1.5,-1.4 l 1.4,-1.4 0.7,-0.7 0.6,-0.8 c 0.4,-0.5 0.9,-1 1.3,-1.6 l 1.2,-1.6 c 0.4,-0.5 0.7,-1.1 1.1,-1.7 0.2,-0.3 0.4,-0.6 0.5,-0.9 l 0.5,-0.900001 0.5,-0.9 c 0.2,-0.3 0.3,-0.6 0.4,-0.9 0.3,-0.6 0.6,-1.2 0.8,-1.8 0.5,-1.2 0.9,-2.5 1.2,-3.8 l 0.2,-1 c 0.1,-0.3 0.1,-0.7 0.2,-1 0.1,-0.3 0.1,-0.7 0.2,-1 l 0.1,-1 c 0.1,-1.3 0.2,-2.6 0.1,-4 l 0.7,0.3 -5.2,5 -1.5,1.5 0.8,-1.9 c 0.3,-0.8 0.6,-1.5 0.9,-2.3 0.3,-0.8 0.6,-1.6 0.8,-2.4 0.3,-0.8 0.5,-1.6 0.7,-2.4 l 0.3,-1.2 0.3,-1.2 c 0.2,-0.8 0.4,-1.6 0.5,-2.4 0.1,-0.4 0.2,-0.8 0.2,-1.2 l 0.2,-1.2 0.1,-1.2 c 0.1,-0.4 0.1,-0.8 0.1,-1.2 0,-0.4 0.1,-0.8 0,-1.2 v -1.2 l 0.6,0.4 -2.4,1.2 -0.8,0.4 0.2,-0.8 c 0.1,-0.4 0.1,-0.8 0.2,-1.2 0,-0.4 0.1,-0.8 0.1,-1.2 0,-0.4 0.1,-0.8 0.1,-1.2 v -2.4 c 0,-0.4 0,-0.8 -0.1,-1.2 l -0.1,-1.2 -0.1,-1.2 c 0,-0.4 -0.1,-0.8 -0.2,-1.2 -0.1,-0.4 -0.1,-0.8 -0.2,-1.2 l -0.2,-1.2 -0.3,-1.2 -0.3,-1.2 -0.4,-1.2 c -0.1,-0.4 -0.3,-0.8 -0.4,-1.1 l -0.4,-1.1 h 0.8 l -1.1,2.2 -0.4,0.7 -0.4,-0.7 c -0.6,-1.1 -1.2,-2.2 -1.8,-3.4 -0.1,-0.3 -0.3,-0.6 -0.4,-0.9 -0.1,-0.2 -0.1,-0.3 -0.2,-0.5 0,-0.1 0,-0.2 -0.1,-0.3 v -0.8 c 0,-0.1 0,-0.3 -0.1,-0.5 -0.1,-0.3 -0.1,-0.6 -0.2,-0.9 -0.5,-2.5 -1.1,-4.9 -1.8,-7.4 -0.7,-2.4 -1.4,-4.9 -2.3,-7.2 -0.4,-1.2 -0.9,-2.4 -1.4,-3.5 -0.3,-0.6 -0.5,-1.1 -0.8,-1.7 -0.3,-0.5 -0.6,-1.1 -1,-1.5 l -0.3,-0.3 c -0.1,0 -0.1,-0.1 -0.2,-0.1 l -0.2,-0.1 c -0.3,-0.2 -0.5,-0.3 -0.8,-0.5 -0.5,-0.3 -1.1,-0.6 -1.7,-0.9 -1.1,-0.5 -2.3,-1 -3.5,-1.4 -2.4,-0.7 -4.9,-1.2 -7.4,-1.1 -1.2,0 -2.5,0.2 -3.7,0.4 -1.2,0.3 -2.4,0.7 -3.5,1.3 -1.1,0.6 -2.1,1.2 -3.1,2 -0.9,0.8 -1.8,1.7 -2.6,2.7 l -0.1,-0.6 1.7,1.6 0.9,0.8 0.8,0.8 1.6,1.6 1.6,1.7 c 0.5,0.6 1,1.1 1.5,1.7 l 1.5,1.8 1.5,1.8 c 0.5,0.6 0.9,1.2 1.4,1.8 0.5,0.6 0.9,1.2 1.4,1.8 0.5,0.6 0.9,1.2 1.4,1.9 l 1.3,1.9 1.3,1.9 1.2,1.9 c 0.4,0.7 0.8,1.3 1.2,2 0.8,1.3 1.6,2.7 2.3,4 l 0.2,0.3 -0.3,0.2 -7.7,6.3 -1.2,1 0.5,-1.5 c 0.2,-0.6 0.5,-1.2 0.7,-1.9 l 0.4,-0.9 c 0.1,-0.3 0.2,-0.6 0.4,-0.9 l 0.4,-0.9 c 0.1,-0.3 0.2,-0.6 0.4,-0.9 l 0.9,-1.8 0.6,0.6 c -0.2,0.1 -0.4,0.3 -0.6,0.4 l -0.6,0.5 c -0.4,0.4 -0.8,0.7 -1.2,1.1 l -0.6,0.6 -0.6,0.6 c -0.4,0.4 -0.7,0.8 -1.1,1.2 -1.4,1.7 -2.8,3.4 -4.1,5.2 l -1.5,2.1 0.8,-2.5 1.7,-5.6 0.7,0.4 c -1.3,1.3 -2.5,2.7 -3.7,4 -0.6,0.7 -1.2,1.4 -1.8,2.1 -0.6,0.7 -1.2,1.4 -1.7,2.2 -0.3,0.4 -0.6,0.7 -0.8,1.1 -0.3,0.4 -0.6,0.7 -0.8,1.1 l -0.8,1.1 -0.8,1.2 c -0.3,0.4 -0.5,0.8 -0.7,1.2 -0.2,0.4 -0.5,0.8 -0.7,1.2 l -0.6,1.2 -0.6,1.3 0.5,-1.3 c 0.2,-0.4 0.4,-0.8 0.6,-1.3 l 0.6,-1.2 c 0.2,-0.4 0.4,-0.8 0.7,-1.2 l 0.7,-1.2 0.8,-1.2 c 0.2,-0.4 0.5,-0.8 0.8,-1.1 0.3,-0.4 0.5,-0.8 0.8,-1.1 0.5,-0.8 1.1,-1.5 1.7,-2.2 0.6,-0.7 1.1,-1.5 1.7,-2.2 1.2,-1.4 2.4,-2.8 3.6,-4.2 l 1.3,-1.3 -0.5,1.8 -1.7,5.6 -0.8,-0.4 c 1.3,-1.8 2.7,-3.5 4.1,-5.2 0.4,-0.4 0.7,-0.8 1.1,-1.2 l 0.6,-0.6 0.6,-0.6 1.2,-1.2 0.8,-0.8 c 0.2,-0.2 0.5,-0.3 0.7,-0.5 l 1.3,-0.9 -0.7,1.5 -0.8,1.8 c -0.1,0.3 -0.3,0.6 -0.4,0.9 l -0.4,0.9 c -0.1,0.3 -0.3,0.6 -0.4,0.9 l -0.4,0.9 c -0.2,0.6 -0.5,1.2 -0.7,1.9 l -0.7,-0.5 7.7,-6.3 -0.1,0.5 c -0.7,-1.3 -1.5,-2.7 -2.3,-4 -0.4,-0.7 -0.8,-1.3 -1.2,-2 l -1.2,-1.9 -1.3,-1.9 -1.3,-1.9 c -0.4,-0.6 -0.9,-1.2 -1.3,-1.9 -0.4,-0.6 -0.9,-1.2 -1.4,-1.8 -0.5,-0.6 -0.9,-1.2 -1.4,-1.8 l -1.5,-1.8 c -0.5,-0.6 -1,-1.2 -1.5,-1.7 -0.5,-0.6 -1,-1.2 -1.5,-1.7 l -1.6,-1.7 -1.6,-1.6 -0.8,-0.8 -0.8,-0.8 -1.7,-1.5 -0.3,-0.3 0.3,-0.3 c 0.8,-1 1.7,-1.9 2.7,-2.8 1,-0.8 2.1,-1.6 3.3,-2.1 1.2,-0.6 2.4,-1 3.7,-1.3 1.3,-0.3 2.6,-0.4 3.9,-0.5 2.6,0 5.2,0.4 7.6,1.2 1.2,0.4 2.4,0.9 3.6,1.4 0.6,0.3 1.2,0.6 1.7,0.9 0.3,0.2 0.6,0.3 0.8,0.5 l 0.2,0.1 0.2,0.2 0.2,0.2 0.2,0.2 c 0.5,0.5 0.8,1.1 1.1,1.6 0.3,0.6 0.6,1.2 0.9,1.7 0.5,1.2 1,2.4 1.4,3.6 0.9,2.4 1.6,4.9 2.3,7.3 0.7,2.5 1.3,4.9 1.8,7.4 0.1,0.3 0.1,0.6 0.2,0.9 0,0.2 0.1,0.3 0.1,0.5 v 1 c 0,0.1 0.1,0.3 0.1,0.4 0.1,0.3 0.2,0.6 0.4,0.8 0.5,1.1 1.1,2.2 1.8,3.3 h -0.8 l 1.1,-2.2 0.5,-0.9 0.3,0.9 0.4,1.2 c 0.1,0.4 0.3,0.8 0.4,1.2 l 0.4,1.2 0.3,1.2 0.3,1.2 0.2,1.2 c 0.1,0.4 0.1,0.8 0.2,1.2 0.1,0.4 0.1,0.8 0.2,1.2 l 0.1,1.2 0.1,1.2 c 0,0.4 0,0.8 0.1,1.2 v 2.4 c 0,0.4 0,0.8 -0.1,1.2 0,0.4 -0.1,0.8 -0.1,1.2 0,0.4 -0.1,0.8 -0.2,1.2 l -0.6,-0.5 2.4,-1.2 0.6,-0.3 v 3.3 c 0,0.4 0,0.9 -0.1,1.3 l -0.1,1.3 -0.2,1.3 c -0.1,0.4 -0.1,0.8 -0.2,1.2 -0.1,0.8 -0.3,1.7 -0.5,2.5 l -0.3,1.2 -0.3,1.2 c -0.2,0.8 -0.5,1.6 -0.7,2.4 -0.3,0.8 -0.5,1.6 -0.8,2.4 -0.3,0.8 -0.6,1.6 -0.9,2.4 l -0.7,-0.5 5.2,-5 0.6,-0.6 0.1,0.9 c 0.1,1.4 0.1,2.8 0,4.1 l -0.1,1 c 0,0.3 -0.1,0.7 -0.2,1 -0.1,0.3 -0.1,0.7 -0.2,1 l -0.2,1 c -0.3,1.3 -0.7,2.6 -1.2,3.9 -0.2,0.7 -0.5,1.3 -0.8,1.9 -0.1,0.3 -0.3,0.6 -0.4,0.9 l -0.5,0.9 -0.5,0.900001 c -0.2,0.3 -0.4,0.6 -0.5,0.9 -0.4,0.6 -0.7,1.2 -1.1,1.7 l -1.2,1.7 c -0.4,0.6 -0.9,1.1 -1.3,1.6 l -0.7,0.8 c -0.2,0.3 -0.5,0.5 -0.7,0.7 l -1.4,1.5 c -0.5,0.5 -1,0.9 -1.5,1.4 l -0.8,0.7 -0.4,0.3 -0.4,0.3 -1.6,1.2 -0.8,0.6 -0.8,0.6 -1.7,1.2 c -0.6,0.4 -1.1,0.7 -1.7,1.1 -0.6,0.3 -1.1,0.7 -1.7,1 l -1.8,1 -1.8,0.9 c -0.6,0.3 -1.2,0.6 -1.9,0.8 -0.6,0.3 -1.3,0.5 -1.9,0.8 l -1.9,0.7 c -0.6,0.2 -1.3,0.4 -2,0.6 -0.7,0.2 -1.3,0.3 -2,0.5 -0.7,0.1 -1.3,0.3 -2,0.4 -0.7,0.1 -1.3,0.2 -2,0.2 -0.7,0.1 -1.3,0.1 -2,0.1 -0.7,0.5 -1.3,0.4 -2,0.4 z"
     id="path6765"
     inkscape:connector-curvature="0"
     style="fill:#10659e" /><path
     d="m 150.2625,75.649999 c 0,0 0.6,-1 1.5,-2.4 0.5,-0.7 1,-1.5 1.6,-2.4 0.3,-0.4 0.6,-0.9 0.9,-1.3 0.3,-0.4 0.7,-0.9 1,-1.3 0.3,-0.4 0.7,-0.9 1,-1.3 0.3,-0.4 0.7,-0.9 1,-1.3 0.6,-0.8 1.3,-1.6 1.9,-2.2 1.1,-1.2 1.9,-2 1.9,-2 0,0 -0.6,1 -1.5,2.3 -0.2,0.3 -0.5,0.7 -0.8,1.1 -0.3,0.4 -0.6,0.8 -0.9,1.2 -0.3,0.4 -0.6,0.9 -0.9,1.3 -0.3,0.4 -0.7,0.9 -1,1.3 -0.3,0.4 -0.7,0.9 -1,1.3 -0.3,0.4 -0.7,0.9 -1,1.3 -0.6,0.8 -1.3,1.6 -1.8,2.2 -1.1,1.4 -1.9,2.2 -1.9,2.2 z"
     id="path6767"
     inkscape:connector-curvature="0"
     style="fill:#c7eeff" /><path
     d="m 159.6625,66.949999 c 0,0 0.4,-0.7 1.1,-1.7 0.4,-0.5 0.8,-1 1.3,-1.6 0.2,-0.3 0.5,-0.6 0.7,-0.9 0.3,-0.3 0.5,-0.6 0.8,-0.9 0.3,-0.3 0.5,-0.6 0.8,-0.9 0.3,-0.3 0.5,-0.6 0.8,-0.9 0.2,-0.3 0.5,-0.5 0.7,-0.8 0.2,-0.3 0.4,-0.5 0.7,-0.7 l 0.6,-0.6 c 0.2,-0.2 0.3,-0.3 0.4,-0.5 0.2,-0.3 0.4,-0.4 0.4,-0.4 0,0 -0.1,0.2 -0.2,0.5 -0.1,0.2 -0.2,0.3 -0.3,0.6 -0.1,0.2 -0.3,0.4 -0.4,0.7 -0.3,0.5 -0.7,1.1 -1.2,1.7 -0.2,0.3 -0.5,0.6 -0.7,0.9 -0.3,0.3 -0.5,0.6 -0.8,0.9 -0.3,0.3 -0.5,0.6 -0.8,0.9 -0.3,0.3 -0.5,0.6 -0.8,0.8 -0.5,0.5 -1,1 -1.5,1.4 -0.9,1 -1.6,1.5 -1.6,1.5 z"
     id="path6769"
     inkscape:connector-curvature="0"
     style="fill:#c7eeff" /><path
     d="m 173.7625,56.149999 c 0,0 0.1,-0.1 0.3,-0.2 0.2,-0.1 0.5,-0.3 0.8,-0.5 0.2,-0.1 0.4,-0.2 0.5,-0.3 l 0.6,-0.3 c 0.4,-0.2 0.9,-0.5 1.4,-0.7 0.2,-0.1 0.5,-0.2 0.7,-0.3 0.2,-0.1 0.5,-0.2 0.7,-0.3 0.4,-0.2 0.9,-0.3 1.2,-0.4 0.7,-0.2 1.2,-0.4 1.2,-0.4 0,0 -0.5,0.2 -1.2,0.5 -0.4,0.1 -0.7,0.4 -1.2,0.6 l -0.6,0.3 c -0.2,0.1 -0.4,0.3 -0.7,0.4 -0.4,0.2 -0.9,0.5 -1.3,0.8 -0.2,0.1 -0.4,0.3 -0.6,0.4 -0.2,0.1 -0.3,0.2 -0.5,0.4 -0.3,0.2 -0.5,0.4 -0.7,0.6 -0.2,0.1 -0.3,0.2 -0.3,0.2 l -0.3,-0.8 z"
     id="path6771"
     inkscape:connector-curvature="0"
     style="fill:#10659e" /><linearGradient
     id="SVGID_17_"
     y2="168.7"
     gradientUnits="userSpaceOnUse"
     x2="661.64"
     gradientTransform="matrix(-1,0,0,-1,818.5525,202.55)"
     y1="174.73"
     x1="661.64"><stop
       stop-color="#8FC4F7"
       offset="0"
       id="stop6774" /><stop
       stop-color="#B5A3F5"
       offset="1"
       id="stop6776" /></linearGradient><path
     d="m 155.2625,31.249999 c 0,0 0.6,-1.7 3.3,-3.2"
     id="path6778"
     style="fill:url(#SVGID_17_)"
     inkscape:connector-curvature="0" /><path
     d="m 154.8625,31.049999 c 0,0 0,-0.1 0.1,-0.2 0.1,-0.1 0.2,-0.3 0.3,-0.5 0.2,-0.2 0.3,-0.4 0.5,-0.6 l 0.3,-0.3 c 0.1,-0.1 0.2,-0.2 0.4,-0.3 0.1,-0.1 0.2,-0.2 0.4,-0.3 0.1,-0.1 0.2,-0.2 0.4,-0.2 0.1,-0.1 0.2,-0.1 0.3,-0.2 0.1,-0.1 0.2,-0.1 0.3,-0.2 0.4,-0.2 0.7,-0.3 0.7,-0.3 0,0 -0.2,0.2 -0.6,0.4 -0.1,0.1 -0.2,0.1 -0.3,0.2 l -0.3,0.3 -0.3,0.3 -0.3,0.3 -0.3,0.3 c -0.1,0.1 -0.2,0.2 -0.2,0.3 -0.2,0.2 -0.3,0.4 -0.4,0.6 -0.1,0.2 -0.2,0.3 -0.2,0.4 v 0.2 l -0.8,-0.2 z"
     id="path6780"
     inkscape:connector-curvature="0"
     style="fill:#10659e" /><path
     d="m 172.8625,54.949999 c 0,0 0.2,-0.4 0.6,-1 0.2,-0.3 0.4,-0.6 0.6,-1 0.2,-0.4 0.5,-0.7 0.8,-1.1 0.5,-0.8 1.1,-1.5 1.5,-2.1 0.4,-0.6 0.7,-0.9 0.7,-0.9 0,0 -0.2,0.4 -0.6,1 -0.3,0.6 -0.8,1.4 -1.2,2.2 l -0.6,1.2 c -0.2,0.4 -0.4,0.7 -0.5,1.1 l -0.5,1 -0.8,-0.4 z"
     id="path6782"
     inkscape:connector-curvature="0"
     style="fill:#10659e" /><path
     d="m 186.3625,49.649999 c 0,0 -2.1,-2.7 -4.3,-5.5 -1.1,-1.4 -2.2,-2.7 -3,-3.7 -0.4,-0.5 -0.8,-0.9 -1,-1.2 -0.1,-0.1 -0.2,-0.3 -0.3,-0.3 l -0.1,-0.1 c 0,0 0,0 0.1,0.1 l 0.3,0.3 c 0.3,0.3 0.6,0.7 1.1,1.1 0.9,1 2.1,2.2 3.2,3.5 2.3,2.6 4.6,5.2 4.6,5.2 l -0.6,0.6 z"
     id="path6784"
     inkscape:connector-curvature="0"
     style="fill:#10659e" /><path
     enable-background="new "
     d="m 152.5625,26.949999 c 0.9,-1 1.8,-1.8 2.9,-2.6 1.2,-0.8 2.4,-1.4 3.7,-1.9 0.6,-0.2 1.1,-0.4 1.7,-0.5 h 0.2 c 0.2,-0.1 0.5,-0.1 0.7,-0.2 0.3,-0.1 0.6,-0.1 0.9,-0.1 0.3,0 0.5,-0.1 0.8,-0.1 2.4,-0.2 4.9,0.1 7.3,0.7 2.5,0.7 5,1.6 7.2,3.1 0.7,0.5 1.2,1.2 1.6,1.9 0.6,1 1,2 1.4,3 0.9,2.1 1.6,4.3 2.2,6.5 0.7,2.2 1.3,4.4 1.8,6.7 0.3,1.1 0.5,2.2 0.8,3.3 0.1,0.5 0.2,0.9 0.3,1.4 -3.8,-4.6 -16.8,-17.4 -24.3,-17.4 -3.2,0 8.3,16.3 10.8,20.4 0,0 0.9,-0.8 4.1,-1.7 -2.8,4.7 -2,5.2 -2,5.2 0,0 2.2,-0.9 5.8,-1.6 -2,0.6 -5,2.5 -6.1,3.3 -0.3,-0.5 -0.6,-1 -0.8,-1.6 l -2.1,-3.6 c -0.6,-0.9 -1.2,-1.9 -1.8,-2.8 -1.5,-2.2 -3,-4.4 -4.6,-6.6 -3.6,-4.8 -7.6,-9.3 -12.1,-13.3 -0.2,-0.2 -0.5,-0.4 -0.7,-0.6 l -0.2,-0.2 c 0,-0.1 0.4,-0.7 0.5,-0.7 z"
     id="path6786"
     inkscape:connector-curvature="0"
     style="opacity:0.3;fill:#10659e" /><path
     d="m 165.5625,63.849999 c 0,0 0.9,-0.8 2.3,-1.9 0.7,-0.6 1.5,-1.2 2.4,-1.9 0.4,-0.3 0.9,-0.7 1.3,-1 0.5,-0.4 0.9,-0.7 1.4,-1.1 0.5,-0.4 0.9,-0.7 1.4,-1.1 0.4,-0.4 0.9,-0.7 1.3,-1.1 0.2,-0.2 0.4,-0.3 0.7,-0.5 0.2,-0.2 0.4,-0.3 0.7,-0.4 0.4,-0.3 0.9,-0.5 1.2,-0.7 0.4,-0.2 0.8,-0.4 1.1,-0.6 0.3,-0.2 0.6,-0.3 0.9,-0.4 0.5,-0.2 0.8,-0.3 0.8,-0.3 0,0 -0.2,0.2 -0.7,0.5 -0.2,0.1 -0.5,0.3 -0.8,0.5 -0.3,0.2 -0.6,0.4 -1,0.7 -0.3,0.3 -0.7,0.5 -1.1,0.9 -0.4,0.3 -0.8,0.6 -1.2,1 -0.8,0.7 -1.7,1.5 -2.6,2.3 -0.5,0.4 -0.9,0.7 -1.4,1.1 -0.5,0.3 -0.9,0.7 -1.4,1 -0.5,0.3 -0.9,0.6 -1.3,0.9 -0.4,0.3 -0.8,0.5 -1.2,0.8 -1.7,0.8 -2.8,1.3 -2.8,1.3 z"
     id="path6788"
     inkscape:connector-curvature="0"
     style="fill:#c7eeff" /><g
     id="g6790"
     transform="translate(-0.6375,2.5499992)"
     style="opacity:0.7;fill:#8432cc"><ellipse
       cy="121.8"
       cx="69.300003"
       rx="3.5999999"
       ry="4.4000001"
       transform="matrix(0.3203,-0.9473,0.9473,0.3203,-68.334,148.43)"
       id="ellipse6792"
       sodipodi:cx="69.300003"
       sodipodi:cy="121.8"
       sodipodi:rx="3.5999999"
       sodipodi:ry="4.4000001"
       d="m 72.900003,121.8 c 0,2.43006 -1.611775,4.4 -3.6,4.4 -1.988225,0 -3.6,-1.96994 -3.6,-4.4 0,-2.43005 1.611775,-4.4 3.6,-4.4 1.988225,0 3.6,1.96995 3.6,4.4 z" /><ellipse
       cy="114"
       cx="56.900002"
       rx="2.5999999"
       ry="3.2"
       transform="matrix(0.5973,-0.802,0.802,0.5973,-68.53,91.54)"
       id="ellipse6794"
       sodipodi:cx="56.900002"
       sodipodi:cy="114"
       sodipodi:rx="2.5999999"
       sodipodi:ry="3.2"
       d="m 59.500001,114 c 0,1.76731 -1.164059,3.2 -2.599999,3.2 -1.435941,0 -2.6,-1.43269 -2.6,-3.2 0,-1.76731 1.164059,-3.2 2.6,-3.2 1.43594,0 2.599999,1.43269 2.599999,3.2 z" /><ellipse
       cy="129.39999"
       cx="141.60001"
       rx="2.5999999"
       ry="3.2"
       transform="matrix(0.5973,0.802,-0.802,0.5973,160.81,-61.452)"
       id="ellipse6796"
       sodipodi:cx="141.60001"
       sodipodi:cy="129.39999"
       sodipodi:rx="2.5999999"
       sodipodi:ry="3.2"
       d="m 144.20001,129.39999 c 0,1.76732 -1.16406,3.2 -2.6,3.2 -1.43594,0 -2.6,-1.43268 -2.6,-3.2 0,-1.76731 1.16406,-3.2 2.6,-3.2 1.43594,0 2.6,1.43269 2.6,3.2 z" /><ellipse
       cy="125.5"
       cx="132.8"
       rx="3.5999999"
       ry="4.4000001"
       transform="matrix(-0.574,-0.8189,0.8189,-0.574,106.28,306.38)"
       id="ellipse6798"
       sodipodi:cx="132.8"
       sodipodi:cy="125.5"
       sodipodi:rx="3.5999999"
       sodipodi:ry="4.4000001"
       d="m 136.4,125.5 c 0,2.43005 -1.61177,4.4 -3.6,4.4 -1.98822,0 -3.6,-1.96995 -3.6,-4.4 0,-2.43005 1.61178,-4.4 3.6,-4.4 1.98823,0 3.6,1.96995 3.6,4.4 z" /><ellipse
       cy="125.5"
       cx="83.5"
       rx="1.8"
       ry="2.2"
       transform="matrix(0.3203,-0.9473,0.9473,0.3203,-62.129,164.42)"
       id="ellipse6800"
       sodipodi:cx="83.5"
       sodipodi:cy="125.5"
       sodipodi:rx="1.8"
       sodipodi:ry="2.2"
       d="m 85.3,125.5 c 0,1.21503 -0.805887,2.2 -1.8,2.2 -0.994113,0 -1.8,-0.98497 -1.8,-2.2 0,-1.21503 0.805887,-2.2 1.8,-2.2 0.994113,0 1.8,0.98497 1.8,2.2 z" /><ellipse
       cy="117.5"
       cx="141.60001"
       rx="1.8"
       ry="2.2"
       transform="matrix(0.3203,0.9473,-0.9473,0.3203,207.52,-54.302)"
       id="ellipse6802"
       sodipodi:cx="141.60001"
       sodipodi:cy="117.5"
       sodipodi:rx="1.8"
       sodipodi:ry="2.2"
       d="m 143.40001,117.5 c 0,1.21503 -0.80589,2.2 -1.8,2.2 -0.99412,0 -1.8,-0.98497 -1.8,-2.2 0,-1.21503 0.80588,-2.2 1.8,-2.2 0.99411,0 1.8,0.98497 1.8,2.2 z" /><ellipse
       cy="137.10001"
       cx="88.699997"
       rx="1.8"
       ry="2.2"
       transform="matrix(0.3203,-0.9473,0.9473,0.3203,-69.538,177.24)"
       id="ellipse6804"
       sodipodi:cx="88.699997"
       sodipodi:cy="137.10001"
       sodipodi:rx="1.8"
       sodipodi:ry="2.2"
       d="m 90.499997,137.10001 c 0,1.21502 -0.805888,2.2 -1.8,2.2 -0.994113,0 -1.8,-0.98498 -1.8,-2.2 0,-1.21503 0.805887,-2.2 1.8,-2.2 0.994112,0 1.8,0.98497 1.8,2.2 z" /><ellipse
       cy="123.7"
       cx="117.2"
       rx="1.8"
       ry="2.2"
       transform="matrix(-0.4498,-0.8931,0.8931,-0.4498,59.423,283.94)"
       id="ellipse6806"
       sodipodi:cx="117.2"
       sodipodi:cy="123.7"
       sodipodi:rx="1.8"
       sodipodi:ry="2.2"
       d="m 119,123.7 c 0,1.21502 -0.80589,2.2 -1.8,2.2 -0.99412,0 -1.8,-0.98498 -1.8,-2.2 0,-1.21503 0.80588,-2.2 1.8,-2.2 0.99411,0 1.8,0.98497 1.8,2.2 z" /><ellipse
       cy="131.89999"
       cx="77.099998"
       rx="0.89999998"
       ry="1.1"
       transform="matrix(0.3202,-0.9473,0.9473,0.3202,-72.534,162.72)"
       id="ellipse6808"
       sodipodi:cx="77.099998"
       sodipodi:cy="131.89999"
       sodipodi:rx="0.89999998"
       sodipodi:ry="1.1"
       d="m 77.999998,131.89999 c 0,0.60752 -0.402943,1.1 -0.9,1.1 -0.497056,0 -0.9,-0.49248 -0.9,-1.1 0,-0.60751 0.402944,-1.1 0.9,-1.1 0.497057,0 0.9,0.49249 0.9,1.1 z" /><ellipse
       cy="127.4"
       cx="59.900002"
       rx="0.89999998"
       ry="1.1"
       transform="matrix(0.3202,-0.9473,0.9473,0.3202,-79.962,143.39)"
       id="ellipse6810"
       sodipodi:cx="59.900002"
       sodipodi:cy="127.4"
       sodipodi:rx="0.89999998"
       sodipodi:ry="1.1"
       d="m 60.800002,127.4 c 0,0.60751 -0.402944,1.1 -0.9,1.1 -0.497057,0 -0.9,-0.49249 -0.9,-1.1 0,-0.60751 0.402943,-1.1 0.9,-1.1 0.497056,0 0.9,0.49249 0.9,1.1 z" /><ellipse
       cy="131.89999"
       cx="125"
       rx="0.89999998"
       ry="1.1"
       transform="matrix(0.3202,0.9473,-0.9473,0.3202,209.92,-28.746)"
       id="ellipse6812"
       sodipodi:cx="125"
       sodipodi:cy="131.89999"
       sodipodi:rx="0.89999998"
       sodipodi:ry="1.1"
       d="m 125.9,131.89999 c 0,0.60752 -0.40294,1.1 -0.9,1.1 -0.49706,0 -0.9,-0.49248 -0.9,-1.1 0,-0.60751 0.40294,-1.1 0.9,-1.1 0.49706,0 0.9,0.49249 0.9,1.1 z" /><ellipse
       cy="140.2"
       cx="116.8"
       rx="0.89999998"
       ry="1.1"
       transform="matrix(0.3202,0.9473,-0.9473,0.3202,212.24,-15.393)"
       id="ellipse6814"
       sodipodi:cx="116.8"
       sodipodi:cy="140.2"
       sodipodi:rx="0.89999998"
       sodipodi:ry="1.1"
       d="m 117.7,140.2 c 0,0.60751 -0.40294,1.1 -0.9,1.1 -0.49705,0 -0.9,-0.49249 -0.9,-1.1 0,-0.60752 0.40295,-1.1 0.9,-1.1 0.49706,0 0.9,0.49248 0.9,1.1 z" /></g></svg>