<?xml version="1.0" encoding="UTF-8" standalone="no"?>
<!-- Generator: Adobe Illustrator 16.0.0, SVG Export Plug-In . SVG Version: 6.00 Build 0) -->

<svg
   xmlns:dc="http://purl.org/dc/elements/1.1/"
   xmlns:cc="http://creativecommons.org/ns#"
   xmlns:rdf="http://www.w3.org/1999/02/22-rdf-syntax-ns#"
   xmlns:svg="http://www.w3.org/2000/svg"
   xmlns="http://www.w3.org/2000/svg"
   xmlns:sodipodi="http://sodipodi.sourceforge.net/DTD/sodipodi-0.dtd"
   xmlns:inkscape="http://www.inkscape.org/namespaces/inkscape"
   id="Layer_1"
   xml:space="preserve"
   viewBox="0 0 63.134 121.82"
   version="1.1"
   enable-background="new 0 0 63.134 121.823"
   inkscape:version="0.48.4 r9939"
   width="100%"
   height="100%"
   sodipodi:docname="Van.svg"><sodipodi:namedview
     pagecolor="#ffffff"
     bordercolor="#666666"
     borderopacity="1"
     objecttolerance="10"
     gridtolerance="10"
     guidetolerance="10"
     inkscape:pageopacity="0"
     inkscape:pageshadow="2"
     inkscape:window-width="640"
     inkscape:window-height="480"
     id="namedview10500"
     showgrid="false"
     inkscape:zoom="1.9372845"
     inkscape:cx="-28.052534"
     inkscape:cy="60.91"
     inkscape:window-x="0"
     inkscape:window-y="0"
     inkscape:window-maximized="0"
     inkscape:current-layer="Layer_1" /><metadata
     id="metadata3451"><rdf:RDF><cc:Work
         rdf:about=""><dc:format>image/svg+xml</dc:format><dc:type
           rdf:resource="http://purl.org/dc/dcmitype/StillImage" /></cc:Work></rdf:RDF></metadata><defs
     id="defs3449"><linearGradient
       id="linearGradient4862"
       y2="111.5"
       gradientUnits="userSpaceOnUse"
       y1="63.148"
       x2="29.584"
       x1="29.584"
       gradientTransform="translate(2.0259303,0)"><stop
         id="stop3379"
         stop-color="#DF0000"
         offset="0" /><stop
         id="stop3381"
         stop-color="#A00404"
         offset="1" /></linearGradient><linearGradient
       id="linearGradient14621"
       y2="29.846"
       gradientUnits="userSpaceOnUse"
       x2="50.724"
       y1="29.846"
       x1="8.441"
       gradientTransform="translate(2.0259303,0)"><stop
         id="stop3063"
         offset="0" /><stop
         id="stop3065"
         stop-color="#505050"
         offset=".1426" /><stop
         id="stop3067"
         stop-color="#505050"
         offset=".834" /><stop
         id="stop3069"
         offset="1" /></linearGradient></defs><path
     id="path2994"
     d="m 31.60193,0.717 c 14.633,0 19.216,3.939 21.18,5.453 1.898,1.461 2.699,17.196 2.771,25.381 -0.1425,1.0952 -0.06121,2.4394 -0.378,3.434 l 0.18,25.97 H 7.8479303 l 0.179,-25.97 c -0.1925,-3.42 0.2972,-2.425 -0.377,-3.439 0.074,-8.185 0.874,-23.915 2.7719997,-25.376 1.964,-1.514 6.547,-5.453 21.18,-5.453 m 0,-0.717 c -14.405,0 -19.321,3.818 -21.421,5.449 L 9.9839303,5.602 c -0.413,0.318 -0.955,1.044 -1.49,3.865 -0.324,1.709 -0.612,3.999 -0.856,6.808 -0.434,4.992 -0.64,10.562 -0.694,14.423 h -0.043 c -1.253,0 -3.849,0.798 -4.562,1.742 -0.80713,1.3295 0.14403,2.8927 1.901,2.683 0.438,0 0.941,-0.074 1.494,-0.221 0.586,-0.155 1.025,-0.309 1.357,-0.458 0.072,0.323 0.154,0.553 0.219,0.705 l -0.178,25.801 -0.005,0.722 H 56.07693 l -0.005,-0.722 -0.179,-25.802 c 0.064,-0.148 0.145,-0.37 0.215,-0.679 0.324,0.141 0.746,0.285 1.299,0.432 0.553,0.147 1.057,0.221 1.494,0.221 1.7333,0.19235 2.6994,-1.5536 1.901,-2.683 -0.71,-0.939 -3.282,-1.734 -4.542,-1.742 -0.055,-3.859 -0.261,-9.428 -0.694,-14.42 -0.244,-2.809 -0.532,-5.1 -0.856,-6.81 -0.535,-2.821 -1.077,-3.548 -1.49,-3.866 l -0.197,-0.152 C 50.92193,3.818 46.00493,0 31.60193,0 z"
     inkscape:connector-curvature="0"
     style="fill:#3f3f3f" /><path
     id="path3009"
     d="m 55.35593,60.955 -0.18,-25.97 c 0,0 0.441,-0.698 0.382,-2.609 -0.024,-7.898 -0.812,-24.694 -2.776,-26.206 -1.964,-1.514 -6.547,-5.453 -21.18,-5.453 -14.633,0 -19.216,3.939 -21.181,5.453 -1.9639997,1.512 -2.7519997,18.308 -2.7749997,26.206 -0.06,1.911 0.382,2.609 0.382,2.609 l -0.179,25.97 H 55.35593 z"
     inkscape:connector-curvature="0"
     style="fill:#787878" /><path
     id="path3011"
     clip-rule="evenodd"
     d="m 11.31093,60.955 c 0,0 -3.2039997,-1.558 -3.5229997,-5.895 v 5.895 H 11.31093 z"
     inkscape:connector-curvature="0"
     style="fill:#3f3f3f;fill-rule:evenodd" /><path
     id="path3013"
     clip-rule="evenodd"
     d="m 51.85993,60.955 c 0,0 3.205,-1.558 3.523,-5.895 v 5.895 h -3.523 z"
     inkscape:connector-curvature="0"
     style="fill:#3f3f3f;fill-rule:evenodd" /><path
     id="path3021"
     d="m 18.306153,3.4062 c -0.819,0.1645 -6.6329,2.9353 -7.4685,3.875 -0.9559996,1.075 -1.4349996,4.3548 -1.3749996,5.9068 0.478,-0.058 0.402,-1.794 0.9999996,-2.688 0.597,-0.897 6.1195,-5.553 7.8745,-7 0.117,-0.0961 0.086,-0.1172 -0.031,-0.0938 z m 26.407,0 c -0.004,0.0166 0.004,0.0457 0.062,0.0938 1.756,1.447 7.248,6.103 7.844,7 0.597,0.894 0.554,2.63 1.031,2.688 0.061,-1.552 -0.42,-4.8318 -1.375,-5.9068 -0.895,-1.0068 -7.507,-4.123 -7.562,-3.875 z"
     inkscape:connector-curvature="0"
     style="fill:#ffffff;stroke:#1f1f1f;stroke-width:0.2" /><path
     id="path3035"
     d="m 52.87793,24.803 -0.168,-0.192 c -3.977,-4.554 -13.365,-5.138 -21.099,-5.138 -7.734,0 -17.122,0.584 -21.099,5.138 l -0.093,0.106 -0.089,-0.109 c -0.066,-0.082 0.23,-6.515 0.233,-6.58 0.212,-4.511 0.421,-7.29 0.621,-8.262 l 0.006,-0.028 0.019,-0.022 c 0.485,-0.599 4.139,-3.917 6.448,-5.752 l 0.017,-0.016 c 0.014,-0.014 0.027,-0.027 0.041,-0.039 0.259,-0.23 0.554,-0.451 0.877,-0.658 l 0.025,-0.016 c 3.391,-2.16 9.402,-2.16 12.994,-2.16 3.582,0 9.568,0 12.976,2.147 h 0.029 l 0.031,0.022 c 0.075,0.055 0.154,0.113 0.236,0.174 0.131,0.091 0.266,0.193 0.42,0.32 2.248,1.749 6.213,5.333 6.735,5.977 l 0.019,0.022 0.006,0.028 c 0.475,2.311 0.865,14.093 0.882,14.593 l -0.067,0.445 z m -21.268,-5.569 c 7.668,0 16.957,0.575 21.093,5.014 -0.041,-1.15 -0.423,-12.158 -0.869,-14.405 -0.584,-0.692 -4.463,-4.194 -6.68,-5.917 -0.152,-0.125 -0.282,-0.225 -0.41,-0.313 -0.072,-0.054 -0.141,-0.104 -0.206,-0.151 h -0.022 l -0.029,-0.02 c -3.344,-2.128 -9.311,-2.128 -12.876,-2.128 -3.565,0 -9.534,0 -12.877,2.128 -0.32,0.205 -0.608,0.421 -0.861,0.646 l -0.061,0.058 c -2.279,1.812 -5.853,5.051 -6.4,5.698 -0.426,2.146 -0.793,12.403 -0.86,14.368 4.155,-4.405 13.412,-4.978 21.058,-4.978 z"
     inkscape:connector-curvature="0"
     style="fill:#333333" /><path
     id="path3039"
     d="m 31.62393,19.184 c 6.837,0 15.229,0.482 19.775,3.884 0.479,-0.829 -2.939,-16.384 -5.959,-19.069 -3.043,-2.708 -9.22,-2.805 -13.816,-2.805 -4.598,-10e-4 -10.774,0.096 -13.818,2.804 -3.019,2.686 -6.436,18.24 -5.958,19.069 4.546,-3.401 12.938,-3.883 19.776,-3.883 z"
     inkscape:connector-curvature="0"
     style="fill:#bebebe" /><path
     id="path3127"
     d="m 23.650153,14.312 c -2.009,0.088 -8.707,1.979 -9.125,2.344 -0.478,0.418 -1.355,2.746 -1.594,3.688 -0.135,0.533 0.182,0.926 0.719,0.687 0.248,-0.111 2.426,-1.049 4.75,-1.593 2.73,-0.639 5.433,-0.87 5.594,-1.063 0.298,-0.358 0.724,-3.429 0.219,-4 -0.064,-0.071 -0.276,-0.075 -0.563,-0.063 z m 15.687,0 c -0.091,0.014 -0.155,0.027 -0.187,0.063 -0.506,0.571 -0.08,3.518 0.219,3.875 0.161,0.194 2.864,0.424 5.594,1.062 2.323,0.544 4.533,1.483 4.781,1.594 0.536,0.24 0.822,-0.029 0.687,-0.562 -0.239,-0.942 -1.116,-3.27 -1.594,-3.688 -0.447,-0.392 -8.125,-2.546 -9.5,-2.344 z"
     inkscape:connector-curvature="0"
     style="fill:none;stroke:#787878;stroke-width:0.2" /><path
     id="path3138"
     d="m 13.80293,19.703 c 0.21,-0.746 0.616,-2.332 1.037,-2.664 0.421,-0.332 8.259,-2.557 8.706,-2.104 0.446,0.452 0.084,2.604 -0.179,2.888 -0.142,0.153 -2.533,0.434 -4.941,0.94 -2.05,0.432 -3.983,1.245 -4.201,1.332 -0.474,0.19 -0.541,0.031 -0.422,-0.392 z"
     inkscape:connector-curvature="0"
     style="fill:#343434;stroke:#1f1f1f;stroke-width:0.2" /><path
     id="path3192"
     d="m 49.56493,19.703 c -0.211,-0.746 -0.615,-2.332 -1.037,-2.664 -0.422,-0.332 -8.26,-2.557 -8.706,-2.104 -0.446,0.452 -0.084,2.604 0.179,2.888 0.143,0.153 2.533,0.434 4.941,0.94 2.05,0.432 3.982,1.245 4.201,1.332 0.474,0.19 0.541,0.031 0.422,-0.392 z"
     inkscape:connector-curvature="0"
     style="fill:#343434;stroke:#1f1f1f;stroke-width:0.2" /><path
     id="path3232"
     d="m 31.61993,1.1875 c -4.598,0 -10.769,0.10457 -13.813,2.8126 -0.189,0.168 -0.37051,0.39327 -0.56251,0.65627 0.623,0.418 6.8124,-1.203 14.375,-1.125 7.563,-0.078 13.785,1.543 14.407,1.125 -0.191,-0.263 -0.404,-0.4883 -0.593,-0.6563 -3.044,-2.708 -9.217,-2.8126 -13.813,-2.8126 z m -15.407,4.6251 c -1.221,1.121 -4.1014,3.8659 -4.4064,4.3439 l -0.7812,12.907 c 0.949,-6.771 2.9366,-13.469 5.1876,-17.25 z m 30.813,0 c 2.25,3.781 4.2386,10.479 5.1876,17.25 l -0.781,-12.907 c -0.305,-0.4775 -3.186,-3.2224 -4.407,-4.3434 z"
     inkscape:connector-curvature="0"
     style="fill:#d7d7d7" /><path
     id="path3236"
     d="m 44.61493,3.395 c 10e-4,-0.004 10e-4,-0.007 0.002,-0.01 -3.237,-2.108 -8.786,-2.191 -13.006,-2.191 -4.21,0 -9.745,0.082 -12.984,2.177 0.002,0.008 0.004,0.017 0.006,0.024 -0.913,1.023 5.257,-0.848 12.991,-0.768 7.734,-0.08 13.902,1.791 12.991,0.768 z"
     inkscape:connector-curvature="0"
     style="fill:#191919;stroke:#1f1f1f;stroke-width:0.2" /><ellipse
     id="ellipse3252"
     rx="1.2539999"
     ry="0.35800001"
     cy="1.791"
     cx="29.597"
     sodipodi:cx="29.597"
     sodipodi:cy="1.791"
     sodipodi:rx="1.2539999"
     sodipodi:ry="0.35800001"
     transform="translate(2.0259303,0)"
     style="fill:#d7d7d7" /><path
     id="path3260"
     d="m 8.9313534,27.094 c -0.2189,0.297 -0.0312,5.156 -0.0312,5.156 0,0 0.25,20.081 0.25,21.5 0,0.509 0.8897996,1.762 1.0937996,1.125 0.1639,-0.511 0.1874,-1.25 0.1874,-1.25 0,0 0.2188,-9.923 0.2188,-11.594 0,-1.671 -1.2547996,-14.9 -1.7187996,-14.937 z m 45.3749996,0 c -0.464,0.037 -1.719,13.266 -1.719,14.937 0,1.671 0.219,11.594 0.219,11.594 0,0 0.024,0.739 0.188,1.25 0.204,0.637 1.093,-0.616 1.093,-1.125 0,-1.419 0.219,-21.5 0.219,-21.5 0,0 0.218,-4.859 0,-5.156 z"
     inkscape:connector-curvature="0"
     style="fill:#171d23;stroke:#1f1f1f;stroke-width:0.29999" /><path
     id="path3276"
     d="m 8.9626534,30.844 c -0.135,0.018 -0.4448,0.689 -1.4687,0.718 -0.6692,-0.596 -2.9889,0.195 -3.875,0.719 -1.0958,0.557 -1.2849,1.447 -0.2813,2.125 1.164,-0.687 2.935,-1.25 4.875,-1.25 1.045,0 1.5345,2.725 1.8124996,1.532 0.279,-1.582 -0.2314996,-3.937 -1.0624996,-3.844 z m 45.0619996,0 c -0.742,0.187 -1.198,2.36 -0.938,3.844 0.278,1.193 0.799,-1.532 1.844,-1.532 1.94,0 3.711,0.563 4.875,1.25 0.814,-0.529 0.819,-1.43 0.125,-1.844 -2.577,-1.644 -4.127,-1.18 -4.281,-1 -1.023,-0.029 -1.334,-0.7 -1.469,-0.718 -0.052,-0.006 -0.107,-0.013 -0.156,0 z"
     inkscape:connector-curvature="0"
     style="fill:#0c0c0c" /><path
     id="path3278"
     d="m 7.4939534,33.188 c 0,0 -1.8284,-0.036 -4.1563,1.218 -2.3279,1.254 0.0828,0.378 2.2187,-0.187 2.136,-0.566 1.9376,-1.031 1.9376,-1.031 z m 48.1559996,0 c 0,0 -0.198,0.465 1.937,1.031 2.137,0.565 2.219,0.187 2.219,0.187 -2.328,-1.254 -4.156,-1.218 -4.156,-1.218 z"
     inkscape:connector-curvature="0"
     style="fill:#bceaff" /><path
     id="path3309"
     d="m 31.58793,60.955 h 19.788 c 0,0 0.213,-16.339 -0.584,-16.681 -3.345,-1.577 -11.705,-2.962 -19.204,-2.962 -7.499,0 -15.859,1.385 -19.204,2.962 -0.796,0.342 -0.583,16.681 -0.583,16.681 h 19.787"
     inkscape:connector-curvature="0"
     style="fill:#b4b4b4;stroke:#1f1f1f;stroke-width:0.2" /><path
     id="path3346"
     d="M 23.84793,38.325"
     inkscape:connector-curvature="0"
     style="fill:#232323" /><path
     id="path3368"
     d="M 11.31093,59.758"
     clip-rule="evenodd"
     stroke-miterlimit="10"
     inkscape:connector-curvature="0"
     style="fill:none;stroke:#3f3f3f;stroke-width:3;stroke-miterlimit:10" /><path
     id="path3383"
     clip-rule="evenodd"
     d="m 56.63293,113.08 c 0,2.2 -1.799,4 -4,4 h -42.047 c -2.1999997,0 -3.9999997,-1.8 -3.9999997,-4 V 65.192 c 0,-2.2 1.8,-4 3.9999997,-4 h 42.048 c 2.201,0 4,1.8 4,4 v 47.889 z"
     style="fill:url(#linearGradient4862);fill-rule:evenodd"
     inkscape:connector-curvature="0" /><path
     id="path3400"
     d="m 49.73693,83.918 c 0,1.1 -0.9,2 -2,2 h -32.255 c -1.1,0 -2,-0.9 -2,-2 V 69.607 c 0,-1.1 0.9,-2 2,-2 h 32.255 c 1.1,0 2,0.9 2,2 v 14.311 z"
     clip-rule="evenodd"
     inkscape:connector-curvature="0"
     style="fill:#dc0000;fill-rule:evenodd;stroke:#a80000;stroke-width:0.69999999" /><path
     id="path3443"
     clip-rule="evenodd"
     d="m 7.1129303,116.37 c -0.29,0 -0.527,-1.8 -0.527,-4 V 64.955 c 0,-2.2 1.8,-4 3.9999997,-4 h 42.048 c 2.201,0 4,1.8 4,4 v 47.416 c 0,2.2 -0.24,4 -0.535,4 -0.294,0 -0.535,-1.8 -0.535,-4 v -46.01 c 0,-2.2 -1.799,-4 -4,-4 h -39.924 c -2.1999997,0 -3.9999997,1.8 -3.9999997,4 v 46.01 c 0,2.2 -0.238,4 -0.527,4 z"
     inkscape:connector-curvature="0"
     style="fill:#870000;fill-rule:evenodd" /><path
     id="path3445"
     d="M 55.67793,117.44 H 7.5409303 c -0.724,0 -1.313,-0.59 -1.313,-1.313 V 62.144 c 0,-0.724 0.589,-1.313 1.313,-1.313 H 55.67893 c 0.725,0 1.314,0.59 1.314,1.313 v 53.979 c 0,0.724 -0.59,1.313 -1.315,1.313 z M 7.5409303,61.551 c -0.329,0 -0.597,0.268 -0.597,0.597 v 53.979 c 0,0.329 0.268,0.597 0.597,0.597 H 55.67893 c 0.33,0 0.598,-0.268 0.598,-0.597 v -53.98 c 0,-0.329 -0.268,-0.597 -0.598,-0.597 H 7.5409303 z"
     inkscape:connector-curvature="0"
     style="fill:#6d0000" /><path
     id="path5828"
     d="m 8.9316303,27.266 0.5882,-14.22"
     inkscape:connector-curvature="0"
     style="fill:none;stroke:#000000;stroke-width:0.30000001" /><path
     id="path5830"
     d="M 54.35593,27.087 53.61421,13.173"
     inkscape:connector-curvature="0"
     style="fill:none;stroke:#000000;stroke-width:0.30000001" /><path
     id="path3058"
     d="m 31.619153,19.188 c -7.88,0 -17.852,0.64 -21.594,5.656 0.159,5.732 1.4348,14.798 1.5938,15.594 0.1289,0.306 0.6562,0 0.6562,0 0,0 4.458,-2.876 19.344,-2.876 14.884,0 19.344,2.876 19.344,2.876 0,0 0.497,0.306 0.624,0 0.159,-0.796 1.434,-9.863 1.594,-15.594 -3.742,-5.015 -13.681,-5.656 -21.562,-5.656 z m -9.094,19.5 v 3.25 c 0,0 5.304,-0.626 9.062,-0.626 3.758,0 9.063,0.594 9.063,0.594 v -3.218 l -0.563,2.25 c 0,0 -4.25,-0.376 -8.562,-0.376 -4.312,0 -8.438,0.5 -8.438,0.5 l -0.562,-2.374 z m 2.031,5.281 c -0.711,0.136 -1.214,0.744 -1.219,1.5 -0.006,0.867 0.662,1.525 1.532,1.531 0.869,0.005 1.528,-0.636 1.531,-1.5 0.003,-0.867 -0.668,-1.528 -1.531,-1.531 -0.109,-10e-4 -0.211,-0.02 -0.313,0 z m 3.844,0 c -0.343,0.014 -0.653,0.139 -0.937,0.406 -0.006,-0.123 -0.027,-0.209 -0.032,-0.313 h -0.5 v 4.25 h 0.532 v -1.718 c 0.723,0.678 1.67,0.401 2.093,-0.032 0.536,-0.545 0.598,-1.429 0.125,-2.031 -0.235,-0.299 -0.565,-0.492 -0.937,-0.562 -0.122,-0.023 -0.23,-0.005 -0.344,0 z m 3.656,0 c -0.372,-0.008 -0.717,0.116 -1.031,0.406 -0.007,-0.131 0.005,-0.218 0,-0.313 h -0.531 v 2.844 h 0.531 c 0.005,-0.105 -0.006,-0.177 0,-0.312 0.319,0.32 0.68,0.43 1.094,0.406 0.419,-0.026 0.781,-0.186 1.062,-0.5 0.471,-0.529 0.516,-1.365 0.094,-1.938 -0.208,-0.282 -0.505,-0.472 -0.844,-0.562 -0.131,-0.035 -0.251,-0.029 -0.375,-0.031 z m 2.688,0 c -0.374,-0.003 -0.725,0.102 -0.938,0.343 0.079,0.148 0.164,0.308 0.25,0.469 0.568,-0.406 1.064,-0.418 1.438,0 0.349,0.389 0.37,0.985 0.031,1.375 -0.375,0.432 -0.882,0.435 -1.469,0.032 -0.084,0.157 -0.168,0.315 -0.25,0.468 0.619,0.523 1.629,0.455 2.157,-0.156 0.543,-0.629 0.468,-1.64 -0.157,-2.188 -0.279,-0.244 -0.688,-0.34 -1.062,-0.343 z m 3.531,0 c -0.865,10e-4 -1.533,0.666 -1.531,1.531 0,0.867 0.694,1.504 1.562,1.5 0.872,-0.002 1.533,-0.664 1.531,-1.531 0,-0.864 -0.695,-1.501 -1.562,-1.5 z m -13.406,0.5 c 0.541,10e-4 1.001,0.479 1,1.031 0,0.551 -0.458,1 -1,1 -0.542,-10e-4 -1.001,-0.447 -1,-1 0,-0.552 0.459,-1.032 1,-1.031 z m 3.562,0 c 0.542,0.003 1.002,0.477 1,1.031 -0.003,0.554 -0.458,1.006 -1,1 -0.545,-0.005 -1.003,-0.474 -1,-1.031 0.002,-0.554 0.457,-1.003 1,-1 z m 3.594,0 c 0.543,0.003 0.974,0.477 0.969,1.031 -0.005,0.556 -0.457,1.005 -1,1 -0.544,-0.005 -1.004,-0.478 -1,-1.031 0.005,-0.554 0.49,-1.005 1.031,-1 z m 6.281,0 c 0.54,0.002 0.971,0.479 0.969,1.031 -0.002,0.552 -0.459,1.004 -1,1 -0.545,-0.004 -0.971,-0.48 -0.969,-1.031 0.005,-0.554 0.457,-1.002 1,-1 z m -6.593,5.219 c -2.117,-0.074 -3.902,1.343 -4.313,3.406 -0.121,0.611 -0.106,1.208 0.063,1.812 0.006,-0.051 0.024,-0.075 0.031,-0.125 0.138,-1.088 0.71,-1.879 1.719,-2.281 1.003,-0.401 1.926,-0.178 2.718,0.531 0.805,0.721 1,1.665 0.719,2.688 -0.456,1.657 -2.406,2.362 -3.844,1.375 -0.409,-0.28 -0.618,-0.671 -0.593,-1.188 0.023,-0.469 0.404,-0.886 0.843,-0.906 0.452,-0.021 0.847,0.301 0.907,0.75 0.041,0.311 -0.037,0.594 -0.282,0.812 0.239,0.084 0.466,0.058 0.688,0 0.696,-0.178 1.193,-0.849 1.187,-1.593 -0.006,-0.749 -0.545,-1.438 -1.281,-1.594 -1.795,-0.381 -2.739,1.253 -2.469,2.437 0.164,0.721 0.581,1.267 1.188,1.657 0.875,0.561 1.855,0.732 2.875,0.656 2.386,-0.18 4.155,-2.379 3.844,-4.75 -0.269,-2.047 -1.972,-3.616 -4,-3.687 z m -7.688,10.062 c -0.597,0 -1.5,1.219 -1.5,1.219 h 18.156 c 0,0 -0.904,-1.219 -1.5,-1.219 h -15.156 z"
     inkscape:connector-curvature="0" /><path
     id="path3060"
     d="m 31.60893,19.669 c 7.723,0 17.475,0.353 21.141,5.268 -0.156,5.616 -1.404,14.171 -1.561,14.952 -0.127,0.3 -0.624,0 -0.624,0 0,0 -4.368,-2.809 -18.957,-2.809 -14.588,0 -18.956,2.809 -18.956,2.809 0,0 -0.498,0.3 -0.624,0 -0.156,-0.781 -1.404,-9.336 -1.561,-14.952 3.669,-4.916 13.419,-5.268 21.142,-5.268 z"
     style="fill:url(#linearGradient14621)"
     inkscape:connector-curvature="0" /><path
     id="path3296"
     d="m 28.213153,19.777 -4.4375,0.23062 v 17.331 l 4.5,-0.31 z m 3.375,18.536 c -5.1709,-0.001 -7.6895,0.196 -9.0625,0.375 0,0 6.4668,0.375 9.0938,0.375 2.4669,0 9.0312,-0.375 9.0312,-0.375 -1.373,-0.179 -3.8916,-0.375 -9.0625,-0.375 z m -9.5938,0.28125 c -3.883,0.254 -8.66,1.631 -10.125,2.406 v 2.875 c 3.614,-1.647 10.218,-2.469 10.218,-2.469 z m 19.156,0 -0.0625,2.8125 c 0,0 6.5726,0.82179 10.188,2.4688 v -2.875 c -1.465,-0.775 -6.243,-2.152 -10.125,-2.406 z"
     inkscape:connector-curvature="0"
     style="fill:#a0a0a0" /></svg>