<?xml version="1.0" encoding="UTF-8" standalone="no"?>
<!-- Generator: Adobe Illustrator 16.0.0, SVG Export Plug-In . SVG Version: 6.00 Build 0) -->
<!DOCTYPE svg PUBLIC '-//W3C//DTD SVG 1.1//EN' 'http://www.w3.org/Graphics/SVG/1.1/DTD/svg11.dtd'>
<svg id="Layer_1" xmlns="http://www.w3.org/2000/svg" xml:space="preserve" version="1.1" xmlns:xlink="http://www.w3.org/1999/xlink" x="0px" y="0px" width="320.221px" height="748.924px" enable-background="new 0 0 320.221 748.924">
		<rect width="319.57" height="747.55" fill="#A0C53A"/>
					<path d="m46.537 130.92c-0.072-0.582-0.272-1.122-0.5-1.651-0.224-0.53-0.48-1.047-0.748-1.559l-1.644-3.079c-0.53-1.047-1.046-2.111-1.438-3.27-0.196-0.581-0.346-1.191-0.41-1.848-0.062-0.648-0.025-1.381 0.3-2.087 0.073-0.178 0.177-0.342 0.288-0.503 0.046-0.061 0.014-0.037 0.123-0.165l0.072-0.082 0.145-0.163c0.344-0.332 0.81-0.614 1.378-0.62 0.575 0.003 0.987 0.259 1.308 0.487 0.322 0.241 0.552 0.502 0.768 0.763 0.825 1.05 1.334 2.139 1.836 3.232 0.48 1.097 0.883 2.21 1.27 3.32l1.104 3.274-1.902 0.6c-0.161-0.706-0.194-1.271-0.235-1.875-0.034-0.596-0.045-1.184-0.04-1.771 0.021-1.176 0.08-2.351 0.274-3.525 0.192-1.174 0.456-2.355 1.014-3.522 0.288-0.575 0.655-1.176 1.274-1.649 0.609-0.492 1.55-0.656 2.266-0.473l0.069 0.013 0.034 0.007 0.098 0.027 0.012 0.004 0.1 0.039c0.082 0.037 0.096 0.025 0.235 0.104 0.118 0.064 0.234 0.137 0.343 0.215 0.09 0.075 0.161 0.151 0.238 0.23 0.284 0.32 0.459 0.68 0.557 1.01 0.207 0.672 0.234 1.298 0.22 1.904-0.042 1.209-0.237 2.354-0.482 3.481-0.258 1.124-0.554 2.229-0.888 3.322-0.319 1.097-0.709 2.167-1 3.268 0.086-1.142 0.297-2.267 0.465-3.39 0.171-1.123 0.352-2.241 0.463-3.359 0.124-1.112 0.21-2.232 0.143-3.298-0.039-0.526-0.113-1.048-0.274-1.454-0.074-0.209-0.184-0.359-0.282-0.455l-0.071-0.062c-0.012 0.003-0.017 0-0.019-0.011 0.024-0.009-0.11-0.039-0.157-0.057l-0.103-0.033-0.012-0.004c0.157 0.047 0.041 0.014 0.074 0.023h-0.004l-0.019-0.002-0.035-0.002c-0.393-0.047-0.673 0.025-0.944 0.266s-0.527 0.628-0.721 1.076c-0.389 0.902-0.601 1.973-0.727 3.043-0.125 1.075-0.193 2.174-0.189 3.271 0.002 0.548 0.02 1.096 0.059 1.635 0.037 0.528 0.099 1.101 0.199 1.502l-1.902 0.599c-0.218-0.597-0.377-1.142-0.556-1.697l-0.53-1.646c-0.357-1.091-0.746-2.164-1.165-3.21-0.417-1.034-0.882-2.082-1.468-2.886-0.273-0.401-0.667-0.671-0.715-0.651-0.023-0.01-0.089 0.014-0.182 0.057l-0.155 0.154-0.077 0.076c0.062-0.072-0.007 0.014-0.004 0.012-0.059 0.075-0.121 0.15-0.162 0.24-0.406 0.693-0.275 1.834-0.03 2.885 0.252 1.074 0.655 2.152 1.072 3.227 0.408 1.081 0.863 2.154 1.255 3.262 0.374 1.1 0.777 2.25 0.734 3.43z" fill="#709922"/>
					<path d="m70.115 236.65c-0.072-0.583-0.272-1.122-0.5-1.651-0.224-0.53-0.48-1.047-0.748-1.559l-1.644-3.079c-0.53-1.046-1.046-2.11-1.438-3.271-0.196-0.58-0.346-1.189-0.41-1.846-0.062-0.649-0.025-1.383 0.3-2.088 0.073-0.178 0.177-0.342 0.288-0.504 0.046-0.06 0.014-0.037 0.123-0.164l0.072-0.082 0.145-0.164c0.345-0.331 0.81-0.613 1.378-0.619 0.575 0.002 0.987 0.259 1.308 0.486 0.322 0.242 0.553 0.502 0.769 0.764 0.825 1.049 1.334 2.139 1.835 3.232 0.481 1.097 0.883 2.21 1.27 3.32l1.104 3.275-1.902 0.6c-0.161-0.707-0.194-1.271-0.235-1.877-0.034-0.594-0.045-1.183-0.04-1.771 0.021-1.174 0.08-2.35 0.274-3.525 0.192-1.174 0.457-2.354 1.015-3.521 0.289-0.576 0.656-1.176 1.275-1.648 0.609-0.493 1.549-0.656 2.265-0.475l0.069 0.014 0.034 0.007 0.018 0.003 0.093 0.029 0.099 0.038c0.083 0.037 0.097 0.026 0.235 0.103 0.118 0.064 0.234 0.137 0.343 0.215 0.09 0.076 0.161 0.152 0.239 0.23 0.284 0.32 0.459 0.68 0.556 1.011 0.208 0.672 0.235 1.298 0.22 1.903-0.042 1.209-0.237 2.354-0.482 3.482-0.258 1.125-0.555 2.229-0.887 3.322-0.319 1.096-0.71 2.167-1 3.268 0.086-1.142 0.296-2.267 0.465-3.39 0.17-1.124 0.351-2.241 0.462-3.359 0.124-1.112 0.21-2.233 0.144-3.298-0.039-0.527-0.114-1.049-0.274-1.455-0.074-0.209-0.184-0.359-0.282-0.455l-0.071-0.061c-0.013 0.002-0.017 0-0.019-0.011 0.023-0.009-0.111-0.039-0.158-0.058l-0.102-0.031-0.007-0.002c0.034 0.01-0.084-0.025 0.074 0.021l-0.009-0.001-0.019-0.001-0.036-0.004c-0.393-0.046-0.672 0.027-0.945 0.267-0.271 0.241-0.527 0.628-0.72 1.075-0.39 0.903-0.602 1.973-0.728 3.044-0.125 1.075-0.193 2.175-0.189 3.271 0.002 0.549 0.02 1.097 0.059 1.637 0.037 0.527 0.099 1.1 0.199 1.5l-1.902 0.6c-0.218-0.598-0.377-1.141-0.556-1.697l-0.529-1.646c-0.358-1.091-0.747-2.164-1.165-3.211-0.418-1.033-0.882-2.082-1.468-2.885-0.273-0.4-0.667-0.672-0.716-0.651-0.023-0.009-0.089 0.015-0.182 0.058l-0.155 0.152-0.077 0.077c0.062-0.072-0.007 0.013-0.004 0.013-0.059 0.074-0.121 0.148-0.162 0.239-0.406 0.693-0.275 1.833-0.03 2.884 0.252 1.076 0.655 2.153 1.072 3.227 0.407 1.082 0.862 2.156 1.255 3.262 0.374 1.14 0.777 2.29 0.734 3.47z" fill="#709922"/>
					<path d="m58.326 418.65c-0.072-0.583-0.272-1.122-0.5-1.651-0.224-0.53-0.48-1.047-0.748-1.559l-1.644-3.079c-0.53-1.046-1.046-2.11-1.438-3.271-0.196-0.58-0.346-1.189-0.41-1.846-0.062-0.649-0.025-1.382 0.3-2.088 0.073-0.178 0.177-0.342 0.288-0.504 0.046-0.06 0.014-0.037 0.123-0.164l0.072-0.082 0.145-0.164c0.344-0.33 0.81-0.613 1.378-0.619 0.575 0.003 0.987 0.26 1.308 0.487 0.322 0.241 0.552 0.502 0.768 0.763 0.825 1.05 1.334 2.139 1.836 3.232 0.48 1.097 0.883 2.21 1.27 3.32l1.104 3.275-1.902 0.6c-0.161-0.707-0.194-1.271-0.235-1.877-0.034-0.594-0.045-1.183-0.04-1.771 0.021-1.175 0.08-2.351 0.274-3.525 0.192-1.174 0.456-2.354 1.014-3.522 0.288-0.575 0.655-1.176 1.274-1.648 0.609-0.493 1.55-0.656 2.266-0.475l0.069 0.014 0.034 0.007 0.098 0.027 0.012 0.005 0.1 0.039c0.082 0.037 0.096 0.025 0.235 0.103 0.118 0.064 0.234 0.138 0.343 0.214 0.09 0.076 0.161 0.152 0.238 0.231 0.284 0.32 0.459 0.679 0.557 1.011 0.207 0.672 0.234 1.297 0.22 1.903-0.042 1.208-0.237 2.354-0.482 3.481-0.258 1.125-0.554 2.23-0.888 3.322-0.319 1.096-0.709 2.167-1 3.268 0.086-1.141 0.297-2.267 0.465-3.389 0.171-1.124 0.352-2.242 0.463-3.359 0.124-1.113 0.21-2.232 0.143-3.299-0.039-0.526-0.113-1.049-0.274-1.454-0.074-0.21-0.184-0.359-0.282-0.456l-0.071-0.061c-0.012 0.002-0.017 0-0.019-0.011 0.024-0.009-0.11-0.039-0.157-0.058l-0.103-0.031-0.012-0.004c0.157 0.046 0.041 0.012 0.074 0.022h-0.004l-0.019-0.001-0.035-0.004c-0.393-0.046-0.673 0.027-0.944 0.267-0.271 0.241-0.527 0.628-0.721 1.075-0.389 0.904-0.601 1.973-0.727 3.044-0.125 1.075-0.193 2.175-0.189 3.271 0.002 0.549 0.02 1.098 0.059 1.637 0.037 0.527 0.099 1.1 0.199 1.5l-1.902 0.6c-0.218-0.598-0.377-1.141-0.556-1.697l-0.53-1.646c-0.357-1.09-0.746-2.164-1.165-3.21-0.417-1.034-0.882-2.082-1.468-2.886-0.273-0.4-0.667-0.672-0.715-0.651-0.023-0.009-0.089 0.015-0.182 0.058l-0.155 0.152-0.077 0.077c0.062-0.072-0.007 0.014-0.004 0.013-0.059 0.074-0.121 0.148-0.162 0.24-0.406 0.692-0.275 1.832-0.03 2.883 0.252 1.076 0.655 2.153 1.072 3.227 0.408 1.082 0.863 2.156 1.255 3.262 0.374 1.12 0.777 2.27 0.734 3.45z" fill="#709922"/>
					<path d="m203.49 410.92c-0.072-0.582-0.272-1.122-0.5-1.651-0.224-0.53-0.48-1.047-0.748-1.559l-1.644-3.079c-0.53-1.047-1.046-2.111-1.438-3.27-0.196-0.581-0.346-1.191-0.41-1.848-0.062-0.648-0.025-1.381 0.3-2.087 0.073-0.178 0.177-0.342 0.288-0.503 0.046-0.061 0.014-0.037 0.123-0.165l0.072-0.082 0.145-0.163c0.344-0.332 0.81-0.614 1.378-0.62 0.575 0.003 0.987 0.259 1.308 0.487 0.322 0.241 0.552 0.502 0.768 0.763 0.825 1.05 1.334 2.139 1.836 3.232 0.48 1.097 0.883 2.21 1.27 3.32l1.104 3.274-1.902 0.6c-0.161-0.706-0.194-1.271-0.235-1.875-0.034-0.596-0.045-1.184-0.04-1.771 0.021-1.176 0.08-2.351 0.274-3.525 0.192-1.174 0.456-2.355 1.014-3.522 0.288-0.575 0.655-1.176 1.274-1.649 0.609-0.492 1.55-0.656 2.266-0.473l0.069 0.013 0.034 0.007 0.098 0.027 0.012 0.004 0.1 0.039c0.082 0.037 0.096 0.025 0.235 0.104 0.118 0.064 0.234 0.137 0.343 0.215 0.09 0.075 0.161 0.151 0.238 0.23 0.284 0.32 0.459 0.68 0.557 1.01 0.207 0.672 0.234 1.298 0.22 1.904-0.042 1.209-0.237 2.354-0.482 3.481-0.258 1.124-0.554 2.229-0.888 3.322-0.319 1.097-0.709 2.167-1 3.268 0.086-1.142 0.297-2.267 0.465-3.39 0.171-1.123 0.352-2.241 0.463-3.359 0.124-1.112 0.21-2.232 0.143-3.298-0.039-0.526-0.113-1.048-0.274-1.454-0.074-0.209-0.184-0.359-0.282-0.455l-0.071-0.062c-0.012 0.003-0.017 0-0.019-0.011 0.024-0.009-0.11-0.039-0.157-0.057l-0.103-0.033-0.012-0.004c0.157 0.047 0.041 0.014 0.074 0.023h-0.004l-0.019-0.002-0.035-0.002c-0.393-0.047-0.673 0.025-0.944 0.266s-0.527 0.628-0.721 1.076c-0.389 0.902-0.601 1.973-0.727 3.043-0.125 1.075-0.193 2.174-0.189 3.271 0.002 0.548 0.02 1.096 0.059 1.635 0.037 0.528 0.099 1.101 0.199 1.502l-1.902 0.599c-0.218-0.597-0.377-1.142-0.556-1.697l-0.53-1.646c-0.357-1.091-0.746-2.164-1.165-3.21-0.417-1.034-0.882-2.082-1.468-2.886-0.273-0.401-0.667-0.671-0.715-0.651-0.023-0.01-0.089 0.014-0.182 0.057l-0.155 0.154-0.077 0.076c0.062-0.072-0.007 0.014-0.004 0.012-0.059 0.075-0.121 0.15-0.162 0.24-0.406 0.693-0.275 1.834-0.03 2.885 0.252 1.074 0.655 2.152 1.072 3.227 0.408 1.081 0.863 2.154 1.255 3.262 0.37 1.1 0.77 2.25 0.73 3.43z" fill="#709922"/>
					<path d="m122.42 468.92c-0.072-0.583-0.272-1.122-0.5-1.651-0.224-0.53-0.48-1.047-0.748-1.559l-1.644-3.079c-0.53-1.047-1.046-2.111-1.438-3.271-0.196-0.58-0.346-1.19-0.41-1.847-0.062-0.648-0.025-1.381 0.3-2.087 0.073-0.179 0.177-0.343 0.288-0.503 0.046-0.061 0.014-0.037 0.123-0.166l0.072-0.082 0.145-0.163c0.345-0.331 0.81-0.612 1.378-0.619 0.575 0.003 0.987 0.259 1.308 0.487 0.322 0.24 0.553 0.502 0.769 0.762 0.825 1.051 1.334 2.14 1.835 3.232 0.481 1.098 0.883 2.211 1.27 3.321l1.104 3.274-1.902 0.6c-0.161-0.706-0.194-1.271-0.235-1.876-0.034-0.595-0.045-1.183-0.04-1.771 0.021-1.176 0.08-2.351 0.274-3.525 0.192-1.174 0.457-2.355 1.015-3.523 0.289-0.574 0.656-1.176 1.275-1.648 0.609-0.492 1.549-0.656 2.265-0.474l0.069 0.014 0.034 0.007 0.018 0.004 0.093 0.027 0.099 0.039c0.083 0.037 0.097 0.026 0.235 0.104 0.118 0.063 0.234 0.137 0.343 0.214 0.09 0.075 0.161 0.151 0.239 0.23 0.284 0.32 0.459 0.679 0.556 1.011 0.208 0.672 0.235 1.298 0.22 1.904-0.042 1.208-0.237 2.354-0.482 3.48-0.258 1.125-0.555 2.23-0.887 3.323-0.319 1.097-0.71 2.167-1 3.268 0.086-1.142 0.296-2.267 0.465-3.39 0.17-1.123 0.351-2.241 0.462-3.359 0.124-1.113 0.21-2.232 0.144-3.299-0.039-0.525-0.114-1.049-0.274-1.453-0.074-0.21-0.184-0.359-0.282-0.455l-0.071-0.062c-0.013 0.003-0.017 0-0.019-0.011 0.023-0.01-0.111-0.039-0.158-0.058l-0.102-0.032-0.007-0.002c0.034 0.01-0.084-0.024 0.074 0.021h-0.009l-0.019-0.002-0.036-0.002c-0.393-0.047-0.672 0.025-0.945 0.266-0.271 0.242-0.527 0.628-0.72 1.076-0.39 0.902-0.602 1.973-0.728 3.043-0.125 1.075-0.193 2.174-0.189 3.271 0.002 0.548 0.02 1.096 0.059 1.635 0.037 0.528 0.099 1.101 0.199 1.502l-1.902 0.599c-0.218-0.597-0.377-1.142-0.556-1.697l-0.529-1.646c-0.358-1.091-0.747-2.165-1.165-3.21-0.418-1.035-0.882-2.082-1.468-2.886-0.273-0.401-0.667-0.671-0.716-0.651-0.023-0.01-0.089 0.015-0.182 0.057l-0.155 0.154-0.077 0.076c0.062-0.072-0.007 0.014-0.004 0.012-0.059 0.075-0.121 0.149-0.162 0.24-0.406 0.693-0.275 1.834-0.03 2.884 0.252 1.075 0.655 2.153 1.072 3.228 0.407 1.081 0.862 2.154 1.255 3.262 0.4 1.12 0.8 2.27 0.76 3.45z" fill="#709922"/>
					<path d="m234.03 530.92c-0.072-0.583-0.272-1.122-0.5-1.651-0.224-0.53-0.48-1.047-0.748-1.559l-1.644-3.079c-0.53-1.047-1.046-2.111-1.438-3.271-0.196-0.58-0.346-1.19-0.41-1.847-0.062-0.648-0.025-1.381 0.3-2.087 0.073-0.179 0.177-0.343 0.288-0.503 0.046-0.061 0.014-0.037 0.123-0.166l0.072-0.082 0.145-0.163c0.345-0.331 0.81-0.612 1.378-0.619 0.575 0.003 0.987 0.259 1.308 0.487 0.322 0.24 0.553 0.502 0.769 0.762 0.825 1.051 1.334 2.14 1.835 3.232 0.481 1.098 0.883 2.211 1.27 3.321l1.104 3.274-1.902 0.6c-0.161-0.706-0.194-1.271-0.235-1.876-0.034-0.595-0.045-1.183-0.04-1.771 0.021-1.176 0.08-2.351 0.274-3.525 0.192-1.174 0.457-2.355 1.015-3.523 0.289-0.574 0.656-1.176 1.275-1.648 0.609-0.492 1.549-0.656 2.265-0.474l0.069 0.014 0.034 0.007 0.018 0.004 0.093 0.027 0.099 0.039c0.083 0.037 0.097 0.026 0.235 0.104 0.118 0.063 0.234 0.137 0.343 0.214 0.09 0.075 0.161 0.151 0.239 0.23 0.284 0.32 0.459 0.679 0.556 1.011 0.208 0.672 0.235 1.298 0.22 1.904-0.042 1.208-0.237 2.354-0.482 3.48-0.258 1.125-0.555 2.23-0.887 3.323-0.319 1.097-0.71 2.167-1 3.268 0.086-1.142 0.296-2.267 0.465-3.39 0.17-1.123 0.351-2.241 0.462-3.359 0.124-1.113 0.21-2.232 0.144-3.299-0.039-0.525-0.114-1.049-0.274-1.453-0.074-0.21-0.184-0.359-0.282-0.455l-0.071-0.062c-0.013 0.003-0.017 0-0.019-0.011 0.023-0.01-0.111-0.039-0.158-0.058l-0.102-0.032-0.007-0.002c0.034 0.01-0.084-0.024 0.074 0.021h-0.009l-0.019-0.002-0.036-0.002c-0.393-0.047-0.672 0.025-0.945 0.266-0.271 0.242-0.527 0.628-0.72 1.076-0.39 0.902-0.602 1.973-0.728 3.043-0.125 1.075-0.193 2.174-0.189 3.271 0.002 0.548 0.02 1.096 0.059 1.635 0.037 0.528 0.099 1.101 0.199 1.502l-1.902 0.599c-0.218-0.597-0.377-1.142-0.556-1.697l-0.529-1.646c-0.358-1.091-0.747-2.165-1.165-3.21-0.418-1.035-0.882-2.082-1.468-2.886-0.273-0.401-0.667-0.671-0.716-0.651-0.023-0.01-0.089 0.015-0.182 0.057l-0.155 0.154-0.077 0.076c0.062-0.072-0.007 0.014-0.004 0.012-0.059 0.075-0.121 0.149-0.162 0.24-0.406 0.693-0.275 1.834-0.03 2.884 0.252 1.075 0.655 2.153 1.072 3.228 0.407 1.081 0.862 2.154 1.255 3.262 0.39 1.12 0.79 2.27 0.75 3.45z" fill="#709922"/>
					<path d="m122.42 603.04c-0.072-0.583-0.272-1.122-0.5-1.651-0.224-0.53-0.48-1.047-0.748-1.559l-1.644-3.079c-0.53-1.047-1.046-2.111-1.438-3.271-0.196-0.58-0.346-1.19-0.41-1.847-0.062-0.648-0.025-1.381 0.3-2.087 0.073-0.179 0.177-0.343 0.288-0.503 0.046-0.061 0.014-0.037 0.123-0.166l0.072-0.082 0.145-0.163c0.345-0.331 0.81-0.612 1.378-0.619 0.575 0.003 0.987 0.259 1.308 0.487 0.322 0.24 0.553 0.502 0.769 0.762 0.825 1.051 1.334 2.14 1.835 3.232 0.481 1.098 0.883 2.211 1.27 3.321l1.104 3.274-1.902 0.6c-0.161-0.706-0.194-1.271-0.235-1.876-0.034-0.595-0.045-1.183-0.04-1.771 0.021-1.176 0.08-2.351 0.274-3.525 0.192-1.174 0.457-2.355 1.015-3.523 0.289-0.574 0.656-1.176 1.275-1.648 0.609-0.492 1.549-0.656 2.265-0.474l0.069 0.014 0.034 0.007 0.018 0.004 0.093 0.027 0.099 0.039c0.083 0.037 0.097 0.026 0.235 0.104 0.118 0.063 0.234 0.137 0.343 0.214 0.09 0.075 0.161 0.151 0.239 0.23 0.284 0.32 0.459 0.679 0.556 1.011 0.208 0.672 0.235 1.298 0.22 1.904-0.042 1.208-0.237 2.354-0.482 3.48-0.258 1.125-0.555 2.23-0.887 3.323-0.319 1.097-0.71 2.167-1 3.268 0.086-1.142 0.296-2.267 0.465-3.39 0.17-1.123 0.351-2.241 0.462-3.359 0.124-1.113 0.21-2.232 0.144-3.299-0.039-0.525-0.114-1.049-0.274-1.453-0.074-0.21-0.184-0.359-0.282-0.455l-0.071-0.062c-0.013 0.003-0.017 0-0.019-0.011 0.023-0.01-0.111-0.039-0.158-0.058l-0.102-0.032-0.007-0.002c0.034 0.01-0.084-0.024 0.074 0.021h-0.009l-0.019-0.002-0.036-0.002c-0.393-0.047-0.672 0.025-0.945 0.266-0.271 0.242-0.527 0.628-0.72 1.076-0.39 0.902-0.602 1.973-0.728 3.043-0.125 1.075-0.193 2.174-0.189 3.271 0.002 0.548 0.02 1.096 0.059 1.635 0.037 0.528 0.099 1.101 0.199 1.502l-1.902 0.599c-0.218-0.597-0.377-1.142-0.556-1.697l-0.529-1.646c-0.358-1.091-0.747-2.165-1.165-3.21-0.418-1.035-0.882-2.082-1.468-2.886-0.273-0.401-0.667-0.671-0.716-0.651-0.023-0.01-0.089 0.015-0.182 0.057l-0.155 0.154-0.077 0.076c0.062-0.072-0.007 0.014-0.004 0.012-0.059 0.075-0.121 0.149-0.162 0.24-0.406 0.693-0.275 1.834-0.03 2.884 0.252 1.075 0.655 2.153 1.072 3.228 0.407 1.081 0.862 2.154 1.255 3.262 0.4 1.12 0.8 2.27 0.76 3.45z" fill="#709922"/>
					<path d="m239.92 637.35c-0.072-0.583-0.272-1.122-0.5-1.651-0.224-0.53-0.48-1.047-0.748-1.559l-1.644-3.079c-0.53-1.046-1.046-2.11-1.438-3.271-0.196-0.58-0.346-1.189-0.41-1.846-0.062-0.649-0.025-1.383 0.3-2.088 0.073-0.178 0.177-0.342 0.288-0.504 0.046-0.06 0.014-0.037 0.123-0.164l0.072-0.082 0.145-0.164c0.345-0.331 0.81-0.613 1.378-0.619 0.575 0.002 0.987 0.259 1.308 0.486 0.322 0.242 0.553 0.502 0.769 0.764 0.825 1.049 1.334 2.139 1.835 3.232 0.481 1.097 0.883 2.21 1.27 3.32l1.104 3.275-1.902 0.6c-0.161-0.707-0.194-1.271-0.235-1.877-0.034-0.594-0.045-1.183-0.04-1.771 0.021-1.174 0.08-2.35 0.274-3.525 0.192-1.174 0.457-2.354 1.015-3.521 0.289-0.576 0.656-1.176 1.275-1.648 0.609-0.493 1.549-0.656 2.265-0.475l0.069 0.014 0.035 0.007 0.017 0.003 0.093 0.029 0.1 0.038c0.082 0.037 0.096 0.026 0.234 0.103 0.118 0.064 0.234 0.137 0.343 0.215 0.09 0.076 0.161 0.152 0.239 0.23 0.284 0.32 0.459 0.68 0.556 1.011 0.208 0.672 0.235 1.298 0.221 1.903-0.042 1.209-0.237 2.354-0.482 3.482-0.258 1.125-0.554 2.229-0.888 3.322-0.319 1.096-0.709 2.167-1 3.268 0.086-1.142 0.297-2.267 0.465-3.39 0.171-1.123 0.352-2.241 0.463-3.359 0.124-1.112 0.21-2.232 0.143-3.298-0.039-0.527-0.114-1.049-0.274-1.455-0.074-0.209-0.184-0.358-0.282-0.455l-0.071-0.061c-0.012 0.002-0.017 0-0.019-0.011 0.023-0.009-0.11-0.039-0.158-0.058l-0.102-0.031-0.006-0.002c0.033 0.01-0.085-0.025 0.073 0.021l-0.009-0.001-0.019-0.001-0.036-0.004c-0.393-0.046-0.672 0.027-0.945 0.267-0.271 0.241-0.527 0.628-0.72 1.075-0.39 0.903-0.602 1.973-0.728 3.043-0.125 1.076-0.193 2.176-0.189 3.271 0.002 0.549 0.02 1.097 0.059 1.637 0.037 0.527 0.099 1.1 0.199 1.5l-1.902 0.6c-0.218-0.598-0.377-1.141-0.556-1.697l-0.529-1.646c-0.358-1.091-0.747-2.164-1.165-3.211-0.418-1.033-0.882-2.082-1.468-2.885-0.273-0.4-0.667-0.672-0.716-0.651-0.023-0.009-0.089 0.015-0.182 0.058l-0.155 0.152-0.077 0.077c0.062-0.072-0.007 0.013-0.004 0.013-0.059 0.074-0.121 0.148-0.162 0.239-0.406 0.693-0.275 1.833-0.03 2.884 0.252 1.076 0.655 2.153 1.072 3.227 0.407 1.082 0.862 2.156 1.255 3.262 0.4 1.14 0.8 2.29 0.76 3.47z" fill="#709922"/>
					<path d="m84.66 748.92c-0.072-0.582-0.273-1.122-0.5-1.651-0.225-0.53-0.481-1.047-0.75-1.559l-1.643-3.079c-0.53-1.047-1.047-2.111-1.438-3.271-0.196-0.58-0.347-1.19-0.41-1.847-0.062-0.648-0.026-1.381 0.3-2.087 0.072-0.179 0.177-0.343 0.287-0.503 0.046-0.061 0.014-0.037 0.124-0.166l0.071-0.082 0.145-0.163c0.346-0.331 0.811-0.612 1.379-0.619 0.574 0.003 0.986 0.259 1.307 0.487 0.322 0.241 0.553 0.502 0.769 0.763 0.825 1.05 1.334 2.139 1.836 3.232 0.48 1.097 0.883 2.21 1.27 3.32l1.104 3.274-1.901 0.602c-0.162-0.707-0.196-1.272-0.237-1.877-0.034-0.595-0.045-1.184-0.04-1.771 0.021-1.176 0.08-2.351 0.273-3.525 0.192-1.174 0.457-2.355 1.015-3.523 0.289-0.574 0.656-1.176 1.275-1.648 0.609-0.492 1.549-0.656 2.265-0.473l0.069 0.013 0.035 0.007 0.017 0.004 0.093 0.027 0.1 0.039c0.082 0.037 0.096 0.026 0.234 0.104 0.118 0.064 0.234 0.137 0.343 0.214 0.09 0.075 0.161 0.151 0.239 0.231 0.284 0.319 0.459 0.678 0.556 1.01 0.208 0.672 0.235 1.297 0.221 1.904-0.042 1.208-0.237 2.354-0.482 3.48-0.258 1.125-0.554 2.23-0.888 3.323-0.319 1.097-0.709 2.167-1 3.268 0.086-1.142 0.297-2.267 0.465-3.39 0.171-1.123 0.352-2.241 0.463-3.359 0.124-1.112 0.21-2.232 0.143-3.299-0.039-0.525-0.114-1.048-0.274-1.453-0.074-0.21-0.184-0.359-0.282-0.455l-0.071-0.062c-0.012 0.003-0.017 0-0.019-0.011 0.023-0.009-0.11-0.039-0.158-0.058l-0.102-0.032-0.006-0.002c0.033 0.01-0.085-0.024 0.073 0.021h-0.009l-0.019-0.002-0.036-0.002c-0.393-0.047-0.672 0.025-0.945 0.266-0.271 0.241-0.527 0.628-0.72 1.076-0.39 0.902-0.602 1.972-0.728 3.043-0.125 1.075-0.193 2.174-0.189 3.271 0.003 0.547 0.021 1.096 0.06 1.635 0.038 0.527 0.099 1.1 0.199 1.5l-1.901 0.602c-0.218-0.598-0.377-1.142-0.557-1.697l-0.529-1.646c-0.358-1.092-0.747-2.165-1.166-3.211-0.417-1.034-0.882-2.082-1.468-2.886-0.272-0.401-0.667-0.671-0.715-0.651-0.024-0.01-0.09 0.015-0.183 0.057l-0.155 0.154-0.077 0.076c0.063-0.072-0.006 0.014-0.004 0.012-0.059 0.074-0.12 0.149-0.161 0.24-0.407 0.693-0.276 1.834-0.03 2.884 0.252 1.075 0.655 2.153 1.072 3.228 0.408 1.081 0.863 2.154 1.256 3.262 0.374 1.12 0.778 2.27 0.735 3.45z" fill="#709922"/>
					<path d="m40.643 663.45c-0.072-0.583-0.273-1.122-0.5-1.651-0.225-0.53-0.481-1.047-0.75-1.559l-1.643-3.079c-0.53-1.046-1.047-2.11-1.438-3.271-0.196-0.58-0.347-1.189-0.41-1.846-0.062-0.649-0.026-1.383 0.3-2.088 0.072-0.178 0.177-0.342 0.287-0.504 0.046-0.061 0.014-0.037 0.124-0.165l0.071-0.081 0.145-0.164c0.346-0.332 0.811-0.613 1.379-0.619 0.574 0.003 0.986 0.259 1.307 0.487 0.322 0.241 0.553 0.502 0.769 0.763 0.825 1.05 1.334 2.139 1.836 3.232 0.48 1.098 0.883 2.21 1.27 3.32l1.104 3.274-1.901 0.601c-0.162-0.707-0.196-1.271-0.237-1.877-0.034-0.594-0.045-1.182-0.04-1.771 0.021-1.175 0.08-2.351 0.273-3.526 0.192-1.173 0.457-2.354 1.015-3.521 0.289-0.576 0.656-1.176 1.275-1.648 0.609-0.493 1.549-0.656 2.265-0.475l0.069 0.014 0.035 0.007 0.017 0.003 0.093 0.029 0.1 0.038c0.082 0.037 0.096 0.026 0.234 0.103 0.118 0.064 0.234 0.137 0.343 0.215 0.09 0.076 0.161 0.152 0.239 0.23 0.284 0.32 0.459 0.68 0.556 1.011 0.208 0.672 0.235 1.298 0.221 1.903-0.042 1.209-0.237 2.354-0.482 3.482-0.258 1.125-0.554 2.229-0.888 3.322-0.319 1.096-0.709 2.167-1 3.268 0.086-1.142 0.297-2.267 0.465-3.39 0.171-1.123 0.352-2.241 0.463-3.359 0.124-1.112 0.21-2.232 0.143-3.298-0.039-0.527-0.114-1.049-0.274-1.455-0.074-0.209-0.184-0.358-0.282-0.455l-0.071-0.061c-0.012 0.002-0.017 0-0.019-0.011 0.023-0.009-0.11-0.039-0.158-0.058l-0.102-0.031-0.006-0.002c0.033 0.01-0.085-0.025 0.073 0.021l-0.009-0.001-0.019-0.001-0.036-0.004c-0.393-0.046-0.672 0.027-0.945 0.267-0.271 0.241-0.527 0.628-0.72 1.075-0.39 0.903-0.602 1.973-0.728 3.043-0.125 1.076-0.193 2.176-0.189 3.271 0.003 0.549 0.021 1.097 0.06 1.637 0.038 0.527 0.099 1.1 0.199 1.5l-1.901 0.601c-0.218-0.598-0.377-1.142-0.557-1.698l-0.529-1.646c-0.358-1.09-0.747-2.164-1.166-3.21-0.417-1.034-0.882-2.083-1.468-2.886-0.272-0.4-0.667-0.672-0.715-0.651-0.024-0.009-0.09 0.015-0.183 0.058l-0.155 0.152-0.077 0.077c0.063-0.073-0.006 0.013-0.004 0.012-0.059 0.075-0.12 0.149-0.161 0.24-0.407 0.692-0.276 1.833-0.03 2.884 0.252 1.076 0.655 2.153 1.072 3.227 0.408 1.082 0.863 2.156 1.256 3.262 0.373 1.16 0.778 2.31 0.735 3.49z" fill="#709922"/>
					<path d="m186.92 730.92c-0.072-0.583-0.272-1.122-0.5-1.651-0.224-0.53-0.48-1.047-0.748-1.559l-1.644-3.079c-0.53-1.047-1.046-2.111-1.438-3.271-0.196-0.58-0.346-1.19-0.41-1.847-0.062-0.648-0.025-1.381 0.3-2.087 0.073-0.179 0.177-0.343 0.288-0.503 0.046-0.061 0.014-0.037 0.123-0.166l0.072-0.082 0.145-0.163c0.345-0.331 0.81-0.612 1.378-0.619 0.575 0.003 0.987 0.259 1.308 0.487 0.322 0.24 0.553 0.502 0.769 0.762 0.825 1.051 1.334 2.14 1.835 3.232 0.481 1.098 0.883 2.211 1.27 3.321l1.104 3.274-1.902 0.6c-0.161-0.706-0.194-1.271-0.235-1.876-0.034-0.595-0.045-1.183-0.04-1.771 0.021-1.176 0.08-2.351 0.274-3.525 0.192-1.174 0.457-2.355 1.015-3.523 0.289-0.574 0.656-1.176 1.275-1.648 0.609-0.492 1.549-0.656 2.265-0.473l0.069 0.013 0.035 0.007 0.017 0.004 0.093 0.027 0.1 0.039c0.082 0.037 0.096 0.026 0.234 0.104 0.118 0.064 0.234 0.137 0.343 0.214 0.09 0.075 0.161 0.151 0.239 0.231 0.284 0.319 0.459 0.678 0.556 1.01 0.208 0.672 0.235 1.297 0.221 1.904-0.042 1.208-0.237 2.354-0.482 3.48-0.258 1.125-0.554 2.23-0.888 3.323-0.319 1.097-0.709 2.167-1 3.268 0.086-1.142 0.297-2.267 0.465-3.39 0.171-1.123 0.352-2.241 0.463-3.359 0.124-1.112 0.21-2.232 0.143-3.299-0.039-0.525-0.114-1.048-0.274-1.453-0.074-0.21-0.184-0.359-0.282-0.455l-0.071-0.062c-0.012 0.003-0.017 0-0.019-0.011 0.023-0.009-0.11-0.039-0.158-0.058l-0.102-0.032-0.006-0.002c0.033 0.01-0.085-0.024 0.073 0.021h-0.009l-0.019-0.002-0.036-0.002c-0.393-0.047-0.672 0.025-0.945 0.266-0.271 0.241-0.527 0.628-0.72 1.076-0.39 0.902-0.602 1.972-0.728 3.043-0.125 1.075-0.193 2.174-0.189 3.271 0.002 0.548 0.02 1.096 0.059 1.635 0.037 0.528 0.099 1.101 0.199 1.502l-1.902 0.599c-0.218-0.597-0.377-1.142-0.556-1.697l-0.529-1.646c-0.358-1.091-0.747-2.165-1.165-3.21-0.418-1.035-0.882-2.082-1.468-2.886-0.273-0.401-0.667-0.671-0.716-0.651-0.023-0.01-0.089 0.014-0.182 0.057l-0.155 0.154-0.077 0.076c0.062-0.072-0.007 0.014-0.004 0.012-0.059 0.075-0.121 0.149-0.162 0.24-0.406 0.693-0.275 1.834-0.03 2.884 0.252 1.075 0.655 2.153 1.072 3.228 0.407 1.081 0.862 2.154 1.255 3.262 0.4 1.12 0.8 2.27 0.76 3.45z" fill="#709922"/>
					<path d="m228.13 62.266c-0.072-0.582-0.272-1.122-0.5-1.651-0.224-0.53-0.48-1.047-0.748-1.559l-1.644-3.079c-0.53-1.047-1.046-2.111-1.438-3.27-0.196-0.581-0.346-1.191-0.41-1.848-0.062-0.648-0.025-1.381 0.3-2.087 0.073-0.178 0.177-0.342 0.288-0.503 0.046-0.061 0.014-0.037 0.123-0.165l0.072-0.082 0.145-0.163c0.344-0.332 0.81-0.614 1.378-0.62 0.575 0.003 0.987 0.259 1.308 0.487 0.322 0.241 0.552 0.502 0.768 0.763 0.825 1.05 1.334 2.139 1.836 3.232 0.48 1.097 0.883 2.21 1.27 3.32l1.104 3.274-1.902 0.6c-0.161-0.706-0.194-1.271-0.235-1.875-0.034-0.596-0.045-1.184-0.04-1.771 0.021-1.176 0.08-2.351 0.274-3.525 0.192-1.174 0.456-2.355 1.014-3.522 0.288-0.575 0.655-1.176 1.274-1.649 0.609-0.492 1.55-0.656 2.266-0.473l0.069 0.013 0.034 0.007 0.098 0.027 0.012 0.004 0.1 0.039c0.082 0.037 0.096 0.025 0.235 0.104 0.118 0.064 0.234 0.137 0.343 0.215 0.09 0.075 0.161 0.151 0.238 0.23 0.284 0.32 0.459 0.68 0.557 1.01 0.207 0.672 0.234 1.298 0.22 1.904-0.042 1.209-0.237 2.354-0.482 3.481-0.258 1.124-0.554 2.229-0.888 3.322-0.319 1.097-0.709 2.167-1 3.268 0.086-1.142 0.297-2.267 0.465-3.39 0.171-1.123 0.352-2.241 0.463-3.359 0.124-1.112 0.21-2.232 0.143-3.298-0.039-0.526-0.113-1.048-0.274-1.454-0.074-0.209-0.184-0.359-0.282-0.455l-0.071-0.062c-0.012 0.003-0.017 0-0.019-0.011 0.024-0.009-0.11-0.039-0.157-0.057l-0.103-0.033-0.012-0.004c0.157 0.047 0.041 0.014 0.074 0.023h-0.004l-0.019-0.002-0.035-0.002c-0.393-0.047-0.673 0.025-0.944 0.266s-0.527 0.628-0.721 1.076c-0.389 0.902-0.601 1.973-0.727 3.043-0.125 1.075-0.193 2.174-0.189 3.271 0.002 0.548 0.02 1.096 0.059 1.635 0.037 0.528 0.099 1.101 0.199 1.502l-1.902 0.599c-0.218-0.597-0.377-1.142-0.556-1.697l-0.53-1.646c-0.357-1.091-0.746-2.164-1.165-3.21-0.417-1.034-0.882-2.082-1.468-2.886-0.273-0.401-0.667-0.671-0.715-0.651-0.023-0.01-0.089 0.014-0.182 0.057l-0.155 0.154-0.077 0.076c0.062-0.072-0.007 0.014-0.004 0.012-0.059 0.075-0.121 0.15-0.162 0.24-0.406 0.693-0.275 1.834-0.03 2.885 0.252 1.074 0.655 2.152 1.072 3.227 0.408 1.081 0.863 2.154 1.255 3.262 0.37 1.099 0.78 2.25 0.73 3.431z" fill="#709922"/>
					<path d="m157.51 148.92c-0.072-0.582-0.273-1.122-0.5-1.651-0.225-0.53-0.481-1.047-0.75-1.559l-1.643-3.079c-0.53-1.047-1.047-2.111-1.438-3.271-0.196-0.58-0.347-1.19-0.41-1.847-0.062-0.648-0.026-1.381 0.3-2.087 0.072-0.179 0.177-0.343 0.287-0.503 0.046-0.061 0.014-0.037 0.124-0.166l0.071-0.082 0.145-0.163c0.346-0.331 0.811-0.612 1.379-0.619 0.574 0.003 0.986 0.259 1.307 0.487 0.322 0.241 0.553 0.502 0.769 0.763 0.825 1.05 1.334 2.139 1.836 3.232 0.48 1.097 0.883 2.21 1.27 3.32l1.104 3.274-1.901 0.602c-0.162-0.707-0.196-1.272-0.237-1.877-0.034-0.595-0.045-1.184-0.04-1.771 0.021-1.176 0.08-2.351 0.273-3.525 0.192-1.174 0.457-2.355 1.015-3.523 0.289-0.574 0.656-1.176 1.275-1.648 0.609-0.492 1.549-0.656 2.265-0.473l0.069 0.013 0.035 0.007 0.017 0.004 0.093 0.027 0.1 0.039c0.082 0.037 0.096 0.026 0.234 0.104 0.118 0.064 0.234 0.137 0.343 0.214 0.09 0.075 0.161 0.151 0.239 0.231 0.284 0.319 0.459 0.678 0.556 1.01 0.208 0.672 0.235 1.297 0.221 1.904-0.042 1.208-0.237 2.354-0.482 3.48-0.258 1.125-0.554 2.23-0.888 3.323-0.319 1.097-0.709 2.167-1 3.268 0.086-1.142 0.297-2.267 0.465-3.39 0.171-1.123 0.352-2.241 0.463-3.359 0.124-1.112 0.21-2.232 0.143-3.299-0.039-0.525-0.114-1.048-0.274-1.453-0.074-0.21-0.184-0.359-0.282-0.455l-0.071-0.062c-0.012 0.003-0.017 0-0.019-0.011 0.023-0.009-0.11-0.039-0.158-0.058l-0.102-0.032-0.006-0.002c0.033 0.01-0.085-0.024 0.073 0.021h-0.009l-0.019-0.002-0.036-0.002c-0.393-0.047-0.672 0.025-0.945 0.266-0.271 0.241-0.527 0.628-0.72 1.076-0.39 0.902-0.602 1.972-0.728 3.043-0.125 1.075-0.193 2.174-0.189 3.271 0.003 0.547 0.021 1.096 0.06 1.635 0.038 0.527 0.099 1.1 0.199 1.5l-1.901 0.602c-0.218-0.598-0.377-1.142-0.557-1.697l-0.529-1.646c-0.358-1.092-0.747-2.165-1.166-3.211-0.417-1.034-0.882-2.082-1.468-2.886-0.272-0.401-0.667-0.671-0.715-0.651-0.024-0.01-0.09 0.015-0.183 0.057l-0.155 0.154-0.077 0.076c0.063-0.072-0.006 0.014-0.004 0.012-0.059 0.074-0.12 0.149-0.161 0.24-0.407 0.693-0.276 1.834-0.03 2.884 0.252 1.075 0.655 2.153 1.072 3.228 0.408 1.081 0.863 2.154 1.256 3.262 0.39 1.12 0.79 2.27 0.75 3.45z" fill="#709922"/>
					<path d="m245.82 156.65c-0.072-0.583-0.272-1.122-0.5-1.651-0.224-0.53-0.48-1.047-0.748-1.559l-1.644-3.079c-0.53-1.046-1.046-2.11-1.438-3.271-0.196-0.58-0.346-1.189-0.41-1.846-0.062-0.649-0.025-1.383 0.3-2.088 0.073-0.178 0.177-0.342 0.288-0.504 0.046-0.06 0.014-0.037 0.123-0.164l0.072-0.082 0.145-0.164c0.345-0.331 0.81-0.613 1.378-0.619 0.575 0.002 0.987 0.259 1.308 0.486 0.322 0.242 0.553 0.502 0.769 0.764 0.825 1.049 1.334 2.139 1.835 3.232 0.481 1.097 0.883 2.21 1.27 3.32l1.104 3.275-1.902 0.6c-0.161-0.707-0.194-1.271-0.235-1.877-0.034-0.594-0.045-1.183-0.04-1.771 0.021-1.174 0.08-2.35 0.274-3.525 0.192-1.174 0.457-2.354 1.015-3.521 0.289-0.576 0.656-1.176 1.275-1.648 0.609-0.493 1.549-0.656 2.265-0.475l0.069 0.014 0.035 0.007 0.017 0.003 0.093 0.029 0.1 0.038c0.082 0.037 0.096 0.026 0.234 0.103 0.118 0.064 0.234 0.137 0.343 0.215 0.09 0.076 0.161 0.152 0.239 0.23 0.284 0.32 0.459 0.68 0.556 1.011 0.208 0.672 0.235 1.298 0.221 1.903-0.042 1.209-0.237 2.354-0.482 3.482-0.258 1.125-0.554 2.229-0.888 3.322-0.319 1.096-0.709 2.167-1 3.268 0.086-1.142 0.297-2.267 0.465-3.39 0.171-1.123 0.352-2.241 0.463-3.359 0.124-1.112 0.21-2.232 0.143-3.298-0.039-0.527-0.114-1.049-0.274-1.455-0.074-0.209-0.184-0.358-0.282-0.455l-0.071-0.061c-0.012 0.002-0.017 0-0.019-0.011 0.023-0.009-0.11-0.039-0.158-0.058l-0.102-0.031-0.006-0.002c0.033 0.01-0.085-0.025 0.073 0.021l-0.009-0.001-0.019-0.001-0.036-0.004c-0.393-0.046-0.672 0.027-0.945 0.267-0.271 0.241-0.527 0.628-0.72 1.075-0.39 0.903-0.602 1.973-0.728 3.043-0.125 1.076-0.193 2.176-0.189 3.271 0.002 0.549 0.02 1.097 0.059 1.637 0.037 0.527 0.099 1.1 0.199 1.5l-1.902 0.6c-0.218-0.598-0.377-1.141-0.556-1.697l-0.529-1.646c-0.358-1.091-0.747-2.164-1.165-3.211-0.418-1.033-0.882-2.082-1.468-2.885-0.273-0.4-0.667-0.672-0.716-0.651-0.023-0.009-0.089 0.015-0.182 0.058l-0.155 0.152-0.077 0.077c0.062-0.072-0.007 0.013-0.004 0.013-0.059 0.074-0.121 0.148-0.162 0.239-0.406 0.693-0.275 1.833-0.03 2.884 0.252 1.076 0.655 2.153 1.072 3.227 0.407 1.082 0.862 2.156 1.255 3.262 0.4 1.14 0.8 2.29 0.76 3.47z" fill="#709922"/>
					<path d="m181.03 228.92c-0.072-0.583-0.272-1.122-0.5-1.651-0.224-0.53-0.48-1.047-0.748-1.559l-1.644-3.079c-0.53-1.047-1.046-2.111-1.438-3.271-0.196-0.58-0.346-1.19-0.41-1.847-0.062-0.648-0.025-1.381 0.3-2.087 0.073-0.179 0.177-0.343 0.288-0.503 0.046-0.061 0.014-0.037 0.123-0.166l0.072-0.082 0.145-0.163c0.345-0.331 0.81-0.612 1.378-0.619 0.575 0.003 0.987 0.259 1.308 0.487 0.322 0.24 0.553 0.502 0.769 0.762 0.825 1.051 1.334 2.14 1.835 3.232 0.481 1.098 0.883 2.211 1.27 3.321l1.104 3.274-1.902 0.6c-0.161-0.706-0.194-1.271-0.235-1.876-0.034-0.595-0.045-1.183-0.04-1.771 0.021-1.176 0.08-2.351 0.274-3.525 0.192-1.174 0.457-2.355 1.015-3.523 0.289-0.574 0.656-1.176 1.275-1.648 0.609-0.492 1.549-0.656 2.265-0.473l0.069 0.013 0.035 0.007 0.017 0.004 0.093 0.027 0.1 0.039c0.082 0.037 0.096 0.026 0.234 0.104 0.118 0.064 0.234 0.137 0.343 0.214 0.09 0.075 0.161 0.151 0.239 0.231 0.284 0.319 0.459 0.678 0.556 1.01 0.208 0.672 0.235 1.297 0.221 1.904-0.042 1.208-0.237 2.354-0.482 3.48-0.258 1.125-0.554 2.23-0.888 3.323-0.319 1.097-0.709 2.167-1 3.268 0.086-1.142 0.297-2.267 0.465-3.39 0.171-1.123 0.352-2.241 0.463-3.359 0.124-1.112 0.21-2.232 0.143-3.299-0.039-0.525-0.114-1.048-0.274-1.453-0.074-0.21-0.184-0.359-0.282-0.455l-0.071-0.062c-0.012 0.003-0.017 0-0.019-0.011 0.023-0.009-0.11-0.039-0.158-0.058l-0.102-0.032-0.006-0.002c0.033 0.01-0.085-0.024 0.073 0.021h-0.009l-0.019-0.002-0.036-0.002c-0.393-0.047-0.672 0.025-0.945 0.266-0.271 0.241-0.527 0.628-0.72 1.076-0.39 0.902-0.602 1.972-0.728 3.043-0.125 1.075-0.193 2.174-0.189 3.271 0.002 0.548 0.02 1.096 0.059 1.635 0.037 0.528 0.099 1.101 0.199 1.502l-1.902 0.599c-0.218-0.597-0.377-1.142-0.556-1.697l-0.529-1.646c-0.358-1.091-0.747-2.165-1.165-3.21-0.418-1.035-0.882-2.082-1.468-2.886-0.273-0.401-0.667-0.671-0.716-0.651-0.023-0.01-0.089 0.014-0.182 0.057l-0.155 0.154-0.077 0.076c0.062-0.072-0.007 0.014-0.004 0.012-0.059 0.075-0.121 0.149-0.162 0.24-0.406 0.693-0.275 1.834-0.03 2.884 0.252 1.075 0.655 2.153 1.072 3.228 0.407 1.081 0.862 2.154 1.255 3.262 0.39 1.12 0.79 2.27 0.75 3.45z" fill="#709922"/>
					<path d="m134.2 330.92c-0.072-0.583-0.272-1.122-0.5-1.651-0.224-0.53-0.48-1.047-0.748-1.559l-1.644-3.079c-0.53-1.047-1.046-2.111-1.438-3.271-0.196-0.58-0.346-1.19-0.41-1.847-0.062-0.648-0.025-1.381 0.3-2.087 0.073-0.179 0.177-0.343 0.288-0.503 0.046-0.061 0.014-0.037 0.123-0.166l0.072-0.082 0.145-0.163c0.345-0.331 0.81-0.612 1.378-0.619 0.575 0.003 0.987 0.259 1.308 0.487 0.322 0.24 0.553 0.502 0.769 0.762 0.825 1.051 1.334 2.14 1.835 3.232 0.481 1.098 0.883 2.211 1.27 3.321l1.104 3.274-1.902 0.6c-0.161-0.706-0.194-1.271-0.235-1.876-0.034-0.595-0.045-1.183-0.04-1.771 0.021-1.176 0.08-2.351 0.274-3.525 0.192-1.174 0.457-2.355 1.015-3.523 0.289-0.574 0.656-1.176 1.275-1.648 0.609-0.492 1.549-0.656 2.265-0.473l0.069 0.013 0.035 0.007 0.017 0.004 0.093 0.027 0.1 0.039c0.082 0.037 0.096 0.026 0.234 0.104 0.118 0.064 0.234 0.137 0.343 0.214 0.09 0.075 0.161 0.151 0.239 0.231 0.284 0.319 0.459 0.678 0.556 1.01 0.208 0.672 0.235 1.297 0.221 1.904-0.042 1.208-0.237 2.354-0.482 3.48-0.258 1.125-0.554 2.23-0.888 3.323-0.319 1.097-0.709 2.167-1 3.268 0.086-1.142 0.297-2.267 0.465-3.39 0.171-1.123 0.352-2.241 0.463-3.359 0.124-1.112 0.21-2.232 0.143-3.299-0.039-0.525-0.114-1.048-0.274-1.453-0.074-0.21-0.184-0.359-0.282-0.455l-0.071-0.062c-0.012 0.003-0.017 0-0.019-0.011 0.023-0.009-0.11-0.039-0.158-0.058l-0.102-0.032-0.006-0.002c0.033 0.01-0.085-0.024 0.073 0.021h-0.009l-0.019-0.002-0.036-0.002c-0.393-0.047-0.672 0.025-0.945 0.266-0.271 0.241-0.527 0.628-0.72 1.076-0.39 0.902-0.602 1.972-0.728 3.043-0.125 1.075-0.193 2.174-0.189 3.271 0.002 0.548 0.02 1.096 0.059 1.635 0.037 0.528 0.099 1.101 0.199 1.502l-1.902 0.599c-0.218-0.597-0.377-1.142-0.556-1.697l-0.529-1.646c-0.358-1.091-0.747-2.165-1.165-3.21-0.418-1.035-0.882-2.082-1.468-2.886-0.273-0.401-0.667-0.671-0.716-0.651-0.023-0.01-0.089 0.014-0.182 0.057l-0.155 0.154-0.077 0.076c0.062-0.072-0.007 0.014-0.004 0.012-0.059 0.075-0.121 0.149-0.162 0.24-0.406 0.693-0.275 1.834-0.03 2.884 0.252 1.075 0.655 2.153 1.072 3.228 0.407 1.081 0.862 2.154 1.255 3.262 0.4 1.12 0.81 2.27 0.76 3.45z" fill="#709922"/>
					<path d="m234.03 323.2c-0.072-0.583-0.272-1.122-0.5-1.651-0.224-0.53-0.48-1.047-0.748-1.559l-1.644-3.079c-0.53-1.046-1.046-2.11-1.438-3.271-0.196-0.58-0.346-1.189-0.41-1.846-0.062-0.649-0.025-1.383 0.3-2.088 0.073-0.178 0.177-0.342 0.288-0.504 0.046-0.06 0.014-0.037 0.123-0.164l0.072-0.082 0.145-0.164c0.345-0.331 0.81-0.613 1.378-0.619 0.575 0.002 0.987 0.259 1.308 0.486 0.322 0.242 0.553 0.502 0.769 0.764 0.825 1.049 1.334 2.139 1.835 3.232 0.481 1.097 0.883 2.21 1.27 3.32l1.104 3.275-1.902 0.6c-0.161-0.707-0.194-1.271-0.235-1.877-0.034-0.594-0.045-1.183-0.04-1.771 0.021-1.174 0.08-2.35 0.274-3.525 0.192-1.174 0.457-2.354 1.015-3.521 0.289-0.576 0.656-1.176 1.275-1.648 0.609-0.493 1.549-0.656 2.265-0.475l0.069 0.014 0.034 0.007 0.018 0.003 0.093 0.029 0.099 0.038c0.083 0.037 0.097 0.026 0.235 0.103 0.118 0.064 0.234 0.137 0.343 0.215 0.09 0.076 0.161 0.152 0.239 0.23 0.284 0.32 0.459 0.68 0.556 1.011 0.208 0.672 0.235 1.298 0.22 1.903-0.042 1.209-0.237 2.354-0.482 3.482-0.258 1.125-0.555 2.229-0.887 3.322-0.319 1.096-0.71 2.167-1 3.268 0.086-1.142 0.296-2.267 0.465-3.39 0.17-1.124 0.351-2.241 0.462-3.359 0.124-1.112 0.21-2.233 0.144-3.298-0.039-0.527-0.114-1.049-0.274-1.455-0.074-0.209-0.184-0.359-0.282-0.455l-0.071-0.061c-0.013 0.002-0.017 0-0.019-0.011 0.023-0.009-0.111-0.039-0.158-0.058l-0.102-0.031-0.007-0.002c0.034 0.01-0.084-0.025 0.074 0.021l-0.009-0.001-0.019-0.001-0.036-0.004c-0.393-0.046-0.672 0.027-0.945 0.267-0.271 0.241-0.527 0.628-0.72 1.075-0.39 0.903-0.602 1.973-0.728 3.044-0.125 1.075-0.193 2.175-0.189 3.271 0.002 0.549 0.02 1.097 0.059 1.637 0.037 0.527 0.099 1.1 0.199 1.5l-1.902 0.6c-0.218-0.598-0.377-1.141-0.556-1.697l-0.529-1.646c-0.358-1.091-0.747-2.164-1.165-3.211-0.418-1.033-0.882-2.082-1.468-2.885-0.273-0.4-0.667-0.672-0.716-0.651-0.023-0.009-0.089 0.015-0.182 0.058l-0.155 0.152-0.077 0.077c0.062-0.072-0.007 0.013-0.004 0.013-0.059 0.074-0.121 0.148-0.162 0.239-0.406 0.693-0.275 1.833-0.03 2.884 0.252 1.076 0.655 2.153 1.072 3.227 0.407 1.082 0.862 2.156 1.255 3.262 0.39 1.12 0.79 2.28 0.75 3.46z" fill="#709922"/>
					<path d="m90.555 62.266c-0.072-0.582-0.273-1.122-0.5-1.651-0.225-0.53-0.481-1.047-0.75-1.559l-1.643-3.079c-0.53-1.047-1.047-2.111-1.438-3.271-0.196-0.58-0.347-1.19-0.41-1.847-0.062-0.648-0.026-1.381 0.3-2.087 0.072-0.179 0.177-0.343 0.287-0.503 0.046-0.061 0.014-0.037 0.124-0.166l0.071-0.082 0.145-0.163c0.346-0.331 0.811-0.612 1.379-0.619 0.574 0.003 0.986 0.259 1.307 0.487 0.322 0.241 0.553 0.502 0.769 0.763 0.825 1.05 1.334 2.139 1.836 3.232 0.48 1.097 0.883 2.21 1.27 3.32l1.104 3.274-1.901 0.602c-0.162-0.707-0.196-1.272-0.237-1.877-0.034-0.595-0.045-1.184-0.04-1.771 0.021-1.176 0.08-2.351 0.273-3.525 0.192-1.174 0.457-2.355 1.015-3.523 0.289-0.574 0.656-1.176 1.275-1.648 0.609-0.492 1.549-0.656 2.265-0.473l0.069 0.013 0.035 0.007 0.017 0.004 0.093 0.027 0.1 0.039c0.082 0.037 0.096 0.026 0.234 0.104 0.118 0.064 0.234 0.137 0.343 0.214 0.09 0.075 0.161 0.151 0.239 0.231 0.284 0.319 0.459 0.678 0.556 1.01 0.208 0.672 0.235 1.297 0.221 1.904-0.042 1.208-0.237 2.354-0.482 3.48-0.258 1.125-0.554 2.23-0.888 3.323-0.319 1.097-0.709 2.167-1 3.268 0.086-1.142 0.297-2.267 0.465-3.39 0.171-1.123 0.352-2.241 0.463-3.359 0.124-1.112 0.21-2.232 0.143-3.299-0.039-0.525-0.114-1.048-0.274-1.453-0.074-0.21-0.184-0.359-0.282-0.455l-0.071-0.062c-0.012 0.003-0.017 0-0.019-0.011 0.023-0.009-0.11-0.039-0.158-0.058l-0.102-0.032-0.006-0.002c0.033 0.01-0.085-0.024 0.073 0.021h-0.009l-0.019-0.002-0.036-0.002c-0.393-0.047-0.672 0.025-0.945 0.266-0.271 0.241-0.527 0.628-0.72 1.076-0.39 0.902-0.602 1.972-0.728 3.043-0.125 1.075-0.193 2.174-0.189 3.271 0.003 0.547 0.021 1.096 0.06 1.635 0.038 0.527 0.099 1.1 0.199 1.5l-1.901 0.602c-0.218-0.598-0.377-1.142-0.557-1.697l-0.529-1.646c-0.358-1.092-0.747-2.165-1.166-3.211-0.417-1.034-0.882-2.082-1.468-2.886-0.272-0.401-0.667-0.671-0.715-0.651-0.024-0.01-0.09 0.015-0.183 0.057l-0.155 0.154-0.077 0.076c0.063-0.072-0.006 0.014-0.004 0.012-0.059 0.074-0.12 0.149-0.161 0.24-0.407 0.693-0.276 1.834-0.03 2.884 0.252 1.075 0.655 2.153 1.072 3.228 0.408 1.081 0.863 2.154 1.256 3.262 0.373 1.099 0.778 2.25 0.735 3.431z" fill="#709922"/>
					<path d="m273.69 78.901c-0.072-0.583-0.273-1.122-0.5-1.651-0.225-0.53-0.481-1.047-0.75-1.559l-1.643-3.079c-0.53-1.046-1.047-2.11-1.438-3.271-0.196-0.58-0.347-1.189-0.41-1.846-0.062-0.649-0.026-1.383 0.3-2.088 0.072-0.178 0.177-0.342 0.287-0.504 0.046-0.061 0.014-0.037 0.124-0.165l0.071-0.081 0.145-0.164c0.346-0.332 0.811-0.613 1.379-0.619 0.574 0.003 0.986 0.259 1.307 0.487 0.322 0.241 0.553 0.502 0.769 0.763 0.825 1.05 1.334 2.139 1.836 3.232 0.48 1.098 0.883 2.21 1.27 3.32l1.104 3.274-1.901 0.601c-0.162-0.707-0.196-1.271-0.237-1.877-0.034-0.594-0.045-1.182-0.04-1.771 0.021-1.175 0.08-2.351 0.273-3.526 0.192-1.173 0.457-2.354 1.015-3.521 0.289-0.576 0.656-1.176 1.275-1.648 0.609-0.493 1.549-0.656 2.265-0.475l0.069 0.014 0.035 0.007 0.017 0.003 0.093 0.029 0.1 0.038c0.082 0.037 0.096 0.026 0.234 0.103 0.118 0.064 0.234 0.137 0.343 0.215 0.09 0.076 0.161 0.152 0.239 0.23 0.284 0.32 0.459 0.68 0.556 1.011 0.208 0.672 0.235 1.298 0.221 1.903-0.042 1.209-0.237 2.354-0.482 3.482-0.258 1.125-0.554 2.229-0.888 3.322-0.319 1.096-0.709 2.167-1 3.268 0.086-1.142 0.297-2.267 0.465-3.39 0.171-1.123 0.352-2.241 0.463-3.359 0.124-1.112 0.21-2.232 0.143-3.298-0.039-0.527-0.114-1.049-0.274-1.455-0.074-0.209-0.184-0.358-0.282-0.455l-0.071-0.061c-0.012 0.002-0.017 0-0.019-0.011 0.023-0.009-0.11-0.039-0.158-0.058l-0.102-0.031-0.006-0.002c0.033 0.01-0.085-0.025 0.073 0.021l-0.009-0.001-0.019-0.001-0.036-0.004c-0.393-0.046-0.672 0.027-0.945 0.267-0.271 0.241-0.527 0.628-0.72 1.075-0.39 0.903-0.602 1.973-0.728 3.043-0.125 1.076-0.193 2.176-0.189 3.271 0.003 0.549 0.021 1.097 0.06 1.637 0.038 0.527 0.099 1.1 0.199 1.5l-1.901 0.601c-0.218-0.598-0.377-1.142-0.557-1.698l-0.529-1.646c-0.358-1.09-0.747-2.164-1.166-3.21-0.417-1.034-0.882-2.083-1.468-2.886-0.272-0.4-0.667-0.672-0.715-0.651-0.024-0.009-0.09 0.015-0.183 0.058l-0.155 0.152-0.077 0.077c0.063-0.073-0.006 0.013-0.004 0.012-0.059 0.075-0.12 0.149-0.161 0.24-0.407 0.692-0.276 1.833-0.03 2.884 0.252 1.076 0.655 2.153 1.072 3.227 0.408 1.082 0.863 2.156 1.256 3.262 0.39 1.101 0.79 2.253 0.75 3.433z" fill="#709922"/>
					<path d="m297.27 184.63c-0.072-0.582-0.272-1.122-0.5-1.651-0.224-0.53-0.48-1.047-0.748-1.559l-1.644-3.079c-0.53-1.047-1.046-2.111-1.438-3.27-0.196-0.581-0.346-1.191-0.41-1.848-0.062-0.648-0.025-1.381 0.3-2.087 0.073-0.178 0.177-0.342 0.288-0.503 0.046-0.061 0.014-0.037 0.123-0.165l0.072-0.082 0.145-0.163c0.344-0.332 0.81-0.614 1.378-0.62 0.575 0.003 0.987 0.259 1.308 0.487 0.322 0.241 0.552 0.502 0.768 0.763 0.825 1.05 1.334 2.139 1.836 3.232 0.48 1.097 0.883 2.21 1.27 3.32l1.104 3.274-1.902 0.6c-0.161-0.706-0.194-1.271-0.235-1.875-0.034-0.596-0.045-1.184-0.04-1.771 0.021-1.176 0.08-2.351 0.274-3.525 0.192-1.174 0.456-2.355 1.014-3.522 0.288-0.575 0.655-1.176 1.274-1.649 0.609-0.492 1.55-0.656 2.266-0.473l0.069 0.013 0.034 0.007 0.098 0.027 0.012 0.004 0.1 0.039c0.082 0.037 0.096 0.025 0.235 0.104 0.118 0.064 0.234 0.137 0.343 0.215 0.09 0.075 0.161 0.151 0.238 0.23 0.284 0.32 0.459 0.68 0.557 1.01 0.207 0.672 0.234 1.298 0.22 1.904-0.042 1.209-0.237 2.354-0.482 3.481-0.258 1.124-0.554 2.229-0.888 3.322-0.319 1.097-0.709 2.167-1 3.268 0.086-1.142 0.297-2.267 0.465-3.39 0.171-1.123 0.352-2.241 0.463-3.359 0.124-1.112 0.21-2.232 0.143-3.298-0.039-0.526-0.113-1.048-0.274-1.454-0.074-0.209-0.184-0.359-0.282-0.455l-0.071-0.062c-0.012 0.003-0.017 0-0.019-0.011 0.024-0.009-0.11-0.039-0.157-0.057l-0.103-0.033-0.012-0.004c0.157 0.047 0.041 0.014 0.074 0.023h-0.004l-0.019-0.002-0.035-0.002c-0.393-0.047-0.673 0.025-0.944 0.266s-0.527 0.628-0.721 1.076c-0.389 0.902-0.601 1.973-0.727 3.043-0.125 1.075-0.193 2.174-0.189 3.271 0.002 0.548 0.02 1.096 0.059 1.635 0.037 0.528 0.099 1.101 0.199 1.502l-1.902 0.599c-0.218-0.597-0.377-1.142-0.556-1.697l-0.53-1.646c-0.357-1.091-0.746-2.164-1.165-3.21-0.417-1.034-0.882-2.082-1.468-2.886-0.273-0.401-0.667-0.671-0.715-0.651-0.023-0.01-0.089 0.014-0.182 0.057l-0.155 0.154-0.077 0.076c0.062-0.072-0.007 0.014-0.004 0.012-0.059 0.075-0.121 0.15-0.162 0.24-0.406 0.693-0.275 1.834-0.03 2.885 0.252 1.074 0.655 2.152 1.072 3.227 0.408 1.081 0.863 2.154 1.255 3.262 0.37 1.11 0.77 2.26 0.73 3.44z" fill="#709922"/>
					<path d="m285.48 366.63c-0.072-0.582-0.273-1.122-0.5-1.651-0.225-0.53-0.481-1.047-0.75-1.559l-1.643-3.079c-0.53-1.047-1.047-2.111-1.438-3.271-0.196-0.58-0.347-1.19-0.41-1.847-0.062-0.648-0.026-1.381 0.3-2.087 0.072-0.179 0.177-0.343 0.287-0.503 0.046-0.061 0.014-0.037 0.124-0.166l0.071-0.082 0.145-0.163c0.346-0.331 0.811-0.612 1.379-0.619 0.574 0.003 0.986 0.259 1.307 0.487 0.322 0.241 0.553 0.502 0.769 0.763 0.825 1.05 1.334 2.139 1.836 3.232 0.48 1.097 0.883 2.21 1.27 3.32l1.104 3.274-1.901 0.602c-0.162-0.707-0.196-1.272-0.237-1.877-0.034-0.595-0.045-1.184-0.04-1.771 0.021-1.176 0.08-2.351 0.273-3.525 0.192-1.174 0.457-2.355 1.015-3.523 0.289-0.574 0.656-1.176 1.275-1.648 0.609-0.492 1.549-0.656 2.265-0.473l0.069 0.013 0.035 0.007 0.017 0.004 0.093 0.027 0.1 0.039c0.082 0.037 0.096 0.026 0.234 0.104 0.118 0.064 0.234 0.137 0.343 0.214 0.09 0.075 0.161 0.151 0.239 0.231 0.284 0.319 0.459 0.678 0.556 1.01 0.208 0.672 0.235 1.297 0.221 1.904-0.042 1.208-0.237 2.354-0.482 3.48-0.258 1.125-0.554 2.23-0.888 3.323-0.319 1.097-0.709 2.167-1 3.268 0.086-1.142 0.297-2.267 0.465-3.39 0.171-1.123 0.352-2.241 0.463-3.359 0.124-1.112 0.21-2.232 0.143-3.299-0.039-0.525-0.114-1.048-0.274-1.453-0.074-0.21-0.184-0.359-0.282-0.455l-0.071-0.062c-0.012 0.003-0.017 0-0.019-0.011 0.023-0.009-0.11-0.039-0.158-0.058l-0.102-0.032-0.006-0.002c0.033 0.01-0.085-0.024 0.073 0.021h-0.009l-0.019-0.002-0.036-0.002c-0.393-0.047-0.672 0.025-0.945 0.266-0.271 0.241-0.527 0.628-0.72 1.076-0.39 0.902-0.602 1.972-0.728 3.043-0.125 1.075-0.193 2.174-0.189 3.271 0.003 0.547 0.021 1.096 0.06 1.635 0.038 0.527 0.099 1.1 0.199 1.5l-1.901 0.602c-0.218-0.598-0.377-1.142-0.557-1.697l-0.529-1.646c-0.358-1.092-0.747-2.165-1.166-3.211-0.417-1.034-0.882-2.082-1.468-2.886-0.272-0.401-0.667-0.671-0.715-0.651-0.024-0.01-0.09 0.015-0.183 0.057l-0.155 0.154-0.077 0.076c0.063-0.072-0.006 0.014-0.004 0.012-0.059 0.074-0.12 0.149-0.161 0.24-0.407 0.693-0.276 1.834-0.03 2.884 0.252 1.075 0.655 2.153 1.072 3.228 0.408 1.081 0.863 2.154 1.256 3.262 0.4 1.11 0.8 2.26 0.76 3.44z" fill="#709922"/>
					<path d="m311.81 696.9c-0.072-0.583-0.272-1.122-0.5-1.651-0.224-0.53-0.48-1.047-0.748-1.559l-1.644-3.079c-0.53-1.046-1.046-2.11-1.438-3.271-0.196-0.58-0.346-1.189-0.41-1.846-0.062-0.649-0.025-1.383 0.3-2.088 0.073-0.178 0.177-0.342 0.288-0.504 0.046-0.06 0.014-0.037 0.123-0.164l0.072-0.082 0.145-0.164c0.345-0.331 0.81-0.613 1.378-0.619 0.575 0.002 0.987 0.259 1.308 0.486 0.322 0.242 0.553 0.502 0.769 0.764 0.825 1.049 1.334 2.139 1.835 3.232 0.481 1.097 0.883 2.21 1.27 3.32l1.104 3.275-1.902 0.6c-0.161-0.707-0.194-1.271-0.235-1.877-0.034-0.594-0.045-1.183-0.04-1.771 0.021-1.174 0.08-2.35 0.274-3.525 0.192-1.174 0.457-2.354 1.015-3.521 0.289-0.576 0.656-1.176 1.275-1.648 0.609-0.493 1.549-0.656 2.265-0.475l0.069 0.014 0.035 0.007 0.017 0.003 0.093 0.029 0.1 0.038c0.082 0.037 0.096 0.026 0.234 0.103 0.118 0.064 0.234 0.137 0.343 0.215 0.09 0.076 0.161 0.152 0.239 0.23 0.284 0.32 0.459 0.68 0.556 1.011 0.208 0.672 0.235 1.298 0.221 1.903-0.042 1.209-0.237 2.354-0.482 3.482-0.258 1.125-0.554 2.229-0.888 3.322-0.319 1.096-0.709 2.167-1 3.268 0.086-1.142 0.297-2.267 0.465-3.39 0.171-1.123 0.352-2.241 0.463-3.359 0.124-1.112 0.21-2.232 0.143-3.298-0.039-0.527-0.114-1.049-0.274-1.455-0.074-0.209-0.184-0.358-0.282-0.455l-0.071-0.061c-0.012 0.002-0.017 0-0.019-0.011 0.023-0.009-0.11-0.039-0.158-0.058l-0.102-0.031-0.006-0.002c0.033 0.01-0.085-0.025 0.073 0.021l-0.009-0.001-0.019-0.001-0.036-0.004c-0.393-0.046-0.672 0.027-0.945 0.267-0.271 0.241-0.527 0.628-0.72 1.075-0.39 0.903-0.602 1.973-0.728 3.043-0.125 1.076-0.193 2.176-0.189 3.271 0.002 0.549 0.02 1.097 0.059 1.637 0.037 0.527 0.099 1.1 0.199 1.5l-1.902 0.6c-0.218-0.598-0.377-1.141-0.556-1.697l-0.529-1.646c-0.358-1.091-0.747-2.164-1.165-3.211-0.418-1.033-0.882-2.082-1.468-2.885-0.273-0.4-0.667-0.672-0.716-0.651-0.023-0.009-0.089 0.015-0.182 0.058l-0.155 0.152-0.077 0.077c0.062-0.072-0.007 0.013-0.004 0.013-0.059 0.074-0.121 0.148-0.162 0.239-0.406 0.693-0.275 1.833-0.03 2.884 0.252 1.076 0.655 2.153 1.072 3.227 0.407 1.082 0.862 2.156 1.255 3.262 0.39 1.13 0.79 2.28 0.75 3.46z" fill="#709922"/>
					<path d="m247.75 263.45c-0.072-0.583-0.272-1.122-0.5-1.651-0.224-0.53-0.48-1.047-0.748-1.559l-1.644-3.079c-0.53-1.046-1.046-2.11-1.438-3.271-0.196-0.58-0.346-1.189-0.41-1.846-0.062-0.649-0.025-1.383 0.3-2.088 0.073-0.178 0.177-0.342 0.288-0.504 0.046-0.06 0.014-0.037 0.123-0.164l0.072-0.082 0.145-0.164c0.345-0.331 0.81-0.613 1.378-0.619 0.575 0.002 0.987 0.259 1.308 0.486 0.322 0.242 0.553 0.502 0.769 0.764 0.825 1.049 1.334 2.139 1.835 3.232 0.481 1.097 0.883 2.21 1.27 3.32l1.104 3.275-1.902 0.6c-0.161-0.707-0.194-1.271-0.235-1.877-0.034-0.594-0.045-1.183-0.04-1.771 0.021-1.174 0.08-2.35 0.274-3.525 0.192-1.174 0.457-2.354 1.015-3.521 0.289-0.576 0.656-1.176 1.275-1.648 0.609-0.493 1.549-0.656 2.265-0.475l0.069 0.014 0.035 0.007 0.017 0.003 0.093 0.029 0.1 0.038c0.082 0.037 0.096 0.026 0.234 0.103 0.118 0.064 0.234 0.137 0.343 0.215 0.09 0.076 0.161 0.152 0.239 0.23 0.284 0.32 0.459 0.68 0.556 1.011 0.208 0.672 0.235 1.298 0.221 1.903-0.042 1.209-0.237 2.354-0.482 3.482-0.258 1.125-0.554 2.229-0.888 3.322-0.319 1.096-0.709 2.167-1 3.268 0.086-1.142 0.297-2.267 0.465-3.39 0.171-1.123 0.352-2.241 0.463-3.359 0.124-1.112 0.21-2.232 0.143-3.298-0.039-0.527-0.114-1.049-0.274-1.455-0.074-0.209-0.184-0.358-0.282-0.455l-0.071-0.061c-0.012 0.002-0.017 0-0.019-0.011 0.023-0.009-0.11-0.039-0.158-0.058l-0.102-0.031-0.006-0.002c0.033 0.01-0.085-0.025 0.073 0.021l-0.009-0.001-0.019-0.001-0.036-0.004c-0.393-0.046-0.672 0.027-0.945 0.267-0.271 0.241-0.527 0.628-0.72 1.075-0.39 0.903-0.602 1.973-0.728 3.043-0.125 1.076-0.193 2.176-0.189 3.271 0.002 0.549 0.02 1.097 0.059 1.637 0.037 0.527 0.099 1.1 0.199 1.5l-1.902 0.6c-0.218-0.598-0.377-1.141-0.556-1.697l-0.529-1.646c-0.358-1.091-0.747-2.164-1.165-3.211-0.418-1.033-0.882-2.082-1.468-2.885-0.273-0.4-0.667-0.672-0.716-0.651-0.023-0.009-0.089 0.015-0.182 0.058l-0.155 0.152-0.077 0.077c0.062-0.072-0.007 0.013-0.004 0.013-0.059 0.074-0.121 0.148-0.162 0.239-0.406 0.693-0.275 1.833-0.03 2.884 0.252 1.076 0.655 2.153 1.072 3.227 0.407 1.082 0.862 2.156 1.255 3.262 0.39 1.13 0.79 2.29 0.75 3.47z" fill="#709922"/>
		<defs>
			<rect id="SVGID_1_" width="319.57" height="747.55"/>
		</defs>
		<clipPath id="SVGID_2_">
			<use overflow="visible" xlink:href="#SVGID_1_"/>
		</clipPath>
		<g clip-path="url(#SVGID_2_)">
			<linearGradient id="SVGID_3_" y2="380.36" gradientUnits="userSpaceOnUse" x2="232.69" y1="380.36" x1="92.78">
				<stop stop-color="#41342A" offset="0"/>
				<stop stop-color="#5E4430" offset=".195"/>
				<stop stop-color="#5A4230" offset=".425"/>
				<stop stop-color="#4B3B2E" offset=".575"/>
				<stop stop-color="#544132" offset=".835"/>
				<stop stop-color="#41342A" offset="1"/>
			</linearGradient>
			<path stroke="#709922" stroke-width="4" stroke-miterlimit="10" d="m226.15 781.67c-9.607 8.758-10.436 4.221-23.436 4.221-12.998 0-12.998-2.023-25.996-2.023-13 0-13-1.677-26-1.677-13.002 0-13.002 2.97-26.002 2.97-13.002 0-15.678 7.293-25.289-1.462-8.754-7.974-4.15-11.058-4.15-22.899s2.904-11.842 2.904-23.685c0-11.845 3.129-11.845 3.129-23.688 0-11.842-5.381-11.842-5.381-23.684 0-11.845 1.062-11.845 1.062-23.689 0-11.842 3.098-11.842 3.098-23.685 0-11.845-2.387-11.845-2.387-23.69 0-11.843-1.658-11.843-1.658-23.686 0-11.844 0.744-11.844 0.744-23.688s3.877-11.844 3.877-23.688 1.57-11.844 1.57-23.687c0-11.845-2.406-11.845-2.406-23.688 0-11.846 1.984-11.846 1.984-23.691s-5.439-11.845-5.439-23.689-1.541-11.844-1.541-23.688 5.531-11.844 5.531-23.688-0.371-11.845-0.371-23.688c0-11.845-2.152-11.845-2.152-23.689 0-11.847-1.141-11.847-1.141-23.693 0-11.845-1.889-11.845-1.889-23.689 0-11.847 1.688-11.847 1.688-23.693 0-11.845-0.213-11.845-0.213-23.689 0-11.846 0.305-11.846 0.305-23.691s5.059-11.846 5.059-23.691-4.996-11.846-4.996-23.692c0-11.845-1.389-11.845-1.389-23.688 0-11.846 0.301-11.846 0.301-23.69s4.066-11.845 4.066-23.69c0-11.848 0.816-11.848 0.816-23.694s-3.752-11.847-3.752-23.694c0-11.847 3.115-11.847 3.115-23.693 0-11.848-2.221-11.848-2.221-23.695 0-11.85-0.201-11.85-0.201-23.699s-9.713-18.216-0.955-26.198c9.605-8.757 15.277 0.307 28.275 0.307 13 0 13 0.745 25.998 0.745 13 0 13 5.371 26 5.371s13-3.156 26.002-3.156 15.414-8.448 25.025 0.307c8.754 7.975-2.232 10.77-2.232 22.611s-0.416 11.842-0.416 23.684c0 11.844 7.102 11.844 7.102 23.688 0 11.842 0.492 11.842 0.492 23.684 0 11.845-7.314 11.845-7.314 23.69 0 11.843-0.172 11.843-0.172 23.686 0 11.845 1.311 11.845 1.311 23.689 0 11.843 4.65 11.843 4.65 23.686 0 11.844-6.09 11.844-6.09 23.688s3.387 11.845 3.387 23.688c0 11.843-1.064 11.843-1.064 23.686 0 11.845 3.434 11.845 3.434 23.689 0 11.846-0.445 11.846-0.445 23.691 0 11.844 1.188 11.844 1.188 23.688s-0.348 11.845-0.348 23.688c0 11.845-0.635 11.845-0.635 23.689s-1.229 11.844-1.229 23.688 2.902 11.845 2.902 23.689c0 11.847-7.309 11.847-7.309 23.692s6.406 11.846 6.406 23.69c0 11.846-3.027 11.846-3.027 23.691s-1.006 11.845-1.006 23.69 1.062 11.846 1.062 23.691 0.4 11.846 0.4 23.691 2.773 11.846 2.773 23.691c0 11.844-3.059 11.844-3.059 23.688s-3.158 11.845-3.158 23.69-0.438 11.846-0.438 23.69c0 11.847 0.268 11.847 0.268 23.693s5.797 11.847 5.797 23.694c0 11.847 0.674 11.847 0.674 23.693 0 11.848-3.855 11.848-3.855 23.694 0 11.85 0.305 11.786 2.281 23.47 1.91 11.1 4.87 13.14-3.89 21.12z" fill="url(#SVGID_3_)"/>
			<path opacity=".3" d="m124.6 444.5l-5.752-0.941-0.426-3.491 1.895-4.038 0.305-3.401-4.738-2.286 1.117-3.588-2.291-2.956-1.096-3.195 1.033-3.473-1.064-3.202 0.949-3.411 1.355-3.413-1.357-3.184-0.967-3.232 1.434-3.374-1.814-3.2 1.164-3.342-3.27-3.181 1.178-3.335-1.004-3.277 2.328-3.334 1.961-3.307-4.791-3.266 2.371-3.299-0.4-3.296-0.307-3.299 0.74-3.288-0.23-3.301-0.662-3.315 2.418-3.242-1.383-3.333 0.623-3.275-1.008-3.33 0.652-3.275 1.697-3.231-0.348-3.31-3.572-3.459 1.443-3.236 3.928-3.107-0.369-3.312-0.371-3.314-0.791-3.341-2.625-3.451 5.193-2.994-0.898-3.357-2.502-3.459 2.961-3.112-3.32-3.514 2.312-3.15 2.881-3.11-4.924-3.624 2.445-3.133-0.65-3.324-0.148-3.268 0.133-3.248-0.867-3.278 2.85-3.188-2.082-3.292 2.98-3.249-0.309-3.275-1.074-3.256 0.934-3.291 0.982-3.308-2.24-3.188 0.693-3.303 0.229-3.287-1.365-3.189 2.496-3.452-2.277-3.112 1.199-3.384-1.83-3.124-2.674-3.024-1.047-3.168 4.076-3.701-2.271-3.041 1.158-3.415-0.012-3.288-2.676-2.97-2.223-3.016 0.223-3.304 1.441-3.458-0.359-3.239 0.037-3.287 0.064-3.292-3.131-2.904 1.219-3.433-0.33-3.246-1.121-3.156 2.006-3.514-1.305-3.139-1.426-3.13 0.285-3.314 0.6-3.335-3.852-2.912 2.451-3.514-1.984-3.108 3.707-3.586-2.475-3.079-3.156-3.437 1.932-3.395 0.363-3.433 0.125-3.496 1.074-3.262 2.43-2.858 3.432-2.602-1.855-3.974 1.375-3.195 1.16-3.369-1.762-3.453 0.525-3.562-3.516-2.734 2.457-3.301 1.836-2.928-0.285-3.44-0.785-3.486 0.598-3.19-0.84-3.403 1.545-3.052 3.109-2.939-0.877-3.385-1.979-3.415 3.299-3.077-3.182-3.398 0.111-3.236 3.242-3.23-3.471-3.252 2.799-3.307 2.381-3.365-4.68-3.09 4.178-3.503-1.645-3.196 1.303-3.397-4.309-2.938 0.738-3.349 0.055-3.294 0.293-3.327 0.629-3.374 0.652-3.389-3.225-2.908-1.215-3.144-1.32-3.123 0.248-3.339 0.594-3.392-1.416-3.108 0.049-0.36c-1.709-0.524-3.277-0.901-4.791-0.901-2.465 0-4.68 1.016-7.176 3.293-4.406 4.016-3.201 7.184-1.205 12.433 1.318 3.465 2.812 7.393 2.812 12.287 0 5.908 0.051 8.911 0.1 11.815 0.051 2.922 0.102 5.942 0.102 11.884 0 5.738 0.521 8.526 1.076 11.479 0.562 3.002 1.145 6.106 1.145 12.216 0 6.182-0.826 9.32-1.623 12.355-0.768 2.917-1.492 5.673-1.492 11.338 0 5.615 0.865 8.349 1.783 11.244 0.969 3.057 1.969 6.218 1.969 12.45 0 5.992-0.209 9.038-0.412 11.984-0.199 2.878-0.404 5.854-0.404 11.71 0 6.257-1.088 9.428-2.143 12.495-0.988 2.884-1.924 5.606-1.924 11.195 0 5.947-0.078 8.972-0.152 11.896-0.072 2.899-0.148 5.897-0.148 11.795 0 5.805 0.33 8.625 0.68 11.61 0.348 2.969 0.709 6.039 0.709 12.078 0 5.519 1.137 8.215 2.342 11.069 1.305 3.096 2.654 6.296 2.654 12.623 0 6.332-1.367 9.534-2.689 12.631-1.219 2.853-2.369 5.547-2.369 11.061 0 5.948-0.078 8.973-0.152 11.896-0.074 2.899-0.152 5.897-0.152 11.795 0 5.904 0.055 8.906 0.107 11.809 0.051 2.921 0.105 5.94 0.105 11.881 0 6.065-0.439 9.147-0.863 12.129-0.424 2.974-0.824 5.783-0.824 11.564 0 5.764 0.445 8.564 0.918 11.53 0.477 2.988 0.971 6.078 0.971 12.159 0 5.827 0.271 8.658 0.561 11.655 0.285 2.959 0.58 6.019 0.58 12.038 0 5.742 0.508 8.533 1.043 11.487 0.545 2.999 1.109 6.1 1.109 12.202 0 5.891 0.094 8.885 0.186 11.781 0.092 2.927 0.186 5.953 0.186 11.907 0 6.366-1.5 9.582-2.953 12.691-1.326 2.838-2.578 5.52-2.578 10.997 0 5.792 0.367 8.606 0.754 11.586 0.387 2.975 0.787 6.05 0.787 12.102 0 5.485 1.232 8.169 2.537 11.01 1.426 3.107 2.902 6.32 2.902 12.68 0 6.089-0.52 9.184-1.02 12.176-0.496 2.962-0.965 5.759-0.965 11.516 0 5.721 0.564 8.502 1.162 11.445 0.611 3.009 1.244 6.12 1.244 12.243 0 6.054-0.408 9.13-0.803 12.105-0.395 2.979-0.768 5.791-0.768 11.581 0 6.241-1.037 9.405-2.039 12.466-0.945 2.89-1.838 5.619-1.838 11.222 0 5.984-0.191 9.027-0.377 11.97-0.18 2.88-0.367 5.858-0.367 11.718 0 5.782 0.393 8.591 0.811 11.565 0.416 2.979 0.848 6.06 0.848 12.12 0 5.724 0.561 8.506 1.154 11.451 0.605 3.008 1.232 6.118 1.232 12.239 0 6.179-0.82 9.315-1.615 12.349-0.762 2.917-1.482 5.672-1.482 11.336 0 6.012-0.275 9.068-0.539 12.023-0.27 3-0.523 5.833-0.523 11.666 0 5.487 1.219 8.172 2.51 11.015 1.412 3.104 2.871 6.315 2.871 12.669 0 6.182-0.83 9.319-1.631 12.354-0.77 2.916-1.498 5.671-1.498 11.334 0 6.163-0.768 9.293-1.51 12.319-0.717 2.924-1.395 5.687-1.395 11.365 0 3.639-0.422 6.519-0.762 8.833-0.797 5.434-1.127 7.683 4.258 12.588 3.666 3.339 5.824 3.788 7.453 3.788 0.416 0 0.838-0.039 1.268-0.1l0.898-1.782 3.029-2.913-2.678-3.929 1.52-3.123-0.428-3.682 5.277-1.724 1.01-3.106 0.932-3.165 0.484-3.422-1.059-2.141 0.801-3.825-3.107-1.351v-3.527l-1.783-2.675-2.252-2.751-2.107-2.961-0.85-3.26 2.129-3.6 1.488-3.395-0.002-3.228-0.617-3.2-0.039-3.24 0.596-3.252-0.387-3.238-1.865-3.262-0.129-3.272-2.828-3.341 3.771-3.176 1.336-3.22-2.406-3.374-2.189-3.389 0.766-3.25 1.748-3.188-1.957-3.393 5.27-2.971-0.441-3.306-0.393-3.305-3.561-3.437 2.314-3.165-1.361-3.226 0.59-3.189-0.852-3.216-0.043-3.2 3.711-3.123-2.248-3.247-0.193-3.2 1.75-3.172-3.148-3.23 2.479-3.171 1.434-3.195 1.299-3.21-4.791-3.152 1.354-3.209 1.531-3.234-3.504-3.078 2.809-3.308-3.25-3.194 2.803-3.259-0.404-3.265 3-3.001-4.316-3.69 3.369-2.861-1.623-3.52 3.227-2.752 0.451-3.194-2.016-3.682 3.445-2.618-1.771-3.658 1.201-3.061-0.205-3.34 0.279-3.233 2.871-2.757-1.771-3.583 2.562-2.866 1.969-3.021-2.139-3.52 2.906-3.009-3.449-3.466 4-3.16-3.715-3.104 1.441-3.328-2.084-2.974 3.51-3.806-2.213-2.915-3.076-2.674 3.309-3.986-1.85-2.901-1.131-3.049-2.822-2.682 1.094-3.525-0.045-3.264 0.258-3.289-3.953-2.622 2.027-3.523-0.693-3.139-2.258-3.123 1.461-3.267-0.754-3.297 0.568-3.238 2.836-2.677 1.885-2.607-3.393-4.829 1.334-3.222 3.922-1.456 2.904-1.753 2.912-1.492 1.689-2.794 1.053-2.618-4.652-0.122 1.28-4.59z" fill="#261915"/>
			<g opacity=".3" fill="#261915">
				<path d="m229.23 766.49c-0.357-1.604-0.764-3.42-1.133-5.605-0.262-1.554-0.496-2.899-0.703-4.093-1.361-7.853-1.605-9.268-1.605-19.711 0-6.24 1.029-9.405 2.025-12.466 0.941-2.891 1.83-5.622 1.83-11.229 0-5.866-0.17-8.849-0.334-11.733-0.168-2.939-0.34-5.979-0.34-11.96 0-5.461-1.309-8.137-2.695-10.969-1.525-3.116-3.102-6.34-3.102-12.726 0-4.409-0.037-7.198-0.084-9.538l-0.389 0.695-0.34 3.434-0.1 3.498-1.051 3.27-2.41 2.875-3.414 2.626 1.885 3.96-1.352 3.205-1.137 3.378 1.787 3.44-0.5 3.566 3.535 2.709-2.434 3.318-1.814 2.939 0.309 3.439 0.811 3.48-0.576 3.195 0.865 3.396-1.523 3.062-3.09 2.962 0.902 3.378 2.004 3.401-3.277 3.101 3.205 3.377-0.088 3.235-3.219 3.253 3.492 3.228-2.773 3.327-2.357 3.383 4.701 3.056-4.152 3.531 1.668 3.187-1.279 3.406 4.33 2.906-0.715 3.354-0.031 3.294-0.27 3.328-0.605 3.379-0.627 3.394 3.246 2.885 0.283 0.716c2.043-0.175 4.217-1.195 8.217-4.841 6.2-5.69 5.82-7.4 4.41-13.73z"/>
				<path d="m223.37 97.453c0-6.491 2.102-9.894 3.955-12.896 1.803-2.919 3.359-5.439 3.359-10.794 0-5.879-0.125-8.868-0.244-11.759-0.123-2.932-0.248-5.962-0.248-11.925 0-5.369-1.514-7.894-3.268-10.816-1.797-2.998-3.834-6.396-3.834-12.872 0-5.956 0.105-8.984 0.209-11.912 0.102-2.894 0.207-5.886 0.207-11.771 0-5.442 2.074-9.118 3.74-12.072 2.184-3.869 3.086-5.471-0.855-9.061-3.357-3.059-5.336-3.451-6.686-3.451-1.518 0-3.074 0.562-5.043 1.273-0.586 0.211-1.209 0.433-1.857 0.652l-1.789 2.224-1.016 3.258 4.711 3.433-1.637 3.307-3.008 2.936 2.705 3.908-1.498 3.134 0.455 3.68-5.264 1.761-0.99 3.113-0.908 3.172-0.459 3.426 1.074 2.133-0.773 3.83 3.115 1.329 0.025 3.526 1.803 2.662 2.271 2.736 2.129 2.945 0.873 3.252-2.105 3.615-1.463 3.406 0.023 3.227 0.641 3.196 0.064 3.24-0.572 3.256 0.408 3.235 1.889 3.248 0.152 3.271 2.852 3.32-3.746 3.202-1.314 3.229 2.428 3.357 2.217 3.373-0.744 3.256-1.725 3.199 1.98 3.378-5.248 3.009 0.465 3.303 0.416 3.301 3.586 3.411-2.293 3.183 1.387 3.215-0.57 3.194 0.875 3.209 0.068 3.2-3.691 3.15 2.273 3.23 0.215 3.197-1.727 3.186 3.172 3.207-2.457 3.188-1.412 3.206-1.275 3.22 4.814 3.119-1.332 3.218-1.506 3.246 3.525 3.052-2.787 3.328 3.275 3.171-2.781 3.279 0.428 3.261-2.979 3.022 4.342 3.66-3.348 2.885 1.648 3.509-3.209 2.773-0.426 3.197 2.043 3.668-3.43 2.643 1.799 3.646-1.18 3.068 0.23 3.338-0.258 3.234-2.852 2.779 1.799 3.569-2.543 2.884-1.947 3.037 2.164 3.504-2.87 3.02 3.475 3.442-3.975 3.188 3.736 3.079-1.42 3.337 2.105 2.958-3.482 3.832 2.234 2.899 3.096 2.651-3.281 4.01 1.871 2.888 1.152 3.041 2.84 2.661-1.068 3.534 0.068 3.264-0.234 3.29 3.973 2.593-2.004 3.539 0.717 3.133 2.281 3.107-1.438 3.277 0.775 3.291-0.543 3.242-2.818 2.696-1.865 2.621 3.426 4.804-1.311 3.232-3.912 1.483-2.893 1.774-2.9 1.514-1.668 2.805-1.033 2.626 4.652 0.089-1.262 4.53 5.76 0.901 0.449 3.487-1.865 4.053-0.281 3.403 4.754 2.251-1.09 3.597 2.311 2.939 1.119 3.188-1.008 3.48 1.088 3.194-0.926 3.419-1.33 3.422 1.379 3.173 0.99 3.226-1.41 3.385 1.836 3.187-1.139 3.351 3.293 3.156-1.154 3.344 1.027 3.27-2.307 3.352-1.936 3.32 4.814 3.232-2.346 3.314 0.422 3.293 0.33 3.297-0.717 3.293 0.254 3.3 0.686 3.31-2.395 3.26 1.406 3.323-0.6 3.28 1.033 3.321-0.629 3.28-1.676 3.244 0.371 3.307 3.598 3.434-1.42 3.247-3.906 3.136 0.393 3.309 0.395 3.312 0.814 3.336 2.65 3.432-5.172 3.03 0.922 3.352 2.527 3.44-2.939 3.134 3.346 3.49-2.291 3.166-2.857 3.131 4.947 3.589-2.42 3.15 0.672 3.32 0.174 3.266-0.109 3.249 0.891 3.272-2.828 3.208 2.105 3.278-2.957 3.269 0.332 3.272 1.098 3.249-0.91 3.298-0.959 3.315 2.264 3.17-0.67 3.309-0.207 3.288 1.389 3.18-2.473 3.47 2.303 3.097-1.176 3.392 1.852 3.112 2.695 3.005 1.068 3.159-4.049 3.73 2.293 3.024-1.133 3.424 0.035 3.288 2.695 2.95 2.244 2.999-0.199 3.306-1.416 3.468 0.383 3.238-0.014 3.287-0.041 3.291 3.152 2.882-1.195 3.442 0.354 3.243 1.145 3.147-1.98 3.529 1.326 3.129 1.447 3.119-0.26 3.317-0.578 3.338 3.785 2.818c0.041-2.744 0.113-4.686 0.182-6.581 0.107-2.894 0.219-5.886 0.219-11.771 0-6.186 0.836-9.325 1.646-12.361 0.777-2.915 1.512-5.669 1.512-11.329 0-6.177 0.811-9.312 1.594-12.345 0.752-2.919 1.465-5.676 1.465-11.344 0-5.692-0.648-8.46-1.334-11.39-0.707-3.022-1.439-6.148-1.439-12.302 0-5.889-0.102-8.883-0.199-11.778-0.1-2.928-0.201-5.956-0.201-11.913 0-5.833-0.254-8.667-0.523-11.667-0.266-2.956-0.539-6.012-0.539-12.024 0-6.008 0.26-9.062 0.51-12.015 0.256-3.003 0.496-5.838 0.496-11.676 0-6.175 0.801-9.31 1.576-12.341 0.746-2.921 1.451-5.68 1.451-11.351 0-5.416-1.438-8.076-2.961-10.894-1.615-2.984-3.445-6.368-3.445-12.797 0-6.49 2.1-9.894 3.951-12.896 1.801-2.919 3.357-5.44 3.357-10.797 0-5.681-0.678-8.443-1.395-11.369-0.742-3.026-1.508-6.156-1.508-12.32 0-6.026 0.316-9.089 0.625-12.051 0.311-2.993 0.604-5.819 0.604-11.638 0-5.976 0.162-9.014 0.32-11.952 0.154-2.885 0.314-5.868 0.314-11.737 0-5.951 0.09-8.977 0.174-11.902 0.086-2.897 0.174-5.893 0.174-11.786 0-5.822-0.283-8.651-0.584-11.646-0.297-2.96-0.604-6.021-0.604-12.043 0-5.96 0.115-8.99 0.225-11.921 0.109-2.894 0.221-5.885 0.221-11.771 0-5.639-0.795-8.383-1.637-11.288-0.885-3.045-1.797-6.195-1.797-12.401 0-6.012 0.273-9.067 0.541-12.022 0.27-2.999 0.523-5.832 0.523-11.663 0-5.642-0.785-8.387-1.615-11.294-0.871-3.044-1.771-6.191-1.771-12.395 0-6.406 1.66-9.636 3.266-12.76 1.453-2.823 2.824-5.491 2.824-10.929 0-5.543-1.062-8.248-2.186-11.111-1.211-3.085-2.465-6.274-2.465-12.574 0-5.812-0.312-8.636-0.643-11.625-0.328-2.965-0.668-6.032-0.668-12.064 0-5.936 0.043-8.953 0.086-11.872 0.09-2.91 0.13-5.91 0.13-11.817z"/>
				<path d="m221.43 650.34l1.564 1.68c-0.047-2.377-0.086-5.203-0.086-9.708 0-2.013 0.012-3.687 0.033-5.14l-2.334 3.399 2.006 3.095-3.68 3.611 2.5 3.07z"/>
			</g>
				<g opacity=".5">
					<path d="m140.27 692.07s-0.121-1.881-0.348-5.406c-0.199-3.525-0.55-8.695-0.88-15.278-0.174-3.29-0.366-6.935-0.576-10.901-0.099-1.982-0.201-4.047-0.308-6.188-0.091-2.142-0.273-4.354-0.414-6.642-0.612-9.15-1.305-19.465-1.937-30.713-0.33-5.623-0.843-11.484-1.279-17.547-0.421-6.064-0.856-12.333-1.304-18.777-0.397-6.445-1.011-13.061-1.538-19.823-0.573-6.761-1.039-13.675-1.567-20.702-0.064-0.879-0.129-1.759-0.193-2.641-0.061-0.907-0.121-1.816-0.182-2.727-0.109-1.775-0.221-3.557-0.331-5.345-0.198-3.587-0.495-7.155-0.617-10.826-0.123-3.672-0.247-7.366-0.371-11.079-0.153-3.727-0.104-7.412-0.153-11.141-0.172-14.896 0.157-29.965 0.284-44.985 0.044-3.753 0.087-7.505 0.131-11.255 0.001-3.74 0.003-7.477 0.004-11.207 0.032-3.733-0.069-7.441-0.121-11.144-0.062-3.724-0.123-7.437-0.185-11.134-0.07-3.705-0.141-7.393-0.21-11.064-0.049-3.67-0.097-7.323-0.146-10.954-0.011-7.286 0.096-14.517 0.138-21.606 0.015-1.773 0.028-3.539 0.043-5.298 0.018-1.759 0.103-3.505 0.149-5.244 0.104-3.479 0.229-6.925 0.373-10.331 0.137-3.406 0.271-6.776 0.404-10.105 0.162-3.328 0.428-6.613 0.632-9.854 0.458-6.485 0.81-12.776 1.319-18.885 0.563-6.062 1.108-11.918 1.632-17.541 0.267-2.811 0.528-5.564 0.783-8.254 0.307-2.694 0.606-5.326 0.899-7.892 0.609-5.124 1.189-9.985 1.733-14.554 0.136-1.143 0.271-2.268 0.401-3.373 0.153-1.101 0.304-2.183 0.451-3.246 0.304-2.119 0.596-4.162 0.877-6.126 0.557-3.918 1-7.519 1.288-10.778 0.286-3.26 0.429-6.175 0.477-8.716-0.013-2.534-0.071-4.704-0.31-6.438-0.076-0.876-0.218-1.635-0.338-2.294-0.059-0.331-0.112-0.635-0.161-0.913-0.071-0.271-0.136-0.518-0.193-0.736-0.236-0.881-0.358-1.336-0.358-1.336s0.171 0.439 0.503 1.29c0.082 0.214 0.174 0.454 0.276 0.72 0.079 0.273 0.166 0.572 0.262 0.896 0.197 0.648 0.415 1.405 0.578 2.279 0.411 1.735 0.685 3.914 0.947 6.485 0.217 2.571 0.328 5.54 0.305 8.858-0.018 3.318-0.161 6.988-0.393 10.969-0.194 3.983-0.634 8.252-0.803 12.822-0.229 4.572-0.471 9.438-0.727 14.565-0.141 2.562-0.285 5.188-0.434 7.877-0.109 2.698-0.222 5.46-0.337 8.28-0.219 5.643-0.447 11.52-0.684 17.604-0.174 6.058-0.354 12.32-0.538 18.758-0.077 3.221-0.214 6.481-0.246 9.787-0.004 3.306-0.008 6.652-0.011 10.035 0.059 6.764-0.204 13.677 0.003 20.69 0.125 7.021 0.185 14.139 0.364 21.373 0.134 3.629 0.269 7.279 0.403 10.948 0.113 3.67 0.228 7.357 0.343 11.061 0.105 3.708 0.211 7.432 0.317 11.166 0.108 3.756 0.224 7.527 0.203 11.291 0.014 3.767 0.027 7.541 0.041 11.32-0.031 3.769-0.062 7.541-0.093 11.314-0.185 15.082-0.543 30.113-0.595 44.852-0.079 7.396 0.058 14.633 0.113 21.812 0.033 3.59 0.249 7.225 0.363 10.796 0.068 1.79 0.138 3.574 0.206 5.351 0.037 0.865 0.074 1.729 0.111 2.59 0.044 0.887 0.089 1.77 0.132 2.652 0.721 14.113 1.355 27.755 1.769 40.704 0.396 12.952 0.724 25.192 0.868 36.502 0.09 11.319 0.058 21.69 0.031 30.876 0.018 4.594-0.065 8.887-0.205 12.857-0.118 3.97-0.227 7.617-0.325 10.91-0.178 6.588-0.41 11.766-0.527 15.295-0.11 3.53-0.18 5.41-0.18 5.41z" fill="#60492F"/>
				</g>
				<g opacity=".5">
					<path d="m174.85 595.56s0.082-0.515 0.236-1.479c0.17-0.961 0.385-2.379 0.727-4.164 0.194-0.893 0.3-1.891 0.408-2.971 0.106-1.082 0.264-2.238 0.411-3.471 0.185-1.223 0.251-2.558 0.329-3.96 0.095-1.396 0.195-2.862 0.301-4.394 0.036-1.535 0.074-3.135 0.113-4.79 0.07-1.647 0.059-3.36 0.029-5.121 0.025-3.512-0.149-7.228-0.266-11.064-0.097-1.922-0.195-3.876-0.295-5.854-0.118-1.982-0.238-3.988-0.359-6.01l-0.043-0.76-0.021-0.38-0.027-0.294-0.143-1.531c-0.112-1.004-0.16-2.085-0.308-3.035l-0.414-2.893c-0.132-0.964-0.362-1.966-0.538-2.947-0.723-3.951-1.719-7.887-2.749-11.789-0.526-1.955-1.048-3.896-1.563-5.812-0.261-0.965-0.521-1.924-0.778-2.877-0.128-0.477-0.255-0.953-0.381-1.426-0.157-0.589-0.237-0.982-0.359-1.479-0.225-0.944-0.446-1.882-0.667-2.81-0.228-0.922-0.441-1.844-0.596-2.814-0.171-0.951-0.34-1.893-0.506-2.823-0.083-0.464-0.165-0.925-0.247-1.384-0.065-0.459-0.107-0.918-0.161-1.373-0.475-3.623-0.649-7.083-0.628-10.261 0.065-1.591 0.075-3.111 0.185-4.55 0.156-1.434 0.306-2.793 0.445-4.069 0.312-2.542 0.798-4.724 1.122-6.519 0.414-1.783 0.792-3.17 1.026-4.116 0.251-0.943 0.385-1.446 0.385-1.446s-0.016 0.521-0.043 1.5c-0.045 0.974-0.076 2.404-0.184 4.207-0.004 0.904-0.01 1.905-0.016 2.994 0.029 1.089-0.084 2.256 0.002 3.506 0.05 1.246 0.104 2.57 0.16 3.967 0.102 1.391 0.257 2.846 0.391 4.359 0.342 3.023 0.851 6.268 1.605 9.657 0.088 0.424 0.177 0.851 0.266 1.28 0.11 0.422 0.221 0.848 0.332 1.275 0.221 0.854 0.445 1.719 0.671 2.593 0.208 0.864 0.481 1.767 0.763 2.683 0.275 0.914 0.554 1.836 0.834 2.766 1.104 3.594 2.417 7.466 3.549 11.409 1.182 3.943 2.234 8.044 3.035 12.233 0.182 1.059 0.407 2.08 0.549 3.166 0.144 1.084 0.287 2.167 0.431 3.248 0.157 1.09 0.175 2.072 0.259 3.109l0.104 1.533 0.028 0.472 0.012 0.386 0.024 0.77c0.155 4.094 0.183 8.143 0.153 12.062-0.096 3.927-0.207 7.72-0.543 11.319-0.219 3.596-0.793 6.986-1.197 10.1-0.311 1.547-0.606 3.029-0.889 4.439-0.292 1.405-0.559 2.735-0.938 3.977-0.349 1.24-0.657 2.401-0.979 3.461-0.307 1.064-0.592 2.033-0.941 2.873-0.635 1.703-1.187 3.027-1.539 3.937-0.34 0.88-0.53 1.36-0.53 1.36z" fill="#60492F"/>
				</g>
				<g opacity=".5">
					<path d="m185.82 505.07s-0.405-1.057-1.166-3.039c-0.318-1.012-0.703-2.279-1.106-3.785-0.167-0.76-0.348-1.576-0.539-2.445-0.2-0.873-0.289-1.816-0.451-2.807-0.556-3.973-0.79-8.875-0.517-14.443 0.234-5.564 0.894-11.793 1.412-18.479 0.131-1.674 0.219-3.374 0.297-5.103 0.047-0.865 0.042-1.732 0.066-2.609 0.019-0.898 0.038-1.805 0.057-2.72 0.073-3.654 0.219-7.428 0.329-11.311 0.245-7.763 0.456-15.955 0.846-24.414 0.382-8.455 0.69-17.195 1.16-26.068 0.112-2.219 0.225-4.446 0.338-6.681l0.042-0.838 0.017-0.78 0.033-1.684 0.083-3.37c0.165-4.526 0.118-8.962 0.104-13.413 0.024-4.447-0.15-8.958-0.215-13.417-0.188-4.472-0.28-8.925-0.486-13.351-0.431-8.863-0.854-17.587-1.264-26.028-0.199-4.227-0.438-8.39-0.594-12.468-0.043-1.02-0.085-2.034-0.127-3.042-0.034-1.019-0.067-2.03-0.101-3.036-0.062-1.991-0.122-3.959-0.183-5.9-0.115-3.883-0.227-7.659-0.335-11.312-0.108-3.648-0.056-7.207-0.08-10.604-0.002-3.4-0.004-6.659-0.006-9.759 0.039-3.098-0.006-6.021 0.179-8.854 0.334-5.532 0.723-10.271 0.745-14.201 0.007-3.914-0.23-6.994-0.745-9.027-0.09-0.521-0.285-0.939-0.39-1.329-0.104-0.392-0.252-0.692-0.376-0.935-0.238-0.493-0.361-0.748-0.361-0.748s0.159 0.234 0.468 0.688c0.161 0.227 0.356 0.513 0.518 0.888 0.164 0.371 0.422 0.785 0.58 1.297 0.776 2.006 1.491 5.109 1.896 9.089 0.416 3.972 0.596 8.837 0.728 14.315 0.067 2.676 0.378 5.605 0.622 8.68 0.232 3.074 0.477 6.306 0.732 9.678 0.45 6.734 1.179 14.053 1.789 21.796 0.16 1.935 0.323 3.897 0.488 5.883 0.083 0.983 0.167 1.972 0.251 2.967 0.095 1.003 0.188 2.012 0.284 3.026 0.396 4.057 0.721 8.205 1.096 12.431 0.381 4.22 0.708 8.522 1.037 12.881 0.359 4.353 0.623 8.778 0.898 13.233 0.27 4.457 0.472 8.966 0.664 13.486 0.058 2.266 0.115 4.537 0.174 6.81s0.131 4.544 0.111 6.843c-0.009 4.586 0.009 9.186-0.178 13.656l-0.104 3.371-0.06 1.682-0.034 0.899-0.055 0.839c-0.148 2.237-0.297 4.468-0.443 6.689-0.567 8.887-1.279 17.625-1.885 26.084-0.58 8.456-1.286 16.617-1.921 24.361-0.327 3.871-0.61 7.639-0.949 11.278-0.085 0.909-0.168 1.812-0.251 2.706-0.09 0.914-0.152 1.826-0.264 2.717-0.209 1.785-0.426 3.531-0.681 5.225-0.97 6.787-2.192 12.849-2.925 18.257-0.721 5.399-1.057 10.13-0.939 14.037 0.031 1.956 0.223 3.689 0.356 5.211 0.202 1.503 0.414 2.78 0.601 3.824 0.45 2.04 0.7 3.14 0.7 3.14z" fill="#60492F"/>
				</g>
				<g opacity=".5">
					<path d="m147.82-2.928s0.404 0.476 1.162 1.367c0.372 0.453 0.854 0.984 1.319 1.709 0.469 0.711 1.103 1.513 1.615 2.488 0.523 0.972 1.186 2.025 1.716 3.253 0.285 0.606 0.584 1.239 0.873 1.905 0.255 0.678 0.52 1.379 0.794 2.104 1.055 2.912 2.069 6.284 2.769 10.02 0.75 3.729 1.352 7.801 1.745 12.1 0.42 4.296 0.751 8.816 1.041 13.43 0.171 2.365 0.281 4.697 0.412 7.098 0.124 2.396 0.171 4.882 0.232 7.357 0.013 2.474 0.037 4.962 0.003 7.463-0.083 2.5-0.12 5.012-0.243 7.521-0.281 5.018-0.639 10.035-1.251 14.949-0.148 1.229-0.297 2.453-0.445 3.672-0.153 1.217-0.369 2.42-0.55 3.62-0.188 1.198-0.377 2.39-0.563 3.573-0.201 1.18-0.447 2.346-0.668 3.504-0.227 1.156-0.451 2.305-0.674 3.441-0.252 1.131-0.512 2.249-0.781 3.353-0.264 1.104-0.525 2.194-0.784 3.272-0.292 1.071-0.581 2.129-0.866 3.172-0.562 2.086-1.108 4.113-1.761 6.043-0.64 1.932-1.212 3.806-1.888 5.568-0.661 1.766-1.237 3.473-1.886 5.062-0.673 1.578-1.311 3.075-1.909 4.482-1.193 2.811-2.452 5.168-3.393 7.137-1.02 1.939-1.896 3.423-2.459 4.447-0.582 1.014-0.893 1.555-0.893 1.555s0.717-2.406 2.062-6.527c0.3-1.043 0.632-2.197 0.994-3.455 0.341-1.262 0.811-2.586 1.163-4.055 0.383-1.453 0.789-3 1.218-4.631 0.396-1.636 0.812-3.355 1.245-5.15 0.46-1.783 0.808-3.678 1.212-5.621 0.207-0.971 0.416-1.957 0.629-2.958 0.188-1.007 0.379-2.03 0.571-3.066 0.193-1.035 0.389-2.085 0.587-3.147 0.164-1.068 0.33-2.15 0.498-3.244 0.164-1.094 0.34-2.195 0.529-3.307 0.151-1.117 0.305-2.246 0.459-3.385 0.154-1.137 0.311-2.283 0.467-3.438 0.133-1.158 0.267-2.325 0.401-3.499 0.289-2.344 0.499-4.727 0.729-7.126 0.442-4.799 0.778-9.688 1.016-14.582 0.141-2.445 0.195-4.898 0.299-7.338 0.05-2.442 0.101-4.875 0.15-7.289 0.007-2.409 0.014-4.8 0.021-7.162-0.023-2.387-0.047-4.746-0.069-7.066-0.069-4.686 0.018-9.158-0.055-13.378-0.089-4.217-0.21-8.185-0.508-11.827-0.302-3.643-0.782-6.947-1.369-9.853-0.159-0.725-0.312-1.426-0.461-2.103-0.184-0.668-0.36-1.311-0.53-1.93-0.297-1.26-0.744-2.348-1.08-3.369-0.778-1.975-1.418-3.552-2.017-4.568-0.54-1.006-0.83-1.56-0.83-1.56z" fill="#60492F"/>
				</g>
					<path d="m177.16 185.07s0.007 0.401 0.019 1.154c0.007 0.751 0.045 1.856 0.036 3.258 0.007 2.806-0.014 6.812-0.148 11.609-0.062 2.398-0.128 4.998-0.255 7.743-0.071 2.745-0.073 5.642-0.184 8.63-0.1 2.988-0.145 6.08-0.296 9.215-0.133 3.133-0.269 6.316-0.404 9.499-0.172 3.19-0.345 6.382-0.514 9.522-0.134 3.125-0.265 6.2-0.391 9.176-0.072 1.488-0.114 2.952-0.208 4.385-0.038 0.663-0.042 1.428-0.051 2.104 0.007 0.681 0 1.343 0.023 2.026 0.089 2.738 0.174 5.328 0.251 7.719 0.076 2.41 0.054 4.639-0.058 6.611-0.084 1.973-0.328 3.69-0.588 5.084-0.255 1.397-0.587 2.467-0.831 3.18-0.262 0.707-0.402 1.084-0.402 1.084s0.062-0.396 0.18-1.139c0.117-0.736 0.215-1.829 0.263-3.211 0.04-1.385-0.005-3.062-0.151-4.984-0.148-1.922-0.409-4.083-0.701-6.451-0.306-2.368-0.685-4.938-0.942-7.713-0.074-0.687-0.122-1.416-0.182-2.143-0.043-0.73-0.091-1.393-0.106-2.172-0.032-1.449-0.011-2.93-0.019-4.438 0.024-3.01-0.061-6.139 0.054-9.291 0.125-3.143 0.253-6.336 0.38-9.529 0.183-3.199 0.366-6.398 0.546-9.549 0.168-3.148 0.438-6.24 0.643-9.234 0.207-2.994 0.457-5.886 0.723-8.621 0.298-2.731 0.633-5.309 0.941-7.688 0.604-4.76 1.201-8.719 1.64-11.488 0.207-1.386 0.415-2.471 0.537-3.212 0.12-0.75 0.19-1.14 0.19-1.14z" fill="#60492F"/>
				<g opacity=".5">
					<path d="m167.16 702.07s0.021-0.41 0.06-1.179c0.034-0.763 0.153-1.899 0.171-3.313 0.019-0.703 0.039-1.482 0.062-2.33-0.025-0.855-0.01-1.773-0.014-2.753-0.034-1.962-0.132-4.168-0.285-6.569-0.293-4.805-0.891-10.387-1.549-16.422-0.646-6.029-1.327-12.531-1.514-19.16l-0.021-2.492-0.005-1.246-0.032-1.105c-0.014-1.689-0.16-3.062-0.286-4.525-0.367-3.014-0.924-6.023-1.517-8.96-1.229-5.875-2.503-11.519-3.017-16.498-0.292-2.478-0.351-4.792-0.297-6.829-0.014-1.013 0.109-1.974 0.189-2.848 0.062-0.875 0.227-1.674 0.362-2.389 0.211-1.438 0.604-2.523 0.827-3.26 0.237-0.731 0.363-1.121 0.363-1.121s-0.008 0.411-0.023 1.182c-0.012 0.38-0.026 0.849-0.043 1.399-0.028 0.546 0.052 1.184 0.066 1.884 0.03 0.701 0.05 1.471 0.186 2.311 0.136 0.838 0.153 1.735 0.363 2.691 0.186 0.957 0.32 1.968 0.604 3.026 0.25 1.06 0.483 2.171 0.822 3.323 0.592 2.307 1.384 4.794 2.197 7.437 0.832 2.65 1.729 5.454 2.57 8.433 0.824 2.984 1.617 6.131 2.115 9.457 0.211 1.716 0.453 3.547 0.462 5.096l0.048 1.322 0.02 1.188 0.041 2.379c0.069 3.182 0.238 6.385 0.386 9.558 0.167 3.177 0.322 6.315 0.424 9.377 0.116 3.056 0.144 6.035 0.117 8.86-0.055 2.83-0.173 5.51-0.399 7.981-0.211 2.471-0.549 4.728-0.9 6.712-0.193 0.99-0.356 1.917-0.546 2.767-0.222 0.848-0.425 1.626-0.608 2.329-0.327 1.41-0.782 2.44-1.004 3.178-0.27 0.71-0.4 1.1-0.4 1.1z" fill="#60492F"/>
				</g>
			<path opacity=".3" d="m223.37 97.453c0-6.491 2.102-9.894 3.955-12.896 1.803-2.919 3.359-5.439 3.359-10.794 0-5.879-0.125-8.868-0.244-11.759-0.123-2.932-0.248-5.962-0.248-11.925 0-5.369-1.514-7.894-3.268-10.816-1.797-2.998-3.834-6.396-3.834-12.872 0-5.956 0.105-8.984 0.209-11.912 0.102-2.894 0.207-5.886 0.207-11.771 0-5.442 2.074-9.118 3.74-12.072 2.184-3.869 3.086-5.471-0.855-9.061-3.357-3.059-5.336-3.451-6.686-3.451-1.518 0-3.074 0.562-5.043 1.273-2.951 1.066-6.625 2.393-11.949 2.393-2.189 0-3.979 0.092-5.525 0.242-2.178 7.028-3.701 14.072-4.135 18.699-1.912 20.441 4.109 38.404 4.98 58.451 0.805 18.498-3.602 34.76-2.797 52.252 0.705 15.309 3.541 30.599 4.17 47.055 1.229 32.127 3.641 61.352 6.443 93.025 1.303 14.729 1.17 27.662-2.535 40.896-5.293 18.897 2.525 34.623 1.744 57.052-1.609 46.096 2.598 87.286-0.844 133.73-2.01 27.129-7.42 52.47-7.906 80.091-0.186 10.526-2.418 20.863-2.168 31.203 0.188 7.731 1.711 14.745 1.66 22.728-0.062 9.532-2.162 20.755-1.113 30.251 0.307 2.78 1.566 4.766 1.963 7.342 0.893 5.821-0.223 5.614-0.381 10.013-0.176 4.869-1.146 10.562-1.066 17.132 0.264 21.268-2.48 41.66 1.104 62.587 2.074 12.118 1.016 26.43 2.176 39.267 1.24 0.053 2.633 0.084 4.234 0.084 4.082 0 6.992 0.429 9.33 0.773 1.521 0.225 2.723 0.401 3.82 0.401 2.275 0 4.467-0.798 8.938-4.873 6.217-5.666 5.836-7.367 4.424-13.698-0.357-1.604-0.764-3.42-1.133-5.605-0.262-1.554-0.496-2.899-0.703-4.093-1.361-7.853-1.605-9.268-1.605-19.711 0-6.24 1.029-9.405 2.025-12.466 0.941-2.891 1.83-5.622 1.83-11.229 0-5.866-0.17-8.849-0.334-11.733-0.168-2.939-0.34-5.979-0.34-11.96 0-5.461-1.309-8.137-2.695-10.969-1.525-3.116-3.102-6.34-3.102-12.726 0-5.9-0.068-8.9-0.133-11.802-0.066-2.923-0.135-5.945-0.135-11.892 0-5.959 0.111-8.988 0.219-11.919 0.107-2.894 0.219-5.886 0.219-11.771 0-6.186 0.836-9.325 1.646-12.361 0.777-2.915 1.512-5.669 1.512-11.329 0-6.177 0.811-9.312 1.594-12.345 0.752-2.919 1.465-5.676 1.465-11.344 0-5.692-0.648-8.46-1.334-11.39-0.707-3.022-1.439-6.148-1.439-12.302 0-5.889-0.102-8.883-0.199-11.778-0.1-2.928-0.201-5.956-0.201-11.913 0-5.833-0.254-8.667-0.523-11.667-0.266-2.956-0.539-6.012-0.539-12.024 0-6.008 0.26-9.062 0.51-12.015 0.256-3.003 0.496-5.838 0.496-11.676 0-6.175 0.801-9.31 1.576-12.341 0.746-2.921 1.451-5.68 1.451-11.351 0-5.416-1.438-8.076-2.961-10.894-1.615-2.984-3.445-6.368-3.445-12.797 0-6.49 2.1-9.894 3.951-12.896 1.801-2.919 3.357-5.44 3.357-10.797 0-5.681-0.678-8.443-1.395-11.369-0.742-3.026-1.508-6.156-1.508-12.32 0-6.026 0.316-9.089 0.625-12.051 0.311-2.993 0.604-5.819 0.604-11.638 0-5.976 0.162-9.014 0.32-11.952 0.154-2.885 0.314-5.868 0.314-11.737 0-5.951 0.09-8.977 0.174-11.902 0.086-2.897 0.174-5.893 0.174-11.786 0-5.822-0.283-8.651-0.584-11.646-0.297-2.96-0.604-6.021-0.604-12.043 0-5.96 0.115-8.99 0.225-11.921 0.109-2.894 0.221-5.885 0.221-11.771 0-5.639-0.795-8.383-1.637-11.288-0.885-3.045-1.797-6.195-1.797-12.401 0-6.012 0.273-9.067 0.541-12.022 0.27-2.999 0.523-5.832 0.523-11.663 0-5.642-0.785-8.387-1.615-11.294-0.871-3.044-1.771-6.191-1.771-12.395 0-6.406 1.66-9.636 3.266-12.76 1.453-2.823 2.824-5.491 2.824-10.929 0-5.543-1.062-8.248-2.186-11.111-1.211-3.085-2.465-6.274-2.465-12.574 0-5.812-0.312-8.636-0.643-11.625-0.328-2.965-0.668-6.032-0.668-12.064 0-5.936 0.043-8.953 0.086-11.872 0.05-2.89 0.09-5.89 0.09-11.797z" fill="#281D14"/>
			<path opacity=".3" d="m111.88 280.68c2.01-27.129 7.422-52.47 7.908-80.091 0.186-10.526 2.418-20.863 2.168-31.203-0.188-7.731-1.713-14.745-1.66-22.728 0.062-9.532 2.162-20.755 1.113-30.251-0.307-2.78-1.566-4.766-1.963-7.342-0.895-5.821 0.223-5.614 0.381-10.013 0.176-4.869 1.146-10.562 1.064-17.132-0.262-21.268 2.48-41.66-1.102-62.587-2.191-12.796-0.889-28.035-2.393-41.403-1.973-0.469-3.768-1.06-5.449-1.618-2.6-0.863-4.846-1.609-6.984-1.609-2.465 0-4.68 1.016-7.176 3.293-4.406 4.016-3.201 7.184-1.205 12.433 1.318 3.465 2.812 7.393 2.812 12.287 0 5.908 0.051 8.911 0.1 11.815 0.051 2.922 0.102 5.942 0.102 11.884 0 5.738 0.521 8.526 1.076 11.479 0.562 3.002 1.145 6.106 1.145 12.216 0 6.182-0.826 9.32-1.623 12.355-0.768 2.917-1.492 5.673-1.492 11.338 0 5.615 0.865 8.349 1.783 11.244 0.969 3.057 1.969 6.218 1.969 12.45 0 5.992-0.209 9.038-0.412 11.984-0.199 2.878-0.404 5.854-0.404 11.71 0 6.257-1.088 9.428-2.143 12.495-0.988 2.884-1.924 5.606-1.924 11.195 0 5.947-0.078 8.972-0.152 11.896-0.072 2.899-0.148 5.897-0.148 11.795 0 5.805 0.33 8.625 0.68 11.61 0.348 2.969 0.709 6.039 0.709 12.078 0 5.519 1.137 8.215 2.342 11.069 1.305 3.096 2.654 6.296 2.654 12.623 0 6.332-1.367 9.534-2.689 12.631-1.219 2.853-2.369 5.547-2.369 11.061 0 5.948-0.078 8.973-0.152 11.896-0.074 2.899-0.152 5.897-0.152 11.795 0 5.904 0.055 8.906 0.107 11.809 0.051 2.921 0.105 5.94 0.105 11.881 0 6.065-0.439 9.147-0.863 12.129-0.424 2.974-0.824 5.783-0.824 11.564 0 5.764 0.445 8.564 0.918 11.53 0.477 2.988 0.971 6.078 0.971 12.159 0 5.827 0.271 8.658 0.561 11.655 0.285 2.959 0.58 6.019 0.58 12.038 0 5.742 0.508 8.533 1.043 11.487 0.545 2.999 1.109 6.1 1.109 12.202 0 5.891 0.094 8.885 0.186 11.781 0.092 2.927 0.186 5.953 0.186 11.907 0 6.366-1.5 9.582-2.953 12.691-1.326 2.838-2.578 5.52-2.578 10.997 0 5.792 0.367 8.606 0.754 11.586 0.387 2.975 0.787 6.05 0.787 12.102 0 5.485 1.232 8.169 2.537 11.01 1.426 3.107 2.902 6.32 2.902 12.68 0 6.089-0.52 9.184-1.02 12.176-0.496 2.962-0.965 5.759-0.965 11.516 0 5.721 0.564 8.502 1.162 11.445 0.611 3.009 1.244 6.12 1.244 12.243 0 6.054-0.408 9.13-0.803 12.105-0.395 2.979-0.768 5.791-0.768 11.581 0 6.241-1.037 9.405-2.039 12.466-0.945 2.89-1.838 5.619-1.838 11.222 0 5.984-0.191 9.027-0.377 11.97-0.18 2.88-0.367 5.858-0.367 11.718 0 5.782 0.393 8.591 0.811 11.565 0.416 2.979 0.848 6.06 0.848 12.12 0 5.724 0.561 8.506 1.154 11.451 0.605 3.008 1.232 6.118 1.232 12.239 0 6.179-0.82 9.315-1.615 12.349-0.762 2.917-1.482 5.672-1.482 11.336 0 6.012-0.275 9.068-0.539 12.023-0.27 3-0.523 5.833-0.523 11.666 0 5.487 1.219 8.172 2.51 11.015 1.412 3.104 2.871 6.315 2.871 12.669 0 6.182-0.83 9.319-1.631 12.354-0.77 2.916-1.498 5.671-1.498 11.334 0 6.163-0.768 9.293-1.51 12.319-0.717 2.924-1.395 5.687-1.395 11.365 0 3.639-0.422 6.519-0.762 8.833-0.797 5.434-1.127 7.683 4.258 12.588 3.666 3.339 5.824 3.788 7.453 3.788 1.516 0 3.078-0.445 5.057-1.01 1.457-0.416 3.1-0.882 5.014-1.241 2.498-7.641 4.27-15.562 4.74-20.608 1.912-20.441-4.109-38.404-4.98-58.451-0.803-18.498 3.604-34.76 2.799-52.252-0.705-15.309-3.541-30.599-4.17-47.055-1.229-32.127-3.643-61.352-6.443-93.025-1.303-14.729-1.172-27.662 2.535-40.896 5.291-18.897 11.473-34.623 12.256-57.052 1.58-46.13-16.62-87.32-13.18-133.77z" fill="#281D14"/>
						<path opacity=".5" d="m126.5 654.4c1.766-0.194 5.436 1.5 5.436 1.5s2.938 0.666 2.721 2.083c-0.215 1.417-1.094 4.533-1.695 5.142-0.604 0.608-3.299 3.525-6.617 0.525-1.172-1.171-1.352-2.916-1.668-3.958-0.31-1.03-0.44-5.03 1.83-5.28z" fill="#262626"/>
							<path stroke="#4D4D4D" stroke-width="2" stroke-miterlimit="10" d="m131.64 657.74c2.365 0.667-0.711 2.167 0.295 2.5s-0.879 3.341-2.791 2.833c-1.91-0.508-3.076-2.609-3.557-2.555s-1.789-4.951 0-5.445c1.791-0.494 4.354 1.395 4.354 1.395l1.7 1.26z" fill="#808080"/>
							<path d="m127.78 659.06c-0.918-0.904-1.799-2.321-1.275-2.404 0.525-0.083 2.645 1.202 2.645 1.202l1.131 1.202-1.865 1.096-0.62-1.1z" fill="#A5A5A5"/>
						<path opacity=".5" d="m134.54 674.61c-2.225-9.223-5.398-7.248-9.877-5.466-1.023 0.271-2.301 0.638-3.725 1.108-6.84 1.68-12.605 5.686-17.299 12.019l-0.207 0.437 0.205 0.436c7.088 15.108 8.555 14.794 21.396 4.423l9.619-12.483-0.12-0.48z" fill="#262626"/>
						<g stroke="#4D4D4D" stroke-miterlimit="10">
							<path stroke-width="2" d="m103.44 678.77c5.5-11.505 16.5-10.108 21.5-13.057s7 5.329 7 5.329l-9 11.723s-12.5 10.098-14 7.299-5.5-11.29-5.5-11.29z" fill="#808080"/>
							<path d="m106.94 679.77l13.666-8.167s2.832 2.001 4.166 2.667-4 7.333-4 7.333l-10.166 3.667-3.67-5.5z" fill="#A5A5A5"/>
							<path d="m120.6 671.6l5.092-6.253s-19.393 3.998-22.258 13.424l3.5 0.996 13.67-8.17z" fill="#A09D9A"/>
							<path d="m124.94 674.77c2.252-0.59 4.248-1.817 6.332-2.5 0 0 0.84-1.548 0-3.172-0.838-1.624-2.996-4.594-4.664-3.987s-6.002 6.492-6.002 6.492l4.33 3.17z" fill="#686868"/>
						</g>
						<path opacity=".5" d="m120.11 659.06c0.25-0.321 3.084 0 3.084 0l-1.541 6.679-4.973 0.334s-0.619-0.344-0.719-1.797c-0.102-1.453 1.076-4.666 1.076-4.666l3.07-0.54z" fill="#262626"/>
						<path stroke="#4D4D4D" stroke-width="2" stroke-miterlimit="10" d="m117.04 664.27s-0.805-4.498 0-4.666c0.803-0.168 4.379 0 4.379 0l-1.125 4.666h-3.26z" fill="#808080"/>
						<path opacity=".5" d="m188.49 428.72c0.113 1.772 2.414 5.095 2.414 5.095s1.164 2.778 2.521 2.322c1.359-0.457 4.277-1.859 4.773-2.558 0.494-0.698 2.902-3.856-0.623-6.608-1.355-0.951-3.105-0.828-4.188-0.961-1.07-0.14-5.03 0.42-4.89 2.71z" fill="#262626"/>
							<path stroke="#4D4D4D" stroke-width="2" stroke-miterlimit="10" d="m192.66 433.21c1.064 2.214 2.014-1.075 2.514-0.142 0.502 0.934 3.141-1.441 2.311-3.237-0.83-1.794-3.102-2.58-3.129-3.062-0.029-0.482-5.188-0.91-5.365 0.938s2.125 4.048 2.125 4.048l1.56 1.45z" fill="#808080"/>
							<path d="m193.3 429.17c-1.049-0.747-2.596-1.372-2.588-0.841 0.01 0.531 1.641 2.397 1.641 2.397l1.379 0.905 0.758-2.025-1.19-0.45z" fill="#A5A5A5"/>
						<path opacity=".5" d="m209.79 433.16c-9.467-0.602-8.07-4.068-7.086-8.787 0.092-1.055 0.23-2.377 0.449-3.86 0.477-7.026 3.428-13.396 8.857-19.11l0.395-0.28 0.465 0.128c16.104 4.377 16.047 5.876 8.043 20.312l-10.637 11.629-0.47-0.03z" fill="#262626"/>
						<g stroke="#4D4D4D" stroke-miterlimit="10">
							<path stroke-width="2" d="m208.52 401.8c-10.385 7.4-7.113 17.996-9.156 23.429-2.043 5.434 6.455 5.977 6.455 5.977l9.996-10.886s7.793-14.053 4.777-15.049c-3.02-1-12.08-3.47-12.08-3.47z" fill="#808080"/>
							<path d="m210.11 405.07l-5.689 14.87s2.459 2.444 3.346 3.644c0.885 1.199 6.533-5.204 6.533-5.204l1.859-10.646-6.05-2.66z" fill="#A5A5A5"/>
							<path d="m204.42 419.94l-5.281 6.094s0.596-19.793 9.387-24.24l1.584 3.276-5.69 14.87z" fill="#A09D9A"/>
							<path d="m208.29 423.66c-0.193 2.319-1.059 4.497-1.371 6.668 0 0-1.381 1.094-3.125 0.547-1.744-0.546-5.041-2.16-4.732-3.908 0.311-1.747 5.361-7.029 5.361-7.029l3.86 3.72z" fill="#686868"/>
						</g>
						<path opacity=".5" d="m191.98 421.62c-0.273 0.301 0.531 3.036 0.531 3.036l6.312-2.669-0.527-4.955s-0.445-0.551-1.895-0.398c-1.449 0.15-4.41 1.863-4.41 1.863l-0.01 3.12z" fill="#262626"/>
						<path stroke="#4D4D4D" stroke-width="2" stroke-miterlimit="10" d="m196.59 417.69s-4.57-0.017-4.596 0.804c-0.027 0.821 0.754 4.314 0.754 4.314l4.402-1.913-0.55-3.2z" fill="#808080"/>
						<path opacity=".5" d="m120.17 129.37c-1.314-1.195-5.277-1.983-5.277-1.983s-2.768-1.188-3.428 0.084c-0.658 1.273-1.779 4.311-1.65 5.158 0.129 0.846 0.596 4.789 5.041 4.314 1.637-0.258 2.809-1.563 3.678-2.22s3.33-3.81 1.64-5.35z" fill="#262626"/>
							<path stroke="#4D4D4D" stroke-width="2" stroke-miterlimit="10" d="m114.05 129.04c-2.305-0.851-0.699 2.172-1.707 1.85-1.01-0.322-1.254 3.219 0.59 3.932s4.023-0.301 4.379 0.027c0.355 0.325 4.359-2.953 3.203-4.406-1.158-1.452-4.342-1.432-4.342-1.432l-2.12 0.03z" fill="#808080"/>
							<path d="m116.4 132.39c1.273-0.194 2.818-0.82 2.443-1.196-0.375-0.375-2.846-0.583-2.846-0.583l-1.621 0.309 0.865 1.983 1.16-0.51z" fill="#A5A5A5"/>
						<path opacity=".5" d="m101.78 140.99c7.223-6.152 8.629-2.688 11.203 1.387 0.668 0.82 1.486 1.869 2.361 3.087 4.543 5.38 6.852 12.011 6.922 19.894l-0.088 0.475-0.422 0.23c-14.617 8.053-15.619 6.937-19.906-9.004l-0.441-15.754 0.38-0.33z" fill="#262626"/>
						<g stroke="#4D4D4D" stroke-miterlimit="10">
							<path stroke-width="2" d="m124.49 162.65c2.316-12.539-7.402-17.879-9.711-23.203-2.311-5.325-8.797 0.193-8.797 0.193l0.387 14.773s4.172 15.519 7.031 14.137c2.86-1.39 11.09-5.9 11.09-5.9z" fill="#808080"/>
							<path d="m121.07 161.39l-6.252-14.641s-3.467-0.047-4.939-0.293c-1.469-0.246-1.076 8.282-1.076 8.282l6.066 8.944 6.2-2.29z" fill="#A5A5A5"/>
							<path d="m114.82 146.75l-0.441-8.053s13.334 14.64 10.109 23.947l-3.416-1.254-6.25-14.65z" fill="#A09D9A"/>
							<path d="m109.46 146.76c-1.475-1.803-2.367-3.969-3.652-5.747 0 0 0.232-1.745 1.865-2.565s5.127-1.953 6.119-0.48c0.992 1.471 1.035 8.779 1.035 8.779l-5.38 0.02z" fill="#686868"/>
						</g>
						<path opacity=".5" d="m122.6 136.9c-0.012-0.406-2.492-1.812-2.492-1.812l-2.682 6.308 3.824 3.194s0.703 0.086 1.641-1.031c0.936-1.115 1.873-4.405 1.873-4.405l-2.16-2.26z" fill="#262626"/>
						<path stroke="#4D4D4D" stroke-width="2" stroke-miterlimit="10" d="m122.02 142.92s3.295-3.166 2.744-3.773c-0.551-0.609-3.543-2.576-3.543-2.576l-1.834 4.436 2.63 1.91z" fill="#808080"/>
		</g>
</svg>
