<?xml version="1.0" encoding="UTF-8" standalone="no"?>
<!-- Generator: Adobe Illustrator 16.0.0, SVG Export Plug-In . SVG Version: 6.00 Build 0) -->
<!DOCTYPE svg PUBLIC '-//W3C//DTD SVG 1.1//EN' 'http://www.w3.org/Graphics/SVG/1.1/DTD/svg11.dtd'>
<svg id="Layer_1" xmlns="http://www.w3.org/2000/svg" xml:space="preserve" version="1.1" xmlns:xlink="http://www.w3.org/1999/xlink" x="0px" y="0px" width="165.724px" height="166.479px" enable-background="new 0 0 165.724 166.479">
	<linearGradient id="SVGID_1_" y2="151.28" gradientUnits="userSpaceOnUse" x2="152.98" y1="151.28" x1="13.284">
		<stop stop-color="#41342A" offset="0"/>
		<stop stop-color="#5E4430" offset=".195"/>
		<stop stop-color="#5A4230" offset=".425"/>
		<stop stop-color="#4B3B2E" offset=".575"/>
		<stop stop-color="#544132" offset=".835"/>
		<stop stop-color="#41342A" offset="1"/>
	</linearGradient>
	<path d="m14.066 166.42h137.71c0-0.092 3.457-14.068-1.365-22.883-6.238-11.406-12.023-0.307-25.025-0.307s-13.002 3.156-26.002 3.156c-12.999 0-12.999-5.371-26-5.371-12.998 0-12.998-0.745-25.998-0.745-12.998 0-18.67-9.063-28.275-0.307-8.772 7.97-5.059 26.36-5.059 26.45z" fill="url(#SVGID_1_)"/>
	<linearGradient id="SVGID_2_" y2="152.15" gradientUnits="userSpaceOnUse" x2="89.721" y1="12.347" x1="89.721">
		<stop stop-color="#41342A" offset="0"/>
		<stop stop-color="#5E4430" offset=".195"/>
		<stop stop-color="#5A4230" offset=".425"/>
		<stop stop-color="#4B3B2E" offset=".575"/>
		<stop stop-color="#544132" offset=".835"/>
		<stop stop-color="#41342A" offset="1"/>
	</linearGradient>
	<path d="m165.63 12.986c-6.514 0.045-7.463 0.24-15.637 0.24-9.229 0-9.229-1.5-18.459-1.5-9.229 0-9.229 1.456-18.459 1.456-9.227 0-9.227-2.083-18.453-2.083-9.228 0-9.228 1.926-18.457 1.926-9.228 0-17.089 6.972-24.718 12.127-6.809 6.242-13.665 14.964-16.664 20.338-4.816 0-11.16 2.733-15.699 36.901-2.582 19.435 0.063 38.97-0.465 52.488-0.322 8.247-3.602 14.265-4.804 16.621 9.23 0 16.23 0.762 25.46 0.762s9.229-1.459 18.46-1.459c9.227 0 9.227 1.705 18.453 1.705 9.229 0 9.229-1.752 18.458-1.752 9.227 0 9.227 2.344 18.455 2.344 9.227 0 9.227 0.584 18.453 0.584s9.227-1.56 18.453-1.56c8.166 0 9.119 0.892 15.621 1.097v-140.22z" fill="url(#SVGID_2_)"/>
	<linearGradient id="SVGID_3_" y2="148.78" gradientUnits="userSpaceOnUse" x2="153.57" y1="148.78" x1="15.176">
		<stop stop-color="#41342A" offset="0"/>
		<stop stop-color="#5E4430" offset=".195"/>
		<stop stop-color="#5A4230" offset=".425"/>
		<stop stop-color="#4B3B2E" offset=".575"/>
		<stop stop-color="#544132" offset=".835"/>
		<stop stop-color="#41342A" offset="1"/>
	</linearGradient>
	<path d="m22.066 166.14c-1.291-8.57-4.094-14.3-6.778-20.513-0.782-1.811 2.751-4.104 3.823-5.667 2.604-3.801 5.16-9.634 10.529-8.726 7.578 1.28 62.25 5.515 67 4.13 4.75-1.387 21.047-1.467 26.744 0.748 5.697 2.214 21.277-1.068 24.611-1.064 3.332 0.002 6.506 8.803 5.326 12.308-1.182 3.507-6.955 10.97-6.326 12.729s-31.355 7.666-37.605 6.055-28-3.488-34.25-2.951c-6.25 0.535-27.331 3.227-27.331 3.227l-25.733-0.28z" fill="url(#SVGID_3_)"/>
	<path opacity=".3" d="m15.25 150.82c0.147 4.192 0.717 12.148 0.717 15.635 0 0.089 6.1-0.128 6.1-0.041h16.94c-0.134-4.7 1.934-9.474 1.778-14.171 0 0 3.271-24.507 0.009-30.507s-6.295-29.25-4.153-36c2.142-6.75 9.892-37.5 22.142-44.25s15.5-9 15.75-10.25 4.686-1.75 9.843-2.5c5.157-0.75 31.755 3.75 39.706 2.75s41.643 8.553 41.643 8.553v-24.975s-6.51-1.495-14.389-1.844c-7.877-0.349-19.152-3.063-32.729-0.274-13.574 2.789-21.453-4.557-37.334-0.771-15.881 3.785-30.99 9.312-46.49 33.312-9.75 5.749-16.426 29.315-15.963 39.032-2.287 8.467-1.4 43.137 0.031 52.927l-3.594 13.37z" fill="#281D14"/>
	<path opacity=".3" d="m15.322 153.84c0.357 3.501 0.644 9.319 0.645 12.617 0 0.089 6.1-0.128 6.1-0.041h9.255l2.108-2.232 4.629-2.374 0.652-3.389-3.225-2.908-1.304-3.354 3.101-4.253-1.75-2.833s2.666-7.417 2.666-7.667-0.333-3.86-0.333-3.86l-1.226-5.89v-7.916l-5.274-2.167s1.751-2.499 1.667-2.833 1.25-3.75 1.25-3.75l-0.917-3.25-1.834-9.001 1-9.961 0.25-6.387 0.25-7.692 3.608-8.71-4.608-4.75 4.608-5.25 3.142-7.25 1.25-4.75 8.75-5.902 2.25-1.598v-5l10.25-2.75 3.25-4.25 10.733-1.75 3.017-3 10.194-1.25c2.057 0.25 4.307 2.75 4.307 2.75l5.75-1 1.707-3 8.043 2.75 5.5 2.75 5.602-3.5 5.898 3 6.25-1.25 4.682-2.5 9.318 0.25 7.568 1.5 1.133 0.75 1.633 4.5 4.055 4.002 4.803 5.502v-19.935s-26.691-3.079-38.441-3.079c-16.5 4.25-47.25-6.75-69.5 8.75s-19.5 21.002-23 24.751-18.5 15.499-17.25 67.25c0.75 17.5 1.48 26.317 1.48 26.317s-4.648 5.38-3.688 14.78z" fill="#261915"/>
		<path opacity=".3" d="m149.88 166.42c0-0.092 0.803-13.698 1.098-14.285-0.32-0.003-0.627-0.008-0.971-0.008-9.227 0-9.227 1.56-18.453 1.56-7.348 0-8.855-0.369-13.82-0.521-1.029 4.222 1.916 6.368-0.465 13.254h32.6z" fill="#281D14"/>
		<g opacity=".3">
			<path d="m131.04 166.42h18.941c0-0.092-0.316-8.136 0.74-12.344 0.201-0.797-0.037-1.354 0.258-1.941-0.32-0.003-0.627-0.008-0.971-0.008-7.006 0-8.699 0.897-13.145 1.331l-1.115 2.253-3.008 2.936 2.705 3.908-4.4 3.86z" fill="#261915"/>
		</g>
	<path opacity=".3" d="m165.63 118.83c-3.699-0.144-7.404-1.815-8.527-2.046-4.053-0.83-11.963 5.362-16.094 5.892-8.193 1.05-6.078 4.282-11.936 10.032-4.416 4.335-7.961 9.627-9.863 15.451-0.52 1.598-0.887 3.303-1.219 5.016 4.76 0.155 6.346 0.512 13.564 0.512 9.227 0 9.227-1.56 18.453-1.56 8.166 0 9.119 0.892 15.621 1.097v-34.39z" fill="#281D14"/>
	<path opacity=".3" d="m165.63 138.22c-1.697-0.248-4.604-0.833-4.738-0.878-0.188-0.062-2.688-2.312-2.688-2.312l-2.125 2.125-3.113 0.875-1.637-0.875s-6.438 0.625-6.75 0.688-3.188 1.312-3.312 1.562-3.5 3.375-3.93 3.429-1.76 2.259-1.76 2.259v3l-1.811 1.562 3.619 2.745-0.521 1.054c4.445-0.434 6.139-1.331 13.145-1.331 8.166 0 9.119 0.892 15.621 1.097v-15z" fill="#261915"/>
	<path stroke="#709922" stroke-width="4" stroke-miterlimit="10" d="m165.63 152.97c-1.863 0.002-6.613-0.548-12.664-0.782" fill="none"/>
	<circle cy="152.35" cx="153.06" r="2.173" fill="#709922"/>
	<path d="m142.26 149.41" fill="#261915"/>
			<path opacity=".5" d="m163.08 135.27c0.586-1.678-0.24-5.633-0.24-5.633s0.01-3.012-1.418-3.121c-1.43-0.107-4.664 0.049-5.393 0.499-0.729 0.449-4.174 2.422-1.998 6.327 0.877 1.406 2.537 1.973 3.48 2.516 0.95 0.53 4.81 1.56 5.57-0.6z" fill="#262626"/>
				<path stroke="#4D4D4D" stroke-width="2" stroke-miterlimit="10" d="m160.99 129.51c-0.119-2.453-2.271 0.207-2.371-0.848-0.098-1.055-3.451 0.105-3.387 2.082 0.066 1.976 1.852 3.585 1.689 4.041-0.16 0.453 4.422 2.855 5.307 1.223 0.885-1.634-0.381-4.555-0.381-4.555l-0.86-1.93z" fill="#808080"/>
				<path d="m158.83 132.98c0.678 1.096 1.857 2.273 2.057 1.78 0.199-0.491-0.576-2.847-0.576-2.847l-0.918-1.371-1.486 1.572 0.93 0.87z" fill="#A5A5A5"/>
			<path opacity=".5" d="m145.19 122.89c8.488 4.24 5.852 6.889 3.107 10.854-0.492 0.936-1.139 2.098-1.916 3.381-3.174 6.285-8.373 11.004-15.6 14.153l-0.471 0.104-0.377-0.297c-13.131-10.303-12.496-11.66 0.496-21.844l14.326-6.57 0.43 0.23z" fill="#262626"/>
			<g stroke="#4D4D4D" stroke-miterlimit="10">
				<path stroke-width="2" d="m134.15 152.27c12.445-2.773 13.557-13.807 17.553-18.015 3.996-4.21-3.619-8.021-3.619-8.021l-13.445 6.137s-12.648 9.912-10.258 12.002 9.77 7.89 9.77 7.89z" fill="#808080"/>
				<path d="m133.97 148.64l11.027-11.482s-1.312-3.209-1.662-4.66c-0.35-1.449-8.043 2.25-8.043 2.25l-5.859 9.082 4.53 4.81z" fill="#A5A5A5"/>
				<path d="m145 137.15l7.238-3.557s-8.256 17.998-18.082 18.672l-0.184-3.633 11.02-11.48z" fill="#A09D9A"/>
				<path d="m142.88 132.22c1.08-2.062 2.725-3.732 3.859-5.61 0 0 1.695-0.47 3.09 0.712 1.395 1.183 3.803 3.955 2.836 5.443-0.965 1.489-7.674 4.389-7.674 4.389l-2.12-4.93z" fill="#686868"/>
			</g>
			<path opacity=".5" d="m157.11 140.45c0.369-0.17 0.693-3.003 0.693-3.003h-6.855l-1.441 4.77s0.195 0.681 1.59 1.106c1.393 0.424 4.787 0 4.787 0l1.23-2.88z" fill="#262626"/>
			<path stroke="#4D4D4D" stroke-width="2" stroke-miterlimit="10" d="m151.34 142.28s4.203 1.793 4.547 1.049c0.346-0.746 0.984-4.269 0.984-4.269l-4.799 0.048-0.73 3.17z" fill="#808080"/>
		<path d="m36.64 131.41s0.311-0.05 0.893-0.145c0.29-0.052 0.649-0.096 1.083-0.119 0.431-0.034 0.937-0.073 1.488-0.064 1.113-0.024 2.458 0.027 3.982 0.119 0.758 0.04 1.567 0.086 2.403 0.104 0.833 0.026 1.698 0.025 2.651 0.028 1.877-0.002 3.911-0.003 6.059 0.052 2.137-0.009 4.445 0.218 6.809 0.414 1.186 0.102 2.391 0.206 3.611 0.311 1.155 0.106 2.4 0.241 3.611 0.387 0.611 0.071 1.224 0.142 1.838 0.214l1.824 0.165c1.217 0.113 2.438 0.227 3.66 0.34 2.456 0.147 4.912 0.381 7.331 0.434 2.448 0.099 4.857 0.195 7.189 0.288 2.325 0.1 4.572 0.195 6.703 0.285 2.119 0.049 4.116 0.079 5.959 0.044 1.84-0.059 3.522-0.164 5.013-0.324 0.744-0.082 1.432-0.209 2.08-0.286 0.64-0.121 1.228-0.232 1.758-0.333 1.046-0.265 1.89-0.45 2.438-0.651 0.565-0.171 0.866-0.262 0.866-0.262s-0.269 0.164-0.772 0.472c-0.502 0.32-1.27 0.728-2.282 1.197-0.517 0.211-1.089 0.443-1.711 0.697-0.634 0.223-1.327 0.448-2.075 0.667-1.496 0.426-3.213 0.826-5.104 1.11-1.888 0.294-3.945 0.53-6.118 0.655-2.171 0.138-4.455 0.232-6.798 0.251-2.329 0.025-4.733 0.125-7.246 0.068-2.501 0.035-5.023-0.194-7.554-0.326-2.512-0.271-5.092-0.469-7.498-0.863-1.223-0.186-2.437-0.37-3.635-0.552-1.174-0.168-2.333-0.333-3.474-0.496-2.293-0.283-4.466-0.749-6.622-0.937-2.136-0.226-4.152-0.493-6.012-0.739-0.466-0.062-0.922-0.124-1.368-0.185-0.462-0.063-0.914-0.119-1.338-0.214-0.861-0.163-1.657-0.343-2.406-0.508-1.49-0.319-2.773-0.651-3.84-0.839s-1.897-0.348-2.495-0.376c-0.602-0.04-0.916-0.07-0.916-0.07z" fill="#60492F"/>
	<path stroke="#709922" stroke-width="4" stroke-miterlimit="10" d="m152.96 152.18c0.096 2.338-1.084 2.419-1.084 14.261" fill="none"/>
	<path stroke="#709922" stroke-width="4" stroke-miterlimit="10" d="m13.966 166.46c0-11.85-3.613-18.515 5.145-26.497 0 0-8.996-76.804 15.671-94.471 0 0 14.678-34.391 59.838-34.391 9.227 0 9.227 2.083 18.453 2.083 9.23 0 9.23-1.456 18.459-1.456 9.23 0 9.23 1.5 18.459 1.5 9.232 0 14.207 1.866 15.732 1.842" fill="none"/>
			<path d="m48.782 128.16c-0.033 0.006 0.214-0.592-0.124-1.619-0.277-1.038-1.117-2.37-2.125-4.137-0.474-0.895-1.104-1.899-1.313-3.253-0.118-0.571-0.181-1.293-0.171-2 0.013-0.7 0.085-1.427 0.235-2.157 0.291-1.468 0.85-2.949 1.518-4.423 0.67-1.471 1.467-2.934 2.157-4.465 0.159-0.384 0.344-0.768 0.484-1.159l0.204-0.534 0.196-0.645c0.125-0.428 0.278-0.874 0.383-1.299 0.08-0.408 0.161-0.82 0.242-1.235 0.28-1.708 0.429-3.553 0.388-5.472-0.035-1.926-0.181-3.937-0.296-6.045-0.125-2.104-0.16-4.329 0.093-6.63 0.247-2.296 0.823-4.664 1.823-6.898l0.403-0.825 0.204-0.413 0.102-0.207 0.051-0.103 0.025-0.052c-0.026 0.041 0.065-0.114 0.066-0.114l0.878-1.44c0.595-0.957 1.193-1.918 1.794-2.884 2.732-3.868 5.697-7.66 9.194-10.88 1.673-1.702 3.583-3.127 5.414-4.628 0.913-0.756 1.926-1.368 2.88-2.055 0.979-0.65 1.905-1.38 2.928-1.94 2.007-1.186 3.976-2.407 6.053-3.349 1.019-0.498 2.03-0.993 3.034-1.484 0.997-0.461 1.986-0.92 2.968-1.375 3.898-1.855 7.857-3.587 11.83-4.689 0.487-0.159 0.998-0.25 1.492-0.371 0.522-0.114 0.934-0.229 1.536-0.337 0.955-0.136 1.896-0.271 2.821-0.403 1.859-0.231 3.626-0.54 5.377-0.682 1.758-0.104 3.443-0.203 5.046-0.297 0.799-0.04 1.577-0.079 2.333-0.117 0.754 0.004 1.485 0.009 2.194 0.013 2.833 0.039 5.298 0.001 7.324 0.16 4.052 0.251 6.355 0.442 6.355 0.442s-2.317 0.159-6.352 0.354c-1.009 0.03-2.123 0.122-3.334 0.243-1.211 0.102-2.52 0.212-3.918 0.331-0.698 0.059-1.418 0.119-2.16 0.181-0.732 0.103-1.486 0.209-2.26 0.318-1.542 0.203-3.163 0.417-4.855 0.639-1.69 0.256-3.464 0.694-5.292 1.053-0.916 0.184-1.848 0.371-2.794 0.561-0.342 0.082-0.865 0.243-1.294 0.36-0.45 0.135-0.909 0.238-1.358 0.412-3.635 1.211-7.287 3.05-11.163 5.004-3.932 1.942-7.762 3.934-11.528 6.304-0.972 0.541-1.835 1.245-2.758 1.869-0.896 0.66-1.854 1.247-2.707 1.97-1.712 1.436-3.501 2.798-5.06 4.411-0.796 0.786-1.662 1.506-2.404 2.343l-2.238 2.495c-0.782 0.81-1.404 1.707-2.073 2.574-0.655 0.884-1.339 1.709-1.97 2.631-0.613 0.958-1.223 1.912-1.83 2.862l-0.921 1.412-0.67 1.275c-0.875 1.813-1.421 3.752-1.701 5.753-0.549 4.004-0.155 8.197-0.31 12.283-0.071 2.052-0.293 4.068-0.763 6.02-0.137 0.492-0.272 0.981-0.407 1.466-0.15 0.456-0.323 0.861-0.48 1.289l-0.24 0.629c-0.137 0.324-0.209 0.457-0.316 0.693-0.19 0.429-0.414 0.82-0.616 1.225-1.711 3.132-3.519 5.664-4.245 8.234-0.191 0.635-0.31 1.262-0.376 1.874-0.055 0.605-0.08 1.156-0.023 1.792 0.033 1.091 0.503 2.113 0.877 3.034 0.817 1.832 1.47 3.339 1.626 4.441 0.201 1.14-0.129 1.7-0.092 1.7z" fill="#60492F"/>
			<path d="m104.6 114.11s-0.099-0.235-0.283-0.678c-0.206-0.431-0.382-1.115-0.568-2.039-0.054-0.456-0.112-0.962-0.176-1.512-0.014-0.551-0.028-1.154-0.001-1.798 0.088-1.284 0.241-2.751 0.805-4.327 0.134-0.396 0.341-0.793 0.521-1.205l0.071-0.154 0.036-0.078 0.018-0.038c-0.038 0.054 0.062-0.096 0.056-0.086l0.01-0.016 0.158-0.256 0.322-0.519c0.21-0.341 0.639-0.818 0.958-1.159 0.298-0.296 0.601-0.596 0.907-0.9 0.088-0.116 0.156-0.219 0.244-0.318 0.042-0.107 0.078-0.207 0.134-0.299 0.05-0.278 0.15-0.498 0.153-0.904l0.042-0.549 0.017-0.674c0.012-0.466 0.023-0.936 0.035-1.41 0.046-1.881 0.099-3.943 0.575-6.137 0.424-2.217 1.66-4.433 3.2-6.133l0.599-0.626 0.301-0.311 0.151-0.155 0.037-0.039 0.105-0.091 0.073-0.06 1.17-0.958c0.882-0.648 1.874-1.326 2.785-1.81 1.854-1.058 3.772-1.851 5.653-2.456 1.877-0.633 3.728-1.056 5.483-1.387 1.76-0.321 3.432-0.521 4.977-0.631 1.54-0.139 2.958-0.161 4.21-0.152 1.252-0.001 2.342 0.059 3.235 0.133 0.894 0.053 1.594 0.157 2.069 0.215 0.476 0.066 0.729 0.101 0.729 0.101s-1.003 0.174-2.759 0.479c-0.873 0.143-1.926 0.367-3.127 0.596-1.199 0.248-2.544 0.55-3.996 0.897-0.727 0.175-1.479 0.367-2.248 0.595-0.775 0.206-1.565 0.444-2.375 0.693-1.614 0.505-3.296 1.079-4.966 1.788-0.845 0.338-1.666 0.737-2.503 1.128-0.806 0.44-1.646 0.845-2.418 1.347-0.832 0.479-1.467 0.983-2.216 1.513l-1.158 0.972-0.842 0.895c-1.156 1.278-1.999 2.689-2.409 4.385-0.43 1.685-0.617 3.552-0.808 5.449-0.051 0.472-0.101 0.938-0.15 1.401l-0.079 0.712-0.146 0.813c-0.062 0.509-0.304 1.141-0.544 1.697-0.173 0.291-0.353 0.579-0.544 0.844-0.212 0.223-0.435 0.446-0.647 0.643-0.348 0.267-0.691 0.53-1.028 0.789-0.28 0.249-0.455 0.354-0.739 0.66l-0.4 0.46-0.196 0.228-0.013 0.014c-0.015 0.02 0.081-0.118 0.037-0.054l-0.018 0.027-0.035 0.053-0.069 0.106c-0.179 0.289-0.387 0.55-0.546 0.853-0.647 1.214-1.07 2.488-1.391 3.628-0.15 0.574-0.228 1.125-0.355 1.633-0.067 0.517-0.129 0.99-0.185 1.419-0.021 0.836-0.089 1.541 0 2.019 0.06 0.51 0.08 0.76 0.08 0.76z" fill="#60492F"/>
			<path d="m90.782 77.489s-0.039-0.115-0.112-0.33c-0.054-0.222-0.205-0.517-0.26-0.948-0.037-0.217-0.077-0.458-0.121-0.72-0.024-0.261-0.029-0.545-0.043-0.854-0.002-0.308 0.031-0.633 0.05-0.985 0.035-0.348 0.122-0.705 0.196-1.086 0.203-0.74 0.462-1.557 0.898-2.33 0.413-0.789 0.95-1.559 1.574-2.281 0.615-0.736 1.333-1.402 2.089-2.032 0.755-0.633 1.575-1.186 2.399-1.721 3.349-2.065 6.975-3.326 9.709-4.076 1.364-0.394 2.519-0.659 3.331-0.851 0.812-0.188 1.289-0.288 1.289-0.288s-0.357 0.333-1.038 0.83c-0.679 0.5-1.676 1.173-2.9 1.891-2.427 1.486-5.755 3.149-8.805 5.04-1.519 0.95-2.97 1.958-4.163 3.048-0.6 0.542-1.146 1.096-1.6 1.668-0.477 0.562-0.845 1.146-1.179 1.706-0.291 0.574-0.542 1.125-0.723 1.642-0.078 0.259-0.144 0.507-0.225 0.738-0.054 0.233-0.103 0.447-0.147 0.641-0.1 0.391-0.12 0.737-0.162 0.955-0.033 0.223-0.054 0.343-0.054 0.343z" fill="#60492F"/>
	<radialGradient id="SVGID_4_" gradientUnits="userSpaceOnUse" cy="113" cx="114.02" r="114.28">
		<stop stop-color="#41342A" stop-opacity="0" offset=".6134"/>
		<stop stop-color="#41342A" offset="1"/>
	</radialGradient>
	<path d="m154.1 83.662c0 33.458 20.016 60.582-59.447 60.582-33.458 0-60.582-27.123-60.582-60.582 0-33.457 27.123-60.58 60.582-60.58 71.067 0.004 59.447 27.127 59.447 60.584z" fill="url(#SVGID_4_)"/>
</svg>
