<?xml version="1.0" encoding="utf-8"?>
<!-- Generator: Adobe Illustrator 26.0.0, SVG Export Plug-In . SVG Version: 6.00 Build 0)  -->
<svg version="1.1" id="Layer_1" xmlns="http://www.w3.org/2000/svg" xmlns:xlink="http://www.w3.org/1999/xlink" x="0px" y="0px"
	 viewBox="0 0 99.9 99.9" style="enable-background:new 0 0 99.9 99.9;" xml:space="preserve">
<style type="text/css">
	.st0{opacity:0.4;}
	.st1{fill:url(#SVGID_1_);stroke:#636363;stroke-width:4;stroke-miterlimit:10;}
	.st2{fill:#FFFFFF;}
	.st3{fill:url(#SVGID_00000019652048433846757120000017850821410251576501_);stroke:#636363;stroke-width:2;stroke-miterlimit:10;}
	.st4{fill:#636363;}
	.st5{fill:url(#SVGID_00000063625622765611477390000012523526417485287596_);stroke:#636363;stroke-width:4;stroke-miterlimit:10;}
	.st6{fill:url(#SVGID_00000165934231591819518280000014273409744682841478_);stroke:#636363;stroke-width:2;stroke-miterlimit:10;}
	.st7{fill:url(#SVGID_00000093890023830250004840000004697775218707036351_);}
	.st8{fill:#575756;}
	.st9{fill:url(#SVGID_00000023999002958824130690000002145599995790407866_);}
	.st10{fill:url(#SVGID_00000042734349576655144530000002535595392813903499_);}
	.st11{fill:url(#SVGID_00000156573320003667990010000013574973421174097592_);}
	.st12{fill:#FFFCEB;}
	.st13{fill:url(#SVGID_00000023254907509475333120000016512188137074593936_);}
	.st14{fill:url(#SVGID_00000091736069668195587710000006817569632637874587_);}
	.st15{fill:url(#SVGID_00000139279381799586913540000008307580578074588046_);}
	.st16{fill:url(#SVGID_00000049921431556049391720000013015554560066511774_);}
	.st17{opacity:0.2;fill:#575756;enable-background:new    ;}
	.st18{fill:url(#SVGID_00000092427234036288095850000012272049171885493426_);}
	.st19{fill:url(#SVGID_00000097483610435233319420000007744039464814578056_);}
	.st20{fill:url(#SVGID_00000072253842684062442940000015324203799034380171_);}
	.st21{opacity:0.7;}
	.st22{fill:url(#SVGID_00000039136047422220959800000002978692965682411699_);}
	.st23{fill:url(#SVGID_00000012472363212302663520000014656752280558493575_);}
	.st24{fill:url(#SVGID_00000110454549525249496880000002190329585295716527_);}
	.st25{fill:url(#SVGID_00000003107420179245780860000009237193821985607049_);}
	.st26{fill:url(#SVGID_00000155838590827015122260000012480116950908994479_);}
	.st27{fill:url(#SVGID_00000126290072893664978530000003624139525165452417_);}
	.st28{fill:url(#SVGID_00000080196269957125760560000015250533624789382560_);}
	.st29{fill:url(#SVGID_00000021115103231098938020000011449375200916079016_);}
	.st30{fill:url(#SVGID_00000142151703879302082660000011488315236480423354_);}
	.st31{fill:url(#SVGID_00000129913508040830562080000016068466359525395632_);}
	.st32{fill:url(#SVGID_00000124163798837813743460000001055841781707742898_);}
	.st33{fill:url(#SVGID_00000178188966769627174120000001578386855870227372_);}
	.st34{fill:url(#SVGID_00000147221241704690359110000006689461111427662250_);}
	.st35{fill:url(#SVGID_00000088831159182717844670000002630098084190077593_);}
	.st36{fill:url(#SVGID_00000008838369811751485700000002934941832987372440_);}
	.st37{fill:url(#SVGID_00000136371717533657720350000016506674873938371991_);}
	.st38{fill:url(#SVGID_00000072243826255262526810000011416422884156183985_);}
	.st39{fill:url(#SVGID_00000176042925571612089180000000899128574270809242_);}
	.st40{fill:url(#SVGID_00000025426080151903723380000004363806225526348213_);}
	.st41{fill:url(#SVGID_00000160875760516420074070000003124934518883467173_);}
	.st42{fill:url(#SVGID_00000095297201311505345510000007538640598444279692_);}
	.st43{fill:url(#SVGID_00000096757945723793620390000012580161323818073991_);}
	.st44{fill:url(#SVGID_00000026873878409830161480000012293066394489368758_);}
	.st45{fill:url(#SVGID_00000174596081265478110440000007493312130335475085_);}
	.st46{fill:url(#SVGID_00000061462963583676107590000007159839167767267734_);}
	.st47{fill:url(#SVGID_00000125599141797003703210000013161219181719090067_);}
	.st48{fill:url(#SVGID_00000111912537515762705120000009693376754381803187_);}
	.st49{fill:url(#SVGID_00000167355205062807255000000004248728179596574652_);}
	.st50{fill:url(#SVGID_00000181792154651080355710000004198025535265160123_);}
	.st51{fill:url(#SVGID_00000147187928785666283320000013979039905182889884_);}
	.st52{fill:url(#SVGID_00000176735016259824816180000009100510359290483867_);}
	.st53{fill:url(#SVGID_00000054978269589903612380000010511773629482303928_);}
	.st54{fill:url(#SVGID_00000011019957195037775990000011976143619723797382_);stroke:#636363;stroke-miterlimit:10;}
	.st55{fill:url(#SVGID_00000181069311394620536080000005316452242884262842_);}
	.st56{fill:url(#SVGID_00000096053782166763216710000015433717881279700362_);}
	.st57{fill:url(#SVGID_00000169551631769933222170000016672339671222734216_);}
	.st58{fill:url(#SVGID_00000116945204339398862270000013959711894990318747_);}
	.st59{fill:url(#SVGID_00000155126275130174964350000008196011563629182339_);}
	.st60{fill:url(#SVGID_00000067918989264985317720000007928042079081476737_);}
</style>
<g>
	<g>
		<g class="st0">
			<g>
				
					<linearGradient id="SVGID_1_" gradientUnits="userSpaceOnUse" x1="-32.82" y1="682.6418" x2="73.544" y2="763.717" gradientTransform="matrix(1 0 0 1 24.9448 -676.7715)">
					<stop  offset="0" style="stop-color:#9D9D9C"/>
					<stop  offset="1" style="stop-color:#9D9D9C;stop-opacity:0.2"/>
				</linearGradient>
				<circle class="st1" cx="49.9" cy="49.9" r="43.1"/>
				<g>
					<path class="st2" d="M10,39.4c0,0,0.3-1,0.8-2.8c0.1-0.4,0.3-0.9,0.5-1.5c0.2-0.5,0.5-1.1,0.7-1.7c0.3-0.6,0.5-1.2,0.8-1.9
						c0.3-0.7,0.7-1.3,1.1-2c0.4-0.7,0.8-1.4,1.3-2.2c0.5-0.7,1-1.4,1.6-2.2c0.3-0.4,0.5-0.8,0.8-1.1c0.3-0.4,0.6-0.7,0.9-1.1
						c0.7-0.7,1.3-1.5,2-2.2c1.5-1.3,3-2.9,4.8-4c1.7-1.3,3.6-2.4,5.4-3.5c2-0.9,3.9-1.9,6-2.5c2-0.8,4.1-1.1,6-1.6
						c1-0.1,2-0.3,3-0.4c0.5-0.1,1-0.1,1.4-0.2c0.5,0,0.9,0,1.4,0c0.9,0,1.8,0,2.7,0c0.9,0.1,1.7,0.2,2.5,0.2
						C54.5,8.9,55.3,8.9,56,9c0.7,0.1,1.4,0.3,2,0.4c0.6,0.1,1.2,0.3,1.8,0.4c0.5,0.2,1,0.3,1.5,0.5c1.8,0.6,2.8,0.9,2.8,0.9
						S63,11,61.2,10.7c-0.5-0.1-0.9-0.2-1.5-0.3c-0.6-0.1-1.1-0.1-1.8-0.2c-0.6-0.1-1.3-0.1-2-0.2c-0.7-0.1-1.5,0-2.2-0.1
						c-0.8,0-1.6,0-2.4,0c-0.8,0.1-1.7,0.1-2.6,0.2c-0.4,0-0.9,0.1-1.4,0.1c-0.5,0.1-0.9,0.1-1.4,0.2c-0.9,0.2-1.9,0.3-2.8,0.5
						c-1.9,0.5-3.8,0.9-5.7,1.7c-2,0.6-3.8,1.6-5.7,2.4c-1.8,1-3.6,2-5.2,3.3c-1.7,1.1-3.2,2.5-4.7,3.7c-0.7,0.7-1.3,1.4-2,2
						c-0.3,0.3-0.7,0.7-1,1c-0.3,0.4-0.6,0.7-0.9,1.1c-0.6,0.7-1.1,1.4-1.7,2c-0.5,0.7-0.9,1.4-1.4,2c-0.4,0.7-0.9,1.3-1.2,1.9
						c-0.3,0.6-0.7,1.2-1,1.8c-0.3,0.6-0.6,1.1-0.9,1.6c-0.2,0.5-0.4,1-0.6,1.4C10.4,38.4,10,39.4,10,39.4z"/>
				</g>
				<g>
					<path class="st2" d="M86.4,63.5c0,0-0.2,0.9-0.7,2.4c-0.1,0.4-0.2,0.8-0.4,1.3c-0.2,0.4-0.4,0.9-0.6,1.4
						c-0.2,0.5-0.5,1.1-0.7,1.7c-0.2,0.6-0.6,1.1-0.9,1.8c-0.3,0.6-0.7,1.2-1.1,1.9c-0.4,0.6-0.9,1.2-1.4,1.9
						c-0.2,0.3-0.5,0.7-0.7,1c-0.3,0.3-0.5,0.6-0.8,0.9c-0.6,0.6-1.1,1.3-1.7,1.9c-1.3,1.2-2.6,2.5-4.1,3.5c-1.4,1.1-3.1,2-4.7,3
						c-1.7,0.8-3.4,1.6-5.1,2.1c-1.7,0.7-3.5,0.9-5.2,1.4c-0.9,0.1-1.7,0.2-2.6,0.3c-0.4,0-0.8,0.1-1.2,0.1c-0.4,0-0.8,0-1.2,0
						c-0.8,0-1.6,0-2.3,0c-0.7-0.1-1.5-0.1-2.2-0.2c-0.7-0.1-1.4-0.1-2-0.2c-0.6-0.1-1.2-0.3-1.8-0.4c-0.5-0.1-1.1-0.2-1.5-0.3
						c-0.5-0.2-0.9-0.3-1.3-0.4c-1.5-0.5-2.4-0.8-2.4-0.8s0.9,0.2,2.5,0.4c0.4,0.1,0.8,0.2,1.3,0.2c0.5,0,1,0.1,1.5,0.1
						c0.5,0.1,1.1,0.1,1.7,0.2c0.6,0.1,1.3,0,1.9,0.1c0.7,0,1.4,0,2.1,0c0.7-0.1,1.5-0.1,2.2-0.2c0.4,0,0.8-0.1,1.2-0.1
						c0.4,0,0.8-0.1,1.2-0.2c0.8-0.1,1.6-0.3,2.4-0.4c1.6-0.4,3.3-0.8,4.9-1.5c1.7-0.5,3.2-1.3,4.9-2.1c1.5-0.9,3.1-1.7,4.5-2.8
						c1.5-1,2.7-2.1,4-3.2c0.6-0.6,1.2-1.2,1.7-1.8c0.3-0.3,0.6-0.6,0.8-0.9c0.2-0.3,0.5-0.6,0.7-0.9c0.5-0.6,1-1.2,1.4-1.7
						c0.4-0.6,0.8-1.2,1.2-1.7c0.4-0.6,0.8-1.1,1.1-1.6c0.3-0.5,0.6-1,0.9-1.5c0.3-0.5,0.5-0.9,0.8-1.3c0.2-0.4,0.4-0.8,0.5-1.2
						C86,64.3,86.4,63.5,86.4,63.5z"/>
				</g>
			</g>
			<g>
				
					<linearGradient id="SVGID_00000042017707266117940310000011429448387089534344_" gradientUnits="userSpaceOnUse" x1="-32.8173" y1="682.6414" x2="73.545" y2="763.7153" gradientTransform="matrix(1 0 0 1 24.9448 -676.7715)">
					<stop  offset="0" style="stop-color:#9D9D9C"/>
					<stop  offset="1" style="stop-color:#9D9D9C;stop-opacity:0.2"/>
				</linearGradient>
				
					<circle style="fill:url(#SVGID_00000042017707266117940310000011429448387089534344_);stroke:#636363;stroke-width:2;stroke-miterlimit:10;" cx="49.9" cy="49.9" r="37.1"/>
			</g>
			<path class="st4" d="M82.1,44.4L82.1,44.4c0.1,0,0.1,0,0.2,0l0.2,0v0c0.2,0,0.4-0.1,0.5-0.4c0,0,0,0,0,0c0.2,0,0.5,0,0.6,0
				c0.2,0,0.4-0.2,0.4-0.4c0-0.2-0.2-0.4-0.4-0.4c-0.2,0-0.4,0-0.6,0c-0.1-0.1-0.2-0.2-0.3-0.3c0.1-0.1,0.1-0.1,0.1-0.2
				c0.1-0.1,0.2-0.2,0.2-0.4c0,0,0,0,0,0c0.1-0.1,0.3-0.1,0.4-0.2c0.2-0.1,0.3-0.3,0.2-0.5c-0.1-0.2-0.3-0.3-0.5-0.2
				c-0.1,0.1-0.3,0.1-0.5,0.2c-0.1-0.1-0.2-0.1-0.3-0.2c0,0-0.1,0-0.1,0c0-0.1,0-0.2,0-0.3c0,0,0-0.1,0-0.1c0,0,0,0,0,0
				c0.1,0,0.2-0.1,0.2-0.1c0.2-0.1,0.3-0.3,0.2-0.5c-0.1-0.1-0.2-0.2-0.3-0.2c-0.2-0.1-0.4-0.1-0.5,0.1c0,0-0.1,0.1-0.1,0.1
				c0,0-0.1,0-0.1,0.1c-0.1-0.1-0.2-0.1-0.3-0.1c0.2-0.2,0.4-0.5,0.4-0.8c0-0.1,0-0.2-0.1-0.4c0,0,0,0,0-0.1
				c0.1-0.2,0.1-0.4-0.1-0.5c-0.2-0.1-0.4-0.1-0.5,0.1c0,0,0,0,0,0c-0.1,0-0.1,0-0.2,0c0,0,0-0.1,0.1-0.1c0,0,0,0,0-0.1
				c0.2,0,0.4-0.1,0.6-0.1c0.1,0,0.2-0.1,0.2-0.2s0.1-0.2,0-0.3c-0.1-0.2-0.3-0.3-0.5-0.3c-0.1,0-0.3,0.1-0.5,0.1
				c0-0.2,0-0.3-0.2-0.4c-0.2-0.1-0.4-0.1-0.5,0.1c0,0,0,0,0,0c-0.1,0-0.1,0-0.2,0c0,0,0-0.1,0.1-0.1c0,0,0,0,0-0.1
				c0.2,0,0.4-0.1,0.6-0.1c0.1,0,0.2-0.1,0.2-0.2c0.1-0.1,0.1-0.2,0-0.3c0-0.1-0.2-0.3-0.3-0.3c-0.1-0.1-0.2-0.1-0.2-0.1
				c-0.2,0-0.6,0-0.8,0c0,0,0-0.1,0-0.1c-0.1-0.1-0.2-0.3-0.3-0.3c0.1,0,0.2,0,0.3,0c0.2,0,0.4-0.2,0.4-0.4c0-0.2-0.2-0.4-0.4-0.4
				s-0.6,0-0.8,0c0,0,0-0.1,0-0.1c-0.2-0.4-0.6-0.5-1-0.4c-0.1,0-0.5,0-0.7,0c-0.4,0-0.8,0-1,0c-0.7,0.1-1.7,0.4-2.4,1.4
				c-0.3,0.4-0.5,0.9-0.8,1.3c-0.2,0.4-0.4,0.8-0.6,1.1c-0.3-0.1-0.8,0-1,0.1C71,38.8,71,39,71,39.2c0,0,0,0-0.1,0c0,0,0,0,0,0
				c-0.3-0.4-0.7-1-1.3-1.4c-0.6-0.4-1.5-0.5-2.2-0.5l-0.5,0c-0.3,0-0.6,0-0.8,0c-0.5-0.1-1-0.2-1.4-0.2c-0.7,0-1.2,0.1-1.7,0.4
				c-0.5-1.6-1.4-3.1-2.3-4.2c-0.9-1.4-1.9-2.4-2.9-2.9c-1.7-0.8-4.4-1.3-7.3-1.3c-2.1,0-4.3,0.3-6.2,0.8l-0.1-0.4l0,0.2L44,29.2
				l-0.1,0.5c0,0,0,0,0,0l-0.6-1.7l-0.4,2c0,0,0,0-0.1,0l-0.6-0.7L40,24.2c0.5-0.5,0.7-1.1,0.6-1.8c-0.1-0.7-0.5-1.3-1-1.6
				c-0.3-1-1.3-1.7-2.4-1.6c-1.2,0.1-2.1,1.3-2,2.5c0.1,0.7,0.5,1.3,1,1.6c0.2,0.7,0.8,1.3,1.6,1.5l1.8,6.6c-0.1,0-0.1,0.1-0.2,0.1
				c-0.4-0.1-0.8-0.2-1.1-0.3l-0.6,0l0.4,0.5c0.1,0.1,0.1,0.2,0.2,0.3c-5.4,2.4-10.7,5.5-10.5,10.1c0.1,1.9,0.7,3.8,1.2,5.3
				c0.3,1,0.6,1.8,0.5,2.2c0,0.1,0,0.2,0,0.3l0,0c-0.1,0.8-2.3,5.5-3.2,7.4l-0.2,0l0.5,1.6l0.1,0.2l0.2,0c0,0,0.1,0,0.2,0
				c0,0,0.1,0,0.1,0l0.3,1l0.1,0.2l0.2,0c0,0,0.1,0,0.2,0c0.3,0,0.9,0,2-0.3c0.6,1.9,1.4,3.8,2.6,5.5c-0.3,1.1,0.1,2.5,1.1,3.6
				c0.1,0.1,0.1,0.1,0.2,0.2c0.2,0.4,0.4,0.7,0.7,1.1c0.8,0.8,1.7,1.4,2.6,1.5c2.1,2.2,5.6,4.4,10.8,4.4h0c3,0,6.3-0.8,9.7-2.3
				c0.1-0.1,0.2-0.1,0.3-0.2l0.1,0c1.8-0.8,3.5-1.9,5-3.2c7-5.5,8.1-12.1,7.9-15.5c0.3-0.4,0.5-0.8,0.7-1c0.8-1.2,1-2.5,1.1-3.7
				c0.1-0.9,0.3-1.7,0.6-2.4c0.1-0.2,0.2-0.3,0.4-0.5c0.2,0.1,0.4,0.2,0.7,0.2c0.2,0,0.4,0,0.6-0.1c0.6-0.2,0.8-0.7,0.8-1.2
				c0.2,0,0.3,0,0.5,0c0,0.1,0,0.2,0,0.3c0,0.3,0,0.6,0.1,0.8c0.1,0.8,0.6,1.3,1,1.5c0.4,1.4,1.5,1.5,2.1,1.5l0,0c0.1,0,0.1,0,0.2,0
				c0.3,0.1,0.6-0.1,0.8-0.3c0.3,0,0.5,0,0.7,0h0c0.2,0,0.4-0.2,0.4-0.4c0-0.2-0.2-0.4-0.4-0.4c-0.2,0-0.4,0-0.6,0
				c-0.1-0.2-0.3-0.4-0.5-0.4c0.1,0,0.1,0,0.2,0h0c0.2,0,0.4-0.2,0.4-0.4c0-0.2-0.2-0.4-0.4-0.4c-0.2,0-0.4,0-0.6,0
				c0-0.1-0.1-0.2-0.2-0.2c0.2,0,0.4,0.1,0.7,0.1c0.3,0,0.7,0,1-0.1c0.4-0.1,0.7-0.3,0.9-0.5c0.1,0,0.1-0.1,0.2-0.1
				c0.2-0.1,0.3-0.4,0.3-0.6c0.2-0.1,0.4-0.2,0.6-0.3c0.2-0.1,0.2-0.4,0.1-0.5c-0.1-0.1-0.2-0.2-0.4-0.2c0,0,0-0.1,0-0.1
				c0.2-0.1,0.4-0.2,0.6-0.3c0.2-0.1,0.2-0.4,0.1-0.5c-0.1-0.2-0.4-0.2-0.5-0.1c-0.1,0.1-0.3,0.2-0.5,0.3c0,0,0,0-0.1,0
				c0-0.1,0-0.1-0.1-0.2C82.4,44.5,82.2,44.4,82.1,44.4C82.1,44.5,82.1,44.4,82.1,44.4C82.1,44.4,82.1,44.4,82.1,44.4z"/>
		</g>
	</g>
	<g class="st0">
		<g>
			
				<linearGradient id="SVGID_00000064344825288368530860000008573963949308948379_" gradientUnits="userSpaceOnUse" x1="-39.241" y1="677.7475" x2="78.938" y2="767.8286" gradientTransform="matrix(1 0 0 1 24.9448 -676.7715)">
				<stop  offset="0" style="stop-color:#9D9D9C"/>
				<stop  offset="1" style="stop-color:#9D9D9C;stop-opacity:0.2"/>
			</linearGradient>
			
				<circle style="fill:url(#SVGID_00000064344825288368530860000008573963949308948379_);stroke:#636363;stroke-width:4;stroke-miterlimit:10;" cx="49.9" cy="49.9" r="47.9"/>
			<g>
				<path class="st2" d="M5.5,38.2c0,0,0.3-1.1,0.9-3.1c0.2-0.5,0.3-1,0.5-1.6c0.2-0.6,0.5-1.2,0.8-1.9c0.3-0.7,0.6-1.4,0.9-2.1
					c0.3-0.8,0.8-1.5,1.2-2.2c0.4-0.8,0.9-1.6,1.4-2.4c0.6-0.8,1.2-1.6,1.8-2.4c0.3-0.4,0.6-0.8,0.9-1.3c0.3-0.4,0.7-0.8,1.1-1.2
					c0.7-0.8,1.5-1.6,2.2-2.4c1.7-1.5,3.3-3.2,5.3-4.5c1.9-1.5,4-2.6,6-3.8c2.2-1,4.3-2.1,6.6-2.8c2.2-0.9,4.5-1.2,6.7-1.8
					c1.1-0.1,2.2-0.3,3.3-0.4c0.5-0.1,1.1-0.1,1.6-0.2c0.5,0,1,0,1.6,0c1,0,2,0,3-0.1c1,0.1,1.9,0.2,2.8,0.2
					c0.9,0.1,1.7,0.1,2.5,0.3c0.8,0.2,1.6,0.3,2.3,0.5c0.7,0.1,1.4,0.3,2,0.4c0.6,0.2,1.1,0.4,1.6,0.5c2,0.6,3.1,1,3.1,1
					s-1.2-0.2-3.2-0.6c-0.5-0.1-1.1-0.2-1.7-0.3c-0.6-0.1-1.3-0.1-2-0.2c-0.7-0.1-1.5-0.2-2.3-0.2c-0.8-0.1-1.6-0.1-2.5-0.1
					c-0.9,0-1.8,0-2.7,0c-0.9,0.1-1.9,0.1-2.9,0.2c-0.5,0-1,0.1-1.5,0.1c-0.5,0.1-1,0.2-1.5,0.2c-1,0.2-2.1,0.3-3.1,0.5
					c-2.1,0.6-4.3,1-6.4,1.9c-2.2,0.7-4.2,1.7-6.3,2.7c-2,1.2-4,2.2-5.8,3.6c-1.9,1.2-3.5,2.8-5.2,4.2c-0.8,0.8-1.5,1.5-2.2,2.3
					c-0.4,0.4-0.7,0.7-1.1,1.1c-0.3,0.4-0.6,0.8-1,1.2c-0.6,0.8-1.2,1.5-1.8,2.3c-0.5,0.8-1,1.5-1.5,2.3c-0.5,0.7-1,1.4-1.4,2.1
					c-0.4,0.7-0.7,1.4-1.1,2c-0.3,0.6-0.7,1.2-1,1.7c-0.2,0.6-0.5,1.1-0.7,1.6C6,37.2,5.5,38.2,5.5,38.2z"/>
			</g>
			<g>
				<path class="st2" d="M90.5,65c0,0-0.3,1-0.8,2.7c-0.1,0.4-0.3,0.9-0.4,1.4c-0.2,0.5-0.4,1-0.7,1.6c-0.2,0.6-0.5,1.2-0.8,1.8
					c-0.3,0.7-0.7,1.3-1,1.9c-0.4,0.7-0.8,1.4-1.2,2.1c-0.5,0.7-1,1.4-1.5,2.1c-0.3,0.4-0.5,0.7-0.8,1.1c-0.3,0.4-0.6,0.7-0.9,1
					c-0.6,0.7-1.3,1.4-1.9,2.1c-1.5,1.3-2.8,2.7-4.6,3.9C74.3,88,72.4,89,70.7,90c-1.9,0.8-3.7,1.8-5.7,2.4
					c-1.9,0.8-3.9,1.1-5.8,1.5c-1,0.1-1.9,0.2-2.8,0.4c-0.5,0-0.9,0.1-1.4,0.1c-0.5,0-0.9,0-1.3,0c-0.9,0-1.7,0-2.6,0
					c-0.8-0.1-1.6-0.1-2.4-0.2c-0.8-0.1-1.5-0.1-2.2-0.3c-0.7-0.1-1.3-0.3-1.9-0.4c-0.6-0.1-1.2-0.2-1.7-0.4c-0.5-0.2-1-0.3-1.4-0.5
					c-1.7-0.6-2.6-0.9-2.6-0.9s1,0.2,2.7,0.5c0.4,0.1,0.9,0.2,1.4,0.3c0.5,0.1,1.1,0.1,1.7,0.2c0.6,0.1,1.3,0.1,1.9,0.2
					c0.7,0.1,1.4,0,2.1,0.1c0.7,0,1.5,0,2.3,0c0.8-0.1,1.6-0.1,2.5-0.2c0.4,0,0.9-0.1,1.3-0.1c0.4,0,0.9-0.1,1.3-0.2
					c0.9-0.1,1.8-0.3,2.7-0.4c1.8-0.5,3.7-0.9,5.5-1.6c1.9-0.6,3.6-1.5,5.4-2.3c1.7-1,3.5-1.9,5-3.1c1.6-1.1,3-2.4,4.5-3.6
					c0.6-0.7,1.3-1.3,1.9-2c0.3-0.3,0.6-0.6,0.9-0.9c0.3-0.3,0.6-0.7,0.8-1c0.5-0.7,1.1-1.3,1.6-1.9c0.5-0.7,0.9-1.3,1.3-1.9
					c0.4-0.6,0.9-1.2,1.2-1.8c0.3-0.6,0.6-1.2,0.9-1.7c0.3-0.5,0.6-1,0.8-1.5c0.2-0.5,0.4-0.9,0.6-1.3C90.1,65.9,90.5,65,90.5,65z"
					/>
			</g>
		</g>
		<g>
			
				<linearGradient id="SVGID_00000093899135681649573130000016730822136793242264_" gradientUnits="userSpaceOnUse" x1="-39.2417" y1="677.746" x2="78.9398" y2="767.8289" gradientTransform="matrix(1 0 0 1 24.9448 -676.7715)">
				<stop  offset="0" style="stop-color:#9D9D9C"/>
				<stop  offset="1" style="stop-color:#9D9D9C;stop-opacity:0.2"/>
			</linearGradient>
			
				<circle style="fill:url(#SVGID_00000093899135681649573130000016730822136793242264_);stroke:#636363;stroke-width:2;stroke-miterlimit:10;" cx="49.9" cy="49.9" r="41.2"/>
		</g>
		<g>
			<path class="st4" d="M85.6,43.8L85.6,43.8c0.1,0,0.2,0,0.2,0l0.3,0v0c0.3,0,0.4-0.2,0.6-0.4c0,0,0,0,0,0c0.3,0,0.5,0,0.7,0
				c0.2,0,0.4-0.2,0.4-0.4c0-0.2-0.2-0.4-0.4-0.4c-0.2,0-0.4,0-0.7,0c-0.1-0.1-0.2-0.2-0.3-0.3c0.2-0.1,0.3-0.3,0.3-0.6c0,0,0,0,0,0
				c0.2-0.1,0.4-0.2,0.6-0.2c0.2-0.1,0.3-0.4,0.2-0.6c-0.1-0.2-0.4-0.3-0.6-0.2c-0.1,0.1-0.3,0.1-0.5,0.2c-0.1-0.1-0.2-0.1-0.3-0.2
				c0,0-0.1,0-0.1,0c0-0.1,0-0.2,0-0.3c0,0,0-0.1,0-0.1c0.1-0.1,0.2-0.2,0.3-0.3c0.1-0.1,0.1-0.2,0.1-0.3c0-0.1-0.1-0.2-0.1-0.3
				c-0.2-0.2-0.5-0.1-0.6,0c-0.1,0.1-0.2,0.2-0.2,0.3c-0.2-0.1-0.4,0-0.6,0.1c0.4-0.3,0.7-0.7,0.8-1.2c0-0.1,0-0.3-0.1-0.4
				c0,0,0,0,0-0.1c0.1-0.2,0.1-0.5-0.1-0.6c-0.2-0.1-0.5-0.1-0.6,0.1c0,0,0,0,0,0c-0.1,0-0.1,0-0.2,0c0,0,0-0.1,0.1-0.1
				c0,0,0,0,0-0.1c0.3-0.1,0.5-0.1,0.7-0.2c0.1,0,0.2-0.1,0.3-0.2c0.1-0.1,0.1-0.2,0-0.3c-0.1-0.2-0.3-0.4-0.5-0.3
				c-0.2,0-0.4,0.1-0.7,0.1c-0.2-0.2-0.6-0.3-1-0.2c-0.1,0-0.6,0.1-0.8,0.1c-0.2,0-0.5,0-0.7,0c-1,0.1-2.1,0.4-3.2,1
				c-0.1,0.1-0.3,0.1-0.4,0.2c0.1-0.3,0.3-0.5,0.5-0.8c0.4-0.5,0.7-0.7,1.5-0.8c0.2,0,0.5,0,0.8,0c0.3,0,0.5,0,0.7,0
				c0.4,0,0.6-0.1,0.9-0.2c0.1-0.1,0.2-0.1,0.3-0.2c0.4,0,0.8,0,1.1,0c0.2,0,0.4-0.2,0.4-0.4s-0.2-0.4-0.4-0.4c-0.2,0-0.6,0-0.9,0
				c0,0,0-0.1,0-0.1c-0.2-0.4-0.7-0.6-1.1-0.4c-0.1,0-0.5,0-0.7,0c-0.4,0-0.8-0.1-1.1,0c-0.8,0.1-1.8,0.4-2.6,1.5
				c-0.4,0.5-0.6,1-0.9,1.5c-0.2,0.4-0.4,0.8-0.7,1.2c-0.3-0.1-0.9,0-1.1,0.2c-0.3,0.2-0.4,0.5-0.4,0.6c0,0,0,0-0.1,0c0,0,0,0,0,0
				c-0.3-0.5-0.7-1.1-1.4-1.6c-0.7-0.5-1.6-0.5-2.4-0.5l-0.6,0c-0.3,0-0.6,0-0.9-0.1c-0.6-0.1-1.1-0.2-1.6-0.2
				c-1.1,0-1.8,0.3-2.4,0.8c-0.5-3.4-3.1-7.3-5.2-8.3c-1.9-0.9-4.9-1.5-8.1-1.5c-2.4,0-4.8,0.3-7.1,0.9l-0.1-0.5l-0.2,0.6
				c0,0,0,0,0,0L43.4,27L43,29.2c0,0-0.1,0-0.1,0l-1.5-1.9l0,0l-2.5-6.1c0.5-0.5,0.8-1.2,0.7-2c-0.2-1.4-1.4-2.4-2.8-2.2
				c-1.4,0.2-2.4,1.4-2.2,2.8c0.1,1.3,1.2,2.2,2.5,2.2l2.4,8.6c-0.1,0-0.1,0.1-0.2,0.1c-0.5-0.1-0.9-0.3-1.2-0.3l-0.7,0l0.4,0.6
				c0.1,0.1,0.1,0.2,0.2,0.3c-6,2.7-11.9,6.1-11.6,11.3c0.1,2.2,0.8,4.2,1.3,5.8c0.3,1.1,0.6,2,0.6,2.5c0,0.1,0,0.2,0,0.3l0,0
				c-0.1,0.9-2.5,6.1-3.6,8.2l-0.2,0l0.6,1.8l0.1,0.2l0.2,0c0,0,0.1,0,0.2,0c0.3,0,1.2-0.1,2.9-0.5c0.6,2.7,1.7,5.3,3.3,7.6
				c-0.4,1.2,0.1,2.8,1.2,4.1c0.8,0.9,1.9,1.5,2.9,1.7c2.4,2.4,6.2,4.9,12,4.9l0,0c3.4,0,7-0.9,10.8-2.6c0.1-0.1,0.2-0.1,0.4-0.2
				l0.1-0.1c2-0.9,3.9-2.1,5.5-3.6c7.7-6.1,9-13.4,8.8-17.2c0.3-0.4,0.6-0.8,0.7-1.1c0.8-1.3,1.1-2.7,1.3-4.1c0.1-1,0.3-1.9,0.6-2.7
				c0.1-0.2,0.2-0.4,0.4-0.6c0.2,0.1,0.4,0.2,0.8,0.2c0.2,0,0.4,0,0.6-0.1c0.6-0.3,0.9-0.7,0.9-1.3c0.5-0.1,1,0,1.3,0.3
				c0.2,0.3,0.3,0.8,0.3,1.4c0,0.3,0,0.6,0.1,0.9c0.3,1.9,1.8,2,2.4,2l0,0c0.1,0,0.2,0,0.2,0c0.3,0.1,0.7-0.1,0.9-0.3
				c0.3,0,0.6,0,0.8,0h0c0.2,0,0.4-0.2,0.4-0.4c0-0.2-0.2-0.4-0.4-0.4c-0.2,0-0.4,0-0.7,0c-0.1-0.2-0.3-0.4-0.6-0.5
				c-0.2,0-0.3-0.1-0.5-0.1c-0.6-0.1-0.8-0.1-0.8-0.6c0-0.2,0-0.4-0.1-0.7c0.4,0.2,0.9,0.4,1.5,0.4c0.4,0,0.7-0.1,1.1-0.2
				c0.4-0.1,0.7-0.4,1-0.6c0.1,0,0.1-0.1,0.2-0.1c0.2-0.2,0.4-0.4,0.4-0.7c0.2-0.1,0.5-0.3,0.6-0.4c0.2-0.1,0.3-0.4,0.1-0.6
				c-0.1-0.1-0.3-0.2-0.4-0.2c0,0,0-0.1,0-0.1c0.2-0.1,0.5-0.3,0.6-0.4c0.2-0.1,0.3-0.4,0.1-0.6c-0.1-0.2-0.4-0.3-0.6-0.1
				c-0.2,0.1-0.4,0.2-0.6,0.3c-0.3-0.2-0.6-0.2-0.9,0c-0.3,0.2-0.5,0.3-0.9,0.3c-0.2,0-0.4,0-0.6-0.1c0.2,0,0.4-0.1,0.5-0.1
				C84.8,44.3,85.3,44.1,85.6,43.8z M83.8,38.2c-0.1,0.1-0.3,0.3-1,0.7l-0.1,0c-0.4,0.3-0.8,0.4-1.4,0.4c-0.2,0-0.4,0-0.7,0
				c-0.5-0.1-1.1-0.1-1.6-0.1c0.1-0.1,0.3-0.1,0.4-0.2c1-0.5,1.9-0.7,2.7-0.8c0.1,0,0.3,0,0.5,0c0.4,0,0.8,0,1.2-0.1
				C83.9,38.1,83.8,38.1,83.8,38.2z M83.1,46.1c0,0,0.1,0,0.1,0C83.1,46.1,83.1,46.1,83.1,46.1z M84,40.2c0.1-0.1,0.3-0.2,0.4-0.3
				C84.3,40,84.2,40.1,84,40.2z"/>
			<g>
				<g>
					<g>
						
							<linearGradient id="SVGID_00000127039581066330643840000013350909057860707989_" gradientUnits="userSpaceOnUse" x1="5.8555" y1="746.0224" x2="12.2426" y2="746.0224" gradientTransform="matrix(1 0 0 1 24.9448 -676.7715)">
							<stop  offset="0" style="stop-color:#9D9D9C"/>
							<stop  offset="1" style="stop-color:#9D9D9C;stop-opacity:0.2"/>
						</linearGradient>
						<path style="fill:url(#SVGID_00000127039581066330643840000013350909057860707989_);" d="M35.9,67.5c1.4,1.6,1.7,3.6,0.6,4.6
							c-1.1,0.9-3.1,0.4-4.5-1.1c-1.4-1.6-1.7-3.6-0.6-4.6C32.5,65.5,34.5,66,35.9,67.5z"/>
						<path class="st4" d="M35.2,72.9c-1.1,0-2.4-0.6-3.4-1.7c-1.5-1.7-1.8-4-0.6-5.1c0.4-0.4,1-0.6,1.6-0.6c1.1,0,2.4,0.6,3.4,1.7
							c0.7,0.8,1.2,1.8,1.3,2.7c0.1,1-0.1,1.8-0.7,2.4C36.4,72.7,35.8,72.9,35.2,72.9z M32.8,66.3c-0.4,0-0.8,0.1-1.1,0.4
							c-0.9,0.8-0.6,2.6,0.7,4.1c0.8,0.9,1.9,1.5,2.9,1.5c0.4,0,0.8-0.1,1.1-0.4c0.4-0.4,0.6-1,0.5-1.7c-0.1-0.8-0.5-1.6-1.2-2.3
							C34.8,66.8,33.7,66.3,32.8,66.3z"/>
					</g>
					<path class="st8" d="M32.6,71.6c1.2,0.7,2.7,1.3,3.5,0.6c0.6-0.5,0.5-1.8,0.3-2.7c0,0,0,0.1-0.1,0.1
						C35.3,71.4,33.7,71.7,32.6,71.6z"/>
				</g>
				
					<linearGradient id="SVGID_00000060019097815856189310000004787215552154494397_" gradientUnits="userSpaceOnUse" x1="3.3877" y1="716.4082" x2="48.2219" y2="749.0757" gradientTransform="matrix(1 0 0 1 24.9448 -676.7715)">
					<stop  offset="0" style="stop-color:#9D9D9C"/>
					<stop  offset="1" style="stop-color:#9D9D9C;stop-opacity:0.2"/>
				</linearGradient>
				<circle style="fill:url(#SVGID_00000060019097815856189310000004787215552154494397_);" cx="49" cy="54.7" r="21.9"/>
				
					<linearGradient id="SVGID_00000027588620312617733490000011688897197279145641_" gradientUnits="userSpaceOnUse" x1="17.3286" y1="732.3859" x2="24.1018" y2="747.2223" gradientTransform="matrix(1 0 0 1 24.9448 -676.7715)">
					<stop  offset="0" style="stop-color:#FFFFFF"/>
					<stop  offset="1" style="stop-color:#FFFFFF;stop-opacity:0"/>
				</linearGradient>
				<path style="fill:url(#SVGID_00000027588620312617733490000011688897197279145641_);" d="M32.2,67.3l-0.9-1.6
					c0,0,2.4,0.9,3.9,0.1c1.5-0.8,2.7-2.7,2.7-2.7s9.5-4.3,10.8-4.4c1.4-0.1,2.2,2.5,5.9,0.8c2.9-1.4,3.3-3.6,3.3-3.6s0,1.4,0,5.4
					c0.1,7.3-7.6,10.7-10.5,11.6c-3.1,1-7.4,0.8-11.6-1.9C34.9,70.5,33.7,69.5,32.2,67.3z"/>
				<g>
					<g>
						
							<linearGradient id="SVGID_00000043414939540481525240000010093390491493154984_" gradientUnits="userSpaceOnUse" x1="8.8614" y1="725.0399" x2="54.8599" y2="758.3723" gradientTransform="matrix(1 0 0 1 24.9448 -676.7715)">
							<stop  offset="0" style="stop-color:#9D9D9C"/>
							<stop  offset="1" style="stop-color:#9D9D9C;stop-opacity:0.2"/>
						</linearGradient>
						<path style="fill:url(#SVGID_00000043414939540481525240000010093390491493154984_);" d="M31.9,68.3c1.5,1.5,7,8.4,15.9,5.6
							c5.7-1.8,11.4-5.6,11.3-11.5C58.4,46,70.9,52.5,71.5,51.8s3.8,14.1-14.1,23.1C41.9,81.9,33.9,72.8,31.9,68.3z"/>
					</g>
					<g>
						<path class="st12" d="M31.9,68.3c0,0,0.2,0.1,0.5,0.4s0.7,0.7,1.3,1.2c0.6,0.5,1.3,1.1,2.1,1.7c0.4,0.3,0.9,0.6,1.4,0.9
							c0.5,0.3,1.1,0.6,1.7,0.8c1.2,0.5,2.6,0.9,4,0.9c1.5,0.1,3-0.1,4.6-0.6c1.6-0.5,3.1-1.1,4.6-1.9c1.5-0.8,2.9-1.8,4.1-3
							c1.2-1.2,2.1-2.7,2.4-4.4l0.1-0.6l0.1-0.3c0-0.1,0-0.2,0-0.3c0-0.4,0-0.8,0-1.2c0-0.8,0-1.7,0.1-2.5c0.1-1.6,0.5-3.2,1.1-4.6
							c0.3-0.7,0.7-1.3,1.2-1.9c0.5-0.5,1.1-1,1.7-1.3c1.2-0.6,2.5-0.7,3.6-0.7c1.1,0,2,0.2,2.7,0.4c0.7,0.2,1.3,0.4,1.7,0.4
							c0.2,0,0.4,0.1,0.5,0.1c0.1,0,0.1,0,0.1,0s0,0.1-0.1,0.1c-0.1,0-0.3,0-0.5,0c-0.4-0.1-1-0.2-1.7-0.3c-0.7-0.1-1.7-0.3-2.7-0.3
							c-1,0-2.2,0.1-3.4,0.7c-0.6,0.3-1.1,0.7-1.6,1.2c-0.5,0.5-0.9,1.1-1.2,1.8c-0.6,1.3-0.9,2.9-1.1,4.5c-0.1,0.8-0.1,1.6-0.1,2.5
							c0,0.4,0,0.8,0,1.3c0,0.1,0,0.2,0,0.3l-0.1,0.3L59,64.5c-0.4,1.7-1.3,3.3-2.6,4.6c-1.2,1.3-2.7,2.3-4.2,3.1
							c-1.5,0.8-3.1,1.5-4.7,1.9c-1.6,0.5-3.2,0.7-4.7,0.6c-1.5-0.1-2.9-0.5-4.2-1c-1.2-0.5-2.2-1.2-3.1-1.8
							c-0.9-0.6-1.5-1.3-2.1-1.8c-0.5-0.5-0.9-1-1.2-1.3C32,68.4,31.9,68.3,31.9,68.3z"/>
					</g>
					<g>
						<path class="st4" d="M31.9,68.3c0,0,0.2,0.1,0.5,0.4c0.3,0.3,0.7,0.7,1.3,1.2s1.3,1.1,2.1,1.7c0.9,0.6,1.9,1.2,3.1,1.6
							c1.2,0.5,2.5,0.8,4,0.9c0.7,0,1.5,0,2.2-0.1c0.8-0.1,1.5-0.3,2.3-0.5c1.5-0.5,3.1-1.1,4.5-1.9c1.5-0.8,2.9-1.8,4-3.1
							c1.1-1.2,2-2.7,2.3-4.3c0.1-0.4,0.1-0.8,0.1-1.2c0-0.4,0-0.8,0-1.2c0-0.8,0-1.7,0.1-2.5c0.1-1.6,0.5-3.2,1.2-4.6
							c0.3-0.7,0.8-1.3,1.3-1.8c0.5-0.5,1.1-0.9,1.7-1.2c1.2-0.6,2.5-0.7,3.5-0.6c1.1,0.1,2,0.2,2.7,0.4c0.7,0.2,1.3,0.3,1.7,0.4
							c0.2,0,0.4,0.1,0.5,0.1c0.1,0,0.1,0,0.1,0s0,0-0.1,0.1c-0.1,0-0.3,0-0.5,0c-0.4-0.1-1-0.2-1.7-0.3c-0.7-0.1-1.7-0.3-2.7-0.3
							c-1,0-2.2,0.1-3.4,0.7c-1.1,0.5-2.1,1.6-2.7,2.9c-0.6,1.3-0.9,2.8-1,4.4c-0.1,0.8-0.1,1.6-0.1,2.4c0,0.4,0,0.8,0,1.3
							c0,0.4-0.1,0.9-0.1,1.3c-0.3,1.8-1.2,3.4-2.4,4.7c-1.2,1.3-2.7,2.3-4.2,3.2c-1.5,0.8-3.1,1.5-4.7,1.9
							c-0.8,0.2-1.6,0.4-2.4,0.5c-0.8,0.1-1.6,0.1-2.3,0.1c-1.5-0.1-2.9-0.5-4.1-1c-1.2-0.5-2.2-1.2-3.1-1.8
							c-0.9-0.6-1.5-1.3-2.1-1.8c-0.5-0.5-0.9-1-1.2-1.3C32,68.4,31.9,68.3,31.9,68.3z"/>
					</g>
				</g>
				<g>
					<g>
						
							<ellipse transform="matrix(0.974 -0.2266 0.2266 0.974 -11.6726 15.9709)" class="st8" cx="63.7" cy="58.8" rx="2.4" ry="3.9"/>
					</g>
				</g>
				<g>
					<g>
						<g>
							
								<linearGradient id="SVGID_00000074401898379985008700000009575149518565743013_" gradientUnits="userSpaceOnUse" x1="36.2506" y1="734.8754" x2="41.3218" y2="734.8754" gradientTransform="matrix(1 0 0 1 24.9448 -676.7715)">
								<stop  offset="0" style="stop-color:#9D9D9C"/>
								<stop  offset="1" style="stop-color:#9D9D9C;stop-opacity:0.2"/>
							</linearGradient>
							<path style="fill:url(#SVGID_00000074401898379985008700000009575149518565743013_);" d="M66.1,57.6c0.5,2.1-0.2,4.1-1.5,4.4
								c-1.3,0.3-2.8-1.2-3.3-3.3c-0.5-2.1,0.2-4.1,1.5-4.4C64.1,54,65.6,55.4,66.1,57.6z"/>
							<path class="st4" d="M64.3,62.2c-1.3,0-2.6-1.5-3.1-3.5c-0.5-2.2,0.2-4.3,1.6-4.6c0.1,0,0.3,0,0.4,0c1.3,0,2.6,1.5,3.1,3.5
								c0.5,2.2-0.2,4.3-1.6,4.6C64.5,62.1,64.4,62.2,64.3,62.2z M63.2,54.4c-0.1,0-0.2,0-0.3,0c-1.2,0.3-1.8,2.2-1.4,4.2
								c0.4,1.8,1.6,3.2,2.7,3.2c0.1,0,0.2,0,0.3,0c1.2-0.3,1.8-2.2,1.4-4.2C65.5,55.8,64.3,54.4,63.2,54.4z"/>
						</g>
						<g>
							
								<linearGradient id="SVGID_00000162317097675463450640000012558432384584412289_" gradientUnits="userSpaceOnUse" x1="36.8036" y1="734.678" x2="41.8748" y2="734.678" gradientTransform="matrix(1 0 0 1 24.9448 -676.7715)">
								<stop  offset="0" style="stop-color:#9D9D9C"/>
								<stop  offset="1" style="stop-color:#9D9D9C;stop-opacity:0.2"/>
							</linearGradient>
							<path style="fill:url(#SVGID_00000162317097675463450640000012558432384584412289_);" d="M66.7,57.4c0.5,2.1-0.2,4.1-1.5,4.4
								c-1.3,0.3-2.8-1.2-3.3-3.3c-0.5-2.1,0.2-4.1,1.5-4.4C64.7,53.8,66.2,55.2,66.7,57.4z"/>
							<path class="st4" d="M64.8,62c-1.3,0-2.6-1.5-3.1-3.5c-0.5-2.2,0.2-4.3,1.6-4.6c0.1,0,0.3,0,0.4,0c1.3,0,2.6,1.5,3.1,3.5
								c0.5,2.2-0.2,4.3-1.6,4.6C65.1,61.9,65,62,64.8,62z M63.7,54.2c-0.1,0-0.2,0-0.3,0c-1.2,0.3-1.8,2.2-1.4,4.2
								c0.4,1.8,1.6,3.2,2.7,3.2c0.1,0,0.2,0,0.3,0c1.2-0.3,1.8-2.2,1.4-4.2C66.1,55.6,64.9,54.2,63.7,54.2z"/>
						</g>
						
							<linearGradient id="SVGID_00000097458579656958765530000011244809926217099709_" gradientUnits="userSpaceOnUse" x1="37.0695" y1="732.1497" x2="41.6421" y2="737.4938" gradientTransform="matrix(1 0 0 1 24.9448 -676.7715)">
							<stop  offset="0" style="stop-color:#9D9D9C"/>
							<stop  offset="1" style="stop-color:#9D9D9C;stop-opacity:0.2"/>
						</linearGradient>
						<path style="fill:url(#SVGID_00000097458579656958765530000011244809926217099709_);" d="M66.2,57.5c0.4,1.7-0.1,3.3-1.2,3.6
							s-2.3-1-2.7-2.7s0.1-3.3,1.2-3.6C64.6,54.6,65.8,55.8,66.2,57.5z"/>
						<path class="st8" d="M65.3,56.2c0.2,0,0.4,0,0.4,0s-0.1-0.4-0.4-0.8c-0.5-0.5-1.1-0.8-1.7-0.7c-1.1,0.2-1.6,1.9-1.2,3.6
							C62.4,58.3,63.4,54.2,65.3,56.2z"/>
						<g>
							
								<linearGradient id="SVGID_00000181805958463176324980000010209824510822859651_" gradientUnits="userSpaceOnUse" x1="38.6862" y1="734.644" x2="41.4863" y2="734.644" gradientTransform="matrix(1 0 0 1 24.9448 -676.7715)">
								<stop  offset="0" style="stop-color:#9D9D9C"/>
								<stop  offset="1" style="stop-color:#9D9D9C;stop-opacity:0.2"/>
							</linearGradient>
							<path style="fill:url(#SVGID_00000181805958463176324980000010209824510822859651_);" d="M66.3,57.4
								c-0.4-1.7-1.6-2.9-2.7-2.7c0.9,0.2,1.8,1.3,2.1,2.7c0.4,1.7-0.1,3.3-1.2,3.6c0,0,0,0,0,0c0.2,0,0.4,0,0.6,0
								C66.2,60.8,66.7,59.2,66.3,57.4z"/>
							<path class="st4" d="M64.8,61.2c-0.1,0-0.2,0-0.3,0c-0.1,0-0.1-0.1-0.1-0.2s0.1-0.2,0.1-0.2c1-0.2,1.5-1.7,1.1-3.4
								c-0.3-1.3-1.1-2.4-2-2.6c-0.1,0-0.1-0.1-0.1-0.2c0-0.1,0.1-0.2,0.1-0.2c0.1,0,0.2,0,0.3,0c1.1,0,2.2,1.2,2.6,2.9
								c0.4,1.8-0.2,3.5-1.3,3.8C65,61.2,64.9,61.2,64.8,61.2z M64.7,55.1c0.5,0.5,1,1.3,1.2,2.2c0.3,1.4,0.1,2.7-0.6,3.4
								c0.8-0.4,1.2-1.8,0.8-3.3C65.9,56.4,65.3,55.6,64.7,55.1z"/>
						</g>
						<path class="st4" d="M64.8,61.2c-1.1,0-2.2-1.2-2.6-2.9c-0.4-1.8,0.2-3.5,1.3-3.8c0.1,0,0.2,0,0.3,0c1.1,0,2.2,1.2,2.6,2.9
							c0.4,1.8-0.2,3.5-1.3,3.8C65,61.2,64.9,61.2,64.8,61.2z M63.9,54.9c-0.1,0-0.2,0-0.2,0c-1,0.2-1.5,1.7-1.1,3.4
							c0.3,1.5,1.3,2.6,2.2,2.6c0.1,0,0.2,0,0.2,0c1-0.2,1.5-1.7,1.1-3.4C65.8,56,64.8,54.9,63.9,54.9z"/>
					</g>
				</g>
				<path class="st8" d="M64.1,38.6c-0.1,0.1-0.3,0.2-0.4,0.3C63.8,38.8,63.9,38.7,64.1,38.6c-0.4-0.4-0.8-0.7-1.1-1
					c-0.2,0.2-0.4,0.5-0.6,0.8c-0.2,0.3-0.2,0.7,0.1,1c0.2,0.1,0.4,0.2,0.6,0.1c-0.3,0.3-0.6,0.6-1,0.7c-0.4,0.1-0.5,0.5-0.4,0.9
					c0.1,0.3,0.4,0.4,0.6,0.4c0,0,0.1,0,0.1,0c-0.2,0.2-0.3,0.6-0.1,0.9c0.1,0.2,0.3,0.3,0.6,0.3c0.1,0,0.3,0,0.4-0.1l0,0
					c0,0.2,0,0.4,0.1,0.6c0.1,0.2,0.4,0.3,0.6,0.3c0.1,0,0.3,0,0.4-0.1c0.2-0.1,0.4-0.3,0.6-0.4c0,0,0,0,0.1,0
					c-0.1,0.1-0.3,0.2-0.4,0.3c-0.3,0.3-0.7,0.6-1,0.6c-0.4,0-0.7,0.3-0.7,0.7c0,0.4,0.3,0.7,0.7,0.7c0,0,0,0,0,0
					c0.7,0,1.3-0.5,1.9-1c0.2-0.2,0.4-0.3,0.6-0.4c0.3-0.2,0.5-0.3,0.8-0.4c-1.2,1-2.4,1.7-3.7,2.3c-0.4,0.2-0.5,0.6-0.4,0.9
					c0.1,0.3,0.4,0.4,0.6,0.4c0.1,0,0.2,0,0.3-0.1c0.3-0.1,0.5-0.2,0.8-0.4c0,0.2,0,0.4,0.2,0.5c0,0,0.1,0.1,0.1,0.1
					c-0.2,0-0.3,0-0.5,0c-0.4-0.1-0.7,0.2-0.8,0.6c-0.1,0.4,0.2,0.7,0.6,0.8c0.1,0,0.2,0,0.4,0c0.9,0,1.9-0.5,2.7-1.1
					c-0.5,0.7-1.1,1.2-1.7,1.4c-0.4,0.1-0.6,0.5-0.5,0.8c0.1,0.3,0.4,0.5,0.7,0.5c0.1,0,0.1,0,0.2,0c0.6-0.1,1.1-0.4,1.5-0.8
					c-0.5,0.8-1.2,1.4-2,1.6c-0.4,0.1-0.6,0.5-0.5,0.8c0.1,0.3,0.4,0.5,0.7,0.5c0.1,0,0.1,0,0.2,0c1.9-0.5,2.8-2.1,3.7-3.6
					c-0.6,1.3-1.3,2.6-2.5,3.2c-0.3,0.2-0.5,0.6-0.3,0.9c0.1,0.2,0.4,0.4,0.6,0.4c0.1,0,0.2,0,0.3-0.1c1.1-0.6,1.9-1.6,2.5-2.7
					c-0.2,0.5-0.5,0.9-0.7,1.4c0,0.1-0.1,0.1-0.1,0.2c-0.1,0.2-0.4,0.7-0.6,0.9c-0.3,0-0.6,0.2-0.7,0.5c-0.1,0.4,0.1,0.7,0.5,0.8
					c0,0,0.1,0,0.1,0c0,0-0.1,0-0.1,0.1c-0.4,0.1-0.5,0.5-0.4,0.9c0.1,0.3,0.4,0.4,0.6,0.4c0.1,0,0.2,0,0.3-0.1
					c0.1,0,0.1-0.1,0.2-0.1c-0.4,0.3-0.8,0.5-1.2,0.7c-0.3,0.2-0.5,0.6-0.3,0.9c0.1,0.3,0.4,0.4,0.6,0.4c0.1,0,0.2,0,0.3-0.1
					c1-0.4,1.8-1.1,2.4-1.8c0-0.4,0-0.8,0-1.2C71,48.3,68.3,42.6,64.1,38.6z"/>
				<g class="st0">
					<path class="st17" d="M58.7,55.3c2.3-0.3,4-11.9,5.4-16.1c-4-4.9-8.3-6.4-15.1-6.4c-12.1,0-21.9,9.8-21.9,21.9
						c0,3.4,0.8,6.7,2.2,9.6c3.1-0.4,8.4-2.1,13.1-4C49.3,57.5,55.8,55.6,58.7,55.3z"/>
				</g>
				<path class="st4" d="M46.8,77.8L46.8,77.8c-10.5,0-14.6-8.2-15.2-9.3c-3.2-4-4.8-8.8-4.8-13.8c0-12.3,10-22.2,22.2-22.2
					c11,0,20.4,8.2,22,19.1c0.1,0,0.3,0,0.3,0c0.1,0,0.1-0.1,0.2-0.1c0.3,0,0.5,0.4,0.5,0.6c0.7,2,1.3,11.6-8.5,19.4
					c-1.7,1.4-3.5,2.6-5.5,3.6L57.9,75c-0.1,0.1-0.2,0.1-0.4,0.2C53.8,76.9,50.1,77.8,46.8,77.8z M49,33.1
					c-11.9,0-21.5,9.7-21.5,21.5c0,4.9,1.6,9.6,4.7,13.4l0,0.1c0.4,0.9,4.4,8.9,14.6,8.9l0,0c3.3,0,6.8-0.9,10.5-2.5
					c0.1-0.1,0.2-0.1,0.3-0.2l0.1-0.1c2-0.9,3.8-2,5.4-3.5c9.8-7.8,8.8-17.3,8.3-18.7c-0.1,0-0.1,0-0.1,0c-0.2,0-0.4,0-0.7-0.1
					l-0.2-0.1l0-0.2C68.9,41.2,59.7,33.1,49,33.1z"/>
				<g>
					<g>
						
							<linearGradient id="SVGID_00000137832578022936776890000012226240580436266402_" gradientUnits="userSpaceOnUse" x1="38.5597" y1="718.0764" x2="50.9262" y2="718.0764" gradientTransform="matrix(1 0 0 1 24.9448 -676.7715)">
							<stop  offset="0" style="stop-color:#9D9D9C"/>
							<stop  offset="1" style="stop-color:#9D9D9C;stop-opacity:0.2"/>
						</linearGradient>
						<path style="fill:url(#SVGID_00000137832578022936776890000012226240580436266402_);" d="M64.2,43.1c-0.2,0-0.4-0.1-0.6-0.3
							c-0.2-0.3-0.1-0.8,0.2-1c0.2-0.1,0.4-0.3,0.6-0.4c1.5-1,2.6-1.8,4.7-1.9c1.2-0.1,2.3,0.1,3.4,0.3c0.9,0.1,1.8,0.3,2.7,0.3
							c0.4,0,0.7,0.3,0.7,0.7s-0.3,0.7-0.7,0.7c-1,0-2-0.1-2.9-0.3c-1.1-0.2-2.1-0.3-3.1-0.2c-1.7,0.1-2.6,0.7-4,1.7
							c-0.2,0.1-0.4,0.3-0.6,0.4C64.5,43,64.3,43.1,64.2,43.1z"/>
						<path class="st4" d="M64.2,43.3c-0.3,0-0.6-0.1-0.7-0.4c-0.3-0.4-0.2-0.9,0.2-1.2c0.2-0.1,0.4-0.3,0.6-0.4
							c1.5-1,2.7-1.8,4.8-1.9c1.2-0.1,2.3,0.1,3.4,0.3c0.9,0.1,1.8,0.3,2.7,0.3c0.5,0,0.9,0.4,0.9,0.9c0,0.5-0.4,0.9-0.9,0.9
							c-1,0-2-0.1-2.9-0.3c-1.1-0.2-2.1-0.3-3.1-0.2c-1.6,0.1-2.5,0.7-3.9,1.6c-0.2,0.1-0.4,0.3-0.6,0.4
							C64.5,43.2,64.4,43.3,64.2,43.3z M69.6,39.7c-0.2,0-0.4,0-0.5,0c-2,0.1-3.2,0.9-4.6,1.9c-0.2,0.1-0.4,0.3-0.6,0.4
							c-0.1,0.1-0.2,0.2-0.2,0.3s0,0.3,0.1,0.4c0.2,0.2,0.5,0.3,0.7,0.1c0.2-0.1,0.4-0.3,0.6-0.4c1.4-1,2.4-1.6,4.1-1.7
							c1.1-0.1,2.1,0.1,3.2,0.2c0.9,0.1,1.9,0.3,2.9,0.3c0.3,0,0.5-0.2,0.5-0.5s-0.2-0.5-0.5-0.5c-0.9,0-1.8-0.1-2.7-0.3
							C71.5,39.8,70.6,39.7,69.6,39.7z"/>
					</g>
					<g>
						<g>
							
								<linearGradient id="SVGID_00000100380522894330786380000015595530257466887611_" gradientUnits="userSpaceOnUse" x1="58.0007" y1="724.9609" x2="58.0007" y2="725.5227" gradientTransform="matrix(1 0 0 1 24.9448 -676.7715)">
								<stop  offset="0" style="stop-color:#9D9D9C"/>
								<stop  offset="1" style="stop-color:#9D9D9C;stop-opacity:0.2"/>
							</linearGradient>
							<path style="fill:url(#SVGID_00000100380522894330786380000015595530257466887611_);" d="M83.7,48.9
								C83.7,48.9,83.7,48.9,83.7,48.9c-0.3,0-0.8,0-1.1-0.1c-0.2,0-0.4,0-0.4,0c-0.2,0-0.3-0.2-0.3-0.3c0-0.2,0.2-0.3,0.3-0.3
								c0,0,0,0,0,0c0.1,0,0.2,0,0.5,0c0.3,0,0.8,0,1.1,0.1c0.2,0,0.3,0.2,0.3,0.4C84.1,48.7,83.9,48.9,83.7,48.9z"/>
							<path class="st4" d="M83.7,49L83.7,49c-0.3,0-0.7,0-1.1-0.1l-0.1,0c-0.2,0-0.3,0-0.3,0c-0.1,0-0.2,0-0.3-0.1
								s-0.1-0.2-0.1-0.3c0-0.2,0.2-0.4,0.4-0.4c0.1,0,0.3,0,0.5,0c0.3,0,0.8,0,1.1,0.1c0.2,0,0.4,0.2,0.4,0.4
								C84.2,48.8,84,49,83.7,49z M82.2,48.2c-0.1,0-0.3,0.1-0.3,0.3c0,0.1,0,0.1,0.1,0.2c0,0,0.1,0.1,0.2,0.1c0.1,0,0.2,0,0.3,0
								l0.1,0c0.4,0,0.8,0,1.1,0.1l0,0.1v-0.1c0.1,0,0.3-0.1,0.3-0.3c0-0.1-0.1-0.3-0.3-0.3c-0.3,0-0.8,0-1.1-0.1
								C82.4,48.2,82.2,48.2,82.2,48.2z"/>
						</g>
						<g>
							
								<linearGradient id="SVGID_00000081617913252198099960000018151885180807298950_" gradientUnits="userSpaceOnUse" x1="39.6051" y1="729.7094" x2="63.6915" y2="721.7094" gradientTransform="matrix(1 0 0 1 24.9448 -676.7715)">
								<stop  offset="0" style="stop-color:#9D9D9C"/>
								<stop  offset="1" style="stop-color:#9D9D9C;stop-opacity:0.2"/>
							</linearGradient>
							<path style="fill:url(#SVGID_00000081617913252198099960000018151885180807298950_);" d="M68.4,57.3c-0.3,0-0.5-0.2-0.6-0.4
								c-0.2-0.3,0-0.8,0.3-0.9c2-0.9,3.3-2.9,3.7-3.6c0.7-1.1,0.9-2.2,1-3.5c0.2-1,0.3-2.1,0.7-3.1c0.5-1.2,2.2-2.4,3.8-2.7
								c1.1-0.2,2.1,0.1,2.8,0.8c0.6,0.7,0.7,1.6,0.7,2.3c0,0.3,0,0.5,0.1,0.7c0.1,0.7,0.4,0.7,1,0.8c0.1,0,0.3,0,0.5,0.1
								c0.4,0.1,0.6,0.4,0.5,0.8c-0.1,0.4-0.4,0.6-0.8,0.5c-0.1,0-0.2,0-0.3,0c-0.6-0.1-1.9-0.2-2.2-1.9c-0.1-0.3-0.1-0.6-0.1-0.9
								c0-0.6-0.1-1.2-0.3-1.5c-0.4-0.4-1.1-0.4-1.5-0.4c-1.2,0.2-2.5,1.2-2.8,1.9c-0.4,0.9-0.5,1.8-0.6,2.8c-0.2,1.3-0.4,2.7-1.2,4
								c-0.5,0.8-2,3.1-4.3,4.1C68.6,57.3,68.5,57.3,68.4,57.3z"/>
							<path class="st4" d="M68.4,57.4c-0.3,0-0.6-0.2-0.8-0.5c-0.1-0.2-0.1-0.4,0-0.7c0.1-0.2,0.2-0.4,0.5-0.5
								c1.9-0.9,3.2-2.9,3.6-3.5c0.6-1,0.8-2.2,1-3.4c0.2-1,0.3-2.1,0.7-3.1c0.5-1.3,2.3-2.5,3.9-2.8c1.2-0.2,2.2,0.1,2.9,0.8
								c0.7,0.7,0.7,1.7,0.8,2.5c0,0.3,0,0.5,0.1,0.7c0.1,0.5,0.2,0.6,0.9,0.6c0.1,0,0.3,0,0.5,0.1c0.5,0.1,0.8,0.6,0.7,1
								c-0.1,0.5-0.6,0.8-1,0.7c-0.1,0-0.1,0-0.2,0l0,0c-0.6-0.1-2.1-0.2-2.4-2.1c-0.1-0.3-0.1-0.6-0.1-0.9c0-0.5-0.1-1.1-0.3-1.4
								c-0.3-0.3-0.8-0.4-1.4-0.3c-1.2,0.2-2.4,1.1-2.6,1.8c-0.4,0.8-0.5,1.8-0.6,2.7c-0.2,1.4-0.4,2.8-1.3,4.1
								c-0.5,0.8-2,3.1-4.4,4.2C68.7,57.4,68.6,57.4,68.4,57.4z M78.1,43.2c-0.2,0-0.4,0-0.7,0.1c-1.6,0.3-3.2,1.4-3.7,2.6
								c-0.4,1-0.6,2-0.7,3c-0.2,1.3-0.4,2.5-1.1,3.6c-0.4,0.7-1.8,2.8-3.8,3.7c-0.1,0.1-0.2,0.2-0.3,0.3c0,0.1,0,0.3,0,0.4
								c0.1,0.3,0.4,0.4,0.7,0.3c2.3-1,3.7-3.3,4.2-4.1c0.8-1.3,1-2.6,1.2-4c0.2-1,0.3-1.9,0.7-2.8c0.3-0.7,1.6-1.7,2.9-2
								c0.7-0.1,1.3,0,1.7,0.4c0.3,0.4,0.4,1,0.4,1.6c0,0.3,0,0.6,0.1,0.9c0.3,1.6,1.5,1.7,2.1,1.8l0,0c0.1,0,0.2,0,0.3,0
								c0.3,0.1,0.6-0.1,0.6-0.4c0-0.1,0-0.3-0.1-0.4c-0.1-0.1-0.2-0.2-0.3-0.2c-0.1,0-0.3,0-0.4-0.1c-0.6-0.1-1-0.1-1.2-0.9
								c0-0.2-0.1-0.5-0.1-0.8c0-0.7-0.1-1.6-0.7-2.2C79.6,43.4,78.9,43.2,78.1,43.2z"/>
						</g>
						<g class="st21">
							<path class="st8" d="M80.9,46.7c0-0.2,0-0.3,0-0.5c0-0.7-0.1-1.7-0.7-2.3c-0.7-0.7-1.6-1-2.8-0.8c-1.6,0.3-3.3,1.5-3.8,2.7
								c-0.1,0.3-0.2,0.5-0.3,0.8c0.1-0.1,0.3-0.3,0.4-0.4c0.4-0.4,0.8-0.8,1.3-1.1c0.7-0.5,1.3-0.6,2.1-0.5c0.2,0,0.3-0.1,0.5-0.1
								c0.5-0.1,1.1-0.1,1.5,0.4c0.3,0.3,0.3,0.9,0.3,1.5c0,0.1,0,0.3,0,0.4C79.9,46.8,80.5,46.8,80.9,46.7z"/>
						</g>
					</g>
					<g>
						<g>
							
								<linearGradient id="SVGID_00000101796321401017015980000016385863201125157289_" gradientUnits="userSpaceOnUse" x1="59.9459" y1="721.1924" x2="60.2054" y2="721.6683" gradientTransform="matrix(1 0 0 1 24.9448 -676.7715)">
								<stop  offset="0" style="stop-color:#9D9D9C"/>
								<stop  offset="1" style="stop-color:#9D9D9C;stop-opacity:0.2"/>
							</linearGradient>
							<path style="fill:url(#SVGID_00000101796321401017015980000016385863201125157289_);" d="M84.3,45.4c-0.1,0-0.2-0.1-0.3-0.2
								c-0.1-0.2-0.1-0.4,0.1-0.5c0.1,0,0.2-0.1,0.4-0.2c0.3-0.2,0.7-0.4,0.9-0.5c0.2-0.1,0.4-0.1,0.5,0.1c0.1,0.2,0.1,0.4-0.1,0.5
								c-0.2,0.2-0.7,0.4-1,0.6c-0.2,0.1-0.3,0.2-0.4,0.2C84.5,45.4,84.4,45.4,84.3,45.4z"/>
							<path class="st4" d="M84.3,45.5c-0.2,0-0.3-0.1-0.4-0.2c-0.1-0.2-0.1-0.5,0.1-0.6c0.1,0,0.2-0.1,0.4-0.2
								c0.3-0.1,0.7-0.4,1-0.5c0.2-0.1,0.5-0.1,0.6,0.1c0.1,0.2,0.1,0.5-0.1,0.6c-0.3,0.2-0.7,0.4-1,0.6l-0.1,0
								c-0.1,0.1-0.3,0.1-0.3,0.2C84.5,45.5,84.4,45.5,84.3,45.5z M85.7,44c0,0-0.1,0-0.1,0c-0.2,0.2-0.7,0.4-1,0.5
								c-0.2,0.1-0.4,0.2-0.4,0.2c-0.1,0.1-0.2,0.2-0.1,0.4c0.1,0.1,0.2,0.2,0.4,0.1c0,0,0.2-0.1,0.3-0.2l0.1,0
								c0.3-0.2,0.7-0.4,1-0.6c0.1-0.1,0.2-0.2,0.1-0.4C85.9,44.1,85.8,44,85.7,44z"/>
						</g>
						<g>
							
								<linearGradient id="SVGID_00000030451429403733626300000014974990605833609628_" gradientUnits="userSpaceOnUse" x1="39.1675" y1="728.3949" x2="63.2562" y2="720.3942" gradientTransform="matrix(1 0 0 1 24.9448 -676.7715)">
								<stop  offset="0" style="stop-color:#9D9D9C"/>
								<stop  offset="1" style="stop-color:#9D9D9C;stop-opacity:0.2"/>
							</linearGradient>
							<path style="fill:url(#SVGID_00000030451429403733626300000014974990605833609628_);" d="M68.9,55.4c-0.3,0-0.5-0.2-0.6-0.4
								c-0.1-0.4,0-0.8,0.4-0.9c1.1-0.5,2.2-2.4,2.5-3.9c0.1-0.4,0.2-0.8,0.2-1.2c0.3-1.6,0.6-3.2,1.6-4.5c1.6-2.1,3.5-2.6,5.7-1.7
								c0.8,0.3,1.3,0.8,1.9,1.2c0.9,0.7,1.5,1.3,2.7,0.9c0.1,0,0.4-0.2,0.5-0.3c0.1-0.1,0.2-0.1,0.2-0.2c0.3-0.2,0.7-0.1,1,0.2
								c0.2,0.3,0.1,0.7-0.2,1c-0.1,0-0.1,0.1-0.2,0.1c-0.3,0.2-0.6,0.4-1,0.5c-1.9,0.5-3-0.4-4-1.2c-0.5-0.4-0.9-0.8-1.5-1
								c-1.7-0.7-2.9-0.3-4.1,1.3c-0.9,1.1-1.1,2.5-1.4,3.9c-0.1,0.4-0.2,0.8-0.2,1.2c-0.3,1.6-1.5,4.1-3.4,4.9
								C69,55.4,69,55.4,68.9,55.4z"/>
							<path class="st4" d="M68.9,55.5c-0.4,0-0.7-0.2-0.8-0.5c-0.2-0.4,0-0.9,0.5-1.1c1-0.4,2.1-2.3,2.4-3.8
								c0.1-0.4,0.2-0.8,0.2-1.2c0.3-1.6,0.6-3.2,1.7-4.6c1.1-1.5,2.4-2.2,3.9-2.2c0.7,0,1.4,0.2,2.1,0.5c0.8,0.3,1.4,0.8,1.9,1.3
								c0.7,0.6,1.2,1,1.9,1c0.2,0,0.4,0,0.6-0.1c0.1,0,0.4-0.2,0.5-0.3c0.1-0.1,0.2-0.1,0.2-0.2c0.4-0.3,0.9-0.2,1.2,0.2
								c0.3,0.4,0.2,0.9-0.2,1.2c-0.1,0-0.1,0.1-0.2,0.1c-0.3,0.2-0.6,0.5-1,0.6c-0.4,0.1-0.8,0.2-1.1,0.2c-1.3,0-2.2-0.8-3-1.4
								c-0.5-0.4-0.9-0.8-1.5-1c-0.5-0.2-1-0.3-1.4-0.3c-0.9,0-1.7,0.5-2.5,1.5c-0.8,1.1-1.1,2.4-1.3,3.8c-0.1,0.4-0.2,0.8-0.2,1.2
								c-0.3,1.6-1.6,4.2-3.5,5C69.1,55.5,69,55.5,68.9,55.5z M76.7,42.5c-1.3,0-2.5,0.7-3.6,2.1c-1,1.3-1.3,2.9-1.6,4.4
								c-0.1,0.4-0.1,0.8-0.2,1.2c-0.3,1.6-1.4,3.6-2.6,4c-0.3,0.1-0.4,0.4-0.3,0.7c0.1,0.3,0.4,0.4,0.7,0.3
								c1.8-0.7,2.9-3.3,3.2-4.8c0.1-0.4,0.2-0.8,0.2-1.2c0.3-1.5,0.5-2.9,1.4-4c0.9-1.1,1.8-1.7,2.8-1.7c0.5,0,1,0.1,1.5,0.3
								c0.6,0.2,1,0.6,1.5,1c0.8,0.7,1.6,1.3,2.8,1.3c0.3,0,0.7,0,1-0.1c0.3-0.1,0.7-0.3,0.9-0.5c0.1-0.1,0.1-0.1,0.2-0.1
								c0.2-0.2,0.3-0.5,0.1-0.7c-0.2-0.2-0.5-0.3-0.7-0.1c-0.1,0-0.1,0.1-0.2,0.1c-0.3,0.2-0.5,0.3-0.6,0.4
								c-0.3,0.1-0.5,0.1-0.7,0.1c-0.9,0-1.4-0.5-2.1-1.1c-0.5-0.4-1.1-0.9-1.8-1.2C78,42.6,77.3,42.5,76.7,42.5z"/>
						</g>
						<path class="st8" d="M80.6,44c-0.5-0.4-1.1-0.9-1.9-1.2c-2.2-0.9-4.1-0.4-5.7,1.7c-1.1,1.4-1.4,3-1.6,4.5
							c-0.1,0.4-0.1,0.8-0.2,1.2c-0.2,0.7-2,3.2-2.4,3.9c1.2,1,3.1-2.6,3.6-3.1c0.1-0.2,0.1-0.3,0.1-0.5c0.1-0.4,0.2-0.8,0.2-1.2
							c0.3-1.5,0.5-2.8,1.4-3.9c1.2-1.6,2.5-1.9,4.1-1.3c0.2,0.1,0.5,0.2,0.7,0.4l1.8-0.3C80.7,44,80.6,44,80.6,44z"/>
					</g>
					<g>
						<g>
							
								<linearGradient id="SVGID_00000011736932380106969410000005005425117442173107_" gradientUnits="userSpaceOnUse" x1="60.2686" y1="719.7108" x2="60.4847" y2="720.4459" gradientTransform="matrix(1 0 0 1 24.9448 -676.7715)">
								<stop  offset="0" style="stop-color:#9D9D9C"/>
								<stop  offset="1" style="stop-color:#9D9D9C;stop-opacity:0.2"/>
							</linearGradient>
							<path style="fill:url(#SVGID_00000011736932380106969410000005005425117442173107_);" d="M84.7,44.1c-0.1,0-0.2-0.1-0.3-0.2
								c-0.1-0.2-0.1-0.4,0.1-0.5c0.1,0,0.2-0.1,0.4-0.2c0.3-0.2,0.7-0.4,0.9-0.5c0.2-0.1,0.4-0.1,0.5,0.1c0.1,0.2,0.1,0.4-0.1,0.5
								c-0.2,0.2-0.7,0.4-1,0.6C85,43.9,84.9,44,84.8,44C84.8,44.1,84.7,44.1,84.7,44.1z"/>
							<path class="st4" d="M84.7,44.2c-0.2,0-0.3-0.1-0.4-0.2c-0.1-0.2-0.1-0.5,0.1-0.6c0.1,0,0.2-0.1,0.4-0.2
								c0.3-0.1,0.7-0.4,1-0.5c0.2-0.1,0.5-0.1,0.6,0.1c0.1,0.2,0.1,0.5-0.1,0.6c-0.2,0.2-0.7,0.4-1,0.6l-0.1,0
								c-0.1,0.1-0.3,0.1-0.3,0.2C84.8,44.2,84.7,44.2,84.7,44.2z M86,42.7c0,0-0.1,0-0.1,0c-0.2,0.2-0.7,0.4-1,0.5
								c-0.2,0.1-0.4,0.2-0.4,0.2c-0.1,0.1-0.2,0.2-0.1,0.4c0.1,0.1,0.2,0.2,0.4,0.1c0,0,0.2-0.1,0.3-0.2l0.1,0
								c0.3-0.2,0.7-0.4,1-0.6c0.1-0.1,0.2-0.2,0.1-0.4C86.2,42.8,86.1,42.7,86,42.7z"/>
						</g>
						<g>
							
								<linearGradient id="SVGID_00000174590997090392646220000006929853095165170620_" gradientUnits="userSpaceOnUse" x1="36.3585" y1="729.2163" x2="69.5151" y2="716.6454" gradientTransform="matrix(1 0 0 1 24.9448 -676.7715)">
								<stop  offset="0" style="stop-color:#9D9D9C"/>
								<stop  offset="1" style="stop-color:#9D9D9C;stop-opacity:0.2"/>
							</linearGradient>
							<path style="fill:url(#SVGID_00000174590997090392646220000006929853095165170620_);" d="M68.9,54c-0.1,0-0.2,0-0.3,0
								c-0.4-0.1-0.6-0.5-0.5-0.8c0.1-0.3,0.4-0.5,0.7-0.5c0.2-0.2,0.4-0.7,0.6-0.9c0-0.1,0.1-0.2,0.1-0.2c0.8-1.4,1.6-3,2.2-4.6
								c0.7-1.7,1.4-3.2,3.4-4.1c1.9-0.9,3.7-1.1,5.2-0.4c0.2,0.1,0.5,0.2,0.8,0.3c1.4,0.7,2.4,1,3.2,0.4c0.3-0.2,0.7-0.1,1,0.2
								c0.2,0.3,0.1,0.7-0.2,1c-1.6,1.1-3.3,0.3-4.6-0.3c-0.2-0.1-0.5-0.2-0.7-0.3c-1.5-0.6-3-0.1-4.1,0.4c-1.4,0.7-2,1.6-2.8,3.4
								c-0.7,1.6-1.5,3.3-2.3,4.7c0,0.1-0.1,0.1-0.1,0.2C70.3,53,69.7,54,68.9,54z"/>
							<path class="st4" d="M68.9,54.2c-0.1,0-0.2,0-0.3,0c-0.5-0.1-0.7-0.6-0.6-1.1c0.1-0.4,0.4-0.6,0.8-0.6
								c0.2-0.2,0.4-0.6,0.5-0.8c0.1-0.1,0.1-0.2,0.1-0.2c0.8-1.4,1.6-3,2.2-4.6c0.7-1.7,1.5-3.2,3.5-4.2c1.9-0.9,3.8-1.1,5.4-0.4
								c0.2,0.1,0.5,0.2,0.8,0.3c0.8,0.4,1.6,0.7,2.2,0.7c0.3,0,0.6-0.1,0.9-0.3c0.4-0.3,0.9-0.2,1.2,0.2c0.3,0.4,0.2,0.9-0.2,1.2
								c-0.6,0.4-1.2,0.6-1.8,0.6c-1.1,0-2.1-0.5-3-0.9c-0.2-0.1-0.5-0.2-0.7-0.3c-1.1-0.5-2.5-0.3-4,0.4c-1.4,0.7-2,1.6-2.7,3.3
								c-0.7,1.6-1.5,3.3-2.3,4.8c0,0.1-0.1,0.1-0.1,0.2C70.4,53.1,69.8,54.2,68.9,54.2z M68.8,52.8c-0.3,0-0.5,0.2-0.5,0.4
								c-0.1,0.3,0.1,0.6,0.4,0.6c0.1,0,0.2,0,0.2,0c0.7,0,1.2-1,1.5-1.5c0.1-0.1,0.1-0.2,0.1-0.2c0.8-1.5,1.6-3.1,2.3-4.7
								c0.8-1.8,1.3-2.8,2.8-3.5c1.5-0.8,3-0.9,4.2-0.4c0.2,0.1,0.5,0.2,0.7,0.3c0.9,0.4,1.8,0.9,2.8,0.9c0.6,0,1.1-0.2,1.6-0.5
								c0.2-0.2,0.3-0.5,0.1-0.7c-0.2-0.2-0.5-0.3-0.7-0.1c-0.3,0.2-0.7,0.3-1.1,0.3c-0.7,0-1.5-0.3-2.4-0.8
								c-0.3-0.1-0.5-0.2-0.8-0.3c-1.5-0.6-3.3-0.5-5.1,0.4c-1.9,1-2.7,2.4-3.3,4.1c-0.6,1.6-1.4,3.2-2.2,4.6c0,0.1-0.1,0.1-0.1,0.2
								c-0.2,0.4-0.4,0.8-0.6,0.9L68.8,52.8L68.8,52.8L68.8,52.8L68.8,52.8L68.8,52.8z"/>
						</g>
						<path class="st8" d="M81.1,42.7c-0.3-0.1-0.5-0.2-0.8-0.3c-1.6-0.7-3.4-0.5-5.2,0.4c-1.9,0.9-2.7,2.3-3.3,3.9
							c0.1-0.2,0.3-0.4,0.4-0.5c0.4-0.4,0.8-0.8,1.3-1.1c0.6-0.4,1.3-1,1.9-1.3c0.7-0.3,1.6-0.5,2.4-0.5c0.6-0.1,1.3,0,2,0.3
							c0.2,0.1,0.5,0.2,0.7,0.3c0.1,0,0.1,0.1,0.2,0.1c1,0.1,2.2,0.1,2.9-0.6C82.9,43.5,82.1,43.2,81.1,42.7z"/>
					</g>
					<g>
						
							<linearGradient id="SVGID_00000133495783610223751880000001449430993950782369_" gradientUnits="userSpaceOnUse" x1="38.6246" y1="726.759" x2="62.7119" y2="718.7587" gradientTransform="matrix(1 0 0 1 24.9448 -676.7715)">
							<stop  offset="0" style="stop-color:#9D9D9C"/>
							<stop  offset="1" style="stop-color:#9D9D9C;stop-opacity:0.2"/>
						</linearGradient>
						<path style="fill:url(#SVGID_00000133495783610223751880000001449430993950782369_);" d="M67.4,52.9c-0.2,0-0.5-0.1-0.6-0.4
							c-0.2-0.3-0.1-0.8,0.3-0.9c1.4-0.8,2.2-2.6,2.9-4.3c0.2-0.5,0.4-1,0.7-1.5c0.8-1.7,2.6-3,4-3.8c1.3-0.7,2.8-1,4.3-0.9
							c0.5,0,1,0.1,1.5,0.2c0.9,0.2,1.6,0.3,2.4,0.1c0.3-0.1,0.7-0.3,0.9-0.4c0.3-0.2,0.7-0.1,1,0.2c0.2,0.3,0.2,0.7-0.2,1
							c-0.4,0.3-0.8,0.5-1.3,0.6c-1.1,0.3-2.1,0.1-3.1,0c-0.4-0.1-0.9-0.2-1.3-0.2c-1.4-0.1-2.5,0.1-3.6,0.7
							c-1.2,0.6-2.8,1.8-3.4,3.1c-0.2,0.4-0.4,0.9-0.6,1.4c-0.8,1.8-1.7,3.9-3.5,5C67.6,52.9,67.5,52.9,67.4,52.9z"/>
						<path class="st4" d="M67.4,53.1c-0.3,0-0.6-0.2-0.8-0.4c-0.2-0.4-0.1-0.9,0.3-1.2c1.4-0.8,2.1-2.5,2.9-4.2
							c0.2-0.5,0.4-1,0.7-1.5c0.8-1.7,2.7-3.1,4.1-3.8c1.3-0.7,2.8-1,4.4-0.9c0.5,0,1,0.1,1.5,0.2c0.9,0.2,1.7,0.3,2.4,0.1
							c0.3-0.1,0.6-0.2,0.9-0.4c0.4-0.3,0.9-0.2,1.2,0.2c0.1,0.2,0.2,0.4,0.1,0.6s-0.2,0.4-0.4,0.6c-0.4,0.3-0.9,0.5-1.4,0.6
							c-0.4,0.1-0.9,0.2-1.3,0.2c-0.6,0-1.2-0.1-1.8-0.2c-0.4-0.1-0.9-0.2-1.3-0.2c-1.3-0.1-2.5,0.1-3.5,0.7
							c-1.1,0.6-2.7,1.7-3.4,3.1c-0.2,0.4-0.4,0.9-0.6,1.3c-0.8,1.9-1.7,4-3.6,5.1C67.7,53.1,67.5,53.1,67.4,53.1z M78.4,41.4
							c-1.3,0-2.6,0.3-3.7,0.9c-1.4,0.7-3.2,2.1-4,3.7c-0.2,0.4-0.4,0.9-0.6,1.4c-0.8,1.8-1.5,3.6-3,4.4c-0.2,0.1-0.3,0.5-0.2,0.7
							c0.1,0.2,0.5,0.3,0.7,0.2c1.8-1,2.7-3.1,3.5-4.9c0.2-0.5,0.4-1,0.6-1.4c0.7-1.4,2.3-2.6,3.5-3.2c1.1-0.6,2.3-0.8,3.7-0.7
							c0.4,0,0.9,0.1,1.3,0.2c0.6,0.1,1.2,0.2,1.8,0.2c0.4,0,0.8-0.1,1.2-0.2c0.5-0.1,0.9-0.4,1.3-0.6c0.1-0.1,0.2-0.2,0.2-0.3
							c0-0.1,0-0.3-0.1-0.4c-0.2-0.2-0.5-0.3-0.7-0.1c-0.2,0.2-0.6,0.3-1,0.4c-0.3,0.1-0.6,0.1-1,0.1c-0.5,0-1-0.1-1.6-0.2
							c-0.5-0.1-0.9-0.2-1.5-0.2C78.8,41.4,78.6,41.4,78.4,41.4z"/>
					</g>
					<path class="st8" d="M84.1,41.3c-0.1-0.1-0.3-0.1-0.4-0.1c-0.2,0.1-0.5,0.2-0.8,0.3c-0.8,0.2-1.6,0.1-2.4-0.1
						c-0.5-0.1-1-0.2-1.5-0.2c-1.6-0.1-3,0.2-4.3,0.9c-1.4,0.7-3.2,2.1-4,3.8c-0.2,0.5-0.4,0.9-0.7,1.5c-0.3,0.7-0.6,1.4-1,2.1
						c0.2-0.2,0.3-0.4,0.5-0.5c0.5-0.4,0.8-0.8,1.1-1.3c0.4-0.8,0.9-1.6,1.5-2.3c0.6-0.7,1.3-1.1,2.1-1.7c0.8-0.5,1.4-1.1,2.4-1.3
						c0.5-0.1,1.1-0.1,1.6-0.2c0.5,0,1.1-0.1,1.5,0c0.7,0.2,1,0.4,1.7,0.4c0.6,0,1.1,0,1.6-0.1C83.4,42.3,84.8,41.8,84.1,41.3z"/>
					<g>
						<g>
							
								<linearGradient id="SVGID_00000156575459859133741750000008348509658228909698_" gradientUnits="userSpaceOnUse" x1="60.6663" y1="718.2673" x2="60.7527" y2="718.8719" gradientTransform="matrix(1 0 0 1 24.9448 -676.7715)">
								<stop  offset="0" style="stop-color:#9D9D9C"/>
								<stop  offset="1" style="stop-color:#9D9D9C;stop-opacity:0.2"/>
							</linearGradient>
							<path style="fill:url(#SVGID_00000156575459859133741750000008348509658228909698_);" d="M86.4,42c-0.3,0-0.8,0-1.1,0
								c-0.2,0-0.4,0-0.4,0c-0.2,0-0.3-0.2-0.3-0.3c0-0.2,0.2-0.3,0.3-0.3c0.1,0,0.2,0,0.5,0c0.3,0,0.8,0,1.1,0
								c0.2,0,0.3,0.2,0.3,0.3C86.8,41.8,86.6,42,86.4,42z"/>
							<path class="st4" d="M86.4,42.1c-0.3,0-0.8,0-1.1,0c-0.2,0-0.4,0-0.4,0c-0.2,0-0.4-0.2-0.4-0.4s0.2-0.4,0.4-0.4
								c0.1,0,0.2,0,0.5,0c0.3,0,0.8,0,1.1,0c0.2,0,0.4,0.2,0.4,0.4S86.6,42.1,86.4,42.1z M84.8,41.3c-0.1,0-0.3,0.1-0.3,0.3
								s0.1,0.3,0.3,0.3c0.1,0,0.2,0,0.4,0c0.3,0,0.8,0,1.1,0c0.1,0,0.3-0.1,0.3-0.3s-0.1-0.3-0.3-0.3c-0.3,0-0.7,0-1.1,0
								C85.1,41.3,84.9,41.3,84.8,41.3z"/>
						</g>
					</g>
					<g>
						<g>
							
								<linearGradient id="SVGID_00000157990710551864372790000015975581560335232697_" gradientUnits="userSpaceOnUse" x1="60.2007" y1="716.2105" x2="60.5032" y2="717.0313" gradientTransform="matrix(1 0 0 1 24.9448 -676.7715)">
								<stop  offset="0" style="stop-color:#9D9D9C"/>
								<stop  offset="1" style="stop-color:#9D9D9C;stop-opacity:0.2"/>
							</linearGradient>
							<path style="fill:url(#SVGID_00000157990710551864372790000015975581560335232697_);" d="M84.6,40.6c-0.1,0-0.3-0.1-0.3-0.2
								c-0.1-0.2,0-0.4,0.2-0.5c0.1,0,0.2-0.1,0.4-0.2c0.3-0.1,0.8-0.3,1-0.4c0.2-0.1,0.4,0,0.5,0.2c0.1,0.2,0,0.4-0.2,0.5
								c-0.3,0.1-0.7,0.3-1,0.4c-0.2,0.1-0.4,0.1-0.4,0.2C84.7,40.6,84.7,40.6,84.6,40.6z"/>
							<path class="st4" d="M84.6,40.7c-0.2,0-0.3-0.1-0.4-0.3c-0.1-0.2,0-0.5,0.2-0.6c0.1,0,0.2-0.1,0.4-0.2c0.3-0.1,0.8-0.3,1-0.4
								c0.2-0.1,0.5,0,0.6,0.2c0.1,0.2,0,0.5-0.2,0.6c-0.3,0.1-0.7,0.3-1,0.4l0,0c-0.2,0.1-0.3,0.1-0.4,0.2
								C84.7,40.7,84.7,40.7,84.6,40.7z M86.1,39.4c0,0-0.1,0-0.1,0c-0.3,0.1-0.7,0.3-1,0.4c-0.2,0.1-0.4,0.2-0.4,0.2
								c-0.1,0.1-0.2,0.2-0.1,0.3c0.1,0.1,0.2,0.2,0.3,0.1c0.1,0,0.2-0.1,0.4-0.2l0.1,0.1l0-0.1c0.3-0.1,0.8-0.3,1-0.4
								c0.1-0.1,0.2-0.2,0.1-0.3C86.3,39.5,86.2,39.4,86.1,39.4z"/>
						</g>
						<g>
							
								<linearGradient id="SVGID_00000124846264781393784170000017803620487741884059_" gradientUnits="userSpaceOnUse" x1="34.9831" y1="725.5786" x2="68.136" y2="713.0092" gradientTransform="matrix(1 0 0 1 24.9448 -676.7715)">
								<stop  offset="0" style="stop-color:#9D9D9C"/>
								<stop  offset="1" style="stop-color:#9D9D9C;stop-opacity:0.2"/>
							</linearGradient>
							<path style="fill:url(#SVGID_00000124846264781393784170000017803620487741884059_);" d="M65.8,49.9c-0.3,0-0.6-0.2-0.7-0.5
								c-0.1-0.4,0.1-0.7,0.5-0.8c1.2-0.3,2.2-2,3-3.5c0.4-0.8,0.8-1.5,1.3-2.1c1.2-1.5,3.1-2.7,5.5-3.4c2-0.6,4-0.4,5.8-0.2
								c0.9,0.1,1.9,0.2,2.9,0.2c0.2-0.2,0.5-0.2,0.8-0.1c0.4,0.1,0.6,0.4,0.5,0.8c0,0.4-0.3,0.6-0.6,0.6c-1.3,0.1-2.5-0.1-3.7-0.2
								c-1.8-0.2-3.5-0.4-5.3,0.1c-2.1,0.6-3.8,1.6-4.8,2.9c-0.4,0.5-0.8,1.2-1.2,1.9c-1,1.7-2.1,3.7-3.9,4.1
								C65.9,49.9,65.9,49.9,65.8,49.9z"/>
							<path class="st4" d="M65.8,50.1c-0.4,0-0.7-0.3-0.8-0.7c-0.1-0.5,0.2-0.9,0.6-1c1.2-0.3,2.1-1.9,2.9-3.4
								c0.4-0.8,0.9-1.5,1.3-2.1c1.2-1.5,3.2-2.7,5.6-3.4c0.9-0.3,1.9-0.4,3-0.4c1,0,1.9,0.1,2.9,0.2c0.9,0.1,1.8,0.2,2.8,0.2l0.1,0
								c0.3-0.2,0.6-0.2,0.9-0.1c0.4,0.1,0.7,0.5,0.6,1c0,0.4-0.4,0.8-0.8,0.8c-0.3,0-0.5,0-0.8,0c-1,0-2-0.1-2.9-0.2
								c-0.9-0.1-1.8-0.2-2.7-0.2c-0.9,0-1.7,0.1-2.5,0.3c-2.1,0.6-3.7,1.6-4.8,2.8c-0.4,0.5-0.8,1.1-1.1,1.9c-1,1.8-2.1,3.8-4,4.2
								C65.9,50,65.9,50.1,65.8,50.1z M78.4,39.4c-1.1,0-2,0.1-2.9,0.4c-2.4,0.7-4.3,1.8-5.5,3.3c-0.4,0.6-0.8,1.3-1.3,2
								c-0.8,1.5-1.8,3.2-3.1,3.6c-0.3,0.1-0.4,0.4-0.4,0.6c0.1,0.3,0.4,0.4,0.6,0.4c1.7-0.4,2.8-2.4,3.8-4.1
								c0.4-0.7,0.8-1.4,1.2-1.9c1.1-1.3,2.8-2.3,4.9-3c0.8-0.2,1.7-0.3,2.6-0.3c0.9,0,1.8,0.1,2.7,0.2c0.9,0.1,1.9,0.2,2.9,0.2
								c0.3,0,0.5,0,0.8,0c0.3,0,0.5-0.2,0.5-0.5c0-0.3-0.1-0.5-0.4-0.6c-0.3-0.1-0.5-0.1-0.6,0.1l0,0l-0.2,0
								c-0.9,0-1.9-0.1-2.8-0.2C80.3,39.5,79.4,39.4,78.4,39.4z"/>
						</g>
						<path class="st8" d="M84.8,41c0-0.1-0.1-0.1-0.1-0.2c-0.3-0.3-0.7-0.1-0.6-0.6c0-0.2,0.2-0.5,0.3-0.7c-0.1,0-0.1,0.1-0.2,0.1
							c-1,0-2-0.1-2.9-0.2c-0.3,0-0.6-0.1-0.9-0.1c-0.3,0.1-0.6,0.1-0.9,0.3c-0.7,0.3-1.4,0.4-2.1,0.6c-1.2,0.2-2.2,0.5-3.4,0.9
							c-0.8,0.2-1.4,0.5-2,1c-0.4,0.3-0.6,0.6-1,0.9c-0.3,0.2-0.6,0.2-0.8,0.4c-0.3,0.2-0.6,0.4-0.8,0.6c-0.2,0.4-0.4,0.8-0.7,1.2
							c-0.5,0.9-1.1,1.9-1.7,2.6c0.2,0.1,0.5,0.1,0.8,0c0,0.4-0.1,0.8-0.1,1.3c0.9-0.8,1.6-2.1,2.2-3.2c0.4-0.7,0.8-1.4,1.2-1.9
							c1-1.3,2.7-2.3,4.8-2.9c1.8-0.5,3.5-0.3,5.3-0.1C82.3,40.9,83.5,41,84.8,41z"/>
						<g>
							
								<linearGradient id="SVGID_00000028300556136804680560000005312929482188890290_" gradientUnits="userSpaceOnUse" x1="35.5261" y1="727.0211" x2="68.6844" y2="714.4497" gradientTransform="matrix(1 0 0 1 24.9448 -676.7715)">
								<stop  offset="0" style="stop-color:#9D9D9C"/>
								<stop  offset="1" style="stop-color:#9D9D9C;stop-opacity:0.2"/>
							</linearGradient>
							<path style="fill:url(#SVGID_00000028300556136804680560000005312929482188890290_);" d="M65.7,52c-0.3,0-0.6-0.2-0.7-0.5
								c-0.1-0.4,0.1-0.7,0.5-0.8c1.4-0.4,2.2-1.7,2.9-3.1c0.2-0.4,0.4-0.8,0.7-1.1c1.2-1.8,2.2-3.3,4.2-4.5
								c1.3-0.8,2.8-1.6,4.6-1.8c1.2-0.1,2.3,0.1,3.4,0.4c0.7,0.1,1.3,0.3,1.9,0.3c0.1,0,0.2,0,0.3,0c0.3,0,0.5,0.1,0.8,0.1
								c0,0,0.3,0,0.5,0c0,0,0,0,0.1,0c0,0,0,0,0,0v0c0.2,0,0.4,0.1,0.6,0.3c0.1,0.2,0.1,0.5,0,0.7c-0.1,0.2-0.3,0.3-0.6,0.3v0h-0.1
								c0,0,0,0,0,0c-0.1,0-0.3,0-0.5,0c-0.3,0-0.6,0-0.9-0.1c-0.1,0-0.2,0-0.3,0c-0.7-0.1-1.4-0.2-2.1-0.4c-1-0.2-2-0.4-2.9-0.3
								c-1.5,0.2-2.9,0.9-4,1.6c-1.7,1.1-2.6,2.3-3.8,4.1c-0.2,0.3-0.4,0.7-0.6,1.1c-0.9,1.5-1.8,3.2-3.8,3.7
								C65.8,52,65.7,52,65.7,52z"/>
							<path class="st4" d="M65.7,52.2c-0.4,0-0.7-0.3-0.8-0.6c-0.1-0.5,0.2-0.9,0.6-1.1c1.3-0.3,2.1-1.7,2.8-3
								c0.2-0.4,0.4-0.8,0.7-1.1c1.2-1.9,2.2-3.3,4.2-4.5c1.3-0.8,2.8-1.6,4.7-1.8c0.2,0,0.4,0,0.7,0c1,0,1.9,0.2,2.8,0.4
								c0.7,0.1,1.3,0.3,1.9,0.3c0.1,0,0.2,0,0.3,0c0.3,0,0.5,0.1,0.8,0.1h0.1l0.4,0l0.2,0v0c0.3,0,0.5,0.2,0.6,0.4
								c0.2,0.3,0.2,0.6,0,0.9c-0.1,0.2-0.3,0.4-0.6,0.4v0l-0.3,0c-0.1,0-0.1,0-0.2,0l-0.3,0c-0.3,0-0.7,0-1-0.1c-0.1,0-0.2,0-0.3,0
								c-0.7-0.1-1.4-0.2-2.1-0.4c-0.8-0.2-1.6-0.4-2.4-0.4c-0.2,0-0.3,0-0.5,0c-1.5,0.2-2.8,0.9-3.9,1.6c-1.7,1.1-2.6,2.3-3.7,4
								c-0.2,0.3-0.4,0.7-0.6,1c-0.9,1.5-1.9,3.3-3.9,3.8C65.8,52.2,65.7,52.2,65.7,52.2z M78.5,40.3c-0.2,0-0.4,0-0.6,0
								c-1.8,0.2-3.3,1-4.5,1.8c-1.9,1.2-2.9,2.6-4.1,4.4c-0.2,0.4-0.5,0.7-0.7,1.1c-0.8,1.4-1.6,2.8-3,3.2
								c-0.3,0.1-0.4,0.4-0.4,0.6c0.1,0.3,0.4,0.4,0.6,0.4c1.9-0.5,2.8-2.2,3.7-3.6c0.2-0.4,0.4-0.7,0.6-1.1c1.1-1.8,2-3,3.8-4.1
								c1.1-0.7,2.5-1.5,4.1-1.6c0.2,0,0.3,0,0.5,0c0.8,0,1.6,0.2,2.5,0.4c0.7,0.1,1.4,0.3,2.1,0.4c0.1,0,0.2,0,0.3,0
								c0.3,0,0.6,0.1,0.9,0.1l0.3,0c0.1,0,0.1,0,0.2,0h0.1l0.1,0c0.3,0,0.4-0.1,0.5-0.2c0.1-0.2,0.1-0.4,0-0.5
								c-0.1-0.2-0.2-0.2-0.5-0.3l-0.1,0l-0.4,0l-0.1,0c-0.3,0-0.5,0-0.8-0.1c-0.1,0-0.2,0-0.3,0c-0.6-0.1-1.3-0.2-2-0.3
								C80.3,40.5,79.4,40.3,78.5,40.3z"/>
						</g>
					</g>
					<g>
						
							<linearGradient id="SVGID_00000070801166055538527400000012901831131775115967_" gradientUnits="userSpaceOnUse" x1="39.7707" y1="719.9872" x2="51.016" y2="719.9872" gradientTransform="matrix(1 0 0 1 24.9448 -676.7715)">
							<stop  offset="0" style="stop-color:#9D9D9C"/>
							<stop  offset="1" style="stop-color:#9D9D9C;stop-opacity:0.2"/>
						</linearGradient>
						<path style="fill:url(#SVGID_00000070801166055538527400000012901831131775115967_);" d="M65.4,47c-0.2,0-0.4-0.1-0.5-0.2
							c-0.2-0.3-0.2-0.7,0.1-1c0.6-0.5,1.2-1.1,1.8-1.6c1-0.9,1.9-1.8,3-2.6c0.8-0.6,1.7-1.2,2.7-1.6c0.5-0.2,0.9-0.2,1.4-0.3
							c0.4,0,0.9-0.1,1.2-0.2c0.3-0.2,0.8,0,0.9,0.3c0.2,0.3,0,0.8-0.3,0.9C75,41,74.5,41.1,74,41.1c-0.4,0-0.8,0.1-1.1,0.2
							c-0.8,0.3-1.6,0.8-2.3,1.4c-1,0.7-1.9,1.6-2.9,2.5c-0.6,0.6-1.2,1.1-1.9,1.7C65.7,46.9,65.6,47,65.4,47z"/>
						<path class="st4" d="M65.4,47.2c-0.3,0-0.5-0.1-0.7-0.3c-0.1-0.2-0.2-0.4-0.2-0.6s0.1-0.4,0.3-0.6c0.6-0.5,1.2-1.1,1.8-1.6
							c1-0.9,2-1.8,3-2.6c0.8-0.6,1.7-1.2,2.7-1.6c0.5-0.2,1-0.2,1.4-0.3c0.4,0,0.8-0.1,1.1-0.2c0.4-0.2,1,0,1.1,0.4
							c0.1,0.2,0.1,0.4,0,0.7c-0.1,0.2-0.2,0.4-0.5,0.5c-0.5,0.2-1.1,0.3-1.6,0.4c-0.4,0-0.7,0.1-1,0.2c-0.8,0.3-1.5,0.8-2.2,1.3
							c-1,0.7-1.9,1.6-2.9,2.5c-0.6,0.6-1.2,1.1-1.9,1.7C65.8,47.1,65.6,47.2,65.4,47.2z M75.3,39.6c-0.1,0-0.1,0-0.2,0
							c-0.3,0.2-0.8,0.2-1.2,0.2c-0.4,0-0.9,0.1-1.3,0.2c-1,0.3-1.9,1-2.6,1.5c-1,0.8-2,1.7-3,2.5c-0.6,0.6-1.2,1.1-1.8,1.6
							c-0.1,0.1-0.2,0.2-0.2,0.4c0,0.1,0,0.3,0.1,0.4c0.2,0.2,0.5,0.2,0.7,0.1c0.6-0.5,1.3-1.1,1.9-1.7c0.9-0.9,1.9-1.7,2.9-2.5
							c0.7-0.5,1.5-1.1,2.3-1.4c0.3-0.1,0.7-0.2,1.1-0.2c0.5-0.1,1.1-0.1,1.5-0.3c0.1-0.1,0.2-0.2,0.3-0.3c0.1-0.1,0-0.3,0-0.4
							C75.7,39.7,75.5,39.6,75.3,39.6z"/>
					</g>
					<g>
						<g>
							
								<linearGradient id="SVGID_00000147189145371883408650000006233788061469568650_" gradientUnits="userSpaceOnUse" x1="58.9482" y1="715.1431" x2="59.77" y2="715.9216" gradientTransform="matrix(1 0 0 1 24.9448 -676.7715)">
								<stop  offset="0" style="stop-color:#9D9D9C"/>
								<stop  offset="1" style="stop-color:#9D9D9C;stop-opacity:0.2"/>
							</linearGradient>
							<path style="fill:url(#SVGID_00000147189145371883408650000006233788061469568650_);" d="M83.8,39.8c-0.1,0-0.2,0-0.2-0.1
								c-0.1-0.1-0.2-0.3,0-0.5c0-0.1,0.2-0.2,0.3-0.3c0.2-0.2,0.6-0.6,0.8-0.8c0.1-0.1,0.3-0.2,0.5,0c0.1,0.1,0.2,0.3,0,0.5
								c-0.2,0.2-0.5,0.5-0.8,0.8c-0.1,0.1-0.3,0.3-0.3,0.3C84,39.7,83.9,39.8,83.8,39.8z"/>
							<path class="st4" d="M83.8,39.8c-0.1,0-0.2,0-0.3-0.1c-0.2-0.2-0.2-0.4,0-0.6c0-0.1,0.2-0.2,0.3-0.3c0.2-0.3,0.6-0.6,0.8-0.8
								c0.2-0.2,0.4-0.2,0.6,0c0.1,0.1,0.1,0.2,0.1,0.3c0,0.1,0,0.2-0.1,0.3c-0.2,0.2-0.5,0.6-0.8,0.8l0,0c-0.1,0.1-0.2,0.2-0.3,0.3
								C84.1,39.8,84,39.8,83.8,39.8z M84.9,38c-0.1,0-0.1,0-0.2,0.1c-0.2,0.2-0.5,0.5-0.8,0.8c-0.2,0.2-0.3,0.3-0.3,0.3
								c-0.1,0.1-0.1,0.3,0,0.4c0.1,0.1,0.3,0.1,0.4,0c0,0,0.1-0.2,0.3-0.3l0,0c0.2-0.2,0.6-0.6,0.8-0.8c0-0.1,0.1-0.1,0.1-0.2
								s0-0.1-0.1-0.2C85.1,38,85,38,84.9,38z"/>
						</g>
						<g>
							
								<linearGradient id="SVGID_00000002381199230498501370000002438003443370784687_" gradientUnits="userSpaceOnUse" x1="34.6164" y1="724.6187" x2="67.7713" y2="712.0486" gradientTransform="matrix(1 0 0 1 24.9448 -676.7715)">
								<stop  offset="0" style="stop-color:#9D9D9C"/>
								<stop  offset="1" style="stop-color:#9D9D9C;stop-opacity:0.2"/>
							</linearGradient>
							<path style="fill:url(#SVGID_00000002381199230498501370000002438003443370784687_);" d="M64.7,48.3c-0.1,0-0.2,0-0.4,0
								c-0.4-0.1-0.6-0.4-0.6-0.8c0.1-0.4,0.4-0.6,0.8-0.6c0.8,0.1,1.8-0.6,2.5-1.3c0.4-0.4,0.9-0.9,1.3-1.3c0.5-0.5,1-1,1.5-1.5
								c1.4-1.4,2.9-2.3,4.5-3.1c1.5-0.8,3.2-1.1,5.2-1c0.4,0,0.9,0.1,1.3,0.2c1.3,0.2,2.2,0.3,2.7-0.3c0.2-0.3,0.7-0.3,1-0.1
								c0.3,0.2,0.3,0.7,0.1,1c-1.1,1.3-2.7,1-4,0.8c-0.4-0.1-0.8-0.1-1.1-0.2C77.8,40,76.3,40.3,75,41c-1.5,0.8-2.9,1.6-4.1,2.8
								c-0.5,0.5-1,1-1.6,1.5c-0.4,0.4-0.9,0.8-1.3,1.3C67.2,47.4,65.9,48.3,64.7,48.3z"/>
							<path class="st4" d="M64.7,48.4c-0.1,0-0.3,0-0.4,0c-0.2,0-0.4-0.2-0.6-0.3c-0.1-0.2-0.2-0.4-0.2-0.6c0.1-0.5,0.5-0.8,1-0.7
								c0.7,0.1,1.7-0.6,2.4-1.2c0.4-0.4,0.9-0.9,1.3-1.3l0,0c0.5-0.5,1-1,1.5-1.5c1.4-1.4,2.9-2.3,4.5-3.1c1.5-0.8,3.3-1.1,5.3-1
								c0.4,0,0.9,0.1,1.3,0.2c0.6,0.1,1.1,0.2,1.5,0.2c0.5,0,0.8-0.1,1.1-0.4c0.3-0.4,0.9-0.4,1.2-0.1c0.2,0.1,0.3,0.4,0.3,0.6
								c0,0.2,0,0.5-0.2,0.6c-0.6,0.7-1.4,1-2.4,1c-0.6,0-1.2-0.1-1.8-0.2c-0.4-0.1-0.8-0.1-1.1-0.2c-1.7-0.1-3.2,0.2-4.4,0.8
								c-1.5,0.8-2.9,1.5-4.1,2.8c-0.5,0.5-1,1-1.6,1.5c-0.4,0.4-0.9,0.8-1.3,1.3C67.7,47.1,66.3,48.4,64.7,48.4z M64.4,47
								c-0.3,0-0.5,0.2-0.5,0.4c0,0.1,0,0.3,0.1,0.4c0.1,0.1,0.2,0.2,0.3,0.2c0.1,0,0.2,0,0.3,0c1.2,0,2.4-0.8,3.2-1.6
								c0.4-0.4,0.9-0.9,1.3-1.3c0.5-0.5,1-1,1.6-1.5c1.3-1.3,2.7-2.1,4.2-2.9c1.3-0.7,2.8-1,4.6-0.9c0.3,0,0.7,0.1,1.1,0.2
								c0.5,0.1,1.1,0.2,1.7,0.2c0.9,0,1.6-0.3,2.1-0.9c0.1-0.1,0.1-0.2,0.1-0.4c0-0.1-0.1-0.3-0.2-0.4c-0.2-0.2-0.6-0.1-0.7,0.1
								c-0.3,0.4-0.7,0.5-1.3,0.5c-0.4,0-0.9-0.1-1.5-0.2c-0.4-0.1-0.9-0.2-1.3-0.2c-2-0.1-3.7,0.2-5.1,1c-1.6,0.8-3.1,1.7-4.4,3.1
								c-0.5,0.5-1,1-1.5,1.5l0,0c-0.5,0.4-0.9,0.9-1.3,1.3C66.4,46.4,65.3,47.2,64.4,47C64.5,47,64.4,47,64.4,47z"/>
						</g>
						<path class="st8" d="M81.7,39.9c0-0.1,0.7-0.3,0.9-0.4c0.2-0.1,0.2-0.3,0.2-0.4c-0.5,0.1-1.1,0-1.9-0.2
							c-0.4-0.1-0.9-0.2-1.3-0.2c-2-0.1-3.8,0.2-5.2,1c-1.1,0.6-2.2,1.2-3.3,2c0.4-0.1,0.8-0.2,1.1-0.2c0.5,0,0.9-0.1,1.3-0.2
							c-0.2,0.2-0.6,0.6-0.8,1c0.7-0.5,1.5-0.9,2.3-1.3c1.3-0.7,2.8-0.9,4.5-0.9c0.3,0,0.7,0.1,1.1,0.2c0.6,0.1,1.2,0.2,1.9,0.2
							C82.1,40.3,81.6,40.1,81.7,39.9z"/>
					</g>
					<g>
						<g>
							
								<linearGradient id="SVGID_00000173125018500846048750000008174752731708396979_" gradientUnits="userSpaceOnUse" x1="58.048" y1="711.8569" x2="58.3508" y2="712.7222" gradientTransform="matrix(1 0 0 1 24.9448 -676.7715)">
								<stop  offset="0" style="stop-color:#9D9D9C"/>
								<stop  offset="1" style="stop-color:#9D9D9C;stop-opacity:0.2"/>
							</linearGradient>
							<path style="fill:url(#SVGID_00000173125018500846048750000008174752731708396979_);" d="M83.2,38.1c-0.1,0-0.1,0-0.2-0.1
								c-0.2-0.1-0.2-0.3-0.1-0.5c0-0.1,0.1-0.2,0.3-0.4c0.2-0.3,0.5-0.7,0.6-0.9c0.1-0.2,0.3-0.2,0.5-0.1c0.2,0.1,0.2,0.3,0.1,0.5
								c-0.2,0.2-0.4,0.6-0.6,0.9c-0.1,0.2-0.2,0.3-0.2,0.4C83.5,38,83.4,38.1,83.2,38.1z"/>
							<path class="st4" d="M83.2,38.1c-0.1,0-0.2,0-0.2-0.1c-0.2-0.1-0.3-0.4-0.1-0.6c0-0.1,0.1-0.2,0.3-0.4l0,0
								c0.2-0.3,0.5-0.7,0.6-0.9c0.1-0.2,0.4-0.3,0.6-0.1c0.2,0.1,0.3,0.4,0.1,0.6c-0.2,0.2-0.4,0.6-0.6,0.9l-0.1,0.1
								c-0.1,0.1-0.2,0.2-0.2,0.3C83.5,38.1,83.4,38.1,83.2,38.1z M84.1,36.2c-0.1,0-0.2,0-0.2,0.1c-0.1,0.2-0.4,0.6-0.6,0.9l0,0
								c-0.1,0.2-0.2,0.3-0.3,0.4c-0.1,0.1,0,0.3,0.1,0.4c0.1,0.1,0.3,0,0.4-0.1c0,0,0.1-0.2,0.2-0.3l0.1-0.1
								c0.2-0.3,0.5-0.7,0.6-0.9c0.1-0.1,0-0.3-0.1-0.4C84.2,36.2,84.2,36.2,84.1,36.2z"/>
						</g>
						<g>
							
								<linearGradient id="SVGID_00000121268111253180655460000016974146180470940837_" gradientUnits="userSpaceOnUse" x1="34.0032" y1="723.0004" x2="67.1598" y2="710.4295" gradientTransform="matrix(1 0 0 1 24.9448 -676.7715)">
								<stop  offset="0" style="stop-color:#9D9D9C"/>
								<stop  offset="1" style="stop-color:#9D9D9C;stop-opacity:0.2"/>
							</linearGradient>
							<path style="fill:url(#SVGID_00000121268111253180655460000016974146180470940837_);" d="M63.7,46.6c-0.3,0-0.5-0.2-0.6-0.4
								c-0.1-0.4,0-0.8,0.4-0.9c2.2-0.9,4.1-2.4,6.3-4.7c1.3-1.4,3-1.9,4.6-2.3c1.6-0.4,3.4-0.5,5.4-0.3c0.9,0.1,1.5,0.1,2.2-0.4
								l0.1,0c0.8-0.4,1-0.7,1.1-0.8c0.1-0.3,0.4-0.6,0.7-0.6c0.4,0,0.7,0.4,0.6,0.7c-0.1,0.7-0.9,1.3-1.8,1.8l-0.1,0
								c-1,0.6-1.9,0.6-3,0.5c-1.9-0.2-3.5-0.1-5,0.2c-1.7,0.4-2.9,0.8-3.9,1.9c-2.2,2.4-4.4,4-6.7,5C63.9,46.6,63.8,46.6,63.7,46.6
								z"/>
							<path class="st4" d="M63.7,46.8c-0.3,0-0.7-0.2-0.8-0.5c-0.2-0.4,0-0.9,0.5-1.1c2.1-0.9,4.1-2.4,6.2-4.6
								c1.3-1.4,3.1-1.9,4.7-2.3c1.6-0.4,3.4-0.5,5.5-0.3c0.3,0,0.5,0,0.7,0c0.5,0,0.9-0.1,1.4-0.4l0.1,0c0.7-0.4,0.9-0.6,1-0.7
								c0.1-0.4,0.5-0.7,0.9-0.7c0.2,0,0.4,0.1,0.6,0.3c0.1,0.2,0.2,0.4,0.2,0.6c-0.1,0.8-0.9,1.4-1.8,1.9l-0.1,0
								c-0.7,0.4-1.4,0.6-2.3,0.6c-0.2,0-0.5,0-0.8,0c-1.9-0.2-3.5-0.1-4.9,0.2c-1.7,0.4-2.9,0.8-3.8,1.8c-2.3,2.4-4.4,4-6.8,5.1
								C63.9,46.8,63.8,46.8,63.7,46.8z M77.7,38.2c-1.2,0-2.3,0.1-3.4,0.4c-1.5,0.3-3.2,0.8-4.5,2.2c-2.1,2.3-4.1,3.8-6.3,4.7
								c-0.3,0.1-0.4,0.4-0.3,0.7c0.1,0.3,0.4,0.4,0.7,0.3c2.3-1,4.4-2.6,6.7-5c1-1,2.2-1.5,4-1.9c1.5-0.3,3.1-0.4,5-0.2
								c0.3,0,0.6,0,0.8,0c0.8,0,1.4-0.2,2.1-0.6l0.1,0c0.8-0.5,1.6-1,1.7-1.7c0-0.1,0-0.3-0.1-0.4c-0.1-0.1-0.2-0.2-0.4-0.2
								c-0.3,0-0.5,0.2-0.6,0.4l0,0.1c-0.1,0.2-0.5,0.5-1.1,0.8l-0.1,0c-0.5,0.3-1,0.4-1.6,0.4c-0.2,0-0.4,0-0.7,0
								C79,38.2,78.3,38.2,77.7,38.2z"/>
						</g>
						<path class="st8" d="M74.2,38.4c-1.5,0.4-3.3,0.9-4.6,2.3c-1.2,1.3-2.4,2.3-3.6,3.2c1.1,0.3,2.9-1.1,3.7-1.4
							c0.1,0,0.1,0,0.2-0.1c0.2-0.2,0.5-0.5,0.7-0.8c0.9-1,2.2-1.5,3.9-1.9c0.9-0.2,1.8-0.3,2.8-0.3c0.3-0.3,0.6-0.6,0.9-0.9
							c0.1-0.2,0.4-0.3,0.6-0.5C77.1,37.9,75.6,38,74.2,38.4z"/>
					</g>
					<g>
						<g>
							
								<linearGradient id="SVGID_00000070809076357195806660000005683577618290607243_" gradientUnits="userSpaceOnUse" x1="58.2536" y1="711.7841" x2="58.5561" y2="712.6483" gradientTransform="matrix(1 0 0 1 24.9448 -676.7715)">
								<stop  offset="0" style="stop-color:#9D9D9C"/>
								<stop  offset="1" style="stop-color:#9D9D9C;stop-opacity:0.2"/>
							</linearGradient>
							<path style="fill:url(#SVGID_00000070809076357195806660000005683577618290607243_);" d="M82.6,36.1c-0.2,0-0.3-0.1-0.3-0.3
								c0-0.2,0.1-0.4,0.2-0.4c0.1,0,0.2-0.1,0.5-0.1c0.3-0.1,0.8-0.2,1.1-0.2c0.2,0,0.4,0.1,0.4,0.2c0,0.2-0.1,0.4-0.2,0.4
								C84,35.9,83.5,36,83.2,36C83,36.1,82.8,36.1,82.6,36.1C82.7,36.1,82.7,36.1,82.6,36.1z"/>
							<path class="st4" d="M82.6,36.2c-0.2,0-0.4-0.1-0.4-0.3c0-0.1,0-0.2,0-0.3c0.1-0.1,0.2-0.2,0.3-0.2c0.1,0,0.2-0.1,0.5-0.1
								c0.3-0.1,0.8-0.2,1.1-0.2c0.2-0.1,0.5,0.1,0.5,0.3c0,0.1,0,0.2,0,0.3c-0.1,0.1-0.2,0.2-0.3,0.2c-0.3,0.1-0.7,0.2-1.1,0.2
								l-0.1,0c-0.2,0-0.3,0.1-0.3,0.1C82.7,36.2,82.7,36.2,82.6,36.2z M84.2,35.2C84.2,35.2,84.1,35.2,84.2,35.2
								c-0.3,0.1-0.8,0.2-1.1,0.2c-0.2,0-0.4,0.1-0.5,0.1c-0.1,0-0.1,0.1-0.2,0.1c0,0.1,0,0.1,0,0.2c0,0.1,0.2,0.2,0.3,0.2
								c0.1,0,0.2,0,0.4-0.1l0.1,0c0.4-0.1,0.8-0.2,1.1-0.2c0.1,0,0.1-0.1,0.2-0.1c0-0.1,0-0.1,0-0.2C84.4,35.3,84.3,35.2,84.2,35.2
								z"/>
						</g>
						<g>
							
								<linearGradient id="SVGID_00000043449073504179322320000017433651761898969760_" gradientUnits="userSpaceOnUse" x1="33.6243" y1="722.0024" x2="66.7778" y2="709.4329" gradientTransform="matrix(1 0 0 1 24.9448 -676.7715)">
								<stop  offset="0" style="stop-color:#9D9D9C"/>
								<stop  offset="1" style="stop-color:#9D9D9C;stop-opacity:0.2"/>
							</linearGradient>
							<path style="fill:url(#SVGID_00000043449073504179322320000017433651761898969760_);" d="M63.9,44.9
								C63.9,44.9,63.8,44.9,63.9,44.9c-0.4,0-0.7-0.3-0.7-0.7c0-0.4,0.3-0.7,0.7-0.7c0.2,0,0.7-0.4,1-0.6c0.2-0.2,0.5-0.4,0.8-0.6
								c0.8-0.5,1.7-0.9,2.6-1.3l0.5-0.2c1.1-0.5,2.1-1,3.4-1.3c0.3-0.1,0.6-0.1,0.9-0.1c0.4,0,0.8-0.1,1.1-0.2
								c0.2-0.1,0.4-0.3,0.6-0.6c0.2-0.2,0.3-0.4,0.6-0.6c0.7-0.6,1.7-1.3,2.6-1.7c1.1-0.5,2.2-0.9,3.2-1c0.2,0,0.5,0,0.7,0
								c0.3,0,0.7,0,0.8-0.1c0.3-0.2,0.8,0,0.9,0.4s0,0.8-0.4,0.9c-0.4,0.2-0.9,0.2-1.4,0.2c-0.2,0-0.4,0-0.5,0
								c-0.8,0.1-1.7,0.4-2.7,0.8c-0.8,0.4-1.7,1-2.3,1.5c-0.1,0.1-0.3,0.3-0.4,0.5c-0.3,0.3-0.6,0.7-1.1,1
								c-0.5,0.3-1.1,0.3-1.6,0.4c-0.3,0-0.5,0-0.7,0.1c-1.1,0.2-2,0.7-3.1,1.2l-0.5,0.2c-0.8,0.4-1.7,0.8-2.4,1.2
								c-0.2,0.1-0.4,0.3-0.6,0.4C65.2,44.4,64.6,44.9,63.9,44.9z"/>
							<path class="st4" d="M63.9,45L63.9,45c-0.5,0-0.9-0.4-0.9-0.9c0-0.5,0.4-0.9,0.9-0.9c0,0,0,0,0,0c0.2,0,0.6-0.4,0.8-0.5
								l0.1-0.1c0.2-0.2,0.5-0.4,0.8-0.6c0.8-0.5,1.7-0.9,2.6-1.3l0.5-0.2c1.1-0.5,2.2-1,3.4-1.3c0.3-0.1,0.6-0.1,0.9-0.1
								c0.4,0,0.8-0.1,1.1-0.2c0.2-0.1,0.4-0.3,0.6-0.6c0.2-0.2,0.4-0.4,0.6-0.6c0.7-0.7,1.8-1.3,2.6-1.7c1.1-0.5,2.2-0.9,3.2-1
								c0.2,0,0.5,0,0.7,0c0.2,0,0.7,0,0.8-0.1c0.4-0.2,1,0,1.1,0.4c0.1,0.2,0.1,0.4,0,0.7c-0.1,0.2-0.2,0.4-0.5,0.5
								c-0.4,0.2-1,0.2-1.5,0.2c-0.2,0-0.4,0-0.5,0c-0.8,0.1-1.7,0.4-2.7,0.8c-0.8,0.4-1.6,0.9-2.2,1.5c-0.1,0.1-0.3,0.3-0.4,0.4
								c-0.3,0.4-0.6,0.7-1.2,1c-0.5,0.3-1.1,0.3-1.7,0.4c-0.3,0-0.5,0-0.7,0.1c-1.1,0.2-2,0.7-3,1.2l-0.5,0.2
								c-0.8,0.4-1.7,0.8-2.4,1.2c-0.2,0.1-0.4,0.3-0.6,0.4C65.3,44.5,64.7,45,63.9,45z M63.9,43.7c-0.3,0-0.5,0.2-0.5,0.5
								c0,0.3,0.2,0.5,0.5,0.5l0,0.2v-0.2c0.7,0,1.2-0.5,1.8-0.9c0.2-0.2,0.4-0.4,0.6-0.5c0.8-0.5,1.6-0.9,2.4-1.2l0.5-0.2
								c1.1-0.5,2-0.9,3.1-1.2c0.2,0,0.5-0.1,0.7-0.1c0.5,0,1.1-0.1,1.5-0.3s0.8-0.6,1-0.9c0.1-0.2,0.3-0.3,0.4-0.5
								c0.6-0.6,1.6-1.2,2.3-1.5c1-0.5,1.9-0.8,2.8-0.9c0.1,0,0.3,0,0.5,0c0.5,0,1,0,1.3-0.2c0.1-0.1,0.2-0.2,0.3-0.3
								c0.1-0.1,0-0.3,0-0.4c-0.1-0.3-0.4-0.4-0.7-0.3c-0.2,0.1-0.5,0.1-0.9,0.1c-0.2,0-0.5,0-0.7,0c-1,0.1-2,0.4-3.1,1
								c-0.9,0.4-1.9,1.1-2.6,1.7c-0.2,0.2-0.4,0.4-0.5,0.6c-0.2,0.3-0.4,0.5-0.7,0.7c-0.3,0.2-0.7,0.2-1.2,0.2
								c-0.3,0-0.6,0.1-0.9,0.1c-1.2,0.3-2.2,0.7-3.3,1.2l-0.5,0.2c-0.8,0.4-1.7,0.8-2.5,1.3c-0.2,0.1-0.5,0.4-0.7,0.6L64.9,43
								C64.5,43.4,64.1,43.7,63.9,43.7L63.9,43.7z"/>
						</g>
						<path class="st8" d="M77.8,36.2c-0.9,0.4-1.9,1.1-2.6,1.7c-0.2,0.2-0.4,0.4-0.6,0.6c-0.2,0.3-0.4,0.5-0.6,0.6
							c-0.3,0.1-0.7,0.2-1.1,0.2c-0.3,0-0.6,0.1-0.9,0.1c-1.1,0.2-2,0.7-3,1.1c0.5,0.1,1.2,0,1.7,0c0.5,0,1,0.1,1.5,0.1
							c0.1,0,0.2,0,0.4,0.1c0.1,0,0.3,0,0.4,0c0.5,0,1.1-0.1,1.6-0.4c0.5-0.3,0.8-0.6,1.1-1c0.1-0.2,0.3-0.3,0.4-0.5
							c0.3-0.2,0.6-0.5,0.9-0.7c0.4-0.5,0.5-1.1,0.8-1.7c0.1-0.2,0.1-0.3,0.2-0.5C77.9,36.2,77.9,36.2,77.8,36.2z"/>
					</g>
					<g>
						<g>
							
								<linearGradient id="SVGID_00000172410970203892798270000000376771274971136387_" gradientUnits="userSpaceOnUse" x1="57.1337" y1="710.2643" x2="57.35" y2="711.1727" gradientTransform="matrix(1 0 0 1 24.9448 -676.7715)">
								<stop  offset="0" style="stop-color:#9D9D9C"/>
								<stop  offset="1" style="stop-color:#9D9D9C;stop-opacity:0.2"/>
							</linearGradient>
							<path style="fill:url(#SVGID_00000172410970203892798270000000376771274971136387_);" d="M83,34.3c-0.3,0-0.8,0-1.1,0
								c-0.2,0-0.4,0-0.4,0c-0.2,0-0.3-0.2-0.3-0.3s0.2-0.3,0.3-0.3c0.1,0,0.2,0,0.5,0c0.3,0,0.8,0,1.1,0c0.2,0,0.3,0.2,0.3,0.3
								C83.3,34.2,83.2,34.3,83,34.3z"/>
							<path class="st4" d="M83,34.4c-0.3,0-0.8,0-1.1,0l0,0c-0.2,0-0.3,0-0.4,0c-0.2,0-0.4-0.2-0.4-0.4s0.2-0.4,0.4-0.4
								c0.1,0,0.3,0,0.5,0c0.3,0,0.8,0,1.1,0c0.2,0,0.4,0.2,0.4,0.4C83.4,34.2,83.2,34.4,83,34.4z M81.4,33.7
								c-0.1,0-0.3,0.1-0.3,0.3c0,0.1,0.1,0.3,0.3,0.3c0.1,0,0.2,0,0.4,0l0,0c0.4,0,0.8,0,1.1,0c0.1,0,0.3-0.1,0.3-0.3
								s-0.1-0.3-0.3-0.3c-0.3,0-0.7,0-1.1,0C81.7,33.7,81.5,33.7,81.4,33.7z"/>
						</g>
						<g>
							
								<linearGradient id="SVGID_00000027563581990383469250000007676099590339773323_" gradientUnits="userSpaceOnUse" x1="32.9337" y1="720.1812" x2="66.0886" y2="707.6111" gradientTransform="matrix(1 0 0 1 24.9448 -676.7715)">
								<stop  offset="0" style="stop-color:#9D9D9C"/>
								<stop  offset="1" style="stop-color:#9D9D9C;stop-opacity:0.2"/>
							</linearGradient>
							<path style="fill:url(#SVGID_00000027563581990383469250000007676099590339773323_);" d="M63.1,42.4c-0.2,0-0.4-0.1-0.6-0.3
								c-0.2-0.3-0.2-0.7,0.1-1l0.3-0.2c1.5-1.1,2.7-2.1,4.9-2.2c0.5,0,1,0,1.5,0c1.6,0,3.5,0,4.6-0.6c0.9-0.4,1.2-1.2,1.7-2.1
								c0.2-0.5,0.5-1,0.8-1.4c0.8-1.1,1.8-1.3,2.5-1.4c0.3,0,0.7,0,1.1,0c0.2,0,0.7,0,0.8,0c0.3-0.2,0.7,0,0.9,0.3
								c0.2,0.3,0,0.8-0.3,0.9c-0.4,0.2-0.9,0.2-1.5,0.1c-0.3,0-0.6,0-0.8,0c-0.8,0.1-1.2,0.4-1.6,0.9c-0.3,0.4-0.5,0.8-0.7,1.3
								c-0.5,1-1,2-2.3,2.7c-1.4,0.7-3.4,0.7-5.2,0.7c-0.5,0-1,0-1.5,0c-1.7,0.1-2.7,0.8-4.1,1.9l-0.3,0.2
								C63.4,42.3,63.2,42.4,63.1,42.4z"/>
							<path class="st4" d="M63.1,42.6c-0.3,0-0.5-0.1-0.7-0.3c-0.3-0.4-0.2-0.9,0.2-1.2l0.3-0.2c1.5-1.1,2.8-2.1,5-2.2
								c0.5,0,1,0,1.5,0c1.5,0,3.4,0,4.5-0.6c0.8-0.4,1.2-1.1,1.6-2c0.2-0.5,0.5-1,0.9-1.5c0.8-1.1,1.8-1.4,2.6-1.5
								c0.3,0,0.7,0,1.1,0c0.2,0,0.6,0,0.7,0c0.4-0.2,0.9,0,1.1,0.4c0.2,0.4,0,0.9-0.4,1.2c-0.2,0.1-0.5,0.2-0.9,0.2
								c-0.2,0-0.5,0-0.7,0c-0.3,0-0.6,0-0.8,0c-0.8,0.1-1.2,0.3-1.5,0.8c-0.3,0.4-0.5,0.8-0.7,1.2c-0.5,1-1.1,2.1-2.4,2.7
								c-1.5,0.7-3.5,0.8-5.3,0.8c-0.5,0-1,0-1.5,0c-1.7,0.1-2.7,0.8-4,1.9l-0.3,0.2C63.4,42.5,63.3,42.6,63.1,42.6z M79.4,33.3
								c-0.1,0-0.3,0-0.4,0c-0.7,0.1-1.7,0.4-2.4,1.4c-0.3,0.5-0.6,0.9-0.8,1.4c-0.5,0.9-0.9,1.7-1.8,2.1c-1.2,0.6-3.1,0.6-4.7,0.6
								c-0.5,0-1.1,0-1.5,0c-2.1,0.1-3.3,1-4.8,2.1l-0.3,0.2c-0.2,0.2-0.3,0.5-0.1,0.7c0.2,0.2,0.5,0.3,0.7,0.1l0.3-0.2
								c1.4-1.1,2.4-1.8,4.2-1.9c0.4,0,0.9,0,1.5,0c1.8,0,3.8,0,5.2-0.7c1.2-0.6,1.7-1.7,2.2-2.6c0.2-0.5,0.4-0.9,0.7-1.3
								c0.4-0.6,0.9-0.8,1.7-1c0.2,0,0.5,0,0.8,0c0.2,0,0.5,0,0.7,0c0.3,0,0.5,0,0.7-0.1c0.3-0.1,0.4-0.4,0.2-0.7
								c-0.1-0.2-0.4-0.4-0.7-0.2l0,0c-0.1,0-0.6,0-0.8,0C79.9,33.3,79.7,33.3,79.4,33.3z"/>
						</g>
					</g>
					<g>
						
							<linearGradient id="SVGID_00000086664010130817161990000000781018379567912877_" gradientUnits="userSpaceOnUse" x1="35.8957" y1="718.5465" x2="59.9852" y2="710.5455" gradientTransform="matrix(1 0 0 1 24.9448 -676.7715)">
							<stop  offset="0" style="stop-color:#9D9D9C"/>
							<stop  offset="1" style="stop-color:#9D9D9C;stop-opacity:0.2"/>
						</linearGradient>
						<path style="fill:url(#SVGID_00000086664010130817161990000000781018379567912877_);" d="M62.5,41.2c-0.3,0-0.5-0.2-0.6-0.4
							c-0.1-0.4,0-0.8,0.4-0.9c0.4-0.1,0.7-0.4,1-0.8c0.5-0.5,1.1-1,2-1.3c1.2-0.3,2.4-0.1,3.5,0c0.2,0,0.5,0.1,0.7,0.1
							c0.4,0,0.8,0,1.2,0c0.5,0,1.1,0,1.6,0.1c0.7,0.1,1.7,0.2,2.3,0.2c0.4,0,0.7,0.3,0.7,0.7c0,0.4-0.3,0.7-0.7,0.7
							c-0.7,0-1.7-0.1-2.5-0.2c-0.4-0.1-0.9-0.1-1.4-0.1c-0.4,0-0.9,0-1.3,0c-0.2,0-0.5,0-0.7-0.1c-1.1-0.1-2.1-0.2-3.1,0
							c-0.5,0.1-1,0.5-1.4,0.9c-0.4,0.4-0.9,0.8-1.5,1C62.6,41.2,62.5,41.2,62.5,41.2z"/>
						<path class="st4" d="M62.5,41.4c-0.4,0-0.7-0.2-0.8-0.6c-0.1-0.2-0.1-0.4,0-0.7c0.1-0.2,0.3-0.4,0.5-0.5
							c0.3-0.1,0.6-0.4,1-0.7c0.5-0.5,1.2-1.1,2.1-1.3c0.5-0.1,1-0.2,1.6-0.2c0.7,0,1.4,0.1,2,0.1c0.3,0,0.5,0.1,0.7,0.1
							c0.2,0,0.4,0,0.7,0c0.1,0,0.3,0,0.4,0c0.2,0,0.3,0,0.4,0c0.3,0,0.8,0,1.2,0.1c0.7,0.1,1.7,0.2,2.3,0.2c0.5,0,0.9,0.4,0.9,0.9
							c0,0.5-0.4,0.9-0.9,0.9c-0.7,0-1.8-0.1-2.6-0.2c-0.3,0-0.7-0.1-0.9-0.1c-0.1,0-0.3,0-0.4,0c-0.2,0-0.3,0-0.5,0
							c-0.4,0-0.6,0-0.9,0c-0.2,0-0.5,0-0.7-0.1l-0.1,0c-0.6-0.1-1.2-0.1-1.8-0.1c-0.5,0-0.8,0-1.2,0.1c-0.5,0.1-0.9,0.5-1.3,0.9
							c-0.4,0.4-0.9,0.8-1.5,1.1C62.7,41.4,62.6,41.4,62.5,41.4z M66.8,37.9c-0.6,0-1.1,0.1-1.5,0.2c-0.9,0.2-1.4,0.7-1.9,1.2
							c-0.4,0.3-0.7,0.6-1.1,0.8c-0.1,0-0.2,0.1-0.3,0.3c-0.1,0.1-0.1,0.3,0,0.4c0.1,0.3,0.4,0.4,0.7,0.3c0.6-0.2,1-0.6,1.4-1
							c0.5-0.4,0.9-0.8,1.5-1c0.4-0.1,0.8-0.1,1.3-0.1c0.6,0,1.3,0.1,1.9,0.1l0.1,0c0.2,0,0.5,0,0.7,0.1c0.3,0,0.5,0,0.9,0
							c0.2,0,0.3,0,0.4,0c0.2,0,0.3,0,0.4,0c0.3,0,0.6,0,1,0.1c0.8,0.1,1.8,0.2,2.5,0.2c0.3,0,0.5-0.2,0.5-0.5s-0.2-0.5-0.5-0.5
							c-0.6,0-1.6-0.1-2.4-0.2c-0.4-0.1-0.8-0.1-1.1-0.1c-0.1,0-0.3,0-0.4,0c-0.5,0-0.9,0-1.2,0c-0.2,0-0.5,0-0.7-0.1
							C68.2,38,67.5,37.9,66.8,37.9z"/>
					</g>
					<g>
						
							<linearGradient id="SVGID_00000133497065895421045410000007197837466158478215_" gradientUnits="userSpaceOnUse" x1="35.7259" y1="718.0327" x2="59.8161" y2="710.0314" gradientTransform="matrix(1 0 0 1 24.9448 -676.7715)">
							<stop  offset="0" style="stop-color:#9D9D9C"/>
							<stop  offset="1" style="stop-color:#9D9D9C;stop-opacity:0.2"/>
						</linearGradient>
						<path style="fill:url(#SVGID_00000133497065895421045410000007197837466158478215_);" d="M74.6,40.5
							C74.6,40.5,74.6,40.5,74.6,40.5c-1.6,0-2.2-1-2.7-1.7c-0.3-0.4-0.6-0.9-1-1.2c-0.4-0.3-1.1-0.2-1.8-0.2c-0.5,0-1,0-1.5-0.1
							c-2.3-0.4-2.7,0.1-4,1.7c-0.2,0.3-0.7,0.3-1,0.1c-0.3-0.2-0.4-0.7-0.1-1c1.3-1.7,2.2-2.8,5.3-2.2c0.3,0.1,0.7,0.1,1.2,0.1
							c0.9,0,1.9,0,2.6,0.5c0.7,0.5,1.1,1.1,1.4,1.6c0.4,0.7,0.7,1.1,1.5,1.1c0.4,0,0.7,0.3,0.7,0.7C75.3,40.2,74.9,40.5,74.6,40.5z
							"/>
						<path class="st4" d="M74.6,40.7L74.6,40.7c-1.7-0.1-2.3-1.1-2.8-1.8c-0.3-0.4-0.5-0.8-1-1.1c-0.3-0.2-1.1-0.2-1.4-0.2l-0.6,0
							c-0.4,0-0.8,0-1.2-0.1c-0.5-0.1-0.9-0.2-1.3-0.2c-1.2,0-1.6,0.5-2.5,1.7c-0.3,0.4-0.9,0.4-1.2,0.1c-0.2-0.1-0.3-0.3-0.3-0.6
							c0-0.2,0-0.5,0.2-0.6c1.1-1.3,1.9-2.4,3.9-2.4c0.5,0,1,0.1,1.6,0.2c0.2,0,0.6,0.1,0.9,0.1l0.6,0c0.8,0,1.7,0,2.4,0.5
							c0.7,0.5,1.1,1.1,1.4,1.6c0.4,0.7,0.6,1,1.4,1c0.5,0,0.9,0.4,0.8,0.9C75.4,40.3,75,40.7,74.6,40.7z M69.4,37.2
							c0.7,0,1.3,0,1.6,0.3c0.5,0.3,0.8,0.8,1.1,1.2c0.5,0.7,1,1.6,2.5,1.6l0,0.2v-0.2c0.3,0,0.5-0.2,0.5-0.5c0-0.3-0.2-0.5-0.5-0.5
							c-0.9,0-1.2-0.5-1.7-1.2c-0.3-0.5-0.7-1.1-1.3-1.5c-0.6-0.4-1.5-0.5-2.2-0.5l-0.6,0c-0.3,0-0.7,0-0.9-0.1
							c-0.6-0.1-1.1-0.2-1.5-0.2c-1.8,0-2.6,0.9-3.6,2.3c-0.1,0.1-0.1,0.2-0.1,0.4c0,0.1,0.1,0.3,0.2,0.3c0.2,0.2,0.6,0.1,0.7-0.1
							c1-1.2,1.5-1.9,2.8-1.9c0.4,0,0.8,0,1.4,0.2c0.4,0.1,0.8,0.1,1.1,0.1L69.4,37.2z"/>
					</g>
					<g>
						
							<linearGradient id="SVGID_00000053545844420110161960000005422979680531543969_" gradientUnits="userSpaceOnUse" x1="48.5214" y1="718.329" x2="53.642" y2="718.329" gradientTransform="matrix(1 0 0 1 24.9448 -676.7715)">
							<stop  offset="0" style="stop-color:#9D9D9C"/>
							<stop  offset="1" style="stop-color:#9D9D9C;stop-opacity:0.2"/>
						</linearGradient>
						<path style="fill:url(#SVGID_00000053545844420110161960000005422979680531543969_);" d="M73.5,38.1c0,0,0-0.4,0.3-0.6
							c0.2-0.1,0.8-0.3,1-0.1c0.3,0.2,1.3,1.6,1.9,3.5c0.6,2.1,1.7,4.2,0.1,4.9c-0.8,0.3-1.4-0.2-1.4-0.2s0.3-0.3,0.5-0.4
							c0.2-0.1,0.3-0.1,0.5-0.3c0.2-0.2,0.1-1.2-0.8-3.4C75,40.1,74.4,38.2,73.5,38.1z"/>
						<path class="st4" d="M76.2,46c-0.6,0-1-0.3-1-0.4l-0.1-0.1l0.1-0.1c0,0,0.3-0.3,0.5-0.4c0.1,0,0.1-0.1,0.2-0.1
							c0.1,0,0.2-0.1,0.3-0.2c0,0,0.2-0.4-0.8-3.2l-0.2-0.4c-0.4-1.2-1-2.8-1.8-2.8l-0.1,0l0-0.1c0,0,0-0.5,0.4-0.8
							c0.3-0.2,0.9-0.3,1.2-0.1c0.4,0.2,1.4,1.8,2,3.6c0.1,0.3,0.2,0.6,0.3,1c0.6,1.8,1.2,3.5-0.3,4.1C76.7,46,76.5,46,76.2,46z
							 M75.7,45.5c0.1,0.1,0.3,0.2,0.6,0.2c0.2,0,0.3,0,0.5-0.1c1.2-0.5,0.7-2,0.1-3.7c-0.1-0.3-0.2-0.6-0.3-1
							c-0.6-1.8-1.5-3.3-1.8-3.4c0,0-0.1,0-0.2,0c-0.2,0-0.5,0.1-0.6,0.2c-0.2,0.1-0.2,0.2-0.2,0.3c0.9,0.2,1.4,1.7,1.9,3l0.2,0.4
							c0.8,2.1,1,3.3,0.7,3.6c-0.1,0.2-0.2,0.2-0.3,0.3c0,0-0.1,0-0.1,0.1C75.9,45.3,75.8,45.4,75.7,45.5z"/>
					</g>
				</g>
				<g>
					<g>
						<g>
							
								<linearGradient id="SVGID_00000169526633625495930690000013377854157361616813_" gradientUnits="userSpaceOnUse" x1="8.7313" y1="716.2257" x2="32.5636" y2="737.2247" gradientTransform="matrix(1 0 0 1 24.9448 -676.7715)">
								<stop  offset="0" style="stop-color:#9D9D9C"/>
								<stop  offset="1" style="stop-color:#9D9D9C;stop-opacity:0.2"/>
							</linearGradient>
							<path style="fill:url(#SVGID_00000169526633625495930690000013377854157361616813_);" d="M27.5,49.9
								c-0.2,1.2-3.7,8.5-3.7,8.5l0.4,1.4c0,0,1.1,0.2,4.8-1.1c1.9-0.7,4.5-1.6,7.7-3.1c9.4-4.4,12.4-3.2,20.1-8.3
								c4.1-2.8,6.8-10.1,6.8-10.1L27.5,49.9z"/>
							<path class="st4" d="M24.4,60.1L24.4,60.1c-0.2,0-0.2,0-0.2,0l-0.2,0l-0.1-0.2l-0.5-1.5l0.1-0.1c1-2,3.5-7.4,3.7-8.4l0-0.2
								l37-13l-0.2,0.7c-0.1,0.3-2.7,7.4-6.9,10.2c-4.4,3-7.4,3.8-10.8,4.8c-2.5,0.8-5.4,1.6-9.4,3.5c-2.5,1.2-5,2.2-7.7,3.1
								C26.2,60,24.9,60.1,24.4,60.1z M24.2,58.4l0.3,1c0.5,0,1.7-0.2,4.4-1.1c2.7-0.9,5.2-1.9,7.7-3.1c4-1.9,6.9-2.8,9.5-3.5
								c3.3-1,6.2-1.9,10.6-4.8c3.3-2.2,5.6-7.3,6.4-9.2L27.8,50.2C27.4,51.8,24.7,57.3,24.2,58.4z"/>
						</g>
						<g>
							
								<linearGradient id="SVGID_00000147189474970439708180000011133244255766216335_" gradientUnits="userSpaceOnUse" x1="-1.1188" y1="725.2599" x2="38.6372" y2="725.2599" gradientTransform="matrix(1 0 0 1 24.9448 -676.7715)">
								<stop  offset="0" style="stop-color:#9D9D9C"/>
								<stop  offset="1" style="stop-color:#9D9D9C;stop-opacity:0.2"/>
							</linearGradient>
							<path style="fill:url(#SVGID_00000147189474970439708180000011133244255766216335_);" d="M29,58.7c1.9-0.7,4.5-1.6,7.7-3.1
								c9.4-4.4,12.4-3.2,20.1-8.3c4.1-2.8,6.8-10.1,6.8-10.1l-0.1,0c-0.6,1.2-4,7.3-7.9,9.5c-1.3,0.7-3.3,1.9-5.4,2.7
								c-4.6,1.9-10.1,3.3-11.6,3.9c-1.3,0.5-5.9,2.7-9.6,4c-2.5,0.9-4.2,0.9-5.3,1l0.4,1.4C24.3,59.8,25.4,59.9,29,58.7z"/>
							<path class="st4" d="M24.4,60.1L24.4,60.1c-0.2,0-0.2,0-0.2,0l-0.2,0l-0.1-0.2l-0.6-1.8l0.4,0c0.1,0,0.3,0,0.4,0
								c1-0.1,2.6-0.2,4.8-1c2.6-0.9,5.7-2.3,7.7-3.2c0.8-0.4,1.5-0.7,1.8-0.8c0.6-0.2,1.6-0.6,3-1c2.4-0.8,5.6-1.8,8.6-3
								c2-0.8,4-1.9,5.2-2.6l0.1,0c3.8-2.1,7.1-8.2,7.7-9.4l0.1-0.1l0.9-0.3l-0.2,0.7c-0.1,0.3-2.7,7.4-6.9,10.2
								c-4.4,3-7.4,3.8-10.8,4.8c-2.5,0.8-5.4,1.6-9.4,3.5c-2.5,1.2-5.1,2.2-7.7,3.1C26.2,60,24.9,60.1,24.4,60.1z M24.3,58.7
								l0.2,0.7c0.5,0,1.7-0.2,4.4-1.1c2.7-0.9,5.2-1.9,7.7-3.1c4-1.9,6.9-2.8,9.5-3.5c3.3-1,6.2-1.9,10.6-4.8
								c1.6-1.1,3-2.9,4.1-4.7c-1.4,1.8-3.1,3.7-4.9,4.8l-0.1,0c-1.3,0.7-3.3,1.8-5.3,2.7c-3,1.2-6.2,2.2-8.6,3
								c-1.3,0.4-2.4,0.8-2.9,1c-0.4,0.1-1,0.4-1.8,0.8c-2.1,0.9-5.2,2.3-7.8,3.2C27,58.5,25.4,58.6,24.3,58.7
								C24.3,58.7,24.3,58.7,24.3,58.7z"/>
						</g>
					</g>
					<g>
						
							<linearGradient id="SVGID_00000085212241372739828160000016237832285308111492_" gradientUnits="userSpaceOnUse" x1="-9.5697" y1="698.5614" x2="50.7632" y2="736.7276" gradientTransform="matrix(1 0 0 1 24.9448 -676.7715)">
							<stop  offset="0" style="stop-color:#9D9D9C"/>
							<stop  offset="1" style="stop-color:#9D9D9C;stop-opacity:0.2"/>
						</linearGradient>
						<path style="fill:url(#SVGID_00000085212241372739828160000016237832285308111492_);" d="M63.6,37c0.1,2.1-16.5,8.1-23,10.6
							c-5.6,2.1-13.2,4.5-13.1,1.9c0.1-1.3-1.7-4.7-1.9-8.3C25.3,35.5,33,32,40.3,28.9c6.4-2.8,14.6-2.3,18.2-0.5
							C60.6,29.4,63.4,33.6,63.6,37z"/>
						<path class="st4" d="M29.4,51.1c-0.9,0-1.5-0.2-1.9-0.6c-0.2-0.2-0.3-0.6-0.3-0.9c0-0.5-0.3-1.4-0.6-2.5
							c-0.5-1.6-1.2-3.7-1.3-5.8c-0.3-6.1,8.1-9.8,14.9-12.7c3-1.3,6.6-2,10.3-2c3.2,0,6.3,0.6,8.1,1.5c2.2,1.1,5.1,5.4,5.3,9
							c0.1,1.7-7.2,4.8-20.6,10c-1,0.4-1.9,0.7-2.6,1C38.3,48.9,32.4,51.1,29.4,51.1z M50.5,27.3c-3.6,0-7.2,0.7-10.1,1.9
							c-6.6,2.8-14.8,6.4-14.5,12c0.1,2.1,0.7,4.1,1.2,5.7c0.4,1.2,0.7,2.1,0.6,2.7c0,0.2,0,0.3,0.1,0.4c0.1,0.2,0.5,0.3,1.4,0.3
							c3,0,8.8-2.1,11.1-3c0.8-0.3,1.6-0.6,2.6-1c3.7-1.4,8.9-3.4,13-5.2c6.8-3,7.1-3.9,7.1-4.1c-0.2-3.3-2.8-7.3-4.9-8.4
							C56.6,27.8,53.6,27.3,50.5,27.3z"/>
					</g>
					
						<linearGradient id="SVGID_00000160183678977831846510000001222884696197031068_" gradientUnits="userSpaceOnUse" x1="3.2616" y1="708.6429" x2="26.0095" y2="719.4547" gradientTransform="matrix(1 0 0 1 24.9448 -676.7715)">
						<stop  offset="0" style="stop-color:#FFFFFF"/>
						<stop  offset="1" style="stop-color:#FFFFFF;stop-opacity:0"/>
					</linearGradient>
					<path style="fill:url(#SVGID_00000160183678977831846510000001222884696197031068_);" d="M28.7,48.3c0,0-2.5-7.2-1.1-9.3
						c1.4-2.2,4.1-4.8,7.1-6c2.9-1.2,2.1-0.9,2.1-0.9s-0.5,1.5,0.7,1.6c1.2,0.1,5.6-0.5,7.1-2.8c1.6-2.2-0.1-1.9-0.1-1.9
						s9.3-2,13.2,0.4c3.9,2.4,3.3,4.8,2.8,6.6C59.9,37.7,30.2,52.9,28.7,48.3z"/>
				</g>
				<g>
					<circle class="st8" cx="61.1" cy="67" r="0.6"/>
					<circle class="st8" cx="63.8" cy="65.5" r="0.6"/>
					<circle class="st8" cx="66.1" cy="63.7" r="0.5"/>
					<circle class="st8" cx="67.9" cy="62.2" r="0.3"/>
					<circle class="st8" cx="69.5" cy="60.5" r="0.3"/>
				</g>
				<g>
					<g>
						
							<linearGradient id="SVGID_00000082329500567750070620000012869330050696684717_" gradientUnits="userSpaceOnUse" x1="35.1861" y1="743.564" x2="37.1212" y2="743.1597" gradientTransform="matrix(1 0 0 1 24.9448 -676.7715)">
							<stop  offset="0" style="stop-color:#9D9D9C"/>
							<stop  offset="1" style="stop-color:#9D9D9C;stop-opacity:0.2"/>
						</linearGradient>
						<circle style="fill:url(#SVGID_00000082329500567750070620000012869330050696684717_);" cx="61" cy="66.6" r="0.6"/>
						<path class="st4" d="M61,67.4c-0.4,0-0.8-0.4-0.8-0.8s0.4-0.8,0.8-0.8s0.8,0.3,0.8,0.8C61.8,67,61.4,67.4,61,67.4z M61,66.2
							c-0.2,0-0.4,0.2-0.4,0.4c0,0.2,0.2,0.4,0.4,0.4c0.2,0,0.4-0.2,0.4-0.4C61.4,66.4,61.2,66.2,61,66.2z"/>
					</g>
					<g>
						
							<linearGradient id="SVGID_00000059297485392886832480000010023271247680739226_" gradientUnits="userSpaceOnUse" x1="38.1562" y1="741.8845" x2="39.3662" y2="741.8845" gradientTransform="matrix(1 0 0 1 24.9448 -676.7715)">
							<stop  offset="0" style="stop-color:#9D9D9C"/>
							<stop  offset="1" style="stop-color:#9D9D9C;stop-opacity:0.2"/>
						</linearGradient>
						<circle style="fill:url(#SVGID_00000059297485392886832480000010023271247680739226_);" cx="63.7" cy="65.1" r="0.6"/>
						<path class="st4" d="M63.7,65.9c-0.4,0-0.8-0.3-0.8-0.8c0-0.4,0.3-0.8,0.8-0.8c0.4,0,0.8,0.3,0.8,0.8
							C64.5,65.5,64.1,65.9,63.7,65.9z M63.7,64.7c-0.2,0-0.4,0.2-0.4,0.4c0,0.2,0.2,0.4,0.4,0.4c0.2,0,0.4-0.2,0.4-0.4
							C64.1,64.9,63.9,64.7,63.7,64.7z"/>
					</g>
					<g>
						
							<linearGradient id="SVGID_00000146459578150228957040000005142985092143847049_" gradientUnits="userSpaceOnUse" x1="40.6062" y1="740.0105" x2="41.5282" y2="740.0105" gradientTransform="matrix(1 0 0 1 24.9448 -676.7715)">
							<stop  offset="0" style="stop-color:#9D9D9C"/>
							<stop  offset="1" style="stop-color:#9D9D9C;stop-opacity:0.2"/>
						</linearGradient>
						<circle style="fill:url(#SVGID_00000146459578150228957040000005142985092143847049_);" cx="66" cy="63.2" r="0.5"/>
						<path class="st4" d="M66,63.9c-0.3,0-0.6-0.3-0.6-0.6c0-0.4,0.3-0.6,0.6-0.6s0.6,0.3,0.6,0.6C66.6,63.6,66.4,63.9,66,63.9z
							 M66,63c-0.2,0-0.3,0.1-0.3,0.3c0,0.2,0.1,0.3,0.3,0.3c0.2,0,0.3-0.1,0.3-0.3C66.3,63.1,66.2,63,66,63z"/>
					</g>
					<g>
						
							<linearGradient id="SVGID_00000011739964400553224240000009548713619444675766_" gradientUnits="userSpaceOnUse" x1="42.5082" y1="738.5115" x2="43.2002" y2="738.5115" gradientTransform="matrix(1 0 0 1 24.9448 -676.7715)">
							<stop  offset="0" style="stop-color:#9D9D9C"/>
							<stop  offset="1" style="stop-color:#9D9D9C;stop-opacity:0.2"/>
						</linearGradient>
						<circle style="fill:url(#SVGID_00000011739964400553224240000009548713619444675766_);" cx="67.8" cy="61.7" r="0.3"/>
						<path class="st4" d="M67.8,62.3c-0.3,0-0.5-0.2-0.5-0.5c0-0.3,0.2-0.5,0.5-0.5c0.3,0,0.5,0.2,0.5,0.5
							C68.3,62,68.1,62.3,67.8,62.3z M67.8,61.6c-0.1,0-0.2,0.1-0.2,0.2c0,0.1,0.1,0.2,0.2,0.2s0.2-0.1,0.2-0.2
							C68,61.6,67.9,61.6,67.8,61.6z"/>
					</g>
					<g>
						
							<linearGradient id="SVGID_00000146500809694186474840000008420378524116535478_" gradientUnits="userSpaceOnUse" x1="44.1242" y1="736.8385" x2="44.8162" y2="736.8385" gradientTransform="matrix(1 0 0 1 24.9448 -676.7715)">
							<stop  offset="0" style="stop-color:#9D9D9C"/>
							<stop  offset="1" style="stop-color:#9D9D9C;stop-opacity:0.2"/>
						</linearGradient>
						<circle style="fill:url(#SVGID_00000146500809694186474840000008420378524116535478_);" cx="69.4" cy="60.1" r="0.3"/>
						<path class="st4" d="M69.4,60.6c-0.3,0-0.5-0.2-0.5-0.5s0.2-0.5,0.5-0.5c0.3,0,0.5,0.2,0.5,0.5S69.7,60.6,69.4,60.6z
							 M69.4,59.9c-0.1,0-0.2,0.1-0.2,0.2c0,0.1,0.1,0.2,0.2,0.2s0.2-0.1,0.2-0.2C69.6,60,69.5,59.9,69.4,59.9z"/>
					</g>
					<circle class="st2" cx="61" cy="66.5" r="0.2"/>
					<circle class="st2" cx="63.6" cy="65" r="0.2"/>
					<circle class="st2" cx="66" cy="63.2" r="0.2"/>
					<circle class="st2" cx="67.8" cy="61.7" r="0.1"/>
					<circle class="st2" cx="69.3" cy="60.1" r="0.1"/>
				</g>
				<g>
					<g>
						<g>
							
								<linearGradient id="SVGID_00000092420523999492456420000010691603140164748460_" gradientUnits="userSpaceOnUse" x1="0.5839" y1="707.6583" x2="43.0876" y2="704.0117" gradientTransform="matrix(1 0 0 1 24.9448 -676.7715)">
								<stop  offset="0" style="stop-color:#9D9D9C"/>
								<stop  offset="1" style="stop-color:#9D9D9C;stop-opacity:0.2"/>
							</linearGradient>
							<path style="fill:url(#SVGID_00000092420523999492456420000010691603140164748460_);" d="M38.1,32.6c0,0-0.6-2.4-1.1-3.2
								c0.7,0,2.7,0.8,2.7,0.8l0.9-3.5l1.6,2l0.4-1.9l1.1,3"/>
							<path class="st4" d="M37.8,32.7c-0.2-0.7-0.7-2.5-1.1-3l-0.4-0.6l0.7,0c0.6,0,1.8,0.5,2.5,0.7l0.9-3.8l1.6,2l0.4-2.4l1.5,4.2
								l-0.7,0.2l-0.7-1.8l-0.3,1.4l-1.6-2.1L40,30.8l-0.4-0.1c-0.4-0.2-1.3-0.5-2-0.7c0.4,1,0.8,2.4,0.8,2.6L37.8,32.7z"/>
						</g>
						
							<linearGradient id="SVGID_00000075161093250702185610000003241145841486201742_" gradientUnits="userSpaceOnUse" x1="12.2629" y1="703.0366" x2="16.2411" y2="701.6528" gradientTransform="matrix(1 0 0 1 24.9448 -676.7715)">
							<stop  offset="0" style="stop-color:#9D9D9C"/>
							<stop  offset="1" style="stop-color:#9D9D9C;stop-opacity:0.2"/>
						</linearGradient>
						<polygon style="fill:url(#SVGID_00000075161093250702185610000003241145841486201742_);" points="36.3,20.4 39.5,31.7 
							42,30.8 37.5,19.9 						"/>
						<path class="st8" d="M37.5,19.9l-1.2,0.4l0.4,1.3c0.5-0.1,0.9-0.2,1.3-0.5L37.5,19.9z"/>
						<path class="st4" d="M39.3,32.2l-3.4-12l1.8-0.7L42.5,31L39.3,32.2z M36.8,20.6l3,10.7l1.8-0.6l-4.3-10.2L36.8,20.6z"/>
						<g>
							
								<linearGradient id="SVGID_00000138542301871220165390000000668046022238779554_" gradientUnits="userSpaceOnUse" x1="8.9852" y1="694.9905" x2="13.3092" y2="694.9905" gradientTransform="matrix(1 0 0 1 24.9448 -676.7715)">
								<stop  offset="0" style="stop-color:#9D9D9C"/>
								<stop  offset="1" style="stop-color:#9D9D9C;stop-opacity:0.2"/>
							</linearGradient>
							
								<circle style="fill:url(#SVGID_00000138542301871220165390000000668046022238779554_);stroke:#636363;stroke-miterlimit:10;" cx="36.1" cy="18.2" r="2.2"/>
							<path class="st4" d="M36.1,20.7c-1.3,0-2.3-1-2.5-2.2c-0.2-1.4,0.8-2.6,2.2-2.8c1.4-0.2,2.6,0.9,2.8,2.2
								c0.2,1.4-0.8,2.6-2.2,2.8C36.3,20.7,36.2,20.7,36.1,20.7z M36.1,16.4c-0.1,0-0.1,0-0.2,0c-1,0.1-1.7,1-1.6,2
								c0.1,1,1,1.7,2,1.6c1-0.1,1.7-1,1.6-2C37.8,17.1,37,16.4,36.1,16.4z"/>
						</g>
						
							<linearGradient id="SVGID_00000115492176510252778200000014479094978012256918_" gradientUnits="userSpaceOnUse" x1="11.0942" y1="694.0527" x2="11.0942" y2="695.5567" gradientTransform="matrix(1 0 0 1 24.9448 -676.7715)">
							<stop  offset="0" style="stop-color:#FFFFFF"/>
							<stop  offset="1" style="stop-color:#FFFFFF;stop-opacity:0"/>
						</linearGradient>
						<path style="fill:url(#SVGID_00000115492176510252778200000014479094978012256918_);" d="M37.4,18.1c0,0.7-0.6,0.6-1.3,0.6
							c-0.7,0-1.3,0.1-1.3-0.6c0-0.7,0.6-1.3,1.3-1.3C36.8,16.8,37.4,17.4,37.4,18.1z"/>
					</g>
					<g>
						
							<linearGradient id="SVGID_00000067916978288531653310000013469857165016339352_" gradientUnits="userSpaceOnUse" x1="0.6459" y1="708.3948" x2="43.1529" y2="704.748" gradientTransform="matrix(1 0 0 1 24.9448 -676.7715)">
							<stop  offset="0" style="stop-color:#9D9D9C"/>
							<stop  offset="1" style="stop-color:#9D9D9C;stop-opacity:0.2"/>
						</linearGradient>
						<path style="fill:url(#SVGID_00000067916978288531653310000013469857165016339352_);" d="M37.9,33.1c0,0-1.2-2-1.7-2.3
							c1.4-0.2,2.9,0.6,2.9,0.6L39,28.6l1.9,1.6c0,0,0.6-1.4,0.9-1.7c0.3-0.3,0.1,1.5,0.5,1.4c0.4-0.1,1-2.3,1-2.3l0.8,2.9"/>
						<path class="st4" d="M37.8,33.2c-0.4-0.8-1.3-2-1.7-2.2l-0.5-0.2l0.6-0.1c1.1-0.2,2.2,0.3,2.7,0.5l-0.1-2.9l2,1.7
							c0.2-0.4,0.6-1.3,0.8-1.5c0.1-0.1,0.2-0.1,0.3-0.1c0.2,0.1,0.2,0.3,0.2,0.7c0,0.2,0,0.6,0.1,0.7c0.2-0.1,0.6-1.1,0.9-2.2
							l0.2-0.6l1,3.5L44,30.6l-0.6-2.3c-0.3,0.8-0.6,1.8-1,1.9c-0.1,0-0.2,0-0.2-0.1c-0.2-0.1-0.2-0.5-0.3-1c0-0.1,0-0.2,0-0.2
							c-0.2,0.4-0.6,1.2-0.7,1.5L41,30.5L39.2,29l0.1,2.7L39,31.6c0,0-1.2-0.6-2.3-0.6c0,0,0,0,0,0c0.6,0.6,1.3,1.9,1.4,2L37.8,33.2
							z"/>
					</g>
				</g>
				<g>
					<ellipse transform="matrix(0.9663 -0.2574 0.2574 0.9663 -12.5784 15.5131)" class="st8" cx="53" cy="55.8" rx="4" ry="3.7"/>
					<g>
						
							<linearGradient id="SVGID_00000026863230493790349200000014739441191597735083_" gradientUnits="userSpaceOnUse" x1="22.2456" y1="731.8791" x2="34.5316" y2="731.8791" gradientTransform="matrix(1 0 0 1 24.9448 -676.7715)">
							<stop  offset="0" style="stop-color:#9D9D9C"/>
							<stop  offset="1" style="stop-color:#9D9D9C;stop-opacity:0.2"/>
						</linearGradient>
						<path style="fill:url(#SVGID_00000026863230493790349200000014739441191597735083_);" d="M56.5,54.1c0.5,2-0.8,4-2.9,4.6
							c-2.1,0.6-4.3-0.6-4.8-2.5c-0.5-2,0.8-4,2.9-4.6C53.8,51,56,52.1,56.5,54.1z"/>
						<path class="st4" d="M52.5,59.2c-1.9,0-3.6-1.2-4-2.9c-0.3-1-0.1-2.1,0.5-3.1c0.6-0.9,1.5-1.6,2.7-1.9
							c0.4-0.1,0.8-0.2,1.2-0.2c1.9,0,3.6,1.2,4,2.9c0.3,1,0.1,2.1-0.5,3.1c-0.6,0.9-1.5,1.6-2.7,1.9C53.3,59.1,52.9,59.2,52.5,59.2
							z M52.8,51.7c-0.3,0-0.7,0-1,0.1c-1,0.3-1.8,0.8-2.3,1.6c-0.5,0.8-0.7,1.7-0.4,2.5c0.4,1.4,1.8,2.4,3.4,2.4c0.3,0,0.7,0,1-0.1
							c1-0.3,1.8-0.8,2.3-1.6c0.5-0.8,0.6-1.7,0.4-2.5C55.8,52.7,54.4,51.7,52.8,51.7z"/>
					</g>
					<g>
						<g>
							
								<linearGradient id="SVGID_00000147904598848502395270000003517461303881368745_" gradientUnits="userSpaceOnUse" x1="26.475" y1="732.2722" x2="35.8184" y2="730.5419" gradientTransform="matrix(1 0 0 1 24.9448 -676.7715)">
								<stop  offset="0" style="stop-color:#9D9D9C"/>
								<stop  offset="1" style="stop-color:#9D9D9C;stop-opacity:0.2"/>
							</linearGradient>
							<circle style="fill:url(#SVGID_00000147904598848502395270000003517461303881368745_);" cx="52.6" cy="55.3" r="1.2"/>
							<path class="st4" d="M52.6,56.7c-0.8,0-1.4-0.6-1.4-1.4c0-0.8,0.6-1.4,1.4-1.4c0.8,0,1.4,0.6,1.4,1.4
								C54,56,53.4,56.7,52.6,56.7z M52.6,54.2c-0.6,0-1,0.5-1,1c0,0.6,0.5,1,1,1s1-0.5,1-1C53.6,54.7,53.2,54.2,52.6,54.2z"/>
						</g>
					</g>
					<path class="st4" d="M55.2,51.9C55.2,51.9,55.2,51.9,55.2,51.9C55.2,51.9,55.2,51.8,55.2,51.9c0.1,0,0.1,0,0.1-0.1
						c0,0,0.1,0,0.1-0.1c0.1-0.1,0.2-0.1,0.3-0.2c0.1-0.1,0.2-0.2,0.3-0.3c0-0.1,0.1-0.1,0.1-0.2c0-0.1,0.1-0.1,0.1-0.2
						c0.1-0.1,0.1-0.3,0.1-0.4c0-0.1,0-0.1,0-0.2c0-0.1,0-0.1,0-0.1c0-0.1,0-0.1,0-0.1s0,0,0.1,0.1c0,0.1,0.1,0.2,0.1,0.3
						c0,0.1,0,0.1,0,0.2c0,0.1,0,0.2,0,0.3c0,0.2-0.1,0.4-0.2,0.5c-0.1,0.2-0.2,0.3-0.4,0.4s-0.3,0.2-0.4,0.3
						c-0.1,0-0.1,0.1-0.2,0.1c-0.1,0-0.1,0-0.2,0c-0.1,0-0.2,0-0.2,0c0,0,0,0,0,0L55.2,51.9z"/>
					<path class="st4" d="M55.8,52.5C55.8,52.5,55.8,52.5,55.8,52.5C55.8,52.5,55.8,52.5,55.8,52.5c0.1,0,0.2,0,0.3,0.1
						c0.2,0,0.4,0,0.7-0.1c0.1,0,0.2-0.1,0.3-0.1s0.2-0.1,0.3-0.2c0.1-0.1,0.1-0.1,0.2-0.2c0,0,0.1-0.1,0.1-0.1c0,0,0,0.1-0.2,0.3
						c-0.1,0.1-0.1,0.2-0.2,0.3c-0.1,0.1-0.2,0.2-0.3,0.2c-0.3,0.1-0.5,0.2-0.8,0.2c-0.1,0-0.2,0-0.3,0c0,0-0.1,0-0.1,0c0,0,0,0,0,0
						L55.8,52.5z"/>
				</g>
				<g>
					<path class="st8" d="M36.9,62.5c0,1.6-1.4,2.9-3.2,2.9S31,63.9,31,62.3s1-2.9,2.7-2.9C35.5,59.3,36.9,60.9,36.9,62.5z"/>
					<g>
						
							<linearGradient id="SVGID_00000145019493538333210610000008889250720537371804_" gradientUnits="userSpaceOnUse" x1="4.6313" y1="738.459" x2="15.066" y2="738.459" gradientTransform="matrix(1 0 0 1 24.9448 -676.7715)">
							<stop  offset="0" style="stop-color:#9D9D9C"/>
							<stop  offset="1" style="stop-color:#9D9D9C;stop-opacity:0.2"/>
						</linearGradient>
						<path style="fill:url(#SVGID_00000145019493538333210610000008889250720537371804_);" d="M36.8,61.8c0,1.6-1.4,2.9-3.2,2.9
							c-1.7,0-2.7-1.5-2.7-3.1c0-1.6,1-2.9,2.7-2.9C35.4,58.6,36.8,60.2,36.8,61.8z"/>
						<path class="st4" d="M33.6,65.1c-2,0-3.1-1.8-3.1-3.5c0-1.9,1.3-3.3,3.1-3.3c1.9,0,3.5,1.6,3.5,3.5
							C37.1,63.6,35.5,65.1,33.6,65.1z M33.6,59c-1.7,0-2.4,1.3-2.4,2.6c0,1.4,0.8,2.8,2.4,2.8c1.5,0,2.8-1.2,2.8-2.6
							C36.4,60.3,35.1,59,33.6,59z"/>
					</g>
					<g>
						<g>
							
								<linearGradient id="SVGID_00000023994343064471647470000017915431876294057115_" gradientUnits="userSpaceOnUse" x1="8.1029" y1="738.6318" x2="16.2303" y2="737.335" gradientTransform="matrix(1 0 0 1 24.9448 -676.7715)">
								<stop  offset="0" style="stop-color:#9D9D9C"/>
								<stop  offset="1" style="stop-color:#9D9D9C;stop-opacity:0.2"/>
							</linearGradient>
							<circle style="fill:url(#SVGID_00000023994343064471647470000017915431876294057115_);" cx="34.4" cy="61.6" r="1"/>
							<path class="st4" d="M34.4,62.8c-0.6,0-1.2-0.5-1.2-1.2c0-0.6,0.5-1.2,1.2-1.2s1.2,0.5,1.2,1.2C35.5,62.3,35,62.8,34.4,62.8z
								 M34.4,60.8c-0.4,0-0.8,0.4-0.8,0.8c0,0.4,0.4,0.8,0.8,0.8s0.8-0.4,0.8-0.8C35.2,61.2,34.8,60.8,34.4,60.8z"/>
						</g>
					</g>
					<path class="st4" d="M31.2,60.3c0,0-0.2,0-0.4,0c-0.1,0-0.2-0.1-0.4-0.1c-0.1,0-0.3-0.1-0.4-0.2c-0.1-0.1-0.2-0.2-0.3-0.3
						c-0.1-0.1-0.1-0.2-0.2-0.3c0-0.1-0.1-0.2-0.1-0.2c0-0.1,0-0.1,0-0.1s0,0,0.1,0.1c0,0.1,0.1,0.1,0.1,0.2c0,0,0.1,0.1,0.1,0.1
						c0,0,0.1,0.1,0.1,0.1c0.1,0.1,0.2,0.1,0.3,0.2c0.2,0.1,0.5,0.2,0.7,0.2c0.2,0,0.3,0,0.3,0L31.2,60.3z"/>
					<path class="st4" d="M31,61.3C31,61.3,30.9,61.3,31,61.3c-0.1,0-0.2,0-0.3,0c-0.1,0-0.2,0-0.3,0c-0.1,0-0.1,0-0.2,0
						c-0.1,0-0.1,0-0.1-0.1L30,61.1c0,0-0.1-0.1-0.1-0.1c0,0-0.1-0.1-0.1-0.1c0,0,0-0.1-0.1-0.1c-0.1-0.1-0.1-0.2-0.1-0.2
						s0.1,0.1,0.2,0.2c0,0,0,0.1,0.1,0.1c0,0,0.1,0,0.1,0.1c0,0,0.1,0,0.1,0.1l0.1,0c0.1,0,0.2,0,0.2,0c0.1,0,0.2,0,0.2,0
						c0.1,0,0.1,0,0.1,0c0,0,0.1,0,0.1,0L31,61.3z"/>
				</g>
			</g>
		</g>
	</g>
</g>
</svg>
