<?xml version="1.0" encoding="utf-8"?>
<!-- Generator: Adobe Illustrator 16.0.0, SVG Export Plug-In . SVG Version: 6.00 Build 0)  -->
<!DOCTYPE svg PUBLIC "-//W3C//DTD SVG 1.1//EN" "http://www.w3.org/Graphics/SVG/1.1/DTD/svg11.dtd">
<svg version="1.1" id="Layer_1" xmlns="http://www.w3.org/2000/svg" xmlns:xlink="http://www.w3.org/1999/xlink" x="0px" y="0px"
	 width="99.869px" height="99.868px" viewBox="0 0 99.869 99.868" enable-background="new 0 0 99.869 99.868" xml:space="preserve">
<g opacity="0.7">
	<g>
		<g>
			<path fill="#636363" d="M47.955,99.833c-1.1-0.05-1.96-0.979-1.92-2.08l0,0c0.04-1.1,0.97-1.96,2.08-1.92l0,0
				c1.1,0.04,1.96,0.971,1.92,2.08l0,0c-0.04,1.07-0.93,1.92-2,1.92l0,0C48.004,99.833,47.984,99.833,47.955,99.833z M50.044,97.914
				c-0.04-1.109,0.81-2.04,1.92-2.09h-0.011c1.11-0.05,2.04,0.811,2.09,1.91l0,0c0.051,1.1-0.81,2.04-1.909,2.09l0,0
				c-0.03,0-0.061,0-0.091,0l0,0C50.975,99.824,50.094,98.984,50.044,97.914z M43.794,99.494c-1.1-0.14-1.88-1.13-1.74-2.229l0,0
				c0.13-1.101,1.13-1.87,2.22-1.74l0,0c1.1,0.13,1.88,1.13,1.75,2.229l0,0c-0.13,1.011-0.99,1.761-1.99,1.761l0,0
				C43.955,99.514,43.875,99.503,43.794,99.494z M54.064,97.734c-0.15-1.09,0.63-2.1,1.729-2.23l0,0
				c1.091-0.14,2.091,0.631,2.23,1.73l0,0c0.14,1.09-0.63,2.09-1.73,2.23l0,0l0,0l0,0c-0.079,0.01-0.17,0.02-0.25,0.02l0,0
				C55.044,99.484,54.185,98.744,54.064,97.734z M39.665,98.814c-1.08-0.23-1.77-1.29-1.54-2.37l0,0c0.22-1.08,1.28-1.77,2.36-1.55
				l0,0c1.08,0.229,1.78,1.29,1.55,2.37l0,0c-0.2,0.939-1.03,1.59-1.96,1.59l0,0C39.944,98.854,39.804,98.844,39.665,98.814z
				 M58.044,97.224c-0.229-1.08,0.46-2.141,1.54-2.37l0,0c1.08-0.23,2.141,0.46,2.37,1.54l0,0c0.23,1.08-0.46,2.14-1.54,2.37l0,0
				c-0.14,0.029-0.279,0.05-0.42,0.05l0,0C59.074,98.814,58.244,98.164,58.044,97.224z M35.614,97.784
				c-1.06-0.319-1.66-1.43-1.34-2.49l0,0c0.31-1.06,1.43-1.659,2.49-1.34l0,0c1.05,0.311,1.65,1.431,1.34,2.49l0,0
				c-0.26,0.86-1.05,1.42-1.92,1.42l0,0C35.995,97.864,35.804,97.844,35.614,97.784z M61.965,96.394
				c-0.32-1.061,0.279-2.18,1.34-2.5l0,0c1.05-0.32,2.17,0.27,2.489,1.33l0,0c0.32,1.06-0.27,2.18-1.329,2.5l0,0
				c-0.19,0.06-0.391,0.08-0.58,0.08l0,0C63.024,97.804,62.234,97.253,61.965,96.394z M31.665,96.414c0,0,0,0,0,0.011l0,0
				c-1.03-0.41-1.54-1.57-1.13-2.601l0,0c0.4-1.03,1.56-1.53,2.59-1.13l0,0c1.03,0.41,1.54,1.57,1.13,2.6l0,0
				c-0.31,0.78-1.06,1.261-1.86,1.261l0,0C32.154,96.554,31.904,96.514,31.665,96.414z M65.814,95.224
				c-0.41-1.03,0.09-2.19,1.11-2.601l0,0c1.029-0.409,2.199,0.091,2.6,1.12l0,0c0.41,1.021-0.09,2.19-1.11,2.601l0,0
				c0,0,0,0,0-0.011l0,0c-0.25,0.101-0.5,0.15-0.739,0.15l0,0C66.874,96.484,66.124,96.003,65.814,95.224z M27.834,94.724
				c-0.99-0.49-1.39-1.69-0.9-2.681l0,0c0.49-0.989,1.69-1.39,2.68-0.899l0,0c0.99,0.479,1.39,1.68,0.9,2.68l0,0
				c-0.35,0.7-1.06,1.11-1.79,1.11l0,0C28.424,94.934,28.125,94.864,27.834,94.724z M69.534,93.734c-0.49-0.99-0.09-2.19,0.9-2.68
				l0,0c0.99-0.5,2.189-0.101,2.68,0.89l0,0c0.5,0.99,0.101,2.19-0.89,2.69l0,0l0,0l0,0c-0.29,0.14-0.59,0.21-0.891,0.21l0,0
				C70.595,94.844,69.895,94.434,69.534,93.734z M24.174,92.714L24.174,92.714L24.174,92.714c-0.95-0.57-1.26-1.801-0.68-2.74l0,0
				c0.57-0.95,1.8-1.25,2.74-0.681l0,0c0.95,0.57,1.25,1.801,0.68,2.74l0,0c-0.38,0.63-1.04,0.97-1.71,0.97l0,0
				C24.854,93.003,24.495,92.914,24.174,92.714z M73.124,91.944c-0.569-0.95-0.27-2.18,0.67-2.75l0,0
				c0.95-0.58,2.181-0.28,2.75,0.66l0,0c0.58,0.95,0.28,2.18-0.659,2.76l0,0c0,0,0,0-0.011,0l0,0c-0.319,0.19-0.68,0.29-1.029,0.29
				l0,0C74.164,92.904,73.504,92.554,73.124,91.944z M20.685,90.414c-0.89-0.649-1.1-1.899-0.45-2.8l0,0
				c0.65-0.89,1.9-1.09,2.8-0.45l0,0c0.89,0.65,1.09,1.9,0.44,2.801l0,0c-0.39,0.539-1,0.829-1.62,0.829l0,0
				C21.444,90.793,21.034,90.664,20.685,90.414z M76.555,89.854c-0.65-0.9-0.45-2.15,0.439-2.8l0,0
				c0.891-0.65,2.141-0.46,2.79,0.439l0,0c0.66,0.891,0.46,2.141-0.43,2.79l0,0c-0.36,0.26-0.771,0.391-1.18,0.391l0,0
				C77.555,90.674,76.954,90.384,76.555,89.854z M17.404,87.814c-0.84-0.72-0.93-1.98-0.21-2.811l0,0
				c0.72-0.84,1.98-0.939,2.82-0.22l0,0c0.83,0.72,0.93,1.98,0.21,2.82l0,0c-0.4,0.46-0.96,0.7-1.52,0.7l0,0
				C18.245,88.304,17.784,88.144,17.404,87.814z M79.805,87.484c-0.73-0.84-0.641-2.1,0.199-2.82l0,0
				c0.83-0.729,2.101-0.64,2.82,0.2l0,0c0.72,0.83,0.63,2.09-0.2,2.82l0,0l0,0l0,0c-0.38,0.33-0.85,0.49-1.31,0.49l0,0
				C80.754,88.174,80.194,87.934,79.805,87.484z M14.354,84.964c-0.78-0.79-0.77-2.051,0.02-2.83l0,0
				c0.78-0.771,2.05-0.761,2.83,0.029l0,0c0.77,0.78,0.76,2.051-0.03,2.82l0,0c-0.39,0.39-0.89,0.58-1.4,0.58l0,0
				C15.254,85.564,14.745,85.364,14.354,84.964z M82.834,84.854c-0.79-0.771-0.8-2.04-0.029-2.83l0,0c0.77-0.79,2.04-0.81,2.83-0.04
				l0,0c0.79,0.78,0.8,2.04,0.029,2.83l0,0l0,0l0,0c-0.39,0.4-0.91,0.6-1.43,0.6l0,0C83.734,85.414,83.225,85.234,82.834,84.854z
				 M11.544,81.864c-0.71-0.84-0.59-2.11,0.26-2.81l0,0c0.85-0.71,2.11-0.601,2.81,0.25v0.01c0.71,0.84,0.6,2.1-0.25,2.81l0,0
				c-0.38,0.311-0.83,0.46-1.28,0.46l0,0C12.504,82.583,11.944,82.344,11.544,81.864z M85.645,81.974
				c-0.86-0.7-0.98-1.96-0.271-2.811l0,0c0.7-0.859,1.96-0.979,2.811-0.27l0,0c0.859,0.7,0.979,1.96,0.27,2.81l0,0
				c-0.39,0.48-0.96,0.73-1.54,0.73l0,0C86.465,82.434,86.015,82.284,85.645,81.974z M9.004,78.543
				c-0.63-0.899-0.41-2.149,0.49-2.779l0,0c0.91-0.63,2.15-0.42,2.79,0.489l0,0c0.63,0.9,0.41,2.15-0.49,2.78l0,0
				c-0.35,0.25-0.75,0.37-1.15,0.37l0,0C10.014,79.404,9.395,79.104,9.004,78.543z M88.204,78.874c-0.91-0.63-1.14-1.87-0.51-2.779
				l0,0c0.63-0.91,1.88-1.13,2.79-0.5l0,0c0.9,0.63,1.13,1.87,0.5,2.779l0,0l0,0l0,0c-0.39,0.561-1.02,0.86-1.65,0.86l0,0
				C88.944,79.234,88.544,79.124,88.204,78.874z M6.754,75.024L6.754,75.024L6.754,75.024c-0.56-0.95-0.23-2.17,0.72-2.73l0,0
				c0.96-0.56,2.18-0.229,2.74,0.721l0,0c0.55,0.96,0.23,2.18-0.73,2.739l0,0c-0.31,0.181-0.66,0.271-1,0.271l0,0
				C7.794,76.024,7.125,75.664,6.754,75.024z M90.494,75.574c-0.96-0.55-1.29-1.77-0.74-2.729l0,0c0.551-0.96,1.78-1.28,2.73-0.73
				l0,0c0.96,0.55,1.29,1.771,0.74,2.73l0,0c-0.37,0.64-1.05,1-1.74,1l0,0C91.145,75.844,90.805,75.753,90.494,75.574z
				 M4.804,71.333c-0.47-1-0.05-2.189,0.95-2.67l0,0c1-0.47,2.19-0.05,2.66,0.95l0,0c0.48,1,0.05,2.19-0.94,2.67l0,0
				c-0.28,0.13-0.57,0.19-0.86,0.19l0,0C5.864,72.474,5.145,72.054,4.804,71.333z M92.494,72.094c-1-0.471-1.43-1.66-0.96-2.66l0,0
				c0.47-1,1.66-1.431,2.66-0.96l0,0c1,0.47,1.43,1.66,0.96,2.66l0,0l0,0l0,0c-0.34,0.729-1.06,1.149-1.81,1.149l0,0
				C93.064,72.284,92.774,72.224,92.494,72.094z M3.174,67.484c-0.39-1.03,0.13-2.19,1.17-2.57l0,0c1.03-0.39,2.18,0.13,2.57,1.17
				l0,0c0.39,1.03-0.13,2.181-1.17,2.57l0,0c-0.23,0.09-0.47,0.13-0.7,0.13l0,0C4.234,68.784,3.475,68.284,3.174,67.484z
				 M94.204,68.454c-1.04-0.38-1.56-1.529-1.18-2.56l0,0c0.38-1.04,1.53-1.57,2.57-1.19l0,0c1.029,0.391,1.56,1.54,1.18,2.57l0,0
				l0,0l0,0c-0.3,0.81-1.07,1.31-1.88,1.31l0,0C94.664,68.583,94.435,68.543,94.204,68.454z M1.875,63.514
				c-0.3-1.061,0.31-2.17,1.38-2.471l0,0c1.06-0.3,2.16,0.32,2.46,1.381l0,0c0.3,1.069-0.31,2.17-1.38,2.47l0,0
				c-0.18,0.05-0.36,0.08-0.54,0.08l0,0C2.924,64.974,2.114,64.394,1.875,63.514z M95.595,64.694c-1.061-0.29-1.69-1.4-1.391-2.46
				l0,0c0.3-1.07,1.4-1.69,2.46-1.4l0,0c1.07,0.301,1.69,1.4,1.391,2.471l0,0c0,0,0,0,0.01,0l0,0c-0.25,0.88-1.061,1.46-1.93,1.46
				l0,0C95.954,64.764,95.774,64.744,95.595,64.694z M0.904,59.444c-0.21-1.08,0.5-2.13,1.59-2.34l0,0c1.08-0.21,2.13,0.5,2.34,1.58
				l0,0c0.21,1.09-0.5,2.14-1.59,2.35l0,0c-0.12,0.021-0.25,0.03-0.38,0.03l0,0C1.924,61.064,1.094,60.404,0.904,59.444z
				 M96.664,60.824c-1.08-0.21-1.79-1.25-1.59-2.33l0,0c0.2-1.09,1.25-1.81,2.34-1.6l0,0c1.08,0.2,1.79,1.25,1.59,2.33l0,0l0,0l0,0
				c-0.18,0.96-1.02,1.63-1.96,1.63l0,0C96.914,60.854,96.794,60.844,96.664,60.824z M0.284,55.314c-0.11-1.1,0.68-2.09,1.78-2.2
				l0,0c1.1-0.12,2.08,0.67,2.2,1.771l0,0c0.12,1.1-0.68,2.09-1.78,2.199l0,0c-0.07,0.011-0.14,0.011-0.21,0.011l0,0
				C1.264,57.094,0.395,56.333,0.284,55.314z M97.414,56.874c-1.1-0.109-1.899-1.09-1.79-2.189l0,0c0.11-1.101,1.101-1.9,2.2-1.79
				l0,0c1.09,0.12,1.891,1.1,1.78,2.2l0,0l0,0l0,0c-0.11,1.029-0.97,1.79-1.98,1.79l0,0C97.555,56.884,97.484,56.884,97.414,56.874z
				 M0.014,51.144L0.014,51.144L0.014,51.144c-0.03-1.1,0.85-2.02,1.95-2.05l0,0c1.1-0.02,2.02,0.85,2.05,1.95v0.011
				c0.02,1.1-0.85,2.01-1.95,2.04l0,0c-0.02,0-0.04,0-0.05,0l0,0C0.924,53.094,0.034,52.234,0.014,51.144z M97.824,52.884
				c-1.109-0.021-1.99-0.931-1.96-2.04l0,0c0.021-1.1,0.93-1.98,2.03-1.96l0,0c1.109,0.02,1.99,0.93,1.97,2.041l0,0l0,0l0,0
				c-0.03,1.09-0.92,1.96-2,1.96l0,0C97.845,52.884,97.834,52.884,97.824,52.884z M1.964,49.084c-1.1-0.07-1.94-1.01-1.88-2.12l0,0
				c0.07-1.1,1.01-1.94,2.12-1.88l0,0c1.1,0.07,1.94,1.01,1.87,2.12l0,0c-0.06,1.06-0.94,1.88-1.99,1.88l0,0
				C2.044,49.084,2.004,49.084,1.964,49.084z M95.774,46.994c-0.07-1.1,0.77-2.05,1.87-2.12l0,0c1.109-0.07,2.06,0.77,2.13,1.87l0,0
				c0.06,1.1-0.771,2.05-1.87,2.12l0,0c-0.05,0.01-0.09,0.01-0.13,0.01l0,0C96.725,48.874,95.845,48.054,95.774,46.994z
				 M2.205,45.074c-1.1-0.16-1.86-1.17-1.7-2.26l0,0c0.16-1.1,1.17-1.86,2.26-1.7l0,0c1.09,0.15,1.86,1.17,1.7,2.26l0,0
				c-0.14,1-1,1.72-1.98,1.72l0,0C2.395,45.094,2.294,45.084,2.205,45.074z M95.374,43.174c-0.159-1.09,0.601-2.11,1.69-2.27l0,0
				c1.09-0.16,2.11,0.59,2.27,1.69l0,0c0.16,1.09-0.6,2.11-1.689,2.27l0,0c-0.101,0.01-0.19,0.02-0.29,0.02l0,0
				C96.374,44.884,95.524,44.164,95.374,43.174z M2.764,41.094c-1.07-0.24-1.74-1.32-1.49-2.39l0,0c0,0,0,0-0.01,0l0,0
				c0.25-1.08,1.33-1.75,2.4-1.51l0,0c1.08,0.25,1.75,1.33,1.5,2.4l0,0c-0.21,0.93-1.04,1.55-1.95,1.55l0,0
				C3.074,41.144,2.924,41.134,2.764,41.094z M94.654,39.404c-0.25-1.08,0.42-2.16,1.49-2.41l0,0c1.08-0.25,2.149,0.42,2.41,1.49
				l0,0c0.25,1.08-0.42,2.15-1.49,2.4l0,0c-0.16,0.04-0.311,0.06-0.46,0.06l0,0C95.694,40.944,94.874,40.324,94.654,39.404z
				 M3.674,37.184c-1.06-0.34-1.64-1.46-1.3-2.52l0,0c0.34-1.05,1.47-1.63,2.52-1.29l0,0c1.05,0.34,1.63,1.46,1.29,2.52l0,0
				c-0.27,0.85-1.06,1.39-1.9,1.39l0,0C4.084,37.284,3.875,37.244,3.674,37.184z M93.624,35.694L93.624,35.694
				c-0.34-1.05,0.23-2.18,1.28-2.52l0,0c1.05-0.34,2.18,0.23,2.521,1.28l0,0l0,0l0,0c0.34,1.05-0.23,2.18-1.28,2.53l0,0
				c-0.21,0.06-0.42,0.09-0.62,0.09l0,0C94.675,37.074,93.895,36.544,93.624,35.694z M4.895,33.354c-1.02-0.42-1.5-1.59-1.07-2.61
				l0,0l0,0l0,0c0.42-1.02,1.59-1.5,2.61-1.08l0,0c1.02,0.43,1.5,1.6,1.08,2.62l0,0c-0.32,0.76-1.07,1.23-1.85,1.23l0,0
				C5.415,33.514,5.145,33.464,4.895,33.354z M92.274,32.094c-0.42-1.01,0.05-2.19,1.07-2.62l0,0c1.02-0.42,2.189,0.05,2.62,1.07
				l0,0c0.43,1.02-0.051,2.19-1.07,2.62l0,0c-0.25,0.11-0.51,0.16-0.771,0.16l0,0C93.345,33.324,92.604,32.864,92.274,32.094z
				 M6.444,29.644c-0.98-0.5-1.36-1.71-0.85-2.69l0,0c0.51-0.98,1.71-1.36,2.69-0.85l0,0c0.98,0.5,1.37,1.71,0.86,2.69l0,0
				c-0.36,0.69-1.06,1.08-1.78,1.08l0,0C7.054,29.874,6.734,29.804,6.444,29.644z M90.635,28.624c-0.511-0.98-0.131-2.19,0.85-2.7
				l0,0c0.97-0.51,2.18-0.14,2.7,0.84l0,0c0,0,0,0-0.01,0l0,0c0.52,0.98,0.14,2.19-0.841,2.7l0,0c-0.29,0.16-0.609,0.23-0.92,0.23
				l0,0C91.694,29.694,90.994,29.304,90.635,28.624z M8.294,26.084c-0.93-0.59-1.21-1.82-0.62-2.76l0,0l0,0l0,0
				c0.59-0.93,1.82-1.21,2.76-0.62l0,0c0.93,0.59,1.21,1.82,0.62,2.75l0,0c-0.38,0.61-1.03,0.94-1.69,0.94l0,0
				C8.995,26.394,8.625,26.294,8.294,26.084z M88.715,25.294L88.715,25.294c-0.601-0.93-0.32-2.17,0.609-2.76l0,0
				c0.93-0.59,2.17-0.32,2.76,0.62l0,0c0,0,0,0,0-0.01l0,0c0.591,0.94,0.32,2.17-0.609,2.77l0,0c-0.34,0.21-0.71,0.31-1.07,0.31l0,0
				C89.744,26.224,89.095,25.894,88.715,25.294z M10.444,22.684c-0.88-0.66-1.06-1.92-0.4-2.8l0,0c0.67-0.88,1.92-1.06,2.81-0.39
				l0,0c0.88,0.67,1.05,1.92,0.39,2.8l0,0c-0.4,0.52-0.99,0.8-1.6,0.8l0,0C11.225,23.094,10.804,22.964,10.444,22.684z
				 M86.515,22.144c-0.67-0.88-0.5-2.14,0.38-2.8l0,0c0.88-0.67,2.13-0.5,2.8,0.38l0,0c0.67,0.88,0.5,2.13-0.38,2.8l0,0
				c-0.36,0.27-0.79,0.41-1.21,0.41l0,0C87.504,22.934,86.904,22.664,86.515,22.144z M12.864,19.484c-0.83-0.74-0.9-2-0.16-2.83l0,0
				l0,0l0,0c0.74-0.82,2-0.89,2.82-0.16l0,0c0.83,0.74,0.9,2,0.16,2.83l0,0c-0.4,0.44-0.94,0.67-1.49,0.67l0,0
				C13.714,19.994,13.245,19.824,12.864,19.484z M84.055,19.184c-0.74-0.82-0.67-2.09,0.149-2.83l0,0c0.82-0.74,2.08-0.67,2.82,0.15
				l0,0c0.74,0.82,0.68,2.09-0.14,2.82l0,0c-0.381,0.35-0.86,0.52-1.341,0.52l0,0C84.994,19.844,84.454,19.624,84.055,19.184z
				 M15.534,16.484c-0.75-0.8-0.72-2.06,0.08-2.82l0,0c0.8-0.76,2.07-0.73,2.83,0.07l0,0c0.76,0.81,0.72,2.07-0.08,2.83l0,0
				c-0.39,0.37-0.88,0.55-1.37,0.55l0,0C16.464,17.114,15.935,16.904,15.534,16.484z M81.364,16.434c-0.81-0.75-0.84-2.02-0.09-2.82
				l0,0c0.76-0.81,2.02-0.85,2.83-0.09l0,0l0,0l0,0c0.8,0.75,0.84,2.02,0.09,2.82l0,0c-0.4,0.42-0.93,0.63-1.46,0.63l0,0
				C82.244,16.974,81.754,16.794,81.364,16.434z M18.455,13.724c-0.69-0.86-0.55-2.12,0.31-2.81l0,0c0,0,0,0,0.01,0l0,0
				c0.86-0.69,2.12-0.55,2.81,0.31l0,0c0.69,0.87,0.54,2.13-0.32,2.82l0,0c-0.37,0.29-0.81,0.43-1.25,0.43l0,0
				C19.435,14.474,18.854,14.224,18.455,13.724z M78.454,13.924L78.454,13.924c-0.87-0.69-1.01-1.95-0.33-2.81l0,0
				c0.69-0.87,1.95-1.01,2.82-0.33l0,0c0.86,0.69,1,1.95,0.32,2.82l0,0c-0.391,0.49-0.98,0.75-1.57,0.75l0,0
				C79.265,14.354,78.824,14.214,78.454,13.924z M21.594,11.224c-0.62-0.92-0.37-2.16,0.54-2.78l0,0c0.92-0.62,2.16-0.37,2.78,0.55
				l0,0c0.61,0.91,0.37,2.16-0.55,2.77l0,0c-0.34,0.23-0.73,0.34-1.11,0.34l0,0C22.614,12.104,21.975,11.794,21.594,11.224z
				 M75.345,11.664v-0.01c-0.92-0.61-1.17-1.85-0.561-2.77l0,0c0.61-0.92,1.851-1.17,2.771-0.56l0,0c0,0,0,0,0.01,0l0,0
				c0.91,0.62,1.16,1.86,0.55,2.78l0,0c-0.38,0.58-1.02,0.89-1.67,0.89l0,0C76.064,11.994,75.685,11.884,75.345,11.664z
				 M24.924,8.984c-0.53-0.97-0.19-2.18,0.78-2.72l0,0c0.96-0.54,2.18-0.19,2.72,0.78l0,0c0.53,0.96,0.19,2.18-0.78,2.71l0,0
				c-0.31,0.18-0.64,0.26-0.97,0.26l0,0C25.975,10.014,25.294,9.644,24.924,8.984z M72.055,9.664c-0.971-0.53-1.32-1.75-0.79-2.71
				l0,0c0.529-0.97,1.75-1.33,2.72-0.79l0,0l0,0l0,0c0.97,0.53,1.32,1.74,0.79,2.71l0,0c-0.37,0.66-1.05,1.04-1.76,1.04l0,0
				C72.694,9.914,72.364,9.834,72.055,9.664z M28.435,7.034c-0.45-1.01-0.01-2.19,1-2.65l0,0c1.01-0.45,2.19,0,2.65,1.01l0,0
				c0.45,1,0,2.19-1,2.64l0,0c-0.27,0.12-0.55,0.18-0.83,0.18l0,0C29.495,8.214,28.764,7.774,28.435,7.034z M68.604,7.954h0.01
				c-1.01-0.45-1.47-1.63-1.02-2.64l0,0c0.449-1.01,1.63-1.46,2.64-1.01l0,0c1.01,0.45,1.47,1.63,1.01,2.64l0,0
				c-0.33,0.74-1.06,1.18-1.819,1.18l0,0C69.154,8.124,68.874,8.074,68.604,7.954z M32.094,5.384c-0.37-1.04,0.18-2.18,1.22-2.55
				l0,0c1.04-0.37,2.18,0.18,2.55,1.22l0,0c0.37,1.04-0.18,2.18-1.22,2.55l0,0c-0.22,0.08-0.44,0.11-0.66,0.11l0,0
				C33.154,6.714,32.384,6.204,32.094,5.384z M65.034,6.534c-1.04-0.36-1.6-1.5-1.229-2.54l0,0c0.359-1.05,1.5-1.6,2.54-1.24l0,0
				c1.05,0.37,1.6,1.51,1.229,2.55l0,0c-0.28,0.83-1.06,1.35-1.88,1.35l0,0C65.475,6.654,65.254,6.614,65.034,6.534z M35.884,4.054
				c-0.28-1.07,0.36-2.17,1.43-2.45l0,0c1.07-0.27,2.16,0.37,2.44,1.44l0,0c0.27,1.07-0.36,2.16-1.43,2.43v0.01
				c-0.17,0.04-0.34,0.06-0.51,0.06l0,0C36.924,5.544,36.114,4.944,35.884,4.054z M61.354,5.434c-1.07-0.28-1.72-1.37-1.44-2.44l0,0
				c0.271-1.07,1.36-1.71,2.431-1.44l0,0l0,0l0,0c1.069,0.27,1.72,1.36,1.439,2.43l0,0c-0.229,0.91-1.04,1.51-1.939,1.51l0,0
				C61.685,5.494,61.515,5.474,61.354,5.434z M39.764,3.034c-0.18-1.09,0.55-2.12,1.63-2.31l0,0c1.09-0.19,2.13,0.54,2.32,1.63l0,0
				c0.18,1.09-0.55,2.13-1.64,2.31l0,0c-0.11,0.02-0.22,0.03-0.34,0.03l0,0C40.784,4.694,39.935,4.014,39.764,3.034z M57.595,4.634
				c-1.091-0.18-1.83-1.21-1.641-2.3l0,0c0.181-1.09,1.21-1.83,2.3-1.65l0,0c0,0,0,0,0,0.01l0,0c1.091,0.18,1.82,1.21,1.641,2.3l0,0
				c-0.16,0.98-1.01,1.67-1.97,1.67l0,0C57.814,4.664,57.704,4.654,57.595,4.634z M43.725,2.354c-0.1-1.1,0.72-2.07,1.82-2.16l0,0
				c1.1-0.1,2.07,0.71,2.16,1.81l0,0c0.1,1.1-0.71,2.07-1.81,2.17l0,0c-0.06,0-0.12,0.01-0.18,0.01l0,0
				C44.685,4.184,43.814,3.394,43.725,2.354z M53.774,4.154L53.774,4.154c-1.1-0.09-1.92-1.05-1.82-2.15l0,0
				c0.08-1.11,1.05-1.92,2.15-1.83l0,0c1.1,0.09,1.92,1.05,1.83,2.15l0,0c-0.09,1.05-0.96,1.84-1.99,1.84l0,0
				C53.895,4.164,53.834,4.164,53.774,4.154z M47.725,2.004c0-1.1,0.89-2,1.99-2l0,0c0.04,0,0.08,0,0.12,0l0,0c0.03,0,0.07,0,0.1,0
				l0,0c1.109,0,2,0.89,2,2l0,0c0,1.1-0.891,2-2,2l0,0c-0.03,0-0.07-0.01-0.11-0.01l0,0c-0.03,0-0.06,0.01-0.09,0.01l0,0h-0.01l0,0
				C48.625,4.004,47.725,3.114,47.725,2.004z"/>
		</g>
	</g>
	<g>
		<g>
			<path fill="#636363" d="M47.984,92.114c-0.55-0.03-0.98-0.49-0.95-1.04l0,0c0.02-0.56,0.49-0.979,1.04-0.96l0,0
				c0.56,0.03,0.98,0.49,0.96,1.05l0,0c-0.03,0.53-0.47,0.95-1,0.95l0,0C48.014,92.114,48.004,92.114,47.984,92.114z M51.015,91.154
				c-0.03-0.55,0.399-1.02,0.95-1.05l0,0c0.55-0.021,1.02,0.399,1.05,0.95l0,0c0.02,0.55-0.4,1.02-0.95,1.05l0,0l0,0l0,0
				c-0.021,0-0.03,0-0.05,0l0,0C51.484,92.104,51.044,91.694,51.015,91.154z M43.924,91.734L43.924,91.734L43.924,91.734
				c-0.54-0.08-0.92-0.59-0.84-1.13l0,0c0.07-0.55,0.58-0.93,1.13-0.851l0,0c0.54,0.08,0.92,0.58,0.85,1.131l0,0
				c-0.08,0.5-0.51,0.859-1,0.859l0,0C44.024,91.744,43.975,91.744,43.924,91.734z M54.984,90.864c-0.08-0.55,0.3-1.06,0.85-1.14
				l0,0c0.54-0.08,1.051,0.3,1.131,0.85l0,0c0.079,0.55-0.301,1.05-0.841,1.13l0,0c-0.05,0.011-0.1,0.011-0.149,0.011l0,0
				C55.484,91.714,55.064,91.364,54.984,90.864z M39.924,90.964c-0.54-0.131-0.87-0.671-0.74-1.211l0,0
				c0.13-0.529,0.68-0.869,1.21-0.729l0,0c0.54,0.13,0.87,0.67,0.74,1.2l0,0c-0.11,0.46-0.52,0.77-0.97,0.77l0,0
				C40.084,90.994,40.004,90.984,39.924,90.964z M58.914,90.194c-0.14-0.54,0.19-1.08,0.73-1.21l0,0c0.53-0.14,1.07,0.19,1.21,0.73
				l0,0c0.13,0.529-0.2,1.069-0.73,1.21l0,0c-0.08,0.02-0.17,0.029-0.239,0.029l0,0C59.435,90.954,59.024,90.644,58.914,90.194z
				 M36.014,89.804c-0.52-0.181-0.8-0.75-0.62-1.271l0,0c0.18-0.52,0.75-0.8,1.28-0.609l0,0c0.52,0.18,0.79,0.75,0.61,1.27l0,0
				c-0.14,0.41-0.53,0.67-0.94,0.67l0,0C36.234,89.864,36.125,89.844,36.014,89.804z M62.754,89.144
				c-0.189-0.521,0.091-1.101,0.601-1.28h0.01c0.521-0.189,1.09,0.09,1.271,0.61l0,0c0.189,0.52-0.091,1.09-0.61,1.27l0,0l0,0l0,0
				c-0.11,0.04-0.22,0.061-0.33,0.061l0,0C63.284,89.804,62.895,89.554,62.754,89.144z M32.234,88.284
				c-0.51-0.24-0.72-0.83-0.49-1.33l0,0c0.23-0.51,0.83-0.72,1.33-0.489l0,0c0.5,0.229,0.71,0.829,0.48,1.329l0,0
				c-0.17,0.36-0.53,0.58-0.9,0.58l0,0C32.514,88.374,32.364,88.344,32.234,88.284z M66.475,87.724
				c-0.24-0.5-0.021-1.101,0.479-1.33l0,0c0.5-0.24,1.101-0.021,1.33,0.479l0,0c0.23,0.5,0.021,1.091-0.479,1.33l0,0l0,0l0,0
				c-0.141,0.061-0.28,0.09-0.431,0.09l0,0C67.004,88.293,66.645,88.083,66.475,87.724z M28.614,86.384c0,0,0,0,0,0.01l0,0
				c-0.47-0.28-0.63-0.9-0.35-1.37l0,0c0.27-0.48,0.89-0.64,1.36-0.36h0.01c0.47,0.28,0.63,0.891,0.35,1.37l0,0
				c-0.19,0.32-0.52,0.49-0.86,0.49l0,0C28.955,86.524,28.774,86.484,28.614,86.384z M70.034,85.944
				c-0.28-0.47-0.12-1.09,0.351-1.37l0,0c0.479-0.28,1.09-0.12,1.369,0.351l0,0c0.28,0.479,0.131,1.09-0.35,1.369l0,0
				c-0.16,0.101-0.33,0.141-0.5,0.141l0,0C70.555,86.434,70.225,86.264,70.034,85.944z M25.205,84.164L25.205,84.164L25.205,84.164
				c-0.45-0.33-0.55-0.949-0.22-1.399l0,0c0.32-0.45,0.94-0.55,1.39-0.221v-0.01c0.45,0.33,0.55,0.96,0.23,1.4l0,0
				c-0.2,0.27-0.51,0.42-0.82,0.42l0,0C25.584,84.354,25.384,84.284,25.205,84.164z M73.414,83.833
				c-0.33-0.439-0.229-1.069,0.221-1.39l0,0c0.439-0.33,1.069-0.229,1.399,0.21l0,0c0.32,0.45,0.22,1.07-0.22,1.4l0,0
				c-0.18,0.13-0.39,0.189-0.59,0.189l0,0C73.914,84.244,73.614,84.104,73.414,83.833z M22.014,81.614c-0.41-0.37-0.45-1-0.08-1.41
				l0,0c0.36-0.42,0.99-0.46,1.41-0.09l0,0c0.41,0.36,0.45,1,0.09,1.41l0,0c-0.2,0.22-0.48,0.34-0.75,0.34l0,0
				C22.444,81.864,22.205,81.784,22.014,81.614z M76.574,81.414c-0.37-0.42-0.33-1.05,0.08-1.41l0,0c0.41-0.369,1.05-0.34,1.41,0.08
				l0,0c0.37,0.41,0.33,1.04-0.08,1.41l0,0l0,0l0,0c-0.19,0.17-0.43,0.25-0.66,0.25l0,0C77.044,81.744,76.774,81.634,76.574,81.414z
				 M19.094,78.774c-0.38-0.4-0.36-1.04,0.05-1.42l0,0c0.4-0.37,1.03-0.351,1.41,0.05l0,0c0.38,0.41,0.36,1.04-0.05,1.42l0,0
				c-0.19,0.18-0.44,0.26-0.68,0.26l0,0C19.554,79.083,19.294,78.984,19.094,78.774z M79.484,78.694c-0.4-0.38-0.43-1.01-0.05-1.41
				l0,0c0.37-0.41,1.01-0.43,1.41-0.06l0,0c0.409,0.38,0.43,1.01,0.05,1.42l0,0l0,0l0,0c-0.19,0.21-0.46,0.32-0.73,0.32l0,0
				C79.925,78.964,79.675,78.874,79.484,78.694z M16.455,75.664c-0.34-0.439-0.26-1.069,0.18-1.399l0,0
				c0.44-0.34,1.07-0.261,1.4,0.18l0,0c0.34,0.44,0.26,1.06-0.18,1.4l0,0c-0.18,0.14-0.39,0.21-0.61,0.21l0,0
				C16.944,76.054,16.654,75.924,16.455,75.664z M82.124,75.714c-0.439-0.341-0.52-0.971-0.189-1.41l0,0
				c0.33-0.44,0.96-0.521,1.399-0.181l0,0c0.44,0.33,0.53,0.96,0.19,1.4l0,0c-0.2,0.26-0.49,0.39-0.8,0.39l0,0
				C82.515,75.914,82.305,75.844,82.124,75.714z M14.125,72.314c-0.29-0.47-0.15-1.08,0.32-1.38l0,0c0.47-0.29,1.08-0.15,1.38,0.319
				l0,0c0.29,0.471,0.15,1.091-0.32,1.381l0,0c-0.17,0.1-0.35,0.149-0.53,0.149l0,0C14.645,72.784,14.314,72.624,14.125,72.314z
				 M84.465,72.484c-0.471-0.29-0.62-0.91-0.32-1.37l0,0c0.29-0.479,0.899-0.62,1.37-0.33l0,0c0.47,0.29,0.62,0.91,0.319,1.38l0,0
				c-0.18,0.301-0.51,0.471-0.84,0.471l0,0C84.805,72.634,84.624,72.583,84.465,72.484z M12.125,68.753
				c-0.24-0.489-0.04-1.09,0.45-1.34l0,0c0.5-0.239,1.1-0.04,1.34,0.45l0,0c0.25,0.5,0.05,1.101-0.44,1.34l0,0
				c-0.15,0.07-0.3,0.11-0.45,0.11l0,0C12.654,69.314,12.304,69.114,12.125,68.753z M86.484,69.054c-0.5-0.25-0.7-0.851-0.46-1.34
				l0,0c0.24-0.5,0.85-0.7,1.34-0.461l0,0c0.5,0.25,0.7,0.851,0.46,1.341l0,0c0,0,0,0-0.01,0l0,0c-0.17,0.359-0.53,0.56-0.9,0.56
				l0,0C86.774,69.154,86.624,69.124,86.484,69.054z M10.484,65.024c-0.19-0.51,0.06-1.09,0.58-1.29l0,0
				c0.52-0.2,1.09,0.06,1.29,0.58l0,0c0.2,0.51-0.06,1.09-0.57,1.29l0,0c-0.12,0.04-0.24,0.06-0.36,0.06l0,0
				C11.024,65.664,10.645,65.424,10.484,65.024z M88.154,65.444c-0.52-0.2-0.78-0.78-0.58-1.29l0,0c0.19-0.52,0.771-0.78,1.29-0.59
				l0,0c0.51,0.2,0.78,0.77,0.58,1.29l0,0c-0.15,0.399-0.53,0.649-0.94,0.649l0,0C88.395,65.503,88.274,65.484,88.154,65.444z
				 M9.214,61.154L9.214,61.154L9.214,61.154c-0.14-0.53,0.17-1.08,0.7-1.229l0,0c0.53-0.15,1.08,0.159,1.23,0.699l0,0
				c0.15,0.53-0.17,1.08-0.7,1.23l0,0c-0.09,0.02-0.18,0.03-0.26,0.03l0,0C9.745,61.884,9.334,61.594,9.214,61.154z M89.475,61.684
				c-0.53-0.15-0.851-0.7-0.7-1.23h-0.01c0.149-0.529,0.689-0.85,1.229-0.71l0,0c0.53,0.15,0.851,0.7,0.71,1.23l0,0
				c-0.13,0.45-0.529,0.74-0.97,0.74l0,0C89.645,61.714,89.564,61.704,89.475,61.684z M8.334,57.174L8.334,57.174L8.334,57.174
				c-0.1-0.551,0.27-1.07,0.81-1.16l0,0c0.54-0.09,1.06,0.27,1.15,0.819l0,0c0.1,0.54-0.27,1.061-0.81,1.15l0,0
				c-0.06,0.01-0.11,0.02-0.17,0.02l0,0C8.834,58.003,8.415,57.654,8.334,57.174z M90.414,57.814c-0.54-0.09-0.91-0.61-0.819-1.15
				l0,0c0.09-0.55,0.609-0.92,1.159-0.819l0,0c0.54,0.09,0.91,0.6,0.82,1.149l0,0c-0.09,0.49-0.51,0.83-0.99,0.83l0,0
				C90.534,57.824,90.475,57.824,90.414,57.814z M7.834,53.124c-0.05-0.55,0.37-1.029,0.92-1.069l0,0c0.55-0.04,1.03,0.37,1.07,0.92
				l0,0c0.04,0.55-0.37,1.029-0.92,1.069l0,0c-0.03,0.011-0.05,0.011-0.07,0.011l0,0C8.304,54.054,7.864,53.654,7.834,53.124z
				 M90.984,53.874c-0.55-0.04-0.97-0.52-0.93-1.069l0,0c0.04-0.551,0.52-0.971,1.069-0.931l0,0c0.551,0.04,0.971,0.521,0.931,1.07
				l0,0c-0.04,0.53-0.48,0.93-1,0.93l0,0C91.034,53.874,91.004,53.874,90.984,53.874z M8.694,50.074c-0.55-0.01-0.99-0.47-0.97-1.02
				l0,0c0.01-0.56,0.46-0.99,1.02-0.98l0,0c0.55,0.01,0.99,0.46,0.98,1.02l0,0c-0.02,0.54-0.46,0.98-1,0.98l0,0
				C8.714,50.074,8.705,50.074,8.694,50.074z M90.145,48.914c-0.01-0.55,0.42-1.01,0.979-1.02l0,0c0.551-0.01,1.011,0.42,1.021,0.98
				l0,0l0,0l0,0c0.01,0.55-0.42,1.01-0.97,1.02l0,0c-0.011,0-0.021,0-0.03,0l0,0C90.604,49.894,90.164,49.464,90.145,48.914z
				 M8.875,46.094c-0.55-0.07-0.94-0.56-0.88-1.11l0,0c0.07-0.55,0.56-0.94,1.11-0.88l0,0c0.55,0.07,0.94,0.56,0.88,1.11l0,0
				c-0.06,0.51-0.49,0.89-0.99,0.89l0,0C8.955,46.104,8.915,46.094,8.875,46.094z M89.864,45.044c-0.07-0.55,0.32-1.05,0.87-1.11
				l0,0c0.55-0.07,1.05,0.32,1.11,0.87l0,0c0,0,0,0,0.01,0l0,0c0.06,0.55-0.33,1.05-0.88,1.11l0,0c-0.04,0.01-0.08,0.01-0.12,0.01
				l0,0C90.354,45.924,89.925,45.554,89.864,45.044z M9.435,42.154c-0.54-0.12-0.88-0.65-0.77-1.19l0,0
				c0.12-0.54,0.65-0.89,1.19-0.77l0,0c0.54,0.12,0.88,0.65,0.77,1.19l0,0c-0.11,0.47-0.52,0.79-0.98,0.79l0,0
				C9.574,42.174,9.504,42.164,9.435,42.154z M89.215,41.214c-0.12-0.54,0.22-1.07,0.76-1.19l0,0c0.54-0.12,1.069,0.22,1.189,0.76
				l0,0c0.12,0.54-0.22,1.07-0.76,1.19l0,0c-0.07,0.02-0.15,0.03-0.22,0.03l0,0C89.725,42.004,89.314,41.684,89.215,41.214z
				 M10.364,38.284c-0.52-0.17-0.81-0.74-0.64-1.26l0,0c0.17-0.53,0.73-0.82,1.26-0.65l0,0c0.52,0.17,0.81,0.73,0.64,1.26l0,0
				c-0.13,0.42-0.53,0.69-0.95,0.69l0,0C10.574,38.324,10.475,38.314,10.364,38.284z M88.194,37.474h-0.01
				c-0.17-0.53,0.12-1.1,0.649-1.27l0,0c0.521-0.17,1.091,0.12,1.261,0.65l0,0l0,0l0,0c0.17,0.52-0.12,1.08-0.641,1.26l0,0
				c-0.109,0.03-0.21,0.05-0.319,0.05l0,0C88.715,38.164,88.324,37.894,88.194,37.474z M11.674,34.514
				c-0.51-0.21-0.74-0.8-0.52-1.31l0,0c0.22-0.51,0.81-0.74,1.32-0.52l0,0c0.5,0.22,0.74,0.81,0.52,1.31l0,0
				c-0.17,0.38-0.54,0.61-0.92,0.61l0,0C11.944,34.604,11.804,34.574,11.674,34.514z M86.805,33.834c-0.221-0.5,0.01-1.09,0.52-1.31
				l0,0c0.51-0.22,1.101,0.01,1.32,0.51l0,0c0.22,0.51-0.01,1.1-0.521,1.32l0,0c-0.13,0.06-0.26,0.08-0.399,0.08l0,0
				C87.345,34.434,86.975,34.214,86.805,33.834z M13.344,30.904c-0.48-0.27-0.66-0.88-0.39-1.36l0,0c0.26-0.49,0.87-0.66,1.36-0.39
				l0,0c0.48,0.26,0.66,0.87,0.39,1.36l0,0c-0.18,0.32-0.53,0.51-0.88,0.51l0,0C13.665,31.024,13.495,30.984,13.344,30.904z
				 M85.084,30.354c-0.27-0.48-0.1-1.09,0.391-1.36l0,0c0.479-0.27,1.08-0.09,1.359,0.39l0,0l0,0l0,0
				c0.261,0.48,0.091,1.09-0.39,1.36l0,0c-0.16,0.09-0.32,0.13-0.49,0.13l0,0C85.604,30.874,85.265,30.684,85.084,30.354z
				 M15.354,27.464c-0.46-0.31-0.57-0.94-0.26-1.39l0,0c0.31-0.46,0.94-0.57,1.39-0.26l0,0c0.46,0.31,0.57,0.93,0.26,1.39l0,0
				c-0.19,0.28-0.51,0.43-0.83,0.43l0,0C15.725,27.634,15.524,27.584,15.354,27.464z M83.034,27.064h-0.01
				c-0.31-0.46-0.2-1.08,0.26-1.39l0,0c0.45-0.32,1.07-0.2,1.391,0.25l0,0l0,0l0,0c0.31,0.45,0.199,1.08-0.261,1.39l0,0
				c-0.17,0.12-0.37,0.18-0.56,0.18l0,0C83.534,27.494,83.225,27.344,83.034,27.064z M17.685,24.234c-0.42-0.36-0.48-0.99-0.12-1.41
				l0,0c0.35-0.42,0.98-0.48,1.41-0.12l0,0c0.42,0.35,0.47,0.98,0.12,1.41l0,0c-0.2,0.23-0.48,0.35-0.77,0.35l0,0
				C18.104,24.464,17.875,24.394,17.685,24.234z M80.664,23.974c-0.359-0.42-0.3-1.05,0.12-1.41l0,0c0.42-0.35,1.05-0.3,1.41,0.12
				l0,0c0.35,0.42,0.3,1.06-0.12,1.41l0,0c-0.189,0.16-0.42,0.24-0.649,0.24l0,0C81.145,24.334,80.864,24.214,80.664,23.974z
				 M20.314,21.244c-0.39-0.39-0.38-1.03,0.01-1.42l0,0c0.4-0.38,1.03-0.38,1.42,0.02l0,0c0.39,0.39,0.38,1.02-0.01,1.41l0,0
				c-0.2,0.19-0.45,0.29-0.71,0.29l0,0C20.774,21.544,20.514,21.444,20.314,21.244z M78.015,21.134c-0.391-0.38-0.4-1.02-0.021-1.41
				l0,0c0.391-0.4,1.021-0.41,1.42-0.02l0,0c0.391,0.38,0.4,1.02,0.011,1.41l0,0c-0.19,0.2-0.45,0.3-0.71,0.3l0,0
				C78.465,21.414,78.215,21.324,78.015,21.134z M23.225,18.514c-0.35-0.42-0.28-1.05,0.14-1.4l0,0c0.43-0.35,1.06-0.28,1.41,0.15
				l0,0c0.35,0.42,0.28,1.05-0.15,1.4l0,0c-0.18,0.15-0.4,0.23-0.62,0.23l0,0C23.705,18.894,23.415,18.764,23.225,18.514z
				 M75.104,18.564v-0.01c-0.43-0.34-0.5-0.97-0.15-1.4l0,0c0.34-0.43,0.971-0.5,1.41-0.15l0,0c0,0,0,0-0.01,0l0,0
				c0.43,0.34,0.5,0.97,0.16,1.4l0,0c-0.2,0.25-0.49,0.37-0.78,0.37l0,0C75.515,18.774,75.294,18.704,75.104,18.564z M26.375,16.084
				c-0.31-0.46-0.18-1.08,0.28-1.38l0,0l0,0l0,0c0.46-0.31,1.08-0.18,1.39,0.28l0,0c0.3,0.46,0.18,1.08-0.28,1.38v0.01
				c-0.17,0.11-0.36,0.16-0.55,0.16l0,0C26.884,16.534,26.564,16.374,26.375,16.084z M71.965,16.274
				c-0.461-0.3-0.591-0.92-0.29-1.38l0,0c0.31-0.47,0.92-0.6,1.39-0.29l0,0l0,0l0,0c0.46,0.3,0.59,0.92,0.29,1.38l0,0
				c-0.2,0.3-0.521,0.45-0.84,0.45l0,0C72.324,16.434,72.135,16.384,71.965,16.274z M29.745,13.964c-0.26-0.48-0.07-1.09,0.42-1.35
				l0,0c0.49-0.26,1.09-0.07,1.35,0.42l0,0c0.26,0.48,0.07,1.09-0.41,1.35l0,0c-0.15,0.08-0.31,0.12-0.47,0.12l0,0
				C30.274,14.504,29.924,14.304,29.745,13.964z M68.614,14.304L68.614,14.304c-0.49-0.26-0.67-0.86-0.42-1.35l0,0
				c0.26-0.49,0.86-0.68,1.35-0.42l0,0c0.49,0.25,0.681,0.86,0.421,1.35l0,0c-0.181,0.34-0.521,0.53-0.881,0.53l0,0
				C68.925,14.414,68.765,14.384,68.614,14.304z M33.314,12.184c-0.22-0.51,0.03-1.09,0.54-1.3l0,0c0.51-0.21,1.09,0.03,1.3,0.54
				l0,0c0.21,0.51-0.03,1.1-0.54,1.31l0,0c-0.13,0.05-0.25,0.07-0.38,0.07l0,0C33.844,12.804,33.464,12.574,33.314,12.184z
				 M65.095,12.664c-0.511-0.21-0.761-0.79-0.551-1.3l0,0c0.21-0.51,0.79-0.76,1.301-0.55l0,0c0.52,0.21,0.76,0.79,0.55,1.3l0,0
				c-0.15,0.39-0.53,0.62-0.92,0.62l0,0C65.345,12.734,65.215,12.714,65.095,12.664z M37.024,10.764c-0.16-0.53,0.14-1.09,0.67-1.25
				l0,0c0.53-0.16,1.09,0.14,1.25,0.67l0,0c0.16,0.52-0.14,1.08-0.67,1.24l0,0c-0.1,0.03-0.19,0.05-0.29,0.05l0,0
				C37.554,11.474,37.154,11.194,37.024,10.764z M61.435,11.374c-0.53-0.15-0.83-0.71-0.681-1.24l0,0
				c0.16-0.53,0.721-0.83,1.25-0.67l0,0c0.53,0.15,0.83,0.71,0.671,1.24l0,0c-0.131,0.43-0.53,0.71-0.96,0.71l0,0
				C61.624,11.414,61.524,11.404,61.435,11.374z M40.864,9.704c-0.11-0.55,0.24-1.08,0.79-1.18l0,0c0.54-0.11,1.07,0.24,1.17,0.78
				l0,0c0.11,0.55-0.24,1.07-0.78,1.18l0,0c-0.07,0.01-0.13,0.02-0.2,0.02l0,0C41.375,10.504,40.955,10.174,40.864,9.704z
				 M57.654,10.454h0.01c-0.55-0.11-0.899-0.63-0.8-1.17l0,0c0.11-0.55,0.63-0.9,1.18-0.8l0,0l0,0l0,0
				c0.54,0.11,0.891,0.63,0.79,1.18l0,0c-0.1,0.47-0.51,0.81-0.979,0.81l0,0C57.784,10.474,57.725,10.464,57.654,10.454z
				 M44.784,9.014c-0.05-0.55,0.35-1.04,0.9-1.09l0,0c0.55-0.06,1.04,0.34,1.09,0.89l0,0c0.06,0.55-0.34,1.04-0.89,1.1l0,0
				c-0.04,0-0.07,0-0.1,0l0,0C45.274,9.914,44.834,9.534,44.784,9.014z M53.814,9.894c-0.55-0.05-0.95-0.54-0.9-1.09l0,0
				c0.051-0.55,0.54-0.95,1.09-0.9l0,0l0,0l0,0c0.551,0.05,0.95,0.54,0.9,1.09l0,0c-0.05,0.52-0.49,0.91-0.99,0.91l0,0
				C53.874,9.904,53.845,9.894,53.814,9.894z M49.834,9.704c-0.02,0-0.05,0.01-0.07,0.01l0,0c-0.55,0-1-0.45-1.01-1l0,0
				c0-0.55,0.45-1,1-1l0,0c0.03,0,0.06,0,0.08,0l0,0c0.04,0,0.07-0.01,0.1-0.01l0,0c0,0,0,0,0,0.01l0,0c0.55,0,1,0.44,1,0.99l0,0
				c0,0.56-0.45,1.01-1,1.01l0,0C49.904,9.714,49.864,9.714,49.834,9.704z"/>
		</g>
	</g>
	<path fill="#636363" d="M45.264,78.674c-0.54-0.04-0.95-0.53-0.91-1.08l0,0c0.04-0.551,0.53-0.96,1.08-0.91l0,0
		c0.55,0.04,0.96,0.53,0.91,1.08l0,0c-0.04,0.52-0.48,0.92-0.99,0.92l0,0C45.324,78.684,45.294,78.684,45.264,78.674z
		 M48.354,77.724c-0.07-0.55,0.33-1.05,0.88-1.11l0,0c0.54-0.06,1.04,0.33,1.1,0.88l0,0c0.06,0.55-0.33,1.04-0.88,1.11l0,0
		c-0.04,0-0.08,0-0.11,0l0,0C48.844,78.604,48.404,78.234,48.354,77.724z M41.134,77.874c-0.53-0.159-0.82-0.729-0.66-1.25l0,0
		c0.17-0.529,0.73-0.819,1.26-0.649l0,0l0,0l0,0c0.53,0.16,0.82,0.72,0.65,1.25l0,0c-0.13,0.43-0.53,0.7-0.95,0.7l0,0
		C41.334,77.924,41.234,77.914,41.134,77.874z M52.294,77.094c-0.149-0.53,0.16-1.091,0.69-1.24l0,0c0,0,0,0-0.01,0l0,0
		c0.529-0.15,1.09,0.149,1.24,0.68l0,0c0.159,0.53-0.15,1.09-0.681,1.24l0,0c-0.09,0.03-0.18,0.04-0.27,0.04l0,0
		C52.824,77.814,52.425,77.534,52.294,77.094z M56.095,75.833c-0.23-0.5-0.011-1.09,0.5-1.319l0,0c0.5-0.23,1.09-0.011,1.319,0.5
		l0,0c0.23,0.5,0.011,1.09-0.5,1.319l0,0c-0.13,0.061-0.27,0.091-0.41,0.091l0,0C56.624,76.424,56.265,76.204,56.095,75.833z
		 M37.274,76.114c-0.47-0.3-0.61-0.91-0.32-1.38l0,0c0.29-0.47,0.91-0.61,1.38-0.32l0,0c0,0,0,0,0-0.01l0,0
		c0.47,0.3,0.61,0.91,0.32,1.38l0,0c-0.19,0.311-0.51,0.47-0.85,0.47l0,0C37.625,76.253,37.444,76.214,37.274,76.114z
		 M59.675,74.064c-0.29-0.47-0.15-1.09,0.319-1.38l0,0l0,0l0,0c0.471-0.29,1.09-0.15,1.38,0.319l0,0
		c0.29,0.461,0.15,1.08-0.319,1.37l0,0c-0.16,0.11-0.351,0.16-0.53,0.16l0,0C60.194,74.534,59.864,74.364,59.675,74.064z
		 M34.524,73.774c-0.54-0.09-0.92-0.6-0.83-1.14l0,0c0.08-0.551,0.6-0.92,1.14-0.83l0,0l0,0l0,0c0.55,0.08,0.92,0.59,0.83,1.14l0,0
		c-0.07,0.49-0.5,0.84-0.98,0.84l0,0C34.625,73.784,34.574,73.784,34.524,73.774z M63.004,71.833c-0.35-0.43-0.289-1.06,0.131-1.409
		l0,0l0,0l0,0c0.43-0.351,1.06-0.29,1.409,0.14l0,0c0.351,0.43,0.29,1.06-0.14,1.41l0,0c-0.18,0.149-0.41,0.22-0.63,0.22l0,0
		C63.484,72.194,63.194,72.074,63.004,71.833z M30.625,71.214c-0.33-0.45-0.23-1.07,0.22-1.4l0,0c0.45-0.32,1.07-0.22,1.4,0.22l0,0
		c0.32,0.45,0.22,1.08-0.22,1.4l0,0c-0.18,0.13-0.39,0.189-0.59,0.189l0,0C31.125,71.624,30.814,71.484,30.625,71.214z
		 M66.004,69.194c-0.399-0.37-0.43-1.01-0.05-1.41l0,0c0,0,0,0-0.01,0l0,0c0.38-0.41,1.01-0.439,1.42-0.06l0,0
		c0.41,0.37,0.43,1.01,0.061,1.41l0,0c-0.2,0.22-0.471,0.319-0.74,0.319l0,0C66.444,69.454,66.204,69.374,66.004,69.194z
		 M29.284,67.144c-0.16-0.53,0.15-1.08,0.68-1.24l0,0c0.53-0.16,1.08,0.15,1.24,0.68l0,0l0,0l0,0c0.15,0.53-0.15,1.08-0.68,1.24l0,0
		c-0.09,0.03-0.19,0.04-0.28,0.04l0,0C29.814,67.864,29.415,67.583,29.284,67.144z M68.595,66.144c-0.471-0.3-0.601-0.92-0.301-1.38
		l0,0l0,0l0,0c0.301-0.471,0.921-0.601,1.381-0.3l0,0c0.47,0.3,0.6,0.92,0.3,1.38l0,0c-0.19,0.3-0.51,0.46-0.84,0.46l0,0
		C68.944,66.304,68.754,66.253,68.595,66.144z M27.594,63.654L27.594,63.654c-0.22-0.51,0.02-1.09,0.53-1.31l0,0
		c0.51-0.221,1.09,0.02,1.31,0.529l0,0l0,0l0,0c0.21,0.511-0.02,1.101-0.53,1.311l0,0c-0.13,0.05-0.26,0.08-0.39,0.08l0,0
		C28.125,64.264,27.754,64.034,27.594,63.654z M70.614,62.694c-0.52-0.21-0.76-0.8-0.55-1.31l0,0l0,0l0,0
		c0.2-0.511,0.79-0.75,1.3-0.551l0,0c0.51,0.21,0.76,0.801,0.55,1.311l0,0c-0.16,0.39-0.529,0.62-0.93,0.62l0,0
		C70.864,62.764,70.734,62.744,70.614,62.694z M26.314,59.753c-0.15-0.529,0.16-1.079,0.69-1.22l0,0c0.54-0.149,1.09,0.16,1.23,0.69
		l0,0c0.15,0.529-0.16,1.08-0.69,1.229l0,0c-0.09,0.03-0.18,0.04-0.27,0.04l0,0C26.834,60.494,26.435,60.204,26.314,59.753z
		 M22.685,59.554c-0.18-0.53,0.09-1.101,0.61-1.28l0,0c0.52-0.18,1.09,0.09,1.28,0.61l0,0c0.18,0.52-0.09,1.09-0.61,1.279l0,0
		c-0.11,0.03-0.22,0.051-0.33,0.051l0,0C23.214,60.214,22.834,59.964,22.685,59.554z M71.935,58.914c-0.55-0.1-0.9-0.62-0.8-1.16
		l0,0c0.1-0.55,0.619-0.899,1.17-0.8l0,0c0.54,0.101,0.899,0.62,0.8,1.17l0,0c-0.09,0.48-0.51,0.811-0.99,0.811l0,0
		C72.055,58.934,71.994,58.934,71.935,58.914z M24.404,56.434c-0.48-0.271-0.66-0.88-0.39-1.36l0,0c0.27-0.49,0.87-0.66,1.36-0.399
		l0,0c0.48,0.27,0.66,0.869,0.39,1.359l0,0c-0.18,0.33-0.52,0.521-0.87,0.521l0,0C24.725,56.554,24.564,56.514,24.404,56.434z
		 M72.294,54.934c-0.529-0.17-0.819-0.72-0.659-1.25l0,0l0,0l0,0c0.149-0.53,0.71-0.83,1.239-0.67l0,0
		c0.53,0.16,0.83,0.72,0.67,1.25l0,0c-0.13,0.43-0.529,0.71-0.96,0.71l0,0C72.494,54.974,72.395,54.954,72.294,54.934z
		 M26.284,52.894c-0.52-0.2-0.78-0.771-0.59-1.29l0,0c0.2-0.521,0.77-0.78,1.29-0.59l0,0c0.51,0.189,0.78,0.77,0.59,1.29l0,0
		c-0.15,0.399-0.54,0.649-0.94,0.649l0,0C26.514,52.954,26.395,52.934,26.284,52.894z M73.895,51.264c-0.53-0.15-0.84-0.7-0.69-1.24
		l0,0c0.15-0.53,0.71-0.83,1.24-0.68l0,0c0.53,0.15,0.84,0.7,0.69,1.23l0,0c-0.131,0.44-0.53,0.73-0.971,0.73l0,0
		C74.074,51.304,73.984,51.293,73.895,51.264z M82.185,49.474c-0.15-0.54,0.149-1.09,0.689-1.24l0,0c0.53-0.15,1.08,0.16,1.23,0.69
		l0,0c0.149,0.53-0.15,1.08-0.69,1.24l0,0c-0.09,0.02-0.18,0.03-0.27,0.03l0,0C82.704,50.194,82.305,49.914,82.185,49.474z
		 M25.834,48.314c-0.13-0.53,0.19-1.08,0.72-1.22l0,0c0.53-0.14,1.08,0.19,1.22,0.72l0,0c0.14,0.53-0.18,1.08-0.72,1.22l0,0
		c-0.08,0.02-0.17,0.03-0.25,0.03l0,0C26.364,49.064,25.955,48.764,25.834,48.314z M78.794,48.314c-0.26-0.48-0.079-1.09,0.4-1.35
		l0,0c0.49-0.27,1.09-0.09,1.36,0.4l0,0c0.26,0.48,0.08,1.09-0.4,1.35l0,0c-0.16,0.09-0.32,0.13-0.479,0.13l0,0
		C79.314,48.844,78.975,48.654,78.794,48.314z M74.595,47.314c-0.511-0.23-0.73-0.82-0.5-1.32l0,0c0,0,0,0,0-0.01l0,0
		c0.22-0.5,0.819-0.72,1.319-0.49l0,0c0.5,0.22,0.73,0.82,0.5,1.32l0,0c-0.17,0.37-0.529,0.59-0.91,0.59l0,0
		C74.864,47.404,74.725,47.374,74.595,47.314z M83.395,46.624c-0.23-0.5,0-1.09,0.51-1.32l0,0c0,0,0,0,0,0.01l0,0
		c0.5-0.23,1.09,0,1.32,0.5l0,0c0.22,0.51-0.01,1.1-0.51,1.32l0,0c-0.131,0.06-0.271,0.09-0.41,0.09l0,0
		C83.925,47.224,83.555,47.004,83.395,46.624z M77.135,44.584c-0.061-0.54,0.34-1.04,0.89-1.1l0,0l0,0l0,0
		c0.55-0.06,1.04,0.33,1.1,0.88l0,0c0.061,0.55-0.33,1.04-0.88,1.11l0,0c-0.04,0-0.08,0-0.109,0l0,0
		C77.624,45.474,77.194,45.094,77.135,44.584z M24.754,44.454c-0.13-0.54,0.2-1.08,0.73-1.21l0,0c0.54-0.13,1.08,0.19,1.21,0.73l0,0
		c0.14,0.53-0.19,1.08-0.73,1.21l0,0c-0.08,0.02-0.16,0.03-0.24,0.03l0,0C25.274,45.214,24.875,44.914,24.754,44.454z
		 M86.534,44.214c-0.53-0.15-0.84-0.7-0.689-1.23l0,0c0.149-0.53,0.71-0.84,1.239-0.69l0,0c0.53,0.15,0.841,0.7,0.69,1.24l0,0
		c-0.13,0.44-0.53,0.72-0.96,0.72l0,0C86.715,44.254,86.624,44.244,86.534,44.214z M25.214,41.254c-0.55-0.06-0.96-0.54-0.9-1.09
		l0,0c0.05-0.55,0.53-0.96,1.09-0.9l0,0c0.55,0.05,0.95,0.54,0.9,1.09l0,0c-0.05,0.51-0.49,0.9-1,0.9l0,0
		C25.274,41.254,25.245,41.254,25.214,41.254z M85.614,39.574c-0.149-0.53,0.16-1.08,0.7-1.23l0,0c0.53-0.15,1.08,0.16,1.229,0.69
		l0,0c0.15,0.54-0.159,1.09-0.689,1.24l0,0c-0.101,0.02-0.19,0.03-0.28,0.03l0,0C86.145,40.304,85.744,40.014,85.614,39.574z
		 M72.965,37.504c-0.2-0.51,0.039-1.09,0.56-1.3l0,0c0.51-0.21,1.09,0.04,1.3,0.55l0,0c0.21,0.51-0.04,1.1-0.55,1.3l0,0
		c-0.12,0.05-0.25,0.08-0.38,0.08l0,0C73.504,38.134,73.124,37.894,72.965,37.504z M26.185,37.404c-0.44-0.34-0.53-0.96-0.2-1.41
		l0,0c0.32-0.44,0.95-0.53,1.39-0.2l0,0c0.45,0.33,0.54,0.96,0.21,1.4l0,0c-0.2,0.26-0.5,0.4-0.8,0.4l0,0
		C26.574,37.594,26.364,37.534,26.185,37.404z M70.774,36.884c-0.521-0.18-0.81-0.74-0.64-1.26l0,0c0.18-0.53,0.739-0.81,1.27-0.64
		h-0.01c0.53,0.17,0.82,0.73,0.64,1.26l0,0c-0.13,0.42-0.53,0.69-0.95,0.69l0,0C70.984,36.934,70.874,36.914,70.774,36.884z
		 M62.784,35.924L62.784,35.924L62.784,35.924c-0.109-0.55,0.25-1.07,0.8-1.17l0,0c0.54-0.1,1.061,0.26,1.16,0.8l0,0
		c0.101,0.54-0.25,1.06-0.8,1.17l0,0c-0.06,0.01-0.12,0.01-0.18,0.01l0,0C63.294,36.734,62.874,36.404,62.784,35.924z
		 M84.124,36.154c-0.279-0.47-0.12-1.09,0.36-1.37l0,0c0.47-0.28,1.09-0.12,1.37,0.36l0,0c0.28,0.47,0.12,1.09-0.36,1.37l0,0
		c-0.16,0.09-0.33,0.14-0.5,0.14l0,0C84.645,36.654,84.314,36.474,84.124,36.154z M67.064,36.504c-0.55-0.03-0.98-0.51-0.94-1.06
		l0,0c0.03-0.55,0.5-0.97,1.051-0.94l0,0c0.55,0.03,0.97,0.51,0.939,1.06l0,0c-0.03,0.53-0.47,0.94-1,0.94l0,0
		C67.104,36.504,67.084,36.504,67.064,36.504z M75.834,35.164c-0.439-0.33-0.529-0.96-0.199-1.4l0,0c0.33-0.44,0.96-0.53,1.399-0.2
		l0,0c0.44,0.33,0.53,0.96,0.2,1.4l0,0l0,0l0,0c-0.2,0.26-0.5,0.4-0.8,0.4l0,0C76.225,35.364,76.015,35.304,75.834,35.164z
		 M83.034,34.544c-0.03-0.04-0.05-0.08-0.08-0.12l0,0c-0.029-0.03-0.06-0.06-0.08-0.09l0,0c-0.35-0.43-0.279-1.06,0.15-1.41l0,0
		c0.43-0.34,1.05-0.28,1.4,0.15l0,0c0.029,0.04,0.06,0.08,0.079,0.12l0,0c0.03,0.03,0.07,0.06,0.091,0.1l0,0
		c0.35,0.43,0.279,1.06-0.15,1.4l0,0c-0.18,0.15-0.41,0.22-0.62,0.22l0,0C83.524,34.914,83.234,34.784,83.034,34.544z
		 M28.834,34.414c-0.33-0.44-0.23-1.07,0.21-1.4l0,0c0.45-0.33,1.07-0.23,1.4,0.21l0,0c0.33,0.45,0.23,1.07-0.21,1.4l0,0
		c-0.18,0.13-0.39,0.2-0.59,0.2l0,0C29.334,34.824,29.034,34.684,28.834,34.414z M78.954,32.794c-0.069-0.55,0.32-1.05,0.87-1.11
		l0,0c0.55-0.07,1.05,0.32,1.11,0.87l0,0c0.069,0.55-0.32,1.05-0.87,1.12l0,0c0,0,0,0,0-0.01l0,0c-0.04,0.01-0.08,0.01-0.12,0.01
		l0,0C79.444,33.674,79.015,33.304,78.954,32.794z M61.524,32.494c-0.271-0.49-0.1-1.1,0.38-1.37l0,0c0.48-0.27,1.09-0.1,1.36,0.38
		l0,0c0.27,0.48,0.1,1.09-0.38,1.36l0,0c-0.15,0.09-0.32,0.13-0.49,0.13l0,0C62.044,32.994,61.704,32.814,61.524,32.494z
		 M32.165,32.204c-0.25-0.5-0.06-1.1,0.43-1.35l0,0c0.48-0.26,1.09-0.07,1.34,0.42l0,0c0.26,0.49,0.07,1.09-0.42,1.35l0,0
		c-0.15,0.08-0.31,0.11-0.46,0.11l0,0C32.694,32.734,32.344,32.544,32.165,32.204z M35.754,30.434c-0.23-0.51,0-1.1,0.5-1.33l0,0
		c0.5-0.22,1.09,0,1.32,0.5l0,0c0.23,0.5,0.01,1.1-0.5,1.33l0,0l0,0l0,0c-0.13,0.06-0.27,0.08-0.41,0.08l0,0
		C36.284,31.014,35.924,30.804,35.754,30.434z M59.225,29.704L59.225,29.704L59.225,29.704c-0.431-0.35-0.49-0.98-0.141-1.41l0,0
		c0.351-0.42,0.98-0.48,1.41-0.13l0,0c0.431,0.35,0.49,0.98,0.141,1.41l0,0c-0.2,0.24-0.49,0.36-0.78,0.36l0,0
		C59.635,29.934,59.404,29.854,59.225,29.704z M36.984,27.604c-0.15-0.53,0.16-1.08,0.69-1.23l0,0c0.53-0.15,1.08,0.16,1.24,0.69
		l0,0c0.14,0.54-0.17,1.09-0.7,1.24l0,0c-0.09,0.02-0.18,0.03-0.27,0.03l0,0C37.504,28.334,37.104,28.044,36.984,27.604z
		 M43.455,27.414c-0.13-0.54,0.2-1.08,0.73-1.21l0,0c0.54-0.13,1.08,0.19,1.21,0.73l0,0c0.13,0.54-0.2,1.08-0.73,1.21l0,0l0,0l0,0
		c-0.08,0.02-0.16,0.03-0.24,0.03l0,0C43.975,28.174,43.564,27.864,43.455,27.414z M56.074,28.124c-0.54-0.14-0.859-0.69-0.729-1.22
		l0,0c0.14-0.54,0.689-0.86,1.22-0.72l0,0c0.54,0.13,0.86,0.68,0.72,1.22l0,0c-0.12,0.45-0.52,0.75-0.97,0.75l0,0
		C56.234,28.154,56.154,28.144,56.074,28.124z M40.254,27.254c-0.31-0.46-0.19-1.08,0.26-1.39l0,0c0.46-0.31,1.08-0.19,1.39,0.26
		l0,0c0.31,0.46,0.19,1.08-0.26,1.39l0,0c-0.17,0.12-0.37,0.18-0.56,0.18l0,0C40.764,27.694,40.444,27.534,40.254,27.254z
		 M47.384,26.644c-0.05-0.55,0.37-1.03,0.92-1.07l0,0c0.55-0.04,1.03,0.37,1.07,0.92l0,0c0.04,0.55-0.37,1.03-0.92,1.07l0,0l0,0l0,0
		c-0.03,0.01-0.05,0.01-0.08,0.01l0,0C47.854,27.574,47.415,27.174,47.384,26.644z M52.305,27.544
		c-0.551-0.04-0.971-0.51-0.931-1.07l0,0c0.03-0.55,0.511-0.96,1.061-0.93l0,0c0.55,0.04,0.97,0.51,0.93,1.06l0,0
		c-0.03,0.53-0.47,0.94-0.99,0.94l0,0C52.345,27.544,52.324,27.544,52.305,27.544z M35.904,23.754L35.904,23.754
		c-0.15-0.53,0.17-1.08,0.7-1.23l0,0c0.53-0.15,1.08,0.16,1.23,0.69l0,0c0.15,0.53-0.16,1.08-0.69,1.23l0,0
		c-0.09,0.03-0.18,0.04-0.27,0.04l0,0C36.435,24.484,36.034,24.194,35.904,23.754z M38.314,23.534c-0.21-0.5,0.03-1.09,0.54-1.3l0,0
		c0.51-0.22,1.09,0.02,1.31,0.53l0,0c0.21,0.51-0.03,1.1-0.54,1.31l0,0c-0.12,0.05-0.26,0.08-0.38,0.08l0,0
		C38.844,24.154,38.475,23.924,38.314,23.534z M34.274,21.184L34.274,21.184c-0.46-0.31-0.58-0.93-0.27-1.39l0,0
		c0.3-0.46,0.92-0.58,1.38-0.27l0,0l0,0l0,0c0.46,0.3,0.59,0.92,0.28,1.38l0,0c-0.19,0.29-0.51,0.45-0.83,0.45l0,0
		C34.645,21.354,34.444,21.294,34.274,21.184z M37.574,20.364c-0.45-0.31-0.56-0.93-0.25-1.39l0,0l0,0l0,0
		c0.32-0.45,0.94-0.56,1.39-0.25l0,0c0.46,0.32,0.57,0.94,0.25,1.39v0.01c-0.19,0.27-0.5,0.42-0.82,0.42l0,0
		C37.944,20.544,37.745,20.484,37.574,20.364z M33.455,17.714c-0.48-0.28-0.64-0.9-0.35-1.37l0,0c0.27-0.48,0.89-0.64,1.36-0.36l0,0
		c0.48,0.28,0.64,0.9,0.36,1.37l0,0c-0.19,0.32-0.52,0.49-0.86,0.49l0,0C33.784,17.844,33.614,17.804,33.455,17.714z M36.875,16.844
		c-0.46-0.3-0.58-0.92-0.27-1.38l0,0c0.31-0.46,0.93-0.58,1.39-0.28h-0.01c0.46,0.31,0.59,0.93,0.28,1.39l0,0
		c-0.19,0.29-0.51,0.44-0.83,0.44l0,0C37.245,17.014,37.044,16.964,36.875,16.844z"/>
</g>
</svg>
