<?xml version="1.0" encoding="utf-8"?>
<!-- Generator: Adobe Illustrator 25.4.1, SVG Export Plug-In . SVG Version: 6.00 Build 0)  -->
<svg version="1.1" id="Layer_1" xmlns="http://www.w3.org/2000/svg" xmlns:xlink="http://www.w3.org/1999/xlink" x="0px" y="0px"
	 viewBox="0 0 99.9 99.9" style="enable-background:new 0 0 99.9 99.9;" xml:space="preserve">
<style type="text/css">
	.st0{fill:url(#SVGID_1_);stroke:#E2AC00;stroke-width:4;stroke-miterlimit:10;}
	.st1{fill:#FFFFFF;}
	.st2{fill:url(#SVGID_00000121281280473367035880000003327741946636085643_);stroke:#E2AC00;stroke-width:2;stroke-miterlimit:10;}
	.st3{fill:#D68F00;}
	.st4{fill:#E2AC00;}
	.st5{fill:url(#SVGID_00000154387209146198527740000009365036122106225064_);}
	.st6{opacity:0.3;fill:#D68F00;enable-background:new    ;}
	.st7{fill:url(#SVGID_00000103957899774741253850000015366600138041185435_);}
	.st8{fill:url(#SVGID_00000069377639059183644800000017645993142955381889_);}
	.st9{fill:url(#SVGID_00000135682948456040392310000017222229182817777834_);}
	.st10{fill:#FFEC7B;}
	.st11{fill:url(#SVGID_00000116919714160063139800000000534411964946181278_);}
	.st12{fill:url(#SVGID_00000056406855902568022080000004898294663536531590_);}
	.st13{fill:url(#SVGID_00000034775701677284232460000014816306212324786858_);}
	.st14{fill:url(#SVGID_00000164498278542783719630000010477554041866607804_);}
	.st15{fill:url(#SVGID_00000051363292032850680560000005316901896676685195_);}
	.st16{fill:url(#SVGID_00000140015297968033465760000005439443408942913212_);}
	.st17{fill:url(#SVGID_00000039118133708376216340000010995637953419929275_);}
	.st18{opacity:0.7;}
	.st19{fill:url(#SVGID_00000160873203063248833750000004385042375230893717_);}
	.st20{fill:url(#SVGID_00000085950967157364670050000004928318863715540914_);}
	.st21{fill:url(#SVGID_00000155112144880305761220000011747479756092669072_);}
	.st22{fill:url(#SVGID_00000015315110987043427030000009916648846941777565_);}
	.st23{fill:url(#SVGID_00000023981552501935527930000005831355689317072798_);}
	.st24{fill:url(#SVGID_00000061466891234634585190000007719185156150059943_);}
	.st25{fill:url(#SVGID_00000141446604228222042630000017001842090997810617_);}
	.st26{fill:url(#SVGID_00000050663805099882267060000006218090736892861858_);}
	.st27{fill:url(#SVGID_00000005250984831985643670000004862651383373249465_);}
	.st28{fill:url(#SVGID_00000158737565445802910510000006395237457992384422_);}
	.st29{fill:url(#SVGID_00000067231885408287321270000016028085594233801111_);}
	.st30{fill:url(#SVGID_00000038376175731586638970000002639747588694372275_);}
	.st31{fill:url(#SVGID_00000033342791653000454320000011331939699832075161_);}
	.st32{fill:url(#SVGID_00000168113995281632827370000008833472860469170099_);}
	.st33{fill:url(#SVGID_00000039837769073362839110000003547387585483061657_);}
	.st34{fill:url(#SVGID_00000052089655840810192660000010400019884679895741_);}
	.st35{fill:url(#SVGID_00000085966268754937215140000012396242132608347547_);}
	.st36{fill:url(#SVGID_00000151529789199142263900000004551818956212377216_);}
	.st37{fill:url(#SVGID_00000178902748360712797720000008499336091599408285_);}
	.st38{fill:url(#SVGID_00000059287817087525410450000002787026748674456986_);}
	.st39{fill:url(#SVGID_00000031905393519027387160000007978776702474825096_);}
	.st40{fill:url(#SVGID_00000050631166239203395670000008556719747250604702_);}
	.st41{fill:url(#SVGID_00000047022697307959518310000015466409545435029651_);}
	.st42{fill:url(#SVGID_00000181803786460277223410000012481854905965430207_);}
	.st43{fill:url(#SVGID_00000023995185457874244380000016955881420346550172_);}
	.st44{fill:url(#SVGID_00000136370542806497565980000017367097904047374265_);}
	.st45{fill:url(#SVGID_00000072960670272834999340000014175597274724161666_);}
	.st46{fill:url(#SVGID_00000094578969327305951280000010232653630372511927_);}
	.st47{fill:url(#SVGID_00000040566152528814181830000015928617861537089462_);}
	.st48{fill:url(#SVGID_00000155128973357301011450000002919067384927688860_);}
	.st49{fill:url(#SVGID_00000105398266226236027910000013638975148299667887_);}
	.st50{fill:url(#SVGID_00000137830567838751086360000011535502180496350615_);}
	.st51{fill:url(#SVGID_00000134228960576340150740000006221083559372816057_);}
	.st52{fill:url(#SVGID_00000109716279655067910710000014316388199106584508_);}
	.st53{fill:url(#SVGID_00000023986843339243874460000001502238912767708348_);}
	.st54{fill:url(#SVGID_00000160182741928906667470000005527922464223047315_);}
	.st55{fill:url(#SVGID_00000011751670769938551700000010125714067916554162_);}
	.st56{fill:url(#SVGID_00000001654050818147601540000004335278053046149284_);}
	.st57{fill:url(#SVGID_00000068635005502019204830000000836590100705335214_);}
</style>
<g>
	<g>
		
			<linearGradient id="SVGID_1_" gradientUnits="userSpaceOnUse" x1="-14.2957" y1="101.0246" x2="103.8845" y2="10.9426" gradientTransform="matrix(1 0 0 -1 0 102)">
			<stop  offset="0" style="stop-color:#E8AB00"/>
			<stop  offset="0.15" style="stop-color:#F1D500"/>
			<stop  offset="0.2837" style="stop-color:#FFFFFF"/>
			<stop  offset="0.3002" style="stop-color:#FCF7D0"/>
			<stop  offset="0.375" style="stop-color:#F1D500"/>
			<stop  offset="0.6" style="stop-color:#F8E4AE"/>
			<stop  offset="0.845" style="stop-color:#F1D500"/>
			<stop  offset="1" style="stop-color:#825B1D"/>
		</linearGradient>
		<circle class="st0" cx="49.9" cy="49.9" r="47.9"/>
		<g>
			<path class="st1" d="M5.5,38.2c0,0,0.3-1.1,0.9-3.1c0.2-0.5,0.3-1,0.5-1.6c0.2-0.6,0.5-1.2,0.8-1.9c0.3-0.7,0.6-1.4,0.9-2.1
				c0.3-0.8,0.8-1.5,1.2-2.2c0.4-0.8,0.9-1.6,1.4-2.4c0.6-0.8,1.2-1.6,1.8-2.4c0.3-0.4,0.6-0.8,0.9-1.3c0.3-0.4,0.7-0.8,1.1-1.2
				c0.7-0.8,1.5-1.6,2.2-2.4c1.7-1.5,3.3-3.2,5.3-4.5c1.9-1.5,4-2.6,6-3.8c2.2-1,4.3-2.1,6.6-2.8c2.2-0.9,4.5-1.2,6.7-1.8
				c1.1-0.1,2.2-0.3,3.3-0.4c0.5-0.1,1.1-0.1,1.6-0.2c0.5,0,1,0,1.6,0c1,0,2,0,3-0.1c1,0.1,1.9,0.2,2.8,0.2c0.9,0.1,1.7,0.1,2.5,0.3
				c0.8,0.2,1.6,0.3,2.3,0.5c0.7,0.1,1.4,0.3,2,0.4c0.6,0.2,1.1,0.4,1.6,0.5c2,0.6,3.1,1,3.1,1s-1.2-0.2-3.2-0.6
				c-0.5-0.1-1.1-0.2-1.7-0.3c-0.6-0.1-1.3-0.1-2-0.2c-0.7-0.1-1.5-0.2-2.3-0.2c-0.8-0.1-1.6-0.1-2.5-0.1c-0.9,0-1.8,0-2.7,0
				c-0.9,0.1-1.9,0.1-2.9,0.2c-0.5,0-1,0.1-1.5,0.1c-0.5,0.1-1,0.2-1.5,0.2c-1,0.2-2.1,0.3-3.1,0.5c-2.1,0.6-4.3,1-6.4,1.9
				c-2.2,0.7-4.2,1.7-6.3,2.7c-2,1.2-4,2.2-5.8,3.6c-1.9,1.2-3.5,2.8-5.2,4.2c-0.8,0.8-1.5,1.5-2.2,2.3c-0.4,0.4-0.7,0.7-1.1,1.1
				c-0.3,0.4-0.6,0.8-1,1.2c-0.6,0.8-1.2,1.5-1.8,2.3c-0.5,0.8-1,1.5-1.5,2.3c-0.5,0.7-1,1.4-1.4,2.1c-0.4,0.7-0.7,1.4-1.1,2
				c-0.3,0.6-0.7,1.2-1,1.7c-0.2,0.6-0.5,1.1-0.7,1.6C6,37.2,5.5,38.2,5.5,38.2z"/>
		</g>
		<g>
			<path class="st1" d="M90.5,65c0,0-0.3,1-0.8,2.7c-0.1,0.4-0.3,0.9-0.4,1.4c-0.2,0.5-0.4,1-0.7,1.6c-0.2,0.6-0.5,1.2-0.8,1.8
				c-0.3,0.7-0.7,1.3-1.1,1.9c-0.4,0.7-0.8,1.4-1.2,2.1c-0.5,0.7-1,1.4-1.5,2.1c-0.3,0.4-0.5,0.7-0.8,1.1c-0.3,0.4-0.6,0.7-0.9,1
				c-0.6,0.7-1.3,1.4-1.9,2.1c-1.5,1.3-2.8,2.7-4.6,3.9C74.3,88,72.4,89,70.7,90c-1.9,0.8-3.7,1.8-5.7,2.4c-1.9,0.8-3.9,1.1-5.8,1.5
				c-1,0.1-1.9,0.2-2.8,0.4c-0.5,0-0.9,0.1-1.4,0.1c-0.5,0-0.9,0-1.3,0c-0.9,0-1.7,0-2.6,0c-0.8-0.1-1.6-0.1-2.4-0.2
				c-0.8-0.1-1.5-0.1-2.2-0.3c-0.7-0.1-1.3-0.3-1.9-0.4c-0.6-0.1-1.2-0.2-1.7-0.4c-0.5-0.2-1-0.3-1.4-0.5c-1.7-0.6-2.6-0.9-2.6-0.9
				s1,0.2,2.7,0.5c0.4,0.1,0.9,0.2,1.4,0.3c0.5,0.1,1.1,0.1,1.7,0.2c0.6,0.1,1.3,0.1,1.9,0.2c0.7,0.1,1.4,0,2.1,0.1
				c0.7,0,1.5,0,2.3,0c0.8-0.1,1.6-0.1,2.5-0.2c0.4,0,0.9-0.1,1.3-0.1c0.4-0.1,0.9-0.1,1.3-0.2c0.9-0.1,1.8-0.3,2.7-0.4
				c1.8-0.5,3.7-0.9,5.5-1.6c1.9-0.6,3.6-1.5,5.4-2.3c1.7-1,3.5-1.9,5-3.1c1.6-1.1,3-2.4,4.5-3.6c0.6-0.7,1.3-1.3,1.9-2
				c0.3-0.3,0.6-0.6,0.9-0.9c0.3-0.3,0.6-0.7,0.8-1c0.5-0.7,1.1-1.3,1.6-1.9c0.5-0.7,0.9-1.3,1.3-1.9c0.4-0.6,0.9-1.2,1.2-1.8
				c0.3-0.6,0.6-1.2,0.9-1.7c0.3-0.5,0.6-1,0.8-1.5c0.2-0.5,0.4-0.9,0.6-1.3C90.1,65.9,90.5,65,90.5,65z"/>
		</g>
	</g>
	<g>
		
			<linearGradient id="SVGID_00000179641347462908467770000016365535759476416653_" gradientUnits="userSpaceOnUse" x1="-14.2956" y1="101.0246" x2="103.8857" y2="10.9417" gradientTransform="matrix(1 0 0 -1 0 102)">
			<stop  offset="0" style="stop-color:#E8AB00"/>
			<stop  offset="0.2257" style="stop-color:#F1D500"/>
			<stop  offset="0.4103" style="stop-color:#FCF5C3"/>
			<stop  offset="0.4842" style="stop-color:#F1D500"/>
			<stop  offset="0.6323" style="stop-color:#F8E4AE"/>
			<stop  offset="0.7861" style="stop-color:#F1D500"/>
			<stop  offset="0.9786" style="stop-color:#825B1D"/>
		</linearGradient>
		
			<circle style="fill:url(#SVGID_00000179641347462908467770000016365535759476416653_);stroke:#E2AC00;stroke-width:2;stroke-miterlimit:10;" cx="49.9" cy="49.9" r="41.2"/>
		<path class="st3" d="M10.9,53.6c0-23.2,18.8-42,42-42c6.8,0,13.3,1.6,19,4.6c-6.4-4.3-14-6.8-22.3-6.8c-22,0-40,17.9-40,40
			c0,4.4,0.7,8.7,2.1,12.7C11.2,59.3,10.9,56.5,10.9,53.6z"/>
	</g>
	<g>
		<path class="st4" d="M85.6,43.8L85.6,43.8c0.1,0,0.2,0,0.2,0l0.3,0v0c0.3,0,0.4-0.2,0.6-0.4c0,0,0,0,0,0c0.3,0,0.5,0,0.7,0
			c0.2,0,0.4-0.2,0.4-0.4s-0.2-0.4-0.4-0.4c-0.2,0-0.4,0-0.7,0c-0.1-0.1-0.2-0.2-0.3-0.3c0.2-0.1,0.3-0.3,0.3-0.6c0,0,0,0,0,0
			c0.2-0.1,0.4-0.2,0.6-0.2c0.2-0.1,0.3-0.4,0.2-0.6c-0.1-0.2-0.4-0.3-0.6-0.2c-0.1,0.1-0.3,0.1-0.5,0.2c-0.1-0.1-0.2-0.1-0.3-0.2
			c0,0-0.1,0-0.1,0c0-0.1,0-0.2,0-0.3c0,0,0-0.1,0-0.1c0.1-0.1,0.2-0.2,0.3-0.3c0.1-0.1,0.1-0.2,0.1-0.3s-0.1-0.2-0.1-0.3
			c-0.2-0.2-0.5-0.1-0.6,0c-0.1,0.1-0.2,0.2-0.2,0.3c-0.2-0.1-0.4,0-0.6,0.1c0.4-0.3,0.7-0.7,0.8-1.2c0-0.1,0-0.3-0.1-0.4
			c0,0,0,0,0-0.1c0.1-0.2,0.1-0.5-0.1-0.6c-0.2-0.1-0.5-0.1-0.6,0.1c0,0,0,0,0,0c-0.1,0-0.1,0-0.2,0c0,0,0-0.1,0.1-0.1
			c0,0,0,0,0-0.1c0.3-0.1,0.5-0.1,0.7-0.2c0.1,0,0.2-0.1,0.3-0.2c0.1-0.1,0.1-0.2,0-0.3c-0.1-0.2-0.3-0.4-0.5-0.3
			c-0.2,0-0.4,0.1-0.7,0.2c-0.2-0.2-0.6-0.3-1-0.2c-0.1,0-0.6,0.1-0.8,0.1c-0.2,0-0.5,0-0.7,0c-1,0.1-2.1,0.4-3.2,1
			c-0.1,0.1-0.3,0.2-0.4,0.2c0.1-0.3,0.3-0.5,0.5-0.8c0.4-0.5,0.7-0.7,1.5-0.8c0.2,0,0.5,0,0.7,0c0.3,0,0.5,0,0.7,0
			c0.4,0,0.6-0.1,0.9-0.2c0.1-0.1,0.2-0.1,0.3-0.2c0.4,0,0.8,0,1.1,0c0.2,0,0.4-0.2,0.4-0.4s-0.2-0.4-0.4-0.4s-0.6,0-0.9,0
			c0,0,0-0.1,0-0.1c-0.2-0.4-0.7-0.6-1.1-0.4c-0.1,0-0.5,0-0.7,0c-0.4,0-0.8-0.1-1.1,0c-0.8,0.1-1.8,0.4-2.6,1.5
			c-0.4,0.5-0.6,1-0.9,1.5c-0.2,0.4-0.4,0.8-0.7,1.2c-0.3-0.1-0.9,0-1.1,0.2c-0.3,0.2-0.4,0.5-0.4,0.6c0,0,0,0-0.1,0c0,0,0,0,0,0
			c-0.3-0.5-0.7-1.1-1.4-1.6c-0.7-0.5-1.6-0.5-2.4-0.5l-0.6,0c-0.3,0-0.6,0-0.9-0.1c-0.6-0.1-1.1-0.2-1.6-0.2
			c-1.1,0-1.8,0.3-2.4,0.8c-0.5-3.4-3.1-7.3-5.2-8.3c-1.9-0.9-4.9-1.5-8.1-1.5c-2.4,0-4.8,0.3-7.1,0.9l-0.1-0.5l-0.2,0.6
			c0,0,0,0,0,0L43.4,27L43,29.2c0,0-0.1,0-0.1,0l-1.5-1.9l0,0l-2.5-6.1c0.5-0.5,0.8-1.2,0.7-2c-0.2-1.4-1.4-2.4-2.8-2.2
			c-1.4,0.2-2.4,1.4-2.2,2.8c0.1,1.3,1.2,2.2,2.5,2.2l2.4,8.6c-0.1,0-0.1,0.1-0.2,0.1c-0.5-0.1-0.9-0.3-1.2-0.3l-0.7,0l0.4,0.6
			c0.1,0.1,0.1,0.2,0.2,0.3c-6,2.7-11.9,6.1-11.6,11.3c0.1,2.2,0.8,4.2,1.3,5.8c0.3,1.1,0.6,2,0.6,2.5c0,0.1,0,0.2,0,0.3l0,0
			c-0.1,0.9-2.5,6.1-3.6,8.2l-0.2,0l0.6,1.8l0.1,0.2l0.2,0c0,0,0.1,0,0.2,0c0.3,0,1.2-0.1,2.9-0.5c0.6,2.7,1.7,5.3,3.3,7.6
			c-0.4,1.2,0.1,2.8,1.2,4.1c0.8,0.9,1.9,1.5,2.9,1.7c2.4,2.4,6.2,4.9,12,4.9l0,0c3.4,0,7-0.9,10.8-2.6c0.1-0.1,0.2-0.1,0.4-0.2
			l0.1-0.1c2-0.9,3.9-2.1,5.5-3.6c7.7-6.1,9-13.4,8.8-17.2c0.3-0.4,0.6-0.8,0.7-1.1c0.8-1.3,1.1-2.7,1.3-4.1c0.1-1,0.3-1.9,0.6-2.7
			c0.1-0.2,0.2-0.4,0.4-0.6c0.2,0.1,0.4,0.2,0.8,0.2c0.2,0,0.4,0,0.6-0.1c0.6-0.3,0.9-0.7,0.9-1.3c0.5-0.1,1,0,1.3,0.3
			c0.2,0.3,0.3,0.8,0.3,1.4c0,0.3,0,0.6,0.1,0.9c0.3,1.9,1.8,2,2.4,2l0,0c0.1,0,0.2,0,0.2,0c0.3,0.1,0.7-0.1,0.9-0.3
			c0.3,0,0.6,0,0.8,0h0c0.2,0,0.4-0.2,0.4-0.4c0-0.2-0.2-0.4-0.4-0.4c-0.2,0-0.4,0-0.7,0c-0.1-0.2-0.3-0.4-0.6-0.5
			c-0.2,0-0.3-0.1-0.5-0.1c-0.6-0.1-0.8-0.1-0.9-0.6c0-0.2,0-0.4-0.1-0.7c0.4,0.2,0.9,0.4,1.5,0.4c0.4,0,0.7-0.1,1.1-0.2
			c0.4-0.1,0.7-0.4,1-0.6c0.1,0,0.1-0.1,0.2-0.1c0.2-0.2,0.4-0.4,0.4-0.7c0.2-0.1,0.5-0.3,0.6-0.4c0.2-0.1,0.3-0.4,0.1-0.6
			c-0.1-0.1-0.3-0.2-0.4-0.2c0,0,0-0.1,0-0.1c0.2-0.1,0.5-0.3,0.6-0.4c0.2-0.1,0.3-0.4,0.1-0.6c-0.1-0.2-0.4-0.3-0.6-0.1
			c-0.2,0.1-0.4,0.2-0.6,0.3c-0.3-0.2-0.6-0.2-0.9,0c-0.3,0.2-0.5,0.3-0.9,0.3c-0.2,0-0.4,0-0.6-0.1c0.2,0,0.4-0.1,0.5-0.1
			C84.8,44.3,85.3,44.1,85.6,43.8z M83.8,38.2c-0.1,0.1-0.3,0.3-1,0.7l-0.1,0c-0.4,0.3-0.8,0.4-1.4,0.4c-0.2,0-0.4,0-0.7,0
			c-0.5-0.1-1.1-0.1-1.6-0.1c0.1-0.1,0.3-0.1,0.4-0.2c1-0.5,1.9-0.7,2.7-0.8c0.1,0,0.3,0,0.5,0c0.4,0,0.8,0,1.2-0.1
			C83.9,38.1,83.8,38.1,83.8,38.2z M83.1,46.1c0,0,0.1,0,0.1,0C83.1,46.1,83.1,46.1,83.1,46.1z M84,40.2c0.1-0.1,0.3-0.2,0.4-0.3
			C84.3,40,84.2,40.1,84,40.2z"/>
		<g>
			<g>
				<g>
					
						<linearGradient id="SVGID_00000175323136631929230850000002995619049586719924_" gradientUnits="userSpaceOnUse" x1="30.8003" y1="32.749" x2="37.1877" y2="32.749" gradientTransform="matrix(1 0 0 -1 0 102)">
						<stop  offset="0" style="stop-color:#E8AB00"/>
						<stop  offset="0.2257" style="stop-color:#F1D500"/>
						<stop  offset="0.4103" style="stop-color:#FCF5C3"/>
						<stop  offset="0.4842" style="stop-color:#F1D500"/>
						<stop  offset="0.6323" style="stop-color:#F8E4AE"/>
						<stop  offset="0.7861" style="stop-color:#F1D500"/>
						<stop  offset="0.9786" style="stop-color:#825B1D"/>
					</linearGradient>
					<path style="fill:url(#SVGID_00000175323136631929230850000002995619049586719924_);" d="M35.9,67.5c1.4,1.6,1.7,3.6,0.6,4.6
						c-1.1,0.9-3.1,0.4-4.5-1.1s-1.7-3.6-0.6-4.6C32.5,65.5,34.5,66,35.9,67.5z"/>
					<path class="st4" d="M35.2,72.9c-1.1,0-2.4-0.6-3.4-1.7c-1.5-1.7-1.8-4-0.6-5.1c0.4-0.4,1-0.6,1.6-0.6c1.1,0,2.4,0.6,3.4,1.7
						c0.7,0.8,1.2,1.8,1.3,2.7c0.1,1-0.1,1.8-0.7,2.4C36.4,72.7,35.8,72.9,35.2,72.9z M32.8,66.3c-0.4,0-0.8,0.1-1.1,0.4
						c-0.9,0.8-0.6,2.6,0.7,4.1c0.8,0.9,1.9,1.5,2.9,1.5c0.4,0,0.8-0.1,1.1-0.4c0.4-0.4,0.6-1,0.5-1.7c-0.1-0.8-0.5-1.6-1.2-2.3
						C34.8,66.8,33.7,66.3,32.8,66.3z"/>
				</g>
				<path class="st6" d="M32.6,71.6c1.2,0.7,2.7,1.3,3.5,0.6c0.6-0.5,0.5-1.8,0.3-2.7c0,0,0,0.1-0.1,0.1
					C35.3,71.4,33.7,71.7,32.6,71.6z"/>
			</g>
			
				<linearGradient id="SVGID_00000019674439911138564100000012920373972867842977_" gradientUnits="userSpaceOnUse" x1="28.3325" y1="62.3633" x2="73.1663" y2="29.6961" gradientTransform="matrix(1 0 0 -1 0 102)">
				<stop  offset="0" style="stop-color:#E8AB00"/>
				<stop  offset="0.2257" style="stop-color:#F1D500"/>
				<stop  offset="0.4103" style="stop-color:#FCF5C3"/>
				<stop  offset="0.4842" style="stop-color:#F1D500"/>
				<stop  offset="0.6323" style="stop-color:#F8E4AE"/>
				<stop  offset="0.7861" style="stop-color:#F1D500"/>
				<stop  offset="0.9786" style="stop-color:#825B1D"/>
			</linearGradient>
			<circle style="fill:url(#SVGID_00000019674439911138564100000012920373972867842977_);" cx="49" cy="54.7" r="21.9"/>
			
				<linearGradient id="SVGID_00000156557678877056237470000005273879005050873264_" gradientUnits="userSpaceOnUse" x1="42.2736" y1="46.3858" x2="49.0469" y2="31.5492" gradientTransform="matrix(1 0 0 -1 0 102)">
				<stop  offset="0" style="stop-color:#FFFFFF"/>
				<stop  offset="1" style="stop-color:#FFFFFF;stop-opacity:0"/>
			</linearGradient>
			<path style="fill:url(#SVGID_00000156557678877056237470000005273879005050873264_);" d="M32.2,67.3l-0.9-1.6
				c0,0,2.4,0.9,3.9,0.1c1.5-0.8,2.7-2.7,2.7-2.7s9.5-4.3,10.8-4.4c1.4-0.1,2.2,2.5,5.9,0.8c2.9-1.4,3.3-3.6,3.3-3.6s0,1.4,0,5.4
				c0.1,7.3-7.6,10.7-10.5,11.6c-3.1,1-7.4,0.8-11.6-1.9C34.9,70.5,33.7,69.5,32.2,67.3z"/>
			<g>
				<g>
					
						<linearGradient id="SVGID_00000063620591758457515170000011859432069306709153_" gradientUnits="userSpaceOnUse" x1="33.8046" y1="53.7332" x2="79.8063" y2="20.3985" gradientTransform="matrix(1 0 0 -1 0 102)">
						<stop  offset="0" style="stop-color:#E8AB00"/>
						<stop  offset="0.2257" style="stop-color:#F1D500"/>
						<stop  offset="0.4103" style="stop-color:#FCF5C3"/>
						<stop  offset="0.4842" style="stop-color:#F1D500"/>
						<stop  offset="0.6323" style="stop-color:#F8E4AE"/>
						<stop  offset="0.7861" style="stop-color:#F1D500"/>
						<stop  offset="0.9786" style="stop-color:#825B1D"/>
					</linearGradient>
					<path style="fill:url(#SVGID_00000063620591758457515170000011859432069306709153_);" d="M31.9,68.3c1.5,1.5,7,8.4,15.9,5.6
						C53.4,72,59.2,68.3,59,62.4C58.4,46,70.9,52.5,71.5,51.8c0.6-0.7,3.8,14.1-14.1,23.1C41.9,81.9,33.9,72.7,31.9,68.3z"/>
				</g>
				<g>
					<path class="st10" d="M31.9,68.3c0,0,0.2,0.1,0.5,0.4c0.3,0.3,0.7,0.7,1.3,1.2c0.6,0.5,1.3,1.1,2.1,1.7
						c0.4,0.3,0.9,0.6,1.4,0.9c0.5,0.3,1.1,0.6,1.7,0.8c1.2,0.5,2.6,0.9,4,0.9c1.5,0.1,3-0.1,4.6-0.6c1.6-0.5,3.1-1.1,4.6-1.9
						c1.5-0.8,2.9-1.8,4.1-3c1.2-1.2,2.1-2.7,2.4-4.4l0.1-0.6l0-0.3c0-0.1,0-0.2,0-0.3c0-0.4,0-0.8,0-1.2c0-0.8,0-1.7,0.1-2.5
						c0.1-1.6,0.5-3.2,1.1-4.6c0.3-0.7,0.7-1.3,1.2-1.9c0.5-0.5,1.1-1,1.7-1.3c1.2-0.6,2.5-0.7,3.6-0.7c1.1,0,2,0.2,2.7,0.4
						c0.7,0.2,1.3,0.4,1.7,0.4c0.2,0,0.4,0.1,0.5,0.1c0.1,0,0.1,0,0.1,0s0,0.1-0.1,0.1c-0.1,0-0.3,0-0.5,0c-0.4-0.1-1-0.2-1.7-0.3
						c-0.7-0.1-1.7-0.3-2.7-0.3c-1,0-2.2,0.1-3.4,0.7c-0.6,0.3-1.1,0.7-1.6,1.2c-0.5,0.5-0.9,1.1-1.2,1.8c-0.6,1.3-0.9,2.9-1.1,4.5
						c-0.1,0.8-0.1,1.6-0.1,2.5c0,0.4,0,0.8,0,1.3c0,0.1,0,0.2,0,0.3l-0.1,0.3L59,64.5c-0.4,1.7-1.3,3.3-2.6,4.6
						c-1.2,1.3-2.7,2.3-4.2,3.1c-1.5,0.8-3.1,1.5-4.7,1.9c-1.6,0.5-3.2,0.7-4.7,0.6c-1.5-0.1-2.9-0.5-4.2-1
						c-1.2-0.5-2.2-1.2-3.1-1.8c-0.9-0.6-1.5-1.3-2.1-1.8c-0.5-0.5-0.9-1-1.2-1.3C32,68.4,31.9,68.3,31.9,68.3z"/>
				</g>
				<g>
					<path class="st4" d="M31.9,68.3c0,0,0.2,0.1,0.5,0.4c0.3,0.3,0.7,0.7,1.3,1.2s1.3,1.1,2.1,1.7c0.9,0.6,1.9,1.2,3.1,1.6
						c1.2,0.5,2.5,0.8,4,0.9c0.7,0,1.5,0,2.2-0.1c0.8-0.1,1.5-0.3,2.3-0.5c1.5-0.5,3.1-1.1,4.5-1.9c1.5-0.8,2.9-1.8,4-3.1
						c1.1-1.2,2-2.7,2.3-4.3c0.1-0.4,0.1-0.8,0.1-1.2c0-0.4,0-0.8,0-1.2c0-0.8,0-1.7,0.1-2.5c0.1-1.6,0.5-3.2,1.2-4.6
						c0.3-0.7,0.8-1.3,1.3-1.8c0.5-0.5,1.1-0.9,1.7-1.2c1.2-0.6,2.5-0.7,3.5-0.6c1.1,0,2,0.2,2.7,0.4s1.3,0.3,1.7,0.4
						c0.2,0,0.4,0.1,0.5,0.1c0.1,0,0.1,0,0.1,0s0,0-0.1,0.1c-0.1,0-0.3,0-0.5,0c-0.4-0.1-1-0.2-1.7-0.3c-0.7-0.1-1.7-0.3-2.7-0.3
						c-1,0-2.2,0.1-3.4,0.7c-1.1,0.5-2.1,1.6-2.7,2.9c-0.6,1.3-0.9,2.8-1,4.4c-0.1,0.8-0.1,1.6-0.1,2.4c0,0.4,0,0.8,0,1.3
						c0,0.4-0.1,0.9-0.1,1.3c-0.3,1.8-1.2,3.4-2.4,4.7c-1.2,1.3-2.7,2.3-4.2,3.2c-1.5,0.8-3.1,1.5-4.7,1.9c-0.8,0.2-1.6,0.4-2.4,0.5
						c-0.8,0.1-1.6,0.1-2.3,0c-1.5-0.1-2.9-0.5-4.1-1c-1.2-0.5-2.2-1.2-3.1-1.8c-0.9-0.6-1.5-1.3-2.1-1.8c-0.5-0.5-0.9-1-1.2-1.3
						C32,68.4,31.9,68.3,31.9,68.3z"/>
				</g>
			</g>
			<g>
				<g>
					
						<ellipse transform="matrix(0.974 -0.2264 0.2264 0.974 -11.6645 15.9558)" class="st3" cx="63.7" cy="58.8" rx="2.4" ry="3.9"/>
				</g>
			</g>
			<g>
				<g>
					<g>
						
							<linearGradient id="SVGID_00000075851299784876306710000008371552920271716760_" gradientUnits="userSpaceOnUse" x1="61.1948" y1="43.8974" x2="66.2661" y2="43.8974" gradientTransform="matrix(1 0 0 -1 0 102)">
							<stop  offset="0" style="stop-color:#E8AB00"/>
							<stop  offset="0.2257" style="stop-color:#F1D500"/>
							<stop  offset="0.4103" style="stop-color:#FCF5C3"/>
							<stop  offset="0.4842" style="stop-color:#F1D500"/>
							<stop  offset="0.6323" style="stop-color:#F8E4AE"/>
							<stop  offset="0.7861" style="stop-color:#F1D500"/>
							<stop  offset="0.9786" style="stop-color:#825B1D"/>
						</linearGradient>
						<path style="fill:url(#SVGID_00000075851299784876306710000008371552920271716760_);" d="M66.1,57.6c0.5,2.1-0.2,4.1-1.5,4.4
							c-1.3,0.3-2.8-1.2-3.3-3.3c-0.5-2.1,0.2-4.1,1.5-4.4C64.1,54,65.6,55.4,66.1,57.6z"/>
						<path class="st4" d="M64.3,62.2c-1.3,0-2.6-1.5-3.1-3.5c-0.5-2.2,0.2-4.3,1.6-4.6c0.1,0,0.3,0,0.4,0c1.3,0,2.6,1.5,3.1,3.5
							c0.5,2.2-0.2,4.3-1.6,4.6C64.5,62.1,64.4,62.2,64.3,62.2z M63.2,54.4c-0.1,0-0.2,0-0.3,0c-1.2,0.3-1.8,2.2-1.4,4.2
							c0.4,1.8,1.6,3.2,2.7,3.2c0.1,0,0.2,0,0.3,0c1.2-0.3,1.8-2.2,1.4-4.2C65.5,55.8,64.3,54.4,63.2,54.4z"/>
					</g>
					<g>
						
							<linearGradient id="SVGID_00000008854747997373155990000017076603222315853713_" gradientUnits="userSpaceOnUse" x1="61.748" y1="44.0943" x2="66.8196" y2="44.0943" gradientTransform="matrix(1 0 0 -1 0 102)">
							<stop  offset="0" style="stop-color:#E8AB00"/>
							<stop  offset="0.2257" style="stop-color:#F1D500"/>
							<stop  offset="0.4103" style="stop-color:#FCF5C3"/>
							<stop  offset="0.4842" style="stop-color:#F1D500"/>
							<stop  offset="0.6323" style="stop-color:#F8E4AE"/>
							<stop  offset="0.7861" style="stop-color:#F1D500"/>
							<stop  offset="0.9786" style="stop-color:#825B1D"/>
						</linearGradient>
						<path style="fill:url(#SVGID_00000008854747997373155990000017076603222315853713_);" d="M66.7,57.4c0.5,2.1-0.2,4.1-1.5,4.4
							c-1.3,0.3-2.8-1.2-3.3-3.3s0.2-4.1,1.5-4.4C64.7,53.8,66.2,55.2,66.7,57.4z"/>
						<path class="st4" d="M64.8,62c-1.3,0-2.6-1.5-3.1-3.5c-0.5-2.2,0.2-4.3,1.6-4.6c0.1,0,0.3,0,0.4,0c1.3,0,2.6,1.5,3.1,3.5
							c0.5,2.2-0.2,4.3-1.6,4.6C65.1,61.9,65,62,64.8,62z M63.7,54.2c-0.1,0-0.2,0-0.3,0c-1.2,0.3-1.8,2.2-1.4,4.2
							c0.4,1.8,1.6,3.2,2.7,3.2c0.1,0,0.2,0,0.3,0c1.2-0.3,1.8-2.2,1.4-4.2C66.1,55.6,64.9,54.2,63.7,54.2z"/>
					</g>
					
						<linearGradient id="SVGID_00000165235882388211860840000011406960425854430115_" gradientUnits="userSpaceOnUse" x1="62.0144" y1="46.6224" x2="66.5861" y2="41.2794" gradientTransform="matrix(1 0 0 -1 0 102)">
						<stop  offset="0" style="stop-color:#E8AB00"/>
						<stop  offset="0.2257" style="stop-color:#F1D500"/>
						<stop  offset="0.4103" style="stop-color:#FCF5C3"/>
						<stop  offset="0.4842" style="stop-color:#F1D500"/>
						<stop  offset="0.6323" style="stop-color:#F8E4AE"/>
						<stop  offset="0.7861" style="stop-color:#F1D500"/>
						<stop  offset="0.9786" style="stop-color:#825B1D"/>
					</linearGradient>
					<path style="fill:url(#SVGID_00000165235882388211860840000011406960425854430115_);" d="M66.2,57.5c0.4,1.7-0.1,3.3-1.2,3.6
						c-1.1,0.2-2.3-1-2.7-2.7s0.1-3.3,1.2-3.6C64.6,54.6,65.8,55.8,66.2,57.5z"/>
					<path class="st3" d="M65.3,56.2c0.2,0,0.4,0,0.4,0s-0.1-0.4-0.4-0.8c-0.5-0.5-1.1-0.8-1.7-0.7c-1.1,0.2-1.6,1.9-1.2,3.6
						C62.4,58.3,63.4,54.2,65.3,56.2z"/>
					<g>
						
							<linearGradient id="SVGID_00000145038799040641327740000006959306965283779994_" gradientUnits="userSpaceOnUse" x1="63.631" y1="44.1287" x2="66.4311" y2="44.1287" gradientTransform="matrix(1 0 0 -1 0 102)">
							<stop  offset="0" style="stop-color:#E8AB00"/>
							<stop  offset="0.2257" style="stop-color:#F1D500"/>
							<stop  offset="0.4103" style="stop-color:#FCF5C3"/>
							<stop  offset="0.4842" style="stop-color:#F1D500"/>
							<stop  offset="0.6323" style="stop-color:#F8E4AE"/>
							<stop  offset="0.7861" style="stop-color:#F1D500"/>
							<stop  offset="0.9786" style="stop-color:#825B1D"/>
						</linearGradient>
						<path style="fill:url(#SVGID_00000145038799040641327740000006959306965283779994_);" d="M66.3,57.4c-0.4-1.7-1.6-2.9-2.7-2.7
							c0.9,0.2,1.8,1.3,2.1,2.7c0.4,1.7-0.1,3.3-1.2,3.6c0,0,0,0,0,0c0.2,0,0.4,0,0.6,0C66.2,60.8,66.7,59.2,66.3,57.4z"/>
						<path class="st4" d="M64.8,61.2c-0.1,0-0.2,0-0.3,0c-0.1,0-0.1-0.1-0.1-0.2c0-0.1,0.1-0.2,0.1-0.2c1-0.2,1.5-1.7,1.1-3.4
							c-0.3-1.3-1.1-2.4-2-2.6c-0.1,0-0.1-0.1-0.1-0.2c0-0.1,0.1-0.2,0.1-0.2c0.1,0,0.2,0,0.3,0c1.1,0,2.2,1.2,2.6,2.9
							c0.4,1.8-0.2,3.5-1.3,3.8C65,61.2,64.9,61.2,64.8,61.2z M64.7,55.1c0.5,0.5,1,1.3,1.2,2.2c0.3,1.4,0.1,2.7-0.6,3.4
							c0.8-0.4,1.2-1.8,0.8-3.3C65.9,56.4,65.3,55.6,64.7,55.1z"/>
					</g>
					<path class="st4" d="M64.8,61.2c-1.1,0-2.2-1.2-2.6-2.9c-0.4-1.8,0.2-3.5,1.3-3.8c0.1,0,0.2,0,0.3,0c1.1,0,2.2,1.2,2.6,2.9
						c0.4,1.8-0.2,3.5-1.3,3.8C65,61.2,64.9,61.2,64.8,61.2z M63.9,54.9c-0.1,0-0.2,0-0.2,0c-1,0.2-1.5,1.7-1.1,3.4
						c0.3,1.5,1.3,2.6,2.2,2.6c0.1,0,0.2,0,0.2,0c1-0.2,1.5-1.7,1.1-3.4C65.8,56,64.8,54.9,63.9,54.9z"/>
				</g>
			</g>
			<path class="st3" d="M64.1,38.6c-0.1,0.1-0.3,0.2-0.4,0.3C63.8,38.8,63.9,38.7,64.1,38.6c-0.4-0.4-0.8-0.7-1.1-1
				c-0.2,0.2-0.4,0.5-0.6,0.8c-0.2,0.3-0.2,0.7,0.1,1c0.2,0.1,0.4,0.2,0.6,0.1c-0.3,0.3-0.6,0.6-1,0.7c-0.4,0.1-0.5,0.5-0.4,0.9
				c0.1,0.3,0.4,0.4,0.6,0.4c0,0,0.1,0,0.1,0c-0.2,0.2-0.3,0.6-0.1,0.9c0.1,0.2,0.3,0.3,0.6,0.3c0.1,0,0.3,0,0.4-0.1l0,0
				c0,0.2,0,0.4,0.1,0.6c0.1,0.2,0.4,0.3,0.6,0.3c0.1,0,0.3,0,0.4-0.1c0.2-0.1,0.4-0.3,0.6-0.4c0,0,0,0,0.1,0
				c-0.1,0.1-0.3,0.2-0.4,0.3c-0.3,0.3-0.7,0.6-1,0.6c-0.4,0-0.7,0.3-0.7,0.7s0.3,0.7,0.7,0.7c0,0,0,0,0,0c0.7,0,1.3-0.5,1.9-1
				c0.2-0.2,0.4-0.3,0.6-0.4c0.3-0.2,0.5-0.3,0.8-0.4c-1.2,1-2.4,1.7-3.7,2.3c-0.4,0.2-0.5,0.6-0.4,0.9c0.1,0.3,0.4,0.4,0.6,0.4
				c0.1,0,0.2,0,0.3-0.1c0.3-0.1,0.5-0.2,0.8-0.4c0,0.2,0,0.4,0.2,0.5c0,0,0.1,0.1,0.1,0.1c-0.2,0-0.3,0-0.5,0
				c-0.4-0.1-0.7,0.2-0.8,0.6c-0.1,0.4,0.2,0.7,0.6,0.8c0.1,0,0.2,0,0.4,0c0.9,0,1.9-0.5,2.7-1.1c-0.5,0.7-1.1,1.2-1.7,1.4
				c-0.4,0.1-0.6,0.5-0.5,0.8c0.1,0.3,0.4,0.5,0.7,0.5c0.1,0,0.1,0,0.2,0c0.6-0.1,1.1-0.4,1.5-0.8c-0.5,0.8-1.2,1.4-2,1.6
				c-0.4,0.1-0.6,0.5-0.5,0.8c0.1,0.3,0.4,0.5,0.7,0.5c0.1,0,0.1,0,0.2,0c1.9-0.5,2.8-2.1,3.7-3.6c-0.6,1.3-1.3,2.6-2.5,3.2
				c-0.3,0.2-0.5,0.6-0.3,0.9c0.1,0.2,0.4,0.4,0.6,0.4c0.1,0,0.2,0,0.3-0.1c1.1-0.6,1.9-1.6,2.5-2.7c-0.2,0.5-0.5,0.9-0.7,1.4
				c0,0.1-0.1,0.1-0.1,0.2c-0.1,0.2-0.4,0.7-0.6,0.9c-0.3,0-0.6,0.2-0.7,0.5c-0.1,0.4,0.1,0.7,0.5,0.8c0,0,0.1,0,0.1,0
				c0,0-0.1,0-0.1,0.1c-0.4,0.1-0.5,0.5-0.4,0.9c0.1,0.3,0.4,0.4,0.6,0.4c0.1,0,0.2,0,0.3-0.1c0.1,0,0.1-0.1,0.2-0.1
				c-0.4,0.3-0.8,0.5-1.2,0.7c-0.3,0.2-0.5,0.6-0.3,0.9c0.1,0.3,0.4,0.4,0.6,0.4c0.1,0,0.2,0,0.3-0.1c1-0.4,1.8-1.1,2.4-1.8
				c0-0.4,0-0.8,0-1.2C71,48.3,68.3,42.6,64.1,38.6z"/>
			<g>
				<path class="st6" d="M58.7,55.3c2.3-0.3,4-11.9,5.4-16.1c-4-4.9-8.3-6.4-15.1-6.4c-12.1,0-21.9,9.8-21.9,21.9
					c0,3.4,0.8,6.7,2.2,9.6c3.1-0.4,8.4-2.1,13.1-4C49.3,57.5,55.8,55.6,58.7,55.3z"/>
			</g>
			<path class="st4" d="M46.8,77.8L46.8,77.8c-10.5,0-14.6-8.2-15.2-9.3c-3.2-4-4.8-8.8-4.8-13.8c0-12.3,10-22.2,22.2-22.2
				c11,0,20.4,8.2,22,19.1c0.1,0,0.3,0,0.3,0c0.1,0,0.2-0.1,0.2-0.1c0.3,0,0.5,0.4,0.5,0.6c0.7,2,1.3,11.6-8.5,19.4
				c-1.7,1.4-3.5,2.6-5.5,3.6L57.9,75c-0.1,0.1-0.2,0.1-0.4,0.2C53.8,76.9,50.1,77.8,46.8,77.8z M49,33.1
				c-11.9,0-21.5,9.7-21.5,21.5c0,4.9,1.6,9.6,4.7,13.4l0,0.1c0.4,0.9,4.4,8.9,14.6,8.9l0,0c3.3,0,6.8-0.9,10.5-2.5
				c0.1-0.1,0.2-0.1,0.3-0.2l0.1-0.1c2-0.9,3.8-2,5.4-3.5c9.8-7.8,8.8-17.3,8.3-18.7c-0.1,0-0.1,0-0.1,0c-0.2,0-0.4,0-0.7-0.1
				l-0.2-0.1l0-0.2C68.9,41.2,59.7,33.1,49,33.1z"/>
			<g>
				<g>
					
						<linearGradient id="SVGID_00000052078810607965754580000009591357329948565174_" gradientUnits="userSpaceOnUse" x1="63.504" y1="60.6943" x2="75.871" y2="60.6943" gradientTransform="matrix(1 0 0 -1 0 102)">
						<stop  offset="0" style="stop-color:#E8AB00"/>
						<stop  offset="0.2257" style="stop-color:#F1D500"/>
						<stop  offset="0.4103" style="stop-color:#FCF5C3"/>
						<stop  offset="0.4842" style="stop-color:#F1D500"/>
						<stop  offset="0.6323" style="stop-color:#F8E4AE"/>
						<stop  offset="0.7861" style="stop-color:#F1D500"/>
						<stop  offset="0.9786" style="stop-color:#825B1D"/>
					</linearGradient>
					<path style="fill:url(#SVGID_00000052078810607965754580000009591357329948565174_);" d="M64.2,43.1c-0.2,0-0.4-0.1-0.6-0.3
						c-0.2-0.3-0.1-0.7,0.2-1c0.2-0.1,0.4-0.3,0.6-0.4c1.5-1,2.6-1.8,4.7-1.9c1.2-0.1,2.3,0.1,3.4,0.3c0.9,0.1,1.8,0.3,2.7,0.3
						c0.4,0,0.7,0.3,0.7,0.7c0,0.4-0.3,0.7-0.7,0.7c-1,0-2-0.1-2.9-0.3c-1.1-0.2-2.1-0.3-3.1-0.2c-1.7,0.1-2.6,0.7-4,1.7
						c-0.2,0.1-0.4,0.3-0.6,0.4C64.5,43,64.3,43.1,64.2,43.1z"/>
					<path class="st4" d="M64.2,43.3c-0.3,0-0.6-0.1-0.7-0.4c-0.3-0.4-0.2-0.9,0.2-1.2c0.2-0.1,0.4-0.3,0.6-0.4
						c1.5-1,2.7-1.8,4.8-1.9c1.2-0.1,2.3,0.1,3.4,0.3c0.9,0.1,1.8,0.3,2.7,0.3c0.5,0,0.9,0.4,0.9,0.9s-0.4,0.9-0.9,0.9
						c-1,0-2-0.1-2.9-0.3c-1.1-0.2-2.1-0.3-3.1-0.2c-1.6,0.1-2.5,0.7-3.9,1.6c-0.2,0.1-0.4,0.3-0.6,0.4
						C64.5,43.2,64.4,43.3,64.2,43.3z M69.6,39.7c-0.2,0-0.4,0-0.5,0c-2,0.1-3.2,0.9-4.6,1.9c-0.2,0.1-0.4,0.3-0.6,0.4
						c-0.1,0.1-0.2,0.2-0.2,0.3c0,0.1,0,0.3,0.1,0.4c0.2,0.2,0.5,0.3,0.7,0.1c0.2-0.1,0.4-0.3,0.6-0.4c1.4-1,2.4-1.6,4.1-1.7
						c1.1-0.1,2.1,0.1,3.2,0.2c0.9,0.1,1.9,0.3,2.9,0.3c0.3,0,0.5-0.2,0.5-0.5c0-0.3-0.2-0.5-0.5-0.5c-0.9,0-1.8-0.1-2.7-0.3
						C71.5,39.8,70.6,39.7,69.6,39.7z"/>
				</g>
				<g>
					<g>
						
							<linearGradient id="SVGID_00000147177761735038576350000013966181244242351532_" gradientUnits="userSpaceOnUse" x1="82.9445" y1="53.8115" x2="82.9445" y2="53.2497" gradientTransform="matrix(1 0 0 -1 0 102)">
							<stop  offset="2.550000e-02" style="stop-color:#FDE04C"/>
							<stop  offset="0.1122" style="stop-color:#FDF0C5"/>
							<stop  offset="0.301" style="stop-color:#FDE573"/>
							<stop  offset="0.6429" style="stop-color:#FDECA8"/>
							<stop  offset="1" style="stop-color:#FDE04C"/>
						</linearGradient>
						<path style="fill:url(#SVGID_00000147177761735038576350000013966181244242351532_);" d="M83.7,48.9
							C83.7,48.9,83.7,48.9,83.7,48.9c-0.3,0-0.8,0-1.1-0.1c-0.2,0-0.4,0-0.4,0c-0.2,0-0.3-0.2-0.3-0.3c0-0.2,0.2-0.3,0.3-0.3
							c0,0,0,0,0,0c0.1,0,0.2,0,0.5,0c0.3,0,0.8,0,1.1,0.1c0.2,0,0.3,0.2,0.3,0.3C84.1,48.7,83.9,48.9,83.7,48.9z"/>
						<path class="st4" d="M83.7,49L83.7,49c-0.3,0-0.7,0-1.1-0.1l-0.1,0c-0.2,0-0.3,0-0.3,0c-0.1,0-0.2,0-0.3-0.1
							c-0.1-0.1-0.1-0.2-0.1-0.3c0-0.2,0.2-0.4,0.4-0.4c0.1,0,0.3,0,0.5,0c0.3,0,0.8,0,1.1,0.1c0.2,0,0.4,0.2,0.4,0.4
							C84.2,48.8,84,49,83.7,49z M82.2,48.2c-0.1,0-0.3,0.1-0.3,0.3c0,0.1,0,0.1,0.1,0.2c0,0,0.1,0.1,0.2,0.1c0.1,0,0.2,0,0.3,0
							l0.1,0c0.4,0,0.8,0,1.1,0.1l0,0.1v-0.1c0.1,0,0.3-0.1,0.3-0.3c0-0.1-0.1-0.3-0.3-0.3c-0.3,0-0.8,0-1.1-0.1
							C82.4,48.2,82.2,48.2,82.2,48.2z"/>
					</g>
					<g>
						
							<linearGradient id="SVGID_00000087377170112128543760000013943487340289732746_" gradientUnits="userSpaceOnUse" x1="64.5492" y1="49.0629" x2="88.637" y2="57.0633" gradientTransform="matrix(1 0 0 -1 0 102)">
							<stop  offset="0" style="stop-color:#E8AB00"/>
							<stop  offset="0.2257" style="stop-color:#F1D500"/>
							<stop  offset="0.4103" style="stop-color:#FCF5C3"/>
							<stop  offset="0.4842" style="stop-color:#F1D500"/>
							<stop  offset="0.6323" style="stop-color:#F8E4AE"/>
							<stop  offset="0.7861" style="stop-color:#F1D500"/>
							<stop  offset="0.9786" style="stop-color:#825B1D"/>
						</linearGradient>
						<path style="fill:url(#SVGID_00000087377170112128543760000013943487340289732746_);" d="M68.4,57.3c-0.3,0-0.5-0.2-0.6-0.4
							c-0.2-0.3,0-0.8,0.3-0.9c2-0.9,3.3-2.9,3.7-3.6c0.7-1,0.8-2.2,1-3.5c0.2-1,0.3-2.1,0.7-3.1c0.5-1.2,2.2-2.4,3.8-2.7
							c1.1-0.2,2.1,0.1,2.8,0.8c0.6,0.7,0.7,1.6,0.7,2.3c0,0.3,0,0.5,0.1,0.7c0.1,0.7,0.4,0.7,1,0.8c0.1,0,0.3,0,0.5,0.1
							c0.4,0.1,0.6,0.4,0.5,0.8c-0.1,0.4-0.4,0.6-0.8,0.5c-0.1,0-0.2,0-0.3,0c-0.6-0.1-1.9-0.2-2.2-1.9c-0.1-0.3-0.1-0.6-0.1-0.9
							c0-0.6-0.1-1.2-0.3-1.5c-0.4-0.5-1.1-0.4-1.5-0.4c-1.2,0.2-2.5,1.2-2.8,1.9c-0.4,0.9-0.5,1.8-0.6,2.8c-0.2,1.3-0.4,2.7-1.2,4
							c-0.5,0.8-2,3.1-4.3,4.1C68.6,57.2,68.5,57.3,68.4,57.3z"/>
						<path class="st4" d="M68.4,57.4c-0.3,0-0.6-0.2-0.8-0.5c-0.1-0.2-0.1-0.4,0-0.7c0.1-0.2,0.2-0.4,0.5-0.5
							c1.9-0.9,3.2-2.9,3.6-3.5c0.6-1,0.8-2.2,1-3.4c0.2-1,0.3-2.1,0.7-3.1c0.5-1.3,2.3-2.5,3.9-2.8c1.2-0.2,2.2,0.1,2.9,0.8
							c0.7,0.7,0.7,1.7,0.8,2.5c0,0.3,0,0.5,0.1,0.7c0.1,0.5,0.2,0.6,0.8,0.6c0.1,0,0.3,0,0.5,0.1c0.5,0.1,0.8,0.6,0.7,1
							c-0.1,0.5-0.6,0.8-1,0.7c-0.1,0-0.1,0-0.2,0l0,0c-0.6-0.1-2.1-0.2-2.4-2c-0.1-0.3-0.1-0.6-0.1-0.9c0-0.5-0.1-1.1-0.3-1.4
							c-0.3-0.3-0.8-0.4-1.4-0.3c-1.2,0.2-2.4,1.1-2.6,1.8c-0.4,0.8-0.5,1.8-0.6,2.7c-0.2,1.4-0.4,2.8-1.3,4.1
							c-0.5,0.8-2,3.1-4.4,4.2C68.7,57.4,68.6,57.4,68.4,57.4z M78.1,43.2c-0.2,0-0.4,0-0.7,0.1c-1.6,0.3-3.2,1.4-3.7,2.6
							c-0.4,1-0.6,2-0.7,3c-0.2,1.3-0.4,2.5-1.1,3.6c-0.4,0.7-1.8,2.8-3.8,3.7c-0.1,0.1-0.2,0.2-0.3,0.3s0,0.3,0,0.4
							c0.1,0.3,0.4,0.4,0.7,0.3c2.3-1,3.7-3.3,4.2-4.1c0.8-1.3,1-2.6,1.2-4c0.2-1,0.3-1.9,0.7-2.8c0.3-0.7,1.6-1.7,2.9-2
							c0.7-0.1,1.3,0,1.7,0.4c0.3,0.4,0.4,1,0.4,1.6c0,0.3,0,0.6,0.1,0.9c0.3,1.6,1.5,1.7,2.1,1.8l0,0c0.1,0,0.2,0,0.3,0
							c0.3,0.1,0.6-0.1,0.6-0.4c0-0.1,0-0.3-0.1-0.4c-0.1-0.1-0.2-0.2-0.3-0.2c-0.1,0-0.3,0-0.4-0.1c-0.6-0.1-1-0.1-1.2-0.9
							c0-0.2-0.1-0.5-0.1-0.8c0-0.7-0.1-1.6-0.7-2.2C79.6,43.4,78.9,43.2,78.1,43.2z"/>
					</g>
					<g class="st18">
						<path class="st3" d="M80.9,46.7c0-0.2,0-0.3,0-0.5c0-0.7-0.1-1.7-0.7-2.3c-0.7-0.7-1.6-1-2.8-0.8c-1.6,0.3-3.3,1.5-3.8,2.7
							c-0.1,0.3-0.2,0.5-0.3,0.8c0.1-0.1,0.3-0.3,0.4-0.4c0.4-0.4,0.8-0.8,1.3-1.1c0.7-0.5,1.3-0.6,2.1-0.5c0.2,0,0.3-0.1,0.5-0.1
							c0.5-0.1,1.1-0.1,1.5,0.4c0.3,0.3,0.3,0.9,0.3,1.5c0,0.1,0,0.3,0,0.4C79.9,46.8,80.5,46.8,80.9,46.7z"/>
					</g>
				</g>
				<g>
					<g>
						
							<linearGradient id="SVGID_00000015353940302283761910000017013819927799549115_" gradientUnits="userSpaceOnUse" x1="84.8905" y1="57.5788" x2="85.1498" y2="57.1034" gradientTransform="matrix(1 0 0 -1 0 102)">
							<stop  offset="2.550000e-02" style="stop-color:#FDE04C"/>
							<stop  offset="0.1122" style="stop-color:#FDF0C5"/>
							<stop  offset="0.301" style="stop-color:#FDE573"/>
							<stop  offset="0.6429" style="stop-color:#FDECA8"/>
							<stop  offset="1" style="stop-color:#FDE04C"/>
						</linearGradient>
						<path style="fill:url(#SVGID_00000015353940302283761910000017013819927799549115_);" d="M84.3,45.4c-0.1,0-0.2-0.1-0.3-0.2
							c-0.1-0.2-0.1-0.4,0.1-0.5c0.1,0,0.2-0.1,0.4-0.2c0.3-0.2,0.7-0.4,0.9-0.5c0.2-0.1,0.4-0.1,0.5,0.1c0.1,0.2,0.1,0.4-0.1,0.5
							c-0.2,0.2-0.7,0.4-1,0.6c-0.2,0.1-0.3,0.2-0.4,0.2C84.5,45.4,84.4,45.4,84.3,45.4z"/>
						<path class="st4" d="M84.3,45.5c-0.2,0-0.3-0.1-0.4-0.2c-0.1-0.2-0.1-0.5,0.1-0.6c0.1,0,0.2-0.1,0.4-0.2
							c0.3-0.1,0.7-0.4,1-0.5c0.2-0.1,0.5-0.1,0.6,0.1c0.1,0.2,0.1,0.5-0.1,0.6c-0.3,0.2-0.7,0.4-1,0.6l-0.1,0
							c-0.1,0.1-0.3,0.1-0.3,0.2C84.5,45.5,84.4,45.5,84.3,45.5z M85.7,44c0,0-0.1,0-0.1,0c-0.2,0.2-0.7,0.4-1,0.5
							c-0.2,0.1-0.4,0.2-0.4,0.2c-0.1,0.1-0.2,0.2-0.1,0.4c0.1,0.1,0.2,0.2,0.4,0.1c0,0,0.2-0.1,0.3-0.2l0.1,0
							c0.3-0.2,0.7-0.4,1-0.6c0.1-0.1,0.2-0.2,0.1-0.4C85.9,44.1,85.8,44,85.7,44z"/>
					</g>
					<g>
						
							<linearGradient id="SVGID_00000062152872711989881840000012977098504155467953_" gradientUnits="userSpaceOnUse" x1="64.1115" y1="50.377" x2="88.2008" y2="58.3779" gradientTransform="matrix(1 0 0 -1 0 102)">
							<stop  offset="0" style="stop-color:#E8AB00"/>
							<stop  offset="0.2257" style="stop-color:#F1D500"/>
							<stop  offset="0.4103" style="stop-color:#FCF5C3"/>
							<stop  offset="0.4842" style="stop-color:#F1D500"/>
							<stop  offset="0.6323" style="stop-color:#F8E4AE"/>
							<stop  offset="0.7861" style="stop-color:#F1D500"/>
							<stop  offset="0.9786" style="stop-color:#825B1D"/>
						</linearGradient>
						<path style="fill:url(#SVGID_00000062152872711989881840000012977098504155467953_);" d="M68.9,55.4c-0.3,0-0.5-0.2-0.6-0.4
							c-0.1-0.4,0-0.8,0.4-0.9c1.1-0.5,2.2-2.4,2.5-3.9c0.1-0.4,0.2-0.8,0.2-1.2c0.3-1.6,0.6-3.2,1.6-4.5c1.6-2.1,3.5-2.6,5.7-1.7
							c0.8,0.3,1.3,0.8,1.9,1.2c0.9,0.7,1.5,1.3,2.7,0.9c0.1,0,0.4-0.2,0.5-0.3c0.1-0.1,0.2-0.1,0.2-0.2c0.3-0.2,0.7-0.1,1,0.2
							c0.2,0.3,0.1,0.7-0.2,1c-0.1,0-0.1,0.1-0.2,0.1c-0.3,0.2-0.6,0.4-1,0.5c-1.9,0.5-3-0.4-4-1.2c-0.5-0.4-0.9-0.8-1.5-1
							c-1.7-0.7-2.9-0.3-4.1,1.3c-0.9,1.1-1.1,2.5-1.4,3.9c-0.1,0.4-0.1,0.8-0.2,1.2c-0.3,1.6-1.5,4.1-3.4,4.9
							C69,55.4,69,55.4,68.9,55.4z"/>
						<path class="st4" d="M68.9,55.5c-0.4,0-0.7-0.2-0.8-0.5c-0.2-0.4,0-0.9,0.5-1.1c1-0.4,2.1-2.3,2.4-3.8
							c0.1-0.4,0.2-0.8,0.2-1.2c0.3-1.6,0.6-3.2,1.7-4.6c1.1-1.5,2.4-2.2,3.9-2.2c0.7,0,1.4,0.2,2.1,0.5c0.8,0.3,1.4,0.8,1.9,1.3
							c0.7,0.6,1.2,1,1.9,1c0.2,0,0.4,0,0.6-0.1c0.1,0,0.4-0.2,0.5-0.3c0.1-0.1,0.2-0.1,0.2-0.2c0.4-0.3,0.9-0.2,1.2,0.2
							c0.3,0.4,0.2,0.9-0.2,1.2c-0.1,0-0.1,0.1-0.2,0.1c-0.3,0.2-0.6,0.5-1,0.6c-0.4,0.1-0.8,0.2-1.1,0.2c-1.3,0-2.2-0.8-3-1.4
							c-0.5-0.4-0.9-0.8-1.5-1c-0.5-0.2-1-0.3-1.4-0.3c-0.9,0-1.7,0.5-2.5,1.5c-0.8,1.1-1.1,2.4-1.3,3.8c-0.1,0.4-0.1,0.8-0.2,1.2
							c-0.3,1.6-1.6,4.2-3.5,5C69.1,55.5,69,55.5,68.9,55.5z M76.7,42.5c-1.3,0-2.5,0.7-3.6,2.1c-1,1.3-1.3,2.9-1.6,4.4
							c-0.1,0.4-0.1,0.8-0.2,1.2c-0.3,1.6-1.4,3.6-2.6,4c-0.3,0.1-0.4,0.4-0.3,0.7c0.1,0.3,0.4,0.4,0.7,0.3c1.8-0.7,2.9-3.3,3.2-4.8
							c0.1-0.4,0.2-0.8,0.2-1.2c0.3-1.5,0.5-2.9,1.4-4c0.9-1.1,1.8-1.7,2.8-1.7c0.5,0,1,0.1,1.5,0.3c0.6,0.2,1,0.6,1.5,1
							c0.8,0.7,1.6,1.3,2.8,1.3c0.3,0,0.7,0,1-0.1c0.3-0.1,0.7-0.3,0.9-0.5c0.1-0.1,0.1-0.1,0.2-0.1c0.2-0.2,0.3-0.5,0.1-0.7
							c-0.2-0.2-0.5-0.3-0.7-0.1c-0.1,0-0.1,0.1-0.2,0.1c-0.3,0.2-0.5,0.3-0.6,0.4c-0.3,0.1-0.5,0.1-0.7,0.1c-0.9,0-1.4-0.5-2.1-1.1
							c-0.5-0.4-1.1-0.9-1.8-1.2C78,42.6,77.3,42.5,76.7,42.5z"/>
					</g>
					<path class="st3" d="M80.6,44c-0.5-0.4-1.1-0.9-1.9-1.2c-2.2-0.9-4.1-0.4-5.7,1.7c-1.1,1.4-1.4,3-1.6,4.5
						c-0.1,0.4-0.1,0.8-0.2,1.2c-0.2,0.7-2,3.2-2.4,3.9c1.2,1,3.1-2.6,3.6-3.1c0.1-0.2,0.1-0.3,0.1-0.5c0.1-0.4,0.2-0.8,0.2-1.2
						c0.3-1.5,0.5-2.8,1.4-3.9c1.2-1.6,2.5-1.9,4.1-1.3c0.2,0.1,0.5,0.2,0.7,0.4l1.8-0.3C80.7,44,80.6,44,80.6,44z"/>
				</g>
				<g>
					<g>
						
							<linearGradient id="SVGID_00000173133227490783931450000017304846430204820610_" gradientUnits="userSpaceOnUse" x1="85.213" y1="59.0607" x2="85.4293" y2="58.3254" gradientTransform="matrix(1 0 0 -1 0 102)">
							<stop  offset="2.550000e-02" style="stop-color:#FDE04C"/>
							<stop  offset="0.1122" style="stop-color:#FDF0C5"/>
							<stop  offset="0.301" style="stop-color:#FDE573"/>
							<stop  offset="0.6429" style="stop-color:#FDECA8"/>
							<stop  offset="1" style="stop-color:#FDE04C"/>
						</linearGradient>
						<path style="fill:url(#SVGID_00000173133227490783931450000017304846430204820610_);" d="M84.7,44.1c-0.1,0-0.2-0.1-0.3-0.2
							c-0.1-0.2-0.1-0.4,0.1-0.5c0.1,0,0.2-0.1,0.4-0.2c0.3-0.2,0.7-0.4,0.9-0.5c0.2-0.1,0.4-0.1,0.5,0.1c0.1,0.2,0.1,0.4-0.1,0.5
							c-0.2,0.2-0.7,0.4-1,0.6C85,43.9,84.9,44,84.8,44C84.8,44.1,84.7,44.1,84.7,44.1z"/>
						<path class="st4" d="M84.7,44.2c-0.2,0-0.3-0.1-0.4-0.2c-0.1-0.2-0.1-0.5,0.1-0.6c0.1,0,0.2-0.1,0.4-0.2
							c0.3-0.1,0.7-0.4,1-0.5c0.2-0.1,0.5-0.1,0.6,0.1c0.1,0.2,0.1,0.5-0.1,0.6c-0.2,0.2-0.7,0.4-1,0.6l-0.1,0
							c-0.1,0.1-0.3,0.1-0.3,0.2C84.8,44.2,84.7,44.2,84.7,44.2z M86,42.7c0,0-0.1,0-0.1,0c-0.2,0.2-0.7,0.4-1,0.5
							c-0.2,0.1-0.4,0.2-0.4,0.2c-0.1,0.1-0.2,0.2-0.1,0.4c0.1,0.1,0.2,0.2,0.4,0.1c0,0,0.2-0.1,0.3-0.2l0.1,0
							c0.3-0.2,0.7-0.4,1-0.6c0.1-0.1,0.2-0.2,0.1-0.4C86.2,42.8,86.1,42.7,86,42.7z"/>
					</g>
					<g>
						
							<linearGradient id="SVGID_00000110451099559007978470000005536917604293415584_" gradientUnits="userSpaceOnUse" x1="61.3039" y1="49.5554" x2="94.4581" y2="62.1252" gradientTransform="matrix(1 0 0 -1 0 102)">
							<stop  offset="0" style="stop-color:#E8AB00"/>
							<stop  offset="0.2257" style="stop-color:#F1D500"/>
							<stop  offset="0.4103" style="stop-color:#FCF5C3"/>
							<stop  offset="0.4842" style="stop-color:#F1D500"/>
							<stop  offset="0.6323" style="stop-color:#F8E4AE"/>
							<stop  offset="0.7861" style="stop-color:#F1D500"/>
							<stop  offset="0.9786" style="stop-color:#825B1D"/>
						</linearGradient>
						<path style="fill:url(#SVGID_00000110451099559007978470000005536917604293415584_);" d="M68.9,54c-0.1,0-0.2,0-0.3,0
							c-0.4-0.1-0.6-0.5-0.5-0.8c0.1-0.3,0.4-0.5,0.7-0.5c0.2-0.2,0.4-0.7,0.6-0.9c0-0.1,0.1-0.2,0.1-0.2c0.8-1.4,1.6-3,2.2-4.6
							c0.7-1.7,1.4-3.2,3.4-4.1c1.9-0.9,3.7-1.1,5.2-0.4c0.2,0.1,0.5,0.2,0.8,0.3c1.4,0.7,2.4,1,3.2,0.4c0.3-0.2,0.7-0.1,1,0.2
							c0.2,0.3,0.1,0.7-0.2,1c-1.6,1.1-3.3,0.3-4.6-0.3c-0.2-0.1-0.5-0.2-0.7-0.3c-1.5-0.6-3-0.1-4.1,0.4c-1.4,0.7-2,1.6-2.8,3.4
							c-0.7,1.6-1.5,3.3-2.3,4.8c0,0.1-0.1,0.1-0.1,0.2C70.3,53,69.7,54,68.9,54z"/>
						<path class="st4" d="M68.9,54.2c-0.1,0-0.2,0-0.3,0c-0.5-0.1-0.7-0.6-0.6-1.1c0.1-0.4,0.4-0.6,0.8-0.6
							c0.2-0.2,0.4-0.6,0.5-0.8c0.1-0.1,0.1-0.2,0.1-0.2c0.8-1.4,1.6-3,2.2-4.6c0.7-1.7,1.5-3.2,3.5-4.2c1.9-0.9,3.8-1.1,5.4-0.4
							c0.2,0.1,0.5,0.2,0.8,0.3c0.8,0.4,1.6,0.7,2.2,0.7c0.3,0,0.6-0.1,0.9-0.3c0.4-0.3,0.9-0.2,1.2,0.2c0.3,0.4,0.2,0.9-0.2,1.2
							c-0.6,0.4-1.2,0.6-1.8,0.6c-1.1,0-2.1-0.5-3-0.9c-0.2-0.1-0.5-0.2-0.7-0.3c-1.1-0.5-2.5-0.3-4,0.4c-1.4,0.7-2,1.6-2.7,3.3
							c-0.7,1.6-1.5,3.3-2.3,4.8c0,0.1-0.1,0.1-0.1,0.2C70.4,53.1,69.8,54.2,68.9,54.2z M68.8,52.8c-0.3,0-0.5,0.2-0.5,0.4
							c-0.1,0.3,0.1,0.6,0.4,0.6c0.1,0,0.2,0,0.2,0c0.7,0,1.2-1,1.5-1.5c0.1-0.1,0.1-0.2,0.1-0.2c0.8-1.5,1.6-3.1,2.3-4.7
							c0.8-1.8,1.3-2.8,2.8-3.5c1.5-0.8,3-0.9,4.2-0.4c0.2,0.1,0.5,0.2,0.7,0.3c0.9,0.4,1.8,0.9,2.8,0.9c0.6,0,1.1-0.2,1.6-0.5
							c0.2-0.2,0.3-0.5,0.1-0.7c-0.2-0.2-0.5-0.3-0.7-0.1c-0.3,0.2-0.7,0.3-1.1,0.3c-0.7,0-1.5-0.3-2.4-0.8
							c-0.3-0.1-0.5-0.2-0.8-0.3c-1.5-0.6-3.3-0.5-5.1,0.4c-1.9,1-2.7,2.4-3.3,4.1c-0.6,1.6-1.4,3.2-2.2,4.6c0,0.1-0.1,0.1-0.1,0.2
							c-0.2,0.4-0.4,0.8-0.6,0.9L68.8,52.8L68.8,52.8L68.8,52.8L68.8,52.8z"/>
					</g>
					<path class="st3" d="M81.1,42.7c-0.3-0.1-0.5-0.2-0.8-0.3c-1.6-0.7-3.4-0.5-5.2,0.4c-1.9,0.9-2.7,2.3-3.3,3.9
						c0.1-0.2,0.3-0.4,0.4-0.5c0.4-0.4,0.8-0.8,1.3-1.1c0.6-0.4,1.3-1,1.9-1.3c0.7-0.3,1.6-0.5,2.4-0.5c0.6-0.1,1.3,0,2,0.3
						c0.2,0.1,0.5,0.2,0.7,0.3c0.1,0,0.1,0.1,0.2,0.1c1,0.1,2.2,0.1,2.9-0.6C82.9,43.5,82.1,43.2,81.1,42.7z"/>
				</g>
				<g>
					
						<linearGradient id="SVGID_00000013876704822329366520000008731723185976159153_" gradientUnits="userSpaceOnUse" x1="63.5686" y1="52.0117" x2="87.6575" y2="60.0125" gradientTransform="matrix(1 0 0 -1 0 102)">
						<stop  offset="0" style="stop-color:#E8AB00"/>
						<stop  offset="0.2257" style="stop-color:#F1D500"/>
						<stop  offset="0.4103" style="stop-color:#FCF5C3"/>
						<stop  offset="0.4842" style="stop-color:#F1D500"/>
						<stop  offset="0.6323" style="stop-color:#F8E4AE"/>
						<stop  offset="0.7861" style="stop-color:#F1D500"/>
						<stop  offset="0.9786" style="stop-color:#825B1D"/>
					</linearGradient>
					<path style="fill:url(#SVGID_00000013876704822329366520000008731723185976159153_);" d="M67.4,52.9c-0.2,0-0.5-0.1-0.6-0.4
						c-0.2-0.3-0.1-0.8,0.3-0.9c1.4-0.8,2.2-2.6,2.9-4.3c0.2-0.5,0.4-1,0.7-1.5c0.8-1.7,2.6-3,4-3.8c1.3-0.7,2.8-1,4.3-0.9
						c0.5,0,1,0.1,1.5,0.2c0.9,0.2,1.6,0.3,2.4,0.1c0.3-0.1,0.7-0.3,0.9-0.4c0.3-0.2,0.7-0.1,1,0.2c0.2,0.3,0.1,0.7-0.2,1
						c-0.4,0.3-0.8,0.5-1.3,0.6c-1.1,0.3-2.1,0.1-3.1,0c-0.4-0.1-0.9-0.2-1.3-0.2c-1.4-0.1-2.5,0.1-3.6,0.7
						c-1.2,0.6-2.8,1.8-3.4,3.1c-0.2,0.4-0.4,0.9-0.6,1.4c-0.8,1.8-1.7,3.9-3.5,5C67.6,52.9,67.5,52.9,67.4,52.9z"/>
					<path class="st4" d="M67.4,53.1c-0.3,0-0.6-0.2-0.8-0.4c-0.2-0.4-0.1-0.9,0.3-1.2c1.4-0.8,2.1-2.5,2.9-4.2
						c0.2-0.5,0.4-1,0.7-1.5c0.8-1.7,2.7-3.1,4.1-3.8c1.3-0.7,2.8-1,4.4-0.9c0.5,0,1,0.1,1.5,0.2c0.9,0.2,1.7,0.3,2.4,0.1
						c0.3-0.1,0.6-0.2,0.9-0.4c0.4-0.3,0.9-0.2,1.2,0.2c0.1,0.2,0.2,0.4,0.1,0.6s-0.2,0.4-0.4,0.6c-0.4,0.3-0.9,0.5-1.4,0.6
						c-0.4,0.1-0.9,0.2-1.3,0.2c-0.6,0-1.2-0.1-1.8-0.2c-0.4-0.1-0.9-0.2-1.3-0.2c-1.3-0.1-2.5,0.1-3.5,0.7
						c-1.1,0.6-2.7,1.7-3.4,3.1c-0.2,0.4-0.4,0.9-0.6,1.3c-0.8,1.9-1.7,4-3.6,5.1C67.7,53.1,67.5,53.1,67.4,53.1z M78.4,41.4
						c-1.3,0-2.6,0.3-3.7,0.9c-1.4,0.7-3.2,2.1-4,3.7c-0.2,0.4-0.4,0.9-0.6,1.4c-0.8,1.8-1.5,3.6-3,4.4c-0.2,0.1-0.3,0.5-0.2,0.7
						c0.1,0.2,0.5,0.3,0.7,0.2c1.8-1,2.7-3.1,3.5-4.9c0.2-0.5,0.4-1,0.6-1.4c0.7-1.4,2.3-2.6,3.5-3.2c1.1-0.6,2.3-0.8,3.7-0.7
						c0.4,0,0.9,0.1,1.3,0.2c0.6,0.1,1.2,0.2,1.8,0.2c0.4,0,0.8-0.1,1.2-0.2c0.5-0.1,0.9-0.4,1.3-0.6c0.1-0.1,0.2-0.2,0.2-0.3
						c0-0.1,0-0.3-0.1-0.4c-0.2-0.2-0.5-0.3-0.7-0.1c-0.2,0.2-0.6,0.3-1,0.4c-0.3,0.1-0.6,0.1-1,0.1c-0.5,0-1-0.1-1.6-0.2
						c-0.5-0.1-0.9-0.2-1.5-0.2C78.8,41.4,78.6,41.4,78.4,41.4z"/>
				</g>
				<path class="st3" d="M84.1,41.3c-0.1-0.1-0.3-0.1-0.4-0.1c-0.2,0.1-0.5,0.2-0.8,0.3c-0.8,0.2-1.6,0.1-2.4-0.1
					c-0.5-0.1-1-0.2-1.5-0.2c-1.6-0.1-3,0.2-4.3,0.9c-1.4,0.7-3.2,2.1-4,3.8c-0.2,0.5-0.4,0.9-0.7,1.5c-0.3,0.7-0.6,1.4-1,2.1
					c0.2-0.2,0.3-0.4,0.5-0.5c0.5-0.4,0.8-0.8,1.1-1.3c0.4-0.8,0.9-1.6,1.5-2.3c0.6-0.7,1.3-1.1,2.1-1.7c0.8-0.5,1.4-1.1,2.4-1.3
					c0.5-0.1,1.1-0.1,1.6-0.2c0.5,0,1.1-0.1,1.5,0c0.7,0.2,1,0.4,1.7,0.4c0.6,0,1.1,0,1.6-0.1C83.4,42.3,84.8,41.8,84.1,41.3z"/>
				<g>
					<g>
						
							<linearGradient id="SVGID_00000116956549946062552420000018263812158305501340_" gradientUnits="userSpaceOnUse" x1="85.6104" y1="60.5031" x2="85.6967" y2="59.8985" gradientTransform="matrix(1 0 0 -1 0 102)">
							<stop  offset="2.550000e-02" style="stop-color:#FDE04C"/>
							<stop  offset="0.1122" style="stop-color:#FDF0C5"/>
							<stop  offset="0.301" style="stop-color:#FDE573"/>
							<stop  offset="0.6429" style="stop-color:#FDECA8"/>
							<stop  offset="1" style="stop-color:#FDE04C"/>
						</linearGradient>
						<path style="fill:url(#SVGID_00000116956549946062552420000018263812158305501340_);" d="M86.4,42c-0.3,0-0.8,0-1.1,0
							c-0.2,0-0.4,0-0.4,0c-0.2,0-0.3-0.2-0.3-0.3s0.2-0.3,0.3-0.3c0.1,0,0.2,0,0.5,0c0.3,0,0.8,0,1.1,0c0.2,0,0.3,0.2,0.3,0.3
							C86.8,41.8,86.6,42,86.4,42z"/>
						<path class="st4" d="M86.4,42.1c-0.3,0-0.8,0-1.1,0c-0.2,0-0.4,0-0.4,0c-0.2,0-0.4-0.2-0.4-0.4s0.2-0.4,0.4-0.4
							c0.1,0,0.3,0,0.5,0c0.3,0,0.8,0,1.1,0c0.2,0,0.4,0.2,0.4,0.4S86.6,42.1,86.4,42.1z M84.8,41.3c-0.1,0-0.3,0.1-0.3,0.3
							c0,0.1,0.1,0.3,0.3,0.3c0.1,0,0.2,0,0.4,0c0.3,0,0.8,0,1.1,0c0.1,0,0.3-0.1,0.3-0.3s-0.1-0.3-0.3-0.3c-0.3,0-0.7,0-1.1,0
							C85.1,41.3,84.9,41.3,84.8,41.3z"/>
					</g>
				</g>
				<g>
					<g>
						
							<linearGradient id="SVGID_00000003094598968586261940000015804935958400977584_" gradientUnits="userSpaceOnUse" x1="85.1444" y1="62.5616" x2="85.4473" y2="61.7397" gradientTransform="matrix(1 0 0 -1 0 102)">
							<stop  offset="2.550000e-02" style="stop-color:#FDE04C"/>
							<stop  offset="0.1122" style="stop-color:#FDF0C5"/>
							<stop  offset="0.301" style="stop-color:#FDE573"/>
							<stop  offset="0.6429" style="stop-color:#FDECA8"/>
							<stop  offset="1" style="stop-color:#FDE04C"/>
						</linearGradient>
						<path style="fill:url(#SVGID_00000003094598968586261940000015804935958400977584_);" d="M84.6,40.6c-0.1,0-0.3-0.1-0.3-0.2
							c-0.1-0.2,0-0.4,0.2-0.5c0.1,0,0.2-0.1,0.4-0.2c0.3-0.1,0.8-0.3,1-0.4c0.2-0.1,0.4,0,0.5,0.2c0.1,0.2,0,0.4-0.2,0.5
							c-0.3,0.1-0.7,0.3-1,0.4c-0.2,0.1-0.4,0.1-0.4,0.2C84.7,40.6,84.7,40.6,84.6,40.6z"/>
						<path class="st4" d="M84.6,40.7c-0.2,0-0.3-0.1-0.4-0.3c-0.1-0.2,0-0.5,0.2-0.6c0.1,0,0.2-0.1,0.4-0.2c0.3-0.1,0.8-0.3,1-0.4
							c0.2-0.1,0.5,0,0.6,0.2c0.1,0.2,0,0.5-0.2,0.6c-0.3,0.1-0.7,0.3-1,0.4l0,0c-0.2,0.1-0.3,0.1-0.4,0.2
							C84.7,40.7,84.7,40.7,84.6,40.7z M86.1,39.4c0,0-0.1,0-0.1,0c-0.3,0.1-0.7,0.3-1,0.4c-0.2,0.1-0.4,0.2-0.4,0.2
							c-0.1,0.1-0.2,0.2-0.1,0.3c0.1,0.1,0.2,0.2,0.3,0.1c0.1,0,0.2-0.1,0.4-0.2l0.1,0.1l0-0.1c0.3-0.1,0.8-0.3,1-0.4
							c0.1-0.1,0.2-0.2,0.1-0.3C86.3,39.5,86.2,39.4,86.1,39.4z"/>
					</g>
					<g>
						
							<linearGradient id="SVGID_00000111152308299251096170000001857197944876595334_" gradientUnits="userSpaceOnUse" x1="59.9238" y1="53.1931" x2="93.0789" y2="65.7633" gradientTransform="matrix(1 0 0 -1 0 102)">
							<stop  offset="0" style="stop-color:#E8AB00"/>
							<stop  offset="0.2257" style="stop-color:#F1D500"/>
							<stop  offset="0.4103" style="stop-color:#FCF5C3"/>
							<stop  offset="0.4842" style="stop-color:#F1D500"/>
							<stop  offset="0.6323" style="stop-color:#F8E4AE"/>
							<stop  offset="0.7861" style="stop-color:#F1D500"/>
							<stop  offset="0.9786" style="stop-color:#825B1D"/>
						</linearGradient>
						<path style="fill:url(#SVGID_00000111152308299251096170000001857197944876595334_);" d="M65.8,49.9c-0.3,0-0.6-0.2-0.7-0.5
							c-0.1-0.4,0.1-0.7,0.5-0.8c1.2-0.3,2.2-2,3-3.5c0.4-0.8,0.8-1.5,1.3-2.1c1.2-1.5,3.1-2.7,5.5-3.4c2-0.6,4-0.4,5.8-0.2
							c0.9,0.1,1.9,0.2,2.9,0.2c0.2-0.2,0.5-0.2,0.8-0.1c0.4,0.1,0.6,0.4,0.5,0.8c0,0.3-0.3,0.6-0.6,0.6c-1.3,0.1-2.5-0.1-3.7-0.2
							c-1.8-0.2-3.5-0.4-5.3,0.1c-2.1,0.6-3.8,1.6-4.8,2.9c-0.4,0.5-0.8,1.2-1.2,1.9c-1,1.7-2.1,3.7-3.9,4.1
							C65.9,49.9,65.9,49.9,65.8,49.9z"/>
						<path class="st4" d="M65.8,50.1c-0.4,0-0.7-0.3-0.8-0.7c-0.1-0.5,0.2-0.9,0.6-1c1.2-0.3,2.1-1.9,2.9-3.4
							c0.4-0.8,0.9-1.5,1.3-2.1c1.2-1.5,3.2-2.7,5.6-3.4c0.9-0.3,1.9-0.4,3-0.4c1,0,1.9,0.1,2.9,0.2c0.9,0.1,1.8,0.2,2.8,0.2h0.1
							c0.3-0.2,0.6-0.2,0.9-0.1c0.4,0.1,0.7,0.5,0.6,1c0,0.4-0.4,0.8-0.8,0.8c-0.3,0-0.5,0-0.8,0c-1,0-2-0.1-2.9-0.2
							c-0.9-0.1-1.8-0.2-2.7-0.2c-0.9,0-1.7,0.1-2.5,0.3c-2.1,0.6-3.7,1.6-4.8,2.8c-0.4,0.5-0.8,1.1-1.1,1.9c-1,1.8-2.1,3.8-4,4.2
							C65.9,50,65.9,50.1,65.8,50.1z M78.4,39.4c-1.1,0-2,0.1-2.9,0.4c-2.4,0.7-4.3,1.8-5.5,3.3c-0.4,0.6-0.8,1.3-1.3,2
							c-0.8,1.5-1.8,3.2-3.1,3.6c-0.3,0.1-0.4,0.3-0.4,0.6c0.1,0.3,0.4,0.4,0.6,0.4c1.7-0.4,2.8-2.4,3.8-4.1
							c0.4-0.7,0.8-1.4,1.2-1.9c1.1-1.3,2.8-2.3,4.9-3c0.8-0.2,1.7-0.3,2.6-0.3c0.9,0,1.8,0.1,2.7,0.2c0.9,0.1,1.9,0.2,2.9,0.2
							c0.3,0,0.5,0,0.8,0c0.3,0,0.5-0.2,0.5-0.5c0-0.3-0.1-0.5-0.4-0.6c-0.3-0.1-0.5-0.1-0.6,0.1l0,0l-0.2,0c-0.9,0-1.9-0.1-2.8-0.2
							C80.3,39.5,79.4,39.4,78.4,39.4z"/>
					</g>
					<path class="st3" d="M84.8,41c0-0.1-0.1-0.1-0.1-0.2c-0.3-0.3-0.7-0.1-0.6-0.6c0-0.2,0.2-0.5,0.3-0.7c-0.1,0-0.1,0.1-0.2,0.1
						c-1,0-2-0.1-2.9-0.2c-0.3,0-0.6-0.1-0.9-0.1c-0.3,0.1-0.6,0.1-0.9,0.3c-0.7,0.3-1.4,0.4-2.1,0.6c-1.2,0.2-2.2,0.5-3.4,0.9
						c-0.8,0.2-1.4,0.5-2,1c-0.4,0.3-0.6,0.6-1,0.9c-0.3,0.2-0.6,0.2-0.8,0.4c-0.3,0.2-0.6,0.4-0.8,0.6c-0.2,0.4-0.4,0.8-0.7,1.2
						c-0.5,0.9-1.1,1.9-1.7,2.6c0.2,0.1,0.5,0.1,0.8,0c0,0.4-0.1,0.8-0.1,1.3c0.9-0.8,1.6-2.1,2.2-3.2c0.4-0.7,0.8-1.4,1.2-1.9
						c1-1.3,2.7-2.3,4.8-2.9c1.8-0.5,3.5-0.3,5.3-0.1C82.3,40.9,83.5,41,84.8,41z"/>
					<g>
						
							<linearGradient id="SVGID_00000034090906387714095090000007940368835738234778_" gradientUnits="userSpaceOnUse" x1="60.4687" y1="51.7542" x2="93.6256" y2="64.3251" gradientTransform="matrix(1 0 0 -1 0 102)">
							<stop  offset="0" style="stop-color:#E8AB00"/>
							<stop  offset="0.2257" style="stop-color:#F1D500"/>
							<stop  offset="0.4103" style="stop-color:#FCF5C3"/>
							<stop  offset="0.4842" style="stop-color:#F1D500"/>
							<stop  offset="0.6323" style="stop-color:#F8E4AE"/>
							<stop  offset="0.7861" style="stop-color:#F1D500"/>
							<stop  offset="0.9786" style="stop-color:#825B1D"/>
						</linearGradient>
						<path style="fill:url(#SVGID_00000034090906387714095090000007940368835738234778_);" d="M65.7,52c-0.3,0-0.6-0.2-0.7-0.5
							c-0.1-0.4,0.1-0.7,0.5-0.8c1.4-0.4,2.2-1.7,2.9-3.1c0.2-0.4,0.4-0.8,0.7-1.1c1.2-1.9,2.2-3.3,4.2-4.5c1.3-0.8,2.8-1.6,4.6-1.8
							c1.2-0.1,2.3,0.1,3.4,0.4c0.7,0.1,1.3,0.3,1.9,0.3c0.1,0,0.2,0,0.3,0c0.3,0,0.5,0.1,0.8,0.1c0,0,0.3,0,0.5,0c0,0,0,0,0.1,0
							c0,0,0,0,0,0v0c0.2,0,0.4,0.1,0.6,0.3c0.1,0.2,0.1,0.5,0,0.7c-0.1,0.2-0.3,0.3-0.6,0.3v0h-0.1c0,0,0,0,0,0c-0.1,0-0.3,0-0.5,0
							c-0.3,0-0.6,0-0.9-0.1c-0.1,0-0.2,0-0.3,0c-0.7-0.1-1.4-0.2-2.1-0.4c-1-0.2-2-0.4-2.9-0.3c-1.5,0.2-2.9,0.9-4,1.6
							c-1.7,1.1-2.6,2.3-3.8,4.1c-0.2,0.3-0.4,0.7-0.6,1.1c-0.9,1.5-1.8,3.2-3.8,3.7C65.8,52,65.7,52,65.7,52z"/>
						<path class="st4" d="M65.7,52.2c-0.4,0-0.7-0.3-0.8-0.6c-0.1-0.5,0.2-0.9,0.6-1.1c1.3-0.3,2.1-1.7,2.8-3
							c0.2-0.4,0.4-0.8,0.7-1.1c1.2-1.9,2.2-3.3,4.2-4.5c1.3-0.8,2.8-1.6,4.7-1.8c0.2,0,0.4,0,0.7,0c1,0,1.9,0.2,2.8,0.4
							c0.7,0.1,1.3,0.3,1.9,0.3c0.1,0,0.2,0,0.3,0c0.3,0,0.5,0.1,0.8,0.1h0.1h0.4h0.2v0c0.3,0,0.5,0.2,0.6,0.4
							c0.2,0.3,0.2,0.6,0,0.9c-0.1,0.2-0.3,0.4-0.6,0.4v0l-0.3,0c-0.1,0-0.1,0-0.2,0l-0.3,0c-0.3,0-0.7,0-1-0.1c-0.1,0-0.2,0-0.3,0
							c-0.7-0.1-1.4-0.2-2.1-0.4c-0.8-0.2-1.6-0.4-2.4-0.4c-0.2,0-0.3,0-0.5,0c-1.5,0.2-2.8,0.9-3.9,1.6c-1.7,1.1-2.6,2.3-3.7,4
							c-0.2,0.3-0.4,0.7-0.6,1c-0.9,1.5-1.9,3.3-3.9,3.8C65.8,52.2,65.7,52.2,65.7,52.2z M78.5,40.3c-0.2,0-0.4,0-0.6,0
							c-1.8,0.2-3.3,1-4.5,1.8c-1.9,1.2-2.9,2.6-4.1,4.4c-0.2,0.4-0.5,0.7-0.7,1.1c-0.8,1.4-1.6,2.8-3,3.2c-0.3,0.1-0.4,0.4-0.4,0.6
							c0.1,0.3,0.4,0.4,0.6,0.4c1.9-0.5,2.8-2.2,3.7-3.6c0.2-0.4,0.4-0.7,0.6-1.1c1.1-1.8,2-3,3.8-4.1c1.1-0.7,2.5-1.5,4.1-1.6
							c0.2,0,0.3,0,0.5,0c0.8,0,1.6,0.2,2.5,0.4c0.7,0.1,1.4,0.3,2.1,0.4c0.1,0,0.2,0,0.3,0c0.3,0,0.6,0.1,0.9,0.1l0.3,0
							c0.1,0,0.1,0,0.2,0h0.1l0.1,0c0.3,0,0.4-0.1,0.5-0.2c0.1-0.2,0.1-0.4,0-0.5c-0.1-0.2-0.2-0.2-0.5-0.3l-0.1,0h-0.4h-0.1
							c-0.3,0-0.5,0-0.8-0.1c-0.1,0-0.2,0-0.3,0c-0.6-0.1-1.3-0.2-2-0.3C80.3,40.5,79.4,40.3,78.5,40.3z"/>
					</g>
				</g>
				<g>
					
						<linearGradient id="SVGID_00000081636248791287709420000015478739419110224022_" gradientUnits="userSpaceOnUse" x1="64.715" y1="58.7848" x2="75.9597" y2="58.7848" gradientTransform="matrix(1 0 0 -1 0 102)">
						<stop  offset="0" style="stop-color:#E8AB00"/>
						<stop  offset="0.2257" style="stop-color:#F1D500"/>
						<stop  offset="0.4103" style="stop-color:#FCF5C3"/>
						<stop  offset="0.4842" style="stop-color:#F1D500"/>
						<stop  offset="0.6323" style="stop-color:#F8E4AE"/>
						<stop  offset="0.7861" style="stop-color:#F1D500"/>
						<stop  offset="0.9786" style="stop-color:#825B1D"/>
					</linearGradient>
					<path style="fill:url(#SVGID_00000081636248791287709420000015478739419110224022_);" d="M65.4,47c-0.2,0-0.4-0.1-0.5-0.2
						c-0.2-0.3-0.2-0.7,0.1-1c0.6-0.5,1.2-1.1,1.8-1.6c1-0.9,1.9-1.8,3-2.6c0.8-0.6,1.7-1.2,2.7-1.6c0.5-0.2,0.9-0.2,1.4-0.3
						c0.4,0,0.9-0.1,1.2-0.2c0.3-0.2,0.8,0,0.9,0.3c0.2,0.3,0,0.8-0.3,0.9C75,41,74.5,41.1,74,41.1c-0.4,0-0.8,0.1-1.1,0.2
						c-0.8,0.3-1.6,0.8-2.3,1.4c-1,0.7-1.9,1.6-2.9,2.5c-0.6,0.6-1.2,1.1-1.9,1.7C65.7,46.9,65.6,47,65.4,47z"/>
					<path class="st4" d="M65.4,47.2c-0.3,0-0.5-0.1-0.7-0.3c-0.1-0.2-0.2-0.4-0.2-0.6c0-0.2,0.1-0.4,0.3-0.6
						c0.6-0.5,1.2-1.1,1.8-1.6c1-0.9,2-1.8,3-2.6c0.8-0.6,1.7-1.2,2.7-1.6c0.5-0.2,1-0.2,1.4-0.3c0.4,0,0.8-0.1,1.1-0.2
						c0.4-0.2,1,0,1.1,0.4c0.1,0.2,0.1,0.4,0,0.7s-0.2,0.4-0.5,0.5c-0.5,0.2-1.1,0.3-1.6,0.4c-0.4,0-0.7,0.1-1,0.2
						c-0.8,0.3-1.5,0.8-2.2,1.3c-1,0.7-1.9,1.6-2.9,2.5c-0.6,0.6-1.2,1.1-1.9,1.7C65.8,47.1,65.6,47.2,65.4,47.2z M75.3,39.6
						c-0.1,0-0.1,0-0.2,0c-0.3,0.2-0.8,0.2-1.2,0.2c-0.4,0-0.9,0.1-1.3,0.2c-1,0.3-1.9,1-2.6,1.5c-1,0.8-2,1.7-3,2.5
						c-0.6,0.6-1.2,1.1-1.8,1.6c-0.1,0.1-0.2,0.2-0.2,0.4s0,0.3,0.1,0.4c0.2,0.2,0.5,0.2,0.7,0.1c0.6-0.5,1.3-1.1,1.9-1.7
						c0.9-0.9,1.9-1.7,2.9-2.5c0.7-0.5,1.5-1.1,2.3-1.4c0.3-0.1,0.7-0.2,1.1-0.2c0.5-0.1,1.1-0.1,1.5-0.3c0.1-0.1,0.2-0.2,0.3-0.3
						c0.1-0.1,0-0.3,0-0.4C75.7,39.7,75.5,39.6,75.3,39.6z"/>
				</g>
				<g>
					<g>
						
							<linearGradient id="SVGID_00000106137649545761173470000003780056021217006013_" gradientUnits="userSpaceOnUse" x1="83.8936" y1="63.6279" x2="84.7142" y2="62.8505" gradientTransform="matrix(1 0 0 -1 0 102)">
							<stop  offset="2.550000e-02" style="stop-color:#FDE04C"/>
							<stop  offset="0.1122" style="stop-color:#FDF0C5"/>
							<stop  offset="0.301" style="stop-color:#FDE573"/>
							<stop  offset="0.6429" style="stop-color:#FDECA8"/>
							<stop  offset="1" style="stop-color:#FDE04C"/>
						</linearGradient>
						<path style="fill:url(#SVGID_00000106137649545761173470000003780056021217006013_);" d="M83.8,39.8c-0.1,0-0.2,0-0.2-0.1
							c-0.1-0.1-0.2-0.3,0-0.5c0-0.1,0.2-0.2,0.3-0.3c0.2-0.2,0.6-0.6,0.8-0.8c0.1-0.1,0.3-0.2,0.5,0c0.1,0.1,0.2,0.3,0,0.5
							c-0.2,0.2-0.5,0.5-0.8,0.8c-0.1,0.2-0.3,0.3-0.3,0.3C84,39.7,83.9,39.8,83.8,39.8z"/>
						<path class="st4" d="M83.8,39.8c-0.1,0-0.2,0-0.3-0.1c-0.2-0.2-0.2-0.4,0-0.6c0-0.1,0.2-0.2,0.3-0.3c0.2-0.3,0.6-0.6,0.8-0.8
							c0.2-0.2,0.4-0.2,0.6,0c0.1,0.1,0.1,0.2,0.1,0.3c0,0.1,0,0.2-0.1,0.3c-0.2,0.2-0.5,0.6-0.8,0.8l0,0c-0.1,0.1-0.2,0.2-0.3,0.3
							C84.1,39.8,84,39.8,83.8,39.8z M84.9,38c-0.1,0-0.1,0-0.2,0.1c-0.2,0.2-0.5,0.5-0.8,0.8c-0.2,0.2-0.3,0.3-0.3,0.3
							c-0.1,0.1-0.1,0.3,0,0.4c0.1,0.1,0.3,0.1,0.4,0c0,0,0.1-0.2,0.3-0.3l0,0c0.2-0.2,0.6-0.6,0.8-0.8c0-0.1,0.1-0.1,0.1-0.2
							s0-0.1-0.1-0.2C85.1,38,85,38,84.9,38z"/>
					</g>
					<g>
						
							<linearGradient id="SVGID_00000106837694828501203990000017447607928412972675_" gradientUnits="userSpaceOnUse" x1="59.5607" y1="54.1547" x2="92.7157" y2="66.7249" gradientTransform="matrix(1 0 0 -1 0 102)">
							<stop  offset="0" style="stop-color:#E8AB00"/>
							<stop  offset="0.2257" style="stop-color:#F1D500"/>
							<stop  offset="0.4103" style="stop-color:#FCF5C3"/>
							<stop  offset="0.4842" style="stop-color:#F1D500"/>
							<stop  offset="0.6323" style="stop-color:#F8E4AE"/>
							<stop  offset="0.7861" style="stop-color:#F1D500"/>
							<stop  offset="0.9786" style="stop-color:#825B1D"/>
						</linearGradient>
						<path style="fill:url(#SVGID_00000106837694828501203990000017447607928412972675_);" d="M64.7,48.3c-0.1,0-0.2,0-0.4,0
							c-0.4-0.1-0.6-0.4-0.6-0.8c0.1-0.4,0.4-0.6,0.8-0.6c0.8,0.1,1.8-0.6,2.5-1.3c0.4-0.4,0.9-0.9,1.3-1.3c0.5-0.5,1-1,1.5-1.5
							c1.4-1.4,2.9-2.3,4.5-3.1c1.5-0.8,3.2-1.1,5.2-1c0.4,0,0.9,0.1,1.3,0.2c1.3,0.2,2.2,0.3,2.7-0.3c0.2-0.3,0.7-0.3,1-0.1
							c0.3,0.2,0.3,0.7,0.1,1c-1.1,1.3-2.7,1-4,0.8c-0.4-0.1-0.8-0.1-1.1-0.2C77.8,40,76.3,40.3,75,41c-1.5,0.8-2.9,1.6-4.1,2.8
							c-0.5,0.5-1,1-1.6,1.5c-0.4,0.4-0.9,0.8-1.3,1.3C67.2,47.4,65.9,48.3,64.7,48.3z"/>
						<path class="st4" d="M64.7,48.4c-0.1,0-0.3,0-0.4,0c-0.2,0-0.4-0.2-0.6-0.3s-0.2-0.4-0.2-0.6c0.1-0.5,0.5-0.8,1-0.7
							c0.7,0.1,1.7-0.6,2.4-1.2c0.4-0.4,0.9-0.9,1.3-1.3l0,0c0.5-0.5,1-1,1.5-1.5c1.4-1.4,2.9-2.3,4.5-3.1c1.5-0.8,3.3-1.1,5.3-1
							c0.4,0,0.9,0.1,1.3,0.2c0.6,0.1,1.1,0.2,1.5,0.2c0.5,0,0.8-0.1,1.1-0.4c0.3-0.4,0.9-0.4,1.2-0.1c0.2,0.1,0.3,0.4,0.3,0.6
							c0,0.2,0,0.5-0.2,0.6c-0.6,0.7-1.4,1-2.4,1c-0.6,0-1.2-0.1-1.8-0.2c-0.4-0.1-0.8-0.1-1.1-0.2c-1.7-0.1-3.2,0.2-4.4,0.8
							c-1.5,0.8-2.9,1.5-4.1,2.8c-0.5,0.5-1,1-1.6,1.5c-0.4,0.4-0.9,0.8-1.3,1.3C67.7,47.1,66.3,48.4,64.7,48.4z M64.4,47
							c-0.3,0-0.5,0.2-0.5,0.4c0,0.1,0,0.3,0.1,0.4c0.1,0.1,0.2,0.2,0.3,0.2c0.1,0,0.2,0,0.3,0c1.2,0,2.4-0.8,3.2-1.6
							c0.4-0.4,0.9-0.9,1.3-1.3c0.5-0.5,1-1,1.6-1.5c1.3-1.3,2.7-2.1,4.2-2.9c1.3-0.7,2.8-1,4.6-0.9c0.3,0,0.7,0.1,1.1,0.2
							c0.5,0.1,1.1,0.2,1.7,0.2c0.9,0,1.6-0.3,2.1-0.9c0.1-0.1,0.1-0.2,0.1-0.4c0-0.1-0.1-0.3-0.2-0.3c-0.2-0.2-0.6-0.1-0.7,0.1
							c-0.3,0.4-0.7,0.5-1.3,0.5c-0.4,0-0.9-0.1-1.5-0.2c-0.4-0.1-0.9-0.2-1.3-0.2c-2-0.1-3.7,0.2-5.1,1c-1.6,0.8-3.1,1.7-4.4,3.1
							c-0.5,0.5-1,1-1.5,1.5l0,0c-0.5,0.4-0.9,0.9-1.3,1.3C66.4,46.4,65.3,47.2,64.4,47C64.5,47,64.4,47,64.4,47z"/>
					</g>
					<path class="st3" d="M81.7,39.9c0-0.1,0.7-0.3,0.9-0.4c0.2-0.1,0.2-0.3,0.2-0.4c-0.5,0.1-1.1,0-1.9-0.2
						c-0.4-0.1-0.9-0.2-1.3-0.2c-2-0.1-3.8,0.2-5.2,1c-1.1,0.6-2.2,1.2-3.3,2c0.4-0.1,0.8-0.2,1.1-0.2c0.5,0,0.9-0.1,1.3-0.2
						c-0.2,0.2-0.6,0.6-0.8,1c0.7-0.5,1.5-0.9,2.3-1.3c1.3-0.7,2.8-0.9,4.5-0.9c0.3,0,0.7,0.1,1.1,0.2c0.6,0.1,1.2,0.2,1.9,0.2
						C82.1,40.3,81.6,40.1,81.7,39.9z"/>
				</g>
				<g>
					<g>
						
							<linearGradient id="SVGID_00000113330750996692347660000016882597965021836972_" gradientUnits="userSpaceOnUse" x1="82.9921" y1="66.9158" x2="83.2949" y2="66.0508" gradientTransform="matrix(1 0 0 -1 0 102)">
							<stop  offset="2.550000e-02" style="stop-color:#FDE04C"/>
							<stop  offset="0.1122" style="stop-color:#FDF0C5"/>
							<stop  offset="0.301" style="stop-color:#FDE573"/>
							<stop  offset="0.6429" style="stop-color:#FDECA8"/>
							<stop  offset="1" style="stop-color:#FDE04C"/>
						</linearGradient>
						<path style="fill:url(#SVGID_00000113330750996692347660000016882597965021836972_);" d="M83.2,38.1c-0.1,0-0.1,0-0.2-0.1
							c-0.2-0.1-0.2-0.3-0.1-0.5c0-0.1,0.1-0.2,0.3-0.4c0.2-0.3,0.5-0.7,0.6-0.9c0.1-0.2,0.3-0.2,0.5-0.1c0.2,0.1,0.2,0.3,0.1,0.5
							c-0.2,0.2-0.4,0.6-0.6,0.9c-0.1,0.2-0.2,0.3-0.3,0.4C83.5,38,83.4,38.1,83.2,38.1z"/>
						<path class="st4" d="M83.2,38.1c-0.1,0-0.2,0-0.2-0.1c-0.2-0.1-0.3-0.4-0.1-0.6c0-0.1,0.1-0.2,0.3-0.4l0,0
							c0.2-0.3,0.5-0.7,0.6-0.9c0.1-0.2,0.4-0.3,0.6-0.1c0.2,0.1,0.3,0.4,0.1,0.6c-0.2,0.3-0.4,0.6-0.6,0.9l-0.1,0.1
							c-0.1,0.1-0.2,0.2-0.2,0.3C83.5,38.1,83.4,38.1,83.2,38.1z M84.1,36.2c-0.1,0-0.2,0-0.2,0.1c-0.1,0.2-0.4,0.6-0.6,0.9l0,0
							c-0.1,0.2-0.2,0.3-0.3,0.4c-0.1,0.1,0,0.3,0.1,0.4c0.1,0.1,0.3,0,0.4-0.1c0,0,0.1-0.2,0.2-0.3l0.1-0.1
							c0.2-0.3,0.5-0.7,0.6-0.9c0.1-0.1,0-0.3-0.1-0.4C84.2,36.2,84.2,36.2,84.1,36.2z"/>
					</g>
					<g>
						
							<linearGradient id="SVGID_00000054956461893985177570000013677109299545703609_" gradientUnits="userSpaceOnUse" x1="58.9475" y1="55.7717" x2="92.1027" y2="68.3419" gradientTransform="matrix(1 0 0 -1 0 102)">
							<stop  offset="0" style="stop-color:#E8AB00"/>
							<stop  offset="0.2257" style="stop-color:#F1D500"/>
							<stop  offset="0.4103" style="stop-color:#FCF5C3"/>
							<stop  offset="0.4842" style="stop-color:#F1D500"/>
							<stop  offset="0.6323" style="stop-color:#F8E4AE"/>
							<stop  offset="0.7861" style="stop-color:#F1D500"/>
							<stop  offset="0.9786" style="stop-color:#825B1D"/>
						</linearGradient>
						<path style="fill:url(#SVGID_00000054956461893985177570000013677109299545703609_);" d="M63.7,46.6c-0.3,0-0.5-0.2-0.6-0.4
							c-0.2-0.4,0-0.8,0.4-0.9c2.2-0.9,4.1-2.4,6.3-4.7c1.3-1.4,3-1.9,4.6-2.3c1.6-0.4,3.4-0.5,5.4-0.3c0.9,0.1,1.5,0.1,2.2-0.4
							l0.1,0c0.8-0.4,1-0.7,1.1-0.8c0.1-0.3,0.4-0.6,0.7-0.6c0.4,0,0.7,0.4,0.6,0.7c-0.1,0.7-0.9,1.3-1.8,1.8l-0.1,0
							c-1,0.6-1.9,0.6-3,0.5c-1.9-0.2-3.5-0.1-5,0.2c-1.7,0.4-2.9,0.8-3.9,1.9c-2.2,2.4-4.4,4-6.7,5C63.9,46.6,63.8,46.6,63.7,46.6z
							"/>
						<path class="st4" d="M63.7,46.8c-0.3,0-0.7-0.2-0.8-0.5c-0.2-0.4,0-0.9,0.5-1.1c2.1-0.9,4.1-2.4,6.2-4.6
							c1.3-1.4,3.1-1.9,4.7-2.3c1.6-0.4,3.4-0.5,5.5-0.3c0.3,0,0.5,0,0.7,0c0.5,0,0.9-0.1,1.4-0.4l0.1,0c0.7-0.4,0.9-0.6,1-0.7
							c0.1-0.4,0.5-0.7,0.9-0.7c0.2,0,0.4,0.1,0.6,0.3c0.1,0.2,0.2,0.4,0.2,0.6c-0.1,0.8-0.9,1.4-1.8,1.9l-0.1,0
							c-0.7,0.4-1.4,0.6-2.3,0.6c-0.2,0-0.5,0-0.8,0c-1.9-0.2-3.5-0.1-4.9,0.2c-1.7,0.4-2.9,0.8-3.8,1.8c-2.3,2.4-4.4,4-6.8,5
							C63.9,46.8,63.8,46.8,63.7,46.8z M77.7,38.2c-1.2,0-2.3,0.1-3.4,0.4c-1.5,0.3-3.2,0.8-4.5,2.2c-2.1,2.3-4.1,3.8-6.3,4.7
							c-0.3,0.1-0.4,0.4-0.3,0.7c0.1,0.3,0.4,0.4,0.7,0.3c2.3-1,4.4-2.6,6.7-5c1-1,2.2-1.5,4-1.9c1.5-0.3,3.1-0.4,5-0.2
							c0.3,0,0.6,0,0.8,0c0.8,0,1.4-0.2,2.1-0.6l0.1,0c0.8-0.5,1.6-1,1.7-1.7c0-0.1,0-0.3-0.1-0.4s-0.2-0.2-0.4-0.2
							c-0.3,0-0.5,0.2-0.6,0.4l0,0.1c-0.1,0.2-0.5,0.5-1.1,0.8l-0.1,0c-0.5,0.3-1,0.4-1.6,0.4c-0.2,0-0.4,0-0.7,0
							C79,38.2,78.3,38.2,77.7,38.2z"/>
					</g>
					<path class="st3" d="M74.2,38.4c-1.5,0.4-3.3,0.9-4.6,2.3c-1.2,1.3-2.4,2.3-3.6,3.2c1.1,0.3,2.9-1.1,3.7-1.4
						c0.1,0,0.1,0,0.2-0.1c0.2-0.2,0.5-0.5,0.7-0.8c0.9-1,2.2-1.5,3.9-1.9c0.9-0.2,1.8-0.3,2.8-0.3c0.3-0.3,0.6-0.6,0.9-0.9
						c0.1-0.2,0.4-0.3,0.6-0.5C77.1,37.9,75.6,38,74.2,38.4z"/>
				</g>
				<g>
					<g>
						
							<linearGradient id="SVGID_00000026881442789547919100000013831938409220680122_" gradientUnits="userSpaceOnUse" x1="83.1978" y1="66.9883" x2="83.5002" y2="66.1241" gradientTransform="matrix(1 0 0 -1 0 102)">
							<stop  offset="2.550000e-02" style="stop-color:#FDE04C"/>
							<stop  offset="0.1122" style="stop-color:#FDF0C5"/>
							<stop  offset="0.301" style="stop-color:#FDE573"/>
							<stop  offset="0.6429" style="stop-color:#FDECA8"/>
							<stop  offset="1" style="stop-color:#FDE04C"/>
						</linearGradient>
						<path style="fill:url(#SVGID_00000026881442789547919100000013831938409220680122_);" d="M82.6,36.1c-0.2,0-0.3-0.1-0.3-0.3
							c0-0.2,0.1-0.4,0.2-0.4c0.1,0,0.2-0.1,0.5-0.1c0.3-0.1,0.8-0.2,1.1-0.2c0.2,0,0.4,0.1,0.4,0.2c0,0.2-0.1,0.4-0.2,0.4
							C84,35.9,83.5,36,83.2,36C83,36.1,82.8,36.1,82.6,36.1C82.7,36.1,82.7,36.1,82.6,36.1z"/>
						<path class="st4" d="M82.6,36.2c-0.2,0-0.4-0.1-0.4-0.3c0-0.1,0-0.2,0-0.3s0.2-0.2,0.3-0.2c0.1,0,0.2-0.1,0.5-0.1
							c0.3-0.1,0.8-0.2,1.1-0.2c0.2-0.1,0.5,0.1,0.5,0.3c0,0.1,0,0.2,0,0.3s-0.2,0.2-0.3,0.2c-0.3,0.1-0.7,0.2-1.1,0.2l-0.1,0
							c-0.2,0-0.3,0.1-0.3,0.1C82.7,36.2,82.7,36.2,82.6,36.2z M84.2,35.2C84.2,35.2,84.1,35.2,84.2,35.2c-0.3,0.1-0.8,0.2-1.1,0.2
							c-0.2,0-0.4,0.1-0.5,0.1c-0.1,0-0.1,0.1-0.2,0.1c0,0.1,0,0.1,0,0.2c0,0.1,0.2,0.2,0.3,0.2c0.1,0,0.2,0,0.4-0.1l0.1,0
							c0.4-0.1,0.8-0.2,1.1-0.2c0.1,0,0.1-0.1,0.2-0.1c0-0.1,0-0.1,0-0.2C84.4,35.3,84.3,35.2,84.2,35.2z"/>
					</g>
					<g>
						
							<linearGradient id="SVGID_00000072255408639895426580000004673304351073581995_" gradientUnits="userSpaceOnUse" x1="58.5685" y1="56.7684" x2="91.7235" y2="69.3385" gradientTransform="matrix(1 0 0 -1 0 102)">
							<stop  offset="0" style="stop-color:#E8AB00"/>
							<stop  offset="0.2257" style="stop-color:#F1D500"/>
							<stop  offset="0.4103" style="stop-color:#FCF5C3"/>
							<stop  offset="0.4842" style="stop-color:#F1D500"/>
							<stop  offset="0.6323" style="stop-color:#F8E4AE"/>
							<stop  offset="0.7861" style="stop-color:#F1D500"/>
							<stop  offset="0.9786" style="stop-color:#825B1D"/>
						</linearGradient>
						<path style="fill:url(#SVGID_00000072255408639895426580000004673304351073581995_);" d="M63.9,44.9
							C63.9,44.9,63.8,44.9,63.9,44.9c-0.4,0-0.7-0.3-0.7-0.7c0-0.4,0.3-0.7,0.7-0.7c0.2,0,0.7-0.4,1-0.6c0.2-0.2,0.5-0.4,0.8-0.6
							c0.8-0.5,1.7-0.9,2.6-1.3l0.5-0.2c1.1-0.5,2.1-1,3.4-1.3c0.3-0.1,0.6-0.1,0.9-0.1c0.4,0,0.8-0.1,1.1-0.2
							c0.2-0.1,0.4-0.3,0.6-0.6c0.2-0.2,0.3-0.4,0.6-0.6c0.7-0.6,1.7-1.3,2.6-1.7c1.1-0.5,2.2-0.9,3.2-1c0.2,0,0.5,0,0.7,0
							c0.3,0,0.7,0,0.8-0.1c0.3-0.2,0.8,0,0.9,0.4c0.2,0.3,0,0.8-0.4,0.9c-0.4,0.2-0.9,0.2-1.4,0.2c-0.2,0-0.4,0-0.5,0
							c-0.8,0.1-1.7,0.4-2.7,0.8c-0.8,0.4-1.7,1-2.3,1.5c-0.1,0.1-0.3,0.3-0.4,0.5c-0.3,0.3-0.6,0.7-1.1,1c-0.5,0.3-1.1,0.3-1.6,0.4
							c-0.3,0-0.5,0-0.7,0.1c-1.1,0.2-2,0.7-3.1,1.2l-0.5,0.2c-0.8,0.4-1.7,0.8-2.4,1.2c-0.2,0.1-0.4,0.3-0.6,0.4
							C65.2,44.4,64.6,44.9,63.9,44.9z"/>
						<path class="st4" d="M63.9,45L63.9,45c-0.5,0-0.9-0.4-0.9-0.9c0-0.5,0.4-0.9,0.9-0.9c0,0,0,0,0,0c0.2,0,0.6-0.4,0.8-0.5
							l0.1-0.1c0.2-0.2,0.5-0.4,0.8-0.6c0.8-0.5,1.7-0.9,2.6-1.3l0.5-0.2c1.1-0.5,2.2-1,3.4-1.3c0.3-0.1,0.6-0.1,0.9-0.1
							c0.4,0,0.8-0.1,1.1-0.2c0.2-0.1,0.4-0.3,0.6-0.6c0.2-0.2,0.4-0.4,0.6-0.6c0.7-0.7,1.8-1.3,2.6-1.7c1.1-0.5,2.2-0.9,3.2-1
							c0.2,0,0.5,0,0.7,0s0.7,0,0.8-0.1c0.4-0.2,1,0,1.1,0.4c0.1,0.2,0.1,0.4,0,0.7c-0.1,0.2-0.2,0.4-0.5,0.5
							c-0.4,0.2-1,0.2-1.5,0.2c-0.2,0-0.4,0-0.5,0c-0.8,0.1-1.7,0.4-2.7,0.8c-0.8,0.4-1.6,0.9-2.2,1.5c-0.1,0.1-0.3,0.3-0.4,0.4
							c-0.3,0.4-0.6,0.7-1.2,1c-0.5,0.3-1.1,0.3-1.7,0.4c-0.3,0-0.5,0-0.7,0.1c-1.1,0.2-2,0.7-3,1.2l-0.5,0.2
							c-0.8,0.4-1.7,0.8-2.4,1.2c-0.2,0.1-0.4,0.3-0.6,0.4C65.3,44.5,64.7,45,63.9,45z M63.9,43.7c-0.3,0-0.5,0.2-0.5,0.5
							c0,0.3,0.2,0.5,0.5,0.5l0,0.2v-0.2c0.7,0,1.2-0.5,1.7-0.9c0.2-0.2,0.4-0.4,0.6-0.5c0.8-0.5,1.6-0.9,2.4-1.2l0.5-0.2
							c1.1-0.5,2-0.9,3.1-1.2c0.2,0,0.5-0.1,0.7-0.1c0.5,0,1.1-0.1,1.5-0.3c0.5-0.2,0.8-0.6,1-0.9c0.1-0.2,0.3-0.3,0.4-0.5
							c0.6-0.6,1.6-1.2,2.3-1.5c1-0.5,1.9-0.8,2.8-0.9c0.1,0,0.3,0,0.5,0c0.5,0,1,0,1.3-0.2c0.1-0.1,0.2-0.2,0.3-0.3
							c0.1-0.1,0-0.3,0-0.4c-0.1-0.3-0.4-0.4-0.7-0.3c-0.2,0.1-0.5,0.1-0.9,0.1c-0.2,0-0.5,0-0.7,0c-1,0.1-2,0.4-3.1,1
							c-0.9,0.4-1.9,1.1-2.6,1.7c-0.2,0.2-0.4,0.4-0.5,0.6c-0.2,0.3-0.4,0.5-0.7,0.7c-0.3,0.2-0.7,0.2-1.2,0.2
							c-0.3,0-0.6,0.1-0.9,0.1c-1.2,0.3-2.2,0.7-3.3,1.2l-0.5,0.2c-0.8,0.4-1.7,0.8-2.5,1.3c-0.2,0.1-0.5,0.4-0.7,0.6L64.9,43
							C64.5,43.4,64.1,43.7,63.9,43.7L63.9,43.7z"/>
					</g>
					<path class="st3" d="M77.8,36.2c-0.9,0.4-1.9,1.1-2.6,1.7c-0.2,0.2-0.4,0.4-0.6,0.6c-0.2,0.3-0.4,0.5-0.6,0.6
						c-0.3,0.1-0.7,0.2-1.1,0.2c-0.3,0-0.6,0.1-0.9,0.1c-1.1,0.2-2,0.7-3,1.1c0.5,0.1,1.2,0,1.7,0c0.5,0,1,0.1,1.5,0.1
						c0.1,0,0.2,0,0.4,0.1c0.1,0,0.3,0,0.4,0c0.5,0,1.1-0.1,1.6-0.4c0.5-0.3,0.8-0.6,1.1-1c0.1-0.2,0.3-0.3,0.4-0.5
						c0.3-0.2,0.6-0.5,0.9-0.7c0.4-0.5,0.5-1.1,0.8-1.7c0.1-0.2,0.1-0.3,0.2-0.5C77.9,36.2,77.9,36.2,77.8,36.2z"/>
				</g>
				<g>
					<g>
						
							<linearGradient id="SVGID_00000097463778098985062050000000201088417199077045_" gradientUnits="userSpaceOnUse" x1="82.0777" y1="68.5059" x2="82.2941" y2="67.5971" gradientTransform="matrix(1 0 0 -1 0 102)">
							<stop  offset="2.550000e-02" style="stop-color:#FDE04C"/>
							<stop  offset="0.1122" style="stop-color:#FDF0C5"/>
							<stop  offset="0.301" style="stop-color:#FDE573"/>
							<stop  offset="0.6429" style="stop-color:#FDECA8"/>
							<stop  offset="1" style="stop-color:#FDE04C"/>
						</linearGradient>
						<path style="fill:url(#SVGID_00000097463778098985062050000000201088417199077045_);" d="M83,34.3c-0.3,0-0.8,0-1.1,0
							c-0.2,0-0.4,0-0.4,0c-0.2,0-0.3-0.2-0.3-0.3s0.2-0.3,0.3-0.3c0.1,0,0.2,0,0.5,0c0.3,0,0.8,0,1.1,0c0.2,0,0.3,0.2,0.3,0.3
							C83.3,34.2,83.2,34.3,83,34.3z"/>
						<path class="st4" d="M83,34.4c-0.3,0-0.8,0-1.1,0l0,0c-0.2,0-0.3,0-0.4,0c-0.2,0-0.4-0.2-0.4-0.4c0-0.2,0.2-0.4,0.4-0.4
							c0.1,0,0.3,0,0.5,0c0.3,0,0.8,0,1.1,0c0.2,0,0.4,0.2,0.4,0.4S83.2,34.4,83,34.4z M81.4,33.7c-0.1,0-0.3,0.1-0.3,0.3
							s0.1,0.3,0.3,0.3c0.1,0,0.2,0,0.4,0l0,0c0.4,0,0.8,0,1.1,0c0.1,0,0.3-0.1,0.3-0.3c0-0.1-0.1-0.3-0.3-0.3c-0.3,0-0.7,0-1.1,0
							C81.7,33.7,81.5,33.7,81.4,33.7z"/>
					</g>
					<g>
						
							<linearGradient id="SVGID_00000164491989335762350860000015442182070096167554_" gradientUnits="userSpaceOnUse" x1="57.8776" y1="58.5936" x2="91.0318" y2="71.1635" gradientTransform="matrix(1 0 0 -1 0 102)">
							<stop  offset="0" style="stop-color:#E8AB00"/>
							<stop  offset="0.2257" style="stop-color:#F1D500"/>
							<stop  offset="0.4103" style="stop-color:#FCF5C3"/>
							<stop  offset="0.4842" style="stop-color:#F1D500"/>
							<stop  offset="0.6323" style="stop-color:#F8E4AE"/>
							<stop  offset="0.7861" style="stop-color:#F1D500"/>
							<stop  offset="0.9786" style="stop-color:#825B1D"/>
						</linearGradient>
						<path style="fill:url(#SVGID_00000164491989335762350860000015442182070096167554_);" d="M63.1,42.4c-0.2,0-0.4-0.1-0.6-0.3
							c-0.2-0.3-0.2-0.7,0.1-1l0.3-0.2c1.5-1.1,2.7-2.1,4.9-2.2c0.5,0,1,0,1.5,0c1.6,0,3.5,0,4.6-0.6c0.9-0.4,1.2-1.2,1.7-2.1
							c0.2-0.5,0.5-1,0.8-1.4c0.8-1.1,1.8-1.3,2.5-1.4c0.3,0,0.7,0,1.1,0c0.2,0,0.7,0,0.8,0c0.3-0.2,0.7,0,0.9,0.3
							c0.2,0.3,0,0.8-0.3,0.9c-0.4,0.2-0.9,0.2-1.5,0.1c-0.3,0-0.6,0-0.8,0c-0.8,0.1-1.2,0.4-1.6,0.9c-0.3,0.4-0.5,0.8-0.7,1.3
							c-0.5,1-1,2-2.3,2.7c-1.4,0.7-3.4,0.7-5.2,0.7c-0.5,0-1,0-1.5,0c-1.7,0.1-2.7,0.8-4.1,1.9l-0.3,0.2
							C63.4,42.3,63.2,42.4,63.1,42.4z"/>
						<path class="st4" d="M63.1,42.6c-0.3,0-0.5-0.1-0.7-0.3c-0.3-0.4-0.2-0.9,0.2-1.2l0.3-0.2c1.5-1.1,2.8-2.1,5-2.2
							c0.5,0,1,0,1.5,0c1.5,0,3.4,0,4.5-0.6c0.8-0.4,1.2-1.1,1.6-2c0.2-0.5,0.5-1,0.9-1.5c0.8-1.1,1.8-1.4,2.6-1.5
							c0.3,0,0.7,0,1.1,0c0.2,0,0.6,0,0.7,0c0.4-0.2,0.9,0,1.1,0.4c0.2,0.4,0,0.9-0.4,1.2c-0.2,0.1-0.5,0.2-0.9,0.2
							c-0.2,0-0.5,0-0.7,0c-0.3,0-0.6,0-0.8,0c-0.8,0.1-1.2,0.3-1.5,0.8c-0.3,0.4-0.5,0.8-0.7,1.2c-0.5,1-1.1,2.1-2.4,2.7
							c-1.5,0.7-3.5,0.8-5.3,0.8c-0.5,0-1,0-1.5,0c-1.7,0.1-2.7,0.8-4,1.9l-0.3,0.2C63.4,42.5,63.3,42.6,63.1,42.6z M79.4,33.3
							c-0.1,0-0.3,0-0.4,0c-0.7,0.1-1.7,0.4-2.4,1.4c-0.3,0.5-0.6,1-0.8,1.4c-0.5,0.9-0.9,1.7-1.8,2.2c-1.2,0.6-3.1,0.6-4.7,0.6
							c-0.5,0-1.1,0-1.5,0c-2.1,0.1-3.4,1-4.8,2.1l-0.3,0.2c-0.2,0.2-0.3,0.5-0.1,0.7c0.2,0.2,0.5,0.3,0.7,0.1l0.3-0.2
							c1.4-1.1,2.4-1.8,4.2-1.9c0.4,0,0.9,0,1.5,0c1.8,0,3.8,0,5.2-0.7c1.2-0.6,1.7-1.7,2.2-2.6c0.2-0.5,0.4-0.9,0.7-1.3
							c0.4-0.6,0.9-0.8,1.7-1c0.2,0,0.5,0,0.8,0c0.2,0,0.5,0,0.7,0c0.3,0,0.5,0,0.7-0.1c0.3-0.1,0.4-0.4,0.2-0.7
							c-0.1-0.2-0.4-0.3-0.7-0.2l0,0c-0.1,0-0.6,0-0.8,0C79.9,33.3,79.7,33.3,79.4,33.3z"/>
					</g>
				</g>
				<g>
					
						<linearGradient id="SVGID_00000146458042671346283040000003830033078178712247_" gradientUnits="userSpaceOnUse" x1="60.8411" y1="60.2234" x2="84.9298" y2="68.2241" gradientTransform="matrix(1 0 0 -1 0 102)">
						<stop  offset="0" style="stop-color:#E8AB00"/>
						<stop  offset="0.2257" style="stop-color:#F1D500"/>
						<stop  offset="0.4103" style="stop-color:#FCF5C3"/>
						<stop  offset="0.4842" style="stop-color:#F1D500"/>
						<stop  offset="0.6323" style="stop-color:#F8E4AE"/>
						<stop  offset="0.7861" style="stop-color:#F1D500"/>
						<stop  offset="0.9786" style="stop-color:#825B1D"/>
					</linearGradient>
					<path style="fill:url(#SVGID_00000146458042671346283040000003830033078178712247_);" d="M62.5,41.2c-0.3,0-0.5-0.2-0.6-0.4
						c-0.1-0.4,0-0.8,0.4-0.9c0.4-0.1,0.7-0.4,1-0.8c0.5-0.5,1.1-1,2-1.3c1.2-0.3,2.4-0.1,3.5,0c0.2,0,0.5,0.1,0.7,0.1
						c0.4,0,0.8,0,1.2,0c0.5,0,1.1,0,1.6,0.1c0.7,0.1,1.7,0.2,2.3,0.2c0.4,0,0.7,0.3,0.7,0.7s-0.3,0.7-0.7,0.7
						c-0.7,0-1.7-0.1-2.5-0.2c-0.4-0.1-0.9-0.1-1.4-0.1c-0.4,0-0.9,0-1.3,0c-0.2,0-0.5,0-0.7-0.1c-1.1-0.1-2.1-0.2-3.1,0
						c-0.5,0.1-1,0.5-1.4,0.9c-0.4,0.4-0.9,0.8-1.5,1C62.6,41.2,62.5,41.2,62.5,41.2z"/>
					<path class="st4" d="M62.5,41.4c-0.4,0-0.7-0.2-0.8-0.6c-0.1-0.2-0.1-0.5,0-0.7c0.1-0.2,0.3-0.4,0.5-0.5c0.3-0.1,0.6-0.4,1-0.7
						c0.5-0.5,1.2-1.1,2.1-1.3c0.5-0.1,1-0.2,1.6-0.2c0.7,0,1.4,0.1,2,0.1c0.3,0,0.5,0.1,0.7,0.1c0.2,0,0.4,0,0.7,0
						c0.1,0,0.3,0,0.4,0c0.2,0,0.3,0,0.4,0c0.3,0,0.8,0,1.2,0.1c0.7,0.1,1.7,0.2,2.3,0.2c0.5,0,0.9,0.4,0.9,0.9s-0.4,0.9-0.9,0.9
						c-0.7,0-1.8-0.1-2.6-0.2c-0.3,0-0.7-0.1-0.9-0.1c-0.1,0-0.3,0-0.4,0c-0.2,0-0.3,0-0.5,0c-0.4,0-0.6,0-0.9,0
						c-0.2,0-0.5,0-0.7-0.1l-0.1,0c-0.6-0.1-1.2-0.1-1.8-0.1c-0.5,0-0.8,0-1.2,0.1c-0.5,0.1-0.9,0.5-1.3,0.9
						c-0.4,0.4-0.9,0.8-1.5,1.1C62.7,41.4,62.6,41.4,62.5,41.4z M66.8,37.9c-0.6,0-1.1,0.1-1.5,0.2c-0.9,0.2-1.4,0.7-1.9,1.2
						c-0.4,0.3-0.7,0.6-1.1,0.8c-0.1,0-0.2,0.1-0.3,0.3c-0.1,0.1-0.1,0.3,0,0.4c0.1,0.3,0.4,0.4,0.7,0.3c0.6-0.2,1-0.6,1.4-1
						c0.5-0.4,0.9-0.8,1.5-1c0.4-0.1,0.8-0.1,1.3-0.1c0.6,0,1.3,0.1,1.9,0.1l0.1,0c0.2,0,0.5,0,0.7,0.1c0.3,0,0.5,0,0.9,0
						c0.2,0,0.3,0,0.4,0c0.1,0,0.3,0,0.4,0c0.3,0,0.6,0,1,0.1c0.8,0.1,1.8,0.2,2.5,0.2c0.3,0,0.5-0.2,0.5-0.5c0-0.3-0.2-0.5-0.5-0.5
						c-0.6,0-1.6-0.1-2.4-0.2c-0.4-0.1-0.8-0.1-1.1-0.1c-0.1,0-0.3,0-0.4,0c-0.5,0-0.9,0-1.2,0c-0.2,0-0.5,0-0.7-0.1
						C68.2,38,67.5,37.9,66.8,37.9z"/>
				</g>
				<g>
					
						<linearGradient id="SVGID_00000060717142301443190710000014377639472398606225_" gradientUnits="userSpaceOnUse" x1="60.6702" y1="60.7383" x2="84.7584" y2="68.7389" gradientTransform="matrix(1 0 0 -1 0 102)">
						<stop  offset="0" style="stop-color:#E8AB00"/>
						<stop  offset="0.2257" style="stop-color:#F1D500"/>
						<stop  offset="0.4103" style="stop-color:#FCF5C3"/>
						<stop  offset="0.4842" style="stop-color:#F1D500"/>
						<stop  offset="0.6323" style="stop-color:#F8E4AE"/>
						<stop  offset="0.7861" style="stop-color:#F1D500"/>
						<stop  offset="0.9786" style="stop-color:#825B1D"/>
					</linearGradient>
					<path style="fill:url(#SVGID_00000060717142301443190710000014377639472398606225_);" d="M74.6,40.5
						C74.6,40.5,74.6,40.5,74.6,40.5c-1.6,0-2.2-1-2.7-1.7c-0.3-0.4-0.6-0.9-1-1.2c-0.4-0.3-1.1-0.2-1.8-0.2c-0.5,0-1,0-1.5-0.1
						c-2.3-0.5-2.7,0.1-4,1.7c-0.2,0.3-0.7,0.3-1,0.1c-0.3-0.2-0.3-0.7-0.1-1c1.3-1.7,2.2-2.8,5.3-2.2c0.3,0.1,0.7,0.1,1.2,0.1
						c0.9,0,1.9,0,2.6,0.5c0.7,0.5,1.1,1.1,1.4,1.6c0.4,0.7,0.7,1.1,1.5,1.1c0.4,0,0.7,0.3,0.7,0.7C75.3,40.2,74.9,40.5,74.6,40.5z"
						/>
					<path class="st4" d="M74.6,40.7L74.6,40.7c-1.7-0.1-2.3-1.1-2.8-1.8c-0.3-0.4-0.5-0.8-1-1.1c-0.3-0.2-1.1-0.2-1.4-0.2l-0.6,0
						c-0.4,0-0.8,0-1.2-0.1c-0.5-0.1-0.9-0.2-1.3-0.2c-1.2,0-1.6,0.5-2.5,1.7c-0.3,0.4-0.9,0.4-1.2,0.1c-0.2-0.1-0.3-0.3-0.3-0.6
						c0-0.2,0-0.5,0.2-0.6c1.1-1.3,1.9-2.4,3.9-2.4c0.5,0,1,0.1,1.6,0.2c0.2,0,0.6,0.1,0.9,0.1l0.6,0c0.8,0,1.7,0,2.4,0.5
						c0.7,0.5,1.1,1.1,1.4,1.6c0.4,0.7,0.6,1,1.4,1c0.5,0,0.9,0.4,0.8,0.9C75.4,40.3,75,40.7,74.6,40.7z M69.4,37.2
						c0.7,0,1.3,0,1.6,0.3c0.5,0.3,0.8,0.8,1.1,1.2c0.5,0.7,1,1.6,2.5,1.6l0,0.2v-0.2c0.3,0,0.5-0.2,0.5-0.5c0-0.3-0.2-0.5-0.5-0.5
						c-0.9,0-1.2-0.5-1.7-1.2c-0.3-0.5-0.7-1.1-1.3-1.5c-0.6-0.4-1.5-0.5-2.2-0.5l-0.6,0c-0.3,0-0.7,0-0.9-0.1
						c-0.6-0.1-1.1-0.2-1.5-0.2c-1.8,0-2.6,0.9-3.6,2.3c-0.1,0.1-0.1,0.2-0.1,0.4s0.1,0.3,0.2,0.3c0.2,0.2,0.6,0.1,0.7-0.1
						c1-1.2,1.5-1.9,2.8-1.9c0.4,0,0.8,0,1.4,0.2c0.4,0.1,0.8,0.1,1.1,0.1L69.4,37.2z"/>
				</g>
				<g>
					
						<linearGradient id="SVGID_00000075851984400736027020000015921072766266196401_" gradientUnits="userSpaceOnUse" x1="73.4662" y1="60.4442" x2="78.588" y2="60.4442" gradientTransform="matrix(1 0 0 -1 0 102)">
						<stop  offset="0" style="stop-color:#E8AB00"/>
						<stop  offset="0.2257" style="stop-color:#F1D500"/>
						<stop  offset="0.4103" style="stop-color:#FCF5C3"/>
						<stop  offset="0.4842" style="stop-color:#F1D500"/>
						<stop  offset="0.6323" style="stop-color:#F8E4AE"/>
						<stop  offset="0.7861" style="stop-color:#F1D500"/>
						<stop  offset="0.9786" style="stop-color:#825B1D"/>
					</linearGradient>
					<path style="fill:url(#SVGID_00000075851984400736027020000015921072766266196401_);" d="M73.5,38.1c0,0,0-0.4,0.3-0.6
						c0.2-0.1,0.8-0.3,1-0.1c0.3,0.2,1.3,1.6,1.9,3.5c0.6,2.1,1.7,4.2,0.1,4.9c-0.8,0.3-1.4-0.2-1.4-0.2s0.3-0.3,0.5-0.4
						c0.2-0.1,0.3-0.1,0.5-0.3c0.2-0.2,0.1-1.2-0.8-3.4C75,40.1,74.4,38.2,73.5,38.1z"/>
					<path class="st4" d="M76.2,46c-0.6,0-1-0.3-1-0.4l-0.1-0.1l0.1-0.1c0,0,0.3-0.3,0.5-0.4c0.1,0,0.1-0.1,0.2-0.1
						c0.1,0,0.2-0.1,0.3-0.2c0,0,0.2-0.4-0.8-3.2l-0.2-0.4c-0.4-1.2-1-2.8-1.8-2.8l-0.1,0l0-0.1c0,0,0-0.5,0.4-0.8
						c0.3-0.2,0.9-0.3,1.2-0.1c0.4,0.2,1.4,1.8,2,3.6c0.1,0.3,0.2,0.6,0.3,1c0.6,1.8,1.2,3.5-0.3,4.1C76.7,46,76.5,46,76.2,46z
						 M75.7,45.5c0.1,0.1,0.3,0.2,0.6,0.2c0.2,0,0.3,0,0.5-0.1c1.2-0.5,0.7-2,0.1-3.7c-0.1-0.3-0.2-0.6-0.3-1
						c-0.6-1.8-1.5-3.3-1.8-3.4c0,0-0.1,0-0.2,0c-0.2,0-0.5,0.1-0.6,0.2c-0.2,0.1-0.2,0.2-0.2,0.3c0.9,0.2,1.4,1.7,1.9,3l0.2,0.4
						c0.8,2.1,1,3.3,0.7,3.6c-0.1,0.2-0.2,0.2-0.3,0.3c0,0-0.1,0-0.1,0.1C75.9,45.3,75.8,45.4,75.7,45.5z"/>
				</g>
			</g>
			<g>
				<g>
					<g>
						
							<linearGradient id="SVGID_00000063614793068195170010000013293152684362633149_" gradientUnits="userSpaceOnUse" x1="33.6753" y1="62.5449" x2="57.5076" y2="41.546" gradientTransform="matrix(1 0 0 -1 0 102)">
							<stop  offset="0" style="stop-color:#E8AB00"/>
							<stop  offset="0.2257" style="stop-color:#F1D500"/>
							<stop  offset="0.4103" style="stop-color:#FCF5C3"/>
							<stop  offset="0.4842" style="stop-color:#F1D500"/>
							<stop  offset="0.6323" style="stop-color:#F8E4AE"/>
							<stop  offset="0.7861" style="stop-color:#F1D500"/>
							<stop  offset="0.9786" style="stop-color:#825B1D"/>
						</linearGradient>
						<path style="fill:url(#SVGID_00000063614793068195170010000013293152684362633149_);" d="M27.5,49.9c-0.2,1.2-3.7,8.5-3.7,8.5
							l0.4,1.4c0,0,1.1,0.2,4.8-1.1c1.9-0.7,4.5-1.6,7.7-3.1c9.4-4.4,12.4-3.2,20.1-8.3c4.1-2.8,6.8-10.1,6.8-10.1L27.5,49.9z"/>
						<path class="st4" d="M24.4,60.1L24.4,60.1c-0.2,0-0.2,0-0.2,0l-0.2,0l-0.1-0.2l-0.5-1.5l0.1-0.1c1-2,3.5-7.4,3.7-8.4l0-0.2
							l37-13l-0.2,0.7c-0.1,0.3-2.7,7.4-6.9,10.2c-4.4,3-7.4,3.8-10.8,4.8c-2.5,0.8-5.4,1.6-9.4,3.5c-2.5,1.2-5,2.2-7.7,3.1
							C26.2,60,24.9,60.1,24.4,60.1z M24.2,58.4l0.3,1c0.5,0,1.7-0.2,4.4-1.1c2.7-0.9,5.2-1.9,7.7-3.1c4-1.9,6.9-2.7,9.5-3.5
							c3.3-1,6.2-1.9,10.6-4.8c3.3-2.2,5.6-7.3,6.4-9.2L27.8,50.2C27.4,51.8,24.7,57.3,24.2,58.4z"/>
					</g>
					<g>
						
							<linearGradient id="SVGID_00000026138822784207087470000003360949383333528708_" gradientUnits="userSpaceOnUse" x1="23.826" y1="53.5119" x2="63.582" y2="53.5119" gradientTransform="matrix(1 0 0 -1 0 102)">
							<stop  offset="0" style="stop-color:#E8AB00"/>
							<stop  offset="0.2257" style="stop-color:#F1D500"/>
							<stop  offset="0.4103" style="stop-color:#FCF5C3"/>
							<stop  offset="0.4842" style="stop-color:#F1D500"/>
							<stop  offset="0.6323" style="stop-color:#F8E4AE"/>
							<stop  offset="0.7861" style="stop-color:#F1D500"/>
							<stop  offset="0.9786" style="stop-color:#825B1D"/>
						</linearGradient>
						<path style="fill:url(#SVGID_00000026138822784207087470000003360949383333528708_);" d="M29,58.7c1.9-0.7,4.5-1.6,7.7-3.1
							c9.4-4.4,12.4-3.2,20.1-8.3c4.1-2.8,6.8-10.1,6.8-10.1l-0.1,0c-0.6,1.2-4,7.3-7.9,9.5c-1.3,0.7-3.3,1.9-5.4,2.7
							c-4.6,1.9-10.1,3.3-11.6,3.9c-1.3,0.5-5.9,2.7-9.6,4c-2.5,0.9-4.2,0.9-5.3,1l0.4,1.4C24.3,59.8,25.4,59.9,29,58.7z"/>
						<path class="st4" d="M24.4,60.1L24.4,60.1c-0.2,0-0.2,0-0.2,0l-0.2,0l-0.1-0.2l-0.6-1.8l0.4,0c0.1,0,0.3,0,0.4,0
							c1-0.1,2.6-0.2,4.8-1c2.6-0.9,5.7-2.3,7.7-3.2c0.8-0.4,1.5-0.7,1.8-0.8c0.6-0.2,1.6-0.6,3-1c2.4-0.8,5.6-1.8,8.6-3
							c2-0.8,4-1.9,5.2-2.6l0.1,0c3.8-2.1,7.1-8.2,7.7-9.4l0.1-0.1l0.9-0.3l-0.2,0.7c-0.1,0.3-2.7,7.4-6.9,10.2
							c-4.4,3-7.4,3.8-10.8,4.8c-2.5,0.8-5.4,1.6-9.4,3.5c-2.5,1.2-5,2.2-7.7,3.1C26.2,60,24.9,60.1,24.4,60.1z M24.3,58.7l0.2,0.7
							c0.5,0,1.7-0.2,4.4-1.1c2.7-0.9,5.2-1.9,7.7-3.1c4-1.9,6.9-2.7,9.5-3.5c3.3-1,6.2-1.9,10.6-4.8c1.6-1.1,3-2.9,4.1-4.7
							c-1.4,1.8-3.1,3.7-4.9,4.8l-0.1,0c-1.3,0.7-3.3,1.8-5.3,2.7c-3,1.2-6.2,2.2-8.6,3c-1.3,0.4-2.4,0.8-2.9,1
							c-0.4,0.1-1,0.4-1.8,0.8c-2.1,0.9-5.2,2.3-7.8,3.2C27,58.5,25.4,58.6,24.3,58.7C24.3,58.7,24.3,58.7,24.3,58.7z"/>
					</g>
				</g>
				<g>
					
						<linearGradient id="SVGID_00000088827114548372880370000014733308607494172038_" gradientUnits="userSpaceOnUse" x1="15.374" y1="80.2104" x2="75.7075" y2="42.044" gradientTransform="matrix(1 0 0 -1 0 102)">
						<stop  offset="0" style="stop-color:#E8AB00"/>
						<stop  offset="0.2257" style="stop-color:#F1D500"/>
						<stop  offset="0.4103" style="stop-color:#FCF5C3"/>
						<stop  offset="0.4842" style="stop-color:#F1D500"/>
						<stop  offset="0.6323" style="stop-color:#F8E4AE"/>
						<stop  offset="0.7861" style="stop-color:#F1D500"/>
						<stop  offset="0.9786" style="stop-color:#825B1D"/>
					</linearGradient>
					<path style="fill:url(#SVGID_00000088827114548372880370000014733308607494172038_);" d="M63.6,37c0.1,2.1-16.5,8.1-23,10.6
						c-5.6,2.1-13.2,4.5-13.1,1.9c0.1-1.3-1.7-4.7-1.9-8.3C25.3,35.5,33,32,40.3,28.9c6.4-2.8,14.6-2.3,18.2-0.5
						C60.6,29.4,63.4,33.6,63.6,37z"/>
					<path class="st4" d="M29.4,51.1c-0.9,0-1.5-0.2-1.9-0.6c-0.2-0.2-0.3-0.6-0.3-0.9c0-0.5-0.3-1.4-0.6-2.5
						c-0.5-1.6-1.2-3.7-1.3-5.8c-0.3-6.1,8.1-9.8,14.9-12.7c3-1.3,6.6-2,10.3-2c3.2,0,6.3,0.6,8.1,1.5c2.2,1.1,5.1,5.4,5.3,9
						c0.1,1.7-7.2,4.8-20.6,10c-1,0.4-1.9,0.7-2.6,1C38.3,48.9,32.4,51.1,29.4,51.1z M50.5,27.3c-3.6,0-7.2,0.7-10.1,1.9
						c-6.6,2.8-14.8,6.4-14.5,12c0.1,2.1,0.7,4.1,1.2,5.7c0.4,1.2,0.7,2.1,0.6,2.7c0,0.2,0,0.3,0.1,0.4c0.1,0.2,0.5,0.3,1.4,0.3
						c3,0,8.8-2.1,11.1-3c0.8-0.3,1.6-0.6,2.6-1c3.7-1.4,8.9-3.4,13-5.2c6.8-3,7.1-3.9,7.1-4.1c-0.2-3.3-2.8-7.3-4.9-8.4
						C56.6,27.8,53.6,27.3,50.5,27.3z"/>
				</g>
				
					<linearGradient id="SVGID_00000087387798579457727790000002964911080005875354_" gradientUnits="userSpaceOnUse" x1="28.2048" y1="70.1292" x2="50.9528" y2="59.3174" gradientTransform="matrix(1 0 0 -1 0 102)">
					<stop  offset="0" style="stop-color:#FFFFFF"/>
					<stop  offset="1" style="stop-color:#FFFFFF;stop-opacity:0"/>
				</linearGradient>
				<path style="fill:url(#SVGID_00000087387798579457727790000002964911080005875354_);" d="M28.7,48.3c0,0-2.5-7.2-1.1-9.3
					c1.4-2.2,4.2-4.8,7.1-6c2.9-1.2,2.1-0.9,2.1-0.9s-0.5,1.5,0.7,1.6c1.2,0.1,5.6-0.5,7.1-2.8c1.6-2.2-0.1-1.9-0.1-1.9
					s9.3-2,13.2,0.4c3.9,2.4,3.3,4.8,2.8,6.6C59.9,37.7,30.2,52.9,28.7,48.3z"/>
			</g>
			<g>
				<circle class="st3" cx="61.1" cy="67" r="0.6"/>
				<circle class="st3" cx="63.8" cy="65.5" r="0.6"/>
				<circle class="st3" cx="66.1" cy="63.7" r="0.5"/>
				<circle class="st3" cx="67.9" cy="62.2" r="0.3"/>
				<circle class="st3" cx="69.5" cy="60.5" r="0.3"/>
			</g>
			<g>
				<g>
					
						<linearGradient id="SVGID_00000128460887702037803320000016730628484275371142_" gradientUnits="userSpaceOnUse" x1="60.131" y1="35.2085" x2="62.0637" y2="35.6123" gradientTransform="matrix(1 0 0 -1 0 102)">
						<stop  offset="0" style="stop-color:#E8AB00"/>
						<stop  offset="0.2257" style="stop-color:#F1D500"/>
						<stop  offset="0.4103" style="stop-color:#FCF5C3"/>
						<stop  offset="0.4842" style="stop-color:#F1D500"/>
						<stop  offset="0.6323" style="stop-color:#F8E4AE"/>
						<stop  offset="0.7861" style="stop-color:#F1D500"/>
						<stop  offset="0.9786" style="stop-color:#825B1D"/>
					</linearGradient>
					<circle style="fill:url(#SVGID_00000128460887702037803320000016730628484275371142_);" cx="61" cy="66.6" r="0.6"/>
					<path class="st4" d="M61,67.4c-0.4,0-0.8-0.3-0.8-0.8s0.3-0.8,0.8-0.8s0.8,0.3,0.8,0.8C61.8,67,61.4,67.4,61,67.4z M61,66.2
						c-0.2,0-0.4,0.2-0.4,0.4S60.8,67,61,67c0.2,0,0.4-0.2,0.4-0.4S61.2,66.2,61,66.2z"/>
				</g>
				<g>
					
						<linearGradient id="SVGID_00000002365256247335021660000001099243055549651373_" gradientUnits="userSpaceOnUse" x1="63.101" y1="36.888" x2="64.311" y2="36.888" gradientTransform="matrix(1 0 0 -1 0 102)">
						<stop  offset="0" style="stop-color:#E8AB00"/>
						<stop  offset="0.2257" style="stop-color:#F1D500"/>
						<stop  offset="0.4103" style="stop-color:#FCF5C3"/>
						<stop  offset="0.4842" style="stop-color:#F1D500"/>
						<stop  offset="0.6323" style="stop-color:#F8E4AE"/>
						<stop  offset="0.7861" style="stop-color:#F1D500"/>
						<stop  offset="0.9786" style="stop-color:#825B1D"/>
					</linearGradient>
					<circle style="fill:url(#SVGID_00000002365256247335021660000001099243055549651373_);" cx="63.7" cy="65.1" r="0.6"/>
					<path class="st4" d="M63.7,65.9c-0.4,0-0.8-0.3-0.8-0.8s0.3-0.8,0.8-0.8s0.8,0.3,0.8,0.8C64.5,65.5,64.1,65.9,63.7,65.9z
						 M63.7,64.7c-0.2,0-0.4,0.2-0.4,0.4c0,0.2,0.2,0.4,0.4,0.4s0.4-0.2,0.4-0.4C64.1,64.9,63.9,64.7,63.7,64.7z"/>
				</g>
				<g>
					
						<linearGradient id="SVGID_00000044877453858669908180000002027328790333460398_" gradientUnits="userSpaceOnUse" x1="65.551" y1="38.762" x2="66.473" y2="38.762" gradientTransform="matrix(1 0 0 -1 0 102)">
						<stop  offset="0" style="stop-color:#E8AB00"/>
						<stop  offset="0.2257" style="stop-color:#F1D500"/>
						<stop  offset="0.4103" style="stop-color:#FCF5C3"/>
						<stop  offset="0.4842" style="stop-color:#F1D500"/>
						<stop  offset="0.6323" style="stop-color:#F8E4AE"/>
						<stop  offset="0.7861" style="stop-color:#F1D500"/>
						<stop  offset="0.9786" style="stop-color:#825B1D"/>
					</linearGradient>
					<circle style="fill:url(#SVGID_00000044877453858669908180000002027328790333460398_);" cx="66" cy="63.2" r="0.5"/>
					<path class="st4" d="M66,63.9c-0.3,0-0.6-0.3-0.6-0.6s0.3-0.6,0.6-0.6s0.6,0.3,0.6,0.6S66.4,63.9,66,63.9z M66,62.9
						c-0.2,0-0.3,0.1-0.3,0.3c0,0.2,0.1,0.3,0.3,0.3c0.2,0,0.3-0.1,0.3-0.3C66.3,63.1,66.2,62.9,66,62.9z"/>
				</g>
				<g>
					
						<linearGradient id="SVGID_00000137812892300607189810000013635573754692734091_" gradientUnits="userSpaceOnUse" x1="67.453" y1="40.261" x2="68.145" y2="40.261" gradientTransform="matrix(1 0 0 -1 0 102)">
						<stop  offset="0" style="stop-color:#E8AB00"/>
						<stop  offset="0.2257" style="stop-color:#F1D500"/>
						<stop  offset="0.4103" style="stop-color:#FCF5C3"/>
						<stop  offset="0.4842" style="stop-color:#F1D500"/>
						<stop  offset="0.6323" style="stop-color:#F8E4AE"/>
						<stop  offset="0.7861" style="stop-color:#F1D500"/>
						<stop  offset="0.9786" style="stop-color:#825B1D"/>
					</linearGradient>
					<circle style="fill:url(#SVGID_00000137812892300607189810000013635573754692734091_);" cx="67.8" cy="61.7" r="0.3"/>
					<path class="st4" d="M67.8,62.3c-0.3,0-0.5-0.2-0.5-0.5s0.2-0.5,0.5-0.5c0.3,0,0.5,0.2,0.5,0.5S68.1,62.3,67.8,62.3z
						 M67.8,61.6c-0.1,0-0.2,0.1-0.2,0.2s0.1,0.2,0.2,0.2s0.2-0.1,0.2-0.2S67.9,61.6,67.8,61.6z"/>
				</g>
				<g>
					
						<linearGradient id="SVGID_00000010999553977535851020000009734934326521803145_" gradientUnits="userSpaceOnUse" x1="69.069" y1="41.934" x2="69.761" y2="41.934" gradientTransform="matrix(1 0 0 -1 0 102)">
						<stop  offset="0" style="stop-color:#E8AB00"/>
						<stop  offset="0.2257" style="stop-color:#F1D500"/>
						<stop  offset="0.4103" style="stop-color:#FCF5C3"/>
						<stop  offset="0.4842" style="stop-color:#F1D500"/>
						<stop  offset="0.6323" style="stop-color:#F8E4AE"/>
						<stop  offset="0.7861" style="stop-color:#F1D500"/>
						<stop  offset="0.9786" style="stop-color:#825B1D"/>
					</linearGradient>
					<circle style="fill:url(#SVGID_00000010999553977535851020000009734934326521803145_);" cx="69.4" cy="60.1" r="0.3"/>
					<path class="st4" d="M69.4,60.6c-0.3,0-0.5-0.2-0.5-0.5c0-0.3,0.2-0.5,0.5-0.5c0.3,0,0.5,0.2,0.5,0.5
						C69.9,60.4,69.7,60.6,69.4,60.6z M69.4,59.9c-0.1,0-0.2,0.1-0.2,0.2s0.1,0.2,0.2,0.2c0.1,0,0.2-0.1,0.2-0.2
						S69.5,59.9,69.4,59.9z"/>
				</g>
				<circle class="st1" cx="61" cy="66.5" r="0.2"/>
				<circle class="st1" cx="63.6" cy="65" r="0.2"/>
				<circle class="st1" cx="66" cy="63.2" r="0.2"/>
				<circle class="st1" cx="67.8" cy="61.7" r="0.1"/>
				<circle class="st1" cx="69.3" cy="60.1" r="0.1"/>
			</g>
			<g>
				<g>
					<g>
						
							<linearGradient id="SVGID_00000135668832540708651930000008929262624294815361_" gradientUnits="userSpaceOnUse" x1="25.5269" y1="71.113" x2="68.0338" y2="74.7598" gradientTransform="matrix(1 0 0 -1 0 102)">
							<stop  offset="0" style="stop-color:#E8AB00"/>
							<stop  offset="0.2257" style="stop-color:#F1D500"/>
							<stop  offset="0.4103" style="stop-color:#FCF5C3"/>
							<stop  offset="0.4842" style="stop-color:#F1D500"/>
							<stop  offset="0.6323" style="stop-color:#F8E4AE"/>
							<stop  offset="0.7861" style="stop-color:#F1D500"/>
							<stop  offset="0.9786" style="stop-color:#825B1D"/>
						</linearGradient>
						<path style="fill:url(#SVGID_00000135668832540708651930000008929262624294815361_);" d="M38.1,32.6c0,0-0.6-2.4-1.1-3.2
							c0.7,0,2.7,0.8,2.7,0.8l0.9-3.5l1.6,2l0.4-1.9l1.1,3"/>
						<path class="st4" d="M37.8,32.7c-0.2-0.7-0.7-2.5-1.1-3l-0.4-0.6l0.7,0c0.6,0,1.8,0.5,2.5,0.7l0.9-3.8l1.6,2l0.5-2.4l1.5,4.2
							l-0.7,0.2l-0.7-1.8l-0.3,1.4l-1.6-2.1L40,30.7l-0.4-0.1c-0.4-0.2-1.3-0.5-2-0.7c0.4,1,0.8,2.4,0.8,2.6L37.8,32.7z"/>
					</g>
					
						<linearGradient id="SVGID_00000124853249919554429450000016362282080661325213_" gradientUnits="userSpaceOnUse" x1="37.2073" y1="75.7353" x2="41.1855" y2="77.119" gradientTransform="matrix(1 0 0 -1 0 102)">
						<stop  offset="0" style="stop-color:#E8AB00"/>
						<stop  offset="0.2257" style="stop-color:#F1D500"/>
						<stop  offset="0.4103" style="stop-color:#FCF5C3"/>
						<stop  offset="0.4842" style="stop-color:#F1D500"/>
						<stop  offset="0.6323" style="stop-color:#F8E4AE"/>
						<stop  offset="0.7861" style="stop-color:#F1D500"/>
						<stop  offset="0.9786" style="stop-color:#825B1D"/>
					</linearGradient>
					<polygon style="fill:url(#SVGID_00000124853249919554429450000016362282080661325213_);" points="36.3,20.4 39.5,31.7 42,30.8 
						37.5,19.9 					"/>
					<path class="st3" d="M37.5,19.9l-1.2,0.4l0.4,1.3c0.5-0.1,0.9-0.2,1.3-0.5L37.5,19.9z"/>
					<path class="st4" d="M39.3,32.2l-3.4-12l1.8-0.7L42.5,31L39.3,32.2z M36.8,20.6l3,10.7l1.8-0.6l-4.3-10.2L36.8,20.6z"/>
					<g>
						
							<radialGradient id="SVGID_00000008854839179414213030000016968822888883353503_" cx="36.092" cy="83.781" r="2.162" gradientTransform="matrix(1 0 0 -1 0 102)" gradientUnits="userSpaceOnUse">
							<stop  offset="0.245" style="stop-color:#F1D500"/>
							<stop  offset="1" style="stop-color:#E8AB00"/>
						</radialGradient>
						<circle style="fill:url(#SVGID_00000008854839179414213030000016968822888883353503_);" cx="36.1" cy="18.2" r="2.2"/>
						<path class="st4" d="M36.1,20.7c-1.3,0-2.3-1-2.5-2.2c-0.2-1.4,0.8-2.6,2.2-2.8c1.4-0.2,2.6,0.8,2.8,2.2
							c0.2,1.4-0.8,2.6-2.2,2.8C36.3,20.7,36.2,20.7,36.1,20.7z M36.1,16.4c-0.1,0-0.1,0-0.2,0c-1,0.1-1.7,1-1.6,2
							c0.1,1,1,1.7,2,1.6c1-0.1,1.7-1,1.6-2C37.8,17.1,37,16.4,36.1,16.4z"/>
					</g>
					
						<linearGradient id="SVGID_00000022527343325680087420000016299785950012185238_" gradientUnits="userSpaceOnUse" x1="36.039" y1="84.7178" x2="36.039" y2="83.2138" gradientTransform="matrix(1 0 0 -1 0 102)">
						<stop  offset="0" style="stop-color:#FFFFFF"/>
						<stop  offset="1" style="stop-color:#FFFFFF;stop-opacity:0"/>
					</linearGradient>
					<path style="fill:url(#SVGID_00000022527343325680087420000016299785950012185238_);" d="M37.4,18.1c0,0.7-0.6,0.6-1.3,0.6
						c-0.7,0-1.3,0.1-1.3-0.6c0-0.7,0.6-1.3,1.3-1.3C36.8,16.8,37.4,17.3,37.4,18.1z"/>
				</g>
				<g>
					
						<linearGradient id="SVGID_00000090996201014533730720000012594948073944367758_" gradientUnits="userSpaceOnUse" x1="25.5907" y1="70.3748" x2="68.0977" y2="74.0216" gradientTransform="matrix(1 0 0 -1 0 102)">
						<stop  offset="0" style="stop-color:#E8AB00"/>
						<stop  offset="0.2257" style="stop-color:#F1D500"/>
						<stop  offset="0.4103" style="stop-color:#FCF5C3"/>
						<stop  offset="0.4842" style="stop-color:#F1D500"/>
						<stop  offset="0.6323" style="stop-color:#F8E4AE"/>
						<stop  offset="0.7861" style="stop-color:#F1D500"/>
						<stop  offset="0.9786" style="stop-color:#825B1D"/>
					</linearGradient>
					<path style="fill:url(#SVGID_00000090996201014533730720000012594948073944367758_);" d="M37.9,33.1c0,0-1.2-2-1.7-2.3
						c1.4-0.2,2.9,0.6,2.9,0.6L39,28.6l1.9,1.6c0,0,0.6-1.4,0.9-1.7c0.3-0.3,0.1,1.5,0.5,1.4c0.4-0.1,1-2.3,1-2.3l0.8,2.9"/>
					<path class="st4" d="M37.8,33.2c-0.4-0.8-1.3-2-1.7-2.2l-0.5-0.2l0.6-0.1c1.1-0.2,2.2,0.3,2.7,0.5l-0.1-2.9l2,1.7
						c0.2-0.4,0.6-1.3,0.8-1.5c0.1-0.1,0.2-0.1,0.3-0.1c0.2,0.1,0.2,0.3,0.2,0.7c0,0.2,0,0.6,0.1,0.7c0.2-0.1,0.6-1.1,0.9-2.2
						l0.2-0.6l1,3.5L44,30.6l-0.6-2.3c-0.3,0.8-0.6,1.8-1,1.9c-0.1,0-0.2,0-0.2-0.1c-0.2-0.1-0.2-0.5-0.3-1c0-0.1,0-0.2,0-0.2
						c-0.2,0.4-0.6,1.2-0.7,1.5L41,30.5L39.2,29l0.1,2.7L39,31.6c0,0-1.2-0.6-2.3-0.6c0,0,0,0,0,0c0.6,0.6,1.3,1.9,1.4,2L37.8,33.2z
						"/>
				</g>
			</g>
			<g>
				<ellipse transform="matrix(0.9663 -0.2574 0.2574 0.9663 -12.5782 15.5125)" class="st3" cx="53" cy="55.8" rx="4" ry="3.7"/>
				<g>
					
						<linearGradient id="SVGID_00000016067733714472984880000014342237369357415339_" gradientUnits="userSpaceOnUse" x1="47.1899" y1="46.8925" x2="59.4766" y2="46.8925" gradientTransform="matrix(1 0 0 -1 0 102)">
						<stop  offset="0" style="stop-color:#E8AB00"/>
						<stop  offset="0.2257" style="stop-color:#F1D500"/>
						<stop  offset="0.4103" style="stop-color:#FCF5C3"/>
						<stop  offset="0.4842" style="stop-color:#F1D500"/>
						<stop  offset="0.6323" style="stop-color:#F8E4AE"/>
						<stop  offset="0.7861" style="stop-color:#F1D500"/>
						<stop  offset="0.9786" style="stop-color:#825B1D"/>
					</linearGradient>
					<path style="fill:url(#SVGID_00000016067733714472984880000014342237369357415339_);" d="M56.5,54.1c0.5,2-0.8,4-2.9,4.6
						c-2.1,0.6-4.3-0.6-4.8-2.5c-0.5-2,0.8-4,2.9-4.6C53.8,51,56,52.1,56.5,54.1z"/>
					<path class="st4" d="M52.5,59.2c-1.9,0-3.6-1.2-4-2.9c-0.3-1-0.1-2.1,0.5-3.1c0.6-0.9,1.5-1.6,2.7-1.9c0.4-0.1,0.8-0.2,1.2-0.2
						c1.9,0,3.6,1.2,4,2.9c0.3,1,0.1,2.1-0.5,3.1c-0.6,0.9-1.5,1.6-2.7,1.9C53.3,59.1,52.9,59.2,52.5,59.2z M52.8,51.7
						c-0.3,0-0.7,0-1,0.1c-1,0.3-1.8,0.8-2.3,1.6c-0.5,0.8-0.7,1.7-0.4,2.5c0.4,1.4,1.8,2.4,3.4,2.4c0.3,0,0.7,0,1-0.1
						c1-0.3,1.8-0.8,2.3-1.6c0.5-0.8,0.7-1.7,0.4-2.5C55.8,52.7,54.4,51.7,52.8,51.7z"/>
				</g>
				<g>
					<g>
						
							<linearGradient id="SVGID_00000183219416148720830080000004534725857397463200_" gradientUnits="userSpaceOnUse" x1="51.4203" y1="46.4994" x2="60.7617" y2="48.2293" gradientTransform="matrix(1 0 0 -1 0 102)">
							<stop  offset="0" style="stop-color:#E8AB00"/>
							<stop  offset="0.2257" style="stop-color:#F1D500"/>
							<stop  offset="0.4103" style="stop-color:#FCF5C3"/>
							<stop  offset="0.4842" style="stop-color:#F1D500"/>
							<stop  offset="0.6323" style="stop-color:#F8E4AE"/>
							<stop  offset="0.7861" style="stop-color:#F1D500"/>
							<stop  offset="0.9786" style="stop-color:#825B1D"/>
						</linearGradient>
						<circle style="fill:url(#SVGID_00000183219416148720830080000004534725857397463200_);" cx="52.6" cy="55.3" r="1.2"/>
						<path class="st4" d="M52.6,56.7c-0.8,0-1.4-0.6-1.4-1.4s0.6-1.4,1.4-1.4c0.8,0,1.4,0.6,1.4,1.4S53.4,56.7,52.6,56.7z
							 M52.6,54.2c-0.6,0-1,0.5-1,1s0.5,1,1,1s1-0.5,1-1S53.2,54.2,52.6,54.2z"/>
					</g>
				</g>
				<path class="st4" d="M55.2,51.9C55.2,51.9,55.2,51.9,55.2,51.9C55.2,51.9,55.2,51.8,55.2,51.9c0.1,0,0.1,0,0.1-0.1
					c0,0,0.1,0,0.1-0.1c0.1-0.1,0.2-0.1,0.3-0.2c0.1-0.1,0.2-0.2,0.3-0.3c0-0.1,0.1-0.1,0.1-0.2c0-0.1,0.1-0.1,0.1-0.2
					c0.1-0.1,0.1-0.3,0.1-0.4c0-0.1,0-0.1,0-0.2c0-0.1,0-0.1,0-0.1c0-0.1,0-0.1,0-0.1s0,0,0.1,0.1s0.1,0.2,0.1,0.3
					c0,0.1,0,0.1,0,0.2c0,0.1,0,0.2,0,0.3c0,0.2-0.1,0.4-0.2,0.5c-0.1,0.2-0.2,0.3-0.4,0.4c-0.1,0.1-0.3,0.2-0.4,0.3
					c-0.1,0-0.1,0.1-0.2,0.1c-0.1,0-0.1,0-0.2,0c-0.1,0-0.2,0-0.2,0c0,0,0,0,0,0L55.2,51.9z"/>
				<path class="st4" d="M55.8,52.5C55.8,52.5,55.8,52.5,55.8,52.5C55.8,52.5,55.8,52.5,55.8,52.5c0.1,0,0.2,0,0.3,0.1
					c0.2,0,0.4,0,0.7-0.1c0.1,0,0.2-0.1,0.3-0.1s0.2-0.1,0.3-0.2c0.1-0.1,0.1-0.1,0.2-0.2c0,0,0.1-0.1,0.1-0.1c0,0,0,0.1-0.2,0.3
					c-0.1,0.1-0.1,0.2-0.2,0.3c-0.1,0.1-0.2,0.2-0.3,0.2c-0.3,0.1-0.5,0.2-0.8,0.2c-0.1,0-0.2,0-0.3,0c0,0-0.1,0-0.1,0c0,0,0,0,0,0
					L55.8,52.5z"/>
			</g>
			<g>
				<path class="st3" d="M36.9,62.5c0,1.6-1.4,2.9-3.2,2.9S31,63.9,31,62.3c0-1.6,1-2.9,2.7-2.9C35.5,59.3,36.9,60.9,36.9,62.5z"/>
				<g>
					
						<linearGradient id="SVGID_00000016060104524149356760000016176775362899889537_" gradientUnits="userSpaceOnUse" x1="29.5762" y1="40.313" x2="40.0117" y2="40.313" gradientTransform="matrix(1 0 0 -1 0 102)">
						<stop  offset="0" style="stop-color:#E8AB00"/>
						<stop  offset="0.2257" style="stop-color:#F1D500"/>
						<stop  offset="0.4103" style="stop-color:#FCF5C3"/>
						<stop  offset="0.4842" style="stop-color:#F1D500"/>
						<stop  offset="0.6323" style="stop-color:#F8E4AE"/>
						<stop  offset="0.7861" style="stop-color:#F1D500"/>
						<stop  offset="0.9786" style="stop-color:#825B1D"/>
					</linearGradient>
					<path style="fill:url(#SVGID_00000016060104524149356760000016176775362899889537_);" d="M36.8,61.8c0,1.6-1.4,2.9-3.2,2.9
						c-1.7,0-2.7-1.5-2.7-3.1s1-2.9,2.7-2.9C35.4,58.6,36.8,60.2,36.8,61.8z"/>
					<path class="st4" d="M33.6,65.1c-2,0-3.1-1.8-3.1-3.5c0-1.9,1.3-3.3,3.1-3.3c1.9,0,3.5,1.6,3.5,3.5
						C37.1,63.6,35.5,65.1,33.6,65.1z M33.6,59c-1.7,0-2.4,1.3-2.4,2.6c0,1.4,0.8,2.8,2.4,2.8c1.5,0,2.8-1.2,2.8-2.6
						C36.4,60.3,35.1,59,33.6,59z"/>
				</g>
				<g>
					<g>
						
							<linearGradient id="SVGID_00000154422064797682469750000005480019735378070694_" gradientUnits="userSpaceOnUse" x1="33.0473" y1="40.1396" x2="41.1767" y2="41.4368" gradientTransform="matrix(1 0 0 -1 0 102)">
							<stop  offset="0" style="stop-color:#E8AB00"/>
							<stop  offset="0.2257" style="stop-color:#F1D500"/>
							<stop  offset="0.4103" style="stop-color:#FCF5C3"/>
							<stop  offset="0.4842" style="stop-color:#F1D500"/>
							<stop  offset="0.6323" style="stop-color:#F8E4AE"/>
							<stop  offset="0.7861" style="stop-color:#F1D500"/>
							<stop  offset="0.9786" style="stop-color:#825B1D"/>
						</linearGradient>
						<circle style="fill:url(#SVGID_00000154422064797682469750000005480019735378070694_);" cx="34.4" cy="61.6" r="1"/>
						<path class="st4" d="M34.4,62.8c-0.6,0-1.2-0.5-1.2-1.2s0.5-1.2,1.2-1.2c0.6,0,1.2,0.5,1.2,1.2S35,62.8,34.4,62.8z M34.4,60.8
							c-0.4,0-0.8,0.4-0.8,0.8c0,0.4,0.4,0.8,0.8,0.8s0.8-0.4,0.8-0.8C35.2,61.2,34.8,60.8,34.4,60.8z"/>
					</g>
				</g>
				<path class="st4" d="M31.2,60.3c0,0-0.2,0-0.4,0c-0.1,0-0.2-0.1-0.4-0.1c-0.1,0-0.3-0.1-0.4-0.2c-0.1-0.1-0.2-0.2-0.3-0.3
					c-0.1-0.1-0.1-0.2-0.2-0.3c0-0.1-0.1-0.2-0.1-0.2c0-0.1,0-0.1,0-0.1s0,0,0,0.1c0,0.1,0.1,0.1,0.1,0.2c0,0,0.1,0.1,0.1,0.1
					c0,0,0.1,0.1,0.1,0.1c0.1,0.1,0.2,0.1,0.3,0.2c0.2,0.1,0.5,0.2,0.7,0.2c0.2,0,0.3,0,0.3,0L31.2,60.3z"/>
				<path class="st4" d="M31,61.3C31,61.3,30.9,61.3,31,61.3c-0.1,0-0.2,0-0.3,0c-0.1,0-0.2,0-0.3,0c-0.1,0-0.1,0-0.2,0
					c-0.1,0-0.1,0-0.1-0.1l-0.1-0.1c0,0-0.1-0.1-0.1-0.1c0,0-0.1-0.1-0.1-0.1c0,0,0-0.1-0.1-0.1c-0.1-0.1-0.1-0.2-0.1-0.2
					s0.1,0.1,0.2,0.2c0,0,0,0.1,0.1,0.1c0,0,0.1,0,0.1,0.1c0,0,0.1,0,0.1,0.1l0.1,0c0.1,0,0.2,0,0.2,0c0.1,0,0.2,0,0.2,0
					c0.1,0,0.1,0,0.1,0c0,0,0.1,0,0.1,0L31,61.3z"/>
			</g>
		</g>
	</g>
</g>
</svg>
