<!DOCTYPE svg PUBLIC '-//W3C//DTD SVG 1.1//EN' 'http://www.w3.org/Graphics/SVG/1.1/DTD/svg11.dtd'>
<svg xmlns="http://www.w3.org/2000/svg" xml:space="preserve" version="1.1" xmlns:xlink="http://www.w3.org/1999/xlink" viewBox="0 0 99.869 99.868" enable-background="new 0 0 99.869 99.868">
<g opacity=".7" fill="#636363">
			<path d="m47.955 99.833c-1.1-0.05-1.96-0.979-1.92-2.08 0.04-1.1 0.97-1.96 2.08-1.92 1.1 0.04 1.96 0.971 1.92 2.08-0.04 1.07-0.93 1.92-2 1.92h-0.08zm2.089-1.919c-0.04-1.109 0.81-2.04 1.92-2.09h-0.011c1.11-0.05 2.04 0.811 2.09 1.91 0.051 1.1-0.81 2.04-1.909 2.09h-0.091c-1.068 0-1.949-0.84-1.999-1.91zm-6.25 1.58c-1.1-0.14-1.88-1.13-1.74-2.229 0.13-1.101 1.13-1.87 2.22-1.74 1.1 0.13 1.88 1.13 1.75 2.229-0.13 1.011-0.99 1.761-1.99 1.761-0.079-0.001-0.159-0.012-0.24-0.021zm10.27-1.76c-0.15-1.09 0.63-2.1 1.729-2.23 1.091-0.14 2.091 0.631 2.23 1.73 0.14 1.09-0.63 2.09-1.73 2.23-0.079 0.01-0.17 0.02-0.25 0.02-0.999 0-1.858-0.74-1.979-1.75zm-14.399 1.08c-1.08-0.23-1.77-1.29-1.54-2.37 0.22-1.08 1.28-1.77 2.36-1.55 1.08 0.229 1.78 1.29 1.55 2.37-0.2 0.939-1.03 1.59-1.96 1.59-0.131 0-0.271-0.01-0.41-0.04zm18.379-1.59c-0.229-1.08 0.46-2.141 1.54-2.37 1.08-0.23 2.141 0.46 2.37 1.54 0.23 1.08-0.46 2.14-1.54 2.37-0.14 0.029-0.279 0.05-0.42 0.05-0.92 0-1.75-0.65-1.95-1.59zm-22.43 0.56c-1.06-0.319-1.66-1.43-1.34-2.49 0.31-1.06 1.43-1.659 2.49-1.34 1.05 0.311 1.65 1.431 1.34 2.49-0.26 0.86-1.05 1.42-1.92 1.42-0.189 0-0.38-0.02-0.57-0.08zm26.351-1.39c-0.32-1.061 0.279-2.18 1.34-2.5 1.05-0.32 2.17 0.27 2.489 1.33 0.32 1.06-0.27 2.18-1.329 2.5-0.19 0.06-0.391 0.08-0.58 0.08-0.861 0-1.651-0.551-1.92-1.41zm-30.3 0.02v0.011c-1.03-0.41-1.54-1.57-1.13-2.601 0.4-1.03 1.56-1.53 2.59-1.13 1.03 0.41 1.54 1.57 1.13 2.6-0.31 0.78-1.06 1.261-1.86 1.261-0.241-0.001-0.491-0.041-0.73-0.141zm34.149-1.19c-0.41-1.03 0.09-2.19 1.11-2.601 1.029-0.409 2.199 0.091 2.6 1.12 0.41 1.021-0.09 2.19-1.11 2.601v-0.011c-0.25 0.101-0.5 0.15-0.739 0.15-0.801 0.001-1.551-0.48-1.861-1.259zm-37.98-0.5c-0.99-0.49-1.39-1.69-0.9-2.681 0.49-0.989 1.69-1.39 2.68-0.899 0.99 0.479 1.39 1.68 0.9 2.68-0.35 0.7-1.06 1.11-1.79 1.11-0.3 0-0.599-0.07-0.89-0.21zm41.7-0.99c-0.49-0.99-0.09-2.19 0.9-2.68 0.99-0.5 2.189-0.101 2.68 0.89 0.5 0.99 0.101 2.19-0.89 2.69-0.29 0.14-0.59 0.21-0.891 0.21-0.738 0-1.438-0.41-1.799-1.11zm-45.36-1.02c-0.95-0.57-1.26-1.801-0.68-2.74 0.57-0.95 1.8-1.25 2.74-0.681 0.95 0.57 1.25 1.801 0.68 2.74-0.38 0.63-1.04 0.97-1.71 0.97-0.35 0-0.709-0.089-1.03-0.289zm48.95-0.77c-0.569-0.95-0.27-2.18 0.67-2.75 0.95-0.58 2.181-0.28 2.75 0.66 0.58 0.95 0.28 2.18-0.659 2.76h-0.011c-0.319 0.19-0.68 0.29-1.029 0.29-0.681 0-1.341-0.35-1.721-0.96zm-52.439-1.53c-0.89-0.649-1.1-1.899-0.45-2.8 0.65-0.89 1.9-1.09 2.8-0.45 0.89 0.65 1.09 1.9 0.44 2.801-0.39 0.539-1 0.829-1.62 0.829-0.411-0.001-0.821-0.13-1.17-0.38zm55.87-0.56c-0.65-0.9-0.45-2.15 0.439-2.8 0.891-0.65 2.141-0.46 2.79 0.439 0.66 0.891 0.46 2.141-0.43 2.79-0.36 0.26-0.771 0.391-1.18 0.391-0.619 0-1.22-0.29-1.619-0.82zm-59.151-2.04c-0.84-0.72-0.93-1.98-0.21-2.811 0.72-0.84 1.98-0.939 2.82-0.22 0.83 0.72 0.93 1.98 0.21 2.82-0.4 0.46-0.96 0.7-1.52 0.7-0.459 0.001-0.92-0.159-1.3-0.489zm62.401-0.33c-0.73-0.84-0.641-2.1 0.199-2.82 0.83-0.729 2.101-0.64 2.82 0.2 0.72 0.83 0.63 2.09-0.2 2.82-0.38 0.33-0.85 0.49-1.31 0.49-0.56 0-1.12-0.24-1.509-0.69zm-65.451-2.52c-0.78-0.79-0.77-2.051 0.02-2.83 0.78-0.771 2.05-0.761 2.83 0.029 0.77 0.78 0.76 2.051-0.03 2.82-0.39 0.39-0.89 0.58-1.4 0.58-0.52 0.001-1.029-0.199-1.42-0.599zm68.48-0.11c-0.79-0.771-0.8-2.04-0.029-2.83 0.77-0.79 2.04-0.81 2.83-0.04 0.79 0.78 0.8 2.04 0.029 2.83-0.39 0.4-0.91 0.6-1.43 0.6-0.5 0-1.009-0.18-1.4-0.56zm-71.29-2.99c-0.71-0.84-0.59-2.11 0.26-2.81 0.85-0.71 2.11-0.601 2.81 0.25v0.01c0.71 0.84 0.6 2.1-0.25 2.81-0.38 0.311-0.83 0.46-1.28 0.46-0.58-0.001-1.14-0.24-1.54-0.72zm74.101 0.11c-0.86-0.7-0.98-1.96-0.271-2.811 0.7-0.859 1.96-0.979 2.811-0.27 0.859 0.7 0.979 1.96 0.27 2.81-0.39 0.48-0.96 0.73-1.54 0.73-0.45 0.001-0.9-0.149-1.27-0.459zm-76.641-3.431c-0.63-0.899-0.41-2.149 0.49-2.779 0.91-0.63 2.15-0.42 2.79 0.489 0.63 0.9 0.41 2.15-0.49 2.78-0.35 0.25-0.75 0.37-1.15 0.37-0.63 0.001-1.249-0.299-1.64-0.86zm79.2 0.331c-0.91-0.63-1.14-1.87-0.51-2.779 0.63-0.91 1.88-1.13 2.79-0.5 0.9 0.63 1.13 1.87 0.5 2.779-0.39 0.561-1.02 0.86-1.65 0.86-0.39 0-0.79-0.11-1.13-0.36zm-81.45-3.85c-0.56-0.95-0.23-2.17 0.72-2.73 0.96-0.56 2.18-0.229 2.74 0.721 0.55 0.96 0.23 2.18-0.73 2.739-0.31 0.181-0.66 0.271-1 0.271-0.69-0.001-1.359-0.361-1.73-1.001zm83.74 0.55c-0.96-0.55-1.29-1.77-0.74-2.729 0.551-0.96 1.78-1.28 2.73-0.73 0.96 0.55 1.29 1.771 0.74 2.73-0.37 0.64-1.05 1-1.74 1-0.339-0.001-0.679-0.092-0.99-0.271zm-85.69-4.241c-0.47-1-0.05-2.189 0.95-2.67 1-0.47 2.19-0.05 2.66 0.95 0.48 1 0.05 2.19-0.94 2.67-0.28 0.13-0.57 0.19-0.86 0.19-0.75 0.001-1.469-0.419-1.81-1.14zm87.69 0.761c-1-0.471-1.43-1.66-0.96-2.66s1.66-1.431 2.66-0.96c1 0.47 1.43 1.66 0.96 2.66-0.34 0.729-1.06 1.149-1.81 1.149-0.28 0.001-0.57-0.059-0.85-0.189zm-89.32-4.61c-0.39-1.03 0.13-2.19 1.17-2.57 1.03-0.39 2.18 0.13 2.57 1.17 0.39 1.03-0.13 2.181-1.17 2.57-0.23 0.09-0.47 0.13-0.7 0.13-0.81 0-1.569-0.5-1.87-1.3zm91.03 0.97c-1.04-0.38-1.56-1.529-1.18-2.56 0.38-1.04 1.53-1.57 2.57-1.19 1.029 0.391 1.56 1.54 1.18 2.57-0.3 0.81-1.07 1.31-1.88 1.31-0.23-0.001-0.459-0.041-0.69-0.13zm-92.329-4.94c-0.3-1.061 0.31-2.17 1.38-2.471 1.06-0.3 2.16 0.32 2.46 1.381 0.3 1.069-0.31 2.17-1.38 2.47-0.18 0.05-0.36 0.08-0.54 0.08-0.871 0-1.681-0.58-1.92-1.46zm93.72 1.18c-1.061-0.29-1.69-1.4-1.391-2.46 0.3-1.07 1.4-1.69 2.46-1.4 1.07 0.301 1.69 1.4 1.391 2.471h0.01c-0.25 0.88-1.061 1.46-1.93 1.46-0.181-0.001-0.361-0.021-0.54-0.071zm-94.691-5.25c-0.21-1.08 0.5-2.13 1.59-2.34 1.08-0.21 2.13 0.5 2.34 1.58 0.21 1.09-0.5 2.14-1.59 2.35-0.12 0.021-0.25 0.03-0.38 0.03-0.94 0-1.77-0.66-1.96-1.62zm95.76 1.38c-1.08-0.21-1.79-1.25-1.59-2.33 0.2-1.09 1.25-1.81 2.34-1.6 1.08 0.2 1.79 1.25 1.59 2.33-0.18 0.96-1.02 1.63-1.96 1.63-0.13 0-0.25-0.01-0.38-0.03zm-96.38-5.51c-0.11-1.1 0.68-2.09 1.78-2.2 1.1-0.12 2.08 0.67 2.2 1.771 0.12 1.1-0.68 2.09-1.78 2.199-0.07 0.011-0.14 0.011-0.21 0.011-1.01-0.001-1.879-0.762-1.99-1.781zm97.13 1.56c-1.1-0.109-1.899-1.09-1.79-2.189 0.11-1.101 1.101-1.9 2.2-1.79 1.09 0.12 1.891 1.1 1.78 2.2-0.11 1.029-0.97 1.79-1.98 1.79-0.069-0.001-0.14-0.001-0.21-0.011zm-97.4-5.73c-0.03-1.1 0.85-2.02 1.95-2.05 1.1-0.02 2.02 0.85 2.05 1.95v0.011c0.02 1.1-0.85 2.01-1.95 2.04h-0.05c-1.09-0.001-1.98-0.861-2-1.951zm97.81 1.74c-1.109-0.021-1.99-0.931-1.96-2.04 0.021-1.1 0.93-1.98 2.03-1.96 1.109 0.02 1.99 0.93 1.97 2.041-0.03 1.09-0.92 1.96-2 1.96-0.019-0.001-0.03-0.001-0.04-0.001zm-95.86-3.8c-1.1-0.07-1.94-1.01-1.88-2.12 0.07-1.1 1.01-1.94 2.12-1.88 1.1 0.07 1.94 1.01 1.87 2.12-0.06 1.06-0.94 1.88-1.99 1.88h-0.12zm93.81-2.09c-0.07-1.1 0.77-2.05 1.87-2.12 1.109-0.07 2.06 0.77 2.13 1.87 0.06 1.1-0.771 2.05-1.87 2.12-0.05 0.01-0.09 0.01-0.13 0.01-1.049 0-1.929-0.82-2-1.88zm-93.569-1.92c-1.1-0.16-1.86-1.17-1.7-2.26 0.16-1.1 1.17-1.86 2.26-1.7 1.09 0.15 1.86 1.17 1.7 2.26-0.14 1-1 1.72-1.98 1.72-0.09 0-0.191-0.01-0.28-0.02zm93.169-1.9c-0.159-1.09 0.601-2.11 1.69-2.27 1.09-0.16 2.11 0.59 2.27 1.69 0.16 1.09-0.6 2.11-1.689 2.27-0.101 0.01-0.19 0.02-0.29 0.02-0.981 0-1.831-0.72-1.981-1.71zm-92.61-2.08c-1.07-0.24-1.74-1.32-1.49-2.39h-0.01c0.25-1.08 1.33-1.75 2.4-1.51 1.08 0.25 1.75 1.33 1.5 2.4-0.21 0.93-1.04 1.55-1.95 1.55-0.14 0-0.29-0.01-0.45-0.05zm91.89-1.69c-0.25-1.08 0.42-2.16 1.49-2.41 1.08-0.25 2.149 0.42 2.41 1.49 0.25 1.08-0.42 2.15-1.49 2.4-0.16 0.04-0.311 0.06-0.46 0.06-0.91 0-1.73-0.62-1.95-1.54zm-90.98-2.22c-1.06-0.34-1.64-1.46-1.3-2.52 0.34-1.05 1.47-1.63 2.52-1.29s1.63 1.46 1.29 2.52c-0.27 0.85-1.06 1.39-1.9 1.39-0.2 0-0.409-0.04-0.61-0.1zm89.95-1.49c-0.34-1.05 0.23-2.18 1.28-2.52s2.18 0.23 2.521 1.28c0.34 1.05-0.23 2.18-1.28 2.53-0.21 0.06-0.42 0.09-0.62 0.09-0.85 0-1.63-0.53-1.901-1.38zm-88.729-2.34c-1.02-0.42-1.5-1.59-1.07-2.61 0.42-1.02 1.59-1.5 2.61-1.08 1.02 0.43 1.5 1.6 1.08 2.62-0.32 0.76-1.07 1.23-1.85 1.23-0.25 0-0.52-0.05-0.77-0.16zm87.379-1.26c-0.42-1.01 0.05-2.19 1.07-2.62 1.02-0.42 2.189 0.05 2.62 1.07 0.43 1.02-0.051 2.19-1.07 2.62-0.25 0.11-0.51 0.16-0.771 0.16-0.778 0-1.519-0.46-1.849-1.23zm-85.83-2.45c-0.98-0.5-1.36-1.71-0.85-2.69s1.71-1.36 2.69-0.85c0.98 0.5 1.37 1.71 0.86 2.69-0.36 0.69-1.06 1.08-1.78 1.08-0.31 0-0.63-0.07-0.92-0.23zm84.191-1.02c-0.511-0.98-0.131-2.19 0.85-2.7 0.97-0.51 2.18-0.14 2.7 0.84h-0.01c0.52 0.98 0.14 2.19-0.841 2.7-0.29 0.16-0.609 0.23-0.92 0.23-0.72 0-1.42-0.39-1.779-1.07zm-82.341-2.54c-0.93-0.59-1.21-1.82-0.62-2.76 0.59-0.93 1.82-1.21 2.76-0.62 0.93 0.59 1.21 1.82 0.62 2.75-0.38 0.61-1.03 0.94-1.69 0.94-0.369 0-0.739-0.1-1.07-0.31zm80.421-0.79c-0.601-0.93-0.32-2.17 0.609-2.76 0.93-0.59 2.17-0.32 2.76 0.62v-0.01c0.591 0.94 0.32 2.17-0.609 2.77-0.34 0.21-0.71 0.31-1.07 0.31-0.661 0-1.31-0.33-1.69-0.93zm-78.271-2.61c-0.88-0.66-1.06-1.92-0.4-2.8 0.67-0.88 1.92-1.06 2.81-0.39 0.88 0.67 1.05 1.92 0.39 2.8-0.4 0.52-0.99 0.8-1.6 0.8-0.419 0-0.84-0.13-1.2-0.41zm76.071-0.54c-0.67-0.88-0.5-2.14 0.38-2.8 0.88-0.67 2.13-0.5 2.8 0.38s0.5 2.13-0.38 2.8c-0.36 0.27-0.79 0.41-1.21 0.41-0.601 0-1.201-0.27-1.59-0.79zm-73.651-2.66c-0.83-0.74-0.9-2-0.16-2.83 0.74-0.82 2-0.89 2.82-0.16 0.83 0.74 0.9 2 0.16 2.83-0.4 0.44-0.94 0.67-1.49 0.67-0.48 0-0.949-0.17-1.33-0.51zm71.191-0.3c-0.74-0.82-0.67-2.09 0.149-2.83 0.82-0.74 2.08-0.67 2.82 0.15s0.68 2.09-0.14 2.82c-0.381 0.35-0.86 0.52-1.341 0.52-0.549 0-1.089-0.22-1.488-0.66zm-68.521-2.7c-0.75-0.8-0.72-2.06 0.08-2.82s2.07-0.73 2.83 0.07c0.76 0.81 0.72 2.07-0.08 2.83-0.39 0.37-0.88 0.55-1.37 0.55-0.53 0-1.059-0.21-1.46-0.63zm65.83-0.05c-0.81-0.75-0.84-2.02-0.09-2.82 0.76-0.81 2.02-0.85 2.83-0.09 0.8 0.75 0.84 2.02 0.09 2.82-0.4 0.42-0.93 0.63-1.46 0.63-0.49 0-0.98-0.18-1.37-0.54zm-62.909-2.71c-0.69-0.86-0.55-2.12 0.31-2.81h0.01c0.86-0.69 2.12-0.55 2.81 0.31 0.69 0.87 0.54 2.13-0.32 2.82-0.37 0.29-0.81 0.43-1.25 0.43-0.58 0-1.161-0.25-1.56-0.75zm59.999 0.2c-0.87-0.69-1.01-1.95-0.33-2.81 0.69-0.87 1.95-1.01 2.82-0.33 0.86 0.69 1 1.95 0.32 2.82-0.391 0.49-0.98 0.75-1.57 0.75-0.429 0-0.87-0.14-1.24-0.43zm-56.86-2.7c-0.62-0.92-0.37-2.16 0.54-2.78 0.92-0.62 2.16-0.37 2.78 0.55 0.61 0.91 0.37 2.16-0.55 2.77-0.34 0.23-0.73 0.34-1.11 0.34-0.64 0-1.279-0.31-1.66-0.88zm53.751 0.44v-0.01c-0.92-0.61-1.17-1.85-0.561-2.77 0.61-0.92 1.851-1.17 2.771-0.56h0.01c0.91 0.62 1.16 1.86 0.55 2.78-0.38 0.58-1.02 0.89-1.67 0.89-0.381 0-0.76-0.11-1.1-0.33zm-50.421-2.68c-0.53-0.97-0.19-2.18 0.78-2.72 0.96-0.54 2.18-0.19 2.72 0.78 0.53 0.96 0.19 2.18-0.78 2.71-0.31 0.18-0.64 0.26-0.97 0.26-0.699 0-1.38-0.37-1.75-1.03zm47.131 0.68c-0.971-0.53-1.32-1.75-0.79-2.71 0.529-0.97 1.75-1.33 2.72-0.79 0.97 0.53 1.32 1.74 0.79 2.71-0.37 0.66-1.05 1.04-1.76 1.04-0.321 0-0.651-0.08-0.96-0.25zm-43.62-2.63c-0.45-1.01-0.01-2.19 1-2.65 1.01-0.45 2.19 0 2.65 1.01 0.45 1 0 2.19-1 2.64-0.27 0.12-0.55 0.18-0.83 0.18-0.76 0-1.491-0.44-1.82-1.18zm40.169 0.92h0.01c-1.01-0.45-1.47-1.63-1.02-2.64 0.449-1.01 1.63-1.46 2.64-1.01s1.47 1.63 1.01 2.64c-0.33 0.74-1.06 1.18-1.819 1.18-0.271 0-0.551-0.05-0.821-0.17zm-36.51-2.57c-0.37-1.04 0.18-2.18 1.22-2.55s2.18 0.18 2.55 1.22-0.18 2.18-1.22 2.55c-0.22 0.08-0.44 0.11-0.66 0.11-0.83 0-1.6-0.51-1.89-1.33zm32.94 1.15c-1.04-0.36-1.6-1.5-1.229-2.54 0.359-1.05 1.5-1.6 2.54-1.24 1.05 0.37 1.6 1.51 1.229 2.55-0.28 0.83-1.06 1.35-1.88 1.35-0.219 0-0.44-0.04-0.66-0.12zm-29.15-2.48c-0.28-1.07 0.36-2.17 1.43-2.45 1.07-0.27 2.16 0.37 2.44 1.44 0.27 1.07-0.36 2.16-1.43 2.43v0.01c-0.17 0.04-0.34 0.06-0.51 0.06-0.89 0-1.7-0.6-1.93-1.49zm25.47 1.38c-1.07-0.28-1.72-1.37-1.44-2.44 0.271-1.07 1.36-1.71 2.431-1.44 1.069 0.27 1.72 1.36 1.439 2.43-0.229 0.91-1.04 1.51-1.939 1.51-0.16 0-0.33-0.02-0.491-0.06zm-21.59-2.4c-0.18-1.09 0.55-2.12 1.63-2.31 1.09-0.19 2.13 0.54 2.32 1.63 0.18 1.09-0.55 2.13-1.64 2.31-0.11 0.02-0.22 0.03-0.34 0.03-0.95 0-1.799-0.68-1.97-1.66zm17.831 1.6c-1.091-0.18-1.83-1.21-1.641-2.3 0.181-1.09 1.21-1.83 2.3-1.65v0.01c1.091 0.18 1.82 1.21 1.641 2.3-0.16 0.98-1.01 1.67-1.97 1.67-0.111 0-0.221-0.01-0.33-0.03zm-13.87-2.28c-0.1-1.1 0.72-2.07 1.82-2.16 1.1-0.1 2.07 0.71 2.16 1.81 0.1 1.1-0.71 2.07-1.81 2.17-0.06 0-0.12 0.01-0.18 0.01-1.03 0-1.901-0.79-1.99-1.83zm10.049 1.8c-1.1-0.09-1.92-1.05-1.82-2.15 0.08-1.11 1.05-1.92 2.15-1.83s1.92 1.05 1.83 2.15c-0.09 1.05-0.96 1.84-1.99 1.84-0.049 0-0.11 0-0.17-0.01zm-6.049-2.15c0-1.1 0.89-2 1.99-2h0.22c1.109 0 2 0.89 2 2 0 1.1-0.891 2-2 2-0.03 0-0.07-0.01-0.11-0.01-0.03 0-0.06 0.01-0.09 0.01h-0.01c-1.1 0-2-0.89-2-2z"/>
			<path d="m47.984 92.114c-0.55-0.03-0.98-0.49-0.95-1.04 0.02-0.56 0.49-0.979 1.04-0.96 0.56 0.03 0.98 0.49 0.96 1.05-0.03 0.53-0.47 0.95-1 0.95h-0.05zm3.031-0.96c-0.03-0.55 0.399-1.02 0.95-1.05 0.55-0.021 1.02 0.399 1.05 0.95 0.02 0.55-0.4 1.02-0.95 1.05h-0.05c-0.531 0-0.971-0.41-1-0.95zm-7.091 0.58c-0.54-0.08-0.92-0.59-0.84-1.13 0.07-0.55 0.58-0.93 1.13-0.851 0.54 0.08 0.92 0.58 0.85 1.131-0.08 0.5-0.51 0.859-1 0.859-0.04 0.001-0.089 0.001-0.14-0.009zm11.06-0.87c-0.08-0.55 0.3-1.06 0.85-1.14 0.54-0.08 1.051 0.3 1.131 0.85 0.079 0.55-0.301 1.05-0.841 1.13-0.05 0.011-0.1 0.011-0.149 0.011-0.491-0.001-0.911-0.351-0.991-0.851zm-15.06 0.1c-0.54-0.131-0.87-0.671-0.74-1.211 0.13-0.529 0.68-0.869 1.21-0.729 0.54 0.13 0.87 0.67 0.74 1.2-0.11 0.46-0.52 0.77-0.97 0.77-0.08 0-0.16-0.01-0.24-0.03zm18.99-0.77c-0.14-0.54 0.19-1.08 0.73-1.21 0.53-0.14 1.07 0.19 1.21 0.73 0.13 0.529-0.2 1.069-0.73 1.21-0.08 0.02-0.17 0.029-0.239 0.029-0.45 0.001-0.861-0.309-0.971-0.759zm-22.9-0.39c-0.52-0.181-0.8-0.75-0.62-1.271 0.18-0.52 0.75-0.8 1.28-0.609 0.52 0.18 0.79 0.75 0.61 1.27-0.14 0.41-0.53 0.67-0.94 0.67-0.11 0-0.219-0.02-0.33-0.06zm26.74-0.66c-0.189-0.521 0.091-1.101 0.601-1.28h0.01c0.521-0.189 1.09 0.09 1.271 0.61 0.189 0.52-0.091 1.09-0.61 1.27-0.11 0.04-0.22 0.061-0.33 0.061-0.412-0.001-0.801-0.251-0.942-0.661zm-30.52-0.86c-0.51-0.24-0.72-0.83-0.49-1.33 0.23-0.51 0.83-0.72 1.33-0.489 0.5 0.229 0.71 0.829 0.48 1.329-0.17 0.36-0.53 0.58-0.9 0.58-0.14 0-0.29-0.03-0.42-0.09zm34.241-0.56c-0.24-0.5-0.021-1.101 0.479-1.33 0.5-0.24 1.101-0.021 1.33 0.479 0.23 0.5 0.021 1.091-0.479 1.33-0.141 0.061-0.28 0.09-0.431 0.09-0.37 0-0.729-0.21-0.899-0.569zm-37.861-1.34v0.01c-0.47-0.28-0.63-0.9-0.35-1.37 0.27-0.48 0.89-0.64 1.36-0.36h0.01c0.47 0.28 0.63 0.891 0.35 1.37-0.19 0.32-0.52 0.49-0.86 0.49-0.169 0-0.35-0.04-0.51-0.14zm41.42-0.44c-0.28-0.47-0.12-1.09 0.351-1.37 0.479-0.28 1.09-0.12 1.369 0.351 0.28 0.479 0.131 1.09-0.35 1.369-0.16 0.101-0.33 0.141-0.5 0.141-0.349-0.001-0.679-0.171-0.87-0.491zm-44.829-1.78c-0.45-0.33-0.55-0.949-0.22-1.399 0.32-0.45 0.94-0.55 1.39-0.221v-0.01c0.45 0.33 0.55 0.96 0.23 1.4-0.2 0.27-0.51 0.42-0.82 0.42-0.201 0-0.401-0.07-0.58-0.19zm48.209-0.331c-0.33-0.439-0.229-1.069 0.221-1.39 0.439-0.33 1.069-0.229 1.399 0.21 0.32 0.45 0.22 1.07-0.22 1.4-0.18 0.13-0.39 0.189-0.59 0.189-0.31 0.002-0.61-0.138-0.81-0.409zm-51.4-2.219c-0.41-0.37-0.45-1-0.08-1.41 0.36-0.42 0.99-0.46 1.41-0.09 0.41 0.36 0.45 1 0.09 1.41-0.2 0.22-0.48 0.34-0.75 0.34-0.24 0-0.479-0.08-0.67-0.25zm54.56-0.2c-0.37-0.42-0.33-1.05 0.08-1.41 0.41-0.369 1.05-0.34 1.41 0.08 0.37 0.41 0.33 1.04-0.08 1.41-0.19 0.17-0.43 0.25-0.66 0.25-0.28 0-0.55-0.11-0.75-0.33zm-57.48-2.64c-0.38-0.4-0.36-1.04 0.05-1.42 0.4-0.37 1.03-0.351 1.41 0.05 0.38 0.41 0.36 1.04-0.05 1.42-0.19 0.18-0.44 0.26-0.68 0.26-0.27-0.001-0.53-0.1-0.73-0.31zm60.39-0.08c-0.4-0.38-0.43-1.01-0.05-1.41 0.37-0.41 1.01-0.43 1.41-0.06 0.409 0.38 0.43 1.01 0.05 1.42-0.19 0.21-0.46 0.32-0.73 0.32-0.239 0-0.489-0.09-0.68-0.27zm-63.029-3.03c-0.34-0.439-0.26-1.069 0.18-1.399 0.44-0.34 1.07-0.261 1.4 0.18 0.34 0.44 0.26 1.06-0.18 1.4-0.18 0.14-0.39 0.21-0.61 0.21-0.301-0.001-0.591-0.131-0.79-0.391zm65.669 0.05c-0.439-0.341-0.52-0.971-0.189-1.41 0.33-0.44 0.96-0.521 1.399-0.181 0.44 0.33 0.53 0.96 0.19 1.4-0.2 0.26-0.49 0.39-0.8 0.39-0.209 0.001-0.419-0.069-0.6-0.199zm-67.999-3.4c-0.29-0.47-0.15-1.08 0.32-1.38 0.47-0.29 1.08-0.15 1.38 0.319 0.29 0.471 0.15 1.091-0.32 1.381-0.17 0.1-0.35 0.149-0.53 0.149-0.33 0.001-0.661-0.159-0.85-0.469zm70.34 0.17c-0.471-0.29-0.62-0.91-0.32-1.37 0.29-0.479 0.899-0.62 1.37-0.33 0.47 0.29 0.62 0.91 0.319 1.38-0.18 0.301-0.51 0.471-0.84 0.471-0.189-0.001-0.37-0.052-0.529-0.151zm-72.34-3.731c-0.24-0.489-0.04-1.09 0.45-1.34 0.5-0.239 1.1-0.04 1.34 0.45 0.25 0.5 0.05 1.101-0.44 1.34-0.15 0.07-0.3 0.11-0.45 0.11-0.371 0.001-0.721-0.199-0.9-0.56zm74.359 0.301c-0.5-0.25-0.7-0.851-0.46-1.34 0.24-0.5 0.85-0.7 1.34-0.461 0.5 0.25 0.7 0.851 0.46 1.341h-0.01c-0.17 0.359-0.53 0.56-0.9 0.56-0.14 0-0.29-0.03-0.43-0.1zm-76-4.03c-0.19-0.51 0.06-1.09 0.58-1.29s1.09 0.06 1.29 0.58c0.2 0.51-0.06 1.09-0.57 1.29-0.12 0.04-0.24 0.06-0.36 0.06-0.4 0-0.779-0.24-0.94-0.64zm77.67 0.42c-0.52-0.2-0.78-0.78-0.58-1.29 0.19-0.52 0.771-0.78 1.29-0.59 0.51 0.2 0.78 0.77 0.58 1.29-0.15 0.399-0.53 0.649-0.94 0.649-0.109 0-0.23-0.019-0.35-0.059zm-78.94-4.29c-0.14-0.53 0.17-1.08 0.7-1.229 0.53-0.15 1.08 0.159 1.23 0.699 0.15 0.53-0.17 1.08-0.7 1.23-0.09 0.02-0.18 0.03-0.26 0.03-0.439 0-0.85-0.29-0.97-0.73zm80.261 0.53c-0.53-0.15-0.851-0.7-0.7-1.23h-0.01c0.149-0.529 0.689-0.85 1.229-0.71 0.53 0.15 0.851 0.7 0.71 1.23-0.13 0.45-0.529 0.74-0.97 0.74-0.089 0-0.17-0.01-0.259-0.03zm-81.141-4.51c-0.1-0.551 0.27-1.07 0.81-1.16s1.06 0.27 1.15 0.819c0.1 0.54-0.27 1.061-0.81 1.15-0.06 0.01-0.11 0.02-0.17 0.02-0.48 0-0.899-0.349-0.98-0.829zm82.08 0.64c-0.54-0.09-0.91-0.61-0.819-1.15 0.09-0.55 0.609-0.92 1.159-0.819 0.54 0.09 0.91 0.6 0.82 1.149-0.09 0.49-0.51 0.83-0.99 0.83-0.05 0-0.109 0-0.17-0.01zm-82.58-4.69c-0.05-0.55 0.37-1.029 0.92-1.069s1.03 0.37 1.07 0.92-0.37 1.029-0.92 1.069c-0.03 0.011-0.05 0.011-0.07 0.011-0.53-0.001-0.97-0.401-1-0.931zm83.15 0.75c-0.55-0.04-0.97-0.52-0.93-1.069 0.04-0.551 0.52-0.971 1.069-0.931 0.551 0.04 0.971 0.521 0.931 1.07-0.04 0.53-0.48 0.93-1 0.93h-0.07zm-82.29-3.8c-0.55-0.01-0.99-0.47-0.97-1.02 0.01-0.56 0.46-0.99 1.02-0.98 0.55 0.01 0.99 0.46 0.98 1.02-0.02 0.54-0.46 0.98-1 0.98h-0.03zm81.451-1.16c-0.01-0.55 0.42-1.01 0.979-1.02 0.551-0.01 1.011 0.42 1.021 0.98 0.01 0.55-0.42 1.01-0.97 1.02h-0.03c-0.541 0-0.981-0.43-1-0.98zm-81.27-2.82c-0.55-0.07-0.94-0.56-0.88-1.11 0.07-0.55 0.56-0.94 1.11-0.88 0.55 0.07 0.94 0.56 0.88 1.11-0.06 0.51-0.49 0.89-0.99 0.89-0.04 0-0.08-0.01-0.12-0.01zm80.989-1.05c-0.07-0.55 0.32-1.05 0.87-1.11 0.55-0.07 1.05 0.32 1.11 0.87h0.01c0.06 0.55-0.33 1.05-0.88 1.11-0.04 0.01-0.08 0.01-0.12 0.01-0.5 0-0.929-0.37-0.99-0.88zm-80.429-2.89c-0.54-0.12-0.88-0.65-0.77-1.19 0.12-0.54 0.65-0.89 1.19-0.77s0.88 0.65 0.77 1.19c-0.11 0.47-0.52 0.79-0.98 0.79-0.071 0-0.141-0.01-0.21-0.02zm79.78-0.94c-0.12-0.54 0.22-1.07 0.76-1.19s1.069 0.22 1.189 0.76-0.22 1.07-0.76 1.19c-0.07 0.02-0.15 0.03-0.22 0.03-0.459 0-0.87-0.32-0.969-0.79zm-78.851-2.93c-0.52-0.17-0.81-0.74-0.64-1.26 0.17-0.53 0.73-0.82 1.26-0.65 0.52 0.17 0.81 0.73 0.64 1.26-0.13 0.42-0.53 0.69-0.95 0.69-0.1 0-0.199-0.01-0.31-0.04zm77.83-0.81h-0.01c-0.17-0.53 0.12-1.1 0.649-1.27 0.521-0.17 1.091 0.12 1.261 0.65 0.17 0.52-0.12 1.08-0.641 1.26-0.109 0.03-0.21 0.05-0.319 0.05-0.419 0-0.81-0.27-0.94-0.69zm-76.52-2.96c-0.51-0.21-0.74-0.8-0.52-1.31s0.81-0.74 1.32-0.52c0.5 0.22 0.74 0.81 0.52 1.31-0.17 0.38-0.54 0.61-0.92 0.61-0.13 0-0.27-0.03-0.4-0.09zm75.131-0.68c-0.221-0.5 0.01-1.09 0.52-1.31s1.101 0.01 1.32 0.51c0.22 0.51-0.01 1.1-0.521 1.32-0.13 0.06-0.26 0.08-0.399 0.08-0.38 0-0.75-0.22-0.92-0.6zm-73.461-2.93c-0.48-0.27-0.66-0.88-0.39-1.36 0.26-0.49 0.87-0.66 1.36-0.39 0.48 0.26 0.66 0.87 0.39 1.36-0.18 0.32-0.53 0.51-0.88 0.51-0.159 0-0.329-0.04-0.48-0.12zm71.74-0.55c-0.27-0.48-0.1-1.09 0.391-1.36 0.479-0.27 1.08-0.09 1.359 0.39 0.261 0.48 0.091 1.09-0.39 1.36-0.16 0.09-0.32 0.13-0.49 0.13-0.35 0-0.689-0.19-0.87-0.52zm-69.73-2.89c-0.46-0.31-0.57-0.94-0.26-1.39 0.31-0.46 0.94-0.57 1.39-0.26 0.46 0.31 0.57 0.93 0.26 1.39-0.19 0.28-0.51 0.43-0.83 0.43-0.189 0-0.39-0.05-0.56-0.17zm67.68-0.4h-0.01c-0.31-0.46-0.2-1.08 0.26-1.39 0.45-0.32 1.07-0.2 1.391 0.25 0.31 0.45 0.199 1.08-0.261 1.39-0.17 0.12-0.37 0.18-0.56 0.18-0.32 0-0.629-0.15-0.82-0.43zm-65.349-2.83c-0.42-0.36-0.48-0.99-0.12-1.41 0.35-0.42 0.98-0.48 1.41-0.12 0.42 0.35 0.47 0.98 0.12 1.41-0.2 0.23-0.48 0.35-0.77 0.35-0.221 0-0.45-0.07-0.64-0.23zm62.979-0.26c-0.359-0.42-0.3-1.05 0.12-1.41 0.42-0.35 1.05-0.3 1.41 0.12 0.35 0.42 0.3 1.06-0.12 1.41-0.189 0.16-0.42 0.24-0.649 0.24-0.28 0-0.561-0.12-0.761-0.36zm-60.35-2.73c-0.39-0.39-0.38-1.03 0.01-1.42 0.4-0.38 1.03-0.38 1.42 0.02 0.39 0.39 0.38 1.02-0.01 1.41-0.2 0.19-0.45 0.29-0.71 0.29-0.25 0-0.51-0.1-0.71-0.3zm57.701-0.11c-0.391-0.38-0.4-1.02-0.021-1.41 0.391-0.4 1.021-0.41 1.42-0.02 0.391 0.38 0.4 1.02 0.011 1.41-0.19 0.2-0.45 0.3-0.71 0.3-0.25 0-0.5-0.09-0.7-0.28zm-54.79-2.62c-0.35-0.42-0.28-1.05 0.14-1.4 0.43-0.35 1.06-0.28 1.41 0.15 0.35 0.42 0.28 1.05-0.15 1.4-0.18 0.15-0.4 0.23-0.62 0.23-0.3 0-0.59-0.13-0.78-0.38zm51.879 0.05v-0.01c-0.43-0.34-0.5-0.97-0.15-1.4 0.34-0.43 0.971-0.5 1.41-0.15h-0.01c0.43 0.34 0.5 0.97 0.16 1.4-0.2 0.25-0.49 0.37-0.78 0.37-0.219 0-0.44-0.07-0.63-0.21zm-48.729-2.48c-0.31-0.46-0.18-1.08 0.28-1.38 0.46-0.31 1.08-0.18 1.39 0.28 0.3 0.46 0.18 1.08-0.28 1.38v0.01c-0.17 0.11-0.36 0.16-0.55 0.16-0.331 0-0.651-0.16-0.84-0.45zm45.59 0.19c-0.461-0.3-0.591-0.92-0.29-1.38 0.31-0.47 0.92-0.6 1.39-0.29 0.46 0.3 0.59 0.92 0.29 1.38-0.2 0.3-0.521 0.45-0.84 0.45-0.191 0-0.38-0.05-0.55-0.16zm-42.22-2.31c-0.26-0.48-0.07-1.09 0.42-1.35s1.09-0.07 1.35 0.42c0.26 0.48 0.07 1.09-0.41 1.35-0.15 0.08-0.31 0.12-0.47 0.12-0.361 0-0.711-0.2-0.89-0.54zm38.869 0.34c-0.49-0.26-0.67-0.86-0.42-1.35 0.26-0.49 0.86-0.68 1.35-0.42 0.49 0.25 0.681 0.86 0.421 1.35-0.181 0.34-0.521 0.53-0.881 0.53-0.159 0-0.319-0.03-0.47-0.11zm-35.3-2.12c-0.22-0.51 0.03-1.09 0.54-1.3s1.09 0.03 1.3 0.54-0.03 1.1-0.54 1.31c-0.13 0.05-0.25 0.07-0.38 0.07-0.39 0-0.77-0.23-0.92-0.62zm31.781 0.48c-0.511-0.21-0.761-0.79-0.551-1.3s0.79-0.76 1.301-0.55c0.52 0.21 0.76 0.79 0.55 1.3-0.15 0.39-0.53 0.62-0.92 0.62-0.13 0-0.26-0.02-0.38-0.07zm-28.071-1.9c-0.16-0.53 0.14-1.09 0.67-1.25s1.09 0.14 1.25 0.67c0.16 0.52-0.14 1.08-0.67 1.24-0.1 0.03-0.19 0.05-0.29 0.05-0.43 0-0.83-0.28-0.96-0.71zm24.411 0.61c-0.53-0.15-0.83-0.71-0.681-1.24 0.16-0.53 0.721-0.83 1.25-0.67 0.53 0.15 0.83 0.71 0.671 1.24-0.131 0.43-0.53 0.71-0.96 0.71-0.091 0-0.191-0.01-0.28-0.04zm-20.571-1.67c-0.11-0.55 0.24-1.08 0.79-1.18 0.54-0.11 1.07 0.24 1.17 0.78 0.11 0.55-0.24 1.07-0.78 1.18-0.07 0.01-0.13 0.02-0.2 0.02-0.469 0-0.889-0.33-0.98-0.8zm16.79 0.75h0.01c-0.55-0.11-0.899-0.63-0.8-1.17 0.11-0.55 0.63-0.9 1.18-0.8 0.54 0.11 0.891 0.63 0.79 1.18-0.1 0.47-0.51 0.81-0.979 0.81-0.071 0-0.13-0.01-0.201-0.02zm-12.87-1.44c-0.05-0.55 0.35-1.04 0.9-1.09 0.55-0.06 1.04 0.34 1.09 0.89 0.06 0.55-0.34 1.04-0.89 1.1h-0.1c-0.51 0-0.95-0.38-1-0.9zm9.03 0.88c-0.55-0.05-0.95-0.54-0.9-1.09 0.051-0.55 0.54-0.95 1.09-0.9 0.551 0.05 0.95 0.54 0.9 1.09-0.05 0.52-0.49 0.91-0.99 0.91-0.04 0-0.069-0.01-0.1-0.01zm-3.98-0.19c-0.02 0-0.05 0.01-0.07 0.01-0.55 0-1-0.45-1.01-1 0-0.55 0.45-1 1-1h0.08c0.04 0 0.07-0.01 0.1-0.01v0.01c0.55 0 1 0.44 1 0.99 0 0.56-0.45 1.01-1 1.01-0.03 0-0.07 0-0.1-0.01z"/>
	<path d="m45.264 78.674c-0.54-0.04-0.95-0.53-0.91-1.08 0.04-0.551 0.53-0.96 1.08-0.91 0.55 0.04 0.96 0.53 0.91 1.08-0.04 0.52-0.48 0.92-0.99 0.92-0.03 0-0.06 0-0.09-0.01zm3.09-0.95c-0.07-0.55 0.33-1.05 0.88-1.11 0.54-0.06 1.04 0.33 1.1 0.88s-0.33 1.04-0.88 1.11h-0.11c-0.5 0-0.94-0.37-0.99-0.88zm-7.22 0.15c-0.53-0.159-0.82-0.729-0.66-1.25 0.17-0.529 0.73-0.819 1.26-0.649 0.53 0.16 0.82 0.72 0.65 1.25-0.13 0.43-0.53 0.7-0.95 0.7-0.1-0.001-0.2-0.011-0.3-0.051zm11.16-0.78c-0.149-0.53 0.16-1.091 0.69-1.24h-0.01c0.529-0.15 1.09 0.149 1.24 0.68 0.159 0.53-0.15 1.09-0.681 1.24-0.09 0.03-0.18 0.04-0.27 0.04-0.439 0-0.838-0.28-0.969-0.72zm3.801-1.261c-0.23-0.5-0.011-1.09 0.5-1.319 0.5-0.23 1.09-0.011 1.319 0.5 0.23 0.5 0.011 1.09-0.5 1.319-0.13 0.061-0.27 0.091-0.41 0.091-0.38 0-0.739-0.22-0.909-0.591zm-18.821 0.281c-0.47-0.3-0.61-0.91-0.32-1.38s0.91-0.61 1.38-0.32v-0.01c0.47 0.3 0.61 0.91 0.32 1.38-0.19 0.311-0.51 0.47-0.85 0.47-0.179-0.001-0.36-0.04-0.53-0.14zm22.401-2.05c-0.29-0.47-0.15-1.09 0.319-1.38 0.471-0.29 1.09-0.15 1.38 0.319 0.29 0.461 0.15 1.08-0.319 1.37-0.16 0.11-0.351 0.16-0.53 0.16-0.331 0.001-0.661-0.169-0.85-0.469zm-25.151-0.29c-0.54-0.09-0.92-0.6-0.83-1.14 0.08-0.551 0.6-0.92 1.14-0.83 0.55 0.08 0.92 0.59 0.83 1.14-0.07 0.49-0.5 0.84-0.98 0.84-0.059 0-0.11 0-0.16-0.01zm28.48-1.941c-0.35-0.43-0.289-1.06 0.131-1.409 0.43-0.351 1.06-0.29 1.409 0.14 0.351 0.43 0.29 1.06-0.14 1.41-0.18 0.149-0.41 0.22-0.63 0.22-0.29 0-0.58-0.12-0.77-0.361zm-32.379-0.619c-0.33-0.45-0.23-1.07 0.22-1.4 0.45-0.32 1.07-0.22 1.4 0.22 0.32 0.45 0.22 1.08-0.22 1.4-0.18 0.13-0.39 0.189-0.59 0.189-0.31 0.001-0.621-0.139-0.81-0.409zm35.379-2.02c-0.399-0.37-0.43-1.01-0.05-1.41h-0.01c0.38-0.41 1.01-0.439 1.42-0.06 0.41 0.37 0.43 1.01 0.061 1.41-0.2 0.22-0.471 0.319-0.74 0.319-0.241 0.001-0.481-0.079-0.681-0.259zm-36.72-2.05c-0.16-0.53 0.15-1.08 0.68-1.24s1.08 0.15 1.24 0.68c0.15 0.53-0.15 1.08-0.68 1.24-0.09 0.03-0.19 0.04-0.28 0.04-0.43 0-0.829-0.281-0.96-0.72zm39.311-1c-0.471-0.3-0.601-0.92-0.301-1.38 0.301-0.471 0.921-0.601 1.381-0.3 0.47 0.3 0.6 0.92 0.3 1.38-0.19 0.3-0.51 0.46-0.84 0.46-0.191 0-0.381-0.051-0.54-0.16zm-41.001-2.49c-0.22-0.51 0.02-1.09 0.53-1.31 0.51-0.221 1.09 0.02 1.31 0.529 0.21 0.511-0.02 1.101-0.53 1.311-0.13 0.05-0.26 0.08-0.39 0.08-0.389 0-0.76-0.23-0.92-0.61zm43.02-0.96c-0.52-0.21-0.76-0.8-0.55-1.31 0.2-0.511 0.79-0.75 1.3-0.551 0.51 0.21 0.76 0.801 0.55 1.311-0.16 0.39-0.529 0.62-0.93 0.62-0.12 0-0.25-0.02-0.37-0.07zm-44.3-2.941c-0.15-0.529 0.16-1.079 0.69-1.22 0.54-0.149 1.09 0.16 1.23 0.69 0.15 0.529-0.16 1.08-0.69 1.229-0.09 0.03-0.18 0.04-0.27 0.04-0.44 0.002-0.839-0.288-0.96-0.739zm-3.629-0.199c-0.18-0.53 0.09-1.101 0.61-1.28 0.52-0.18 1.09 0.09 1.28 0.61 0.18 0.52-0.09 1.09-0.61 1.279-0.11 0.03-0.22 0.051-0.33 0.051-0.421 0-0.801-0.25-0.95-0.66zm49.25-0.64c-0.55-0.1-0.9-0.62-0.8-1.16 0.1-0.55 0.619-0.899 1.17-0.8 0.54 0.101 0.899 0.62 0.8 1.17-0.09 0.48-0.51 0.811-0.99 0.811-0.06-0.001-0.121-0.001-0.18-0.021zm-47.531-2.48c-0.48-0.271-0.66-0.88-0.39-1.36 0.27-0.49 0.87-0.66 1.36-0.399 0.48 0.27 0.66 0.869 0.39 1.359-0.18 0.33-0.52 0.521-0.87 0.521-0.169-0.001-0.33-0.041-0.49-0.121zm47.89-1.5c-0.529-0.17-0.819-0.72-0.659-1.25 0.149-0.53 0.71-0.83 1.239-0.67 0.53 0.16 0.83 0.72 0.67 1.25-0.13 0.43-0.529 0.71-0.96 0.71-0.09 0-0.189-0.02-0.29-0.04zm-46.01-2.04c-0.52-0.2-0.78-0.771-0.59-1.29 0.2-0.521 0.77-0.78 1.29-0.59 0.51 0.189 0.78 0.77 0.59 1.29-0.15 0.399-0.54 0.649-0.94 0.649-0.12 0.001-0.239-0.019-0.35-0.059zm47.611-1.63c-0.53-0.15-0.84-0.7-0.69-1.24 0.15-0.53 0.71-0.83 1.24-0.68s0.84 0.7 0.69 1.23c-0.131 0.44-0.53 0.73-0.971 0.73-0.09 0-0.18-0.011-0.269-0.04zm8.29-1.79c-0.15-0.54 0.149-1.09 0.689-1.24 0.53-0.15 1.08 0.16 1.23 0.69 0.149 0.53-0.15 1.08-0.69 1.24-0.09 0.02-0.18 0.03-0.27 0.03-0.44 0-0.839-0.28-0.959-0.72zm-56.351-1.16c-0.13-0.53 0.19-1.08 0.72-1.22s1.08 0.19 1.22 0.72-0.18 1.08-0.72 1.22c-0.08 0.02-0.17 0.03-0.25 0.03-0.44 0-0.849-0.3-0.97-0.75zm52.96 0c-0.26-0.48-0.079-1.09 0.4-1.35 0.49-0.27 1.09-0.09 1.36 0.4 0.26 0.48 0.08 1.09-0.4 1.35-0.16 0.09-0.32 0.13-0.479 0.13-0.361 0-0.7-0.19-0.881-0.53zm-4.199-1c-0.511-0.23-0.73-0.82-0.5-1.32v-0.01c0.22-0.5 0.819-0.72 1.319-0.49 0.5 0.22 0.73 0.82 0.5 1.32-0.17 0.37-0.529 0.59-0.91 0.59-0.14 0-0.279-0.03-0.409-0.09zm8.8-0.69c-0.23-0.5 0-1.09 0.51-1.32v0.01c0.5-0.23 1.09 0 1.32 0.5 0.22 0.51-0.01 1.1-0.51 1.32-0.131 0.06-0.271 0.09-0.41 0.09-0.38 0-0.75-0.22-0.91-0.6zm-6.26-2.04c-0.061-0.54 0.34-1.04 0.89-1.1s1.04 0.33 1.1 0.88c0.061 0.55-0.33 1.04-0.88 1.11h-0.109c-0.512 0-0.942-0.38-1.001-0.89zm-52.381-0.13c-0.13-0.54 0.2-1.08 0.73-1.21 0.54-0.13 1.08 0.19 1.21 0.73 0.14 0.53-0.19 1.08-0.73 1.21-0.08 0.02-0.16 0.03-0.24 0.03-0.45 0-0.849-0.3-0.97-0.76zm61.78-0.24c-0.53-0.15-0.84-0.7-0.689-1.23 0.149-0.53 0.71-0.84 1.239-0.69 0.53 0.15 0.841 0.7 0.69 1.24-0.13 0.44-0.53 0.72-0.96 0.72-0.099 0-0.19-0.01-0.28-0.04zm-61.32-2.96c-0.55-0.06-0.96-0.54-0.9-1.09 0.05-0.55 0.53-0.96 1.09-0.9 0.55 0.05 0.95 0.54 0.9 1.09-0.05 0.51-0.49 0.9-1 0.9h-0.09zm60.4-1.68c-0.149-0.53 0.16-1.08 0.7-1.23 0.53-0.15 1.08 0.16 1.229 0.69 0.15 0.54-0.159 1.09-0.689 1.24-0.101 0.02-0.19 0.03-0.28 0.03-0.429 0-0.83-0.29-0.96-0.73zm-12.649-2.07c-0.2-0.51 0.039-1.09 0.56-1.3 0.51-0.21 1.09 0.04 1.3 0.55s-0.04 1.1-0.55 1.3c-0.12 0.05-0.25 0.08-0.38 0.08-0.391 0-0.771-0.24-0.93-0.63zm-46.78-0.1c-0.44-0.34-0.53-0.96-0.2-1.41 0.32-0.44 0.95-0.53 1.39-0.2 0.45 0.33 0.54 0.96 0.21 1.4-0.2 0.26-0.5 0.4-0.8 0.4-0.211 0-0.421-0.06-0.6-0.19zm44.589-0.52c-0.521-0.18-0.81-0.74-0.64-1.26 0.18-0.53 0.739-0.81 1.27-0.64h-0.01c0.53 0.17 0.82 0.73 0.64 1.26-0.13 0.42-0.53 0.69-0.95 0.69-0.1 0-0.21-0.02-0.31-0.05zm-7.99-0.96c-0.109-0.55 0.25-1.07 0.8-1.17 0.54-0.1 1.061 0.26 1.16 0.8 0.101 0.54-0.25 1.06-0.8 1.17-0.06 0.01-0.12 0.01-0.18 0.01-0.47 0-0.89-0.33-0.98-0.81zm21.34 0.23c-0.279-0.47-0.12-1.09 0.36-1.37 0.47-0.28 1.09-0.12 1.37 0.36 0.28 0.47 0.12 1.09-0.36 1.37-0.16 0.09-0.33 0.14-0.5 0.14-0.349 0-0.68-0.18-0.87-0.5zm-17.06 0.35c-0.55-0.03-0.98-0.51-0.94-1.06 0.03-0.55 0.5-0.97 1.051-0.94 0.55 0.03 0.97 0.51 0.939 1.06-0.03 0.53-0.47 0.94-1 0.94h-0.05zm8.77-1.34c-0.439-0.33-0.529-0.96-0.199-1.4s0.96-0.53 1.399-0.2c0.44 0.33 0.53 0.96 0.2 1.4-0.2 0.26-0.5 0.4-0.8 0.4-0.209 0-0.419-0.06-0.6-0.2zm7.2-0.62c-0.03-0.04-0.05-0.08-0.08-0.12-0.029-0.03-0.06-0.06-0.08-0.09-0.35-0.43-0.279-1.06 0.15-1.41 0.43-0.34 1.05-0.28 1.4 0.15 0.029 0.04 0.06 0.08 0.079 0.12 0.03 0.03 0.07 0.06 0.091 0.1 0.35 0.43 0.279 1.06-0.15 1.4-0.18 0.15-0.41 0.22-0.62 0.22-0.3 0-0.59-0.13-0.79-0.37zm-54.2-0.13c-0.33-0.44-0.23-1.07 0.21-1.4 0.45-0.33 1.07-0.23 1.4 0.21 0.33 0.45 0.23 1.07-0.21 1.4-0.18 0.13-0.39 0.2-0.59 0.2-0.31 0-0.61-0.14-0.81-0.41zm50.12-1.62c-0.069-0.55 0.32-1.05 0.87-1.11 0.55-0.07 1.05 0.32 1.11 0.87 0.069 0.55-0.32 1.05-0.87 1.12v-0.01c-0.04 0.01-0.08 0.01-0.12 0.01-0.5 0-0.929-0.37-0.99-0.88zm-17.43-0.3c-0.271-0.49-0.1-1.1 0.38-1.37s1.09-0.1 1.36 0.38 0.1 1.09-0.38 1.36c-0.15 0.09-0.32 0.13-0.49 0.13-0.35 0-0.69-0.18-0.87-0.5zm-29.359-0.29c-0.25-0.5-0.06-1.1 0.43-1.35 0.48-0.26 1.09-0.07 1.34 0.42 0.26 0.49 0.07 1.09-0.42 1.35-0.15 0.08-0.31 0.11-0.46 0.11-0.361 0-0.711-0.19-0.89-0.53zm3.589-1.77c-0.23-0.51 0-1.1 0.5-1.33 0.5-0.22 1.09 0 1.32 0.5s0.01 1.1-0.5 1.33c-0.13 0.06-0.27 0.08-0.41 0.08-0.38 0-0.74-0.21-0.91-0.58zm23.471-0.73c-0.431-0.35-0.49-0.98-0.141-1.41 0.351-0.42 0.98-0.48 1.41-0.13 0.431 0.35 0.49 0.98 0.141 1.41-0.2 0.24-0.49 0.36-0.78 0.36-0.22 0-0.451-0.08-0.63-0.23zm-22.241-2.1c-0.15-0.53 0.16-1.08 0.69-1.23s1.08 0.16 1.24 0.69c0.14 0.54-0.17 1.09-0.7 1.24-0.09 0.02-0.18 0.03-0.27 0.03-0.44 0-0.84-0.29-0.96-0.73zm6.471-0.19c-0.13-0.54 0.2-1.08 0.73-1.21 0.54-0.13 1.08 0.19 1.21 0.73s-0.2 1.08-0.73 1.21c-0.08 0.02-0.16 0.03-0.24 0.03-0.45 0-0.861-0.31-0.97-0.76zm12.619 0.71c-0.54-0.14-0.859-0.69-0.729-1.22 0.14-0.54 0.689-0.86 1.22-0.72 0.54 0.13 0.86 0.68 0.72 1.22-0.12 0.45-0.52 0.75-0.97 0.75-0.081 0-0.161-0.01-0.241-0.03zm-15.82-0.87c-0.31-0.46-0.19-1.08 0.26-1.39 0.46-0.31 1.08-0.19 1.39 0.26 0.31 0.46 0.19 1.08-0.26 1.39-0.17 0.12-0.37 0.18-0.56 0.18-0.32 0-0.64-0.16-0.83-0.44zm7.13-0.61c-0.05-0.55 0.37-1.03 0.92-1.07s1.03 0.37 1.07 0.92-0.37 1.03-0.92 1.07c-0.03 0.01-0.05 0.01-0.08 0.01-0.52 0-0.959-0.4-0.99-0.93zm4.921 0.9c-0.551-0.04-0.971-0.51-0.931-1.07 0.03-0.55 0.511-0.96 1.061-0.93 0.55 0.04 0.97 0.51 0.93 1.06-0.03 0.53-0.47 0.94-0.99 0.94h-0.07zm-16.401-3.79c-0.15-0.53 0.17-1.08 0.7-1.23s1.08 0.16 1.23 0.69-0.16 1.08-0.69 1.23c-0.09 0.03-0.18 0.04-0.27 0.04-0.439 0-0.84-0.29-0.97-0.73zm2.41-0.22c-0.21-0.5 0.03-1.09 0.54-1.3 0.51-0.22 1.09 0.02 1.31 0.53 0.21 0.51-0.03 1.1-0.54 1.31-0.12 0.05-0.26 0.08-0.38 0.08-0.4 0-0.769-0.23-0.93-0.62zm-4.04-2.35c-0.46-0.31-0.58-0.93-0.27-1.39 0.3-0.46 0.92-0.58 1.38-0.27 0.46 0.3 0.59 0.92 0.28 1.38-0.19 0.29-0.51 0.45-0.83 0.45-0.189 0-0.39-0.06-0.56-0.17zm3.3-0.82c-0.45-0.31-0.56-0.93-0.25-1.39 0.32-0.45 0.94-0.56 1.39-0.25 0.46 0.32 0.57 0.94 0.25 1.39v0.01c-0.19 0.27-0.5 0.42-0.82 0.42-0.2 0-0.399-0.06-0.57-0.18zm-4.119-2.65c-0.48-0.28-0.64-0.9-0.35-1.37 0.27-0.48 0.89-0.64 1.36-0.36 0.48 0.28 0.64 0.9 0.36 1.37-0.19 0.32-0.52 0.49-0.86 0.49-0.181 0-0.351-0.04-0.51-0.13zm3.42-0.87c-0.46-0.3-0.58-0.92-0.27-1.38s0.93-0.58 1.39-0.28h-0.01c0.46 0.31 0.59 0.93 0.28 1.39-0.19 0.29-0.51 0.44-0.83 0.44-0.19 0-0.391-0.05-0.56-0.17z"/>
</g>
</svg>
