<?xml version="1.0" encoding="utf-8"?>
<!-- Generator: Adobe Illustrator 16.0.0, SVG Export Plug-In . SVG Version: 6.00 Build 0)  -->
<!DOCTYPE svg PUBLIC "-//W3C//DTD SVG 1.1//EN" "http://www.w3.org/Graphics/SVG/1.1/DTD/svg11.dtd">
<svg version="1.1" id="Layer_1" xmlns="http://www.w3.org/2000/svg" xmlns:xlink="http://www.w3.org/1999/xlink" x="0px" y="0px"
	 width="99.869px" height="99.868px" viewBox="0 0 99.869 99.868" enable-background="new 0 0 99.869 99.868" xml:space="preserve">
<g opacity="0.7">
	<g>
		<g>
			
				<circle fill="none" stroke="#636363" stroke-width="4" stroke-linecap="round" stroke-miterlimit="10" stroke-dasharray="0,4.0147" cx="49.935" cy="49.934" r="47.935"/>
		</g>
	</g>
	<g>
		<g>
			
				<circle fill="none" stroke="#636363" stroke-width="2" stroke-linecap="round" stroke-miterlimit="10" stroke-dasharray="0,3.9838" cx="49.935" cy="49.934" r="41.224"/>
		</g>
	</g>
	<path fill="none" stroke="#636363" stroke-width="2" stroke-linecap="round" stroke-miterlimit="10" stroke-dasharray="0,4" d="
		M83.649,33.704c-1.451-1.798-5.701-1.139-7.072,0.476c-0.426,0.521-0.742,1.11-1.047,1.709c-0.434,0.851-0.398,1.029-1.27,1.149
		c-0.472,0.065-0.898,0.324-0.955,0.828c-0.186-0.02-0.781-0.983-0.904-1.109c-0.846-0.875-1.872-1.049-3.043-1.049
		c-1.821-0.122-3.94-0.657-5.503,0.582c-0.539-3.963-3.241-7.945-7.176-9.043c-2.326-0.649-4.796-0.825-7.202-0.737
		c-1.369,0.05-2.734,0.196-4.081,0.44c-0.618,0.112-3.156,0.775-3.481,0.879c-1.333-1.702-1.921-2.858-2.774-4.911
		c-0.301-0.726-1.32-2.25-1.265-3.045c1.616-1.653,0.234-4.5-2.062-4.239c-1.944,0.218-2.907,2.591-1.647,4.101
		c1.187,1.421,1.772,0.413,2.282,2.24c0.674,2.414,1.348,4.828,2.021,7.241c-0.522,0.228-1.703,0.417-1.571,0.697
		c-3.778,1.707-8.33,3.738-10.609,7.405c-2.465,3.967,0.232,8.376,0.883,12.447c-0.238,2.668-2.426,5.833-3.574,8.215
		c-0.439,2.563,1.621,2.089,3.702,1.506c0.47,2.095,1.244,4.119,2.3,5.989c0.701,1.24,0.73,1.554,0.889,2.864
		c0.125,1.032,0.644,2,1.331,2.767c0.752,0.839,1.775,1.525,2.909,1.69c0.602,0.61,1.25,1.177,1.937,1.689
		c1.639,1.222,3.505,2.124,5.481,2.649c8.652,2.3,18.358-2.173,24.274-8.392c2.569-2.702,4.524-5.995,5.437-9.624
		c0.34-1.351,0.539-2.741,0.561-4.135c0.026-1.724,1.552-3.337,1.865-5.184c0.152-0.891,0.246-1.795,0.477-2.671
		c0.501-1.899,0.789-0.807,2.103-1.338c0.909-0.369,0.569-1.474,1.548-1.298c0.891,0.16,0.854,2.259,1.115,3.019
		c0.564,1.611,2.914,2.327,4.342,1.351c1.346-0.472-0.741-2.182,0.262-2.566c1.576-0.603,2.743-2.298,2.834-3.957
		C87.124,39.401,85.464,35.954,83.649,33.704C82.876,32.745,84.897,35.251,83.649,33.704z"/>
</g>
</svg>
