<?xml version="1.0" encoding="utf-8"?>
<!-- Generator: Adobe Illustrator 16.0.0, SVG Export Plug-In . SVG Version: 6.00 Build 0)  -->
<!DOCTYPE svg PUBLIC "-//W3C//DTD SVG 1.1//EN" "http://www.w3.org/Graphics/SVG/1.1/DTD/svg11.dtd">
<svg version="1.1" id="Layer_1" xmlns="http://www.w3.org/2000/svg" xmlns:xlink="http://www.w3.org/1999/xlink" 
	 viewBox="0 0 197.193 264.195" enable-background="new 0 0 197.193 264.195"
	 xml:space="preserve">
<g>
	<g opacity="0.2">
		<path fill="#183049" d="M197.193,228.154c0,5.5-4.272,11.414-9.494,13.141l-65.373,21.629c-5.222,1.729-13.753,1.689-18.959-0.086
			l-62.909-21.455c-5.206-1.774-9.47-7.729-9.477-13.229l-0.059-47.806c-0.006-5.5-4.326-11.276-9.602-12.836l-1.107-0.328
			c-5.273-1.561-11.219-7.03-13.21-12.157l-5.481-14.114c-1.991-5.127-2.035-13.533-0.1-18.681l5.681-15.092
			c1.937-5.147,7.937-10.23,13.333-11.294l0.664-0.132c5.396-1.062,9.816-6.435,9.822-11.935l0.059-47.741
			c0.007-5.5,4.271-11.452,9.477-13.228l62.909-21.455c5.205-1.775,13.737-1.814,18.959-0.087l65.373,21.629
			c5.222,1.728,9.494,7.641,9.494,13.141V228.154z"/>
	</g>
	<g>
		<g>
			
				<radialGradient id="SVGID_1_" cx="46.803" cy="157.1951" r="32.7632" gradientTransform="matrix(1 0 0 -1 -8.3599 288.2495)" gradientUnits="userSpaceOnUse">
				<stop  offset="0" style="stop-color:#E2BD47"/>
				<stop  offset="1" style="stop-color:#D79C32"/>
			</radialGradient>
			<polygon fill="url(#SVGID_1_)" points="70.469,131.15 71.15,132.67 69.821,134.076 69.963,135.572 70.43,137.164 69.555,138.51 
				68.983,139.892 68.392,141.248 68.699,142.941 67.424,144.026 67.077,145.498 66.812,147.052 65.339,147.914 65.079,149.52 
				63.775,150.416 62.889,151.598 61.928,152.723 60.711,153.596 59.654,154.615 59.05,156.183 57.971,157.247 56.27,157.437 
				55.348,158.741 54.295,159.927 52.754,160.246 51.141,160.309 50.139,161.797 48.549,161.827 47.071,162.093 45.644,162.506 
				44.209,162.922 42.646,162.526 41.301,163.874 39.754,163.299 38.267,163.473 36.804,162.785 35.243,163.783 33.813,163.07 
				32.243,163.374 30.871,162.59 29.438,162.182 27.818,162.32 26.65,161.131 25.241,160.647 23.736,160.328 22.621,159.236 
				21.242,158.644 20.318,157.351 18.962,156.712 17.326,156.364 16.894,154.592 15.334,154.079 14.131,153.149 13.434,151.768 
				12.948,150.267 11.88,149.224 11.054,147.998 10.315,146.718 9.135,145.656 8.764,144.176 8.097,142.839 8.16,141.241 
				7.604,139.876 6.555,138.61 6.187,137.148 6.703,135.556 6.413,134.104 6.345,132.627 6.315,131.15 5.782,129.647 5.736,128.135 
				5.758,126.615 5.938,125.107 6.404,123.655 7.224,122.316 7.664,120.892 8.195,119.499 8.995,118.225 9.129,116.64 9.82,115.305 
				10.419,113.905 11.079,112.524 12.775,111.899 13.656,110.712 14.457,109.443 15.278,108.159 16.208,106.951 17.906,106.629 
				18.549,105.037 20.088,104.611 21.121,103.459 22.508,102.857 23.615,101.724 25.456,102.135 26.683,101.25 28.001,100.523 
				29.305,99.655 30.953,100.062 32.406,99.812 33.764,98.879 35.253,98.649 36.772,98.85 38.267,98.454 39.789,98.235 
				41.221,99.288 42.799,98.669 44.152,99.677 45.524,100.302 47.254,99.568 48.729,99.942 50.112,100.582 51.229,101.799 
				52.588,102.395 54.205,102.541 54.992,104.141 56.493,104.547 57.61,105.539 59.173,105.979 60.17,107.128 61.288,108.133 
				61.972,109.545 63.126,110.51 64.214,111.559 64.956,112.871 65.598,114.229 66.108,115.645 67.083,116.802 67.631,118.186 
				67.839,119.694 68.673,120.959 69.135,122.368 69.429,123.82 70.291,125.164 70.615,126.639 70.353,128.176 69.908,129.687 			
				"/>
			<polygon fill="none" stroke="#876612" stroke-width="3" stroke-miterlimit="10" points="70.469,131.15 71.15,132.67 
				69.821,134.076 69.963,135.572 70.43,137.164 69.555,138.51 68.983,139.892 68.392,141.248 68.699,142.941 67.424,144.026 
				67.077,145.498 66.812,147.052 65.339,147.914 65.079,149.52 63.775,150.416 62.889,151.598 61.928,152.723 60.711,153.596 
				59.654,154.615 59.05,156.183 57.971,157.247 56.27,157.437 55.348,158.741 54.295,159.927 52.754,160.246 51.141,160.309 
				50.139,161.797 48.549,161.827 47.071,162.093 45.644,162.506 44.209,162.922 42.646,162.526 41.301,163.874 39.754,163.299 
				38.267,163.473 36.804,162.785 35.243,163.783 33.813,163.07 32.243,163.374 30.871,162.59 29.438,162.182 27.818,162.32 
				26.65,161.131 25.241,160.647 23.736,160.328 22.621,159.236 21.242,158.644 20.318,157.351 18.962,156.712 17.326,156.364 
				16.894,154.592 15.334,154.079 14.131,153.149 13.434,151.768 12.948,150.267 11.88,149.224 11.054,147.998 10.315,146.718 
				9.135,145.656 8.764,144.176 8.097,142.839 8.16,141.241 7.604,139.876 6.555,138.61 6.187,137.148 6.703,135.556 6.413,134.104 
				6.345,132.627 6.315,131.15 5.782,129.647 5.736,128.135 5.758,126.615 5.938,125.107 6.404,123.655 7.224,122.316 
				7.664,120.892 8.195,119.499 8.995,118.225 9.129,116.64 9.82,115.305 10.419,113.905 11.079,112.524 12.775,111.899 
				13.656,110.712 14.457,109.443 15.278,108.159 16.208,106.951 17.906,106.629 18.549,105.037 20.088,104.611 21.121,103.459 
				22.508,102.857 23.615,101.724 25.456,102.135 26.683,101.25 28.001,100.523 29.305,99.655 30.953,100.062 32.406,99.812 
				33.764,98.879 35.253,98.649 36.772,98.85 38.267,98.454 39.789,98.235 41.221,99.288 42.799,98.669 44.152,99.677 
				45.524,100.302 47.254,99.568 48.729,99.942 50.112,100.582 51.229,101.799 52.588,102.395 54.205,102.541 54.992,104.141 
				56.493,104.547 57.61,105.539 59.173,105.979 60.17,107.128 61.288,108.133 61.972,109.545 63.126,110.51 64.214,111.559 
				64.956,112.871 65.598,114.229 66.108,115.645 67.083,116.802 67.631,118.186 67.839,119.694 68.673,120.959 69.135,122.368 
				69.429,123.82 70.291,125.164 70.615,126.639 70.353,128.176 69.908,129.687 			"/>
		</g>
		
			<radialGradient id="SVGID_2_" cx="45.7668" cy="156.821" r="31.6614" gradientTransform="matrix(1 0 0 -1 -8.3599 288.2495)" gradientUnits="userSpaceOnUse">
			<stop  offset="0" style="stop-color:#EDD494"/>
			<stop  offset="1" style="stop-color:#EDD494;stop-opacity:0"/>
		</radialGradient>
		<path fill="url(#SVGID_2_)" d="M32.569,145.34c0.271,4.416-2.951,9.828-5.308,13.49c1.407-3.622,3.473-7.48,4.12-11.33
			c-2.047,1.797-3.645,4.524-4.998,6.976c0.265-0.736,0.409-1.562,0.675-2.299c-1.894,1.375-3.893,3.245-5.804,4.824
			c1.95-4.335,5.237-8.282,7.3-12.646c-2.865,1.958-5.492,4.508-8.824,5.637c0.91-0.915,1.527-2.227,2.34-3.14
			c-2.53,1.035-5.291,2.015-8.108,2.132c2.587-0.916,5.146-2.551,6.419-4.789c-1.688,0.955-3.557,1.873-5.49,2.302
			c1.737-1.426,3.807-3.075,5.011-4.806c-2.283,0.713-4.809,1.365-7.162,1.881c1.18-0.791,2.006-1.912,3.037-2.746
			c-1.638,0.314-3.815,0.941-5.663,1.155c3.577-1.999,7.642-3.216,11.077-5.486c-4.344,0.833-8.758,1.079-13.08,1.86
			c4.374-1.738,8.916-3.065,13.116-5.182c-2.86-0.617-6.729,0.456-9.959-0.122c2.045-0.354,4.171-0.705,6.146-1.37
			c-0.734-0.371-1.812-1.06-2.765-1.324c0.446,0.165,1.394,0.287,1.753,0.484c0.165-0.003,0.179-0.005,0.041-0.003
			c-2.38-0.223-4.535-1.507-6.369-2.966c4.525,0.035,9.045-1.596,13.487-2.409c-3.527-2.324-7.686-4.681-10.938-7.432
			c3.799,0.946,7.481,3.216,11.438,3.772c-2.411-2.379-4.459-5.615-5.313-8.93c1.744,2.293,4.144,4.142,6.966,4.789
			c-1.882-2.8-3.326-6.337-3.799-9.687c1.521,2.204,2.593,5.021,4.835,6.39c0.785-2.335,0.139-5.062,0.187-7.675
			c1.151,3.335,2.174,7.101,3.27,10.295c0.412-2.787-0.505-5.812-0.93-8.472c0.3,4.854,1.695,9.534,3.307,14.098
			c-1.664-1.126-3.037-2.637-4.021-4.392c0.254,0.669,0.492,1.28,0.803,1.932c-0.929-0.69-2.182-1.223-3.095-2.132
			c0.794,0.968,1.394,2.498,2.132,3.637c-1.025-0.73-2.354-1.273-3.315-2.141c1.441,1.574,3.001,3.252,3.757,5.336
			c-1.536-0.928-3.347-1.579-4.924-2.152c1.485,1.746,3.203,3.548,4.607,5.441c-2.469-0.104-5.062,0.233-7.229,1.371
			c2.02-0.012,4.039-0.005,6.058-0.021c-1.506,0.734-2.959,1.71-4.565,2.312c1.146,0.015,2.026,0.429,3.065,0.534
			c-2.021,0.806-4.03,1.756-5.907,2.795c2.166-0.271,4.387-0.563,6.599-0.438c-1.997,2.1-5.154,3.846-7.261,6.283
			c1.52-0.477,3.411-0.619,4.914-1.115c-1.192,0.748-2.091,1.849-3.164,2.647c0.442-0.102,1.344-0.19,1.988-0.355
			c-0.755,0.546-1.445,1.306-2.105,1.824c1.058-0.373,2.563-0.395,3.642-0.783c-1.065,0.865-2.07,2.323-3.193,3.153
			c3.451-0.445,6.609-3.152,9.851-4.615c-0.971,1.423-1.888,3.425-2.127,5.266c1.597-1.397,3.126-3.019,4.619-4.479
			c-0.592,0.98-0.458,2.099-0.803,3.148"/>
		<g>
			<g>
				<g>
					<line fill="none" x1="38.267" y1="131.15" x2="38.265" y2="105.214"/>
					<polygon fill="#876612" points="37.767,131.15 38.265,105.214 38.767,131.15 					"/>
				</g>
				<g>
					<line fill="none" x1="38.267" y1="131.15" x2="43.717" y2="114.609"/>
					<polygon fill="#876612" points="37.792,130.994 43.717,114.609 38.741,131.307 					"/>
				</g>
				<g>
					<line fill="none" x1="38.267" y1="131.15" x2="59.422" y2="125.543"/>
					<polygon fill="#876612" points="38.139,130.667 59.422,125.543 38.395,131.634 					"/>
				</g>
				<g>
					<line fill="none" x1="38.267" y1="131.15" x2="21.33" y2="130.701"/>
					<polygon fill="#876612" points="38.254,131.65 21.33,130.701 38.279,130.65 					"/>
				</g>
				<g>
					<line fill="none" x1="38.267" y1="131.15" x2="21.364" y2="142.763"/>
					<polygon fill="#876612" points="38.55,131.562 21.364,142.763 37.983,130.738 					"/>
				</g>
				<g>
					<line fill="none" x1="38.267" y1="131.15" x2="31.812" y2="118.832"/>
					<polygon fill="#876612" points="37.824,131.383 31.812,118.832 38.709,130.918 					"/>
				</g>
				<g>
					<line fill="none" x1="38.267" y1="131.15" x2="52.32" y2="143.834"/>
					<polygon fill="#876612" points="38.602,130.779 52.32,143.834 37.932,131.521 					"/>
				</g>
				<g>
					<line fill="none" x1="38.267" y1="131.151" x2="34.387" y2="155.71"/>
					<polygon fill="#876612" points="38.761,131.229 34.387,155.71 37.772,131.073 					"/>
				</g>
				<g>
					<line fill="none" x1="38.267" y1="131.15" x2="13.78" y2="142.106"/>
					<polygon fill="#876612" points="38.471,131.606 13.78,142.106 38.062,130.694 					"/>
				</g>
				<g>
					<line fill="none" x1="38.267" y1="131.15" x2="16.468" y2="117.096"/>
					<polygon fill="#876612" points="37.996,131.57 16.468,117.096 38.537,130.73 					"/>
				</g>
			</g>
			<g>
				<g>
					<line fill="none" x1="38.266" y1="131.15" x2="25.249" y2="153.584"/>
					<polygon fill="#876612" points="38.698,131.401 25.249,153.584 37.833,130.899 					"/>
				</g>
				<g>
					<line fill="none" x1="38.266" y1="131.15" x2="25.249" y2="142.721"/>
					<polygon fill="#876612" points="38.598,131.524 25.249,142.721 37.934,130.776 					"/>
				</g>
				<g>
					<line fill="none" x1="38.266" y1="131.15" x2="17.153" y2="125.383"/>
					<polygon fill="#876612" points="38.134,131.633 17.153,125.383 38.397,130.668 					"/>
				</g>
				<g>
					<line fill="none" x1="38.266" y1="131.15" x2="52.688" y2="140.038"/>
					<polygon fill="#876612" points="38.527,130.725 52.688,140.038 38.004,131.576 					"/>
				</g>
				<g>
					<line fill="none" x1="38.266" y1="131.15" x2="58.713" y2="129.59"/>
					<polygon fill="#876612" points="38.228,130.652 58.713,129.59 38.304,131.648 					"/>
				</g>
				<g>
					<line fill="none" x1="38.266" y1="131.15" x2="37.665" y2="145.045"/>
					<polygon fill="#876612" points="38.766,131.172 37.665,145.045 37.766,131.129 					"/>
				</g>
				<g>
					<line fill="none" x1="38.266" y1="131.15" x2="32.476" y2="113.125"/>
					<polygon fill="#876612" points="37.789,131.302 32.476,113.125 38.742,130.998 					"/>
				</g>
				<g>
					<line fill="none" x1="38.266" y1="131.149" x2="53.948" y2="111.855"/>
					<polygon fill="#876612" points="37.878,130.834 53.948,111.855 38.653,131.465 					"/>
				</g>
				<g>
					<line fill="none" x1="38.266" y1="131.15" x2="64.943" y2="133.965"/>
					<polygon fill="#876612" points="38.318,130.653 64.943,133.965 38.213,131.647 					"/>
				</g>
				<g>
					<line fill="none" x1="38.266" y1="131.15" x2="50.065" y2="154.246"/>
					<polygon fill="#876612" points="38.711,130.923 50.065,154.246 37.82,131.378 					"/>
				</g>
			</g>
		</g>
		<g>
			<g>
				<line fill="none" x1="11.167" y1="139.199" x2="28.121" y2="133.143"/>
				<path fill="#876612" d="M11.167,139.199c0,0,1.033-0.453,2.603-1.078c0.788-0.304,1.7-0.678,2.688-1.042
					c0.99-0.365,2.046-0.754,3.103-1.144c1.062-0.368,2.127-0.736,3.124-1.081c0.996-0.348,1.938-0.635,2.74-0.897
					c1.609-0.512,2.696-0.813,2.696-0.813s-1.032,0.454-2.602,1.079c-0.788,0.303-1.699,0.679-2.689,1.042s-2.046,0.754-3.103,1.143
					c-1.062,0.367-2.126,0.735-3.123,1.08c-0.997,0.346-1.939,0.634-2.741,0.897C12.253,138.896,11.167,139.199,11.167,139.199z"/>
			</g>
			<g>
				<line fill="none" x1="15.917" y1="113.125" x2="31.542" y2="124.964"/>
				<path fill="#876612" d="M15.917,113.125c0,0,1.024,0.676,2.526,1.738c0.744,0.538,1.627,1.147,2.548,1.835
					c0.922,0.686,1.905,1.416,2.889,2.146c0.972,0.748,1.939,1.497,2.851,2.199c0.91,0.7,1.735,1.387,2.456,1.957
					c1.429,1.158,2.355,1.962,2.355,1.962s-1.024-0.676-2.525-1.736c-0.745-0.539-1.628-1.148-2.549-1.836
					c-0.922-0.687-1.905-1.416-2.889-2.147c-0.97-0.749-1.938-1.497-2.849-2.2c-0.91-0.701-1.736-1.385-2.457-1.957
					C16.846,113.929,15.917,113.125,15.917,113.125z"/>
			</g>
			<g>
				<line fill="none" x1="12.086" y1="119.725" x2="24.329" y2="126.096"/>
				<path fill="#876612" d="M12.086,119.725c0,0,0.803,0.326,1.979,0.871c1.175,0.545,2.729,1.294,4.26,2.093
					c1.531,0.794,3.037,1.637,4.158,2.287c1.119,0.649,1.848,1.12,1.848,1.12s-0.803-0.327-1.978-0.871
					c-1.177-0.544-2.73-1.294-4.261-2.094c-1.53-0.794-3.036-1.638-4.156-2.287C12.814,120.193,12.086,119.725,12.086,119.725z"/>
			</g>
			<g>
				<line fill="none" x1="21.667" y1="128.729" x2="10.542" y2="127.131"/>
				<path fill="#876612" d="M21.667,128.729c0,0-0.707-0.021-1.758-0.111c-1.052-0.091-2.45-0.238-3.84-0.44
					c-1.393-0.195-2.774-0.447-3.81-0.656c-1.034-0.209-1.719-0.39-1.719-0.39s0.707,0.021,1.758,0.11
					c1.053,0.091,2.45,0.238,3.841,0.441c1.392,0.195,2.773,0.448,3.809,0.656C20.983,128.55,21.667,128.729,21.667,128.729z"/>
			</g>
			<g>
				<line fill="none" x1="24.329" y1="106.715" x2="29.042" y2="114.777"/>
				<path fill="#876612" d="M24.329,106.715c0,0,0.363,0.465,0.857,1.189c0.492,0.726,1.128,1.707,1.715,2.716
					c0.592,1.007,1.136,2.04,1.524,2.826c0.392,0.786,0.615,1.331,0.615,1.331s-0.364-0.463-0.856-1.188
					c-0.494-0.726-1.128-1.708-1.715-2.717c-0.593-1.007-1.136-2.041-1.525-2.827C24.555,107.259,24.329,106.715,24.329,106.715z"/>
			</g>
			<g>
				<line fill="none" x1="18.917" y1="153.584" x2="28.104" y2="142.367"/>
				<path fill="#876612" d="M18.917,153.584c0,0,0.514-0.752,1.327-1.842c0.815-1.089,1.923-2.524,3.073-3.925
					c1.146-1.404,2.335-2.772,3.242-3.786s1.545-1.664,1.545-1.664s-0.513,0.752-1.326,1.842c-0.815,1.09-1.924,2.524-3.074,3.925
					c-1.146,1.404-2.336,2.772-3.243,3.786C19.553,152.934,18.917,153.584,18.917,153.584z"/>
			</g>
		</g>
		<path opacity="0.6" fill="#876612" enable-background="new    " d="M68.796,136.925l-0.325-1.211l-0.206-2.174l1.106-1.172
			l-0.271-0.604l-0.774-2.016l0.562-1.913l0.197-1.162l-0.203-0.927l-0.868-1.354l-0.333-1.643l-0.372-1.135l-0.91-1.381
			l-0.229-1.667l-0.392-0.988l-0.99-1.175l-0.577-1.601l-0.588-1.244l-0.606-1.074l-0.894-0.859l-1.36-1.14l-0.695-1.438
			l-1.029-0.939l-0.703-0.812l-1.462-0.41l-1.11-0.987l-1.815-0.491l-0.714-1.452l-1.022-0.093l-1.872-0.82l-1.127-1.229
			l-0.983-0.455l-0.852-0.216l-1.872,0.795l-2.247-1.062l-0.686-0.511L41,100.984l-1.604-1.179l-0.828,0.118l-1.696,0.448
			l-1.601-0.21l-0.938,0.146l-1.346,0.926l-2.087,0.357l-1.312-0.323l-0.86,0.566l-1.238,0.684l-0.58,0.418
			c1.893,7.61,6.376,26.231,5.637,28.973c-0.562,2.084-3.405,16.566-5.578,27.742l0.509,0.175l0.921,0.938l1.189-0.103l2.031,0.623
			l0.89,0.509l1.522-0.295l1.124,0.562l1.541-0.986l1.825,0.858l1.421-0.167l0.98,0.364l1.268-1.269l1.996,0.505l2.623-0.752
			l1.715-0.289l0.81-0.016l0.991-1.474l2.251-0.087l0.932-0.191l0.667-0.752l1.264-1.787l1.854-0.207l0.479-0.473l0.606-1.575
			l1.463-1.39l1.068-0.767l0.843-0.987l0.976-1.304l0.979-0.673l0.271-1.671l1.479-0.864l0.147-0.865l0.479-2.043l0.992-0.844
			l-0.235-1.293l1.463-3.373L68.796,136.925z"/>
	</g>
	<g>
		<g>
			<g>
				<g>
					
						<radialGradient id="SVGID_3_" cx="119.9011" cy="155.155" r="147.8593" gradientTransform="matrix(1 0 0 -1 -8.3599 288.2495)" gradientUnits="userSpaceOnUse">
						<stop  offset="0" style="stop-color:#E2BD47"/>
						<stop  offset="1" style="stop-color:#D79C32"/>
					</radialGradient>
					<polygon fill="url(#SVGID_3_)" points="187.904,212.006 189.912,213.545 190.434,215.158 189.604,216.609 189.947,218.278 
						187.047,219.055 190.223,221.725 187.173,222.224 186.746,223.686 185.986,224.996 186.31,226.968 184.914,227.919 
						184.267,229.362 181.75,229.285 182.44,231.906 180.775,232.45 181.051,235.057 179.773,236.072 178.392,236.949 
						175.799,235.938 173.704,235.326 173.923,238.893 172.286,239.135 170.779,239.587 168.621,237.889 167.254,238.297 
						166.03,239.545 164.411,239.181 162.896,239.401 161.878,242.392 159.988,240.511 158.327,239.92 157.233,242.495 
						155.457,241.26 153.746,240.388 152.985,244.837 151.068,242.797 149.667,243.64 148.304,244.723 146.548,243.592 
						145.301,245.323 143.892,246.16 141.656,242.362 140.859,246.621 138.739,243.506 137.583,245.776 135.9,244.668 
						134.706,246.675 132.925,244.493 131.445,244.402 130.018,244.784 128.545,244.76 127.058,244.478 125.805,247.533 
						124.394,248.869 122.82,247.363 121.299,246.546 119.908,249.172 118.357,247.19 116.854,246.005 115.377,245.952 
						113.899,245.752 112.426,246.054 110.928,247.35 109.49,245.026 107.996,245.738 106.456,247.353 105.001,246.602 
						103.58,245.416 101.985,247.279 100.653,245.15 98.942,247.927 97.549,246.757 95.988,247.362 94.59,246.46 92.87,248.021 
						91.625,246.162 90.127,246.084 88.463,246.854 87.24,245.102 85.807,244.55 84.259,244.655 83.096,242.57 81.119,245.09 
						79.627,244.872 78.591,242.059 76.492,245.279 75.345,243.086 73.848,242.911 72.39,242.508 70.586,244.041 69.648,240.672 
						67.698,243.039 66.134,243.201 64.768,242.252 63.514,240.654 62.115,239.859 60.341,241.197 59.188,239.188 56.938,241.481 
						56.583,237.688 55.363,236.857 53.288,237.794 51.485,237.865 50.572,236.372 50.308,234.117 48.151,234.49 46.513,234.033 
						47.015,231.286 44.101,232.01 42.496,231.3 41.526,230.016 41.752,227.908 40.828,226.669 41.203,224.699 40.33,223.479 
						38.93,222.454 38.793,220.873 37.403,219.715 39.76,217.538 37.261,216.568 37.205,215.037 37.025,213.526 36.676,212.006 
						36.806,210.514 34.976,209.021 37.635,207.528 37.221,206.037 35.086,204.545 34.886,203.054 39.144,201.562 36.942,200.07 
						36.3,198.578 37.983,197.087 38.562,195.594 35.065,194.102 36.168,192.609 38.838,191.115 37.121,189.621 35.594,188.127 
						35.793,186.631 37.741,185.135 35.492,183.638 35.346,182.14 37.602,180.643 38.708,179.146 37.02,177.65 35.785,176.154 
						37.862,174.659 36.982,173.165 35.584,171.67 35.029,170.176 37.676,168.683 34.776,167.189 36.643,165.695 37.557,164.201 
						36.354,162.706 38.11,161.21 37.102,159.715 38.002,158.218 38.33,156.721 36.368,155.222 35.757,153.724 35.132,152.226 
						37.529,150.729 38.037,149.232 37.07,147.737 36.996,146.242 38.185,144.746 39.011,143.25 36.512,141.754 39.154,140.259 
						38.888,138.76 38.672,137.263 38.373,135.764 39.016,134.266 38.899,132.768 35.789,131.27 38.638,129.773 35.717,128.277 
						35.229,126.78 35.958,125.283 37.693,123.786 36.834,122.287 37.037,120.788 35.087,119.289 38.701,117.79 35.266,116.293 
						38.062,114.795 38.486,113.297 36.081,111.799 37.892,110.3 38.54,108.801 38.32,107.302 38.063,105.804 35.113,104.305 
						38.773,102.807 36.814,101.307 35.019,99.807 34.641,98.312 35.523,96.817 37.961,95.319 36.334,93.818 34.712,92.32 
						36.144,90.824 34.833,89.328 36.552,87.832 36.918,86.336 38.141,84.836 35.851,83.335 38.169,81.836 38.751,80.338 
						35.461,78.84 36.485,77.339 38.195,75.839 36.486,74.339 36.303,72.839 35.436,71.336 36.293,69.836 38.804,68.333 
						37.781,66.832 38.86,65.329 36.539,63.831 38.262,62.332 35.027,60.829 35.728,59.328 35.688,57.825 38.459,56.32 
						37.873,54.818 36.311,53.312 34.914,51.804 37.597,50.295 38.229,48.849 36.479,47.176 35.893,45.482 39.131,44.611 
						36.703,42.376 37.268,40.879 38.75,39.772 39.28,38.315 39.872,36.874 39.268,34.676 42.84,35.139 43.284,33.626 
						43.848,32.138 43.864,30.074 46.126,30.109 47.763,29.677 47.349,26.81 48.24,25.32 51.619,27.551 53.043,27.152 
						53.367,24.664 54.588,23.663 55.682,22.179 58.053,24.479 58.604,20.679 60.902,24.293 62.369,23.934 63.664,22.6 
						65.223,22.762 66.615,21.982 68.329,23.021 69.104,18.726 70.811,19.73 72.276,19.351 73.539,17.828 75.758,21.716 
						76.817,19.055 78.115,17.745 79.58,17.359 81.576,19.995 82.934,19.004 84.634,19.94 85.918,18.528 87.543,19.03 89.106,19.18 
						90.562,18.705 91.365,14.484 93.444,18.413 94.793,17.515 96.314,17.967 97.748,17.643 99.03,15.497 100.637,17.05 
						102.062,16.403 103.383,13.697 104.941,15.008 106.381,13.822 107.932,15.673 109.411,15.64 110.869,14.188 112.358,13.671 
						113.853,15.49 115.346,14.251 116.816,15.718 118.302,15.65 119.8,15.221 121.24,16.378 122.849,13.774 124.318,14.341 
						125.64,16.923 127.361,13.789 128.656,16.194 130.249,15.129 131.486,17.483 133.345,14.436 134.775,15.119 135.981,17.109 
						137.502,16.962 139.318,15.492 140.895,15.369 142,17.869 143.775,16.634 145.213,17.296 146.499,18.792 148.234,17.791 
						149.337,20.321 151.143,18.925 152.551,19.727 154.229,19.021 155.959,18.063 157.237,19.604 158.885,19.102 159.707,23.219 
						161.253,23.276 163.153,21.369 165.02,19.667 165.967,23.105 167.169,24.359 169.393,21.904 171.22,21.529 171.127,25.802 
						173.467,24.306 174.924,24.862 177.228,24.159 176.782,27.573 177.828,28.641 178.526,30.076 181.332,29.282 181.006,31.716 
						181.363,33.339 182.745,34.09 183.901,35.072 185.016,36.128 185.241,37.713 186.989,38.498 187.113,40.104 186.322,41.981 
						187.909,42.989 189.556,44.119 187.794,46.021 190.855,47.093 189.178,48.802 188.504,50.295 191.965,51.787 188.991,53.279 
						189.162,54.771 187.901,56.264 188.31,57.756 188.27,59.247 191.112,60.738 190.077,62.23 188.879,63.721 191.327,65.213 
						189.299,66.705 190.066,68.198 191.586,69.691 188.225,71.185 191.237,72.679 190.442,74.173 187.539,75.669 187.825,77.166 
						188.108,78.663 187.878,80.162 191.284,81.659 187.591,83.155 188.53,84.651 190.291,86.146 191.883,87.642 187.68,89.135 
						191.201,90.631 190.521,92.124 189.053,93.617 190.332,95.111 187.588,96.605 191.756,98.1 188.686,99.594 188.18,101.089 
						190.764,102.584 187.464,104.081 187.473,105.578 189.164,107.077 191.368,108.575 191.037,110.072 187.947,111.569 
						188.924,113.065 189.861,114.561 190.084,116.057 190.147,117.552 189.348,119.047 187.514,120.543 190.158,122.039 
						191.969,123.536 188.082,125.034 187.878,126.533 190.371,128.032 190.775,129.53 191.31,131.027 188.592,132.524 
						190.757,134.021 190.508,135.518 188.488,137.015 192.069,138.513 189.792,140.01 188.316,141.511 187.763,143.01 
						191.745,144.51 188.445,146.007 191.316,147.505 190.424,149.002 190.249,150.501 191.626,152 191.144,153.5 189.237,154.998 
						187.623,156.497 190.948,157.995 188.625,159.494 189.597,160.994 191.326,162.493 189.242,163.986 191.618,165.482 
						189.889,166.98 190.769,168.481 190.437,169.979 190.199,171.476 189.629,172.972 189.878,174.468 192.062,175.965 
						189.956,177.464 189.549,178.965 189.407,180.464 187.462,181.962 191.624,183.461 191.929,184.961 189.292,186.462 
						191.806,187.961 188.517,189.462 188.525,190.964 190.912,192.465 187.641,193.967 190.606,195.468 190.78,196.971 
						190.695,198.469 189.619,199.968 188.998,201.471 187.62,202.973 191.309,204.475 189.641,205.979 190.248,207.482 
						187.564,208.988 189.47,210.307 					"/>
					<polygon fill="none" stroke="#876612" stroke-width="3" stroke-miterlimit="10" points="187.904,212.006 189.912,213.545 
						190.434,215.158 189.604,216.609 189.947,218.278 187.047,219.055 190.223,221.725 187.173,222.224 186.746,223.686 
						185.986,224.996 186.31,226.968 184.914,227.919 184.267,229.362 181.75,229.285 182.44,231.906 180.775,232.45 
						181.051,235.057 179.773,236.072 178.392,236.949 175.799,235.938 173.704,235.326 173.923,238.893 172.286,239.135 
						170.779,239.587 168.621,237.889 167.254,238.297 166.03,239.545 164.411,239.181 162.896,239.401 161.878,242.392 
						159.988,240.511 158.327,239.92 157.233,242.495 155.457,241.26 153.746,240.388 152.985,244.837 151.068,242.797 
						149.667,243.64 148.304,244.723 146.548,243.592 145.301,245.323 143.892,246.16 141.656,242.362 140.859,246.621 
						138.739,243.506 137.583,245.776 135.9,244.668 134.706,246.675 132.925,244.493 131.445,244.402 130.018,244.784 
						128.545,244.76 127.058,244.478 125.805,247.533 124.394,248.869 122.82,247.363 121.299,246.546 119.908,249.172 
						118.357,247.19 116.854,246.005 115.377,245.952 113.899,245.752 112.426,246.054 110.928,247.35 109.49,245.026 
						107.996,245.738 106.456,247.353 105.001,246.602 103.58,245.416 101.985,247.279 100.653,245.15 98.942,247.927 
						97.549,246.757 95.988,247.362 94.59,246.46 92.87,248.021 91.625,246.162 90.127,246.084 88.463,246.854 87.24,245.102 
						85.807,244.55 84.259,244.655 83.096,242.57 81.119,245.09 79.627,244.872 78.591,242.059 76.492,245.279 75.345,243.086 
						73.848,242.911 72.39,242.508 70.586,244.041 69.648,240.672 67.698,243.039 66.134,243.201 64.768,242.252 63.514,240.654 
						62.115,239.859 60.341,241.197 59.188,239.188 56.938,241.481 56.583,237.688 55.363,236.857 53.288,237.794 51.485,237.865 
						50.572,236.372 50.308,234.117 48.151,234.49 46.513,234.033 47.015,231.286 44.101,232.01 42.496,231.3 41.526,230.016 
						41.752,227.908 40.828,226.669 41.203,224.699 40.33,223.479 38.93,222.454 38.793,220.873 37.403,219.715 39.76,217.538 
						37.261,216.568 37.205,215.037 37.025,213.526 36.676,212.006 36.806,210.514 34.976,209.021 37.635,207.528 37.221,206.037 
						35.086,204.545 34.886,203.054 39.144,201.562 36.942,200.07 36.3,198.578 37.983,197.087 38.562,195.594 35.065,194.102 
						36.168,192.609 38.838,191.115 37.121,189.621 35.594,188.127 35.793,186.631 37.741,185.135 35.492,183.638 35.346,182.14 
						37.602,180.643 38.708,179.146 37.02,177.65 35.785,176.154 37.862,174.659 36.982,173.165 35.584,171.67 35.029,170.176 
						37.676,168.683 34.776,167.189 36.643,165.695 37.557,164.201 36.354,162.706 38.11,161.21 37.102,159.715 38.002,158.218 
						38.33,156.721 36.368,155.222 35.757,153.724 35.132,152.226 37.529,150.729 38.037,149.232 37.07,147.737 36.996,146.242 
						38.185,144.746 39.011,143.25 36.512,141.754 39.154,140.259 38.888,138.76 38.672,137.263 38.373,135.764 39.016,134.266 
						38.899,132.768 35.789,131.27 38.638,129.773 35.717,128.277 35.229,126.78 35.958,125.283 37.693,123.786 36.834,122.287 
						37.037,120.788 35.087,119.289 38.701,117.79 35.266,116.293 38.062,114.795 38.486,113.297 36.081,111.799 37.892,110.3 
						38.54,108.801 38.32,107.302 38.063,105.804 35.113,104.305 38.773,102.807 36.814,101.307 35.019,99.807 34.641,98.312 
						35.523,96.817 37.961,95.319 36.334,93.818 34.712,92.32 36.144,90.824 34.833,89.328 36.552,87.832 36.918,86.336 
						38.141,84.836 35.851,83.335 38.169,81.836 38.751,80.338 35.461,78.84 36.485,77.339 38.195,75.839 36.486,74.339 
						36.303,72.839 35.436,71.336 36.293,69.836 38.804,68.333 37.781,66.832 38.86,65.329 36.539,63.831 38.262,62.332 
						35.027,60.829 35.728,59.328 35.688,57.825 38.459,56.32 37.873,54.818 36.311,53.312 34.914,51.804 37.597,50.295 
						38.229,48.849 36.479,47.176 35.893,45.482 39.131,44.611 36.703,42.376 37.268,40.879 38.75,39.772 39.28,38.315 
						39.872,36.874 39.268,34.676 42.84,35.139 43.284,33.626 43.848,32.138 43.864,30.074 46.126,30.109 47.763,29.677 
						47.349,26.81 48.24,25.32 51.619,27.551 53.043,27.152 53.367,24.664 54.588,23.663 55.682,22.179 58.053,24.479 
						58.604,20.679 60.902,24.293 62.369,23.934 63.664,22.6 65.223,22.762 66.615,21.982 68.329,23.021 69.104,18.726 
						70.811,19.73 72.276,19.351 73.539,17.828 75.758,21.716 76.817,19.055 78.115,17.745 79.58,17.359 81.576,19.995 
						82.934,19.004 84.634,19.94 85.918,18.528 87.543,19.03 89.106,19.18 90.562,18.705 91.365,14.484 93.444,18.413 
						94.793,17.515 96.314,17.967 97.748,17.643 99.03,15.497 100.637,17.05 102.062,16.403 103.383,13.697 104.941,15.008 
						106.381,13.822 107.932,15.673 109.411,15.64 110.869,14.188 112.358,13.671 113.853,15.49 115.346,14.251 116.816,15.718 
						118.302,15.65 119.8,15.221 121.24,16.378 122.849,13.774 124.318,14.341 125.64,16.923 127.361,13.789 128.656,16.194 
						130.249,15.129 131.486,17.483 133.345,14.436 134.775,15.119 135.981,17.109 137.502,16.962 139.318,15.492 140.895,15.369 
						142,17.869 143.775,16.634 145.213,17.296 146.499,18.792 148.234,17.791 149.337,20.321 151.143,18.925 152.551,19.727 
						154.229,19.021 155.959,18.063 157.237,19.604 158.885,19.102 159.707,23.219 161.253,23.276 163.153,21.369 165.02,19.667 
						165.967,23.105 167.169,24.359 169.393,21.904 171.22,21.529 171.127,25.802 173.467,24.306 174.924,24.862 177.228,24.159 
						176.782,27.573 177.828,28.641 178.526,30.076 181.332,29.282 181.006,31.716 181.363,33.339 182.745,34.09 183.901,35.072 
						185.016,36.128 185.241,37.713 186.989,38.498 187.113,40.104 186.322,41.981 187.909,42.989 189.556,44.119 187.794,46.021 
						190.855,47.093 189.178,48.802 188.504,50.295 191.965,51.787 188.991,53.279 189.162,54.771 187.901,56.264 188.31,57.756 
						188.27,59.247 191.112,60.738 190.077,62.23 188.879,63.721 191.327,65.213 189.299,66.705 190.066,68.198 191.586,69.691 
						188.225,71.185 191.237,72.679 190.442,74.173 187.539,75.669 187.825,77.166 188.108,78.663 187.878,80.162 191.284,81.659 
						187.591,83.155 188.53,84.651 190.291,86.146 191.883,87.642 187.68,89.135 191.201,90.631 190.521,92.124 189.053,93.617 
						190.332,95.111 187.588,96.605 191.756,98.1 188.686,99.594 188.18,101.089 190.764,102.584 187.464,104.081 187.473,105.578 
						189.164,107.077 191.368,108.575 191.037,110.072 187.947,111.569 188.924,113.065 189.861,114.561 190.084,116.057 
						190.147,117.552 189.348,119.047 187.514,120.543 190.158,122.039 191.969,123.536 188.082,125.034 187.878,126.533 
						190.371,128.032 190.775,129.53 191.31,131.027 188.592,132.524 190.757,134.021 190.508,135.518 188.488,137.015 
						192.069,138.513 189.792,140.01 188.316,141.511 187.763,143.01 191.745,144.51 188.445,146.007 191.316,147.505 
						190.424,149.002 190.249,150.501 191.626,152 191.144,153.5 189.237,154.998 187.623,156.497 190.948,157.995 188.625,159.494 
						189.597,160.994 191.326,162.493 189.242,163.986 191.618,165.482 189.889,166.98 190.769,168.481 190.437,169.979 
						190.199,171.476 189.629,172.972 189.878,174.468 192.062,175.965 189.956,177.464 189.549,178.965 189.407,180.464 
						187.462,181.962 191.624,183.461 191.929,184.961 189.292,186.462 191.806,187.961 188.517,189.462 188.525,190.964 
						190.912,192.465 187.641,193.967 190.606,195.468 190.78,196.971 190.695,198.469 189.619,199.968 188.998,201.471 
						187.62,202.973 191.309,204.475 189.641,205.979 190.248,207.482 187.564,208.988 189.47,210.307 					"/>
				</g>
			</g>
		</g>
		<g>
			
				<radialGradient id="SVGID_4_" cx="121.5955" cy="147.4509" r="129.0049" gradientTransform="matrix(1 0 0 -1 -8.3599 288.2495)" gradientUnits="userSpaceOnUse">
				<stop  offset="0" style="stop-color:#EDD494"/>
				<stop  offset="1" style="stop-color:#EDD494;stop-opacity:0"/>
			</radialGradient>
			<path fill="url(#SVGID_4_)" d="M76.237,212.131c-11.529,1.367-22.297-0.405-33.921,0.691c8.388-1.568,17.233-2.312,25.489-4.291
				c-6.451,0.592-12.871,1.104-19.217-0.832c6.73,0.002,14.939-1.07,20.729-4.916c-5.301-1.148-11.241-0.652-16.812-0.654
				c-0.321,0.013-0.235,0.019,0.26,0.019c1.162-0.072,2.48-0.47,3.456-0.617c-4.68-0.324-10.005-1.129-13.608-3.008
				c10.769-0.918,21.554-3.14,32.302-1.49c-4.077,1.082-8.314,1.801-12.429,2.791c4.353-0.172,10.211,0.012,15.093,0.375
				c-1.949,0.5-4.684,1.854-6.386,2.291c1.962-0.006,4.273,0.438,6.358,0.361c-3.05,1.479-7.125,2.957-10.572,4.547
				c4.862-0.318,9.891-0.295,14.8-0.217c-0.308,0.329-0.235,0.975,0.091,1.198c-2.979,0.984-4.23,2.187-7.938,2.15
				c1.651,0.16,3.938,0.613,5.944,0.668C78.767,211.783,77.52,211.809,76.237,212.131z"/>
			
				<radialGradient id="SVGID_5_" cx="121.5964" cy="147.448" r="128.9989" gradientTransform="matrix(1 0 0 -1 -8.3599 288.2495)" gradientUnits="userSpaceOnUse">
				<stop  offset="0" style="stop-color:#EDD494"/>
				<stop  offset="1" style="stop-color:#EDD494;stop-opacity:0"/>
			</radialGradient>
			<path fill="url(#SVGID_5_)" d="M64.07,191.381c-5.406,0.861-11.048-1.018-16.498-1.246c3.941-0.67,7.875-1.653,11.848-2.209
				c-4.707-0.034-8.846-0.868-13.535-1.834c2.188-0.026,4.809-0.262,6.742-1.297c-1.454-0.237-3.348-0.992-4.906-1.168
				c0.622-0.106,1.535-0.455,2.191-0.625c-1.882-0.061-3.846-0.754-5.163-1.846c2.878-0.529,5.583-1.812,8.472-2.391
				c-2.576-1.783-6.102-2.095-8.814-3.935c10.029-0.02,20.01-0.188,30.024,0.301c0.12-0.004,0.123-0.006,0.008-0.01
				c-4.767,0.892-9.832,1.332-14.657,2c0.427,0.137,0.761,0.096,1.188,0.166c-1.917,0.18-3.994,0.322-5.776,0.676
				c4.88,1.408,10.198,1.213,15.221,1.871c-2.999,0.771-6.104,1.422-9.14,2.138c0.007,0.043,0.748-0.062,0.762-0.017
				c-2.227,0.396-4.479,0.74-6.584,1.553c4.074,0.572,8.243,0.021,12.363,0.146c-2.042,0.598-4.623,1.068-6.069,2.117
				c4.692,0.481,9.854-0.513,14.31,0.992c-3.845,0.952-7.877,0.905-11.803,1.235c3.991,0.787,8.28,0.664,12.14,1.75
				C72.338,190.996,68.242,190.975,64.07,191.381z"/>
			
				<radialGradient id="SVGID_6_" cx="121.5955" cy="147.4509" r="129.0032" gradientTransform="matrix(1 0 0 -1 -8.3599 288.2495)" gradientUnits="userSpaceOnUse">
				<stop  offset="0" style="stop-color:#EDD494"/>
				<stop  offset="1" style="stop-color:#EDD494;stop-opacity:0"/>
			</radialGradient>
			<path fill="url(#SVGID_6_)" d="M67.938,172.609c-6.956-1.107-14.079-1.799-21.038-2.892c-3.382-0.53-3.623-0.711-5.496-3.141
				c3.066-0.16,6.063-0.906,9.123-1.162c-4.369-0.176-0.729-2.395,1.224-3c3.474-1.078,7.146-1.291,10.663-2.17
				c-5.834-0.312-12.533,0.144-17.773-2.908c3.693-1.381,8.464-0.809,12.066-2.567c-2.822-1.027-6.877-0.629-9.227-2.576
				c3.096-1.103,7.7-0.535,10.305-2.543c-1.96-0.314-4.619,0.141-6.266-0.654c0.973-0.547,2.075-0.852,3.099-1.315
				c-4.162-0.474-7.769-0.919-11.303-3.039c2.214-0.273,5.027-0.75,6.786-2.062c-1.829-0.201-3.724,0.201-5.498-0.115
				c1.776-1.301,5.704-0.938,6.884-3.063c-1.587-0.945-3.737-0.529-5.282-1.332c0.278-0.131,0.658-0.383,0.898-0.519
				c-0.897,0.062-1.949-0.151-2.729-0.352c-0.034,0.016,0.002-0.244,0.012-0.236c10.991-0.992,22.785-1.274,33.803,0.154
				c-3.132,0.482-18.973,0.527-21.675,2.027c3.281,0.596,19.162-1.5,22.158,0c-2.713,0.979-5.832,0.696-8.638,1.457
				c0.882,0,1.767,0.077,2.649,0.073c-7.3,1.318-14.861,0.939-22.234,1.689c6.182,1.615,15.211,1.307,13.146,2.33
				c2.169,0.783,4.709,0.401,6.955,1.021c-6.368,2.062-13.854-0.989-20.199,0.879c-0.013,0.056-0.009,0.105,0.008,0.156
				c4.166,0.783,9.097,1.229,13.393,1.625c-0.475-0.006-0.951,0.01-1.426-0.012c3.189,0.645,6.666,1.062,9.925,1.494
				c-3.636,0.438-7.556,0.52-11.103,1.524c4.19,1.47,9.848,0.199,14.248,0.355c3.201,0.113,6.699,0.168,9.812,0.994
				c-9.133,1.487-18.255,2.606-27.429,3.78c3.419,0.316,7.055-0.582,10.4,0.068c-1.436,1.01-3.925,0.959-5.389,1.91
				c5.629,0.395,11.377,0.426,16.813,2.106c-8.244,1.914-17.15,1.998-25.545,3.275c5.023,0.363,10.095,0.514,15.08,1.271
				c-5.964,0.725-20.183,0.989-22.424,3.182c5.218,0.398,10.418,1.646,15.579,2.494C64.263,171.143,66.163,171.652,67.938,172.609z"
				/>
			
				<radialGradient id="SVGID_7_" cx="79.7629" cy="145.5369" r="0" gradientTransform="matrix(1 0 0 -1 -8.3599 288.2495)" gradientUnits="userSpaceOnUse">
				<stop  offset="0" style="stop-color:#EDD494"/>
				<stop  offset="1" style="stop-color:#EDD494;stop-opacity:0"/>
			</radialGradient>
			<path fill="url(#SVGID_7_)" d="M71.403,142.713"/>
			
				<radialGradient id="SVGID_8_" cx="121.5955" cy="147.449" r="129.0074" gradientTransform="matrix(1 0 0 -1 -8.3599 288.2495)" gradientUnits="userSpaceOnUse">
				<stop  offset="0" style="stop-color:#EDD494"/>
				<stop  offset="1" style="stop-color:#EDD494;stop-opacity:0"/>
			</radialGradient>
			<path fill="url(#SVGID_8_)" d="M66.736,132.131c-8.01-0.104-15.979,0.306-23.873,1.013c6.482-1.918,12.834-4.349,19.246-6.537
				c-4.764,0.336-9.63-0.283-14.365-0.074c4.543-1.146,8.938-3.498,13.377-4.926c-5.35,0.375-10.178-0.699-15.301-1.099
				c5.071-0.633,10.269-2.17,15.316-2.901c-3.86,0.18-7.72-0.515-11.386-0.601c5.836-1.918,12.069-3.182,17.976-5.51
				c-5.979-0.211-12.894-1.088-18.986-2.477c6.105-0.572,12.644-2.136,18.514-4.523c-4.629,0.104-10.169-0.936-14.901-0.977
				c1.522-0.496,3.297-0.869,4.781-1.4c0.004,0.002-3.312-0.143-3.354-0.088c0.475,0.215,1.445-2.479,1.351-2.326
				c-3.731,0.035-7.345-0.803-10.895-1.188c5.723-1.935,12.173-3.521,17.887-5.787c-6.559-0.144-13.291-1.539-18.843-4.498
				c5.184-0.517,10.276-2.133,15.489-2.726c-4.674,0.718-10.605-1.061-14.939-1.987c-0.143,0.09-0.049-1.845-0.025-1.812
				c11.609-0.754,23.201-2.768,35.006-3.076c0.622-0.155-0.376-0.03-0.526-0.024c-7.406,2.137-15.025,3.125-22.366,4.553
				c4.352,0.264,8.534,1.672,12.809,2.07c-4.783,1.84-9.773,3.731-14.958,4.928c-0.564-0.01-0.567-0.02-0.011-0.027
				c7.618,0.002,15.236,0.002,22.854,0.002c-3.344,0.371-6.546,1.334-9.73,1.888c1.993,0.014,4.227,0.108,6.216,0.227
				c-4.483,0.713-8.812,2.594-12.845,3.775c-0.053,0.039,2.686-0.039,2.809,0.086c-2.104,0.797-4.784,1.74-6.654,3.049
				c6.375-0.039,13.377-0.146,19.329,0.328c-4.941,1.401-9.824,3.039-14.854,3.674c6.318,0.018,12.608,0.125,18.704,0.84
				c-4.774,2.217-10.215,4.125-15.364,5.146c-0.28-0.015-0.562-0.019-0.842-0.013c4.971,0.136,9.764,0.838,14.73,0.976
				c-0.815,0.719-4.473,1.731-5.439,2.037c-0.376,0.383,2.534,0.799,2.308,0.977c-3.374,1.01-6.977,2.875-10.574,3.635
				c2.479-0.037,5.484,0.451,8.186,0.353c-3.177,0.715-6.247,2.531-8.797,3.397c2.253,0.644,4.405,0.486,6.771,0.713
				c-1.177,1.728-3.841,1.472-4.896,2.912c1.419,0.791,3.898-0.071,5.018,1.392c-1.793,0.805-4.355,1.061-5.933,2.221
				c-0.098,0.299-0.115,0.604-0.056,0.916c2.884,0.357,7.935,2.309,10.59,2.475C71.715,133.166,70.755,132.172,66.736,132.131z"/>
			
				<radialGradient id="SVGID_9_" cx="121.5974" cy="147.447" r="129.0096" gradientTransform="matrix(1 0 0 -1 -8.3599 288.2495)" gradientUnits="userSpaceOnUse">
				<stop  offset="0" style="stop-color:#EDD494"/>
				<stop  offset="1" style="stop-color:#EDD494;stop-opacity:0"/>
			</radialGradient>
			<path fill="url(#SVGID_9_)" d="M73.986,75.256c-10.418-0.151-21.382,0.652-31.818,1.373c-0.184,0.015-0.107,0.019,0.228,0.015
				c9.461-1.191,18.786-3.035,28.039-5.275c-8.855,0.055-21.035,2.475-29.183-1.676c7.864-2.771,16.74-3.445,24.914-5.324
				c-4.414,0.098-9.196-0.584-13.21-2.432c3.524-0.34,7.497-0.931,10.271-2.754c-1.423-0.095-2.995-0.729-4.461-0.851
				c1.783-0.914,3.701-2.483,5.979-2.896c-5.826-0.146-14.735,1.459-19.254-2.318c6.216-1.408,13.257,0.391,19.244-1.676
				c-3.859-1.092-7.829-2.482-10.989-5.031c5.305,0.781,10.608,2.639,15.976,2.932c0.019,0.017,0.01-0.934-0.018-0.911
				c-7.449-1.943-14.716-3.964-21.911-6.812c6.262-0.115,12.473,0.688,18.729,0.51c0.188,0.006,0.192,0.011,0.013,0.015
				c-5.084-1.252-8.999-5.175-12.036-8.974c8.564,0.002,15.916,4.871,24.528,4.711c0.214-0.002,0.201-0.002-0.037,0.004
				c-5.021-0.604-9.219-3.317-12.876-6.651c1.601,0.481,3.33,0.451,4.87,0.858c-2.3-1.266-3.037-3.151-4.476-4.674
				c6.749-0.098,13.278,2.004,19.912,2.729c-1.482-1.412-2.461-3.344-3.671-4.689c1.375,1.592,3.914,2.41,5.254,3.385
				c-0.006-0.973,0.129-2.104,0.021-3.178c1.457,1.351,3.437,3.465,4.622,5.381c-1.396-0.823-3.021-1.021-4.317-1.633
				c0.509,0.881,0.933,2.103,1.318,2.98c-6.049-0.404-12.219,0.065-18.191-0.918c3.049,3.969,8.497,6,12.691,8.668
				c-6.438,0.166-12.636-0.332-18.887-1.718c2.89,2.783,7.049,3.517,10.209,5.904c-3.886,0.221-7.78-0.024-11.646-0.213
				c4.122,1.578,8.888,2.002,12.386,4.715c-3.899,0.789-7.842,2.332-11.711,2.736c3.065,0.578,6.182,1.557,8.86,3.074
				c-2.673-0.129-5.619,0.104-8.108,0.184c2.633,0.379,5.252,1.35,7.664,2.117c-2.675,0.721-5.251,1.717-7.887,2.486
				c0.074,0.022-0.248,0.629-0.28,0.649c1.653,0.168,3.083,0.709,4.735,0.851c-2.367,0.485-4.852,1.407-6.984,1.895
				c3.504,0.303,6.857,0.479,9.66,2.514c-3.156,0.869-6.521,1.875-9.404,2.992c0.634,0.229,1.511-0.006,2.166,0.094
				c-1.778,0.479-3.541,1.408-5.471,1.72c-0.186-0.004-0.191-0.009-0.019-0.015c4.583,0.146,9.263,0.578,13.691,1.502
				c-0.449,0.185,0.481,0.281,0.537,0.3c-1.242,0.387-2.565,1.311-3.713,1.692C71.129,74.35,72.659,74.955,73.986,75.256z"/>
			
				<radialGradient id="SVGID_10_" cx="121.5955" cy="147.4509" r="129.0054" gradientTransform="matrix(1 0 0 -1 -8.3599 288.2495)" gradientUnits="userSpaceOnUse">
				<stop  offset="0" style="stop-color:#EDD494"/>
				<stop  offset="1" style="stop-color:#EDD494;stop-opacity:0"/>
			</radialGradient>
			<path fill="url(#SVGID_10_)" d="M79.736,216.131c-9.354,4.429-21.317,4.625-31.514,6.666c0.059-0.004-0.875,0.078-0.391,0
				c6.574-0.446,13.269-2.305,19.748-1.43c-4.042,1.148-8.391,2.734-10.646,5.721c2.414-0.682,4.938-0.812,7.448-1.797
				c-2.013,1.496-3.543,3.738-5.042,5.137c4.441-1.342,8.889-3.471,13.52-4.243c-2.84,3.561-6.949,7.606-9.512,11.229
				c3.311-1.164,7.064-2.436,10.208-4.244c-1.096,1.01-2.457,2.554-3.643,3.586c3.486-1.938,7.131-3.981,10.536-5.936
				c-2.248,2.707-2.942,6.147-3.838,9.262c4.708-0.516,9.294-2.065,13.846-3.604c-0.979,1.01-2.007,2.407-2.87,3.311
				c2.066-1.969,4.942-3.479,7.196-5.311c-0.755,2.194-1.068,4.932-1.831,6.969c2.497-3.197,3.98-7.59,4.307-11.877
				c-1.811,2.137-4.446,3.496-6.312,5.438c-0.127-0.266,0.831-1.692,0.598-1.85c-3.605,2.107-7.484,3.391-11.281,2.908
				c2.282-3.035,4.354-6.369,5.923-9.549c-3.292,1.332-7.278,2.504-10.83,3.248c1.585-1.83,2.134-4.179,3.513-5.921
				c-0.977-0.104-2.244,1.216-3.254,1.597c-0.054-1.135,1.407-2.242,1.257-3.24c-1.936,0.285-4.034,0.104-6.015,0.266
				c-0.146,0.091-0.07,0.111,0.359,0.023C74.033,220.389,76.914,218.136,79.736,216.131z"/>
			
				<radialGradient id="SVGID_11_" cx="121.5955" cy="147.4421" r="129.0129" gradientTransform="matrix(1 0 0 -1 -8.3599 288.2495)" gradientUnits="userSpaceOnUse">
				<stop  offset="0" style="stop-color:#EDD494"/>
				<stop  offset="1" style="stop-color:#EDD494;stop-opacity:0"/>
			</radialGradient>
			<path fill="url(#SVGID_11_)" d="M149.588,50.77c11.529-1.369,22.297,0.405,33.921-0.691c-8.388,1.566-17.233,2.312-25.488,4.291
				c6.451-0.594,12.871-1.104,19.216,0.832c-6.73-0.002-14.939,1.07-20.729,4.916c5.302,1.146,11.241,0.65,16.812,0.652
				c0.322-0.013,0.236-0.019-0.259-0.017c-1.162,0.072-2.481,0.47-3.456,0.615c4.679,0.324,10.004,1.131,13.607,3.008
				c-10.769,0.92-21.554,3.142-32.302,1.492c4.077-1.084,8.315-1.801,12.429-2.791c-4.353,0.172-10.211-0.014-15.093-0.377
				c1.949-0.498,4.685-1.854,6.386-2.289c-1.962,0.004-4.273-0.438-6.357-0.361c3.049-1.479,7.125-2.957,10.572-4.549
				c-4.863,0.32-9.892,0.297-14.801,0.22c0.309-0.33,0.235-0.978-0.091-1.201c2.979-0.982,4.231-2.185,7.939-2.15
				c-1.652-0.158-3.938-0.613-5.945-0.666C147.059,51.117,148.306,51.092,149.588,50.77z"/>
			
				<radialGradient id="SVGID_12_" cx="121.5984" cy="147.4509" r="129.0032" gradientTransform="matrix(1 0 0 -1 -8.3599 288.2495)" gradientUnits="userSpaceOnUse">
				<stop  offset="0" style="stop-color:#EDD494"/>
				<stop  offset="1" style="stop-color:#EDD494;stop-opacity:0"/>
			</radialGradient>
			<path fill="url(#SVGID_12_)" d="M161.755,71.518c5.406-0.861,11.049,1.02,16.498,1.246c-3.94,0.672-7.875,1.655-11.848,2.211
				c4.707,0.034,8.846,0.868,13.535,1.834c-2.188,0.026-4.809,0.262-6.742,1.297c1.454,0.237,3.348,0.992,4.907,1.166
				c-0.623,0.108-1.536,0.457-2.192,0.627c1.882,0.061,3.846,0.752,5.163,1.846c-2.878,0.527-5.583,1.81-8.471,2.391
				c2.576,1.783,6.101,2.093,8.813,3.935c-10.028,0.018-20.01,0.188-30.023-0.301c-0.121,0.002-0.123,0.006-0.008,0.008
				c4.766-0.889,9.832-1.33,14.656-1.998c-0.427-0.137-0.761-0.096-1.188-0.168c1.917-0.178,3.994-0.322,5.775-0.674
				c-4.88-1.41-10.197-1.213-15.221-1.871c2.999-0.771,6.104-1.422,9.14-2.138c-0.007-0.045-0.747,0.062-0.762,0.017
				c2.228-0.396,4.479-0.74,6.584-1.555c-4.074-0.57-8.243-0.021-12.363-0.146c2.043-0.596,4.623-1.068,6.069-2.117
				c-4.691-0.479-9.854,0.515-14.309-0.99c3.844-0.952,7.877-0.907,11.802-1.235c-3.991-0.789-8.28-0.666-12.139-1.752
				C153.487,71.904,157.583,71.924,161.755,71.518z"/>
			
				<radialGradient id="SVGID_13_" cx="121.5955" cy="147.4519" r="129.0053" gradientTransform="matrix(1 0 0 -1 -8.3599 288.2495)" gradientUnits="userSpaceOnUse">
				<stop  offset="0" style="stop-color:#EDD494"/>
				<stop  offset="1" style="stop-color:#EDD494;stop-opacity:0"/>
			</radialGradient>
			<path fill="url(#SVGID_13_)" d="M157.887,90.291c6.955,1.105,14.078,1.797,21.037,2.892c3.383,0.528,3.623,0.711,5.496,3.141
				c-3.065,0.158-6.063,0.906-9.123,1.16c4.369,0.178,0.729,2.396-1.224,3.002c-3.473,1.078-7.146,1.291-10.663,2.168
				c5.834,0.313,12.533-0.144,17.774,2.91c-3.694,1.381-8.464,0.807-12.067,2.567c2.822,1.027,6.877,0.629,9.228,2.576
				c-3.097,1.103-7.7,0.533-10.306,2.543c1.96,0.314,4.619-0.141,6.267,0.654c-0.974,0.547-2.075,0.852-3.1,1.315
				c4.162,0.472,7.77,0.916,11.304,3.039c-2.215,0.273-5.028,0.748-6.786,2.062c1.829,0.203,3.723-0.199,5.498,0.115
				c-1.777,1.303-5.704,0.938-6.885,3.065c1.587,0.945,3.737,0.527,5.282,1.332c-0.278,0.131-0.658,0.383-0.897,0.517
				c0.896-0.06,1.948,0.153,2.728,0.354c0.034-0.016-0.002,0.244-0.011,0.234c-10.992,0.992-22.786,1.276-33.803-0.154
				c3.132-0.482,18.972-0.525,21.675-2.025c-3.282-0.596-19.163,1.498-22.159,0c2.713-0.979,5.832-0.696,8.638-1.457
				c-0.882,0-1.767-0.077-2.648-0.075c7.299-1.316,14.86-0.939,22.233-1.688c-6.182-1.617-15.211-1.309-13.145-2.33
				c-2.169-0.785-4.709-0.401-6.956-1.021c6.369-2.064,13.854,0.987,20.2-0.881c0.012-0.054,0.008-0.105-0.009-0.156
				c-4.166-0.781-9.097-1.228-13.393-1.623c0.475,0.004,0.951-0.01,1.426,0.012c-3.188-0.645-6.666-1.062-9.925-1.494
				c3.636-0.438,7.556-0.521,11.104-1.524c-4.191-1.472-9.849-0.199-14.248-0.355c-3.201-0.113-6.699-0.168-9.813-0.994
				c9.133-1.487,18.255-2.608,27.429-3.78c-3.419-0.316-7.055,0.579-10.399-0.068c1.435-1.01,3.924-0.961,5.388-1.91
				c-5.629-0.395-11.377-0.428-16.812-2.107c8.243-1.913,17.149-2,25.545-3.274c-5.024-0.363-10.096-0.514-15.08-1.271
				c5.963-0.727,20.182-0.989,22.423-3.182c-5.217-0.4-10.418-1.646-15.579-2.494C161.562,91.756,159.662,91.248,157.887,90.291z"/>
			
				<radialGradient id="SVGID_14_" cx="162.782" cy="168.0632" r="0" gradientTransform="matrix(1 0 0 -1 -8.3599 288.2495)" gradientUnits="userSpaceOnUse">
				<stop  offset="0" style="stop-color:#EDD494"/>
				<stop  offset="1" style="stop-color:#EDD494;stop-opacity:0"/>
			</radialGradient>
			<path fill="url(#SVGID_14_)" d="M154.422,120.186"/>
			
				<radialGradient id="SVGID_15_" cx="121.5974" cy="147.4509" r="129.0011" gradientTransform="matrix(1 0 0 -1 -8.3599 288.2495)" gradientUnits="userSpaceOnUse">
				<stop  offset="0" style="stop-color:#EDD494"/>
				<stop  offset="1" style="stop-color:#EDD494;stop-opacity:0"/>
			</radialGradient>
			<path fill="url(#SVGID_15_)" d="M159.089,130.77c8.011,0.104,15.979-0.306,23.873-1.013c-6.481,1.916-12.834,4.349-19.246,6.535
				c4.765-0.336,9.631,0.285,14.365,0.076c-4.543,1.146-8.938,3.498-13.377,4.924c5.351-0.373,10.178,0.701,15.301,1.101
				c-5.07,0.633-10.269,2.168-15.315,2.899c3.859-0.178,7.719,0.517,11.385,0.603c-5.836,1.918-12.069,3.182-17.975,5.51
				c5.979,0.211,12.893,1.088,18.985,2.477c-6.104,0.57-12.644,2.136-18.514,4.523c4.629-0.104,10.169,0.934,14.902,0.977
				c-1.523,0.496-3.298,0.869-4.782,1.4c-0.003-0.002,3.312,0.143,3.354,0.088c-0.475-0.215-1.444,2.478-1.351,2.326
				c3.731-0.035,7.345,0.803,10.895,1.188c-5.723,1.935-12.173,3.521-17.887,5.787c6.56,0.144,13.291,1.539,18.843,4.498
				c-5.184,0.515-10.275,2.133-15.488,2.726c4.674-0.72,10.604,1.061,14.938,1.987c0.144-0.09,0.049,1.843,0.026,1.812
				c-11.61,0.752-23.202,2.766-35.006,3.076c-0.622,0.153,0.376,0.028,0.525,0.022c7.406-2.137,15.025-3.125,22.366-4.551
				c-4.351-0.266-8.534-1.672-12.808-2.07c4.782-1.84,9.772-3.731,14.958-4.928c0.563,0.01,0.566,0.019,0.01,0.027
				c-7.618-0.004-15.236-0.002-22.854-0.002c3.345-0.371,6.547-1.334,9.73-1.888c-1.993-0.016-4.227-0.108-6.215-0.227
				c4.482-0.713,8.812-2.594,12.844-3.775c0.053-0.041-2.685,0.037-2.808-0.086c2.104-0.799,4.783-1.742,6.653-3.051
				c-6.375,0.041-13.377,0.148-19.329-0.326c4.941-1.403,9.824-3.039,14.854-3.674c-6.318-0.018-12.608-0.125-18.704-0.84
				c4.775-2.217,10.215-4.125,15.365-5.146c0.28,0.013,0.561,0.017,0.841,0.013c-4.97-0.136-9.763-0.84-14.73-0.978
				c0.815-0.719,4.474-1.731,5.439-2.035c0.376-0.383-2.534-0.799-2.307-0.977c3.374-1.01,6.976-2.877,10.573-3.635
				c-2.479,0.037-5.483-0.451-8.186-0.353c3.177-0.715,6.247-2.533,8.797-3.397c-2.253-0.644-4.405-0.486-6.771-0.715
				c1.177-1.726,3.841-1.47,4.895-2.91c-1.419-0.791-3.897,0.071-5.017-1.392c1.793-0.805,4.354-1.061,5.932-2.221
				c0.098-0.299,0.116-0.604,0.056-0.916c-2.884-0.357-7.935-2.309-10.59-2.475C154.11,129.734,155.07,130.727,159.089,130.77z"/>
			
				<radialGradient id="SVGID_16_" cx="121.5974" cy="147.4519" r="129.0048" gradientTransform="matrix(1 0 0 -1 -8.3599 288.2495)" gradientUnits="userSpaceOnUse">
				<stop  offset="0" style="stop-color:#EDD494"/>
				<stop  offset="1" style="stop-color:#EDD494;stop-opacity:0"/>
			</radialGradient>
			<path fill="url(#SVGID_16_)" d="M151.839,187.645c10.418,0.151,21.383-0.652,31.818-1.375c0.184-0.013,0.108-0.017-0.227-0.013
				c-9.461,1.191-18.786,3.033-28.039,5.273c8.854-0.053,21.034-2.475,29.182,1.676c-7.864,2.771-16.74,3.445-24.914,5.324
				c4.414-0.098,9.197,0.584,13.21,2.432c-3.523,0.34-7.497,0.931-10.27,2.756c1.423,0.095,2.995,0.728,4.461,0.851
				c-1.784,0.914-3.702,2.481-5.979,2.895c5.826,0.146,14.735-1.457,19.254,2.318c-6.216,1.41-13.257-0.391-19.244,1.676
				c3.859,1.094,7.829,2.484,10.989,5.033c-5.305-0.781-10.607-2.639-15.975-2.932c-0.02-0.019-0.01,0.934,0.017,0.909
				c7.449,1.943,14.716,3.964,21.911,6.812c-6.261,0.113-12.472-0.688-18.729-0.512c-0.188-0.004-0.193-0.009-0.014-0.013
				c5.084,1.252,8.999,5.173,12.036,8.974c-8.563-0.004-15.916-4.871-24.528-4.711c-0.214,0.002-0.2,0,0.037-0.006
				c5.021,0.604,9.22,3.317,12.876,6.653c-1.601-0.481-3.33-0.451-4.87-0.858c2.301,1.264,3.037,3.149,4.476,4.672
				c-6.749,0.1-13.278-2.002-19.912-2.729c1.483,1.412,2.461,3.345,3.671,4.691c-1.375-1.594-3.914-2.41-5.254-3.387
				c0.006,0.973-0.129,2.104-0.021,3.18c-1.456-1.353-3.437-3.465-4.621-5.381c1.396,0.821,3.021,1.021,4.316,1.631
				c-0.509-0.881-0.932-2.103-1.317-2.979c6.049,0.404,12.219-0.065,18.19,0.918c-3.049-3.971-8.497-6-12.69-8.668
				c6.438-0.166,12.636,0.332,18.887,1.718c-2.891-2.783-7.049-3.519-10.209-5.906c3.885-0.219,7.78,0.026,11.646,0.213
				c-4.122-1.576-8.888-2.002-12.386-4.713c3.9-0.791,7.842-2.332,11.711-2.738c-3.064-0.578-6.181-1.555-8.86-3.072
				c2.674,0.129,5.619-0.106,8.108-0.184c-2.633-0.379-5.252-1.35-7.664-2.119c2.675-0.721,5.251-1.715,7.887-2.484
				c-0.073-0.022,0.248-0.631,0.28-0.649c-1.653-0.17-3.083-0.709-4.735-0.853c2.367-0.483,4.852-1.405,6.984-1.895
				c-3.504-0.303-6.856-0.478-9.66-2.512c3.156-0.871,6.521-1.875,9.404-2.994c-0.633-0.229-1.51,0.008-2.166-0.092
				c1.779-0.479,3.541-1.408,5.471-1.722c0.187,0.004,0.191,0.011,0.02,0.015c-4.583-0.146-9.264-0.576-13.692-1.5
				c0.449-0.187-0.48-0.281-0.537-0.3c1.242-0.387,2.566-1.312,3.713-1.694C154.696,188.549,153.166,187.945,151.839,187.645z"/>
			
				<radialGradient id="SVGID_17_" cx="121.5974" cy="147.446" r="129.0088" gradientTransform="matrix(1 0 0 -1 -8.3599 288.2495)" gradientUnits="userSpaceOnUse">
				<stop  offset="0" style="stop-color:#EDD494"/>
				<stop  offset="1" style="stop-color:#EDD494;stop-opacity:0"/>
			</radialGradient>
			<path fill="url(#SVGID_17_)" d="M146.089,46.77c9.354-4.429,21.317-4.625,31.515-6.668c-0.06,0.004,0.875-0.078,0.39,0
				c-6.574,0.446-13.268,2.305-19.748,1.432c4.042-1.148,8.392-2.736,10.647-5.723c-2.414,0.682-4.939,0.813-7.449,1.797
				c2.013-1.494,3.543-3.738,5.042-5.137c-4.441,1.342-8.888,3.473-13.52,4.245c2.841-3.561,6.949-7.606,9.513-11.229
				c-3.312,1.166-7.065,2.438-10.208,4.246c1.095-1.012,2.457-2.556,3.642-3.586c-3.486,1.938-7.131,3.979-10.536,5.936
				c2.248-2.707,2.942-6.147,3.838-9.264c-4.708,0.518-9.294,2.068-13.846,3.606c0.979-1.01,2.007-2.407,2.87-3.312
				c-2.066,1.971-4.942,3.479-7.196,5.311c0.755-2.194,1.068-4.93,1.831-6.967c-2.497,3.197-3.979,7.59-4.307,11.877
				c1.811-2.137,4.447-3.496,6.312-5.438c0.127,0.264-0.831,1.692-0.598,1.848c3.606-2.104,7.485-3.391,11.282-2.906
				c-2.283,3.035-4.354,6.369-5.923,9.547c3.292-1.332,7.277-2.504,10.83-3.245c-1.586,1.827-2.135,4.178-3.514,5.92
				c0.978,0.104,2.244-1.216,3.254-1.597c0.055,1.134-1.406,2.24-1.257,3.24c1.937-0.287,4.034-0.106,6.015-0.266
				c0.146-0.093,0.07-0.111-0.359-0.023C151.792,42.512,148.911,44.764,146.089,46.77z"/>
		</g>
		<g>
			<g>
				<polygon fill="#876612" points="89.487,44.624 55.903,38.508 89.651,43.638 				"/>
			</g>
			<g>
				<polygon fill="#876612" points="89.62,48.797 72.736,49.977 89.521,47.801 				"/>
			</g>
			<g>
				<polygon fill="#876612" points="89.61,61.344 65.236,62.832 89.528,60.348 				"/>
			</g>
			<g>
				<polygon fill="#876612" points="89.608,65.898 44.57,68.861 89.532,64.902 				"/>
			</g>
			<g>
				<polygon fill="#876612" points="137.519,213.465 154.402,212.283 137.618,214.461 				"/>
			</g>
			<g>
				<polygon fill="#876612" points="137.528,200.918 161.902,199.43 137.61,201.914 				"/>
			</g>
			<g>
				<polygon fill="#876612" points="137.53,196.361 182.568,193.398 137.606,197.357 				"/>
			</g>
			<g>
				<polygon fill="#876612" points="137.535,174.438 156.562,173.693 137.602,175.437 				"/>
			</g>
			<g>
				<polygon fill="#876612" points="137.537,167.489 167.235,166.066 137.602,168.487 				"/>
			</g>
			<g>
				<polygon fill="#876612" points="137.559,147.881 182.568,147.484 137.578,148.881 				"/>
			</g>
			<g>
				<polygon fill="#876612" points="137.563,142.418 169.569,142.535 137.575,143.418 				"/>
			</g>
			<g>
				<polygon fill="#876612" points="137.576,125.705 182.569,126.848 137.562,126.705 				"/>
			</g>
			<g>
				<polygon fill="#876612" points="137.586,117.35 154.402,118.427 137.553,118.35 				"/>
			</g>
			<g>
				<polygon fill="#876612" points="137.581,114.066 169.569,115.4 137.556,115.066 				"/>
			</g>
			<g>
				<polygon fill="#876612" points="137.609,92.281 171.235,95.473 137.529,93.277 				"/>
			</g>
			<g>
				<polygon fill="#876612" points="136.508,90.026 181.472,93.734 136.436,91.024 				"/>
			</g>
			<g>
				<polygon fill="#876612" points="137.61,69.584 164.328,72.295 137.528,70.58 				"/>
			</g>
			<g>
				<polygon fill="#876612" points="137.605,67.211 169.569,70.082 137.531,68.207 				"/>
			</g>
			<g>
				<polygon fill="#876612" points="137.536,47.358 164.328,46.07 137.603,48.356 				"/>
			</g>
			<g>
				<polygon fill="#876612" points="89.604,87.821 70.576,88.568 89.537,86.823 				"/>
			</g>
			<g>
				<polygon fill="#876612" points="89.602,94.771 59.903,96.193 89.537,93.772 				"/>
			</g>
			<g>
				<polygon fill="#876612" points="89.58,114.381 44.57,114.777 89.561,113.381 				"/>
			</g>
			<g>
				<polygon fill="#876612" points="89.575,119.842 57.569,119.725 89.563,118.842 				"/>
			</g>
			<g>
				<polygon fill="#876612" points="89.562,136.555 44.569,135.412 89.576,135.555 				"/>
			</g>
			<g>
				<polygon fill="#876612" points="89.553,144.912 72.736,143.834 89.586,143.912 				"/>
			</g>
			<g>
				<polygon fill="#876612" points="89.558,148.193 57.569,146.859 89.583,147.193 				"/>
			</g>
			<g>
				<polygon fill="#876612" points="89.529,169.98 55.903,166.787 89.609,168.984 				"/>
			</g>
			<g>
				<polygon fill="#876612" points="90.631,172.233 45.667,168.527 90.703,171.235 				"/>
			</g>
			<g>
				<polygon fill="#876612" points="89.528,192.677 62.811,189.967 89.61,191.682 				"/>
			</g>
			<g>
				<polygon fill="#876612" points="89.533,195.051 57.569,192.18 89.607,194.055 				"/>
			</g>
			<g>
				<polygon fill="#876612" points="89.603,214.903 62.811,216.189 89.536,213.905 				"/>
			</g>
			<g>
				<polygon fill="#876612" points="98.144,36.008 91.902,24.797 98.997,35.488 				"/>
			</g>
			<g>
				<polygon fill="#876612" points="112.833,30.691 112.569,21.465 113.829,30.609 				"/>
			</g>
			<g>
				<polygon fill="#876612" points="119.786,32.514 121.902,29.297 120.687,32.951 				"/>
			</g>
			<g>
				<polygon fill="#876612" points="129.763,35.588 135.07,21.465 130.71,35.908 				"/>
			</g>
			<g>
				<polygon fill="#876612" points="135.02,38.184 141.763,31.016 135.781,38.832 				"/>
			</g>
			<g>
				<polygon fill="#876612" points="137.291,37.634 141.763,33.797 138.004,38.335 				"/>
			</g>
			<g>
				<polygon fill="#876612" points="90.508,38.982 68.167,31.016 90.824,38.033 				"/>
			</g>
			<g>
				<polygon fill="#876612" points="96.231,222.84 79.416,236.797 95.575,222.086 				"/>
			</g>
			<g>
				<polygon fill="#876612" points="104.024,226.004 98.57,236.797 103.114,225.59 				"/>
			</g>
			<g>
				<polygon fill="#876612" points="110.069,223.797 109.569,240.797 109.069,223.797 				"/>
			</g>
			<g>
				<polygon fill="#876612" points="112.401,223.754 113.236,239.131 111.405,223.84 				"/>
			</g>
			<g>
				<polygon fill="#876612" points="116.328,222.199 126.236,239.131 115.479,222.727 				"/>
			</g>
			<g>
				<polygon fill="#876612" points="126.547,219.23 144.565,234.131 125.926,220.016 				"/>
			</g>
			<g>
				<polygon fill="#876612" points="133.239,211.654 165.903,234.131 132.683,212.486 				"/>
			</g>
		</g>
		<polygon opacity="0.4" fill="#876612" enable-background="new    " points="148.563,194.264 147.915,192.791 149.21,190.695 
			148.291,188.014 147.995,186.172 148.209,184.287 148.633,181.846 148.161,179.814 148.884,177.797 148.781,174.011 
			144.878,173.574 142.656,172.766 140.884,172.072 140.507,170.754 140.629,168.748 140.651,167.025 142.462,164.529 
			141.358,162.201 142.494,159.816 140.476,157.363 140.534,155.881 141.135,153.484 140.635,151.684 141.655,150.5 
			142.406,149.195 144.096,148.844 146.1,147.545 148.171,145.84 147.899,143.264 147.973,141.594 150.061,139.016 148.703,136.131 
			148.423,134.557 149.638,132.273 148.536,127.771 149.661,125.621 149.335,122.941 148.758,120.877 150.038,116.604 
			145.106,116.552 143.24,114.91 141.238,114.168 140.683,113.361 141.594,111.293 140.708,109.262 142.313,107.135 
			141.502,104.346 141.277,102.252 140.587,100.24 141.622,97.934 140.416,95.516 140.692,93.744 140.844,91.783 141.484,91.184 
			144.882,92.078 145.961,89.17 148.87,89.088 148.837,85.369 148.376,83.311 149.069,81.557 149.456,78.891 149.262,76.568 
			148.785,74.373 148.822,72.623 149.784,70.1 148.549,67.621 148.416,65.832 148.55,63.906 149.657,59.947 145.301,59.195 
			143.044,57.283 141.391,57.293 141.612,56.799 142.131,54.154 141.958,51.85 141.272,49.549 141.132,47.891 141.927,45.738 
			141.616,43.271 141.187,41.535 142.646,39.02 140.246,36.299 138.348,35.074 135.782,33.559 133.077,34.08 131.191,33.354 
			129.317,33.172 127.656,31.221 124.403,30.529 122.09,31.316 120.516,30.225 117.787,29.834 116.103,29.641 113.798,27.17 
			110.35,28.561 108.592,29.523 106.361,29.445 103.908,30.201 101.405,31.172 99.85,32.5 97.646,32.328 95.294,33.453 
			93.321,34.01 90.771,34.48 88.891,35.844 86.706,36.072 84.853,38.891 85.286,41.373 85.066,43.176 84.308,45.736 85.62,48.295 
			86.186,49.844 85.39,52.016 86.433,54.404 86.457,55.834 85.548,57.342 84.295,58.689 81.345,58.479 78.396,60.77 77.521,63.449 
			77.535,66.086 78.315,68.377 78.592,69.926 77.431,71.906 77.104,74.768 78.086,76.938 77.9,78.564 77.206,80.586 76.977,83.389 
			77.631,85.514 77.17,89.047 80.928,89.896 82.69,90.688 84.412,91.205 84.874,91.871 84.607,93.266 84.388,96.145 85.949,98.479 
			86.077,99.787 84.333,102.105 84.953,104.652 84.511,106.539 84.425,109.084 84.428,111.305 85.016,113.652 84.918,114.795 
			83.833,116.141 82.102,116.82 76.311,116.469 78.356,120.834 77.33,122.74 77.215,125.6 78.085,127.938 78.277,129.992 
			78.712,131.84 77.259,134.057 77.863,136.914 78.31,138.797 77.684,141.004 78.084,143.184 76.385,147.677 81.234,147.336 
			84.269,150.1 85.737,150.217 85.525,151.326 85.906,153.432 85.345,155.281 85.058,158.141 86.103,160.261 85.762,162.261 
			86.206,164.197 85.184,166.154 84.924,168.852 85.395,170.707 83.79,173.346 82.163,173.74 76.039,173.23 79.018,177.992 
			79.026,179.17 76.851,181.447 77.414,184.338 78.413,186.445 78.092,188.316 78.24,190.342 77.562,192.213 77.016,195.152 
			78.306,197.189 77.542,199.322 78.888,201.609 81.042,204.912 84.503,203.734 85.186,204.355 84.934,206.127 85.676,208.52 
			85.574,210.873 86.408,213.193 86.322,215.302 86.338,217.469 85.464,221.895 84.203,226.941 89.203,226.041 90.719,226.959 
			92.674,228.035 95.296,229.682 97.946,228.949 101.384,231.334 104.035,232.205 108.973,232.365 110.676,232.604 113.359,235.094 
			115.703,232.9 117.933,233.607 120.915,232.93 123.082,231.594 124.771,230.66 127.333,230.533 129.171,228.977 131.241,228.955 
			133.622,228.176 136.096,227.445 138.12,225.982 139.947,225.17 141.533,222.529 141.128,219.787 141.077,217.832 
			142.123,215.066 140.381,212.6 140.617,211.092 142.013,208.467 141.188,205.805 141.212,204.75 142.868,204.209 144.874,202.896 
			148.922,202.927 148.738,199.436 149.839,196.988 		"/>
		<g>
			
				<radialGradient id="SVGID_18_" cx="-348.8582" cy="-9.3469" r="127.4841" gradientTransform="matrix(0.005 -1 -0.484 -0.0024 110.5876 -217.9028)" gradientUnits="userSpaceOnUse">
				<stop  offset="0" style="stop-color:#E2BD47"/>
				<stop  offset="1" style="stop-color:#D79C32"/>
			</radialGradient>
			<polygon fill="url(#SVGID_18_)" points="113.33,29.99 115.119,32.045 117.249,32.308 119.359,32.631 121.165,33.971 
				123.647,33.066 125.712,33.537 127.314,35.551 129.458,35.772 131.425,36.584 133.785,36.098 135.646,37.273 137.178,38.335 
				138.623,40.089 137.481,42.194 137.981,44.3 138.229,46.402 137.502,48.507 137.671,50.614 138.291,52.722 138.438,54.83 
				138.083,56.941 137,59.526 140.216,59.504 142.186,61.292 145.049,61.82 144.396,64.318 144.257,66.469 144.405,68.619 
				145.406,70.769 144.641,72.919 144.598,75.065 145.047,77.215 145.216,79.367 144.957,81.52 144.162,83.672 144.648,85.828 
				144.668,88.042 142.412,88.109 141.537,90.63 138.911,89.891 137.3,91.499 137.133,93.891 136.812,96.088 137.837,98.287 
				136.916,100.486 137.666,102.682 137.885,104.879 138.483,107.08 136.933,109.281 137.829,111.482 136.922,113.688 
				138.12,115.548 140.152,116.355 142.097,118.188 145.289,118.224 144.521,120.969 145.12,123.191 145.372,125.411 
				144.287,127.633 144.82,129.854 145.311,132.07 144.206,134.291 144.576,136.514 145.554,138.736 143.871,140.961 
				143.779,143.189 143.966,145.084 142.764,146.154 141.15,147.271 139.186,147.709 138.338,149.371 136.922,151.133 
				137.48,153.285 136.978,155.439 136.896,157.594 138.55,159.743 137.591,161.896 138.545,164.052 137.084,166.208 
				137.058,168.364 136.934,170.523 137.533,172.773 139.853,173.746 142.12,174.63 144.631,174.93 144.687,177.119 
				143.972,179.257 144.434,181.395 144.088,183.532 143.858,185.67 144.179,187.805 144.863,189.941 143.629,192.082 
				144.509,194.222 145.443,196.362 144.543,198.506 144.652,200.719 142.016,200.697 139.938,202.153 137.619,202.961 
				137.569,205.277 138.234,207.572 137.098,209.863 136.762,212.156 138.277,214.453 137.466,216.75 137.521,219.048 
				137.84,221.35 136.853,223.108 135.447,223.777 133.658,225.162 131.625,225.805 129.612,226.51 127.375,226.533 
				125.648,228.099 123.443,228.216 121.563,229.329 119.717,230.547 117.636,231.052 115.102,230.191 113.331,231.966 
				111.562,230.209 109.424,229.888 107.213,229.788 104.986,229.732 102.975,229.023 101.177,227.679 99.369,226.354 
				96.881,227.088 95.04,225.851 93.159,224.738 91.305,223.532 88.356,224.102 88.997,221.355 89.4,219.061 89.845,216.77 
				89.83,214.476 89.918,212.179 89.147,209.882 89.24,207.584 88.573,205.283 88.865,203.094 87.018,201.297 84.088,202.366 
				82.734,200.146 81.84,198.515 82.555,196.376 81.291,194.239 81.647,192.101 82.371,189.963 82.225,187.828 82.568,185.691 
				81.565,183.552 81.176,181.411 83.086,179.271 83.07,177.127 81.579,174.572 84.608,174.843 86.966,174.229 88.236,172.068 
				89.062,170.529 88.552,168.377 88.745,166.223 89.799,164.068 89.336,161.918 89.68,159.766 88.688,157.609 88.869,155.454 
				89.479,153.298 89.115,151.139 89.556,148.673 87.097,148.465 85.646,147.033 84.176,145.633 81.318,145.849 82.254,143.197 
				81.873,140.976 82.461,138.756 81.971,136.534 81.531,134.312 82.89,132.096 82.383,129.875 82.189,127.651 81.416,125.427 
				81.499,123.204 82.619,120.977 81.433,118.269 84.682,118.48 86.982,117.513 88.49,115.509 88.637,113.693 88.077,111.495 
				88.074,109.296 88.12,107.098 88.6,104.902 88.1,102.705 89.646,100.504 89.447,98.302 88.069,96.102 88.22,93.896 88.57,91.937 
				87.529,90.321 85.62,89.729 83.848,88.876 81.515,88.312 81.816,85.836 81.199,83.686 81.326,81.536 82.016,79.387 
				82.245,77.236 81.336,75.09 81.565,72.939 82.744,70.787 82.386,68.635 81.701,66.482 81.689,64.326 82.302,62.318 
				84.217,60.726 87.092,60.947 88.846,58.929 89.961,56.948 89.927,54.843 89.068,52.737 89.788,50.635 89.072,48.53 
				88.062,46.424 88.646,44.315 88.885,42.207 88.54,40.096 89.579,38.404 91.291,38.212 93.082,36.822 95.166,36.41 97.191,35.798 
				99.105,34.818 101.369,35.008 103.101,33.427 105.064,32.605 107.077,31.943 109.314,32.026 111.146,30.934 			"/>
			<polygon fill="none" stroke="#876612" stroke-width="3" stroke-miterlimit="10" points="113.33,29.99 115.119,32.045 
				117.249,32.308 119.359,32.631 121.165,33.971 123.647,33.066 125.712,33.537 127.314,35.551 129.458,35.772 131.425,36.584 
				133.785,36.098 135.646,37.273 137.178,38.335 138.623,40.089 137.481,42.194 137.981,44.3 138.229,46.402 137.502,48.507 
				137.671,50.614 138.291,52.722 138.438,54.83 138.083,56.941 137,59.526 140.216,59.504 142.186,61.292 145.049,61.82 
				144.396,64.318 144.257,66.469 144.405,68.619 145.406,70.769 144.641,72.919 144.598,75.065 145.047,77.215 145.216,79.367 
				144.957,81.52 144.162,83.672 144.648,85.828 144.668,88.042 142.412,88.109 141.537,90.63 138.911,89.891 137.3,91.499 
				137.133,93.891 136.812,96.088 137.837,98.287 136.916,100.486 137.666,102.682 137.885,104.879 138.483,107.08 136.933,109.281 
				137.829,111.482 136.922,113.688 138.12,115.548 140.152,116.355 142.097,118.188 145.289,118.224 144.521,120.969 
				145.12,123.191 145.372,125.411 144.287,127.633 144.82,129.854 145.311,132.07 144.206,134.291 144.576,136.514 
				145.554,138.736 143.871,140.961 143.779,143.189 143.966,145.084 142.764,146.154 141.15,147.271 139.186,147.709 
				138.338,149.371 136.922,151.133 137.48,153.285 136.978,155.439 136.896,157.594 138.55,159.743 137.591,161.896 
				138.545,164.052 137.084,166.208 137.058,168.364 136.934,170.523 137.533,172.773 139.853,173.746 142.12,174.63 
				144.631,174.93 144.687,177.119 143.972,179.257 144.434,181.395 144.088,183.532 143.858,185.67 144.179,187.805 
				144.863,189.941 143.629,192.082 144.509,194.222 145.443,196.362 144.543,198.506 144.652,200.719 142.016,200.697 
				139.938,202.153 137.619,202.961 137.569,205.277 138.234,207.572 137.098,209.863 136.762,212.156 138.277,214.453 
				137.466,216.75 137.521,219.048 137.84,221.35 136.853,223.108 135.447,223.777 133.658,225.162 131.625,225.805 129.612,226.51 
				127.375,226.533 125.648,228.099 123.443,228.216 121.563,229.329 119.717,230.547 117.636,231.052 115.102,230.191 
				113.331,231.966 111.562,230.209 109.424,229.888 107.213,229.788 104.986,229.732 102.975,229.023 101.177,227.679 
				99.369,226.354 96.881,227.088 95.04,225.851 93.159,224.738 91.305,223.532 88.356,224.102 88.997,221.355 89.4,219.061 
				89.845,216.77 89.83,214.476 89.918,212.179 89.147,209.882 89.24,207.584 88.573,205.283 88.865,203.094 87.018,201.297 
				84.088,202.366 82.734,200.146 81.84,198.515 82.555,196.376 81.291,194.239 81.647,192.101 82.371,189.963 82.225,187.828 
				82.568,185.691 81.565,183.552 81.176,181.411 83.086,179.271 83.07,177.127 81.579,174.572 84.608,174.843 86.966,174.229 
				88.236,172.068 89.062,170.529 88.552,168.377 88.745,166.223 89.799,164.068 89.336,161.918 89.68,159.766 88.688,157.609 
				88.869,155.454 89.479,153.298 89.115,151.139 89.556,148.673 87.097,148.465 85.646,147.033 84.176,145.633 81.318,145.849 
				82.254,143.197 81.873,140.976 82.461,138.756 81.971,136.534 81.531,134.312 82.89,132.096 82.383,129.875 82.189,127.651 
				81.416,125.427 81.499,123.204 82.619,120.977 81.433,118.269 84.682,118.48 86.982,117.513 88.49,115.509 88.637,113.693 
				88.077,111.495 88.074,109.296 88.12,107.098 88.6,104.902 88.1,102.705 89.646,100.504 89.447,98.302 88.069,96.102 
				88.22,93.896 88.57,91.937 87.529,90.321 85.62,89.729 83.848,88.876 81.515,88.312 81.816,85.836 81.199,83.686 81.326,81.536 
				82.016,79.387 82.245,77.236 81.336,75.09 81.565,72.939 82.744,70.787 82.386,68.635 81.701,66.482 81.689,64.326 
				82.302,62.318 84.217,60.726 87.092,60.947 88.846,58.929 89.961,56.948 89.927,54.843 89.068,52.737 89.788,50.635 
				89.072,48.53 88.062,46.424 88.646,44.315 88.885,42.207 88.54,40.096 89.579,38.404 91.291,38.212 93.082,36.822 95.166,36.41 
				97.191,35.798 99.105,34.818 101.369,35.008 103.101,33.427 105.064,32.605 107.077,31.943 109.314,32.026 111.146,30.934 			"/>
		</g>
		<g>
			
				<radialGradient id="SVGID_19_" cx="122.0964" cy="157.1179" r="145.1068" gradientTransform="matrix(1 0 0 -1 -8.3599 288.2495)" gradientUnits="userSpaceOnUse">
				<stop  offset="0" style="stop-color:#EDD494"/>
				<stop  offset="1" style="stop-color:#EDD494;stop-opacity:0"/>
			</radialGradient>
			<path fill="url(#SVGID_19_)" d="M94.583,41.766c2.965,0.209,5.936-0.341,8.808-0.769c-1.11,0.418-2.236,1.047-3.445,1.435
				c2.31,0.051,4.64-0.091,6.948-0.107c-2.185,3.293-6.692,4.217-10.306,5.656c3.826-0.615,8.594-2.334,12.341-1.523
				c-1.719,2.025-4.648,2.758-7.307,3.015c0.537-0.08,1.075-0.183,1.6-0.326c-3.326,1.617-6.916,2.721-10.391,4.002
				c4.916,0.045,9.461-0.697,14.221-1.49c0.1,0.488-0.501,0.418-0.482,0.779c2.103-0.834,4.725-1.084,6.831-0.138
				c-2.532,0.892-5.361,1.89-7.856,3.179c-0.118-0.009-0.122-0.013-0.012-0.013c3.176-0.026,6.454-0.993,9.503-0.133
				c-2.694,5.574-13.675,5.945-18.921,8.441c6.707-2.031,13.189-1.472,19.929-2.283c-2.087,2.662-7.003,3.223-9.475,5.777
				c0.744,0.01,1.537,0.034,2.286,0.018c-5.395,0.357-10.758,2.338-15.911,3.854c4.634-0.021,9.199,0.045,13.599,1.151
				c-0.001,0-0.006,0.785,0.007,0.803c-4.76,1.693-9.665,3.314-14.438,5.052c3.916-0.045,7.784,0.186,11.654,0.485
				c0.022-0.012-1.236,0.523-1.521,0.634c0.625-0.002,1.566-0.138,2.154,0.067c-0.133,0.234-1.496,0.385-1.478,0.791
				c-0.019-0.016,0.021,0.791,0.01,0.812c0.456,0.233,1.15,0.006,1.331,0.532c-3.669,2.191-8.009,3.035-11.589,5.468
				c4.782-0.052,10.164-0.371,14.882,0.731c-0.117-0.211-0.406,0.076-0.305,0.131c0.165,0.254,0.6,0.398,0.799,0.666
				c-3.18,2.207-8.988,0.855-12.145,3.166c3.333,0,14.988-2.551,18.457-2.646c6.538-0.178,12.475,3.897,18.983,4.322
				c-1.822-1.326-3.697-2.607-5.578-3.861c1.818,0.316,3.637,0.324,5.464,0.313c-0.341-0.098-1.024-0.321-1.445-0.506
				c1.463-0.018,2.755-0.793,3.955-1.082c-3.66-2.071-15.336-4.062-15.119-9.694c2.737,0.848,6.181,0.213,8.628,0.153
				c-0.407-0.11-1.074-0.043-1.51-0.032c3.434-2.291,7.84-0.386,11.691-0.789c-5.199-0.91-11.518-3.949-16.146-6.519
				c0.959,0.111,1.822-0.256,2.625-0.322c-0.188-0.17-1.403-0.84-1.484-1.041c1.556-3.688,9.358-1.432,12.923-1.797
				c-3.985-0.528-7.216-2.569-10.803-4c0.474-0.082,1.267-0.424,1.849-0.532c-1.371-2.363-3.601-3.941-6.312-4.509
				c3.158-0.803,6.543-0.979,9.685-1.789c-4.188-1.598-8.453-3.95-11.951-6.766c2.434,0.123,5.01,0.104,7.343,0.613
				c-3.283-0.849-11.644-3.814-10.738-7.992c5.461-0.08,10.737,1.754,16.141,1.611c-5.394-2.968-12.079-7.604-18.269-8.478
				C107.136,35.281,101.158,42.229,94.583,41.766z"/>
			
				<radialGradient id="SVGID_20_" cx="122.0964" cy="157.1189" r="145.1067" gradientTransform="matrix(1 0 0 -1 -8.3599 288.2495)" gradientUnits="userSpaceOnUse">
				<stop  offset="0" style="stop-color:#EDD494"/>
				<stop  offset="1" style="stop-color:#EDD494;stop-opacity:0"/>
			</radialGradient>
			<path fill="url(#SVGID_20_)" d="M125.903,140.465c-11.569,4.513,9.249,4.517,11.652,4.8c-2.661-0.824-5.734-0.591-8.01-2.31
				c0.768-0.395,1.611-0.815,2.529-1.027c-0.009-0.004-1.312-0.538-1.325-0.502c3.015-1.483,6.331-3.004,9.135-4.928
				c-2.615-0.174-5.381-0.02-7.473-1.697c0.791-0.61,1.68-1.989,2.142-2.35c-0.16-0.283-0.819-0.021-0.838-0.479
				c1.646-1.906,3.945-2.984,6.095-4.185c-2.668-0.414-5.312-0.938-8.049-0.85c-0.85-0.734-1.873-1.877-3.188-2.775
				c2.424-1.248,5.105-1.85,7.815-1.899c-1.937-1.074-4.491-1.884-5.845-3.468c1.546-1.225,0.841-1.639,1.673-3.127
				c-5.383-2.778-10.226-0.584-8.008,5.828c1.65,4.773,6.886,6.562,6.105,12.525c-0.354,2.717-1.771,4.938-4.08,6.44"/>
			
				<radialGradient id="SVGID_21_" cx="122.0964" cy="157.1169" r="145.0998" gradientTransform="matrix(1 0 0 -1 -8.3599 288.2495)" gradientUnits="userSpaceOnUse">
				<stop  offset="0" style="stop-color:#EDD494"/>
				<stop  offset="1" style="stop-color:#EDD494;stop-opacity:0"/>
			</radialGradient>
			<path fill="url(#SVGID_21_)" d="M97.248,222.506c5.612,0.916,11.619-1.506,16.288-4.301c-6.255-1.649-11.628-4.707-18.347-4.076
				c-0.245,0.006-0.245,0.013,0,0.021c4.387-0.539,8.894-1.795,12.956-3.619c-0.09,0.02-0.765-0.18-0.81-0.141
				c2.433-0.449,4.705-1.482,6.891-2.269c-6.846-0.779-13.824-3.436-20.889-3.99c2.49-0.146,4.401-1.131,6.764-1.584
				c-2.034-0.59-3.627-1.717-5.443-2.364c6.582,1.325,13.202-1.603,18.916-4.318c-7.324-0.508-15.436-2.467-22.316-3.658
				c3.865-0.147,7.813-1.033,11.285-2.742c-4.408-1.866-9.668-2.479-12.93-6.258c1.476-1.004,3.85-2.262,5.613-2.75
				c0.051-0.354-0.927-1.584-0.912-1.594c4.146-0.414,8.295-1.213,12.236-2.465c-3.146-2.576-5.938-5.98-7.345-9.824
				c11.354,8.098,17.589,8.996,30.01,2.01c-1.834,1.945-2.96,4.533-4.961,6.48c5.818-0.109,4.947,1.684,10.814,1.504
				c-4.938,1.961-3.982,0.998-8.473,3.83c2.85-0.058,5.759,0.844,8.562,0.801c-3.819,1.174-8.075,2.473-10.901,4.606
				c2.64,0.123,5.395,0.955,8.258,0.636c-3.917,0.85-7.679,2.551-10.233,5.299c5.327,0.383,11.613-0.652,16.318-1.291
				c-5.829,2.19-14.893,3.34-17.651,9.281c4.528,0.91,9.46-0.453,13.854-1.955c-3.327,2.158-7.096,4.172-10.548,5.957
				c1.505-0.068,3.3,0.371,4.621,0.393c-1.227,0.953-2.719,3.099-3.604,3.939c1.524,0.407,2.615,0.754,3.951,1.401
				c-2.701,2.039-5.199,4.668-8.318,6.363c3.582,2.627,8.476,3.98,13.237,3.619c-6.325,2.465-11.606,6.549-18.573,7.016
				C115.57,226.463,101.475,225.328,97.248,222.506z"/>
			
				<radialGradient id="SVGID_22_" cx="122.0955" cy="157.1189" r="145.0999" gradientTransform="matrix(1 0 0 -1 -8.3599 288.2495)" gradientUnits="userSpaceOnUse">
				<stop  offset="0" style="stop-color:#EDD494"/>
				<stop  offset="1" style="stop-color:#EDD494;stop-opacity:0"/>
			</radialGradient>
			<path fill="url(#SVGID_22_)" d="M99.91,150.797c1.112-0.5,3.207-3.209,4.868-6.016c-3.77-2.018-7.396-4.533-11.44-5.582
				c1.38,0.766,2.892,1.25,4.198,1.924c-0.974,1.193-2.468,2.484-3.254,3.607c1.577,0.305,3.039,1.174,4.343,1.725
				c-1.783,1.082-3.449,3.58-5.021,4.607c2.155,0.391,4.42,0.237,6.633-0.267L99.91,150.797L99.91,150.797z"/>
			
				<radialGradient id="SVGID_23_" cx="122.0955" cy="157.1189" r="145.1043" gradientTransform="matrix(1 0 0 -1 -8.3599 288.2495)" gradientUnits="userSpaceOnUse">
				<stop  offset="0" style="stop-color:#EDD494"/>
				<stop  offset="1" style="stop-color:#EDD494;stop-opacity:0"/>
			</radialGradient>
			<path fill="url(#SVGID_23_)" d="M104.085,116.717c-0.667-3.498-7.593-8.004-10.842-8.684c1.608,0.131,2.359,0.926,2.849,2.354
				c-0.435,0.2-0.864,0.524-1.254,0.733c8.621,6.756-2.418,7.555-7.658,11.017c1.475-0.046,2.961-0.15,4.425-0.24
				c0.022,0.149-0.515,0.932-0.604,1.117c0.084,0.053,0.847,0.141,0.846,0.133c-0.67,1.1-1.679,2.262-2.732,3.143
				c-0.312,0.287,0.409,0.037,0.749,0.092C89.861,126.381,104.918,121.088,104.085,116.717z"/>
		</g>
		<g opacity="0.6">
			<g>
				<polygon fill="#876612" points="81.626,193.907 110.902,197.736 81.513,194.901 				"/>
			</g>
			<g>
				<polygon fill="#876612" points="81.529,74.633 102.236,73.463 81.609,75.629 				"/>
			</g>
			<g>
				<path fill="#876612" d="M81.627,78.959c0,0,0.002-0.003,0.005-0.011c0.012-0.011-0.02,0.015,0.078-0.138
					c0.042-0.06,0.104-0.117,0.173-0.161c0.047-0.026,0.052-0.025,0.082-0.04c0.058-0.026,0.104-0.04,0.146-0.051
					c0.183-0.05,0.38-0.071,0.63-0.092c0.495-0.036,1.174-0.046,1.986-0.04c1.623,0.016,3.772,0.099,5.922,0.202
					c4.299,0.209,8.588,0.501,8.588,0.501s-4.301-0.043-8.598-0.001c-2.147,0.021-4.295,0.062-5.896,0.143
					c-0.799,0.04-1.464,0.089-1.904,0.147c-0.218,0.028-0.387,0.063-0.444,0.086c-0.02,0.005-0.024,0.01-0.012,0.004l0.021-0.012
					c0.055-0.031,0.102-0.08,0.13-0.127c0.067-0.137,0.033-0.084,0.036-0.08c-0.002,0.008-0.004,0.012-0.004,0.012L81.627,78.959z"
					/>
			</g>
			<g>
				<polygon fill="#876612" points="144.435,84.279 126.236,78.834 144.696,83.314 				"/>
			</g>
			<g>
				<polygon fill="#876612" points="144.418,75.608 126.236,69.463 144.713,74.653 				"/>
			</g>
			<g>
				<polygon fill="#876612" points="141.763,147.359 120.236,146.859 141.763,146.359 				"/>
			</g>
			<g>
				<polygon fill="#876612" points="137.647,170.631 118.902,170.131 137.647,169.631 				"/>
			</g>
			<g>
				<polygon fill="#876612" points="90.266,216.236 109.569,217.906 90.234,217.236 				"/>
			</g>
			<g>
				<polygon fill="#876612" points="137.812,212.543 124.236,216.736 137.483,211.598 				"/>
			</g>
			<g>
				<polygon fill="#876612" points="81.569,134.631 101.791,135.131 81.569,135.631 				"/>
			</g>
			<g>
				<polygon fill="#876612" points="144.529,126.295 121.902,124.131 144.602,125.299 				"/>
			</g>
			<g>
				<polygon fill="#876612" points="137.554,112.954 121.902,109.463 137.741,111.972 				"/>
			</g>
			<g>
				<polygon fill="#876612" points="137.425,53.91 118.902,44.131 137.87,53.016 				"/>
			</g>
			<g>
				<polygon fill="#876612" points="137.687,98.295 128.863,98.488 137.608,97.299 				"/>
			</g>
			<g>
				<path fill="#876612" d="M87.105,102.98c0,0,3.022-0.676,6.047-1.352c1.514-0.327,3.029-0.647,4.171-0.865
					c1.14-0.233,1.913-0.302,1.913-0.302s-0.763,0.129-1.878,0.453c-1.117,0.31-2.602,0.75-4.081,1.197
					c-2.955,0.916-5.91,1.832-5.91,1.832L87.105,102.98z"/>
			</g>
			<g>
				<polygon fill="#876612" points="137.647,164.631 128.275,164.131 137.647,163.631 				"/>
			</g>
		</g>
		<g opacity="0.6">
			<g>
				<path fill="#876612" d="M89.569,184.131c0,0,0.378-0.016,1.037-0.019c0.658,0.007,1.601-0.012,2.728,0.017
					c0.563,0.018,1.174,0.033,1.819,0.053c0.646,0.027,1.322-0.027,2.021-0.021c1.4-0.026,2.892-0.015,4.382-0.011
					c3-0.047,5.998-0.022,8.256,0.08c1.128,0.04,2.066,0.119,2.725,0.151c0.657,0.045,1.032,0.084,1.032,0.084
					s-0.375,0.05-1.031,0.111c-0.657,0.052-1.594,0.155-2.718,0.226c-2.244,0.152-5.25,0.293-8.255,0.348
					c-1.511-0.025-3.023-0.053-4.438-0.112c-0.706-0.03-1.393-0.038-2.032-0.114c-0.642-0.078-1.247-0.152-1.807-0.223
					c-1.118-0.141-2.047-0.302-2.698-0.394C89.94,184.203,89.569,184.131,89.569,184.131z"/>
			</g>
			<g>
				<path fill="#876612" d="M95.903,210.465c0,0,0.269-0.057,0.739-0.132c0.472-0.064,1.144-0.187,1.953-0.281
					c1.616-0.203,3.778-0.39,5.944-0.494c2.168-0.062,4.342-0.046,5.974,0.033c0.815,0.031,1.498,0.104,1.974,0.132
					c0.477,0.038,0.749,0.074,0.749,0.074s-0.271,0.054-0.741,0.119c-0.472,0.059-1.146,0.168-1.955,0.248
					c-1.619,0.176-3.781,0.322-5.947,0.392c-2.165,0.098-4.336,0.116-5.967,0.066c-0.814-0.018-1.497-0.075-1.974-0.096
					C96.176,210.496,95.903,210.465,95.903,210.465z"/>
			</g>
			<g>
				<path fill="#876612" d="M139.903,193.797c0,0-0.259,0.111-0.719,0.283c-0.462,0.162-1.114,0.422-1.91,0.684
					c-0.398,0.129-0.83,0.269-1.286,0.417c-0.462,0.134-0.92,0.344-1.413,0.507c-0.974,0.359-2.021,0.707-3.068,1.057
					c-2.105,0.727-4.228,1.4-5.867,1.789c-0.812,0.209-1.503,0.341-1.979,0.452c-0.479,0.102-0.757,0.146-0.757,0.146
					s0.252-0.13,0.698-0.332c0.449-0.192,1.083-0.498,1.856-0.812c1.545-0.625,3.618-1.458,5.725-2.189
					c1.072-0.337,2.146-0.675,3.158-0.958c0.507-0.142,0.993-0.296,1.466-0.381c0.471-0.09,0.917-0.173,1.327-0.251
					c0.823-0.15,1.521-0.235,2.004-0.314C139.623,193.823,139.903,193.797,139.903,193.797z"/>
			</g>
			<g>
				<path fill="#876612" d="M138.569,188.797c0,0-0.721,0.457-1.849,1.02c-0.562,0.288-1.224,0.604-1.969,0.876
					c-0.734,0.289-1.535,0.562-2.334,0.838c-1.595,0.506-3.222,0.916-4.44,1.206c-1.225,0.286-2.074,0.396-2.074,0.396
					s0.735-0.426,1.892-0.938c1.152-0.536,2.728-1.104,4.321-1.614c0.791-0.251,1.579-0.505,2.333-0.71
					c0.754-0.197,1.456-0.417,2.064-0.584C137.728,188.941,138.569,188.797,138.569,188.797z"/>
			</g>
			<g>
				<path fill="#876612" d="M117.236,137.131c0,0,0.244-0.021,0.669-0.034c0.424-0.006,1.032-0.039,1.757-0.029
					c1.452,0.007,3.38,0.1,5.3,0.272c1.919,0.243,3.83,0.565,5.251,0.872c0.713,0.146,1.3,0.312,1.712,0.406
					c0.411,0.104,0.646,0.179,0.646,0.179s-0.245,0.015-0.671,0.015c-0.424-0.011-1.033,0.006-1.756-0.028
					c-1.448-0.054-3.364-0.211-5.271-0.447c-1.92-0.181-3.832-0.439-5.261-0.697c-0.715-0.123-1.307-0.269-1.723-0.35
					C117.473,137.197,117.236,137.131,117.236,137.131z"/>
			</g>
			<g>
				<path fill="#876612" d="M95.903,127.465c0,0,0.249-0.048,0.687-0.106c0.438-0.051,1.062-0.15,1.812-0.219
					c1.499-0.15,3.498-0.269,5.498-0.304c2-0.049,4.002-0.018,5.503,0.072c0.75,0.036,1.376,0.111,1.812,0.143
					c0.438,0.042,0.688,0.08,0.688,0.08s-0.25,0.052-0.688,0.115c-0.438,0.054-1.062,0.16-1.811,0.235
					c-1.499,0.166-3.498,0.3-5.497,0.354c-2,0.028-4.001-0.021-5.503-0.125c-0.75-0.044-1.376-0.124-1.814-0.159
					C96.154,127.505,95.903,127.465,95.903,127.465z"/>
			</g>
			<g>
				<path fill="#876612" d="M93.903,89.131c0,0,0.251,0.01,0.684,0.047c0.217,0.021,0.479,0.048,0.78,0.076
					c0.301,0.042,0.641,0.036,1.005,0.049c0.365,0.011,0.757,0.021,1.169,0.048c0.418-0.004,0.858-0.01,1.314-0.015
					c0.455,0.015,0.926-0.011,1.404-0.034c0.479-0.021,0.967-0.025,1.452-0.06c1.956-0.128,3.912-0.255,5.379-0.351
					c0.742-0.034,1.359-0.063,1.793-0.084c0.435-0.017,0.686-0.012,0.686-0.012s-0.236,0.082-0.654,0.203
					c-0.42,0.105-1.013,0.309-1.741,0.46c-0.727,0.166-1.575,0.348-2.5,0.473c-0.463,0.06-0.936,0.157-1.426,0.185
					c-0.489,0.041-0.984,0.082-1.481,0.124c-0.498,0.022-0.999,0.017-1.49,0.026c-0.491,0.02-0.977-0.014-1.445-0.054
					c-0.469-0.03-0.919-0.07-1.348-0.123c-0.432-0.069-0.835-0.149-1.205-0.224c-0.75-0.115-1.312-0.381-1.731-0.5
					C94.135,89.226,93.903,89.131,93.903,89.131z"/>
			</g>
			<g>
				<path fill="#876612" d="M92.236,66.797c0,0,0.363-0.096,1.004-0.238c0.641-0.135,1.553-0.354,2.654-0.564
					c2.201-0.438,5.146-0.937,8.104-1.357c2.959-0.412,5.93-0.747,8.165-0.935c1.117-0.101,2.056-0.141,2.708-0.188
					c0.654-0.039,1.03-0.048,1.03-0.048s-0.363,0.097-1.003,0.239c-0.643,0.134-1.553,0.354-2.654,0.565
					c-2.201,0.438-5.147,0.937-8.105,1.355c-2.959,0.413-5.93,0.746-8.165,0.935c-1.117,0.101-2.056,0.142-2.708,0.189
					C92.612,66.788,92.236,66.797,92.236,66.797z"/>
			</g>
			<g>
				<path fill="#876612" d="M94.569,60.797c0,0,0.273-0.096,0.759-0.237c0.486-0.135,1.177-0.354,2.014-0.565
					c1.672-0.438,3.915-0.937,6.173-1.359c2.236-0.494,4.488-0.91,6.194-1.16c0.852-0.133,1.569-0.198,2.069-0.267
					c0.501-0.057,0.791-0.076,0.791-0.076s-0.271,0.105-0.75,0.268c-0.481,0.15-1.163,0.396-1.993,0.638
					c-1.658,0.499-3.889,1.079-6.136,1.582c-2.259,0.415-4.532,0.75-6.248,0.938c-0.856,0.102-1.578,0.144-2.079,0.191
					C94.859,60.788,94.569,60.797,94.569,60.797z"/>
			</g>
			<g>
				<path fill="#876612" d="M97.236,49.131c0,0,0.48-0.198,1.213-0.364c0.182-0.043,0.38-0.091,0.59-0.125
					c0.213-0.032,0.416-0.118,0.638-0.162c0.437-0.117,0.902-0.201,1.368-0.291c0.468-0.115,0.934-0.234,1.383-0.312
					c0.22-0.054,0.445-0.062,0.646-0.12c0.201-0.053,0.396-0.091,0.578-0.126c0.722-0.146,1.252-0.165,1.252-0.165
					s-0.395,0.328-1.056,0.705c-0.329,0.193-0.722,0.41-1.173,0.552c-0.444,0.163-0.932,0.303-1.417,0.442
					c-0.507,0.077-1.014,0.152-1.489,0.188c-0.479,0.06-0.909,0.025-1.283-0.018C97.739,49.266,97.236,49.131,97.236,49.131z"/>
			</g>
			<g>
				<path fill="#876612" d="M96.903,46.465c0,0,0.173-0.214,0.462-0.405c0.288-0.199,0.691-0.384,1.114-0.488
					c0.391-0.141,0.804-0.202,1.146-0.19c0.339,0.004,0.61,0.085,0.61,0.085s-0.139,0.229-0.414,0.454
					c-0.271,0.233-0.679,0.468-1.107,0.622c-0.425,0.101-0.867,0.12-1.215,0.074C97.154,46.576,96.903,46.465,96.903,46.465z"/>
			</g>
			<g>
				<path fill="#876612" d="M139.903,67.131c0,0-0.638,0.039-1.568-0.032c-0.932-0.062-2.156-0.23-3.365-0.479
					c-1.208-0.253-2.399-0.583-3.28-0.896c-0.882-0.305-1.452-0.595-1.452-0.595s0.639-0.04,1.568,0.031
					c0.933,0.062,2.156,0.232,3.365,0.479c1.208,0.253,2.399,0.585,3.28,0.896C139.333,66.842,139.903,67.131,139.903,67.131z"/>
			</g>
		</g>
		<g>
			<g>
				
					<linearGradient id="SVGID_24_" gradientUnits="userSpaceOnUse" x1="121.9285" y1="196.616" x2="121.9285" y2="117.0392" gradientTransform="matrix(1 0 0 -1 -8.3599 288.2495)">
					<stop  offset="0" style="stop-color:#EFECB4"/>
					<stop  offset="0.3394" style="stop-color:#9C7C69"/>
					<stop  offset="0.5" style="stop-color:#EFECB4"/>
					<stop  offset="0.6585" style="stop-color:#9C7C69"/>
					<stop  offset="1" style="stop-color:#EFECB4"/>
				</linearGradient>
				<path fill="url(#SVGID_24_)" d="M120.014,121.16c-1.557-1.555-1.556-4.101,0-5.656l7.168-7.168
					c1.557-1.556,1.557-4.101,0.001-5.655l-10.785-10.785c-1.557-1.557-4.102-1.557-5.656,0L99.956,102.68
					c-1.556,1.556-1.556,4.101,0.001,5.655l7.168,7.168c1.556,1.557,1.557,4.103,0,5.656l-7.169,7.17
					c-1.556,1.555-1.556,4.102,0,5.656l7.496,7.496c1.556,1.556,1.556,4.101,0,5.656l-7.496,7.495c-1.556,1.557-1.556,4.102,0,5.656
					l10.785,10.785c1.556,1.556,4.101,1.556,5.656,0l10.785-10.785c1.556-1.556,1.556-4.101,0-5.656l-7.496-7.495
					c-1.557-1.557-1.557-4.102,0-5.656l7.496-7.496c1.556-1.556,1.556-4.103,0-5.656L120.014,121.16z"/>
				<path fill="none" stroke="#93763D" stroke-miterlimit="10" d="M120.014,121.16c-1.557-1.555-1.556-4.101,0-5.656l7.168-7.168
					c1.557-1.556,1.557-4.101,0.001-5.655l-10.785-10.785c-1.557-1.557-4.102-1.557-5.656,0L99.956,102.68
					c-1.556,1.556-1.556,4.101,0.001,5.655l7.168,7.168c1.556,1.557,1.557,4.103,0,5.656l-7.169,7.17
					c-1.556,1.555-1.556,4.102,0,5.656l7.496,7.496c1.556,1.556,1.556,4.101,0,5.656l-7.496,7.495c-1.556,1.557-1.556,4.102,0,5.656
					l10.785,10.785c1.556,1.556,4.101,1.556,5.656,0l10.785-10.785c1.556-1.556,1.556-4.101,0-5.656l-7.496-7.495
					c-1.557-1.557-1.557-4.102,0-5.656l7.496-7.496c1.556-1.556,1.556-4.103,0-5.656L120.014,121.16z"/>
			</g>
			<g>
				
					<rect x="104.685" y="96.326" transform="matrix(-0.7071 0.7071 -0.7071 -0.7071 268.2668 99.2926)" fill="#A55137" stroke="#84341F" stroke-miterlimit="10" width="17.767" height="17.766"/>
				
					<rect x="106.166" y="97.82" transform="matrix(-0.7072 0.707 -0.707 -0.7072 268.278 99.3424)" fill="#D69E8A" stroke="#AF6C58" stroke-miterlimit="10" width="14.806" height="14.805"/>
				<g>
					<circle fill="#9B3123" stroke="#60150F" stroke-width="2" stroke-miterlimit="10" cx="113.57" cy="105.215" r="5.063"/>
					<circle stroke="#60150F" stroke-miterlimit="10" cx="113.57" cy="105.215" r="2.43"/>
					<path fill="none" stroke="#D69E8A" stroke-linecap="round" stroke-miterlimit="10" d="M109.778,105.215
						c0-2.094,1.697-3.791,3.791-3.791"/>
					<g>
						<path fill="#D69E8A" d="M115.663,103.427c0,0,0.108,0.078,0.284,0.227c0.186,0.133,0.404,0.373,0.639,0.747
							c0.103,0.185,0.188,0.399,0.271,0.635c0.027,0.244,0.128,0.51,0.081,0.791c-0.006,0.283-0.066,0.569-0.174,0.851
							c-0.125,0.267-0.26,0.545-0.46,0.768c-0.186,0.238-0.43,0.415-0.661,0.589c-0.246,0.158-0.509,0.273-0.773,0.349
							c-0.257,0.098-0.533,0.104-0.775,0.117c-0.253-0.012-0.484-0.021-0.689-0.101c-0.21-0.047-0.385-0.13-0.528-0.229
							c-0.148-0.079-0.265-0.165-0.346-0.258c-0.17-0.169-0.25-0.268-0.25-0.268s0.126,0.034,0.347,0.094
							c0.101,0.041,0.233,0.056,0.379,0.071c0.144,0.027,0.304,0.031,0.477,0.019c0.169,0.01,0.35-0.048,0.534-0.072
							c0.18-0.059,0.371-0.106,0.551-0.2c0.188-0.074,0.351-0.206,0.527-0.316c0.156-0.135,0.326-0.264,0.443-0.436
							c0.151-0.146,0.242-0.333,0.341-0.509c0.071-0.188,0.163-0.366,0.187-0.562c0.062-0.189,0.029-0.385,0.06-0.574
							c-0.03-0.185-0.039-0.374-0.066-0.544c-0.051-0.16-0.085-0.318-0.12-0.466c-0.047-0.146-0.111-0.272-0.149-0.379
							C115.703,103.555,115.663,103.427,115.663,103.427z"/>
					</g>
				</g>
				
					<rect x="104.684" y="122.269" transform="matrix(-0.7071 0.7071 -0.7071 -0.7071 286.6111 143.585)" fill="#A55137" stroke="#84341F" stroke-miterlimit="10" width="17.767" height="17.765"/>
				
					<rect x="106.165" y="123.765" transform="matrix(-0.7072 0.707 -0.707 -0.7072 286.6201 143.6351)" fill="#D69E8A" stroke="#AF6C58" stroke-miterlimit="10" width="14.806" height="14.804"/>
				<g>
					<circle fill="#9B3123" stroke="#60150F" stroke-width="2" stroke-miterlimit="10" cx="113.57" cy="131.158" r="5.063"/>
					<circle stroke="#60150F" stroke-miterlimit="10" cx="113.57" cy="131.158" r="2.43"/>
					<path fill="none" stroke="#D69E8A" stroke-linecap="round" stroke-miterlimit="10" d="M109.778,131.158
						c0-2.094,1.697-3.791,3.791-3.791"/>
					<g>
						<path fill="#D69E8A" d="M115.663,129.371c0,0,0.108,0.078,0.284,0.227c0.186,0.133,0.404,0.372,0.639,0.746
							c0.103,0.186,0.188,0.4,0.271,0.636c0.027,0.244,0.128,0.511,0.081,0.791c-0.006,0.282-0.066,0.568-0.173,0.851
							c-0.126,0.266-0.261,0.544-0.46,0.768c-0.187,0.237-0.431,0.415-0.662,0.589c-0.246,0.157-0.509,0.273-0.773,0.349
							c-0.256,0.098-0.532,0.104-0.775,0.118c-0.252-0.013-0.483-0.021-0.688-0.102c-0.21-0.047-0.385-0.13-0.528-0.227
							c-0.149-0.079-0.266-0.166-0.347-0.258c-0.17-0.169-0.25-0.269-0.25-0.269s0.126,0.034,0.347,0.095
							c0.101,0.041,0.233,0.056,0.379,0.07c0.144,0.027,0.304,0.032,0.477,0.02c0.169,0.01,0.35-0.049,0.534-0.073
							c0.181-0.06,0.372-0.107,0.551-0.202c0.188-0.074,0.351-0.206,0.527-0.315c0.156-0.135,0.326-0.265,0.443-0.437
							c0.151-0.146,0.242-0.333,0.341-0.508c0.071-0.188,0.163-0.366,0.187-0.562c0.062-0.189,0.029-0.386,0.06-0.574
							c-0.03-0.186-0.039-0.374-0.066-0.544c-0.051-0.16-0.085-0.318-0.12-0.467c-0.047-0.145-0.111-0.271-0.149-0.379
							C115.703,129.498,115.663,129.371,115.663,129.371z"/>
					</g>
				</g>
				
					<rect x="104.686" y="148.572" transform="matrix(-0.7071 0.7071 -0.7071 -0.7071 305.2135 188.4801)" fill="#A55137" stroke="#84341F" stroke-miterlimit="10" width="17.767" height="17.766"/>
				
					<rect x="106.164" y="150.069" transform="matrix(-0.7072 0.707 -0.707 -0.7072 305.2152 188.5436)" fill="#D69E8A" stroke="#AF6C58" stroke-miterlimit="10" width="14.806" height="14.805"/>
				<g>
					<circle fill="#9B3123" stroke="#60150F" stroke-width="2" stroke-miterlimit="10" cx="113.57" cy="157.463" r="5.063"/>
					<circle stroke="#60150F" stroke-miterlimit="10" cx="113.57" cy="157.463" r="2.43"/>
					<path fill="none" stroke="#D69E8A" stroke-linecap="round" stroke-miterlimit="10" d="M109.778,157.463
						c0-2.094,1.697-3.791,3.791-3.791"/>
					<g>
						<path fill="#D69E8A" d="M115.663,155.676c0,0,0.108,0.078,0.284,0.227c0.186,0.133,0.404,0.373,0.639,0.747
							c0.103,0.185,0.188,0.399,0.271,0.635c0.027,0.244,0.128,0.511,0.081,0.791c-0.006,0.283-0.066,0.569-0.173,0.851
							c-0.126,0.267-0.261,0.544-0.46,0.768c-0.187,0.238-0.431,0.416-0.662,0.589c-0.246,0.158-0.509,0.274-0.773,0.349
							c-0.256,0.099-0.532,0.104-0.775,0.118c-0.252-0.013-0.483-0.021-0.688-0.101c-0.21-0.047-0.385-0.13-0.528-0.228
							c-0.149-0.079-0.266-0.166-0.347-0.258c-0.17-0.169-0.25-0.268-0.25-0.268s0.126,0.033,0.347,0.094
							c0.101,0.041,0.233,0.056,0.379,0.071c0.144,0.026,0.304,0.031,0.477,0.019c0.169,0.01,0.35-0.049,0.534-0.073
							c0.181-0.06,0.372-0.106,0.551-0.202c0.188-0.073,0.351-0.205,0.527-0.315c0.156-0.134,0.326-0.264,0.443-0.437
							c0.151-0.146,0.242-0.333,0.341-0.508c0.071-0.188,0.163-0.366,0.187-0.562c0.062-0.19,0.029-0.387,0.06-0.575
							c-0.03-0.185-0.039-0.374-0.066-0.544c-0.051-0.16-0.085-0.318-0.12-0.466c-0.047-0.146-0.111-0.272-0.149-0.379
							C115.703,155.802,115.663,155.676,115.663,155.676z"/>
					</g>
				</g>
			</g>
		</g>
		<g>
			<g>
				<g>
					<path fill="none" stroke="#876612" stroke-miterlimit="10" d="M180.236,214.84c0,10-5,18-14,21c-20,7-42,8-63,7
						c-14-1-28-4-42-7c-11-2-17-12-17-22c-3-56,1-112,2-168c0-8,6-15,13-18c21-7,44-9,66-8c14,1,26,5,40,7c4,1,7,5,11,8
						c3,4,6,8,6,13C183.236,103.84,180.236,158.84,180.236,214.84L180.236,214.84z"/>
				</g>
				<g>
					<path fill="none" stroke="#876612" stroke-miterlimit="10" d="M175.236,211.84c0,6-2,11-6,15c-2,1-3,4-5,4c-21,10-44,10-67,8
						c-8-1-16-3-25-4c-11-2-20-11-20-21c-3-55,1-110,1-165c3-17,22-22,37-23c2,0,5-2,7-2c22-3,44,1,65,7c2,1,4,2,6,4c2,3,4,6,6,9
						c1,2,2,5,2,7C177.236,104.84,174.236,157.84,175.236,211.84L175.236,211.84z"/>
				</g>
			</g>
		</g>
	</g>
</g>
</svg>
