<?xml version="1.0" encoding="utf-8"?>
<!-- Generator: Adobe Illustrator 18.0.0, SVG Export Plug-In . SVG Version: 6.00 Build 0)  -->
<!DOCTYPE svg PUBLIC "-//W3C//DTD SVG 1.1//EN" "http://www.w3.org/Graphics/SVG/1.1/DTD/svg11.dtd">
<svg version="1.1"
	 id="Layer_1" sodipodi:docname="roadTile_crossRoads.svg" inkscape:version="0.48.4 r9939" xmlns:osb="http://www.openswatchbook.org/uri/2009/osb" xmlns:svg="http://www.w3.org/2000/svg" xmlns:sodipodi="http://sodipodi.sourceforge.net/DTD/sodipodi-0.dtd" xmlns:rdf="http://www.w3.org/1999/02/22-rdf-syntax-ns#" xmlns:cc="http://creativecommons.org/ns#" xmlns:dc="http://purl.org/dc/elements/1.1/" xmlns:inkscape="http://www.inkscape.org/namespaces/inkscape"
	 xmlns="http://www.w3.org/2000/svg" xmlns:xlink="http://www.w3.org/1999/xlink" x="0px" y="0px" viewBox="0 0 200 200"
	 enable-background="new 0 0 200 200" xml:space="preserve">
<sodipodi:namedview  inkscape:pageopacity="0" inkscape:current-layer="Layer_1" inkscape:window-y="27" inkscape:guide-bbox="true" inkscape:window-x="0" inkscape:window-maximized="1" inkscape:pageshadow="2" inkscape:window-height="1014" inkscape:window-width="1920" showgrid="false" guidetolerance="10" inkscape:zoom="3.3941125" inkscape:cx="143.50655" inkscape:cy="102.49816" gridtolerance="10" showguides="true" bordercolor="#666666" pagecolor="#ffffff" objecttolerance="10" id="namedview3065" borderopacity="1">
	<sodipodi:guide  position="32.409061,205.65023" orientation="1,0" id="guide5940"></sodipodi:guide>
	<sodipodi:guide  position="167.5,221.66667" orientation="1,0" id="guide5942"></sodipodi:guide>
	<sodipodi:guide  position="100,254.79167" orientation="1,0" id="guide3053"></sodipodi:guide>
	<sodipodi:guide  position="56.250001,205.72917" orientation="1,0" id="guide3029"></sodipodi:guide>
	<sodipodi:guide  position="-5.2604168,167.44792" orientation="0,1" id="guide3094"></sodipodi:guide>
	<sodipodi:guide  position="-16.354167,32.395834" orientation="0,1" id="guide3096"></sodipodi:guide>
	<sodipodi:guide  position="-11.09375,49.791667" orientation="0,1" id="guide3098"></sodipodi:guide>
	<sodipodi:guide  position="-3.9062501,55.833334" orientation="0,1" id="guide3100"></sodipodi:guide>
	<sodipodi:guide  position="-7.4479168,100" orientation="0,1" id="guide3102"></sodipodi:guide>
	<sodipodi:guide  position="-6.3541668,149.73959" orientation="0,1" id="guide3104"></sodipodi:guide>
	<sodipodi:guide  position="-9.6354168,143.48959" orientation="0,1" id="guide3106"></sodipodi:guide>
	<sodipodi:guide  position="-0.073656958,195.04362" orientation="1,0" id="guide3110"></sodipodi:guide>
	<sodipodi:guide  position="-5.8925566,199.97864" orientation="0,1" id="guide3112"></sodipodi:guide>
	<sodipodi:guide  position="199.97864,0.77339805" orientation="1,0" id="guide3114"></sodipodi:guide>
	<sodipodi:guide  position="200.67838,0.073656958" orientation="0,1" id="guide3116"></sodipodi:guide>
	<sodipodi:guide  position="76.01398,-118.73502" orientation="1,0" id="guide4227"></sodipodi:guide>
	<sodipodi:guide  position="121.68129,-127.27922" orientation="1,0" id="guide4229"></sodipodi:guide>
	<sodipodi:guide  position="-66.880517,123.44906" orientation="0,1" id="guide4260"></sodipodi:guide>
	<sodipodi:guide  position="-86.031326,77.781747" orientation="0,1" id="guide4262"></sodipodi:guide>
	<sodipodi:guide  position="49.791667,196.14584" orientation="1,0" id="guide4660"></sodipodi:guide>
	<sodipodi:guide  position="143.64584,193.75" orientation="1,0" id="guide4662"></sodipodi:guide>
	<sodipodi:guide  position="149.89584,188.85417" orientation="1,0" id="guide4664"></sodipodi:guide>
	<sodipodi:guide  position="41.979167,158.95834" orientation="1,0" id="guide6413"></sodipodi:guide>
	<sodipodi:guide  position="69.583334,158.02084" orientation="0,1" id="guide6415"></sodipodi:guide>
	<sodipodi:guide  position="158.125,44.895834" orientation="1,0" id="guide6417"></sodipodi:guide>
	<sodipodi:guide  position="158.125,41.770834" orientation="0,1" id="guide6419"></sodipodi:guide>
</sodipodi:namedview>
<path id="path3101" inkscape:connector-curvature="0" sodipodi:nodetypes="cc" fill="none" stroke="#72612E" stroke-width="2.485" d="
	M199.1,142.4v6"/>
<path id="path3103" inkscape:connector-curvature="0" sodipodi:nodetypes="cc" fill="#B79C77" stroke="#B79C77" stroke-width="0.828" d="
	M188.6,167.4l-6.4-16"/>
<path id="path3105_1_" inkscape:connector-curvature="0" sodipodi:nodetypes="cc" fill="#B79C77" stroke="#B79C77" stroke-width="0.828" d="
	M152.2,180.4"/>
<path id="path3107_2_" inkscape:connector-curvature="0" sodipodi:nodetypes="cc" fill="none" stroke="#72612E" stroke-width="2.388" d="
	M166.6,198.1"/>
<path id="path3107_1_" inkscape:connector-curvature="0" sodipodi:nodetypes="cc" fill="none" stroke="#72612E" stroke-width="2.388" d="
	M199.1,165.8"/>
<path id="path3109" inkscape:connector-curvature="0" sodipodi:nodetypes="cc" fill="none" stroke="#72612E" stroke-width="2.388" d="
	M199.1,148.4c-27.6,0-50,22.3-50,49.7"/>
<path id="path3111" inkscape:connector-curvature="0" sodipodi:nodetypes="cc" fill="none" stroke="#72612E" stroke-width="2.485" d="
	M163.8,162.8L160,159"/>
<path id="path3113" inkscape:connector-curvature="0" sodipodi:nodetypes="cc" fill="none" stroke="#72612E" stroke-width="2.485" d="
	M142.8,198.1h6.4"/>
<radialGradient id="SVGID_1_" cx="0.3919" cy="199.3154" r="72.0156" gradientTransform="matrix(-2 0 0 1.9915 199.8744 -198.8181)" gradientUnits="userSpaceOnUse">
	<stop  offset="0" style="stop-color:#232323"/>
	<stop  offset="0.391" style="stop-color:#232323"/>
	<stop  offset="0.5283" style="stop-color:#303030"/>
	<stop  offset="0.8453" style="stop-color:#303030"/>
	<stop  offset="1" style="stop-color:#232323"/>
</radialGradient>
<path fill="url(#SVGID_1_)" d="M195.2,119.7c0,3.6-0.3,7.4-0.9,11.4c-0.5,3.9-1.4,7.8-2.5,11.6c0,0.1,0,0.1,0,0.2
	c2.4-0.3,4.8-0.5,7.3-0.5v-27.2C197.8,116.7,196.5,118.2,195.2,119.7z"/>
<path id="path3119" inkscape:connector-curvature="0" sodipodi:nodetypes="cc" fill="none" stroke="#72612E" stroke-width="2.485" d="
	M199.1,54.1v-6"/>
<path id="path3121_1_" inkscape:connector-curvature="0" sodipodi:nodetypes="cc" fill="#B79C77" stroke="#B79C77" stroke-width="0.828" d="
	M182.1,45"/>
<path id="path3125_1_" inkscape:connector-curvature="0" sodipodi:nodetypes="cc" fill="none" stroke="#72612E" stroke-width="2.388" d="
	M199.1,30.6"/>
<path fill="none" stroke="#72612E" stroke-width="2.388" d="M199.1,48c-14,0-27.6-6-37.1-16.4"/>
<path id="path3129" inkscape:connector-curvature="0" sodipodi:nodetypes="cc" fill="none" stroke="#72612E" stroke-width="2.485" d="
	M163.8,33.6l-3.8,3.8"/>
<path id="path3133" inkscape:connector-curvature="0" fill="none" stroke="#808080" d="M199.5,54l-0.6,87.8"/>
<path id="path4400" inkscape:connector-curvature="0" sodipodi:nodetypes="cc" fill="none" stroke="#72612E" stroke-width="2.485" d="
	M-1,142.4v6"/>
<path id="path3118_1_" inkscape:connector-curvature="0" sodipodi:nodetypes="cc" fill="none" stroke="#72612E" stroke-width="2.388" d="
	M-1,165.8"/>
<path id="path5461" inkscape:connector-curvature="0" sodipodi:nodetypes="cc" fill="none" stroke="#72612E" stroke-width="2.485" d="
	M-1,54.1v-6"/>
<path id="path5467_1_" inkscape:connector-curvature="0" sodipodi:nodetypes="cc" fill="none" stroke="#72612E" stroke-width="2.388" d="
	M-1,30.6"/>
<path fill="none" stroke="#101928" stroke-width="3.313" d="M199.1,54.1c-17.6,0-34.6-8.4-45.2-22.5"/>
<path id="path3135" inkscape:connector-curvature="0" sodipodi:nodetypes="cc" fill="none" stroke="#101928" stroke-width="3.313" d="
	M199.1,142.4c-31.1,0-56.3,25-56.3,55.8"/>
<path id="path4666" inkscape:connector-curvature="0" sodipodi:nodetypes="cc" fill="none" stroke="#F4D100" stroke-width="4.97" stroke-miterlimit="10" d="
	M180.8,98.2h-23.6"/>
<g>
	<g>
		<g>
			<g>
				<g>
					<g>
						<g>
							<defs>
								<path id="SVGID_2_" d="M-62.6-237l314.1,1.2c1.5,0,2.8,1.3,2.8,2.8l-2.7,742c0,1.5-1.3,2.8-2.8,2.8l-314.1-1.2
									c-1.5,0-2.8-1.3-2.8-2.8l2.7-742C-65.4-235.8-64.1-237-62.6-237z"/>
							</defs>
							<clipPath id="SVGID_3_">
								<use xlink:href="#SVGID_2_"  overflow="visible"/>
							</clipPath>
							<g clip-path="url(#SVGID_3_)">
								
									<linearGradient id="SVGID_4_" gradientUnits="userSpaceOnUse" x1="-216.6949" y1="-20.5457" x2="-76.7715" y2="-20.5457" gradientTransform="matrix(1 3.664295e-03 3.664295e-03 -1 241.9714 82.0026)">
									<stop  offset="0" style="stop-color:#41342A"/>
									<stop  offset="0" style="stop-color:#5A4230"/>
									<stop  offset="0" style="stop-color:#5E4430"/>
									<stop  offset="1" style="stop-color:#544132"/>
									<stop  offset="1" style="stop-color:#4B3B2E"/>
									<stop  offset="1" style="stop-color:#41342A"/>
								</linearGradient>
								<path fill="url(#SVGID_4_)" d="M29.1,96.8c0,11.9,1.1,11.9,1,23.7c0,11.9,2.2,11.9,2.1,23.7c0,11.9,0.4,11.8,0.3,23.7
									c0,11.9-5.5,11.8-5.6,23.7c0,8.9,0.8,11.1,1.2,16.6c30.5-3.1,61.1-3.2,91.8-0.5c4.8,0.4,9.6,0.8,14.4,1.3
									c9.4,0,18.8,0.2,28.3,0.4c-1.7-5.9-5.6-8-5.5-17.2c0-11.9,7.3-11.9,7.4-23.7c0-11.9-2.9-11.8-2.8-23.7
									c0-11.9,1.2-11.8,1.3-23.7c0-11.9,0.6-11.9,0.7-23.7c0-11.9,0.3-11.8,0.4-23.7S162.9,61.8,163,50c0-11.9,0.4-11.9,0.5-23.7
									c0-11.9-3.4-11.9-3.3-23.7c0-1.9,0-3.4,0.1-4.8C150.5-2.8,140.8-4,131.1-5C97.3-1.9,63.4,0,29.5-0.5
									c-0.1,0.8-0.1,1.6-0.1,2.5C29.3,13.9,29,13.9,29,25.7c0,11.9,0.2,11.9,0.1,23.7c0,11.9-1.7,11.9-1.8,23.7
									C27.2,85,29.1,85,29.1,96.8z"/>
								<path opacity="0.3" fill="#261915" enable-background="new    " d="M52.8,207.1l-1-0.2l-0.4-3.5l1.9-4l0.3-3.4l-4.7-2.3
									l1.1-3.6l-2.3-3l-1.1-3.2l1-3.5l-1.1-3.2l0.9-3.4l1.4-3.4l-1.4-3.2l-1-3.2l0.3-0.8c-4.3-0.8-8.3-2.7-11.6-5.4
									c0.1,2.7,0.2,5.8,0.1,11.2c0,6.4-1.5,9.6-3,12.7c-1.3,2.8-2.6,5.5-2.6,11c0,5.8,0.4,8.6,0.8,11.6c0.2,1.4,0.4,2.8,0.5,4.5
									C38.3,208.1,45.5,207.5,52.8,207.1z"/>
								<path opacity="0.3" fill="#261915" enable-background="new    " d="M49.6,30v-0.8l-0.9-3.3l2.8-3.2l-2-3.3l3-3.2l-0.3-3.3
									l-1-3.3l0.9-3.3l1-3.3l-1.9-2.8c-6.3,0.1-12.5,0.2-18.8,0C32.3,1,32.3,2,32.3,3c0,5.9-0.1,9-0.2,11.9
									c-0.1,2.9-0.2,5.9-0.2,11.8S32,35.6,32,38.5c0,0.1,0,0.2,0,0.2C36.3,33.7,42.6,30.4,49.6,30z"/>
								<g opacity="0.3">
									<path fill="#261915" d="M138.8,6.9l-1.1,3.3l2.1,3l-3.5,3.8l2.2,2.9l3.1,2.7l-1.9,2.3c6.5-0.1,13.1,2.2,17.7,7.3
										c0.9,0.9,2.9,2.5,2.6,2.4c0.8,0.6,1.6,1.1,2.4,1.7c0.1-2.3,0.1-5.1,0.1-9.4c0-5.6-0.8-8.4-1.6-11.3
										c-0.9-3-1.8-6.2-1.8-12.4c0-1.8,0-3.4,0.1-4.7c-7.5-0.6-15.1-1.5-22.6-2.3l-1,1l3.5,3.4l-4,3.2L138.8,6.9z"/>
									<path fill="#261915" d="M156.6,192.7c0-6.5,2.1-9.9,4-12.9c0.7-1.1,1.3-2.1,1.9-3.3c-2.5,0.8-5.1,1.3-7.8,1.3
										c-2.5,0-4.9-0.4-7.2-1.1l0.2,2.2l-0.7,3.3l0.3,3.3l0.7,3.3l-2.4,3.3l1.4,3.3l-0.9,3.3l1,3.3l-0.6,3.3l-1.7,3.2l0.2,1.3
										c5.7,0,11.4,0.1,17.1,0.3c-0.6-1.8-1.3-3.2-2.1-4.6C158.4,202.5,156.6,199.1,156.6,192.7z"/>
								</g>
								<g>
									<g opacity="0.5">
										<path fill="#60492F" d="M61.5,170.3c0.1,3.7,0.1,7.4,0.2,11.1c0,3.7,0.1,7.4,0.1,11.1v11.2c0,1,0,2,0,3.1
											c3.3-0.1,6.7-0.2,10-0.3c0-0.9,0-1.8,0-2.8v-11.3c0-3.8-0.1-7.5-0.2-11.3s-0.2-7.5-0.3-11.2c-0.1-3.7-0.2-7.4-0.3-11.1
											c-0.1-3.6-0.3-7.3-0.4-10.9c-0.2-7.3-0.2-14.4-0.3-21.4c-0.2-7,0.2-13.9,0.1-20.7v-10c0-3.3,0.1-6.6,0.2-9.8
											c0.1-6.5,0.3-12.7,0.6-18.8c0.3-6.1,0.5-12,0.8-17.6c0.1-2.8,0.2-5.6,0.3-8.3c0.1-2.7,0.3-5.3,0.4-7.9
											c0.3-5.2,0.5-10,0.8-14.2c0.2-4.5,0.6-8.8,0.8-12.8c0.1-2.4,0.2-4.7,0.3-6.9c-0.8,0-1.6,0.1-2.4,0.1
											c-0.2,2-0.5,4.1-0.8,6.3c-0.3,1.9-0.6,4-0.9,6.1c-0.2,1-0.3,2.1-0.5,3.2c-0.1,1.1-0.3,2.3-0.4,3.4
											c-0.5,4.6-1.1,9.5-1.8,14.6c-0.3,2.6-0.6,5.2-0.9,7.9s-0.5,5.5-0.8,8.3c-0.5,5.6-1,11.4-1.7,17.5
											C63.9,73,63.6,79.3,63,85.8c-0.2,3.3-0.4,6.6-0.6,9.9c-0.1,3.3-0.3,6.7-0.4,10.1c-0.2,3.4-0.3,6.8-0.4,10.3
											c0,1.7-0.1,3.4-0.1,5.2v5.3c0,7.1-0.2,14.3-0.2,21.6c0,3.7,0.1,7.3,0.1,11C61.5,162.9,61.4,166.6,61.5,170.3z"/>
									</g>
									<g opacity="0.5">
										<path fill="#60492F" d="M117.3,47.6c0.1,1.9,0.1,3.9,0.2,5.9c0,1,0.1,2,0.1,3s0.1,2,0.1,3c0.2,4.1,0.4,8.3,0.6,12.5
											c0.4,8.4,0.8,17.1,1.2,26c0.2,4.5,0.3,8.9,0.5,13.4c0.1,4.4,0.2,9,0.2,13.4c0,4.4,0.1,8.9-0.1,13.4l-0.1,3.4v3.3
											c-0.1,2.3-0.2,4.5-0.3,6.7c-0.5,8.9-0.9,17.6-1.3,26.1c-0.3,8.4-0.7,16.6-0.9,24.4c-0.1,2.1-0.1,4.1-0.2,6
											c1.3,0.1,2.6,0.2,3.9,0.3c0.6,0.1,1.2,0.1,1.8,0.2c0.2-2.1,0.3-4.1,0.5-6.3c0.6-7.8,1.4-15.9,2-24.4s1.4-17.2,2-26.1
											c0.1-2.2,0.3-4.5,0.4-6.7l0.1-0.8v-0.9l0.1-1.7l0.1-3.4c0.2-4.5,0.2-9.1,0.3-13.7c0-2.3,0-4.5-0.1-6.8s-0.1-4.5-0.2-6.8
											c-0.2-4.5-0.4-9-0.7-13.5c-0.3-4.4-0.5-8.8-0.9-13.2c-0.3-4.4-0.6-8.7-1-12.9c-0.4-4.2-0.7-8.3-1.1-12.4
											c-0.1-1-0.2-2-0.3-3s-0.2-2-0.3-3c-0.2-2-0.3-4-0.5-5.9c-0.6-7.7-1.3-15.1-1.7-21.8c-0.2-3.4-0.5-6.6-0.7-9.7
											c-0.3-3-0.6-6-0.8-8.4c-0.1-3.9-0.2-7.4-0.4-10.5c-0.7,0.1-1.3,0.1-2,0.2c-0.1,3-0.4,6.4-0.6,10.1
											c-0.2,2.9-0.2,5.8-0.2,8.9v9.8c0,3.4,0,7,0.1,10.6C117.1,39.9,117.2,43.7,117.3,47.6z"/>
									</g>
									<g>
										<path fill="#60492F" d="M105.8-2.2c0,0.6-0.1,1.3-0.1,1.9c-0.1,3.2-0.3,6.4-0.4,9.5c-0.2,3.2-0.1,6.3-0.1,9.3v4.4
											c0,0.8,0.1,1.5,0.1,2.2c0.1,0.7,0.1,1.4,0.2,2.1c0.2,2.8,0.6,5.3,0.9,7.7s0.6,4.6,0.7,6.5c0.2,1.9,0.2,3.6,0.2,5
											c-0.1,1.4-0.2,2.5-0.3,3.2c-0.1,0.7-0.2,1.1-0.2,1.1s0.1-0.4,0.4-1.1c0.2-0.7,0.5-1.8,0.8-3.2s0.5-3.1,0.6-5.1
											c0.2-2,0.2-4.2,0.1-6.6c-0.1-2.4-0.2-5-0.3-7.7v-2c0.1-0.7,0.1-1.4,0.1-2.1c0.1-1.4,0.1-2.9,0.2-4.4
											c0.1-3,0.3-6.1,0.4-9.2c0.2-3.1,0.3-6.3,0.5-9.5c0-0.8,0.1-1.5,0.1-2.3C108.4-2.4,107.1-2.3,105.8-2.2z"/>
									</g>
								</g>
								<path opacity="0.3" fill="#281D14" enable-background="new    " d="M163.6,169.2c0-2-0.1-3.7-0.2-5.1
									c-0.7,0.8-1.4,1.6-2.1,2.3c-6,5.9-14.2,9.9-22.7,10.5c0.2,10.9,0.3,21.8,0.2,32.9c7.7,0,15.4,0.2,23,0.3
									c-0.5-1.7-1.3-3.1-2.1-4.4c-1.6-3-3.4-6.4-3.4-12.8c0-6.5,2.1-9.9,4-12.9C162,177.1,163.6,174.6,163.6,169.2z"/>
								<path opacity="0.3" fill="#281D14" enable-background="new    " d="M139.4,28.4c3.5,2.1,6.4,5.2,8.5,8.7
									c6.6,3,11.7,8.9,13.8,15.9c0-0.7,0-1.4,0-2.2c0-6,0.1-9,0.2-11.9c0.1-2.9,0.2-5.9,0.2-11.8c0-5.6-0.8-8.4-1.6-11.3
									c-0.9-3-1.8-6.2-1.8-12.4c0-1.9,0-3.5,0.1-4.9c-7.2-0.5-14.3-1.4-21.5-2.2c0.5,6.2,1.1,12.5,1.5,18.9
									C139.2,19.7,139.4,24.1,139.4,28.4z"/>
								<path opacity="0.3" fill="#281D14" enable-background="new    " d="M33.4,50.5c3.6-2.1,7.7-3.2,11.8-3.3c0.1-1,0.1-2,0.2-3
									c1.1-15,3.3-29.4,5.2-44c-6,0.1-12,0.1-18.1,0c-0.1,0.8-0.1,1.7-0.1,2.7c0,5.9-0.1,9-0.2,11.9c-0.1,2.9-0.2,5.9-0.2,11.8
									s0.1,8.9,0.1,11.8c0.1,2.9,0.1,5.9,0.1,11.9c0,0.4,0,0.7,0,1.1C32.4,51.1,32.9,50.8,33.4,50.5z"/>
								<path opacity="0.3" fill="#281D14" enable-background="new    " d="M53.6,207.1c2.3-9,4.1-18.4,4.4-29.4
									c0-1.1,0.1-2.2,0.1-3.2c-4.9,0.3-9.9-0.9-14.2-3.4c-3.9-2.3-6.5-5.2-8.5-8.7c0,1.8,0,3.8,0,6.5c0,6.4-1.5,9.6-3,12.7
									c-1.3,2.8-2.6,5.5-2.6,11c0,5.8,0.4,8.6,0.8,11.6c0.2,1.4,0.4,2.9,0.5,4.6C38.5,208,46.1,207.5,53.6,207.1z"/>
							</g>
						</g>
					</g>
				</g>
			</g>
		</g>
	</g>
</g>
<g>
	<g>
		<g>
			<g>
				<g>
					<g>
						<g>
							<defs>
								<polygon id="SVGID_5_" points="-308.9,259.1 -294.7,-112.7 452.9,-110 438.7,261.8 								"/>
							</defs>
							<clipPath id="SVGID_6_">
								<use xlink:href="#SVGID_5_"  overflow="visible"/>
							</clipPath>
							<g clip-path="url(#SVGID_6_)">
								
									<linearGradient id="SVGID_7_" gradientUnits="userSpaceOnUse" x1="38.7486" y1="-16.3554" x2="178.672" y2="-16.3554" gradientTransform="matrix(-3.664294e-03 1 1 3.664294e-03 41.4666 -4.9108)">
									<stop  offset="0" style="stop-color:#41342A"/>
									<stop  offset="0" style="stop-color:#5A4230"/>
									<stop  offset="0" style="stop-color:#5E4430"/>
									<stop  offset="1" style="stop-color:#544132"/>
									<stop  offset="1" style="stop-color:#4B3B2E"/>
									<stop  offset="1" style="stop-color:#41342A"/>
								</linearGradient>
								<path fill="url(#SVGID_7_)" d="M30.6,173.4c11.1,0,11.8-2.5,21.5-2.8c-0.2-1.6-0.2-3.2-0.1-4.8c-4-7.8-6.9-16.2-9.4-24.7
									c-2.1-7.1-0.5-14.5,3.4-20.3c-2.6-4-4.2-8.7-4.1-13.7c0-5,0.5-10,1.6-14.9c1.8-7.8,7.8-13.7,15-16.4
									c0.1-1.9,0.5-3.8,1.1-5.6c-4.8-2.1-8.8-5.7-11.4-10.1c-3.3-5.7-4.2-12.5-2.5-18.9c-4.1,0.1-6.8,0.3-14.5,0.2
									c-11.9,0-11.8-5.5-23.7-5.6c-8.9,0-11.1,0.8-16.6,1.2c3.1,30.5,3.2,61.1,0.5,91.8c-0.4,4.8-0.8,9.6-1.3,14.4
									c0,9.4-0.2,18.8-0.4,28.3c5.9-1.7,8-5.6,17.2-5.5C18.8,166.1,18.8,173.4,30.6,173.4z"/>
								<path opacity="0.3" fill="#261915" enable-background="new    " d="M12.7,57.7l3-2.3l2.8-0.9c1.4-4.7,3.8-9,7-12.6
									c-1.6-0.5-3-1.2-4.3-1.8c-2.8-1.3-5.5-2.6-11-2.6c-5.8,0-8.6,0.4-11.6,0.8c-1.4,0.2-2.8,0.4-4.5,0.5
									c0.7,7.3,1.2,14.5,1.6,21.8l0.2-1l3.5-0.4l4,1.9l3.4,0.3l2.3-4.7L12.7,57.7z"/>
								<g opacity="0.3">
									<path fill="#261915" d="M33.8,171.4c5.7,0,8.4-0.7,11.4-1.4c2.4-0.6,5-1.2,9-1.4c-2.8-3.3-4.9-7.2-6.2-12
										c-0.1-0.4-0.2-0.8-0.3-1.2l-0.8-0.3l-3.3,1l-3.4-2.3l-3.3-1.9l-3.2,4.8l-3.3-2.3l-3.3,0.4l-3.3,0.3l-3.3-0.7l-3.3,0.3
										l-3.3,0.7l-3.3-2.4l-3.3,1.4L4,153.6l-3.3,1l-3.3-0.6l-3.2-1.9l-1.3,0.2c0,5.7-0.1,11.4-0.3,17.1c1.8-0.6,3.2-1.3,4.6-2.1
										c3-1.6,6.4-3.4,12.8-3.4c6.5,0,9.9,2.1,12.9,4C25.9,169.7,28.4,171.3,33.8,171.4z"/>
								</g>
								<g>
									<g opacity="0.5">
										<path fill="#60492F" d="M32.8,78.9c3.7-0.1,7.4-0.2,11.1-0.3c3.6-0.1,7.3-0.3,10.9-0.4C62,78,69,78,75.9,77.9
											c0.6-3.1,1.6-6.1,2.9-8.9h-2.7c-7.1,0-14.3-0.2-21.6-0.2c-3.7,0-7.3,0.1-11,0.1c-3.7,0.1-7.4,0.1-11.1,0.2
											c-3.7,0.1-7.4,0.1-11.1,0.2c-3.7,0-7.4,0.1-11.1,0.1l-14.3-0.1c0.1,3.3,0.2,6.7,0.3,10l14.1,0.1c3.8,0,7.5-0.1,11.3-0.2
											C25.4,79.1,29.1,79,32.8,78.9z"/>
									</g>
									<g opacity="0.5">
										<path fill="#60492F" d="M51.1,127L51.1,127c-8.9-0.5-17.6-0.9-26.1-1.3c-8.4-0.3-16.6-0.7-24.4-0.9
											c-2.1-0.1-4.1-0.1-6-0.2c-0.1,1.3-0.2,2.6-0.3,3.9c-0.1,0.6-0.1,1.2-0.2,1.8c2.1,0.2,4.1,0.3,6.3,0.5
											c7.8,0.6,15.9,1.4,24.4,2s17.2,1.4,26.1,2c2.2,0.1,4.4,0.3,6.6,0.4C55,132.8,52.8,130.1,51.1,127z"/>
									</g>
								</g>
								<path opacity="0.3" fill="#281D14" enable-background="new    " d="M11.2,165.3c6.5,0,9.9,2.1,12.9,4
									c2.5,1.5,4.6,2.9,8.5,3.3c-0.6-4.6-0.2-9.3,1-13.7c1.2-4.2,3.2-8.1,5.8-11.6c-15,0.2-29.9,0.6-45.1,0.4
									c0,7.7-0.2,15.4-0.3,23c1.7-0.5,3.1-1.3,4.4-2.1C1.4,167.1,4.8,165.3,11.2,165.3z"/>
								<path opacity="0.3" fill="#281D14" enable-background="new    " d="M36,64.1c1.9-3.2,3.5-6.5,5.3-9.8
									c2.5-4.6,6.1-8.3,10.2-11.1c-3.1,0-5.2,0.1-7.2,0.1c-2.9,0.1-6,0.2-11.9,0.2c-6.4,0-9.6-1.5-12.7-3c-2.8-1.3-5.5-2.6-11-2.6
									C3,37.8,0.2,38.1-2.8,38.5c-0.6,0.1-1.3,0.2-2,0.3c-1.5,0.2-2.5,1.5-2.4,2.9c0.6,6,0.9,12,1.3,18c0.1,1.2,0.9,2.2,2,2.5
									c8.4,2.1,17.2,3.6,27.5,3.9c3.4,0.1,6.7,0.1,10.1,0.1C34.4,65.4,35.2,64.7,36,64.1z"/>
								<g>
									<g>
										<g>
											<path opacity="0.5" fill="#262626" enable-background="new    " d="M22.2,139c0,0,0.6-0.4,0.4-1.9"/>
											<path opacity="0.5" fill="#262626" enable-background="new    " d="M17.5,132.7c-0.3-0.3-3,0.5-3,0.5"/>
										</g>
									</g>
								</g>
							</g>
						</g>
					</g>
				</g>
			</g>
		</g>
	</g>
</g>
<linearGradient id="SVGID_8_" gradientUnits="userSpaceOnUse" x1="93.3362" y1="338.6951" x2="233.2596" y2="338.6951" gradientTransform="matrix(2.857026e-02 -0.9996 -0.9996 -2.857026e-02 502.5059 273.6425)">
	<stop  offset="0" style="stop-color:#41342A"/>
	<stop  offset="0" style="stop-color:#574030"/>
	<stop  offset="0" style="stop-color:#5E4430"/>
	<stop  offset="0" style="stop-color:#5A4230"/>
	<stop  offset="1" style="stop-color:#544132"/>
	<stop  offset="1" style="stop-color:#4B3B2E"/>
	<stop  offset="1" style="stop-color:#41342A"/>
</linearGradient>
<path fill="url(#SVGID_8_)" d="M164.4,30.9c-11.1-0.3-11.9,2.2-21.6,2.3c0.2,1.6,0.1,3.2,0,4.8c3.8,7.9,6.5,16.4,8.8,24.9
	c1.9,7.2,0.1,14.5-3.9,20.2c2.5,4.1,4,8.8,3.8,13.8c-0.1,5-0.7,10-2,14.9c-2,7.8-8.1,13.5-15.4,16c-0.1,1.9-0.6,3.8-1.2,5.6
	c4.7,2.2,8.7,5.9,11.1,10.4c3.2,5.8,3.9,12.6,2,19c4.1,0,6.8-0.1,14.5,0.2c11.9,0.3,11.7,5.8,23.6,6.2c8.9,0.2,11.1-0.5,16.6-0.8
	c-2.3-30.6-1.7-61.2,1.8-91.8c0.5-4.8,1-9.6,1.7-14.4c0.2-9.4,0.7-18.8,1.1-28.3c-5.9,1.6-8.1,5.4-17.3,5.1
	C176,38.5,176.2,31.2,164.4,30.9z"/>
<g opacity="0.5">
	<path fill="#60492F" d="M166.4,74.1c3.7-0.1,7.4-0.2,11.1-0.3c3.6-0.1,7.3-0.3,10.9-0.4c7.2-0.2,14.2-0.2,21.1-0.3
		c0.6-3.1,1.6-6.1,2.9-8.9h-2.7c-7.1,0-14.3-0.2-21.6-0.2c-3.7,0-7.3,0.1-11,0.1c-3.7,0.1-7.4,0.1-11.1,0.2s-7.4,0.1-11.1,0.2
		c-3.7,0-7.4,0.1-11.1,0.1l-14.3-0.1c0.1,3.3,0.2,6.7,0.3,10l14.1,0.1c3.8,0,7.5-0.1,11.3-0.2C159,74.3,162.7,74.2,166.4,74.1z"/>
</g>
<path opacity="0.3" fill="#281D14" enable-background="new    " d="M189.8,36.8c-6.5-0.1-9.9-2.3-12.8-4.2c-2.5-1.5-4.5-3-8.4-3.5
	c0.5,4.6,0,9.3-1.3,13.7c-1.3,4.2-3.4,8-6,11.5c15,0.1,29.9,0,45.1,0.5c0.1-7.7,0.5-15.4,0.7-23c-1.7,0.5-3.1,1.2-4.4,2
	C199.6,35.2,196.2,36.9,189.8,36.8z"/>
<g opacity="0.3">
	<path fill="#261915" d="M170.7,30.6c-5.7-0.5-8.4,0-11.5,0.4c-2.4,0.4-5.1,0.8-9.1,0.6c2.5,3.5,4.2,7.6,5.1,12.5
		c0.1,0.4,0.1,0.8,0.2,1.2l0.8,0.4l3.4-0.7l3.2,2.6l3.1,2.2l3.6-4.5l3.1,2.6l3.3-0.1h3.3l3.2,1h3.3l3.3-0.4l3.1,2.7l3.4-1.1l3.2,1.2
		l3.4-0.7l3.2,0.9l3,2.2l1.3-0.1c0.5-5.7,1.1-11.3,1.8-17c-1.8,0.4-3.3,1-4.8,1.7c-3.1,1.3-6.7,2.8-13,2.3c-6.5-0.6-9.7-3-12.5-5.1
		C178.4,33,176.1,31.2,170.7,30.6z"/>
</g>
<path opacity="0.3" fill="#281D14" enable-background="new    " d="M160,139.6c-1.9,3.2-3.4,6.5-5.2,9.9c-2.4,4.6-6,8.4-10.1,11.2
	c3.1,0,5.2-0.2,7.2-0.2c2.9-0.1,6-0.3,11.9-0.3c6.4-0.1,9.6,1.4,12.7,2.9c2.8,1.3,5.5,2.5,11,2.5c5.7,0,8.5-0.3,11.5-0.7
	c0.6-0.1,1.3-0.2,2-0.3c1.5-0.2,2.5-1.5,2.4-2.9c-0.7-6-1-12-1.5-18c-0.1-1.2-0.9-2.2-2-2.5c-8.4-2-17.2-3.4-27.5-3.6
	c-3.4-0.1-6.7,0-10.1,0C161.6,138.2,160.8,139,160,139.6z"/>
</svg>
