<?xml version="1.0" encoding="utf-8"?>
<!-- Generator: Adobe Illustrator 18.0.0, SVG Export Plug-In . SVG Version: 6.00 Build 0)  -->
<!DOCTYPE svg PUBLIC "-//W3C//DTD SVG 1.1//EN" "http://www.w3.org/Graphics/SVG/1.1/DTD/svg11.dtd">
<svg version="1.1" id="Layer_1" xmlns="http://www.w3.org/2000/svg" xmlns:xlink="http://www.w3.org/1999/xlink" x="0px" y="0px"
	 viewBox="0 0 200 200" enable-background="new 0 0 200 200" xml:space="preserve">
<g>
	
		<linearGradient id="SVGID_1_" gradientUnits="userSpaceOnUse" x1="20.9888" y1="175.2903" x2="143.1617" y2="175.2903" gradientTransform="matrix(1.2012 0 0 1.2012 0.4805 -38.4384)">
		<stop  offset="0" style="stop-color:#41342A"/>
		<stop  offset="0.195" style="stop-color:#5F4431"/>
		<stop  offset="0.425" style="stop-color:#5A4230"/>
		<stop  offset="0.575" style="stop-color:#4B3B2E"/>
		<stop  offset="0.835" style="stop-color:#544132"/>
		<stop  offset="1" style="stop-color:#41342A"/>
	</linearGradient>
	<path fill="url(#SVGID_1_)" d="M168.5,178.6c0.1-2.3,2.3-3.2,3.9-2.8c-0.1-4.1-0.8-8.6-2.7-12.2c-6.5-12.4-12.6-0.3-26.3-0.3
		c-13.7,0-13.7,3.5-27.3,3.5c-13.7,0-13.7-5.9-27.3-5.9c-13.7,0-13.7-0.8-27.3-0.8s-19.6-9.9-29.7-0.3c-9.2,8.6-5.3,28.6-5.3,28.7
		h141.7C168.3,185.3,168.3,181.9,168.5,178.6z"/>
	
		<linearGradient id="SVGID_2_" gradientUnits="userSpaceOnUse" x1="18.5055" y1="49.1972" x2="145.1476" y2="49.1972" gradientTransform="matrix(1.2012 0 0 1.2012 0.4805 -38.4384)">
		<stop  offset="0" style="stop-color:#41342A"/>
		<stop  offset="5.472137e-02" style="stop-color:#5F4431"/>
		<stop  offset="0.9143" style="stop-color:#5A4230"/>
		<stop  offset="0.9242" style="stop-color:#584231"/>
		<stop  offset="0.9273" style="stop-color:#544132"/>
		<stop  offset="0.9641" style="stop-color:#544132"/>
		<stop  offset="0.9789" style="stop-color:#544132"/>
		<stop  offset="1" style="stop-color:#41342A"/>
	</linearGradient>
	<path fill="url(#SVGID_2_)" d="M172.9,17c0-0.1,0-0.2,0-0.3c-0.1-0.3-0.2-0.6-0.2-0.9c-0.5-0.4-0.8-0.9-0.9-1.7
		C171,8.9,169.2,3.3,169-2.2L28.2-2.3v9.9c0,16.3-11.2,14.7-1.6,25.8c10.4,12.2,13,0.4,27.1,0.4c14.1,0,14.1-4.4,28.2-4.4
		c14.1,0,14.1,7.5,28.2,7.5c14.1,0,14.1,1,28.2,1s20.3,12.6,30.7,0.4c5.5-6.4,6.1-12,5.6-18.7C173.8,19.1,173,18.3,172.9,17z"/>
	<path fill="none" stroke="#3D2F26" stroke-width="4" stroke-miterlimit="10" d="M29.2,200.1c0-24.1-10.5-17.9,5.1-38.8
		c9.7-12.9,15.4,0.4,28.5,0.4s13.1,1,26.2,1s13.1,7.9,26.2,7.9s13.1-4.7,26.2-4.7s19.8-17,25.2,0.4c3.9,12.9,1.5,16.2,1.5,33.5"/>
	<path fill="none" stroke="#3D2F26" stroke-width="4" stroke-miterlimit="10" d="M29.7-1.7C30.2,7,28.2,16,25.2,25c-2,8,5,15,12,15
		c5,0,9-3,14-4c12,0,22-6,34-3c19,4,37,6,56,6c7,1,13,4,20,5c2,0,6.9,5,8.9,4c16-9-1.4-34.9-0.2-50.2"/>
	
		<linearGradient id="SVGID_3_" gradientUnits="userSpaceOnUse" x1="82.8465" y1="49.4773" x2="82.8465" y2="176.9543" gradientTransform="matrix(1.2012 0 0 1.2012 0.4805 -38.4384)">
		<stop  offset="0" style="stop-color:#41342A"/>
		<stop  offset="5.879388e-02" style="stop-color:#5A4230"/>
		<stop  offset="0.9835" style="stop-color:#5F4431"/>
		<stop  offset="1" style="stop-color:#544132"/>
	</linearGradient>
	<path fill="url(#SVGID_3_)" d="M178.8,26.6c-1.7-0.4-2.3-1.9-2.1-3.2c-7.6-0.6-8.2-3.1-18.1-3.1c-11.1,0-11.1,1.6-22.3,1.6
		c-11.1,0-11.1-2.3-22.3-2.3c-11.1,0-11.1,2.1-22.3,2.1s-11.1-0.3-22.3-0.3c-11.1,0-11.1,1.8-22.3,1.8S35.9,22,24.7,22
		c-0.3,0-0.5,0-0.8,0c0.2,1.1,0,2.2-1,2.8c-0.3,0.3-0.7,0.5-1.2,0.6c-1.2,0.3-2.4,0.6-3.7,0.9c-1.1,0.4-2.3,0.7-3.5,0.9
		c-1.5,0.4-3.1,0.7-4.6,1c-1.3,0.2-2.4,0.2-3.6,0.1c-2.1,0.2-4.2,0.3-6.3,0.6v141.6c5-0.8,10,0.6,14.6,2.6c2.4-0.4,5.1-0.5,10.1-0.5
		c11.1,0,11.1,0.9,22.3,0.9s11.1-1.6,22.3-1.6c11.1,0,11.1,1.8,22.3,1.8c11.1,0,11.1-2,22.3-2c11.1,0,11.1,2.5,22.3,2.5
		s11.1,0.7,22.3,0.7s11.1-1.7,22.3-1.7c3.5,0,5.9,0.1,7.9,0.3c2.4-0.9,4.5-2.6,7.1-3.1c1-0.2,2.1-0.3,3.2-0.3
		c0.3-0.1,0.6-0.3,0.9-0.4V32.7C192.6,32.2,186.2,28.4,178.8,26.6z"/>
	<g>
		
			<linearGradient id="SVGID_4_" gradientUnits="userSpaceOnUse" x1="17.4716" y1="175.3769" x2="147.8396" y2="175.3769" gradientTransform="matrix(1.2012 0 0 1.2012 0.4805 -38.4384)">
			<stop  offset="0" style="stop-color:#41342A"/>
			<stop  offset="4.637007e-02" style="stop-color:#5F4431"/>
			<stop  offset="0.9274" style="stop-color:#5A4230"/>
			<stop  offset="0.956" style="stop-color:#544132"/>
			<stop  offset="1" style="stop-color:#41342A"/>
		</linearGradient>
		<path fill="url(#SVGID_4_)" d="M171.8,142c-3.7,0-21.2,7.3-27.6,2.4c-6.4-4.8-24.5-4.6-29.9-1.5c-5.4,3.1-66.5-6.2-75.1-9
			c-2.1-0.7-4.4-0.5-6.6,0.5c-1.2,11.5-2,23.1-2,34.6c0.2,0.4,0.3,0.9,0.3,1.4c0,0.5-0.1,0.9-0.3,1.4c0,1.2,0,2.4,0,3.6
			c0,1.5-0.8,2.4-1.8,2.7v9.4c0,0.8-0.3,1.4-0.7,1.9c1.1,7.1,2.1,14.4,2.6,21.4l28.9,0.2c0,0,23.6-5.9,30.6-7
			c6.9-1.1,31.4,3.1,38.3,6.6c5.6,2.8,30-5.2,38.9-10.4c-2.4-8.1-0.1-16.4,1-24.7c0.2-1.4,1.1-2.1,2.1-2.2c-0.6-1.7,0.3-4.1,2.6-4.1
			h4.6c0,0,0-0.1,0-0.1C179.1,161.3,175.5,142,171.8,142z"/>
		<path opacity="0.3" fill="#271D15" enable-background="new    " d="M29.3,200c0,0.2,5.4-0.2,5.4,0h15.1
			c-0.1-8.7,1.7-17.5,1.6-26.1c-0.4,0-0.9,0-1.3,0c-8.2,0-8.2-1.5-16.5-1.5c-0.8,0-1.5,0-2.1,0c-1.7,0.2-2.4,1.8-2.8,4.2
			C28.8,184.3,29.3,193.5,29.3,200z"/>
		<path opacity="0.3" fill="#271D15" enable-background="new    " d="M167.1,199.6c-0.1-0.3-0.1-0.7,0-1.1c0.7-4.4,0.3-8.9,1.1-13.3
			c0.4-2.2,1-4.2,2-6.2c0.3-0.4,0.6-0.8,1-1.2c-0.3-0.6-0.4-1.3-0.1-2.2c0.5-1.2,1.2-2,2-2.5c-7,0.5-8,2.8-16.9,2.8
			c-7.9,0-9.7-0.7-15-0.9c-1.1,7.8,2.1,11.8-0.5,24.6H167.1z"/>
		<path opacity="0.3" fill="#261915" enable-background="new    " d="M45,178.6l-1.3-6.3l-0.1-0.4c-5.1-0.4-6.8-1.4-14.7-1.4h-2.5
			c0.1,0.8-0.1,1.7-0.5,2.4c0.1,0.4,0.2,0.8,0.2,1.2c0,2.4,0,4.9-0.1,7.3c1.6,6,1.6,12.8,1.4,19.3c1.4,0,2.7-0.1,2.7,0h10.2l2.3-4.5
			l5.1-4.9l0.8-6.9L45,178.6z"/>
		<g opacity="0.3">
			<path fill="#261915" d="M166.8,200c0.1-5,1.1-9.9,2-14.9c0.2-2.9,0.2-5.9,1.7-8.3c0.5-0.8,1.3-1.3,2.1-1.4c0-0.9,0-1.6,0.2-2.3
				h-0.9c-6.5,0-8,1.7-12.1,2.5l-1,4.4l-2.8,5.5l2.5,7.4l-4.1,7.2H166.8z"/>
		</g>
	</g>
	<g>
		<path opacity="0.3" fill="#271D15" enable-background="new    " d="M189.4,172c3.5-0.8,7-1.7,10.6-2.4l-0.1-33.3
			c-4.9-0.2-9.9-1.6-11.3-1.9c-5.3-0.9-15.6,6-21,6.6c-10.7,1.2-7.9,4.8-15.5,11.1c-5.7,4.8-10.4,10.7-12.9,17.3
			c-0.7,1.8-1.2,3.7-1.6,5.6c6.2,0.2,8.2,0.6,17.7,0.6c12,0,12-1.8,24.1-1.8c3.4,0,5.8,0.1,7.9,0.2
			C187.5,173.1,188.2,172.3,189.4,172z"/>
		<path opacity="0.3" fill="#261915" enable-background="new    " d="M189.4,173.1c2.7-3.1,6.6-3.8,10.7-3.8v-11.4
			c-2.4-0.2-6.7-1-6.9-1c-0.3-0.1-3.8-2.5-3.8-2.5l-2.9,2.3l-4.3,1l-2.2-1c0,0-9,0.7-9.5,0.8c-0.6,0.1-4.5,1.4-4.6,1.7
			c-0.1,0.3-4.9,3.7-5.5,3.7s-2.5,2.5-2.5,2.5v3.3l-2.5,1.7l5,2.9l-0.7,1.2c6.2-0.4,8.6-1.4,18.4-1.4c5.3,0,8.4,0.2,11.1,0.4
			C189.1,173.4,189.2,173.2,189.4,173.1z"/>
		<path opacity="0.3" fill="#271D15" enable-background="new    " d="M54.5,160.2c-0.3-0.8-0.4-1.2-0.5-1.7
			c-4.4-2.2-8.3-5.2-11.1-8.8c-4-0.6-7.7-1.7-11.2-3.3c-3.3,0.9-6.8,1.4-10.4,1.4c-8,0-15.5-2.4-21.2-6.4v28.3
			c3.3,0.4,6.5,1,9.8,1.4c0.1,0,0.3,0,0.4,0.1c5.4-1.1,7.6-1.6,15.6-1.6c-0.1-1.9,1.4-3.9,3.7-3.2c4.1,1.2,8.3,1.7,12.6,2.1
			c1.3,0.1,2.2,0.9,2.6,1.9c2,0.1,4.3,0.1,7.4,0.1c1.1,0,0.9,0,1.9,0C54.6,167.1,55.3,162.6,54.5,160.2z"/>
		<path opacity="0.3" fill="#261915" enable-background="new    " d="M45.3,160.1l-4.4-2l-2.9-0.5c0,0-8.6-1.4-8.6-1.6
			c0-0.2-4.2-1.7-4.2-1.7l-7.5-0.9l-6.6,1.4H5.5l-4-0.9l-2.6-6.1v21.1c3.2-0.4,6.3,1,9.4,2.2c6.8-1.2,8.6-1.8,18.7-1.8
			c9.7,0,12,0.5,18.3,0.8l3.3-3.7v-4.1L45.3,160.1z"/>
		<path fill="none" stroke="#3D2F26" stroke-width="4" stroke-miterlimit="10" d="M200,170.4c-1.7-4.5-12.8,3-24.1,2.7"/>
		<path fill="#3D2F26" d="M175.5,170.9c1.7-0.4,3.3,1.1,2.8,2.8c-0.2,0.9-0.9,1.5-1.7,1.7c-1.7,0.4-3.3-1.1-2.8-2.8
			C174,171.8,174.7,171.2,175.5,170.9z"/>
		<path fill="none" stroke="#3D2F26" stroke-width="4" stroke-miterlimit="10" d="M24.5,173.6c-9-1.5-12.4-5.2-25.6-5.2"/>
		<path fill="#3D2F26" d="M23.6,171.5c1.7-0.4,3.1,1.1,2.8,2.8c-0.2,0.8-0.9,1.4-1.6,1.6c-1.7,0.4-3.1-1.1-2.8-2.8
			C22.2,172.4,22.9,171.7,23.6,171.5z"/>
	</g>
	<path fill="#261915" d="M164.4,170.1"/>
	<g>
		<g>
			<path opacity="0.5" fill="#262626" enable-background="new    " d="M187,154.7c0.7-1.8-0.2-6.1-0.2-6.1s0-3.3-1.5-3.4
				c-1.5-0.1-5.1,0-5.9,0.5c-0.8,0.4-4.6,2.6-2.2,6.9c1,1.5,2.7,2.2,3.8,2.7C182.1,155.9,186.1,157,187,154.7z"/>
			<g>
				<path fill="#7F8080" stroke="#4E4D4D" stroke-width="2" stroke-miterlimit="10" d="M184.7,148.4c-0.1-2.7-2.5,0.2-2.6-0.9
					c-0.1-1.2-3.8,0.1-3.7,2.3c0.1,2.2,2.1,3.9,1.8,4.4c-0.2,0.5,4.8,3.2,5.8,1.3c1-1.7-0.4-5-0.4-5L184.7,148.4z"/>
				<path fill="#A4A3A3" d="M182.3,152.2c0.8,1.2,2.1,2.5,2.3,2c0.2-0.5-0.7-3-0.7-3l-1-1.5l-1.6,1.7L182.3,152.2z"/>
			</g>
		</g>
		<g>
			<path opacity="0.5" fill="#262626" enable-background="new    " d="M167.6,141.2c9.2,4.6,6.4,7.5,3.4,11.9
				c-0.5,1-1.2,2.3-2.1,3.7c-3.5,6.9-9.1,12-16.9,15.4l-0.5,0.1L151,172c-14.2-11.2-13.6-12.7,0.5-23.7l15.5-7.2L167.6,141.2z"/>
			<g>
				<path fill="#7F8080" stroke="#4E4D4D" stroke-width="2" stroke-miterlimit="10" d="M155.5,173.2c13.5-3,14.8-15,19.1-19.6
					c4.3-4.6-3.9-8.7-3.9-8.7l-14.5,6.6c0,0-13.7,10.8-11.2,13.1C147.6,166.9,155.5,173.2,155.5,173.2z"/>
				<path fill="#A4A3A3" stroke="#4E4D4D" stroke-miterlimit="10" d="M155.4,169.2l11.9-12.5c0,0-1.4-3.5-1.8-5.1
					c-0.3-1.5-8.7,2.4-8.7,2.4l-6.4,9.9L155.4,169.2z"/>
				<path fill="#A09C99" stroke="#4E4D4D" stroke-miterlimit="10" d="M167.3,156.8l7.8-3.9c0,0-9,19.6-19.6,20.3l-0.2-3.9
					L167.3,156.8z"/>
				<path fill="#696969" stroke="#4E4D4D" stroke-miterlimit="10" d="M165.1,151.4c1.2-2.3,2.9-4,4.2-6.1c0,0,1.8-0.5,3.4,0.8
					c1.5,1.3,4.1,4.4,3,5.9c-1.1,1.6-8.4,4.8-8.4,4.8L165.1,151.4z"/>
			</g>
		</g>
		<g>
			<path opacity="0.5" fill="#262626" enable-background="new    " d="M180.5,160.4c0.4-0.2,0.8-3.3,0.8-3.3h-7.5l-1.5,5.2
				c0,0,0.2,0.8,1.7,1.2c1.5,0.4,5.2,0,5.2,0L180.5,160.4z"/>
			<path fill="#7F8080" stroke="#4E4D4D" stroke-width="2" stroke-miterlimit="10" d="M174.2,162.3c0,0,4.6,2,4.9,1.1
				c0.3-0.8,1.1-4.7,1.1-4.7h-5.2L174.2,162.3z"/>
		</g>
	</g>
	<g>
		<path fill="#60492F" d="M49.7,150.5c0,0,0.3-0.1,1-0.1c0.3-0.1,0.7-0.1,1.2-0.1c0.4,0,1-0.1,1.6-0.1c1.2,0,2.7,0,4.3,0.1
			c0.9,0,1.7,0.1,2.6,0.1c0.9,0,1.8,0,2.9,0c2.1,0,4.2,0,6.6,0.1c2.3,0,4.8,0.2,7.4,0.4c1.3,0.1,2.6,0.2,3.9,0.3
			c1.3,0.1,2.6,0.2,3.9,0.4c0.7,0.1,1.3,0.1,2,0.2l2,0.2c1.3,0.1,2.6,0.2,4,0.3c2.7,0.1,5.3,0.4,7.9,0.4c2.6,0.1,5.3,0.2,7.8,0.3
			c2.5,0.1,5,0.2,7.3,0.3c2.3,0,4.4,0.1,6.5,0c2-0.1,3.8-0.2,5.4-0.3c0.8-0.1,1.5-0.2,2.3-0.3c0.7-0.1,1.3-0.2,2-0.3
			c1.1-0.3,2.1-0.5,2.6-0.8c0.7-0.2,1-0.3,1-0.3s-0.3,0.2-0.9,0.5c-0.5,0.3-1.4,0.8-2.5,1.3c-0.5,0.2-1.2,0.4-1.8,0.8
			c-0.7,0.2-1.4,0.4-2.3,0.8c-1.6,0.4-3.5,0.9-5.5,1.2c-2.1,0.3-4.2,0.5-6.6,0.8c-2.4,0.1-4.9,0.2-7.4,0.3c-2.5,0-5.1,0.1-7.8,0.1
			c-2.7,0-5.4-0.2-8.2-0.3c-2.7-0.3-5.5-0.5-8.1-1c-1.3-0.2-2.6-0.4-3.9-0.7c-1.3-0.2-2.5-0.3-3.8-0.5c-2.5-0.3-4.9-0.8-7.2-1
			c-2.3-0.2-4.6-0.5-6.5-0.8c-0.5-0.1-1-0.1-1.5-0.2c-0.5-0.1-1-0.1-1.4-0.2c-1-0.2-1.8-0.3-2.6-0.5c-1.6-0.3-3-0.8-4.1-0.9
			c-1.2-0.2-2.1-0.3-2.7-0.4C50,150.5,49.7,150.5,49.7,150.5z"/>
	</g>
	<g>
		<path fill="#60492F" d="M41,97.4c0,0,0.4,0,1.2-0.1c0.8-0.1,2-0.1,3.4-0.3c1.4-0.2,3.1-0.4,5.1-0.8c2-0.3,4.2-0.8,6.6-1.1
			c2.5-0.3,5.2-0.7,8.1-0.5c0.3,0,0.8,0,1.1,0h0.3h0.1h0.2h0.5c0.8,0.1,1.4,0.1,2.2,0.2c1.4,0.1,3,0.4,4.6,0.7
			c1.6,0.2,3.1,0.7,4.7,1c1.6,0.3,3.1,0.8,4.7,1.2c3.1,0.8,6.3,1.5,9.4,2.2c1.5,0.3,3.1,0.4,4.7,0.8c1.5,0.1,3.1,0.1,4.6,0.2
			c3-0.1,6.1-0.5,9-1.2c6-1.2,11.6-2.5,16.7-2.9c2.5-0.2,4.8-0.3,6.8-0.1c2.1,0.1,3.8,0.5,5.2,1c1.4,0.4,2.4,1.1,3.1,1.4
			c0.7,0.4,1,0.7,1,0.7s-0.3-0.1-1.1-0.4c-0.8-0.2-1.7-0.7-3.1-0.8c-1.4-0.2-3.1-0.2-5-0.1c-2,0.1-4.1,0.4-6.5,1
			c-2.4,0.5-4.9,1.2-7.6,1.8c-2.7,0.8-5.5,1.6-8.6,2.3c-1.5,0.3-3,0.8-4.7,1c-0.8,0.1-1.6,0.3-2.5,0.4c-0.4,0.1-0.9,0.1-1.3,0.1
			l-1.2,0.1c-1.7,0-3.5-0.1-5.2-0.2c-1.6-0.2-3.4-0.4-5.1-0.7c-3.4-0.7-6.5-1.5-9.7-2.4c-3.1-0.9-6.2-1.7-9-2.4
			c-1.4-0.3-2.8-0.7-4.3-0.9c-0.8-0.1-1.4-0.2-2.2-0.3l-0.5-0.1h-0.1l0,0c0,0-0.1,0,0,0h-0.1h-0.2c-0.3,0-0.7-0.1-1-0.1
			c-0.7,0-1.3-0.1-2.1-0.1s-1.3,0-2,0c-1.3-0.1-2.6,0-3.8,0C55,98,52.8,98,50.8,98.1c-2.1,0-3.8,0-5.2,0c-1.4,0-2.6-0.2-3.4-0.2
			C41.4,97.5,41,97.4,41,97.4z"/>
	</g>
	<g opacity="0.5">
		<path fill="#60492F" d="M22,80.5c0,0,0.7,0.1,1.8,0.2c1.2,0.1,2.9,0.2,5.2,0.2c2.2,0,4.9-0.2,7.9-0.5c3-0.3,6.4-1.1,10.2-1.8
			c3.7-0.8,7.7-1.8,12-2.7c4.3-1,9-1.8,14.1-2.3c4.8-0.4,9.8-0.8,14.9-1.1c5.1-0.2,10.3-0.3,15.5-0.2c5.2,0.1,10.4,0.4,15.6,0.9
			c1.3,0.1,2.6,0.3,3.8,0.4c1.3,0.2,2.5,0.3,3.8,0.5c1.2,0.2,2.4,0.4,3.7,0.7c1.3,0.2,2.5,0.5,3.7,0.8c4.8,1.1,9.2,2.2,13.3,3
			c4.2,0.9,8.1,1.3,11.7,1.4c0.9,0,1.8,0,2.6,0h0.7c0.1,0,0.4,0,0.7,0c0.4,0,0.9-0.1,1.3-0.1c1.7-0.1,3.4-0.3,4.9-0.4s3-0.3,4.4-0.4
			s2.6-0.1,3.8-0.1c2.3,0,4.1,0.2,5.3,0.3c1.2,0.1,1.8,0.2,1.8,0.2s-0.7,0.1-1.8,0.3c-1.2,0.2-2.9,0.5-5.1,1
			c-0.5,0.1-1.1,0.3-1.7,0.4c-0.5,0.2-1.2,0.3-1.8,0.5c-1.3,0.3-2.7,0.8-4.2,1.3c-3,0.9-6.4,2-10.5,2.4c-4,0.5-8.5,0.4-13,0
			c-4.6-0.4-9.2-1.3-13.9-2.1c-1.2-0.2-2.3-0.3-3.5-0.5c-1.1-0.2-2.4-0.3-3.6-0.4c-2.3-0.2-4.8-0.5-7.3-0.7
			c-1.2-0.1-2.5-0.1-3.7-0.2s-2.5-0.2-3.7-0.2c-2.5-0.1-5-0.2-7.5-0.2L99.7,81c-1.3,0-2.5,0-3.8,0c-2.5,0-5,0-7.5,0
			c-5,0.1-10,0.2-14.8,0.2c-4.6,0.1-9.1,0.5-13.5,1c-4.3,0.5-8.6,1-12.5,1.2c-3.9,0.3-7.5,0.3-10.7,0.2c-3.3-0.1-6-0.5-8.2-1
			s-3.9-1.1-5.1-1.5C22.6,80.8,22,80.5,22,80.5z"/>
	</g>
	<g>
		
			<linearGradient id="SVGID_5_" gradientUnits="userSpaceOnUse" x1="8441.4961" y1="9154.5264" x2="8567.8018" y2="9154.5264" gradientTransform="matrix(-1.2012 0 0 -1.2012 10314.3643 11025.4033)">
			<stop  offset="0" style="stop-color:#41342A"/>
			<stop  offset="0" style="stop-color:#4B3B2E"/>
			<stop  offset="5.996456e-02" style="stop-color:#5F4431"/>
			<stop  offset="6.262931e-02" style="stop-color:#544132"/>
			<stop  offset="6.332743e-02" style="stop-color:#5F4431"/>
			<stop  offset="0.956" style="stop-color:#5A4230"/>
			<stop  offset="1" style="stop-color:#41342A"/>
		</linearGradient>
		<path fill="url(#SVGID_5_)" d="M165.4,10.1c1.4,9.4,5.6,19.7,8.6,26.4s-8.6,12.9-16.8,11.5c-8.2-1.4-67.5-6-72.7-4.5
			s-22.8,1.6-29-0.8C49.3,40.4,32.3,44,28.7,44s-7.1-9.6-5.8-13.4s7.6-12,6.8-13.8s34.1-8.4,40.8-6.6s30.4,3.8,37.1,3.3
			c6.8-0.8,29.7-3.7,29.7-3.7L165.4,10.1z"/>
		<path opacity="0.3" fill="#271D15" enable-background="new    " d="M192.9,32c-5.5-1.4-10.8-3.1-15.5-6.4
			c-0.9-0.6-1.3-1.5-1.3-2.4c-0.5-0.5-0.7-1.1-0.8-1.7c-0.9-0.9-1.2-2.3-0.8-3.4c0-0.2,0-0.5-0.1-0.7c-0.5-0.3-0.9-0.9-1-1.7
			c-0.2-1.3-0.5-2.6-0.8-3.8c-0.4-1.3-0.7-2.6-1-3.9c-0.7-2.6-1.5-5.2-2-7.9h-21.7c0.4,2,0.6,3.8,0.6,6c3.2,5.2,5.1,11.2,5.1,17.7
			c0,0.7,0,1.3-0.1,2c3.1,4.8,4.8,10.5,5.1,16.4c5.8,5.8,14,9.9,23.4,7.3c6.5-1.9,15.5,3.2,18,2.8V32.7
			C197.6,33,195.1,32.5,192.9,32z"/>
		<path opacity="0.3" fill="#271D15" enable-background="new    " d="M61.9,20.6c1.9-7.8-7.4-6.6-6.7-14c0.4-3.1-4.8-3.6-4.8-6.5
			H28.1C28.7,4,28.1,8.2,27,12c7.2,10.8,2.9,9.3-1.9,7.7c0,0.2,0,0.3-0.1,0.5c0,0.3-0.1,0.6-0.2,0.8c-0.2,0.9-0.7,1.7-1.5,2.2
			c-0.1,1.4-1.1,2.7-2.9,2.7c-3.5,0-7-0.3-10.4,0.4c-2.8,0.5-5.5,1-8.4,1c-0.6,0-1.1-0.2-1.6-0.4v23.3c0.1,0,6.2,0,6.2,0
			C71.9,61,61.9,20.6,61.9,20.6z"/>
		<path opacity="0.3" fill="#261915" enable-background="new    " d="M53,5.3l-0.8-2.4l4.2-3L28.9,0c0.2,2,0,4.1-0.3,6.2
			c-0.6,5.4-1,10.8-2.8,15.9c-0.5,1.3-1.5,1.9-2.6,2c-0.5,0.4-1.1,0.6-1.7,0.8c-3.4,1.9-6.7,3.8-10.7,4.3c-3.7,0.4-7.2,0-10.8-0.5
			v18.6l5-5.9l6.1-2.3l5.9,4.6l3-2.7l9.8-1.8l7.6-2.4l1.3-4.3l7.6-1.4l1.9-7.1l1.9-3.5l5-4.4L50.5,10L53,5.3z"/>
	</g>
	<path opacity="0.3" fill="#261915" enable-background="new    " d="M192.7,31.2c-3.6-0.6-6.9-1.8-10-3.4c-0.5,0.5-1.2,0.9-2.1,0.9
		c-2.3,0-3.2-2.2-2.8-3.9c-1.1-0.4-2.2-2.3-2.5-3.1c-0.8,0-1.3,0.1-1.3,0.1c-1.5-3.5-1.9-6.3-2-10c-1.3-3.8-2.4-7.6-3.1-11.5h-18
		c1.5,11.6,4.1,23.1,8.2,34.1c0.8,2.1-0.8,3.6-2.7,3.8l3.2,3.5c0.7,0,1.6-0.2,2.5-0.4c7.6-1.8,15.4-1.7,22.8,0.1l3.1-0.6
		c0,0,0.3,0.7,0.8,1.7c4.1,1.3,8,3.2,11.6,5.5V32.6C197.7,32.2,195.2,31.6,192.7,31.2z"/>
	<path fill="none" stroke="#3D2F26" stroke-width="4" stroke-miterlimit="10" d="M173.9,23.5c0.8,0,4.8,5.9,5.7,6.1
		c16.2,4.8,26.2,2.4,23.2,0.6"/>
	<path fill="none" stroke="#3D2F26" stroke-width="4" stroke-miterlimit="10" d="M0,28.9c14.4,0,24-3.8,23.7-3.7"/>
	<path fill="#3D2F26" d="M174.9,24.2c1.7-0.4,3.4,1.1,2.9,2.9c-0.2,0.9-0.9,1.5-1.7,1.7c-1.7,0.4-3.4-1.1-2.9-2.9
		C173.4,25.2,174.2,24.5,174.9,24.2z"/>
	<g>
		<g>
			<path opacity="0.5" fill="#262626" enable-background="new    " d="M62.4,19.2c-0.3-2-3.1-5.2-3.1-5.2s-1.5-2.9-2.9-2.3
				c-1.4,0.7-4.4,2.5-4.9,3.3s-2.7,4.5,1.4,7.1c1.5,0.9,3.5,0.5,4.7,0.5C58.6,22.7,62.8,21.7,62.4,19.2z"/>
			<g>
				<path fill="#7F8080" stroke="#4E4D4D" stroke-width="2" stroke-miterlimit="10" d="M57.4,14.8c-1.4-2.3-2.1,1.4-2.7,0.4
					c-0.7-1-3.3,1.8-2.2,3.7s3.6,2.5,3.7,2.9c0.1,0.5,5.6,0.4,5.6-1.6s-2.7-4.1-2.7-4.1L57.4,14.8z"/>
				<path fill="#A4A3A3" d="M57.2,19.3c1.2,0.7,2.9,1.2,2.9,0.7C60,19.4,58,17.6,58,17.6l-1.6-0.9L55.8,19L57.2,19.3z"/>
			</g>
		</g>
		<g>
			<path opacity="0.5" fill="#262626" enable-background="new    " d="M38.9,16.7c10.3-0.3,9.1,3.6,8.6,8.8c0,1.2,0,2.6-0.1,4.2
				c0.2,7.6-2.3,14.9-7.5,21.6l-0.4,0.2l-0.5-0.1C21.1,48.6,21,46.9,28.1,30.4l10.3-13.7H38.9z"/>
			<g>
				<path fill="#7F8080" stroke="#4E4D4D" stroke-width="2" stroke-miterlimit="10" d="M43.6,50.5C54,41.4,49.4,30.3,51,24.2
					s-7.6-5.8-7.6-5.8l-9.7,12.8c0,0-6.9,16-3.6,16.8C33.6,48.8,43.6,50.5,43.6,50.5z"/>
				<path fill="#A4A3A3" stroke="#4E4D4D" stroke-miterlimit="10" d="M41.5,47.1l4.6-16.8c0,0-2.9-2.4-4-3.6s-6.5,6.3-6.5,6.3
					l-0.9,11.7L41.5,47.1z"/>
				<path fill="#A09C99" stroke="#4E4D4D" stroke-miterlimit="10" d="M46.1,30.4l5.1-7.2c0,0,1.4,21.5-7.6,27.2L41.5,47L46.1,30.4z"
					/>
				<path fill="#696969" stroke="#4E4D4D" stroke-miterlimit="10" d="M41.5,26.8c0-2.5,0.7-5,0.8-7.4c0,0,1.4-1.3,3.4-1
					c2,0.4,5.6,1.8,5.5,3.7c-0.1,2-5.1,8.2-5.1,8.2L41.5,26.8z"/>
			</g>
		</g>
		<g>
			<path opacity="0.5" fill="#262626" enable-background="new    " d="M59.3,27.2c0.2-0.3-0.9-3.3-0.9-3.3L52,27.6l1.1,5.3
				c0,0,0.5,0.5,2.1,0.2c1.5-0.3,4.6-2.5,4.6-2.5L59.3,27.2z"/>
			<path fill="#7F8080" stroke="#4E4D4D" stroke-width="2" stroke-miterlimit="10" d="M54.8,32c0,0,4.9-0.4,4.9-1.3
				c-0.1-0.9-1.3-4.6-1.3-4.6l-4.6,2.5L54.8,32z"/>
		</g>
	</g>
</g>
<path fill="#3D2F26" d="M23.1,21.2c1.7-0.4,3.4,1.1,2.9,2.9c-0.2,0.9-0.9,1.5-1.7,1.7c-1.7,0.4-3.4-1.1-2.9-2.9
	C21.6,22.2,22.4,21.5,23.1,21.2z"/>
</svg>
