<?xml version="1.0" encoding="utf-8"?>
<!-- Generator: Adobe Illustrator 18.0.0, SVG Export Plug-In . SVG Version: 6.00 Build 0)  -->
<!DOCTYPE svg PUBLIC "-//W3C//DTD SVG 1.1//EN" "http://www.w3.org/Graphics/SVG/1.1/DTD/svg11.dtd">
<svg version="1.1" id="Layer_1" xmlns="http://www.w3.org/2000/svg" xmlns:xlink="http://www.w3.org/1999/xlink" x="0px" y="0px"
	 viewBox="0 0 165.7 166.5" enable-background="new 0 0 165.7 166.5" xml:space="preserve">
<g>
	
		<linearGradient id="SVGID_1_" gradientUnits="userSpaceOnUse" x1="13.0767" y1="16.7183" x2="152.7683" y2="16.7183" gradientTransform="matrix(1 0 0 -1 0 168)">
		<stop  offset="0" style="stop-color:#41342A"/>
		<stop  offset="0.195" style="stop-color:#5F4431"/>
		<stop  offset="0.425" style="stop-color:#5A4230"/>
		<stop  offset="0.575" style="stop-color:#4B3B2E"/>
		<stop  offset="0.835" style="stop-color:#544132"/>
		<stop  offset="1" style="stop-color:#41342A"/>
	</linearGradient>
	<path fill="url(#SVGID_1_)" d="M13.9,166.4h137.7c0-0.1,3.5-14.1-1.4-22.9c-6.2-11.4-12-0.3-25-0.3s-13,3.2-26,3.2s-13-5.4-26-5.4
		c-13,0-13-0.7-26-0.7c-13,0-18.7-9.1-28.3-0.3C10.1,147.9,13.9,166.3,13.9,166.4z"/>
	
		<linearGradient id="SVGID_2_" gradientUnits="userSpaceOnUse" x1="11.0017" y1="151.352" x2="151.7134" y2="151.352" gradientTransform="matrix(1 0 0 -1 0 168)">
		<stop  offset="0" style="stop-color:#41342A"/>
		<stop  offset="5.472137e-02" style="stop-color:#5F4431"/>
		<stop  offset="0.9143" style="stop-color:#5A4230"/>
		<stop  offset="0.9242" style="stop-color:#584231"/>
		<stop  offset="0.9273" style="stop-color:#544132"/>
		<stop  offset="0.9641" style="stop-color:#544132"/>
		<stop  offset="0.9789" style="stop-color:#544132"/>
		<stop  offset="1" style="stop-color:#41342A"/>
	</linearGradient>
	<path fill="url(#SVGID_2_)" d="M150.4,0.1H14.3c0,0.9,0,2,0,3.1c0,11.8-8,14.6,0.8,22.6c9.6,8.8,12,0.3,25,0.3s13-3.2,26-3.2
		s13,5.4,26,5.4c13,0,13,0.7,26,0.7c13,0,18.7,9.1,28.3,0.3c8.8-8,4-14.4,4-26.2C150.4,2.1,150.4,1,150.4,0.1z"/>
	<path fill="none" stroke="#3D2F26" stroke-width="4" stroke-miterlimit="10" d="M13.8,166.5c0-11.9-3.6-18.5,5.1-26.5
		c9.6-8.8,15.3,0.3,28.3,0.3c13,0,13,0.7,26,0.7c13,0,13,5.4,26,5.4s13-3.2,26-3.2s19.7-11.6,25,0.3c3.9,8.8,1.5,11.1,1.5,22.9"/>
	<path fill="none" stroke="#3D2F26" stroke-width="4" stroke-miterlimit="10" d="M13.7,0.1c0,0.9-0.4,2-0.4,3.1
		c0,11.8-7,14.6,1.8,22.6c9.6,8.8,12,0.3,25,0.3s13-3.2,26-3.2s13,5.4,26,5.4c13,0,13,0.7,26,0.7c13,0,18.7,9.1,28.3,0.3
		c8.8-8,5-14.4,5-26.2c0-1.1,0.3-2.2,0.3-3.2"/>
	
		<linearGradient id="SVGID_3_" gradientUnits="userSpaceOnUse" x1="82.836" y1="155.644" x2="82.836" y2="14.8799" gradientTransform="matrix(1 0 0 -1 0 168)">
		<stop  offset="0" style="stop-color:#41342A"/>
		<stop  offset="5.879388e-02" style="stop-color:#5A4230"/>
		<stop  offset="0.9835" style="stop-color:#5F4431"/>
		<stop  offset="1" style="stop-color:#544132"/>
	</linearGradient>
	<path fill="url(#SVGID_3_)" d="M165.6,13c-6.7,0-7.6,0.2-15.8,0.2c-9.2,0-9.2-1.5-18.5-1.5c-9.2,0-9.2,1.5-18.5,1.5
		c-9.2,0-9.2-2.1-18.5-2.1c-9.2,0-9.2,1.9-18.5,1.9s-9.2-0.3-18.5-0.3c-9.2,0-9.2,1.7-18.5,1.7s-9.2-1.1-18.5-1.1
		c-9.2,0-19.9,1.6-20.5,1.6v139.8c0.8-0.2,1.6-0.3,2.4-0.5c9.1-1.8,8.9-2.6,18.1-2.6c9.2,0,9.2,0.8,18.5,0.8s9.2-1.5,18.5-1.5
		c9.2,0,9.2,1.7,18.5,1.7c9.2,0,9.2-1.8,18.5-1.8c9.2,0,9.2,2.3,18.5,2.3s9.2,0.6,18.5,0.6s9.2-1.6,18.5-1.6c8.2,0,9.1,0.9,15.8,1.1
		L165.6,13L165.6,13z"/>
	<g>
		
			<linearGradient id="SVGID_4_" gradientUnits="userSpaceOnUse" x1="13.5066" y1="15.2676" x2="153.3638" y2="15.2676" gradientTransform="matrix(1 0 0 -1 0 168)">
			<stop  offset="0" style="stop-color:#41342A"/>
			<stop  offset="4.637007e-02" style="stop-color:#5F4431"/>
			<stop  offset="0.9274" style="stop-color:#5A4230"/>
			<stop  offset="0.956" style="stop-color:#544132"/>
			<stop  offset="1" style="stop-color:#41342A"/>
		</linearGradient>
		<path fill="url(#SVGID_4_)" d="M21.9,170.1c-1.3-8.6-5.2-18.1-7.9-24.3s7.9-11.9,15.5-10.6c7.6,1.3,62.2,5.5,67,4.1
			c4.8-1.4,21-1.5,26.7,0.7c5.7,2.2,21.3-1.1,24.6-1.1c3.3,0,6.5,8.8,5.3,12.3c-1.2,3.5-7,11-6.3,12.7s-31.4,7.7-37.6,6.1
			s-28-3.5-34.2-3c-6.2,0.5-27.3,3.2-27.3,3.2L21.9,170.1z"/>
		<path opacity="0.3" fill="#271D15" enable-background="new    " d="M15.8,166.5c0,0.1,6.1-0.1,6.1,0h16.9
			c-0.1-4.7,1.9-9.5,1.8-14.2c-0.5,0-1,0-1.5,0c-9.2,0-9.2-0.8-18.5-0.8c-0.9,0-1.7,0-2.4,0c-1.9,0.1-2.7,1-3.1,2.3
			C15.2,158,15.8,163,15.8,166.5z"/>
		<path opacity="0.3" fill="#271D15" enable-background="new    " d="M149.7,166.4c0-0.1,0.8-13.7,1.1-14.3c-0.3,0-0.6,0-1,0
			c-9.2,0-9.2,1.6-18.5,1.6c-7.3,0-8.9-0.4-13.8-0.5c-1,4.2,1.9,6.4-0.5,13.3H149.7z"/>
		<path opacity="0.3" fill="#261915" enable-background="new    " d="M15.8,166.5c0,0.1,6.1-0.1,6.1,0h9.3l2.1-2.2l4.6-2.4l0.7-3.4
			l-3.2-2.9l-1.2-3.1l-0.1-0.2c-4.6-0.2-6.2-0.7-13.4-0.7c-0.9,0-1.7,0-2.4,0c-2.7,0-3,0.7-3.1,2.3
			C14.9,157.4,15.8,163.2,15.8,166.5z"/>
		<g opacity="0.3">
			<path fill="#261915" d="M130.8,166.4h18.9c0-0.1-0.3-8.1,0.7-12.3c0.2-0.8,0-1.4,0.3-1.9c-0.3,0-0.6,0-1,0c-7,0-8.7,0.9-13.1,1.3
				l-1.1,2.3l-3,2.9l2.7,3.9L130.8,166.4z"/>
		</g>
	</g>
	<g>
		<path opacity="0.3" fill="#271D15" enable-background="new    " d="M165.6,118.4c-3.8-0.2-7.6-1.4-8.7-1.7
			c-4.1-0.8-12,5.4-16.1,5.9c-8.2,1.1-6.1,4.3-11.9,10c-4.4,4.3-8,9.6-9.9,15.5c-0.5,1.6-0.9,3.3-1.2,5c4.8,0.2,6.3,0.5,13.6,0.5
			c9.2,0,9.2-1.6,18.5-1.6c8.2,0,9.1,0.9,15.8,1.1L165.6,118.4L165.6,118.4z"/>
		<path opacity="0.3" fill="#261915" enable-background="new    " d="M165.6,138.2c-1.7-0.2-4.8-0.9-4.9-0.9
			c-0.2-0.1-2.7-2.3-2.7-2.3l-2.1,2.1l-3.1,0.9l-1.6-0.9c0,0-6.4,0.6-6.8,0.7s-3.2,1.3-3.3,1.6s-3.5,3.4-3.9,3.4s-1.8,2.3-1.8,2.3v3
			l-1.8,1.6l3.6,2.7l-0.5,1.1c4.4-0.4,6.1-1.3,13.1-1.3c8.2,0,9.1,0.9,15.8,1.1L165.6,138.2L165.6,138.2z"/>
		<path opacity="0.3" fill="#271D15" enable-background="new    " d="M40.5,141.6c-3.3-2-6.2-4.7-8.3-7.9c-3-0.5-5.8-1.5-8.4-3
			c-2.5,0.8-5.1,1.3-7.8,1.3c-6,0-11.6-2.2-15.9-5.8v28.5c0.8-0.2,1.6-0.3,2.4-0.5c9.1-1.8,8.9-2.6,18.1-2.6c9.2,0,9.2,0.8,18.5,0.8
			c0.8,0,0.7,0,1.4,0c0.5-3.1,1-7.1,0.4-9.3C40.7,142.4,40.6,142,40.5,141.6z"/>
		<path opacity="0.3" fill="#261915" enable-background="new    " d="M34,143.1l-3.2-1.8l-2.1-0.5c0,0-6.3-1.3-6.3-1.5
			s-3.1-1.6-3.1-1.6l-5.5-0.8l-4.8,1.3H4.9L2,137.4l-1.9-5.6v22.9c0.8-0.2,1.6-0.3,2.4-0.5c9.1-1.8,8.9-2.6,18.1-2.6
			c7.1,0,8.8,0.5,13.4,0.7l2.4-3.4v-3.8L34,143.1z"/>
		<path fill="none" stroke="#3D2F26" stroke-width="4" stroke-miterlimit="10" d="M165.7,152.7c-1.9,0-6.9-0.2-13-0.5"/>
		<path fill="#3D2F26" d="M152.3,150.2c1.6-0.4,3,1,2.6,2.6c-0.2,0.8-0.8,1.4-1.6,1.6c-1.6,0.4-3-1-2.6-2.6
			C150.9,151,151.6,150.4,152.3,150.2z"/>
		<path fill="none" stroke="#3D2F26" stroke-width="4" stroke-miterlimit="10" d="M13.2,152.6c-5,0.3-6.4,0-13.2,0"/>
		<path fill="#3D2F26" d="M12.4,150.7c1.6-0.4,2.9,1,2.6,2.6c-0.2,0.7-0.8,1.3-1.5,1.5c-1.6,0.4-2.9-1-2.6-2.6
			C11.1,151.5,11.7,150.9,12.4,150.7z"/>
	</g>
	<path fill="#261915" d="M142.1,149.4"/>
	<g>
		<g>
			<path opacity="0.5" fill="#262626" enable-background="new    " d="M162.9,135.3c0.6-1.7-0.2-5.6-0.2-5.6s0-3-1.4-3.1
				c-1.4-0.1-4.7,0-5.4,0.5c-0.7,0.4-4.2,2.4-2,6.3c0.9,1.4,2.5,2,3.5,2.5S162.1,137.4,162.9,135.3z"/>
			<g>
				<path fill="#7F8080" stroke="#4E4D4D" stroke-width="2" stroke-miterlimit="10" d="M160.8,129.5c-0.1-2.5-2.3,0.2-2.4-0.8
					c-0.1-1.1-3.5,0.1-3.4,2.1c0.1,2,1.9,3.6,1.7,4c-0.2,0.5,4.4,2.9,5.3,1.2c0.9-1.6-0.4-4.6-0.4-4.6L160.8,129.5z"/>
				<path fill="#A4A3A3" d="M158.6,133c0.7,1.1,1.9,2.3,2.1,1.8c0.2-0.5-0.6-2.8-0.6-2.8l-0.9-1.4l-1.5,1.6L158.6,133z"/>
			</g>
		</g>
		<g>
			<path opacity="0.5" fill="#262626" enable-background="new    " d="M145,122.9c8.5,4.2,5.9,6.9,3.1,10.9
				c-0.5,0.9-1.1,2.1-1.9,3.4c-3.2,6.3-8.4,11-15.6,14.2l-0.5,0.1l-0.4-0.3c-13.1-10.3-12.5-11.7,0.5-21.8l14.3-6.6L145,122.9z"/>
			<g>
				<path fill="#7F8080" stroke="#4E4D4D" stroke-width="2" stroke-miterlimit="10" d="M133.9,152.3c12.4-2.8,13.6-13.8,17.6-18
					c4-4.2-3.6-8-3.6-8l-13.4,6.1c0,0-12.6,9.9-10.3,12C126.6,146.5,133.9,152.3,133.9,152.3z"/>
				<path fill="#A4A3A3" stroke="#4E4D4D" stroke-miterlimit="10" d="M133.8,148.6l11-11.5c0,0-1.3-3.2-1.7-4.7
					c-0.3-1.4-8,2.2-8,2.2l-5.9,9.1L133.8,148.6z"/>
				<path fill="#A09C99" stroke="#4E4D4D" stroke-miterlimit="10" d="M144.8,137.2l7.2-3.6c0,0-8.3,18-18.1,18.7l-0.2-3.6
					L144.8,137.2z"/>
				<path fill="#696969" stroke="#4E4D4D" stroke-miterlimit="10" d="M142.7,132.2c1.1-2.1,2.7-3.7,3.9-5.6c0,0,1.7-0.5,3.1,0.7
					c1.4,1.2,3.8,4,2.8,5.4c-1,1.5-7.7,4.4-7.7,4.4L142.7,132.2z"/>
			</g>
		</g>
		<g>
			<path opacity="0.5" fill="#262626" enable-background="new    " d="M156.9,140.5c0.4-0.2,0.7-3,0.7-3h-6.9l-1.4,4.8
				c0,0,0.2,0.7,1.6,1.1c1.4,0.4,4.8,0,4.8,0L156.9,140.5z"/>
			<path fill="#7F8080" stroke="#4E4D4D" stroke-width="2" stroke-miterlimit="10" d="M151.1,142.3c0,0,4.2,1.8,4.5,1
				c0.3-0.7,1-4.3,1-4.3l-4.8,0L151.1,142.3z"/>
		</g>
	</g>
	<g>
		<path fill="#60492F" d="M36.4,131.4c0,0,0.3-0.1,0.9-0.1c0.3-0.1,0.6-0.1,1.1-0.1c0.4,0,0.9-0.1,1.5-0.1c1.1,0,2.5,0,4,0.1
			c0.8,0,1.6,0.1,2.4,0.1c0.8,0,1.7,0,2.7,0c1.9,0,3.9,0,6.1,0.1c2.1,0,4.4,0.2,6.8,0.4c1.2,0.1,2.4,0.2,3.6,0.3
			c1.2,0.1,2.4,0.2,3.6,0.4c0.6,0.1,1.2,0.1,1.8,0.2l1.8,0.2c1.2,0.1,2.4,0.2,3.7,0.3c2.5,0.1,4.9,0.4,7.3,0.4
			c2.4,0.1,4.9,0.2,7.2,0.3c2.3,0.1,4.6,0.2,6.7,0.3c2.1,0,4.1,0.1,6,0c1.8-0.1,3.5-0.2,5-0.3c0.7-0.1,1.4-0.2,2.1-0.3
			c0.6-0.1,1.2-0.2,1.8-0.3c1-0.3,1.9-0.5,2.4-0.7c0.6-0.2,0.9-0.3,0.9-0.3s-0.3,0.2-0.8,0.5c-0.5,0.3-1.3,0.7-2.3,1.2
			c-0.5,0.2-1.1,0.4-1.7,0.7c-0.6,0.2-1.3,0.4-2.1,0.7c-1.5,0.4-3.2,0.8-5.1,1.1c-1.9,0.3-3.9,0.5-6.1,0.7c-2.2,0.1-4.5,0.2-6.8,0.3
			c-2.3,0-4.7,0.1-7.2,0.1c-2.5,0-5-0.2-7.6-0.3c-2.5-0.3-5.1-0.5-7.5-0.9c-1.2-0.2-2.4-0.4-3.6-0.6c-1.2-0.2-2.3-0.3-3.5-0.5
			c-2.3-0.3-4.5-0.7-6.6-0.9c-2.1-0.2-4.2-0.5-6-0.7c-0.5-0.1-0.9-0.1-1.4-0.2c-0.5-0.1-0.9-0.1-1.3-0.2c-0.9-0.2-1.7-0.3-2.4-0.5
			c-1.5-0.3-2.8-0.7-3.8-0.8c-1.1-0.2-1.9-0.3-2.5-0.4C36.7,131.4,36.4,131.4,36.4,131.4z"/>
	</g>
	<g>
		<path fill="#60492F" d="M28.4,82.6c0,0,0.4,0,1.1-0.1c0.7-0.1,1.8-0.1,3.1-0.3c1.3-0.2,2.9-0.4,4.7-0.7c1.8-0.3,3.9-0.7,6.1-1
			c2.3-0.3,4.8-0.6,7.5-0.5c0.3,0,0.7,0,1,0l0.3,0l0.1,0l0.2,0l0.5,0c0.7,0.1,1.3,0.1,2,0.2c1.3,0.1,2.8,0.4,4.2,0.6
			c1.5,0.2,2.9,0.6,4.3,0.9c1.5,0.3,2.9,0.7,4.3,1.1c2.9,0.7,5.8,1.4,8.7,2c1.4,0.3,2.9,0.4,4.3,0.7c1.4,0.1,2.9,0.1,4.2,0.2
			c2.8-0.1,5.6-0.5,8.3-1.1c5.5-1.1,10.7-2.3,15.4-2.7c2.3-0.2,4.4-0.3,6.3-0.1c1.9,0.1,3.5,0.5,4.8,0.9c1.3,0.4,2.2,1,2.9,1.3
			c0.6,0.4,0.9,0.6,0.9,0.6s-0.3-0.1-1-0.4c-0.7-0.2-1.6-0.6-2.9-0.7c-1.3-0.2-2.9-0.2-4.6-0.1c-1.8,0.1-3.8,0.4-6,0.9
			c-2.2,0.5-4.5,1.1-7,1.7c-2.5,0.7-5.1,1.5-7.9,2.1c-1.4,0.3-2.8,0.7-4.3,0.9c-0.7,0.1-1.5,0.3-2.3,0.4c-0.4,0.1-0.8,0.1-1.2,0.1
			l-1.1,0.1c-1.6,0-3.2-0.1-4.8-0.2c-1.5-0.2-3.1-0.4-4.7-0.6c-3.1-0.6-6-1.4-8.9-2.2c-2.9-0.8-5.7-1.6-8.3-2.2
			c-1.3-0.3-2.6-0.6-4-0.8c-0.7-0.1-1.3-0.2-2-0.3l-0.5-0.1l-0.1,0l0,0c0,0-0.1,0,0,0l-0.1,0l-0.2,0c-0.3,0-0.6-0.1-0.9-0.1
			c-0.6,0-1.2-0.1-1.9-0.1s-1.2,0-1.8,0c-1.2-0.1-2.4,0-3.5,0c-2.3,0.1-4.3,0.1-6.2,0.2c-1.9,0-3.5,0-4.8,0c-1.3,0-2.4-0.2-3.1-0.2
			C28.8,82.7,28.4,82.6,28.4,82.6z"/>
	</g>
	<g opacity="0.5">
		<path fill="#60492F" d="M10.9,67.1c0,0,0.6,0.1,1.7,0.2c1.1,0.1,2.7,0.2,4.8,0.2c2,0,4.5-0.2,7.3-0.5c2.8-0.3,5.9-1,9.4-1.7
			c3.4-0.7,7.1-1.7,11.1-2.5c4-0.9,8.3-1.7,13-2.1c4.4-0.4,9-0.7,13.7-1c4.7-0.2,9.5-0.3,14.3-0.2c4.8,0.1,9.6,0.4,14.4,0.8
			c1.2,0.1,2.4,0.3,3.5,0.4c1.2,0.2,2.3,0.3,3.5,0.5c1.1,0.2,2.2,0.4,3.4,0.6c1.2,0.2,2.3,0.5,3.4,0.7c4.4,1,8.5,2,12.3,2.8
			c3.9,0.8,7.5,1.2,10.8,1.3c0.8,0,1.7,0,2.4,0l0.6,0c0.1,0,0.4,0,0.6,0c0.4,0,0.8-0.1,1.2-0.1c1.6-0.1,3.1-0.3,4.5-0.4
			c1.4-0.1,2.8-0.3,4.1-0.4c1.3-0.1,2.4-0.1,3.5-0.1c2.1,0,3.8,0.2,4.9,0.3c1.1,0.1,1.7,0.2,1.7,0.2s-0.6,0.1-1.7,0.3
			c-1.1,0.2-2.7,0.5-4.7,0.9c-0.5,0.1-1,0.3-1.6,0.4c-0.5,0.2-1.1,0.3-1.7,0.5c-1.2,0.3-2.5,0.7-3.9,1.2c-2.8,0.8-5.9,1.8-9.7,2.2
			c-3.7,0.5-7.8,0.4-12,0c-4.2-0.4-8.5-1.2-12.8-1.9c-1.1-0.2-2.1-0.3-3.2-0.5c-1-0.2-2.2-0.3-3.3-0.4c-2.1-0.2-4.4-0.5-6.7-0.6
			c-1.1-0.1-2.3-0.1-3.4-0.2c-1.1-0.1-2.3-0.2-3.4-0.2c-2.3-0.1-4.6-0.2-6.9-0.2l-3.5-0.1c-1.2,0-2.3,0-3.5,0c-2.3,0-4.6,0-6.9,0
			c-4.6,0.1-9.2,0.2-13.6,0.2c-4.2,0.1-8.4,0.5-12.4,0.9c-4,0.5-7.9,0.9-11.5,1.1c-3.6,0.3-6.9,0.3-9.9,0.2c-3-0.1-5.5-0.5-7.6-0.9
			c-2.1-0.4-3.6-1-4.7-1.4C11.4,67.3,10.9,67.1,10.9,67.1z"/>
	</g>
	<g>
		
			<linearGradient id="SVGID_5_" gradientUnits="userSpaceOnUse" x1="8434.9521" y1="-8958.9219" x2="8574.8105" y2="-8958.9219" gradientTransform="matrix(-1 0 0 1 8586.3086 8978.6484)">
			<stop  offset="0" style="stop-color:#41342A"/>
			<stop  offset="0" style="stop-color:#4B3B2E"/>
			<stop  offset="5.996456e-02" style="stop-color:#5F4431"/>
			<stop  offset="6.262931e-02" style="stop-color:#544132"/>
			<stop  offset="6.332743e-02" style="stop-color:#5F4431"/>
			<stop  offset="0.956" style="stop-color:#5A4230"/>
			<stop  offset="1" style="stop-color:#41342A"/>
		</linearGradient>
		<path fill="url(#SVGID_5_)" d="M143,2.3c1.3,8.6,5.2,18.1,7.9,24.3c2.7,6.2-7.9,11.9-15.5,10.6c-7.6-1.3-62.2-5.5-67-4.1
			c-4.8,1.4-21,1.5-26.7-0.7s-21.3,1.1-24.6,1.1c-3.3,0-6.5-8.8-5.3-12.3c1.2-3.5,7-11,6.3-12.7s31.4-7.7,37.6-6.1s28,3.5,34.2,3
			C96.2,4.7,117.3,2,117.3,2L143,2.3z"/>
		<path opacity="0.3" fill="#271D15" enable-background="new    " d="M164.9,13.9c-8.7,0-3.2,0.2-11,0.2c-0.1-0.4-3.4,0-3.4,0
			c-1.3-3.5-1-6-1-10.9c0-2,0-1.6,0-3.1h-24.9c0.3,1.5,0.5,2.9,0.5,4.5c2.5,3.9,4,8.5,4,13.4c0,0.5,0,1-0.1,1.5
			c2.4,3.6,3.8,7.9,4,12.4c4.6,4.4,11,7.5,18.4,5.5c5.1-1.4,12.2,2.4,14.2,2.1V13.9h0C165.4,13.9,165.1,13.9,164.9,13.9z"/>
		<path opacity="0.3" fill="#271D15" enable-background="new    " d="M38.8,0.1H15.6c0,1.4,0,1.1,0,3.1c0,5.4-0.5,8-2.2,11
			c0,0-6.5-0.9-13.4-1v26.2c0.1,0,4.8,0,4.8,0c50.6,8.5,42.9-23.2,42.9-23.2c1.5-6.1-5.7-5.2-5.2-11C42.8,2.8,38.8,2.4,38.8,0.1z"/>
		<path opacity="0.3" fill="#261915" enable-background="new    " d="M33.6,0.1l-18,0.1c0,1.4,0,1,0,3c0,5.4-1.1,8.7-2.7,11.7
			l-3.7-1c0,0-4.5-0.1-9.1-0.5v17.9l3-3.9l3.6-1.5l3.5,3l1.8-1.8l5.8-1.2l4.5-1.6l0.8-2.8l4.5-0.9l1.1-4.7l1.1-2.3l3-2.9l-2.7-3.9
			l1.5-3.1l-0.5-1.6L33.6,0.1z"/>
	</g>
	<path opacity="0.3" fill="#261915" enable-background="new    " d="M153.8,14.1c-0.1-0.3-3.2,0-3.2,0c-1.3-3.5-1.2-6-1.2-10.9
		c0-2,0.3-1.6,0.3-3.1h-14.9c2.7,4,4.3,8.8,4.3,13.9c0,2.9-0.5,5.6-1.4,8.2l2.6,2.4l2.1,2.6c0,0,4.4,0.4,5.1,0s6.9,0.2,6.9,0.2
		l4.2-0.9c0,0,1.9,4.8,2.5,4.8c0.4,0,3.3,3.5,4.6,3.4V14.5C159.9,14.4,158.4,14.1,153.8,14.1z"/>
	<path fill="none" stroke="#3D2F26" stroke-width="4" stroke-miterlimit="10" d="M152.3,13.2c0.7,0,2.5,0,3.4,0
		c9.2,0,8.3,1.6,9.8,1.5"/>
	<path fill="none" stroke="#3D2F26" stroke-width="4" stroke-miterlimit="10" d="M0,14.8c7,0,6.2,0,11-0.4"/>
	<path fill="#3D2F26" d="M151.9,10.9c1.6-0.4,3.1,1,2.7,2.7c-0.2,0.8-0.8,1.4-1.6,1.6c-1.6,0.4-3.1-1-2.7-2.7
		C150.5,11.8,151.2,11.1,151.9,10.9z"/>
	<path fill="#3D2F26" d="M10.9,11.8c1.6-0.4,3.1,1,2.7,2.7c-0.2,0.8-0.8,1.4-1.6,1.6c-1.6,0.4-3.1-1-2.7-2.7
		C9.5,12.7,10.2,12,10.9,11.8z"/>
	<g>
		<g>
			<path opacity="0.5" fill="#262626" enable-background="new    " d="M48.1,10.7c-0.3-1.8-2.9-4.8-2.9-4.8s-1.4-2.7-2.7-2.1
				c-1.3,0.6-4.1,2.3-4.5,3c-0.4,0.7-2.5,4.1,1.3,6.5c1.4,0.8,3.2,0.5,4.3,0.5C44.6,13.9,48.5,13,48.1,10.7z"/>
			<g>
				<path fill="#7F8080" stroke="#4E4D4D" stroke-width="2" stroke-miterlimit="10" d="M43.5,6.7c-1.3-2.1-1.9,1.3-2.5,0.4
					s-3,1.7-2,3.4c1,1.7,3.3,2.3,3.4,2.7c0.1,0.5,5.2,0.4,5.2-1.5c0-1.9-2.5-3.8-2.5-3.8L43.5,6.7z"/>
				<path fill="#A4A3A3" d="M43.3,10.8c1.1,0.6,2.7,1.1,2.7,0.6c-0.1-0.5-1.9-2.2-1.9-2.2l-1.5-0.8l-0.6,2.1L43.3,10.8z"/>
			</g>
		</g>
		<g>
			<path opacity="0.5" fill="#262626" enable-background="new    " d="M26.5,8.4c9.5-0.3,8.4,3.3,7.9,8.1c0,1.1,0,2.4-0.1,3.9
				c0.2,7-2.1,13.7-6.9,19.9L27,40.5l-0.5-0.1C10.1,37.7,10,36.2,16.5,21L26,8.4L26.5,8.4z"/>
			<g>
				<path fill="#7F8080" stroke="#4E4D4D" stroke-width="2" stroke-miterlimit="10" d="M30.8,39.5c9.6-8.4,5.3-18.6,6.8-24.2
					s-7-5.3-7-5.3l-8.9,11.8c0,0-6.4,14.7-3.3,15.4C21.6,37.9,30.8,39.5,30.8,39.5z"/>
				<path fill="#A4A3A3" stroke="#4E4D4D" stroke-miterlimit="10" d="M28.9,36.4L33.1,21c0,0-2.7-2.2-3.7-3.3c-1-1.1-6,5.8-6,5.8
					l-0.8,10.8L28.9,36.4z"/>
				<path fill="#A09C99" stroke="#4E4D4D" stroke-miterlimit="10" d="M33.1,21l4.7-6.6c0,0,1.3,19.8-7,25l-1.9-3.1L33.1,21z"/>
				<path fill="#696969" stroke="#4E4D4D" stroke-miterlimit="10" d="M28.9,17.7c0-2.3,0.6-4.6,0.7-6.8c0,0,1.3-1.2,3.1-0.9
					c1.8,0.4,5.2,1.7,5.1,3.4c-0.1,1.8-4.7,7.5-4.7,7.5L28.9,17.7z"/>
			</g>
		</g>
		<g>
			<path opacity="0.5" fill="#262626" enable-background="new    " d="M45.3,18.1c0.2-0.3-0.8-3-0.8-3l-6,3.3l1,4.9
				c0,0,0.5,0.5,1.9,0.2c1.4-0.3,4.2-2.3,4.2-2.3L45.3,18.1z"/>
			<path fill="#7F8080" stroke="#4E4D4D" stroke-width="2" stroke-miterlimit="10" d="M41.1,22.5c0,0,4.5-0.4,4.5-1.2
				c-0.1-0.8-1.2-4.2-1.2-4.2l-4.2,2.3L41.1,22.5z"/>
		</g>
	</g>
</g>
</svg>
