<?xml version="1.0" encoding="utf-8"?>
<!-- Generator: Adobe Illustrator 18.0.0, SVG Export Plug-In . SVG Version: 6.00 Build 0)  -->
<!DOCTYPE svg PUBLIC "-//W3C//DTD SVG 1.1//EN" "http://www.w3.org/Graphics/SVG/1.1/DTD/svg11.dtd">
<svg version="1.1"
	 id="Layer_1" sodipodi:docname="roadTile_deadEnd.svg" inkscape:version="0.48.4 r9939" xmlns:svg="http://www.w3.org/2000/svg" xmlns:sodipodi="http://sodipodi.sourceforge.net/DTD/sodipodi-0.dtd" xmlns:rdf="http://www.w3.org/1999/02/22-rdf-syntax-ns#" xmlns:cc="http://creativecommons.org/ns#" xmlns:dc="http://purl.org/dc/elements/1.1/" xmlns:inkscape="http://www.inkscape.org/namespaces/inkscape"
	 xmlns="http://www.w3.org/2000/svg" xmlns:xlink="http://www.w3.org/1999/xlink" x="0px" y="0px" viewBox="0 0 200 200"
	 enable-background="new 0 0 200 200" xml:space="preserve">
<sodipodi:namedview  inkscape:pageopacity="0" inkscape:current-layer="Layer_1" inkscape:window-y="27" inkscape:guide-bbox="true" inkscape:window-x="0" inkscape:window-maximized="1" inkscape:pageshadow="2" inkscape:window-height="1014" inkscape:window-width="1920" showgrid="false" guidetolerance="10" inkscape:zoom="4.7999999" inkscape:cx="123.76796" inkscape:cy="64.650844" gridtolerance="10" showguides="true" bordercolor="#666666" pagecolor="#ffffff" objecttolerance="10" id="namedview3065" borderopacity="1">
	<sodipodi:guide  position="32.409061,205.65023" orientation="1,0" id="guide5940"></sodipodi:guide>
	<sodipodi:guide  position="167.5,221.66667" orientation="1,0" id="guide5942"></sodipodi:guide>
	<sodipodi:guide  position="100,254.79167" orientation="1,0" id="guide3053"></sodipodi:guide>
	<sodipodi:guide  position="49.895834,208.125" orientation="1,0" id="guide3027"></sodipodi:guide>
	<sodipodi:guide  position="56.250001,205.72917" orientation="1,0" id="guide3029"></sodipodi:guide>
	<sodipodi:guide  position="149.89584,207.29167" orientation="1,0" id="guide3033"></sodipodi:guide>
	<sodipodi:guide  position="-5.2604168,167.44792" orientation="0,1" id="guide3094"></sodipodi:guide>
	<sodipodi:guide  position="-16.354167,32.395834" orientation="0,1" id="guide3096"></sodipodi:guide>
	<sodipodi:guide  position="-11.09375,49.791667" orientation="0,1" id="guide3098"></sodipodi:guide>
	<sodipodi:guide  position="-3.9062501,55.833334" orientation="0,1" id="guide3100"></sodipodi:guide>
	<sodipodi:guide  position="9.5833335,111.04167" orientation="0,1" id="guide3102"></sodipodi:guide>
	<sodipodi:guide  position="-6.3541668,149.73959" orientation="0,1" id="guide3104"></sodipodi:guide>
	<sodipodi:guide  position="-9.6354168,143.48959" orientation="0,1" id="guide3106"></sodipodi:guide>
	<sodipodi:guide  position="-0.073656958,195.04362" orientation="1,0" id="guide3110"></sodipodi:guide>
	<sodipodi:guide  position="-5.8925566,199.97864" orientation="0,1" id="guide3112"></sodipodi:guide>
	<sodipodi:guide  position="200.67838,0.073656958" orientation="0,1" id="guide3116"></sodipodi:guide>
	<sodipodi:guide  position="76.01398,-118.73502" orientation="1,0" id="guide4227"></sodipodi:guide>
	<sodipodi:guide  position="121.68129,-127.27922" orientation="1,0" id="guide4229"></sodipodi:guide>
	<sodipodi:guide  position="-66.880517,123.44906" orientation="0,1" id="guide4260"></sodipodi:guide>
	<sodipodi:guide  position="-86.031326,77.781747" orientation="0,1" id="guide4262"></sodipodi:guide>
</sodipodi:namedview>
<g>
	<g>
		<g>
			<g>
				<defs>
					<rect id="SVGID_1_" x="-66.8" y="-268.9" width="319.6" height="747.6"/>
				</defs>
				<clipPath id="SVGID_2_">
					<use xlink:href="#SVGID_1_"  overflow="visible"/>
				</clipPath>
				<g clip-path="url(#SVGID_2_)">
					<linearGradient id="SVGID_3_" gradientUnits="userSpaceOnUse" x1="25.9937" y1="-283.05" x2="165.899" y2="-283.05">
						<stop  offset="0" style="stop-color:#41342A"/>
						<stop  offset="0.195" style="stop-color:#5E4430"/>
						<stop  offset="0.425" style="stop-color:#5A4230"/>
						<stop  offset="0.575" style="stop-color:#4B3B2E"/>
						<stop  offset="0.835" style="stop-color:#544132"/>
						<stop  offset="1" style="stop-color:#41342A"/>
					</linearGradient>
					<path fill="url(#SVGID_3_)" d="M111.6-278.2c4.2-3.3,8.4-6.6,12.7-9.7c-2.9,0.7-5.4,1.4-9.8,1.7c-1.7,2.1-3.6,4.2-5.4,6.3
						C110.1-279.6,111-279,111.6-278.2z"/>
					<linearGradient id="SVGID_4_" gradientUnits="userSpaceOnUse" x1="25.9937" y1="-279.6" x2="165.899" y2="-279.6">
						<stop  offset="0" style="stop-color:#41342A"/>
						<stop  offset="0.195" style="stop-color:#5E4430"/>
						<stop  offset="0.425" style="stop-color:#5A4230"/>
						<stop  offset="0.575" style="stop-color:#4B3B2E"/>
						<stop  offset="0.835" style="stop-color:#544132"/>
						<stop  offset="1" style="stop-color:#41342A"/>
					</linearGradient>
					<path fill="url(#SVGID_4_)" d="M69.3-270.4c0.2,0.3,0.5,0.6,0.7,0.9c2.5-2,5-4,7.5-6c3.5-2.8,8-0.4,8.5,2.9
						c1.8-1.3,3.6-2.5,5.5-3.7c0.8-0.5,1.5-0.7,2.3-0.8c2.5-3.4,5.3-6.6,8.1-9.8c-2.9-0.8-5-1.9-7.6-2.8
						c-8.8,5.7-17.1,12.2-25.3,18.9C69.1-270.6,69.2-270.5,69.3-270.4z"/>
					<linearGradient id="SVGID_5_" gradientUnits="userSpaceOnUse" x1="25.9937" y1="-286.0174" x2="165.899" y2="-286.0174">
						<stop  offset="0" style="stop-color:#41342A"/>
						<stop  offset="0.195" style="stop-color:#5E4430"/>
						<stop  offset="0.425" style="stop-color:#5A4230"/>
						<stop  offset="0.575" style="stop-color:#4B3B2E"/>
						<stop  offset="0.835" style="stop-color:#544132"/>
						<stop  offset="1" style="stop-color:#41342A"/>
					</linearGradient>
					<path fill="url(#SVGID_5_)" d="M29.7-281.5c1.5-3.6,6.9-3,8.6,0c0.9,1.5,1.8,3,2.7,4.5c2.2-3.6,6.8-1.9,8.4,1.2
						c5.9-5.7,12-11.1,18.4-16.1c-2.5-0.1-5.4-0.2-9.9-0.2c-13,0-18.7-9.1-28.3-0.3c-5.5,5-3.7,9.4-1.6,14.9
						C28.6-278.8,29.1-280.2,29.7-281.5z"/>
					<linearGradient id="SVGID_6_" gradientUnits="userSpaceOnUse" x1="25.9937" y1="-287.15" x2="165.899" y2="-287.15">
						<stop  offset="0" style="stop-color:#41342A"/>
						<stop  offset="0.195" style="stop-color:#5E4430"/>
						<stop  offset="0.425" style="stop-color:#5A4230"/>
						<stop  offset="0.575" style="stop-color:#4B3B2E"/>
						<stop  offset="0.835" style="stop-color:#544132"/>
						<stop  offset="1" style="stop-color:#41342A"/>
					</linearGradient>
					<path fill="url(#SVGID_6_)" d="M155.6-291.4c1.8,1.4,2.8,4.2,1.8,6.6c1.3,0.5,2.4,1.4,3.1,2.7c1.1-1,2.2-1.9,3.4-2.9
						c-0.5-1.1-1.4-2.3-2.9-3.7c-2-1.8-3.7-2.9-5.2-3.5C155.7-291.9,155.6-291.7,155.6-291.4z"/>
					<linearGradient id="SVGID_7_" gradientUnits="userSpaceOnUse" x1="25.9936" y1="120.65" x2="165.899" y2="120.65">
						<stop  offset="0" style="stop-color:#41342A"/>
						<stop  offset="0" style="stop-color:#5E4430"/>
						<stop  offset="0" style="stop-color:#5A4230"/>
						<stop  offset="0.9978" style="stop-color:#544132"/>
						<stop  offset="1" style="stop-color:#4B3B2E"/>
						<stop  offset="1" style="stop-color:#41342A"/>
					</linearGradient>
					<path fill="url(#SVGID_7_)" d="M29.6,184c0,11.1,4.8,11.8,5.4,21.5c24.9-1.8,50-2,74.9-0.8c12.6,0.6,24.9,1.8,37.3,4
						c4.8,0.4,9.5,0.9,14.3,1.6c0-0.8,0-1.7,0-2.7c0-11.8,3-11.8,3-23.7c0-11.8-6.4-11.8-6.4-23.7s7.3-11.8,7.3-23.7
						c0-11.8-2.9-11.8-2.9-23.7s1.2-11.8,1.2-23.7c0-7.7,0.3-10.4,0.5-14.6c-2.7-4.2-5.5-8.3-8.5-12.4c-4.7-6.5-9.7-12.9-15.2-18.8
						c-8.6-3.1-16.8-7.4-25.5-10.2c-9.9-0.4-19.8-1.2-29.7-2.1c-0.8,0.2-1.6,0.4-2.3,0.6c-5.8,1.6-11.5,3.5-17.2,5.4
						C55.6,46.6,45.7,56.7,35,65.9c-0.2,0.2-0.4,0.3-0.7,0.5c-1,5.5-2.1,10.9-3.5,16.3c0.1,1.8,0.2,3.9,0.2,6.6
						c0,11.8,2.2,11.8,2.2,23.7c0,11.8,0.4,11.8,0.4,23.7s-5.5,11.8-5.5,23.7S29.6,172.1,29.6,184z"/>
					<linearGradient id="SVGID_8_" gradientUnits="userSpaceOnUse" x1="25.9936" y1="499.4209" x2="165.899" y2="499.4209">
						<stop  offset="0" style="stop-color:#41342A"/>
						<stop  offset="0.195" style="stop-color:#5E4430"/>
						<stop  offset="0.425" style="stop-color:#5A4230"/>
						<stop  offset="0.575" style="stop-color:#4B3B2E"/>
						<stop  offset="0.835" style="stop-color:#544132"/>
						<stop  offset="1" style="stop-color:#41342A"/>
					</linearGradient>
					<path fill="url(#SVGID_8_)" d="M162,484c-3.7,0.1-7.4,0-11.1-0.2c-6.5,0.5-12.9,1-19.4,1.4c-2.3,0.6-4.7,1.3-7.1,1.8
						c-4.9,3.1-10,6.1-14.9,9.2c-4.8,3-10.3-4.1-6.1-7.9c1.8-1.6,3.6-3.2,5.4-4.8c0-0.1-0.1-0.1-0.1-0.2
						c-13.3,0.8-26.5,1.3-39.8,0.5c-0.2,0-0.4-0.1-0.6-0.1c-11.1,1.3-22.2,2-33.4,2.1c-3.8,0-5.3-3.2-4.6-5.9c-0.1,0-0.3,0-0.4,0
						c-0.7,3-1.5,5.9-1.5,11.8c0,11.8-4.6,14.9,4.2,22.9c9.6,8.8,12.3,1.5,25.3,1.5s13-3,26-3s13,1.7,26,1.7s13,2,26,2
						s13.8,4.5,23.4-4.2c8.8-8,5.8-10,3.9-21.1C162.7,488.4,162.3,486,162,484z"/>
					<path opacity="0.3" fill="#261915" enable-background="new    " d="M29.7-281.5c1.5-3.6,6.9-3,8.6,0c0.9,1.5,1.8,3,2.7,4.5
						c1.1-1.7,2.7-2.2,4.2-2l-0.4-1l-1.3-3.1l0.2-3.3l0.6-3.4l-1.4-3.1v-0.4c-1.7-0.5-3.3-0.9-4.8-0.9c-2.5,0-4.7,1-7.2,3.3
						c-3.9,3.6-3.4,6.4-1.9,10.7C29.3-280.6,29.5-281.1,29.7-281.5z"/>
					<path opacity="0.3" fill="#261915" enable-background="new    " d="M52.3,485.4c-5.7,0.4-11.5,0.6-17.3,0.6
						c-1.8,0-3.1-0.7-3.9-1.8c-0.3,2-0.6,4.3-0.6,7.7c0,3.6-0.4,6.5-0.8,8.8c-0.8,5.4-1.1,7.7,4.3,12.6c3.7,3.3,5.8,3.8,7.5,3.8
						c0.4,0,0.8,0,1.3-0.1l0.9-1.8l3-2.9l-2.7-3.9l1.5-3.1l-0.4-3.7l5.3-1.7l1-3.1l0.9-3.2l0.5-3.4l-1.1-2.1L52.3,485.4z"/>
					<path opacity="0.3" fill="#261915" enable-background="new    " d="M30.1,160.3c0,5.8,0.4,8.6,0.8,11.6c0.4,3,0.8,6,0.8,12.1
						c0,5.5,1.2,8.2,2.5,11c1.2,2.7,2.5,5.5,2.8,10.4c3-0.2,5.9-0.4,8.9-0.6l0.2-1.1l2.8-2.7l1.9-2.6l-3.4-4.8l1.3-3.2l3.9-1.5
						l2.9-1.8l2.9-1.5l1.7-2.8l1.1-2.6l-4.7-0.1l1.3-4.5l-5.8-0.9l-0.4-3.5l1.9-4l0.3-3.4l-4.7-2.3l1.1-3.6l-2.3-3l-1.1-3.2l1-3.5
						l-1.1-3.2l0.9-3.4l1.4-3.4l-1.4-3.2l-1-3.2l1.4-3.4l-1.8-3.2l1.2-3.3l-3.3-3.2l1.2-3.3l-1-3.3l2.3-3.3l2-3.3l-4.8-3.3l2.4-3.3
						l-0.4-3.3l-0.3-3.3l0.7-3.3L46,85.7l-0.7-3.3l2.4-3.2l-1.4-3.3l0.6-3.3l-1-3.3l0.7-3.3l1.7-3.2L48,59.5l-2.9-2.8
						c-3.4,3.1-6.8,6.2-10.3,9.3c-0.2,0.2-0.4,0.3-0.7,0.5c-0.6,3.3-1.2,6.6-2,9.9c0,0.3,0.1,0.6,0.1,0.9c0.3,3,0.6,6,0.6,12
						c0,5.7,0.5,8.5,1,11.5s1.1,6.1,1.1,12.2c0,5.9,0.1,8.9,0.2,11.8c0.1,2.9,0.2,6,0.2,11.9c0,6.4-1.5,9.6-3,12.7
						C31.3,152.1,30.1,154.8,30.1,160.3z"/>
					<g opacity="0.3">
						<path fill="#261915" d="M161.3,492c-0.3-1.6-0.5-2.9-0.7-4.1c-0.3-1.5-0.5-2.7-0.7-3.9c-3,0-6,0-9-0.2c-1.5,0.1-3,0.2-4.6,0.3
							l-2.5,2.2l1.7,3.2l-1.3,3.4l4.3,2.9l-0.7,3.4v3.3l-0.3,3.3l-0.6,3.4l-0.6,3.4l3.2,2.9l0.3,0.7c2-0.2,4.2-1.2,8.2-4.8
							c6.2-5.7,5.8-7.4,4.4-13.7C162.1,496,161.7,494.2,161.3,492z"/>
						<path fill="#261915" d="M157.4-284.8c1.3,0.5,2.4,1.4,3.1,2.7c0.6-0.5,1.2-1,1.7-1.5c-0.3-1.1-1-2.2-2.6-3.6
							c-0.9-0.8-1.7-1.4-2.4-1.9C157.8-287.9,158-286.2,157.4-284.8z"/>
						<path fill="#261915" d="M134.5,63.1l5.8,0.9l0.4,3.5l-1.9,4.1l-0.3,3.4l4.8,2.3l-1.1,3.6l2.3,2.9l1.1,3.2l-1,3.5l1.1,3.2
							l-0.9,3.4l-1.3,3.4l1.4,3.2l1,3.2l-1.4,3.4l1.8,3.2l-1.1,3.4l3.3,3.2l-1.2,3.3l1,3.3l-2.3,3.4l-1.9,3.3l4.8,3.2l-2.3,3.3
							l0.4,3.3l0.3,3.3l-0.7,3.3l0.3,3.3l0.7,3.3l-2.4,3.3l1.4,3.3l-0.6,3.3l1,3.3l-0.6,3.3l-1.7,3.2l0.4,3.3l3.6,3.4l-1.4,3.2
							l-3.9,3.1l0.4,3.3l0.4,3.3l0.8,3.3l2.7,3.4l-5.2,3l0.7,2.5c1.4,0.2,2.8,0.5,4.2,0.7c4.1,0.3,8.2,0.8,12.3,1.3
							c0-0.7,0-1.5,0-2.4c0-6.2,0.8-9.3,1.6-12.3c0.7-2.9,1.5-5.7,1.5-11.4c0-5.4-1.4-8.1-3-10.9c-1.6-3-3.4-6.4-3.4-12.8
							c0-6.5,2.1-9.9,4-12.9c1.8-2.9,3.4-5.4,3.4-10.8c0-5.7-0.7-8.4-1.4-11.4c-0.7-3-1.5-6.2-1.5-12.3c0-6,0.3-9.1,0.6-12.1
							s0.6-5.8,0.6-11.6c0-6,0.2-9,0.3-12c0.1-1.6,0.2-3.3,0.2-5.5c-2.1-3.2-4.3-6.4-6.6-9.5c-3.7-5.1-7.6-10.2-11.8-15.1l-0.5,1.1
							l-3.9,1.5l-2.9,1.8l-2.9,1.5l-1.7,2.8l-1,2.6l4.7,0.1L134.5,63.1z"/>
					</g>
					<g>
						<g opacity="0.5">
							<path fill="#60492F" d="M61.6,137.7c0.1,3.7,0.1,7.4,0.2,11.1c0.1,3.7,0.2,7.4,0.1,11.1c0,3.7,0,7.5,0,11.2
								c0,3.8-0.1,7.5-0.1,11.3c-0.1,7.2-0.2,14.5-0.2,21.7c3.3-0.1,6.6-0.2,9.9-0.2c0.1-7.1,0.2-14.3,0.3-21.4
								c0-3.8,0.1-7.5,0.1-11.3s0-7.6,0-11.3c0-3.8-0.1-7.5-0.2-11.3c-0.1-3.7-0.2-7.5-0.3-11.2c-0.1-3.7-0.2-7.4-0.3-11.1
								c-0.1-3.7-0.3-7.3-0.4-10.9c-0.2-7.2-0.2-14.4-0.4-21.4c-0.2-7,0.1-13.9,0-20.7c0-3.4,0-6.7,0-10c0-3.3,0.2-6.6,0.2-9.8
								c0.2-6.2,0.4-12.3,0.5-18.2c-1.7,0.6-3.4,1.1-5,1.7c-0.7,0.6-1.3,1.2-2,1.8c-0.3,4.7-0.6,9.4-1,14.3
								c-0.2,3.2-0.5,6.5-0.6,9.9c-0.1,3.3-0.3,6.7-0.4,10.1s-0.3,6.9-0.4,10.3c0,1.7-0.1,3.5-0.1,5.2c0,1.8,0,3.5,0,5.3
								c0,7.1-0.1,14.3-0.1,21.6c0,3.6,0.1,7.3,0.1,11C61.5,130.3,61.5,134,61.6,137.7z"/>
						</g>
						<g opacity="0.5">
							<path fill="#60492F" d="M102.5,204.4c0-1,0-1.9,0-2.7c0.1-1.8,0.1-3.2,0.2-4.2c0-1,0-1.5,0-1.5s-0.1,0.5-0.4,1.4
								c-0.2,0.9-0.6,2.3-1,4.1c-0.2,0.8-0.3,1.8-0.5,2.8C101.4,204.4,101.9,204.4,102.5,204.4z"/>
						</g>
						<g opacity="0.5">
							<path fill="#60492F" d="M119,205.3c0.7-4.2,1.5-8.7,2.2-13.6c0.3-1.7,0.5-3.4,0.7-5.2c0.1-0.9,0.2-1.8,0.3-2.7
								s0.2-1.8,0.3-2.7c0.3-3.6,0.6-7.4,0.9-11.3c0.6-7.7,1.3-15.9,1.9-24.4c0.6-8.5,1.3-17.2,1.9-26.1c0.1-2.2,0.3-4.5,0.4-6.7
								l0.1-0.8v-0.9l0.1-1.7l0.1-3.4c0.2-4.5,0.2-9.1,0.2-13.7c0-2.3-0.1-4.6-0.1-6.8c-0.1-2.3-0.1-4.5-0.2-6.8
								c-0.2-4.5-0.4-9-0.7-13.5s-0.5-8.9-0.9-13.2c-0.3-4.4-0.7-8.7-1-12.9c-0.1-0.7-0.1-1.4-0.2-2c-2.4-1-4.8-2-7.2-2.8
								c0.1,1.8,0.2,3.5,0.3,5.3c0.4,8.4,0.8,17.2,1.3,26c0.2,4.4,0.3,8.9,0.5,13.4c0.1,4.5,0.2,9,0.2,13.4c0,4.5,0.1,8.9-0.1,13.4
								l-0.1,3.4v1.7v0.8v0.8c-0.1,2.2-0.2,4.5-0.3,6.7c-0.5,8.9-0.8,17.6-1.2,26.1c-0.4,8.5-0.6,16.7-0.8,24.4
								c-0.1,3.9-0.3,7.7-0.3,11.3c0,0.9,0,1.8-0.1,2.7c0,0.9,0,1.7-0.1,2.6c-0.1,1.7-0.2,3.4-0.3,5.1c-0.4,4.9-0.8,9.5-1.1,13.9
								C116.7,205.1,117.8,205.2,119,205.3z"/>
						</g>
					</g>
					<path opacity="0.3" fill="#281D14" enable-background="new    " d="M157.4-284.8c1.3,0.5,2.4,1.4,3.1,2.7
						c0.6-0.5,1.2-1,1.7-1.5c-0.3-1.1-1-2.2-2.6-3.6c-0.9-0.8-1.7-1.4-2.4-1.9C157.8-287.9,158-286.2,157.4-284.8z"/>
					<path opacity="0.3" fill="#281D14" enable-background="new    " d="M138.3,80.6c-1.5,43.7,2.2,83.1-0.4,126.7
						c3.1,0.4,6.2,0.9,9.4,1.4c4.1,0.3,8.2,0.8,12.3,1.3c0-0.7,0-1.5,0-2.4c0-6.2,0.8-9.3,1.6-12.3c0.7-2.9,1.5-5.7,1.5-11.4
						c0-5.4-1.4-8.1-3-10.9c-1.6-3-3.4-6.4-3.4-12.8c0-6.5,2.1-9.9,4-12.9c1.8-2.9,3.4-5.4,3.4-10.8c0-5.7-0.7-8.4-1.4-11.4
						c-0.7-3-1.5-6.2-1.5-12.3c0-6,0.3-9.1,0.6-12.1s0.6-5.8,0.6-11.6c0-6,0.2-9,0.3-12c0.1-1.6,0.2-3.3,0.2-5.5
						c-2.1-3.2-4.3-6.4-6.6-9.5c-4.7-6.5-9.7-12.9-15.1-18.8c-2-0.7-3.9-1.5-5.9-2.3C135.4,53.2,138.8,65.4,138.3,80.6z"/>
					<path opacity="0.3" fill="#281D14" enable-background="new    " d="M161.3,492c-0.3-1.6-0.5-2.9-0.7-4.1
						c-0.3-1.5-0.5-2.7-0.7-3.9c-3,0-6,0-9-0.2c-6.5,0.5-12.9,1-19.4,1.4c-0.3,0.1-0.6,0.2-0.9,0.2c0.6,9.6,0.2,19.9,1.1,29.4
						c1.2,0.1,2.6,0.1,4.2,0.1c4.1,0,7,0.4,9.3,0.8c1.5,0.2,2.7,0.4,3.8,0.4c2.3,0,4.5-0.8,8.9-4.9c6.2-5.7,5.8-7.4,4.4-13.7
						C162.1,496,161.7,494.2,161.3,492z"/>
					<path opacity="0.3" fill="#281D14" enable-background="new    " d="M29.7-281.5c1.5-3.6,6.9-3,8.6,0c0.9,1.5,1.8,3,2.7,4.5
						c2.2-3.6,6.8-1.9,8.4,1.2c0.7-0.6,1.3-1.3,2-1.9c-0.1-4.5-0.3-9-0.8-13.3c-2-0.5-3.8-1.1-5.4-1.6c-2.6-0.9-4.8-1.6-7-1.6
						c-2.5,0-4.7,1-7.2,3.3c-3.9,3.6-3.4,6.4-1.9,10.7C29.3-280.6,29.5-281.1,29.7-281.5z"/>
					<path opacity="0.3" fill="#281D14" enable-background="new    " d="M35,486c-1.8,0-3.1-0.7-3.9-1.8c-0.3,2-0.6,4.3-0.6,7.7
						c0,3.6-0.4,6.5-0.8,8.8c-0.8,5.4-1.1,7.7,4.3,12.6c3.7,3.3,5.8,3.8,7.5,3.8c1.5,0,3.1-0.4,5.1-1c1.5-0.4,3.1-0.9,5-1.2
						c2.5-7.6,4.3-15.6,4.7-20.6c0.3-3.1,0.4-6.2,0.4-9.2C49.4,485.6,42.2,486,35,486z"/>
					<g>
						<g>
							<g>
								<path opacity="0.5" fill="#262626" enable-background="new    " d="M121.7,159.8c0.1,1.8,2.4,5.1,2.4,5.1s1.2,2.8,2.5,2.3
									c1.4-0.5,4.3-1.9,4.8-2.6c0.5-0.7,2.9-3.9-0.6-6.6c-1.4-1-3.1-0.8-4.2-1C125.5,157,121.6,157.6,121.7,159.8z"/>
								<g>
									<path fill="#808080" d="M125.9,164.3c1.1,2.2,2-1.1,2.5-0.1c0.5,0.9,3.1-1.4,2.3-3.2s-3.1-2.6-3.1-3.1s-5.2-0.9-5.4,0.9
										s2.1,4,2.1,4L125.9,164.3z"/>
									<path fill="#A5A5A5" d="M126.5,160.3c-1-0.7-2.6-1.4-2.6-0.8c0,0.5,1.6,2.4,1.6,2.4l1.4,0.9l0.8-2L126.5,160.3z"/>
								</g>
							</g>
							<g>
								<linearGradient id="SVGID_9_" gradientUnits="userSpaceOnUse" x1="135.1852" y1="148.25" x2="159.385" y2="148.25">
									<stop  offset="0" style="stop-color:#FFFFFF"/>
									<stop  offset="1" style="stop-color:#000000"/>
								</linearGradient>
								<path opacity="0.5" fill="url(#SVGID_9_)" enable-background="new    " d="M143,164.3c-9.5-0.6-8.1-4.1-7.1-8.8
									c0.1-1.1,0.2-2.4,0.4-3.9c0.5-7,3.4-13.4,8.9-19.1l0.4-0.3l0.5,0.1c16.1,4.4,16,5.9,8,20.3l-10.6,11.6L143,164.3z"/>
								<g>
									<path fill="#808080" d="M141.7,132.9c-10.4,7.4-7.1,18-9.2,23.4c-2,5.4,6.5,6,6.5,6l10-10.9c0,0,7.8-14.1,4.8-15
										C150.8,135.4,141.7,132.9,141.7,132.9z"/>
									<path fill="#A5A5A5" d="M143.3,136.2l-5.7,14.9c0,0,2.5,2.4,3.3,3.6c0.9,1.2,6.5-5.2,6.5-5.2l1.9-10.6L143.3,136.2z"/>
									<path fill="#A09D9A" d="M137.6,151.1l-5.3,6.1c0,0,0.6-19.8,9.4-24.2l1.6,3.3L137.6,151.1z"/>
									<path fill="#686868" d="M141.5,154.8c-0.2,2.3-1.1,4.5-1.4,6.7c0,0-1.4,1.1-3.1,0.5c-1.7-0.5-5-2.2-4.7-3.9s5.4-7,5.4-7
										L141.5,154.8z"/>
								</g>
							</g>
							<g>
								<path opacity="0.5" fill="#262626" enable-background="new    " d="M125.2,152.7c-0.3,0.3,0.5,3,0.5,3l6.3-2.7l-0.5-5
									c0,0-0.4-0.6-1.9-0.4c-1.4,0.1-4.4,1.9-4.4,1.9L125.2,152.7z"/>
								<path fill="#808080" d="M129.8,148.8c0,0-4.6,0-4.6,0.8s0.8,4.3,0.8,4.3l4.4-1.9L129.8,148.8z"/>
							</g>
						</g>
					</g>
				</g>
			</g>
		</g>
	</g>
</g>
</svg>
