<?xml version="1.0" encoding="utf-8"?>
<!-- Generator: Adobe Illustrator 18.0.0, SVG Export Plug-In . SVG Version: 6.00 Build 0)  -->
<!DOCTYPE svg PUBLIC "-//W3C//DTD SVG 1.1//EN" "http://www.w3.org/Graphics/SVG/1.1/DTD/svg11.dtd">
<svg version="1.1" id="Layer_1" xmlns="http://www.w3.org/2000/svg" xmlns:xlink="http://www.w3.org/1999/xlink" x="0px" y="0px"
	 viewBox="0 0 165.7 166.5" enable-background="new 0 0 165.7 166.5" xml:space="preserve">
<g>
	
		<linearGradient id="SVGID_1_" gradientUnits="userSpaceOnUse" x1="12.9458" y1="83.5681" x2="152.879" y2="83.5681" gradientTransform="matrix(1 0 0 -1 0 168)">
		<stop  offset="0" style="stop-color:#41342A"/>
		<stop  offset="6.243074e-02" style="stop-color:#5A4230"/>
		<stop  offset="0.733" style="stop-color:#5E4430"/>
		<stop  offset="0.9477" style="stop-color:#544132"/>
		<stop  offset="0.9602" style="stop-color:#5A4230"/>
		<stop  offset="1" style="stop-color:#41342A"/>
	</linearGradient>
	<path fill="url(#SVGID_1_)" d="M151.2,18c0.8,3.5-5.5,6.2-5.5,12.7c0,8.5-0.4,8.5-0.4,17c0,8.5,7.1,8.5,7.1,17
		c0,8.5,0.5,8.5,0.5,17c0,8.5-7.3,8.5-7.3,17.1c0,8.5-0.2,8.5-0.2,17c0,8.5,1.3,8.5,1.3,17.1c0,8.5,4.6,8.5,4.6,17
		c0,8.3,0.2,8.5-0.1,16.5H12.9c-0.1-7.9,2.5-8.1,2.5-16.4c0-8.5,0.3-8.5,0.3-17.1c0-8.5,4.1-8.5,4.1-17.1s0.8-8.5,0.8-17.1
		c0-8.5-3.8-8.5-3.8-17.1c0-8.5,3.1-8.5,3.1-17.1c0-8.5-2.2-8.5-2.2-17.1s-0.2-8.5-0.2-17.1c0-5.4-3.8-9.2-4.5-12.7
		c0,0-1.1-13.9,5.2-14.3c6.3-0.4,30.7-1.5,32-1.1s9,4.8,13.7,5c4.7,0.2,22.5-6,27-4.9c4.5,1.1,9.7,4,11,4s20.1-4.9,24-4.1
		c3.9,0.7,14.3,3.6,23,2.4C150.9,4.9,152.5,7.3,151.2,18z"/>
	<path opacity="0.3" fill="#281D14" enable-background="new    " d="M143.6,37.1c0.6-0.5,1.3-1,2.1-1.4c0-1.3,0.1-2.9,0.1-5
		c0-6.5,6.4-9.2,5.5-12.7c1.2-10.7-0.4-13.1-2.2-13.1c-8.7,1.2-19.1-1.7-23-2.4c-3.9-0.7-22.7,4.1-24,4.1c-1.3,0-6.5-2.8-11-4
		c-4.5-1.1-22.3,5.2-27,4.9c-4.7-0.2-12.3-4.6-13.7-5c-1.3-0.4-25.7,0.7-32,1.1S13.1,18,13.1,18c0.7,3.5,4.5,7.3,4.5,12.7
		c0,6,0.1,7.8,0.2,11.3c0.7,0.1,1.3,0.1,2,0.1c0,1.4,0,3.2,0,5.6c0,4.1,0.5,6.1,1.1,8.3c0.6,2.2,1.1,4.4,1.1,8.8
		c0,4.4-0.8,6.7-1.6,8.9c-0.8,2.1-1.5,4.1-1.5,8.2c0,4,0.9,6,1.8,8.1c1,2.2,2,4.5,2,9c0,4.3-0.2,6.5-0.4,8.6
		c-0.2,2.1-0.4,4.2-0.4,8.4c0,4.5-1.1,6.8-2.1,9c-1,2.1-1.9,4-1.9,8.1c0,4.3-0.1,6.5-0.2,8.6c-0.1,2.1-0.1,4.2-0.1,8.5
		c0,4.2-4.4,12.5-4.4,16.4h25.1c-1.4-9.3,4.2-10.6,4-15.9c-0.2-5.6-1.7-10.6-1.7-16.4c0.1-6.9,2.2-14.9,1.1-21.8
		c-0.3-2-1.6-3.4-2-5.3c-0.9-4.2,0.2-4,0.4-7.2c0.2-3.5,1.1-7.6,1.1-12.3c-0.3-15.3,2.5-30-1.1-45c-0.2-1-0.4-2-0.6-3.1
		c0.4-1.2,0.2-2.4,0.8-3.6c1.2-2.1,4-3.5,6.5-4.8c3.3-1.8,6.3-2.9,10.6-3c2.5-0.1,5.2,0.2,7.7-0.2c2-0.4,3.8-1.2,6-1.6
		c7.8-1.2,17.7-0.9,23.7,3.2c0.2,0.2,0.5,0.3,0.7,0.5c0.2,0,0.4,0,0.6,0c13.6,0,25,11.4,25,25c0,4.4-1.2,8.5-3.2,12.1
		c0.2,1.4,0.3,2.8,0.4,4.2c0.4,7.1-0.6,13.8-1.6,20.4c3.1,3.9,5,8.7,5.3,13.8c2.5,3.9,4,8.5,4,13.5c0,5.7-2,11-5.3,15.2
		c0.8,2.5,1.3,5.1,1.3,7.8c0,1.2-0.1,2.4-0.3,3.5c0.2,1.1,0.3,2.3,0.3,3.5c0,1.8-0.2,3.5-0.6,5.1c1.6,3.3,2.6,7,2.6,10.9
		c0,0.5,0,1,0,1.5h26.9c0.1-4.2-1.5-12.6-1.5-16.5c0-4-1.1-5.9-2.2-8c-1.2-2.2-2.5-4.5-2.5-9c0-4.2-0.3-6.2-0.6-8.4
		c-0.3-2.1-0.7-4.3-0.7-8.7c0-4.3,0-6.4,0.1-8.5c0-2.1,0.1-4.3,0.1-8.5c0-4.7,2.1-7.1,4-9.3c1.8-2.1,3.4-3.9,3.4-7.8
		c0-4.2-0.1-6.4-0.2-8.5c-0.1-2.1-0.2-4.3-0.2-8.6c0-3.9-1.5-5.7-3.3-7.8c-1.8-2.2-3.8-4.6-3.8-9.3c0-4.3,0.1-6.5,0.2-8.6
		C143.5,38.5,143.6,37.8,143.6,37.1z"/>
	<path opacity="0.3" fill="#261915" enable-background="new    " d="M145.4,40.1c0.1-2.5,0.3-4.6,0.3-9.5c0-6.5,6.4-9.2,5.5-12.7
		c1.2-10.7-0.4-13.1-2.2-13.1c-8.7,1.2-19.1-1.7-23-2.4s-22.7,4.1-24,4.1s-6.5-2.8-11-4c-4.5-1.1-22.3,5.2-27,4.9
		c-4.7-0.2-12.3-4.6-13.7-5s-25.7,0.7-32,1.1S13.1,18,13.1,18c0.7,3.5,4.5,7.3,4.5,12.7c0,6.4,0.1,8,0.2,12c0.7-0.2,1.3-0.4,2-0.6
		c0,1.5,0,3.2,0,5.7c0,4.1,0.5,6.1,1.1,8.3c0.6,2.2,1.1,4.4,1.1,8.8c0,4.4-0.8,6.7-1.6,8.9c-0.8,2.1-1.5,4.1-1.5,8.2
		c0,4,0.9,6,1.8,8.1c1,2.2,2,4.5,2,9c0,4.3-0.2,6.5-0.4,8.6c-0.2,2.1-0.4,4.2-0.4,8.4c0,4.5-1.1,6.8-2.1,9c-1,2.1-1.9,4-1.9,8.1
		c0,4.3-0.1,6.5-0.2,8.6c-0.1,2.1-0.1,4.2-0.1,8.5c0,4.2-4.6,12.5-4.6,16.4h17.7l2.6-0.3l-2.2-2.2l0.2-2.4l1.4-2.5l-0.4-2.3l0-2.4
		l0.1-2.4l-3.1-2.1l1.2-2.5l-0.3-2.3l-1.1-2.3l2-2.5l-1.3-2.3l-1.4-2.3l0.3-2.4l0.6-2.4l-3.9-2.1l2.5-2.5l-2-2.2l3.7-2.6l-2.5-2.2
		l-3.2-2.5l1.9-2.4l0.4-2.5l0.1-2.5l1.1-2.3l2.4-2.1l3.4-1.9l-1.9-2.9l1.4-2.3l1.2-2.4L32,93.2l0.5-2.6l-3.5-2l2.5-2.4l1.8-2.1
		l-0.3-2.5l-0.8-2.5l0.6-2.3L32,74.4l1.5-2.2l3.1-2.1l-0.9-2.4l-2-2.5l3.3-2.2L34,60.5l0.1-2.3l3.2-2.3l-3.5-2.3l2.8-2.4l2.4-2.4
		l-4.7-2.2l4.2-2.5l-1.6-2.3l1.3-2.4l-4.3-2.1l0.7-2.3L39,29l3.7-5c0,0,3.8,0.4,4.2,0s2.5-5.9,2.5-5.9s0.8-1.3,1.8,0s8.8,0,9.2-0.6
		s3.6-2.9,4.4-2.3c0.9,0.5,3.1,1.4,3.1,1.4l8.2-1.5c0,0,6.6-0.3,6.2,0s4.3,3,4.3,3h2.2c1.5-0.5,5.2,0.9,5.2,0.9s-1.5,3.1,0,3.1
		c1.2,0,6.8,0.5,8.9,0.4c0.1,0.1,0.2,0.2,0.3,0.4c1.5,1.6,1.2,5.2,2.4,5.2s9.1-1.3,9.1-1.3s0.2,2.2,0,2.7s4.3,6.1,5.1,5.9
		c0.9-0.2,4.4,3.1,4.4,3.1l0.4,0.1l-0.1,0.3l-0.5,2.5l1.1,1.5l-0.8,2.8l3.1,1l0,2.5l1.8,1.9l2.3,2l2.1,2.1l0.9,2.3l-2.1,2.6
		l-1.5,2.5l0,2.3l0.6,2.3l0.1,2.3l-0.6,2.3l0.4,2.3l1.9,2.3l0.2,2.4l2.9,2.4l-3.7,2.3l-1.3,2.3l2.4,2.4l2.2,2.4l-0.7,2.3l-1.7,2.3
		l2,2.4l-5.2,2.2l0.5,2.4l0.4,2.4l3.6,2.5l-2.3,2.3l1.4,2.3l-0.6,2.3l0.9,2.3l0.1,2.3l-3.7,2.3l2.3,2.3l0.2,2.3l-1.7,2.3l3.2,2.3
		l-2.5,2.3l-1.4,2.3l-1.3,2.3l4.8,2.2l-1.3,2.3l-1.5,2.3l3.5,2.2l-2.8,2.4l3.3,2.3l-2.8,2.4l0.4,2.3l-3,2.2l4.3,2.6l-3.3,2.1
		l1.6,2.5l-2.6,1.6h21c0.1-4.2-1.9-12.6-1.9-16.5c0-4-1.1-5.9-2.2-8c-1.2-2.2-2.5-4.5-2.5-9.1c0-4.2-0.3-6.2-0.6-8.4
		c-0.3-2.1-0.7-4.3-0.7-8.7c0-4.3,0-6.4,0.1-8.5c0-2.1,0.1-4.3,0.1-8.5c0-4.7,2.1-7.1,4-9.3c1.8-2.1,3.4-3.9,3.4-7.8
		c0-4.2-0.1-6.4-0.2-8.5c-0.1-2.1-0.2-4.3-0.2-8.6c0-3.9-1.5-5.7-3.3-7.8c-1.8-2.2-3.8-4.6-3.8-9.3c0-3.6,0.1-5.7,0.2-7.6
		L145.4,40.1L145.4,40.1z"/>
	<g>
		<g opacity="0.5">
			<path fill="#60492F" d="M99.5,153.6c0,0-0.1-0.1-0.3-0.2c-0.2-0.1-0.5-0.4-0.8-0.7c-0.6-0.7-1.5-1.8-2.2-3.5
				c-0.7-1.7-1.2-3.8-1.4-6.3c-0.2-2.5-0.2-5.3,0.1-8.3c0.3-3,0.7-6.2,1.3-9.6c0.6-3.4,1.3-6.9,2-10.4c0.3-1.8,0.7-3.6,0.9-5.4
				c0.2-1.8,0.4-3.6,0.3-5.1c-0.1-0.9-0.2-1.9-0.2-2.8c-0.1-0.9-0.2-1.9-0.3-2.8c-0.2-1.9-0.5-3.8-0.7-5.7
				c-0.6-3.9-1.1-7.7-1.7-11.5c-0.5-3.8-1-7.7-1.3-11.4c-0.6-7.5-0.2-14.8,1.3-20.8c0.7-3,1.7-5.6,2.8-7.9c1-2.3,2.2-4.1,3.1-5.5
				c1-1.5,1.8-2.5,2.5-3.2c0.6-0.7,0.9-1.1,0.9-1.1s-0.2,0.5-0.6,1.3c-0.4,0.8-0.9,2.1-1.5,3.7c-0.3,0.8-0.6,1.7-0.9,2.7
				c-0.1,0.5-0.3,1-0.5,1.5c-0.1,0.5-0.3,1.1-0.4,1.6c-0.5,2.3-1,4.8-1.2,7.7c-0.5,5.6-0.2,12.2,0.9,19.3c0.5,3.6,1.1,7.3,1.7,11.1
				c0.6,3.8,1.2,7.7,1.7,11.7c0.2,2,0.4,4,0.6,6c0.1,1,0.1,2,0.2,3c0,1,0,2,0.1,3c0,2.3-0.4,4.4-0.7,6.3c-0.4,1.9-0.9,3.8-1.3,5.6
				c-1,3.6-2,7-2.9,10.2c-0.9,3.2-1.8,6.2-2.4,9.1c-1.3,5.6-1.7,10.4-1.1,13.7c0.3,1.6,0.8,2.9,1.3,3.6c0.2,0.4,0.4,0.7,0.6,0.9
				C99.4,153.5,99.5,153.6,99.5,153.6z"/>
		</g>
		<g>
			<path fill="#60492F" d="M60.4,99.8c0,0,0-0.3,0-0.9c0-0.6,0.1-1.4,0.2-2.4c0.1-1,0.3-2.3,0.5-3.7c0.3-1.4,0.6-3,1-4.8
				c0.4-1.7,0.9-3.6,1.4-5.5c0.5-1.9,1-4,1.6-6.1c0.5-2.1,1-4.3,1.4-6.5c0.2-1.1,0.4-2.2,0.5-3.3l0.2-1.7c0-0.3,0.1-1.2,0-1.6l0-0.7
				l-0.1-0.8c-0.1-0.5-0.2-1-0.3-1.6c-0.2-1.1-0.5-2.1-0.9-3.2c-0.7-2.2-1.4-4.4-1.8-6.7c-0.2-1.2-0.4-2.3-0.3-3.5
				c0-0.3,0-0.6,0-0.8l0-0.7c0-0.5,0-1,0-1.5c0-2-0.1-3.9-0.1-5.7c-0.1-3.6,0.2-6.6,0.8-8.7c0.3-1,0.6-1.8,0.9-2.3
				c0.3-0.5,0.4-0.7,0.4-0.7c0,0-0.1,0.3-0.2,0.8c-0.1,0.5-0.2,1.3-0.3,2.3c-0.1,1,0,2.2,0.1,3.6c0.1,1.4,0.4,3,0.6,4.7
				c0.3,1.7,0.6,3.6,0.8,5.7c0.1,0.5,0.1,1,0.1,1.6l0,0.8c0,0.3,0,0.5,0.1,0.7c0.1,0.9,0.2,1.9,0.5,2.9c0.5,2,1.3,4,2,6.3
				c0.4,1.1,0.8,2.3,1,3.5c0.3,1.3,0.5,2.4,0.5,3.9c0,0.8,0,1.1-0.1,1.9l-0.2,1.8c-0.2,1.2-0.4,2.4-0.7,3.6
				c-0.5,2.3-1.2,4.6-1.8,6.7c-0.7,2.1-1.4,4.1-2.1,6c-0.7,1.9-1.4,3.7-2,5.3c-0.6,1.6-1.2,3.1-1.7,4.5c-0.5,1.3-0.9,2.5-1.2,3.5
				c-0.3,1-0.6,1.8-0.7,2.3C60.5,99.5,60.4,99.8,60.4,99.8z"/>
		</g>
	</g>
	<g>
		<g>
			<g>
				<path opacity="0.5" fill="#262626" enable-background="new    " d="M134.8,59.5c-1.3-1.2-5.3-2-5.3-2s-2.8-1.2-3.4,0.1
					c-0.7,1.3-1.8,4.3-1.7,5.2c0.1,0.8,0.6,4.8,5,4.3c1.6-0.3,2.8-1.6,3.7-2.2S136.5,61,134.8,59.5z"/>
				<g>
					<path fill="#808080" stroke="#4D4D4D" stroke-width="2" stroke-miterlimit="10" d="M128.7,59.2c-2.3-0.9-0.7,2.2-1.7,1.8
						c-1-0.3-1.3,3.2,0.6,3.9s4-0.3,4.4,0c0.4,0.3,4.4-3,3.2-4.4c-1.2-1.5-4.3-1.4-4.3-1.4L128.7,59.2z"/>
					<path fill="#A5A5A5" d="M131.1,62.5c1.3-0.2,2.8-0.8,2.4-1.2c-0.4-0.4-2.8-0.6-2.8-0.6l-1.6,0.3l0.9,2L131.1,62.5z"/>
				</g>
			</g>
			<g>
				<path opacity="0.5" fill="#262626" enable-background="new    " d="M116.5,71.1c7.2-6.2,8.6-2.7,11.2,1.4
					c0.7,0.8,1.5,1.9,2.4,3.1c4.5,5.4,6.9,12,6.9,19.9l-0.1,0.5l-0.4,0.2c-14.6,8.1-15.6,6.9-19.9-9l-0.4-15.8L116.5,71.1z"/>
				<g>
					<path fill="#808080" stroke="#4D4D4D" stroke-width="2" stroke-miterlimit="10" d="M139.2,92.8c2.3-12.5-7.4-17.9-9.7-23.2
						c-2.3-5.3-8.8,0.2-8.8,0.2l0.4,14.8c0,0,4.2,15.5,7,14.1C130.9,97.3,139.2,92.8,139.2,92.8z"/>
					<path fill="#A5A5A5" stroke="#4D4D4D" stroke-miterlimit="10" d="M135.8,91.5l-6.3-14.6c0,0-3.5,0-4.9-0.3
						c-1.5-0.2-1.1,8.3-1.1,8.3l6.1,8.9L135.8,91.5z"/>
					<path fill="#A09D9A" stroke="#4D4D4D" stroke-miterlimit="10" d="M129.5,76.9l-0.4-8.1c0,0,13.3,14.6,10.1,23.9l-3.4-1.3
						L129.5,76.9z"/>
					<path fill="#686868" stroke="#4D4D4D" stroke-miterlimit="10" d="M124.1,76.9c-1.5-1.8-2.4-4-3.7-5.7c0,0,0.2-1.7,1.9-2.6
						s5.1-2,6.1-0.5c1,1.5,1,8.8,1,8.8L124.1,76.9z"/>
				</g>
			</g>
			<g>
				<path opacity="0.5" fill="#262626" enable-background="new    " d="M137.3,67c0-0.4-2.5-1.8-2.5-1.8l-2.7,6.3l3.8,3.2
					c0,0,0.7,0.1,1.6-1c0.9-1.1,1.9-4.4,1.9-4.4L137.3,67z"/>
				<path fill="#808080" stroke="#4D4D4D" stroke-width="2" stroke-miterlimit="10" d="M136.7,73.1c0,0,3.3-3.2,2.7-3.8
					c-0.6-0.6-3.5-2.6-3.5-2.6l-1.8,4.4L136.7,73.1z"/>
			</g>
		</g>
	</g>
	<path fill="none" stroke="#3D2F26" stroke-width="4" stroke-miterlimit="10" d="M13.1,166.5c-0.1-7.9,2.3-8.1,2.3-16.4
		c0-8.5,0.3-8.5,0.3-17.1c0-8.5,4.1-8.5,4.1-17.1s0.8-8.5,0.8-17.1c0-8.5-3.8-8.5-3.8-17.1c0-8.5,3.1-8.5,3.1-17.1
		c0-8.5-2.2-8.5-2.2-17.1s-0.2-8.5-0.2-17.1c0-5.4-4.4-8.3-4.4-12.7c0,0-0.6-15,7.5-14.8s28-1.4,32.4,0c4.3,1.4,6.6,4.1,11.8,4.1
		S88,2.5,91,2.6s8.5,2.8,9.9,3.7c1.4,1,23.3-3.8,23.4-3.7c0.1,0.1,2.5-0.8,8.8,1.6c6.3,2.4,16.7,0.2,17.8,0.7
		c1.1,0.5,1.8,8.9,0.2,13.1c0,4.6-5.3,6.2-5.3,12.7c0,8.5-0.4,8.5-0.4,17c0,8.5,7.1,8.5,7.1,17c0,8.5,0.5,8.5,0.5,17
		c0,8.5-7.3,8.5-7.3,17.1c0,8.5-0.2,8.5-0.2,17c0,8.5,1.3,8.5,1.3,17.1c0,8.5,4.6,8.5,4.6,17c0,8.3,0,8.5-0.3,16.5"/>
</g>
</svg>
