<?xml version="1.0" encoding="utf-8"?>
<!-- Generator: Adobe Illustrator 18.0.0, SVG Export Plug-In . SVG Version: 6.00 Build 0)  -->
<!DOCTYPE svg PUBLIC "-//W3C//DTD SVG 1.1//EN" "http://www.w3.org/Graphics/SVG/1.1/DTD/svg11.dtd">
<svg version="1.1" id="Layer_1" xmlns="http://www.w3.org/2000/svg" xmlns:xlink="http://www.w3.org/1999/xlink" x="0px" y="0px"
	 viewBox="0 0 200 200" enable-background="new 0 0 200 200" xml:space="preserve">
<g>
	
		<linearGradient id="SVGID_1_" gradientUnits="userSpaceOnUse" x1="25.0875" y1="131.0779" x2="141.8741" y2="131.0779" gradientTransform="matrix(1.2012 0 0 1.2012 0.4805 -38.4384)">
		<stop  offset="0" style="stop-color:#41342A"/>
		<stop  offset="6.243074e-02" style="stop-color:#5A4230"/>
		<stop  offset="0.733" style="stop-color:#5E4430"/>
		<stop  offset="0.9477" style="stop-color:#544132"/>
		<stop  offset="0.9602" style="stop-color:#5A4230"/>
		<stop  offset="1" style="stop-color:#41342A"/>
	</linearGradient>
	<path fill="url(#SVGID_1_)" d="M169.2,39.4c0.8,4.2-5.5,7.4-5.5,15.3c0,10.2-0.4,10.2-0.4,20.4s7.1,10.2,7.1,20.4
		s0.5,10.2,0.5,20.4s-7.3,10.2-7.3,20.5c0,10.2-0.2,10.2-0.2,20.4s1.3,10.2,1.3,20.5c0,10.2,4.6,10.2,4.6,20.4
		c0,10,0.2,10.2-0.1,19.8H30.6c-0.1-9.5,2.5-9.7,2.5-19.7c0-10.2,0.3-10.2,0.3-20.5c0-10.2,4.1-10.2,4.1-20.5s0.8-10.2,0.8-20.5
		c0-10.2-3.8-10.2-3.8-20.5c0-10.2,3.1-10.2,3.1-20.5c0-10.2-2.2-10.2-2.2-20.5s-0.2-10.2-0.2-20.5c0-6.5-3.8-11.1-4.5-15.3
		c0,0-1.1-16.7,5.2-17.2S66.7,20,68,20.4c1.3,0.5,9,5.8,13.7,6c4.7,0.2,22.5-7.2,27.1-5.9c4.5,1.3,9.7,4.8,11,4.8
		c1.3,0,20.1-5.9,24-4.9c3.9,0.8,14.3,4.3,23,2.9C168.9,23.7,170.5,26.6,169.2,39.4z"/>
	<path opacity="0.3" fill="#281D14" enable-background="new    " d="M161.6,62.4c0.6-0.6,1.3-1.2,2.1-1.7c0-1.6,0.1-3.5,0.1-6
		c0-7.8,6.4-11.1,5.5-15.3c1.2-12.9-0.4-15.7-2.2-15.7c-8.7,1.4-19.1-2-23-2.9c-3.9-0.8-22.7,4.9-24,4.9s-6.5-3.4-11-4.8
		c-4.5-1.3-22.3,6.2-27.1,5.9c-4.7-0.2-12.3-5.5-13.7-6c-1.3-0.5-25.8,0.8-32.1,1.3s-5.3,17.3-5.3,17.3c0.7,4.2,4.5,8.8,4.5,15.3
		c0,7.2,0.1,9.4,0.2,13.6c0.7,0.1,1.3,0.1,2,0.1c0,1.7,0,3.8,0,6.7c0,4.9,0.5,7.3,1.1,10c0.6,2.6,1.1,5.3,1.1,10.6
		c0,5.3-0.8,8-1.6,10.7c-0.8,2.5-1.5,4.9-1.5,9.8c0,4.8,0.9,7.2,1.8,9.7c1,2.6,2,5.4,2,10.8c0,5.2-0.2,7.8-0.4,10.3s-0.4,5-0.4,10.1
		c0,5.4-1.1,8.2-2.1,10.8c-1,2.5-1.9,4.8-1.9,9.7c0,5.2-0.1,7.8-0.2,10.3c-0.1,2.5-0.1,5-0.1,10.2c0,5-4.4,15-4.4,19.7h25.2
		c-1.4-11.2,4.2-12.7,4-19.1c-0.2-6.7-1.7-12.7-1.7-19.7c0.1-8.3,2.2-17.9,1.1-26.2c-0.3-2.4-1.6-4.1-2-6.4c-0.9-5,0.2-4.8,0.4-8.6
		c0.2-4.2,1.1-9.1,1.1-14.8c-0.3-18.4,2.5-36-1.1-54.1c-0.2-1.2-0.4-2.4-0.6-3.7c0.4-1.4,0.2-2.9,0.8-4.3c1.2-2.5,4-4.2,6.5-5.8
		c3.3-2.2,6.3-3.5,10.6-3.6c2.5-0.1,5.2,0.2,7.7-0.2c2-0.5,3.8-1.4,6-1.9c7.8-1.4,17.7-1.1,23.7,3.8c0.2,0.2,0.5,0.4,0.7,0.6
		c0.2,0,0.4,0,0.6,0c13.6,0,25.1,13.7,25.1,30c0,5.3-1.2,10.2-3.2,14.5c0.2,1.7,0.3,3.4,0.4,5c0.4,8.5-0.6,16.6-1.6,24.5
		c3.1,4.7,5,10.5,5.3,16.6c2.5,4.7,4,10.2,4,16.2c0,6.8-2,13.2-5.3,18.3c0.8,3,1.3,6.1,1.3,9.4c0,1.4-0.1,2.9-0.3,4.2
		c0.2,1.3,0.3,2.8,0.3,4.2c0,2.2-0.2,4.2-0.6,6.1c1.6,4,2.6,8.4,2.6,13.1c0,0.6,0,1.2,0,1.8h27c0.1-5-1.5-15.1-1.5-19.8
		c0-4.8-1.1-7.1-2.2-9.6c-1.2-2.6-2.5-5.4-2.5-10.8c0-5-0.3-7.4-0.6-10.1c-0.3-2.5-0.7-5.2-0.7-10.5c0-5.2,0-7.7,0.1-10.2
		c0-2.5,0.1-5.2,0.1-10.2c0-5.6,2.1-8.5,4-11.2c1.8-2.5,3.4-4.7,3.4-9.4c0-5-0.1-7.7-0.2-10.2c-0.1-2.5-0.2-5.2-0.2-10.3
		c0-4.7-1.5-6.8-3.3-9.4c-1.8-2.6-3.8-5.5-3.8-11.2c0-5.2,0.1-7.8,0.2-10.3C161.5,64.1,161.6,63.2,161.6,62.4z"/>
	<path opacity="0.3" fill="#261915" enable-background="new    " d="M163.4,66c0.1-3,0.3-5.5,0.3-11.4c0-7.8,6.4-11.1,5.5-15.3
		c1.2-12.9-0.4-15.7-2.2-15.7c-8.7,1.4-19.1-2-23-2.9s-22.7,4.9-24,4.9c-1.3,0-6.5-3.4-11-4.8c-4.5-1.3-22.3,6.2-27.1,5.9
		c-4.7-0.2-12.3-5.5-13.7-6C66.7,20.2,42.3,21.5,36,22s-5.2,17.4-5.2,17.4c0.7,4.2,4.5,8.8,4.5,15.3c0,7.7,0.1,9.6,0.2,14.4
		c0.7-0.2,1.3-0.5,2-0.7c0,1.8,0,3.8,0,6.8c0,4.9,0.5,7.3,1.1,10c0.6,2.6,1.1,5.3,1.1,10.6c0,5.3-0.8,8-1.6,10.7
		c-0.8,2.5-1.5,4.9-1.5,9.8c0,4.8,0.9,7.2,1.8,9.7c1,2.6,2,5.4,2,10.8c0,5.2-0.2,7.8-0.4,10.3s-0.4,5-0.4,10.1
		c0,5.4-1.1,8.2-2.1,10.8c-1,2.5-1.9,4.8-1.9,9.7c0,5.2-0.1,7.8-0.2,10.3c-0.1,2.5-0.1,5-0.1,10.2c0,5-4.6,15-4.6,19.7h17.7l2.6-0.4
		l-2.2-2.6l0.2-2.9l1.4-3l-0.4-2.8v-2.9l0.1-2.9l-3.1-2.5l1.2-3l-0.3-2.8l-1.1-2.8l2-3l-1.3-2.8l-1.4-2.8l0.3-2.9l0.6-2.9l-3.9-2.5
		l2.5-3l-2-2.6l3.7-3.1l-2.5-2.6l-3.2-3l1.9-2.9l0.4-3l0.1-3l1.1-2.8l2.4-2.5l3.4-2.3l-1.9-3.5l1.4-2.8l1.2-2.9l-1.9-3l0.5-3.1
		l-3.5-2.4l2.5-2.9l1.8-2.5l-0.3-3l-0.8-3l0.6-2.8l-0.8-2.9l1.5-2.6l3.1-2.5l-0.9-2.9l-2-3l3.3-2.6l-3-3l0.1-2.8l3.2-2.8l-3.5-2.8
		l2.8-2.9l2.4-2.9l-4.7-2.6l4.2-3L54.7,68l1.3-2.9l-4.3-2.5l0.7-2.8l4.4-7.2l3.7-6c0,0,3.8,0.5,4.2,0c0.4-0.5,2.5-7.1,2.5-7.1
		s0.8-1.6,1.8,0c1,1.6,8.8,0,9.2-0.7c0.4-0.7,3.6-3.5,4.4-2.8c0.9,0.6,3.1,1.7,3.1,1.7l8.2-1.8c0,0,6.6-0.4,6.2,0
		c-0.4,0.4,4.3,3.6,4.3,3.6h2.2c1.5-0.6,5.2,1.1,5.2,1.1s-1.5,3.7,0,3.7c1.2,0,6.8,0.6,8.9,0.5c0.1,0.1,0.2,0.2,0.3,0.5
		c1.5,1.9,1.2,6.2,2.4,6.2s9.1-1.6,9.1-1.6s0.2,2.6,0,3.2s4.3,7.3,5.1,7.1c0.9-0.2,4.4,3.7,4.4,3.7l0.4,0.1l-0.1,0.4l-0.5,3l1.1,1.8
		l-0.8,3.4l3.1,1.2v3l1.8,2.3l2.3,2.4l2.1,2.5l0.9,2.8l-2.1,3.1l-1.5,3v2.8l0.6,2.8l0.1,2.8l-0.6,2.8l0.4,2.8l1.9,2.8l0.2,2.9
		l2.9,2.9l-3.7,2.8l-1.3,2.8l2.4,2.9l2.2,2.9l-0.7,2.8l-1.7,2.8l2,2.9l-5.2,2.6l0.5,2.9l0.4,2.9l3.6,3l-2.3,2.8l1.4,2.8l-0.6,2.8
		l0.9,2.8l0.1,2.8l-3.7,2.8l2.3,2.8l0.2,2.8l-1.7,2.8l3.2,2.8l-2.5,2.8l-1.4,2.8l-1.3,2.8l4.8,2.6l-1.3,2.8l-1.5,2.8l3.5,2.6
		l-2.8,2.9l3.3,2.8l-2.8,2.9l0.4,2.8l-3,2.6l4.3,3.1l-3.3,2.5l1.6,3l-2.6,1.9h21c0.1-5-1.9-15.1-1.9-19.8c0-4.8-1.1-7.1-2.2-9.6
		c-1.2-2.6-2.5-5.4-2.5-10.9c0-5-0.3-7.4-0.6-10.1c-0.3-2.5-0.7-5.2-0.7-10.5c0-5.2,0-7.7,0.1-10.2c0-2.5,0.1-5.2,0.1-10.2
		c0-5.6,2.1-8.5,4-11.2c1.8-2.5,3.4-4.7,3.4-9.4c0-5-0.1-7.7-0.2-10.2c-0.1-2.5-0.2-5.2-0.2-10.3c0-4.7-1.5-6.8-3.3-9.4
		c-1.8-2.6-3.8-5.5-3.8-11.2c0-4.3,0.1-6.8,0.2-9.1L163.4,66L163.4,66z"/>
	<g>
		<g opacity="0.5">
			<path fill="#60492F" d="M117.4,202.3c0,0-0.1-0.1-0.3-0.2c-0.2-0.1-0.5-0.5-0.8-0.8c-0.6-0.8-1.5-2.2-2.2-4.2s-1.2-4.6-1.4-7.6
				c-0.2-3-0.2-6.4,0.1-10c0.3-3.6,0.7-7.4,1.3-11.5c0.6-4.1,1.3-8.3,2-12.5c0.3-2.2,0.7-4.3,0.9-6.5c0.2-2.2,0.4-4.3,0.3-6.1
				c-0.1-1.1-0.2-2.3-0.2-3.4c-0.1-1.1-0.2-2.3-0.3-3.4c-0.2-2.3-0.5-4.6-0.7-6.8c-0.6-4.7-1.1-9.2-1.7-13.8
				c-0.5-4.6-1-9.2-1.3-13.7c-0.6-9-0.2-17.8,1.3-25c0.7-3.6,1.7-6.7,2.8-9.5c1-2.8,2.2-4.9,3.1-6.6c1-1.8,1.8-3,2.5-3.8
				c0.6-0.8,0.9-1.3,0.9-1.3s-0.2,0.6-0.6,1.6c-0.4,1-0.9,2.5-1.5,4.4c-0.3,1-0.6,2-0.9,3.2c-0.1,0.6-0.3,1.2-0.5,1.8
				c-0.1,0.6-0.3,1.3-0.4,1.9c-0.5,2.8-1,5.8-1.2,9.2c-0.5,6.7-0.2,14.7,0.9,23.2c0.5,4.3,1.1,8.8,1.7,13.3
				c0.6,4.6,1.2,9.2,1.7,14.1c0.2,2.4,0.4,4.8,0.6,7.2c0.1,1.2,0.1,2.4,0.2,3.6c0,1.2,0,2.4,0.1,3.6c0,2.8-0.4,5.3-0.7,7.6
				c-0.4,2.3-0.9,4.6-1.3,6.7c-1,4.3-2,8.4-2.9,12.3c-0.9,3.8-1.8,7.4-2.4,10.9c-1.3,6.7-1.7,12.5-1.1,16.5c0.3,1.9,0.8,3.5,1.3,4.3
				c0.2,0.5,0.4,0.8,0.6,1.1C117.3,202.2,117.4,202.3,117.4,202.3z"/>
		</g>
		<g>
			<path fill="#60492F" d="M78.2,137.7c0,0,0-0.4,0-1.1s0.1-1.7,0.2-2.9c0.1-1.2,0.3-2.8,0.5-4.4c0.3-1.7,0.6-3.6,1-5.8
				c0.4-2,0.9-4.3,1.4-6.6c0.5-2.3,1-4.8,1.6-7.3c0.5-2.5,1-5.2,1.4-7.8c0.2-1.3,0.4-2.6,0.5-4l0.2-2c0-0.4,0.1-1.4,0-1.9V93l-0.1-1
				c-0.1-0.6-0.2-1.2-0.3-1.9c-0.2-1.3-0.5-2.5-0.9-3.8c-0.7-2.6-1.4-5.3-1.8-8c-0.2-1.4-0.4-2.8-0.3-4.2c0-0.4,0-0.7,0-1v-0.8
				c0-0.6,0-1.2,0-1.8c0-2.4-0.1-4.7-0.1-6.8c-0.1-4.3,0.2-7.9,0.8-10.5c0.3-1.2,0.6-2.2,0.9-2.8c0.3-0.6,0.4-0.8,0.4-0.8
				s-0.1,0.4-0.2,1s-0.2,1.6-0.3,2.8c-0.1,1.2,0,2.6,0.1,4.3c0.1,1.7,0.4,3.6,0.6,5.6c0.3,2,0.6,4.3,0.8,6.8
				c0.1,0.6,0.1,1.2,0.1,1.9v1c0,0.4,0,0.6,0.1,0.8c0.1,1.1,0.2,2.3,0.5,3.5c0.5,2.4,1.3,4.8,2,7.6c0.4,1.3,0.8,2.8,1,4.2
				c0.3,1.6,0.5,2.9,0.5,4.7c0,1,0,1.3-0.1,2.3l-0.2,2.2c-0.2,1.4-0.4,2.9-0.7,4.3c-0.5,2.8-1.2,5.5-1.8,8c-0.7,2.5-1.4,4.9-2.1,7.2
				c-0.7,2.3-1.4,4.4-2,6.4c-0.6,1.9-1.2,3.7-1.7,5.4c-0.5,1.6-0.9,3-1.2,4.2c-0.3,1.2-0.6,2.2-0.7,2.8
				C78.3,137.3,78.2,137.7,78.2,137.7z"/>
		</g>
	</g>
	<g>
		<g>
			<g>
				<path opacity="0.5" fill="#262626" enable-background="new    " d="M152.8,89.3c-1.3-1.4-5.3-2.4-5.3-2.4s-2.8-1.4-3.4,0.1
					c-0.7,1.6-1.8,5.2-1.7,6.2c0.1,1,0.6,5.8,5,5.2c1.6-0.4,2.8-1.9,3.7-2.6C152,95,154.5,91.1,152.8,89.3z"/>
				<g>
					<path fill="#808080" stroke="#4D4D4D" stroke-width="2" stroke-miterlimit="10" d="M146.7,88.9c-2.3-1.1-0.7,2.6-1.7,2.2
						c-1-0.4-1.3,3.8,0.6,4.7c1.9,0.8,4-0.4,4.4,0c0.4,0.4,4.4-3.6,3.2-5.3c-1.2-1.8-4.3-1.7-4.3-1.7L146.7,88.9z"/>
					<path fill="#A5A5A5" d="M149.1,92.9c1.3-0.2,2.8-1,2.4-1.4c-0.4-0.5-2.8-0.7-2.8-0.7l-1.6,0.4l0.9,2.4L149.1,92.9z"/>
				</g>
			</g>
			<g>
				<path opacity="0.5" fill="#262626" enable-background="new    " d="M134.4,103.2c7.2-7.4,8.6-3.2,11.2,1.7
					c0.7,1,1.5,2.3,2.4,3.7c4.5,6.5,6.9,14.4,6.9,23.9l-0.1,0.6l-0.4,0.2c-14.6,9.7-15.6,8.3-19.9-10.8l-0.4-19L134.4,103.2z"/>
				<g>
					<path fill="#808080" stroke="#4D4D4D" stroke-width="2" stroke-miterlimit="10" d="M157.2,129.3c2.3-15-7.4-21.5-9.7-27.9
						c-2.3-6.4-8.8,0.2-8.8,0.2l0.4,17.8c0,0,4.2,18.6,7,16.9C148.9,134.7,157.2,129.3,157.2,129.3z"/>
					<path fill="#A5A5A5" stroke="#4D4D4D" stroke-miterlimit="10" d="M153.8,127.7l-6.3-17.5c0,0-3.5,0-4.9-0.4
						c-1.5-0.2-1.1,10-1.1,10l6.1,10.7L153.8,127.7z"/>
					<path fill="#A09D9A" stroke="#4D4D4D" stroke-miterlimit="10" d="M147.5,110.2l-0.4-9.7c0,0,13.3,17.5,10.1,28.7l-3.4-1.6
						L147.5,110.2z"/>
					<path fill="#686868" stroke="#4D4D4D" stroke-miterlimit="10" d="M142,110.2c-1.5-2.2-2.4-4.8-3.7-6.8c0,0,0.2-2,1.9-3.1
						c1.7-1.1,5.1-2.4,6.1-0.6c1,1.8,1,10.6,1,10.6L142,110.2z"/>
				</g>
			</g>
			<g>
				<path opacity="0.5" fill="#262626" enable-background="new    " d="M155.3,98.3c0-0.5-2.5-2.2-2.5-2.2l-2.7,7.6l3.8,3.8
					c0,0,0.7,0.1,1.6-1.2c0.9-1.3,1.9-5.3,1.9-5.3L155.3,98.3z"/>
				<path fill="#808080" stroke="#4D4D4D" stroke-width="2" stroke-miterlimit="10" d="M154.7,105.6c0,0,3.3-3.8,2.7-4.6
					c-0.6-0.7-3.5-3.1-3.5-3.1l-1.8,5.3L154.7,105.6z"/>
			</g>
		</g>
	</g>
	<path fill="none" stroke="#3D2F26" stroke-width="4" stroke-miterlimit="10" d="M30.8,217.8c-0.1-9.5,2.3-9.7,2.3-19.7
		c0-10.2,0.3-10.2,0.3-20.5c0-10.2,4.1-10.2,4.1-20.5c0-10.3,0.8-10.2,0.8-20.5c0-10.2-3.8-10.2-3.8-20.5c0-10.2,3.1-10.2,3.1-20.5
		c0-10.2-2.2-10.2-2.2-20.5s-0.2-10.2-0.2-20.5c0-6.5-4.4-10-4.4-15.3c0,0-0.6-18,7.5-17.8s28.1-1.7,32.5,0
		c4.3,1.7,6.6,4.9,11.8,4.9s23.2-5.4,26.3-5.3c3,0.1,8.5,3.4,9.9,4.4c1.4,1.2,23.3-4.6,23.4-4.4c0.1,0.1,2.5-1,8.8,1.9
		s16.7,0.2,17.8,0.8c1.1,0.6,1.8,10.7,0.2,15.7c0,5.5-5.3,7.4-5.3,15.3c0,10.2-0.4,10.2-0.4,20.4s7.1,10.2,7.1,20.4
		s0.5,10.2,0.5,20.4s-7.3,10.2-7.3,20.5c0,10.2-0.2,10.2-0.2,20.4s1.3,10.2,1.3,20.5c0,10.2,4.6,10.2,4.6,20.4c0,10,0,10.2-0.3,19.8
		"/>
</g>
</svg>
