<?xml version="1.0" encoding="UTF-8" standalone="no"?>
<!-- Generator: Adobe Illustrator 16.0.0, SVG Export Plug-In . SVG Version: 6.00 Build 0)  -->
<!DOCTYPE svg  PUBLIC '-//W3C//DTD SVG 1.1//EN'  'http://www.w3.org/Graphics/SVG/1.1/DTD/svg11.dtd'>
<svg id="Layer_1" xmlns="http://www.w3.org/2000/svg" xml:space="preserve" version="1.1" xmlns:xlink="http://www.w3.org/1999/xlink" viewBox="0 0 165.724 166.479" enable-background="new 0 0 165.724 166.479">
		<linearGradient id="SVGID_1_" y2="8622.5" gradientUnits="userSpaceOnUse" x2="152.92" gradientTransform="matrix(1 0 0 -1 0 8637.7)" y1="8622.5" x1="13.228">
		<stop stop-color="#41342A" offset="0"/>
		<stop stop-color="#5E4430" offset=".195"/>
		<stop stop-color="#5A4230" offset=".425"/>
		<stop stop-color="#4B3B2E" offset=".575"/>
		<stop stop-color="#544132" offset=".835"/>
		<stop stop-color="#41342A" offset="1"/>
	</linearGradient>
	<path d="m14.01 0.063h137.71c0.001 0.092 3.457 14.068-1.364 22.883-6.239 11.406-12.023 0.307-25.025 0.307s-13.002-3.156-26.002-3.156-13 5.371-26 5.371c-12.998 0-12.998 0.745-25.998 0.745-12.998 0-18.67 9.063-28.275 0.307-8.768-7.983-5.055-26.37-5.055-26.457z" fill="url(#SVGID_1_)"/>
	<path stroke="#709922" stroke-width="4" stroke-miterlimit="10" d="m13.91 0.022c0 11.85-3.613 18.515 5.145 26.497 9.605 8.757 15.277-0.307 28.275-0.307 13 0 13-0.745 25.998-0.745 13 0 13-5.371 26-5.371s13 3.156 26.002 3.156 19.737 11.57 25.025-0.307c3.924-8.813 1.469-11.068 1.469-22.91" fill="none"/>
		<linearGradient id="SVGID_2_" y2="8624.4" gradientUnits="userSpaceOnUse" x2="82.902" gradientTransform="matrix(1 0 0 -1 0 8637.7)" y1="8483.6" x1="82.902">
		<stop stop-color="#41342A" offset="0"/>
		<stop stop-color="#544132" offset=".165"/>
		<stop stop-color="#4B3B2E" offset=".425"/>
		<stop stop-color="#5A4230" offset=".575"/>
		<stop stop-color="#5E4430" offset=".805"/>
		<stop stop-color="#41342A" offset="1"/>
	</linearGradient>
	<path d="m165.57 153.49c-6.513-0.045-7.463-0.24-15.636-0.24-9.229 0-9.229 1.5-18.459 1.5-9.229 0-9.229-1.456-18.459-1.456-9.227 0-9.227 2.083-18.453 2.083-9.229 0-9.229-1.926-18.457-1.926s-9.228 0.314-18.455 0.314c-9.229 0-9.229-1.709-18.456-1.709s-9.228 1.119-18.453 1.119c-9.228 0-19.868-1.618-20.51-1.562v-139.78c0.758 0.172 1.551 0.348 2.421 0.521 9.054 1.801 8.872 2.64 18.104 2.64 9.23 0 9.23-0.762 18.46-0.762s9.229 1.459 18.46 1.459c9.227 0 9.227-1.705 18.453-1.705 9.229 0 9.229 1.752 18.458 1.752 9.228 0 9.228-2.344 18.455-2.344s9.228-0.584 18.454-0.584 9.227 1.56 18.453 1.56c8.166 0 9.118-0.892 15.62-1.097v140.23z" fill="url(#SVGID_2_)"/>
			<linearGradient id="SVGID_3_" y2="8620" gradientUnits="userSpaceOnUse" x2="153.52" gradientTransform="matrix(1 0 0 -1 0 8637.7)" y1="8620" x1="13.659">
			<stop stop-color="#41342A" offset="0"/>
			<stop stop-color="#5E4430" offset=".195"/>
			<stop stop-color="#5A4230" offset=".425"/>
			<stop stop-color="#4B3B2E" offset=".575"/>
			<stop stop-color="#544132" offset=".835"/>
			<stop stop-color="#41342A" offset="1"/>
		</linearGradient>
		<path d="m22.01 0.339c-1.291 8.57-5.241 18.062-7.926 24.275s7.922 11.912 15.5 10.63c7.578-1.28 62.25-5.515 67-4.13 4.75 1.387 21.047 1.467 26.744-0.748 5.697-2.214 21.277 1.068 24.61 1.064 3.333-0.002 6.507-8.803 5.326-12.308-1.181-3.507-6.955-10.97-6.326-12.729s-31.354-7.666-37.604-6.055-28 3.488-34.25 2.951c-6.25-0.535-27.331-3.227-27.331-3.227l-25.749 0.277z" fill="url(#SVGID_3_)"/>
		<path opacity=".3" d="m15.91 0.022c0-0.089 6.1 0.128 6.1 0.041h16.94c-0.134 4.7 1.934 9.474 1.778 14.171-0.477-0.01-0.975-0.016-1.511-0.016-9.229 0-9.229 0.762-18.46 0.762-0.9 0-1.688-0.01-2.426-0.026-1.938-0.108-2.663-0.985-3.139-2.297 0.149-4.193 0.718-9.149 0.718-12.635z" fill="#281D14"/>
		<path opacity=".3" d="m149.82 0.063c0.001 0.092 0.804 13.698 1.098 14.285-0.319 0.003-0.626 0.008-0.97 0.008-9.227 0-9.227-1.56-18.453-1.56-7.348 0-8.855 0.369-13.82 0.521-1.029-4.222 1.915-6.368-0.466-13.254h32.61z" fill="#281D14"/>
		<path opacity=".3" d="m15.91 0.022c0-0.089 6.1 0.128 6.1 0.041h9.255l2.108 2.232 4.629 2.374 0.652 3.389-3.225 2.908-1.215 3.144-0.089 0.211c-4.606 0.207-6.249 0.659-13.368 0.659-0.9 0-1.688-0.01-2.426-0.026-2.687 0.047-2.966-0.663-3.066-2.314-0.214-3.514 0.644-9.32 0.645-12.618z" fill="#261915"/>
		<g opacity=".3">
			<path d="m130.98 0.063h18.941c0.001 0.092-0.316 8.136 0.741 12.344 0.2 0.797-0.037 1.354 0.257 1.941-0.319 0.003-0.626 0.008-0.97 0.008-7.006 0-8.699-0.897-13.145-1.331l-1.115-2.253-3.008-2.936 2.705-3.908-4.4-3.865z" fill="#261915"/>
		</g>
		<path opacity=".3" d="m165.57 38.653c-3.699 0.144-20.489 5.684-24.62 5.154-8.193-1.05-6.079-4.282-11.936-10.032-4.416-4.335-7.961-9.627-9.863-15.451-0.521-1.598-0.887-3.303-1.219-5.016 4.76-0.155 6.346-0.512 13.564-0.512 9.227 0 9.227 1.56 18.453 1.56 8.166 0 9.118-0.892 15.62-1.097v25.394z" fill="#281D14"/>
		<path opacity=".3" d="m165.57 33.657c-1.696 0.248-4.603-4.565-4.737-4.521-0.188 0.062-2.688 2.312-2.688 2.312l-2.125-2.125-3.113-0.875-1.637 0.875s-6.438-0.625-6.75-0.688-3.188-1.312-3.312-1.562-3.5-3.375-3.93-3.429-1.761-2.259-1.761-2.259v-3l-1.81-1.562 3.619-2.745-0.521-1.054c4.445 0.434 6.139 1.331 13.145 1.331 8.166 0 9.118-0.892 15.62-1.097v20.399z" fill="#261915"/>
		<path opacity=".3" d="m165.57 153.49c-6.513-0.045-7.463-0.24-15.636-0.24-9.229 0-9.229 1.5-18.459 1.5-9.229 0-9.229-1.456-18.459-1.456-9.227 0-9.227 2.083-18.453 2.083-9.229 0-9.229-1.926-18.457-1.926s-9.228 0.314-18.455 0.314c-9.229 0-9.229-1.709-18.456-1.709s-9.228 1.119-18.453 1.119c-9.228 0-19.868-1.618-20.51-1.562v-34.276c9.554 1.781 19.123 18.445 28.978 18.389 18.563-0.108 33.996-10.044 51.559-10.062 15.368-0.012 31.087 4.082 47.588 3.82 12.718-0.202 25.015-11.978 37.214-12.346v36.37z" fill="#281D14"/>
		<path opacity=".3" d="m165.57 153.49c-6.513-0.045-7.463-0.24-15.636-0.24-9.229 0-9.229 1.5-18.459 1.5-9.229 0-9.229-1.456-18.459-1.456-9.227 0-9.227 2.083-18.453 2.083-9.229 0-9.229-1.926-18.457-1.926s-9.228 0.314-18.455 0.314c-9.229 0-9.229-1.709-18.456-1.709s-9.228 1.119-18.453 1.119c-9.228 0-19.868-1.515-20.51-1.458v-17.15l3.781 6.785 3.239-1.648 3.33 2.061 3.133-5.175 3.291 0.542 3.289 0.495 3.325 3.666 3.236-2.217 3.181 1.464 3.207-0.495 3.188 0.951 3.197 0.144 3.238-3.614 3.175 2.349 3.191 0.291 3.226-1.65 3.131 3.248 3.245-2.381 3.239-1.336 3.248-1.198 3.004 4.888 3.248-1.256 3.281-1.428 2.968 3.597 3.394-2.707 3.092 3.35 3.345-2.702 3.249 0.504 3.093-2.904 3.556 4.427 2.964-3.278 3.468 1.731 2.85-3.142 3.207-0.35 3.618 2.129 2.724-3.365 3.602 1.885 3.096-1.106 3.332 0.31 3.24-0.181 2.846-2.784 3.525 1.883 2.943-2.475 3.083-1.874 3.451 2.247 3.097-2.814 3.358 3.557 3.28-3.898 2.99 3.809 3.369-1.34 2.908 2.174 1.067-0.925v18.69z" fill="#261915"/>
		<path opacity=".3" d="m41.021 23.574c-1.578 5.891-2.499 7.018-7.034 11.25-4.892 4.565-11.41 10.772-17.744 11.165-5.232 0.324-10.619-7.979-16.009-7.11v-27.059c0.758 0.172 1.55 0.348 2.42 0.521 9.054 1.801 8.872 2.64 18.104 2.64 9.23 0 9.23-0.762 18.46-0.762 0.821 0 0.748 0.016 1.437 0.036 0.521 3.099 0.966 7.081 0.366 9.319z" fill="#281D14"/>
		<path opacity=".3" d="m34.127 23.366l-3.168 1.75-2.083 0.458s-6.334 1.268-6.334 1.488-3.083 1.554-3.083 1.554l-5.5 0.833-4.75-1.274h-4.125l-2.934 0.92-1.917 1.789v-19.064c0.758 0.172 1.551 0.348 2.421 0.521 9.054 1.801 8.872 2.64 18.104 2.64 7.12 0 8.762-0.452 13.369-0.659l2.373 3.42v3.833l-2.373 1.791z" fill="#261915"/>
		<path stroke="#709922" stroke-width="4" stroke-miterlimit="10" d="m165.57 13.813c-1.863-0.002-6.612 0.249-12.663 0.483" fill="none"/>
		<circle cy="14.131" cx="153" r="2.173" fill="#709922"/>
		<path stroke="#709922" stroke-width="4" stroke-miterlimit="10" d="m0.188 151.73c9.433 0 11.328 1.45 20.556 1.45 9.226 0 9.226-1.119 18.453-1.119s9.228 1.709 18.456 1.709c9.228 0 9.228-0.314 18.455-0.314 9.229 0 9.229 1.926 18.457 1.926 9.227 0 9.227-2.083 18.453-2.083 9.229 0 9.229 1.456 18.459 1.456s9.23-1.5 18.459-1.5c9.232 0 14.007-1.567 15.533-1.543" fill="none"/>
		<path stroke="#709922" stroke-width="4" stroke-miterlimit="10" d="m13.342 13.88c-5.005-0.271-6.396-0.042-13.189-0.042" fill="none"/>
		<circle cy="13.748" cx="13.121" r="2.095" fill="#709922"/>
	<path d="m142.21 17.074" fill="#261915"/>
			<path opacity=".5" d="m46.392 18.808c-0.186-1.767-2.619-4.99-2.619-4.99s-1.276-2.729-2.614-2.219c-1.339 0.513-4.196 2.033-4.665 2.752-0.468 0.717-2.742 3.971 0.893 6.574 1.392 0.898 3.136 0.702 4.222 0.791 1.084 0.088 5.02-0.633 4.783-2.908z" fill="#262626"/>
				<path stroke="#4D4D4D" stroke-width="2" stroke-miterlimit="10" d="m42.041 14.493c-1.154-2.168-1.966 1.157-2.505 0.244-0.538-0.911-3.077 1.568-2.176 3.328 0.903 1.759 3.203 2.452 3.252 2.935 0.049 0.479 5.218 0.697 5.321-1.158s-2.287-3.957-2.287-3.957l-1.605-1.392z" fill="#808080"/>
				<path d="m41.573 18.554c1.079 0.701 2.649 1.262 2.619 0.732s-1.735-2.328-1.735-2.328l-1.415-0.85-0.675 2.057 1.206 0.389z" fill="#A5A5A5"/>
			<path opacity=".5" d="m24.933 15.244c9.485 0.215 8.23 3.734 7.44 8.49-0.047 1.058-0.135 2.384-0.291 3.877-0.189 7.037-2.878 13.524-8.071 19.455l-0.382 0.295-0.467-0.107c-16.271-3.717-16.275-5.216-8.87-19.967l10.155-12.055 0.486 0.012z" fill="#262626"/>
			<g stroke="#4D4D4D" stroke-miterlimit="10">
				<path stroke-width="2" d="m27.479 46.525c10.072-7.819 6.371-18.271 8.19-23.781 1.818-5.514-6.695-5.711-6.695-5.711l-9.541 11.285s-7.213 14.361-4.159 15.231 12.205 2.976 12.205 2.976z" fill="#808080"/>
				<path d="m25.764 43.316l5.074-15.088s-2.558-2.344-3.492-3.506-6.313 5.466-6.313 5.466l-1.425 10.713 6.156 2.415z" fill="#A5A5A5"/>
				<path d="m30.838 28.228l5.029-6.305s0.213 19.799-8.389 24.602l-1.715-3.209 5.075-15.088z" fill="#A09D9A"/>
				<path d="m26.823 24.666c0.098-2.326 0.872-4.539 1.098-6.721 0 0 1.333-1.148 3.097-0.674 1.767 0.475 5.128 1.955 4.889 3.713-0.237 1.76-5.068 7.244-5.068 7.244l-4.016-3.562z" fill="#686868"/>
			</g>
			<path opacity=".5" d="m43.2 26.044c0.262-0.312-0.653-3.012-0.653-3.012l-6.2 2.924 0.73 4.928s0.467 0.533 1.91 0.322c1.44-0.209 4.329-2.041 4.329-2.041l-0.116-3.121z" fill="#262626"/>
			<path stroke="#4D4D4D" stroke-width="2" stroke-miterlimit="10" d="m38.758 30.156s4.565-0.171 4.559-0.99c-0.006-0.822-0.93-4.281-0.93-4.281l-4.32 2.091 0.691 3.18z" fill="#808080"/>
		<path d="m36.584 35.074s0.313-0.029 0.901-0.084c0.598-0.028 1.428-0.187 2.495-0.375 1.066-0.188 2.35-0.52 3.84-0.839 0.75-0.166 1.545-0.345 2.406-0.508 0.425-0.095 0.876-0.15 1.338-0.214 0.446-0.06 0.902-0.122 1.368-0.185 1.86-0.247 3.876-0.514 6.012-0.739 2.155-0.188 4.328-0.654 6.622-0.938 1.141-0.163 2.3-0.328 3.474-0.496 1.199-0.182 2.413-0.366 3.636-0.552 2.406-0.394 4.985-0.591 7.498-0.862 2.53-0.132 5.053-0.361 7.554-0.327 2.513-0.056 4.917 0.043 7.246 0.069 2.343 0.019 4.627 0.114 6.798 0.251 2.172 0.125 4.229 0.361 6.118 0.655 1.892 0.284 3.608 0.685 5.104 1.111 0.747 0.218 1.441 0.444 2.075 0.667 0.622 0.253 1.194 0.486 1.711 0.697 1.013 0.47 1.78 0.877 2.282 1.197 0.504 0.308 0.772 0.472 0.772 0.472s-0.301-0.091-0.866-0.262c-0.549-0.201-1.393-0.386-2.438-0.651-0.53-0.1-1.118-0.211-1.758-0.332-0.648-0.078-1.336-0.205-2.08-0.287-1.49-0.16-3.173-0.266-5.013-0.324-1.843-0.035-3.84-0.005-5.96 0.043-2.131 0.091-4.378 0.187-6.702 0.285-2.332 0.094-4.741 0.19-7.19 0.288-2.418 0.053-4.874 0.286-7.33 0.434-1.222 0.114-2.443 0.228-3.66 0.341l-1.824 0.165c-0.615 0.071-1.228 0.143-1.838 0.213-1.21 0.145-2.456 0.28-3.611 0.387-1.221 0.105-2.426 0.208-3.612 0.311-2.363 0.195-4.671 0.422-6.809 0.413-2.147 0.056-4.181 0.054-6.059 0.052-0.954 0.003-1.819 0.001-2.651 0.028-0.836 0.019-1.645 0.065-2.403 0.105-1.525 0.091-2.869 0.143-3.983 0.119-0.551 0.008-1.056-0.03-1.488-0.065-0.433-0.023-0.792-0.067-1.083-0.119-0.562-0.094-0.873-0.144-0.873-0.144z" fill="#60492F"/>
		<path d="m7.418 71.219s0.508-0.04 1.461-0.113c0.955-0.056 2.345-0.232 4.137-0.239 1.794-0.062 3.968-0.075 6.455-0.027 2.477 0.061 5.271 0.128 8.319 0.202 3.031 0.025 6.31 0.071 9.723-0.166 0.837-0.07 1.758-0.072 2.556-0.199 0.89-0.112 1.791-0.226 2.702-0.34 0.904-0.126 1.845-0.208 2.748-0.358 0.903-0.153 1.814-0.308 2.732-0.464 1.828-0.284 3.717-0.673 5.628-1.064 1.917-0.392 3.857-0.789 5.812-1.189 3.925-0.792 7.959-1.57 12.049-2.179 2.043-0.295 4.131-0.424 6.186-0.641 2.074-0.111 4.155-0.114 6.21-0.171 1.021 0.054 2.037 0.108 3.049 0.163 1.03 0.118 2.055 0.235 3.073 0.352 1.977 0.29 3.92 0.591 5.809 0.938 3.783 0.662 7.389 1.444 10.804 2.122 3.418 0.651 6.64 1.303 9.625 1.745 2.987 0.473 5.73 0.741 8.176 0.912 1.222 0.021 2.365 0.042 3.423 0.061 1.057-0.06 2.027-0.114 2.904-0.164 0.869-0.136 1.646-0.257 2.32-0.363 0.345-0.037 0.652-0.11 0.928-0.201 0.28-0.081 0.534-0.153 0.762-0.219 0.92-0.258 1.411-0.396 1.411-0.396s-0.464 0.213-1.333 0.612c-0.22 0.099-0.465 0.209-0.735 0.331-0.268 0.133-0.568 0.252-0.906 0.338-0.674 0.198-1.447 0.426-2.313 0.682-0.89 0.161-1.875 0.34-2.947 0.534-1.079 0.127-2.255 0.217-3.514 0.314-2.51 0.088-5.358 0.102-8.43-0.16-6.16-0.402-13.242-1.584-20.733-2.671-1.873-0.277-3.77-0.503-5.686-0.717-0.934-0.075-1.873-0.151-2.817-0.227-0.97-0.041-1.944-0.082-2.923-0.124-1.945 0.083-3.902 0.104-5.87 0.231-1.971 0.232-3.946 0.379-5.925 0.679-3.963 0.544-7.926 1.258-11.858 2.006-1.966 0.382-3.915 0.74-5.873 1.053-1.946 0.329-3.867 0.656-5.818 0.892-0.966 0.128-1.924 0.256-2.874 0.382-0.948 0.131-1.863 0.156-2.782 0.229-0.916 0.062-1.821 0.124-2.716 0.185-0.984 0.09-1.841 0.035-2.748 0.06-3.572 0.071-6.905-0.249-9.963-0.525-3.053-0.306-5.83-0.657-8.289-0.965-2.459-0.277-4.599-0.549-6.362-0.701-1.764-0.192-3.171-0.263-4.122-0.336-0.965-0.068-1.473-0.104-1.473-0.104z" fill="#60492F"/>
	<g opacity=".5">
		<path d="m7.778 99.412s0.542-0.25 1.585-0.651c1.059-0.382 2.627-0.933 4.703-1.354 2.07-0.434 4.635-0.828 7.588-0.931 2.953-0.136 6.291-0.092 9.88 0.202 3.591 0.27 7.45 0.669 11.458 1.128 4.017 0.44 8.163 0.875 12.382 0.937 4.403 0.078 8.954 0.159 13.577 0.242 2.302 0.034 4.622 0.059 6.941 0.032 1.161 0.002 2.323 0.004 3.487 0.005l3.483-0.071c2.326-0.028 4.636-0.128 6.94-0.22 1.155-0.03 2.3-0.109 3.438-0.2 1.141-0.072 2.278-0.145 3.412-0.216 2.243-0.174 4.519-0.466 6.656-0.648 1.14-0.144 2.26-0.289 3.298-0.449 1.085-0.173 2.162-0.344 3.23-0.514 4.321-0.7 8.616-1.454 12.798-1.869 4.183-0.404 8.256-0.504 11.999-0.006 3.813 0.468 6.91 1.399 9.74 2.245 1.394 0.425 2.668 0.815 3.855 1.152 0.592 0.173 1.159 0.338 1.701 0.496 0.547 0.138 1.067 0.269 1.562 0.393 1.99 0.457 3.592 0.779 4.69 0.942 1.104 0.191 1.691 0.294 1.691 0.294s-0.593 0.075-1.704 0.217c-1.115 0.142-2.764 0.299-4.881 0.293-1.062 0.008-2.234-0.026-3.51-0.109-1.265-0.103-2.632-0.242-4.062-0.386-1.459-0.148-2.882-0.26-4.521-0.405-0.403-0.034-0.812-0.068-1.226-0.104-0.188-0.013-0.455-0.046-0.584-0.042l-0.596-0.026c-0.795-0.047-1.609-0.072-2.446-0.047-3.337 0.04-6.962 0.515-10.812 1.268-3.856 0.758-7.944 1.79-12.316 2.792-1.101 0.248-2.192 0.482-3.354 0.713-1.177 0.24-2.296 0.441-3.41 0.638-1.23 0.193-2.346 0.338-3.536 0.496-1.174 0.145-2.354 0.341-3.54 0.444-4.739 0.489-9.564 0.771-14.367 0.84-4.807 0.099-9.595-0.014-14.288-0.237-4.7-0.218-9.318-0.551-13.714-0.95-4.636-0.366-8.973-1.233-12.97-2.087-4.008-0.852-7.711-1.79-11.139-2.512-3.428-0.698-6.561-1.323-9.365-1.672-2.801-0.342-5.266-0.531-7.306-0.52-2.037 0.019-3.661 0.104-4.754 0.242-1.108 0.157-1.699 0.232-1.699 0.232z" fill="#60492F"/>
	</g>
</svg>
