<?xml version="1.0" encoding="utf-8"?>
<!-- Generator: Adobe Illustrator 18.0.0, SVG Export Plug-In . SVG Version: 6.00 Build 0)  -->
<!DOCTYPE svg PUBLIC "-//W3C//DTD SVG 1.1//EN" "http://www.w3.org/Graphics/SVG/1.1/DTD/svg11.dtd">
<svg version="1.1" id="Layer_1" xmlns="http://www.w3.org/2000/svg" xmlns:xlink="http://www.w3.org/1999/xlink" x="0px" y="0px"
	 viewBox="0 0 165.7 166.5" enable-background="new 0 0 165.7 166.5" xml:space="preserve">
<g>
	
		<linearGradient id="SVGID_1_" gradientUnits="userSpaceOnUse" x1="10.4511" y1="84.762" x2="152.878" y2="84.762" gradientTransform="matrix(1 0 0 -1 0 168)">
		<stop  offset="0" style="stop-color:#41342A"/>
		<stop  offset="7.184729e-02" style="stop-color:#5E4430"/>
		<stop  offset="0.934" style="stop-color:#5A4230"/>
		<stop  offset="0.9721" style="stop-color:#544132"/>
		<stop  offset="1" style="stop-color:#4B3B2E"/>
		<stop  offset="1" style="stop-color:#41342A"/>
	</linearGradient>
	<path fill="url(#SVGID_1_)" d="M152.9,71.5c0-9.6-0.5-9.6-0.5-19.1c0-9.6-7.2-9.6-7.2-19.1c0-9.6,0.4-9.6,0.4-19.1
		c0-7.3,6.5-10.3,5.6-14.2H10.6c0.7,3.9,4.6,8.2,4.6,14.2c0,9.6,0.2,9.6,0.2,19.1c0,9.6,2.3,9.6,2.3,19.1c0,9.6-3.2,9.6-3.2,19.1
		s3.8,9.6,3.8,19.1c0,9.6-0.8,9.6-0.8,19.1c0,9.6-4.1,9.6-4.1,19.1S13,138.5,13,148c0,9.3-2.6,9.6-2.6,18.4h140.8
		c0.3-8.9,0.1-9.1,0.1-18.5c0-9.6-4.7-9.6-4.7-19.1c0-9.6-1.3-9.6-1.3-19.1c0-9.6,0.2-9.6,0.2-19.1
		C145.4,81.1,152.9,81.1,152.9,71.5z"/>
	<path opacity="0.3" fill="#281D14" enable-background="new    " d="M147.2,139c-1.2-2.5-2.5-5.1-2.5-10.1c0-4.7-0.3-7-0.6-9.4
		c-0.3-2.4-0.7-4.9-0.7-9.7c0-4.8,0-7.2,0.1-9.6c0-2.3,0.1-4.8,0.1-9.5c0-5.2,2.1-8,4-10.4c1.8-2.4,3.4-4.4,3.4-8.7
		c0-4.7-0.1-7.2-0.2-9.5c-0.1-2.4-0.2-4.8-0.2-9.6c0-4.3-1.5-6.4-3.3-8.7c-1.8-2.4-3.8-5.2-3.8-10.4c0-4.8,0.1-7.3,0.2-9.6
		c0.1-2.3,0.2-4.8,0.2-9.5c0-4.4,2.1-7.4,3.7-9.7c1.3-1.9,2.2-3.1,1.7-4.5h-21.3c-1.2,8.1-3.2,16.1-5,24.1c-0.5,2.3-1,4.7-1.4,7.1
		c-0.1,0.7-0.4,2.7-0.5,3.5c-0.1,1.2-0.2,2.5-0.1,3.7c0,0.5,0.1,1.3,0.2,2c1.5,6.6,3.8,13.1,5.1,19.8c2.1,11.3,2.1,21.2-0.1,32.6
		c-0.6,3.1-1.4,6.1-2.1,9.2c-0.3,1.2-0.5,2.3-0.8,3.5c0,1.1-0.1,2.2,0,3.3c0.1,0.7,0.3,1.5,0.4,2c0.9,3.5,2,6.9,3,10.4
		c2.2,8.1,4.4,17.3,3.3,25.8c-1,7.8-2,12.6-5.1,19.7h26.1c0.1-4.8-1.5-14.1-1.5-18.5C149.3,143.5,148.3,141.3,147.2,139z"/>
	<path opacity="0.3" fill="#281D14" enable-background="new    " d="M42.1,148.7c-0.2-6.2-2-11.9-2-18.3c0.1-7.7,2.6-16.7,1.3-24.4
		c-0.4-2.2-1.9-3.8-2.3-5.9c-1.1-4.7,0.3-4.5,0.5-8.1c0.2-3.9,1.4-8.5,1.3-13.8c-0.3-17.2,3-33.6-1.3-50.5
		C37.4,19.1,38.1,9.2,37.4,0H9.8c0.3,1.3,1.1,2.7,2,4.3c1.6,2.8,3.4,6,3.4,9.9c0,4.8,0.1,7.2,0.1,9.5c0.1,2.4,0.1,4.8,0.1,9.6
		c0,4.6,0.6,6.9,1.3,9.3c0.7,2.4,1.4,4.9,1.4,9.9c0,5-1,7.5-1.9,10c-0.4,1.1-0.8,2.2-1.2,3.5c0,0.3,0,0.5,0,0.8
		c0,0.9-0.1,1.8-0.2,2.7c0,1.2-0.1,2.5-0.3,3.7c0.2,1.3,0.3,2.5,0.4,3.7c0.4,1.5,0.9,2.7,1.5,3.9c1.2,2.5,2.4,5,2.4,10
		c0,4.8-0.2,7.3-0.5,9.7c-0.1,1.4-0.3,2.9-0.4,4.9c0.5,2.4,0.3,4.8-0.2,7.2c-0.2,2.2-0.8,3.9-1.4,5.3c-0.3,1.1-0.7,2.2-1,3.3
		c-0.2,0.8-0.6,1.3-1.1,1.6c-0.3,1.9-0.5,3.8-0.6,5.6c-0.2,6.6,1,13,0,19.5c-0.1,0.4-0.2,0.7-0.5,1c0,0.3,0,0.5,0,0.8
		c-0.8,5.6-1.9,11.2-1.9,16.7h26.1C35.7,156.1,42.4,154.6,42.1,148.7z"/>
	<path opacity="0.3" fill="#261915" enable-background="new    " d="M143.6,90.7c0-5.2,2.1-8,4-10.4c1.8-2.4,3.4-4.4,3.4-8.7
		c0-4.7-0.1-7.2-0.2-9.5c-0.1-2.4-0.2-4.8-0.2-9.6c0-4.3-1.5-6.4-3.3-8.7c-1.8-2.4-3.8-5.2-3.8-10.4c0-4.8,0.1-7.3,0.2-9.6
		c0.1-2.3,0.2-4.8,0.2-9.5c0-4.4,2.1-7.4,3.7-9.7c1.3-1.9,2.2-3.1,1.7-4.5h-18.9l-0.1,0.3l4.7,2.8l-1.6,2.7l-3,2.4l2.7,3.2l-1.5,2.5
		l0.5,3l-5.3,1.4l-1,2.5l-0.9,2.6l-0.5,2.8l1.1,1.7l-0.8,3.1l3.1,1.1l0,2.8l1.8,2.1l2.3,2.2l2.1,2.4l0.9,2.6l-2.1,2.9l-1.5,2.7
		l0,2.6l0.6,2.6l0.1,2.6l-0.6,2.6l0.4,2.6l1.9,2.6l0.2,2.6l2.9,2.7l-3.7,2.6l-1.3,2.6l2.4,2.7l2.2,2.7l-0.7,2.6l-1.7,2.6l2,2.7
		l-5.2,2.4l0.5,2.7l0.4,2.7l3.6,2.8l-2.3,2.6l1.4,2.6l-0.6,2.6l0.9,2.6l0.1,2.6l-3.7,2.5l2.3,2.6l0.2,2.6l-1.7,2.6l3.2,2.6l-2.5,2.6
		l-1.4,2.6l-1.3,2.6l4.8,2.5l-1.3,2.6l-1.5,2.6l3.5,2.5l-2.8,2.7l3.3,2.6l-2.8,2.6l0.4,2.6l-3,2.4l4.3,3l-3.3,2.3l1.6,2.8l-2.6,1.8
		h21c0.1-4.8-1.9-14.1-1.9-18.5c0-4.5-1.1-6.7-2.2-9c-1.2-2.5-2.5-5.1-2.5-10.1c0-4.7-0.3-7-0.6-9.4c-0.3-2.4-0.7-4.9-0.7-9.7
		c0-4.8,0-7.2,0.1-9.6C143.5,97.8,143.6,95.4,143.6,90.7z"/>
	<g>
		<g opacity="0.5">
			<path fill="#60492F" d="M68,9.7c0,0,0.4,0.3,1.1,1c0.7,0.6,1.7,1.7,2.8,3.1c1.1,1.5,2.3,3.3,3.4,5.7c0.6,1.2,1,2.4,1.6,3.8
				c0.4,1.4,0.9,2.8,1.3,4.3c0.8,3,1.4,6.4,1.8,9.9c0.4,3.5,0.7,7.2,1,11c0.2,1.9,0.3,3.8,0.4,5.8c0.1,2,0.2,4,0.2,6.1
				c0,2,0,4.1,0,6.1c-0.1,2.1-0.1,4.1-0.3,6.2c-0.3,4.1-0.7,8.3-1.3,12.3c-0.2,1-0.3,2-0.5,3c-0.2,1-0.4,2-0.6,3
				c-0.2,1-0.4,2-0.6,2.9c-0.2,1-0.5,1.9-0.7,2.9c-0.4,1.9-0.9,3.7-1.5,5.5c-0.5,1.8-1.1,3.5-1.7,5.2c-0.3,0.8-0.6,1.7-0.9,2.5
				c-0.3,0.8-0.6,1.6-0.9,2.4c-0.6,1.6-1.2,3.1-1.9,4.5c-0.7,1.4-1.2,2.8-1.9,4c-0.7,1.2-1.3,2.4-1.9,3.5c-1.2,2.2-2.4,4-3.3,5.6
				c-1,1.5-1.8,2.6-2.4,3.4c-0.6,0.8-0.9,1.2-0.9,1.2s0.2-0.5,0.5-1.4c0.4-0.9,0.8-2.2,1.5-3.8c0.6-1.7,1.3-3.7,2.1-6
				c0.4-1.2,0.8-2.4,1.2-3.7c0.4-1.3,0.8-2.7,1.2-4.1c0.4-1.4,0.8-2.9,1.2-4.5c0.2-0.8,0.4-1.6,0.6-2.4c0.2-0.8,0.4-1.6,0.6-2.5
				c0.2-0.8,0.4-1.7,0.6-2.5c0.2-0.9,0.3-1.7,0.5-2.6c0.2-0.9,0.4-1.8,0.5-2.7c0.2-0.9,0.3-1.8,0.5-2.7c0.2-0.9,0.3-1.8,0.5-2.8
				c0.1-0.9,0.3-1.9,0.4-2.8c0.3-1.9,0.5-3.8,0.7-5.8c0.5-3.9,0.8-7.9,1-11.8c0.1-2,0.2-4,0.3-6c0.1-2,0.1-4,0.2-5.9
				c0-2,0-3.9,0-5.8c0-2,0-3.9-0.1-5.8c-0.1-3.8,0-7.5-0.1-10.9c-0.1-3.4-0.2-6.6-0.6-9.6c-0.3-2.9-0.8-5.6-1.4-7.9
				c-0.6-2.3-1.4-4.3-2.1-5.9c-0.8-1.5-1.4-2.8-2-3.6C68.3,10.1,68,9.7,68,9.7z"/>
		</g>
		<g>
			<path fill="#60492F" d="M104.7,57.2c0,0,0,1.3,0,3.6c0,1.1,0,2.5-0.1,4.1c-0.1,1.6-0.1,3.4-0.1,5.3c0,1.9-0.1,4-0.2,6.2
				c-0.1,2.2-0.1,4.6-0.2,7c-0.1,2.4-0.2,4.9-0.3,7.5c-0.1,2.5-0.3,5.1-0.4,7.7c-0.2,2.6-0.3,5.2-0.5,7.7c-0.1,2.5-0.3,5-0.4,7.4
				c-0.1,1.2-0.1,2.4-0.2,3.5c0,0.5,0,1.2,0,1.7c0,0.5,0,1.1,0,1.6c0.1,2.2,0.2,4.3,0.3,6.2c0.1,2,0.1,3.8-0.1,5.4
				c-0.1,1.6-0.3,3-0.6,4.1c-0.1,0.6-0.3,1.1-0.4,1.5c-0.1,0.4-0.3,0.8-0.4,1.1c-0.3,0.6-0.4,0.9-0.4,0.9s0.1-0.3,0.2-0.9
				c0.1-0.6,0.2-1.5,0.3-2.6c0-1.1,0-2.5-0.1-4c-0.1-1.5-0.4-3.3-0.7-5.2c-0.3-1.9-0.7-4-0.9-6.2c-0.1-0.6-0.1-1.2-0.2-1.8
				c0-0.6-0.1-1.1-0.1-1.8c0-1.2,0-2.4,0-3.6c0-2.4-0.1-5,0-7.5c0.1-2.5,0.3-5.1,0.4-7.7c0.2-2.6,0.3-5.2,0.5-7.7
				c0.2-2.5,0.4-5,0.6-7.4c0.2-2.4,0.5-4.7,0.7-7c0.3-2.2,0.6-4.3,0.9-6.2c0.1-1,0.3-1.9,0.4-2.8c0.1-0.9,0.3-1.7,0.5-2.5
				c0.3-1.6,0.6-2.9,0.8-4C104.4,58.5,104.7,57.2,104.7,57.2z"/>
		</g>
	</g>
	<g>
		<g>
			<g>
				<path opacity="0.5" fill="#262626" enable-background="new    " d="M40.4,104.4c-1.3-1.2-5.3-2-5.3-2s-2.8-1.2-3.4,0.1
					c-0.7,1.3-1.8,4.3-1.6,5.2c0.1,0.8,0.6,4.8,5,4.3c1.6-0.3,2.8-1.6,3.7-2.2C39.6,109.1,42,106,40.4,104.4z"/>
				<g>
					<path fill="#808080" stroke="#4D4D4D" stroke-width="2" stroke-miterlimit="10" d="M34.2,104.1c-2.3-0.9-0.7,2.2-1.7,1.9
						c-1-0.3-1.3,3.2,0.6,3.9c1.8,0.7,4-0.3,4.4,0c0.4,0.3,4.4-3,3.2-4.4c-1.2-1.5-4.3-1.4-4.3-1.4L34.2,104.1z"/>
					<path fill="#A5A5A5" d="M36.6,107.4c1.3-0.2,2.8-0.8,2.4-1.2c-0.4-0.4-2.8-0.6-2.8-0.6l-1.6,0.3l0.9,2L36.6,107.4z"/>
				</g>
			</g>
			<g>
				<path opacity="0.5" fill="#262626" enable-background="new    " d="M22,116c7.2-6.2,8.6-2.7,11.2,1.4c0.7,0.8,1.5,1.9,2.4,3.1
					c4.5,5.4,6.9,12,6.9,19.9l-0.1,0.5l-0.4,0.2c-14.6,8.1-15.6,6.9-19.9-9l-0.4-15.8L22,116z"/>
				<g>
					<path fill="#808080" stroke="#4D4D4D" stroke-width="2" stroke-miterlimit="10" d="M44.7,137.7c2.3-12.5-7.4-17.9-9.7-23.2
						c-2.3-5.3-8.8,0.2-8.8,0.2l0.4,14.8c0,0,4.2,15.5,7,14.1S44.7,137.7,44.7,137.7z"/>
					<path fill="#A5A5A5" stroke="#4D4D4D" stroke-miterlimit="10" d="M41.3,136.4L35,121.8c0,0-3.5,0-4.9-0.3
						c-1.5-0.2-1.1,8.3-1.1,8.3l6.1,8.9L41.3,136.4z"/>
					<path fill="#A09D9A" stroke="#4D4D4D" stroke-miterlimit="10" d="M35,121.8l-0.4-8.1c0,0,13.3,14.6,10.1,23.9l-3.4-1.3
						L35,121.8z"/>
					<path fill="#686868" stroke="#4D4D4D" stroke-miterlimit="10" d="M29.6,121.8c-1.5-1.8-2.4-4-3.7-5.7c0,0,0.2-1.7,1.9-2.6
						c1.6-0.8,5.1-2,6.1-0.5c1,1.5,1,8.8,1,8.8L29.6,121.8z"/>
				</g>
			</g>
			<g>
				<path opacity="0.5" fill="#262626" enable-background="new    " d="M42.8,111.9c0-0.4-2.5-1.8-2.5-1.8l-2.7,6.3l3.8,3.2
					c0,0,0.7,0.1,1.6-1c0.9-1.1,1.9-4.4,1.9-4.4L42.8,111.9z"/>
				<path fill="#808080" stroke="#4D4D4D" stroke-width="2" stroke-miterlimit="10" d="M42.2,118c0,0,3.3-3.2,2.7-3.8
					c-0.6-0.6-3.5-2.6-3.5-2.6l-1.8,4.4L42.2,118z"/>
			</g>
		</g>
	</g>
	<path opacity="0.3" fill="#261915" enable-background="new    " d="M36.9,42.5l-4.2-2.6l3.4-2.7l2.9-2.7L33.3,32l5.1-2.8l-2-2.6
		l1.6-2.7l-5.3-2.4l0.9-2.7l0.1-2.7l0.4-2.7l0.8-2.7L35.6,8l-3.9-2.3l-1.5-2.5l-1.6-2.5L28.7,0H9.8c0.3,1.3,1.1,2.7,2,4.3
		c1.6,2.8,3.4,6,3.4,9.9c0,4.8,0.1,7.2,0.1,9.5c0.1,2.4,0.1,4.8,0.1,9.6c0,4.6,0.6,6.9,1.3,9.3c0.7,2.4,1.4,4.9,1.4,9.9
		c0,5-1,7.5-2,10c-0.9,2.4-1.8,4.6-1.8,9.1c0,4.5,1.1,6.7,2.2,9.1c1.2,2.5,2.4,5,2.4,10c0,4.8-0.3,7.3-0.5,9.7
		c-0.2,2.3-0.5,4.7-0.5,9.4c0,5-1.3,7.6-2.6,10.1c-1.2,2.3-2.3,4.5-2.3,9c0,4.8-0.1,7.2-0.2,9.6c0,1-0.1,1.9-0.1,3.1c0,0,0,0,0,0.1
		c0.1,1.8,0.1,3.5-0.1,5.1c0,0.4,0,0.8,0,1.3c0,0.5-0.1,1.1-0.2,1.8c0.1,1.1,0.1,2.2,0,3.2c0.3,4.5-0.7,9-1.9,13.4h18.1l3.2-0.4
		l-2.7-2.4l0.3-2.7l1.8-2.8l-0.4-2.6l0-2.7l0.1-2.7L27,148l1.5-2.8l-0.4-2.6l-1.4-2.5l2.4-2.8l-1.6-2.5l-1.7-2.5l0.3-2.7l0.7-2.7
		l-4.7-2.3l3-2.8l-2.4-2.5l4.5-2.9l-3-2.5l-3.9-2.8l2.4-2.7l0.4-2.8l0.2-2.8l1.3-2.6l3-2.3l4.2-2.1l-2.3-3.2l1.7-2.6l1.4-2.7
		l-2.2-2.8l0.6-2.9l-4.3-2.2l3-2.7l2.2-2.4l-0.3-2.8l-1-2.8l0.7-2.6l-1-2.7l1.9-2.5l3.8-2.4l-1.1-2.7l-2.4-2.8l4-2.5l-3.9-2.7
		l0.1-2.6L36.9,42.5z"/>
	<path fill="none" stroke="#3D2F26" stroke-width="4" stroke-miterlimit="10" d="M13.2,0c0,4.9,4.4,8.2,4.4,14.2
		c0,9.6-3.9,3.6-3.9,13.1c0,9.6,6.3,15.5,6.3,25.1c0,9.6-3.1,9.6-3.1,19.1s3.8,9.6,3.8,19.1c0,9.6-0.8,9.6-0.8,19.1
		c0,9.6-4.1,9.6-4.1,19.1s-0.3,9.6-0.3,19.1c0,9.3-2.4,9.6-2.3,18.4"/>
	<path fill="none" stroke="#3D2F26" stroke-width="4" stroke-miterlimit="10" d="M151,0c0,5.1-5.3,6.9-5.3,14.2
		c0,9.6-0.4,9.6-0.4,19.1c0,9.6,7.1,9.6,7.1,19.1c0,9.6,0.5,9.6,0.5,19.1c0,9.6-7.3,9.6-7.3,19.1c0,9.6-0.2,9.6-0.2,19.1
		c0,9.6,1.3,9.6,1.3,19.1c0,9.6,4.6,9.6,4.6,19.1c0,9.3,0,9.6-0.3,18.5"/>
</g>
</svg>
