<?xml version="1.0" encoding="utf-8"?>
<!-- Generator: Adobe Illustrator 18.0.0, SVG Export Plug-In . SVG Version: 6.00 Build 0)  -->
<!DOCTYPE svg PUBLIC "-//W3C//DTD SVG 1.1//EN" "http://www.w3.org/Graphics/SVG/1.1/DTD/svg11.dtd">
<svg version="1.1"
	 id="Layer_1" sodipodi:docname="roadTile_straight.svg" inkscape:version="0.48.4 r9939" xmlns:svg="http://www.w3.org/2000/svg" xmlns:sodipodi="http://sodipodi.sourceforge.net/DTD/sodipodi-0.dtd" xmlns:rdf="http://www.w3.org/1999/02/22-rdf-syntax-ns#" xmlns:cc="http://creativecommons.org/ns#" xmlns:dc="http://purl.org/dc/elements/1.1/" xmlns:inkscape="http://www.inkscape.org/namespaces/inkscape"
	 xmlns="http://www.w3.org/2000/svg" xmlns:xlink="http://www.w3.org/1999/xlink" x="0px" y="0px" viewBox="0 0 200 200"
	 enable-background="new 0 0 200 200" xml:space="preserve">
<sodipodi:namedview  inkscape:pageopacity="0" inkscape:current-layer="Layer_1" inkscape:window-y="27" inkscape:guide-bbox="true" inkscape:window-x="0" inkscape:window-maximized="1" inkscape:pageshadow="2" inkscape:window-height="1014" inkscape:window-width="1920" showgrid="false" guidetolerance="10" inkscape:zoom="3.3941125" inkscape:cx="19.964573" inkscape:cy="96.483948" gridtolerance="10" showguides="true" bordercolor="#666666" pagecolor="#ffffff" objecttolerance="10" id="namedview3065" borderopacity="1">
	<sodipodi:guide  position="32.409061,205.65023" orientation="1,0" id="guide5940"></sodipodi:guide>
	<sodipodi:guide  position="167.5,221.66667" orientation="1,0" id="guide5942"></sodipodi:guide>
	<sodipodi:guide  position="100,254.79167" orientation="1,0" id="guide3053"></sodipodi:guide>
</sodipodi:namedview>
<g>
	<g>
		<g>
			<g>
				<g>
					<g>
						<defs>
							<rect id="SVGID_1_" x="-65.7" y="-240" width="319.6" height="747.6"/>
						</defs>
						<clipPath id="SVGID_2_">
							<use xlink:href="#SVGID_1_"  overflow="visible"/>
						</clipPath>
						<g clip-path="url(#SVGID_2_)">
							<linearGradient id="SVGID_3_" gradientUnits="userSpaceOnUse" x1="34.1766" y1="100.175" x2="174.1" y2="100.175">
								<stop  offset="0" style="stop-color:#41342A"/>
								<stop  offset="0" style="stop-color:#5A4230"/>
								<stop  offset="0.7532" style="stop-color:#5E4430"/>
								<stop  offset="0.999" style="stop-color:#4B3B2E"/>
								<stop  offset="1" style="stop-color:#544132"/>
								<stop  offset="1" style="stop-color:#41342A"/>
							</linearGradient>
							<path fill="url(#SVGID_3_)" d="M38.1,95.2c0,11.9,1.1,11.9,1.1,23.7c0,11.9,2.2,11.9,2.2,23.7c0,11.9,0.4,11.8,0.4,23.7
								s-5.5,11.8-5.5,23.7c0,8.9,0.8,11.1,1.3,16.6c30.5-3.2,61.1-3.4,91.8-0.8c4.8,0.4,9.6,0.8,14.4,1.2c9.4,0,18.8,0.1,28.3,0.3
								c-1.7-5.9-5.6-8-5.6-17.2c0-11.9,7.3-11.9,7.3-23.7c0-11.9-2.9-11.8-2.9-23.7s1.2-11.8,1.2-23.7s0.6-11.9,0.6-23.7
								c0-11.9,0.3-11.8,0.3-23.7s-1.2-11.9-1.2-23.7c0-11.9,0.4-11.9,0.4-23.7c0-11.9-3.4-11.9-3.4-23.7c0-1.9,0-3.4,0.1-4.8
								C159.1-4.9,149.4-6,139.7-7C105.9-3.8,72-1.8,38.1-2.1C38-1.3,38-0.5,38,0.4c0,11.9-0.3,11.9-0.3,23.7
								c0,11.9,0.2,11.9,0.2,23.7c0,11.9-1.7,11.9-1.7,23.7C36.2,83.4,38.1,83.4,38.1,95.2z"/>
							<path opacity="0.3" fill="#261915" enable-background="new    " d="M36,189.5c0,5.8,0.4,8.6,0.8,11.6
								c0.2,1.4,0.4,2.8,0.5,4.5c7.3-0.7,14.5-1.3,21.8-1.7l-1-0.2l-0.4-3.5l1.9-4l0.3-3.4l-4.7-2.3l1.1-3.6l-2.3-3l-1.1-3.2l1-3.5
								l-1.1-3.2l0.9-3.4l1.4-3.4l-1.4-3.2l-1-3.2l1.4-3.4l-1.8-3.2l1.2-3.3l-3.3-3.2l1.2-3.3l-1-3.3l2.3-3.3l2-3.3l-4.8-3.3
								l2.4-3.3l-0.4-3.3l-0.3-3.3l0.7-3.3l-0.2-3.3l-0.7-3.3l2.6-3.2l-1.4-3.3l0.6-3.3l-1-3.3l0.7-3.3l1.7-3.2l-0.3-3.3L50.7,85
								l1.4-3.2l3.9-3.1l-0.4-3.3l-0.4-3.3l-0.8-3.3l-2.6-3.5l5.2-3l-0.9-3.4l-2.5-3.5l3-3.1l-3.3-3.5l2.3-3.1l2.9-3.1L53.6,39
								l2.4-3.1l-0.7-3.3l-0.1-3.4l0.1-3.2l-0.9-3.3l2.8-3.2l-2-3.3l3-3.2l-0.3-3.3l-1.1-3.3l0.9-3.3l1-3.3L56.8-3
								C50.5-2.9,44.3-2.8,38-2.9c-0.1,0.8-0.1,1.8-0.1,2.8c0,5.9-0.1,9-0.2,11.9c-0.1,2.9-0.2,5.9-0.2,11.8s0.1,8.9,0.1,11.8
								c0.1,2.9,0.1,5.9,0.1,11.9c0,6.1-0.4,9.1-0.9,12.1c-0.4,3-0.8,5.8-0.8,11.6s0.4,8.6,0.9,11.5c0.5,3,1,6.1,1,12.2
								c0,5.8,0.3,8.7,0.6,11.7s0.6,6,0.6,12c0,5.7,0.5,8.5,1,11.5c0.5,3,1.1,6.1,1.1,12.2c0,5.9,0.1,8.9,0.2,11.8
								c0.1,2.9,0.2,6,0.2,11.9c0,6.4-1.5,9.6-3,12.7C37.3,181.3,36,184,36,189.5z"/>
							<g opacity="0.3">
								<path fill="#261915" d="M140.8,92l5.8,0.9l0.4,3.5l-1.9,4.1l-0.3,3.4l4.8,2.3l-1.1,3.6l2.3,2.9l1.1,3.2l-1,3.5l1.1,3.2
									l-0.9,3.4l-1.3,3.4l1.4,3.2l1,3.2l-1.4,3.4l1.8,3.2l-1.1,3.4l3.3,3.2l-1.2,3.3l1,3.3l-2.3,3.4l-1.9,3.3l4.8,3.2l-2.3,3.3
									l0.4,3.3l0.3,3.3l-0.7,3.3l0.3,3.3l0.7,3.3l-2.4,3.3l1.4,3.3l-0.9,3.3l1,3.3l-0.6,3.3l-1.7,3.2l0.2,1.3
									c5.7,0,11.4,0.1,17.1,0.2c-0.6-1.8-1.3-3.2-2.1-4.6c-1.6-3-3.4-6.4-3.4-12.8c0-6.5,2.1-9.9,4-12.9c1.8-2.9,3.4-5.4,3.4-10.8
									c0-5.7-0.7-8.4-1.4-11.4s-1.5-6.2-1.5-12.3c0-6,0.3-9.1,0.6-12.1s0.6-5.8,0.6-11.6c0-6,0.2-9,0.3-12
									c0.2-2.9,0.3-5.9,0.3-11.7c0-6,0.1-9,0.2-11.9c0.1-2.9,0.2-5.9,0.2-11.8c0-5.8-0.3-8.7-0.6-11.6c-0.3-3-0.6-6-0.6-12
									s0.1-9,0.2-11.9c0.1-2.9,0.2-5.9,0.2-11.8c0-5.6-0.8-8.4-1.6-11.3c-0.9-3-1.8-6.2-1.8-12.4c0-1.8,0-3.4,0.1-4.7
									c-7.5-0.6-15.1-1.4-22.6-2.2l-1,1l3.5,3.4l-4,3.2l3.7,3.1l-1.4,3.3l2.1,3l-3.5,3.8l2.2,2.9l3.1,2.7l-3.3,4l1.9,2.9l1.2,3
									l2.8,2.7l-1.1,3.5l0.1,3.3l-0.2,3.3l4,2.6l-2,3.5l0.7,3.1l2.3,3.1l-1.4,3.3l0.8,3.3l-0.5,3.2l-2.8,2.7l-1.9,2.6l3.4,4.8
									l-1.3,3.2l-3.9,1.5l-2.9,1.8l-2.9,1.5l-1.7,2.8l-1,2.6l4.7,0.1L140.8,92z"/>
							</g>
							<g>
								<g opacity="0.5">
									<path fill="#60492F" d="M67.7,167.1c0.1,3.7,0.1,7.4,0.2,11.1c0,3.7,0.1,7.4,0.1,11.1v11.2c0,1,0,2,0,3.1
										c3.3-0.1,6.7-0.2,10-0.3c0-0.9,0-1.8,0-2.8v-11.3c0-3.8-0.1-7.5-0.2-11.3s-0.2-7.5-0.3-11.2c-0.1-3.7-0.2-7.4-0.3-11.1
										c-0.1-3.6-0.3-7.3-0.4-10.9c-0.2-7.3-0.3-14.4-0.4-21.4c-0.2-7,0.1-13.9,0-20.7v-10c0-3.3,0.1-6.6,0.2-9.8
										c0.1-6.5,0.3-12.7,0.5-18.8c0.3-6.1,0.5-12,0.7-17.6c0.1-2.8,0.2-5.6,0.3-8.3c0.1-2.7,0.3-5.3,0.4-7.9
										c0.3-5.2,0.5-10,0.7-14.2c0.2-4.5,0.6-8.8,0.8-12.8c0.1-2.4,0.2-4.7,0.3-6.9c-0.8,0-1.6,0.1-2.4,0.1
										c-0.2,2-0.5,4.1-0.8,6.3c-0.3,1.9-0.6,4-0.9,6.1c-0.2,1-0.3,2.1-0.5,3.2c-0.1,1.1-0.3,2.3-0.4,3.4
										c-0.5,4.6-1.1,9.5-1.7,14.6c-0.3,2.6-0.6,5.2-0.9,7.9s-0.5,5.5-0.8,8.3c-0.5,5.6-1,11.4-1.6,17.5
										c-0.5,6.1-0.8,12.4-1.3,18.9c-0.2,3.3-0.4,6.6-0.6,9.9c-0.1,3.3-0.3,6.7-0.4,10.1c-0.2,3.4-0.3,6.8-0.4,10.3
										c0,1.7-0.1,3.4-0.1,5.2v5.3c0,7.1-0.1,14.3-0.1,21.6c0,3.7,0.1,7.3,0.1,11C67.6,159.7,67.6,163.4,67.7,167.1z"/>
								</g>
								<g opacity="0.5">
									<path fill="#60492F" d="M123,44.2c0.1,1.9,0.1,3.9,0.2,5.9c0,1,0.1,2,0.1,3s0.1,2,0.1,3c0.2,4.1,0.4,8.3,0.6,12.5
										c0.4,8.4,0.9,17.1,1.3,26c0.2,4.5,0.3,8.9,0.5,13.4c0.1,4.4,0.2,9,0.2,13.4s0.1,8.9-0.1,13.4l-0.1,3.4v3.3
										c-0.1,2.3-0.2,4.5-0.3,6.7c-0.5,8.9-0.8,17.6-1.2,26.1c-0.3,8.4-0.6,16.6-0.8,24.4c-0.1,2.1-0.1,4.1-0.2,6
										c1.3,0.1,2.6,0.2,3.9,0.3c0.6,0.1,1.2,0.1,1.8,0.2c0.2-2.1,0.3-4.1,0.5-6.3c0.6-7.8,1.3-15.9,1.9-24.4
										c0.6-8.5,1.3-17.2,1.9-26.1c0.1-2.2,0.3-4.5,0.4-6.7l0.1-0.8V140l0.1-1.7l0.1-3.4c0.2-4.5,0.2-9.1,0.2-13.7
										c0-2.3,0-4.5-0.1-6.8s-0.1-4.5-0.2-6.8c-0.2-4.5-0.4-9-0.7-13.5c-0.3-4.4-0.5-8.8-0.9-13.2c-0.3-4.4-0.6-8.7-1-12.9
										c-0.4-4.2-0.7-8.3-1.1-12.4c-0.1-1-0.2-2-0.3-3c-0.1-1-0.2-2-0.3-3c-0.2-2-0.3-4-0.5-5.9c-0.6-7.7-1.4-15.1-1.8-21.8
										c-0.2-3.4-0.5-6.6-0.7-9.7c-0.3-3-0.6-6-0.8-8.4c-0.1-3.9-0.2-7.4-0.4-10.5c-0.7,0.1-1.3,0.1-2,0.2
										c-0.1,3-0.4,6.4-0.6,10.1c-0.2,2.9-0.2,5.8-0.2,8.9v9.8c0,3.4,0,7,0.1,10.6C122.8,36.5,122.9,40.3,123,44.2z"/>
								</g>
								<g>
									<path fill="#60492F" d="M111.3-5.6c0,0.6-0.1,1.3-0.1,1.9c-0.1,3.2-0.3,6.4-0.4,9.5c-0.2,3.2-0.1,6.3-0.1,9.3v4.4
										c0,0.8,0.1,1.5,0.1,2.2c0.1,0.7,0.1,1.4,0.2,2.1c0.2,2.8,0.6,5.3,0.9,7.7c0.3,2.4,0.6,4.6,0.7,6.5c0.2,1.9,0.2,3.6,0.2,5
										c-0.1,1.4-0.2,2.5-0.3,3.2s-0.2,1.1-0.2,1.1s0.1-0.4,0.4-1.1c0.2-0.7,0.5-1.8,0.8-3.2s0.5-3.1,0.6-5.1
										c0.2-2,0.2-4.2,0.1-6.6s-0.2-5-0.3-7.7v-2c0.1-0.7,0.1-1.4,0.1-2.1c0.1-1.4,0.1-2.9,0.2-4.4c0.1-3,0.3-6.1,0.4-9.2
										c0.2-3.1,0.3-6.3,0.5-9.5c0-0.8,0.1-1.5,0.1-2.3C113.9-5.8,112.6-5.7,111.3-5.6z"/>
								</g>
							</g>
							<path opacity="0.3" fill="#281D14" enable-background="new    " d="M144.6,109.7c-1.2,33.5,0.7,64.4,0.5,96.6
								c7.7,0,15.4,0.1,23,0.2c-0.5-1.7-1.3-3.1-2.1-4.4c-1.6-3-3.4-6.4-3.4-12.8c0-6.5,2.1-9.9,4-12.9c1.8-2.9,3.4-5.4,3.4-10.8
								c0-5.7-0.7-8.4-1.4-11.4s-1.5-6.2-1.5-12.3c0-6,0.3-9.1,0.6-12.1s0.6-5.8,0.6-11.6c0-6,0.2-9,0.3-12
								c0.2-2.9,0.3-5.9,0.3-11.7c0-6,0.1-9,0.2-11.9c0.1-2.9,0.2-5.9,0.2-11.8c0-5.8-0.3-8.7-0.6-11.6c-0.3-3-0.6-6-0.6-12
								s0.1-9,0.2-11.9c0.1-2.9,0.2-5.9,0.2-11.8c0-5.6-0.8-8.4-1.6-11.3c-0.9-3-1.8-6.2-1.8-12.4c0-1.9,0-3.5,0.1-4.9
								c-7.2-0.5-14.3-1.3-21.5-2.1c0.5,6.2,1.1,12.5,1.6,18.9c1.3,14.7,1.2,27.7-2.5,40.9C137.6,71.5,145.4,87.2,144.6,109.7z"/>
							<path opacity="0.3" fill="#281D14" enable-background="new    " d="M36,189.4c0,5.8,0.4,8.6,0.8,11.6
								c0.2,1.4,0.4,2.9,0.5,4.6c7.5-0.8,15.1-1.3,22.6-1.7c2.3-9,4-18.4,4.3-29.4c1.6-46-16.6-87.2-13.1-133.6
								c1.1-14.9,3.2-29.3,5-43.9c-6,0.1-12,0.1-18.1,0.1c-0.1,0.8-0.1,1.7-0.1,2.7c0,5.9-0.1,9-0.2,11.9c-0.1,2.9-0.2,5.9-0.2,11.8
								s0.1,8.9,0.1,11.8c0.1,2.9,0.1,5.9,0.1,11.9c0,6.1-0.4,9.1-0.9,12.1c-0.4,3-0.8,5.8-0.8,11.6s0.4,8.6,0.9,11.5
								c0.5,3,1,6.1,1,12.2c0,5.8,0.3,8.7,0.6,11.7s0.6,6,0.6,12c0,5.7,0.5,8.5,1,11.5s1.1,6.1,1.1,12.2c0,5.9,0.1,8.9,0.2,11.8
								c0.1,2.9,0.2,6,0.2,11.9c0,6.4-1.5,9.6-3,12.7C37.3,181.2,36,183.9,36,189.4z"/>
							<g>
								<g>
									<g>
										<path opacity="0.5" fill="#262626" enable-background="new    " d="M127.8,188.9c0.1,1.8,2.4,5.1,2.4,5.1s1.2,2.8,2.5,2.3
											c1.4-0.5,4.3-1.9,4.8-2.6c0.5-0.7,2.9-3.9-0.6-6.6c-1.4-1-3.1-0.8-4.2-1C131.6,186.1,127.6,186.6,127.8,188.9z"/>
										<g>
											<path fill="#808080" d="M131.9,193.4c1.1,2.2,2-1.1,2.5-0.1c0.5,0.9,3.1-1.4,2.3-3.2s-3.1-2.6-3.1-3.1s-5.2-0.9-5.4,0.9
												c-0.2,1.8,2.1,4,2.1,4L131.9,193.4z"/>
											<path fill="#A5A5A5" d="M132.6,189.4c-1-0.7-2.6-1.4-2.6-0.8c0,0.5,1.6,2.4,1.6,2.4l1.4,0.9l0.8-2L132.6,189.4z"/>
										</g>
									</g>
									<g>
										<path opacity="0.5" fill="#262626" enable-background="new    " d="M149.1,193.4c-9.5-0.6-8.1-4.1-7.1-8.8
											c0.1-1.1,0.2-2.4,0.4-3.9c0.5-7,3.4-13.4,8.9-19.1l0.4-0.3l0.5,0.1c16.1,4.4,16,5.9,8,20.3l-10.6,11.6L149.1,193.4z"/>
										<g>
											<path fill="#808080" d="M147.8,162c-10.4,7.4-7.1,18-9.2,23.4c-2,5.4,6.5,6,6.5,6l10-10.9c0,0,7.8-14.1,4.8-15
												C156.9,164.5,147.8,162,147.8,162z"/>
											<path fill="#A5A5A5" d="M149.4,165.3l-5.7,14.9c0,0,2.5,2.4,3.3,3.6c0.9,1.2,6.5-5.2,6.5-5.2l1.9-10.6L149.4,165.3z"/>
											<path fill="#A09D9A" d="M143.7,180.1l-5.3,6.1c0,0,0.6-19.8,9.4-24.2l1.6,3.3L143.7,180.1z"/>
											<path fill="#686868" d="M147.6,183.9c-0.2,2.3-1.1,4.5-1.4,6.7c0,0-1.4,1.1-3.1,0.5c-1.7-0.5-5-2.2-4.7-3.9s5.4-7,5.4-7
												L147.6,183.9z"/>
										</g>
									</g>
									<g>
										<path opacity="0.5" fill="#262626" enable-background="new    " d="M131.3,181.8c-0.3,0.3,0.5,3,0.5,3l6.3-2.7l-0.5-5
											c0,0-0.4-0.6-1.9-0.4c-1.4,0.1-4.4,1.9-4.4,1.9L131.3,181.8z"/>
										<path fill="#808080" d="M135.9,177.9c0,0-4.6,0-4.6,0.8s0.8,4.3,0.8,4.3l4.4-1.9L135.9,177.9z"/>
									</g>
								</g>
							</g>
						</g>
					</g>
				</g>
			</g>
		</g>
	</g>
</g>
</svg>
