<?xml version="1.0" encoding="utf-8"?>
<!-- Generator: Adobe Illustrator 18.0.0, SVG Export Plug-In . SVG Version: 6.00 Build 0)  -->
<!DOCTYPE svg PUBLIC "-//W3C//DTD SVG 1.1//EN" "http://www.w3.org/Graphics/SVG/1.1/DTD/svg11.dtd">
<svg version="1.1" id="Layer_1" xmlns="http://www.w3.org/2000/svg" xmlns:xlink="http://www.w3.org/1999/xlink" x="0px" y="0px"
	 viewBox="0 0 200 200" enable-background="new 0 0 200 200" xml:space="preserve">
<g>
	
		<linearGradient id="SVGID_1_" gradientUnits="userSpaceOnUse" x1="25.3702" y1="115.7211" x2="143.569" y2="115.7211" gradientTransform="matrix(1.2012 0 0 1.2012 0.4805 -38.4384)">
		<stop  offset="0" style="stop-color:#41342A"/>
		<stop  offset="7.184729e-02" style="stop-color:#5E4430"/>
		<stop  offset="0.934" style="stop-color:#5A4230"/>
		<stop  offset="0.9721" style="stop-color:#544132"/>
		<stop  offset="1" style="stop-color:#4B3B2E"/>
		<stop  offset="1" style="stop-color:#41342A"/>
	</linearGradient>
	<path fill="url(#SVGID_1_)" d="M172.9,86c0-12-0.5-12-0.5-23.9c0-12-7.2-12-7.2-23.9c0-12,0.4-12,0.4-23.9c0-9.1,6.5-12.9,5.6-17.7
		H31.2c0.7,4.9,4.6,10.2,4.6,17.7c0,12,0.2,12,0.2,23.9c0,12,2.3,12,2.3,23.9c0,12-3.2,12-3.2,23.9s3.8,12,3.8,23.9
		c0,12-0.8,12-0.8,23.9c0,12-4.1,12-4.1,23.9c0,11.9-0.4,12.1-0.4,24c0,11.6-2.6,12-2.6,23h140.3c0.3-11.1,0.1-11.4,0.1-23.1
		c0-12-4.7-12-4.7-23.9c0-12-1.3-12-1.3-23.9c0-12,0.2-12,0.2-23.9C165.5,97.9,172.9,97.9,172.9,86z"/>
	<path opacity="0.3" fill="#281D14" enable-background="new    " d="M164.3,170.3c-1.2-3.1-2.5-6.4-2.5-12.6c0-5.9-0.3-8.7-0.6-11.7
		s-0.7-6.1-0.7-12.1c0-6,0-9,0.1-12c0-2.9,0.1-6,0.1-11.9c0-6.5,2.1-10,4-13c1.8-3,3.4-5.5,3.4-10.9c0-5.9-0.1-9-0.2-11.9
		c-0.1-3-0.2-6-0.2-12c0-5.4-1.5-8-3.3-10.9c-1.8-3-3.8-6.5-3.8-13c0-6,0.1-9.1,0.2-12s0.2-6,0.2-11.9c0-5.5,2.1-9.2,3.7-12.1
		c1.3-2.4,2.2-3.9,1.7-5.6h-21.2c-1.2,10.1-3.2,20.1-5,30.1c-0.5,2.9-1,5.9-1.4,8.9c-0.1,0.9-0.4,3.4-0.5,4.4
		c-0.1,1.5-0.2,3.1-0.1,4.6c0,0.6,0.1,1.6,0.2,2.5c1.5,8.2,3.8,16.4,5.1,24.7c2.1,14.1,2.1,26.5-0.1,40.7c-0.6,3.9-1.4,7.6-2.1,11.5
		c-0.3,1.5-0.5,2.9-0.8,4.4c0,1.4-0.1,2.7,0,4.1c0.1,0.9,0.3,1.9,0.4,2.5c0.9,4.4,2,8.6,3,13c2.2,10.1,4.4,21.6,3.3,32.2
		c-1,9.7-2,15.7-5.1,24.6h26c0.1-6-1.5-17.6-1.5-23.1C166.4,175.9,165.4,173.1,164.3,170.3z"/>
	<path opacity="0.3" fill="#281D14" enable-background="new    " d="M59.6,182.4c-0.2-7.7-2-14.9-2-22.9c0.1-9.6,2.6-20.9,1.3-30.5
		c-0.4-2.7-1.9-4.7-2.3-7.4c-1.1-5.9,0.3-5.6,0.5-10.1c0.2-4.9,1.4-10.6,1.3-17.2c-0.3-21.5,3-42-1.3-63.1
		c-2.2-10.7-1.5-23.1-2.2-34.6H27.4c0.3,1.6,1.1,3.4,2,5.4c1.6,3.5,3.4,7.5,3.4,12.4c0,6,0.1,9,0.1,11.9c0.1,3,0.1,6,0.1,12
		c0,5.7,0.6,8.6,1.3,11.6c0.7,3,1.4,6.1,1.4,12.4c0,6.2-1,9.4-1.9,12.5c-0.4,1.4-0.8,2.7-1.2,4.4c0,0.4,0,0.6,0,1
		c0,1.1-0.1,2.2-0.2,3.4c0,1.5-0.1,3.1-0.3,4.6c0.2,1.6,0.3,3.1,0.4,4.6c0.4,1.9,0.9,3.4,1.5,4.9c1.2,3.1,2.4,6.2,2.4,12.5
		c0,6-0.2,9.1-0.5,12.1c-0.1,1.7-0.3,3.6-0.4,6.1c0.5,3,0.3,6-0.2,9c-0.2,2.7-0.8,4.9-1.4,6.6c-0.3,1.4-0.7,2.7-1,4.1
		c-0.2,1-0.6,1.6-1.1,2c-0.3,2.4-0.5,4.7-0.6,7c-0.2,8.2,1,16.2,0,24.4c-0.1,0.5-0.2,0.9-0.5,1.2c0,0.4,0,0.6,0,1
		c-0.8,7-1.9,14-1.9,20.9h26C53.2,191.6,59.9,189.7,59.6,182.4z"/>
	<path opacity="0.3" fill="#261915" enable-background="new    " d="M160.7,109.9c0-6.5,2.1-10,4-13c1.8-3,3.4-5.5,3.4-10.9
		c0-5.9-0.1-9-0.2-11.9c-0.1-3-0.2-6-0.2-12c0-5.4-1.5-8-3.3-10.9c-1.8-3-3.8-6.5-3.8-13c0-6,0.1-9.1,0.2-12s0.2-6,0.2-11.9
		c0-5.5,2.1-9.2,3.7-12.1c1.3-2.4,2.2-3.9,1.7-5.6h-18.8l-0.1,0.4l4.7,3.5L150.6,4l-3,3l2.7,4l-1.5,3.1l0.5,3.7l-5.3,1.7l-1,3.1
		l-0.9,3.2l-0.5,3.5l1.1,2.1l-0.8,3.9l3.1,1.4v3.5l1.8,2.6l2.3,2.7l2.1,3l0.9,3.2l-2.1,3.6l-1.5,3.4v3.2l0.6,3.2l0.1,3.2l-0.6,3.2
		l0.4,3.2l1.9,3.2l0.2,3.2l2.9,3.4l-3.7,3.2l-1.3,3.2l2.4,3.4l2.2,3.4l-0.7,3.2l-1.7,3.2l2,3.4l-5.2,3l0.5,3.4l0.4,3.4l3.6,3.5
		l-2.3,3.2l1.4,3.2l-0.6,3.2l0.9,3.2l0.1,3.2l-3.7,3.1l2.3,3.2l0.2,3.2l-1.7,3.2l3.2,3.2l-2.5,3.2l-1.4,3.2l-1.3,3.2l4.8,3.1
		l-1.3,3.2l-1.5,3.2l3.5,3.1l-2.8,3.4l3.3,3.2l-2.8,3.2l0.4,3.2l-3,3l4.3,3.7l-3.3,2.9l1.6,3.5l-2.6,2.2h20.9
		c0.1-6-1.9-17.6-1.9-23.1c0-5.6-1.1-8.4-2.2-11.2c-1.2-3.1-2.5-6.4-2.5-12.6c0-5.9-0.3-8.7-0.6-11.7c-0.3-3-0.7-6.1-0.7-12.1
		c0-6,0-9,0.1-12C160.6,118.8,160.7,115.8,160.7,109.9z"/>
	<g>
		<g opacity="0.5">
			<path fill="#60492F" d="M85.4,8.8c0,0,0.4,0.4,1.1,1.2c0.7,0.7,1.7,2.1,2.8,3.9c1.1,1.9,2.3,4.1,3.4,7.1c0.6,1.5,1,3,1.6,4.7
				c0.4,1.7,0.9,3.5,1.3,5.4c0.8,3.7,1.4,8,1.8,12.4c0.4,4.4,0.7,9,1,13.7c0.2,2.4,0.3,4.7,0.4,7.2c0.1,2.5,0.2,5,0.2,7.6
				c0,2.5,0,5.1,0,7.6c-0.1,2.6-0.1,5.1-0.3,7.7c-0.3,5.1-0.7,10.4-1.3,15.4c-0.2,1.2-0.3,2.5-0.5,3.7c-0.2,1.2-0.4,2.5-0.6,3.7
				s-0.4,2.5-0.6,3.6c-0.2,1.2-0.5,2.4-0.7,3.6c-0.4,2.4-0.9,4.6-1.5,6.9c-0.5,2.2-1.1,4.4-1.7,6.5c-0.3,1-0.6,2.1-0.9,3.1
				c-0.3,1-0.6,2-0.9,3c-0.6,2-1.2,3.9-1.9,5.6c-0.7,1.7-1.2,3.5-1.9,5s-1.3,3-1.9,4.4c-1.2,2.7-2.4,5-3.3,7c-1,1.9-1.8,3.2-2.4,4.2
				c-0.6,1-0.9,1.5-0.9,1.5s0.2-0.6,0.5-1.7c0.4-1.1,0.8-2.7,1.5-4.7c0.6-2.1,1.3-4.6,2.1-7.5c0.4-1.5,0.8-3,1.2-4.6
				c0.4-1.6,0.8-3.4,1.2-5.1s0.8-3.6,1.2-5.6c0.2-1,0.4-2,0.6-3c0.2-1,0.4-2,0.6-3.1c0.2-1,0.4-2.1,0.6-3.1c0.2-1.1,0.3-2.1,0.5-3.2
				c0.2-1.1,0.4-2.2,0.5-3.4c0.2-1.1,0.3-2.2,0.5-3.4c0.2-1.1,0.3-2.2,0.5-3.5c0.1-1.1,0.3-2.4,0.4-3.5c0.3-2.4,0.5-4.7,0.7-7.2
				c0.5-4.9,0.8-9.9,1-14.7c0.1-2.5,0.2-5,0.3-7.5c0.1-2.5,0.1-5,0.2-7.4c0-2.5,0-4.9,0-7.2c0-2.5,0-4.9-0.1-7.2
				c-0.1-4.7,0-9.4-0.1-13.6s-0.2-8.2-0.6-12c-0.3-3.6-0.8-7-1.4-9.9C89,19.5,88.2,17,87.5,15c-0.8-1.9-1.4-3.5-2-4.5
				C85.7,9.3,85.4,8.8,85.4,8.8z"/>
		</g>
		<g>
			<path fill="#60492F" d="M122,68.1c0,0,0,1.6,0,4.5c0,1.4,0,3.1-0.1,5.1c-0.1,2-0.1,4.2-0.1,6.6s-0.1,5-0.2,7.7
				c-0.1,2.7-0.1,5.7-0.2,8.7s-0.2,6.1-0.3,9.4c-0.1,3.1-0.3,6.4-0.4,9.6c-0.2,3.2-0.3,6.5-0.5,9.6c-0.1,3.1-0.3,6.2-0.4,9.2
				c-0.1,1.5-0.1,3-0.2,4.4c0,0.6,0,1.5,0,2.1c0,0.6,0,1.4,0,2c0.1,2.7,0.2,5.4,0.3,7.7c0.1,2.5,0.1,4.7-0.1,6.7
				c-0.1,2-0.3,3.7-0.6,5.1c-0.1,0.7-0.3,1.4-0.4,1.9c-0.1,0.5-0.3,1-0.4,1.4c-0.3,0.7-0.4,1.1-0.4,1.1s0.1-0.4,0.2-1.1
				c0.1-0.7,0.2-1.9,0.3-3.2c0-1.4,0-3.1-0.1-5c-0.1-1.9-0.4-4.1-0.7-6.5s-0.7-5-0.9-7.7c-0.1-0.7-0.1-1.5-0.2-2.2
				c0-0.7-0.1-1.4-0.1-2.2c0-1.5,0-3,0-4.5c0-3-0.1-6.2,0-9.4c0.1-3.1,0.3-6.4,0.4-9.6c0.2-3.2,0.3-6.5,0.5-9.6
				c0.2-3.1,0.4-6.2,0.6-9.2c0.2-3,0.5-5.9,0.7-8.7c0.3-2.7,0.6-5.4,0.9-7.7c0.1-1.2,0.3-2.4,0.4-3.5s0.3-2.1,0.5-3.1
				c0.3-2,0.6-3.6,0.8-5C121.7,69.7,122,68.1,122,68.1z"/>
		</g>
	</g>
	<g>
		<g>
			<g>
				<path opacity="0.5" fill="#262626" enable-background="new    " d="M57.9,127c-1.3-1.5-5.3-2.5-5.3-2.5s-2.8-1.5-3.4,0.1
					c-0.7,1.6-1.8,5.4-1.6,6.5c0.1,1,0.6,6,5,5.4c1.6-0.4,2.8-2,3.7-2.7C57.1,132.9,59.5,129,57.9,127z"/>
				<g>
					<path fill="#808080" stroke="#4D4D4D" stroke-width="2" stroke-miterlimit="10" d="M51.7,126.7c-2.3-1.1-0.7,2.7-1.7,2.4
						c-1-0.4-1.3,4,0.6,4.9c1.8,0.9,4-0.4,4.4,0c0.4,0.4,4.4-3.7,3.2-5.5c-1.2-1.9-4.3-1.7-4.3-1.7H51.7z"/>
					<path fill="#A5A5A5" d="M54.1,130.8c1.3-0.2,2.8-1,2.4-1.5c-0.4-0.5-2.8-0.7-2.8-0.7l-1.6,0.4l0.9,2.5L54.1,130.8z"/>
				</g>
			</g>
			<g>
				<path opacity="0.5" fill="#262626" enable-background="new    " d="M60.3,136.4c0-0.5-2.5-2.2-2.5-2.2l-2.7,7.9l3.8,4
					c0,0,0.7,0.1,1.6-1.2c0.9-1.4,1.9-5.5,1.9-5.5L60.3,136.4z"/>
				<path fill="#808080" stroke="#4D4D4D" stroke-width="2" stroke-miterlimit="10" d="M59.7,144c0,0,3.3-4,2.7-4.7
					c-0.6-0.7-3.5-3.2-3.5-3.2l-1.8,5.5L59.7,144z"/>
			</g>
		</g>
	</g>
	<path opacity="0.3" fill="#261915" enable-background="new    " d="M54.4,49.7l-4.2-3.2l3.4-3.4l2.9-3.4l-5.7-3.1l5.1-3.5l-2-3.2
		l1.6-3.4l-5.3-3l0.9-3.4l0.1-3.4l0.4-3.4l0.8-3.4l0.7-3.4l-3.9-2.9l-1.5-3.1l-1.6-3.1l0.1-0.9H27.4c0.3,1.6,1.1,3.4,2,5.4
		c1.6,3.5,3.4,7.5,3.4,12.4c0,6,0.1,9,0.1,11.9c0.1,3,0.1,6,0.1,12c0,5.7,0.6,8.6,1.3,11.6c0.7,3,1.4,6.1,1.4,12.4
		c0,6.2-1,9.4-2,12.5c-0.9,3-1.8,5.7-1.8,11.4s1.1,8.4,2.2,11.4c1.2,3.1,2.4,6.2,2.4,12.5c0,6-0.3,9.1-0.5,12.1
		c-0.2,2.9-0.5,5.9-0.5,11.7c0,6.2-1.3,9.5-2.6,12.6c-1.2,2.9-2.3,5.6-2.3,11.2c0,6-0.1,9-0.2,12c0,1.2-0.1,2.4-0.1,3.9
		c0,0,0,0,0,0.1c0.1,2.2,0.1,4.4-0.1,6.4c0,0.5,0,1,0,1.6c0,0.6-0.1,1.4-0.2,2.2c0.1,1.4,0.1,2.7,0,4c0.3,5.6-0.7,11.2-1.9,16.7h18
		l3.2-0.5l-2.7-3l0.3-3.4l1.8-3.5l-0.4-3.2v-3.4l0.1-3.4l-3.9-2.7L46,178l-0.4-3.2l-1.4-3.1l2.4-3.5l-1.6-3.1l-1.7-3.1l0.3-3.4
		l0.7-3.4l-4.7-2.9l3-3.5l-2.4-3.1l4.5-3.6l-3-3.1l-3.9-3.5l2.4-3.4l0.4-3.5l0.2-3.5l1.3-3.2l3-2.9l4.2-2.6l-2.3-4l1.7-3.2l1.4-3.4
		l-2.2-3.5l0.6-3.6l-4.3-2.7l3-3.4l2.2-3L49.1,86l-1-3.5l0.7-3.2l-1-3.4l1.9-3.1l3.8-3l-1.1-3.4L50,62.8l4-3.1l-3.9-3.4l0.1-3.2
		L54.4,49.7z"/>
	<path fill="none" stroke="#3D2F26" stroke-width="4" stroke-miterlimit="10" d="M30.8-3.4c0,6.1,4.4,10.2,4.4,17.7
		c0,12-0.6,3-0.9,16.6c-0.2,11.2,3.2,19.1,3.2,31.1s-3.1,12-3.1,23.9s3.8,12,3.8,23.9c0,12-0.8,12-0.8,23.9c0,12-4.1,12-4.1,23.9
		c0,11.9-0.3,12-0.3,23.9c0,11.6-2.4,12-2.3,23"/>
	<path fill="none" stroke="#3D2F26" stroke-width="4" stroke-miterlimit="10" d="M168.1-3.4c0,6.4-5.3,8.6-5.3,17.7
		c0,12-0.4,12-0.4,23.9c0,12,7.1,12,7.1,23.9c0,12,0.5,12,0.5,23.9c0,12-7.3,12-7.3,23.9c0,12-0.2,12-0.2,23.9c0,12,1.3,12,1.3,23.9
		c0,12,4.6,12,4.6,23.9c0,11.6,0,12-0.3,23.1"/>
</g>
<path fill="#A5A5A5" d="M138.6,16.2l0.9,2.4"/>
<path opacity="0.5" fill="#262626" enable-background="new    " d="M146.5,28.9c-0.3-2.2-3.5-6.4-3.5-6.4s-1.7-3.5-3.3-2.9
	c-1.7,0.5-5.1,2.1-5.6,3.1c-0.5,0.8-3.2,4.7,1.3,8.1c1.8,1.1,3.9,1.1,5.3,1.3C142,32.3,146.7,31.7,146.5,28.9z"/>
<path fill="#808080" stroke="#4D4D4D" stroke-width="2" stroke-miterlimit="10" d="M140.5,21c-0.5-2.8-6.6,2.9-4.4,6
	c-1-0.4,0.3,2,2.3,2.8c1.9,0.8,4.1-0.4,4.5,0c0.4,0.4,4.5-3.6,3.3-5.3c-1.2-1.8-4.4-1.7-4.4-1.7L140.5,21z"/>
<path fill="#A5A5A5" d="M143.9,25.5c1.3-0.2,0.3-0.9-0.1-1.4c-0.3-0.4-3.5-1.5-4.1-1.6c-0.1,0,1.1,0.9,1,0.9l-0.1-0.1
	c-0.4-0.4-0.9-0.7-1.5-0.9c-0.4-0.1-0.7-0.3-0.5,0.2l0.5,1c0.6,1.4,2.2,2.3,3.7,2L143.9,25.5z"/>
<path opacity="0.5" fill="#262626" enable-background="new    " d="M147.3,37.2c-1.3-1.4-5.5-2.4-5.5-2.4s-2.9-1.4-3.5,0.1
	c-0.7,1.6-1.9,5.2-1.6,6.2c0.1,1,0.6,5.8,5.1,5.2c1.6-0.4,2.9-1.9,3.8-2.6C146.5,42.8,149,39.1,147.3,37.2z"/>
<path fill="#808080" stroke="#4D4D4D" stroke-width="2" stroke-miterlimit="10" d="M140.8,36.7c-2.4-1.1-0.7,2.6-1.8,2.3
	c-1-0.4-1.3,3.8,0.6,4.7c1.9,0.8,4.1-0.4,4.5,0c0.4,0.4,4.5-3.6,3.3-5.3c-1.2-1.8-4.4-1.7-4.4-1.7H140.8z"/>
<path fill="#A5A5A5" d="M143.1,40.6c1.3-0.2,2.9-1,2.5-1.4c-0.4-0.5-2.9-0.7-2.9-0.7l-1.6,0.4l0.9,2.4L143.1,40.6z"/>
<path opacity="0.5" fill="#262626" enable-background="new    " d="M142.8,181.1c0-0.5-2.6-2.2-2.6-2.2l-2.8,7.6l3.9,3.8
	c0,0,0.7,0.1,1.6-1.2s2-5.3,2-5.3L142.8,181.1z"/>
<path fill="#808080" stroke="#4D4D4D" stroke-width="2" stroke-miterlimit="10" d="M142.1,187.9c0,0,3.4-3.8,2.8-4.6
	c-0.6-0.7-3.6-3.1-3.6-3.1l-1.9,5.3L142.1,187.9z"/>
</svg>
