<?xml version="1.0" encoding="utf-8"?>
<!-- Generator: Adobe Illustrator 18.0.0, SVG Export Plug-In . SVG Version: 6.00 Build 0)  -->
<!DOCTYPE svg PUBLIC "-//W3C//DTD SVG 1.1//EN" "http://www.w3.org/Graphics/SVG/1.1/DTD/svg11.dtd">
<svg version="1.1" id="Layer_1" xmlns="http://www.w3.org/2000/svg" xmlns:xlink="http://www.w3.org/1999/xlink" 
	 viewBox="0 0 200 200" enable-background="new 0 0 200 200" xml:space="preserve">
<g>
	
		<linearGradient id="SVGID_1_" gradientUnits="userSpaceOnUse" x1="15.4248" y1="9.5183" x2="148.4226" y2="9.5183" gradientTransform="matrix(-1.424892e-03 1.2012 1.2012 1.424892e-03 4.8801 7.0763)">
		<stop  offset="0" style="stop-color:#41342A"/>
		<stop  offset="5.706204e-02" style="stop-color:#5A4230"/>
		<stop  offset="0.942" style="stop-color:#5E4430"/>
		<stop  offset="0.9432" style="stop-color:#5B4230"/>
		<stop  offset="0.9528" style="stop-color:#544132"/>
		<stop  offset="0.9581" style="stop-color:#4B3B2E"/>
		<stop  offset="1" style="stop-color:#41342A"/>
	</linearGradient>
	<path fill="url(#SVGID_1_)" d="M20.8,121.4c0-15.5,6-15.6,6-31.1s0.9-15.6,0.9-31.1s12-16,2.4-27.5c-8.9-10.5-31.4-4.5-31.4-4.5
		l-0.1,138.4c3,1,6.1,2.1,9,3.5c1.1,0.5,1.5,1.4,1.5,2.2c2,0.9,3.9,2.7,5.4,4.5c0.6,0.3,1.1,0.8,1.4,1.3c0.3,0.2,0.6,0.4,0.9,0.6
		c0.3,0.1,0.6,0.2,1,0.3c1.1,0.1,1.9,0.9,2.2,1.7c0.5,0.1,0.9,0.4,1.3,0.7c0.7,0.6,1.2,1.4,1.4,2.2c0.3-0.2,0.7-0.3,1-0.5
		c12.5-7.4,0.4-14.4,0.4-29.9S20.8,136.9,20.8,121.4z"/>
	<path fill="#3D2F26" stroke="#3D2F26" stroke-width="4" stroke-miterlimit="10" d="M21.6,124.1c0-14.3,6-14.4,6-28.8
		c0-14.3,0.9-14.4,0.9-28.8s10-20.7,0.4-31.3c-8.8-9.8-16.1-5.8-29.1-5.8L-0.5,166c2.8,0.9,5.5,1.9,8.1,3.2c1.1,0.5,1.5,1.4,1.5,2.2
		c2,0.9,3.9,2.7,5.4,4.5c0.6,0.3,1.1,0.8,1.4,1.3c0.3,0.2,0.6,0.4,0.9,0.6c0.3,0.1,0.6,0.2,1,0.3c1.1,0.1,1.9,0.9,2.2,1.7
		c0.5,0.1,0.9,0.4,1.3,0.7c0.3,0.3,0.5,0.6,0.8,0.9c0.8-0.3,1.5-0.6,2.4-1c13-5.8,0.4-13.3,0.4-27.7S21.6,138.4,21.6,124.1z"/>
	
		<linearGradient id="SVGID_2_" gradientUnits="userSpaceOnUse" x1="78.5941" y1="140.1424" x2="78.5941" y2="16.4173" gradientTransform="matrix(-1.424892e-03 1.2012 1.2012 1.424892e-03 4.8801 7.0763)">
		<stop  offset="0" style="stop-color:#41342A"/>
		<stop  offset="4.732297e-02" style="stop-color:#544132"/>
		<stop  offset="7.357912e-02" style="stop-color:#5E4430"/>
		<stop  offset="0.9287" style="stop-color:#5A4230"/>
		<stop  offset="1" style="stop-color:#4B3B2E"/>
		<stop  offset="1" style="stop-color:#41342A"/>
	</linearGradient>
	<path fill="url(#SVGID_2_)" d="M172.3,138.7c0-11.3,2.2-11.3,2.2-22.7c0-11.3-2-11.3-2-22.7s0.4-11.3,0.4-22.7
		c0-11.3-1.8-11.3-1.8-22.7s1.1-11.3,1.1-22.7s-1.7-24.4-1.6-25.2L29.7,0c-0.1,4.2,0.1,8.4-0.5,12.6c-0.7,4.2-1.9,8.1-3.7,12
		c0,0.2-0.1,0.4-0.1,0.7c-1.7,11.2-0.9,11.3-0.9,22.7S26,59.2,26,70.6s-1.8,11.3-1.8,22.7c0,11.3,1.8,11.3,1.8,22.7
		c0,11.3-2.6,11.3-2.6,22.7s-0.6,11.3-0.6,22.7s1.6,11.3,1.6,22.7c0,3.5-0.1,5.9-0.3,7.8c0.3,0.1,0.5,0.3,0.7,0.6
		c0.8,0.1,1.7,0.4,2.3,1.3c2.1,3,3.6,6.4,5.6,9.5l139.7,0.1c0-8-0.2-9.2-0.2-19.1c0-11.3,1.6-11.3,1.6-22.7S172.3,150.1,172.3,138.7
		z"/>
	<g>
		
			<linearGradient id="SVGID_3_" gradientUnits="userSpaceOnUse" x1="15.5269" y1="10.3937" x2="140.6908" y2="10.3937" gradientTransform="matrix(-1.424892e-03 1.2012 1.2012 1.424892e-03 4.8801 7.0763)">
			<stop  offset="0" style="stop-color:#41342A"/>
			<stop  offset="8.556727e-02" style="stop-color:#5E4430"/>
			<stop  offset="0.9353" style="stop-color:#5A4230"/>
			<stop  offset="0.9476" style="stop-color:#544132"/>
			<stop  offset="1" style="stop-color:#4B3B2E"/>
			<stop  offset="1" style="stop-color:#41342A"/>
		</linearGradient>
		<path fill="url(#SVGID_3_)" d="M24.8,26.2c-7.2,2.7-17.9,6.3-27.9,8C-3,42.8-2.5,51.4-2.6,60c-0.1,7.9,0.5,15.7-1.1,23.4
			c0.5,3.5,0.9,6.6,1,8.4c0.4,3.9-0.3,13.7-1.4,22.5c0.2,4.2,0.4,8.3,0.7,12.4c0.9,10.8,0.9,21.6,0.7,32.5c0.7,2.7,1.3,5,1.9,6.7
			c2.8,1,5.6,2,8.3,3.3c1.1,0.5,1.5,1.4,1.5,2.2c1.2,0.5,2.3,1.3,3.3,2.3c1.9,0.9,3.7,1.7,5,2.1c4.5,1.3,15.8-2.1,15.8-5.7
			s-4.1-20.3-1.3-26.4c2.8-6.1,2.8-23.6,1-28.7c-1.8-5.1,3.8-63.9,5.4-72.1C40.1,34.7,32.8,23.3,24.8,26.2z"/>
		<path opacity="0.3" fill="#281D14" enable-background="new    " d="M-2.8,29.8c-0.2,0,0.2,7.4,0,7.4v20.5
			C5.7,57.6,14.4,60,23,59.9c0-0.6,0-1.2,0-1.8c-0.2-28,1.5-12.7,1.5-22.4c0-1.1,0-2.1,0-2.9c-0.2-2.3-1.8-3.3-4.2-3.8
			C12.6,29.2,3.6,29.8-2.8,29.8z"/>
		<path opacity="0.3" fill="#281D14" enable-background="new    " d="M9.1,171.4c2,0.9,3.9,2.7,5.4,4.5c0.2,0.1,0.5,0.3,0.6,0.4
			c-0.4-6-1.5-7.9-1.5-16.8v-4.9c-0.3,0.3-0.6,0.6-1,0.9c-2.9,2.3-6.4,2.8-9.9,3.3c-1.2,0.2-2-0.6-2.4-1.6c-0.1,0-0.3,0.1-0.4,0.1
			c-0.2,0.1-0.3,0.1-0.5,0.1v8.6c2.7,0.9,5.4,1.9,8,3.2C8.7,169.7,9.1,170.6,9.1,171.4z"/>
		<path opacity="0.3" fill="#261915" enable-background="new    " d="M-1,28.2c-0.1-0.1,0.1,8.5,0,8.5v12.9l3.6,2.9l4,6.4l5.7,0.9
			l4.9-4.5l5.2-1.7l0.3-0.1c0.3-6.4,1.1-8.6,1.1-18.6c0-1.3,0-2.4,0-3.3c0.1-3.8-1.1-4.1-3.9-4.3C15.4,32.1,5.5,32.3-1,28.2z"/>
		<g opacity="0.3">
			<path fill="#261915" d="M9.1,171.4c2,0.9,3.9,2.7,5.4,4.5c0.2,0.1,0.4,0.2,0.5,0.3c-0.3-4.1-0.9-6.3-1.3-10.2l-2.6-1.3l-3.2-3.6
				l-4.2,3.2l-4.2-5.5v7.2c2.7,0.9,5.4,1.9,8,3.2C8.7,169.7,9.1,170.6,9.1,171.4z"/>
		</g>
	</g>
	<g>
		<path opacity="0.3" fill="#281D14" enable-background="new    " d="M47.8,171.2c-1.1-9.9-4.8-7.4-11-14.4c-4-4.5-8.8-8.3-14-10.8
			c-2.2,2.9-5.3,4.3-8.2,6.2c-0.2,0.5-0.4,1-0.7,1.3c-0.1,1.7-0.1,3.7-0.1,6.3c0,8.8,1,10.8,1.4,16.6c0.3,0.3,0.5,0.5,0.7,0.9
			c0.3,0.2,0.6,0.4,0.9,0.5c0.3,0.1,0.7,0.2,1,0.3c1.1,0.1,1.9,0.9,2.2,1.7c0.4,0.1,0.7,0.3,1,0.5c1.4-0.3,3,0.2,3.7,2
			c1.1,3.2,1.4,6.9,1.1,10.7c0,0.2,0.1,0.3,0.1,0.5c0.4,2.6,1.6,5,2.7,7.5l23.2-0.1c0.1-4.5,2.2-9,2.6-10.3
			C55.3,185.7,48.5,176.1,47.8,171.2z"/>
		<path opacity="0.3" fill="#261915" enable-background="new    " d="M35.2,189.4l-1-3.8l1-1.9c0,0-0.6-7.8-0.7-8.2
			c-0.1-0.5-1.5-3.9-1.7-4c-0.2-0.1-3.8-4.2-3.8-4.7s-2.6-2.2-2.6-2.2h-3.4l-1.7-2.2l-2.9,4.4l-1.2-0.6c0.4,4.4,1.1,6.6,1.4,12.2
			c0.8,0.3,1.3,0.9,1.5,1.6c0.5,0.1,0.9,0.4,1.3,0.7c0.3,0.3,0.6,0.6,0.8,0.9c0,0,0,0,0,0c0.2-0.3,0.3-0.7,0.5-1
			c1.4-2.5,5.8-1.5,5.6,1.5c-0.3,5-0.6,10.2-1.9,15.1c0.1,0.2,0.1,0.4,0.1,0.6c0.1,1.1,0.2,2.2,0.2,3.2H34v-0.1
			c0.4-2.1,0.9-5.6,1-5.7c0.1-0.2,2.6-3.3,2.6-3.3L35.2,189.4z"/>
		<path opacity="0.3" fill="#281D14" enable-background="new    " d="M168.5,201.1c0-7.9-0.2-9.1-0.2-18.9c0-11.2,1.6-11.2,1.6-22.4
			s-1.6-11.2-1.6-22.4s2.3-11.2,2.3-22.4s-2.1-11.2-2.1-22.4s0.4-11.2,0.4-22.4s-1.8-11.2-1.8-22.4s1.2-11.2,1.2-22.4
			s-1.7-24.1-1.6-24.9h-27.3c2,11.6,9.8,23.2,9.8,35.2C149,58,138,76.7,138,97.9c0,18.7,4.4,37.7,4.2,57.7
			c-0.2,15.4-2.7,30.3-3.1,45.1L168.5,201.1z"/>
		<path opacity="0.3" fill="#261915" enable-background="new    " d="M168.5,201.1c0-7.9-0.2-9.1-0.2-18.9c0-11.2,1.6-11.2,1.6-22.4
			s-1.6-11.2-1.6-22.4s2.3-11.2,2.3-22.4s-2.1-11.2-2.1-22.4s0.4-11.2,0.4-22.4s-1.8-11.2-1.8-22.4s1.2-11.2,1.2-22.4
			s-1.6-24.1-1.6-24.9h-19l7.5,4.6L153.5,9l2.3,4l-5.7,3.8l0.5,4l0.5,4l4,4l-2.4,3.9l1.6,3.9l-0.5,3.9l1,3.9l0.1,3.9l-3.9,3.9
			l2.7,4.2l0.4,3.9l-1.8,3.9l3.5,3.8l-2.7,3.9l-1.5,3.9l-1.3,3.9l5.4,3.6l-1.5,3.9l-1.6,4l3.9,3.6l-2.9,4.1l3.7,3.8l-2.9,4l0.5,4
			l-3.2,3.8l4.9,4.4l-3.7,3.6l1.8,4.2l-3.4,3.4L151,134l2.3,4.4l-3.8,3.3l2.1,4.4l-1.2,3.8l0.4,4l-0.2,3.9l-3.1,3.4l2.1,4.2
			l-2.7,3.5L145,173l2.4,4.2l-3.1,3.8l3.9,4.1l-4.3,4l4.2,3.6l-1.5,4.1l2.4,3.5l-1,1.3L168.5,201.1L168.5,201.1z"/>
		<path opacity="0.3" fill="#281D14" enable-background="new    " d="M47.6,25.8c-0.4-9,0.1-18.1,2-26.7c-0.1-0.2-0.1-0.5-0.1-0.7
			c-4.2,0-8.5,0-12.7,0.3C36-1.2,35.4-1.4,35-1.7c-0.7,0.2-1.4,0.4-2.2,0.6C32.2,4.1,30.8,9,28,13.2c-0.1,0.2-0.2,0.5-0.4,0.7
			c-1.4,2-1.9,4.6-2.8,6.8c-0.5,1.2-1.1,2.4-1.6,3.6c-0.2,0.7-0.4,1.3-0.7,2c-0.2,0.6-0.5,1-0.9,1.3c0,0.1-0.1,0.1-0.1,0.2
			c-0.1,0.2-0.2,0.4-0.3,0.6c0.2,5.8-1.2,12.2-1.1,17.9c0.1,0.7,0.1,1.5,0.1,2.3c0,0.2,0,0.4-0.1,0.5c3,0.4,6,0.6,8-0.1
			c7.8-2.5,9.3-4,15-11.3c1.9-2.5,4.1-5.3,6.1-8.2c0-0.1,0-0.2-0.1-0.3C48.3,28.6,47.6,27.4,47.6,25.8z"/>
		<path opacity="0.3" fill="#261915" enable-background="new    " d="M38.4,8.4l1-4.6l6.1-3l-15-1c0.1,3.1,0.2,6.1-0.6,9.2
			c-1.3,5.3-3.5,10.1-5.7,15.1c-0.2,0.4-0.4,0.7-0.7,1c0.1,2.3,0.2,5,0.2,8.7c0,11.3-0.5,14.1-0.7,21.5l3.8,3.8H31l2-4l2-5.1
			l0.5-3.3c0,0,1.5-10,1.6-10c0.2,0,1.7-5,1.7-5l0.9-8.8L38.4,15V8.4z"/>
		<path fill="none" stroke="#3D2F26" stroke-width="4" stroke-miterlimit="10" d="M30,203.2c0-2.3-6.3-15-6-22.4"/>
		<path fill="#3D2F26" d="M23.3,181.3c-0.4,0-0.7,0.1-1,0.3c0.3,0.4,0.5,0.9,0.6,1.3c0.6,1.1,0.3,2.3-0.4,3.2c0,0.1,0.1,0.1,0.1,0.2
			c0,0.1,0,0.2,0.1,0.3c0.2,0.1,0.5,0.1,0.7,0.1c1.3,0,2.4-1.2,2.4-2.7S24.6,181.3,23.3,181.3z"/>
		<path fill="none" stroke="#3D2F26" stroke-width="4" stroke-miterlimit="10" d="M166.4,0.4c0,11.4,1.8,13.8,1.8,25.1
			c0,11.2-1.2,11.2-1.2,22.4s1.8,11.2,1.8,22.4s-0.4,11.2-0.4,22.4s2.1,11.2,2.1,22.4s-2.3,11.2-2.3,22.4s1.6,11.2,1.6,22.4
			s-1.6,11.2-1.6,22.4s-2.1,17.2-2.1,19"/>
		<path fill="none" stroke="#3D2F26" stroke-width="4" stroke-miterlimit="10" d="M23.4,28.7c0.9-2.9,8.7-19,8.1-28.8"/>
		<ellipse fill="#3D2F26" cx="22.8" cy="28.7" rx="2.3" ry="2.5"/>
	</g>
	<g>
		<g>
			<path opacity="0.5" fill="#262626" enable-background="new    " d="M33.9,197.8c1.8,0.7,6.1-0.2,6.1-0.2s3.3,0,3.4-1.7
				s0-5.7-0.5-6.6c-0.5-0.8-2.7-5.1-7-2.4c-1.6,1.1-2.2,3-2.7,4.2C32.6,192.3,31.5,196.9,33.9,197.8z"/>
			<g>
				<path fill="#808080" stroke="#4D4D4D" stroke-width="2" stroke-miterlimit="10" d="M40.2,195.3c2.7-0.1-0.2-2.8,1-2.9
					c1.2-0.1-0.1-4.2-2.3-4.1c-2.2,0.1-3.9,2.2-4.4,2.1c-0.5-0.2-3.2,5.3-1.3,6.4c1.7,1.1,5-0.5,5-0.5L40.2,195.3z"/>
				<path fill="#A5A5A5" d="M36.4,192.6c-1.2,0.8-2.6,2.3-2,2.5c0.5,0.2,3.1-0.7,3.1-0.7l1.6-1.1l-1.7-1.8L36.4,192.6z"/>
			</g>
		</g>
		<g>
			<path opacity="0.5" fill="#262626" enable-background="new    " d="M47.6,176.1c-4.8,10.3-7.6,7-12,3.8c-1-0.6-2.3-1.3-3.8-2.3
				c-7-3.9-12.1-10.2-15.5-18.9l-0.1-0.6l0.4-0.5c11.4-15.9,12.9-15.2,24,0.6l7.2,17.3L47.6,176.1z"/>
			<g>
				<path fill="#808080" stroke="#4D4D4D" stroke-width="2" stroke-miterlimit="10" d="M15.3,162.7c3.1,15,15.2,16.5,19.8,21.3
					s8.8-4.4,8.8-4.4l-6.7-16.3c0,0-10.9-15.4-13.2-12.5C21.6,153.8,15.3,162.7,15.3,162.7z"/>
				<path fill="#A5A5A5" stroke="#4D4D4D" stroke-miterlimit="10" d="M19.3,162.5l12.6,13.3c0,0,3.5-1.6,5.1-2.1
					c1.6-0.4-2.4-9.7-2.4-9.7l-10-7.2L19.3,162.5z"/>
				<path fill="#A09D9A" stroke="#4D4D4D" stroke-miterlimit="10" d="M31.9,175.9l3.8,8.7c0,0-19.8-10.1-20.6-22l3.9-0.2L31.9,175.9
					z"/>
				<path fill="#686868" stroke="#4D4D4D" stroke-miterlimit="10" d="M37.3,173.3c2.3,1.3,4,3.3,6.1,4.7c0,0,0.5,2.1-0.7,3.8
					c-1.3,1.7-4.4,4.6-6,3.4c-1.6-1.2-4.9-9.3-4.9-9.3L37.3,173.3z"/>
			</g>
		</g>
		<g>
			<path opacity="0.5" fill="#262626" enable-background="new    " d="M28.2,190.6c0.2,0.5,3.3,0.8,3.3,0.8V183l-5.3-1.7
				c0,0-0.7,0.2-1.2,1.9c-0.5,1.7,0,5.8,0,5.8L28.2,190.6z"/>
			<path fill="#808080" stroke="#4D4D4D" stroke-width="2" stroke-miterlimit="10" d="M26.1,183.5c0,0-2,5.1-1.2,5.5
				c2.4,0.8,6.1,1.5,4.8,1.2v-5.8L26.1,183.5z"/>
		</g>
	</g>
	<g>
		<path fill="#60492F" d="M38.3,44.5c0,0,0,0.4,0.1,1.1c0.1,0.4,0.1,0.7,0.1,1.3c0,0.5,0.1,1.1,0.1,1.8c0,1.3,0,3-0.1,4.9
			c0,1-0.1,1.9-0.1,2.9s0,2.1,0,3.3c0,2.3,0,4.7-0.1,7.4c0,2.5-0.2,5.3-0.5,8.2c-0.1,1.5-0.2,2.9-0.4,4.4c-0.1,1.5-0.2,2.9-0.5,4.4
			c-0.1,0.7-0.1,1.5-0.2,2.2l-0.2,2.2c-0.1,1.5-0.2,2.9-0.4,4.5c-0.1,3-0.5,5.9-0.5,8.9c-0.1,2.9-0.2,5.9-0.4,8.7
			c-0.1,2.8-0.2,5.6-0.4,8.1c-0.1,2.5-0.1,5-0.1,7.3c0.1,2.2,0.2,4.2,0.4,6.1c0.1,0.8,0.2,1.7,0.4,2.5c0.1,0.7,0.2,1.5,0.4,2.2
			c0.4,1.2,0.5,2.3,0.6,2.9c0.2,0.7,0.4,1.1,0.4,1.1s-0.2-0.4-0.5-1c-0.4-0.6-0.7-1.6-1.3-2.8c-0.2-0.6-0.5-1.3-0.7-2.1
			c-0.2-0.7-0.5-1.6-0.7-2.5c-0.5-1.8-0.9-3.9-1.2-6.2c-0.4-2.3-0.5-4.7-0.6-7.4s-0.2-5.5-0.2-8.2c0-2.8-0.1-5.7-0.1-8.7
			s0.2-6.1,0.4-9.2c0.4-3,0.5-6.2,1-9.1c0.2-1.5,0.5-2.9,0.6-4.4s0.4-2.8,0.5-4.2c0.4-2.8,0.9-5.5,1-8c0.2-2.5,0.5-5.1,0.7-7.3
			c0.1-0.6,0.1-1.1,0.2-1.7c0.1-0.6,0.1-1.1,0.2-1.6c0.2-1.1,0.4-2.1,0.5-2.9c0.4-1.8,0.7-3.4,0.9-4.6c0.2-1.3,0.5-2.3,0.5-3
			C38.3,44.9,38.3,44.5,38.3,44.5z"/>
	</g>
	<g>
		<path fill="#60492F" d="M78.1,9.1c0,0,0,0.6,0.1,1.8c0.1,1.2,0.1,2.9,0.4,5c0.1,2.2,0.5,4.7,0.7,7.8c0.4,3,0.7,6.3,1.1,10.1
			s0.6,7.8,0.5,12.1c0,1.1,0,2.2-0.1,3.3c-0.1,1.1-0.1,2.2-0.2,3.3s-0.1,2.2-0.2,3.4c-0.1,1.1-0.4,2.3-0.5,3.5c-0.2,2.3-0.6,4.7-1,7
			c-0.4,2.4-0.7,4.7-1.2,7.2c-0.9,4.7-1.6,9.6-2.2,14.4c-0.4,2.4-0.5,4.9-0.7,7.2c-0.1,2.4-0.2,4.7-0.2,7.2c0,1.2,0.1,2.4,0.1,3.5
			c0.1,1.1,0.1,2.3,0.2,3.4c0.2,2.3,0.5,4.6,0.7,6.9c1.2,9.1,2.6,17.7,2.8,25.1c0.4,3.8,0.2,7.2,0.2,10.2c-0.1,1.6-0.2,2.9-0.4,4.2
			c-0.2,1.3-0.5,2.5-0.5,3.5c-0.4,1.1-0.5,1.9-0.7,2.8c-0.1,0.4-0.2,0.7-0.4,1.1c-0.1,0.4-0.2,0.6-0.4,0.8c-0.5,1.1-0.6,1.6-0.6,1.6
			s0.1-0.6,0.5-1.7c0.1-0.2,0.1-0.6,0.2-1c0.1-0.4,0.2-0.7,0.2-1.1c0.1-0.8,0.2-1.8,0.5-2.8c0.1-1.1,0.1-2.2,0.2-3.5
			c0-1.3,0-2.7-0.1-4.1c-0.2-2.9-0.5-6.3-1-9.9c-0.5-3.6-1.2-7.5-1.8-11.6c-0.7-4.1-1.6-8.5-2.3-13.1c-0.4-2.3-0.6-4.6-1-7
			c-0.1-1.2-0.2-2.4-0.4-3.8c-0.1-1.2-0.1-2.4-0.2-3.8c0.1-2.5,0.1-5,0.2-7.5c0.2-2.5,0.5-5,0.6-7.5c0.6-5,1.6-9.8,2.4-14.6
			c0.5-2.4,0.9-4.7,1.3-7c0.5-2.3,0.9-4.6,1.2-6.8c0.2-1.1,0.4-2.2,0.5-3.3c0.2-1.1,0.2-2.2,0.5-3.3c0.1-1.1,0.2-2.2,0.4-3.3
			c0.1-1,0.1-2.1,0.2-3.2c0.2-4.1,0.2-8.1,0.2-11.8c-0.1-3.6-0.1-7-0.2-10.1c0-3,0-5.7,0-7.9s0.2-3.9,0.2-5
			C78.1,9.7,78.1,9.1,78.1,9.1z"/>
	</g>
	<g opacity="0.5">
		<path fill="#60492F" d="M109.1,9.6c0,0-0.1,0.7-0.2,2.1s-0.2,3.4-0.2,5.9s0.2,5.6,0.6,9.1c0.5,3.5,1.1,7.4,1.8,11.6
			c0.9,4.2,1.8,8.9,2.8,13.8c0.5,2.5,0.9,5.1,1.3,7.8c0.2,1.3,0.4,2.8,0.5,4.1c0.1,0.7,0.1,1.3,0.2,2.1c0.1,0.6,0.1,1.5,0.2,1.9
			c0.4,2.4,0.7,5.1,1.3,7.8c0.5,2.7,1.2,5.3,2,8.1c1.5,5.5,2.9,11.2,4.4,17c1.3,5.8,2.6,11.9,2.7,18.2c0.1,1.6,0,3.2,0,4.7
			c0,0.8-0.1,1.6-0.2,2.4l-0.1,1.2l-0.1,0.6l-0.1,0.5v0.2c-0.1,0.4-0.1,0.6-0.2,1.1l-0.4,1.3c-0.2,0.8-0.5,1.6-0.7,2.3
			c-0.5,1.5-1.1,2.9-1.7,4.2c-2.7,5.3-5.6,9.6-8.1,13.6c-2.6,4-4.4,7.9-5.1,11.5c-0.2,0.8-0.4,1.8-0.4,2.7c0,0.5,0,0.8,0,1.3
			s0.1,1,0.1,1.5c0.1,1.9,0.4,3.9,0.5,5.6c0.1,1.8,0.4,3.5,0.5,5.1c0.1,1.6,0.1,3,0.1,4.4c0,2.7-0.1,4.7-0.4,6.1
			c-0.1,1.3-0.2,2.1-0.2,2.1s-0.1-0.7-0.4-2.1c-0.1-0.7-0.2-1.6-0.5-2.5c-0.2-1-0.4-2.1-0.6-3.3c-0.5-2.4-1.3-5.3-2.3-8.9
			c-0.5-1.7-1-3.6-1.5-5.6c-0.1-0.5-0.2-1-0.4-1.6c-0.1-0.6-0.2-1.2-0.2-1.8c-0.1-1.2-0.1-2.5,0-3.8c0.2-2.5,0.7-5.1,1.6-7.5
			c0.9-2.4,1.8-4.9,3.1-7c2.3-4.6,4.9-9,6.8-13.6c0.5-1.1,0.9-2.3,1.2-3.4c0.2-0.6,0.4-1.1,0.5-1.7l0.1-0.7c0-0.2,0.1-0.7,0.1-1
			v-0.2v-0.1c0-0.1,0,0.1,0,0.1v-0.1v-0.4l0.1-1c0-0.6,0.1-1.2,0.1-1.9c0-1.3,0-2.5-0.1-3.9c-0.4-5.2-1.3-10.8-2.7-16.3
			c-1.2-5.6-2.7-11.2-4-16.9c-0.6-2.9-1.2-5.7-1.7-8.6c-0.5-2.9-0.9-5.8-1.1-8.9c-0.1-0.7-0.1-1.5-0.1-2.1c0-0.7,0-1.3-0.1-2.1
			c-0.1-1.3-0.1-2.5-0.2-3.9c-0.1-2.5-0.5-5.1-0.6-7.6c-0.5-5-1-9.8-1.3-14.2c-0.1-2.2-0.4-4.4-0.4-6.4c0-2.1,0-4,0-5.8
			c0.1-3.6,0.5-6.9,1-9.5s1.1-4.5,1.6-5.8c0.2-0.6,0.5-1.1,0.5-1.5C109.1,9.8,109.1,9.6,109.1,9.6z"/>
	</g>
</g>
</svg>
