<?xml version="1.0" encoding="utf-8"?>
<!-- Generator: Adobe Illustrator 18.0.0, SVG Export Plug-In . SVG Version: 6.00 Build 0)  -->
<!DOCTYPE svg PUBLIC "-//W3C//DTD SVG 1.1//EN" "http://www.w3.org/Graphics/SVG/1.1/DTD/svg11.dtd">
<svg version="1.1" id="Layer_1" xmlns="http://www.w3.org/2000/svg" xmlns:xlink="http://www.w3.org/1999/xlink" x="0px" y="0px"
	 viewBox="0 0 200 200" enable-background="new 0 0 200 200" xml:space="preserve">
<g>
	
		<linearGradient id="SVGID_1_" gradientUnits="userSpaceOnUse" x1="7.2497" y1="188.7449" x2="148.3873" y2="188.7449" gradientTransform="matrix(-1.424892e-03 1.2012 -1.2012 -1.424892e-03 245.1201 7.3613)">
		<stop  offset="0" style="stop-color:#41342A"/>
		<stop  offset="5.706204e-02" style="stop-color:#5A4230"/>
		<stop  offset="0.942" style="stop-color:#5E4430"/>
		<stop  offset="0.9432" style="stop-color:#5B4230"/>
		<stop  offset="0.9528" style="stop-color:#544132"/>
		<stop  offset="0.9581" style="stop-color:#4B3B2E"/>
		<stop  offset="1" style="stop-color:#41342A"/>
	</linearGradient>
	<path fill="url(#SVGID_1_)" d="M0.2,16.7L0,183.8c0.1,0,16.9,4.2,27.5-1.6c13.7-7.5,0.4-14.6,0.4-30.3s-3.7-15.8-3.7-31.5
		s6.5-15.8,6.5-31.5s1-15.8,1-31.5S42.5,34.6,32,23C22.3,12.3,0.2,16.7,0.2,16.7z"/>
	<path fill="#3D2F26" stroke="#3D2F26" stroke-width="4" stroke-miterlimit="10" d="M0.1,16.6c14.2,0,22.2-4.4,31.8,6.3
		c10.5,11.6-0.4,18.6-0.4,34.3s-1,15.8-1,31.5s-6.5,15.8-6.5,31.5s3.7,15.8,3.7,31.5s13.8,23.9-0.4,30.3
		c-10.6,4.7-13.3,1.8-27.5,1.7"/>
	
		<linearGradient id="SVGID_2_" gradientUnits="userSpaceOnUse" x1="77.6301" y1="49.8415" x2="77.6301" y2="190.607" gradientTransform="matrix(-1.424892e-03 1.2012 -1.2012 -1.424892e-03 245.1201 7.3613)">
		<stop  offset="0" style="stop-color:#41342A"/>
		<stop  offset="4.732297e-02" style="stop-color:#544132"/>
		<stop  offset="7.357912e-02" style="stop-color:#5E4430"/>
		<stop  offset="0.9287" style="stop-color:#5A4230"/>
		<stop  offset="1" style="stop-color:#4B3B2E"/>
		<stop  offset="1" style="stop-color:#41342A"/>
	</linearGradient>
	<path fill="url(#SVGID_2_)" d="M184.3,200.8c0-7.9-0.2-9.1-0.2-18.9c0-11.2,1.8-11.2,1.8-22.4c0-11.2-1.7-11.2-1.7-22.4
		c0-11.2,2.5-11.2,2.5-22.4c0-11.2-2.3-11.2-2.3-22.4c0-11.2,0.4-11.2,0.4-22.4c0-11.2-2-11.2-2-22.4s1.3-11.2,1.3-22.4
		c0-11.2-1.9-24.1-1.8-24.9L14.3,0.1C14.5,1,14.7,2,14.9,3c2.2,11,3.1,10.8,3.1,22s-1,11.2-1,22.4s1.7,11.2,1.7,22.4
		c0,11.2-2,11.2-2,22.4c0,11.2,2,11.2,2,22.4c0,11.2-2.9,11.2-2.9,22.4c0,11.2-0.7,11.2-0.7,22.4c0,11.2,1.8,11.2,1.8,22.4
		c0,9.9-1.1,11-1.3,18.9L184.3,200.8z"/>
	<g>
		
			<linearGradient id="SVGID_3_" gradientUnits="userSpaceOnUse" x1="7.6332" y1="187.9436" x2="148.8085" y2="187.9436" gradientTransform="matrix(-1.424892e-03 1.2012 -1.2012 -1.424892e-03 245.1201 7.3613)">
			<stop  offset="0" style="stop-color:#41342A"/>
			<stop  offset="8.556727e-02" style="stop-color:#5E4430"/>
			<stop  offset="0.9353" style="stop-color:#5A4230"/>
			<stop  offset="0.9476" style="stop-color:#544132"/>
			<stop  offset="1" style="stop-color:#4B3B2E"/>
			<stop  offset="1" style="stop-color:#41342A"/>
		</linearGradient>
		<path fill="url(#SVGID_3_)" d="M27.5,16.8c-7.9,3-19.5,7.1-30.5,9c0.1,9.7,0.6,19.4,0.5,29.1C-2.6,63.8-2,72.6-3.7,81.3
			c0.5,3.9,1,7.4,1.1,9.5c0.4,4.4-0.3,15.5-1.5,25.4c0.2,4.7,0.4,9.4,0.8,14c1,12.2,1,24.4,0.8,36.6c1.6,6.6,3.2,11.4,4.1,11.1
			c2.4-0.8,12.9,6.2,17.8,7.6c4.9,1.5,17.3-2.4,17.3-6.4s-4.5-22.9-1.4-29.8s3.1-26.6,1.1-32.4c-2-5.8,4.1-72.1,5.9-81.3
			C44.2,26.4,36.2,13.5,27.5,16.8z"/>
		<path opacity="0.3" fill="#281D14" enable-background="new    " d="M0.1,19c-0.1,0,0.1,7.4,0,7.4v20.5c5.6-0.1,11.4,2.3,17.1,2.2
			c0-0.6,0-1.2,0-1.8c0-11.2,1-11.2,1-22.4c0-1.1,0-2.1,0-2.9c-0.1-2.3-1.2-3.3-2.8-3.8C10.3,18.4,4.3,19,0.1,19z"/>
		<path opacity="0.3" fill="#281D14" enable-background="new    " d="M15.4,154.4c-0.3,0.3-0.7,0.6-1.1,0.9c-3.2,2.3-7,2.8-10.8,3.3
			c-1.3,0.2-2.2-0.6-2.6-1.6c-0.1,0-0.3,0.1-0.4,0.1c-0.2,0.1-0.3,0.1-0.5,0.1v24.4c0.1,0,16.5,1,17.2,1.3v-1.2
			c0-11.2-1.8-11.2-1.8-22.4C15.4,157.3,15.4,155.8,15.4,154.4z"/>
		<path opacity="0.3" fill="#261915" enable-background="new    " d="M0.1,19c-0.1,0,0.1,7.4,0,7.4v11.3l2.6,2.5l2.9,5.6l4.1,0.8
			l3.5-3.9l3.7-1.5l0.2-0.1c0.2-5.6,0.8-7.5,0.8-16.3c0-1.1,0-2.1,0-2.9c0.1-3.3-0.8-3.6-2.8-3.8C11.1,18,4.1,19,0.1,19z"/>
		<g opacity="0.3">
			<path fill="#261915" d="M0,158.6v22.9c0.1,0,9.7-0.4,14.8,1c1,0.2,1.7,0,2.3,0.4c0-0.4,0-0.7,0-1.2c0-8.5-1.1-10.6-1.6-15.9
				l-2.8-1.3l-3.5-3.6l-4.6,3.2L0,158.6z"/>
		</g>
	</g>
	<g>
		<path opacity="0.3" fill="#281D14" enable-background="new    " d="M52.6,170.9c-1.2-9.9-5.2-7.4-12-14.4
			c-4.4-4.5-9.6-8.3-15.3-10.8c-2.4,2.9-5.8,4.3-8.9,6.2c-0.2,0.5-0.4,1-0.8,1.3c-0.1,1.7-0.1,3.7-0.1,6.3c0,11.2,1.8,11.2,1.8,22.4
			c0,9.9-1.1,11-1.3,18.9l41-0.1c0.1-4.5,2.4-9,2.8-10.3C60.7,185.4,53.3,175.8,52.6,170.9z"/>
		<path opacity="0.3" fill="#261915" enable-background="new    " d="M33.9,200.6c0.4-2.1,1-5.6,1.1-5.7c0.1-0.2,2.8-3.3,2.8-3.3
			l-2.5-2.5l-1.1-3.8l1.1-1.9c0,0-0.7-7.8-0.8-8.2c-0.1-0.5-1.6-3.9-1.9-4c-0.2-0.1-4.1-4.2-4.1-4.7s-2.8-2.2-2.8-2.2H22l-1.9-2.2
			l-3.2,4.4l-1.3-0.6c0.5,5.3,1.6,7.4,1.6,15.9c0,9.9-1.1,11-1.3,18.9H33.9L33.9,200.6z"/>
		<path opacity="0.3" fill="#281D14" enable-background="new    " d="M184.3,200.8c0-7.9-0.2-9.1-0.2-18.9c0-11.2,1.8-11.2,1.8-22.4
			c0-11.2-1.7-11.2-1.7-22.4c0-11.2,2.5-11.2,2.5-22.4c0-11.2-2.3-11.2-2.3-22.4c0-11.2,0.4-11.2,0.4-22.4c0-11.2-2-11.2-2-22.4
			s1.3-11.2,1.3-22.4c0-11.2-1.9-24.1-1.8-24.9h-29.8c2.2,11.6,10.7,23.2,10.7,35.2C163,57.7,151,76.4,151,97.6
			c0,18.7,4.8,37.7,4.6,57.7c-0.2,15.4-2.9,30.3-3.4,45.1L184.3,200.8z"/>
		<path opacity="0.3" fill="#261915" enable-background="new    " d="M184.3,200.8c0-7.9-0.2-9.1-0.2-18.9c0-11.2,1.8-11.2,1.8-22.4
			c0-11.2-1.7-11.2-1.7-22.4c0-11.2,2.5-11.2,2.5-22.4c0-11.2-2.3-11.2-2.3-22.4c0-11.2,0.4-11.2,0.4-22.4c0-11.2-2-11.2-2-22.4
			s1.3-11.2,1.3-22.4c0-11.2-1.8-24.1-1.7-24.9h-20.7l8.2,4.6l-2,3.9l2.5,4l-6.2,3.8l0.6,4l0.6,4l4.4,4l-2.6,3.9l1.8,3.9l-0.6,3.9
			l1.1,3.9l0.1,3.9l-4.3,3.9l2.9,4.2l0.4,3.9l-2,3.9l3.8,3.8l-2.9,3.9l-1.6,3.9l-1.4,3.9l5.9,3.6l-1.6,3.9l-1.7,4l4.3,3.6l-3.2,4.1
			l4,3.8l-3.2,4l0.6,4l-3.5,3.8l5.3,4.4l-4,3.6l2,4.2l-3.7,3.4l-0.5,3.9l2.5,4.4l-4.1,3.3l2.3,4.4l-1.3,3.8l0.4,4l-0.2,3.9l-3.4,3.4
			l2.3,4.2l-3,3.5l-2,4.1l2.6,4.2l-3.4,3.8l4.3,4.1l-4.7,4l4.6,3.6l-1.6,4.1l2.6,3.5l-1.1,1.3L184.3,200.8L184.3,200.8z"/>
		<path opacity="0.3" fill="#281D14" enable-background="new    " d="M42.1,0.1L14.3,0.1C14.5,1,14.7,2,14.9,3
			c2.2,11,3.1,10.8,3.1,22c0,11.2-1,11.2-1,22.4c0,1,0,0.8,0,1.7c3.8,0.6,8.6,1.2,11.3,0.5c7.1-1.9,8.4-3,13.6-8.5
			c4.5-4.8,10.3-11,12.5-17.2C50.6,20,48,15,47.2,9.5C44.9,6.8,43.1,3.6,42.1,0.1z"/>
		<path opacity="0.3" fill="#261915" enable-background="new    " d="M28.1,41.2l2.2-3.9l0.6-2.5c0,0,1.6-7.6,1.8-7.6
			s1.9-3.8,1.9-3.8l1-6.7L34,10.9v-5l1.1-3.5l6.7-2.3l-27.5,0C14.5,1,14.7,2,14.9,3c2.2,11,3.1,10.8,3.1,22c0,8.6-0.6,10.7-0.8,16.3
			l4.1,2.9h4.6L28.1,41.2z"/>
		<path fill="none" stroke="#3D2F26" stroke-width="4" stroke-miterlimit="10" d="M16.1,200.6c0-2.3,0.7-8,1-15.4"/>
		<ellipse fill="#3D2F26" cx="16.9" cy="185.4" rx="2.6" ry="2.7"/>
		<path fill="none" stroke="#3D2F26" stroke-width="4" stroke-miterlimit="10" d="M182,0.1c0,11.4,2,13.8,2,25.1
			c0,11.2-1.3,11.2-1.3,22.4c0,11.2,2,11.2,2,22.4c0,11.2-0.4,11.2-0.4,22.4c0,11.2,2.3,11.2,2.3,22.4c0,11.2-2.5,11.2-2.5,22.4
			c0,11.2,1.7,11.2,1.7,22.4c0,11.2-1.8,11.2-1.8,22.4c0,11.2-2.3,17.2-2.3,19"/>
		<path fill="none" stroke="#3D2F26" stroke-width="4" stroke-miterlimit="10" d="M16.8,15.9c-0.4-6.1-0.4-7.8-0.4-16"/>
		<ellipse fill="#3D2F26" cx="16.6" cy="15.7" rx="2.5" ry="2.5"/>
	</g>
	<path fill="#261915" d="M20.4,172.3"/>
	<g>
		<g>
			<path opacity="0.5" fill="#262626" enable-background="new    " d="M37.4,197.5c2,0.7,6.7-0.2,6.7-0.2s3.6,0,3.7-1.7
				c0.1-1.7,0-5.7-0.6-6.6c-0.5-0.8-2.9-5.1-7.6-2.4c-1.7,1.1-2.4,3-3,4.2C36,192,34.8,196.6,37.4,197.5z"/>
			<g>
				<path fill="#808080" stroke="#4D4D4D" stroke-width="2" stroke-miterlimit="10" d="M44.3,195c3-0.1-0.2-2.8,1.1-2.9
					c1.3-0.1-0.1-4.2-2.5-4.1c-2.4,0.1-4.3,2.2-4.8,2.1c-0.6-0.2-3.5,5.3-1.4,6.4c1.9,1.1,5.5-0.5,5.5-0.5L44.3,195z"/>
				<path fill="#A5A5A5" d="M40.1,192.3c-1.3,0.8-2.8,2.3-2.2,2.5c0.6,0.2,3.4-0.7,3.4-0.7l1.7-1.1l-1.9-1.8L40.1,192.3z"/>
			</g>
		</g>
		<g>
			<path opacity="0.5" fill="#262626" enable-background="new    " d="M52.3,175.8c-5.2,10.3-8.3,7-13.1,3.8
				c-1.1-0.6-2.5-1.3-4.1-2.3c-7.6-3.9-13.2-10.2-16.9-18.9l-0.1-0.6l0.4-0.5c12.4-15.9,14.1-15.2,26.2,0.6l7.9,17.3L52.3,175.8z"/>
			<g>
				<path fill="#808080" stroke="#4D4D4D" stroke-width="2" stroke-miterlimit="10" d="M17.1,162.4c3.4,15,16.6,16.5,21.6,21.3
					s9.6-4.4,9.6-4.4L41,163c0,0-11.9-15.4-14.4-12.5C24,153.5,17.1,162.4,17.1,162.4z"/>
				<path fill="#A5A5A5" stroke="#4D4D4D" stroke-miterlimit="10" d="M21.4,162.2l13.8,13.3c0,0,3.8-1.6,5.6-2.1
					c1.7-0.4-2.6-9.7-2.6-9.7l-10.9-7.2L21.4,162.2z"/>
				<path fill="#A09D9A" stroke="#4D4D4D" stroke-miterlimit="10" d="M35.2,175.6l4.2,8.7c0,0-21.6-10.1-22.5-22l4.3-0.2L35.2,175.6
					z"/>
				<path fill="#686868" stroke="#4D4D4D" stroke-miterlimit="10" d="M41.1,173c2.5,1.3,4.4,3.3,6.7,4.7c0,0,0.6,2.1-0.8,3.8
					c-1.4,1.7-4.8,4.6-6.5,3.4c-1.8-1.2-5.3-9.3-5.3-9.3L41.1,173z"/>
			</g>
		</g>
		<g>
			<path opacity="0.5" fill="#262626" enable-background="new    " d="M31.2,190.3c0.2,0.5,3.6,0.8,3.6,0.8v-8.4l-5.8-1.7
				c0,0-0.8,0.2-1.3,1.9c-0.5,1.7,0,5.8,0,5.8L31.2,190.3z"/>
			<path fill="#808080" stroke="#4D4D4D" stroke-width="2" stroke-miterlimit="10" d="M28.9,183.2c0,0-2.2,5.1-1.3,5.5
				c0.8,0.4,5.2,1.2,5.2,1.2v-5.8L28.9,183.2z"/>
		</g>
	</g>
	<g>
		<path fill="#60492F" d="M42.2,44.2c0,0,0,0.4,0.1,1.1c0.1,0.4,0.1,0.7,0.1,1.3c0,0.5,0.1,1.1,0.1,1.8c0,1.3,0,3-0.1,4.9
			c0,1-0.1,1.9-0.1,2.9s0,2.1,0,3.3c0,2.3,0,4.7-0.1,7.4c0,2.5-0.2,5.3-0.5,8.2c-0.1,1.5-0.2,2.9-0.4,4.4c-0.1,1.5-0.2,2.9-0.5,4.4
			c-0.1,0.7-0.1,1.5-0.2,2.2l-0.2,2.2c-0.1,1.5-0.2,2.9-0.4,4.5c-0.1,3-0.5,5.9-0.5,8.9c-0.1,2.9-0.2,5.9-0.4,8.7
			c-0.1,2.8-0.2,5.6-0.4,8.1c-0.1,2.5-0.1,5-0.1,7.3c0.1,2.2,0.2,4.2,0.4,6.1c0.1,0.8,0.2,1.7,0.4,2.5c0.1,0.7,0.2,1.5,0.4,2.2
			c0.4,1.2,0.5,2.3,0.7,2.9c0.2,0.7,0.4,1.1,0.4,1.1s-0.2-0.4-0.6-1c-0.4-0.6-0.8-1.6-1.4-2.8c-0.2-0.6-0.5-1.3-0.8-2.1
			c-0.2-0.7-0.5-1.6-0.8-2.5c-0.5-1.8-1-3.9-1.3-6.2c-0.4-2.3-0.6-4.7-0.7-7.4s-0.2-5.5-0.2-8.2c0-2.8-0.1-5.7-0.1-8.7
			s0.2-6.1,0.4-9.2c0.4-3,0.6-6.2,1.1-9.1c0.2-1.5,0.5-2.9,0.7-4.4s0.4-2.8,0.6-4.2c0.4-2.8,1-5.5,1.1-8c0.2-2.5,0.6-5.1,0.8-7.3
			c0.1-0.6,0.1-1.1,0.2-1.7c0.1-0.6,0.1-1.1,0.2-1.6c0.2-1.1,0.4-2.1,0.6-2.9c0.4-1.8,0.8-3.4,1-4.6c0.2-1.3,0.5-2.3,0.5-3
			C42.2,44.6,42.2,44.2,42.2,44.2z"/>
	</g>
	<g>
		<path fill="#60492F" d="M85.6,8.8c0,0,0,0.6,0.1,1.8c0.1,1.2,0.1,2.9,0.4,5c0.1,2.2,0.5,4.7,0.8,7.8c0.4,3,0.8,6.3,1.2,10.1
			s0.7,7.8,0.6,12.1c0,1.1,0,2.2-0.1,3.3s-0.1,2.2-0.2,3.3c-0.1,1.1-0.1,2.2-0.2,3.4c-0.1,1.1-0.4,2.3-0.5,3.5
			c-0.2,2.3-0.7,4.7-1.1,7c-0.4,2.4-0.8,4.7-1.3,7.2c-1,4.7-1.8,9.6-2.4,14.4c-0.4,2.4-0.6,4.9-0.8,7.2c-0.1,2.4-0.2,4.7-0.2,7.2
			c0,1.2,0.1,2.4,0.1,3.5c0.1,1.1,0.1,2.3,0.2,3.4c0.2,2.3,0.5,4.6,0.8,6.9c1.3,9.1,2.8,17.7,3.1,25.1c0.4,3.8,0.2,7.2,0.2,10.2
			c-0.1,1.6-0.2,2.9-0.4,4.2c-0.2,1.3-0.5,2.5-0.6,3.5c-0.4,1.1-0.6,1.9-0.8,2.8c-0.1,0.4-0.2,0.7-0.4,1.1c-0.1,0.4-0.2,0.6-0.4,0.8
			c-0.5,1.1-0.7,1.6-0.7,1.6s0.1-0.6,0.5-1.7c0.1-0.2,0.1-0.6,0.2-1s0.2-0.7,0.2-1.1c0.1-0.8,0.2-1.8,0.5-2.8
			c0.1-1.1,0.1-2.2,0.2-3.5c0-1.3,0-2.7-0.1-4.1c-0.2-2.9-0.5-6.3-1.1-9.9c-0.5-3.6-1.3-7.5-2-11.6c-0.8-4.1-1.8-8.5-2.5-13.1
			c-0.4-2.3-0.7-4.6-1.1-7c-0.1-1.2-0.2-2.4-0.4-3.8c-0.1-1.2-0.1-2.4-0.2-3.8c0.1-2.5,0.1-5,0.2-7.5c0.2-2.5,0.5-5,0.7-7.5
			c0.7-5,1.7-9.8,2.6-14.6c0.5-2.4,1-4.7,1.4-7c0.5-2.3,1-4.6,1.3-6.8c0.2-1.1,0.4-2.2,0.6-3.3c0.2-1.1,0.2-2.2,0.5-3.3
			c0.1-1.1,0.2-2.2,0.4-3.3c0.1-1,0.1-2.1,0.2-3.2c0.2-4.1,0.2-8.1,0.2-11.8c-0.1-3.6-0.1-7-0.2-10.1c0-3,0-5.7,0-7.9s0.2-3.9,0.2-5
			C85.6,9.4,85.6,8.8,85.6,8.8z"/>
	</g>
	<g opacity="0.5">
		<path fill="#60492F" d="M119.5,9.3c0,0-0.1,0.7-0.2,2.1s-0.2,3.4-0.2,5.9s0.2,5.6,0.7,9.1c0.5,3.5,1.2,7.4,2,11.6
			c1,4.2,2,8.9,3.1,13.8c0.5,2.5,1,5.1,1.4,7.8c0.2,1.3,0.4,2.8,0.6,4.1c0.1,0.7,0.1,1.3,0.2,2.1c0.1,0.6,0.1,1.5,0.2,1.9
			c0.4,2.4,0.8,5.1,1.4,7.8c0.6,2.7,1.3,5.3,2.2,8.1c1.6,5.5,3.2,11.2,4.8,17c1.4,5.8,2.8,11.9,2.9,18.2c0.1,1.6,0,3.2,0,4.7
			c0,0.8-0.1,1.6-0.2,2.4l-0.1,1.2l-0.1,0.6l-0.1,0.5v0.2c-0.1,0.4-0.1,0.6-0.2,1.1l-0.4,1.3c-0.2,0.8-0.5,1.6-0.8,2.3
			c-0.6,1.5-1.2,2.9-1.9,4.2c-2.9,5.3-6.1,9.6-8.8,13.6c-2.8,4-4.8,7.9-5.6,11.5c-0.2,0.8-0.4,1.8-0.4,2.7c0,0.5,0,0.8,0,1.3
			c0,0.5,0.1,1,0.1,1.5c0.1,1.9,0.4,3.9,0.5,5.6c0.1,1.8,0.4,3.5,0.5,5.1s0.1,3,0.1,4.4c0,2.7-0.1,4.7-0.4,6.1
			c-0.1,1.3-0.2,2.1-0.2,2.1s-0.1-0.7-0.4-2.1c-0.1-0.7-0.2-1.6-0.5-2.5c-0.2-1-0.4-2.1-0.7-3.3c-0.6-2.4-1.4-5.3-2.5-8.9
			c-0.5-1.7-1.1-3.6-1.6-5.6c-0.1-0.5-0.2-1-0.4-1.6c-0.1-0.6-0.2-1.2-0.2-1.8c-0.1-1.2-0.1-2.5,0-3.8c0.2-2.5,0.8-5.1,1.8-7.5
			s2-4.9,3.4-7c2.5-4.6,5.4-9,7.4-13.6c0.5-1.1,1-2.3,1.3-3.4c0.2-0.6,0.4-1.1,0.5-1.7l0.1-0.7c0-0.2,0.1-0.7,0.1-1v-0.2v-0.1
			c0-0.1,0,0.1,0,0.1v-0.1V126l0.1-1c0-0.6,0.1-1.2,0.1-1.9c0-1.3,0-2.5-0.1-3.9c-0.4-5.2-1.4-10.8-2.9-16.3
			c-1.3-5.6-3-11.2-4.4-16.9c-0.7-2.9-1.3-5.7-1.9-8.6c-0.5-2.9-1-5.8-1.2-8.9c-0.1-0.7-0.1-1.5-0.1-2.1c0-0.7,0-1.3-0.1-2.1
			c-0.1-1.3-0.1-2.5-0.2-3.9c-0.1-2.5-0.5-5.1-0.7-7.6c-0.6-5-1.1-9.8-1.4-14.2c-0.1-2.2-0.4-4.4-0.4-6.4c0-2.1,0-4,0-5.8
			c0.1-3.6,0.6-6.9,1.1-9.5s1.2-4.5,1.7-5.8c0.2-0.6,0.5-1.1,0.6-1.5C119.5,9.5,119.5,9.3,119.5,9.3z"/>
	</g>
</g>
</svg>
