<?xml version="1.0" encoding="UTF-8" standalone="no"?>
<!-- Generator: Adobe Illustrator 18.0.0, SVG Export Plug-In . SVG Version: 6.00 Build 0)  -->
<!DOCTYPE svg  PUBLIC '-//W3C//DTD SVG 1.1//EN'  'http://www.w3.org/Graphics/SVG/1.1/DTD/svg11.dtd'>
<svg id="Layer_1" xmlns="http://www.w3.org/2000/svg" xml:space="preserve" version="1.1" xmlns:xlink="http://www.w3.org/1999/xlink" viewBox="0 0 200 200" enable-background="new 0 0 200 200">
		<linearGradient id="SVGID_1_" y2="9.5183" gradientUnits="userSpaceOnUse" x2="148.42" gradientTransform="matrix(-.0014249 1.2012 1.2012 .0014249 4.8801 7.0763)" y1="9.5183" x1="15.425">
		<stop stop-color="#41342A" offset="0"/>
		<stop stop-color="#5A4230" offset=".057062"/>
		<stop stop-color="#5E4430" offset=".942"/>
		<stop stop-color="#5B4230" offset=".9432"/>
		<stop stop-color="#544132" offset=".9528"/>
		<stop stop-color="#4B3B2E" offset=".9581"/>
		<stop stop-color="#41342A" offset="1"/>
	</linearGradient>
	<path d="m20.8 121.4c0-15.5 6-15.6 6-31.1s0.9-15.6 0.9-31.1 12-16 2.4-27.5c-8.9-10.5-31.4-4.5-31.4-4.5l-0.1 138.4c3 1 6.1 2.1 9 3.5 1.1 0.5 1.5 1.4 1.5 2.2 2 0.9 3.9 2.7 5.4 4.5 0.6 0.3 1.1 0.8 1.4 1.3l0.9 0.6c0.3 0.1 0.6 0.2 1 0.3 1.1 0.1 1.9 0.9 2.2 1.7 0.5 0.1 0.9 0.4 1.3 0.7 0.7 0.6 1.2 1.4 1.4 2.2 0.3-0.2 0.7-0.3 1-0.5 12.5-7.4 0.4-14.4 0.4-29.9s-3.3-15.3-3.3-30.8z" fill="url(#SVGID_1_)"/>
	<path stroke="#3D2F26" stroke-width="4" stroke-miterlimit="10" d="m21.6 124.1c0-14.3 6-14.4 6-28.8 0-14.3 0.9-14.4 0.9-28.8s10-20.7 0.4-31.3c-8.8-9.8-16.1-5.8-29.1-5.8l-0.3 136.6c2.8 0.9 5.5 1.9 8.1 3.2 1.1 0.5 1.5 1.4 1.5 2.2 2 0.9 3.9 2.7 5.4 4.5 0.6 0.3 1.1 0.8 1.4 1.3l0.9 0.6c0.3 0.1 0.6 0.2 1 0.3 1.1 0.1 1.9 0.9 2.2 1.7 0.5 0.1 0.9 0.4 1.3 0.7 0.3 0.3 0.5 0.6 0.8 0.9 0.8-0.3 1.5-0.6 2.4-1 13-5.8 0.4-13.3 0.4-27.7s-3.3-14.3-3.3-28.6z" fill="#3D2F26"/>
		<linearGradient id="SVGID_2_" y2="16.417" gradientUnits="userSpaceOnUse" x2="78.594" gradientTransform="matrix(-.0014249 1.2012 1.2012 .0014249 4.8801 7.0763)" y1="140.14" x1="78.594">
		<stop stop-color="#41342A" offset="0"/>
		<stop stop-color="#544132" offset=".047323"/>
		<stop stop-color="#5E4430" offset=".073579"/>
		<stop stop-color="#5A4230" offset=".9287"/>
		<stop stop-color="#4B3B2E" offset="1"/>
		<stop stop-color="#41342A" offset="1"/>
	</linearGradient>
	<path d="m172.3 138.7c0-11.3 2.2-11.3 2.2-22.7 0-11.3-2-11.3-2-22.7s0.4-11.3 0.4-22.7c0-11.3-1.8-11.3-1.8-22.7s1.1-11.3 1.1-22.7-1.7-24.4-1.6-25.2h-140.9c-0.1 4.2 0.1 8.4-0.5 12.6-0.7 4.2-1.9 8.1-3.7 12 0 0.2-0.1 0.4-0.1 0.7-1.7 11.2-0.9 11.3-0.9 22.7s1.5 11.2 1.5 22.6-1.8 11.3-1.8 22.7c0 11.3 1.8 11.3 1.8 22.7 0 11.3-2.6 11.3-2.6 22.7s-0.6 11.3-0.6 22.7 1.6 11.3 1.6 22.7c0 3.5-0.1 5.9-0.3 7.8 0.3 0.1 0.5 0.3 0.7 0.6 0.8 0.1 1.7 0.4 2.3 1.3 2.1 3 3.6 6.4 5.6 9.5l139.7 0.1c0-8-0.2-9.2-0.2-19.1 0-11.3 1.6-11.3 1.6-22.7s-1.5-11.5-1.5-22.9z" fill="url(#SVGID_2_)"/>
			<linearGradient id="SVGID_3_" y2="10.394" gradientUnits="userSpaceOnUse" x2="140.69" gradientTransform="matrix(-.0014249 1.2012 1.2012 .0014249 4.8801 7.0763)" y1="10.394" x1="15.527">
			<stop stop-color="#41342A" offset="0"/>
			<stop stop-color="#5E4430" offset=".085567"/>
			<stop stop-color="#5A4230" offset=".9353"/>
			<stop stop-color="#544132" offset=".9476"/>
			<stop stop-color="#4B3B2E" offset="1"/>
			<stop stop-color="#41342A" offset="1"/>
		</linearGradient>
		<path d="m24.8 26.2c-7.2 2.7-17.9 6.3-27.9 8 0.1 8.6 0.6 17.2 0.5 25.8-0.1 7.9 0.5 15.7-1.1 23.4 0.5 3.5 0.9 6.6 1 8.4 0.4 3.9-0.3 13.7-1.4 22.5 0.2 4.2 0.4 8.3 0.7 12.4 0.9 10.8 0.9 21.6 0.7 32.5 0.7 2.7 1.3 5 1.9 6.7 2.8 1 5.6 2 8.3 3.3 1.1 0.5 1.5 1.4 1.5 2.2 1.2 0.5 2.3 1.3 3.3 2.3 1.9 0.9 3.7 1.7 5 2.1 4.5 1.3 15.8-2.1 15.8-5.7s-4.1-20.3-1.3-26.4c2.8-6.1 2.8-23.6 1-28.7s3.8-63.9 5.4-72.1c1.9-8.2-5.4-19.6-13.4-16.7z" fill="url(#SVGID_3_)"/>
		<path opacity=".3" enable-background="new    " d="m-2.8 29.8c-0.2 0 0.2 7.4 0 7.4v20.5c8.5-0.1 17.2 2.3 25.8 2.2v-1.8c-0.2-28 1.5-12.7 1.5-22.4v-2.9c-0.2-2.3-1.8-3.3-4.2-3.8-7.7 0.2-16.7 0.8-23.1 0.8z" fill="#281D14"/>
		<path opacity=".3" enable-background="new    " d="m9.1 171.4c2 0.9 3.9 2.7 5.4 4.5 0.2 0.1 0.5 0.3 0.6 0.4-0.4-6-1.5-7.9-1.5-16.8v-4.9c-0.3 0.3-0.6 0.6-1 0.9-2.9 2.3-6.4 2.8-9.9 3.3-1.2 0.2-2-0.6-2.4-1.6-0.1 0-0.3 0.1-0.4 0.1-0.2 0.1-0.3 0.1-0.5 0.1v8.6c2.7 0.9 5.4 1.9 8 3.2 1.3 0.5 1.7 1.4 1.7 2.2z" fill="#281D14"/>
		<path opacity=".3" enable-background="new    " d="m-1 28.2c-0.1-0.1 0.1 8.5 0 8.5v12.9l3.6 2.9 4 6.4 5.7 0.9 4.9-4.5 5.2-1.7 0.3-0.1c0.3-6.4 1.1-8.6 1.1-18.6v-3.3c0.1-3.8-1.1-4.1-3.9-4.3-4.5 4.8-14.4 5-20.9 0.9z" fill="#261915"/>
		<g opacity=".3">
			<path d="m9.1 171.4c2 0.9 3.9 2.7 5.4 4.5 0.2 0.1 0.4 0.2 0.5 0.3-0.3-4.1-0.9-6.3-1.3-10.2l-2.6-1.3-3.2-3.6-4.2 3.2-4.2-5.5v7.2c2.7 0.9 5.4 1.9 8 3.2 1.2 0.5 1.6 1.4 1.6 2.2z" fill="#261915"/>
		</g>
		<path opacity=".3" enable-background="new    " d="m47.8 171.2c-1.1-9.9-4.8-7.4-11-14.4-4-4.5-8.8-8.3-14-10.8-2.2 2.9-5.3 4.3-8.2 6.2-0.2 0.5-0.4 1-0.7 1.3-0.1 1.7-0.1 3.7-0.1 6.3 0 8.8 1 10.8 1.4 16.6 0.3 0.3 0.5 0.5 0.7 0.9 0.3 0.2 0.6 0.4 0.9 0.5s0.7 0.2 1 0.3c1.1 0.1 1.9 0.9 2.2 1.7 0.4 0.1 0.7 0.3 1 0.5 1.4-0.3 3 0.2 3.7 2 1.1 3.2 1.4 6.9 1.1 10.7 0 0.2 0.1 0.3 0.1 0.5 0.4 2.6 1.6 5 2.7 7.5l23.2-0.1c0.1-4.5 2.2-9 2.6-10.3 0.9-4.9-5.9-14.5-6.6-19.4z" fill="#281D14"/>
		<path opacity=".3" enable-background="new    " d="m35.2 189.4l-1-3.8 1-1.9s-0.6-7.8-0.7-8.2c-0.1-0.5-1.5-3.9-1.7-4s-3.8-4.2-3.8-4.7-2.6-2.2-2.6-2.2h-3.4l-1.7-2.2-2.9 4.4-1.2-0.6c0.4 4.4 1.1 6.6 1.4 12.2 0.8 0.3 1.3 0.9 1.5 1.6 0.5 0.1 0.9 0.4 1.3 0.7 0.3 0.3 0.6 0.6 0.8 0.9 0.2-0.3 0.3-0.7 0.5-1 1.4-2.5 5.8-1.5 5.6 1.5-0.3 5-0.6 10.2-1.9 15.1 0.1 0.2 0.1 0.4 0.1 0.6 0.1 1.1 0.2 2.2 0.2 3.2h7.3v-0.1c0.4-2.1 0.9-5.6 1-5.7 0.1-0.2 2.6-3.3 2.6-3.3l-2.4-2.5z" fill="#261915"/>
		<path opacity=".3" enable-background="new    " d="m168.5 201.1c0-7.9-0.2-9.1-0.2-18.9 0-11.2 1.6-11.2 1.6-22.4s-1.6-11.2-1.6-22.4 2.3-11.2 2.3-22.4-2.1-11.2-2.1-22.4 0.4-11.2 0.4-22.4-1.8-11.2-1.8-22.4 1.2-11.2 1.2-22.4-1.7-24.1-1.6-24.9h-27.3c2 11.6 9.8 23.2 9.8 35.2-0.2 22.3-11.2 41-11.2 62.2 0 18.7 4.4 37.7 4.2 57.7-0.2 15.4-2.7 30.3-3.1 45.1l29.4 0.4z" fill="#281D14"/>
		<path opacity=".3" enable-background="new    " d="m168.5 201.1c0-7.9-0.2-9.1-0.2-18.9 0-11.2 1.6-11.2 1.6-22.4s-1.6-11.2-1.6-22.4 2.3-11.2 2.3-22.4-2.1-11.2-2.1-22.4 0.4-11.2 0.4-22.4-1.8-11.2-1.8-22.4 1.2-11.2 1.2-22.4-1.6-24.1-1.6-24.9h-19l7.5 4.6-1.7 3.9 2.3 4-5.7 3.8 0.5 4 0.5 4 4 4-2.4 3.9 1.6 3.9-0.5 3.9 1 3.9 0.1 3.9-3.9 3.9 2.7 4.2 0.4 3.9-1.8 3.9 3.5 3.8-2.7 3.9-1.5 3.9-1.3 3.9 5.4 3.6-1.5 3.9-1.6 4 3.9 3.6-2.9 4.1 3.7 3.8-2.9 4 0.5 4-3.2 3.8 4.9 4.4-3.7 3.6 1.8 4.2-3.4 3.4-0.3 3.9 2.3 4.4-3.8 3.3 2.1 4.4-1.2 3.8 0.4 4-0.2 3.9-3.1 3.4 2.1 4.2-2.7 3.5-1.9 4.1 2.4 4.2-3.1 3.8 3.9 4.1-4.3 4 4.2 3.6-1.5 4.1 2.4 3.5-1 1.3 20.5-0.5z" fill="#261915"/>
		<path opacity=".3" enable-background="new    " d="m47.6 25.8c-0.4-9 0.1-18.1 2-26.7-0.1-0.2-0.1-0.5-0.1-0.7-4.2 0-8.5 0-12.7 0.3-0.8 0.1-1.4-0.1-1.8-0.4-0.7 0.2-1.4 0.4-2.2 0.6-0.6 5.2-2 10.1-4.8 14.3-0.1 0.2-0.2 0.5-0.4 0.7-1.4 2-1.9 4.6-2.8 6.8-0.5 1.2-1.1 2.4-1.6 3.6-0.2 0.7-0.4 1.3-0.7 2-0.2 0.6-0.5 1-0.9 1.3 0 0.1-0.1 0.1-0.1 0.2l-0.3 0.6c0.2 5.8-1.2 12.2-1.1 17.9 0.1 0.7 0.1 1.5 0.1 2.3 0 0.2 0 0.4-0.1 0.5 3 0.4 6 0.6 8-0.1 7.8-2.5 9.3-4 15-11.3 1.9-2.5 4.1-5.3 6.1-8.2 0-0.1 0-0.2-0.1-0.3-0.8-0.6-1.5-1.8-1.5-3.4z" fill="#281D14"/>
		<path opacity=".3" enable-background="new    " d="m38.4 8.4l1-4.6 6.1-3-15-1c0.1 3.1 0.2 6.1-0.6 9.2-1.3 5.3-3.5 10.1-5.7 15.1-0.2 0.4-0.4 0.7-0.7 1 0.1 2.3 0.2 5 0.2 8.7 0 11.3-0.5 14.1-0.7 21.5l3.8 3.8h4.2l2-4 2-5.1 0.5-3.3s1.5-10 1.6-10c0.2 0 1.7-5 1.7-5l0.9-8.8-1.3-7.9v-6.6z" fill="#261915"/>
		<path stroke="#3D2F26" stroke-width="4" stroke-miterlimit="10" d="m30 203.2c0-2.3-6.3-15-6-22.4" fill="none"/>
		<path d="m23.3 181.3c-0.4 0-0.7 0.1-1 0.3 0.3 0.4 0.5 0.9 0.6 1.3 0.6 1.1 0.3 2.3-0.4 3.2 0 0.1 0.1 0.1 0.1 0.2s0 0.2 0.1 0.3c0.2 0.1 0.5 0.1 0.7 0.1 1.3 0 2.4-1.2 2.4-2.7s-1.2-2.7-2.5-2.7z" fill="#3D2F26"/>
		<path stroke="#3D2F26" stroke-width="4" stroke-miterlimit="10" d="m166.4 0.4c0 11.4 1.8 13.8 1.8 25.1 0 11.2-1.2 11.2-1.2 22.4s1.8 11.2 1.8 22.4-0.4 11.2-0.4 22.4 2.1 11.2 2.1 22.4-2.3 11.2-2.3 22.4 1.6 11.2 1.6 22.4-1.6 11.2-1.6 22.4-2.1 17.2-2.1 19" fill="none"/>
		<path stroke="#3D2F26" stroke-width="4" stroke-miterlimit="10" d="m23.4 28.7c0.9-2.9 8.7-19 8.1-28.8" fill="none"/>
		<ellipse cy="28.7" cx="22.8" rx="2.3" ry="2.5" fill="#3D2F26"/>
			<path opacity=".5" enable-background="new    " d="m33.9 197.8c1.8 0.7 6.1-0.2 6.1-0.2s3.3 0 3.4-1.7 0-5.7-0.5-6.6c-0.5-0.8-2.7-5.1-7-2.4-1.6 1.1-2.2 3-2.7 4.2-0.6 1.2-1.7 5.8 0.7 6.7z" fill="#262626"/>
				<path stroke="#4D4D4D" stroke-width="2" stroke-miterlimit="10" d="m40.2 195.3c2.7-0.1-0.2-2.8 1-2.9s-0.1-4.2-2.3-4.1-3.9 2.2-4.4 2.1c-0.5-0.2-3.2 5.3-1.3 6.4 1.7 1.1 5-0.5 5-0.5l2-1z" fill="#808080"/>
				<path d="m36.4 192.6c-1.2 0.8-2.6 2.3-2 2.5 0.5 0.2 3.1-0.7 3.1-0.7l1.6-1.1-1.7-1.8-1 1.1z" fill="#A5A5A5"/>
			<path opacity=".5" enable-background="new    " d="m47.6 176.1c-4.8 10.3-7.6 7-12 3.8-1-0.6-2.3-1.3-3.8-2.3-7-3.9-12.1-10.2-15.5-18.9l-0.1-0.6 0.4-0.5c11.4-15.9 12.9-15.2 24 0.6l7.2 17.3-0.2 0.6z" fill="#262626"/>
			<g stroke="#4D4D4D" stroke-miterlimit="10">
				<path stroke-width="2" d="m15.3 162.7c3.1 15 15.2 16.5 19.8 21.3s8.8-4.4 8.8-4.4l-6.7-16.3s-10.9-15.4-13.2-12.5c-2.4 3-8.7 11.9-8.7 11.9z" fill="#808080"/>
				<path d="m19.3 162.5l12.6 13.3s3.5-1.6 5.1-2.1c1.6-0.4-2.4-9.7-2.4-9.7l-10-7.2-5.3 5.7z" fill="#A5A5A5"/>
				<path d="m31.9 175.9l3.8 8.7s-19.8-10.1-20.6-22l3.9-0.2 12.9 13.5z" fill="#A09D9A"/>
				<path d="m37.3 173.3c2.3 1.3 4 3.3 6.1 4.7 0 0 0.5 2.1-0.7 3.8-1.3 1.7-4.4 4.6-6 3.4s-4.9-9.3-4.9-9.3l5.5-2.6z" fill="#686868"/>
			</g>
			<path opacity=".5" enable-background="new    " d="m28.2 190.6c0.2 0.5 3.3 0.8 3.3 0.8v-8.4l-5.3-1.7s-0.7 0.2-1.2 1.9 0 5.8 0 5.8l3.2 1.6z" fill="#262626"/>
			<path stroke="#4D4D4D" stroke-width="2" stroke-miterlimit="10" d="m26.1 183.5s-2 5.1-1.2 5.5c2.4 0.8 6.1 1.5 4.8 1.2v-5.8l-3.6-0.9z" fill="#808080"/>
		<path d="m38.3 44.5s0 0.4 0.1 1.1c0.1 0.4 0.1 0.7 0.1 1.3 0 0.5 0.1 1.1 0.1 1.8 0 1.3 0 3-0.1 4.9 0 1-0.1 1.9-0.1 2.9s0 2.1 0 3.3c0 2.3 0 4.7-0.1 7.4 0 2.5-0.2 5.3-0.5 8.2-0.1 1.5-0.2 2.9-0.4 4.4-0.1 1.5-0.2 2.9-0.5 4.4-0.1 0.7-0.1 1.5-0.2 2.2l-0.2 2.2c-0.1 1.5-0.2 2.9-0.4 4.5-0.1 3-0.5 5.9-0.5 8.9-0.1 2.9-0.2 5.9-0.4 8.7-0.1 2.8-0.2 5.6-0.4 8.1-0.1 2.5-0.1 5-0.1 7.3 0.1 2.2 0.2 4.2 0.4 6.1 0.1 0.8 0.2 1.7 0.4 2.5 0.1 0.7 0.2 1.5 0.4 2.2 0.4 1.2 0.5 2.3 0.6 2.9 0.2 0.7 0.4 1.1 0.4 1.1s-0.2-0.4-0.5-1c-0.4-0.6-0.7-1.6-1.3-2.8-0.2-0.6-0.5-1.3-0.7-2.1-0.2-0.7-0.5-1.6-0.7-2.5-0.5-1.8-0.9-3.9-1.2-6.2-0.4-2.3-0.5-4.7-0.6-7.4s-0.2-5.5-0.2-8.2c0-2.8-0.1-5.7-0.1-8.7s0.2-6.1 0.4-9.2c0.4-3 0.5-6.2 1-9.1 0.2-1.5 0.5-2.9 0.6-4.4s0.4-2.8 0.5-4.2c0.4-2.8 0.9-5.5 1-8 0.2-2.5 0.5-5.1 0.7-7.3 0.1-0.6 0.1-1.1 0.2-1.7s0.1-1.1 0.2-1.6c0.2-1.1 0.4-2.1 0.5-2.9 0.4-1.8 0.7-3.4 0.9-4.6 0.2-1.3 0.5-2.3 0.5-3 0.2-1.1 0.2-1.5 0.2-1.5z" fill="#60492F"/>
		<path d="m78.1 9.1s0 0.6 0.1 1.8 0.1 2.9 0.4 5c0.1 2.2 0.5 4.7 0.7 7.8 0.4 3 0.7 6.3 1.1 10.1s0.6 7.8 0.5 12.1c0 1.1 0 2.2-0.1 3.3s-0.1 2.2-0.2 3.3-0.1 2.2-0.2 3.4c-0.1 1.1-0.4 2.3-0.5 3.5-0.2 2.3-0.6 4.7-1 7-0.4 2.4-0.7 4.7-1.2 7.2-0.9 4.7-1.6 9.6-2.2 14.4-0.4 2.4-0.5 4.9-0.7 7.2-0.1 2.4-0.2 4.7-0.2 7.2 0 1.2 0.1 2.4 0.1 3.5 0.1 1.1 0.1 2.3 0.2 3.4 0.2 2.3 0.5 4.6 0.7 6.9 1.2 9.1 2.6 17.7 2.8 25.1 0.4 3.8 0.2 7.2 0.2 10.2-0.1 1.6-0.2 2.9-0.4 4.2s-0.5 2.5-0.5 3.5c-0.4 1.1-0.5 1.9-0.7 2.8-0.1 0.4-0.2 0.7-0.4 1.1-0.1 0.4-0.2 0.6-0.4 0.8-0.5 1.1-0.6 1.6-0.6 1.6s0.1-0.6 0.5-1.7c0.1-0.2 0.1-0.6 0.2-1s0.2-0.7 0.2-1.1c0.1-0.8 0.2-1.8 0.5-2.8 0.1-1.1 0.1-2.2 0.2-3.5 0-1.3 0-2.7-0.1-4.1-0.2-2.9-0.5-6.3-1-9.9s-1.2-7.5-1.8-11.6c-0.7-4.1-1.6-8.5-2.3-13.1-0.4-2.3-0.6-4.6-1-7-0.1-1.2-0.2-2.4-0.4-3.8-0.1-1.2-0.1-2.4-0.2-3.8 0.1-2.5 0.1-5 0.2-7.5 0.2-2.5 0.5-5 0.6-7.5 0.6-5 1.6-9.8 2.4-14.6 0.5-2.4 0.9-4.7 1.3-7 0.5-2.3 0.9-4.6 1.2-6.8 0.2-1.1 0.4-2.2 0.5-3.3 0.2-1.1 0.2-2.2 0.5-3.3 0.1-1.1 0.2-2.2 0.4-3.3 0.1-1 0.1-2.1 0.2-3.2 0.2-4.1 0.2-8.1 0.2-11.8-0.1-3.6-0.1-7-0.2-10.1v-7.9s0.2-3.9 0.2-5c0.2-1.1 0.2-1.7 0.2-1.7z" fill="#60492F"/>
	<g opacity=".5">
		<path d="m109.1 9.6s-0.1 0.7-0.2 2.1-0.2 3.4-0.2 5.9 0.2 5.6 0.6 9.1c0.5 3.5 1.1 7.4 1.8 11.6 0.9 4.2 1.8 8.9 2.8 13.8 0.5 2.5 0.9 5.1 1.3 7.8 0.2 1.3 0.4 2.8 0.5 4.1 0.1 0.7 0.1 1.3 0.2 2.1 0.1 0.6 0.1 1.5 0.2 1.9 0.4 2.4 0.7 5.1 1.3 7.8 0.5 2.7 1.2 5.3 2 8.1 1.5 5.5 2.9 11.2 4.4 17 1.3 5.8 2.6 11.9 2.7 18.2 0.1 1.6 0 3.2 0 4.7 0 0.8-0.1 1.6-0.2 2.4l-0.1 1.2-0.1 0.6-0.1 0.5v0.2c-0.1 0.4-0.1 0.6-0.2 1.1l-0.4 1.3c-0.2 0.8-0.5 1.6-0.7 2.3-0.5 1.5-1.1 2.9-1.7 4.2-2.7 5.3-5.6 9.6-8.1 13.6-2.6 4-4.4 7.9-5.1 11.5-0.2 0.8-0.4 1.8-0.4 2.7v1.3s0.1 1 0.1 1.5c0.1 1.9 0.4 3.9 0.5 5.6 0.1 1.8 0.4 3.5 0.5 5.1s0.1 3 0.1 4.4c0 2.7-0.1 4.7-0.4 6.1-0.1 1.3-0.2 2.1-0.2 2.1s-0.1-0.7-0.4-2.1c-0.1-0.7-0.2-1.6-0.5-2.5-0.2-1-0.4-2.1-0.6-3.3-0.5-2.4-1.3-5.3-2.3-8.9-0.5-1.7-1-3.6-1.5-5.6-0.1-0.5-0.2-1-0.4-1.6-0.1-0.6-0.2-1.2-0.2-1.8-0.1-1.2-0.1-2.5 0-3.8 0.2-2.5 0.7-5.1 1.6-7.5s1.8-4.9 3.1-7c2.3-4.6 4.9-9 6.8-13.6 0.5-1.1 0.9-2.3 1.2-3.4 0.2-0.6 0.4-1.1 0.5-1.7l0.1-0.7c0-0.2 0.1-0.7 0.1-1v-0.3 0.1-0.5l0.1-1c0-0.6 0.1-1.2 0.1-1.9 0-1.3 0-2.5-0.1-3.9-0.4-5.2-1.3-10.8-2.7-16.3-1.2-5.6-2.7-11.2-4-16.9-0.6-2.9-1.2-5.7-1.7-8.6s-0.9-5.8-1.1-8.9c-0.1-0.7-0.1-1.5-0.1-2.1 0-0.7 0-1.3-0.1-2.1-0.1-1.3-0.1-2.5-0.2-3.9-0.1-2.5-0.5-5.1-0.6-7.6-0.5-5-1-9.8-1.3-14.2-0.1-2.2-0.4-4.4-0.4-6.4v-5.8c0.1-3.6 0.5-6.9 1-9.5s1.1-4.5 1.6-5.8c0.2-0.6 0.5-1.1 0.5-1.5 0.6-0.1 0.6-0.3 0.6-0.3z" fill="#60492F"/>
	</g>
</svg>
