<?xml version="1.0" encoding="utf-8"?>
<!-- Generator: Adobe Illustrator 18.0.0, SVG Export Plug-In . SVG Version: 6.00 Build 0)  -->
<!DOCTYPE svg PUBLIC "-//W3C//DTD SVG 1.1//EN" "http://www.w3.org/Graphics/SVG/1.1/DTD/svg11.dtd">
<svg version="1.1"
	 id="Layer_1" sodipodi:docname="roadTile_TJunction.svg" inkscape:version="0.48.4 r9939" xmlns:svg="http://www.w3.org/2000/svg" xmlns:sodipodi="http://sodipodi.sourceforge.net/DTD/sodipodi-0.dtd" xmlns:rdf="http://www.w3.org/1999/02/22-rdf-syntax-ns#" xmlns:cc="http://creativecommons.org/ns#" xmlns:dc="http://purl.org/dc/elements/1.1/" xmlns:inkscape="http://www.inkscape.org/namespaces/inkscape"
	 xmlns="http://www.w3.org/2000/svg" xmlns:xlink="http://www.w3.org/1999/xlink" x="0px" y="0px" viewBox="0 0 200 200"
	 enable-background="new 0 0 200 200" xml:space="preserve">
<sodipodi:namedview  inkscape:pageopacity="0" inkscape:current-layer="Layer_1" inkscape:window-y="27" inkscape:guide-bbox="true" inkscape:window-x="0" inkscape:window-maximized="1" inkscape:pageshadow="2" inkscape:window-height="1014" inkscape:window-width="1920" showgrid="false" guidetolerance="10" inkscape:zoom="3.3941125" inkscape:cx="108.34815" inkscape:cy="94.469067" gridtolerance="10" showguides="true" bordercolor="#666666" pagecolor="#ffffff" objecttolerance="10" id="namedview3065" borderopacity="1">
	<sodipodi:guide  position="32.409061,205.65023" orientation="1,0" id="guide5940"></sodipodi:guide>
	<sodipodi:guide  position="167.5,221.66667" orientation="1,0" id="guide5942"></sodipodi:guide>
	<sodipodi:guide  position="100,254.79167" orientation="1,0" id="guide3053"></sodipodi:guide>
	<sodipodi:guide  position="56.250001,205.72917" orientation="1,0" id="guide3029"></sodipodi:guide>
	<sodipodi:guide  position="149.89584,207.29167" orientation="1,0" id="guide3033"></sodipodi:guide>
	<sodipodi:guide  position="-5.2604168,167.44792" orientation="0,1" id="guide3094"></sodipodi:guide>
	<sodipodi:guide  position="-16.354167,32.395834" orientation="0,1" id="guide3096"></sodipodi:guide>
	<sodipodi:guide  position="-11.09375,49.791667" orientation="0,1" id="guide3098"></sodipodi:guide>
	<sodipodi:guide  position="-3.9062501,55.833334" orientation="0,1" id="guide3100"></sodipodi:guide>
	<sodipodi:guide  position="-7.4479168,100" orientation="0,1" id="guide3102"></sodipodi:guide>
	<sodipodi:guide  position="-6.3541668,149.73959" orientation="0,1" id="guide3104"></sodipodi:guide>
	<sodipodi:guide  position="-9.6354168,143.48959" orientation="0,1" id="guide3106"></sodipodi:guide>
	<sodipodi:guide  position="-0.073656958,195.04362" orientation="1,0" id="guide3110"></sodipodi:guide>
	<sodipodi:guide  position="-5.8925566,199.97864" orientation="0,1" id="guide3112"></sodipodi:guide>
	<sodipodi:guide  position="199.97864,0.77339805" orientation="1,0" id="guide3114"></sodipodi:guide>
	<sodipodi:guide  position="200.67838,0.073656958" orientation="0,1" id="guide3116"></sodipodi:guide>
	<sodipodi:guide  position="76.01398,-118.73502" orientation="1,0" id="guide4227"></sodipodi:guide>
	<sodipodi:guide  position="121.68129,-127.27922" orientation="1,0" id="guide4229"></sodipodi:guide>
	<sodipodi:guide  position="-66.880517,123.44906" orientation="0,1" id="guide4260"></sodipodi:guide>
	<sodipodi:guide  position="-86.031326,77.781747" orientation="0,1" id="guide4262"></sodipodi:guide>
</sodipodi:namedview>
<g>
	<g>
		<g>
			<g>
				<g>
					<g>
						<defs>
							<path id="SVGID_1_" d="M-60.7-242.6l314.1,1.2c1.5,0,2.8,1.3,2.8,2.8l-2.7,742c0,1.5-1.3,2.8-2.8,2.8L-63.4,505
								c-1.5,0-2.8-1.3-2.8-2.8l2.7-742C-63.5-241.4-62.2-242.6-60.7-242.6z"/>
						</defs>
						<clipPath id="SVGID_2_">
							<use xlink:href="#SVGID_1_"  overflow="visible"/>
						</clipPath>
						<g clip-path="url(#SVGID_2_)">
							
								<linearGradient id="SVGID_3_" gradientUnits="userSpaceOnUse" x1="-213.8822" y1="215.6352" x2="-73.9588" y2="215.6352" gradientTransform="matrix(1 3.664295e-03 -3.664295e-03 1 242.7043 -117.9974)">
								<stop  offset="0" style="stop-color:#41342A"/>
								<stop  offset="0" style="stop-color:#5A4230"/>
								<stop  offset="1.611761e-03" style="stop-color:#5E4430"/>
								<stop  offset="1" style="stop-color:#544132"/>
								<stop  offset="1" style="stop-color:#4B3B2E"/>
								<stop  offset="1" style="stop-color:#41342A"/>
							</linearGradient>
							<path fill="url(#SVGID_3_)" d="M32,91.9c0,11.9,1.1,11.9,1,23.7c0,11.9,2.2,11.9,2.1,23.7c0,11.9,0.4,11.8,0.3,23.7
								c0,11.9-5.5,11.8-5.6,23.7c0,8.9,0.8,11.1,1.2,16.6c30.5-3.1,61.1-3.2,91.8-0.5c4.8,0.4,9.6,0.8,14.4,1.3
								c9.4,0,18.8,0.2,28.3,0.4c-1.7-5.9-5.6-8-5.5-17.2c0-11.9,7.3-11.9,7.4-23.7c0-11.9-2.9-11.8-2.8-23.7
								c0-11.9,1.2-11.8,1.3-23.7c0-11.9,0.6-11.9,0.7-23.7c0-11.9,0.3-11.8,0.4-23.7s-1.2-11.9-1.1-23.7c0-11.9,0.4-11.9,0.5-23.7
								c0-11.9-3.4-11.9-3.3-23.7c0-1.9,0-3.4,0.1-4.8c-9.8-0.6-19.5-1.8-29.2-2.8c-33.8,3.1-67.7,5-101.6,4.5
								c-0.1,0.8-0.1,1.6-0.1,2.5C32.2,9,31.9,9,31.9,20.8c0,11.9,0.2,11.9,0.1,23.7c0,11.9-1.7,11.9-1.8,23.7
								C30.1,80.1,32,80.1,32,91.9z"/>
							<path opacity="0.3" fill="#261915" enable-background="new    " d="M54.7,201.5l-1-0.2l-0.4-3.5l1.9-4l0.3-3.4l-4.7-2.3
								l1.1-3.6l-2.3-3l-1.1-3.2l1-3.5l-1.1-3.2l0.9-3.4l1.4-3.4l-1.4-3.2l-1-3.2l0.3-0.8c-4.3-0.8-8.3-2.7-11.6-5.4
								c0.1,2.7,0.2,5.8,0.1,11.2c0,6.4-1.5,9.6-3,12.7c-1.3,2.8-2.6,5.5-2.6,11c0,5.8,0.4,8.6,0.8,11.6c0.2,1.4,0.4,2.8,0.5,4.5
								C40.2,202.5,47.4,201.9,54.7,201.5z"/>
							<path opacity="0.3" fill="#261915" enable-background="new    " d="M51.5,24.4v-0.8l-0.9-3.3l2.8-3.2l-2-3.3l3-3.2l-0.3-3.3
								l-1-3.3L54,0.7l1-3.3l-1.9-2.8c-6.3,0.1-12.5,0.2-18.8,0c-0.1,0.8-0.1,1.8-0.1,2.8c0,5.9-0.1,9-0.2,11.9
								c-0.1,2.9-0.2,5.9-0.2,11.8s0.1,8.9,0.1,11.8c0,0.1,0,0.2,0,0.2C38.2,28.1,44.5,24.8,51.5,24.4z"/>
							<g opacity="0.3">
								<path fill="#261915" d="M136.8,89.9l5.8,0.9l0.4,3.5l-1.9,4.1l-0.3,3.4l4.8,2.3l-1.1,3.6l2.3,2.9l1.1,3.2l-1,3.5l1.1,3.2
									l-0.9,3.4l-1.3,3.4l1.4,3.2l1,3.2l-1.4,3.4l1.8,3.2l-1.1,3.4l3.3,3.2l-1.2,3.3l1,3.3l-2.3,3.4l-1.9,3.3l4.8,3.2l-2.3,3.3
									l0.4,3.3l0.3,3.3l-0.7,3.3l0.3,3.3l0.7,3.3l-2.4,3.3l1.4,3.3l-0.9,3.3l1,3.3l-0.6,3.3l-1.7,3.2l0.2,1.3
									c5.7,0,11.4,0.1,17.1,0.3c-0.6-1.8-1.3-3.2-2.1-4.6c-1.6-3-3.4-6.4-3.4-12.8c0-6.5,2.1-9.9,4-12.9c1.8-2.9,3.4-5.4,3.4-10.8
									c0-5.7-0.7-8.4-1.4-11.4s-1.5-6.2-1.5-12.3c0-6,0.3-9.1,0.6-12.1c0.3-3,0.6-5.8,0.6-11.6c0-6,0.2-9,0.3-12
									c0.2-2.9,0.3-5.9,0.3-11.7c0-6,0.1-9,0.2-11.9c0.1-2.9,0.2-5.9,0.2-11.8c0-5.8-0.3-8.7-0.6-11.6c-0.3-3-0.6-6-0.6-12
									s0.1-9,0.2-11.9c0.1-2.9,0.2-5.9,0.2-11.8c0-5.6-0.8-8.4-1.6-11.3c-0.9-3-1.8-6.2-1.8-12.4c0-1.8,0-3.4,0.1-4.7
									c-7.5-0.6-15.1-1.5-22.6-2.3l-1,1L141-5l-4,3.2l3.7,3.1l-1.1,3.3l2.1,3l-3.5,3.8l2.2,2.9l3.1,2.7l-3.3,4l1.9,2.9l1.2,3
									l2.8,2.7l-1.1,3.5l0.1,3.3l-0.2,3.3l4,2.6l-2,3.5l0.7,3.1l2.3,3.1l-1.4,3.3l0.8,3.3l-0.5,3.2l-2.8,2.7l-1.9,2.6l3.4,4.8
									l-1.3,3.2l-3.9,1.5l-2.9,1.8l-2.9,1.5l-1.7,2.8l-1,2.6l4.7,0.1L136.8,89.9z"/>
							</g>
							<g>
								<g opacity="0.5">
									<path fill="#60492F" d="M63.4,164.7c0.1,3.7,0.1,7.4,0.2,11.1c0,3.7,0.1,7.4,0.1,11.1v11.2c0,1,0,2,0,3.1
										c3.3-0.1,6.7-0.2,10-0.3c0-0.9,0-1.8,0-2.8v-11.3c0-3.8-0.1-7.5-0.2-11.3s-0.2-7.5-0.3-11.2c-0.1-3.7-0.2-7.4-0.3-11.1
										c-0.1-3.6-0.3-7.3-0.4-10.9c-0.2-7.3-0.2-14.4-0.3-21.4c-0.2-7,0.2-13.9,0.1-20.7v-10c0-3.3,0.1-6.6,0.2-9.8
										c0.1-6.5,0.3-12.7,0.6-18.8c0.3-6.1,0.5-12,0.8-17.6c0.1-2.8,0.2-5.6,0.3-8.3c0.1-2.7,0.3-5.3,0.4-7.9
										c0.3-5.2,0.5-10,0.8-14.2c0.2-4.5,0.6-8.8,0.8-12.8c0.1-2.4,0.2-4.7,0.3-6.9c-0.8,0-1.6,0.1-2.4,0.1
										c-0.2,2-0.5,4.1-0.8,6.3c-0.3,1.9-0.6,4-0.9,6.1c-0.2,1-0.3,2.1-0.5,3.2c-0.1,1.1-0.3,2.3-0.4,3.4
										c-0.5,4.6-1.1,9.5-1.8,14.6c-0.3,2.6-0.6,5.2-0.9,7.9S68.3,41,68,43.8c-0.5,5.6-1,11.4-1.7,17.5
										c-0.5,6.1-0.8,12.4-1.4,18.9c-0.2,3.3-0.4,6.6-0.6,9.9c-0.1,3.3-0.3,6.7-0.4,10.1c-0.2,3.4-0.3,6.8-0.4,10.3
										c0,1.7-0.1,3.4-0.1,5.2v5.3c0,7.1-0.2,14.3-0.2,21.6c0,3.7,0.1,7.3,0.1,11C63.4,157.3,63.3,161,63.4,164.7z"/>
								</g>
								<g opacity="0.5">
									<path fill="#60492F" d="M119.2,42c0.1,1.9,0.1,3.9,0.2,5.9c0,1,0.1,2,0.1,3s0.1,2,0.1,3c0.2,4.1,0.4,8.3,0.6,12.5
										c0.4,8.4,0.8,17.1,1.2,26c0.2,4.5,0.3,8.9,0.5,13.4c0.1,4.4,0.2,9,0.2,13.4s0.1,8.9-0.1,13.4l-0.1,3.4v3.3
										c-0.1,2.3-0.2,4.5-0.3,6.7c-0.5,8.9-0.9,17.6-1.3,26.1c-0.3,8.4-0.7,16.6-0.9,24.4c-0.1,2.1-0.1,4.1-0.2,6
										c1.3,0.1,2.6,0.2,3.9,0.3c0.6,0.1,1.2,0.1,1.8,0.2c0.2-2.1,0.3-4.1,0.5-6.3c0.6-7.8,1.4-15.9,2-24.4s1.4-17.2,2-26.1
										c0.1-2.2,0.3-4.5,0.4-6.7l0.1-0.8v-0.9l0.1-1.7l0.1-3.4c0.2-4.5,0.2-9.1,0.3-13.7c0-2.3,0-4.5-0.1-6.8s-0.1-4.5-0.2-6.8
										c-0.2-4.5-0.4-9-0.7-13.5c-0.3-4.4-0.5-8.8-0.9-13.2c-0.3-4.4-0.6-8.7-1-12.9s-0.7-8.3-1.1-12.4c-0.1-1-0.2-2-0.3-3
										s-0.2-2-0.3-3c-0.2-2-0.3-4-0.5-5.9c-0.6-7.7-1.3-15.1-1.7-21.8c-0.2-3.4-0.5-6.6-0.7-9.7c-0.3-3-0.6-6-0.8-8.4
										c-0.1-3.9-0.2-7.4-0.4-10.5c-0.7,0.1-1.3,0.1-2,0.2c-0.1,3-0.4,6.4-0.6,10.1c-0.2,2.9-0.2,5.8-0.2,8.9v9.8
										c0,3.4,0,7,0.1,10.6C119,34.3,119.1,38.1,119.2,42z"/>
								</g>
								<g>
									<path fill="#60492F" d="M107.7-7.8c0,0.6-0.1,1.3-0.1,1.9c-0.1,3.2-0.3,6.4-0.4,9.5c-0.2,3.2-0.1,6.3-0.1,9.3v4.4
										c0,0.8,0.1,1.5,0.1,2.2c0.1,0.7,0.1,1.4,0.2,2.1c0.2,2.8,0.6,5.3,0.9,7.7s0.6,4.6,0.7,6.5c0.2,1.9,0.2,3.6,0.2,5
										c-0.1,1.4-0.2,2.5-0.3,3.2c-0.1,0.7-0.2,1.1-0.2,1.1s0.1-0.4,0.4-1.1c0.2-0.7,0.5-1.8,0.8-3.2s0.5-3.1,0.6-5.1
										c0.2-2,0.2-4.2,0.1-6.6s-0.2-5-0.3-7.7v-2c0.1-0.7,0.1-1.4,0.1-2.1c0.1-1.4,0.1-2.9,0.2-4.4c0.1-3,0.3-6.1,0.4-9.2
										c0.2-3.1,0.3-6.3,0.5-9.5c0-0.8,0.1-1.5,0.1-2.3C110.3-8,109-7.9,107.7-7.8z"/>
								</g>
							</g>
							<path opacity="0.3" fill="#281D14" enable-background="new    " d="M140.5,107.6c-1.3,33.5,0.5,64.4,0.1,96.6
								c7.7,0,15.4,0.2,23,0.3c-0.5-1.7-1.3-3.1-2.1-4.4c-1.6-3-3.4-6.4-3.4-12.8c0-6.5,2.1-9.9,4-12.9c1.8-2.9,3.4-5.4,3.4-10.8
								c0-5.7-0.7-8.4-1.4-11.4s-1.5-6.2-1.5-12.3c0-6,0.3-9.1,0.6-12.1c0.3-3,0.6-5.8,0.6-11.6c0-6,0.2-9,0.3-12
								c0.2-2.9,0.3-5.9,0.3-11.7c0-6,0.1-9,0.2-11.9c0.1-2.9,0.2-5.9,0.2-11.8c0-5.8-0.3-8.7-0.6-11.6c-0.3-3-0.6-6-0.6-12
								s0.1-9,0.2-11.9c0.1-2.9,0.2-5.9,0.2-11.8c0-5.6-0.8-8.4-1.6-11.3c-0.9-3-1.8-6.2-1.8-12.4c0-1.9,0-3.5,0.1-4.9
								c-7.2-0.5-14.3-1.4-21.5-2.2c0.5,6.2,1.1,12.5,1.5,18.9c1.2,14.7,1.1,27.7-2.6,40.9C133.7,69.4,141.4,85.1,140.5,107.6z"/>
							<path opacity="0.3" fill="#281D14" enable-background="new    " d="M35.3,44.9c3.6-2.1,7.7-3.2,11.8-3.3c0.1-1,0.1-2,0.2-3
								c1.1-15,3.3-29.4,5.2-44c-6,0.1-12,0.1-18.1,0c-0.1,0.8-0.1,1.7-0.1,2.7c0,5.9-0.1,9-0.2,11.9c-0.1,2.9-0.2,5.9-0.2,11.8
								S34,29.9,34,32.8c0.1,2.9,0.1,5.9,0.1,11.9c0,0.4,0,0.7,0,1.1C34.3,45.5,34.8,45.2,35.3,44.9z"/>
							<path opacity="0.3" fill="#281D14" enable-background="new    " d="M55.5,201.5c2.3-9,4.1-18.4,4.4-29.4
								c0-1.1,0.1-2.2,0.1-3.2c-4.9,0.3-9.9-0.9-14.2-3.4c-3.9-2.3-6.5-5.2-8.5-8.7c0,1.8,0,3.8,0,6.5c0,6.4-1.5,9.6-3,12.7
								c-1.3,2.8-2.6,5.5-2.6,11c0,5.8,0.4,8.6,0.8,11.6c0.2,1.4,0.4,2.9,0.5,4.6C40.4,202.4,48,201.9,55.5,201.5z"/>
						</g>
					</g>
				</g>
			</g>
		</g>
	</g>
</g>
<g>
	<g>
		<g>
			<g>
				<g>
					<g>
						<defs>
							
								<rect id="SVGID_4_" x="-89.3" y="-273.8" transform="matrix(-3.664291e-03 1 -1 -3.664291e-03 170.8016 29.8231)" width="319.6" height="747.6"/>
						</defs>
						<clipPath id="SVGID_5_">
							<use xlink:href="#SVGID_4_"  overflow="visible"/>
						</clipPath>
						<g clip-path="url(#SVGID_5_)">
							
								<linearGradient id="SVGID_6_" gradientUnits="userSpaceOnUse" x1="38.0281" y1="211.2581" x2="177.9515" y2="211.2581" gradientTransform="matrix(-3.664294e-03 1 -1 -3.664294e-03 241.4666 -4.1779)">
								<stop  offset="0" style="stop-color:#41342A"/>
								<stop  offset="0" style="stop-color:#5E4430"/>
								<stop  offset="0" style="stop-color:#5A4230"/>
								<stop  offset="1" style="stop-color:#544132"/>
								<stop  offset="1" style="stop-color:#4B3B2E"/>
								<stop  offset="1" style="stop-color:#41342A"/>
							</linearGradient>
							<path fill="url(#SVGID_6_)" d="M35.7,172.7c11.1,0,11.8-2.5,21.5-2.8c-0.2-1.6-0.2-3.2-0.1-4.8c-4-7.8-6.9-16.2-9.4-24.7
								c-2.1-7.1-0.5-14.5,3.4-20.3c-2.6-4-4.2-8.7-4.1-13.7c0-5,0.5-10,1.6-14.9c1.8-7.8,7.8-13.7,15-16.4c0.1-1.9,0.5-3.8,1.1-5.6
								c-4.8-2.1-8.8-5.7-11.4-10.1c-3.3-5.7-4.2-12.5-2.5-18.9c-4.1,0.1-6.8,0.3-14.5,0.2c-11.9,0-11.8-5.5-23.7-5.6
								c-8.9,0-11.1,0.8-16.6,1.2c3.1,30.5,3.2,61.1,0.5,91.8c-0.4,4.8-0.8,9.6-1.3,14.4c0,9.4-0.2,18.8-0.4,28.3
								c5.9-1.7,8-5.6,17.2-5.5C23.9,165.4,23.9,172.7,35.7,172.7z"/>
							<path opacity="0.3" fill="#261915" enable-background="new    " d="M17.8,57l3-2.3l2.8-0.9c1.4-4.7,3.8-9,7-12.6
								c-1.6-0.5-3-1.2-4.3-1.8c-2.8-1.3-5.5-2.6-11-2.6c-5.8,0-8.6,0.4-11.6,0.8c-1.4,0.2-2.8,0.4-4.5,0.5
								c0.7,7.3,1.2,14.5,1.6,21.8l0.2-1l3.5-0.4l4,1.9l3.4,0.3l2.3-4.7L17.8,57z"/>
							<g opacity="0.3">
								<path fill="#261915" d="M38.9,170.7c5.7,0,8.4-0.7,11.4-1.4c2.4-0.6,5-1.2,9-1.4c-2.8-3.3-4.9-7.2-6.2-12
									c-0.1-0.4-0.2-0.8-0.3-1.2l-0.8-0.3l-3.3,1l-3.4-2.3l-3.3-1.9l-3.2,4.8l-3.3-2.3l-3.3,0.4l-3.3,0.3l-3.3-0.7l-3.3,0.3
									l-3.3,0.7l-3.3-2.4l-3.3,1.4l-3.3-0.9l-3.3,1l-3.3-0.6l-3.2-1.9l-1.3,0.2c0,5.7-0.1,11.4-0.3,17.1c1.8-0.6,3.2-1.3,4.6-2.1
									c3-1.6,6.4-3.4,12.8-3.4c6.5,0,9.9,2.1,12.9,4S33.5,170.6,38.9,170.7z"/>
							</g>
							<g>
								<g opacity="0.5">
									<path fill="#60492F" d="M37.9,78.2c3.7-0.1,7.4-0.2,11.1-0.3c3.6-0.1,7.3-0.3,10.9-0.4c7.2-0.2,14.2-0.2,21.1-0.3
										c0.6-3.1,1.6-6.1,2.9-8.9h-2.7c-7.1,0-14.3-0.2-21.6-0.2c-3.7,0-7.3,0.1-11,0.1c-3.7,0.1-7.4,0.1-11.1,0.2
										c-3.7,0.1-7.4,0.1-11.1,0.2c-3.7,0-7.4,0.1-11.1,0.1L1,68.6c0.1,3.3,0.2,6.7,0.3,10l14.1,0.1c3.8,0,7.5-0.1,11.3-0.2
										C30.5,78.4,34.2,78.3,37.9,78.2z"/>
								</g>
								<g opacity="0.5">
									<path fill="#60492F" d="M56.2,126.3L56.2,126.3c-8.9-0.5-17.6-0.9-26.1-1.3c-8.4-0.3-16.6-0.7-24.4-0.9
										c-2.1-0.1-4.1-0.1-6-0.2c-0.1,1.3-0.2,2.6-0.3,3.9c-0.1,0.6-0.1,1.2-0.2,1.8c2.1,0.2,4.1,0.3,6.3,0.5
										c7.8,0.6,15.9,1.4,24.4,2c8.5,0.6,17.2,1.4,26.1,2c2.2,0.1,4.4,0.3,6.6,0.4C60.1,132.1,57.9,129.4,56.2,126.3z"/>
								</g>
							</g>
							<path opacity="0.3" fill="#281D14" enable-background="new    " d="M16.3,164.6c6.5,0,9.9,2.1,12.9,4
								c2.5,1.5,4.6,2.9,8.5,3.3c-0.6-4.6-0.2-9.3,1-13.7c1.2-4.2,3.2-8.1,5.8-11.6c-15,0.2-29.9,0.6-45.1,0.4
								c0,7.7-0.2,15.4-0.3,23c1.7-0.5,3.1-1.3,4.4-2.1C6.5,166.4,9.9,164.6,16.3,164.6z"/>
							<path opacity="0.3" fill="#281D14" enable-background="new    " d="M41.1,63.4c1.9-3.2,3.5-6.5,5.3-9.8
								c2.5-4.6,6.1-8.3,10.2-11.1c-3.1,0-5.2,0.1-7.2,0.1c-2.9,0.1-6,0.2-11.9,0.2c-6.4,0-9.6-1.5-12.7-3c-2.8-1.3-5.5-2.6-11-2.6
								c-5.7-0.1-8.5,0.2-11.5,0.6c-0.6,0.1-1.3,0.2-2,0.3c-1.5,0.2-2.5,1.5-2.4,2.9c0.6,6,0.9,12,1.3,18c0.1,1.2,0.9,2.2,2,2.5
								c8.4,2.1,17.2,3.6,27.5,3.9c3.4,0.1,6.7,0.1,10.1,0.1C39.5,64.7,40.3,64,41.1,63.4z"/>
							<g>
								<g>
									<g>
										<path opacity="0.5" fill="#262626" enable-background="new    " d="M27.3,138.3c0,0,0.6-0.4,0.4-1.9"/>
										<path opacity="0.5" fill="#262626" enable-background="new    " d="M22.6,132c-0.3-0.3-3,0.5-3,0.5"/>
									</g>
								</g>
							</g>
						</g>
					</g>
				</g>
			</g>
		</g>
	</g>
</g>
</svg>
