<?xml version="1.0" encoding="utf-8"?>
<!-- Generator: Adobe Illustrator 18.0.0, SVG Export Plug-In . SVG Version: 6.00 Build 0)  -->
<!DOCTYPE svg PUBLIC "-//W3C//DTD SVG 1.1//EN" "http://www.w3.org/Graphics/SVG/1.1/DTD/svg11.dtd">
<svg version="1.1" id="Layer_1" xmlns="http://www.w3.org/2000/svg" xmlns:xlink="http://www.w3.org/1999/xlink" x="0px" y="0px"
	 viewBox="0 0 200 200" enable-background="new 0 0 200 200" xml:space="preserve">
<g>
	
		<linearGradient id="SVGID_1_" gradientUnits="userSpaceOnUse" x1="9392.2266" y1="186.7477" x2="9517.7344" y2="186.7477" gradientTransform="matrix(-1.2012 0 0 1.2012 11450.832 -38.4384)">
		<stop  offset="0" style="stop-color:#41342A"/>
		<stop  offset="0.165" style="stop-color:#544132"/>
		<stop  offset="0.425" style="stop-color:#4B3B2E"/>
		<stop  offset="0.575" style="stop-color:#5A4230"/>
		<stop  offset="0.805" style="stop-color:#5E4430"/>
		<stop  offset="1" style="stop-color:#41342A"/>
	</linearGradient>
	<path fill="url(#SVGID_1_)" stroke="#3D2F26" stroke-miterlimit="10" d="M162.6,172.4c-10.4-10.4-16.5,0.4-30.6,0.4
		c-14,0-14,0.8-28.1,0.8c-14,0-14,6.4-28.1,6.4c-14,0-14-3.8-28.1-3.8c-12.9,0-19.3-11.2-25.4-2.3c1.3,0.8,2.4,1.8,3.3,3.1
		c0.5,0.8,0.9,1.7,1.2,2.5c0.5,0.8,1,1.7,1.4,2.7c0.7,1.6,1,3.3,1.3,5c0.3,0.4,0.5,1,0.5,1.6c0,0.6,0,1.3,0,1.9
		c0.1,0.6,0.2,1.1,0.3,1.7c0.2,0.7,0.1,1.4-0.2,1.9c0.1,2.7,0.1,5.4-0.4,7.9c-0.1,0.3-0.1,0.5-0.3,0.8c0,0.2,0,0.4,0.1,0.6h75.6v0.1
		c1.2-0.2,2.5-0.4,3.7-0.5c2.4-0.2,4.6-0.1,6.8,0.5H168C168,203.8,172,181.9,162.6,172.4z"/>
	
		<linearGradient id="SVGID_2_" gradientUnits="userSpaceOnUse" x1="9461.4668" y1="58.7216" x2="9461.4668" y2="186.3948" gradientTransform="matrix(-1.2012 0 0 1.2012 11450.832 -38.4384)">
		<stop  offset="0" style="stop-color:#41342A"/>
		<stop  offset="8.753464e-02" style="stop-color:#5A4230"/>
		<stop  offset="0.9189" style="stop-color:#5E4430"/>
		<stop  offset="0.9311" style="stop-color:#5A4230"/>
		<stop  offset="0.9853" style="stop-color:#544132"/>
		<stop  offset="1" style="stop-color:#4B3B2E"/>
		<stop  offset="1" style="stop-color:#41342A"/>
	</linearGradient>
	<path fill="url(#SVGID_2_)" d="M172.5,180.8c-1.6-3.4-3.3-8.4-3.6-14.3c-0.7-14.8,2.4-36.3-0.6-57.6c-5.2-37.5-12.6-40.5-18.2-40.5
		c-3.5-5.8-11.5-15.5-19.3-22.3c-8.8-5.6-17.9-13.3-28.6-13.3c-10.8,0-10.8-2.1-21.4-2.1c-10.8,0-10.8,2.3-21.4,2.3
		c-10.8,0-10.8-1.6-21.4-1.6c-10.8,0-10.8,1.6-21.4,1.6c-9.4,0-10.5-0.2-18.1-0.2l-0.1,134.5c0.1,0,0.1,0,0.2,0
		c2.4,0.3,5.2,0.9,8,1.8c0.4-0.3,1-0.5,1.6-0.5c4.2,0,8.8,0.4,12.1,3.2c0.4,0.2,0.7,0.4,1,0.8c2.3,2.7,5.3,5.4,6.4,8.9
		c0.4,1.4,0.8,3.1,1,4.7c2.2,0.3,4.8,0.6,9.2,0.6c10.8,0,10.7-0.7,21.4-0.7c10.8,0,10.8-2.5,21.4-2.5c10.8,0,10.8,2,21.4,2
		c10.8,0,10.8-1.9,21.4-1.9c10.8,0,10.8,1.6,21.4,1.6c10.2,0,18-0.8,27.9-0.9C172.7,183.4,172.6,182.1,172.5,180.8z"/>
	
		<linearGradient id="SVGID_3_" gradientUnits="userSpaceOnUse" x1="9388.5986" y1="181.0286" x2="9517.29" y2="181.0286" gradientTransform="matrix(-1.2012 0 0 1.2012 11450.832 -38.4384)">
		<stop  offset="0" style="stop-color:#41342A"/>
		<stop  offset="2.001232e-02" style="stop-color:#554132"/>
		<stop  offset="5.332586e-02" style="stop-color:#5E4430"/>
		<stop  offset="0.9521" style="stop-color:#5A4230"/>
		<stop  offset="1" style="stop-color:#41342A"/>
	</linearGradient>
	<path fill="url(#SVGID_3_)" d="M168.5,201c0.6-6.5,1.6-13,2.6-19.5c0-0.2,0.1-0.5,0.2-0.7c-0.9-1.5-1.9-2.9-2.4-4
		c-2.9-6.8-6.1-11.6-11.7-15.5c-8.6-6-65.8-20.5-70.8-3c-2.2,8.1-27.6,7.7-34,11.6c-6.4,3.9-23.8-1.9-27.5-1.9
		c-1.2,0-2.4,1.7-3.4,4.2c0.2,0.1,0.5,0.3,0.7,0.5c1.9,2.3,4,4.6,5.5,7.3c0.5,0.9,0.5,1.8,0.2,2.5c1.8,2.5,2.3,5.7,2.5,8.7
		c0,0.1,0,0.3,0,0.4c0.2,1.3,0.4,2.6,0.5,3.9c0,0.1,0,0.2,0,0.4c0,0,0,0,0,0c0,0.1,0,0.1,0,0.2c0,0.7-0.3,1.3-0.8,1.8
		c0.3,1.6,0.3,3.2,0.1,4.8c-0.1,0.7-0.4,1.4-0.8,1.9c0.1,1.1,0.2,2.2,0.2,3.3c5.6-1.3,11-1.7,16.5-1.2c9.2-2,17.8-1.9,27-0.7
		c2.5,0.4,4.8,1.1,7.1,2.1c5.9-0.1,11.8-0.2,17.7-0.4c4.7-1.4,9.4-2.7,14.3-3.4c3.8-0.6,7.5,0.5,10.8,2.8
		c15.1-0.5,30.2-0.8,45.2-0.9c0.2-1.1,0.5-2.2,0.7-3.3C168.6,202.4,168.4,201.8,168.5,201z"/>
	<path opacity="0.3" fill="#281D14" enable-background="new    " d="M171.2,188.1c0.1-0.2,0.2-0.4,0.3-0.6v-9.6l-1.6-5.9
		c1.6-10.9,2.7-49.3,0-58.6c0.6-10.7-7.2-36.9-18.7-43.2C133.1,43.5,115.5,37.4,97,33.2C78.5,28.9,69.3,37,53.4,34
		c-15.9-3.1-29.1-0.1-38.2,0.3c-9.2,0.3-16.8,2-16.8,2v15.9c0.3,0,0.6,0.1,0.9,0.2c1,0,1.7,0.4,2.2,1c0.1,0,0.1,0,0.2,0
		c0.6,0,1.2,0.2,1.6,0.4c0.4-0.3,0.9-0.4,1.6-0.4c1.7,0,2.7,1.2,2.9,2.5c3.8,0.3,7.7,0.9,11.4,1.2c1.1,0.1,1.8,0.6,2.3,1.3
		C31.8,56,42.7,53.9,47,54.5c9.2,1.1,40.3-3.9,46.3-3.1c6.1,0.9,11.2,1.3,11.4,2.8c0.2,1.4,4.1,3.9,18.4,11.3s23.3,41.5,25.8,48.9
		c2.5,7.5-1.1,33.2-4.9,39.9c-3.9,6.6,0,33.8,0,33.8c0,1.4-0.8,3-1.9,4.4c3.6,3,6.5,6.9,8.3,11.3h15.4c0-0.1,1.9,0,3.7,0
		C168.7,198.4,169.1,193.1,171.2,188.1z"/>
	<path opacity="0.3" fill="#261915" enable-background="new    " d="M170.6,175.7c0-0.1,0-0.2,0-0.3c-1-1.9-1.9-2.9-1.9-2.9
		s0.8-9.8,1.8-29.3c1.4-57.8-16.1-70.8-20.1-75c-4.1-4.1-0.9-10.4-26.9-27.7c-25.2-16.8-59.8-5.7-79.4-9.4c-0.5,0.6-1.2,1.1-2.3,1.1
		c-4.2,0-8.4,0.5-12.5-0.7c-0.1,0-0.3-0.1-0.4-0.2c-14.5,1-31.5,2.9-31.5,2.9v13.4c0.1,0,0.1,0,0.2,0c0.3,0,0.6,0,0.8,0.1
		c0.5-0.5,1.2-0.8,2.1-0.8c1.2,0,2,0.6,2.5,1.4c0.3-0.1,0.6-0.2,0.9-0.2c0.5,0,1,0.1,1.4,0.3l2.4-2.6l1.9-5l1.3-0.9l8.9-1.7L30.6,38
		l5.5,2.8l7.2,1.3l6.9-3.3l6.5,3.9l6.4-3.1l9.3-3.1l2,3.3l6.8,1.1c0,0,2.6-2.8,5-3.1l11.9,1.3l3.5,3.3l12.5,2l3.7,4.7l11.9,3.1v5.6
		l2.6,1.8l10.3,6.6l1.4,5.4l3.6,8l5.4,5.8l-5.4,5.4l4.2,9.7l0.2,8.6l0.2,7.1l1.2,11.2l-2.1,10l-1.1,3.6c0,0,1.5,3.8,1.4,4.2
		c-0.1,0.3,2,3.1,2,3.1l-6.2,2.5v8.8l-1.4,6.6c0,0-0.4,4-0.4,4.4c0,0.3,3.2,8.6,3.2,8.6l-1.4,2.2c6.9,5,11.4,12.8,11.7,21.5h5.5
		c0-0.1,1.8,0,3.5,0c0-2.8,0.5-5.3,0.9-8.2c0.5-3.2,0.7-6.4,1.4-9.5c0.1-0.5,0.3-0.8,0.5-1.1C170.7,181.3,170.7,178.5,170.6,175.7z"
		/>
	<g>
		<path opacity="0.3" fill="#281D14" enable-background="new    " d="M50.6,183.1c-0.3,0.1-0.6,0.2-1,0.2c-0.8,0-1.4-0.3-1.9-0.7
			c-0.1,0-0.2,0-0.3,0c-0.5,0.4-1.1,0.7-1.9,0.7c-0.7,0-1.2-0.2-1.7-0.5c0,0,0,0,0,0c-0.3,0-0.5,0-0.7-0.1c-0.7,0-1.4,0-2.3,0
			c-0.7,0-1.3,0-2,0c-0.4,0.2-0.9,0.3-1.4,0.3c-0.2,0-0.4,0-0.6-0.1c-0.4,0.2-0.8,0.3-1.3,0.3c-0.9,0-1.6-0.4-2.1-0.9
			c-0.4,0.3-0.9,0.4-1.5,0.4c-1.2,0-2.1-0.6-2.5-1.4c-0.5-0.1-1-0.2-1.5-0.3c0.9,2.4,1.5,4.8,1.8,7.3c0.1,0.8,0.1,1.8,0.2,2.8
			c0.4,1.6,0.8,3.2,1.1,5c0.2,0.9-0.1,1.7-0.6,2.4c0.2,1.4,0.5,2.8,0.7,4.2H46c0,0,0,0,0,0c0.5-5.4,3.4-8.8,6.1-11.8c0,0,0,0,0,0
			C51.5,188.5,50.9,185.9,50.6,183.1z"/>
		<g opacity="0.3">
			<path fill="#261915" d="M44.5,189.6l-2.3-2.1c-0.4-0.3-0.7-0.7-0.9-1.1l-0.4-0.8c-0.7-1.4-2.4-2.4-4.4-2.6
				c-0.3,0-0.5-0.1-0.8-0.1c-0.7,0.5-1.8,0.9-3.2,0.9c-0.7,0-1.3-0.1-1.8-0.3c0,0,0,0,0,0c-0.7,0-1.4-0.1-1.9-0.3
				c-0.2,0-0.3,0-0.5,0c0,0,0,0,0,0c2.4,4.7,3,10.4,1.7,15.5c0.3,1.8,0.6,3.6,0.7,5.4h6.1c3.6,0,6.3-2.3,5.7-4.8
				c-0.2-0.9,0-1.8,0.6-2.6l2-2.7C46.1,192.7,45.9,190.9,44.5,189.6z"/>
		</g>
	</g>
	<path opacity="0.3" fill="#281D14" enable-background="new    " d="M50.5,178.5c-3.2-3.7-5.7-8.2-6.7-13c-4.2-3-7.6-7-9.9-11.6
		c-2.3-0.5-4.5-1.2-6.6-2c-3.7-0.5-7.3-1.7-10.6-3.4c-2.8,0.8-5.7,1.3-8.5,1.3c-3.4,0-6.5-0.6-9.5-1.5L-1.5,168
		c0.3-0.1,0.5-0.1,0.8-0.1c1.6,0,3.2,0.2,4.8,0.4c0.5-0.5,1.2-0.8,2.2-0.7c2.7,0.3,5.1,1.1,7.4,2.2c0.9,0.1,1.8,0.2,2.6,0.2
		c0.8,0,1.4,0.3,1.9,0.6c0.2,0.1,0.4,0.2,0.6,0.4c0.4,0.3,0.8,0.7,1.2,1c1-0.2,2,0.1,2.8,0.8c2.7,2.3,5.3,4.9,6.6,8.3
		c0.2,0.6,0.2,1.3-0.1,1.9c2.5,0.4,5.3,0.8,10.3,0.8c6.1,0,8.9-0.2,12-0.4C51.1,181.7,50.7,180.2,50.5,178.5z"/>
	<path opacity="0.3" fill="#261915" enable-background="new    " d="M40.1,180.7l-1.3-3.5c-0.7-0.7-1.3-2-1.5-3.6
		c-0.2-0.5-0.4-1-0.6-1.7c-1-4.8-2.2-10-3.9-14.4c-0.1,0-0.1,0-0.2-0.1c-0.5,0.5-1.2,0.9-2.1,0.9c-1,0-1.7-0.4-2.2-1
		c-1.2,0-2-0.6-2.5-1.4c-0.5,0.4-1.1,0.7-1.9,0.7c-0.8,0-1.5-0.3-2-0.7c-0.3,0.1-0.7,0.2-1.2,0.2c-1.3,0-2.2-0.7-2.6-1.6
		c-5.1,1.9-10.8,1.8-15.5,1.8c-1.4,0-2.3-1.2-2.8-2.8c-0.4,0-0.7-0.1-1-0.3c-0.1,0.1-0.3,0.1-0.4,0.2c0,4.1,0,8.1,0,12.2
		c4.7-0.1,10,0.7,14.6,3.9c0.1,0,0.1,0,0.2,0c0.3,0,0.5,0.1,0.8,0.1c0.3,0,0.5-0.1,0.8-0.1c1.7,0.1,3.2,0.7,4.4,1.6
		c1.3,0.7,2.5,1.7,3.5,3c0.4,0.5,0.7,1.1,0.9,1.7c4.7,2.1,4.9,7.8,6.1,12.3c0,0.2,0.1,0.4,0.1,0.5c0.5,2.1,0.8,4.2,1.1,6.2
		c1.5,0.7,3,1.4,4.9,1.9l-0.7-4.6L40.1,180.7z"/>
	<path fill="none" stroke="#3D2F26" stroke-width="4" stroke-miterlimit="10" d="M-7.7,163.9c9.9,6.1,23.6,0.6,31.6,7"/>
	<path fill="#3D2F26" stroke="#3D2F26" stroke-miterlimit="10" d="M23.5,169.8c2.9-1.5,4.6,0.2,3.1,3.1c-0.4,0.9-1,1.7-1.9,1.9
		c-1.9,0.5-3.6-1.2-3.1-3.1C21.8,170.8,22.7,170.1,23.5,169.8z"/>
	
		<radialGradient id="SVGID_4_" cx="9486.7295" cy="144.9951" r="114.2751" gradientTransform="matrix(-1.2035 0 0 1.1858 11478.1191 -31.4028)" gradientUnits="userSpaceOnUse">
		<stop  offset="1" style="stop-color:#41342A;stop-opacity:0"/>
		<stop  offset="1" style="stop-color:#41342A;stop-opacity:0.9749"/>
		<stop  offset="1" style="stop-color:#41342A"/>
	</radialGradient>
	<path fill="url(#SVGID_4_)" d="M84,33.9c-85.6,0-71.6,32.1-71.6,71.9c0,6-0.6,12-1.2,17.7c1.8,3.8,2.9,7.9,2.9,12.5
		c0,5.1-1.3,10-3.7,14.1c3,16.8,18.2,27.6,73.7,27.6c40.3,0,72.9-32.1,72.9-71.9S124.2,33.9,84,33.9z"/>
	<path fill="#261915" d="M26.7,183.7"/>
	<path fill="none" stroke="#3D2F26" stroke-width="4" stroke-miterlimit="10" d="M23.3,171.8c5.3,3.7,10.5,19.7,7.3,35.5"/>
	<path fill="none" stroke="#3D2F26" stroke-width="4" stroke-miterlimit="10" d="M168.9,209.8c-4.1-13.2,4.1-25.2-0.2-34.4
		c2.3-30.3,3.5-62.8-6.9-91.9c-1.2-3.4-4.6-6.7-6.9-10.1c-2.3-2.2-4.6-3.4-5.8-5.6c-16.2-29.2-52.1-42.6-84.5-34.8
		c-22-1.1-47.2,3-67.1-2.2"/>
	<g>
		<g>
			<path fill="#60492F" d="M139.2,158.6c0,0-0.4-0.7-0.1-2s1-3.1,1.9-5.2c0.5-1.1,1-2.3,1.1-3.6c0.1-0.7,0-1.4,0-2.1
				c-0.1-0.7-0.2-1.4-0.5-2.3c-0.8-3.1-3-6-5.1-9.7c-0.2-0.5-0.5-0.9-0.7-1.4c-0.1-0.2-0.2-0.5-0.4-0.8l-0.2-0.7
				c-0.2-0.5-0.4-0.9-0.6-1.5c-0.1-0.6-0.4-1.2-0.5-1.8c-0.6-2.4-0.8-4.7-1-7.1c-0.2-4.9,0.2-9.8-0.4-14.6c-0.4-2.4-1-4.6-2-6.9
				l-0.8-1.5l-1.1-1.7c-0.7-1.1-1.4-2.3-2.2-3.4c-0.7-1.1-1.6-2-2.4-3.1c-0.8-1.1-1.6-2.1-2.5-3.1l-2.6-3c-0.8-0.9-1.9-1.9-2.9-2.7
				c-1.9-1.9-4-3.6-6.1-5.2c-1.1-0.8-2.2-1.5-3.2-2.4c-1.1-0.7-2.2-1.5-3.4-2.3c-4.6-2.8-9.1-5.2-13.8-7.5c-4.7-2.4-9-4.5-13.5-5.9
				c-0.5-0.2-1.1-0.4-1.7-0.5c-0.5-0.1-1.2-0.4-1.6-0.5c-1.1-0.2-2.3-0.5-3.4-0.7c-2.2-0.5-4.3-0.9-6.4-1.3c-2-0.2-4-0.5-5.9-0.7
				c-1-0.1-1.8-0.2-2.8-0.4c-0.8-0.1-1.8-0.1-2.6-0.2c-1.7-0.1-3.2-0.2-4.7-0.4s-2.8-0.2-4-0.2c-4.8-0.2-7.7-0.5-7.7-0.5
				s2.8-0.2,7.7-0.5c2.4-0.2,5.4-0.1,8.8-0.2c0.8,0,1.7,0,2.6,0c1,0,1.8,0.1,2.8,0.1c1.9,0.1,4,0.2,6,0.4c2.2,0.1,4.2,0.6,6.5,0.8
				c1.1,0.1,2.3,0.4,3.4,0.5c0.7,0.1,1.2,0.2,1.8,0.4s1.2,0.2,1.8,0.5c4.8,1.3,9.5,3.3,14.2,5.6c1.2,0.6,2.4,1.1,3.6,1.7
				c1.2,0.6,2.4,1.2,3.6,1.8c2.5,1.1,4.8,2.6,7.3,3.9c1.2,0.7,2.3,1.5,3.5,2.3c1.2,0.8,2.4,1.5,3.5,2.5c2.2,1.8,4.5,3.4,6.5,5.5
				c4.2,3.8,7.8,8.3,11.1,12.9c0.7,1.2,1.4,2.3,2.2,3.4l1.1,1.7c0,0,0.1,0.2,0.1,0.1V95l0.1,0.1l0.1,0.2l0.2,0.5l0.5,0.9
				c1.2,2.6,1.9,5.5,2.2,8.2c0.4,2.7,0.2,5.3,0.1,7.8s-0.4,4.9-0.4,7.1s0.1,4.5,0.5,6.5c0.1,0.5,0.2,0.9,0.2,1.4
				c0.1,0.5,0.4,1.1,0.5,1.5l0.2,0.7l0.2,0.6c0.1,0.5,0.4,0.9,0.6,1.4c0.8,1.8,1.8,3.6,2.6,5.3c0.8,1.8,1.4,3.6,1.8,5.2
				c0.2,0.8,0.2,1.8,0.2,2.6c0,0.8-0.1,1.7-0.2,2.4c-0.2,1.7-1,2.8-1.6,3.9c-1.2,2.1-2.2,3.7-2.5,4.9
				C138.9,157.9,139.3,158.6,139.2,158.6z"/>
		</g>
		<g>
			<path fill="#60492F" d="M72,141.8c0,0,0-0.4,0.1-0.8c0.1-0.6,0-1.4,0-2.4c-0.1-0.5-0.1-1.1-0.2-1.7c-0.1-0.6-0.2-1.3-0.5-1.9
				c-0.4-1.3-0.8-2.8-1.7-4.3c-0.2-0.4-0.5-0.7-0.6-1.1l-0.1-0.1v-0.1l0,0c0-0.1,0.1,0.1,0,0.1l0,0l-0.2-0.2l-0.5-0.7
				c-0.4-0.4-0.6-0.5-0.8-0.8c-0.4-0.4-0.8-0.6-1.2-0.9c-0.2-0.2-0.5-0.5-0.7-0.7c-0.2-0.4-0.5-0.7-0.6-0.9c-0.2-0.7-0.6-1.4-0.6-2
				l-0.1-0.9l-0.1-0.8c0-0.6-0.1-1.1-0.1-1.7c-0.2-2.3-0.5-4.5-1-6.4c-0.5-2-1.6-3.7-2.9-5.2l-1-1.1l-1.4-1.2
				c-0.8-0.6-1.7-1.2-2.6-1.8c-1-0.6-1.9-1.1-2.9-1.5c-1-0.5-2-0.9-3-1.3c-2-0.8-4.1-1.5-6-2.1c-1-0.2-1.9-0.6-2.9-0.8
				c-1-0.2-1.8-0.5-2.6-0.7c-1.8-0.4-3.4-0.7-4.8-1.1C31.3,96.3,30,96,29,95.8c-2.2-0.4-3.4-0.6-3.4-0.6s0.4,0,0.8-0.1
				c0.6-0.1,1.4-0.2,2.5-0.2c1.1-0.1,2.4-0.1,3.9-0.1c1.6,0,3.2,0,5.1,0.2c1.8,0.1,3.9,0.4,6,0.7c2.2,0.4,4.3,0.9,6.6,1.7
				s4.6,1.7,6.9,3c1.1,0.6,2.3,1.4,3.4,2.1l1.4,1.2l0.1,0.1l0.1,0.1l0,0l-0.2-0.1l0.4,0.4l0.7,0.7c1.8,2,3.4,4.6,3.9,7.2
				c0.6,2.6,0.6,5.1,0.7,7.2c0,0.6,0,1.1,0,1.7v0.8v0.6c0,0.5,0.1,0.7,0.2,1.1c0.1,0.2,0.1,0.4,0.1,0.5c0.1,0.1,0.2,0.2,0.2,0.4
				c0.4,0.4,0.7,0.7,1.1,1.1c0.4,0.4,0.8,0.9,1.2,1.4l0.4,0.6l0.2,0.4l0,0l0.1,0.1l0,0v0.1l0.1,0.2c0.2,0.5,0.5,0.9,0.6,1.4
				c0.7,1.9,0.8,3.6,1,5.1c0,0.7,0,1.4,0,2.1c-0.1,0.7-0.1,1.3-0.2,1.8c-0.2,1.1-0.5,1.9-0.7,2.4C72.1,141.6,72,141.8,72,141.8z"/>
		</g>
		<g>
			<path fill="#60492F" d="M88.6,98.4c0,0,0-0.1-0.1-0.4c0-0.2-0.1-0.7-0.2-1.2c0-0.2-0.1-0.5-0.1-0.7C88,96,88,95.6,87.9,95.4
				c-0.2-0.6-0.5-1.3-0.8-1.9c-0.4-0.7-0.8-1.3-1.4-2c-0.6-0.7-1.2-1.3-1.9-2c-1.4-1.3-3.1-2.5-5.1-3.6c-3.6-2.3-7.7-4.3-10.6-5.9
				c-1.4-0.8-2.6-1.7-3.5-2.3c-0.8-0.6-1.2-0.9-1.2-0.9s0.6,0.1,1.6,0.4c1,0.2,2.4,0.6,4,1.1c3.2,0.9,7.7,2.4,11.7,4.9
				c1,0.6,1.9,1.3,2.9,2c1,0.7,1.8,1.5,2.5,2.4c0.7,0.8,1.4,1.8,1.9,2.7c0.5,0.9,0.8,1.9,1.1,2.7c0.1,0.5,0.2,0.8,0.2,1.3
				c0,0.5,0.1,0.8,0,1.2c0,0.4,0,0.7,0,1.1s-0.1,0.6-0.1,0.8c-0.1,0.5-0.2,0.8-0.4,1.1C88.7,98.3,88.6,98.4,88.6,98.4z"/>
		</g>
	</g>
	<g>
		<g>
			<path opacity="0.5" fill="#262626" enable-background="new    " d="M120.9,63.1c-0.1,2.1-2.8,6.2-2.8,6.2s-1.3,3.3-2.9,2.8
				c-1.7-0.5-5.2-2-5.8-2.8c-0.6-0.8-3.6-4.5,0.5-7.8c1.6-1.2,3.7-1.1,5.1-1.3C116.3,59.9,121,60.4,120.9,63.1z"/>
			<g>
				<path fill="#808080" stroke="#4D4D4D" stroke-width="2" stroke-miterlimit="10" d="M116,68.6c-1.2,2.6-2.4-1.2-3-0.1
					c-0.6,1.1-3.9-1.5-2.9-3.8c1-2.1,3.6-3.2,3.6-3.8c0-0.6,6.3-1.3,6.5,0.9c0.2,2.3-2.4,4.9-2.4,4.9L116,68.6z"/>
				<path fill="#A5A5A5" d="M115.1,63.8c1.2-0.9,3.1-1.7,3.1-1.1c0,0.6-1.9,2.8-1.9,2.8l-1.7,1.1l-1-2.4L115.1,63.8z"/>
			</g>
		</g>
		<g>
			<path opacity="0.5" fill="#262626" enable-background="new    " d="M95.5,69.2c11.3-1.1,9.5-5.1,8.2-10.7
				c-0.1-1.3-0.4-2.8-0.7-4.5c-0.8-8.3-4.6-15.8-11.3-22.3l-0.5-0.4l-0.6,0.1c-19.3,5.8-19.1,7.6-8.9,24.3l13.2,13.4H95.5z"/>
			<g>
				<path fill="#808080" stroke="#4D4D4D" stroke-width="2" stroke-miterlimit="10" d="M95.8,31.9c12.8,8.4,9.3,21.1,11.9,27.4
					c2.6,6.4-7.6,7.4-7.6,7.4L87.8,54.1c0,0-9.9-16.4-6.3-17.7C85,35.2,95.8,31.9,95.8,31.9z"/>
				<path fill="#A5A5A5" stroke="#4D4D4D" stroke-miterlimit="10" d="M94,35.8l7.3,17.4c0,0-2.9,3-3.9,4.4c-1,1.4-8.1-5.9-8.1-5.9
					l-2.6-12.6L94,35.8z"/>
				<path fill="#A09D9A" stroke="#4D4D4D" stroke-miterlimit="10" d="M101.4,53.3l6.6,7c0,0-1.4-23.5-12.2-28.3L94,35.8L101.4,53.3z
					"/>
				<path fill="#686868" stroke="#4D4D4D" stroke-miterlimit="10" d="M96.9,57.9c0.4,2.7,1.4,5.3,1.9,7.8c0,0,1.7,1.3,3.7,0.6
					c2-0.7,6-2.7,5.5-4.9c-0.5-2-6.7-8.2-6.7-8.2L96.9,57.9z"/>
			</g>
		</g>
		<g>
			<path opacity="0.5" fill="#262626" enable-background="new    " d="M116.4,54.8c0.4,0.4-0.5,3.7-0.5,3.7l-7.7-3l0.5-5.9
				c0,0,0.5-0.7,2.3-0.6c1.8,0.1,5.4,2,5.4,2V54.8z"/>
			<path fill="#808080" stroke="#4D4D4D" stroke-width="2" stroke-miterlimit="10" d="M110.7,50.3c0,0,5.5-0.2,5.5,0.8
				c0.1,0.9-0.7,5.1-0.7,5.1l-5.4-2.1L110.7,50.3z"/>
		</g>
	</g>
</g>
<linearGradient id="SVGID_5_" gradientUnits="userSpaceOnUse" x1="9401.3975" y1="128.7754" x2="9560.6006" y2="128.7754" gradientTransform="matrix(-1.2012 0 0 1.2012 11450.832 -38.4384)">
	<stop  offset="0" style="stop-color:#41342A"/>
	<stop  offset="2.001232e-02" style="stop-color:#554132"/>
	<stop  offset="5.332586e-02" style="stop-color:#5E4430"/>
	<stop  offset="0.9521" style="stop-color:#5A4230"/>
	<stop  offset="1" style="stop-color:#41342A"/>
</linearGradient>
<path fill="url(#SVGID_5_)" d="M152.4,114.6c-3.7-4.6-7.7-7.8-14.5-10.5c-10.6-4.1-81.4-14-87.5-2.1c-2.8,5.4-34.1,5.2-41.9,8
	c-2.7,1-6.9,1.1-11.6,0.8c0.2,2.3,0.1,4.7,0,7c0.4,4.9,0.4,9.9,0.4,15c0,0.7,0,1.4,0,2.2c1.1,0,2.2,0.1,3.2,0.1
	c11.3-1.4,21.9-1.3,33.5-0.5c3,0.2,6,0.7,8.8,1.4c7.3-0.1,14.6-0.1,21.9-0.2c5.9-1,11.7-1.8,17.7-2.4c4.8-0.5,9.3,0.4,13.4,1.9
	c18.6-0.2,37.3-0.6,55.9-0.6c1.8-4.7,4-8.8,6.1-13.2C158.7,119.3,153.8,116.6,152.4,114.6z"/>
</svg>
