<?xml version="1.0" encoding="utf-8"?>
<!-- Generator: Adobe Illustrator 18.0.0, SVG Export Plug-In . SVG Version: 6.00 Build 0)  -->
<!DOCTYPE svg PUBLIC "-//W3C//DTD SVG 1.1//EN" "http://www.w3.org/Graphics/SVG/1.1/DTD/svg11.dtd">
<svg version="1.1"
	 id="Layer_1" sodipodi:docname="roadTile_turn.svg" inkscape:version="0.48.4 r9939" xmlns:svg="http://www.w3.org/2000/svg" xmlns:sodipodi="http://sodipodi.sourceforge.net/DTD/sodipodi-0.dtd" xmlns:rdf="http://www.w3.org/1999/02/22-rdf-syntax-ns#" xmlns:cc="http://creativecommons.org/ns#" xmlns:dc="http://purl.org/dc/elements/1.1/" xmlns:inkscape="http://www.inkscape.org/namespaces/inkscape"
	 xmlns="http://www.w3.org/2000/svg" xmlns:xlink="http://www.w3.org/1999/xlink" x="0px" y="0px" viewBox="0 0 200 200"
	 enable-background="new 0 0 200 200" xml:space="preserve">
<sodipodi:namedview  inkscape:pageopacity="0" inkscape:current-layer="Layer_1" inkscape:window-y="27" inkscape:guide-bbox="true" inkscape:window-x="0" inkscape:window-maximized="1" inkscape:pageshadow="2" inkscape:window-height="1014" inkscape:window-width="1920" showgrid="false" guidetolerance="10" inkscape:zoom="4.7999999" inkscape:cx="81.404523" inkscape:cy="75.825612" gridtolerance="10" showguides="true" bordercolor="#666666" pagecolor="#ffffff" objecttolerance="10" id="namedview3065" borderopacity="1">
	<sodipodi:guide  position="32.409061,205.65023" orientation="1,0" id="guide5940"></sodipodi:guide>
	<sodipodi:guide  position="167.5,221.66667" orientation="1,0" id="guide5942"></sodipodi:guide>
	<sodipodi:guide  position="100,254.79167" orientation="1,0" id="guide3053"></sodipodi:guide>
	<sodipodi:guide  position="49.895834,208.125" orientation="1,0" id="guide3027"></sodipodi:guide>
	<sodipodi:guide  position="56.250001,205.72917" orientation="1,0" id="guide3029"></sodipodi:guide>
	<sodipodi:guide  position="143.95834,207.1875" orientation="1,0" id="guide3031"></sodipodi:guide>
	<sodipodi:guide  position="149.89584,207.29167" orientation="1,0" id="guide3033"></sodipodi:guide>
	<sodipodi:guide  position="-5.2604168,167.44792" orientation="0,1" id="guide3094"></sodipodi:guide>
	<sodipodi:guide  position="-16.354167,32.395834" orientation="0,1" id="guide3096"></sodipodi:guide>
	<sodipodi:guide  position="-11.09375,49.791667" orientation="0,1" id="guide3098"></sodipodi:guide>
	<sodipodi:guide  position="-3.9062501,55.833334" orientation="0,1" id="guide3100"></sodipodi:guide>
	<sodipodi:guide  position="-7.4479168,100" orientation="0,1" id="guide3102"></sodipodi:guide>
	<sodipodi:guide  position="-6.3541668,149.73959" orientation="0,1" id="guide3104"></sodipodi:guide>
	<sodipodi:guide  position="-9.6354168,143.48959" orientation="0,1" id="guide3106"></sodipodi:guide>
	<sodipodi:guide  position="-0.073656958,195.04362" orientation="1,0" id="guide3110"></sodipodi:guide>
	<sodipodi:guide  position="-5.8925566,199.97864" orientation="0,1" id="guide3112"></sodipodi:guide>
	<sodipodi:guide  position="199.97864,0.77339805" orientation="1,0" id="guide3114"></sodipodi:guide>
	<sodipodi:guide  position="200.67838,0.073656958" orientation="0,1" id="guide3116"></sodipodi:guide>
	<sodipodi:guide  position="76.01398,-118.73502" orientation="1,0" id="guide4227"></sodipodi:guide>
	<sodipodi:guide  position="121.68129,-127.27922" orientation="1,0" id="guide4229"></sodipodi:guide>
	<sodipodi:guide  position="-66.880517,123.44906" orientation="0,1" id="guide4260"></sodipodi:guide>
	<sodipodi:guide  position="-86.031326,77.781747" orientation="0,1" id="guide4262"></sodipodi:guide>
</sodipodi:namedview>
<path id="path4400" inkscape:connector-curvature="0" sodipodi:nodetypes="cc" fill="none" stroke="#72612E" stroke-width="2.485" d="
	M-1.7,51.6v99.9"/>
<path id="path6134" inkscape:connector-curvature="0" fill="none" stroke="#808080" d="M-2,57.1l0.6,87.8"/>
<g>
	<g>
		<g>
			<g>
				<g>
					<g>
						<defs>
							<path id="SVGID_1_" d="M-256,260.9V-53.2c0-1.5,1.3-2.8,3-2.8h785.2c1.6,0,3,1.2,3,2.8v314.1c0,1.5-1.3,2.8-3,2.8H-253
								C-254.6,263.7-256,262.4-256,260.9z"/>
						</defs>
						<clipPath id="SVGID_2_">
							<use xlink:href="#SVGID_1_"  overflow="visible"/>
						</clipPath>
						<g clip-path="url(#SVGID_2_)">
							
								<linearGradient id="SVGID_3_" gradientUnits="userSpaceOnUse" x1="-171.7082" y1="194.2309" x2="-31.7848" y2="194.2309" gradientTransform="matrix(4.489659e-11 -1 1 4.489659e-11 -113.8219 -0.8219)">
								<stop  offset="0" style="stop-color:#41342A"/>
								<stop  offset="0" style="stop-color:#5E4430"/>
								<stop  offset="0" style="stop-color:#5A4230"/>
								<stop  offset="0" style="stop-color:#5A4230"/>
								<stop  offset="1" style="stop-color:#544132"/>
								<stop  offset="1" style="stop-color:#4B3B2E"/>
								<stop  offset="1" style="stop-color:#41342A"/>
							</linearGradient>
							<path fill="url(#SVGID_3_)" d="M170.8,160.5c-1.1-2.7-1.8-5.5-2-8.5c-1.1-11.5-1.7-23.1-2.6-34.7c-0.4-6-1-12-1.7-18
								c-0.1-0.9-0.4-2.8-0.5-3.8c0-0.2-0.1-0.4-0.1-0.6c-0.1-0.6-0.2-1.1-0.3-1.7c-1.3-2.3-2.7-4.6-4.2-6.8
								c-0.5-0.7-1.1-1.5-1.6-2.2c-0.2-0.2-0.4-0.5-0.7-0.8c-1.8-1.9-3.8-3.7-5.9-5.4c-0.1,0-0.1-0.1-0.2-0.1
								c-0.9-0.6-1.8-1.2-2.8-1.7c-9.6-5.8-19.9-10.8-29.9-15.9c-5-2.5-10-5.1-15.1-7.3c-1.2-0.5-5.6-2.3-5.9-2.4
								c-1.4-0.5-2.9-1-4.3-1.4c-5.2-1.6-10.4-2.9-15.9-3.8c-0.2,0-0.3-0.1-0.4-0.1c-1-0.1-1.8-0.2-2.8-0.2
								c-3.1-0.2-6.2-0.3-9.3-0.3c-6.7,0-12.9-2.4-17.6-6.4c-5.7-0.4-11.3-1.7-16.3-4.6c-1.4,0-2.8,0-4,0c-2.3,0-4.7-0.3-6.9-0.9
								c-10,0.4-10.9,3.4-22.5,3.4c-2,0-3.6,0-5.1-0.1c-0.6,9.8-1.8,19.5-2.9,29.2C-7.1,99.2-5,133.1-5.3,167
								c0.9,0.1,1.7,0.1,2.7,0.1c12.6,0,12.6,0.3,25.1,0.3s12.6-0.2,25.1-0.2s12.6,1.7,25.1,1.7s12.6-1.9,25.1-1.9
								s12.6-1.1,25.1-1.1s12.6-2.2,25.1-2.2c11.9,0,12.5-0.4,23.2-0.4C170.9,162.3,170.8,161.4,170.8,160.5z"/>
							<path opacity="0.3" fill="#261915" enable-background="new    " d="M170.8,160.5c-1.1-2.7-1.8-5.5-2-8.5
								c-0.1-0.6-0.1-1.2-0.1-1.9l-0.7,0.2l-0.9-0.3c-0.9,4.3-2.8,8.3-5.6,11.6c2.4-0.1,5.2-0.2,9.5-0.2
								C170.9,161.1,170.8,160.8,170.8,160.5z"/>
							<path opacity="0.3" fill="#261915" enable-background="new    " d="M26.2,147.7h-0.9l-3.5,0.9l-3.4-2.8l-3.5,2l-3.4-3
								L8,145.1l-3.5,1.1l-3.4-0.9l-3.5-1l-3,1.9c0.1,6.3,0.2,12.5,0.1,18.8c0.9,0.1,1.9,0.1,3,0.1c6.3,0,9.5,0.1,12.6,0.2
								c3.1,0.1,6.3,0.2,12.5,0.2c6.3,0,9.4-0.1,12.5-0.1c0.1,0,0.2,0,0.2,0C30.2,161,26.5,154.7,26.2,147.7z"/>
							<g opacity="0.3">
								<path fill="#261915" d="M103.3,53c-1.2-0.5-5.6-2.3-5.9-2.4c-1.4-0.5-2.9-1-4.3-1.4c-5.2-1.6-10.4-2.9-15.9-3.8
									c-0.2,0-0.3-0.1-0.4-0.1c-1-0.1-1.8-0.2-2.8-0.2c-3.1-0.2-6.2-0.3-9.3-0.3c-6.7,0-12.9-2.5-17.6-6.4
									c-5.1-0.4-10.1-1.5-14.6-3.7c-2.6-0.1-5.4-0.1-10.2-0.1c-6,0-8.8,0.8-11.9,1.6C7.4,37.1,4,38-2.5,38c-1.9,0-3.6,0-5-0.1
									C-8.2,45.4-9,53-9.9,60.5l1.1,1l3.6-3.5l3.4,4l3.2-3.7l3.5,1.4l3.2-2.1l4,3.5l3.1-2.2l2.9-3.1l4.3,3.3l3.1-1.9l3.2-1.2
									l2.9-2.8l3.7,1.1l3.5-0.1l3.5,0.2l2.8-4l3.7,2l3.3-0.7l3.3-2.3l3.5,1.4l3.5-0.8l3.4,0.5l2.9,2.8l2.8,1.9l5.1-3.4l3.4,1.3
									l1.6,3.9l1.9,2.9l1.6,2.9l3,1.7l2.8,1l0.1-4.7l4.8,1.4l1-5.8l3.7-0.4l4.4,1.9l3.6,0.3l1.3-2.5
									C107.1,54.8,105.2,53.9,103.3,53z"/>
							</g>
							<g>
								<g opacity="0.5">
									<path fill="#60492F" d="M166.9,125.7l-4.4,0.1c-3.8,0.1-7.8,0.3-11.5,0.4c-7.8,0.2-15.2,0.3-22.7,0.4
										c-7.5,0.2-14.7-0.1-21.9,0H95.8c-3.5,0-7-0.1-10.3-0.2c-6.9-0.1-13.4-0.3-19.9-0.5c-6.5-0.3-12.7-0.5-18.6-0.7
										c-3-0.1-6-0.2-8.8-0.3s-5.6-0.3-8.4-0.4c-5.5-0.3-10.5-0.5-15-0.7c-4.8-0.2-9.3-0.6-13.5-0.8c-2.6-0.1-5-0.2-7.3-0.3
										c0,0.8,0.1,1.6,0.1,2.4c2.1,0.2,4.4,0.5,6.7,0.8c2,0.3,4.3,0.6,6.5,0.9c1.1,0.2,2.2,0.3,3.4,0.5c1.2,0.1,2.4,0.3,3.6,0.4
										c4.9,0.5,10,1.1,15.4,1.7c2.8,0.3,5.5,0.6,8.4,0.9s5.9,0.5,8.8,0.8c6,0.5,12,1,18.5,1.6c6.5,0.5,13.1,0.8,20,1.3
										c3.5,0.2,7,0.4,10.4,0.6c3.5,0.1,7.1,0.3,10.6,0.4c3.6,0.2,7.2,0.3,10.9,0.4c1.8,0,3.6,0.1,5.5,0.1h5.6
										c7.6,0,15.1,0.1,22.9,0.1c3.9,0,7.8-0.1,11.6-0.1c1.5,0,3.1-0.1,4.6-0.1C167.3,132.1,167.1,128.9,166.9,125.7z"/>
								</g>
								<g opacity="0.5">
									<path fill="#60492F" d="M148.3,76.3c-4.4-2.6-8.8-5.1-13.4-7.5c-3,0-6-0.1-8.8-0.1c-2.4,0-4.8,0-7.2,0.1
										c-2.4,0.1-4.8,0.1-7.2,0.2c-4.8,0.2-9.5,0.4-14.3,0.7c-4.7,0.3-9.3,0.5-13.9,0.9c-4.7,0.3-9.2,0.6-13.6,1
										c-4.5,0.4-8.8,0.7-13.1,1.1c-1.1,0.1-2.1,0.2-3.2,0.3c-1.1,0.1-2.1,0.2-3.2,0.3c-2.1,0.2-4.3,0.3-6.3,0.5
										c-8.1,0.7-16,1.5-23,1.9c-3.6,0.2-7,0.5-10.2,0.7c-3.2,0.3-6.4,0.6-8.8,0.8c-4.3,0.1-8,0.2-11.3,0.4c0.1,0.7,0.1,1.3,0.2,2
										c3.2,0.1,6.8,0.4,10.6,0.6c3.1,0.2,6.2,0.2,9.4,0.2h10.3c3.6,0,7.5,0,11.2-0.1c3.8-0.1,7.9-0.2,11.9-0.3
										c2-0.1,4.2-0.1,6.3-0.2c1.1,0,2.1-0.1,3.2-0.1s2.1-0.1,3.2-0.1c4.4-0.2,8.8-0.4,13.2-0.6c8.8-0.4,18.1-0.9,27.5-1.3
										c4.8-0.2,9.4-0.3,14.2-0.5c4.7-0.1,9.5-0.2,14.2-0.2c4.7,0,9.4-0.1,14.2,0.1l3.6,0.1h3.5c0.9,0,1.6,0.1,2.3,0.1
										C149.4,76.9,148.9,76.6,148.3,76.3z"/>
								</g>
								<g>
									<path fill="#60492F" d="M-8.2,91.7c0.6,0,1.4,0.1,2,0.1c3.4,0.1,6.8,0.3,10,0.4c3.4,0.2,6.7,0.1,9.8,0.1h4.7
										c0.9,0,1.6-0.1,2.3-0.1c0.7-0.1,1.5-0.1,2.2-0.2c3-0.2,5.6-0.6,8.2-0.9s4.9-0.6,6.9-0.7c2-0.2,3.8-0.2,5.3-0.2
										c1.5,0.1,2.7,0.2,3.4,0.3c0.7,0.1,1.2,0.2,1.2,0.2s-0.4-0.1-1.2-0.4c-0.7-0.2-1.9-0.5-3.4-0.8s-3.3-0.5-5.4-0.6
										c-2.1-0.2-4.5-0.2-7-0.1c-2.6,0.1-5.3,0.2-8.2,0.3h-2.1C19.8,89,19.1,89,18.3,89c-1.5-0.1-3.1-0.1-4.7-0.2
										c-3.2-0.1-6.5-0.3-9.7-0.4c-3.3-0.2-6.7-0.3-10-0.5c-0.9,0-1.6-0.1-2.4-0.1C-8.4,89.1-8.3,90.4-8.2,91.7z"/>
								</g>
							</g>
							<path opacity="0.3" fill="#281D14" enable-background="new    " d="M103.3,53c-1.2-0.5-5.6-2.3-5.9-2.4
								c-1.4-0.5-2.9-1-4.3-1.4c-5.2-1.6-10.4-2.9-15.9-3.8c-0.2,0-0.3-0.1-0.4-0.1c-1-0.1-1.8-0.2-2.8-0.2
								c-3.1-0.2-6.2-0.3-9.3-0.3c-6.7,0-12.9-2.5-17.6-6.4c-5.2-0.4-10.2-1.5-14.9-3.8c-2.4-0.1-5.3-0.1-9.8-0.1
								c-6,0-8.8,0.8-11.9,1.6C7.5,37,4.1,37.9-2.4,37.9c-2,0-3.7,0-5.2-0.1C-8.2,45-9,52.1-9.9,59.3c6.6-0.5,13.2-1.1,20-1.6
								c15.5-1.3,29.3-1.2,43.3,2.5c20,5.2,36.6-2.6,60.5-1.8c0.2,0,0.4,0,0.6,0C110.9,56.5,107.1,54.7,103.3,53z"/>
							<path opacity="0.3" fill="#281D14" enable-background="new    " d="M47.8,163.8c-2.2-3.6-3.4-7.7-3.6-11.8
								c-1.1-0.1-2.1-0.1-3.2-0.2c-15.8-1.1-31-3.2-46.4-5c0.1,6,0.1,12,0.1,18.1c0.9,0.1,1.8,0.1,2.9,0.1c6.3,0,9.5,0.1,12.6,0.2
								c3.1,0.1,6.3,0.2,12.5,0.2c6.3,0,9.4-0.1,12.5-0.1c3.1-0.1,6.3-0.1,12.6-0.1c0.4,0,0.7,0,1.1,0
								C48.5,164.8,48.2,164.3,47.8,163.8z"/>
							<path opacity="0.3" fill="#281D14" enable-background="new    " d="M170.8,160.5c-0.2-0.5-0.4-1.1-0.6-1.7
								c-1.3,1-2.6,1.8-3.9,2.6c1.3,0,2.9,0,4.6,0C170.9,161.1,170.8,160.8,170.8,160.5z"/>
						</g>
					</g>
				</g>
			</g>
		</g>
	</g>
</g>
<g>
	<g>
		<g>
			<g>
				<g>
					<g>
						<defs>
							<rect id="SVGID_4_" x="-61.9" y="-244" width="317.7" height="747.6"/>
						</defs>
						<clipPath id="SVGID_5_">
							<use xlink:href="#SVGID_4_"  overflow="visible"/>
						</clipPath>
						<g clip-path="url(#SVGID_5_)">
							<linearGradient id="SVGID_6_" gradientUnits="userSpaceOnUse" x1="30.6142" y1="170.4" x2="169.7022" y2="170.4">
								<stop  offset="0" style="stop-color:#41342A"/>
								<stop  offset="0" style="stop-color:#5D4430"/>
								<stop  offset="0" style="stop-color:#5E4430"/>
								<stop  offset="1" style="stop-color:#5A4230"/>
								<stop  offset="1" style="stop-color:#41342A"/>
							</linearGradient>
							<path fill="url(#SVGID_6_)" d="M169.4,164.3c0-11.1-2.5-11.8-2.8-21.5c-1.6,0.2-3.2,0.2-4.7,0.1c-7.8,4.1-16.1,6.9-24.5,9.4
								c-7,2.1-14.4,0.6-20.2-3.3c-3.9,2.6-8.6,4.2-13.6,4.2s-9.9-0.5-14.8-1.6c-7.8-1.8-13.6-7.7-16.4-14.9c-1.9-0.1-3.7-0.5-5.6-1
								c-2.1,4.7-5.7,8.7-10.1,11.3c-5.6,3.3-12.5,4.3-18.8,2.6c0.1,4.1,0.3,6.8,0.3,14.5c0,11.9-5.5,11.8-5.5,23.7
								c0,8.9,0.8,11.1,1.3,16.6c30.3-3.2,60.7-3.4,91.3-0.8c4.8,0.4,9.5,0.8,14.3,1.2c9.3,0,18.7,0.1,28.1,0.3
								c-1.7-5.9-5.6-8-5.6-17.2C162.1,176.1,169.4,176.1,169.4,164.3z"/>
							<path opacity="0.3" fill="#261915" enable-background="new    " d="M54.4,182.7l-2.3-3l-0.9-2.8c-4.7-1.4-8.9-3.8-12.6-6.9
								c-0.5,1.6-1.2,3-1.8,4.3c-1.3,2.8-2.6,5.5-2.6,11c0,5.8,0.4,8.6,0.8,11.6c0.2,1.4,0.4,2.8,0.5,4.5c7.3-0.7,14.4-1.3,21.7-1.7
								l-1-0.2l-0.4-3.5l1.9-4l0.3-3.4l-4.7-2.3L54.4,182.7z"/>
							<g opacity="0.3">
								<path fill="#261915" d="M167.4,161.2c0-5.7-0.7-8.4-1.4-11.4c-0.6-2.4-1.2-5-1.4-9c-3.3,2.8-7.1,4.9-11.9,6.2
									c-0.4,0.1-0.8,0.2-1.2,0.3l-0.3,0.8l1,3.3l-2.3,3.4l-1.9,3.3l4.8,3.2l-2.3,3.3l0.4,3.3l0.3,3.3l-0.7,3.3l0.3,3.3l0.7,3.3
									l-2.4,3.3l1.4,3.3l-0.9,3.3l1,3.3l-0.6,3.3l-1.7,3.2l0.2,1.3c5.7,0,11.3,0.1,17,0.2c-0.6-1.8-1.3-3.2-2.1-4.6
									c-1.6-3-3.4-6.4-3.4-12.8c0-6.5,2.1-9.9,4-12.9C165.8,169.1,167.4,166.6,167.4,161.2z"/>
							</g>
							<g>
								<g opacity="0.5">
									<path fill="#60492F" d="M75.5,162.5c-0.1-3.7-0.2-7.4-0.3-11.1c-0.1-3.6-0.3-7.3-0.4-10.9c-0.2-7.2-0.3-14.2-0.4-21.1
										c-3.1-0.6-6-1.6-8.9-2.9v2.7c0,7.1-0.1,14.3-0.1,21.6c0,3.7,0.1,7.3,0.1,11c0.1,3.7,0.1,7.4,0.2,11.1
										c0.1,3.7,0.1,7.4,0.2,11.1c0,3.7,0.1,7.4,0.1,11.1v14.3c3.3-0.1,6.7-0.2,9.9-0.3V185c0-3.8-0.1-7.5-0.2-11.3
										C75.7,169.9,75.6,166.2,75.5,162.5z"/>
								</g>
								<g opacity="0.5">
									<path fill="#60492F" d="M123.2,144L123.2,144c-0.5,8.9-0.8,17.6-1.2,26.1c-0.3,8.4-0.6,16.6-0.8,24.4
										c-0.1,2.1-0.1,4.1-0.2,6c1.3,0.1,2.6,0.2,3.9,0.3c0.6,0.1,1.2,0.1,1.8,0.2c0.2-2.1,0.3-4.1,0.5-6.3
										c0.6-7.8,1.3-15.9,1.9-24.4c0.6-8.5,1.3-17.2,1.9-26.1c0.1-2.2,0.3-4.4,0.4-6.6C128.9,140.1,126.3,142.2,123.2,144z"/>
								</g>
							</g>
							<path opacity="0.3" fill="#281D14" enable-background="new    " d="M161.5,183.7c0-6.5,2.1-9.9,4-12.9
								c1.5-2.5,2.9-4.6,3.3-8.5c-4.5,0.6-9.2,0.3-13.7-1c-4.2-1.2-8.1-3.1-11.6-5.7c0.3,15,0.7,29.9,0.6,45.1
								c7.7,0,15.3,0.1,22.9,0.2c-0.5-1.7-1.3-3.1-2.1-4.4C163.3,193.5,161.5,190.1,161.5,183.7z"/>
							<path opacity="0.3" fill="#281D14" enable-background="new    " d="M60.7,159.3c-3.2-1.9-6.5-3.5-9.8-5.3
								c-4.6-2.5-8.3-6-11.1-10.2c0,3.1,0.1,5.2,0.2,7.2c0.1,2.9,0.2,6,0.2,11.9c0,6.4-1.5,9.6-3,12.7c-1.3,2.8-2.6,5.5-2.6,11
								c0,5.8,0.4,8.6,0.8,11.6c0.1,0.6,0.2,1.3,0.3,2c0.2,1.5,1.5,2.5,2.9,2.4c5.9-0.6,11.9-1,17.8-1.3c1.2-0.1,2.2-0.9,2.4-2
								c2-8.4,3.5-17.3,3.8-27.5c0.1-3.4,0.1-6.7,0-10.1C62,160.9,61.4,160.1,60.7,159.3z"/>
							<g>
								<g>
									<g>
										<path opacity="0.5" fill="#262626" enable-background="new    " d="M135.2,172.9c0,0-0.4-0.6-1.9-0.4"/>
										<path opacity="0.5" fill="#262626" enable-background="new    " d="M129,177.6c-0.3,0.3,0.5,3,0.5,3"/>
									</g>
								</g>
							</g>
						</g>
					</g>
				</g>
			</g>
		</g>
	</g>
</g>
<polyline fill="#261915" points="93.7,113.7 94.1,117 94.4,120.3 "/>
<path opacity="0.3" fill="#281D14" enable-background="new    " d="M158.7,90.5c-1-1.3-1.9-2.7-2.7-4.2c-1.3,0.8-2.9,1.3-4.8,1.3
	c-1.4,0-2.6,0-3.6-0.4l0,0c-0.7,23.2-1.7,46-2.6,69.2l0,0c4.6-1.5,9.3-3.4,14-4.9c0.3-0.1,0.7-0.2,1-0.4
	C159,131.7,158.7,110.9,158.7,90.5z"/>
<path opacity="0.3" fill="#281D14" enable-background="new    " d="M153.5,92.1c-5.4-5.2-10.7-10.6-16.1-16.1
	c-7.3-2.9-13.9-6.5-19.7-12.3c-0.2-0.2-0.4-0.5-0.7-0.7c-2.3-1-4.4-2.1-6.4-3.4c-0.9,0.8-1.7,1.5-2.6,2l0,0
	c15.4,17.3,30.4,34.5,45.7,52l0,0c0.7-1.3,1.4-2.6,2-4C154.7,103.9,154.1,98,153.5,92.1z"/>
</svg>
