<?xml version="1.0" encoding="utf-8"?>
<!-- Generator: Adobe Illustrator 18.0.0, SVG Export Plug-In . SVG Version: 6.00 Build 0)  -->
<!DOCTYPE svg PUBLIC "-//W3C//DTD SVG 1.1//EN" "http://www.w3.org/Graphics/SVG/1.1/DTD/svg11.dtd">
<svg version="1.1" id="Layer_1" xmlns="http://www.w3.org/2000/svg" xmlns:xlink="http://www.w3.org/1999/xlink" x="0px" y="0px"
	 viewBox="0 0 165.7 166.5" enable-background="new 0 0 165.7 166.5" xml:space="preserve">
<g>
	
		<linearGradient id="SVGID_1_" gradientUnits="userSpaceOnUse" x1="9379.9785" y1="16.7183" x2="9519.6699" y2="16.7183" gradientTransform="matrix(-1 0 0 -1 9532.418 168)">
		<stop  offset="0" style="stop-color:#41342A"/>
		<stop  offset="0.165" style="stop-color:#544132"/>
		<stop  offset="0.425" style="stop-color:#4B3B2E"/>
		<stop  offset="0.575" style="stop-color:#5A4230"/>
		<stop  offset="0.805" style="stop-color:#5E4430"/>
		<stop  offset="1" style="stop-color:#41342A"/>
	</linearGradient>
	<path fill="url(#SVGID_1_)" stroke="#3D2F26" stroke-miterlimit="10" d="M93.6,166.4c1.1-0.2,2.3-0.3,3.4-0.4
		c2.2-0.2,4.3-0.1,6.3,0.4h48.4c0-0.1,3.7-18.5-5-26.5c-9.6-8.8-15.3,0.3-28.3,0.3c-13,0-13,0.7-26,0.7c-13,0-13,5.4-26,5.4
		s-13-3.2-26-3.2c-13,0-18.8-11.1-25,0.3c-4.8,8.8-1.4,22.8-1.4,22.9H93.6z"/>
	
		<linearGradient id="SVGID_2_" gradientUnits="userSpaceOnUse" x1="9456.4141" y1="155.6523" x2="9456.4141" y2="15.8462" gradientTransform="matrix(-1 0 0 -1 9532.418 168)">
		<stop  offset="0" style="stop-color:#41342A"/>
		<stop  offset="8.753464e-02" style="stop-color:#5A4230"/>
		<stop  offset="0.9189" style="stop-color:#5E4430"/>
		<stop  offset="0.9311" style="stop-color:#5A4230"/>
		<stop  offset="0.9853" style="stop-color:#544132"/>
		<stop  offset="1" style="stop-color:#4B3B2E"/>
		<stop  offset="1" style="stop-color:#41342A"/>
	</linearGradient>
	<path fill="url(#SVGID_2_)" d="M0.1,13c6.5,0,7.5,0.2,15.6,0.2c9.2,0,9.2-1.5,18.5-1.5c9.2,0,9.2,1.5,18.5,1.5
		c9.2,0,9.2-2.1,18.5-2.1c9.2,0,9.2,1.9,18.5,1.9c9.2,0,17.1,7,24.7,12.1c6.8,6.2,13.7,15,16.7,20.3c4.8,0,11.2,2.7,15.7,36.9
		c2.6,19.4-0.1,39,0.5,52.5c0.3,8.2,3.6,14.3,4.8,16.6c-9.2,0-16.2,0.8-25.5,0.8c-9.2,0-9.2-1.5-18.5-1.5c-9.2,0-9.2,1.7-18.5,1.7
		c-9.2,0-9.2-1.8-18.5-1.8c-9.2,0-9.2,2.3-18.5,2.3s-9.2,0.6-18.5,0.6s-9.2-1.6-18.5-1.6c-8.2,0-9.1,0.9-15.6,1.1L0.1,13L0.1,13z"/>
	
		<linearGradient id="SVGID_3_" gradientUnits="userSpaceOnUse" x1="9381.8809" y1="20.2467" x2="9520.2764" y2="20.2467" gradientTransform="matrix(-1 0 0 -1 9532.418 168)">
		<stop  offset="0" style="stop-color:#41342A"/>
		<stop  offset="2.001232e-02" style="stop-color:#554132"/>
		<stop  offset="5.332586e-02" style="stop-color:#5E4430"/>
		<stop  offset="0.9521" style="stop-color:#5A4230"/>
		<stop  offset="1" style="stop-color:#41342A"/>
	</linearGradient>
	<path fill="url(#SVGID_3_)" d="M18.3,172.7c6.2-1.8,12.1-2.4,18.2-1.9c8.2-1.7,15.9-1.6,24.2-0.6c2.2,0.3,4.3,0.9,6.4,1.8
		c5.3-0.1,10.6-0.2,15.8-0.3c4.2-1.2,8.4-2.3,12.8-2.9c3.4-0.5,6.7,0.4,9.7,2.4c13.5-0.4,27-0.7,40.5-0.8c1.3-5.8,2.9-10.9,4.4-16.3
		c0.8-2.7-2.8-6.2-3.8-8.5c-2.6-5.7-5.5-9.8-10.5-13.1c-7.7-5.1-58.9-17.3-63.4-2.5c-2,6.8-24.7,6.5-30.4,9.8
		c-5.7,3.3-21.3-1.6-24.6-1.6c-3.3,0-6.5,13.2-5.3,18.4C13.3,160.6,17,168.2,18.3,172.7z"/>
	<path opacity="0.3" fill="#281D14" enable-background="new    " d="M146.9,137.5c1.4-9.8,2.3-44.5,0-52.9c0.5-9.7-6.2-33.3-16-39
		c-15.5-24-30.6-29.5-46.5-33.3C68.6,8.4,60.7,15.7,47.1,13c-13.6-2.8-24.9-0.1-32.7,0.3C6.5,13.6,0,15.1,0,15.1v25
		c0,0,33.7-9.6,41.6-8.6s34.5-3.5,39.7-2.8c5.2,0.8,9.6,1.2,9.8,2.5s3.5,3.5,15.8,10.2s20,37.5,22.1,44.2c2.1,6.8-0.9,30-4.2,36
		s0,30.5,0,30.5c0,1.3-0.7,2.7-1.6,4c3.1,2.7,5.6,6.2,7.1,10.2h13.2c0-0.1,6.1,0.1,6.1,0c0-3.5,0.6-11.4,0.7-15.6L146.9,137.5z"/>
	<path opacity="0.3" fill="#261915" enable-background="new    " d="M146.7,139.1c0,0,0.7-8.8,1.5-26.3
		c1.2-51.8-13.8-63.5-17.2-67.2c-3.5-3.7-0.8-9.3-23-24.8c-22.2-15.5-53-4.5-69.5-8.8C26.7,12,0,15.1,0,15.1v17.3l4.2-1.7l4.6-5.2
		l1.6-4.5l1.1-0.8l7.6-1.5l9.3-0.2l4.7,2.5l6.2,1.2l5.9-3l5.6,3.5l5.5-2.8l8-2.8l1.7,3l5.8,1c0,0,2.2-2.5,4.3-2.8l10.2,1.2l3,3
		l10.7,1.8l3.2,4.2l10.2,2.8v5l2.2,1.6l8.8,5.9l1.2,4.8l3.1,7.2l4.6,5.2l-4.6,4.8l3.6,8.7l0.2,7.7l0.2,6.4l1,10l-1.8,9l-0.9,3.2
		c0,0,1.3,3.4,1.2,3.8c-0.1,0.3,1.7,2.8,1.7,2.8l-5.3,2.2v7.9l-1.2,5.9c0,0-0.3,3.6-0.3,3.9s2.7,7.7,2.7,7.7l-1.2,2
		c5.9,4.5,9.8,11.5,10,19.3h4.7c0-0.1,6.1,0.1,6.1,0c0-3.3,0.3-9.1,0.6-12.6C151.4,144.4,146.7,139.1,146.7,139.1z"/>
	<g>
		<path opacity="0.3" fill="#281D14" enable-background="new    " d="M42.3,153.5c-2,0.1-4.2,0.2-8.1,0.2c-9.2,0-9.2-1.6-18.5-1.6
			c-0.3,0-0.7,0-1,0c0.3,0.6,1.1,14.2,1.1,14.3h22.7c0.4-3.4,2.8-5.6,5.1-7.5C43,157.2,42.5,155.4,42.3,153.5z"/>
		<g opacity="0.3">
			<path fill="#261915" d="M31,166.4H15.7c0-0.1,0.3-8.1-0.7-12.3c-0.2-0.8,0-1.4-0.3-1.9c0.3,0,0.6,0,1,0c7,0,8.7,0.9,13.1,1.3
				l1.1,2.3l3,2.9l-2.7,3.9L31,166.4z"/>
		</g>
	</g>
	<path opacity="0.3" fill="#281D14" enable-background="new    " d="M43.2,149.3c-2.7-3.1-4.7-6.9-5.6-11c-3.5-2.5-6.3-5.9-8.2-9.8
		c-1.9-0.4-3.7-1-5.5-1.7c-3.1-0.4-6.1-1.4-8.8-2.9c-2.3,0.7-4.7,1.1-7.1,1.1c-2.8,0-5.4-0.5-7.9-1.3v29.5c6.5-0.2,7.5-1.1,15.6-1.1
		c9.2,0,9.2,1.6,18.5,1.6c5.1,0,7.4-0.2,10-0.3C43.7,152,43.4,150.7,43.2,149.3z"/>
	<path opacity="0.3" fill="#261915" enable-background="new    " d="M32,149.7l-1.8-1.6v-3c0,0-1.3-2.2-1.8-2.3
		c-0.4-0.1-3.8-3.2-3.9-3.4c-0.1-0.2-3-1.5-3.3-1.6c0,0,0,0-0.1,0c-4.2,3.2-9.4,5.2-15.1,5.2c-2,0-4-0.3-5.9-0.7c0,4.3,0,11,0,11
		c6.5-0.2,7.5-1.1,15.6-1.1c7,0,8.7,0.9,13.1,1.3l-0.5-1.1L32,149.7z"/>
	<path fill="none" stroke="#3D2F26" stroke-width="4" stroke-miterlimit="10" d="M0.1,153c1.9,0,6.6-0.5,12.7-0.8"/>
	<path fill="#3D2F26" stroke="#3D2F26" stroke-miterlimit="10" d="M12.1,150.2c1.6-0.4,3,1,2.6,2.6c-0.2,0.8-0.8,1.4-1.6,1.6
		c-1.6,0.4-3-1-2.6-2.6C10.7,151,11.4,150.4,12.1,150.2z"/>
	
		<radialGradient id="SVGID_4_" cx="9480.7188" cy="55.0049" r="114.2751" gradientTransform="matrix(-1 0 0 -1 9532.418 168)" gradientUnits="userSpaceOnUse">
		<stop  offset="1" style="stop-color:#41342A;stop-opacity:0"/>
		<stop  offset="1" style="stop-color:#41342A;stop-opacity:0.9749"/>
		<stop  offset="1" style="stop-color:#41342A"/>
	</radialGradient>
	<path fill="url(#SVGID_4_)" d="M71.1,23.1C0,23.1,11.6,50.2,11.6,83.7c0,5.1-0.5,10.1-1,14.9c1.5,3.2,2.4,6.7,2.4,10.5
		c0,4.3-1.1,8.4-3.1,11.9c2.5,14.2,15.1,23.3,61.2,23.3c33.5,0,60.6-27.1,60.6-60.6C131.7,50.2,104.5,23.1,71.1,23.1z"/>
	<path fill="#261915" d="M23.5,149.4"/>
	<path fill="none" stroke="#3D2F26" stroke-width="4" stroke-miterlimit="10" d="M12.8,152.2c-0.1,2.3,1.1,2.4,1.1,14.3"/>
	<path fill="none" stroke="#3D2F26" stroke-width="4" stroke-miterlimit="10" d="M151.8,165.4C153,156,154,147,147,140
		c2-27,3-56-6-82c-1-3-4-6-6-9c-2-2-4-3-5-5C116,18,85,6,57,13c-19-1-38-2-57,2.1"/>
	<g>
		<g>
			<path fill="#60492F" d="M116.9,128.2c0,0-0.3-0.6-0.1-1.7c0.2-1.1,0.8-2.6,1.6-4.4c0.4-0.9,0.8-1.9,0.9-3c0.1-0.6,0-1.2,0-1.8
				c-0.1-0.6-0.2-1.2-0.4-1.9c-0.7-2.6-2.5-5.1-4.2-8.2c-0.2-0.4-0.4-0.8-0.6-1.2c-0.1-0.2-0.2-0.4-0.3-0.7l-0.2-0.6
				c-0.2-0.4-0.3-0.8-0.5-1.3c-0.1-0.5-0.3-1-0.4-1.5c-0.5-2-0.7-4-0.8-6c-0.2-4.1,0.2-8.3-0.3-12.3c-0.3-2-0.8-3.9-1.7-5.8
				l-0.7-1.3l-0.9-1.4c-0.6-0.9-1.2-1.9-1.8-2.9c-0.6-0.9-1.3-1.7-2-2.6c-0.7-0.9-1.3-1.8-2.1-2.6l-2.2-2.5
				c-0.7-0.8-1.6-1.6-2.4-2.3c-1.6-1.6-3.3-3-5.1-4.4c-0.9-0.7-1.8-1.3-2.7-2c-0.9-0.6-1.8-1.3-2.8-1.9c-3.8-2.4-7.6-4.4-11.5-6.3
				c-3.9-2-7.5-3.8-11.2-5c-0.4-0.2-0.9-0.3-1.4-0.4c-0.4-0.1-1-0.3-1.3-0.4c-0.9-0.2-1.9-0.4-2.8-0.6c-1.8-0.4-3.6-0.8-5.3-1.1
				c-1.7-0.2-3.3-0.4-4.9-0.6c-0.8-0.1-1.5-0.2-2.3-0.3c-0.7-0.1-1.5-0.1-2.2-0.2c-1.4-0.1-2.7-0.2-3.9-0.3
				c-1.2-0.1-2.3-0.2-3.3-0.2c-4-0.2-6.4-0.4-6.4-0.4s2.3-0.2,6.4-0.4c2-0.2,4.5-0.1,7.3-0.2c0.7,0,1.4,0,2.2,0
				c0.8,0,1.5,0.1,2.3,0.1c1.6,0.1,3.3,0.2,5,0.3c1.8,0.1,3.5,0.5,5.4,0.7c0.9,0.1,1.9,0.3,2.8,0.4c0.6,0.1,1,0.2,1.5,0.3
				c0.5,0.1,1,0.2,1.5,0.4c4,1.1,7.9,2.8,11.8,4.7c1,0.5,2,0.9,3,1.4c1,0.5,2,1,3,1.5c2.1,0.9,4,2.2,6.1,3.3c1,0.6,1.9,1.3,2.9,1.9
				c1,0.7,2,1.3,2.9,2.1c1.8,1.5,3.7,2.9,5.4,4.6c3.5,3.2,6.5,7,9.2,10.9c0.6,1,1.2,1.9,1.8,2.9l0.9,1.4c0,0,0.1,0.2,0.1,0.1l0,0.1
				l0.1,0.1l0.1,0.2l0.2,0.4l0.4,0.8c1,2.2,1.6,4.6,1.8,6.9c0.3,2.3,0.2,4.5,0.1,6.6c-0.1,2.1-0.3,4.1-0.3,6c0,1.9,0.1,3.8,0.4,5.5
				c0.1,0.4,0.2,0.8,0.2,1.2c0.1,0.4,0.3,0.9,0.4,1.3l0.2,0.6l0.2,0.5c0.1,0.4,0.3,0.8,0.5,1.2c0.7,1.5,1.5,3,2.2,4.5
				c0.7,1.5,1.2,3,1.5,4.4c0.2,0.7,0.2,1.5,0.2,2.2c0,0.7-0.1,1.4-0.2,2c-0.2,1.4-0.8,2.4-1.3,3.3c-1,1.8-1.8,3.1-2.1,4.1
				C116.7,127.6,117,128.2,116.9,128.2z"/>
		</g>
		<g>
			<path fill="#60492F" d="M61.1,114.1c0,0,0-0.3,0.1-0.7c0.1-0.5,0-1.2,0-2c-0.1-0.4-0.1-0.9-0.2-1.4c-0.1-0.5-0.2-1.1-0.4-1.6
				c-0.3-1.1-0.7-2.4-1.4-3.6c-0.2-0.3-0.4-0.6-0.5-0.9l-0.1-0.1l0-0.1l0,0c0-0.1,0.1,0.1,0,0.1l0,0l-0.2-0.2L58,103
				c-0.3-0.3-0.5-0.4-0.7-0.7c-0.3-0.3-0.7-0.5-1-0.8c-0.2-0.2-0.4-0.4-0.6-0.6c-0.2-0.3-0.4-0.6-0.5-0.8c-0.2-0.6-0.5-1.2-0.5-1.7
				l-0.1-0.8l-0.1-0.7c0-0.5-0.1-0.9-0.1-1.4c-0.2-1.9-0.4-3.8-0.8-5.4c-0.4-1.7-1.3-3.1-2.4-4.4l-0.8-0.9l-1.2-1
				c-0.7-0.5-1.4-1-2.2-1.5c-0.8-0.5-1.6-0.9-2.4-1.3c-0.8-0.4-1.7-0.8-2.5-1.1c-1.7-0.7-3.4-1.3-5-1.8c-0.8-0.2-1.6-0.5-2.4-0.7
				c-0.8-0.2-1.5-0.4-2.2-0.6c-1.5-0.3-2.8-0.6-4-0.9c-1.2-0.2-2.3-0.5-3.1-0.6c-1.8-0.3-2.8-0.5-2.8-0.5s0.3,0,0.7-0.1
				c0.5-0.1,1.2-0.2,2.1-0.2c0.9-0.1,2-0.1,3.2-0.1c1.3,0,2.7,0,4.2,0.2c1.5,0.1,3.2,0.3,5,0.6c1.8,0.3,3.6,0.8,5.5,1.4
				c1.9,0.6,3.8,1.4,5.7,2.5c0.9,0.5,1.9,1.2,2.8,1.8l1.2,1l0.1,0.1l0.1,0.1l0,0L53,82l0.3,0.3l0.6,0.6c1.5,1.7,2.8,3.9,3.2,6.1
				c0.5,2.2,0.5,4.3,0.6,6.1c0,0.5,0,0.9,0,1.4l0,0.7l0,0.5c0,0.4,0.1,0.6,0.2,0.9C58,98.8,58,98.9,58,99c0.1,0.1,0.2,0.2,0.2,0.3
				c0.3,0.3,0.6,0.6,0.9,0.9c0.3,0.3,0.7,0.8,1,1.2l0.3,0.5l0.2,0.3l0,0c0,0,0.1,0.1,0.1,0.1l0,0l0,0.1l0.1,0.2
				c0.2,0.4,0.4,0.8,0.5,1.2c0.6,1.6,0.7,3,0.8,4.3c0,0.6,0,1.2,0,1.8c-0.1,0.6-0.1,1.1-0.2,1.5c-0.2,0.9-0.4,1.6-0.6,2
				C61.2,113.9,61.1,114.1,61.1,114.1z"/>
		</g>
		<g>
			<path fill="#60492F" d="M74.9,77.5c0,0,0-0.1-0.1-0.3c0-0.2-0.1-0.6-0.2-1c0-0.2-0.1-0.4-0.1-0.6c-0.1-0.2-0.1-0.5-0.2-0.7
				c-0.2-0.5-0.4-1.1-0.7-1.6c-0.3-0.6-0.7-1.1-1.2-1.7c-0.5-0.6-1-1.1-1.6-1.7c-1.2-1.1-2.6-2.1-4.2-3c-3-1.9-6.4-3.6-8.8-5
				c-1.2-0.7-2.2-1.4-2.9-1.9c-0.7-0.5-1-0.8-1-0.8s0.5,0.1,1.3,0.3c0.8,0.2,2,0.5,3.3,0.9c2.7,0.8,6.4,2,9.7,4.1
				c0.8,0.5,1.6,1.1,2.4,1.7c0.8,0.6,1.5,1.3,2.1,2c0.6,0.7,1.2,1.5,1.6,2.3c0.4,0.8,0.7,1.6,0.9,2.3c0.1,0.4,0.2,0.7,0.2,1.1
				c0,0.4,0.1,0.7,0,1c0,0.3,0,0.6,0,0.9c0,0.3-0.1,0.5-0.1,0.7c-0.1,0.4-0.2,0.7-0.3,0.9C75,77.4,74.9,77.5,74.9,77.5z"/>
		</g>
	</g>
	<g>
		<g>
			<path opacity="0.5" fill="#262626" enable-background="new    " d="M101.7,47.7c-0.1,1.8-2.3,5.2-2.3,5.2s-1.1,2.8-2.4,2.4
				c-1.4-0.4-4.3-1.7-4.8-2.4c-0.5-0.7-3-3.8,0.4-6.6c1.3-1,3.1-0.9,4.2-1.1S101.8,45.4,101.7,47.7z"/>
			<g>
				<path fill="#808080" stroke="#4D4D4D" stroke-width="2" stroke-miterlimit="10" d="M97.7,52.3c-1,2.2-2-1-2.5-0.1
					c-0.5,0.9-3.2-1.3-2.4-3.2c0.8-1.8,3-2.7,3-3.2c0-0.5,5.2-1.1,5.4,0.8s-2,4.1-2,4.1L97.7,52.3z"/>
				<path fill="#A5A5A5" d="M96.9,48.3c1-0.8,2.6-1.4,2.6-0.9c0,0.5-1.6,2.4-1.6,2.4l-1.4,0.9l-0.8-2L96.9,48.3z"/>
			</g>
		</g>
		<g>
			<path opacity="0.5" fill="#262626" enable-background="new    " d="M80.6,52.8c9.4-0.9,7.9-4.3,6.8-9c-0.1-1.1-0.3-2.4-0.6-3.8
				c-0.7-7-3.8-13.3-9.4-18.8L77,20.9L76.5,21c-16,4.9-15.9,6.4-7.4,20.5l11,11.3L80.6,52.8z"/>
			<g>
				<path fill="#808080" stroke="#4D4D4D" stroke-width="2" stroke-miterlimit="10" d="M80.9,21.4c10.6,7.1,7.7,17.8,9.9,23.1
					c2.2,5.4-6.3,6.2-6.3,6.2L74.2,40.1c0,0-8.2-13.8-5.2-14.9C71.9,24.2,80.9,21.4,80.9,21.4z"/>
				<path fill="#A5A5A5" stroke="#4D4D4D" stroke-miterlimit="10" d="M79.4,24.7l6.1,14.7c0,0-2.4,2.5-3.2,3.7c-0.8,1.2-6.7-5-6.7-5
					l-2.2-10.6L79.4,24.7z"/>
				<path fill="#A09D9A" stroke="#4D4D4D" stroke-miterlimit="10" d="M85.5,39.4l5.5,5.9c0,0-1.2-19.8-10.1-23.9l-1.5,3.3L85.5,39.4
					z"/>
				<path fill="#686868" stroke="#4D4D4D" stroke-miterlimit="10" d="M81.8,43.3c0.3,2.3,1.2,4.5,1.6,6.6c0,0,1.4,1.1,3.1,0.5
					c1.7-0.6,5-2.3,4.6-4.1c-0.4-1.7-5.6-6.9-5.6-6.9L81.8,43.3z"/>
			</g>
		</g>
		<g>
			<path opacity="0.5" fill="#262626" enable-background="new    " d="M98,40.7c0.3,0.3-0.4,3.1-0.4,3.1l-6.4-2.5l0.4-5
				c0,0,0.4-0.6,1.9-0.5c1.5,0.1,4.5,1.7,4.5,1.7L98,40.7z"/>
			<path fill="#808080" stroke="#4D4D4D" stroke-width="2" stroke-miterlimit="10" d="M93.3,36.9c0,0,4.6-0.2,4.6,0.7
				c0.1,0.8-0.6,4.3-0.6,4.3l-4.5-1.8L93.3,36.9z"/>
		</g>
	</g>
</g>
<linearGradient id="SVGID_5_" gradientUnits="userSpaceOnUse" x1="9400.9053" y1="79.0267" x2="9557.8135" y2="79.0267" gradientTransform="matrix(-1 0 0 -1 9532.418 168)">
	<stop  offset="0" style="stop-color:#41342A"/>
	<stop  offset="2.001232e-02" style="stop-color:#554132"/>
	<stop  offset="5.332586e-02" style="stop-color:#5E4430"/>
	<stop  offset="0.9521" style="stop-color:#5A4230"/>
	<stop  offset="1" style="stop-color:#41342A"/>
</linearGradient>
<path fill="url(#SVGID_5_)" d="M127.1,87.7c-3-3.8-6.3-6.5-11.9-8.7c-8.7-3.4-66.8-11.6-71.8-1.7c-2.3,4.5-28,4.3-34.4,6.6
	c-2.2,0.8-5.7,0.9-9.5,0.7c0.2,1.9,0.1,3.9,0,5.8c0.3,4.1,0.3,8.2,0.3,12.4c0,0.6,0,1.2,0,1.8c0.9,0,1.8,0.1,2.6,0.1
	c9.3-1.2,18-1.1,27.5-0.4c2.5,0.2,4.9,0.6,7.2,1.2c6-0.1,12-0.1,18-0.2c4.8-0.8,9.6-1.5,14.5-2c3.9-0.4,7.6,0.3,11,1.6
	c15.3-0.2,30.6-0.5,45.9-0.5c1.5-3.9,3.3-7.3,5-10.9C132.3,91.6,128.3,89.3,127.1,87.7z"/>
</svg>
