<!DOCTYPE svg PUBLIC '-//W3C//DTD SVG 1.1//EN' 'http://www.w3.org/Graphics/SVG/1.1/DTD/svg11.dtd'>
<svg xmlns="http://www.w3.org/2000/svg" xml:space="preserve" version="1.1" xmlns:xlink="http://www.w3.org/1999/xlink" viewBox="0 0 47.035 47.161" enable-background="new 0 0 47.035 47.161">
	<linearGradient id="a" y2="39.89" gradientUnits="userSpaceOnUse" y1="1.354" x2="27.14" x1="18.365">
		<stop stop-color="#8BBB44" offset=".0018"/>
		<stop stop-color="#6A872A" offset="1"/>
	</linearGradient>
	<path d="m45.82 24.589c0-1.565-0.979-2.894-2.354-3.43 0.061-0.201 0.104-0.411 0.104-0.633 0-0.119-0.017-0.233-0.035-0.347 0.482-0.467 0.785-1.117 0.785-1.841 0-0.679-0.269-1.292-0.699-1.75 0.431-0.458 0.699-1.071 0.699-1.75 0-0.958-0.531-1.782-1.31-2.222 0.771-0.348 1.31-1.119 1.31-2.02 0-0.301-0.062-0.586-0.17-0.848 1.477-0.504 0.445-1.694 0.445-2.684 0-0.378-0.111-0.8-0.332-1.177 0.157-0.312 0.254-0.66 0.254-1.033 0-1.277-1.035-2.312-2.312-2.312-0.743 0-1.397 0.357-1.82 0.902-0.404-0.545-1.046-0.902-1.776-0.902-0.68 0-1.281 0.312-1.688 0.795-0.406-0.482-1.007-0.795-1.688-0.795-0.782 0-1.466 0.408-1.86 1.02-0.415-0.615-1.119-1.02-1.918-1.02-0.906 0-1.682 0.525-2.062 1.285-0.263-0.292-0.64-0.479-1.063-0.479-0.075 0-0.148 0.011-0.221 0.022-0.555-1.334-1.869-2.272-3.404-2.272-1.083 0-2.048 0.476-2.723 1.22-0.371-0.29-0.832-0.47-1.34-0.47-0.382 0-0.735 0.106-1.048 0.278-0.345-0.173-0.728-0.278-1.14-0.278-0.679 0-1.291 0.269-1.75 0.699-0.458-0.431-1.071-0.699-1.75-0.699-1.104 0-2.036 0.702-2.396 1.682-0.397-0.596-1.074-0.988-1.844-0.988-0.602 0-1.146 0.242-1.545 0.631-0.687-0.801-1.696-1.322-2.837-1.322-2.071 0-3.75 1.679-3.75 3.75 0 0.808 0.261 1.551 0.694 2.162-0.264 0.363-0.432 0.801-0.432 1.285 0 0.68 0.312 1.281 0.795 1.688-0.482 0.406-0.795 1.008-0.795 1.688 0 0.782 0.408 1.467 1.02 1.86-0.615 0.415-1.02 1.12-1.02 1.918 0 0.886 0.506 1.642 1.238 2.029v0.085c-0.263 0.26-0.432 0.613-0.432 1.011 0 0.075 0.011 0.148 0.022 0.221-1.333 0.555-2.272 1.869-2.272 3.404 0 1.083 0.476 2.048 1.22 2.724-0.29 0.371-0.47 0.832-0.47 1.339 0 0.382 0.106 0.735 0.278 1.048-0.173 0.345-0.278 0.729-0.278 1.14 0 0.679 0.269 1.292 0.699 1.75-0.431 0.458-0.699 1.071-0.699 1.75 0 1.104 0.702 2.036 1.682 2.397-0.596 0.396-0.988 1.074-0.988 1.844 0 0.602 0.242 1.145 0.631 1.544-0.804 0.688-1.324 1.697-1.324 2.839 0 2.07 1.679 3.75 3.75 3.75 0.818 0 1.57-0.27 2.187-0.715 0.132 0.024 0.266 0.041 0.404 0.041 0.681 0 1.281-0.312 1.688-0.795 0.406 0.482 1.008 0.795 1.688 0.795 0.544 0 1.036-0.203 1.422-0.529 0.247 0.097 0.513 0.154 0.794 0.154 0.365 0 0.704-0.098 1.007-0.256 0.311 0.91 1.163 1.568 2.179 1.568 0.92 0 1.708-0.541 2.08-1.318 0.726 1.145 1.996 1.911 3.452 1.911 1.722 0 3.189-1.065 3.794-2.571 0.467 0.629 1.208 1.041 2.051 1.041 0.679 0 1.292-0.269 1.75-0.699 0.459 0.431 1.071 0.699 1.75 0.699 0.848 0 1.594-0.416 2.06-1.051h0.304c0.391 0.629 1.083 1.051 1.878 1.051 0.301 0 0.587-0.062 0.849-0.17 0.503 1.477 3.996 1.177 5.319 0.196 2.25-1.667 1.563-3.822 0.961-4.24 0.488-0.406 0.806-1.01 0.806-1.695 0-0.68-0.312-1.281-0.795-1.688 0.482-0.406 0.795-1.008 0.795-1.688 0-0.744-0.371-1.4-0.934-1.803 0.672-0.404 1.127-1.133 1.127-1.976 0-0.939-0.562-1.744-1.367-2.106 0.262-0.26 0.424-0.62 0.424-1.019 0-0.075-0.011-0.148-0.022-0.222 1.33-0.554 2.268-1.867 2.268-3.403z" fill="url(#a)"/>
	<g fill="#B6CC5C">
		<path d="m2.294 26.255c0.047 0.001 0.093 0.005 0.14 0.007-0.008-0.076-0.008-0.155-0.012-0.233-0.04 0.077-0.097 0.144-0.128 0.226z"/>
		<path d="m42.205 2.544c-0.743 0-1.397 0.357-1.82 0.902-0.404-0.545-1.046-0.902-1.776-0.902-0.68 0-1.281 0.312-1.688 0.795-0.406-0.482-1.007-0.795-1.688-0.795-0.782 0-1.466 0.408-1.86 1.02-0.415-0.615-1.119-1.02-1.918-1.02-0.906 0-1.682 0.525-2.062 1.285-0.263-0.292-0.64-0.479-1.063-0.479-0.075 0-0.148 0.011-0.221 0.022-0.555-1.334-1.869-2.272-3.404-2.272-1.083 0-2.048 0.476-2.723 1.22-0.371-0.29-0.832-0.47-1.34-0.47-0.382 0-0.735 0.106-1.048 0.278-0.345-0.173-0.728-0.278-1.14-0.278-0.679 0-1.291 0.269-1.75 0.699-0.458-0.431-1.071-0.699-1.75-0.699-1.104 0-2.036 0.702-2.396 1.682-0.397-0.596-1.074-0.988-1.844-0.988-0.602 0-1.146 0.242-1.545 0.631-0.687-0.803-1.696-1.324-2.837-1.324-2.071 0-3.75 1.679-3.75 3.75 0 0.808 0.261 1.551 0.694 2.162-0.264 0.363-0.432 0.801-0.432 1.285 0 0.68 0.312 1.281 0.795 1.688-0.482 0.406-0.795 1.008-0.795 1.688 0 0.782 0.408 1.467 1.02 1.86-0.615 0.415-1.02 1.12-1.02 1.918 0 0.886 0.506 1.642 1.238 2.029v0.085c-0.263 0.26-0.432 0.613-0.432 1.011 0 0.075 0.011 0.148 0.022 0.221-1.333 0.555-2.272 1.869-2.272 3.404 0 0.974 0.398 1.84 1.017 2.499-0.63-1.935 0.017-5.216 3.287-5.216-0.157-0.361-0.246-0.759-0.246-1.178 0-0.489 0.129-0.944 0.343-1.349 0.957-1.267 2.548-1.987 4.224-1.711 0.225 0.037 0.437 0.105 0.646 0.176-0.459-0.528-1.086-0.91-1.828-1.032-1.222-0.202-2.384 0.343-3.051 1.291-0.211-0.616-0.334-1.273-0.334-1.961 0-0.765 0.146-1.494 0.403-2.167 0.003 0.011 0.003 0.022 0.006 0.034 0.087-0.262 0.198-0.512 0.322-0.752 0.036-0.066 0.076-0.131 0.114-0.195 0.078-0.136 0.163-0.266 0.252-0.393 0.063-0.091 0.125-0.183 0.192-0.27 1.049-1.319 2.701-2.118 4.51-1.977 0.101 0.008 0.198 0.025 0.296 0.042-0.442 0.844-0.542 1.86-0.166 2.816 0.125 0.316 0.302 0.592 0.503 0.846-0.282-2.143 0.896-4.283 2.999-5.111 0.23-0.09 0.468-0.143 0.702-0.197-0.724-0.234-1.524-0.243-2.286 0.057-0.712 0.28-1.265 0.778-1.638 1.383-0.537-0.403-1.18-0.676-1.899-0.732-1.271-0.1-2.441 0.455-3.185 1.379-0.077-0.262-0.13-0.535-0.13-0.823 0-1.645 1.334-2.978 2.979-2.978 0.791 0 1.506 0.313 2.039 0.817 0.464-0.5 1.12-0.817 1.855-0.817 0.804 0 1.511 0.38 1.977 0.963 0.458-1.009 1.469-1.713 2.648-1.713 0.75 0 1.426 0.291 1.942 0.756 0.537-0.905 1.515-1.519 2.644-1.519 0.926 0 1.746 0.416 2.312 1.062 0.455-0.193 0.955-0.3 1.479-0.3 1.247 0 2.341 0.61 3.03 1.539 0.006 0.036 0.019 0.075 0.025 0.112-1.472 0.27-2.645 1.482-2.775 3.045-0.028 0.34 0.009 0.665 0.077 0.981 0.695-2.046 2.699-3.444 4.95-3.257 0.247 0.021 0.483 0.078 0.717 0.133-0.545-0.529-1.259-0.893-2.075-0.96-0.159-0.013-0.313-0.001-0.469 0.008 0.793-1.979 3.075-2.316 4.483-0.37 0.019-0.95-0.371-1.574-0.938-1.923 0.061-0.002 0.118-0.013 0.179-0.013 1.302 0 2.465 0.562 3.286 1.446 0.539-0.897 0.929-0.993 2.052-0.993 0.599 0 1.36 0.871 1.834 1.167 0.562-0.748 1.825-2.444 2.833-2.444 0.087 0 0.169 0.019 0.253 0.025-0.414-0.389-0.97-0.634-1.585-0.634z"/>
	</g>
	<path d="m43.555 12.266c0.467-0.406 0.766-1.001 0.766-1.668 0-0.029-0.008-0.057-0.009-0.086-0.04 0.157-0.061 0.309-0.118 0.471-0.16 0.446-0.378 0.876-0.639 1.283z" fill="#547723"/>
	<path d="m45.903 24.589c0-1.565-0.979-2.894-2.354-3.43 0.061-0.201 0.104-0.411 0.104-0.633 0-0.119-0.017-0.233-0.035-0.347 0.482-0.467 0.785-1.117 0.785-1.841 0-0.679-0.269-1.292-0.699-1.75 0.431-0.458 0.699-1.071 0.699-1.75 0-0.873-0.453-1.62-1.121-2.081-0.812 1.045-1.926 1.887-3.144 2.344-0.013 0.088-0.028 0.175-0.056 0.267-0.146 0.48-0.479 0.911-0.896 1.231-0.012 0.041-0.019 0.062-0.03 0.103 0.771 0.452 1.128 1.354 0.848 2.424-0.252 0.965-0.953 1.828-1.828 2.354 0.642 0.456 0.954 1.275 0.759 2.228-0.169 0.827-0.69 1.573-1.375 2.09 0.506 0.478 0.766 1.202 0.64 2.038-0.09 0.596-0.372 1.144-0.759 1.602 0.438 0.739 0.657 1.655 0.563 2.662-0.058 0.623-0.233 1.219-0.495 1.771 1.07 0.299 1.86 1.271 1.86 2.437 0 1.404-1.138 2.542-2.542 2.542-1.271 0-2.314-0.935-2.502-2.153-0.425 0.141-0.863 0.245-1.322 0.265-1.422 0.062-2.643-0.52-3.426-1.463-0.522 0.518-1.207 0.867-1.944 0.926-0.944 0.075-1.746-0.335-2.185-1.028-0.521 1.258-1.688 2.237-3.028 2.391-0.824 0.094-1.555-0.146-2.09-0.606-0.578 0.605-1.327 1.04-2.148 1.159-0.497 0.072-0.958 0.009-1.37-0.141-0.383 0.271-0.813 0.475-1.275 0.551-0.613 0.102-1.167-0.023-1.611-0.303-0.833 1.063-1.994 1.864-3.306 2.131-1.857 0.378-3.479-0.401-4.16-1.92-0.089 0.035-0.179 0.068-0.272 0.09-0.521 0.12-2.388 0.032-2.713-0.26-0.766 0.891-1.159 2.226-1.172 2.229-0.034 0.2-0.069 0.4-0.069 0.61 0 2.07 1.679 3.75 3.75 3.75 0.818 0 1.57-0.27 2.187-0.715 0.132 0.024 0.266 0.041 0.404 0.041 0.681 0 1.281-0.312 1.688-0.795 0.406 0.482 1.008 0.795 1.688 0.795 0.544 0 1.036-0.203 1.422-0.529 0.247 0.097 0.513 0.154 0.794 0.154 0.365 0 0.704-0.098 1.007-0.256 0.311 0.91 1.163 1.568 2.179 1.568 0.92 0 1.708-0.541 2.08-1.318 0.726 1.145 1.996 1.911 3.452 1.911 1.722 0 3.189-1.065 3.794-2.571 0.467 0.629 1.208 1.041 2.051 1.041 0.679 0 1.292-0.269 1.75-0.699 0.459 0.431 1.071 0.699 1.75 0.699 0.848 0 1.594-0.416 2.06-1.051h0.304c0.391 0.629 1.083 1.051 1.878 1.051 0.301 0 0.587-0.062 0.849-0.17 0.503 1.477 3.996 1.177 5.319 0.196 2.25-1.667 1.563-3.822 0.961-4.24 0.488-0.406 0.806-1.01 0.806-1.695 0-0.68-0.312-1.281-0.795-1.688 0.482-0.406 0.795-1.008 0.795-1.688 0-0.744-0.371-1.4-0.934-1.803 0.672-0.404 1.127-1.133 1.127-1.976 0-0.939-0.562-1.744-1.367-2.106 0.262-0.26 0.424-0.62 0.424-1.019 0-0.075-0.011-0.148-0.022-0.222 1.33-0.555 2.268-1.868 2.268-3.404z" fill="#547723"/>
	<path stroke="#375917" stroke-width="2" stroke-miterlimit="10" d="m45.82 24.589c0-1.565-0.979-2.894-2.354-3.43 0.061-0.201 0.104-0.411 0.104-0.633 0-0.119-0.017-0.233-0.035-0.347 0.482-0.467 0.785-1.117 0.785-1.841 0-0.679-0.269-1.292-0.699-1.75 0.431-0.458 0.699-1.071 0.699-1.75 0-0.958-0.531-1.782-1.31-2.222 0.771-0.348 1.31-1.119 1.31-2.02 0-0.301-0.062-0.586-0.17-0.848 1.477-0.504 0.445-1.694 0.445-2.684 0-0.378-0.111-0.8-0.332-1.177 0.157-0.312 0.254-0.66 0.254-1.033 0-1.277-1.035-2.312-2.312-2.312-0.743 0-1.397 0.357-1.82 0.902-0.404-0.545-1.046-0.902-1.776-0.902-0.68 0-1.281 0.312-1.688 0.795-0.406-0.482-1.007-0.795-1.688-0.795-0.782 0-1.466 0.408-1.86 1.02-0.415-0.615-1.119-1.02-1.918-1.02-0.906 0-1.682 0.525-2.062 1.285-0.263-0.292-0.64-0.479-1.063-0.479-0.075 0-0.148 0.011-0.221 0.022-0.555-1.334-1.869-2.272-3.404-2.272-1.083 0-2.048 0.476-2.723 1.22-0.371-0.29-0.832-0.47-1.34-0.47-0.382 0-0.735 0.106-1.048 0.278-0.345-0.173-0.728-0.278-1.14-0.278-0.679 0-1.291 0.269-1.75 0.699-0.458-0.431-1.071-0.699-1.75-0.699-1.104 0-2.036 0.702-2.396 1.682-0.397-0.596-1.074-0.988-1.844-0.988-0.602 0-1.146 0.242-1.545 0.631-0.687-0.801-1.696-1.322-2.837-1.322-2.071 0-3.75 1.679-3.75 3.75 0 0.808 0.261 1.551 0.694 2.162-0.264 0.363-0.432 0.801-0.432 1.285 0 0.68 0.312 1.281 0.795 1.688-0.482 0.406-0.795 1.008-0.795 1.688 0 0.782 0.408 1.467 1.02 1.86-0.615 0.415-1.02 1.12-1.02 1.918 0 0.886 0.506 1.642 1.238 2.029v0.085c-0.263 0.26-0.432 0.613-0.432 1.011 0 0.075 0.011 0.148 0.022 0.221-1.333 0.555-2.272 1.869-2.272 3.404 0 1.083 0.476 2.048 1.22 2.724-0.29 0.371-0.47 0.832-0.47 1.339 0 0.382 0.106 0.735 0.278 1.048-0.173 0.345-0.278 0.729-0.278 1.14 0 0.679 0.269 1.292 0.699 1.75-0.431 0.458-0.699 1.071-0.699 1.75 0 1.104 0.702 2.036 1.682 2.397-0.596 0.396-0.988 1.074-0.988 1.844 0 0.602 0.242 1.145 0.631 1.544-0.804 0.688-1.324 1.697-1.324 2.839 0 2.07 1.679 3.75 3.75 3.75 0.818 0 1.57-0.27 2.187-0.715 0.132 0.024 0.266 0.041 0.404 0.041 0.681 0 1.281-0.312 1.688-0.795 0.406 0.482 1.008 0.795 1.688 0.795 0.544 0 1.036-0.203 1.422-0.529 0.247 0.097 0.513 0.154 0.794 0.154 0.365 0 0.704-0.098 1.007-0.256 0.311 0.91 1.163 1.568 2.179 1.568 0.92 0 1.708-0.541 2.08-1.318 0.726 1.145 1.996 1.911 3.452 1.911 1.722 0 3.189-1.065 3.794-2.571 0.467 0.629 1.208 1.041 2.051 1.041 0.679 0 1.292-0.269 1.75-0.699 0.459 0.431 1.071 0.699 1.75 0.699 0.848 0 1.594-0.416 2.06-1.051h0.304c0.391 0.629 1.083 1.051 1.878 1.051 0.301 0 0.587-0.062 0.849-0.17 0.503 1.477 3.996 1.177 5.319 0.196 2.25-1.667 1.563-3.822 0.961-4.24 0.488-0.406 0.806-1.01 0.806-1.695 0-0.68-0.312-1.281-0.795-1.688 0.482-0.406 0.795-1.008 0.795-1.688 0-0.744-0.371-1.4-0.934-1.803 0.672-0.404 1.127-1.133 1.127-1.976 0-0.939-0.562-1.744-1.367-2.106 0.262-0.26 0.424-0.62 0.424-1.019 0-0.075-0.011-0.148-0.022-0.222 1.33-0.554 2.268-1.867 2.268-3.403z" fill="none"/>
</svg>
