<?xml version="1.0" encoding="utf-8"?>
<!-- Generator: Adobe Illustrator 16.0.0, SVG Export Plug-In . SVG Version: 6.00 Build 0)  -->
<!DOCTYPE svg PUBLIC "-//W3C//DTD SVG 1.1//EN" "http://www.w3.org/Graphics/SVG/1.1/DTD/svg11.dtd">
<svg version="1.1" id="Layer_1" xmlns="http://www.w3.org/2000/svg" xmlns:xlink="http://www.w3.org/1999/xlink" 
	 viewBox="0 0 679.032 781.665" enable-background="new 0 0 679.032 781.665"
	 xml:space="preserve">
<g>
	<linearGradient id="SVGID_1_" gradientUnits="userSpaceOnUse" x1="45.7266" y1="124.1982" x2="638.1973" y2="124.1982">
		<stop  offset="0" style="stop-color:#232323"/>
		<stop  offset="0.2245" style="stop-color:#303030"/>
		<stop  offset="0.7449" style="stop-color:#303030"/>
		<stop  offset="1" style="stop-color:#232323"/>
	</linearGradient>
	
		<rect x="45.727" y="1.5" fill="url(#SVGID_1_)" stroke="#101928" stroke-width="3" stroke-miterlimit="10" width="592.471" height="245.396"/>
	<g>
		<g>
			
				<line fill="none" stroke="#E5E5E5" stroke-width="4" stroke-miterlimit="10" x1="165.414" y1="225.299" x2="165.414" y2="90.981"/>
			
				<line fill="none" stroke="#E5E5E5" stroke-width="4" stroke-miterlimit="10" x1="160.914" y1="90.981" x2="169.914" y2="90.981"/>
		</g>
		<g>
			<line fill="none" stroke="#E5E5E5" stroke-width="4" stroke-miterlimit="10" x1="83.497" y1="225.299" x2="83.497" y2="90.981"/>
			<line fill="none" stroke="#E5E5E5" stroke-width="4" stroke-miterlimit="10" x1="78.997" y1="90.981" x2="87.997" y2="90.981"/>
		</g>
	</g>
	<g>
		<g>
			
				<line fill="none" stroke="#E5E5E5" stroke-width="4" stroke-miterlimit="10" x1="602.624" y1="225.299" x2="602.624" y2="90.981"/>
			
				<line fill="none" stroke="#E5E5E5" stroke-width="4" stroke-miterlimit="10" x1="598.124" y1="90.981" x2="607.124" y2="90.981"/>
		</g>
		<g>
			
				<line fill="none" stroke="#E5E5E5" stroke-width="4" stroke-miterlimit="10" x1="520.707" y1="225.299" x2="520.707" y2="90.981"/>
			
				<line fill="none" stroke="#E5E5E5" stroke-width="4" stroke-miterlimit="10" x1="516.207" y1="90.981" x2="525.207" y2="90.981"/>
		</g>
	</g>
	<g>
		<g>
			
				<rect x="229.326" y="392.509" fill="#A0C53A" stroke="#6D4E35" stroke-width="3" stroke-miterlimit="10" width="220.379" height="190.438"/>
			<g>
				<path fill="#709922" d="M266.075,472.19c-0.071-0.583-0.272-1.122-0.5-1.651c-0.224-0.53-0.48-1.047-0.749-1.559l-1.643-3.079
					c-0.53-1.047-1.047-2.111-1.438-3.271c-0.196-0.58-0.347-1.19-0.41-1.847c-0.062-0.648-0.025-1.381,0.3-2.087
					c0.073-0.179,0.178-0.343,0.288-0.503c0.046-0.061,0.014-0.037,0.124-0.166l0.071-0.082l0.145-0.163
					c0.345-0.331,0.81-0.612,1.378-0.619c0.574,0.003,0.987,0.259,1.308,0.487c0.322,0.24,0.553,0.502,0.769,0.762
					c0.825,1.051,1.334,2.14,1.835,3.232c0.481,1.098,0.883,2.211,1.27,3.321l1.104,3.274l-1.901,0.6
					c-0.162-0.706-0.195-1.271-0.236-1.876c-0.034-0.595-0.045-1.183-0.04-1.771c0.021-1.176,0.081-2.351,0.274-3.525
					c0.192-1.174,0.457-2.355,1.015-3.523c0.288-0.574,0.655-1.176,1.275-1.648c0.609-0.492,1.549-0.656,2.265-0.473l0.069,0.013
					l0.034,0.007l0.018,0.004l0.093,0.027l0.099,0.039c0.083,0.037,0.097,0.026,0.235,0.104c0.118,0.064,0.234,0.137,0.343,0.214
					c0.09,0.075,0.161,0.151,0.239,0.231c0.284,0.319,0.459,0.678,0.556,1.01c0.208,0.672,0.235,1.297,0.221,1.904
					c-0.042,1.208-0.237,2.354-0.482,3.48c-0.258,1.125-0.555,2.23-0.887,3.323c-0.32,1.097-0.71,2.167-1.001,3.268
					c0.087-1.142,0.297-2.267,0.466-3.39c0.17-1.123,0.351-2.241,0.462-3.359c0.124-1.112,0.21-2.232,0.143-3.299
					c-0.038-0.525-0.114-1.048-0.274-1.453c-0.074-0.21-0.184-0.359-0.282-0.455l-0.071-0.062c-0.012,0.003-0.017,0-0.019-0.011
					c0.023-0.009-0.11-0.039-0.158-0.058l-0.102-0.032l-0.007-0.002c0.034,0.01-0.084-0.024,0.074,0.021h-0.01l-0.018-0.002
					l-0.036-0.002c-0.393-0.047-0.673,0.025-0.944,0.266c-0.271,0.241-0.528,0.628-0.721,1.076c-0.39,0.902-0.602,1.972-0.728,3.043
					c-0.125,1.075-0.194,2.174-0.189,3.271c0.002,0.548,0.021,1.096,0.059,1.635c0.037,0.528,0.099,1.101,0.198,1.502l-1.901,0.599
					c-0.218-0.597-0.377-1.142-0.556-1.697l-0.529-1.646c-0.358-1.091-0.746-2.165-1.165-3.21c-0.417-1.035-0.882-2.082-1.468-2.886
					c-0.273-0.401-0.667-0.671-0.715-0.651c-0.024-0.01-0.09,0.014-0.184,0.057l-0.154,0.154l-0.077,0.076
					c0.062-0.072-0.007,0.014-0.004,0.012c-0.059,0.075-0.12,0.149-0.162,0.24c-0.406,0.693-0.275,1.834-0.03,2.884
					c0.252,1.075,0.655,2.153,1.072,3.228c0.408,1.081,0.863,2.154,1.255,3.262C265.715,469.858,266.118,471.01,266.075,472.19z"/>
			</g>
			<g>
				<path fill="#709922" d="M283.497,558.941c-0.071-0.583-0.272-1.122-0.5-1.651c-0.224-0.53-0.48-1.047-0.749-1.559l-1.643-3.079
					c-0.53-1.046-1.047-2.11-1.438-3.271c-0.196-0.58-0.347-1.189-0.41-1.846c-0.062-0.649-0.025-1.383,0.3-2.088
					c0.073-0.178,0.178-0.342,0.288-0.504c0.046-0.06,0.014-0.037,0.124-0.164l0.071-0.082l0.145-0.164
					c0.345-0.331,0.81-0.613,1.378-0.619c0.574,0.002,0.987,0.259,1.308,0.486c0.322,0.242,0.553,0.502,0.769,0.764
					c0.825,1.049,1.334,2.139,1.835,3.232c0.481,1.097,0.883,2.21,1.27,3.32l1.104,3.275l-1.901,0.6
					c-0.162-0.707-0.195-1.271-0.236-1.877c-0.034-0.594-0.045-1.183-0.04-1.771c0.021-1.174,0.081-2.35,0.274-3.525
					c0.192-1.174,0.457-2.354,1.015-3.521c0.288-0.576,0.655-1.176,1.275-1.648c0.609-0.493,1.549-0.656,2.265-0.475l0.069,0.014
					l0.034,0.007l0.018,0.003l0.093,0.029l0.099,0.038c0.083,0.037,0.097,0.026,0.235,0.103c0.118,0.064,0.234,0.137,0.343,0.215
					c0.09,0.076,0.161,0.152,0.239,0.23c0.284,0.32,0.459,0.68,0.556,1.011c0.208,0.672,0.235,1.298,0.221,1.903
					c-0.042,1.209-0.237,2.354-0.482,3.482c-0.258,1.125-0.555,2.229-0.887,3.322c-0.32,1.096-0.71,2.167-1.001,3.268
					c0.087-1.142,0.297-2.267,0.466-3.39c0.17-1.123,0.351-2.241,0.462-3.359c0.124-1.112,0.21-2.232,0.143-3.298
					c-0.038-0.527-0.114-1.049-0.274-1.455c-0.074-0.209-0.184-0.358-0.282-0.455l-0.071-0.061c-0.012,0.002-0.017,0-0.019-0.011
					c0.023-0.009-0.11-0.039-0.158-0.058l-0.102-0.031l-0.007-0.002c0.034,0.01-0.084-0.025,0.074,0.021l-0.01-0.001l-0.018-0.001
					l-0.036-0.004c-0.393-0.046-0.673,0.027-0.944,0.267c-0.271,0.241-0.528,0.628-0.721,1.075c-0.39,0.903-0.602,1.973-0.728,3.043
					c-0.125,1.076-0.194,2.176-0.189,3.271c0.002,0.549,0.021,1.097,0.059,1.637c0.037,0.527,0.099,1.1,0.198,1.5l-1.901,0.6
					c-0.218-0.598-0.377-1.141-0.556-1.697l-0.529-1.646c-0.358-1.091-0.746-2.164-1.165-3.211
					c-0.417-1.033-0.882-2.082-1.468-2.885c-0.273-0.4-0.667-0.672-0.715-0.651c-0.024-0.009-0.09,0.015-0.184,0.058l-0.154,0.152
					l-0.077,0.077c0.062-0.072-0.007,0.013-0.004,0.013c-0.059,0.074-0.12,0.148-0.162,0.239c-0.406,0.693-0.275,1.833-0.03,2.884
					c0.252,1.076,0.655,2.153,1.072,3.227c0.408,1.082,0.863,2.156,1.255,3.262C283.137,556.609,283.54,557.761,283.497,558.941z"/>
			</g>
			<g>
				<path fill="#709922" d="M409.933,495.455c-0.071-0.583-0.272-1.122-0.5-1.651c-0.224-0.53-0.48-1.047-0.749-1.559l-1.643-3.079
					c-0.53-1.046-1.047-2.11-1.438-3.271c-0.196-0.58-0.347-1.189-0.41-1.846c-0.062-0.649-0.025-1.383,0.3-2.088
					c0.073-0.178,0.178-0.342,0.288-0.504c0.046-0.06,0.014-0.037,0.124-0.164l0.071-0.082l0.145-0.164
					c0.345-0.331,0.81-0.613,1.378-0.619c0.574,0.002,0.987,0.259,1.308,0.486c0.322,0.242,0.553,0.502,0.769,0.764
					c0.825,1.049,1.334,2.139,1.835,3.232c0.481,1.097,0.883,2.21,1.27,3.32l1.104,3.275l-1.901,0.6
					c-0.162-0.707-0.195-1.271-0.236-1.877c-0.034-0.594-0.045-1.183-0.04-1.771c0.021-1.174,0.081-2.35,0.274-3.525
					c0.192-1.174,0.457-2.354,1.015-3.521c0.288-0.576,0.655-1.176,1.275-1.648c0.609-0.493,1.549-0.656,2.265-0.475l0.069,0.014
					l0.034,0.007l0.018,0.003l0.093,0.029l0.099,0.038c0.083,0.037,0.097,0.026,0.235,0.103c0.118,0.064,0.234,0.137,0.343,0.215
					c0.09,0.076,0.161,0.152,0.239,0.23c0.284,0.32,0.459,0.68,0.556,1.011c0.208,0.672,0.235,1.298,0.221,1.903
					c-0.042,1.209-0.237,2.354-0.482,3.482c-0.258,1.125-0.555,2.229-0.887,3.322c-0.32,1.096-0.71,2.167-1.001,3.268
					c0.087-1.142,0.297-2.267,0.466-3.39c0.17-1.123,0.351-2.241,0.462-3.359c0.124-1.112,0.21-2.232,0.143-3.298
					c-0.038-0.527-0.114-1.049-0.274-1.455c-0.074-0.209-0.184-0.358-0.282-0.455l-0.071-0.061c-0.012,0.002-0.017,0-0.019-0.011
					c0.023-0.009-0.11-0.039-0.158-0.058l-0.102-0.031l-0.007-0.002c0.034,0.01-0.084-0.025,0.074,0.021l-0.01-0.001l-0.018-0.001
					l-0.036-0.004c-0.393-0.046-0.673,0.027-0.944,0.267c-0.271,0.241-0.528,0.628-0.721,1.075c-0.39,0.903-0.602,1.973-0.728,3.043
					c-0.125,1.076-0.194,2.176-0.189,3.271c0.002,0.549,0.021,1.097,0.059,1.637c0.037,0.527,0.099,1.1,0.198,1.5l-1.901,0.6
					c-0.218-0.598-0.377-1.141-0.556-1.697l-0.529-1.646c-0.358-1.091-0.746-2.164-1.165-3.211
					c-0.417-1.033-0.882-2.082-1.468-2.885c-0.273-0.4-0.667-0.672-0.715-0.651c-0.024-0.009-0.09,0.015-0.184,0.058l-0.154,0.152
					l-0.077,0.077c0.062-0.072-0.007,0.013-0.004,0.013c-0.059,0.074-0.12,0.148-0.162,0.239c-0.406,0.693-0.275,1.833-0.03,2.884
					c0.252,1.076,0.655,2.153,1.072,3.227c0.408,1.082,0.863,2.156,1.255,3.262C409.572,493.123,409.976,494.274,409.933,495.455z"
					/>
			</g>
		</g>
		<path opacity="0.2" fill="#0C1C2B" d="M646.102,227.815v-32.933H509.618v-32.528H176.413v32.528H32.932v32.933H0v520.918h32.932
			v32.932h613.17v-32.932h32.931V227.815H646.102z M409.232,566.972H269.8V446.483h139.433V566.972z"/>
		<g>
			<radialGradient id="SVGID_2_" cx="338.5151" cy="487.7285" r="280.1013" gradientUnits="userSpaceOnUse">
				<stop  offset="0.4229" style="stop-color:#876749"/>
				<stop  offset="0.6081" style="stop-color:#9E8A66"/>
			</radialGradient>
			<path fill="url(#SVGID_2_)" stroke="#6D4E35" stroke-width="3" stroke-miterlimit="10" d="M197.473,365.848v243.762h282.085
				V365.848H197.473z M449.705,582.947H229.326V392.509h220.379V582.947z"/>
			<g>
				
					<line fill="none" stroke="#071128" stroke-width="5" stroke-miterlimit="10" x1="204.803" y1="371.317" x2="204.803" y2="604.774"/>
				
					<line fill="none" stroke="#071128" stroke-width="4.3333" stroke-miterlimit="10" x1="211.09" y1="376.75" x2="211.09" y2="598.691"/>
				
					<line fill="none" stroke="#071128" stroke-width="3.6667" stroke-miterlimit="10" x1="217.377" y1="382.183" x2="217.377" y2="592.608"/>
				
					<line fill="none" stroke="#071128" stroke-width="3" stroke-miterlimit="10" x1="223.664" y1="387.616" x2="223.664" y2="586.526"/>
			</g>
			<g>
				
					<line fill="none" stroke="#071128" stroke-width="5" stroke-miterlimit="10" x1="203.314" y1="604.774" x2="474.938" y2="604.774"/>
				
					<line fill="none" stroke="#071128" stroke-width="4.3333" stroke-miterlimit="10" x1="209.636" y1="599.169" x2="467.862" y2="599.169"/>
				
					<line fill="none" stroke="#071128" stroke-width="3.6667" stroke-miterlimit="10" x1="215.957" y1="593.567" x2="460.784" y2="593.567"/>
				
					<line fill="none" stroke="#071128" stroke-width="3" stroke-miterlimit="10" x1="222.277" y1="587.965" x2="453.707" y2="587.965"/>
			</g>
			<g>
				
					<line fill="none" stroke="#071128" stroke-width="5" stroke-miterlimit="10" x1="203.314" y1="370.831" x2="474.938" y2="370.831"/>
				
					<line fill="none" stroke="#071128" stroke-width="4.3333" stroke-miterlimit="10" x1="209.636" y1="376.437" x2="467.862" y2="376.437"/>
				
					<line fill="none" stroke="#071128" stroke-width="3.6667" stroke-miterlimit="10" x1="215.957" y1="382.038" x2="460.784" y2="382.038"/>
				
					<line fill="none" stroke="#071128" stroke-width="3" stroke-miterlimit="10" x1="222.277" y1="387.641" x2="453.707" y2="387.641"/>
			</g>
			<g>
				
					<line fill="none" stroke="#071128" stroke-width="5" stroke-miterlimit="10" x1="474.676" y1="371.317" x2="474.676" y2="604.774"/>
				
					<line fill="none" stroke="#071128" stroke-width="4.3333" stroke-miterlimit="10" x1="468.389" y1="376.75" x2="468.389" y2="598.691"/>
				
					<line fill="none" stroke="#071128" stroke-width="3.6667" stroke-miterlimit="10" x1="462.102" y1="382.183" x2="462.102" y2="592.608"/>
				
					<line fill="none" stroke="#071128" stroke-width="3" stroke-miterlimit="10" x1="455.814" y1="387.616" x2="455.814" y2="586.526"/>
			</g>
			
				<line fill="none" stroke="#6D4E35" stroke-width="3" stroke-miterlimit="10" x1="449.705" y1="582.947" x2="480.784" y2="609.804"/>
			
				<line fill="none" stroke="#6D4E35" stroke-width="3" stroke-miterlimit="10" x1="198.473" y1="365.848" x2="229.552" y2="392.704"/>
			
				<line fill="none" stroke="#6D4E35" stroke-width="3" stroke-miterlimit="10" x1="449.705" y1="392.509" x2="480.784" y2="365.651"/>
			
				<line fill="none" stroke="#6D4E35" stroke-width="3" stroke-miterlimit="10" x1="198.473" y1="609.805" x2="229.552" y2="582.947"/>
		</g>
		<polygon opacity="0.5" fill="#0C1C2B" points="198.473,365.848 480.558,365.848 449.705,582.947 449.705,391.271 229.552,392.704 
			229.552,582.947 		"/>
		<g>
			<g>
				
					<rect x="203.756" y="66.795" fill="none" stroke="#EDCC26" stroke-width="4" stroke-miterlimit="10" width="265.172" height="133.234"/>
				<g>
					<g>
						
							<line fill="none" stroke="#EDCC26" stroke-width="4" stroke-miterlimit="10" x1="468.928" y1="89.577" x2="445.425" y2="66.073"/>
						
							<line fill="none" stroke="#EDCC26" stroke-width="4" stroke-miterlimit="10" x1="469.417" y1="133.275" x2="402.216" y2="66.073"/>
						
							<line fill="none" stroke="#EDCC26" stroke-width="4" stroke-miterlimit="10" x1="399.296" y1="105.124" x2="360.245" y2="66.073"/>
						
							<line fill="none" stroke="#EDCC26" stroke-width="4" stroke-miterlimit="10" x1="469.28" y1="175.109" x2="415.461" y2="121.291"/>
						
							<line fill="none" stroke="#EDCC26" stroke-width="4" stroke-miterlimit="10" x1="357.326" y1="105.124" x2="318.274" y2="66.073"/>
						
							<line fill="none" stroke="#EDCC26" stroke-width="4" stroke-miterlimit="10" x1="452.868" y1="200.667" x2="413.819" y2="161.618"/>
						
							<line fill="none" stroke="#EDCC26" stroke-width="4" stroke-miterlimit="10" x1="315.355" y1="105.124" x2="276.304" y2="66.073"/>
						
							<line fill="none" stroke="#EDCC26" stroke-width="4" stroke-miterlimit="10" x1="410.897" y1="200.667" x2="371.849" y2="161.618"/>
						
							<line fill="none" stroke="#EDCC26" stroke-width="4" stroke-miterlimit="10" x1="273.384" y1="105.124" x2="234.333" y2="66.073"/>
						
							<line fill="none" stroke="#EDCC26" stroke-width="4" stroke-miterlimit="10" x1="368.927" y1="200.667" x2="329.877" y2="161.617"/>
						
							<line fill="none" stroke="#EDCC26" stroke-width="4" stroke-miterlimit="10" x1="257.804" y1="131.515" x2="203.754" y2="77.465"/>
						
							<line fill="none" stroke="#EDCC26" stroke-width="4" stroke-miterlimit="10" x1="326.956" y1="200.667" x2="287.905" y2="161.617"/>
						
							<line fill="none" stroke="#EDCC26" stroke-width="4" stroke-miterlimit="10" x1="284.986" y1="200.667" x2="203.757" y2="119.438"/>
						
							<line fill="none" stroke="#EDCC26" stroke-width="4" stroke-miterlimit="10" x1="243.016" y1="200.667" x2="203.757" y2="161.41"/>
					</g>
					<g>
						
							<line fill="none" stroke="#EDCC26" stroke-width="4" stroke-miterlimit="10" x1="203.756" y1="102.857" x2="240.539" y2="66.073"/>
						
							<line fill="none" stroke="#EDCC26" stroke-width="4" stroke-miterlimit="10" x1="203.757" y1="146.064" x2="283.748" y2="66.073"/>
						
							<line fill="none" stroke="#EDCC26" stroke-width="4" stroke-miterlimit="10" x1="286.667" y1="105.124" x2="325.718" y2="66.073"/>
						
							<line fill="none" stroke="#EDCC26" stroke-width="4" stroke-miterlimit="10" x1="203.757" y1="188.034" x2="257.806" y2="133.986"/>
						
							<line fill="none" stroke="#EDCC26" stroke-width="4" stroke-miterlimit="10" x1="328.638" y1="105.124" x2="367.688" y2="66.073"/>
						
							<line fill="none" stroke="#EDCC26" stroke-width="4" stroke-miterlimit="10" x1="233.095" y1="200.667" x2="272.144" y2="161.618"/>
						
							<line fill="none" stroke="#EDCC26" stroke-width="4" stroke-miterlimit="10" x1="370.608" y1="105.124" x2="409.659" y2="66.073"/>
						
							<line fill="none" stroke="#EDCC26" stroke-width="4" stroke-miterlimit="10" x1="275.065" y1="200.667" x2="314.114" y2="161.618"/>
						
							<line fill="none" stroke="#EDCC26" stroke-width="4" stroke-miterlimit="10" x1="412.579" y1="105.124" x2="451.631" y2="66.073"/>
						
							<line fill="none" stroke="#EDCC26" stroke-width="4" stroke-miterlimit="10" x1="317.037" y1="200.667" x2="356.086" y2="161.617"/>
						
							<line fill="none" stroke="#EDCC26" stroke-width="4" stroke-miterlimit="10" x1="415.462" y1="144.213" x2="469.513" y2="90.161"/>
						
							<line fill="none" stroke="#EDCC26" stroke-width="4" stroke-miterlimit="10" x1="359.008" y1="200.667" x2="398.057" y2="161.617"/>
						
							<line fill="none" stroke="#EDCC26" stroke-width="4" stroke-miterlimit="10" x1="400.978" y1="200.667" x2="469.417" y2="132.227"/>
						
							<line fill="none" stroke="#EDCC26" stroke-width="4" stroke-miterlimit="10" x1="442.948" y1="200.667" x2="468.894" y2="174.723"/>
					</g>
				</g>
			</g>
			<g>
				<path fill="#EDCC26" d="M394.267,151.369h8.413v-3.376h-7.722v-2.762h7.722v-4.088h-8.801v-2.858h12.048v15.898h-11.66V151.369z
					"/>
				<path fill="#EDCC26" d="M380.745,154.184h-4.78v-15.898h3.094v10.754c0,0.309-0.003,0.742-0.01,1.3
					c-0.008,0.557-0.011,0.987-0.011,1.289l3.013-13.343h3.229l2.99,13.343c0-0.302-0.003-0.732-0.01-1.289
					c-0.008-0.558-0.011-0.991-0.011-1.3v-10.754h3.096v15.898h-4.834l-2.895-12.5L380.745,154.184z"/>
				<path fill="#EDCC26" d="M361.133,151.369h8.413v-3.376h-7.724v-2.762h7.724v-4.088h-8.801v-2.858h12.048v15.898h-11.66V151.369z
					"/>
				<path fill="#EDCC26" d="M347.968,153.774c-0.586-0.253-1.082-0.622-1.488-1.111c-0.337-0.402-0.604-0.849-0.8-1.337
					c-0.196-0.489-0.293-1.047-0.293-1.672c0-0.756,0.189-1.498,0.571-2.228c0.381-0.729,1.011-1.246,1.887-1.548
					c-0.733-0.295-1.253-0.714-1.558-1.257c-0.307-0.542-0.459-1.372-0.459-2.486v-1.067c0-0.727-0.029-1.219-0.088-1.478
					c-0.088-0.41-0.292-0.712-0.613-0.906v-0.399h3.667c0.101,0.353,0.174,0.637,0.216,0.853c0.086,0.446,0.133,0.902,0.141,1.37
					l0.021,1.477c0.013,1.015,0.188,1.69,0.525,2.029c0.336,0.337,0.967,0.506,1.892,0.506h3.245v-6.234h3.247v15.898h-7.604
					C349.39,154.162,348.554,154.025,347.968,153.774z M354.834,151.422v-4.27h-3.575c-0.709,0-1.243,0.086-1.599,0.258
					c-0.628,0.303-0.941,0.899-0.941,1.791c0,0.963,0.304,1.61,0.912,1.941c0.341,0.187,0.854,0.279,1.536,0.279H354.834z"/>
				<path fill="#EDCC26" d="M331.516,149.223c0.251,1.085,0.866,1.845,1.845,2.275c0.547,0.237,1.153,0.355,1.822,0.355
					c1.28,0,2.331-0.482,3.155-1.447c0.823-0.966,1.235-2.417,1.235-4.354c0-1.952-0.446-3.333-1.339-4.145
					c-0.891-0.811-1.905-1.216-3.041-1.216c-1.114,0-2.028,0.319-2.74,0.959c-0.711,0.64-1.15,1.477-1.315,2.514h3.678v2.652h-6.621
					v-8.531h2.2l0.334,1.984c0.64-0.751,1.215-1.28,1.725-1.589c0.878-0.536,1.957-0.805,3.237-0.805
					c2.105,0,3.832,0.729,5.176,2.188c1.403,1.465,2.104,3.47,2.104,6.014c0,2.573-0.709,4.635-2.126,6.188
					c-1.416,1.553-3.289,2.328-5.619,2.328c-2.021,0-3.644-0.512-4.87-1.537c-1.226-1.024-1.928-2.303-2.108-3.834H331.516z"/>
				<path fill="#EDCC26" d="M313.265,151.369h8.413v-3.376h-7.722v-2.762h7.722v-4.088h-8.801v-2.858h12.048v15.898h-11.66V151.369z
					"/>
				<path fill="#EDCC26" d="M310.343,154.184h-3.481l-6.312-11.085v11.085h-3.096v-15.898h3.32l6.473,11.281v-11.281h3.096V154.184z
					"/>
				<path fill="#EDCC26" d="M292.818,152.523c-1.28,1.309-2.909,1.962-4.888,1.962c-2.646,0-4.582-0.877-5.805-2.632
					c-0.676-0.984-1.039-1.974-1.089-2.966h3.322c0.211,0.762,0.482,1.338,0.813,1.726c0.592,0.69,1.469,1.036,2.632,1.036
					c1.183,0,2.115-0.487,2.8-1.462c0.684-0.975,1.024-2.353,1.024-4.137c0-1.783-0.36-3.118-1.081-4.007
					c-0.722-0.888-1.637-1.332-2.748-1.332c-1.14,0-2.009,0.382-2.606,1.144c-0.331,0.41-0.604,1.025-0.824,1.845h-3.3
					c0.285-1.733,1.013-3.143,2.183-4.229c1.169-1.085,2.669-1.628,4.497-1.628c2.262,0,4.04,0.733,5.335,2.199
					c1.295,1.475,1.942,3.496,1.942,6.062C295.026,148.881,294.29,151.02,292.818,152.523z"/>
				<path fill="#EDCC26" d="M269.314,154.184h-3.765l5.317-9.937v-5.962h3.321v5.962l5.502,9.937h-3.915l-3.302-6.924
					L269.314,154.184z"/>
				<path fill="#EDCC26" d="M352.263,113.191c1.201-1.237,2.937-1.855,5.21-1.855c2.271,0,4.008,0.618,5.208,1.855
					c1.611,1.518,2.416,3.703,2.416,6.558c0,2.912-0.805,5.098-2.416,6.558c-1.2,1.237-2.937,1.855-5.208,1.855
					c-2.273,0-4.009-0.618-5.21-1.855c-1.604-1.46-2.406-3.646-2.406-6.558C349.856,116.895,350.659,114.709,352.263,113.191z
					 M354.338,115.607c-0.772,0.971-1.158,2.352-1.158,4.142c0,1.783,0.386,3.162,1.158,4.137c0.774,0.974,1.819,1.461,3.135,1.461
					s2.365-0.485,3.149-1.456c0.783-0.971,1.175-2.352,1.175-4.142s-0.392-3.171-1.175-4.142c-0.784-0.971-1.834-1.456-3.149-1.456
					S355.112,114.637,354.338,115.607z"/>
				<path fill="#EDCC26" d="M347.376,127.677h-3.482l-6.312-11.085v11.085h-3.095v-15.898h3.322l6.472,11.28v-11.28h3.095V127.677z"
					/>
				<path fill="#EDCC26" d="M331.369,127.677h-3.321v-13.04h-7.938v-2.858h11.26V127.677z"/>
				<path fill="#EDCC26" d="M310.835,127.677h-3.765l5.317-9.938v-5.961h3.321v5.961l5.502,9.938h-3.915l-3.303-6.925
					L310.835,127.677z"/>
			</g>
		</g>
		<g>
			
				<rect x="187.374" y="172.909" fill="#D8BD8D" stroke="#6D4E35" stroke-width="3" stroke-miterlimit="10" width="311.194" height="44.676"/>
			
				<rect x="202.269" y="186.307" fill="#D8BD8D" stroke="#6D4E35" stroke-width="3" stroke-miterlimit="10" width="281.322" height="31.278"/>
			<polygon fill="#7F6A49" points="207.269,191.307 483.591,191.307 483.591,186.307 202.269,186.307 202.269,217.585 
				207.269,217.585 			"/>
			<polygon opacity="0.6" fill="#6D4E35" points="498.568,208.419 484.324,208.419 483.063,210.419 203.354,210.419 
				202.724,208.419 187.374,208.419 187.374,217.585 498.568,217.585 			"/>
			
				<rect x="202.269" y="186.307" fill="none" stroke="#705A4A" stroke-width="3" stroke-miterlimit="10" width="281.322" height="31.278"/>
			
				<rect x="187.374" y="172.909" fill="none" stroke="#705A4A" stroke-width="3" stroke-miterlimit="10" width="311.194" height="44.676"/>
		</g>
		<linearGradient id="SVGID_3_" gradientUnits="userSpaceOnUse" x1="83.2129" y1="240.1724" x2="669.2122" y2="806.1716">
			<stop  offset="0" style="stop-color:#9E8A66"/>
			<stop  offset="1" style="stop-color:#8C6E50"/>
		</linearGradient>
		<path fill="url(#SVGID_3_)" d="M622.997,246.896v-30.45H56.035v30.45h-30.45v481.662h30.45v30.45h566.962v-30.45h30.449V246.896
			H622.997z M480.784,609.804H198.247V365.651h282.537V609.804z"/>
		<path fill="#7F6A49" d="M610.33,243.78v30.45h30.449v441.662H610.33v30.45H83.368v-30.45h-30.45V274.23h30.45v-30.45H610.33
			 M185.58,637.138h322.537V352.985H185.58V637.138 M63.368,223.78v30.45h-30.45v470.662h30.45v30.45H618.33v-30.45h30.449V254.23
			H618.33v-30.45H63.368z M194.58,617.138V366.985h293.537v250.152H194.58z"/>
		<path fill="#D8BD8D" stroke="#6D4E35" stroke-width="3" stroke-miterlimit="10" d="M602.997,266.896h30.449v441.662h-30.449v30.45
			H76.035v-30.45h-30.45V266.896h30.45v-30.45h526.962V266.896z M500.784,629.804V345.651H178.247v284.152H500.784z
			 M622.997,216.446H56.035v30.45h-30.45v481.662h30.45v30.45h566.962v-30.45h30.449V246.896h-30.449V216.446L622.997,216.446z
			 M198.247,609.804V365.651h282.537v244.152H198.247L198.247,609.804z"/>
		<g>
			<linearGradient id="SVGID_4_" gradientUnits="userSpaceOnUse" x1="52.4658" y1="200.5176" x2="629.8005" y2="777.8523">
				<stop  offset="0" style="stop-color:#E8D9C4"/>
				<stop  offset="1" style="stop-color:#E8D9C4;stop-opacity:0"/>
			</linearGradient>
			<path fill="url(#SVGID_4_)" d="M614.384,751.236H62.422v-30.45h-30.45V252.124h30.45v-30.45h551.962v30.45h30.449v468.662
				h-30.449V751.236z M69.422,744.236h537.962v-30.45h30.449V259.124h-30.449v-30.45H69.422v30.45h-30.45v454.662h30.45V744.236z"/>
			<linearGradient id="SVGID_5_" gradientUnits="userSpaceOnUse" x1="193.6768" y1="340.8896" x2="484.0214" y2="631.2343">
				<stop  offset="0" style="stop-color:#E8D9C4"/>
				<stop  offset="1" style="stop-color:#E8D9C4;stop-opacity:0"/>
			</linearGradient>
			<path fill="url(#SVGID_5_)" d="M493.617,621.638H184.08V350.485h309.537V621.638z M191.08,614.638h295.537V357.485H191.08
				V614.638z"/>
		</g>
		<g>
			<g>
				<linearGradient id="SVGID_6_" gradientUnits="userSpaceOnUse" x1="339.5161" y1="371.7324" x2="339.5161" y2="418.4045">
					<stop  offset="0" style="stop-color:#9E8A66"/>
					<stop  offset="1" style="stop-color:#876749"/>
				</linearGradient>
				<polygon fill="url(#SVGID_6_)" stroke="#6D4E35" stroke-width="3" stroke-miterlimit="10" points="236.021,410.132 
					258.79,427.474 309.426,427.474 309.426,415.854 369.608,415.854 369.608,427.474 420.242,427.474 443.011,410.132 
					443.011,355.066 236.021,355.066 				"/>
				<polygon opacity="0.6" fill="#6D4E35" points="236.021,410.132 309.426,427.474 309.426,415.854 369.608,415.854 
					369.608,427.474 443.011,410.132 378.532,410.132 378.095,395.234 300.938,395.234 300.938,409.992 				"/>
				
					<line fill="#9E8A66" stroke="#6D4E35" stroke-width="3" stroke-miterlimit="10" x1="300.938" y1="410.132" x2="309.426" y2="427.474"/>
				
					<line fill="#9E8A66" stroke="#6D4E35" stroke-width="3" stroke-miterlimit="10" x1="369.608" y1="427.474" x2="378.095" y2="410.132"/>
				
					<line fill="#9E8A66" stroke="#6D4E35" stroke-width="3" stroke-miterlimit="10" x1="300.938" y1="395.234" x2="309.426" y2="415.854"/>
				
					<line fill="#9E8A66" stroke="#6D4E35" stroke-width="3" stroke-miterlimit="10" x1="378.095" y1="395.234" x2="369.608" y2="415.854"/>
			</g>
			<g>
				<linearGradient id="SVGID_7_" gradientUnits="userSpaceOnUse" x1="274.8726" y1="282.7085" x2="428.8719" y2="416.708">
					<stop  offset="0" style="stop-color:#9E8A66"/>
					<stop  offset="1" style="stop-color:#8C6E50"/>
				</linearGradient>
				<polygon fill="url(#SVGID_7_)" points="236.021,267.782 236.021,410.132 300.938,410.132 300.938,395.234 378.095,395.234 
					378.095,410.132 443.011,410.132 443.011,267.782 				"/>
				<polygon fill="none" stroke="#6D4E35" stroke-width="3" stroke-miterlimit="10" points="236.021,267.782 236.021,410.132 
					300.938,410.132 300.938,395.234 378.095,395.234 378.095,410.132 443.011,410.132 443.011,267.782 				"/>
				<g>
					<circle fill="#FFFFFF" cx="339.517" cy="332.41" r="42.363"/>
					<path fill="#C10000" d="M365.203,323.933l-17.219-0.002v-17.393c-0.098-1.812-1.607-3.267-3.444-3.267h-10.048
						c-1.9,0-3.454,1.555-3.454,3.453l-0.003,17.206l-17.205,0.002c-1.899,0-3.453,1.555-3.453,3.453v10.05
						c0,1.898,1.554,3.451,3.453,3.451l17.205,0.021l0.003,17.188c0,1.899,1.554,3.453,3.454,3.453h10.048
						c1.837,0,3.347-1.453,3.444-3.268v-17.374l17.219-0.021c1.897,0,3.453-1.553,3.453-3.451v-10.05
						C368.656,325.487,367.101,323.933,365.203,323.933z"/>
				</g>
				<path fill="#7F6A49" d="M439.871,278.643v126.35h-50.916v-12.897h-91.156v12.698h-50.917v-126.15H439.871 M239.882,271.643
					v135.35h59.917v-14.897h82.156v14.897h59.916v-135.35H239.882z"/>
				<path fill="#D8BD8D" stroke="#6D4E35" stroke-width="2" stroke-miterlimit="10" d="M436.011,403.132h-50.916v-14.897h-91.156
					v14.897h-50.917v-128.35h192.989V403.132z M236.021,267.782v142.35h64.917v-14.897h77.156v14.897h64.916v-142.35H236.021z"/>
			</g>
		</g>
	</g>
	<g>
		<g>
			
				<rect x="541.149" y="632.32" fill="#6D4E35" stroke="#3F2A1C" stroke-width="2" stroke-miterlimit="10" width="49.284" height="49.284"/>
			
				<rect x="546.078" y="637.249" fill="#6D4E35" stroke="#3F2A1C" stroke-width="2" stroke-miterlimit="10" width="39.427" height="39.427"/>
			
				<line fill="none" stroke="#3F2A1C" stroke-width="2" stroke-miterlimit="10" x1="551.498" y1="651.629" x2="551.498" y2="662.295"/>
			<polyline fill="none" stroke="#846855" stroke-miterlimit="10" points="542.633,680.602 542.633,633.904 589.229,633.904 			"/>
			<polyline fill="none" stroke="#846855" stroke-miterlimit="10" points="547.604,675.602 547.604,638.479 584.446,638.479 			"/>
		</g>
		<polyline opacity="0.6" fill="none" stroke="#6D4E35" stroke-miterlimit="10" points="591.999,631.801 591.999,683.134 
			540.665,683.134 		"/>
	</g>
	<g>
		<g>
			<g>
				<g>
					<path fill="#071128" d="M129.164,494.298c4.645-0.102,9.001-2.323,13.675-2.036c3.273,0.201,5.444,2.559,6.893,5.288
						c1.377,2.596,0.883,5.708,0.039,8.369c-1.587,5.006-4.712,9.371-6.222,14.422c-1.313,4.395-0.65,9.019,1.817,12.872
						c2.251,3.518,5.953,5.873,9.401,8.068c3.536,2.251,7.713,4.585,9.181,8.77c1.102,3.143-0.221,6.643-1.178,9.646
						c-0.883,2.77-1.379,5.282-0.834,8.158c0.768,4.052,2.501,8.461,6.387,10.416c2.649,1.334,5.791,0.802,8.475-0.093
						c0.609-0.203,0.348-1.169-0.266-0.965c-2.53,0.843-5.176,1.273-7.705,0.194c-2.486-1.061-3.938-3.607-4.871-6.007
						c-1.172-3.011-1.615-6.107-0.859-9.268c0.727-3.039,1.98-5.858,2.216-9.008c0.654-8.732-10.655-12.341-15.997-16.962
						c-4.208-3.64-6.212-8.854-5.106-14.356c1.037-5.156,4.207-9.664,6.123-14.505c1.768-4.466,1.68-8.836-1.311-12.734
						c-2.633-3.432-6.744-3.668-10.682-2.966c-3.07,0.548-6.034,1.627-9.178,1.695C128.52,493.312,128.519,494.312,129.164,494.298
						L129.164,494.298z"/>
				</g>
			</g>
			<g>
				<g>
					<path fill="#071128" d="M130.811,599.651c5.366,4.276,12.05-0.816,14.981-5.672c1.633-2.704,1.823-6.158,1.961-9.229
						c0.164-3.644-0.337-8.114,2.179-11.09c4.48-5.299,9.646,5.088,12.765,7.545c1.803,1.42,4.486,2.197,6.75,1.715
						c0.856-0.183,1.584-0.789,2.233-1.34c1.63-1.384,3.112-2.572,5.119-3.402c0.587-0.243,0.33-1.211-0.266-0.965
						c-2.562,1.06-4.194,2.794-6.412,4.316c-2.788,1.914-6.678-0.757-8.588-2.752c-2.438-2.546-5.396-8.695-9.749-7.629
						c-5.212,1.276-4.88,8.962-5.006,12.924c-0.122,3.839-0.433,7.759-2.875,10.895c-2.792,3.586-8.08,7.407-12.385,3.977
						C131.019,598.547,130.306,599.249,130.811,599.651L130.811,599.651z"/>
				</g>
			</g>
		</g>
		<g>
			<polygon fill="#7F6A49" points="137.595,632.231 98.305,632.231 92.674,628.517 132.927,551.317 137.595,556.095 			"/>
			<g>
				<g>
					<rect x="93.238" y="551.815" fill="#D8BD8D" width="39.29" height="76.137"/>
					<path fill="#6D4E35" d="M133.093,628.517H92.674v-77.266h40.419V628.517z M93.802,627.389h38.163v-75.01H93.802V627.389z"/>
				</g>
				<g>
					<g>
						<g>
							<radialGradient id="SVGID_8_" cx="113.2124" cy="571.1787" r="15.7913" gradientUnits="userSpaceOnUse">
								<stop  offset="0" style="stop-color:#222A42"/>
								<stop  offset="1" style="stop-color:#221832"/>
							</radialGradient>
							<circle fill="url(#SVGID_8_)" cx="113.212" cy="571.179" r="15.792"/>
							<path fill="#091335" d="M113.212,587.158c-8.811,0-15.979-7.169-15.979-15.979c0-8.812,7.169-15.98,15.979-15.98
								c8.812,0,15.979,7.169,15.979,15.98C129.191,579.989,122.023,587.158,113.212,587.158z M113.212,555.575
								c-8.604,0-15.604,7-15.604,15.604s7,15.604,15.604,15.604s15.604-7,15.604-15.604S121.815,555.575,113.212,555.575z"/>
						</g>
						<g>
							<path fill="#050B1C" d="M113.212,587.158c-8.811,0-15.979-7.169-15.979-15.979c0-8.812,7.169-15.98,15.979-15.98
								c8.812,0,15.979,7.169,15.979,15.98C129.191,579.989,122.023,587.158,113.212,587.158z M113.212,555.575
								c-8.604,0-15.604,7-15.604,15.604s7,15.604,15.604,15.604s15.604-7,15.604-15.604S121.815,555.575,113.212,555.575z"/>
							<path fill="#050B1C" d="M113.212,584.395c-7.287,0-13.216-5.929-13.216-13.216s5.929-13.217,13.216-13.217
								c7.288,0,13.217,5.93,13.217,13.217S120.5,584.395,113.212,584.395z M113.212,558.339c-7.08,0-12.84,5.76-12.84,12.84
								s5.76,12.84,12.84,12.84c7.081,0,12.841-5.76,12.841-12.84S120.293,558.339,113.212,558.339z"/>
							<path fill="#050B1C" d="M113.212,581.631c-5.764,0-10.452-4.688-10.452-10.452s4.688-10.453,10.452-10.453
								s10.452,4.689,10.452,10.453S118.976,581.631,113.212,581.631z M113.212,561.103c-5.556,0-10.076,4.52-10.076,10.076
								s4.521,10.076,10.076,10.076c5.557,0,10.077-4.52,10.077-10.076S118.769,561.103,113.212,561.103z"/>
							<path fill="#050B1C" d="M113.212,578.867c-4.239,0-7.688-3.449-7.688-7.688c0-4.24,3.449-7.689,7.688-7.689
								s7.688,3.449,7.688,7.689C120.9,575.418,117.451,578.867,113.212,578.867z M113.212,563.866
								c-4.032,0-7.312,3.279-7.312,7.312c0,4.032,3.28,7.312,7.312,7.312s7.313-3.28,7.313-7.312
								C120.525,567.146,117.244,563.866,113.212,563.866z"/>
							<circle fill="#050B1C" cx="113.212" cy="571.179" r="4.737"/>
							<path fill="#213154" d="M113.212,586.526c-8.463,0-15.348-6.885-15.348-15.348s6.885-15.348,15.348-15.348
								s15.348,6.885,15.348,15.348S121.675,586.526,113.212,586.526z M113.212,556.206c-8.255,0-14.972,6.717-14.972,14.973
								c0,8.255,6.717,14.971,14.972,14.971c8.256,0,14.972-6.716,14.972-14.971C128.184,562.923,121.468,556.206,113.212,556.206z"
								/>
							<path fill="#213154" d="M113.212,583.873c-7,0-12.694-5.694-12.694-12.694s5.694-12.695,12.694-12.695
								s12.695,5.695,12.695,12.695S120.212,583.873,113.212,583.873z M113.212,558.859c-6.792,0-12.319,5.526-12.319,12.319
								s5.527,12.318,12.319,12.318c6.793,0,12.319-5.525,12.319-12.318S120.005,558.859,113.212,558.859z"/>
							<path fill="#213154" d="M113.212,581.22c-5.537,0-10.042-4.504-10.042-10.041s4.505-10.042,10.042-10.042
								s10.042,4.505,10.042,10.042S118.749,581.22,113.212,581.22z M113.212,561.513c-5.33,0-9.666,4.336-9.666,9.666
								s4.336,9.666,9.666,9.666s9.666-4.336,9.666-9.666S118.542,561.513,113.212,561.513z"/>
							<path fill="#213154" d="M113.212,578.567c-4.074,0-7.389-3.314-7.389-7.389s3.314-7.389,7.389-7.389s7.389,3.314,7.389,7.389
								S117.286,578.567,113.212,578.567z M113.212,564.165c-3.866,0-7.013,3.146-7.013,7.014c0,3.866,3.146,7.012,7.013,7.012
								c3.867,0,7.013-3.146,7.013-7.012C120.225,567.312,117.079,564.165,113.212,564.165z"/>
						</g>
					</g>
					<g>
						<g>
							<radialGradient id="SVGID_9_" cx="113.2124" cy="609.5117" r="15.7917" gradientUnits="userSpaceOnUse">
								<stop  offset="0" style="stop-color:#222A42"/>
								<stop  offset="1" style="stop-color:#221832"/>
							</radialGradient>
							<circle fill="url(#SVGID_9_)" cx="113.212" cy="609.512" r="15.792"/>
							<path fill="#091335" d="M113.212,625.491c-8.811,0-15.979-7.168-15.979-15.979s7.169-15.979,15.979-15.979
								c8.812,0,15.979,7.168,15.979,15.979S122.023,625.491,113.212,625.491z M113.212,593.908c-8.604,0-15.604,7-15.604,15.604
								s7,15.604,15.604,15.604s15.604-7,15.604-15.604S121.815,593.908,113.212,593.908z"/>
						</g>
						<g>
							<path fill="#050B1C" d="M113.212,625.491c-8.811,0-15.979-7.168-15.979-15.979s7.169-15.979,15.979-15.979
								c8.812,0,15.979,7.168,15.979,15.979S122.023,625.491,113.212,625.491z M113.212,593.908c-8.604,0-15.604,7-15.604,15.604
								s7,15.604,15.604,15.604s15.604-7,15.604-15.604S121.815,593.908,113.212,593.908z"/>
							<path fill="#050B1C" d="M113.212,622.728c-7.287,0-13.216-5.929-13.216-13.216c0-7.288,5.929-13.216,13.216-13.216
								c7.288,0,13.217,5.928,13.217,13.216C126.429,616.799,120.5,622.728,113.212,622.728z M113.212,596.671
								c-7.08,0-12.84,5.76-12.84,12.841c0,7.08,5.76,12.84,12.84,12.84c7.081,0,12.841-5.76,12.841-12.84
								C126.053,602.431,120.293,596.671,113.212,596.671z"/>
							<path fill="#050B1C" d="M113.212,619.964c-5.764,0-10.452-4.688-10.452-10.452s4.688-10.452,10.452-10.452
								s10.452,4.688,10.452,10.452S118.976,619.964,113.212,619.964z M113.212,599.435c-5.556,0-10.076,4.521-10.076,10.077
								c0,5.557,4.521,10.077,10.076,10.077c5.557,0,10.077-4.521,10.077-10.077C123.289,603.956,118.769,599.435,113.212,599.435z"
								/>
							<path fill="#050B1C" d="M113.212,617.2c-4.239,0-7.688-3.449-7.688-7.688s3.449-7.688,7.688-7.688s7.688,3.449,7.688,7.688
								S117.451,617.2,113.212,617.2z M113.212,602.198c-4.032,0-7.312,3.281-7.312,7.313s3.28,7.313,7.312,7.313
								s7.313-3.281,7.313-7.313S117.244,602.198,113.212,602.198z"/>
							<circle fill="#050B1C" cx="113.212" cy="609.512" r="4.737"/>
							<path fill="#213154" d="M113.212,624.859c-8.463,0-15.348-6.886-15.348-15.348c0-8.463,6.885-15.349,15.348-15.349
								s15.348,6.886,15.348,15.349C128.56,617.974,121.675,624.859,113.212,624.859z M113.212,594.54
								c-8.255,0-14.972,6.716-14.972,14.972c0,8.255,6.717,14.972,14.972,14.972c8.256,0,14.972-6.717,14.972-14.972
								C128.184,601.256,121.468,594.54,113.212,594.54z"/>
							<path fill="#213154" d="M113.212,622.206c-7,0-12.694-5.694-12.694-12.694c0-7.001,5.694-12.695,12.694-12.695
								s12.695,5.694,12.695,12.695C125.907,616.512,120.212,622.206,113.212,622.206z M113.212,597.192
								c-6.792,0-12.319,5.526-12.319,12.319c0,6.792,5.527,12.318,12.319,12.318c6.793,0,12.319-5.526,12.319-12.318
								C125.531,602.719,120.005,597.192,113.212,597.192z"/>
							<path fill="#213154" d="M113.212,619.554c-5.537,0-10.042-4.505-10.042-10.042s4.505-10.042,10.042-10.042
								s10.042,4.505,10.042,10.042S118.749,619.554,113.212,619.554z M113.212,599.846c-5.33,0-9.666,4.336-9.666,9.666
								s4.336,9.666,9.666,9.666s9.666-4.336,9.666-9.666S118.542,599.846,113.212,599.846z"/>
							<path fill="#213154" d="M113.212,616.9c-4.074,0-7.389-3.314-7.389-7.389s3.314-7.389,7.389-7.389s7.389,3.314,7.389,7.389
								S117.286,616.9,113.212,616.9z M113.212,602.499c-3.866,0-7.013,3.146-7.013,7.013s3.146,7.013,7.013,7.013
								c3.867,0,7.013-3.146,7.013-7.013S117.079,602.499,113.212,602.499z"/>
						</g>
					</g>
				</g>
			</g>
		</g>
		<g>
			<polygon fill="#7F6A49" points="137.595,512.681 98.305,512.681 92.674,508.966 132.927,431.767 137.595,436.544 			"/>
			<g>
				<g>
					<rect x="93.238" y="432.265" fill="#D8BD8D" width="39.29" height="76.137"/>
					<path fill="#6D4E35" d="M133.093,508.966H92.674V431.7h40.419V508.966z M93.802,507.838h38.163v-75.01H93.802V507.838z"/>
				</g>
				<g>
					<g>
						<g>
							<radialGradient id="SVGID_10_" cx="113.2124" cy="451.6279" r="15.7913" gradientUnits="userSpaceOnUse">
								<stop  offset="0" style="stop-color:#222A42"/>
								<stop  offset="1" style="stop-color:#221832"/>
							</radialGradient>
							<circle fill="url(#SVGID_10_)" cx="113.212" cy="451.628" r="15.792"/>
							<path fill="#091335" d="M113.212,467.607c-8.811,0-15.979-7.169-15.979-15.979c0-8.812,7.169-15.98,15.979-15.98
								c8.812,0,15.979,7.169,15.979,15.98C129.191,460.438,122.023,467.607,113.212,467.607z M113.212,436.024
								c-8.604,0-15.604,7-15.604,15.604s7,15.604,15.604,15.604s15.604-7,15.604-15.604S121.815,436.024,113.212,436.024z"/>
						</g>
						<g>
							<path fill="#050B1C" d="M113.212,467.607c-8.811,0-15.979-7.169-15.979-15.979c0-8.812,7.169-15.98,15.979-15.98
								c8.812,0,15.979,7.169,15.979,15.98C129.191,460.438,122.023,467.607,113.212,467.607z M113.212,436.024
								c-8.604,0-15.604,7-15.604,15.604s7,15.604,15.604,15.604s15.604-7,15.604-15.604S121.815,436.024,113.212,436.024z"/>
							<path fill="#050B1C" d="M113.212,464.844c-7.287,0-13.216-5.929-13.216-13.216s5.929-13.217,13.216-13.217
								c7.288,0,13.217,5.93,13.217,13.217S120.5,464.844,113.212,464.844z M113.212,438.788c-7.08,0-12.84,5.76-12.84,12.84
								s5.76,12.84,12.84,12.84c7.081,0,12.841-5.76,12.841-12.84S120.293,438.788,113.212,438.788z"/>
							<path fill="#050B1C" d="M113.212,462.08c-5.764,0-10.452-4.688-10.452-10.452s4.688-10.453,10.452-10.453
								s10.452,4.689,10.452,10.453S118.976,462.08,113.212,462.08z M113.212,441.552c-5.556,0-10.076,4.52-10.076,10.076
								s4.521,10.076,10.076,10.076c5.557,0,10.077-4.52,10.077-10.076S118.769,441.552,113.212,441.552z"/>
							<path fill="#050B1C" d="M113.212,459.316c-4.239,0-7.688-3.449-7.688-7.688c0-4.24,3.449-7.689,7.688-7.689
								s7.688,3.449,7.688,7.689C120.9,455.867,117.451,459.316,113.212,459.316z M113.212,444.315
								c-4.032,0-7.312,3.279-7.312,7.312c0,4.032,3.28,7.312,7.312,7.312s7.313-3.28,7.313-7.312
								C120.525,447.595,117.244,444.315,113.212,444.315z"/>
							<circle fill="#050B1C" cx="113.212" cy="451.628" r="4.737"/>
							<path fill="#213154" d="M113.212,466.976c-8.463,0-15.348-6.885-15.348-15.348s6.885-15.348,15.348-15.348
								s15.348,6.885,15.348,15.348S121.675,466.976,113.212,466.976z M113.212,436.655c-8.255,0-14.972,6.717-14.972,14.973
								c0,8.255,6.717,14.971,14.972,14.971c8.256,0,14.972-6.716,14.972-14.971C128.184,443.372,121.468,436.655,113.212,436.655z"
								/>
							<path fill="#213154" d="M113.212,464.322c-7,0-12.694-5.694-12.694-12.694s5.694-12.695,12.694-12.695
								s12.695,5.695,12.695,12.695S120.212,464.322,113.212,464.322z M113.212,439.309c-6.792,0-12.319,5.526-12.319,12.319
								s5.527,12.318,12.319,12.318c6.793,0,12.319-5.525,12.319-12.318S120.005,439.309,113.212,439.309z"/>
							<path fill="#213154" d="M113.212,461.669c-5.537,0-10.042-4.504-10.042-10.041s4.505-10.042,10.042-10.042
								s10.042,4.505,10.042,10.042S118.749,461.669,113.212,461.669z M113.212,441.962c-5.33,0-9.666,4.336-9.666,9.666
								s4.336,9.666,9.666,9.666s9.666-4.336,9.666-9.666S118.542,441.962,113.212,441.962z"/>
							<path fill="#213154" d="M113.212,459.017c-4.074,0-7.389-3.314-7.389-7.389s3.314-7.389,7.389-7.389s7.389,3.314,7.389,7.389
								S117.286,459.017,113.212,459.017z M113.212,444.614c-3.866,0-7.013,3.146-7.013,7.014c0,3.866,3.146,7.012,7.013,7.012
								c3.867,0,7.013-3.146,7.013-7.012C120.225,447.761,117.079,444.614,113.212,444.614z"/>
						</g>
					</g>
					<g>
						<g>
							<radialGradient id="SVGID_11_" cx="113.2124" cy="489.9609" r="15.7917" gradientUnits="userSpaceOnUse">
								<stop  offset="0" style="stop-color:#222A42"/>
								<stop  offset="1" style="stop-color:#221832"/>
							</radialGradient>
							<circle fill="url(#SVGID_11_)" cx="113.212" cy="489.961" r="15.792"/>
							<path fill="#091335" d="M113.212,505.94c-8.811,0-15.979-7.168-15.979-15.979s7.169-15.979,15.979-15.979
								c8.812,0,15.979,7.168,15.979,15.979S122.023,505.94,113.212,505.94z M113.212,474.357c-8.604,0-15.604,7-15.604,15.604
								s7,15.604,15.604,15.604s15.604-7,15.604-15.604S121.815,474.357,113.212,474.357z"/>
						</g>
						<g>
							<path fill="#050B1C" d="M113.212,505.94c-8.811,0-15.979-7.168-15.979-15.979s7.169-15.979,15.979-15.979
								c8.812,0,15.979,7.168,15.979,15.979S122.023,505.94,113.212,505.94z M113.212,474.357c-8.604,0-15.604,7-15.604,15.604
								s7,15.604,15.604,15.604s15.604-7,15.604-15.604S121.815,474.357,113.212,474.357z"/>
							<path fill="#050B1C" d="M113.212,503.177c-7.287,0-13.216-5.929-13.216-13.216c0-7.288,5.929-13.216,13.216-13.216
								c7.288,0,13.217,5.928,13.217,13.216C126.429,497.248,120.5,503.177,113.212,503.177z M113.212,477.12
								c-7.08,0-12.84,5.76-12.84,12.841c0,7.08,5.76,12.84,12.84,12.84c7.081,0,12.841-5.76,12.841-12.84
								C126.053,482.88,120.293,477.12,113.212,477.12z"/>
							<path fill="#050B1C" d="M113.212,500.413c-5.764,0-10.452-4.688-10.452-10.452s4.688-10.452,10.452-10.452
								s10.452,4.688,10.452,10.452S118.976,500.413,113.212,500.413z M113.212,479.884c-5.556,0-10.076,4.521-10.076,10.077
								c0,5.557,4.521,10.077,10.076,10.077c5.557,0,10.077-4.521,10.077-10.077C123.289,484.405,118.769,479.884,113.212,479.884z"
								/>
							<path fill="#050B1C" d="M113.212,497.649c-4.239,0-7.688-3.449-7.688-7.688s3.449-7.688,7.688-7.688s7.688,3.449,7.688,7.688
								S117.451,497.649,113.212,497.649z M113.212,482.647c-4.032,0-7.312,3.281-7.312,7.313s3.28,7.313,7.312,7.313
								s7.313-3.281,7.313-7.313S117.244,482.647,113.212,482.647z"/>
							<circle fill="#050B1C" cx="113.212" cy="489.961" r="4.737"/>
							<path fill="#213154" d="M113.212,505.309c-8.463,0-15.348-6.886-15.348-15.348c0-8.463,6.885-15.349,15.348-15.349
								s15.348,6.886,15.348,15.349C128.56,498.423,121.675,505.309,113.212,505.309z M113.212,474.989
								c-8.255,0-14.972,6.716-14.972,14.972c0,8.255,6.717,14.972,14.972,14.972c8.256,0,14.972-6.717,14.972-14.972
								C128.184,481.705,121.468,474.989,113.212,474.989z"/>
							<path fill="#213154" d="M113.212,502.655c-7,0-12.694-5.694-12.694-12.694c0-7.001,5.694-12.695,12.694-12.695
								s12.695,5.694,12.695,12.695C125.907,496.961,120.212,502.655,113.212,502.655z M113.212,477.642
								c-6.792,0-12.319,5.526-12.319,12.319c0,6.792,5.527,12.318,12.319,12.318c6.793,0,12.319-5.526,12.319-12.318
								C125.531,483.168,120.005,477.642,113.212,477.642z"/>
							<path fill="#213154" d="M113.212,500.003c-5.537,0-10.042-4.505-10.042-10.042s4.505-10.042,10.042-10.042
								s10.042,4.505,10.042,10.042S118.749,500.003,113.212,500.003z M113.212,480.295c-5.33,0-9.666,4.336-9.666,9.666
								s4.336,9.666,9.666,9.666s9.666-4.336,9.666-9.666S118.542,480.295,113.212,480.295z"/>
							<path fill="#213154" d="M113.212,497.35c-4.074,0-7.389-3.314-7.389-7.389s3.314-7.389,7.389-7.389s7.389,3.314,7.389,7.389
								S117.286,497.35,113.212,497.35z M113.212,482.948c-3.866,0-7.013,3.146-7.013,7.013s3.146,7.013,7.013,7.013
								c3.867,0,7.013-3.146,7.013-7.013S117.079,482.948,113.212,482.948z"/>
						</g>
					</g>
				</g>
			</g>
		</g>
	</g>
</g>
<g>
	<g>
		<path fill="#071128" d="M398.664,505.798c0.645,0,0.645-1,0-1S398.02,505.798,398.664,505.798L398.664,505.798z"/>
	</g>
</g>
</svg>
