<?xml version="1.0" encoding="utf-8"?>
<!-- Generator: Adobe Illustrator 16.0.0, SVG Export Plug-In . SVG Version: 6.00 Build 0)  -->
<!DOCTYPE svg PUBLIC "-//W3C//DTD SVG 1.1//EN" "http://www.w3.org/Graphics/SVG/1.1/DTD/svg11.dtd">
<svg version="1.1" id="Layer_1" xmlns="http://www.w3.org/2000/svg" xmlns:xlink="http://www.w3.org/1999/xlink" x="0px" y="0px"
	 width="303.213px" height="277.508px" viewBox="0 0 303.213 277.508" enable-background="new 0 0 303.213 277.508"
	 xml:space="preserve">
<g>
	<rect y="123.479" fill="#DDCF8A" width="69.759" height="27.492"/>
	<polyline fill="none" stroke="#72612E" stroke-width="3" stroke-miterlimit="10" points="0.001,122.817 69.76,122.817 
		69.76,150.311 0.001,150.311 	"/>
	<circle opacity="0.2" fill="#183049" enable-background="new    " cx="135.252" cy="137.333" r="70.308"/>
	<g>
		<path fill="#593E2B" stroke="#3A2717" stroke-width="2" stroke-miterlimit="10" d="M93.555,55.725
			c0,6.619-5.365,11.984-11.983,11.984h-4.973c-6.618,0-11.983-5.365-11.983-11.984v-18.36c0-6.618,5.365-11.984,11.983-11.984
			h4.973c6.618,0,11.983,5.366,11.983,11.984V55.725z"/>
		<g>
			<path fill="#FFFFFF" stroke="#A5A5A5" stroke-miterlimit="10" d="M76.604,28.041c0,1.457-2.64,3.927-2.64,3.927
				s-2.639-2.47-2.639-3.927c0-1.458,1.182-2.64,2.639-2.64C75.423,25.401,76.604,26.583,76.604,28.041z"/>
			<path fill="#FFFFFF" stroke="#A5A5A5" stroke-miterlimit="10" d="M79.448,31.405c-1.031,1.03-4.643,0.911-4.643,0.911
				s-0.121-3.613,0.91-4.645c1.03-1.029,2.701-1.029,3.732,0C80.479,28.703,80.479,30.375,79.448,31.405z"/>
			<path fill="#FFFFFF" stroke="#A5A5A5" stroke-miterlimit="10" d="M79.08,35.795c-1.457,0-3.927-2.64-3.927-2.64
				s2.47-2.639,3.927-2.639c1.458,0,2.64,1.182,2.64,2.639C81.72,34.613,80.538,35.795,79.08,35.795z"/>
			<path fill="#FFFFFF" stroke="#A5A5A5" stroke-miterlimit="10" d="M75.716,38.639c-1.031-1.031-0.91-4.643-0.91-4.643
				s3.611-0.121,4.643,0.91c1.032,1.031,1.031,2.701,0,3.732C78.418,39.669,76.746,39.67,75.716,38.639z"/>
			<path fill="#FFFFFF" stroke="#A5A5A5" stroke-miterlimit="10" d="M71.326,38.271c0-1.457,2.639-3.927,2.639-3.927
				s2.64,2.47,2.64,3.927c0,1.458-1.182,2.64-2.64,2.64C72.508,40.91,71.326,39.729,71.326,38.271z"/>
			<path fill="#FFFFFF" stroke="#A5A5A5" stroke-miterlimit="10" d="M68.481,34.906c1.031-1.03,4.645-0.91,4.645-0.91
				s0.12,3.611-0.911,4.643c-1.03,1.031-2.702,1.031-3.733,0C67.451,37.607,67.451,35.938,68.481,34.906z"/>
			<path fill="#FFFFFF" stroke="#A5A5A5" stroke-miterlimit="10" d="M68.85,30.517c1.458,0,3.928,2.639,3.928,2.639
				s-2.47,2.64-3.928,2.64c-1.457,0-2.639-1.182-2.639-2.64S67.393,30.517,68.85,30.517z"/>
			<path fill="#FFFFFF" stroke="#A5A5A5" stroke-miterlimit="10" d="M72.215,27.672c1.031,1.031,0.911,4.645,0.911,4.645
				s-3.613,0.119-4.645-0.911c-1.03-1.03-1.03-2.702,0-3.733C69.513,26.643,71.185,26.643,72.215,27.672z"/>
			<circle fill="#FFFF00" stroke="#F6921E" stroke-miterlimit="10" cx="73.965" cy="33.029" r="2.446"/>
		</g>
		<g>
			<path fill="#FFFFFF" stroke="#A5A5A5" stroke-miterlimit="10" d="M91.839,42.805c0,1.457-2.64,3.927-2.64,3.927
				s-2.639-2.47-2.639-3.927c0-1.458,1.182-2.64,2.639-2.64C90.657,40.165,91.839,41.347,91.839,42.805z"/>
			<path fill="#FFFFFF" stroke="#A5A5A5" stroke-miterlimit="10" d="M94.683,46.169c-1.031,1.03-4.643,0.911-4.643,0.911
				s-0.121-3.613,0.91-4.645c1.03-1.029,2.701-1.029,3.732,0C95.714,43.467,95.714,45.139,94.683,46.169z"/>
			<path fill="#FFFFFF" stroke="#A5A5A5" stroke-miterlimit="10" d="M94.314,50.559c-1.457,0-3.927-2.64-3.927-2.64
				s2.47-2.639,3.927-2.639c1.458,0,2.64,1.182,2.64,2.639C96.954,49.377,95.772,50.559,94.314,50.559z"/>
			<path fill="#FFFFFF" stroke="#A5A5A5" stroke-miterlimit="10" d="M90.95,53.402c-1.031-1.031-0.91-4.643-0.91-4.643
				s3.611-0.121,4.643,0.91c1.032,1.031,1.031,2.701,0,3.732C93.652,54.432,91.98,54.434,90.95,53.402z"/>
			<path fill="#FFFFFF" stroke="#A5A5A5" stroke-miterlimit="10" d="M86.561,53.034c0-1.457,2.639-3.927,2.639-3.927
				s2.64,2.47,2.64,3.927c0,1.458-1.182,2.64-2.64,2.64S86.561,54.492,86.561,53.034z"/>
			<path fill="#FFFFFF" stroke="#A5A5A5" stroke-miterlimit="10" d="M83.716,49.67c1.031-1.03,4.645-0.91,4.645-0.91
				s0.12,3.611-0.911,4.643c-1.03,1.031-2.702,1.031-3.733,0C82.686,52.371,82.686,50.701,83.716,49.67z"/>
			<path fill="#FFFFFF" stroke="#A5A5A5" stroke-miterlimit="10" d="M84.084,45.28c1.458,0,3.928,2.639,3.928,2.639
				s-2.47,2.64-3.928,2.64c-1.457,0-2.639-1.182-2.639-2.64C81.445,46.462,82.627,45.28,84.084,45.28z"/>
			<path fill="#FFFFFF" stroke="#A5A5A5" stroke-miterlimit="10" d="M87.449,42.436c1.031,1.031,0.911,4.645,0.911,4.645
				s-3.613,0.119-4.645-0.911c-1.03-1.03-1.03-2.702,0-3.733C84.747,41.406,86.419,41.406,87.449,42.436z"/>
			<circle fill="#FFFF00" stroke="#F6921E" stroke-miterlimit="10" cx="89.199" cy="47.793" r="2.446"/>
		</g>
		<g>
			<path fill="#FFFFFF" stroke="#A5A5A5" stroke-miterlimit="10" d="M73.029,56.877c0,1.457-2.64,3.927-2.64,3.927
				s-2.639-2.47-2.639-3.927c0-1.458,1.182-2.64,2.639-2.64C71.848,54.237,73.029,55.419,73.029,56.877z"/>
			<path fill="#FFFFFF" stroke="#A5A5A5" stroke-miterlimit="10" d="M75.873,60.241c-1.031,1.03-4.643,0.911-4.643,0.911
				s-0.121-3.613,0.91-4.645c1.03-1.029,2.701-1.029,3.732,0C76.904,57.539,76.904,59.211,75.873,60.241z"/>
			<path fill="#FFFFFF" stroke="#A5A5A5" stroke-miterlimit="10" d="M75.505,64.631c-1.457,0-3.927-2.64-3.927-2.64
				s2.47-2.639,3.927-2.639c1.458,0,2.64,1.182,2.64,2.639C78.145,63.449,76.963,64.631,75.505,64.631z"/>
			<path fill="#FFFFFF" stroke="#A5A5A5" stroke-miterlimit="10" d="M72.141,67.475c-1.031-1.031-0.91-4.643-0.91-4.643
				s3.611-0.121,4.643,0.91c1.032,1.031,1.031,2.701,0,3.732C74.843,68.505,73.171,68.506,72.141,67.475z"/>
			<path fill="#FFFFFF" stroke="#A5A5A5" stroke-miterlimit="10" d="M67.751,67.106c0-1.457,2.639-3.927,2.639-3.927
				s2.64,2.47,2.64,3.927c0,1.458-1.182,2.64-2.64,2.64C68.933,69.746,67.751,68.564,67.751,67.106z"/>
			<path fill="#FFFFFF" stroke="#A5A5A5" stroke-miterlimit="10" d="M64.906,63.742c1.031-1.03,4.645-0.91,4.645-0.91
				s0.12,3.611-0.911,4.643c-1.03,1.031-2.702,1.031-3.733,0C63.876,66.443,63.876,64.773,64.906,63.742z"/>
			<path fill="#FFFFFF" stroke="#A5A5A5" stroke-miterlimit="10" d="M65.274,59.353c1.458,0,3.928,2.639,3.928,2.639
				s-2.47,2.64-3.928,2.64c-1.457,0-2.639-1.182-2.639-2.64C62.636,60.534,63.817,59.353,65.274,59.353z"/>
			<path fill="#FFFFFF" stroke="#A5A5A5" stroke-miterlimit="10" d="M68.64,56.508c1.031,1.031,0.911,4.645,0.911,4.645
				s-3.613,0.119-4.645-0.911c-1.03-1.03-1.03-2.702,0-3.733C65.938,55.479,67.609,55.479,68.64,56.508z"/>
			<circle fill="#FFFF00" stroke="#F6921E" stroke-miterlimit="10" cx="70.39" cy="61.865" r="2.446"/>
		</g>
	</g>
	<g>
		<circle fill="#969696" stroke="#383838" stroke-width="3" stroke-miterlimit="10" cx="135.354" cy="137.226" r="67.095"/>
		<g>
			<g>
				<defs>
					<path id="SVGID_1_" d="M135.354,71.63c-36.169,0-65.595,29.426-65.595,65.596c0,36.168,29.426,65.594,65.595,65.594
						c36.168,0,65.595-29.426,65.595-65.594C200.948,101.056,171.522,71.63,135.354,71.63z"/>
				</defs>
				<clipPath id="SVGID_2_">
					<use xlink:href="#SVGID_1_"  overflow="visible"/>
				</clipPath>
				<path opacity="0.6" clip-path="url(#SVGID_2_)" fill="#383838" enable-background="new    " d="M123.949,77.863
					c0.04-1.217,0.513-1.757,1.647-2.115c1.646-0.521,3.279-1.082,4.909-1.653V73.35c-1.656,0.535-3.309,1.085-4.921,1.731
					c-1.307,0.525-2.128,0.402-2.771-0.915c-0.324-0.665-0.887-1.214-1.34-1.816c-0.145,0.115-0.291,0.232-0.437,0.349
					c0.465,0.697,1.041,1.346,1.366,2.103c0.378,0.877,0.768,1.856,0.744,2.781c-0.054,2.104-0.379,4.198-0.551,6.302
					c-0.068,0.857-0.409,1.273-1.313,1.23c-1.155-0.054-2.325-0.146-3.47-0.029c-2.94,0.305-4.936-0.635-5.955-3.624
					c-0.602-1.761-1.701-3.349-2.588-5.036c2.346-1.293,4.492-2.475,6.64-3.658c-0.056-0.119-0.108-0.234-0.165-0.354
					c-0.455,0.14-0.942,0.219-1.361,0.433c-1.25,0.642-2.541,1.237-3.688,2.036c-1.426,0.992-2.772,1.123-4.037-0.061
					c-0.58-0.545-0.889-1.381-1.27-2.001c0.078,1.297-0.941,1.853-2.246,2.001c-0.619,0.068-1.301,0.016-1.896-0.172
					c-0.922-0.289-1.834-0.606-2.746-0.926l-0.463,0.564c1.218,0.438,2.443,0.881,3.696,1.332c-0.729,1.951-1.521,3.743-2.064,5.608
					c-0.567,1.951-1.717,3.314-3.372,4.414c-0.743,0.493-1.27,0.539-1.996,0.052c-1.127-0.754-2.379-1.33-3.451-2.149
					c-0.077-0.06-0.149-0.141-0.223-0.216l-0.625,0.762c0.063,0.046,0.127,0.096,0.197,0.117c4.986,1.511,5.459,5.456,5.227,9.752
					c-0.021,0.363-0.301,0.887-0.609,1.037c-2.472,1.214-4.978,2.355-7.637,3.595c-0.902-2.634-1.785-5.212-2.672-7.798
					l-0.639,0.779c0.778,2.252,1.541,4.511,2.291,6.773c0.411,1.236-0.012,1.821-1.283,1.844c-1.457,0.024-2.914,0.006-4.371,0.006
					c-1.185-0.062-2.369-0.146-3.552-0.188l-0.764,0.932c2.854,0.013,5.706,0.083,8.554,0.241c0.426,0.022,1.064,0.549,1.192,0.968
					c0.862,2.821,1.64,5.672,2.37,8.53c0.092,0.37-0.115,0.989-0.402,1.251c-1.627,1.49-3.306,2.929-5.008,4.333
					c-0.28,0.229-0.844,0.389-1.154,0.269c-3.771-1.473-7.521-3.004-11.457-4.591c1.224-2.81,2.378-5.494,3.557-8.136l-8.001,9.762
					l-0.084,6.235l-3.5,1.5v13.834l7.302,14.024c1.064-0.381,3.649,1.701,3.518,2.865c-0.246,2.185-0.559,4.365-0.941,6.531
					c-0.07,0.392-0.533,0.83-0.927,1.028c-1.026,0.517-2.113,0.907-3.176,1.354l-1.342,1.582l0.532,0.754
					c0-0.808,0.35-1.231,1.145-1.57c3.959-1.695,3.949-1.723,7.69,0.521c1.332,0.801,2.714,1.531,3.97,2.438
					c0.461,0.334,0.883,1.087,0.877,1.644c-0.031,2.785-0.507,5.444-2.451,7.676c-0.61,0.701-1.104,1.185-2.086,1.115
					c-0.27-0.02-0.541-0.014-0.811-0.02l0.609,0.863c0.478,0.061,0.916,0.176,1.27,0.416c0.969,0.658,1.24,2.352,1.686,3.77
					l1.912,2.709c-0.867-2.32-1.707-4.572-2.521-6.832c-0.094-0.264,0.057-0.693,0.226-0.96c0.72-1.142,1.492-2.251,2.32-3.481
					c4.392,1.873,8.614,3.675,13.115,5.591c-3.962,2.704-7.7,5.254-11.577,7.897l0.497,0.703c0.004-0.004,0.009-0.008,0.014-0.012
					c3.684-2.538,7.367-5.077,11.107-7.525c0.516-0.337,1.398-0.38,2.025-0.219c1.203,0.311,2.326,0.941,3.525,1.29
					c0.976,0.284,1.221,0.845,1.183,1.769c-0.054,1.304-0.005,2.612-0.017,3.922c-0.013,1.414-0.846,2.435-2.249,2.444
					c-4.806,0.039-9.608,0.017-14.411,0l0.779,1.104c4.348,0,8.726,0,13.322,0c-2.238,3.232-4.408,6.365-6.596,9.525l0.547,0.776
					c2.266-3.931,7.572-10.897,9.068-11.739c1.959,1.934,4.015,3.826,5.876,5.895c0.479,0.531,0.421,1.604,0.483,2.438
					c0.088,1.199,0.004,2.41,0.103,3.608c0.086,1.053-0.505,1.616-1.354,1.604c-4.346-0.057-8.702-0.188-13.117-0.308l0.523,0.742
					c0.271-0.009,0.543-0.021,0.814-0.019c2.563,0.021,5.144,0.016,7.683,0.321c2.479,0.299,4.87-0.388,7.383-0.127
					c3.972,0.413,8.019,0.11,11.929,0.11c0.776-3.362,1.512-6.586,2.285-9.803c0.072-0.298,0.334-0.635,0.602-0.787
					c1.363-0.777,2.728-1.487,4.349-0.526c0.474,0.278,1.015,0.442,1.555,0.608v-0.937c-0.665-0.248-1.331-0.489-1.986-0.76
					c-0.435-0.179-0.881-0.906-0.907-1.402c-0.104-1.957-0.042-3.921-0.042-5.882c0.073,0,0.146,0,0.218,0
					c0-1.709-0.029-3.418,0.011-5.125c0.032-1.572,1.246-2.749,2.707-2.756v-1.559c-0.477,1.144-1.589,1.312-2.56,1.469
					c-0.79,0.127-2.062-0.229-2.491-0.822c-1.991-2.746-3.763-5.652-5.671-8.596c2.4-2.02,4.691-3.945,7.023-5.906
					c1.261,0.742,2.49,1.458,3.698,2.189v-0.865c-2.501-1.457-4.079-3.096-3.874-6.154c0.052-0.784-0.231-1.588-0.283-2.387
					c-0.046-0.766-0.304-1.863,0.086-2.236c0.879-0.844,2.1-1.331,3.244-2c0.282,0.166,0.564,0.312,0.827,0.486v-3.483
					c-0.28,0.729-0.61,1.417-1.112,1.933c-1.062,1.096-2.668,1.705-4.119,2.347c-0.369,0.161-1.266-0.195-1.537-0.583
					c-2.581-3.69-5.082-7.441-7.74-11.375c2.87-1.235,5.482-2.357,8.221-3.536c2.111,2.621,4.206,5.217,6.288,7.823v-1.391
					c-1.772-2.191-3.51-4.34-5.192-6.5c-0.229-0.293-0.236-0.945-0.081-1.319c0.695-1.661,1.481-3.29,2.249-4.923
					c0.451-0.959,1.793-1.641,3.024-1.727v-0.985c-0.996,0.58-2.604,0.787-3.375,0.306c-2.034-1.267-3.485-2.797-3.613-5.431
					c-0.095-1.927-0.68-3.827-1.096-5.987c2.411-0.812,4.72-1.601,7.04-2.354c0.252-0.081,0.637-0.073,0.841,0.066
					c0.068,0.047,0.135,0.096,0.203,0.143v-1.97c-0.335-0.888-0.392-2.056-0.486-4.106c-0.022-0.452,0.049-0.94-0.097-1.349
					c-0.576-1.631-0.201-2.924,0.583-4.064v-1.241c-1.031,1.288-2.324,2.157-4.257,2.234c-2.479,0.099-4.945,0.585-7.617,0.929
					c0.417-1.812,0.781-3.459,1.183-5.099c0.74-3.02,1.534-6.027,2.238-9.057c0.228-0.979,0.614-1.259,1.567-0.866
					c1.251,0.515,2.57,0.877,3.801,1.435c0.485,0.219,0.973,0.72,1.184,1.211c0.668,1.547,1.294,3.113,1.901,4.686v-2.248
					c-0.357-0.911-0.712-1.823-1.052-2.741c-0.126-0.344,0.005-1.036,0.269-1.234c0.26-0.195,0.522-0.389,0.783-0.583v-0.955
					c-1.784,1.13-3.593,1.123-5.755,0.026c-1.186-0.6-1.51-1.183-1.342-2.384C123.662,81.466,123.893,79.665,123.949,77.863z
					 M102.554,76.275c0.359-0.713,1.996-1.381,2.768-1.147c1.285,0.39,2.675,1.297,3.428,2.393c1.47,2.137,2.564,4.534,3.725,6.869
					c0.2,0.4,0.128,1.156-0.133,1.522c-0.75,1.058-1.661,2.001-2.592,3.085c-3.477-1.743-6.785-3.399-10.213-5.115
					C100.537,81.261,101.347,78.666,102.554,76.275z M100.488,85.313c2.903,1.457,5.808,2.918,8.74,4.391
					c-0.013,0.258-0.009,0.308-0.021,0.355c-1.244,4.469-1.273,4.371-5.77,5.741c-2.195,0.671-4.188,0.857-6.041-0.639
					c-0.488-0.394-1.014-1.013-1.092-1.586c-0.244-1.78-0.328-3.59-0.387-5.39C95.849,86.087,98.614,84.375,100.488,85.313z
					 M114.179,162.781c-0.824,1.328-3.154,1.726-4.826,2.521c-0.49,0.234-0.998,0.438-1.528,0.666
					c-2.03-1.934-4.052-3.818-6.009-5.763c-0.303-0.3-0.479-0.896-0.447-1.335c0.162-2.251,0.339-4.506,0.686-6.73
					c0.089-0.567,0.777-1.072,1.253-1.543c2.283-2.264,4.388-1.983,7.233-0.453c3.131,1.687,4.595,3.515,4.022,7.06
					C114.262,159.062,115.044,161.387,114.179,162.781z M106.388,147.188c-0.868,1.516-3.027,2.386-4.763,3.233
					c-0.41,0.2-1.798-0.669-2.102-1.337c-1.411-3.087-2.599-6.277-3.908-9.536c2.542-1.268,4.951-2.487,7.386-3.658
					c0.234-0.114,0.623,0.04,0.921,0.134c0.179,0.058,0.319,0.236,0.47,0.369c1.334,1.199,2.664,2.401,3.997,3.603
					C107.771,142.42,107.589,145.098,106.388,147.188z M86.809,137.189c2.253,0.695,4.525,1.334,6.735,2.146
					c0.646,0.235,1.337,0.877,1.613,1.505c1.159,2.615,2.169,5.295,3.228,7.955c0.034,0.084,0.005,0.193,0.005,0.629
					c-1.295,0-2.538,0-3.779,0c-1.913,0-3.824,0-5.734,0c-3.164,0-4.846-1.701-4.723-4.865c0.074-1.957,0.191-3.918,0.392-5.866
					C84.721,136.985,85.22,136.698,86.809,137.189z M85.994,136.037c0.697-1.751,1.259-3.307,1.95-4.801
					c0.201-0.435,0.726-0.817,1.19-1.017c3.366-1.438,6.766-2.797,10.13-4.242c1.051-0.452,1.516-0.286,1.775,0.886
					c0.585,2.632,1.289,5.237,1.986,8.014c-2.581,1.286-5.127,2.562-7.686,3.814c-0.205,0.101-0.511,0.116-0.73,0.05
					C91.792,137.872,88.981,136.979,85.994,136.037z M87.082,150.393c3.937,0,7.854-0.065,11.768,0.026
					c1.962,0.046,2.5,0.904,2.244,2.84c-0.214,1.64-0.4,3.286-0.507,4.937c-0.061,0.914-0.354,1.469-1.273,1.777
					c-1.946,0.654-3.815,1.772-5.802,2.018c-1.948,0.238-4.007-0.354-6.009-0.637c-0.171-0.024-0.401-0.457-0.403-0.701
					C87.072,157.301,87.082,153.95,87.082,150.393z M104.499,135.326c-0.376-0.339-0.652-0.879-0.787-1.378
					c-0.715-2.658-1.372-5.333-2.102-8.209c2.856-1.021,5.562-2.1,8.352-2.878c0.535-0.149,1.825,0.753,2.043,1.412
					c1.201,3.611,2.207,7.293,3.186,10.976c0.102,0.379-0.291,1.15-0.665,1.347c-1.548,0.82-3.161,1.531-4.788,2.187
					c-0.359,0.146-0.986,0.055-1.298-0.182C107.083,137.567,105.767,136.47,104.499,135.326z M110.167,120.776
					c-0.067,0.504-0.614,1.168-1.098,1.357c-2.38,0.938-4.818,1.723-7.223,2.602c-0.731,0.267-1.26,0.238-1.577-0.562
					c-1.443-3.628-2.894-7.253-4.371-10.954c1.553-1.115,2.97-2.252,4.507-3.183c0.571-0.345,1.441-0.341,2.155-0.278
					c2.448,0.225,4.883,0.619,7.332,0.799c1.145,0.084,1.327,0.577,1.223,1.539C110.795,114.989,110.556,117.893,110.167,120.776z
					 M110.933,109.834c-3.092-0.329-5.94-0.587-8.77-0.983c-0.389-0.054-0.948-0.761-0.978-1.197
					c-0.218-3.154-0.349-6.315-0.423-9.479c-0.009-0.33,0.455-0.87,0.804-0.979c1.865-0.58,3.752-1.097,5.654-1.532
					c0.378-0.088,0.982,0.143,1.267,0.436c2.051,2.139,4.049,4.33,6.059,6.511c0.195,0.216,0.414,0.467,0.482,0.735
					c0.469,1.867-1.488,5.635-3.312,6.382C111.404,109.853,111.03,109.822,110.933,109.834z M86.75,101.767
					c-0.4-1.293,0.11-2.051,1.161-2.561c2.39-1.156,4.798-2.28,7.216-3.377c1.452-0.66,4.599,1.093,4.716,2.675
					c0.198,2.7,0.28,5.407,0.424,8.355c0.482,1.573-0.568,2.481-1.842,3.587c-2.163,1.885-4.27,2.221-6.977,1.327
					c-1.521-0.501-2.34-1.046-2.685-2.624C88.218,106.659,87.503,104.204,86.75,101.767z M84.099,116.401
					c1.396-1.223,2.808-2.429,4.211-3.644c0.115-0.099,0.221-0.206,0.344-0.294c0.903-0.644,6.275,0.663,6.693,1.687
					c1.436,3.519,2.82,7.061,4.293,10.768c-3.93,1.63-7.669,3.181-11.602,4.812c-0.819-1.635-1.617-3.229-2.415-4.824
					c-0.765-1.523-1.54-3.041-2.288-4.572C82.471,118.565,82.646,117.673,84.099,116.401z M87.091,129.821
					c0.423,0.871-1.955,6.643-2.859,6.998c-0.318,0.126-0.769,0.017-1.133-0.084c-2.219-0.613-4.426-1.272-6.646-1.878
					c-0.782-0.213-1.166-0.563-1.111-1.459c0.135-2.202,0.132-4.414,0.273-6.615c0.031-0.487,0.307-1.077,0.666-1.407
					c1.883-1.73,3.831-3.391,5.978-5.271C83.937,123.466,85.542,126.629,87.091,129.821z M68.994,114.102
					c0.014-1.412,0.319-1.62,1.634-1.095c3.442,1.375,6.881,2.764,10.301,4.197c0.46,0.19,0.801,0.663,1.328,1.122
					c-0.458,0.681-0.674,1.188-1.046,1.524c-1.786,1.616-3.586,3.221-5.452,4.745c-0.354,0.289-1.099,0.402-1.527,0.24
					c-1.449-0.55-2.82-1.306-4.26-1.892c-0.788-0.32-1.01-0.812-0.999-1.61C69.011,118.925,68.97,116.513,68.994,114.102z
					 M65.42,128.287c1.041-1.644,2.117-3.263,3.256-5.003c1.869,0.85,3.571,1.578,5.221,2.41c0.347,0.175,0.71,0.733,0.712,1.116
					c0,2.201-0.123,4.403-0.166,6.607c-0.017,0.789-0.32,1.112-1.131,1.239c-2.064,0.317-4.112,0.756-6.283,1.168
					c-0.641-2.246-1.271-4.395-1.845-6.56C65.108,128.978,65.247,128.562,65.42,128.287z M70.358,146.941
					c-1.378-3.2-2.332-6.586-3.586-10.271c3.855-0.317,7.31-2.138,11.072-0.57c1.516,0.628,3.158,0.952,4.754,1.374
					c0.785,0.209,1.173,0.562,1.095,1.46c-0.181,2.095-0.205,4.207-0.435,6.296c-0.06,0.524-0.543,1.211-1.019,1.447
					c-2.558,1.264-5.171,2.415-7.776,3.582c-0.287,0.131-0.801,0.258-0.944,0.116C72.403,149.28,70.942,148.294,70.358,146.941z
					 M77.88,162.331c-1.335-0.801-2.718-1.531-3.973-2.438c-0.454-0.33-0.885-1.105-0.842-1.639
					c0.165-1.993,0.496-3.974,0.846-5.943c0.076-0.43,0.394-0.992,0.756-1.164c2.887-1.379,5.812-2.674,8.664-3.967
					c1.953,1.563,2.752,3.362,2.692,5.643c-0.069,2.607,0.084,5.219,0.065,7.828c-0.002,0.418-0.394,0.832-0.611,1.246
					c-0.02,0.041-0.076,0.062-0.117,0.094C81.722,164.635,81.72,164.636,77.88,162.331z M82.106,171.049
					c-0.33-0.146-0.656-0.754-0.648-1.141c0.025-1.299,0.134-2.604,0.357-3.883c0.084-0.471,0.492-0.982,0.895-1.282
					c1.042-0.775,2.107-1.576,3.28-2.104c0.688-0.311,1.629-0.267,2.413-0.132c3.791,0.65,3.818,0.675,4.501,4.361
					c0.561,3.042,1.032,6.101,1.6,9.485C90.183,174.52,86.13,172.816,82.106,171.049z M97.155,177.477
					c-1.052-0.619-1.826-1.01-2.016-2.391c-0.507-3.669-1.256-7.299-1.816-10.958c-0.059-0.392,0.383-1.114,0.764-1.274
					c1.937-0.814,3.918-1.527,5.912-2.189c0.365-0.123,0.994,0.008,1.278,0.268c1.854,1.688,3.658,3.435,5.448,5.194
					c0.289,0.285,0.411,0.738,0.504,0.916c-0.35,2.646-0.582,5.044-1.031,7.401c-0.121,0.627-0.907,1.123-1.377,1.688
					C102.646,178.746,100.188,179.259,97.155,177.477z M102.335,186.745c-0.247-0.263-0.361-0.697-0.423-1.071
					c-0.071-0.439-0.024-0.9-0.024-1.354c-0.005-4.952-0.016-4.969,4.038-7.951c0.39-0.287,1.118-0.414,1.574-0.266
					c2.285,0.748,4.555,1.565,6.777,2.479c0.479,0.197,0.966,0.847,1.085,1.369c0.535,2.343,0.979,4.711,1.359,7.083
					c0.064,0.407-0.231,0.991-0.549,1.308c-0.371,0.373-0.943,0.551-1.436,0.805c-2.182,1.121-4.368,2.238-6.754,3.461
					C106.091,190.65,104.194,188.717,102.335,186.745z M121.205,199.708c-0.176,0.817-0.554,1.045-1.327,1.039
					c-3.21-0.026-6.423-0.026-9.634-0.004c-0.911,0.008-1.425-0.298-1.458-1.271c-0.057-1.806-0.201-3.608-0.181-5.41
					c0.006-0.412,0.445-0.986,0.839-1.203c2.376-1.297,4.789-2.521,7.203-3.744c0.337-0.17,0.809-0.358,1.119-0.252
					c1.829,0.641,3.631,1.363,5.483,2.078C122.536,193.967,121.828,196.827,121.205,199.708z M126.865,176.068
					c0.013,1.906,0.004,3.812,0.004,5.72c-0.079,0-0.159,0-0.237,0c0,1.903,0.025,3.81-0.009,5.713
					c-0.025,1.51-1.991,2.931-3.448,2.451c-1.569-0.513-3.119-1.097-4.627-1.767c-0.403-0.18-0.793-0.746-0.894-1.201
					c-0.521-2.393-0.994-4.799-1.364-7.219c-0.064-0.42,0.31-1.147,0.688-1.352c2.469-1.327,4.987-2.57,7.508-3.8
					C125.861,173.943,126.856,174.57,126.865,176.068z M124.638,173.575c-3.006,1.5-5.817,2.928-8.66,4.286
					c-0.337,0.162-0.879,0.046-1.275-0.094c-2.225-0.781-4.42-1.646-6.652-2.398c-0.852-0.29-1.059-0.747-0.924-1.574
					c0.317-1.979,0.519-3.98,0.897-5.949c0.104-0.533,0.566-1.177,1.044-1.429c1.684-0.89,3.439-1.649,5.184-2.42
					c1.128-0.496,4.413,0.371,5.078,1.375C121.071,168.009,122.767,170.68,124.638,173.575z M125.35,150.742
					c0.249,1.938,0.632,3.863,0.771,5.806c0.049,0.672-0.267,1.589-0.747,2.038c-1.758,1.645-3.67,3.12-5.494,4.695
					c-1.365,1.176-2.551-0.014-3.751-0.33c-0.345-0.092-0.581-1.096-0.629-1.701c-0.099-1.195-0.03-2.407-0.03-3.613
					c-0.035-0.002-0.072-0.005-0.105-0.005c0.109-1.687-0.329-3.741,0.486-4.95c0.782-1.158,2.863-1.442,4.379-2.1
					c0.968-0.418,1.926-0.863,2.918-1.207C124.628,148.861,125.155,149.236,125.35,150.742z M123.053,148.43
					c-2.647,1.123-5.155,2.215-7.694,3.234c-0.289,0.115-0.777-0.081-1.105-0.258c-2.03-1.098-4.065-2.192-6.038-3.389
					c-0.352-0.215-0.659-0.953-0.573-1.36c0.41-1.96,0.928-3.899,1.495-5.82c0.136-0.463,0.521-0.995,0.938-1.204
					c1.699-0.857,3.453-1.599,5.377-2.468C117.991,140.93,120.454,144.58,123.053,148.43z M127.09,125.385
					c-0.948,2.072-1.847,4.081-2.794,6.066c-0.158,0.329-0.48,0.668-0.812,0.815c-2.37,1.059-4.763,2.069-7.302,3.16
					c-1.12-3.924-2.2-7.703-3.342-11.693c2.425-0.268,4.685-0.518,6.949-0.764c0.247-0.025,0.52,0.033,0.747-0.047
					C123.336,121.946,125.19,123.518,127.09,125.385z M123.207,121.72c-2.308,0.266-4.524,0.525-6.739,0.77
					c-1.097,0.12-2.19,0.268-3.289,0.305c-1.676,0.059-2.309-0.617-2.152-2.252c0.287-2.989,0.614-5.975,0.909-8.964
					c0.152-1.547,1.483-2.088,2.524-2.768c0.324-0.212,1.213,0.326,1.788,0.626c0.752,0.394,1.406,0.994,2.181,1.321
					c2.452,1.037,3.651,2.828,3.844,5.487C122.401,118.021,122.86,119.769,123.207,121.72z M119.603,101.821
					c1.098-0.109,2.188-0.289,3.281-0.443c1.64-0.231,3.272-0.523,4.922-0.658c0.348-0.03,1.03,0.469,1.069,0.786
					c0.286,2.29,0.443,4.597,0.683,7.36c-0.172,0.169-0.532,0.601-0.971,0.925c-0.268,0.2-0.655,0.239-0.989,0.345
					c-1.86,0.591-3.796,1.803-5.562,1.594c-1.771-0.213-3.314-1.965-5.068-2.814c-1.576-0.763-1.822-1.759-1.455-3.352
					C116.082,103.084,117.066,102.08,119.603,101.821z M117.751,100.782c-0.402,1.559-2.035,1.831-3.125,0.65
					c-1.773-1.918-3.592-3.796-5.295-5.773c-0.362-0.42-0.533-1.235-0.424-1.796c0.564-2.878,1.963-5.333,4.115-7.336
					c0.312-0.29,0.714-0.669,1.084-0.68c2.342-0.062,4.689-0.03,7.331-0.03C120.129,91.165,118.993,95.987,117.751,100.782z"/>
			</g>
		</g>
	</g>
	<polygon opacity="0.2" fill="#183049" enable-background="new    " points="99.213,0 99.213,87.601 91.554,87.601 91.554,186.456 
		99.213,186.456 99.213,277.508 303.213,277.508 303.213,0 	"/>
	<g>
		<g>
			
				<rect x="96.046" y="92.728" fill="#EFE9DA" stroke="#A89A7B" stroke-width="3" stroke-miterlimit="10" width="23.832" height="88.995"/>
			<rect x="102.046" y="92.728" opacity="0.5" fill="#A89A7B" enable-background="new    " width="17.832" height="88.995"/>
		</g>
		<g>
			<g>
				<path fill="#427ACC" d="M291.081,261.277c0,2.75-2.25,5-5,5H113.857c-2.75,0-5-2.25-5-5V13.946c0-2.75,2.25-5,5-5h172.224
					c2.75,0,5,2.25,5,5V261.277z"/>
				<path fill="none" stroke="#1B4F8C" stroke-width="3" stroke-miterlimit="10" d="M291.081,261.277c0,2.75-2.25,5-5,5H113.857
					c-2.75,0-5-2.25-5-5V13.946c0-2.75,2.25-5,5-5h172.224c2.75,0,5,2.25,5,5V261.277z"/>
			</g>
			<g>
				<g>
					<path fill="none" stroke="#7FB3DD" stroke-miterlimit="10" d="M290.046,260.077c0,2.75-2.25,5-5,5H114.872c-2.75,0-5-2.25-5-5
						V14.046c0-2.75,2.25-5,5-5h170.174c2.75,0,5,2.25,5,5V260.077z"/>
				</g>
				<g>
					<path fill="none" stroke="#7FB3DD" stroke-miterlimit="10" d="M279.274,253.693c0,2.75-2.25,5-5,5H125.672c-2.75,0-5-2.25-5-5
						V20.322c0-2.75,2.25-5,5-5h148.603c2.75,0,5,2.25,5,5V253.693z"/>
				</g>
				<g>
					<path fill="none" stroke="#7FB3DD" stroke-miterlimit="10" d="M268.505,247.312c0,2.75-2.25,5-5,5H136.473c-2.75,0-5-2.25-5-5
						V26.599c0-2.75,2.25-5,5-5h127.032c2.75,0,5,2.25,5,5V247.312z"/>
				</g>
				<g>
					<path fill="none" stroke="#7FB3DD" stroke-miterlimit="10" d="M257.733,240.93c0,2.75-2.25,5-5,5h-105.46c-2.75,0-5-2.25-5-5
						V32.875c0-2.75,2.25-5,5-5h105.46c2.75,0,5,2.25,5,5V240.93z"/>
				</g>
				<g>
					<path fill="none" stroke="#7FB3DD" stroke-miterlimit="10" d="M246.964,234.548c0,2.75-2.25,5-5,5h-83.89c-2.75,0-5-2.25-5-5
						V39.152c0-2.75,2.25-5,5-5h83.89c2.75,0,5,2.25,5,5V234.548z"/>
				</g>
				<g>
					<path fill="none" stroke="#7FB3DD" stroke-miterlimit="10" d="M236.192,228.166c0,2.75-2.25,5-5,5h-62.318c-2.75,0-5-2.25-5-5
						V45.429c0-2.75,2.25-5,5-5h62.318c2.75,0,5,2.25,5,5V228.166z"/>
				</g>
				<g>
					<path fill="none" stroke="#7FB3DD" stroke-miterlimit="10" d="M225.423,221.783c0,2.75-2.25,5-5,5h-40.748c-2.75,0-5-2.25-5-5
						V51.705c0-2.75,2.25-5,5-5h40.748c2.75,0,5,2.25,5,5V221.783z"/>
				</g>
				<g>
					<path fill="none" stroke="#7FB3DD" stroke-miterlimit="10" d="M214.651,215.4c0,2.75-2.25,5-5,5h-19.176c-2.75,0-5-2.25-5-5
						V57.981c0-2.75,2.25-5,5-5h19.176c2.75,0,5,2.25,5,5V215.4z"/>
				</g>
			</g>
			<g>
				<g>
					<path fill="none" stroke="#1B4F8C" stroke-miterlimit="10" d="M291.172,260.604c0,2.75-2.25,5-5,5H113.948c-2.75,0-5-2.25-5-5
						V13.271c0-2.75,2.25-5,5-5h172.224c2.75,0,5,2.25,5,5V260.604z"/>
				</g>
				<g>
					<path fill="none" stroke="#1B4F8C" stroke-miterlimit="10" d="M280.351,254.188c0,2.75-2.25,5-5,5H124.769c-2.75,0-5-2.25-5-5
						V19.579c0-2.75,2.25-5,5-5h150.582c2.75,0,5,2.25,5,5V254.188z"/>
				</g>
				<g>
					<path fill="none" stroke="#1B4F8C" stroke-miterlimit="10" d="M269.528,247.773c0,2.75-2.25,5-5,5H135.591c-2.75,0-5-2.25-5-5
						V25.887c0-2.75,2.25-5,5-5h128.938c2.75,0,5,2.25,5,5V247.773z"/>
				</g>
				<g>
					<path fill="none" stroke="#1B4F8C" stroke-miterlimit="10" d="M258.708,241.357c0,2.75-2.25,5-5,5H146.412c-2.75,0-5-2.25-5-5
						V32.195c0-2.75,2.25-5,5-5h107.296c2.75,0,5,2.25,5,5V241.357z"/>
				</g>
				<g>
					<path fill="none" stroke="#1B4F8C" stroke-miterlimit="10" d="M247.888,234.943c0,2.75-2.25,5-5,5h-85.654c-2.75,0-5-2.25-5-5
						V38.504c0-2.75,2.25-5,5-5h85.654c2.75,0,5,2.25,5,5V234.943z"/>
				</g>
				<g>
					<path fill="none" stroke="#1B4F8C" stroke-miterlimit="10" d="M237.065,228.529c0,2.75-2.25,5-5,5h-64.012c-2.75,0-5-2.25-5-5
						V44.812c0-2.75,2.25-5,5-5h64.012c2.75,0,5,2.25,5,5V228.529z"/>
				</g>
				<g>
					<path fill="none" stroke="#1B4F8C" stroke-miterlimit="10" d="M226.245,222.115c0,2.75-2.25,5-5,5h-42.369c-2.75,0-5-2.25-5-5
						V51.12c0-2.75,2.25-5,5-5h42.369c2.75,0,5,2.25,5,5V222.115z"/>
				</g>
				<g>
					<path fill="none" stroke="#1B4F8C" stroke-miterlimit="10" d="M215.424,215.7c0,2.75-2.25,5-5,5h-20.728c-2.75,0-5-2.25-5-5
						V57.429c0-2.75,2.25-5,5-5h20.728c2.75,0,5,2.25,5,5V215.7z"/>
				</g>
			</g>
			<polygon opacity="0.4" fill="#1D277F" enable-background="new    " points="292.88,19.095 292.88,7.726 277.599,7.726 
				200.062,58.96 122.237,7.423 107.547,7.503 107.547,19.36 191.763,72.659 191.763,202.189 107.547,254.948 107.547,268.001 
				122.237,268.081 200.062,216.544 277.599,267.777 292.88,267.777 292.88,255.409 208.177,202.264 208.177,72.604 			"/>
			
				<linearGradient id="SVGID_3_" gradientUnits="userSpaceOnUse" x1="115.9067" y1="164.0566" x2="300.8467" y2="164.0566" gradientTransform="matrix(1 0 0 -1 -8.3599 301.5625)">
				<stop  offset="0" style="stop-color:#1D277F"/>
				<stop  offset="0.3" style="stop-color:#1D277F;stop-opacity:0"/>
				<stop  offset="0.7" style="stop-color:#1D277F;stop-opacity:0"/>
				<stop  offset="0.97" style="stop-color:#1D277F"/>
			</linearGradient>
			<polygon opacity="0.4" fill="url(#SVGID_3_)" enable-background="new    " points="292.487,12.991 199.521,67.71 107.547,12.991 
				107.547,262.02 199.521,208.493 292.487,262.02 			"/>
			
				<linearGradient id="SVGID_4_" gradientUnits="userSpaceOnUse" x1="209.0361" y1="301.6816" x2="209.0361" y2="232.5103" gradientTransform="matrix(1 0 0 -1 -8.3599 301.5625)">
				<stop  offset="0" style="stop-color:#1D277F"/>
				<stop  offset="0.4506" style="stop-color:#1D277F;stop-opacity:0"/>
				<stop  offset="0.7" style="stop-color:#1D277F;stop-opacity:0"/>
				<stop  offset="0.97" style="stop-color:#1D277F"/>
			</linearGradient>
			<polygon opacity="0.8" fill="url(#SVGID_4_)" enable-background="new    " points="113.974,7.503 287.38,7.503 204.073,66.888 
				193.685,66.888 			"/>
			
				<linearGradient id="SVGID_5_" gradientUnits="userSpaceOnUse" x1="207.0371" y1="-4051.022" x2="207.0371" y2="-4120.1938" gradientTransform="matrix(1 0 0 1 -8.3599 4326.3867)">
				<stop  offset="0" style="stop-color:#1D277F"/>
				<stop  offset="0.4506" style="stop-color:#1D277F;stop-opacity:0"/>
				<stop  offset="0.7" style="stop-color:#1D277F;stop-opacity:0"/>
				<stop  offset="0.97" style="stop-color:#1D277F"/>
			</linearGradient>
			<polygon opacity="0.8" fill="url(#SVGID_5_)" enable-background="new    " points="109.974,267.743 287.38,267.743 
				204.073,208.357 193.685,208.357 			"/>
			<g>
				<g>
					<g>
						<path fill="#427ACC" d="M197.226,63.827c-2.342,1.441-3.049,4.519-1.57,6.838l0.535,0.84c1.479,2.319,4.568,2.983,6.869,1.476
							l88.66-58.119c2.299-1.508,3.25-4.202,2.112-5.987s-3.983-2.066-6.326-0.625L197.226,63.827z"/>
						<path fill="none" stroke="#1B4F8C" stroke-width="3" stroke-miterlimit="10" d="M197.226,63.827
							c-2.342,1.441-3.049,4.519-1.57,6.838l0.535,0.84c1.479,2.319,4.568,2.983,6.869,1.476l88.66-58.119
							c2.299-1.508,3.25-4.202,2.112-5.987s-3.983-2.066-6.326-0.625L197.226,63.827z"/>
					</g>
					<g>
						
							<line fill="none" stroke="#1B4F8C" stroke-width="2" stroke-miterlimit="10" x1="245.923" y1="45.546" x2="240.015" y2="36.269"/>
						
							<line fill="none" stroke="#1B4F8C" stroke-width="2" stroke-miterlimit="10" x1="282.903" y1="22.194" x2="276.995" y2="12.919"/>
						
							<line fill="none" stroke="#1B4F8C" stroke-width="2" stroke-miterlimit="10" x1="266.96" y1="32.374" x2="261.05" y2="23.097"/>
						
							<line fill="none" stroke="#1B4F8C" stroke-width="2" stroke-miterlimit="10" x1="225.331" y1="58.907" x2="219.42" y2="49.63"/>
					</g>
					<polygon fill="#71A5E2" points="265.739,25.142 266.967,27.065 278.063,20.011 276.838,18.085 					"/>
					
						<rect x="252.161" y="24.494" transform="matrix(0.5375 0.8433 -0.8433 0.5375 146.1339 -197.7051)" fill="#71A5E2" width="2.282" height="19.749"/>
					<polygon fill="#71A5E2" points="224.112,51.552 225.341,53.478 241.295,43.353 240.067,41.429 					"/>
					<polygon fill="#71A5E2" points="207.043,62.538 208.271,64.464 220.867,56.239 219.64,54.315 					"/>
					<path fill="#71A5E2" d="M281.371,15.22l7.297-4.813c0.532-0.342,1.237-0.187,1.577,0.348l0,0
						c0.338,0.529,0.184,1.236-0.35,1.574l-7.299,4.816L281.371,15.22z"/>
				</g>
				<g>
					<g>
						<path fill="#427ACC" d="M202.133,63.827c2.343,1.441,3.05,4.519,1.571,6.838l-0.535,0.84
							c-1.479,2.319-4.568,2.983-6.869,1.476l-88.66-58.119c-2.3-1.508-3.251-4.202-2.113-5.987
							c1.138-1.785,3.984-2.066,6.326-0.625L202.133,63.827z"/>
						<path fill="none" stroke="#1B4F8C" stroke-width="3" stroke-miterlimit="10" d="M202.133,63.827
							c2.343,1.441,3.05,4.519,1.571,6.838l-0.535,0.84c-1.479,2.319-4.568,2.983-6.869,1.476l-88.66-58.119
							c-2.3-1.508-3.251-4.202-2.113-5.987c1.138-1.785,3.984-2.066,6.326-0.625L202.133,63.827z"/>
					</g>
					<g>
						
							<line fill="none" stroke="#1B4F8C" stroke-width="2" stroke-miterlimit="10" x1="153.437" y1="45.546" x2="159.345" y2="36.269"/>
						
							<line fill="none" stroke="#1B4F8C" stroke-width="2" stroke-miterlimit="10" x1="116.454" y1="22.194" x2="122.363" y2="12.919"/>
						
							<line fill="none" stroke="#1B4F8C" stroke-width="2" stroke-miterlimit="10" x1="132.398" y1="32.374" x2="138.309" y2="23.097"/>
						
							<line fill="none" stroke="#1B4F8C" stroke-width="2" stroke-miterlimit="10" x1="174.026" y1="58.907" x2="179.938" y2="49.63"/>
					</g>
					<polygon fill="#71A5E2" points="133.619,25.142 132.392,27.065 121.294,20.011 122.521,18.085 					"/>
					
						<rect x="144.914" y="24.493" transform="matrix(-0.5375 0.8433 -0.8433 -0.5375 253.541 -70.3232)" fill="#71A5E2" width="2.282" height="19.75"/>
					<polygon fill="#71A5E2" points="175.245,51.552 174.019,53.478 158.063,43.353 159.291,41.429 					"/>
					<polygon fill="#71A5E2" points="192.315,62.538 191.088,64.464 178.491,56.239 179.72,54.315 					"/>
					<path fill="#71A5E2" d="M117.987,15.22l-7.297-4.813c-0.532-0.342-1.238-0.187-1.577,0.348l0,0
						c-0.338,0.529-0.183,1.236,0.349,1.574l7.3,4.816L117.987,15.22z"/>
				</g>
				<g>
					<g>
						<path fill="#427ACC" d="M197.235,210.624c-2.342-1.44-3.049-4.519-1.571-6.838l0.536-0.843
							c1.479-2.318,4.568-2.982,6.867-1.476l88.66,58.119c2.301,1.508,3.252,4.202,2.113,5.987
							c-1.138,1.785-3.984,2.066-6.326,0.625L197.235,210.624z"/>
						<path fill="none" stroke="#1B4F8C" stroke-width="3" stroke-miterlimit="10" d="M197.235,210.624
							c-2.342-1.44-3.049-4.519-1.571-6.838l0.536-0.843c1.479-2.318,4.568-2.982,6.867-1.476l88.66,58.119
							c2.301,1.508,3.252,4.202,2.113,5.987c-1.138,1.785-3.984,2.066-6.326,0.625L197.235,210.624z"/>
					</g>
					<g>
						
							<line fill="none" stroke="#1B4F8C" stroke-width="2" stroke-miterlimit="10" x1="245.933" y1="228.905" x2="240.022" y2="238.182"/>
						
							<line fill="none" stroke="#1B4F8C" stroke-width="2" stroke-miterlimit="10" x1="282.914" y1="252.257" x2="277.005" y2="261.532"/>
						
							<line fill="none" stroke="#1B4F8C" stroke-width="2" stroke-miterlimit="10" x1="266.97" y1="242.077" x2="261.06" y2="251.354"/>
						
							<line fill="none" stroke="#1B4F8C" stroke-width="2" stroke-miterlimit="10" x1="225.341" y1="215.544" x2="219.431" y2="224.818"/>
					</g>
					<polygon fill="#71A5E2" points="265.749,249.309 266.978,247.384 278.074,254.439 276.849,256.364 					"/>
					
						<rect x="252.171" y="230.206" transform="matrix(0.5374 -0.8433 0.8433 0.5374 -85.2856 324.6868)" fill="#71A5E2" width="2.282" height="19.751"/>
					<polygon fill="#71A5E2" points="224.123,222.896 225.351,220.975 241.306,231.098 240.077,233.021 					"/>
					<polygon fill="#71A5E2" points="207.054,211.913 208.28,209.986 220.877,218.21 219.649,220.134 					"/>
					<path fill="#71A5E2" d="M281.381,259.229l7.298,4.814c0.531,0.342,1.237,0.186,1.576-0.346l0,0
						c0.338-0.531,0.184-1.238-0.35-1.576l-7.299-4.816L281.381,259.229z"/>
				</g>
				<g>
					<g>
						<path fill="#427ACC" d="M202.603,210.624c2.342-1.44,3.049-4.519,1.57-6.838l-0.535-0.843
							c-1.479-2.318-4.568-2.982-6.869-1.476l-88.66,58.119c-2.3,1.508-3.251,4.202-2.113,5.987
							c1.138,1.785,3.984,2.066,6.326,0.625L202.603,210.624z"/>
						<path fill="none" stroke="#1B4F8C" stroke-width="3" stroke-miterlimit="10" d="M202.603,210.624
							c2.342-1.44,3.049-4.519,1.57-6.838l-0.535-0.843c-1.479-2.318-4.568-2.982-6.869-1.476l-88.66,58.119
							c-2.3,1.508-3.251,4.202-2.113,5.987c1.138,1.785,3.984,2.066,6.326,0.625L202.603,210.624z"/>
					</g>
					<g>
						
							<line fill="none" stroke="#1B4F8C" stroke-width="2" stroke-miterlimit="10" x1="153.903" y1="228.905" x2="159.813" y2="238.182"/>
						
							<line fill="none" stroke="#1B4F8C" stroke-width="2" stroke-miterlimit="10" x1="116.923" y1="252.257" x2="122.832" y2="261.532"/>
						
							<line fill="none" stroke="#1B4F8C" stroke-width="2" stroke-miterlimit="10" x1="132.867" y1="242.077" x2="138.777" y2="251.354"/>
						
							<line fill="none" stroke="#1B4F8C" stroke-width="2" stroke-miterlimit="10" x1="174.496" y1="215.544" x2="180.407" y2="224.818"/>
					</g>
					<polygon fill="#71A5E2" points="134.088,249.309 132.86,247.384 121.763,254.439 122.989,256.364 					"/>
					
						<rect x="145.385" y="230.21" transform="matrix(-0.5376 -0.8432 0.8432 -0.5376 22.8568 492.7044)" fill="#71A5E2" width="2.282" height="19.75"/>
					<polygon fill="#71A5E2" points="175.714,222.896 174.485,220.975 158.532,231.098 159.76,233.021 					"/>
					<polygon fill="#71A5E2" points="192.784,211.913 191.558,209.986 178.96,218.21 180.188,220.134 					"/>
					<path fill="#71A5E2" d="M118.456,259.229l-7.297,4.814c-0.532,0.342-1.238,0.186-1.577-0.346l0,0
						c-0.338-0.531-0.183-1.238,0.349-1.576l7.3-4.816L118.456,259.229z"/>
				</g>
				<g>
					<g>
						<path fill="#427ACC" d="M205.56,206.941c0,2.75-2.25,5-5,5h-0.998c-2.75,0-5-2.25-5-5V68.284c0-2.75,2.25-5,5-5h0.998
							c2.75,0,5,2.25,5,5V206.941z"/>
						<path fill="none" stroke="#1B4F8C" stroke-width="3" stroke-miterlimit="10" d="M205.56,206.941c0,2.75-2.25,5-5,5h-0.998
							c-2.75,0-5-2.25-5-5V68.284c0-2.75,2.25-5,5-5h0.998c2.75,0,5,2.25,5,5V206.941z"/>
					</g>
					<g>
						
							<line fill="none" stroke="#1B4F8C" stroke-width="2" stroke-miterlimit="10" x1="194.562" y1="87.601" x2="205.56" y2="87.601"/>
						
							<line fill="none" stroke="#1B4F8C" stroke-width="2" stroke-miterlimit="10" x1="194.562" y1="161.743" x2="205.56" y2="161.743"/>
						
							<line fill="none" stroke="#1B4F8C" stroke-width="2" stroke-miterlimit="10" x1="194.562" y1="112.313" x2="205.56" y2="112.313"/>
						
							<line fill="none" stroke="#1B4F8C" stroke-width="2" stroke-miterlimit="10" x1="194.562" y1="137.028" x2="205.56" y2="137.028"/>
						
							<line fill="none" stroke="#1B4F8C" stroke-width="2" stroke-miterlimit="10" x1="194.562" y1="186.456" x2="205.56" y2="186.456"/>
					</g>
					<rect x="198.177" y="89.886" fill="#71A5E2" width="2.282" height="19.75"/>
					<rect x="198.177" y="114.884" fill="#71A5E2" width="2.282" height="19.75"/>
					<rect x="198.177" y="139.384" fill="#71A5E2" width="2.282" height="19.75"/>
					<rect x="198.177" y="164.331" fill="#71A5E2" width="2.282" height="19.75"/>
					<path fill="#71A5E2" d="M200.459,189.275v17.763c0,0.631-0.511,1.142-1.142,1.142l0,0c-0.631,0-1.142-0.511-1.142-1.142
						v-17.763H200.459z"/>
					<path fill="#71A5E2" d="M200.459,84.792V68.03c0-0.631-0.511-1.143-1.142-1.143l0,0c-0.631,0-1.142,0.512-1.142,1.143v16.762
						H200.459z"/>
				</g>
			</g>
		</g>
		<g>
			<polygon opacity="0.4" fill="#1D277F" enable-background="new    " points="177.452,233.38 169.963,267.88 227.629,267.88 
				222.386,233.38 			"/>
			
				<rect x="178.168" y="234.079" fill="#DDCFAF" stroke="#A89A7B" stroke-width="2" stroke-miterlimit="10" width="43.5" height="22.76"/>
			<rect x="181.213" y="236.952" fill="#EFE9DA" stroke="#A89A7B" stroke-miterlimit="10" width="37.41" height="17.014"/>
			<polygon opacity="0.4" fill="#343C66" enable-background="new    " points="181.546,245.458 182.658,253.966 183.658,257.798 
				215.56,257.829 216.56,253.966 217.379,245.53 201.546,245.53 202.449,253.966 203.449,257.78 195.769,257.78 196.769,253.966 
				197.713,245.458 			"/>
			<g>
				<circle fill="#A56B3F" stroke="#6D4123" stroke-width="2" stroke-miterlimit="10" cx="189.713" cy="245.53" r="7.055"/>
				<circle stroke="#6D4123" stroke-miterlimit="10" cx="189.713" cy="245.53" r="3.386"/>
				<path fill="none" stroke="#D8A988" stroke-linecap="round" stroke-miterlimit="10" d="M184.431,245.53
					c0-2.919,2.364-5.283,5.282-5.283"/>
				<g>
					<path fill="#D8A988" d="M192.631,243.04c0,0,0.138,0.119,0.364,0.337c0.107,0.114,0.26,0.23,0.393,0.409
						c0.127,0.187,0.274,0.401,0.426,0.651c0.127,0.254,0.23,0.549,0.336,0.865c0.029,0.33,0.154,0.688,0.086,1.061
						c-0.012,0.377-0.103,0.756-0.243,1.129c-0.171,0.353-0.349,0.723-0.618,1.018c-0.245,0.319-0.57,0.557-0.879,0.79
						c-0.329,0.211-0.676,0.376-1.03,0.479c-0.342,0.135-0.71,0.15-1.036,0.181c-0.338-0.01-0.652-0.011-0.931-0.106
						c-0.14-0.037-0.271-0.071-0.396-0.104c-0.115-0.062-0.227-0.117-0.33-0.17c-0.207-0.099-0.371-0.204-0.488-0.322
						c-0.244-0.215-0.367-0.339-0.367-0.339s0.169,0.061,0.464,0.165c0.136,0.065,0.317,0.103,0.522,0.136
						c0.099,0.02,0.205,0.039,0.316,0.062c0.112,0.001,0.23,0.004,0.354,0.006c0.243,0.027,0.506-0.041,0.774-0.067
						c0.264-0.073,0.547-0.133,0.812-0.265c0.277-0.104,0.523-0.284,0.783-0.447c0.232-0.193,0.484-0.384,0.662-0.637
						c0.22-0.219,0.354-0.497,0.498-0.758c0.047-0.143,0.104-0.279,0.162-0.416c0.053-0.139,0.061-0.285,0.094-0.426
						c0.084-0.282,0.025-0.568,0.055-0.845c-0.055-0.267-0.078-0.536-0.133-0.776c-0.083-0.227-0.148-0.446-0.211-0.647
						c-0.075-0.198-0.176-0.366-0.237-0.509C192.7,243.208,192.631,243.04,192.631,243.04z"/>
				</g>
			</g>
			<g>
				<circle fill="#A56B3F" stroke="#6D4123" stroke-width="2" stroke-miterlimit="10" cx="209.504" cy="245.53" r="7.055"/>
				<circle stroke="#6D4123" stroke-miterlimit="10" cx="209.504" cy="245.53" r="3.386"/>
				<path fill="none" stroke="#D8A988" stroke-linecap="round" stroke-miterlimit="10" d="M204.222,245.53
					c0-2.919,2.364-5.283,5.282-5.283"/>
				<g>
					<path fill="#D8A988" d="M212.422,243.04c0,0,0.138,0.119,0.364,0.337c0.107,0.114,0.26,0.23,0.393,0.409
						c0.127,0.187,0.274,0.401,0.426,0.651c0.127,0.254,0.23,0.549,0.336,0.865c0.029,0.33,0.154,0.688,0.086,1.061
						c-0.012,0.377-0.103,0.756-0.243,1.129c-0.171,0.353-0.349,0.723-0.618,1.018c-0.245,0.319-0.57,0.557-0.879,0.79
						c-0.329,0.211-0.676,0.376-1.03,0.479c-0.342,0.135-0.71,0.15-1.036,0.181c-0.338-0.01-0.652-0.011-0.931-0.106
						c-0.14-0.037-0.271-0.071-0.396-0.104c-0.115-0.062-0.227-0.117-0.33-0.17c-0.207-0.099-0.371-0.204-0.488-0.322
						c-0.244-0.215-0.367-0.339-0.367-0.339s0.169,0.061,0.464,0.165c0.136,0.065,0.317,0.103,0.522,0.136
						c0.099,0.02,0.205,0.039,0.316,0.062c0.112,0.001,0.23,0.004,0.354,0.006c0.243,0.027,0.506-0.041,0.774-0.067
						c0.264-0.073,0.547-0.133,0.812-0.265c0.277-0.104,0.523-0.284,0.783-0.447c0.232-0.193,0.484-0.384,0.662-0.637
						c0.22-0.219,0.354-0.497,0.498-0.758c0.047-0.143,0.104-0.279,0.162-0.416c0.053-0.139,0.061-0.285,0.094-0.426
						c0.084-0.282,0.024-0.568,0.055-0.845c-0.055-0.267-0.078-0.536-0.133-0.776c-0.083-0.227-0.148-0.446-0.211-0.647
						c-0.075-0.198-0.176-0.366-0.237-0.509C212.491,243.208,212.422,243.04,212.422,243.04z"/>
				</g>
			</g>
		</g>
		<g>
			<polygon opacity="0.4" fill="#1D277F" enable-background="new    " points="177.304,40.601 169.813,7.503 227.479,7.503 
				222.237,40.601 			"/>
			
				<rect x="178.021" y="17.144" fill="#DDCFAF" stroke="#A89A7B" stroke-width="2" stroke-miterlimit="10" width="43.5" height="22.758"/>
			<rect x="181.063" y="20.017" fill="#EFE9DA" stroke="#A89A7B" stroke-miterlimit="10" width="37.41" height="17.014"/>
			<polygon opacity="0.4" fill="#343C66" enable-background="new    " points="181.397,28.522 182.51,20.017 183.51,16.185 
				215.411,16.151 216.411,20.017 217.229,28.45 201.397,28.45 202.301,20.017 203.301,16.2 195.62,16.2 196.62,20.017 
				197.563,28.522 			"/>
			<g>
				<circle fill="#A56B3F" stroke="#6D4123" stroke-width="2" stroke-miterlimit="10" cx="189.565" cy="28.45" r="7.055"/>
				<circle stroke="#6D4123" stroke-miterlimit="10" cx="189.565" cy="28.45" r="3.386"/>
				<path fill="none" stroke="#D8A988" stroke-linecap="round" stroke-miterlimit="10" d="M184.282,28.45
					c0-2.918,2.363-5.283,5.281-5.283"/>
				<g>
					<path fill="#D8A988" d="M192.481,25.96c0,0,0.139,0.119,0.365,0.337c0.107,0.114,0.26,0.231,0.391,0.409
						c0.129,0.186,0.275,0.401,0.427,0.651c0.128,0.254,0.231,0.549,0.337,0.866c0.027,0.33,0.154,0.687,0.085,1.06
						c-0.011,0.377-0.103,0.756-0.243,1.129c-0.17,0.353-0.349,0.723-0.617,1.018c-0.246,0.319-0.57,0.557-0.879,0.79
						c-0.33,0.211-0.676,0.376-1.031,0.479c-0.342,0.135-0.709,0.151-1.037,0.181c-0.336-0.01-0.65-0.011-0.93-0.106
						c-0.139-0.037-0.271-0.072-0.396-0.105c-0.115-0.061-0.226-0.117-0.329-0.17c-0.208-0.098-0.372-0.204-0.488-0.322
						c-0.244-0.215-0.367-0.339-0.367-0.339s0.168,0.06,0.463,0.165c0.137,0.066,0.317,0.102,0.522,0.136
						c0.099,0.019,0.205,0.039,0.315,0.062c0.113,0.001,0.232,0.004,0.355,0.006c0.243,0.027,0.506-0.041,0.775-0.067
						c0.264-0.073,0.547-0.133,0.812-0.265c0.277-0.104,0.522-0.284,0.782-0.447c0.233-0.194,0.485-0.384,0.662-0.637
						c0.22-0.218,0.354-0.497,0.498-0.758c0.048-0.142,0.104-0.279,0.163-0.416c0.052-0.138,0.061-0.285,0.093-0.426
						c0.085-0.282,0.024-0.568,0.056-0.844c-0.055-0.267-0.078-0.536-0.134-0.776c-0.083-0.227-0.147-0.447-0.21-0.648
						c-0.076-0.198-0.176-0.366-0.238-0.509C192.552,26.128,192.481,25.96,192.481,25.96z"/>
				</g>
			</g>
			<g>
				<circle fill="#A56B3F" stroke="#6D4123" stroke-width="2" stroke-miterlimit="10" cx="209.356" cy="28.45" r="7.055"/>
				<circle stroke="#6D4123" stroke-miterlimit="10" cx="209.356" cy="28.45" r="3.386"/>
				<path fill="none" stroke="#D8A988" stroke-linecap="round" stroke-miterlimit="10" d="M204.073,28.45
					c0-2.918,2.363-5.283,5.281-5.283"/>
				<g>
					<path fill="#D8A988" d="M212.272,25.96c0,0,0.139,0.119,0.365,0.337c0.107,0.114,0.26,0.231,0.391,0.409
						c0.129,0.186,0.275,0.401,0.427,0.651c0.128,0.254,0.231,0.549,0.337,0.866c0.027,0.33,0.154,0.687,0.085,1.06
						c-0.011,0.377-0.103,0.756-0.243,1.129c-0.17,0.353-0.349,0.723-0.617,1.018c-0.246,0.319-0.57,0.557-0.879,0.79
						c-0.33,0.211-0.676,0.376-1.031,0.479c-0.342,0.135-0.709,0.151-1.037,0.181c-0.336-0.01-0.65-0.011-0.93-0.106
						c-0.139-0.037-0.271-0.072-0.396-0.105c-0.115-0.061-0.226-0.117-0.329-0.17c-0.208-0.098-0.372-0.204-0.488-0.322
						c-0.244-0.215-0.367-0.339-0.367-0.339s0.168,0.06,0.463,0.165c0.137,0.066,0.317,0.102,0.522,0.136
						c0.099,0.019,0.205,0.039,0.315,0.062c0.113,0.001,0.231,0.004,0.355,0.006c0.243,0.027,0.506-0.041,0.775-0.067
						c0.264-0.073,0.547-0.133,0.812-0.265c0.277-0.104,0.522-0.284,0.782-0.447c0.233-0.194,0.485-0.384,0.662-0.637
						c0.22-0.218,0.354-0.497,0.498-0.758c0.048-0.142,0.104-0.279,0.163-0.416c0.052-0.138,0.061-0.285,0.093-0.426
						c0.085-0.282,0.024-0.568,0.056-0.844c-0.055-0.267-0.078-0.536-0.134-0.776c-0.083-0.227-0.147-0.447-0.21-0.648
						c-0.076-0.198-0.176-0.366-0.238-0.509C212.343,26.128,212.272,25.96,212.272,25.96z"/>
				</g>
			</g>
		</g>
	</g>
	<g>
		<circle opacity="0.2" fill="#183049" enable-background="new    " cx="42.998" cy="223.426" r="36.797"/>
		<g>
			<circle fill="#EFE9DA" stroke="#A89A7B" stroke-width="3" stroke-miterlimit="10" cx="43.089" cy="223.478" r="32.243"/>
			
				<linearGradient id="SVGID_6_" gradientUnits="userSpaceOnUse" x1="29.4448" y1="78.085" x2="73.4551" y2="78.085" gradientTransform="matrix(1 0 0 -1 -8.3599 301.5625)">
				<stop  offset="0" style="stop-color:#79BAE2"/>
				<stop  offset="1" style="stop-color:#428DE2"/>
			</linearGradient>
			<circle fill="url(#SVGID_6_)" stroke="#A89A7B" stroke-width="3" stroke-miterlimit="10" cx="43.09" cy="223.478" r="22.005"/>
			<g opacity="0.6">
				<circle fill="none" stroke="#A7D4EA" stroke-width="0.5" stroke-miterlimit="10" cx="44.233" cy="224.341" r="10.67"/>
				
					<circle opacity="0.6" fill="none" stroke="#A7D4EA" stroke-width="0.5" stroke-miterlimit="10" enable-background="new    " cx="44.231" cy="225.271" r="13.658"/>
			</g>
			<circle fill="#EFE9DA" stroke="#A89A7B" stroke-miterlimit="10" cx="43.593" cy="223.272" r="8.533"/>
			<path opacity="0.6" fill="#A89A7B" enable-background="new    " d="M51.486,223.271c0-1.75-0.581-3.365-1.549-4.676
				c-6.438,12.645-13.598,7.124-13.598,7.124l-0.144,0.282c1.115,3.009,4.004,5.164,7.396,5.164
				C47.945,231.167,51.486,227.625,51.486,223.271z"/>
			<g>
				<circle fill="#EFE9DA" stroke="#A89A7B" stroke-miterlimit="10" cx="43.46" cy="223.105" r="4.515"/>
				<circle stroke="#6D4123" stroke-width="0.5" stroke-miterlimit="10" cx="43.459" cy="223.104" r="2.167"/>
				<path fill="none" stroke="#FFFFFF" stroke-width="0.5" stroke-linecap="round" stroke-miterlimit="10" d="M40.08,223.105
					c0-1.867,1.513-3.381,3.38-3.381"/>
				<g>
					<path fill="#D8A988" d="M45.327,221.512c0,0,0.08,0.082,0.221,0.225c0.144,0.139,0.323,0.359,0.496,0.687
						c0.074,0.162,0.131,0.351,0.199,0.548c0.016,0.206,0.096,0.43,0.049,0.662c-0.008,0.235-0.068,0.471-0.156,0.702
						c-0.106,0.22-0.218,0.45-0.387,0.634c-0.322,0.379-0.744,0.672-1.189,0.799c-0.213,0.088-0.443,0.099-0.648,0.117
						c-0.211-0.008-0.407-0.001-0.584-0.054c-0.18-0.026-0.333-0.088-0.46-0.162c-0.132-0.062-0.239-0.121-0.315-0.19
						c-0.16-0.129-0.242-0.205-0.242-0.205s0.105,0.043,0.289,0.119c0.085,0.047,0.199,0.078,0.332,0.102
						c0.128,0.037,0.273,0.055,0.435,0.059c0.157,0.025,0.33-0.012,0.507-0.029c0.174-0.047,0.36-0.084,0.535-0.168
						c0.185-0.065,0.348-0.181,0.52-0.287c0.154-0.129,0.32-0.252,0.438-0.42c0.145-0.145,0.233-0.328,0.327-0.502
						c0.07-0.187,0.146-0.366,0.163-0.56c0.052-0.187,0.013-0.375,0.029-0.556c-0.034-0.176-0.059-0.35-0.101-0.504
						c-0.109-0.293-0.199-0.566-0.314-0.733C45.379,221.613,45.327,221.512,45.327,221.512z"/>
				</g>
			</g>
		</g>
	</g>
</g>
</svg>
