<!DOCTYPE svg PUBLIC '-//W3C//DTD SVG 1.1//EN' 'http://www.w3.org/Graphics/SVG/1.1/DTD/svg11.dtd'>
<svg xmlns="http://www.w3.org/2000/svg" xml:space="preserve" version="1.1" xmlns:xlink="http://www.w3.org/1999/xlink" viewBox="0 0 303.213 277.508" enable-background="new 0 0 303.213 277.508">
	<rect y="123.48" width="69.759" fill="#DDCF8A" height="27.492"/>
	<polyline fill="none" stroke="#72612E" stroke-width="3" stroke-miterlimit="10" points="0.001 122.82 69.76 122.82 69.76 150.31 0.001 150.31"/>
	<circle opacity=".2" cx="135.25" cy="137.33" r="70.308" enable-background="new " fill="#183049"/>
	<g stroke-miterlimit="10">
		<path stroke="#3A2717" stroke-width="2" d="m93.555 55.725c0 6.619-5.365 11.984-11.983 11.984h-4.973c-6.618 0-11.983-5.365-11.983-11.984v-18.36c0-6.618 5.365-11.984 11.983-11.984h4.973c6.618 0 11.983 5.366 11.983 11.984v18.36z" fill="#593E2B"/><g stroke="#A5A5A5" fill="#fff">
			<path d="m76.604 28.041c0 1.457-2.64 3.927-2.64 3.927s-2.639-2.47-2.639-3.927c0-1.458 1.182-2.64 2.639-2.64 1.459 0 2.64 1.182 2.64 2.64z"/>
			<path d="m79.448 31.405c-1.031 1.03-4.643 0.911-4.643 0.911s-0.121-3.613 0.91-4.645c1.03-1.029 2.701-1.029 3.732 0 1.032 1.032 1.032 2.704 0.001 3.734z"/>
			<path d="m79.08 35.795c-1.457 0-3.927-2.64-3.927-2.64s2.47-2.639 3.927-2.639c1.458 0 2.64 1.182 2.64 2.639 0 1.458-1.182 2.64-2.64 2.64z"/>
			<path d="m75.716 38.639c-1.031-1.031-0.91-4.643-0.91-4.643s3.611-0.121 4.643 0.91c1.032 1.031 1.031 2.701 0 3.732s-2.703 1.032-3.733 0.001z"/>
			<path d="m71.326 38.271c0-1.457 2.639-3.927 2.639-3.927s2.64 2.47 2.64 3.927c0 1.458-1.182 2.64-2.64 2.64-1.457-0.001-2.639-1.182-2.639-2.64z"/>
			<path d="m68.481 34.906c1.031-1.03 4.645-0.91 4.645-0.91s0.12 3.611-0.911 4.643c-1.03 1.031-2.702 1.031-3.733 0-1.031-1.032-1.031-2.701-0.001-3.733z"/>
			<path d="m68.85 30.517c1.458 0 3.928 2.639 3.928 2.639s-2.47 2.64-3.928 2.64c-1.457 0-2.639-1.182-2.639-2.64s1.182-2.639 2.639-2.639z"/>
			<path d="m72.215 27.672c1.031 1.031 0.911 4.645 0.911 4.645s-3.613 0.119-4.645-0.911c-1.03-1.03-1.03-2.702 0-3.733 1.032-1.03 2.704-1.03 3.734-0.001z"/>
			</g><circle cy="33.029" cx="73.965" r="2.446" stroke="#F6921E" fill="#ff0"/><g stroke="#A5A5A5" fill="#fff">
			<path d="m91.839 42.805c0 1.457-2.64 3.927-2.64 3.927s-2.639-2.47-2.639-3.927c0-1.458 1.182-2.64 2.639-2.64 1.458 0 2.64 1.182 2.64 2.64z"/>
			<path d="m94.683 46.169c-1.031 1.03-4.643 0.911-4.643 0.911s-0.121-3.613 0.91-4.645c1.03-1.029 2.701-1.029 3.732 0 1.032 1.032 1.032 2.704 0.001 3.734z"/>
			<path d="m94.314 50.559c-1.457 0-3.927-2.64-3.927-2.64s2.47-2.639 3.927-2.639c1.458 0 2.64 1.182 2.64 2.639 0 1.458-1.182 2.64-2.64 2.64z"/>
			<path d="m90.95 53.402c-1.031-1.031-0.91-4.643-0.91-4.643s3.611-0.121 4.643 0.91c1.032 1.031 1.031 2.701 0 3.732s-2.703 1.033-3.733 0.001z"/>
			<path d="m86.561 53.034c0-1.457 2.639-3.927 2.639-3.927s2.64 2.47 2.64 3.927c0 1.458-1.182 2.64-2.64 2.64s-2.639-1.182-2.639-2.64z"/>
			<path d="m83.716 49.67c1.031-1.03 4.645-0.91 4.645-0.91s0.12 3.611-0.911 4.643c-1.03 1.031-2.702 1.031-3.733 0-1.031-1.032-1.031-2.702-0.001-3.733z"/>
			<path d="m84.084 45.28c1.458 0 3.928 2.639 3.928 2.639s-2.47 2.64-3.928 2.64c-1.457 0-2.639-1.182-2.639-2.64 0-1.457 1.182-2.639 2.639-2.639z"/>
			<path d="m87.449 42.436c1.031 1.031 0.911 4.645 0.911 4.645s-3.613 0.119-4.645-0.911c-1.03-1.03-1.03-2.702 0-3.733 1.032-1.031 2.704-1.031 3.734-0.001z"/>
			</g><circle cy="47.793" cx="89.199" r="2.446" stroke="#F6921E" fill="#ff0"/><g stroke="#A5A5A5" fill="#fff">
			<path d="m73.029 56.877c0 1.457-2.64 3.927-2.64 3.927s-2.639-2.47-2.639-3.927c0-1.458 1.182-2.64 2.639-2.64 1.459 0 2.64 1.182 2.64 2.64z"/>
			<path d="m75.873 60.241c-1.031 1.03-4.643 0.911-4.643 0.911s-0.121-3.613 0.91-4.645c1.03-1.029 2.701-1.029 3.732 0 1.032 1.032 1.032 2.704 0.001 3.734z"/>
			<path d="m75.505 64.631c-1.457 0-3.927-2.64-3.927-2.64s2.47-2.639 3.927-2.639c1.458 0 2.64 1.182 2.64 2.639 0 1.458-1.182 2.64-2.64 2.64z"/>
			<path d="m72.141 67.475c-1.031-1.031-0.91-4.643-0.91-4.643s3.611-0.121 4.643 0.91c1.032 1.031 1.031 2.701 0 3.732s-2.703 1.032-3.733 0.001z"/>
			<path d="m67.751 67.106c0-1.457 2.639-3.927 2.639-3.927s2.64 2.47 2.64 3.927c0 1.458-1.182 2.64-2.64 2.64-1.457 0-2.639-1.182-2.639-2.64z"/>
			<path d="m64.906 63.742c1.031-1.03 4.645-0.91 4.645-0.91s0.12 3.611-0.911 4.643c-1.03 1.031-2.702 1.031-3.733 0-1.031-1.032-1.031-2.702-0.001-3.733z"/>
			<path d="m65.274 59.353c1.458 0 3.928 2.639 3.928 2.639s-2.47 2.64-3.928 2.64c-1.457 0-2.639-1.182-2.639-2.64 0.001-1.458 1.182-2.639 2.639-2.639z"/>
			<path d="m68.64 56.508c1.031 1.031 0.911 4.645 0.911 4.645s-3.613 0.119-4.645-0.911c-1.03-1.03-1.03-2.702 0-3.733 1.032-1.03 2.703-1.03 3.734-0.001z"/>
			</g><circle cy="61.865" cx="70.39" r="2.446" stroke="#F6921E" fill="#ff0"/>
	</g>
		<circle stroke-width="3" stroke="#383838" cy="137.23" cx="135.35" stroke-miterlimit="10" r="67.095" fill="#969696"/>
				<defs>
					<path id="f" d="m135.35 71.63c-36.169 0-65.595 29.426-65.595 65.596 0 36.168 29.426 65.594 65.595 65.594 36.168 0 65.595-29.426 65.595-65.594 0.01-36.17-29.42-65.6-65.59-65.6z"/>
				</defs>
				<clipPath id="e">
					<use overflow="visible" xlink:href="#f"/>
				</clipPath>
				<path opacity=".6" clip-path="url(#e)" enable-background="new " d="m123.95 77.863c0.04-1.217 0.513-1.757 1.647-2.115 1.646-0.521 3.279-1.082 4.909-1.653v-0.745c-1.656 0.535-3.309 1.085-4.921 1.731-1.307 0.525-2.128 0.402-2.771-0.915-0.324-0.665-0.887-1.214-1.34-1.816-0.145 0.115-0.291 0.232-0.437 0.349 0.465 0.697 1.041 1.346 1.366 2.103 0.378 0.877 0.768 1.856 0.744 2.781-0.054 2.104-0.379 4.198-0.551 6.302-0.068 0.857-0.409 1.273-1.313 1.23-1.155-0.054-2.325-0.146-3.47-0.029-2.94 0.305-4.936-0.635-5.955-3.624-0.602-1.761-1.701-3.349-2.588-5.036 2.346-1.293 4.492-2.475 6.64-3.658-0.056-0.119-0.108-0.234-0.165-0.354-0.455 0.14-0.942 0.219-1.361 0.433-1.25 0.642-2.541 1.237-3.688 2.036-1.426 0.992-2.772 1.123-4.037-0.061-0.58-0.545-0.889-1.381-1.27-2.001 0.078 1.297-0.941 1.853-2.246 2.001-0.619 0.068-1.301 0.016-1.896-0.172-0.922-0.289-1.834-0.606-2.746-0.926l-0.463 0.564c1.218 0.438 2.443 0.881 3.696 1.332-0.729 1.951-1.521 3.743-2.064 5.608-0.567 1.951-1.717 3.314-3.372 4.414-0.743 0.493-1.27 0.539-1.996 0.052-1.127-0.754-2.379-1.33-3.451-2.149-0.077-0.06-0.149-0.141-0.223-0.216l-0.625 0.762c0.063 0.046 0.127 0.096 0.197 0.117 4.986 1.511 5.459 5.456 5.227 9.752-0.021 0.363-0.301 0.887-0.609 1.037-2.472 1.214-4.978 2.355-7.637 3.595-0.902-2.634-1.785-5.212-2.672-7.798l-0.639 0.779c0.778 2.252 1.541 4.511 2.291 6.773 0.411 1.236-0.012 1.821-1.283 1.844-1.457 0.024-2.914 0.006-4.371 0.006-1.185-0.062-2.369-0.146-3.552-0.188l-0.764 0.932c2.854 0.013 5.706 0.083 8.554 0.241 0.426 0.022 1.064 0.549 1.192 0.968 0.862 2.821 1.64 5.672 2.37 8.53 0.092 0.37-0.115 0.989-0.402 1.251-1.627 1.49-3.306 2.929-5.008 4.333-0.28 0.229-0.844 0.389-1.154 0.269-3.771-1.473-7.521-3.004-11.457-4.591 1.224-2.81 2.378-5.494 3.557-8.136l-8.001 9.762-0.084 6.235-3.5 1.5v13.834l7.302 14.024c1.064-0.381 3.649 1.701 3.518 2.865-0.246 2.185-0.559 4.365-0.941 6.531-0.07 0.392-0.533 0.83-0.927 1.028-1.026 0.517-2.113 0.907-3.176 1.354l-1.342 1.582 0.532 0.754c0-0.808 0.35-1.231 1.145-1.57 3.959-1.695 3.949-1.723 7.69 0.521 1.332 0.801 2.714 1.531 3.97 2.438 0.461 0.334 0.883 1.087 0.877 1.644-0.031 2.785-0.507 5.444-2.451 7.676-0.61 0.701-1.104 1.185-2.086 1.115-0.27-0.02-0.541-0.014-0.811-0.02l0.609 0.863c0.478 0.061 0.916 0.176 1.27 0.416 0.969 0.658 1.24 2.352 1.686 3.77l1.912 2.709c-0.867-2.32-1.707-4.572-2.521-6.832-0.094-0.264 0.057-0.693 0.226-0.96 0.72-1.142 1.492-2.251 2.32-3.481 4.392 1.873 8.614 3.675 13.115 5.591-3.962 2.704-7.7 5.254-11.577 7.897l0.497 0.703c0.004-0.004 0.009-0.008 0.014-0.012 3.684-2.538 7.367-5.077 11.107-7.525 0.516-0.337 1.398-0.38 2.025-0.219 1.203 0.311 2.326 0.941 3.525 1.29 0.976 0.284 1.221 0.845 1.183 1.769-0.054 1.304-0.005 2.612-0.017 3.922-0.013 1.414-0.846 2.435-2.249 2.444-4.806 0.039-9.608 0.017-14.411 0l0.779 1.104h13.322c-2.238 3.232-4.408 6.365-6.596 9.525l0.547 0.776c2.266-3.931 7.572-10.897 9.068-11.739 1.959 1.934 4.015 3.826 5.876 5.895 0.479 0.531 0.421 1.604 0.483 2.438 0.088 1.199 0.004 2.41 0.103 3.608 0.086 1.053-0.505 1.616-1.354 1.604-4.346-0.057-8.702-0.188-13.117-0.308l0.523 0.742c0.271-0.009 0.543-0.021 0.814-0.019 2.563 0.021 5.144 0.016 7.683 0.321 2.479 0.299 4.87-0.388 7.383-0.127 3.972 0.413 8.019 0.11 11.929 0.11 0.776-3.362 1.512-6.586 2.285-9.803 0.072-0.298 0.334-0.635 0.602-0.787 1.363-0.777 2.728-1.487 4.349-0.526 0.474 0.278 1.015 0.442 1.555 0.608v-0.937c-0.665-0.248-1.331-0.489-1.986-0.76-0.435-0.179-0.881-0.906-0.907-1.402-0.104-1.957-0.042-3.921-0.042-5.882h0.218c0-1.709-0.029-3.418 0.011-5.125 0.032-1.572 1.246-2.749 2.707-2.756v-1.559c-0.477 1.144-1.589 1.312-2.56 1.469-0.79 0.127-2.062-0.229-2.491-0.822-1.991-2.746-3.763-5.652-5.671-8.596 2.4-2.02 4.691-3.945 7.023-5.906 1.261 0.742 2.49 1.458 3.698 2.189v-0.865c-2.501-1.457-4.079-3.096-3.874-6.154 0.052-0.784-0.231-1.588-0.283-2.387-0.046-0.766-0.304-1.863 0.086-2.236 0.879-0.844 2.1-1.331 3.244-2 0.282 0.166 0.564 0.312 0.827 0.486v-3.483c-0.28 0.729-0.61 1.417-1.112 1.933-1.062 1.096-2.668 1.705-4.119 2.347-0.369 0.161-1.266-0.195-1.537-0.583-2.581-3.69-5.082-7.441-7.74-11.375 2.87-1.235 5.482-2.357 8.221-3.536 2.111 2.621 4.206 5.217 6.288 7.823v-1.391c-1.772-2.191-3.51-4.34-5.192-6.5-0.229-0.293-0.236-0.945-0.081-1.319 0.695-1.661 1.481-3.29 2.249-4.923 0.451-0.959 1.793-1.641 3.024-1.727v-0.985c-0.996 0.58-2.604 0.787-3.375 0.306-2.034-1.267-3.485-2.797-3.613-5.431-0.095-1.927-0.68-3.827-1.096-5.987 2.411-0.812 4.72-1.601 7.04-2.354 0.252-0.081 0.637-0.073 0.841 0.066 0.068 0.047 0.135 0.096 0.203 0.143v-1.97c-0.335-0.888-0.392-2.056-0.486-4.106-0.022-0.452 0.049-0.94-0.097-1.349-0.576-1.631-0.201-2.924 0.583-4.064v-1.241c-1.031 1.288-2.324 2.157-4.257 2.234-2.479 0.099-4.945 0.585-7.617 0.929 0.417-1.812 0.781-3.459 1.183-5.099 0.74-3.02 1.534-6.027 2.238-9.057 0.228-0.979 0.614-1.259 1.567-0.866 1.251 0.515 2.57 0.877 3.801 1.435 0.485 0.219 0.973 0.72 1.184 1.211 0.668 1.547 1.294 3.113 1.901 4.686v-2.248c-0.357-0.911-0.712-1.823-1.052-2.741-0.126-0.344 0.005-1.036 0.269-1.234 0.26-0.195 0.522-0.389 0.783-0.583v-0.955c-1.784 1.13-3.593 1.123-5.755 0.026-1.186-0.6-1.51-1.183-1.342-2.384 0.28-1.745 0.51-3.546 0.57-5.348zm-21.4-1.588c0.359-0.713 1.996-1.381 2.768-1.147 1.285 0.39 2.675 1.297 3.428 2.393 1.47 2.137 2.564 4.534 3.725 6.869 0.2 0.4 0.128 1.156-0.133 1.522-0.75 1.058-1.661 2.001-2.592 3.085-3.477-1.743-6.785-3.399-10.213-5.115 0.993-2.621 1.803-5.216 3.003-7.607zm-2.06 9.038c2.903 1.457 5.808 2.918 8.74 4.391-0.013 0.258-0.009 0.308-0.021 0.355-1.244 4.469-1.273 4.371-5.77 5.741-2.195 0.671-4.188 0.857-6.041-0.639-0.488-0.394-1.014-1.013-1.092-1.586-0.244-1.78-0.328-3.59-0.387-5.39-0.071-2.098 2.694-3.81 4.57-2.872zm13.69 77.467c-0.824 1.328-3.154 1.726-4.826 2.521-0.49 0.234-0.998 0.438-1.528 0.666-2.03-1.934-4.052-3.818-6.009-5.763-0.303-0.3-0.479-0.896-0.447-1.335 0.162-2.251 0.339-4.506 0.686-6.73 0.089-0.567 0.777-1.072 1.253-1.543 2.283-2.264 4.388-1.983 7.233-0.453 3.131 1.687 4.595 3.515 4.022 7.06-0.29 1.84 0.49 4.17-0.37 5.56zm-7.79-15.59c-0.868 1.516-3.027 2.386-4.763 3.233-0.41 0.2-1.798-0.669-2.102-1.337-1.411-3.087-2.599-6.277-3.908-9.536 2.542-1.268 4.951-2.487 7.386-3.658 0.234-0.114 0.623 0.04 0.921 0.134 0.179 0.058 0.319 0.236 0.47 0.369 1.334 1.199 2.664 2.401 3.997 3.603-0.63 2.44-0.81 5.12-2.01 7.21zm-19.581-10c2.253 0.695 4.525 1.334 6.735 2.146 0.646 0.235 1.337 0.877 1.613 1.505 1.159 2.615 2.169 5.295 3.228 7.955 0.034 0.084 0.005 0.193 0.005 0.629h-9.513c-3.164 0-4.846-1.701-4.723-4.865 0.074-1.957 0.191-3.918 0.392-5.866 0.175-1.71 0.674-1.99 2.263-1.5zm-0.815-1.15c0.697-1.751 1.259-3.307 1.95-4.801 0.201-0.435 0.726-0.817 1.19-1.017 3.366-1.438 6.766-2.797 10.13-4.242 1.051-0.452 1.516-0.286 1.775 0.886 0.585 2.632 1.289 5.237 1.986 8.014-2.581 1.286-5.127 2.562-7.686 3.814-0.205 0.101-0.511 0.116-0.73 0.05-2.822-0.87-5.633-1.76-8.62-2.7zm1.088 14.35c3.937 0 7.854-0.065 11.768 0.026 1.962 0.046 2.5 0.904 2.244 2.84-0.214 1.64-0.4 3.286-0.507 4.937-0.061 0.914-0.354 1.469-1.273 1.777-1.946 0.654-3.815 1.772-5.802 2.018-1.948 0.238-4.007-0.354-6.009-0.637-0.171-0.024-0.401-0.457-0.403-0.701-0.021-3.36-0.011-6.71-0.011-10.27zm17.418-15.06c-0.376-0.339-0.652-0.879-0.787-1.378-0.715-2.658-1.372-5.333-2.102-8.209 2.856-1.021 5.562-2.1 8.352-2.878 0.535-0.149 1.825 0.753 2.043 1.412 1.201 3.611 2.207 7.293 3.186 10.976 0.102 0.379-0.291 1.15-0.665 1.347-1.548 0.82-3.161 1.531-4.788 2.187-0.359 0.146-0.986 0.055-1.298-0.182-1.35-1.04-2.66-2.14-3.93-3.28zm5.67-14.55c-0.067 0.504-0.614 1.168-1.098 1.357-2.38 0.938-4.818 1.723-7.223 2.602-0.731 0.267-1.26 0.238-1.577-0.562-1.443-3.628-2.894-7.253-4.371-10.954 1.553-1.115 2.97-2.252 4.507-3.183 0.571-0.345 1.441-0.341 2.155-0.278 2.448 0.225 4.883 0.619 7.332 0.799 1.145 0.084 1.327 0.577 1.223 1.539-0.31 2.88-0.55 5.78-0.94 8.67zm0.76-10.95c-3.092-0.329-5.94-0.587-8.77-0.983-0.389-0.054-0.948-0.761-0.978-1.197-0.218-3.154-0.349-6.315-0.423-9.479-0.009-0.33 0.455-0.87 0.804-0.979 1.865-0.58 3.752-1.097 5.654-1.532 0.378-0.088 0.982 0.143 1.267 0.436 2.051 2.139 4.049 4.33 6.059 6.511 0.195 0.216 0.414 0.467 0.482 0.735 0.469 1.867-1.488 5.635-3.312 6.382-0.31 0.13-0.68 0.1-0.78 0.11zm-24.18-8.06c-0.4-1.293 0.11-2.051 1.161-2.561 2.39-1.156 4.798-2.28 7.216-3.377 1.452-0.66 4.599 1.093 4.716 2.675 0.198 2.7 0.28 5.407 0.424 8.355 0.482 1.573-0.568 2.481-1.842 3.587-2.163 1.885-4.27 2.221-6.977 1.327-1.521-0.501-2.34-1.046-2.685-2.624-0.548-2.5-1.263-4.96-2.016-7.39zm-2.651 14.63c1.396-1.223 2.808-2.429 4.211-3.644 0.115-0.099 0.221-0.206 0.344-0.294 0.903-0.644 6.275 0.663 6.693 1.687 1.436 3.519 2.82 7.061 4.293 10.768-3.93 1.63-7.669 3.181-11.602 4.812-0.819-1.635-1.617-3.229-2.415-4.824-0.765-1.523-1.54-3.041-2.288-4.572-0.864-1.79-0.689-2.68 0.764-3.95zm2.992 13.42c0.423 0.871-1.955 6.643-2.859 6.998-0.318 0.126-0.769 0.017-1.133-0.084-2.219-0.613-4.426-1.272-6.646-1.878-0.782-0.213-1.166-0.563-1.111-1.459 0.135-2.202 0.132-4.414 0.273-6.615 0.031-0.487 0.307-1.077 0.666-1.407 1.883-1.73 3.831-3.391 5.978-5.271 1.678 3.37 3.283 6.53 4.832 9.72zm-18.097-15.72c0.014-1.412 0.319-1.62 1.634-1.095 3.442 1.375 6.881 2.764 10.301 4.197 0.46 0.19 0.801 0.663 1.328 1.122-0.458 0.681-0.674 1.188-1.046 1.524-1.786 1.616-3.586 3.221-5.452 4.745-0.354 0.289-1.099 0.402-1.527 0.24-1.449-0.55-2.82-1.306-4.26-1.892-0.788-0.32-1.01-0.812-0.999-1.61 0.038-2.4-0.003-4.81 0.021-7.22zm-3.574 14.19c1.041-1.644 2.117-3.263 3.256-5.003 1.869 0.85 3.571 1.578 5.221 2.41 0.347 0.175 0.71 0.733 0.712 1.116 0 2.201-0.123 4.403-0.166 6.607-0.017 0.789-0.32 1.112-1.131 1.239-2.064 0.317-4.112 0.756-6.283 1.168-0.641-2.246-1.271-4.395-1.845-6.56-0.076-0.3 0.063-0.72 0.236-0.99zm4.938 18.65c-1.378-3.2-2.332-6.586-3.586-10.271 3.855-0.317 7.31-2.138 11.072-0.57 1.516 0.628 3.158 0.952 4.754 1.374 0.785 0.209 1.173 0.562 1.095 1.46-0.181 2.095-0.205 4.207-0.435 6.296-0.06 0.524-0.543 1.211-1.019 1.447-2.558 1.264-5.171 2.415-7.776 3.582-0.287 0.131-0.801 0.258-0.944 0.116-1.116-1.1-2.577-2.09-3.161-3.44zm7.522 15.39c-1.335-0.801-2.718-1.531-3.973-2.438-0.454-0.33-0.885-1.105-0.842-1.639 0.165-1.993 0.496-3.974 0.846-5.943 0.076-0.43 0.394-0.992 0.756-1.164 2.887-1.379 5.812-2.674 8.664-3.967 1.953 1.563 2.752 3.362 2.692 5.643-0.069 2.607 0.084 5.219 0.065 7.828-0.002 0.418-0.394 0.832-0.611 1.246-0.02 0.041-0.076 0.062-0.117 0.094-3.638 2.65-3.64 2.65-7.48 0.34zm4.226 8.72c-0.33-0.146-0.656-0.754-0.648-1.141 0.025-1.299 0.134-2.604 0.357-3.883 0.084-0.471 0.492-0.982 0.895-1.282 1.042-0.775 2.107-1.576 3.28-2.104 0.688-0.311 1.629-0.267 2.413-0.132 3.791 0.65 3.818 0.675 4.501 4.361 0.561 3.042 1.032 6.101 1.6 9.485-4.321-1.84-8.374-3.54-12.398-5.31zm15.049 6.43c-1.052-0.619-1.826-1.01-2.016-2.391-0.507-3.669-1.256-7.299-1.816-10.958-0.059-0.392 0.383-1.114 0.764-1.274 1.937-0.814 3.918-1.527 5.912-2.189 0.365-0.123 0.994 0.008 1.278 0.268 1.854 1.688 3.658 3.435 5.448 5.194 0.289 0.285 0.411 0.738 0.504 0.916-0.35 2.646-0.582 5.044-1.031 7.401-0.121 0.627-0.907 1.123-1.377 1.688-2.17 2.61-4.63 3.12-7.665 1.34zm5.185 9.26c-0.247-0.263-0.361-0.697-0.423-1.071-0.071-0.439-0.024-0.9-0.024-1.354-0.005-4.952-0.016-4.969 4.038-7.951 0.39-0.287 1.118-0.414 1.574-0.266 2.285 0.748 4.555 1.565 6.777 2.479 0.479 0.197 0.966 0.847 1.085 1.369 0.535 2.343 0.979 4.711 1.359 7.083 0.064 0.407-0.231 0.991-0.549 1.308-0.371 0.373-0.943 0.551-1.436 0.805-2.182 1.121-4.368 2.238-6.754 3.461-1.91-1.95-3.81-3.88-5.66-5.86zm18.86 12.97c-0.176 0.817-0.554 1.045-1.327 1.039-3.21-0.026-6.423-0.026-9.634-0.004-0.911 0.008-1.425-0.298-1.458-1.271-0.057-1.806-0.201-3.608-0.181-5.41 0.006-0.412 0.445-0.986 0.839-1.203 2.376-1.297 4.789-2.521 7.203-3.744 0.337-0.17 0.809-0.358 1.119-0.252 1.829 0.641 3.631 1.363 5.483 2.078-0.7 3.01-1.41 5.87-2.04 8.75zm5.66-23.64c0.013 1.906 0.004 3.812 0.004 5.72h-0.237c0 1.903 0.025 3.81-0.009 5.713-0.025 1.51-1.991 2.931-3.448 2.451-1.569-0.513-3.119-1.097-4.627-1.767-0.403-0.18-0.793-0.746-0.894-1.201-0.521-2.393-0.994-4.799-1.364-7.219-0.064-0.42 0.31-1.147 0.688-1.352 2.469-1.327 4.987-2.57 7.508-3.8 1.38-0.67 2.38-0.04 2.38 1.46zm-2.22-2.49c-3.006 1.5-5.817 2.928-8.66 4.286-0.337 0.162-0.879 0.046-1.275-0.094-2.225-0.781-4.42-1.646-6.652-2.398-0.852-0.29-1.059-0.747-0.924-1.574 0.317-1.979 0.519-3.98 0.897-5.949 0.104-0.533 0.566-1.177 1.044-1.429 1.684-0.89 3.439-1.649 5.184-2.42 1.128-0.496 4.413 0.371 5.078 1.375 1.74 2.63 3.44 5.3 5.31 8.2zm0.71-22.84c0.249 1.938 0.632 3.863 0.771 5.806 0.049 0.672-0.267 1.589-0.747 2.038-1.758 1.645-3.67 3.12-5.494 4.695-1.365 1.176-2.551-0.014-3.751-0.33-0.345-0.092-0.581-1.096-0.629-1.701-0.099-1.195-0.03-2.407-0.03-3.613-0.035-0.002-0.072-0.005-0.105-0.005 0.109-1.687-0.329-3.741 0.486-4.95 0.782-1.158 2.863-1.442 4.379-2.1 0.968-0.418 1.926-0.863 2.918-1.207 1.48-0.52 2.01-0.14 2.2 1.36zm-2.3-2.31c-2.647 1.123-5.155 2.215-7.694 3.234-0.289 0.115-0.777-0.081-1.105-0.258-2.03-1.098-4.065-2.192-6.038-3.389-0.352-0.215-0.659-0.953-0.573-1.36 0.41-1.96 0.928-3.899 1.495-5.82 0.136-0.463 0.521-0.995 0.938-1.204 1.699-0.857 3.453-1.599 5.377-2.468 2.53 3.77 4.99 7.42 7.59 11.27zm4.04-23.05c-0.948 2.072-1.847 4.081-2.794 6.066-0.158 0.329-0.48 0.668-0.812 0.815-2.37 1.059-4.763 2.069-7.302 3.16-1.12-3.924-2.2-7.703-3.342-11.693 2.425-0.268 4.685-0.518 6.949-0.764 0.247-0.025 0.52 0.033 0.747-0.047 2.79-0.97 4.64 0.6 6.54 2.46zm-3.88-3.66c-2.308 0.266-4.524 0.525-6.739 0.77-1.097 0.12-2.19 0.268-3.289 0.305-1.676 0.059-2.309-0.617-2.152-2.252 0.287-2.989 0.614-5.975 0.909-8.964 0.152-1.547 1.483-2.088 2.524-2.768 0.324-0.212 1.213 0.326 1.788 0.626 0.752 0.394 1.406 0.994 2.181 1.321 2.452 1.037 3.651 2.828 3.844 5.487 0.13 1.76 0.59 3.51 0.94 5.46zm-3.61-19.9c1.098-0.109 2.188-0.289 3.281-0.443 1.64-0.231 3.272-0.523 4.922-0.658 0.348-0.03 1.03 0.469 1.069 0.786 0.286 2.29 0.443 4.597 0.683 7.36-0.172 0.169-0.532 0.601-0.971 0.925-0.268 0.2-0.655 0.239-0.989 0.345-1.86 0.591-3.796 1.803-5.562 1.594-1.771-0.213-3.314-1.965-5.068-2.814-1.576-0.763-1.822-1.759-1.455-3.352 0.58-2.49 1.57-3.49 4.1-3.75zm-1.85-1.04c-0.402 1.559-2.035 1.831-3.125 0.65-1.773-1.918-3.592-3.796-5.295-5.773-0.362-0.42-0.533-1.235-0.424-1.796 0.564-2.878 1.963-5.333 4.115-7.336 0.312-0.29 0.714-0.669 1.084-0.68 2.342-0.062 4.689-0.03 7.331-0.03-1.3 5.35-2.44 10.172-3.68 14.965z" fill="#383838"/>
	<polygon opacity=".2" enable-background="new " fill="#183049" points="99.213 0 99.213 87.601 91.554 87.601 91.554 186.46 99.213 186.46 99.213 277.51 303.21 277.51 303.21 0"/>
				<rect height="88.995" width="23.832" stroke="#A89A7B" stroke-miterlimit="10" y="92.728" x="96.046" stroke-width="3" fill="#EFE9DA"/>
			<rect opacity=".5" height="88.995" width="17.832" y="92.728" x="102.05" enable-background="new " fill="#A89A7B"/>
				<path d="m291.08 261.28c0 2.75-2.25 5-5 5h-172.22c-2.75 0-5-2.25-5-5v-247.33c0-2.75 2.25-5 5-5h172.22c2.75 0 5 2.25 5 5v247.33z" fill="#427ACC"/><g stroke-miterlimit="10" fill="none">
				<path stroke="#1B4F8C" stroke-width="3" d="m291.08 261.28c0 2.75-2.25 5-5 5h-172.22c-2.75 0-5-2.25-5-5v-247.33c0-2.75 2.25-5 5-5h172.22c2.75 0 5 2.25 5 5v247.33z"/><g stroke="#7FB3DD">
					<path d="m290.05 260.08c0 2.75-2.25 5-5 5h-170.18c-2.75 0-5-2.25-5-5v-246.03c0-2.75 2.25-5 5-5h170.17c2.75 0 5 2.25 5 5v246.03z"/>
					<path d="m279.27 253.69c0 2.75-2.25 5-5 5h-148.6c-2.75 0-5-2.25-5-5v-233.37c0-2.75 2.25-5 5-5h148.6c2.75 0 5 2.25 5 5v233.37z"/>
					<path d="m268.5 247.31c0 2.75-2.25 5-5 5h-127.03c-2.75 0-5-2.25-5-5v-220.71c0-2.75 2.25-5 5-5h127.03c2.75 0 5 2.25 5 5v220.71z"/>
					<path d="m257.73 240.93c0 2.75-2.25 5-5 5h-105.46c-2.75 0-5-2.25-5-5v-208.06c0-2.75 2.25-5 5-5h105.46c2.75 0 5 2.25 5 5v208.06z"/>
					<path d="m246.96 234.55c0 2.75-2.25 5-5 5h-83.89c-2.75 0-5-2.25-5-5v-195.4c0-2.75 2.25-5 5-5h83.89c2.75 0 5 2.25 5 5v195.4z"/>
					<path d="m236.19 228.17c0 2.75-2.25 5-5 5h-62.318c-2.75 0-5-2.25-5-5v-182.74c0-2.75 2.25-5 5-5h62.318c2.75 0 5 2.25 5 5v182.74z"/>
					<path d="m225.42 221.78c0 2.75-2.25 5-5 5h-40.748c-2.75 0-5-2.25-5-5v-170.08c0-2.75 2.25-5 5-5h40.748c2.75 0 5 2.25 5 5v170.08z"/>
					<path d="m214.65 215.4c0 2.75-2.25 5-5 5h-19.176c-2.75 0-5-2.25-5-5v-157.42c0-2.75 2.25-5 5-5h19.176c2.75 0 5 2.25 5 5v157.42z"/></g><g stroke="#1B4F8C">
					<path d="m291.17 260.6c0 2.75-2.25 5-5 5h-172.22c-2.75 0-5-2.25-5-5v-247.33c0-2.75 2.25-5 5-5h172.22c2.75 0 5 2.25 5 5v247.33z"/>
					<path d="m280.35 254.19c0 2.75-2.25 5-5 5h-150.58c-2.75 0-5-2.25-5-5v-234.61c0-2.75 2.25-5 5-5h150.58c2.75 0 5 2.25 5 5v234.61z"/>
					<path d="m269.53 247.77c0 2.75-2.25 5-5 5h-128.94c-2.75 0-5-2.25-5-5v-221.88c0-2.75 2.25-5 5-5h128.94c2.75 0 5 2.25 5 5v221.88z"/>
					<path d="m258.71 241.36c0 2.75-2.25 5-5 5h-107.3c-2.75 0-5-2.25-5-5v-209.16c0-2.75 2.25-5 5-5h107.3c2.75 0 5 2.25 5 5v209.16z"/>
					<path d="m247.89 234.94c0 2.75-2.25 5-5 5h-85.654c-2.75 0-5-2.25-5-5v-196.44c0-2.75 2.25-5 5-5h85.654c2.75 0 5 2.25 5 5v196.44z"/>
					<path d="m237.06 228.53c0 2.75-2.25 5-5 5h-64.012c-2.75 0-5-2.25-5-5v-183.72c0-2.75 2.25-5 5-5h64.012c2.75 0 5 2.25 5 5v183.72z"/>
					<path d="m226.24 222.12c0 2.75-2.25 5-5 5h-42.369c-2.75 0-5-2.25-5-5v-171c0-2.75 2.25-5 5-5h42.369c2.75 0 5 2.25 5 5v171z"/>
					<path d="m215.42 215.7c0 2.75-2.25 5-5 5h-20.728c-2.75 0-5-2.25-5-5v-158.27c0-2.75 2.25-5 5-5h20.728c2.75 0 5 2.25 5 5v158.27z"/>
			</g></g><polygon opacity=".4" enable-background="new " fill="#1D277F" points="292.88 19.095 292.88 7.726 277.6 7.726 200.06 58.96 122.24 7.423 107.55 7.503 107.55 19.36 191.76 72.659 191.76 202.19 107.55 254.95 107.55 268 122.24 268.08 200.06 216.54 277.6 267.78 292.88 267.78 292.88 255.41 208.18 202.26 208.18 72.604"/>
				<linearGradient id="d" x1="115.91" gradientUnits="userSpaceOnUse" y1="164.06" gradientTransform="matrix(1 0 0 -1 -8.3599 301.56)" x2="300.85" y2="164.06">
				<stop stop-color="#1D277F" offset="0"/>
				<stop stop-color="#1D277F" stop-opacity="0" offset=".3"/>
				<stop stop-color="#1D277F" stop-opacity="0" offset=".7"/>
				<stop stop-color="#1D277F" offset=".97"/>
			</linearGradient>
			<polygon opacity=".4" enable-background="new " fill="url(#d)" points="292.49 12.991 199.52 67.71 107.55 12.991 107.55 262.02 199.52 208.49 292.49 262.02"/>
				<linearGradient id="c" x1="209.04" gradientUnits="userSpaceOnUse" y1="301.68" gradientTransform="matrix(1 0 0 -1 -8.3599 301.56)" x2="209.04" y2="232.51">
				<stop stop-color="#1D277F" offset="0"/>
				<stop stop-color="#1D277F" stop-opacity="0" offset=".4506"/>
				<stop stop-color="#1D277F" stop-opacity="0" offset=".7"/>
				<stop stop-color="#1D277F" offset=".97"/>
			</linearGradient>
			<polygon opacity=".8" enable-background="new " fill="url(#c)" points="113.97 7.503 287.38 7.503 204.07 66.888 193.68 66.888"/>
				<linearGradient id="b" x1="207.04" gradientUnits="userSpaceOnUse" y1="-4051" gradientTransform="translate(-8.3599 4326.4)" x2="207.04" y2="-4120.2">
				<stop stop-color="#1D277F" offset="0"/>
				<stop stop-color="#1D277F" stop-opacity="0" offset=".4506"/>
				<stop stop-color="#1D277F" stop-opacity="0" offset=".7"/>
				<stop stop-color="#1D277F" offset=".97"/>
			</linearGradient>
			<polygon opacity=".8" enable-background="new " fill="url(#b)" points="109.97 267.74 287.38 267.74 204.07 208.36 193.68 208.36"/>
						<path d="m197.23 63.827c-2.342 1.441-3.049 4.519-1.57 6.838l0.535 0.84c1.479 2.319 4.568 2.983 6.869 1.476l88.66-58.119c2.299-1.508 3.25-4.202 2.112-5.987s-3.983-2.066-6.326-0.625l-90.28 55.577z" fill="#427ACC"/>
						<path stroke="#1B4F8C" stroke-width="3" stroke-miterlimit="10" d="m197.23 63.827c-2.342 1.441-3.049 4.519-1.57 6.838l0.535 0.84c1.479 2.319 4.568 2.983 6.869 1.476l88.66-58.119c2.299-1.508 3.25-4.202 2.112-5.987s-3.983-2.066-6.326-0.625l-90.28 55.577z" fill="none"/>
					<g stroke="#1B4F8C" stroke-width="2" stroke-miterlimit="10" fill="none">
							<line x2="240.02" y1="45.546" x1="245.92" y2="36.269"/>
							<line x2="277" y1="22.194" x1="282.9" y2="12.919"/>
							<line x2="261.05" y1="32.374" x1="266.96" y2="23.097"/>
							<line x2="219.42" y1="58.907" x1="225.33" y2="49.63"/>
					</g><g fill="#71A5E2">
					<polygon points="265.74 25.142 266.97 27.065 278.06 20.011 276.84 18.085"/>
						<rect transform="matrix(.5375 .8433 -.8433 .5375 146.13 -197.71)" height="19.749" width="2.282" y="24.494" x="252.16"/>
					<polygon points="224.11 51.552 225.34 53.478 241.3 43.353 240.07 41.429"/>
					<polygon points="207.04 62.538 208.27 64.464 220.87 56.239 219.64 54.315"/>
					<path d="m281.37 15.22l7.297-4.813c0.532-0.342 1.237-0.187 1.577 0.348 0.338 0.529 0.184 1.236-0.35 1.574l-7.299 4.816-1.23-1.925z"/>
						</g><path d="m202.13 63.827c2.343 1.441 3.05 4.519 1.571 6.838l-0.535 0.84c-1.479 2.319-4.568 2.983-6.869 1.476l-88.66-58.119c-2.3-1.508-3.251-4.202-2.113-5.987s3.984-2.066 6.326-0.625l90.28 55.577z" fill="#427ACC"/>
						<path stroke="#1B4F8C" stroke-width="3" stroke-miterlimit="10" d="m202.13 63.827c2.343 1.441 3.05 4.519 1.571 6.838l-0.535 0.84c-1.479 2.319-4.568 2.983-6.869 1.476l-88.66-58.119c-2.3-1.508-3.251-4.202-2.113-5.987s3.984-2.066 6.326-0.625l90.28 55.577z" fill="none"/>
					<g stroke="#1B4F8C" stroke-width="2" stroke-miterlimit="10" fill="none">
							<line x2="159.34" y1="45.546" x1="153.44" y2="36.269"/>
							<line x2="122.36" y1="22.194" x1="116.45" y2="12.919"/>
							<line x2="138.31" y1="32.374" x1="132.4" y2="23.097"/>
							<line x2="179.94" y1="58.907" x1="174.03" y2="49.63"/>
					</g><g fill="#71A5E2">
					<polygon points="133.62 25.142 132.39 27.065 121.29 20.011 122.52 18.085"/>
						<rect transform="matrix(-.5375 .8433 -.8433 -.5375 253.54 -70.323)" height="19.75" width="2.282" y="24.493" x="144.91"/>
					<polygon points="175.24 51.552 174.02 53.478 158.06 43.353 159.29 41.429"/>
					<polygon points="192.32 62.538 191.09 64.464 178.49 56.239 179.72 54.315"/>
					<path d="m117.99 15.22l-7.297-4.813c-0.532-0.342-1.238-0.187-1.577 0.348-0.338 0.529-0.183 1.236 0.349 1.574l7.3 4.816 1.23-1.925z"/>
						</g><path d="m197.24 210.62c-2.342-1.44-3.049-4.519-1.571-6.838l0.536-0.843c1.479-2.318 4.568-2.982 6.867-1.476l88.66 58.119c2.301 1.508 3.252 4.202 2.113 5.987-1.138 1.785-3.984 2.066-6.326 0.625l-90.28-55.58z" fill="#427ACC"/>
						<path stroke="#1B4F8C" stroke-width="3" stroke-miterlimit="10" d="m197.24 210.62c-2.342-1.44-3.049-4.519-1.571-6.838l0.536-0.843c1.479-2.318 4.568-2.982 6.867-1.476l88.66 58.119c2.301 1.508 3.252 4.202 2.113 5.987-1.138 1.785-3.984 2.066-6.326 0.625l-90.28-55.58z" fill="none"/>
					<g stroke="#1B4F8C" stroke-width="2" stroke-miterlimit="10" fill="none">
							<line x2="240.02" y1="228.9" x1="245.93" y2="238.18"/>
							<line x2="277" y1="252.26" x1="282.91" y2="261.53"/>
							<line x2="261.06" y1="242.08" x1="266.97" y2="251.35"/>
							<line x2="219.43" y1="215.54" x1="225.34" y2="224.82"/>
					</g><g fill="#71A5E2">
					<polygon points="265.75 249.31 266.98 247.38 278.07 254.44 276.85 256.36"/>
						<rect transform="matrix(.5374 -.8433 .8433 .5374 -85.286 324.69)" height="19.751" width="2.282" y="230.21" x="252.17"/>
					<polygon points="224.12 222.9 225.35 220.98 241.31 231.1 240.08 233.02"/>
					<polygon points="207.05 211.91 208.28 209.99 220.88 218.21 219.65 220.13"/>
					<path d="m281.38 259.23l7.298 4.814c0.531 0.342 1.237 0.186 1.576-0.346 0.338-0.531 0.184-1.238-0.35-1.576l-7.299-4.816-1.23 1.94z"/>
						</g><path d="m202.6 210.62c2.342-1.44 3.049-4.519 1.57-6.838l-0.535-0.843c-1.479-2.318-4.568-2.982-6.869-1.476l-88.66 58.119c-2.3 1.508-3.251 4.202-2.113 5.987s3.984 2.066 6.326 0.625l90.27-55.58z" fill="#427ACC"/>
						<path stroke="#1B4F8C" stroke-width="3" stroke-miterlimit="10" d="m202.6 210.62c2.342-1.44 3.049-4.519 1.57-6.838l-0.535-0.843c-1.479-2.318-4.568-2.982-6.869-1.476l-88.66 58.119c-2.3 1.508-3.251 4.202-2.113 5.987s3.984 2.066 6.326 0.625l90.27-55.58z" fill="none"/>
					<g stroke="#1B4F8C" stroke-width="2" stroke-miterlimit="10" fill="none">
							<line x2="159.81" y1="228.9" x1="153.9" y2="238.18"/>
							<line x2="122.83" y1="252.26" x1="116.92" y2="261.53"/>
							<line x2="138.78" y1="242.08" x1="132.87" y2="251.35"/>
							<line x2="180.41" y1="215.54" x1="174.5" y2="224.82"/>
					</g><g fill="#71A5E2">
					<polygon points="134.09 249.31 132.86 247.38 121.76 254.44 122.99 256.36"/>
						<rect transform="matrix(-.5376 -.8432 .8432 -.5376 22.857 492.7)" height="19.75" width="2.282" y="230.21" x="145.38"/>
					<polygon points="175.71 222.9 174.48 220.98 158.53 231.1 159.76 233.02"/>
					<polygon points="192.78 211.91 191.56 209.99 178.96 218.21 180.19 220.13"/>
					<path d="m118.46 259.23l-7.297 4.814c-0.532 0.342-1.238 0.186-1.577-0.346-0.338-0.531-0.183-1.238 0.349-1.576l7.3-4.816 1.23 1.94z"/>
						</g><path d="m205.56 206.94c0 2.75-2.25 5-5 5h-0.998c-2.75 0-5-2.25-5-5v-138.66c0-2.75 2.25-5 5-5h0.998c2.75 0 5 2.25 5 5v138.66z" fill="#427ACC"/>
						<path stroke="#1B4F8C" stroke-width="3" stroke-miterlimit="10" d="m205.56 206.94c0 2.75-2.25 5-5 5h-0.998c-2.75 0-5-2.25-5-5v-138.66c0-2.75 2.25-5 5-5h0.998c2.75 0 5 2.25 5 5v138.66z" fill="none"/>
					<g stroke="#1B4F8C" stroke-width="2" stroke-miterlimit="10" fill="none">
							<line x2="205.56" y1="87.601" x1="194.56" y2="87.601"/>
							<line x2="205.56" y1="161.74" x1="194.56" y2="161.74"/>
							<line x2="205.56" y1="112.31" x1="194.56" y2="112.31"/>
							<line x2="205.56" y1="137.03" x1="194.56" y2="137.03"/>
							<line x2="205.56" y1="186.46" x1="194.56" y2="186.46"/>
					</g><g fill="#71A5E2">
					<rect y="89.886" x="198.18" width="2.282" height="19.75"/>
					<rect y="114.88" x="198.18" width="2.282" height="19.75"/>
					<rect y="139.38" x="198.18" width="2.282" height="19.75"/>
					<rect y="164.33" x="198.18" width="2.282" height="19.75"/>
					<path d="m200.46 189.28v17.763c0 0.631-0.511 1.142-1.142 1.142s-1.142-0.511-1.142-1.142v-17.763h2.28z"/>
					<path d="m200.46 84.792v-16.762c0-0.631-0.511-1.143-1.142-1.143s-1.142 0.512-1.142 1.143v16.762h2.28z"/>
			</g><polygon opacity=".4" enable-background="new " fill="#1D277F" points="177.45 233.38 169.96 267.88 227.63 267.88 222.39 233.38"/>
				<rect height="22.76" width="43.5" stroke="#A89A7B" stroke-miterlimit="10" y="234.08" x="178.17" stroke-width="2" fill="#DDCFAF"/>
			<rect height="17.014" width="37.41" stroke="#A89A7B" stroke-miterlimit="10" y="236.95" x="181.21" fill="#EFE9DA"/>
			<polygon opacity=".4" enable-background="new " fill="#343C66" points="181.55 245.46 182.66 253.97 183.66 257.8 215.56 257.83 216.56 253.97 217.38 245.53 201.55 245.53 202.45 253.97 203.45 257.78 195.77 257.78 196.77 253.97 197.71 245.46"/><g stroke-miterlimit="10">
				<circle stroke-width="2" stroke="#6D4123" cy="245.53" cx="189.71" r="7.055" fill="#A56B3F"/>
				<circle r="3.386" stroke="#6D4123" cx="189.71" cy="245.53"/>
				<path stroke="#D8A988" stroke-linecap="round" d="m184.43 245.53c0-2.919 2.364-5.283 5.282-5.283" fill="none"/>
					</g><path d="m192.63 243.04s0.138 0.119 0.364 0.337c0.107 0.114 0.26 0.23 0.393 0.409 0.127 0.187 0.274 0.401 0.426 0.651 0.127 0.254 0.23 0.549 0.336 0.865 0.029 0.33 0.154 0.688 0.086 1.061-0.012 0.377-0.103 0.756-0.243 1.129-0.171 0.353-0.349 0.723-0.618 1.018-0.245 0.319-0.57 0.557-0.879 0.79-0.329 0.211-0.676 0.376-1.03 0.479-0.342 0.135-0.71 0.15-1.036 0.181-0.338-0.01-0.652-0.011-0.931-0.106-0.14-0.037-0.271-0.071-0.396-0.104-0.115-0.062-0.227-0.117-0.33-0.17-0.207-0.099-0.371-0.204-0.488-0.322-0.244-0.215-0.367-0.339-0.367-0.339s0.169 0.061 0.464 0.165c0.136 0.065 0.317 0.103 0.522 0.136 0.099 0.02 0.205 0.039 0.316 0.062 0.112 0.001 0.23 0.004 0.354 0.006 0.243 0.027 0.506-0.041 0.774-0.067 0.264-0.073 0.547-0.133 0.812-0.265 0.277-0.104 0.523-0.284 0.783-0.447 0.232-0.193 0.484-0.384 0.662-0.637 0.22-0.219 0.354-0.497 0.498-0.758 0.047-0.143 0.104-0.279 0.162-0.416 0.053-0.139 0.061-0.285 0.094-0.426 0.084-0.282 0.025-0.568 0.055-0.845-0.055-0.267-0.078-0.536-0.133-0.776-0.083-0.227-0.148-0.446-0.211-0.647-0.075-0.198-0.176-0.366-0.237-0.509-0.1-0.27-0.17-0.44-0.17-0.44z" fill="#D8A988"/><g stroke-miterlimit="10">
				<circle stroke-width="2" stroke="#6D4123" cy="245.53" cx="209.5" r="7.055" fill="#A56B3F"/>
				<circle r="3.386" stroke="#6D4123" cx="209.5" cy="245.53"/>
				<path stroke="#D8A988" stroke-linecap="round" d="m204.22 245.53c0-2.919 2.364-5.283 5.282-5.283" fill="none"/>
					</g><path d="m212.42 243.04s0.138 0.119 0.364 0.337c0.107 0.114 0.26 0.23 0.393 0.409 0.127 0.187 0.274 0.401 0.426 0.651 0.127 0.254 0.23 0.549 0.336 0.865 0.029 0.33 0.154 0.688 0.086 1.061-0.012 0.377-0.103 0.756-0.243 1.129-0.171 0.353-0.349 0.723-0.618 1.018-0.245 0.319-0.57 0.557-0.879 0.79-0.329 0.211-0.676 0.376-1.03 0.479-0.342 0.135-0.71 0.15-1.036 0.181-0.338-0.01-0.652-0.011-0.931-0.106-0.14-0.037-0.271-0.071-0.396-0.104-0.115-0.062-0.227-0.117-0.33-0.17-0.207-0.099-0.371-0.204-0.488-0.322-0.244-0.215-0.367-0.339-0.367-0.339s0.169 0.061 0.464 0.165c0.136 0.065 0.317 0.103 0.522 0.136 0.099 0.02 0.205 0.039 0.316 0.062 0.112 0.001 0.23 0.004 0.354 0.006 0.243 0.027 0.506-0.041 0.774-0.067 0.264-0.073 0.547-0.133 0.812-0.265 0.277-0.104 0.523-0.284 0.783-0.447 0.232-0.193 0.484-0.384 0.662-0.637 0.22-0.219 0.354-0.497 0.498-0.758 0.047-0.143 0.104-0.279 0.162-0.416 0.053-0.139 0.061-0.285 0.094-0.426 0.084-0.282 0.024-0.568 0.055-0.845-0.055-0.267-0.078-0.536-0.133-0.776-0.083-0.227-0.148-0.446-0.211-0.647-0.075-0.198-0.176-0.366-0.237-0.509-0.11-0.27-0.18-0.44-0.18-0.44z" fill="#D8A988"/>
			<polygon opacity=".4" enable-background="new " fill="#1D277F" points="177.3 40.601 169.81 7.503 227.48 7.503 222.24 40.601"/>
				<rect height="22.758" width="43.5" stroke="#A89A7B" stroke-miterlimit="10" y="17.144" x="178.02" stroke-width="2" fill="#DDCFAF"/>
			<rect height="17.014" width="37.41" stroke="#A89A7B" stroke-miterlimit="10" y="20.017" x="181.06" fill="#EFE9DA"/>
			<polygon opacity=".4" enable-background="new " fill="#343C66" points="181.4 28.522 182.51 20.017 183.51 16.185 215.41 16.151 216.41 20.017 217.23 28.45 201.4 28.45 202.3 20.017 203.3 16.2 195.62 16.2 196.62 20.017 197.56 28.522"/><g stroke-miterlimit="10">
				<circle stroke-width="2" stroke="#6D4123" cy="28.45" cx="189.56" r="7.055" fill="#A56B3F"/>
				<circle r="3.386" stroke="#6D4123" cx="189.56" cy="28.45"/>
				<path stroke="#D8A988" stroke-linecap="round" d="m184.28 28.45c0-2.918 2.363-5.283 5.281-5.283" fill="none"/>
					</g><path d="m192.48 25.96s0.139 0.119 0.365 0.337c0.107 0.114 0.26 0.231 0.391 0.409 0.129 0.186 0.275 0.401 0.427 0.651 0.128 0.254 0.231 0.549 0.337 0.866 0.027 0.33 0.154 0.687 0.085 1.06-0.011 0.377-0.103 0.756-0.243 1.129-0.17 0.353-0.349 0.723-0.617 1.018-0.246 0.319-0.57 0.557-0.879 0.79-0.33 0.211-0.676 0.376-1.031 0.479-0.342 0.135-0.709 0.151-1.037 0.181-0.336-0.01-0.65-0.011-0.93-0.106-0.139-0.037-0.271-0.072-0.396-0.105-0.115-0.061-0.226-0.117-0.329-0.17-0.208-0.098-0.372-0.204-0.488-0.322-0.244-0.215-0.367-0.339-0.367-0.339s0.168 0.06 0.463 0.165c0.137 0.066 0.317 0.102 0.522 0.136 0.099 0.019 0.205 0.039 0.315 0.062 0.113 0.001 0.232 0.004 0.355 0.006 0.243 0.027 0.506-0.041 0.775-0.067 0.264-0.073 0.547-0.133 0.812-0.265 0.277-0.104 0.522-0.284 0.782-0.447 0.233-0.194 0.485-0.384 0.662-0.637 0.22-0.218 0.354-0.497 0.498-0.758 0.048-0.142 0.104-0.279 0.163-0.416 0.052-0.138 0.061-0.285 0.093-0.426 0.085-0.282 0.024-0.568 0.056-0.844-0.055-0.267-0.078-0.536-0.134-0.776-0.083-0.227-0.147-0.447-0.21-0.648-0.076-0.198-0.176-0.366-0.238-0.509-0.11-0.286-0.18-0.454-0.18-0.454z" fill="#D8A988"/><g stroke-miterlimit="10">
				<circle stroke-width="2" stroke="#6D4123" cy="28.45" cx="209.36" r="7.055" fill="#A56B3F"/>
				<circle r="3.386" stroke="#6D4123" cx="209.36" cy="28.45"/>
				<path stroke="#D8A988" stroke-linecap="round" d="m204.07 28.45c0-2.918 2.363-5.283 5.281-5.283" fill="none"/>
					</g><path d="m212.27 25.96s0.139 0.119 0.365 0.337c0.107 0.114 0.26 0.231 0.391 0.409 0.129 0.186 0.275 0.401 0.427 0.651 0.128 0.254 0.231 0.549 0.337 0.866 0.027 0.33 0.154 0.687 0.085 1.06-0.011 0.377-0.103 0.756-0.243 1.129-0.17 0.353-0.349 0.723-0.617 1.018-0.246 0.319-0.57 0.557-0.879 0.79-0.33 0.211-0.676 0.376-1.031 0.479-0.342 0.135-0.709 0.151-1.037 0.181-0.336-0.01-0.65-0.011-0.93-0.106-0.139-0.037-0.271-0.072-0.396-0.105-0.115-0.061-0.226-0.117-0.329-0.17-0.208-0.098-0.372-0.204-0.488-0.322-0.244-0.215-0.367-0.339-0.367-0.339s0.168 0.06 0.463 0.165c0.137 0.066 0.317 0.102 0.522 0.136 0.099 0.019 0.205 0.039 0.315 0.062 0.113 0.001 0.231 0.004 0.355 0.006 0.243 0.027 0.506-0.041 0.775-0.067 0.264-0.073 0.547-0.133 0.812-0.265 0.277-0.104 0.522-0.284 0.782-0.447 0.233-0.194 0.485-0.384 0.662-0.637 0.22-0.218 0.354-0.497 0.498-0.758 0.048-0.142 0.104-0.279 0.163-0.416 0.052-0.138 0.061-0.285 0.093-0.426 0.085-0.282 0.024-0.568 0.056-0.844-0.055-0.267-0.078-0.536-0.134-0.776-0.083-0.227-0.147-0.447-0.21-0.648-0.076-0.198-0.176-0.366-0.238-0.509-0.12-0.286-0.19-0.454-0.19-0.454z" fill="#D8A988"/>
		<circle opacity=".2" cx="42.998" cy="223.43" r="36.797" enable-background="new " fill="#183049"/>
			<circle stroke-width="3" stroke="#A89A7B" cy="223.48" cx="43.089" stroke-miterlimit="10" r="32.243" fill="#EFE9DA"/>
				<linearGradient id="a" x1="29.445" gradientUnits="userSpaceOnUse" y1="78.085" gradientTransform="matrix(1 0 0 -1 -8.3599 301.56)" x2="73.455" y2="78.085">
				<stop stop-color="#79BAE2" offset="0"/>
				<stop stop-color="#428DE2" offset="1"/>
			</linearGradient><g stroke-miterlimit="10">
			<circle stroke-width="3" stroke="#A89A7B" cy="223.48" cx="43.09" r="22.005" fill="url(#a)"/>
			<g opacity=".6" stroke="#A7D4EA" stroke-width=".5" fill="none">
				<circle cy="224.34" cx="44.233" r="10.67"/>
					<circle opacity=".6" cy="225.27" r="13.658" cx="44.231" enable-background="new "/>
			</g>
			<circle stroke="#A89A7B" cy="223.27" cx="43.593" r="8.533" fill="#EFE9DA"/>
			</g><path opacity=".6" enable-background="new " d="m51.486 223.27c0-1.75-0.581-3.365-1.549-4.676-6.438 12.645-13.598 7.124-13.598 7.124l-0.144 0.282c1.115 3.009 4.004 5.164 7.396 5.164 4.354 0.02 7.895-3.53 7.895-7.88z" fill="#A89A7B"/><g stroke-miterlimit="10">
				<circle stroke="#A89A7B" cy="223.1" cx="43.46" r="4.515" fill="#EFE9DA"/>
				<circle stroke-width=".5" stroke="#6D4123" cy="223.1" cx="43.459" r="2.167"/>
				<path d="m40.08 223.1c0-1.867 1.513-3.381 3.38-3.381" stroke="#fff" stroke-linecap="round" stroke-width=".5" fill="none"/>
					</g><path d="m45.327 221.51s0.08 0.082 0.221 0.225c0.144 0.139 0.323 0.359 0.496 0.687 0.074 0.162 0.131 0.351 0.199 0.548 0.016 0.206 0.096 0.43 0.049 0.662-0.008 0.235-0.068 0.471-0.156 0.702-0.106 0.22-0.218 0.45-0.387 0.634-0.322 0.379-0.744 0.672-1.189 0.799-0.213 0.088-0.443 0.099-0.648 0.117-0.211-0.008-0.407-0.001-0.584-0.054-0.18-0.026-0.333-0.088-0.46-0.162-0.132-0.062-0.239-0.121-0.315-0.19-0.16-0.129-0.242-0.205-0.242-0.205s0.105 0.043 0.289 0.119c0.085 0.047 0.199 0.078 0.332 0.102 0.128 0.037 0.273 0.055 0.435 0.059 0.157 0.025 0.33-0.012 0.507-0.029 0.174-0.047 0.36-0.084 0.535-0.168 0.185-0.065 0.348-0.181 0.52-0.287 0.154-0.129 0.32-0.252 0.438-0.42 0.145-0.145 0.233-0.328 0.327-0.502 0.07-0.187 0.146-0.366 0.163-0.56 0.052-0.187 0.013-0.375 0.029-0.556-0.034-0.176-0.059-0.35-0.101-0.504-0.109-0.293-0.199-0.566-0.314-0.733-0.092-0.19-0.144-0.29-0.144-0.29z" fill="#D8A988"/>
</svg>
