<?xml version="1.0" encoding="utf-8"?>
<!-- Generator: Adobe Illustrator 19.2.1, SVG Export Plug-In . SVG Version: 6.00 Build 0)  -->
<svg version="1.1" xmlns="http://www.w3.org/2000/svg" xmlns:xlink="http://www.w3.org/1999/xlink" x="0px" y="0px" width="354px"
	 height="394.2px" viewBox="0 0 354 394.2" style="enable-background:new 0 0 354 394.2;" xml:space="preserve">
<style type="text/css">
	.st0{fill:url(#SVGID_1_);}
	.st1{opacity:0.2;fill:#183049;enable-background:new    ;}
	.st2{fill:#A05547;stroke:#82291D;stroke-miterlimit:10;}
	.st3{fill:none;stroke:#82291D;stroke-miterlimit:10;}
	.st4{opacity:0.7;fill:#82291D;enable-background:new    ;}
	.st5{fill:#3B527A;stroke:#162842;stroke-miterlimit:10;}
	.st6{fill:url(#SVGID_2_);}
	.st7{fill:none;stroke:#162842;stroke-miterlimit:10;}
	.st8{fill:url(#SVGID_3_);}
	.st9{fill:url(#SVGID_4_);}
	.st10{fill:url(#SVGID_5_);}
	.st11{fill:url(#SVGID_6_);}
	.st12{fill:url(#SVGID_7_);}
	.st13{fill:url(#SVGID_8_);}
	.st14{fill:url(#SVGID_9_);}
	.st15{fill:url(#SVGID_10_);}
	.st16{fill:url(#SVGID_11_);}
	.st17{fill:url(#SVGID_12_);}
	.st18{fill:url(#SVGID_13_);}
	.st19{fill:url(#SVGID_14_);}
	.st20{fill:url(#SVGID_15_);}
	.st21{fill:url(#SVGID_16_);}
	.st22{fill:url(#SVGID_17_);}
	.st23{fill:url(#SVGID_18_);}
	.st24{fill:url(#SVGID_19_);}
	.st25{fill:url(#SVGID_20_);}
	.st26{fill:url(#SVGID_21_);}
	.st27{fill:url(#SVGID_22_);}
	.st28{fill:url(#SVGID_23_);}
	.st29{fill:#F2E140;stroke:#D19A4A;stroke-miterlimit:10;}
	.st30{fill:#A58E2B;}
	.st31{fill:none;stroke:#A82A2A;stroke-width:2;stroke-linecap:round;stroke-miterlimit:10;}
	.st32{fill:#3A352E;stroke:#000000;stroke-linecap:round;stroke-miterlimit:10;}
	.st33{opacity:0.6;fill:#FFFFFF;enable-background:new    ;}
	.st34{fill:#C1AE25;stroke:#F2E140;stroke-width:0.6;stroke-linecap:round;stroke-miterlimit:10;}
	.st35{fill:url(#SVGID_24_);stroke:#8E1E03;stroke-miterlimit:10;}
	.st36{opacity:0.6;fill:none;stroke:#8E1E03;stroke-miterlimit:10;enable-background:new    ;}
	.st37{fill:none;stroke:#F2E140;stroke-linecap:round;stroke-miterlimit:10;}
	.st38{fill:none;stroke:#F2E140;stroke-width:0.6;stroke-linecap:round;stroke-miterlimit:10;}
	.st39{fill:#E05D3F;stroke:#8E1E03;stroke-miterlimit:10;}
	.st40{fill:url(#SVGID_25_);stroke:#6B0000;stroke-miterlimit:10;}
	.st41{fill:#2F4A63;stroke:#0C2735;stroke-width:3;stroke-miterlimit:10;}
	.st42{fill:#B6E7EF;}
	.st43{fill:none;stroke:#0C2735;stroke-width:2;stroke-miterlimit:10;}
	.st44{fill:none;stroke:#0C2735;stroke-miterlimit:10;}
	.st45{opacity:0.4;}
	.st46{fill:#0F3044;}
	.st47{fill:#2F4A63;stroke:#0C2735;stroke-miterlimit:10;}
	.st48{opacity:0.4;fill:#0F3044;enable-background:new    ;}
	.st49{fill:none;stroke:#0C2735;stroke-width:3;stroke-miterlimit:10;}
	.st50{fill:url(#SVGID_26_);}
	.st51{fill:none;stroke:#6979A8;stroke-miterlimit:10;}
	.st52{fill:none;stroke:#D0E9F4;stroke-miterlimit:10;}
	.st53{fill:#B0CAD6;}
	.st54{opacity:0.6;}
	.st55{opacity:0.5;fill:url(#SVGID_27_);enable-background:new    ;}
	.st56{fill:url(#SVGID_28_);}
	.st57{fill:url(#SVGID_29_);}
	.st58{opacity:0.5;fill:url(#SVGID_30_);enable-background:new    ;}
	.st59{fill:#C3E2ED;}
	.st60{fill:url(#SVGID_31_);}
	.st61{opacity:0.1;fill:#CAE6ED;enable-background:new    ;}
	.st62{fill:url(#SVGID_32_);}
	.st63{fill:url(#SVGID_33_);}
	.st64{opacity:0.4;fill:#14182B;enable-background:new    ;}
	.st65{fill:url(#SVGID_34_);}
	.st66{fill:url(#SVGID_35_);}
	.st67{opacity:0.1;fill:#14182B;enable-background:new    ;}
	.st68{fill:url(#SVGID_36_);}
	.st69{fill:url(#SVGID_37_);}
	.st70{fill:url(#SVGID_38_);}
	.st71{fill:url(#SVGID_39_);}
	.st72{fill:none;stroke:#DCF2F9;stroke-width:2;stroke-miterlimit:10;}
	.st73{fill:url(#SVGID_40_);}
	.st74{fill:url(#SVGID_41_);}
	.st75{opacity:0.2;fill:url(#SVGID_42_);enable-background:new    ;}
	.st76{fill:url(#SVGID_43_);}
	.st77{fill:url(#SVGID_44_);}
	.st78{fill:url(#SVGID_45_);}
	.st79{fill:url(#SVGID_46_);}
	.st80{fill:url(#SVGID_47_);}
	.st81{fill:url(#SVGID_48_);}
	.st82{fill:url(#SVGID_49_);}
	.st83{fill:url(#SVGID_50_);}
	.st84{fill:url(#SVGID_51_);}
	.st85{fill:url(#SVGID_52_);}
</style>
<g id="Layer_1">
	<linearGradient id="SVGID_1_" gradientUnits="userSpaceOnUse" x1="32.369" y1="91.831" x2="318.629" y2="91.831">
		<stop  offset="0" style="stop-color:#E5F7FF"/>
		<stop  offset="0.2704" style="stop-color:#EEF7FF"/>
		<stop  offset="0.4286" style="stop-color:#E4F7FF"/>
		<stop  offset="1" style="stop-color:#EEF7FF"/>
	</linearGradient>
	<rect x="32.4" y="14.2" class="st0" width="286.3" height="155.3"/>
	<path class="st1" d="M26.4,161.2V5.6c0-2.6,3-5.6,7.6-5.6C36.5,0.1,142.3,0,142.3,0l3.7,3.9L36.3,14.2v147L26.4,161.2L26.4,161.2z"
		/>
	<path class="st1" d="M144,17.4c0,0-91,1.3-94.7,6.7c-3,4.3-3.6,146.4-3.6,146.4H34.6V12.4h106.1L144,17.4L144,17.4z"/>
	<polygon class="st2" points="146,8.2 36.3,8.2 36.3,170.1 44,170.1 44,16.9 144,16.9 	"/>
	<line class="st3" x1="44" y1="16.9" x2="41" y2="14.2"/>
	<polygon class="st4" points="41,170.1 44,17.2 145,14.2 37.3,14.2 	"/>
	<path class="st5" d="M141.3,2.2H34c-2.8,0-5,2.2-5,5L29,170h12V14.2h100.3c2.8,0,5-2.2,5-5v-2C146.3,4.4,144.1,2.2,141.3,2.2
		L141.3,2.2z"/>
	
		<linearGradient id="SVGID_2_" gradientUnits="userSpaceOnUse" x1="37.3599" y1="509.749" x2="154.6909" y2="509.749" gradientTransform="matrix(1 0 0 1 -8.3599 -423.67)">
		<stop  offset="0" style="stop-color:#294060"/>
		<stop  offset="0.155" style="stop-color:#294060;stop-opacity:0"/>
		<stop  offset="0.835" style="stop-color:#294060;stop-opacity:0"/>
		<stop  offset="1" style="stop-color:#294060"/>
	</linearGradient>
	<path class="st6" d="M141.3,2.2H34c-2.8,0-5,2.2-5,5L29,170h12V14.2h100.3c2.8,0,5-2.2,5-5v-2C146.3,4.4,144.1,2.2,141.3,2.2
		L141.3,2.2z"/>
	<g>
		<line class="st7" x1="58.3" y1="14.2" x2="58.3" y2="2.2"/>
		<line class="st7" x1="87.7" y1="14.2" x2="87.7" y2="2.2"/>
		<line class="st7" x1="117" y1="14.2" x2="117" y2="2.2"/>
		<line class="st7" x1="29" y1="170.1" x2="41" y2="170.1"/>
		<line class="st7" x1="29" y1="144.1" x2="41" y2="144.1"/>
		<line class="st7" x1="29" y1="118.1" x2="41" y2="118.1"/>
		<line class="st7" x1="29" y1="92.1" x2="41" y2="92.1"/>
		<line class="st7" x1="29" y1="66.1" x2="41" y2="66.1"/>
		<line class="st7" x1="29" y1="40.1" x2="41" y2="40.1"/>
		<line class="st7" x1="29" y1="14.2" x2="41" y2="14.2"/>
	</g>
	
		<linearGradient id="SVGID_3_" gradientUnits="userSpaceOnUse" x1="34.769" y1="580.7493" x2="44.768" y2="580.4993" gradientTransform="matrix(1 0 0 1 -8.3599 -423.67)">
		<stop  offset="0" style="stop-color:#FFFFFF;stop-opacity:0.4"/>
		<stop  offset="1" style="stop-color:#FFFFFF;stop-opacity:0"/>
	</linearGradient>
	<rect x="30.3" y="145.7" class="st8" width="8.5" height="22.2"/>
	
		<linearGradient id="SVGID_4_" gradientUnits="userSpaceOnUse" x1="34.77" y1="554.8098" x2="44.769" y2="554.5598" gradientTransform="matrix(1 0 0 1 -8.3599 -423.67)">
		<stop  offset="0" style="stop-color:#FFFFFF;stop-opacity:0.4"/>
		<stop  offset="1" style="stop-color:#FFFFFF;stop-opacity:0"/>
	</linearGradient>
	<rect x="30.3" y="119.8" class="st9" width="8.5" height="22.3"/>
	
		<linearGradient id="SVGID_5_" gradientUnits="userSpaceOnUse" x1="34.7691" y1="528.8623" x2="44.7691" y2="528.6123" gradientTransform="matrix(1 0 0 1 -8.3599 -423.67)">
		<stop  offset="0" style="stop-color:#FFFFFF;stop-opacity:0.4"/>
		<stop  offset="1" style="stop-color:#FFFFFF;stop-opacity:0"/>
	</linearGradient>
	<rect x="30.3" y="93.9" class="st10" width="8.5" height="22.2"/>
	
		<linearGradient id="SVGID_6_" gradientUnits="userSpaceOnUse" x1="34.771" y1="502.9188" x2="44.769" y2="502.6688" gradientTransform="matrix(1 0 0 1 -8.3599 -423.67)">
		<stop  offset="0" style="stop-color:#FFFFFF;stop-opacity:0.4"/>
		<stop  offset="1" style="stop-color:#FFFFFF;stop-opacity:0"/>
	</linearGradient>
	<rect x="30.3" y="67.9" class="st11" width="8.5" height="22.3"/>
	
		<linearGradient id="SVGID_7_" gradientUnits="userSpaceOnUse" x1="34.7701" y1="476.9758" x2="44.7691" y2="476.7258" gradientTransform="matrix(1 0 0 1 -8.3599 -423.67)">
		<stop  offset="0" style="stop-color:#FFFFFF;stop-opacity:0.4"/>
		<stop  offset="1" style="stop-color:#FFFFFF;stop-opacity:0"/>
	</linearGradient>
	<rect x="30.3" y="42" class="st12" width="8.5" height="22.3"/>
	
		<linearGradient id="SVGID_8_" gradientUnits="userSpaceOnUse" x1="34.77" y1="451.0313" x2="44.769" y2="450.7813" gradientTransform="matrix(1 0 0 1 -8.3599 -423.67)">
		<stop  offset="0" style="stop-color:#FFFFFF;stop-opacity:0.4"/>
		<stop  offset="1" style="stop-color:#FFFFFF;stop-opacity:0"/>
	</linearGradient>
	<rect x="30.3" y="16" class="st13" width="8.5" height="22.2"/>
	
		<linearGradient id="SVGID_9_" gradientUnits="userSpaceOnUse" x1="-1908.7999" y1="4379.7935" x2="-1898.6998" y2="4379.4937" gradientTransform="matrix(0 1 -1 0 4452.1899 1908.7)">
		<stop  offset="0" style="stop-color:#FFFFFF;stop-opacity:0.4"/>
		<stop  offset="1" style="stop-color:#FFFFFF;stop-opacity:0"/>
	</linearGradient>
	<rect x="60.8" y="3.9" class="st14" width="23.6" height="8.5"/>
	
		<linearGradient id="SVGID_10_" gradientUnits="userSpaceOnUse" x1="-1908.6997" y1="4409.1968" x2="-1898.6997" y2="4408.8965" gradientTransform="matrix(0 1 -1 0 4452.1899 1908.7)">
		<stop  offset="0" style="stop-color:#FFFFFF;stop-opacity:0.4"/>
		<stop  offset="1" style="stop-color:#FFFFFF;stop-opacity:0"/>
	</linearGradient>
	<path class="st15" d="M56,12.4H30.5l0.1-4.5c0-2.2,1.8-4,4-4H56V12.4z"/>
	
		<linearGradient id="SVGID_11_" gradientUnits="userSpaceOnUse" x1="-1908.7004" y1="2327.6741" x2="-1898.7004" y2="2327.374" gradientTransform="matrix(0 1 1 0 -2195.3899 1908.7)">
		<stop  offset="0" style="stop-color:#FFFFFF;stop-opacity:0.4"/>
		<stop  offset="1" style="stop-color:#FFFFFF;stop-opacity:0"/>
	</linearGradient>
	<path class="st16" d="M119.3,12.4h25.5l-0.1-4.5c0-2.2-1.8-4-4-4h-21.4L119.3,12.4L119.3,12.4z"/>
	
		<linearGradient id="SVGID_12_" gradientUnits="userSpaceOnUse" x1="-1908.8008" y1="4349.9556" x2="-1898.7007" y2="4349.7554" gradientTransform="matrix(0 1 -1 0 4452.1899 1908.7)">
		<stop  offset="0" style="stop-color:#FFFFFF;stop-opacity:0.4"/>
		<stop  offset="1" style="stop-color:#FFFFFF;stop-opacity:0"/>
	</linearGradient>
	<rect x="90.6" y="3.9" class="st17" width="23.6" height="8.5"/>
	<path class="st1" d="M326.7,161.2V5.6c0-2.6-3-5.6-7.6-5.6C316.6,0.1,210.8,0,210.8,0l-3.7,3.9l109.7,10.2v147L326.7,161.2
		L326.7,161.2z"/>
	<path class="st1" d="M209.1,17.4c0,0,91,1.3,94.7,6.7c3,4.3,3.6,146.4,3.6,146.4h11.1V12.4H212.4L209.1,17.4L209.1,17.4z"/>
	<polygon class="st2" points="207.1,8.2 316.8,8.2 316.8,170.1 309,170.1 309,16.9 209.1,16.9 	"/>
	<line class="st3" x1="309" y1="16.9" x2="312.1" y2="14.2"/>
	<polygon class="st4" points="312.1,170.1 309,17.2 208.1,14.2 315.8,14.2 	"/>
	<path class="st5" d="M211.8,2.2h107.3c2.8,0,5,2.2,5,5l0,162.8h-12V14.2H211.8c-2.8,0-5-2.2-5-5v-2C206.8,4.4,209,2.2,211.8,2.2
		L211.8,2.2z"/>
	
		<linearGradient id="SVGID_13_" gradientUnits="userSpaceOnUse" x1="2170.9099" y1="509.749" x2="2288.241" y2="509.749" gradientTransform="matrix(-1 0 0 1 2495 -423.67)">
		<stop  offset="0" style="stop-color:#294060"/>
		<stop  offset="0.155" style="stop-color:#294060;stop-opacity:0"/>
		<stop  offset="0.835" style="stop-color:#294060;stop-opacity:0"/>
		<stop  offset="1" style="stop-color:#294060"/>
	</linearGradient>
	<path class="st18" d="M211.8,2.2h107.3c2.8,0,5,2.2,5,5l0,162.8h-12V14.2H211.8c-2.8,0-5-2.2-5-5v-2C206.8,4.4,209,2.2,211.8,2.2
		L211.8,2.2z"/>
	<g>
		<line class="st7" x1="294.8" y1="14.2" x2="294.8" y2="2.2"/>
		<line class="st7" x1="265.4" y1="14.2" x2="265.4" y2="2.2"/>
		<line class="st7" x1="236.1" y1="14.2" x2="236.1" y2="2.2"/>
		<line class="st7" x1="324.1" y1="170.1" x2="312.1" y2="170.1"/>
		<line class="st7" x1="324.1" y1="144.1" x2="312.1" y2="144.1"/>
		<line class="st7" x1="324.1" y1="118.1" x2="312.1" y2="118.1"/>
		<line class="st7" x1="324.1" y1="92.1" x2="312.1" y2="92.1"/>
		<line class="st7" x1="324.1" y1="66.1" x2="312.1" y2="66.1"/>
		<line class="st7" x1="324.1" y1="40.1" x2="312.1" y2="40.1"/>
		<line class="st7" x1="324.1" y1="14.2" x2="312.1" y2="14.2"/>
	</g>
	
		<linearGradient id="SVGID_14_" gradientUnits="userSpaceOnUse" x1="2168.3999" y1="580.7473" x2="2178.3999" y2="580.4973" gradientTransform="matrix(-1 0 0 1 2495 -423.67)">
		<stop  offset="0" style="stop-color:#FFFFFF;stop-opacity:0.4"/>
		<stop  offset="1" style="stop-color:#FFFFFF;stop-opacity:0"/>
	</linearGradient>
	<rect x="314.3" y="145.7" class="st19" width="8.5" height="22.2"/>
	
		<linearGradient id="SVGID_15_" gradientUnits="userSpaceOnUse" x1="2168.3999" y1="554.8077" x2="2178.3999" y2="554.5577" gradientTransform="matrix(-1 0 0 1 2495 -423.67)">
		<stop  offset="0" style="stop-color:#FFFFFF;stop-opacity:0.4"/>
		<stop  offset="1" style="stop-color:#FFFFFF;stop-opacity:0"/>
	</linearGradient>
	<rect x="314.3" y="119.8" class="st20" width="8.5" height="22.3"/>
	
		<linearGradient id="SVGID_16_" gradientUnits="userSpaceOnUse" x1="2168.3999" y1="528.8602" x2="2178.3999" y2="528.6102" gradientTransform="matrix(-1 0 0 1 2495 -423.67)">
		<stop  offset="0" style="stop-color:#FFFFFF;stop-opacity:0.4"/>
		<stop  offset="1" style="stop-color:#FFFFFF;stop-opacity:0"/>
	</linearGradient>
	<rect x="314.3" y="93.9" class="st21" width="8.5" height="22.2"/>
	
		<linearGradient id="SVGID_17_" gradientUnits="userSpaceOnUse" x1="2168.3999" y1="502.9167" x2="2178.3999" y2="502.6667" gradientTransform="matrix(-1 0 0 1 2495 -423.67)">
		<stop  offset="0" style="stop-color:#FFFFFF;stop-opacity:0.4"/>
		<stop  offset="1" style="stop-color:#FFFFFF;stop-opacity:0"/>
	</linearGradient>
	<rect x="314.3" y="67.9" class="st22" width="8.5" height="22.3"/>
	
		<linearGradient id="SVGID_18_" gradientUnits="userSpaceOnUse" x1="2168.3997" y1="476.9738" x2="2178.3997" y2="476.7238" gradientTransform="matrix(-1 0 0 1 2495 -423.67)">
		<stop  offset="0" style="stop-color:#FFFFFF;stop-opacity:0.4"/>
		<stop  offset="1" style="stop-color:#FFFFFF;stop-opacity:0"/>
	</linearGradient>
	<rect x="314.3" y="42" class="st23" width="8.5" height="22.3"/>
	
		<linearGradient id="SVGID_19_" gradientUnits="userSpaceOnUse" x1="2168.3999" y1="451.0292" x2="2178.3999" y2="450.7792" gradientTransform="matrix(-1 0 0 1 2495 -423.67)">
		<stop  offset="0" style="stop-color:#FFFFFF;stop-opacity:0.4"/>
		<stop  offset="1" style="stop-color:#FFFFFF;stop-opacity:0"/>
	</linearGradient>
	<rect x="314.3" y="16" class="st24" width="8.5" height="22.2"/>
	
		<linearGradient id="SVGID_20_" gradientUnits="userSpaceOnUse" x1="-1908.8002" y1="2246.1851" x2="-1898.7001" y2="2245.885" gradientTransform="matrix(0 1 1 0 -1965.49 1908.7)">
		<stop  offset="0" style="stop-color:#FFFFFF;stop-opacity:0.4"/>
		<stop  offset="1" style="stop-color:#FFFFFF;stop-opacity:0"/>
	</linearGradient>
	<rect x="268.6" y="3.9" class="st25" width="23.6" height="8.5"/>
	
		<linearGradient id="SVGID_21_" gradientUnits="userSpaceOnUse" x1="-1908.7001" y1="2275.584" x2="-1898.7001" y2="2275.2839" gradientTransform="matrix(0 1 1 0 -1965.49 1908.7)">
		<stop  offset="0" style="stop-color:#FFFFFF;stop-opacity:0.4"/>
		<stop  offset="1" style="stop-color:#FFFFFF;stop-opacity:0"/>
	</linearGradient>
	<path class="st26" d="M297.1,12.4h25.5l-0.1-4.5c0-2.2-1.8-4-4-4h-21.4V12.4z"/>
	
		<linearGradient id="SVGID_22_" gradientUnits="userSpaceOnUse" x1="-1908.7001" y1="4461.2847" x2="-1898.7001" y2="4460.9849" gradientTransform="matrix(0 1 -1 0 4682.0903 1908.7)">
		<stop  offset="0" style="stop-color:#FFFFFF;stop-opacity:0.4"/>
		<stop  offset="1" style="stop-color:#FFFFFF;stop-opacity:0"/>
	</linearGradient>
	<path class="st27" d="M233.8,12.4h-25.5l0.1-4.5c0-2.2,1.8-4,4-4h21.4V12.4z"/>
	
		<linearGradient id="SVGID_23_" gradientUnits="userSpaceOnUse" x1="-1908.801" y1="2216.343" x2="-1898.7009" y2="2216.1431" gradientTransform="matrix(0 1 1 0 -1965.49 1908.7)">
		<stop  offset="0" style="stop-color:#FFFFFF;stop-opacity:0.4"/>
		<stop  offset="1" style="stop-color:#FFFFFF;stop-opacity:0"/>
	</linearGradient>
	<rect x="238.9" y="3.9" class="st28" width="23.6" height="8.5"/>
	<circle class="st1" cx="263.7" cy="63.5" r="23.4"/>
	<circle class="st29" cx="263.4" cy="63.6" r="21.7"/>
	<path class="st30" d="M244.8,63.4l1.3,3.4l-0.4-0.2l17.1-2.5c0.2,0,0.3,0.1,0.4,0.3c0,0.2-0.1,0.3-0.3,0.4l-17.1,2.6l-0.2,0
		l-0.2-0.2l-2.4-2.7c-0.4-0.4-0.3-1.1,0.1-1.4s1.1-0.3,1.4,0.1C244.7,63.2,244.8,63.3,244.8,63.4L244.8,63.4z"/>
	<path class="st30" d="M263.7,44.8l-3.4,1.3l0.2-0.3l2.5,17.1c0,0.2-0.1,0.3-0.3,0.4s-0.3-0.1-0.4-0.3l-2.6-17.1l0-0.2l0.2-0.2
		l2.7-2.4c0.4-0.4,1.1-0.3,1.4,0.1s0.3,1.1-0.1,1.4C263.9,44.7,263.8,44.8,263.7,44.8L263.7,44.8z"/>
	<path class="st30" d="M262.6,84.3l-2.7-2.4l-0.2-0.2l0-0.2l2.6-17.1c0-0.2,0.2-0.3,0.4-0.3c0.2,0,0.3,0.2,0.3,0.4l-2.5,17.1
		l-0.2-0.3l3.4,1.3c0.5,0.2,0.8,0.8,0.6,1.3c-0.2,0.5-0.8,0.8-1.3,0.6C262.8,84.5,262.7,84.4,262.6,84.3L262.6,84.3z"/>
	<path class="st30" d="M283.9,64.4l-2.4,2.7l-0.2,0.2l-0.2,0L264,64.8c-0.2,0-0.3-0.2-0.3-0.4c0-0.2,0.2-0.3,0.4-0.3l17.1,2.5
		l-0.4,0.2l1.3-3.4c0.2-0.5,0.8-0.8,1.3-0.6c0.5,0.2,0.8,0.8,0.6,1.3C284.1,64.2,284,64.3,283.9,64.4L283.9,64.4z"/>
	<line class="st31" x1="263.4" y1="43.9" x2="263.4" y2="83.4"/>
	<line class="st31" x1="283.1" y1="63.7" x2="243.6" y2="63.7"/>
	<circle class="st32" cx="263.4" cy="63.6" r="3.3"/>
	<circle class="st33" cx="263.2" cy="63.5" r="0.9"/>
	<polygon class="st1" points="294.6,125.7 269.3,124.5 269.3,123.5 261.6,123.5 261.6,124.1 240,123 240,137.3 261.6,136.2 
		261.6,136.8 269.3,136.8 269.3,135.8 294.6,134.5 	"/>
	<g>
		<rect x="262.7" y="124.6" class="st34" width="5.4" height="11"/>
		<polygon class="st34" points="265.2,126 263.7,125 267,125 		"/>
		<polygon class="st34" points="265.2,134.3 263.7,135.3 267,135.3 		"/>
	</g>
	<g>
		
			<linearGradient id="SVGID_24_" gradientUnits="userSpaceOnUse" x1="242.4399" y1="553.825" x2="301.9399" y2="553.825" gradientTransform="matrix(1 0 0 1 -8.3599 -423.67)">
			<stop  offset="0" style="stop-color:#C55A2A"/>
			<stop  offset="1" style="stop-color:#BC3F19"/>
		</linearGradient>
		<polygon class="st35" points="293.6,133.3 234.1,135.3 234.1,125 293.6,127 		"/>
		<path class="st36" d="M243.3,126.2c0.8,0,1.5,1.6,1.5,3.5v0.7c0,2-0.7,3.5-1.5,3.5"/>
		<path class="st37" d="M243.3,126.2L243.3,126.2c1.6,0,2.9,1.6,2.9,3.5v0.7c0,2-1.3,3.5-2.9,3.5l0,0"/>
		<path class="st36" d="M286.2,127.3c0.7,0,1.2,1.1,1.2,2.5v0.5c0,1.4-0.6,2.5-1.2,2.5"/>
		<path class="st38" d="M286.2,127.3L286.2,127.3c1.4,0,2.5,1.1,2.5,2.5v0.5c0,1.4-1.1,2.5-2.5,2.5l0,0"/>
		<polygon class="st39" points="236.1,135.2 234.1,135.3 234.1,125 236.1,125.1 		"/>
	</g>
	<circle class="st1" cx="146.3" cy="69.3" r="3.5"/>
	
		<radialGradient id="SVGID_25_" cx="153.46" cy="490.75" r="6.234" gradientTransform="matrix(1 0 0 1 -8.3599 -423.67)" gradientUnits="userSpaceOnUse">
		<stop  offset="2.500000e-02" style="stop-color:#DB0303"/>
		<stop  offset="1" style="stop-color:#770303"/>
	</radialGradient>
	<circle class="st40" cx="145.9" cy="67.7" r="3.5"/>
	<polygon class="st1" points="0,232.5 21.8,161.2 29,161.2 29,163.8 40.8,163.8 44,161.2 308.9,161.2 312,163.5 324,163.5 
		324,161.2 331.3,161.2 354,232.5 334,304.2 129.9,304.2 129.9,394.2 41.4,394.2 41.4,304.5 20.3,304.5 	"/>
	<rect x="47.8" y="283.9" class="st41" width="76.5" height="105"/>
	<rect x="59.3" y="296.6" class="st42" width="53.6" height="80.5"/>
	<line class="st43" x1="112.9" y1="377.2" x2="124.3" y2="388.9"/>
	<line class="st43" x1="47.8" y1="388.9" x2="59.3" y2="377.2"/>
	<line class="st43" x1="112.9" y1="296.6" x2="124.3" y2="283.9"/>
	<line class="st43" x1="59.3" y1="296.6" x2="47.8" y2="283.9"/>
	<polygon class="st41" points="326.8,297.5 26.3,297.5 16.3,232.5 26.3,167.5 326.8,167.5 336.8,232.5 	"/>
	<g>
		<line class="st44" x1="335.9" y1="226.1" x2="326.8" y2="167.5"/>
		<line class="st44" x1="320.7" y1="226.1" x2="312.5" y2="167.5"/>
		<line class="st44" x1="305.5" y1="226.1" x2="298.2" y2="167.5"/>
		<line class="st44" x1="290.4" y1="226.1" x2="283.9" y2="167.5"/>
		<line class="st44" x1="275.2" y1="226.1" x2="269.6" y2="167.5"/>
		<line class="st44" x1="260" y1="226.1" x2="255.3" y2="167.5"/>
		<line class="st44" x1="244.9" y1="226.1" x2="241" y2="167.5"/>
		<line class="st44" x1="229.7" y1="226.1" x2="226.6" y2="167.5"/>
		<line class="st44" x1="214.5" y1="226.1" x2="212.4" y2="167.5"/>
		<line class="st44" x1="199.3" y1="226.1" x2="198" y2="167.5"/>
		<line class="st44" x1="184.2" y1="226.1" x2="183.7" y2="167.5"/>
		<line class="st44" x1="169" y1="226.1" x2="169.4" y2="167.5"/>
		<line class="st44" x1="153.8" y1="226.1" x2="155.1" y2="167.5"/>
		<line class="st44" x1="138.7" y1="226.1" x2="140.8" y2="167.5"/>
		<line class="st44" x1="123.5" y1="226.1" x2="126.5" y2="167.5"/>
		<line class="st44" x1="108.3" y1="226.1" x2="112.2" y2="167.5"/>
		<line class="st44" x1="93.1" y1="226.1" x2="97.9" y2="167.5"/>
		<line class="st44" x1="78" y1="226.1" x2="83.6" y2="167.5"/>
		<line class="st44" x1="62.8" y1="226.1" x2="69.3" y2="167.5"/>
		<line class="st44" x1="47.6" y1="226.1" x2="55" y2="167.5"/>
		<line class="st44" x1="32.5" y1="226.1" x2="40.7" y2="167.5"/>
		<line class="st44" x1="17.3" y1="226.1" x2="26.4" y2="167.5"/>
	</g>
	<g>
		<line class="st44" x1="335.9" y1="238.9" x2="326.8" y2="297.5"/>
		<line class="st44" x1="320.7" y1="238.9" x2="312.5" y2="297.5"/>
		<line class="st44" x1="305.5" y1="238.9" x2="298.2" y2="297.5"/>
		<line class="st44" x1="290.4" y1="238.9" x2="283.9" y2="297.5"/>
		<line class="st44" x1="275.2" y1="238.9" x2="269.6" y2="297.5"/>
		<line class="st44" x1="260" y1="238.9" x2="255.3" y2="297.5"/>
		<line class="st44" x1="244.9" y1="238.9" x2="241" y2="297.5"/>
		<line class="st44" x1="229.7" y1="238.9" x2="226.6" y2="297.5"/>
		<line class="st44" x1="214.5" y1="238.9" x2="212.4" y2="297.5"/>
		<line class="st44" x1="199.3" y1="238.9" x2="198" y2="297.5"/>
		<line class="st44" x1="184.2" y1="238.9" x2="183.7" y2="297.5"/>
		<line class="st44" x1="169" y1="238.9" x2="169.4" y2="297.5"/>
		<line class="st44" x1="153.8" y1="238.9" x2="155.1" y2="297.5"/>
		<line class="st44" x1="138.7" y1="238.9" x2="140.8" y2="297.5"/>
		<line class="st44" x1="123.5" y1="238.9" x2="126.5" y2="297.5"/>
		<line class="st44" x1="108.3" y1="238.9" x2="112.2" y2="297.5"/>
		<line class="st44" x1="93.1" y1="238.9" x2="97.9" y2="297.5"/>
		<line class="st44" x1="78" y1="238.9" x2="83.6" y2="297.5"/>
		<line class="st44" x1="62.8" y1="238.9" x2="69.3" y2="297.5"/>
		<line class="st44" x1="47.6" y1="238.9" x2="55" y2="297.5"/>
		<line class="st44" x1="32.5" y1="238.9" x2="40.7" y2="297.5"/>
		<line class="st44" x1="17.3" y1="238.9" x2="26.4" y2="297.5"/>
	</g>
	<g class="st45">
		<polygon class="st46" points="16.9,224.5 15.8,232.5 16.9,240.6 136.1,240.6 135,232.5 136.1,224.5 		"/>
		<polygon class="st46" points="336.3,224.5 217.1,224.5 218.2,232.5 217.1,240.6 336.3,240.6 337.3,232.5 		"/>
	</g>
	<g>
		<polygon class="st47" points="46.8,238.9 17.3,238.9 16.3,232.5 17.3,226.1 46.8,226.1 45.8,232.5 		"/>
		<polygon class="st47" points="76.4,238.9 46.8,238.9 45.8,232.5 46.8,226.1 76.4,226.1 75.3,232.5 		"/>
		<polygon class="st47" points="105.9,238.9 76.3,238.9 75.3,232.5 76.3,226.1 105.9,226.1 104.8,232.5 		"/>
		<polygon class="st47" points="135.5,238.9 106,238.9 105,232.5 106,226.1 135.5,226.1 134.5,232.5 		"/>
	</g>
	<g>
		<polygon class="st47" points="306.3,238.9 335.9,238.9 336.8,232.5 335.9,226.1 306.3,226.1 307.3,232.5 		"/>
		<polygon class="st47" points="276.8,238.9 306.3,238.9 307.3,232.5 306.3,226.1 276.8,226.1 277.8,232.5 		"/>
		<polygon class="st47" points="247.3,238.9 276.8,238.9 277.8,232.5 276.8,226.1 247.3,226.1 248.3,232.5 		"/>
		<polygon class="st47" points="217.7,238.9 247.2,238.9 248.2,232.5 247.2,226.1 217.7,226.1 218.7,232.5 		"/>
	</g>
	<polygon class="st48" points="16.3,232.5 337,232.5 336,238.2 17.3,238.2 	"/>
	<polygon class="st49" points="326.8,297.5 30.9,291.8 16.3,232.5 26.3,167.5 326.8,167.5 336.8,232.5 	"/>
	<linearGradient id="SVGID_26_" gradientUnits="userSpaceOnUse" x1="127.46" y1="232.5005" x2="226.359" y2="232.5005">
		<stop  offset="0" style="stop-color:#E5F7FF"/>
		<stop  offset="0.2704" style="stop-color:#EEF7FF"/>
		<stop  offset="0.4286" style="stop-color:#E4F7FF"/>
		<stop  offset="1" style="stop-color:#EEF7FF"/>
	</linearGradient>
	<rect x="127.5" y="183" class="st50" width="98.9" height="98.9"/>
	<g>
		<rect x="128" y="183.5" class="st51" width="97.9" height="97.9"/>
		<rect x="132.9" y="188.4" class="st51" width="88.1" height="88.1"/>
		<rect x="137.8" y="193.3" class="st51" width="78.3" height="78.3"/>
		<rect x="142.6" y="198.2" class="st51" width="68.5" height="68.5"/>
		<rect x="147.5" y="203.1" class="st51" width="58.7" height="58.7"/>
		<rect x="152.4" y="208" class="st51" width="49" height="49"/>
		<rect x="157.3" y="212.9" class="st51" width="39.2" height="39.2"/>
		<rect x="162.2" y="217.8" class="st51" width="29.4" height="29.4"/>
	</g>
	<g>
		<rect x="127.5" y="183" class="st52" width="98.9" height="98.9"/>
		<rect x="132.4" y="188" class="st52" width="89" height="89"/>
		<rect x="137.4" y="192.9" class="st52" width="79.1" height="79.1"/>
		<rect x="142.3" y="197.9" class="st52" width="69.2" height="69.2"/>
		<rect x="147.2" y="202.8" class="st52" width="59.3" height="59.3"/>
		<rect x="152.2" y="207.8" class="st52" width="49.4" height="49.4"/>
		<rect x="157.1" y="212.7" class="st52" width="39.6" height="39.6"/>
		<rect x="162.1" y="217.7" class="st52" width="29.7" height="29.7"/>
	</g>
	<path class="st53" d="M127.1,281.6c0,0,6.1-6.2,15.3-15.6c4.6-4.7,10-10.1,15.7-15.9c5.8-5.8,12-12,18.1-18.2
		c6.2-6.2,12.4-12.3,18.2-18.1c5.8-5.8,11.3-11.1,15.9-15.8c9.4-9.2,15.6-15.3,15.6-15.3l0.7,0.7c0,0-6.1,6.2-15.3,15.6
		c-4.6,4.7-10,10.1-15.7,15.9c-5.8,5.8-12,12-18.1,18.2c-6.2,6.2-12.4,12.3-18.2,18.1c-5.8,5.8-11.3,11.1-15.9,15.8
		c-9.4,9.2-15.6,15.3-15.6,15.3L127.1,281.6L127.1,281.6z"/>
	<path class="st53" d="M127.8,182.7c0,0,6.2,6.1,15.6,15.3c4.7,4.6,10.1,10,15.9,15.8c5.8,5.8,12,12,18.2,18.1
		c6.2,6.2,12.3,12.4,18.1,18.2c5.8,5.8,11.1,11.3,15.8,15.9c9.2,9.4,15.3,15.6,15.3,15.6l-0.7,0.7c0,0-6.2-6.1-15.6-15.3
		c-4.7-4.6-10.1-10-15.9-15.8c-5.8-5.8-12-12-18.2-18.1c-6.2-6.2-12.3-12.4-18.1-18.2c-5.8-5.8-11.1-11.3-15.8-15.9
		c-9.2-9.4-15.3-15.6-15.3-15.6L127.8,182.7L127.8,182.7z"/>
	<g class="st54">
		
			<linearGradient id="SVGID_27_" gradientUnits="userSpaceOnUse" x1="17.86" y1="680.89" x2="114.18" y2="680.89" gradientTransform="matrix(1 0 0 1 -8.3599 -423.67)">
			<stop  offset="0" style="stop-color:#0F3044"/>
			<stop  offset="0.3" style="stop-color:#0F3044;stop-opacity:0"/>
			<stop  offset="0.7" style="stop-color:#0F3044;stop-opacity:0"/>
			<stop  offset="1" style="stop-color:#0F3044"/>
		</linearGradient>
		<polygon class="st55" points="9.2,208.1 9.2,306.3 58.3,257.2 		"/>
		
			<linearGradient id="SVGID_28_" gradientUnits="userSpaceOnUse" x1="17.86" y1="680.89" x2="114.17" y2="680.89" gradientTransform="matrix(1 0 0 1 -8.3599 -423.67)">
			<stop  offset="0" style="stop-color:#0F3044"/>
			<stop  offset="0.3" style="stop-color:#0F3044;stop-opacity:0"/>
			<stop  offset="0.7" style="stop-color:#0F3044;stop-opacity:0"/>
			<stop  offset="1" style="stop-color:#0F3044"/>
		</linearGradient>
		<polygon class="st56" points="107.4,208.1 107.4,306.3 58.3,257.2 		"/>
		
			<linearGradient id="SVGID_29_" gradientUnits="userSpaceOnUse" x1="4032.4802" y1="2464.1201" x2="4128.7798" y2="2464.1201" gradientTransform="matrix(0 -1 1 0 -2405.79 4338.5)">
			<stop  offset="0" style="stop-color:#14182B"/>
			<stop  offset="0.3" style="stop-color:#14182B;stop-opacity:0"/>
			<stop  offset="0.7" style="stop-color:#14182B;stop-opacity:0"/>
			<stop  offset="1" style="stop-color:#14182B"/>
		</linearGradient>
		<polygon class="st57" points="9.2,306.3 107.4,306.3 58.3,257.2 		"/>
		
			<linearGradient id="SVGID_30_" gradientUnits="userSpaceOnUse" x1="4032.4802" y1="2464.1201" x2="4128.7798" y2="2464.1201" gradientTransform="matrix(0 -1 1 0 -2405.79 4338.5)">
			<stop  offset="0" style="stop-color:#14182B"/>
			<stop  offset="0.3" style="stop-color:#14182B;stop-opacity:0"/>
			<stop  offset="0.7" style="stop-color:#14182B;stop-opacity:0"/>
			<stop  offset="1" style="stop-color:#14182B"/>
		</linearGradient>
		<polygon class="st58" points="9.2,208.1 107.4,208.1 58.3,257.2 		"/>
	</g>
	<rect x="165.4" y="221" class="st59" width="23" height="23"/>
	<polygon class="st42" points="188.4,244 165.4,244 176.9,232.5 	"/>
	<linearGradient id="SVGID_31_" gradientUnits="userSpaceOnUse" x1="165.41" y1="226.75" x2="188.41" y2="226.75">
		<stop  offset="0" style="stop-color:#E5F7FF"/>
		<stop  offset="0.2704" style="stop-color:#EEF7FF"/>
		<stop  offset="0.4286" style="stop-color:#E4F7FF"/>
		<stop  offset="1" style="stop-color:#EEF7FF"/>
	</linearGradient>
	<polygon class="st60" points="188.4,221 165.4,221 176.9,232.5 	"/>
	<polygon class="st59" points="165.4,221 165.4,244 176.9,232.5 	"/>
	<polygon class="st61" points="188.5,221 188.5,244 177,232.5 	"/>
	<rect x="165.4" y="221" class="st43" width="23" height="23"/>
	<linearGradient id="SVGID_32_" gradientUnits="userSpaceOnUse" x1="63.299" y1="342.167" x2="108.332" y2="342.167">
		<stop  offset="0" style="stop-color:#E5F7FF"/>
		<stop  offset="0.2704" style="stop-color:#EEF7FF"/>
		<stop  offset="0.4286" style="stop-color:#E4F7FF"/>
		<stop  offset="1" style="stop-color:#EEF7FF"/>
	</linearGradient>
	<rect x="63.3" y="312.5" class="st62" width="45" height="59.3"/>
	<path class="st42" d="M123.2,380.4c0.8-1.6,0.8-3.6-0.1-5.1c1.3-2.3,0.7-5.6-1.7-7c1.5-1.5,1.8-4,0.9-5.9c0.6-1.3,0.7-2.9,0.2-4.2
		c2.9-1.6,3.1-6.1,0.7-8.1c1.4-1.9,1.3-4.8-0.3-6.5c2.4-2.2,2.1-6.7-1-8.2c2.7-1.3,3.3-5.1,1.7-7.4c1.3-1.9,1.2-4.8-0.5-6.5
		c0.2-1.3-0.1-2.6-0.9-3.7c2.2-1.4,2.8-4.5,1.6-6.7c0.7-1.3,0.8-3,0.2-4.4c1.7-2.9,0.3-7.6-4.1-7.6c-4.1,0-5.6,4-4.5,6.9
		c-0.9,1.5-0.9,3.6-0.1,5.1c-0.9,1.7-0.8,3.9,0.3,5.5c-2.6,1.6-2.9,5.7-0.9,7.8c-0.2,1.3,0.1,2.6,0.8,3.7c-1.6,2.3-1,6.1,1.7,7.4
		c-2.9,1.4-3.4,5.6-1.3,7.9c-2.1,1.9-2.1,5.7,0,7.6c-1,1.4-1.2,3.4-0.6,5c-2.3,1.3-2.9,4.4-1.8,6.6c-1.1,2.3-0.4,5.3,1.9,6.6
		c-1.6,1.6-1.8,4.3-0.7,6.2c-0.8,1.5-0.9,3.5-0.1,5c-0.6-0.3-1.3-0.4-2-0.4c-0.7,0-1.3,0.1-1.8,0.3c-0.5-0.2-1.1-0.3-1.8-0.3
		c-1.9,0-3.2,0.8-4,2c-0.8-1-2-1.7-3.7-1.7c-1.4,0-2.4,0.4-3.2,1.1c-0.6,0.1-1.1,0.4-1.6,0.7c-0.6-0.7-1.4-1.2-2.5-1.4
		c-0.7-0.5-1.6-0.8-2.7-0.8c-0.8,0-1.5,0.2-2.2,0.5c-0.6-0.3-1.3-0.5-2.2-0.5c-1.7,0-2.9,0.7-3.7,1.6c-0.8,0-1.6,0.2-2.2,0.5
		c-0.2-0.3-0.4-0.5-0.6-0.7c-0.6-1.7-2.1-3.1-4.5-3.1c-2.4,0-4,1.4-4.5,3.2c-0.6,0.2-1,0.4-1.5,0.7c-0.8-0.6-1.8-1-3-1
		c-0.8,0-1.5,0.2-2.2,0.4c-0.8-0.7-1.8-1.1-3.2-1.1c-0.5,0-0.9,0.1-1.3,0.2c-0.4-0.1-0.9-0.2-1.3-0.2c-0.3,0-0.7,0-1,0.1
		c-0.7-0.4-1.5-0.7-2.5-0.7c0-0.6,0-1.2-0.2-1.8c0.6-2-0.1-4.4-1.9-5.6c3.7-1,4.4-5.8,2.1-8.2c0.3-0.8,0.4-1.7,0.2-2.5
		c1.2-1.6,1.4-3.9,0.4-5.7c1-1.1,1.5-2.6,1.1-4.4c-0.6-2.9,2-6.9,0.1-9.5c-0.1-0.2-0.1-0.4-0.2-0.6c0.5-0.8,0.9-1.6,1.1-2.5
		c0.6-2.4-0.5-4.8-0.1-7.1c0.4-2.4,1-4.1-0.5-6.4c0.2-0.5,0.4-0.9,0.5-1.1c0.2-0.5,0.6-3.4,0.4-5.3c0.1-0.1,0.3-0.3,0.4-0.5
		c0.7-0.8,1.2-1.7,1.4-2.8c0.2-1.1,0-2.3-0.4-3.3c-0.1-0.1-0.1-0.3-0.2-0.6c0.2-0.6,0.3-1.3,0.3-2c0-0.8-1-2.7-1.3-3.7
		c2.1-4.1-2.2-9.9-6.6-6.7c-1.6,1.1-2.6,2.1-3.2,3.9c-0.7,2.4,0.4,3.6,0.5,5.8c0.1,1.2-0.5,2.7-0.2,4.3c0,0.3,0.1,0.5,0.2,0.8
		c-1.3,1.8-1.6,3.6-0.9,6.7c-0.3,0.3-0.6,0.6-0.8,1c-0.4,0.6-0.8,1.3-0.9,2c-0.5,2,0.1,4.2,1.4,5.8c0,0,0,0,0,0
		c-0.2,0.7-0.3,1.4-0.3,1.5c-0.2,1.1-0.1,2,0.1,3.1c0,0.2,0.3,1.6,0.5,2.1c-0.3,0.3-0.9,1.2-1.1,1.5c-0.5,0.8-0.8,1.9-0.9,2.8
		c-0.2,1.8,0.5,3.2,1.3,4.6c-0.6,3-0.8,5.7-0.1,9c0.1,0.4,0.2,0.8,0.4,1.2c-0.8,1.1-1.1,2.5-0.9,3.8c-1.5,1.9-1.4,4.9,0.2,6.7
		c-0.7,2.1-0.1,4.7,1.8,5.9c-2.8,0.8-3.9,3.8-3.2,6.2c-0.8,2.8,0.7,6.3,4.5,6.4c-0.2,2.6,1.4,5.3,4.8,5.3c0.3,0,0.7,0,1-0.1
		c0.7,0.5,1.6,0.7,2.7,0.7c0.5,0,0.9-0.1,1.3-0.2c0.4,0.1,0.9,0.2,1.3,0.2c0.8,0,1.5-0.2,2.2-0.4c0.8,0.7,1.8,1.1,3.2,1.1
		c1.2,0,2.2-0.4,3-1c0.8,0.6,1.8,1,3,1c1.3,0,2.4-0.4,3.2-1.1c0.4,0.1,0.8,0.1,1.2,0.1c0.8,0,1.6-0.2,2.2-0.5
		c0.8,1.1,2.1,1.8,3.8,1.8c1.7,0,2.9-0.7,3.7-1.6c0.8,0,1.5-0.2,2.1-0.5c0.3,0.2,0.7,0.3,1.1,0.4c0.7,0.5,1.6,0.8,2.7,0.8
		c1.1,0,2.1-0.3,2.8-0.8c0.8,0.9,2,1.5,3.5,1.5c1.3,0,2.4-0.4,3.2-1.1c1.2-0.3,2.2-1,2.8-1.9c0.8,1,2,1.7,3.7,1.7
		c0.7,0,1.3-0.1,1.8-0.3c0.5,0.2,1.1,0.3,1.8,0.3c0.9,0,1.7-0.2,2.4-0.6c0.8,0.6,1.7,0.9,2.9,0.9c1,0,1.9-0.3,2.6-0.7
		C125.6,389.2,126.5,382.7,123.2,380.4z"/>
	<linearGradient id="SVGID_33_" gradientUnits="userSpaceOnUse" x1="48.4397" y1="344.7928" x2="122.5607" y2="344.7928">
		<stop  offset="0" style="stop-color:#E5F7FF"/>
		<stop  offset="0.2704" style="stop-color:#EEF7FF"/>
		<stop  offset="0.4286" style="stop-color:#E4F7FF"/>
		<stop  offset="1" style="stop-color:#EEF7FF"/>
	</linearGradient>
	<path class="st63" d="M120.7,377.8c0.8-1.5,0.8-3.3-0.1-4.8c1.2-2.1,0.7-5.2-1.6-6.5c1.4-1.4,1.6-3.7,0.8-5.5
		c0.6-1.2,0.6-2.7,0.1-3.9c2.7-1.5,2.9-5.6,0.7-7.6c1.3-1.8,1.2-4.5-0.3-6.1c2.3-2,2-6.3-0.9-7.7c2.5-1.2,3.1-4.7,1.6-6.9
		c1.2-1.8,1.1-4.5-0.5-6.1c0.2-1.2-0.1-2.5-0.8-3.4c2.1-1.3,2.6-4.2,1.5-6.3c0.6-1.2,0.7-2.8,0.2-4.1c1.6-2.7,0.3-7.1-3.9-7.1
		c-3.8,0-5.2,3.7-4.2,6.4c-0.8,1.4-0.9,3.3-0.1,4.8c-0.8,1.6-0.7,3.6,0.3,5.1c-2.5,1.5-2.7,5.3-0.8,7.3c-0.1,1.2,0.1,2.4,0.8,3.4
		c-1.5,2.2-1,5.6,1.6,6.9c-2.7,1.3-3.1,5.3-1.2,7.4c-2,1.8-2,5.3,0,7.1c-1,1.3-1.2,3.2-0.6,4.7c-2.1,1.2-2.7,4.1-1.7,6.2
		c-1,2.1-0.4,5,1.7,6.2c-1.5,1.5-1.7,4-0.7,5.8c-0.8,1.4-0.8,3.2-0.1,4.7c-0.6-0.2-1.2-0.4-1.9-0.4c-0.6,0-1.2,0.1-1.7,0.3
		c-0.5-0.2-1.1-0.3-1.7-0.3c-1.7,0-3,0.8-3.7,1.9c-0.8-0.9-1.9-1.6-3.5-1.6c-1.3,0-2.3,0.4-3,1.1c-0.6,0.1-1.1,0.3-1.5,0.6
		c-0.6-0.6-1.3-1.1-2.3-1.3c-0.7-0.4-1.5-0.7-2.5-0.7c-0.8,0-1.4,0.2-2,0.4c-0.6-0.3-1.2-0.4-2-0.4c-1.6,0-2.7,0.6-3.5,1.5
		c-0.8,0-1.4,0.2-2,0.4c-0.2-0.2-0.4-0.5-0.6-0.7c-0.6-1.6-2-2.9-4.2-2.9c-2.3,0-3.7,1.3-4.2,3c-0.5,0.2-1,0.4-1.4,0.7
		c-0.7-0.5-1.6-0.9-2.8-0.9c-0.8,0-1.4,0.2-2,0.4c-0.7-0.6-1.7-1-3-1c-0.5,0-0.9,0.1-1.2,0.2c-0.4-0.1-0.8-0.2-1.2-0.2
		c-0.3,0-0.6,0-0.9,0.1c-0.6-0.4-1.4-0.7-2.4-0.7c0-0.6,0-1.2-0.2-1.7c0.5-1.9-0.1-4.1-1.7-5.2c3.4-0.9,4.1-5.4,2-7.7
		c0.3-0.8,0.3-1.6,0.2-2.4c1.1-1.5,1.3-3.7,0.4-5.3c0.9-1,1.4-2.4,1.1-4.1c-0.6-2.7,1.8-6.4,0.1-8.9c0-0.2-0.1-0.4-0.1-0.6
		c0.5-0.7,0.9-1.5,1.1-2.4c0.5-2.3-0.4-4.5-0.1-6.6c0.3-2.3,1-3.8-0.5-6c0.2-0.4,0.4-0.8,0.5-1c0.2-0.4,0.5-3.2,0.4-4.9
		c0.1-0.1,0.3-0.3,0.4-0.5c0.7-0.8,1.1-1.6,1.3-2.6c0.1-1,0-2.1-0.4-3.1c-0.1-0.1-0.1-0.3-0.2-0.5c0.2-0.6,0.3-1.2,0.3-1.9
		c0-0.8-0.9-2.5-1.2-3.5c2-3.8-2-9.2-6.2-6.2c-1.5,1-2.5,1.9-3,3.7c-0.7,2.2,0.4,3.3,0.5,5.4c0.1,1.1-0.5,2.5-0.2,4
		c0,0.2,0.1,0.5,0.2,0.7c-1.2,1.6-1.5,3.4-0.9,6.2c-0.3,0.3-0.5,0.6-0.7,0.9c-0.3,0.5-0.7,1.2-0.9,1.8c-0.5,1.9,0.1,3.9,1.3,5.4
		c0,0,0,0,0,0c-0.2,0.6-0.3,1.3-0.3,1.4c-0.2,1-0.1,1.9,0.1,2.9c0,0.2,0.3,1.5,0.5,2c-0.3,0.3-0.8,1.2-1,1.4
		c-0.4,0.8-0.8,1.7-0.9,2.6c-0.2,1.7,0.5,2.9,1.2,4.3c-0.6,2.8-0.8,5.3-0.1,8.4c0.1,0.4,0.2,0.8,0.4,1.1c-0.7,1-1,2.3-0.8,3.6
		c-1.4,1.8-1.3,4.6,0.2,6.2c-0.7,1.9-0.1,4.3,1.7,5.5c-2.6,0.7-3.6,3.5-3,5.8c-0.7,2.6,0.7,5.9,4.2,6c-0.1,2.4,1.4,4.9,4.5,4.9
		c0.3,0,0.6,0,0.9-0.1c0.7,0.4,1.5,0.7,2.5,0.7c0.5,0,0.9-0.1,1.2-0.2c0.4,0.1,0.8,0.2,1.2,0.2c0.8,0,1.4-0.2,2-0.4
		c0.7,0.6,1.7,1,3,1c1.2,0,2.1-0.3,2.8-0.9c0.7,0.5,1.6,0.9,2.8,0.9c1.2,0,2.2-0.4,3-1c0.3,0.1,0.7,0.1,1.1,0.1c0.8,0,1.5-0.2,2-0.4
		c0.7,1,1.9,1.7,3.6,1.7c1.6,0,2.7-0.6,3.5-1.5c0.8,0,1.4-0.2,2-0.4c0.3,0.1,0.7,0.3,1,0.3c0.7,0.4,1.5,0.7,2.5,0.7
		c1.1,0,1.9-0.3,2.6-0.7c0.8,0.8,1.9,1.4,3.3,1.4c1.3,0,2.2-0.4,3-1c1.2-0.3,2-0.9,2.6-1.7c0.8,0.9,1.9,1.5,3.5,1.5
		c0.6,0,1.2-0.1,1.7-0.3c0.5,0.2,1.1,0.3,1.7,0.3c0.9,0,1.6-0.2,2.2-0.5c0.7,0.5,1.6,0.8,2.7,0.8c1,0,1.8-0.2,2.4-0.6
		C123,386,123.8,380,120.7,377.8z"/>
	<polygon class="st64" points="125.8,298.4 46.3,298.4 46.3,312.5 59.3,310.5 112.9,310.5 125.8,312 	"/>
	<linearGradient id="SVGID_34_" gradientUnits="userSpaceOnUse" x1="20.7485" y1="200.5657" x2="330.2495" y2="200.5657">
		<stop  offset="0" style="stop-color:#E5F7FF"/>
		<stop  offset="0.2704" style="stop-color:#EEF7FF"/>
		<stop  offset="0.4286" style="stop-color:#E4F7FF"/>
		<stop  offset="1" style="stop-color:#EEF7FF"/>
	</linearGradient>
	<polygon class="st65" points="31.3,172.2 20.7,226.1 119.1,226.1 121.5,182.7 224.9,183 228.4,231.9 330.2,230 325.6,169.3 	"/>
	
		<linearGradient id="SVGID_35_" gradientUnits="userSpaceOnUse" x1="22.431" y1="240.1591" x2="326.5551" y2="240.1591" gradientTransform="matrix(-1 0 0 -1 350.998 504.168)">
		<stop  offset="0" style="stop-color:#E5F7FF"/>
		<stop  offset="0.2704" style="stop-color:#EEF7FF"/>
		<stop  offset="0.4286" style="stop-color:#E4F7FF"/>
		<stop  offset="1" style="stop-color:#EEF7FF"/>
	</linearGradient>
	<polygon class="st66" points="318,293.8 328.6,239.9 230.2,239.9 227.8,283.3 124.4,283 120.9,234.2 24.4,237.3 34.2,293.4 	"/>
	<polygon class="st67" points="123.8,223.7 122.4,230.1 124.4,236.5 137.8,295.1 212.8,295.1 229.1,236.5 230.6,230.1 228.9,223.7 
		212.9,165.1 136.8,165.1 	"/>
	<g>
		<g>
			<path class="st42" d="M326.1,170.8c-0.5-1.9-2.1-3.4-4.6-3.4c-0.9,0-1.7,0.2-2.3,0.5c-0.2,0-0.4,0-0.7,0c-1,0-1.8,0.2-2.5,0.6
				c-0.3-0.1-0.7-0.1-1-0.1c-2.3,0-3.7,1.3-4.4,2.9c-0.6-1.9-2.1-3.4-4.6-3.4c-0.5,0-0.9,0.1-1.3,0.2c-0.8-0.7-1.9-1.2-3.2-1.2
				c-2.4,0-3.9,1.4-4.5,3.1c-0.8-1.2-2.1-2.1-4-2.1c-0.9,0-1.6,0.2-2.2,0.5c-1.2-0.4-2.5-0.6-3.8-0.5c-0.1,0-0.3,0-0.4,0
				c-0.8-0.6-1.8-1.1-3.1-1.1c-1.6,0-2.8,0.6-3.6,1.5c-0.1,0-0.3,0-0.4,0c-1.6,0-2.8,0.6-3.6,1.6c-0.7-0.4-1.4-0.6-2.4-0.6
				c-0.8,0-1.5,0.2-2.1,0.4c-0.8-1.1-2.1-1.9-3.9-1.9c-1.5,0-2.7,0.6-3.5,1.4c-0.8-0.9-2-1.4-3.5-1.4c-1.3,0-2.3,0.4-3.1,1
				c-2-1.2-4.2-1.7-6.4-1.2c-1.9-0.9-3.9-0.9-5.9-0.4c-0.7-0.4-1.4-0.6-2.1-0.7c-2.7-0.4-5.2,1.5-7.4,3.1c-0.5-0.2-1.1-0.3-1.7-0.3
				c-1.6,0-2.7,0.6-3.6,1.5c-0.8-1.2-2.1-2-3.9-2c-1.9,0-3.2,0.9-4,2.1c-0.8-1.2-2.1-2.1-4-2.1c-0.5,0-1,0.1-1.5,0.2
				c-0.5-0.1-1-0.2-1.5-0.2c-1.9,0-3.2,0.8-4,2c-0.8-0.6-1.8-1-3-1c-0.8,0-1.4,0.1-2,0.4c-0.8-0.8-2-1.4-3.5-1.4
				c-0.8,0-1.4,0.1-2,0.4c-0.8-0.8-2-1.4-3.5-1.4c-1.3,0-2.3,0.4-3,1c-1.4,0-2.5,0.5-3.2,1.2c-0.8-1-2-1.7-3.7-1.7
				c-1.9,0-3.2,0.9-4,2.1c-0.7-0.4-1.5-0.6-2.5-0.6c-1.6,0-2.7,0.6-3.5,1.5c-0.6-1.7-2.1-3-4.5-3c-1.6,0-2.8,0.6-3.6,1.5
				c-0.7,0-1.4,0.1-2,0.4c-0.6-0.2-1.2-0.4-2-0.4c-0.3,0-0.6,0-0.9,0.1c-0.8-0.9-2-1.6-3.6-1.6c-1.3,0-2.3,0.4-3,1
				c-2,0-3.3,1-4.1,2.3c-0.7-1.6-2.1-2.8-4.4-2.8c-0.5,0-0.9,0.1-1.3,0.2c-0.8-1-2-1.7-3.7-1.7c-1,0-1.8,0.2-2.5,0.6
				c-0.7-0.4-1.5-0.6-2.5-0.6c-1.3,0-2.3,0.4-3,1h-4c-0.8,0-1.5,0.2-2.2,0.5c-0.6-0.3-1.4-0.5-2.3-0.5c-0.9,0-1.7,0.2-2.3,0.5
				c-0.2,0-0.4,0-0.7,0c-1.5,0-2.7,0.6-3.5,1.4c-0.8-0.9-2-1.4-3.5-1.4c-2.8,0-4.4,1.9-4.7,4c-0.4-2.1-1.9-4-4.8-4
				c-0.6,0-1.1,0.1-1.5,0.2c-0.5-0.1-0.9-0.2-1.5-0.2c-1.7,0-2.9,0.7-3.7,1.7c-0.1,0.1-0.2,0.1-0.3,0.2c-0.6-0.3-1.3-0.4-2-0.4
				c-0.3,0-0.5,0-0.7,0.1c-0.7-1.5-2.1-2.6-4.3-2.6c-1.9,0-3.2,0.8-4,2c-0.8-0.6-1.8-1-3-1c-1.6,0-2.9,0.7-3.7,1.6
				c-1.1,0.2-2,0.8-2.6,1.6c-0.8-1-2-1.7-3.8-1.7c-0.8,0-1.4,0.1-2,0.4c-0.6-0.2-1.2-0.4-2-0.4c-0.8,0-1.4,0.1-2,0.4
				c-0.8-0.8-2-1.4-3.5-1.4c-0.2,0-0.3,0-0.4,0c-0.8-0.6-1.8-1-3.1-1c-1.3,0-2.3,0.4-3.1,1.1c-0.7-0.4-1.5-0.6-2.4-0.6
				c-0.4,0-0.7,0-1,0.1c-0.3-0.1-0.6-0.1-1-0.1c-0.5,0-0.9,0.1-1.3,0.2c-0.8-1-2-1.7-3.7-1.7c-1.9,0-3.3,0.9-4.1,2.2
				c-1,0-2,0.1-3,0.1c-0.3,0-0.7,0-1.1,0c-0.8-0.8-1.9-1.3-3.4-1.3c-0.8,0-1.5,0.2-2.1,0.4c-3.4-0.9-6.2,1.9-6.5,4.8
				c-2.2,1.4-2.7,4.4-1.7,6.6c-2.2,1.5-2.6,4.9-1.2,7.1c-4,1.7-3.7,8.3,0.7,9.4c-1.7,0.6-2.7,2.2-2.9,3.8c-3,0.7-4.1,4-3.3,6.5
				c-1,1.6-1,3.9,0,5.6c-1.7,2.9-0.4,7.7,4.1,7.7c4.5,0,5.8-4.8,4.1-7.8c0.8-1.3,0.9-3,0.5-4.5c0.4-0.6,0.6-1.3,0.7-1.9
				c4.7-1.1,4.7-8.5,0.1-9.7c3-1.1,3.7-5.1,2.2-7.6c2.7-1.1,3.4-4.5,2.3-7c0.9-0.7,1.6-1.6,1.8-2.7c4.4,0.8,9,0.2,13.4,0.1
				c1.1,0,2-0.3,2.7-0.8c0.5,0.2,1.1,0.3,1.8,0.3c0.4,0,0.7,0,1-0.1c0.3,0.1,0.6,0.1,1,0.1c1.3,0,2.3-0.4,3.1-1.1
				c0.7,0.4,1.5,0.6,2.4,0.6c0.2,0,0.3,0,0.4,0c0.8,0.6,1.8,1,3.1,1c0.8,0,1.4-0.1,2-0.4c0.8,0.8,2,1.4,3.5,1.4c0.8,0,1.4-0.1,2-0.4
				c0.6,0.2,1.2,0.4,2,0.4c1.7,0,2.9-0.7,3.7-1.7c0.8,1,2,1.7,3.8,1.7c1.6,0,2.9-0.7,3.7-1.6c1.2-0.3,2.2-1,2.8-1.9
				c0.8,0.6,1.8,1,3.1,1c0.3,0,0.5,0,0.7-0.1c0.7,1.5,2.1,2.6,4.3,2.6c1.5,0,2.7-0.6,3.5-1.4c0.6,0.3,1.3,0.4,2,0.4
				c1,0,1.8-0.2,2.4-0.6c0.3,0.1,0.7,0.1,1.1,0.1c2.8,0,4.4-1.9,4.7-4c0.4,2.1,1.9,4,4.8,4c1.5,0,2.7-0.6,3.5-1.4
				c0.8,0.9,2,1.4,3.5,1.4c0.9,0,1.7-0.2,2.3-0.5c0.2,0,0.4,0,0.7,0c0.9,0,1.7-0.2,2.3-0.5c0.7,0.3,1.4,0.5,2.2,0.5h5.5
				c1.5,0,2.6-0.5,3.4-1.4c0.2-0.1,0.4-0.2,0.6-0.3c0.7,0.4,1.5,0.6,2.5,0.6c0.5,0,0.9-0.1,1.3-0.2c0.8,1,2,1.7,3.7,1.7
				c2,0,3.4-1,4.1-2.3c0.7,1.6,2.1,2.8,4.4,2.8c1.3,0,2.3-0.4,3-1c0.3,0,0.6,0,0.8-0.1c0.8,0.9,2,1.6,3.6,1.6c0.8,0,1.4-0.1,2-0.4
				c0.6,0.2,1.2,0.4,2,0.4c1.6,0,2.8-0.6,3.6-1.5c1.5,0,2.7-0.6,3.5-1.5c0.6,1.7,2.1,3,4.5,3c1.9,0,3.2-0.9,4-2.1
				c0.7,0.4,1.5,0.6,2.5,0.6c1.4,0,2.5-0.5,3.3-1.2c0.8,1,2,1.7,3.7,1.7c1.3,0,2.3-0.4,3-1c0.8,0,1.4-0.1,2-0.4
				c0.8,0.8,2,1.4,3.5,1.4c0.8,0,1.4-0.1,2-0.4c0.8,0.8,2,1.4,3.5,1.4c1.9,0,3.2-0.8,4-2c0.8,0.6,1.8,1,3,1c0.5,0,1-0.1,1.5-0.2
				c0.5,0.1,1,0.2,1.5,0.2c1.9,0,3.2-0.9,4-2.1c0.8,1.2,2.1,2.1,4,2.1c1.6,0,2.7-0.6,3.6-1.5c0.8,1.2,2.1,2,3.9,2c0,0,0,0,0.1,0
				c1.4,1,3.2,1.2,5.1,0c0.6-0.4,1.3-1,2-1.5c0.1,0.1,0.2,0.1,0.3,0.2c2,1.2,4.3,0.7,5.8-0.7c1.5,1.3,3.7,1.1,5.4,0.3
				c0,0.3,0.3,0.6,1,0.9c2.5,2.5,5.8,1.4,7.5-0.8c1.2-0.2,2.1-0.7,2.8-1.4c0.8,0.9,2,1.4,3.5,1.4c0.8,0,1.5-0.2,2.1-0.4
				c0.8,1.1,2.1,1.9,3.9,1.9c1.6,0,2.8-0.6,3.6-1.6c0.7,0.4,1.4,0.6,2.4,0.6c1.6,0,2.8-0.6,3.6-1.5c0.1,0,0.3,0,0.4,0
				c0.2,0,0.3,0,0.5,0c0.9,0.6,1.9,1.1,3,1c0.2,0,0.5,0,0.7,0c0.3,0.1,0.5,0.2,0.8,0.3l-0.3-0.1c1,0.4,2,0.5,3.1,0.2
				c0.3-0.1,0.6-0.2,0.9-0.4c0.2,0,0.5,0.1,0.7,0.1c2.4,0,3.9-1.4,4.5-3.1c0.8,1.2,2.1,2.1,4,2.1c0.5,0,0.9-0.1,1.3-0.2
				c0.8,0.7,1.9,1.2,3.2,1.2c2.3,0,3.7-1.3,4.4-2.9c0.6,1.9,2.1,3.4,4.6,3.4c1,0,1.8-0.2,2.4-0.6c0.3,0.1,0.7,0.1,1.1,0.1
				c0.4,0,0.8,0,1.2-0.1c0.7,1.5,2.1,2.6,4.3,2.6C329.6,180.4,330.3,172.7,326.1,170.8z"/>
			<path class="st42" d="M335.8,217.1c0.1-1-0.1-2-0.6-2.8c0.3-0.9,0.4-1.9,0.1-2.8c-0.2-0.8-0.7-1.6-1.4-2.3c0-0.1,0-0.3,0-0.4
				v-0.5c0,0,0-0.1,0-0.1c0.9-2.5,0-5.6-2.7-6.6c0.1-0.7,0.1-1.4-0.1-2.1c0.2-0.5,0.3-1.1,0.3-1.7v-1c0-1.3-0.6-2.6-1.5-3.5
				c-0.1-0.1-0.1-0.1-0.2-0.2c0-0.9-0.1-1.9-0.5-2.7c0.5-0.8,0.7-1.6,0.7-2.5v-0.4c2.6-2.8,1.4-8.6-3.5-8.6c-2.9,0-4.5,2-4.8,4.2
				c-0.1,0.1-0.2,0.1-0.3,0.2c-0.9,1-1.5,2.2-1.5,3.5v1c0,0.9,0.3,1.8,0.7,2.6c-1,1.9-0.7,4.5,0.8,6.1c0,0.1,0,0.3,0,0.4v1
				c0,0.6,0.1,1.1,0.3,1.7c-0.6,2.4,0.4,5.1,2.9,6c0,0.1,0,0.2,0,0.3c-0.4,0.7-0.7,1.6-0.7,2.5v0.5c0,1.2,0.5,2.5,1.3,3.4
				c-0.3,1-0.4,2-0.1,3c0.2,0.6,0.5,1.3,1,1.9c0,1,0.3,2,0.9,2.8c0,0.2-0.1,0.3-0.1,0.5v1.5c0,1.3,0.6,2.6,1.5,3.5
				c0.9,0.9,2.3,1.5,3.5,1.5c1.3-0.1,2.6-0.5,3.5-1.5c0.9-1,1.5-2.2,1.5-3.5v-1.5C337,219.2,336.5,218,335.8,217.1z"/>
		</g>
		<g>
			<linearGradient id="SVGID_36_" gradientUnits="userSpaceOnUse" x1="23.8197" y1="196.8902" x2="323.8133" y2="196.8902">
				<stop  offset="0" style="stop-color:#E5F7FF"/>
				<stop  offset="0.2704" style="stop-color:#EEF7FF"/>
				<stop  offset="0.4286" style="stop-color:#E4F7FF"/>
				<stop  offset="1" style="stop-color:#EEF7FF"/>
			</linearGradient>
			<path class="st68" d="M321.1,174.2c-0.5-1.9-2-3.4-4.5-3.4c-0.9,0-1.6,0.2-2.3,0.5c-0.2,0-0.4,0-0.7,0c-0.9,0-1.7,0.2-2.4,0.6
				c-0.3-0.1-0.7-0.1-1-0.1c-2.2,0-3.7,1.3-4.3,2.9c-0.5-1.9-2-3.4-4.5-3.4c-0.5,0-0.9,0.1-1.3,0.2c-0.8-0.7-1.8-1.2-3.2-1.2
				c-2.3,0-3.8,1.4-4.4,3.1c-0.8-1.2-2.1-2.1-3.9-2.1c-0.8,0-1.6,0.2-2.2,0.5c-1.2-0.4-2.4-0.6-3.7-0.5c-0.1,0-0.3,0-0.4,0
				c-0.8-0.6-1.8-1.1-3-1.1c-1.6,0-2.7,0.6-3.5,1.5c-0.1,0-0.3,0-0.4,0c-1.6,0-2.8,0.6-3.6,1.6c-0.6-0.4-1.4-0.6-2.3-0.6
				c-0.8,0-1.5,0.2-2.1,0.4c-0.8-1.1-2.1-1.9-3.8-1.9c-1.5,0-2.6,0.6-3.4,1.4c-0.8-0.9-1.9-1.4-3.4-1.4c-1.3,0-2.3,0.4-3,1
				c-2-1.2-4.1-1.7-6.3-1.2c-1.8-0.9-3.9-0.9-5.8-0.4c-0.6-0.4-1.3-0.6-2-0.7c-2.6-0.4-5.1,1.5-7.2,3.1c-0.5-0.2-1-0.3-1.6-0.3
				c-1.5,0-2.7,0.6-3.5,1.5c-0.8-1.2-2.1-2-3.9-2c-1.8,0-3.2,0.9-3.9,2.1c-0.8-1.2-2.1-2.1-3.9-2.1c-0.5,0-1,0.1-1.5,0.2
				c-0.4-0.1-0.9-0.2-1.5-0.2c-1.8,0-3.1,0.8-3.9,2c-0.8-0.6-1.7-1-3-1c-0.8,0-1.4,0.1-2,0.4c-0.8-0.8-1.9-1.4-3.4-1.4
				c-0.8,0-1.4,0.1-2,0.4c-0.8-0.8-1.9-1.4-3.4-1.4c-1.2,0-2.2,0.4-3,1c-1.3,0-2.4,0.5-3.2,1.2c-0.8-1-2-1.7-3.7-1.7
				c-1.9,0-3.2,0.9-3.9,2.1c-0.7-0.4-1.5-0.6-2.4-0.6c-1.5,0-2.7,0.6-3.5,1.5c-0.6-1.7-2.1-3-4.4-3c-1.5,0-2.7,0.6-3.5,1.5
				c-0.7,0-1.4,0.1-1.9,0.4c-0.6-0.2-1.2-0.4-1.9-0.4c-0.3,0-0.6,0-0.9,0.1c-0.8-0.9-2-1.6-3.6-1.6c-1.2,0-2.2,0.4-3,1
				c-1.9,0-3.3,1-4,2.3c-0.7-1.6-2.1-2.8-4.3-2.8c-0.5,0-0.9,0.1-1.3,0.2c-0.8-1-2-1.7-3.6-1.7c-1,0-1.8,0.2-2.5,0.6
				c-0.7-0.4-1.5-0.6-2.4-0.6c-1.2,0-2.2,0.4-3,1h-3.9c-0.7,0-1.5,0.2-2.1,0.5c-0.6-0.3-1.4-0.5-2.3-0.5c-0.9,0-1.6,0.2-2.3,0.5
				c-0.2,0-0.4,0-0.7,0c-1.5,0-2.6,0.6-3.4,1.4c-0.8-0.9-1.9-1.4-3.4-1.4c-2.7,0-4.3,1.9-4.7,4c-0.4-2.1-1.9-4-4.7-4
				c-0.5,0-1,0.1-1.5,0.2c-0.4-0.1-0.9-0.2-1.5-0.2c-1.6,0-2.9,0.7-3.6,1.7c-0.1,0.1-0.2,0.1-0.2,0.2c-0.6-0.3-1.2-0.4-2-0.4
				c-0.3,0-0.5,0-0.7,0.1c-0.7-1.5-2.1-2.6-4.2-2.6c-1.8,0-3.1,0.8-3.9,2c-0.8-0.6-1.7-1-3-1c-1.6,0-2.8,0.7-3.6,1.6
				c-1.1,0.2-1.9,0.8-2.5,1.6c-0.8-1-2-1.7-3.7-1.7c-0.7,0-1.4,0.1-2,0.4c-0.6-0.2-1.2-0.4-2-0.4c-0.8,0-1.4,0.1-2,0.4
				c-0.8-0.8-1.9-1.4-3.4-1.4c-0.1,0-0.3,0-0.4,0c-0.8-0.6-1.8-1-3-1c-1.3,0-2.3,0.4-3.1,1.1c-0.6-0.4-1.4-0.6-2.3-0.6
				c-0.3,0-0.7,0-1,0.1c-0.3-0.1-0.6-0.1-1-0.1c-0.5,0-0.9,0.1-1.3,0.2c-0.8-1-2-1.7-3.6-1.7c-1.9,0-3.2,0.9-4,2.2c-1,0-2,0.1-3,0.1
				c-0.3,0-0.7,0-1,0c-0.8-0.8-1.9-1.3-3.3-1.3c-0.8,0-1.5,0.2-2,0.4c-3.3-0.9-6.1,1.9-6.4,4.8c-2.1,1.4-2.7,4.4-1.7,6.6
				c-2.1,1.5-2.5,4.9-1.2,7.1c-3.9,1.7-3.7,8.3,0.7,9.4c-1.7,0.6-2.6,2.2-2.9,3.8c-2.9,0.7-4,4-3.2,6.5c-1,1.6-1,3.9,0,5.6
				c-1.7,2.9-0.3,7.7,4,7.7c4.4,0,5.7-4.8,4-7.8c0.8-1.3,0.9-3,0.4-4.5c0.3-0.6,0.6-1.3,0.7-1.9c4.6-1.1,4.7-8.5,0.1-9.7
				c3-1.1,3.7-5.1,2.1-7.6c2.6-1.1,3.4-4.5,2.3-7c0.9-0.7,1.5-1.6,1.8-2.7c4.3,0.8,8.8,0.2,13.1,0.1c1.1,0,1.9-0.3,2.7-0.8
				c0.5,0.2,1.1,0.3,1.7,0.3c0.3,0,0.7,0,1-0.1c0.3,0.1,0.6,0.1,1,0.1c1.3,0,2.3-0.4,3.1-1.1c0.6,0.4,1.4,0.6,2.3,0.6
				c0.1,0,0.3,0,0.4,0c0.8,0.6,1.8,1,3,1c0.8,0,1.4-0.1,2-0.4c0.8,0.8,1.9,1.4,3.4,1.4c0.7,0,1.4-0.1,2-0.4c0.6,0.2,1.2,0.4,2,0.4
				c1.7,0,2.9-0.7,3.7-1.7c0.8,1,2,1.7,3.7,1.7c1.6,0,2.8-0.7,3.6-1.6c1.2-0.3,2.1-1,2.7-1.9c0.8,0.6,1.7,1,3,1c0.3,0,0.5,0,0.7-0.1
				c0.7,1.5,2.1,2.6,4.2,2.6c1.5,0,2.6-0.6,3.4-1.4c0.6,0.3,1.2,0.4,2,0.4c0.9,0,1.7-0.2,2.4-0.6c0.3,0.1,0.7,0.1,1,0.1
				c2.7,0,4.3-1.9,4.7-4c0.4,2.1,1.9,4,4.7,4c1.5,0,2.6-0.6,3.4-1.4c0.8,0.9,1.9,1.4,3.4,1.4c0.9,0,1.6-0.2,2.3-0.5
				c0.2,0,0.4,0,0.7,0c0.9,0,1.6-0.2,2.3-0.5c0.6,0.3,1.4,0.5,2.1,0.5h5.4c1.5,0,2.6-0.5,3.4-1.4c0.2-0.1,0.4-0.2,0.5-0.3
				c0.7,0.4,1.5,0.6,2.5,0.6c0.5,0,0.9-0.1,1.3-0.2c0.8,1,2,1.7,3.6,1.7c1.9,0,3.3-1,4-2.3c0.7,1.6,2.1,2.8,4.3,2.8
				c1.2,0,2.2-0.4,3-1c0.3,0,0.6,0,0.8-0.1c0.8,0.9,2,1.6,3.6,1.6c0.7,0,1.4-0.1,2-0.4c0.6,0.2,1.2,0.4,2,0.4c1.5,0,2.7-0.6,3.5-1.5
				c1.5,0,2.6-0.6,3.4-1.5c0.6,1.7,2.1,3,4.4,3c1.9,0,3.2-0.9,3.9-2.1c0.7,0.4,1.5,0.6,2.4,0.6c1.4,0,2.4-0.5,3.2-1.2
				c0.8,1,2,1.7,3.7,1.7c1.2,0,2.2-0.4,3-1c0.7,0,1.4-0.1,2-0.4c0.8,0.8,1.9,1.4,3.4,1.4c0.8,0,1.4-0.1,2-0.4
				c0.8,0.8,1.9,1.4,3.4,1.4c1.8,0,3.1-0.8,3.9-2c0.8,0.6,1.7,1,3,1c0.5,0,1-0.1,1.5-0.2c0.4,0.1,0.9,0.2,1.5,0.2
				c1.8,0,3.2-0.9,3.9-2.1c0.8,1.2,2.1,2.1,3.9,2.1c1.5,0,2.7-0.6,3.5-1.5c0.8,1.2,2.1,2,3.9,2c0,0,0,0,0.1,0c1.3,1,3.1,1.2,5,0
				c0.6-0.4,1.3-1,2-1.5c0.1,0.1,0.2,0.1,0.3,0.2c1.9,1.2,4.2,0.7,5.7-0.7c1.5,1.3,3.7,1.1,5.3,0.3c0,0.3,0.3,0.6,0.9,0.9
				c2.5,2.5,5.7,1.4,7.4-0.8c1.2-0.2,2-0.7,2.7-1.4c0.8,0.9,1.9,1.4,3.4,1.4c0.8,0,1.5-0.2,2.1-0.4c0.8,1.1,2.1,1.9,3.8,1.9
				c1.6,0,2.8-0.6,3.6-1.6c0.6,0.4,1.4,0.6,2.3,0.6c1.6,0,2.7-0.6,3.5-1.5c0.1,0,0.3,0,0.4,0c0.2,0,0.3,0,0.5,0
				c0.8,0.6,1.9,1.1,2.9,1c0.2,0,0.4,0,0.7,0c0.3,0.1,0.5,0.2,0.8,0.3l-0.3-0.1c1,0.4,2,0.5,3.1,0.2c0.3-0.1,0.6-0.2,0.9-0.4
				c0.2,0,0.5,0.1,0.7,0.1c2.3,0,3.8-1.4,4.4-3.1c0.8,1.2,2.1,2.1,3.9,2.1c0.5,0,0.9-0.1,1.3-0.2c0.8,0.7,1.8,1.2,3.2,1.2
				c2.2,0,3.7-1.3,4.3-2.9c0.5,1.9,2,3.4,4.5,3.4c0.9,0,1.7-0.2,2.4-0.6c0.3,0.1,0.7,0.1,1,0.1c0.4,0,0.8,0,1.2-0.1
				c0.7,1.5,2.1,2.6,4.2,2.6C324.6,183.8,325.3,176.1,321.1,174.2z"/>
			<linearGradient id="SVGID_37_" gradientUnits="userSpaceOnUse" x1="315.1614" y1="206.2544" x2="331.8191" y2="206.2544">
				<stop  offset="0" style="stop-color:#E5F7FF"/>
				<stop  offset="0.2704" style="stop-color:#EEF7FF"/>
				<stop  offset="0.4286" style="stop-color:#E4F7FF"/>
				<stop  offset="1" style="stop-color:#EEF7FF"/>
			</linearGradient>
			<path class="st69" d="M330.7,220.6c0-1-0.1-2-0.6-2.8c0.3-0.9,0.3-1.9,0.1-2.8c-0.2-0.8-0.7-1.6-1.3-2.3c0-0.1,0-0.3,0-0.4v-0.5
				c0,0,0-0.1,0-0.1c0.9-2.5,0-5.6-2.7-6.6c0.1-0.7,0.1-1.4-0.1-2.1c0.2-0.5,0.3-1.1,0.3-1.7v-1c0-1.3-0.5-2.6-1.4-3.5
				c-0.1-0.1-0.1-0.1-0.2-0.2c0-0.9-0.1-1.9-0.5-2.7c0.4-0.8,0.7-1.6,0.7-2.5v-0.4c2.5-2.8,1.4-8.6-3.4-8.6c-2.8,0-4.4,2-4.7,4.2
				c-0.1,0.1-0.2,0.1-0.3,0.2c-0.9,1-1.4,2.2-1.4,3.5v1c0,0.9,0.3,1.8,0.7,2.6c-0.9,1.9-0.7,4.5,0.8,6.1c0,0.1,0,0.3,0,0.4v1
				c0,0.6,0.1,1.1,0.3,1.7c-0.5,2.4,0.4,5.1,2.8,6c0,0.1,0,0.2,0,0.3c-0.4,0.7-0.7,1.6-0.7,2.5v0.5c0,1.2,0.5,2.5,1.3,3.4
				c-0.3,1-0.4,2-0.1,3c0.2,0.6,0.5,1.3,1,1.9c0,1,0.3,2,0.9,2.8c0,0.2-0.1,0.3-0.1,0.5v1.5c0,1.3,0.5,2.6,1.4,3.5
				c0.8,0.9,2.2,1.5,3.5,1.5c1.3-0.1,2.6-0.5,3.5-1.5c0.9-1,1.4-2.2,1.4-3.5v-1.5C331.8,222.6,331.4,221.4,330.7,220.6z"/>
		</g>
	</g>
	<g>
		<g>
			<path class="st42" d="M34.1,293.4c0.5,1.9,2,3.4,4.5,3.4c0.9,0,1.6-0.2,2.3-0.5c0.2,0,0.4,0,0.7,0c0.9,0,1.8-0.2,2.4-0.6
				c0.3,0.1,0.7,0.1,1,0.1c2.2,0,3.7-1.3,4.3-2.9c0.5,1.9,2,3.4,4.5,3.4c0.5,0,0.9-0.1,1.3-0.2c0.8,0.7,1.8,1.2,3.2,1.2
				c2.3,0,3.8-1.4,4.4-3.1c0.8,1.2,2.1,2.1,3.9,2.1c0.8,0,1.6-0.2,2.2-0.5c1.2,0.4,2.4,0.6,3.7,0.5c0.1,0,0.3,0,0.4,0
				c0.8,0.6,1.8,1.1,3,1.1c1.6,0,2.7-0.6,3.5-1.5c0.1,0,0.3,0,0.4,0c1.6,0,2.8-0.6,3.6-1.6c0.6,0.4,1.4,0.6,2.3,0.6
				c0.8,0,1.5-0.2,2.1-0.4c0.8,1.1,2.1,1.9,3.8,1.9c1.5,0,2.6-0.6,3.4-1.4c0.8,0.9,1.9,1.4,3.4,1.4c1.3,0,2.3-0.4,3-1
				c2,1.2,4.1,1.7,6.3,1.2c1.8,0.9,3.9,0.9,5.8,0.4c0.6,0.4,1.3,0.6,2,0.7c2.6,0.4,5.1-1.5,7.3-3.1c0.5,0.2,1,0.3,1.6,0.3
				c1.5,0,2.7-0.6,3.5-1.5c0.8,1.2,2.1,2,3.9,2c1.9,0,3.2-0.9,3.9-2.1c0.8,1.2,2.1,2.1,3.9,2.1c0.5,0,1-0.1,1.5-0.2
				c0.4,0.1,0.9,0.2,1.5,0.2c1.8,0,3.1-0.8,3.9-2c0.8,0.6,1.8,1,3,1c0.8,0,1.4-0.1,2-0.4c0.8,0.8,1.9,1.4,3.4,1.4
				c0.8,0,1.4-0.1,2-0.4c0.8,0.8,1.9,1.4,3.4,1.4c1.2,0,2.2-0.4,3-1c1.4,0,2.4-0.5,3.2-1.2c0.8,1,2,1.7,3.7,1.7c1.9,0,3.2-0.9,4-2.1
				c0.7,0.4,1.5,0.6,2.4,0.6c1.5,0,2.7-0.6,3.5-1.5c0.6,1.7,2.1,3,4.4,3c1.5,0,2.7-0.6,3.5-1.5c0.7,0,1.4-0.1,1.9-0.4
				c0.6,0.2,1.2,0.4,2,0.4c0.3,0,0.6,0,0.9-0.1c0.8,0.9,2,1.6,3.6,1.6c1.2,0,2.2-0.4,3-1c1.9,0,3.3-1,4-2.3c0.7,1.6,2.1,2.8,4.3,2.8
				c0.5,0,0.9-0.1,1.3-0.2c0.8,1,2,1.7,3.6,1.7c1,0,1.8-0.2,2.5-0.6c0.7,0.4,1.5,0.6,2.4,0.6c1.2,0,2.2-0.4,3-1h3.9
				c0.7,0,1.5-0.2,2.1-0.5c0.6,0.3,1.4,0.5,2.3,0.5c0.9,0,1.6-0.2,2.3-0.5c0.2,0,0.4,0,0.7,0c1.5,0,2.7-0.6,3.4-1.4
				c0.8,0.9,1.9,1.4,3.4,1.4c2.8,0,4.3-1.9,4.7-4c0.4,2.1,1.9,4,4.7,4c0.5,0,1-0.1,1.5-0.2c0.4,0.1,0.9,0.2,1.5,0.2
				c1.6,0,2.9-0.7,3.7-1.7c0.1-0.1,0.2-0.1,0.2-0.2c0.6,0.3,1.2,0.4,2,0.4c0.3,0,0.5,0,0.7-0.1c0.7,1.5,2.1,2.6,4.2,2.6
				c1.8,0,3.1-0.8,3.9-2c0.8,0.6,1.7,1,3,1c1.6,0,2.8-0.7,3.6-1.6c1.1-0.2,1.9-0.8,2.5-1.6c0.8,1,2,1.7,3.7,1.7c0.7,0,1.4-0.1,2-0.4
				c0.6,0.2,1.2,0.4,2,0.4c0.8,0,1.4-0.1,2-0.4c0.8,0.8,1.9,1.4,3.4,1.4c0.1,0,0.3,0,0.4,0c0.8,0.6,1.8,1,3,1c1.3,0,2.3-0.4,3.1-1.1
				c0.7,0.4,1.4,0.6,2.3,0.6c0.3,0,0.7,0,1-0.1c0.3,0.1,0.6,0.1,1,0.1c0.5,0,0.9-0.1,1.3-0.2c0.8,1,2,1.7,3.6,1.7
				c1.9,0,3.2-0.9,4-2.2c1,0,2-0.1,3-0.1c0.3,0,0.7,0,1,0c0.8,0.8,1.9,1.3,3.3,1.3c0.8,0,1.5-0.2,2.1-0.4c3.3,0.9,6.1-1.9,6.4-4.8
				c2.1-1.4,2.7-4.4,1.7-6.6c2.2-1.5,2.5-4.9,1.2-7.1c3.9-1.7,3.7-8.3-0.7-9.4c1.7-0.6,2.6-2.2,2.9-3.8c3-0.7,4-4,3.2-6.5
				c1-1.6,1-3.9,0-5.6c1.7-2.9,0.4-7.7-4-7.7c-4.4,0-5.7,4.8-4,7.8c-0.8,1.3-0.9,3-0.4,4.5c-0.3,0.6-0.6,1.3-0.7,1.9
				c-4.6,1.1-4.7,8.5-0.1,9.7c-3,1.1-3.7,5.1-2.1,7.6c-2.6,1.1-3.4,4.5-2.3,7c-0.9,0.7-1.5,1.6-1.8,2.7c-4.3-0.8-8.8-0.2-13.2-0.1
				c-1.1,0-2,0.3-2.7,0.8c-0.5-0.2-1.1-0.3-1.7-0.3c-0.3,0-0.7,0-1,0.1c-0.3-0.1-0.6-0.1-1-0.1c-1.3,0-2.3,0.4-3.1,1.1
				c-0.7-0.4-1.4-0.6-2.3-0.6c-0.1,0-0.3,0-0.4,0c-0.8-0.6-1.8-1-3-1c-0.8,0-1.4,0.1-2,0.4c-0.8-0.8-1.9-1.4-3.4-1.4
				c-0.7,0-1.4,0.1-2,0.4c-0.6-0.2-1.2-0.4-2-0.4c-1.7,0-2.9,0.7-3.7,1.7c-0.8-1-2-1.7-3.7-1.7c-1.6,0-2.8,0.7-3.6,1.6
				c-1.2,0.3-2.1,1-2.7,1.9c-0.8-0.6-1.8-1-3-1c-0.3,0-0.5,0-0.7,0.1c-0.7-1.5-2.1-2.6-4.2-2.6c-1.5,0-2.6,0.6-3.4,1.4
				c-0.6-0.3-1.2-0.4-2-0.4c-0.9,0-1.7,0.2-2.4,0.6c-0.3-0.1-0.7-0.1-1-0.1c-2.8,0-4.3,1.9-4.7,4c-0.4-2.1-1.9-4-4.7-4
				c-1.5,0-2.7,0.6-3.4,1.4c-0.8-0.9-1.9-1.4-3.4-1.4c-0.9,0-1.6,0.2-2.3,0.5c-0.2,0-0.4,0-0.7,0c-0.9,0-1.6,0.2-2.3,0.5
				c-0.6-0.3-1.4-0.5-2.2-0.5h-5.4c-1.5,0-2.6,0.5-3.4,1.4c-0.2,0.1-0.4,0.2-0.5,0.3c-0.7-0.4-1.5-0.6-2.5-0.6
				c-0.5,0-0.9,0.1-1.3,0.2c-0.8-1-2-1.7-3.6-1.7c-2,0-3.3,1-4.1,2.3c-0.7-1.6-2.1-2.8-4.3-2.8c-1.2,0-2.2,0.4-3,1
				c-0.3,0-0.6,0-0.8,0.1c-0.8-0.9-2-1.6-3.6-1.6c-0.7,0-1.4,0.1-2,0.4c-0.6-0.2-1.2-0.4-2-0.4c-1.5,0-2.7,0.6-3.5,1.5
				c-1.5,0-2.6,0.6-3.4,1.5c-0.6-1.7-2.1-3-4.4-3c-1.9,0-3.2,0.9-4,2.1c-0.7-0.4-1.5-0.6-2.4-0.6c-1.4,0-2.4,0.5-3.2,1.2
				c-0.8-1-2-1.7-3.7-1.7c-1.2,0-2.2,0.4-3,1c-0.7,0-1.4,0.1-2,0.4c-0.8-0.8-1.9-1.4-3.4-1.4c-0.8,0-1.4,0.1-2,0.4
				c-0.8-0.8-1.9-1.4-3.4-1.4c-1.8,0-3.1,0.8-3.9,2c-0.8-0.6-1.8-1-3-1c-0.5,0-1,0.1-1.5,0.2c-0.4-0.1-0.9-0.2-1.5-0.2
				c-1.9,0-3.2,0.9-3.9,2.1c-0.8-1.2-2.1-2.1-3.9-2.1c-1.5,0-2.7,0.6-3.5,1.5c-0.8-1.2-2.1-2-3.9-2c0,0,0,0-0.1,0
				c-1.3-1-3.1-1.2-5,0c-0.6,0.4-1.3,1-2,1.5c-0.1-0.1-0.2-0.1-0.3-0.2c-1.9-1.2-4.2-0.7-5.8,0.7c-1.5-1.3-3.7-1.1-5.3-0.3
				c0-0.3-0.3-0.6-0.9-0.9c-2.5-2.5-5.7-1.4-7.4,0.8c-1.2,0.2-2,0.7-2.7,1.4c-0.8-0.9-1.9-1.4-3.5-1.4c-0.8,0-1.5,0.2-2.1,0.4
				c-0.8-1.1-2.1-1.9-3.8-1.9c-1.6,0-2.8,0.6-3.6,1.6c-0.6-0.4-1.4-0.6-2.3-0.6c-1.6,0-2.7,0.6-3.5,1.5c-0.1,0-0.3,0-0.4,0
				c-0.2,0-0.3,0-0.5,0c-0.8-0.6-1.9-1.1-3-1c-0.2,0-0.4,0-0.7,0c-0.3-0.1-0.5-0.2-0.8-0.3l0.3,0.1c-1-0.4-2-0.5-3.1-0.2
				c-0.3,0.1-0.6,0.2-0.9,0.4c-0.2,0-0.5-0.1-0.7-0.1c-2.3,0-3.8,1.4-4.4,3.1c-0.8-1.2-2.1-2.1-3.9-2.1c-0.5,0-0.9,0.1-1.3,0.2
				c-0.8-0.7-1.8-1.2-3.2-1.2c-2.2,0-3.7,1.3-4.3,2.9c-0.5-1.9-2-3.4-4.5-3.4c-0.9,0-1.7,0.2-2.4,0.6c-0.3-0.1-0.7-0.1-1.1-0.1
				c-0.4,0-0.8,0-1.2,0.1c-0.7-1.5-2.1-2.6-4.2-2.6C30.6,283.8,29.9,291.5,34.1,293.4z"/>
			<path class="st42" d="M24.5,247.1c0,1,0.1,2,0.6,2.8c-0.3,0.9-0.3,1.9-0.1,2.8c0.2,0.8,0.7,1.6,1.3,2.3c0,0.1,0,0.3,0,0.4v0.5
				c0,0,0,0.1,0,0.1c-0.9,2.5,0,5.6,2.7,6.6c-0.1,0.7-0.1,1.4,0.1,2.1c-0.2,0.5-0.3,1.1-0.3,1.7v1c0,1.3,0.5,2.6,1.4,3.5
				c0.1,0.1,0.1,0.1,0.2,0.2c0,0.9,0.1,1.9,0.5,2.7c-0.4,0.8-0.7,1.6-0.7,2.5v0.4c-2.5,2.8-1.4,8.6,3.4,8.6c2.8,0,4.4-2,4.7-4.2
				c0.1-0.1,0.2-0.1,0.3-0.2c0.9-1,1.4-2.2,1.4-3.5v-1c0-0.9-0.3-1.8-0.7-2.6c0.9-1.9,0.7-4.5-0.8-6.1c0-0.1,0-0.3,0-0.4v-1
				c0-0.6-0.1-1.1-0.3-1.7c0.5-2.4-0.4-5.1-2.9-6c0-0.1,0-0.2,0-0.3c0.4-0.7,0.7-1.6,0.7-2.5v-0.5c0-1.2-0.5-2.5-1.3-3.4
				c0.3-1,0.4-2,0.1-3c-0.2-0.6-0.5-1.3-1-1.9c0-1-0.3-2-0.9-2.8c0-0.2,0.1-0.3,0.1-0.5v-1.5c0-1.3-0.5-2.6-1.4-3.5
				c-0.9-0.9-2.3-1.5-3.5-1.5c-1.3,0.1-2.6,0.5-3.5,1.5c-0.9,1-1.4,2.2-1.4,3.5v1.5C23.4,245,23.8,246.2,24.5,247.1z"/>
		</g>
		<g>
			
				<linearGradient id="SVGID_38_" gradientUnits="userSpaceOnUse" x1="31.6897" y1="295.5623" x2="323.3505" y2="295.5623" gradientTransform="matrix(-1 0 0 -1 359.6722 562.902)">
				<stop  offset="0" style="stop-color:#E5F7FF"/>
				<stop  offset="0.2704" style="stop-color:#EEF7FF"/>
				<stop  offset="0.4286" style="stop-color:#E4F7FF"/>
				<stop  offset="1" style="stop-color:#EEF7FF"/>
			</linearGradient>
			<path class="st70" d="M38.9,290c0.5,1.9,2,3.4,4.4,3.4c0.9,0,1.6-0.2,2.2-0.5c0.2,0,0.4,0,0.6,0c0.9,0,1.7-0.2,2.3-0.6
				c0.3,0.1,0.6,0.1,1,0.1c2.2,0,3.6-1.3,4.2-2.9c0.5,1.9,2,3.4,4.4,3.4c0.4,0,0.8-0.1,1.2-0.2c0.7,0.7,1.8,1.2,3.1,1.2
				c2.3,0,3.7-1.4,4.3-3.1c0.7,1.2,2,2.1,3.8,2.1c0.8,0,1.5-0.2,2.1-0.5c1.2,0.4,2.4,0.6,3.6,0.5c0.1,0,0.3,0,0.4,0
				c0.7,0.6,1.7,1.1,3,1.1c1.5,0,2.6-0.6,3.4-1.5c0.1,0,0.3,0,0.4,0c1.5,0,2.7-0.6,3.5-1.6c0.6,0.4,1.4,0.6,2.3,0.6
				c0.8,0,1.4-0.2,2-0.4c0.8,1.1,2,1.9,3.7,1.9c1.5,0,2.6-0.6,3.3-1.4c0.8,0.9,1.9,1.4,3.3,1.4c1.2,0,2.2-0.4,2.9-1
				c1.9,1.2,4,1.7,6.1,1.2c1.8,0.9,3.8,0.9,5.6,0.4c0.6,0.4,1.3,0.6,2,0.7c2.5,0.4,4.9-1.5,7-3.1c0.5,0.2,1,0.3,1.6,0.3
				c1.5,0,2.6-0.6,3.4-1.5c0.8,1.2,2,2,3.8,2c1.8,0,3.1-0.9,3.8-2.1c0.7,1.2,2,2.1,3.8,2.1c0.5,0,1-0.1,1.4-0.2
				c0.4,0.1,0.9,0.2,1.4,0.2c1.8,0,3-0.8,3.8-2c0.7,0.6,1.7,1,2.9,1c0.7,0,1.4-0.1,1.9-0.4c0.8,0.8,1.9,1.4,3.3,1.4
				c0.7,0,1.4-0.1,1.9-0.4c0.8,0.8,1.9,1.4,3.3,1.4c1.2,0,2.2-0.4,2.9-1c1.3,0,2.3-0.5,3.1-1.2c0.8,1,1.9,1.7,3.6,1.7
				c1.8,0,3.1-0.9,3.8-2.1c0.6,0.4,1.4,0.6,2.4,0.6c1.5,0,2.6-0.6,3.4-1.5c0.6,1.7,2,3,4.2,3c1.5,0,2.6-0.6,3.4-1.5
				c0.7,0,1.3-0.1,1.9-0.4c0.5,0.2,1.2,0.4,1.9,0.4c0.3,0,0.6,0,0.8-0.1c0.8,0.9,1.9,1.6,3.5,1.6c1.2,0,2.2-0.4,2.9-1
				c1.9,0,3.2-1,3.9-2.3c0.7,1.6,2,2.8,4.2,2.8c0.4,0,0.9-0.1,1.2-0.2c0.8,1,1.9,1.7,3.5,1.7c0.9,0,1.7-0.2,2.4-0.6
				c0.7,0.4,1.4,0.6,2.4,0.6c1.2,0,2.2-0.4,2.9-1h3.8c0.7,0,1.4-0.2,2.1-0.5c0.6,0.3,1.4,0.5,2.2,0.5c0.9,0,1.6-0.2,2.2-0.5
				c0.2,0,0.4,0,0.6,0c1.5,0,2.6-0.6,3.3-1.4c0.8,0.9,1.9,1.4,3.3,1.4c2.7,0,4.2-1.9,4.5-4c0.3,2.1,1.8,4,4.5,4c0.5,0,1-0.1,1.4-0.2
				c0.4,0.1,0.9,0.2,1.4,0.2c1.6,0,2.8-0.7,3.5-1.7c0.1-0.1,0.2-0.1,0.2-0.2c0.6,0.3,1.2,0.4,1.9,0.4c0.2,0,0.5,0,0.7-0.1
				c0.7,1.5,2,2.6,4.1,2.6c1.8,0,3-0.8,3.8-2c0.7,0.6,1.7,1,2.9,1c1.6,0,2.7-0.7,3.5-1.6c1.1-0.2,1.9-0.8,2.5-1.6
				c0.8,1,2,1.7,3.6,1.7c0.7,0,1.4-0.1,1.9-0.4c0.6,0.2,1.2,0.4,1.9,0.4c0.7,0,1.4-0.1,1.9-0.4c0.8,0.8,1.9,1.4,3.3,1.4
				c0.1,0,0.3,0,0.4,0c0.7,0.6,1.7,1,2.9,1c1.2,0,2.2-0.4,3-1.1c0.6,0.4,1.4,0.6,2.3,0.6c0.3,0,0.7,0,1-0.1c0.3,0.1,0.6,0.1,1,0.1
				c0.4,0,0.9-0.1,1.2-0.2c0.8,1,1.9,1.7,3.5,1.7c1.8,0,3.1-0.9,3.9-2.2c1,0,1.9-0.1,2.9-0.1c0.3,0,0.7,0,1,0
				c0.8,0.8,1.8,1.3,3.2,1.3c0.8,0,1.4-0.2,2-0.4c3.2,0.9,5.9-1.9,6.2-4.8c2.1-1.4,2.6-4.4,1.6-6.6c2.1-1.5,2.5-4.9,1.1-7.1
				c3.8-1.7,3.6-8.3-0.6-9.4c1.6-0.6,2.6-2.2,2.8-3.8c2.9-0.7,3.9-4,3.1-6.5c1-1.6,1-3.9,0-5.6c1.6-2.9,0.3-7.7-3.9-7.7
				c-4.2,0-5.6,4.8-3.9,7.8c-0.7,1.3-0.9,3-0.4,4.5c-0.3,0.6-0.6,1.3-0.7,1.9c-4.5,1.1-4.5,8.5-0.1,9.7c-2.9,1.1-3.6,5.1-2.1,7.6
				c-2.5,1.1-3.3,4.5-2.2,7c-0.9,0.7-1.5,1.6-1.7,2.7c-4.1-0.8-8.5-0.2-12.7-0.1c-1,0-1.9,0.3-2.6,0.8c-0.5-0.2-1.1-0.3-1.7-0.3
				c-0.3,0-0.7,0-1,0.1c-0.3-0.1-0.6-0.1-1-0.1c-1.2,0-2.2,0.4-3,1.1c-0.6-0.4-1.4-0.6-2.3-0.6c-0.1,0-0.3,0-0.4,0
				c-0.7-0.6-1.7-1-2.9-1c-0.7,0-1.4,0.1-1.9,0.4c-0.8-0.8-1.9-1.4-3.3-1.4c-0.7,0-1.4,0.1-1.9,0.4c-0.6-0.2-1.2-0.4-1.9-0.4
				c-1.6,0-2.8,0.7-3.6,1.7c-0.8-1-2-1.7-3.6-1.7c-1.6,0-2.7,0.7-3.5,1.6c-1.2,0.3-2.1,1-2.6,1.9c-0.7-0.6-1.7-1-2.9-1
				c-0.2,0-0.5,0-0.7,0.1c-0.7-1.5-2-2.6-4.1-2.6c-1.4,0-2.5,0.6-3.3,1.4c-0.6-0.3-1.2-0.4-1.9-0.4c-0.9,0-1.7,0.2-2.3,0.6
				c-0.3-0.1-0.7-0.1-1-0.1c-2.7,0-4.2,1.9-4.5,4c-0.3-2.1-1.8-4-4.5-4c-1.5,0-2.6,0.6-3.3,1.4c-0.8-0.9-1.9-1.4-3.3-1.4
				c-0.9,0-1.6,0.2-2.2,0.5c-0.2,0-0.4,0-0.6,0c-0.9,0-1.6,0.2-2.2,0.5c-0.6-0.3-1.3-0.5-2.1-0.5h-5.2c-1.4,0-2.5,0.5-3.3,1.4
				c-0.2,0.1-0.4,0.2-0.5,0.3c-0.7-0.4-1.5-0.6-2.4-0.6c-0.4,0-0.9,0.1-1.2,0.2c-0.8-1-1.9-1.7-3.5-1.7c-1.9,0-3.2,1-3.9,2.3
				c-0.7-1.6-2-2.8-4.2-2.8c-1.2,0-2.2,0.4-2.9,1c-0.3,0-0.5,0-0.8,0.1c-0.8-0.9-1.9-1.6-3.5-1.6c-0.7,0-1.3,0.1-1.9,0.4
				c-0.6-0.2-1.2-0.4-1.9-0.4c-1.5,0-2.6,0.6-3.4,1.5c-1.5,0-2.6,0.6-3.3,1.5c-0.6-1.7-2-3-4.2-3c-1.8,0-3.1,0.9-3.8,2.1
				c-0.6-0.4-1.4-0.6-2.4-0.6c-1.3,0-2.4,0.5-3.1,1.2c-0.8-1-1.9-1.7-3.6-1.7c-1.2,0-2.2,0.4-2.9,1c-0.7,0-1.4,0.1-1.9,0.4
				c-0.8-0.8-1.9-1.4-3.3-1.4c-0.7,0-1.4,0.1-1.9,0.4c-0.8-0.8-1.9-1.4-3.3-1.4c-1.8,0-3,0.8-3.8,2c-0.7-0.6-1.7-1-2.9-1
				c-0.5,0-1,0.1-1.4,0.2c-0.4-0.1-0.9-0.2-1.4-0.2c-1.8,0-3.1,0.9-3.8,2.1c-0.7-1.2-2-2.1-3.8-2.1c-1.5,0-2.6,0.6-3.4,1.5
				c-0.8-1.2-2-2-3.8-2c0,0,0,0-0.1,0c-1.3-1-3-1.2-4.8,0c-0.6,0.4-1.2,1-1.9,1.5c-0.1-0.1-0.2-0.1-0.3-0.2
				c-1.9-1.2-4.1-0.7-5.6,0.7c-1.5-1.3-3.6-1.1-5.2-0.3c0-0.3-0.3-0.6-0.9-0.9c-2.4-2.5-5.6-1.4-7.2,0.8c-1.1,0.2-2,0.7-2.6,1.4
				c-0.8-0.9-1.9-1.4-3.3-1.4c-0.8,0-1.4,0.2-2,0.4c-0.8-1.1-2-1.9-3.7-1.9c-1.5,0-2.7,0.6-3.5,1.6c-0.6-0.4-1.4-0.6-2.3-0.6
				c-1.5,0-2.6,0.6-3.4,1.5c-0.1,0-0.3,0-0.4,0c-0.2,0-0.3,0-0.5,0c-0.8-0.6-1.8-1.1-2.9-1c-0.2,0-0.4,0-0.6,0
				c-0.3-0.1-0.5-0.2-0.8-0.3l0.3,0.1c-1-0.4-1.9-0.5-3-0.2c-0.3,0.1-0.6,0.2-0.9,0.4c-0.2,0-0.5-0.1-0.7-0.1
				c-2.3,0-3.7,1.4-4.3,3.1c-0.7-1.2-2-2.1-3.8-2.1c-0.4,0-0.8,0.1-1.2,0.2c-0.7-0.7-1.8-1.2-3.1-1.2c-2.2,0-3.6,1.3-4.2,2.9
				c-0.5-1.9-2-3.4-4.4-3.4c-0.9,0-1.7,0.2-2.3,0.6c-0.3-0.1-0.7-0.1-1-0.1c-0.4,0-0.8,0-1.1,0.1c-0.7-1.5-2-2.6-4.1-2.6
				C35.6,280.4,34.9,288.1,38.9,290z"/>
			
				<linearGradient id="SVGID_39_" gradientUnits="userSpaceOnUse" x1="314.8414" y1="304.9265" x2="331.2243" y2="304.9265" gradientTransform="matrix(-1 0 0 -1 359.6722 562.902)">
				<stop  offset="0" style="stop-color:#E5F7FF"/>
				<stop  offset="0.2704" style="stop-color:#EEF7FF"/>
				<stop  offset="0.4286" style="stop-color:#E4F7FF"/>
				<stop  offset="1" style="stop-color:#EEF7FF"/>
			</linearGradient>
			<path class="st71" d="M29.6,243.7c0,1,0.1,2,0.6,2.8c-0.3,0.9-0.3,1.9-0.1,2.8c0.2,0.8,0.7,1.6,1.3,2.3c0,0.1,0,0.3,0,0.4v0.5
				c0,0,0,0.1,0,0.1c-0.8,2.5,0,5.6,2.6,6.6c-0.1,0.7-0.1,1.4,0.1,2.1c-0.2,0.5-0.3,1.1-0.3,1.7v1c0,1.3,0.5,2.6,1.4,3.5
				c0.1,0.1,0.1,0.1,0.2,0.2c0,0.9,0.1,1.9,0.5,2.7c-0.4,0.8-0.7,1.6-0.7,2.5v0.4c-2.5,2.8-1.4,8.6,3.4,8.6c2.8,0,4.3-2,4.6-4.2
				c0.1-0.1,0.2-0.1,0.3-0.2c0.9-1,1.4-2.2,1.4-3.5v-1c0-0.9-0.3-1.8-0.7-2.6c0.9-1.9,0.7-4.5-0.8-6.1c0-0.1,0-0.3,0-0.4v-1
				c0-0.6-0.1-1.1-0.3-1.7c0.5-2.4-0.4-5.1-2.8-6c0-0.1,0-0.2,0-0.3c0.4-0.7,0.7-1.6,0.7-2.5V252c0-1.2-0.5-2.5-1.3-3.4
				c0.3-1,0.4-2,0.1-3c-0.2-0.6-0.5-1.3-1-1.9c0-1-0.3-2-0.8-2.8c0-0.2,0.1-0.3,0.1-0.5V239c0-1.3-0.5-2.6-1.4-3.5
				c-0.8-0.9-2.2-1.5-3.4-1.5c-1.2,0.1-2.5,0.5-3.4,1.5c-0.9,1-1.4,2.2-1.4,3.5v1.5C28.4,241.6,28.9,242.8,29.6,243.7z"/>
		</g>
	</g>
	<g>
		<line class="st72" x1="335.9" y1="226.1" x2="326.8" y2="167.5"/>
		<line class="st72" x1="320.7" y1="226.1" x2="312.5" y2="167.5"/>
		<line class="st72" x1="305.5" y1="226.1" x2="298.2" y2="167.5"/>
		<line class="st72" x1="290.4" y1="226.1" x2="283.9" y2="167.5"/>
		<line class="st72" x1="275.2" y1="226.1" x2="269.6" y2="167.5"/>
		<line class="st72" x1="260" y1="226.1" x2="255.3" y2="167.5"/>
		<line class="st72" x1="244.9" y1="226.1" x2="241" y2="167.5"/>
		<line class="st72" x1="229.7" y1="226.1" x2="226.6" y2="167.5"/>
		<path class="st72" d="M212.4,167.5"/>
		<path class="st72" d="M214.5,226.1"/>
		<path class="st72" d="M198,167.5"/>
		<path class="st72" d="M199.3,226.1"/>
		<path class="st72" d="M183.7,167.5"/>
		<path class="st72" d="M184.2,226.1"/>
		<path class="st72" d="M169.4,167.5"/>
		<path class="st72" d="M169,226.1"/>
		<path class="st72" d="M155.1,167.5"/>
		<path class="st72" d="M153.8,226.1"/>
		<path class="st72" d="M140.8,167.5"/>
		<path class="st72" d="M138.7,226.1"/>
		<line class="st72" x1="123.5" y1="226.1" x2="126.2" y2="173"/>
		<line class="st72" x1="108.3" y1="226.1" x2="112.2" y2="175.1"/>
		<line class="st72" x1="93.1" y1="226.1" x2="97.9" y2="174"/>
		<line class="st72" x1="78" y1="226.1" x2="82.9" y2="174.9"/>
		<line class="st72" x1="62.8" y1="226.1" x2="68.2" y2="172.8"/>
		<line class="st72" x1="47.6" y1="226.1" x2="54.4" y2="172.2"/>
		<line class="st72" x1="32.5" y1="226.1" x2="40.7" y2="171.8"/>
		<line class="st72" x1="17.3" y1="226.1" x2="26.4" y2="167.5"/>
	</g>
	<g>
		<line class="st72" x1="17.3" y1="238.2" x2="26.4" y2="296.9"/>
		<line class="st72" x1="32.5" y1="238.2" x2="40.7" y2="296.9"/>
		<line class="st72" x1="47.6" y1="238.2" x2="55" y2="296.9"/>
		<line class="st72" x1="62.8" y1="238.2" x2="69.3" y2="296.9"/>
		<line class="st72" x1="78" y1="238.2" x2="83.6" y2="296.9"/>
		<line class="st72" x1="93.1" y1="238.2" x2="97.9" y2="296.9"/>
		<line class="st72" x1="108.3" y1="238.2" x2="112.2" y2="296.9"/>
		<line class="st72" x1="123.5" y1="238.2" x2="126.5" y2="296.9"/>
		<path class="st72" d="M140.8,296.9"/>
		<path class="st72" d="M138.7,238.2"/>
		<path class="st72" d="M155.1,296.9"/>
		<path class="st72" d="M153.8,238.2"/>
		<path class="st72" d="M169.4,287"/>
		<path class="st72" d="M169,281.3"/>
		<path class="st72" d="M183.7,296.9"/>
		<path class="st72" d="M184.2,283.9"/>
		<path class="st72" d="M198,296.9"/>
		<path class="st72" d="M199.3,281.5"/>
		<path class="st72" d="M212.3,296.9"/>
		<path class="st72" d="M212.8,283.3"/>
		<line class="st72" x1="229.7" y1="238.2" x2="226.7" y2="296.9"/>
		<line class="st72" x1="244.8" y1="238.2" x2="241" y2="296.9"/>
		<line class="st72" x1="260" y1="238.2" x2="255.3" y2="296.9"/>
		<line class="st72" x1="275.2" y1="238.2" x2="269.6" y2="296.9"/>
		<line class="st72" x1="290.4" y1="238.2" x2="283.9" y2="296.9"/>
		<line class="st72" x1="305.5" y1="238.2" x2="298.2" y2="296.9"/>
		<line class="st72" x1="320.7" y1="238.2" x2="312.5" y2="296.9"/>
		<line class="st72" x1="335.9" y1="238.2" x2="326.8" y2="296.9"/>
	</g>
	<path class="st42" d="M326.6,228.3c-7.5,2.3-15-0.7-22.4-1.3c-7.7-0.7-15.2,1.6-22.8,2.4c-15.2,1.6-30.7,0.4-45.9,0.3
		c-6.4,0-6.4,12.8,0,12.8c15.8,0.1,32,1.5,47.8-0.6c7.6-1,15-3,22.7-2c7.9,1,15.3,3.1,23.3,0.7C335.5,238.8,332.9,226.4,326.6,228.3
		z"/>
	<linearGradient id="SVGID_40_" gradientUnits="userSpaceOnUse" x1="232.0786" y1="235.375" x2="334.2214" y2="235.375">
		<stop  offset="0" style="stop-color:#E5F7FF"/>
		<stop  offset="0.2704" style="stop-color:#EEF7FF"/>
		<stop  offset="0.4286" style="stop-color:#E4F7FF"/>
		<stop  offset="1" style="stop-color:#EEF7FF"/>
	</linearGradient>
	<path class="st73" d="M238.3,240.3c7.5-1.7,15,0.5,22.4,1c7.7,0.5,15.2-1.2,22.8-1.8c15.2-1.2,30.7-0.3,45.9-0.2
		c6.4,0,6.4-9.4,0-9.5c-15.8-0.1-32-1.1-47.8,0.4c-7.6,0.7-15,2.2-22.7,1.5c-7.9-0.7-15.3-2.3-23.3-0.5
		C229.4,232.6,232,241.7,238.3,240.3z"/>
	<path class="st42" d="M24.4,239.6c7.5-2.5,15,0.7,22.4,1.5c7.7,0.7,15.2-1.8,22.8-2.7c15.2-1.7,30.7-0.4,45.9-0.4
		c6.4,0,6.4-14,0-14c-15.8-0.1-32-1.6-47.8,0.6c-7.6,1.1-15,3.2-22.7,2.2c-7.9-1.1-15.3-3.4-23.3-0.7
		C15.5,228.2,18.2,241.7,24.4,239.6z"/>
	<linearGradient id="SVGID_41_" gradientUnits="userSpaceOnUse" x1="18.2166" y1="232.425" x2="120.3595" y2="232.425">
		<stop  offset="0" style="stop-color:#E5F7FF"/>
		<stop  offset="0.2704" style="stop-color:#EEF7FF"/>
		<stop  offset="0.4286" style="stop-color:#E4F7FF"/>
		<stop  offset="1" style="stop-color:#EEF7FF"/>
	</linearGradient>
	<path class="st74" d="M24.4,237.3c7.5-1.7,15,0.5,22.4,1c7.7,0.5,15.2-1.2,22.8-1.8c15.2-1.2,30.7-0.3,45.9-0.2
		c6.4,0,6.4-9.4,0-9.5c-15.8-0.1-32-1.1-47.8,0.4c-7.6,0.7-15,2.2-22.7,1.5c-7.9-0.7-15.3-2.3-23.3-0.5
		C15.5,229.7,18.2,238.8,24.4,237.3z"/>
	
		<linearGradient id="SVGID_42_" gradientUnits="userSpaceOnUse" x1="185.3599" y1="590.67" x2="185.3599" y2="721.73" gradientTransform="matrix(1 0 0 1 -8.3599 -423.67)">
		<stop  offset="0" style="stop-color:#0F3044"/>
		<stop  offset="0.3" style="stop-color:#0F3044;stop-opacity:0"/>
		<stop  offset="0.7" style="stop-color:#0F3044;stop-opacity:0"/>
		<stop  offset="1" style="stop-color:#0F3044"/>
	</linearGradient>
	<polygon class="st75" points="327.2,297.5 26.8,297.5 16.8,232.5 26.8,167.5 327.2,167.5 337.2,232.5 	"/>
</g>
<g id="snow">
	<path class="st42" d="M323.9,66.7c2.2-2.6,1.4-7.5-2.5-8.3c0-0.6-0.1-1.2-0.2-1.8c0.8-1.2,1.1-2.8,0.8-4.3c2.9-1.5,3.2-5.9,1-8.1
		c-0.1-0.4-0.2-0.8-0.3-1.2c0.4-1,0.5-2.2,0.3-3.3c0.3-1.2,0.1-2.6-0.5-3.7c0.5-0.9,0.7-2.1,0.6-3.1c1.1-1.9,0.9-4.7-0.6-6.3
		c0-0.2,0-0.4,0-0.5c1.6-1.4,2.1-3.9,1.3-5.9c0.5-1.4,0.5-3.1-0.2-4.4c0.3-1.2,0.3-2.5-0.2-3.6c0.9-2.5,0.1-5.7-2.6-6.7
		c-0.8-1.3-2.1-2.3-4.1-2.3c-0.2,0-0.3,0-0.5,0c-0.2,0-0.3,0-0.5,0c-0.6,0-1.2,0.1-1.7,0.3c-0.8-0.6-1.7-0.9-3-0.9
		c-1,0-1.9,0.3-2.6,0.7c-0.9,0.1-1.7,0.4-2.3,0.9c-0.8-0.8-1.9-1.3-3.4-1.3c-0.2,0-0.5,0-0.7,0c-0.7-0.4-1.6-0.7-2.6-0.7
		c-1.1,0-1.9,0.3-2.6,0.7c-0.6-0.2-1.3-0.4-2-0.4c-0.8,0-1.5,0.2-2.1,0.4c-0.6-0.3-1.2-0.4-1.9-0.4h-0.3c-0.8-0.6-1.8-1-3-1
		c-1.7,0-2.9,0.7-3.7,1.7c-0.5-0.2-1.1-0.3-1.7-0.4c-0.6-0.2-1.2-0.3-1.9-0.3c-1.2,0-2.2,0.4-3,1c-0.8-1-2-1.6-3.7-1.6
		c-1.5,0-2.7,0.6-3.5,1.4c-0.9,0.1-1.6,0.4-2.2,0.9c-0.5-0.2-1.1-0.3-1.7-0.3c-0.2,0-0.4,0-0.6,0c-0.8-0.8-1.9-1.4-3.4-1.4
		c-0.7,0-1.3,0.1-1.8,0.3c-0.7-0.4-1.5-0.6-2.5-0.6c-1.7,0-2.9,0.7-3.7,1.7c-0.2,0-0.4,0-0.6,0c-0.9,0-1.7,0.2-2.3,0.5
		c-0.7-0.3-1.4-0.5-2.3-0.5c-0.2,0-0.5,0-0.7,0c-0.6-0.2-1.2-0.4-2-0.4c-0.5,0-1,0.1-1.4,0.2c-0.8-0.7-1.9-1.2-3.3-1.2
		c-1.1,0-2,0.3-2.7,0.8c-1.2-0.5-2.6-0.4-4.1,0.6c1.4-0.9-2.7-1.2-3.6-1.1c-0.7,0.1-1.3,0.3-1.8,0.5c-0.4-0.1-0.8-0.2-1.3-0.3
		c-1.6-0.1-3.3,1.3-4.6,1.5c0.5-0.2-0.9-1-1-1.1c-0.8-0.5-1.7-0.6-2.5-0.7c-2.3-0.3-4.4,0.4-6.6,0.5c-6.4,0.2-6.4,10.2,0,10
		c1.6-0.1,3.8-0.9,5.3-0.7c1.1,0.2,2.3,1.3,3.5,1.5c1.5,0.3,3.7,0.4,5-0.5c0.1-0.1,0.2-0.2,0.3-0.2c1.1,0.4,2,0.7,3.4,0.4
		c0.5-0.2,1-0.4,1.6-0.7c0.1,0,0.3,0.1,0.5,0.1c0.8,0.3,1.6,0.5,2.5,0.6c1.8,0.1,3.1-0.3,4.5-1.3c0.1-0.1,0.2-0.1,0.3-0.2
		c0.5,0.1,1,0.2,1.5,0.2c0.5,0,1-0.1,1.4-0.2c0.8,0.7,1.9,1.2,3.3,1.2c0.2,0,0.5,0,0.7,0c0.6,0.2,1.2,0.4,2,0.4
		c0.9,0,1.7-0.2,2.3-0.5c0.7,0.3,1.4,0.5,2.3,0.5c1.7,0,2.9-0.7,3.7-1.7c0.2,0,0.4,0,0.6,0c0.7,0,1.3-0.1,1.8-0.3
		c0.7,0.4,1.5,0.6,2.5,0.6c0.2,0,0.4,0,0.6,0c0.8,0.8,1.9,1.4,3.4,1.4c1.2,0,2.2-0.4,3-0.9c0.5,0.2,1.1,0.3,1.7,0.3
		c1.5,0,2.7-0.6,3.5-1.4c0.9-0.1,1.6-0.5,2.2-0.9c0.8,0.9,1.9,1.6,3.5,1.6c0.5,0.2,1.2,0.3,1.9,0.3c1.7,0,2.9-0.7,3.7-1.7
		c0.6,0.2,1.2,0.4,1.9,0.4c0,0,0,0,0.1,0c0.9,0.6,1.8,1,2.9,1h0.3c0.7,0,1.3-0.1,1.9-0.4c0.6,0.3,1.3,0.4,2.1,0.4
		c1.1,0,1.9-0.3,2.6-0.7c0.6,0.2,1.3,0.4,2,0.4c0.2,0,0.5,0,0.7,0c0.7,0.4,1.6,0.7,2.6,0.7c1.2,0,2.2-0.4,3-1
		c0.8,0.8,1.9,1.3,3.4,1.3c1,0,1.9-0.3,2.6-0.7c0.4,0,0.8-0.1,1.1-0.2c0.4,0.3,1,0.6,1.6,0.8c-0.3,1.2-0.1,2.5,0.4,3.6
		c-0.3,1-0.3,2.1,0,3.1c-0.4,0.4-0.7,0.8-1,1.3c-1.3,1.4-1.6,3.6-0.9,5.4c0.1,1.2,0.5,2.4,1.3,3.3c0,0.3,0,0.7,0,1
		c-0.9,1.6-0.9,3.6-0.1,5.2c-0.6,1.1-0.7,2.4-0.5,3.7c-0.2,1.1-0.1,2.3,0.3,3.3c-0.8,1.9-0.5,4.3,1,5.8c0,0.1,0,0.2,0.1,0.2
		c-2.2,1.1-2.9,3.8-2.2,6.1c-1.8,2.6-0.9,7.1,2.8,7.9c0,0.6,0.1,1.1,0.2,1.7c-1,1.2-1.4,2.9-1.1,4.5c-2.6,1.2-3.4,4.5-2.3,6.9
		c-1,2.1-0.6,4.8,1.2,6.3c-0.6,1.5-0.5,3.2,0.2,4.6c-0.4,1.2-0.4,2.6,0.1,3.8c-1.8,1.9-1.8,5.3,0,7.2c0,0.1,0,0.2,0,0.4
		c-0.7,1.9-0.4,4.3,1,5.7c-1.5,1.5-1.8,4-0.9,6c-2.2,1.8-2.4,5.4-0.6,7.5c-1,2-0.7,4.6,0.9,6.2c-1.6,2-1.5,5.2,0.3,7
		c-0.9,0.8-1.5,1.9-1.7,3c-1.3,1.6-1.4,4-0.5,5.9c-1.8,2.5-1,6.9,2.3,7.9c0.1,0.2,0.3,0.4,0.5,0.6c-1.5,1.2-2.1,3.4-1.6,5.3
		c-2.2,2.1-2,6.2,0.6,7.9c0.3,2.2,1.9,4.1,4.8,4.1c5.3,0,6.2-6.8,2.8-9.2c0-0.1,0-0.3-0.1-0.4c2-1.9,2-5.5,0-7.4
		c2.6-2.2,2.3-7.1-1-8.6c0.3-0.6,0.6-1.2,0.7-1.8c1.5-2,1.4-5.2-0.4-6.9c2.2-1.8,2.4-5.7,0.3-7.7c1.5-1.9,1.5-5-0.1-6.8
		c0.7-1.5,0.8-3.3,0.1-4.8c2.3-1.8,2.4-5.7,0.4-7.7c1.1-1.1,1.6-2.8,1.4-4.3c0.7-1.9,0.4-4.1-1-5.6c0-0.6-0.1-1.2-0.4-1.8
		c1.5-1.6,1.8-4.2,0.8-6.2c0.6-2,0.2-4.4-1.4-5.7c0.6-1.4,0.5-3-0.1-4.4c0.5-1,0.6-2.3,0.4-3.4C323.8,71.8,324.6,69,323.9,66.7z"/>
	<linearGradient id="SVGID_43_" gradientUnits="userSpaceOnUse" x1="212.7078" y1="81.603" x2="322.5522" y2="81.603">
		<stop  offset="0" style="stop-color:#E5F7FF"/>
		<stop  offset="0.2704" style="stop-color:#EEF7FF"/>
		<stop  offset="0.4286" style="stop-color:#E4F7FF"/>
		<stop  offset="1" style="stop-color:#EEF7FF"/>
	</linearGradient>
	<path class="st76" d="M321.4,65.7c2.1-2.4,1.3-7-2.3-7.8c0-0.6-0.1-1.1-0.2-1.6c0.8-1.1,1-2.6,0.7-4c2.7-1.4,3-5.5,1-7.6
		c-0.1-0.4-0.2-0.8-0.3-1.1c0.4-1,0.5-2.1,0.3-3.1c0.2-1.2,0.1-2.4-0.4-3.5c0.5-0.9,0.6-1.9,0.5-2.9c1-1.8,0.8-4.4-0.6-5.9
		c0-0.2,0-0.3,0-0.5c1.5-1.3,1.9-3.7,1.2-5.5c0.5-1.3,0.4-2.9-0.2-4.2c0.3-1.1,0.3-2.3-0.1-3.4c0.9-2.3,0.1-5.3-2.5-6.3
		c-0.7-1.3-2-2.2-3.9-2.2c-0.2,0-0.3,0-0.5,0c-0.2,0-0.3,0-0.5,0c-0.6,0-1.1,0.1-1.6,0.3c-0.7-0.5-1.6-0.9-2.8-0.9
		c-1,0-1.8,0.3-2.5,0.7c-0.9,0.1-1.6,0.4-2.2,0.8c-0.7-0.7-1.8-1.2-3.2-1.2c-0.2,0-0.4,0-0.7,0c-0.7-0.4-1.5-0.7-2.5-0.7
		c-1,0-1.8,0.3-2.5,0.7c-0.5-0.2-1.2-0.4-1.9-0.4c-0.7,0-1.4,0.1-1.9,0.4c-0.6-0.2-1.2-0.4-1.8-0.4h-0.3c-0.7-0.6-1.7-0.9-2.9-0.9
		c-1.6,0-2.7,0.6-3.5,1.6c-0.5-0.2-1-0.3-1.6-0.3c-0.5-0.2-1.1-0.3-1.8-0.3c-1.2,0-2.1,0.3-2.8,0.9c-0.8-0.9-1.9-1.5-3.4-1.5
		c-1.4,0-2.5,0.5-3.2,1.3c-0.8,0.1-1.5,0.4-2,0.8c-0.5-0.2-1-0.3-1.6-0.3c-0.2,0-0.4,0-0.5,0c-0.8-0.8-1.8-1.3-3.2-1.3
		c-0.6,0-1.2,0.1-1.7,0.3c-0.6-0.4-1.4-0.6-2.4-0.6c-1.6,0-2.7,0.6-3.5,1.6c-0.2,0-0.4,0-0.6,0c-0.9,0-1.6,0.2-2.2,0.5
		c-0.6-0.3-1.3-0.5-2.2-0.5c-0.2,0-0.4,0-0.6,0c-0.5-0.2-1.2-0.4-1.9-0.4c-0.5,0-0.9,0.1-1.3,0.2c-0.7-0.7-1.8-1.1-3.1-1.1
		c-1,0-1.9,0.3-2.6,0.7c-1.1-0.5-2.5-0.4-3.9,0.5c1.3-0.9-2.5-1.1-3.3-1c-0.7,0.1-1.2,0.3-1.7,0.5c-0.4-0.1-0.8-0.2-1.2-0.3
		c-1.5-0.1-3.1,1.2-4.3,1.4c0.4-0.2-0.9-1-1-1c-0.7-0.5-1.6-0.5-2.4-0.6c-2.1-0.3-4.1,0.4-6.2,0.5c-6,0.2-6.1,9.6,0,9.4
		c1.5-0.1,3.5-0.8,5-0.6c1.1,0.1,2.2,1.2,3.3,1.4c1.4,0.3,3.5,0.4,4.7-0.5c0.1-0.1,0.2-0.1,0.3-0.2c1,0.4,1.9,0.6,3.2,0.3
		c0.5-0.2,1-0.4,1.5-0.6c0.1,0,0.3,0.1,0.4,0.1c0.7,0.3,1.5,0.5,2.3,0.5c1.7,0.1,2.9-0.3,4.3-1.2c0.1-0.1,0.2-0.1,0.2-0.2
		c0.4,0.1,0.9,0.2,1.4,0.2c0.5,0,0.9-0.1,1.3-0.2c0.7,0.7,1.8,1.1,3.1,1.1c0.2,0,0.4,0,0.6,0c0.5,0.2,1.2,0.4,1.9,0.4
		c0.9,0,1.6-0.2,2.2-0.5c0.6,0.3,1.3,0.5,2.2,0.5c1.6,0,2.7-0.6,3.5-1.6c0.2,0,0.4,0,0.6,0c0.6,0,1.2-0.1,1.7-0.3
		c0.6,0.4,1.4,0.6,2.4,0.6c0.2,0,0.4,0,0.5,0c0.8,0.8,1.8,1.3,3.2,1.3c1.1,0,2.1-0.3,2.8-0.9c0.5,0.2,1,0.3,1.6,0.3
		c1.4,0,2.5-0.5,3.2-1.3c0.8-0.1,1.5-0.4,2-0.9c0.7,0.9,1.8,1.5,3.3,1.5c0.5,0.2,1.1,0.3,1.8,0.3c1.6,0,2.7-0.6,3.5-1.6
		c0.5,0.2,1.1,0.3,1.8,0.3c0,0,0,0,0,0c0.8,0.6,1.7,0.9,2.8,0.9h0.3c0.6,0,1.2-0.1,1.8-0.4c0.6,0.2,1.2,0.4,1.9,0.4
		c1,0,1.8-0.3,2.5-0.7c0.5,0.2,1.2,0.4,1.9,0.4c0.2,0,0.4,0,0.7,0c0.7,0.4,1.5,0.7,2.5,0.7c1.2,0,2.1-0.3,2.8-0.9
		c0.7,0.7,1.8,1.2,3.2,1.2c1,0,1.8-0.2,2.5-0.7c0.4,0,0.7-0.1,1-0.2c0.4,0.3,0.9,0.6,1.5,0.7c-0.2,1.1-0.1,2.4,0.4,3.4
		c-0.3,0.9-0.3,2,0,2.9c-0.4,0.4-0.7,0.8-0.9,1.2c-1.2,1.3-1.5,3.4-0.9,5.1c0.1,1.2,0.5,2.3,1.3,3.1c0,0.3,0,0.6,0,1
		c-0.8,1.5-0.9,3.4-0.1,4.9c-0.5,1-0.7,2.3-0.4,3.5c-0.2,1-0.1,2.1,0.3,3.1c-0.8,1.8-0.4,4.1,0.9,5.5c0,0.1,0,0.1,0.1,0.2
		c-2,1.1-2.7,3.6-2.1,5.7c-1.7,2.5-0.8,6.7,2.6,7.4c0,0.5,0.1,1.1,0.2,1.6c-1,1.1-1.3,2.8-1,4.2c-2.5,1.1-3.2,4.2-2.1,6.5
		c-0.9,1.9-0.5,4.5,1.1,5.9c-0.5,1.4-0.5,3,0.2,4.3c-0.4,1.2-0.3,2.5,0.1,3.6c-1.7,1.8-1.7,5,0,6.8c0,0.1,0,0.2,0,0.3
		c-0.7,1.8-0.4,4,1,5.4c-1.4,1.4-1.7,3.8-0.9,5.6c-2.1,1.6-2.3,5.1-0.5,7.1c-0.9,1.8-0.7,4.3,0.8,5.8c-1.5,1.9-1.4,4.9,0.3,6.6
		c-0.9,0.7-1.4,1.7-1.6,2.8c-1.2,1.5-1.3,3.8-0.4,5.5c-1.7,2.4-1,6.5,2.2,7.4c0.1,0.2,0.3,0.4,0.5,0.5c-1.4,1.2-1.9,3.2-1.5,4.9
		c-2,2-1.8,5.8,0.5,7.4c0.3,2.1,1.8,3.9,4.5,3.9c5,0,5.9-6.4,2.6-8.6c0-0.1,0-0.3-0.1-0.4c1.8-1.8,1.8-5.1,0-7c2.5-2,2.2-6.6-0.9-8
		c0.3-0.5,0.5-1.1,0.6-1.7c1.4-1.9,1.3-4.8-0.3-6.5c2.1-1.7,2.2-5.3,0.3-7.2c1.4-1.8,1.4-4.7-0.1-6.4c0.7-1.4,0.7-3.1,0.1-4.5
		c2.1-1.7,2.3-5.3,0.4-7.2c1-1,1.5-2.6,1.3-4.1c0.7-1.7,0.4-3.9-0.9-5.2c0-0.6-0.1-1.2-0.4-1.7c1.4-1.5,1.7-4,0.7-5.8
		c0.6-1.9,0.2-4.1-1.3-5.4c0.5-1.3,0.5-2.9-0.1-4.1c0.5-1,0.6-2.1,0.4-3.2C321.2,70.5,322,67.9,321.4,65.7z"/>
	<path class="st42" d="M143.3,5.5c-2.8-2.2-5.8-3.1-8.9-2.1c-2.5-0.4-4.7,0.3-7.3,0.9c-3.2,0.8-6-0.7-9.3-0.8c-4-0.2-8,0.1-12,0.1
		c-3.7,0-7.7,0.6-11.1-0.8c-0.9-0.4-2-0.3-3,0.1c-0.4-0.1-0.9-0.2-1.2-0.3c-1.2-0.4-2-0.5-3.3-0.3c-1.8,0.3-3.2,0.8-4.9,1
		c-0.8-0.4-1.6-0.7-2.6-0.8c-0.8-0.1-1.7,0-2.5,0.2c-0.1,0-0.3,0.1-0.4,0.1c-1.5-1.1-3.7-1.2-5.5-0.3c-2.9,1.3-5.9,0.1-8.7,0.2
		C60.8,2,58.8,2.2,56.9,3c-1.5-1-3.6-1.3-5.2-0.4c-1.5-1.2-4-1.4-5.6-0.3c-0.2,0.2-0.5,0.3-0.7,0.5c-1.7-0.8-3.6-0.7-5.1,0.5
		c-2.3-0.7-5-0.4-7.4,0.8c-2.4,1.2-2.9,3.5-2.2,5.5c-1.6,2-1.5,5.2,0.3,7.1c-2.2,1.8-2.4,5.5-0.4,7.6c0.1,0.4,0.3,0.7,0.5,1
		c-1.4,1.1-2,3-1.8,4.8c-1.3,1.7-1.4,4.4-0.2,6.2c-0.7,1.5-0.7,3.2,0,4.7c-0.9,1.9-0.6,4.3,0.8,5.8c-2.3,2.1-2.1,6.4,0.6,8.1
		c-1.9,1.4-2.3,4.3-1.4,6.4c-0.4,1.7,0,3.7,1.2,5c-0.4,0.9-0.5,1.9-0.3,2.9c-0.7,1.7-0.5,3.8,0.6,5.3c-2.3,1.7-2.6,5.4-0.9,7.5
		c-0.8,1.7-0.6,3.9,0.5,5.5c0,0.6,0.1,1.2,0.2,1.8c-0.5,1.5-0.3,3.3,0.6,4.7c-0.8,1.3-1.1,2.9-0.7,4.4c-1.2,1.9-1.1,4.6,0.3,6.3
		c-0.8,1.8-0.6,4.1,0.7,5.7c-0.5,1-0.6,2.2-0.4,3.2c-1,1.7-1,4,0.1,5.7c-2.3,2.2-2,6.6,0.9,8.2c-3,1.3-3.5,5.6-1.6,8
		c0,0.1,0,0.2,0,0.3v0.3c0,0.7,0.2,1.3,0.4,2c-1.6,2.3-1.1,5.9,1.4,7.4c-2.5,1.5-2.9,5.2-1.3,7.5c-0.7,0.9-1.2,2-1.2,3.2
		c0,1,0.4,2.1,1,3c-0.3,1-0.4,2.1-0.1,3c0,0.2,0.1,0.3,0.2,0.5c0.5,1.9,2.1,3.5,4.6,3.5c2.3,0,3.8-1.3,4.5-3
		c0.2-0.3,0.4-0.5,0.5-0.8c0.7-1,0.8-2.7,0.5-3.9c-0.2-0.6-0.5-1.2-0.9-1.8c0.1-0.3,0.1-0.6,0.1-0.9c0-1.1-0.5-2.4-1.2-3.3
		c1.3-2.3,0.8-5.6-1.6-7.1c2.1-1.2,2.7-4,2-6.2c0.7-0.9,1.1-2,1.1-3.1v-0.3c0-1.3-0.6-2.6-1.5-3.5c0,0,0,0-0.1,0
		c0-1.8-0.8-3.6-2.4-4.5c2.6-1.2,3.4-4.5,2.2-7c2.1-1.4,2.7-4.3,1.7-6.6c0.4-1.6,0.1-3.5-1-4.8c0.8-1.8,0.6-4.1-0.7-5.6
		c0.5-1.1,0.6-2.5,0.3-3.7c1.1-1.7,1.1-4.2,0-5.9c0.9-1.3,1.1-3.1,0.6-4.7c0.5-1.6,0.2-3.5-0.8-4.8c0-1.3-0.3-2.6-1.1-3.5
		c0.8-1.7,0.6-3.9-0.5-5.5c1.6-1.1,2.2-3.2,1.9-5.1c0.8-1.9,0.4-4.3-1-5.7c0.5-1.3,0.5-2.7,0-4c3.3-1.9,3.1-7.4-0.4-9
		c0.3-1.6-0.1-3.4-1.1-4.6c1.7-1.5,2-4.2,1.1-6.2c0.8-1.7,0.7-3.8-0.3-5.3c0.5-1,0.6-2.1,0.5-3.1c1.3-1.7,1.4-4.4,0.2-6.2
		c2.3-1.8,2.4-5.5,0.5-7.6c-0.2-0.7-0.6-1.3-1.1-1.8c0.7-0.6,1.2-1.3,1.5-2.1c1.8,0.9,4.1,0.4,5.7-1c1,0.2,2,0.1,2.9-0.4
		c1.5,1.8,4.2,2.4,6.3,1.2c2.1,1.1,4.8,0.8,6.4-1.2c1.7,0.5,3.7,0.1,4.9-1.2c-0.9,1-0.7,0.4,1,0.7c1.1,0.2,2.4,0.3,3.5,0.3
		c1.1-0.1,2.1-0.2,3.1-0.5c1,0.4,2.1,0.7,3.3,0.6c0.8-0.1,1.6-0.2,2.4-0.4c0.1,0,0.1,0,0.2,0c1.2,0.4,2.7,0.6,2.9,0.7
		c1.7,0.1,3.5,0,5.1-0.4c0.8-0.2,1.6-0.5,2.4-0.8c-0.6,0.7-0.3,1.1,0.9,1.1c1.6,0.4,3.2,0.4,4.5-0.1c7.4,1.9,16.1-0.3,23.6,0.3
		c3.8,0.3,6.7,1.8,10.6,0.8c1.8-0.4,3.1-0.9,4.9-0.9c0.9,0.2,1.8,0.2,2.7,0c0.5-0.1,0.8-0.2,1-0.3C142,15.8,148.1,9.3,143.3,5.5z"/>
	<linearGradient id="SVGID_44_" gradientUnits="userSpaceOnUse" x1="30.8507" y1="80.1662" x2="141.072" y2="80.1662">
		<stop  offset="0" style="stop-color:#E5F7FF"/>
		<stop  offset="0.2704" style="stop-color:#EEF7FF"/>
		<stop  offset="0.4286" style="stop-color:#E4F7FF"/>
		<stop  offset="1" style="stop-color:#EEF7FF"/>
	</linearGradient>
	<path class="st77" d="M139.5,6.4c-2.6-2.1-5.4-2.9-8.4-2c-2.3-0.4-4.4,0.3-6.8,0.9c-3,0.8-5.7-0.6-8.8-0.7
		c-3.8-0.2-7.6,0.1-11.3,0.1c-3.5,0-7.2,0.6-10.5-0.7c-0.9-0.3-1.9-0.3-2.8,0.1c-0.4-0.1-0.8-0.2-1.1-0.3c-1.2-0.4-1.9-0.4-3.1-0.2
		c-1.7,0.2-3,0.8-4.6,0.9c-0.7-0.4-1.5-0.6-2.5-0.7c-0.8-0.1-1.6,0-2.4,0.2c-0.1,0-0.3,0.1-0.4,0.1c-1.4-1-3.5-1.1-5.2-0.3
		c-2.8,1.3-5.5,0.1-8.2,0.2C61.6,3,59.7,3.2,57.9,4c-1.4-1-3.4-1.2-4.9-0.4c-1.4-1.1-3.7-1.3-5.2-0.3c-0.2,0.1-0.4,0.3-0.7,0.4
		c-1.6-0.8-3.4-0.6-4.8,0.4c-2.2-0.7-4.7-0.4-7,0.8c-2.3,1.2-2.7,3.3-2.1,5.1c-1.6,1.9-1.5,4.9,0.3,6.7c-2.1,1.7-2.2,5.2-0.4,7.1
		c0.1,0.3,0.3,0.7,0.5,1c-1.4,1-1.9,2.9-1.7,4.5c-1.3,1.6-1.3,4.1-0.2,5.8c-0.7,1.4-0.7,3.1,0,4.4c-0.8,1.8-0.6,4.1,0.7,5.5
		c-2.2,2-2,6,0.6,7.6c-1.8,1.4-2.2,4-1.3,6c-0.4,1.6,0,3.5,1.2,4.7c-0.3,0.9-0.4,1.8-0.3,2.8c-0.7,1.6-0.5,3.6,0.6,5
		c-2.2,1.6-2.5,5.1-0.8,7.1c-0.7,1.6-0.6,3.7,0.5,5.2c0,0.6,0.1,1.2,0.2,1.7c-0.4,1.5-0.2,3.1,0.6,4.4c-0.8,1.2-1,2.8-0.7,4.1
		c-1.1,1.8-1,4.3,0.3,5.9c-0.8,1.7-0.6,3.9,0.6,5.3c-0.4,0.9-0.6,2-0.4,3.1c-0.9,1.6-0.9,3.8,0.1,5.3c-2.1,2.1-1.9,6.2,0.9,7.7
		c-2.9,1.3-3.3,5.3-1.5,7.5c0,0.1,0,0.2,0,0.3v0.3c0,0.6,0.1,1.3,0.4,1.8c-1.5,2.1-1,5.6,1.3,7c-2.4,1.4-2.8,4.9-1.2,7.1
		c-0.7,0.8-1.1,1.9-1.1,3c0,0.9,0.3,2,0.9,2.8c-0.3,0.9-0.3,2-0.1,2.9c0,0.2,0.1,0.3,0.2,0.5c0.5,1.8,1.9,3.3,4.4,3.3
		c2.2,0,3.6-1.2,4.2-2.8c0.2-0.3,0.3-0.5,0.5-0.8c0.7-1,0.8-2.5,0.5-3.6c-0.2-0.6-0.5-1.2-0.9-1.7c0.1-0.3,0.1-0.6,0.1-0.8
		c0-1-0.4-2.3-1.1-3.1c1.2-2.1,0.8-5.3-1.5-6.7c2-1.2,2.6-3.8,1.8-5.8c0.7-0.8,1.1-1.8,1.1-3V129c0-1.2-0.5-2.5-1.4-3.3c0,0,0,0,0,0
		c0-1.7-0.7-3.4-2.3-4.2c2.5-1.1,3.2-4.3,2.1-6.6c2-1.3,2.5-4.1,1.6-6.2c0.4-1.5,0.1-3.3-0.9-4.5c0.8-1.7,0.6-3.9-0.6-5.3
		c0.5-1.1,0.6-2.3,0.3-3.5c1.1-1.6,1.1-4,0-5.6c0.8-1.3,1-2.9,0.6-4.4c0.5-1.5,0.2-3.3-0.7-4.6c0-1.2-0.3-2.4-1.1-3.3
		c0.7-1.6,0.6-3.7-0.5-5.2c1.5-1.1,2.1-3,1.8-4.8c0.7-1.8,0.4-4-0.9-5.4c0.5-1.2,0.5-2.6,0-3.8c3.1-1.8,2.9-7-0.4-8.5
		c0.3-1.5-0.1-3.2-1.1-4.3c1.6-1.4,1.9-3.9,1-5.8c0.7-1.6,0.6-3.6-0.3-5c0.4-0.9,0.6-1.9,0.4-2.9c1.3-1.6,1.3-4.1,0.2-5.8
		c2.1-1.7,2.3-5.2,0.5-7.1c-0.2-0.7-0.6-1.3-1.1-1.7c0.7-0.5,1.1-1.2,1.4-2c1.7,0.8,3.9,0.4,5.4-0.9c0.9,0.2,1.9,0.1,2.8-0.4
		c1.4,1.7,4,2.2,5.9,1.2c2,1.1,4.5,0.8,6-1.1c1.6,0.5,3.5,0.1,4.6-1.2c-0.8,1-0.6,0.4,0.9,0.7c1.1,0.2,2.3,0.3,3.3,0.3
		c1,0,2-0.2,2.9-0.5c0.9,0.4,2,0.6,3.1,0.6c0.8-0.1,1.5-0.2,2.3-0.4c0.1,0,0.1,0,0.2,0c1.1,0.3,2.5,0.6,2.7,0.6
		c1.6,0.1,3.3,0,4.8-0.4c0.8-0.2,1.5-0.5,2.3-0.8c-0.5,0.7-0.3,1,0.9,1.1c1.5,0.4,3,0.4,4.3-0.1c7,1.8,15.1-0.3,22.2,0.3
		c3.6,0.3,6.3,1.7,10,0.8c1.7-0.4,3-0.8,4.6-0.9c0.8,0.2,1.7,0.2,2.5,0c0.5-0.1,0.8-0.2,1-0.3C138.2,16.1,143.9,10,139.5,6.4z"/>
	<linearGradient id="SVGID_45_" gradientUnits="userSpaceOnUse" x1="246.1478" y1="53.9553" x2="260.1245" y2="53.9553">
		<stop  offset="0" style="stop-color:#E5F7FF"/>
		<stop  offset="0.2704" style="stop-color:#EEF7FF"/>
		<stop  offset="0.4286" style="stop-color:#E4F7FF"/>
		<stop  offset="1" style="stop-color:#EEF7FF"/>
	</linearGradient>
	<path class="st78" d="M259.7,52.6c0.7-1.8,0.3-4.3-1.1-5.6c-2.2-2-4.9-1.7-7.1,0c-1.7,1.3-3.2,3.1-4.2,5c-0.9,1.6-1.5,3.5-0.9,5.3
		c0.5,1.6,1.6,3,3.1,3.9c2.7,1.6,6.4,1.1,8.6-1.1C260.1,58.2,260.6,55.2,259.7,52.6z"/>
	<linearGradient id="SVGID_46_" gradientUnits="userSpaceOnUse" x1="265.6624" y1="52.1249" x2="281.911" y2="52.1249">
		<stop  offset="0" style="stop-color:#E5F7FF"/>
		<stop  offset="0.2704" style="stop-color:#EEF7FF"/>
		<stop  offset="0.4286" style="stop-color:#E4F7FF"/>
		<stop  offset="1" style="stop-color:#EEF7FF"/>
	</linearGradient>
	<path class="st79" d="M281.7,54.8c-0.8-2.4-1.9-4.2-3.5-6.2c-0.5-0.6-1.2-1-1.9-1.2c-0.3-2-1.6-3.8-3.6-4.3
		c-2.7-0.6-5.4,0.8-6.2,3.5c-0.9,3.3-1.4,7,0.4,10.1c2.1,3.6,6.1,4.6,10,4.4C279.9,61.1,282.7,58,281.7,54.8z"/>
	<linearGradient id="SVGID_47_" gradientUnits="userSpaceOnUse" x1="245.0382" y1="74.4882" x2="261.0337" y2="74.4882">
		<stop  offset="0" style="stop-color:#E5F7FF"/>
		<stop  offset="0.2704" style="stop-color:#EEF7FF"/>
		<stop  offset="0.4286" style="stop-color:#E4F7FF"/>
		<stop  offset="1" style="stop-color:#EEF7FF"/>
	</linearGradient>
	<path class="st80" d="M261,74c0-1.4,0-2.6-0.5-3.9c-0.8-2-2.8-3.2-5-3.3c-2.2,0-4.6,0.7-6.8,1.1c-2.6,0.5-4.3,3.7-3.5,6.2
		c0.5,1.5,1.4,2.5,2.6,3.1c0.4,0.7,1,1.4,1.7,1.9c2.2,1.6,4.6,3.8,7.5,2.8c1.8-0.6,3.2-2,3.7-3.9C261.1,76.7,261,75.3,261,74z"/>
	<linearGradient id="SVGID_48_" gradientUnits="userSpaceOnUse" x1="267.3221" y1="74.0958" x2="281.7551" y2="74.0958">
		<stop  offset="0" style="stop-color:#E5F7FF"/>
		<stop  offset="0.2704" style="stop-color:#EEF7FF"/>
		<stop  offset="0.4286" style="stop-color:#E4F7FF"/>
		<stop  offset="1" style="stop-color:#EEF7FF"/>
	</linearGradient>
	<path class="st81" d="M281.7,72c-0.3-3-2.1-5.5-5.1-6.3c-2.1-0.6-4.3-0.1-5.9,1.2c-2,0.7-3.5,2.4-3.5,4.7c0,2.1,0,4.2,0,6.2
		c0,3.2,3.2,5.8,6.3,4.8C278,81.3,282.1,76.7,281.7,72z"/>
	<linearGradient id="SVGID_49_" gradientUnits="userSpaceOnUse" x1="143.585" y1="68.2233" x2="148.415" y2="68.2233">
		<stop  offset="0" style="stop-color:#E5F7FF"/>
		<stop  offset="0.2704" style="stop-color:#EEF7FF"/>
		<stop  offset="0.4286" style="stop-color:#E4F7FF"/>
		<stop  offset="1" style="stop-color:#EEF7FF"/>
	</linearGradient>
	<path class="st82" d="M146,65.7c-3.2,0-3.2,5,0,5C149.2,70.7,149.2,65.7,146,65.7z"/>
	<linearGradient id="SVGID_50_" gradientUnits="userSpaceOnUse" x1="234.5035" y1="129.4597" x2="244.8477" y2="129.4597">
		<stop  offset="0" style="stop-color:#E5F7FF"/>
		<stop  offset="0.2704" style="stop-color:#EEF7FF"/>
		<stop  offset="0.4286" style="stop-color:#E4F7FF"/>
		<stop  offset="1" style="stop-color:#EEF7FF"/>
	</linearGradient>
	<path class="st83" d="M240.3,124c-1-0.2-1.9,0.1-2.4,0.8c-0.3,0-0.6,0-0.9,0.1c-1.3,0.4-2.1,1.7-1.7,3.1c0,0.2,0.1,0.3,0.1,0.5
		c0,0.2,0,0.5,0,0.7c-0.2,0.3-0.3,0.5-0.5,0.8c-0.5,1-0.7,2.1-0.2,3.2c1.2,2.8,4.4,2.1,6.3,0.6c1.7-1.4,3.9-2.9,3.8-5.3
		C244.8,125.8,242.5,124.5,240.3,124z"/>
	<linearGradient id="SVGID_51_" gradientUnits="userSpaceOnUse" x1="247.0824" y1="129.6834" x2="286.409" y2="129.6834">
		<stop  offset="0" style="stop-color:#E5F7FF"/>
		<stop  offset="0.2704" style="stop-color:#EEF7FF"/>
		<stop  offset="0.4286" style="stop-color:#E4F7FF"/>
		<stop  offset="1" style="stop-color:#EEF7FF"/>
	</linearGradient>
	<path class="st84" d="M284,127.1c-3,0.1-8.7,1.2-11.5,0c-0.8-0.3-1.8-0.5-2.6,0c-1-0.3-2.1-0.6-3.2-0.9c-1.1-0.3-2.2,0.2-2.8,1.1
		c-0.2,0.4-1.1,0.8-2,1.2c0-0.1-0.1-0.1-0.1-0.2c-0.6-1.3-1.9-1.5-3-1c-0.5-0.5-1.1-0.9-1.9-1.1c-1.5-0.4-2.4,0.3-3.5,0.8
		c-0.8-1.2-1.4-2.1-3.4-2c-1.2,0.1-2,0.7-2.4,1.8c-0.4,1.1-0.4,2.1-0.6,3.3c-0.3,2.4,2.5,3,4.1,1.7c0.3,0.3,0.7,0.5,0.9,0.5
		c0.9,0.3,3.7-1.1,4-0.3c0.5,1.3,1.9,2.1,3.1,1.7c0.8,0.5,1.9,0.5,2.7,0.1c2-1.1,3.5-1.3,4.8-2.3c0.6,0.3,1.1,0.6,1.8,0.8
		c0.1,0,1.3-0.1,1-0.2c0.8,0.4,1.9,0.5,2.7-0.1c3.8,0.9,8.1,0.1,11.9,0C287.2,132.1,287.2,127.1,284,127.1z"/>
	<linearGradient id="SVGID_52_" gradientUnits="userSpaceOnUse" x1="288.9184" y1="130.2233" x2="293.7483" y2="130.2233">
		<stop  offset="0" style="stop-color:#E5F7FF"/>
		<stop  offset="0.2704" style="stop-color:#EEF7FF"/>
		<stop  offset="0.4286" style="stop-color:#E4F7FF"/>
		<stop  offset="1" style="stop-color:#EEF7FF"/>
	</linearGradient>
	<path class="st85" d="M291.3,127.7c-3.2,0-3.2,5,0,5C294.6,132.7,294.6,127.7,291.3,127.7z"/>
</g>
</svg>
