<?xml version="1.0" encoding="utf-8"?>
<!-- Generator: Adobe Illustrator 16.0.0, SVG Export Plug-In . SVG Version: 6.00 Build 0)  -->
<!DOCTYPE svg PUBLIC "-//W3C//DTD SVG 1.1//EN" "http://www.w3.org/Graphics/SVG/1.1/DTD/svg11.dtd">
<svg version="1.1" id="Layer_1" xmlns="http://www.w3.org/2000/svg" xmlns:xlink="http://www.w3.org/1999/xlink" x="0px" y="0px"
	 width="354px" height="394.167px" viewBox="0 0 354 394.167" enable-background="new 0 0 354 394.167" xml:space="preserve">
<g>
	<g>
		
			<radialGradient id="SVGID_1_" cx="183.8606" cy="326.3892" r="155.7575" gradientTransform="matrix(1 0 0 -1 -8.3599 418.2217)" gradientUnits="userSpaceOnUse">
			<stop  offset="0" style="stop-color:#838082"/>
			<stop  offset="1" style="stop-color:#686868"/>
		</radialGradient>
		<rect x="32.369" y="14.166" fill="url(#SVGID_1_)" stroke="#2D2D2D" stroke-miterlimit="10" width="286.263" height="155.334"/>
		<g>
			<path opacity="0.2" fill="#183049" enable-background="new    " d="M26.37,161.201c0,0,0-151.941,0-155.571
				c0-2.63,2.962-5.568,7.587-5.568c2.5,0,108.34-0.062,108.34-0.062l3.729,3.916L36.303,14.166v147.035H26.37z"/>
			<path opacity="0.2" fill="#183049" enable-background="new    " d="M144.027,17.396c0,0-91.048,1.347-94.723,6.68
				C46.314,28.416,45.73,170.5,45.73,170.5H34.582V12.416h106.083L144.027,17.396z"/>
			<g>
				<polygon fill="#A05547" stroke="#82291D" stroke-miterlimit="10" points="146.027,8.166 36.303,8.166 36.304,170.098 
					44.037,170.098 44.037,16.898 144.027,16.898 				"/>
				<line fill="none" stroke="#82291D" stroke-miterlimit="10" x1="44.037" y1="16.898" x2="40.998" y2="14.166"/>
				<polygon opacity="0.7" fill="#82291D" enable-background="new    " points="40.998,170.098 44.033,17.166 145.005,14.166 
					37.332,14.166 				"/>
			</g>
			<g>
				<path fill="#3B527A" stroke="#162842" stroke-miterlimit="10" d="M141.331,2.166H33.997c-2.75,0-5,2.25-5,5l0.001,162.832h12
					V14.166h100.333c2.75,0,5-2.25,5-5v-2C146.331,4.416,144.081,2.166,141.331,2.166z"/>
				<g>
					
						<linearGradient id="SVGID_2_" gradientUnits="userSpaceOnUse" x1="37.3572" y1="332.1401" x2="154.6912" y2="332.1401" gradientTransform="matrix(1 0 0 -1 -8.3599 418.2217)">
						<stop  offset="0" style="stop-color:#294060"/>
						<stop  offset="0.155" style="stop-color:#294060;stop-opacity:0"/>
						<stop  offset="0.835" style="stop-color:#294060;stop-opacity:0"/>
						<stop  offset="1" style="stop-color:#294060"/>
					</linearGradient>
					<path fill="url(#SVGID_2_)" d="M141.331,2.166H33.997c-2.75,0-5,2.25-5,5l0.001,162.832h12V14.166h100.333c2.75,0,5-2.25,5-5
						v-2C146.331,4.416,144.081,2.166,141.331,2.166z"/>
					<g>
						<line fill="none" stroke="#162842" stroke-miterlimit="10" x1="58.33" y1="14.166" x2="58.33" y2="2.166"/>
						<line fill="none" stroke="#162842" stroke-miterlimit="10" x1="87.664" y1="14.166" x2="87.664" y2="2.166"/>
						<line fill="none" stroke="#162842" stroke-miterlimit="10" x1="116.998" y1="14.166" x2="116.998" y2="2.166"/>
						<g>
							<line fill="none" stroke="#162842" stroke-miterlimit="10" x1="28.998" y1="170.055" x2="40.998" y2="170.055"/>
							<line fill="none" stroke="#162842" stroke-miterlimit="10" x1="28.998" y1="144.074" x2="40.998" y2="144.074"/>
							<line fill="none" stroke="#162842" stroke-miterlimit="10" x1="28.998" y1="118.092" x2="40.998" y2="118.092"/>
							<line fill="none" stroke="#162842" stroke-miterlimit="10" x1="28.998" y1="92.11" x2="40.998" y2="92.11"/>
							<line fill="none" stroke="#162842" stroke-miterlimit="10" x1="28.998" y1="66.129" x2="40.998" y2="66.129"/>
							<line fill="none" stroke="#162842" stroke-miterlimit="10" x1="28.998" y1="40.147" x2="40.998" y2="40.147"/>
							<line fill="none" stroke="#162842" stroke-miterlimit="10" x1="28.998" y1="14.166" x2="40.998" y2="14.166"/>
						</g>
					</g>
					<g>
						
							<linearGradient id="SVGID_3_" gradientUnits="userSpaceOnUse" x1="34.7688" y1="261.1411" x2="44.7681" y2="261.3911" gradientTransform="matrix(1 0 0 -1 -8.3599 418.2217)">
							<stop  offset="0" style="stop-color:#FFFFFF;stop-opacity:0.4"/>
							<stop  offset="1" style="stop-color:#FFFFFF;stop-opacity:0"/>
						</linearGradient>
						<rect x="30.332" y="145.75" fill="url(#SVGID_3_)" width="8.5" height="22.25"/>
						
							<linearGradient id="SVGID_4_" gradientUnits="userSpaceOnUse" x1="34.7698" y1="287.0845" x2="44.7691" y2="287.3345" gradientTransform="matrix(1 0 0 -1 -8.3599 418.2217)">
							<stop  offset="0" style="stop-color:#FFFFFF;stop-opacity:0.4"/>
							<stop  offset="1" style="stop-color:#FFFFFF;stop-opacity:0"/>
						</linearGradient>
						<rect x="30.332" y="119.806" fill="url(#SVGID_4_)" width="8.5" height="22.251"/>
						
							<linearGradient id="SVGID_5_" gradientUnits="userSpaceOnUse" x1="34.7693" y1="313.0308" x2="44.7692" y2="313.2808" gradientTransform="matrix(1 0 0 -1 -8.3599 418.2217)">
							<stop  offset="0" style="stop-color:#FFFFFF;stop-opacity:0.4"/>
							<stop  offset="1" style="stop-color:#FFFFFF;stop-opacity:0"/>
						</linearGradient>
						<rect x="30.332" y="93.863" fill="url(#SVGID_5_)" width="8.5" height="22.25"/>
						
							<linearGradient id="SVGID_6_" gradientUnits="userSpaceOnUse" x1="34.7708" y1="338.9731" x2="44.7691" y2="339.223" gradientTransform="matrix(1 0 0 -1 -8.3599 418.2217)">
							<stop  offset="0" style="stop-color:#FFFFFF;stop-opacity:0.4"/>
							<stop  offset="1" style="stop-color:#FFFFFF;stop-opacity:0"/>
						</linearGradient>
						<rect x="30.332" y="67.919" fill="url(#SVGID_6_)" width="8.5" height="22.251"/>
						
							<linearGradient id="SVGID_7_" gradientUnits="userSpaceOnUse" x1="34.7698" y1="364.9165" x2="44.7686" y2="365.1665" gradientTransform="matrix(1 0 0 -1 -8.3599 418.2217)">
							<stop  offset="0" style="stop-color:#FFFFFF;stop-opacity:0.4"/>
							<stop  offset="1" style="stop-color:#FFFFFF;stop-opacity:0"/>
						</linearGradient>
						<rect x="30.332" y="41.976" fill="url(#SVGID_7_)" width="8.5" height="22.251"/>
						
							<linearGradient id="SVGID_8_" gradientUnits="userSpaceOnUse" x1="34.7698" y1="390.8608" x2="44.7686" y2="391.1108" gradientTransform="matrix(1 0 0 -1 -8.3599 418.2217)">
							<stop  offset="0" style="stop-color:#FFFFFF;stop-opacity:0.4"/>
							<stop  offset="1" style="stop-color:#FFFFFF;stop-opacity:0"/>
						</linearGradient>
						<rect x="30.332" y="16.032" fill="url(#SVGID_8_)" width="8.5" height="22.25"/>
						
							<linearGradient id="SVGID_9_" gradientUnits="userSpaceOnUse" x1="-2012.7512" y1="-3881.8613" x2="-2002.7147" y2="-3881.6104" gradientTransform="matrix(0 1 1 0 3954.2976 2012.7131)">
							<stop  offset="0" style="stop-color:#FFFFFF;stop-opacity:0.4"/>
							<stop  offset="1" style="stop-color:#FFFFFF;stop-opacity:0"/>
						</linearGradient>
						<rect x="60.822" y="3.916" fill="url(#SVGID_9_)" width="23.64" height="8.5"/>
						
							<linearGradient id="SVGID_10_" gradientUnits="userSpaceOnUse" x1="-2012.6526" y1="-3911.2622" x2="-2002.6737" y2="-3911.0127" gradientTransform="matrix(0 1 1 0 3954.2976 2012.7131)">
							<stop  offset="0" style="stop-color:#FFFFFF;stop-opacity:0.4"/>
							<stop  offset="1" style="stop-color:#FFFFFF;stop-opacity:0"/>
						</linearGradient>
						<path fill="url(#SVGID_10_)" d="M56.008,12.416H30.469l0.1-4.5c0-2.2,1.801-4,4-4h21.439V12.416z"/>
						
							<linearGradient id="SVGID_11_" gradientUnits="userSpaceOnUse" x1="-2012.6511" y1="-1589.7812" x2="-2002.6732" y2="-1589.5317" gradientTransform="matrix(0 1 -1 0 -1457.5393 2012.7131)">
							<stop  offset="0" style="stop-color:#FFFFFF;stop-opacity:0.4"/>
							<stop  offset="1" style="stop-color:#FFFFFF;stop-opacity:0"/>
						</linearGradient>
						<path fill="url(#SVGID_11_)" d="M119.27,12.416h25.539l-0.1-4.5c0-2.2-1.8-4-4-4H119.27V12.416z"/>
						
							<linearGradient id="SVGID_12_" gradientUnits="userSpaceOnUse" x1="-2012.7517" y1="-3852.1045" x2="-2002.7141" y2="-3851.8535" gradientTransform="matrix(0 1 1 0 3954.2976 2012.7131)">
							<stop  offset="0" style="stop-color:#FFFFFF;stop-opacity:0.4"/>
							<stop  offset="1" style="stop-color:#FFFFFF;stop-opacity:0"/>
						</linearGradient>
						<rect x="90.579" y="3.916" fill="url(#SVGID_12_)" width="23.639" height="8.5"/>
					</g>
				</g>
			</g>
		</g>
		<g>
			<path opacity="0.2" fill="#183049" enable-background="new    " d="M326.717,161.201c0,0,0-151.941,0-155.571
				c0-2.63-2.962-5.568-7.587-5.568C316.63,0.062,210.79,0,210.79,0l-3.73,3.916l109.725,10.25v147.035H326.717z"/>
			<path opacity="0.2" fill="#183049" enable-background="new    " d="M209.06,17.396c0,0,91.048,1.347,94.724,6.68
				c2.989,4.34,3.573,146.424,3.573,146.424h11.148V12.416H212.422L209.06,17.396z"/>
			<g>
				<polygon fill="#A05547" stroke="#82291D" stroke-miterlimit="10" points="207.06,8.166 316.783,8.166 316.782,170.098 
					309.05,170.098 309.05,16.898 209.06,16.898 				"/>
				<line fill="none" stroke="#82291D" stroke-miterlimit="10" x1="309.05" y1="16.898" x2="312.089" y2="14.166"/>
				<polygon opacity="0.7" fill="#82291D" enable-background="new    " points="312.089,170.098 309.054,17.166 208.082,14.166 
					315.755,14.166 				"/>
			</g>
			<g>
				<path fill="#3B527A" stroke="#162842" stroke-miterlimit="10" d="M211.756,2.166H319.09c2.75,0,5,2.25,5,5l-0.001,162.832h-12
					V14.166H211.756c-2.75,0-5-2.25-5-5v-2C206.756,4.416,209.006,2.166,211.756,2.166z"/>
				<g>
					
						<linearGradient id="SVGID_13_" gradientUnits="userSpaceOnUse" x1="2410.9573" y1="332.1401" x2="2528.2913" y2="332.1401" gradientTransform="matrix(-1 0 0 -1 2735.0474 418.2217)">
						<stop  offset="0" style="stop-color:#294060"/>
						<stop  offset="0.155" style="stop-color:#294060;stop-opacity:0"/>
						<stop  offset="0.835" style="stop-color:#294060;stop-opacity:0"/>
						<stop  offset="1" style="stop-color:#294060"/>
					</linearGradient>
					<path fill="url(#SVGID_13_)" d="M211.756,2.166H319.09c2.75,0,5,2.25,5,5l-0.001,162.832h-12V14.166H211.756
						c-2.75,0-5-2.25-5-5v-2C206.756,4.416,209.006,2.166,211.756,2.166z"/>
					<g>
						<line fill="none" stroke="#162842" stroke-miterlimit="10" x1="294.757" y1="14.166" x2="294.757" y2="2.166"/>
						<line fill="none" stroke="#162842" stroke-miterlimit="10" x1="265.423" y1="14.166" x2="265.423" y2="2.166"/>
						<line fill="none" stroke="#162842" stroke-miterlimit="10" x1="236.089" y1="14.166" x2="236.089" y2="2.166"/>
						<g>
							<line fill="none" stroke="#162842" stroke-miterlimit="10" x1="324.089" y1="170.055" x2="312.089" y2="170.055"/>
							<line fill="none" stroke="#162842" stroke-miterlimit="10" x1="324.089" y1="144.074" x2="312.089" y2="144.074"/>
							<line fill="none" stroke="#162842" stroke-miterlimit="10" x1="324.089" y1="118.092" x2="312.089" y2="118.092"/>
							<line fill="none" stroke="#162842" stroke-miterlimit="10" x1="324.089" y1="92.11" x2="312.089" y2="92.11"/>
							<line fill="none" stroke="#162842" stroke-miterlimit="10" x1="324.089" y1="66.129" x2="312.089" y2="66.129"/>
							<line fill="none" stroke="#162842" stroke-miterlimit="10" x1="324.089" y1="40.147" x2="312.089" y2="40.147"/>
							<line fill="none" stroke="#162842" stroke-miterlimit="10" x1="324.089" y1="14.166" x2="312.089" y2="14.166"/>
						</g>
					</g>
					<g>
						
							<linearGradient id="SVGID_14_" gradientUnits="userSpaceOnUse" x1="2408.3684" y1="261.1411" x2="2418.3684" y2="261.3911" gradientTransform="matrix(-1 0 0 -1 2735.0474 418.2217)">
							<stop  offset="0" style="stop-color:#FFFFFF;stop-opacity:0.4"/>
							<stop  offset="1" style="stop-color:#FFFFFF;stop-opacity:0"/>
						</linearGradient>
						<rect x="314.255" y="145.75" fill="url(#SVGID_14_)" width="8.5" height="22.25"/>
						
							<linearGradient id="SVGID_15_" gradientUnits="userSpaceOnUse" x1="2408.3674" y1="287.0835" x2="2418.3674" y2="287.3335" gradientTransform="matrix(-1 0 0 -1 2735.0474 418.2217)">
							<stop  offset="0" style="stop-color:#FFFFFF;stop-opacity:0.4"/>
							<stop  offset="1" style="stop-color:#FFFFFF;stop-opacity:0"/>
						</linearGradient>
						<rect x="314.255" y="119.806" fill="url(#SVGID_15_)" width="8.5" height="22.251"/>
						
							<linearGradient id="SVGID_16_" gradientUnits="userSpaceOnUse" x1="2408.3684" y1="313.0278" x2="2418.3684" y2="313.2778" gradientTransform="matrix(-1 0 0 -1 2735.0474 418.2217)">
							<stop  offset="0" style="stop-color:#FFFFFF;stop-opacity:0.4"/>
							<stop  offset="1" style="stop-color:#FFFFFF;stop-opacity:0"/>
						</linearGradient>
						<rect x="314.255" y="93.863" fill="url(#SVGID_16_)" width="8.5" height="22.25"/>
						
							<linearGradient id="SVGID_17_" gradientUnits="userSpaceOnUse" x1="2408.3684" y1="338.9712" x2="2418.3684" y2="339.2212" gradientTransform="matrix(-1 0 0 -1 2735.0474 418.2217)">
							<stop  offset="0" style="stop-color:#FFFFFF;stop-opacity:0.4"/>
							<stop  offset="1" style="stop-color:#FFFFFF;stop-opacity:0"/>
						</linearGradient>
						<rect x="314.255" y="67.919" fill="url(#SVGID_17_)" width="8.5" height="22.251"/>
						
							<linearGradient id="SVGID_18_" gradientUnits="userSpaceOnUse" x1="2408.3684" y1="364.9136" x2="2418.3684" y2="365.1636" gradientTransform="matrix(-1 0 0 -1 2735.0474 418.2217)">
							<stop  offset="0" style="stop-color:#FFFFFF;stop-opacity:0.4"/>
							<stop  offset="1" style="stop-color:#FFFFFF;stop-opacity:0"/>
						</linearGradient>
						<rect x="314.255" y="41.976" fill="url(#SVGID_18_)" width="8.5" height="22.251"/>
						
							<linearGradient id="SVGID_19_" gradientUnits="userSpaceOnUse" x1="2408.3674" y1="390.8608" x2="2418.3662" y2="391.1107" gradientTransform="matrix(-1 0 0 -1 2735.0474 418.2217)">
							<stop  offset="0" style="stop-color:#FFFFFF;stop-opacity:0.4"/>
							<stop  offset="1" style="stop-color:#FFFFFF;stop-opacity:0"/>
						</linearGradient>
						<rect x="314.255" y="16.032" fill="url(#SVGID_19_)" width="8.5" height="22.25"/>
						
							<linearGradient id="SVGID_20_" gradientUnits="userSpaceOnUse" x1="-2012.7507" y1="-1508.2598" x2="-2002.7136" y2="-1508.0088" gradientTransform="matrix(0 1 -1 0 -1227.6096 2012.7131)">
							<stop  offset="0" style="stop-color:#FFFFFF;stop-opacity:0.4"/>
							<stop  offset="1" style="stop-color:#FFFFFF;stop-opacity:0"/>
						</linearGradient>
						<rect x="268.626" y="3.916" fill="url(#SVGID_20_)" width="23.639" height="8.5"/>
						
							<linearGradient id="SVGID_21_" gradientUnits="userSpaceOnUse" x1="-2012.6521" y1="-1537.6602" x2="-2002.6731" y2="-1537.4106" gradientTransform="matrix(0 1 -1 0 -1227.6096 2012.7131)">
							<stop  offset="0" style="stop-color:#FFFFFF;stop-opacity:0.4"/>
							<stop  offset="1" style="stop-color:#FFFFFF;stop-opacity:0"/>
						</linearGradient>
						<path fill="url(#SVGID_21_)" d="M297.079,12.416h25.538l-0.1-4.5c0-2.2-1.8-4-4-4h-21.438V12.416z"/>
						
							<linearGradient id="SVGID_22_" gradientUnits="userSpaceOnUse" x1="-2012.6516" y1="-3963.3833" x2="-2002.6737" y2="-3963.1338" gradientTransform="matrix(0 1 1 0 4184.2275 2012.7131)">
							<stop  offset="0" style="stop-color:#FFFFFF;stop-opacity:0.4"/>
							<stop  offset="1" style="stop-color:#FFFFFF;stop-opacity:0"/>
						</linearGradient>
						<path fill="url(#SVGID_22_)" d="M233.817,12.416h-25.539l0.101-4.5c0-2.2,1.8-4,4-4h21.438V12.416z"/>
						
							<linearGradient id="SVGID_23_" gradientUnits="userSpaceOnUse" x1="-2012.7502" y1="-1478.5029" x2="-2002.7131" y2="-1478.252" gradientTransform="matrix(0 1 -1 0 -1227.6096 2012.7131)">
							<stop  offset="0" style="stop-color:#FFFFFF;stop-opacity:0.4"/>
							<stop  offset="1" style="stop-color:#FFFFFF;stop-opacity:0"/>
						</linearGradient>
						<rect x="238.869" y="3.916" fill="url(#SVGID_23_)" width="23.639" height="8.5"/>
					</g>
				</g>
			</g>
		</g>
		<g>
			<g>
				<g>
					<g>
						<polygon fill="none" stroke="#FFFFFF" stroke-miterlimit="10" points="89.036,37.675 88.902,44.071 87.232,49.836 
							81.349,49.262 75.293,48.692 75.662,42.615 76.225,36.105 82.707,36.92 						"/>
					</g>
					<g>
						<polygon fill="none" stroke="#FFFFFF" stroke-miterlimit="10" points="86.159,62.837 85.444,69.062 84.544,74.99 
							78.496,75.175 71.777,74.367 72.334,67.619 73.57,61.303 79.863,62.736 						"/>
					</g>
					<g>
						<g>
							<polygon fill="none" stroke="#FFFFFF" stroke-miterlimit="10" points="82.383,100.147 81.225,106.654 81.061,113.408 
								74.356,112.786 68.102,111.597 68.299,105.231 69.357,98.81 75.748,100.26 							"/>
						</g>
						<g>
							<polygon fill="none" stroke="#FFFFFF" stroke-miterlimit="10" points="83.82,87.567 82.978,94.162 82.402,100.828 
								75.799,99.688 69.855,98.763 70.581,92.798 70.57,86.068 77.119,87.855 							"/>
						</g>
						<g>
							<g>
								<polygon fill="none" stroke="#FFFFFF" stroke-miterlimit="10" points="91.431,75.742 90.458,82.3 89.384,88.168 
									83.485,87.364 77.592,86.835 78.415,80.975 78.72,74.867 84.857,74.777 								"/>
							</g>
							<g>
								<polygon fill="none" stroke="#FFFFFF" stroke-miterlimit="10" points="78.502,74.603 77.862,80.914 77.044,87.124 
									70.811,86.509 64.29,85.997 65.286,79.529 65.858,73.172 72.14,74.45 								"/>
							</g>
						</g>
					</g>
					<g>
						<polygon fill="none" stroke="#FFFFFF" stroke-miterlimit="10" points="94.055,50.793 92.975,57.205 92.092,63.023 
							86.197,62.84 79.531,62.437 81.103,55.898 80.982,49.166 87.614,49.907 						"/>
					</g>
					<g>
						<polygon fill="none" stroke="#FFFFFF" stroke-miterlimit="10" points="81.344,49.289 80.779,55.863 79.235,61.573 
							73.39,61.27 67.453,60.426 67.444,54.396 68.562,48.26 74.708,49.402 						"/>
					</g>
				</g>
			</g>
			<g>
				<g>
					<path fill="#FFFFFF" d="M74.635,103.577c-0.144,1.365-0.218,2.736-0.362,4.101c-0.067,0.641,0.934,0.634,1,0
						c0.145-1.365,0.22-2.736,0.362-4.101C75.702,102.936,74.702,102.942,74.635,103.577L74.635,103.577z"/>
				</g>
			</g>
			<g>
				<g>
					<path fill="#FFFFFF" d="M75.501,92.568c0.416-0.313,0.928-0.513,1.448-0.548c0.527-0.036,0.787,0.345,0.444,0.782
						c-0.699,0.891-1.905,1.237-2.564,2.167c-0.189,0.266,0.007,0.656,0.299,0.734c1.032,0.277,2.062,0.227,3.09-0.042
						c0.624-0.163,0.359-1.127-0.266-0.964c-0.859,0.224-1.695,0.273-2.56,0.042c0.101,0.245,0.199,0.489,0.299,0.734
						c0.762-1.071,3.068-1.544,2.86-3.205c-0.222-1.777-2.543-1.33-3.557-0.564C74.489,92.088,74.986,92.958,75.501,92.568
						L75.501,92.568z"/>
				</g>
			</g>
			<g>
				<g>
					<path fill="#FFFFFF" d="M71.087,79.045c0.124-0.065,1.52-0.126,1.476-0.032c-0.194,0.42-1.129,0.667-1.52,0.83
						c-0.375,0.156-0.533,0.678-0.12,0.914c0.367,0.209,0.782,0.31,1.159,0.495c0.728,0.357-0.785,0.485-1.031,0.496
						c-0.642,0.029-0.646,1.03,0,1c0.792-0.036,2.274-0.119,2.27-1.243c-0.003-1.092-1.149-1.188-1.894-1.612
						c-0.04,0.305-0.08,0.609-0.12,0.914c0.766-0.318,2.625-0.903,2.188-2.073c-0.395-1.054-2.091-0.983-2.913-0.552
						C70.011,78.48,70.517,79.344,71.087,79.045L71.087,79.045z"/>
				</g>
			</g>
			<g>
				<g>
					<path fill="#FFFFFF" d="M82.588,79.345c0.012,1.29-0.707,2.682,0.392,3.729c0.768,0.731,2.563,0.498,3.353-0.06
						c0.521-0.369,0.022-1.236-0.505-0.863c-0.574,0.405-1.966,0.615-2.39-0.086c-0.215-0.355-0.07-0.943-0.008-1.319
						c0.078-0.466,0.162-0.927,0.158-1.401C83.582,78.7,82.582,78.7,82.588,79.345L82.588,79.345z"/>
				</g>
			</g>
			<g>
				<g>
					<path fill="#FFFFFF" d="M83.857,81.423c0.066,0.786-0.082,1.541-0.25,2.305c-0.14,0.628,0.824,0.895,0.964,0.266
						c0.188-0.845,0.36-1.701,0.287-2.57C84.804,80.785,83.803,80.78,83.857,81.423L83.857,81.423z"/>
				</g>
			</g>
			<g>
				<g>
					<path fill="#FFFFFF" d="M81.021,66.024c-0.888-0.265-2.671-1.374-3.351-0.246c-0.582,0.966-0.478,2.644-0.432,3.728
						c0.016,0.356,0.422,0.652,0.753,0.432c0.427-0.284,1.499-0.93,1.544,0.009c0.036,0.74-0.603,0.949-1.186,0.666
						c-0.578-0.281-1.085,0.582-0.505,0.863c1.305,0.634,2.646-0.008,2.69-1.529c0.054-1.876-1.988-1.578-3.05-0.873
						c0.251,0.144,0.501,0.288,0.752,0.432c-0.037-0.898,0.005-1.827,0.157-2.713c0.113-0.649,0.252-0.521,0.859-0.338
						c0.508,0.153,0.99,0.382,1.499,0.533C81.375,67.172,81.638,66.207,81.021,66.024L81.021,66.024z"/>
				</g>
			</g>
			<g>
				<g>
					<path fill="#FFFFFF" d="M75.126,52.871c-1.019,0.922-4.216,3.515-2.337,4.982c0.651,0.51,2.466,0.95,2.524-0.323
						c0.05-1.088-1.606-2.014-2.529-1.93c-0.638,0.058-0.644,1.059,0,1c0.395-0.036,0.726,0.123,1.034,0.362
						c0.137,0.105,0.267,0.238,0.37,0.374c0.271,0.354-0.055,0.049,0.201,0.026c-0.774,0.067-1.342-0.38-0.997-1.105
						c0.516-1.079,1.571-1.893,2.439-2.679C76.312,53.145,75.603,52.439,75.126,52.871L75.126,52.871z"/>
				</g>
			</g>
			<g>
				<g>
					<path fill="#FFFFFF" d="M85.605,55.368c1.205,0.116,2.397,0.067,3.585-0.167c-0.211-0.161-0.422-0.321-0.633-0.482
						c-0.021,1.414-1.055,2.627-1.487,3.931c-0.203,0.614,0.763,0.875,0.965,0.266c0.469-1.414,1.499-2.649,1.522-4.196
						c0.005-0.344-0.321-0.544-0.633-0.482c-1.1,0.217-2.206,0.239-3.319,0.131C84.963,54.306,84.97,55.307,85.605,55.368
						L85.605,55.368z"/>
				</g>
			</g>
			<g>
				<g>
					<path fill="#FFFFFF" d="M83.184,40.358c-0.836-0.109-2.301-0.046-2.246,1.137c0.023,0.506,0.45,0.942,0.833,1.221
						c0.27,0.196,0.541,0.384,0.819,0.566c0.21,0.139,0.815,0.402,0.456,0.624c-0.195,0.12-0.931,0.408-1.077,0.05
						c-0.133-0.325,0.208-0.723,0.4-0.936c0.299-0.332,0.79-0.525,1.136-0.813c0.798-0.665,0.858-1.54-0.127-2.052
						c-0.571-0.297-1.077,0.566-0.505,0.863c0.312,0.163,0.316,0.129,0.041,0.386c-0.195,0.18-0.433,0.32-0.651,0.466
						c-0.44,0.292-0.78,0.593-1.06,1.05c-0.605,0.989-0.074,2.055,1.035,2.193c0.968,0.12,2.641-0.869,1.771-1.942
						c-0.37-0.458-0.917-0.747-1.396-1.073c-0.054-0.037-0.77-0.558-0.694-0.654c0.221-0.285,0.978-0.124,1.265-0.086
						C83.822,41.442,83.813,40.441,83.184,40.358L83.184,40.358z"/>
				</g>
			</g>
		</g>
		<g>
			<g>
				<g>
					<path fill="#DB86DB" d="M103.532,137.018c-6.649,1.73-7.984-8.66-1.956-10.476c2.815-0.848,5.397,1.277,6.569,3.647
						c1.482,2.999,0.049,6.039-2.732,7.545c-0.567,0.307-0.062,1.17,0.505,0.863c3.146-1.704,4.717-5.102,3.257-8.526
						c-1.409-3.306-4.72-5.441-8.306-4.361c-7.028,2.117-4.684,14.251,2.929,12.271C104.421,137.82,104.157,136.855,103.532,137.018
						L103.532,137.018z"/>
				</g>
			</g>
			<g>
				<g>
					<path fill="#DB86DB" d="M100.665,133.334c0.562-0.003,0.831-0.271,0.834-0.834c0.004-0.645-0.996-0.645-1,0
						c-0.002,0.32,0.485-0.168,0.166-0.166C100.021,132.338,100.02,133.338,100.665,133.334L100.665,133.334z"/>
				</g>
			</g>
			<g>
				<g>
					<path fill="#DB86DB" d="M104.332,130.667c0.645,0,0.645-1,0-1C103.687,129.667,103.687,130.667,104.332,130.667
						L104.332,130.667z"/>
				</g>
			</g>
			<g>
				<g>
					<path fill="#DB86DB" d="M102.532,135.316c2.253,0.672,4.184-0.789,4.614-3.016c0.122-0.63-0.842-0.898-0.964-0.266
						c-0.328,1.694-1.626,2.842-3.385,2.318C102.178,134.167,101.916,135.132,102.532,135.316L102.532,135.316z"/>
				</g>
			</g>
			<g>
				<g>
					<path fill="#DB86DB" d="M96.199,131.352c-0.732,0.129-1.544,0.032-2.238,0.325c-0.844,0.357-1.189,1.201-1.444,2.024
						c0.245-0.1,0.489-0.199,0.734-0.299c-0.667-0.333-1.333-0.667-2-1c-0.575-0.288-1.082,0.575-0.505,0.863
						c0.667,0.333,1.333,0.667,2,1c0.294,0.147,0.634,0.023,0.733-0.299c0.212-0.683,0.434-1.294,1.183-1.458
						c0.583-0.128,1.209-0.088,1.802-0.192C97.099,132.204,96.83,131.241,96.199,131.352L96.199,131.352z"/>
				</g>
			</g>
			<g>
				<g>
					<path fill="#DB86DB" d="M96.499,127.5c0.017,0.138,0.044,0.292,0.02,0.431c0.011-0.066,0.238-0.038,0.045-0.098
						c-0.338-0.104-0.651-0.427-0.905-0.658c-0.604-0.55-1.182-1.201-1.562-1.928c-0.299-0.572-1.162-0.066-0.863,0.505
						c0.563,1.078,1.513,2.081,2.512,2.766c0.978,0.67,1.897,0.187,1.755-1.019C97.424,126.868,96.423,126.86,96.499,127.5
						L96.499,127.5z"/>
				</g>
			</g>
			<g>
				<g>
					<path fill="#DB86DB" d="M101.999,125c0.645,0,0.645-1,0-1C101.354,124,101.354,125,101.999,125L101.999,125z"/>
				</g>
			</g>
			<g>
				<g>
					<path fill="#DB86DB" d="M102.147,126.367c-0.379-1.545-0.687-3.106-1-4.666c-0.126-0.632-1.09-0.364-0.964,0.266
						c0.312,1.56,0.621,3.121,1,4.666C101.336,127.259,102.301,126.993,102.147,126.367L102.147,126.367z"/>
				</g>
			</g>
			<g>
				<g>
					<path fill="#DB86DB" d="M106.165,138.167c-0.024,3.783-0.271,7.553,0,11.333c0.018,0.246,0.215,0.534,0.5,0.5
						c5.167-0.616,11.023-4.448,14.099-8.581c0.161-0.216,0.039-0.562-0.179-0.684c-4.432-2.487-9.459-3.907-14.453-4.717
						c-0.63-0.103-0.901,0.861-0.266,0.964c4.906,0.797,9.859,2.173,14.213,4.617c-0.061-0.228-0.12-0.456-0.18-0.684
						c-2.824,3.797-8.482,7.519-13.234,8.085c0.167,0.167,0.333,0.333,0.5,0.5c-0.271-3.78-0.024-7.55,0-11.333
						C107.169,137.522,106.169,137.522,106.165,138.167L106.165,138.167z"/>
				</g>
			</g>
			<g>
				<g>
					<path fill="#DB86DB" d="M101.917,142.266c4.077-2.532,6.326-7.167,10.667-9.334c0.577-0.288,0.069-1.15-0.505-0.863
						c-4.357,2.174-6.591,6.803-10.667,9.334C100.866,141.742,101.368,142.607,101.917,142.266L101.917,142.266z"/>
				</g>
			</g>
			<g>
				<g>
					<path fill="#DB86DB" d="M112.233,148.752c1.342,2.345,2.7,4.67,4.412,6.768c0.408,0.5,1.111-0.212,0.707-0.707
						c-1.656-2.03-2.959-4.298-4.256-6.566C112.777,147.688,111.913,148.191,112.233,148.752L112.233,148.752z"/>
				</g>
			</g>
			<g>
				<g>
					<path fill="#DB86DB" d="M117.979,145.188c0.723,0.702,1.601,1.193,2.435,1.744c0.54,0.356,1.04-0.51,0.505-0.863
						c-0.764-0.504-1.572-0.946-2.232-1.588C118.223,144.031,117.516,144.737,117.979,145.188L117.979,145.188z"/>
				</g>
			</g>
		</g>
		<g>
			<circle opacity="0.2" fill="#183049" enable-background="new    " cx="263.664" cy="63.492" r="23.375"/>
			<circle fill="#F2E140" stroke="#D19A4A" stroke-miterlimit="10" cx="263.402" cy="63.647" r="21.666"/>
			<g>
				<path fill="#A58E2B" d="M244.805,63.377l1.326,3.424l-0.351-0.164l17.129-2.511c0.178-0.025,0.344,0.098,0.368,0.275
					c0.026,0.178-0.096,0.343-0.272,0.369l-17.122,2.558l-0.18,0.027l-0.17-0.191l-2.437-2.746c-0.373-0.42-0.334-1.062,0.086-1.435
					s1.062-0.334,1.435,0.086C244.699,63.162,244.763,63.269,244.805,63.377z"/>
			</g>
			<g>
				<path fill="#A58E2B" d="M263.675,44.802l-3.425,1.326l0.164-0.35l2.512,17.128c0.025,0.178-0.098,0.343-0.275,0.369
					c-0.177,0.026-0.343-0.096-0.368-0.273l-2.56-17.122l-0.027-0.18l0.191-0.17l2.747-2.437c0.42-0.373,1.062-0.334,1.435,0.086
					c0.373,0.42,0.334,1.062-0.086,1.434C263.89,44.696,263.783,44.76,263.675,44.802z"/>
			</g>
			<g>
				<path fill="#A58E2B" d="M262.634,84.308l-2.747-2.436l-0.191-0.17l0.027-0.18l2.559-17.122c0.027-0.178,0.192-0.3,0.37-0.273
					c0.179,0.027,0.302,0.191,0.274,0.369l-2.512,17.128l-0.164-0.35l3.425,1.326c0.522,0.202,0.783,0.791,0.581,1.314
					c-0.203,0.522-0.791,0.783-1.314,0.58C262.826,84.451,262.722,84.385,262.634,84.308z"/>
			</g>
			<g>
				<path fill="#A58E2B" d="M283.924,64.418l-2.437,2.746l-0.17,0.191l-0.18-0.027l-17.122-2.558c-0.178-0.026-0.3-0.192-0.272-0.37
					c0.026-0.178,0.19-0.301,0.368-0.274l17.128,2.511l-0.35,0.164l1.326-3.424c0.202-0.523,0.791-0.783,1.313-0.58
					c0.523,0.202,0.783,0.791,0.58,1.313C284.067,64.226,284.001,64.33,283.924,64.418z"/>
			</g>
			<g>
				
					<line fill="none" stroke="#A82A2A" stroke-width="2" stroke-linecap="round" stroke-miterlimit="10" x1="263.402" y1="43.948" x2="263.402" y2="83.448"/>
				
					<line fill="none" stroke="#A82A2A" stroke-width="2" stroke-linecap="round" stroke-miterlimit="10" x1="283.152" y1="63.698" x2="243.652" y2="63.698"/>
				<g>
					<circle fill="#3A352E" stroke="#000000" stroke-linecap="round" stroke-miterlimit="10" cx="263.402" cy="63.648" r="3.334"/>
					<circle opacity="0.6" fill="#FFFFFF" enable-background="new    " cx="263.208" cy="63.531" r="0.917"/>
				</g>
			</g>
		</g>
		<g>
			<polygon opacity="0.2" fill="#183049" enable-background="new    " points="294.632,125.706 269.333,124.461 269.333,123.518 
				261.611,123.518 261.611,124.081 239.999,123.018 239.999,137.316 261.611,136.188 261.611,136.851 269.333,136.851 
				269.333,135.786 294.632,134.466 			"/>
			<g>
				
					<rect x="262.665" y="124.642" fill="#C1AE25" stroke="#F2E140" stroke-width="0.6" stroke-linecap="round" stroke-miterlimit="10" width="5.375" height="10.959"/>
				<polygon fill="#C1AE25" stroke="#F2E140" stroke-width="0.6" stroke-linecap="round" stroke-miterlimit="10" points="
					265.158,126.049 263.664,124.964 266.998,124.964 				"/>
				<polygon fill="#C1AE25" stroke="#F2E140" stroke-width="0.6" stroke-linecap="round" stroke-miterlimit="10" points="
					265.158,134.267 263.664,135.352 266.998,135.352 				"/>
			</g>
			<g>
				
					<linearGradient id="SVGID_24_" gradientUnits="userSpaceOnUse" x1="242.4417" y1="288.064" x2="301.9417" y2="288.064" gradientTransform="matrix(1 0 0 -1 -8.3599 418.2217)">
					<stop  offset="0" style="stop-color:#C55A2A"/>
					<stop  offset="1" style="stop-color:#BC3F19"/>
				</linearGradient>
				<polygon fill="url(#SVGID_24_)" stroke="#8E1E03" stroke-miterlimit="10" points="293.582,133.272 234.082,135.351 
					234.082,124.964 293.582,127.041 				"/>
				<path opacity="0.6" fill="none" stroke="#8E1E03" stroke-miterlimit="10" enable-background="new    " d="M243.292,126.22
					L243.292,126.22c0.804,0,1.456,1.588,1.456,3.547v0.734c0,1.959-0.652,3.548-1.456,3.548l0,0"/>
				<path fill="none" stroke="#F2E140" stroke-linecap="round" stroke-miterlimit="10" d="M243.292,126.22L243.292,126.22
					c1.606,0,2.911,1.588,2.911,3.547v0.734c0,1.959-1.305,3.548-2.911,3.548l0,0"/>
				<path opacity="0.6" fill="none" stroke="#8E1E03" stroke-miterlimit="10" enable-background="new    " d="M286.171,127.341
					L286.171,127.341c0.688,0,1.247,1.133,1.247,2.531v0.523c0,1.398-0.56,2.532-1.247,2.532l0,0"/>
				<path fill="none" stroke="#F2E140" stroke-width="0.6" stroke-linecap="round" stroke-miterlimit="10" d="M286.171,127.341
					L286.171,127.341c1.378,0,2.494,1.133,2.494,2.531v0.523c0,1.398-1.116,2.532-2.494,2.532l0,0"/>
				<polygon fill="#E05D3F" stroke="#8E1E03" stroke-miterlimit="10" points="236.082,135.247 234.082,135.351 234.082,124.964 
					236.082,125.068 				"/>
			</g>
		</g>
	</g>
	<g>
		<circle opacity="0.2" fill="#183049" enable-background="new    " cx="146.332" cy="69.314" r="3.522"/>
		
			<radialGradient id="SVGID_25_" cx="153.4592" cy="351.1401" r="6.234" gradientTransform="matrix(1 0 0 -1 -8.3599 418.2217)" gradientUnits="userSpaceOnUse">
			<stop  offset="0.025" style="stop-color:#DB0303"/>
			<stop  offset="1" style="stop-color:#770303"/>
		</radialGradient>
		<circle fill="url(#SVGID_25_)" stroke="#6B0000" stroke-miterlimit="10" cx="145.933" cy="67.748" r="3.522"/>
	</g>
	<g>
		<polygon opacity="0.2" fill="#183049" enable-background="new    " points="0,232.514 21.834,161.168 28.997,161.168 
			28.998,163.834 40.835,163.834 44.037,161.168 308.859,161.168 312.019,163.501 324.02,163.501 324.02,161.168 331.33,161.168 
			354,232.5 334,304.167 129.851,304.167 129.851,394.167 41.397,394.167 41.397,304.501 20.298,304.501 		"/>
		<g>
			<g>
				
					<rect x="47.832" y="283.875" fill="#2F4A63" stroke="#0C2735" stroke-width="3" stroke-miterlimit="10" width="76.5" height="105.051"/>
				
					<rect x="59.307" y="296.632" fill="#3D5B72" stroke="#0C2735" stroke-width="2" stroke-miterlimit="10" width="53.551" height="80.535"/>
				
					<line fill="none" stroke="#0C2735" stroke-width="2" stroke-miterlimit="10" x1="112.857" y1="377.167" x2="124.332" y2="388.925"/>
				
					<line fill="none" stroke="#0C2735" stroke-width="2" stroke-miterlimit="10" x1="47.832" y1="388.925" x2="59.307" y2="377.167"/>
				
					<line fill="none" stroke="#0C2735" stroke-width="2" stroke-miterlimit="10" x1="112.857" y1="296.632" x2="124.332" y2="283.875"/>
				
					<line fill="none" stroke="#0C2735" stroke-width="2" stroke-miterlimit="10" x1="59.307" y1="296.632" x2="47.832" y2="283.875"/>
				<polygon opacity="0.4" fill="#14182B" enable-background="new    " points="125.832,282.375 46.332,282.375 46.332,312.5 
					59.307,308.167 112.857,308.167 125.832,311.527 				"/>
			</g>
			<polygon fill="#2F4A63" stroke="#0C2735" stroke-width="3" stroke-miterlimit="10" points="326.831,297.5 26.332,297.5 
				16.332,232.5 26.332,167.5 326.831,167.5 336.831,232.5 			"/>
			<g>
				<line fill="none" stroke="#0C2735" stroke-miterlimit="10" x1="335.866" y1="226.111" x2="326.795" y2="167.5"/>
				<line fill="none" stroke="#0C2735" stroke-miterlimit="10" x1="320.697" y1="226.111" x2="312.488" y2="167.5"/>
				<line fill="none" stroke="#0C2735" stroke-miterlimit="10" x1="305.527" y1="226.111" x2="298.184" y2="167.5"/>
				<line fill="none" stroke="#0C2735" stroke-miterlimit="10" x1="290.357" y1="226.111" x2="283.877" y2="167.5"/>
				<line fill="none" stroke="#0C2735" stroke-miterlimit="10" x1="275.188" y1="226.111" x2="269.571" y2="167.5"/>
				<line fill="none" stroke="#0C2735" stroke-miterlimit="10" x1="260.018" y1="226.111" x2="255.266" y2="167.5"/>
				<line fill="none" stroke="#0C2735" stroke-miterlimit="10" x1="244.848" y1="226.111" x2="240.959" y2="167.5"/>
				<line fill="none" stroke="#0C2735" stroke-miterlimit="10" x1="229.678" y1="226.111" x2="226.653" y2="167.5"/>
				<line fill="none" stroke="#0C2735" stroke-miterlimit="10" x1="214.508" y1="226.111" x2="212.348" y2="167.5"/>
				<line fill="none" stroke="#0C2735" stroke-miterlimit="10" x1="199.338" y1="226.111" x2="198.041" y2="167.5"/>
				<line fill="none" stroke="#0C2735" stroke-miterlimit="10" x1="184.168" y1="226.111" x2="183.735" y2="167.5"/>
				<line fill="none" stroke="#0C2735" stroke-miterlimit="10" x1="168.998" y1="226.111" x2="169.43" y2="167.5"/>
				<line fill="none" stroke="#0C2735" stroke-miterlimit="10" x1="153.828" y1="226.111" x2="155.124" y2="167.5"/>
				<line fill="none" stroke="#0C2735" stroke-miterlimit="10" x1="138.657" y1="226.111" x2="140.817" y2="167.5"/>
				<line fill="none" stroke="#0C2735" stroke-miterlimit="10" x1="123.488" y1="226.111" x2="126.512" y2="167.5"/>
				<line fill="none" stroke="#0C2735" stroke-miterlimit="10" x1="108.317" y1="226.111" x2="112.206" y2="167.5"/>
				<line fill="none" stroke="#0C2735" stroke-miterlimit="10" x1="93.147" y1="226.111" x2="97.9" y2="167.5"/>
				<line fill="none" stroke="#0C2735" stroke-miterlimit="10" x1="77.978" y1="226.111" x2="83.594" y2="167.5"/>
				<line fill="none" stroke="#0C2735" stroke-miterlimit="10" x1="62.808" y1="226.111" x2="69.288" y2="167.5"/>
				<line fill="none" stroke="#0C2735" stroke-miterlimit="10" x1="47.638" y1="226.111" x2="54.982" y2="167.5"/>
				<line fill="none" stroke="#0C2735" stroke-miterlimit="10" x1="32.468" y1="226.111" x2="40.676" y2="167.5"/>
				<line fill="none" stroke="#0C2735" stroke-miterlimit="10" x1="17.298" y1="226.111" x2="26.37" y2="167.5"/>
			</g>
			<g>
				<line fill="none" stroke="#0C2735" stroke-miterlimit="10" x1="335.866" y1="238.889" x2="326.795" y2="297.5"/>
				<line fill="none" stroke="#0C2735" stroke-miterlimit="10" x1="320.697" y1="238.889" x2="312.488" y2="297.5"/>
				<line fill="none" stroke="#0C2735" stroke-miterlimit="10" x1="305.527" y1="238.889" x2="298.184" y2="297.5"/>
				<line fill="none" stroke="#0C2735" stroke-miterlimit="10" x1="290.357" y1="238.889" x2="283.877" y2="297.5"/>
				<line fill="none" stroke="#0C2735" stroke-miterlimit="10" x1="275.188" y1="238.889" x2="269.571" y2="297.5"/>
				<line fill="none" stroke="#0C2735" stroke-miterlimit="10" x1="260.018" y1="238.889" x2="255.266" y2="297.5"/>
				<line fill="none" stroke="#0C2735" stroke-miterlimit="10" x1="244.848" y1="238.889" x2="240.959" y2="297.5"/>
				<line fill="none" stroke="#0C2735" stroke-miterlimit="10" x1="229.678" y1="238.889" x2="226.653" y2="297.5"/>
				<line fill="none" stroke="#0C2735" stroke-miterlimit="10" x1="214.508" y1="238.889" x2="212.348" y2="297.5"/>
				<line fill="none" stroke="#0C2735" stroke-miterlimit="10" x1="199.338" y1="238.889" x2="198.041" y2="297.5"/>
				<line fill="none" stroke="#0C2735" stroke-miterlimit="10" x1="184.168" y1="238.889" x2="183.735" y2="297.5"/>
				<line fill="none" stroke="#0C2735" stroke-miterlimit="10" x1="168.998" y1="238.889" x2="169.43" y2="297.5"/>
				<line fill="none" stroke="#0C2735" stroke-miterlimit="10" x1="153.828" y1="238.889" x2="155.124" y2="297.5"/>
				<line fill="none" stroke="#0C2735" stroke-miterlimit="10" x1="138.657" y1="238.889" x2="140.817" y2="297.5"/>
				<line fill="none" stroke="#0C2735" stroke-miterlimit="10" x1="123.488" y1="238.889" x2="126.512" y2="297.5"/>
				<line fill="none" stroke="#0C2735" stroke-miterlimit="10" x1="108.317" y1="238.889" x2="112.206" y2="297.5"/>
				<line fill="none" stroke="#0C2735" stroke-miterlimit="10" x1="93.147" y1="238.889" x2="97.9" y2="297.5"/>
				<line fill="none" stroke="#0C2735" stroke-miterlimit="10" x1="77.978" y1="238.889" x2="83.594" y2="297.5"/>
				<line fill="none" stroke="#0C2735" stroke-miterlimit="10" x1="62.808" y1="238.889" x2="69.288" y2="297.5"/>
				<line fill="none" stroke="#0C2735" stroke-miterlimit="10" x1="47.638" y1="238.889" x2="54.982" y2="297.5"/>
				<line fill="none" stroke="#0C2735" stroke-miterlimit="10" x1="32.468" y1="238.889" x2="40.676" y2="297.5"/>
				<line fill="none" stroke="#0C2735" stroke-miterlimit="10" x1="17.298" y1="238.889" x2="26.37" y2="297.5"/>
			</g>
			<g>
				<g opacity="0.4">
					<polygon fill="#0F3044" points="16.886,224.473 15.826,232.514 16.886,240.556 136.078,240.556 134.98,232.514 
						136.078,224.473 					"/>
					<polygon fill="#0F3044" points="336.278,224.473 217.086,224.473 218.184,232.514 217.086,240.556 336.278,240.556 
						337.338,232.514 					"/>
				</g>
				<g>
					<polygon fill="#2F4A63" stroke="#0C2735" stroke-miterlimit="10" points="46.85,238.889 17.314,238.889 16.332,232.5 
						17.314,226.111 46.85,226.111 45.832,232.5 					"/>
					<polygon fill="#2F4A63" stroke="#0C2735" stroke-miterlimit="10" points="76.367,238.889 46.832,238.889 45.85,232.5 
						46.832,226.111 76.367,226.111 75.35,232.5 					"/>
					<polygon fill="#2F4A63" stroke="#0C2735" stroke-miterlimit="10" points="105.867,238.889 76.332,238.889 75.35,232.5 
						76.332,226.111 105.867,226.111 104.85,232.5 					"/>
					<polygon fill="#2F4A63" stroke="#0C2735" stroke-miterlimit="10" points="135.492,238.889 105.957,238.889 104.975,232.5 
						105.957,226.111 135.492,226.111 134.475,232.5 					"/>
				</g>
				<g>
					<polygon fill="#2F4A63" stroke="#0C2735" stroke-miterlimit="10" points="306.314,238.889 335.85,238.889 336.831,232.5 
						335.85,226.111 306.314,226.111 307.331,232.5 					"/>
					<polygon fill="#2F4A63" stroke="#0C2735" stroke-miterlimit="10" points="276.797,238.889 306.332,238.889 307.314,232.5 
						306.332,226.111 276.797,226.111 277.814,232.5 					"/>
					<polygon fill="#2F4A63" stroke="#0C2735" stroke-miterlimit="10" points="247.297,238.889 276.832,238.889 277.814,232.5 
						276.832,226.111 247.297,226.111 248.314,232.5 					"/>
					<polygon fill="#2F4A63" stroke="#0C2735" stroke-miterlimit="10" points="217.672,238.889 247.207,238.889 248.189,232.5 
						247.207,226.111 217.672,226.111 218.689,232.5 					"/>
				</g>
				<polygon opacity="0.4" fill="#0F3044" enable-background="new    " points="16.298,232.5 337.032,232.5 335.947,238.25 
					17.314,238.25 				"/>
			</g>
			
				<linearGradient id="SVGID_26_" gradientUnits="userSpaceOnUse" x1="184.9417" y1="251.2222" x2="184.9417" y2="120.1609" gradientTransform="matrix(1 0 0 -1 -8.3599 418.2217)">
				<stop  offset="0" style="stop-color:#0F3044"/>
				<stop  offset="0.3" style="stop-color:#0F3044;stop-opacity:0"/>
				<stop  offset="0.7" style="stop-color:#0F3044;stop-opacity:0"/>
				<stop  offset="1" style="stop-color:#0F3044"/>
			</linearGradient>
			<polygon opacity="0.4" fill="url(#SVGID_26_)" enable-background="new    " points="326.831,297.5 26.332,297.5 16.332,232.5 
				26.332,167.5 326.831,167.5 336.831,232.5 			"/>
			<polygon fill="none" stroke="#0C2735" stroke-width="3" stroke-miterlimit="10" points="326.831,297.5 26.332,297.5 
				16.332,232.5 26.332,167.5 326.831,167.5 336.831,232.5 			"/>
			<g>
				<polygon opacity="0.26" fill="#14182B" enable-background="new    " points="124.332,226.111 122.999,232.5 124.999,238.889 
					138.332,297.5 213.332,297.5 229.665,238.889 231.165,232.5 229.499,226.111 213.499,167.5 137.352,167.5 				"/>
				<g>
					
						<rect x="127.461" y="183.05" fill="#2F4A63" stroke="#0C2735" stroke-width="3" stroke-miterlimit="10" width="98.899" height="98.901"/>
					<g>
						<rect x="127.955" y="183.544" fill="none" stroke="#6979A8" stroke-miterlimit="10" width="97.911" height="97.911"/>
						<rect x="132.851" y="188.439" fill="none" stroke="#6979A8" stroke-miterlimit="10" width="88.12" height="88.12"/>
						<rect x="137.747" y="193.335" fill="none" stroke="#6979A8" stroke-miterlimit="10" width="78.327" height="78.329"/>
						<rect x="142.643" y="198.23" fill="none" stroke="#6979A8" stroke-miterlimit="10" width="68.537" height="68.538"/>
						<rect x="147.537" y="203.126" fill="none" stroke="#6979A8" stroke-miterlimit="10" width="58.747" height="58.746"/>
						<rect x="152.434" y="208.021" fill="none" stroke="#6979A8" stroke-miterlimit="10" width="48.955" height="48.955"/>
						<rect x="157.328" y="212.917" fill="none" stroke="#6979A8" stroke-miterlimit="10" width="39.165" height="39.164"/>
						<rect x="162.224" y="217.813" fill="none" stroke="#6979A8" stroke-miterlimit="10" width="29.374" height="29.373"/>
					</g>
					<g>
						<rect x="127.461" y="183.05" fill="none" stroke="#0C2735" stroke-miterlimit="10" width="98.899" height="98.901"/>
						<rect x="132.406" y="187.995" fill="none" stroke="#0C2735" stroke-miterlimit="10" width="89.011" height="89.01"/>
						<rect x="137.352" y="192.939" fill="none" stroke="#0C2735" stroke-miterlimit="10" width="79.119" height="79.12"/>
						<rect x="142.297" y="197.884" fill="none" stroke="#0C2735" stroke-miterlimit="10" width="69.229" height="69.23"/>
						<rect x="147.241" y="202.83" fill="none" stroke="#0C2735" stroke-miterlimit="10" width="59.34" height="59.34"/>
						<rect x="152.187" y="207.774" fill="none" stroke="#0C2735" stroke-miterlimit="10" width="49.45" height="49.45"/>
						<rect x="157.131" y="212.72" fill="none" stroke="#0C2735" stroke-miterlimit="10" width="39.561" height="39.561"/>
						<rect x="162.076" y="217.666" fill="none" stroke="#0C2735" stroke-miterlimit="10" width="29.67" height="29.67"/>
					</g>
					<g>
						<g>
							<path fill="#0C2735" d="M127.107,281.597c0,0,6.115-6.247,15.288-15.618c4.609-4.662,9.987-10.103,15.749-15.931
								c5.783-5.807,11.951-12.002,18.119-18.196c6.194-6.168,12.389-12.336,18.196-18.117c5.828-5.763,11.267-11.142,15.929-15.75
								c9.372-9.173,15.619-15.288,15.619-15.288l0.707,0.707c0,0-6.115,6.247-15.288,15.618
								c-4.609,4.662-9.987,10.103-15.749,15.931c-5.783,5.807-11.951,12.002-18.119,18.196
								c-6.194,6.168-12.389,12.336-18.196,18.117c-5.827,5.763-11.267,11.142-15.929,15.75
								c-9.372,9.173-15.619,15.288-15.619,15.288L127.107,281.597z"/>
						</g>
						<g>
							<path fill="#0C2735" d="M127.814,182.696c0,0,6.242,6.12,15.604,15.302c4.66,4.611,10.097,9.992,15.922,15.758
								c5.807,5.783,12,11.953,18.193,18.121c6.169,6.193,12.338,12.388,18.121,18.193c5.766,5.825,11.146,11.262,15.758,15.922
								c9.181,9.362,15.302,15.604,15.302,15.604l-0.707,0.706c0,0-6.242-6.119-15.604-15.301
								c-4.659-4.611-10.097-9.992-15.922-15.758c-5.807-5.783-12-11.953-18.192-18.121c-6.169-6.193-12.338-12.388-18.122-18.193
								c-5.766-5.825-11.146-11.262-15.757-15.922c-9.182-9.362-15.303-15.604-15.303-15.604L127.814,182.696z"/>
						</g>
					</g>
				</g>
				<g opacity="0.6">
					
						<linearGradient id="SVGID_27_" gradientUnits="userSpaceOnUse" x1="136.4417" y1="185.7217" x2="232.7551" y2="185.7217" gradientTransform="matrix(1 0 0 -1 -8.3599 418.2217)">
						<stop  offset="0" style="stop-color:#0F3044"/>
						<stop  offset="0.3" style="stop-color:#0F3044;stop-opacity:0"/>
						<stop  offset="0.7" style="stop-color:#0F3044;stop-opacity:0"/>
						<stop  offset="1" style="stop-color:#0F3044"/>
					</linearGradient>
					<polygon opacity="0.5" fill="url(#SVGID_27_)" enable-background="new    " points="127.805,183.395 127.805,281.605 
						176.91,232.5 					"/>
					
						<linearGradient id="SVGID_28_" gradientUnits="userSpaceOnUse" x1="136.4421" y1="185.7217" x2="232.7547" y2="185.7217" gradientTransform="matrix(1 0 0 -1 -8.3599 418.2217)">
						<stop  offset="0" style="stop-color:#0F3044"/>
						<stop  offset="0.3" style="stop-color:#0F3044;stop-opacity:0"/>
						<stop  offset="0.7" style="stop-color:#0F3044;stop-opacity:0"/>
						<stop  offset="1" style="stop-color:#0F3044"/>
					</linearGradient>
					<polygon fill="url(#SVGID_28_)" points="226.016,183.395 226.016,281.605 176.91,232.5 					"/>
					
						<linearGradient id="SVGID_29_" gradientUnits="userSpaceOnUse" x1="4401.2207" y1="-1844.7759" x2="4497.5342" y2="-1844.7759" gradientTransform="matrix(0 -1 -1 0 -1667.8655 4682.5488)">
						<stop  offset="0" style="stop-color:#14182B"/>
						<stop  offset="0.3" style="stop-color:#14182B;stop-opacity:0"/>
						<stop  offset="0.7" style="stop-color:#14182B;stop-opacity:0"/>
						<stop  offset="1" style="stop-color:#14182B"/>
					</linearGradient>
					<polygon fill="url(#SVGID_29_)" points="127.805,281.605 226.016,281.605 176.91,232.5 					"/>
					
						<linearGradient id="SVGID_30_" gradientUnits="userSpaceOnUse" x1="4401.2217" y1="-1844.7759" x2="4497.5332" y2="-1844.7759" gradientTransform="matrix(0 -1 -1 0 -1667.8655 4682.5488)">
						<stop  offset="0" style="stop-color:#14182B"/>
						<stop  offset="0.3" style="stop-color:#14182B;stop-opacity:0"/>
						<stop  offset="0.7" style="stop-color:#14182B;stop-opacity:0"/>
						<stop  offset="1" style="stop-color:#14182B"/>
					</linearGradient>
					<polygon opacity="0.5" fill="url(#SVGID_30_)" enable-background="new    " points="127.805,183.395 226.016,183.395 
						176.91,232.5 					"/>
				</g>
				<g>
					<rect x="165.411" y="221" fill="#2F4A63" stroke="#0C2735" stroke-width="2" stroke-miterlimit="10" width="23" height="23"/>
					<g>
						<polygon opacity="0.3" fill="#14182B" enable-background="new    " points="188.411,244 165.411,244 176.911,232.5 						"/>
						<polygon opacity="0.3" fill="#51566B" enable-background="new    " points="188.411,221 165.411,221 176.911,232.5 						"/>
						<polygon opacity="0.1" fill="#51566B" enable-background="new    " points="165.411,221 165.411,244 176.911,232.5 						"/>
						<polygon opacity="0.1" fill="#14182B" enable-background="new    " points="188.411,221 188.411,244 176.911,232.5 						"/>
					</g>
					<rect x="165.411" y="221" fill="none" stroke="#0C2735" stroke-width="2" stroke-miterlimit="10" width="23" height="23"/>
				</g>
			</g>
		</g>
		<rect x="63.299" y="312.5" fill="#517084" width="45.033" height="59.334"/>
	</g>
</g>
</svg>
