<!DOCTYPE svg PUBLIC '-//W3C//DTD SVG 1.1//EN' 'http://www.w3.org/Graphics/SVG/1.1/DTD/svg11.dtd'>
<svg xmlns="http://www.w3.org/2000/svg" xml:space="preserve" version="1.1" xmlns:xlink="http://www.w3.org/1999/xlink" viewBox="0 0 98.57 115.912" enable-background="new 0 0 98.57 115.912">
	<radialGradient id="c" gradientUnits="userSpaceOnUse" cy="49.412" cx="37.952" r="104">
		<stop stop-color="#8BC53F" offset=".0861"/>
		<stop stop-color="#009345" offset="1"/>
	</radialGradient>
	<path stroke="#006838" stroke-width="3" stroke-miterlimit="10" d="m52.82 22.912c-13.75 0-48.25-4.75-51.25 35.75-1.5 21.75 21.25 54.75 37.75 54.5 3.145 0 4.25-1.75 6.75-1.75s5 3 11 3 40-19.75 40-56.25c0-28.25-25.176-37.75-30.5-37.75s-13.75 2.502-13.75 2.502z" fill="url(#c)"/>
	<path opacity=".3" d="m90.934 36.693c0.018 0.469 0.036 0.938 0.036 1.41 0 28.029-22.722 50.751-50.751 50.751-14.48 0-27.527-6.078-36.771-15.808 5.685 19.479 22.749 40.314 35.873 40.115 3.145 0 4.25-1.75 6.75-1.75s5 3 11 3 40-19.75 40-56.25c-0.001-8.934-2.524-15.99-6.137-21.467z" fill="#006838"/>
	<radialGradient id="b" gradientUnits="userSpaceOnUse" cy="38.912" cx="83.619" r="80.958">
		<stop stop-color="#EE4036" offset="0"/>
		<stop stop-color="#EE4036" stop-opacity="0" offset="1"/>
	</radialGradient>
	<path opacity=".6" d="m52.82 22.912c-13.75 0-48.25-4.75-51.25 35.75-1.5 21.75 21.25 54.75 37.75 54.5 3.145 0 4.25-1.75 6.75-1.75s5 3 11 3 40-19.75 40-56.25c0-28.25-25.176-37.75-30.5-37.75s-13.75 2.502-13.75 2.502z" fill="url(#b)"/>
	<path stroke="#006838" stroke-width="3" stroke-miterlimit="10" d="m52.82 22.912c-13.75 0-48.25-4.75-51.25 35.75-1.5 21.75 21.25 54.75 37.75 54.5 3.145 0 4.25-1.75 6.75-1.75s5 3 11 3 40-19.75 40-56.25c0-28.25-25.176-37.75-30.5-37.75s-13.75 2.502-13.75 2.502z" fill="none"/><g stroke="#3B2314" stroke-miterlimit="10">
		<path stroke-width="3" d="m61.098 1.71c-1.445-0.465-2.846-0.133-3.129 0.743-0.047 0.147-0.049 0.301-0.03 0.456-0.89 2.232-4.493 11.316-5.368 14.086-1 3.167-1.75 14.667-1.75 14.667l2.416 1s2-11.333 3.168-15.126c1.036-3.372 5.595-11.32 6.595-13.046 0.088-0.105 0.162-0.22 0.204-0.35 0.282-0.876-0.661-1.964-2.106-2.43z" fill="#603813"/>
		<path d="m58.138 2.411s-4.567 11.418-5.567 14.585-1.75 12.667-1.75 12.667l2.416 1s2-9.333 3.168-13.126c1.166-3.793 6.8-13.396 6.8-13.396l-5.067-1.73z" fill="#603813"/>
			<ellipse transform="matrix(.9518 .3066 -.3066 .9518 3.9293 -18.418)" rx="2.75" ry="1.667" cy="3.297" cx="60.586" fill="#9F6A3C"/>
			</g><path d="m40.57 29.995s1.635 0.273 4.011 0.795c1.183 0.258 2.562 0.56 4.04 0.883 1.474 0.312 3.031 0.643 4.592 0.899 0.754 0.098 1.593 0.248 2.268 0.31 0.857 0.035 1.452 0.064 2.145-0.053 0.684-0.085 1.333-0.27 1.945-0.477 0.604-0.228 1.17-0.486 1.676-0.771 0.499-0.294 0.961-0.58 1.347-0.869 0.39-0.285 0.722-0.554 0.989-0.785 0.537-0.461 0.822-0.766 0.822-0.766s-0.14 0.393-0.518 1.021c-0.379 0.623-0.999 1.49-1.975 2.334-0.24 0.216-0.516 0.41-0.791 0.629-0.295 0.188-0.6 0.391-0.934 0.565-0.667 0.343-1.407 0.686-2.229 0.847-0.396 0.113-0.841 0.164-1.291 0.215-0.479 0.077-0.819 0.035-1.236 0.04-0.918-0.053-1.686-0.177-2.543-0.268-0.822-0.153-1.627-0.346-2.428-0.516-0.796-0.18-1.55-0.449-2.294-0.659-0.744-0.209-1.434-0.5-2.098-0.737-0.667-0.231-1.275-0.511-1.841-0.755-1.133-0.483-2.043-0.966-2.678-1.31-0.631-0.348-0.979-0.572-0.979-0.572z" fill="#006838"/>
<linearGradient id="a" y2="68.638" gradientUnits="userSpaceOnUse" y1="31.506" x2="48.57" x1="48.57">
	<stop stop-color="#fff" stop-opacity=".3" offset="0"/>
	<stop stop-color="#fff" stop-opacity="0" offset="1"/>
</linearGradient>
<path d="m88.07 53.408c0 8.254-14 15.895-39.5 15.895-29.91 0-39.5-4.641-39.5-15.641 0-29.5 31.319-16.5 42.215-16.5 11.969 0 36.785-5.855 36.785 16.246z" fill="url(#a)"/>
</svg>
