<!DOCTYPE svg PUBLIC '-//W3C//DTD SVG 1.1//EN' 'http://www.w3.org/Graphics/SVG/1.1/DTD/svg11.dtd'>
<svg xmlns="http://www.w3.org/2000/svg" xml:space="preserve" version="1.1" xmlns:xlink="http://www.w3.org/1999/xlink" viewBox="0 0 52.221 61.333" enable-background="new 0 0 52.221 61.333">
		<radialGradient id="c" gradientUnits="userSpaceOnUse" cy="26.177" cx="20.155" r="54.65">
			<stop stop-color="#8BC53F" offset=".0861"/>
			<stop stop-color="#009345" offset="1"/>
		</radialGradient>
		<path d="m27.968 12.252c-7.225 0-25.354-2.496-26.931 18.786-0.789 11.429 11.167 28.77 19.837 28.639 1.652 0 2.233-0.92 3.547-0.92 1.313 0 2.628 1.576 5.78 1.576s21.019-10.378 21.019-29.559c0-14.844-13.229-19.836-16.026-19.836s-7.226 1.314-7.226 1.314z" fill="url(#c)"/>
		<path opacity=".3" d="m47.995 19.493c0.01 0.246 0.02 0.493 0.02 0.741 0 14.729-11.939 26.669-26.668 26.669-7.609 0-14.465-3.194-19.323-8.307 2.986 10.237 11.954 21.184 18.85 21.081 1.652 0 2.233-0.92 3.547-0.92 1.313 0 2.628 1.576 5.78 1.576s21.019-10.378 21.019-29.559c0-4.695-1.325-8.403-3.225-11.281z" fill="#006838"/>
		<radialGradient id="b" gradientUnits="userSpaceOnUse" cy="20.66" cx="44.151" r="42.542">
			<stop stop-color="#EE4036" offset="0"/>
			<stop stop-color="#EE4036" stop-opacity="0" offset="1"/>
		</radialGradient>
		<path opacity=".6" d="m27.968 12.252c-7.225 0-25.354-2.496-26.931 18.786-0.789 11.429 11.167 28.77 19.837 28.639 1.652 0 2.233-0.92 3.547-0.92 1.313 0 2.628 1.576 5.78 1.576s21.019-10.378 21.019-29.559c0-14.844-13.229-19.836-16.026-19.836s-7.226 1.314-7.226 1.314z" fill="url(#b)"/>
		<path stroke="#006838" stroke-width="2" stroke-miterlimit="10" d="m27.968 12.252c-7.225 0-25.354-2.496-26.931 18.786-0.789 11.429 11.167 28.77 19.837 28.639 1.652 0 2.233-0.92 3.547-0.92 1.313 0 2.628 1.576 5.78 1.576s21.019-10.378 21.019-29.559c0-14.844-13.229-19.836-16.026-19.836s-7.226 1.314-7.226 1.314z" fill="none"/>
			<path stroke="#3B2314" stroke-width="2" stroke-miterlimit="10" d="m32.317 1.11c-0.759-0.244-1.495-0.069-1.644 0.391-0.025 0.078-0.025 0.158-0.017 0.24-0.468 1.173-2.36 5.945-2.821 7.402-0.525 1.663-0.919 7.706-0.919 7.706l1.27 0.525s1.052-5.955 1.665-7.948c0.545-1.771 2.939-5.949 3.466-6.855 0.046-0.055 0.085-0.115 0.106-0.184 0.149-0.46-0.347-1.032-1.106-1.277z" fill="#603813"/>
			<path d="m30.762 1.479s-2.4 6-2.926 7.665c-0.525 1.663-0.919 6.655-0.919 6.655l1.27 0.525s1.052-4.904 1.665-6.897 3.572-7.039 3.572-7.039l-2.662-0.909z" fill="#603813"/>
				<ellipse transform="matrix(.9517 .3069 -.3069 .9517 2.1431 -9.7415)" rx="1.445" stroke="#3B2314" ry=".876" cy="1.944" cx="32.049" stroke-miterlimit="10" fill="#9F6A3C"/>
				<path d="m21.531 16.97s0.924-0.006 2.195 0.154c0.634 0.089 1.375 0.163 2.145 0.3 0.382 0.071 0.777 0.146 1.178 0.221 0.396 0.042 0.793 0.105 1.191 0.167 0.361 0.068 0.725 0.139 1.08 0.207 0.211 0 0.42 0.006 0.625 0.017 0.209 0.011 0.425 0.022 0.539-0.015 0.276-0.058 0.566-0.032 0.875-0.156 0.156-0.041 0.309-0.081 0.455-0.12 0.145-0.06 0.283-0.117 0.417-0.173 0.546-0.225 0.993-0.502 1.318-0.698 0.317-0.204 0.505-0.341 0.505-0.341s-0.041 0.225-0.2 0.596c-0.093 0.173-0.181 0.414-0.351 0.637-0.162 0.229-0.338 0.511-0.607 0.743-0.131 0.126-0.266 0.257-0.406 0.392-0.158 0.114-0.332 0.221-0.51 0.337-0.333 0.249-0.816 0.399-1.312 0.548-0.27 0.095-0.462 0.101-0.665 0.12-0.206 0.022-0.414 0.04-0.623 0.054l-0.079 0.005-0.02 0.002-0.129-0.003-0.041-0.005-0.165-0.021-0.333-0.046-0.667-0.102c-0.444-0.08-0.889-0.157-1.321-0.254-0.426-0.104-0.818-0.263-1.207-0.401-0.386-0.143-0.755-0.293-1.102-0.44-0.349-0.138-0.661-0.325-0.951-0.483-1.163-0.628-1.834-1.242-1.834-1.242z" fill="#006838"/>
	<linearGradient id="a" y2="36.28" gradientUnits="userSpaceOnUse" y1="16.768" x2="25.734" x1="25.734">
		<stop stop-color="#fff" stop-opacity=".3" offset="0"/>
		<stop stop-color="#fff" stop-opacity="0" offset="1"/>
	</linearGradient>
	<path d="m46.491 28.276c0 4.338-7.357 8.353-20.757 8.353-15.717 0-20.756-2.438-20.756-8.219 0-15.501 16.458-8.671 22.183-8.671 6.29 0 19.33-3.076 19.33 8.537z" fill="url(#a)"/>
</svg>
