<!DOCTYPE svg PUBLIC '-//W3C//DTD SVG 1.1//EN' 'http://www.w3.org/Graphics/SVG/1.1/DTD/svg11.dtd'>
<svg xmlns="http://www.w3.org/2000/svg" xml:space="preserve" version="1.1" xmlns:xlink="http://www.w3.org/1999/xlink" viewBox="0 0 70.408 48.009" enable-background="new 0 0 70.408 48.009">
		<linearGradient id="b" y2="42.922" gradientUnits="userSpaceOnUse" y1="30.02" x2="30.243" x1="32.069">
			<stop stop-color="#F9EC31" offset="0"/>
			<stop stop-color="#F9A831" offset="1"/>
		</linearGradient>
		<path d="m5.234 9.404c0.959-1.324 8.152 0.298 13.947 6.296 4.543 4.703 4.528 9.389 12.099 13.016 12.672 5.857 19.646-8.737 30.54 0.374 1.036 3.587-2.312 9.324-4.702 10.919-2.391 1.594-15.143 12.513-35.067 3.427-19.925-9.085-18.491-31.72-16.817-34.032z" fill="url(#b)"/>
		<path opacity=".6" d="m57.118 40.009c2.391-1.595 5.738-7.332 4.702-10.919-0.241-0.202-0.481-0.388-0.719-0.567-1.737 1.021-4.94 3.915-4.94 3.915l-13.867 5.26-18.331-2.869-16.511-21.679-3.009-0.359c-0.636 7.187 1.542 23.319 17.607 30.645 19.925 9.085 32.677-1.833 35.068-3.427z" fill="#F6921E"/>
		<linearGradient id="a" y2="42.592" gradientUnits="userSpaceOnUse" y1="30.595" x2="28.011" x1="30.653">
			<stop stop-color="#FFEB5C" offset="0"/>
			<stop stop-color="#FFBD41" offset="1"/>
		</linearGradient><g stroke-miterlimit="10">
		<path stroke="#F6921E" d="m60.465 29.409c-1.444-3.082-11.397 1.753-11.397 1.753-7.771 2.391-13.469 4.464-21.777 0.528-5.843-2.768-10.022-10.57-12.174-14.396-2.152-3.825-8.201-5.45-10.233-6.287 0 0 0.914 5.346 2.824 11.396s13.215 19.116 25.341 20.499c13.071 1.49 29.807-8.393 27.416-13.493z" fill="url(#a)"/><g stroke-width="2">
		<path stroke="#F6921E" d="m5.234 8.927c0.959-1.325 8.152 0.775 13.947 6.773 4.543 4.703 4.528 9.389 12.099 13.016 12.672 5.857 19.646-8.737 30.54 0.374 1.036 3.587-2.312 9.324-4.702 10.919-2.391 1.594-15.143 12.513-35.067 3.427-19.925-9.085-18.491-32.199-16.817-34.509z" fill="none"/>
	<g stroke="#231F20">
		<polygon points="5.696 1.228 8.781 9.524 7.167 11.915 5.457 11.915 1.249 3.068 3.879 1.036" fill="#3B2314"/>
		<polygon stroke-linejoin="round" points="3.735 3.499 5.696 1.228 3.879 1.036 1.249 3.068" fill="#6D4732"/>
		<polygon stroke-linejoin="round" points="3.735 3.499 7.167 11.915 8.781 9.524 5.696 1.228" fill="#563222"/>
	</g>
	<g stroke="#231F20">
		<path d="m58.75 28.95l7.891-7.949 2.511 1.674-1.913 4.303s-5.143 3.548-6.338 4.504-2.776-1.901-2.151-2.532z" fill="#3B2314"/>
		<polygon stroke-linejoin="round" points="66.641 21.001 69.152 22.675 67.323 26.858 63.786 23.917" fill="#6D4732"/>
	</g>
	</g></g><path d="m9.927 16.101c5.03 9.291 12.998 18.793 24.259 19.659 7.305 0.562 14.729-1.505 21.497-4.084-1.742 1.329-3.741 2.386-5.719 3.314-2.474 1.16-5.061 2.087-7.722 2.71-5.891 1.379-12.094 1.182-17.521-1.683-4.102-2.164-7.479-5.524-10.042-9.359-1.193-1.786-2.221-3.681-3.077-5.649-0.684-1.574-1.322-3.225-1.675-4.908z" fill="#FFF1AB"/>
	<path d="m18.25 17.532c3.588 6.408 9.272 12.964 17.304 13.561 5.212 0.388 10.508-1.037 15.336-2.816-1.243 0.917-2.669 1.646-4.08 2.286-1.765 0.8-3.609 1.438-5.509 1.869-4.2 0.951-8.626 0.815-12.498-1.16-2.925-1.493-5.335-3.812-7.163-6.456-0.852-1.232-1.584-2.539-2.195-3.898-0.488-1.086-0.943-2.225-1.195-3.386z" fill="#FFDB45"/>
</svg>
