<!DOCTYPE svg PUBLIC '-//W3C//DTD SVG 1.1//EN' 'http://www.w3.org/Graphics/SVG/1.1/DTD/svg11.dtd'>
<svg xmlns="http://www.w3.org/2000/svg" xml:space="preserve" version="1.1" xmlns:xlink="http://www.w3.org/1999/xlink" viewBox="0 0 144.505 98.675" enable-background="new 0 0 144.505 98.675">
		<linearGradient id="b" y2="88.633" gradientUnits="userSpaceOnUse" y1="61.65" x2="61.882" x1="65.7">
			<stop stop-color="#F9EC31" offset="0"/>
			<stop stop-color="#F9A831" offset="1"/>
		</linearGradient>
		<path d="m9.583 18.537c2.006-2.77 17.047 0.622 29.167 13.167 9.5 9.833 9.469 19.635 25.302 27.218 26.5 12.25 41.085-18.272 63.865 0.782 2.167 7.5-4.833 19.499-9.833 22.833s-31.667 26.167-73.333 7.167-38.674-66.334-35.174-71.167z" fill="url(#b)"/>
		<path opacity=".6" d="m118.08 82.537c5-3.334 12-15.333 9.833-22.833-0.505-0.423-1.004-0.812-1.502-1.187-3.635 2.135-10.331 8.187-10.331 8.187l-29 11-38.333-6-34.526-45.334-6.293-0.751c-1.33 15.029 3.225 48.766 36.821 64.085 41.667 18.996 68.331-3.833 73.331-7.167z" fill="#F6921E"/>
		<linearGradient id="a" y2="87.94" gradientUnits="userSpaceOnUse" y1="62.851" x2="57.216" x1="62.74">
			<stop stop-color="#FFEB5C" offset="0"/>
			<stop stop-color="#FFBD41" offset="1"/>
		</linearGradient><g stroke-miterlimit="10">
		<path stroke="#F6921E" stroke-width="2" d="m125.08 60.371c-3.021-6.443-23.833 3.666-23.833 3.666-16.25 5-28.167 9.334-45.542 1.105-12.22-5.787-20.958-22.105-25.458-30.105s-17.15-11.4-21.4-13.15 1.91 11.179 5.905 23.831 27.635 39.977 52.994 42.868c27.334 3.118 62.331-17.549 57.331-28.215z" fill="url(#a)"/>
		<path stroke="#F6921E" stroke-width="3" d="m9.583 17.537c2.006-2.77 17.047 1.622 29.167 14.167 9.5 9.833 9.469 19.635 25.302 27.218 26.5 12.25 41.085-18.272 63.865 0.782 2.167 7.5-4.833 19.499-9.833 22.833s-31.667 26.167-73.333 7.167-38.674-67.334-35.174-72.167z" fill="none"/>
	<g stroke="#231F20" stroke-width="2">
		<polygon points="10.549 1.437 16.999 18.787 13.624 23.787 10.048 23.787 1.249 5.287 6.749 1.037" fill="#3B2314"/>
		<polygon stroke-linejoin="round" points="6.449 6.187 10.549 1.437 6.749 1.037 1.249 5.287" fill="#6D4732"/>
		<polygon stroke-linejoin="round" points="6.449 6.187 13.624 23.787 16.999 18.787 10.549 1.437" fill="#563222"/>
	</g>
	<g stroke="#231F20" stroke-width="2">
		<path d="m121.5 59.412l16.5-16.625 5.25 3.5-4 9s-10.756 7.419-13.256 9.419-5.8-3.976-4.49-5.294z" fill="#3B2314"/>
		<polygon stroke-linejoin="round" points="138 42.787 143.25 46.287 139.42 55.036 132.03 48.886" fill="#6D4732"/>
	</g>
	</g><path d="m19.397 32.54c10.52 19.43 27.182 39.302 50.73 41.112 15.274 1.173 30.802-3.146 44.955-8.541-3.643 2.78-7.821 4.99-11.958 6.932-5.173 2.426-10.584 4.363-16.148 5.666-12.316 2.885-25.292 2.471-36.642-3.518-8.577-4.525-15.641-11.554-21-19.573-2.495-3.734-4.644-7.697-6.435-11.814-1.426-3.292-2.76-6.743-3.498-10.264z" fill="#FFF1AB"/>
	<path d="m36.803 35.533c7.504 13.403 19.39 27.111 36.187 28.36 10.896 0.81 21.973-2.17 32.068-5.892-2.598 1.918-5.58 3.442-8.53 4.781-3.689 1.674-7.55 3.01-11.519 3.909-8.787 1.989-18.042 1.704-26.138-2.427-6.118-3.122-11.157-7.97-14.979-13.502-1.78-2.576-3.313-5.31-4.59-8.15-1.023-2.269-1.975-4.65-2.501-7.079z" fill="#FFDB45"/>
</svg>
