<?xml version="1.0" encoding="utf-8"?>
<!-- Generator: Adobe Illustrator 16.0.0, SVG Export Plug-In . SVG Version: 6.00 Build 0)  -->
<!DOCTYPE svg PUBLIC "-//W3C//DTD SVG 1.1//EN" "http://www.w3.org/Graphics/SVG/1.1/DTD/svg11.dtd">
<svg version="1.1" id="Layer_1" xmlns="http://www.w3.org/2000/svg" xmlns:xlink="http://www.w3.org/1999/xlink" 
	 viewBox="0 0 70.408 48.009" enable-background="new 0 0 70.408 48.009" xml:space="preserve">
<g>
	<g>
		<linearGradient id="SVGID_1_" gradientUnits="userSpaceOnUse" x1="32.0688" y1="30.0195" x2="30.243" y2="42.9224">
			<stop  offset="0" style="stop-color:#F9EC31"/>
			<stop  offset="1" style="stop-color:#F9A831"/>
		</linearGradient>
		<path fill="url(#SVGID_1_)" d="M5.234,9.404C6.193,8.08,13.386,9.702,19.181,15.7c4.543,4.703,4.528,9.389,12.099,13.016
			c12.672,5.857,19.646-8.737,30.54,0.374c1.036,3.587-2.312,9.324-4.702,10.919c-2.391,1.594-15.143,12.513-35.067,3.427
			C2.126,34.351,3.56,11.716,5.234,9.404z"/>
		<path opacity="0.6" fill="#F6921E" d="M57.118,40.009c2.391-1.595,5.738-7.332,4.702-10.919c-0.241-0.202-0.481-0.388-0.719-0.567
			c-1.737,1.021-4.94,3.915-4.94,3.915l-13.867,5.26l-18.331-2.869L7.452,13.15l-3.009-0.359C3.807,19.978,5.985,36.11,22.05,43.436
			C41.975,52.521,54.727,41.603,57.118,40.009z"/>
		<linearGradient id="SVGID_2_" gradientUnits="userSpaceOnUse" x1="30.6528" y1="30.5947" x2="28.0113" y2="42.5919">
			<stop  offset="0" style="stop-color:#FFEB5C"/>
			<stop  offset="1" style="stop-color:#FFBD41"/>
		</linearGradient>
		<path fill="url(#SVGID_2_)" stroke="#F6921E" stroke-miterlimit="10" d="M60.465,29.409c-1.444-3.082-11.397,1.753-11.397,1.753
			c-7.771,2.391-13.469,4.464-21.777,0.528c-5.843-2.768-10.022-10.57-12.174-14.396c-2.152-3.825-8.201-5.45-10.233-6.287
			c0,0,0.914,5.346,2.824,11.396s13.215,19.116,25.341,20.499C46.12,44.392,62.856,34.509,60.465,29.409z"/>
		<path fill="none" stroke="#F6921E" stroke-width="2" stroke-miterlimit="10" d="M5.234,8.927
			c0.959-1.325,8.152,0.775,13.947,6.773c4.543,4.703,4.528,9.389,12.099,13.016c12.672,5.857,19.646-8.737,30.54,0.374
			c1.036,3.587-2.312,9.324-4.702,10.919c-2.391,1.594-15.143,12.513-35.067,3.427C2.126,34.351,3.56,11.237,5.234,8.927z"/>
	</g>
	<g>
		<polygon fill="#3B2314" stroke="#231F20" stroke-width="2" stroke-miterlimit="10" points="5.696,1.228 8.781,9.524 7.167,11.915 
			5.457,11.915 1.249,3.068 3.879,1.036 		"/>
		<polygon fill="#6D4732" stroke="#231F20" stroke-width="2" stroke-linejoin="round" stroke-miterlimit="10" points="3.735,3.499 
			5.696,1.228 3.879,1.036 1.249,3.068 		"/>
		<polygon fill="#563222" stroke="#231F20" stroke-width="2" stroke-linejoin="round" stroke-miterlimit="10" points="3.735,3.499 
			7.167,11.915 8.781,9.524 5.696,1.228 		"/>
	</g>
	<g>
		<path fill="#3B2314" stroke="#231F20" stroke-width="2" stroke-miterlimit="10" d="M58.75,28.95l7.891-7.949l2.511,1.674
			l-1.913,4.303c0,0-5.143,3.548-6.338,4.504C59.706,32.438,58.125,29.581,58.75,28.95z"/>
		<polygon fill="#6D4732" stroke="#231F20" stroke-width="2" stroke-linejoin="round" stroke-miterlimit="10" points="
			66.641,21.001 69.152,22.675 67.323,26.858 63.786,23.917 		"/>
	</g>
	<path fill="#FFF1AB" d="M9.927,16.101c5.03,9.291,12.998,18.793,24.259,19.659c7.305,0.562,14.729-1.505,21.497-4.084
		c-1.742,1.329-3.741,2.386-5.719,3.314c-2.474,1.16-5.061,2.087-7.722,2.71c-5.891,1.379-12.094,1.182-17.521-1.683
		c-4.102-2.164-7.479-5.524-10.042-9.359c-1.193-1.786-2.221-3.681-3.077-5.649C10.918,19.435,10.28,17.784,9.927,16.101z"/>
	<path fill="#FFDB45" d="M18.25,17.532c3.588,6.408,9.272,12.964,17.304,13.561c5.212,0.388,10.508-1.037,15.336-2.816
		c-1.243,0.917-2.669,1.646-4.08,2.286c-1.765,0.8-3.609,1.438-5.509,1.869c-4.2,0.951-8.626,0.815-12.498-1.16
		c-2.925-1.493-5.335-3.812-7.163-6.456c-0.852-1.232-1.584-2.539-2.195-3.898C18.957,19.832,18.502,18.693,18.25,17.532z"/>
</g>
</svg>
