<?xml version="1.0" encoding="utf-8"?>
<!-- Generator: Adobe Illustrator 16.2.1, SVG Export Plug-In . SVG Version: 6.00 Build 0)  -->
<!DOCTYPE svg PUBLIC "-//W3C//DTD SVG 1.1//EN" "http://www.w3.org/Graphics/SVG/1.1/DTD/svg11.dtd">
<svg version="1.1" id="Layer_1" xmlns="http://www.w3.org/2000/svg" xmlns:xlink="http://www.w3.org/1999/xlink" 
	 viewBox="0 0 144.505 98.675" enable-background="new 0 0 144.505 98.675"
	 xml:space="preserve">
<g>
	<g>
		<linearGradient id="SVGID_1_" gradientUnits="userSpaceOnUse" x1="65.7002" y1="61.6499" x2="61.8818" y2="88.633">
			<stop  offset="0" style="stop-color:#F9EC31"/>
			<stop  offset="1" style="stop-color:#F9A831"/>
		</linearGradient>
		<path fill="url(#SVGID_1_)" d="M9.583,18.537c2.006-2.77,17.047,0.622,29.167,13.167c9.5,9.833,9.469,19.635,25.302,27.218
			c26.5,12.25,41.085-18.272,63.865,0.782c2.167,7.5-4.833,19.499-9.833,22.833s-31.667,26.167-73.333,7.167
			S6.083,23.37,9.583,18.537z"/>
		<path opacity="0.6" fill="#F6921E" d="M118.083,82.537c5-3.334,12-15.333,9.833-22.833c-0.505-0.423-1.004-0.812-1.502-1.187
			c-3.635,2.135-10.331,8.187-10.331,8.187l-29,11l-38.333-6L14.221,26.37l-6.293-0.751c-1.33,15.029,3.225,48.766,36.821,64.085
			C86.416,108.704,113.083,85.871,118.083,82.537z"/>
		<linearGradient id="SVGID_2_" gradientUnits="userSpaceOnUse" x1="62.7397" y1="62.8511" x2="57.2156" y2="87.9401">
			<stop  offset="0" style="stop-color:#FFEB5C"/>
			<stop  offset="1" style="stop-color:#FFBD41"/>
		</linearGradient>
		<path fill="url(#SVGID_2_)" stroke="#F6921E" stroke-width="2" stroke-miterlimit="10" d="M125.083,60.371
			c-3.021-6.443-23.833,3.666-23.833,3.666c-16.25,5-28.167,9.334-45.542,1.105c-12.22-5.787-20.958-22.105-25.458-30.105
			S13.1,23.637,8.85,21.887c0,0,1.91,11.179,5.905,23.831c3.995,12.652,27.635,39.977,52.994,42.868
			C95.083,91.704,130.083,71.037,125.083,60.371z"/>
		<path fill="none" stroke="#F6921E" stroke-width="3" stroke-miterlimit="10" d="M9.583,17.537
			c2.006-2.77,17.047,1.622,29.167,14.167c9.5,9.833,9.469,19.635,25.302,27.218c26.5,12.25,41.085-18.272,63.865,0.782
			c2.167,7.5-4.833,19.499-9.833,22.833s-31.667,26.167-73.333,7.167S6.083,22.37,9.583,17.537z"/>
	</g>
	<g>
		<polygon fill="#3B2314" stroke="#231F20" stroke-width="2" stroke-miterlimit="10" points="10.549,1.437 16.999,18.787 
			13.624,23.787 10.048,23.787 1.249,5.287 6.749,1.037 		"/>
		<polygon fill="#6D4732" stroke="#231F20" stroke-width="2" stroke-linejoin="round" stroke-miterlimit="10" points="6.449,6.187 
			10.549,1.437 6.749,1.037 1.249,5.287 		"/>
		<polygon fill="#563222" stroke="#231F20" stroke-width="2" stroke-linejoin="round" stroke-miterlimit="10" points="6.449,6.187 
			13.624,23.787 16.999,18.787 10.549,1.437 		"/>
	</g>
	<g>
		<path fill="#3B2314" stroke="#231F20" stroke-width="2" stroke-miterlimit="10" d="M121.5,59.412L138,42.787l5.25,3.5l-4,9
			c0,0-10.756,7.419-13.256,9.419S120.191,60.73,121.5,59.412z"/>
		<polygon fill="#6D4732" stroke="#231F20" stroke-width="2" stroke-linejoin="round" stroke-miterlimit="10" points="138,42.787 
			143.25,46.287 139.423,55.036 132.026,48.886 		"/>
	</g>
	<path fill="#FFF1AB" d="M19.397,32.54c10.52,19.43,27.182,39.302,50.73,41.112c15.274,1.173,30.802-3.146,44.955-8.541
		c-3.643,2.78-7.821,4.99-11.958,6.932c-5.173,2.426-10.584,4.363-16.148,5.666c-12.316,2.885-25.292,2.471-36.642-3.518
		c-8.577-4.525-15.641-11.554-21-19.573c-2.495-3.734-4.644-7.697-6.435-11.814C21.469,39.512,20.135,36.061,19.397,32.54z"/>
	<path fill="#FFDB45" d="M36.803,35.533c7.504,13.403,19.39,27.111,36.187,28.36c10.896,0.81,21.973-2.17,32.068-5.892
		c-2.598,1.918-5.58,3.442-8.53,4.781c-3.689,1.674-7.55,3.01-11.519,3.909c-8.787,1.989-18.042,1.704-26.138-2.427
		c-6.118-3.122-11.157-7.97-14.979-13.502c-1.78-2.576-3.313-5.31-4.59-8.15C38.281,40.343,37.329,37.962,36.803,35.533z"/>
</g>
</svg>
