<?xml version="1.0" encoding="utf-8"?>
<!-- Generator: Adobe Illustrator 16.2.1, SVG Export Plug-In . SVG Version: 6.00 Build 0)  -->
<!DOCTYPE svg PUBLIC "-//W3C//DTD SVG 1.1//EN" "http://www.w3.org/Graphics/SVG/1.1/DTD/svg11.dtd">
<svg version="1.1" id="Layer_1" xmlns="http://www.w3.org/2000/svg" xmlns:xlink="http://www.w3.org/1999/xlink" 
	 viewBox="0 0 156.961 79.931" enable-background="new 0 0 156.961 79.931"
	 xml:space="preserve">
<g>
	<radialGradient id="SVGID_1_" cx="80.3281" cy="62.1416" r="91.2816" gradientUnits="userSpaceOnUse">
		<stop  offset="0" style="stop-color:#ECD123"/>
		<stop  offset="0.8098" style="stop-color:#D3A507"/>
		<stop  offset="0.9448" style="stop-color:#D3D12B"/>
	</radialGradient>
	<path fill="url(#SVGID_1_)" d="M145.17,2.806c0.21-1.037,0.853-1.611,2.369-1.137c1.517,0.474,4.358,1.232,5.211,1.421
		c0.853,0.19,1.896,1.138,2.653,1.706c0.38,0.474-1.231,2.274-1.231,2.274s-3.98,10.234-3.41,18.953
		c0.568,8.72-0.068,22.313-13.647,32.886c-13.269,10.33-31.274,19.521-56.956,19.521c-3.033-0.095-32.696-0.663-61.695-26.156
		c0,0-10.71-10.328-13.835-21.133C1.595,24.412,1.5,23.749,1.5,22.802c0-0.948,0.948-1.706,2.369-1.801
		c0.474-0.095,0.095-1.327,0.664-1.422c0.568-0.095,1.706-0.854,2.938-1.232c1.23-0.377,3.602-0.758,7.296,1.99
		c3.696,2.749,6.657,3.703,8.188,4.123c2.238,0.616,17.876,9.81,20.148,10.852c2.274,1.043,20.375,10.899,38.856,10.899
		c18.479,0,33.074-7.697,41.317-13.668c8.246-5.969,15.449-10.216,16.586-12.111C141,18.536,141.568,20.432,145.17,2.806z"/>
	<path fill="#FFEB76" d="M155.476,4.44c0,0-0.925-0.596-2.204-1.166c-1.28-0.567-5.942-1.677-5.942-1.677s-1.686-0.568-2.113,0.972
		c-0.497,3.246-2.984,13.835-4.026,16.015c0.995-1.799,0.96-2.345,1.385-3.375c0.429-1.03,3.021-12.901,4.159-12.83
		c0.392,0.014,0.919,0.107,1.519,0.251c-1.104,3.147-6.776,19.194-8.058,20.218c-0.711,0.427-0.284-1.848,0.143-2.983
		c0,0-1.637,2.145-3.625,3.354c0,0-15.424,10.79-17.912,12.352c-2.487,1.563-15.921,10.59-38.238,10.59
		c-23.884,0-50.182-18.393-56.719-21.378c0,0-5.118-1.777-6.186-2.532c-1.065-0.752-5.757-3.951-6.682-3.808
		c0,0-2.131,0.282-1.562,1.136c0.566,0.853,6.964,7.961,11.229,8.529c2.133,0.427,16.634,9.81,21.181,12.511
		c4.549,2.699,20.897,11.514,38.382,11.514s38.168-7.463,48.048-17.342c2.274-2.275,11.23-9.525,12.51-10.663
		c1.222-1.086,8.148-18.771,8.52-21.222c2.443,0.706,5.415,1.882,5.768,2.032C155.546,5.151,155.476,4.44,155.476,4.44z"/>
	<path fill="#FFC933" d="M37.276,39.197c0,0-13.222-8.529-16.35-9.667c-3.127-1.137-10.233-2.843-12.082-1.422
		C6.997,29.53,7.85,35.928,14.388,44.74c6.539,8.813,30.421,29.854,65.817,29.71c35.396-0.143,46.626-10.519,49.753-12.509
		c3.128-1.99,13.79-9.524,18.055-22.175c4.264-12.653-5.401-12.653-8.529-11.373c-4.543,1.858-24.023,24.734-57.146,24.734
		C56.75,53.128,37.276,39.197,37.276,39.197z"/>
	<linearGradient id="SVGID_2_" gradientUnits="userSpaceOnUse" x1="5.7798" y1="21.2202" x2="7.7697" y2="18.3775">
		<stop  offset="0.0184" style="stop-color:#1F1401"/>
		<stop  offset="1" style="stop-color:#472701"/>
	</linearGradient>
	<path fill="url(#SVGID_2_)" d="M3.49,21.759c0,0-1.138,0.853-1.801,0.853s1.232-1.61,2.18-1.893c0.284-0.098,0.38-1.045,0.38-1.045
		l1.042-0.379c0,0,3.98-1.896,5.876-1.325c0.282,0.282-0.191,0.474-0.191,0.474s-1.327,0.095-2.367,1.043
		C7.565,20.432,5.48,21.096,3.49,21.759z"/>
	<path fill="#1E1003" d="M149.221,3.161c0,0,4.478,0.995,5.26,1.777c0.212,0.569-1.279,2.275-1.706,3.697
		c-0.426,1.421-2.843,8.457-3.058,19.83c-0.069,6.538-0.708,7.675-0.708,7.675s0.992-5.472-2.986-7.604
		c-2.843-1.422-7.534-1.065-7.534-1.065s2.559-1.99,4.051-5.474C144.032,18.514,149.221,3.161,149.221,3.161z"/>
	<linearGradient id="SVGID_3_" gradientUnits="userSpaceOnUse" x1="140.71" y1="19.9087" x2="141.3899" y2="20.1222">
		<stop  offset="0" style="stop-color:#42210B;stop-opacity:0"/>
		<stop  offset="1" style="stop-color:#42210B"/>
	</linearGradient>
	<path fill="url(#SVGID_3_)" d="M140.716,19.486c0,0,1.516-0.761,1.326,0c-0.189,0.758-0.568,1.799-1.421,1.515
		C139.768,20.719,140.716,19.486,140.716,19.486z"/>
	
		<linearGradient id="SVGID_4_" gradientUnits="userSpaceOnUse" x1="21.0801" y1="48.3838" x2="21.0451" y2="50.0442" gradientTransform="matrix(0.9933 0.1157 -0.1157 0.9933 17.8771 10.6733)">
		<stop  offset="0" style="stop-color:#42210B;stop-opacity:0"/>
		<stop  offset="1" style="stop-color:#42210B"/>
	</linearGradient>
	<path fill="url(#SVGID_4_)" d="M32.962,63.04c-0.262-0.074-0.798-0.321-0.51-0.646c0.48-0.444,1.292-0.014,1.156,0.705
		C33.514,63.413,32.962,63.04,32.962,63.04z"/>
	<linearGradient id="SVGID_5_" gradientUnits="userSpaceOnUse" x1="7.3379" y1="23.9316" x2="6.3961" y2="26.4013">
		<stop  offset="0" style="stop-color:#42210B;stop-opacity:0"/>
		<stop  offset="1" style="stop-color:#42210B"/>
	</linearGradient>
	<path fill="url(#SVGID_5_)" d="M6.429,25.171c0.75-0.05,1.411,0.431,1.311,1.216c-0.269,0.869-1.216,1.059-2.069,0.585
		c-0.641-0.356-0.607-1.288,0-1.517L6.429,25.171z"/>
	<linearGradient id="SVGID_6_" gradientUnits="userSpaceOnUse" x1="7.4922" y1="27.2764" x2="8.591" y2="27.2764">
		<stop  offset="0" style="stop-color:#42210B;stop-opacity:0"/>
		<stop  offset="1" style="stop-color:#42210B"/>
	</linearGradient>
	<path fill="url(#SVGID_6_)" d="M7.881,26.794c0.241-0.179,1.062-0.587,1.075-0.08c0.015,0.507-0.758,1.667-1.012,1.3
		C7.691,27.647,7.881,26.794,7.881,26.794z"/>
	<path fill="#1E1003" d="M134.448,25.463c-0.366,0.148-0.545,5.451,4.04,1.351s10.593-23.24,10.593-23.24l-2.703-0.918
		C146.378,2.655,142.198,22.338,134.448,25.463z"/>
	<path fill="none" stroke="#F6921E" stroke-width="3" stroke-miterlimit="10" d="M145.17,2.806c0.21-1.037,0.853-1.611,2.369-1.137
		c1.517,0.474,4.358,1.232,5.211,1.421c0.853,0.19,1.896,1.138,2.653,1.706c0.38,0.474-1.231,2.274-1.231,2.274
		s-3.98,10.234-3.41,18.953c0.568,8.72-0.068,22.313-13.647,32.886c-13.269,10.33-31.274,19.521-56.956,19.521
		c-3.033-0.095-32.696-0.663-61.695-26.156c0,0-10.71-10.328-13.835-21.133C1.595,24.412,1.5,23.749,1.5,22.802
		c0-0.948,0.948-1.706,2.369-1.801c0.474-0.095,0.095-1.327,0.664-1.422c0.568-0.095,1.706-0.854,2.938-1.232
		c1.23-0.377,3.602-0.758,7.296,1.99c3.696,2.749,6.657,3.703,8.188,4.123c2.238,0.616,17.876,9.81,20.148,10.852
		c2.274,1.043,20.375,10.899,38.856,10.899c18.479,0,33.074-7.697,41.317-13.668c8.246-5.969,15.449-10.216,16.586-12.111
		C141,18.536,141.568,20.432,145.17,2.806z"/>
</g>
</svg>
