<!DOCTYPE svg PUBLIC '-//W3C//DTD SVG 1.1//EN' 'http://www.w3.org/Graphics/SVG/1.1/DTD/svg11.dtd'>
<svg xmlns="http://www.w3.org/2000/svg" xml:space="preserve" version="1.1" xmlns:xlink="http://www.w3.org/1999/xlink" viewBox="0 0 156.961 79.931" enable-background="new 0 0 156.961 79.931">
	<radialGradient id="f" gradientUnits="userSpaceOnUse" cy="62.142" cx="80.328" r="91.282">
		<stop stop-color="#ECD123" offset="0"/>
		<stop stop-color="#D3A507" offset=".8098"/>
		<stop stop-color="#D3D12B" offset=".9448"/>
	</radialGradient>
	<path d="m145.17 2.806c0.21-1.037 0.853-1.611 2.369-1.137 1.517 0.474 4.358 1.232 5.211 1.421 0.853 0.19 1.896 1.138 2.653 1.706 0.38 0.474-1.231 2.274-1.231 2.274s-3.98 10.234-3.41 18.953c0.568 8.72-0.068 22.313-13.647 32.886-13.269 10.33-31.274 19.521-56.956 19.521-3.033-0.095-32.696-0.663-61.695-26.156 0 0-10.71-10.328-13.835-21.133-3.029-6.729-3.124-7.392-3.124-8.339 0-0.948 0.948-1.706 2.369-1.801 0.474-0.095 0.095-1.327 0.664-1.422 0.568-0.095 1.706-0.854 2.938-1.232 1.23-0.377 3.602-0.758 7.296 1.99 3.696 2.749 6.657 3.703 8.188 4.123 2.238 0.616 17.876 9.81 20.148 10.852 2.274 1.043 20.375 10.899 38.856 10.899 18.479 0 33.074-7.697 41.317-13.668 8.246-5.969 15.449-10.216 16.586-12.111 1.13-1.896 1.7 0 5.3-17.626z" fill="url(#f)"/>
	<path d="m155.48 4.44s-0.925-0.596-2.204-1.166c-1.28-0.567-5.942-1.677-5.942-1.677s-1.686-0.568-2.113 0.972c-0.497 3.246-2.984 13.835-4.026 16.015 0.995-1.799 0.96-2.345 1.385-3.375 0.429-1.03 3.021-12.901 4.159-12.83 0.392 0.014 0.919 0.107 1.519 0.251-1.104 3.147-6.776 19.194-8.058 20.218-0.711 0.427-0.284-1.848 0.143-2.983 0 0-1.637 2.145-3.625 3.354 0 0-15.424 10.79-17.912 12.352-2.487 1.563-15.921 10.59-38.238 10.59-23.884 0-50.182-18.393-56.719-21.378 0 0-5.118-1.777-6.186-2.532-1.065-0.752-5.757-3.951-6.682-3.808 0 0-2.131 0.282-1.562 1.136 0.566 0.853 6.964 7.961 11.229 8.529 2.133 0.427 16.634 9.81 21.181 12.511 4.549 2.699 20.897 11.514 38.382 11.514s38.168-7.463 48.048-17.342c2.274-2.275 11.23-9.525 12.51-10.663 1.222-1.086 8.148-18.771 8.52-21.222 2.443 0.706 5.415 1.882 5.768 2.032 0.49 0.213 0.42-0.498 0.42-0.498z" fill="#FFEB76"/>
	<path d="m37.276 39.197s-13.222-8.529-16.35-9.667c-3.127-1.137-10.233-2.843-12.082-1.422-1.847 1.422-0.994 7.82 5.544 16.632 6.539 8.813 30.421 29.854 65.817 29.71 35.396-0.143 46.626-10.519 49.753-12.509 3.128-1.99 13.79-9.524 18.055-22.175 4.264-12.653-5.401-12.653-8.529-11.373-4.543 1.858-24.023 24.734-57.146 24.734-25.594 0.001-45.068-13.93-45.068-13.93z" fill="#FFC933"/>
	<linearGradient id="e" y2="18.378" gradientUnits="userSpaceOnUse" y1="21.22" x2="7.7697" x1="5.7798">
		<stop stop-color="#1F1401" offset=".0184"/>
		<stop stop-color="#472701" offset="1"/>
	</linearGradient>
	<path d="m3.49 21.759s-1.138 0.853-1.801 0.853 1.232-1.61 2.18-1.893c0.284-0.098 0.38-1.045 0.38-1.045l1.042-0.379s3.98-1.896 5.876-1.325c0.282 0.282-0.191 0.474-0.191 0.474s-1.327 0.095-2.367 1.043c-1.044 0.945-3.129 1.609-5.119 2.272z" fill="url(#e)"/>
	<path d="m149.22 3.161s4.478 0.995 5.26 1.777c0.212 0.569-1.279 2.275-1.706 3.697-0.426 1.421-2.843 8.457-3.058 19.83-0.069 6.538-0.708 7.675-0.708 7.675s0.992-5.472-2.986-7.604c-2.843-1.422-7.534-1.065-7.534-1.065s2.559-1.99 4.051-5.474c1.5-3.483 6.69-18.836 6.69-18.836z" fill="#1E1003"/>
	<linearGradient id="d" y2="20.122" gradientUnits="userSpaceOnUse" y1="19.909" x2="141.39" x1="140.71">
		<stop stop-color="#42210B" stop-opacity="0" offset="0"/>
		<stop stop-color="#42210B" offset="1"/>
	</linearGradient>
	<path d="m140.72 19.486s1.516-0.761 1.326 0c-0.189 0.758-0.568 1.799-1.421 1.515-0.86-0.282 0.09-1.515 0.09-1.515z" fill="url(#d)"/>
		<linearGradient id="c" x1="21.08" gradientUnits="userSpaceOnUse" y1="48.384" gradientTransform="matrix(.9933 .1157 -.1157 .9933 17.877 10.673)" x2="21.045" y2="50.044">
		<stop stop-color="#42210B" stop-opacity="0" offset="0"/>
		<stop stop-color="#42210B" offset="1"/>
	</linearGradient>
	<path d="m32.962 63.04c-0.262-0.074-0.798-0.321-0.51-0.646 0.48-0.444 1.292-0.014 1.156 0.705-0.094 0.314-0.646-0.059-0.646-0.059z" fill="url(#c)"/>
	<linearGradient id="b" y2="26.401" gradientUnits="userSpaceOnUse" y1="23.932" x2="6.3961" x1="7.3379">
		<stop stop-color="#42210B" stop-opacity="0" offset="0"/>
		<stop stop-color="#42210B" offset="1"/>
	</linearGradient>
	<path d="m6.429 25.171c0.75-0.05 1.411 0.431 1.311 1.216-0.269 0.869-1.216 1.059-2.069 0.585-0.641-0.356-0.607-1.288 0-1.517l0.758-0.284z" fill="url(#b)"/>
	<linearGradient id="a" y2="27.276" gradientUnits="userSpaceOnUse" y1="27.276" x2="8.591" x1="7.4922">
		<stop stop-color="#42210B" stop-opacity="0" offset="0"/>
		<stop stop-color="#42210B" offset="1"/>
	</linearGradient>
	<path d="m7.881 26.794c0.241-0.179 1.062-0.587 1.075-0.08 0.015 0.507-0.758 1.667-1.012 1.3-0.253-0.367-0.063-1.22-0.063-1.22z" fill="url(#a)"/>
	<path d="m134.45 25.463c-0.366 0.148-0.545 5.451 4.04 1.351s10.593-23.24 10.593-23.24l-2.703-0.918c0-0.001-4.18 19.682-11.93 22.807z" fill="#1E1003"/>
	<path stroke="#F6921E" stroke-width="3" stroke-miterlimit="10" d="m145.17 2.806c0.21-1.037 0.853-1.611 2.369-1.137 1.517 0.474 4.358 1.232 5.211 1.421 0.853 0.19 1.896 1.138 2.653 1.706 0.38 0.474-1.231 2.274-1.231 2.274s-3.98 10.234-3.41 18.953c0.568 8.72-0.068 22.313-13.647 32.886-13.269 10.33-31.274 19.521-56.956 19.521-3.033-0.095-32.696-0.663-61.695-26.156 0 0-10.71-10.328-13.835-21.133-3.029-6.729-3.124-7.392-3.124-8.339 0-0.948 0.948-1.706 2.369-1.801 0.474-0.095 0.095-1.327 0.664-1.422 0.568-0.095 1.706-0.854 2.938-1.232 1.23-0.377 3.602-0.758 7.296 1.99 3.696 2.749 6.657 3.703 8.188 4.123 2.238 0.616 17.876 9.81 20.148 10.852 2.274 1.043 20.375 10.899 38.856 10.899 18.479 0 33.074-7.697 41.317-13.668 8.246-5.969 15.449-10.216 16.586-12.111 1.13-1.896 1.7 0 5.3-17.626z" fill="none"/>
</svg>
