<?xml version="1.0" encoding="utf-8"?>
<!-- Generator: Adobe Illustrator 16.2.1, SVG Export Plug-In . SVG Version: 6.00 Build 0)  -->
<!DOCTYPE svg PUBLIC "-//W3C//DTD SVG 1.1//EN" "http://www.w3.org/Graphics/SVG/1.1/DTD/svg11.dtd">
<svg version="1.1" id="Layer_1" xmlns="http://www.w3.org/2000/svg" xmlns:xlink="http://www.w3.org/1999/xlink" 
	 viewBox="0 0 101.764 99.982" enable-background="new 0 0 101.764 99.982"
	 xml:space="preserve">
<g>
	<path fill="#C86600" d="M51.292,99.982c-4.936,0-10.046-0.48-13.668-1.285c-8.968-1.995-22.683-9.727-31.821-24.954
		c-8.79-14.651-6.164-33.629-1.493-42.426C10.524,19.621,24.455,0,47.923,0c16.983,0,31.526,6.076,38.903,16.254
		c2.104,2.901,3.83,4.759,5.354,6.398c3.42,3.679,5.889,6.335,8.156,15.92c4.018,16.998-0.555,35.006-12.227,48.166
		C77.886,98.262,60.656,99.982,51.292,99.982z M47.98,5.718c-20.532,0-32.979,17.662-38.572,28.189
		C5.467,41.327,3.165,58.2,10.75,70.842c7.661,12.766,19.664,20.388,28.163,22.275c1.21,0.27,5.681,1.147,12.372,1.147
		c8.384,0,23.758-1.479,32.553-11.39c15.441-17.412,12.26-37.307,10.918-42.991c-1.934-8.176-3.682-10.057-6.855-13.473
		c-1.508-1.621-3.383-3.64-5.611-6.713C76.035,11.073,62.89,5.718,47.98,5.718z"/>
	<g>
		<radialGradient id="SVGID_1_" cx="65.9761" cy="48.1055" r="75.1198" gradientUnits="userSpaceOnUse">
			<stop  offset="0" style="stop-color:#FFE296"/>
			<stop  offset="0.1472" style="stop-color:#FFC600"/>
			<stop  offset="0.3129" style="stop-color:#F7A600"/>
			<stop  offset="0.5846" style="stop-color:#ED8800"/>
			<stop  offset="0.7162" style="stop-color:#EB7F00"/>
			<stop  offset="0.97" style="stop-color:#EC6608"/>
		</radialGradient>
		<path fill="url(#SVGID_1_)" d="M47.98,3.351c15.66,0,29.449,5.609,36.224,14.956c6.779,9.347,9.818,8.18,12.855,21.035
			c3.038,12.852,1.4,30.613-11.451,45.105C72.753,98.937,46.813,97.299,38.4,95.432c-8.413-1.871-21.269-9.352-29.682-23.374
			c-8.414-14.022-5.375-31.782-1.4-39.262C11.289,25.319,24.378,3.351,47.98,3.351z"/>
		<g opacity="0.5">
			<radialGradient id="SVGID_2_" cx="60.9897" cy="47.2305" r="33.2008" gradientUnits="userSpaceOnUse">
				<stop  offset="0" style="stop-color:#FFFFFF"/>
				<stop  offset="1" style="stop-color:#FFFFFF;stop-opacity:0"/>
			</radialGradient>
			<path fill="url(#SVGID_2_)" d="M54.498,40.042c0,0.579-0.475,1.052-1.053,1.052c-0.582,0-1.053-0.473-1.053-1.052
				c0-0.582,0.471-1.052,1.053-1.052C54.023,38.99,54.498,39.46,54.498,40.042z"/>
			<radialGradient id="SVGID_3_" cx="60.9849" cy="47.2319" r="33.1895" gradientUnits="userSpaceOnUse">
				<stop  offset="0" style="stop-color:#FFFFFF"/>
				<stop  offset="1" style="stop-color:#FFFFFF;stop-opacity:0"/>
			</radialGradient>
			<circle fill="url(#SVGID_3_)" cx="53.093" cy="36.011" r="1.052"/>
			<radialGradient id="SVGID_4_" cx="60.98" cy="47.2295" r="33.1859" gradientUnits="userSpaceOnUse">
				<stop  offset="0" style="stop-color:#FFFFFF"/>
				<stop  offset="1" style="stop-color:#FFFFFF;stop-opacity:0"/>
			</radialGradient>
			<circle fill="url(#SVGID_4_)" cx="58.702" cy="41.794" r="1.052"/>
			<radialGradient id="SVGID_5_" cx="60.98" cy="47.2344" r="33.1222" gradientUnits="userSpaceOnUse">
				<stop  offset="0" style="stop-color:#FFFFFF"/>
				<stop  offset="1" style="stop-color:#FFFFFF;stop-opacity:0"/>
			</radialGradient>
			<circle fill="url(#SVGID_5_)" cx="58.876" cy="50.382" r="0.723"/>
			<radialGradient id="SVGID_6_" cx="60.981" cy="47.2256" r="33.1836" gradientUnits="userSpaceOnUse">
				<stop  offset="0" style="stop-color:#FFFFFF"/>
				<stop  offset="1" style="stop-color:#FFFFFF;stop-opacity:0"/>
			</radialGradient>
			<circle fill="url(#SVGID_6_)" cx="62.229" cy="54.765" r="0.723"/>
			<radialGradient id="SVGID_7_" cx="60.9751" cy="47.2266" r="33.1864" gradientUnits="userSpaceOnUse">
				<stop  offset="0" style="stop-color:#FFFFFF"/>
				<stop  offset="1" style="stop-color:#FFFFFF;stop-opacity:0"/>
			</radialGradient>
			<circle fill="url(#SVGID_7_)" cx="67.641" cy="60.199" r="0.724"/>
			<radialGradient id="SVGID_8_" cx="60.9829" cy="47.2236" r="33.2045" gradientUnits="userSpaceOnUse">
				<stop  offset="0" style="stop-color:#FFFFFF"/>
				<stop  offset="1" style="stop-color:#FFFFFF;stop-opacity:0"/>
			</radialGradient>
			<circle fill="url(#SVGID_8_)" cx="57.124" cy="53.89" r="0.724"/>
			<radialGradient id="SVGID_9_" cx="60.9829" cy="47.2261" r="33.1848" gradientUnits="userSpaceOnUse">
				<stop  offset="0" style="stop-color:#FFFFFF"/>
				<stop  offset="1" style="stop-color:#FFFFFF;stop-opacity:0"/>
			</radialGradient>
			<circle fill="url(#SVGID_9_)" cx="56.249" cy="58.118" r="0.723"/>
			<radialGradient id="SVGID_10_" cx="60.9858" cy="47.2271" r="33.1927" gradientUnits="userSpaceOnUse">
				<stop  offset="0" style="stop-color:#FFFFFF"/>
				<stop  offset="1" style="stop-color:#FFFFFF;stop-opacity:0"/>
			</radialGradient>
			<circle fill="url(#SVGID_10_)" cx="49.762" cy="50.208" r="0.723"/>
			<radialGradient id="SVGID_11_" cx="60.9907" cy="47.23" r="33.1913" gradientUnits="userSpaceOnUse">
				<stop  offset="0" style="stop-color:#FFFFFF"/>
				<stop  offset="1" style="stop-color:#FFFFFF;stop-opacity:0"/>
			</radialGradient>
			<circle fill="url(#SVGID_11_)" cx="43.279" cy="51.611" r="0.723"/>
			<radialGradient id="SVGID_12_" cx="60.98" cy="47.229" r="33.1825" gradientUnits="userSpaceOnUse">
				<stop  offset="0" style="stop-color:#FFFFFF"/>
				<stop  offset="1" style="stop-color:#FFFFFF;stop-opacity:0"/>
			</radialGradient>
			<circle fill="url(#SVGID_12_)" cx="63.259" cy="42.846" r="0.723"/>
			<radialGradient id="SVGID_13_" cx="60.981" cy="47.2129" r="33.1196" gradientUnits="userSpaceOnUse">
				<stop  offset="0" style="stop-color:#FFFFFF"/>
				<stop  offset="1" style="stop-color:#FFFFFF;stop-opacity:0"/>
			</radialGradient>
			<path fill="url(#SVGID_13_)" d="M62.582,38.835c0,0.401-0.326,0.724-0.723,0.724c-0.402,0-0.725-0.322-0.725-0.724
				c0-0.397,0.322-0.72,0.725-0.72C62.255,38.115,62.582,38.438,62.582,38.835z"/>
			<radialGradient id="SVGID_14_" cx="60.9731" cy="47.2139" r="33.1729" gradientUnits="userSpaceOnUse">
				<stop  offset="0" style="stop-color:#FFFFFF"/>
				<stop  offset="1" style="stop-color:#FFFFFF;stop-opacity:0"/>
			</radialGradient>
			<path fill="url(#SVGID_14_)" d="M69.591,39.868c0,0.397-0.322,0.72-0.724,0.72c-0.397,0-0.724-0.322-0.724-0.72
				c0-0.401,0.326-0.724,0.724-0.724C69.269,39.144,69.591,39.466,69.591,39.868z"/>
			<radialGradient id="SVGID_15_" cx="60.9741" cy="47.2251" r="33.1419" gradientUnits="userSpaceOnUse">
				<stop  offset="0" style="stop-color:#FFFFFF"/>
				<stop  offset="1" style="stop-color:#FFFFFF;stop-opacity:0"/>
			</radialGradient>
			<path fill="url(#SVGID_15_)" d="M55.875,45.477c0,0.47-0.381,0.852-0.852,0.852c-0.474,0-0.855-0.381-0.855-0.852
				c0-0.474,0.382-0.855,0.855-0.855C55.494,44.622,55.875,45.003,55.875,45.477z"/>
			<radialGradient id="SVGID_16_" cx="60.9819" cy="47.2266" r="33.1831" gradientUnits="userSpaceOnUse">
				<stop  offset="0" style="stop-color:#FFFFFF"/>
				<stop  offset="1" style="stop-color:#FFFFFF;stop-opacity:0"/>
			</radialGradient>
			<circle fill="url(#SVGID_16_)" cx="55.723" cy="48.629" r="0.854"/>
			<radialGradient id="SVGID_17_" cx="60.9878" cy="47.2295" r="33.196" gradientUnits="userSpaceOnUse">
				<stop  offset="0" style="stop-color:#FFFFFF"/>
				<stop  offset="1" style="stop-color:#FFFFFF;stop-opacity:0"/>
			</radialGradient>
			<circle fill="url(#SVGID_17_)" cx="50.114" cy="44.95" r="0.855"/>
			<radialGradient id="SVGID_18_" cx="60.9839" cy="47.2295" r="33.1881" gradientUnits="userSpaceOnUse">
				<stop  offset="0" style="stop-color:#FFFFFF"/>
				<stop  offset="1" style="stop-color:#FFFFFF;stop-opacity:0"/>
			</radialGradient>
			<circle fill="url(#SVGID_18_)" cx="47.658" cy="40.742" r="0.855"/>
			<radialGradient id="SVGID_19_" cx="60.9829" cy="47.2295" r="33.1861" gradientUnits="userSpaceOnUse">
				<stop  offset="0" style="stop-color:#FFFFFF"/>
				<stop  offset="1" style="stop-color:#FFFFFF;stop-opacity:0"/>
			</radialGradient>
			<circle fill="url(#SVGID_19_)" cx="59.251" cy="44.95" r="0.855"/>
			<radialGradient id="SVGID_20_" cx="60.9829" cy="47.2275" r="33.1824" gradientUnits="userSpaceOnUse">
				<stop  offset="0" style="stop-color:#FFFFFF"/>
				<stop  offset="1" style="stop-color:#FFFFFF;stop-opacity:0"/>
			</radialGradient>
			<circle fill="url(#SVGID_20_)" cx="62.911" cy="49.507" r="0.854"/>
			<radialGradient id="SVGID_21_" cx="60.9819" cy="47.2261" r="33.1815" gradientUnits="userSpaceOnUse">
				<stop  offset="0" style="stop-color:#FFFFFF"/>
				<stop  offset="1" style="stop-color:#FFFFFF;stop-opacity:0"/>
			</radialGradient>
			<circle fill="url(#SVGID_21_)" cx="67.467" cy="50.208" r="0.854"/>
			<radialGradient id="SVGID_22_" cx="60.9761" cy="47.2231" r="33.1955" gradientUnits="userSpaceOnUse">
				<stop  offset="0" style="stop-color:#FFFFFF"/>
				<stop  offset="1" style="stop-color:#FFFFFF;stop-opacity:0"/>
			</radialGradient>
			<circle fill="url(#SVGID_22_)" cx="69.942" cy="54.238" r="0.855"/>
			<radialGradient id="SVGID_23_" cx="60.98" cy="47.2271" r="33.1799" gradientUnits="userSpaceOnUse">
				<stop  offset="0" style="stop-color:#FFFFFF"/>
				<stop  offset="1" style="stop-color:#FFFFFF;stop-opacity:0"/>
			</radialGradient>
			<circle fill="url(#SVGID_23_)" cx="73.776" cy="50.033" r="0.854"/>
			<radialGradient id="SVGID_24_" cx="61.0024" cy="47.2271" r="33.1419" gradientUnits="userSpaceOnUse">
				<stop  offset="0" style="stop-color:#FFFFFF"/>
				<stop  offset="1" style="stop-color:#FFFFFF;stop-opacity:0"/>
			</radialGradient>
			<circle fill="url(#SVGID_24_)" cx="80.458" cy="50.033" r="0.854"/>
			<radialGradient id="SVGID_25_" cx="60.98" cy="47.228" r="33.1878" gradientUnits="userSpaceOnUse">
				<stop  offset="0" style="stop-color:#FFFFFF"/>
				<stop  offset="1" style="stop-color:#FFFFFF;stop-opacity:0"/>
			</radialGradient>
			<path fill="url(#SVGID_25_)" d="M65.238,45.585c0.424,0.21,0.596,0.723,0.389,1.147c-0.211,0.421-0.724,0.595-1.148,0.385
				c-0.42-0.21-0.595-0.724-0.385-1.145C64.304,45.549,64.818,45.378,65.238,45.585z"/>
			<radialGradient id="SVGID_26_" cx="60.9849" cy="47.228" r="33.1633" gradientUnits="userSpaceOnUse">
				<stop  offset="0" style="stop-color:#FFFFFF"/>
				<stop  offset="1" style="stop-color:#FFFFFF;stop-opacity:0"/>
			</radialGradient>
			<path fill="url(#SVGID_26_)" d="M70.236,45.733c0.424,0.21,0.595,0.72,0.385,1.144c-0.207,0.424-0.721,0.595-1.145,0.388
				c-0.421-0.21-0.596-0.724-0.385-1.147C69.298,45.697,69.811,45.522,70.236,45.733z"/>
			<radialGradient id="SVGID_27_" cx="60.9858" cy="47.2295" r="33.1647" gradientUnits="userSpaceOnUse">
				<stop  offset="0" style="stop-color:#FFFFFF"/>
				<stop  offset="1" style="stop-color:#FFFFFF;stop-opacity:0"/>
			</radialGradient>
			<path fill="url(#SVGID_27_)" d="M74.091,42.402c0.422,0.21,0.596,0.723,0.385,1.144c-0.21,0.424-0.72,0.595-1.144,0.388
				c-0.425-0.21-0.595-0.724-0.388-1.147C73.155,42.366,73.667,42.192,74.091,42.402z"/>
		</g>
		<path opacity="0.4" fill="#F05A28" d="M88.087,71.745c-12.336,13.904-37.23,12.336-45.305,10.541
			c-8.075-1.795-20.411-8.969-28.485-22.426c-5.342-8.907-5.869-19.381-4.514-27.528c-0.256,0.463-0.493,0.897-0.697,1.286
			c-3.814,7.177-6.73,24.224,1.345,37.681c8.075,13.456,20.41,20.635,28.482,22.426c8.075,1.796,32.969,3.363,45.305-10.541
			c6.227-7.022,9.709-14.844,11.258-22.455C93.63,64.52,91.205,68.23,88.087,71.745z"/>
		<linearGradient id="SVGID_28_" gradientUnits="userSpaceOnUse" x1="65.2788" y1="35.3262" x2="74.8603" y2="20.1361">
			<stop  offset="0" style="stop-color:#ED5A24"/>
			<stop  offset="1" style="stop-color:#ED9524"/>
		</linearGradient>
		<path fill="url(#SVGID_28_)" d="M57.768,35.485c0,0,4.675-4.909,6.776-4.675c2.104,0.233,3.037,0,2.805,4.675
			c-0.234,4.672,0.16-2.719,1.637-3.038c1.881-0.411,9.113,7.709,9.113,7.709s-6.232-6.75-5.608-8.88
			c0.322-1.095,4.208,1.171,4.208,1.171s-6.178-3.524-3.508-4.442c2.469-0.848,7.013,0,7.013,0s-9.817-1.637-7.246-3.038
			c2.571-1.404,6.075-3.738,6.075-3.738s-5.139,3.271-6.075,2.334c-0.934-0.934,1.87-4.205,1.87-4.205s-3.504,4.442-5.375,4.205
			c-1.871-0.233-1.854-6.747-2.805-9.114c0.072,4.646,1.638,10.051-1.403,10.284c-1.634-2.104-1.868-3.975-4.438-7.013
			c0,0,3.037,4.909,2.805,7.947c-2.236-1.401-3.702-1.588-6.779-2.104c3.975,1.404,7.012,3.038,7.713,4.675
			C65.245,29.876,60.573,29.876,57.768,35.485z"/>
		<g>
			<g opacity="0.3">
				<path d="M65.185,29.636c0,0,2.502,1.252,3.505,1.377c0.999,0.125,2.877-1.752,3.252-2.627c0.374-0.875,0.249-2.127-1.124-3.251
					c-1.379-1.128-2.881-2.002-5.254-0.375C65.185,25.76,64.81,29.261,65.185,29.636z"/>
			</g>
			<linearGradient id="SVGID_29_" gradientUnits="userSpaceOnUse" x1="66.3267" y1="29.3335" x2="70.1831" y2="25.6524">
				<stop  offset="0" style="stop-color:#006837"/>
				<stop  offset="1" style="stop-color:#009640"/>
			</linearGradient>
			<path fill="url(#SVGID_29_)" d="M65.245,29.876c0,0,2.337,1.167,3.274,1.286c0.934,0.118,2.686-1.637,3.038-2.453
				c0.349-0.819,0.233-1.989-1.052-3.038c-1.286-1.052-2.689-1.871-4.909-0.352C65.245,26.253,64.896,29.524,65.245,29.876z"/>
			<path fill="#76B82A" d="M67.582,25.319c-0.699,0.818-1.867,2.686-0.699,3.39c1.166,0.7,1.87,1.286,3.738-1.871
				C68.986,25.904,67.582,25.319,67.582,25.319z"/>
			<linearGradient id="SVGID_30_" gradientUnits="userSpaceOnUse" x1="67.0249" y1="27.7822" x2="71.9334" y2="23.3996">
				<stop  offset="0.11" style="stop-color:#DEDC00"/>
				<stop  offset="0.3752" style="stop-color:#DADA00"/>
				<stop  offset="0.461" style="stop-color:#CDD500"/>
				<stop  offset="0.578" style="stop-color:#BCCF00"/>
				<stop  offset="0.89" style="stop-color:#009640"/>
			</linearGradient>
			<path fill="url(#SVGID_30_)" d="M68.286,26.838c1.985,1.108,3.913-0.47,1.46-1.871C67.201,23.514,67.023,26.131,68.286,26.838z"
				/>
		</g>
	</g>
</g>
</svg>
