<?xml version="1.0" encoding="UTF-8" standalone="no"?>
<!-- Generator: Adobe Illustrator 16.2.1, SVG Export Plug-In . SVG Version: 6.00 Build 0) -->
<svg id="Layer_1" xmlns:rdf="http://www.w3.org/1999/02/22-rdf-syntax-ns#" xmlns="http://www.w3.org/2000/svg" xml:space="preserve" x="0px" y="0px" width="687.991px" height="738.642px" viewBox="0 0 687.991 738.642" version="1.1" enable-background="new 0 0 687.991 738.642" xmlns:cc="http://creativecommons.org/ns#" xmlns:xlink="http://www.w3.org/1999/xlink" xmlns:dc="http://purl.org/dc/elements/1.1/"><defs id="defs11677"><linearGradient id="linearGradient13196" y2="725.49" gradientUnits="userSpaceOnUse" y1="325.49" x2="658.07" x1="96.072"><stop id="stop3679" stop-color="#919191" offset="0"/><stop id="stop3681" stop-opacity="0" stop-color="#919191" offset="1"/></linearGradient><linearGradient id="SVGID_3_" y2="431.84" gradientUnits="userSpaceOnUse" y1="379.84" x2="154.04" x1="129.54"><stop id="stop4016" stop-color="#728c9a" offset="0"/><stop id="stop4018" stop-color="#0d2735" offset="1"/></linearGradient><linearGradient id="linearGradient13513" x1="179.04" xlink:href="#SVGID_3_" gradientUnits="userSpaceOnUse" y1="573.64" gradientTransform="translate(5.22e-7 -.0000043992)" x2="203.54" y2="625.64"/><linearGradient id="linearGradient13516" x1="129.54" xlink:href="#SVGID_3_" gradientUnits="userSpaceOnUse" y1="573.64" gradientTransform="translate(5.22e-7 -.0000043992)" x2="154.04" y2="625.64"/><linearGradient id="linearGradient13519" x1="179.04" xlink:href="#SVGID_3_" gradientUnits="userSpaceOnUse" y1="508.74" gradientTransform="translate(4.78e-7 -.0000043992)" x2="203.54" y2="560.74"/><linearGradient id="linearGradient13522" x1="129.54" xlink:href="#SVGID_3_" gradientUnits="userSpaceOnUse" y1="508.74" gradientTransform="translate(5.22e-7 -.0000043992)" x2="154.04" y2="560.74"/><linearGradient id="linearGradient13525" x1="179.04" xlink:href="#SVGID_3_" gradientUnits="userSpaceOnUse" y1="443.84" gradientTransform="translate(5.22e-7 -.0000043992)" x2="203.54" y2="495.84"/><linearGradient id="linearGradient13528" x1="129.54" xlink:href="#SVGID_3_" gradientUnits="userSpaceOnUse" y1="443.84" gradientTransform="translate(5.22e-7 -.0000043992)" x2="154.04" y2="495.84"/><linearGradient id="linearGradient13531" x1="179.04" xlink:href="#SVGID_3_" gradientUnits="userSpaceOnUse" y1="379.84" gradientTransform="translate(5.22e-7 -.0000043992)" x2="203.54" y2="431.84"/><linearGradient id="linearGradient13534" x1="129.54" xlink:href="#SVGID_3_" gradientUnits="userSpaceOnUse" y1="379.84" gradientTransform="translate(5.22e-7 -.0000043992)" x2="154.04" y2="431.84"/></defs><metadata id="metadata4085"><rdf:RDF><cc:Work rdf:about=""><dc:format>image/svg+xml</dc:format><dc:type rdf:resource="http://purl.org/dc/dcmitype/StillImage"/></cc:Work></rdf:RDF></metadata><path id="path3584" d="m527.79 166.8c0 7.977-6.466 14.441-14.441 14.441h-294.86c-7.976 0-14.441-6.465-14.441-14.441 0-7.975 6.465-14.44 14.441-14.44h294.86c7.97 0 14.44 6.47 14.44 14.44z" stroke="#705a4a" stroke-miterlimit="10" stroke-width="3" fill="#c6b198"/><rect id="rect3588" height="128" width="61" stroke="#820000" stroke-miterlimit="10" y="570.24" x="5.79" stroke-width="3" fill="#ba0000"/><polygon id="polygon3590" points="66.791 698.24 57.29 698.24 45.29 570.24 66.791 570.24" fill="#820000"/><path id="path3592" opacity=".2" fill="#183049" d="m67.791 584.64h-23.703c-2.339-1.795-5.254-2.875-8.423-2.875-7.651 0-13.875 6.225-13.875 13.875s6.224 13.875 13.875 13.875c3.169 0 6.084-1.08 8.423-2.875h23.702v-22z"/><path id="path3594" opacity=".2" fill="#183049" d="m67.791 617.14h-23.703c-2.339-1.795-5.254-2.875-8.423-2.875-7.651 0-13.875 6.225-13.875 13.875s6.224 13.875 13.875 13.875c3.169 0 6.084-1.08 8.423-2.875h23.702v-22z"/><circle id="circle3600" r="12.875" d="m 48.540001,592.64001 c 0,7.11067 -5.764334,12.875 -12.875,12.875 -7.110666,0 -12.875,-5.76433 -12.875,-12.875 0,-7.11066 5.764334,-12.875 12.875,-12.875 7.110666,0 12.875,5.76434 12.875,12.875 z" stroke="#383838" cy="592.64" cx="35.665" stroke-miterlimit="10" stroke-width="2" fill="#878787"/><circle id="circle3620" r="12.875" d="m 48.540001,624.92999 c 0,7.11067 -5.764334,12.875 -12.875,12.875 -7.110666,0 -12.875,-5.76433 -12.875,-12.875 0,-7.11066 5.764334,-12.875 12.875,-12.875 7.110666,0 12.875,5.76434 12.875,12.875 z" stroke="#383838" cy="624.93" cx="35.665" stroke-miterlimit="10" stroke-width="2" fill="#878787"/><path id="path3622" d="m66.791 634.93h-30.5c-5.523 0-10-4.478-10-10s4.477-10 10-10h30.5v20zm0-32.29h-30.5c-5.523 0-10-4.478-10-10s4.477-10 10-10h30.5v20z" fill="#5b5b5b"/><path id="path3624" d="m60.791 614.93h-24.5c-5.523 0-10 4.478-10 10h34.5v-10zm0-32.29h-24.5c-5.523 0-10 4.478-10 10h34.5v-10z" fill="#898989"/><path id="line3632" stroke="#383838" fill="none" stroke-miterlimit="10" d="m56.54 634.93v-20m-7 20c-1.657 0-3-4.478-3-10s1.343-10 3-10m-5.25 20c-3.314 0-6-4.478-6-10s2.686-10 6-10m-4 20c-5.523 0-10-4.478-10-10s4.477-10 10-10m16.25-12.29v-20m-7 20c-1.657 0-3-4.478-3-10s1.343-10 3-10m-5.25 20c-3.314 0-6-4.478-6-10s2.686-10 6-10m-4 20c-5.523 0-10-4.478-10-10s4.477-10 10-10"/><path id="path3634" d="m66.791 634.93h-30.5c-5.523 0-10-4.478-10-10s4.477-10 10-10h30.5v20zm0-32.29h-30.5c-5.523 0-10-4.478-10-10s4.477-10 10-10h30.5v20z" stroke="#383838" stroke-miterlimit="10" stroke-width="2" fill="none"/><path id="line3650" d="m17.04 689.74h24.25m-24.25-4.18h24.25m-24.25-4.18h24.25m-24.25-16.74h24.25m-24.25 4.18h24.25m-24.25 4.19h24.25m-24.25 4.18h24.25" stroke="#820000" stroke-linecap="round" stroke-miterlimit="10" stroke-width="2" fill="none"/><rect id="rect3654" height="147.98" width="311.19" y="152.27" x="211.02" fill="#c6b198"/><rect id="rect3656" height="134.58" width="281.32" y="165.66" x="225.91" fill="#baa38a"/><path id="polygon3658" d="m507.23 165.66h-281.32v134.58h5v-129.58h276.32z" fill="#988575"/><path id="polygon3660" d="m226.36 291.08h-15.34v9.16h311.19v-9.16h-14.25l-1.26 2h-279.7z" fill="#988575"/><path id="rect3662" d="m225.91 165.66h281.32v134.58h-281.32z" stroke="#705a4a" stroke-miterlimit="10" stroke-width="3" fill="none"/><rect id="rect3664" height="147.98" width="311.19" stroke="#705a4a" stroke-miterlimit="10" y="152.27" x="211.02" stroke-width="3" fill="none"/><rect id="rect3668" height="18.294" width="530" stroke-miterlimit="10" y="300.24" x="101.61" fill="#707070"/><rect id="rect3670" height="9.147" width="530" y="309.39" x="101.61" fill="#545454"/><rect id="rect3672" height="18.294" width="530" stroke="#383838" stroke-miterlimit="10" y="300.24" x="101.61" stroke-width="3" fill="none"/><rect id="rect3676" height="400" width="600" stroke="#383838" stroke-miterlimit="10" y="317.73" x="66.613" stroke-width="3" fill="#707070"/><path id="path3683" d="m647.61 702.74h-572v-376.5h572v376.5zm-564-8h556v-360.5h-556v360.5z" fill="url(#linearGradient13196)"/><path id="path3689" fill="#efefef" fill-rule="evenodd" clip-rule="evenodd" d="m471.08 492.66c4.268 15.234 4.939 30.533 1.865 45.971-10.387 52.139-55.922 87.961-109.42 86.07-51.273-1.809-94.275-41.445-101.07-93.168-7.875-59.926 36.756-115.1 97.039-119.66 25.774-1.947 50.366 2.348 72.472 16.541 15.342 9.846 26.555 23.057 30.713 41.285 6.822 29.918-17.334 71.301-62.676 61.67-18.613-3.951-31.87-21.027-32.024-39.951-0.154-18.801 12.409-35.705 29.985-40.242 5.629-1.453 11.281-1.818 17.305 0.287-6.168 5.551-8.793 12.168-7.738 20.01 1.523 11.357 11.828 19.828 23.25 19.299 11.109-0.512 21.092-10.922 21.678-22.791 0.645-13.049-5.402-22.969-15.715-30.041-36.334-24.934-85.44-7.061-96.952 34.822-7.109 25.854-2.068 49.021 18.265 67.225 20.009 17.906 43.446 23.555 68.823 13.443 25.482-10.15 40.219-29.502 43.707-57 0.16-1.27 0.33-2.53 0.49-3.78z"/><rect id="rect3905" height="338.52" width="530" stroke="#383838" stroke-miterlimit="10" y="348.84" x="103.2" stroke-width="3" fill="none"/><rect id="rect3909" opacity=".3" height="118.48" width="119.36" y="561.27" x="498.4" fill="#183049"/><rect id="rect3917" opacity=".2" height="9.047" width="5.344" y="650.1" x="195.07" fill="#183049"/><path id="path3919" opacity=".2" d="m197.49 658.14c1.5 40.5 87.549-34.975 119-3.523 53.884 53.884 110.1 2.023 191.5 2.023" stroke="#183049" stroke-miterlimit="10" stroke-width="2" fill="none"/><rect id="rect3923" height="9.047" width="5.344" y="648.2" x="194.37" fill="#232323"/><path id="path3925" d="m196.79 656.24c1.5 40.5 87.549-34.975 119-3.523 53.883 53.884 110.1 2.023 191.5 2.023" stroke="#232323" stroke-miterlimit="10" stroke-width="2" fill="none"/><rect id="rect3929" height="260" width="101" y="388.2" x="123.25" fill="#0d2735"/><line id="line3959" y2="518.2" y1="518.2" stroke="#0f303f" stroke-miterlimit="10" x2="121.75" x1="225.75" fill="none"/><line id="line3993" x1="173.75" x2="173.75" stroke="#0f303f" stroke-miterlimit="10" y1="388.2" y2="648.2" fill="none"/><rect id="rect4020" height="55" width="40" y="393.2" x="128.79" fill="url(#linearGradient13534)"/><rect id="rect4027" height="55" width="40" y="393.2" x="178.29" fill="url(#linearGradient13531)"/><rect id="rect4034" height="55" width="40" y="457.2" x="128.79" fill="url(#linearGradient13528)"/><rect id="rect4041" height="55" width="40" y="457.2" x="178.29" fill="url(#linearGradient13525)"/><rect id="rect4048" height="55" width="40" y="522.09" x="128.79" fill="url(#linearGradient13522)"/><rect id="rect4055" height="55" width="40" y="522.09" x="178.29" fill="url(#linearGradient13519)"/><rect id="rect4062" height="55" width="40" y="586.99" x="128.79" fill="url(#linearGradient13516)"/><rect id="rect4069" height="55" width="40" y="586.99" x="178.29" fill="url(#linearGradient13513)"/><rect id="rect4073" height="110" width="110" stroke="#847061" stroke-miterlimit="10" y="564.93" x="503.2" stroke-width="3" fill="#c6b198"/><rect id="rect4075" height="79.2" width="79.2" y="580.33" x="518.6" fill="#e5be98"/><polygon id="polygon4077" points="518.6 659.53 525 659.53 525 585.73 597.8 585.73 597.8 580.33 518.6 580.33" transform="translate(0 -.0000043992)" fill="#cca07f"/><rect id="rect4079" height="79.2" width="79.2" stroke="#826e5f" stroke-miterlimit="10" y="580.33" x="518.6" stroke-width="3" fill="none"/><path id="line13651" stroke="#3c3c3c" fill="none" stroke-miterlimit="10" d="m232.2 348.84v339m390-339v339m-10-339v339m-10-339v339m-10-339v339m-10-339v339m-10-339v339m-10-339v339m-10-339v339m-10-339v339m-10-339v339m-10-339v339m-10-339v339m-10-339v339m-10-339v339m-10-339v339m-10-339v339m-10-339v339m-10-339v339m-10-339v339m-10-339v339m-10-339v339m-10-339v339m-10-339v339m-10-339v339m-10-339v339m-10-339v339m-10-339v339m-10-339v339m-10-339v339m-10-339v339m-10-339v339m-10-339v339m-10-339v339m-10-339v339m-10-339v339m-10-339v339m-10-339v339m-10-339v339m-10-339v339m-20-339v339m-10-339v339m-10-339v339m-10-339v339m-10-339v339m-10-339v339m-10-339v339m-10-339v339m-10-339v339m-10-339v339m-10-339v339m-10-339v339"/><path id="line4001" stroke="#0f303f" fill="none" stroke-miterlimit="10" d="m214.15 388.2v260m-10.1-260v260m-10.1-260v260m-10.1-260v260m-20.2-260v260m-10.1-260v260m-10.1-260v260m-10.1-260v260m92.4-10h-104m104-10h-104m104-10h-104m104-10h-104m104-10h-104m104-10h-104m104-10h-104m104-10h-104m104-10h-104m104-10h-104m104-10h-104m104-10h-104m104-20h-104m104-10h-104m104-10h-104m104-10h-104m104-10h-104m104-10h-104m104-10h-104m104-10h-104m104-10h-104m104-10h-104m104-10h-104m104-10h-104"/><path id="path13768" stroke="#9eaeb8" stroke-width="4" fill="none" d="m120.62 385.74h106.31v265.2h-106.26z"/><path id="line4013" d="m224.16 583.2h-100.82m100.91-130h-101.08m101.17 65h-101.26m50.674-130v260m-50.5-260h101v260h-101z" stroke="#ccae00" stroke-miterlimit="10" stroke-width="2" fill="none"/></svg>
