<?xml version="1.0" encoding="UTF-8" standalone="no"?>
<!-- Generator: Adobe Illustrator 16.2.1, SVG Export Plug-In . SVG Version: 6.00 Build 0) -->
<svg id="svg5728" xmlns:rdf="http://www.w3.org/1999/02/22-rdf-syntax-ns#" xmlns="http://www.w3.org/2000/svg" xml:space="preserve" x="0px" y="0px" width="228.682px" height="255.936px" viewBox="0 0 228.682 255.936" version="1.1" enable-background="new 0 0 228.682 255.936" xmlns:cc="http://creativecommons.org/ns#" xmlns:dc="http://purl.org/dc/elements/1.1/"><metadata id="metadata8350"><rdf:RDF><cc:Work rdf:about=""><dc:format>image/svg+xml</dc:format><dc:type rdf:resource="http://purl.org/dc/dcmitype/StillImage"/></cc:Work></rdf:RDF></metadata><polyline id="polyline5736" stroke="#72612e" points="0 114.93 69.759 114.93 69.759 142.42 0 142.42" stroke-miterlimit="10" stroke-width="3" fill="#ddcf8c"/><path id="path5751" d="m220.74 218.3c0 2.75-2.215 5.396-4.922 5.88l-59.156 10.578c-2.707 0.484-7.138 0.489-9.846 0.012l-60.145-10.6c-2.708-0.477-4.924-3.118-4.924-5.868v-180.66c0-2.75 2.216-5.391 4.924-5.868l60.145-10.603c2.708-0.478 7.139-0.472 9.846 0.012l59.158 10.578c2.707 0.484 4.922 3.13 4.922 5.88v180.66z" stroke="#a83d20" stroke-width="3" fill="#f27e55"/><path id="path5753" d="m220.74 218.3c0 2.75-2.215 5.396-4.922 5.88l-59.156 10.578c-2.707 0.484-7.138 0.489-9.846 0.012l-60.145-10.6c-2.708-0.477-4.924-3.118-4.924-5.868v-180.66c0-2.75 2.216-5.391 4.924-5.868l60.149-10.602c2.708-0.478 7.139-0.472 9.846 0.012l59.158 10.578c2.707 0.484 4.922 3.13 4.922 5.88v180.66z" stroke="#a83d20" stroke-miterlimit="10" stroke-width="3" fill="none"/><path id="path5783" opacity=".8" d="m89.598 136.93c-3.935 0-7.122-3.986-7.122-8.904s3.188-8.904 7.122-8.904" stroke="#913922" stroke-miterlimit="10" stroke-width="2" fill="none"/><path id="path5837" opacity=".8" d="m90.697 136.93c-3.935 0-7.122-3.986-7.122-8.904s3.188-8.904 7.122-8.904" stroke="#ff9173" stroke-miterlimit="10" fill="none"/><path id="path5893" opacity=".8" d="m96.798 144.74c-3.935 0-7.122-3.986-7.122-8.904s3.188-8.904 7.122-8.904" stroke="#913922" stroke-miterlimit="10" stroke-width="2" fill="none"/><path id="path5947" opacity=".8" d="m97.897 144.74c-3.935 0-7.122-3.986-7.122-8.904s3.188-8.904 7.122-8.904" stroke="#ff9173" stroke-miterlimit="10" fill="none"/><path id="path5999" opacity=".8" d="m103.6 136.93c-3.935 0-7.122-3.986-7.122-8.904s3.188-8.904 7.122-8.904" stroke="#913922" stroke-miterlimit="10" stroke-width="2" fill="none"/><path id="path6053" opacity=".8" d="m104.7 136.93c-3.935 0-7.122-3.986-7.122-8.904s3.188-8.904 7.122-8.904" stroke="#ff9173" stroke-miterlimit="10" fill="none"/><g id="g14686" stroke="#a83d20"><path id="path7713" d="m157.24 233.62c0 2.75-2.25 5-5 5h-0.998c-2.75 0-5-2.25-5-5v-211.3c0-2.75 2.25-5 5-5h0.998c2.75 0 5 2.25 5 5v211.3z" stroke-width="3" fill="#ff8961"/><path id="line7719" d="m146.25 40.562h11-11zm0 24.719h11-11zm0 24.719h11-11zm0 24.719h11-11zm0 24.688h11-11zm0 24.719h11-11zm0 24.719h11-11zm0 24.719h11-11z" stroke-width="2" stroke-miterlimit="10" fill="none"/></g><line id="line7773" y2="83.793" x2="199.88" stroke="#a08645" stroke-miterlimit="10" y1="52.941" x1="169.03" fill="none"/><line id="line7775" y2="52.941" x2="199.88" stroke="#a08645" stroke-miterlimit="10" y1="83.793" x1="169.03" fill="none"/><polygon id="polygon7781" points="118.24 122.22 118.24 133.87 81.421 174.74 81.421 81.193" transform="matrix(.95047 0 0 1 5.8568 0)" fill="#ba5532"/><polygon id="polygon7792" points="119.14 133.44 81.414 162.17 55.826 162.17 55.826 93.771 81.414 93.771 119.14 122.5" stroke-miterlimit="10" fill="#f27e55"/><path id="path8290" d="m73.278 206.41c0 6.619-5.365 11.984-11.983 11.984h-4.973c-6.618 0-11.983-5.365-11.983-11.984v-18.36c0-6.618 5.365-11.984 11.983-11.984h4.973c6.618 0 11.983 5.366 11.983 11.984v18.36z" stroke="#3a2717" stroke-miterlimit="10" stroke-width="2" fill="#593e2b"/><circle id="circle14029" d="m 52.558999,212.55 c 0,1.35089 -1.095111,2.446 -2.446,2.446 -1.350889,0 -2.446,-1.09511 -2.446,-2.446 0,-1.35089 1.095111,-2.446 2.446,-2.446 1.350889,0 2.446,1.09511 2.446,2.446 z" cx="50.113" cy="212.55" transform="matrix(2.7251 0 0 2.7251 -67.68 -380.58)" stroke="#a5a5a5" r="2.446" stroke-miterlimit="10" stroke-width=".36311" fill="#fffffd"/><circle id="circle14031" d="m 52.558999,212.55 c 0,1.35089 -1.095111,2.446 -2.446,2.446 -1.350889,0 -2.446,-1.09511 -2.446,-2.446 0,-1.35089 1.095111,-2.446 2.446,-2.446 1.350889,0 2.446,1.09511 2.446,2.446 z" cx="50.113" cy="212.55" transform="matrix(2.7251 0 0 2.7251 -82.803 -395.47)" stroke="#a5a5a5" r="2.446" stroke-miterlimit="10" stroke-width=".36311" fill="#fffffd"/><circle id="circle8308" d="m 56.134,183.72 c 0,1.35089 -1.095112,2.446 -2.446,2.446 -1.350889,0 -2.446,-1.09511 -2.446,-2.446 0,-1.35089 1.095111,-2.446 2.446,-2.446 1.350888,0 2.446,1.09511 2.446,2.446 z" stroke="#f6921e" cy="183.72" cx="53.688" stroke-miterlimit="10" r="2.446" fill="#ff0"/><circle id="circle8326" d="m 71.368997,198.48 c 0,1.35088 -1.095112,2.446 -2.446,2.446 -1.350889,0 -2.446001,-1.09512 -2.446001,-2.446 0,-1.35089 1.095112,-2.446 2.446001,-2.446 1.350888,0 2.446,1.09511 2.446,2.446 z" stroke="#f6921e" cy="198.48" cx="68.923" stroke-miterlimit="10" r="2.446" fill="#ff0"/><circle id="circle8344" d="m 52.558999,212.55 c 0,1.35089 -1.095111,2.446 -2.446,2.446 -1.350889,0 -2.446,-1.09511 -2.446,-2.446 0,-1.35089 1.095111,-2.446 2.446,-2.446 1.350889,0 2.446,1.09511 2.446,2.446 z" cx="50.113" cy="212.55" transform="matrix(2.7251 0 0 2.7251 -86.45 -366.67)" stroke="#a5a5a5" r="2.446" stroke-miterlimit="10" stroke-width=".36311" fill="#fffffd"/><circle id="circle13259" d="m 52.558999,212.55 c 0,1.35089 -1.095111,2.446 -2.446,2.446 -1.350889,0 -2.446,-1.09511 -2.446,-2.446 0,-1.35089 1.095111,-2.446 2.446,-2.446 1.350889,0 2.446,1.09511 2.446,2.446 z" cy="212.55" stroke="#f6921e" cx="50.113" stroke-miterlimit="10" r="2.446" fill="#ff0"/><polygon id="polygon14678" stroke="#a83d20" points="119.14 133.44 81.414 162.17 55.826 162.17 55.826 93.771 81.414 93.771 119.14 122.5" stroke-miterlimit="10" stroke-width="3" fill="none"/><g id="g14682" stroke="#a83d20"><path id="path8272" d="m58.688 133.47c-2.75 0-5-2.25-5-5v-0.998c0-2.75 2.25-5 5-5h63.232c2.75 0 5 2.25 5 5v0.998c0 2.75-2.25 5-5 5h-63.234z" stroke-width="3" fill="#ff8961"/><path id="line8278" d="m78.969 122.47v11-11zm23.156 0v11-11z" stroke-width="2" stroke-miterlimit="10" fill="none"/></g><path id="path7753" d="m216.09 88.444-2.854-1.199 0.731-1.741c0.222-0.524-0.026-1.131-0.55-1.352-0.527-0.22-1.131 0.025-1.354 0.55l-0.732 1.741-3.805-1.602 1.11-2.639 5.819-0.24v-27.192l-43.622-1.842 0.22797 30.799 31.41-1.27c-0.218 0.361-0.42 0.735-0.587 1.133-2.212 5.255 1.229 11.718 1.229 11.718l3.604-8.564 3.805 1.602-0.731 1.74c-0.222 0.525 0.026 1.132 0.552 1.352 0.525 0.221 1.131-0.024 1.352-0.55l0.732-1.74 2.854 1.201c0.525 0.221 1.131-0.024 1.352-0.552 0.22-0.526-0.03-1.13-0.55-1.353z" fill="#ba5532"/><path id="path14791" d="m221.41 221.71c-0.12942-8.1239-4.3282-8-4.3282-8s4.3417 0.36213 4.3282-8c0.0985-7.8959-4.3282-8-4.3282-8s4.4937 0.36213 4.3282-8c0.0985-8.1239-4.3282-8-4.3282-8s4.3417 0.36213 4.3282-8c-0.0534-7.9719-4.3282-8-4.3282-8s4.0377-0.2458 4.3282-8c-0.20541-6.984-4.3282-8-4.3282-8s4.1897-1.0057 4.3282-8c-0.20541-6.984-4.3282-8-4.3282-8s4.1897-1.0057 4.3282-8c-0.20541-6.984-4.3282-8-4.3282-8s4.1897-1.0057 4.3282-8c-0.20541-6.984-4.3282-8-4.3282-8s4.1897-1.0057 4.3282-8c-0.20541-6.984-4.3282-8-4.3282-8s4.1897-1.0057 4.3282-8c-0.20541-6.984-4.3282-8-4.3282-8s4.1897-1.0057 4.3282-8c-0.20541-6.984-4.3282-8-4.3282-8s4.3417 0.74208 4.3282-8c0.25053-8.1999-4.3282-8-4.3282-8s2.8979-0.32179 3.0364-2.8326m-4.6322 189.29c0.0226-1.5127-4.4042-2.4527-4.4042-2.4527s5.8615-1.0057 6-8c-0.20541-6.984-6-8-6-8s5.8615-1.0057 6-8c-0.20541-6.984-6-8-6-8s5.8615-1.0057 6-8c-0.20541-6.984-6-8-6-8s5.8615-1.0057 6-8c-0.20541-6.984-6-8-6-8s5.8615-1.0057 6-8c-0.20541-6.984-6-8-6-8s5.8615-1.0057 6-8c-0.20541-6.984-6-8-6-8s5.8615-1.0057 6-8c-0.20541-6.984-6-8-6-8s5.8615-1.0057 6-8c-0.20541-6.984-6-8-6-8s5.8615-1.0057 6-8c-0.20541-6.984-6-8-6-8s5.8615-1.0057 6-8c-0.20541-6.984-6-8-6-8s5.8615-1.0057 6-8c-0.20541-6.984-6-8-6-8s5.8615-1.0057 6-8c-0.20541-6.984-6-8-6-8m-2.2005 195.82s1.91 0.36213 2.2005-3.8205c-0.20541-6.984-6-8-6-8s5.8615-1.0057 6-8c-0.20541-6.984-6-8-6-8s5.8615-1.0057 6-8c-0.20541-6.984-6-8-6-8s5.8615-1.0057 6-8c-0.20541-6.984-6-8-6-8s5.8615-1.0057 6-8c-0.20541-6.984-6-8-6-8s5.8615-1.0057 6-8c-0.20541-6.984-6-8-6-8s5.8615-1.0057 6-8c-0.20541-6.984-6-8-6-8s5.8615-1.0057 6-8c-0.20541-6.984-6-8-6-8s5.8615-1.0057 6-8c-0.20541-6.984-6-8-6-8s5.8615-1.0057 6-8c-0.20541-6.984-6-8-6-8s5.8615-1.0057 6-8c-0.20541-6.984-6-8-6-8s5.8615-1.0057 6-8c-0.20541-6.984-6-8-6-8s5.8615-1.0057 6-8m-6.38 196.28c-0.20541-4.0204-5.62-4.2765-5.62-4.2765s5.8615-1.0057 6-8c-0.20541-6.984-6-8-6-8s5.8615-1.0057 6-8c-0.20541-6.984-6-8-6-8s5.8615-1.0057 6-8c-0.20541-6.984-6-8-6-8s5.8615-1.0057 6-8c-0.20541-6.984-6-8-6-8s5.8615-1.0057 6-8c-0.20541-6.984-6-8-6-8s5.8615-1.0057 6-8c-0.20541-6.984-6-8-6-8s5.8615-1.0057 6-8c-0.20541-6.984-6-8-6-8s5.8615-1.0057 6-8c-0.20541-6.984-6-8-6-8s5.8615-1.0057 6-8c-0.20541-6.984-6-8-6-8s5.8615-1.0057 6-8c-0.20541-6.984-6-8-6-8s5.8615-1.0057 6-8c-0.20541-6.984-6-8-6-8s5.8615-1.0057 6-8c-0.20541-6.984-6-8-6-8m-5.2401 198.25s5.1016 0.74208 5.2401-6.2522c-0.20541-6.984-6-8-6-8s5.8615-1.0057 6-8c-0.20541-6.984-6-8-6-8s5.8615-1.0057 6-8c-0.20541-6.984-6-8-6-8s5.8615-1.0057 6-8c-0.20541-6.984-6-8-6-8s5.8615-1.0057 6-8c-0.20541-6.984-6-8-6-8s5.8615-1.0057 6-8c-0.20541-6.984-6-8-6-8s5.8615-1.0057 6-8c-0.20541-6.984-6-8-6-8s5.8615-1.0057 6-8c-0.20541-6.984-6-8-6-8s5.8615-1.0057 6-8c-0.20541-6.984-6-8-6-8s5.8615-1.0057 6-8c-0.20541-6.984-6-8-6-8s5.8615-1.0057 6-8c-0.20541-6.984-6-8-6-8s5.8615-1.0057 6-8c-0.20541-6.984-6-8-6-8s5.8615-1.0057 6-8m-6.4559 198.63c-0.2814-5.9962-5.5441-6.6322-5.5441-6.6322s5.8615-1.0057 6-8c-0.20541-6.984-6-8-6-8s5.8615-1.0057 6-8c-0.20541-6.984-6-8-6-8s5.8615-1.0057 6-8c-0.20541-6.984-6-8-6-8s5.8615-1.0057 6-8c-0.20541-6.984-6-8-6-8s5.8615-1.0057 6-8c-0.20541-6.984-6-8-6-8s5.8615-1.0057 6-8c-0.20541-6.984-6-8-6-8s5.8615-1.0057 6-8c-0.20541-6.984-6-8-6-8s5.8615-1.0057 6-8c-0.20541-6.984-6-8-6-8s5.8615-1.0057 6-8c-0.20541-6.984-6-8-6-8s5.8615-1.0057 6-8c-0.20541-6.984-6-8-6-8s5.8615-1.0057 6-8c-0.20541-6.984-6-8-6-8s5.8615-1.0057 6-8c-0.20541-6.984-6-8-6-8s3.6578 0.43812 3.6443-2.3007m-9.6443 202.3s5.8615-1.0057 6-8c-0.20541-6.984-6-8-6-8s5.8615-1.0057 6-8c-0.20541-6.984-6-8-6-8s5.8615-1.0057 6-8c-0.20541-6.984-6-8-6-8s5.8615-1.0057 6-8c-0.20541-6.984-6-8-6-8s5.8615-1.0057 6-8c-0.20541-6.984-6-8-6-8s5.8615-1.0057 6-8c-0.20541-6.984-6-8-6-8s5.8615-1.0057 6-8c-0.20541-6.984-6-8-6-8s5.8615-1.0057 6-8c-0.20541-6.984-6-8-6-8s5.8615-1.0057 6-8c-0.20541-6.984-6-8-6-8s5.8615-1.0057 6-8c-0.20541-6.984-6-8-6-8s5.8615-1.0057 6-8c-0.20541-6.984-6-8-6-8s5.8615-1.0057 6-8c-0.20541-6.984-6-8-6-8s5.8615-1.0057 6-8c0.0226-3.1845-1.2886-3.3646-1.2886-3.3646m-4.7114 203.36c-0.20541-6.984-6-8-6-8s5.8615-1.0057 6-8c-0.20541-6.984-6-8-6-8s5.8615-1.0057 6-8c-0.20541-6.984-6-8-6-8s5.8615-1.0057 6-8c-0.20541-6.984-6-8-6-8s5.8615-1.0057 6-8c-0.20541-6.984-6-8-6-8s5.8615-1.0057 6-8c-0.20541-6.984-6-8-6-8s5.8615-1.0057 6-8c-0.20541-6.984-6-8-6-8s5.8615-1.0057 6-8c-0.20541-6.984-6-8-6-8s5.8615-1.0057 6-8c-0.20541-6.984-6-8-6-8s5.8615-1.0057 6-8c-0.20541-6.984-6-8-6-8s5.8615-1.0057 6-8c-0.20541-6.984-6-8-6-8s5.8615-1.0057 6-8c-0.20541-6.984-6-8-6-8s5.8615-1.0057 6-8c-0.20541-6.984-6-8-6-8s5.5575-0.01782 5.772-4.5044m-7.2918 207.19c-0.43338-1.9687-4.4802-2.6807-4.4802-2.6807s5.8615-1.0057 6-8c-0.20541-6.984-6-8-6-8s5.8615-1.0057 6-8c-0.20541-6.984-6-8-6-8s5.8615-1.0057 6-8c-0.20541-6.984-6-8-6-8s5.8615-1.0057 6-8c-0.20541-6.984-6-8-6-8s5.8615-1.0057 6-8c-0.20541-6.984-6-8-6-8s5.8615-1.0057 6-8c-0.20541-6.984-6-8-6-8s5.8615-1.0057 6-8c-0.20541-6.984-6-8-6-8s5.8615-1.0057 6-8c-0.20541-6.984-6-8-6-8s5.8615-1.0057 6-8c-0.20541-6.984-6-8-6-8s5.8615-1.0057 6-8c-0.20541-6.984-6-8-6-8s5.8615-1.0057 6-8c-0.20541-6.984-6-8-6-8s5.8615-1.0057 6-8c-0.20541-6.984-6-8-6-8s5.8615-1.0057 6-8c-0.73734-5.9962-3.1124-5.7203-3.1124-5.7203m-4.8601 208.55s2.2899-0.0938 1.9725-2.8326c-0.20541-6.984-6-8-6-8s5.8615-1.0057 6-8c-0.20541-6.984-6-8-6-8s5.8615-1.0057 6-8c-0.20541-6.984-6-8-6-8s5.8615-1.0057 6-8c-0.20541-6.984-6-8-6-8s5.8615-1.0057 6-8c-0.20541-6.984-6-8-6-8s5.8615-1.0057 6-8c-0.20541-6.984-6-8-6-8s5.8615-1.0057 6-8c-0.20541-6.984-6-8-6-8s5.8615-1.0057 6-8c-0.20541-6.984-6-8-6-8s5.8615-1.0057 6-8c-0.20541-6.984-6-8-6-8s5.8615-1.0057 6-8c-0.20541-6.984-6-8-6-8s5.8615-1.0057 6-8c-0.20541-6.984-6-8-6-8s5.8615-1.0057 6-8c-0.20541-6.984-6-8-6-8s5.8615-1.0057 6-8c-0.20541-6.984-6-8-6-8s5.1016-0.77773 5.772-6.7842m-6.38 211.11c-0.35739-3.7924-5.3921-4.3525-5.3921-4.3525s5.8615-1.0057 6-8c-0.20541-6.984-6-8-6-8s5.8615-1.0057 6-8c-0.20541-6.984-6-8-6-8s5.8615-1.0057 6-8c-0.20541-6.984-6-8-6-8s5.8615-1.0057 6-8c-0.20541-6.984-6-8-6-8s5.8615-1.0057 6-8c-0.20541-6.984-6-8-6-8s5.8615-1.0057 6-8c-0.20541-6.984-6-8-6-8s5.8615-1.0057 6-8c-0.20541-6.984-6-8-6-8s5.8615-1.0057 6-8c-0.20541-6.984-6-8-6-8s5.8615-1.0057 6-8c-0.20541-6.984-6-8-6-8s5.8615-1.0057 6-8c-0.20541-6.984-6-8-6-8s5.8615-1.0057 6-8c-0.20541-6.984-6-8-6-8s5.8615-1.0057 6-8c-0.20541-6.984-6-8-6-8s5.8615-1.0057 6-8c-0.20541-6.984-6-8-6-8m-75.843 196.58c0.01273-4.362 4.5584-4.5804 4.5584-4.5804s-4.6525 0.069-4.7104-8c0.04421-7.9781 4.7104-8 4.7104-8s-4.6794 0.1227-4.7104-8c-0.09012-7.8706 4.7104-8 4.7104-8s-4.7331 0.2033-4.7104-8c0.01734-8.2468 4.7104-8 4.7104-8s-4.4557-0.66374-4.4422-3.9345m-0.268-68.069c-0.06326-8.1662 4.7104-8 4.7104-8s-4.7331-0.09223-4.7104-8c-0.17072-8.3811 4.7104-8 4.7104-8s-4.948 0.06897-4.7104-8c0.20541-7.9512 4.7104-8 4.7104-8s-4.6794 0.1227-4.7104-8c-0.11699-7.79 4.7104-8 4.7104-8s-3.6047-0.1997-3.8507-2.5192m5.2185 189.2c-0.09855-1.8167 4.6322-2.6807 4.6322-2.6807s-5.8615-1.0057-6-8c0.20541-6.984 6-8 6-8s-5.8615-1.0057-6-8c0.20541-6.984 6-8 6-8s-5.8615-1.0057-6-8c0.20541-6.984 6-8 6-8s-5.8615-1.0057-6-8c0.20541-6.984 6-8 6-8s-2.5939-0.51176-2.8084-1.5408m-1.922-57.949c-0.29616-3.6287 4.7288-4.51 4.7288-4.51s-5.8615-1.0057-6-8c0.20541-6.984 6-8 6-8s-5.8615-1.0057-6-8c0.20541-6.984 6-8 6-8s-5.8615-1.0057-6-8c0.20541-6.984 6-8 6-8s-5.8615-1.0057-6-8c0.20541-6.984 6-8 6-8m1.5926 195.52s-1.2261-0.54976-1.5926-3.5166c0.20541-6.984 6-8 6-8s-5.8615-1.0057-6-8c0.20541-6.984 6-8 6-8s-5.8615-1.0057-6-8c0.20541-6.984 6-8 6-8s-5.8615-1.0057-6-8c0.20541-6.984 6-8 6-8s-5.8615-1.0057-6-8c0.20541-6.984 6-8 6-8m-3.729-45.727c-0.02256-1.8547 3.729-2.2726 3.729-2.2726s-5.8615-1.0057-6-8c0.20541-6.984 6-8 6-8s-5.8615-1.0057-6-8c0.20541-6.984 6-8 6-8s-5.8615-1.0057-6-8c0.20541-6.984 6-8 6-8s-5.8615-1.0057-6-8c0.20541-6.984 6-8 6-8s-5.8615-1.0057-6-8m6.5319 196.35c0.20541-3.5645 5.4681-4.3525 5.4681-4.3525s-5.8615-1.0057-6-8c0.20541-6.984 6-8 6-8s-5.8615-1.0057-6-8c0.20541-6.984 6-8 6-8s-5.8615-1.0057-6-8c0.20541-6.984 6-8 6-8s-5.8615-1.0057-6-8c0.20541-6.984 6-8 6-8s-5.8615-1.0057-6-8m6-40s-5.8615-1.0057-6-8c0.20541-6.984 6-8 6-8s-5.8615-1.0057-6-8c0.20541-6.984 6-8 6-8s-5.8615-1.0057-6-8c0.20541-6.984 6-8 6-8s-5.8615-1.0057-6-8c0.20541-6.984 6-8 6-8s-5.8615-1.0057-6-8c0.20541-6.984 6-8 6-8m4.2522 197.87s-4.1137 1.122-4.2522-5.8723c0.20541-6.984 6-8 6-8s-5.8615-1.0057-6-8c0.20541-6.984 6-8 6-8s-5.8615-1.0057-6-8c0.20541-6.984 6-8 6-8s-5.8615-1.0057-6-8c0.20541-6.984 6-8 6-8s-5.8615-1.0057-6-8c0.20541-6.984 6-8 6-8s-5.0256-0.0558-5.4301-5.3023m-0.64592-34.622c0.20541-6.984 6.076-8.076 6.076-8.076s-5.8615-1.0057-6-8c0.20541-6.984 6-8 6-8s-5.8615-1.0057-6-8c0.20541-6.984 6-8 6-8s-5.8615-1.0057-6-8c0.20541-6.984 6-8 6-8s-5.8615-1.0057-6-8c0.20541-6.984 6-8 6-8s-5.8615-1.0057-6-8m6 198.78c0.2814-6.0722 6-6.7842 6-6.7842s-5.8615-1.0057-6-8c0.20541-6.984 6-8 6-8s-5.8615-1.0057-6-8c0.20541-6.984 6-8 6-8s-5.8615-1.0057-6-8c0.20541-6.984 6-8 6-8s-5.8615-1.0057-6-8c0.20541-6.984 6-8 6-8s-5.8615-1.0057-6-8c0.20541-6.984 6-8 6-8s-4.3237-0.2825-3.9862-2.7187m-1.3678-22.877c0.20541-6.984 5.3541-6.4042 5.3541-6.4042s-5.8615-1.0057-6-8c0.20541-6.984 6-8 6-8s-5.8615-1.0057-6-8c0.20541-6.984 6-8 6-8s-5.8615-1.0057-6-8c0.20541-6.984 6-8 6-8s-5.8615-1.0057-6-8c0.20541-6.984 6-8 6-8s-5.8615-1.0057-6-8c0.20541-6.984 6-8 6-8s-3.6584-0.30717-3.8507-2.3043m9.8507 202.3s-5.8615-1.0057-6-8c0.20541-6.984 6-8 6-8s-5.8615-1.0057-6-8c0.20541-6.984 6-8 6-8s-5.8615-1.0057-6-8c0.20541-6.984 6-8 6-8s-5.8615-1.0057-6-8c0.20541-6.984 6-8 6-8s-5.8615-1.0057-6-8c0.20541-6.984 6-8 6-8s-5.8615-1.0057-6-8c0.20541-6.984 6-8 6-8m0-16s-5.8615-1.0057-6-8c0.20541-6.984 6-8 6-8s-5.8615-1.0057-6-8c0.20541-6.984 6-8 6-8s-5.8615-1.0057-6-8c0.20541-6.984 6-8 6-8s-5.8615-1.0057-6-8c0.20541-6.984 6-8 6-8s-5.8615-1.0057-6-8c0.20541-6.984 6-8 6-8s-5.8615-1.0057-6-8c0.20541-6.984 1.0028-3.0565 1.0028-3.0565m4.9972 203.06c0.20541-6.984 6-8 6-8s-5.8615-1.0057-6-8c0.20541-6.984 6-8 6-8s-5.8615-1.0057-6-8c0.20541-6.984 6-8 6-8s-5.8615-1.0057-6-8c0.20541-6.984 6-8 6-8s-5.8615-1.0057-6-8c0.20541-6.984 6-8 6-8s-5.8615-1.0057-6-8c0.20541-6.984 6-8 6-8s-5.8615-1.0057-6-8m5.4301-7.582s-5.2916-1.4236-5.4301-8.418c0.20541-6.984 6-8 6-8s-5.8615-1.0057-6-8c0.20541-6.984 6-8 6-8s-5.8615-1.0057-6-8c0.20541-6.984 6-8 6-8s-5.8615-1.0057-6-8c0.20541-6.984 6-8 6-8s-5.8615-1.0057-6-8c0.20541-6.984 6-8 6-8s-5.8615-1.0057-6-8c0.20541-6.984 6-8 6-8s-4.4107-0.09223-5.1403-4.0237m6.4321 206.4c0.35739-1.6647 4.7082-2.3767 4.7082-2.3767s-5.8615-1.0057-6-8c0.20541-6.984 6-8 6-8s-5.8615-1.0057-6-8c0.20541-6.984 6-8 6-8s-5.8615-1.0057-6-8c0.20541-6.984 6-8 6-8s-5.8615-1.0057-6-8c0.20541-6.984 6-8 6-8s-5.8615-1.0057-6-8c0.20541-6.984 6-8 6-8s-5.8615-1.0057-6-8c0.20541-6.984 6-8 6-8s-6.3174-0.70173-6.4559-7.696c0.20541-6.984 6.4559-8.304 6.4559-8.304s-5.8615-1.0057-6-8c0.20541-6.984 6-8 6-8s-5.8615-1.0057-6-8c0.20541-6.984 6-8 6-8s-5.8615-1.0057-6-8c0.20541-6.984 6-8 6-8s-5.8615-1.0057-6-8c0.20541-6.984 6-8 6-8s-5.8615-1.0057-6-8c0.20541-6.984 6-8 6-8s-5.8615-1.0057-6-8c0.20541-6.984 4.3343-5.4745 4.3343-5.4745m2.7264 208.61s-0.77014-0.47377-1.0606-3.1366c0.20541-6.984 6-8 6-8s-5.8615-1.0057-6-8c0.20541-6.984 6-8 6-8s-5.8615-1.0057-6-8c0.20541-6.984 6-8 6-8s-5.8615-1.0057-6-8c0.20541-6.984 6-8 6-8s-5.8615-1.0057-6-8c0.20541-6.984 6-8 6-8s-5.8615-1.0057-6-8c0.20541-6.984 6-8 6-8s-5.8615-1.0057-6-8c0.20541-6.984 6-8 6-8s-5.8615-1.0057-6-8c0.20541-6.984 6-8 6-8s-5.8615-1.0057-6-8c0.20541-6.984 6-8 6-8s-5.8615-1.0057-6-8c0.20541-6.984 6-8 6-8s-5.8615-1.0057-6-8c0.20541-6.984 6-8 6-8s-5.8615-1.0057-6-8c0.20541-6.984 6-8 6-8s-5.8615-1.0057-6-8c0.20541-6.984 6-8 6-8s-5.5928-0.3609-5.7313-6.7641m6.6432 211.19c-0.0986-2.6526 5.0881-4.4284 5.0881-4.4284s-5.8615-1.0057-6-8c0.20541-6.984 6-8 6-8s-5.8615-1.0057-6-8c0.20541-6.984 6-8 6-8s-5.8615-1.0057-6-8c0.20541-6.984 6-8 6-8s-5.8615-1.0057-6-8c0.20541-6.984 6-8 6-8s-5.8615-1.0057-6-8c0.20541-6.984 6-8 6-8s-5.8615-1.0057-6-8c0.20541-6.984 6-8 6-8s-5.8615-1.0057-6-8c0.20541-6.984 6-8 6-8s-5.8615-1.0057-6-8c0.20541-6.984 6-8 6-8s-5.8615-1.0057-6-8c0.20541-6.984 6-8 6-8s-5.8615-1.0057-6-8c0.20541-6.984 6-8 6-8s-5.8615-1.0057-6-8c0.20541-6.984 6-8 6-8s-5.8615-1.0057-6-8c0.20541-6.984 6-8 6-8s-5.8615-1.0057-6-8c0.20541-6.984 6-8 6-8m-65.565 140.22c-8.0587-0.20541-8-4.4417-8-4.4417s0.33764 4.3032-8 4.4417c-8.1662 0.22446-8-4.4417-8-4.4417m32 0c-6.984-0.20541-8-6-8-6s-1.0057 5.8615-8 6c-6.984-0.20541-8-6-8-6s-1.0057 5.8615-8 6m40-6c-6.984-0.20541-8-6-8-6s-1.0057 5.8615-8 6c-6.984-0.20541-8-6-8-6s-1.0057 5.8615-8 6c-6.984-0.20541-8-6-8-6m48 0c-6.984-0.20541-8-6-8-6s-1.0057 5.8615-8 6c-6.984-0.20541-8-6-8-6s-1.0057 5.8615-8 6c-6.984-0.20541-8-6-8-6s-1.0057 5.8615-8 6m56-6c-6.984-0.20541-8-6-8-6s-1.0057 5.8615-8 6c-6.984-0.20541-8-6-8-6s-1.0057 5.8615-8 6c-6.984-0.20541-8-6-8-6s-1.0057 5.8615-8 6c-6.984-0.20541-8-6-8-6m24-39.992c-8.0587 0.20541-8 4.4417-8 4.4417s0.33764-4.3032-8-4.4417c-8.161-0.228-7.995 4.438-7.995 4.438m32 0c-6.984 0.20541-8 6-8 6s-1.0057-5.8615-8-6c-6.984 0.20541-8 6-8 6s-1.0057-5.8615-8-6m40 6c-6.984 0.20541-8 6-8 6s-1.0057-5.8615-8-6c-6.984 0.20541-8 6-8 6s-1.0057-5.8615-8-6c-6.984 0.20541-8 6-8 6m48 0c-6.984 0.20541-8 6-8 6s-1.0057-5.8615-8-6c-6.984 0.20541-8 6-8 6s-1.0057-5.8615-8-6c-6.984 0.20541-8 6-8 6s-1.0057-5.8615-8-6m56 6c-6.984 0.20541-8 6-8 6s-1.0057-5.8615-8-6c-6.984 0.20541-8 6-8 6s-1.0057-5.8615-8-6c-6.984 0.20541-8 6-8 6s-1.0057-5.8615-8-6c-6.984 0.20541-8 6-8 6" stroke="#a83d20" stroke-width="1px" fill="none"/><path id="path7760" d="m210.78 71.906s-8.77 2.557-11.53 9.125c-2.75 6.523 1.44 14.516 1.5 14.625l4.53-10.687 4.75 2-0.91 2.187c-0.27 0.656 0.03 1.413 0.69 1.688s1.41-0.031 1.69-0.688l0.91-2.187 3.56 1.531c0.65 0.275 1.41-0.03 1.69-0.688 0.28-0.656-0.01-1.44-0.66-1.718h-0.03l-3.56-1.5 0.9-2.156c0.28-0.656-0.03-1.413-0.69-1.688-0.65-0.275-1.41 0.03-1.68 0.688l-0.91 2.156-4.75-2 4.5-10.688z" fill="#848484" transform="translate(-.0000013456)"/><path id="path7769" d="m199.88 81.793c0 1.1-0.9 2-2 2h-26.852c-1.1 0-2-0.9-2-2v-26.852c0-1.1 0.9-2 2-2h26.852c1.1 0 2 0.9 2 2v26.852z" stroke="#a08645" stroke-width="2" fill="#f2e4b6"/><path id="path7777" d="m193.98 75.896c0 1.1-0.9 2-2 2h-15.059c-1.1 0-2-0.9-2-2v-15.06c0-1.1 0.9-2 2-2h15.059c1.1 0 2 0.9 2 2v15.06z" stroke="#c9ad5d" fill="#230e06"/></svg>
