<?xml version="1.0" encoding="UTF-8" standalone="no"?>
<!-- Created with Inkscape (http://www.inkscape.org/) -->
<svg id="svg2" xmlns:rdf="http://www.w3.org/1999/02/22-rdf-syntax-ns#" xmlns="http://www.w3.org/2000/svg" xml:space="preserve" x="0px" y="0px" width="295.81px" height="195.35249px" viewBox="0 0 295.81 195.35249" version="1.1" xmlns:cc="http://creativecommons.org/ns#" xmlns:xlink="http://www.w3.org/1999/xlink" xmlns:dc="http://purl.org/dc/elements/1.1/"><metadata id="metadata8"><rdf:RDF><cc:Work rdf:about=""><dc:format>image/svg+xml</dc:format><dc:type rdf:resource="http://purl.org/dc/dcmitype/StillImage"/></cc:Work></rdf:RDF></metadata><defs id="defs6"><clipPath id="clipPath94"><path id="path96" d="m14.215 147.87h209.21v-137.85h-209.21v137.85z"/></clipPath><clipPath id="clipPath110"><path id="path112" d="m17.323 145.32h202v-131.24h-202v131.24z"/></clipPath><clipPath id="clipPath146"><path id="path148" d="m22.153 107.02h47.556v-47.556h-47.556v47.556z"/></clipPath><clipPath id="clipPath174"><path id="path176" d="m146.83 110.39h33.588v-33.589h-33.588v33.589z"/></clipPath><clipPath id="clipPath198"><path id="path200" d="m170.76 115.24h4.027v-3.589h-4.027v3.589z"/></clipPath><clipPath id="clipPath214"><path id="path216" d="m149.29 115.62h26.502v-39.093h-26.502v39.093z"/></clipPath><clipPath id="clipPath262"><path id="path264" d="m154.1 110.55h19.831v-25.717h-19.831v25.717z"/></clipPath><clipPath id="clipPath374"><path id="path376" d="m165.87 109.82h1.841v-1.841h-1.841v1.841z"/></clipPath><clipPath id="clipPath398"><path id="path400" d="m171.49 106.6h1.841v-1.84h-1.841v1.84z"/></clipPath><clipPath id="clipPath426"><path id="path428" d="m169.82 114.01h3.477v-6.067h-3.477v6.067z"/></clipPath><radialGradient id="radialGradient4290" gradientUnits="userSpaceOnUse" cy="0" cx="0" gradientTransform="matrix(6.0916 0 0 -6.0916 168.66 105.68)" r="1"><stop id="stop352" stop-color="#ff0" offset="0"/><stop id="stop354" stop-color="#ffa90b" offset="1"/></radialGradient><linearGradient id="linearGradient4297" gradientUnits="userSpaceOnUse" gradientTransform="matrix(8.9436 -2.0667 -2.0667 -8.9436 167.24 92.486)"><stop id="stop320" stop-color="#ff0" offset="0"/><stop id="stop322" stop-color="#ffa90b" offset="1"/></linearGradient><linearGradient id="linearGradient4304" gradientUnits="userSpaceOnUse" gradientTransform="matrix(-4.6866 3.3049 3.3049 4.6866 157.49 99.558)"><stop id="stop288" stop-color="#ff0" offset="0"/><stop id="stop290" stop-color="#ffa90b" offset="1"/></linearGradient><linearGradient id="linearGradient4317" gradientUnits="userSpaceOnUse" gradientTransform="matrix(18.417 15.666 15.666 -18.417 157.32 91.156)"><stop id="stop240" stop-color="#ff0" offset="0"/><stop id="stop242" stop-color="#ffa90b" offset="1"/></linearGradient><linearGradient id="linearGradient4380" gradientUnits="userSpaceOnUse" gradientTransform="matrix(49.885 -114.44 -114.44 -49.885 98.024 129.31)"><stop id="stop72" stop-color="#79bae2" offset="0"/><stop id="stop74" stop-color="#428de2" offset="1"/></linearGradient></defs><g id="g66" transform="matrix(1.25 0 0 -1.25 0 195.35)"><g id="g68"><path id="path76" d="m78.674 146.5c-40.067-12.48-70.572-31.6-70.572-70.576s31.596-70.574 70.572-70.574c49.221 0 70.954 39.794 103.38 42.984 32.432 3.191 47.651 33.63 46.421 46.421 0 25.638-20.782 46.421-46.421 46.421-24.984 0-47.686 9.755-74.049 9.756-9.243 0.001-18.933-1.198-29.334-4.436" fill="url(#linearGradient4380)"/></g></g><g id="g86" transform="matrix(1.25 0 0 -1.25 227.57 18.883)"><path id="path88" d="m0 0c-33.743 0-63.316 17.795-103.38 5.32-40.067-12.474-70.573-31.595-70.573-70.572s31.597-70.573 70.573-70.573c49.221 0 70.953 39.793 103.38 42.983 32.432 3.192 47.65 33.63 46.421 46.421 0 25.633-20.782 46.416-46.421 46.416z" stroke="#3a8cb5" stroke-miterlimit="10" stroke-width="3" fill="none"/></g><g id="g90" transform="matrix(1.25 0 0 -1.25 0 195.35)"><g id="g98"><g id="g100" opacity=".5" clip-path="url(#clipPath94)"><g id="g102" transform="translate(178.23 138.2)"><path id="path104" d="m0 0c-31.719 0-59.517 16.727-97.18 5.001-37.663-11.727-66.338-29.7-66.338-66.338 0-36.639 29.701-66.339 66.338-66.339 46.268 0 66.696 37.405 97.18 40.405 30.485 3 45.791 31.612 44.636 43.635 0.002 24.103-20.534 43.64-44.634 43.64z" stroke="#a7d4ea" stroke-miterlimit="10" fill="none"/></g></g></g></g><g id="g106" transform="matrix(1.25 0 0 -1.25 0 195.35)"><g id="g114"><g id="g116" opacity=".2" clip-path="url(#clipPath110)"><g id="g118" transform="translate(176.44 135.92)"><path id="path120" d="m0 0c-30.768 0-57.731 16.225-94.265 4.851-36.533-11.374-64.348-26.311-64.348-61.85s28.81-64.349 64.348-64.349c44.88 0 64.695 36.284 94.265 39.193 29.57 2.91 43.447 30.664 42.326 42.326-0.003 23.378-18.952 39.831-42.329 39.831z" stroke="#a7d4ea" stroke-miterlimit="10" fill="none"/></g></g></g></g><g id="g122" transform="matrix(1.25 0 0 -1.25 72.169 129.26)"><path id="path124" d="m0 0c-4.255-2.293-6.352-7.028-5.49-11.536 4.08 0.589 9.603 1.478 9.603 1.478l-6.289-7.418c3.296-3.022 8.268-3.788 12.426-1.546 5.253 2.83 7.217 9.382 4.387 14.635-2.831 5.253-9.384 7.217-14.637 4.387" fill="#76b82a"/></g><g id="g126" transform="matrix(1.25 0 0 -1.25 72.169 129.26)"><path id="path128" d="m0 0c-4.255-2.293-6.352-7.028-5.49-11.536 4.08 0.589 9.603 1.478 9.603 1.478l-6.289-7.418c3.296-3.022 8.268-3.788 12.426-1.546 5.253 2.83 7.217 9.382 4.387 14.635-2.831 5.253-9.384 7.217-14.637 4.387z" stroke="#009641" stroke-miterlimit="10" stroke-width="3" fill="none"/></g><g id="g130" transform="matrix(1.25 0 0 -1.25 119.74 120.52)"><path id="path132" d="m0 0c4.72-1.039 9.399 1.18 11.688 5.158-3.476 2.217-8.241 5.147-8.241 5.147l9.606 1.516c-0.525 4.442-3.792 8.266-8.405 9.282-5.827 1.284-11.592-2.4-12.876-8.227-1.283-5.828 2.401-11.592 8.228-12.876" fill="#76b82a"/></g><g id="g134" transform="matrix(1.25 0 0 -1.25 119.74 120.52)"><path id="path136" d="m0 0c4.72-1.039 9.399 1.18 11.688 5.158-3.476 2.217-8.241 5.147-8.241 5.147l9.606 1.516c-0.525 4.442-3.792 8.266-8.405 9.282-5.827 1.284-11.592-2.4-12.876-8.227-1.283-5.828 2.401-11.592 8.228-12.876z" stroke="#009641" stroke-miterlimit="10" stroke-width="3" fill="none"/></g><g id="g138" transform="matrix(1.25 0 0 -1.25 80.359 89.665)"><path id="path140" d="m0 0c0-10.197-8.267-18.465-18.465-18.465-10.199 0-18.466 8.268-18.466 18.465 0 10.199 8.267 18.466 18.466 18.466 10.198 0 18.465-8.267 18.465-18.466z" stroke="#a7d4ea" stroke-miterlimit="10" fill="none"/></g><g id="g142" transform="matrix(1.25 0 0 -1.25 0 195.35)"><g id="g150"><g id="g152" opacity=".39999" clip-path="url(#clipPath146)"><g id="g154" transform="translate(69.209 83.241)"><path id="path156" d="m0 0c0-12.855-10.422-23.277-23.278-23.277s-23.278 10.422-23.278 23.277c0 12.857 10.422 23.278 23.278 23.278s23.278-10.421 23.278-23.278z" stroke="#a7d4ea" stroke-miterlimit="10" fill="none"/></g></g></g></g><g id="g158" transform="matrix(1.25 0 0 -1.25 58.807 74.787)"><path id="path160" d="m0 0c-4.651 1.313-9.452-0.629-11.97-4.466 3.34-2.415 5.365-5.017 5.365-5.017l-7.118-1.554c0.264-4.465 3.302-8.474 7.848-9.758 5.742-1.622 11.712 1.718 13.335 7.46 1.622 5.742-1.718 11.712-7.46 13.335" fill="#76b82a"/></g><g id="g162" transform="matrix(1.25 0 0 -1.25 58.807 74.787)"><path id="path164" d="m0 0c-4.651 1.313-9.452-0.629-11.97-4.466 3.34-2.415 5.365-5.017 5.365-5.017l-7.118-1.554c0.264-4.465 3.302-8.474 7.848-9.758 5.742-1.622 11.712 1.718 13.335 7.46 1.622 5.742-1.718 11.712-7.46 13.335z" stroke="#009641" stroke-miterlimit="10" stroke-width="3" fill="none"/></g><g id="g166" transform="matrix(1.25 0 0 -1.25 220.59 77.213)"><path id="path168" d="m0 0c0-7.138-5.786-12.925-12.925-12.925s-12.926 5.787-12.926 12.925c0 7.14 5.787 12.927 12.926 12.927s12.925-5.787 12.925-12.927z" stroke="#a7d4ea" stroke-miterlimit="10" fill="none"/></g><g id="g170" transform="matrix(1.25 0 0 -1.25 0 195.35)"><g id="g178"><g id="g180" opacity=".39999" clip-path="url(#clipPath174)"><g id="g182" transform="translate(179.92 93.596)"><path id="path184" d="m0 0c0-8.999-7.295-16.294-16.294-16.294-9 0-16.295 7.295-16.295 16.294 0 9.001 7.295 16.295 16.295 16.295 8.999 0 16.294-7.294 16.294-16.295z" stroke="#a7d4ea" stroke-miterlimit="10" fill="none"/></g></g></g></g><g id="g186" transform="matrix(1.25 0 0 -1.25 213.33 57.031)"><path id="path188" d="m0 0c0.03-0.082-0.073-0.194-0.229-0.252-0.157-0.059-0.308-0.039-0.338 0.043-0.031 0.08 0.072 0.193 0.228 0.251 0.157 0.058 0.309 0.039 0.339-0.042" fill="#964c04"/></g><g id="g190" transform="matrix(1.25 0 0 -1.25 214.62 57.771)"><path id="path192" d="m0 0c-0.085-0.016-0.131-0.161-0.102-0.325 0.03-0.165 0.123-0.285 0.208-0.271 0.084 0.015 0.131 0.16 0.102 0.325-0.029 0.164-0.123 0.287-0.208 0.271" fill="#964c04"/></g><g id="g194" transform="matrix(1.25 0 0 -1.25 0 195.35)"><g id="g202"><g id="g204" opacity=".39999" clip-path="url(#clipPath198)"><g id="g206" transform="translate(170.76 113.64)"><path id="path208" d="m0 0s0.058 0.099 0.157 0.271c0.051 0.086 0.108 0.195 0.207 0.297 0.098 0.102 0.188 0.246 0.331 0.349 0.142 0.103 0.279 0.243 0.464 0.329 0.089 0.049 0.181 0.1 0.276 0.15 0.099 0.039 0.206 0.07 0.312 0.104 0.106 0.041 0.218 0.061 0.336 0.069 0.115 0.007 0.232 0.046 0.354 0.021 0.12-0.016 0.242-0.024 0.363-0.047l0.349-0.136c0.227-0.148 0.379-0.265 0.536-0.496 0.087-0.099 0.129-0.211 0.173-0.32 0.045-0.109 0.096-0.214 0.108-0.327 0.021-0.112 0.045-0.22 0.06-0.326-0.002-0.109-0.003-0.212-0.004-0.316 0.012-0.205-0.054-0.391-0.077-0.563-0.03-0.173-0.106-0.319-0.151-0.452-0.043-0.135-0.114-0.237-0.162-0.327-0.102-0.173-0.16-0.27-0.16-0.27s0.041 0.105 0.111 0.294c0.034 0.092 0.09 0.2 0.112 0.337 0.026 0.135 0.077 0.281 0.096 0.447 0.006 0.167 0.056 0.346 0.026 0.534-0.005 0.095-0.011 0.191-0.018 0.289-0.024 0.096-0.047 0.192-0.07 0.29-0.014 0.103-0.065 0.192-0.108 0.285-0.042 0.093-0.083 0.19-0.149 0.26-0.071 0.073-0.093 0.164-0.198 0.229-0.084 0.059-0.195 0.158-0.257 0.186l-0.287 0.117c-0.102 0.02-0.207 0.027-0.308 0.042-0.103 0.027-0.208-0.008-0.311-0.008-0.103-0.003-0.206-0.014-0.301-0.048-0.1-0.028-0.197-0.054-0.291-0.079-0.091-0.04-0.18-0.081-0.266-0.119-0.181-0.064-0.316-0.186-0.459-0.271-0.145-0.09-0.24-0.207-0.35-0.291-0.109-0.084-0.179-0.186-0.242-0.263-0.129-0.154-0.202-0.241-0.202-0.241" fill="#fce577"/></g></g></g></g><g id="g210" transform="matrix(1.25 0 0 -1.25 0 195.35)"><g id="g218"><g id="g220" opacity=".2" clip-path="url(#clipPath214)"><g id="g222" transform="translate(175.3 111.38)"><path id="path224" d="m0 0c0.857 1.495 0.572 3.267-0.635 3.959s-2.879 0.042-3.736-1.454c-0.309-0.537-0.695-1.507-1.009-2.561-1.339 0.199-2.702-0.072-3.857-0.747-1.206-0.383-2.435-1.047-3.651-1.968-2.23-0.05-9.651-7.378-10.432-8.561-0.182-0.272-4.389-6.717-1.907-9.827l0.489-0.613 0.453 0.638c0.287 0.406 0.642 0.925 0.978 1.425 0.069-1.108 0.351-2.396 1.092-3.305 0.009-1.083 0.066-2.024 0.129-2.747-2.84-1.839-3.997-3.36-3.537-4.646 0.105-0.296 0.299-0.531 0.558-0.68 0.628-0.359 1.562-0.135 2.407 0.228-0.514-1.1-0.977-2.393-0.774-3.162 0.103-0.384 0.332-0.585 0.508-0.686 0.233-0.132 0.515-0.178 0.842-0.134 1.012 0.135 2.142 1.316 2.948 2.342 0.107-0.753 0.343-1.479 0.843-1.766 0.518-0.291 1.078-0.305 1.578-0.044 1.094 0.577 1.733 2.398 1.861 3.849 0.032 0.332 0.042 0.754-0.025 1.14l0.676 0.405c0.17 0.103 0.34 0.205 0.512 0.309l-0.185-0.589 0.633-0.136c1.329-0.282 2.778 0.258 3.868 0.844-0.248-0.569-0.504-1.171-0.697-1.648l-0.291-0.719 0.771-0.088c4.125-0.467 7.401 6.788 7.434 6.861 0.644 1.455 2.207 9.507 1.712 12.575 0.424 2.086 0.46 3.987 0.091 5.61-0.001 1.354-0.469 2.683-1.335 3.745 0.745 0.798 1.382 1.617 1.688 2.151" fill="#0c1c2b"/></g></g></g></g><g id="g234" transform="matrix(1.25 0 0 -1.25 0 195.35)"><g id="g236"><path id="path244" d="m156.64 101.14c-2.579-4.498-2.793-10.393-2.398-14.336-1.133-0.712-3.905-2.548-3.412-3.927 0.484-1.354 3.65 0.776 3.65 0.776s-2.876-4.876-0.896-4.612c1.377 0.185 3.362 3.331 3.362 3.331s-0.116-2.461 0.579-2.85c1.332-0.75 2.28 1.516 2.428 3.168 0.049 0.537 0.012 1.008-0.123 1.289 4.067 2.449 8.19 4.642 10.778 9.156 4.162 7.261 4.565 14.218 0.28 16.675-0.874 0.501-1.811 0.739-2.784 0.739-3.799 0.001-8.15-3.627-11.464-9.409" fill="url(#linearGradient4317)"/></g></g><g id="g254" transform="matrix(1.25 0 0 -1.25 195.26 88.498)"><path id="path256" d="m0 0-1.246-2.116c-0.92-1.562-1.613-3.308-1.514-3.78 0.017 0 0.037 0.001 0.063 0.004 0.769 0.104 2.197 1.861 2.965 3.077l1.127 1.784-0.098-2.11c-0.049-1.039 0.099-2.157 0.307-2.346 0.19-0.105 0.312-0.071 0.414-0.017 0.526 0.276 1.062 1.539 1.172 2.757 0.048 0.528-0.004 0.863-0.07 1.001l-0.218 0.457 1.444 0.864c3.738 2.23 7.269 4.336 9.571 8.351 4.113 7.176 4.313 13.72 0.486 15.913s-9.372-1.286-13.485-8.462c-2.864-4.997-2.581-11.457-2.326-14.003l0.034-0.344-0.293-0.184c-3.382-2.129-3.246-3.095-3.185-3.267 0.015-0.04 0.026-0.047 0.034-0.051 0.321-0.184 1.646 0.341 2.779 1.102l2.039 1.37zm-3.346-6.871c-0.166 0.096-0.383 0.286-0.481 0.65-0.193 0.729 0.247 1.954 0.733 2.996-0.801-0.343-1.685-0.556-2.281-0.215-0.245 0.14-0.428 0.363-0.528 0.643-0.435 1.219 0.661 2.66 3.351 4.402-0.252 2.855-0.401 9.264 2.501 14.328 4.511 7.87 10.543 11.436 15.01 8.876 4.467-2.561 4.438-9.569-0.072-17.439-2.448-4.268-6.272-6.548-9.969-8.753l-0.64-0.384c0.064-0.367 0.053-0.766 0.025-1.08-0.123-1.374-0.729-3.1-1.764-3.646-0.475-0.248-1.006-0.235-1.495 0.042-0.474 0.271-0.698 0.959-0.8 1.672-0.764-0.972-1.834-2.091-2.793-2.219-0.309-0.041-0.577 0.002-0.797 0.127" fill="#ffc200"/></g><g id="g258" transform="matrix(1.25 0 0 -1.25 0 195.35)"><g id="g266"><g id="g268" opacity=".3" clip-path="url(#clipPath262)"><g id="g270" transform="translate(170.89 109.81)"><path id="path272" d="m0 0c-4.285 2.456-10.085-1.407-14.248-8.67-2.209-3.852-2.68-8.728-2.523-12.525 0.831 0.114 1.488 1.747 1.933 2.439 2.092-1.964 2.938 3.531 3.381 4.626 0.459 1.134 1.138 2.23 1.693 3.318 0.465 0.916 1.11 2.457 1.879 3.095 0.787-2.368 3.242-3.462 5.65-3.023-1.414-2.199-2.777-4.858-4.467-6.899-0.971-1.173-2.091-2.159-2.858-3.483-0.537-0.928-0.341-2.351 0.982-2.185-0.274-0.773-0.746-1.228-1.054-1.672 3.583 2.141 7.067 4.316 9.352 8.303 4.163 7.262 4.565 14.219 0.28 16.676" fill="#ffc200"/></g></g></g></g><g id="g282" transform="matrix(1.25 0 0 -1.25 0 195.35)"><g id="g284"><path id="path292" d="m152.96 100.45c-0.91-1.375-3.663-6.365-1.836-8.655 0.756 1.067 1.998 2.956 1.998 2.956s-0.483-3.396 0.98-4.89c0.916 1.101 1.653 5.196 1.653 5.196s0.209-2.666 1.155-2.812c0.608-0.096 0.622 1.359 0.728 1.727 0.533 1.845 1.059 3.664 1.723 5.451 0.675 1.823 3.88 8.266 3.093 8.885-0.036 0.028-0.085 0.041-0.146 0.041-1.297 0.001-8.083-5.986-9.348-7.899" fill="url(#linearGradient4304)"/></g></g><g id="g302" transform="matrix(1.25 0 0 -1.25 192.52 73.93)"><path id="path304" d="m0 0-0.346-2.464c-0.101-0.72-0.18-2.549 0.384-3.76 0.476 1.115 0.931 3.04 1.148 4.243l0.765 4.251 0.341-4.307c0.065-0.823 0.308-1.83 0.567-2.188 0.069 0.227 0.118 0.582 0.139 0.743 0.027 0.201 0.055 0.371 0.084 0.471 0.519 1.8 1.057 3.661 1.734 5.491 0.181 0.486 0.527 1.272 0.927 2.181 0.706 1.604 2.097 4.763 2.249 5.895-1.658-0.771-7.414-5.777-8.586-7.55-0.863-1.305-2.875-5.101-2.235-7.272 0.686 1.006 1.454 2.172 1.464 2.186l1.365 2.08zm0.115-8.107-0.432 0.442c-0.843 0.86-1.125 2.216-1.197 3.35-0.318-0.474-0.654-0.965-0.926-1.349l-0.429-0.606-0.463 0.581c-2.353 2.947 1.635 9.052 1.806 9.31 0.786 1.19 8.658 8.942 10.217 8.048l0.088-0.06c0.791-0.621 0.191-2.391-2.013-7.398-0.394-0.893-0.734-1.664-0.902-2.118-0.665-1.792-1.196-3.634-1.71-5.413-0.019-0.067-0.031-0.18-0.05-0.314-0.08-0.583-0.178-1.305-0.636-1.646-0.195-0.145-0.423-0.201-0.664-0.163-0.134 0.019-0.263 0.066-0.385 0.135l-0.001 0.001c-0.274 0.158-0.489 0.436-0.657 0.766-0.314-1.185-0.747-2.487-1.249-3.092l-0.397-0.474z" fill="#ffc200"/></g><g id="g314" transform="matrix(1.25 0 0 -1.25 0 195.35)"><g id="g316"><path id="path324" d="m167.44 93.835c-1.173-1.517-2.451-2.935-3.749-4.372-0.258-0.287-1.515-1.071-1.082-1.541 0.675-0.731 3.115 0.508 3.115 0.508s-3.138-2.808-3.565-4.177c2.147-0.457 4.823 1.761 4.823 1.761s-0.927-2.065-1.418-3.279c3.049-0.345 5.799 4.662 6.47 6.172 0.976 2.198 2.337 11.955 1.344 12.299-0.027 0.009-0.055 0.014-0.086 0.014-1.105-0.001-4.69-5.88-5.852-7.385" fill="url(#linearGradient4297)"/></g></g><g id="g334" transform="matrix(1.25 0 0 -1.25 211.59 81.782)"><path id="path336" d="m0 0-3.175-2.843c-0.926-0.829-2.347-2.252-3.036-3.249 1.407 0.138 2.99 1.202 3.565 1.679l1.85 1.532-0.983-2.191c-0.007-0.016-0.588-1.31-1.069-2.438 2.29 0.561 4.459 4.346 5.101 5.787 0.877 1.975 1.914 9.69 1.591 11.407-0.871-0.666-2.865-3.609-3.869-5.091-0.561-0.828-1.045-1.543-1.364-1.955-1.199-1.55-2.508-3.001-3.776-4.406-0.071-0.08-0.205-0.194-0.365-0.326-0.137-0.111-0.409-0.335-0.563-0.508 0.468-0.054 1.513 0.278 2.293 0.674l3.8 1.928zm-7.828-7.021 0.182 0.584c0.238 0.758 1.129 1.83 1.984 2.732-0.563-0.057-1.095 0.051-1.41 0.391-0.169 0.183-0.252 0.419-0.237 0.663 0.04 0.576 0.612 1.045 1.071 1.421 0.105 0.087 0.196 0.157 0.244 0.21 1.254 1.389 2.549 2.825 3.721 4.34 0.298 0.385 0.773 1.086 1.323 1.9 3.026 4.466 4.272 5.992 5.241 5.657l0.125-0.058c1.545-0.885-0.416-11.358-1.143-12.995-0.031-0.07-3.133-6.943-7.043-6.501l-0.73 0.083 0.275 0.682c0.184 0.451 0.427 1.022 0.661 1.561-1.033-0.555-2.406-1.067-3.665-0.799l-0.599 0.129z" fill="#ffc200"/></g><g id="g346" transform="matrix(1.25 0 0 -1.25 0 195.35)"><g id="g348"><path id="path356" d="m164.29 108.19c-1.383-2.414-0.549-5.492 1.866-6.875 2.413-1.383 5.491-0.548 6.874 1.866 1.384 2.413 0.548 5.491-1.864 6.875-0.791 0.452-1.651 0.667-2.501 0.667-1.746 0-3.443-0.909-4.375-2.533" fill="url(#radialGradient4290)"/></g></g><g id="g366" transform="matrix(1.25 0 0 -1.25 213.61 58.103)"><path id="path368" d="m0 0c-2.143 1.228-4.885 0.484-6.113-1.658-1.229-2.143-0.485-4.885 1.658-6.113 2.142-1.229 4.885-0.485 6.113 1.658 1.228 2.142 0.484 4.884-1.658 6.113m-5.01-8.74c-2.677 1.534-3.607 4.96-2.072 7.636 1.534 2.678 4.961 3.607 7.637 2.073s3.606-4.96 2.072-7.637c-1.535-2.678-4.961-3.607-7.637-2.072" fill="#ffc200"/></g><g id="g370" transform="matrix(1.25 0 0 -1.25 0 195.35)"><g id="g378"><g id="g380" opacity=".3" clip-path="url(#clipPath374)"><g id="g382" transform="translate(167.59 108.45)"><path id="path384" d="m0 0c-0.252-0.441-0.814-0.594-1.256-0.341-0.44 0.253-0.594 0.816-0.342 1.256 0.254 0.441 0.817 0.594 1.258 0.341 0.441-0.252 0.594-0.815 0.34-1.256" fill="#ffc200"/></g></g></g></g><g id="g386" transform="matrix(1.25 0 0 -1.25 209.23 59.903)"><path id="path388" d="m0 0c-0.234-0.409-0.755-0.55-1.164-0.315-0.408 0.234-0.551 0.754-0.316 1.164 0.235 0.409 0.755 0.549 1.164 0.315s0.55-0.755 0.316-1.164"/></g><g id="g390" transform="matrix(1.25 0 0 -1.25 209.03 59.647)"><path id="path392" d="m0 0c-0.056-0.099-0.183-0.132-0.28-0.075-0.098 0.055-0.133 0.181-0.076 0.279 0.056 0.099 0.181 0.133 0.28 0.076 0.098-0.056 0.133-0.181 0.076-0.28" fill="#fff"/></g><g id="g394" transform="matrix(1.25 0 0 -1.25 0 195.35)"><g id="g402"><g id="g404" opacity=".3" clip-path="url(#clipPath398)"><g id="g406" transform="translate(173.21 105.22)"><path id="path408" d="m0 0c-0.253-0.44-0.815-0.593-1.257-0.341-0.439 0.253-0.594 0.816-0.34 1.256 0.252 0.441 0.816 0.594 1.256 0.342 0.442-0.253 0.594-0.816 0.341-1.257" fill="#ffc200"/></g></g></g></g><g id="g410" transform="matrix(1.25 0 0 -1.25 216.41 64.022)"><path id="path412" d="m0 0c-0.234-0.409-0.755-0.55-1.164-0.315-0.409 0.234-0.55 0.753-0.315 1.164 0.234 0.408 0.754 0.548 1.164 0.314 0.408-0.234 0.55-0.754 0.315-1.163"/></g><g id="g414" transform="matrix(1.25 0 0 -1.25 216.2 63.755)"><path id="path416" d="m0 0c-0.056-0.098-0.182-0.132-0.28-0.076s-0.133 0.182-0.076 0.281c0.056 0.098 0.182 0.132 0.281 0.075 0.097-0.055 0.132-0.181 0.075-0.28" fill="#fff"/></g><g id="g418" transform="matrix(1.25 0 0 -1.25 218.23 55.982)"><path id="path420" d="m0 0c-0.811-1.415-4.062-4.937-5.205-4.281-1.144 0.655 0.253 5.241 1.063 6.655 0.813 1.417 2.398 2.033 3.541 1.377 1.144-0.655 1.413-2.334 0.601-3.751" fill="#f6921e"/></g><g id="g422" transform="matrix(1.25 0 0 -1.25 0 195.35)"><g id="g430"><g id="g432" opacity=".3" clip-path="url(#clipPath426)"><g id="g434" transform="translate(173.3 114.01)"><path id="path436" d="m0 0s-0.206-0.386-0.515-0.964c-0.301-0.583-0.702-1.361-1.103-2.139-0.2-0.387-0.359-0.801-0.525-1.178-0.165-0.378-0.355-0.71-0.54-0.982-0.19-0.268-0.38-0.473-0.534-0.606-0.149-0.135-0.261-0.197-0.261-0.197s-0.001 0.127 0.039 0.324c0.037 0.199 0.119 0.467 0.253 0.767 0.141 0.297 0.332 0.629 0.575 0.963 0.24 0.333 0.517 0.679 0.752 1.048 0.467 0.739 0.935 1.478 1.287 2.032 0.343 0.56 0.572 0.932 0.572 0.932" fill="#fce577"/></g></g></g></g></svg>
