<svg xmlns:rdf="http://www.w3.org/1999/02/22-rdf-syntax-ns#" xmlns="http://www.w3.org/2000/svg" xml:space="preserve" viewBox="0 0 295.81 195.35249" version="1.1" xmlns:cc="http://creativecommons.org/ns#" xmlns:xlink="http://www.w3.org/1999/xlink" xmlns:dc="http://purl.org/dc/elements/1.1/"><defs><linearGradient id="a" y2="194.51" gradientUnits="userSpaceOnUse" y1="6.7397" x2="172.88" x1="96.189"><stop stop-color="#80c1ff" offset="0"/><stop stop-color="#bde8ff" offset=".21945"/><stop stop-color="#8ec6ff" offset=".43026"/><stop stop-color="#bde8ff" offset=".53876"/><stop stop-color="#79baff" offset="1"/></linearGradient></defs><path d="m227.49 18.725c-42.178 0-79.144-22.244-129.23-6.65-50.082 15.592-88.215 39.494-88.215 88.215s39.496 88.216 88.215 88.216c61.526 0 88.691-49.741 129.23-53.729 40.54-3.99 59.562-42.038 58.028-58.026 0-32.041-25.979-58.02-58.028-58.02z" stroke="#3a8cb5" stroke-miterlimit="10" stroke-width="3.75" fill="url(#a)"/><g fill="#ebf9ff"><path opacity=".60001" d="m23.342 80.389s2.2212-1.0362 6.11-2.8512c3.8962-1.7962 9.4638-4.36 16.144-7.4362 6.695-3.0425 14.508-6.59 22.878-10.392 8.3875-3.7625 17.335-7.775 26.282-11.789 8.974-3.962 17.944-7.923 26.344-11.637 8.43-3.675 16.3-7.104 23.04-10.044 6.7575-2.9038 12.389-5.3225 16.33-7.0162l6.2088-2.63s-2.2212 1.0375-6.11 2.8525c-3.8962 1.795-9.4625 4.3588-16.144 7.4362-6.6962 3.0412-14.509 6.59-22.878 10.391-8.3888 3.7625-17.336 7.775-26.284 11.788-8.97 3.9612-17.939 7.9225-26.349 11.636-8.4262 3.675-16.291 7.105-23.034 10.042-6.7562 2.9038-12.388 5.3238-16.329 7.0188-3.9512 1.6725-6.2088 2.63-6.2088 2.63"/><path opacity=".60001" d="m92.084 61.388s1.3175-0.635 3.62-1.745c2.315-1.085 5.6025-2.6812 9.5825-4.515 3.9825-1.8288 8.6062-4.0138 13.6-6.2625 4.9938-2.2512 10.321-4.6525 15.648-7.055 5.3488-2.35 10.699-4.7 15.714-6.905 5.0125-2.2075 9.7312-4.1775 13.756-5.9125 4.0262-1.7325 7.4125-3.1025 9.7688-4.0962 2.3662-0.97 3.7188-1.5225 3.7188-1.5225s-1.3175 0.635-3.62 1.7438c-2.315 1.0862-5.6012 2.685-9.5812 4.5175-3.9838 1.8288-8.605 4.0162-13.601 6.2612-4.9938 2.2512-10.32 4.6525-15.648 7.055-5.3488 2.35-10.699 4.7-15.714 6.9025-5.015 2.2062-9.7312 4.1788-13.756 5.9138-4.0275 1.7312-7.4125 3.1038-9.7675 4.0962-2.3675 0.97-3.72 1.5238-3.72 1.5238"/><path opacity=".60001" d="m80.596 114.15s1.3175-0.63375 3.62-1.745c2.315-1.085 5.6025-2.6812 9.5825-4.515 3.9825-1.8288 8.6063-4.0138 13.6-6.2625 4.9938-2.2512 10.321-4.6525 15.648-7.055 5.3488-2.35 10.699-4.7012 15.714-6.905 5.0125-2.2075 9.7312-4.1775 13.756-5.9138 4.0262-1.7312 7.4125-3.1012 9.7688-4.095l3.7188-1.5225s-1.3162 0.635-3.62 1.7438c-2.315 1.0862-5.6012 2.685-9.5812 4.5175-3.9838 1.8288-8.605 4.0162-13.601 6.2612-4.9938 2.2512-10.321 4.6525-15.648 7.055-5.3488 2.35-10.699 4.7-15.714 6.9025-5.015 2.2062-9.7313 4.1788-13.756 5.9138-4.0275 1.7312-7.4125 3.1038-9.7675 4.0975-2.3675 0.96875-3.72 1.5225-3.72 1.5225"/><path opacity=".60001" d="m34.099 138.44s14.169-6.46 35.422-16.15c10.645-4.8 23.068-10.399 36.375-16.399 13.326-5.9612 27.541-12.319 41.755-18.675 14.24-6.31 28.47-12.616 41.82-18.528 13.365-5.8725 25.84-11.352 36.53-16.051 21.425-9.3038 35.709-15.508 35.709-15.508s-14.169 6.46-35.421 16.151c-10.638 4.7988-23.062 10.399-36.375 16.399-13.325 5.96-27.538 12.318-41.752 18.675-14.238 6.305-28.474 12.61-41.822 18.522-13.364 5.8725-25.839 11.354-36.531 16.051-21.424 9.305-35.706 15.509-35.706 15.509"/><path opacity=".60001" d="m52.197 165.32s14.169-6.46 35.422-16.15c10.645-4.8 23.068-10.399 36.375-16.399 13.326-5.9612 27.541-12.319 41.755-18.675 14.236-6.3062 28.474-12.612 41.821-18.525 13.365-5.8712 25.84-11.352 36.53-16.051 21.425-9.3038 35.709-15.508 35.709-15.508s-14.169 6.46-35.421 16.151c-10.648 4.8-23.068 10.399-36.376 16.399-13.325 5.96-27.538 12.318-41.752 18.675-14.238 6.3062-28.474 12.61-41.822 18.522-13.364 5.8725-25.839 11.352-36.531 16.051-21.424 9.305-35.706 15.509-35.706 15.509"/><path opacity=".60001" d="m59.697 158.32s12.661-5.7888 31.651-14.471c9.512-4.29 20.612-9.31 32.512-14.67 11.911-5.3312 24.618-11.019 37.324-16.705 12.73-5.6338 25.459-11.269 37.392-16.552 11.95-5.2425 23.105-10.136 32.665-14.331 19.162-8.2962 31.938-13.829 31.938-13.829l-31.65 14.472c-9.5125 4.2962-20.612 9.3075-32.5 14.679-11.912 5.3312-24.624 11.018-37.33 16.702-12.73 5.635-25.459 11.27-37.391 16.552-11.952 5.2425-23.106 10.136-32.668 14.331-19.161 8.2975-31.936 13.83-31.936 13.83"/></g><path d="m72.169 129.26c-5.3188 2.8662-7.94 8.785-6.8612 14.42 5.0988-0.73625 12.002-1.8475 12.002-1.8475l-7.8612 9.2725c4.12 3.7775 10.335 4.735 15.532 1.9325 6.5662-3.5375 9.0212-11.728 5.4838-18.294-3.5388-6.5662-11.73-9.0212-18.296-5.4838" fill="#2cb59b"/><path d="m72.169 129.26c-5.3188 2.8662-7.94 8.785-6.8612 14.42 5.0988-0.73625 12.002-1.8475 12.002-1.8475l-7.8612 9.2725c4.12 3.7775 10.335 4.735 15.532 1.9325 6.5662-3.5375 9.0212-11.728 5.4838-18.294-3.5388-6.5662-11.73-9.0212-18.296-5.4838z" stroke="#009381" stroke-miterlimit="10" stroke-width="3.75" fill="none"/><path d="m119.74 120.52c5.9 1.2988 11.748-1.475 14.61-6.4475-4.345-2.7712-10.302-6.4338-10.302-6.4338l12.009-1.895c-0.6575-5.5525-4.74-10.332-10.508-11.602-7.2838-1.605-14.489 3-16.095 10.284-1.6038 7.285 3.0012 14.49 10.286 16.095" fill="#2cb59b"/><path d="m119.74 120.52c5.9 1.2988 11.748-1.475 14.61-6.4475-4.345-2.7712-10.302-6.4338-10.302-6.4338l12.009-1.895c-0.6575-5.5525-4.74-10.332-10.508-11.602-7.2838-1.605-14.489 3-16.095 10.284-1.6038 7.285 3.0012 14.49 10.286 16.095z" stroke="#009381" stroke-miterlimit="10" stroke-width="3.75" fill="none"/><path d="m110.84 109.1c-0.87625-2.8525 1.1912-8.165 4.9362-7.5638-0.0312-5.5462 7.5512-6.2938 11.648-4.4388 5.51 2.4975 4.3488 7.3288-1.8762 6.5875 0.28625 0.0812 0.7575 0.0325 1.065 0.0613 0.42375 2.6388-2.8338 3.9088-4.815 4.8212 3.6762 0.78125 3.5488 3.0125 5.2625 5.2288 0.9175 1.1862 3.5975 0.73125 2.975 3.2412-0.325 1.315-3.145 1.8025-4.195 2.0625-3.2925 0.81375-6.1238-0.0375-9.1775-1.355-1.8362-0.7925-7.5062-4.3775-3.0312-5.7375-2.025 0.32875-2.8112-0.94125-2.375-2.9075h-0.41625z" fill="#eef7ff"/><g fill="#b6e7ef"><path d="m111.26 108.06h-0.41625c-0.09-0.295-0.1425-0.6225-0.1725-0.9625-0.0575 0.72375-0.009 1.415 0.1725 2.0025h0.315c-0.007-0.32 0.0175-0.66125 0.10125-1.04"/><path d="m113.64 110.96c0-0.56625-2.2575-0.36-2.44-1.4362-0.15375 1.15 0.1625 1.9962 0.9525 2.3438 2.3662 0.635 1.78-0.38 1.4875-0.9075"/><path d="m126.61 102.72c0.41125 2.63-4.1875 4.4688-6.1662 5.3812 0.5225 0.11125 0.96375 0.3025 1.3488 0.46875 1.82-0.875 5.41-2.19 4.8175-4.81 3.155 0.055 4.6762-1.4988 4.2812-3.2612-0.29875 1.2888-1.77 2.265-4.2812 2.2212"/><path d="m130.04 115.99c-0.32625 1.3162-3.1462 1.8025-4.195 2.0625-3.2925 0.815-6.125-0.0375-9.1775-1.355-1.19-0.51375-3.98-2.2-4.5825-3.695-0.87125 1.64 3.1 4.0962 4.5825 4.735 3.0525 1.3175 5.885 2.17 9.1775 1.355 1.0488-0.26 3.8688-0.74625 4.195-2.0625 0.1225-0.49 0.115-0.86375 0.0225-1.1625-0.009 0.0438-0.0112 0.0787-0.0225 0.1225"/></g><path d="m58.806 74.785c-5.8125-1.6412-11.814 0.78625-14.961 5.5825 4.175 3.0188 6.705 6.2712 6.705 6.2712l-8.8975 1.9425c0.33 5.5812 4.1288 10.592 9.8112 12.198 7.1762 2.0275 14.64-2.1475 16.669-9.325 2.0262-7.1775-2.1488-14.64-9.3262-16.669" fill="#2cb59b"/><path d="m58.806 74.785c-5.8125-1.6412-11.814 0.78625-14.961 5.5825 4.175 3.0188 6.705 6.2712 6.705 6.2712l-8.8975 1.9425c0.33 5.5812 4.1288 10.592 9.8112 12.198 7.1762 2.0275 14.64-2.1475 16.669-9.325 2.0262-7.1775-2.1488-14.64-9.3262-16.669z" stroke="#009381" stroke-miterlimit="10" stroke-width="3.75" fill="none"/><path d="m68.731 86.351c0-5.6412-4.5725-10.214-10.214-10.214-5.6425 0-10.215 4.5725-10.215 10.214 0 0.80125 0.10125 1.5762 0.27625 2.3225-0.03 0.0012-0.0588-0.005-0.0875-0.0025-1.8125 0.14-3.1688 1.72-3.0288 3.5325 0.1325 1.74 1.6 3.0462 3.3238 3.0238 0.22625 2.8175 2.5562 5.0412 5.4338 5.0412 2.415 0 4.4438-1.575 5.1712-3.7462 5.2312-0.445 9.34-4.8262 9.34-10.171" fill="#eef7ff"/><path d="m59.392 94.601c-0.7275 2.1712-2.7562 3.7462-5.1725 3.7462-2.8762 0-5.2075-2.2225-5.4325-5.0412-1.48 0.01875-2.7638-0.9425-3.1838-2.315-0.1175 0.3825-0.17375 0.78875-0.14125 1.2112 0.13375 1.7412 1.6012 3.0475 3.325 3.0238 0.225 2.8188 2.5562 5.0412 5.4325 5.0412 2.4162 0 4.445-1.575 5.1725-3.7462 5.2312-0.44375 9.34-4.825 9.34-10.171 0-0.31625-0.02-0.62625-0.0475-0.935-0.4675 4.89-4.3862 8.77-9.2925 9.1862" fill="#b6e7ef"/><path d="m67.092 140.87c-5.0725-9.4025 11.915-11.161 16.868-10.32 20.743 3.5375-2.6038 24.865-8.2088 18.764-2.6025-2.8325 2.2325-4.4625 3.4975-5.8812-1.86 0.0625-3.0212-1.4375-3.3988-3.0538-2.0275 1.4712-6.7788 3.4962-8.7575 0.49125" fill="#eef7ff"/><path d="m79.242 143.43c0.35625-0.2525 0.67-0.495 0.88-0.73-1.8588 0.0625-3.0212-1.4362-3.3988-3.0525-2.0275 1.47-6.7775 3.4962-8.7575 0.49-1.5588-2.8888-1.0288-5.0538 0.58875-6.6462-2.2638 1.6375-3.2738 4.0175-1.4625 7.3762 1.9788 3.005 6.73 0.98 8.7575-0.49 0.3775 1.615 1.5375 3.1112 3.3925 3.0525" fill="#b6e7ef"/><path d="m76.625 148.58c-1.2275-1.3362-0.79375-2.4038 0.13375-3.3088-1.4312 1.0525-2.5825 2.325-1.0075 4.0388 2.255 2.455 7.3838 0.465 11.356-3.0162-3.8225 3.0162-8.3888 4.565-10.482 2.2862" fill="#b6e7ef"/><path d="m160.98 168.65c-0.0425 0.09 0.06-0.30625 0.0775-0.60375 0.035-0.3125 0.0525-0.64125 0.07-0.9675 0.0325-0.65625 0.045-1.32 0.0538-1.985 0.0137-1.33 0.001-2.6662-0.0188-4.0012-0.05-2.67-0.13-5.34-0.24-8.01l0.29875 0.4425-7.9675-3.7175-1.995-0.91875-0.9975-0.45125-0.48625-0.21c0.005-0.001-0.0763-0.0212 0.0212 0-0.4375 0.1575 0.69375-0.07 0.3875-0.695l-0.0337-0.0387c-0.0288-0.025-0.06-0.0425-0.045-0.035l0.005 0.004 0.004 0.002c-0.055-0.0213 0.12625 0.0487-0.12375-0.0463l0.135 0.0138c0.0213-0.045-0.0213-0.035 0.0475-0.0538 0.61625-0.225 1.275-0.585 1.9075-0.92625 0.6375-0.3475 1.2675-0.715 1.8975-1.085 5.0238-2.9912 9.94-6.1975 14.836-9.4138l-0.11625 0.175 4.525-21.998 0.007 0.0688-6.5538-16.522 6.7775 16.431 0.0137 0.0325-0.006 0.0362-4.225 22.058-0.02 0.11-0.095 0.065c-4.8612 3.2888-9.7288 6.5575-14.738 9.6362-0.62875 0.38125-1.2612 0.76-1.9062 1.1238-0.6525 0.36125-1.275 0.72375-2.0338 1.0138-0.1025 0.0425-0.32875 0.0825-0.48375 0.0863l-0.1375-0.0113c-0.2575-0.095-0.0775-0.0312-0.13875-0.0538l-0.0112-0.006-0.025-0.015c0.004 0.004-0.0362-0.0225-0.0725-0.0538l-0.0475-0.0487c-0.305-0.63 0.8325-0.85875 0.4-0.7 0.14375 0.0337 0.10375 0.0312 0.1525 0.045l0.52625 0.2175 1.0125 0.44125 2.0112 0.89375 8.0238 3.61 0.2825 0.1275 0.0162 0.31625c0.1425 2.68 0.26125 5.3562 0.34375 8.0412 0.04 1.3412 0.07 2.6838 0.075 4.0312 0 0.67375-0.004 1.35-0.0275 2.0312-0.0125 0.3425-0.0275 0.6825-0.06 1.0362-0.0137 0.175-0.0375 0.3575-0.0662 0.5475-0.0288 0.12125-0.0188 0.15125-0.0813 0.35-0.0387 0.10625-0.09 0.21125-0.14625 0.30375-0.0513 0.0787-0.0588 0.08-0.09 0.1225l-0.925-0.84z" fill="#3a8cb5"/><path d="m150.39 148.52-13.212-6.5138-0.6825-0.335 0.645-0.3775 10.658-6.245 0.0375 0.39375-13.041-5.0875 13.195 4.675 0.42625 0.15125-0.38875 0.2425-10.466 6.5625-0.035-0.7125 13.402 6.1162-0.5375 1.13z" fill="#3a8cb5"/></svg>
