<?xml version="1.0" encoding="UTF-8" standalone="no"?>
<!-- Generator: Adobe Illustrator 16.2.1, SVG Export Plug-In . SVG Version: 6.00 Build 0) -->
<svg id="Layer_1" xmlns:rdf="http://www.w3.org/1999/02/22-rdf-syntax-ns#" xmlns="http://www.w3.org/2000/svg" xml:space="preserve" x="0px" y="0px" width="200px" height="200px" viewBox="0 0 200 200" version="1.1" xmlns:cc="http://creativecommons.org/ns#" enable-background="new 0 0 200 200" xmlns:dc="http://purl.org/dc/elements/1.1/"><metadata id="metadata4872"><rdf:RDF><cc:Work rdf:about=""><dc:format>image/svg+xml</dc:format><dc:type rdf:resource="http://purl.org/dc/dcmitype/StillImage"/></cc:Work></rdf:RDF></metadata><rect id="rect4860" width="200" height="200" fill="#A0C53A"/><path id="path5382" fill="#709922" d="m41.123 122.59c0.29962-1.0674-1.3483-5.0561-2.3221-7.4905 0 0-1.8914-4.9063-0.16854-5.6554 1.8539 0.0374 4.513 10.019 4.513 10.019l1.9475-0.59924s-1.2547-10.037 2.1723-10.861c2.3595 0.18726 0.05618 10.262-0.03745 12.135 0 0 2.3595-7.6404 2.3221-9.0823 0 0 0.6367-4.382-2.0599-4.4943-4.1011-0.63669-4.4756 6.4793-4.4756 6.4793s-2.1161-6.161-4.9625-5.2059c-3.0149 2.0037-0.89886 6.0673-0.89886 6.0673 0.37453 1.6105 4.1198 7.1722 3.97 8.689z"/><path id="path5384" fill="#709922" d="m151.72 143.56c0.29962-1.0674-1.3483-5.0561-2.3221-7.4905 0 0-1.8914-4.9063-0.16854-5.6554 1.8539 0.0374 4.513 10.019 4.513 10.019l1.9475-0.59924s-1.2547-10.037 2.1722-10.861c2.3595 0.18726 0.0562 10.262-0.0375 12.135 0 0 2.3595-7.6404 2.3221-9.0823 0 0 0.6367-4.382-2.0599-4.4943-4.1011-0.63669-4.4756 6.4793-4.4756 6.4793s-2.1161-6.161-4.9625-5.2059c-3.015 2.0037-0.89887 6.0673-0.89887 6.0673 0.37453 1.6105 4.1198 7.1722 3.97 8.689z"/><path id="path5386" fill="#709922" d="m77.987 56.907c0.29962-1.0674-1.3483-5.0561-2.3221-7.4905 0 0-1.8914-4.9063-0.16854-5.6554 1.8539 0.0374 4.513 10.019 4.513 10.019l1.9475-0.59924s-1.2547-10.037 2.1723-10.861c2.3595 0.18726 0.05618 10.262-0.03745 12.135 0 0 2.3595-7.6404 2.3221-9.0823 0 0 0.6367-4.382-2.0599-4.4943-4.1011-0.63669-4.4756 6.4793-4.4756 6.4793s-2.1161-6.161-4.9625-5.2059c-3.0149 2.0037-0.89886 6.0673-0.89886 6.0673 0.37453 1.6105 4.1198 7.1722 3.97 8.689z"/></svg>
