<?xml version="1.0" encoding="UTF-8" standalone="no"?>
<!-- Generator: Adobe Illustrator 16.0.0, SVG Export Plug-In . SVG Version: 6.00 Build 0) -->
<!DOCTYPE svg PUBLIC '-//W3C//DTD SVG 1.1//EN' 'http://www.w3.org/Graphics/SVG/1.1/DTD/svg11.dtd'>
<svg id="Layer_1" xmlns="http://www.w3.org/2000/svg" xml:space="preserve" version="1.1" xmlns:xlink="http://www.w3.org/1999/xlink" x="0px" y="0px" width="679.032px" height="781.665px" viewBox="0 0 679.032 781.665" enable-background="new 0 0 679.032 781.665">
	<linearGradient id="SVGID_1_" y2="124.2" gradientUnits="userSpaceOnUse" x2="638.2" y1="124.2" x1="45.727">
		<stop stop-color="#232323" offset="0"/>
		<stop stop-color="#303030" offset=".2245"/>
		<stop stop-color="#303030" offset=".7449"/>
		<stop stop-color="#232323" offset="1"/>
	</linearGradient>
		<rect height="245.4" width="592.47" stroke="#101928" stroke-miterlimit="10" y="1.5" x="45.727" stroke-width="3" fill="url(#SVGID_1_)"/>
	<g stroke="#E5E5E5" stroke-width="4" stroke-miterlimit="10" fill="none">
				<line x2="165.41" y1="225.3" x1="165.41" y2="90.981"/>
				<line x2="169.91" y1="90.981" x1="160.91" y2="90.981"/>
			<line x2="83.497" y1="225.3" x1="83.497" y2="90.981"/>
			<line x2="87.997" y1="90.981" x1="78.997" y2="90.981"/>
	</g>
	<g stroke="#E5E5E5" stroke-width="4" stroke-miterlimit="10" fill="none">
				<line x2="602.62" y1="225.3" x1="602.62" y2="90.981"/>
				<line x2="607.12" y1="90.981" x1="598.12" y2="90.981"/>
				<line x2="520.71" y1="225.3" x1="520.71" y2="90.981"/>
				<line x2="525.21" y1="90.981" x1="516.21" y2="90.981"/>
	</g>
				<rect height="190.44" width="220.38" stroke="#6D4E35" stroke-miterlimit="10" y="392.51" x="229.33" stroke-width="3" fill="#A0C53A"/>
				<path d="m266.08 472.19c-0.071-0.583-0.272-1.122-0.5-1.651-0.224-0.53-0.48-1.047-0.749-1.559l-1.643-3.079c-0.53-1.047-1.047-2.111-1.438-3.271-0.196-0.58-0.347-1.19-0.41-1.847-0.062-0.648-0.025-1.381 0.3-2.087 0.073-0.179 0.178-0.343 0.288-0.503 0.046-0.061 0.014-0.037 0.124-0.166l0.071-0.082 0.145-0.163c0.345-0.331 0.81-0.612 1.378-0.619 0.574 0.003 0.987 0.259 1.308 0.487 0.322 0.24 0.553 0.502 0.769 0.762 0.825 1.051 1.334 2.14 1.835 3.232 0.481 1.098 0.883 2.211 1.27 3.321l1.104 3.274-1.901 0.6c-0.162-0.706-0.195-1.271-0.236-1.876-0.034-0.595-0.045-1.183-0.04-1.771 0.021-1.176 0.081-2.351 0.274-3.525 0.192-1.174 0.457-2.355 1.015-3.523 0.288-0.574 0.655-1.176 1.275-1.648 0.609-0.492 1.549-0.656 2.265-0.473l0.069 0.013 0.034 0.007 0.018 0.004 0.093 0.027 0.099 0.039c0.083 0.037 0.097 0.026 0.235 0.104 0.118 0.064 0.234 0.137 0.343 0.214 0.09 0.075 0.161 0.151 0.239 0.231 0.284 0.319 0.459 0.678 0.556 1.01 0.208 0.672 0.235 1.297 0.221 1.904-0.042 1.208-0.237 2.354-0.482 3.48-0.258 1.125-0.555 2.23-0.887 3.323-0.32 1.097-0.71 2.167-1.001 3.268 0.087-1.142 0.297-2.267 0.466-3.39 0.17-1.123 0.351-2.241 0.462-3.359 0.124-1.112 0.21-2.232 0.143-3.299-0.038-0.525-0.114-1.048-0.274-1.453-0.074-0.21-0.184-0.359-0.282-0.455l-0.071-0.062c-0.012 0.003-0.017 0-0.019-0.011 0.023-0.009-0.11-0.039-0.158-0.058l-0.102-0.032-0.007-0.002c0.034 0.01-0.084-0.024 0.074 0.021h-0.01l-0.018-0.002-0.036-0.002c-0.393-0.047-0.673 0.025-0.944 0.266s-0.528 0.628-0.721 1.076c-0.39 0.902-0.602 1.972-0.728 3.043-0.125 1.075-0.194 2.174-0.189 3.271 0.002 0.548 0.021 1.096 0.059 1.635 0.037 0.528 0.099 1.101 0.198 1.502l-1.901 0.599c-0.218-0.597-0.377-1.142-0.556-1.697l-0.529-1.646c-0.358-1.091-0.746-2.165-1.165-3.21-0.417-1.035-0.882-2.082-1.468-2.886-0.273-0.401-0.667-0.671-0.715-0.651-0.024-0.01-0.09 0.014-0.184 0.057l-0.154 0.154-0.077 0.076c0.062-0.072-0.007 0.014-0.004 0.012-0.059 0.075-0.12 0.149-0.162 0.24-0.406 0.693-0.275 1.834-0.03 2.884 0.252 1.075 0.655 2.153 1.072 3.228 0.408 1.081 0.863 2.154 1.255 3.262 0.38 1.11 0.78 2.26 0.74 3.44z" fill="#709922"/>
				<path d="m283.5 558.94c-0.071-0.583-0.272-1.122-0.5-1.651-0.224-0.53-0.48-1.047-0.749-1.559l-1.643-3.079c-0.53-1.046-1.047-2.11-1.438-3.271-0.196-0.58-0.347-1.189-0.41-1.846-0.062-0.649-0.025-1.383 0.3-2.088 0.073-0.178 0.178-0.342 0.288-0.504 0.046-0.06 0.014-0.037 0.124-0.164l0.071-0.082 0.145-0.164c0.345-0.331 0.81-0.613 1.378-0.619 0.574 0.002 0.987 0.259 1.308 0.486 0.322 0.242 0.553 0.502 0.769 0.764 0.825 1.049 1.334 2.139 1.835 3.232 0.481 1.097 0.883 2.21 1.27 3.32l1.104 3.275-1.901 0.6c-0.162-0.707-0.195-1.271-0.236-1.877-0.034-0.594-0.045-1.183-0.04-1.771 0.021-1.174 0.081-2.35 0.274-3.525 0.192-1.174 0.457-2.354 1.015-3.521 0.288-0.576 0.655-1.176 1.275-1.648 0.609-0.493 1.549-0.656 2.265-0.475l0.069 0.014 0.034 0.007 0.018 0.003 0.093 0.029 0.099 0.038c0.083 0.037 0.097 0.026 0.235 0.103 0.118 0.064 0.234 0.137 0.343 0.215 0.09 0.076 0.161 0.152 0.239 0.23 0.284 0.32 0.459 0.68 0.556 1.011 0.208 0.672 0.235 1.298 0.221 1.903-0.042 1.209-0.237 2.354-0.482 3.482-0.258 1.125-0.555 2.229-0.887 3.322-0.32 1.096-0.71 2.167-1.001 3.268 0.087-1.142 0.297-2.267 0.466-3.39 0.17-1.123 0.351-2.241 0.462-3.359 0.124-1.112 0.21-2.232 0.143-3.298-0.038-0.527-0.114-1.049-0.274-1.455-0.074-0.209-0.184-0.358-0.282-0.455l-0.071-0.061c-0.012 0.002-0.017 0-0.019-0.011 0.023-0.009-0.11-0.039-0.158-0.058l-0.102-0.031-0.007-0.002c0.034 0.01-0.084-0.025 0.074 0.021l-0.01-0.001-0.018-0.001-0.036-0.004c-0.393-0.046-0.673 0.027-0.944 0.267-0.271 0.241-0.528 0.628-0.721 1.075-0.39 0.903-0.602 1.973-0.728 3.043-0.125 1.076-0.194 2.176-0.189 3.271 0.002 0.549 0.021 1.097 0.059 1.637 0.037 0.527 0.099 1.1 0.198 1.5l-1.901 0.6c-0.218-0.598-0.377-1.141-0.556-1.697l-0.529-1.646c-0.358-1.091-0.746-2.164-1.165-3.211-0.417-1.033-0.882-2.082-1.468-2.885-0.273-0.4-0.667-0.672-0.715-0.651-0.024-0.009-0.09 0.015-0.184 0.058l-0.154 0.152-0.077 0.077c0.062-0.072-0.007 0.013-0.004 0.013-0.059 0.074-0.12 0.148-0.162 0.239-0.406 0.693-0.275 1.833-0.03 2.884 0.252 1.076 0.655 2.153 1.072 3.227 0.408 1.082 0.863 2.156 1.255 3.262 0.38 1.13 0.78 2.28 0.74 3.46z" fill="#709922"/>
				<path d="m409.93 495.46c-0.071-0.583-0.272-1.122-0.5-1.651-0.224-0.53-0.48-1.047-0.749-1.559l-1.643-3.079c-0.53-1.046-1.047-2.11-1.438-3.271-0.196-0.58-0.347-1.189-0.41-1.846-0.062-0.649-0.025-1.383 0.3-2.088 0.073-0.178 0.178-0.342 0.288-0.504 0.046-0.06 0.014-0.037 0.124-0.164l0.071-0.082 0.145-0.164c0.345-0.331 0.81-0.613 1.378-0.619 0.574 0.002 0.987 0.259 1.308 0.486 0.322 0.242 0.553 0.502 0.769 0.764 0.825 1.049 1.334 2.139 1.835 3.232 0.481 1.097 0.883 2.21 1.27 3.32l1.104 3.275-1.901 0.6c-0.162-0.707-0.195-1.271-0.236-1.877-0.034-0.594-0.045-1.183-0.04-1.771 0.021-1.174 0.081-2.35 0.274-3.525 0.192-1.174 0.457-2.354 1.015-3.521 0.288-0.576 0.655-1.176 1.275-1.648 0.609-0.493 1.549-0.656 2.265-0.475l0.069 0.014 0.034 0.007 0.018 0.003 0.093 0.029 0.099 0.038c0.083 0.037 0.097 0.026 0.235 0.103 0.118 0.064 0.234 0.137 0.343 0.215 0.09 0.076 0.161 0.152 0.239 0.23 0.284 0.32 0.459 0.68 0.556 1.011 0.208 0.672 0.235 1.298 0.221 1.903-0.042 1.209-0.237 2.354-0.482 3.482-0.258 1.125-0.555 2.229-0.887 3.322-0.32 1.096-0.71 2.167-1.001 3.268 0.087-1.142 0.297-2.267 0.466-3.39 0.17-1.123 0.351-2.241 0.462-3.359 0.124-1.112 0.21-2.232 0.143-3.298-0.038-0.527-0.114-1.049-0.274-1.455-0.074-0.209-0.184-0.358-0.282-0.455l-0.071-0.061c-0.012 0.002-0.017 0-0.019-0.011 0.023-0.009-0.11-0.039-0.158-0.058l-0.102-0.031-0.007-0.002c0.034 0.01-0.084-0.025 0.074 0.021l-0.01-0.001-0.018-0.001-0.036-0.004c-0.393-0.046-0.673 0.027-0.944 0.267-0.271 0.241-0.528 0.628-0.721 1.075-0.39 0.903-0.602 1.973-0.728 3.043-0.125 1.076-0.194 2.176-0.189 3.271 0.002 0.549 0.021 1.097 0.059 1.637 0.037 0.527 0.099 1.1 0.198 1.5l-1.901 0.6c-0.218-0.598-0.377-1.141-0.556-1.697l-0.529-1.646c-0.358-1.091-0.746-2.164-1.165-3.211-0.417-1.033-0.882-2.082-1.468-2.885-0.273-0.4-0.667-0.672-0.715-0.651-0.024-0.009-0.09 0.015-0.184 0.058l-0.154 0.152-0.077 0.077c0.062-0.072-0.007 0.013-0.004 0.013-0.059 0.074-0.12 0.148-0.162 0.239-0.406 0.693-0.275 1.833-0.03 2.884 0.252 1.076 0.655 2.153 1.072 3.227 0.408 1.082 0.863 2.156 1.255 3.262 0.37 1.12 0.78 2.27 0.73 3.46z" fill="#709922"/>
		<path opacity=".2" d="m646.1 227.82v-32.933h-136.48v-32.528h-333.21v32.528h-143.48v32.933h-32.93v520.92h32.932v32.932h613.17v-32.932h32.931v-520.92h-32.93zm-236.87 339.15h-139.43v-120.49h139.43v120.49z" fill="#0C1C2B"/>
		<g stroke-miterlimit="10">
			<radialGradient id="SVGID_2_" gradientUnits="userSpaceOnUse" cy="487.73" cx="338.52" r="280.1">
				<stop stop-color="#876749" offset=".4229"/>
				<stop stop-color="#9E8A66" offset=".6081"/>
			</radialGradient>
			<path stroke="#6D4E35" stroke-width="3" d="m197.47 365.85v243.76h282.08v-243.76h-282.08zm252.23 217.1h-220.37v-190.44h220.38v190.44z" fill="url(#SVGID_2_)"/>
			<g stroke="#071128" fill="none">
					<line x2="204.8" y1="371.32" x1="204.8" y2="604.77" stroke-width="5"/>
					<line x2="211.09" y1="376.75" x1="211.09" y2="598.69" stroke-width="4.3333"/>
					<line x2="217.38" y1="382.18" x1="217.38" y2="592.61" stroke-width="3.6667"/>
					<line x2="223.66" y1="387.62" x1="223.66" y2="586.53" stroke-width="3"/>
			</g>
			<g stroke="#071128" fill="none">
					<line x2="474.94" y1="604.77" x1="203.31" y2="604.77" stroke-width="5"/>
					<line x2="467.86" y1="599.17" x1="209.64" y2="599.17" stroke-width="4.3333"/>
					<line x2="460.78" y1="593.57" x1="215.96" y2="593.57" stroke-width="3.6667"/>
					<line x2="453.71" y1="587.96" x1="222.28" y2="587.96" stroke-width="3"/>
			</g>
			<g stroke="#071128" fill="none">
					<line x2="474.94" y1="370.83" x1="203.31" y2="370.83" stroke-width="5"/>
					<line x2="467.86" y1="376.44" x1="209.64" y2="376.44" stroke-width="4.3333"/>
					<line x2="460.78" y1="382.04" x1="215.96" y2="382.04" stroke-width="3.6667"/>
					<line x2="453.71" y1="387.64" x1="222.28" y2="387.64" stroke-width="3"/>
			</g>
			<g stroke="#071128" fill="none">
					<line x2="474.68" y1="371.32" x1="474.68" y2="604.77" stroke-width="5"/>
					<line x2="468.39" y1="376.75" x1="468.39" y2="598.69" stroke-width="4.3333"/>
					<line x2="462.1" y1="382.18" x1="462.1" y2="592.61" stroke-width="3.6667"/>
					<line x2="455.81" y1="387.62" x1="455.81" y2="586.53" stroke-width="3"/>
			</g>
				<line stroke-width="3" x1="449.7" x2="480.78" stroke="#6D4E35" y1="582.95" y2="609.8" fill="none"/>
				<line stroke-width="3" x1="198.47" x2="229.55" stroke="#6D4E35" y1="365.85" y2="392.7" fill="none"/>
				<line stroke-width="3" x1="449.7" x2="480.78" stroke="#6D4E35" y1="392.51" y2="365.65" fill="none"/>
				<line stroke-width="3" x1="198.47" x2="229.55" stroke="#6D4E35" y1="609.8" y2="582.95" fill="none"/>
		</g>
		<polygon opacity=".5" points="198.47 365.85 480.56 365.85 449.7 582.95 449.7 391.27 229.55 392.7 229.55 582.95" fill="#0C1C2B"/>
			<g stroke="#EDCC26" stroke-width="4" stroke-miterlimit="10" fill="none">
					<rect y="66.795" width="265.17" height="133.23" x="203.76"/>
							<line x2="445.42" y1="89.577" x1="468.93" y2="66.073"/>
							<line x2="402.22" y1="133.28" x1="469.42" y2="66.073"/>
							<line x2="360.24" y1="105.12" x1="399.3" y2="66.073"/>
							<line x2="415.46" y1="175.11" x1="469.28" y2="121.29"/>
							<line x2="318.27" y1="105.12" x1="357.33" y2="66.073"/>
							<line x2="413.82" y1="200.67" x1="452.87" y2="161.62"/>
							<line x2="276.3" y1="105.12" x1="315.36" y2="66.073"/>
							<line x2="371.85" y1="200.67" x1="410.9" y2="161.62"/>
							<line x2="234.33" y1="105.12" x1="273.38" y2="66.073"/>
							<line x2="329.88" y1="200.67" x1="368.93" y2="161.62"/>
							<line x2="203.75" y1="131.52" x1="257.8" y2="77.465"/>
							<line x2="287.9" y1="200.67" x1="326.96" y2="161.62"/>
							<line x2="203.76" y1="200.67" x1="284.99" y2="119.44"/>
							<line x2="203.76" y1="200.67" x1="243.02" y2="161.41"/>
							<line x2="240.54" y1="102.86" x1="203.76" y2="66.073"/>
							<line x2="283.75" y1="146.06" x1="203.76" y2="66.073"/>
							<line x2="325.72" y1="105.12" x1="286.67" y2="66.073"/>
							<line x2="257.81" y1="188.03" x1="203.76" y2="133.99"/>
							<line x2="367.69" y1="105.12" x1="328.64" y2="66.073"/>
							<line x2="272.14" y1="200.67" x1="233.1" y2="161.62"/>
							<line x2="409.66" y1="105.12" x1="370.61" y2="66.073"/>
							<line x2="314.11" y1="200.67" x1="275.06" y2="161.62"/>
							<line x2="451.63" y1="105.12" x1="412.58" y2="66.073"/>
							<line x2="356.09" y1="200.67" x1="317.04" y2="161.62"/>
							<line x2="469.51" y1="144.21" x1="415.46" y2="90.161"/>
							<line x2="398.06" y1="200.67" x1="359.01" y2="161.62"/>
							<line x2="469.42" y1="200.67" x1="400.98" y2="132.23"/>
							<line x2="468.89" y1="200.67" x1="442.95" y2="174.72"/>
			</g>
			<g fill="#EDCC26">
				<path d="m394.27 151.37h8.413v-3.376h-7.722v-2.762h7.722v-4.088h-8.801v-2.858h12.048v15.898h-11.66v-2.81z"/>
				<path d="m380.74 154.18h-4.78v-15.898h3.094v10.754c0 0.309-0.003 0.742-0.01 1.3-0.008 0.557-0.011 0.987-0.011 1.289l3.013-13.343h3.229l2.99 13.343c0-0.302-0.003-0.732-0.01-1.289-0.008-0.558-0.011-0.991-0.011-1.3v-10.754h3.096v15.898h-4.834l-2.895-12.5-2.88 12.5z"/>
				<path d="m361.13 151.37h8.413v-3.376h-7.724v-2.762h7.724v-4.088h-8.801v-2.858h12.048v15.898h-11.66v-2.81z"/>
				<path d="m347.97 153.77c-0.586-0.253-1.082-0.622-1.488-1.111-0.337-0.402-0.604-0.849-0.8-1.337-0.196-0.489-0.293-1.047-0.293-1.672 0-0.756 0.189-1.498 0.571-2.228 0.381-0.729 1.011-1.246 1.887-1.548-0.733-0.295-1.253-0.714-1.558-1.257-0.307-0.542-0.459-1.372-0.459-2.486v-1.067c0-0.727-0.029-1.219-0.088-1.478-0.088-0.41-0.292-0.712-0.613-0.906v-0.399h3.667c0.101 0.353 0.174 0.637 0.216 0.853 0.086 0.446 0.133 0.902 0.141 1.37l0.021 1.477c0.013 1.015 0.188 1.69 0.525 2.029 0.336 0.337 0.967 0.506 1.892 0.506h3.245v-6.234h3.247v15.898h-7.604c-1.1-0.01-1.94-0.15-2.52-0.4zm6.86-2.35v-4.27h-3.575c-0.709 0-1.243 0.086-1.599 0.258-0.628 0.303-0.941 0.899-0.941 1.791 0 0.963 0.304 1.61 0.912 1.941 0.341 0.187 0.854 0.279 1.536 0.279h3.66z"/>
				<path d="m331.52 149.22c0.251 1.085 0.866 1.845 1.845 2.275 0.547 0.237 1.153 0.355 1.822 0.355 1.28 0 2.331-0.482 3.155-1.447 0.823-0.966 1.235-2.417 1.235-4.354 0-1.952-0.446-3.333-1.339-4.145-0.891-0.811-1.905-1.216-3.041-1.216-1.114 0-2.028 0.319-2.74 0.959-0.711 0.64-1.15 1.477-1.315 2.514h3.678v2.652h-6.621v-8.531h2.2l0.334 1.984c0.64-0.751 1.215-1.28 1.725-1.589 0.878-0.536 1.957-0.805 3.237-0.805 2.105 0 3.832 0.729 5.176 2.188 1.403 1.465 2.104 3.47 2.104 6.014 0 2.573-0.709 4.635-2.126 6.188-1.416 1.553-3.289 2.328-5.619 2.328-2.021 0-3.644-0.512-4.87-1.537-1.226-1.024-1.928-2.303-2.108-3.834h3.27z"/>
				<path d="m313.26 151.37h8.413v-3.376h-7.722v-2.762h7.722v-4.088h-8.801v-2.858h12.048v15.898h-11.66v-2.81z"/>
				<path d="m310.34 154.18h-3.481l-6.312-11.085v11.085h-3.096v-15.898h3.32l6.473 11.281v-11.281h3.096v15.9z"/>
				<path d="m292.82 152.52c-1.28 1.309-2.909 1.962-4.888 1.962-2.646 0-4.582-0.877-5.805-2.632-0.676-0.984-1.039-1.974-1.089-2.966h3.322c0.211 0.762 0.482 1.338 0.813 1.726 0.592 0.69 1.469 1.036 2.632 1.036 1.183 0 2.115-0.487 2.8-1.462 0.684-0.975 1.024-2.353 1.024-4.137 0-1.783-0.36-3.118-1.081-4.007-0.722-0.888-1.637-1.332-2.748-1.332-1.14 0-2.009 0.382-2.606 1.144-0.331 0.41-0.604 1.025-0.824 1.845h-3.3c0.285-1.733 1.013-3.143 2.183-4.229 1.169-1.085 2.669-1.628 4.497-1.628 2.262 0 4.04 0.733 5.335 2.199 1.295 1.475 1.942 3.496 1.942 6.062 0.03 2.78-0.71 4.92-2.18 6.42z"/>
				<path d="m269.31 154.18h-3.765l5.317-9.937v-5.962h3.321v5.962l5.502 9.937h-3.915l-3.302-6.924-3.15 6.92z"/>
				<path d="m352.26 113.19c1.201-1.237 2.937-1.855 5.21-1.855 2.271 0 4.008 0.618 5.208 1.855 1.611 1.518 2.416 3.703 2.416 6.558 0 2.912-0.805 5.098-2.416 6.558-1.2 1.237-2.937 1.855-5.208 1.855-2.273 0-4.009-0.618-5.21-1.855-1.604-1.46-2.406-3.646-2.406-6.558 0.01-2.86 0.81-5.05 2.41-6.57zm2.08 2.42c-0.772 0.971-1.158 2.352-1.158 4.142 0 1.783 0.386 3.162 1.158 4.137 0.774 0.974 1.819 1.461 3.135 1.461s2.365-0.485 3.149-1.456c0.783-0.971 1.175-2.352 1.175-4.142s-0.392-3.171-1.175-4.142c-0.784-0.971-1.834-1.456-3.149-1.456s-2.36 0.49-3.13 1.46z"/>
				<path d="m347.38 127.68h-3.482l-6.312-11.085v11.085h-3.095v-15.898h3.322l6.472 11.28v-11.28h3.095v15.9z"/>
				<path d="m331.37 127.68h-3.321v-13.04h-7.938v-2.858h11.26v15.9z"/>
				<path d="m310.84 127.68h-3.765l5.317-9.938v-5.961h3.321v5.961l5.502 9.938h-3.915l-3.303-6.925-3.16 6.92z"/>
			</g>
				<rect height="44.676" width="311.19" stroke="#6D4E35" stroke-miterlimit="10" y="172.91" x="187.37" stroke-width="3" fill="#D8BD8D"/>
				<rect height="31.278" width="281.32" stroke="#6D4E35" stroke-miterlimit="10" y="186.31" x="202.27" stroke-width="3" fill="#D8BD8D"/>
			<polygon points="207.27 191.31 483.59 191.31 483.59 186.31 202.27 186.31 202.27 217.58 207.27 217.58" fill="#7F6A49"/>
			<polygon opacity=".6" points="498.57 208.42 484.32 208.42 483.06 210.42 203.35 210.42 202.72 208.42 187.37 208.42 187.37 217.58 498.57 217.58" fill="#6D4E35"/>
				<rect height="31.278" width="281.32" stroke="#705A4A" stroke-miterlimit="10" y="186.31" x="202.27" stroke-width="3" fill="none"/>
				<rect height="44.676" width="311.19" stroke="#705A4A" stroke-miterlimit="10" y="172.91" x="187.37" stroke-width="3" fill="none"/>
		<linearGradient id="SVGID_3_" y2="806.17" gradientUnits="userSpaceOnUse" x2="669.21" y1="240.17" x1="83.213">
			<stop stop-color="#9E8A66" offset="0"/>
			<stop stop-color="#8C6E50" offset="1"/>
		</linearGradient>
		<path d="m623 246.9v-30.45h-566.96v30.45h-30.45v481.66h30.45v30.45h566.96v-30.45h30.449v-481.66h-30.45zm-142.22 362.9h-282.53v-244.15h282.54v244.15z" fill="url(#SVGID_3_)"/>
		<path d="m610.33 243.78v30.45h30.449v441.66h-30.45v30.45h-526.96v-30.45h-30.45v-441.66h30.45v-30.45h526.96m-424.75 393.36h322.54v-284.16h-322.54v284.16m-122.21-413.36v30.45h-30.45v470.66h30.45v30.45h554.96v-30.45h30.449v-470.66h-30.45v-30.45h-554.96zm131.21 393.36v-250.16h293.54v250.15h-293.54z" fill="#7F6A49"/>
		<path stroke="#6D4E35" stroke-width="3" stroke-miterlimit="10" d="m603 266.9h30.449v441.66h-30.449v30.45h-526.96v-30.45h-30.45v-441.66h30.45v-30.45h526.96v30.45zm-102.22 362.9v-284.15h-322.53v284.15h322.53zm122.22-413.35h-566.96v30.45h-30.45v481.66h30.45v30.45h566.96v-30.45h30.449v-481.66h-30.449v-30.45zm-424.75 393.35v-244.15h282.54v244.15h-282.54z" fill="#D8BD8D"/>
			<linearGradient id="SVGID_4_" y2="777.85" gradientUnits="userSpaceOnUse" x2="629.8" y1="200.52" x1="52.466">
				<stop stop-color="#E8D9C4" offset="0"/>
				<stop stop-color="#E8D9C4" stop-opacity="0" offset="1"/>
			</linearGradient>
			<path d="m614.38 751.24h-551.96v-30.45h-30.45v-468.67h30.45v-30.45h551.96v30.45h30.449v468.66h-30.449v30.46zm-544.96-7h537.96v-30.45h30.449v-454.67h-30.449v-30.45h-537.96v30.45h-30.45v454.66h30.45v30.46z" fill="url(#SVGID_4_)"/>
			<linearGradient id="SVGID_5_" y2="631.23" gradientUnits="userSpaceOnUse" x2="484.02" y1="340.89" x1="193.68">
				<stop stop-color="#E8D9C4" offset="0"/>
				<stop stop-color="#E8D9C4" stop-opacity="0" offset="1"/>
			</linearGradient>
			<path d="m493.62 621.64h-309.54v-271.16h309.54v271.16zm-302.54-7h295.54v-257.16h-295.54v257.16z" fill="url(#SVGID_5_)"/>
				<linearGradient id="SVGID_6_" y2="418.4" gradientUnits="userSpaceOnUse" x2="339.52" y1="371.73" x1="339.52">
					<stop stop-color="#9E8A66" offset="0"/>
					<stop stop-color="#876749" offset="1"/>
				</linearGradient>
				<polygon stroke="#6D4E35" stroke-width="3" stroke-miterlimit="10" points="236.02 410.13 258.79 427.47 309.43 427.47 309.43 415.85 369.61 415.85 369.61 427.47 420.24 427.47 443.01 410.13 443.01 355.07 236.02 355.07" fill="url(#SVGID_6_)"/>
				<polygon opacity=".6" points="236.02 410.13 309.43 427.47 309.43 415.85 369.61 415.85 369.61 427.47 443.01 410.13 378.53 410.13 378.1 395.23 300.94 395.23 300.94 409.99" fill="#6D4E35"/>
					<line stroke-width="3" x1="300.94" x2="309.43" stroke="#6D4E35" stroke-miterlimit="10" y1="410.13" y2="427.47" fill="#9E8A66"/>
					<line stroke-width="3" x1="369.61" x2="378.1" stroke="#6D4E35" stroke-miterlimit="10" y1="427.47" y2="410.13" fill="#9E8A66"/>
					<line stroke-width="3" x1="300.94" x2="309.43" stroke="#6D4E35" stroke-miterlimit="10" y1="395.23" y2="415.85" fill="#9E8A66"/>
					<line stroke-width="3" x1="378.1" x2="369.61" stroke="#6D4E35" stroke-miterlimit="10" y1="395.23" y2="415.85" fill="#9E8A66"/>
				<linearGradient id="SVGID_7_" y2="416.71" gradientUnits="userSpaceOnUse" x2="428.87" y1="282.71" x1="274.87">
					<stop stop-color="#9E8A66" offset="0"/>
					<stop stop-color="#8C6E50" offset="1"/>
				</linearGradient>
				<polygon points="236.02 267.78 236.02 410.13 300.94 410.13 300.94 395.23 378.1 395.23 378.1 410.13 443.01 410.13 443.01 267.78" fill="url(#SVGID_7_)"/>
				<polygon stroke="#6D4E35" stroke-width="3" stroke-miterlimit="10" points="236.02 267.78 236.02 410.13 300.94 410.13 300.94 395.23 378.1 395.23 378.1 410.13 443.01 410.13 443.01 267.78" fill="none"/>
					<circle cy="332.41" cx="339.52" r="42.363" fill="#fff"/>
					<path d="m365.2 323.93l-17.219-0.002v-17.393c-0.098-1.812-1.607-3.267-3.444-3.267h-10.048c-1.9 0-3.454 1.555-3.454 3.453l-0.003 17.206-17.205 0.002c-1.899 0-3.453 1.555-3.453 3.453v10.05c0 1.898 1.554 3.451 3.453 3.451l17.205 0.021 0.003 17.188c0 1.899 1.554 3.453 3.454 3.453h10.048c1.837 0 3.347-1.453 3.444-3.268v-17.374l17.219-0.021c1.897 0 3.453-1.553 3.453-3.451v-10.05c0.01-1.89-1.55-3.45-3.45-3.45z" fill="#C10000"/>
				<path d="m439.87 278.64v126.35h-50.916v-12.897h-91.156v12.698h-50.917v-126.15h193m-199.99-7v135.35h59.917v-14.897h82.156v14.897h59.916v-135.35h-202z" fill="#7F6A49"/>
				<path stroke="#6D4E35" stroke-width="2" stroke-miterlimit="10" d="m436.01 403.13h-50.916v-14.897h-91.156v14.897h-50.917v-128.35h192.99v128.35zm-199.99-135.35v142.35h64.917v-14.897h77.156v14.897h64.916v-142.35h-207z" fill="#D8BD8D"/>
	<g stroke-miterlimit="10">
				<rect height="49.284" width="49.284" stroke="#3F2A1C" y="632.32" x="541.15" stroke-width="2" fill="#6D4E35"/>
				<rect height="39.427" width="39.427" stroke="#3F2A1C" y="637.25" x="546.08" stroke-width="2" fill="#6D4E35"/>
				<line stroke-width="2" x1="551.5" x2="551.5" stroke="#3F2A1C" y1="651.63" y2="662.3" fill="none"/>
			<polyline stroke="#846855" points="542.63 680.6 542.63 633.9 589.23 633.9" fill="none"/>
			<polyline stroke="#846855" points="547.6 675.6 547.6 638.48 584.45 638.48" fill="none"/>
		<polyline opacity=".6" stroke="#6D4E35" points="592 631.8 592 683.13 540.66 683.13" fill="none"/>
	</g>
					<path d="m129.16 494.3c4.645-0.102 9.001-2.323 13.675-2.036 3.273 0.201 5.444 2.559 6.893 5.288 1.377 2.596 0.883 5.708 0.039 8.369-1.587 5.006-4.712 9.371-6.222 14.422-1.313 4.395-0.65 9.019 1.817 12.872 2.251 3.518 5.953 5.873 9.401 8.068 3.536 2.251 7.713 4.585 9.181 8.77 1.102 3.143-0.221 6.643-1.178 9.646-0.883 2.77-1.379 5.282-0.834 8.158 0.768 4.052 2.501 8.461 6.387 10.416 2.649 1.334 5.791 0.802 8.475-0.093 0.609-0.203 0.348-1.169-0.266-0.965-2.53 0.843-5.176 1.273-7.705 0.194-2.486-1.061-3.938-3.607-4.871-6.007-1.172-3.011-1.615-6.107-0.859-9.268 0.727-3.039 1.98-5.858 2.216-9.008 0.654-8.732-10.655-12.341-15.997-16.962-4.208-3.64-6.212-8.854-5.106-14.356 1.037-5.156 4.207-9.664 6.123-14.505 1.768-4.466 1.68-8.836-1.311-12.734-2.633-3.432-6.744-3.668-10.682-2.966-3.07 0.548-6.034 1.627-9.178 1.695-0.63 0.01-0.63 1.01 0.01 1z" fill="#071128"/>
					<path d="m130.81 599.65c5.366 4.276 12.05-0.816 14.981-5.672 1.633-2.704 1.823-6.158 1.961-9.229 0.164-3.644-0.337-8.114 2.179-11.09 4.48-5.299 9.646 5.088 12.765 7.545 1.803 1.42 4.486 2.197 6.75 1.715 0.856-0.183 1.584-0.789 2.233-1.34 1.63-1.384 3.112-2.572 5.119-3.402 0.587-0.243 0.33-1.211-0.266-0.965-2.562 1.06-4.194 2.794-6.412 4.316-2.788 1.914-6.678-0.757-8.588-2.752-2.438-2.546-5.396-8.695-9.749-7.629-5.212 1.276-4.88 8.962-5.006 12.924-0.122 3.839-0.433 7.759-2.875 10.895-2.792 3.586-8.08 7.407-12.385 3.977-0.5-0.41-1.21 0.29-0.71 0.69z" fill="#071128"/>
			<polygon points="137.6 632.23 98.305 632.23 92.674 628.52 132.93 551.32 137.6 556.1" fill="#7F6A49"/>
					<rect y="551.82" x="93.238" height="76.137" width="39.29" fill="#D8BD8D"/>
					<path d="m133.09 628.52h-40.416v-77.266h40.419v77.27zm-39.288-1.13h38.163v-75.01h-38.158v75.01z" fill="#6D4E35"/>
							<radialGradient id="SVGID_8_" gradientUnits="userSpaceOnUse" cy="571.18" cx="113.21" r="15.791">
								<stop stop-color="#222A42" offset="0"/>
								<stop stop-color="#221832" offset="1"/>
							</radialGradient>
							<circle cy="571.18" cx="113.21" r="15.792" fill="url(#SVGID_8_)"/>
							<path d="m113.21 587.16c-8.811 0-15.979-7.169-15.979-15.979 0-8.812 7.169-15.98 15.979-15.98 8.812 0 15.979 7.169 15.979 15.98 0 8.81-7.17 15.98-15.98 15.98zm0-31.58c-8.604 0-15.604 7-15.604 15.604s7 15.604 15.604 15.604 15.604-7 15.604-15.604-6.99-15.6-15.6-15.6z" fill="#091335"/>
							<path d="m113.21 587.16c-8.811 0-15.979-7.169-15.979-15.979 0-8.812 7.169-15.98 15.979-15.98 8.812 0 15.979 7.169 15.979 15.98 0 8.81-7.17 15.98-15.98 15.98zm0-31.58c-8.604 0-15.604 7-15.604 15.604s7 15.604 15.604 15.604 15.604-7 15.604-15.604-6.99-15.6-15.6-15.6z" fill="#050B1C"/>
							<path d="m113.21 584.4c-7.287 0-13.216-5.929-13.216-13.216s5.929-13.217 13.216-13.217c7.288 0 13.217 5.93 13.217 13.217s-5.93 13.22-13.22 13.22zm0-26.06c-7.08 0-12.84 5.76-12.84 12.84s5.76 12.84 12.84 12.84c7.081 0 12.841-5.76 12.841-12.84s-5.76-12.84-12.84-12.84z" fill="#050B1C"/>
							<path d="m113.21 581.63c-5.764 0-10.452-4.688-10.452-10.452s4.688-10.453 10.452-10.453 10.452 4.689 10.452 10.453-4.68 10.45-10.45 10.45zm0-20.53c-5.556 0-10.076 4.52-10.076 10.076s4.521 10.076 10.076 10.076c5.557 0 10.077-4.52 10.077-10.076s-4.52-10.08-10.08-10.08z" fill="#050B1C"/>
							<path d="m113.21 578.87c-4.239 0-7.688-3.449-7.688-7.688 0-4.24 3.449-7.689 7.688-7.689s7.688 3.449 7.688 7.689c0 4.24-3.45 7.69-7.69 7.69zm0-15c-4.032 0-7.312 3.279-7.312 7.312 0 4.032 3.28 7.312 7.312 7.312s7.313-3.28 7.313-7.312c0-4.03-3.28-7.31-7.31-7.31z" fill="#050B1C"/>
							<circle cy="571.18" cx="113.21" r="4.737" fill="#050B1C"/>
							<path d="m113.21 586.53c-8.463 0-15.348-6.885-15.348-15.348s6.885-15.348 15.348-15.348 15.348 6.885 15.348 15.348-6.88 15.35-15.35 15.35zm0-30.32c-8.255 0-14.972 6.717-14.972 14.973 0 8.255 6.717 14.971 14.972 14.971 8.256 0 14.972-6.716 14.972-14.971 0-8.26-6.71-14.97-14.97-14.97z" fill="#213154"/>
							<path d="m113.21 583.87c-7 0-12.694-5.694-12.694-12.694s5.694-12.695 12.694-12.695 12.695 5.695 12.695 12.695-5.69 12.69-12.69 12.69zm0-25.01c-6.792 0-12.319 5.526-12.319 12.319s5.527 12.318 12.319 12.318c6.793 0 12.319-5.525 12.319-12.318s-5.53-12.32-12.32-12.32z" fill="#213154"/>
							<path d="m113.21 581.22c-5.537 0-10.042-4.504-10.042-10.041s4.505-10.042 10.042-10.042 10.042 4.505 10.042 10.042-4.5 10.04-10.04 10.04zm0-19.71c-5.33 0-9.666 4.336-9.666 9.666s4.336 9.666 9.666 9.666 9.666-4.336 9.666-9.666-4.34-9.67-9.67-9.67z" fill="#213154"/>
							<path d="m113.21 578.57c-4.074 0-7.389-3.314-7.389-7.389s3.314-7.389 7.389-7.389 7.389 3.314 7.389 7.389-3.31 7.39-7.39 7.39zm0-14.41c-3.866 0-7.013 3.146-7.013 7.014 0 3.866 3.146 7.012 7.013 7.012s7.013-3.146 7.013-7.012c0-3.86-3.14-7.01-7.01-7.01z" fill="#213154"/>
							<radialGradient id="SVGID_9_" gradientUnits="userSpaceOnUse" cy="609.51" cx="113.21" r="15.792">
								<stop stop-color="#222A42" offset="0"/>
								<stop stop-color="#221832" offset="1"/>
							</radialGradient>
							<circle cy="609.51" cx="113.21" r="15.792" fill="url(#SVGID_9_)"/>
							<path d="m113.21 625.49c-8.811 0-15.979-7.168-15.979-15.979s7.169-15.979 15.979-15.979c8.812 0 15.979 7.168 15.979 15.979s-7.17 15.98-15.98 15.98zm0-31.58c-8.604 0-15.604 7-15.604 15.604s7 15.604 15.604 15.604 15.604-7 15.604-15.604-6.99-15.6-15.6-15.6z" fill="#091335"/>
							<path d="m113.21 625.49c-8.811 0-15.979-7.168-15.979-15.979s7.169-15.979 15.979-15.979c8.812 0 15.979 7.168 15.979 15.979s-7.17 15.98-15.98 15.98zm0-31.58c-8.604 0-15.604 7-15.604 15.604s7 15.604 15.604 15.604 15.604-7 15.604-15.604-6.99-15.6-15.6-15.6z" fill="#050B1C"/>
							<path d="m113.21 622.73c-7.287 0-13.216-5.929-13.216-13.216 0-7.288 5.929-13.216 13.216-13.216 7.288 0 13.217 5.928 13.217 13.216 0 7.29-5.93 13.22-13.22 13.22zm0-26.06c-7.08 0-12.84 5.76-12.84 12.841 0 7.08 5.76 12.84 12.84 12.84 7.081 0 12.841-5.76 12.841-12.84s-5.76-12.84-12.84-12.84z" fill="#050B1C"/>
							<path d="m113.21 619.96c-5.764 0-10.452-4.688-10.452-10.452s4.688-10.452 10.452-10.452 10.452 4.688 10.452 10.452-4.68 10.45-10.45 10.45zm0-20.52c-5.556 0-10.076 4.521-10.076 10.077 0 5.557 4.521 10.077 10.076 10.077 5.557 0 10.077-4.521 10.077-10.077 0-5.56-4.52-10.08-10.08-10.08z" fill="#050B1C"/>
							<path d="m113.21 617.2c-4.239 0-7.688-3.449-7.688-7.688s3.449-7.688 7.688-7.688 7.688 3.449 7.688 7.688-3.45 7.69-7.69 7.69zm0-15c-4.032 0-7.312 3.281-7.312 7.313s3.28 7.313 7.312 7.313 7.313-3.281 7.313-7.313-3.28-7.31-7.31-7.31z" fill="#050B1C"/>
							<circle cy="609.51" cx="113.21" r="4.737" fill="#050B1C"/>
							<path d="m113.21 624.86c-8.463 0-15.348-6.886-15.348-15.348 0-8.463 6.885-15.349 15.348-15.349s15.348 6.886 15.348 15.349c0 8.46-6.88 15.35-15.35 15.35zm0-30.32c-8.255 0-14.972 6.716-14.972 14.972 0 8.255 6.717 14.972 14.972 14.972 8.256 0 14.972-6.717 14.972-14.972 0-8.25-6.71-14.97-14.97-14.97z" fill="#213154"/>
							<path d="m113.21 622.21c-7 0-12.694-5.694-12.694-12.694 0-7.001 5.694-12.695 12.694-12.695s12.695 5.694 12.695 12.695c0.01 6.99-5.69 12.69-12.69 12.69zm0-25.02c-6.792 0-12.319 5.526-12.319 12.319 0 6.792 5.527 12.318 12.319 12.318 6.793 0 12.319-5.526 12.319-12.318 0-6.79-5.53-12.32-12.32-12.32z" fill="#213154"/>
							<path d="m113.21 619.55c-5.537 0-10.042-4.505-10.042-10.042s4.505-10.042 10.042-10.042 10.042 4.505 10.042 10.042-4.5 10.04-10.04 10.04zm0-19.7c-5.33 0-9.666 4.336-9.666 9.666s4.336 9.666 9.666 9.666 9.666-4.336 9.666-9.666-4.34-9.67-9.67-9.67z" fill="#213154"/>
							<path d="m113.21 616.9c-4.074 0-7.389-3.314-7.389-7.389s3.314-7.389 7.389-7.389 7.389 3.314 7.389 7.389-3.31 7.39-7.39 7.39zm0-14.4c-3.866 0-7.013 3.146-7.013 7.013s3.146 7.013 7.013 7.013c3.867 0 7.013-3.146 7.013-7.013s-3.14-7.01-7.01-7.01z" fill="#213154"/>
			<polygon points="137.6 512.68 98.305 512.68 92.674 508.97 132.93 431.77 137.6 436.54" fill="#7F6A49"/>
					<rect y="432.26" x="93.238" height="76.137" width="39.29" fill="#D8BD8D"/>
					<path d="m133.09 508.97h-40.416v-77.27h40.419v77.27zm-39.288-1.13h38.163v-75.01h-38.158v75.01z" fill="#6D4E35"/>
							<radialGradient id="SVGID_10_" gradientUnits="userSpaceOnUse" cy="451.63" cx="113.21" r="15.791">
								<stop stop-color="#222A42" offset="0"/>
								<stop stop-color="#221832" offset="1"/>
							</radialGradient>
							<circle cy="451.63" cx="113.21" r="15.792" fill="url(#SVGID_10_)"/>
							<path d="m113.21 467.61c-8.811 0-15.979-7.169-15.979-15.979 0-8.812 7.169-15.98 15.979-15.98 8.812 0 15.979 7.169 15.979 15.98 0 8.81-7.17 15.98-15.98 15.98zm0-31.59c-8.604 0-15.604 7-15.604 15.604s7 15.604 15.604 15.604 15.604-7 15.604-15.604-6.99-15.6-15.6-15.6z" fill="#091335"/>
							<path d="m113.21 467.61c-8.811 0-15.979-7.169-15.979-15.979 0-8.812 7.169-15.98 15.979-15.98 8.812 0 15.979 7.169 15.979 15.98 0 8.81-7.17 15.98-15.98 15.98zm0-31.59c-8.604 0-15.604 7-15.604 15.604s7 15.604 15.604 15.604 15.604-7 15.604-15.604-6.99-15.6-15.6-15.6z" fill="#050B1C"/>
							<path d="m113.21 464.84c-7.287 0-13.216-5.929-13.216-13.216s5.929-13.217 13.216-13.217c7.288 0 13.217 5.93 13.217 13.217s-5.93 13.22-13.22 13.22zm0-26.05c-7.08 0-12.84 5.76-12.84 12.84s5.76 12.84 12.84 12.84c7.081 0 12.841-5.76 12.841-12.84s-5.76-12.84-12.84-12.84z" fill="#050B1C"/>
							<path d="m113.21 462.08c-5.764 0-10.452-4.688-10.452-10.452s4.688-10.453 10.452-10.453 10.452 4.689 10.452 10.453-4.68 10.45-10.45 10.45zm0-20.53c-5.556 0-10.076 4.52-10.076 10.076s4.521 10.076 10.076 10.076c5.557 0 10.077-4.52 10.077-10.076s-4.52-10.08-10.08-10.08z" fill="#050B1C"/>
							<path d="m113.21 459.32c-4.239 0-7.688-3.449-7.688-7.688 0-4.24 3.449-7.689 7.688-7.689s7.688 3.449 7.688 7.689c0 4.24-3.45 7.69-7.69 7.69zm0-15c-4.032 0-7.312 3.279-7.312 7.312 0 4.032 3.28 7.312 7.312 7.312s7.313-3.28 7.313-7.312c0-4.03-3.28-7.31-7.31-7.31z" fill="#050B1C"/>
							<circle cy="451.63" cx="113.21" r="4.737" fill="#050B1C"/>
							<path d="m113.21 466.98c-8.463 0-15.348-6.885-15.348-15.348s6.885-15.348 15.348-15.348 15.348 6.885 15.348 15.348-6.88 15.35-15.35 15.35zm0-30.32c-8.255 0-14.972 6.717-14.972 14.973 0 8.255 6.717 14.971 14.972 14.971 8.256 0 14.972-6.716 14.972-14.971 0-8.26-6.71-14.97-14.97-14.97z" fill="#213154"/>
							<path d="m113.21 464.32c-7 0-12.694-5.694-12.694-12.694s5.694-12.695 12.694-12.695 12.695 5.695 12.695 12.695-5.69 12.68-12.69 12.68zm0-25.01c-6.792 0-12.319 5.526-12.319 12.319s5.527 12.318 12.319 12.318c6.793 0 12.319-5.525 12.319-12.318s-5.53-12.32-12.32-12.32z" fill="#213154"/>
							<path d="m113.21 461.67c-5.537 0-10.042-4.504-10.042-10.041s4.505-10.042 10.042-10.042 10.042 4.505 10.042 10.042-4.5 10.04-10.04 10.04zm0-19.71c-5.33 0-9.666 4.336-9.666 9.666s4.336 9.666 9.666 9.666 9.666-4.336 9.666-9.666-4.34-9.67-9.67-9.67z" fill="#213154"/>
							<path d="m113.21 459.02c-4.074 0-7.389-3.314-7.389-7.389s3.314-7.389 7.389-7.389 7.389 3.314 7.389 7.389-3.31 7.39-7.39 7.39zm0-14.41c-3.866 0-7.013 3.146-7.013 7.014 0 3.866 3.146 7.012 7.013 7.012s7.013-3.146 7.013-7.012c0-3.86-3.14-7.01-7.01-7.01z" fill="#213154"/>
							<radialGradient id="SVGID_11_" gradientUnits="userSpaceOnUse" cy="489.96" cx="113.21" r="15.792">
								<stop stop-color="#222A42" offset="0"/>
								<stop stop-color="#221832" offset="1"/>
							</radialGradient>
							<circle cy="489.96" cx="113.21" r="15.792" fill="url(#SVGID_11_)"/>
							<path d="m113.21 505.94c-8.811 0-15.979-7.168-15.979-15.979s7.169-15.979 15.979-15.979c8.812 0 15.979 7.168 15.979 15.979s-7.17 15.98-15.98 15.98zm0-31.58c-8.604 0-15.604 7-15.604 15.604s7 15.604 15.604 15.604 15.604-7 15.604-15.604-6.99-15.6-15.6-15.6z" fill="#091335"/>
							<path d="m113.21 505.94c-8.811 0-15.979-7.168-15.979-15.979s7.169-15.979 15.979-15.979c8.812 0 15.979 7.168 15.979 15.979s-7.17 15.98-15.98 15.98zm0-31.58c-8.604 0-15.604 7-15.604 15.604s7 15.604 15.604 15.604 15.604-7 15.604-15.604-6.99-15.6-15.6-15.6z" fill="#050B1C"/>
							<path d="m113.21 503.18c-7.287 0-13.216-5.929-13.216-13.216 0-7.288 5.929-13.216 13.216-13.216 7.288 0 13.217 5.928 13.217 13.216 0 7.29-5.93 13.22-13.22 13.22zm0-26.06c-7.08 0-12.84 5.76-12.84 12.841 0 7.08 5.76 12.84 12.84 12.84 7.081 0 12.841-5.76 12.841-12.84s-5.76-12.84-12.84-12.84z" fill="#050B1C"/>
							<path d="m113.21 500.41c-5.764 0-10.452-4.688-10.452-10.452s4.688-10.452 10.452-10.452 10.452 4.688 10.452 10.452-4.68 10.45-10.45 10.45zm0-20.53c-5.556 0-10.076 4.521-10.076 10.077 0 5.557 4.521 10.077 10.076 10.077 5.557 0 10.077-4.521 10.077-10.077 0-5.56-4.52-10.08-10.08-10.08z" fill="#050B1C"/>
							<path d="m113.21 497.65c-4.239 0-7.688-3.449-7.688-7.688s3.449-7.688 7.688-7.688 7.688 3.449 7.688 7.688-3.45 7.69-7.69 7.69zm0-15c-4.032 0-7.312 3.281-7.312 7.313s3.28 7.313 7.312 7.313 7.313-3.281 7.313-7.313-3.28-7.31-7.31-7.31z" fill="#050B1C"/>
							<circle cy="489.96" cx="113.21" r="4.737" fill="#050B1C"/>
							<path d="m113.21 505.31c-8.463 0-15.348-6.886-15.348-15.348 0-8.463 6.885-15.349 15.348-15.349s15.348 6.886 15.348 15.349c0 8.46-6.88 15.35-15.35 15.35zm0-30.32c-8.255 0-14.972 6.716-14.972 14.972 0 8.255 6.717 14.972 14.972 14.972 8.256 0 14.972-6.717 14.972-14.972 0-8.26-6.71-14.97-14.97-14.97z" fill="#213154"/>
							<path d="m113.21 502.66c-7 0-12.694-5.694-12.694-12.694 0-7.001 5.694-12.695 12.694-12.695s12.695 5.694 12.695 12.695c0.01 6.98-5.69 12.68-12.69 12.68zm0-25.02c-6.792 0-12.319 5.526-12.319 12.319 0 6.792 5.527 12.318 12.319 12.318 6.793 0 12.319-5.526 12.319-12.318 0-6.79-5.53-12.32-12.32-12.32z" fill="#213154"/>
							<path d="m113.21 500c-5.537 0-10.042-4.505-10.042-10.042s4.505-10.042 10.042-10.042 10.042 4.505 10.042 10.042-4.5 10.04-10.04 10.04zm0-19.7c-5.33 0-9.666 4.336-9.666 9.666s4.336 9.666 9.666 9.666 9.666-4.336 9.666-9.666-4.34-9.67-9.67-9.67z" fill="#213154"/>
							<path d="m113.21 497.35c-4.074 0-7.389-3.314-7.389-7.389s3.314-7.389 7.389-7.389 7.389 3.314 7.389 7.389-3.31 7.39-7.39 7.39zm0-14.4c-3.866 0-7.013 3.146-7.013 7.013s3.146 7.013 7.013 7.013c3.867 0 7.013-3.146 7.013-7.013s-3.14-7.01-7.01-7.01z" fill="#213154"/>
		<path d="m398.66 505.8c0.645 0 0.645-1 0-1s-0.64 1 0 1z" fill="#071128"/>
</svg>
