<?xml version="1.0" encoding="UTF-8" standalone="no"?>
<!-- Generator: Adobe Illustrator 16.0.0, SVG Export Plug-In . SVG Version: 6.00 Build 0) -->
<!DOCTYPE svg PUBLIC '-//W3C//DTD SVG 1.1//EN' 'http://www.w3.org/Graphics/SVG/1.1/DTD/svg11.dtd'>
<svg id="Layer_1" xmlns="http://www.w3.org/2000/svg" xml:space="preserve" version="1.1" xmlns:xlink="http://www.w3.org/1999/xlink" x="0px" y="0px" width="354px" height="394.167px" viewBox="0 0 354 394.167" enable-background="new 0 0 354 394.167">
			<radialGradient id="SVGID_1_" gradientUnits="userSpaceOnUse" cy="326.39" cx="183.86" gradientTransform="matrix(1 0 0 -1 -8.3599 418.22)" r="155.76">
			<stop stop-color="#838082" offset="0"/>
			<stop stop-color="#686868" offset="1"/>
		</radialGradient>
		<rect height="155.33" width="286.26" stroke="#2D2D2D" stroke-miterlimit="10" y="14.166" x="32.369" fill="url(#SVGID_1_)"/>
			<path opacity=".2" enable-background="new " d="m26.37 161.2v-155.57c0-2.63 2.962-5.568 7.587-5.568 2.5 0 108.34-0.062 108.34-0.062l3.729 3.916-109.73 10.25v147.04h-9.93z" fill="#183049"/>
			<path opacity=".2" enable-background="new " d="m144.03 17.396s-91.048 1.347-94.723 6.68c-2.993 4.34-3.577 146.42-3.577 146.42h-11.148v-158.08h106.08l3.37 4.976z" fill="#183049"/>
				<polygon stroke="#82291D" points="146.03 8.166 36.303 8.166 36.304 170.1 44.037 170.1 44.037 16.898 144.03 16.898" stroke-miterlimit="10" fill="#A05547"/>
				<line y2="14.166" x2="40.998" stroke="#82291D" stroke-miterlimit="10" y1="16.898" x1="44.037" fill="none"/>
				<polygon opacity=".7" enable-background="new " points="40.998 170.1 44.033 17.166 145 14.166 37.332 14.166" fill="#82291D"/>
				<path stroke="#162842" stroke-miterlimit="10" d="m141.33 2.166h-107.33c-2.75 0-5 2.25-5 5l0.001 162.83h12v-155.83h100.33c2.75 0 5-2.25 5-5v-2c0-2.754-2.25-5.004-5-5.004z" fill="#3B527A"/>
						<linearGradient id="SVGID_2_" y2="332.14" gradientUnits="userSpaceOnUse" x2="154.69" gradientTransform="matrix(1 0 0 -1 -8.3599 418.22)" y1="332.14" x1="37.357">
						<stop stop-color="#294060" offset="0"/>
						<stop stop-color="#294060" stop-opacity="0" offset=".155"/>
						<stop stop-color="#294060" stop-opacity="0" offset=".835"/>
						<stop stop-color="#294060" offset="1"/>
					</linearGradient>
					<path d="m141.33 2.166h-107.33c-2.75 0-5 2.25-5 5l0.001 162.83h12v-155.83h100.33c2.75 0 5-2.25 5-5v-2c0-2.754-2.25-5.004-5-5.004z" fill="url(#SVGID_2_)"/>
					<g stroke="#162842" stroke-miterlimit="10" fill="none">
						<line x2="58.33" y1="14.166" x1="58.33" y2="2.166"/>
						<line x2="87.664" y1="14.166" x1="87.664" y2="2.166"/>
						<line x2="117" y1="14.166" x1="117" y2="2.166"/>
							<line x2="40.998" y1="170.06" x1="28.998" y2="170.06"/>
							<line x2="40.998" y1="144.07" x1="28.998" y2="144.07"/>
							<line x2="40.998" y1="118.09" x1="28.998" y2="118.09"/>
							<line x2="40.998" y1="92.11" x1="28.998" y2="92.11"/>
							<line x2="40.998" y1="66.129" x1="28.998" y2="66.129"/>
							<line x2="40.998" y1="40.147" x1="28.998" y2="40.147"/>
							<line x2="40.998" y1="14.166" x1="28.998" y2="14.166"/>
					</g>
							<linearGradient id="SVGID_3_" y2="261.39" gradientUnits="userSpaceOnUse" x2="44.768" gradientTransform="matrix(1 0 0 -1 -8.3599 418.22)" y1="261.14" x1="34.769">
							<stop stop-color="#fff" stop-opacity=".4" offset="0"/>
							<stop stop-color="#fff" stop-opacity="0" offset="1"/>
						</linearGradient>
						<rect y="145.75" x="30.332" height="22.25" width="8.5" fill="url(#SVGID_3_)"/>
							<linearGradient id="SVGID_4_" y2="287.33" gradientUnits="userSpaceOnUse" x2="44.769" gradientTransform="matrix(1 0 0 -1 -8.3599 418.22)" y1="287.08" x1="34.77">
							<stop stop-color="#fff" stop-opacity=".4" offset="0"/>
							<stop stop-color="#fff" stop-opacity="0" offset="1"/>
						</linearGradient>
						<rect y="119.81" x="30.332" height="22.251" width="8.5" fill="url(#SVGID_4_)"/>
							<linearGradient id="SVGID_5_" y2="313.28" gradientUnits="userSpaceOnUse" x2="44.769" gradientTransform="matrix(1 0 0 -1 -8.3599 418.22)" y1="313.03" x1="34.769">
							<stop stop-color="#fff" stop-opacity=".4" offset="0"/>
							<stop stop-color="#fff" stop-opacity="0" offset="1"/>
						</linearGradient>
						<rect y="93.863" x="30.332" height="22.25" width="8.5" fill="url(#SVGID_5_)"/>
							<linearGradient id="SVGID_6_" y2="339.22" gradientUnits="userSpaceOnUse" x2="44.769" gradientTransform="matrix(1 0 0 -1 -8.3599 418.22)" y1="338.97" x1="34.771">
							<stop stop-color="#fff" stop-opacity=".4" offset="0"/>
							<stop stop-color="#fff" stop-opacity="0" offset="1"/>
						</linearGradient>
						<rect y="67.919" x="30.332" height="22.251" width="8.5" fill="url(#SVGID_6_)"/>
							<linearGradient id="SVGID_7_" y2="365.17" gradientUnits="userSpaceOnUse" x2="44.769" gradientTransform="matrix(1 0 0 -1 -8.3599 418.22)" y1="364.92" x1="34.77">
							<stop stop-color="#fff" stop-opacity=".4" offset="0"/>
							<stop stop-color="#fff" stop-opacity="0" offset="1"/>
						</linearGradient>
						<rect y="41.976" x="30.332" height="22.251" width="8.5" fill="url(#SVGID_7_)"/>
							<linearGradient id="SVGID_8_" y2="391.11" gradientUnits="userSpaceOnUse" x2="44.769" gradientTransform="matrix(1 0 0 -1 -8.3599 418.22)" y1="390.86" x1="34.77">
							<stop stop-color="#fff" stop-opacity=".4" offset="0"/>
							<stop stop-color="#fff" stop-opacity="0" offset="1"/>
						</linearGradient>
						<rect y="16.032" x="30.332" height="22.25" width="8.5" fill="url(#SVGID_8_)"/>
							<linearGradient id="SVGID_9_" y2="-3881.6" gradientUnits="userSpaceOnUse" x2="-2002.7" gradientTransform="matrix(0 1 1 0 3954.3 2012.7)" y1="-3881.9" x1="-2012.8">
							<stop stop-color="#fff" stop-opacity=".4" offset="0"/>
							<stop stop-color="#fff" stop-opacity="0" offset="1"/>
						</linearGradient>
						<rect y="3.916" x="60.822" height="8.5" width="23.64" fill="url(#SVGID_9_)"/>
							<linearGradient id="SVGID_10_" y2="-3911" gradientUnits="userSpaceOnUse" x2="-2002.7" gradientTransform="matrix(0 1 1 0 3954.3 2012.7)" y1="-3911.3" x1="-2012.7">
							<stop stop-color="#fff" stop-opacity=".4" offset="0"/>
							<stop stop-color="#fff" stop-opacity="0" offset="1"/>
						</linearGradient>
						<path d="m56.008 12.416h-25.539l0.1-4.5c0-2.2 1.801-4 4-4h21.439v8.5z" fill="url(#SVGID_10_)"/>
							<linearGradient id="SVGID_11_" y2="-1589.5" gradientUnits="userSpaceOnUse" x2="-2002.7" gradientTransform="matrix(0 1 -1 0 -1457.5 2012.7)" y1="-1589.8" x1="-2012.7">
							<stop stop-color="#fff" stop-opacity=".4" offset="0"/>
							<stop stop-color="#fff" stop-opacity="0" offset="1"/>
						</linearGradient>
						<path d="m119.27 12.416h25.539l-0.1-4.5c0-2.2-1.8-4-4-4h-21.44v8.5z" fill="url(#SVGID_11_)"/>
							<linearGradient id="SVGID_12_" y2="-3851.9" gradientUnits="userSpaceOnUse" x2="-2002.7" gradientTransform="matrix(0 1 1 0 3954.3 2012.7)" y1="-3852.1" x1="-2012.8">
							<stop stop-color="#fff" stop-opacity=".4" offset="0"/>
							<stop stop-color="#fff" stop-opacity="0" offset="1"/>
						</linearGradient>
						<rect y="3.916" x="90.579" height="8.5" width="23.639" fill="url(#SVGID_12_)"/>
			<path opacity=".2" enable-background="new " d="m326.72 161.2v-155.57c0-2.63-2.962-5.568-7.587-5.568-2.5 0-108.34-0.062-108.34-0.062l-3.73 3.916 109.72 10.25v147.04h9.94z" fill="#183049"/>
			<path opacity=".2" enable-background="new " d="m209.06 17.396s91.048 1.347 94.724 6.68c2.989 4.34 3.573 146.42 3.573 146.42h11.148v-158.08h-106.08l-3.36 4.976z" fill="#183049"/>
				<polygon stroke="#82291D" points="207.06 8.166 316.78 8.166 316.78 170.1 309.05 170.1 309.05 16.898 209.06 16.898" stroke-miterlimit="10" fill="#A05547"/>
				<line y2="14.166" x2="312.09" stroke="#82291D" stroke-miterlimit="10" y1="16.898" x1="309.05" fill="none"/>
				<polygon opacity=".7" enable-background="new " points="312.09 170.1 309.05 17.166 208.08 14.166 315.76 14.166" fill="#82291D"/>
				<path stroke="#162842" stroke-miterlimit="10" d="m211.76 2.166h107.33c2.75 0 5 2.25 5 5l-0.001 162.83h-12v-155.83h-100.33c-2.75 0-5-2.25-5-5v-2c0-2.754 2.25-5.004 5-5.004z" fill="#3B527A"/>
						<linearGradient id="SVGID_13_" y2="332.14" gradientUnits="userSpaceOnUse" x2="2528.3" gradientTransform="matrix(-1 0 0 -1 2735 418.22)" y1="332.14" x1="2411">
						<stop stop-color="#294060" offset="0"/>
						<stop stop-color="#294060" stop-opacity="0" offset=".155"/>
						<stop stop-color="#294060" stop-opacity="0" offset=".835"/>
						<stop stop-color="#294060" offset="1"/>
					</linearGradient>
					<path d="m211.76 2.166h107.33c2.75 0 5 2.25 5 5l-0.001 162.83h-12v-155.83h-100.33c-2.75 0-5-2.25-5-5v-2c0-2.754 2.25-5.004 5-5.004z" fill="url(#SVGID_13_)"/>
					<g stroke="#162842" stroke-miterlimit="10" fill="none">
						<line x2="294.76" y1="14.166" x1="294.76" y2="2.166"/>
						<line x2="265.42" y1="14.166" x1="265.42" y2="2.166"/>
						<line x2="236.09" y1="14.166" x1="236.09" y2="2.166"/>
							<line x2="312.09" y1="170.06" x1="324.09" y2="170.06"/>
							<line x2="312.09" y1="144.07" x1="324.09" y2="144.07"/>
							<line x2="312.09" y1="118.09" x1="324.09" y2="118.09"/>
							<line x2="312.09" y1="92.11" x1="324.09" y2="92.11"/>
							<line x2="312.09" y1="66.129" x1="324.09" y2="66.129"/>
							<line x2="312.09" y1="40.147" x1="324.09" y2="40.147"/>
							<line x2="312.09" y1="14.166" x1="324.09" y2="14.166"/>
					</g>
							<linearGradient id="SVGID_14_" y2="261.39" gradientUnits="userSpaceOnUse" x2="2418.4" gradientTransform="matrix(-1 0 0 -1 2735 418.22)" y1="261.14" x1="2408.4">
							<stop stop-color="#fff" stop-opacity=".4" offset="0"/>
							<stop stop-color="#fff" stop-opacity="0" offset="1"/>
						</linearGradient>
						<rect y="145.75" x="314.26" height="22.25" width="8.5" fill="url(#SVGID_14_)"/>
							<linearGradient id="SVGID_15_" y2="287.33" gradientUnits="userSpaceOnUse" x2="2418.4" gradientTransform="matrix(-1 0 0 -1 2735 418.22)" y1="287.08" x1="2408.4">
							<stop stop-color="#fff" stop-opacity=".4" offset="0"/>
							<stop stop-color="#fff" stop-opacity="0" offset="1"/>
						</linearGradient>
						<rect y="119.81" x="314.26" height="22.251" width="8.5" fill="url(#SVGID_15_)"/>
							<linearGradient id="SVGID_16_" y2="313.28" gradientUnits="userSpaceOnUse" x2="2418.4" gradientTransform="matrix(-1 0 0 -1 2735 418.22)" y1="313.03" x1="2408.4">
							<stop stop-color="#fff" stop-opacity=".4" offset="0"/>
							<stop stop-color="#fff" stop-opacity="0" offset="1"/>
						</linearGradient>
						<rect y="93.863" x="314.26" height="22.25" width="8.5" fill="url(#SVGID_16_)"/>
							<linearGradient id="SVGID_17_" y2="339.22" gradientUnits="userSpaceOnUse" x2="2418.4" gradientTransform="matrix(-1 0 0 -1 2735 418.22)" y1="338.97" x1="2408.4">
							<stop stop-color="#fff" stop-opacity=".4" offset="0"/>
							<stop stop-color="#fff" stop-opacity="0" offset="1"/>
						</linearGradient>
						<rect y="67.919" x="314.26" height="22.251" width="8.5" fill="url(#SVGID_17_)"/>
							<linearGradient id="SVGID_18_" y2="365.16" gradientUnits="userSpaceOnUse" x2="2418.4" gradientTransform="matrix(-1 0 0 -1 2735 418.22)" y1="364.91" x1="2408.4">
							<stop stop-color="#fff" stop-opacity=".4" offset="0"/>
							<stop stop-color="#fff" stop-opacity="0" offset="1"/>
						</linearGradient>
						<rect y="41.976" x="314.26" height="22.251" width="8.5" fill="url(#SVGID_18_)"/>
							<linearGradient id="SVGID_19_" y2="391.11" gradientUnits="userSpaceOnUse" x2="2418.4" gradientTransform="matrix(-1 0 0 -1 2735 418.22)" y1="390.86" x1="2408.4">
							<stop stop-color="#fff" stop-opacity=".4" offset="0"/>
							<stop stop-color="#fff" stop-opacity="0" offset="1"/>
						</linearGradient>
						<rect y="16.032" x="314.26" height="22.25" width="8.5" fill="url(#SVGID_19_)"/>
							<linearGradient id="SVGID_20_" y2="-1508" gradientUnits="userSpaceOnUse" x2="-2002.7" gradientTransform="matrix(0 1 -1 0 -1227.6 2012.7)" y1="-1508.3" x1="-2012.8">
							<stop stop-color="#fff" stop-opacity=".4" offset="0"/>
							<stop stop-color="#fff" stop-opacity="0" offset="1"/>
						</linearGradient>
						<rect y="3.916" x="268.63" height="8.5" width="23.639" fill="url(#SVGID_20_)"/>
							<linearGradient id="SVGID_21_" y2="-1537.4" gradientUnits="userSpaceOnUse" x2="-2002.7" gradientTransform="matrix(0 1 -1 0 -1227.6 2012.7)" y1="-1537.7" x1="-2012.7">
							<stop stop-color="#fff" stop-opacity=".4" offset="0"/>
							<stop stop-color="#fff" stop-opacity="0" offset="1"/>
						</linearGradient>
						<path d="m297.08 12.416h25.538l-0.1-4.5c0-2.2-1.8-4-4-4h-21.438v8.5z" fill="url(#SVGID_21_)"/>
							<linearGradient id="SVGID_22_" y2="-3963.1" gradientUnits="userSpaceOnUse" x2="-2002.7" gradientTransform="matrix(0 1 1 0 4184.2 2012.7)" y1="-3963.4" x1="-2012.7">
							<stop stop-color="#fff" stop-opacity=".4" offset="0"/>
							<stop stop-color="#fff" stop-opacity="0" offset="1"/>
						</linearGradient>
						<path d="m233.82 12.416h-25.539l0.101-4.5c0-2.2 1.8-4 4-4h21.438v8.5z" fill="url(#SVGID_22_)"/>
							<linearGradient id="SVGID_23_" y2="-1478.3" gradientUnits="userSpaceOnUse" x2="-2002.7" gradientTransform="matrix(0 1 -1 0 -1227.6 2012.7)" y1="-1478.5" x1="-2012.8">
							<stop stop-color="#fff" stop-opacity=".4" offset="0"/>
							<stop stop-color="#fff" stop-opacity="0" offset="1"/>
						</linearGradient>
						<rect y="3.916" x="238.87" height="8.5" width="23.639" fill="url(#SVGID_23_)"/>
						<polygon stroke="#fff" points="89.036 37.675 88.902 44.071 87.232 49.836 81.349 49.262 75.293 48.692 75.662 42.615 76.225 36.105 82.707 36.92" stroke-miterlimit="10" fill="none"/>
						<polygon stroke="#fff" points="86.159 62.837 85.444 69.062 84.544 74.99 78.496 75.175 71.777 74.367 72.334 67.619 73.57 61.303 79.863 62.736" stroke-miterlimit="10" fill="none"/>
							<polygon stroke="#fff" points="82.383 100.15 81.225 106.65 81.061 113.41 74.356 112.79 68.102 111.6 68.299 105.23 69.357 98.81 75.748 100.26" stroke-miterlimit="10" fill="none"/>
							<polygon stroke="#fff" points="83.82 87.567 82.978 94.162 82.402 100.83 75.799 99.688 69.855 98.763 70.581 92.798 70.57 86.068 77.119 87.855" stroke-miterlimit="10" fill="none"/>
								<polygon stroke="#fff" points="91.431 75.742 90.458 82.3 89.384 88.168 83.485 87.364 77.592 86.835 78.415 80.975 78.72 74.867 84.857 74.777" stroke-miterlimit="10" fill="none"/>
								<polygon stroke="#fff" points="78.502 74.603 77.862 80.914 77.044 87.124 70.811 86.509 64.29 85.997 65.286 79.529 65.858 73.172 72.14 74.45" stroke-miterlimit="10" fill="none"/>
						<polygon stroke="#fff" points="94.055 50.793 92.975 57.205 92.092 63.023 86.197 62.84 79.531 62.437 81.103 55.898 80.982 49.166 87.614 49.907" stroke-miterlimit="10" fill="none"/>
						<polygon stroke="#fff" points="81.344 49.289 80.779 55.863 79.235 61.573 73.39 61.27 67.453 60.426 67.444 54.396 68.562 48.26 74.708 49.402" stroke-miterlimit="10" fill="none"/>
					<path d="m74.635 103.58c-0.144 1.365-0.218 2.736-0.362 4.101-0.067 0.641 0.934 0.634 1 0 0.145-1.365 0.22-2.736 0.362-4.101 0.067-0.64-0.933-0.64-1 0z" fill="#fff"/>
					<path d="m75.501 92.568c0.416-0.313 0.928-0.513 1.448-0.548 0.527-0.036 0.787 0.345 0.444 0.782-0.699 0.891-1.905 1.237-2.564 2.167-0.189 0.266 0.007 0.656 0.299 0.734 1.032 0.277 2.062 0.227 3.09-0.042 0.624-0.163 0.359-1.127-0.266-0.964-0.859 0.224-1.695 0.273-2.56 0.042 0.101 0.245 0.199 0.489 0.299 0.734 0.762-1.071 3.068-1.544 2.86-3.205-0.222-1.777-2.543-1.33-3.557-0.564-0.505 0.384-0.008 1.254 0.507 0.864z" fill="#fff"/>
					<path d="m71.087 79.045c0.124-0.065 1.52-0.126 1.476-0.032-0.194 0.42-1.129 0.667-1.52 0.83-0.375 0.156-0.533 0.678-0.12 0.914 0.367 0.209 0.782 0.31 1.159 0.495 0.728 0.357-0.785 0.485-1.031 0.496-0.642 0.029-0.646 1.03 0 1 0.792-0.036 2.274-0.119 2.27-1.243-0.003-1.092-1.149-1.188-1.894-1.612-0.04 0.305-0.08 0.609-0.12 0.914 0.766-0.318 2.625-0.903 2.188-2.073-0.395-1.054-2.091-0.983-2.913-0.552-0.571 0.298-0.065 1.162 0.505 0.863z" fill="#fff"/>
					<path d="m82.588 79.345c0.012 1.29-0.707 2.682 0.392 3.729 0.768 0.731 2.563 0.498 3.353-0.06 0.521-0.369 0.022-1.236-0.505-0.863-0.574 0.405-1.966 0.615-2.39-0.086-0.215-0.355-0.07-0.943-0.008-1.319 0.078-0.466 0.162-0.927 0.158-1.401-0.006-0.645-1.006-0.645-1 0z" fill="#fff"/>
					<path d="m83.857 81.423c0.066 0.786-0.082 1.541-0.25 2.305-0.14 0.628 0.824 0.895 0.964 0.266 0.188-0.845 0.36-1.701 0.287-2.57-0.054-0.639-1.055-0.644-1.001-0.001z" fill="#fff"/>
					<path d="m81.021 66.024c-0.888-0.265-2.671-1.374-3.351-0.246-0.582 0.966-0.478 2.644-0.432 3.728 0.016 0.356 0.422 0.652 0.753 0.432 0.427-0.284 1.499-0.93 1.544 0.009 0.036 0.74-0.603 0.949-1.186 0.666-0.578-0.281-1.085 0.582-0.505 0.863 1.305 0.634 2.646-0.008 2.69-1.529 0.054-1.876-1.988-1.578-3.05-0.873 0.251 0.144 0.501 0.288 0.752 0.432-0.037-0.898 0.005-1.827 0.157-2.713 0.113-0.649 0.252-0.521 0.859-0.338 0.508 0.153 0.99 0.382 1.499 0.533 0.624 0.184 0.887-0.781 0.27-0.964z" fill="#fff"/>
					<path d="m75.126 52.871c-1.019 0.922-4.216 3.515-2.337 4.982 0.651 0.51 2.466 0.95 2.524-0.323 0.05-1.088-1.606-2.014-2.529-1.93-0.638 0.058-0.644 1.059 0 1 0.395-0.036 0.726 0.123 1.034 0.362 0.137 0.105 0.267 0.238 0.37 0.374 0.271 0.354-0.055 0.049 0.201 0.026-0.774 0.067-1.342-0.38-0.997-1.105 0.516-1.079 1.571-1.893 2.439-2.679 0.481-0.433-0.228-1.139-0.705-0.707z" fill="#fff"/>
					<path d="m85.605 55.368c1.205 0.116 2.397 0.067 3.585-0.167-0.211-0.161-0.422-0.321-0.633-0.482-0.021 1.414-1.055 2.627-1.487 3.931-0.203 0.614 0.763 0.875 0.965 0.266 0.469-1.414 1.499-2.649 1.522-4.196 0.005-0.344-0.321-0.544-0.633-0.482-1.1 0.217-2.206 0.239-3.319 0.131-0.642-0.063-0.635 0.938 0 0.999z" fill="#fff"/>
					<path d="m83.184 40.358c-0.836-0.109-2.301-0.046-2.246 1.137 0.023 0.506 0.45 0.942 0.833 1.221 0.27 0.196 0.541 0.384 0.819 0.566 0.21 0.139 0.815 0.402 0.456 0.624-0.195 0.12-0.931 0.408-1.077 0.05-0.133-0.325 0.208-0.723 0.4-0.936 0.299-0.332 0.79-0.525 1.136-0.813 0.798-0.665 0.858-1.54-0.127-2.052-0.571-0.297-1.077 0.566-0.505 0.863 0.312 0.163 0.316 0.129 0.041 0.386-0.195 0.18-0.433 0.32-0.651 0.466-0.44 0.292-0.78 0.593-1.06 1.05-0.605 0.989-0.074 2.055 1.035 2.193 0.968 0.12 2.641-0.869 1.771-1.942-0.37-0.458-0.917-0.747-1.396-1.073-0.054-0.037-0.77-0.558-0.694-0.654 0.221-0.285 0.978-0.124 1.265-0.086 0.638 0.084 0.629-0.917 0-1z" fill="#fff"/>
					<path d="m103.53 137.02c-6.649 1.73-7.984-8.66-1.956-10.476 2.815-0.848 5.397 1.277 6.569 3.647 1.482 2.999 0.049 6.039-2.732 7.545-0.567 0.307-0.062 1.17 0.505 0.863 3.146-1.704 4.717-5.102 3.257-8.526-1.409-3.306-4.72-5.441-8.306-4.361-7.028 2.117-4.684 14.251 2.929 12.271 0.62-0.16 0.36-1.12-0.27-0.96z" fill="#DB86DB"/>
					<path d="m100.66 133.33c0.562-0.003 0.831-0.271 0.834-0.834 0.004-0.645-0.996-0.645-1 0-0.002 0.32 0.485-0.168 0.166-0.166-0.64 0.01-0.64 1.01 0 1z" fill="#DB86DB"/>
					<path d="m104.33 130.67c0.645 0 0.645-1 0-1-0.64 0-0.64 1 0 1z" fill="#DB86DB"/>
					<path d="m102.53 135.32c2.253 0.672 4.184-0.789 4.614-3.016 0.122-0.63-0.842-0.898-0.964-0.266-0.328 1.694-1.626 2.842-3.385 2.318-0.62-0.18-0.88 0.78-0.27 0.97z" fill="#DB86DB"/>
					<path d="m96.199 131.35c-0.732 0.129-1.544 0.032-2.238 0.325-0.844 0.357-1.189 1.201-1.444 2.024 0.245-0.1 0.489-0.199 0.734-0.299-0.667-0.333-1.333-0.667-2-1-0.575-0.288-1.082 0.575-0.505 0.863 0.667 0.333 1.333 0.667 2 1 0.294 0.147 0.634 0.023 0.733-0.299 0.212-0.683 0.434-1.294 1.183-1.458 0.583-0.128 1.209-0.088 1.802-0.192 0.635-0.11 0.366-1.07-0.265-0.96z" fill="#DB86DB"/>
					<path d="m96.499 127.5c0.017 0.138 0.044 0.292 0.02 0.431 0.011-0.066 0.238-0.038 0.045-0.098-0.338-0.104-0.651-0.427-0.905-0.658-0.604-0.55-1.182-1.201-1.562-1.928-0.299-0.572-1.162-0.066-0.863 0.505 0.563 1.078 1.513 2.081 2.512 2.766 0.978 0.67 1.897 0.187 1.755-1.019-0.077-0.62-1.078-0.63-1.002 0.01z" fill="#DB86DB"/>
					<path d="m102 125c0.645 0 0.645-1 0-1-0.65 0-0.65 1 0 1z" fill="#DB86DB"/>
					<path d="m102.15 126.37c-0.379-1.545-0.687-3.106-1-4.666-0.126-0.632-1.09-0.364-0.964 0.266 0.312 1.56 0.621 3.121 1 4.666 0.15 0.62 1.11 0.35 0.96-0.27z" fill="#DB86DB"/>
					<path d="m106.16 138.17c-0.024 3.783-0.271 7.553 0 11.333 0.018 0.246 0.215 0.534 0.5 0.5 5.167-0.616 11.023-4.448 14.099-8.581 0.161-0.216 0.039-0.562-0.179-0.684-4.432-2.487-9.459-3.907-14.453-4.717-0.63-0.103-0.901 0.861-0.266 0.964 4.906 0.797 9.859 2.173 14.213 4.617-0.061-0.228-0.12-0.456-0.18-0.684-2.824 3.797-8.482 7.519-13.234 8.085l0.5 0.5c-0.271-3.78-0.024-7.55 0-11.333 0.01-0.65-0.99-0.65-1 0z" fill="#DB86DB"/>
					<path d="m101.92 142.27c4.077-2.532 6.326-7.167 10.667-9.334 0.577-0.288 0.069-1.15-0.505-0.863-4.357 2.174-6.591 6.803-10.667 9.334-0.54 0.33-0.04 1.2 0.51 0.86z" fill="#DB86DB"/>
					<path d="m112.23 148.75c1.342 2.345 2.7 4.67 4.412 6.768 0.408 0.5 1.111-0.212 0.707-0.707-1.656-2.03-2.959-4.298-4.256-6.566-0.31-0.55-1.18-0.05-0.86 0.51z" fill="#DB86DB"/>
					<path d="m117.98 145.19c0.723 0.702 1.601 1.193 2.435 1.744 0.54 0.356 1.04-0.51 0.505-0.863-0.764-0.504-1.572-0.946-2.232-1.588-0.47-0.45-1.17 0.26-0.71 0.71z" fill="#DB86DB"/>
			<circle opacity=".2" enable-background="new " cy="63.492" cx="263.66" r="23.375" fill="#183049"/>
			<circle cx="263.4" cy="63.647" stroke="#D19A4A" r="21.666" stroke-miterlimit="10" fill="#F2E140"/>
				<path d="m244.8 63.377l1.326 3.424-0.351-0.164 17.129-2.511c0.178-0.025 0.344 0.098 0.368 0.275 0.026 0.178-0.096 0.343-0.272 0.369l-17.122 2.558-0.18 0.027-0.17-0.191-2.437-2.746c-0.373-0.42-0.334-1.062 0.086-1.435s1.062-0.334 1.435 0.086c0.08 0.093 0.14 0.2 0.18 0.308z" fill="#A58E2B"/>
				<path d="m263.68 44.802l-3.425 1.326 0.164-0.35 2.512 17.128c0.025 0.178-0.098 0.343-0.275 0.369s-0.343-0.096-0.368-0.273l-2.56-17.122-0.027-0.18 0.191-0.17 2.747-2.437c0.42-0.373 1.062-0.334 1.435 0.086s0.334 1.062-0.086 1.434c-0.1 0.083-0.21 0.147-0.31 0.189z" fill="#A58E2B"/>
				<path d="m262.63 84.308l-2.747-2.436-0.191-0.17 0.027-0.18 2.559-17.122c0.027-0.178 0.192-0.3 0.37-0.273 0.179 0.027 0.302 0.191 0.274 0.369l-2.512 17.128-0.164-0.35 3.425 1.326c0.522 0.202 0.783 0.791 0.581 1.314-0.203 0.522-0.791 0.783-1.314 0.58-0.12-0.043-0.23-0.109-0.32-0.186z" fill="#A58E2B"/>
				<path d="m283.92 64.418l-2.437 2.746-0.17 0.191-0.18-0.027-17.122-2.558c-0.178-0.026-0.3-0.192-0.272-0.37 0.026-0.178 0.19-0.301 0.368-0.274l17.128 2.511-0.35 0.164 1.326-3.424c0.202-0.523 0.791-0.783 1.313-0.58 0.523 0.202 0.783 0.791 0.58 1.313-0.04 0.116-0.11 0.22-0.19 0.308z" fill="#A58E2B"/>
					<line stroke-width="2" x1="263.4" x2="263.4" stroke="#A82A2A" stroke-linecap="round" stroke-miterlimit="10" y1="43.948" y2="83.448" fill="none"/>
					<line stroke-width="2" x1="283.15" x2="243.65" stroke="#A82A2A" stroke-linecap="round" stroke-miterlimit="10" y1="63.698" y2="63.698" fill="none"/>
					<circle stroke-linecap="round" cy="63.648" stroke="#000" cx="263.4" stroke-miterlimit="10" r="3.334" fill="#3A352E"/>
					<circle opacity=".6" enable-background="new " cy="63.531" cx="263.21" r=".917" fill="#fff"/>
			<polygon opacity=".2" enable-background="new " points="294.63 125.71 269.33 124.46 269.33 123.52 261.61 123.52 261.61 124.08 240 123.02 240 137.32 261.61 136.19 261.61 136.85 269.33 136.85 269.33 135.79 294.63 134.47" fill="#183049"/>
			<g stroke="#F2E140" stroke-width=".6" stroke-miterlimit="10" stroke-linecap="round" fill="#C1AE25">
					<rect y="124.64" width="5.375" height="10.959" x="262.66"/>
				<polygon points="265.16 126.05 263.66 124.96 267 124.96"/>
				<polygon points="265.16 134.27 263.66 135.35 267 135.35"/>
			</g>
			<g stroke-miterlimit="10">
					<linearGradient id="SVGID_24_" y2="288.06" gradientUnits="userSpaceOnUse" x2="301.94" gradientTransform="matrix(1 0 0 -1 -8.3599 418.22)" y1="288.06" x1="242.44">
					<stop stop-color="#C55A2A" offset="0"/>
					<stop stop-color="#BC3F19" offset="1"/>
				</linearGradient>
				<polygon stroke="#8E1E03" points="293.58 133.27 234.08 135.35 234.08 124.96 293.58 127.04" fill="url(#SVGID_24_)"/>
				<path opacity=".6" stroke="#8E1E03" enable-background="new " d="m243.29 126.22c0.804 0 1.456 1.588 1.456 3.547v0.734c0 1.959-0.652 3.548-1.456 3.548" fill="none"/>
				<path stroke="#F2E140" stroke-linecap="round" d="m243.29 126.22v0c1.606 0 2.911 1.588 2.911 3.547v0.734c0 1.959-1.305 3.548-2.911 3.548v0" fill="none"/>
				<path opacity=".6" stroke="#8E1E03" enable-background="new " d="m286.17 127.34c0.688 0 1.247 1.133 1.247 2.531v0.523c0 1.398-0.56 2.532-1.247 2.532" fill="none"/>
				<path stroke="#F2E140" stroke-width=".6" stroke-linecap="round" d="m286.17 127.34v0c1.378 0 2.494 1.133 2.494 2.531v0.523c0 1.398-1.116 2.532-2.494 2.532v0" fill="none"/>
				<polygon stroke="#8E1E03" points="236.08 135.25 234.08 135.35 234.08 124.96 236.08 125.07" fill="#E05D3F"/>
			</g>
		<circle opacity=".2" enable-background="new " cy="69.314" cx="146.33" r="3.522" fill="#183049"/>
			<radialGradient id="SVGID_25_" gradientUnits="userSpaceOnUse" cy="351.14" cx="153.46" gradientTransform="matrix(1 0 0 -1 -8.3599 418.22)" r="6.234">
			<stop stop-color="#DB0303" offset=".025"/>
			<stop stop-color="#770303" offset="1"/>
		</radialGradient>
		<circle cx="145.93" cy="67.748" stroke="#6B0000" r="3.522" stroke-miterlimit="10" fill="url(#SVGID_25_)"/>
		<polygon opacity=".2" enable-background="new " points="0 232.51 21.834 161.17 28.997 161.17 28.998 163.83 40.835 163.83 44.037 161.17 308.86 161.17 312.02 163.5 324.02 163.5 324.02 161.17 331.33 161.17 354 232.5 334 304.17 129.85 304.17 129.85 394.17 41.397 394.17 41.397 304.5 20.298 304.5" fill="#183049"/>
					<rect height="105.05" width="76.5" stroke="#0C2735" stroke-miterlimit="10" y="283.88" x="47.832" stroke-width="3" fill="#2F4A63"/>
					<rect height="80.535" width="53.551" stroke="#0C2735" stroke-miterlimit="10" y="296.63" x="59.307" stroke-width="2" fill="#3D5B72"/>
					<line stroke-width="2" x1="112.86" x2="124.33" stroke="#0C2735" stroke-miterlimit="10" y1="377.17" y2="388.92" fill="none"/>
					<line stroke-width="2" x1="47.832" x2="59.307" stroke="#0C2735" stroke-miterlimit="10" y1="388.92" y2="377.17" fill="none"/>
					<line stroke-width="2" x1="112.86" x2="124.33" stroke="#0C2735" stroke-miterlimit="10" y1="296.63" y2="283.88" fill="none"/>
					<line stroke-width="2" x1="59.307" x2="47.832" stroke="#0C2735" stroke-miterlimit="10" y1="296.63" y2="283.88" fill="none"/>
				<polygon opacity=".4" enable-background="new " points="125.83 282.38 46.332 282.38 46.332 312.5 59.307 308.17 112.86 308.17 125.83 311.53" fill="#14182B"/>
			<polygon stroke="#0C2735" stroke-width="3" stroke-miterlimit="10" points="326.83 297.5 26.332 297.5 16.332 232.5 26.332 167.5 326.83 167.5 336.83 232.5" fill="#2F4A63"/>
			<g stroke="#0C2735" stroke-miterlimit="10" fill="none">
				<line x2="326.8" y1="226.11" x1="335.87" y2="167.5"/>
				<line x2="312.49" y1="226.11" x1="320.7" y2="167.5"/>
				<line x2="298.18" y1="226.11" x1="305.53" y2="167.5"/>
				<line x2="283.88" y1="226.11" x1="290.36" y2="167.5"/>
				<line x2="269.57" y1="226.11" x1="275.19" y2="167.5"/>
				<line x2="255.27" y1="226.11" x1="260.02" y2="167.5"/>
				<line x2="240.96" y1="226.11" x1="244.85" y2="167.5"/>
				<line x2="226.65" y1="226.11" x1="229.68" y2="167.5"/>
				<line x2="212.35" y1="226.11" x1="214.51" y2="167.5"/>
				<line x2="198.04" y1="226.11" x1="199.34" y2="167.5"/>
				<line x2="183.74" y1="226.11" x1="184.17" y2="167.5"/>
				<line x2="169.43" y1="226.11" x1="169" y2="167.5"/>
				<line x2="155.12" y1="226.11" x1="153.83" y2="167.5"/>
				<line x2="140.82" y1="226.11" x1="138.66" y2="167.5"/>
				<line x2="126.51" y1="226.11" x1="123.49" y2="167.5"/>
				<line x2="112.21" y1="226.11" x1="108.32" y2="167.5"/>
				<line x2="97.9" y1="226.11" x1="93.147" y2="167.5"/>
				<line x2="83.594" y1="226.11" x1="77.978" y2="167.5"/>
				<line x2="69.288" y1="226.11" x1="62.808" y2="167.5"/>
				<line x2="54.982" y1="226.11" x1="47.638" y2="167.5"/>
				<line x2="40.676" y1="226.11" x1="32.468" y2="167.5"/>
				<line x2="26.37" y1="226.11" x1="17.298" y2="167.5"/>
			</g>
			<g stroke="#0C2735" stroke-miterlimit="10" fill="none">
				<line x2="326.8" y1="238.89" x1="335.87" y2="297.5"/>
				<line x2="312.49" y1="238.89" x1="320.7" y2="297.5"/>
				<line x2="298.18" y1="238.89" x1="305.53" y2="297.5"/>
				<line x2="283.88" y1="238.89" x1="290.36" y2="297.5"/>
				<line x2="269.57" y1="238.89" x1="275.19" y2="297.5"/>
				<line x2="255.27" y1="238.89" x1="260.02" y2="297.5"/>
				<line x2="240.96" y1="238.89" x1="244.85" y2="297.5"/>
				<line x2="226.65" y1="238.89" x1="229.68" y2="297.5"/>
				<line x2="212.35" y1="238.89" x1="214.51" y2="297.5"/>
				<line x2="198.04" y1="238.89" x1="199.34" y2="297.5"/>
				<line x2="183.74" y1="238.89" x1="184.17" y2="297.5"/>
				<line x2="169.43" y1="238.89" x1="169" y2="297.5"/>
				<line x2="155.12" y1="238.89" x1="153.83" y2="297.5"/>
				<line x2="140.82" y1="238.89" x1="138.66" y2="297.5"/>
				<line x2="126.51" y1="238.89" x1="123.49" y2="297.5"/>
				<line x2="112.21" y1="238.89" x1="108.32" y2="297.5"/>
				<line x2="97.9" y1="238.89" x1="93.147" y2="297.5"/>
				<line x2="83.594" y1="238.89" x1="77.978" y2="297.5"/>
				<line x2="69.288" y1="238.89" x1="62.808" y2="297.5"/>
				<line x2="54.982" y1="238.89" x1="47.638" y2="297.5"/>
				<line x2="40.676" y1="238.89" x1="32.468" y2="297.5"/>
				<line x2="26.37" y1="238.89" x1="17.298" y2="297.5"/>
			</g>
				<g opacity=".4" fill="#0F3044">
					<polygon points="16.886 224.47 15.826 232.51 16.886 240.56 136.08 240.56 134.98 232.51 136.08 224.47"/>
					<polygon points="336.28 224.47 217.09 224.47 218.18 232.51 217.09 240.56 336.28 240.56 337.34 232.51"/>
				</g>
				<g stroke="#0C2735" stroke-miterlimit="10" fill="#2F4A63">
					<polygon points="46.85 238.89 17.314 238.89 16.332 232.5 17.314 226.11 46.85 226.11 45.832 232.5"/>
					<polygon points="76.367 238.89 46.832 238.89 45.85 232.5 46.832 226.11 76.367 226.11 75.35 232.5"/>
					<polygon points="105.87 238.89 76.332 238.89 75.35 232.5 76.332 226.11 105.87 226.11 104.85 232.5"/>
					<polygon points="135.49 238.89 105.96 238.89 104.98 232.5 105.96 226.11 135.49 226.11 134.48 232.5"/>
				</g>
				<g stroke="#0C2735" stroke-miterlimit="10" fill="#2F4A63">
					<polygon points="306.31 238.89 335.85 238.89 336.83 232.5 335.85 226.11 306.31 226.11 307.33 232.5"/>
					<polygon points="276.8 238.89 306.33 238.89 307.31 232.5 306.33 226.11 276.8 226.11 277.81 232.5"/>
					<polygon points="247.3 238.89 276.83 238.89 277.81 232.5 276.83 226.11 247.3 226.11 248.31 232.5"/>
					<polygon points="217.67 238.89 247.21 238.89 248.19 232.5 247.21 226.11 217.67 226.11 218.69 232.5"/>
				</g>
				<polygon opacity=".4" enable-background="new " points="16.298 232.5 337.03 232.5 335.95 238.25 17.314 238.25" fill="#0F3044"/>
				<linearGradient id="SVGID_26_" y2="120.16" gradientUnits="userSpaceOnUse" x2="184.94" gradientTransform="matrix(1 0 0 -1 -8.3599 418.22)" y1="251.22" x1="184.94">
				<stop stop-color="#0F3044" offset="0"/>
				<stop stop-color="#0F3044" stop-opacity="0" offset=".3"/>
				<stop stop-color="#0F3044" stop-opacity="0" offset=".7"/>
				<stop stop-color="#0F3044" offset="1"/>
			</linearGradient>
			<polygon opacity=".4" enable-background="new " points="326.83 297.5 26.332 297.5 16.332 232.5 26.332 167.5 326.83 167.5 336.83 232.5" fill="url(#SVGID_26_)"/>
			<polygon stroke="#0C2735" stroke-width="3" stroke-miterlimit="10" points="326.83 297.5 26.332 297.5 16.332 232.5 26.332 167.5 326.83 167.5 336.83 232.5" fill="none"/>
				<polygon opacity=".26" enable-background="new " points="124.33 226.11 123 232.5 125 238.89 138.33 297.5 213.33 297.5 229.66 238.89 231.16 232.5 229.5 226.11 213.5 167.5 137.35 167.5" fill="#14182B"/>
						<rect height="98.901" width="98.899" stroke="#0C2735" stroke-miterlimit="10" y="183.05" x="127.46" stroke-width="3" fill="#2F4A63"/>
					<g stroke="#6979A8" stroke-miterlimit="10" fill="none">
						<rect y="183.54" width="97.911" height="97.911" x="127.96"/>
						<rect y="188.44" width="88.12" height="88.12" x="132.85"/>
						<rect y="193.34" width="78.327" height="78.329" x="137.75"/>
						<rect y="198.23" width="68.537" height="68.538" x="142.64"/>
						<rect y="203.13" width="58.747" height="58.746" x="147.54"/>
						<rect y="208.02" width="48.955" height="48.955" x="152.43"/>
						<rect y="212.92" width="39.165" height="39.164" x="157.33"/>
						<rect y="217.81" width="29.374" height="29.373" x="162.22"/>
					</g>
					<g stroke="#0C2735" stroke-miterlimit="10" fill="none">
						<rect y="183.05" width="98.899" height="98.901" x="127.46"/>
						<rect y="188" width="89.011" height="89.01" x="132.41"/>
						<rect y="192.94" width="79.119" height="79.12" x="137.35"/>
						<rect y="197.88" width="69.229" height="69.23" x="142.3"/>
						<rect y="202.83" width="59.34" height="59.34" x="147.24"/>
						<rect y="207.77" width="49.45" height="49.45" x="152.19"/>
						<rect y="212.72" width="39.561" height="39.561" x="157.13"/>
						<rect y="217.67" width="29.67" height="29.67" x="162.08"/>
					</g>
							<path d="m127.11 281.6s6.115-6.247 15.288-15.618c4.609-4.662 9.987-10.103 15.749-15.931 5.783-5.807 11.951-12.002 18.119-18.196 6.194-6.168 12.389-12.336 18.196-18.117 5.828-5.763 11.267-11.142 15.929-15.75 9.372-9.173 15.619-15.288 15.619-15.288l0.707 0.707s-6.115 6.247-15.288 15.618c-4.609 4.662-9.987 10.103-15.749 15.931-5.783 5.807-11.951 12.002-18.119 18.196-6.194 6.168-12.389 12.336-18.196 18.117-5.827 5.763-11.267 11.142-15.929 15.75-9.372 9.173-15.619 15.288-15.619 15.288l-0.71-0.71z" fill="#0C2735"/>
							<path d="m127.81 182.7s6.242 6.12 15.604 15.302c4.66 4.611 10.097 9.992 15.922 15.758 5.807 5.783 12 11.953 18.193 18.121 6.169 6.193 12.338 12.388 18.121 18.193 5.766 5.825 11.146 11.262 15.758 15.922 9.181 9.362 15.302 15.604 15.302 15.604l-0.707 0.706s-6.242-6.119-15.604-15.301c-4.659-4.611-10.097-9.992-15.922-15.758-5.807-5.783-12-11.953-18.192-18.121-6.169-6.193-12.338-12.388-18.122-18.193-5.766-5.825-11.146-11.262-15.757-15.922-9.182-9.362-15.303-15.604-15.303-15.604l0.71-0.71z" fill="#0C2735"/>
				<g opacity=".6">
						<linearGradient id="SVGID_27_" y2="185.72" gradientUnits="userSpaceOnUse" x2="232.76" gradientTransform="matrix(1 0 0 -1 -8.3599 418.22)" y1="185.72" x1="136.44">
						<stop stop-color="#0F3044" offset="0"/>
						<stop stop-color="#0F3044" stop-opacity="0" offset=".3"/>
						<stop stop-color="#0F3044" stop-opacity="0" offset=".7"/>
						<stop stop-color="#0F3044" offset="1"/>
					</linearGradient>
					<polygon opacity=".5" enable-background="new " points="127.8 183.4 127.8 281.6 176.91 232.5" fill="url(#SVGID_27_)"/>
						<linearGradient id="SVGID_28_" y2="185.72" gradientUnits="userSpaceOnUse" x2="232.75" gradientTransform="matrix(1 0 0 -1 -8.3599 418.22)" y1="185.72" x1="136.44">
						<stop stop-color="#0F3044" offset="0"/>
						<stop stop-color="#0F3044" stop-opacity="0" offset=".3"/>
						<stop stop-color="#0F3044" stop-opacity="0" offset=".7"/>
						<stop stop-color="#0F3044" offset="1"/>
					</linearGradient>
					<polygon points="226.02 183.4 226.02 281.6 176.91 232.5" fill="url(#SVGID_28_)"/>
						<linearGradient id="SVGID_29_" y2="-1844.8" gradientUnits="userSpaceOnUse" x2="4497.5" gradientTransform="matrix(0 -1 -1 0 -1667.9 4682.5)" y1="-1844.8" x1="4401.2">
						<stop stop-color="#14182B" offset="0"/>
						<stop stop-color="#14182B" stop-opacity="0" offset=".3"/>
						<stop stop-color="#14182B" stop-opacity="0" offset=".7"/>
						<stop stop-color="#14182B" offset="1"/>
					</linearGradient>
					<polygon points="127.8 281.6 226.02 281.6 176.91 232.5" fill="url(#SVGID_29_)"/>
					<polygon opacity=".5" enable-background="new " points="127.8 183.4 226.02 183.4 176.91 232.5" fill="url(#SVGID_29_)"/>
				</g>
					<rect height="23" width="23" stroke="#0C2735" stroke-miterlimit="10" y="221" x="165.41" stroke-width="2" fill="#2F4A63"/>
						<polygon opacity=".3" enable-background="new " points="188.41 244 165.41 244 176.91 232.5" fill="#14182B"/>
						<polygon opacity=".3" enable-background="new " points="188.41 221 165.41 221 176.91 232.5" fill="#51566B"/>
						<polygon opacity=".1" enable-background="new " points="165.41 221 165.41 244 176.91 232.5" fill="#51566B"/>
						<polygon opacity=".1" enable-background="new " points="188.41 221 188.41 244 176.91 232.5" fill="#14182B"/>
					<rect height="23" width="23" stroke="#0C2735" stroke-miterlimit="10" y="221" x="165.41" stroke-width="2" fill="none"/>
		<rect y="312.5" x="63.299" height="59.334" width="45.033" fill="#517084"/>
</svg>
