<?xml version="1.0" encoding="UTF-8" standalone="no"?>
<!-- Created with Inkscape (http://www.inkscape.org/) -->
<svg id="svg2" xmlns:rdf="http://www.w3.org/1999/02/22-rdf-syntax-ns#" xmlns="http://www.w3.org/2000/svg" xmlns:osb="http://www.openswatchbook.org/uri/2009/osb" viewBox="0 0 100 100" version="1.1" xmlns:cc="http://creativecommons.org/ns#" xmlns:xlink="http://www.w3.org/1999/xlink" xmlns:dc="http://purl.org/dc/elements/1.1/">
 <defs id="defs4">
  <linearGradient id="linearGradient3515" y2="70.097" gradientUnits="userSpaceOnUse" x2="40.698" y1="-3.5" x1="40.698">
   <stop id="stop8" stop-color="#FBED21" offset="0"/>
   <stop id="stop10" stop-color="#FAAF3B" offset="1"/>
  </linearGradient>
  <linearGradient id="linearGradient3517" y2="56.048" gradientUnits="userSpaceOnUse" x2="40.788" gradientTransform="matrix(1.1947 0 0 1.1947 1.8842 952.28)" y1="10.128" x1="40.788">
   <stop id="stop21" stop-color="#fff" stop-opacity=".4" offset=".0051"/>
   <stop id="stop23" stop-color="#fff" stop-opacity="0" offset="1"/>
  </linearGradient>
 </defs>
 <metadata id="metadata7">
  <rdf:RDF>
   <cc:Work rdf:about="">
    <dc:format>image/svg+xml</dc:format>
    <dc:type rdf:resource="http://purl.org/dc/dcmitype/StillImage"/>
    <dc:title/>
   </cc:Work>
  </rdf:RDF>
 </metadata>
 <g id="layer1" transform="translate(0 -952.36)">
  <g id="g3506" transform="matrix(1.0286 0 0 1.0076 -1.9522 -7.1315)">
   <g id="g5" transform="matrix(1.1947 0 0 1.1947 1.8842 952.28)">
    <path id="path12" fill="url(#linearGradient3515)" d="m78.896 70.496c0 5.5-4.5 10-10 10h-56.396c-5.5 0-10-4.5-10-10v-57.996c0-5.5 4.5-10 10-10h56.396c5.5 0 10 4.5 10 10v57.996z"/>
    <path id="path14" d="m78.896 70.496c0 5.5-4.5 10-10 10h-56.396c-5.5 0-10-4.5-10-10v-57.996c0-5.5 4.5-10 10-10h56.396c5.5 0 10 4.5 10 10v57.996z" stroke="#f6921e" stroke-miterlimit="10" stroke-width="5" fill="none"/>
   </g>
   <path id="path25" fill="url(#linearGradient3517)" d="m88.309 997.05c0 10.215-75.389 12.485-75.389 0v-28.669c0-3.2855 2.6882-5.9737 5.9737-5.9737h63.442c3.2855 0 5.9737 2.6882 5.9737 5.9737v28.669z"/>
  </g>
  <g id="text4019">
   <path id="path3013" style="" d="m26.14 1002.3c-2.9037 0-4.9154 0.3321-6.0352 0.9961-1.1198 0.6641-1.6797 1.7969-1.6797 3.3984-0.000006 1.2761 0.41666 2.2917 1.25 3.0469 0.84635 0.7422 1.9922 1.1133 3.4375 1.1133 1.9922 0 3.5872-0.7031 4.7852-2.1094 1.2109-1.4192 1.8164-3.3007 1.8164-5.6445v-0.8008h-3.5742m7.168-1.4844v12.48h-3.5938v-3.3203c-0.82033 1.3281-1.8425 2.3112-3.0664 2.9492-1.224 0.625-2.7214 0.9375-4.4922 0.9375-2.2396 0-4.0234-0.625-5.3516-1.875-1.3151-1.263-1.9727-2.9492-1.9727-5.0586-0.000002-2.4609 0.82031-4.3164 2.4609-5.5664 1.6536-1.25 4.1146-1.875 7.3828-1.875h5.0391v-0.35156c-0.000017-1.6536-0.54689-2.9297-1.6406-3.8281-1.0807-0.91144-2.6042-1.3672-4.5703-1.3672-1.25 0.00002-2.4675 0.14976-3.6523 0.44922-1.1849 0.2995-2.3242 0.74872-3.418 1.3477v-3.3203c1.3151-0.50779 2.5911-0.8854 3.8281-1.1328 1.237-0.26039 2.4414-0.3906 3.6133-0.39062 3.164 0.00002 5.5273 0.82033 7.0898 2.4609s2.3437 4.1276 2.3438 7.4609"/>
  </g>
  <g id="text4019-5">
   <path id="path3010" style="" d="m69.446 1002.2c-7.238 0.0001-12.253 0.8277-15.044 2.483-2.7913 1.6553-4.187 4.4791-4.187 8.4713-0.000015 3.1808 1.0386 5.7125 3.1159 7.595 2.1097 1.8501 4.9659 2.7751 8.5687 2.7751 4.9659 0 8.9419-1.7527 11.928-5.2581 3.0185-3.5378 4.5277-8.2278 4.5278-14.07v-1.9961h-8.9095m17.868-3.7001v31.11h-8.9582v-8.2766c-2.0448 3.3107-4.5927 5.7612-7.6437 7.3516-3.051 1.5579-6.7836 2.3369-11.198 2.3369-5.5827 0-10.029-1.5579-13.34-4.6738-3.2782-3.1484-4.9173-7.3516-4.9173-12.61-0.000006-6.1344 2.0448-10.76 6.1344-13.875 4.122-3.1159 10.256-4.6738 18.403-4.6738h12.561v-0.87634c-0.000043-4.122-1.3632-7.3028-4.0896-9.5424-2.694-2.272-6.4915-3.408-11.392-3.408-3.1159 0.00004-6.1507 0.3733-9.1042 1.1198-2.9536 0.74656-5.7936 1.8663-8.52 3.3593v-8.2766c3.2782-1.2658 6.459-2.207 9.5424-2.8238 3.0834-0.64909 6.0857-0.97366 9.0069-0.97371 7.8871 0.00005 13.778 2.0448 17.673 6.1344 3.8948 4.0896 5.8422 10.289 5.8423 18.598"/>
  </g>
 </g>
</svg>
