<?xml version="1.0" encoding="UTF-8" standalone="no"?>
<!-- Created with Inkscape (http://www.inkscape.org/) -->
<svg id="svg2" xmlns:rdf="http://www.w3.org/1999/02/22-rdf-syntax-ns#" xmlns="http://www.w3.org/2000/svg" xmlns:osb="http://www.openswatchbook.org/uri/2009/osb" viewBox="0 0 100 100" version="1.1" xmlns:cc="http://creativecommons.org/ns#" xmlns:xlink="http://www.w3.org/1999/xlink" xmlns:dc="http://purl.org/dc/elements/1.1/">
 <defs id="defs4">
  <linearGradient id="linearGradient3515-3" y2="70.097" gradientUnits="userSpaceOnUse" x2="40.698" y1="-3.5" x1="40.698">
   <stop id="stop8-5" stop-color="#FBED21" offset="0"/>
   <stop id="stop10-4" stop-color="#FAAF3B" offset="1"/>
  </linearGradient>
  <linearGradient id="linearGradient4514" y2="56.048" gradientUnits="userSpaceOnUse" y1="10.128" gradientTransform="matrix(1.1947 0 0 1.1947 1.8842 952.28)" x2="40.788" x1="40.788">
   <stop id="stop21-1" stop-color="#fff" stop-opacity=".4" offset=".0051"/>
   <stop id="stop23-2" stop-color="#fff" stop-opacity="0" offset="1"/>
  </linearGradient>
 </defs>
 <metadata id="metadata7">
  <rdf:RDF>
   <cc:Work rdf:about="">
    <dc:format>image/svg+xml</dc:format>
    <dc:type rdf:resource="http://purl.org/dc/dcmitype/StillImage"/>
    <dc:title/>
   </cc:Work>
  </rdf:RDF>
 </metadata>
 <g id="layer1" transform="translate(0 -952.36)">
  <g id="g3506" stroke="#000" transform="matrix(1.0286 0 0 1.0076 -1.9522 -7.1315)">
   <g id="g5" transform="matrix(1.1947 0 0 1.1947 1.8842 952.28)">
    <path id="path12" fill="url(#linearGradient3515-3)" d="m78.896 70.496c0 5.5-4.5 10-10 10h-56.396c-5.5 0-10-4.5-10-10v-57.996c0-5.5 4.5-10 10-10h56.396c5.5 0 10 4.5 10 10v57.996z"/>
    <path id="path14" d="m78.896 70.496c0 5.5-4.5 10-10 10h-56.396c-5.5 0-10-4.5-10-10v-57.996c0-5.5 4.5-10 10-10h56.396c5.5 0 10 4.5 10 10v57.996z" stroke="#f6921e" stroke-miterlimit="10" stroke-width="5" fill="none"/>
   </g>
   <path id="path25-1" fill="url(#linearGradient4514)" d="m88.309 997.05c0 10.215-75.389 12.485-75.389 0v-28.669c0-3.2855 2.6882-5.9737 5.9737-5.9737h63.442c3.2855 0 5.9737 2.6882 5.9737 5.9737v28.669z"/>
  </g>
  <g id="g4101" transform="matrix(1.1486 0 0 1.1486 88.616 -51.349)">
   <rect id="rect3900-1" rx="4" ry="2.6785" height="55.875" width="8" y="889.68" x="-17.914"/>
   <rect id="rect3900-1-3" ry="4.2898" rx="4" transform="rotate(-90)" height="34.451" width="8" y="-44.365" x="-945.56"/>
   <rect id="rect3900-1-3-0" ry="3.6302" rx="4" transform="rotate(-90)" height="34.451" width="8" y="-44.365" x="-897.19"/>
   <g id="g4036" transform="translate(38.829 -75.228)">
    <rect id="rect3900-1-3-5" transform="rotate(-90)" rx="4" ry="4.7016" height="34.451" width="8" y="-99.119" x="-996.84"/>
    <rect id="rect3900-1-3-5-5" transform="rotate(225)" rx="3.2416" ry="3.4495" height="14.272" width="6.4832" y="-775.09" x="-633.79"/>
    <rect id="rect3900-1-3-5-5-6" transform="rotate(-45)" rx="3.2416" ry="3.4495" height="14.272" width="6.4832" y="628.66" x="-776.45"/>
   </g>
   <rect id="rect3900-1-3-2-0-1" rx="4" ry="4.556" height="17.914" width="8" y="927.64" x="-44.365"/>
   <rect id="rect3900-1-3-2-0-1-6" rx="4" ry="4.556" height="17.914" width="8" y="889.19" x="-44.365"/>
  </g>
 </g>
</svg>
