<?xml version="1.0" encoding="UTF-8" standalone="no"?>
<!-- Created with Inkscape (http://www.inkscape.org/) -->
<svg id="svg2" xmlns:rdf="http://www.w3.org/1999/02/22-rdf-syntax-ns#" xmlns="http://www.w3.org/2000/svg" xmlns:osb="http://www.openswatchbook.org/uri/2009/osb" viewBox="0 0 100 100" version="1.1" xmlns:cc="http://creativecommons.org/ns#" xmlns:xlink="http://www.w3.org/1999/xlink" xmlns:dc="http://purl.org/dc/elements/1.1/">
 <defs id="defs4">
  <linearGradient id="linearGradient3515-3" y2="70.097" gradientUnits="userSpaceOnUse" x2="40.698" y1="-3.5" x1="40.698">
   <stop id="stop8-5" stop-color="#FBED21" offset="0"/>
   <stop id="stop10-4" stop-color="#FAAF3B" offset="1"/>
  </linearGradient>
  <linearGradient id="linearGradient4514" y2="56.048" gradientUnits="userSpaceOnUse" y1="10.128" gradientTransform="matrix(1.1947 0 0 1.1947 1.8842 952.28)" x2="40.788" x1="40.788">
   <stop id="stop21-1" stop-color="#fff" stop-opacity=".4" offset=".0051"/>
   <stop id="stop23-2" stop-color="#fff" stop-opacity="0" offset="1"/>
  </linearGradient>
 </defs>
 <metadata id="metadata7">
  <rdf:RDF>
   <cc:Work rdf:about="">
    <dc:format>image/svg+xml</dc:format>
    <dc:type rdf:resource="http://purl.org/dc/dcmitype/StillImage"/>
    <dc:title/>
   </cc:Work>
  </rdf:RDF>
 </metadata>
 <g id="layer1" transform="translate(0 -952.36)">
  <g id="g3506" stroke="#000" transform="matrix(1.0286 0 0 1.0076 -1.9522 -7.1315)">
   <g id="g5" transform="matrix(1.1947 0 0 1.1947 1.8842 952.28)">
    <path id="path12" fill="url(#linearGradient3515-3)" d="m78.896 70.496c0 5.5-4.5 10-10 10h-56.396c-5.5 0-10-4.5-10-10v-57.996c0-5.5 4.5-10 10-10h56.396c5.5 0 10 4.5 10 10v57.996z"/>
    <path id="path14" d="m78.896 70.496c0 5.5-4.5 10-10 10h-56.396c-5.5 0-10-4.5-10-10v-57.996c0-5.5 4.5-10 10-10h56.396c5.5 0 10 4.5 10 10v57.996z" stroke="#f6921e" stroke-miterlimit="10" stroke-width="5" fill="none"/>
   </g>
   <path id="path25-1" fill="url(#linearGradient4514)" d="m88.309 997.05c0 10.215-75.389 12.485-75.389 0v-28.669c0-3.2855 2.6882-5.9737 5.9737-5.9737h63.442c3.2855 0 5.9737 2.6882 5.9737 5.9737v28.669z"/>
  </g>
  <g id="g3784" transform="matrix(.43138 0 0 .43138 54.807 537.8)">
   <g id="g3836">
    <g id="g3197" stroke="#000">
     <path id="path3012-3-5" stroke-width="1px" d="m-90.422 1125.9c-3.2733-20.464 3.1319-55.111 21.004-67.471 12.574 9.5285 26.357 11.97 41.12-0.7143 25.337 18.073 24.178 68.543 22.223 67.175-9.8702 16.175-27.316 20.265-42.428 19.639-12.866-0.5329-27.148-0.732-41.92-18.628z"/>
     <path id="path3782-7-9" stroke-linejoin="round" d="m-139.64-24.286c0 11.243-9.1142 20.357-20.357 20.357s-20.357-9.1142-20.357-20.357 9.1142-20.357 20.357-20.357 20.357 9.1142 20.357 20.357z" transform="matrix(1.2568 0 0 1.2568 152.92 1065.5)"/>
     <path id="path3782-8" stroke-linejoin="round" d="m-139.64-24.286c0 11.243-9.1142 20.357-20.357 20.357s-20.357-9.1142-20.357-20.357 9.1142-20.357 20.357-20.357 20.357 9.1142 20.357 20.357z" transform="matrix(1.2568 0 0 1.2568 227.04 1065.5)"/>
     <path id="path3012-4-2" stroke-width="1px" d="m-16.305 1125.9c-3.2733-20.464 3.1319-55.111 21.004-67.471 12.574 9.5286 26.357 11.97 41.12-0.7143 25.337 18.073 24.178 68.543 22.223 67.175-9.8702 16.175-27.316 20.265-42.428 19.639-12.866-0.533-27.148-0.7321-41.92-18.628z"/>
    </g>
   </g>
  </g>
 </g>
</svg>
