<?xml version="1.0" encoding="UTF-8" standalone="no"?>
<!-- Created with Inkscape (http://www.inkscape.org/) -->
<svg id="svg2" xmlns:rdf="http://www.w3.org/1999/02/22-rdf-syntax-ns#" xmlns="http://www.w3.org/2000/svg" xmlns:osb="http://www.openswatchbook.org/uri/2009/osb" viewBox="0 0 100 100" version="1.1" xmlns:cc="http://creativecommons.org/ns#" xmlns:xlink="http://www.w3.org/1999/xlink" xmlns:dc="http://purl.org/dc/elements/1.1/">
 <defs id="defs4">
  <linearGradient id="linearGradient3515-3" y2="70.097" gradientUnits="userSpaceOnUse" x2="40.698" y1="-3.5" x1="40.698">
   <stop id="stop8-5" stop-color="#FBED21" offset="0"/>
   <stop id="stop10-4" stop-color="#FAAF3B" offset="1"/>
  </linearGradient>
  <linearGradient id="linearGradient4514" y2="56.048" gradientUnits="userSpaceOnUse" y1="10.128" gradientTransform="matrix(1.1947 0 0 1.1947 1.8842 952.28)" x2="40.788" x1="40.788">
   <stop id="stop21-1" stop-color="#fff" stop-opacity=".4" offset=".0051"/>
   <stop id="stop23-2" stop-color="#fff" stop-opacity="0" offset="1"/>
  </linearGradient>
 </defs>
 <metadata id="metadata7">
  <rdf:RDF>
   <cc:Work rdf:about="">
    <dc:format>image/svg+xml</dc:format>
    <dc:type rdf:resource="http://purl.org/dc/dcmitype/StillImage"/>
    <dc:title/>
   </cc:Work>
  </rdf:RDF>
 </metadata>
 <g id="layer1" stroke="#000" transform="translate(0 -952.36)">
  <g id="g3506" transform="matrix(1.0286 0 0 1.0076 -1.9522 -7.1315)">
   <g id="g5" transform="matrix(1.1947 0 0 1.1947 1.8842 952.28)">
    <path id="path12" fill="url(#linearGradient3515-3)" d="m78.896 70.496c0 5.5-4.5 10-10 10h-56.396c-5.5 0-10-4.5-10-10v-57.996c0-5.5 4.5-10 10-10h56.396c5.5 0 10 4.5 10 10v57.996z"/>
    <path id="path14" d="m78.896 70.496c0 5.5-4.5 10-10 10h-56.396c-5.5 0-10-4.5-10-10v-57.996c0-5.5 4.5-10 10-10h56.396c5.5 0 10 4.5 10 10v57.996z" stroke="#f6921e" stroke-miterlimit="10" stroke-width="5" fill="none"/>
   </g>
   <path id="path25-1" fill="url(#linearGradient4514)" d="m88.309 997.05c0 10.215-75.389 12.485-75.389 0v-28.669c0-3.2855 2.6882-5.9737 5.9737-5.9737h63.442c3.2855 0 5.9737 2.6882 5.9737 5.9737v28.669z"/>
  </g>
  <g id="text4063" stroke-width="2">
   <path id="path3009" style="" d="m27.093 980.18v15.682h7.1002c2.6276 0.00002 4.6589-0.68018 6.0939-2.0406 1.4349-1.3604 2.1524-3.2985 2.1524-5.8143-0.000026-2.4972-0.7175-4.426-2.1524-5.7864-1.435-1.3604-3.4663-2.0406-6.0939-2.0406h-7.1002m-5.6466-4.6403h12.747c4.6775 0.00005 8.209 1.0623 10.594 3.1867 2.404 2.1059 3.606 5.1994 3.606 9.2806-0.000033 4.1185-1.202 7.2307-3.606 9.3365-2.3854 2.1059-5.9169 3.1588-10.594 3.1587h-7.1002v16.772h-5.6466v-41.735"/>
   <path id="path3011" style="" d="m68.8 1020.2c-1.4536 3.7271-2.8699 6.1591-4.2489 7.2958-1.3791 1.1368-3.224 1.7052-5.5348 1.7052h-4.1092v-4.3048h3.019c1.4163 0 2.5158-0.3355 3.2985-1.0064 0.78269-0.6709 1.6492-2.2549 2.5997-4.7521l0.92247-2.3481-12.663-30.805h5.4509l9.7838 24.487 9.7838-24.487h5.4509l-13.753 34.215"/>
  </g>
 </g>
</svg>
