<?xml version="1.0" encoding="UTF-8" standalone="no"?>
<!-- Created with Inkscape (http://www.inkscape.org/) -->

<svg
   xmlns:osb="http://www.openswatchbook.org/uri/2009/osb"
   xmlns:dc="http://purl.org/dc/elements/1.1/"
   xmlns:cc="http://creativecommons.org/ns#"
   xmlns:rdf="http://www.w3.org/1999/02/22-rdf-syntax-ns#"
   xmlns:svg="http://www.w3.org/2000/svg"
   xmlns="http://www.w3.org/2000/svg"
   xmlns:xlink="http://www.w3.org/1999/xlink"
   xmlns:sodipodi="http://sodipodi.sourceforge.net/DTD/sodipodi-0.dtd"
   xmlns:inkscape="http://www.inkscape.org/namespaces/inkscape"
   width="100"
   height="100"
   id="svg2"
   version="1.1"
   inkscape:version="0.48.4 r9939"
   sodipodi:docname="toggle_console.svg">
  <defs
     id="defs4">
    <linearGradient
       id="linearGradient3815"
       osb:paint="gradient">
      <stop
         style="stop-color:#ffffff;stop-opacity:1;"
         offset="0"
         id="stop3817" />
      <stop
         style="stop-color:#ffffff;stop-opacity:0;"
         offset="1"
         id="stop3819" />
    </linearGradient>
    <linearGradient
       id="linearGradient3797">
      <stop
         style="stop-color:#ffffff;stop-opacity:0;"
         offset="0"
         id="stop3799" />
      <stop
         id="stop3805"
         offset="0"
         style="stop-color:#787878;stop-opacity:0.09803922;" />
      <stop
         style="stop-color:#000000;stop-opacity:1;"
         offset="1"
         id="stop3801" />
    </linearGradient>
    <linearGradient
       inkscape:collect="always"
       xlink:href="#SVGID_1_-5"
       id="linearGradient3515-3"
       gradientUnits="userSpaceOnUse"
       x1="40.6978"
       y1="-3.5"
       x2="40.6978"
       y2="70.096802" />
    <linearGradient
       id="SVGID_1_-5"
       gradientUnits="userSpaceOnUse"
       x1="40.6978"
       y1="-3.5"
       x2="40.6978"
       y2="70.096802">
      <stop
         offset="0"
         style="stop-color:#FBED21"
         id="stop8-5" />
      <stop
         offset="1"
         style="stop-color:#FAAF3B"
         id="stop10-4" />
    </linearGradient>
    <linearGradient
       y2="56.0485"
       x2="40.787601"
       y1="10.1279"
       x1="40.787601"
       gradientTransform="matrix(1.1947376,0,0,1.1947376,1.8841994,952.27533)"
       gradientUnits="userSpaceOnUse"
       id="linearGradient4447"
       xlink:href="#SVGID_2_-0"
       inkscape:collect="always" />
    <linearGradient
       id="SVGID_2_-0"
       gradientUnits="userSpaceOnUse"
       x1="40.787601"
       y1="10.1279"
       x2="40.787601"
       y2="56.0485"
       gradientTransform="matrix(1.1947376,0,0,1.1947376,1.8841994,952.27533)">
      <stop
         offset="0.0051"
         style="stop-color:#FFFFFF;stop-opacity:0.4"
         id="stop21-1" />
      <stop
         offset="1"
         style="stop-color:#FFFFFF;stop-opacity:0"
         id="stop23-2" />
    </linearGradient>
    <linearGradient
       y2="56.0485"
       x2="40.787601"
       y1="10.1279"
       x1="40.787601"
       gradientTransform="matrix(1.1947376,0,0,1.1947376,1.8841994,952.27533)"
       gradientUnits="userSpaceOnUse"
       id="linearGradient4514"
       xlink:href="#SVGID_2_-0"
       inkscape:collect="always" />
  </defs>
  <sodipodi:namedview
     id="base"
     pagecolor="#ffffff"
     bordercolor="#666666"
     borderopacity="1.0"
     inkscape:pageopacity="0.0"
     inkscape:pageshadow="2"
     inkscape:zoom="0.98994949"
     inkscape:cx="-235.85341"
     inkscape:cy="41.638838"
     inkscape:document-units="px"
     inkscape:current-layer="layer1"
     showgrid="false"
     inkscape:window-width="1375"
     inkscape:window-height="876"
     inkscape:window-x="65"
     inkscape:window-y="204"
     inkscape:window-maximized="1" />
  <metadata
     id="metadata7">
    <rdf:RDF>
      <cc:Work
         rdf:about="">
        <dc:format>image/svg+xml</dc:format>
        <dc:type
           rdf:resource="http://purl.org/dc/dcmitype/StillImage" />
        <dc:title />
      </cc:Work>
    </rdf:RDF>
  </metadata>
  <g
     inkscape:label="Layer 1"
     inkscape:groupmode="layer"
     id="layer1"
     transform="translate(0,-952.36218)">
    <g
       style="fill:#000000;fill-opacity:1;stroke:#000000;stroke-opacity:1"
       id="g3506"
       transform="matrix(1.0286014,0,0,1.007625,-1.9522192,-7.1315119)">
      <g
         transform="matrix(1.1947376,0,0,1.1947376,1.8841994,952.27533)"
         id="g5">
        <linearGradient
           y2="70.096802"
           x2="40.6978"
           y1="-3.5"
           x1="40.6978"
           gradientUnits="userSpaceOnUse"
           id="linearGradient3466">
          <stop
             id="stop3468"
             style="stop-color:#FBED21"
             offset="0" />
          <stop
             id="stop3470"
             style="stop-color:#FAAF3B"
             offset="1" />
        </linearGradient>
        <path
           id="path12"
           d="m 78.896,70.496 c 0,5.5 -4.5,10 -10,10 H 12.5 c -5.5,0 -10,-4.5 -10,-10 V 12.5 C 2.5,7 7,2.5 12.5,2.5 h 56.396 c 5.5,0 10,4.5 10,10 v 57.996 z"
           inkscape:connector-curvature="0"
           style="fill:url(#linearGradient3515-3)" />
        <path
           id="path14"
           d="m 78.896,70.496 c 0,5.5 -4.5,10 -10,10 H 12.5 c -5.5,0 -10,-4.5 -10,-10 V 12.5 C 2.5,7 7,2.5 12.5,2.5 h 56.396 c 5.5,0 10,4.5 10,10 v 57.996 z"
           stroke-miterlimit="10"
           inkscape:connector-curvature="0"
           style="fill:none;stroke:#f6921e;stroke-width:5;stroke-miterlimit:10" />
      </g>
      <path
         id="path25-1"
         d="m 88.309127,997.05291 c 0,10.21509 -75.389136,12.48509 -75.389136,0 0,-12.48501 0,-28.66893 0,-28.66893 0,-3.28553 2.688159,-5.97369 5.973688,-5.97369 h 63.44176 c 3.285529,0 5.973688,2.68816 5.973688,5.97369 0,0 0,18.45512 0,28.66893 z"
         inkscape:connector-curvature="0"
         style="fill:url(#linearGradient4514);stroke:none" />
    </g>
    <g
       style="font-size:57.24892044px;font-style:normal;font-weight:normal;line-height:125%;letter-spacing:0px;word-spacing:0px;fill:#000000;fill-opacity:1;stroke:#000000;stroke-width:2;stroke-miterlimit:4;stroke-opacity:1;font-family:Sans"
       id="text4063">
      <path
         d="m 27.093366,980.181 0,15.68195 7.100208,0 c 2.627615,2e-5 4.658906,-0.68018 6.093879,-2.04061 1.434924,-1.36038 2.152399,-3.29849 2.152425,-5.81434 -2.6e-5,-2.49716 -0.717501,-4.42595 -2.152425,-5.78639 -1.434973,-1.36037 -3.466264,-2.04058 -6.093879,-2.04061 l -7.100208,0 m -5.646622,-4.6403 12.74683,0 c 4.677542,5e-5 8.209006,1.06228 10.594405,3.18671 2.403976,2.10587 3.605978,5.1994 3.606011,9.28059 -3.3e-5,4.11852 -1.202035,7.23068 -3.606011,9.33649 -2.385399,2.10586 -5.916863,3.15881 -10.594405,3.15871 l -7.100208,0 0,16.7722 -5.646622,0 0,-41.7347"
         style=""
         id="path3009" />
      <path
         d="m 68.800098,1020.1826 c -1.453603,3.7271 -2.869916,6.1591 -4.248943,7.2958 -1.379056,1.1368 -3.22399,1.7052 -5.534808,1.7052 l -4.109175,0 0,-4.3048 3.018986,0 c 1.416305,0 2.515811,-0.3355 3.298522,-1.0064 0.782688,-0.6709 1.649248,-2.2549 2.599682,-4.7521 l 0.922468,-2.3481 -12.662969,-30.80481 5.450947,0 9.783751,24.48731 9.783751,-24.48731 5.450947,0 -13.753159,34.21521"
         style=""
         id="path3011" />
    </g>
  </g>
</svg>
