<?xml version="1.0" encoding="UTF-8" standalone="no"?>
<!-- Created with Inkscape (http://www.inkscape.org/) -->
<svg id="svg2" xmlns:rdf="http://www.w3.org/1999/02/22-rdf-syntax-ns#" xmlns="http://www.w3.org/2000/svg" xmlns:osb="http://www.openswatchbook.org/uri/2009/osb" viewBox="0 0 100 100" version="1.1" xmlns:cc="http://creativecommons.org/ns#" xmlns:xlink="http://www.w3.org/1999/xlink" xmlns:dc="http://purl.org/dc/elements/1.1/">
 <defs id="defs4">
  <linearGradient id="linearGradient3515-3" y2="70.097" gradientUnits="userSpaceOnUse" x2="40.698" y1="-3.5" x1="40.698">
   <stop id="stop8-5" stop-color="#FBED21" offset="0"/>
   <stop id="stop10-4" stop-color="#FAAF3B" offset="1"/>
  </linearGradient>
  <linearGradient id="linearGradient4447" y2="56.048" gradientUnits="userSpaceOnUse" y1="10.128" gradientTransform="matrix(1.1947 0 0 1.1947 1.8842 952.28)" x2="40.788" x1="40.788">
   <stop id="stop21-1" stop-color="#fff" stop-opacity=".4" offset=".0051"/>
   <stop id="stop23-2" stop-color="#fff" stop-opacity="0" offset="1"/>
  </linearGradient>
 </defs>
 <metadata id="metadata7">
  <rdf:RDF>
   <cc:Work rdf:about="">
    <dc:format>image/svg+xml</dc:format>
    <dc:type rdf:resource="http://purl.org/dc/dcmitype/StillImage"/>
    <dc:title/>
   </cc:Work>
  </rdf:RDF>
 </metadata>
 <g id="layer1" stroke="#000" transform="translate(0 -952.36)">
  <g id="g3506" transform="matrix(1.0286 0 0 1.0076 -1.9522 -7.1315)">
   <g id="g5" transform="matrix(1.1947 0 0 1.1947 1.8842 952.28)">
    <path id="path12" fill="url(#linearGradient3515-3)" d="m78.896 70.496c0 5.5-4.5 10-10 10h-56.396c-5.5 0-10-4.5-10-10v-57.996c0-5.5 4.5-10 10-10h56.396c5.5 0 10 4.5 10 10v57.996z"/>
    <path id="path14" d="m78.896 70.496c0 5.5-4.5 10-10 10h-56.396c-5.5 0-10-4.5-10-10v-57.996c0-5.5 4.5-10 10-10h56.396c5.5 0 10 4.5 10 10v57.996z" stroke="#f6921e" stroke-miterlimit="10" stroke-width="5" fill="none"/>
   </g>
   <path id="path25-1" fill="url(#linearGradient4447)" d="m88.309 997.05c0 10.215-75.389 12.485-75.389 0v-28.669c0-3.2855 2.6882-5.9737 5.9737-5.9737h63.442c3.2855 0 5.9737 2.6882 5.9737 5.9737v28.669z"/>
  </g>
  <g id="g23" transform="matrix(1.3557 0 0 1.3557 -14.427 938.58)">
   <g id="g3908" stroke="#000" transform="translate(-.77716)">
    <path id="path25" d="m44.293 66.008c0 1.101-0.658 1.387-1.464 0.638l-9.718-9.044c-0.807-0.749-2.365-1.362-3.465-1.362h-5.089c-1.101 0-2-0.9-2-2v-14.387c0-1.1 0.899-2 2-2h5.089c1.1 0 2.658-0.613 3.465-1.362l9.718-9.044c0.806-0.749 1.464-0.463 1.464 0.638v37.923z"/>
    <g id="g3037" transform="matrix(.97935 0 0 .97935 182.38 .99277)">
     <path id="path3039" d="m-133.41 55.899c-0.429 0-0.857-0.164-1.184-0.49-0.654-0.654-0.654-1.714 0-2.368 3.318-3.317 3.317-8.717 0-12.035-0.654-0.653-0.654-1.714 0-2.367 0.654-0.654 1.713-0.653 2.368 0 4.623 4.624 4.624 12.146 0 16.77-0.327 0.326-0.756 0.49-1.184 0.49z"/>
     <path id="path3041" d="m-126.77 61.592c-0.428 0-0.857-0.164-1.184-0.49-0.654-0.654-0.654-1.714 0-2.368 3.128-3.127 4.851-7.287 4.851-11.71 0-4.424-1.723-8.582-4.851-11.711-0.654-0.653-0.654-1.714 0-2.367 0.654-0.654 1.714-0.654 2.368 0 3.76 3.761 5.832 8.76 5.832 14.078 0 5.317-2.071 10.317-5.832 14.078-0.327 0.326-0.756 0.49-1.184 0.49z"/>
     <path id="path3043" d="m-120.31 68.102c-0.429 0-0.856-0.164-1.184-0.491-0.653-0.652-0.653-1.714 0-2.367 10.046-10.047 10.046-26.394 0-36.439-0.654-0.654-0.654-1.713 0-2.367s1.714-0.654 2.368 0c11.352 11.352 11.352 29.822 0 41.174-0.327 0.326-0.755 0.49-1.184 0.49z"/>
    </g>
   </g>
  </g>
 </g>
</svg>
