<?xml version="1.0" encoding="UTF-8" standalone="no"?>
<!-- Generator: Adobe Illustrator 16.2.1, SVG Export Plug-In . SVG Version: 6.00 Build 0)  -->
<svg id="Layer_1" xmlns:rdf="http://www.w3.org/1999/02/22-rdf-syntax-ns#" xmlns="http://www.w3.org/2000/svg" xmlns:osb="http://www.openswatchbook.org/uri/2009/osb" xml:space="preserve" viewBox="0 0 200 200" version="1.1" enable-background="new 0 0 200 200" xmlns:cc="http://creativecommons.org/ns#" xmlns:xlink="http://www.w3.org/1999/xlink" xmlns:dc="http://purl.org/dc/elements/1.1/"><metadata id="metadata3069"><rdf:RDF><cc:Work rdf:about=""><dc:format>image/svg+xml</dc:format><dc:type rdf:resource="http://purl.org/dc/dcmitype/StillImage"/><dc:title/></cc:Work></rdf:RDF></metadata><defs id="defs3067"><linearGradient id="linearGradient4264"><stop id="stop4266" stop-color="#232323" offset="0"/><stop id="stop4276" stop-color="#232323" offset=".39105"/><stop id="stop4274" stop-color="#303030" offset=".52827"/><stop id="stop4272" stop-color="#303030" offset=".84533"/><stop id="stop4268" stop-color="#232323" offset="1"/></linearGradient><radialGradient id="radialGradient4910" xlink:href="#linearGradient4264" gradientUnits="userSpaceOnUse" cy="200.22" cx="-.073657" gradientTransform="matrix(2 0 0 1.9915 .073658 -198.81)" r="72.016"/><radialGradient id="radialGradient5438" xlink:href="#linearGradient4264" gradientUnits="userSpaceOnUse" cy="200.22" cx="-.073657" gradientTransform="matrix(2 0 0 -1.9915 .07366 398.87)" r="72.016"/><radialGradient id="radialGradient3139" xlink:href="#linearGradient4264" gradientUnits="userSpaceOnUse" cy="200.22" cx="-.073657" gradientTransform="matrix(-2 0 0 1.9915 199.87 -198.81)" r="72.016"/><radialGradient id="radialGradient3141" xlink:href="#linearGradient4264" gradientUnits="userSpaceOnUse" cy="200.22" cx="-.073657" gradientTransform="matrix(-2 0 0 -1.9915 199.87 398.87)" r="72.016"/></defs><path id="rect3143" fill="#ddcf8a" d="m32.406 0.03125c0 17.966-14.529 32.531-32.468 32.531l-0.0005 135.03c17.94 0 32.468 14.5 32.468 32.35h135.09c-0.01-0.24 0-0.48 0-0.72 0-17.47 14.53-31.63 32.47-31.63v-135.03c-17.94 0.002-32.47-14.563-32.47-32.529l-135.09 0.00025z"/><path id="path3099" fill="#303030" d="m99.948 0.03125 100.06 99.969-100.06 99.94v-199.91z"/><path id="path3101" d="m200.02 144.17v6.0417" stroke="#72612e" stroke-width="2.485" fill="none"/><path id="path3103" d="m189.5 169.2-6.4278-15.968" stroke="#b79c77" stroke-width=".828" fill="#b79c77"/><path id="path3105" d="m169.5 188.78-16.324-6.593" stroke="#b79c77" stroke-width=".828" fill="#b79c77"/><path id="path3107" d="m200.02 167.6c-17.94 0-32.483 14.471-32.483 32.322" stroke="#72612e" stroke-width="2.388" fill="none"/><path id="path3109" d="m200.02 150.21c-27.597 0-49.969 22.26-49.969 49.718" stroke="#72612e" stroke-width="2.388" fill="none"/><path id="path3111" d="m164.71 164.61-3.8237-3.7805" stroke="#72612e" stroke-width="2.485" fill="none"/><path id="path3113" d="m143.7 199.93h6.3542" stroke="#72612e" stroke-width="2.485" fill="none"/><path id="path3115" fill="url(#radialGradient3139)" d="m200.01 100v44.156c-31.107 0-56.312 24.986-56.312 55.781h-43.75c-0.002-55.19 44.79-99.94 100.06-99.94z"/><path id="path3117" d="m200.01 100.06v-44.156c-31.107 0-56.312-24.986-56.312-55.781h-43.75c0 55.188 44.793 99.938 100.06 99.938z" fill="url(#radialGradient3141)"/><path id="path3119" d="m200.02 55.864v-6.0417" stroke="#72612e" stroke-width="2.485" fill="none"/><path id="path3121" d="m189.5 30.833-6.4278 15.968" stroke="#b79c77" stroke-width=".828" fill="#b79c77"/><path id="path3123" d="m169.5 11.25-16.324 6.593" stroke="#b79c77" stroke-width=".828" fill="#b79c77"/><path id="path3125" d="m200.02 32.426c-17.94 0-32.483-14.471-32.483-32.322" stroke="#72612e" stroke-width="2.388" fill="none"/><path id="path3127" d="m200.02 49.822c-27.597 0-49.969-22.26-49.969-49.718" stroke="#72612e" stroke-width="2.388" fill="none"/><path id="path3129" d="m164.71 35.417-3.8237 3.7805" stroke="#72612e" stroke-width="2.485" fill="none"/><path id="path3131" d="m143.7 0.10417h6.3542" stroke="#72612e" stroke-width="2.485" fill="none"/><path id="path3133" d="m200.39 55.781-0.58926 87.799" stroke="#808080" stroke-width="1px" fill="none"/><path id="rect4915" fill="#303030" d="m100 0.03125l-100.06 99.969 100.06 99.94v-199.91z"/><path id="path4400" d="m-0.073657 144.17v6.0417" stroke="#72612e" stroke-width="2.485" fill="none"/><path id="path4294" d="m10.447 169.2 6.428-15.97" stroke="#b79c77" stroke-width=".828" fill="#b79c77"/><path id="path4298" d="m30.447 188.78 16.324-6.593" stroke="#b79c77" stroke-width=".828" fill="#b79c77"/><path id="path3118" d="m-0.073657 167.6c17.94 0 32.483 14.471 32.483 32.322" stroke="#72612e" stroke-width="2.388" fill="none"/><path id="path3120" d="m-0.073657 150.21c27.597 0 49.969 22.26 49.969 49.718" stroke="#72612e" stroke-width="2.388" fill="none"/><path id="path4302" d="m35.239 164.61 3.823-3.78" stroke="#72612e" stroke-width="2.485" fill="none"/><path id="path4402" d="m56.25 199.93h-6.3542" stroke="#72612e" stroke-width="2.485" fill="none"/><path id="path4216" fill="url(#radialGradient4910)" d="m-0.0625 100v44.16c31.106 0 56.312 24.98 56.312 55.78h43.75c0-55.19-44.793-99.94-100.06-99.94z"/><path id="path5433" fill="url(#radialGradient5438)" d="m-0.0625 100.06v-44.156c31.107 0 56.312-24.986 56.312-55.781h43.75c0 55.186-44.793 99.937-100.06 99.937z"/><path id="path5461" d="m-0.073657 55.864v-6.0417" stroke="#72612e" stroke-width="2.485" fill="none"/><path id="path5463" d="m10.447 30.833 6.428 15.968" stroke="#b79c77" stroke-width=".828" fill="#b79c77"/><path id="path5465" d="m30.447 11.25 16.324 6.593" stroke="#b79c77" stroke-width=".828" fill="#b79c77"/><path id="path5467" d="m-0.073657 32.426c17.94 0 32.483-14.471 32.483-32.322" stroke="#72612e" stroke-width="2.388" fill="none"/><path id="path5469" d="m-0.073657 49.822c27.598 0 49.97-22.259 49.97-49.718" stroke="#72612e" stroke-width="2.388" fill="none"/><path id="path5471" d="m35.239 35.417 3.8237 3.7805" stroke="#72612e" stroke-width="2.485" fill="none"/><path id="path5473" d="m56.25 0.10417h-6.3542" stroke="#72612e" stroke-width="2.485" fill="none"/><path id="path5601" d="m55.979 0.53696 87.801-0.58926" stroke="#808080" stroke-width="1px" fill="none"/><path id="path6111" d="m55.979 200.29 87.799-0.58926" stroke="#808080" stroke-width="1px" fill="none"/><path id="path6134" d="m-0.44107 55.781 0.58926 87.799" stroke="#808080" stroke-width="1px" fill="none"/><path id="path3130" d="m-0.073657 144.17c31.107 0 56.324 24.964 56.324 55.76" stroke="#101928" stroke-width="3.313" fill="none"/><path id="path5475" d="m-0.073657 55.864c31.107 0 56.324-24.965 56.324-55.76" stroke="#101928" stroke-width="3.313" fill="none"/><path id="path3137" d="m200.02 55.864c-31.107 0-56.324-24.964-56.324-55.76" stroke="#101928" stroke-width="3.313" fill="none"/><path id="path3135" d="m200.02 144.17c-31.107 0-56.324 24.964-56.324 55.76" stroke="#101928" stroke-width="3.313" fill="none"/><path id="line5477" d="m41.979 100h-23.753" stroke="#f4d100" stroke-miterlimit="10" stroke-width="4.97" fill="none"/><path id="path4666" d="m181.77 100h-23.65" stroke="#f4d100" stroke-miterlimit="10" stroke-width="4.97" fill="none"/><path id="path4668" d="m100 41.979-0.002-23.231" stroke="#f4d100" stroke-miterlimit="10" stroke-width="4.97" fill="none"/><path id="path4670" d="m99.998 181.88 0.002-23.65" stroke="#f4d100" stroke-miterlimit="10" stroke-width="4.97" fill="none"/><rect id="rect4806" height="116.25" width="116.15" stroke="#f4d100" y="41.979" x="41.979" stroke-width="1.8" fill="none"/><path id="path6375" d="m41.979 100 58.021-58.021 58.12 58.021-58.12 58.23z" stroke="#f4cf00" fill="none"/><path id="path6377" d="m41.979 41.979 116.14 116.25" stroke="#f4cf00" fill="none"/><path id="path6381" d="m158.12 129.06-29.17 29.17-86.971-86.884 29.045-29.367z" stroke="#f4cf00" fill="none"/><path id="path6409" d="m158.12 41.979-116.14 116.25" stroke="#f4cf00" fill="none"/><path id="path6411" d="m71.123 158.23-29.144-29.2 86.961-87.051 29.18 29.853z" stroke="#f4cf00" fill="none"/></svg>
