<?xml version="1.0" encoding="UTF-8" standalone="no"?>
<!-- Generator: Adobe Illustrator 16.2.1, SVG Export Plug-In . SVG Version: 6.00 Build 0)  -->
<svg id="Layer_1" xmlns:rdf="http://www.w3.org/1999/02/22-rdf-syntax-ns#" xmlns="http://www.w3.org/2000/svg" xml:space="preserve" viewBox="0 0 200 200" version="1.1" enable-background="new 0 0 200 200" xmlns:cc="http://creativecommons.org/ns#" xmlns:xlink="http://www.w3.org/1999/xlink" xmlns:dc="http://purl.org/dc/elements/1.1/"><metadata id="metadata3069"><rdf:RDF><cc:Work rdf:about=""><dc:format>image/svg+xml</dc:format><dc:type rdf:resource="http://purl.org/dc/dcmitype/StillImage"/><dc:title/></cc:Work></rdf:RDF></metadata><defs id="defs3067"><linearGradient id="linearGradient4450" y2="99.95" gradientUnits="userSpaceOnUse" x2="164.33" gradientTransform="matrix(.68601 0 0 .50077 31.372 100.19)" y1="99.95" x1="36.274"><stop id="stop3037" stop-color="#232323" offset="0"/><stop id="stop3039" stop-color="#303030" offset=".2245"/><stop id="stop3041" stop-color="#303030" offset=".7449"/><stop id="stop3043" stop-color="#232323" offset="1"/></linearGradient><radialGradient id="radialGradient4479" gradientUnits="userSpaceOnUse" cy="100" cx="100" gradientTransform="matrix(.99975 0 0 1.0128 .024707 -.45352)" r="44.93"><stop id="stop4489" stop-color="#303030" offset="0"/><stop id="stop4493" stop-color="#303030" offset=".48256"/><stop id="stop4491" stop-color="#232323" offset="1"/></radialGradient></defs><path id="path4500" d="m32.409 100c0-37.25 30.261-67.448 67.591-67.448 37.329 0 67.591 30.197 67.591 67.448" fill="#ddcf8a"/><rect id="rect2990" height="100.42" width="136.45" y="99.929" x="31.304" fill="#ddcf8a"/><line id="line2996" y2="180.84" stroke-width=".82825" x2="50.76" stroke="#b79c77" stroke-miterlimit="10" y1="180.84" x1="33.487" fill="none"/><line id="line2998" y2="140.49" stroke-width=".82825" x2="50.76" stroke="#b79c77" stroke-miterlimit="10" y1="140.49" x1="33.487" fill="none"/><line id="line3000" y2="100.14" stroke-width=".82825" x2="50.76" stroke="#b79c77" stroke-miterlimit="10" y1="100.14" x1="33.487" fill="none"/><line id="line3008" y2="180.84" stroke-width=".82825" x2="166.62" stroke="#b79c77" stroke-miterlimit="10" y1="180.84" x1="149.35" fill="none"/><line id="line3010" y2="140.49" stroke-width=".82825" x2="166.62" stroke="#b79c77" stroke-miterlimit="10" y1="140.49" x1="149.35" fill="none"/><line id="line3012" y2="100.14" stroke-width=".82825" x2="166.62" stroke="#b79c77" stroke-miterlimit="10" y1="100.14" x1="149.35" fill="none"/><line id="line3020" y2="200.07" x1="50.105" y1="200.07" stroke="#72612e" stroke-miterlimit="10" x2="149.98" stroke-width="2.4848" fill="none"/><line id="line3022" y2="160.11" x1="50.105" y1="160.11" stroke="#72612e" stroke-miterlimit="10" x2="149.98" stroke-width="2.4848" fill="none"/><line id="line3024" y2="120.14" x1="50.105" y1="120.14" stroke="#72612e" stroke-miterlimit="10" x2="149.98" stroke-width="2.4848" fill="none"/><line id="line3032" y2="100.02" stroke-width="1.7693" x2="49.811" stroke="#72612e" stroke-miterlimit="10" y1="200.88" x1="49.811" fill="none"/><line id="line3034" y2="100.02" stroke-width="1.7693" x2="150.27" stroke="#72612e" stroke-miterlimit="10" y1="200.88" x1="150.27" fill="none"/><rect id="rect3045" height="100.2" width="87.844" y="100.14" x="56.257" fill="url(#linearGradient4450)"/><path id="line3047" d="m55.999 200.88 0.251-100.88" stroke="#101928" stroke-miterlimit="10" stroke-width="2.359" fill="none"/><path id="line3049" d="m143.74 100 0.625 100.88" stroke="#101928" stroke-miterlimit="10" stroke-width="2.359" fill="none"/><path id="line3061" d="m32.003 200.88 0.406-100.88" stroke="#72612e" stroke-miterlimit="10" stroke-width="1.769" fill="none"/><path id="line3063" d="m167.5 100 0.44298 100.88" stroke="#72612e" stroke-miterlimit="10" stroke-width="1.7693" fill="none"/><path id="path4548" d="m52.444 84.506 5.8926 2.0624" stroke="#72612e" stroke-width="2.485" fill="none"/><path id="path4550" d="m70.711 59.757 3.6828 5.156" stroke="#72612e" stroke-width="2.485" fill="none"/><path id="path4552" d="m100 50.26v6.25" stroke="#72612e" stroke-width="2.485" fill="none"/><path id="path4554" d="m129.02 59.689-3.5355 4.7769" stroke="#72612e" stroke-width="2.485" fill="none"/><path id="path4556" d="m147.44 84.437-6.1872 1.6833" stroke="#72612e" stroke-width="2.485" fill="none"/><path id="path4558" d="m59.368 70.658-14.143-10.606" stroke="#b79c77" stroke-width=".828" fill="none"/><path id="path4560" d="m84.558 52.539-5.45-16.794" stroke="#b79c77" stroke-width=".828" fill="none"/><path id="path4562" d="m115.35 52.539 5.4506-16.573" stroke="#b79c77" stroke-width=".828" fill="none"/><path id="path4564" d="m140.35 70.664 14.41-10.531" stroke="#b79c77" stroke-width=".828" fill="none"/><path id="path4566" d="m32.409 100c0-37.25 30.261-67.448 67.591-67.448 37.329 0 67.591 30.197 67.591 67.448" stroke-dashoffset="43.61" stroke="#72612e" stroke-width="1.796" fill="none"/><path id="path4505" d="m49.896 100c0-27.47 22.432-49.74 50.104-49.74s50.104 22.269 50.104 49.74" stroke-dashoffset="43.61" stroke="#72612e" stroke-width="1.796" fill="none"/><path id="path4471" d="m56.261 100.82c0-24.467 19.583-44.301 43.739-44.301s43.739 19.834 43.739 44.301" stroke-dashoffset="43.61" stroke="#101928" stroke-width="2.3806" fill="url(#radialGradient4479)"/><path id="line3055" d="m100.29 148v37.38" stroke="#f4d100" stroke-miterlimit="10" stroke-width="4.9695" fill="none"/><path id="path6235" d="m100.21 92.917v29.244" stroke="#f4d100" stroke-miterlimit="10" stroke-width="4.9695" fill="none"/></svg>
