<svg xmlns:rdf="http://www.w3.org/1999/02/22-rdf-syntax-ns#" xmlns="http://www.w3.org/2000/svg" height="200px" width="200px" version="1.1" xmlns:cc="http://creativecommons.org/ns#" xmlns:dc="http://purl.org/dc/elements/1.1/">
<defs>
<linearGradient id="roadGradient">
<stop stop-color="#232323" offset="0"/>
<stop stop-color="#303030" offset="0.25"/>
<stop stop-color="#303030" offset="0.75"/>
<stop stop-color="#232323" offset="1"/>
</linearGradient>
</defs>
<rect height="200" width="130" y="0" x="35" fill="#ddcf8a"/>
<path stroke="#b79c77" stroke-width="0.8" d="M35,20h130m-130,40h130m-130,40h130m-130,40h130m-130,40h130"/>
<rect height="200" width="100" y="0" x="50" fill="#ddcf8a"/>
<path stroke="#72612e" stroke-width="2.5" d="M35,0v200m130-200v200"/>
<path stroke="#72612e" stroke-width="2" d="M50,0v200m100-200v200m-100-200h100m-100,40h100m-100,40h100m-100,40h100m-100,40h100m-100,40h100"/>
<rect height="200" width="90" y="0" x="55" fill="url(#roadGradient)"/>
<path stroke="#808080" stroke-width="1" d="M55,0h90m-90,200h90"/>
<path stroke="#101928" stroke-width="3" d="M55,0v200m90-200v200"/>
<path stroke="#f4d100" stroke-width="5" d="M100,16.7v33.3m0,33.3v33.3m0,33.3v33.3"/>
</svg>
