<?xml version="1.0" encoding="UTF-8" standalone="no"?>
<!-- Generator: Adobe Illustrator 16.2.1, SVG Export Plug-In . SVG Version: 6.00 Build 0)  -->
<svg id="Layer_1" xmlns:rdf="http://www.w3.org/1999/02/22-rdf-syntax-ns#" xmlns="http://www.w3.org/2000/svg" xml:space="preserve" viewBox="0 0 200 200" version="1.1" enable-background="new 0 0 200 200" xmlns:cc="http://creativecommons.org/ns#" xmlns:xlink="http://www.w3.org/1999/xlink" xmlns:dc="http://purl.org/dc/elements/1.1/"><metadata id="metadata3069"><rdf:RDF><cc:Work rdf:about=""><dc:format>image/svg+xml</dc:format><dc:type rdf:resource="http://purl.org/dc/dcmitype/StillImage"/><dc:title/></cc:Work></rdf:RDF></metadata><defs id="defs3067"><linearGradient id="linearGradient4264"><stop id="stop4266" stop-color="#232323" offset="0"/><stop id="stop4276" stop-color="#232323" offset=".39105"/><stop id="stop4274" stop-color="#303030" offset=".52827"/><stop id="stop4272" stop-color="#303030" offset=".84533"/><stop id="stop4268" stop-color="#232323" offset="1"/></linearGradient><linearGradient id="linearGradient4875" y2="99.95" gradientUnits="userSpaceOnUse" x2="164.33" gradientTransform="matrix(.68601 0 0 1 31.372 .20833)" y1="99.95" x1="36.274"><stop id="stop3037-5" stop-color="#232323" offset="0"/><stop id="stop3039-4" stop-color="#303030" offset=".2245"/><stop id="stop3041-0" stop-color="#303030" offset=".7449"/><stop id="stop3043-3" stop-color="#232323" offset="1"/></linearGradient><radialGradient id="radialGradient4910" xlink:href="#linearGradient4264" gradientUnits="userSpaceOnUse" cy="200.22" cx="-.073657" gradientTransform="matrix(2 0 0 1.9915 .073658 -198.81)" r="72.016"/><radialGradient id="radialGradient5438" xlink:href="#linearGradient4264" gradientUnits="userSpaceOnUse" cy="200.22" cx="-.073657" gradientTransform="matrix(2 0 0 -1.9915 .07366 398.87)" r="72.016"/></defs><path id="rect2990" fill="#ddcf8a" d="m32.406 0.03125c0 17.966-14.529 32.531-32.468 32.531l-0.0005 135.03c17.94 0 32.468 14.5 32.468 32.35 0 0.09 0.001 0.18 0 0.28h135.34v-200.19l-135.34 0.00125z"/><line id="line3008" y2="180.7" stroke-width=".82825" x2="166.62" stroke="#b79c77" stroke-miterlimit="10" y1="180.7" x1="149.35" fill="none"/><line id="line3010" y2="140.35" stroke-width=".82825" x2="166.62" stroke="#b79c77" stroke-miterlimit="10" y1="140.35" x1="149.35" fill="none"/><line id="line3012" y2="100" stroke-width=".82825" x2="166.62" stroke="#b79c77" stroke-miterlimit="10" y1="100" x1="149.35" fill="none"/><line id="line3014" y2="59.655" stroke-width=".82825" x2="166.62" stroke="#b79c77" stroke-miterlimit="10" y1="59.655" x1="149.35" fill="none"/><line id="line3016" y2="19.307" stroke-width=".82825" x2="166.62" stroke="#b79c77" stroke-miterlimit="10" y1="19.307" x1="149.35" fill="none"/><line id="line3020" y2="200.84" x1="143.77" y1="200.84" stroke="#72612e" stroke-miterlimit="10" x2="150.89" stroke-width=".66629" fill="none"/><line id="line3022" y2="160.51" x1="143.77" y1="160.51" stroke="#72612e" stroke-miterlimit="10" x2="150.89" stroke-width=".66629" fill="none"/><line id="line3024" y2="120.19" x1="143.77" y1="120.19" stroke="#72612e" stroke-miterlimit="10" x2="150.89" stroke-width=".66629" fill="none"/><line id="line3026" y2="79.857" x1="143.77" y1="79.857" stroke="#72612e" stroke-miterlimit="10" x2="150.89" stroke-width=".66629" fill="none"/><line id="line3028" y2="39.529" x1="143.77" y1="39.529" stroke="#72612e" stroke-miterlimit="10" x2="150.89" stroke-width=".66629" fill="none"/><line id="line3030" y2="-.8009" x1="143.77" y1="-.8009" stroke="#72612e" stroke-miterlimit="10" x2="150.89" stroke-width=".66629" fill="none"/><line id="line3034" y2=".10833" stroke-width="2.4848" x2="149.98" stroke="#72612e" stroke-miterlimit="10" y1="200.21" x1="149.98" fill="none"/><path id="rect3045" fill="url(#linearGradient4875)" d="m56.257 0.10833h87.844v200.1h-87.844z"/><line id="line3049" y2="200.21" x1="144.1" y1=".10833" stroke="#101928" stroke-miterlimit="10" x2="144.1" stroke-width="3.313" fill="none"/><line id="line3063" y2="200.21" x1="167.54" y1=".20833" stroke="#72612e" stroke-miterlimit="10" x2="167.54" stroke-width="2.4848" fill="none"/><path id="rect4915" fill="#303030" d="m100 0.03125l-100.06 99.969 100.06 99.94v-199.91z"/><path id="path4400" d="m-0.073657 144.17v6.0417" stroke="#72612e" stroke-width="2.485" fill="none"/><path id="path4294" d="m10.447 169.2 6.428-15.97" stroke="#b79c77" stroke-width=".828" fill="#b79c77"/><path id="path4298" d="m30.447 188.78 16.324-6.593" stroke="#b79c77" stroke-width=".828" fill="#b79c77"/><path id="path3118" d="m-0.073657 167.6c17.94 0 32.483 14.471 32.483 32.322" stroke="#72612e" stroke-width="2.388" fill="none"/><path id="path3120" d="m-0.073657 150.21c27.597 0 49.969 22.26 49.969 49.718" stroke="#72612e" stroke-width="2.388" fill="none"/><path id="path4302" d="m35.239 164.61 3.823-3.78" stroke="#72612e" stroke-width="2.485" fill="none"/><path id="path4402" d="m56.25 199.93h-6.3542" stroke="#72612e" stroke-width="2.485" fill="none"/><path id="path4216" fill="url(#radialGradient4910)" d="m-0.0625 100v44.16c31.106 0 56.312 24.98 56.312 55.78h43.75c0-55.19-44.793-99.94-100.06-99.94z"/><path id="path5433" fill="url(#radialGradient5438)" d="m-0.0625 100.06v-44.156c31.107 0 56.312-24.986 56.312-55.781h43.75c0 55.186-44.793 99.937-100.06 99.937z"/><path id="path5461" d="m-0.073657 55.864v-6.0417" stroke="#72612e" stroke-width="2.485" fill="none"/><path id="path5463" d="m10.447 30.833 6.428 15.968" stroke="#b79c77" stroke-width=".828" fill="#b79c77"/><path id="path5465" d="m30.447 11.25 16.324 6.593" stroke="#b79c77" stroke-width=".828" fill="#b79c77"/><path id="path5467" d="m-0.073657 32.426c17.94 0 32.483-14.471 32.483-32.322" stroke="#72612e" stroke-width="2.388" fill="none"/><path id="path5469" d="m-0.073657 49.822c27.598 0 49.97-22.259 49.97-49.718" stroke="#72612e" stroke-width="2.388" fill="none"/><path id="path5471" d="m35.239 35.417 3.8237 3.7805" stroke="#72612e" stroke-width="2.485" fill="none"/><path id="path5473" d="m56.25 0.10417h-6.3542" stroke="#72612e" stroke-width="2.485" fill="none"/><path id="line5477" d="m57.396 100h-39.17" stroke="#f4d100" stroke-miterlimit="10" stroke-width="4.97" fill="none"/><path id="line3055" d="m100.29 148v37.38" stroke="#f4d100" stroke-miterlimit="10" stroke-width="4.9695" fill="none"/><path id="path5601" d="m55.979 0.53696 87.801-0.58926" stroke="#808080" stroke-width="1px" fill="none"/><path id="path6111" d="m55.979 200.29 87.799-0.58926" stroke="#808080" stroke-width="1px" fill="none"/><path id="path6134" d="m-0.44107 55.781 0.58926 87.799" stroke="#808080" stroke-width="1px" fill="none"/><path id="path3130" d="m-0.073657 144.17c31.107 0 56.324 24.964 56.324 55.76" stroke="#101928" stroke-width="3.313" fill="none"/><path id="path5475" d="m-0.073657 55.864c31.107 0 56.324-24.965 56.324-55.76" stroke="#101928" stroke-width="3.313" fill="none"/><path id="path6227" d="m50.25 100v-71.667" stroke-dashoffset="14.089" stroke="#f4d100" stroke-dasharray="7.16400003,7.16400003" stroke-width="2.388" fill="none"/><path id="path6229" d="m56.25 173.12v-144.79" stroke-dashoffset="12.656" stroke="#f4d100" stroke-dasharray="7.16400003,7.16400003" stroke-width="2.388" fill="none"/><path id="path6233" d="m100 15.414v37.38" stroke="#f4d100" stroke-miterlimit="10" stroke-width="4.9695" fill="none"/><path id="path6235" d="m100 80.822v37.38" stroke="#f4d100" stroke-miterlimit="10" stroke-width="4.9695" fill="none"/></svg>
