<?xml version="1.0" encoding="UTF-8" standalone="no"?>
<!-- Generator: Adobe Illustrator 16.2.1, SVG Export Plug-In . SVG Version: 6.00 Build 0)  -->
<svg id="Layer_1" xmlns:rdf="http://www.w3.org/1999/02/22-rdf-syntax-ns#" xmlns="http://www.w3.org/2000/svg" xml:space="preserve" viewBox="0 0 200 200" version="1.1" enable-background="new 0 0 200 200" xmlns:cc="http://creativecommons.org/ns#" xmlns:xlink="http://www.w3.org/1999/xlink" xmlns:dc="http://purl.org/dc/elements/1.1/"><metadata id="metadata3069"><rdf:RDF><cc:Work rdf:about=""><dc:format>image/svg+xml</dc:format><dc:type rdf:resource="http://purl.org/dc/dcmitype/StillImage"/><dc:title/></cc:Work></rdf:RDF></metadata><defs id="defs3067"><radialGradient id="radialGradient4270" gradientUnits="userSpaceOnUse" cy="200.22" cx="-.073657" gradientTransform="matrix(2 0 0 1.9915 .073658 -198.81)" r="72.016"><stop id="stop4266" stop-color="#232323" offset="0"/><stop id="stop4276" stop-color="#232323" offset=".39105"/><stop id="stop4274" stop-color="#303030" offset=".52827"/><stop id="stop4272" stop-color="#303030" offset=".84533"/><stop id="stop4268" stop-color="#232323" offset="1"/></radialGradient></defs><path id="path4195" fill="#ddcf8a" d="m-0.0625 32.562v135.03c17.94 0 32.468 14.5 32.468 32.35h135.09c0-92.44-75.014-167.38-167.56-167.38z"/><path id="path4400" d="m-0.073657 50.26v99.948" stroke="#72612e" stroke-width="2.485" fill="none"/><path id="path4294" d="m10.447 169.2 6.428-15.97" stroke="#b79c77" stroke-width=".828" fill="#b79c77"/><path id="path4298" d="m30.447 188.78 16.324-6.593" stroke="#b79c77" stroke-width=".828" fill="#b79c77"/><path id="path3118" d="m-0.073657 167.6c17.94 0 32.483 14.471 32.483 32.322" stroke="#72612e" stroke-width="2.388" fill="none"/><path id="path3120" d="m-0.073657 150.21c27.597 0 49.969 22.26 49.969 49.718" stroke="#72612e" stroke-width="2.388" fill="none"/><path id="path4302" d="m35.239 164.61 3.823-3.78" stroke="#72612e" stroke-width="2.485" fill="none"/><path id="path4316" d="m20.074 51.66 2.34-17.782" stroke="#b79c77" stroke-width="1px" fill="none"/><path id="path4318" d="m58.007 61.972 6.907-16.53" stroke="#b79c77" stroke-width="1px" fill="none"/><path id="path4320" d="m91.742 81.712 10.888-14.173" stroke="#b79c77" stroke-width="1px" fill="none"/><path id="path4322" d="m119.36 109.33 14.13-10.855" stroke="#b79c77" stroke-width="1px" fill="none"/><path id="path4324" d="m138.59 143.29 16.629-6.8808" stroke="#b79c77" stroke-width="1px" fill="none"/><path id="path4326" d="m148.53 180.56 17.808-2.314" stroke="#b79c77" stroke-width="1px" fill="none"/><path id="path4328" d="m38.958 55.312-1.4583 5.3125" stroke="#72612e" stroke-width="2.485" fill="none"/><path id="path4330" d="m76.014 70.225-3.2197 5.1797" stroke="#72612e" stroke-width="2.485" fill="none"/><path id="path4332" d="m106.21 94.459-3.7353 3.9275" stroke="#72612e" stroke-width="2.485" fill="none"/><path id="path4334" d="m129.93 125.69-4.2509 2.528" stroke="#72612e" stroke-width="2.485" fill="none"/><path id="path4336" d="m144.74 161.71-4.7665 1.2022" stroke="#72612e" stroke-width="2.485" fill="none"/><path id="path3122" d="m-0.073657 50.26c82.826 0 149.97 67.01 149.97 149.67" stroke="#72612e" stroke-width="2.388" fill="none"/><path id="path4402" d="m149.9 199.93h-100" stroke="#72612e" stroke-width="2.485" fill="none"/><path id="path4216" fill="url(#radialGradient4270)" d="m-0.0625 56.5v87.656c31.107 0 56.312 24.986 56.312 55.781h87.719c0-79.21-64.486-143.44-144.03-143.44z"/><path id="path3124" d="m-0.073657 32.552c92.549 0 167.57 74.938 167.57 167.38" stroke="#72612e" stroke-width="2.388" fill="none"/><path id="path6111" d="m55.979 200.29 87.799-0.58926" stroke="#808080" stroke-width="1px" fill="none"/><path id="path6134" d="m-0.44107 55.781 0.58926 87.799" stroke="#808080" stroke-width="1px" fill="none"/><path id="path3130" d="m-0.073657 144.17c31.107 0 56.324 24.964 56.324 55.76" stroke="#101928" stroke-width="3.313" fill="none"/><path id="path3931" d="m-0.073657 56.51c79.547 0 144.03 64.21 144.03 143.42" stroke="#101928" stroke-width="3.313" fill="none"/><path id="path6888" d="m83.346 144.73a100.07 99.926 0 0 1 14.894 36.54" stroke-dashoffset="14.089" transform="translate(.0000032369 .0000040262)" stroke="#f4d100" stroke-width="4.97" fill="none"/><path id="path6890" d="m20.724 102.18a100.07 99.926 0 0 1 35.027 14.81" stroke-dashoffset="14.089" transform="translate(.0000032369 .0000040262)" stroke="#f4d100" stroke-width="4.97" fill="none"/></svg>
