<?xml version="1.0" encoding="UTF-8" standalone="no"?>
<!-- Generator: Adobe Illustrator 16.2.1, SVG Export Plug-In . SVG Version: 6.00 Build 0) -->
<svg id="Layer_1" xmlns:rdf="http://www.w3.org/1999/02/22-rdf-syntax-ns#" xmlns="http://www.w3.org/2000/svg" xml:space="preserve" x="0px" y="0px" width="687.991px" height="738.642px" viewBox="0 0 687.991 738.642" version="1.1" xmlns:cc="http://creativecommons.org/ns#" enable-background="new 0 0 687.991 738.642" xmlns:dc="http://purl.org/dc/elements/1.1/"><metadata id="metadata4085"><rdf:RDF><cc:Work rdf:about=""><dc:format>image/svg+xml</dc:format><dc:type rdf:resource="http://purl.org/dc/dcmitype/StillImage"/></cc:Work></rdf:RDF></metadata>
<g id="g3537">
	<g id="g3539">
	</g>
	<path id="path3580" opacity=".2" d="m650.54 299.43v-17.717h-119v-108.05c0.872-2.029 1.358-4.263 1.358-6.612s-0.486-4.582-1.358-6.611v-8.079h-7.328c-2.398-1.322-5.152-2.079-8.084-2.079h-299.42c-2.932 0-5.686 0.757-8.084 2.079h-7.607v8.816c-0.686 1.831-1.079 3.804-1.079 5.874s0.393 4.045 1.079 5.875v108.79h-120.79v17.717h-37.447v264.18h-42.783v140.17h42.783v34.858h645.21v-439.21h-37.45z" fill="#0C1C2B"/>
	<g id="g3582">
		<path id="path3584" d="m527.79 166.8c0 7.977-6.466 14.441-14.441 14.441h-294.86c-7.976 0-14.441-6.465-14.441-14.441 0-7.975 6.465-14.44 14.441-14.44h294.86c7.97 0 14.44 6.47 14.44 14.44z" stroke="#705A4A" stroke-miterlimit="10" stroke-width="3" fill="#C6B198"/>
		<g id="g3586">
			<rect id="rect3588" height="128" width="61" stroke="#820000" stroke-miterlimit="10" y="570.24" x="5.79" stroke-width="3" fill="#BA0000"/>
			<polygon id="polygon3590" points="66.791 698.24 57.29 698.24 45.29 570.24 66.791 570.24" fill="#820000"/>
			<path id="path3592" opacity=".2" d="m67.791 584.64h-23.703c-2.339-1.795-5.254-2.875-8.423-2.875-7.651 0-13.875 6.225-13.875 13.875s6.224 13.875 13.875 13.875c3.169 0 6.084-1.08 8.423-2.875h23.702v-22z" fill="#183049"/>
			<path id="path3594" opacity=".2" d="m67.791 617.14h-23.703c-2.339-1.795-5.254-2.875-8.423-2.875-7.651 0-13.875 6.225-13.875 13.875s6.224 13.875 13.875 13.875c3.169 0 6.084-1.08 8.423-2.875h23.702v-22z" fill="#183049"/>
			<g id="g3596">
				<g id="g3598">
					<circle id="circle3600" r="12.875" cy="592.64" stroke="#383838" cx="35.665" stroke-miterlimit="10" stroke-width="2" fill="#878787"/>
					<path id="path3602" d="m66.791 602.64h-30.5c-5.523 0-10-4.478-10-10s4.477-10 10-10h30.5v20z" fill="#5B5B5B"/>
				</g>
				<path id="path3604" d="m60.791 582.64h-24.5c-5.523 0-10 4.478-10 10h34.5v-10z" fill="#898989"/>
				<path id="path3606" d="m40.29 602.64c-5.523 0-10-4.478-10-10s4.477-10 10-10" stroke="#383838" stroke-miterlimit="10" fill="none"/>
				<path id="path3608" d="m44.29 602.64c-3.314 0-6-4.478-6-10s2.686-10 6-10" stroke="#383838" stroke-miterlimit="10" fill="none"/>
				<path id="path3610" d="m49.54 602.64c-1.657 0-3-4.478-3-10s1.343-10 3-10" stroke="#383838" stroke-miterlimit="10" fill="none"/>
				<line id="line3612" y2="582.64" x2="56.54" stroke="#383838" stroke-miterlimit="10" y1="602.64" x1="56.54" fill="none"/>
				<path id="path3614" d="m66.791 602.64h-30.5c-5.523 0-10-4.478-10-10s4.477-10 10-10h30.5v20z" stroke="#383838" stroke-miterlimit="10" stroke-width="2" fill="none"/>
			</g>
			<g id="g3616">
				<g id="g3618">
					<circle id="circle3620" r="12.875" cy="624.93" stroke="#383838" cx="35.665" stroke-miterlimit="10" stroke-width="2" fill="#878787"/>
					<path id="path3622" d="m66.791 634.93h-30.5c-5.523 0-10-4.478-10-10s4.477-10 10-10h30.5v20z" fill="#5B5B5B"/>
				</g>
				<path id="path3624" d="m60.791 614.93h-24.5c-5.523 0-10 4.478-10 10h34.5v-10z" fill="#898989"/>
				<path id="path3626" d="m40.29 634.93c-5.523 0-10-4.478-10-10s4.477-10 10-10" stroke="#383838" stroke-miterlimit="10" fill="none"/>
				<path id="path3628" d="m44.29 634.93c-3.314 0-6-4.478-6-10s2.686-10 6-10" stroke="#383838" stroke-miterlimit="10" fill="none"/>
				<path id="path3630" d="m49.54 634.93c-1.657 0-3-4.478-3-10s1.343-10 3-10" stroke="#383838" stroke-miterlimit="10" fill="none"/>
				<line id="line3632" y2="614.93" x2="56.54" stroke="#383838" stroke-miterlimit="10" y1="634.93" x1="56.54" fill="none"/>
				<path id="path3634" d="m66.791 634.93h-30.5c-5.523 0-10-4.478-10-10s4.477-10 10-10h30.5v20z" stroke="#383838" stroke-miterlimit="10" stroke-width="2" fill="none"/>
			</g>
			<g id="g3636" stroke="#820000" stroke-linecap="round" stroke-miterlimit="10" stroke-width="2" fill="none">
					<line id="line3638" x2="41.29" y1="677.19" x1="17.04" y2="677.19"/>
					<line id="line3640" x2="41.29" y1="673.01" x1="17.04" y2="673.01"/>
					<line id="line3642" x2="41.29" y1="668.82" x1="17.04" y2="668.82"/>
					<line id="line3644" x2="41.29" y1="664.64" x1="17.04" y2="664.64"/>
					<line id="line3646" x2="41.29" y1="681.38" x1="17.04" y2="681.38"/>
					<line id="line3648" x2="41.29" y1="685.56" x1="17.04" y2="685.56"/>
					<line id="line3650" x2="41.29" y1="689.74" x1="17.04" y2="689.74"/>
			</g>
		</g>
		<g id="g3652">
			<rect id="rect3654" height="147.98" width="311.19" y="152.27" x="211.02" fill="#C6B198"/>
			<rect id="rect3656" height="134.58" width="281.32" y="165.66" x="225.91" fill="#BAA38A"/>
			<polygon id="polygon3658" points="230.91 170.66 507.23 170.66 507.23 165.66 225.91 165.66 225.91 300.24 230.91 300.24" fill="#988575"/>
			<polygon id="polygon3660" points="522.21 291.08 507.96 291.08 506.7 293.08 227 293.08 226.36 291.08 211.02 291.08 211.02 300.24 522.21 300.24" fill="#988575"/>
				<rect id="rect3662" height="134.58" width="281.32" stroke="#705A4A" stroke-miterlimit="10" y="165.66" x="225.91" stroke-width="3" fill="none"/>
				<rect id="rect3664" height="147.98" width="311.19" stroke="#705A4A" stroke-miterlimit="10" y="152.27" x="211.02" stroke-width="3" fill="none"/>
		</g>
		<g id="g3666">
				<rect id="rect3668" height="18.294" width="530" stroke="#383838" stroke-miterlimit="10" y="300.24" x="101.61" stroke-width="3" fill="#707070"/>
			<rect id="rect3670" height="9.147" width="530" y="309.39" x="101.61" fill="#545454"/>
				<rect id="rect3672" height="18.294" width="530" stroke="#383838" stroke-miterlimit="10" y="300.24" x="101.61" stroke-width="3" fill="none"/>
		</g>
		<g id="g3674">
				<rect id="rect3676" height="400" width="600" stroke="#383838" stroke-miterlimit="10" y="317.73" x="66.613" stroke-width="3" fill="#707070"/>
			<linearGradient id="SVGID_2_" y2="725.49" gradientUnits="userSpaceOnUse" x2="658.07" y1="325.49" x1="96.072">
				<stop id="stop3679" stop-color="#919191" offset="0"/>
				<stop id="stop3681" stop-color="#919191" stop-opacity="0" offset="1"/>
			</linearGradient>
			<path id="path3683" d="m647.61 702.74h-572v-376.5h572v376.5zm-564-8h556v-360.5h-556v360.5z" fill="url(#SVGID_2_)"/>
		</g>
		<g id="g3685">
			<rect id="rect3687" height="338.52" width="530" y="348.84" x="103.2" fill="#919191"/>
			<path id="path3689" fill="#EFEFEF" fill-rule="evenodd" clip-rule="evenodd" d="m471.08 492.66c4.268 15.234 4.939 30.533 1.865 45.971-10.387 52.139-55.922 87.961-109.42 86.07-51.273-1.809-94.275-41.445-101.07-93.168-7.875-59.926 36.756-115.1 97.039-119.66 25.774-1.947 50.366 2.348 72.472 16.541 15.342 9.846 26.555 23.057 30.713 41.285 6.822 29.918-17.334 71.301-62.676 61.67-18.613-3.951-31.87-21.027-32.024-39.951-0.154-18.801 12.409-35.705 29.985-40.242 5.629-1.453 11.281-1.818 17.305 0.287-6.168 5.551-8.793 12.168-7.738 20.01 1.523 11.357 11.828 19.828 23.25 19.299 11.109-0.512 21.092-10.922 21.678-22.791 0.645-13.049-5.402-22.969-15.715-30.041-36.334-24.934-85.44-7.061-96.952 34.822-7.109 25.854-2.068 49.021 18.265 67.225 20.009 17.906 43.446 23.555 68.823 13.443 25.482-10.15 40.219-29.502 43.707-57 0.16-1.27 0.33-2.53 0.49-3.78z"/>
			<g id="g3691" stroke="#4C4C4C" stroke-miterlimit="10" fill="none">
				<line id="line3693" x2="113.2" y1="348.84" x1="113.2" y2="687.84"/>
				<line id="line3695" x2="123.2" y1="348.84" x1="123.2" y2="687.84"/>
				<line id="line3697" x2="133.2" y1="348.84" x1="133.2" y2="687.84"/>
				<line id="line3699" x2="143.2" y1="348.84" x1="143.2" y2="687.84"/>
				<line id="line3701" x2="153.2" y1="348.84" x1="153.2" y2="687.84"/>
				<line id="line3703" x2="163.2" y1="348.84" x1="163.2" y2="687.84"/>
				<line id="line3705" x2="173.2" y1="348.84" x1="173.2" y2="687.84"/>
				<line id="line3707" x2="183.2" y1="348.84" x1="183.2" y2="687.84"/>
				<line id="line3709" x2="193.2" y1="348.84" x1="193.2" y2="687.84"/>
				<line id="line3711" x2="203.2" y1="348.84" x1="203.2" y2="687.84"/>
				<line id="line3713" x2="213.2" y1="348.84" x1="213.2" y2="687.84"/>
				<line id="line3715" x2="223.2" y1="348.84" x1="223.2" y2="687.84"/>
				<line id="line3717" x2="233.2" y1="348.84" x1="233.2" y2="687.84"/>
				<line id="line3719" x2="243.2" y1="348.84" x1="243.2" y2="687.84"/>
				<line id="line3721" x2="253.2" y1="348.84" x1="253.2" y2="687.84"/>
				<line id="line3723" x2="263.2" y1="348.84" x1="263.2" y2="687.84"/>
				<line id="line3725" x2="273.2" y1="348.84" x1="273.2" y2="687.84"/>
				<line id="line3727" x2="283.2" y1="348.84" x1="283.2" y2="687.84"/>
				<line id="line3729" x2="293.2" y1="348.84" x1="293.2" y2="687.84"/>
				<line id="line3731" x2="303.2" y1="348.84" x1="303.2" y2="687.84"/>
				<line id="line3733" x2="313.2" y1="348.84" x1="313.2" y2="687.84"/>
				<line id="line3735" x2="323.2" y1="348.84" x1="323.2" y2="687.84"/>
				<line id="line3737" x2="333.2" y1="348.84" x1="333.2" y2="687.84"/>
				<line id="line3739" x2="343.2" y1="348.84" x1="343.2" y2="687.84"/>
				<line id="line3741" x2="353.2" y1="348.84" x1="353.2" y2="687.84"/>
				<line id="line3743" x2="363.2" y1="348.84" x1="363.2" y2="687.84"/>
				<line id="line3745" x2="373.2" y1="348.84" x1="373.2" y2="687.84"/>
				<line id="line3747" x2="383.2" y1="348.84" x1="383.2" y2="687.84"/>
				<line id="line3749" x2="393.2" y1="348.84" x1="393.2" y2="687.84"/>
				<line id="line3751" x2="403.2" y1="348.84" x1="403.2" y2="687.84"/>
				<line id="line3753" x2="413.2" y1="348.84" x1="413.2" y2="687.84"/>
				<line id="line3755" x2="423.2" y1="348.84" x1="423.2" y2="687.84"/>
				<line id="line3757" x2="433.2" y1="348.84" x1="433.2" y2="687.84"/>
				<line id="line3759" x2="443.2" y1="348.84" x1="443.2" y2="687.84"/>
				<line id="line3761" x2="453.2" y1="348.84" x1="453.2" y2="687.84"/>
				<line id="line3763" x2="463.2" y1="348.84" x1="463.2" y2="687.84"/>
				<line id="line3765" x2="473.2" y1="348.84" x1="473.2" y2="687.84"/>
				<line id="line3767" x2="483.2" y1="348.84" x1="483.2" y2="687.84"/>
				<line id="line3769" x2="493.2" y1="348.84" x1="493.2" y2="687.84"/>
				<line id="line3771" x2="503.2" y1="348.84" x1="503.2" y2="687.84"/>
				<line id="line3773" x2="513.2" y1="348.84" x1="513.2" y2="687.84"/>
				<line id="line3775" x2="523.2" y1="348.84" x1="523.2" y2="687.84"/>
				<line id="line3777" x2="533.2" y1="348.84" x1="533.2" y2="687.84"/>
				<line id="line3779" x2="543.2" y1="348.84" x1="543.2" y2="687.84"/>
				<line id="line3781" x2="553.2" y1="348.84" x1="553.2" y2="687.84"/>
				<line id="line3783" x2="563.2" y1="348.84" x1="563.2" y2="687.84"/>
				<line id="line3785" x2="573.2" y1="348.84" x1="573.2" y2="687.84"/>
				<line id="line3787" x2="583.2" y1="348.84" x1="583.2" y2="687.84"/>
				<line id="line3789" x2="593.2" y1="348.84" x1="593.2" y2="687.84"/>
				<line id="line3791" x2="603.2" y1="348.84" x1="603.2" y2="687.84"/>
				<line id="line3793" x2="613.2" y1="348.84" x1="613.2" y2="687.84"/>
				<line id="line3795" x2="623.2" y1="348.84" x1="623.2" y2="687.84"/>
			</g>
			<polygon id="polygon3797" points="113.2 358.84 633.2 358.84 633.2 348.84 103.2 348.84 103.2 687.36 113.2 687.36" fill="#6D6D6D"/>
			<g id="g3799" stroke="#B7B7B7" stroke-miterlimit="10" fill="none">
				<line id="line3801" x2="112.2" y1="348.84" x1="112.2" y2="687.84"/>
				<line id="line3803" x2="122.2" y1="348.84" x1="122.2" y2="687.84"/>
				<line id="line3805" x2="132.2" y1="348.84" x1="132.2" y2="687.84"/>
				<line id="line3807" x2="142.2" y1="348.84" x1="142.2" y2="687.84"/>
				<line id="line3809" x2="152.2" y1="348.84" x1="152.2" y2="687.84"/>
				<line id="line3811" x2="162.2" y1="348.84" x1="162.2" y2="687.84"/>
				<line id="line3813" x2="172.2" y1="348.84" x1="172.2" y2="687.84"/>
				<line id="line3815" x2="182.2" y1="348.84" x1="182.2" y2="687.84"/>
				<line id="line3817" x2="192.2" y1="348.84" x1="192.2" y2="687.84"/>
				<line id="line3819" x2="202.2" y1="348.84" x1="202.2" y2="687.84"/>
				<line id="line3821" x2="212.2" y1="348.84" x1="212.2" y2="687.84"/>
				<line id="line3823" x2="222.2" y1="348.84" x1="222.2" y2="687.84"/>
				<line id="line3825" x2="232.2" y1="348.84" x1="232.2" y2="687.84"/>
				<line id="line3827" x2="242.2" y1="348.84" x1="242.2" y2="687.84"/>
				<line id="line3829" x2="252.2" y1="348.84" x1="252.2" y2="687.84"/>
				<line id="line3831" x2="262.2" y1="348.84" x1="262.2" y2="687.84"/>
				<line id="line3833" x2="272.2" y1="348.84" x1="272.2" y2="687.84"/>
				<line id="line3835" x2="282.2" y1="348.84" x1="282.2" y2="687.84"/>
				<line id="line3837" x2="292.2" y1="348.84" x1="292.2" y2="687.84"/>
				<line id="line3839" x2="302.2" y1="348.84" x1="302.2" y2="687.84"/>
				<line id="line3841" x2="312.2" y1="348.84" x1="312.2" y2="687.84"/>
				<line id="line3843" x2="322.2" y1="348.84" x1="322.2" y2="687.84"/>
				<line id="line3845" x2="332.2" y1="348.84" x1="332.2" y2="687.84"/>
				<line id="line3847" x2="342.2" y1="348.84" x1="342.2" y2="687.84"/>
				<line id="line3849" x2="352.2" y1="348.84" x1="352.2" y2="687.84"/>
				<line id="line3851" x2="362.2" y1="348.84" x1="362.2" y2="687.84"/>
				<line id="line3853" x2="372.2" y1="348.84" x1="372.2" y2="687.84"/>
				<line id="line3855" x2="382.2" y1="348.84" x1="382.2" y2="687.84"/>
				<line id="line3857" x2="392.2" y1="348.84" x1="392.2" y2="687.84"/>
				<line id="line3859" x2="402.2" y1="348.84" x1="402.2" y2="687.84"/>
				<line id="line3861" x2="412.2" y1="348.84" x1="412.2" y2="687.84"/>
				<line id="line3863" x2="422.2" y1="348.84" x1="422.2" y2="687.84"/>
				<line id="line3865" x2="432.2" y1="348.84" x1="432.2" y2="687.84"/>
				<line id="line3867" x2="442.2" y1="348.84" x1="442.2" y2="687.84"/>
				<line id="line3869" x2="452.2" y1="348.84" x1="452.2" y2="687.84"/>
				<line id="line3871" x2="462.2" y1="348.84" x1="462.2" y2="687.84"/>
				<line id="line3873" x2="472.2" y1="348.84" x1="472.2" y2="687.84"/>
				<line id="line3875" x2="482.2" y1="348.84" x1="482.2" y2="687.84"/>
				<line id="line3877" x2="492.2" y1="348.84" x1="492.2" y2="687.84"/>
				<line id="line3879" x2="502.2" y1="348.84" x1="502.2" y2="687.84"/>
				<line id="line3881" x2="512.2" y1="348.84" x1="512.2" y2="687.84"/>
				<line id="line3883" x2="522.2" y1="348.84" x1="522.2" y2="687.84"/>
				<line id="line3885" x2="532.2" y1="348.84" x1="532.2" y2="687.84"/>
				<line id="line3887" x2="542.2" y1="348.84" x1="542.2" y2="687.84"/>
				<line id="line3889" x2="552.2" y1="348.84" x1="552.2" y2="687.84"/>
				<line id="line3891" x2="562.2" y1="348.84" x1="562.2" y2="687.84"/>
				<line id="line3893" x2="572.2" y1="348.84" x1="572.2" y2="687.84"/>
				<line id="line3895" x2="582.2" y1="348.84" x1="582.2" y2="687.84"/>
				<line id="line3897" x2="592.2" y1="348.84" x1="592.2" y2="687.84"/>
				<line id="line3899" x2="602.2" y1="348.84" x1="602.2" y2="687.84"/>
				<line id="line3901" x2="612.2" y1="348.84" x1="612.2" y2="687.84"/>
				<line id="line3903" x2="622.2" y1="348.84" x1="622.2" y2="687.84"/>
			</g>
				<rect id="rect3905" height="338.52" width="530" stroke="#383838" stroke-miterlimit="10" y="348.84" x="103.2" stroke-width="3" fill="none"/>
		</g>
		<g id="g3907">
			<rect id="rect3909" opacity=".3" height="118.48" width="119.36" y="561.27" x="498.4" fill="#183049"/>
			<g id="g3911">
				<rect id="rect3913" opacity=".4" height="268.29" width="110" y="384.2" x="118.56" fill="#183049"/>
				<g id="g3915" opacity=".2">
					<rect id="rect3917" height="9.047" width="5.344" y="650.1" x="195.07" fill="#183049"/>
					<path id="path3919" d="m197.49 658.14c1.5 40.5 87.549-34.975 119-3.523 53.884 53.884 110.1 2.023 191.5 2.023" stroke="#183049" stroke-miterlimit="10" stroke-width="2" fill="none"/>
				</g>
				<g id="g3921">
					<rect id="rect3923" height="9.047" width="5.344" y="648.2" x="194.37" fill="#232323"/>
					<path id="path3925" d="m196.79 656.24c1.5 40.5 87.549-34.975 119-3.523 53.883 53.884 110.1 2.023 191.5 2.023" stroke="#232323" stroke-miterlimit="10" stroke-width="2" fill="none"/>
				</g>
				<g id="g3927">
					<rect id="rect3929" height="260" width="101" y="388.2" x="123.25" fill="#0D2735"/>
					<g id="g3931" stroke="#0F303F" stroke-miterlimit="10" fill="none">
						<g id="g3933">
							<line id="line3935" x2="121.75" y1="398.2" x1="225.75" y2="398.2"/>
							<line id="line3937" x2="121.75" y1="408.2" x1="225.75" y2="408.2"/>
							<line id="line3939" x2="121.75" y1="418.2" x1="225.75" y2="418.2"/>
							<line id="line3941" x2="121.75" y1="428.2" x1="225.75" y2="428.2"/>
							<line id="line3943" x2="121.75" y1="438.2" x1="225.75" y2="438.2"/>
							<line id="line3945" x2="121.75" y1="448.2" x1="225.75" y2="448.2"/>
							<line id="line3947" x2="121.75" y1="458.2" x1="225.75" y2="458.2"/>
							<line id="line3949" x2="121.75" y1="468.2" x1="225.75" y2="468.2"/>
							<line id="line3951" x2="121.75" y1="478.2" x1="225.75" y2="478.2"/>
							<line id="line3953" x2="121.75" y1="488.2" x1="225.75" y2="488.2"/>
							<line id="line3955" x2="121.75" y1="498.2" x1="225.75" y2="498.2"/>
							<line id="line3957" x2="121.75" y1="508.2" x1="225.75" y2="508.2"/>
							<line id="line3959" x2="121.75" y1="518.2" x1="225.75" y2="518.2"/>
							<line id="line3961" x2="121.75" y1="528.2" x1="225.75" y2="528.2"/>
							<line id="line3963" x2="121.75" y1="538.2" x1="225.75" y2="538.2"/>
							<line id="line3965" x2="121.75" y1="548.2" x1="225.75" y2="548.2"/>
							<line id="line3967" x2="121.75" y1="558.2" x1="225.75" y2="558.2"/>
							<line id="line3969" x2="121.75" y1="568.2" x1="225.75" y2="568.2"/>
							<line id="line3971" x2="121.75" y1="578.2" x1="225.75" y2="578.2"/>
							<line id="line3973" x2="121.75" y1="588.2" x1="225.75" y2="588.2"/>
							<line id="line3975" x2="121.75" y1="598.2" x1="225.75" y2="598.2"/>
							<line id="line3977" x2="121.75" y1="608.2" x1="225.75" y2="608.2"/>
							<line id="line3979" x2="121.75" y1="618.2" x1="225.75" y2="618.2"/>
							<line id="line3981" x2="121.75" y1="628.2" x1="225.75" y2="628.2"/>
							<line id="line3983" x2="121.75" y1="638.2" x1="225.75" y2="638.2"/>
						</g>
						<line id="line3985" x2="133.35" y1="388.2" x1="133.35" y2="648.2"/>
						<line id="line3987" x2="143.45" y1="388.2" x1="143.45" y2="648.2"/>
						<line id="line3989" x2="153.55" y1="388.2" x1="153.55" y2="648.2"/>
						<line id="line3991" x2="163.65" y1="388.2" x1="163.65" y2="648.2"/>
						<line id="line3993" x2="173.75" y1="388.2" x1="173.75" y2="648.2"/>
						<line id="line3995" x2="183.85" y1="388.2" x1="183.85" y2="648.2"/>
						<line id="line3997" x2="193.95" y1="388.2" x1="193.95" y2="648.2"/>
						<line id="line3999" x2="204.05" y1="388.2" x1="204.05" y2="648.2"/>
						<line id="line4001" x2="214.15" y1="388.2" x1="214.15" y2="648.2"/>
					</g>
						<rect id="rect4003" height="260" width="101" stroke="#CCAE00" stroke-miterlimit="10" y="388.2" x="123.25" stroke-width="3" fill="none"/>
					<g id="g4005" stroke="#CCAE00" stroke-width="2" stroke-miterlimit="10">
							<line id="line4007" y2="648.2" x2="173.75" y1="388.2" x1="173.75" fill="none"/>
							<line id="line4009" y2="518.2" x2="121.75" y1="518.2" x1="225.75" fill="none"/>
							<line id="line4011" y2="453.2" x2="121.75" y1="453.2" x1="225.75" fill="#0D2735"/>
							<line id="line4013" y2="583.2" x2="121.75" y1="583.2" x1="225.75" fill="none"/>
					</g>
					<linearGradient id="SVGID_3_" y2="431.84" gradientUnits="userSpaceOnUse" x2="154.04" y1="379.84" x1="129.54">
						<stop id="stop4016" stop-color="#fff" stop-opacity=".4" offset="0"/>
						<stop id="stop4018" stop-color="#fff" stop-opacity="0" offset="1"/>
					</linearGradient>
					<rect id="rect4020" height="55" width="40" y="393.2" x="128.79" fill="url(#SVGID_3_)"/>
					<linearGradient id="SVGID_4_" y2="431.84" gradientUnits="userSpaceOnUse" x2="203.54" y1="379.84" x1="179.04">
						<stop id="stop4023" stop-color="#fff" stop-opacity=".4" offset="0"/>
						<stop id="stop4025" stop-color="#fff" stop-opacity="0" offset="1"/>
					</linearGradient>
					<rect id="rect4027" height="55" width="40" y="393.2" x="178.29" fill="url(#SVGID_4_)"/>
					<linearGradient id="SVGID_5_" y2="495.84" gradientUnits="userSpaceOnUse" x2="154.04" y1="443.84" x1="129.54">
						<stop id="stop4030" stop-color="#fff" stop-opacity=".4" offset="0"/>
						<stop id="stop4032" stop-color="#fff" stop-opacity="0" offset="1"/>
					</linearGradient>
					<rect id="rect4034" height="55" width="40" y="457.2" x="128.79" fill="url(#SVGID_5_)"/>
					<linearGradient id="SVGID_6_" y2="495.84" gradientUnits="userSpaceOnUse" x2="203.54" y1="443.84" x1="179.04">
						<stop id="stop4037" stop-color="#fff" stop-opacity=".4" offset="0"/>
						<stop id="stop4039" stop-color="#fff" stop-opacity="0" offset="1"/>
					</linearGradient>
					<rect id="rect4041" height="55" width="40" y="457.2" x="178.29" fill="url(#SVGID_6_)"/>
					<linearGradient id="SVGID_7_" y2="560.74" gradientUnits="userSpaceOnUse" x2="154.04" y1="508.74" x1="129.54">
						<stop id="stop4044" stop-color="#fff" stop-opacity=".4" offset="0"/>
						<stop id="stop4046" stop-color="#fff" stop-opacity="0" offset="1"/>
					</linearGradient>
					<rect id="rect4048" height="55" width="40" y="522.09" x="128.79" fill="url(#SVGID_7_)"/>
					<linearGradient id="SVGID_8_" y2="560.74" gradientUnits="userSpaceOnUse" x2="203.54" y1="508.74" x1="179.04">
						<stop id="stop4051" stop-color="#fff" stop-opacity=".4" offset="0"/>
						<stop id="stop4053" stop-color="#fff" stop-opacity="0" offset="1"/>
					</linearGradient>
					<rect id="rect4055" height="55" width="40" y="522.09" x="178.29" fill="url(#SVGID_8_)"/>
					<linearGradient id="SVGID_9_" y2="625.64" gradientUnits="userSpaceOnUse" x2="154.04" y1="573.64" x1="129.54">
						<stop id="stop4058" stop-color="#fff" stop-opacity=".4" offset="0"/>
						<stop id="stop4060" stop-color="#fff" stop-opacity="0" offset="1"/>
					</linearGradient>
					<rect id="rect4062" height="55" width="40" y="586.99" x="128.79" fill="url(#SVGID_9_)"/>
					<linearGradient id="SVGID_10_" y2="625.64" gradientUnits="userSpaceOnUse" x2="203.54" y1="573.64" x1="179.04">
						<stop id="stop4065" stop-color="#fff" stop-opacity=".4" offset="0"/>
						<stop id="stop4067" stop-color="#fff" stop-opacity="0" offset="1"/>
					</linearGradient>
					<rect id="rect4069" height="55" width="40" y="586.99" x="178.29" fill="url(#SVGID_10_)"/>
				</g>
			</g>
			<g id="g4071">
					<rect id="rect4073" height="110" width="110" stroke="#847061" stroke-miterlimit="10" y="564.93" x="503.2" stroke-width="3" fill="#C6B198"/>
				<rect id="rect4075" height="79.2" width="79.2" y="580.33" x="518.6" fill="#E5BE98"/>
				<polygon id="polygon4077" points="525 585.73 597.8 585.73 597.8 580.33 518.6 580.33 518.6 659.53 525 659.53" fill="#CCA07F"/>
					<rect id="rect4079" height="79.2" width="79.2" stroke="#826E5F" stroke-miterlimit="10" y="580.33" x="518.6" stroke-width="3" fill="none"/>
			</g>
		</g>
	</g>
</g>
</svg>
