<?xml version="1.0" encoding="utf-8"?>
<!-- Generator: Adobe Illustrator 19.2.1, SVG Export Plug-In . SVG Version: 6.00 Build 0)  -->
<svg version="1.1" id="Layer_1" xmlns="http://www.w3.org/2000/svg" xmlns:xlink="http://www.w3.org/1999/xlink" x="0px" y="0px"
	 width="257.7px" height="345.3px" viewBox="0 0 257.7 345.3" style="enable-background:new 0 0 257.7 345.3;" xml:space="preserve"
	>
<style type="text/css">
	.st0{opacity:0.2;}
	.st1{fill:#183049;}
	.st2{fill:url(#SVGID_1_);}
	.st3{fill:none;stroke:#876612;stroke-width:3.7356;stroke-miterlimit:10;}
	.st4{fill:url(#SVGID_2_);}
	.st5{fill:none;}
	.st6{fill:#B6E7EF;}
	.st7{fill:url(#SVGID_3_);}
	.st8{fill:url(#SVGID_4_);}
	.st9{fill:url(#SVGID_5_);}
	.st10{fill:url(#SVGID_6_);}
	.st11{fill:url(#SVGID_7_);}
	.st12{fill:url(#SVGID_8_);}
	.st13{fill:url(#SVGID_9_);}
	.st14{fill:url(#SVGID_10_);}
	.st15{fill:url(#SVGID_11_);}
	.st16{fill:url(#SVGID_12_);}
	.st17{fill:url(#SVGID_13_);}
	.st18{fill:url(#SVGID_14_);}
	.st19{fill:url(#SVGID_15_);}
	.st20{fill:url(#SVGID_16_);}
	.st21{fill:url(#SVGID_17_);}
	.st22{fill:url(#SVGID_18_);}
	.st23{fill:url(#SVGID_19_);}
	.st24{fill:url(#SVGID_20_);}
	.st25{fill:url(#SVGID_21_);}
	.st26{fill:url(#SVGID_22_);}
	.st27{opacity:0.6;}
	.st28{fill:url(#SVGID_23_);}
	.st29{fill:none;stroke:#93763D;stroke-width:1.2452;stroke-miterlimit:10;}
	.st30{fill:#A55137;stroke:#84341F;stroke-width:1.2452;stroke-miterlimit:10;}
	.st31{fill:#D69E8A;stroke:#AF6C58;stroke-width:1.2452;stroke-miterlimit:10;}
	.st32{fill:#9B3123;stroke:#60150F;stroke-width:2.4904;stroke-miterlimit:10;}
	.st33{stroke:#60150F;stroke-width:1.2452;stroke-miterlimit:10;}
	.st34{fill:none;stroke:#D69E8A;stroke-width:1.2452;stroke-linecap:round;stroke-miterlimit:10;}
	.st35{fill:#D69E8A;}
	.st36{fill:none;stroke:#876612;stroke-width:1.2452;stroke-miterlimit:10;}
	.st37{fill:url(#SVGID_24_);}
	.st38{fill:url(#SVGID_25_);}
	.st39{fill:url(#SVGID_26_);}
	.st40{fill:url(#SVGID_27_);}
	.st41{fill:url(#SVGID_28_);}
	.st42{fill:url(#SVGID_29_);}
	.st43{fill:url(#SVGID_30_);}
	.st44{fill:url(#SVGID_31_);}
	.st45{fill:url(#SVGID_32_);}
	.st46{fill:url(#SVGID_33_);}
</style>
<g class="st0">
	<path class="st1" d="M245.5,300.4c0,6.8-5.3,14.2-11.8,16.4l-81.4,26.9c-6.5,2.2-17.1,2.1-23.6-0.1l-78.3-26.7
		c-6.5-2.2-11.8-9.6-11.8-16.5l-0.1-59.5c0-6.8-5.4-14-12-16l-1.4-0.4c-6.6-1.9-14-8.8-16.4-15.1l-6.8-17.6
		c-2.5-6.4-2.5-16.9-0.1-23.3l7.1-18.8c2.4-6.4,9.9-12.7,16.6-14.1l0.8-0.2c6.7-1.3,12.2-8,12.2-14.9l0.1-59.4
		c0-6.8,5.3-14.3,11.8-16.5L128.7,18c6.5-2.2,17.1-2.3,23.6-0.1l81.4,26.9c6.5,2.2,11.8,9.5,11.8,16.4V300.4L245.5,300.4z"/>
</g>
<linearGradient id="SVGID_1_" gradientUnits="userSpaceOnUse" x1="15.5033" y1="733.157" x2="96.9567" y2="733.157" gradientTransform="matrix(1 0 0 1 -8.3599 -553.64)">
	<stop  offset="0" style="stop-color:#E5F7FF"/>
	<stop  offset="0.2704" style="stop-color:#EEF7FF"/>
	<stop  offset="0.4286" style="stop-color:#E4F7FF"/>
	<stop  offset="1" style="stop-color:#EEF7FF"/>
</linearGradient>
<polygon class="st2" points="87.7,179.6 88.6,181.5 86.9,183.3 87.1,185.1 87.7,187.1 86.6,188.8 85.9,190.5 85.2,192.2 85.5,194.3 
	84,195.7 83.5,197.5 83.2,199.4 81.4,200.5 81,202.5 79.4,203.6 78.3,205.1 77.1,206.5 75.6,207.6 74.3,208.9 73.5,210.8 
	72.2,212.1 70.1,212.4 68.9,214 67.6,215.5 65.7,215.9 63.7,215.9 62.4,217.8 60.5,217.8 58.6,218.2 56.8,218.7 55,219.2 
	53.1,218.7 51.4,220.4 49.5,219.7 47.7,219.9 45.8,219 43.9,220.3 42.1,219.4 40.1,219.8 38.4,218.8 36.7,218.3 34.6,218.5 
	33.2,217 31.4,216.4 29.6,216 28.2,214.6 26.5,213.9 25.3,212.3 23.6,211.5 21.6,211 21,208.8 19.1,208.2 17.6,207 16.7,205.3 
	16.1,203.4 14.8,202.1 13.8,200.6 12.8,199 11.4,197.7 10.9,195.9 10.1,194.2 10.2,192.2 9.5,190.5 8.2,188.9 7.7,187.1 8.3,185.1 
	8,183.3 7.9,181.5 7.9,179.6 7.2,177.8 7.1,175.9 7.2,174 7.4,172.1 8,170.3 9,168.6 9.5,166.9 10.2,165.1 11.2,163.5 11.4,161.6 
	12.2,159.9 13,158.2 13.8,156.4 15.9,155.7 17,154.2 18,152.6 19,151 20.2,149.5 22.3,149.1 23.1,147.1 25,146.6 26.3,145.2 
	28,144.4 29.4,143 31.7,143.5 33.2,142.4 34.9,141.5 36.5,140.4 38.5,140.9 40.4,140.6 42,139.5 43.9,139.2 45.8,139.4 47.7,138.9 
	49.5,138.7 51.3,140 53.3,139.2 55,140.4 56.7,141.2 58.8,140.3 60.7,140.8 62.4,141.6 63.8,143.1 65.5,143.8 67.5,144 68.5,146 
	70.3,146.5 71.7,147.7 73.7,148.3 74.9,149.7 76.3,151 77.2,152.7 78.6,153.9 80,155.2 80.9,156.9 81.7,158.6 82.3,160.3 
	83.5,161.8 84.2,163.5 84.5,165.4 85.5,166.9 86.1,168.7 86.5,170.5 87.5,172.2 87.9,174 87.6,175.9 87.1,177.8 "/>
<polygon class="st3" points="87.7,179.6 88.6,181.5 86.9,183.3 87.1,185.1 87.7,187.1 86.6,188.8 85.9,190.5 85.2,192.2 85.5,194.3 
	84,195.7 83.5,197.5 83.2,199.4 81.4,200.5 81,202.5 79.4,203.6 78.3,205.1 77.1,206.5 75.6,207.6 74.3,208.9 73.5,210.8 
	72.2,212.1 70.1,212.4 68.9,214 67.6,215.5 65.7,215.9 63.7,215.9 62.4,217.8 60.5,217.8 58.6,218.2 56.8,218.7 55,219.2 
	53.1,218.7 51.4,220.4 49.5,219.7 47.7,219.9 45.8,219 43.9,220.3 42.1,219.4 40.1,219.8 38.4,218.8 36.7,218.3 34.6,218.5 
	33.2,217 31.4,216.4 29.6,216 28.2,214.6 26.5,213.9 25.3,212.3 23.6,211.5 21.6,211 21,208.8 19.1,208.2 17.6,207 16.7,205.3 
	16.1,203.4 14.8,202.1 13.8,200.6 12.8,199 11.4,197.7 10.9,195.9 10.1,194.2 10.2,192.2 9.5,190.5 8.2,188.9 7.7,187.1 8.3,185.1 
	8,183.3 7.9,181.5 7.9,179.6 7.2,177.8 7.1,175.9 7.2,174 7.4,172.1 8,170.3 9,168.6 9.5,166.9 10.2,165.1 11.2,163.5 11.4,161.6 
	12.2,159.9 13,158.2 13.8,156.4 15.9,155.7 17,154.2 18,152.6 19,151 20.2,149.5 22.3,149.1 23.1,147.1 25,146.6 26.3,145.2 
	28,144.4 29.4,143 31.7,143.5 33.2,142.4 34.9,141.5 36.5,140.4 38.5,140.9 40.4,140.6 42,139.5 43.9,139.2 45.8,139.4 47.7,138.9 
	49.5,138.7 51.3,140 53.3,139.2 55,140.4 56.7,141.2 58.8,140.3 60.7,140.8 62.4,141.6 63.8,143.1 65.5,143.8 67.5,144 68.5,146 
	70.3,146.5 71.7,147.7 73.7,148.3 74.9,149.7 76.3,151 77.2,152.7 78.6,153.9 80,155.2 80.9,156.9 81.7,158.6 82.3,160.3 
	83.5,161.8 84.2,163.5 84.5,165.4 85.5,166.9 86.1,168.7 86.5,170.5 87.5,172.2 87.9,174 87.6,175.9 87.1,177.8 "/>
<linearGradient id="SVGID_2_" gradientUnits="userSpaceOnUse" x1="18.4606" y1="735.2831" x2="50.3402" y2="735.2831" gradientTransform="matrix(1 0 0 1 -8.3599 -553.64)">
	<stop  offset="0" style="stop-color:#D1DFE7"/>
	<stop  offset="0.2704" style="stop-color:#EEF7FF"/>
	<stop  offset="0.4286" style="stop-color:#E4F7FF"/>
	<stop  offset="1" style="stop-color:#D4ECFC"/>
</linearGradient>
<path class="st4" d="M40.6,197.3c0.3,5.5-3.7,12.2-6.6,16.8c1.8-4.5,4.3-9.3,5.1-14.1c-2.5,2.2-4.5,5.6-6.2,8.7
	c0.3-0.9,0.5-1.9,0.8-2.9c-2.4,1.7-4.8,4-7.2,6c2.4-5.4,6.5-10.3,9.1-15.7c-3.6,2.4-6.8,5.6-11,7c1.1-1.1,1.9-2.8,2.9-3.9
	c-3.2,1.3-6.6,2.5-10.1,2.7c3.2-1.1,6.4-3.2,8-6c-2.1,1.2-4.4,2.3-6.8,2.9c2.2-1.8,4.7-3.8,6.2-6c-2.8,0.9-6,1.7-8.9,2.3
	c1.5-1,2.5-2.4,3.8-3.4c-2,0.4-4.8,1.2-7.1,1.4c4.5-2.5,9.5-4,13.8-6.8c-5.4,1-10.9,1.3-16.3,2.3c5.4-2.2,11.1-3.8,16.3-6.5
	c-3.6-0.8-8.4,0.6-12.4-0.2c2.5-0.4,5.2-0.9,7.7-1.7c-0.9-0.5-2.3-1.3-3.4-1.6c0.6,0.2,1.7,0.4,2.2,0.6c0.2,0,0.2,0,0.1,0
	c-3-0.3-5.6-1.9-7.9-3.7c5.6,0,11.3-2,16.8-3c-4.4-2.9-9.6-5.8-13.6-9.3c4.7,1.2,9.3,4,14.2,4.7c-3-3-5.6-7-6.6-11.1
	c2.2,2.9,5.2,5.2,8.7,6c-2.3-3.5-4.1-7.9-4.7-12.1c1.9,2.7,3.2,6.3,6,8c1-2.9,0.2-6.3,0.2-9.6c1.4,4.2,2.7,8.8,4.1,12.8
	c0.5-3.5-0.6-7.2-1.2-10.5c0.4,6,2.1,11.9,4.1,17.6c-2.1-1.4-3.8-3.3-5-5.5c0.3,0.8,0.6,1.6,1,2.4c-1.2-0.9-2.7-1.5-3.9-2.7
	c1,1.2,1.7,3.1,2.7,4.5c-1.3-0.9-2.9-1.6-4.1-2.7c1.8,2,3.7,4,4.7,6.6c-1.9-1.2-4.2-2-6.1-2.7c1.8,2.2,4,4.4,5.7,6.8
	c-3.1-0.1-6.3,0.3-9,1.7c2.5,0,5,0,7.5,0c-1.9,0.9-3.7,2.1-5.7,2.9c1.4,0,2.5,0.5,3.8,0.7c-2.5,1-5,2.2-7.4,3.5
	c2.7-0.3,5.5-0.7,8.2-0.5c-2.5,2.6-6.4,4.8-9,7.8c1.9-0.6,4.2-0.8,6.1-1.4c-1.5,0.9-2.6,2.3-3.9,3.3c0.6-0.1,1.7-0.2,2.5-0.4
	c-0.9,0.7-1.8,1.6-2.6,2.3c1.3-0.5,3.2-0.5,4.5-1c-1.3,1.1-2.6,2.9-4,3.9c4.3-0.6,8.2-3.9,12.3-5.7c-1.2,1.8-2.4,4.3-2.6,6.6
	c2-1.7,3.9-3.8,5.8-5.6c-0.7,1.2-0.6,2.6-1,3.9"/>
<line class="st5" x1="47.7" y1="179.6" x2="47.6" y2="147.3"/>
<polygon class="st6" points="47,179.6 47.6,147.3 48.3,179.6 "/>
<line class="st5" x1="47.7" y1="179.6" x2="54.4" y2="159"/>
<polygon class="st6" points="47.1,179.4 54.4,159 48.2,179.8 "/>
<line class="st5" x1="47.7" y1="179.6" x2="74" y2="172.7"/>
<polygon class="st6" points="47.5,179 74,172.7 47.8,180.2 "/>
<line class="st5" x1="47.7" y1="179.6" x2="26.6" y2="179.1"/>
<polygon class="st6" points="47.6,180.3 26.6,179.1 47.7,179 "/>
<line class="st5" x1="47.7" y1="179.6" x2="26.6" y2="194.1"/>
<polygon class="st6" points="48,180.1 26.6,194.1 47.3,179.1 "/>
<line class="st5" x1="47.7" y1="179.6" x2="39.6" y2="164.3"/>
<polygon class="st6" points="47.1,179.9 39.6,164.3 48.2,179.4 "/>
<line class="st5" x1="47.7" y1="179.6" x2="65.1" y2="195.4"/>
<polygon class="st6" points="48.1,179.2 65.1,195.4 47.2,180.1 "/>
<line class="st5" x1="47.7" y1="179.6" x2="42.8" y2="210.2"/>
<polygon class="st6" points="48.3,179.7 42.8,210.2 47,179.5 "/>
<line class="st5" x1="47.7" y1="179.6" x2="17.2" y2="193.3"/>
<polygon class="st6" points="47.9,180.2 17.2,193.3 47.4,179.1 "/>
<line class="st5" x1="47.7" y1="179.6" x2="20.5" y2="162.1"/>
<polygon class="st6" points="47.3,180.2 20.5,162.1 48,179.1 "/>
<line class="st5" x1="47.6" y1="179.6" x2="31.4" y2="207.6"/>
<polygon class="st6" points="48.2,179.9 31.4,207.6 47.1,179.3 "/>
<line class="st5" x1="47.6" y1="179.6" x2="31.4" y2="194"/>
<polygon class="st6" points="48.1,180.1 31.4,194 47.2,179.2 "/>
<line class="st5" x1="47.6" y1="179.6" x2="21.4" y2="172.5"/>
<polygon class="st6" points="47.5,180.2 21.4,172.5 47.8,179 "/>
<line class="st5" x1="47.6" y1="179.6" x2="65.6" y2="190.7"/>
<polygon class="st6" points="48,179.1 65.6,190.7 47.3,180.2 "/>
<line class="st5" x1="47.6" y1="179.6" x2="73.1" y2="177.7"/>
<polygon class="st6" points="47.6,179 73.1,177.7 47.7,180.3 "/>
<line class="st5" x1="47.6" y1="179.6" x2="46.9" y2="196.9"/>
<polygon class="st6" points="48.3,179.7 46.9,196.9 47,179.6 "/>
<line class="st5" x1="47.6" y1="179.6" x2="40.4" y2="157.2"/>
<polygon class="st6" points="47.1,179.8 40.4,157.2 48.2,179.5 "/>
<line class="st5" x1="47.6" y1="179.6" x2="67.2" y2="155.6"/>
<polygon class="st6" points="47.2,179.2 67.2,155.6 48.1,180 "/>
<line class="st5" x1="47.6" y1="179.6" x2="80.9" y2="183.1"/>
<polygon class="st6" points="47.7,179 80.9,183.1 47.6,180.3 "/>
<line class="st5" x1="47.6" y1="179.6" x2="62.3" y2="208.4"/>
<polygon class="st6" points="48.2,179.4 62.3,208.4 47.1,179.9 "/>
<line class="st5" x1="13.9" y1="189.7" x2="35" y2="182.1"/>
<path class="st6" d="M13.9,189.7c0,0,1.3-0.6,3.2-1.3c1-0.4,2.1-0.8,3.3-1.3c1.2-0.5,2.5-0.9,3.9-1.4c1.3-0.5,2.6-0.9,3.9-1.3
	c1.2-0.4,2.4-0.8,3.4-1.1c2-0.6,3.4-1,3.4-1s-1.3,0.6-3.2,1.3c-1,0.4-2.1,0.8-3.3,1.3c-1.2,0.5-2.5,0.9-3.9,1.4
	c-1.3,0.5-2.6,0.9-3.9,1.3c-1.2,0.4-2.4,0.8-3.4,1.1C15.3,189.3,13.9,189.7,13.9,189.7L13.9,189.7z"/>
<line class="st5" x1="19.8" y1="157.2" x2="39.3" y2="171.9"/>
<path class="st6" d="M19.8,157.2c0,0,1.3,0.8,3.1,2.2c0.9,0.7,2,1.4,3.2,2.3c1.1,0.9,2.4,1.8,3.6,2.7c1.2,0.9,2.4,1.9,3.6,2.7
	c1.1,0.9,2.2,1.7,3.1,2.4c1.8,1.4,2.9,2.4,2.9,2.4s-1.3-0.8-3.1-2.2c-0.9-0.7-2-1.4-3.2-2.3c-1.1-0.9-2.4-1.8-3.6-2.7
	c-1.2-0.9-2.4-1.9-3.5-2.7c-1.1-0.9-2.2-1.7-3.1-2.4C21,158.2,19.8,157.2,19.8,157.2L19.8,157.2z"/>
<line class="st5" x1="15.1" y1="165.4" x2="30.3" y2="173.4"/>
<path class="st6" d="M15.1,165.4c0,0,1,0.4,2.5,1.1c1.5,0.7,3.4,1.6,5.3,2.6c1.9,1,3.8,2,5.2,2.8c1.4,0.8,2.3,1.4,2.3,1.4
	s-1-0.4-2.5-1.1c-1.5-0.7-3.4-1.6-5.3-2.6c-1.9-1-3.8-2-5.2-2.8C16,166,15.1,165.4,15.1,165.4L15.1,165.4z"/>
<line class="st5" x1="27" y1="176.6" x2="13.1" y2="174.6"/>
<path class="st6" d="M27,176.6c0,0-0.9,0-2.2-0.1c-1.3-0.1-3.1-0.3-4.8-0.5c-1.7-0.2-3.5-0.6-4.7-0.8c-1.3-0.3-2.1-0.5-2.1-0.5
	s0.9,0,2.2,0.1c1.3,0.1,3.1,0.3,4.8,0.5c1.7,0.2,3.5,0.6,4.7,0.8C26.1,176.4,27,176.6,27,176.6L27,176.6z"/>
<line class="st5" x1="30.3" y1="149.2" x2="36.2" y2="159.3"/>
<path class="st6" d="M30.3,149.2c0,0,0.5,0.6,1.1,1.5c0.6,0.9,1.4,2.1,2.1,3.4c0.7,1.3,1.4,2.5,1.9,3.5c0.5,1,0.8,1.7,0.8,1.7
	s-0.5-0.6-1.1-1.5c-0.6-0.9-1.4-2.1-2.1-3.4c-0.7-1.3-1.4-2.5-1.9-3.5C30.6,149.9,30.3,149.2,30.3,149.2z"/>
<line class="st5" x1="23.6" y1="207.6" x2="35" y2="193.6"/>
<path class="st6" d="M23.6,207.6c0,0,0.6-0.9,1.7-2.3c1-1.4,2.4-3.1,3.8-4.9c1.4-1.7,2.9-3.5,4-4.7c1.1-1.3,1.9-2.1,1.9-2.1
	s-0.6,0.9-1.7,2.3c-1,1.4-2.4,3.1-3.8,4.9c-1.4,1.7-2.9,3.5-4,4.7C24.3,206.7,23.6,207.6,23.6,207.6L23.6,207.6z"/>
<linearGradient id="SVGID_3_" gradientUnits="userSpaceOnUse" x1="51.4958" y1="733.6152" x2="247.5262" y2="733.6152" gradientTransform="matrix(1 0 0 1 -8.3599 -553.64)">
	<stop  offset="0" style="stop-color:#E5F7FF"/>
	<stop  offset="0.2704" style="stop-color:#EEF7FF"/>
	<stop  offset="0.4286" style="stop-color:#E4F7FF"/>
	<stop  offset="1" style="stop-color:#EEF7FF"/>
</linearGradient>
<polygon class="st7" points="234,280.3 236.5,282.2 237.1,284.2 236.1,286.1 236.5,288.1 232.9,289.1 236.9,292.4 233.1,293 
	232.5,294.9 231.6,296.5 232,299 230.3,300.1 229.5,301.9 226.3,301.8 227.2,305.1 225.1,305.8 225.4,309 223.9,310.3 222.1,311.4 
	218.9,310.1 216.3,309.4 216.6,313.8 214.5,314.1 212.7,314.7 210,312.6 208.3,313.1 206.7,314.6 204.7,314.2 202.8,314.4 
	201.6,318.2 199.2,315.8 197.2,315.1 195.8,318.3 193.6,316.7 191.5,315.7 190.5,321.2 188.1,318.7 186.4,319.7 184.7,321.1 
	182.5,319.6 180.9,321.8 179.2,322.8 176.4,318.1 175.4,323.4 172.8,319.5 171.3,322.4 169.2,321 167.7,323.5 165.5,320.8 
	163.7,320.7 161.9,321.1 160.1,321.1 158.2,320.8 156.6,324.6 154.9,326.2 152.9,324.3 151,323.3 149.3,326.6 147.4,324.1 
	145.5,322.6 143.7,322.6 141.8,322.3 140,322.7 138.1,324.3 136.3,321.4 134.5,322.3 132.6,324.3 130.7,323.4 129,321.9 127,324.2 
	125.3,321.6 123.2,325.1 121.5,323.6 119.5,324.3 117.8,323.2 115.6,325.2 114.1,322.8 112.2,322.7 110.2,323.7 108.6,321.5 
	106.8,320.8 104.9,321 103.5,318.4 101,321.5 99.2,321.2 97.9,317.7 95.2,321.8 93.8,319 92,318.8 90.1,318.3 87.9,320.2 86.7,316 
	84.3,319 82.4,319.2 80.6,318 79.1,316 77.3,315 75.1,316.7 73.7,314.2 70.9,317 70.5,312.3 68.9,311.3 66.4,312.4 64.1,312.5 
	63,310.7 62.6,307.9 60,308.3 57.9,307.7 58.5,304.3 54.9,305.2 52.9,304.3 51.7,302.8 52,300.1 50.8,298.6 51.3,296.1 50.2,294.6 
	48.5,293.3 48.3,291.4 46.6,289.9 49.5,287.2 46.4,286 46.3,284.1 46.1,282.2 45.7,280.3 45.8,278.5 43.6,276.6 46.9,274.7 
	46.3,272.9 43.7,271 43.4,269.2 48.7,267.3 46,265.5 45.2,263.6 47.3,261.7 48,259.9 43.7,258 45,256.2 48.4,254.3 46.2,252.4 
	44.3,250.6 44.6,248.7 47,246.9 44.2,245 44,243.1 46.8,241.3 48.2,239.4 46.1,237.5 44.6,235.7 47.1,233.8 46.1,231.9 44.3,230.1 
	43.6,228.2 46.9,226.4 43.3,224.5 45.6,222.7 46.8,220.8 45.3,218.9 47.5,217.1 46.2,215.2 47.3,213.3 47.7,211.5 45.3,209.6 
	44.5,207.7 43.7,205.9 46.7,204 47.4,202.2 46.2,200.3 46.1,198.4 47.5,196.6 48.6,194.7 45.5,192.8 48.8,191 48.4,189.1 
	48.2,187.2 47.8,185.4 48.6,183.5 48.4,181.7 44.6,179.8 48.1,177.9 44.5,176.1 43.9,174.2 44.8,172.3 46.9,170.5 45.9,168.6 
	46.1,166.7 43.7,164.9 48.2,163 43.9,161.1 47.4,159.3 47.9,157.4 44.9,155.5 47.2,153.7 48,151.8 47.7,149.9 47.4,148.1 
	43.7,146.2 48.3,144.3 45.8,142.5 43.6,140.6 43.1,138.7 44.2,136.9 47.3,135 45.2,133.2 43.2,131.3 45,129.4 43.4,127.6 
	45.5,125.7 46,123.8 47.5,122 44.6,120.1 47.5,118.2 48.3,116.4 44.2,114.5 45.4,112.6 47.6,110.8 45.4,108.9 45.2,107 44.1,105.2 
	45.2,103.3 48.3,101.4 47,99.5 48.4,97.7 45.5,95.8 47.6,93.9 43.6,92.1 44.5,90.2 44.4,88.3 47.9,86.5 47.2,84.6 45.2,82.7 
	43.5,80.8 46.8,79 47.6,77.2 45.4,75.1 44.7,73 48.7,71.9 45.7,69.1 46.4,67.2 48.3,65.9 48.9,64 49.6,62.2 48.9,59.5 53.3,60.1 
	53.9,58.2 54.6,56.3 54.6,53.8 57.4,53.8 59.5,53.3 59,49.7 60.1,47.9 64.3,50.6 66.1,50.1 66.5,47 68,45.8 69.3,43.9 72.3,46.8 
	73,42.1 75.8,46.6 77.7,46.1 79.3,44.5 81.2,44.7 82.9,43.7 85.1,45 86,39.6 88.2,40.9 90,40.4 91.6,38.5 94.3,43.4 95.7,40.1 
	97.3,38.4 99.1,37.9 101.6,41.2 103.3,40 105.4,41.2 107,39.4 109,40 111,40.2 112.8,39.6 113.8,34.4 116.4,39.3 118,38.1 
	119.9,38.7 121.7,38.3 123.3,35.6 125.3,37.6 127.1,36.8 128.7,33.4 130.7,35 132.5,33.5 134.4,35.8 136.2,35.8 138.1,34 
	139.9,33.4 141.8,35.6 143.6,34.1 145.5,35.9 147.3,35.8 149.2,35.3 151,36.7 153,33.5 154.8,34.2 156.4,37.4 158.6,33.5 
	160.2,36.5 162.2,35.2 163.7,38.1 166,34.3 167.8,35.2 169.3,37.6 171.2,37.5 173.5,35.6 175.4,35.5 176.8,38.6 179,37 180.8,37.9 
	182.4,39.7 184.6,38.5 186,41.6 188.2,39.9 190,40.9 192,40 194.2,38.8 195.8,40.7 197.8,40.1 198.9,45.2 200.8,45.3 203.2,42.9 
	205.5,40.8 206.7,45.1 208.2,46.7 210.9,43.6 213.2,43.1 213.1,48.5 216,46.6 217.8,47.3 220.7,46.4 220.1,50.7 221.4,52 
	222.3,53.8 225.8,52.8 225.4,55.8 225.8,57.8 227.5,58.8 229,60 230.4,61.3 230.7,63.3 232.8,64.3 233,66.3 232,68.6 234,69.9 
	236,71.3 233.8,73.6 237.7,75 235.6,77.1 234.7,79 239,80.8 235.3,82.7 235.5,84.5 234,86.4 234.5,88.2 234.4,90.1 238,92 
	236.7,93.8 235.2,95.7 238.2,97.5 235.7,99.4 236.7,101.3 238.6,103.1 234.4,105 238.1,106.8 237.1,108.7 233.5,110.6 233.9,112.4 
	234.2,114.3 233.9,116.1 238.2,118 233.6,119.9 234.8,121.7 236.9,123.6 238.9,125.5 233.7,127.3 238.1,129.2 237.2,131 
	235.4,132.9 237,134.8 233.6,136.6 238.8,138.5 235,140.3 234.3,142.2 237.5,144.1 233.4,145.9 233.4,147.8 235.5,149.7 
	238.3,151.5 237.9,153.4 234,155.3 235.2,157.1 236.4,159 236.7,160.8 236.8,162.7 235.8,164.6 233.5,166.4 236.8,168.3 239,170.2 
	234.2,172 233.9,173.9 237,175.8 237.6,177.6 238.2,179.5 234.8,181.3 237.5,183.2 237.2,185.1 234.7,186.9 239.2,188.8 
	236.3,190.7 234.5,192.5 233.8,194.4 238.8,196.3 234.6,198.1 238.2,200 237.1,201.9 236.9,203.7 238.6,205.6 238,207.5 
	235.6,209.3 233.6,211.2 237.8,213.1 234.9,214.9 236.1,216.8 238.2,218.7 235.6,220.5 238.6,222.4 236.5,224.3 237.5,226.1 
	237.1,228 236.8,229.9 236.1,231.7 236.4,233.6 239.2,235.4 236.5,237.3 236,239.2 235.9,241 233.4,242.9 238.6,244.8 239,246.6 
	235.7,248.5 238.8,250.4 234.7,252.2 234.7,254.1 237.7,256 233.7,257.9 237.3,259.7 237.6,261.6 237.5,263.5 236.1,265.3 
	235.3,267.2 233.6,269.1 238.2,270.9 236.1,272.8 236.9,274.7 233.6,276.6 235.9,278.2 "/>
<polygon class="st3" points="234,280.3 236.5,282.2 237.1,284.2 236.1,286.1 236.5,288.1 232.9,289.1 236.9,292.4 233.1,293 
	232.5,294.9 231.6,296.5 232,299 230.3,300.1 229.5,301.9 226.3,301.8 227.2,305.1 225.1,305.8 225.4,309 223.9,310.3 222.1,311.4 
	218.9,310.1 216.3,309.4 216.6,313.8 214.5,314.1 212.7,314.7 210,312.6 208.3,313.1 206.7,314.6 204.7,314.2 202.8,314.4 
	201.6,318.2 199.2,315.8 197.2,315.1 195.8,318.3 193.6,316.7 191.5,315.7 190.5,321.2 188.1,318.7 186.4,319.7 184.7,321.1 
	182.5,319.6 180.9,321.8 179.2,322.8 176.4,318.1 175.4,323.4 172.8,319.5 171.3,322.4 169.2,321 167.7,323.5 165.5,320.8 
	163.7,320.7 161.9,321.1 160.1,321.1 158.2,320.8 156.6,324.6 154.9,326.2 152.9,324.3 151,323.3 149.3,326.6 147.4,324.1 
	145.5,322.6 143.7,322.6 141.8,322.3 140,322.7 138.1,324.3 136.3,321.4 134.5,322.3 132.6,324.3 130.7,323.4 129,321.9 127,324.2 
	125.3,321.6 123.2,325.1 121.5,323.6 119.5,324.3 117.8,323.2 115.6,325.2 114.1,322.8 112.2,322.7 110.2,323.7 108.6,321.5 
	106.8,320.8 104.9,321 103.5,318.4 101,321.5 99.2,321.2 97.9,317.7 95.2,321.8 93.8,319 92,318.8 90.1,318.3 87.9,320.2 86.7,316 
	84.3,319 82.4,319.2 80.6,318 79.1,316 77.3,315 75.1,316.7 73.7,314.2 70.9,317 70.5,312.3 68.9,311.3 66.4,312.4 64.1,312.5 
	63,310.7 62.6,307.9 60,308.3 57.9,307.7 58.5,304.3 54.9,305.2 52.9,304.3 51.7,302.8 52,300.1 50.8,298.6 51.3,296.1 50.2,294.6 
	48.5,293.3 48.3,291.4 46.6,289.9 49.5,287.2 46.4,286 46.3,284.1 46.1,282.2 45.7,280.3 45.8,278.5 43.6,276.6 46.9,274.7 
	46.3,272.9 43.7,271 43.4,269.2 48.7,267.3 46,265.5 45.2,263.6 47.3,261.7 48,259.9 43.7,258 45,256.2 48.4,254.3 46.2,252.4 
	44.3,250.6 44.6,248.7 47,246.9 44.2,245 44,243.1 46.8,241.3 48.2,239.4 46.1,237.5 44.6,235.7 47.1,233.8 46.1,231.9 44.3,230.1 
	43.6,228.2 46.9,226.4 43.3,224.5 45.6,222.7 46.8,220.8 45.3,218.9 47.5,217.1 46.2,215.2 47.3,213.3 47.7,211.5 45.3,209.6 
	44.5,207.7 43.7,205.9 46.7,204 47.4,202.2 46.2,200.3 46.1,198.4 47.5,196.6 48.6,194.7 45.5,192.8 48.8,191 48.4,189.1 
	48.2,187.2 47.8,185.4 48.6,183.5 48.4,181.7 44.6,179.8 48.1,177.9 44.5,176.1 43.9,174.2 44.8,172.3 46.9,170.5 45.9,168.6 
	46.1,166.7 43.7,164.9 48.2,163 43.9,161.1 47.4,159.3 47.9,157.4 44.9,155.5 47.2,153.7 48,151.8 47.7,149.9 47.4,148.1 
	43.7,146.2 48.3,144.3 45.8,142.5 43.6,140.6 43.1,138.7 44.2,136.9 47.3,135 45.2,133.2 43.2,131.3 45,129.4 43.4,127.6 
	45.5,125.7 46,123.8 47.5,122 44.6,120.1 47.5,118.2 48.3,116.4 44.2,114.5 45.4,112.6 47.6,110.8 45.4,108.9 45.2,107 44.1,105.2 
	45.2,103.3 48.3,101.4 47,99.5 48.4,97.7 45.5,95.8 47.6,93.9 43.6,92.1 44.5,90.2 44.4,88.3 47.9,86.5 47.2,84.6 45.2,82.7 
	43.5,80.8 46.8,79 47.6,77.2 45.4,75.1 44.7,73 48.7,71.9 45.7,69.1 46.4,67.2 48.3,65.9 48.9,64 49.6,62.2 48.9,59.5 53.3,60.1 
	53.9,58.2 54.6,56.3 54.6,53.8 57.4,53.8 59.5,53.3 59,49.7 60.1,47.9 64.3,50.6 66.1,50.1 66.5,47 68,45.8 69.3,43.9 72.3,46.8 
	73,42.1 75.8,46.6 77.7,46.1 79.3,44.5 81.2,44.7 82.9,43.7 85.1,45 86,39.6 88.2,40.9 90,40.4 91.6,38.5 94.3,43.4 95.7,40.1 
	97.3,38.4 99.1,37.9 101.6,41.2 103.3,40 105.4,41.2 107,39.4 109,40 111,40.2 112.8,39.6 113.8,34.4 116.4,39.3 118,38.1 
	119.9,38.7 121.7,38.3 123.3,35.6 125.3,37.6 127.1,36.8 128.7,33.4 130.7,35 132.5,33.5 134.4,35.8 136.2,35.8 138.1,34 
	139.9,33.4 141.8,35.6 143.6,34.1 145.5,35.9 147.3,35.8 149.2,35.3 151,36.7 153,33.5 154.8,34.2 156.4,37.4 158.6,33.5 
	160.2,36.5 162.2,35.2 163.7,38.1 166,34.3 167.8,35.2 169.3,37.6 171.2,37.5 173.5,35.6 175.4,35.5 176.8,38.6 179,37 180.8,37.9 
	182.4,39.7 184.6,38.5 186,41.6 188.2,39.9 190,40.9 192,40 194.2,38.8 195.8,40.7 197.8,40.1 198.9,45.2 200.8,45.3 203.2,42.9 
	205.5,40.8 206.7,45.1 208.2,46.7 210.9,43.6 213.2,43.1 213.1,48.5 216,46.6 217.8,47.3 220.7,46.4 220.1,50.7 221.4,52 
	222.3,53.8 225.8,52.8 225.4,55.8 225.8,57.8 227.5,58.8 229,60 230.4,61.3 230.7,63.3 232.8,64.3 233,66.3 232,68.6 234,69.9 
	236,71.3 233.8,73.6 237.7,75 235.6,77.1 234.7,79 239,80.8 235.3,82.7 235.5,84.5 234,86.4 234.5,88.2 234.4,90.1 238,92 
	236.7,93.8 235.2,95.7 238.2,97.5 235.7,99.4 236.7,101.3 238.6,103.1 234.4,105 238.1,106.8 237.1,108.7 233.5,110.6 233.9,112.4 
	234.2,114.3 233.9,116.1 238.2,118 233.6,119.9 234.8,121.7 236.9,123.6 238.9,125.5 233.7,127.3 238.1,129.2 237.2,131 
	235.4,132.9 237,134.8 233.6,136.6 238.8,138.5 235,140.3 234.3,142.2 237.5,144.1 233.4,145.9 233.4,147.8 235.5,149.7 
	238.3,151.5 237.9,153.4 234,155.3 235.2,157.1 236.4,159 236.7,160.8 236.8,162.7 235.8,164.6 233.5,166.4 236.8,168.3 239,170.2 
	234.2,172 233.9,173.9 237,175.8 237.6,177.6 238.2,179.5 234.8,181.3 237.5,183.2 237.2,185.1 234.7,186.9 239.2,188.8 
	236.3,190.7 234.5,192.5 233.8,194.4 238.8,196.3 234.6,198.1 238.2,200 237.1,201.9 236.9,203.7 238.6,205.6 238,207.5 
	235.6,209.3 233.6,211.2 237.8,213.1 234.9,214.9 236.1,216.8 238.2,218.7 235.6,220.5 238.6,222.4 236.5,224.3 237.5,226.1 
	237.1,228 236.8,229.9 236.1,231.7 236.4,233.6 239.2,235.4 236.5,237.3 236,239.2 235.9,241 233.4,242.9 238.6,244.8 239,246.6 
	235.7,248.5 238.8,250.4 234.7,252.2 234.7,254.1 237.7,256 233.7,257.9 237.3,259.7 237.6,261.6 237.5,263.5 236.1,265.3 
	235.3,267.2 233.6,269.1 238.2,270.9 236.1,272.8 236.9,274.7 233.6,276.6 235.9,278.2 "/>
<linearGradient id="SVGID_4_" gradientUnits="userSpaceOnUse" x1="61.0527" y1="824.7757" x2="110.3053" y2="824.7757" gradientTransform="matrix(1 0 0 1 -8.3599 -553.64)">
	<stop  offset="0" style="stop-color:#D1DFE7"/>
	<stop  offset="0.2704" style="stop-color:#EEF7FF"/>
	<stop  offset="0.4286" style="stop-color:#E4F7FF"/>
	<stop  offset="1" style="stop-color:#D4ECFC"/>
</linearGradient>
<path class="st8" d="M94.9,280.5c-14.4,1.7-27.8-0.5-42.2,0.9c10.4-2,21.5-2.9,31.7-5.3c-8,0.7-16,1.4-23.9-1
	c8.4,0,18.6-1.3,25.8-6.1c-6.6-1.4-14-0.8-20.9-0.8c-0.4,0-0.3,0,0.3,0c1.4-0.1,3.1-0.6,4.3-0.8c-5.8-0.4-12.5-1.4-16.9-3.7
	c13.4-1.1,26.8-3.9,40.2-1.9c-5.1,1.3-10.4,2.2-15.5,3.5c5.4-0.2,12.7,0,18.8,0.5c-2.4,0.6-5.8,2.3-8,2.9c2.4,0,5.3,0.5,7.9,0.4
	c-3.8,1.8-8.9,3.7-13.2,5.7c6.1-0.4,12.3-0.4,18.4-0.3c-0.4,0.4-0.3,1.2,0.1,1.5c-3.7,1.2-5.3,2.7-9.9,2.7c2.1,0.2,4.9,0.8,7.4,0.8
	C98.1,280,96.5,280.1,94.9,280.5L94.9,280.5z"/>
<linearGradient id="SVGID_5_" gradientUnits="userSpaceOnUse" x1="63.6564" y1="798.0844" x2="103.4865" y2="798.0844" gradientTransform="matrix(1 0 0 1 -8.3599 -553.64)">
	<stop  offset="0" style="stop-color:#D1DFE7"/>
	<stop  offset="0.2704" style="stop-color:#EEF7FF"/>
	<stop  offset="0.4286" style="stop-color:#E4F7FF"/>
	<stop  offset="1" style="stop-color:#D4ECFC"/>
</linearGradient>
<path class="st9" d="M79.8,254.6c-6.7,1.1-13.8-1.3-20.5-1.6c4.9-0.8,9.8-2.1,14.8-2.8c-5.9,0-11-1.1-16.9-2.3c2.7,0,6-0.3,8.4-1.6
	c-1.8-0.3-4.2-1.2-6.1-1.5c0.8-0.1,1.9-0.6,2.7-0.8c-2.3-0.1-4.8-0.9-6.4-2.3c3.6-0.7,7-2.3,10.5-3c-3.2-2.2-7.6-2.6-11-4.9
	c12.5,0,24.9-0.2,37.4,0.4c0.1,0,0.2,0,0,0c-5.9,1.1-12.2,1.7-18.3,2.5c0.5,0.2,0.9,0.1,1.5,0.2c-2.4,0.2-5,0.4-7.2,0.8
	c6.1,1.8,12.7,1.5,19,2.3c-3.7,1-7.6,1.8-11.4,2.7c0,0.1,0.9-0.1,0.9,0c-2.8,0.5-5.6,0.9-8.2,1.9c5.1,0.7,10.3,0,15.4,0.2
	c-2.5,0.7-5.8,1.3-7.6,2.6c5.8,0.6,12.3-0.6,17.8,1.2c-4.8,1.2-9.8,1.1-14.7,1.5c5,1,10.3,0.8,15.1,2.2
	C90.1,254.2,85,254.1,79.8,254.6L79.8,254.6z"/>
<linearGradient id="SVGID_6_" gradientUnits="userSpaceOnUse" x1="59.917" y1="762.1937" x2="114.4617" y2="762.1937" gradientTransform="matrix(1 0 0 1 -8.3599 -553.64)">
	<stop  offset="0" style="stop-color:#D1DFE7"/>
	<stop  offset="0.2704" style="stop-color:#EEF7FF"/>
	<stop  offset="0.4286" style="stop-color:#E4F7FF"/>
	<stop  offset="1" style="stop-color:#D4ECFC"/>
</linearGradient>
<path class="st10" d="M84.6,231.3c-8.7-1.4-17.5-2.2-26.2-3.6c-4.2-0.7-4.5-0.9-6.8-3.9c3.8-0.2,7.5-1.1,11.4-1.4
	c-5.4-0.2-0.9-3,1.5-3.7c4.3-1.3,8.9-1.6,13.3-2.7c-7.3-0.4-15.6,0.2-22.1-3.6c4.6-1.7,10.5-1,15-3.2c-3.5-1.3-8.6-0.8-11.5-3.2
	c3.9-1.4,9.6-0.7,12.8-3.2c-2.4-0.4-5.8,0.2-7.8-0.8c1.2-0.7,2.6-1.1,3.9-1.6c-5.2-0.6-9.7-1.1-14.1-3.8c2.8-0.3,6.3-0.9,8.4-2.6
	c-2.3-0.3-4.6,0.3-6.8-0.1c2.2-1.6,7.1-1.2,8.6-3.8c-2-1.2-4.7-0.7-6.6-1.7c0.3-0.2,0.8-0.5,1.1-0.6c-1.1,0.1-2.4-0.2-3.4-0.4
	c0,0,0-0.3,0-0.3c13.7-1.2,28.4-1.6,42.1,0.2c-3.9,0.6-23.6,0.7-27,2.5c4.1,0.7,23.9-1.9,27.6,0c-3.4,1.2-7.3,0.9-10.8,1.8
	c1.1,0,2.2,0.1,3.3,0.1c-9.1,1.6-18.5,1.2-27.7,2.1c7.7,2,18.9,1.6,16.4,2.9c2.7,1,5.9,0.5,8.7,1.3c-7.9,2.6-17.3-1.2-25.2,1.1
	c0,0.1,0,0.1,0,0.2c5.2,1,11.3,1.5,16.7,2c-0.6,0-1.2,0-1.8,0c4,0.8,8.3,1.3,12.4,1.9c-4.5,0.5-9.4,0.6-13.8,1.9
	c5.2,1.8,12.3,0.2,17.7,0.4c4,0.1,8.3,0.2,12.2,1.2c-11.4,1.9-22.7,3.2-34.2,4.7c4.3,0.4,8.8-0.7,13,0.1c-1.8,1.3-4.9,1.2-6.7,2.4
	c7,0.5,14.2,0.5,20.9,2.6c-10.3,2.4-21.4,2.5-31.8,4.1c6.3,0.5,12.6,0.6,18.8,1.6c-7.4,0.9-25.1,1.2-27.9,4c6.5,0.5,13,2,19.4,3.1
	C80,229.4,82.4,230.1,84.6,231.3L84.6,231.3z"/>
<radialGradient id="SVGID_7_" cx="97.2718" cy="747.6729" r="0" gradientTransform="matrix(1 0 0 1 -8.3599 -553.64)" gradientUnits="userSpaceOnUse">
	<stop  offset="0" style="stop-color:#EDD494"/>
	<stop  offset="1" style="stop-color:#EDD494;stop-opacity:0"/>
</radialGradient>
<path class="st11" d="M88.9,194"/>
<linearGradient id="SVGID_8_" gradientUnits="userSpaceOnUse" x1="61.7338" y1="701.7722" x2="107.4637" y2="701.7722" gradientTransform="matrix(1 0 0 1 -8.3599 -553.64)">
	<stop  offset="0" style="stop-color:#D1DFE7"/>
	<stop  offset="0.2704" style="stop-color:#EEF7FF"/>
	<stop  offset="0.4286" style="stop-color:#E4F7FF"/>
	<stop  offset="1" style="stop-color:#D4ECFC"/>
</linearGradient>
<path class="st12" d="M83.1,180.9c-10-0.1-19.9,0.4-29.7,1.3c8.1-2.4,16-5.4,24-8.1c-5.9,0.4-12-0.4-17.9-0.1
	c5.7-1.4,11.1-4.4,16.7-6.1c-6.7,0.5-12.7-0.9-19.1-1.4c6.3-0.8,12.8-2.7,19.1-3.6c-4.8,0.2-9.6-0.6-14.2-0.7c7.3-2.4,15-4,22.4-6.9
	c-7.4-0.3-16.1-1.4-23.6-3.1c7.6-0.7,15.7-2.7,23.1-5.6c-5.8,0.1-12.7-1.2-18.6-1.2c1.9-0.6,4.1-1.1,6-1.7c0,0-4.1-0.2-4.2-0.1
	c0.6,0.3,1.8-3.1,1.7-2.9c-4.6,0-9.1-1-13.6-1.5c7.1-2.4,15.2-4.4,22.3-7.2c-8.2-0.2-16.5-1.9-23.5-5.6c6.5-0.6,12.8-2.7,19.3-3.4
	c-5.8,0.9-13.2-1.3-18.6-2.5c-0.2,0.1-0.1-2.3,0-2.3c14.5-0.9,28.9-3.4,43.6-3.8c0.8-0.2-0.5,0-0.7,0c-9.2,2.7-18.7,3.9-27.9,5.7
	c5.4,0.3,10.6,2.1,15.9,2.6c-6,2.3-12.2,4.6-18.6,6.1c-0.7,0-0.7,0,0,0c9.5,0,19,0,28.5,0c-4.2,0.5-8.2,1.7-12.1,2.4
	c2.5,0,5.3,0.1,7.7,0.3c-5.6,0.9-11,3.2-16,4.7c-0.1,0,3.3,0,3.5,0.1c-2.6,1-6,2.2-8.3,3.8c7.9,0,16.7-0.2,24.1,0.4
	c-6.2,1.7-12.2,3.8-18.5,4.6c7.9,0,15.7,0.2,23.3,1c-5.9,2.8-12.7,5.1-19.1,6.4c-0.3,0-0.7,0-1,0c6.2,0.2,12.2,1,18.3,1.2
	c-1,0.9-5.6,2.2-6.8,2.5c-0.5,0.5,3.2,1,2.9,1.2c-4.2,1.3-8.7,3.6-13.2,4.5c3.1,0,6.8,0.6,10.2,0.4c-4,0.9-7.8,3.2-11,4.2
	c2.8,0.8,5.5,0.6,8.4,0.9c-1.5,2.2-4.8,1.8-6.1,3.6c1.8,1,4.9-0.1,6.2,1.7c-2.2,1-5.4,1.3-7.4,2.8c-0.1,0.4-0.1,0.8-0.1,1.1
	c3.6,0.4,9.9,2.9,13.2,3.1C89.3,182.1,88.1,180.9,83.1,180.9L83.1,180.9z"/>
<linearGradient id="SVGID_9_" gradientUnits="userSpaceOnUse" x1="59.7278" y1="633.5407" x2="123.7235" y2="633.5407" gradientTransform="matrix(1 0 0 1 -8.3599 -553.64)">
	<stop  offset="0" style="stop-color:#D1DFE7"/>
	<stop  offset="0.2704" style="stop-color:#EEF7FF"/>
	<stop  offset="0.4286" style="stop-color:#E4F7FF"/>
	<stop  offset="1" style="stop-color:#D4ECFC"/>
</linearGradient>
<path class="st13" d="M92.1,110c-13-0.2-26.6,0.8-39.6,1.7c-0.2,0-0.1,0,0.3,0c11.8-1.5,23.4-3.8,34.9-6.6
	c-11,0.1-26.2,3.1-36.3-2.1c9.8-3.5,20.8-4.3,31-6.6c-5.5,0.1-11.5-0.7-16.4-3c4.4-0.4,9.3-1.2,12.8-3.4C77,89.9,75,89.1,73.2,89
	c2.2-1.1,4.6-3.1,7.4-3.6c-7.3-0.2-18.3,1.8-24-2.9c7.7-1.8,16.5,0.5,24-2.1c-4.8-1.4-9.7-3.1-13.7-6.3c6.6,1,13.2,3.3,19.9,3.7
	c0,0,0-1.2,0-1.1c-9.3-2.4-18.3-4.9-27.3-8.5C67.3,68,75,69,82.8,68.8c0.2,0,0.2,0,0,0c-6.3-1.6-11.2-6.4-15-11.2
	c10.7,0,19.8,6.1,30.5,5.9c0.3,0,0.3,0,0,0c-6.3-0.8-11.5-4.1-16-8.3c2,0.6,4.1,0.6,6.1,1.1c-2.9-1.6-3.8-3.9-5.6-5.8
	c8.4-0.1,16.5,2.5,24.8,3.4c-1.8-1.8-3.1-4.2-4.6-5.8c1.7,2,4.9,3,6.5,4.2c0-1.2,0.2-2.6,0-4c1.8,1.7,4.3,4.3,5.8,6.7
	c-1.7-1-3.8-1.3-5.4-2c0.6,1.1,1.2,2.6,1.6,3.7c-7.5-0.5-15.2,0.1-22.7-1.1c3.8,4.9,10.6,7.5,15.8,10.8c-8,0.2-15.7-0.4-23.5-2.1
	c3.6,3.5,8.8,4.4,12.7,7.4c-4.8,0.3-9.7,0-14.5-0.3c5.1,2,11.1,2.5,15.4,5.9c-4.9,1-9.8,2.9-14.6,3.4c3.8,0.7,7.7,1.9,11,3.8
	c-3.3-0.2-7,0.1-10.1,0.2c3.3,0.5,6.5,1.7,9.5,2.6c-3.3,0.9-6.5,2.1-9.8,3.1c0.1,0-0.3,0.8-0.3,0.8c2.1,0.2,3.8,0.9,5.9,1.1
	c-2.9,0.6-6,1.8-8.7,2.4c4.4,0.4,8.5,0.6,12,3.1c-3.9,1.1-8.1,2.3-11.7,3.7c0.8,0.3,1.9,0,2.7,0.1c-2.2,0.6-4.4,1.8-6.8,2.1
	c-0.2,0-0.2,0,0,0c5.7,0.2,11.5,0.7,17,1.9c-0.6,0.2,0.6,0.3,0.7,0.4c-1.5,0.5-3.2,1.6-4.6,2.1C88.6,108.9,90.5,109.7,92.1,110
	L92.1,110z"/>
<linearGradient id="SVGID_10_" gradientUnits="userSpaceOnUse" x1="67.746" y1="854.844" x2="129.4664" y2="854.844" gradientTransform="matrix(1 0 0 1 -8.3599 -553.64)">
	<stop  offset="0" style="stop-color:#D1DFE7"/>
	<stop  offset="0.2704" style="stop-color:#EEF7FF"/>
	<stop  offset="0.4286" style="stop-color:#E4F7FF"/>
	<stop  offset="1" style="stop-color:#D4ECFC"/>
</linearGradient>
<path class="st14" d="M99.3,285.5c-11.6,5.5-26.5,5.8-39.2,8.3c0.1,0-1.1,0.1-0.5,0c8.2-0.6,16.5-2.9,24.6-1.8
	c-5,1.4-10.4,3.4-13.3,7.1c3-0.8,6.1-1,9.3-2.2c-2.5,1.9-4.4,4.7-6.3,6.4c5.5-1.7,11.1-4.3,16.8-5.3c-3.5,4.4-8.7,9.5-11.8,14
	c4.1-1.4,8.8-3,12.7-5.3c-1.4,1.3-3.1,3.2-4.5,4.5c4.3-2.4,8.9-5,13.1-7.4c-2.8,3.4-3.7,7.7-4.8,11.5c5.9-0.6,11.6-2.6,17.2-4.5
	c-1.2,1.3-2.5,3-3.6,4.1c2.6-2.5,6.2-4.3,9-6.6c-0.9,2.7-1.3,6.1-2.3,8.7c3.1-4,5-9.5,5.4-14.8c-2.3,2.7-5.5,4.4-7.9,6.8
	c-0.2-0.3,1-2.1,0.7-2.3c-4.5,2.6-9.3,4.2-14,3.6c2.8-3.8,5.4-7.9,7.4-11.9c-4.1,1.7-9.1,3.1-13.5,4c2-2.3,2.7-5.2,4.4-7.4
	c-1.2-0.1-2.8,1.5-4.1,2c-0.1-1.4,1.8-2.8,1.6-4c-2.4,0.4-5,0.1-7.5,0.3c-0.2,0.1-0.1,0.1,0.4,0C92.2,290.7,95.8,287.9,99.3,285.5
	L99.3,285.5z"/>
<linearGradient id="SVGID_11_" gradientUnits="userSpaceOnUse" x1="187.6159" y1="642.5281" x2="236.8685" y2="642.5281" gradientTransform="matrix(1 0 0 1 -8.3599 -553.64)">
	<stop  offset="0" style="stop-color:#D1DFE7"/>
	<stop  offset="0.2704" style="stop-color:#EEF7FF"/>
	<stop  offset="0.4286" style="stop-color:#E4F7FF"/>
	<stop  offset="1" style="stop-color:#D4ECFC"/>
</linearGradient>
<path class="st15" d="M186.3,79.5c14.4-1.7,27.8,0.5,42.2-0.9c-10.4,1.9-21.5,2.9-31.7,5.3c8-0.7,16-1.4,23.9,1
	c-8.4,0-18.6,1.3-25.8,6.1c6.6,1.4,14,0.8,20.9,0.8c0.4,0,0.3,0-0.3,0c-1.4,0.1-3.1,0.6-4.3,0.8c5.8,0.4,12.5,1.4,16.9,3.7
	c-13.4,1.1-26.8,3.9-40.2,1.9c5.1-1.3,10.4-2.2,15.5-3.5c-5.4,0.2-12.7,0-18.8-0.5c2.4-0.6,5.8-2.3,8-2.9c-2.4,0-5.3-0.5-7.9-0.4
	c3.8-1.8,8.9-3.7,13.2-5.7c-6.1,0.4-12.3,0.4-18.4,0.3c0.4-0.4,0.3-1.2-0.1-1.5c3.7-1.2,5.3-2.7,9.9-2.7c-2.1-0.2-4.9-0.8-7.4-0.8
	C183.1,80,184.7,80,186.3,79.5L186.3,79.5z"/>
<linearGradient id="SVGID_12_" gradientUnits="userSpaceOnUse" x1="194.4384" y1="669.2178" x2="234.2686" y2="669.2178" gradientTransform="matrix(1 0 0 1 -8.3599 -553.64)">
	<stop  offset="0" style="stop-color:#D1DFE7"/>
	<stop  offset="0.2704" style="stop-color:#EEF7FF"/>
	<stop  offset="0.4286" style="stop-color:#E4F7FF"/>
	<stop  offset="1" style="stop-color:#D4ECFC"/>
</linearGradient>
<path class="st16" d="M201.4,105.4c6.7-1.1,13.8,1.3,20.5,1.6c-4.9,0.8-9.8,2.1-14.8,2.8c5.9,0,11,1.1,16.9,2.3
	c-2.7,0-6,0.3-8.4,1.6c1.8,0.3,4.2,1.2,6.1,1.5c-0.8,0.1-1.9,0.6-2.7,0.8c2.3,0.1,4.8,0.9,6.4,2.3c-3.6,0.7-7,2.3-10.5,3
	c3.2,2.2,7.6,2.6,11,4.9c-12.5,0-24.9,0.2-37.4-0.4c-0.2,0-0.2,0,0,0c5.9-1.1,12.2-1.7,18.2-2.5c-0.5-0.2-0.9-0.1-1.5-0.2
	c2.4-0.2,5-0.4,7.2-0.8c-6.1-1.8-12.7-1.5-19-2.3c3.7-1,7.6-1.8,11.4-2.7c0-0.1-0.9,0.1-0.9,0c2.8-0.5,5.6-0.9,8.2-1.9
	c-5.1-0.7-10.3,0-15.4-0.2c2.5-0.7,5.8-1.3,7.6-2.6c-5.8-0.6-12.3,0.6-17.8-1.2c4.8-1.2,9.8-1.1,14.7-1.5c-5-1-10.3-0.8-15.1-2.2
	C191.1,105.9,196.2,105.9,201.4,105.4L201.4,105.4z"/>
<linearGradient id="SVGID_13_" gradientUnits="userSpaceOnUse" x1="183.4595" y1="705.1119" x2="238.0042" y2="705.1119" gradientTransform="matrix(1 0 0 1 -8.3599 -553.64)">
	<stop  offset="0" style="stop-color:#D1DFE7"/>
	<stop  offset="0.2704" style="stop-color:#EEF7FF"/>
	<stop  offset="0.4286" style="stop-color:#E4F7FF"/>
	<stop  offset="1" style="stop-color:#D4ECFC"/>
</linearGradient>
<path class="st17" d="M196.6,128.8c8.7,1.4,17.5,2.2,26.2,3.6c4.2,0.7,4.5,0.9,6.8,3.9c-3.8,0.2-7.5,1.1-11.4,1.4
	c5.4,0.2,0.9,3-1.5,3.7c-4.3,1.3-8.9,1.6-13.3,2.7c7.3,0.4,15.6-0.2,22.1,3.6c-4.6,1.7-10.5,1-15,3.2c3.5,1.3,8.6,0.8,11.5,3.2
	c-3.9,1.4-9.6,0.7-12.8,3.2c2.4,0.4,5.8-0.2,7.8,0.8c-1.2,0.7-2.6,1.1-3.9,1.6c5.2,0.6,9.7,1.1,14.1,3.8c-2.8,0.3-6.3,0.9-8.4,2.6
	c2.3,0.3,4.6-0.2,6.8,0.1c-2.2,1.6-7.1,1.2-8.6,3.8c2,1.2,4.7,0.7,6.6,1.7c-0.3,0.2-0.8,0.5-1.1,0.6c1.1-0.1,2.4,0.2,3.4,0.4
	c0,0,0,0.3,0,0.3c-13.7,1.2-28.4,1.6-42.1-0.2c3.9-0.6,23.6-0.7,27-2.5c-4.1-0.7-23.9,1.9-27.6,0c3.4-1.2,7.3-0.9,10.8-1.8
	c-1.1,0-2.2-0.1-3.3-0.1c9.1-1.6,18.5-1.2,27.7-2.1c-7.7-2-18.9-1.6-16.4-2.9c-2.7-1-5.9-0.5-8.7-1.3c7.9-2.6,17.3,1.2,25.2-1.1
	c0-0.1,0-0.1,0-0.2c-5.2-1-11.3-1.5-16.7-2c0.6,0,1.2,0,1.8,0c-4-0.8-8.3-1.3-12.4-1.9c4.5-0.5,9.4-0.6,13.8-1.9
	c-5.2-1.8-12.3-0.2-17.7-0.4c-4-0.1-8.3-0.2-12.2-1.2c11.4-1.9,22.7-3.2,34.2-4.7c-4.3-0.4-8.8,0.7-12.9-0.1
	c1.8-1.3,4.9-1.2,6.7-2.4c-7-0.5-14.2-0.5-20.9-2.6c10.3-2.4,21.4-2.5,31.8-4.1c-6.3-0.5-12.6-0.6-18.8-1.6c7.4-0.9,25.1-1.2,27.9-4
	c-6.5-0.5-13-2-19.4-3.1C201.2,130.6,198.8,130,196.6,128.8L196.6,128.8z"/>
<radialGradient id="SVGID_14_" cx="200.6444" cy="719.631" r="0" gradientTransform="matrix(1 0 0 1 -8.3599 -553.64)" gradientUnits="userSpaceOnUse">
	<stop  offset="0" style="stop-color:#EDD494"/>
	<stop  offset="1" style="stop-color:#EDD494;stop-opacity:0"/>
</radialGradient>
<path class="st18" d="M192.3,166"/>
<linearGradient id="SVGID_15_" gradientUnits="userSpaceOnUse" x1="190.4562" y1="765.5308" x2="236.1862" y2="765.5308" gradientTransform="matrix(1 0 0 1 -8.3599 -553.64)">
	<stop  offset="0" style="stop-color:#D1DFE7"/>
	<stop  offset="0.2704" style="stop-color:#EEF7FF"/>
	<stop  offset="0.4286" style="stop-color:#E4F7FF"/>
	<stop  offset="1" style="stop-color:#D4ECFC"/>
</linearGradient>
<path class="st19" d="M198.1,179.2c10,0.1,19.9-0.4,29.7-1.3c-8.1,2.4-16,5.4-24,8.1c5.9-0.4,12,0.4,17.9,0.1
	c-5.7,1.4-11.1,4.4-16.7,6.1c6.7-0.5,12.7,0.9,19.1,1.4c-6.3,0.8-12.8,2.7-19.1,3.6c4.8-0.2,9.6,0.6,14.2,0.8
	c-7.3,2.4-15,4-22.4,6.9c7.4,0.3,16.1,1.4,23.6,3.1c-7.6,0.7-15.7,2.7-23.1,5.6c5.8-0.1,12.7,1.2,18.6,1.2c-1.9,0.6-4.1,1.1-6,1.7
	c0,0,4.1,0.2,4.2,0.1c-0.6-0.3-1.8,3.1-1.7,2.9c4.6,0,9.1,1,13.6,1.5c-7.1,2.4-15.2,4.4-22.3,7.2c8.2,0.2,16.5,1.9,23.5,5.6
	c-6.5,0.6-12.8,2.7-19.3,3.4c5.8-0.9,13.2,1.3,18.6,2.5c0.2-0.1,0.1,2.3,0,2.3c-14.5,0.9-28.9,3.4-43.6,3.8c-0.8,0.2,0.5,0,0.7,0
	c9.2-2.7,18.7-3.9,27.9-5.7c-5.4-0.3-10.6-2.1-15.9-2.6c6-2.3,12.2-4.6,18.6-6.1c0.7,0,0.7,0,0,0c-9.5,0-19,0-28.5,0
	c4.2-0.5,8.2-1.7,12.1-2.4c-2.5,0-5.3-0.1-7.7-0.3c5.6-0.9,11-3.2,16-4.7c0.1-0.1-3.3,0-3.5-0.1c2.6-1,6-2.2,8.3-3.8
	c-7.9,0.1-16.7,0.2-24.1-0.4c6.2-1.7,12.2-3.8,18.5-4.6c-7.9,0-15.7-0.2-23.3-1c5.9-2.8,12.7-5.1,19.1-6.4c0.3,0,0.7,0,1,0
	c-6.2-0.2-12.2-1-18.3-1.2c1-0.9,5.6-2.2,6.8-2.5c0.5-0.5-3.2-1-2.9-1.2c4.2-1.3,8.7-3.6,13.2-4.5c-3.1,0-6.8-0.6-10.2-0.4
	c4-0.9,7.8-3.2,11-4.2c-2.8-0.8-5.5-0.6-8.4-0.9c1.5-2.1,4.8-1.8,6.1-3.6c-1.8-1-4.9,0.1-6.2-1.7c2.2-1,5.4-1.3,7.4-2.8
	c0.1-0.4,0.1-0.8,0.1-1.1c-3.6-0.4-9.9-2.9-13.2-3.1C192,177.9,193.2,179.1,198.1,179.2L198.1,179.2z"/>
<linearGradient id="SVGID_16_" gradientUnits="userSpaceOnUse" x1="174.1976" y1="833.7575" x2="238.1921" y2="833.7575" gradientTransform="matrix(1 0 0 1 -8.3599 -553.64)">
	<stop  offset="0" style="stop-color:#D1DFE7"/>
	<stop  offset="0.2704" style="stop-color:#EEF7FF"/>
	<stop  offset="0.4286" style="stop-color:#E4F7FF"/>
	<stop  offset="1" style="stop-color:#D4ECFC"/>
</linearGradient>
<path class="st20" d="M189.1,250c13,0.2,26.6-0.8,39.6-1.7c0.2,0,0.1,0-0.3,0c-11.8,1.5-23.4,3.8-34.9,6.6c11-0.1,26.2-3.1,36.3,2.1
	c-9.8,3.5-20.8,4.3-31,6.6c5.5-0.1,11.5,0.7,16.4,3c-4.4,0.4-9.3,1.2-12.8,3.4c1.8,0.1,3.7,0.9,5.6,1.1c-2.2,1.1-4.6,3.1-7.4,3.6
	c7.3,0.2,18.3-1.8,24,2.9c-7.7,1.8-16.5-0.5-24,2.1c4.8,1.4,9.7,3.1,13.7,6.3c-6.6-1-13.2-3.3-19.9-3.7c0,0,0,1.2,0,1.1
	c9.3,2.4,18.3,4.9,27.3,8.5c-7.8,0.1-15.5-0.9-23.3-0.6c-0.2,0-0.2,0,0,0c6.3,1.6,11.2,6.4,15,11.2c-10.7,0-19.8-6.1-30.5-5.9
	c-0.3,0-0.2,0,0,0c6.3,0.8,11.5,4.1,16,8.3c-2-0.6-4.1-0.6-6.1-1.1c2.9,1.6,3.8,3.9,5.6,5.8c-8.4,0.1-16.5-2.5-24.8-3.4
	c1.8,1.8,3.1,4.2,4.6,5.8c-1.7-2-4.9-3-6.5-4.2c0,1.2-0.2,2.6,0,4c-1.8-1.7-4.3-4.3-5.8-6.7c1.7,1,3.8,1.3,5.4,2
	c-0.6-1.1-1.2-2.6-1.6-3.7c7.5,0.5,15.2-0.1,22.7,1.1c-3.8-4.9-10.6-7.5-15.8-10.8c8-0.2,15.7,0.4,23.5,2.1
	c-3.6-3.5-8.8-4.4-12.7-7.4c4.8-0.3,9.7,0,14.5,0.3c-5.1-2-11.1-2.5-15.4-5.9c4.9-1,9.8-2.9,14.6-3.4c-3.8-0.7-7.7-1.9-11-3.8
	c3.3,0.2,7-0.1,10.1-0.2c-3.3-0.5-6.5-1.7-9.5-2.6c3.3-0.9,6.5-2.1,9.8-3.1c-0.1,0,0.3-0.8,0.3-0.8c-2.1-0.2-3.8-0.9-5.9-1.1
	c2.9-0.6,6-1.7,8.7-2.4c-4.4-0.4-8.5-0.6-12-3.1c3.9-1.1,8.1-2.3,11.7-3.7c-0.8-0.3-1.9,0-2.7-0.1c2.2-0.6,4.4-1.8,6.8-2.1
	c0.2,0,0.2,0,0,0c-5.7-0.2-11.5-0.7-17-1.9c0.6-0.2-0.6-0.3-0.7-0.4c1.5-0.5,3.2-1.6,4.6-2.1C192.6,251.1,190.7,250.4,189.1,250
	L189.1,250z"/>
<radialGradient id="SVGID_17_" cx="149.3673" cy="745.2946" r="160.6431" gradientTransform="matrix(1 0 0 1 -8.3599 -553.64)" gradientUnits="userSpaceOnUse">
	<stop  offset="0" style="stop-color:#EDD494"/>
	<stop  offset="1" style="stop-color:#EDD494;stop-opacity:0"/>
</radialGradient>
<path class="st21" d="M181.9,74.6c11.6-5.5,26.5-5.8,39.2-8.3c-0.1,0,1.1-0.1,0.5,0c-8.2,0.6-16.5,2.9-24.6,1.8
	c5-1.4,10.4-3.4,13.3-7.1c-3,0.8-6.2,1-9.3,2.2c2.5-1.9,4.4-4.7,6.3-6.4c-5.5,1.7-11.1,4.3-16.8,5.3c3.5-4.4,8.7-9.5,11.8-14
	c-4.1,1.5-8.8,3-12.7,5.3c1.4-1.3,3.1-3.2,4.5-4.5c-4.3,2.4-8.9,5-13.1,7.4c2.8-3.4,3.7-7.7,4.8-11.5c-5.9,0.6-11.6,2.6-17.2,4.5
	c1.2-1.3,2.5-3,3.6-4.1c-2.6,2.5-6.2,4.3-9,6.6c0.9-2.7,1.3-6.1,2.3-8.7c-3.1,4-5,9.5-5.4,14.8c2.3-2.7,5.5-4.4,7.9-6.8
	c0.2,0.3-1,2.1-0.7,2.3c4.5-2.6,9.3-4.2,14-3.6c-2.8,3.8-5.4,7.9-7.4,11.9c4.1-1.7,9.1-3.1,13.5-4c-2,2.3-2.7,5.2-4.4,7.4
	c1.2,0.1,2.8-1.5,4.1-2c0.1,1.4-1.8,2.8-1.6,4c2.4-0.4,5-0.1,7.5-0.3c0.2-0.1,0.1-0.1-0.4,0C189,69.3,185.5,72.1,181.9,74.6
	L181.9,74.6z"/>
<polygon class="st6" points="111.4,71.9 69.6,64.3 111.6,70.7 "/>
<polygon class="st6" points="111.6,77.1 90.6,78.6 111.5,75.9 "/>
<polygon class="st6" points="111.6,92.7 81.2,94.6 111.5,91.5 "/>
<polygon class="st6" points="111.6,98.4 55.5,102.1 111.5,97.1 "/>
<polygon class="st6" points="171.2,282.1 192.3,280.7 171.4,283.4 "/>
<polygon class="st6" points="171.3,266.5 201.6,264.7 171.4,267.7 "/>
<polygon class="st6" points="171.3,260.8 227.3,257.2 171.4,262.1 "/>
<polygon class="st6" points="171.3,233.5 194.9,232.6 171.3,234.8 "/>
<polygon class="st6" points="171.3,224.9 208.2,223.1 171.3,226.1 "/>
<polygon class="st6" points="171.3,200.5 227.3,200 171.3,201.7 "/>
<polygon class="st6" points="171.3,193.7 211.1,193.8 171.3,194.9 "/>
<polygon class="st6" points="171.3,172.9 227.3,174.3 171.3,174.1 "/>
<polygon class="st6" points="171.3,162.5 192.3,163.8 171.3,163.7 "/>
<polygon class="st6" points="171.3,158.4 211.1,160 171.3,159.6 "/>
<polygon class="st6" points="171.4,131.2 213.2,135.2 171.3,132.5 "/>
<polygon class="st6" points="170,128.4 226,133 169.9,129.7 "/>
<polygon class="st6" points="171.4,103 204.6,106.4 171.3,104.2 "/>
<polygon class="st6" points="171.3,100 211.1,103.6 171.3,101.3 "/>
<polygon class="st6" points="171.3,75.3 204.6,73.7 171.3,76.5 "/>
<polygon class="st6" points="111.6,125.7 87.9,126.6 111.5,124.4 "/>
<polygon class="st6" points="111.6,134.3 74.6,136.1 111.5,133.1 "/>
<polygon class="st6" points="111.5,158.8 55.5,159.3 111.5,157.5 "/>
<polygon class="st6" points="111.5,165.6 71.7,165.4 111.5,164.3 "/>
<polygon class="st6" points="111.5,186.4 55.5,184.9 111.5,185.1 "/>
<polygon class="st6" points="111.5,196.8 90.6,195.4 111.6,195.5 "/>
<polygon class="st6" points="111.5,200.9 71.7,199.2 111.5,199.6 "/>
<polygon class="st6" points="111.5,228 69.6,224 111.6,226.7 "/>
<polygon class="st6" points="112.9,230.8 56.9,226.2 112.9,229.6 "/>
<polygon class="st6" points="111.5,256.3 78.2,252.9 111.6,255 "/>
<polygon class="st6" points="111.5,259.2 71.7,255.6 111.6,258 "/>
<polygon class="st6" points="111.6,283.9 78.2,285.5 111.5,282.7 "/>
<polygon class="st6" points="122.2,61.2 114.4,47.2 123.3,60.5 "/>
<polygon class="st6" points="140.5,54.5 140.2,43.1 141.7,54.4 "/>
<polygon class="st6" points="149.2,56.8 151.8,52.8 150.3,57.4 "/>
<polygon class="st6" points="161.6,60.6 168.2,43.1 162.8,61 "/>
<polygon class="st6" points="168.1,63.9 176.5,55 169.1,64.7 "/>
<polygon class="st6" points="171,63.2 176.5,58.4 171.8,64.1 "/>
<polygon class="st6" points="112.7,64.9 84.9,55 113.1,63.7 "/>
<polygon class="st6" points="119.8,293.8 98.9,311.2 119,292.9 "/>
<polygon class="st6" points="129.5,297.7 122.7,311.2 128.4,297.2 "/>
<polygon class="st6" points="137.1,295 136.4,316.2 135.8,295 "/>
<polygon class="st6" points="140,294.9 141,314.1 138.7,295.1 "/>
<polygon class="st6" points="144.9,293 157.2,314.1 143.8,293.7 "/>
<polygon class="st6" points="157.6,289.3 180,307.9 156.8,290.3 "/>
<polygon class="st6" points="165.9,279.9 206.6,307.9 165.2,280.9 "/>
<polygon class="st6" points="185,258.2 184.2,256.4 185.8,253.8 184.7,250.4 184.3,248.1 184.6,245.8 185.1,242.8 184.5,240.2 
	185.4,237.7 185.3,233 180.4,232.5 177.6,231.5 175.4,230.6 175,228.9 175.1,226.5 175.1,224.3 177.4,221.2 176,218.3 177.4,215.3 
	174.9,212.3 175,210.4 175.7,207.4 175.1,205.2 176.4,203.7 177.3,202.1 179.4,201.7 181.9,200 184.5,197.9 184.2,194.7 
	184.3,192.6 186.9,189.4 185.2,185.8 184.8,183.9 186.3,181 185,175.4 186.4,172.8 186,169.4 185.2,166.9 186.8,161.5 180.7,161.5 
	178.4,159.4 175.9,158.5 175.2,157.5 176.3,154.9 175.2,152.4 177.2,149.7 176.2,146.3 175.9,143.7 175.1,141.1 176.3,138.3 
	174.9,135.3 175.2,133.1 175.4,130.6 176.2,129.9 180.4,131 181.8,127.4 185.4,127.3 185.3,122.6 184.8,120.1 185.6,117.9 
	186.1,114.6 185.9,111.7 185.3,108.9 185.3,106.8 186.5,103.6 185,100.5 184.8,98.3 185,95.9 186.4,91 180.9,90 178.1,87.7 
	176.1,87.7 176.3,87.1 177,83.8 176.8,80.9 175.9,78 175.7,76 176.7,73.3 176.3,70.2 175.8,68 177.6,64.9 174.6,61.5 172.3,60 
	169.1,58.1 165.7,58.8 163.4,57.9 161,57.6 159,55.2 154.9,54.3 152,55.3 150.1,54 146.7,53.5 144.6,53.2 141.7,50.2 137.4,51.9 
	135.2,53.1 132.4,53 129.4,53.9 126.3,55.1 124.3,56.8 121.6,56.6 118.7,58 116.2,58.7 113,59.3 110.7,61 108,61.2 105.7,64.8 
	106.2,67.8 105.9,70.1 105,73.3 106.6,76.5 107.3,78.4 106.3,81.1 107.6,84.1 107.7,85.9 106.5,87.7 105,89.4 101.3,89.1 97.6,92 
	96.5,95.3 96.5,98.6 97.5,101.5 97.9,103.4 96.4,105.9 96,109.4 97.2,112.1 97,114.2 96.1,116.7 95.9,120.2 96.7,122.8 96.1,127.2 
	100.8,128.3 103,129.3 105.1,129.9 105.7,130.7 105.4,132.5 105.1,136.1 107,139 107.2,140.6 105,143.5 105.8,146.6 105.2,149 
	105.1,152.2 105.1,154.9 105.9,157.8 105.7,159.3 104.4,160.9 102.2,161.8 95,161.4 97.6,166.8 96.3,169.2 96.1,172.7 97.2,175.6 
	97.5,178.2 98,180.5 96.2,183.3 97,186.8 97.5,189.2 96.7,191.9 97.2,194.6 95.1,200.2 101.2,199.8 104.9,203.2 106.8,203.4 
	106.5,204.8 107,207.4 106.3,209.7 105.9,213.2 107.2,215.9 106.8,218.4 107.3,220.8 106.1,223.2 105.7,226.6 106.3,228.9 
	104.3,232.2 102.3,232.7 94.7,232 98.4,238 98.4,239.4 95.7,242.3 96.4,245.9 97.6,248.5 97.2,250.8 97.4,253.3 96.6,255.7 
	95.9,259.3 97.5,261.9 96.6,264.5 98.2,267.4 100.9,271.5 105.2,270 106.1,270.8 105.8,273 106.7,276 106.6,278.9 107.6,281.8 
	107.5,284.4 107.5,287.1 106.4,292.6 104.9,298.9 111.1,297.8 113,298.9 115.4,300.3 118.7,302.3 122,301.4 126.2,304.4 
	129.6,305.5 135.7,305.7 137.8,306 141.2,309.1 144.1,306.3 146.8,307.2 150.6,306.4 153.3,304.7 155.4,303.5 158.6,303.4 
	160.8,301.5 163.4,301.4 166.4,300.5 169.5,299.5 172,297.7 174.3,296.7 176.2,293.4 175.7,290 175.7,287.6 177,284.1 174.8,281.1 
	175.1,279.2 176.8,275.9 175.8,272.6 175.8,271.3 177.9,270.6 180.4,269 185.4,269 185.2,264.7 186.6,261.6 "/>
<polygon class="st6" points="141.1,53.7 143.3,56.2 146,56.6 148.6,57 150.9,58.6 154,57.5 156.5,58.1 158.5,60.6 161.2,60.9 
	163.6,61.9 166.6,61.3 168.9,62.7 170.8,64.1 172.6,66.2 171.2,68.9 171.8,71.5 172.1,74.1 171.2,76.7 171.4,79.4 172.2,82 
	172.4,84.6 171.9,87.2 170.6,90.5 174.6,90.4 177.1,92.7 180.6,93.3 179.8,96.4 179.6,99.1 179.8,101.8 181.1,104.5 180.1,107.1 
	180.1,109.8 180.6,112.5 180.8,115.2 180.5,117.8 179.5,120.5 180.1,123.2 180.1,126 177.3,126 176.2,129.2 173,128.3 171,130.3 
	170.8,133.2 170.4,136 171.6,138.7 170.5,141.5 171.4,144.2 171.7,146.9 172.4,149.7 170.5,152.4 171.6,155.1 170.5,157.9 
	172,160.2 174.5,161.2 176.9,163.5 180.9,163.5 180,167 180.7,169.7 181,172.5 179.7,175.3 180.3,178 180.9,180.8 179.6,183.5 
	180,186.3 181.2,189.1 179.1,191.9 179,194.6 179.3,197 177.8,198.3 175.8,199.7 173.3,200.3 172.3,202.3 170.5,204.5 171.2,207.2 
	170.6,209.9 170.5,212.6 172.5,215.2 171.3,217.9 172.5,220.6 170.7,223.3 170.7,226 170.5,228.7 171.3,231.5 174.1,232.7 
	177,233.8 180.1,234.2 180.2,236.9 179.3,239.5 179.8,242.2 179.4,244.9 179.1,247.5 179.5,250.2 180.4,252.8 178.8,255.5 
	179.9,258.2 181.1,260.8 180,263.5 180.1,266.3 176.8,266.2 174.3,268 171.4,269.1 171.3,271.9 172.1,274.8 170.7,277.6 
	170.3,280.5 172.2,283.4 171.2,286.2 171.2,289.1 171.6,292 170.4,294.1 168.7,295 166.4,296.7 163.9,297.5 161.4,298.4 
	158.6,298.4 156.5,300.4 153.7,300.5 151.4,301.9 149.1,303.4 146.5,304 143.3,303 141.1,305.2 138.9,303 136.3,302.6 133.5,302.5 
	130.7,302.4 128.2,301.5 126,299.8 123.7,298.2 120.6,299.1 118.3,297.6 116,296.2 113.7,294.7 110,295.4 110.8,292 111.3,289.1 
	111.9,286.3 111.9,283.4 112,280.5 111,277.7 111.1,274.8 110.3,271.9 110.7,269.2 108.4,267 104.7,268.3 103,265.6 101.9,263.5 
	102.8,260.9 101.2,258.2 101.7,255.5 102.6,252.9 102.4,250.2 102.8,247.6 101.6,244.9 101.1,242.2 103.5,239.6 103.4,236.9 
	101.6,233.7 105.4,234 108.3,233.3 109.9,230.6 110.9,228.7 110.3,226 110.5,223.3 111.8,220.6 111.2,218 111.7,215.3 110.4,212.6 
	110.7,209.9 111.4,207.2 111,204.5 111.5,201.5 108.5,201.2 106.6,199.4 104.8,197.7 101.3,197.9 102.4,194.6 101.9,191.9 
	102.7,189.1 102.1,186.3 101.5,183.6 103.2,180.8 102.6,178.1 102.3,175.3 101.4,172.5 101.5,169.7 102.9,167 101.4,163.6 
	105.4,163.9 108.3,162.7 110.2,160.2 110.4,157.9 109.7,155.2 109.7,152.4 109.7,149.7 110.3,147 109.7,144.2 111.6,141.5 
	111.4,138.7 109.7,136 109.9,133.2 110.3,130.8 109,128.8 106.6,128.1 104.4,127 101.5,126.3 101.9,123.2 101.1,120.5 101.3,117.9 
	102.1,115.2 102.4,112.5 101.3,109.8 101.6,107.2 103,104.5 102.6,101.8 101.7,99.1 101.7,96.4 102.5,93.9 104.9,91.9 108.4,92.2 
	110.6,89.7 112,87.2 112,84.6 110.9,82 111.8,79.4 110.9,76.8 109.7,74.1 110.4,71.5 110.7,68.9 110.3,66.3 111.5,64.2 113.7,63.9 
	115.9,62.2 118.5,61.7 121,60.9 123.4,59.7 126.2,59.9 128.4,58 130.8,56.9 133.3,56.1 136.1,56.2 138.4,54.8 "/>
<polygon class="st3" points="141.1,53.7 143.3,56.2 146,56.6 148.6,57 150.9,58.6 154,57.5 156.5,58.1 158.5,60.6 161.2,60.9 
	163.6,61.9 166.6,61.3 168.9,62.7 170.8,64.1 172.6,66.2 171.2,68.9 171.8,71.5 172.1,74.1 171.2,76.7 171.4,79.4 172.2,82 
	172.4,84.6 171.9,87.2 170.6,90.5 174.6,90.4 177.1,92.7 180.6,93.3 179.8,96.4 179.6,99.1 179.8,101.8 181.1,104.5 180.1,107.1 
	180.1,109.8 180.6,112.5 180.8,115.2 180.5,117.8 179.5,120.5 180.1,123.2 180.1,126 177.3,126 176.2,129.2 173,128.3 171,130.3 
	170.8,133.2 170.4,136 171.6,138.7 170.5,141.5 171.4,144.2 171.7,146.9 172.4,149.7 170.5,152.4 171.6,155.1 170.5,157.9 
	172,160.2 174.5,161.2 176.9,163.5 180.9,163.5 180,167 180.7,169.7 181,172.5 179.7,175.3 180.3,178 180.9,180.8 179.6,183.5 
	180,186.3 181.2,189.1 179.1,191.9 179,194.6 179.3,197 177.8,198.3 175.8,199.7 173.3,200.3 172.3,202.3 170.5,204.5 171.2,207.2 
	170.6,209.9 170.5,212.6 172.5,215.2 171.3,217.9 172.5,220.6 170.7,223.3 170.7,226 170.5,228.7 171.3,231.5 174.1,232.7 
	177,233.8 180.1,234.2 180.2,236.9 179.3,239.5 179.8,242.2 179.4,244.9 179.1,247.5 179.5,250.2 180.4,252.8 178.8,255.5 
	179.9,258.2 181.1,260.8 180,263.5 180.1,266.3 176.8,266.2 174.3,268 171.4,269.1 171.3,271.9 172.1,274.8 170.7,277.6 
	170.3,280.5 172.2,283.4 171.2,286.2 171.2,289.1 171.6,292 170.4,294.1 168.7,295 166.4,296.7 163.9,297.5 161.4,298.4 
	158.6,298.4 156.5,300.4 153.7,300.5 151.4,301.9 149.1,303.4 146.5,304 143.3,303 141.1,305.2 138.9,303 136.3,302.6 133.5,302.5 
	130.7,302.4 128.2,301.5 126,299.8 123.7,298.2 120.6,299.1 118.3,297.6 116,296.2 113.7,294.7 110,295.4 110.8,292 111.3,289.1 
	111.9,286.3 111.9,283.4 112,280.5 111,277.7 111.1,274.8 110.3,271.9 110.7,269.2 108.4,267 104.7,268.3 103,265.6 101.9,263.5 
	102.8,260.9 101.2,258.2 101.7,255.5 102.6,252.9 102.4,250.2 102.8,247.6 101.6,244.9 101.1,242.2 103.5,239.6 103.4,236.9 
	101.6,233.7 105.4,234 108.3,233.3 109.9,230.6 110.9,228.7 110.3,226 110.5,223.3 111.8,220.6 111.2,218 111.7,215.3 110.4,212.6 
	110.7,209.9 111.4,207.2 111,204.5 111.5,201.5 108.5,201.2 106.6,199.4 104.8,197.7 101.3,197.9 102.4,194.6 101.9,191.9 
	102.7,189.1 102.1,186.3 101.5,183.6 103.2,180.8 102.6,178.1 102.3,175.3 101.4,172.5 101.5,169.7 102.9,167 101.4,163.6 
	105.4,163.9 108.3,162.7 110.2,160.2 110.4,157.9 109.7,155.2 109.7,152.4 109.7,149.7 110.3,147 109.7,144.2 111.6,141.5 
	111.4,138.7 109.7,136 109.9,133.2 110.3,130.8 109,128.8 106.6,128.1 104.4,127 101.5,126.3 101.9,123.2 101.1,120.5 101.3,117.9 
	102.1,115.2 102.4,112.5 101.3,109.8 101.6,107.2 103,104.5 102.6,101.8 101.7,99.1 101.7,96.4 102.5,93.9 104.9,91.9 108.4,92.2 
	110.6,89.7 112,87.2 112,84.6 110.9,82 111.8,79.4 110.9,76.8 109.7,74.1 110.4,71.5 110.7,68.9 110.3,66.3 111.5,64.2 113.7,63.9 
	115.9,62.2 118.5,61.7 121,60.9 123.4,59.7 126.2,59.9 128.4,58 130.8,56.9 133.3,56.1 136.1,56.2 138.4,54.8 "/>
<linearGradient id="SVGID_18_" gradientUnits="userSpaceOnUse" x1="123.0586" y1="650.5919" x2="181.9789" y2="650.5919" gradientTransform="matrix(1 0 0 1 -8.3599 -553.64)">
	<stop  offset="0" style="stop-color:#E5F7FF"/>
	<stop  offset="0.2704" style="stop-color:#EEF7FF"/>
	<stop  offset="0.4286" style="stop-color:#E4F7FF"/>
	<stop  offset="1" style="stop-color:#EEF7FF"/>
</linearGradient>
<path class="st22" d="M117.8,68.3c3.7,0.3,7.4-0.4,11-1c-1.4,0.5-2.8,1.3-4.3,1.8c2.9,0.1,5.8-0.1,8.7-0.1c-2.7,4.1-8.3,5.3-12.8,7
	c4.8-0.8,10.7-2.9,15.4-1.9c-2.1,2.5-5.8,3.4-9.1,3.8c0.7-0.1,1.3-0.2,2-0.4c-4.1,2-8.6,3.4-12.9,5c6.1,0.1,11.8-0.9,17.7-1.9
	c0.1,0.6-0.6,0.5-0.6,1c2.6-1,5.9-1.3,8.5-0.2c-3.2,1.1-6.7,2.4-9.8,4c-0.1,0-0.2,0,0,0c4,0,8-1.2,11.8-0.2
	c-3.4,6.9-17,7.4-23.6,10.5c8.4-2.5,16.4-1.8,24.8-2.8c-2.6,3.3-8.7,4-11.8,7.2c0.9,0,1.9,0,2.8,0c-6.7,0.4-13.4,2.9-19.8,4.8
	c5.8,0,11.5,0.1,16.9,1.4c0,0,0,1,0,1c-5.9,2.1-12,4.1-18,6.3c4.9-0.1,9.7,0.2,14.5,0.6c0,0-1.5,0.7-1.9,0.8c0.8,0,1.9-0.2,2.7,0.1
	c-0.2,0.3-1.9,0.5-1.8,1c0,0,0,1,0,1c0.6,0.3,1.4,0,1.7,0.7c-4.6,2.7-10,3.8-14.4,6.8c6-0.1,12.7-0.5,18.5,0.9
	c-0.1-0.3-0.5,0.1-0.4,0.2c0.2,0.3,0.7,0.5,1,0.8c-4,2.7-11.2,1.1-15.1,3.9c4.2,0,18.7-3.2,23-3.3c8.1-0.2,15.5,4.9,23.6,5.4
	c-2.3-1.7-4.6-3.2-6.9-4.8c2.3,0.4,4.5,0.4,6.8,0.4c-0.4-0.1-1.3-0.4-1.8-0.6c1.8,0,3.4-1,4.9-1.3c-4.6-2.6-19.1-5.1-18.8-12.1
	c3.4,1.1,7.7,0.3,10.7,0.2c-0.5-0.1-1.3-0.1-1.9,0c4.3-2.9,9.8-0.5,14.6-1c-6.5-1.1-14.3-4.9-20.1-8.1c1.2,0.1,2.3-0.3,3.3-0.4
	c-0.2-0.2-1.7-1-1.8-1.3c1.9-4.6,11.7-1.8,16.1-2.2c-5-0.7-9-3.2-13.5-5c0.6-0.1,1.6-0.5,2.3-0.7c-1.7-2.9-4.5-4.9-7.9-5.6
	c3.9-1,8.1-1.2,12.1-2.2c-5.2-2-10.5-4.9-14.9-8.4c3,0.2,6.2,0.1,9.1,0.8c-4.1-1.1-14.5-4.7-13.4-10c6.8-0.1,13.4,2.2,20.1,2
	c-6.7-3.7-15-9.5-22.7-10.6C133.5,60.3,126,68.9,117.8,68.3L117.8,68.3z"/>
<linearGradient id="SVGID_19_" gradientUnits="userSpaceOnUse" x1="160.8035" y1="731.6857" x2="182.5405" y2="731.6857" gradientTransform="matrix(1 0 0 1 -8.3599 -553.64)">
	<stop  offset="0" style="stop-color:#E5F7FF"/>
	<stop  offset="0.2704" style="stop-color:#EEF7FF"/>
	<stop  offset="0.4286" style="stop-color:#E4F7FF"/>
	<stop  offset="1" style="stop-color:#EEF7FF"/>
</linearGradient>
<path class="st23" d="M156.8,191.2c-14.4,5.6,11.5,5.6,14.5,6c-3.3-1-7.1-0.7-10-2.9c1-0.5,2-1,3.1-1.3c0,0-1.6-0.7-1.6-0.6
	c3.8-1.8,7.9-3.7,11.4-6.1c-3.3-0.2-6.7,0-9.3-2.1c1-0.8,2.1-2.5,2.7-2.9c-0.2-0.4-1,0-1-0.6c2-2.4,4.9-3.7,7.6-5.2
	c-3.3-0.5-6.6-1.2-10-1.1c-1.1-0.9-2.3-2.3-4-3.5c3-1.6,6.4-2.3,9.7-2.4c-2.4-1.3-5.6-2.3-7.3-4.3c1.9-1.5,1-2,2.1-3.9
	c-6.7-3.5-12.7-0.7-10,7.3c2.1,5.9,8.6,8.2,7.6,15.6c-0.4,3.4-2.2,6.1-5.1,8"/>
<linearGradient id="SVGID_20_" gradientUnits="userSpaceOnUse" x1="119.9468" y1="814.6801" x2="180.9442" y2="814.6801" gradientTransform="matrix(1 0 0 1 -8.3599 -553.64)">
	<stop  offset="0" style="stop-color:#E5F7FF"/>
	<stop  offset="0.2704" style="stop-color:#EEF7FF"/>
	<stop  offset="0.4286" style="stop-color:#E4F7FF"/>
	<stop  offset="1" style="stop-color:#EEF7FF"/>
</linearGradient>
<path class="st24" d="M121.1,293.4c7,1.1,14.5-1.9,20.3-5.4c-7.8-2.1-14.5-5.9-22.8-5.1c-0.3,0-0.3,0,0,0c5.5-0.7,11.1-2.2,16.1-4.5
	c-0.1,0-1-0.2-1-0.2c3-0.6,5.9-1.8,8.6-2.8c-8.5-1-17.2-4.3-26-5c3.1-0.2,5.5-1.4,8.4-2c-2.5-0.7-4.5-2.1-6.8-2.9
	c8.2,1.6,16.4-2,23.6-5.4c-9.1-0.6-19.2-3.1-27.8-4.6c4.8-0.2,9.7-1.3,14.1-3.4c-5.5-2.3-12-3.1-16.1-7.8c1.8-1.3,4.8-2.8,7-3.4
	c0.1-0.4-1.2-2-1.1-2c5.2-0.5,10.3-1.5,15.2-3.1c-3.9-3.2-7.4-7.4-9.1-12.2c14.1,10.1,21.9,11.2,37.4,2.5c-2.3,2.4-3.7,5.6-6.2,8.1
	c7.2-0.1,6.2,2.1,13.5,1.9c-6.1,2.4-5,1.2-10.6,4.8c3.5-0.1,7.2,1.1,10.7,1c-4.8,1.5-10.1,3.1-13.6,5.7c3.3,0.2,6.7,1.2,10.3,0.8
	c-4.9,1.1-9.6,3.2-12.7,6.6c6.6,0.5,14.5-0.8,20.3-1.6c-7.3,2.7-18.5,4.2-22,11.6c5.6,1.1,11.8-0.6,17.3-2.4
	c-4.1,2.7-8.8,5.2-13.1,7.4c1.9-0.1,4.1,0.5,5.8,0.5c-1.5,1.2-3.4,3.9-4.5,4.9c1.9,0.5,3.3,0.9,4.9,1.7c-3.4,2.5-6.5,5.8-10.4,7.9
	c4.5,3.3,10.6,5,16.5,4.5c-7.9,3.1-14.5,8.2-23.1,8.7C143.9,298.3,126.3,296.9,121.1,293.4L121.1,293.4z"/>
<linearGradient id="SVGID_21_" gradientUnits="userSpaceOnUse" x1="124.5852" y1="750.8278" x2="138.8303" y2="750.8278" gradientTransform="matrix(1 0 0 1 -8.3599 -553.64)">
	<stop  offset="0" style="stop-color:#E5F7FF"/>
	<stop  offset="0.2704" style="stop-color:#EEF7FF"/>
	<stop  offset="0.4286" style="stop-color:#E4F7FF"/>
	<stop  offset="1" style="stop-color:#EEF7FF"/>
</linearGradient>
<path class="st25" d="M124.4,204.1c1.4-0.6,4-4,6.1-7.5c-4.7-2.5-9.2-5.6-14.2-7c1.7,1,3.6,1.6,5.2,2.4c-1.2,1.5-3.1,3.1-4.1,4.5
	c2,0.4,3.8,1.5,5.4,2.1c-2.2,1.3-4.3,4.5-6.3,5.7c2.7,0.5,5.5,0.3,8.3-0.3L124.4,204.1L124.4,204.1z"/>
<linearGradient id="SVGID_22_" gradientUnits="userSpaceOnUse" x1="116.911" y1="715.9513" x2="138.0033" y2="715.9513" gradientTransform="matrix(1 0 0 1 -8.3599 -553.64)">
	<stop  offset="0" style="stop-color:#E5F7FF"/>
	<stop  offset="0.2704" style="stop-color:#EEF7FF"/>
	<stop  offset="0.4286" style="stop-color:#E4F7FF"/>
	<stop  offset="1" style="stop-color:#EEF7FF"/>
</linearGradient>
<path class="st26" d="M129.6,161.7c-0.8-4.4-9.5-10-13.5-10.8c2,0.2,2.9,1.2,3.5,2.9c-0.5,0.2-1.1,0.7-1.6,0.9
	c10.7,8.4-3,9.4-9.5,13.7c1.8-0.1,3.7-0.2,5.5-0.3c0,0.2-0.6,1.2-0.8,1.4c0.1,0.1,1.1,0.2,1.1,0.2c-0.8,1.4-2.1,2.8-3.4,3.9
	c-0.4,0.4,0.5,0,0.9,0.1C111.9,173.7,130.6,167.1,129.6,161.7L129.6,161.7z"/>
<g class="st27">
	<polygon class="st6" points="101.6,257.8 138.1,262.6 101.5,259 	"/>
	<polygon class="st6" points="101.5,109.3 127.3,107.8 101.6,110.5 	"/>
	<path class="st6" d="M101.6,114.7C101.6,114.7,101.6,114.6,101.6,114.7c0,0,0,0,0.1-0.2c0.1-0.1,0.1-0.1,0.2-0.2c0.1,0,0.1,0,0.1,0
		c0.1,0,0.1,0,0.2-0.1c0.2-0.1,0.5-0.1,0.8-0.1c0.6,0,1.5-0.1,2.5,0c2,0,4.7,0.1,7.4,0.3c5.4,0.3,10.7,0.6,10.7,0.6s-5.4-0.1-10.7,0
		c-2.7,0-5.3,0.1-7.3,0.2c-1,0-1.8,0.1-2.4,0.2c-0.3,0-0.5,0.1-0.6,0.1c0,0,0,0,0,0l0,0c0.1,0,0.1-0.1,0.2-0.2c0.1-0.2,0-0.1,0-0.1
		c0,0,0,0,0,0L101.6,114.7L101.6,114.7z"/>
	<polygon class="st6" points="179.9,121.3 157.2,114.5 180.2,120.1 	"/>
	<polygon class="st6" points="179.8,110.5 157.2,102.8 180.2,109.3 	"/>
	<polygon class="st6" points="176.5,199.8 149.7,199.2 176.5,198.6 	"/>
	<polygon class="st6" points="171.4,228.8 148.1,228.2 171.4,227.6 	"/>
	<polygon class="st6" points="112.4,285.6 136.4,287.7 112.4,286.8 	"/>
	<polygon class="st6" points="171.6,281 154.7,286.2 171.2,279.8 	"/>
	<polygon class="st6" points="101.6,184 126.7,184.6 101.6,185.2 	"/>
	<polygon class="st6" points="180,173.6 151.8,170.9 180.1,172.4 	"/>
	<polygon class="st6" points="171.3,157 151.8,152.6 171.5,155.8 	"/>
	<polygon class="st6" points="171.1,83.5 148.1,71.3 171.7,82.3 	"/>
	<polygon class="st6" points="171.5,138.7 160.5,139 171.4,137.5 	"/>
	<path class="st6" d="M108.5,144.6c0,0,3.8-0.8,7.5-1.7c1.9-0.4,3.8-0.8,5.2-1.1c1.4-0.3,2.4-0.4,2.4-0.4s-1,0.2-2.3,0.6
		c-1.4,0.4-3.2,0.9-5.1,1.5c-3.7,1.1-7.4,2.3-7.4,2.3L108.5,144.6L108.5,144.6z"/>
	<polygon class="st6" points="171.4,221.3 159.7,220.7 171.4,220.1 	"/>
</g>
<g class="st27">
	<path class="st6" d="M111.5,245.6c0,0,0.5,0,1.3,0c0.8,0,2,0,3.4,0c0.7,0,1.5,0,2.3,0.1c0.8,0,1.6,0,2.5,0c1.7,0,3.6,0,5.5,0
		c3.7-0.1,7.5,0,10.3,0.1c1.4,0,2.6,0.1,3.4,0.2c0.8,0.1,1.3,0.1,1.3,0.1s-0.5,0.1-1.3,0.1c-0.8,0.1-2,0.2-3.4,0.3
		c-2.8,0.2-6.5,0.4-10.3,0.4c-1.9,0-3.8-0.1-5.5-0.1c-0.9,0-1.7,0-2.5-0.1c-0.8-0.1-1.6-0.2-2.3-0.3c-1.4-0.2-2.5-0.4-3.4-0.5
		C112,245.7,111.5,245.6,111.5,245.6L111.5,245.6z"/>
	<path class="st6" d="M119.4,278.4c0,0,0.3-0.1,0.9-0.2c0.6-0.1,1.4-0.2,2.4-0.3c2-0.3,4.7-0.5,7.4-0.6c2.7-0.1,5.4-0.1,7.4,0
		c1,0,1.9,0.1,2.5,0.2c0.6,0,0.9,0.1,0.9,0.1s-0.3,0.1-0.9,0.1c-0.6,0.1-1.4,0.2-2.4,0.3c-2,0.2-4.7,0.4-7.4,0.5
		c-2.7,0.1-5.4,0.1-7.4,0.1c-1,0-1.9-0.1-2.5-0.1C119.8,278.4,119.4,278.4,119.4,278.4L119.4,278.4z"/>
	<path class="st6" d="M174.2,257.7c0,0-0.3,0.1-0.9,0.4c-0.6,0.2-1.4,0.5-2.4,0.9c-0.5,0.2-1,0.3-1.6,0.5c-0.6,0.2-1.1,0.4-1.8,0.6
		c-1.2,0.4-2.5,0.9-3.8,1.3c-2.6,0.9-5.3,1.7-7.3,2.2c-1,0.3-1.9,0.4-2.5,0.6c-0.6,0.1-0.9,0.2-0.9,0.2s0.3-0.2,0.9-0.4
		c0.6-0.2,1.3-0.6,2.3-1c1.9-0.8,4.5-1.8,7.1-2.7c1.3-0.4,2.7-0.8,3.9-1.2c0.6-0.2,1.2-0.4,1.8-0.5c0.6-0.1,1.1-0.2,1.7-0.3
		c1-0.2,1.9-0.3,2.5-0.4C173.8,257.7,174.2,257.6,174.2,257.7L174.2,257.7z"/>
	<path class="st6" d="M172.5,251.4c0,0-0.9,0.6-2.3,1.3c-0.7,0.4-1.5,0.8-2.5,1.1c-0.9,0.4-1.9,0.7-2.9,1c-2,0.6-4,1.1-5.5,1.5
		c-1.5,0.4-2.6,0.5-2.6,0.5s0.9-0.5,2.4-1.2c1.4-0.7,3.4-1.4,5.4-2c1-0.3,2-0.6,2.9-0.9c0.9-0.2,1.8-0.5,2.6-0.7
		C171.5,251.6,172.6,251.4,172.5,251.4L172.5,251.4z"/>
	<path class="st6" d="M146,187.1c0,0,0.3,0,0.8,0c0.5,0,1.3,0,2.2,0c1.8,0,4.2,0.1,6.6,0.3c2.4,0.3,4.8,0.7,6.5,1.1
		c0.9,0.2,1.6,0.4,2.1,0.5c0.5,0.1,0.8,0.2,0.8,0.2s-0.3,0-0.8,0c-0.5,0-1.3,0-2.2,0c-1.8-0.1-4.2-0.3-6.6-0.6
		c-2.4-0.2-4.8-0.5-6.6-0.9c-0.9-0.2-1.6-0.3-2.1-0.4C146.3,187.2,146,187.1,146,187.1L146,187.1z"/>
	<path class="st6" d="M119.4,175c0,0,0.3-0.1,0.9-0.1c0.5-0.1,1.3-0.2,2.3-0.3c1.9-0.2,4.4-0.3,6.8-0.4c2.5-0.1,5,0,6.9,0.1
		c0.9,0,1.7,0.1,2.3,0.2c0.5,0.1,0.9,0.1,0.9,0.1s-0.3,0.1-0.9,0.1c-0.5,0.1-1.3,0.2-2.3,0.3c-1.9,0.2-4.4,0.4-6.8,0.4
		c-2.5,0-5,0-6.9-0.2c-0.9-0.1-1.7-0.2-2.3-0.2C119.7,175.1,119.4,175.1,119.4,175L119.4,175z"/>
	<path class="st6" d="M116.9,127.3c0,0,0.3,0,0.9,0.1c0.3,0,0.6,0.1,1,0.1c0.4,0.1,0.8,0,1.3,0.1c0.5,0,0.9,0,1.5,0.1
		c0.5,0,1.1,0,1.6,0c0.6,0,1.2,0,1.7,0c0.6,0,1.2,0,1.8-0.1c2.4-0.2,4.9-0.3,6.7-0.4c0.9,0,1.7-0.1,2.2-0.1c0.5,0,0.9,0,0.9,0
		s-0.3,0.1-0.8,0.3c-0.5,0.1-1.3,0.4-2.2,0.6c-0.9,0.2-2,0.4-3.1,0.6c-0.6,0.1-1.2,0.2-1.8,0.2c-0.6,0.1-1.2,0.1-1.8,0.2
		c-0.6,0-1.2,0-1.9,0c-0.6,0-1.2,0-1.8-0.1c-0.6,0-1.1-0.1-1.7-0.2c-0.5-0.1-1-0.2-1.5-0.3c-0.9-0.1-1.6-0.5-2.2-0.6
		C117.2,127.4,116.9,127.3,116.9,127.3L116.9,127.3z"/>
	<path class="st6" d="M114.9,99.5c0,0,0.5-0.1,1.3-0.3c0.8-0.2,1.9-0.4,3.3-0.7c2.7-0.5,6.4-1.2,10.1-1.7c3.7-0.5,7.4-0.9,10.2-1.2
		c1.4-0.1,2.6-0.2,3.4-0.2c0.8,0,1.3-0.1,1.3-0.1s-0.5,0.1-1.2,0.3c-0.8,0.2-1.9,0.4-3.3,0.7c-2.7,0.5-6.4,1.2-10.1,1.7
		c-3.7,0.5-7.4,0.9-10.2,1.2c-1.4,0.1-2.6,0.2-3.4,0.2C115.3,99.5,114.9,99.5,114.9,99.5L114.9,99.5z"/>
	<path class="st6" d="M117.8,92c0,0,0.3-0.1,0.9-0.3c0.6-0.2,1.5-0.4,2.5-0.7c2.1-0.5,4.9-1.2,7.7-1.7c2.8-0.6,5.6-1.1,7.7-1.4
		c1.1-0.2,2-0.2,2.6-0.3c0.6-0.1,1-0.1,1-0.1s-0.3,0.1-0.9,0.3c-0.6,0.2-1.4,0.5-2.5,0.8c-2.1,0.6-4.8,1.3-7.6,2
		c-2.8,0.5-5.6,0.9-7.8,1.2c-1.1,0.1-2,0.2-2.6,0.2C118.1,92,117.8,92,117.8,92z"/>
	<path class="st6" d="M121.1,77.5c0,0,0.6-0.2,1.5-0.5c0.2-0.1,0.5-0.1,0.7-0.2c0.3,0,0.5-0.1,0.8-0.2c0.5-0.1,1.1-0.3,1.7-0.4
		c0.6-0.1,1.2-0.3,1.7-0.4c0.3-0.1,0.6-0.1,0.8-0.1c0.3-0.1,0.5-0.1,0.7-0.2c0.9-0.2,1.6-0.2,1.6-0.2s-0.5,0.4-1.3,0.9
		c-0.4,0.2-0.9,0.5-1.5,0.7c-0.6,0.2-1.2,0.4-1.8,0.6c-0.6,0.1-1.3,0.2-1.9,0.2c-0.6,0.1-1.1,0-1.6,0
		C121.7,77.7,121.1,77.5,121.1,77.5L121.1,77.5z"/>
	<path class="st6" d="M120.7,74.2c0,0,0.2-0.3,0.6-0.5c0.4-0.2,0.9-0.5,1.4-0.6c0.5-0.2,1-0.3,1.4-0.2c0.4,0,0.8,0.1,0.8,0.1
		s-0.2,0.3-0.5,0.6c-0.3,0.3-0.8,0.6-1.4,0.8c-0.5,0.1-1.1,0.1-1.5,0.1C121,74.3,120.7,74.2,120.7,74.2L120.7,74.2z"/>
	<path class="st6" d="M174.2,99.9c0,0-0.8,0-2,0c-1.2-0.1-2.7-0.3-4.2-0.6c-1.5-0.3-3-0.7-4.1-1.1c-1.1-0.4-1.8-0.7-1.8-0.7
		s0.8,0,2,0c1.2,0.1,2.7,0.3,4.2,0.6c1.5,0.3,3,0.7,4.1,1.1C173.5,99.6,174.2,99.9,174.2,99.9L174.2,99.9z"/>
</g>
<linearGradient id="SVGID_23_" gradientUnits="userSpaceOnUse" x1="149.7743" y1="684.0681" x2="149.7743" y2="783.1611" gradientTransform="matrix(1 0 0 1 -8.3599 -553.64)">
	<stop  offset="0" style="stop-color:#EFECB4"/>
	<stop  offset="0.3394" style="stop-color:#9C7C69"/>
	<stop  offset="0.5" style="stop-color:#EFECB4"/>
	<stop  offset="0.6585" style="stop-color:#9C7C69"/>
	<stop  offset="1" style="stop-color:#EFECB4"/>
</linearGradient>
<path class="st28" d="M149.4,167.2c-1.9-1.9-1.9-5.1,0-7l8.9-8.9c1.9-1.9,1.9-5.1,0-7l-13.4-13.4c-1.9-1.9-5.1-1.9-7,0l-13.4,13.4
	c-1.9,1.9-1.9,5.1,0,7l8.9,8.9c1.9,1.9,1.9,5.1,0,7l-8.9,8.9c-1.9,1.9-1.9,5.1,0,7l9.3,9.3c1.9,1.9,1.9,5.1,0,7l-9.3,9.3
	c-1.9,1.9-1.9,5.1,0,7l13.4,13.4c1.9,1.9,5.1,1.9,7,0l13.4-13.4c1.9-1.9,1.9-5.1,0-7l-9.3-9.3c-1.9-1.9-1.9-5.1,0-7l9.3-9.3
	c1.9-1.9,1.9-5.1,0-7L149.4,167.2L149.4,167.2z"/>
<path class="st29" d="M149.4,167.2c-1.9-1.9-1.9-5.1,0-7l8.9-8.9c1.9-1.9,1.9-5.1,0-7l-13.4-13.4c-1.9-1.9-5.1-1.9-7,0l-13.4,13.4
	c-1.9,1.9-1.9,5.1,0,7l8.9,8.9c1.9,1.9,1.9,5.1,0,7l-8.9,8.9c-1.9,1.9-1.9,5.1,0,7l9.3,9.3c1.9,1.9,1.9,5.1,0,7l-9.3,9.3
	c-1.9,1.9-1.9,5.1,0,7l13.4,13.4c1.9,1.9,5.1,1.9,7,0l13.4-13.4c1.9-1.9,1.9-5.1,0-7l-9.3-9.3c-1.9-1.9-1.9-5.1,0-7l9.3-9.3
	c1.9-1.9,1.9-5.1,0-7L149.4,167.2L149.4,167.2z"/>
<rect x="130.4" y="136.3" transform="matrix(0.7071 -0.7071 0.7071 0.7071 -62.7526 143.1538)" class="st30" width="22.1" height="22.1"/>
<rect x="132.2" y="138.1" transform="matrix(0.7072 -0.707 0.707 0.7072 -62.776 143.1275)" class="st31" width="18.4" height="18.4"/>
<circle class="st32" cx="141.4" cy="147.4" r="6.3"/>
<circle class="st33" cx="141.4" cy="147.4" r="3"/>
<path class="st34" d="M136.7,147.4c0-2.6,2.1-4.7,4.7-4.7"/>
<path class="st35" d="M144,145.1c0,0,0.1,0.1,0.4,0.3c0.2,0.2,0.5,0.5,0.8,0.9c0.1,0.2,0.2,0.5,0.3,0.8c0,0.3,0.2,0.6,0.1,1
	c0,0.4-0.1,0.7-0.2,1.1c-0.2,0.3-0.3,0.7-0.6,1c-0.2,0.3-0.5,0.5-0.8,0.7c-0.3,0.2-0.6,0.3-1,0.4c-0.3,0.1-0.7,0.1-1,0.1
	c-0.3,0-0.6,0-0.9-0.1c-0.3-0.1-0.5-0.2-0.7-0.3c-0.2-0.1-0.3-0.2-0.4-0.3c-0.2-0.2-0.3-0.3-0.3-0.3s0.2,0,0.4,0.1
	c0.1,0.1,0.3,0.1,0.5,0.1c0.2,0,0.4,0,0.6,0c0.2,0,0.4-0.1,0.7-0.1c0.2-0.1,0.5-0.1,0.7-0.2c0.2-0.1,0.4-0.3,0.7-0.4
	c0.2-0.2,0.4-0.3,0.6-0.5c0.2-0.2,0.3-0.4,0.4-0.6c0.1-0.2,0.2-0.5,0.2-0.7c0.1-0.2,0-0.5,0.1-0.7c0-0.2,0-0.5-0.1-0.7
	c-0.1-0.2-0.1-0.4-0.1-0.6c-0.1-0.2-0.1-0.3-0.2-0.5C144.1,145.3,144,145.1,144,145.1L144,145.1z"/>
<rect x="130.4" y="168.6" transform="matrix(0.7071 -0.7071 0.7071 0.7071 -85.5963 152.6111)" class="st30" width="22.1" height="22.1"/>
<rect x="132.2" y="170.4" transform="matrix(0.7072 -0.707 0.707 0.7072 -85.6155 152.5942)" class="st31" width="18.4" height="18.4"/>
<circle class="st32" cx="141.4" cy="179.7" r="6.3"/>
<circle class="st33" cx="141.4" cy="179.7" r="3"/>
<path class="st34" d="M136.7,179.7c0-2.6,2.1-4.7,4.7-4.7"/>
<path class="st35" d="M144,177.4c0,0,0.1,0.1,0.4,0.3c0.2,0.2,0.5,0.5,0.8,0.9c0.1,0.2,0.2,0.5,0.3,0.8c0,0.3,0.2,0.6,0.1,1
	c0,0.4-0.1,0.7-0.2,1.1c-0.2,0.3-0.3,0.7-0.6,1c-0.2,0.3-0.5,0.5-0.8,0.7c-0.3,0.2-0.6,0.3-1,0.4c-0.3,0.1-0.7,0.1-1,0.1
	c-0.3,0-0.6,0-0.9-0.1c-0.3-0.1-0.5-0.2-0.7-0.3c-0.2-0.1-0.3-0.2-0.4-0.3c-0.2-0.2-0.3-0.3-0.3-0.3s0.2,0,0.4,0.1
	c0.1,0.1,0.3,0.1,0.5,0.1c0.2,0,0.4,0,0.6,0c0.2,0,0.4-0.1,0.7-0.1c0.2-0.1,0.5-0.1,0.7-0.3c0.2-0.1,0.4-0.3,0.7-0.4
	c0.2-0.2,0.4-0.3,0.6-0.5c0.2-0.2,0.3-0.4,0.4-0.6c0.1-0.2,0.2-0.5,0.2-0.7c0.1-0.2,0-0.5,0.1-0.7c0-0.2,0-0.5-0.1-0.7
	c-0.1-0.2-0.1-0.4-0.1-0.6c-0.1-0.2-0.1-0.3-0.2-0.5C144.1,177.6,144,177.4,144,177.4L144,177.4z"/>
<rect x="130.4" y="201.3" transform="matrix(0.7071 -0.7071 0.7071 0.7071 -108.7634 162.203)" class="st30" width="22.1" height="22.1"/>
<rect x="132.2" y="203.2" transform="matrix(0.7072 -0.707 0.707 0.7072 -108.7637 162.179)" class="st31" width="18.4" height="18.4"/>
<circle class="st32" cx="141.4" cy="212.4" r="6.3"/>
<circle class="st33" cx="141.4" cy="212.4" r="3"/>
<path class="st34" d="M136.7,212.4c0-2.6,2.1-4.7,4.7-4.7"/>
<path class="st35" d="M144,210.2c0,0,0.1,0.1,0.4,0.3c0.2,0.2,0.5,0.5,0.8,0.9c0.1,0.2,0.2,0.5,0.3,0.8c0,0.3,0.2,0.6,0.1,1
	c0,0.4-0.1,0.7-0.2,1.1c-0.2,0.3-0.3,0.7-0.6,1c-0.2,0.3-0.5,0.5-0.8,0.7c-0.3,0.2-0.6,0.3-1,0.4c-0.3,0.1-0.7,0.1-1,0.1
	c-0.3,0-0.6,0-0.9-0.1c-0.3-0.1-0.5-0.2-0.7-0.3c-0.2-0.1-0.3-0.2-0.4-0.3c-0.2-0.2-0.3-0.3-0.3-0.3s0.2,0,0.4,0.1
	c0.1,0.1,0.3,0.1,0.5,0.1c0.2,0,0.4,0,0.6,0c0.2,0,0.4-0.1,0.7-0.1c0.2-0.1,0.5-0.1,0.7-0.3c0.2-0.1,0.4-0.3,0.7-0.4
	c0.2-0.2,0.4-0.3,0.6-0.5c0.2-0.2,0.3-0.4,0.4-0.6c0.1-0.2,0.2-0.5,0.2-0.7c0.1-0.2,0-0.5,0.1-0.7c0-0.2,0-0.5-0.1-0.7
	c-0.1-0.2-0.1-0.4-0.1-0.6c-0.1-0.2-0.1-0.3-0.2-0.5C144.1,210.3,144,210.2,144,210.2L144,210.2z"/>
<path class="st36" d="M224.4,283.8c0,12.5-6.2,22.4-17.4,26.1c-24.9,8.7-52.3,10-78.4,8.7c-17.4-1.2-34.9-5-52.3-8.7
	c-13.7-2.5-21.2-14.9-21.2-27.4c-3.7-69.7,1.2-139.5,2.5-209.2c0-10,7.5-18.7,16.2-22.4c26.1-8.7,54.8-11.2,82.2-10
	c17.4,1.2,32.4,6.2,49.8,8.7c5,1.2,8.7,6.2,13.7,10c3.7,5,7.5,10,7.5,16.2C228.2,145.6,224.4,214.1,224.4,283.8z"/>
<path class="st36" d="M218.2,280.1c0,7.5-2.5,13.7-7.5,18.7c-2.5,1.2-3.7,5-6.2,5c-26.1,12.5-54.8,12.5-83.4,10
	c-10-1.2-19.9-3.7-31.1-5c-13.7-2.5-24.9-13.7-24.9-26.1c-3.7-68.5,1.2-137,1.2-205.5C70,56,93.7,49.8,112.4,48.5
	c2.5,0,6.2-2.5,8.7-2.5c27.4-3.7,54.8,1.2,80.9,8.7c2.5,1.2,5,2.5,7.5,5l7.5,11.2c1.2,2.5,2.5,6.2,2.5,8.7
	C220.7,146.9,217,212.9,218.2,280.1z"/>
<linearGradient id="SVGID_24_" gradientUnits="userSpaceOnUse" x1="126.8711" y1="147.147" x2="156.8291" y2="147.147">
	<stop  offset="0" style="stop-color:#E5F7FF"/>
	<stop  offset="0.2704" style="stop-color:#EEF7FF"/>
	<stop  offset="0.4286" style="stop-color:#E4F7FF"/>
	<stop  offset="1" style="stop-color:#EEF7FF"/>
</linearGradient>
<path class="st37" d="M154.6,148.1c0.1,0,0.3,0.1,0.5,0.1c2.3,0,2.4-3.4,0.3-3.7c0.1-0.5,0-1.1-0.2-1.5c-0.2-0.7-0.8-1.2-1.7-1.2
	c-0.1,0-0.2,0-0.3,0c0.1-1-0.5-2.1-1.8-2.1c-0.5,0-1,0.2-1.3,0.5c-0.2-0.6-0.8-1.1-1.6-1.1c-0.1-0.2-0.2-0.3-0.4-0.4
	c-0.3-0.4-0.8-0.6-1.4-0.6c-0.3,0-0.6,0.1-0.8,0.2c-0.2-0.5-0.5-0.9-1-1.1c0.2-1-0.4-2.2-1.8-2.2c-0.2,0-0.4,0-0.6,0.1
	c-0.2-0.7-0.8-1.3-1.7-1.3c-1.1,0-1.7,0.8-1.8,1.7c-0.4,0.5-0.5,1.1-0.4,1.7c-0.2,0-0.3-0.1-0.5-0.1c-1.2,0-1.8,1-1.8,1.9
	c-0.1,0-0.2,0-0.3,0c-0.7,0-1.3,0.4-1.5,0.9c-0.2,0-0.4,0.1-0.6,0.2c-0.9,0.1-1.4,0.8-1.5,1.6c-0.3,0.2-0.4,0.5-0.5,0.8
	c-0.8,0.4-1.1,1.4-0.8,2.3c0,0.1,0,0.2-0.1,0.3c-0.1,0-0.1,0-0.2,0c-0.2-0.1-0.4-0.2-0.6-0.2c-0.1-0.1-0.1-0.2-0.2-0.2
	c-0.3-0.4-0.8-0.6-1.4-0.6c-1.9,0-2.3,2.4-1.2,3.3c0.2,0.3,0.6,0.5,1,0.6c0.3,0.4,0.8,0.7,1.4,0.7c0.2,0,0.3,0,0.5-0.1c0,0,0,0,0,0
	c0,0.2,0.1,0.4,0.2,0.6c0,0.4,0.2,0.8,0.4,1.2c-0.1,0.6,0.2,1.3,0.6,1.7c-0.1,0.7,0.1,1.5,0.7,1.9c0.2,0.5,0.5,0.9,1.1,1.1
	c0.2,0.2,0.4,0.4,0.7,0.6c0.1,0.8,0.6,1.5,1.7,1.6c0.1,0.9,0.7,1.7,1.8,1.7c0.4,0,0.7-0.1,1-0.3c-0.2,1.1,0.3,2.3,1.7,2.3
	c0.9,0,1.5-0.6,1.7-1.3c0.3,0.4,0.8,0.7,1.4,0.7c1.2,0,1.8-1,1.8-1.9c0.5-0.3,0.9-0.9,0.9-1.6c0,0,0-0.1,0-0.1
	c0.3,0.2,0.6,0.3,1.1,0.3c1.1,0,1.7-0.8,1.8-1.6c0.7-0.3,1-1,1-1.6c0.2,0.1,0.4,0.1,0.7,0.1c0.1,0,0.2,0,0.3,0
	c-0.1,1,0.5,2.1,1.8,2.1c1.9,0,2.3-2.4,1.2-3.3c0,0,0.1,0,0.1,0c2.4,0,2.4-3.7,0-3.7c0,0-0.1,0-0.1,0c0,0,0-0.1,0-0.1
	C154.2,148.4,154.4,148.3,154.6,148.1z M149.3,150.5c-0.3,0.3-0.4,0.7-0.5,1.2c-0.2-0.1-0.4-0.1-0.7-0.1c-1.1,0-1.7,0.8-1.8,1.6
	c-0.8,0.3-1.1,1.1-1,1.9c-0.3-0.2-0.7-0.4-1.1-0.4H144c-0.5,0-1,0.3-1.4,0.6c-0.2,0-0.4,0.1-0.6,0.1c-0.3-0.5-0.8-1-1.6-1
	c0,0-0.1,0-0.1,0c0,0-0.1,0-0.1,0c-0.3,0-0.6,0.1-0.9,0.2c-0.3-0.6-0.8-1-1.6-1c-0.2,0-0.4,0-0.6,0.1c-0.1-0.2-0.3-0.3-0.5-0.4
	c-0.1-0.7-0.5-1.3-1.2-1.5c-0.1-0.2-0.3-0.3-0.4-0.4c-0.1-0.3-0.3-0.6-0.5-0.8c0.1-0.6,0-1.2-0.4-1.6c0-0.4,0-0.8-0.2-1.1
	c0-0.1,0-0.2,0-0.3c0.1-0.3,0.1-0.5,0-0.8c0.6-0.5,0.8-1.4,0.6-2.1c0,0,0,0,0,0c0.5-0.3,0.8-0.8,0.9-1.3c0.5-0.1,0.8-0.4,1-0.8
	c1-0.1,1.5-1,1.5-1.9c0.1,0,0.2,0,0.3,0c0.9,0,1.5-0.6,1.7-1.3c0.3,0.3,0.7,0.4,1.2,0.4c0.2,0,0.3,0,0.5-0.1c0.3,0.2,0.6,0.3,1,0.3
	c0.1,0,0.2,0,0.3,0c0.3,0.4,0.8,0.7,1.4,0.7c0.3,0,0.6-0.1,0.8-0.2c0.1,0.3,0.3,0.6,0.5,0.8c0.3,0.4,0.7,0.6,1.3,0.6
	c0.1,0.2,0.3,0.4,0.5,0.5c-0.3,0.7-0.2,1.5,0.4,2.1l0.2,0.2c0.1,0.5,0.3,0.9,0.6,1.2c-0.1,0.4-0.2,0.7,0,1.1
	c0.1,0.2,0.1,0.4,0.2,0.6c0,0,0,0.1,0.1,0.1c-0.2,0.8,0.1,1.6,0.9,2C149.5,150,149.4,150.2,149.3,150.5z M151.9,145.7
	c-0.1-0.2-0.3-0.5-0.5-0.6c0.1-0.4,0.1-0.8,0-1.1c0.1,0,0.2-0.1,0.3-0.1c0,0.3,0.1,0.7,0.3,1c0.1,0.2,0.2,0.4,0.3,0.5
	C152.1,145.4,151.9,145.5,151.9,145.7z"/>
<linearGradient id="SVGID_25_" gradientUnits="userSpaceOnUse" x1="130.8164" y1="178.5883" x2="153.298" y2="178.5883">
	<stop  offset="0" style="stop-color:#E5F7FF"/>
	<stop  offset="0.2704" style="stop-color:#EEF7FF"/>
	<stop  offset="0.4286" style="stop-color:#E4F7FF"/>
	<stop  offset="1" style="stop-color:#EEF7FF"/>
</linearGradient>
<path class="st38" d="M152,178.8c1.9-0.5,1.7-3.7-0.5-3.7c-0.1,0-0.2,0-0.4,0c-0.2-0.3-0.4-0.5-0.7-0.7c0.3-0.9,0-1.9-0.9-2.3
	c-0.3-0.6-0.8-1-1.6-1c-0.1,0-0.2,0-0.3,0c-0.1-0.9-0.7-1.7-1.8-1.7c-0.1,0-0.2,0-0.3,0c-0.3-0.4-0.8-0.6-1.4-0.6
	c-0.2,0-0.4,0-0.5,0.1c0.1-1-0.4-2.1-1.8-2.1c-1,0-1.6,0.7-1.8,1.5c0,0-0.1,0-0.1,0c-1.2,0-1.8,0.9-1.8,1.8
	c-0.1-0.1-0.3-0.2-0.4-0.2c0,0-0.1,0-0.1,0c-0.2,0-0.4-0.1-0.6-0.1c-0.8,0-1.4,0.5-1.6,1.1c-0.1,0-0.2,0-0.2,0c-0.4,0-0.7,0.1-1,0.3
	c-0.3-0.1-0.5-0.3-0.9-0.3c-1.6,0-2.1,1.6-1.6,2.7c-0.2,0.5-0.2,1.2,0,1.7c-0.1,0.1-0.2,0.3-0.3,0.4c-0.6,0.6-0.7,1.6-0.3,2.4
	c-0.7,0.8-0.6,2.1,0.2,2.7c0,0.9,0.6,1.9,1.8,1.9c0,0,0.1,0,0.1,0c-0.7,0.8-0.5,2.3,0.4,2.9c0.1,0.9,0.7,1.7,1.8,1.7
	c0.2,0,0.3,0,0.4,0c0.2,0.6,0.8,1.1,1.6,1.1c0.1,0,0.2,0,0.2,0c0,0,0,0.1,0,0.1c-0.1,1,0.5,2,1.8,2c0.8,0,1.3-0.4,1.6-1
	c0.3,0.3,0.7,0.5,1.3,0.5c1.1,0,1.7-0.8,1.8-1.7c0.1,0,0.2,0.1,0.3,0.1c0.6,0,1-0.2,1.3-0.5c0.6-0.2,1-0.8,1.1-1.4
	c0.1,0,0.2,0,0.3,0c0.6,0,1.1-0.3,1.4-0.7c0.1,0,0.2,0,0.3,0c1.4,0,2-1.2,1.8-2.3c0.3-0.3,0.4-0.7,0.4-1.1c0,0,0.1,0,0.1,0
	C153.4,182.4,153.7,179.5,152,178.8z M148.5,180.6c-0.7,0.4-0.9,1.2-0.8,2c0,0,0,0.1,0,0.1c-0.1,0-0.2,0-0.3,0c-1,0-1.6,0.7-1.8,1.5
	c-0.1,0-0.2,0-0.3,0c-0.6,0-1,0.2-1.3,0.5c-0.7,0.3-1,0.9-1.1,1.6c-0.1,0-0.2,0-0.3,0c-0.6,0-1.1,0.3-1.4,0.7
	c-0.2-0.7-0.8-1.3-1.7-1.3c-0.1,0-0.1,0-0.2,0c-0.2-0.6-0.8-1.1-1.6-1.1c-0.2,0-0.3,0-0.4,0c-0.1-0.3-0.4-0.6-0.7-0.8
	c0-0.2-0.1-0.5-0.2-0.7c1.1-1,0.7-3.3-1.2-3.3c-0.1,0-0.2,0-0.4,0c-0.1-0.2-0.2-0.3-0.3-0.5c0-0.4-0.1-0.7-0.2-1
	c0.1-0.2,0.2-0.3,0.3-0.5c0.6-0.6,0.7-1.5,0.4-2.2c0.2-0.3,0.3-0.6,0.4-1c0,0,0.1,0,0.1,0c0.5,0,0.9-0.2,1.2-0.5
	c0.1,0,0.3,0.1,0.4,0.1c1.1,0,1.7-0.7,1.8-1.5c0-0.1,0.1-0.1,0.1-0.2c0,0,0,0,0,0c0.1-0.2,0.1-0.4,0.1-0.7v0
	c0.3,0.2,0.7,0.4,1.1,0.4c0,0,0,0,0.1,0c0.3,0.3,0.7,0.4,1.2,0.4c0.2,0,0.4,0,0.5-0.1c0.2,0,0.3,0.1,0.5,0.1c0.3,0,0.5-0.1,0.7-0.2
	c0.3,0.2,0.7,0.4,1.1,0.4c0.1,0,0.2,0,0.3,0c0.3,0.4,0.8,0.6,1.4,0.6c0.1,0,0.2,0,0.3,0c0.1,0.6,0.4,1.3,1,1.5
	c0.2,0.3,0.4,0.6,0.7,0.8c-0.2,0.7-0.1,1.6,0.5,2.1c-0.3,0.7-0.2,1.5,0.2,2.1C148.5,180,148.5,180.3,148.5,180.6z"/>
<linearGradient id="SVGID_26_" gradientUnits="userSpaceOnUse" x1="128.3298" y1="213.3501" x2="152.8781" y2="213.3501">
	<stop  offset="0" style="stop-color:#E5F7FF"/>
	<stop  offset="0.2704" style="stop-color:#EEF7FF"/>
	<stop  offset="0.4286" style="stop-color:#E4F7FF"/>
	<stop  offset="1" style="stop-color:#EEF7FF"/>
</linearGradient>
<path class="st39" d="M152.3,210.2c-0.1-0.7-0.5-1.4-1.4-1.6c0.3-0.8,0.1-1.8-0.7-2.3c0.1-1-0.5-2.1-1.8-2.1c-0.4,0-0.7,0.1-0.9,0.2
	c-0.1-0.9-0.7-1.7-1.8-1.7c-0.1,0-0.2,0-0.4,0c0,0-0.1-0.1-0.1-0.1c0.1-1-0.5-2-1.8-2c-0.7,0-1.2,0.3-1.5,0.8c-0.3-0.6-0.8-1-1.6-1
	c-0.8,0-1.4,0.5-1.6,1.1c-0.1,0-0.1,0-0.2,0c0,0-0.1,0-0.1,0c-0.1-0.8-0.7-1.5-1.8-1.5c-0.6,0-1.1,0.3-1.4,0.7c-0.1,0-0.2,0-0.3,0
	c-1.2,0-1.8,1-1.8,2c-0.3,0.6-0.3,1.4,0.1,2c-0.1,0.2-0.2,0.4-0.2,0.6c-0.7,0.6-0.8,1.6-0.5,2.4c-0.2,0-0.3-0.1-0.5-0.1
	c-1.1,0-1.7,0.8-1.8,1.6c-0.6,0.2-0.9,0.8-1,1.3c-1.4,0.8-1.1,3.3,0.8,3.5c0.2,0.2,0.4,0.4,0.8,0.5c-0.8,0.9-0.7,2.6,0.5,3.1
	c-0.1,0.8,0.3,1.5,1,1.9c0.3,0.6,0.8,1,1.6,1c0.1,0,0.2,0,0.3,0c0,0.9,0.5,1.8,1.5,1.9c0.2,0.7,0.8,1.3,1.7,1.3
	c0.3,0,0.5-0.1,0.8-0.1c0.3,0.2,0.7,0.4,1.1,0.4c0.1,0,0.2,0,0.3,0c-0.5,1.1,0,2.7,1.6,2.7c0.1,0,0.1,0,0.1,0
	c0.2,0.1,0.5,0.2,0.9,0.2c1.5,0,2.1-1.5,1.7-2.6c0.2,0.1,0.4,0.1,0.6,0.1c0.4,0,0.8-0.1,1.1-0.3c0.8-0.3,1.2-1.1,1.2-1.8
	c0.2,0,0.3,0.1,0.5,0.1c1.6,0,2.1-1.6,1.6-2.7c0.1-0.1,0.2-0.3,0.2-0.4c1.1-0.2,1.5-1.3,1.4-2.2c1.4-0.1,2-1.5,1.6-2.6
	c0.1-0.3,0.1-0.5,0.1-0.8C153.1,212.6,153.2,211,152.3,210.2z M148.6,214.1c-0.1,0.4-0.2,0.8-0.1,1.2c-0.8,0-1.3,0.5-1.5,1.1
	c-1.3,0.2-1.7,1.7-1.2,2.7c-0.3,0.4-0.4,0.8-0.4,1.3c-0.2,0-0.3-0.1-0.5-0.1c-0.4,0-0.8,0.1-1.1,0.3c-0.4,0.2-0.8,0.5-0.9,0.9
	c-0.3-0.3-0.7-0.6-1.3-0.6c-0.1,0-0.1,0-0.2,0c-0.1,0-0.1,0-0.2,0c-0.1,0-0.2,0-0.3,0c-0.3-0.5-0.8-0.9-1.5-0.9
	c-0.3,0-0.5,0.1-0.8,0.1c-0.2-0.2-0.5-0.3-0.8-0.3c-0.2-0.7-0.8-1.3-1.7-1.3c-0.1,0-0.2,0-0.3,0c0-0.7-0.3-1.4-1-1.7
	c-0.2-0.4-0.5-0.6-0.9-0.8c0.1-0.8-0.3-1.6-1.1-1.9c0.7-0.7,0.7-2,0-2.7c0-0.1,0.1-0.2,0.1-0.2c1-0.4,1.3-1.7,0.9-2.6
	c0.1,0,0.3,0.1,0.5,0.1c1,0,1.6-0.7,1.7-1.4c0.6-0.5,0.8-1.5,0.5-2.2c0.3,0.2,0.6,0.3,1,0.3c0.2,0,0.4,0,0.5-0.1
	c0.2,0,0.3,0.1,0.5,0.1c0.8,0,1.4-0.5,1.6-1.1c0.1,0,0.1,0,0.2,0c0.7,0,1.2-0.3,1.5-0.8c0.2,0.4,0.5,0.7,0.9,0.8c-0.1,1,0.5,2,1.8,2
	c0.1,0,0.2,0,0.3-0.1c0.3,0.2,0.6,0.3,1,0.3c0.4,0,0.7-0.1,0.9-0.2c0,0.6,0.3,1.1,0.8,1.4c-0.1,0.5,0.1,1,0.3,1.4
	c-0.7,1-0.3,2.7,1.1,3C148.4,212.6,148.3,213.4,148.6,214.1z"/>
<linearGradient id="SVGID_27_" gradientUnits="userSpaceOnUse" x1="36.1752" y1="143.5152" x2="39.7837" y2="143.5152">
	<stop  offset="0" style="stop-color:#E5F7FF"/>
	<stop  offset="0.2704" style="stop-color:#EEF7FF"/>
	<stop  offset="0.4286" style="stop-color:#E4F7FF"/>
	<stop  offset="1" style="stop-color:#EEF7FF"/>
</linearGradient>
<path class="st40" d="M38,141.6c-2.4,0-2.4,3.7,0,3.7C40.4,145.4,40.4,141.6,38,141.6z"/>
<linearGradient id="SVGID_28_" gradientUnits="userSpaceOnUse" x1="30.1935" y1="144.8967" x2="35.1646" y2="144.8967">
	<stop  offset="0" style="stop-color:#E5F7FF"/>
	<stop  offset="0.2704" style="stop-color:#EEF7FF"/>
	<stop  offset="0.4286" style="stop-color:#E4F7FF"/>
	<stop  offset="1" style="stop-color:#EEF7FF"/>
</linearGradient>
<path class="st41" d="M35.1,144.6c0-1-0.5-2-1.8-2c-0.8,0-1.3,0.4-1.6,0.9c-0.1,0-0.1,0-0.2,0c-1,0.2-1.6,1.3-1.3,2.3
	c0.3,1,1.3,1.6,2.3,1.3l1.2-0.3C34.8,146.6,35.4,145.5,35.1,144.6z"/>
<linearGradient id="SVGID_29_" gradientUnits="userSpaceOnUse" x1="21.5454" y1="147.0951" x2="30.1285" y2="147.0951">
	<stop  offset="0" style="stop-color:#E5F7FF"/>
	<stop  offset="0.2704" style="stop-color:#EEF7FF"/>
	<stop  offset="0.4286" style="stop-color:#E4F7FF"/>
	<stop  offset="1" style="stop-color:#EEF7FF"/>
</linearGradient>
<path class="st42" d="M28.3,143.5c-0.8,0-1.4,0.5-1.6,1.1c-0.3-0.5-0.9-0.8-1.5-0.8c-0.7,0-1.3,0.4-1.6,1c-1.2,0.2-1.6,1.5-1.3,2.5
	c-1.2,0.9-0.9,3.4,1.1,3.4c1.3,0,1.9-1.2,1.8-2.2c0,0,0.1,0,0.1,0c0.2,0,0.5-0.1,0.7-0.1c0.6,0.5,1.4,0.6,2.1,0.2
	c0.2-0.1,0.4-0.2,0.6-0.3c0.5-0.3,0.9-0.9,0.9-1.5C30.6,145.8,30.2,143.5,28.3,143.5z"/>
<linearGradient id="SVGID_30_" gradientUnits="userSpaceOnUse" x1="8.782" y1="161.4149" x2="21.7247" y2="161.4149">
	<stop  offset="0" style="stop-color:#E5F7FF"/>
	<stop  offset="0.2704" style="stop-color:#EEF7FF"/>
	<stop  offset="0.4286" style="stop-color:#E4F7FF"/>
	<stop  offset="1" style="stop-color:#EEF7FF"/>
</linearGradient>
<path class="st43" d="M19.9,150.7c-1.1,0-1.7,0.8-1.8,1.7c-0.3,0.2-0.4,0.5-0.5,0.9c-1,0.1-1.5,0.8-1.6,1.6
	c-1.1,0.3-1.5,1.5-1.2,2.4c-0.3,0.3-0.5,0.7-0.5,1.2v0.6c0,0.5,0.2,1,0.6,1.3c-0.2-0.1-0.4-0.1-0.6-0.1c-1,0-1.9,0.8-1.9,1.9v0.3
	c0,0.2,0.1,0.5,0.1,0.7c-1.1,0.3-1.5,1.4-1.3,2.3c-0.6,0.3-1.1,0.9-1.1,1.7v0.3c0,0.3,0.1,0.7,0.3,0.9c-2.4,0-2.4,3.7,0,3.7
	c1.6,0,2.1-1.7,1.6-2.8c1-0.1,1.8-0.8,1.8-1.9v-0.3c0-0.2,0-0.3-0.1-0.5c0.9-0.4,1.1-1.5,0.8-2.4c0.8-0.2,1.4-0.9,1.4-1.8v-0.3
	c0-0.5-0.2-1-0.6-1.3c0.2,0.1,0.4,0.1,0.6,0.1c1,0,1.9-0.8,1.9-1.9v-0.6c0-0.2-0.1-0.5-0.1-0.7c0.2-0.3,0.3-0.6,0.4-1
	c0.6-0.2,1-0.6,1.2-1.2c1-0.1,1.6-0.8,1.6-1.6C22.2,153,21.8,150.7,19.9,150.7z"/>
<linearGradient id="SVGID_31_" gradientUnits="userSpaceOnUse" x1="7.2269" y1="178.2243" x2="11.2077" y2="178.2243">
	<stop  offset="0" style="stop-color:#E5F7FF"/>
	<stop  offset="0.2704" style="stop-color:#EEF7FF"/>
	<stop  offset="0.4286" style="stop-color:#E4F7FF"/>
	<stop  offset="1" style="stop-color:#EEF7FF"/>
</linearGradient>
<path class="st44" d="M11.2,175v-0.3c0-1-0.9-1.9-1.9-1.9c-1,0-1.9,0.8-1.9,1.9v0.3c0,0.6,0.3,1.2,0.8,1.6c-1,0.7-1,2.2-0.1,3
	c-0.7,0.4-1,1.2-0.9,2c-0.1,1,0.4,2.2,1.8,2.2c1.3,0,1.9-1.2,1.8-2.2c0.1-0.6-0.1-1.3-0.6-1.8c1.2-0.6,1.2-2.5,0.1-3.2
	C10.9,176.2,11.2,175.6,11.2,175z"/>
<linearGradient id="SVGID_32_" gradientUnits="userSpaceOnUse" x1="10.6487" y1="190.2101" x2="14.2572" y2="190.2101">
	<stop  offset="0" style="stop-color:#E5F7FF"/>
	<stop  offset="0.2704" style="stop-color:#EEF7FF"/>
	<stop  offset="0.4286" style="stop-color:#E4F7FF"/>
	<stop  offset="1" style="stop-color:#EEF7FF"/>
</linearGradient>
<path class="st45" d="M12.5,188.3c-2.4,0-2.4,3.7,0,3.7C14.9,192.1,14.9,188.3,12.5,188.3z"/>
<linearGradient id="SVGID_33_" gradientUnits="userSpaceOnUse" x1="99.6833" y1="179.6259" x2="182.3253" y2="179.6259">
	<stop  offset="0" style="stop-color:#E5F7FF"/>
	<stop  offset="0.2704" style="stop-color:#EEF7FF"/>
	<stop  offset="0.4286" style="stop-color:#E4F7FF"/>
	<stop  offset="1" style="stop-color:#EEF7FF"/>
</linearGradient>
<path class="st46" d="M182.3,119.6c-0.4-2.3-1.1-4.4-0.9-6.9c0.1-1.8,0.9-4.2,0.4-6c-0.3-1-2.1-2.2-2.3-2.9
	c-0.1-0.5,1.7-3.4,1.9-4.4c0.2-1.5-0.5-2.7-1.6-3.3c-0.1-0.7-0.2-1.5-0.6-2.2c-0.4-0.9-1-1.7-1.7-2.4c-0.3-0.3-0.7-0.5-1.1-0.7
	c0-0.3-0.1-0.5-0.2-0.7c-0.4-0.9-1.3-1.7-2.2-2c-0.8-0.2-1.5-0.1-2.2,0.1c0,0,0,0-0.1,0c0-0.1,0-0.3,0-0.4c1.3-1.7,1.5-3.2,1-5.4
	c-0.4-1.9-0.5-3.9-1-5.8c0.4-1.1,1-1.9,0.7-3.3c-0.2-0.9-0.6-1.5-1.1-2c0.5-1.1,1.4-3.4,0.9-4.7c-0.4-1.1-1-1.8-2.2-2.2c0,0,0,0,0,0
	c-1.1-1.8-3.1-2.5-5.5-2.7c-0.2,0-0.3,0-0.5,0c-0.4-0.6-1-1.1-1.9-1.2c0-0.1-0.1-0.1-0.1-0.2c-0.5-0.8-1.4-1.4-2.4-1.5
	c-0.6-0.4-1.4-0.5-2.1-0.4c-0.4-0.2-0.8-0.3-1.3-0.3c-0.6,0-1.2,0.2-1.6,0.5c-0.5-0.5-1.3-0.9-2.1-0.9h-0.2c-0.3,0-0.6,0.1-0.9,0.2
	c-0.2-0.1-0.4-0.1-0.6-0.1c-0.5-0.7-1.3-1.3-2.4-1.3c-0.1,0-0.3,0-0.4,0c-0.4-0.2-0.8-0.2-1.3-0.2c-0.3,0-0.6,0.1-0.9,0.1
	c-0.5-0.6-1.2-1-2.2-1c-0.1,0-0.3,0-0.4,0c-0.4-0.2-0.8-0.2-1.3-0.2c0,0-0.1,0-0.1,0c-0.4-0.3-0.9-0.4-1.6-0.4c-1,0-1.7,0.4-2.2,0.9
	c-0.5-0.4-1.1-0.7-2-0.7c-1.3,0-2.2,0.7-2.6,1.6c-0.3-0.1-0.6-0.1-0.9-0.1c-0.3,0-0.6,0.1-0.9,0.1c-0.4-0.2-0.9-0.3-1.4-0.3
	c-1.3,0-2.1,0.6-2.6,1.5c-0.6,0.2-1,0.6-1.3,1c0,0,0,0,0,0c-1.2,0-2,0.5-2.5,1.3c-0.3,0-0.5,0-0.8,0.1c-1.3,0.3-2.6,0.6-3.9,1
	c-0.4,0.1-0.8,0.3-1.1,0.6c-0.8-0.2-1.7-0.1-2.4,0.3c-0.8,0.5-1.3,1.1-1.6,1.9c-0.1,0-0.3,0-0.5,0c-2.9-0.2-3.7,3-2.3,4.9
	c0.2,0.6,0.6,1.1,1.3,1.2c0.1,0.8,0.2,1.6,0.4,2.3c0.1,0.7,0.4,1.4,0.6,2.1c-0.1,0-0.2,0-0.3,0c-2.4,0-2.4,3.7,0,3.7
	c-0.3,0.7-0.3,1.6,0.2,2.2c-0.4,0.2-0.6,0.6-0.8,1c-0.1,0.3-0.2,0.6-0.3,0.9c-0.2,0.6,0,1.3,0.5,1.8c-0.7,0.5-0.9,1.5-0.6,2.2
	c-0.4,0.5-0.9,1-1.3,1.5c-1.2,1.4-3,2.4-4.2,3.7c-1.3,0.2-1.8,1.7-1.3,2.7c0,0.3,0,0.5,0,0.8c-0.3-0.2-0.7-0.4-1.1-0.4
	c-1.6,0-2.1,1.7-1.6,2.8c-2.4,0-2.4,3.7,0,3.7c0,0,0.1,0,0.1,0c0,0.1,0,0.2,0.1,0.3c-0.5,0.6-0.5,1.6-0.1,2.3
	c-0.7,1.1-0.2,2.9,1.4,2.9c0,0.3,0,0.6,0,0.9c-1.1,0.7-1.1,2.6,0.1,3.2c0.1,0.8,0.1,1.6,0.2,2.4c-2.3,0-2.3,3.4-0.2,3.7
	c-4,4,0.2,9.2,4.6,11.4c0.4,0.2,0.8,0.2,1.1,0.2c-1.8,0.5-1.7,3.3,0.1,3.6c-1.2,0.7-1.1,2.8,0.3,3.3c-0.2,0.1-0.4,0.2-0.6,0.4
	c-0.7,0.7-0.7,1.9,0,2.6c-1.3,0.9-0.9,3.4,1.1,3.4c0.1,0,0.2,0,0.3,0c0,0.1,0,0.3,0,0.4c0,0.3,0,0.7,0,1c-0.5,0.5-0.6,1.3-0.4,2
	c-0.5,0.4-0.8,1-0.7,1.7c-0.2,0.3-0.4,0.7-0.4,1.1v0.6c0,0.6,0.4,1.2,0.9,1.6c-1.6,0.1-2.1,1.7-1.5,2.8c-0.5,0.3-0.9,0.9-0.9,1.6
	v0.9c0,1,0.9,1.9,1.9,1.9c0,0,0,0,0,0c-1,3.1-2.9,5.6-6.4,6.2c-0.9,0.2-1.7,1.4-1.3,2.3c0.1,0.4,0.2,0.7,0.4,1.1
	c-0.8,0.9-0.6,2.6,0.7,3c0,0.1,0,0.1,0,0.2c-0.2-0.1-0.4-0.1-0.6-0.1c-0.8,0-1.4,0.5-1.6,1.1c-1.7,0.7-1.4,3.6,0.7,3.6
	c0.8,0,1.4-0.4,1.6-1c-0.1,3.3-0.9,6.6-1.3,9.9c-0.7,0.6-0.7,1.7-0.3,2.5c-0.1,1.7-0.1,3.5,0.1,5.2c0.8,5.6,5.9,7.6,10.5,10
	c0,0.9,0,1.9,0.1,2.9c-0.2,0.5-0.2,1.1,0.1,1.6c0,0.2,0,0.5,0,0.7c-1.7,0.5-1.6,3.3,0.2,3.6c0,0,0,0.1,0,0.1
	c-0.2-0.1-0.4-0.1-0.6-0.1c-2.4,0-2.4,3.7,0,3.7c0.3,0,0.5-0.1,0.8-0.1c0,0.4,0,0.8,0,1.2c-1.1,0.5-1.3,2.1-0.6,3
	c-2.3,0.1-2.3,3.7,0.1,3.7c0.2,0,0.3,0,0.5-0.1c-0.1,1.1-0.2,2.1-0.3,3.2c-2,0.1-2.2,2.8-0.7,3.6c0,0.1-0.1,0.3-0.1,0.4
	c-0.8,3.1-2.8,5-4.6,7.2c-0.2-0.6-0.8-1.1-1.7-1.1c-1.8,0-2.3,2.2-1.3,3.2c-0.3,0.7-0.2,1.7,0.4,2.3c-0.1,0.4-0.2,0.8-0.3,1.2
	c-0.6,0.5-0.8,1.4-0.5,2.1c-0.1,0-0.1,0-0.2,0c-2.4,0-2.4,3.7,0,3.7c0,0,0.1,0,0.1,0c0,0.2-0.1,0.5-0.1,0.8
	c-0.2-0.1-0.4-0.1-0.7-0.1c-2.4,0-2.4,3.7,0,3.7c0.1,0,0.2,0,0.3,0c0,0.1,0,0.2,0,0.4c-0.1,0-0.2,0-0.3,0c-2,0-2.3,2.5-1.1,3.4
	c-0.9,1.1-0.4,3.1,1.4,3.1c0,0,0,0,0,0c0.1,0.4,0.1,0.8,0.2,1.2c-1.2,0.8-1,3.1,0.7,3.4c-0.6,1-0.1,2.6,1.2,2.8
	c-1.4,0.8-1.1,3.5,1,3.5c0.6,0,1-0.2,1.3-0.6c0.1,0.5,0.4,1,0.9,1.3c-0.1,0.7,0.2,1.4,0.8,1.8c-0.5,1.1,0,2.8,1.6,2.8
	c0.6,0,1-0.2,1.3-0.6c0,0.2,0.1,0.4,0.1,0.6c-0.1,0-0.1,0-0.2,0c-1.8,0-2.3,2.2-1.3,3.2c-0.5,1.1,0,2.7,1.6,2.7c0,0,0.1,0,0.1,0
	c-0.1,0.4-0.1,0.9-0.2,1.3c-0.7,0.5-0.9,1.5-0.6,2.3c-0.1,0.2-0.1,0.4-0.2,0.6c-0.3,0.8,0,1.4,0.5,1.8c-0.5,0.6-0.6,1.5-0.2,2.2
	c-2.1,0.3-2,3.7,0.3,3.7c0.1,0,0.3,0,0.4-0.1c0.1,0.8,0.7,1.6,1.8,1.6c0.3,0,0.5-0.1,0.7-0.1c-0.1,1,0.5,2,1.8,2
	c0.3,0.5,0.8,0.9,1.6,0.9c2.4,0,2.4-3.7,0-3.7c-0.3-0.5-0.8-0.9-1.6-0.9c-0.3,0-0.5,0.1-0.7,0.1c0.1-1-0.5-2-1.8-2
	c-0.1,0-0.3,0-0.4,0c0-0.2-0.1-0.5-0.2-0.7c1.1-0.2,1.6-1.3,1.4-2.2c0.7-0.6,0.8-1.8,0.3-2.6c1.6-5.3,1.3-10.9-1.3-16
	c-1.4-2.6-3.3-3.8-5.1-6c-3.3-4.2-1.8-10.9-1.6-15.9c0.1-2.5,0.2-3.9,0.9-5.5c0.3,0.2,0.6,0.3,1,0.3c1,0,1.9-0.8,1.9-1.9v-0.3
	c0-0.3-0.1-0.7-0.3-1c0.1,0,0.2,0,0.3,0c1.6,0,2.1-1.7,1.6-2.8c0.1-0.2,0.2-0.3,0.4-0.5c0.2,0.1,0.5,0.2,0.9,0.2
	c2.2,0,2.4-3,0.6-3.6c0.3-1,0.5-1.9,0.7-2.9c0.6,0,1.1-0.3,1.3-0.7c0.5-0.4,0.7-1,0.7-1.6c1.1-0.3,1.5-1.6,1.1-2.5
	c1.6-0.7,1.4-3.6-0.7-3.6c-0.9,0-1.5,0.5-1.7,1.2c0-1.1,0.1-2.1,0.1-3.2c0.7,0.3,1.5,0.1,2-0.4c0.6-0.6,0.7-1.6,0.2-2.4
	c1.1-1,0.7-3.3-1.2-3.3c-0.4,0-0.8,0.1-1.1,0.3c-0.1-3.9-0.3-7.8-0.4-11.5c0-0.2-0.1-0.5-0.1-0.6c0.2-0.7,0-1.5-0.8-2
	c-3.4-1.8-6.5-2.8-8.4-6.3c-2.1-4.1-0.9-8-0.3-12.4c0.7-4.6,1.1-8.9-0.2-13.2c7.1-2.6,7.8-11.2,8.2-18c0.5-10.8,0.2-21.5-4.1-31.6
	c0,0,0,0,0,0c0,0,0,0,0,0c-0.1-0.1-0.1-0.3-0.2-0.4c-0.3-0.8-1.1-1-1.7-0.9c-0.5-3.8-0.9-7.6-0.4-11.2c0.3-2.6,0.7-5.4,1.1-7.9
	c0.4-2.3,1.6-2.9,3.2-4.7c2.1-2.3,6.7-7,7-10.2c0.2-1.9-1-3.7-1.6-5.5c-0.3-1-0.6-2-0.9-3c0.5-0.8,0.3-2.1-0.5-2.6
	c0-0.2-0.1-0.5-0.1-0.7c0.7-0.2,1.4-0.5,2-1c0.2-0.2,0.4-0.4,0.6-0.6c0.5-0.1,0.9-0.2,1.5-0.6c0.3-0.2,0.5-0.4,0.8-0.7
	c0,0.1,0.2,0,0.7-0.2c1-0.1,2-0.5,2.9-0.7c0.8-0.2,1.4-0.6,1.7-1.1c1.1,0,1.9-0.5,2.4-1.2c0,0,0,0,0.1,0c1.2,0,2-0.5,2.5-1.3
	c0.4,0.2,0.8,0.3,1.3,0.3c1.3,0,2.2-0.7,2.6-1.6c0.3,0.1,0.6,0.1,0.9,0.1c1,0,1.7-0.4,2.2-0.9c0.5,0.4,1.1,0.7,2,0.7
	c0,0,0.1,0,0.1,0c0.4,0.3,0.9,0.4,1.6,0.4c0.1,0,0.3,0,0.4,0c0.4,0.2,0.8,0.2,1.3,0.2c0.3,0,0.6-0.1,0.9-0.1c0.5,0.6,1.2,1,2.2,1
	c0.1,0,0.3,0,0.4,0c0.3,0.1,0.5,0.2,0.9,0.2c0.4,0.6,1,1,1.8,1.2c0.1,0,0.2,0.1,0.3,0.1c0.3,0.1,0.7,0.3,1,0.4
	c0.7,0.3,1.8,0,2.4-0.3c0.2-0.1,0.5-0.3,0.7-0.6c0.3,0.3,0.6,0.5,1,0.6c0.5,0.8,1.3,1.5,2.6,1.5c0.4,0,0.8-0.1,1.1-0.2
	c0.2,0.1,0.3,0.1,0.5,0.1c0.5,0.7,1.3,1.1,2.4,1.1c0.2,0,0.4,0,0.6-0.1c0.5,0.7,1.3,1.2,2.3,1.3c0.2-0.4,0.3-0.3,0.3,0.4
	c0.1,0.5,0.4,1.1,0.9,1.5c-0.4,1-0.9,2.1-0.9,2.7c0.1,1,0.5,1.7,1,2.3c-0.1,0.4-0.3,0.9-0.3,1.1c-0.1,0.9,0.3,1.6,0.3,2.4
	c0,0.9-0.3,1.6-0.2,2.5c0,0.2,1,3.5,1.4,3.1c-0.6,0.6-0.8,1.3-0.8,2c-0.4,0.4-0.6,1-0.8,1.5c-0.1,0.1-0.3,0.2-0.4,0.3
	c-0.4,0.5-0.8,1.2-1,1.9c-0.4,1.6,0.4,3.1,1.7,4c1.1,0.8,2.8,1.2,4.1,1.2c0.4,0,0.9,0,1.3-0.1c0.3,0.4,0.7,0.7,1.1,1
	c0.4,0.2,1.8,0.5,1.4,1.3c-0.7,1.4-0.2,2.7,0.6,3.6c-0.3,0.6-0.7,1.3-0.9,2c-1.8,1.5-1.3,5.1,1.4,5.5c1,2,0.3,3.9,0.2,6.3
	c0,1.5,0.3,2.8,0.6,4.1c-0.2,0.1-0.3,0.1-0.4,0.2c-1.5,0.1-3.1,0.2-4.4,0.8c-1.9,0.8-2,1.9-2.4,3.6c-0.3,1.3-1,2.5-1.4,3.8
	c-0.4,1.2-0.4,3.6-1.2,4.6c-0.8,0.9-0.9,2-0.6,3c-0.6,0.5-0.9,1.3-0.9,2.2v0.4c0,0.8,0.4,1.7,1,2.2c0.1,0.6,0.3,1.1,0.7,1.6
	c-2.5,0.6-2.9,4-1.2,5.5c-0.4,0.9-0.4,1.9,0.1,2.9c0.1,0.1,0.1,0.3,0.2,0.4c0.1,0.2,0.3,0.5,0.5,0.6c-0.7,0.9-0.9,2.1-0.4,3.3
	c-0.2,0.4-0.3,0.9-0.3,1.4v0.6c0,0.9,0.4,1.7,1.1,2.3c0,0.2-0.1,0.4-0.1,0.6v0.2c0,1,0.5,1.9,1.3,2.5c-0.1,0.7-0.1,1.4,0.4,2
	c0.4,0.5,0.7,0.9,1.2,1.3c0.5,0.4,0.9,0.6,1.5,0.8c0,0,0.1,0,0.1,0c0.5,0.4,1.2,0.6,1.8,0.7c0.2,0.5,0.5,0.9,0.9,1.2
	c0.1,0.6,0.3,1.2,0.7,1.7c-0.3,1.1,0,2.3,0.8,3.1c-0.1,0.3-0.1,0.7,0,1c-1.1,0.8-1.5,2.4-1.1,3.7c-0.3,1-0.2,2.2,0.4,3
	c-0.2,0.7-0.2,1.5,0.1,2.2c-0.3,0.6-0.4,1.4-0.2,2.1c0.1,0.2,0.1,0.4,0.2,0.6c0.1,0.4,0.3,0.8,0.6,1.1c0,0.1-0.1,0.2-0.1,0.2
	c-0.5,1-0.5,2.3,0.1,3.2c-0.4,0.1-0.7,0.4-1,0.7c-0.8,0.9-1.1,2.2-0.7,3.3c-0.6,0.2-1.1,0.5-1.5,1c-1.2,0.2-2,0.9-2.3,1.9
	c-1.2,0.3-1.9,1.1-2.2,2.2c-0.3,0.4-0.5,0.8-0.6,1.3c-1.5,1.2-1.5,3.9,0.1,5.1c-1.1,0.5-1.9,1.5-1.9,2.9v0.6c0,0.5,0.2,1,0.4,1.5
	c-0.1,0.3-0.2,0.7-0.2,1v0.4c0,0.5,0.2,1,0.4,1.5c-0.2,0.9,0,1.8,0.4,2.5c-1.3,4.7-1.3,9.3-0.8,14.2c0.3,3,0.4,6,2.9,8
	c1,0.9,2.4,1.2,3.7,1.6c1,0.2,2,0.4,3.1,0.5c0,1.5-0.1,3-0.1,4.5c-0.1,2.2-0.1,4.5-0.2,6.7c-0.1,2.2,0.6,6.2-0.2,8.3
	c-2.5,6.2-5.1,0.8-8.2,3.8c-2.1,2.1-0.8,5.4-0.2,7.7c0.6,2.2,1.1,3.4,0.7,5.5c-1-0.1-2,0.5-1.9,1.8c0.1,0.7,0.1,1.4,0.2,2.1
	c-0.5,0.9-0.9,1.7-1.2,2.8c-0.8,3.3-0.2,6.4,1,9.4c-0.2-0.1-0.4-0.1-0.6-0.1c-0.1,0-0.1,0-0.2,0c0,0-0.1,0-0.1,0
	c-1.1,0-1.7,0.8-1.8,1.6c-0.6,0.5-0.8,1.4-0.5,2.2c-0.2,0-0.3-0.1-0.5-0.1c-0.4,0-0.8,0.1-1.1,0.3c-0.3-0.2-0.6-0.3-1.1-0.3
	c-0.6,0-1.1,0.3-1.4,0.7c-0.3-0.2-0.6-0.3-1.1-0.3c-1.7,0-2.2,1.8-1.5,2.9c-0.2-0.1-0.4-0.1-0.7-0.1c-0.6,0-1,0.2-1.3,0.6
	c0-0.2-0.1-0.3-0.2-0.5c1-1,0.5-3.2-1.3-3.2c-1.1,0-1.7,0.8-1.8,1.6c-1.2,0.1-1.7,1.2-1.5,2.2c-0.1,0-0.1,0-0.2,0.1
	c-0.3-0.4-0.8-0.8-1.5-0.8c-1.2,0-1.8,1-1.8,1.9c-0.1,0-0.2,0-0.4,0c-0.3-0.5-0.8-0.9-1.6-0.9c-1.3,0-1.9,1-1.8,2
	c-0.2-0.6-0.8-1.1-1.6-1.1c-0.1,0-0.1,0-0.2,0c-0.2-0.7-0.8-1.3-1.7-1.3c-0.9,0-1.4,0.5-1.7,1.1c-0.2-0.8-0.7-1.4-1.8-1.4
	c-0.1,0-0.1,0-0.2,0c-0.2-0.7-0.8-1.3-1.7-1.3c-0.4,0-0.8,0.1-1.1,0.3c-0.3-0.2-0.6-0.3-1.1-0.3c-0.9,0-1.4,0.5-1.6,1.1
	c-0.1-0.2-0.3-0.4-0.5-0.5c0.5-1.1,0-2.8-1.6-2.8c-0.5,0-0.9,0.2-1.2,0.4c-0.3-0.6-0.8-1-1.6-1c-2.4,0-2.4,3.7,0,3.7
	c0.5,0,0.9-0.2,1.2-0.4c0.1,0.3,0.4,0.6,0.7,0.8c-0.5,1.1,0,2.8,1.6,2.8c0.9,0,1.4-0.5,1.6-1.1c0.3,0.4,0.8,0.8,1.5,0.8
	c0.4,0,0.8-0.1,1.1-0.3c0.3,0.2,0.6,0.3,1.1,0.3c0.1,0,0.1,0,0.2,0c0.2,0.7,0.8,1.3,1.7,1.3c0.9,0,1.4-0.5,1.7-1.1
	c0.2,0.8,0.7,1.4,1.8,1.4c0.1,0,0.1,0,0.2,0c0.2,0.7,0.8,1.3,1.7,1.3c0.9,0,1.4-0.5,1.7-1.1c0.2,0.8,0.7,1.4,1.8,1.4
	c0.5,0,0.8-0.1,1.1-0.4c0.1,0,0.3,0,0.4,0c1.2,0,1.8-1,1.8-1.9c0.1,0,0.2,0,0.4,0c0.3,0,0.5-0.1,0.7-0.1c0.3,0.4,0.8,0.8,1.5,0.8
	c1.1,0,1.7-0.8,1.8-1.7c0.2,0.1,0.4,0.1,0.7,0.1c0.6,0,1-0.2,1.3-0.6c0.1,0.8,0.7,1.5,1.8,1.5c1.7,0,2.2-1.8,1.5-2.9
	c0.2,0.1,0.4,0.1,0.7,0.1c0.6,0,1.1-0.3,1.4-0.7c0.3,0.2,0.6,0.3,1.1,0.3c0.4,0,0.8-0.1,1.1-0.3c0.3,0.2,0.6,0.3,1.1,0.3
	c1.1,0,1.6-0.7,1.8-1.5c0.3,0.3,0.7,0.6,1.3,0.6c1.9,0,2.3-2.3,1.2-3.3c0.4-0.4,0.6-1,0.6-1.6c0.4,0.1,0.7,0,1.1-0.1
	c0.1,0.8,0.7,1.6,1.8,1.6c1.4,0,2-1.2,1.8-2.3c0.7-1,0.3-2.8-1.2-3c0.1-0.7-0.1-1.4-0.6-1.8c0-1,0.1-1.9,0.1-2.9
	c1.6,0,2.1-1.7,1.6-2.8c2.4,0,2.4-3.7,0-3.7c-0.1,0-0.2,0-0.2,0c0.3-0.6,0.5-1.1,0.7-1.7c0.2,0.1,0.5,0.2,0.8,0.2c1.2,0,1.8-1,1.8-2
	c1-0.9,0.8-2.8-0.6-3.2c0.4-0.7,0.4-1.6-0.1-2.3c0.9-1.1,0.4-3.1-1.4-3.1c-1.8,0-2.2,2.1-1.4,3.1c-0.2,0.2-0.3,0.4-0.3,0.7
	c-0.4-0.7-0.6-1.4-0.6-2.3c0-3.5,1.7-1.7,3.5-1.8c1-0.1,1.7-0.3,2.4-0.8c0.2,0.7,0.8,1.4,1.7,1.4c1.3,0,1.9-1,1.8-2
	c0.6-0.9,0.3-2.5-0.9-2.9c0.2-0.6,0.3-1.2,0.4-1.8c0.1,0.9,0.7,1.7,1.8,1.7c2.4,0,2.4-3.7,0-3.7c0.4-0.7,0.3-1.6-0.2-2.2
	c0.1,0,0.1,0,0.2,0c2.4,0,2.4-3.7,0-3.7c-0.5,0-1,0.2-1.3,0.5c0-0.5,0-1,0-1.4c0,0,0,0,0,0c2.4,0,2.4-3.7,0-3.7c0,0,0,0,0,0
	c0-0.1,0-0.2,0-0.3c0.3,0.2,0.6,0.3,1,0.3c2.4,0,2.4-3.7,0.1-3.7c1-0.6,1-2.1,0.3-2.9c1.3-0.4,1.5-2.1,0.8-3
	c0.9-1.1,0.4-3.1-1.4-3.1c-1.3,0-1.9,1.1-1.8,2.1c-0.5-0.3-1-0.5-1.6-0.7c0.4-1,0-2.5-1.4-2.7c0-0.9-0.5-1.7-1.5-1.9
	c0.6-1.1,0.1-2.8-1.6-2.8c-0.2,0-0.3,0-0.5,0.1c-0.1-0.5-0.4-0.9-0.9-1.2c0.8-0.4,1.2-1.3,1-2.2c0.2-0.9-0.2-1.9-1.1-2.2
	c0.8-0.2,1.2-0.9,1.2-1.6c1.2-0.7,1.1-2.6-0.1-3.3c1.3-0.4,1.6-1.9,0.9-2.9c0.7-0.8,0.6-2.2-0.3-2.8c0-0.2-0.1-0.4-0.2-0.6
	c0.1-0.3,0.2-0.6,0.2-1v-0.4c0-0.5-0.1-1-0.4-1.4c0.6-0.3,1-0.8,1.2-1.4c0.3-0.5,0.4-1.2,0.3-1.8c0-0.1,0-0.1,0-0.2
	c1.4-0.7,1.3-3.1-0.3-3.5c0.2-0.3,0.4-0.6,0.5-1c0.3,0.3,0.7,0.5,1.3,0.5c1.6,0,2.1-1.6,1.6-2.7c0.8-0.3,1.3-1,1.6-1.7
	c0.2,0,0.3,0.1,0.5,0.1c1.7,0,2.2-1.8,1.5-2.9c1-1.2,1-3-0.1-4.2c0.6-0.2,1.1-0.6,1.5-1.3c0.1-0.1,0.1-0.3,0.2-0.4
	c0.6-1.1,0.5-2.6-0.3-3.6c0.3-0.7,0.5-1.4,0.2-2.2c-0.1-0.2-0.1-0.4-0.2-0.6c-0.1-0.2-0.1-0.4-0.2-0.5c0.3-1,0.2-2.2-0.4-3
	c0.2-0.7,0.2-1.5,0-2.2c0.2-0.5,0.2-1,0.2-1.4c1.6-1.1,1.7-3.6,0.4-4.9c0.1-0.8,0-1.5-0.3-2.2c0-0.3-0.1-0.5-0.3-0.7
	c0-0.3,0-0.6,0-0.9c1-1,0.5-3.2-1.3-3.2c0,0,0,0,0,0c-0.4-0.9-1.3-1.6-2.5-1.6c-0.1-0.3-0.4-0.7-0.6-1l-0.4-0.4
	c-0.5-0.5-1.1-0.7-1.7-0.8c-0.1-0.1-0.2-0.2-0.3-0.3c0-0.1,0-0.3,0-0.4v-0.2c0-0.9-0.4-1.7-1.1-2.3c0-0.2,0.1-0.4,0.1-0.6v-0.6
	c0-0.3-0.1-0.6-0.2-0.9c0.4-0.9,0.4-2-0.1-3c-0.1-0.1-0.1-0.3-0.2-0.4c-0.1-0.2-0.3-0.5-0.5-0.6c0.8-1,0.9-2.3,0.3-3.5
	c-0.1-0.1-0.1-0.3-0.2-0.4c-0.2-0.4-0.4-0.7-0.8-0.9c0.4-1.1,0.3-2.5-0.5-3.4c2.3-0.5,2.8-3.5,1.5-5.1c0-0.3-0.1-0.6-0.2-0.9
	c0.5-0.7,0.8-1.3,1.1-2c0,0,0.1,0,0.1,0c1.5,0,2.5-0.9,2.8-2c0.4-0.2,0.7-0.6,0.9-1c0.1-0.1,0.1-0.3,0.2-0.4
	c0.4-0.8,0.5-1.8,0.2-2.6c1.6-0.1,2.5-1.2,2.8-2.5c0.1,0,0.2,0,0.4,0c2,0,3-1.6,3-3.1C182.3,121.3,182.4,120.5,182.3,119.6z
	 M104.9,99.1c-0.2-0.1-0.4-0.1-0.6-0.1c0,0-0.1,0-0.1,0c0-0.2-0.1-0.4-0.2-0.6c0.4,0,0.8-0.1,1.1-0.3C105,98.4,105,98.8,104.9,99.1z
	 M170.3,232.2c-0.2,0.3-0.3,0.7-0.2,1.1c-0.5-0.7-1-1.5-1.3-2.4c0.1,0,0.1,0,0.1,0C169,231.5,169.5,232.1,170.3,232.2z"/>
</svg>
