<?xml version="1.0" encoding="UTF-8"?>
<svg id="Layer_1" xmlns="http://www.w3.org/2000/svg" xmlns:xlink="http://www.w3.org/1999/xlink" viewBox="0 0 256.33 300">
  <defs>
    <style>
      .cls-1 {
        fill: #caeaf2;
      }

      .cls-2 {
        mix-blend-mode: lighten;
        opacity: .2;
      }

      .cls-2, .cls-3 {
        isolation: isolate;
      }

      .cls-2, .cls-4 {
        fill: #fff;
      }

      .cls-5 {
        fill: #183049;
      }

      .cls-6 {
        fill: url(#linear-gradient-4);
      }

      .cls-7 {
        fill: url(#linear-gradient-3);
      }

      .cls-8 {
        fill: url(#linear-gradient-2);
      }

      .cls-9 {
        fill: url(#linear-gradient);
      }

      .cls-10 {
        fill: #c7a900;
      }

      .cls-11 {
        opacity: .4;
      }

      .cls-12 {
        fill: #106599;
      }

      .cls-13 {
        fill: #e6f5fd;
        stroke: #caeaf2;
        stroke-miterlimit: 10;
        stroke-width: 4px;
      }
    </style>
    <linearGradient id="linear-gradient" x1="69.16" y1="575.78" x2="69.16" y2="666.19" gradientTransform="translate(0 -542)" gradientUnits="userSpaceOnUse">
      <stop offset="0" stop-color="#fff" stop-opacity=".4"/>
      <stop offset="1" stop-color="#fff" stop-opacity="0"/>
    </linearGradient>
    <linearGradient id="linear-gradient-2" x1="187.17" y1="575.78" x2="187.17" y2="666.19" gradientTransform="translate(0 -542)" gradientUnits="userSpaceOnUse">
      <stop offset="0" stop-color="#fff" stop-opacity=".4"/>
      <stop offset="1" stop-color="#fff" stop-opacity="0"/>
    </linearGradient>
    <linearGradient id="linear-gradient-3" x1="69.16" y1="715.57" x2="69.16" y2="805.98" gradientTransform="translate(0 -542)" gradientUnits="userSpaceOnUse">
      <stop offset="0" stop-color="#fff" stop-opacity=".4"/>
      <stop offset="1" stop-color="#fff" stop-opacity="0"/>
    </linearGradient>
    <linearGradient id="linear-gradient-4" x1="187.17" y1="715.57" x2="187.17" y2="805.98" gradientTransform="translate(0 -542)" gradientUnits="userSpaceOnUse">
      <stop offset="0" stop-color="#fff" stop-opacity=".4"/>
      <stop offset="1" stop-color="#fff" stop-opacity="0"/>
    </linearGradient>
  </defs>
  <g id="Layer_1-2" data-name="Layer_1">
    <g class="cls-3">
      <g id="Layer_2">
        <g id="Layer_1-2">
          <g>
            <g class="cls-11">
              <path class="cls-5" d="M250.56,5.77v288.47H5.77V5.77h244.79M256.33,0H0v300h256.33V0h0Z"/>
            </g>
            <rect class="cls-12" x="14.42" y="14.42" width="109.48" height="131.38"/>
            <path class="cls-10" d="M123.9,14.42v131.38H14.42V14.42h109.48M132.55,5.77H5.77v148.68h126.78V5.77h0Z"/>
            <rect class="cls-9" x="23.96" y="24.02" width="90.4" height="111.16"/>
            <path class="cls-2" d="M123.9,37.76v-2.88h-20.45V14.42h-2.88v20.45h-19.01V14.42h-2.88v20.45h-19.01V14.42h-2.88v20.45h-19.01V14.42h-2.88v20.45H14.42v2.88h20.45v19.01H14.42v2.88h20.45v19.01H14.42v2.88h20.45v19.01H14.42v2.88h20.45v19.01H14.42v2.88h20.45v20.45h2.88v-20.45h19.01v20.45h2.88v-20.45h19.01v20.45h2.88v-20.45h19.01v20.45h2.88v-20.45h20.45v-2.88h-20.45v-19.01h20.45v-2.88h-20.45v-19.01h20.45v-2.88h-20.45v-19.01h20.45v-2.88h-20.45v-19.01h20.48ZM78.66,37.76v19.01h-19.01v-19.01s19.01,0,19.01,0ZM59.65,78.66v-19.01h19.01v19.01h-19.01ZM78.66,81.55v19.01h-19.01v-19.01h19.01ZM37.76,37.76h19.01v19.01h-19.01s0-19.01,0-19.01ZM37.76,59.65h19.01v19.01h-19.01s0-19.01,0-19.01ZM37.76,81.55h19.01v19.01h-19.01s0-19.01,0-19.01ZM37.76,122.46v-19.01h19.01v19.01s-19.01,0-19.01,0ZM59.65,122.46v-19.01h19.01v19.01h-19.01ZM100.56,122.46h-19.01v-19.01h19.01v19.01ZM100.56,100.56h-19.01v-19.01h19.01v19.01ZM100.56,78.66h-19.01v-19.01h19.01v19.01ZM100.56,56.77h-19.01v-19.01h19.01s0,19.01,0,19.01Z"/>
            <rect class="cls-12" x="132.43" y="14.42" width="109.48" height="131.38"/>
            <path class="cls-10" d="M241.91,14.42v131.38h-109.48V14.42h109.48M250.56,5.77h-126.78v148.68h126.78V5.77h0Z"/>
            <rect class="cls-8" x="141.97" y="24.02" width="90.4" height="111.16"/>
            <path class="cls-2" d="M241.91,37.76v-2.88h-20.45V14.42h-2.88v20.45h-19.01V14.42h-2.88v20.45h-19.01V14.42h-2.88v20.45h-19.01V14.42h-2.88v20.45h-20.45v2.88h20.45v19.01h-20.45v2.88h20.45v19.01h-20.45v2.88h20.45v19.01h-20.45v2.88h20.45v19.01h-20.45v2.88h20.45v20.45h2.88v-20.45h19.01v20.45h2.88v-20.45h19.01v20.45h2.88v-20.45h19.01v20.45h2.88v-20.45h20.45v-2.88h-20.45v-19.01h20.45v-2.88h-20.45v-19.01h20.45v-2.88h-20.45v-19.01h20.45v-2.88h-20.45v-19.01h20.45ZM196.68,37.76v19.01h-19.01v-19.01s19.01,0,19.01,0ZM177.67,78.66v-19.01h19.01v19.01h-19.01ZM196.68,81.55v19.01h-19.01v-19.01h19.01ZM155.77,37.76h19.01v19.01h-19.01s0-19.01,0-19.01ZM155.77,59.65h19.01v19.01h-19.01v-19.01ZM155.77,81.55h19.01v19.01h-19.01v-19.01ZM155.77,122.46v-19.01h19.01v19.01h-19.01ZM177.67,122.46v-19.01h19.01v19.01h-19.01ZM218.57,122.46h-19.01v-19.01h19.01v19.01ZM218.57,100.56h-19.01v-19.01h19.01v19.01ZM218.57,78.66h-19.01v-19.01h19.01v19.01ZM218.57,56.77h-19.01v-19.01h19.01s0,19.01,0,19.01Z"/>
            <rect class="cls-12" x="14.42" y="154.21" width="109.48" height="131.38"/>
            <path class="cls-10" d="M123.9,154.21v131.38H14.42v-131.38h109.48M132.55,145.56H5.77v148.68h126.78v-148.68h0Z"/>
            <rect class="cls-7" x="23.96" y="163.81" width="90.4" height="111.16"/>
            <path class="cls-2" d="M123.9,177.55v-2.88h-20.45v-20.45h-2.88v20.45h-19.01v-20.45h-2.88v20.45h-19.01v-20.45h-2.88v20.45h-19.01v-20.45h-2.88v20.45H14.42v2.88h20.45v19.01H14.42v2.88h20.45v19.01H14.42v2.88h20.45v19.01H14.42v2.88h20.45v19.01H14.42v2.88h20.45v20.45h2.88v-20.45h19.01v20.45h2.88v-20.45h19.01v20.45h2.88v-20.45h19.01v20.45h2.88v-20.45h20.45v-2.88h-20.45v-19.01h20.45v-2.88h-20.45v-19.01h20.45v-2.88h-20.45v-19.01h20.45v-2.88h-20.45v-19.01h20.48ZM78.66,177.55v19.01h-19.01v-19.01h19.01ZM59.65,218.45v-19.01h19.01v19.01h-19.01ZM78.66,221.34v19.01h-19.01v-19.01h19.01ZM37.76,177.55h19.01v19.01h-19.01s0-19.01,0-19.01ZM37.76,199.44h19.01v19.01h-19.01s0-19.01,0-19.01ZM37.76,221.34h19.01v19.01h-19.01s0-19.01,0-19.01ZM37.76,262.25v-19.01h19.01v19.01s-19.01,0-19.01,0ZM59.65,262.25v-19.01h19.01v19.01h-19.01ZM100.56,262.25h-19.01v-19.01h19.01v19.01ZM100.56,240.35h-19.01v-19.01h19.01v19.01ZM100.56,218.45h-19.01v-19.01h19.01v19.01ZM100.56,196.56h-19.01v-19.01h19.01v19.01Z"/>
            <rect class="cls-12" x="132.43" y="154.21" width="109.48" height="131.38"/>
            <path class="cls-10" d="M241.91,154.21v131.38h-109.48v-131.38h109.48M250.56,145.56h-126.78v148.68h126.78v-148.68h0Z"/>
            <rect class="cls-6" x="141.97" y="163.81" width="90.4" height="111.16"/>
            <path class="cls-2" d="M241.91,177.55v-2.88h-20.45v-20.45h-2.88v20.45h-19.01v-20.45h-2.88v20.45h-19.01v-20.45h-2.88v20.45h-19.01v-20.45h-2.88v20.45h-20.45v2.88h20.45v19.01h-20.45v2.88h20.45v19.01h-20.45v2.88h20.45v19.01h-20.45v2.88h20.45v19.01h-20.45v2.88h20.45v20.45h2.88v-20.45h19.01v20.45h2.88v-20.45h19.01v20.45h2.88v-20.45h19.01v20.45h2.88v-20.45h20.45v-2.88h-20.45v-19.01h20.45v-2.88h-20.45v-19.01h20.45v-2.88h-20.45v-19.01h20.45v-2.88h-20.45v-19.01h20.45ZM196.68,177.55v19.01h-19.01v-19.01h19.01ZM177.67,218.45v-19.01h19.01v19.01h-19.01ZM196.68,221.34v19.01h-19.01v-19.01h19.01ZM155.77,177.55h19.01v19.01h-19.01v-19.01ZM155.77,199.44h19.01v19.01h-19.01v-19.01ZM155.77,221.34h19.01v19.01h-19.01v-19.01ZM155.77,262.25v-19.01h19.01v19.01h-19.01ZM177.67,262.25v-19.01h19.01v19.01h-19.01ZM218.57,262.25h-19.01v-19.01h19.01v19.01ZM218.57,240.35h-19.01v-19.01h19.01v19.01ZM218.57,218.45h-19.01v-19.01h19.01v19.01ZM218.57,196.56h-19.01v-19.01h19.01v19.01Z"/>
          </g>
        </g>
      </g>
    </g>
  </g>
  <g id="Layer_4">
    <g>
      <path class="cls-13" d="M25.43,181.34c-1.28-.48-2.53-1.09-3.72-1.85,1.03.21,2.04.62,2.94,1.24.27.19.53.39.78.61Z"/>
      <path class="cls-13" d="M87.25,219.33c-.25-1.95-3.17-3.38-7.69-4.09,2.28-2.01,4.36-4.33,6.16-6.96,3.92-5.7,6.04-12.12,6.49-18.55,3.42-1.35,6.48-3.7,8.72-6.96,5.99-8.72,3.77-20.64-4.95-26.63-.9-.62-1.82-1.14-2.78-1.58,0-.03.03-.06.04-.09,4.47-10.87-.74-23.31-11.61-27.77-10.87-4.45-23.3.74-27.76,11.62-1.53,3.71-1.92,7.61-1.34,11.3-1.32.08-2.62.23-3.92.45-1.26-1.66-2.81-3.15-4.62-4.4-9.22-6.33-21.83-3.98-28.16,5.23-4.62,6.74-4.62,15.28-.68,21.85-.91.36-1.74.98-2.34,1.85-1.53,2.23-1.03,5.23,1.09,6.85-.97.73-1.86,1.65-2.6,2.73-3.25,4.73-2.54,10.87,1.58,13.7,1.9,1.3,4.18,1.68,6.42,1.24,2.51,7.4,7.34,14.08,14.28,18.84,2.51,1.73,5.17,3.11,7.9,4.14-1.33,1.09-2,2.21-1.87,3.27.49,3.88,11.56,5.67,24.71,3.99,13.15-1.67,23.42-6.17,22.93-10.04h0ZM21.71,179.48s-.07,0-.11-.02l.02-.03s.05.05.08.06c1.03.21,2.04.62,2.94,1.24.27.19.53.39.78.61-1.28-.48-2.53-1.09-3.72-1.85h0Z"/>
      <path class="cls-13" d="M21.71,179.48s-.07,0-.11-.02l.02-.03s.05.05.08.06h.01Z"/>
      <path class="cls-13" d="M25.43,181.34c-1.28-.48-2.53-1.09-3.72-1.85,1.03.21,2.04.62,2.94,1.24.27.19.53.39.78.61Z"/>
      <path class="cls-13" d="M25.43,181.34c-1.28-.48-2.53-1.09-3.72-1.85,1.03.21,2.04.62,2.94,1.24.27.19.53.39.78.61Z"/>
    </g>
    <path class="cls-1" d="M66.14,189.01c2.19,1.21,4.01,3.12,5.2,5.32,3.73,6.91-.21,16.38-7.18,19.99-3.05,1.58-7.63,1.8-10.87,1.14-2.34-.48-4.33-1.81-5.69-3.76-.47-.67-.84-1.39-1.21-2.12.27,4.58,2.31,8.87,6.02,11.71,7.24,5.54,18.11,3.51,24.28-4.55s5.3-19.08-1.95-24.62c-2.54-1.94-5.52-2.95-8.59-3.1h-.01Z"/>
    <path class="cls-4" d="M27.86,182.73c-1.12-6.87,4.8-13.97,11.6-16.51-1.19-.28-2.42-.43-3.69-.43-9.14,0-16.57,7.54-16.58,16.86s7.39,16.89,16.54,16.9c1.1,0,2.18-.11,3.22-.32-5.81-3.53-10.09-10.49-11.07-16.5h-.02Z"/>
    <g>
      <path class="cls-1" d="M76.41,150.21c2.15,1.27,3.95,3.2,5.13,5.37,3.72,6.82.02,15.66-6.73,18.75-2.95,1.35-7.4,1.32-10.57.51-2.29-.59-4.24-1.96-5.59-3.91-.47-.67-.84-1.38-1.2-2.09.33,4.4,2.37,8.61,6.02,11.53,7.13,5.69,17.68,4.33,23.58-3.05s4.9-17.98-2.22-23.67c-2.5-2-5.41-3.12-8.41-3.43h0Z"/>
      <path class="cls-4" d="M61.67,168.73c-3.56-3.46-4.17-9.51-2.36-13.29-.64.26-1.25.6-1.8,1.04-3.98,3.17-3.82,9.98.35,15.22,4.17,5.23,10.78,6.91,14.75,3.74.48-.38.9-.82,1.26-1.3-4.11.04-9.08-2.38-12.2-5.41Z"/>
    </g>
    <g>
      <g>
        <path class="cls-13" d="M186.36,95.82c-1.33.33-2.7.53-4.12.58.97-.41,2.03-.64,3.13-.64.33,0,.66.02.99.06h0Z"/>
        <path class="cls-13" d="M248.93,103.26c.03-1.79.07-3.58.12-5.37.19-6.09,1.1-12.14,1.67-18.21,0-.84-.03-1.69-.04-2.52-.8-4.39-2.34-8.51-4.52-12.22,2.06-3.05,3.25-6.72,3.25-10.67,0-10.58-8.57-19.15-19.15-19.15-1.09,0-2.15.09-3.19.27,0-.03,0-.07-.02-.1-2.47-11.49-13.8-18.8-25.29-16.32-11.48,2.48-18.79,13.8-16.31,25.29.84,3.92,2.72,7.36,5.29,10.08-1.04.81-2.03,1.67-2.98,2.59-1.98-.66-4.1-1.01-6.3-1.01-11.18,0-20.25,9.07-20.25,20.25,0,8.17,4.84,15.21,11.81,18.4-.55.81-.88,1.79-.88,2.85,0,2.7,2.11,4.9,4.77,5.03-.39,1.15-.6,2.41-.6,3.72,0,5.74,4.06,10.4,9.06,10.4,2.3,0,4.4-.98,6-2.61,6.26,4.68,14.02,7.45,22.44,7.45,3.05,0,6.02-.36,8.86-1.06-.48,1.65-.4,2.95.31,3.75,2.44,2.74,11.49-1.3,20.75-9.08,2.5-3.6,4.14-7.58,5.19-11.76h.01ZM182.24,96.4s-.07.03-.1.04v-.04s.07.01.1,0c.97-.41,2.03-.64,3.13-.64.33,0,.66.02.99.06-1.33.33-2.7.53-4.12.58h0Z"/>
        <path class="cls-13" d="M182.24,96.4s-.07.03-.1.04v-.04s.07.01.1,0Z"/>
        <path class="cls-13" d="M186.36,95.82c-1.33.33-2.7.53-4.12.58.97-.41,2.03-.64,3.13-.64.33,0,.66.02.99.06h0Z"/>
        <path class="cls-13" d="M186.36,95.82c-1.33.33-2.7.53-4.12.58.97-.41,2.03-.64,3.13-.64.33,0,.66.02.99.06h0Z"/>
      </g>
      <path class="cls-1" d="M224.27,79.1c2.49-.24,5.08.3,7.3,1.44,6.98,3.59,9.1,13.62,5.39,20.54-1.62,3.02-5.27,5.8-8.32,7.09-2.21.93-4.59.96-6.82.12-.77-.29-1.48-.67-2.2-1.06,2.82,3.62,6.92,6,11.59,6.24,9.11.47,16.92-7.36,17.44-17.49s-6.43-18.73-15.54-19.2c-3.19-.17-6.22.69-8.84,2.31h0Z"/>
      <path class="cls-4" d="M189.16,95.59c-4.81-5.03-3.96-14.24.21-20.18-1.14.44-2.24,1.02-3.29,1.74-7.55,5.17-9.39,15.59-4.13,23.28s15.65,9.74,23.2,4.57c.91-.62,1.73-1.32,2.47-2.08-6.79.38-14.26-2.94-18.47-7.33h0Z"/>
      <g>
        <path class="cls-1" d="M210.77,41.3c2.49-.17,5.07.41,7.27,1.52,6.92,3.51,8.88,12.9,5.06,19.26-1.67,2.78-5.36,5.28-8.43,6.4-2.22.81-4.6.78-6.82-.05-.76-.29-1.47-.66-2.18-1.04,2.76,3.44,6.82,5.76,11.49,6.1,9.1.66,17.03-6.44,17.71-15.86.68-9.42-6.13-17.6-15.23-18.26-3.19-.23-6.23.49-8.87,1.93h0Z"/>
        <path class="cls-4" d="M209.11,64.92c-4.9-.84-8.82-5.47-9.47-9.62-.38.57-.69,1.2-.89,1.88-1.49,4.87,2.5,10.39,8.9,12.35,6.4,1.95,12.79-.41,14.28-5.27.18-.59.28-1.18.3-1.78-3.37,2.36-8.83,3.18-13.12,2.45h0Z"/>
      </g>
    </g>
    <path class="cls-13" d="M245.18,248.73c-3.33-8.23,1.03-17.51.55-26.22.25-8.95-1.24-17.85-1.15-26.75,6.76-4.74,6.42-15.41-.58-19.78,0-7.16-3.83-14.57-8.38-19.97-.05.04-.09.08-.14.13-14.39-26.11-56.24-20.01-62.69,9.02-8.02,5.69-12.53,14.97-11.46,24.27-13.36-16.66-45.56-.13-36.56,20.36-7.45,2.9-12.84,9.14-15.12,16.62-31.08-7.75-30.81,43.49-1.67,42.09-10.83,25.2,27.87,35.78,38.33,13.44,10.24,10.16,30.87,8.79,40.56-2.6,8.12,12.51,27.52,9.11,30.07-5.6,7.56,7.05,19.22,9.22,28.7,4.39,7.1-9.38,6.19-20.58-.46-29.4h0ZM228.12,226.4c-11.98,2.35-20.29,13.25-20.51,25.35-4.83-2.96-11.11-3.33-16.1-.48-5.24-10.73-18-16.39-30.74-13.45.47-6.85-2.09-14.61-6.51-19.82,6.93-3.76,11.21-10.65,11.12-17.74,7.25,11.11,24.59,14.62,36.98,7.32,10.01,1.06,20.29-2.31,27.77-9.76.52.2,1.06.37,1.62.5-5.35,8.6-6.45,18.86-3.63,28.08h0Z"/>
  </g>
  <g id="Layer_2-2">
    <path class="cls-13" d="M204.53,64c3.07-3.28,4.92-7.52,4.92-12.13,0-10.46-9.49-18.94-21.21-18.94-6.53,0-12.38,2.64-16.27,6.79-4.71-8.08-13.98-13.57-24.64-13.57-5.46,0-10.54,1.44-14.84,3.93-2.4-7.3-8.65-12.51-15.99-12.51-6.05,0-11.36,3.54-14.38,8.87-4.58-7.86-12.8-13.09-22.18-13.09-12.74,0-23.34,9.65-25.6,22.42-9.83-3.43-21.11-2.34-30.41,3.92-15.68,10.56-19.83,31.84-9.27,47.52,3.94,5.84,9.36,10.08,15.43,12.56-7.07,3-11.97,9.52-11.97,17.09,0,10.4,9.27,18.84,20.71,18.84,3.81,0,7.39-.94,10.45-2.58.91,3.94,2.55,7.78,4.94,11.33,10.56,15.69,31.84,19.84,47.52,9.27,4.2-2.83,7.57-6.42,10.06-10.47,9.36-3.04,16.43-10.54,18.19-19.74,3.01,7.17,10.77,12.28,19.86,12.28,11.72,0,21.21-8.48,21.21-18.93,0-.62-.03-1.24-.1-1.85,7.98-.54,14.99-4.89,19.4-11.35,2.97,2.12,6.49,3.34,10.27,3.34,10.64,0,19.27-9.72,19.27-21.72,0-10.49-6.6-19.25-15.37-21.28ZM129.36,111.96c-3.32-10.78-14.1-18.68-26.88-18.68-2.14,0-4.22.22-6.22.65-10.36-4.49-22.71-3.77-32.77,3-3.38,2.27-6.22,5.05-8.5,8.15-1.21-1.39-2.65-2.62-4.25-3.64,3.98-.9,7.86-2.55,11.44-4.96,9.76-6.57,15.05-17.28,15.12-28.21.87.09,1.75.14,2.64.14,11.29,0,20.9-7.59,24.51-18.2,3.08,3.46,7.34,5.6,12.05,5.6,1.08,0,2.14-.11,3.17-.33,1.79,11.8,12.28,21.02,25.31,22.02-1.17,3.11-1.8,6.5-1.8,10.05,0,3.84.74,7.49,2.09,10.81-7.73,1.52-13.88,6.81-15.91,13.6Z"/>
    <path class="cls-4" d="M23.77,60.05c2.63-5.73,8.3-9.49,14.08-11.55,2.75-.98,5.67-1.67,8.55-2.1.9-.13,2.04-.08,3.15-.09.39-.15.78-.29,1.18-.42-11.75-4.18-24.7,1.01-29.49,12.12-3.38,7.84-1.82,16.6,3.28,23.08-2.95-6.72-3.66-14.7-.76-21.04h.01Z"/>
    <path class="cls-4" d="M28.56,113.52c1.44-3.07,5.31-4.74,9.41-5.42,1.95-.32,4.05-.47,6.14-.46.66,0,1.5.13,2.32.22.28-.05.55-.1.84-.14-9.05-3.43-18.17-1.57-20.75,4.4-1.82,4.21.1,9.39,4.44,13.56-2.77-4.12-3.99-8.78-2.4-12.17h0Z"/>
    <path class="cls-1" d="M158.69,41.41c2.86,4.07,2.36,10.05.48,15.58-.89,2.62-2.11,5.3-3.51,7.86-.44.8-1.16,1.74-1.82,2.67-.12.38-.24.75-.38,1.13,10.28-8.49,14.03-21.04,8.31-28.68-4.03-5.39-11.74-6.94-19.81-4.78,6.96-.28,13.56,1.73,16.72,6.23h.01Z"/>
    <path class="cls-1" d="M190.56,48.08c4.37,1.75,5.45,8.67,3.57,14.53.73-.75,1.41-1.59,2.03-2.51,4.44-6.6,3.83-14.77-1.35-18.25s-12.98-.96-17.41,5.64c-.53.79-.99,1.61-1.38,2.44,4.78-2.88,10.72-3.38,14.54-1.85h0Z"/>
    <path class="cls-4" d="M101.38,126.79c-5.76.61-11.31-4.91-13.04-10.94-.3,1.02-.49,2.08-.56,3.18-.52,7.93,5.32,14.78,13.04,15.28,7.72.51,14.41-5.51,14.93-13.45.06-.96.03-1.89-.08-2.81-3.25,4.86-9.26,8.2-14.29,8.73h0Z"/>
    <path class="cls-4" d="M72.77,133.47c-7.06-7.55-6.33-20.88-.76-29.29-1.58.58-3.11,1.36-4.55,2.35-10.38,7.11-12.44,22.14-4.6,33.59,7.84,11.44,22.6,14.96,32.98,7.86,1.25-.86,2.38-1.83,3.38-2.89-9.57.19-20.27-5.01-26.45-11.61h0Z"/>
    <path class="cls-4" d="M144.82,120.05c-3.26-3.83-2.85-10.18-.2-14.04-.74.23-1.46.56-2.14.98-4.89,3.08-5.94,10.22-2.33,15.93,3.6,5.71,10.49,7.85,15.38,4.76.59-.37,1.12-.8,1.6-1.28-4.48-.2-9.46-3.01-12.31-6.36h0Z"/>
    <g>
      <path class="cls-1" d="M168.48,69.51c2.32-.94,4.94-1.2,7.38-.83,7.68,1.17,12.47,9.48,10.84,16.71-.71,3.16-3.44,6.69-6,8.72-1.85,1.47-4.13,2.18-6.5,2.08-.81-.03-1.61-.17-2.4-.31,3.7,2.41,8.28,3.33,12.82,2.2,8.85-2.22,14.16-11.45,11.86-20.61s-11.33-14.79-20.18-12.57c-3.1.78-5.76,2.42-7.82,4.61h0Z"/>
      <path class="cls-4" d="M174.28,92.46c-4.91.74-10.09-2.44-12-6.18-.18.67-.28,1.36-.26,2.06.11,5.09,5.62,9.09,12.31,8.94,6.69-.15,12.02-4.39,11.91-9.47,0-.61-.11-1.21-.27-1.78-2.46,3.29-7.4,5.79-11.69,6.43Z"/>
    </g>
    <g>
      <path class="cls-13" d="M165.16,212.52c-1.16-.72-2.26-1.56-3.29-2.54.97.41,1.88,1.01,2.64,1.79.23.24.45.49.65.75Z"/>
      <path class="cls-13" d="M218.4,261.83c.14-1.96-2.45-3.93-6.75-5.51,2.63-1.53,5.12-3.4,7.4-5.62,4.95-4.83,8.29-10.71,9.98-16.93,3.62-.66,7.08-2.37,9.91-5.12,7.57-7.39,7.72-19.51.33-27.08-.76-.78-1.57-1.48-2.42-2.09,0-.03.04-.06.06-.08,6.5-9.79,3.82-23.01-5.98-29.5-9.79-6.49-23-3.81-29.49,5.99-2.22,3.34-3.37,7.09-3.52,10.83-1.31-.18-2.61-.29-3.93-.32-.91-1.88-2.14-3.64-3.68-5.21-7.81-8-20.63-8.16-28.64-.35-5.85,5.71-7.51,14.09-4.92,21.3-.96.17-1.9.62-2.65,1.36-1.93,1.89-2.03,4.93-.27,6.93-1.1.52-2.14,1.25-3.08,2.17-4.11,4.01-4.61,10.17-1.12,13.75,1.61,1.65,3.77,2.47,6.06,2.47,1.02,7.75,4.46,15.24,10.34,21.26,2.13,2.18,4.46,4.06,6.95,5.6-1.52.81-2.39,1.77-2.47,2.84-.27,3.9,10.24,7.81,23.46,8.73,13.23.93,24.17-1.48,24.44-5.38v-.04ZM161.87,209.97s-.07-.03-.1-.04l.03-.03s.04.06.07.07c.97.41,1.88,1.01,2.64,1.79.23.24.45.49.65.75-1.16-.72-2.26-1.56-3.29-2.54h0Z"/>
      <path class="cls-13" d="M161.87,209.97s-.07-.03-.1-.04l.03-.03s.04.06.07.07h0Z"/>
      <path class="cls-13" d="M165.16,212.52c-1.16-.72-2.26-1.56-3.29-2.54.97.41,1.88,1.01,2.64,1.79.23.24.45.49.65.75Z"/>
      <path class="cls-13" d="M165.16,212.52c-1.16-.72-2.26-1.56-3.29-2.54.97.41,1.88,1.01,2.64,1.79.23.24.45.49.65.75Z"/>
    </g>
    <path class="cls-1" d="M203.6,227.98c1.91,1.61,3.33,3.84,4.06,6.23,2.31,7.51-3.39,16.02-10.94,18.2-3.3.95-7.83.28-10.88-1-2.21-.93-3.89-2.62-4.85-4.8-.33-.75-.55-1.53-.77-2.31-.62,4.55.54,9.15,3.62,12.66,6.02,6.85,17.08,6.97,24.7.27,7.62-6.7,8.91-17.68,2.89-24.53-2.11-2.4-4.84-3.97-7.82-4.71h0Z"/>
    <path class="cls-4" d="M167.27,214.36c.24-6.96,7.43-12.77,14.59-13.94-1.11-.5-2.29-.89-3.54-1.14-8.97-1.79-17.72,4.16-19.55,13.3s3.96,18,12.93,19.8c1.08.22,2.16.32,3.22.32-5.01-4.6-7.85-12.25-7.65-18.34h0Z"/>
    <g>
      <path class="cls-1" d="M221.23,191.92c1.86,1.67,3.25,3.91,3.99,6.27,2.32,7.41-3.04,15.37-10.25,17.08-3.15.75-7.52-.15-10.47-1.56-2.13-1.02-3.77-2.75-4.73-4.92-.33-.75-.55-1.52-.77-2.29-.54,4.38.64,8.91,3.66,12.48,5.88,6.97,16.5,7.69,23.72,1.6s8.31-16.68,2.43-23.65c-2.06-2.44-4.7-4.12-7.58-5h0Z"/>
      <path class="cls-4" d="M203.16,207.22c-2.82-4.09-2.24-10.14.28-13.5-.68.13-1.34.35-1.97.67-4.52,2.33-5.7,9.05-2.63,14.99,3.07,5.95,9.22,8.87,13.74,6.54.54-.28,1.04-.63,1.48-1.03-4.04-.76-8.45-4.1-10.91-7.68h.01Z"/>
    </g>
    <path class="cls-4" d="M101.71,247.29c-.07-5.45,6.81-9.7,13.87-10.31-1.12-.44-2.31-.8-3.56-1.05-8.97-1.79-17.39,2.5-18.81,9.6s4.7,14.3,13.67,16.09c1.08.22,2.15.34,3.2.39-5.17-3.82-8.31-9.96-8.37-14.72h0Z"/>
    <path class="cls-4" d="M141.86,254.53c-6.63-6.93-4.49-20.04,2.23-28.66-1.72.68-3.41,1.54-5.02,2.6-11.63,7.66-15.34,22.53-8.3,33.23s22.18,13.16,33.81,5.5c1.4-.92,2.68-1.95,3.85-3.06-10.06.83-20.77-3.56-26.56-9.62h0Z"/>
  </g>
  <path class="cls-13" d="M150.56,85.33c0,15.98-14.06,28.94-31.41,28.94-14.03,0-25.91-8.48-29.94-20.19-1.57.22-3.19.34-4.83.34-17.35,0-31.41-12.95-31.41-28.93s14.06-28.94,31.41-28.94c14.03,0,25.91,8.48,29.94,20.18,1.57-.22,3.19-.34,4.83-.34,17.35,0,31.41,12.96,31.41,28.94Z"/>
  <circle class="cls-13" cx="91.05" cy="95.76" r="13.68"/>
  <path class="cls-4" d="M77.88,57.19c-.36,1.03-.55,2.25-.63,3.59.2-1.2.41-2.39.63-3.59Z"/>
  <path class="cls-4" d="M77.78,83.54c-3.43-4.27-5.25-10.07-5.68-15.96-.5-6.93.7-14.87,6.43-18.61,5.48-3.58,12.77-3.12,19.62-.95-3.68-3.95-8.77-6.4-14.4-6.4-11.21,0-20.29,9.69-20.29,21.63,0,9.75,6.05,17.97,14.36,20.67-.02-.13-.03-.26-.04-.39Z"/>
  <path class="cls-4" d="M100.3,99.15c-2.2,1.46-4.97,1.99-7.67,1.81-3.18-.21-6.69-1.37-7.95-4.54-1.2-3.03-.44-6.72,1.07-10.06-2.07,1.6-3.57,4.03-4,6.9-.86,5.71,2.84,11,8.26,11.81,4.42.66,8.61-1.86,10.47-5.91-.06,0-.12,0-.18,0Z"/>
  <path class="cls-1" d="M118.55,63.81c5.24,1.58,10.03,5.34,13.71,9.95,4.33,5.43,7.83,12.66,5.22,18.99-2.49,6.05-8.77,9.79-15.64,11.88,5.27,1.18,10.85.32,15.5-2.87,9.24-6.34,11.26-19.46,4.51-29.32-5.51-8.04-15.15-11.4-23.54-8.93.09.1.17.19.25.3Z"/>
</svg>