<?xml version="1.0" encoding="UTF-8" standalone="no"?>
<!-- Generator: Adobe Illustrator 18.0.0, SVG Export Plug-In . SVG Version: 6.00 Build 0) -->
<!DOCTYPE svg PUBLIC '-//W3C//DTD SVG 1.1//EN' 'http://www.w3.org/Graphics/SVG/1.1/DTD/svg11.dtd'>
<svg id="Layer_1" xmlns="http://www.w3.org/2000/svg" xml:space="preserve" version="1.1" xmlns:xlink="http://www.w3.org/1999/xlink" x="0px" y="0px" width="200px" height="200px" viewBox="0 0 200 200" enable-background="new 0 0 200 200">
<rect width="200" height="200" fill="#EEF7FE"/>
<path d="m62.6 139c-2.9-0.7-5.7 0-8.4 1.3 0.9-2.7 3.5-3.7 6-4.2-2.9 0.3-5.9 1.4-6.8 4.7-0.8 0.5-1.5 1-2.2 1.6-1.8-1.5-4-2.7-6.4-2.9-2.3-0.3-5.1 0.2-7.1 1.4 4.2-1.9 9.2-0.8 12.5 2.5-1.1 1.2-2.2 2.5-2.9 4 2.2-2.1 4.6-4 7.2-5.5 1.5-0.8 3-1.5 4.7-2 1.4-0.3 2.8-0.5 4.2-0.6 0-0.1-0.3-0.2-0.8-0.3-0.3-0.1 0.5 0.1 0 0z" fill="#B9E0EA"/>
		<rect y="102.7" x="118.3" height="50.2" width="55.2" fill="#A0C53A"/>
			<path d="m134 125.5c0-0.3-0.1-0.5-0.2-0.8s-0.2-0.5-0.3-0.7l-0.7-1.5c-0.2-0.5-0.5-1-0.7-1.5-0.1-0.3-0.2-0.6-0.2-0.9s0-0.7 0.1-1c0-0.1 0.1-0.2 0.1-0.2l0.1-0.1 0.1-0.1c0.2-0.2 0.4-0.3 0.6-0.3 0.3 0 0.4 0.1 0.6 0.2 0.1 0.1 0.3 0.2 0.4 0.4 0.4 0.5 0.6 1 0.8 1.5s0.4 1 0.6 1.6l0.5 1.6-0.9 0.3c-0.1-0.3-0.1-0.6-0.1-0.9v-0.8c0-0.6 0-1.1 0.1-1.7s0.2-1.1 0.5-1.7c0.1-0.3 0.3-0.6 0.6-0.8s0.7-0.3 1-0.2h0.1c0.1 0 0.1 0.1 0.2 0.1l0.1 0.1c0.1 0.2 0.2 0.3 0.3 0.5 0.1 0.3 0.1 0.6 0.1 0.9 0 0.6-0.1 1.1-0.2 1.6s-0.3 1.1-0.4 1.6-0.3 1-0.5 1.5c0-0.5 0.1-1.1 0.2-1.6s0.2-1.1 0.2-1.6c0.1-0.5 0.1-1.1 0.1-1.6 0-0.2-0.1-0.5-0.1-0.7 0-0.1-0.1-0.2-0.1-0.2h-0.1c-0.2 0-0.3 0-0.4 0.1s-0.2 0.3-0.3 0.5c-0.2 0.4-0.3 0.9-0.3 1.4-0.1 0.5-0.1 1-0.1 1.5v0.8c0 0.3 0 0.5 0.1 0.7l-0.9 0.3c-0.1-0.3-0.2-0.5-0.3-0.8l-0.2-0.8c-0.2-0.5-0.3-1-0.5-1.5s-0.4-1-0.7-1.4c-0.1-0.2-0.3-0.3-0.3-0.3h-0.1l-0.1 0.1-0.1 0.1c-0.2 0.3-0.1 0.9 0 1.4s0.3 1 0.5 1.5l0.6 1.5c0.1 0.7 0.2 1.3 0.2 1.9z" fill="#709A2D"/>
			<path d="m153.5 137.6c0-0.3-0.1-0.5-0.2-0.8s-0.2-0.5-0.3-0.7l-0.7-1.5c-0.2-0.5-0.5-1-0.7-1.5-0.1-0.3-0.2-0.6-0.2-0.9s0-0.7 0.1-1c0-0.1 0.1-0.2 0.1-0.2l0.1-0.1 0.1-0.1c0.2-0.2 0.4-0.3 0.6-0.3 0.3 0 0.4 0.1 0.6 0.2 0.1 0.1 0.3 0.2 0.4 0.4 0.4 0.5 0.6 1 0.8 1.5s0.4 1 0.6 1.6l0.5 1.6-0.9 0.3c-0.1-0.3-0.1-0.6-0.1-0.9v-0.8c0-0.6 0-1.1 0.1-1.7s0.2-1.1 0.5-1.7c0.1-0.3 0.3-0.6 0.6-0.8s0.7-0.3 1-0.2h0.1c0.1 0 0.1 0.1 0.2 0.1l0.1 0.1c0.1 0.2 0.2 0.3 0.3 0.5 0.1 0.3 0.1 0.6 0.1 0.9 0 0.6-0.1 1.1-0.2 1.6s-0.3 1.1-0.4 1.6-0.3 1-0.5 1.5c0-0.5 0.1-1.1 0.2-1.6s0.2-1.1 0.2-1.6c0.1-0.5 0.1-1.1 0.1-1.6 0-0.2-0.1-0.5-0.1-0.7 0-0.1-0.1-0.2-0.1-0.2h-0.1c-0.2 0-0.3 0-0.4 0.1s-0.2 0.3-0.3 0.5c-0.2 0.4-0.3 0.9-0.3 1.4-0.1 0.5-0.1 1-0.1 1.5v0.8c0 0.3 0 0.5 0.1 0.7l-0.9 0.3c-0.1-0.3-0.2-0.5-0.3-0.8l-0.2-0.8c-0.2-0.5-0.3-1-0.5-1.5s-0.4-1-0.7-1.4c-0.1-0.2-0.3-0.3-0.3-0.3h-0.1l-0.1 0.1-0.1 0.1c-0.2 0.3-0.1 0.9 0 1.4s0.3 1 0.5 1.5l0.6 1.5c0 0.8 0.2 1.4 0.2 1.9z" fill="#709A2D"/>
	<path opacity=".2" enable-background="new " d="m173.1 102.7h-54.3v51.2h54.3v-51.2zm-10.6 36c-3.5 0.2-6.7 1.2-9.3 2.6-1.6-1.7-3.8-2.7-6.2-2.7-2.9 0-5.5 1.5-7.1 3.7-1.2-2.9-3.9-5-7.2-5-1.6 0-3 0.5-4.2 1.3 1-1.9 1.6-4.1 1.6-6.4 0-4.2-1.9-7.9-4.8-10.3 0.9-1.7 1.4-3.6 1.4-5.7v-0.7c1.1 0.3 2.4 0.5 3.6 0.5 2.7 0 5.2-0.8 7.3-2.1 1.5 1.3 3.8 2.1 6.3 2.1 0.8 0 1.6-0.1 2.3-0.2 3.4 4.2 9.2 7 15.9 7 0.8 0 1.6 0 2.4-0.1-1.5 3.2-2.4 6.8-2.4 10.7-0.2 1.7 0 3.5 0.4 5.3z" fill="#193149"/>
	<path d="m174.4 101.8h-57.1v52.6h57.1v-52.6zm-12.4 35.9c-3.5 0.2-6.7 1.2-9.3 2.6-1.6-1.7-3.8-2.7-6.2-2.7-2.9 0-5.5 1.5-7.1 3.7-1.2-2.9-3.9-5-7.2-5-1.6 0-3 0.5-4.2 1.3 1-1.9 1.6-4.1 1.6-6.4 0-4.2-1.9-7.9-4.8-10.3 0.9-1.7 1.4-3.6 1.4-5.7v-0.7c1.1 0.3 2.4 0.5 3.6 0.5 2.7 0 5.2-0.8 7.3-2.1 1.5 1.3 3.8 2.1 6.3 2.1 0.8 0 1.6-0.1 2.3-0.2 3.4 4.2 9.2 7 15.9 7 0.8 0 1.6 0 2.4-0.1-1.5 3.2-2.4 6.8-2.4 10.7-0.2 1.8 0 3.6 0.4 5.3z" fill="#EEF7FE"/>
	<g fill="#B9E0EA">
		<path d="m159.3 119.5c-5.1 0-10-1.7-13.8-4.7 0.6-0.1 1.2-0.3 1.8-0.6-1.6 0.2-3.3 0.2-4.9-0.1-1.4-0.2-2.8-0.6-4.2-1.1-0.9-0.4-1.7-0.8-2.5-1.3 0.3 0.4 0.6 0.7 0.9 1-2.9 1.7-7.3 1.8-10.4 1.4 0 0-0.4-1.2-0.4-1.4 0.1 0.3 0.2 1.1 0.3 1.3 0.1 1 0 2-0.2 2.9-0.1 1.1-0.8 3-1.2 3.9l0.4 0.3c0.7-1.3 1.1-2.7 1.2-4.2 0.1-0.8 0-1.6-0.1-2.4 3.2 1 8 0.8 10.7-1.4 0.1 0 0.1-0.1 0.2-0.1 0.4 0.3 0.9 0.6 1.4 0.9 0.2 0.1 0.3 0.2 0.5 0.2 0.4 0.2 0.7 0.3 1.1 0.4 1.8 0.5 3.7 0.7 5.5 0.3 3.9 4.9 11 7.6 18.3 6.8 0.5-1.1 1-2.1 1.6-3-2.1 0.6-4.1 0.9-6.2 0.9z"/>
		<path d="m138.3 143.2c0.2-1.5 1.5-2.9 2.7-3.7 2.1-1.5 4.5-1.9 6.9-1.7 1.4 0.1 2.8 0.9 3.9 1.7 1 0.8 1.9 1.7 2.5 2.9-2.2-2-5-3.4-8-3.3-2.9 0.1-6.4 1.4-8 4.1z"/>
		<path d="m127.7 137.6c2.2-8.2-0.4-14.9-7.6-18.4 2.5 0.1 4.7 1.2 6.4 3.2 3.8 4.2 3.9 10.5 1.7 15.4l-0.5-0.2z"/>
		<path d="m139 141.7c-0.3-1.3-1.5-2.4-2.6-3.1-0.8-0.5-1.7-1-2.6-1.2-1.6-0.4-3.2-0.1-4.8 0.4-1.2 0.4-2.4 1.1-3.6 1.6l0.5-0.5c0.3-0.3 0.9-0.7 1.6-1.1s1.5-0.8 2.5-1.1c0.9-0.3 2-0.5 3.1-0.3 1.9 0.2 3.8 1.3 5.1 2.8 0.3 0.3 0.5 0.6 0.7 0.9s0.3 0.6 0.4 0.8 0.2 0.5 0.2 0.8h-0.5z"/>
		<path d="m152.5 140.3c1.9-1 4-1.7 6.1-2.1 1.2-0.2 2.4-0.4 3.6-0.5h2.4c-1.9 0.2-3.8 0.4-5.7 0.9-1.1 0.3-2.2 0.7-3.3 1.2-0.5 0.2-1 0.5-1.5 0.7-0.1 0.1-1.1 0.5-1.1 0.6l-0.5-0.8z"/>
		<path d="m166.6 116.9c-0.1 0-0.3 0.4-0.3 0.5-0.2 0.4-0.5 0.8-0.7 1.2-0.4 0.8-0.8 1.6-1.1 2.4-0.8 1.8-1.4 3.8-1.8 5.7s-0.5 3.9-0.5 5.8c0 1.7 0.1 3.5 0.5 5.1-0.1 0-0.4 0.2-0.5 0.2-0.2-0.1-0.3-0.9-0.3-1.1-0.2-0.9-0.3-1.9-0.4-2.9-0.1-2.1 0.1-4.2 0.4-6.3 0.4-2.1 1.1-4.2 1.9-6.2 0.7-1.4 1.6-3.2 2.8-4.4z"/>
	</g>
<path d="m80.5 37.2c-2.8-0.8-5.5 0-8 1.4 0.9-2.9 3.3-4 5.7-4.5-2.8 0.3-5.7 1.6-6.5 5-0.7 0.5-1.5 1.1-2.1 1.7-1.7-1.6-3.9-3-6.1-3.1-2.2-0.4-4.9 0.2-6.8 1.5 4.1-2 8.9-0.9 12 2.7-1.1 1.3-2.1 2.7-2.8 4.3 2.1-2.2 4.4-4.4 6.9-5.9 1.4-0.9 2.9-1.6 4.5-2.1 1.4-0.4 2.7-0.5 4.1-0.7-0.1-0.1-0.4-0.2-0.9-0.3-0.2-0.1 0.5 0.1 0 0z" fill="#B9E0EA"/>
<path d="m162.3 62.7c-2.9-0.8-5.7 0-8.3 1.4 0.9-3 3.4-4.1 5.9-4.7-2.8 0.4-5.9 1.6-6.7 5.2-0.8 0.5-1.5 1.1-2.2 1.8-1.8-1.7-4-3.1-6.3-3.2-2.3-0.4-5 0.2-7 1.5 4.2-2.1 9.1-0.9 12.3 2.8-1.1 1.3-2.2 2.8-2.9 4.4 2.2-2.3 4.6-4.5 7.1-6.1 1.5-0.9 3-1.7 4.6-2.2 1.4-0.4 2.8-0.5 4.2-0.7 0.1 0-0.2-0.1-0.7-0.2-0.3-0.1 0.5 0.1 0 0z" fill="#B9E0EA"/>
</svg>
