<?xml version="1.0" encoding="utf-8"?>
<!-- Generator: Adobe Illustrator 26.0.0, SVG Export Plug-In . SVG Version: 6.00 Build 0)  -->
<svg version="1.1" id="Layer_2_00000111896366353667786300000018318909542848970937_"
	 xmlns="http://www.w3.org/2000/svg" xmlns:xlink="http://www.w3.org/1999/xlink" x="0px" y="0px" viewBox="0 0 327.6 380.9"
	 style="enable-background:new 0 0 327.6 380.9;" xml:space="preserve">
<style type="text/css">
	.st0{opacity:0.1;}
	.st1{fill:url(#SVGID_1_);stroke:#2B2B2B;stroke-miterlimit:10;}
	.st2{fill:url(#SVGID_00000051383094401240768980000001536928050056764310_);stroke:#2B2B2B;stroke-width:2;stroke-miterlimit:10;}
	.st3{fill:url(#SVGID_00000096750024244970784520000003717183351477539493_);stroke:#2B2B2B;stroke-width:2;stroke-miterlimit:10;}
	.st4{fill:url(#SVGID_00000026868457518449018060000007690877138915189639_);stroke:#2B2B2B;stroke-miterlimit:10;}
	.st5{fill:url(#SVGID_00000004543425809860264120000009544225374346057112_);stroke:#2B2B2B;stroke-miterlimit:10;}
	.st6{fill:#2B2B2B;}
	.st7{opacity:0.4;fill:#3A3932;enable-background:new    ;}
	.st8{fill:url(#SVGID_00000023278450501865634390000015048378945925345927_);stroke:#2B2B2B;stroke-width:2;stroke-miterlimit:10;}
	.st9{fill:none;stroke:#E6E7E8;stroke-miterlimit:10;}
	.st10{fill:none;stroke:#2B2B2B;stroke-miterlimit:10;}
	.st11{fill:none;stroke:#2B2B2B;stroke-width:2;stroke-miterlimit:10;}
	.st12{fill:url(#SVGID_00000026864216091566521780000018117446254569368981_);}
	.st13{fill:url(#SVGID_00000154419018652720172760000007448581630146406820_);}
	.st14{fill:url(#SVGID_00000019643926026912275140000001230256206972859272_);}
	.st15{fill:url(#SVGID_00000108987233048190653760000013915866209321301903_);}
	.st16{fill:url(#SVGID_00000098927880410776367550000001627464629233751456_);}
	.st17{fill:url(#SVGID_00000126297848545663724470000011466464429258992795_);}
	.st18{fill:url(#SVGID_00000077285470118976768820000002551939874975178915_);}
	.st19{fill:url(#SVGID_00000111174555556850992500000006028816457881860001_);stroke:#2B2B2B;stroke-miterlimit:10;}
	.st20{fill:url(#SVGID_00000132082735632141221970000007731506902606617013_);stroke:#2B2B2B;stroke-width:2;stroke-miterlimit:10;}
	.st21{fill:url(#SVGID_00000138556205091235892180000005685638793380730507_);stroke:#2B2B2B;stroke-width:2;stroke-miterlimit:10;}
	.st22{fill:url(#SVGID_00000044859047213682917810000002741495737430862248_);stroke:#2B2B2B;stroke-miterlimit:10;}
	.st23{fill:url(#SVGID_00000028298506337941351930000011740388609371904433_);stroke:#2B2B2B;stroke-miterlimit:10;}
	.st24{fill:url(#SVGID_00000121263814100585232260000008404721206308175234_);stroke:#2B2B2B;stroke-width:2;stroke-miterlimit:10;}
	.st25{fill:url(#SVGID_00000162341232160540363890000005786811080398702509_);}
	.st26{fill:url(#SVGID_00000011735663798772633170000003713822502318435507_);}
	.st27{fill:url(#SVGID_00000138531923767994416510000015255927594054027961_);}
	.st28{fill:url(#SVGID_00000155117768971125585900000009895111744245860255_);}
	.st29{fill:url(#SVGID_00000046331102991757310230000007153204655028274850_);}
	.st30{fill:url(#SVGID_00000152263296774897285570000000387427202141148549_);}
	.st31{fill:url(#SVGID_00000046298955339794544470000009543619054344384661_);}
	.st32{fill:url(#SVGID_00000110432691183428462480000001198546623322424966_);stroke:#2B2B2B;stroke-width:2;stroke-miterlimit:10;}
	.st33{fill:#B1B5BF;stroke:#2B2B2B;stroke-miterlimit:10;}
	.st34{fill:none;stroke:#1D1D1B;stroke-miterlimit:10;}
	.st35{fill:url(#SVGID_00000045591236891417273740000018029615346883699357_);stroke:#2B2B2B;stroke-width:2;stroke-miterlimit:10;}
	.st36{fill:url(#SVGID_00000016771602594936661770000006695173997194938559_);stroke:#F7A731;stroke-width:2;stroke-miterlimit:10;}
	.st37{fill:url(#SVGID_00000004521077485880212960000010464320922780551307_);stroke:#58595B;stroke-miterlimit:10;}
	.st38{fill:url(#SVGID_00000000195807633765777150000015061582560088661143_);stroke:#58595B;stroke-miterlimit:10;}
	.st39{fill:url(#SVGID_00000054949377106672549690000012028974591632458658_);stroke:#F6921E;stroke-miterlimit:10;}
	.st40{fill:url(#SVGID_00000118399233800616491810000005588785778909748377_);stroke:#F6921E;stroke-miterlimit:10;}
	.st41{fill:url(#SVGID_00000116197408897116554870000006025655719716029863_);stroke:#F6921E;stroke-miterlimit:10;}
	.st42{fill:url(#SVGID_00000000909503640803911940000007038345136617653910_);stroke:#F6921E;stroke-miterlimit:10;}
	.st43{fill:url(#SVGID_00000031202828069257882900000008411131555853416583_);stroke:#F6921E;stroke-miterlimit:10;}
	.st44{fill:url(#SVGID_00000016773626136095040920000011153267385497397684_);stroke:#F6921E;stroke-miterlimit:10;}
	.st45{fill:url(#SVGID_00000029744713249953403670000011457826193764845712_);stroke:#F6921E;stroke-miterlimit:10;}
	.st46{fill:#29B473;stroke:#167244;stroke-miterlimit:10;}
	.st47{opacity:0.77;fill:#105B34;enable-background:new    ;}
	.st48{fill:#1E8E56;stroke:#105B34;stroke-miterlimit:10;}
	.st49{fill:#148449;stroke:#006838;stroke-miterlimit:10;}
	.st50{opacity:0.77;}
	.st51{fill:#105B34;}
	.st52{fill:#41E592;}
	.st53{fill:url(#SVGID_00000134241407897447807430000014256004813947077301_);stroke:#F6921E;stroke-miterlimit:10;}
	.st54{fill:#F9EC31;}
	.st55{fill:#1D1D1B;}
	.st56{fill:#BE1E2D;}
	.st57{fill:none;stroke:#820F1D;stroke-width:2;stroke-miterlimit:10;}
	.st58{fill:#D84456;}
	.st59{fill:url(#SVGID_00000116914561676707463740000012063593763591379080_);stroke:#820F1D;stroke-miterlimit:10;}
	.st60{fill:url(#SVGID_00000177449112081063820750000013803740307349531567_);stroke:#820F1D;stroke-miterlimit:10;}
	.st61{fill:url(#SVGID_00000140719947569397462350000017544545899192951993_);stroke:#006938;stroke-width:2;stroke-miterlimit:10;}
	.st62{opacity:0.4;fill:url(#SVGID_00000155849354089630580070000016204055186379335577_);enable-background:new    ;}
	.st63{fill:#603A17;stroke:#3B2416;stroke-miterlimit:10;}
	.st64{fill:#845834;stroke:#3B2416;stroke-miterlimit:10;}
	.st65{fill:#066938;}
	.st66{opacity:0.4;fill:url(#SVGID_00000097462959245732232990000011193563254545564820_);enable-background:new    ;}
	.st67{fill:#FCDA46;stroke:#F69220;stroke-width:2;stroke-miterlimit:10;}
	.st68{fill:#F59121;}
	.st69{fill:none;stroke:#F59121;stroke-linejoin:round;stroke-miterlimit:10;}
	.st70{fill:url(#SVGID_00000049180408322850629140000002026211584356237998_);}
	.st71{fill:url(#SVGID_00000128456055112352481120000002457918274068488583_);}
	.st72{fill:#3B2416;stroke:#231F20;stroke-miterlimit:10;}
	.st73{fill:#6D4832;stroke:#231F20;stroke-linejoin:round;stroke-miterlimit:10;}
	.st74{opacity:0.4;fill:#F69220;enable-background:new    ;}
	.st75{fill:url(#SVGID_00000022549578579144874120000002709831312761467563_);}
	.st76{fill:#C9E7F8;stroke:#58A9CD;stroke-width:2;stroke-linejoin:round;stroke-miterlimit:10;}
	.st77{opacity:0.3;fill:#58A9CD;enable-background:new    ;}
	.st78{fill:#EEFAFF;stroke:#58A9CD;stroke-width:2;stroke-miterlimit:10;}
	.st79{fill:#E26927;}
	.st80{fill:none;stroke:#C94628;stroke-miterlimit:10;}
	.st81{opacity:0.6;fill:#C94628;enable-background:new    ;}
	.st82{fill:#C94628;}
	.st83{fill:#EA7542;stroke:#C94628;stroke-miterlimit:10;}
	.st84{fill:url(#SVGID_00000116226843469568873720000008202259847172540059_);}
	.st85{fill:url(#SVGID_00000019671752823424825580000004831585996995416999_);}
	.st86{fill:url(#SVGID_00000067921065432626153920000015238947233042916522_);}
	.st87{fill:url(#SVGID_00000088115755902833303450000003866063910951800500_);}
	.st88{fill:#7F3F97;stroke:#572270;stroke-width:2;stroke-linejoin:round;stroke-miterlimit:10;}
	.st89{fill:url(#SVGID_00000180344067983491817510000008185182673960644002_);}
	.st90{fill:url(#SVGID_00000010296501418079561450000016834920486358303384_);}
	.st91{opacity:0.7;}
	.st92{fill:url(#SVGID_00000044146488848979726810000015269020682047806390_);}
	.st93{fill:url(#SVGID_00000094617172404386821200000005461286792341334946_);}
	.st94{fill:url(#SVGID_00000093154630098381533710000011948787678021011594_);}
	.st95{fill:#A168BC;stroke:#572270;stroke-width:2;stroke-linejoin:round;stroke-miterlimit:10;}
	.st96{fill:url(#SVGID_00000005241342668303440960000004327545532129875088_);stroke:#2B2B2B;stroke-width:2;stroke-miterlimit:10;}
	.st97{fill:url(#SVGID_00000159450502005011520600000007610855982177496742_);}
</style>
<g>
	<g class="st0">
		<path d="M297,137.5c-0.2-28.2-9.4-57.4-24.6-77.6c-1.5-3-3.9-7.8-6.1-11.1c0.4-2.1-1.4-4.4-3-3.8c-0.5-0.5-1-0.9-1.5-1.1
			c-0.3-0.6-0.5-1.2-0.8-1.6c-0.3-0.8-1.2-1.8-1.7-2.3c-0.6-2.1-1.6-4.3-3.2-5.2V4.1c0-1-0.3-2-0.8-2.7V1H255c-0.6-0.6-1.3-1-2.1-1
			H80.5c-0.8,0-1.5,0.4-2.1,1h-0.3v0.4c-0.5,0.7-0.8,1.7-0.8,2.7v31.8c-0.9,1.1-1.5,2.6-1.9,4.1c-0.6,0.8-1.1,1.6-1.7,2.3
			c-0.3,0.5-0.5,1.1-0.8,1.6c-0.5,0.2-1,0.6-1.5,1.1c-1.6-0.6-3.4,1.7-3,3.8c-2.1,3.3-4.6,8.1-6.1,11.1c-21.1,28-30,71.5-21.2,109.2
			c-0.1,0.2-0.1,0.5-0.2,0.7l0.3,0.1c1.6,6.7,3.8,12.9,6.6,18.4c0,0.1,0,0.2,0,0.4l0.2,0c1.3,2.5,2.7,4.8,4.2,6.9
			c2.2,15.8,17.5,27.5,25.1,30.9c5.6,10.9,14,16.3,25,16.3c2.6,6.6,5.9,12.7,9.6,18.2c3.2,33.8,18.9,33.9,39,40.7l-0.4,0l0.3,7.2
			l2.1-0.1c-7.5,12.1-12.3,20.1-8.9,37.4c-2.6,7.7-2.1,13.9,1.5,18.6c1.8,7.1,6.5,5.2,4.6-1.7c0.5-1.5,0.5-3,0.2-4.5
			c1.5,4.4,4.4-0.1,5.6-1.8c1.9-0.4,3.5-1.7,4.8-3.7c-0.1,1.7-0.3,3.6,0.8,4.9c-0.7,8.2,4.1,8.4,4.7,0.2c1.8-3.7,2.5-7.8,2-12.4
			c3.9,9.3-3.3,21-0.9,28.5c-4.1,7.1,0.7,9.6,4.6,2.2c2.2-1.4,3.6-3.7,4.4-6.9c0.4,0.2,0.7,0.3,1.1,0.3c2.4,0,2.9-4.9,3.2-7
			c3.1-1.9,2.4-9.3,2.9-12.6c0.1,0.3,0.2,0.6,0.4,0.8c-2.6,6.6,3.1,7.6,4.9,0.7c1.3-1.3,2.1-3.1,2.3-5.3c0.6,2.2,1.7,3.7,3.3,4.6
			c2.5,5.7,6.9,3.5,4-3.4c0-2.2-0.7-4.1-1.8-5.7c0.9-0.4,1.6-1.2,1.9-2.4c1.1,9.8,6.5-7.8,6.4-6.8c13.5-11.5-16.3-22.9-21.7-25.9
			l0.4,0l-0.3-6.7c13.8,0,34.8-16.7,37.1-36.1c4.7-6.4,8.7-13.6,11.8-21.4c11,0.1,19.3-5.3,25-16.2c7.6-3.4,23-15.1,25.2-30.9
			c1.5-2.1,2.9-4.4,4.2-6.9l0.2,0c0-0.1,0-0.2,0-0.4c2.8-5.4,5-11.7,6.6-18.4l0.3-0.1c0-0.2-0.1-0.5-0.2-0.7
			C296,159,297.1,148,297,137.5C297,131.9,297.1,148,297,137.5z M165.4,324.4c-0.4-1.5-0.6-3-0.7-4.6c0.3,1.3,0.6,2.5,1,3.7
			C165.6,323.9,165.5,324.2,165.4,324.4C165.1,323.3,165.4,324.4,165.4,324.4z M159,331.5c-0.7-1.4-1.1-2.9-1.2-4.5
			c0.1-0.3,0.3-0.6,0.4-0.9C158.9,328,159.5,329.7,159,331.5C158.4,330.1,159.5,329.7,159,331.5z M151.1,324.5
			c-0.4,0.8-0.8,1.6-1.1,2.4c0.3-1.1,0.7-2.2,1.2-3.2C151.1,323.9,151.1,324.2,151.1,324.5C150.7,325.3,151.1,324.2,151.1,324.5z
			 M153.7,336.1c0.3,0.7,0.6,1.4,0.9,2.1c-0.2,0.2-0.4,0.4-0.5,0.7l-0.6,0.7c-0.5,0.6-1,1.1-1.5,1.7
			C152.5,339.5,153.1,337.8,153.7,336.1C153.9,336.5,153.1,337.8,153.7,336.1z M189.9,330.2c-0.9-1.5-1.9-3-2.8-4.6
			c1.6,1.8,2.9,3.8,3.7,6C190.5,331.2,190.2,330.7,189.9,330.2C189,328.7,190.2,330.7,189.9,330.2z M80.5,162.7
			c-0.7,1.1-1.3,2.5-2,4.1c-5,1.2-9.7,3.2-14.3,5.9c-16.1-28.7-5.1-72.1,10-96.2c1.2-0.8,2.3-1.9,3.1-3.4v64.2c0,1,0.3,2,0.8,2.7
			v0.4h0.3c0.6,0.6,1.3,1,2.1,1h22.2c-0.1,0.9-0.2,1.7-0.3,2.6C94.4,148.4,86.9,154.4,80.5,162.7L80.5,162.7z M232.3,144.1
			c-0.1-0.9-0.2-1.8-0.3-2.6h21c0.8,0,1.5-0.4,2.1-1h0.3V140c0.5-0.7,0.8-1.7,0.8-2.7V69.5l0.2,0.9c0.7,2.7,2.2,4.8,4.1,6.1
			c15.1,24.1,26.1,67.5,10,96.2c-4.6-2.7-9.4-4.7-14.3-5.9c-0.6-1.6-1.3-2.9-1.9-4l-0.1-0.1C247.9,154.4,240.4,148.4,232.3,144.1
			C232.2,143.2,240.4,148.4,232.3,144.1z M150.2,352.6c0.9-0.1,1.7-0.6,2.5-1.2c-0.3,0.5-0.5,1.1-0.5,1.6c-0.9,1.1-1.5,2.3-2,3.8
			C150.1,355.4,150.1,354,150.2,352.6C151,352.5,150.1,354,150.2,352.6z M184.4,341.6c0.3,1.6,0.2,3.3-0.2,5
			C184.3,345,184.4,343.3,184.4,341.6z M198.6,337.8c0-7.9-3.2-14.6-10.1-20.9c29.1,9.3,2.6,5.6,11.6,15.5c-0.2,1.5-0.7,3.1-1.2,4.6
			l-0.2,0.5C198.7,337.6,198.7,337.7,198.6,337.8C198.7,329.9,198.7,337.7,198.6,337.8z"/>
	</g>
	<g>
		<g>
			<g>
				
					<linearGradient id="SVGID_1_" gradientUnits="userSpaceOnUse" x1="39.3499" y1="327.8891" x2="43.8421" y2="325.6149" gradientTransform="matrix(1 0 0 -1 0 382)">
					<stop  offset="9.010001e-02" style="stop-color:#505050"/>
					<stop  offset="0.3154" style="stop-color:#8F929F"/>
					<stop  offset="0.5917" style="stop-color:#BEBEBE"/>
					<stop  offset="0.8163" style="stop-color:#8F929F"/>
					<stop  offset="1" style="stop-color:#505050"/>
				</linearGradient>
				<circle class="st1" cx="41.6" cy="55.2" r="2.5"/>
				
					<linearGradient id="SVGID_00000124839957563329708600000009561333092296654236_" gradientUnits="userSpaceOnUse" x1="52.3146" y1="310.3353" x2="30.8136" y2="320.8358" gradientTransform="matrix(1 0 0 -1 0 382)">
					<stop  offset="9.010001e-02" style="stop-color:#505050"/>
					<stop  offset="0.3154" style="stop-color:#8F929F"/>
					<stop  offset="0.5917" style="stop-color:#BEBEBE"/>
					<stop  offset="0.8163" style="stop-color:#8F929F"/>
					<stop  offset="1" style="stop-color:#505050"/>
				</linearGradient>
				
					<path style="fill:url(#SVGID_00000124839957563329708600000009561333092296654236_);stroke:#2B2B2B;stroke-width:2;stroke-miterlimit:10;" d="
					M50.4,76.6c-1.7,5-7.5,7.6-13.1,5.8c-5.5-1.8-8.7-7.4-7.1-12.4c0,0,7.2-11.8,11.3-15.5c2.5-2.3,4.2-2.9,5.8-2.3
					c5.5,1.9,10.5,2.1,8.8,7.1L50.4,76.6z"/>
				<g>
					
						<linearGradient id="SVGID_00000044891710575393659620000015680076593803638459_" gradientUnits="userSpaceOnUse" x1="81.0137" y1="587.8823" x2="87.0424" y2="587.8823" gradientTransform="matrix(0.8922 0.4517 0.4517 -0.8922 -291.3983 537.765)">
						<stop  offset="9.010001e-02" style="stop-color:#505050"/>
						<stop  offset="0.3154" style="stop-color:#8F929F"/>
						<stop  offset="0.5917" style="stop-color:#BEBEBE"/>
						<stop  offset="0.8163" style="stop-color:#8F929F"/>
						<stop  offset="1" style="stop-color:#505050"/>
					</linearGradient>
					
						<path style="fill:url(#SVGID_00000044891710575393659620000015680076593803638459_);stroke:#2B2B2B;stroke-width:2;stroke-miterlimit:10;" d="
						M50.5,54.7c0.2-0.3,1.6-1.4,1.8-4.9c0.2-3.4-3.2-2.1-3.2-2.1s-3.4,1.5-3.7,4.9C45.2,56,50.5,54.7,50.5,54.7z"/>
					
						<linearGradient id="SVGID_00000132086250585361397910000011216236897728452009_" gradientUnits="userSpaceOnUse" x1="81.4091" y1="592.6407" x2="87.1394" y2="592.6407" gradientTransform="matrix(0.8922 0.4517 0.4517 -0.8922 -291.3983 537.765)">
						<stop  offset="9.010001e-02" style="stop-color:#505050"/>
						<stop  offset="0.3154" style="stop-color:#8F929F"/>
						<stop  offset="0.5917" style="stop-color:#BEBEBE"/>
						<stop  offset="0.8163" style="stop-color:#8F929F"/>
						<stop  offset="1" style="stop-color:#505050"/>
					</linearGradient>
					<path style="fill:url(#SVGID_00000132086250585361397910000011216236897728452009_);stroke:#2B2B2B;stroke-miterlimit:10;" d="
						M53.4,42.9c1.7,0.9,0.5,5.6-0.4,7.4c-1.2,2.4-6.4,0.9-5.1-2.6C49.4,44.3,51.7,42.1,53.4,42.9z"/>
					
						<linearGradient id="SVGID_00000038377352655097321990000003468060611904845241_" gradientUnits="userSpaceOnUse" x1="80.3078" y1="582.679" x2="87.833" y2="582.679" gradientTransform="matrix(0.8922 0.4517 0.4517 -0.8922 -291.3983 537.765)">
						<stop  offset="9.010001e-02" style="stop-color:#505050"/>
						<stop  offset="0.3154" style="stop-color:#8F929F"/>
						<stop  offset="0.5917" style="stop-color:#BEBEBE"/>
						<stop  offset="0.8163" style="stop-color:#8F929F"/>
						<stop  offset="1" style="stop-color:#505050"/>
					</linearGradient>
					<path style="fill:url(#SVGID_00000038377352655097321990000003468060611904845241_);stroke:#2B2B2B;stroke-miterlimit:10;" d="
						M46.5,49.7c0.7,0.4,0.6,2,2.2,2.9s2,0.6,3.3-0.1s-3.3,10.5-7.5,8.4C40.6,58.8,45.4,49.1,46.5,49.7z"/>
				</g>
				<g>
					<path class="st6" d="M37.2,62.4c0,0,0.3,0,0.8,0.1c0.5,0.1,1.2,0.2,2,0.4c0.8,0.2,1.7,0.6,2.7,1c1,0.4,1.9,1,2.8,1.7
						c0.4,0.4,0.9,0.7,1.3,1.1c0.4,0.4,0.8,0.8,1.1,1.2c0.3,0.4,0.6,0.8,0.9,1.3c0.2,0.4,0.5,0.8,0.6,1.2c0.2,0.4,0.3,0.8,0.4,1.1
						c0.1,0.3,0.1,0.6,0.2,0.9c0.1,0.5,0.1,0.7,0.1,0.7s-0.1-0.3-0.3-0.7c-0.1-0.2-0.2-0.5-0.3-0.8c-0.2-0.3-0.4-0.6-0.6-0.9
						c-0.2-0.4-0.5-0.7-0.7-1.1c-0.2-0.4-0.6-0.7-0.9-1.1c-0.3-0.4-0.7-0.7-1.1-1.1c-0.4-0.4-0.8-0.7-1.2-1
						c-0.4-0.3-0.9-0.6-1.3-0.9c-0.5-0.3-0.9-0.6-1.3-0.8c-0.9-0.5-1.7-0.9-2.4-1.3c-0.7-0.3-1.4-0.6-1.8-0.8
						C37.5,62.5,37.2,62.4,37.2,62.4z"/>
				</g>
				<path class="st7" d="M57,55.6c-0.8-1.4-2.3-2.2-4.3-2.9c0.2-0.5,0.3-1.1,0.4-1.7c0.2-0.2,0.3-0.3,0.4-0.5c0.9-1.8,2.3-6.9,0.2-8
					c-0.3-0.2-0.7-0.2-1-0.2c-1.8,0-3.8,2.1-5.1,5.3c-0.7,0.5-1.5,1.2-2.2,2.3c-0.3,0.4-0.7,0.9-1,1.5c0.9,1.6,2.5,2.6,2.9,5.3
					c1,7.5,0.9,18.8-1.7,26.5c2.8-1.2,4.9-3.3,5.8-6.1l5.7-17.3C57.6,58,57.6,56.7,57,55.6z"/>
			</g>
			<g>
				
					<radialGradient id="SVGID_00000019675909231413525200000009302542868753121210_" cx="93.5703" cy="240.8809" r="119.0779" gradientTransform="matrix(1 0 0 -1 0 382)" gradientUnits="userSpaceOnUse">
					<stop  offset="0.6207" style="stop-color:#505050"/>
					<stop  offset="0.6623" style="stop-color:#8F929F"/>
					<stop  offset="0.7091" style="stop-color:#BEBEBE"/>
					<stop  offset="0.7704" style="stop-color:#8F929F"/>
					<stop  offset="0.9688" style="stop-color:#505050"/>
				</radialGradient>
				
					<path style="fill:url(#SVGID_00000019675909231413525200000009302542868753121210_);stroke:#2B2B2B;stroke-width:2;stroke-miterlimit:10;" d="
					M24.6,201.7C3.3,186.4-1.8,150.2,2.3,126.4c3.8-22.3,15.1-45.4,31.5-61c3.8-4.1,20,6.4,12.3,15.7
					c-10.3,12.3-17.6,27.3-21.2,42.8c-3.8,16.6-1.8,47.4,13.7,58.3C33.9,188.7,29.3,195.2,24.6,201.7z"/>
				<path class="st7" d="M26.1,164.6c-6.3,0-21.5,8.5-16.6,15.9c3.6,8,8.5,15,14.9,19.8l12.8-17.9C31.1,177.8,28.2,171.5,26.1,164.6
					z"/>
				<g>
					<path class="st9" d="M4.6,173.1c2.9-10.7,13.3-17.7,20.9-11.4"/>
					<path class="st9" d="M1.6,155.5c4.4-11.7,15.6-13,21.6-6.2"/>
					<path class="st9" d="M1.6,132.3c6.1-4.3,17.5-4.3,21.8,1.9"/>
					<path class="st9" d="M5.2,112.6c6.8-0.3,20.1,0.7,21,6.4"/>
					<path class="st9" d="M12.3,95.4c7.1-0.1,14.7,2.3,20.3,6.3"/>
					<path class="st9" d="M22.2,78.6c7,1.3,14.1,4.5,18.5,9.5"/>
					<path class="st9" d="M13.4,191.1c-1.2-8.9,8.5-21.4,17.6-17"/>
				</g>
				<g>
					<path class="st10" d="M5,172.5c0-9.8,12.6-17.6,20.4-11.3"/>
					<path class="st10" d="M2,154.9c3-11.7,15.3-12.5,21.4-6"/>
					<path class="st10" d="M1.6,132.2c5.3-5.1,18.7-4.2,21.8,2"/>
					<path class="st10" d="M5.2,112.6c7.1-1.3,18.4-0.1,21.4,5.8"/>
					<path class="st10" d="M12.7,94.8c7.1-0.1,14.8,2.3,20.3,6.3"/>
					<path class="st10" d="M22.6,78c7,1.3,14.1,4.5,18.5,9.5"/>
					<path class="st10" d="M13.8,190.5c-2.7-10.5,9.1-20.6,17.1-16.8"/>
				</g>
				<path class="st11" d="M24.6,201.9C3.3,186.6-1.8,150.4,2.3,126.6c3.8-22.3,15.1-45.4,31.5-61c3.8-4.1,20,6.4,12.3,15.7
					C35.8,93.6,28.4,108.5,24.8,124c-3.8,16.6-1.8,47.4,13.7,58.3C33.9,188.9,29.3,195.4,24.6,201.9z"/>
			</g>
			<g>
				
					<linearGradient id="SVGID_00000168802115501163943900000018136395105660544958_" gradientUnits="userSpaceOnUse" x1="19.7788" y1="315.9326" x2="44.7788" y2="303.4326" gradientTransform="matrix(1 0 0 -1 0 382)">
					<stop  offset="0" style="stop-color:#FFFFFF"/>
					<stop  offset="0.8823" style="stop-color:#FFFFFF;stop-opacity:0"/>
				</linearGradient>
				<path style="fill:url(#SVGID_00000168802115501163943900000018136395105660544958_);" d="M27.4,77.2c0,0,5.9-8.5,8.2-9.4
					c2.3-0.9,9.8,2.5,9.9,9.8c-0.5,3.7-4.8,6.4-4.8,6.4S34.8,78.6,27.4,77.2z"/>
				
					<linearGradient id="SVGID_00000174580745719811749180000000353123745429853116_" gradientUnits="userSpaceOnUse" x1="11.6999" y1="299.7713" x2="36.6984" y2="287.272" gradientTransform="matrix(1 0 0 -1 0 382)">
					<stop  offset="0" style="stop-color:#FFFFFF"/>
					<stop  offset="0.8823" style="stop-color:#FFFFFF;stop-opacity:0"/>
				</linearGradient>
				<path style="fill:url(#SVGID_00000174580745719811749180000000353123745429853116_);" d="M15.9,92.7c0,0,6.5-10.4,7.5-11.2
					c1-0.8,12.6,3.1,13.9,6.7c-1.7,3.1-5.7,10-5.7,10S27.7,93.5,15.9,92.7z"/>
				
					<linearGradient id="SVGID_00000013186069853344322520000006237098531890334115_" gradientUnits="userSpaceOnUse" x1="-42.0305" y1="232.6997" x2="-17.032" y2="220.2004" gradientTransform="matrix(1.011 -0.1495 -0.1599 -1.0812 81.7723 345.0316)">
					<stop  offset="0" style="stop-color:#FFFFFF"/>
					<stop  offset="0.8823" style="stop-color:#FFFFFF;stop-opacity:0"/>
				</linearGradient>
				<path style="fill:url(#SVGID_00000013186069853344322520000006237098531890334115_);" d="M8.4,110.6c0,0,4.9-12.3,5.8-13.2
					c0.8-1,13.3,1.5,15.1,5.1c-1.2,3.6-4.2,11.7-4.2,11.7S20.5,109.6,8.4,110.6z"/>
				
					<linearGradient id="SVGID_00000086667201769373114620000005295208667656739510_" gradientUnits="userSpaceOnUse" x1="-123.9451" y1="123.0446" x2="-98.9451" y2="110.5446" gradientTransform="matrix(0.949 -0.3793 -0.4056 -1.0149 163.6243 197.8946)">
					<stop  offset="0" style="stop-color:#FFFFFF"/>
					<stop  offset="0.8823" style="stop-color:#FFFFFF;stop-opacity:0"/>
				</linearGradient>
				<path style="fill:url(#SVGID_00000086667201769373114620000005295208667656739510_);" d="M4,128.4c0,0,2.4-12.5,3-13.6
					c0.6-1.2,13.7-0.5,15.9,3.4c-0.3,3.7-1.8,11.5-1.8,11.5S15.5,124.7,4,128.4z"/>
				
					<linearGradient id="SVGID_00000049223400996099721710000006263017467260561585_" gradientUnits="userSpaceOnUse" x1="-200.1031" y1="51.1141" x2="-175.1005" y2="38.6128" gradientTransform="matrix(0.8708 -0.5349 -0.5721 -0.9313 198.5597 80.6412)">
					<stop  offset="0" style="stop-color:#FFFFFF"/>
					<stop  offset="0.8823" style="stop-color:#FFFFFF;stop-opacity:0"/>
				</linearGradient>
				<path style="fill:url(#SVGID_00000049223400996099721710000006263017467260561585_);" d="M3.2,147.8c0,0-0.6-13.6,0.2-14.6
					c3-3.7,14.9-2.8,17.6,0.6c0.3,3.7,0.2,11.6,0.2,11.6S13.8,137.7,3.2,147.8z"/>
				
					<linearGradient id="SVGID_00000155830694614790233410000009323476932730032005_" gradientUnits="userSpaceOnUse" x1="-370.1899" y1="-41.0166" x2="-345.1912" y2="-53.516" gradientTransform="matrix(0.6423 -0.7949 -0.8502 -0.6869 200.7811 -161.71)">
					<stop  offset="0" style="stop-color:#FFFFFF"/>
					<stop  offset="0.8823" style="stop-color:#FFFFFF;stop-opacity:0"/>
				</linearGradient>
				<path style="fill:url(#SVGID_00000155830694614790233410000009323476932730032005_);" d="M5.4,165.3c0,0-1.7-9.1-1.4-10.4
					c1.6-6.7,9.4-10.4,16.5-6c0.8,3.9,2.2,8.9,2.2,8.9S12.1,154.9,5.4,165.3z"/>
				
					<linearGradient id="SVGID_00000110465801073337998260000005584776703075175870_" gradientUnits="userSpaceOnUse" x1="-375.2499" y1="-51.1344" x2="-350.25" y2="-63.6344" gradientTransform="matrix(0.6423 -0.7949 -0.8502 -0.6869 200.7811 -161.71)">
					<stop  offset="0" style="stop-color:#FFFFFF"/>
					<stop  offset="0.8823" style="stop-color:#FFFFFF;stop-opacity:0"/>
				</linearGradient>
				<path style="fill:url(#SVGID_00000110465801073337998260000005584776703075175870_);" d="M8,174.9l-1.3-4
					c1.3-4.4,9-13.8,17.1-8.9l0.6,1.8C24.3,163.8,14.8,164.5,8,174.9z"/>
			</g>
		</g>
		<g>
			<g>
				<g>
					
						<linearGradient id="SVGID_00000156572254700196121580000002510364368403295139_" gradientUnits="userSpaceOnUse" x1="-666.9885" y1="327.8891" x2="-662.4963" y2="325.6149" gradientTransform="matrix(-1 0 0 -1 -378.6904 382)">
						<stop  offset="9.010001e-02" style="stop-color:#505050"/>
						<stop  offset="0.3154" style="stop-color:#8F929F"/>
						<stop  offset="0.5917" style="stop-color:#BEBEBE"/>
						<stop  offset="0.8163" style="stop-color:#8F929F"/>
						<stop  offset="1" style="stop-color:#505050"/>
					</linearGradient>
					
						<circle style="fill:url(#SVGID_00000156572254700196121580000002510364368403295139_);stroke:#2B2B2B;stroke-miterlimit:10;" cx="286.1" cy="55.2" r="2.5"/>
					
						<linearGradient id="SVGID_00000028317152388684804670000014954480151266871720_" gradientUnits="userSpaceOnUse" x1="-654.0249" y1="310.3354" x2="-675.5249" y2="320.8355" gradientTransform="matrix(-1 0 0 -1 -378.6904 382)">
						<stop  offset="9.010001e-02" style="stop-color:#505050"/>
						<stop  offset="0.3154" style="stop-color:#8F929F"/>
						<stop  offset="0.5917" style="stop-color:#BEBEBE"/>
						<stop  offset="0.8163" style="stop-color:#8F929F"/>
						<stop  offset="1" style="stop-color:#505050"/>
					</linearGradient>
					
						<path style="fill:url(#SVGID_00000028317152388684804670000014954480151266871720_);stroke:#2B2B2B;stroke-width:2;stroke-miterlimit:10;" d="
						M277.2,76.6c1.7,5,7.5,7.6,13.1,5.8c5.5-1.8,8.7-7.4,7.1-12.4c0,0-7.2-11.8-11.3-15.5c-2.5-2.3-4.2-2.9-5.8-2.3
						c-5.5,1.9-10.5,2.1-8.8,7.1L277.2,76.6z"/>
					<g>
						
							<linearGradient id="SVGID_00000086687602603112799600000009448632662891699383_" gradientUnits="userSpaceOnUse" x1="-549.1472" y1="268.8463" x2="-543.1185" y2="268.8463" gradientTransform="matrix(-0.8922 0.4517 -0.4517 -0.8922 -87.2926 537.765)">
							<stop  offset="9.010001e-02" style="stop-color:#505050"/>
							<stop  offset="0.3154" style="stop-color:#8F929F"/>
							<stop  offset="0.5917" style="stop-color:#BEBEBE"/>
							<stop  offset="0.8163" style="stop-color:#8F929F"/>
							<stop  offset="1" style="stop-color:#505050"/>
						</linearGradient>
						
							<path style="fill:url(#SVGID_00000086687602603112799600000009448632662891699383_);stroke:#2B2B2B;stroke-width:2;stroke-miterlimit:10;" d="
							M277.2,54.7c-0.2-0.3-1.6-1.4-1.8-4.9s3.2-2.1,3.2-2.1s3.4,1.5,3.7,4.9C282.4,56,277.2,54.7,277.2,54.7z"/>
						
							<linearGradient id="SVGID_00000080914113495184816790000015214452313982794377_" gradientUnits="userSpaceOnUse" x1="-548.7528" y1="273.6046" x2="-543.0223" y2="273.6046" gradientTransform="matrix(-0.8922 0.4517 -0.4517 -0.8922 -87.2926 537.765)">
							<stop  offset="9.010001e-02" style="stop-color:#505050"/>
							<stop  offset="0.3154" style="stop-color:#8F929F"/>
							<stop  offset="0.5917" style="stop-color:#BEBEBE"/>
							<stop  offset="0.8163" style="stop-color:#8F929F"/>
							<stop  offset="1" style="stop-color:#505050"/>
						</linearGradient>
						
							<path style="fill:url(#SVGID_00000080914113495184816790000015214452313982794377_);stroke:#2B2B2B;stroke-miterlimit:10;" d="
							M274.2,42.9c-1.7,0.9-0.5,5.6,0.4,7.4c1.2,2.4,6.4,0.9,5.1-2.6C278.3,44.3,275.9,42.1,274.2,42.9z"/>
						
							<linearGradient id="SVGID_00000121241586839655868960000011410393664510325907_" gradientUnits="userSpaceOnUse" x1="-549.8539" y1="263.6436" x2="-542.327" y2="263.6436" gradientTransform="matrix(-0.8922 0.4517 -0.4517 -0.8922 -87.2926 537.765)">
							<stop  offset="9.010001e-02" style="stop-color:#505050"/>
							<stop  offset="0.3154" style="stop-color:#8F929F"/>
							<stop  offset="0.5917" style="stop-color:#BEBEBE"/>
							<stop  offset="0.8163" style="stop-color:#8F929F"/>
							<stop  offset="1" style="stop-color:#505050"/>
						</linearGradient>
						
							<path style="fill:url(#SVGID_00000121241586839655868960000011410393664510325907_);stroke:#2B2B2B;stroke-miterlimit:10;" d="
							M281.1,49.7c-0.7,0.4-0.6,2-2.2,2.9s-2,0.6-3.3-0.1s3.3,10.5,7.5,8.4C287.1,58.8,282.3,49.1,281.1,49.7z"/>
					</g>
					<g>
						<path class="st6" d="M290.4,62.4c0,0-0.3,0.1-0.7,0.3c-0.4,0.2-1.1,0.5-1.8,0.8c-0.7,0.4-1.6,0.8-2.4,1.3
							c-0.4,0.2-0.9,0.5-1.3,0.8c-0.4,0.3-0.9,0.6-1.3,0.9c-0.4,0.3-0.8,0.6-1.2,1c-0.4,0.4-0.8,0.7-1.1,1.1
							c-0.3,0.4-0.7,0.7-0.9,1.1c-0.3,0.4-0.6,0.7-0.7,1.1c-0.2,0.3-0.4,0.7-0.6,0.9c-0.1,0.3-0.2,0.6-0.3,0.8
							c-0.2,0.4-0.3,0.7-0.3,0.7s0-0.3,0.1-0.7c0.1-0.2,0.1-0.5,0.2-0.9c0.1-0.3,0.2-0.7,0.4-1.1c0.1-0.4,0.4-0.8,0.6-1.2
							c0.2-0.4,0.5-0.8,0.9-1.3c0.3-0.4,0.7-0.8,1.1-1.2c0.4-0.4,0.8-0.7,1.3-1.1c0.9-0.7,1.9-1.3,2.8-1.7c0.9-0.5,1.9-0.8,2.7-1
							c0.8-0.2,1.5-0.4,2-0.4C290.1,62.4,290.4,62.4,290.4,62.4z"/>
					</g>
					<path class="st7" d="M270.6,55.6c0.8-1.4,2.3-2.2,4.3-2.9c-0.2-0.5-0.3-1.1-0.4-1.7c-0.2-0.2-0.3-0.3-0.4-0.5
						c-0.9-1.8-2.3-6.9-0.2-8c0.3-0.2,0.7-0.2,1-0.2c1.8,0,3.8,2.1,5.1,5.3c0.7,0.5,1.5,1.2,2.2,2.3c0.3,0.4,0.7,0.9,1,1.5
						c-0.9,1.6-2.5,2.6-2.9,5.3c-1,7.5-0.9,18.8,1.7,26.5c-2.8-1.2-4.9-3.3-5.8-6.1l-5.7-17.3C270,58,270.1,56.7,270.6,55.6z"/>
				</g>
				<g>
					
						<radialGradient id="SVGID_00000021804024599686795230000011133490268145594285_" cx="-612.7671" cy="240.8809" r="119.0788" gradientTransform="matrix(-1 0 0 -1 -378.6904 382)" gradientUnits="userSpaceOnUse">
						<stop  offset="0.6207" style="stop-color:#505050"/>
						<stop  offset="0.6623" style="stop-color:#8F929F"/>
						<stop  offset="0.7091" style="stop-color:#BEBEBE"/>
						<stop  offset="0.7704" style="stop-color:#8F929F"/>
						<stop  offset="0.9688" style="stop-color:#505050"/>
					</radialGradient>
					
						<path style="fill:url(#SVGID_00000021804024599686795230000011133490268145594285_);stroke:#2B2B2B;stroke-width:2;stroke-miterlimit:10;" d="
						M303.1,201.7c21.3-15.3,26.4-51.5,22.3-75.3c-3.8-22.3-15.1-45.4-31.5-61c-3.8-4.1-20,6.4-12.3,15.7
						c10.3,12.3,17.6,27.3,21.2,42.8c3.8,16.6,1.8,47.4-13.7,58.3C293.7,188.7,298.4,195.2,303.1,201.7z"/>
					<path class="st7" d="M301.5,164.6c6.3,0,21.6,8.5,16.6,15.9c-3.6,8-8.5,15-14.9,19.8l-12.8-17.9
						C296.5,177.8,299.4,171.5,301.5,164.6z"/>
					<g>
						<path class="st9" d="M323.1,173.1c-2.9-10.7-13.3-17.7-20.9-11.4"/>
						<path class="st9" d="M326.1,155.5c-4.4-11.7-15.6-13-21.6-6.2"/>
						<path class="st9" d="M326,132.3c-6.1-4.3-17.5-4.3-21.8,1.9"/>
						<path class="st9" d="M322.4,112.6c-6.8-0.3-20.1,0.7-21,6.4"/>
						<path class="st9" d="M315.4,95.4c-7.1-0.1-14.8,2.3-20.3,6.3"/>
						<path class="st9" d="M305.5,78.6c-7,1.3-14.1,4.5-18.5,9.5"/>
						<path class="st9" d="M314.3,191.1c1.2-8.9-8.5-21.4-17.6-17"/>
					</g>
					<g>
						<path class="st10" d="M322.7,172.5c0-9.8-12.6-17.6-20.4-11.3"/>
						<path class="st10" d="M325.7,154.9c-3-11.7-15.3-12.5-21.4-6"/>
						<path class="st10" d="M326,132.2c-5.3-5.1-18.7-4.2-21.8,2"/>
						<path class="st10" d="M322.4,112.6c-7.1-1.3-18.4-0.1-21.4,5.8"/>
						<path class="st10" d="M314.9,94.8c-7.1-0.1-14.8,2.3-20.3,6.3"/>
						<path class="st10" d="M305.1,78c-7,1.3-14.1,4.5-18.5,9.5"/>
						<path class="st10" d="M313.9,190.5c2.7-10.5-9.1-20.6-17.1-16.8"/>
					</g>
					<path class="st11" d="M303.1,201.9c21.3-15.3,26.4-51.5,22.3-75.3c-3.8-22.3-15.1-45.4-31.5-61c-3.8-4.1-20,6.4-12.3,15.7
						c10.3,12.3,17.6,27.3,21.2,42.8c3.8,16.6,1.8,47.4-13.7,58.3C293.7,188.9,298.4,195.4,303.1,201.9z"/>
				</g>
				<g>
					
						<linearGradient id="SVGID_00000042705270121067155990000014818704550159815604_" gradientUnits="userSpaceOnUse" x1="-686.5616" y1="315.9335" x2="-661.5602" y2="303.4328" gradientTransform="matrix(-1 0 0 -1 -378.6904 382)">
						<stop  offset="0" style="stop-color:#FFFFFF"/>
						<stop  offset="0.8823" style="stop-color:#FFFFFF;stop-opacity:0"/>
					</linearGradient>
					<path style="fill:url(#SVGID_00000042705270121067155990000014818704550159815604_);" d="M300.3,77.2c0,0-5.9-8.5-8.2-9.4
						c-2.3-0.9-9.8,2.5-9.9,9.8c0.5,3.7,4.8,6.4,4.8,6.4S292.8,78.6,300.3,77.2z"/>
					
						<linearGradient id="SVGID_00000111180073916324950620000008115181951695741613_" gradientUnits="userSpaceOnUse" x1="-694.6398" y1="299.772" x2="-669.6428" y2="287.2734" gradientTransform="matrix(-1 0 0 -1 -378.6904 382)">
						<stop  offset="0" style="stop-color:#FFFFFF"/>
						<stop  offset="0.8823" style="stop-color:#FFFFFF;stop-opacity:0"/>
					</linearGradient>
					<path style="fill:url(#SVGID_00000111180073916324950620000008115181951695741613_);" d="M311.7,92.7c0,0-6.5-10.4-7.5-11.2
						c-1-0.8-12.6,3.1-13.9,6.7c1.7,3.1,5.7,10,5.7,10S299.9,93.5,311.7,92.7z"/>
					
						<linearGradient id="SVGID_00000127747742711984156310000007841445893752549771_" gradientUnits="userSpaceOnUse" x1="-725.733" y1="327.2373" x2="-700.7331" y2="314.7373" gradientTransform="matrix(-1.011 -0.1495 0.1599 -1.0812 -460.4628 345.0316)">
						<stop  offset="0" style="stop-color:#FFFFFF"/>
						<stop  offset="0.8823" style="stop-color:#FFFFFF;stop-opacity:0"/>
					</linearGradient>
					<path style="fill:url(#SVGID_00000127747742711984156310000007841445893752549771_);" d="M319.2,110.6c0,0-4.9-12.3-5.8-13.2
						c-0.8-1-13.3,1.5-15.1,5.1c1.2,3.6,4.2,11.7,4.2,11.7S307.1,109.6,319.2,110.6z"/>
					
						<linearGradient id="SVGID_00000128447056896829693960000015309808009320659873_" gradientUnits="userSpaceOnUse" x1="-765.7285" y1="362.8992" x2="-740.7271" y2="350.3985" gradientTransform="matrix(-0.949 -0.3793 0.4056 -1.0149 -542.3147 197.8946)">
						<stop  offset="0" style="stop-color:#FFFFFF"/>
						<stop  offset="0.8823" style="stop-color:#FFFFFF;stop-opacity:0"/>
					</linearGradient>
					<path style="fill:url(#SVGID_00000128447056896829693960000015309808009320659873_);" d="M323.7,128.4c0,0-2.4-12.5-3-13.6
						c-0.6-1.2-13.7-0.5-15.9,3.4c0.3,3.7,1.8,11.5,1.8,11.5S312.1,124.7,323.7,128.4z"/>
					
						<linearGradient id="SVGID_00000122000820863578303440000016732089139577285037_" gradientUnits="userSpaceOnUse" x1="-789.0159" y1="389.3613" x2="-764.0146" y2="376.8607" gradientTransform="matrix(-0.8708 -0.5349 0.5721 -0.9313 -577.2502 80.6412)">
						<stop  offset="0" style="stop-color:#FFFFFF"/>
						<stop  offset="0.8823" style="stop-color:#FFFFFF;stop-opacity:0"/>
					</linearGradient>
					<path style="fill:url(#SVGID_00000122000820863578303440000016732089139577285037_);" d="M324.4,147.8c0,0,0.6-13.6-0.2-14.6
						c-3-3.7-14.9-2.8-17.6,0.6c-0.3,3.7-0.2,11.6-0.2,11.6S313.8,137.7,324.4,147.8z"/>
					
						<linearGradient id="SVGID_00000168086601932828051310000003946803792719500425_" gradientUnits="userSpaceOnUse" x1="-804.5454" y1="461.6318" x2="-779.5455" y2="449.1318" gradientTransform="matrix(-0.6423 -0.7949 0.8502 -0.6869 -579.4715 -161.71)">
						<stop  offset="0" style="stop-color:#FFFFFF"/>
						<stop  offset="0.8823" style="stop-color:#FFFFFF;stop-opacity:0"/>
					</linearGradient>
					<path style="fill:url(#SVGID_00000168086601932828051310000003946803792719500425_);" d="M322.3,165.3c0,0,1.7-9.1,1.4-10.4
						c-1.6-6.7-9.4-10.4-16.5-6c-0.8,3.9-2.2,8.9-2.2,8.9S315.5,154.9,322.3,165.3z"/>
					
						<linearGradient id="SVGID_00000059299650996048306030000000602843710337562774_" gradientUnits="userSpaceOnUse" x1="-809.605" y1="451.5136" x2="-784.605" y2="439.0136" gradientTransform="matrix(-0.6423 -0.7949 0.8502 -0.6869 -579.4715 -161.71)">
						<stop  offset="0" style="stop-color:#FFFFFF"/>
						<stop  offset="0.8823" style="stop-color:#FFFFFF;stop-opacity:0"/>
					</linearGradient>
					<path style="fill:url(#SVGID_00000059299650996048306030000000602843710337562774_);" d="M319.6,174.9l1.3-4
						c-1.3-4.4-9-13.8-17.1-8.9l-0.6,1.8C303.3,163.8,312.9,164.5,319.6,174.9z"/>
				</g>
			</g>
			<g>
				
					<linearGradient id="SVGID_00000097458556997643252130000015421253181384801198_" gradientUnits="userSpaceOnUse" x1="-668.0084" y1="212.7842" x2="-668.0084" y2="159.7639" gradientTransform="matrix(-1 0 0 -1 -378.6904 382)">
					<stop  offset="0.1856" style="stop-color:#8C8B90"/>
					<stop  offset="0.4012" style="stop-color:#D8D8D8"/>
					<stop  offset="0.5963" style="stop-color:#AFADB2"/>
					<stop  offset="1" style="stop-color:#4E4F52"/>
				</linearGradient>
				
					<path style="fill:url(#SVGID_00000097458556997643252130000015421253181384801198_);stroke:#2B2B2B;stroke-width:2;stroke-miterlimit:10;" d="
					M273.1,227.7c6,0,35.5-14,35.5-33.5S270.1,170,270.1,170L273.1,227.7z"/>
				<path class="st7" d="M271.1,171.1c2.1,0.3,6.6,1.1,11.9,2.6c8.1,20.9,6.5,36.9,3,47.8c-5,2.9-9.6,4.6-12,5.1L271.1,171.1z"/>
				<path class="st10" d="M271.3,194.2c0,0,21.2,2.7,37.2,0"/>
				<circle class="st33" cx="288.9" cy="189.7" r="3.2"/>
				<circle class="st33" cx="300.3" cy="190.2" r="2.7"/>
			</g>
		</g>
		<path class="st34" d="M163.5,202.9"/>
		<g>
			
				<linearGradient id="SVGID_00000108271997261308913750000006189624517355897476_" gradientUnits="userSpaceOnUse" x1="38.329" y1="212.7847" x2="38.329" y2="159.763" gradientTransform="matrix(1 0 0 -1 0 382)">
				<stop  offset="0.1856" style="stop-color:#8C8B90"/>
				<stop  offset="0.4012" style="stop-color:#D8D8D8"/>
				<stop  offset="0.5963" style="stop-color:#AFADB2"/>
				<stop  offset="1" style="stop-color:#4E4F52"/>
			</linearGradient>
			
				<path style="fill:url(#SVGID_00000108271997261308913750000006189624517355897476_);stroke:#2B2B2B;stroke-width:2;stroke-miterlimit:10;" d="
				M54.6,227.7c-6,0-35.5-14-35.5-33.5S57.6,170,57.6,170L54.6,227.7z"/>
			<path class="st7" d="M56.5,171.1c-2.1,0.3-6.7,1.1-11.9,2.6c-8.1,20.9-6.5,36.9-3,47.8c5,2.9,9.6,4.6,12,5.1L56.5,171.1z"/>
			<path class="st10" d="M56.3,194.2c0,0-21.2,2.7-37.2,0"/>
			<circle class="st33" cx="38.7" cy="189.7" r="3.2"/>
			<circle class="st33" cx="27.4" cy="190.2" r="2.7"/>
		</g>
		
			<linearGradient id="SVGID_00000081640409979119858540000003780989395505595784_" gradientUnits="userSpaceOnUse" x1="139.2275" y1="246.09" x2="196.7274" y2="91.0898" gradientTransform="matrix(1 0 0 -1 0 382)">
			<stop  offset="0" style="stop-color:#F9B831"/>
			<stop  offset="0.1456" style="stop-color:#F9EC31"/>
			<stop  offset="0.279" style="stop-color:#F9EC79"/>
			<stop  offset="0.4467" style="stop-color:#F9EC31"/>
			<stop  offset="0.9155" style="stop-color:#F9B831"/>
		</linearGradient>
		
			<path style="fill:url(#SVGID_00000081640409979119858540000003780989395505595784_);stroke:#F7A731;stroke-width:2;stroke-miterlimit:10;" d="
			M163.2,137.7c31.8,0,81.1,0.5,109.6,29c7.6,9.6,14.4,41.3,7,55.1c-3.6,6.7-7.7,11.5-10,12.9c-7,4.5-48.1,16-106.6,16
			s-98.4-11.5-105.4-16c-2.3-1.5-6.5-6.2-10-12.9c-7.3-13.8-0.6-45.4,7-55.1C83.3,138.2,131.4,137.7,163.2,137.7"/>
		
			<linearGradient id="SVGID_00000096752088545080058820000010936834501947676545_" gradientUnits="userSpaceOnUse" x1="57.4058" y1="223.8379" x2="95.4058" y2="161.8379" gradientTransform="matrix(1 0 0 -1 0 382)">
			<stop  offset="0" style="stop-color:#ACAEB0"/>
			<stop  offset="0.1998" style="stop-color:#FFFFFB"/>
			<stop  offset="0.3714" style="stop-color:#BBBDBF"/>
			<stop  offset="0.7024" style="stop-color:#919295"/>
			<stop  offset="0.8327" style="stop-color:#E5E6E4"/>
			<stop  offset="1" style="stop-color:#B1B3B5"/>
		</linearGradient>
		<path style="fill:url(#SVGID_00000096752088545080058820000010936834501947676545_);stroke:#58595B;stroke-miterlimit:10;" d="
			M90.3,146c-8.3,2.7-16.2,6.3-23.5,11c-5.3,27.6-3.3,60.9-0.7,81.2c4.9,1.6,11.7,3.5,20.1,5.2C82.7,204.1,87.7,163.1,90.3,146z"/>
		
			<linearGradient id="SVGID_00000131366240808413916620000003140107163589395601_" gradientUnits="userSpaceOnUse" x1="252.1315" y1="245.2124" x2="247.6315" y2="151.2129" gradientTransform="matrix(1 0 0 -1 0 382)">
			<stop  offset="0" style="stop-color:#ACAEB0"/>
			<stop  offset="0.1998" style="stop-color:#FFFFFB"/>
			<stop  offset="0.3714" style="stop-color:#BBBDBF"/>
			<stop  offset="0.7024" style="stop-color:#919295"/>
			<stop  offset="0.8327" style="stop-color:#E5E6E4"/>
			<stop  offset="1" style="stop-color:#B1B3B5"/>
		</linearGradient>
		<path style="fill:url(#SVGID_00000131366240808413916620000003140107163589395601_);stroke:#58595B;stroke-miterlimit:10;" d="
			M236.9,146c8.3,2.7,16.2,6.3,23.5,11c5.3,27.6,3.3,60.9,0.7,81.2c-4.9,1.6-11.7,3.5-20.1,5.2C244.4,204.1,239.4,163.1,236.9,146z"
			/>
		<g>
			<g>
				<g>
					
						<linearGradient id="SVGID_00000172442517304598825730000014510717459906756510_" gradientUnits="userSpaceOnUse" x1="135.9807" y1="21.7157" x2="142.9228" y2="21.7157" gradientTransform="matrix(1 0 0 -1 0 382)">
						<stop  offset="2.550000e-02" style="stop-color:#FDE04C"/>
						<stop  offset="0.1122" style="stop-color:#FDF0C5"/>
						<stop  offset="0.301" style="stop-color:#FDE573"/>
						<stop  offset="0.6429" style="stop-color:#FDECA8"/>
						<stop  offset="1" style="stop-color:#FDE04C"/>
					</linearGradient>
					<path style="fill:url(#SVGID_00000172442517304598825730000014510717459906756510_);stroke:#F6921E;stroke-miterlimit:10;" d="
						M136,357.9c0.3,2.3,1.1,4.6,2.3,6.6c1.6,2.8,5.9,0.3,4.3-2.5c-0.9-1.7-1.5-3.5-1.7-5.4c-0.2-1.4-1.9-2.1-3.1-1.7
						C136.3,355.3,135.8,356.6,136,357.9L136,357.9z"/>
				</g>
				<g>
					
						<linearGradient id="SVGID_00000111891077952344597600000010430187233469224323_" gradientUnits="userSpaceOnUse" x1="168.0319" y1="59.826" x2="173.381" y2="59.826" gradientTransform="matrix(0.998 6.290000e-02 6.290000e-02 -0.998 -14.8408 403.6781)">
						<stop  offset="2.550000e-02" style="stop-color:#FDE04C"/>
						<stop  offset="0.1122" style="stop-color:#FDF0C5"/>
						<stop  offset="0.301" style="stop-color:#FDE573"/>
						<stop  offset="0.6429" style="stop-color:#FDECA8"/>
						<stop  offset="1" style="stop-color:#FDE04C"/>
					</linearGradient>
					<path style="fill:url(#SVGID_00000111891077952344597600000010430187233469224323_);stroke:#F6921E;stroke-miterlimit:10;" d="
						M157.1,350.9c0.1,2.2,0,4.4-0.6,6.6c-0.3,1.3,0.2,2.7,1.5,3.2c1.2,0.4,2.8-0.2,3.2-1.5c0.7-2.6,0.9-5.2,0.8-7.9
						c0-1.4-0.9-2.6-2.3-2.7C158.4,348.5,157,349.6,157.1,350.9L157.1,350.9z"/>
				</g>
				<g>
					
						<linearGradient id="SVGID_00000078760881396019804540000004798121188286694300_" gradientUnits="userSpaceOnUse" x1="161.583" y1="9.7921" x2="170.6001" y2="9.7921" gradientTransform="matrix(1 0 0 -1 0 382)">
						<stop  offset="2.550000e-02" style="stop-color:#FDE04C"/>
						<stop  offset="0.1122" style="stop-color:#FDF0C5"/>
						<stop  offset="0.301" style="stop-color:#FDE573"/>
						<stop  offset="0.6429" style="stop-color:#FDECA8"/>
						<stop  offset="1" style="stop-color:#FDE04C"/>
					</linearGradient>
					<path style="fill:url(#SVGID_00000078760881396019804540000004798121188286694300_);stroke:#F6921E;stroke-miterlimit:10;" d="
						M165.9,368.5c-1.1,1.6-2.1,3.2-3.6,4.5c-1,0.9-0.9,2.6,0,3.5c1,1,2.5,0.9,3.5,0c1.8-1.6,3-3.6,4.4-5.5c0.8-1.1,0.2-2.8-0.9-3.4
						C168.1,366.8,166.7,367.3,165.9,368.5L165.9,368.5z"/>
				</g>
				<g>
					
						<linearGradient id="SVGID_00000081646176348994775370000013641134250450287775_" gradientUnits="userSpaceOnUse" x1="200.522" y1="81.3801" x2="206.9919" y2="81.3801" gradientTransform="matrix(0.9958 9.150000e-02 9.150000e-02 -0.9958 -22.6926 410.9933)">
						<stop  offset="2.550000e-02" style="stop-color:#FDE04C"/>
						<stop  offset="0.1122" style="stop-color:#FDF0C5"/>
						<stop  offset="0.301" style="stop-color:#FDE573"/>
						<stop  offset="0.6429" style="stop-color:#FDECA8"/>
						<stop  offset="1" style="stop-color:#FDE04C"/>
					</linearGradient>
					<path style="fill:url(#SVGID_00000081646176348994775370000013641134250450287775_);stroke:#F6921E;stroke-miterlimit:10;" d="
						M186.1,345.9c-0.2,1.3-0.8,2.5-1.5,3.6c-0.7,1.2-0.6,2.7,0.6,3.5c1.1,0.8,2.8,0.6,3.5-0.6c1.2-1.9,2.1-3.8,2.4-6.1
						C191.5,343.2,186.5,342.7,186.1,345.9L186.1,345.9z"/>
				</g>
				<g>
					
						<linearGradient id="SVGID_00000116933000661920415390000013383588310232366218_" gradientUnits="userSpaceOnUse" x1="197.3295" y1="34.9891" x2="204.3708" y2="34.9891" gradientTransform="matrix(1 0 0 -1 0 382)">
						<stop  offset="2.550000e-02" style="stop-color:#FDE04C"/>
						<stop  offset="0.1122" style="stop-color:#FDF0C5"/>
						<stop  offset="0.301" style="stop-color:#FDE573"/>
						<stop  offset="0.6429" style="stop-color:#FDECA8"/>
						<stop  offset="1" style="stop-color:#FDE04C"/>
					</linearGradient>
					<path style="fill:url(#SVGID_00000116933000661920415390000013383588310232366218_);stroke:#F6921E;stroke-miterlimit:10;" d="
						M197.7,346.4c0.3,0.6,0.7,1.2,1,1.8c0.1,0.2,0.3,0.5,0.4,0.8c0.1,0.2,0.2,0.3,0.2,0.5c0.1,0.3,0.1,0.3,0.1,0.2
						c0.5,1.3,1.6,2.1,3.1,1.7c1.2-0.3,2.3-1.8,1.7-3.1c-0.6-1.5-1.4-2.9-2.3-4.3c-0.7-1.2-2.2-1.6-3.4-0.9
						C197.4,343.7,197,345.2,197.7,346.4L197.7,346.4z"/>
				</g>
				<g>
					
						<linearGradient id="SVGID_00000034792264279556281910000011364725053620742074_" gradientUnits="userSpaceOnUse" x1="203.6241" y1="48.9173" x2="210.8445" y2="48.9173" gradientTransform="matrix(1 0 0 -1 0 382)">
						<stop  offset="2.550000e-02" style="stop-color:#FDE04C"/>
						<stop  offset="0.1122" style="stop-color:#FDF0C5"/>
						<stop  offset="0.301" style="stop-color:#FDE573"/>
						<stop  offset="0.6429" style="stop-color:#FDECA8"/>
						<stop  offset="1" style="stop-color:#FDE04C"/>
					</linearGradient>
					<path style="fill:url(#SVGID_00000034792264279556281910000011364725053620742074_);stroke:#F6921E;stroke-miterlimit:10;" d="
						M205.8,329.7c-0.3,1.9-1.1,3.8-1.9,5.5c-0.6,1.2-0.4,2.7,0.9,3.4c1.1,0.6,2.9,0.4,3.4-0.9c1.2-2.6,2.2-5.2,2.6-8
						c0.2-1.4-1.3-2.5-2.5-2.5C206.8,327.2,206,328.4,205.8,329.7L205.8,329.7z"/>
				</g>
				<g>
					
						<linearGradient id="SVGID_00000050642122286073407990000013255304714318275749_" gradientUnits="userSpaceOnUse" x1="142.5999" y1="29.5296" x2="150.5689" y2="29.5296" gradientTransform="matrix(1 0 0 -1 0 382)">
						<stop  offset="2.550000e-02" style="stop-color:#FDE04C"/>
						<stop  offset="0.1122" style="stop-color:#FDF0C5"/>
						<stop  offset="0.301" style="stop-color:#FDE573"/>
						<stop  offset="0.6429" style="stop-color:#FDECA8"/>
						<stop  offset="1" style="stop-color:#FDE04C"/>
					</linearGradient>
					<path style="fill:url(#SVGID_00000050642122286073407990000013255304714318275749_);stroke:#F6921E;stroke-miterlimit:10;" d="
						M146.3,348.9c-1.1,1.1-2,2.3-3,3.5c-0.9,1.1-1,2.5,0,3.5c0.9,0.9,2.7,1.1,3.5,0c1-1.2,1.9-2.4,3-3.5c1-1,1-2.6,0-3.5
						C148.9,348,147.3,348,146.3,348.9L146.3,348.9z"/>
				</g>
			</g>
			<g>
				<path class="st46" d="M93.5,255.1c1.9,9.7,1.1,19.7,7.8,28.3c6.5,8.5,20.4,14,32,15.2c3.4,0.3,15.8,0.6,14.7,5.5
					c-0.9,3.9-5.9,7.1-8.7,10.2c-8.2,9.2-6.8,20.5-3.8,31c1.1,3.9,8.3,2.3,7.2-1.7c-1.5-5.3-2.5-10.6-2-16c0.6-5.9,5-9.9,9.2-14.2
					c6.1-6.3,8.3-13.6-1.4-18.2c-5.3-2.5-11.6-2.2-17.4-3.1c-6.9-1-14.6-4.5-19.9-8.3c-10.2-7.3-8.6-20.3-10.5-30.3
					C99.9,249.5,92.7,251.2,93.5,255.1L93.5,255.1z"/>
				<path class="st47" d="M148.6,314l1-1c2.7-2.7,5.7-6.8,5-10.8c-0.5-2.7-2.6-4.9-6.3-6.6c-3.6-1.7-7.9-2.1-12-2.5
					c-1.7-0.2-3.5-0.3-5.3-0.6c-6.5-1-14.4-4.3-20.1-8.4c-8-5.7-8.9-14.6-9.8-23.2c-0.2-1.5-0.3-3-0.5-4.4c-0.5,0.3-1.1,0.7-1.6,1.1
					l0.5,3.8c-1.1,21,4.6,28.3,25.6,32.9c5.1,1.1,16,1.4,20.7,5.9c0.9,0.4,1.6,0.9,2.1,1.5c0.5,0.7,0.7,1.5,0.5,2.4
					c-0.1,0.4-0.2,0.8-0.4,1.2c-0.3,5.4-6.4,12.5-8.1,16.7c-3,7.7-3.5,15.5-3,23.8c0.3,0.4,0.7,0.7,1,1c0.4,0.1,0.7,0.1,0.9,0.1l0,0
					c1.3,0,2.5-0.5,3.1-1.4c0.4-0.6,0.5-1.2,0.3-1.9c-1.3-4.7-2.6-10.3-2-16.2C140.8,321.9,144.6,318.1,148.6,314z"/>
			</g>
			<path class="st48" d="M103.8,260.2c-5.5,9.3-4.6,19.7,5,26.9c9,6.8,21,5.3,31.9,7.5c5.4,1.1,10.2,4,10.2,9.1
				c0,5.2-4.7,10.5-6.5,15.4c-1.7,4.8-0.4,9,2,13.4c3.2,5.8,7.4,10.7,0,15.6c-3.8,2.5,1.5,6.9,5.3,4.4c4.7-3.1,7.7-7.4,6.4-12.5
				c-1.3-5.2-6.1-9.7-7-14.9c-0.8-4.9,3.3-10.2,5.4-14.6c2.3-4.8,2.5-9.4-0.3-14c-5.1-8.4-18.6-8.8-28.4-9.7
				c-6.6-0.6-12.1-2.2-16.6-6.5c-5-4.7-4.1-11.7-1-16.9C112.4,259.8,106,256.6,103.8,260.2L103.8,260.2z"/>
			<g>
				<path class="st46" d="M109.3,260.2c-6.7,9.8-4.7,20.4,7.7,25.9c6,2.6,12.7,3,19.3,3.2c5.6,0.2,11.2,0.6,14.1,5.2
					c3.5,5.5,2.2,13.2,2,19.1c-0.2,5.9,0.7,11.5,3.8,16.9c1.7,3,4.5,5.5,6.6,8.3c2.1,2.8,3.7,5.8,4.9,9c2.7,6.9,2.4,14.2-2.8,20.1
					c-2.9,3.2,3.6,6.4,6.5,3.2c9.2-10.3,5.6-24-1.3-34.4c-4-6-9.2-10.4-10-17.6c-0.7-6.1,0.5-12.2-0.2-18.3
					c-0.6-5.1-2.2-10.5-7.2-13.9c-4.2-2.9-9.8-3.4-15.1-3.7c-7.1-0.4-13.6-0.5-19.7-3.9c-6.9-3.8-5.6-10.6-2-15.8
					C118.2,259.9,111.7,256.7,109.3,260.2L109.3,260.2z"/>
				<path class="st47" d="M169.6,336.9c-1.1-1.6-2.3-3.1-3.4-4.6c-3.1-4-6.1-7.8-6.7-13.2c-0.3-3-0.2-6.1-0.1-9c0-0.4,0-0.7,0-1.1
					c-3.4-0.2-5.4,1.5-6.5,4.2c0,0.2,0,0.3,0,0.5c-0.2,6.4,1,11.7,3.8,16.6c1,1.8,2.5,3.5,3.9,5.1c0.9,1,1.8,2.1,2.6,3.2
					c1.7,2.3,3.1,4.8,4.4,7.8c0.9-2.6,1.7-5.6,2.4-8.7C169.9,337.4,169.7,337.1,169.6,336.9z"/>
			</g>
			<g>
				<path class="st49" d="M113.3,262.7c-4,5.9-7.1,13.3,0.4,18.3c8.5,5.7,19.1,4.1,29.1,5.3c13.8,1.6,15.3,17.7,16.9,26.7
					c2.3,12.5,10.1,22.9,15.8,34.4c1.8,3.7,9.1,2.1,7.2-1.7c-5.2-10.6-12.4-20.3-15.2-31.6c-2.5-10.5-2.9-21.3-12.4-29.4
					c-6.4-5.5-15.6-4.6-23.9-5c-4.4-0.2-11.3-1.3-14.1-4.5c-2.2-2.6,1.2-6.9,2.7-9.2C122.2,262.4,115.7,259.2,113.3,262.7
					L113.3,262.7z"/>
				<path class="st47" d="M182.3,347.6c0.3-0.5,0.3-1.1,0-1.7c-1.6-3.3-3.5-6.6-5.3-9.8c-3.9-6.9-8-14.1-9.9-21.9
					c-0.5-1.9-0.9-3.9-1.3-5.8c-1.5-7.2-2.9-14-7.6-19.9c-1.1-0.4-2.3-0.6-3.6-0.7l-0.2,1.8c1.7,2.7,5.1,9.1,5.4,12.2
					c0.2,1.8-0.2,3.6-0.6,5.4c0.2,1.1,0.4,2.2,0.6,3.2c0.2,0.9,0.3,1.7,0.4,2.5c0.1,0.3,0.1,0.5,0.2,0.8c0.7-0.4,1.5-0.8,2.2-1.2
					c-0.8,1.3-1.2,2.7-1.5,4.1c1.5,5.4,3.8,10.3,6.5,15.3c7.2-2.3,7.3,3.8,6,10.8c0.8,1.5,1.6,3,2.3,4.5c0.6,1.1,1.8,1.8,3.3,1.8
					C180.6,348.9,181.8,348.4,182.3,347.6z"/>
			</g>
			<path class="st46" d="M153,282.7c4.6,10.5,13.9,23.1,10.9,34.7c-0.6,2.4-1.9,4.7-2.9,7c-1.3,3.1-1.7,6.2-2.3,9.4
				c-1.2,6.2-2.7,12.3-2.9,18.6c-0.1,4,7.4,4,7.5,0c0.2-6.7,2-13.2,3.1-19.9c1-5.5,4.2-10.5,5.2-16c2.1-12.2-6.6-24.5-11.4-35.6
				C158.5,277.2,151.3,278.9,153,282.7L153,282.7z"/>
			<path class="st48" d="M223,258c2.5,11.2-8.9,21.3-18.9,27.3c-5.1,3-10.8,5.4-16.9,6.6c-4.8,0.9-11.2-0.3-15,3
				c-9.5,8.2,5.5,16.1,13.7,18.6c7.5,2.3,23.5,4.1,19.2,13.5c-1.8,3.8,5.5,5.4,7.2,1.7c4.6-9.8-4.8-15.5-14.7-18.5
				c-4.5-1.4-9.3-2.3-13.7-4.1c-2.6-1.1-6-2.7-7.1-5.1c-1.2-2.6,5.8-2.4,7.4-2.5c12.4-0.5,24.1-7.1,32.8-14
				c9-7.3,15.7-17.4,13.3-28.1C229.3,252.4,222.1,254.1,223,258L223,258z"/>
			<g>
				<path class="st46" d="M216.5,258.5c-1.9,10.5-8.5,19.2-19,25.1c-9,5.1-21.3,5.7-29.4,11.9c-8.7,6.6,2.9,15.3,8.8,19.3
					c8.8,5.9,18.9,10.8,18.5,21.3c-0.2,4,7.3,4,7.5,0c0.4-9.2-5.3-15.7-13.6-21.2c-4.6-3.1-9.4-5.9-13.5-9.4c-1.3-1.1-3.5-3-3.1-4.8
					c0.4-1.5,3.6-2.5,5-3c4.8-2,10-3.1,14.9-4.8c5.5-2,10.4-4.6,14.9-7.8c8.9-6.3,14.5-15.4,16.2-24.9
					C224.4,256.2,217.2,254.5,216.5,258.5L216.5,258.5z"/>
				<g class="st50">
					<path class="st51" d="M218,257.1c-0.5,0.3-0.9,0.7-1,1.5c-1.9,10.7-8.6,19.5-19.3,25.5c-4.1,2.3-8.8,3.7-13.4,5.1
						c-5.6,1.7-11.5,3.4-15.9,6.8c-2,1.5-3,3.2-2.9,5.1c0.1,3.7,4.1,8.2,11.7,13.4c1.1,0.7,2.3,1.5,3.4,2.2c3.6,2.3,7.2,4.6,10,7.4
						c-2.4-3-2.7-5.6-3.2-9.7c-0.7-0.5-1.4-0.9-2.1-1.4c-3.4-2.2-6.9-4.4-9.9-7c-1.2-1-3.8-3.2-3.2-5.3c0.4-1.5,2.8-2.4,4.6-3.1
						c0.3-0.1,0.5-0.2,0.7-0.3c2.4-1,4.9-1.8,7.4-2.5c1.5-5.5,8.4-4.7,18.9-10.2C215.1,278.5,215.6,268.2,218,257.1z"/>
					<path class="st51" d="M202.3,333.8c-1.4-1.2-3.1-2.4-4.7-3.6c-2.2-1.7-3.9-3.1-5.3-4.3c2.3,2.8,3.7,6.1,3.5,10.2
						c0,0.6,0.2,1.2,0.6,1.6c0.6,0.6,1.5,0.9,2.6,0.9c1.6,0,3.3-0.8,3.4-2.5C202.4,335.3,202.3,334.6,202.3,333.8z"/>
				</g>
			</g>
			<path class="st48" d="M206.8,260.5c-0.3,4.8-6.2,8.4-10.3,11.2c-4.5,3.1-9.2,6.1-13.7,9.2c-8.7,6-19.5,13.2-19.8,23.5
				c-0.2,7.9,6.6,14.7,12.2,20.5c5.7,5.7,13.6,12.4,9.7,20.4c-1.8,3.7,5.4,5.3,7.2,1.7c8.2-16.6-18.1-26.4-21.5-40.9
				c-1.2-5.2,3.4-9.8,7.4-13.3c4.6-4,10.1-7.4,15.2-11c8.2-5.8,20.3-11.2,21-21.2C214.6,256.5,207.1,256.5,206.8,260.5L206.8,260.5z
				"/>
			<g>
				<path class="st46" d="M210.5,261.4c-3,16-28.3,18.6-36.3,32.2c-11.3,19.3,13.2,36.5,21.7,52.4c2,3.7,8.4,0.5,6.5-3.2
					c-4.7-8.8-12.5-16.2-18.1-24.6c-5-7.4-7.9-17.7-1-25c10.6-11.2,31.5-14.1,34.5-30.2C218.4,259.1,211.2,257.4,210.5,261.4
					L210.5,261.4z"/>
				<g>
					<path class="st52" d="M176.3,307.5c0,0,0,0.2,0.1,0.5c0.1,0.3,0.1,0.8,0.2,1.4c0.1,0.3,0.1,0.6,0.2,1c0.1,0.4,0.2,0.7,0.3,1.2
						c0.2,0.8,0.6,1.7,1,2.7c0.2,0.5,0.4,1,0.7,1.5c0.3,0.5,0.5,1,0.8,1.5c0.6,1,1.3,2.1,2.1,3.1c1.5,2.1,3.4,4.2,5.3,6.3
						c1.9,2.1,3.8,4.1,5.5,6.2c0.9,1,1.6,2,2.4,3c0.7,1,1.3,2,1.9,2.9c1.1,1.9,1.6,3.6,2,4.8c0.2,0.6,0.2,1.1,0.3,1.4
						c0.1,0.3,0.1,0.5,0.1,0.5s-0.1-0.2-0.1-0.5c-0.1-0.3-0.2-0.8-0.4-1.4c-0.4-1.2-1.1-2.8-2.3-4.5c-1.1-1.8-2.6-3.7-4.4-5.7
						c-1.7-2-3.7-4-5.6-6.1c-1.9-2.1-3.7-4.3-5.3-6.5c-0.8-1.1-1.4-2.2-2-3.3c-0.3-0.5-0.5-1.1-0.8-1.6c-0.2-0.5-0.4-1-0.6-1.6
						c-0.4-1-0.6-2-0.8-2.8c-0.1-0.4-0.1-0.8-0.2-1.2c0-0.4-0.1-0.7-0.1-1c-0.1-0.6-0.1-1.1-0.1-1.4
						C176.3,307.6,176.3,307.5,176.3,307.5z"/>
				</g>
			</g>
			<g>
				<g>
					
						<linearGradient id="SVGID_00000008830627842807021150000003826514816075253400_" gradientUnits="userSpaceOnUse" x1="206.4883" y1="141.0206" x2="211.6382" y2="141.0206" gradientTransform="matrix(0.9754 0.2205 0.2205 -0.9754 -57.6118 451.7571)">
						<stop  offset="2.550000e-02" style="stop-color:#FDE04C"/>
						<stop  offset="0.1122" style="stop-color:#FDF0C5"/>
						<stop  offset="0.301" style="stop-color:#FDE573"/>
						<stop  offset="0.6429" style="stop-color:#FDECA8"/>
						<stop  offset="1" style="stop-color:#FDE04C"/>
					</linearGradient>
					<path style="fill:url(#SVGID_00000008830627842807021150000003826514816075253400_);stroke:#F6921E;stroke-miterlimit:10;" d="
						M175.5,357.4c-0.1,1.9-0.9,3.6-1.3,5.4c-0.8,3.1,4.1,4.2,4.9,1.1c0.6-2.3,1.4-4.4,1.4-6.8c0-1.4-1.3-2.4-2.6-2.4
						C176.5,354.8,175.6,356,175.5,357.4L175.5,357.4z"/>
				</g>
				<path class="st46" d="M170.3,276.1c-8.9,12.8-10.4,25.6-4.4,39.5c2.9,6.6,7.8,12.5,10.5,19.1c2.8,7.2-1.3,14.6-1.5,21.9
					c-0.2,4,7.3,4,7.5,0c0.3-6.7,3.4-13,2.2-19.7c-1.1-6.2-5.1-11.4-8.4-17c-3.8-6.3-6.5-13.5-6.7-20.6c-0.3-7.2,3.2-13.9,7.4-20
					C179.3,275.7,172.8,272.6,170.3,276.1L170.3,276.1z"/>
				<g>
					<path class="st52" d="M194.1,277.5c0,0-1.3,0.7-3.5,2c-1.1,0.6-2.4,1.4-3.9,2.4c-0.7,0.5-1.5,1-2.4,1.5
						c-0.8,0.6-1.7,1.1-2.6,1.8c-0.9,0.7-1.8,1.3-2.7,2.1c-0.4,0.4-0.9,0.8-1.4,1.1c-0.4,0.4-0.9,0.8-1.3,1.3
						c-1.8,1.7-3.5,3.7-4.8,6.1c-1.3,2.3-2.4,4.9-2.8,7.7c-0.4,2.8-0.3,5.7,0.3,8.5c0.6,2.8,1.7,5.5,2.8,8.1
						c1.2,2.6,2.5,5.1,3.7,7.5c1.2,2.5,2.3,4.9,3.1,7.3c0.8,2.4,1.3,4.8,1.4,7c0.2,2.2,0.1,4.2,0,6c-0.1,1.8-0.3,3.3-0.5,4.6
						c-0.4,2.5-0.6,4-0.6,4s0.2-1.5,0.4-4c0.1-1.3,0.3-2.8,0.3-4.6c0.1-1.8,0-3.8-0.2-5.9c-0.2-2.2-0.8-4.5-1.6-6.8
						c-0.8-2.3-2-4.7-3.2-7.2c-2.4-4.9-5.5-10-6.8-15.8c-0.6-2.9-0.7-5.9-0.3-8.8c0.4-2.9,1.5-5.6,2.9-8c1.4-2.4,3.2-4.4,5.1-6.1
						c0.5-0.4,0.9-0.8,1.4-1.3c0.5-0.4,1-0.8,1.4-1.1c0.9-0.8,1.9-1.4,2.8-2c0.9-0.6,1.8-1.2,2.6-1.7c0.9-0.5,1.7-1,2.4-1.5
						c1.6-0.9,2.9-1.6,4-2.2C192.8,278.1,194.1,277.5,194.1,277.5z"/>
				</g>
			</g>
			<path class="st46" d="M176.3,276.1c-6,7.5-12.2,14.8-17.4,22.7c-4.3,6.6-9.9,14.8-7.4,22.5c1,3,3.6,5.8,1.7,8.9
				c-1.6,2.7-4.2,5-6.6,7.2c-2.3,2.1-9.1,6.4-7.7,9.9c1.6,3.8,6.4,0.7,7.8-0.6c0.8-0.7,1.6-1.5,2.3-2.2c2.2-2,4.5-4.1,6.6-6.3
				c4.3-4.4,7-8.7,5-14.5c-1.2-3.6-3.2-5.9-1.8-9.8c1.5-4.2,4.1-8.2,6.5-12.1c5-8,11.4-15.3,17.4-22.7
				C185.5,275.9,179,272.7,176.3,276.1L176.3,276.1z"/>
			<g>
				<path class="st46" d="M161.5,276.4c-3.2,6.8-0.8,14-2.6,21c-2,7.6-7.4,14.4-12.2,20.9c-8.9,12.1-14.8,26.4-11.7,40.7
					c0.8,4,8.1,2.3,7.2-1.7c-3.2-14.9,5.6-28.3,14.4-40.6c4.2-5.9,8.1-12.2,9.8-19c1.7-6.5-0.8-13.4,2.3-19.7
					C170.5,274.3,163.2,272.7,161.5,276.4L161.5,276.4z"/>
				<g>
					<path class="st52" d="M165.9,283.7c0,0,0,0.3,0,0.9c0,0.6,0.1,1.4,0.1,2.5c0,0.6,0,1.2-0.1,1.8c-0.1,0.7-0.1,1.4-0.2,2.1
						c-0.2,1.5-0.6,3.2-1.1,5.1c-0.5,1.8-1.2,3.8-2.2,5.8c-0.9,2-2,4-3.2,6c-1.2,2-2.6,4.1-4,6.1c-1.4,2-2.9,4-4.3,6.1
						c-1.4,2-2.8,4.1-4.1,6.1c-1.3,2.1-2.5,4.1-3.5,6.2c-1,2.1-1.8,4.1-2.5,6.2c-0.6,2-1.1,4-1.5,5.8c-0.4,1.8-0.6,3.5-0.8,5
						c-0.2,1.5-0.3,2.8-0.3,3.9c0,0.5,0,1,0,1.5c0,0.4,0,0.8,0,1.1c0,0.6,0,0.9,0,0.9s-0.1-0.3-0.2-0.9c-0.1-0.6-0.2-1.4-0.3-2.5
						c-0.1-1.1-0.1-2.4-0.1-4c0.1-1.5,0.2-3.3,0.4-5.1c0.2-1.9,0.6-3.9,1.2-6c0.6-2.1,1.3-4.3,2.3-6.5c1-2.2,2.1-4.4,3.4-6.5
						c1.3-2.1,2.7-4.2,4.1-6.3c1.5-2,2.9-4.1,4.4-6.1c1.4-2,2.8-3.9,4.1-5.9c1.3-2,2.4-3.9,3.4-5.7c1-1.9,1.8-3.7,2.4-5.5
						c0.3-0.9,0.6-1.7,0.8-2.5c0.1-0.4,0.2-0.8,0.3-1.2c0.1-0.4,0.2-0.8,0.3-1.1c0.2-0.7,0.3-1.4,0.4-2.1c0.1-0.6,0.2-1.2,0.2-1.8
						c0.1-1.1,0.2-1.9,0.2-2.5C165.9,284,165.9,283.7,165.9,283.7z"/>
				</g>
			</g>
			<path class="st46" d="M119.3,265.6c-3.5,5.2-4.7,11.6,2,15.3c5.8,3.2,14.3,1.7,20.1-0.6c4.4-1.7,0.6-7.1-3.8-5.4
				c-3.5,1.3-7.6,1.9-11.4,1c-4.2-1-2-5-0.5-7.2C128.2,265.3,121.7,262.1,119.3,265.6L119.3,265.6z"/>
			<path class="st47" d="M98.2,259.1c0,0,8.2,37.9,66.8,37.9s59.8-31.5,58.8-37.9S98.2,259.1,98.2,259.1z"/>
			<g>
				<path class="st52" d="M166.8,322c0,0-0.1,0.5-0.1,1.2c-0.1,0.8-0.2,1.9-0.5,3.2c-0.3,1.3-0.5,2.9-0.9,4.6
					c-0.4,1.7-0.8,3.4-1.3,5.2c-0.4,1.7-0.9,3.5-1.3,5.1c-0.2,0.8-0.4,1.6-0.6,2.4c-0.2,0.8-0.3,1.5-0.5,2.1
					c-0.3,1.3-0.5,2.4-0.6,3.2c-0.2,0.8-0.2,1.2-0.2,1.2s0-0.5,0-1.2c0-0.4,0-0.9,0.1-1.4c0-0.6,0.1-1.2,0.2-1.9
					c0.1-0.7,0.2-1.4,0.3-2.2c0.1-0.8,0.3-1.6,0.4-2.4c0.2-0.8,0.3-1.7,0.5-2.6c0.2-0.9,0.4-1.7,0.6-2.6c0.5-1.7,0.9-3.5,1.4-5.1
					c0.2-0.8,0.5-1.6,0.7-2.3c0.2-0.7,0.4-1.5,0.6-2.1c0.4-1.3,0.6-2.4,0.8-3.2C166.7,322.4,166.8,322,166.8,322z"/>
			</g>
			<g>
				<path class="st52" d="M156.1,320.7c0,0,0.3,0.3,0.8,0.9c0.2,0.3,0.5,0.6,0.8,1.1c0.3,0.4,0.6,0.9,0.8,1.6c0.2,0.6,0.4,1.3,0.5,2
					c0.1,0.7,0.1,1.6-0.1,2.4c-0.2,0.8-0.5,1.6-0.9,2.4c-0.4,0.8-0.9,1.5-1.4,2.1c-1.1,1.3-2.4,2.5-3.6,3.4c-1.2,1-2.5,1.8-3.5,2.5
					c-1,0.7-1.9,1.2-2.6,1.6c-0.6,0.4-1,0.6-1,0.6s0.3-0.3,0.9-0.8c0.6-0.5,1.4-1.1,2.3-1.9c1-0.8,2.1-1.7,3.3-2.7
					c1.2-1,2.4-2.1,3.4-3.4c1-1.2,1.9-2.6,2.2-4.1c0.2-0.7,0.3-1.4,0.3-2.1c0-0.7-0.1-1.3-0.3-1.9c-0.2-0.6-0.4-1.1-0.6-1.6
					c-0.2-0.5-0.4-0.8-0.6-1.1C156.3,321.1,156.1,320.7,156.1,320.7z"/>
			</g>
			<g>
				<path class="st52" d="M170.6,350c0,0,0.2,0.3,0.4,0.8c0.1,0.3,0.3,0.6,0.5,0.9c0.1,0.2,0.2,0.4,0.3,0.6c0.1,0.2,0.1,0.4,0.2,0.7
					c0.1,0.5,0.3,1,0.5,1.6c0.2,0.6,0.2,1.2,0.3,1.8c0.1,0.6,0.2,1.3,0.1,1.9c0,0.7-0.1,1.3-0.1,2c-0.1,0.7-0.3,1.3-0.4,2
					c-0.1,0.7-0.4,1.3-0.6,1.9c-0.2,0.6-0.4,1.2-0.7,1.7c-0.3,0.5-0.6,1-0.8,1.4c-0.1,0.2-0.2,0.4-0.4,0.6c-0.1,0.2-0.3,0.3-0.4,0.5
					c-0.3,0.3-0.5,0.6-0.7,0.8c-0.4,0.4-0.6,0.7-0.6,0.7s0.2-0.3,0.4-0.8c0.1-0.2,0.3-0.5,0.5-0.9c0.2-0.3,0.4-0.7,0.6-1.2
					c0.2-0.4,0.4-0.9,0.6-1.4c0.1-0.2,0.2-0.5,0.3-0.8c0.1-0.3,0.2-0.6,0.3-0.8c0.2-0.6,0.4-1.2,0.5-1.8c0.1-0.6,0.2-1.2,0.3-1.9
					c0-0.6,0.1-1.3,0.1-1.9c0.1-0.6,0-1.2,0-1.8c-0.1-0.6,0-1.2-0.1-1.7c-0.1-0.5-0.2-1-0.3-1.5c-0.1-0.5-0.2-0.9-0.3-1.3
					c-0.1-0.4-0.2-0.7-0.3-1C170.7,350.3,170.6,350,170.6,350z"/>
			</g>
			<polygon class="st54" points="200.7,361.1 197.4,361.7 200.4,363.2 197.1,362.7 199.5,365 196.5,363.6 198.1,366.5 195.7,364.2 
				196.3,367.5 194.7,364.6 194.3,367.9 193.7,364.6 192.2,367.7 192.7,364.3 190.3,366.8 191.8,363.7 188.8,365.3 191.2,362.9 
				187.8,363.5 190.8,361.9 187.5,361.5 190.8,360.9 187.7,359.4 191.1,359.9 188.6,357.6 191.7,359 190,356.1 192.5,358.4 
				191.9,355.1 193.5,358.1 193.9,354.7 194.5,358 195.9,355 195.5,358.3 197.8,355.8 196.4,358.9 199.3,357.3 197,359.7 
				200.3,359.1 197.3,360.7 			"/>
			<polygon class="st54" points="183.1,376.4 181.8,376.7 183,377.2 181.7,377.1 182.7,378 181.5,377.4 182.1,378.6 181.1,377.6 
				181.4,379 180.8,377.8 180.6,379.1 180.3,377.8 179.8,379 180,377.7 179,378.7 179.6,377.4 178.4,378.1 179.4,377.1 178.1,377.4 
				179.2,376.7 177.9,376.6 179.2,376.3 178,375.8 179.3,375.9 178.4,375 179.6,375.6 178.9,374.4 179.9,375.4 179.6,374 
				180.3,375.2 180.4,373.9 180.7,375.2 181.2,374 181.1,375.3 182,374.3 181.4,375.5 182.6,374.9 181.7,375.9 183,375.6 
				181.8,376.3 			"/>
			<polygon class="st54" points="148.7,372.3 147.4,372.6 148.6,373.1 147.3,372.9 148.3,373.9 147,373.3 147.7,374.5 146.7,373.5 
				147,374.8 146.3,373.7 146.2,375 145.9,373.7 145.4,374.9 145.5,373.6 144.6,374.5 145.2,373.3 144,374 145,373 143.6,373.3 
				144.8,372.6 143.5,372.5 144.8,372.2 143.6,371.7 144.9,371.8 143.9,370.9 145.2,371.5 144.5,370.3 145.5,371.3 145.2,369.9 
				145.9,371.1 146,369.8 146.3,371.1 146.8,369.9 146.7,371.2 147.6,370.2 147,371.4 148.2,370.8 147.2,371.8 148.6,371.5 
				147.4,372.2 			"/>
			<g>
				<path class="st55" d="M184.2,301.9c0.1,1.9-3,3.7-6.8,3.8l-27.4,1.4c-3.8,0.2-7.1-1.2-7.2-3.2s3-3.7,6.8-3.8l27.4-1.4
					C180.9,298.5,184.1,300,184.2,301.9z"/>
			</g>
		</g>
		<g>
			<g>
				<g>
					<path class="st56" d="M275,141.5c0,1.6-1.4,3-3,3H54c-1.7,0-3-1.4-3-3V12.9c0-1.6,1.3-3,3-3h218c1.6,0,3,1.4,3,3V141.5z"/>
					<path class="st57" d="M275,141.5c0,1.6-1.4,3-3,3H54c-1.7,0-3-1.4-3-3V12.9c0-1.6,1.3-3,3-3h218c1.6,0,3,1.4,3,3V141.5z"/>
				</g>
				<path class="st58" d="M271.7,141.5H54.4V12.9h217.3L271.7,141.5L271.7,141.5z M60.4,135.5h205.3V18.9H60.4V135.5z"/>
				
					<radialGradient id="SVGID_00000028297942447429965190000001178169755675096755_" cx="167.6278" cy="168.3958" r="217.7077" gradientTransform="matrix(1 -9.500000e-03 -6.200000e-03 -0.6491 2.943 212.6229)" gradientUnits="userSpaceOnUse">
					<stop  offset="0.2919" style="stop-color:#381014"/>
					<stop  offset="1" style="stop-color:#A31E2D"/>
				</radialGradient>
				
					<rect x="63.5" y="21.3" style="fill:url(#SVGID_00000028297942447429965190000001178169755675096755_);stroke:#820F1D;stroke-miterlimit:10;" width="199.1" height="111.8"/>
			</g>
			
				<linearGradient id="SVGID_00000168825787378718984460000014929267414346794906_" gradientUnits="userSpaceOnUse" x1="122.8303" y1="385.1603" x2="161.3303" y2="308.1603" gradientTransform="matrix(1 0 0 -1 0 382)">
				<stop  offset="0" style="stop-color:#A31E2D"/>
				<stop  offset="1" style="stop-color:#381014"/>
			</linearGradient>
			
				<rect x="73.5" y="35.8" style="fill:url(#SVGID_00000168825787378718984460000014929267414346794906_);stroke:#820F1D;stroke-miterlimit:10;" width="179.1" height="82.7"/>
			<g>
				
					<radialGradient id="SVGID_00000179634110359436993640000015642764052367314327_" cx="227.7407" cy="325.7798" r="27.8607" gradientTransform="matrix(1 0 0 -1 0 382)" gradientUnits="userSpaceOnUse">
					<stop  offset="8.610000e-02" style="stop-color:#8BC541"/>
					<stop  offset="0.8204" style="stop-color:#009247"/>
				</radialGradient>
				
					<circle style="fill:url(#SVGID_00000179634110359436993640000015642764052367314327_);stroke:#006938;stroke-width:2;stroke-miterlimit:10;" cx="231.4" cy="49.9" r="22.8"/>
				
					<linearGradient id="SVGID_00000125577065374998645160000010204562573354682544_" gradientUnits="userSpaceOnUse" x1="29.9517" y1="93.8261" x2="32.2016" y2="53.0788" gradientTransform="matrix(0.818 -0.5753 -0.5753 -0.818 261.6785 124.5579)">
					<stop  offset="0" style="stop-color:#FFFFFF"/>
					<stop  offset="1" style="stop-color:#FFFFFF;stop-opacity:0"/>
				</linearGradient>
				
					<path style="opacity:0.4;fill:url(#SVGID_00000125577065374998645160000010204562573354682544_);enable-background:new    ;" d="
					M243.8,40.1c2.3,3.3,3,6.7,1.5,7.7s-4.5-0.8-6.7-4.1s-3-6.7-1.5-7.7C238.4,35,241.5,36.8,243.8,40.1z"/>
				<g>
					<path class="st63" d="M230.9,50.7c0,0,3.4-8.4,5.4-10.7c2-2.3,4.9,2,4.9,2l-8.6,10.9L230.9,50.7z"/>
					<path class="st64" d="M234.7,42.6l4.1,2.4l2.4-3c0,0-2.6-4.2-4.6-2.3C234.6,41.5,234.7,42.6,234.7,42.6z"/>
					<g>
						<path class="st65" d="M226.2,47.9c0,0,0.2,0,0.5,0.1c0.3,0.1,0.8,0.2,1.3,0.5c0.3,0.1,0.5,0.3,0.8,0.4
							c0.3,0.2,0.6,0.4,0.9,0.6c0.3,0.2,0.6,0.4,0.9,0.7c0.3,0.3,0.5,0.5,0.8,0.8c0.3,0.3,0.5,0.6,0.8,0.8c0.2,0.3,0.5,0.6,0.7,0.9
							c0.2,0.3,0.4,0.6,0.5,0.9c0.2,0.3,0.3,0.6,0.4,0.8c0.1,0.3,0.2,0.5,0.3,0.7c0,0.2,0.1,0.4,0.1,0.6c0.1,0.3,0.1,0.5,0.1,0.5
							s-0.1-0.2-0.3-0.4c-0.1-0.1-0.2-0.3-0.3-0.5c-0.1-0.2-0.3-0.4-0.4-0.6c-0.2-0.2-0.3-0.5-0.5-0.7c-0.2-0.2-0.4-0.5-0.6-0.7
							c-0.2-0.3-0.5-0.5-0.7-0.8c-0.2-0.3-0.5-0.5-0.7-0.8c-0.5-0.5-1-1-1.5-1.5c-0.3-0.2-0.5-0.5-0.7-0.7c-0.2-0.2-0.5-0.4-0.7-0.5
							c-0.2-0.2-0.4-0.3-0.6-0.5c-0.2-0.1-0.3-0.2-0.5-0.3C226.4,48,226.2,47.9,226.2,47.9z"/>
					</g>
					<g>
						<path class="st65" d="M232.5,52.5c0,0,0.1-0.1,0.4-0.2c0.2-0.1,0.6-0.2,1-0.4c0.8-0.3,1.9-0.6,3.1-0.8
							c0.6-0.1,1.1-0.2,1.7-0.2c0.3,0,0.5,0,0.8,0c0.2,0,0.5,0,0.7,0c0.9,0.1,1.4,0.1,1.4,0.1s-0.6,0-1.4,0c-0.2,0-0.4,0-0.7,0.1
							c-0.2,0-0.5,0.1-0.8,0.1c-0.5,0.1-1.1,0.3-1.6,0.4c-1.1,0.3-2.1,0.8-2.9,1.1c-0.4,0.2-0.7,0.3-0.9,0.5
							c-0.2,0.1-0.3,0.2-0.3,0.2L232.5,52.5z"/>
					</g>
				</g>
				
					<linearGradient id="SVGID_00000000923189822405216720000010497323612346262682_" gradientUnits="userSpaceOnUse" x1="227.4365" y1="353.792" x2="229.6866" y2="313.041" gradientTransform="matrix(1 0 0 -1 0 382)">
					<stop  offset="0" style="stop-color:#FFFFFF"/>
					<stop  offset="1" style="stop-color:#FFFFFF;stop-opacity:0"/>
				</linearGradient>
				
					<path style="opacity:0.4;fill:url(#SVGID_00000000923189822405216720000010497323612346262682_);enable-background:new    ;" d="
					M228.6,30.2c3-0.2,5.7,4.2,3.1,7.8s-9.6,6.1-7.6,11.1c3.8,2.1,5.7,5.7,7.6,9.6c1.9,4,2.4-3.5,9.9-4.3s5.6,13-6,15
					s-16.9-3.8-20.3-8.2s-6.7-17.8,1.8-25.1C222.9,31.3,225.6,30.5,228.6,30.2z"/>
			</g>
			<g>
				<path class="st67" d="M204.9,83.4c12.7-5.2,49.9-15.6,53.3,2.8c2.9,15.5-27.3,19.3-40.3,18S204.9,83.4,204.9,83.4z"/>
				<g>
					<g>
						<path class="st68" d="M247.6,90.2c0,0,0,0.3,0.1,0.9c0,0.3,0,0.7,0,1.1c0,0.5-0.2,0.9-0.3,1.4c-0.2,0.5-0.4,1-0.7,1.5
							c-0.3,0.5-0.7,1-1.1,1.5c-0.4,0.5-0.9,1-1.4,1.4c-0.5,0.5-1.1,0.8-1.6,1.2c-1.1,0.8-2.3,1.4-3.4,2c-1.1,0.6-2.2,1-3.1,1.4
							c-0.9,0.4-1.7,0.7-2.3,0.8c-0.6,0.2-0.9,0.3-0.9,0.3s0.3-0.1,0.9-0.3c0.6-0.2,1.3-0.5,2.2-0.9c0.9-0.4,2-0.9,3.1-1.5
							c1.1-0.6,2.2-1.3,3.3-2.1c0.5-0.4,1-0.8,1.5-1.3c0.5-0.4,0.9-0.9,1.3-1.4c0.3-0.5,0.7-1,0.9-1.5c0.3-0.5,0.4-1,0.6-1.4
							c0.1-0.5,0.2-0.9,0.2-1.3c0-0.4,0.1-0.7,0-1c-0.1-0.6-0.1-0.9-0.1-0.9L247.6,90.2z"/>
					</g>
					<g>
						<path class="st68" d="M245.6,86.4c0,0-0.4-0.2-1.2-0.6c-0.4-0.2-0.9-0.4-1.4-0.7c-0.3-0.1-0.6-0.3-0.9-0.4
							c-0.3-0.1-0.6-0.2-1-0.4c-0.7-0.3-1.4-0.5-2.2-0.8c-0.8-0.3-1.6-0.5-2.5-0.8c-0.9-0.3-1.8-0.5-2.7-0.7
							c-0.9-0.2-1.9-0.4-2.9-0.6c-1-0.2-1.9-0.3-2.9-0.5c-1-0.2-1.9-0.2-2.8-0.4c-0.9-0.1-1.8-0.2-2.6-0.3c-0.8-0.1-1.6-0.1-2.4-0.2
							c-1.5-0.1-2.7-0.2-3.6-0.2c-0.9,0-1.4-0.1-1.4-0.1s0.5,0,1.4,0c0.9,0,2.1,0,3.6,0.1c0.7,0,1.5,0.1,2.4,0.1
							c0.8,0,1.7,0.1,2.7,0.2c0.9,0.1,1.9,0.1,2.8,0.3c1,0.1,1.9,0.2,2.9,0.4c1,0.2,1.9,0.4,2.9,0.5c1,0.2,1.9,0.4,2.8,0.6
							c0.9,0.2,1.8,0.4,2.6,0.7c0.8,0.3,1.6,0.5,2.3,0.8c0.4,0.1,0.7,0.2,1,0.4c0.3,0.1,0.6,0.3,0.9,0.4c0.5,0.2,1,0.5,1.4,0.6
							c0.8,0.4,1.2,0.6,1.2,0.6L245.6,86.4z"/>
					</g>
					<path class="st69" d="M253.7,88.4c0,0,3.5-0.6,2.9,5.6"/>
				</g>
				<g>
					
						<linearGradient id="SVGID_00000155835888461378536420000004820956698179424646_" gradientUnits="userSpaceOnUse" x1="257.437" y1="299.5327" x2="230.0143" y2="289.6139" gradientTransform="matrix(1 0 0 -1 0 382)">
						<stop  offset="0" style="stop-color:#FFFFFF"/>
						<stop  offset="1" style="stop-color:#FFFFFF;stop-opacity:0"/>
					</linearGradient>
					<path style="fill:url(#SVGID_00000155835888461378536420000004820956698179424646_);" d="M227.3,83.4c1.9-3,15.5,1.7,16.5,6.4
						s-7.4,11.3-9.6,11.2C232.1,101,222.8,90.5,227.3,83.4z"/>
					
						<linearGradient id="SVGID_00000008127399293820911380000011321468605429549490_" gradientUnits="userSpaceOnUse" x1="269.4905" y1="308.0518" x2="238.54" y2="296.8568" gradientTransform="matrix(1 0 0 -1 0 382)">
						<stop  offset="0" style="stop-color:#FFFFFF"/>
						<stop  offset="1" style="stop-color:#FFFFFF;stop-opacity:0"/>
					</linearGradient>
					<path style="fill:url(#SVGID_00000008127399293820911380000011321468605429549490_);" d="M232.8,78.6c0,0,13,4.1,16.9,6
						c3.9,1.9,3.4,2.3,5.5,3c2.1,0.7-1.9-8-7.9-8.9S232.8,78.6,232.8,78.6z"/>
				</g>
				<g>
					<polygon class="st72" points="246.5,90.1 253.7,88.4 253.2,82.2 247.2,83.9 245.7,86.3 					"/>
					<polygon class="st73" points="247.2,83.9 248.4,88 253.7,88.4 253.2,82.2 					"/>
				</g>
				<path class="st74" d="M230,77.6c-9.6,1.5-19.1,4.5-24.1,6.5c0.2,3.3,1.4,18.1,12.1,19.2c1.6,0.2,3.3,0.2,5.2,0.2
					c3,0,6.3-0.2,9.6-0.6C221.4,94.8,220.7,84.6,230,77.6z"/>
				
					<linearGradient id="SVGID_00000131347484171864385900000006332480728875836806_" gradientUnits="userSpaceOnUse" x1="234.246" y1="306.462" x2="234.246" y2="306.462" gradientTransform="matrix(1 0 0 -1 0 382)">
					<stop  offset="0" style="stop-color:#FFFFFF"/>
					<stop  offset="1" style="stop-color:#FFFFFF;stop-opacity:0"/>
				</linearGradient>
				<path style="fill:url(#SVGID_00000131347484171864385900000006332480728875836806_);" d="M234.2,75.5"/>
			</g>
			<g>
				<path class="st76" d="M96.4,49.1l-23.7,8.6v58h30.7h26V55.4c0,0-14.6-1.4-26-6.3C103.5,49.1,96.4,49.1,96.4,49.1z"/>
				<path class="st77" d="M75.3,61.1l18-8.4v51.7c0,0-2.2,3.5-18,6C75.3,102.7,75.3,59.7,75.3,61.1z"/>
				<path class="st77" d="M105.1,52.7c0,0,12.2,4.7,21.2,5.2c0,7.5,0,53.1,0,53.1c-9.8-1.8-17.7-3.8-20.2-6.3
					C106.1,98.6,105.1,52.7,105.1,52.7z"/>
				<rect x="96.4" y="47.1" class="st78" width="7.1" height="60.6"/>
				<path class="st76" d="M76.9,112.1c0,0,12.5,0.1,19.6-4.4s0,6.6,0,6.6L76.9,112.1z"/>
			</g>
			<g>
				<g>
					<path class="st79" d="M204.9,96.4c0,4.4-3.6,8-8,8h-58c-4.4,0-8-3.6-8-8v-58c0-4.4,3.6-8,8-8h58c4.4,0,8,3.6,8,8V96.4z"/>
					<path class="st80" d="M204.9,96.4c0,4.4-3.6,8-8,8h-58c-4.4,0-8-3.6-8-8v-58c0-4.4,3.6-8,8-8h58c4.4,0,8,3.6,8,8V96.4z"/>
				</g>
				<path class="st81" d="M160.2,73.2c-4.5-1-17-20.2-2.6-14.1c0-1.9,1.3-4.1,1.4-5.9c1.5,1.4,5.1,2.1,6.6,3.2
					c2.2-6.3,4-13.6,10.6-16.9c0.3,5.6-1.9,11-3.2,16.2c6.2-1.4,12.7-4.7,18.9-2c0.1,0,0.1,1,0.1,1c-2.3,1.1-4.8,3.6-7.2,4.6
					c3.7-0.4,6.5,1,9.5,1.4c-3.6,2.2-9.5,5.2-11.6,9c-1.8,3.2,2.3,7.8,0.3,10.4C170.1,92.3,158.8,75.8,160.2,73.2z"/>
				<g>
					<g>
						<path class="st82" d="M168.6,57.8c0,0,0.5-0.2,1.4-0.6c0.4-0.2,1-0.5,1.6-0.7c0.6-0.3,1.3-0.6,2-1c0.7-0.4,1.5-0.8,2.3-1.3
							c0.8-0.5,1.6-1,2.5-1.5c0.9-0.5,1.8-1.1,2.6-1.7c0.9-0.6,1.8-1.3,2.6-1.9c0.8-0.7,1.7-1.4,2.5-2c0.9-0.7,1.6-1.4,2.4-2.1
							c0.7-0.7,1.5-1.3,2.1-2c0.6-0.7,1.2-1.3,1.8-1.9c0.3-0.3,0.5-0.6,0.8-0.9c0.2-0.3,0.5-0.6,0.7-0.8c0.4-0.5,0.8-1,1.1-1.3
							c0.6-0.8,0.9-1.2,0.9-1.2s-0.3,0.4-0.9,1.2c-0.3,0.4-0.6,0.9-1,1.4c-0.2,0.3-0.4,0.6-0.6,0.9c-0.2,0.3-0.5,0.6-0.8,0.9
							c-0.5,0.6-1.1,1.3-1.7,2c-0.6,0.7-1.3,1.4-2,2.2c-0.7,0.7-1.4,1.5-2.3,2.2c-0.8,0.7-1.6,1.5-2.4,2.2c-0.9,0.7-1.7,1.4-2.6,2.1
							c-0.8,0.7-1.7,1.3-2.5,1.9c-0.8,0.6-1.6,1.2-2.4,1.7c-0.8,0.5-1.6,1-2.3,1.4c-0.7,0.5-1.4,0.9-2,1.2c-0.6,0.3-1.1,0.6-1.5,0.8
							c-0.8,0.5-1.3,0.7-1.3,0.7L168.6,57.8z"/>
					</g>
					<g>
						<path class="st82" d="M167.1,60c0,0-0.5,0-1.4-0.1c-0.4,0-1-0.1-1.6-0.2c-0.6-0.1-1.3-0.2-2.1-0.4c-0.8-0.1-1.5-0.4-2.4-0.6
							c-0.8-0.3-1.7-0.5-2.6-0.9c-0.9-0.3-1.8-0.7-2.7-1.1c-0.9-0.4-1.8-0.9-2.7-1.3c-0.9-0.5-1.8-1-2.6-1.5c-0.8-0.5-1.6-1-2.4-1.6
							c-0.8-0.5-1.5-1.1-2.2-1.6c-0.7-0.5-1.3-1-1.9-1.5c-0.6-0.5-1.1-0.9-1.5-1.4c-0.4-0.4-0.8-0.8-1.1-1.1c-0.6-0.6-0.9-1-0.9-1
							s0.4,0.3,1,0.9c0.3,0.3,0.7,0.6,1.2,1c0.4,0.4,1,0.8,1.6,1.3c0.6,0.5,1.3,0.9,1.9,1.4c0.7,0.5,1.5,1,2.2,1.4
							c0.8,0.5,1.6,1,2.5,1.4c0.8,0.5,1.7,0.9,2.6,1.3c0.9,0.4,1.8,0.8,2.7,1.1c0.9,0.4,1.8,0.7,2.7,0.9c0.9,0.3,1.7,0.5,2.5,0.7
							c0.8,0.2,1.6,0.4,2.3,0.4c0.7,0.1,1.4,0.2,1.9,0.2c0.6,0,1,0.1,1.5,0.1c0.9,0,1.4,0,1.4,0L167.1,60z"/>
					</g>
					<g>
						<path class="st82" d="M164.6,57.2c0,0-0.2-0.3-0.7-0.8c-0.2-0.2-0.5-0.5-0.8-0.9c-0.1-0.2-0.3-0.3-0.5-0.5
							c-0.2-0.2-0.3-0.4-0.5-0.7c-0.3-0.5-0.7-1-1.1-1.5c-0.4-0.5-0.7-1.1-1-1.7c-0.3-0.6-0.7-1.2-1-1.9c-0.3-0.7-0.6-1.3-0.9-2
							c-0.3-0.7-0.5-1.4-0.8-2.1c-0.3-0.7-0.5-1.4-0.7-2c-0.2-0.7-0.4-1.3-0.6-1.9c-0.2-0.6-0.3-1.2-0.4-1.7c-0.3-1.1-0.4-2-0.6-2.6
							c-0.1-0.6-0.2-1-0.2-1s0.1,0.3,0.3,1c0.2,0.6,0.4,1.5,0.8,2.5c0.2,0.5,0.4,1.1,0.6,1.7c0.2,0.6,0.5,1.2,0.7,1.8
							c0.3,0.6,0.5,1.3,0.8,1.9c0.3,0.6,0.6,1.3,0.9,1.9c0.3,0.6,0.7,1.3,1,1.9c0.3,0.6,0.7,1.2,1.1,1.7c0.4,0.5,0.7,1.1,1.1,1.6
							c0.4,0.5,0.7,0.9,1.1,1.3c0.2,0.2,0.3,0.4,0.5,0.6c0.2,0.2,0.3,0.3,0.5,0.5c0.3,0.3,0.6,0.6,0.8,0.8c0.5,0.4,0.7,0.7,0.7,0.7
							L164.6,57.2z"/>
					</g>
					<g>
						<path class="st82" d="M169.3,64.7c0,0-0.5,0.1-1.5,0.2c-0.5,0.1-1,0.2-1.7,0.3c-0.3,0.1-0.7,0.1-1,0.2
							c-0.4,0.1-0.7,0.2-1.1,0.3c-0.8,0.2-1.6,0.4-2.5,0.6c-0.9,0.2-1.8,0.5-2.8,0.8c-1,0.3-2,0.6-3,0.9c-1,0.3-2,0.7-3,1.1
							c-1,0.4-2,0.8-3,1.2c-1,0.4-1.9,0.8-2.9,1.2c-0.9,0.4-1.8,0.8-2.7,1.2c-0.8,0.4-1.6,0.8-2.3,1.2c-1.5,0.7-2.6,1.4-3.5,1.8
							c-0.8,0.4-1.3,0.7-1.3,0.7s0.5-0.3,1.3-0.8c0.8-0.5,1.9-1.2,3.4-2c0.7-0.4,1.5-0.8,2.3-1.3c0.8-0.5,1.7-0.9,2.6-1.4
							c0.9-0.5,1.8-1,2.8-1.4c1-0.5,2-0.9,2.9-1.4c1-0.4,2-0.8,3-1.2c1-0.4,2-0.8,2.9-1.1c1-0.3,1.9-0.7,2.8-1
							c0.9-0.3,1.8-0.5,2.6-0.7c0.4-0.1,0.8-0.2,1.1-0.3c0.4-0.1,0.7-0.2,1-0.2c0.6-0.1,1.2-0.3,1.7-0.4c0.9-0.2,1.5-0.3,1.5-0.3
							L169.3,64.7z"/>
					</g>
					<g>
						<path class="st82" d="M177.7,63.8c0,0,0.2,0.4,0.5,1.2c0.2,0.4,0.4,0.8,0.6,1.3c0.3,0.5,0.5,1,0.9,1.6
							c0.2,0.3,0.4,0.6,0.6,0.9c0.2,0.3,0.5,0.6,0.7,0.9c0.5,0.7,1,1.3,1.6,1.9c0.6,0.6,1.2,1.3,1.9,1.9c0.7,0.6,1.4,1.2,2.2,1.8
							c3,2.3,6.3,4.3,8.7,5.9c2.4,1.5,4,2.6,4,2.6s-1.7-1-4.2-2.3c-2.5-1.4-5.9-3.2-9.1-5.4c-0.8-0.6-1.6-1.1-2.3-1.7
							c-0.8-0.6-1.5-1.2-2.1-1.8c-0.6-0.7-1.3-1.3-1.8-1.9c-0.3-0.3-0.6-0.6-0.8-0.9c-0.2-0.3-0.5-0.6-0.7-0.9
							c-0.5-0.6-0.8-1.2-1.1-1.7c-0.3-0.5-0.6-1-0.8-1.3c-0.4-0.7-0.6-1.2-0.6-1.2L177.7,63.8z"/>
					</g>
				</g>
				<path class="st83" d="M158.2,70.1c-4.5-1-17-20.2-2.6-14.1c0-1.9,1.3-4.1,1.4-5.9c1.5,1.4,5.1,2.1,6.6,3.2
					c2.2-6.3,4-13.6,10.6-16.9c0.3,5.6-1.9,11-3.2,16.2c6.2-1.4,12.7-4.7,18.9-2c0.1,0,0.1,1,0.1,1c-2.3,1.1-4.8,3.6-7.2,4.6
					c3.7-0.4,6.5,1,9.5,1.4c-3.6,2.2-9.5,5.2-11.6,9c-1.8,3.2,2.3,7.8,0.3,10.4C168.1,89.2,156.8,72.6,158.2,70.1z"/>
				<g>
					
						<linearGradient id="SVGID_00000123417210463694967050000007014232276947531162_" gradientUnits="userSpaceOnUse" x1="149.3095" y1="349.9189" x2="202.3177" y2="315.2465" gradientTransform="matrix(1 0 0 -1 0 382)">
						<stop  offset="0" style="stop-color:#E09A28"/>
						<stop  offset="1" style="stop-color:#E09A28;stop-opacity:0"/>
					</linearGradient>
					<path style="fill:url(#SVGID_00000123417210463694967050000007014232276947531162_);" d="M173.7,52.5c-0.2,0.8-0.4,1.5-0.6,2.3
						c5.1-1.2,10.4-3.6,15.6-2.9c0.3-0.2,0.5-0.3,0.8-0.5c0-0.1,0-0.3,0-0.4c-1.5-0.6-3-0.9-4.8-0.9c-3.1,0-6.2,0.9-9.3,1.8
						C174.8,52.2,174.2,52.4,173.7,52.5z"/>
					
						<linearGradient id="SVGID_00000032614716282086530290000005548604371670912953_" gradientUnits="userSpaceOnUse" x1="148.874" y1="349.2427" x2="201.8741" y2="314.5756" gradientTransform="matrix(1 0 0 -1 0 382)">
						<stop  offset="0" style="stop-color:#E09A28"/>
						<stop  offset="1" style="stop-color:#E09A28;stop-opacity:0"/>
					</linearGradient>
					<path style="fill:url(#SVGID_00000032614716282086530290000005548604371670912953_);" d="M190.9,58c-0.6-0.1-1.2-0.3-1.8-0.4
						c-0.6-0.2-1.3-0.3-1.9-0.4c-0.8,0.5-1.6,1-2.3,1.3c1.7-0.2,3.3,0,4.7,0.3c0.3-0.2,0.7-0.4,1-0.6
						C190.6,58.1,190.8,58.1,190.9,58z"/>
					
						<linearGradient id="SVGID_00000152261287193420245360000016768563460030630822_" gradientUnits="userSpaceOnUse" x1="144.7859" y1="342.9865" x2="197.7781" y2="308.3246" gradientTransform="matrix(1 0 0 -1 0 382)">
						<stop  offset="0" style="stop-color:#E09A28"/>
						<stop  offset="1" style="stop-color:#E09A28;stop-opacity:0"/>
					</linearGradient>
					<path style="fill:url(#SVGID_00000152261287193420245360000016768563460030630822_);" d="M157.7,58.1c0-1.9,1.3-4.1,1.4-5.9
						c1.5,1.4,5.1,2.1,6.6,3.2c1.9-5.3,3.4-11.3,7.8-15.1c0.1-1,0.2-2.1,0.2-3.1c-5.1,2.9-7,8.5-8.8,13.9c-0.3,0.8-0.5,1.6-0.8,2.4
						l-0.2,0.6l-0.5-0.4c-0.6-0.5-1.7-0.9-2.9-1.3c-1.1-0.4-2.2-0.8-3.1-1.4c-0.1,0.6-0.3,1.3-0.6,2c-0.3,1-0.7,2.1-0.7,3l0,0.7
						l-0.7-0.3c-1.8-0.8-3.3-1.2-4.3-1.2c-1.4,0-1.6,0.7-1.7,1.3c-0.2,2,1.8,5.8,4.1,8.7C150.2,60.1,148.9,54.4,157.7,58.1z"/>
				</g>
				<path class="st82" d="M165.7,72.9c0.1,0.2,0-2,3.6-4.5s13.6-7.6,13.6-7.6s-9.7,1.9-12.4,2.4s3.7-4.8,3.7-4.8s-2.9,1.9-3.7,2.4
					s0.4-4.6,0-5.2s-2.6,3.4-2.7,4.6s0-10.1,0-10.1l-1.5,12.2L158,59c0,0,4.6,1.7,8,5.6C169.3,68.4,164.8,70.9,165.7,72.9z"/>
				
					<linearGradient id="SVGID_00000137850317987143407840000005623755140217189008_" gradientUnits="userSpaceOnUse" x1="153.7085" y1="367.5933" x2="173.7085" y2="310.5933" gradientTransform="matrix(1 0 0 -1 0 382)">
					<stop  offset="0" style="stop-color:#E09A28"/>
					<stop  offset="1" style="stop-color:#E09A28;stop-opacity:0"/>
				</linearGradient>
				<path style="fill:url(#SVGID_00000137850317987143407840000005623755140217189008_);" d="M134.8,73.2c0,0-3.2-32.1,0-37.4
					c2.9-2.8,9-3.5,12-3.3s49.5,0.5,52.8,1.2s2.5,40.4,2.5,40.4s-15.5,0.9-15.2-4.2c0.2-5.2,13.8-6.4,12.8-13.4s-7.3-3.2-7.3-3.2
					l5.8-11c0,0,4.2-7.8-5.8-6.3c-3.6,1.2-6.5,11.6-13,11.5c-2.5-1-1.5-11.7-1.5-11.7s-7.2-4.8-12.5,3.8s-2.3,7.9-2.3,7.9
					s-4.9-14.3-7.9-13s-1.9,9.6,0,12.6s-6.2-2.1-6.2-2.1l2,5.9c0,0-13-10.4-13.8-8.2s3,9.5,10.2,13.7s-3.2,5.6-3.2,5.6l6.8,4.4
					L134.8,73.2z"/>
			</g>
		</g>
		<g>
			<path class="st88" d="M163.8,170h83.5c0,0-4-64.2-25.5-81.1c-8.5-6.7-27-13.3-58-13.3s-49.6,6.7-58.1,13.3
				C84.3,105.8,80.3,170,80.3,170H163.8z"/>
			
				<linearGradient id="SVGID_00000023276437784074227990000012345275633194333108_" gradientUnits="userSpaceOnUse" x1="137.7525" y1="324.1976" x2="162.4195" y2="248.8641" gradientTransform="matrix(1 0 0 -1 0 382)">
				<stop  offset="0" style="stop-color:#A06ABA"/>
				<stop  offset="1" style="stop-color:#A06ABA;stop-opacity:0"/>
			</linearGradient>
			<path style="fill:url(#SVGID_00000023276437784074227990000012345275633194333108_);" d="M163.8,109c28.5,0,54.1,12,71.8,31.2
				c-3.2-17.3-9-38.3-19.6-46.6c-7.6-6-24.3-12-52.2-12s-44.7,6-52.3,12c-10.5,8.3-16.4,29.2-19.6,46.6
				C109.7,121,135.3,109,163.8,109z"/>
			<ellipse class="st88" cx="163.8" cy="202.9" rx="91" ry="88.6"/>
			
				<linearGradient id="SVGID_00000003797337392562602780000016648140997594353851_" gradientUnits="userSpaceOnUse" x1="163.792" y1="263.1216" x2="163.792" y2="126.0385" gradientTransform="matrix(1 0 0 -1 0 382)">
				<stop  offset="0" style="stop-color:#A06ABA"/>
				<stop  offset="1" style="stop-color:#A06ABA;stop-opacity:0"/>
			</linearGradient>
			
				<ellipse style="fill:url(#SVGID_00000003797337392562602780000016648140997594353851_);" cx="163.8" cy="202.9" rx="81.9" ry="79.7"/>
			<g>
				<g class="st91">
					
						<linearGradient id="SVGID_00000127010541067892843490000015016596828050579862_" gradientUnits="userSpaceOnUse" x1="185.1176" y1="164.5321" x2="187.7845" y2="141.1991" gradientTransform="matrix(1 0 0 -1 0 382)">
						<stop  offset="1.020000e-02" style="stop-color:#572270"/>
						<stop  offset="1" style="stop-color:#572270;stop-opacity:0"/>
					</linearGradient>
					<path style="fill:url(#SVGID_00000127010541067892843490000015016596828050579862_);" d="M185.6,219.9
						c-0.2-0.1-0.3-0.3-0.4-0.5c-0.1,0-0.1-0.1-0.2-0.1c0.1,0.1,0.1,0.1,0.1,0.2C185.4,219.6,185.5,219.8,185.6,219.9z"/>
					
						<linearGradient id="SVGID_00000180326825550323266030000010456004856152961950_" gradientUnits="userSpaceOnUse" x1="193.2539" y1="165.4618" x2="195.9209" y2="142.1289" gradientTransform="matrix(1 0 0 -1 0 382)">
						<stop  offset="1.020000e-02" style="stop-color:#572270"/>
						<stop  offset="1" style="stop-color:#572270;stop-opacity:0"/>
					</linearGradient>
					<path style="fill:url(#SVGID_00000180326825550323266030000010456004856152961950_);" d="M191.9,205.9
						C191.9,205.9,191.9,205.9,191.9,205.9C191.9,205.9,191.9,205.9,191.9,205.9C192.3,205.9,192.3,205.9,191.9,205.9z"/>
					
						<linearGradient id="SVGID_00000172430825981791952090000014104589460763078050_" gradientUnits="userSpaceOnUse" x1="164.9255" y1="162.2255" x2="167.5925" y2="138.8925" gradientTransform="matrix(1 0 0 -1 0 382)">
						<stop  offset="1.020000e-02" style="stop-color:#572270"/>
						<stop  offset="1" style="stop-color:#572270;stop-opacity:0"/>
					</linearGradient>
					<path style="fill:url(#SVGID_00000172430825981791952090000014104589460763078050_);" d="M191.9,205.9
						c-4.6-1.8-7.5-5.4-12.1-7.5c0,0-0.2-1.4-0.1-1.3c2.5-1.8,5.2-6.1,7.4-7.4c-5.2,1.2-11.4,0.7-16.6,2.2c0.1-4,1.4-8.1,3.7-11.6
						c0,0-5.2,5.7-6.8,9.4c-1-2.8-6.1-8.9-6.1-8.9s-2.2,7.3-2.4,10.6c-2.2-2.4-5.1-3.2-7.4-7.6c1,3,0.2,6.5,0.8,9.5
						c-3.8-1-12.9-1.2-12.9-1.2s5.8,7.6,9.3,10.1c-4.2,1.7-8.3,6-13.1,7c3.9,0.6,8.3,3.7,12.5,4.8c-3.6,1.9-11.6,7.1-11.6,7.1
						s6.4-0.4,12.3,1.3l3.7-4.5v5.9c2.4,1.3,4.4,3.1,5.4,5.7c0.5-2.7,4.6-10,4.6-9.8c2.3,3.6,5.1,4.2,7,9.2
						c0.4-10,6.7-15.4,15.6-9.7C179.9,211.7,182.4,205.9,191.9,205.9z"/>
				</g>
				<path class="st88" d="M183.9,216.7c-0.1-0.1-0.3-0.3-0.3-0.5c-0.1,0-0.1-0.1-0.2-0.1c0,0.1,0.1,0.1,0.1,0.2
					C183.7,216.5,183.8,216.6,183.9,216.7z"/>
				<path class="st88" d="M189.8,203.7C189.7,203.7,189.7,203.7,189.8,203.7C189.7,203.7,189.7,203.7,189.8,203.7
					C190.1,203.7,190.1,203.7,189.8,203.7z"/>
				<path class="st95" d="M189.7,203.7c-4.3-1.7-7-5-11.2-7c0,0-0.1-1.3-0.1-1.2c2.3-1.7,4.8-5.6,6.9-6.8c-4.8,1.1-10.5,0.7-15.4,2
					c0.1-3.7,1.3-7.5,3.4-10.7c0,0-4.8,5.3-6.3,8.7c-0.9-2.6-5.6-8.2-5.6-8.2s-2.1,6.8-2.2,9.8c-2-2.2-4.7-3-6.9-7.1
					c0.9,2.7,0.2,6,0.7,8.8c-3.5-0.9-12-1.1-12-1.1s5.4,7.1,8.6,9.4c-3.9,1.6-7.6,5.5-12.1,6.5c3.7,0.5,7.7,3.4,11.6,4.4
					c-3.3,1.8-10.7,6.6-10.7,6.6s5.9-0.4,11.4,1.2l3.5-4.1v5.5c2.2,1.2,4.1,2.9,5,5.3c0.5-2.5,4.3-9.3,4.2-9.1
					c2.1,3.3,4.8,3.9,6.4,8.5c0.4-9.3,6.2-14.2,14.4-9C178.6,209.1,180.9,203.8,189.7,203.7z"/>
			</g>
			
				<radialGradient id="SVGID_00000003824851313288852200000015251418749515132321_" cx="163.658" cy="179.145" r="10.743" gradientTransform="matrix(1 0 0 -1 0 382)" gradientUnits="userSpaceOnUse">
				<stop  offset="0" style="stop-color:#D8D8D8"/>
				<stop  offset="0.4478" style="stop-color:#AFADB2"/>
				<stop  offset="1" style="stop-color:#4E4F52"/>
			</radialGradient>
			
				<circle style="fill:url(#SVGID_00000003824851313288852200000015251418749515132321_);stroke:#2B2B2B;stroke-width:2;stroke-miterlimit:10;" cx="163.7" cy="202.9" r="10.7"/>
			
				<linearGradient id="SVGID_00000030472672778049397770000006420265721576379558_" gradientUnits="userSpaceOnUse" x1="163.658" y1="192.7842" x2="163.658" y2="175.5342" gradientTransform="matrix(1 0 0 -1 0 382)">
				<stop  offset="0" style="stop-color:#FFFFFF"/>
				<stop  offset="1" style="stop-color:#FFFFFF;stop-opacity:0"/>
			</linearGradient>
			<circle style="fill:url(#SVGID_00000030472672778049397770000006420265721576379558_);" cx="163.7" cy="201.6" r="6.1"/>
		</g>
	</g>
</g>
</svg>
