<?xml version="1.0" encoding="UTF-8" standalone="no"?>
<!-- Generator: Adobe Illustrator 18.0.0, SVG Export Plug-In . SVG Version: 6.00 Build 0) -->

<svg
   xmlns:dc="http://purl.org/dc/elements/1.1/"
   xmlns:cc="http://creativecommons.org/ns#"
   xmlns:rdf="http://www.w3.org/1999/02/22-rdf-syntax-ns#"
   xmlns:svg="http://www.w3.org/2000/svg"
   xmlns="http://www.w3.org/2000/svg"
   xmlns:sodipodi="http://sodipodi.sourceforge.net/DTD/sodipodi-0.dtd"
   xmlns:inkscape="http://www.inkscape.org/namespaces/inkscape"
   id="Layer_1"
   xml:space="preserve"
   version="1.1"
   x="0px"
   y="0px"
   width="250.9px"
   height="396.5px"
   viewBox="0 0 250.9 396.5"
   enable-background="new 0 0 250.9 396.5"
   inkscape:version="0.48.4 r9939"
   sodipodi:docname="Kirsty.svg"><metadata
     id="metadata7492"><rdf:RDF><cc:Work
         rdf:about=""><dc:format>image/svg+xml</dc:format><dc:type
           rdf:resource="http://purl.org/dc/dcmitype/StillImage" /></cc:Work></rdf:RDF></metadata><defs
     id="defs7490" /><sodipodi:namedview
     pagecolor="#ffffff"
     bordercolor="#666666"
     borderopacity="1"
     objecttolerance="10"
     gridtolerance="10"
     guidetolerance="10"
     inkscape:pageopacity="0"
     inkscape:pageshadow="2"
     inkscape:window-width="1920"
     inkscape:window-height="1028"
     id="namedview7488"
     showgrid="false"
     inkscape:zoom="2.1261034"
     inkscape:cx="71.125264"
     inkscape:cy="198.25"
     inkscape:window-x="0"
     inkscape:window-y="515"
     inkscape:window-maximized="1"
     inkscape:current-layer="Layer_1" /><path
     enable-background="new "
     d="m 133.72917,120.8029 c 60.6,-4.2 112.4,26.7 115.6,68.9 3.2,42.3 -43.4,79.9 -104,84.1 -60.600003,4.2 -112.400003,-26.6 -115.600003,-68.9 -3.2,-42.3 43.4,-79.9 104.000003,-84.1 z"
     id="path7072"
     inkscape:connector-curvature="0"
     style="opacity:0.1" /><path
     stroke-miterlimit="10"
     d="m 152.82917,140.2029 c 0,0 15.2,-12.1 23.7,-9.7 8.5,2.4 2.6,23.4 2.6,23.4 l -26.3,-13.7 z"
     id="path7074"
     inkscape:connector-curvature="0"
     style="fill:#ffcc83;stroke:#bc802f;stroke-width:2;stroke-miterlimit:10" /><path
     enable-background="new "
     d="m 154.32917,140.1029 24.2,12.6 c 0.7,-2.7 1.5,-6.8 1.6,-10.7 -5.5,-2.9 -13.4,-4.8 -19.4,-6.2 -2.7,1.6 -5.1,3.3 -6.4,4.3 z"
     id="path7076"
     inkscape:connector-curvature="0"
     style="opacity:0.5;fill:#bc802f" /><path
     stroke-miterlimit="10"
     d="m 127.62917,142.0029 c 0,0 -15.2,-12.1 -23.7,-9.7 -8.500003,2.4 -2.6,23.4 -2.6,23.4 l 26.3,-13.7 z"
     id="path7078"
     inkscape:connector-curvature="0"
     style="fill:#ffcc83;stroke:#bc802f;stroke-width:2;stroke-miterlimit:10" /><path
     enable-background="new "
     d="m 100.32917,145.2029 c 0.3,3.5 0.9,7 1.5,9.4 l 24.2,-12.6 c -2,-1.5 -6.7,-4.8 -11.7,-7 -5.3,1.8 -10.4,5.8 -14,10.2 z"
     id="path7080"
     inkscape:connector-curvature="0"
     style="opacity:0.5;fill:#bc802f" /><linearGradient
     id="SVGID_1_"
     y2="209.33"
     gradientUnits="userSpaceOnUse"
     x2="203.65"
     gradientTransform="matrix(1,0,0,-1,0,396)"
     y1="209.33"
     x1="83.045"><stop
       stop-color="#953752"
       offset="0"
       id="stop7083" /><stop
       stop-color="#72243C"
       offset="1"
       id="stop7085" /></linearGradient><ellipse
     rx="60.299999"
     ry="48.799999"
     cy="186.7"
     cx="143.3"
     stroke-miterlimit="10"
     id="ellipse7087"
     style="fill:url(#SVGID_1_);stroke:#4c1026;stroke-width:2;stroke-miterlimit:10"
     sodipodi:cx="143.3"
     sodipodi:cy="186.7"
     sodipodi:rx="60.299999"
     sodipodi:ry="48.799999"
     transform="translate(0.02916667,-0.29710455)" /><ellipse
     cy="188.89999"
     cx="143.3"
     rx="57.5"
     ry="46.5"
     id="ellipse7089"
     sodipodi:cx="143.3"
     sodipodi:cy="188.89999"
     sodipodi:rx="57.5"
     sodipodi:ry="46.5"
     transform="translate(0.02916667,-0.29710455)"
     style="fill:#5e0e2f" /><linearGradient
     id="SVGID_2_"
     y2="220.53"
     gradientUnits="userSpaceOnUse"
     x2="217.08"
     gradientTransform="matrix(1,0,0,-1,0.02916667,395.7029)"
     y1="259.3"
     x1="200.37"><stop
       stop-color="#F7D7B8"
       offset="0"
       id="stop7092" /><stop
       stop-color="#F7CFAF"
       offset=".483"
       id="stop7094" /><stop
       stop-color="#F7C7A6"
       offset="1"
       id="stop7096" /></linearGradient><path
     stroke-miterlimit="10"
     d="m 186.72917,148.9029 c 2.3,-3.6 17.1,-16.9 37.6,-7.7 7.5,2.9 6.2,16.7 6.2,16.7 0,0 0.2,13.1 -23.7,14.9 -24,1.9 -21.3,-22 -20.1,-23.9 z"
     id="path7098"
     style="fill:url(#SVGID_2_);stroke:#af7045;stroke-width:2;stroke-miterlimit:10"
     inkscape:connector-curvature="0" /><path
     d="m 212.42917,163.2029 c -8.4,-0.5 -19.1,-9.7 -24.3,-14.7 -0.3,0.3 -0.5,0.6 -0.7,0.9 -0.6,1 -1.7,9.4 2.1,15.6 3.2,5.3 9,7.7 17.2,7.1 13.1,-1 18.7,-5.5 21.1,-9.1 -3.2,-0.1 -7.8,0.6 -15.4,0.2 z"
     id="path7100"
     inkscape:connector-curvature="0"
     style="fill:#d89060" /><path
     d="m 210.12917,138.9029 c -7.2,0 -12.9,2.5 -16.8,5.1 5.2,4.7 15.6,8.3 15.6,8.3 0,0 10.2,-7.6 14.9,-6.5 l -8.4,-4.1 c 0,0 0.3,-1 0.7,-2.2 -2,-0.4 -4,-0.6 -6,-0.6 z"
     id="path7102"
     inkscape:connector-curvature="0"
     style="fill:#d89060" /><linearGradient
     id="SVGID_3_"
     y2="259.82"
     gradientUnits="userSpaceOnUse"
     x2="205.86"
     gradientTransform="matrix(1,0,0,-1,0.02916667,395.7029)"
     y1="259.82"
     x1="175.13"><stop
       stop-color="#2FAC66"
       offset=".005"
       id="stop7105" /><stop
       stop-color="#2F8166"
       offset="1"
       id="stop7107" /></linearGradient><path
     stroke-miterlimit="10"
     d="m 193.92917,147.4029 c 0,0 -18.6,-7.8 -18.8,-8.4 -0.2,-0.6 12.6,-0.4 13.2,0 0.6,0.4 -9.8,-8.2 -9.8,-8.2 l 13.7,5.1 -2.8,-11.5 16.4,21.3 -11.9,1.7 z"
     id="path7109"
     style="fill:url(#SVGID_3_);stroke:#12753a;stroke-width:2;stroke-miterlimit:10"
     inkscape:connector-curvature="0" /><linearGradient
     id="SVGID_4_"
     y2="260.4"
     gradientUnits="userSpaceOnUse"
     x2="217.13"
     gradientTransform="matrix(1,0,0,-1,0,396)"
     y1="260.4"
     x1="197.33"><stop
       stop-color="#2FAC66"
       offset=".005"
       id="stop7112" /><stop
       stop-color="#2F8166"
       offset="1"
       id="stop7114" /></linearGradient><polygon
     stroke-miterlimit="10"
     points="203.7,134.7 208.6,121.9 208.6,138.3 217.1,131.5 209.3,151 200.5,149.2 197.3,120.2 "
     id="polygon7116"
     style="fill:url(#SVGID_4_);stroke:#12753a;stroke-width:2;stroke-miterlimit:10"
     transform="translate(0.02916667,-0.29710455)" /><path
     d="m 214.42917,149.5029 c 0,0 2.5,-1.6 5.2,-2.6 0.7,-0.2 1.4,-0.5 2.1,-0.6 0.3,-0.1 0.7,-0.1 1,-0.1 0.3,-0.1 0.6,0 0.9,0 0.3,0 0.5,0.1 0.7,0.1 0.2,0 0.4,0.1 0.6,0.1 0.3,0.1 0.5,0.2 0.5,0.2 0,0 -0.2,0 -0.5,-0.1 -0.1,-0.1 -0.3,-0.1 -0.6,-0.1 -0.2,0 -0.5,-0.1 -0.7,0 -0.3,0 -0.6,0 -0.9,0.1 -0.3,0.1 -0.6,0.1 -0.9,0.2 -0.7,0.2 -1.3,0.4 -2,0.7 -1.3,0.6 -2.5,1.3 -3.4,1.9 l -1.5,1 -0.5,-0.8 z"
     id="path7118"
     inkscape:connector-curvature="0"
     style="fill:#ffeee1" /><linearGradient
     id="SVGID_5_"
     y2="226.31"
     gradientUnits="userSpaceOnUse"
     x2="206.71"
     gradientTransform="matrix(1,0,0,-1,0.02916667,395.7029)"
     y1="260.79"
     x1="206.71"><stop
       stop-color="#F7D7B8"
       offset="0"
       id="stop7121" /><stop
       stop-color="#F7CFAF"
       offset=".483"
       id="stop7123" /><stop
       stop-color="#F7C7A6"
       offset="1"
       id="stop7125" /></linearGradient><path
     d="m 209.32917,162.5029 c -6,-2.7 -15.4,-5.2 -14.9,-13.5 0.4,-8.3 19.4,0.5 24.7,3.7"
     id="path7127"
     style="fill:url(#SVGID_5_)"
     inkscape:connector-curvature="0" /><path
     d="m 209.32917,162.5029 c 0,0 -0.7,-0.3 -2,-0.7 -1.3,-0.4 -3.2,-1 -5.4,-2 -1.1,-0.5 -2.3,-1.1 -3.4,-1.8 -1.1,-0.8 -2.3,-1.7 -3.2,-3 -0.9,-1.3 -1.5,-2.8 -1.7,-4.4 v -1.8 l 0.1,-0.6 c 0.2,-1 0.7,-1.8 1.5,-2.4 0.8,-0.6 1.7,-0.8 2.6,-0.9 0.9,-0.1 1.7,-0.1 2.5,0 1.6,0.2 3.2,0.5 4.6,1 2.9,0.9 5.4,2 7.5,3 2.1,1 3.8,2 5,2.8 1.2,0.7 1.8,1.2 1.8,1.2 0,0 -2.8,-1.4 -7.2,-3.1 -2.2,-0.8 -4.7,-1.8 -7.5,-2.5 -1.4,-0.4 -2.9,-0.6 -4.3,-0.8 -1.4,-0.1 -3,0 -3.9,0.7 -0.5,0.3 -0.7,0.8 -0.9,1.4 l -0.1,0.6 v 1.5 c 0.2,1.4 0.6,2.6 1.3,3.7 0.7,1.1 1.7,2 2.7,2.8 1,0.8 2.1,1.4 3.1,2 1,0.6 2,1 2.8,1.5 0.9,0.4 1.6,0.8 2.2,1.1 0.6,0.3 1.1,0.6 1.4,0.7 0.3,-0.1 0.5,0 0.5,0 z"
     id="path7129"
     inkscape:connector-curvature="0"
     style="fill:#af7045" /><path
     d="m 195.72917,147.8029 c 0,0 0.1,-0.3 0.6,-0.7 0.5,-0.4 1.4,-0.7 2.4,-0.8 1.1,-0.1 2.3,0 3.6,0.2 1.3,0.2 2.6,0.5 4,0.9 1.3,0.4 2.6,0.8 3.8,1.3 1.2,0.4 2.3,0.9 3.3,1.3 0.9,0.4 1.7,0.8 2.3,1 0.5,0.3 0.8,0.4 0.8,0.4 0,0 -0.3,-0.1 -0.9,-0.3 -0.6,-0.2 -1.4,-0.4 -2.4,-0.7 -1,-0.3 -2.1,-0.7 -3.3,-1.1 -1.2,-0.4 -2.5,-0.8 -3.8,-1.2 -1.3,-0.4 -2.6,-0.7 -3.9,-1 -1.2,-0.3 -2.4,-0.5 -3.4,-0.5 -0.5,0 -1,0 -1.4,0.1 -0.4,0.1 -0.7,0.2 -1,0.3 -0.2,0.2 -0.4,0.3 -0.5,0.4 -0.1,0.4 -0.2,0.4 -0.2,0.4 z"
     id="path7131"
     inkscape:connector-curvature="0"
     style="fill:#ffeee1" /><path
     d="m 224.22917,145.9029 h -0.5 c -0.3,0 -0.8,0 -1.4,0.1 -0.3,0 -0.6,0.1 -0.9,0.1 -0.3,0 -0.6,0.1 -1,0.2 -0.3,0.1 -0.7,0.2 -1,0.3 -0.3,0.1 -0.7,0.2 -1,0.4 -0.3,0.2 -0.6,0.3 -1,0.5 -0.3,0.1 -0.6,0.3 -0.9,0.5 -0.3,0.2 -0.6,0.3 -0.8,0.5 -0.2,0.2 -0.4,0.4 -0.7,0.5 -0.4,0.3 -0.7,0.7 -0.9,0.9 l -0.3,0.3 -1.3,-1.1 c 0,0 0.2,-0.1 0.4,-0.3 0.3,-0.2 0.6,-0.6 1.1,-0.9 0.3,-0.2 0.5,-0.3 0.8,-0.5 0.3,-0.2 0.6,-0.3 0.9,-0.5 0.3,-0.2 0.7,-0.3 1,-0.4 0.4,-0.1 0.7,-0.2 1.1,-0.4 0.4,-0.1 0.8,-0.2 1.1,-0.2 0.4,-0.1 0.7,-0.1 1.1,-0.2 0.4,0 0.7,-0.1 1,-0.1 h 0.9 c 0.6,0 1,0.1 1.4,0.1 0.7,0.2 0.9,0.2 0.9,0.2 z"
     id="path7133"
     inkscape:connector-curvature="0"
     style="fill:#af7045" /><linearGradient
     id="SVGID_6_"
     y2="226.31"
     gradientUnits="userSpaceOnUse"
     x2="235.72"
     gradientTransform="matrix(1,0,0,-1,0.02916667,395.7029)"
     y1="260.79"
     x1="235.72"><stop
       stop-color="#F7D7B8"
       offset="0"
       id="stop7136" /><stop
       stop-color="#F7CFAF"
       offset=".483"
       id="stop7138" /><stop
       stop-color="#F7C7A6"
       offset="1"
       id="stop7140" /></linearGradient><path
     d="m 222.62917,162.5029 7.9,7.7 -6.3,2.8 c 0,0 8,16 8.9,16.3 0.9,0.3 17.4,-16 15.6,-21.5 -1.7,-5.4 -16.5,-9 -22,-9.8"
     id="path7142"
     style="fill:url(#SVGID_6_)"
     inkscape:connector-curvature="0" /><path
     d="m 222.62917,162.5029 c 0.9,0.5 1.6,1 2.4,1.5 0.8,0.5 1.5,1.1 2.2,1.7 0.7,0.6 1.4,1.2 2,1.8 0.7,0.6 1.3,1.3 1.9,2 l 0.8,1 -1,0.3 -6.3,2.8 0.4,-1.1 4.1,7.7 2.1,3.8 c 0.7,1.3 1.4,2.5 2.2,3.7 0.1,0.1 0.2,0.3 0.3,0.4 0,0 0.1,0.1 0.1,0.2 l -0.1,-0.1 h -0.1 l -0.3,-0.1 h -0.4 c 0,0 0.1,-0.1 0.2,-0.1 0.1,-0.1 0.3,-0.2 0.4,-0.3 0.5,-0.4 1.1,-0.9 1.6,-1.4 1.1,-1 2.1,-2 3.1,-3.1 2,-2.1 3.9,-4.3 5.6,-6.6 0.9,-1.2 1.7,-2.3 2.4,-3.5 0.7,-1.2 1.4,-2.5 1.7,-3.7 0.1,-0.6 0.2,-1.2 0,-1.6 -0.1,-0.4 -0.2,-0.5 -0.4,-0.8 -0.2,-0.3 -0.4,-0.5 -0.6,-0.7 -0.9,-1 -2.1,-1.7 -3.4,-2.4 -2.5,-1.4 -5.3,-2.4 -8.2,-3.2 -1.4,-0.4 -2.9,-0.8 -4.3,-1.1 -1.5,-0.3 -2.9,-0.7 -4.3,-1.6 1.6,-0.4 3.1,-0.2 4.6,0.1 1.5,0.3 3,0.7 4.4,1.1 2.9,0.8 5.8,1.8 8.6,3.3 1.4,0.7 2.7,1.6 3.9,2.7 0.3,0.3 0.6,0.6 0.8,1 0.2,0.3 0.5,0.9 0.6,1.1 0.4,0.9 0.3,1.9 0.1,2.7 -0.4,1.6 -1.1,3 -1.8,4.3 -0.8,1.3 -1.6,2.5 -2.5,3.7 -1.8,2.4 -3.7,4.6 -5.8,6.8 -1,1.1 -2.1,2.1 -3.2,3.2 -0.6,0.5 -1.1,1 -1.7,1.5 -0.2,0.1 -0.3,0.2 -0.5,0.4 -0.1,0.1 -0.2,0.1 -0.3,0.2 -0.1,0 -0.1,0.1 -0.2,0.1 h -0.1 c -0.1,0 -0.2,0 -0.3,0.1 h -0.2 c -0.5,-0.1 -0.2,0 -0.3,-0.1 h -0.1 c -0.1,0 -0.1,-0.1 -0.1,-0.1 -0.1,0 -0.2,-0.2 -0.2,-0.2 l -0.2,-0.2 c -0.1,-0.1 -0.1,-0.2 -0.2,-0.3 -0.1,-0.2 -0.2,-0.3 -0.3,-0.5 -0.8,-1.3 -1.5,-2.6 -2.2,-3.9 l -2,-3.9 -3.9,-7.8 -0.4,-0.7 0.8,-0.4 6.3,-2.8 -0.2,1.3 -2.1,-1.8 c -0.7,-0.6 -1.3,-1.3 -1.9,-2 -0.6,-0.7 -1.2,-1.4 -1.8,-2.1 -0.7,-0.8 -1.3,-1.5 -1.7,-2.3 z"
     id="path7144"
     inkscape:connector-curvature="0"
     style="fill:#af7045" /><path
     d="m 245.12917,174.7029 c -3.3,-3 -8.2,-5 -13.5,-5 l 0.9,-0.5 c -0.4,0.2 -0.8,0.4 -1.3,0.6 l 0.7,0.8 -1,0.3 -5.5,2.5 3.7,7 2.1,3.8 c 0.7,1.3 1.4,2.5 2.2,3.7 v 0.1 c 0.5,-0.4 1.1,-0.9 1.6,-1.4 1.1,-1 2.1,-2 3.1,-3.1 2,-2.1 3.9,-4.3 5.6,-6.6 0.5,-0.8 1,-1.5 1.4,-2.2 z"
     id="path7146"
     inkscape:connector-curvature="0"
     style="fill:#d89060" /><line
     y1="170.40289"
     x2="240.52916"
     x1="229.92915"
     y2="166.7029"
     id="line7148"
     style="fill:none" /><polygon
     points="230.2,171.4 229.6,169.9 240.5,167 "
     id="polygon7150"
     transform="translate(0.02916667,-0.29710455)"
     style="fill:#af7045" /><linearGradient
     id="SVGID_7_"
     y2="237.34"
     gradientUnits="userSpaceOnUse"
     x2="95.596"
     gradientTransform="matrix(1,0,0,-1,0.02916667,395.7029)"
     y1="237.34"
     x1="66.11"><stop
       stop-color="#F7D7B8"
       offset="0"
       id="stop7153" /><stop
       stop-color="#F7CFAF"
       offset=".483"
       id="stop7155" /><stop
       stop-color="#F7C7A6"
       offset="1"
       id="stop7157" /></linearGradient><path
     stroke-miterlimit="10"
     d="m 66.129167,161.1029 18.5,20.2 11,-3.3 c 0,0 -12.8,-33.1 -15.6,-41.3 -2.7,-8.2 -13.9,24.4 -13.9,24.4 z"
     id="path7159"
     style="fill:url(#SVGID_7_);stroke:#af7045;stroke-width:2;stroke-miterlimit:10"
     inkscape:connector-curvature="0" /><path
     d="m 79.229167,137.0029 c -0.1,-0.2 -0.1,-0.3 -0.2,-0.4 -0.4,0.1 -0.8,0.1 -1.1,0.2 -2.3,2.5 -6.8,12.5 -10.9,24.1 l 5,5.5 c 4.9,-2.6 10.1,-7.4 13.4,-12.4 -2.6,-7.1 -5.1,-13.9 -6.2,-17 z"
     id="path7161"
     inkscape:connector-curvature="0"
     style="fill:#d89060" /><linearGradient
     id="SVGID_8_"
     y2="258.96"
     gradientUnits="userSpaceOnUse"
     x2="81.941"
     gradientTransform="matrix(1,0,0,-1,0.02916667,395.7029)"
     y1="258.96"
     x1="1.9322"><stop
       stop-color="#F7D7B8"
       offset="0"
       id="stop7164" /><stop
       stop-color="#F7CFAF"
       offset=".483"
       id="stop7166" /><stop
       stop-color="#F7C7A6"
       offset="1"
       id="stop7168" /></linearGradient><path
     stroke-miterlimit="10"
     d="m 70.929167,157.4029 c 0,0 -6.7,21 -41.2,3.7 -21.8000003,-14.6 -26.8000003,-21.1 -26.8000003,-21.1 0,0 -2.10000003,-6.3 0,-7.8 2.1,-1.5 6.8,-1.9 12.4000003,1.7 5.5,3.7 0.6,-2.8 0.6,-2.8 0,0 -9.8000003,-10.6 -4.7,-15.8 5.1,-5.2 16.9,7.5 16.9,7.5 l 2.8,-3.3 c 0,0 -6.7,-10.2 -1.2,-13.3 5.5,-3.1 23.5,6.7 41.2,20.1 17.7,13.4 9.4,23 6.6,26 -3.4,4.8 -6.6,5.1 -6.6,5.1 z"
     id="path7170"
     style="fill:url(#SVGID_8_);stroke:#af7045;stroke-width:2;stroke-miterlimit:10"
     inkscape:connector-curvature="0" /><path
     enable-background="new "
     d="m 75.529167,138.8029 c 2.6,1.6 2.9,5.5 0.6,8.8 -2.2,3.3 -6.1,4.7 -8.7,3.1 -2.6,-1.6 -2.9,-5.5 -0.6,-8.8 2.3,-3.3 6.2,-4.7 8.7,-3.1 z"
     id="path7172"
     inkscape:connector-curvature="0"
     style="opacity:0.3;fill:#ffeee1" /><path
     d="m 30.229167,106.8029 c -0.9,0.5 -1.4,1.2 -1.6,2.1 -1,3.8 3,10 3.1,10 l 0.3,0.5 -3.9,4.5 -0.7,-0.7 c -0.1,-0.1 -7.9,-8.4 -13.1,-8.4 -1,0 -1.8,0.3 -2.5,1 -4.5000003,4.6 4.6,14.6 4.7,14.7 2.7,3.6 2.2,4.4 2.1,4.7 -0.2,0.4 -0.6,0.6 -1.1,0.6 -0.4,0 -1.1,-0.2 -2.8,-1.3 -3.4,-2.2 -6.1000003,-2.7 -7.8000003,-2.7 -1.4,0 -2.7,0.3 -3.6,1 -1.1,0.8 -0.5,4.5 0.3,6.8 0.7,0.9 6.6000003,7.5 26.5000003,20.8 4.3,2.2 8.4,3.8 12.2,4.9 0.1,-0.1 0.3,-0.2 0.4,-0.3 l -0.2,0.4 c 0.3,0.1 0.6,0.2 0.9,0.3 17.6,-13.9 26.8,-28.8 16.5,-46.3 -12.1,-8.1 -22.4,-13 -27.6,-13 -0.8,-0.1 -1.6,0.1 -2.1,0.4 z"
     id="path7174"
     inkscape:connector-curvature="0"
     style="fill:#d89060" /><path
     d="m 56.129167,139.3029 c 0,0 0.5,-0.7 1.2,-1.6 0.4,-0.5 0.8,-1.1 1.3,-1.7 0.5,-0.6 1,-1.2 1.5,-1.9 0.5,-0.6 1.1,-1.2 1.6,-1.8 0.3,-0.3 0.5,-0.6 0.7,-0.8 0.2,-0.3 0.5,-0.5 0.7,-0.7 0.9,-0.9 1.4,-1.5 1.4,-1.5 0,0 -0.5,0.6 -1.3,1.5 -0.2,0.2 -0.4,0.5 -0.6,0.7 -0.2,0.3 -0.4,0.6 -0.7,0.9 -0.5,0.6 -1,1.2 -1.5,1.9 -0.5,0.7 -0.9,1.3 -1.4,1.9 -0.4,0.6 -0.8,1.2 -1.1,1.7 -0.7,1 -1.1,1.7 -1.1,1.7 l -0.7,-0.3 z"
     id="path7176"
     inkscape:connector-curvature="0"
     style="fill:#af7045" /><path
     d="m 55.629167,136.9029 c 0,0 0.3,-0.6 0.7,-1.5 0.1,-0.2 0.2,-0.5 0.4,-0.7 0.1,-0.3 0.3,-0.5 0.5,-0.8 0.3,-0.5 0.7,-1.1 1,-1.7 0.4,-0.5 0.8,-1.1 1.2,-1.6 0.2,-0.2 0.4,-0.5 0.5,-0.7 0.2,-0.2 0.4,-0.4 0.5,-0.6 0.7,-0.7 1.1,-1.2 1.1,-1.2 0,0 -0.4,0.5 -1,1.3 -0.2,0.2 -0.3,0.4 -0.5,0.6 -0.2,0.2 -0.3,0.5 -0.5,0.8 -0.3,0.5 -0.7,1.1 -1,1.6 -0.3,0.6 -0.6,1.2 -0.9,1.7 -0.1,0.3 -0.3,0.5 -0.4,0.8 -0.1,0.3 -0.2,0.5 -0.3,0.7 -0.4,0.9 -0.6,1.5 -0.6,1.5 l -0.7,-0.2 z"
     id="path7178"
     inkscape:connector-curvature="0"
     style="fill:#af7045" /><linearGradient
     id="SVGID_9_"
     y2="223.72"
     gradientUnits="userSpaceOnUse"
     x2="62.443"
     gradientTransform="matrix(1,0,0,-1,0.02916667,395.7029)"
     y1="223.72"
     x1="29.745"><stop
       stop-color="#2FAC66"
       offset=".005"
       id="stop7181" /><stop
       stop-color="#2F8166"
       offset="1"
       id="stop7183" /></linearGradient><path
     stroke-miterlimit="10"
     d="m 38.229167,162.4029 c 0,0 16.5,4.9 24.3,3.7 -2.6,2.4 -8.3,3.3 -8.3,3.3 0,0 3.4,4 5.2,5.1 l 1.8,1.1 -12.9,-0.4 c 0,0 5.4,6.2 6.5,7 -4.5,0.7 -21.1,-7.9 -24.3,-15.6 -3.4,-7.6 7.7,-4.2 7.7,-4.2 z"
     id="path7185"
     style="fill:url(#SVGID_9_);stroke:#12753a;stroke-width:2;stroke-miterlimit:10"
     inkscape:connector-curvature="0" /><path
     enable-background="new "
     d="m 37.929167,163.2029 c 0,0 -2.4,-0.7 -4.4,-0.7 -0.9,0 -2.1,0.1 -2.6,0.8 -0.4,0.6 -0.3,1.7 0.3,3.1 1.3,3.2 5.2,6.6 9.4,9.4 2.8,-3.2 5.5,-7 6.6,-10.2 -5,-1.2 -9,-2.3 -9.3,-2.4 z"
     id="path7187"
     inkscape:connector-curvature="0"
     style="opacity:0.5;fill:#12753a" /><g
     id="g7189"
     transform="translate(0.02916667,-0.29710455)"
     style="opacity:0.4"><path
       d="m 45.1,172.1 c 0,0 0.6,-0.1 1.4,0 0.8,0 1.9,0.1 2.9,0.3 1.1,0.2 2.1,0.4 2.9,0.6 0.8,0.2 1.3,0.4 1.3,0.4 0,0 -0.6,0.1 -1.4,0 -0.8,0 -1.9,-0.1 -2.9,-0.3 -1.1,-0.2 -2.1,-0.4 -2.9,-0.6 -0.8,-0.2 -1.3,-0.4 -1.3,-0.4 z"
       id="path7191"
       inkscape:connector-curvature="0"
       style="fill:#3ad87a" /></g><linearGradient
     id="SVGID_10_"
     y2="235.87"
     gradientUnits="userSpaceOnUse"
     x2="44.07"
     gradientTransform="matrix(1,0,0,-1,0.02916667,395.7029)"
     y1="235.87"
     x1="22.924"><stop
       stop-color="#2FAC66"
       offset=".005"
       id="stop7194" /><stop
       stop-color="#2F8166"
       offset="1"
       id="stop7196" /></linearGradient><path
     stroke-miterlimit="10"
     d="m 44.029167,157.5029 c 1,3.1 -5.3,18.4 -14.6,15.1 -9.3,-3.3 -7.7,-23.2 0.2,-25.7 7.8,-2.5 14.4,10.6 14.4,10.6 z"
     id="path7198"
     style="fill:url(#SVGID_10_);stroke:#12753a;stroke-width:2;stroke-miterlimit:10"
     inkscape:connector-curvature="0" /><path
     enable-background="new "
     d="m 43.229167,157.8029 c -0.2,-0.4 -1.8,-3.4 -4.2,-6 -5.1,-0.2 -10.9,1 -14.4,2.8 -0.5,1.6 -0.7,3.5 -0.8,5.4 0,2.4 0.3,5 1.3,7.2 4.8,-0.3 11,-0.9 16.1,-2.3 1.6,-3.1 2.2,-6.1 2,-7.1 z"
     id="path7200"
     inkscape:connector-curvature="0"
     style="opacity:0.5;fill:#12753a" /><linearGradient
     id="SVGID_11_"
     y2="280.54"
     gradientUnits="userSpaceOnUse"
     x2="86.089"
     gradientTransform="matrix(1,0,0,-1,0.02916667,395.7029)"
     y1="280.54"
     x1="42.353"><stop
       stop-color="#2FAC66"
       offset=".005"
       id="stop7203" /><stop
       stop-color="#2F8166"
       offset="1"
       id="stop7205" /></linearGradient><path
     stroke-miterlimit="10"
     d="m 58.529167,111.7029 c 0,0 13.7,-8.1 17.7,-9.1 -2.1,2.9 -5.3,9.1 -5.3,9.1 0,0 11.7,-2.6 15.1,-2.4 -2.6,1.8 -11.9,7.5 -11.9,7.5 0,0 10.2,4 10.2,4.8 0,0.8 -16.6,-1.5 -31.4,4.7 -14.9,6.2 -9.7,-9.4 -9.7,-9.4 l 15.3,-5.2 z"
     id="path7207"
     style="fill:url(#SVGID_11_);stroke:#12753a;stroke-width:2;stroke-miterlimit:10"
     inkscape:connector-curvature="0" /><path
     enable-background="new "
     d="m 65.129167,108.9029 c -3.3,1.9 -6,3.5 -6.1,3.5 l -0.2,0.1 -14.9,4.9 c -0.6,1.9 -1.3,6.2 0.2,8.2 1.3,1.7 4.2,1.6 8.5,-0.1 3.6,-1.5 7.3,-2.5 10.9,-3.2 1.3,-4.1 2.2,-9.2 1.6,-13.4 z"
     id="path7209"
     inkscape:connector-curvature="0"
     style="opacity:0.5;fill:#12753a" /><g
     id="g7211"
     transform="translate(0.02916667,-0.29710455)"
     style="opacity:0.4"><path
       d="m 66.1,116.6 c 0,0 0.7,-0.4 1.8,-0.8 1.1,-0.5 2.6,-1 4,-1.5 1.5,-0.5 3,-0.9 4.2,-1.2 1.2,-0.3 1.9,-0.4 1.9,-0.4 0,0 -0.7,0.4 -1.8,0.8 -1.1,0.5 -2.6,1 -4.1,1.5 -1.5,0.5 -3,0.9 -4.2,1.2 -1,0.3 -1.8,0.4 -1.8,0.4 z"
       id="path7213"
       inkscape:connector-curvature="0"
       style="fill:#3ad87a" /></g><linearGradient
     id="SVGID_12_"
     y2="276.35"
     gradientUnits="userSpaceOnUse"
     x2="59.566"
     gradientTransform="matrix(1,0,0,-1,0.02916667,395.7029)"
     y1="276.35"
     x1="35.416"><stop
       stop-color="#2FAC66"
       offset=".005"
       id="stop7216" /><stop
       stop-color="#2F8166"
       offset="1"
       id="stop7218" /></linearGradient><path
     stroke-miterlimit="10"
     d="m 37.429167,112.6029 c 1.7,-2.9 17.7,-8.8 21.5,0 3.8,8.8 -12.6,21.2 -19.8,17.3 -7.2,-3.8 -1.7,-17.3 -1.7,-17.3 z"
     id="path7220"
     style="fill:url(#SVGID_12_);stroke:#12753a;stroke-width:2;stroke-miterlimit:10"
     inkscape:connector-curvature="0" /><path
     enable-background="new "
     d="m 54.829167,117.0029 c -3,-3.4 -6.4,-5.7 -10.3,-7.3 -3.1,0.9 -5.7,2.3 -6.3,3.2 -0.4,1 -4.9,12.9 1.4,16.3 0.8,0.4 1.7,0.6 2.8,0.6 4.5,0 10.9,-3.9 14.2,-8.6 0.2,-0.3 0.4,-0.7 0.6,-1 -0.6,-1 -1.4,-2 -2.4,-3.2 z"
     id="path7222"
     inkscape:connector-curvature="0"
     style="opacity:0.5;fill:#12753a" /><linearGradient
     id="SVGID_13_"
     y2="256.48"
     gradientUnits="userSpaceOnUse"
     x2="59.319"
     gradientTransform="matrix(1,0,0,-1,0.02916667,395.7029)"
     y1="256.48"
     x1="38.937"><stop
       stop-color="#2FAC66"
       offset=".005"
       id="stop7225" /><stop
       stop-color="#2F8166"
       offset="1"
       id="stop7227" /></linearGradient><path
     stroke-miterlimit="10"
     d="m 49.529167,124.5029 c 3,3.2 12.8,7.4 9,19.6 -3.7,11.8 -19.5,9.8 -19.5,9.8 l 10.5,-29.4 z"
     id="path7229"
     style="fill:url(#SVGID_13_);stroke:#12753a;stroke-width:2;stroke-miterlimit:10"
     inkscape:connector-curvature="0" /><linearGradient
     id="SVGID_14_"
     y2="259.1"
     gradientUnits="userSpaceOnUse"
     x2="54.841"
     gradientTransform="matrix(1,0,0,-1,0.02916667,395.7029)"
     y1="259.1"
     x1="6.9568"><stop
       stop-color="#2FAC66"
       offset=".005"
       id="stop7232" /><stop
       stop-color="#2F8166"
       offset="1"
       id="stop7234" /></linearGradient><path
     stroke-miterlimit="10"
     d="m 53.229167,143.6029 c -4.8,14 -18.7,22.2 -31,18.3 -12.3000003,-3.9 -18.4000003,-18.4 -13.6000003,-32.3 4.8000003,-14 18.7000003,-22.2 31.0000003,-18.3 12.3,3.9 18.4,18.3 13.6,32.3 z"
     id="path7236"
     style="fill:url(#SVGID_14_);stroke:#12753a;stroke-width:2;stroke-miterlimit:10"
     inkscape:connector-curvature="0" /><linearGradient
     id="SVGID_15_"
     y2="252.58"
     gradientUnits="userSpaceOnUse"
     x2="47.037"
     gradientTransform="matrix(1,0,0,-1,0.02916667,395.7029)"
     y1="276.23"
     x1="-10.029"><stop
       stop-color="#3AD87A"
       offset="0"
       id="stop7239" /><stop
       stop-color="#3AD87A"
       stop-opacity=".1"
       offset="1"
       id="stop7241" /></linearGradient><path
     d="m 9.6291667,136.0029 c 0,-12.5 12.0000003,-22.5 25.8000003,-22.3 5.3,0.3 6.1,3.1 6.1,3.1 0,0 -6,2.9 -0.9,15.3 2.9,5.1 9,2.3 9,2.3 0,0 2.2,5.8 -0.5,12.1 -2.4,-3.7 -7.2,-6.9 -15.6,0.5 -6,5.3 -1.7,12.3 -1.7,12.3 0,0 -23.1000003,2.4 -22.2000003,-23.3 z"
     id="path7243"
     style="fill:url(#SVGID_15_)"
     inkscape:connector-curvature="0" /><linearGradient
     id="SVGID_16_"
     y2="259.44"
     gradientUnits="userSpaceOnUse"
     x2="32.394"
     gradientTransform="matrix(1,0,0,-1,0.02916667,395.7029)"
     y1="271.73"
     x1="3.2516"><stop
       stop-color="#fff"
       offset="0"
       id="stop7246" /><stop
       stop-color="#fff"
       stop-opacity=".1"
       offset="1"
       id="stop7248" /></linearGradient><path
     enable-background="new "
     d="m 13.229167,134.2029 c 1.7,-7.4 8.6,-18 19.4,-17.9 4.1,0.2 6.3,0.5 6.3,0.5 0,0 -6.2,6.6 -2.2,16.3 2.3,3.9 11.9,3 11.9,3 0,0 0.7,2.8 0,7.7 -1.9,-2.9 -10.8,-4.8 -17.4,1.1 -4.7,4.1 -2.4,11.1 -2.4,11.1 0,0 -16.4,0 -15.6,-21 v -0.8 z"
     id="path7250"
     style="opacity:0.6;fill:url(#SVGID_16_)"
     inkscape:connector-curvature="0" /><ellipse
     rx="8"
     ry="7.6999998"
     cy="154.5"
     cx="41.5"
     stroke-miterlimit="10"
     id="ellipse7252"
     sodipodi:cx="41.5"
     sodipodi:cy="154.5"
     sodipodi:rx="8"
     sodipodi:ry="7.6999998"
     transform="translate(0.02916667,-0.29710455)"
     style="fill:#fff9d7;stroke:#c6b159;stroke-miterlimit:10" /><ellipse
     rx="8"
     ry="7.6999998"
     cy="124.8"
     cx="48.599998"
     stroke-miterlimit="10"
     id="ellipse7254"
     sodipodi:cx="48.599998"
     sodipodi:cy="124.8"
     sodipodi:rx="8"
     sodipodi:ry="7.6999998"
     transform="translate(0.02916667,-0.29710455)"
     style="fill:#fff9d7;stroke:#c6b159;stroke-miterlimit:10" /><ellipse
     cy="157.7"
     cx="47.700001"
     rx="1.6"
     ry="1.5"
     id="ellipse7256"
     sodipodi:cx="47.700001"
     sodipodi:cy="157.7"
     sodipodi:rx="1.6"
     sodipodi:ry="1.5"
     transform="translate(0.02916667,-0.29710455)"
     style="fill:#1d1d1b" /><ellipse
     cy="128"
     cx="54.099998"
     rx="1.6"
     ry="1.5"
     id="ellipse7258"
     sodipodi:cx="54.099998"
     sodipodi:cy="128"
     sodipodi:rx="1.6"
     sodipodi:ry="1.5"
     transform="translate(0.02916667,-0.29710455)"
     style="fill:#1d1d1b" /><path
     d="m 71.629167,158.0029 h -2.6 c -0.3,0 -0.6,-0.1 -1,-0.1 -0.3,-0.1 -0.7,-0.1 -1,-0.2 -0.3,-0.1 -0.7,-0.2 -1,-0.3 -0.3,-0.2 -0.7,-0.3 -1,-0.5 -0.3,-0.1 -0.6,-0.4 -0.9,-0.6 -0.3,-0.2 -0.5,-0.4 -0.7,-0.6 l -0.6,-0.6 c -0.2,-0.2 -0.3,-0.4 -0.4,-0.5 -0.1,-0.2 -0.2,-0.3 -0.3,-0.4 -0.2,-0.2 -0.3,-0.4 -0.3,-0.4 0,0 0.1,0.1 0.3,0.3 l 0.4,0.4 c 0.2,0.1 0.3,0.3 0.5,0.5 0.2,0.2 0.4,0.3 0.7,0.5 0.2,0.2 0.5,0.3 0.8,0.5 0.3,0.1 0.5,0.3 0.9,0.4 0.3,0.1 0.6,0.2 0.9,0.3 0.3,0 0.6,0.1 1,0.1 0.3,0.1 0.6,0 0.9,0 h 0.9 c 0.3,0 0.5,-0.1 0.8,-0.1 0.2,0 0.5,-0.1 0.7,-0.1 0.2,0 0.4,-0.1 0.5,-0.1 0.3,-0.1 0.5,-0.1 0.5,-0.1 v 1.6 z"
     id="path7260"
     inkscape:connector-curvature="0"
     style="fill:#af7045" /><linearGradient
     id="SVGID_17_"
     y2="197"
     gradientUnits="userSpaceOnUse"
     x2="236.17"
     gradientTransform="matrix(1,0,0,-1,0.02916667,395.7029)"
     y1="197"
     x1="49.579"><stop
       stop-color="#67D3F9"
       offset="0"
       id="stop7263" /><stop
       stop-color="#51A6F9"
       offset="1"
       id="stop7265" /></linearGradient><path
     stroke-miterlimit="10"
     d="m 49.629167,205.7029 c 0,-7.2 2.7,-22.6 37.7,-30.2 35.000003,-7.5 111.600003,-3.3 111.600003,-3.3 0,0 33.1,-11.4 36.9,11.6 3.8,23 -18.1,31.4 -36.1,34.7 -17.9,3.3 -128.200003,10 -129.100003,9.4 -0.9,-0.6 -21,2.9 -21,-22.2 z"
     id="path7267"
     style="fill:url(#SVGID_17_);stroke:#3077b7;stroke-width:2;stroke-miterlimit:10"
     inkscape:connector-curvature="0" /><path
     enable-background="new "
     d="m 229.72917,204.1029 c -2,-7.3 -7.7,-15.2 -10.1,-24.5 -1.3,-4.8 -1.2,-7.4 -2.8,-9.3 h -1.1 c -8.5,0 -16.5,2.8 -16.6,2.8 l -0.2,0.1 h -0.2 c -0.2,0 -21.9,-1.2 -47.1,-1.2 -28.9,0 -50.5,1.5 -64.200003,4.5 -11.6,2.5 -20.5,6 -26.7,10.6 -5.2,12.2 -6.4,24.5 -3.2,36.9 4.3,3.1 9.4,3.2 11.8,3.3 0.8,0 1.2,0 1.5,0.1 h 0.4 c 9.7,0 111.600003,-6.4 128.200003,-9.4 14.5,-2.9 24.6,-7.5 30.3,-13.9 z"
     id="path7269"
     inkscape:connector-curvature="0"
     style="opacity:0.5;fill:#3077b7" /><linearGradient
     id="SVGID_18_"
     y2="245.69"
     gradientUnits="userSpaceOnUse"
     x2="139.08"
     gradientTransform="matrix(1,0,0,-1,0,396)"
     y1="245.69"
     x1="122.44"><stop
       stop-color="#F7D7B8"
       offset="0"
       id="stop7272" /><stop
       stop-color="#F7CFAF"
       offset=".483"
       id="stop7274" /><stop
       stop-color="#F7C7A6"
       offset="1"
       id="stop7276" /></linearGradient><ellipse
     rx="8.3000002"
     ry="8"
     cy="150.3"
     cx="130.8"
     stroke-miterlimit="10"
     id="ellipse7278"
     style="fill:url(#SVGID_18_);stroke:#af7045;stroke-width:2;stroke-miterlimit:10"
     sodipodi:cx="130.8"
     sodipodi:cy="150.3"
     sodipodi:rx="8.3000002"
     sodipodi:ry="8"
     transform="translate(0.02916667,-0.29710455)" /><linearGradient
     id="SVGID_19_"
     y2="189.03"
     gradientUnits="userSpaceOnUse"
     x2="214.86"
     gradientTransform="matrix(1,0,0,-1,0.02916667,395.7029)"
     y1="189.03"
     x1="61.83"><stop
       stop-color="#F7D7B8"
       offset="0"
       id="stop7281" /><stop
       stop-color="#F7CFAF"
       offset=".483"
       id="stop7283" /><stop
       stop-color="#F7C7A6"
       offset="1"
       id="stop7285" /></linearGradient><path
     stroke-miterlimit="10"
     d="m 214.32917,195.7029 c 4.9,31.3 -25.1,61.6 -67,67.7 -42,6.1 -80.000003,-14.4 -84.900003,-45.7 -4.9,-31.3 25.1,-61.6 67.000003,-67.7 42,-6.1 80,14.4 84.9,45.7 z"
     id="path7287"
     style="fill:url(#SVGID_19_);stroke:#af7045;stroke-width:2;stroke-miterlimit:10"
     inkscape:connector-curvature="0" /><linearGradient
     id="SVGID_20_"
     y2="131.17"
     gradientUnits="userSpaceOnUse"
     x2="101.34"
     gradientTransform="matrix(1,0,0,-1,0.02916667,395.7029)"
     y1="105.31"
     x1="102.97"><stop
       stop-color="#E8871C"
       offset="0"
       id="stop7290" /><stop
       stop-color="#E8651C"
       offset="1"
       id="stop7292" /></linearGradient><path
     stroke-miterlimit="10"
     d="m 96.529167,270.3029 c 0,0 -10.1,3.4 -8.7,17 1.4,13.6 3,-3.7 3.1,-4.1 0.1,-0.4 -0.6,8.3 4.8,10.2 0.3,-3.1 0.7,-4.5 0.7,-4.5 0,0 3.3,8.3 13.400003,3.5 10.1,-4.8 7.5,-14.7 6,-16.7 -1.5,-2 -8.2,-6.9 -19.300003,-5.4 z"
     id="path7294"
     style="fill:url(#SVGID_20_);stroke:#c13f0c;stroke-width:2;stroke-miterlimit:10"
     inkscape:connector-curvature="0" /><path
     enable-background="new "
     d="m 101.62917,284.9029 c 6.4,0 11.5,-4.1 11.5,-9.1 0,-0.5 -0.1,-1 -0.2,-1.4 -2.4,-1.6 -6.6,-3.5 -12.4,-3.5 -1.300003,0 -2.600003,0.1 -3.900003,0.3 -0.6,0.2 -4.3,1.7 -6.5,6 1,4.3 5.8,7.7 11.500003,7.7 z"
     id="path7296"
     inkscape:connector-curvature="0"
     style="opacity:0.5;fill:#c13f0c" /><ellipse
     rx="5.0999999"
     ry="4.9000001"
     cy="277.39999"
     cx="100.7"
     stroke-miterlimit="10"
     id="ellipse7298"
     sodipodi:cx="100.7"
     sodipodi:cy="277.39999"
     sodipodi:rx="5.0999999"
     sodipodi:ry="4.9000001"
     transform="translate(0.02916667,-0.29710455)"
     style="fill:#36a9e1;stroke:#197ea5;stroke-miterlimit:10" /><linearGradient
     id="SVGID_21_"
     y2="131.03"
     gradientUnits="userSpaceOnUse"
     x2="98.929"
     gradientTransform="matrix(1,0,0,-1,0.02916667,395.7029)"
     y1="105.15"
     x1="100.56"><stop
       stop-color="#E8871C"
       offset="0"
       id="stop7301" /><stop
       stop-color="#E8651C"
       offset="1"
       id="stop7303" /></linearGradient><path
     stroke-miterlimit="10"
     d="m 82.029167,244.2029 c 0,0 -2.6,9.8 4.3,18.5 -1.7,4.1 5.1,11.4 8,12 0.9,2.7 6.400003,3.8 9.600003,1.4 3.2,-2.4 0,-7.6 0,-7.6 l 2.6,-4 c 0,0 4.3,-1.2 8,-8 3.7,-6.9 -32.500003,-12.3 -32.500003,-12.3 z"
     id="path7305"
     style="fill:url(#SVGID_21_);stroke:#c13f0c;stroke-width:2;stroke-miterlimit:10"
     inkscape:connector-curvature="0" /><path
     enable-background="new "
     d="m 82.729167,245.1029 c -0.3,2 -0.9,7.9 2.2,13.9 5.9,3.5 13,6.5 19.400003,7.1 l 1.6,-2.4 0.3,-0.1 c 0,0 4,-1.2 7.4,-7.6 0.2,-0.4 0.2,-0.8 0,-1.2 -2.2,-4.3 -22.300003,-8.3 -30.900003,-9.7 z"
     id="path7307"
     inkscape:connector-curvature="0"
     style="opacity:0.5;fill:#c13f0c" /><path
     d="m 86.829167,262.0029 0.2,0.2 c 0.1,0.1 0.3,0.3 0.4,0.5 l 0.3,0.3 c 0.1,0.1 0.2,0.2 0.4,0.3 l 0.9,0.6 c 0.3,0.2 0.6,0.4 1,0.5 0.3,0.1 0.6,0.3 0.9,0.3 0.3,0.1 0.5,0.1 0.7,0.2 0.2,0 0.3,0.1 0.3,0.1 0,0 -0.1,0 -0.3,0 h -0.7 c -0.3,0 -0.6,0 -1,-0.1 -0.4,0 -0.7,-0.1 -1.1,-0.2 -0.4,-0.1 -0.8,-0.2 -1.1,-0.4 -0.2,-0.1 -0.3,-0.1 -0.5,-0.2 -0.2,-0.1 -0.3,-0.2 -0.5,-0.2 -0.3,-0.2 -0.5,-0.3 -0.6,-0.4 -0.1,-0.1 -0.2,-0.1 -0.2,-0.1 l 0.9,-1.4 z"
     id="path7309"
     inkscape:connector-curvature="0"
     style="fill:#c13f0c" /><path
     d="m 107.02917,265.1029 c 0,0 -0.5,0.1 -1.2,0.1 -0.2,0 -0.4,0.1 -0.6,0.1 h -0.7 c -0.5,0 -1,0 -1.5,0.1 h -3.900003 c 0,0 0.5,-0.1 1.200003,-0.2 0.7,-0.1 1.7,-0.4 2.6,-0.6 0.5,-0.1 0.9,-0.2 1.4,-0.3 0.2,-0.1 0.4,-0.1 0.6,-0.2 0.2,0 0.4,-0.1 0.6,-0.2 0.7,-0.2 1.2,-0.4 1.2,-0.4 l 0.3,1.6 z"
     id="path7311"
     inkscape:connector-curvature="0"
     style="fill:#c13f0c" /><path
     d="m 105.02917,268.5029 -0.6,0.3 c -0.1,0.1 -0.2,0.1 -0.3,0.2 -0.1,0.1 -0.2,0.1 -0.4,0.2 -0.3,0.1 -0.5,0.2 -0.8,0.3 -0.3,0.1 -0.6,0.1 -0.8,0.2 -0.1,0 -0.2,0.1 -0.4,0.1 h -1 c 0,0 0.2,-0.1 0.6,-0.3 0.1,0 0.2,-0.1 0.3,-0.1 0.1,0 0.2,-0.1 0.3,-0.2 0.2,-0.1 0.4,-0.3 0.6,-0.4 l 0.5,-0.5 0.2,-0.2 c 0.1,-0.1 0.1,-0.2 0.2,-0.3 0.2,-0.3 0.4,-0.5 0.4,-0.5 l 1.2,1.2 z"
     id="path7313"
     inkscape:connector-curvature="0"
     style="fill:#c13f0c" /><path
     d="m 87.229167,264.3029 c 0,0 0.1,0.1 0.4,0.2 0.1,0 0.3,0.1 0.4,0.1 0.2,0 0.4,0.1 0.6,0.2 0.2,0 0.5,0.1 0.7,0.1 0.2,0.1 0.5,0.1 0.8,0.1 0.5,0.1 1.1,0.1 1.7,0.2 0.6,0.1 1.2,0.1 1.7,0.1 0.3,0 0.5,0 0.8,0.1 h 0.7 c 0.9,0 1.5,0.1 1.5,0.1 0,0 -0.6,0.2 -1.5,0.3 -0.5,0.1 -1,0.2 -1.6,0.2 -0.6,0 -1.2,0.1 -1.8,0 -0.3,0 -0.6,-0.1 -0.9,-0.1 -0.3,0 -0.6,-0.1 -0.9,-0.2 -0.6,-0.1 -1.1,-0.3 -1.5,-0.5 l -0.6,-0.3 c -0.2,-0.1 -0.3,-0.2 -0.4,-0.3 -0.1,-0.2 -0.1,-0.3 -0.1,-0.3 z"
     id="path7315"
     inkscape:connector-curvature="0"
     style="fill:#ffa05f" /><path
     d="m 103.42917,269.4029 c 0,0 -0.4,0.4 -1.2,0.8 -0.4,0.2 -0.9,0.4 -1.4,0.5 -0.5,0.1 -1.100003,0.2 -1.700003,0.3 h -0.9 c -0.3,0 -0.6,-0.1 -0.9,-0.1 -0.3,0 -0.5,-0.1 -0.8,-0.2 -0.2,-0.1 -0.5,-0.1 -0.7,-0.2 -0.4,-0.1 -0.7,-0.3 -0.9,-0.5 -0.2,-0.1 -0.3,-0.2 -0.3,-0.2 0,0 0.1,0 0.4,0.1 0.1,0 0.3,0 0.4,0.1 0.2,0 0.4,0 0.6,0.1 0.4,0.1 0.9,0.1 1.4,0.1 h 1.6 c 0.5,0 1.100003,-0.1 1.600003,-0.1 0.5,-0.1 1,-0.2 1.4,-0.3 0.8,-0.3 1.4,-0.4 1.4,-0.4 z"
     id="path7317"
     inkscape:connector-curvature="0"
     style="fill:#ffa05f" /><path
     d="m 100.72917,291.9029 c 0,0 0.4,0.2 1.1,0.3 0.7,0.1 1.7,0.2 2.9,0.1 1.2,-0.1 2.6,-0.4 4,-1 1.4,-0.5 2.8,-1.3 3.9,-2.4 0.6,-0.5 1.1,-1.1 1.5,-1.7 0.4,-0.6 0.7,-1.3 0.9,-2 0.4,-1.4 0.6,-2.7 0.6,-3.9 v -3.9 c 0,0 0,0.4 0.1,1.1 0.1,0.7 0.3,1.7 0.3,2.9 0,1.2 0,2.6 -0.4,4.1 -0.2,0.7 -0.5,1.5 -0.9,2.2 -0.4,0.7 -1,1.4 -1.6,1.9 -1.3,1.1 -2.8,1.9 -4.3,2.4 -1.5,0.5 -3,0.7 -4.2,0.8 -1.3,0 -2.3,-0.2 -3,-0.4 -0.3,-0.1 -0.6,-0.2 -0.8,-0.3 0,-0.2 -0.1,-0.2 -0.1,-0.2 z"
     id="path7319"
     inkscape:connector-curvature="0"
     style="fill:#ffa05f" /><linearGradient
     id="SVGID_22_"
     y2="154.7"
     gradientUnits="userSpaceOnUse"
     x2="278.57"
     gradientTransform="matrix(-0.9438,0.3304,-0.3304,-0.9438,499.94917,310.0929)"
     y1="128.82"
     x1="280.21"><stop
       stop-color="#E8871C"
       offset="0"
       id="stop7322" /><stop
       stop-color="#E8651C"
       offset="1"
       id="stop7324" /></linearGradient><path
     stroke-miterlimit="10"
     d="m 192.22917,260.1029 c 0,0 10.7,0 14.1,13.3 3.4,13.3 -4.1,-2.5 -4.4,-2.9 -0.3,-0.4 3.4,7.7 -1,11.2 -1.3,-2.9 -2.2,-4 -2.2,-4 0,0 -0.2,8.9 -11.4,7.6 -11.2,-1.3 -12.2,-11.5 -11.4,-13.9 0.6,-2.5 5.3,-9.2 16.3,-11.3 z"
     id="path7326"
     style="fill:url(#SVGID_22_);stroke:#c13f0c;stroke-width:2;stroke-miterlimit:10"
     inkscape:connector-curvature="0" /><path
     enable-background="new "
     d="m 192.42917,275.4029 c -6,2 -12.3,-0.2 -14,-5 -0.2,-0.5 -0.3,-0.9 -0.3,-1.4 1.7,-2.3 5,-5.3 10.5,-7.2 1.2,-0.4 2.4,-0.7 3.7,-1 0.6,0 4.6,0.3 8.2,3.6 0.6,4.5 -2.7,9.2 -8.1,11 z"
     id="path7328"
     inkscape:connector-curvature="0"
     style="opacity:0.5;fill:#c13f0c" /><ellipse
     rx="5.0999999"
     ry="4.9000001"
     cy="268.10001"
     cx="190.60001"
     stroke-miterlimit="10"
     id="ellipse7330"
     sodipodi:cx="190.60001"
     sodipodi:cy="268.10001"
     sodipodi:rx="5.0999999"
     sodipodi:ry="4.9000001"
     transform="translate(0.02916667,-0.29710455)"
     style="fill:#36a9e1;stroke:#197ea5;stroke-miterlimit:10" /><linearGradient
     id="SVGID_23_"
     y2="154.53"
     gradientUnits="userSpaceOnUse"
     x2="276.63"
     gradientTransform="matrix(-0.9438,0.3304,-0.3304,-0.9438,499.94917,310.0929)"
     y1="128.73"
     x1="278.26"><stop
       stop-color="#E8871C"
       offset="0"
       id="stop7333" /><stop
       stop-color="#E8651C"
       offset="1"
       id="stop7335" /></linearGradient><path
     stroke-miterlimit="10"
     d="m 196.82917,230.9029 c 0,0 5.8,8.4 2.4,18.8 3,3.3 -0.9,12.4 -3.4,13.8 0.1,2.8 -4.7,5.6 -8.6,4.3 -3.9,-1.3 -2.6,-7.2 -2.6,-7.2 l -3.9,-2.9 c 0,0 -4.4,0.2 -10.3,-5 -5.8,-5.3 26.4,-21.8 26.4,-21.8 z"
     id="path7337"
     style="fill:url(#SVGID_23_);stroke:#c13f0c;stroke-width:2;stroke-miterlimit:10"
     inkscape:connector-curvature="0" /><path
     enable-background="new "
     d="m 196.52917,232.0029 c 1,1.8 3.6,7.2 2.7,13.8 -4.4,5.1 -10,10.3 -15.9,12.8 l -2.3,-1.8 h -0.3 c 0,0 -4.2,0.1 -9.6,-4.8 -0.4,-0.3 -0.5,-0.7 -0.4,-1.2 0.5,-4.7 18.1,-14.8 25.8,-18.8 z"
     id="path7339"
     inkscape:connector-curvature="0"
     style="opacity:0.5;fill:#c13f0c" /><path
     d="m 200.02917,250.0029 -0.2,0.2 c -0.1,0.1 -0.2,0.3 -0.5,0.5 l -0.4,0.4 c -0.1,0.1 -0.3,0.2 -0.4,0.4 -0.3,0.2 -0.6,0.5 -0.9,0.7 -0.3,0.2 -0.7,0.4 -1,0.6 -0.3,0.2 -0.6,0.3 -0.9,0.4 -0.3,0.1 -0.5,0.2 -0.7,0.2 -0.2,0.1 -0.3,0.1 -0.3,0.1 0,0 0.1,-0.1 0.2,-0.1 0.1,-0.1 0.3,-0.2 0.6,-0.4 0.2,-0.2 0.5,-0.4 0.7,-0.6 0.3,-0.2 0.5,-0.5 0.7,-0.8 0.2,-0.3 0.5,-0.5 0.6,-0.8 0.1,-0.1 0.2,-0.3 0.3,-0.4 0.1,-0.1 0.1,-0.2 0.2,-0.3 l 0.3,-0.6 c 0.1,-0.1 0.1,-0.2 0.1,-0.2 l 1.6,0.7 z"
     id="path7341"
     inkscape:connector-curvature="0"
     style="fill:#c13f0c" /><path
     d="m 180.32917,256.9029 h 2.4 c 0.4,0 0.9,-0.1 1.4,-0.1 1,-0.1 1.9,-0.2 2.7,-0.3 0.7,-0.1 1.2,-0.2 1.2,-0.2 0,0 -0.5,0.2 -1.2,0.4 -0.7,0.3 -1.6,0.5 -2.6,0.9 -0.5,0.1 -1,0.3 -1.4,0.4 -0.2,0.1 -0.5,0.1 -0.7,0.2 -0.2,0.1 -0.4,0.1 -0.6,0.1 -0.7,0.2 -1.2,0.3 -1.2,0.3 v -1.7 z"
     id="path7343"
     inkscape:connector-curvature="0"
     style="fill:#c13f0c" /><path
     d="m 184.22917,259.5029 c 0,0 0.2,0.1 0.6,0.4 0.1,0.1 0.2,0.1 0.3,0.2 0.1,0.1 0.2,0.1 0.3,0.1 l 0.6,0.3 c 0.2,0.1 0.5,0.1 0.7,0.2 0.1,0 0.2,0.1 0.3,0.1 h 0.3 c 0.4,0 0.7,0.1 0.7,0.1 0,0 -0.3,0.1 -0.7,0.2 -0.1,0 -0.2,0.1 -0.3,0.1 -0.1,0 -0.2,0 -0.4,0.1 -0.3,0 -0.6,0.1 -0.8,0.1 -0.3,0 -0.6,0 -0.9,-0.1 h -0.4 c -0.1,0 -0.2,0 -0.3,-0.1 -0.4,-0.1 -0.7,-0.1 -0.7,-0.1 l 0.7,-1.6 z"
     id="path7345"
     inkscape:connector-curvature="0"
     style="fill:#c13f0c" /><path
     d="m 198.92917,251.4029 c 0,0 0,0.1 -0.2,0.4 -0.1,0.1 -0.2,0.3 -0.3,0.4 -0.1,0.1 -0.3,0.3 -0.4,0.5 -0.3,0.3 -0.7,0.7 -1.2,0.9 -0.2,0.1 -0.5,0.3 -0.8,0.4 -0.3,0.1 -0.6,0.3 -0.8,0.4 -0.6,0.3 -1.1,0.4 -1.7,0.6 -0.5,0.2 -1.1,0.3 -1.5,0.3 -0.9,0.1 -1.5,0.2 -1.5,0.2 0,0 0.6,-0.3 1.4,-0.6 0.2,-0.1 0.4,-0.2 0.7,-0.2 0.2,-0.1 0.5,-0.2 0.7,-0.3 0.5,-0.2 1.1,-0.4 1.6,-0.6 0.5,-0.2 1.1,-0.4 1.6,-0.7 0.2,-0.1 0.5,-0.2 0.7,-0.4 l 0.6,-0.3 c 0.2,-0.1 0.3,-0.2 0.5,-0.3 0.2,-0.1 0.3,-0.2 0.4,-0.3 0.1,-0.3 0.2,-0.4 0.2,-0.4 z"
     id="path7347"
     inkscape:connector-curvature="0"
     style="fill:#ffa05f" /><path
     d="m 185.42917,261.4029 c 0,0 0.6,0 1.4,-0.1 0.4,0 0.9,-0.1 1.4,-0.2 0.5,-0.1 1,-0.2 1.6,-0.4 0.5,-0.1 1,-0.3 1.5,-0.5 0.5,-0.2 0.9,-0.4 1.3,-0.6 0.2,-0.1 0.4,-0.2 0.5,-0.3 0.2,-0.1 0.3,-0.2 0.4,-0.2 l 0.4,-0.2 c 0,0 -0.1,0.1 -0.2,0.3 -0.2,0.2 -0.4,0.5 -0.7,0.7 -0.2,0.1 -0.3,0.3 -0.6,0.4 -0.2,0.1 -0.4,0.3 -0.7,0.4 -0.2,0.1 -0.5,0.3 -0.8,0.4 -0.3,0.1 -0.5,0.2 -0.8,0.3 -0.6,0.2 -1.2,0.3 -1.7,0.3 h -1.5 c -1,-0.1 -1.5,-0.3 -1.5,-0.3 z"
     id="path7349"
     inkscape:connector-curvature="0"
     style="fill:#ffa05f" /><path
     d="m 195.72917,281.8029 -0.2,0.2 c -0.1,0.1 -0.3,0.3 -0.6,0.5 -0.6,0.4 -1.5,0.9 -2.7,1.3 -1.2,0.4 -2.7,0.6 -4.2,0.6 -1.6,0 -3.3,-0.3 -4.9,-0.9 -0.8,-0.3 -1.5,-0.8 -2.2,-1.3 -0.6,-0.5 -1.2,-1.2 -1.6,-1.8 -0.9,-1.3 -1.4,-2.6 -1.8,-3.7 -0.4,-1.1 -0.5,-2.1 -0.7,-2.8 -0.1,-0.7 -0.2,-1.1 -0.2,-1.1 0,0 0.2,0.4 0.4,1 0.2,0.7 0.5,1.6 1,2.7 0.4,1.1 1.1,2.3 1.9,3.5 0.4,0.6 0.9,1.1 1.5,1.6 0.6,0.5 1.3,0.8 2,1.2 1.4,0.6 3,0.9 4.5,1 1.5,0.1 2.9,-0.1 4.1,-0.3 1.2,-0.3 2.1,-0.6 2.7,-1 0.7,-0.5 1,-0.7 1,-0.7 z"
     id="path7351"
     inkscape:connector-curvature="0"
     style="fill:#ffa05f" /><linearGradient
     id="SVGID_24_"
     y2="181.3"
     gradientUnits="userSpaceOnUse"
     x2="67.893"
     gradientTransform="matrix(1,0,0,-1,0.02916667,395.7029)"
     y1="181.3"
     x1="48.764"><stop
       stop-color="#F7D7B8"
       offset="0"
       id="stop7354" /><stop
       stop-color="#F7CFAF"
       offset=".483"
       id="stop7356" /><stop
       stop-color="#F7C7A6"
       offset="1"
       id="stop7358" /></linearGradient><path
     stroke-miterlimit="10"
     d="m 64.629167,206.7029 c 0,0 -17.1,2.3 -15.8,10.7 1.3,8.4 18.3,3.3 19,3.1 0.7,-0.3 -3.2,-13.8 -3.2,-13.8 z"
     id="path7360"
     style="fill:url(#SVGID_24_);stroke:#af7045;stroke-width:2;stroke-miterlimit:10"
     inkscape:connector-curvature="0" /><path
     d="m 64.029167,207.6029 c -1.7,0.3 -5.8,1.1 -9.3,2.8 -0.5,3.4 0.3,7.1 1.6,10.9 h 0.8 c 4,0 8.4,-1.1 9.9,-1.5 -0.2,-1.7 -1.6,-7.1 -3,-12.2 z"
     id="path7362"
     inkscape:connector-curvature="0"
     style="fill:#d89060" /><linearGradient
     id="SVGID_25_"
     y2="121.99"
     gradientUnits="userSpaceOnUse"
     x2="317.15"
     gradientTransform="matrix(-1,0,0,1,524.74917,76.961895)"
     y1="121.99"
     x1="298.03"><stop
       stop-color="#F7D7B8"
       offset="0"
       id="stop7365" /><stop
       stop-color="#F7CFAF"
       offset=".483"
       id="stop7367" /><stop
       stop-color="#F7C7A6"
       offset="1"
       id="stop7369" /></linearGradient><path
     stroke-miterlimit="10"
     d="m 210.82917,206.7029 c 0,0 17.1,-2.3 15.8,-10.7 -1.3,-8.4 -18.3,-3.3 -19,-3.1 -0.6,0.3 3.2,13.8 3.2,13.8 z"
     id="path7371"
     style="fill:url(#SVGID_25_);stroke:#af7045;stroke-width:2;stroke-miterlimit:10"
     inkscape:connector-curvature="0" /><path
     d="m 211.52917,205.7029 c 1.7,-0.3 5.8,-1.1 9.3,-2.8 0.5,-3.4 -0.3,-7.1 -1.6,-10.9 h -0.8 c -4,0 -8.4,1.1 -9.9,1.5 0.1,1.7 1.5,7.1 3,12.2 z"
     id="path7373"
     inkscape:connector-curvature="0"
     style="fill:#d89060" /><linearGradient
     id="SVGID_26_"
     y2="126.14"
     gradientUnits="userSpaceOnUse"
     x2="138.15"
     gradientTransform="matrix(1,0,0,-1,0.02916667,395.7029)"
     y1="236.92"
     x1="138.15"><stop
       stop-color="#E8871C"
       offset="0"
       id="stop7376" /><stop
       stop-color="#E8651C"
       offset="1"
       id="stop7378" /></linearGradient><path
     stroke-miterlimit="10"
     d="m 214.32917,195.7029 c 3,31.5 -25.1,61.6 -67,67.7 -42,6.1 -80.000003,-14.4 -84.900003,-45.7 -3.7,-23.5 9.8,-53 38.200003,-58.9 11.4,-2.4 33,3.1 33.9,3.7 -1.9,-4.7 -5.7,-7.1 -7.7,-8.5 4.3,-0.3 11.6,4 11.6,4 l -1.1,-7.3 7.6,2.1 c 5.4,-2.7 13.4,-7.5 22.5,-5 9.1,2.5 43.2,8.4 46.9,47.9 z"
     id="path7380"
     style="fill:url(#SVGID_26_);stroke:#c13f0c;stroke-width:2;stroke-miterlimit:10"
     inkscape:connector-curvature="0" /><g
     id="g7382"
     transform="translate(0.02916667,-0.29710455)"
     style="fill:#ffa05f"><path
       d="m 144.9,156 c 5.4,-2.7 13.4,-7.5 22.5,-5 7.9,2.2 34.6,6.9 44,33.8 -7.8,-26.7 -32.2,-32.8 -42,-35.4 -0.8,-0.2 -1.6,-0.4 -2.2,-0.6 -1.6,-0.4 -3.3,-0.7 -5,-0.7 -6,0 -11.2,2.7 -15.4,4.9 -0.5,0.2 -0.9,0.5 -1.4,0.7 l -0.4,0.3 -6.7,-1.9 0.3,2.1 6.3,1.8 z"
       id="path7384"
       inkscape:connector-curvature="0" /><path
       d="m 132.8,158.4 c 3,1.2 5.6,2.7 5.6,2.7 l -0.4,-2.1 -0.1,-0.1 c -0.1,0 -4.4,-2.6 -8.2,-3.5 1,0.8 2.1,1.8 3.1,3 z"
       id="path7386"
       inkscape:connector-curvature="0" /><path
       d="m 100.5,161.9 c 11.4,-2.4 33,3.1 33.9,3.7 -0.4,-0.9 -0.8,-1.8 -1.3,-2.5 -3.3,-1 -15.6,-3.9 -25.7,-3.9 -2.6,0 -4.8,0.2 -6.7,0.6 -17.2,3.6 -33.5,19 -37.3,40.1 4.2,-17.5 16.9,-33.8 37.1,-38 z"
       id="path7388"
       inkscape:connector-curvature="0" /></g><line
     y1="168.5029"
     x2="142.92915"
     x1="136.12917"
     y2="256.70288"
     id="line7390"
     style="fill:none" /><path
     d="m 136.12917,168.5029 c 0,0 0.2,1.4 0.5,3.8 0.3,2.4 0.7,5.8 1.1,10 0.4,4.1 0.9,8.9 1.3,14.1 0.2,2.6 0.5,5.2 0.7,8 0.2,2.7 0.4,5.5 0.7,8.2 0.2,2.8 0.4,5.5 0.6,8.2 0.2,2.7 0.4,5.4 0.5,8 0.3,5.2 0.6,10 0.8,14.1 0.2,4.1 0.3,7.6 0.4,10 0.1,2.4 0.1,3.8 0.1,3.8 0,0 -0.2,-1.4 -0.5,-3.8 -0.3,-2.4 -0.7,-5.8 -1.1,-10 -0.4,-4.1 -0.9,-8.9 -1.3,-14.1 -0.2,-2.6 -0.5,-5.3 -0.7,-8 -0.2,-2.7 -0.4,-5.5 -0.7,-8.2 -0.2,-2.8 -0.4,-5.5 -0.6,-8.2 -0.2,-2.7 -0.4,-5.4 -0.5,-8 -0.3,-5.2 -0.6,-10 -0.8,-14.1 -0.2,-4.1 -0.3,-7.6 -0.4,-10 -0.1,-2.4 -0.1,-3.8 -0.1,-3.8 z"
     id="path7392"
     inkscape:connector-curvature="0"
     style="fill:#c13f0c" /><path
     d="m 136.22917,174.1029 c 0,0 -0.7,-0.6 -2,-1.5 -1.3,-0.9 -3.3,-2.2 -5.8,-3.5 -2.5,-1.3 -5.5,-2.6 -8.9,-3.6 -1.7,-0.5 -3.5,-1 -5.3,-1.3 -0.9,-0.2 -1.8,-0.3 -2.8,-0.5 -0.9,-0.1 -1.9,-0.3 -2.8,-0.3 -0.9,-0.1 -1.9,-0.2 -2.8,-0.2 h -2.8 c -0.9,0 -1.9,0.1 -2.8,0.1 -0.900003,0 -1.800003,0.2 -2.700003,0.3 -0.9,0.1 -1.7,0.3 -2.6,0.4 -0.8,0.1 -1.7,0.3 -2.5,0.5 -1.6,0.3 -3.1,0.8 -4.4,1.2 -1.3,0.5 -2.6,0.9 -3.6,1.4 -1.1,0.5 -2,0.8 -2.7,1.2 -1.5,0.7 -2.3,1.1 -2.3,1.1 0,0 0.8,-0.4 2.3,-1.2 0.7,-0.4 1.7,-0.8 2.7,-1.2 1,-0.5 2.3,-0.9 3.6,-1.4 1.4,-0.4 2.8,-0.9 4.4,-1.3 0.8,-0.2 1.6,-0.4 2.5,-0.6 0.8,-0.2 1.7,-0.3 2.6,-0.5 0.9,-0.1 1.8,-0.3 2.700003,-0.3 0.9,-0.1 1.8,-0.2 2.8,-0.2 h 2.8 c 1,0 1.9,0.1 2.9,0.1 1,0.1 1.9,0.2 2.9,0.3 0.9,0.2 1.9,0.3 2.8,0.5 1.9,0.3 3.7,0.8 5.4,1.3 3.4,1 6.5,2.3 9.1,3.6 5.1,2.5 8.1,5 8.1,5 l -0.8,0.6 z"
     id="path7394"
     inkscape:connector-curvature="0"
     style="fill:#c13f0c" /><path
     d="m 136.72917,180.1029 c 0,0 -0.8,-0.4 -2.3,-1.1 -1.5,-0.7 -3.6,-1.6 -6.2,-2.6 -1.3,-0.5 -2.7,-1 -4.2,-1.5 -1.5,-0.5 -3.1,-1 -4.8,-1.5 -1.7,-0.4 -3.4,-0.9 -5.2,-1.2 -1.8,-0.4 -3.6,-0.7 -5.5,-0.9 -1.9,-0.2 -3.7,-0.4 -5.6,-0.4 -0.9,0 -1.8,-0.1 -2.7,0 h -1.300003 c -0.4,0 -0.9,0.1 -1.3,0.1 -0.9,0 -1.7,0.1 -2.6,0.2 -0.8,0.1 -1.7,0.2 -2.4,0.3 -0.8,0.1 -1.6,0.3 -2.3,0.4 -0.7,0.2 -1.5,0.3 -2.1,0.5 -1.4,0.3 -2.6,0.8 -3.6,1.2 -1.1,0.4 -2,0.8 -2.7,1.1 -1.5,0.7 -2.3,1.1 -2.3,1.1 0,0 0.8,-0.4 2.3,-1.2 0.7,-0.3 1.6,-0.7 2.7,-1.2 1.1,-0.4 2.3,-0.8 3.6,-1.2 0.7,-0.2 1.4,-0.4 2.1,-0.5 0.7,-0.2 1.5,-0.3 2.3,-0.5 0.8,-0.1 1.6,-0.3 2.5,-0.4 0.8,-0.1 1.7,-0.2 2.6,-0.3 0.4,0 0.9,-0.1 1.3,-0.1 h 4.200003 c 1.9,0 3.7,0.2 5.6,0.4 1.9,0.2 3.7,0.5 5.5,0.8 1.8,0.3 3.6,0.8 5.3,1.2 1.7,0.4 3.3,0.9 4.9,1.4 1.5,0.5 3,1 4.3,1.5 5.3,1.9 8.6,3.7 8.6,3.7 l -0.7,0.7 z"
     id="path7396"
     inkscape:connector-curvature="0"
     style="fill:#c13f0c" /><path
     d="m 136.42917,176.5029 c 0,0 2.5,-3 7,-6.7 1.1,-0.9 2.4,-1.9 3.7,-2.9 1.4,-1 2.9,-1.9 4.4,-2.9 1.6,-0.9 3.3,-1.8 5,-2.6 1.7,-0.8 3.6,-1.5 5.5,-2.1 1.9,-0.6 3.8,-1.1 5.7,-1.4 1.9,-0.3 3.8,-0.5 5.7,-0.5 0.9,0 1.8,0.1 2.7,0.1 0.9,0.1 1.8,0.2 2.6,0.3 0.8,0.1 1.6,0.3 2.4,0.5 0.8,0.2 1.5,0.4 2.2,0.6 0.7,0.2 1.4,0.4 2,0.7 0.6,0.2 1.2,0.4 1.8,0.7 1.1,0.5 2,0.9 2.8,1.3 1.5,0.8 2.3,1.3 2.3,1.3 0,0 -0.9,-0.5 -2.4,-1.3 -0.7,-0.4 -1.7,-0.8 -2.8,-1.3 -0.5,-0.2 -1.2,-0.4 -1.8,-0.7 -0.6,-0.2 -1.3,-0.5 -2,-0.7 -0.7,-0.2 -1.4,-0.4 -2.2,-0.6 -0.8,-0.1 -1.6,-0.3 -2.4,-0.4 -0.8,-0.1 -1.7,-0.2 -2.6,-0.3 -0.9,0 -1.8,-0.1 -2.7,-0.1 -1.8,0.1 -3.7,0.2 -5.6,0.6 -1.9,0.3 -3.8,0.8 -5.7,1.4 -1.8,0.6 -3.7,1.4 -5.4,2.2 -1.7,0.8 -3.4,1.8 -4.9,2.7 -1.5,1 -3,1.9 -4.3,2.9 -1.3,1 -2.6,2 -3.7,2.9 -2.2,1.9 -3.9,3.5 -5.1,4.8 -1.2,1.2 -1.8,1.9 -1.8,1.9 l -0.4,-0.4 z"
     id="path7398"
     inkscape:connector-curvature="0"
     style="fill:#c13f0c" /><path
     d="m 138.42917,207.1029 c 0,0 -4.2,0.3 -10.5,0.8 -3.1,0.3 -6.8,0.6 -10.7,0.9 -2,0.2 -4,0.4 -6.1,0.5 -2.1,0.2 -4.2,0.4 -6.2,0.6 -2.1,0.2 -4.2,0.4 -6.200003,0.6 -2.1,0.2 -4.1,0.5 -6,0.7 -2,0.2 -3.9,0.4 -5.6,0.7 -1.8,0.2 -3.5,0.5 -5,0.7 -1.6,0.2 -3,0.4 -4.3,0.6 -1.3,0.2 -2.4,0.4 -3.3,0.6 -1.8,0.3 -2.8,0.5 -2.8,0.5 0,0 1,-0.2 2.8,-0.5 0.9,-0.2 2,-0.4 3.3,-0.6 1.3,-0.3 2.7,-0.5 4.2,-0.7 1.6,-0.2 3.3,-0.5 5,-0.7 1.8,-0.3 3.7,-0.5 5.6,-0.7 2,-0.2 4,-0.5 6,-0.8 2.100003,-0.3 4.100003,-0.5 6.200003,-0.7 2.1,-0.2 4.2,-0.5 6.2,-0.7 2.1,-0.2 4.1,-0.4 6.1,-0.6 3.9,-0.4 7.6,-0.8 10.7,-1.1 l 10.5,-1 0.1,0.9 z"
     id="path7400"
     inkscape:connector-curvature="0"
     style="fill:#c13f0c" /><path
     d="m 139.52917,214.4029 c 0,0 16.6,-0.2 33.1,-1.3 8.3,-0.6 16.5,-1.4 22.6,-2.5 3.1,-0.5 5.6,-1.2 7.3,-1.8 0.4,-0.1 0.8,-0.3 1.1,-0.4 0.3,-0.1 0.6,-0.3 0.8,-0.4 0.4,-0.2 0.6,-0.4 0.6,-0.4 0,0 -0.2,0.1 -0.6,0.4 -0.2,0.1 -0.5,0.3 -0.8,0.4 -0.3,0.1 -0.7,0.3 -1.1,0.5 -1.7,0.6 -4.2,1.3 -7.2,1.9 -6.1,1.2 -14.4,2.1 -22.6,2.7 -16.5,1.3 -33.1,1.7 -33.1,1.7 l -0.1,-0.8 z"
     id="path7402"
     inkscape:connector-curvature="0"
     style="fill:#c13f0c" /><path
     d="m 140.42917,228.4029 c 0,0 -16.6,3.2 -33.4,5 -4.2,0.4 -8.400003,0.8 -12.400003,1 -2,0.1 -3.9,0.2 -5.7,0.2 h -5.1 c -1.6,-0.1 -3,-0.1 -4.3,-0.3 -0.6,-0.1 -1.2,-0.1 -1.8,-0.2 -0.6,-0.1 -1.1,-0.1 -1.5,-0.2 -0.5,-0.1 -0.9,-0.2 -1.2,-0.2 -0.3,-0.1 -0.6,-0.2 -0.9,-0.2 -0.5,-0.1 -0.7,-0.2 -0.7,-0.2 0,0 0.3,0.1 0.7,0.2 0.2,0.1 0.5,0.1 0.9,0.2 0.4,0.1 0.8,0.1 1.2,0.2 0.5,0.1 1,0.2 1.5,0.2 0.6,0.1 1.1,0.2 1.8,0.2 1.3,0.1 2.7,0.2 4.3,0.2 h 5.1 c 1.8,-0.1 3.7,-0.1 5.7,-0.3 3.9,-0.3 8.100003,-0.7 12.300003,-1.2 8.4,-1 16.7,-2.3 22.9,-3.4 6.2,-1.1 10.4,-1.9 10.4,-1.9 l 0.2,0.7 z"
     id="path7404"
     inkscape:connector-curvature="0"
     style="fill:#c13f0c" /><path
     d="m 142.42917,246.5029 c 0,0 0.2,0.1 0.5,0.2 0.3,0.1 0.8,0.2 1.5,0.4 0.6,0.2 1.4,0.3 2.4,0.4 0.9,0.1 2,0.3 3.1,0.3 1.1,0.1 2.4,0.2 3.7,0.2 h 4.1 c 1.4,-0.1 2.9,-0.1 4.4,-0.3 0.8,-0.1 1.5,-0.1 2.3,-0.2 0.8,-0.1 1.5,-0.2 2.3,-0.3 0.8,-0.1 1.5,-0.2 2.3,-0.3 0.8,-0.1 1.5,-0.3 2.2,-0.4 1.5,-0.3 3,-0.5 4.3,-0.8 1.4,-0.3 2.8,-0.6 4,-0.9 1.3,-0.3 2.5,-0.6 3.6,-0.9 1.1,-0.3 2.1,-0.6 3,-0.8 0.9,-0.3 1.7,-0.5 2.3,-0.7 1.3,-0.4 2,-0.6 2,-0.6 0,0 -0.7,0.2 -2,0.6 -0.6,0.2 -1.4,0.4 -2.3,0.7 -0.9,0.3 -1.9,0.6 -3,0.9 -1.1,0.3 -2.3,0.6 -3.6,1 -1.3,0.3 -2.6,0.6 -4,1 -1.4,0.3 -2.9,0.6 -4.3,0.9 -0.7,0.1 -1.5,0.3 -2.2,0.4 -0.8,0.1 -1.5,0.2 -2.3,0.3 -0.8,0.1 -1.5,0.2 -2.3,0.3 -0.8,0.1 -1.5,0.2 -2.3,0.2 -1.5,0.2 -3,0.2 -4.4,0.4 -1.4,0.1 -2.8,0.1 -4.2,0.1 -1.3,0 -2.6,0 -3.7,-0.1 -1.2,-0.1 -2.2,-0.2 -3.2,-0.3 -0.9,-0.1 -1.8,-0.3 -2.4,-0.4 -0.7,-0.1 -1.2,-0.3 -1.5,-0.4 -0.4,-0.1 -0.5,-0.2 -0.5,-0.2 l 0.2,-0.7 z"
     id="path7406"
     inkscape:connector-curvature="0"
     style="fill:#c13f0c" /><path
     d="m 140.42917,179.3029 c 0,0 0.7,-0.5 2,-1.3 0.6,-0.4 1.4,-0.8 2.4,-1.4 0.9,-0.5 2,-1 3.2,-1.6 0.6,-0.3 1.2,-0.5 1.9,-0.8 0.7,-0.3 1.3,-0.5 2,-0.8 0.7,-0.3 1.4,-0.5 2.2,-0.7 0.7,-0.2 1.5,-0.5 2.3,-0.7 l 2.4,-0.6 c 0.8,-0.2 1.7,-0.4 2.5,-0.5 1.7,-0.4 3.4,-0.6 5.1,-0.9 1.7,-0.2 3.5,-0.4 5.2,-0.5 0.9,0 1.7,-0.1 2.6,-0.1 h 2.5 c 0.8,0 1.6,0 2.4,0.1 0.8,0 1.6,0.1 2.3,0.1 0.7,0.1 1.5,0.2 2.2,0.2 0.4,0 0.7,0.1 1,0.1 0.3,0.1 0.7,0.1 1,0.2 1.3,0.2 2.5,0.4 3.5,0.7 1,0.3 1.9,0.5 2.7,0.7 1.4,0.5 2.3,0.8 2.3,0.8 0,0 -0.8,-0.2 -2.3,-0.6 -0.7,-0.2 -1.6,-0.4 -2.7,-0.6 -1,-0.2 -2.2,-0.4 -3.5,-0.5 -0.3,0 -0.7,-0.1 -1,-0.1 -0.3,0 -0.7,0 -1,-0.1 -0.7,-0.1 -1.4,-0.1 -2.2,-0.2 -0.7,0 -1.5,0 -2.3,-0.1 -0.8,0 -1.6,-0.1 -2.4,0 -0.8,0 -1.6,0 -2.5,0.1 -0.8,0 -1.7,0.1 -2.5,0.2 -1.7,0.1 -3.4,0.4 -5.1,0.5 -1.7,0.3 -3.4,0.5 -5.1,0.8 -0.8,0.2 -1.7,0.3 -2.5,0.5 l -2.4,0.6 c -0.8,0.2 -1.5,0.4 -2.3,0.6 -0.7,0.2 -1.5,0.4 -2.2,0.6 -0.7,0.2 -1.4,0.5 -2,0.7 -0.7,0.2 -1.3,0.5 -1.9,0.7 -1.2,0.5 -2.3,0.9 -3.2,1.4 -0.9,0.5 -1.8,0.8 -2.4,1.2 -1.5,0.9 -2.2,1.3 -2.2,1.3 z"
     id="path7408"
     inkscape:connector-curvature="0"
     style="fill:#ffa05f" /><path
     d="m 116.32917,184.1029 c 0,0 -0.7,-0.1 -1.9,-0.3 -0.6,-0.1 -1.3,-0.2 -2.2,-0.3 -0.4,0 -0.9,-0.1 -1.3,-0.1 -0.5,0 -1,0 -1.5,-0.1 -1,-0.1 -2.2,0 -3.3,0 -0.6,0 -1.2,0 -1.8,0.1 -0.6,0.1 -1.3,0.1 -1.9,0.1 -1.3,0.1 -2.600003,0.2 -4.000003,0.5 -1.3,0.2 -2.7,0.5 -4.1,0.7 -1.3,0.3 -2.7,0.5 -4,0.9 -1.3,0.3 -2.6,0.7 -3.9,1 -1.2,0.4 -2.4,0.7 -3.6,1 -1.1,0.4 -2.2,0.7 -3.2,1 -2,0.7 -3.6,1.2 -4.7,1.6 -1.1,0.4 -1.8,0.6 -1.8,0.6 0,0 0.6,-0.3 1.7,-0.8 0.6,-0.2 1.2,-0.5 2,-0.8 0.8,-0.3 1.7,-0.7 2.6,-1 1.9,-0.7 4.2,-1.6 6.7,-2.3 1.3,-0.4 2.5,-0.7 3.9,-1.1 1.3,-0.4 2.7,-0.6 4,-0.9 1.4,-0.2 2.7,-0.5 4.1,-0.6 1.4,-0.2 2.700003,-0.3 4.000003,-0.4 1.3,-0.1 2.6,-0.1 3.8,-0.1 1.2,0 2.3,0.1 3.4,0.2 0.5,0 1,0.1 1.5,0.1 0.5,0.1 0.9,0.1 1.3,0.2 0.8,0.1 1.6,0.2 2.2,0.4 1.3,0.2 2,0.4 2,0.4 z"
     id="path7410"
     inkscape:connector-curvature="0"
     style="fill:#ffa05f" /><path
     d="m 102.72917,200.8029 c 0,0 -0.4,0.1 -1.2,0.2 -0.7,0.1 -1.800003,0.3 -3.100003,0.5 -1.3,0.2 -2.7,0.4 -4.3,0.6 -1.6,0.2 -3.3,0.4 -5,0.5 -1.7,0.2 -3.4,0.5 -4.9,0.7 -1.6,0.2 -3.1,0.3 -4.3,0.5 -1.3,0.1 -2.3,0.2 -3.1,0.3 -0.7,0.1 -1.2,0.1 -1.2,0.1 0,0 0.4,-0.1 1.1,-0.2 0.7,-0.1 1.8,-0.4 3,-0.6 1.3,-0.2 2.7,-0.5 4.3,-0.7 1.6,-0.3 3.3,-0.5 5,-0.8 1.7,-0.2 3.4,-0.3 5,-0.4 1.6,-0.1 3.1,-0.2 4.4,-0.3 1.3,-0.1 2.300003,-0.1 3.100003,-0.2 0.7,-0.2 1.2,-0.2 1.2,-0.2 z"
     id="path7412"
     inkscape:connector-curvature="0"
     style="fill:#ffa05f" /><path
     d="m 72.729167,225.3029 h 1.2 c 0.4,0 0.9,0 1.4,0.1 0.5,0 1.1,0 1.8,0.1 h 4.5 c 1.7,0 3.4,-0.1 5.2,-0.2 1.8,-0.1 3.5,-0.2 5.2,-0.4 0.8,-0.1 1.6,-0.1 2.4,-0.2 0.8,-0.1 1.5,-0.2 2.1,-0.2 1.3,-0.1 2.4,-0.3 3.2,-0.4 0.800003,-0.1 1.200003,-0.1 1.200003,-0.1 0,0 -0.4,0.1 -1.200003,0.3 -0.4,0.1 -0.8,0.2 -1.4,0.3 -0.5,0.1 -1.1,0.3 -1.8,0.4 -1.3,0.2 -2.8,0.5 -4.5,0.7 -0.8,0.1 -1.7,0.2 -2.6,0.3 -0.9,0.1 -1.8,0.1 -2.6,0.2 -0.9,0 -1.8,0.1 -2.7,0.1 h -2.6 c -0.8,0 -1.6,0 -2.4,-0.1 -0.8,-0.1 -1.5,-0.1 -2.1,-0.2 -0.7,0 -1.3,-0.1 -1.8,-0.2 -0.5,-0.1 -1,-0.2 -1.4,-0.2 -0.7,-0.2 -1.1,-0.3 -1.1,-0.3 z"
     id="path7414"
     inkscape:connector-curvature="0"
     style="fill:#ffa05f" /><path
     d="m 94.629167,251.9029 c 0,0 0.5,0.2 1.3,0.5 0.4,0.2 1,0.3 1.6,0.5 0.6,0.2 1.3,0.3 2,0.5 0.700003,0.2 1.600003,0.3 2.500003,0.4 0.9,0.1 1.8,0.2 2.8,0.2 1,0.1 2,0.1 3,0.1 h 3.1 c 1,-0.1 2.1,-0.1 3.1,-0.2 1,-0.1 2,-0.1 3,-0.2 1.9,-0.2 3.8,-0.3 5.3,-0.5 1.6,-0.2 2.9,-0.3 3.8,-0.4 0.9,-0.1 1.4,-0.1 1.4,-0.1 0,0 -0.5,0.1 -1.4,0.3 -0.9,0.2 -2.2,0.4 -3.7,0.7 -1.5,0.3 -3.3,0.5 -5.3,0.8 l -3,0.3 c -1,0.1 -2.1,0.1 -3.1,0.2 -1.1,0 -2.1,0.1 -3.1,0 -1,0 -2.1,-0.1 -3,-0.2 -1,-0.1 -1.9,-0.2 -2.8,-0.4 -0.9,-0.2 -1.7,-0.3 -2.500003,-0.6 -0.4,-0.1 -0.7,-0.2 -1.1,-0.3 -0.3,-0.1 -0.7,-0.2 -1,-0.4 -0.6,-0.2 -1.1,-0.4 -1.5,-0.6 -1,-0.3 -1.4,-0.6 -1.4,-0.6 z"
     id="path7416"
     inkscape:connector-curvature="0"
     style="fill:#ffa05f" /><path
     d="m 175.12917,194.4029 c 0,0 0.5,-0.1 1.3,-0.2 0.8,-0.1 2,-0.3 3.4,-0.5 1.4,-0.2 3,-0.5 4.8,-0.7 1.8,-0.2 3.6,-0.5 5.5,-0.7 1.9,-0.3 3.7,-0.6 5.5,-0.8 1.7,-0.3 3.4,-0.4 4.8,-0.6 1.4,-0.2 2.6,-0.3 3.4,-0.4 0.8,-0.1 1.3,-0.1 1.3,-0.1 0,0 -0.5,0.1 -1.3,0.3 -0.8,0.2 -2,0.4 -3.3,0.7 -1.4,0.3 -3,0.6 -4.8,0.9 -1.7,0.3 -3.6,0.6 -5.5,0.9 -1.9,0.2 -3.7,0.4 -5.5,0.6 -1.8,0.2 -3.4,0.3 -4.8,0.4 -1.4,0.1 -2.6,0.2 -3.4,0.2 h -1.4 z"
     id="path7418"
     inkscape:connector-curvature="0"
     style="fill:#ffa05f" /><path
     d="m 178.82917,216.4029 h 4.7 c 0.7,0 1.5,0 2.3,-0.1 0.8,0 1.7,-0.1 2.5,-0.2 0.9,-0.1 1.8,-0.1 2.7,-0.3 0.9,-0.1 1.8,-0.3 2.8,-0.4 l 2.7,-0.6 c 0.9,-0.2 1.8,-0.4 2.6,-0.6 0.8,-0.3 1.7,-0.4 2.4,-0.7 0.8,-0.3 1.5,-0.5 2.1,-0.8 0.3,-0.1 0.6,-0.2 1,-0.3 0.3,-0.1 0.6,-0.3 0.8,-0.4 0.5,-0.2 1,-0.4 1.3,-0.6 0.8,-0.3 1.2,-0.5 1.2,-0.5 0,0 -0.4,0.2 -1.1,0.7 -0.4,0.2 -0.8,0.5 -1.3,0.7 -0.3,0.1 -0.5,0.3 -0.8,0.5 -0.3,0.1 -0.6,0.3 -0.9,0.4 l -2.1,0.9 c -0.8,0.3 -1.6,0.5 -2.4,0.8 -0.9,0.3 -1.7,0.6 -2.7,0.7 -0.9,0.2 -1.9,0.4 -2.8,0.6 -0.9,0.1 -1.9,0.2 -2.8,0.4 -0.9,0.2 -1.9,0.2 -2.8,0.2 -0.9,0 -1.8,0.1 -2.6,0.1 -0.8,0 -1.6,0 -2.3,-0.1 h -1 c -0.3,0 -0.6,-0.1 -0.9,-0.1 -0.6,-0.1 -1.1,-0.1 -1.5,-0.2 -0.7,0 -1.1,-0.1 -1.1,-0.1 z"
     id="path7420"
     inkscape:connector-curvature="0"
     style="fill:#ffa05f" /><path
     enable-background="new "
     d="m 172.52917,214.8029 c 0,18.5 -15.7,33.5 -35,33.5 -19.3,0 -35,-15 -35,-33.5 0,-18.5 15.7,-33.5 35,-33.5 19.3,0 35,15 35,33.5 z"
     id="path7422"
     inkscape:connector-curvature="0"
     style="opacity:0.2;fill:#c13f0c" /><linearGradient
     id="SVGID_27_"
     y2="183.42"
     gradientUnits="userSpaceOnUse"
     x2="173.51"
     gradientTransform="matrix(1,0,0,-1,0.02916667,395.7029)"
     y1="183.42"
     x1="101.61"><stop
       stop-color="#F9B233"
       offset="0"
       id="stop7425" /><stop
       stop-color="#F9CE33"
       offset=".215"
       id="stop7427" /><stop
       stop-color="#EE8D29"
       offset=".745"
       id="stop7429" /><stop
       stop-color="#F9B233"
       offset="1"
       id="stop7431" /></linearGradient><path
     stroke-miterlimit="10"
     d="m 166.92917,203.2029 -0.2,-11.1 -11,-3.6 -7,-8.8 -11.1,3.2 -11.1,-3.2 -7,8.8 -11,3.6 -0.2,11.1 -6.6,9.1 6.6,9.1 0.2,11.1 11,3.6 7,8.8 11.1,-3.2 11.1,3.2 7,-8.8 11,-3.6 0.2,-11.1 6.6,-9.1 -6.6,-9.1 z m -29.6,27.6 c -10.7,0 -19.4,-8.3 -19.4,-18.5 0,-10.2 8.7,-18.5 19.4,-18.5 10.7,0 19.4,8.3 19.4,18.5 -0.1,10.2 -8.7,18.5 -19.4,18.5 z"
     id="path7433"
     style="fill:url(#SVGID_27_);stroke:#ce6117;stroke-width:2;stroke-miterlimit:10"
     inkscape:connector-curvature="0" /><linearGradient
     id="SVGID_28_"
     y2="183.42"
     gradientUnits="userSpaceOnUse"
     x2="166.92"
     gradientTransform="matrix(1,0,0,-1,0.02916667,395.7029)"
     y1="183.42"
     x1="107.61"><stop
       stop-color="#DC7D22"
       offset="0"
       id="stop7436" /><stop
       stop-color="#F79034"
       offset="1"
       id="stop7438" /></linearGradient><path
     stroke-miterlimit="10"
     d="m 166.92917,212.3029 -4,-8 -1.7,-8.7 -8.1,-4.2 -6.7,-6.1 -9.2,1.2 -9.2,-1.2 -6.7,6.1 -8.1,4.2 -1.7,8.7 -4,8 4,8 1.7,8.7 8.1,4.2 6.7,6.1 9.2,-1.2 9.2,1.2 6.7,-6.1 8.1,-4.2 1.7,-8.7 4,-8 z m -29.6,18.5 c -10.7,0 -19.4,-8.3 -19.4,-18.5 0,-10.2 8.7,-18.5 19.4,-18.5 10.7,0 19.4,8.3 19.4,18.5 -0.1,10.2 -8.7,18.5 -19.4,18.5 z"
     id="path7440"
     style="fill:url(#SVGID_28_);stroke:#ce6117;stroke-width:2;stroke-miterlimit:10"
     inkscape:connector-curvature="0" /><g
     stroke-miterlimit="10"
     id="g7442"
     transform="translate(0.02916667,-0.29710455)"
     style="fill:none;stroke:#ce6117;stroke-width:2;stroke-miterlimit:10"><line
       x2="146.39999"
       y1="179.89999"
       x1="148.7"
       y2="185.60001"
       id="line7444" /><line
       x2="161.3"
       y1="192.39999"
       x1="166.60001"
       y2="195.89999"
       id="line7446" /><line
       x2="166.89999"
       y1="212.60001"
       x1="173.5"
       y2="212.60001"
       id="line7448" /><line
       x2="161.3"
       y1="232.8"
       x1="166.60001"
       y2="229.3"
       id="line7450" /><line
       x2="146.39999"
       y1="245.3"
       x1="148.7"
       y2="239.60001"
       id="line7452" /><line
       x2="128.10001"
       y1="245.3"
       x1="126.4"
       y2="239.60001"
       id="line7454" /><line
       x2="113.3"
       y1="232.8"
       x1="108.5"
       y2="229.3"
       id="line7456" /><line
       x2="107.6"
       y1="212.60001"
       x1="101.6"
       y2="212.60001"
       id="line7458" /><line
       x2="113.3"
       y1="192.39999"
       x1="108.5"
       y2="195.89999"
       id="line7460" /><line
       x2="128.10001"
       y1="179.89999"
       x1="126.4"
       y2="185.60001"
       id="line7462" /><line
       x2="111.6"
       y1="221.7"
       x1="108.2"
       y2="220.60001"
       id="line7464" /><line
       x2="121.4"
       y1="236.39999"
       x1="119.4"
       y2="233.5"
       id="line7466" /><line
       x2="137.3"
       y1="242.10001"
       x1="137.60001"
       y2="238.39999"
       id="line7468" /><line
       x2="153.10001"
       y1="236.8"
       x1="155.39999"
       y2="233.5"
       id="line7470" /><line
       x2="162.89999"
       y1="221.7"
       x1="166.89999"
       y2="220.60001"
       id="line7472" /><line
       x2="162.89999"
       y1="203.5"
       x1="166.89999"
       y2="204.60001"
       id="line7474" /><line
       x2="153.10001"
       y1="188.7"
       x1="155.7"
       y2="191.7"
       id="line7476" /><line
       x2="137.3"
       y1="183.10001"
       x1="137.60001"
       y2="186.8"
       id="line7478" /><line
       x2="121.4"
       y1="188.7"
       x1="119.4"
       y2="191.7"
       id="line7480" /><line
       x2="111.6"
       y1="203.5"
       x1="108.2"
       y2="204.60001"
       id="line7482" /></g><g
     id="g7484"
     transform="translate(0.02916667,-0.29710455)"
     style="opacity:0.4"><path
       d="m 56.4,134.6 c 0,0 0.2,0.2 0.3,0.7 0.1,0.2 0.2,0.5 0.3,0.8 0.1,0.3 0.2,0.7 0.2,1.1 0.1,0.4 0.1,0.8 0.1,1.3 v 1.5 c 0,0.5 -0.1,1 -0.2,1.6 -0.1,0.5 -0.2,1.1 -0.4,1.6 l -0.6,1.5 c -0.2,0.5 -0.4,1 -0.7,1.4 -0.3,0.4 -0.5,0.9 -0.8,1.3 -0.3,0.4 -0.6,0.7 -0.9,1 l -0.8,0.8 c -0.3,0.2 -0.5,0.4 -0.7,0.6 -0.4,0.3 -0.6,0.5 -0.6,0.5 0,0 0.2,-0.2 0.5,-0.6 0.2,-0.2 0.3,-0.4 0.6,-0.6 0.2,-0.3 0.4,-0.6 0.7,-0.9 0.3,-0.3 0.5,-0.7 0.7,-1.1 0.3,-0.4 0.5,-0.8 0.7,-1.3 0.3,-0.4 0.4,-0.9 0.6,-1.4 0.2,-0.5 0.4,-1 0.5,-1.5 0.1,-0.5 0.3,-1 0.4,-1.5 l 0.3,-1.5 c 0.1,-0.5 0.1,-1 0.1,-1.4 v -1.3 c 0,-0.8 -0.1,-1.5 -0.1,-1.9 0,-0.2 -0.1,-0.4 -0.1,-0.5 0,-0.1 -0.1,-0.2 -0.1,-0.2 z"
       id="path7486"
       inkscape:connector-curvature="0"
       style="fill:#3ad87a" /></g></svg>