<?xml version="1.0" encoding="UTF-8" standalone="no"?>
<!-- Generator: Adobe Illustrator 18.0.0, SVG Export Plug-In . SVG Version: 6.00 Build 0) -->

<svg
   xmlns:dc="http://purl.org/dc/elements/1.1/"
   xmlns:cc="http://creativecommons.org/ns#"
   xmlns:rdf="http://www.w3.org/1999/02/22-rdf-syntax-ns#"
   xmlns:svg="http://www.w3.org/2000/svg"
   xmlns="http://www.w3.org/2000/svg"
   xmlns:sodipodi="http://sodipodi.sourceforge.net/DTD/sodipodi-0.dtd"
   xmlns:inkscape="http://www.inkscape.org/namespaces/inkscape"
   id="Layer_1"
   xml:space="preserve"
   version="1.1"
   x="0px"
   y="0px"
   width="250.9px"
   height="396.5px"
   viewBox="0 0 250.9 396.5"
   enable-background="new 0 0 250.9 396.5"
   inkscape:version="0.48.4 r9939"
   sodipodi:docname="Nigel.svg"><metadata
     id="metadata9398"><rdf:RDF><cc:Work
         rdf:about=""><dc:format>image/svg+xml</dc:format><dc:type
           rdf:resource="http://purl.org/dc/dcmitype/StillImage" /></cc:Work></rdf:RDF></metadata><defs
     id="defs9396" /><sodipodi:namedview
     pagecolor="#ffffff"
     bordercolor="#666666"
     borderopacity="1"
     objecttolerance="10"
     gridtolerance="10"
     guidetolerance="10"
     inkscape:pageopacity="0"
     inkscape:pageshadow="2"
     inkscape:window-width="1920"
     inkscape:window-height="1028"
     id="namedview9394"
     showgrid="false"
     inkscape:zoom="0.59520807"
     inkscape:cx="-68.599791"
     inkscape:cy="198.25"
     inkscape:window-x="0"
     inkscape:window-y="515"
     inkscape:window-maximized="1"
     inkscape:current-layer="Layer_1" /><ellipse
     rx="124"
     ry="91.5"
     cy="211.8"
     cx="125.3"
     enable-background="new "
     id="ellipse9116"
     sodipodi:cx="125.3"
     sodipodi:cy="211.8"
     sodipodi:rx="124"
     sodipodi:ry="91.5"
     transform="translate(0.14999695,-19.351513)"
     style="opacity:0.1" /><path
     stroke-miterlimit="10"
     d="m 58.749997,154.84849 c 0,0 -10.1,-17.3 -5.8,-26.7 4.3,-9.4 16.4,-16 24.2,-15.3 16.1,1.3 15.2,8.9 19.4,22.4 4.200003,13.5 -37.8,20.1 -37.8,20.1"
     id="path9118"
     inkscape:connector-curvature="0"
     style="fill:#9b40c6;stroke:#5c0a8c;stroke-width:2;stroke-miterlimit:10" /><path
     d="m 59.449997,154.44849 c 5.1,-0.9 30.1,-5.6 35.5,-14.1 1,-1.6 1.2,-3.1 0.7,-4.7 -0.7,-2.2 -1.2,-4.2 -1.7,-6.1 -2.6,-9.5 -3.9,-14.4 -15.7,-15.7 -3.8,2.2 -6.6,5.7 -6.8,9.8 -1.8,-0.1 -4.4,-0.3 -6,0.3 -4.2,1.7 -5.8,7.3 -8.3,10.1 -1.2,1.4 -2.6,2.5 -4,3.6 1.3,8.1 6.2,16.6 6.3,16.8 z"
     id="path9120"
     inkscape:connector-curvature="0"
     style="fill:#6c269e" /><linearGradient
     id="SVGID_1_"
     y2="236.28"
     gradientUnits="userSpaceOnUse"
     x2="104.31"
     gradientTransform="matrix(1,0,0,-1,0.14999695,376.64849)"
     y1="236.28"
     x1="50.926"><stop
       stop-color="#8C715E"
       offset=".0167"
       id="stop9123" /><stop
       stop-color="#7B553F"
       offset="1"
       id="stop9125" /></linearGradient><path
     stroke-miterlimit="10"
     d="m 96.649997,131.04849 c 0.2,-2.3 -1.9,-4.4 -3.2,-5 -0.5,-0.2 -0.7,-13.2 -8.4,-13.1 -5.7,0 -10.3,4.5 -10.3,10.1 0,2.4 2.2,5.4 2.3,6.3 -0.7,-0.4 -1.8,-3.3 -6.1,-3.3 -3.6,0 -6.5,2.8 -6.5,6.3 0,2.1 2.9,5 2.7,5.1 -0.2,0.1 -3.2,-2.4 -5,-1.9 -3.2,0 -5.8,2.5 -5.8,5.7 0,0.5 0.1,1 0.2,1.5 -0.4,-0.1 -0.8,-0.2 -1.2,-0.2 -2.3,0 -4.2,1.8 -4.2,4.1 0,2.3 1.9,4.1 4.2,4.1 2,3.7 10.3,17.1 10.3,17.1 l 38.800003,-20.9 c 0,-0.1 -8.100003,-12.9 -7.800003,-15.9 z"
     id="path9127"
     style="fill:url(#SVGID_1_);stroke:#35261b;stroke-width:3;stroke-miterlimit:10"
     inkscape:connector-curvature="0" /><path
     stroke-miterlimit="10"
     d="m 88.449997,118.24849 c 1.4,2.3 -0.3,3.8 -2.7,5.2 -2.4,1.4 -4.5,2.2 -5.9,-0.1 -1.4,-2.3 -0.6,-5.3 1.8,-6.7 2.4,-1.4 5.4,-0.7 6.8,1.6 z"
     id="path9129"
     inkscape:connector-curvature="0"
     style="fill:#cc937a;stroke:#af6c54;stroke-width:0.5;stroke-miterlimit:10" /><path
     stroke-miterlimit="10"
     d="m 72.749997,129.64849 c 0.9,1.4 -0.2,2.4 -1.7,3.2 -1.5,0.9 -2.9,1.4 -3.7,-0.1 -0.9,-1.4 -0.4,-3.3 1.1,-4.2 1.5,-0.8 3.5,-0.3 4.3,1.1 z"
     id="path9131"
     inkscape:connector-curvature="0"
     style="fill:#cc937a;stroke:#af6c54;stroke-width:0.5;stroke-miterlimit:10" /><path
     stroke-miterlimit="10"
     d="m 63.449997,138.54849 c 0.7,1.2 -0.2,1.9 -1.4,2.6 -1.2,0.7 -2.3,1.1 -3,0 -0.7,-1.2 -0.3,-2.7 0.9,-3.4 1.2,-0.7 2.8,-0.3 3.5,0.8 z"
     id="path9133"
     inkscape:connector-curvature="0"
     style="fill:#cc937a;stroke:#af6c54;stroke-width:0.5;stroke-miterlimit:10" /><path
     stroke-miterlimit="10"
     d="m 55.749997,144.74849 c 0.8,0.4 0.6,1.1 0.2,2 -0.4,0.8 -0.9,1.4 -1.7,1 -0.8,-0.4 -1.2,-1.4 -0.7,-2.2 0.3,-0.8 1.4,-1.2 2.2,-0.8 z"
     id="path9135"
     inkscape:connector-curvature="0"
     style="fill:#cc937a;stroke:#af6c54;stroke-width:0.5;stroke-miterlimit:10" /><path
     d="m 83.849997,131.34849 c 0,0 0.1,-0.1 0.4,-0.2 0.2,-0.1 0.6,-0.2 1,-0.4 l 0.6,-0.3 c 0.2,-0.1 0.4,-0.2 0.7,-0.3 0.5,-0.2 0.9,-0.5 1.4,-0.8 0.4,-0.3 0.9,-0.6 1.3,-0.9 0.2,-0.2 0.4,-0.3 0.6,-0.5 l 0.5,-0.5 c 0.3,-0.3 0.5,-0.6 0.7,-0.7 l 0.3,-0.3 c 0,0 0,0.1 -0.1,0.4 -0.1,0.2 -0.2,0.6 -0.4,1 -0.1,0.2 -0.2,0.4 -0.4,0.6 -0.1,0.2 -0.3,0.4 -0.5,0.6 l -0.6,0.6 c -0.2,0.2 -0.5,0.4 -0.7,0.5 -0.3,0.1 -0.5,0.3 -0.8,0.4 -0.2,0.2 -0.5,0.2 -0.8,0.3 -0.3,0.1 -0.5,0.2 -0.8,0.3 -0.2,0.1 -0.5,0.1 -0.7,0.2 -0.4,0.1 -0.8,0.1 -1,0.1 -0.6,-0.1 -0.7,-0.1 -0.7,-0.1 z"
     id="path9137"
     inkscape:connector-curvature="0"
     style="fill:#35261b" /><path
     d="m 71.149997,137.24849 c 0,0 0.1,0 0.3,-0.1 0.2,-0.1 0.5,-0.1 0.8,-0.2 0.1,-0.1 0.3,-0.1 0.5,-0.2 0.2,0 0.3,-0.2 0.5,-0.2 0.2,-0.1 0.4,-0.2 0.5,-0.3 0.2,-0.1 0.3,-0.2 0.5,-0.3 0.2,-0.1 0.3,-0.3 0.5,-0.4 0.2,-0.1 0.3,-0.3 0.4,-0.4 l 0.4,-0.4 c 0.1,-0.1 0.2,-0.3 0.3,-0.4 0.2,-0.2 0.3,-0.5 0.4,-0.6 0.1,-0.2 0.2,-0.3 0.2,-0.3 0,0 0,0.1 0,0.3 0,0.2 0,0.5 -0.1,0.8 -0.1,0.2 -0.1,0.3 -0.2,0.5 -0.1,0.2 -0.2,0.4 -0.3,0.5 -0.1,0.2 -0.2,0.4 -0.4,0.5 -0.2,0.2 -0.4,0.3 -0.5,0.5 -0.2,0.1 -0.4,0.2 -0.6,0.4 -0.2,0.1 -0.4,0.2 -0.6,0.2 -0.2,0.1 -0.4,0.1 -0.6,0.1 h -0.6 c -0.3,0 -0.6,-0.1 -0.8,-0.1 -0.5,0.1 -0.6,0.1 -0.6,0.1 z"
     id="path9139"
     inkscape:connector-curvature="0"
     style="fill:#35261b" /><path
     d="m 61.649997,144.94849 c 0,0 0.1,-0.1 0.2,-0.1 0.1,-0.1 0.4,-0.2 0.6,-0.3 0.1,-0.1 0.2,-0.1 0.4,-0.2 0.1,-0.1 0.3,-0.2 0.4,-0.3 0.1,-0.1 0.3,-0.2 0.4,-0.3 0.1,-0.1 0.3,-0.2 0.4,-0.3 0.3,-0.2 0.5,-0.4 0.8,-0.7 0.3,-0.2 0.4,-0.5 0.7,-0.6 0.2,-0.2 0.3,-0.4 0.5,-0.5 l 0.2,-0.2 c 0,0 0,0.1 0,0.3 0,0.2 -0.1,0.4 -0.2,0.7 -0.1,0.3 -0.3,0.6 -0.5,0.9 -0.1,0.1 -0.2,0.3 -0.4,0.4 l -0.4,0.4 c -0.2,0.1 -0.3,0.2 -0.5,0.3 -0.2,0.1 -0.3,0.2 -0.5,0.3 -0.3,0.2 -0.7,0.2 -1,0.3 -0.3,0.1 -0.5,0 -0.7,0 -0.3,-0.1 -0.4,-0.1 -0.4,-0.1 z"
     id="path9141"
     inkscape:connector-curvature="0"
     style="fill:#35261b" /><path
     d="m 57.349997,149.34849 c 0,0 0,-0.1 0.1,-0.2 0,-0.1 0.1,-0.2 0.2,-0.4 0.1,-0.1 0.1,-0.3 0.2,-0.4 0.1,-0.2 0.2,-0.3 0.2,-0.5 0.2,-0.3 0.3,-0.7 0.4,-0.9 0.1,-0.3 0.3,-0.5 0.3,-0.5 0,0 0,0 0.1,0.1 0,0.1 0.1,0.2 0.2,0.4 0,0.2 0.1,0.4 0,0.6 0,0.1 0,0.2 -0.1,0.3 l -0.1,0.3 -0.2,0.3 c -0.1,0.1 -0.1,0.2 -0.2,0.3 -0.1,0.2 -0.3,0.3 -0.5,0.4 -0.2,0.1 -0.3,0.1 -0.4,0.1 -0.1,0.1 -0.2,0.1 -0.2,0.1 z"
     id="path9143"
     inkscape:connector-curvature="0"
     style="fill:#35261b" /><path
     enable-background="new "
     d="m 102.55,146.34849 c -2.5,-4 -7.500003,-12.6 -7.200003,-15.5 v -0.5 c -13.6,3.8 -30.5,14.5 -36.9,23.1 2.5,4.1 6.2,10.2 7.7,12.6 l 36.400003,-19.7 z"
     id="path9145"
     inkscape:connector-curvature="0"
     style="opacity:0.5;fill:#473426" /><path
     stroke-miterlimit="10"
     d="m 56.249997,159.44849 c 2.1,-2.9 26.4,-24.6 44.300003,-25.9 5.8,5.7 8.7,13.2 8.7,13.2 0,0 -45.400003,25.5 -44.900003,24.9 0.4,-0.6 -7.7,-8.2 -8.1,-12.2 z"
     id="path9147"
     inkscape:connector-curvature="0"
     style="fill:#9b40c6;stroke:#5c0a8c;stroke-width:2;stroke-miterlimit:10" /><path
     stroke-miterlimit="10"
     d="M 74.349997,143.84849"
     id="path9149"
     inkscape:connector-curvature="0"
     style="fill:none;stroke:#35261b;stroke-miterlimit:10" /><path
     d="m 62.949997,168.24849 c 0.9,1 1.5,1.7 1.8,2.3 4.5,-2.4 27.4,-15.2 43.300003,-24.1 -0.7,-1.7 -2.9,-6.3 -6.5,-10.4 -17.200003,5 -35.100003,19.3 -43.200003,26.4 1.3,1.9 3.2,4.2 4.6,5.8 z"
     id="path9151"
     inkscape:connector-curvature="0"
     style="fill:#6c269e" /><path
     d="m 52.749997,133.44849 v -0.4 c 0,-0.2 0,-0.6 0.1,-1.1 0.1,-0.5 0.2,-1 0.3,-1.6 0.2,-0.6 0.4,-1.3 0.8,-2 0.3,-0.7 0.8,-1.5 1.3,-2.3 0.5,-0.8 1.1,-1.6 1.7,-2.3 0.7,-0.8 1.4,-1.5 2.1,-2.2 l 2.4,-2.1 c 1.7,-1.3 3.6,-2.4 5.4,-3.3 1.8,-0.9 3.6,-1.5 5.2,-1.9 1.6,-0.4 2.9,-0.5 3.9,-0.5 0.5,0 0.8,0.1 1.1,0.1 0.2,0.1 0.4,0.1 0.4,0.1 0,0 -0.1,0 -0.4,0 -0.2,0 -0.6,0 -1.1,0.1 -0.9,0.2 -2.1,0.5 -3.6,1.1 -1.4,0.6 -3.1,1.3 -4.8,2.3 -0.8,0.5 -1.7,1 -2.5,1.5 -0.8,0.5 -1.7,1.1 -2.5,1.8 -0.8,0.6 -1.6,1.3 -2.4,1.9 -0.7,0.7 -1.5,1.3 -2.1,2 -0.7,0.7 -1.3,1.4 -1.8,2 -0.5,0.7 -1,1.3 -1.4,2 -0.4,0.6 -0.7,1.2 -1,1.8 -0.3,0.6 -0.5,1.1 -0.6,1.5 -0.1,0.4 -0.3,0.8 -0.3,1 -0.1,0.3 -0.2,0.5 -0.2,0.5 z"
     id="path9153"
     inkscape:connector-curvature="0"
     style="fill:#b062dd" /><path
     d="m 57.349997,159.64849 c 0,0 0.5,-0.6 1.5,-1.6 1,-1 2.3,-2.4 4.1,-4 0.9,-0.8 1.8,-1.6 2.9,-2.5 1,-0.9 2.2,-1.8 3.3,-2.7 1.2,-0.9 2.4,-1.8 3.7,-2.7 0.6,-0.4 1.3,-0.9 1.9,-1.3 0.7,-0.4 1.3,-0.9 2,-1.3 1.3,-0.9 2.7,-1.6 4.1,-2.4 1.4,-0.8 2.8,-1.4 4.1,-2.1 1.4,-0.6 2.7,-1.2 3.9,-1.7 1.3,-0.5 2.5,-0.9 3.6,-1.3 1.1,-0.3 2.2,-0.6 3.1,-0.9 0.9,-0.3 1.8,-0.4 2.5,-0.5 1.4,-0.2 2.100003,-0.4 2.100003,-0.4 0,0 -0.700003,0.3 -2.100003,0.7 -0.6,0.2 -1.5,0.5 -2.3,0.8 -0.9,0.4 -1.9,0.8 -3,1.2 -1.1,0.5 -2.2,1 -3.5,1.6 -1.2,0.6 -2.5,1.2 -3.8,1.9 -1.3,0.7 -2.6,1.4 -3.9,2.2 -1.3,0.8 -2.7,1.5 -4,2.4 -0.7,0.4 -1.3,0.8 -2,1.2 -0.6,0.4 -1.3,0.9 -1.9,1.3 -1.3,0.8 -2.5,1.7 -3.7,2.5 -1.2,0.9 -2.4,1.6 -3.4,2.4 -1.1,0.8 -2.1,1.5 -3.1,2.2 -1.9,1.4 -3.4,2.6 -4.5,3.4 -1,1.2 -1.6,1.6 -1.6,1.6 z"
     id="path9155"
     inkscape:connector-curvature="0"
     style="fill:#b062dd" /><path
     d="m 83.249997,131.04849 c 0,0 0.1,-0.1 0.4,-0.2 0.1,0 0.3,-0.1 0.5,-0.2 0.2,0 0.4,-0.1 0.6,-0.2 l 0.6,-0.3 c 0.2,-0.1 0.4,-0.3 0.7,-0.4 0.2,-0.1 0.5,-0.3 0.7,-0.4 0.2,-0.2 0.5,-0.3 0.7,-0.5 0.5,-0.4 0.9,-0.7 1.3,-1.1 0.2,-0.2 0.4,-0.3 0.6,-0.5 l 0.5,-0.5 0.4,-0.4 c 0.1,-0.1 0.2,-0.3 0.3,-0.4 l 0.3,-0.3 c 0,0 0,0.1 -0.1,0.4 -0.1,0.2 -0.2,0.6 -0.5,1 -0.2,0.4 -0.5,0.9 -0.9,1.3 -0.2,0.2 -0.4,0.5 -0.6,0.6 -0.2,0.2 -0.5,0.4 -0.7,0.6 -0.3,0.2 -0.5,0.3 -0.8,0.5 -0.3,0.2 -0.5,0.3 -0.8,0.4 -0.3,0.1 -0.5,0.2 -0.8,0.3 -0.3,0.1 -0.5,0.1 -0.8,0.2 -0.5,0.1 -0.8,0.1 -1.1,0.1 h -0.5 z"
     id="path9157"
     inkscape:connector-curvature="0"
     style="fill:#a88e7d" /><path
     d="m 71.149997,137.04849 c 0,0 0.1,-0.1 0.3,-0.1 0.2,-0.1 0.4,-0.2 0.7,-0.3 0.1,-0.1 0.3,-0.2 0.4,-0.2 0.1,-0.1 0.3,-0.2 0.4,-0.3 0.3,-0.2 0.6,-0.4 0.9,-0.7 l 0.8,-0.8 c 0.1,-0.1 0.2,-0.2 0.3,-0.4 0.1,-0.1 0.2,-0.3 0.3,-0.4 0.2,-0.2 0.3,-0.4 0.4,-0.6 l 0.2,-0.2 c 0,0 0,0.1 0,0.3 0,0.2 0,0.5 -0.1,0.7 0,0.1 -0.1,0.3 -0.2,0.5 -0.1,0.2 -0.2,0.3 -0.3,0.5 -0.1,0.2 -0.2,0.4 -0.4,0.5 -0.1,0.2 -0.3,0.3 -0.4,0.5 -0.2,0.1 -0.4,0.3 -0.5,0.4 l -0.6,0.3 c -0.2,0.1 -0.4,0.2 -0.5,0.2 -0.2,0 -0.4,0.1 -0.5,0.1 -0.3,0.1 -0.6,0 -0.8,0 h -0.4 z"
     id="path9159"
     inkscape:connector-curvature="0"
     style="fill:#a88e7d" /><path
     d="m 62.449997,144.34849 c 0,0 0.1,-0.3 0.4,-0.7 0.3,-0.4 0.7,-0.8 1.2,-1.2 0.5,-0.4 1,-0.7 1.4,-0.9 0.4,-0.2 0.8,-0.3 0.8,-0.3 0,0 -0.1,0.3 -0.4,0.7 -0.3,0.4 -0.7,0.8 -1.2,1.2 -0.5,0.4 -1,0.7 -1.4,0.9 -0.5,0.3 -0.8,0.3 -0.8,0.3 z"
     id="path9161"
     inkscape:connector-curvature="0"
     style="fill:#a88e7d" /><path
     d="m 57.349997,148.44849 c 0,0 -0.1,-0.2 -0.1,-0.4 0,-0.2 0,-0.5 0.1,-0.7 0.1,-0.2 0.3,-0.5 0.4,-0.6 l 0.4,-0.2 c 0,0 0.1,0.2 0.1,0.4 0,0.2 0,0.5 -0.1,0.7 -0.1,0.2 -0.3,0.5 -0.4,0.6 -0.2,0.2 -0.4,0.2 -0.4,0.2 z"
     id="path9163"
     inkscape:connector-curvature="0"
     style="fill:#a88e7d" /><path
     stroke-miterlimit="10"
     d="m 165.75,154.84849 c 0,0 10.1,-17.3 5.8,-26.7 -4.3,-9.3 -16.4,-16 -24.2,-15.3 -16.1,1.3 -15.2,8.9 -19.4,22.4 -4.2,13.5 37.8,20.1 37.8,20.1"
     id="path9165"
     inkscape:connector-curvature="0"
     style="fill:#9b40c6;stroke:#5c0a8c;stroke-width:2;stroke-miterlimit:10" /><path
     d="m 164.95,154.44849 c -5.1,-0.9 -30.1,-5.6 -35.5,-14.1 -1,-1.6 -1.2,-3.1 -0.7,-4.7 0.7,-2.2 1.2,-4.2 1.7,-6.1 2.6,-9.5 3.9,-14.4 15.7,-15.7 3.8,2.2 6.6,5.7 6.8,9.8 1.8,-0.1 4.4,-0.3 6,0.3 4.2,1.7 5.8,7.3 8.3,10.1 1.2,1.4 2.6,2.5 4,3.6 -1.3,8.1 -6.2,16.6 -6.3,16.8 z"
     id="path9167"
     inkscape:connector-curvature="0"
     style="fill:#6c269e" /><linearGradient
     id="SVGID_2_"
     y2="236.28"
     gradientUnits="userSpaceOnUse"
     x2="203.25"
     gradientTransform="matrix(-1,0,0,-1,323.25,376.64849)"
     y1="236.28"
     x1="149.86"><stop
       stop-color="#8C715E"
       offset=".0167"
       id="stop9170" /><stop
       stop-color="#7B553F"
       offset="1"
       id="stop9172" /></linearGradient><path
     stroke-miterlimit="10"
     d="m 127.75,131.04849 c -0.2,-2.3 1.9,-4.4 3.2,-5 0.5,-0.2 0.7,-13.2 8.4,-13.1 5.7,0 10.3,4.5 10.3,10.1 0,2.4 -2.2,5.4 -2.3,6.3 0.7,-0.4 1.8,-3.3 6.1,-3.3 3.6,0 6.5,2.8 6.5,6.3 0,2.1 -2.9,5 -2.7,5.1 0.2,0.1 3.2,-2.4 5,-1.9 3.2,0 5.8,2.5 5.8,5.7 0,0.5 -0.1,1 -0.2,1.5 0.4,-0.1 0.8,-0.2 1.2,-0.2 2.3,0 4.2,1.8 4.2,4.1 0,2.3 -1.9,4.1 -4.2,4.1 -2,3.7 -10.3,17.1 -10.3,17.1 l -38.8,-20.9 c 0.1,-0.1 8.1,-12.9 7.8,-15.9 z"
     id="path9174"
     style="fill:url(#SVGID_2_);stroke:#35261b;stroke-width:3;stroke-miterlimit:10"
     inkscape:connector-curvature="0" /><path
     stroke-miterlimit="10"
     d="m 135.95,118.24849 c -1.4,2.3 0.3,3.8 2.7,5.2 2.4,1.4 4.5,2.2 5.9,-0.1 1.4,-2.3 0.6,-5.3 -1.8,-6.7 -2.3,-1.4 -5.4,-0.7 -6.8,1.6 z"
     id="path9176"
     inkscape:connector-curvature="0"
     style="fill:#cc937a;stroke:#af6c54;stroke-width:0.5;stroke-miterlimit:10" /><path
     stroke-miterlimit="10"
     d="m 151.65,129.64849 c -0.9,1.4 0.2,2.4 1.7,3.2 1.5,0.9 2.9,1.4 3.7,-0.1 0.9,-1.4 0.4,-3.3 -1.1,-4.2 -1.5,-0.8 -3.4,-0.3 -4.3,1.1 z"
     id="path9178"
     inkscape:connector-curvature="0"
     style="fill:#cc937a;stroke:#af6c54;stroke-width:0.5;stroke-miterlimit:10" /><path
     stroke-miterlimit="10"
     d="m 160.95,138.54849 c -0.7,1.2 0.2,1.9 1.4,2.6 1.2,0.7 2.3,1.1 3,0 0.7,-1.2 0.3,-2.7 -0.9,-3.4 -1.2,-0.7 -2.7,-0.3 -3.5,0.8 z"
     id="path9180"
     inkscape:connector-curvature="0"
     style="fill:#cc937a;stroke:#af6c54;stroke-width:0.5;stroke-miterlimit:10" /><path
     stroke-miterlimit="10"
     d="m 168.75,144.74849 c -0.8,0.4 -0.6,1.1 -0.2,2 0.4,0.8 0.9,1.4 1.7,1 0.8,-0.4 1.2,-1.4 0.7,-2.2 -0.4,-0.8 -1.4,-1.2 -2.2,-0.8 z"
     id="path9182"
     inkscape:connector-curvature="0"
     style="fill:#cc937a;stroke:#af6c54;stroke-width:0.5;stroke-miterlimit:10" /><path
     d="m 140.65,131.34849 h -0.4 c -0.3,0 -0.6,0 -1,-0.1 -0.2,0 -0.5,-0.1 -0.7,-0.2 -0.3,-0.1 -0.5,-0.2 -0.8,-0.3 -0.3,-0.1 -0.5,-0.2 -0.8,-0.3 -0.3,-0.1 -0.5,-0.3 -0.8,-0.4 -0.2,-0.2 -0.5,-0.4 -0.7,-0.5 l -0.6,-0.6 c -0.2,-0.2 -0.4,-0.4 -0.5,-0.6 -0.1,-0.2 -0.3,-0.4 -0.4,-0.6 -0.2,-0.4 -0.3,-0.7 -0.4,-1 -0.1,-0.2 -0.1,-0.4 -0.1,-0.4 0,0 0.1,0.1 0.3,0.3 0.2,0.2 0.4,0.5 0.7,0.7 0.2,0.1 0.3,0.3 0.5,0.5 0.2,0.2 0.4,0.3 0.6,0.5 0.4,0.3 0.8,0.6 1.3,0.9 0.5,0.3 0.9,0.6 1.4,0.8 0.2,0.1 0.4,0.3 0.7,0.3 l 0.6,0.3 c 0.4,0.2 0.7,0.3 1,0.4 0,0.2 0.1,0.3 0.1,0.3 z"
     id="path9184"
     inkscape:connector-curvature="0"
     style="fill:#35261b" /><path
     d="m 153.35,137.24849 c 0,0 -0.1,0 -0.3,0.1 -0.2,0 -0.5,0.1 -0.8,0.1 h -0.6 c -0.2,0 -0.4,-0.1 -0.6,-0.1 -0.2,-0.1 -0.4,-0.1 -0.6,-0.2 -0.2,-0.1 -0.4,-0.2 -0.6,-0.4 -0.2,-0.2 -0.4,-0.3 -0.5,-0.5 -0.2,-0.1 -0.3,-0.4 -0.4,-0.5 -0.1,-0.2 -0.3,-0.3 -0.3,-0.5 -0.1,-0.2 -0.1,-0.4 -0.2,-0.5 -0.1,-0.3 -0.1,-0.6 -0.1,-0.8 v -0.3 c 0,0 0.1,0.1 0.2,0.3 0.1,0.2 0.2,0.4 0.4,0.6 0.1,0.1 0.2,0.3 0.3,0.4 0.1,0.1 0.2,0.3 0.4,0.4 l 0.4,0.4 c 0.2,0.1 0.3,0.2 0.5,0.4 0.2,0.1 0.3,0.2 0.5,0.3 0.2,0.1 0.3,0.2 0.5,0.3 0.2,0.1 0.3,0.2 0.5,0.2 0.2,0.1 0.3,0.1 0.5,0.2 0.3,0.1 0.6,0.2 0.8,0.2 -0.1,-0.1 0,-0.1 0,-0.1 z"
     id="path9186"
     inkscape:connector-curvature="0"
     style="fill:#35261b" /><path
     d="m 162.75,144.94849 h -0.3 c -0.2,0 -0.4,0.1 -0.7,0 -0.3,0 -0.7,-0.1 -1,-0.3 -0.2,-0.1 -0.4,-0.1 -0.5,-0.3 -0.2,-0.1 -0.3,-0.2 -0.5,-0.3 l -0.4,-0.4 c -0.2,-0.1 -0.2,-0.3 -0.4,-0.4 -0.2,-0.3 -0.4,-0.6 -0.5,-0.9 -0.1,-0.3 -0.2,-0.5 -0.2,-0.7 v -0.3 c 0,0 0.1,0.1 0.2,0.2 l 0.5,0.5 c 0.2,0.2 0.4,0.4 0.7,0.6 0.2,0.2 0.5,0.5 0.8,0.7 0.1,0.1 0.3,0.2 0.4,0.3 0.1,0.1 0.3,0.2 0.4,0.3 0.1,0.1 0.3,0.2 0.4,0.3 0.1,0.1 0.2,0.1 0.4,0.2 0.2,0.2 0.5,0.2 0.6,0.3 0,0.1 0.1,0.2 0.1,0.2 z"
     id="path9188"
     inkscape:connector-curvature="0"
     style="fill:#35261b" /><path
     d="m 167.05,149.34849 h -0.2 c -0.1,0 -0.2,0 -0.4,-0.1 -0.2,-0.1 -0.4,-0.2 -0.5,-0.4 -0.1,-0.1 -0.2,-0.2 -0.2,-0.3 l -0.2,-0.3 -0.1,-0.3 c -0.1,-0.1 0,-0.2 -0.1,-0.3 v -0.6 c 0,-0.2 0.1,-0.3 0.2,-0.4 l 0.1,-0.1 c 0,0 0.1,0.2 0.3,0.5 0.1,0.3 0.3,0.6 0.5,0.9 0.1,0.2 0.2,0.3 0.2,0.5 0,0.1 0.1,0.2 0.1,0.2 0,0.1 0.1,0.1 0.1,0.2 0.1,0.1 0.1,0.3 0.2,0.4 v 0.1 z"
     id="path9190"
     inkscape:connector-curvature="0"
     style="fill:#35261b" /><path
     enable-background="new "
     d="m 121.85,146.34849 c 2.5,-4 7.5,-12.6 7.2,-15.5 v -0.5 c 13.6,3.8 30.5,14.5 36.9,23.1 -2.5,4.1 -6.2,10.2 -7.7,12.6 l -36.4,-19.7 z"
     id="path9192"
     inkscape:connector-curvature="0"
     style="opacity:0.5;fill:#473426" /><path
     stroke-miterlimit="10"
     d="m 168.25,159.44849 c -2.1,-2.9 -26.4,-24.6 -44.3,-25.9 -5.8,5.7 -8.7,13.2 -8.7,13.2 0,0 45.3,25.5 44.9,24.9 -0.5,-0.6 7.7,-8.2 8.1,-12.2 z"
     id="path9194"
     inkscape:connector-curvature="0"
     style="fill:#9b40c6;stroke:#5c0a8c;stroke-width:2;stroke-miterlimit:10" /><path
     stroke-miterlimit="10"
     d="M 150.15,143.84849"
     id="path9196"
     inkscape:connector-curvature="0"
     style="fill:none;stroke:#35261b;stroke-miterlimit:10" /><path
     d="m 161.55,168.24849 c -0.9,1 -1.5,1.7 -1.8,2.3 -4.5,-2.4 -27.4,-15.2 -43.3,-24.1 0.7,-1.7 2.9,-6.3 6.5,-10.4 17.2,5 35.1,19.3 43.2,26.4 -1.3,1.9 -3.3,4.2 -4.6,5.8 z"
     id="path9198"
     inkscape:connector-curvature="0"
     style="fill:#6c269e" /><path
     d="m 171.65,133.44849 c 0,0 0,-0.1 -0.1,-0.4 -0.1,-0.2 -0.2,-0.6 -0.3,-1 -0.2,-0.4 -0.4,-0.9 -0.6,-1.5 -0.3,-0.6 -0.6,-1.2 -1,-1.8 -0.4,-0.6 -0.9,-1.3 -1.4,-2 -0.6,-0.7 -1.2,-1.4 -1.8,-2 -0.7,-0.7 -1.4,-1.3 -2.1,-2 -0.7,-0.7 -1.5,-1.3 -2.4,-1.9 -0.8,-0.6 -1.6,-1.2 -2.5,-1.8 -0.8,-0.5 -1.7,-1.1 -2.5,-1.5 -1.7,-0.9 -3.3,-1.7 -4.8,-2.3 -1.4,-0.6 -2.7,-1 -3.6,-1.1 -0.4,-0.1 -0.8,-0.1 -1.1,-0.1 h -0.4 c 0,0 0.1,-0.1 0.4,-0.1 0.2,-0.1 0.6,-0.1 1.1,-0.1 1,0 2.3,0.1 3.9,0.5 1.6,0.4 3.4,1 5.2,1.9 1.8,0.8 3.7,2 5.4,3.3 0.8,0.7 1.7,1.3 2.4,2.1 0.8,0.7 1.5,1.5 2.1,2.2 0.7,0.8 1.2,1.5 1.7,2.3 0.5,0.8 0.9,1.5 1.3,2.3 0.3,0.7 0.6,1.4 0.8,2 0.2,0.6 0.3,1.2 0.3,1.6 0.1,0.5 0.1,0.8 0.1,1.1 -0.1,0.1 -0.1,0.3 -0.1,0.3 z"
     id="path9200"
     inkscape:connector-curvature="0"
     style="fill:#b062dd" /><path
     d="m 167.05,159.64849 c 0,0 -0.6,-0.5 -1.7,-1.3 -1.1,-0.8 -2.6,-2 -4.5,-3.4 -0.9,-0.7 -2,-1.4 -3.1,-2.2 -1.1,-0.8 -2.3,-1.6 -3.4,-2.4 -1.2,-0.8 -2.5,-1.7 -3.7,-2.5 -0.6,-0.4 -1.3,-0.9 -1.9,-1.3 -0.7,-0.4 -1.3,-0.8 -2,-1.2 -1.3,-0.9 -2.7,-1.6 -4,-2.4 -1.3,-0.8 -2.7,-1.5 -3.9,-2.2 -1.3,-0.7 -2.6,-1.3 -3.8,-1.9 -1.2,-0.5 -2.4,-1.1 -3.5,-1.6 -1.1,-0.4 -2.1,-0.8 -3,-1.2 -0.9,-0.4 -1.7,-0.6 -2.3,-0.8 -1.3,-0.5 -2.1,-0.7 -2.1,-0.7 0,0 0.8,0.1 2.1,0.4 0.7,0.1 1.5,0.2 2.5,0.5 0.9,0.3 2,0.5 3.1,0.9 1.1,0.4 2.3,0.8 3.6,1.3 1.3,0.5 2.6,1.1 3.9,1.7 1.3,0.7 2.7,1.3 4.1,2.1 1.4,0.8 2.8,1.5 4.1,2.4 0.7,0.4 1.3,0.9 2,1.3 0.7,0.4 1.3,0.9 1.9,1.3 1.3,0.9 2.5,1.8 3.7,2.7 1.2,0.9 2.3,1.8 3.3,2.7 1,0.9 2,1.7 2.9,2.5 1.8,1.6 3.2,3 4.1,4 1.1,0.7 1.6,1.3 1.6,1.3 z"
     id="path9202"
     inkscape:connector-curvature="0"
     style="fill:#b062dd" /><path
     d="m 141.25,131.04849 h -0.4 c -0.3,0 -0.7,0 -1.1,-0.1 -0.2,0 -0.5,-0.1 -0.8,-0.2 -0.3,-0.1 -0.5,-0.2 -0.8,-0.3 -0.3,-0.1 -0.6,-0.2 -0.8,-0.4 -0.3,-0.2 -0.5,-0.3 -0.8,-0.5 -0.2,-0.2 -0.5,-0.4 -0.7,-0.6 -0.3,-0.2 -0.4,-0.4 -0.6,-0.6 -0.4,-0.4 -0.7,-0.9 -0.9,-1.3 -0.3,-0.4 -0.4,-0.8 -0.5,-1 -0.1,-0.3 -0.1,-0.4 -0.1,-0.4 0,0 0.1,0.1 0.3,0.3 0.1,0.1 0.2,0.2 0.3,0.4 l 0.4,0.4 0.5,0.5 c 0.2,0.2 0.4,0.3 0.6,0.5 0.4,0.4 0.9,0.7 1.3,1.1 0.2,0.2 0.5,0.3 0.7,0.5 0.2,0.2 0.5,0.3 0.7,0.4 0.2,0.1 0.5,0.3 0.7,0.4 l 0.6,0.3 c 0.2,0.1 0.4,0.2 0.6,0.2 0.2,0.1 0.3,0.1 0.5,0.2 0.1,0.2 0.3,0.2 0.3,0.2 z"
     id="path9204"
     inkscape:connector-curvature="0"
     style="fill:#a88e7d" /><path
     d="m 153.25,137.04849 h -0.3 c -0.2,0 -0.4,0.1 -0.8,0 -0.2,0 -0.3,-0.1 -0.5,-0.1 -0.2,0 -0.4,-0.1 -0.5,-0.2 l -0.6,-0.3 c -0.2,-0.1 -0.3,-0.3 -0.5,-0.4 -0.1,-0.2 -0.3,-0.3 -0.4,-0.5 -0.2,-0.1 -0.2,-0.3 -0.4,-0.5 -0.1,-0.2 -0.2,-0.3 -0.3,-0.5 -0.1,-0.2 -0.1,-0.3 -0.2,-0.5 -0.1,-0.3 -0.1,-0.6 -0.1,-0.7 v -0.3 c 0,0 0.1,0.1 0.2,0.2 0.1,0.1 0.2,0.4 0.4,0.6 0.1,0.1 0.2,0.2 0.3,0.4 0.1,0.1 0.2,0.2 0.3,0.4 0.2,0.3 0.5,0.5 0.8,0.8 0.3,0.2 0.6,0.5 0.9,0.7 0.1,0.1 0.3,0.2 0.4,0.3 0.1,0.1 0.3,0.2 0.4,0.2 0.2,0.2 0.5,0.2 0.7,0.3 0.1,0 0.2,0.1 0.2,0.1 z"
     id="path9206"
     inkscape:connector-curvature="0"
     style="fill:#a88e7d" /><path
     d="m 162.05,144.34849 c 0,0 -0.3,-0.1 -0.8,-0.3 -0.4,-0.2 -0.9,-0.5 -1.4,-0.9 -0.5,-0.4 -0.9,-0.8 -1.2,-1.2 -0.3,-0.4 -0.4,-0.7 -0.4,-0.7 0,0 0.3,0.1 0.8,0.3 0.4,0.2 1,0.5 1.4,0.9 0.5,0.4 0.9,0.8 1.2,1.2 0.3,0.4 0.4,0.7 0.4,0.7 z"
     id="path9208"
     inkscape:connector-curvature="0"
     style="fill:#a88e7d" /><path
     d="m 167.15,148.44849 -0.4,-0.2 c -0.2,-0.1 -0.3,-0.4 -0.4,-0.6 -0.1,-0.2 -0.1,-0.5 -0.1,-0.7 0,-0.2 0.1,-0.4 0.1,-0.4 0,0 0.2,0.1 0.4,0.2 0.2,0.1 0.3,0.4 0.4,0.6 0.1,0.2 0.1,0.5 0.1,0.7 0,0.2 -0.1,0.4 -0.1,0.4 z"
     id="path9210"
     inkscape:connector-curvature="0"
     style="fill:#a88e7d" /><linearGradient
     id="SVGID_3_"
     y2="200.45"
     gradientUnits="userSpaceOnUse"
     x2="52.948"
     gradientTransform="matrix(0.9922,0.125,0.125,-0.9922,-24.723003,367.07849)"
     y1="200.45"
     x1="14.982"><stop
       stop-color="#8C715E"
       offset=".0167"
       id="stop9213" /><stop
       stop-color="#7B553F"
       offset="1"
       id="stop9215" /></linearGradient><path
     stroke-miterlimit="10"
     d="m 16.949997,186.14849 c 0.1,-0.4 -3.1,-21.4 0,-24.5 3.1,-3.1 28.3,-8 33.7,0.2 5.4,8.2 -0.1,23 -0.6,25.5 -0.6,2.3 -33.1,-1.2 -33.1,-1.2 z"
     id="path9217"
     style="fill:url(#SVGID_3_);stroke:#35261b;stroke-width:3;stroke-miterlimit:10"
     inkscape:connector-curvature="0" /><path
     enable-background="new "
     d="m 48.049997,173.14849 c -3.3,-2.6 -4.6,-7.5 -8,-9.7 -5,-3.2 -11.6,-1.2 -13.4,4 -2.3,6.4 -4.1,9.5 -9,12.2 0.2,1.5 0.3,3.1 0.5,4.9 0,0.2 0,0.3 0.1,0.4 4,0.4 18.3,1.9 26.3,1.9 2.8,0 3.9,-0.2 4.4,-0.3 0.1,-0.3 0.2,-0.6 0.3,-1 0.6,-2 1.6,-5.5 2.2,-9.3 -1,-1 -2.1,-2 -3.4,-3.1 z"
     id="path9219"
     inkscape:connector-curvature="0"
     style="opacity:0.5;fill:#473426" /><linearGradient
     id="SVGID_4_"
     y2="204.62"
     gradientUnits="userSpaceOnUse"
     x2="40.702"
     gradientTransform="matrix(1,0,0,-1,0.14999695,376.64849)"
     y1="204.62"
     x1="26.306"><stop
       stop-color="#8C715E"
       offset=".0167"
       id="stop9222" /><stop
       stop-color="#7B553F"
       offset="1"
       id="stop9224" /></linearGradient><path
     stroke-miterlimit="10"
     d="m 27.049997,180.44849 c -1.2,-5.7 -1.2,-14.7 6.2,-16.6 8.5,-2.2 7.9,9.2 7.3,14.7"
     id="path9226"
     style="fill:url(#SVGID_4_);stroke:#35261b;stroke-width:2;stroke-miterlimit:10"
     inkscape:connector-curvature="0" /><path
     d="m 40.649997,175.24849 c 0,0 0.4,0.2 1.1,0.6 0.3,0.2 0.7,0.4 1.1,0.7 0.4,0.2 0.8,0.6 1.2,0.9 0.4,0.3 0.8,0.6 1.1,1 l 0.5,0.5 c 0.1,0.2 0.3,0.3 0.4,0.5 0.2,0.3 0.4,0.6 0.5,0.8 0.1,0.2 0.2,0.3 0.2,0.3 0,0 -0.1,-0.1 -0.2,-0.2 -0.2,-0.1 -0.3,-0.4 -0.6,-0.6 -0.1,-0.1 -0.3,-0.2 -0.4,-0.4 -0.2,-0.1 -0.4,-0.2 -0.5,-0.4 -0.4,-0.3 -0.8,-0.5 -1.2,-0.7 -0.4,-0.2 -0.9,-0.4 -1.3,-0.5 -0.4,-0.2 -0.8,-0.3 -1.2,-0.4 -0.7,-0.2 -1.2,-0.3 -1.2,-0.3 l 0.5,-1.8 z"
     id="path9228"
     inkscape:connector-curvature="0"
     style="fill:#35261b" /><path
     d="m 41.049997,174.54849 c 0,0 0.1,0 0.3,0.1 0.2,0.1 0.4,0.1 0.8,0.2 0.4,0.1 0.8,0.2 1.2,0.4 l 1.2,0.6 c 0.8,0.4 1.5,0.9 2.1,1.3 0.5,0.4 0.9,0.6 0.9,0.6 0,0 -0.4,-0.2 -1,-0.4 -0.6,-0.2 -1.5,-0.5 -2.3,-0.8 l -1.2,-0.3 c -0.4,-0.1 -0.8,-0.1 -1,-0.1 h -1.1 l 0.1,-1.6 z"
     id="path9230"
     inkscape:connector-curvature="0"
     style="fill:#35261b" /><path
     d="m 30.449997,169.14849 c 0,0 0,-0.1 0.1,-0.2 0.1,-0.1 0.1,-0.3 0.3,-0.5 0.1,-0.2 0.3,-0.4 0.6,-0.6 0.2,-0.2 0.5,-0.4 0.8,-0.5 0.2,-0.1 0.3,-0.1 0.5,-0.2 0.1,-0.1 0.3,-0.1 0.5,-0.1 0.3,-0.1 0.6,-0.1 0.8,0 0.2,0 0.4,0.1 0.6,0.1 0.1,0 0.2,0.1 0.2,0.1 0,0 -0.1,0 -0.2,0.1 -0.1,0.1 -0.3,0.1 -0.5,0.2 -0.4,0.2 -0.9,0.4 -1.5,0.6 -0.3,0.1 -0.5,0.2 -0.7,0.4 -0.1,0.1 -0.2,0.1 -0.3,0.2 -0.1,0.1 -0.2,0.1 -0.3,0.2 -0.2,0.1 -0.4,0.2 -0.5,0.3 -0.3,-0.1 -0.4,-0.1 -0.4,-0.1 z"
     id="path9232"
     inkscape:connector-curvature="0"
     style="fill:#35261b" /><path
     d="m 30.749997,167.14849 c 0,0 0.1,-0.3 0.4,-0.6 0.1,-0.1 0.1,-0.2 0.2,-0.2 0.1,-0.1 0.2,-0.1 0.3,-0.2 0.2,-0.1 0.5,-0.3 0.8,-0.4 0.3,-0.1 0.6,-0.1 0.8,-0.1 h 0.4 c 0.1,0 0.2,0 0.3,0.1 0.4,0.1 0.7,0.2 0.7,0.2 0,0 -0.3,0.2 -0.6,0.3 -0.1,0 -0.2,0.1 -0.3,0.1 -0.1,0 -0.2,0.1 -0.3,0.1 -0.2,0.1 -0.5,0.1 -0.7,0.2 -0.2,0.1 -0.4,0.2 -0.7,0.2 -0.1,0 -0.2,0 -0.3,0.1 -0.1,0 -0.2,0.1 -0.3,0.1 -0.4,0 -0.7,0.1 -0.7,0.1 z"
     id="path9234"
     inkscape:connector-curvature="0"
     style="fill:#35261b" /><linearGradient
     id="SVGID_5_"
     y2="194.4"
     gradientUnits="userSpaceOnUse"
     x2="202.16"
     gradientTransform="matrix(1,0,0,-1,0.14999695,376.64849)"
     y1="232.78"
     x1="162.01"><stop
       stop-color="#8C715E"
       offset=".0167"
       id="stop9237" /><stop
       stop-color="#7B553F"
       offset="1"
       id="stop9239" /></linearGradient><path
     stroke-miterlimit="10"
     d="m 100.75,130.64849 c -0.800003,-13.1 10.3,-10.3 10.3,-10.3 0,0 -5.8,-2.6 -3.9,-9.2 4,-9.2 15.5,-6.1 15.5,-6.1 0,0 -3.1,-12.200003 10.8,-10.900003 13.9,1.3 47,18.800003 61.4,33.200003 14.3,14.4 27.3,43.3 30.9,53.3 3.6,10 -4.5,10.9 -9.4,10.1 l -1.3,-7.9 c 0,0 -0.9,-17.9 -26.6,-37.2 -25.7,-19.3 7.3,35.4 -5.2,35 -12.5,-0.4 -2.9,-17.9 -19.5,-31 -16.6,-13.1 -62.1,-4.6 -63,-19 z"
     id="path9241"
     style="fill:url(#SVGID_5_);stroke:#35261b;stroke-width:3;stroke-miterlimit:10"
     inkscape:connector-curvature="0" /><path
     d="m 111.05,118.94849 c 0,0 0.6,0.1 1.7,0.3 1.1,0.2 2.6,0.5 4.5,0.9 1.8,0.4 4,0.9 6.2,1.4 2.3,0.6 4.7,1.1 7.1,1.8 1.2,0.3 2.4,0.7 3.6,1 1.2,0.3 2.3,0.7 3.5,1 2.2,0.7 4.3,1.3 6.1,1.9 3.5,1.2 5.9,2 5.9,2 0,0 -2.4,-0.6 -6,-1.6 -1.8,-0.5 -3.9,-0.9 -6.2,-1.5 -1.1,-0.3 -2.3,-0.5 -3.5,-0.8 -1.2,-0.2 -2.4,-0.5 -3.6,-0.7 -2.4,-0.5 -4.9,-0.9 -7.2,-1.3 -2.3,-0.4 -4.4,-0.7 -6.3,-1 -1.8,-0.3 -3.4,-0.5 -4.4,-0.6 -1.1,-0.1 -1.7,-0.2 -1.7,-0.2 l 0.3,-2.6 z"
     id="path9243"
     inkscape:connector-curvature="0"
     style="fill:#35261b" /><polygon
     points="122.1,125.7 122.9,123.2 153,133.4 "
     id="polygon9245"
     transform="translate(0.14999695,-19.351513)"
     style="fill:#35261b" /><path
     d="m 157.65,129.04849 c 0,0 0.1,0 0.4,0.1 0.2,0.1 0.6,0.2 1,0.4 0.4,0.2 0.8,0.5 1.2,0.9 0.2,0.2 0.4,0.3 0.6,0.6 0.2,0.2 0.4,0.4 0.6,0.7 0.2,0.2 0.3,0.5 0.5,0.7 0.2,0.2 0.3,0.5 0.4,0.7 0.3,0.5 0.4,1 0.5,1.4 0.1,0.4 0.1,0.8 0.2,1 v 0.4 c 0,0 -0.1,-0.1 -0.2,-0.4 -0.1,-0.2 -0.2,-0.5 -0.5,-0.9 l -0.3,-0.6 c -0.1,-0.2 -0.3,-0.4 -0.4,-0.6 -0.1,-0.2 -0.3,-0.4 -0.4,-0.7 -0.2,-0.2 -0.3,-0.4 -0.5,-0.7 -0.2,-0.2 -0.3,-0.4 -0.5,-0.6 -0.2,-0.2 -0.4,-0.4 -0.5,-0.6 -0.2,-0.2 -0.3,-0.4 -0.5,-0.5 l -0.5,-0.5 c -0.3,-0.3 -0.6,-0.5 -0.8,-0.7 -0.2,0.1 -0.3,-0.1 -0.3,-0.1 z"
     id="path9247"
     inkscape:connector-curvature="0"
     style="fill:#35261b" /><path
     d="m 160.35,115.94849 c 0,0 0.2,0 0.4,0.1 0.3,0.1 0.6,0.1 1.1,0.3 0.2,0.1 0.5,0.2 0.7,0.3 0.3,0.1 0.5,0.3 0.7,0.4 0.2,0.2 0.5,0.3 0.7,0.6 0.2,0.2 0.4,0.5 0.6,0.7 0.2,0.3 0.3,0.5 0.5,0.8 0.2,0.3 0.2,0.6 0.4,0.8 0.1,0.3 0.2,0.5 0.2,0.8 0,0.3 0.1,0.5 0.1,0.7 v 1.5 c 0,0 0,-0.1 -0.1,-0.4 0,-0.1 -0.1,-0.3 -0.1,-0.4 -0.1,-0.2 -0.1,-0.4 -0.2,-0.6 -0.1,-0.2 -0.2,-0.4 -0.2,-0.6 -0.1,-0.2 -0.2,-0.5 -0.3,-0.7 -0.1,-0.2 -0.2,-0.5 -0.4,-0.7 -0.2,-0.2 -0.3,-0.5 -0.5,-0.7 -0.2,-0.2 -0.4,-0.4 -0.5,-0.6 l -0.6,-0.6 c -0.2,-0.2 -0.4,-0.4 -0.6,-0.5 -0.2,-0.1 -0.4,-0.3 -0.6,-0.4 -0.3,-0.3 -0.7,-0.4 -0.9,-0.6 -0.3,-0.1 -0.4,-0.2 -0.4,-0.2 z"
     id="path9249"
     inkscape:connector-curvature="0"
     style="fill:#35261b" /><path
     d="m 101.95,128.44849 c 0,0 0,-0.2 0.1,-0.5 0,-0.3 0.1,-0.8 0.3,-1.4 0.2,-0.6 0.4,-1.3 0.9,-2.1 0.5,-0.8 1.2,-1.6 2.2,-2.1 0.5,-0.3 1,-0.5 1.7,-0.7 0.3,-0.1 0.7,-0.1 1,-0.1 h 1 c 1.3,0.1 2.6,0.2 3.9,0.4 1.4,0.2 2.7,0.4 4.2,0.6 1.4,0.2 2.8,0.5 4.3,0.7 1.4,0.2 2.8,0.5 4.3,0.8 1.4,0.3 2.8,0.5 4.1,0.8 2.7,0.5 5.1,1.1 7.2,1.6 2.1,0.5 3.9,0.9 5.1,1.2 1.2,0.3 1.9,0.5 1.9,0.5 0,0 -0.7,0 -2,-0.1 -1.3,-0.1 -3.1,-0.3 -5.2,-0.6 -2.2,-0.3 -4.7,-0.6 -7.3,-1.1 -1.3,-0.2 -2.7,-0.4 -4.1,-0.7 -1.4,-0.2 -2.8,-0.5 -4.2,-0.7 -2.8,-0.5 -5.7,-1 -8.3,-1.5 -1.3,-0.2 -2.6,-0.5 -3.8,-0.6 -0.3,0 -0.6,-0.1 -0.9,-0.1 h -0.8 c -0.4,0.1 -1,0.2 -1.4,0.4 -0.9,0.4 -1.6,1 -2.2,1.7 -0.5,0.6 -0.9,1.3 -1.1,1.9 -0.2,0.6 -0.4,1 -0.5,1.3 -0.4,0.2 -0.4,0.4 -0.4,0.4 z"
     id="path9251"
     inkscape:connector-curvature="0"
     style="fill:#a88e7d" /><path
     d="m 108.35,111.74849 c 0,0 0.1,-0.1 0.2,-0.4 0.1,-0.3 0.4,-0.7 0.7,-1.1 0.3,-0.5 0.8,-1 1.4,-1.5 0.6,-0.5 1.4,-1.1 2.3,-1.5 1.8,-0.9 4.3,-1.4 6.8,-1.2 1.3,0.1 2.5,0.3 3.8,0.5 1.3,0.2 2.5,0.5 3.8,0.8 2.5,0.6 5.1,1.2 7.4,1.8 2.4,0.6 4.6,1.2 6.4,1.8 1.9,0.6 3.4,1.1 4.5,1.4 0.5,0.2 1,0.3 1.2,0.4 0.3,0.1 0.4,0.2 0.4,0.2 0,0 -0.2,0 -0.5,-0.1 -0.3,0 -0.7,-0.1 -1.3,-0.2 -1.1,-0.2 -2.7,-0.4 -4.7,-0.8 -1.9,-0.3 -4.2,-0.8 -6.6,-1.3 -1.2,-0.2 -2.4,-0.5 -3.7,-0.8 -1.3,-0.3 -2.5,-0.5 -3.8,-0.8 -1.3,-0.3 -2.5,-0.5 -3.8,-0.8 -1.2,-0.2 -2.5,-0.5 -3.6,-0.7 -2.3,-0.3 -4.5,0 -6.3,0.6 -0.9,0.3 -1.6,0.7 -2.3,1.1 -0.6,0.4 -1.2,0.8 -1.6,1.2 l -0.9,0.9 c 0.3,0.3 0.2,0.5 0.2,0.5 z"
     id="path9253"
     inkscape:connector-curvature="0"
     style="fill:#a88e7d" /><path
     d="m 124.15,101.84849 v -1.8 c 0.1,-0.500003 0.3,-1.300003 0.8,-1.900003 0.5,-0.7 1.2,-1.3 2.1,-1.8 0.9,-0.5 2,-0.8 3.2,-1 0.6,-0.1 1.2,-0.1 1.8,-0.1 0.7,0.1 1.2,0.1 1.8,0.2 1.2,0.2 2.5,0.5 3.7,0.8 1.3,0.3 2.5,0.6 3.8,1 1.3,0.3 2.5,0.8 3.7,1.2 1.2,0.4 2.4,0.9 3.5,1.3 1.1,0.400003 2.2,0.900003 3.2,1.300003 1,0.5 2,0.9 2.8,1.3 0.9,0.4 1.7,0.8 2.4,1.2 0.7,0.4 1.3,0.7 1.8,1 l 1.5,0.9 c 0,0 -0.6,-0.2 -1.7,-0.6 -1.1,-0.4 -2.6,-1 -4.4,-1.6 -0.9,-0.3 -1.9,-0.7 -2.9,-1 -1,-0.4 -2.2,-0.7 -3.3,-1.1 -1.1,-0.4 -2.3,-0.8 -3.5,-1.1 -1.2,-0.400003 -2.4,-0.800003 -3.7,-1.100003 -1.2,-0.4 -2.4,-0.7 -3.7,-1 -1.2,-0.3 -2.4,-0.6 -3.5,-0.9 -0.6,-0.1 -1.2,-0.2 -1.7,-0.3 -0.5,-0.1 -1.1,-0.1 -1.6,-0.1 -1,0.1 -2,0.3 -2.8,0.6 -0.8,0.3 -1.5,0.8 -2,1.3 -0.5,0.5 -0.8,1.1 -1,1.600003 -0.2,0.5 -0.3,0.9 -0.3,1.2 v 0.5 z"
     id="path9255"
     inkscape:connector-curvature="0"
     style="fill:#a88e7d" /><path
     enable-background="new "
     d="m 217.45,189.54849 c 0.6,0.1 1.2,0.1 1.7,0.1 1.5,0 4.1,-0.3 5.3,-1.9 1,-1.4 1,-3.6 -0.1,-6.6 -1.5,-4.1 -4.3,-10.9 -8,-18.4 -2,0.7 -3.5,1.3 -3.9,1.5 -0.7,0.3 -5,-3.2 -9.5,-7 12.1,13.6 13.2,24.3 13.3,25.5 l 1.2,6.8 z"
     id="path9257"
     inkscape:connector-curvature="0"
     style="opacity:0.5;fill:#473426" /><line
     y1="146.44849"
     x2="185.54999"
     x1="188.45"
     y2="137.64848"
     id="line9259"
     style="fill:none" /><polygon
     points="189.6,165.4 187,166.3 185.4,157 "
     id="polygon9261"
     transform="translate(0.14999695,-19.351513)"
     style="fill:#35261b" /><linearGradient
     id="SVGID_6_"
     y2="109.28"
     gradientUnits="userSpaceOnUse"
     x2="125.29"
     gradientTransform="matrix(1,0,0,-1,0.14999695,376.64849)"
     y1="195.1"
     x1="125.29"><stop
       stop-color="#00A19A"
       offset=".1056"
       id="stop9264" /><stop
       stop-color="#008DA0"
       offset="1"
       id="stop9266" /></linearGradient><path
     stroke-miterlimit="10"
     d="m 8.4499969,203.84849 c 0,-28.8 29.3000001,-24.5 49.1000001,-26.2 19.9,-1.7 115.800003,4.4 116.900003,5.2 1.1,0.9 18,2.2 25.4,3.1 v -10.9 c 0,0 29,-10.5 37.9,-6.1 9,4.4 3.7,41.1 -5.8,56.3 -10.1,16.2 -39,42.1 -121,42.1 -81.900003,-0.1 -102.5000031,-42.2 -102.5000031,-63.5 z"
     id="path9268"
     style="fill:url(#SVGID_6_);stroke:#004c45;stroke-width:2;stroke-miterlimit:10"
     inkscape:connector-curvature="0" /><path
     enable-background="new "
     d="m 201.25,185.44849 c 0.5,0.3 14.3,-0.7 20.4,5.2 6.2,5.8 8.2,22.9 -1.2,35.4 -9.4,12.5 -9.7,5.2 -9.7,5.2 0,0 14.2,-36.3 -11.2,-45.3 l 1.7,-0.5 z"
     id="path9270"
     inkscape:connector-curvature="0"
     style="opacity:0.4;fill:#004c45" /><path
     d="m 197.45,184.74849 c 0,0 0.2,0 0.6,0.1 0.4,0.1 1,0.2 1.7,0.5 1.4,0.5 3.4,1.3 5.5,2.8 1,0.7 2.1,1.6 3.1,2.7 1,1 1.9,2.3 2.7,3.6 0.8,1.3 1.5,2.8 2,4.3 0.3,0.8 0.5,1.6 0.7,2.3 0.2,0.8 0.4,1.6 0.5,2.4 0.3,1.6 0.4,3.2 0.5,4.8 0.1,1.6 0,3.2 -0.1,4.7 -0.1,0.8 -0.1,1.5 -0.2,2.2 l -0.3,2.1 c -0.2,1.4 -0.5,2.7 -0.7,3.9 -0.2,1.2 -0.5,2.3 -0.7,3.2 -0.2,1 -0.5,1.8 -0.7,2.5 l -0.6,2.1 c 0,0 0.2,-0.8 0.5,-2.2 0.2,-0.7 0.4,-1.5 0.6,-2.5 0.2,-1 0.4,-2 0.6,-3.2 0.2,-1.2 0.4,-2.5 0.5,-3.9 0.1,-0.7 0.2,-1.4 0.2,-2.1 0,-0.7 0.1,-1.5 0.1,-2.2 0,-1.5 0,-3.1 -0.1,-4.6 -0.1,-1.6 -0.3,-3.2 -0.6,-4.7 -0.1,-0.8 -0.4,-1.5 -0.6,-2.3 -0.2,-0.8 -0.5,-1.5 -0.8,-2.2 -0.6,-1.5 -1.3,-2.8 -2.1,-4.1 -0.8,-1.2 -1.7,-2.4 -2.7,-3.3 -1,-0.9 -2,-1.7 -3,-2.4 -2,-1.3 -3.9,-2 -5.2,-2.4 -0.7,-0.2 -1.2,-0.3 -1.5,-0.4 -0.4,-0.1 -0.5,-0.1 -0.5,-0.1 l 0.6,-1.6 z"
     id="path9272"
     inkscape:connector-curvature="0"
     style="fill:#004c45" /><path
     d="m 199.95,185.24849 c 0,0 0.5,-0.3 1.4,-0.7 0.4,-0.2 1,-0.5 1.7,-0.8 0.7,-0.3 1.4,-0.5 2.3,-0.8 0.9,-0.2 1.8,-0.5 2.8,-0.6 1,-0.2 2,-0.2 3.1,-0.3 h 1.7 c 0.6,0 1.1,0.1 1.7,0.1 1.1,0.1 2.3,0.3 3.4,0.5 1.1,0.2 2.2,0.5 3.3,0.8 1.1,0.3 2.1,0.6 3.2,0.9 2,0.6 3.9,1.2 5.5,1.8 3.2,1.1 5.3,1.9 5.3,1.9 0,0 -2.2,-0.6 -5.4,-1.6 -1.6,-0.5 -3.5,-1 -5.6,-1.5 -1,-0.3 -2.1,-0.5 -3.2,-0.7 l -3.3,-0.6 c -1.1,-0.2 -2.2,-0.3 -3.3,-0.4 -0.5,0 -1.1,0 -1.6,-0.1 h -1.6 c -1,0.1 -2,0.2 -2.9,0.4 -0.9,0.1 -1.8,0.5 -2.5,0.7 -0.8,0.3 -1.5,0.5 -2,0.9 -0.6,0.3 -1.1,0.5 -1.5,0.8 -0.8,0.5 -1.3,0.8 -1.3,0.8 l -1.2,-1.5 z"
     id="path9274"
     inkscape:connector-curvature="0"
     style="fill:#004c45" /><path
     d="m 199.65,184.84849 c 0,0 0.4,-0.3 1.2,-1 0.2,-0.2 0.4,-0.3 0.6,-0.5 0.3,-0.2 0.5,-0.4 0.9,-0.5 0.3,-0.2 0.6,-0.4 1,-0.6 0.3,-0.2 0.7,-0.4 1.1,-0.6 l 1.2,-0.6 c 0.4,-0.2 0.9,-0.3 1.4,-0.5 0.5,-0.2 1,-0.3 1.5,-0.5 0.5,-0.1 1,-0.3 1.5,-0.4 1.1,-0.2 2.1,-0.4 3.3,-0.5 1.1,-0.2 2.3,-0.2 3.4,-0.2 1.1,0 2.3,0 3.4,0.1 1.1,0.1 2.2,0.2 3.3,0.4 1,0.2 2.1,0.3 3,0.6 0.9,0.2 1.8,0.4 2.6,0.7 0.8,0.2 1.6,0.4 2.2,0.7 0.7,0.2 1.2,0.4 1.7,0.6 l 1.5,0.5 c 0,0 -0.5,-0.2 -1.5,-0.5 -0.5,-0.2 -1,-0.3 -1.7,-0.5 -0.7,-0.2 -1.4,-0.4 -2.2,-0.5 -0.8,-0.2 -1.7,-0.4 -2.7,-0.5 -0.9,-0.2 -2,-0.3 -3,-0.4 -1,-0.1 -2.1,-0.2 -3.2,-0.2 -1.1,-0.1 -2.2,0 -3.3,0 -1.1,0.1 -2.2,0.1 -3.3,0.4 -1.1,0.1 -2.1,0.4 -3.1,0.7 -0.5,0.1 -1,0.3 -1.4,0.5 -0.5,0.2 -0.9,0.3 -1.4,0.5 -0.4,0.2 -0.8,0.4 -1.2,0.5 -0.4,0.2 -0.8,0.4 -1.1,0.6 -0.4,0.2 -0.7,0.4 -1,0.6 -0.3,0.2 -0.6,0.4 -0.8,0.6 -0.3,0.2 -0.5,0.4 -0.7,0.5 -0.2,0.2 -0.4,0.4 -0.6,0.5 -0.7,0.6 -1.1,1 -1.1,1 l -1.5,-1.5 z"
     id="path9276"
     inkscape:connector-curvature="0"
     style="fill:#004c45" /><path
     d="m 197.35,186.54849 c 0,0 0.9,0.1 2.3,0.5 1.4,0.4 3.4,1.2 5.5,2.7 1,0.7 2.1,1.7 3,2.8 0.5,0.5 0.9,1.1 1.4,1.8 0.4,0.6 0.9,1.3 1.2,2 0.8,1.4 1.4,2.9 1.9,4.5 0.2,0.8 0.5,1.6 0.6,2.4 l 0.3,1.2 c 0.1,0.4 0.1,0.8 0.2,1.2 l 0.2,1.2 0.1,1.2 c 0.1,0.8 0.1,1.7 0.1,2.5 v 2.4 c 0,0.8 0,1.6 -0.1,2.4 -0.1,0.8 -0.1,1.5 -0.2,2.3 -0.1,0.7 -0.2,1.5 -0.3,2.2 -0.2,1.4 -0.5,2.7 -0.7,4 -0.2,1.2 -0.6,2.3 -0.8,3.3 -0.2,1 -0.5,1.8 -0.7,2.5 -0.4,1.4 -0.7,2.2 -0.7,2.2 0,0 0.2,-0.8 0.5,-2.2 0.2,-0.7 0.4,-1.6 0.5,-2.6 0.2,-1 0.4,-2.1 0.6,-3.3 0.2,-1.2 0.4,-2.5 0.6,-4 0.1,-0.7 0.2,-1.4 0.2,-2.2 0.1,-0.7 0.1,-1.5 0.2,-2.3 0.1,-0.8 0.1,-1.6 0.1,-2.3 v -2.4 c 0,-0.8 0,-1.6 -0.1,-2.4 l -0.1,-1.2 -0.2,-1.2 c -0.1,-0.4 -0.1,-0.8 -0.2,-1.2 l -0.2,-1.2 c -0.1,-0.8 -0.4,-1.6 -0.6,-2.4 -0.5,-1.5 -1,-3 -1.8,-4.4 -0.7,-1.4 -1.5,-2.6 -2.4,-3.7 -0.9,-1.1 -1.9,-2 -2.8,-2.8 -1,-0.8 -1.9,-1.4 -2.8,-1.9 -0.9,-0.5 -1.7,-0.8 -2.4,-1.1 -1.6,-0.4 -2.4,-0.5 -2.4,-0.5 z"
     id="path9278"
     inkscape:connector-curvature="0"
     style="fill:#15ccbe" /><path
     enable-background="new "
     d="m 192.55,204.64849 c 0.5,-8.9 -5.4,-14.6 -9,-19.5 -6,-0.6 -8.6,-1 -9.5,-1.5 -3.6,-0.9 -75.400003,-5.5 -105.900003,-5.5 -4.6,0 -8.2,0.1 -10.5,0.3 -3.2,0.3 -6.5,0.4 -10.1,0.5 -1.5,0.1 -2.9,0.1 -4.4,0.2 -2.9,25.4 -16.8,27.5 -18.2,35 -2.5,13.4 8.5,10.3 12.5,21.4 1.9,5.4 2.4,10.4 2.8,14.9 15.7,9.3 38.4,15.9 70.700003,15.9 21,0 51.6,-1.9 77.7,-11.2 0.2,-9 -1.5,-19.5 3.9,-22.9 6.1,-3.9 13.2,-7.7 13.3,-14.6 0.3,-7.7 -1.1,-10.1 -13.3,-13 z"
     id="path9280"
     inkscape:connector-curvature="0"
     style="opacity:0.4;fill:#004c45" /><linearGradient
     id="SVGID_7_"
     y2="159.12"
     gradientUnits="userSpaceOnUse"
     x2="50.869"
     gradientTransform="matrix(1,0,0,-1,0.14999695,376.64849)"
     y1="159.12"
     x1="27.858"><stop
       stop-color="#8C715E"
       offset=".0167"
       id="stop9283" /><stop
       stop-color="#7B553F"
       offset="1"
       id="stop9285" /></linearGradient><path
     stroke-miterlimit="10"
     d="m 42.849997,211.44849 c 0,0 -7.6,-2.7 -11.2,-0.9 -3.6,1.8 -8.8,15.3 8.4,14.5 17.2,-0.8 9.1,-7.7 9.1,-7.7 l -6.3,-5.9 z"
     id="path9287"
     style="fill:url(#SVGID_7_);stroke:#35261b;stroke-width:3;stroke-miterlimit:10"
     inkscape:connector-curvature="0" /><path
     enable-background="new "
     d="m 49.349997,221.54849 c -0.1,-0.8 -0.2,-1.6 -0.4,-2.4 -0.2,-0.3 -0.5,-0.6 -0.7,-0.7 l -6.1,-5.8 c -0.7,-0.2 -2.8,-0.9 -5.1,-1.2 -0.8,3.9 -1.5,8.5 -1.2,12.3 0.9,0.1 1.9,0.2 2.8,0.2 h 1.3 c 6.6,-0.5 8.7,-1.6 9.4,-2.4 z"
     id="path9289"
     inkscape:connector-curvature="0"
     style="opacity:0.5;fill:#473426" /><linearGradient
     id="SVGID_8_"
     y2="159.12"
     gradientUnits="userSpaceOnUse"
     x2="322.93"
     gradientTransform="matrix(-1,0,0,-1,500.3,376.64849)"
     y1="159.12"
     x1="299.92"><stop
       stop-color="#8C715E"
       offset=".0167"
       id="stop9292" /><stop
       stop-color="#7B553F"
       offset="1"
       id="stop9294" /></linearGradient><path
     stroke-miterlimit="10"
     d="m 185.55,211.44849 c 0,0 7.6,-2.7 11.2,-0.9 3.6,1.8 8.8,15.3 -8.4,14.5 -17.2,-0.8 -9.1,-7.7 -9.1,-7.7 l 6.3,-5.9 z"
     id="path9296"
     style="fill:url(#SVGID_8_);stroke:#35261b;stroke-width:3;stroke-miterlimit:10"
     inkscape:connector-curvature="0" /><path
     enable-background="new "
     d="m 179.05,221.54849 c 0.1,-0.8 0.2,-1.6 0.4,-2.4 0.2,-0.3 0.5,-0.6 0.7,-0.7 l 6.1,-5.8 c 0.7,-0.2 2.8,-0.9 5.1,-1.2 0.8,3.9 1.5,8.5 1.2,12.3 -0.9,0.1 -1.9,0.2 -2.8,0.2 h -1.3 c -6.6,-0.5 -8.7,-1.6 -9.4,-2.4 z"
     id="path9298"
     inkscape:connector-curvature="0"
     style="opacity:0.5;fill:#473426" /><linearGradient
     id="SVGID_9_"
     y2="155.19"
     gradientUnits="userSpaceOnUse"
     x2="186.45"
     gradientTransform="matrix(1,0,0,-1,0.14999695,376.64849)"
     y1="155.19"
     x1="41.281"><stop
       stop-color="#8C715E"
       offset=".0167"
       id="stop9301" /><stop
       stop-color="#7B553F"
       offset="1"
       id="stop9303" /></linearGradient><path
     stroke-miterlimit="10"
     d="m 186.55,220.14849 c 0,45.5 -32.5,82.3 -72.6,82.3 -40.100003,0 -72.600003,-36.9 -72.600003,-82.3 0,-45.5 32.5,-79.7 72.600003,-79.7 40.1,0 72.6,34.2 72.6,79.7 z"
     id="path9305"
     style="fill:url(#SVGID_9_);stroke:#35261b;stroke-width:3;stroke-miterlimit:10"
     inkscape:connector-curvature="0" /><linearGradient
     id="SVGID_10_"
     y2="91.371"
     gradientUnits="userSpaceOnUse"
     x2="115.86"
     gradientTransform="matrix(1,0,0,-1,0.14999695,376.64849)"
     y1="206.9"
     x1="115.86"><stop
       stop-color="#231C18"
       offset="0"
       id="stop9308" /><stop
       offset="1"
       id="stop9310" /></linearGradient><path
     d="m 174.45,215.54849 c 0.3,-4.2 -2.6,-7.1 -6.2,-8.4 1.7,-1.9 2.5,-4.4 1.6,-7.2 -1,-3.2 -4.1,-5.1 -7.3,-5.9 2.6,-3.5 2.9,-7.8 0.1,-12 -2.5,-3.7 -6.8,-5.4 -10.9,-4.9 -0.3,-4.7 -5.3,-8.3 -10.4,-7.6 -0.9,-5.5 -4.3,-9.9 -10.9,-9.8 -2.8,0 -5.4,1.8 -6.6,4.3 -0.1,0.2 -0.1,0.3 -0.2,0.5 -2.5,-1.5 -5.2,-2.2 -9,-1.1 -4.5,1.4 -8.7,5.1 -9.7,9.6 -3.7,-0.9 -7.500003,0.3 -10.400003,2.7 -1.1,-2 -3.1,-3.2 -6,-2.6 -3,0.6 -4.4,3.1 -4.7,5.8 -5.9,-2.4 -12.4,1.9 -12.4,8.7 -7.9,0.9 -13.5,11.4 -9.1,16.7 -2.5,2.7 -4.1,8 -4.4,10.5 -0.4,3.1 -0.6,7.1 1.8,9.7 0.5,0.6 1.1,1 1.6,1.2 -4.9,4.9 -3.7,12.9 1.9,16.6 -8,6.4 -3.1,22.8 7.7,21.6 0.3,4.2 1.5,7.4 6,9.7 3.2,1.6 5.9,0.9 7.9,-1.1 1.8,1.9 4.2,3 7.1,1.9 0.8,-0.3 1.5,-0.7 2.1,-1.2 0.7,2 1.8,3.9 3.6,5.3 3.300003,2.5 7.600003,2.9 11.500003,1.9 3.8,-1 7.3,-3.8 8.7,-7.4 5.6,3.5 14,2.5 15.8,-3.6 3.9,1.1 7.9,-2.9 8.5,-7.6 6.8,2.3 14.5,-3.3 15.7,-9.5 3.8,0.4 7.8,-1.4 10.1,-4.6 3.5,-4.9 1.5,-9.3 -2.3,-12.4 2.4,-1.4 4.4,-3.6 5.3,-6.3 0.9,-2.4 -0.1,-4.5 -1.7,-6.3 2.9,-1.2 5,-3.5 5.2,-7.2 z"
     id="path9312"
     style="fill:url(#SVGID_10_)"
     inkscape:connector-curvature="0" /><path
     d="m 71.249997,191.14849 c 0,-6.8 6.5,-11.1 12.4,-8.7 0.3,-2.7 1.7,-5.2 4.7,-5.8 2.9,-0.6 4.9,0.6 6,2.6 3,-2.4 6.800003,-3.6 10.400003,-2.7 1,-4.5 5.2,-8.2 9.7,-9.6 3.8,-1.1 6.5,-0.4 9,1.1 0.1,-0.2 0.1,-0.3 0.2,-0.5 1.1,-2.5 3.7,-4.3 6.6,-4.3 6.6,-0.1 10,4.4 10.9,9.8 5.2,-0.7 10.1,2.9 10.4,7.6 4.1,-0.6 8.4,1.1 10.9,4.9 0.9,1.4 1.5,2.8 1.8,4.3 0.5,-2.5 0,-5.2 -1.8,-7.8 -2.5,-3.7 -6.8,-5.4 -10.9,-4.9 -0.3,-4.7 -5.3,-8.3 -10.4,-7.6 -0.9,-5.5 -4.3,-9.9 -10.9,-9.8 -2.8,0 -5.4,1.8 -6.6,4.3 -0.1,0.2 -0.1,0.3 -0.2,0.5 -2.5,-1.5 -5.2,-2.2 -9,-1.1 -4.5,1.4 -8.7,5.1 -9.7,9.6 -3.7,-0.9 -7.500003,0.3 -10.400003,2.7 -1.1,-2 -3.1,-3.2 -6,-2.6 -3,0.6 -4.4,3.1 -4.7,5.8 -5.9,-2.4 -12.4,1.9 -12.4,8.7 -6.6,0.7 -11.6,8.3 -10.4,13.8 0.9,-4.8 5.2,-9.7 10.4,-10.3 z"
     id="path9314"
     inkscape:connector-curvature="0"
     style="fill:#493b34" /><g
     stroke-miterlimit="10"
     id="g9316"
     transform="translate(0.14999695,-19.351513)"
     style="fill:none;stroke:#35261b;stroke-width:0.5;stroke-miterlimit:10"><ellipse
       cy="301.89999"
       cx="121.3"
       rx="1.4"
       ry="1.4"
       id="ellipse9318"
       sodipodi:cx="121.3"
       sodipodi:cy="301.89999"
       sodipodi:rx="1.4"
       sodipodi:ry="1.4"
       d="m 122.7,301.89999 c 0,0.7732 -0.6268,1.4 -1.4,1.4 -0.7732,0 -1.4,-0.6268 -1.4,-1.4 0,-0.77319 0.6268,-1.4 1.4,-1.4 0.7732,0 1.4,0.62681 1.4,1.4 z" /><ellipse
       cy="303.29999"
       cx="111.8"
       rx="1.4"
       ry="1.4"
       id="ellipse9320"
       sodipodi:cx="111.8"
       sodipodi:cy="303.29999"
       sodipodi:rx="1.4"
       sodipodi:ry="1.4"
       d="m 113.2,303.29999 c 0,0.7732 -0.6268,1.4 -1.4,1.4 -0.7732,0 -1.4,-0.6268 -1.4,-1.4 0,-0.7732 0.6268,-1.4 1.4,-1.4 0.7732,0 1.4,0.6268 1.4,1.4 z" /><ellipse
       cy="256.89999"
       cx="173.8"
       rx="1.4"
       ry="1.4"
       id="ellipse9322"
       sodipodi:cx="173.8"
       sodipodi:cy="256.89999"
       sodipodi:rx="1.4"
       sodipodi:ry="1.4"
       d="m 175.2,256.89999 c 0,0.7732 -0.6268,1.4 -1.4,1.4 -0.7732,0 -1.4,-0.6268 -1.4,-1.4 0,-0.77319 0.6268,-1.4 1.4,-1.4 0.7732,0 1.4,0.62681 1.4,1.4 z" /><ellipse
       cy="304"
       cx="150.3"
       rx="2.0999999"
       ry="2.0999999"
       id="ellipse9324"
       sodipodi:cx="150.3"
       sodipodi:cy="304"
       sodipodi:rx="2.0999999"
       sodipodi:ry="2.0999999"
       d="m 152.4,304 c 0,1.1598 -0.9402,2.1 -2.1,2.1 -1.15979,0 -2.1,-0.9402 -2.1,-2.1 0,-1.1598 0.94021,-2.1 2.1,-2.1 1.1598,0 2.1,0.9402 2.1,2.1 z" /><ellipse
       cy="301.39999"
       cx="101"
       rx="0.80000001"
       ry="0.80000001"
       id="ellipse9326"
       sodipodi:cx="101"
       sodipodi:cy="301.39999"
       sodipodi:rx="0.80000001"
       sodipodi:ry="0.80000001"
       d="m 101.8,301.39999 c 0,0.44183 -0.35817,0.8 -0.8,0.8 -0.44183,0 -0.8,-0.35817 -0.8,-0.8 0,-0.44182 0.35817,-0.8 0.8,-0.8 0.44183,0 0.8,0.35818 0.8,0.8 z" /><ellipse
       cy="299.89999"
       cx="92.400002"
       rx="1.5"
       ry="1.4"
       id="ellipse9328"
       sodipodi:cx="92.400002"
       sodipodi:cy="299.89999"
       sodipodi:rx="1.5"
       sodipodi:ry="1.4"
       d="m 93.900002,299.89999 c 0,0.7732 -0.671573,1.4 -1.5,1.4 -0.828428,0 -1.5,-0.6268 -1.5,-1.4 0,-0.77319 0.671572,-1.4 1.5,-1.4 0.828427,0 1.5,0.62681 1.5,1.4 z" /><ellipse
       cy="293.79999"
       cx="86.199997"
       rx="1.1"
       ry="1"
       id="ellipse9330"
       sodipodi:cx="86.199997"
       sodipodi:cy="293.79999"
       sodipodi:rx="1.1"
       sodipodi:ry="1"
       d="m 87.299997,293.79999 c 0,0.55228 -0.492487,1 -1.1,1 -0.607513,0 -1.1,-0.44772 -1.1,-1 0,-0.55229 0.492487,-1 1.1,-1 0.607513,0 1.1,0.44771 1.1,1 z" /><ellipse
       cy="298.39999"
       cx="80.300003"
       rx="1.5"
       ry="1.5"
       id="ellipse9332"
       sodipodi:cx="80.300003"
       sodipodi:cy="298.39999"
       sodipodi:rx="1.5"
       sodipodi:ry="1.5"
       d="m 81.800003,298.39999 c 0,0.82843 -0.671573,1.5 -1.5,1.5 -0.828427,0 -1.5,-0.67157 -1.5,-1.5 0,-0.82842 0.671573,-1.5 1.5,-1.5 0.828427,0 1.5,0.67158 1.5,1.5 z" /><ellipse
       cy="309"
       cx="93.699997"
       rx="1.3"
       ry="1.3"
       id="ellipse9334"
       sodipodi:cx="93.699997"
       sodipodi:cy="309"
       sodipodi:rx="1.3"
       sodipodi:ry="1.3"
       d="m 94.999997,309 c 0,0.71797 -0.58203,1.3 -1.3,1.3 -0.71797,0 -1.3,-0.58203 -1.3,-1.3 0,-0.71797 0.58203,-1.3 1.3,-1.3 0.71797,0 1.3,0.58203 1.3,1.3 z" /><ellipse
       cy="305.5"
       cx="81"
       rx="0.80000001"
       ry="0.80000001"
       id="ellipse9336"
       sodipodi:cx="81"
       sodipodi:cy="305.5"
       sodipodi:rx="0.80000001"
       sodipodi:ry="0.80000001"
       d="m 81.8,305.5 c 0,0.44183 -0.358172,0.8 -0.8,0.8 -0.441828,0 -0.8,-0.35817 -0.8,-0.8 0,-0.44183 0.358172,-0.8 0.8,-0.8 0.441828,0 0.8,0.35817 0.8,0.8 z" /><ellipse
       cy="289.70001"
       cx="66.800003"
       rx="1.9"
       ry="1.8"
       id="ellipse9338"
       sodipodi:cx="66.800003"
       sodipodi:cy="289.70001"
       sodipodi:rx="1.9"
       sodipodi:ry="1.8"
       d="m 68.700003,289.70001 c 0,0.99411 -0.850659,1.8 -1.9,1.8 -1.049341,0 -1.9,-0.80589 -1.9,-1.8 0,-0.99411 0.850659,-1.8 1.9,-1.8 1.049341,0 1.9,0.80589 1.9,1.8 z" /><ellipse
       cy="287.89999"
       cx="165.39999"
       rx="1.9"
       ry="1.8"
       id="ellipse9340"
       sodipodi:cx="165.39999"
       sodipodi:cy="287.89999"
       sodipodi:rx="1.9"
       sodipodi:ry="1.8"
       d="m 167.29999,287.89999 c 0,0.99412 -0.85066,1.8 -1.9,1.8 -1.04934,0 -1.9,-0.80588 -1.9,-1.8 0,-0.99411 0.85066,-1.8 1.9,-1.8 1.04934,0 1.9,0.80589 1.9,1.8 z" /><ellipse
       cy="276.79999"
       cx="163.5"
       rx="1.9"
       ry="1.8"
       id="ellipse9342"
       sodipodi:cx="163.5"
       sodipodi:cy="276.79999"
       sodipodi:rx="1.9"
       sodipodi:ry="1.8"
       d="m 165.4,276.79999 c 0,0.99411 -0.85066,1.8 -1.9,1.8 -1.04934,0 -1.9,-0.80589 -1.9,-1.8 0,-0.99411 0.85066,-1.8 1.9,-1.8 1.04934,0 1.9,0.80589 1.9,1.8 z" /><ellipse
       cy="251.60001"
       cx="47.599998"
       rx="1.1"
       ry="1"
       id="ellipse9344"
       sodipodi:cx="47.599998"
       sodipodi:cy="251.60001"
       sodipodi:rx="1.1"
       sodipodi:ry="1"
       d="m 48.699998,251.60001 c 0,0.55228 -0.492486,1 -1.1,1 -0.607513,0 -1.1,-0.44772 -1.1,-1 0,-0.55229 0.492487,-1 1.1,-1 0.607514,0 1.1,0.44771 1.1,1 z" /><ellipse
       cy="295.79999"
       cx="131.8"
       rx="1.1"
       ry="1"
       id="ellipse9346"
       sodipodi:cx="131.8"
       sodipodi:cy="295.79999"
       sodipodi:rx="1.1"
       sodipodi:ry="1"
       d="m 132.9,295.79999 c 0,0.55228 -0.49248,1 -1.1,1 -0.60751,0 -1.1,-0.44772 -1.1,-1 0,-0.55229 0.49249,-1 1.1,-1 0.60752,0 1.1,0.44771 1.1,1 z" /><ellipse
       cy="229.3"
       cx="52.900002"
       rx="1.1"
       ry="1.1"
       id="ellipse9348"
       sodipodi:cx="52.900002"
       sodipodi:cy="229.3"
       sodipodi:rx="1.1"
       sodipodi:ry="1.1"
       d="m 54.000002,229.3 c 0,0.60752 -0.492487,1.1 -1.1,1.1 -0.607514,0 -1.1,-0.49248 -1.1,-1.1 0,-0.60751 0.492486,-1.1 1.1,-1.1 0.607513,0 1.1,0.49249 1.1,1.1 z" /><ellipse
       cy="299.60001"
       cx="141.7"
       rx="1.3"
       ry="1.3"
       id="ellipse9350"
       sodipodi:cx="141.7"
       sodipodi:cy="299.60001"
       sodipodi:rx="1.3"
       sodipodi:ry="1.3"
       d="m 143,299.60001 c 0,0.71797 -0.58203,1.3 -1.3,1.3 -0.71797,0 -1.3,-0.58203 -1.3,-1.3 0,-0.71797 0.58203,-1.3 1.3,-1.3 0.71797,0 1.3,0.58203 1.3,1.3 z" /><ellipse
       cy="291.70001"
       cx="144.60001"
       rx="1"
       ry="1"
       id="ellipse9352"
       sodipodi:cx="144.60001"
       sodipodi:cy="291.70001"
       sodipodi:rx="1"
       sodipodi:ry="1"
       d="m 145.60001,291.70001 c 0,0.55229 -0.44772,1 -1,1 -0.55229,0 -1,-0.44771 -1,-1 0,-0.55228 0.44771,-1 1,-1 0.55228,0 1,0.44772 1,1 z" /><ellipse
       cy="286.5"
       cx="152.89999"
       rx="1.4"
       ry="1.4"
       id="ellipse9354"
       sodipodi:cx="152.89999"
       sodipodi:cy="286.5"
       sodipodi:rx="1.4"
       sodipodi:ry="1.4"
       d="m 154.29999,286.5 c 0,0.7732 -0.6268,1.4 -1.4,1.4 -0.77319,0 -1.4,-0.6268 -1.4,-1.4 0,-0.7732 0.62681,-1.4 1.4,-1.4 0.7732,0 1.4,0.6268 1.4,1.4 z" /><ellipse
       cy="304"
       cx="132.10001"
       rx="0.69999999"
       ry="0.69999999"
       id="ellipse9356"
       sodipodi:cx="132.10001"
       sodipodi:cy="304"
       sodipodi:rx="0.69999999"
       sodipodi:ry="0.69999999"
       d="m 132.80001,304 c 0,0.3866 -0.3134,0.7 -0.7,0.7 -0.3866,0 -0.7,-0.3134 -0.7,-0.7 0,-0.3866 0.3134,-0.7 0.7,-0.7 0.3866,0 0.7,0.3134 0.7,0.7 z" /><ellipse
       cy="269.10001"
       cx="52.900002"
       rx="0.80000001"
       ry="0.80000001"
       id="ellipse9358"
       sodipodi:cx="52.900002"
       sodipodi:cy="269.10001"
       sodipodi:rx="0.80000001"
       sodipodi:ry="0.80000001"
       d="m 53.700002,269.10001 c 0,0.44182 -0.358173,0.8 -0.8,0.8 -0.441828,0 -0.8,-0.35818 -0.8,-0.8 0,-0.44183 0.358172,-0.8 0.8,-0.8 0.441827,0 0.8,0.35817 0.8,0.8 z" /><ellipse
       cy="270.39999"
       cx="174.3"
       rx="0.5"
       ry="0.5"
       id="ellipse9360"
       sodipodi:cx="174.3"
       sodipodi:cy="270.39999"
       sodipodi:rx="0.5"
       sodipodi:ry="0.5"
       d="m 174.8,270.39999 c 0,0.27615 -0.22385,0.5 -0.5,0.5 -0.27614,0 -0.5,-0.22385 -0.5,-0.5 0,-0.27614 0.22386,-0.5 0.5,-0.5 0.27615,0 0.5,0.22386 0.5,0.5 z" /><ellipse
       cy="294.79999"
       cx="158.89999"
       rx="0.5"
       ry="0.5"
       id="ellipse9362"
       sodipodi:cx="158.89999"
       sodipodi:cy="294.79999"
       sodipodi:rx="0.5"
       sodipodi:ry="0.5"
       d="m 159.39999,294.79999 c 0,0.27614 -0.22385,0.5 -0.5,0.5 -0.27614,0 -0.5,-0.22386 -0.5,-0.5 0,-0.27614 0.22386,-0.5 0.5,-0.5 0.27615,0 0.5,0.22386 0.5,0.5 z" /><ellipse
       cy="260.79999"
       cx="177.3"
       rx="0.5"
       ry="0.5"
       id="ellipse9364"
       sodipodi:cx="177.3"
       sodipodi:cy="260.79999"
       sodipodi:rx="0.5"
       sodipodi:ry="0.5"
       d="m 177.8,260.79999 c 0,0.27614 -0.22385,0.5 -0.5,0.5 -0.27614,0 -0.5,-0.22386 -0.5,-0.5 0,-0.27614 0.22386,-0.5 0.5,-0.5 0.27615,0 0.5,0.22386 0.5,0.5 z" /><ellipse
       cy="316.29999"
       cx="129"
       rx="2.0999999"
       ry="2.0999999"
       id="ellipse9366"
       sodipodi:cx="129"
       sodipodi:cy="316.29999"
       sodipodi:rx="2.0999999"
       sodipodi:ry="2.0999999"
       d="m 131.1,316.29999 c 0,1.1598 -0.9402,2.1 -2.1,2.1 -1.1598,0 -2.1,-0.9402 -2.1,-2.1 0,-1.1598 0.9402,-2.1 2.1,-2.1 1.1598,0 2.1,0.9402 2.1,2.1 z" /><ellipse
       cy="317.29999"
       cx="109.8"
       rx="1.1"
       ry="1"
       id="ellipse9368"
       sodipodi:cx="109.8"
       sodipodi:cy="317.29999"
       sodipodi:rx="1.1"
       sodipodi:ry="1"
       d="m 110.9,317.29999 c 0,0.55228 -0.49248,1 -1.1,1 -0.60751,0 -1.1,-0.44772 -1.1,-1 0,-0.55229 0.49249,-1 1.1,-1 0.60752,0 1.1,0.44771 1.1,1 z" /><ellipse
       cy="307.70001"
       cx="119.2"
       rx="0.80000001"
       ry="0.80000001"
       id="ellipse9370"
       sodipodi:cx="119.2"
       sodipodi:cy="307.70001"
       sodipodi:rx="0.80000001"
       sodipodi:ry="0.80000001"
       d="m 120,307.70001 c 0,0.44183 -0.35818,0.8 -0.8,0.8 -0.44183,0 -0.8,-0.35817 -0.8,-0.8 0,-0.44183 0.35817,-0.8 0.8,-0.8 0.44182,0 0.8,0.35817 0.8,0.8 z" /><ellipse
       cy="249.8"
       cx="182.10001"
       rx="0.80000001"
       ry="0.80000001"
       id="ellipse9372"
       sodipodi:cx="182.10001"
       sodipodi:cy="249.8"
       sodipodi:rx="0.80000001"
       sodipodi:ry="0.80000001"
       d="m 182.90001,249.8 c 0,0.44183 -0.35818,0.8 -0.8,0.8 -0.44183,0 -0.8,-0.35817 -0.8,-0.8 0,-0.44182 0.35817,-0.8 0.8,-0.8 0.44182,0 0.8,0.35818 0.8,0.8 z" /><ellipse
       cy="316.79999"
       cx="120.4"
       rx="0.5"
       ry="0.5"
       id="ellipse9374"
       sodipodi:cx="120.4"
       sodipodi:cy="316.79999"
       sodipodi:rx="0.5"
       sodipodi:ry="0.5"
       d="m 120.9,316.79999 c 0,0.27614 -0.22386,0.5 -0.5,0.5 -0.27614,0 -0.5,-0.22386 -0.5,-0.5 0,-0.27614 0.22386,-0.5 0.5,-0.5 0.27614,0 0.5,0.22386 0.5,0.5 z" /><ellipse
       cy="248.89999"
       cx="175.2"
       rx="0.5"
       ry="0.5"
       id="ellipse9376"
       sodipodi:cx="175.2"
       sodipodi:cy="248.89999"
       sodipodi:rx="0.5"
       sodipodi:ry="0.5"
       d="m 175.7,248.89999 c 0,0.27615 -0.22386,0.5 -0.5,0.5 -0.27615,0 -0.5,-0.22385 -0.5,-0.5 0,-0.27614 0.22385,-0.5 0.5,-0.5 0.27614,0 0.5,0.22386 0.5,0.5 z" /><ellipse
       cy="308.39999"
       cx="140.39999"
       rx="0.5"
       ry="0.5"
       id="ellipse9378"
       sodipodi:cx="140.39999"
       sodipodi:cy="308.39999"
       sodipodi:rx="0.5"
       sodipodi:ry="0.5"
       d="m 140.89999,308.39999 c 0,0.27615 -0.22385,0.5 -0.5,0.5 -0.27614,0 -0.5,-0.22385 -0.5,-0.5 0,-0.27614 0.22386,-0.5 0.5,-0.5 0.27615,0 0.5,0.22386 0.5,0.5 z" /><ellipse
       cy="279.20001"
       cx="57.900002"
       rx="0.5"
       ry="0.5"
       id="ellipse9380"
       sodipodi:cx="57.900002"
       sodipodi:cy="279.20001"
       sodipodi:rx="0.5"
       sodipodi:ry="0.5"
       d="m 58.400002,279.20001 c 0,0.27614 -0.223858,0.5 -0.5,0.5 -0.276143,0 -0.5,-0.22386 -0.5,-0.5 0,-0.27614 0.223857,-0.5 0.5,-0.5 0.276142,0 0.5,0.22386 0.5,0.5 z" /><ellipse
       cy="224.5"
       cx="181.3"
       rx="0.5"
       ry="0.5"
       id="ellipse9382"
       sodipodi:cx="181.3"
       sodipodi:cy="224.5"
       sodipodi:rx="0.5"
       sodipodi:ry="0.5"
       d="m 181.8,224.5 c 0,0.27614 -0.22385,0.5 -0.5,0.5 -0.27614,0 -0.5,-0.22386 -0.5,-0.5 0,-0.27614 0.22386,-0.5 0.5,-0.5 0.27615,0 0.5,0.22386 0.5,0.5 z" /><ellipse
       cy="225"
       cx="44.599998"
       rx="0.5"
       ry="0.5"
       id="ellipse9384"
       sodipodi:cx="44.599998"
       sodipodi:cy="225"
       sodipodi:rx="0.5"
       sodipodi:ry="0.5"
       d="m 45.099998,225 c 0,0.27614 -0.223857,0.5 -0.5,0.5 -0.276142,0 -0.5,-0.22386 -0.5,-0.5 0,-0.27614 0.223858,-0.5 0.5,-0.5 0.276143,0 0.5,0.22386 0.5,0.5 z" /><ellipse
       cy="224.5"
       cx="176.7"
       rx="0.5"
       ry="0.5"
       id="ellipse9386"
       sodipodi:cx="176.7"
       sodipodi:cy="224.5"
       sodipodi:rx="0.5"
       sodipodi:ry="0.5"
       d="m 177.2,224.5 c 0,0.27614 -0.22386,0.5 -0.5,0.5 -0.27615,0 -0.5,-0.22386 -0.5,-0.5 0,-0.27614 0.22385,-0.5 0.5,-0.5 0.27614,0 0.5,0.22386 0.5,0.5 z" /><ellipse
       cy="308.39999"
       cx="105.9"
       rx="0.69999999"
       ry="0.69999999"
       id="ellipse9388"
       sodipodi:cx="105.9"
       sodipodi:cy="308.39999"
       sodipodi:rx="0.69999999"
       sodipodi:ry="0.69999999"
       d="m 106.6,308.39999 c 0,0.3866 -0.3134,0.7 -0.7,0.7 -0.3866,0 -0.7,-0.3134 -0.7,-0.7 0,-0.3866 0.3134,-0.7 0.7,-0.7 0.3866,0 0.7,0.3134 0.7,0.7 z" /></g><path
     d="m 70.049997,155.44849 c 0,0 12.3,-12.2 31.300003,-13.9"
     stroke-miterlimit="10"
     id="path9390"
     inkscape:connector-curvature="0"
     style="fill:none;stroke:#231c18;stroke-width:7;stroke-linecap:round;stroke-miterlimit:10" /><path
     d="m 154.75,155.44849 c 0,0 -12.3,-12.2 -31.3,-13.9"
     stroke-miterlimit="10"
     id="path9392"
     inkscape:connector-curvature="0"
     style="fill:none;stroke:#231c18;stroke-width:7;stroke-linecap:round;stroke-miterlimit:10" /></svg>