<?xml version="1.0" encoding="UTF-8" standalone="no"?>
<!-- Generator: Adobe Illustrator 18.0.0, SVG Export Plug-In . SVG Version: 6.00 Build 0) -->
<!DOCTYPE svg PUBLIC '-//W3C//DTD SVG 1.1//EN' 'http://www.w3.org/Graphics/SVG/1.1/DTD/svg11.dtd'>
<svg id="Layer_1" xmlns="http://www.w3.org/2000/svg" xml:space="preserve" version="1.1" xmlns:xlink="http://www.w3.org/1999/xlink" x="0px" y="0px" width="250.9px" height="396.5px" viewBox="0 0 250.9 396.5" enable-background="new 0 0 250.9 396.5">
	<ellipse opacity=".1" rx="124" ry="91.5" cy="211.8" cx="125.3" enable-background="new "/>
			<path stroke="#5C0A8C" stroke-width="2" stroke-miterlimit="10" d="m58.6 174.2s-10.1-17.3-5.8-26.7 16.4-16 24.2-15.3c16.1 1.3 15.2 8.9 19.4 22.4s-37.8 20.1-37.8 20.1" fill="#9B40C6"/>
			<path d="m59.3 173.8c5.1-0.9 30.1-5.6 35.5-14.1 1-1.6 1.2-3.1 0.7-4.7-0.7-2.2-1.2-4.2-1.7-6.1-2.6-9.5-3.9-14.4-15.7-15.7-3.8 2.2-6.6 5.7-6.8 9.8-1.8-0.1-4.4-0.3-6 0.3-4.2 1.7-5.8 7.3-8.3 10.1-1.2 1.4-2.6 2.5-4 3.6 1.3 8.1 6.2 16.6 6.3 16.8z" fill="#6C269E"/>
				<linearGradient id="SVGID_1_" y2="236.28" gradientUnits="userSpaceOnUse" x2="104.31" gradientTransform="matrix(1 0 0 -1 0 396)" y1="236.28" x1="50.926">
				<stop stop-color="#8C715E" offset=".0167"/>
				<stop stop-color="#7B553F" offset="1"/>
			</linearGradient>
			<path stroke="#35261B" stroke-width="3" stroke-miterlimit="10" d="m96.5 150.4c0.2-2.3-1.9-4.4-3.2-5-0.5-0.2-0.7-13.2-8.4-13.1-5.7 0-10.3 4.5-10.3 10.1 0 2.4 2.2 5.4 2.3 6.3-0.7-0.4-1.8-3.3-6.1-3.3-3.6 0-6.5 2.8-6.5 6.3 0 2.1 2.9 5 2.7 5.1s-3.2-2.4-5-1.9c-3.2 0-5.8 2.5-5.8 5.7 0 0.5 0.1 1 0.2 1.5-0.4-0.1-0.8-0.2-1.2-0.2-2.3 0-4.2 1.8-4.2 4.1s1.9 4.1 4.2 4.1c2 3.7 10.3 17.1 10.3 17.1l38.8-20.9c0-0.1-8.1-12.9-7.8-15.9z" fill="url(#SVGID_1_)"/>
			<path stroke="#AF6C54" stroke-width=".5" stroke-miterlimit="10" d="m88.3 137.6c1.4 2.3-0.3 3.8-2.7 5.2s-4.5 2.2-5.9-0.1-0.6-5.3 1.8-6.7 5.4-0.7 6.8 1.6z" fill="#CC937A"/>
			<path stroke="#AF6C54" stroke-width=".5" stroke-miterlimit="10" d="m72.6 149c0.9 1.4-0.2 2.4-1.7 3.2-1.5 0.9-2.9 1.4-3.7-0.1-0.9-1.4-0.4-3.3 1.1-4.2 1.5-0.8 3.5-0.3 4.3 1.1z" fill="#CC937A"/>
			<path stroke="#AF6C54" stroke-width=".5" stroke-miterlimit="10" d="m63.3 157.9c0.7 1.2-0.2 1.9-1.4 2.6s-2.3 1.1-3 0c-0.7-1.2-0.3-2.7 0.9-3.4s2.8-0.3 3.5 0.8z" fill="#CC937A"/>
			<path stroke="#AF6C54" stroke-width=".5" stroke-miterlimit="10" d="m55.6 164.1c0.8 0.4 0.6 1.1 0.2 2-0.4 0.8-0.9 1.4-1.7 1s-1.2-1.4-0.7-2.2c0.3-0.8 1.4-1.2 2.2-0.8z" fill="#CC937A"/>
				<path d="m83.7 150.7s0.1-0.1 0.4-0.2c0.2-0.1 0.6-0.2 1-0.4l0.6-0.3c0.2-0.1 0.4-0.2 0.7-0.3 0.5-0.2 0.9-0.5 1.4-0.8 0.4-0.3 0.9-0.6 1.3-0.9 0.2-0.2 0.4-0.3 0.6-0.5l0.5-0.5c0.3-0.3 0.5-0.6 0.7-0.7l0.3-0.3s0 0.1-0.1 0.4c-0.1 0.2-0.2 0.6-0.4 1-0.1 0.2-0.2 0.4-0.4 0.6-0.1 0.2-0.3 0.4-0.5 0.6l-0.6 0.6c-0.2 0.2-0.5 0.4-0.7 0.5-0.3 0.1-0.5 0.3-0.8 0.4-0.2 0.2-0.5 0.2-0.8 0.3s-0.5 0.2-0.8 0.3c-0.2 0.1-0.5 0.1-0.7 0.2-0.4 0.1-0.8 0.1-1 0.1-0.6-0.1-0.7-0.1-0.7-0.1z" fill="#35261B"/>
				<path d="m71 156.6s0.1 0 0.3-0.1 0.5-0.1 0.8-0.2c0.1-0.1 0.3-0.1 0.5-0.2 0.2 0 0.3-0.2 0.5-0.2 0.2-0.1 0.4-0.2 0.5-0.3 0.2-0.1 0.3-0.2 0.5-0.3s0.3-0.3 0.5-0.4 0.3-0.3 0.4-0.4l0.4-0.4c0.1-0.1 0.2-0.3 0.3-0.4 0.2-0.2 0.3-0.5 0.4-0.6 0.1-0.2 0.2-0.3 0.2-0.3s0 0.1 0 0.3c0 0.2 0 0.5-0.1 0.8-0.1 0.2-0.1 0.3-0.2 0.5s-0.2 0.4-0.3 0.5c-0.1 0.2-0.2 0.4-0.4 0.5-0.2 0.2-0.4 0.3-0.5 0.5-0.2 0.1-0.4 0.2-0.6 0.4-0.2 0.1-0.4 0.2-0.6 0.2-0.2 0.1-0.4 0.1-0.6 0.1h-0.6c-0.3 0-0.6-0.1-0.8-0.1-0.5 0.1-0.6 0.1-0.6 0.1z" fill="#35261B"/>
				<path d="m61.5 164.3s0.1-0.1 0.2-0.1c0.1-0.1 0.4-0.2 0.6-0.3 0.1-0.1 0.2-0.1 0.4-0.2 0.1-0.1 0.3-0.2 0.4-0.3s0.3-0.2 0.4-0.3 0.3-0.2 0.4-0.3c0.3-0.2 0.5-0.4 0.8-0.7 0.3-0.2 0.4-0.5 0.7-0.6 0.2-0.2 0.3-0.4 0.5-0.5l0.2-0.2s0 0.1 0 0.3c0 0.2-0.1 0.4-0.2 0.7s-0.3 0.6-0.5 0.9c-0.1 0.1-0.2 0.3-0.4 0.4l-0.4 0.4c-0.2 0.1-0.3 0.2-0.5 0.3s-0.3 0.2-0.5 0.3c-0.3 0.2-0.7 0.2-1 0.3s-0.5 0-0.7 0c-0.3-0.1-0.4-0.1-0.4-0.1z" fill="#35261B"/>
				<path d="m57.2 168.7s0-0.1 0.1-0.2c0-0.1 0.1-0.2 0.2-0.4 0.1-0.1 0.1-0.3 0.2-0.4 0.1-0.2 0.2-0.3 0.2-0.5 0.2-0.3 0.3-0.7 0.4-0.9 0.1-0.3 0.3-0.5 0.3-0.5s0 0 0.1 0.1c0 0.1 0.1 0.2 0.2 0.4 0 0.2 0.1 0.4 0 0.6 0 0.1 0 0.2-0.1 0.3l-0.1 0.3-0.2 0.3c-0.1 0.1-0.1 0.2-0.2 0.3-0.1 0.2-0.3 0.3-0.5 0.4s-0.3 0.1-0.4 0.1c-0.1 0.1-0.2 0.1-0.2 0.1z" fill="#35261B"/>
			<path opacity=".5" enable-background="new " d="m102.4 165.7c-2.5-4-7.5-12.6-7.2-15.5v-0.5c-13.6 3.8-30.5 14.5-36.9 23.1 2.5 4.1 6.2 10.2 7.7 12.6l36.4-19.7z" fill="#473426"/>
			<path stroke="#5C0A8C" stroke-width="2" stroke-miterlimit="10" d="m56.1 178.8c2.1-2.9 26.4-24.6 44.3-25.9 5.8 5.7 8.7 13.2 8.7 13.2s-45.4 25.5-44.9 24.9c0.4-0.6-7.7-8.2-8.1-12.2z" fill="#9B40C6"/>
			<path stroke="#35261B" stroke-miterlimit="10" d="m74.2 163.2" fill="none"/>
			<path d="m62.8 187.6c0.9 1 1.5 1.7 1.8 2.3 4.5-2.4 27.4-15.2 43.3-24.1-0.7-1.7-2.9-6.3-6.5-10.4-17.2 5-35.1 19.3-43.2 26.4 1.3 1.9 3.2 4.2 4.6 5.8z" fill="#6C269E"/>
				<path d="m52.6 152.8v-0.4c0-0.2 0-0.6 0.1-1.1s0.2-1 0.3-1.6c0.2-0.6 0.4-1.3 0.8-2 0.3-0.7 0.8-1.5 1.3-2.3s1.1-1.6 1.7-2.3c0.7-0.8 1.4-1.5 2.1-2.2l2.4-2.1c1.7-1.3 3.6-2.4 5.4-3.3s3.6-1.5 5.2-1.9 2.9-0.5 3.9-0.5c0.5 0 0.8 0.1 1.1 0.1 0.2 0.1 0.4 0.1 0.4 0.1s-0.1 0-0.4 0c-0.2 0-0.6 0-1.1 0.1-0.9 0.2-2.1 0.5-3.6 1.1-1.4 0.6-3.1 1.3-4.8 2.3-0.8 0.5-1.7 1-2.5 1.5s-1.7 1.1-2.5 1.8c-0.8 0.6-1.6 1.3-2.4 1.9-0.7 0.7-1.5 1.3-2.1 2-0.7 0.7-1.3 1.4-1.8 2-0.5 0.7-1 1.3-1.4 2-0.4 0.6-0.7 1.2-1 1.8s-0.5 1.1-0.6 1.5-0.3 0.8-0.3 1c-0.1 0.3-0.2 0.5-0.2 0.5z" fill="#B062DD"/>
				<path d="m57.2 179s0.5-0.6 1.5-1.6 2.3-2.4 4.1-4c0.9-0.8 1.8-1.6 2.9-2.5 1-0.9 2.2-1.8 3.3-2.7 1.2-0.9 2.4-1.8 3.7-2.7 0.6-0.4 1.3-0.9 1.9-1.3 0.7-0.4 1.3-0.9 2-1.3 1.3-0.9 2.7-1.6 4.1-2.4s2.8-1.4 4.1-2.1c1.4-0.6 2.7-1.2 3.9-1.7 1.3-0.5 2.5-0.9 3.6-1.3 1.1-0.3 2.2-0.6 3.1-0.9s1.8-0.4 2.5-0.5c1.4-0.2 2.1-0.4 2.1-0.4s-0.7 0.3-2.1 0.7c-0.6 0.2-1.5 0.5-2.3 0.8-0.9 0.4-1.9 0.8-3 1.2-1.1 0.5-2.2 1-3.5 1.6-1.2 0.6-2.5 1.2-3.8 1.9s-2.6 1.4-3.9 2.2-2.7 1.5-4 2.4c-0.7 0.4-1.3 0.8-2 1.2-0.6 0.4-1.3 0.9-1.9 1.3-1.3 0.8-2.5 1.7-3.7 2.5-1.2 0.9-2.4 1.6-3.4 2.4-1.1 0.8-2.1 1.5-3.1 2.2-1.9 1.4-3.4 2.6-4.5 3.4-1 1.2-1.6 1.6-1.6 1.6z" fill="#B062DD"/>
				<path d="m83.1 150.4s0.1-0.1 0.4-0.2c0.1 0 0.3-0.1 0.5-0.2 0.2 0 0.4-0.1 0.6-0.2l0.6-0.3c0.2-0.1 0.4-0.3 0.7-0.4 0.2-0.1 0.5-0.3 0.7-0.4 0.2-0.2 0.5-0.3 0.7-0.5 0.5-0.4 0.9-0.7 1.3-1.1 0.2-0.2 0.4-0.3 0.6-0.5l0.5-0.5 0.4-0.4c0.1-0.1 0.2-0.3 0.3-0.4l0.3-0.3s0 0.1-0.1 0.4c-0.1 0.2-0.2 0.6-0.5 1-0.2 0.4-0.5 0.9-0.9 1.3-0.2 0.2-0.4 0.5-0.6 0.6-0.2 0.2-0.5 0.4-0.7 0.6-0.3 0.2-0.5 0.3-0.8 0.5s-0.5 0.3-0.8 0.4-0.5 0.2-0.8 0.3-0.5 0.1-0.8 0.2c-0.5 0.1-0.8 0.1-1.1 0.1h-0.5z" fill="#A88E7D"/>
				<path d="m71 156.4s0.1-0.1 0.3-0.1c0.2-0.1 0.4-0.2 0.7-0.3 0.1-0.1 0.3-0.2 0.4-0.2 0.1-0.1 0.3-0.2 0.4-0.3 0.3-0.2 0.6-0.4 0.9-0.7l0.8-0.8c0.1-0.1 0.2-0.2 0.3-0.4 0.1-0.1 0.2-0.3 0.3-0.4 0.2-0.2 0.3-0.4 0.4-0.6l0.2-0.2s0 0.1 0 0.3c0 0.2 0 0.5-0.1 0.7 0 0.1-0.1 0.3-0.2 0.5s-0.2 0.3-0.3 0.5-0.2 0.4-0.4 0.5c-0.1 0.2-0.3 0.3-0.4 0.5-0.2 0.1-0.4 0.3-0.5 0.4l-0.6 0.3c-0.2 0.1-0.4 0.2-0.5 0.2-0.2 0-0.4 0.1-0.5 0.1-0.3 0.1-0.6 0-0.8 0h-0.4z" fill="#A88E7D"/>
				<path d="m62.3 163.7s0.1-0.3 0.4-0.7 0.7-0.8 1.2-1.2 1-0.7 1.4-0.9 0.8-0.3 0.8-0.3-0.1 0.3-0.4 0.7c-0.3 0.4-0.7 0.8-1.2 1.2s-1 0.7-1.4 0.9c-0.5 0.3-0.8 0.3-0.8 0.3z" fill="#A88E7D"/>
				<path d="m57.2 167.8s-0.1-0.2-0.1-0.4 0-0.5 0.1-0.7 0.3-0.5 0.4-0.6l0.4-0.2s0.1 0.2 0.1 0.4c0 0.2 0 0.5-0.1 0.7s-0.3 0.5-0.4 0.6c-0.2 0.2-0.4 0.2-0.4 0.2z" fill="#A88E7D"/>
			<path stroke="#5C0A8C" stroke-width="2" stroke-miterlimit="10" d="m165.6 174.2s10.1-17.3 5.8-26.7c-4.3-9.3-16.4-16-24.2-15.3-16.1 1.3-15.2 8.9-19.4 22.4s37.8 20.1 37.8 20.1" fill="#9B40C6"/>
			<path d="m164.8 173.8c-5.1-0.9-30.1-5.6-35.5-14.1-1-1.6-1.2-3.1-0.7-4.7 0.7-2.2 1.2-4.2 1.7-6.1 2.6-9.5 3.9-14.4 15.7-15.7 3.8 2.2 6.6 5.7 6.8 9.8 1.8-0.1 4.4-0.3 6 0.3 4.2 1.7 5.8 7.3 8.3 10.1 1.2 1.4 2.6 2.5 4 3.6-1.3 8.1-6.2 16.6-6.3 16.8z" fill="#6C269E"/>
				<linearGradient id="SVGID_2_" y2="236.28" gradientUnits="userSpaceOnUse" x2="203.25" gradientTransform="matrix(-1 0 0 -1 323.1 396)" y1="236.28" x1="149.86">
				<stop stop-color="#8C715E" offset=".0167"/>
				<stop stop-color="#7B553F" offset="1"/>
			</linearGradient>
			<path stroke="#35261B" stroke-width="3" stroke-miterlimit="10" d="m127.6 150.4c-0.2-2.3 1.9-4.4 3.2-5 0.5-0.2 0.7-13.2 8.4-13.1 5.7 0 10.3 4.5 10.3 10.1 0 2.4-2.2 5.4-2.3 6.3 0.7-0.4 1.8-3.3 6.1-3.3 3.6 0 6.5 2.8 6.5 6.3 0 2.1-2.9 5-2.7 5.1s3.2-2.4 5-1.9c3.2 0 5.8 2.5 5.8 5.7 0 0.5-0.1 1-0.2 1.5 0.4-0.1 0.8-0.2 1.2-0.2 2.3 0 4.2 1.8 4.2 4.1s-1.9 4.1-4.2 4.1c-2 3.7-10.3 17.1-10.3 17.1l-38.8-20.9c0.1-0.1 8.1-12.9 7.8-15.9z" fill="url(#SVGID_2_)"/>
			<path stroke="#AF6C54" stroke-width=".5" stroke-miterlimit="10" d="m135.8 137.6c-1.4 2.3 0.3 3.8 2.7 5.2s4.5 2.2 5.9-0.1 0.6-5.3-1.8-6.7c-2.3-1.4-5.4-0.7-6.8 1.6z" fill="#CC937A"/>
			<path stroke="#AF6C54" stroke-width=".5" stroke-miterlimit="10" d="m151.5 149c-0.9 1.4 0.2 2.4 1.7 3.2 1.5 0.9 2.9 1.4 3.7-0.1 0.9-1.4 0.4-3.3-1.1-4.2-1.5-0.8-3.4-0.3-4.3 1.1z" fill="#CC937A"/>
			<path stroke="#AF6C54" stroke-width=".5" stroke-miterlimit="10" d="m160.8 157.9c-0.7 1.2 0.2 1.9 1.4 2.6s2.3 1.1 3 0c0.7-1.2 0.3-2.7-0.9-3.4s-2.7-0.3-3.5 0.8z" fill="#CC937A"/>
			<path stroke="#AF6C54" stroke-width=".5" stroke-miterlimit="10" d="m168.6 164.1c-0.8 0.4-0.6 1.1-0.2 2 0.4 0.8 0.9 1.4 1.7 1s1.2-1.4 0.7-2.2c-0.4-0.8-1.4-1.2-2.2-0.8z" fill="#CC937A"/>
				<path d="m140.5 150.7h-0.4c-0.3 0-0.6 0-1-0.1-0.2 0-0.5-0.1-0.7-0.2-0.3-0.1-0.5-0.2-0.8-0.3s-0.5-0.2-0.8-0.3-0.5-0.3-0.8-0.4c-0.2-0.2-0.5-0.4-0.7-0.5l-0.6-0.6c-0.2-0.2-0.4-0.4-0.5-0.6s-0.3-0.4-0.4-0.6c-0.2-0.4-0.3-0.7-0.4-1-0.1-0.2-0.1-0.4-0.1-0.4s0.1 0.1 0.3 0.3c0.2 0.2 0.4 0.5 0.7 0.7 0.2 0.1 0.3 0.3 0.5 0.5s0.4 0.3 0.6 0.5c0.4 0.3 0.8 0.6 1.3 0.9s0.9 0.6 1.4 0.8c0.2 0.1 0.4 0.3 0.7 0.3l0.6 0.3c0.4 0.2 0.7 0.3 1 0.4 0 0.2 0.1 0.3 0.1 0.3z" fill="#35261B"/>
				<path d="m153.2 156.6s-0.1 0-0.3 0.1c-0.2 0-0.5 0.1-0.8 0.1h-0.6c-0.2 0-0.4-0.1-0.6-0.1-0.2-0.1-0.4-0.1-0.6-0.2s-0.4-0.2-0.6-0.4-0.4-0.3-0.5-0.5c-0.2-0.1-0.3-0.4-0.4-0.5-0.1-0.2-0.3-0.3-0.3-0.5-0.1-0.2-0.1-0.4-0.2-0.5-0.1-0.3-0.1-0.6-0.1-0.8v-0.3s0.1 0.1 0.2 0.3c0.1 0.2 0.2 0.4 0.4 0.6 0.1 0.1 0.2 0.3 0.3 0.4s0.2 0.3 0.4 0.4l0.4 0.4c0.2 0.1 0.3 0.2 0.5 0.4 0.2 0.1 0.3 0.2 0.5 0.3s0.3 0.2 0.5 0.3 0.3 0.2 0.5 0.2c0.2 0.1 0.3 0.1 0.5 0.2 0.3 0.1 0.6 0.2 0.8 0.2-0.1-0.1 0-0.1 0-0.1z" fill="#35261B"/>
				<path d="m162.6 164.3h-0.3c-0.2 0-0.4 0.1-0.7 0-0.3 0-0.7-0.1-1-0.3-0.2-0.1-0.4-0.1-0.5-0.3-0.2-0.1-0.3-0.2-0.5-0.3l-0.4-0.4c-0.2-0.1-0.2-0.3-0.4-0.4-0.2-0.3-0.4-0.6-0.5-0.9s-0.2-0.5-0.2-0.7v-0.3s0.1 0.1 0.2 0.2l0.5 0.5c0.2 0.2 0.4 0.4 0.7 0.6 0.2 0.2 0.5 0.5 0.8 0.7 0.1 0.1 0.3 0.2 0.4 0.3s0.3 0.2 0.4 0.3 0.3 0.2 0.4 0.3 0.2 0.1 0.4 0.2c0.2 0.2 0.5 0.2 0.6 0.3 0 0.1 0.1 0.2 0.1 0.2z" fill="#35261B"/>
				<path d="m166.9 168.7h-0.2c-0.1 0-0.2 0-0.4-0.1s-0.4-0.2-0.5-0.4c-0.1-0.1-0.2-0.2-0.2-0.3l-0.2-0.3-0.1-0.3c-0.1-0.1 0-0.2-0.1-0.3v-0.6c0-0.2 0.1-0.3 0.2-0.4l0.1-0.1s0.1 0.2 0.3 0.5c0.1 0.3 0.3 0.6 0.5 0.9 0.1 0.2 0.2 0.3 0.2 0.5 0 0.1 0.1 0.2 0.1 0.2 0 0.1 0.1 0.1 0.1 0.2 0.1 0.1 0.1 0.3 0.2 0.4v0.1z" fill="#35261B"/>
			<path opacity=".5" enable-background="new " d="m121.7 165.7c2.5-4 7.5-12.6 7.2-15.5v-0.5c13.6 3.8 30.5 14.5 36.9 23.1-2.5 4.1-6.2 10.2-7.7 12.6l-36.4-19.7z" fill="#473426"/>
			<path stroke="#5C0A8C" stroke-width="2" stroke-miterlimit="10" d="m168.1 178.8c-2.1-2.9-26.4-24.6-44.3-25.9-5.8 5.7-8.7 13.2-8.7 13.2s45.3 25.5 44.9 24.9c-0.5-0.6 7.7-8.2 8.1-12.2z" fill="#9B40C6"/>
			<path stroke="#35261B" stroke-miterlimit="10" d="m150 163.2" fill="none"/>
			<path d="m161.4 187.6c-0.9 1-1.5 1.7-1.8 2.3-4.5-2.4-27.4-15.2-43.3-24.1 0.7-1.7 2.9-6.3 6.5-10.4 17.2 5 35.1 19.3 43.2 26.4-1.3 1.9-3.3 4.2-4.6 5.8z" fill="#6C269E"/>
				<path d="m171.5 152.8s0-0.1-0.1-0.4c-0.1-0.2-0.2-0.6-0.3-1-0.2-0.4-0.4-0.9-0.6-1.5-0.3-0.6-0.6-1.2-1-1.8s-0.9-1.3-1.4-2c-0.6-0.7-1.2-1.4-1.8-2-0.7-0.7-1.4-1.3-2.1-2s-1.5-1.3-2.4-1.9c-0.8-0.6-1.6-1.2-2.5-1.8-0.8-0.5-1.7-1.1-2.5-1.5-1.7-0.9-3.3-1.7-4.8-2.3-1.4-0.6-2.7-1-3.6-1.1-0.4-0.1-0.8-0.1-1.1-0.1h-0.4s0.1-0.1 0.4-0.1c0.2-0.1 0.6-0.1 1.1-0.1 1 0 2.3 0.1 3.9 0.5s3.4 1 5.2 1.9c1.8 0.8 3.7 2 5.4 3.3 0.8 0.7 1.7 1.3 2.4 2.1 0.8 0.7 1.5 1.5 2.1 2.2 0.7 0.8 1.2 1.5 1.7 2.3s0.9 1.5 1.3 2.3c0.3 0.7 0.6 1.4 0.8 2s0.3 1.2 0.3 1.6c0.1 0.5 0.1 0.8 0.1 1.1-0.1 0.1-0.1 0.3-0.1 0.3z" fill="#B062DD"/>
				<path d="m166.9 179s-0.6-0.5-1.7-1.3-2.6-2-4.5-3.4c-0.9-0.7-2-1.4-3.1-2.2s-2.3-1.6-3.4-2.4c-1.2-0.8-2.5-1.7-3.7-2.5-0.6-0.4-1.3-0.9-1.9-1.3-0.7-0.4-1.3-0.8-2-1.2-1.3-0.9-2.7-1.6-4-2.4s-2.7-1.5-3.9-2.2c-1.3-0.7-2.6-1.3-3.8-1.9-1.2-0.5-2.4-1.1-3.5-1.6-1.1-0.4-2.1-0.8-3-1.2s-1.7-0.6-2.3-0.8c-1.3-0.5-2.1-0.7-2.1-0.7s0.8 0.1 2.1 0.4c0.7 0.1 1.5 0.2 2.5 0.5 0.9 0.3 2 0.5 3.1 0.9s2.3 0.8 3.6 1.3 2.6 1.1 3.9 1.7c1.3 0.7 2.7 1.3 4.1 2.1s2.8 1.5 4.1 2.4c0.7 0.4 1.3 0.9 2 1.3s1.3 0.9 1.9 1.3c1.3 0.9 2.5 1.8 3.7 2.7s2.3 1.8 3.3 2.7 2 1.7 2.9 2.5c1.8 1.6 3.2 3 4.1 4 1.1 0.7 1.6 1.3 1.6 1.3z" fill="#B062DD"/>
				<path d="m141.1 150.4h-0.4c-0.3 0-0.7 0-1.1-0.1-0.2 0-0.5-0.1-0.8-0.2s-0.5-0.2-0.8-0.3-0.6-0.2-0.8-0.4c-0.3-0.2-0.5-0.3-0.8-0.5-0.2-0.2-0.5-0.4-0.7-0.6-0.3-0.2-0.4-0.4-0.6-0.6-0.4-0.4-0.7-0.9-0.9-1.3-0.3-0.4-0.4-0.8-0.5-1-0.1-0.3-0.1-0.4-0.1-0.4s0.1 0.1 0.3 0.3c0.1 0.1 0.2 0.2 0.3 0.4l0.4 0.4 0.5 0.5c0.2 0.2 0.4 0.3 0.6 0.5 0.4 0.4 0.9 0.7 1.3 1.1 0.2 0.2 0.5 0.3 0.7 0.5s0.5 0.3 0.7 0.4 0.5 0.3 0.7 0.4l0.6 0.3c0.2 0.1 0.4 0.2 0.6 0.2 0.2 0.1 0.3 0.1 0.5 0.2 0.1 0.2 0.3 0.2 0.3 0.2z" fill="#A88E7D"/>
				<path d="m153.1 156.4h-0.3c-0.2 0-0.4 0.1-0.8 0-0.2 0-0.3-0.1-0.5-0.1s-0.4-0.1-0.5-0.2l-0.6-0.3c-0.2-0.1-0.3-0.3-0.5-0.4-0.1-0.2-0.3-0.3-0.4-0.5-0.2-0.1-0.2-0.3-0.4-0.5-0.1-0.2-0.2-0.3-0.3-0.5s-0.1-0.3-0.2-0.5c-0.1-0.3-0.1-0.6-0.1-0.7v-0.3s0.1 0.1 0.2 0.2c0.1 0.1 0.2 0.4 0.4 0.6 0.1 0.1 0.2 0.2 0.3 0.4 0.1 0.1 0.2 0.2 0.3 0.4 0.2 0.3 0.5 0.5 0.8 0.8 0.3 0.2 0.6 0.5 0.9 0.7 0.1 0.1 0.3 0.2 0.4 0.3s0.3 0.2 0.4 0.2c0.2 0.2 0.5 0.2 0.7 0.3 0.1 0 0.2 0.1 0.2 0.1z" fill="#A88E7D"/>
				<path d="m161.9 163.7s-0.3-0.1-0.8-0.3c-0.4-0.2-0.9-0.5-1.4-0.9s-0.9-0.8-1.2-1.2-0.4-0.7-0.4-0.7 0.3 0.1 0.8 0.3c0.4 0.2 1 0.5 1.4 0.9 0.5 0.4 0.9 0.8 1.2 1.2s0.4 0.7 0.4 0.7z" fill="#A88E7D"/>
				<path d="m167 167.8l-0.4-0.2c-0.2-0.1-0.3-0.4-0.4-0.6s-0.1-0.5-0.1-0.7 0.1-0.4 0.1-0.4 0.2 0.1 0.4 0.2c0.2 0.1 0.3 0.4 0.4 0.6s0.1 0.5 0.1 0.7-0.1 0.4-0.1 0.4z" fill="#A88E7D"/>
				<linearGradient id="SVGID_3_" y2="200.45" gradientUnits="userSpaceOnUse" x2="52.948" gradientTransform="matrix(.9922 .125 .125 -.9922 -24.873 386.43)" y1="200.45" x1="14.982">
				<stop stop-color="#8C715E" offset=".0167"/>
				<stop stop-color="#7B553F" offset="1"/>
			</linearGradient>
			<path stroke="#35261B" stroke-width="3" stroke-miterlimit="10" d="m16.8 205.5c0.1-0.4-3.1-21.4 0-24.5s28.3-8 33.7 0.2-0.1 23-0.6 25.5c-0.6 2.3-33.1-1.2-33.1-1.2z" fill="url(#SVGID_3_)"/>
			<path opacity=".5" enable-background="new " d="m47.9 192.5c-3.3-2.6-4.6-7.5-8-9.7-5-3.2-11.6-1.2-13.4 4-2.3 6.4-4.1 9.5-9 12.2 0.2 1.5 0.3 3.1 0.5 4.9 0 0.2 0 0.3 0.1 0.4 4 0.4 18.3 1.9 26.3 1.9 2.8 0 3.9-0.2 4.4-0.3 0.1-0.3 0.2-0.6 0.3-1 0.6-2 1.6-5.5 2.2-9.3-1-1-2.1-2-3.4-3.1z" fill="#473426"/>
					<linearGradient id="SVGID_4_" y2="204.62" gradientUnits="userSpaceOnUse" x2="40.702" gradientTransform="matrix(1 0 0 -1 0 396)" y1="204.62" x1="26.306">
					<stop stop-color="#8C715E" offset=".0167"/>
					<stop stop-color="#7B553F" offset="1"/>
				</linearGradient>
				<path stroke="#35261B" stroke-width="2" stroke-miterlimit="10" d="m26.9 199.8c-1.2-5.7-1.2-14.7 6.2-16.6 8.5-2.2 7.9 9.2 7.3 14.7" fill="url(#SVGID_4_)"/>
					<path d="m40.5 194.6s0.4 0.2 1.1 0.6c0.3 0.2 0.7 0.4 1.1 0.7 0.4 0.2 0.8 0.6 1.2 0.9s0.8 0.6 1.1 1l0.5 0.5c0.1 0.2 0.3 0.3 0.4 0.5 0.2 0.3 0.4 0.6 0.5 0.8s0.2 0.3 0.2 0.3-0.1-0.1-0.2-0.2c-0.2-0.1-0.3-0.4-0.6-0.6-0.1-0.1-0.3-0.2-0.4-0.4-0.2-0.1-0.4-0.2-0.5-0.4-0.4-0.3-0.8-0.5-1.2-0.7s-0.9-0.4-1.3-0.5c-0.4-0.2-0.8-0.3-1.2-0.4-0.7-0.2-1.2-0.3-1.2-0.3l0.5-1.8z" fill="#35261B"/>
					<path d="m40.9 193.9s0.1 0 0.3 0.1 0.4 0.1 0.8 0.2 0.8 0.2 1.2 0.4l1.2 0.6c0.8 0.4 1.5 0.9 2.1 1.3 0.5 0.4 0.9 0.6 0.9 0.6s-0.4-0.2-1-0.4c-0.6-0.2-1.5-0.5-2.3-0.8l-1.2-0.3c-0.4-0.1-0.8-0.1-1-0.1h-1.1l0.1-1.6z" fill="#35261B"/>
					<path d="m30.3 188.5s0-0.1 0.1-0.2 0.1-0.3 0.3-0.5c0.1-0.2 0.3-0.4 0.6-0.6 0.2-0.2 0.5-0.4 0.8-0.5 0.2-0.1 0.3-0.1 0.5-0.2 0.1-0.1 0.3-0.1 0.5-0.1 0.3-0.1 0.6-0.1 0.8 0 0.2 0 0.4 0.1 0.6 0.1 0.1 0 0.2 0.1 0.2 0.1s-0.1 0-0.2 0.1c-0.1 0.1-0.3 0.1-0.5 0.2-0.4 0.2-0.9 0.4-1.5 0.6-0.3 0.1-0.5 0.2-0.7 0.4-0.1 0.1-0.2 0.1-0.3 0.2s-0.2 0.1-0.3 0.2c-0.2 0.1-0.4 0.2-0.5 0.3-0.3-0.1-0.4-0.1-0.4-0.1z" fill="#35261B"/>
					<path d="m30.6 186.5s0.1-0.3 0.4-0.6c0.1-0.1 0.1-0.2 0.2-0.2 0.1-0.1 0.2-0.1 0.3-0.2 0.2-0.1 0.5-0.3 0.8-0.4s0.6-0.1 0.8-0.1h0.4c0.1 0 0.2 0 0.3 0.1 0.4 0.1 0.7 0.2 0.7 0.2s-0.3 0.2-0.6 0.3c-0.1 0-0.2 0.1-0.3 0.1s-0.2 0.1-0.3 0.1c-0.2 0.1-0.5 0.1-0.7 0.2s-0.4 0.2-0.7 0.2c-0.1 0-0.2 0-0.3 0.1-0.1 0-0.2 0.1-0.3 0.1-0.4 0-0.7 0.1-0.7 0.1z" fill="#35261B"/>
				<linearGradient id="SVGID_5_" y2="194.4" gradientUnits="userSpaceOnUse" x2="202.16" gradientTransform="matrix(1 0 0 -1 0 396)" y1="232.78" x1="162.01">
				<stop stop-color="#8C715E" offset=".0167"/>
				<stop stop-color="#7B553F" offset="1"/>
			</linearGradient>
			<path stroke="#35261B" stroke-width="3" stroke-miterlimit="10" d="m100.6 150c-0.8-13.1 10.3-10.3 10.3-10.3s-5.8-2.6-3.9-9.2c4-9.2 15.5-6.1 15.5-6.1s-3.1-12.2 10.8-10.9 47 18.8 61.4 33.2c14.3 14.4 27.3 43.3 30.9 53.3s-4.5 10.9-9.4 10.1l-1.3-7.9s-0.9-17.9-26.6-37.2 7.3 35.4-5.2 35-2.9-17.9-19.5-31-62.1-4.6-63-19z" fill="url(#SVGID_5_)"/>
				<path d="m110.9 138.3s0.6 0.1 1.7 0.3 2.6 0.5 4.5 0.9c1.8 0.4 4 0.9 6.2 1.4 2.3 0.6 4.7 1.1 7.1 1.8 1.2 0.3 2.4 0.7 3.6 1s2.3 0.7 3.5 1c2.2 0.7 4.3 1.3 6.1 1.9 3.5 1.2 5.9 2 5.9 2s-2.4-0.6-6-1.6c-1.8-0.5-3.9-0.9-6.2-1.5-1.1-0.3-2.3-0.5-3.5-0.8-1.2-0.2-2.4-0.5-3.6-0.7-2.4-0.5-4.9-0.9-7.2-1.3s-4.4-0.7-6.3-1c-1.8-0.3-3.4-0.5-4.4-0.6-1.1-0.1-1.7-0.2-1.7-0.2l0.3-2.6z" fill="#35261B"/>
				<polygon points="122.9 123.2 153 133.4 122.1 125.7" fill="#35261B"/>
				<path d="m157.5 148.4s0.1 0 0.4 0.1c0.2 0.1 0.6 0.2 1 0.4s0.8 0.5 1.2 0.9c0.2 0.2 0.4 0.3 0.6 0.6 0.2 0.2 0.4 0.4 0.6 0.7 0.2 0.2 0.3 0.5 0.5 0.7s0.3 0.5 0.4 0.7c0.3 0.5 0.4 1 0.5 1.4s0.1 0.8 0.2 1v0.4s-0.1-0.1-0.2-0.4c-0.1-0.2-0.2-0.5-0.5-0.9l-0.3-0.6c-0.1-0.2-0.3-0.4-0.4-0.6s-0.3-0.4-0.4-0.7c-0.2-0.2-0.3-0.4-0.5-0.7-0.2-0.2-0.3-0.4-0.5-0.6s-0.4-0.4-0.5-0.6c-0.2-0.2-0.3-0.4-0.5-0.5l-0.5-0.5c-0.3-0.3-0.6-0.5-0.8-0.7-0.2 0.1-0.3-0.1-0.3-0.1z" fill="#35261B"/>
				<path d="m160.2 135.3s0.2 0 0.4 0.1c0.3 0.1 0.6 0.1 1.1 0.3 0.2 0.1 0.5 0.2 0.7 0.3 0.3 0.1 0.5 0.3 0.7 0.4 0.2 0.2 0.5 0.3 0.7 0.6 0.2 0.2 0.4 0.5 0.6 0.7 0.2 0.3 0.3 0.5 0.5 0.8s0.2 0.6 0.4 0.8c0.1 0.3 0.2 0.5 0.2 0.8s0.1 0.5 0.1 0.7v1.5s0-0.1-0.1-0.4c0-0.1-0.1-0.3-0.1-0.4-0.1-0.2-0.1-0.4-0.2-0.6s-0.2-0.4-0.2-0.6c-0.1-0.2-0.2-0.5-0.3-0.7s-0.2-0.5-0.4-0.7-0.3-0.5-0.5-0.7-0.4-0.4-0.5-0.6l-0.6-0.6c-0.2-0.2-0.4-0.4-0.6-0.5s-0.4-0.3-0.6-0.4c-0.3-0.3-0.7-0.4-0.9-0.6-0.3-0.1-0.4-0.2-0.4-0.2z" fill="#35261B"/>
				<path d="m101.8 147.8s0-0.2 0.1-0.5c0-0.3 0.1-0.8 0.3-1.4s0.4-1.3 0.9-2.1 1.2-1.6 2.2-2.1c0.5-0.3 1-0.5 1.7-0.7 0.3-0.1 0.7-0.1 1-0.1h1c1.3 0.1 2.6 0.2 3.9 0.4 1.4 0.2 2.7 0.4 4.2 0.6 1.4 0.2 2.8 0.5 4.3 0.7 1.4 0.2 2.8 0.5 4.3 0.8 1.4 0.3 2.8 0.5 4.1 0.8 2.7 0.5 5.1 1.1 7.2 1.6s3.9 0.9 5.1 1.2 1.9 0.5 1.9 0.5-0.7 0-2-0.1c-1.3-0.1-3.1-0.3-5.2-0.6-2.2-0.3-4.7-0.6-7.3-1.1-1.3-0.2-2.7-0.4-4.1-0.7-1.4-0.2-2.8-0.5-4.2-0.7-2.8-0.5-5.7-1-8.3-1.5-1.3-0.2-2.6-0.5-3.8-0.6-0.3 0-0.6-0.1-0.9-0.1h-0.8c-0.4 0.1-1 0.2-1.4 0.4-0.9 0.4-1.6 1-2.2 1.7-0.5 0.6-0.9 1.3-1.1 1.9s-0.4 1-0.5 1.3c-0.4 0.2-0.4 0.4-0.4 0.4z" fill="#A88E7D"/>
				<path d="m108.2 131.1s0.1-0.1 0.2-0.4 0.4-0.7 0.7-1.1c0.3-0.5 0.8-1 1.4-1.5s1.4-1.1 2.3-1.5c1.8-0.9 4.3-1.4 6.8-1.2 1.3 0.1 2.5 0.3 3.8 0.5s2.5 0.5 3.8 0.8c2.5 0.6 5.1 1.2 7.4 1.8 2.4 0.6 4.6 1.2 6.4 1.8 1.9 0.6 3.4 1.1 4.5 1.4 0.5 0.2 1 0.3 1.2 0.4 0.3 0.1 0.4 0.2 0.4 0.2s-0.2 0-0.5-0.1c-0.3 0-0.7-0.1-1.3-0.2-1.1-0.2-2.7-0.4-4.7-0.8-1.9-0.3-4.2-0.8-6.6-1.3-1.2-0.2-2.4-0.5-3.7-0.8s-2.5-0.5-3.8-0.8-2.5-0.5-3.8-0.8c-1.2-0.2-2.5-0.5-3.6-0.7-2.3-0.3-4.5 0-6.3 0.6-0.9 0.3-1.6 0.7-2.3 1.1-0.6 0.4-1.2 0.8-1.6 1.2l-0.9 0.9c0.3 0.3 0.2 0.5 0.2 0.5z" fill="#A88E7D"/>
				<path d="m124 121.2v-1.8c0.1-0.5 0.3-1.3 0.8-1.9 0.5-0.7 1.2-1.3 2.1-1.8s2-0.8 3.2-1c0.6-0.1 1.2-0.1 1.8-0.1 0.7 0.1 1.2 0.1 1.8 0.2 1.2 0.2 2.5 0.5 3.7 0.8 1.3 0.3 2.5 0.6 3.8 1 1.3 0.3 2.5 0.8 3.7 1.2s2.4 0.9 3.5 1.3 2.2 0.9 3.2 1.3c1 0.5 2 0.9 2.8 1.3 0.9 0.4 1.7 0.8 2.4 1.2s1.3 0.7 1.8 1l1.5 0.9s-0.6-0.2-1.7-0.6c-1.1-0.4-2.6-1-4.4-1.6-0.9-0.3-1.9-0.7-2.9-1-1-0.4-2.2-0.7-3.3-1.1s-2.3-0.8-3.5-1.1c-1.2-0.4-2.4-0.8-3.7-1.1-1.2-0.4-2.4-0.7-3.7-1-1.2-0.3-2.4-0.6-3.5-0.9-0.6-0.1-1.2-0.2-1.7-0.3s-1.1-0.1-1.6-0.1c-1 0.1-2 0.3-2.8 0.6s-1.5 0.8-2 1.3-0.8 1.1-1 1.6-0.3 0.9-0.3 1.2v0.5z" fill="#A88E7D"/>
			<path opacity=".5" enable-background="new " d="m217.3 208.9c0.6 0.1 1.2 0.1 1.7 0.1 1.5 0 4.1-0.3 5.3-1.9 1-1.4 1-3.6-0.1-6.6-1.5-4.1-4.3-10.9-8-18.4-2 0.7-3.5 1.3-3.9 1.5-0.7 0.3-5-3.2-9.5-7 12.1 13.6 13.2 24.3 13.3 25.5l1.2 6.8z" fill="#473426"/>
				<line y1="165.8" x2="185.4" x1="188.3" y2="157" fill="none"/>
				<polygon points="187 166.3 185.4 157 189.6 165.4" fill="#35261B"/>
				<linearGradient id="SVGID_6_" y2="109.28" gradientUnits="userSpaceOnUse" x2="125.29" gradientTransform="matrix(1 0 0 -1 0 396)" y1="195.1" x1="125.29">
				<stop stop-color="#00A19A" offset=".1056"/>
				<stop stop-color="#008DA0" offset="1"/>
			</linearGradient>
			<path stroke="#004C45" stroke-width="2" stroke-miterlimit="10" d="m8.3 223.2c0-28.8 29.3-24.5 49.1-26.2 19.9-1.7 115.8 4.4 116.9 5.2 1.1 0.9 18 2.2 25.4 3.1v-10.9s29-10.5 37.9-6.1c9 4.4 3.7 41.1-5.8 56.3-10.1 16.2-39 42.1-121 42.1-81.9-0.1-102.5-42.2-102.5-63.5z" fill="url(#SVGID_6_)"/>
			<path opacity=".4" enable-background="new " d="m201.1 204.8c0.5 0.3 14.3-0.7 20.4 5.2 6.2 5.8 8.2 22.9-1.2 35.4s-9.7 5.2-9.7 5.2 14.2-36.3-11.2-45.3l1.7-0.5z" fill="#004C45"/>
				<path d="m197.3 204.1s0.2 0 0.6 0.1 1 0.2 1.7 0.5c1.4 0.5 3.4 1.3 5.5 2.8 1 0.7 2.1 1.6 3.1 2.7 1 1 1.9 2.3 2.7 3.6s1.5 2.8 2 4.3c0.3 0.8 0.5 1.6 0.7 2.3 0.2 0.8 0.4 1.6 0.5 2.4 0.3 1.6 0.4 3.2 0.5 4.8s0 3.2-0.1 4.7c-0.1 0.8-0.1 1.5-0.2 2.2l-0.3 2.1c-0.2 1.4-0.5 2.7-0.7 3.9s-0.5 2.3-0.7 3.2c-0.2 1-0.5 1.8-0.7 2.5l-0.6 2.1s0.2-0.8 0.5-2.2c0.2-0.7 0.4-1.5 0.6-2.5s0.4-2 0.6-3.2 0.4-2.5 0.5-3.9c0.1-0.7 0.2-1.4 0.2-2.1s0.1-1.5 0.1-2.2c0-1.5 0-3.1-0.1-4.6-0.1-1.6-0.3-3.2-0.6-4.7-0.1-0.8-0.4-1.5-0.6-2.3s-0.5-1.5-0.8-2.2c-0.6-1.5-1.3-2.8-2.1-4.1-0.8-1.2-1.7-2.4-2.7-3.3s-2-1.7-3-2.4c-2-1.3-3.9-2-5.2-2.4-0.7-0.2-1.2-0.3-1.5-0.4-0.4-0.1-0.5-0.1-0.5-0.1l0.6-1.6z" fill="#004C45"/>
				<path d="m199.8 204.6s0.5-0.3 1.4-0.7c0.4-0.2 1-0.5 1.7-0.8s1.4-0.5 2.3-0.8c0.9-0.2 1.8-0.5 2.8-0.6 1-0.2 2-0.2 3.1-0.3h1.7c0.6 0 1.1 0.1 1.7 0.1 1.1 0.1 2.3 0.3 3.4 0.5s2.2 0.5 3.3 0.8 2.1 0.6 3.2 0.9c2 0.6 3.9 1.2 5.5 1.8 3.2 1.1 5.3 1.9 5.3 1.9s-2.2-0.6-5.4-1.6c-1.6-0.5-3.5-1-5.6-1.5-1-0.3-2.1-0.5-3.2-0.7l-3.3-0.6c-1.1-0.2-2.2-0.3-3.3-0.4-0.5 0-1.1 0-1.6-0.1h-1.6c-1 0.1-2 0.2-2.9 0.4-0.9 0.1-1.8 0.5-2.5 0.7-0.8 0.3-1.5 0.5-2 0.9-0.6 0.3-1.1 0.5-1.5 0.8-0.8 0.5-1.3 0.8-1.3 0.8l-1.2-1.5z" fill="#004C45"/>
				<path d="m199.5 204.2s0.4-0.3 1.2-1c0.2-0.2 0.4-0.3 0.6-0.5 0.3-0.2 0.5-0.4 0.9-0.5 0.3-0.2 0.6-0.4 1-0.6 0.3-0.2 0.7-0.4 1.1-0.6l1.2-0.6c0.4-0.2 0.9-0.3 1.4-0.5s1-0.3 1.5-0.5c0.5-0.1 1-0.3 1.5-0.4 1.1-0.2 2.1-0.4 3.3-0.5 1.1-0.2 2.3-0.2 3.4-0.2s2.3 0 3.4 0.1 2.2 0.2 3.3 0.4c1 0.2 2.1 0.3 3 0.6 0.9 0.2 1.8 0.4 2.6 0.7 0.8 0.2 1.6 0.4 2.2 0.7 0.7 0.2 1.2 0.4 1.7 0.6l1.5 0.5s-0.5-0.2-1.5-0.5c-0.5-0.2-1-0.3-1.7-0.5s-1.4-0.4-2.2-0.5c-0.8-0.2-1.7-0.4-2.7-0.5-0.9-0.2-2-0.3-3-0.4s-2.1-0.2-3.2-0.2c-1.1-0.1-2.2 0-3.3 0-1.1 0.1-2.2 0.1-3.3 0.4-1.1 0.1-2.1 0.4-3.1 0.7-0.5 0.1-1 0.3-1.4 0.5-0.5 0.2-0.9 0.3-1.4 0.5-0.4 0.2-0.8 0.4-1.2 0.5-0.4 0.2-0.8 0.4-1.1 0.6-0.4 0.2-0.7 0.4-1 0.6s-0.6 0.4-0.8 0.6c-0.3 0.2-0.5 0.4-0.7 0.5-0.2 0.2-0.4 0.4-0.6 0.5-0.7 0.6-1.1 1-1.1 1l-1.5-1.5z" fill="#004C45"/>
				<path d="m197.2 205.9s0.9 0.1 2.3 0.5 3.4 1.2 5.5 2.7c1 0.7 2.1 1.7 3 2.8 0.5 0.5 0.9 1.1 1.4 1.8 0.4 0.6 0.9 1.3 1.2 2 0.8 1.4 1.4 2.9 1.9 4.5 0.2 0.8 0.5 1.6 0.6 2.4l0.3 1.2c0.1 0.4 0.1 0.8 0.2 1.2l0.2 1.2 0.1 1.2c0.1 0.8 0.1 1.7 0.1 2.5v2.4c0 0.8 0 1.6-0.1 2.4s-0.1 1.5-0.2 2.3c-0.1 0.7-0.2 1.5-0.3 2.2-0.2 1.4-0.5 2.7-0.7 4-0.2 1.2-0.6 2.3-0.8 3.3s-0.5 1.8-0.7 2.5c-0.4 1.4-0.7 2.2-0.7 2.2s0.2-0.8 0.5-2.2c0.2-0.7 0.4-1.6 0.5-2.6 0.2-1 0.4-2.1 0.6-3.3s0.4-2.5 0.6-4c0.1-0.7 0.2-1.4 0.2-2.2 0.1-0.7 0.1-1.5 0.2-2.3s0.1-1.6 0.1-2.3v-2.4c0-0.8 0-1.6-0.1-2.4l-0.1-1.2-0.2-1.2c-0.1-0.4-0.1-0.8-0.2-1.2l-0.2-1.2c-0.1-0.8-0.4-1.6-0.6-2.4-0.5-1.5-1-3-1.8-4.4-0.7-1.4-1.5-2.6-2.4-3.7s-1.9-2-2.8-2.8c-1-0.8-1.9-1.4-2.8-1.9s-1.7-0.8-2.4-1.1c-1.6-0.4-2.4-0.5-2.4-0.5z" fill="#15CCBE"/>
			<path opacity=".4" enable-background="new " d="m192.4 224c0.5-8.9-5.4-14.6-9-19.5-6-0.6-8.6-1-9.5-1.5-3.6-0.9-75.4-5.5-105.9-5.5-4.6 0-8.2 0.1-10.5 0.3-3.2 0.3-6.5 0.4-10.1 0.5-1.5 0.1-2.9 0.1-4.4 0.2-2.9 25.4-16.8 27.5-18.2 35-2.5 13.4 8.5 10.3 12.5 21.4 1.9 5.4 2.4 10.4 2.8 14.9 15.7 9.3 38.4 15.9 70.7 15.9 21 0 51.6-1.9 77.7-11.2 0.2-9-1.5-19.5 3.9-22.9 6.1-3.9 13.2-7.7 13.3-14.6 0.3-7.7-1.1-10.1-13.3-13z" fill="#004C45"/>
					<linearGradient id="SVGID_7_" y2="159.12" gradientUnits="userSpaceOnUse" x2="50.869" gradientTransform="matrix(1 0 0 -1 0 396)" y1="159.12" x1="27.858">
					<stop stop-color="#8C715E" offset=".0167"/>
					<stop stop-color="#7B553F" offset="1"/>
				</linearGradient>
				<path stroke="#35261B" stroke-width="3" stroke-miterlimit="10" d="m42.7 230.8s-7.6-2.7-11.2-0.9-8.8 15.3 8.4 14.5 9.1-7.7 9.1-7.7l-6.3-5.9z" fill="url(#SVGID_7_)"/>
				<path opacity=".5" enable-background="new " d="m49.2 240.9c-0.1-0.8-0.2-1.6-0.4-2.4-0.2-0.3-0.5-0.6-0.7-0.7l-6.1-5.8c-0.7-0.2-2.8-0.9-5.1-1.2-0.8 3.9-1.5 8.5-1.2 12.3 0.9 0.1 1.9 0.2 2.8 0.2h1.3c6.6-0.5 8.7-1.6 9.4-2.4z" fill="#473426"/>
					<linearGradient id="SVGID_8_" y2="159.12" gradientUnits="userSpaceOnUse" x2="322.93" gradientTransform="matrix(-1 0 0 -1 500.15 396)" y1="159.12" x1="299.92">
					<stop stop-color="#8C715E" offset=".0167"/>
					<stop stop-color="#7B553F" offset="1"/>
				</linearGradient>
				<path stroke="#35261B" stroke-width="3" stroke-miterlimit="10" d="m185.4 230.8s7.6-2.7 11.2-0.9 8.8 15.3-8.4 14.5-9.1-7.7-9.1-7.7l6.3-5.9z" fill="url(#SVGID_8_)"/>
				<path opacity=".5" enable-background="new " d="m178.9 240.9c0.1-0.8 0.2-1.6 0.4-2.4 0.2-0.3 0.5-0.6 0.7-0.7l6.1-5.8c0.7-0.2 2.8-0.9 5.1-1.2 0.8 3.9 1.5 8.5 1.2 12.3-0.9 0.1-1.9 0.2-2.8 0.2h-1.3c-6.6-0.5-8.7-1.6-9.4-2.4z" fill="#473426"/>
				<linearGradient id="SVGID_9_" y2="155.19" gradientUnits="userSpaceOnUse" x2="186.45" gradientTransform="matrix(1 0 0 -1 0 396)" y1="155.19" x1="41.281">
				<stop stop-color="#8C715E" offset=".0167"/>
				<stop stop-color="#7B553F" offset="1"/>
			</linearGradient>
			<path stroke="#35261B" stroke-width="3" stroke-miterlimit="10" d="m186.4 239.5c0 45.5-32.5 82.3-72.6 82.3s-72.6-36.9-72.6-82.3c0-45.5 32.5-79.7 72.6-79.7s72.6 34.2 72.6 79.7z" fill="url(#SVGID_9_)"/>
				<linearGradient id="SVGID_10_" y2="91.371" gradientUnits="userSpaceOnUse" x2="115.86" gradientTransform="matrix(1 0 0 -1 0 396)" y1="206.9" x1="115.86">
				<stop stop-color="#231C18" offset="0"/>
				<stop offset="1"/>
			</linearGradient>
			<path d="m174.3 234.9c0.3-4.2-2.6-7.1-6.2-8.4 1.7-1.9 2.5-4.4 1.6-7.2-1-3.2-4.1-5.1-7.3-5.9 2.6-3.5 2.9-7.8 0.1-12-2.5-3.7-6.8-5.4-10.9-4.9-0.3-4.7-5.3-8.3-10.4-7.6-0.9-5.5-4.3-9.9-10.9-9.8-2.8 0-5.4 1.8-6.6 4.3-0.1 0.2-0.1 0.3-0.2 0.5-2.5-1.5-5.2-2.2-9-1.1-4.5 1.4-8.7 5.1-9.7 9.6-3.7-0.9-7.5 0.3-10.4 2.7-1.1-2-3.1-3.2-6-2.6-3 0.6-4.4 3.1-4.7 5.8-5.9-2.4-12.4 1.9-12.4 8.7-7.9 0.9-13.5 11.4-9.1 16.7-2.5 2.7-4.1 8-4.4 10.5-0.4 3.1-0.6 7.1 1.8 9.7 0.5 0.6 1.1 1 1.6 1.2-4.9 4.9-3.7 12.9 1.9 16.6-8 6.4-3.1 22.8 7.7 21.6 0.3 4.2 1.5 7.4 6 9.7 3.2 1.6 5.9 0.9 7.9-1.1 1.8 1.9 4.2 3 7.1 1.9 0.8-0.3 1.5-0.7 2.1-1.2 0.7 2 1.8 3.9 3.6 5.3 3.3 2.5 7.6 2.9 11.5 1.9 3.8-1 7.3-3.8 8.7-7.4 5.6 3.5 14 2.5 15.8-3.6 3.9 1.1 7.9-2.9 8.5-7.6 6.8 2.3 14.5-3.3 15.7-9.5 3.8 0.4 7.8-1.4 10.1-4.6 3.5-4.9 1.5-9.3-2.3-12.4 2.4-1.4 4.4-3.6 5.3-6.3 0.9-2.4-0.1-4.5-1.7-6.3 2.9-1.2 5-3.5 5.2-7.2z" fill="url(#SVGID_10_)"/>
				<path d="m71.1 210.5c0-6.8 6.5-11.1 12.4-8.7 0.3-2.7 1.7-5.2 4.7-5.8 2.9-0.6 4.9 0.6 6 2.6 3-2.4 6.8-3.6 10.4-2.7 1-4.5 5.2-8.2 9.7-9.6 3.8-1.1 6.5-0.4 9 1.1 0.1-0.2 0.1-0.3 0.2-0.5 1.1-2.5 3.7-4.3 6.6-4.3 6.6-0.1 10 4.4 10.9 9.8 5.2-0.7 10.1 2.9 10.4 7.6 4.1-0.6 8.4 1.1 10.9 4.9 0.9 1.4 1.5 2.8 1.8 4.3 0.5-2.5 0-5.2-1.8-7.8-2.5-3.7-6.8-5.4-10.9-4.9-0.3-4.7-5.3-8.3-10.4-7.6-0.9-5.5-4.3-9.9-10.9-9.8-2.8 0-5.4 1.8-6.6 4.3-0.1 0.2-0.1 0.3-0.2 0.5-2.5-1.5-5.2-2.2-9-1.1-4.5 1.4-8.7 5.1-9.7 9.6-3.7-0.9-7.5 0.3-10.4 2.7-1.1-2-3.1-3.2-6-2.6-3 0.6-4.4 3.1-4.7 5.8-5.9-2.4-12.4 1.9-12.4 8.7-6.6 0.7-11.6 8.3-10.4 13.8 0.9-4.8 5.2-9.7 10.4-10.3z" fill="#493B34"/>
			<g stroke="#35261B" stroke-width=".5" stroke-miterlimit="10" fill="none">
				<ellipse cy="301.9" cx="121.3" rx="1.4" ry="1.4"/>
				<ellipse cy="303.3" cx="111.8" rx="1.4" ry="1.4"/>
				<ellipse cy="256.9" cx="173.8" rx="1.4" ry="1.4"/>
				<ellipse cy="304" cx="150.3" rx="2.1" ry="2.1"/>
				<ellipse cy="301.4" cx="101" rx=".8" ry=".8"/>
				<ellipse cy="299.9" cx="92.4" rx="1.5" ry="1.4"/>
				<ellipse cy="293.8" cx="86.2" rx="1.1" ry="1"/>
				<ellipse cy="298.4" cx="80.3" rx="1.5" ry="1.5"/>
				<ellipse cy="309" cx="93.7" rx="1.3" ry="1.3"/>
				<ellipse cy="305.5" cx="81" rx=".8" ry=".8"/>
				<ellipse cy="289.7" cx="66.8" rx="1.9" ry="1.8"/>
				<ellipse cy="287.9" cx="165.4" rx="1.9" ry="1.8"/>
				<ellipse cy="276.8" cx="163.5" rx="1.9" ry="1.8"/>
				<ellipse cy="251.6" cx="47.6" rx="1.1" ry="1"/>
				<ellipse cy="295.8" cx="131.8" rx="1.1" ry="1"/>
				<ellipse cy="229.3" cx="52.9" rx="1.1" ry="1.1"/>
				<ellipse cy="299.6" cx="141.7" rx="1.3" ry="1.3"/>
				<ellipse cy="291.7" cx="144.6" rx="1" ry="1"/>
				<ellipse cy="286.5" cx="152.9" rx="1.4" ry="1.4"/>
				<ellipse cy="304" cx="132.1" rx=".7" ry=".7"/>
				<ellipse cy="269.1" cx="52.9" rx=".8" ry=".8"/>
				<ellipse cy="270.4" cx="174.3" rx=".5" ry=".5"/>
				<ellipse cy="294.8" cx="158.9" rx=".5" ry=".5"/>
				<ellipse cy="260.8" cx="177.3" rx=".5" ry=".5"/>
				<ellipse cy="316.3" cx="129" rx="2.1" ry="2.1"/>
				<ellipse cy="317.3" cx="109.8" rx="1.1" ry="1"/>
				<ellipse cy="307.7" cx="119.2" rx=".8" ry=".8"/>
				<ellipse cy="249.8" cx="182.1" rx=".8" ry=".8"/>
				<ellipse cy="316.8" cx="120.4" rx=".5" ry=".5"/>
				<ellipse cy="248.9" cx="175.2" rx=".5" ry=".5"/>
				<ellipse cy="308.4" cx="140.4" rx=".5" ry=".5"/>
				<ellipse cy="279.2" cx="57.9" rx=".5" ry=".5"/>
				<ellipse cy="224.5" cx="181.3" rx=".5" ry=".5"/>
				<ellipse cy="225" cx="44.6" rx=".5" ry=".5"/>
				<ellipse cy="224.5" cx="176.7" rx=".5" ry=".5"/>
				<ellipse cy="308.4" cx="105.9" rx=".7" ry=".7"/>
			</g>
			<path d="m69.9 174.8s12.3-12.2 31.3-13.9" stroke="#231C18" stroke-linecap="round" stroke-miterlimit="10" stroke-width="7" fill="none"/>
			<path d="m154.6 174.8s-12.3-12.2-31.3-13.9" stroke="#231C18" stroke-linecap="round" stroke-miterlimit="10" stroke-width="7" fill="none"/>
</svg>
