<?xml version="1.0" encoding="UTF-8" standalone="no"?>
<!-- Generator: Adobe Illustrator 16.0.0, SVG Export Plug-In . SVG Version: 6.00 Build 0) -->

<svg
   xmlns:dc="http://purl.org/dc/elements/1.1/"
   xmlns:cc="http://creativecommons.org/ns#"
   xmlns:rdf="http://www.w3.org/1999/02/22-rdf-syntax-ns#"
   xmlns:svg="http://www.w3.org/2000/svg"
   xmlns="http://www.w3.org/2000/svg"
   xmlns:sodipodi="http://sodipodi.sourceforge.net/DTD/sodipodi-0.dtd"
   xmlns:inkscape="http://www.inkscape.org/namespaces/inkscape"
   id="Layer_1"
   xml:space="preserve"
   x="0px"
   y="0px"
   width="4240"
   height="3440"
   viewBox="0 0 4240.0001 3440"
   version="1.1"
   enable-background="new 0 0 63.134 121.823"
   inkscape:version="0.91 r13725"
   sodipodi:docname="NightModeVan.svg"><sodipodi:namedview
     pagecolor="#ffffff"
     bordercolor="#666666"
     borderopacity="1"
     objecttolerance="10"
     gridtolerance="10"
     guidetolerance="10"
     inkscape:pageopacity="0"
     inkscape:pageshadow="2"
     inkscape:window-width="1412"
     inkscape:window-height="732"
     id="namedview5040"
     showgrid="false"
     inkscape:zoom="0.10756503"
     inkscape:cx="1295.3964"
     inkscape:cy="1627.3194"
     inkscape:window-x="0"
     inkscape:window-y="0"
     inkscape:window-maximized="0"
     inkscape:current-layer="Layer_1" /><metadata
     id="metadata3451"><rdf:RDF><cc:Work
         rdf:about=""><dc:format>image/svg+xml</dc:format><dc:type
           rdf:resource="http://purl.org/dc/dcmitype/StillImage" /><dc:title /></cc:Work></rdf:RDF></metadata><defs
     id="defs3449"><linearGradient
       id="linearGradient4862"
       y2="111.5"
       gradientUnits="userSpaceOnUse"
       y1="63.147999"
       x2="29.584"
       x1="29.584"
       gradientTransform="matrix(0.33759066,0,0,0.33759066,-0.00724255,82.173574)"><stop
         id="stop3379"
         stop-color="#DF0000"
         offset="0" /><stop
         id="stop3381"
         stop-color="#A00404"
         offset="1" /></linearGradient><linearGradient
       id="linearGradient14621"
       y2="29.846001"
       gradientUnits="userSpaceOnUse"
       x2="50.723999"
       y1="29.846001"
       x1="8.441"
       gradientTransform="matrix(0.33759066,0,0,0.33759066,-0.00724255,82.173574)"><stop
         id="stop3063"
         offset="0" /><stop
         id="stop3065"
         stop-color="#505050"
         offset=".1426" /><stop
         id="stop3067"
         stop-color="#505050"
         offset=".834" /><stop
         id="stop3069"
         offset="1" /></linearGradient></defs><g
     id="g5968"
     transform="translate(2088.4336,1659.0898)"><path
       id="rect5907"
       d="m -2088.4336,-1659.0898 0,3440 4240,0 0,-3440 -4240,0 z M 31.566406,33.019531 A 27.890104,27.890104 0 0 1 59.457031,60.910156 27.890104,27.890104 0 0 1 31.566406,88.800781 27.890104,27.890104 0 0 1 3.6777344,60.910156 27.890104,27.890104 0 0 1 31.566406,33.019531 Z"
       style="fill:#000000;fill-opacity:0.91025636"
       inkscape:connector-curvature="0" /><g
       transform="translate(21.601495,-41.086015)"
       id="g5909"><path
         id="path2994"
         d="m 9.9773403,82.415403 c 4.9399687,0 6.4871427,1.329576 7.1501697,1.841038 0.640748,0.492952 0.911156,5.804849 0.935464,8.568501 -0.048,0.369144 -0.02057,0.823324 -0.12757,1.158692 l 0.06075,8.767366 -16.0379176,0 0.060415,-8.767366 c -0.064992,-1.154394 0.10032,-0.818068 -0.127284,-1.160548 0.024925,-2.763016 0.2950384,-8.073693 0.935794,-8.566645 0.6630276,-0.511462 2.2102066,-1.841038 7.150172,-1.841038 m -7e-6,-0.241168 c -4.8629968,0 -6.5225924,1.288442 -7.2315311,1.839557 l -0.066539,0.05385 c -0.1394384,0.105397 -0.3223929,0.352429 -0.5030171,1.304767 -0.109386,0.576858 -0.2066188,1.350012 -0.288993,2.298365 -0.1465238,1.685121 -0.2160508,3.565557 -0.2343032,4.869034 l -0.014738,0 c -0.4229984,0 -1.29938584,0.269757 -1.54008917,0.588067 -0.27248321,0.448765 0.04863825,0.976508 0.64176204,0.905639 0.14786349,0 0.31766983,-0.0083 0.50436133,-0.07775 0.1978321,-0.05405 0.3460283,-0.101447 0.4581092,-0.156511 0.024294,0.10615 0.051999,0.184118 0.073938,0.238346 l -0.060094,8.710221 -0.00181,0.24258 16.5250656,0 -9.67e-4,-0.24258 -0.06041,-8.710781 c 0.02179,-0.0478 0.04908,-0.121788 0.07248,-0.227652 0.109483,0.04536 0.251847,0.09839 0.438521,0.143941 0.18672,0.04688 0.356835,0.07765 0.504357,0.07765 0.585165,0.06183 0.911312,-0.524463 0.641778,-0.905629 -0.239705,-0.31695 -1.107968,-0.585478 -1.533337,-0.588019 -0.01811,-1.302916 -0.08794,-3.182845 -0.234321,-4.868265 -0.08198,-0.94807 -0.179373,-1.721558 -0.288757,-2.298741 -0.180593,-0.952467 -0.36358,-1.197818 -0.503017,-1.305256 l -0.0665,-0.05365 c -0.709618,-0.55026 -2.369553,-1.839389 -7.2318693,-1.839389 z"
         inkscape:connector-curvature="0"
         style="fill:#3f3f3f" /><path
         id="path3009"
         d="m 17.996468,102.751 -0.06067,-8.767366 c 0,0 0.148889,-0.236524 0.128955,-0.880188 -0.0072,-2.666315 -0.274111,-8.336488 -0.937154,-8.847005 -0.663026,-0.511462 -2.210207,-1.841038 -7.1501742,-1.841038 -4.939966,0 -6.4871417,1.329576 -7.1505099,1.841038 -0.6630365,0.510517 -0.9290608,6.18069 -0.9368258,8.847005 -0.020142,0.644659 0.128961,0.880188 0.128961,0.880188 l -0.060418,8.767366 16.0379239,0 z"
         inkscape:connector-curvature="0"
         style="fill:#787878" /><path
         id="path3011"
         d="m 3.1272854,102.751 c 0,0 -1.0816389,-0.52601 -1.1893298,-1.98978 l 0,1.98978 1.1893298,0 z"
         inkscape:connector-curvature="0"
         style="clip-rule:evenodd;fill:#3f3f3f;fill-rule:evenodd" /><path
         id="path3013"
         d="m 16.816254,102.751 c 0,0 1.081984,-0.52601 1.189331,-1.98978 l 0,1.98978 -1.189331,0 z"
         inkscape:connector-curvature="0"
         style="clip-rule:evenodd;fill:#3f3f3f;fill-rule:evenodd" /><path
         id="path3021"
         d="m 5.4888077,83.322955 c -0.2764751,0.05763 -2.2392056,0.991442 -2.5212927,1.308593 -0.3227295,0.362836 -0.4844451,1.46971 -0.4641891,1.993745 0.161367,-0.0085 0.1357107,-0.605173 0.3375957,-0.907305 0.2015167,-0.30249 2.0658853,-1.874857 2.6583592,-2.363273 0.03948,-0.03653 0.029163,-0.0398 -0.010228,-0.01614 z m 8.9147583,0 c -9.66e-4,0.002 9.67e-4,0.0067 0.02058,0.01614 0.592811,0.488549 2.44685,2.060316 2.648058,2.363157 0.201531,0.301488 0.187022,0.887929 0.348056,0.907407 0.02015,-0.52382 -0.141706,-1.631093 -0.464171,-1.993963 -0.302155,-0.339947 -2.534296,-1.392005 -2.552865,-1.308298 z"
         inkscape:connector-curvature="0"
         style="fill:#ffffff;stroke:#1f1f1f;stroke-width:0.06751832" /><path
         id="path3035"
         d="m 17.159923,90.546877 -0.05666,-0.06217 c -1.342629,-1.537356 -4.511933,-1.734424 -7.1228601,-1.734424 -2.6109255,0 -5.7802262,0.198057 -7.1228268,1.734493 l -0.031474,0.03809 -0.030091,-0.03857 c -0.02213,-0.01198 0.077668,-2.199377 0.078663,-2.221375 0.07156,-1.522922 0.1421139,-2.461003 0.2096359,-2.789175 l 0.00201,-0.0056 0.00619,-0.002 c 0.1637097,-0.201401 1.3972964,-1.32269 2.1767934,-1.942166 l 0.00593,-0.002 c 0.00459,-9.67e-4 0.00966,-0.0057 0.013832,-0.0067 0.08747,-0.07851 0.1870119,-0.154752 0.2960643,-0.221171 l 0.00818,-0.002 c 1.1447976,-0.730294 3.1740565,-0.730294 4.3866806,-0.730294 1.2092497,0 3.2300737,0 4.3805787,0.724677 l 0.0087,0 0.01134,0.002 c 0.02553,0.0077 0.05195,0.03913 0.07971,0.05931 0.04418,0.01615 0.08978,0.06278 0.141756,0.105713 0.758898,0.590481 2.097447,1.800374 2.273667,2.017869 l 0.0063,0.002 0.0012,0.0056 c 0.160402,0.780208 0.292026,4.757628 0.297745,4.926503 l -0.02213,0.151244 z M 9.9800417,88.666303 c 2.5886403,0 5.7245293,0.196145 7.1207983,1.693204 -0.01378,-0.388466 -0.14279,-4.104918 -0.293369,-4.863037 -0.197137,-0.235215 -1.50667,-1.416283 -2.255103,-1.997505 -0.05136,-0.04107 -0.09531,-0.07773 -0.138377,-0.103095 -0.02408,-0.0077 -0.04769,-0.03759 -0.06962,-0.05322 l -0.0072,0 -0.0087,-0.002 c -1.129957,-0.720013 -3.144361,-0.720013 -4.3478685,-0.720013 -1.203513,0 -3.218593,0 -4.3471575,0.718586 -0.1080317,0.07182 -0.2052649,0.140919 -0.2906559,0.218504 l -0.020316,0.01169 c -0.7696309,0.611017 -1.9761812,1.704609 -2.1608417,1.922814 -0.143839,0.724625 -0.267698,4.187203 -0.2903269,4.850495 1.4026801,-1.486772 4.5277576,-1.680178 7.1089757,-1.680178 z"
         inkscape:connector-curvature="0"
         style="fill:#333333" /><path
         id="path3039"
         d="m 9.984769,88.649677 c 2.308109,0 5.141171,0.160966 6.675852,1.311338 0.161682,-0.27971 -0.992176,-5.531 -2.011702,-6.437565 -1.027285,-0.914486 -3.112586,-0.946821 -4.66415,-0.946821 -1.5522418,-3.68e-4 -3.637202,0.03606 -4.6648312,0.946573 -1.0191854,0.906813 -2.1727308,6.157255 -2.0113647,6.437606 1.5346853,-1.148092 4.3677507,-1.311131 6.6761959,-1.311131 z"
         inkscape:connector-curvature="0"
         style="fill:#bebebe" /><path
         id="path3127"
         d="m 7.2928944,87.005173 c -0.6782216,0.0142 -2.9394007,0.667872 -3.080517,0.791282 -0.1613868,0.140254 -0.4574349,0.926889 -0.5381182,1.244567 -0.045588,0.179555 0.061413,0.313614 0.2427236,0.234344 0.08371,-0.0389 0.8189966,-0.354269 1.6035555,-0.537934 0.9216213,-0.217029 1.8341298,-0.294388 1.8884832,-0.35881 0.1006275,-0.120215 0.2444021,-1.157615 0.073941,-1.350466 -0.02168,-0.01192 -0.09315,-0.01192 -0.1901006,-0.0084 z m 5.2957866,0 c -0.03065,9.67e-4 -0.05234,0.0039 -0.06317,0.0084 -0.170818,0.195312 -0.0272,1.187639 0.0739,1.308203 0.05436,0.06261 0.966861,0.14118 1.888473,0.358508 0.784236,0.181602 1.530306,0.500626 1.614031,0.538119 0.180958,0.08027 0.277491,-0.0038 0.231937,-0.190568 -0.0806,-0.318029 -0.376753,-1.103929 -0.538119,-1.245134 -0.150894,-0.134199 -2.742932,-0.859344 -3.207115,-0.791255 z"
         inkscape:connector-curvature="0"
         style="fill:none;stroke:#787878;stroke-width:0.06751832" /><path
         id="path3138"
         d="m 3.9685645,88.824978 c 0.070926,-0.253774 0.2079267,-0.787261 0.3500792,-0.899164 0.1421125,-0.115438 2.7881596,-0.863261 2.9390654,-0.71085 0.1505396,0.155549 0.028298,0.879216 -0.060403,0.975 -0.047974,0.0537 -0.8551174,0.143354 -1.6680368,0.317661 -0.6920607,0.14397 -1.344624,0.420372 -1.4182199,0.449252 -0.160037,0.06177 -0.1826042,0.0038 -0.1424873,-0.133766 z"
         inkscape:connector-curvature="0"
         style="fill:#343434;stroke:#1f1f1f;stroke-width:0.06751832" /><path
         id="path3192"
         d="m 16.041479,88.824978 c -0.07124,-0.253774 -0.207634,-0.787261 -0.350072,-0.899164 -0.142469,-0.115438 -2.788507,-0.863261 -2.93907,-0.71085 -0.150536,0.155549 -0.02825,0.879216 0.0604,0.975 0.04821,0.0537 0.855118,0.143354 1.668039,0.317661 0.692062,0.14397 1.344288,0.420372 1.41822,0.449252 0.160036,0.06177 0.1826,0.0038 0.142463,-0.133766 z"
         inkscape:connector-curvature="0"
         style="fill:#343434;stroke:#1f1f1f;stroke-width:0.06751832" /><path
         id="path3232"
         d="m 9.9834178,82.574454 c -1.5522436,0 -3.6355163,0.03753 -4.6631415,0.949188 -0.06379,0.05808 -0.1251291,0.134787 -0.1899201,0.220739 0.2102939,0.140337 2.2998043,-0.406271 4.8528675,-0.379651 2.5531983,-0.01406 4.6536843,0.520856 4.8636683,0.379651 -0.06448,-0.08606 -0.136322,-0.162171 -0.20017,-0.220739 -1.027623,-0.914298 -3.111576,-0.949188 -4.663144,-0.949188 z m -5.2012626,1.561064 c -0.4121971,0.378571 -1.3845948,1.305285 -1.4875577,1.466688 l -0.2637271,4.357012 c 0.3203705,-2.285909 0.99137,-4.546635 1.7512876,-5.823537 z m 10.4021898,0 c 0.759576,1.276767 1.430905,3.537618 1.751279,5.823563 L 16.67196,85.601961 C 16.568972,85.44158 15.596394,84.514016 15.184198,84.135452 Z"
         inkscape:connector-curvature="0"
         style="fill:#d7d7d7" /><path
         id="path3236"
         d="m 14.370412,83.319647 c 3.31e-4,-9.66e-4 3.31e-4,-9.66e-4 6.67e-4,-9.66e-4 -1.092772,-0.711733 -2.966069,-0.739698 -4.390701,-0.739698 -1.4212551,0 -3.2898228,0.0142 -4.3832764,0.735103 6.728e-4,9.66e-4 0.00134,0.002 0.00201,0.002 -0.3081947,0.345271 1.7747159,-0.285151 4.3856416,-0.259264 2.6109338,-0.01413 4.6931938,0.604342 4.3856528,0.259264 z"
         inkscape:connector-curvature="0"
         style="fill:#191919;stroke:#1f1f1f;stroke-width:0.06751832" /><ellipse
         id="ellipse3252"
         rx="0.42333823"
         ry="0.12085755"
         cy="82.77758"
         cx="9.9844227"
         style="fill:#d7d7d7" /><path
         id="path3260"
         d="m 2.3239652,91.320226 c -0.073907,0.0998 -0.0106,1.74024 -0.0106,1.74024 0,0 0.084382,6.779589 0.084382,7.258454 0,0.17431 0.3003733,0.59457 0.3692534,0.37946 0.055346,-0.17524 0.06325,-0.42151 0.06325,-0.42151 0,0 0.073879,-3.350119 0.073879,-3.914209 0,-0.564087 -0.4236076,-5.030247 -0.5802512,-5.042435 z m 15.3181848,0 c -0.156665,0.0058 -0.580326,4.478348 -0.580326,5.042435 0,0.56409 0.07386,3.914209 0.07386,3.914209 0,0 0.0074,0.25131 0.06358,0.42151 0.06893,0.21656 0.368981,-0.20597 0.368981,-0.37946 0,-0.478865 0.07386,-7.258454 0.07386,-7.258454 0,0 0.07365,-1.64032 0,-1.74024 z"
         inkscape:connector-curvature="0"
         style="fill:#171d23;stroke:#1f1f1f;stroke-width:0.10127348" /><path
         id="path3276"
         d="m 2.3345309,92.585993 c -0.045571,0.002 -0.1501519,0.2345 -0.4958201,0.241305 -0.2259309,-0.200409 -1.00902335,0.06351 -1.30816392,0.241673 -0.36993104,0.18647 -0.43376929,0.488688 -0.0949516,0.717404 0.3929548,-0.233871 0.99082952,-0.421911 1.64575442,-0.421911 0.352782,0 0.5180325,0.919817 0.6118843,0.517132 C 2.7874453,93.34749 2.615102,92.55244 2.3345452,92.583975 Z m 15.2125141,0 c -0.250508,0.06114 -0.404431,0.796941 -0.316648,1.297579 0.09379,0.402654 0.269735,-0.51691 0.622515,-0.51691 0.65493,0 1.252797,0.189278 1.645765,0.421479 0.274806,-0.179056 0.276469,-0.482553 0.04206,-0.622166 -0.869969,-0.554743 -1.393251,-0.398511 -1.445234,-0.337481 -0.345348,-0.0036 -0.450341,-0.237083 -0.495919,-0.241369 -0.01779,-9.65e-4 -0.03601,-9.65e-4 -0.05257,0 z"
         inkscape:connector-curvature="0"
         style="fill:#0c0c0c" /><path
         id="path3278"
         d="m 1.8387108,93.377271 c 0,0 -0.6172514,-0.0055 -1.40312647,0.41087 -0.78587869,0.423894 0.0280423,0.125549 0.74901227,-0.06111 C 1.9056897,93.53407 1.8387108,93.37886 1.8387108,93.37886 Z m 16.2570182,0 c 0,0 -0.06682,0.158273 0.653916,0.348336 0.721432,0.190122 0.749107,0.06111 0.749107,0.06111 -0.785907,-0.42324 -1.403023,-0.411106 -1.403023,-0.411106 z"
         inkscape:connector-curvature="0"
         style="fill:#bceaff" /><path
         id="path3309"
         d="m 9.972614,102.751 6.680246,0 c 0,0 0.07186,-5.51546 -0.197134,-5.631 -1.129239,-0.532295 -3.9515,-1.000173 -6.4830921,-1.000173 -2.5315947,0 -5.3538537,0.467878 -6.4830945,1.000173 -0.2687153,0.118156 -0.1968043,5.631 -0.1968043,5.631 l 6.6799097,0"
         inkscape:connector-curvature="0"
         style="fill:#b4b4b4;stroke:#1f1f1f;stroke-width:0.06751832" /><path
         id="path3346"
         d="M 7.3596615,95.111346"
         inkscape:connector-curvature="0"
         style="fill:#232323" /><path
         id="path3368"
         d="M 3.1272854,102.34733"
         stroke-miterlimit="10"
         inkscape:connector-curvature="0"
         style="clip-rule:evenodd;fill:none;stroke:#3f3f3f;stroke-width:1.0127722;stroke-miterlimit:10" /><path
         id="path3383"
         d="m 18.427577,120.34778 c 0,0.74282 -0.60733,1.35065 -1.350362,1.35065 l -14.1946824,0 c -0.7426984,0 -1.3503629,-0.60783 -1.3503629,-1.35065 l 0,-16.16627 c 0,-0.74279 0.6076645,-1.35057 1.3503629,-1.35057 l 14.1950154,0 c 0.743032,0 1.350361,0.60778 1.350361,1.35057 l 0,16.16733 z"
         style="clip-rule:evenodd;fill:url(#linearGradient4862);fill-rule:evenodd"
         inkscape:connector-curvature="0" /><path
         id="path3400"
         d="m 16.09955,110.50339 c 0,0.37093 -0.303816,0.67524 -0.675183,0.67524 l -10.8889886,0 c -0.3713529,0 -0.6751821,-0.30315 -0.6751821,-0.67524 l 0,-4.8313 c 0,-0.37121 0.3038293,-0.67534 0.6751821,-0.67534 l 10.8889886,0 c 0.371349,0 0.675183,0.30326 0.675183,0.67534 l 0,4.8313 z"
         inkscape:connector-curvature="0"
         style="clip-rule:evenodd;fill:#dc0000;fill-rule:evenodd;stroke:#a80000;stroke-width:0.23631322" /><path
         id="path3443"
         d="m 1.7100807,121.4591 c -0.097883,0 -0.1779059,-0.60783 -0.1779059,-1.35105 l 0,-16.0064 c 0,-0.74302 0.6076645,-1.35065 1.3503637,-1.35065 l 14.1950125,0 c 0.743037,0 1.350365,0.60763 1.350365,1.35065 l 0,16.00689 c 0,0.74283 -0.08105,1.35066 -0.180613,1.35066 -0.09942,0 -0.18059,-0.60783 -0.18059,-1.35066 l 0,-15.53239 c 0,-0.74279 -0.607318,-1.35057 -1.350359,-1.35057 l -13.4779704,0 c -0.7426987,0 -1.3503616,0.60778 -1.3503616,1.35057 l 0,15.53239 c 0,0.74283 -0.080345,1.35066 -0.1779056,1.35066 z"
         inkscape:connector-curvature="0"
         style="clip-rule:evenodd;fill:#870000;fill-rule:evenodd" /><path
         id="path3445"
         d="m 18.105174,121.82 -16.2506037,0 c -0.2444235,0 -0.4432574,-0.1993 -0.4432574,-0.44308 l 0,-18.22413 c 0,-0.24294 0.1988254,-0.44365 0.4432574,-0.44365 l 16.2509477,0 c 0.24476,0 0.443587,0.19921 0.443587,0.44365 l 0,18.2227 c 0,0.24306 -0.199147,0.44277 -0.443931,0.44277 z M 1.8545703,102.95219 c -0.111084,0 -0.2015592,0.0933 -0.2015592,0.20047 l 0,18.22279 c 0,0.11368 0.090482,0.20071 0.2015592,0.20071 l 16.2509477,0 c 0.111479,0 0.201877,-0.0888 0.201877,-0.20071 l 0,-18.22305 c 0,-0.11397 -0.0904,-0.20069 -0.201877,-0.20069 l -16.2509477,0 z"
         inkscape:connector-curvature="0"
         style="fill:#6d0000" /><path
         id="path5828"
         d="M 2.3240581,91.378143 2.5226057,86.577308"
         inkscape:connector-curvature="0"
         style="fill:none;stroke:#000000;stroke-width:0.10127708" /><path
         id="path5830"
         d="M 17.65888,91.317916 17.408491,86.620583"
         inkscape:connector-curvature="0"
         style="fill:none;stroke:#000000;stroke-width:0.10127708" /><path
         id="path3058"
         d="m 9.9831521,88.651309 c -2.6602129,0 -6.0266665,0.217184 -7.2899326,1.90939 0.053636,1.935047 0.484376,4.995165 0.5380536,5.264103 0.043476,0.100924 0.2214962,0 0.2214962,0 0,0 1.5049784,-0.97075 6.5303549,-0.97075 5.0247008,0 6.5303548,0.97075 6.5303548,0.97075 0,0 0.167803,0.100924 0.210657,0 0.05371,-0.268698 0.484109,-3.329941 0.538124,-5.264103 -1.263262,-1.693517 -4.618575,-1.90939 -7.2791328,-1.90939 z m -3.0700456,6.582998 0,1.096793 c 0,0 1.7905779,-0.213333 3.0592458,-0.213333 1.2686657,0 3.0595827,0.199958 3.0595827,0.199958 l 0,-1.086382 -0.190095,0.759587 c 0,0 -1.434762,-0.124628 -2.8904525,-0.124628 -1.4556891,0 -2.8485899,0.165943 -2.8485899,0.165943 l -0.1897352,-0.80159 z m 0.6856449,1.782441 c -0.2399984,0.04241 -0.409836,0.253173 -0.4115249,0.506288 -0.00201,0.293349 0.2234541,0.515259 0.5171897,0.517262 0.2933704,9.66e-4 0.5158382,-0.216299 0.5168541,-0.506302 0.00101,-0.293754 -0.2255453,-0.515898 -0.5168541,-0.517248 -0.036852,-2.15e-4 -0.071211,-0.002 -0.1056398,0 z m 1.2976997,0 c -0.1158001,9.66e-4 -0.2204521,0.0442 -0.3163358,0.138453 -0.00201,-0.0405 -0.00966,-0.07244 -0.01062,-0.10222 l -0.1687965,0 0,1.434852 0.1795783,0 0,-0.57999 c 0.2440976,0.229399 0.5637767,0.137854 0.7065774,-0.003 0.1809584,-0.181931 0.20188,-0.482358 0.042242,-0.685613 -0.079328,-0.100014 -0.1907282,-0.163884 -0.3163345,-0.188814 -0.041227,-0.002 -0.077695,-9.66e-4 -0.1161798,0 z m 1.2342309,0 c -0.12557,-9.65e-4 -0.2420719,0.0397 -0.3480573,0.138453 -0.00215,-0.04124 0.00185,-0.07696 0,-0.10222 l -0.1792689,0 0,0.960174 0.1792689,0 c 0.00185,-0.03849 -0.00205,-0.0598 0,-0.101889 0.107676,0.105641 0.2295703,0.142531 0.3693213,0.138531 0.141465,-0.003 0.263671,-0.06082 0.358524,-0.166409 0.159029,-0.179027 0.174189,-0.460839 0.03182,-0.654241 -0.07018,-0.09825 -0.17047,-0.159385 -0.284938,-0.190737 -0.04425,-0.0044 -0.08474,-0.003 -0.126576,-0.003 z m 0.907442,0 c -0.126235,-6.59e-4 -0.24476,0.03806 -0.316678,0.118297 0.02651,0.04716 0.05538,0.101041 0.08437,0.158942 0.191742,-0.138537 0.359196,-0.140184 0.485453,0 0.117802,0.133571 0.124915,0.332784 0.01031,0.464323 -0.126578,0.143235 -0.297747,0.144728 -0.495922,0.003 -0.02831,0.05637 -0.05676,0.102812 -0.08437,0.158644 0.208971,0.177986 0.549936,0.156435 0.728181,-0.05604 0.183325,-0.214491 0.157996,-0.55363 -0.05301,-0.738589 -0.09425,-0.08052 -0.232234,-0.117907 -0.358524,-0.118249 z m 1.192035,0 c -0.291998,1.57e-4 -0.517524,0.222947 -0.516852,0.517248 0,0.293503 0.234329,0.507254 0.527322,0.506302 0.294392,-9.66e-4 0.517522,-0.222388 0.516848,-0.517262 0,-0.29263 -0.234602,-0.506503 -0.527318,-0.506288 z m -4.5257428,0.169515 c 0.1826026,1.82e-4 0.3379381,0.160423 0.3375968,0.348366 0,0.183353 -0.1546479,0.337321 -0.3375968,0.337321 -0.1829645,-1.29e-4 -0.3379395,-0.153223 -0.3375978,-0.337321 0,-0.184092 0.1549169,-0.348498 0.3375978,-0.348366 z m 1.2024999,0 c 0.182964,9.65e-4 0.3382806,0.160161 0.3375965,0.348366 -10e-4,0.184431 -0.1546478,0.339332 -0.3375965,0.337321 -0.1839772,-9.66e-4 -0.3386226,-0.15963 -0.3375973,-0.348136 6.742e-4,-0.184479 0.1542747,-0.338603 0.3375973,-0.337551 z m 1.2132999,0 c 0.183331,9.65e-4 0.328816,0.160161 0.327135,0.348366 -0.0017,0.1859 -0.154276,0.339202 -0.337594,0.337321 -0.1836305,-9.66e-4 -0.3389313,-0.160349 -0.3375978,-0.348136 0.00185,-0.184479 0.1654273,-0.339385 0.3480558,-0.337551 z m 2.120413,0 c 0.182329,4.86e-4 0.327784,0.160423 0.327135,0.348366 -6.83e-4,0.183742 -0.154914,0.339073 -0.337599,0.337321 -0.183977,-9.66e-4 -0.327785,-0.16067 -0.327132,-0.348136 0.0015,-0.184479 0.154274,-0.337888 0.337596,-0.337551 z m -2.225741,1.761906 c -0.7146796,-0.0074 -1.3172779,0.453448 -1.456029,1.149951 -0.040855,0.20352 -0.035797,0.4078 0.02139,0.61175 0.00201,-0.005 0.00804,-0.007 0.010228,-0.0406 0.046624,-0.36728 0.2397205,-0.63433 0.5803172,-0.770003 0.3385866,-0.137825 0.6501999,-0.0599 0.9175728,0.179393 0.271777,0.24195 0.337597,0.56207 0.242725,0.90734 -0.153921,0.55927 -0.8122451,0.79735 -1.2977009,0.46415 -0.1381074,-0.0982 -0.2086496,-0.22399 -0.2001733,-0.40112 0.00794,-0.15898 0.1363478,-0.29904 0.2845873,-0.30523 0.1526031,-0.002 0.2859578,0.10016 0.3061829,0.25474 0.013833,0.10119 -0.01231,0.20007 -0.095219,0.27506 0.080715,0.008 0.1573064,0.006 0.2322349,0 0.2349625,-0.0599 0.4027474,-0.28539 0.4007215,-0.53783 -0.00199,-0.25445 -0.1839595,-0.48552 -0.4324378,-0.53816 -0.6059756,-0.12651 -0.9246635,0.42302 -0.8335129,0.82262 0.055398,0.24234 0.1961222,0.42783 0.401057,0.55941 0.2953838,0.18769 0.6262326,0.24502 0.9705713,0.22085 0.805493,-0.0601 1.402693,-0.8031 1.2977,-1.60369 -0.09087,-0.691068 -0.665756,-1.220692 -1.350388,-1.244675 z m -2.5953974,3.396541 c -0.2015391,0 -0.5063841,0.41191 -0.5063841,0.41191 l 6.1292915,0 c 0,0 -0.305184,-0.41191 -0.506379,-0.41191 l -5.1165284,0 z"
         inkscape:connector-curvature="0" /><path
         id="path3060"
         d="m 9.9797034,88.813233 c 2.6072166,0 5.8993976,0.119485 7.1370056,1.778349 -0.05258,1.896467 -0.473973,4.784407 -0.526978,5.047885 -0.04275,0.100176 -0.210659,0 -0.210659,0 0,0 -1.474602,-0.948514 -6.3997099,-0.948514 -4.9247691,0 -6.3993658,0.948514 -6.3993658,0.948514 0,0 -0.1681593,0.100176 -0.2106572,0 -0.052638,-0.262656 -0.4739878,-3.151418 -0.5269874,-5.047885 1.2386209,-1.659096 4.5301314,-1.778349 7.1373437,-1.778349 z"
         style="fill:url(#linearGradient14621)"
         inkscape:connector-curvature="0" /><path
         id="path3296"
         d="m 8.8333198,88.849629 -1.4980593,0.07899 0,5.850367 1.5191584,-0.101714 z m 1.1393688,6.257712 c -1.74565,-1.33e-4 -2.5959021,0.06304 -3.0594145,0.124512 0,0 2.1831322,0.124269 3.0699835,0.124269 0.8327994,0 3.0488534,-0.124269 3.0488534,-0.124269 -0.463517,-0.06001 -1.313776,-0.124512 -3.0594224,-0.124512 z m -3.238778,0.09797 c -1.3108651,0.08241 -2.9235347,0.550713 -3.4181051,0.812397 l 0,0.970489 c 1.2200513,-0.556198 3.4495026,-0.833799 3.4495026,-0.833799 z m 6.4668914,0 -0.02139,0.94952 c 0,0 2.21885,0.277871 3.439368,0.833546 l 0,-0.970476 C 16.124297,95.75618 14.511294,95.290684 13.200767,95.204975 Z"
         inkscape:connector-curvature="0"
         style="fill:#a0a0a0" /></g><ellipse
       ry="27.880661"
       rx="27.988327"
       cy="61.005856"
       cx="31.515882"
       id="path5966"
       style="fill:#e8e800;fill-opacity:0.63461537" /></g></svg>