<?xml version="1.0" encoding="UTF-8" standalone="no"?>
<!-- Generator: Adobe Illustrator 18.0.0, SVG Export Plug-In . SVG Version: 6.00 Build 0) -->
<!DOCTYPE svg PUBLIC '-//W3C//DTD SVG 1.1//EN' 'http://www.w3.org/Graphics/SVG/1.1/DTD/svg11.dtd'>
<svg id="Layer_1" xmlns="http://www.w3.org/2000/svg" xml:space="preserve" version="1.1" xmlns:xlink="http://www.w3.org/1999/xlink" x="0px" y="0px" width="200px" height="200px" enable-background="new 0 0 200 200">
<g id="Layer_1_1_" display="none">
		<image xlink:href="87777392BD4773FE.jpeg" transform="matrix(.5044 0 0 .5044 -25.937 -18.78)" height="500" width="500" overflow="visible" enable-background="new " display="inline">
	</image>
</g>
	<ellipse opacity=".1" rx="91.2" ry="91.2" cy="92.6" cx="99.4" enable-background="new "/>
					<linearGradient id="SVGID_1_" y2="-6.8232" gradientUnits="userSpaceOnUse" x2="100.37" gradientTransform="matrix(1 0 0 -1 0 200)" y1="189.6" x1="100.37">
					<stop stop-color="#8FC4F7" offset="0"/>
					<stop stop-color="#B5A3F5" offset="1"/>
				</linearGradient>
				<path stroke="#10659E" stroke-width="2" stroke-miterlimit="10" d="m173.3 126.4c5.5-10.8 8.8-22.9 8.8-35.6 0-46.6-36.6-84.4-81.7-84.4s-81.8 37.9-81.8 84.5c0 10 2 19.5 5.6 28.4-0.4-0.1-0.7-0.1-1.1-0.1 0.7 2.8 2.6 5.5 4.9 8.2 1.7 3.2 3.5 6.2 5.6 9.2-0.9-0.1-2-0.1-2.9-0.2 1.8 5.3 9.6 10.1 13.8 13.3-2-0.4-4-0.4-6-1.2 4.3 3.9 10 7.8 15.8 9.7 0.3 0.2 0.5 0.4 0.8 0.6-1.5 0.3-3.1 0.7-4.8 0.5 5.1 2.2 10.6 4.5 15.7 6.5 4.6 2.5 13.9 6.1 13.9 6.1s13.7 16.2 17.5 20.6l-1.4-5s2.3 1.9 3.9 2.7c-0.4-2.7-1.8-5.5-1.8-5.5s5.9-8.5 14-10.5c4.3-0.8 8.7-2.1 12.9-3.7 8.9-2.3 18.6-6.3 25.6-11.8-1.3 0.2-2.8-0.1-4.1 0.1 6.2-5.8 13.7-9.3 18.9-16.4-0.8 0.3-1.9 0.4-2.8 0.5 0.1-0.2 0.3-0.3 0.4-0.5 5.5-3.2 12.9-10.8 15.8-15.8-1.9 0-3.8 0-5.5-0.2z" fill="url(#SVGID_1_)"/>
					<path d="m79.3 171.1s0.3 0.1 0.7 0.3c0.5 0.2 1.1 0.4 1.9 0.6 0.4 0.1 0.8 0.2 1.3 0.4 0.5 0.1 0.9 0.3 1.5 0.4 0.5 0.1 1 0.3 1.6 0.4 0.5 0.1 1.1 0.2 1.6 0.4 0.5 0.1 1.1 0.2 1.6 0.4 0.5 0.1 1.1 0.2 1.6 0.3l1.5 0.3c0.5 0.1 0.9 0.1 1.3 0.2 1.7 0.2 2.8 0.4 2.8 0.4s-1.1-0.1-2.8-0.3c-0.4 0-0.9-0.1-1.4-0.2s-1-0.1-1.5-0.2-1.1-0.1-1.6-0.2-1.1-0.2-1.7-0.3-1.1-0.2-1.7-0.3c-0.5-0.1-1.1-0.2-1.6-0.3l-1.5-0.3c-0.5-0.1-0.9-0.2-1.3-0.3-0.8-0.2-1.5-0.4-2-0.5s-0.7-0.2-0.7-0.2l0.4-1z" fill="#10659E"/>
				<linearGradient id="SVGID_2_" y2="214.54" gradientUnits="userSpaceOnUse" x2="99.701" gradientTransform="matrix(1 0 0 -1 0 200)" y1="169.45" x1="99.701">
				<stop stop-color="#93C8F7" offset="0"/>
				<stop stop-color="#C3BCF4" offset="1"/>
			</linearGradient>
			<path d="m100.4 7.2c-27.3 0-51.4 13.9-66.2 35.2 2 7.8 6.9 16.1 18.5 16.5 22.2 0.8 30.9-19.7 48.8-19.5s38.2 21.6 50.7 16.5c4.6-1.8 9.6-8 13-15.4-14.8-20.2-38.4-33.3-64.8-33.3z" fill="url(#SVGID_2_)"/>
					<path d="m104.6 127.7v-0.2c0-0.1-0.1-0.1-0.2-0.1s-0.2 0.1-0.3 0.1c-0.2 0.1-0.4 0.2-0.6 0.4l-1.2 0.9c-0.8 0.6-1.5 1.3-2.3 1.9l-2.3 1.9c-0.8 0.6-1.5 1.3-2.4 1.9l-0.1-0.6 1.2 0.1h2.4l1.2-0.1 1.2-0.2 1.2-0.3 1.2-0.3 1.2-0.4 1.8-0.6-1.4 1.3-0.9 0.8-0.8 0.8-0.5 1-0.8 0.8-0.7 0.9-0.6 0.9-0.6 1-0.5 1-0.5-0.6 0.8-0.2 0.8-0.1h1.6c0.5 0 1.1 0 1.6 0.1h2.3l-0.4 0.6-1.1 1.6-1.1 1.6-2.3 3.1-1.2 1.6-1.1 1.6c-0.4 0.5-0.7 1.1-1.1 1.6l-1 1.7 0.4-0.9c0.1-0.3 0.3-0.6 0.4-0.9 0.3-0.6 0.6-1.1 1-1.7l1-1.7 1.1-1.6 2.2-3.2 1.1-1.6 1-1.6 0.3 0.6h-4c-0.3 0-0.5 0-0.8 0.1l-0.7 0.1-0.7 0.2-0.9 0.2 0.4-0.8 0.5-1.1c0.2-0.3 0.4-0.7 0.6-1s0.4-0.6 0.7-1l0.7-0.9 0.8-0.9 0.8-0.8 0.9-0.8 0.9-0.8 0.4 0.7-1.2 0.4-1.3 0.3-1.3 0.2-1.3 0.2-1.3 0.1h-1.3l-1.3-0.1-1.3-0.2-0.8-0.1 0.7-0.5c0.8-0.5 1.6-1.2 2.4-1.8l2.4-1.8 2.4-1.8c0.4-0.3 0.8-0.6 1.3-0.8 0.2-0.1 0.4-0.2 0.7-0.3 0.1 0 0.2-0.1 0.4-0.1 0.1 0 0.1 0 0.2 0.1v0.1z" fill="#10659E"/>
					<path d="m100.7 154.5c0.1-0.1 0.3-0.2 0.5-0.2h0.3c0.1 0 0.2 0.2 0.2 0.3 0 0.2 0 0.4-0.1 0.5 0 0.2-0.1 0.3-0.2 0.5-0.3 0.6-0.6 1.2-0.9 1.7-0.3 0.6-0.7 1.1-1.1 1.6s-0.7 1.1-1.1 1.6l-0.6-0.5 0.4-0.3 0.2-0.2 0.2-0.2 0.9-0.6 0.9-0.5 0.8-0.6 1-0.7-0.3 1.2c-0.2 0.8-0.4 1.5-0.6 2.3s-0.4 1.5-0.5 2.3c-0.1 0.4-0.1 0.8-0.2 1.2l-0.1 0.6c0 0.2-0.1 0.4-0.1 0.6l-0.3 2.4c0-0.8-0.1-1.6-0.1-2.4v-1.2c0-0.4 0.1-0.8 0.1-1.2 0.1-0.8 0.3-1.6 0.4-2.4l0.6-2.4 0.7 0.4-0.9 0.7-0.9 0.5-0.9 0.5c-0.1 0-0.1 0.1-0.2 0.1l-0.2 0.1-0.4 0.3-2.3 1.6 1.7-2.1 1.2-1.5 1.2-1.5c0.4-0.5 0.8-1 1.1-1.6 0.1-0.1 0.2-0.3 0.2-0.4 0.1-0.1 0.1-0.3 0.1-0.4s-0.1-0.2-0.3-0.2c-0.1 0-0.3 0.1-0.4 0.1z" fill="#10659E"/>
				<path d="m92.5 20.8l-3.1-0.4-3.2-0.4-3.2-0.3-3.2-0.2-3.2-0.1h-3.2c-0.5 0-1 0.1-1.6 0.1l-1.6 0.1c-0.5 0.1-1 0.2-1.6 0.2l-1.6 0.2v-0.9l1.2 0.2 1.2 0.3 1.1 0.3c0.2 0.1 0.4 0.1 0.6 0.1l0.5 0.1 1.2 0.3-0.8 0.8c-0.8 0.4-1.7 0.8-2.5 1.2l-2.6 1-2.6 0.9-2.7 0.8-2.7 0.9-2.6 0.9-2.6 1-2.5 1.1-0.3-0.8 0.9-0.1h5.9l1.6-0.1-1.3 0.9-3.9 2.7-0.9 0.7-0.9 0.7-0.9 0.8-0.9 0.8-0.8 0.9c-0.3 0.3-0.5 0.6-0.8 0.9-0.2 0.3-0.5 0.6-0.7 1-0.2 0.3-0.4 0.7-0.6 1-0.2 0.4-0.4 0.7-0.5 1.1s-0.3 0.7-0.4 1.1-0.2 0.8-0.3 1.1l-0.1 0.6-0.1 0.3c0 0.1 0 0.2 0.4 0.4l-0.9-0.1c0.4 0 0.5-0.1 0.5-0.2l0.1-0.3 0.1-0.6c0.1-0.4 0.2-0.8 0.3-1.1 0.1-0.4 0.3-0.7 0.4-1.1 0.2-0.4 0.3-0.7 0.5-1.1 0.2-0.3 0.4-0.7 0.6-1s0.4-0.7 0.7-1c0.2-0.3 0.5-0.6 0.7-0.9l0.8-0.9 0.8-0.9 0.9-0.8 0.9-0.8 0.9-0.8 1.8-1.5 1.8-1.5 0.3 0.8h-5.9l-0.8-0.2-2.9 0.4 2.6-1.2 2.6-1.2 2.6-1 2.7-0.9 2.7-0.8 2.6-0.8 2.6-0.9 2.6-1 2.5-1.2 0.1 0.8-0.6-0.1c-0.2 0-0.4-0.1-0.6-0.1l-1.1-0.3-1.1-0.3-1.1-0.2-2.7-0.5 2.7-0.3 1.6-0.2c0.5-0.1 1.1-0.1 1.6-0.2l1.6-0.1c0.5 0 1.1-0.1 1.6-0.1h3.2l3.2 0.2 3.2 0.3 3.2 0.4 3.1 0.5 2.9 0.6z" fill="#10659E"/>
				<linearGradient id="SVGID_3_" y2="157.11" gradientUnits="userSpaceOnUse" x2="107.99" gradientTransform="matrix(1 0 0 -1 0 200)" y1="198.86" x1="107.99">
				<stop stop-color="#BFE4F7" offset="0"/>
				<stop stop-color="#BFE4F7" stop-opacity="0" offset="1"/>
			</linearGradient>
			<path opacity=".6" enable-background="new " d="m98.6 30.8c-3.9-2.6-8.1-7.3-13-6.9 1.2 0.5 2.6 1.5 3.7 2.1-3.6-0.1-7.6-1.1-10.8 0.5 0.3 0.2 1.1 0.4 1.4 0.7-5.7 0.8-13.8 1.7-18.4 5.2 0.8 0.2 2.4 1.3 3.5 1.5-4 2.9-13.8 10-6.8 14.5 6.9 4.4 26.3-7.6 33.1-9.4 13-3.4 28.5-3.6 40.8 2.6 3.9 2 7 6.2 11.2 7.4 8 2.5 13.7-4.2 17.3-10.5-0.7 1.2-1.6 1.8-2.4 2.7-1-3.9-3.1-7.4-5.8-10.3-0.1 0.6 0.1 1.3 0 1.9-3-2.7-4.5-8.5-8.8-8.8 1 8.9-13 0.1-18.8-0.5 1 0.8 1.9 2.1 2.8 2.8-3.5-1-7.2-1.9-10.9-1.9-0.2 2.9-0.5 1.8-2.7 2.7-0.7 0.3-4.6 1.5-5.2 1.7-2.7 0.8-5.5 1.9-8.3 2.5l-1.9-0.5z" fill="url(#SVGID_3_)"/>
				<path d="m107.7 23.8l0.5-0.8 0.5-0.7c0.2-0.2 0.4-0.5 0.6-0.7s0.4-0.4 0.6-0.7c0.4-0.4 0.9-0.8 1.3-1.2 0.5-0.4 0.9-0.8 1.4-1.1l0.7-0.5 0.8-0.5c0.5-0.3 1-0.6 1.6-0.9 0.5-0.3 1.1-0.6 1.6-0.8 0.5-0.3 1.1-0.5 1.7-0.8l1.4-0.6-0.9 1.2-0.3 0.4-0.2 0.4c-0.1 0.3-0.3 0.6-0.4 0.9l-0.4 0.9c-0.1 0.2-0.2 0.3-0.2 0.5-0.1 0.2-0.2 0.3-0.3 0.5l-0.5-0.7 2.1-0.7 2.2-0.6 2.2-0.5 2.2-0.4 1.3-0.3-0.9 1-0.8 0.9-0.9 0.9-0.4-0.7c0.4 0 0.8-0.1 1.3-0.2 0.4 0 0.8-0.1 1.3-0.1h2.6c0.4 0 0.8 0 1.3 0.1 0.4 0 0.8 0.1 1.2 0.1l1.2 0.2 1.2 0.2 1.2 0.3 1.2 0.3c0.4 0.1 0.8 0.2 1.2 0.4 0.4 0.1 0.8 0.3 1.2 0.4s0.8 0.3 1.2 0.5 0.8 0.3 1.1 0.5c0.4 0.2 0.7 0.4 1.1 0.6s0.7 0.4 1.1 0.7c-0.4-0.2-0.7-0.4-1.1-0.6s-0.7-0.4-1.1-0.5c-0.4-0.2-0.8-0.3-1.1-0.5-0.4-0.1-0.8-0.3-1.2-0.4l-1.2-0.3-1.2-0.3-1.2-0.3-1.5-0.3-1.2-0.2-1.2-0.1c-0.4 0-0.8 0-1.2-0.1h-2.4c-0.4 0-0.8 0.1-1.2 0.1s-0.8 0.1-1.2 0.1c-0.4 0.1-0.8 0.1-1.2 0.2l-1.2 0.2 0.8-0.9 0.8-0.9 0.9-0.9 0.4 0.7-2.2 0.4-2.1 0.5-2.1 0.6-2.1 0.7-1.1 0.3 0.6-1c0.1-0.1 0.2-0.3 0.2-0.4 0.1-0.1 0.1-0.3 0.2-0.4l0.4-0.9c0.1-0.3 0.3-0.6 0.5-0.9l0.3-0.5 0.3-0.5 0.5 0.7c-0.6 0.2-1.1 0.4-1.7 0.6-0.5 0.2-1.1 0.5-1.6 0.7-0.5 0.3-1.1 0.5-1.6 0.8l-0.8 0.4-0.8 0.5c-0.5 0.3-1 0.7-1.5 1-0.5 0.4-0.9 0.7-1.4 1.1l-0.6 0.6c-0.2 0.2-0.4 0.4-0.6 0.7l-0.6 0.7-0.6 0.9z" fill="#10659E"/>
			<path opacity=".3" enable-background="new " d="m94.4 187.9c-8.2-12.8 1.3-12.8 1.3-12.8-5.8-0.5-11.4-2-15.3-3.3 1.5 1.8 9.2 10.8 14 16.5v-0.4z" fill="#10659E"/>
			<path opacity=".3" enable-background="new " d="m103.1 45.4c-8.3 0-22.9 6.4-25.7 9.1-2.8 2.6-4.3 4.9-4.3 4.9l-1.1-2.5-3.4 3.7s-1.6 2.5-2.2 1.9c-0.5-0.5-2.4 2.7-2.4 2.7l-2.8-2.2s-1.6 3.1-1.4 5.6c0.1 2.5-2.5-1.2-2.5-1.2s-2.1 11-0.9 13.6c1.2 2.6 2 12.2 14.9 19.7-1.1 1.1-3.6 0-3.6 0s7.2 7.1 9.5 8.7c-2.2 0.4-3 0-3 0s7.3 11 27.9 11 28.7-12.3 29.2-13.1c-1.9-0.3-2.3-0.7-2.3-0.7l2.3-2.6s11.4-0.6 18.7-18.1c1.7-8.5 0-12.5 0-12.5l-1.9 1.7s-1-8.2-7.2-11.4c-0.4 0.9-1 2.2-1 2.2s-5.6-6.4-7.5-7l0.4 1.6s-11.5-15.1-29.7-15.1z" fill="#10659E"/>
				<linearGradient id="SVGID_4_" y2="-7.0726" gradientUnits="userSpaceOnUse" x2="103.53" gradientTransform="matrix(1 0 0 -1 0 200)" y1="189.35" x1="103.53">
				<stop stop-color="#8FC4F7" offset="0"/>
				<stop stop-color="#B5A3F5" offset="1"/>
			</linearGradient>
			<path stroke="#10659E" stroke-width="2" stroke-miterlimit="10" d="m72.2 62.6s11.7-15.2 30.8-15.2 28.7 13.7 31.3 18.6c1 1.7 2.9 3.3 2.9 3.3s-1.2-5.1-1.9-6.2c3.6 2.6 5.6 7 6.1 9.8 0.6-1.9 1-6 0.7-6.2s5.6 5.2 4 14.5c1.4-0.2 1.9-1.7 1.9-1.7s0.1 4.8-2 8.4c1.3 0.5 3-0.9 3-0.9s-11.4 14.3-18.8 15.1c-2.3 3.8-3.9 5.3-5.6 7s1.1 0.5 1.1 0.5-7.9 7.9-22.6 7.9-19.7-4-22.3-5.8 4 0.4 4.4 0.4-6.6-2.9-9.5-6.5c2.8 0.9 3.5 0.9 3.5 0.9s-5.7-6.4-6.6-9.1c-3.4-0.1-10.6-2.5-14.1-17.4-1.1-5.1 0-9.1 0-9.1l2.2 4.8s-0.5-6.7 1.2-9c0.5 0.6 0.9 2.2 0.9 2.2s1.2-1.6 3.2-1.4c-1-1.9 0.5-3.2 0.5-3.2l2.2 0.4c1.1-2.8 1.7-2.8 2.5-3.7-0.1 1.6 1 1.6 1 1.6z" fill="url(#SVGID_4_)"/>
			<g opacity=".7" fill="#8432CC">
				<ellipse cy="111.5" cx="98.9" rx="3.8" ry="3.9"/>
					<ellipse cy="102.1" cx="82.7" rx="3.3" ry="3.7" transform="matrix(.7208 -.6932 .6932 .7208 -47.67 85.796)"/>
					<ellipse cy="92.4" cx="78" rx="1.3" ry="1.5" transform="matrix(.7208 -.6932 .6932 .7208 -42.271 79.895)"/>
					<ellipse cy="97.8" cx="76.1" rx=".7" ry=".8" transform="matrix(.7208 -.6931 .6931 .7208 -46.568 80.076)"/>
					<ellipse cy="98.6" cx="88" rx=".7" ry=".8" transform="matrix(.7208 -.6931 .6931 .7208 -43.739 88.54)"/>
					<ellipse cy="109.3" cx="89" rx="1.7" ry="1.6" transform="matrix(.7208 -.6932 .6932 .7208 -50.897 92.227)"/>
					<ellipse cy="112.7" cx="110.5" rx="1.7" ry="1.6" transform="matrix(.7208 -.6932 .6932 .7208 -47.239 108.08)"/>
					<ellipse cy="103" cx="91.3" rx="1.7" ry="1.6" transform="matrix(.7207 -.6932 .6932 .7207 -45.889 92.033)"/>
			</g>
				<path opacity=".3" enable-background="new " d="m118.7 53.9c-3.1-0.6-5.3-0.6-6.9-0.1 1-1.2 2.1-2.8 2.9-4.2-3.4-1.2-7.2-1.9-11.6-1.9-4.1 0-7.9 0.7-11.3 1.9 0.7 1.4 1.8 2.9 2.8 4.2-1.6-0.4-3.8-0.4-6.7 0.2-9.6 2-10.6 9.5-9.6 10.3 4.4 3.3 23.4-2.5 21.8-5.1-0.5-0.8-0.9-1.7-1.6-2.7 1.1-0.5 2.9-1.3 4.6-1.3s3.8 0.7 5.1 1.2c-0.7 1-1.2 2-1.7 2.8-1.7 2.6 17.3 8.5 21.8 5.1 0.9-0.9 0-8.4-9.6-10.4z" fill="#10659E"/>
					<path d="m94.2 56.9l-0.1-0.1c0-0.1-0.1-0.2-0.2-0.3s-0.2-0.3-0.4-0.4c-0.1-0.2-0.3-0.3-0.5-0.5-0.2-0.1-0.5-0.3-0.7-0.5-0.3-0.2-0.6-0.3-0.9-0.4-0.2-0.1-0.3-0.1-0.5-0.2s-0.3-0.1-0.5-0.1c-0.4-0.1-0.7-0.2-1.1-0.2h-2.2c-0.3 0-0.7 0.1-1 0.1-0.3 0.1-0.6 0.1-0.9 0.2-0.3 0-0.5 0.1-0.7 0.2s-0.4 0.1-0.6 0.2c-0.3 0.1-0.5 0.1-0.5 0.1s0.2-0.1 0.5-0.2c0.2-0.1 0.3-0.1 0.6-0.2 0.2-0.1 0.5-0.2 0.7-0.2 0.3-0.1 0.6-0.2 0.9-0.2 0.3-0.1 0.7-0.1 1-0.2 0.2 0 0.4-0.1 0.5-0.1h1.8c0.4 0 0.8 0.1 1.2 0.1 0.2 0 0.4 0.1 0.6 0.1s0.4 0.1 0.5 0.1c0.3 0.1 0.7 0.2 1 0.4 0.3 0.1 0.6 0.3 0.8 0.5s0.5 0.3 0.7 0.5 0.3 0.3 0.5 0.4l0.3 0.3 0.1 0.1-0.9 0.5z" fill="#10659E"/>
					<radialGradient id="SVGID_5_" gradientUnits="userSpaceOnUse" cy="162.9" cx="107.1" gradientTransform="matrix(1.0174 -.2155 -.2155 -1.0176 14.52 247.67)" r="5.3511">
					<stop stop-color="#FCDFA9" offset=".6178"/>
					<stop stop-color="#F9B233" offset="1"/>
				</radialGradient>
				<path stroke="#E07F00" stroke-miterlimit="10" d="m95.2 57.4c0.4 2-2.3 4.3-6 5.1s-7.1-0.2-7.5-2.2 2.3-4.3 6-5.1c3.6-0.8 7 0.2 7.5 2.2z" fill="url(#SVGID_5_)"/>
				<circle cy="56.9" cx="89.4" r="1.9" fill="#1D1D1B"/>
					<linearGradient id="SVGID_6_" y2="136.96" gradientUnits="userSpaceOnUse" x2="100.27" gradientTransform="matrix(1 0 0 -1 0 200)" y1="136.96" x1="79.16">
					<stop stop-color="#8470CC" offset="0"/>
					<stop stop-color="#8432CC" offset="1"/>
				</linearGradient>
				<path stroke="#440389" stroke-width="2" stroke-miterlimit="10" d="m99.6 63.1s1.4-2.9 0-4.3-17.4 5.9-20.5 5.8c1.7 1.9 2.6 3.3 5.8 2.7s11.6-5.7 14.7-4.2z" fill="url(#SVGID_6_)"/>
					<path d="m99.2 62.6h-0.8c-0.2 0-0.5 0-0.9 0.1-0.3 0-0.7 0.1-1.1 0.2s-0.9 0.2-1.3 0.3c-0.5 0.1-0.9 0.2-1.4 0.4s-1 0.3-1.5 0.5l-1.5 0.6c-1 0.4-2.1 0.9-3 1.3-0.5 0.2-1 0.4-1.4 0.6-0.5 0.2-0.9 0.3-1.3 0.4s-0.8 0.2-1.2 0.2-0.7 0-0.9-0.1c-0.3-0.1-0.4-0.2-0.5-0.2-0.1-0.1-0.2-0.1-0.2-0.1s0.1 0 0.2 0.1c0.1 0 0.3 0.1 0.5 0.1 0.5 0 1.1-0.1 1.9-0.4 0.4-0.1 0.8-0.3 1.2-0.5s0.9-0.4 1.4-0.7c0.9-0.5 2-1 3-1.4 0.5-0.2 1.1-0.4 1.6-0.6s1.1-0.4 1.6-0.5l1.5-0.3c0.5-0.1 1-0.1 1.4-0.1h1.2c0.3 0 0.7 0.1 0.9 0.1s0.4 0.1 0.6 0.1c-0.1-0.1 0-0.1 0-0.1z" fill="#AB6AEF"/>
					<path d="m111.6 56.5l0.1-0.1 0.3-0.3c0.1-0.1 0.3-0.3 0.5-0.4 0.2-0.2 0.4-0.3 0.7-0.5s0.5-0.3 0.8-0.5 0.6-0.3 1-0.4c0.2-0.1 0.4-0.1 0.5-0.1 0.2 0 0.4-0.1 0.6-0.1 0.4 0 0.8-0.1 1.1-0.1h1.8c0.2 0 0.4 0.1 0.5 0.1 0.4 0.1 0.7 0.1 1 0.2s0.6 0.2 0.9 0.2c0.3 0.1 0.5 0.2 0.7 0.2 0.2 0.1 0.4 0.1 0.6 0.2 0.3 0.1 0.5 0.2 0.5 0.2s-0.2-0.1-0.5-0.1c-0.2 0-0.4-0.1-0.6-0.2s-0.5-0.1-0.7-0.2c-0.3-0.1-0.6-0.1-0.9-0.2s-0.7-0.1-1-0.1h-2.2c-0.4 0-0.7 0.1-1.1 0.2-0.2 0-0.3 0.1-0.5 0.1-0.2 0.1-0.3 0.1-0.5 0.2-0.3 0.1-0.6 0.2-0.9 0.4-0.3 0.1-0.5 0.3-0.7 0.5s-0.4 0.3-0.5 0.5c-0.2 0.1-0.3 0.3-0.4 0.4s-0.2 0.2-0.2 0.3-0.1 0.1-0.1 0.1l-0.8-0.5z" fill="#10659E"/>
					<radialGradient id="SVGID_7_" gradientUnits="userSpaceOnUse" cy="88.358" cx="459.05" gradientTransform="matrix(-1.0174 -.2155 .2155 -1.0176 566.18 247.67)" r="5.3513">
					<stop stop-color="#FCDFA9" offset=".6178"/>
					<stop stop-color="#F9B233" offset="1"/>
				</radialGradient>
				<path stroke="#E07F00" stroke-miterlimit="10" d="m111.4 57.4c-0.4 2 2.3 4.3 6 5.1s7.1-0.2 7.5-2.2-2.3-4.3-6-5.1-7.1 0.2-7.5 2.2z" fill="url(#SVGID_7_)"/>
				<circle cy="56.9" cx="117.2" r="1.9" fill="#1D1D1B"/>
					<linearGradient id="SVGID_8_" y2="136.96" gradientUnits="userSpaceOnUse" x2="452.73" gradientTransform="matrix(-1 0 0 -1 559.02 200)" y1="136.96" x1="431.62">
					<stop stop-color="#8470CC" offset="0"/>
					<stop stop-color="#8432CC" offset="1"/>
				</linearGradient>
				<path stroke="#440389" stroke-width="2" stroke-miterlimit="10" d="m106.9 63.1s-1.4-2.9 0-4.3 17.4 5.9 20.5 5.8c-1.7 1.9-2.6 3.3-5.8 2.7-3.1-0.6-11.5-5.7-14.7-4.2z" fill="url(#SVGID_8_)"/>
					<path d="m107.3 62.6s0.1 0 0.2-0.1c0.1 0 0.3-0.1 0.6-0.1 0.2 0 0.5-0.1 0.9-0.1h1.2c0.4 0 0.9 0 1.4 0.1l1.5 0.3c0.5 0.1 1.1 0.3 1.6 0.5s1.1 0.4 1.6 0.6c1 0.4 2.1 0.9 3 1.4 0.5 0.2 0.9 0.4 1.4 0.7 0.4 0.2 0.8 0.4 1.2 0.5 0.8 0.3 1.4 0.5 1.9 0.4 0.2 0 0.4-0.1 0.5-0.1s0.2-0.1 0.2-0.1-0.1 0-0.2 0.1c-0.1 0.1-0.3 0.2-0.5 0.2-0.2 0.1-0.6 0.1-0.9 0.1-0.4 0-0.8-0.1-1.2-0.2s-0.9-0.2-1.3-0.4c-0.5-0.2-0.9-0.3-1.4-0.6-1-0.4-2-0.9-3-1.3l-1.5-0.6c-0.5-0.2-1-0.4-1.5-0.5-0.5-0.2-1-0.3-1.4-0.4-0.5-0.1-0.9-0.2-1.3-0.3s-0.8-0.1-1.1-0.2c-0.3 0-0.6-0.1-0.9-0.1h-0.6c-0.3 0.2-0.4 0.2-0.4 0.2z" fill="#AB6AEF"/>
				<path opacity=".3" enable-background="new " d="m95.3 87.7c-1.5-4.9-2.6-9.6-2-14.8 1 3.2 2.8 5.5 5 7.7-1.2-4.6-2.6-11.2 1.3-14.6-0.2 1.9 0.9 4.6 1 6.5 0.7-3 1.9-5.8 3.6-8.3-0.1 2.7 1.4 7.2 2.9 9.2 0.6-0.7 1.7-0.3 2.1-0.9l-13.9 15.2z" fill="#10659E"/>
						<linearGradient id="SVGID_9_" y2="12.623" gradientUnits="userSpaceOnUse" x2="101.07" gradientTransform="matrix(1 0 0 -1 0 200)" y1="193.89" x1="101.07">
						<stop stop-color="#8FC4F7" offset="0"/>
						<stop stop-color="#B5A3F5" offset="1"/>
					</linearGradient>
					<path d="m95 90.3c-1.5-4.9-2.6-9.7-2-14.8 1 3.2 2.8 5.5 5 7.7-1.3-4.7-2.7-11.3 1.3-14.7-0.2 1.9 0.9 4.6 1 6.5 0.7-3 1.9-5.8 3.6-8.3-0.1 2.7 1.6 5.7 3.2 7.8 0.6-0.7 1.7-1.4 2.2-2" fill="url(#SVGID_9_)"/>
					<path d="m95 90.3l-0.6-1.8-0.5-1.8-0.5-1.8-0.4-1.9c-0.1-0.6-0.2-1.2-0.3-1.9l-0.2-1.9v-1.9l0.1-1.9 0.1-1.6 0.6 1.5 0.4 1.1c0.1 0.2 0.2 0.3 0.2 0.5l0.2 0.5c0.1 0.2 0.2 0.3 0.3 0.5l0.3 0.5c0.1 0.2 0.2 0.3 0.3 0.5l0.3 0.5c0.2 0.3 0.4 0.6 0.7 0.9l0.7 0.9 0.8 0.8 0.8 0.8-0.8 0.4c-0.2-0.6-0.3-1.3-0.5-1.9s-0.3-1.3-0.4-1.9l-0.2-1-0.1-1c0-0.3-0.1-0.7-0.1-1v-2c0-0.3 0.1-0.7 0.1-1s0.1-0.7 0.2-1 0.2-0.7 0.3-1 0.3-0.6 0.4-1c0.1-0.3 0.3-0.6 0.5-0.9s0.4-0.6 0.6-0.8l0.7-0.7 0.8-0.8v2.8c0 0.3 0.1 0.5 0.1 0.8l0.2 0.8c0.1 0.5 0.2 1.1 0.4 1.6 0.1 0.3 0.1 0.6 0.1 0.8v0.8l-0.8-0.1 0.6-2.2 0.9-2.1c0.3-0.7 0.7-1.4 1-2.1l1.2-2 0.5-0.8v2l0.1 0.5c0 0.2 0.1 0.3 0.1 0.5l0.3 1 0.4 1 0.4 1c0.2 0.3 0.3 0.6 0.5 0.9l0.6 0.9 0.6 0.9h-0.2c0.2-0.2 0.4-0.4 0.6-0.5l0.6-0.5c0.2-0.2 0.4-0.3 0.6-0.5l0.3-0.3c0.1-0.1 0.2-0.2 0.2-0.3-0.1 0.1-0.1 0.2-0.2 0.3l-0.3 0.3c-0.2 0.2-0.4 0.3-0.5 0.5l-0.6 0.5c-0.2 0.2-0.4 0.3-0.5 0.5l-0.1 0.1-0.1-0.1-0.6-0.9-0.6-0.9-0.6-0.9-0.5-1-0.4-1c-0.1-0.3-0.2-0.7-0.3-1 0-0.2-0.1-0.4-0.1-0.5l-0.1-0.5v-1.2l0.5 0.2-1.1 1.9c-0.3 0.7-0.6 1.4-1 2l-0.8 2.1-0.6 2.2-0.6 2.2-0.1-1.9v-0.8c-0.1-0.3-0.1-0.5-0.2-0.8-0.1-0.5-0.2-1.1-0.4-1.6l-0.2-0.8c-0.1-0.3-0.1-0.6-0.2-0.8 0-0.1 0-0.3-0.1-0.4v-1.2l0.8 0.4-0.6 0.5c-0.2 0.2-0.4 0.5-0.5 0.7-0.1 0.3-0.3 0.5-0.4 0.8l-0.3 0.9c-0.1 0.3-0.2 0.6-0.2 0.9s-0.1 0.6-0.2 0.9c0 0.3-0.1 0.6-0.1 0.9v1.8c0 0.3 0 0.6 0.1 0.9l0.1 0.9 0.2 0.9c0.1 0.6 0.2 1.3 0.4 1.9 0.1 0.6 0.3 1.2 0.5 1.9l0.5 1.7-1.2-1.3-0.8-0.9-0.8-0.9-0.7-0.9c-0.2-0.3-0.5-0.6-0.7-1l-0.3-0.5c-0.1-0.2-0.2-0.3-0.3-0.5l-0.3-0.5c-0.1-0.2-0.2-0.4-0.3-0.5l-0.2-0.5c-0.1-0.2-0.2-0.4-0.2-0.6l-0.4-1.1 0.7-0.1-0.2 1.9v1.9l0.1 1.9 0.2 1.9 0.3 1.9 0.4 1.8 0.4 1.8 0.2 1.9z" fill="#10659E"/>
					<path d="m95.1 90.2c-0.6-2-1.1-4-1.4-6-0.2-1-0.3-2.1-0.4-3.1-0.1-0.5-0.1-1-0.1-1.6v-1.6l0.1-0.8 0.4 0.8 0.5 0.9 0.6 0.9 0.6 0.9 0.7 0.9c0.4 0.6 0.9 1.1 1.4 1.7s1 1.1 1.5 1.6c-0.4-1.2-0.8-2.3-1.1-3.5s-0.6-2.4-0.7-3.7c-0.2-0.6-0.2-1.3-0.2-1.9s0-1.3 0.1-1.9c0.2-1.3 0.6-2.5 1.4-3.6l0.6-0.8 0.1 0.8c0.1 0.3 0.1 0.6 0.2 0.9 0 0.3 0.1 0.6 0.1 0.9l0.3 1.8c0 0.3 0.1 0.6 0.1 0.9l0.1 0.9 0.1 0.9c0 0.3 0 0.6 0.1 0.9l0.6-2.4c0.2-0.8 0.4-1.6 0.7-2.3 0.3-0.8 0.5-1.5 0.9-2.3 0.3-0.8 0.7-1.5 1.1-2.2l0.3-0.5 0.1 0.6c0.1 0.6 0.3 1.1 0.5 1.7s0.5 1.1 0.8 1.6c0.6 1 1.3 2 2.1 3h-0.1c0.3-0.4 0.7-0.7 1.1-1.1 0.2-0.2 0.4-0.3 0.6-0.5l0.3-0.3c0.1-0.1 0.2-0.2 0.2-0.3-0.1 0.1-0.1 0.2-0.2 0.3l-0.3 0.3c-0.2 0.2-0.4 0.4-0.5 0.6l-1.1 1.1-0.1 0.1-0.1-0.1c-0.8-0.9-1.5-1.9-2.2-2.9-0.3-0.5-0.6-1-0.9-1.6s-0.5-1.1-0.6-1.7l0.5 0.1c-0.2 0.3-0.5 0.6-0.7 1-0.2 0.3-0.4 0.7-0.6 1-0.4 0.7-0.7 1.5-1 2.2-0.6 1.5-1 3.1-1.4 4.7 0-0.3 0-0.6-0.1-0.9 0-0.3-0.1-0.6-0.1-0.9-0.1-0.6-0.2-1.2-0.4-1.8-0.1-0.6-0.3-1.2-0.5-1.7-0.1-0.3-0.2-0.6-0.3-0.8-0.1-0.3-0.2-0.5-0.4-0.8l0.7 0.1c-0.1 0.3-0.3 0.5-0.4 0.8s-0.2 0.5-0.3 0.8c-0.2 0.6-0.3 1.1-0.4 1.7s-0.2 1.2-0.2 1.8v1.8c0.1 1.2 0.2 2.4 0.4 3.6l0.3 1.8 0.3 1.8c-0.5-0.5-1.1-1-1.6-1.5s-1-1.1-1.5-1.6l-0.7-0.8-0.6-0.9-0.7-0.9-0.6-0.9 0.6-0.1c0 0.2-0.1 0.5-0.1 0.7v2.3c0.1 1 0.1 2.1 0.3 3.1 0.3 2 0.6 4 1.2 6z" fill="#C7EEFF"/>
				<path opacity=".3" enable-background="new " d="m69.1 96.1c1.3-1.4 2.3-2.5 2.3-2.5l-2.2-17.2-5.9-1.1c-0.5-1.3-1.2-3.2-2.1-4.9-0.3 2.5-0.1 5.2-0.1 5.2l0.2 2.5-2.6-5.8c-0.2 1.6-0.4 4.3 0.3 7.6 0.9 4.2 3.8 13.3 10.1 16.2z" fill="#10659E"/>
						<linearGradient id="SVGID_10_" y2="-14.486" gradientUnits="userSpaceOnUse" x2="61.877" gradientTransform="matrix(1 0 0 -1 0 200)" y1="194.77" x1="61.877">
						<stop stop-color="#8FC4F7" offset="0"/>
						<stop stop-color="#B5A3F5" offset="1"/>
					</linearGradient>
					<path d="m73.1 93.4c-6.1 1.3-11-3.7-12.9-3.7s-4.2 2.4-4.2 2.4v-2.4l-2.6 1.3 3.6-4.1s-3.5 1.4-6.3 2.2c2-2.7 19.1-13.1 19.1-13.1" fill="url(#SVGID_10_)"/>
					<path d="m73.1 93.4l-0.6 0.1-0.6 0.1c-0.4 0.1-0.8 0.1-1.2 0.1h-1.2c-0.4 0-0.8-0.1-1.2-0.2-0.8-0.2-1.5-0.4-2.3-0.7-0.7-0.3-1.5-0.6-2.2-1-0.7-0.3-1.4-0.7-2.1-1.1-0.3-0.2-0.7-0.4-1-0.5-0.2-0.1-0.3-0.1-0.5-0.2h-0.5c-0.3 0-0.7 0.2-1 0.3-0.3 0.2-0.6 0.3-1 0.5-0.3 0.2-0.6 0.4-0.9 0.7-0.3 0.2-0.6 0.5-0.8 0.8l-0.8 0.8v-3.5l0.6 0.4-2.6 1.3-2.1 1.1 1.6-1.8 3.6-4.1 0.5 0.7c-1 0.5-2.1 0.8-3.1 1.2-0.5 0.2-1.1 0.4-1.6 0.5-0.5 0.2-1.1 0.3-1.6 0.5l-1.3 0.6 1-1.3c0.4-0.5 0.7-0.8 1.1-1.1l1.2-0.9c0.8-0.6 1.6-1.2 2.4-1.7 1.6-1.1 3.2-2.1 4.9-3.2 1.6-1 3.3-2 5-3 0.8-0.5 1.7-1 2.5-1.4 0.8-0.5 1.7-0.9 2.5-1.4l-9.6 6.5-4.8 3.3c-0.8 0.6-1.6 1.1-2.3 1.7-0.4 0.3-0.7 0.6-1.1 0.9-0.3 0.3-0.7 0.6-1 0.9l-0.6-0.8c0.5-0.2 1-0.3 1.6-0.5 0.5-0.2 1-0.3 1.6-0.5 1-0.3 2.1-0.7 3.1-1.1l1.7-0.6-1.2 1.3-3.6 4.1-0.5-0.7 2.6-1.3 0.6-0.3v3.1l-0.8-0.3c0.3-0.3 0.6-0.6 0.9-0.8 0.3-0.3 0.6-0.5 1-0.7 0.3-0.2 0.7-0.4 1.1-0.6s0.8-0.3 1.2-0.4h0.7c0.2 0 0.4 0.1 0.6 0.2 0.4 0.2 0.7 0.4 1.1 0.5l2 1.2c0.7 0.4 1.4 0.7 2 1 0.7 0.3 1.4 0.6 2.1 0.8 0.4 0.1 0.7 0.2 1.1 0.3s0.8 0.1 1.1 0.2h2.7z" fill="#10659E"/>
					<path d="m72.5 90.8s-0.4-0.6-0.8-1.7c-0.1-0.3-0.2-0.5-0.3-0.8l-0.3-0.9c-0.1-0.3-0.2-0.7-0.3-1-0.1-0.4-0.2-0.7-0.3-1.1-0.1-0.7-0.3-1.4-0.4-2.1 0-0.3-0.1-0.7-0.1-1s-0.1-0.6 0-0.9c0-1.1 0.1-1.8 0.1-1.8s0.2 0.7 0.4 1.8c0 0.3 0.1 0.6 0.2 0.9s0.1 0.6 0.2 1c0.1 0.3 0.2 0.7 0.2 1 0.1 0.3 0.2 0.7 0.2 1.1 0.1 0.4 0.2 0.7 0.2 1.1 0.1 0.3 0.1 0.7 0.2 1 0.2 0.7 0.3 1.3 0.4 1.8s0.2 1 0.2 1.3c0.2 0.1 0.2 0.3 0.2 0.3z" fill="#10659E"/>
					<path d="m71.6 76.8c-0.1-0.7-0.1-1.5-0.2-2.2v-2.3c0.1-0.8 0.1-1.5 0.2-2.3 0.1-0.7 0.3-1.5 0.5-2.2l0.4-1.9 0.4 2v0.3c0 0.1 0.1 0.2 0.1 0.3 0.1 0.2 0.1 0.4 0.2 0.6l0.3 0.7c0.1 0.2 0.2 0.5 0.2 0.7l-0.6-0.1c0.2-0.3 0.3-0.5 0.5-0.8s0.3-0.5 0.5-0.8c0.4-0.5 0.8-1 1.2-1.4-0.3 0.6-0.6 1.1-0.9 1.7s-0.5 1.1-0.8 1.7l-0.3 0.7-0.3-0.7c-0.1-0.4-0.4-0.8-0.6-1.2-0.1-0.2-0.2-0.4-0.3-0.7 0-0.1-0.1-0.2-0.1-0.4 0-0.1-0.1-0.3-0.1-0.4l0.8 0.1c-0.1 0.7-0.3 1.4-0.5 2.1-0.1 0.4-0.1 0.7-0.2 1.1l-0.2 1.1c-0.1 0.7-0.1 1.5-0.2 2.2 0.2 0.7 0.1 1.4 0 2.1z" fill="#10659E"/>
					<path d="m52.8 87.7s1-0.7 2.5-1.8l1.2-0.9c0.4-0.3 0.9-0.7 1.4-1s1-0.7 1.6-1.1c0.5-0.4 1.1-0.7 1.6-1.1 0.6-0.3 1.1-0.7 1.6-1.1s1-0.7 1.5-1c1-0.7 1.9-1.3 2.7-1.9 0.8-0.5 1.5-1 1.9-1.3 0.2-0.2 0.4-0.3 0.5-0.3 0.1-0.1 0.2-0.1 0.2-0.1s-0.1 0.1-0.2 0.2c-0.1 0.1-0.3 0.3-0.5 0.4-0.4 0.4-1 0.9-1.7 1.6-0.4 0.3-0.8 0.7-1.2 1s-0.9 0.7-1.4 1.1-1 0.8-1.5 1.1c-0.5 0.4-1 0.8-1.6 1.1-0.5 0.3-1.1 0.7-1.6 1l-1.5 0.9-1.5 0.9c-0.5 0.3-0.9 0.5-1.4 0.8-1.3 0.9-2.6 1.5-2.6 1.5z" fill="#C7EEFF"/>
				<path opacity=".3" enable-background="new " d="m147.4 88.3c-0.5 0.1-1.1 0.1-1.5-0.1l-0.5-0.2 0.3-0.4c0.8-1.3 1.2-2.7 1.5-4.1l-4.2-2.1-7.6-2.5s1.4-8.5 1-7.8c-0.3 0.8-2.1 0.9-2.1 0.9l-1.1 4.7-1.6 5.1-1.9 12.8 6.9 3.9c4.4-3 8.7-7.7 10.8-10.2z" fill="#10659E"/>
						<linearGradient id="SVGID_11_" y2="-7.0713" gradientUnits="userSpaceOnUse" x2="139.19" gradientTransform="matrix(1 0 0 -1 0 200)" y1="189.35" x1="139.19">
						<stop stop-color="#8FC4F7" offset="0"/>
						<stop stop-color="#B5A3F5" offset="1"/>
					</linearGradient>
					<path d="m131 71.3l2.1-2.7s0.4 4.7 0 5.7c1.4-2.4 1.6-2.9 1.6-2.9s0.1 5.2-1.8 7.4c0.3 1.2 13.9 7.8 17.2 13-2.7-0.2-5.1-2.2-5.1-2.2l2.6 4.4-3.5-1.4s0 2.4-0.4 2.7c-0.3 0.2-2.2-1.9-3.1-1.7s-9 1.4-12.2 1.2" fill="url(#SVGID_11_)"/>
					<path d="m131 71.3l1.7-3 0.5-0.9 0.2 1.1c0.1 1 0.1 1.9 0.2 2.9v2.3c0 0.1 0 0.3-0.1 0.4 0 0.1-0.1 0.3-0.1 0.4l-0.8-0.4 0.8-1.4 0.4-0.7c0.1-0.2 0.2-0.5 0.4-0.7l0.8-1.5v2.6c0 0.3 0 0.7-0.1 1-0.1 0.7-0.1 1.3-0.3 2 0 0.2-0.1 0.3-0.1 0.5s-0.1 0.3-0.1 0.5c-0.1 0.3-0.2 0.6-0.3 1-0.1 0.2-0.1 0.3-0.2 0.5s-0.1 0.3-0.2 0.5c-0.1 0.1-0.2 0.3-0.3 0.4l-0.3 0.4 0.1-0.4 0.1 0.1 0.2 0.2c0.2 0.1 0.3 0.3 0.5 0.4 0.4 0.3 0.7 0.5 1.1 0.7 0.8 0.5 1.5 1 2.3 1.4 1.5 0.9 3.1 1.9 4.6 2.9s3 2 4.4 3.2c0.4 0.3 0.7 0.6 1.1 0.9 0.3 0.3 0.7 0.6 1 0.9s0.6 0.7 1 1c0.3 0.4 0.6 0.7 0.8 1.1l0.5 0.8-0.9-0.1-0.7-0.1c-0.1 0-0.2 0-0.4-0.1l-0.4-0.1-0.4-0.1c-0.1 0-0.2-0.1-0.3-0.1l-0.7-0.3c-0.2-0.1-0.4-0.2-0.7-0.3-0.2-0.1-0.4-0.2-0.6-0.4-0.2-0.1-0.4-0.3-0.6-0.4s-0.4-0.3-0.6-0.4l0.7-0.6 2.6 4.4 0.6 1.1-1.2-0.4-3.5-1.4 0.6-0.4v1.2c0 0.4-0.1 0.8-0.2 1.2l-0.1 0.2c0 0.1-0.1 0.1-0.1 0.2-0.1 0.1-0.2 0.3-0.5 0.3-0.2 0-0.3-0.1-0.3-0.1-0.3-0.1-0.4-0.3-0.6-0.4-0.3-0.2-0.6-0.5-0.9-0.7s-0.6-0.4-0.9-0.5c-0.1 0-0.1 0-0.2-0.1h-0.2l-0.6 0.1c-0.8 0.1-1.6 0.2-2.3 0.3-0.8 0.1-1.6 0.2-2.3 0.2-0.8 0.1-1.6 0.1-2.3 0.2l-1.2 0.1h-2.4l-1.2-0.1h1.2c0.4 0 0.8-0.1 1.2-0.1s0.8-0.1 1.2-0.1l1.2-0.1c0.8-0.1 1.5-0.2 2.3-0.3s1.5-0.2 2.3-0.4l2.3-0.4 0.6-0.1h0.4c0.1 0 0.3 0 0.4 0.1 0.5 0.2 0.8 0.4 1.1 0.6s0.6 0.5 0.9 0.7c0.1 0.1 0.3 0.2 0.4 0.3h-0.2s-0.1 0 0 0h-0.1s-0.1 0-0.1 0.1v-0.1c0.1-0.3 0.1-0.7 0.2-1.1 0-0.4 0.1-0.8 0.1-1.1v-0.6l0.6 0.2 3.5 1.4-0.5 0.6-2.6-4.4-1.2-2 1.8 1.4c0.2 0.1 0.3 0.3 0.5 0.4s0.4 0.3 0.6 0.4l0.6 0.3 0.6 0.3 0.6 0.3c0.1 0 0.2 0.1 0.3 0.1l0.3 0.1 0.3 0.1c0.1 0 0.2 0 0.3 0.1l0.6 0.1-0.4 0.7c-0.2-0.4-0.5-0.7-0.8-1s-0.6-0.6-0.9-1c-0.3-0.3-0.6-0.6-1-0.9-0.3-0.3-0.7-0.6-1-0.9-1.4-1.1-2.9-2.1-4.4-3.1s-3-1.9-4.6-2.9c-0.8-0.5-1.5-0.9-2.3-1.4-0.4-0.2-0.8-0.5-1.1-0.8-0.2-0.1-0.4-0.3-0.6-0.4l-0.3-0.3-0.1-0.2c-0.1-0.1-0.1-0.2-0.2-0.3l-0.1-0.2 0.2-0.2 0.3-0.3c0.1-0.1 0.2-0.3 0.2-0.4 0.1-0.1 0.1-0.3 0.2-0.4s0.1-0.3 0.2-0.4l0.3-0.9c0-0.1 0.1-0.3 0.1-0.5s0.1-0.3 0.1-0.5c0.1-0.6 0.2-1.2 0.3-1.9 0-0.3 0-0.6 0.1-1v-0.9l0.8 0.2c-0.1 0.3-0.3 0.5-0.4 0.8l-0.4 0.7-0.8 1.4-1.4 2.4 0.6-2.7c0-0.1 0.1-0.2 0.1-0.3v-2.4c0-0.9-0.1-1.9-0.2-2.8l0.8 0.2-2 2.3z" fill="#10659E"/>
					<path d="m127.5 92.4s0.1-0.2 0.2-0.5c0-0.1 0.1-0.3 0.2-0.5s0.1-0.4 0.2-0.7c0.1-0.2 0.2-0.5 0.2-0.8l0.3-0.9c0.1-0.3 0.2-0.7 0.3-1s0.2-0.7 0.3-1 0.2-0.7 0.3-1 0.2-0.7 0.3-1c0.2-0.6 0.3-1.2 0.5-1.8 0.2-1 0.5-1.7 0.5-1.7s0 0.7 0 1.8c0 0.3 0 0.6-0.1 0.9 0 0.3-0.1 0.6-0.1 1-0.1 0.3-0.1 0.7-0.2 1s-0.2 0.7-0.3 1-0.2 0.7-0.3 1-0.2 0.7-0.4 1c-0.1 0.3-0.3 0.6-0.4 0.9s-0.3 0.5-0.4 0.8c-0.1 0.2-0.3 0.5-0.4 0.6-0.1 0.2-0.2 0.3-0.3 0.5l-0.4 0.4z" fill="#10659E"/>
					<path d="m132.8 79.8s0.3 0.1 0.7 0.4c0.5 0.3 1.1 0.6 1.9 1.1s1.7 1 2.6 1.6c0.5 0.3 1 0.6 1.5 1 0.5 0.3 1 0.7 1.5 1 1 0.7 2 1.4 2.9 2.1 0.5 0.3 0.9 0.7 1.3 1l1.2 0.9c0.7 0.6 1.3 1.1 1.6 1.5l0.6 0.6s-0.3-0.2-0.7-0.5c-0.2-0.2-0.5-0.3-0.8-0.5s-0.7-0.4-1-0.7c-0.4-0.2-0.8-0.5-1.2-0.8s-0.9-0.6-1.4-0.9-1-0.6-1.5-1c-0.5-0.3-1-0.7-1.5-1s-1-0.7-1.5-1-1-0.7-1.4-1c-0.9-0.7-1.8-1.3-2.5-1.8-1.3-1.2-2.3-2-2.3-2z" fill="#C7EEFF"/>
						<linearGradient id="SVGID_12_" y2="58.519" gradientUnits="userSpaceOnUse" x2="103.08" gradientTransform="matrix(1 0 0 -1 0 200)" y1="176.8" x1="103.08">
						<stop stop-color="#8FC4F7" offset="0"/>
						<stop stop-color="#B5A3F5" offset="1"/>
					</linearGradient>
					<path d="m106.5 57.6s13.2-20.5-3.4-20.5c-16.7 0-3.4 20.5-3.4 20.5" fill="url(#SVGID_12_)"/>
					<path d="m106.5 57.6s0.3-0.8 0.9-2.1c0.3-0.7 0.6-1.5 1-2.5 0.4-0.9 0.8-2 1.2-3.2s0.8-2.5 1-3.9c0.1-0.3 0.1-0.7 0.1-1.1v-1.1c0-0.4-0.1-0.7-0.1-1.1-0.1-0.3-0.1-0.7-0.2-1-0.2-0.7-0.6-1.3-1-1.8l-0.4-0.4-0.4-0.3-0.2-0.2-0.2-0.1-0.5-0.3c-1.4-0.6-3-0.8-4.7-0.8h-1.2c-0.4 0-0.8 0.1-1.2 0.1-0.2 0-0.4 0.1-0.6 0.1l-0.6 0.1c-0.4 0.1-0.7 0.3-1.1 0.4l-0.5 0.3-0.2 0.1c-0.1 0-0.1 0.1-0.2 0.2l-0.4 0.4-0.4 0.4c-0.5 0.5-0.8 1.2-1 1.8-0.1 0.3-0.2 0.7-0.2 1 0 0.4-0.1 0.7-0.1 1.1v1.1c0 0.4 0.1 0.7 0.1 1.1 0.2 1.4 0.6 2.7 1 3.9s0.8 2.3 1.2 3.2 0.7 1.8 1 2.4c0.6 1.4 1 2.1 1 2.1s-0.1-0.2-0.4-0.5c-0.2-0.3-0.6-0.8-1-1.4s-0.9-1.4-1.4-2.3-1-2-1.5-3.2-0.9-2.6-1.1-4c-0.1-0.4-0.1-0.8-0.2-1.1 0-0.4-0.1-0.8-0.1-1.2s0-0.8 0.1-1.2 0.1-0.8 0.3-1.3c0.2-0.8 0.7-1.7 1.3-2.4l0.5-0.5 0.5-0.4c0.1-0.1 0.2-0.1 0.3-0.2l0.3-0.2 0.6-0.3c0.4-0.2 0.8-0.3 1.3-0.5l0.7-0.2c0.2-0.1 0.4-0.1 0.7-0.1 0.4-0.1 0.9-0.1 1.3-0.2l1.3-0.1c1.8 0 3.6 0.2 5.2 1l0.6 0.3 0.3 0.2c0.1 0.1 0.2 0.1 0.3 0.2l0.5 0.4 0.5 0.5c0.6 0.7 1.1 1.5 1.3 2.4 0.2 0.4 0.2 0.8 0.3 1.3 0 0.4 0.1 0.8 0.1 1.2s0 0.8-0.1 1.2c0 0.4-0.1 0.8-0.2 1.1-0.3 1.5-0.7 2.8-1.1 4.1-0.5 1.2-1 2.3-1.5 3.2s-1 1.7-1.4 2.3-0.8 1.1-1 1.4c-0.2 0.4-0.4 0.6-0.4 0.6z" fill="#10659E"/>
					<linearGradient id="SVGID_13_" y2="142.41" gradientUnits="userSpaceOnUse" x2="103.08" gradientTransform="matrix(1 0 0 -1 0 200)" y1="170.31" x1="103.08">
					<stop stop-color="#BFE4F7" offset="0"/>
					<stop stop-color="#BFE4F7" stop-opacity="0" offset="1"/>
				</linearGradient>
				<path d="m105.6 57.6s9.6-18.1-2.5-18.1-2.5 18.1-2.5 18.1" fill="url(#SVGID_13_)"/>
					<path d="m101.5 58.5s0.1-0.2 0.4-0.4c0.1 0 0.1-0.1 0.2-0.1 0.1-0.1 0.2-0.1 0.3-0.1 0.2-0.1 0.4-0.1 0.6-0.2h0.6c0.1 0 0.2 0 0.3 0.1 0.1 0 0.2 0.1 0.2 0.1 0.3 0.1 0.5 0.3 0.5 0.3s-0.2 0.1-0.5 0.2c-0.1 0-0.1 0-0.2 0.1-0.1 0-0.2 0-0.2 0.1-0.2 0-0.3 0.1-0.5 0.1h-1c-0.5-0.2-0.7-0.2-0.7-0.2z" fill="#10659E"/>
			<path opacity=".3" enable-background="new " d="m22.3 112.6c0.7 2.2 1.4 4.4 2.3 6.5l0.3 0.7-0.8-0.1c-0.2 0-0.3-0.1-0.5-0.1 0.2 0.8 0.6 1.6 1.1 2.5 9.3 0.5 21.2-0.4 21.2-0.4-9.8-0.3-19-5.8-23.6-9.1z" fill="#10659E"/>
			<path opacity=".3" enable-background="new " d="m48.8 70.1s-6.6-13.8-10.8-16c-0.9 0.9-1.5 1.3-1.5 1.3s-4-5.5-4.9-6c-0.9-0.6-1.9-0.8-1.9-0.8l-3.2 5.4s1.3 17.7 2.6 18.2 19.9-1.7 19.9-1.7" fill="#10659E"/>
					<linearGradient id="SVGID_14_" y2="-7.0728" gradientUnits="userSpaceOnUse" x2="28.044" gradientTransform="matrix(1 0 0 -1 0 200)" y1="189.35" x1="28.044">
					<stop stop-color="#8FC4F7" offset="0"/>
					<stop stop-color="#B5A3F5" offset="1"/>
				</linearGradient>
				<path d="m48.2 121.8c-0.6-0.2-11.5 1.4-27-10.1s-16.7-24.6-16.3-29.7l5.2 5s-4.8-10.9-4.3-19.5l2.4 1.2s-1.7-8.7 2.4-19.3l1.1 2.2s2.6-4.5 2.4-5.2c-0.2-0.6 4.5-21.2 8.2-23.8s17.8-8.9 27 2.5c-13.9 11.7-22.7 28.8-22.7 28.8l7.7 6.3s-1.9-5.4-3-7.4c3.2 1.9 8.9 9.7 8.9 9.7l-1.7-5.6s9.9 10.4 12.8 18" fill="url(#SVGID_14_)"/>
				<path d="m48.2 121.8h-2c-0.7 0-1.4 0-2-0.1-0.7 0-1.3-0.1-2-0.2s-1.3-0.2-2-0.4-1.3-0.3-2-0.5-1.3-0.4-2-0.6l-1.9-0.7c-0.6-0.2-1.3-0.5-1.9-0.8-0.6-0.2-1.2-0.6-1.9-0.8l-1.8-0.9-1.8-1c-0.6-0.3-1.2-0.7-1.7-1-0.6-0.4-1.2-0.7-1.7-1.1l-1.7-1.2-0.8-0.6-0.8-0.6-1.6-1.2-0.4-0.3-0.4-0.3-0.8-0.7c-0.5-0.5-1-0.9-1.5-1.4l-1.4-1.5-0.7-0.7-0.7-0.8c-0.4-0.5-0.9-1-1.3-1.6l-1.2-1.7c-0.4-0.6-0.7-1.2-1.1-1.7-0.2-0.3-0.4-0.6-0.5-0.9l-0.5-0.9-0.5-0.9c-0.2-0.3-0.3-0.6-0.4-0.9-0.3-0.6-0.6-1.2-0.8-1.9-0.5-1.3-0.9-2.6-1.2-3.9l-0.2-1c-0.1-0.3-0.1-0.7-0.2-1 0-0.3-0.1-0.7-0.2-1l-0.1-1c-0.1-1.4-0.1-2.7 0-4.1l0.1-0.9 0.6 0.6 5.2 5-0.7 0.5c-0.3-0.8-0.6-1.6-0.9-2.4-0.3-0.7-0.6-1.5-0.8-2.3-0.3-0.8-0.5-1.6-0.7-2.4l-0.3-1.2-0.3-1.2c-0.3-0.9-0.5-1.7-0.7-2.6-0.1-0.4-0.2-0.8-0.2-1.2l-0.2-1.3-0.1-1.3c-0.1-0.4-0.1-0.8-0.1-1.3 0-0.4-0.1-0.8 0-1.3v-2l0.6 0.5 2.4 1.2-0.6 0.5c-0.1-0.4-0.1-0.8-0.2-1.2s-0.1-0.8-0.1-1.2-0.1-0.8-0.1-1.2v-2.4c0-0.4 0-0.8 0.1-1.2l0.1-1.6 0.1-1.2c0-0.4 0.1-0.8 0.2-1.2s0.1-0.8 0.2-1.2l0.2-1.2 0.3-1.2 0.3-1.2 0.4-1.2c0.1-0.4 0.3-0.8 0.4-1.2l0.4-1.2 0.3-0.9 0.5 0.9 1.1 2.2h-0.8l1.8-3.3c0.1-0.3 0.3-0.6 0.4-0.8 0.1-0.1 0.1-0.3 0.1-0.4v-1c0-0.2 0-0.3 0.1-0.5 0.1-0.3 0.1-0.6 0.2-0.9 0.5-2.5 1.2-5 1.8-7.4 0.7-2.5 1.4-4.9 2.3-7.3 0.4-1.2 0.9-2.4 1.4-3.6 0.3-0.6 0.5-1.2 0.9-1.7 0.3-0.6 0.7-1.1 1.1-1.6l0.2-0.2 0.2-0.2 0.2-0.2 0.2-0.1c0.3-0.2 0.6-0.4 0.8-0.5 0.6-0.3 1.1-0.6 1.7-0.9 1.2-0.6 2.4-1 3.6-1.4 2.5-0.8 5-1.2 7.6-1.2 1.3 0 2.6 0.2 3.9 0.5s2.5 0.7 3.7 1.3 2.3 1.3 3.3 2.1 1.9 1.8 2.7 2.8l0.3 0.3-0.3 0.3-1.7 1.5-0.8 0.8-0.8 0.8-1.6 1.6-1.6 1.7c-0.5 0.5-1 1.1-1.5 1.7s-1 1.1-1.5 1.7l-1.5 1.7c-0.5 0.6-0.9 1.2-1.4 1.8s-0.9 1.2-1.4 1.8c-0.4 0.6-0.9 1.2-1.3 1.9l-1.3 1.8-1.3 1.9-1.2 1.9c-0.4 0.7-0.8 1.3-1.2 2-0.8 1.3-1.6 2.6-2.3 4l-0.1-0.5 7.7 6.3-0.7 0.5c-0.2-0.6-0.5-1.2-0.7-1.9l-0.4-0.9c-0.1-0.3-0.2-0.6-0.4-0.9l-0.4-0.9c-0.1-0.3-0.2-0.6-0.4-0.9l-0.7-1.9-0.7-1.5 1.3 0.9c0.2 0.2 0.5 0.3 0.7 0.5l0.7 0.5 1.2 1.2 0.6 0.6 0.6 0.6c0.4 0.4 0.7 0.8 1.1 1.2 1.4 1.7 2.8 3.4 4.1 5.2l-0.8 0.4-1.7-5.5-0.5-1.8 1.3 1.3c1.3 1.4 2.4 2.8 3.6 4.2 0.6 0.7 1.2 1.4 1.7 2.2 0.6 0.7 1.1 1.5 1.7 2.2 0.3 0.4 0.5 0.8 0.8 1.1 0.3 0.4 0.5 0.8 0.8 1.1l0.8 1.2 0.7 1.2c0.2 0.4 0.5 0.8 0.7 1.2l0.6 1.2c0.2 0.4 0.4 0.8 0.6 1.3l0.5 1.3-0.6-1.3-0.6-1.2c-0.2-0.4-0.5-0.8-0.7-1.2s-0.5-0.8-0.7-1.2l-0.8-1.2-0.8-1.1c-0.3-0.4-0.5-0.7-0.8-1.1s-0.5-0.7-0.8-1.1c-0.6-0.7-1.1-1.4-1.7-2.2-0.6-0.7-1.2-1.4-1.8-2.1-1.2-1.4-2.5-2.7-3.7-4l0.7-0.4 1.7 5.6 0.8 2.5-1.5-2.1c-1.3-1.8-2.7-3.5-4.1-5.2-0.4-0.4-0.7-0.8-1.1-1.2l-0.6-0.6-0.6-0.6c-0.4-0.4-0.8-0.8-1.2-1.1l-0.6-0.5c-0.2-0.2-0.4-0.3-0.6-0.4l0.6-0.6 0.9 1.8c0.1 0.3 0.3 0.6 0.4 0.9l0.4 0.9c0.1 0.3 0.3 0.6 0.4 0.9l0.4 0.9c0.2 0.6 0.5 1.2 0.7 1.9l0.5 1.5-1.2-1-7.7-6.3h-0.5l0.2-0.3c0.7-1.4 1.5-2.7 2.3-4 0.4-0.7 0.8-1.3 1.2-2l1.2-1.9 1.3-1.9 1.3-1.9c0.4-0.6 0.9-1.2 1.4-1.9 0.5-0.6 0.9-1.2 1.4-1.8s0.9-1.2 1.4-1.8l1.5-1.8 1.5-1.8c0.5-0.6 1-1.2 1.5-1.7l1.6-1.7c0.5-0.6 1.1-1.1 1.6-1.6l0.8-0.8 0.9-0.8 1.7-1.6-0.1 0.6c-0.8-1-1.7-1.9-2.6-2.7-1-0.8-2-1.5-3.1-2-1.1-0.6-2.3-1-3.5-1.3s-2.4-0.4-3.7-0.4c-2.5 0-5 0.4-7.4 1.1-1.2 0.4-2.4 0.8-3.5 1.4-0.6 0.3-1.1 0.6-1.7 0.9-0.3 0.2-0.5 0.3-0.8 0.5l-0.2 0.1c-0.1 0-0.1 0.1-0.2 0.1l-0.3 0.3c-0.4 0.4-0.7 0.9-1 1.5-0.3 0.5-0.6 1.1-0.8 1.7-0.5 1.1-1 2.3-1.4 3.5-0.8 2.4-1.6 4.8-2.3 7.2s-1.3 4.9-1.8 7.4c-0.1 0.3-0.1 0.6-0.2 0.9 0 0.2-0.1 0.3-0.1 0.5v0.8c0 0.1 0 0.2-0.1 0.3-0.1 0.2-0.1 0.3-0.2 0.5-0.1 0.3-0.3 0.6-0.4 0.9-0.6 1.2-1.2 2.3-1.8 3.4l-0.4 0.7-0.4-0.7-1.1-2.2h0.8l-0.4 1.1c-0.1 0.4-0.3 0.8-0.4 1.1v1.1l-0.3 1.2-0.3 1.2-0.2 1.1c-0.1 0.4-0.1 0.8-0.2 1.2s-0.1 0.8-0.2 1.2l-0.1 1.2-0.1 1.2c0 0.4 0 0.8-0.1 1.2v2.4c0 0.4 0 0.8 0.1 1.2 0 0.4 0.1 0.8 0.1 1.2s0.1 0.8 0.2 1.2l0.2 0.8-0.9-0.3-2.4-1.2 0.6-0.4v2.4c0 0.4 0 0.8 0.1 1.2l0.1 1.2 0.2 1.2c0.1 0.4 0.1 0.8 0.2 1.2 0.1 0.8 0.3 1.6 0.5 2.4l0.3 1.2 0.3 1.2c0.2 0.8 0.5 1.6 0.7 2.4 0.3 0.8 0.5 1.6 0.8 2.4s0.6 1.6 0.9 2.3l0.8 1.9-1.5-1.5-5.2-5 1 0.1c-0.1 1.3-0.1 2.6 0.1 4l0.1 1c0 0.3 0.1 0.7 0.2 1s0.1 0.7 0.2 1l0.2 1c0.3 1.3 0.7 2.6 1.2 3.8 0.2 0.6 0.5 1.2 0.8 1.8 0.1 0.3 0.3 0.6 0.4 0.9l0.5 0.9 0.5 0.9c0.2 0.3 0.3 0.6 0.5 0.9 0.4 0.6 0.7 1.1 1.1 1.7l1.2 1.6c0.4 0.5 0.8 1 1.3 1.6l0.6 0.8c0.2 0.3 0.5 0.5 0.7 0.7l1.4 1.4c0.5 0.5 1 0.9 1.5 1.4l0.7 0.7 0.4 0.3 0.4 0.3 1.6 1.3 0.8 0.6 0.8 0.6 1.6 1.2c0.5 0.4 1.1 0.7 1.7 1.1s1.1 0.7 1.7 1.1l1.7 1 1.8 0.9 1.8 0.9c0.6 0.3 1.2 0.6 1.8 0.8l1.9 0.7c0.6 0.2 1.3 0.4 1.9 0.6s1.3 0.4 1.9 0.5c0.7 0.1 1.3 0.3 2 0.4s1.3 0.2 2 0.3 1.3 0.1 2 0.2c0.4-0.1 1.1-0.1 1.8-0.1z" fill="#10659E"/>
				<path d="m50.3 73.1s-0.8-0.8-1.9-2.1c-0.5-0.6-1.2-1.4-1.8-2.2-0.3-0.4-0.7-0.8-1-1.3-0.3-0.4-0.7-0.9-1-1.3s-0.7-0.9-1-1.3-0.6-0.9-0.9-1.3-0.6-0.8-0.9-1.2-0.5-0.8-0.8-1.1c-1-1.4-1.5-2.3-1.5-2.3s0.8 0.8 1.9 2c0.6 0.6 1.2 1.4 1.9 2.2 0.3 0.4 0.7 0.8 1 1.3 0.3 0.4 0.7 0.9 1 1.3s0.7 0.9 1 1.3 0.6 0.9 0.9 1.3c0.6 0.9 1.1 1.7 1.6 2.4 1 1.3 1.5 2.3 1.5 2.3z" fill="#C7EEFF"/>
				<path d="m40.9 64.4s-0.6-0.5-1.5-1.3c-0.4-0.4-0.9-0.9-1.5-1.4-0.3-0.3-0.5-0.6-0.8-0.8-0.3-0.3-0.5-0.6-0.8-0.9s-0.5-0.6-0.8-0.9-0.5-0.6-0.7-0.9c-0.5-0.6-0.9-1.2-1.2-1.7-0.2-0.3-0.3-0.5-0.4-0.7l-0.3-0.6c-0.2-0.3-0.2-0.5-0.2-0.5s0.1 0.1 0.4 0.4c0.1 0.1 0.3 0.3 0.4 0.5l0.6 0.6c0.2 0.2 0.4 0.5 0.7 0.7 0.2 0.3 0.5 0.5 0.7 0.8s0.5 0.6 0.8 0.9 0.5 0.6 0.8 0.9 0.5 0.6 0.8 0.9 0.5 0.6 0.7 0.9c0.5 0.6 0.9 1.1 1.3 1.6 0.6 0.8 1 1.5 1 1.5z" fill="#C7EEFF"/>
				<path d="m26.3 54.3s-0.1-0.1-0.3-0.2-0.4-0.3-0.7-0.6c-0.1-0.1-0.3-0.2-0.5-0.4-0.2-0.1-0.4-0.3-0.6-0.4-0.4-0.3-0.8-0.5-1.3-0.8-0.2-0.1-0.4-0.3-0.7-0.4l-0.6-0.3-1.2-0.6c-0.7-0.3-1.2-0.5-1.2-0.5s0.5 0.2 1.2 0.4c0.4 0.1 0.8 0.3 1.2 0.4 0.2 0.1 0.5 0.2 0.7 0.3s0.5 0.2 0.7 0.3c0.5 0.2 0.9 0.4 1.4 0.7l0.6 0.3c0.2 0.1 0.4 0.2 0.5 0.3 0.3 0.2 0.6 0.4 0.8 0.5s0.3 0.2 0.3 0.2l-0.3 0.8z" fill="#10659E"/>
					<linearGradient id="SVGID_15_" y2="168.7" gradientUnits="userSpaceOnUse" x2="43.723" gradientTransform="matrix(1 0 0 -1 0 200)" y1="174.73" x1="43.723">
					<stop stop-color="#8FC4F7" offset="0"/>
					<stop stop-color="#B5A3F5" offset="1"/>
				</linearGradient>
				<path d="m45.4 28.7s-0.6-1.7-3.3-3.2" fill="url(#SVGID_15_)"/>
				<path d="m45 28.8c0-0.1 0-0.1-0.1-0.2 0-0.1-0.1-0.2-0.2-0.4s-0.2-0.4-0.4-0.6c-0.1-0.1-0.2-0.2-0.2-0.3l-0.3-0.3-0.3-0.3-0.3-0.3-0.3-0.3c-0.1-0.1-0.2-0.1-0.3-0.2-0.4-0.3-0.6-0.4-0.6-0.4s0.3 0.1 0.7 0.3c0.1 0 0.2 0.1 0.3 0.2s0.2 0.1 0.3 0.2 0.2 0.1 0.4 0.2c0.1 0.1 0.2 0.2 0.4 0.3 0.1 0.1 0.2 0.2 0.4 0.3l0.3 0.3c0.2 0.2 0.4 0.4 0.5 0.6s0.3 0.3 0.3 0.5c0.1 0.1 0.1 0.2 0.1 0.2l-0.7 0.2z" fill="#10659E"/>
				<path d="m27 52.7l-0.5-1c-0.1-0.3-0.3-0.7-0.5-1.1l-0.6-1.2c-0.4-0.8-0.9-1.6-1.2-2.2s-0.6-1-0.6-1 0.3 0.4 0.7 0.9c0.4 0.6 1 1.3 1.5 2.1 0.3 0.4 0.5 0.8 0.8 1.1 0.2 0.4 0.4 0.7 0.6 1 0.4 0.6 0.6 1 0.6 1l-0.8 0.4z" fill="#10659E"/>
				<path d="m13.6 46.5s2.3-2.6 4.6-5.2c1.2-1.3 2.3-2.6 3.2-3.5 0.4-0.5 0.8-0.9 1.1-1.1l0.3-0.3 0.1-0.1s0 0-0.1 0.1l-0.3 0.3c-0.3 0.3-0.6 0.7-1 1.2-0.8 1-1.9 2.4-3 3.7-2.1 2.7-4.3 5.5-4.3 5.5l-0.6-0.6z" fill="#10659E"/>
			<path opacity=".3" enable-background="new " d="m48.1 24.4c-0.9-1-1.8-1.8-2.9-2.6-1.2-0.8-2.4-1.4-3.7-1.9-0.6-0.2-1.1-0.4-1.7-0.5h-0.1c-0.2-0.1-0.5-0.1-0.7-0.2-0.3-0.1-0.6-0.1-0.9-0.1s-0.5-0.1-0.8-0.1c-2.4-0.2-4.9 0.1-7.3 0.7-2.5 0.7-5 1.6-7.2 3.1-0.7 0.5-1.2 1.2-1.6 1.9-0.6 1-1 2-1.4 3-0.9 2.1-1.6 4.3-2.2 6.5-0.7 2.2-1.3 4.4-1.8 6.7-0.3 1.1-0.5 2.2-0.8 3.3-0.1 0.5-0.2 0.9-0.3 1.4 3.8-4.6 16.8-17.4 24.3-17.4 3.2 0-8.3 16.3-10.8 20.4 0 0-0.9-0.8-4.1-1.7 2.8 4.7 2 5.2 2 5.2s-2.2-0.9-5.8-1.6c2 0.6 5 2.5 6.1 3.3 0.3-0.5 0.6-1 0.8-1.6l2.1-3.6c0.6-0.9 1.2-1.9 1.8-2.8 1.5-2.2 3-4.4 4.6-6.6 3.6-4.8 7.6-9.3 12.1-13.3 0.2-0.2 0.5-0.4 0.7-0.6l0.2-0.2c-0.1-0.1-0.6-0.7-0.6-0.7z" fill="#10659E"/>
				<path d="m35.1 61.3l-2.5-1.5c-0.4-0.2-0.8-0.5-1.2-0.8s-0.9-0.6-1.3-0.9c-0.5-0.3-0.9-0.6-1.4-1s-0.9-0.7-1.4-1.1c-0.9-0.7-1.8-1.5-2.6-2.3-0.4-0.3-0.8-0.7-1.2-1s-0.8-0.6-1.1-0.9c-0.4-0.3-0.7-0.5-1-0.7s-0.6-0.4-0.8-0.5c-0.4-0.3-0.7-0.5-0.7-0.5s0.3 0.1 0.8 0.3c0.2 0.1 0.5 0.2 0.9 0.4 0.3 0.2 0.7 0.3 1.1 0.6 0.4 0.2 0.8 0.5 1.2 0.7 0.2 0.1 0.4 0.3 0.7 0.4 0.2 0.2 0.4 0.3 0.7 0.5 0.4 0.3 0.9 0.7 1.3 1.1s0.9 0.7 1.4 1.1c0.4 0.4 0.9 0.7 1.4 1.1s0.9 0.7 1.3 1c0.9 0.7 1.7 1.3 2.4 1.9 1.1 1.3 2 2.1 2 2.1z" fill="#C7EEFF"/>
			<path opacity=".3" enable-background="new " d="m155.2 121.8s9.1 2 20.4-1.4c1-2.5 1.9-4.9 2.7-7.4-4.4 3-14.7 9.2-23.1 8.8z" fill="#10659E"/>
			<path opacity=".3" enable-background="new " d="m152.5 70.1s6.6-13.8 10.8-16c0.9 0.9 1.5 1.3 1.5 1.3s4-5.5 4.9-6c0.9-0.6 1.9-0.8 1.9-0.8l3.2 5.4s-1.3 17.7-2.6 18.2-19.9-1.7-19.9-1.7" fill="#10659E"/>
					<linearGradient id="SVGID_16_" y2="-7.0717" gradientUnits="userSpaceOnUse" x2="645.96" gradientTransform="matrix(-1 0 0 -1 819.19 200)" y1="189.35" x1="645.96">
					<stop stop-color="#8FC4F7" offset="0"/>
					<stop stop-color="#B5A3F5" offset="1"/>
				</linearGradient>
				<path d="m153.1 121.8c0.6-0.2 11.5 1.4 27-10.1s16.6-24.6 16.2-29.8l-5.2 5s4.8-10.9 4.3-19.5l-2.4 1.2s1.7-8.7-2.4-19.3l-1.1 2.2s-2.6-4.5-2.4-5.2c0.2-0.6-4.5-21.2-8.2-23.8s-17.8-8.9-27 2.5c13.8 11.8 22.6 28.9 22.6 28.9l-7.7 6.3s1.9-5.4 3-7.4c-3.2 1.9-8.9 9.7-8.9 9.7l1.7-5.6s-9.9 10.4-12.8 18" fill="url(#SVGID_16_)"/>
				<path d="m153.1 121.8c0.7-0.1 1.3 0 2-0.1 0.7 0 1.3-0.1 2-0.2s1.3-0.2 2-0.3 1.3-0.3 2-0.4c0.6-0.2 1.3-0.3 1.9-0.5s1.3-0.4 1.9-0.6l1.9-0.7c0.6-0.3 1.2-0.5 1.8-0.8l1.8-0.9 1.8-0.9 1.7-1c0.6-0.3 1.1-0.7 1.7-1.1s1.1-0.7 1.7-1.1l1.6-1.2 0.8-0.6 0.8-0.6 1.6-1.3 0.4-0.3 0.4-0.3 0.7-0.7c0.5-0.5 1-0.9 1.5-1.4l1.4-1.4 0.7-0.7 0.6-0.8c0.4-0.5 0.9-1 1.3-1.6l1.2-1.6c0.4-0.5 0.7-1.1 1.1-1.7 0.2-0.3 0.4-0.6 0.5-0.9l0.5-0.9 0.5-0.9c0.2-0.3 0.3-0.6 0.4-0.9 0.3-0.6 0.6-1.2 0.8-1.8 0.5-1.2 0.9-2.5 1.2-3.8l0.2-1c0.1-0.3 0.1-0.7 0.2-1s0.1-0.7 0.2-1l0.1-1c0.1-1.3 0.2-2.6 0.1-4l0.7 0.3-5.2 5-1.5 1.5 0.8-1.9c0.3-0.8 0.6-1.5 0.9-2.3s0.6-1.6 0.8-2.4c0.3-0.8 0.5-1.6 0.7-2.4l0.3-1.2 0.3-1.2c0.2-0.8 0.4-1.6 0.5-2.4 0.1-0.4 0.2-0.8 0.2-1.2l0.2-1.2 0.1-1.2c0.1-0.4 0.1-0.8 0.1-1.2s0.1-0.8 0-1.2v-1.2l0.6 0.4-2.4 1.2-0.8 0.4 0.2-0.8c0.1-0.4 0.1-0.8 0.2-1.2 0-0.4 0.1-0.8 0.1-1.2s0.1-0.8 0.1-1.2v-2.4c0-0.4 0-0.8-0.1-1.2l-0.1-1.2-0.1-1.2c0-0.4-0.1-0.8-0.2-1.2s-0.1-0.8-0.2-1.2l-0.2-1.2-0.3-1.2-0.3-1.2-0.4-1.2c-0.1-0.4-0.3-0.8-0.4-1.1l-0.4-1.1h0.8l-1.1 2.2-0.4 0.7-0.4-0.7c-0.6-1.1-1.2-2.2-1.8-3.4-0.1-0.3-0.3-0.6-0.4-0.9-0.1-0.2-0.1-0.3-0.2-0.5 0-0.1 0-0.2-0.1-0.3v-0.8c0-0.1 0-0.3-0.1-0.5-0.1-0.3-0.1-0.6-0.2-0.9-0.5-2.5-1.1-4.9-1.8-7.4-0.7-2.4-1.4-4.9-2.3-7.2-0.4-1.2-0.9-2.4-1.4-3.5-0.3-0.6-0.5-1.1-0.8-1.7-0.3-0.5-0.6-1.1-1-1.5l-0.3-0.3c-0.1 0-0.1-0.1-0.2-0.1l-0.2-0.1c-0.3-0.2-0.5-0.3-0.8-0.5-0.5-0.3-1.1-0.6-1.7-0.9-1.1-0.5-2.3-1-3.5-1.4-2.4-0.7-4.9-1.2-7.4-1.1-1.2 0-2.5 0.2-3.7 0.4-1.2 0.3-2.4 0.7-3.5 1.3s-2.1 1.2-3.1 2c-0.9 0.8-1.8 1.7-2.6 2.7l-0.1-0.6 1.7 1.6 0.9 0.8 0.8 0.8 1.6 1.6 1.6 1.7c0.5 0.6 1 1.1 1.5 1.7l1.5 1.8 1.5 1.8c0.5 0.6 0.9 1.2 1.4 1.8s0.9 1.2 1.4 1.8 0.9 1.2 1.4 1.9l1.3 1.9 1.3 1.9 1.2 1.9c0.4 0.7 0.8 1.3 1.2 2 0.8 1.3 1.6 2.7 2.3 4l0.2 0.3-0.3 0.2-7.7 6.3-1.2 1 0.5-1.5c0.2-0.6 0.5-1.2 0.7-1.9l0.4-0.9c0.1-0.3 0.2-0.6 0.4-0.9l0.4-0.9c0.1-0.3 0.2-0.6 0.4-0.9l0.9-1.8 0.6 0.6c-0.2 0.1-0.4 0.3-0.6 0.4l-0.6 0.5c-0.4 0.4-0.8 0.7-1.2 1.1l-0.6 0.6-0.6 0.6c-0.4 0.4-0.7 0.8-1.1 1.2-1.4 1.7-2.8 3.4-4.1 5.2l-1.5 2.1 0.8-2.5 1.7-5.6 0.7 0.4c-1.3 1.3-2.5 2.7-3.7 4-0.6 0.7-1.2 1.4-1.8 2.1s-1.2 1.4-1.7 2.2c-0.3 0.4-0.6 0.7-0.8 1.1-0.3 0.4-0.6 0.7-0.8 1.1l-0.8 1.1-0.8 1.2c-0.3 0.4-0.5 0.8-0.7 1.2s-0.5 0.8-0.7 1.2l-0.6 1.2-0.6 1.3 0.5-1.3c0.2-0.4 0.4-0.8 0.6-1.3l0.6-1.2c0.2-0.4 0.4-0.8 0.7-1.2l0.7-1.2 0.8-1.2c0.2-0.4 0.5-0.8 0.8-1.1 0.3-0.4 0.5-0.8 0.8-1.1 0.5-0.8 1.1-1.5 1.7-2.2s1.1-1.5 1.7-2.2c1.2-1.4 2.4-2.8 3.6-4.2l1.3-1.3-0.5 1.8-1.7 5.6-0.8-0.4c1.3-1.8 2.7-3.5 4.1-5.2 0.4-0.4 0.7-0.8 1.1-1.2l0.6-0.6 0.6-0.6 1.2-1.2 0.8-0.8c0.2-0.2 0.5-0.3 0.7-0.5l1.3-0.9-0.7 1.5-0.8 1.8c-0.1 0.3-0.3 0.6-0.4 0.9l-0.4 0.9c-0.1 0.3-0.3 0.6-0.4 0.9l-0.4 0.9c-0.2 0.6-0.5 1.2-0.7 1.9l-0.7-0.5 7.7-6.3-0.1 0.5c-0.7-1.3-1.5-2.7-2.3-4-0.4-0.7-0.8-1.3-1.2-2l-1.2-1.9-1.3-1.9-1.3-1.9c-0.4-0.6-0.9-1.2-1.3-1.9-0.4-0.6-0.9-1.2-1.4-1.8s-0.9-1.2-1.4-1.8l-1.5-1.8c-0.5-0.6-1-1.2-1.5-1.7-0.5-0.6-1-1.2-1.5-1.7l-1.6-1.7-1.6-1.6-0.8-0.8-0.8-0.8-1.7-1.5-0.3-0.3 0.3-0.3c0.8-1 1.7-1.9 2.7-2.8 1-0.8 2.1-1.6 3.3-2.1 1.2-0.6 2.4-1 3.7-1.3s2.6-0.4 3.9-0.5c2.6 0 5.2 0.4 7.6 1.2 1.2 0.4 2.4 0.9 3.6 1.4 0.6 0.3 1.2 0.6 1.7 0.9 0.3 0.2 0.6 0.3 0.8 0.5l0.2 0.1 0.2 0.2 0.2 0.2 0.2 0.2c0.5 0.5 0.8 1.1 1.1 1.6 0.3 0.6 0.6 1.2 0.9 1.7 0.5 1.2 1 2.4 1.4 3.6 0.9 2.4 1.6 4.9 2.3 7.3 0.7 2.5 1.3 4.9 1.8 7.4 0.1 0.3 0.1 0.6 0.2 0.9 0 0.2 0.1 0.3 0.1 0.5v1c0 0.1 0.1 0.3 0.1 0.4 0.1 0.3 0.2 0.6 0.4 0.8 0.5 1.1 1.1 2.2 1.8 3.3h-0.8l1.1-2.2 0.5-0.9 0.3 0.9 0.4 1.2c0.1 0.4 0.3 0.8 0.4 1.2l0.4 1.2 0.3 1.2 0.3 1.2 0.2 1.2c0.1 0.4 0.1 0.8 0.2 1.2s0.1 0.8 0.2 1.2l0.1 1.2 0.1 1.2c0 0.4 0 0.8 0.1 1.2v2.4c0 0.4 0 0.8-0.1 1.2 0 0.4-0.1 0.8-0.1 1.2s-0.1 0.8-0.2 1.2l-0.6-0.5 2.4-1.2 0.6-0.3v3.3c0 0.4 0 0.9-0.1 1.3l-0.1 1.3-0.2 1.3c-0.1 0.4-0.1 0.8-0.2 1.2-0.1 0.8-0.3 1.7-0.5 2.5l-0.3 1.2-0.3 1.2c-0.2 0.8-0.5 1.6-0.7 2.4-0.3 0.8-0.5 1.6-0.8 2.4s-0.6 1.6-0.9 2.4l-0.7-0.5 5.2-5 0.6-0.6 0.1 0.9c0.1 1.4 0.1 2.8 0 4.1l-0.1 1c0 0.3-0.1 0.7-0.2 1s-0.1 0.7-0.2 1l-0.2 1c-0.3 1.3-0.7 2.6-1.2 3.9-0.2 0.7-0.5 1.3-0.8 1.9-0.1 0.3-0.3 0.6-0.4 0.9l-0.5 0.9-0.5 0.9c-0.2 0.3-0.4 0.6-0.5 0.9-0.4 0.6-0.7 1.2-1.1 1.7l-1.2 1.7c-0.4 0.6-0.9 1.1-1.3 1.6l-0.7 0.8c-0.2 0.3-0.5 0.5-0.7 0.7l-1.4 1.5c-0.5 0.5-1 0.9-1.5 1.4l-0.8 0.7-0.4 0.3-0.4 0.3-1.6 1.2-0.8 0.6-0.8 0.6-1.7 1.2c-0.6 0.4-1.1 0.7-1.7 1.1-0.6 0.3-1.1 0.7-1.7 1l-1.8 1-1.8 0.9c-0.6 0.3-1.2 0.6-1.9 0.8-0.6 0.3-1.3 0.5-1.9 0.8l-1.9 0.7c-0.6 0.2-1.3 0.4-2 0.6s-1.3 0.3-2 0.5c-0.7 0.1-1.3 0.3-2 0.4s-1.3 0.2-2 0.2c-0.7 0.1-1.3 0.1-2 0.1-0.7 0.5-1.3 0.4-2 0.4z" fill="#10659E"/>
				<path d="m150.9 73.1s0.6-1 1.5-2.4c0.5-0.7 1-1.5 1.6-2.4 0.3-0.4 0.6-0.9 0.9-1.3s0.7-0.9 1-1.3 0.7-0.9 1-1.3 0.7-0.9 1-1.3c0.6-0.8 1.3-1.6 1.9-2.2 1.1-1.2 1.9-2 1.9-2s-0.6 1-1.5 2.3c-0.2 0.3-0.5 0.7-0.8 1.1s-0.6 0.8-0.9 1.2-0.6 0.9-0.9 1.3-0.7 0.9-1 1.3-0.7 0.9-1 1.3-0.7 0.9-1 1.3c-0.6 0.8-1.3 1.6-1.8 2.2-1.1 1.4-1.9 2.2-1.9 2.2z" fill="#C7EEFF"/>
				<path d="m160.3 64.4s0.4-0.7 1.1-1.7c0.4-0.5 0.8-1 1.3-1.6 0.2-0.3 0.5-0.6 0.7-0.9 0.3-0.3 0.5-0.6 0.8-0.9s0.5-0.6 0.8-0.9 0.5-0.6 0.8-0.9c0.2-0.3 0.5-0.5 0.7-0.8s0.4-0.5 0.7-0.7l0.6-0.6c0.2-0.2 0.3-0.3 0.4-0.5 0.2-0.3 0.4-0.4 0.4-0.4s-0.1 0.2-0.2 0.5c-0.1 0.2-0.2 0.3-0.3 0.6-0.1 0.2-0.3 0.4-0.4 0.7-0.3 0.5-0.7 1.1-1.2 1.7-0.2 0.3-0.5 0.6-0.7 0.9-0.3 0.3-0.5 0.6-0.8 0.9s-0.5 0.6-0.8 0.9-0.5 0.6-0.8 0.8c-0.5 0.5-1 1-1.5 1.4-0.9 1-1.6 1.5-1.6 1.5z" fill="#C7EEFF"/>
				<path d="m174.4 53.6s0.1-0.1 0.3-0.2 0.5-0.3 0.8-0.5c0.2-0.1 0.4-0.2 0.5-0.3l0.6-0.3c0.4-0.2 0.9-0.5 1.4-0.7 0.2-0.1 0.5-0.2 0.7-0.3s0.5-0.2 0.7-0.3c0.4-0.2 0.9-0.3 1.2-0.4 0.7-0.2 1.2-0.4 1.2-0.4s-0.5 0.2-1.2 0.5c-0.4 0.1-0.7 0.4-1.2 0.6l-0.6 0.3c-0.2 0.1-0.4 0.3-0.7 0.4-0.4 0.2-0.9 0.5-1.3 0.8-0.2 0.1-0.4 0.3-0.6 0.4s-0.3 0.2-0.5 0.4c-0.3 0.2-0.5 0.4-0.7 0.6-0.2 0.1-0.3 0.2-0.3 0.2l-0.3-0.8z" fill="#10659E"/>
					<linearGradient id="SVGID_17_" y2="168.7" gradientUnits="userSpaceOnUse" x2="661.64" gradientTransform="matrix(-1 0 0 -1 819.19 200)" y1="174.73" x1="661.64">
					<stop stop-color="#8FC4F7" offset="0"/>
					<stop stop-color="#B5A3F5" offset="1"/>
				</linearGradient>
				<path d="m155.9 28.7s0.6-1.7 3.3-3.2" fill="url(#SVGID_17_)"/>
				<path d="m155.5 28.5s0-0.1 0.1-0.2 0.2-0.3 0.3-0.5c0.2-0.2 0.3-0.4 0.5-0.6l0.3-0.3c0.1-0.1 0.2-0.2 0.4-0.3 0.1-0.1 0.2-0.2 0.4-0.3 0.1-0.1 0.2-0.2 0.4-0.2 0.1-0.1 0.2-0.1 0.3-0.2s0.2-0.1 0.3-0.2c0.4-0.2 0.7-0.3 0.7-0.3s-0.2 0.2-0.6 0.4c-0.1 0.1-0.2 0.1-0.3 0.2l-0.3 0.3-0.3 0.3-0.3 0.3-0.3 0.3c-0.1 0.1-0.2 0.2-0.2 0.3-0.2 0.2-0.3 0.4-0.4 0.6s-0.2 0.3-0.2 0.4v0.2l-0.8-0.2z" fill="#10659E"/>
				<path d="m173.5 52.4s0.2-0.4 0.6-1c0.2-0.3 0.4-0.6 0.6-1s0.5-0.7 0.8-1.1c0.5-0.8 1.1-1.5 1.5-2.1s0.7-0.9 0.7-0.9-0.2 0.4-0.6 1c-0.3 0.6-0.8 1.4-1.2 2.2l-0.6 1.2c-0.2 0.4-0.4 0.7-0.5 1.1l-0.5 1-0.8-0.4z" fill="#10659E"/>
				<path d="m187 47.1s-2.1-2.7-4.3-5.5c-1.1-1.4-2.2-2.7-3-3.7-0.4-0.5-0.8-0.9-1-1.2-0.1-0.1-0.2-0.3-0.3-0.3l-0.1-0.1s0 0 0.1 0.1l0.3 0.3c0.3 0.3 0.6 0.7 1.1 1.1 0.9 1 2.1 2.2 3.2 3.5 2.3 2.6 4.6 5.2 4.6 5.2l-0.6 0.6z" fill="#10659E"/>
			<path opacity=".3" enable-background="new " d="m153.2 24.4c0.9-1 1.8-1.8 2.9-2.6 1.2-0.8 2.4-1.4 3.7-1.9 0.6-0.2 1.1-0.4 1.7-0.5h0.2c0.2-0.1 0.5-0.1 0.7-0.2 0.3-0.1 0.6-0.1 0.9-0.1s0.5-0.1 0.8-0.1c2.4-0.2 4.9 0.1 7.3 0.7 2.5 0.7 5 1.6 7.2 3.1 0.7 0.5 1.2 1.2 1.6 1.9 0.6 1 1 2 1.4 3 0.9 2.1 1.6 4.3 2.2 6.5 0.7 2.2 1.3 4.4 1.8 6.7 0.3 1.1 0.5 2.2 0.8 3.3 0.1 0.5 0.2 0.9 0.3 1.4-3.8-4.6-16.8-17.4-24.3-17.4-3.2 0 8.3 16.3 10.8 20.4 0 0 0.9-0.8 4.1-1.7-2.8 4.7-2 5.2-2 5.2s2.2-0.9 5.8-1.6c-2 0.6-5 2.5-6.1 3.3-0.3-0.5-0.6-1-0.8-1.6l-2.1-3.6c-0.6-0.9-1.2-1.9-1.8-2.8-1.5-2.2-3-4.4-4.6-6.6-3.6-4.8-7.6-9.3-12.1-13.3-0.2-0.2-0.5-0.4-0.7-0.6l-0.2-0.2c0-0.1 0.4-0.7 0.5-0.7z" fill="#10659E"/>
				<path d="m166.2 61.3s0.9-0.8 2.3-1.9c0.7-0.6 1.5-1.2 2.4-1.9 0.4-0.3 0.9-0.7 1.3-1 0.5-0.4 0.9-0.7 1.4-1.1s0.9-0.7 1.4-1.1c0.4-0.4 0.9-0.7 1.3-1.1 0.2-0.2 0.4-0.3 0.7-0.5 0.2-0.2 0.4-0.3 0.7-0.4 0.4-0.3 0.9-0.5 1.2-0.7 0.4-0.2 0.8-0.4 1.1-0.6s0.6-0.3 0.9-0.4c0.5-0.2 0.8-0.3 0.8-0.3s-0.2 0.2-0.7 0.5c-0.2 0.1-0.5 0.3-0.8 0.5s-0.6 0.4-1 0.7c-0.3 0.3-0.7 0.5-1.1 0.9-0.4 0.3-0.8 0.6-1.2 1-0.8 0.7-1.7 1.5-2.6 2.3-0.5 0.4-0.9 0.7-1.4 1.1-0.5 0.3-0.9 0.7-1.4 1s-0.9 0.6-1.3 0.9-0.8 0.5-1.2 0.8c-1.7 0.8-2.8 1.3-2.8 1.3z" fill="#C7EEFF"/>
		<g opacity=".7" fill="#8432CC">
				<ellipse cy="121.8" cx="69.3" rx="3.6" ry="4.4" transform="matrix(.3203 -.9473 .9473 .3203 -68.334 148.43)"/>
				<ellipse cy="114" cx="56.9" rx="2.6" ry="3.2" transform="matrix(.5973 -.802 .802 .5973 -68.53 91.54)"/>
				<ellipse cy="129.4" cx="141.6" rx="2.6" ry="3.2" transform="matrix(.5973 .802 -.802 .5973 160.81 -61.452)"/>
				<ellipse cy="125.5" cx="132.8" rx="3.6" ry="4.4" transform="matrix(-.574 -.8189 .8189 -.574 106.28 306.38)"/>
				<ellipse cy="125.5" cx="83.5" rx="1.8" ry="2.2" transform="matrix(.3203 -.9473 .9473 .3203 -62.129 164.42)"/>
				<ellipse cy="117.5" cx="141.6" rx="1.8" ry="2.2" transform="matrix(.3203 .9473 -.9473 .3203 207.52 -54.302)"/>
				<ellipse cy="137.1" cx="88.7" rx="1.8" ry="2.2" transform="matrix(.3203 -.9473 .9473 .3203 -69.538 177.24)"/>
				<ellipse cy="123.7" cx="117.2" rx="1.8" ry="2.2" transform="matrix(-.4498 -.8931 .8931 -.4498 59.423 283.94)"/>
				<ellipse cy="131.9" cx="77.1" rx=".9" ry="1.1" transform="matrix(.3202 -.9473 .9473 .3202 -72.534 162.72)"/>
				<ellipse cy="127.4" cx="59.9" rx=".9" ry="1.1" transform="matrix(.3202 -.9473 .9473 .3202 -79.962 143.39)"/>
				<ellipse cy="131.9" cx="125" rx=".9" ry="1.1" transform="matrix(.3202 .9473 -.9473 .3202 209.92 -28.746)"/>
				<ellipse cy="140.2" cx="116.8" rx=".9" ry="1.1" transform="matrix(.3202 .9473 -.9473 .3202 212.24 -15.393)"/>
		</g>
</svg>
