<svg xmlns="http://www.w3.org/2000/svg" xmlns:xlink="http://www.w3.org/1999/xlink" viewBox="0 0 263.52 509.28"><defs><style>.a,.an,.aq,.ay,.e,.s,.u{fill:none;}.b{fill:#060d1c;}.as,.b,.l{opacity:0.4;}.c{fill:url(#a);}.d{fill:#3f3f3f;}.ah,.as,.av,.aw,.ax,.d{fill-rule:evenodd;}.e,.f,.g{stroke:#333;}.af,.ah,.an,.aq,.ay,.e,.f,.g,.q,.r,.s,.t,.u,.w,.x{stroke-miterlimit:10;}.as,.av,.f{fill:#fff;}.g{fill:#9f9f9f;}.h{fill:#7f7f7f;}.i{fill:#a7a7a7;}.j{opacity:0.9;}.k{fill:url(#b);}.l{fill:url(#c);}.m{clip-path:url(#d);}.n{opacity:0.7;}.o{fill:url(#e);}.p{fill:url(#f);}.q{fill:#bbb;stroke:#666;}.r,.t,.u,.w,.x{stroke:#000;}.r{fill:url(#g);}.s{stroke:#111;}.t{fill:#1e1e1e;}.v{fill:#dfdfdf;}.w{fill:#191919;}.x{fill:#d0d0d0;}.y{fill:#171d23;}.z{fill:#0c0c0c;}.aa{fill:#bceaff;}.ab{fill:#cbcbcb;}.ac{fill:#7a7a7a;}.ad{fill:#a9a9a9;}.ae{fill:#232323;}.af{stroke:#232323;fill:url(#h);}.ag{opacity:0.8;fill:url(#i);}.ah{fill:#0f0f0f;stroke:#1e1e1e;}.ai{fill:url(#j);}.aj{fill:url(#k);}.ak{fill:#6d6d6d;}.al{fill:#212121;}.am{fill:url(#l);}.an{stroke:#6d0000;}.an,.aq{stroke-width:3px;}.ao{fill:#700000;}.ap{fill:url(#m);}.aq{stroke:#a80000;}.ar{fill:url(#n);}.at{fill:url(#o);}.au{opacity:0.3;}.aw{opacity:0.5;fill:url(#p);}.ax{fill:#870000;}.ay{stroke:#490000;stroke-width:6px;}</style><linearGradient id="a" x1="127.19" y1="3.07" x2="127.19" y2="268.19" gradientUnits="userSpaceOnUse"><stop offset="0" stop-color="#cbcbcb"/><stop offset="0.32" stop-color="#8d8d8d"/><stop offset="0.93" stop-color="#666"/><stop offset="0.97" stop-color="#333"/></linearGradient><linearGradient id="b" x1="1335.54" y1="78.44" x2="1335.54" y2="25.03" gradientTransform="matrix(-1, 0, 0, 1, 1462.78, 0)" gradientUnits="userSpaceOnUse"><stop offset="0" stop-color="#fbfbfb" stop-opacity="0"/><stop offset="0.36" stop-color="#fbfbfb"/><stop offset="0.64" stop-color="#fbfbfb" stop-opacity="0.78"/><stop offset="1" stop-color="#fbfbfb" stop-opacity="0"/></linearGradient><linearGradient id="c" x1="43.12" y1="127.23" x2="211.32" y2="127.23" gradientUnits="userSpaceOnUse"><stop offset="0" stop-color="#636668" stop-opacity="0"/><stop offset="0.14" stop-color="#636668"/><stop offset="0.83" stop-color="#636668"/><stop offset="1" stop-color="#636668" stop-opacity="0"/></linearGradient><clipPath id="d"><path class="a" d="M127.22,85.7c32.34,0,73.17,1.47,88.53,22-.66,23.53-5.89,59.35-6.54,62.62-.53,1.25-2.61,0-2.61,0s-18.29-11.76-79.38-11.76-79.38,11.76-79.38,11.76-2.09,1.25-2.61,0c-.66-3.27-5.89-39.09-6.54-62.62C54.05,87.17,94.88,85.7,127.22,85.7Z"/></clipPath><linearGradient id="e" x1="100.96" y1="88.57" x2="100.96" y2="157.16" gradientUnits="userSpaceOnUse"><stop offset="0" stop-color="#fff" stop-opacity="0"/><stop offset="0.48" stop-color="#fff"/><stop offset="0.73" stop-color="#fff"/><stop offset="1" stop-color="#fff" stop-opacity="0"/></linearGradient><linearGradient id="f" x1="113.42" y1="88.57" x2="113.42" y2="157.16" xlink:href="#e"/><linearGradient id="g" x1="72.9" y1="70.83" x2="73.4" y2="78.33" gradientUnits="userSpaceOnUse"><stop offset="0" stop-color="#323232"/><stop offset="1" stop-color="#141414"/></linearGradient><linearGradient id="h" x1="127.13" y1="252.41" x2="127.13" y2="170.71" gradientUnits="userSpaceOnUse"><stop offset="0" stop-color="#d7d7d7"/><stop offset="0.33" stop-color="#b6b6b6"/><stop offset="1" stop-color="#636162"/></linearGradient><linearGradient id="i" x1="127.13" y1="255.07" x2="127.13" y2="189.31" gradientTransform="matrix(1, 0, 0, 1, 0, 0)" xlink:href="#b"/><linearGradient id="j" x1="65.93" y1="178.74" x2="65.93" y2="166.07" gradientUnits="userSpaceOnUse"><stop offset="0" stop-color="#a9a9a9"/><stop offset="1" stop-color="#a9a9a9" stop-opacity="0"/></linearGradient><linearGradient id="k" x1="188.25" y1="178.74" x2="188.25" y2="166.07" xlink:href="#j"/><linearGradient id="l" x1="127.22" y1="267.77" x2="127.22" y2="470.25" gradientUnits="userSpaceOnUse"><stop offset="0" stop-color="#df0000"/><stop offset="1" stop-color="#a00404"/></linearGradient><linearGradient id="m" x1="127.22" y1="290.74" x2="127.22" y2="351.97" xlink:href="#l"/><linearGradient id="n" x1="127.22" y1="346.08" x2="127.22" y2="387.35" xlink:href="#l"/><linearGradient id="o" x1="127.24" y1="346.82" x2="127.24" y2="358.64" xlink:href="#l"/><linearGradient id="p" x1="127.04" y1="270.32" x2="127.04" y2="275.08" gradientUnits="userSpaceOnUse"><stop offset="0" stop-color="#700000" stop-opacity="0"/><stop offset="1" stop-color="#700000"/></linearGradient></defs><path class="b" d="M262.22,153.35c-3-3.94-13.75-7.27-19-7.3-.22-16.16-1.09-39.48-2.9-60.39-1-11.76-2.23-21.35-3.59-28.51-2.24-11.81-4.51-14.86-6.24-16.19l-.82-.64c-8.8-6.83-29.39-22.82-89.7-22.82S59,33.49,50.25,40.32l-.83.64c-1.73,1.33-4,4.37-6.24,16.18-1.36,7.16-2.56,16.75-3.59,28.51-1.81,20.91-2.67,44.23-2.9,60.4h-.18c-5.25,0-16.12,3.34-19.11,7.3a6.71,6.71,0,0,0,.2,8.16l1.24,1.54.46-.13a10.09,10.09,0,0,0,6.06,1.66,24.59,24.59,0,0,0,6.26-.93,38.12,38.12,0,0,0,5.68-1.91,17,17,0,0,0,.92,2.95l-.74,107.83a5.83,5.83,0,0,0-.58.23H35.19V274a5.48,5.48,0,0,0-1.5,3.77v226a5.44,5.44,0,0,0,1.5,3.76v.24h.23a5.48,5.48,0,0,0,3.77,1.5H240.76a5.44,5.44,0,0,0,3.76-1.5h.24v-.24a5.44,5.44,0,0,0,1.5-3.76v-226a5.48,5.48,0,0,0-1.5-3.77v-1.23h-1.71a4.6,4.6,0,0,0-.65-.25l-.74-107.81a16.48,16.48,0,0,0,.9-2.85,38.07,38.07,0,0,0,5.44,1.81,24.53,24.53,0,0,0,6.26.93,10.09,10.09,0,0,0,6.06-1.66l.46.13,1.23-1.54A6.7,6.7,0,0,0,262.22,153.35Zm-2.85,1.31-.11-.11ZM249,157.9a38.26,38.26,0,0,1,8.23,3.26l-.05,0A46.22,46.22,0,0,0,249,157.9ZM22.48,161.18l-.05,0a38.37,38.37,0,0,1,8.22-3.26A46.46,46.46,0,0,0,22.48,161.18ZM39,156.66v0Zm0-.17.29,0Zm0,.11v0Zm0,0v0Zm0,0h0Zm199.83,7.26h0Zm-.08.14v0Zm1.53-7.46h0v0Zm-3-70.85,0,.34Zm.16,1.81c0,.19,0,.39,0,.59C237.46,87.81,237.44,87.61,237.43,87.42Zm.15,1.91c0,.26,0,.52.07.78C237.63,89.85,237.61,89.59,237.58,89.33Zm.17,2,.06.81Zm.16,2.09.06.84Zm.15,2.08.06.89Zm.15,2.13.06.89Zm.14,2.1.06,1Zm.13,2.12c0,.33.05.65.07,1C238.53,102.55,238.5,102.23,238.48,101.9Zm.14,2.16.06,1Zm.12,2.14.06,1Zm.13,2.15c0,.33,0,.66,0,1C238.9,109,238.88,108.68,238.87,108.35Zm.11,2.16c0,.33,0,.65.05,1C239,111.16,239,110.84,239,110.51Zm.11,2.14c0,.33,0,.67,0,1C239.13,113.32,239.11,113,239.09,112.65Zm.11,2.14c0,.33,0,.65,0,1C239.23,115.44,239.21,115.12,239.2,114.79Zm.1,2.16c0,.31,0,.62,0,.93C239.33,117.57,239.31,117.26,239.3,117Zm.09,2.09c0,.33,0,.66.05,1C239.42,119.7,239.41,119.37,239.39,119Zm.09,2.13c0,.3,0,.6,0,.9C239.51,121.77,239.5,121.47,239.48,121.17Zm.09,2.11,0,.88Zm.08,2.06,0,.9Zm.07,2.06,0,.85Zm.07,2,0,.75Zm.07,2c0,.18,0,.35,0,.53C239.87,131.84,239.87,131.67,239.86,131.49Zm.06,2v0Zm.05,2s0,0,0,.08S240,135.48,240,135.46Zm-7.13-82.08c0,.19.09.39.14.58C232.93,53.77,232.89,53.57,232.84,53.38Zm.29,1.28c.05.2.09.41.14.61C233.22,55.07,233.18,54.86,233.13,54.66Zm.29,1.36c0,.2.08.41.13.62C233.5,56.43,233.46,56.22,233.42,56Zm.28,1.4.12.65Zm.27,1.46.12.66Zm.27,1.52c0,.22.07.44.11.66C234.31,60.84,234.28,60.62,234.24,60.4ZM234.5,62c0,.22.07.45.11.68C234.57,62.42,234.53,62.19,234.5,62Zm.25,1.61c0,.23.07.46.1.69C234.82,64,234.78,63.81,234.75,63.58Zm.25,1.68.09.65Zm.24,1.7.09.67Zm.23,1.75.09.66Zm.23,1.8c0,.21.05.42.08.64C235.75,70.93,235.73,70.72,235.7,70.51Zm.22,1.83c0,.19.05.38.07.57C236,72.72,236,72.53,235.92,72.34Zm.22,1.87.06.49Zm.21,1.91,0,.29Zm.2,1.92a.15.15,0,0,1,0,.07A.15.15,0,0,0,236.55,78Zm-193-2.57.15-1.36Zm.23-2c0-.41.09-.83.14-1.24C43.92,72.65,43.87,73.07,43.83,73.48Zm.22-1.9c.05-.39.1-.79.14-1.17C44.15,70.79,44.1,71.19,44.05,71.58Zm.23-1.85c0-.37.09-.75.14-1.12C44.37,69,44.33,69.36,44.28,69.73Zm.23-1.79.15-1.08Zm.24-1.76q.07-.53.15-1Q44.83,65.66,44.75,66.18ZM45,64.45l.15-1Zm.25-1.64.15-.94Zm.26-1.61.15-.88Zm.26-1.55c.06-.29.11-.57.16-.85C45.88,59.08,45.83,59.36,45.77,59.65Zm.27-1.5c.06-.27.11-.54.16-.81C46.15,57.61,46.1,57.88,46,58.15Zm.28-1.44c0-.26.1-.51.16-.77C46.42,56.2,46.37,56.45,46.32,56.71Zm.28-1.38c.06-.24.11-.49.16-.73C46.71,54.84,46.66,55.09,46.6,55.33ZM46.89,54c.06-.23.11-.47.17-.69C47,53.54,47,53.78,46.89,54ZM41.1,163.78h0Zm.13.22,0,0Zm-.06-.09h0Zm199.14-7.44.35,0Zm.34.15v0Zm0-.11h0Zm0,0v0Zm0,0v0Zm2.58-7.52h0Zm15.47,5-.12-.08Zm-.76-.52-.11-.08ZM257,153l-.2-.11Zm-1.08-.57-.09,0Zm-1-.45-.24-.1Zm-1.23-.51-.23-.09Zm-1.17-.44-.18-.06Zm-1.24-.41-.28-.09Zm-1.36-.41-.17-.05Zm-1.13-.31-.26-.06Zm-1.3-.3-.25-.05Zm-1.18-.23-.14,0Zm-1.1-.17-.24,0Zm-1.14-.12h0Zm-1.74,0-.16,0Zm-.69.1-.09,0Zm-.56.18-.1,0Zm-8.44-96.65c0-.18-.09-.37-.14-.55C232.59,52.34,232.64,52.53,232.68,52.71Zm-.3-1.18c0-.18-.09-.36-.14-.54C232.29,51.17,232.34,51.35,232.38,51.53Zm-.3-1.12-.15-.51Zm-.32-1-.15-.48Zm-.32-1c-.05-.15-.1-.3-.16-.45C231.34,48.08,231.39,48.23,231.44,48.38Zm-.32-.91c-.06-.14-.12-.28-.17-.42C231,47.19,231.06,47.33,231.12,47.47Zm-.34-.83-.18-.39Zm-1-2-.21-.3Zm.7,1.28q-.09-.2-.18-.36Q230.35,45.7,230.44,45.89Zm-.35-.68c-.06-.12-.13-.22-.19-.33C230,45,230,45.09,230.09,45.21Zm-.71-1.11a3.33,3.33,0,0,0-.25-.28A3.33,3.33,0,0,1,229.38,44.1Zm-.37-.42a3.88,3.88,0,0,0-.38-.34A3.88,3.88,0,0,1,229,43.68ZM51.25,43.34a3.88,3.88,0,0,0-.38.34A3.88,3.88,0,0,1,51.25,43.34Zm-.88,1c-.08.1-.15.2-.23.32C50.22,44.5,50.29,44.4,50.37,44.3Zm.39-.49c-.09.09-.17.19-.26.29C50.59,44,50.67,43.9,50.76,43.81Zm-3.57,8.95c.05-.23.11-.45.16-.66C47.3,52.31,47.24,52.53,47.19,52.76Zm.3-1.2c.06-.21.11-.42.17-.62C47.6,51.14,47.55,51.35,47.49,51.56Zm.31-1.12.17-.59Zm.31-1.06.18-.54Zm.33-1,.18-.51Zm.32-.91L49,47Zm.34-.84c.06-.15.13-.29.19-.43C49.23,46.36,49.16,46.5,49.1,46.65Zm.34-.76c.06-.14.13-.26.2-.39C49.57,45.63,49.5,45.75,49.44,45.89Zm.35-.68.21-.35ZM43.34,78c-.21,2-.4,4-.59,6C42.94,81.93,43.13,79.91,43.34,78Zm.2-1.94c0,.53-.11,1.07-.17,1.61C43.43,77.08,43.49,76.54,43.54,76ZM40,133.8v0Zm.06-1.93v0Zm.06-1.89c0-.16,0-.32,0-.49C40.08,129.66,40.08,129.82,40.07,130Zm.06-1.91,0-.63Zm.07-1.91,0-.81Zm.08-2,0-.84Zm.08-2c0-.3,0-.6,0-.89C40.38,121.47,40.37,121.77,40.36,122.07Zm.09-2.14c0-.28,0-.57,0-.85C40.47,119.36,40.46,119.65,40.45,119.93Zm.09-2.06c0-.31,0-.63,0-1C40.57,117.24,40.55,117.56,40.54,117.87Zm.1-2.12c0-.32,0-.63,0-1C40.67,115.12,40.65,115.43,40.64,115.75Zm.1-2.13c0-.33,0-.65,0-1C40.77,113,40.76,113.29,40.74,113.62Zm.11-2.12c0-.35,0-.7,0-1C40.88,110.8,40.87,111.15,40.85,111.5Zm.11-2.12.06-1.09Zm.12-2.15.06-1.11Zm.12-2.15c0-.38,0-.76.07-1.15C41.25,104.32,41.23,104.7,41.2,105.08Zm.13-2.14c0-.39.05-.78.08-1.16C41.38,102.16,41.36,102.55,41.33,102.94Zm.14-2.15c0-.4.05-.8.08-1.2C41.52,100,41.49,100.39,41.47,100.79Zm.14-2.14c0-.41,0-.81.08-1.22C41.66,97.84,41.64,98.24,41.61,98.65Zm.15-2.14c0-.41.06-.83.08-1.24C41.81,95.68,41.78,96.1,41.76,96.51Zm.15-2.12L42,93.13Zm.16-2.12c0-.43.06-.87.1-1.3C42.13,91.4,42.1,91.84,42.07,92.27Zm.16-2.1c0-.46.07-.92.11-1.38C42.3,89.25,42.27,89.71,42.23,90.17Zm.17-2.08.12-1.45ZM42.57,86l.15-1.69ZM39.65,149.6h0a5.39,5.39,0,0,1-.71.05A5.39,5.39,0,0,0,39.65,149.6Zm-1-.19-.1,0ZM38,149.2l-.08,0Zm-.62-.1-.15,0Zm-.84,0h0Zm-15.64,5L21,154Zm.76-.52.11-.07Zm.91-.54.19-.11Zm1.09-.57.07,0Zm1-.45.22-.1Zm1.22-.51.22-.09Zm1.18-.44.16-.06Zm1.23-.41.28-.09Zm1.36-.41.16-.05Zm1.14-.31.25-.06Zm1.29-.3.25-.05Zm1.18-.23.14,0Zm1.1-.17.24,0Zm1.14-.12h0Zm-15.16,5.46-.1.11Zm-.05,5h0l-.36.1Zm10.55,1.22c5-1.33,7-2.51,7.69-3.29C37.81,158.24,35.88,159.42,30.85,160.75ZM39,156.68v0Zm0,.07a.15.15,0,0,1,0,.06A.15.15,0,0,0,39,156.75Zm0,.07,0,.07Zm0,.09a.59.59,0,0,1,0,.08A.59.59,0,0,0,38.91,156.91Zm0,.09,0,.09Zm-.06.1-.06.1Zm-.07.11a.94.94,0,0,1-.09.12A.94.94,0,0,0,38.74,157.21Zm-.09.12-.1.12Zm202.06-.42c.26.68,1.63,2.14,8.06,3.84C242.34,159.05,241,157.59,240.71,156.91Zm-.06-.23a.07.07,0,0,1,0,0A.07.07,0,0,0,240.65,156.68Zm0,.07a.64.64,0,0,1,0,.07A.64.64,0,0,0,240.66,156.75Zm0,.07,0,.08Zm18.64,2.71h0l.36.1Z"/><path class="c" d="M226.65,258.58l-.75-108.75s1.85-2.92,1.6-10.92c-.1-33.08-3.4-103.41-11.62-109.74S188.46,6.33,127.19,6.33s-80.47,16.5-88.7,22.84S27,105.83,26.87,138.91c-.25,8,1.6,10.92,1.6,10.92l-.75,108.75Z"/><path class="d" d="M42.22,258.58S28.8,252.06,27.46,233.9v24.68Z"/><path class="d" d="M212,258.58s13.41-6.52,14.75-24.68v24.68Z"/><path class="e" d="M31.4,118.33S33.54,62.15,34.73,52"/><path class="e" d="M223.35,121.87s-2.57-56-3.76-66.19"/><path class="f" d="M34.47,58.58c-.25-6.5,1.75-20.25,5.75-24.75s35.3-19,31.39-15.82c-7.35,6.06-30.39,25.57-32.89,29.32S36.47,58.33,34.47,58.58Z"/><path class="f" d="M219.51,58.58c.25-6.5-1.75-20.25-5.75-24.75s-35.3-19-31.39-15.82c7.35,6.06,30.39,25.57,32.89,29.32S217.51,58.33,219.51,58.58Z"/><path class="g" d="M127.22,84.38c31.93,0,72,2.49,88.73,21.68l.11-.71s-1.68-51.28-3.68-61c-2.15-2.65-18.59-17.53-28.13-24.95-.56-.46-1.14-.91-1.74-1.33l-1-.72h-.11c-13.59-8.66-36.64-9-54.19-9s-40.6.34-54.19,9h0a28.78,28.78,0,0,0-3.66,2.73l-.26.25c-9.65,7.67-24.87,21.47-26.92,24-2,9.74-3.69,61.73-3.69,61.73h0C55.25,86.87,95.29,84.38,127.22,84.38Z"/><path class="h" d="M127.28,83.67c29.2,0,65.05,3.43,84.47,17.68,2-3.47-12.56-68.75-25.46-80s-39.38-13-59-13-46,1.68-59,13-27.49,76.53-25.45,80C62.23,87.1,98.07,83.67,127.28,83.67Z"/><path class="i" d="M127.28,83.67c28.63,0,63.77,2,82.81,16.26,2-3.47-12.31-68.61-25-79.86S146.53,8.33,127.28,8.33s-45.12.4-57.87,11.74S42.46,96.46,44.46,99.93C63.5,85.68,98.65,83.67,127.28,83.67Z"/><g class="j"><path class="k" d="M127.25,80.24c12.25,0,30.52.71,30.52.71s-3.93-18-.21-19c9.35-2.39,43,9.36,43,9.36S191.14,29,186.87,26.82s-41.49-6-59.62-6-55.35,3.81-59.62,6S54,71.35,54,71.35s33.91-11.5,43.26-9.08c3.67.95.07,18.68.07,18.68S115,80.24,127.25,80.24Z"/></g><path d="M127.22,83.67c33,0,74.66,2.66,90.33,23.66-.67,24-6,62-6.67,65.34-.54,1.28-2.66,0-2.66,0s-18.67-12-81-12-81,12-81,12-2.13,1.28-2.67,0c-.66-3.34-6-41.34-6.66-65.34C52.55,86.33,94.22,83.67,127.22,83.67Z"/><path d="M127.22,85.7c32.34,0,73.17,1.47,88.53,22-.66,23.53-5.89,59.35-6.54,62.62-.53,1.25-2.61,0-2.61,0s-18.29-11.76-79.38-11.76-79.38,11.76-79.38,11.76-2.09,1.25-2.61,0c-.66-3.27-5.89-39.09-6.54-62.62C54.05,87.17,94.88,85.7,127.22,85.7Z"/><path class="l" d="M127.22,87.83c30.72,0,69.51,1.36,84.1,20.39-.62,21.75-5.59,54.87-6.21,57.89-.5,1.16-2.48,0-2.48,0s-17.38-10.87-75.41-10.87-75.41,10.87-75.41,10.87-2,1.16-2.48,0c-.62-3-5.59-36.14-6.21-57.89C57.7,89.19,96.5,87.83,127.22,87.83Z"/><g class="m"><g class="n"><rect class="o" x="94.33" y="78.47" width="13.25" height="89.79"/><rect class="p" x="111.28" y="78.47" width="4.29" height="89.79"/></g></g><path d="M86.17,94.34s1-.27,2.73-.63c.88-.19,1.95-.41,3.17-.61s2.6-.48,4.12-.7l4.89-.62c1.74-.24,3.58-.41,5.48-.54l5.87-.45,6.08-.2c2,0,4.07-.13,6.08-.12s4,.09,5.88.13l5.5.16c1.74.07,3.39.24,4.91.36,3,.24,5.57.51,7.34.67s2.78.29,2.78.29l-.07,1s-1,0-2.79,0-4.3,0-7.34,0c-1.51,0-3.16-.07-4.89-.07l-5.47.06c-1.89,0-3.85,0-5.84,0s-4,.12-6,.17l-6,.15-5.83.29c-1.89.1-3.72.16-5.44.31l-4.88.34-4.12.35c-1.23.09-2.29.21-3.16.31s-1.57.15-2,.22l-.73.09Z"/><path d="M67,93.29c.14,2.16,1.67,1.51,19.25.13,7.2-.56,17.1-.66,30.7-1.66C70.18,91.22,66.94,92.05,67,93.29Z"/><path d="M121.47,92.9V90.51s-8.5.24-10.25.38v2.58Z"/><path d="M151.26,91.49s1,0,2.8.07c.89,0,2,.1,3.22.2s2.64.2,4.16.37l4.89.62c1.74.21,3.56.51,5.44.86l5.8,1L183.5,96c2,.48,4,.91,5.91,1.43s3.82,1.08,5.66,1.59,3.6,1.06,5.28,1.54,3.22,1.09,4.67,1.59c2.88,1,5.26,1.9,6.93,2.49s2.62,1,2.62,1l-.32,1s-1-.23-2.7-.68-4.18-1.06-7.1-1.88c-1.47-.39-3-.86-4.72-1.29l-5.31-1.32c-1.83-.47-3.73-.93-5.65-1.45s-3.91-.89-5.87-1.35L177,97.22,171.32,96c-1.86-.38-3.64-.78-5.35-1.07l-4.81-.91-4.07-.68c-1.22-.23-2.27-.38-3.15-.5s-1.55-.25-2-.3l-.73-.1Z"/><path d="M132.66,87.54c-.28,2.14,1.35,1.8,18.86,3.84,7.18.84,16.91,2.66,30.44,4.3C136.16,86.11,132.83,86.31,132.66,87.54Z"/><path d="M185.78,99l.6-2.31s-8.28-1.91-10-2.22L175.72,97Z"/><path class="q" d="M49,88.58c1-3.94,4.75-13.75,6.75-15.5s38.38-11.89,40.5-9.5.4,15.21-.85,16.71c-.68.81-12,1.75-23.46,4.43A128.19,128.19,0,0,0,52,91.4C49.72,92.4,48.4,90.81,49,88.58Z"/><path class="r" d="M52.65,85.84c.88-3.13,2.58-9.77,4.35-11.16S91.58,64,93.45,65.87,93.8,76.78,92.7,78c-.59.64-10.61,1.81-20.69,3.94a107.18,107.18,0,0,0-17.59,5.58C52.43,88.28,52.16,87.61,52.65,85.84Z"/><line class="s" x1="54.1" y1="88.15" x2="58.03" y2="74.74"/><line class="s" x1="56.6" y1="87.24" x2="60.54" y2="73.83"/><line class="s" x1="59.01" y1="86.39" x2="62.95" y2="72.98"/><line class="s" x1="61.7" y1="85.25" x2="65.36" y2="72.13"/><line class="s" x1="64.39" y1="84.26" x2="67.77" y2="71.42"/><line class="s" x1="66.94" y1="83.7" x2="70.32" y2="70.57"/><line class="s" x1="69.35" y1="83.27" x2="73.01" y2="69.86"/><line class="s" x1="72.19" y1="82.42" x2="75.14" y2="69.44"/><line class="s" x1="74.74" y1="82" x2="77.12" y2="69.01"/><line class="s" x1="77.43" y1="81.29" x2="79.1" y2="68.73"/><line class="s" x1="92.64" y1="66.13" x2="92.27" y2="78.47"/><line class="s" x1="90.8" y1="66.13" x2="90.01" y2="78.89"/><line class="s" x1="88.67" y1="66.13" x2="87.88" y2="79.32"/><line class="s" x1="86.41" y1="66.98" x2="85.47" y2="79.6"/><line class="s" x1="84" y1="67.54" x2="82.78" y2="80.31"/><line class="s" x1="81.44" y1="67.97" x2="80.23" y2="80.74"/><path class="s" d="M52.79,86.34c.88-3.13,2.58-9.77,4.34-11.16s34.59-10.7,36.46-8.81.35,10.91-.75,12.1c-.59.64-10.61,1.81-20.69,3.94A107.18,107.18,0,0,0,54.56,88C52.57,88.78,52.29,88.11,52.79,86.34Z"/><path class="q" d="M206.09,88.58c-1-3.94-4.75-13.75-6.75-15.5s-38.38-11.89-40.5-9.5-.4,14.64.85,16.14c.67.82,12,1.76,23.46,4.44a127.48,127.48,0,0,1,19.94,6.67C205.34,91.83,206.66,90.81,206.09,88.58Z"/><path class="t" d="M202.41,85.84c-.89-3.13-2.58-9.77-4.35-11.16S163.48,64,161.61,65.87s-.36,10.91.75,12.1c.59.64,10.6,1.81,20.69,3.94a107.18,107.18,0,0,1,17.59,5.58C202.62,88.28,202.9,87.61,202.41,85.84Z"/><line class="u" x1="201.1" y1="87.65" x2="197.16" y2="74.24"/><line class="u" x1="198.59" y1="86.74" x2="194.66" y2="73.33"/><line class="u" x1="196.19" y1="85.89" x2="192.25" y2="72.48"/><line class="u" x1="193.5" y1="84.75" x2="189.84" y2="71.63"/><line class="u" x1="190.8" y1="83.76" x2="187.43" y2="70.92"/><line class="u" x1="188.25" y1="83.2" x2="184.88" y2="70.07"/><line class="u" x1="185.84" y1="82.77" x2="182.19" y2="69.36"/><line class="u" x1="183.01" y1="81.92" x2="180.06" y2="68.94"/><line class="u" x1="180.46" y1="81.5" x2="178.08" y2="68.51"/><line class="u" x1="177.76" y1="80.79" x2="176.09" y2="68.23"/><line class="u" x1="162.56" y1="65.63" x2="162.92" y2="77.97"/><line class="u" x1="164.4" y1="65.63" x2="165.19" y2="78.39"/><line class="u" x1="166.52" y1="65.63" x2="167.32" y2="78.82"/><line class="u" x1="168.79" y1="66.48" x2="169.72" y2="79.1"/><line class="u" x1="171.2" y1="67.04" x2="172.42" y2="79.81"/><line class="u" x1="173.75" y1="67.47" x2="174.97" y2="80.24"/><path class="v" d="M185.14,20.07C172.39,8.73,146.53,8.33,127.28,8.33s-45.12.4-57.86,11.74A17.09,17.09,0,0,0,67,22.8c2.61,1.75,28.59-5,60.26-4.71,31.67-.33,57.64,6.46,60.25,4.71A17.58,17.58,0,0,0,185.14,20.07Z"/><path class="w" d="M181.68,17.55s0,0,0,0c-13.56-8.83-36.8-9.18-54.47-9.18s-40.8.35-54.37,9.12l0,.1c-3.82,4.28,22-3.55,54.4-3.22C159.66,14,185.5,21.83,181.68,17.55Z"/><path class="e" d="M78.13,16.59s20.21-5.76,49.15-5.76,48.79,5.76,48.79,5.76"/><line class="e" x1="78.13" y1="18.54" x2="78.13" y2="14.64"/><line class="e" x1="175.9" y1="18.54" x2="176.04" y2="14.64"/><path class="u" d="M181.68,17.55s0,0,0,0c-13.56-8.83-36.8-9.18-54.47-9.18s-40.8.35-54.37,9.12l0,.1c-3.82,4.28,22-3.55,54.4-3.22C159.66,14,185.5,21.83,181.68,17.55Z"/><ellipse class="x" cx="127.28" cy="10.83" rx="5.25" ry="1.5"/><path d="M38.72,235.83a17.75,17.75,0,0,0,1.1-5.5s1.26-44.5,1.26-52S34.67,113.17,31.84,113c-1.33,1.33-1.29,21.42-1.29,21.42s1.5,88.92,1.5,95.29C32.05,232,37.47,238.69,38.72,235.83Z"/><path class="y" d="M37.78,233.16a22.68,22.68,0,0,0,.76-5.27s.86-41.52.86-48.51-5.24-62.5-7.19-62.65c-.91,1.24,0,21.68,0,21.68s1,84.09,1,90C33.21,230.58,36.92,235.83,37.78,233.16Z"/><polygon points="39.4 180.17 33.74 175.6 33.74 171.78 39.24 176.26 39.4 180.17"/><path d="M215.78,235.83a17.75,17.75,0,0,1-1.1-5.5s-1.26-44.5-1.26-52,6.4-65.16,9.24-65.33c1.33,1.33,1.29,21.42,1.29,21.42s-1.5,88.92-1.5,95.29C222.45,232,217,238.69,215.78,235.83Z"/><path class="y" d="M216.72,233.16a22.68,22.68,0,0,1-.76-5.27s-.86-41.52-.86-48.51,5.24-62.5,7.18-62.65c.92,1.24,0,21.68,0,21.68s-1,84.09-1,90C221.29,230.58,217.57,235.83,216.72,233.16Z"/><polygon points="215.1 180.17 220.75 175.6 220.75 171.78 215.25 176.26 215.1 180.17"/><path d="M7.18,145.46A3.76,3.76,0,0,1,7,141c2.75-3.65,17.05-7.65,19.15-5.5l0,4.69Z"/><path class="z" d="M32.34,132.46c3.48-.39,5.71,9.46,4.55,16.08-1.17,5-3.3-6.33-7.67-6.33a41.39,41.39,0,0,0-20.38,5.25c-1.5-.25-1.37-2-1.37-2s1.72-3.13,18.72-6.13v-3.85C30.47,135.36,31.78,132.53,32.34,132.46Z"/><path class="aa" d="M8.84,147.46s.31,1.49,9.25-.88,8.1-4.26,8.1-4.26S18.59,142.21,8.84,147.46Z"/><path class="ab" d="M44.28,45.91c1.27-2,13.42-13.48,18.53-18.17C53.39,43.57,45.05,71.57,41.08,99.93Z"/><path class="ab" d="M210.29,45.91c-1.28-2-13.42-13.48-18.54-18.17,9.43,15.83,17.76,43.83,21.74,72.19Z"/><path d="M246.92,145.46a3.75,3.75,0,0,0,.15-4.48c-2.76-3.65-17.06-7.65-19.15-5.5l0,4.69Z"/><path class="z" d="M221.76,132.46c-3.47-.39-5.7,9.46-4.54,16.08,1.17,5,3.29-6.33,7.67-6.33a41.35,41.35,0,0,1,20.37,5.25c1.5-.25,1.38-2,1.38-2s-1.72-3.13-18.72-6.13v-3.85C223.64,135.36,222.33,132.53,221.76,132.46Z"/><path class="aa" d="M245.26,147.46s-.3,1.49-9.25-.88-8.09-4.26-8.09-4.26S235.51,142.21,245.26,147.46Z"/><path class="ac" d="M127.14,176.33A307.55,307.55,0,0,1,165,178.8V165.32c-5.75-.75-16.25-1.5-37.9-1.5s-32.15.75-37.9,1.5V178.8h0A307.87,307.87,0,0,1,127.14,176.33Z"/><path class="ad" d="M89.23,165.32s27,1.59,38,1.59c10.33,0,37.81-1.59,37.81-1.59-5.75-.75-16.25-1.5-37.9-1.5S95,164.57,89.23,165.32Z"/><path class="ae" d="M89.23,165.32l2.32,10a338.44,338.44,0,0,1,35.35-2.07c18.06,0,35.82,1.52,35.82,1.52l2.31-9.44,0,13.48s-22.18-2.47-37.92-2.47-37.9,2.57-37.9,2.57Z"/><path class="af" d="M127.13,258.58H210s.89-68.42-2.45-69.85c-14-6.6-49-12.4-80.41-12.4s-66.41,5.8-80.42,12.4c-3.33,1.43-2.44,69.85-2.44,69.85h82.86"/><path class="ag" d="M127.13,258.15H201.7s.8-61.57-2.2-62.86c-12.61-5.95-44.11-11.16-72.37-11.16s-59.77,5.21-72.38,11.16c-3,1.29-2.2,62.86-2.2,62.86h74.58"/><path class="ah" d="M165.21,258.58s-3.74-5-6.24-5H95.47c-2.5,0-6.24,5-6.24,5Z"/><path class="ai" d="M44.59,187.06V175C50.72,171.78,70.75,166,87,164.9l.28,11.85S59.72,180.17,44.59,187.06Z"/><path class="aj" d="M209.6,187.06V175c-6.13-3.25-26.16-9.07-42.42-10.13l-.28,11.85S194.47,180.17,209.6,187.06Z"/><path class="ak" d="M39.4,49.24s-3.66,54.5-3.59,62.66-2.75,0-2.75,0L35.6,59.74C37.39,58.57,39.4,49.24,39.4,49.24Z"/><path class="ak" d="M214.76,49.24s3.66,54.5,3.59,62.66,2.75,0,2.75,0l-2.54-52.16C216.78,58.57,214.76,49.24,214.76,49.24Z"/><path class="al" d="M127.19,6.33c61.27,0,80.46,16.5,88.69,22.84,8,6.12,11.3,72,11.6,106.28.15,0,.29,0,.44,0a3.58,3.58,0,0,1,2.44-.6c4.79,0,14.49,3.16,16.71,6.1a3.75,3.75,0,0,1-.15,4.48l-.35-.1a.59.59,0,0,1,.07.1s-.94,1.95-5.14,1.95a21.79,21.79,0,0,1-5.49-.83c-8.92-2.36-8.09-4.25-8.09-4.26l-.44,0c-.27,5.45-1.58,7.54-1.58,7.54l.75,108.75H27.72l.75-108.75s-1.31-2.09-1.58-7.55l-.7,0s.83,1.9-8.1,4.26a21.66,21.66,0,0,1-5.48.83c-4.2,0-5.14-1.95-5.14-1.95a.59.59,0,0,1,.07-.1l-.36.1A3.76,3.76,0,0,1,7,141c2.22-2.94,11.92-6.1,16.71-6.1a3.58,3.58,0,0,1,2.44.6,5.36,5.36,0,0,0,.7,0c.31-34.27,3.66-100.14,11.6-106.26,8.23-6.34,27.42-22.84,88.7-22.84m0-6C65.84.33,44.68,16.77,35.65,23.78l-.82.63c-3.28,2.53-5.41,7.74-7.35,18-1.38,7.25-2.6,16.94-3.63,28.8C22.13,91.05,21.26,113,21,129.09c-6,.79-15.34,3.79-18.72,8.28a9.66,9.66,0,0,0,.26,11.85L5,152.3,6.11,152a14.15,14.15,0,0,0,6.5,1.43,27.83,27.83,0,0,0,7-1c1-.27,2-.54,2.83-.82l-.74,107,0,6h211l0-6-.73-106.89c.79.25,1.65.49,2.56.73a27.77,27.77,0,0,0,7,1A14.15,14.15,0,0,0,248,152l1.12.32,2.48-3.08a9.67,9.67,0,0,0,.26-11.85c-3.34-4.42-12.47-7.4-18.46-8.25-.29-16-1.15-38.05-2.88-57.89-1-11.86-2.25-21.55-3.62-28.81-2-10.26-4.08-15.48-7.36-18l-.82-.63c-9-7-30.19-23.45-91.53-23.45Z"/><rect class="am" x="22.43" y="259.58" width="209.58" height="234.03" rx="4"/><rect class="an" x="22.43" y="259.58" width="209.58" height="234.03" rx="4"/><rect class="ao" x="47.06" y="286.98" width="160.31" height="81.54" rx="2"/><rect class="ap" x="51.31" y="286.44" width="151.81" height="76.67" rx="2"/><rect class="aq" x="51.31" y="286.44" width="151.81" height="76.67" rx="2"/><rect class="ar" x="58.9" y="288.14" width="136.63" height="73.27" rx="2"/><path class="as" d="M61.41,355.58c0-2,.14-59.62.14-59.62s-1-4.22,4-4.22c6.67,0,120.69-.36,125.34,0-4.34.86-119.67,0-125,4.66S62.39,352.41,61.41,355.58Z"/><rect class="at" x="61.76" y="346.57" width="130.96" height="12.25" rx="3"/><g class="au"><path class="av" d="M31.8,476.6c3.08-3,7.6-194,7.6-200.53s-8.85-7.5-8.85-7.5Z"/><path class="av" d="M222.29,476.6c-3.08-3-7.6-194-7.6-200.53s8.85-7.5,8.85-7.5Z"/></g><path class="aw" d="M39.4,276.07c0,.16,0,.5,0,1h175.3v-1c0-6.5,8.85-7.5,8.85-7.5h-193S39.4,269.57,39.4,276.07Z"/><path class="ax" d="M24.64,490.64c-1.22,0-2.21-1.8-2.21-4V262.58a4,4,0,0,1,4-4H228a4,4,0,0,1,4,4V486.64c0,2.2-1,4-2.24,4s-2.24-1.8-2.24-4V268.47a4,4,0,0,0-4-4H30.84a4,4,0,0,0-4,4V486.64C26.84,488.84,25.85,490.64,24.64,490.64Z"/><rect class="ay" x="22.43" y="259.58" width="209.58" height="234.03" rx="4"/></svg>