<?xml version="1.0" encoding="UTF-8" standalone="no"?>
<!-- Generator: Adobe Illustrator 16.0.0, SVG Export Plug-In . SVG Version: 6.00 Build 0) -->
<svg id="Layer_1" xmlns:rdf="http://www.w3.org/1999/02/22-rdf-syntax-ns#" xmlns="http://www.w3.org/2000/svg" xml:space="preserve" x="0px" y="0px" width="63.134px" height="121.82px" viewBox="0 0 63.134 121.82" version="1.1" xmlns:cc="http://creativecommons.org/ns#" enable-background="new 0 0 63.134 121.823" xmlns:dc="http://purl.org/dc/elements/1.1/"><metadata id="metadata3451"><rdf:RDF><cc:Work rdf:about=""><dc:format>image/svg+xml</dc:format><dc:type rdf:resource="http://purl.org/dc/dcmitype/StillImage"/></cc:Work></rdf:RDF></metadata><defs id="defs3449"><linearGradient id="linearGradient4862" y2="111.5" gradientUnits="userSpaceOnUse" y1="63.148" x2="29.584" x1="29.584"><stop id="stop3379" stop-color="#DF0000" offset="0"/><stop id="stop3381" stop-color="#A00404" offset="1"/></linearGradient><linearGradient id="linearGradient14621" y2="29.846" gradientUnits="userSpaceOnUse" x2="50.724" y1="29.846" x1="8.441"><stop id="stop3063" offset="0"/><stop id="stop3065" stop-color="#505050" offset=".1426"/><stop id="stop3067" stop-color="#505050" offset=".834"/><stop id="stop3069" offset="1"/></linearGradient></defs><path id="path2994" fill="#3f3f3f" d="m29.576 0.717c14.633 0 19.216 3.939 21.18 5.453 1.898 1.461 2.699 17.196 2.771 25.381-0.1425 1.0952-0.06121 2.4394-0.378 3.434l0.18 25.97h-47.507l0.179-25.97c-0.1925-3.42 0.2972-2.425-0.377-3.439 0.074-8.185 0.874-23.915 2.772-25.376 1.964-1.514 6.547-5.453 21.18-5.453m0-0.717c-14.405 0-19.321 3.818-21.421 5.449l-0.197 0.153c-0.413 0.318-0.955 1.044-1.49 3.865-0.324 1.709-0.612 3.999-0.856 6.808-0.434 4.992-0.64 10.562-0.694 14.423h-0.043c-1.253 0-3.849 0.798-4.562 1.742-0.80713 1.3295 0.14403 2.8927 1.901 2.683 0.438 0 0.941-0.074 1.494-0.221 0.586-0.155 1.025-0.309 1.357-0.458 0.072 0.323 0.154 0.553 0.219 0.705l-0.178 25.801-0.005 0.722h48.95l-0.005-0.722-0.179-25.802c0.064-0.148 0.145-0.37 0.215-0.679 0.324 0.141 0.746 0.285 1.299 0.432s1.057 0.221 1.494 0.221c1.7333 0.19235 2.6994-1.5536 1.901-2.683-0.71-0.939-3.282-1.734-4.542-1.742-0.055-3.859-0.261-9.428-0.694-14.42-0.244-2.809-0.532-5.1-0.856-6.81-0.535-2.821-1.077-3.548-1.49-3.866l-0.197-0.152c-2.101-1.631-7.018-5.449-21.421-5.449z"/><path id="path3009" fill="#787878" d="m53.33 60.955-0.18-25.97s0.441-0.698 0.382-2.609c-0.024-7.898-0.812-24.694-2.776-26.206-1.964-1.514-6.547-5.453-21.18-5.453s-19.216 3.939-21.181 5.453c-1.964 1.512-2.752 18.308-2.775 26.206-0.06 1.911 0.382 2.609 0.382 2.609l-0.179 25.97h47.507z"/><path id="path3011" fill="#3f3f3f" fill-rule="evenodd" clip-rule="evenodd" d="m9.285 60.955s-3.204-1.558-3.523-5.895v5.895h3.523z"/><path id="path3013" fill="#3f3f3f" fill-rule="evenodd" clip-rule="evenodd" d="m49.834 60.955s3.205-1.558 3.523-5.895v5.895h-3.523z"/><path id="path3021" d="m16.281 3.4062c-0.819 0.1645-6.6329 2.9353-7.4685 3.875-0.956 1.075-1.435 4.3548-1.375 5.9068 0.478-0.058 0.402-1.794 1-2.688 0.597-0.897 6.1195-5.553 7.8745-7 0.117-0.0961 0.086-0.1172-0.031-0.0938zm26.407 0c-0.004 0.0166 0.004 0.0457 0.062 0.0938 1.756 1.447 7.248 6.103 7.844 7 0.597 0.894 0.554 2.63 1.031 2.688 0.061-1.552-0.42-4.8318-1.375-5.9068-0.895-1.0068-7.507-4.123-7.562-3.875z" transform="translate(-.00077690)" stroke="#1f1f1f" stroke-width=".2" fill="#fff"/><path id="path3035" d="m50.852 24.803-0.168-0.192c-3.977-4.554-13.365-5.138-21.099-5.138s-17.122 0.584-21.099 5.138l-0.093 0.106-0.089-0.109c-0.066-0.082 0.23-6.515 0.233-6.58 0.212-4.511 0.421-7.29 0.621-8.262l0.006-0.028 0.019-0.022c0.485-0.599 4.139-3.917 6.448-5.752l0.017-0.016c0.014-0.014 0.027-0.027 0.041-0.039 0.259-0.23 0.554-0.451 0.877-0.658l0.025-0.016c3.391-2.16 9.402-2.16 12.994-2.16 3.582 0 9.568 0 12.976 2.147h0.029l0.031 0.022c0.075 0.055 0.154 0.113 0.236 0.174 0.131 0.091 0.266 0.193 0.42 0.32 2.248 1.749 6.213 5.333 6.735 5.977l0.019 0.022 0.006 0.028c0.475 2.311 0.865 14.093 0.882 14.593l-0.067 0.445zm-21.268-5.569c7.668 0 16.957 0.575 21.093 5.014-0.041-1.15-0.423-12.158-0.869-14.405-0.584-0.692-4.463-4.194-6.68-5.917-0.152-0.125-0.282-0.225-0.41-0.313-0.072-0.054-0.141-0.104-0.206-0.151h-0.022l-0.029-0.02c-3.344-2.128-9.311-2.128-12.876-2.128s-9.534 0-12.877 2.128c-0.32 0.205-0.608 0.421-0.861 0.646l-0.061 0.058c-2.279 1.812-5.853 5.051-6.4 5.698-0.426 2.146-0.793 12.403-0.86 14.368 4.155-4.405 13.412-4.978 21.058-4.978z" fill="#333"/><path id="path3039" fill="#bebebe" d="m29.598 19.184c6.837 0 15.229 0.482 19.775 3.884 0.479-0.829-2.939-16.384-5.959-19.069-3.043-2.708-9.22-2.805-13.816-2.805-4.598-0.001-10.774 0.096-13.818 2.804-3.019 2.686-6.436 18.24-5.958 19.069 4.546-3.401 12.938-3.883 19.776-3.883z"/><path id="path3127" d="m21.625 14.312c-2.009 0.088-8.707 1.979-9.125 2.344-0.478 0.418-1.355 2.746-1.594 3.688-0.135 0.533 0.182 0.926 0.719 0.687 0.248-0.111 2.426-1.049 4.75-1.593 2.73-0.639 5.433-0.87 5.594-1.063 0.298-0.358 0.724-3.429 0.219-4-0.064-0.071-0.276-0.075-0.563-0.063zm15.687 0c-0.091 0.014-0.155 0.027-0.187 0.063-0.506 0.571-0.08 3.518 0.219 3.875 0.161 0.194 2.864 0.424 5.594 1.062 2.323 0.544 4.533 1.483 4.781 1.594 0.536 0.24 0.822-0.029 0.687-0.562-0.239-0.942-1.116-3.27-1.594-3.688-0.447-0.392-8.125-2.546-9.5-2.344z" transform="translate(-.00077690)" stroke="#787878" stroke-width=".2" fill="none"/><path id="path3138" stroke="#1f1f1f" stroke-width=".2" fill="#343434" d="m11.777 19.703c0.21-0.746 0.616-2.332 1.037-2.664s8.259-2.557 8.706-2.104c0.446 0.452 0.084 2.604-0.179 2.888-0.142 0.153-2.533 0.434-4.941 0.94-2.05 0.432-3.983 1.245-4.201 1.332-0.474 0.19-0.541 0.031-0.422-0.392z"/><path id="path3192" stroke="#1f1f1f" stroke-width=".2" fill="#343434" d="m47.539 19.703c-0.211-0.746-0.615-2.332-1.037-2.664s-8.26-2.557-8.706-2.104c-0.446 0.452-0.084 2.604 0.179 2.888 0.143 0.153 2.533 0.434 4.941 0.94 2.05 0.432 3.982 1.245 4.201 1.332 0.474 0.19 0.541 0.031 0.422-0.392z"/><path id="path3232" fill="#d7d7d7" d="m29.594 1.1875c-4.598 0-10.769 0.10457-13.813 2.8126-0.189 0.168-0.37051 0.39327-0.56251 0.65627 0.623 0.418 6.8124-1.203 14.375-1.125 7.563-0.078 13.785 1.543 14.407 1.125-0.191-0.263-0.404-0.4883-0.593-0.6563-3.044-2.708-9.217-2.8126-13.813-2.8126zm-15.407 4.6251c-1.221 1.121-4.1014 3.8659-4.4064 4.3439l-0.7812 12.907c0.949-6.771 2.9366-13.469 5.1876-17.25zm30.813 0c2.25 3.781 4.2386 10.479 5.1876 17.25l-0.781-12.907c-0.305-0.4775-3.186-3.2224-4.407-4.3434z"/><path id="path3236" stroke="#1f1f1f" stroke-width=".2" fill="#191919" d="m42.589 3.395c0.001-0.004 0.001-0.007 0.002-0.01-3.237-2.108-8.786-2.191-13.006-2.191-4.21 0-9.745 0.082-12.984 2.177 0.002 0.008 0.004 0.017 0.006 0.024-0.913 1.023 5.257-0.848 12.991-0.768 7.734-0.08 13.902 1.791 12.991 0.768z"/><ellipse id="ellipse3252" rx="1.254" ry=".358" cy="1.791" cx="29.597" fill="#d7d7d7"/><path id="path3260" d="m6.9062 27.094c-0.2189 0.297-0.0312 5.156-0.0312 5.156s0.25 20.081 0.25 21.5c0 0.509 0.8898 1.762 1.0938 1.125 0.1639-0.511 0.1874-1.25 0.1874-1.25s0.2188-9.923 0.2188-11.594-1.2548-14.9-1.7188-14.937zm45.375 0c-0.464 0.037-1.719 13.266-1.719 14.937s0.219 11.594 0.219 11.594 0.024 0.739 0.188 1.25c0.204 0.637 1.093-0.616 1.093-1.125 0-1.419 0.219-21.5 0.219-21.5s0.218-4.859 0-5.156z" transform="translate(-.00077690)" stroke="#1f1f1f" stroke-width=".29999" fill="#171d23"/><path id="path3276" transform="translate(-.00077690)" fill="#0c0c0c" d="m6.9375 30.844c-0.135 0.018-0.4448 0.689-1.4687 0.718-0.6692-0.596-2.9889 0.195-3.875 0.719-1.0958 0.557-1.2849 1.447-0.2813 2.125 1.164-0.687 2.935-1.25 4.875-1.25 1.045 0 1.5345 2.725 1.8125 1.532 0.279-1.582-0.2315-3.937-1.0625-3.844zm45.062 0c-0.742 0.187-1.198 2.36-0.938 3.844 0.278 1.193 0.799-1.532 1.844-1.532 1.94 0 3.711 0.563 4.875 1.25 0.814-0.529 0.819-1.43 0.125-1.844-2.577-1.644-4.127-1.18-4.281-1-1.023-0.029-1.334-0.7-1.469-0.718-0.052-0.006-0.107-0.013-0.156 0z"/><path id="path3278" transform="translate(-.00077690)" fill="#bceaff" d="m5.4688 33.188s-1.8284-0.036-4.1563 1.218 0.0828 0.378 2.2187-0.187c2.136-0.566 1.9376-1.031 1.9376-1.031zm48.156 0s-0.198 0.465 1.937 1.031c2.137 0.565 2.219 0.187 2.219 0.187-2.328-1.254-4.156-1.218-4.156-1.218z"/><path id="path3309" stroke="#1f1f1f" stroke-width=".2" fill="#b4b4b4" d="m29.562 60.955h19.788s0.213-16.339-0.584-16.681c-3.345-1.577-11.705-2.962-19.204-2.962s-15.859 1.385-19.204 2.962c-0.796 0.342-0.583 16.681-0.583 16.681h19.787"/><path id="path3346" d="m21.822 38.325" fill="#232323"/><path id="path3368" d="m9.285 59.758" stroke="#3f3f3f" clip-rule="evenodd" stroke-miterlimit="10" stroke-width="3" fill="none"/><path id="path3383" fill="url(#linearGradient4862)" fill-rule="evenodd" clip-rule="evenodd" d="m54.607 113.08c0 2.2-1.799 4-4 4h-42.047c-2.2 0-4-1.8-4-4v-47.888c0-2.2 1.8-4 4-4h42.048c2.201 0 4 1.8 4 4v47.889z"/><path id="path3400" d="m47.711 83.918c0 1.1-0.9 2-2 2h-32.255c-1.1 0-2-0.9-2-2v-14.311c0-1.1 0.9-2 2-2h32.255c1.1 0 2 0.9 2 2v14.311z" fill-rule="evenodd" stroke="#a80000" clip-rule="evenodd" stroke-width=".7" fill="#dc0000"/><path id="path3443" fill="#870000" fill-rule="evenodd" clip-rule="evenodd" d="m5.087 116.37c-0.29 0-0.527-1.8-0.527-4v-47.415c0-2.2 1.8-4 4-4h42.048c2.201 0 4 1.8 4 4v47.416c0 2.2-0.24 4-0.535 4-0.294 0-0.535-1.8-0.535-4v-46.01c0-2.2-1.799-4-4-4h-39.924c-2.2 0-4 1.8-4 4v46.01c0 2.2-0.238 4-0.527 4z"/><path id="path3445" fill="#6d0000" d="m53.652 117.44h-48.137c-0.724 0-1.313-0.59-1.313-1.313v-53.983c0-0.724 0.589-1.313 1.313-1.313h48.138c0.725 0 1.314 0.59 1.314 1.313v53.979c0 0.724-0.59 1.313-1.315 1.313zm-48.137-55.889c-0.329 0-0.597 0.268-0.597 0.597v53.979c0 0.329 0.268 0.597 0.597 0.597h48.138c0.33 0 0.598-0.268 0.598-0.597v-53.98c0-0.329-0.268-0.597-0.598-0.597h-48.138z"/><path id="path5828" stroke="#000" stroke-width=".3" fill="none" d="m6.9057 27.266 0.5882-14.22"/><path id="path5830" stroke="#000" stroke-width=".3" fill="none" d="m52.33 27.087-0.74172-13.914"/><path id="path3058" d="m29.594 19.188c-7.88 0-17.852 0.64-21.594 5.656 0.159 5.732 1.4348 14.798 1.5938 15.594 0.1289 0.306 0.6562 0 0.6562 0s4.458-2.876 19.344-2.876c14.884 0 19.344 2.876 19.344 2.876s0.497 0.306 0.624 0c0.159-0.796 1.434-9.863 1.594-15.594-3.742-5.015-13.681-5.656-21.562-5.656zm-9.094 19.5v3.25s5.304-0.626 9.062-0.626 9.063 0.594 9.063 0.594v-3.218l-0.563 2.25s-4.25-0.376-8.562-0.376-8.438 0.5-8.438 0.5l-0.562-2.374zm2.031 5.281c-0.711 0.136-1.214 0.744-1.219 1.5-0.006 0.867 0.662 1.525 1.532 1.531 0.869 0.005 1.528-0.636 1.531-1.5 0.003-0.867-0.668-1.528-1.531-1.531-0.109-0.001-0.211-0.02-0.313 0zm3.844 0c-0.343 0.014-0.653 0.139-0.937 0.406-0.006-0.123-0.027-0.209-0.032-0.313h-0.5v4.25h0.532v-1.718c0.723 0.678 1.67 0.401 2.093-0.032 0.536-0.545 0.598-1.429 0.125-2.031-0.235-0.299-0.565-0.492-0.937-0.562-0.122-0.023-0.23-0.005-0.344 0zm3.656 0c-0.372-0.008-0.717 0.116-1.031 0.406-0.007-0.131 0.005-0.218 0-0.313h-0.531v2.844h0.531c0.005-0.105-0.006-0.177 0-0.312 0.319 0.32 0.68 0.43 1.094 0.406 0.419-0.026 0.781-0.186 1.062-0.5 0.471-0.529 0.516-1.365 0.094-1.938-0.208-0.282-0.505-0.472-0.844-0.562-0.131-0.035-0.251-0.029-0.375-0.031zm2.688 0c-0.374-0.003-0.725 0.102-0.938 0.343 0.079 0.148 0.164 0.308 0.25 0.469 0.568-0.406 1.064-0.418 1.438 0 0.349 0.389 0.37 0.985 0.031 1.375-0.375 0.432-0.882 0.435-1.469 0.032-0.084 0.157-0.168 0.315-0.25 0.468 0.619 0.523 1.629 0.455 2.157-0.156 0.543-0.629 0.468-1.64-0.157-2.188-0.279-0.244-0.688-0.34-1.062-0.343zm3.531 0c-0.865 0.001-1.533 0.666-1.531 1.531 0 0.867 0.694 1.504 1.562 1.5 0.872-0.002 1.533-0.664 1.531-1.531 0-0.864-0.695-1.501-1.562-1.5zm-13.406 0.5c0.541 0.001 1.001 0.479 1 1.031 0 0.551-0.458 1-1 1-0.542-0.001-1.001-0.447-1-1 0-0.552 0.459-1.032 1-1.031zm3.562 0c0.542 0.003 1.002 0.477 1 1.031-0.003 0.554-0.458 1.006-1 1-0.545-0.005-1.003-0.474-1-1.031 0.002-0.554 0.457-1.003 1-1zm3.594 0c0.543 0.003 0.974 0.477 0.969 1.031-0.005 0.556-0.457 1.005-1 1-0.544-0.005-1.004-0.478-1-1.031 0.005-0.554 0.49-1.005 1.031-1zm6.281 0c0.54 0.002 0.971 0.479 0.969 1.031s-0.459 1.004-1 1c-0.545-0.004-0.971-0.48-0.969-1.031 0.005-0.554 0.457-1.002 1-1zm-6.593 5.219c-2.117-0.074-3.902 1.343-4.313 3.406-0.121 0.611-0.106 1.208 0.063 1.812 0.006-0.051 0.024-0.075 0.031-0.125 0.138-1.088 0.71-1.879 1.719-2.281 1.003-0.401 1.926-0.178 2.718 0.531 0.805 0.721 1 1.665 0.719 2.688-0.456 1.657-2.406 2.362-3.844 1.375-0.409-0.28-0.618-0.671-0.593-1.188 0.023-0.469 0.404-0.886 0.843-0.906 0.452-0.021 0.847 0.301 0.907 0.75 0.041 0.311-0.037 0.594-0.282 0.812 0.239 0.084 0.466 0.058 0.688 0 0.696-0.178 1.193-0.849 1.187-1.593-0.006-0.749-0.545-1.438-1.281-1.594-1.795-0.381-2.739 1.253-2.469 2.437 0.164 0.721 0.581 1.267 1.188 1.657 0.875 0.561 1.855 0.732 2.875 0.656 2.386-0.18 4.155-2.379 3.844-4.75-0.269-2.047-1.972-3.616-4-3.687zm-7.688 10.062c-0.597 0-1.5 1.219-1.5 1.219h18.156s-0.904-1.219-1.5-1.219h-15.156z" transform="translate(-.00077690)"/><path id="path3060" fill="url(#linearGradient14621)" d="m29.583 19.669c7.723 0 17.475 0.353 21.141 5.268-0.156 5.616-1.404 14.171-1.561 14.952-0.127 0.3-0.624 0-0.624 0s-4.368-2.809-18.957-2.809c-14.588 0-18.956 2.809-18.956 2.809s-0.498 0.3-0.624 0c-0.156-0.781-1.404-9.336-1.561-14.952 3.669-4.916 13.419-5.268 21.142-5.268z"/><path id="path3296" d="m26.188 19.777-4.4375 0.23062v17.331l4.5-0.31zm3.375 18.536c-5.1709-0.001-7.6895 0.196-9.0625 0.375 0 0 6.4668 0.375 9.0938 0.375 2.4669 0 9.0312-0.375 9.0312-0.375-1.373-0.179-3.8916-0.375-9.0625-0.375zm-9.5938 0.28125c-3.883 0.254-8.66 1.631-10.125 2.406v2.875c3.614-1.647 10.218-2.469 10.218-2.469zm19.156 0-0.0625 2.8125s6.5726 0.82179 10.188 2.4688v-2.875c-1.465-0.775-6.243-2.152-10.125-2.406z" fill="#a0a0a0" transform="translate(-.00077690)"/></svg>
