<?xml version="1.0" encoding="utf-8"?>
<!-- Generator: Adobe Illustrator 19.2.1, SVG Export Plug-In . SVG Version: 6.00 Build 0)  -->
<svg version="1.1" id="Layer_1" xmlns="http://www.w3.org/2000/svg" xmlns:xlink="http://www.w3.org/1999/xlink" x="0px" y="0px"
	 width="69.8px" height="122px" viewBox="0 0 69.8 122" style="enable-background:new 0 0 69.8 122;" xml:space="preserve">
<style type="text/css">
	.st0{fill:#AF6C1B;}
	.st1{fill:#95ADB2;stroke:#7B8687;stroke-width:0.7224;stroke-miterlimit:10;}
	.st2{fill:#8A4123;}
	.st3{fill:#612F1C;}
	.st4{fill:#A33516;}
	.st5{fill:#763820;}
	.st6{fill-rule:evenodd;clip-rule:evenodd;fill:none;stroke:#3F3F3F;stroke-width:0.76;stroke-miterlimit:10;}
	.st7{fill-rule:evenodd;clip-rule:evenodd;fill:#30873A;}
	.st8{fill:none;stroke:#6B3F0F;stroke-width:0.67;stroke-miterlimit:10;}
	.st9{opacity:0.3;}
	.st10{fill-rule:evenodd;clip-rule:evenodd;fill:#FFFFFF;}
	.st11{opacity:0.5;fill-rule:evenodd;clip-rule:evenodd;fill:url(#SVGID_1_);}
	.st12{fill-rule:evenodd;clip-rule:evenodd;fill:#136E31;}
	.st13{fill:none;stroke:#1A421E;stroke-width:1.34;stroke-miterlimit:10;}
	.st14{fill:none;stroke:#382212;stroke-width:0.8166;stroke-miterlimit:10;}
	.st15{fill:#55432A;stroke:#BC802D;stroke-width:0.5067;stroke-miterlimit:10;}
	.st16{opacity:0.5;fill:#BC802D;}
	.st17{fill:#3D3222;stroke:#BC802D;stroke-width:0.5067;stroke-miterlimit:10;}
	.st18{fill:#BBAFAE;stroke:#4C1026;stroke-width:0.5067;stroke-miterlimit:10;}
	.st19{fill:#961914;}
	.st20{fill:url(#SVGID_2_);stroke:#B07146;stroke-width:0.5067;stroke-miterlimit:10;}
	.st21{fill:#D89060;}
	.st22{fill:#FEEEE1;}
	.st23{fill:url(#SVGID_3_);}
	.st24{fill:#B07146;}
	.st25{fill:url(#SVGID_4_);}
	.st26{fill:url(#SVGID_5_);}
	.st27{fill:url(#SVGID_6_);stroke:#B07146;stroke-width:0.5067;stroke-miterlimit:10;}
	.st28{fill:url(#SVGID_7_);}
	.st29{fill:url(#SVGID_8_);}
	.st30{fill:url(#SVGID_9_);}
	.st31{fill:#C94B4A;stroke:#B53231;stroke-width:0.5067;stroke-miterlimit:10;}
	.st32{opacity:0.5;fill:#C03131;}
	.st33{fill:url(#SVGID_10_);stroke:#B07146;stroke-width:0.5067;stroke-miterlimit:10;}
	.st34{fill:url(#SVGID_11_);stroke:#B07146;stroke-width:0.5067;stroke-miterlimit:10;}
	.st35{fill:url(#SVGID_12_);stroke:#B07146;stroke-width:0.5067;stroke-miterlimit:10;}
	.st36{fill:#D01317;stroke:#6B1B0C;stroke-width:0.76;}
	.st37{opacity:0.1011;fill:#7C1714;enable-background:new    ;}
	.st38{opacity:0.2697;fill:#010202;stroke:#010202;stroke-width:0.2103;enable-background:new    ;}
	.st39{opacity:0.294;fill:#010202;stroke:#010202;stroke-width:0.1524;enable-background:new    ;}
	.st40{fill:#FFFFFF;stroke:#A8A6A7;stroke-width:0.5067;}
	.st41{fill:none;stroke:#8D1F1E;stroke-width:0.2112;}
	.st42{opacity:0.1124;fill:#010202;enable-background:new    ;}
	.st43{fill:#FFFFFF;stroke:#7C7B7B;stroke-width:0.5067;}
	.st44{opacity:9.550560e-02;fill:#010202;enable-background:new    ;}
	.st45{fill:#62220F;fill-opacity:0.2235;}
	.st46{fill:#FFFFFF;}
	.st47{fill:#BC7920;}
	.st48{fill:#D61F1E;}
	.st49{fill:#875516;}
</style>
<path class="st0" d="M41.8,63.5h-2.6c-5.9,0-10.8-4.8-10.8-10.8V35.4c0-5.9,4.8-10.8,10.8-10.8h2.6c5.9,0,10.8,4.8,10.8,10.8v17.3
	C52.5,58.7,47.7,63.5,41.8,63.5z"/>
<g>
	<rect x="17.8" y="57" class="st1" width="3.6" height="65"/>
	<rect x="63.7" y="57" class="st1" width="3.6" height="65"/>
</g>
<path class="st2" d="M48.1,18.7C48.1,18.7,48.1,18.7,48.1,18.7c0-0.1-0.1-0.3,0-0.4C48.2,18.5,48.2,18.6,48.1,18.7z"/>
<path class="st3" d="M45.2,25C45.1,25,45.1,25,45.2,25c-0.1-0.1,0-0.1,0-0.1C45.2,24.9,45.2,24.9,45.2,25C45.2,25,45.2,25,45.2,25z"
	/>
<path class="st4" d="M46.6,20.6c-0.1,0.2-0.1,0.4-0.2,0.6c-0.1,0.4-0.3,0.7-0.6,1c-0.1,0-0.1,0.1-0.2,0c-0.1-0.1-0.1-0.1-0.1,0.1
	c0,0.2,0,0.3-0.1,0.5c0,0-0.1,0.1,0,0.1c0.1,0,0.1,0,0.1-0.1c0.1-0.1,0.2-0.2,0.4-0.4c0,0.3-0.2,0.5-0.3,0.6c0,0.1-0.4,0-0.4-0.1
	c-0.1-0.1-0.1-0.4,0-0.5c0.3-0.3,0.5-0.6,0.8-0.9c0.1-0.1,0.2-0.2,0.1-0.4C46.2,21,46.4,20.8,46.6,20.6z"/>
<path class="st2" d="M48.1,18.8c0.1,0.1,0,0.3,0,0.3c-0.2,0.2-0.3,0.5-0.3,0.7c-0.1,0.2-0.2,0.4-0.3,0.4c-0.2,0.1-0.3,0.1-0.5,0.1
	c0-0.2,0.1-0.2,0.2-0.3c0.3-0.3,0.4-0.7,0.7-1C47.8,19,47.9,18.8,48.1,18.8z"/>
<path class="st3" d="M42.6,16.7C42.6,16.7,42.5,16.6,42.6,16.7c-0.1-0.1,0-0.2,0-0.2C42.7,16.5,42.7,16.6,42.6,16.7
	C42.7,16.7,42.6,16.7,42.6,16.7z"/>
<path class="st3" d="M42.4,19.3C42.4,19.4,42.4,19.4,42.4,19.3C42.4,19.4,42.4,19.4,42.4,19.3C42.4,19.4,42.4,19.3,42.4,19.3
	C42.4,19.3,42.4,19.3,42.4,19.3z"/>
<path class="st3" d="M41.8,21.7C41.7,21.7,41.7,21.7,41.8,21.7C41.7,21.7,41.7,21.7,41.8,21.7z"/>
<path class="st3" d="M42.7,19C42.7,19,42.7,19,42.7,19C42.7,19,42.7,19,42.7,19C42.7,19,42.7,19,42.7,19z"/>
<path class="st5" d="M39.3,20.8c-0.3-0.1-0.5-0.2-0.7-0.4c0,0,0-0.3,0.1-0.1c0.2,0,0.3,0.4,0.5,0.2c0.1,0,0,0.1,0.1,0.1
	C39.4,20.7,39.3,20.8,39.3,20.8z"/>
<path class="st5" d="M39.2,18.3c0-0.1,0.1-0.1,0.1-0.1C39.3,18.3,39.2,18.3,39.2,18.3z"/>
<path class="st5" d="M38.5,20.2C38.5,20.2,38.4,20.2,38.5,20.2C38.5,20.2,38.5,20.2,38.5,20.2z"/>
<path class="st4" d="M44.4,23.5c0,0-0.1,0-0.1-0.1c0-0.1,0-0.1,0-0.2c0.1-0.2,0.3-0.3,0.5-0.4c0,0,0.1,0,0.1,0.1
	C44.9,23.1,44.6,23.5,44.4,23.5z"/>
<path class="st2" d="M37.3,18.7c0.2,0,0.2,0.3,0.4,0.3c0,0,0,0.2,0,0.2C37.5,19.1,37.4,18.9,37.3,18.7z"/>
<path class="st3" d="M38.4,18.4C38.4,18.4,38.4,18.4,38.4,18.4C38.4,18.4,38.4,18.4,38.4,18.4C38.4,18.4,38.4,18.4,38.4,18.4
	C38.4,18.4,38.4,18.4,38.4,18.4z"/>
<path class="st3" d="M38.8,18.2C38.8,18.2,38.9,18.3,38.8,18.2C38.9,18.3,38.9,18.3,38.8,18.2C38.8,18.3,38.8,18.3,38.8,18.2
	C38.8,18.3,38.8,18.3,38.8,18.2z"/>
<path class="st3" d="M36.1,15.9C36.1,15.9,36.1,15.9,36.1,15.9C36.1,15.8,36.1,15.9,36.1,15.9C36.1,15.9,36.1,15.9,36.1,15.9
	C36.1,15.9,36.1,15.9,36.1,15.9z"/>
<path class="st3" d="M37.8,16.6C37.8,16.6,37.8,16.6,37.8,16.6C37.8,16.6,37.8,16.6,37.8,16.6C37.8,16.6,37.8,16.6,37.8,16.6z"/>
<path class="st5" d="M36.4,17C36.4,17,36.4,17,36.4,17C36.4,16.9,36.4,16.9,36.4,17C36.4,16.9,36.4,16.9,36.4,17
	C36.4,17,36.4,17,36.4,17z"/>
<path class="st2" d="M38.9,24.5C38.9,24.5,38.8,24.5,38.9,24.5C38.8,24.5,38.8,24.5,38.9,24.5C38.8,24.4,38.9,24.5,38.9,24.5
	C38.9,24.5,38.9,24.5,38.9,24.5z"/>
<path class="st6" d="M20.7,55.2"/>
<g>
	<g>
		<g>
			<path class="st7" d="M68.8,115.1c0,0.5-0.4,0.9-0.9,0.9H16.5c-0.5,0-0.9-0.4-0.9-0.9V70.9c0-0.5,0.4-0.9,0.9-0.9h51.3
				c0.5,0,0.9,0.4,0.9,0.9V115.1z"/>
			<path class="st8" d="M68.8,115.1c0,0.5-0.4,0.9-0.9,0.9H16.5c-0.5,0-0.9-0.4-0.9-0.9V70.9c0-0.5,0.4-0.9,0.9-0.9h51.3
				c0.5,0,0.9,0.4,0.9,0.9V115.1z"/>
		</g>
	</g>
	<g class="st9">
		<path class="st10" d="M18,112.7c0.8-0.6,1.9-38.2,1.9-39.5c0-1.3-2.2-1.5-2.2-1.5L18,112.7z"/>
		<path class="st10" d="M66.3,112.7c-0.8-0.6-1.9-38.2-1.9-39.5c0-1.3,2.2-1.5,2.2-1.5L66.3,112.7z"/>
	</g>
	<g>
		<linearGradient id="SVGID_1_" gradientUnits="userSpaceOnUse" x1="42.1584" y1="72.0804" x2="42.1584" y2="73.0168">
			<stop  offset="0" style="stop-color:#6E150E;stop-opacity:0"/>
			<stop  offset="1" style="stop-color:#004425"/>
		</linearGradient>
		<path class="st11" d="M20,73.2c0,0,0,0.1,0,0.2h44.4c0-0.1,0-0.2,0-0.2c0-1.3,2.2-1.5,2.2-1.5H17.7C17.7,71.7,20,71.9,20,73.2z"/>
	</g>
	<g>
		<path class="st12" d="M16.2,115.5c-0.3,0-0.6-0.4-0.6-0.9V70.7c0-0.5,0.4-0.9,0.9-0.9h51.3c0.5,0,0.9,0.4,0.9,0.9v43.9
			c0,0.5-0.3,0.9-0.6,0.9s-0.6-0.4-0.6-0.9V71.8c0-0.5-0.4-0.9-0.9-0.9H17.7c-0.5,0-0.9,0.4-0.9,0.9v42.7
			C16.8,115.1,16.5,115.5,16.2,115.5z"/>
	</g>
	<g>
		<path class="st13" d="M68.8,115.1c0,0.5-0.4,0.9-0.9,0.9H16.5c-0.5,0-0.9-0.4-0.9-0.9V70.9c0-0.5,0.4-0.9,0.9-0.9h51.3
			c0.5,0,0.9,0.4,0.9,0.9V115.1z"/>
	</g>
</g>
<line class="st14" x1="43.4" y1="25.9" x2="57" y2="79.1"/>
<line class="st14" x1="36.6" y1="23.3" x2="27" y2="81.2"/>
<g>
	<g>
		<path class="st15" d="M45.1,79.3c0,0,3.4-2.8,5.3-2.3c1.9,0.6,0.6,5.4,0.6,5.4L45.1,79.3z"/>
		<path class="st16" d="M45.5,79.3l5.4,2.9c0.2-0.6,0.3-1.6,0.4-2.5c-1.2-0.7-3-1.1-4.3-1.4C46.3,78.7,45.8,79.1,45.5,79.3z"/>
	</g>
	<g>
		<path class="st17" d="M39.5,79.7c0,0-3.4-2.8-5.3-2.3c-1.9,0.6-0.6,5.4-0.6,5.4L39.5,79.7z"/>
		<path class="st16" d="M33.4,80.5c0.1,0.8,0.2,1.6,0.3,2.2l5.4-2.9c-0.4-0.3-1.5-1.1-2.6-1.6C35.4,78.5,34.2,79.4,33.4,80.5z"/>
	</g>
	<g>
		<g>
			<ellipse class="st18" cx="43" cy="90.1" rx="13.4" ry="11.4"/>
		</g>
		<g>
			<ellipse class="st19" cx="43" cy="90.6" rx="12.8" ry="10.8"/>
		</g>
	</g>
	<g>
		<linearGradient id="SVGID_2_" gradientUnits="userSpaceOnUse" x1="55.6784" y1="78.4675" x2="59.5293" y2="87.4053">
			<stop  offset="0" style="stop-color:#F7D7B8"/>
			<stop  offset="0.483" style="stop-color:#F8D0B0"/>
			<stop  offset="1" style="stop-color:#F7C7A6"/>
		</linearGradient>
		<path class="st20" d="M52.7,81.3c0.5-0.8,3.8-3.9,8.4-1.8c1.7,0.7,1.4,3.9,1.4,3.9s0,3-5.3,3.5S52.4,81.8,52.7,81.3z"/>
		<path class="st21" d="M58.4,84.7c-1.9-0.1-4.3-2.3-5.4-3.4c-0.1,0.1-0.1,0.1-0.1,0.2c-0.1,0.2-0.4,2.2,0.5,3.6
			c0.7,1.2,2,1.8,3.8,1.6c2.9-0.2,4.2-1.3,4.7-2.1C61.1,84.6,60.1,84.8,58.4,84.7z"/>
		<path class="st21" d="M57.9,79c-1.6,0-2.9,0.6-3.7,1.2c1.1,1.1,3.5,1.9,3.5,1.9s2.3-1.8,3.3-1.5l-1.9-0.9c0,0,0.1-0.2,0.2-0.5
			C58.8,79,58.4,79,57.9,79z"/>
		<g>
			<path class="st22" d="M58.8,81.4c0,0,0.6-0.4,1.2-0.6c0.3-0.1,0.6-0.2,0.9-0.2c0.2,0,0.4,0.1,0.4,0.1s-0.2-0.1-0.4-0.1
				c-0.2,0-0.6,0.1-0.8,0.2c-0.6,0.3-1.1,0.7-1.1,0.7L58.8,81.4z"/>
		</g>
		<g>
			<linearGradient id="SVGID_3_" gradientUnits="userSpaceOnUse" x1="57.1513" y1="78.0758" x2="57.1513" y2="86.1115">
				<stop  offset="0" style="stop-color:#F7D7B8"/>
				<stop  offset="0.483" style="stop-color:#F8D0B0"/>
				<stop  offset="1" style="stop-color:#F7C7A6"/>
			</linearGradient>
			<path class="st23" d="M57.7,84.5c-1.3-0.6-3.4-1.2-3.3-3.2c0.1-1.9,4.3,0.1,5.5,0.9"/>
			<path class="st24" d="M57.7,84.5c0,0-0.2-0.1-0.5-0.2c-0.3-0.1-0.7-0.2-1.2-0.4c-0.5-0.2-1.1-0.5-1.5-1.1c-0.2-0.3-0.4-0.7-0.4-1
				l0-0.3c0-0.1,0-0.1,0-0.2l0-0.1c0-0.1,0.2-0.5,0.3-0.6c0.4-0.3,0.8-0.3,1.2-0.2c0.4,0,0.7,0.1,1,0.2c0.6,0.2,1.2,0.5,1.7,0.7
				c0.9,0.5,1.5,1,1.5,1s-0.6-0.3-1.6-0.7c-0.5-0.2-1.1-0.4-1.7-0.6c-0.3-0.1-0.6-0.1-1-0.2c-0.3,0-0.6,0-0.8,0.1
				c-0.1,0-0.1,0.1-0.1,0.1c0,0-0.1,0.1-0.1,0.2l0,0.1c0,0,0,0.1,0,0.1l0,0.2c0,0.3,0.1,0.6,0.3,0.8c0.3,0.5,0.8,0.9,1.3,1.1
				c0.4,0.3,0.8,0.5,1.1,0.6C57.6,84.4,57.7,84.5,57.7,84.5z"/>
		</g>
		<g>
			<path class="st22" d="M54.7,81.1c0,0,0-0.1,0.1-0.2c0.1-0.1,0.3-0.2,0.5-0.2c0.5,0,1.1,0.1,1.7,0.3c0.6,0.2,1.2,0.4,1.6,0.6
				c0.4,0.2,0.7,0.3,0.7,0.3s-0.3-0.1-0.7-0.2c-0.4-0.1-1-0.3-1.6-0.5c-0.6-0.2-1.2-0.3-1.6-0.4c-0.2,0-0.4,0-0.5,0.1
				C54.7,81,54.7,81.1,54.7,81.1z"/>
		</g>
		<g>
			<path class="st24" d="M58.6,81.5c0,0,0.4-0.6,1.1-0.9c0.6-0.3,1.4-0.3,1.4-0.3l0,0.5c0,0-0.6-0.1-1.3,0
				C59.1,81.1,58.6,81.5,58.6,81.5z"/>
		</g>
		<g>
			<g>
				<linearGradient id="SVGID_4_" gradientUnits="userSpaceOnUse" x1="63.6165" y1="78.0758" x2="63.6165" y2="86.1115">
					<stop  offset="0" style="stop-color:#F7D7B8"/>
					<stop  offset="0.483" style="stop-color:#F8D0B0"/>
					<stop  offset="1" style="stop-color:#F7C7A6"/>
				</linearGradient>
				<path class="st25" d="M60.7,84.5l1.8,1.8l-1.4,0.7c0,0,1.8,3.7,2,3.8s3.9-3.7,3.5-5c-0.4-1.3-3.7-2.1-4.9-2.3"/>
				<path class="st24" d="M60.7,84.5c0.4,0.2,0.7,0.4,1.1,0.7c0.3,0.3,0.6,0.6,0.9,0.9l0.2,0.3l-0.3,0.1l0,0l-1.4,0.7l0.1-0.3l0,0
					l0.9,1.8c0.3,0.6,0.6,1.2,1,1.7c-0.4,0.2,0.1-0.1,0.3-0.3c0.2-0.2,0.5-0.5,0.7-0.7c0.4-0.5,0.9-1,1.2-1.5
					c0.2-0.3,0.4-0.5,0.5-0.8c0.2-0.3,0.3-0.6,0.4-0.8c0-0.1,0-0.3,0-0.3c-0.1-0.2-0.1-0.3-0.2-0.4c-0.2-0.2-0.5-0.4-0.7-0.6
					c-0.6-0.3-1.2-0.6-1.8-0.8c-0.3-0.1-0.6-0.2-1-0.3c-0.3-0.1-0.6-0.2-0.9-0.4c0.4-0.2,0.7-0.1,1,0c0.3,0.1,0.7,0.2,1,0.3
					c0.7,0.2,1.3,0.4,1.9,0.8c0.3,0.2,0.6,0.4,0.9,0.6c0.1,0.2,0.3,0.4,0.3,0.5c0.1,0.3,0.1,0.5,0,0.7c-0.1,0.4-0.2,0.7-0.4,1
					c-0.2,0.3-0.4,0.6-0.6,0.9c-0.4,0.6-0.8,1.1-1.3,1.6c-0.2,0.3-0.5,0.5-0.7,0.7c-0.1,0.1-0.2,0.2-0.4,0.4
					c-0.1,0.1-0.3,0.2-0.4,0.2c-0.3,0-0.1,0-0.1,0l0,0l0,0l0,0c0,0-0.1,0-0.1-0.1c-0.1-0.1,0-0.1-0.1-0.1l-0.1-0.1
					c-0.4-0.6-0.6-1.2-0.9-1.8l-0.9-1.8l0,0l-0.1-0.2l0.2-0.1l1.4-0.7l0,0l-0.1,0.4c-0.3-0.3-0.6-0.6-0.9-0.9
					C61.1,85.2,60.9,84.9,60.7,84.5z"/>
			</g>
			<path class="st21" d="M65.7,87.3c-0.7-0.7-1.8-1.2-3-1.2l0.2-0.1c-0.1,0-0.2,0.1-0.3,0.1l0.2,0.2l-0.2,0.1l0,0L61.3,87l0.8,1.6
				l0.5,0.9c0.2,0.3,0.3,0.6,0.5,0.9c0,0,0,0,0,0c0,0,0,0,0,0c0.1-0.1,0.2-0.2,0.4-0.3c0.2-0.2,0.5-0.5,0.7-0.7
				c0.4-0.5,0.9-1,1.3-1.5C65.5,87.7,65.6,87.5,65.7,87.3z"/>
			<g>
				<linearGradient id="SVGID_5_" gradientUnits="userSpaceOnUse" x1="62.3232" y1="85.9077" x2="64.6804" y2="85.9077">
					<stop  offset="0" style="stop-color:#F7D7B8"/>
					<stop  offset="0.483" style="stop-color:#F8D0B0"/>
					<stop  offset="1" style="stop-color:#F7C7A6"/>
				</linearGradient>
				<line class="st26" x1="62.3" y1="86.3" x2="64.7" y2="85.5"/>
				<polygon class="st24" points="62.2,86.1 64.7,85.5 62.4,86.6 				"/>
			</g>
		</g>
	</g>
	<g>
		
			<linearGradient id="SVGID_6_" gradientUnits="userSpaceOnUse" x1="504.1351" y1="80.8254" x2="507.986" y2="89.7632" gradientTransform="matrix(-0.8117 0 0 1 439.3701 0)">
			<stop  offset="0" style="stop-color:#F7D7B8"/>
			<stop  offset="0.483" style="stop-color:#F8D0B0"/>
			<stop  offset="1" style="stop-color:#F7C7A6"/>
		</linearGradient>
		<path class="st27" d="M32.6,83.7c-0.4-0.8-3.1-3.9-6.8-1.8c-1.4,0.7-1.1,3.9-1.1,3.9s0,3,4.3,3.5C33.3,89.7,32.8,84.1,32.6,83.7z"
			/>
		<path class="st21" d="M27.9,87c1.5-0.1,3.5-2.3,4.4-3.4c0.1,0.1,0.1,0.1,0.1,0.2c0.1,0.2,0.3,2.2-0.4,3.6
			c-0.6,1.2-1.6,1.8-3.1,1.6c-2.4-0.2-3.4-1.3-3.8-2.1C25.7,87,26.6,87.1,27.9,87z"/>
		<path class="st21" d="M28.3,81.4c1.3,0,2.3,0.6,3,1.2c-0.9,1.1-2.8,1.9-2.8,1.9s-1.8-1.8-2.7-1.5l1.5-0.9c0,0-0.1-0.2-0.1-0.5
			C27.6,81.4,28,81.4,28.3,81.4z"/>
		<g>
			<path class="st22" d="M27.4,84c0,0-0.4-0.4-0.8-0.7c-0.2-0.1-0.5-0.2-0.7-0.2c-0.2,0-0.3,0.1-0.3,0.1c0,0,0.1-0.1,0.3-0.1
				c0.2,0,0.5,0.1,0.7,0.2c0.5,0.2,1,0.6,1,0.6L27.4,84z"/>
		</g>
		<g>
			
				<linearGradient id="SVGID_7_" gradientUnits="userSpaceOnUse" x1="505.6081" y1="80.4337" x2="505.6081" y2="88.4695" gradientTransform="matrix(-0.8117 0 0 1 439.3701 0)">
				<stop  offset="0" style="stop-color:#F7D7B8"/>
				<stop  offset="0.483" style="stop-color:#F8D0B0"/>
				<stop  offset="1" style="stop-color:#F7C7A6"/>
			</linearGradient>
			<path class="st28" d="M28.5,86.9c1.1-0.6,2.8-1.2,2.7-3.2c-0.1-1.9-3.5,0.1-4.5,0.9"/>
			<path class="st24" d="M28.5,86.9c0,0,0.1-0.1,0.3-0.2c0.2-0.1,0.5-0.4,0.9-0.6c0.4-0.3,0.7-0.6,1-1.1c0.1-0.2,0.2-0.5,0.2-0.8
				c0-0.1,0-0.3,0-0.4c0-0.1,0-0.3-0.1-0.4c-0.1-0.1-0.3-0.2-0.5-0.2c-0.3,0-0.5,0.1-0.8,0.2c-0.5,0.2-1,0.4-1.4,0.6
				c-0.8,0.4-1.4,0.7-1.4,0.7s0.4-0.5,1.2-1c0.4-0.2,0.9-0.5,1.4-0.7c0.3-0.1,0.6-0.2,0.9-0.2c0.3,0,0.8,0.1,1,0.5
				c0.1,0.2,0.1,0.3,0.1,0.5c0,0.2,0,0.3,0,0.5c0,0.3-0.2,0.6-0.3,0.9c-0.3,0.6-0.8,0.9-1.2,1.1c-0.4,0.2-0.8,0.4-1,0.5
				C28.6,86.8,28.5,86.9,28.5,86.9z"/>
		</g>
		<g>
			<path class="st22" d="M30.9,83.4c0,0,0-0.1-0.1-0.1c-0.1-0.1-0.2-0.1-0.4-0.1c-0.4,0-0.8,0.2-1.3,0.4c-0.5,0.2-0.9,0.4-1.3,0.5
				c-0.4,0.1-0.6,0.2-0.6,0.2s0.2-0.1,0.5-0.3c0.3-0.2,0.8-0.4,1.3-0.6c0.5-0.2,1-0.3,1.4-0.3c0.2,0,0.4,0.1,0.4,0.2
				C30.9,83.4,30.9,83.5,30.9,83.4z"/>
		</g>
		<g>
			<path class="st24" d="M27.8,83.9c0,0-0.4-0.4-0.9-0.6c-0.5-0.2-1-0.1-1-0.1l0-0.5c0,0,0.7,0,1.2,0.3
				C27.5,83.4,27.8,83.9,27.8,83.9z"/>
		</g>
		<g>
			<g>
				
					<linearGradient id="SVGID_8_" gradientUnits="userSpaceOnUse" x1="512.0732" y1="80.4337" x2="512.0732" y2="88.4695" gradientTransform="matrix(-0.8117 0 0 1 439.3701 0)">
					<stop  offset="0" style="stop-color:#F7D7B8"/>
					<stop  offset="0.483" style="stop-color:#F8D0B0"/>
					<stop  offset="1" style="stop-color:#F7C7A6"/>
				</linearGradient>
				<path class="st29" d="M26.1,86.9l-1.4,1.8l1.1,0.7c0,0-1.5,3.7-1.6,3.8c-0.2,0.1-3.1-3.7-2.8-5c0.3-1.3,3-2.1,4-2.3"/>
				<path class="st24" d="M26.1,86.9c-0.1,0.4-0.3,0.7-0.5,1.1c-0.2,0.3-0.4,0.6-0.7,0.9l-0.1-0.4l0,0l1.1,0.7l0.2,0.1L26,89.4l0,0
					c-0.4,1.2-0.9,2.3-1.4,3.5l-0.1,0.2l-0.1,0.1l-0.1,0.1c0,0-0.1,0.1-0.1,0.1c0,0-0.3,0-0.1,0l0,0l0,0l0,0
					c-0.2-0.1-0.2-0.1-0.3-0.2l-0.1-0.1L23.6,93c-0.2-0.2-0.4-0.5-0.6-0.7c-0.4-0.5-0.7-1-1.1-1.6c-0.3-0.5-0.6-1.1-0.8-1.7
					c-0.1-0.3-0.2-0.7,0-1.1c0.1-0.3,0.4-0.6,0.7-0.8c0.5-0.4,1.1-0.7,1.7-0.9c0.3-0.1,0.6-0.2,0.9-0.3c0.3-0.1,0.6-0.1,1,0
					c-0.3,0.3-0.5,0.4-0.8,0.5c-0.3,0.1-0.6,0.2-0.8,0.3c-0.6,0.2-1.1,0.5-1.5,0.9c-0.2,0.2-0.4,0.4-0.5,0.6c-0.1,0.2,0,0.4,0,0.7
					c0.2,0.5,0.5,1.1,0.8,1.6c0.3,0.5,0.7,1,1,1.5c0.2,0.2,0.4,0.5,0.6,0.7l0.1,0.2l0.1,0.1c0,0,0.1,0-0.1,0c0,0,0,0,0,0l0,0l0,0
					c0.1,0-0.2,0-0.1,0c0,0-0.1,0.1-0.1,0.1c0,0,0,0,0,0l0-0.1l0.1-0.2c0.5-1.1,1-2.2,1.4-3.4l0,0l0.1,0.3l-1.1-0.7l0,0l-0.2-0.1
					l0.2-0.3c0.2-0.3,0.4-0.6,0.7-0.9C25.4,87.3,25.7,87.1,26.1,86.9z"/>
			</g>
			<path class="st21" d="M22,89.7c0.6-0.7,1.5-1.2,2.4-1.2l-0.2-0.1c0.1,0,0.2,0.1,0.2,0.1l-0.1,0.2l0.2,0.1l0,0l1,0.6L24.9,91
				l-0.4,0.9c-0.1,0.3-0.3,0.6-0.4,0.9c0,0,0,0,0,0c0,0,0,0,0,0c-0.1-0.1-0.2-0.2-0.3-0.3c-0.2-0.2-0.4-0.5-0.6-0.7
				c-0.4-0.5-0.7-1-1-1.5C22.2,90,22.1,89.9,22,89.7z"/>
			<g>
				
					<linearGradient id="SVGID_9_" gradientUnits="userSpaceOnUse" x1="510.7799" y1="88.2657" x2="513.1371" y2="88.2657" gradientTransform="matrix(-0.8117 0 0 1 439.3701 0)">
					<stop  offset="0" style="stop-color:#F7D7B8"/>
					<stop  offset="0.483" style="stop-color:#F8D0B0"/>
					<stop  offset="1" style="stop-color:#F7C7A6"/>
				</linearGradient>
				<line class="st30" x1="24.8" y1="88.7" x2="22.8" y2="87.8"/>
				<polygon class="st24" points="24.7,88.9 22.8,87.8 24.9,88.5 				"/>
			</g>
		</g>
	</g>
	<g>
		<path class="st31" d="M22.1,94.6c0-1.7,0.6-5.3,8.4-7s24.9-0.8,24.9-0.8s7.4-2.7,8.2,2.7c0.9,5.4-4,7.3-8,8.1S27,99.9,26.8,99.8
			C26.6,99.6,22.1,100.4,22.1,94.6z"/>
		<path class="st32" d="M62.3,94.2c-0.4-1.7-1.7-3.5-2.3-5.7c-0.3-1.1-0.3-1.7-0.6-2.2c-0.1,0-0.2,0-0.2,0c-1.9,0-3.7,0.6-3.7,0.6
			l0,0l0,0c0,0-4.9-0.3-10.5-0.3c-6.4,0-11.3,0.3-14.3,1c-2.6,0.6-4.6,1.4-5.9,2.5c-1.2,2.8-1.4,5.7-0.7,8.6c1,0.7,2.1,0.8,2.6,0.8
			c0.2,0,0.3,0,0.3,0c0,0,0.1,0,0.1,0c2.2,0,24.9-1.5,28.6-2.2C58.8,96.8,61,95.7,62.3,94.2z"/>
	</g>
	<linearGradient id="SVGID_10_" gradientUnits="userSpaceOnUse" x1="38.3741" y1="81.5938" x2="42.0823" y2="81.5938">
		<stop  offset="0" style="stop-color:#F7D7B8"/>
		<stop  offset="0.483" style="stop-color:#F8D0B0"/>
		<stop  offset="1" style="stop-color:#F7C7A6"/>
	</linearGradient>
	<circle class="st33" cx="40.2" cy="81.6" r="1.9"/>
	<linearGradient id="SVGID_11_" gradientUnits="userSpaceOnUse" x1="24.8688" y1="94.799" x2="58.9677" y2="94.799">
		<stop  offset="0" style="stop-color:#F7D7B8"/>
		<stop  offset="0.483" style="stop-color:#F8D0B0"/>
		<stop  offset="1" style="stop-color:#F7C7A6"/>
	</linearGradient>
	<path class="st34" d="M58.8,92.2c1.1,7.3-5.6,14.4-14.9,15.8c-9.4,1.4-17.8-3.4-18.9-10.7c-1.1-7.3,5.6-14.4,14.9-15.8
		C49.3,80.2,57.7,84.9,58.8,92.2z"/>
	<g>
		
			<linearGradient id="SVGID_12_" gradientUnits="userSpaceOnUse" x1="696.2031" y1="797.3051" x2="700.4656" y2="797.3051" gradientTransform="matrix(-1 0 0 -1 757.8086 890.3047)">
			<stop  offset="0" style="stop-color:#F7D7B8"/>
			<stop  offset="0.483" style="stop-color:#F8D0B0"/>
			<stop  offset="1" style="stop-color:#F7C7A6"/>
		</linearGradient>
		<path class="st35" d="M58.1,94.8c0,0,3.8-0.5,3.5-2.5s-4.1-0.8-4.2-0.7S58.1,94.8,58.1,94.8z"/>
		<path class="st21" d="M58.2,94.6c0.4-0.1,1.3-0.3,2.1-0.7c0.1-0.8-0.1-1.7-0.3-2.5c-0.1,0-0.1,0-0.2,0h0c-0.9,0-1.9,0.3-2.2,0.4
			C57.6,92.1,57.9,93.4,58.2,94.6z"/>
	</g>
	<g id="layer1_1_" transform="translate(-8.9025329,-24.385462)">
		<path id="path1309_1_" class="st36" d="M47.6,136.1c-4.7-0.2-9.6-1.1-13.1-2.2c-3.5-1.1-12.6-3.8-14.7-4.7c-2.1-0.9-4.4-1-5.5-2.4
			c-0.5-0.5,2.3-2.6,2.8-2.8c1.4-0.7,4-0.2,5.1-0.3c3.6-0.3,7.4-0.5,10.9-2.6c-0.7-0.3,0.4,0-1.5-3.6c-0.7-1.3-2.2-4.6-1-5.4
			c1.2-0.8,2.4,1.6,3.6,1.1c0,0,0,0,0,0c0,0,0,0,0,0c0,0,0,0,0,0c0,0,0,0,0,0c0,0,0,0,0,0c0,0,0,0,0,0c0,0,0,0,0,0l0,0
			c0.6,0,5.6,0.7,9.9-0.4c2.4-0.6,6.5-0.3,8.8-0.2c3.7,0.2,8.8,0.2,12-0.2c2.4-0.3,4.6,0.3,6.9,0.1c1.3-0.1,0.5,2.8,0.5,3
			c0.1,1.4-2.4,3.9-3.5,5.9s-3.2,4.8-5.5,7c-2.3,2.2-5.5,5.1-7.9,6.2C53.1,135.6,52.7,136.3,47.6,136.1z"/>
		<path id="path5882_1_" class="st37" d="M35.8,130.9c-3-0.1-6.4-5.7-10.1-6.2c-2.5-0.4-9.1-0.5-8.6-0.8c1.4-0.7,4-0.2,5.1-0.3
			c3.6-0.3,7.4-0.5,10.9-2.6c-0.7-0.3,0.4,0-1.5-3.6c-0.7-1.3-2.2-4.6-1-5.4c1.2-0.8,2.4,1.6,3.6,1.1c0,0,0,0,0,0c0,0,0,0,0,0
			c0,0,0,0,0,0c0,0,0,0,0,0c0,0,0,0,0,0c0,0,0,0,0,0c0,0,0,0,0,0l0,0c0.6,0,5.6,0.7,9.9-0.4c2.4-0.6,6.5-0.3,8.8-0.2
			c3.7,0.2,8.8,0.2,12-0.2c2.4-0.3,4.6,0.3,6.9,0.1c1.3-0.1-8.4,0.6-4.3,1.9c1.8,0.5-17.3,0.7-23.8,6.8
			C37.3,127.1,38.9,131,35.8,130.9z"/>
		<path id="path5878_1_" class="st38" d="M14.7,127.4c0.5-0.3,4-3.9,4.5-3.8c0.1,0.3-0.3,0.5-0.6,0.6c0.5,0.3,0.6,0.6-0.1,0.8
			c-0.8,0.2-1.7,0.4-0.7,0.8c0.4,0.3,0.1,0.9-0.1,1.2c-0.6,0.3-1.1,0.8-1.3,1.1"/>
		<path id="path5003_1_" class="st39" d="M66.4,113.7c-1.2,0.4-2.7,0.9-3.7,1c-0.7,0.5-1.3,0.1-2,0c0,0.8-1.9-0.1-2.7,0
			c-0.6-0.1-0.1,0.6-1.1,0.4c-1.2,0.1-2,0.1-2.9,0c-0.3-0.8-2.4-1-2.5-0.1c-1.1-0.2-3.2-0.5-3.1,0.5c-1.8-0.6-2-1.4-3.7-1.5
			c0.2,0.7-3.5,1.6-4.1,0.9c-1.1-0.1,0.3,0.9-1.2,0.8c-1.6,0.5-1-1.7-4.3-0.4c-1.9,0.3-1.1-1.6-2.4-2.2c-0.4-0.7-1.8,0.5-2.4,0.5
			c0-1.2,0.4-0.9-0.1-1.7c-0.4-1-0.8-1.5,1-1.9c0.7,0.4,0,0.3,0-0.7c1.1,0.1,2.6,1,2.3-0.1c0.8,0.6,3.1,0.6,3.2,1.4
			c1.1-0.2,2.3-1.2,3.4-0.4c1.1,0.6,2.5,0.7,2.4,0.2c1.1-0.8,1.2-0.7,2.5-0.7c-0.2,0.9,2.9-0.3,1.3,0.8c0.7,0.3,2.6,0.3,3.6,0.1
			c0.8-1,3.6-1.4,4.2-0.4c0.2,0.8,2.4,0.9,3.1,0.2c1.5,0.6,3.5-0.8,4.8-0.4c-1,1,1.7,1.2,2.1,0.5c1,0.2,2,1.2,3,0.3
			c1.2,0.1,2.7,0.2,3.8,0.4c0.7-0.9,2.7-0.3,2,0.7c-0.4,0.7,1.5-0.5,1,0.4c-0.5,1-1.2,2.4-2.2,2.5c-1.4,0.4-2.3-0.1-2.5-0.9
			c0.1,0.6-1.7,0.2-2.6,0.1l-0.5,0l-0.5,0.3"/>
		<path id="path1307_1_" class="st40" d="M67.2,113.4c-1.2,0.4-2.3,0.6-3.4,0.7c-0.7,0.5-1.6,0.5-2.2,0.4c0,0.8-1.7-0.5-2.4-0.4
			c-0.6-0.1-0.1,0.6-1.1,0.4c-1.2,0.1-2.6,0.8-3.5,0.6c-0.3-0.8-2.4-1-2.5-0.1c-1.1-0.2-2.6-1.1-2.5-0.1c-2,0.3-3-0.8-4.8-1
			c0.2,0.7-2.4,1-3.1,0.4c-1.1-0.1-0.1,1.4-1.6,1.3c-1.6,0.5-1.9-1.6-3.8-0.9c-1.9,0.3-1.8-0.9-3.2-1.5c-0.4-0.7-1-0.1-1.6-0.1
			c0.9-1-3.1-0.3-2.1-1.8c-0.4-1-0.1-1.8,1.7-2.3c0.7,0.4,1.3,0.8,1.3-0.2c1.1,0.1,2.6,1,2.3-0.1c0.8,0.6,3.1,0.6,3.2,1.4
			c1.1-0.2,2.3-1.2,3.4-0.4c1.1,0.6,1.1,0,1.1-0.6c1.1-0.8,2.6,0,3.8,0c-0.2,0.9,2.9-0.3,1.3,0.8c0.7,0.3,2.6,0.3,3.6,0.1
			c0.8-0.7,3.6-1.4,4.2-0.4c0.2,0.8,2.4,0.9,3.1,0.2c1.5,0.6,3.5-0.8,4.8-0.4c-1,1,1.7,1.2,2.1,0.5c1,0.2,2,1.2,3,0.3
			c1.2,0.1,6.5,0,5.8,1.1c-0.4,0.7,1.5-0.5,1,0.4c0.1,1-0.2,2.6-2.2,2.5c-1.4,0.4-2.3-0.1-2.5-0.9c0.1,0.6-2.2,0.7-3.1,0.6l-0.3-0.1
			l-0.2-0.1"/>
		<path id="path3126_1_" class="st41" d="M32.4,119.2c1.1,4.1,4.7,5.6,4.5,9c-0.1,2-3.1,0.9-2.4-1.1"/>
		<path id="path3249_1_" class="st42" d="M33,113.3c-0.4-0.7-1-0.1-1.6-0.1c0.9-1-3.1-0.3-2.1-1.8c-0.4-1-0.1-1.8,1.7-2.3
			c0.7,0.4,1.3,0.8,1.3-0.2c1.1,0.1,2.6,1,2.3-0.1c0.8,0.6,3.1,0.6,3.2,1.4c1.1-0.2,2.3-1.1,3.4-0.2c1.1,0.6,1.2-0.2,1.1-0.7
			c1.1-0.8,2.6,0,3.8,0c-0.2,0.9,1.5,0,1.3,0.8c-0.1,0.5,5.5-0.4,4.8,0.3c-2.2,1.8-6.3,0.1-6.8,0.3c-0.5,0.2-1.1,0.2-0.4,0.3
			c0.8,0.1-1.1,0-2.6,0.6c-1.5,0.6-2.7,0.3-2.9-0.6c-1.1,0.6-1.3,0.1-3.1,0c1.3,0.9-2,0.6-2,0.6s0.7,1.1-0.3,1.1
			c0.6,0.5,0,0.8,0,0.8S34.4,113.8,33,113.3z"/>
		<path id="path2251_1_" class="st43" d="M15.6,128.1c-0.2,0.3-0.8,0.4-0.9,0.6c0.2,0.2-0.4,0.1-0.5,0.3c-0.7-0.3-1.7-0.3-2.3-0.7
			c0.3,0,0.3,0.2,0,0.1c-0.6-0.1-1.2-0.3-1-0.8c0-0.2-0.4-0.4,0.1-0.5c-0.1-0.3-1-0.2-1-0.5c0.1-0.4,0-0.7-0.5-0.9
			c-0.5-0.2-0.3-0.6-0.4-0.9c-0.3-0.2-0.4-0.4-0.1-0.6c0-0.4,0.5-0.7,0.4-1.1c0.2-0.2,0.6-0.3,0.8-0.5c0.6-0.1,0.6-0.6,1.1-0.8
			c0.5-0.2,1.1-0.2,1.5-0.3c0.3-0.2,0.7-0.4,1.2-0.5c0.5-0.3,0.8,0.2,1.2,0.4c0.1,0.3,0.4,0.3,0.6,0c0.5-0.3,1,0,1.4,0.2
			c0.4,0.2,0.8,0.4,1.2,0.5c0.6,0.3,0.9,0.9,0.9,1.4c0.1,0.3-0.4,0.4-0.7,0.5c0.2,0.3,0.6,0.6-0.1,0.7c-0.4,0.1-1.3,0.6-0.7,0.8
			c0.4,0.2-0.1,0.7-0.3,1c-0.4,0.3-0.6,0.6-0.8,0.9C16.2,127.5,15.7,127.7,15.6,128.1C15.6,128.4,15.6,128.2,15.6,128.1"/>
		<path id="path4128_1_" class="st44" d="M10.8,125.1c-0.2,0.2,0.8,0,0.7,0.2c0.2,0.2,0,0.2-0.1,0.4c-0.7-0.3-0.5,0.6-1,0.1
			c0.3,0,0.3,0.6,0,0.5c-0.6-0.1-0.4,0.7-0.4,0.3c0.1-0.4,0-0.7-0.5-0.9c-0.5-0.2-0.3-0.6-0.4-0.9c-0.3-0.2-0.4-0.4-0.1-0.6
			c0-0.4,0.5-0.7,0.4-1.1c0.2-0.2,0.6-0.3,0.8-0.5c0.6-0.1,0.6-0.6,1.1-0.8c0.5-0.2,1.1-0.2,1.5-0.3c0.3-0.2,0.7-0.4,1.2-0.5
			c0.5-0.3,0.8,0.2,1.2,0.4c0.1,0.3,0.4,0.3,0.6,0c0.5-0.3,1,0,1.4,0.2c0.4,0.2-1.4,0.1-0.9,0.3c0.6,0.3-1.3-0.4-1.3,0.1
			c0.1,0.3-2.1-0.1-1.6,0.4c0.2,0.3,0.3,0-0.5,0.2c-0.4,0.1-1.5,0.8-0.9,1c0.4,0.2-0.2,0-0.4,0.3c-0.4,0.3-0.1,0.1-0.4,0.4
			c-0.5,0.1-0.3,0.2-0.4,0.6C10.6,124.4,10.8,125.2,10.8,125.1z"/>
		<path id="path5880_1_" class="st45" d="M33,121c0,0,2.6,3.1,3.3,4.4c0.7,1.2,0.8,3.2,0.2,3.6c-0.7,0.5-1.7,0-1.9-0.8
			c-0.2-0.7-0.3-0.9,0-2.4c0.1-0.7-0.2-2.2-0.6-2.9C33.6,122.4,32.7,120.9,33,121z"/>
	</g>
	<g>
		<g>
			<path class="st46" d="M33.1,84.9c0.7-0.7,1.6-0.1,2.3-0.7c0.1-0.1,0.2-0.2,0.3-0.3c0.2-0.2,0.2-0.1,0.5-0.2
				c0.4-0.1,0.6-0.4,0.9-0.6c0.6-0.4,0.2-1.3-0.5-1.2c-0.8,0.2-1.6,0.4-2.4,0.4c-0.8,0.1-0.8,1.3,0,1.3c0.9-0.1,1.9-0.2,2.8-0.5
				c-0.2-0.4-0.3-0.8-0.5-1.2c-0.2,0.1-0.3,0.3-0.5,0.4c-0.1,0.1-0.2,0-0.4,0.1c-0.4,0.1-0.5,0.5-0.8,0.6c-0.3,0.2-0.8,0-1.2,0.1
				c-0.5,0.1-0.9,0.4-1.3,0.8C31.6,84.6,32.5,85.5,33.1,84.9L33.1,84.9z"/>
		</g>
	</g>
	<g>
		<g>
			<path class="st46" d="M46.3,82.3c0.7,0.6,1.1,0.5,1.9,0.7c0.5,0.1,0.5,0.4,0.8,0.6c0.2,0.1,0.5,0.1,0.8,0.2
				c0.5,0.1,0.9,0.5,1.4,0.7c0.7,0.3,1.4,0.7,2.1,1c0.8,0.3,1.1-0.9,0.3-1.2c-0.6-0.2-1.1-0.6-1.7-0.8c-0.3-0.1-0.5-0.2-0.8-0.3
				c-0.2-0.1-0.3-0.3-0.5-0.4c-0.2-0.1-0.3-0.1-0.4-0.1c-0.4-0.1-0.6-0.2-0.9-0.4c-0.6-0.4-1.7-0.3-2.2-0.7
				C46.6,80.8,45.7,81.7,46.3,82.3L46.3,82.3z"/>
		</g>
	</g>
	<g>
		<g>
			<path class="st46" d="M36.7,82.7c0.4-0.3,0.8-0.4,1.2-0.3c0.8,0.2,1.1-1.1,0.3-1.2c-0.8-0.2-1.5,0-2.2,0.4
				C35.4,82.1,36,83.1,36.7,82.7L36.7,82.7z"/>
		</g>
	</g>
	<g>
		<g>
			<path class="st46" d="M42.3,81.6c1.2-0.4,2.9-0.2,3.9,0.6c0.6,0.5,1.5-0.4,0.9-0.9c-1.4-1.1-3.5-1.5-5.1-0.9
				C41.2,80.7,41.6,81.9,42.3,81.6L42.3,81.6z"/>
		</g>
	</g>
</g>
<path class="st47" d="M40.2,66h-0.3c-1,0-1.9-0.8-1.9-1.9v0c0-1,0.8-1.9,1.9-1.9h0.3c1,0,1.9,0.8,1.9,1.9v0
	C42.1,65.2,41.2,66,40.2,66z"/>
<ellipse class="st47" cx="41.1" cy="18" rx="8.9" ry="12"/>
<path class="st48" d="M36.3,26.7c0.9,0.4,1.8,0.7,2.7,1c0,0,0.1,0,0.1,0c0,0,0.1,0,0.1,0c0,0,0.1,0,0.1,0c0.3,0.1,0.7,0.2,1,0.3
	c0.4,0.2,0.9,0.2,1.4,0.2c0.9,0,1.8-0.3,2.6-0.9c0.1,0,0.1-0.1,0.2-0.1c0.1,0.2,0,0.3-0.1,0.4c-0.3,0.3-0.6,0.7-0.9,1.1
	c-0.1,0.1-0.1,0.5,0,0.6c0.1,0.1,0.4,0.2,0.5,0.1c0.2-0.2,0.4-0.4,0.4-0.8c-0.2,0.2-0.3,0.3-0.4,0.4c0,0-0.1,0.2-0.1,0.1
	c-0.1-0.1,0-0.1,0.1-0.2c0.1-0.2,0.2-0.3,0.1-0.6c0-0.2,0-0.2,0.1-0.1c0.1,0.1,0.2,0,0.2,0c0.4-0.3,0.6-0.7,0.8-1.2
	c0.1-0.2,0.1-0.5,0.2-0.8c0.1-0.1,0.2-0.2,0.3-0.2c0.2-0.1,0.4-0.1,0.6-0.2c0.2-0.1,0.4-0.2,0.4-0.5c0.1-0.3,0.1-0.7,0.4-0.9
	c0.1-0.1,0.2-0.3,0-0.4c0,0,0-0.1,0.1-0.1c0,0,0,0,0,0c0,0.6-0.2,1.1-0.4,1.7c-0.1,0.2-0.2,0.3-0.3,0.3c-0.1,0-0.2,0.1-0.2,0.3
	c0.1,0.7,0.1,1.4,0.3,2c0.1,0.4,0.2,0.8,0.4,1.2c-0.4-0.1-0.9-0.1-1.3-0.2c-0.1,0-0.2-0.1-0.2,0c-0.1-0.2-0.2,0-0.2,0.1
	c-0.2,0.3-0.4,0.6-0.6,0.9c-0.2,0.3-0.5,0.5-0.7,0.6c-0.2,0.1-0.3,0.2-0.5,0.3c-0.1,0-0.2,0.1-0.4,0.2c-0.5,0.3-1,0.6-1.5,0.9
	c-0.4,0.2-0.8,0.2-1.3,0.2c-0.1,0-0.2,0-0.3,0c0,0-0.1,0-0.1,0c-0.1-0.2-0.2-0.1-0.3-0.1c-0.1,0-0.1,0-0.2,0
	c-0.2-0.1-0.4-0.1-0.5-0.1c0,0,0,0-0.1,0c-0.1-0.1-0.3,0-0.4-0.1c-0.3-0.1-0.6-0.2-0.9-0.4c0,0,0,0,0,0c-0.4-0.3-0.8-0.5-1.2-0.7
	c-0.8-0.4-1.4-1-2-1.7c-0.2-0.3-0.3-0.5-0.5-0.8c0.1-0.5,0.4-1,0.7-1.4c0.2-0.3,0.2-0.7,0.3-1.1c0-0.1,0-0.1-0.1-0.2
	c-0.2-0.1-0.3-0.3-0.4-0.5c-0.6-0.9-1.1-1.9-1.5-2.9c0,0,0.1,0,0.1,0c0.1,0.1,0.1,0.2,0.2,0.3c0.3,0.4,0.5,1,0.7,1.4
	c0.1,0.3,0.3,0.5,0.5,0.7c0.2,0.2,0.3,0.4,0.5,0.6c0.2,0.1,0.2,0.5,0.4,0.5c0,0,0,0,0,0c0,0.1,0,0.1,0.1,0.1c0,0.1,0.1,0.2,0.2,0.2
	C35.7,26.4,36,26.6,36.3,26.7z M42.5,30c0.2,0,0.6-0.5,0.6-0.7c0-0.1-0.1-0.1-0.1-0.1c-0.2,0.2-0.4,0.3-0.6,0.5c0,0.1-0.1,0.1,0,0.2
	C42.4,30,42.5,30,42.5,30z"/>
<g>
	<path class="st49" d="M47.5,15.7c0.8-0.1,1.5-0.7,1.9-1.4c0.4-0.7,0.7-1.5,1.2-2.1c0.3-0.3,0.7-0.7,1.1-0.6c0.2,0,0.4,0.2,0.6,0.4
		c0.3,0.4,0.6,0.8,0.7,1.3c0.6-0.2,1-0.6,1.6-0.7c0.6-0.2,1.4,0.2,1.3,0.8c-0.1,0.8-1.4,0.8-1.7,1.5c0.4,0.3,1,0.5,1.6,0.5
		c0.2,0,0.3,0,0.4,0.1c0,0.1,0,0.2,0,0.2c-0.2,1-1.1,1.9-2.1,2.1c-0.9,0.2-1.8-0.1-2.6-0.5c-0.5-0.2-0.9-0.5-1.4-0.6
		c-1.2-0.3-2.5,0.2-3.7,0.7"/>
</g>
<g>
	<path class="st49" d="M33.6,16.6c-0.8-0.2-1.3-1-1.5-1.8c-0.3-0.8-0.3-1.6-0.7-2.3c-0.2-0.4-0.5-0.8-0.9-0.8
		c-0.2,0-0.5,0.1-0.6,0.2c-0.4,0.3-0.8,0.6-1,1.1c-0.5-0.3-0.9-0.8-1.4-1.1s-1.4-0.2-1.5,0.4c-0.1,0.8,1.1,1.1,1.3,1.9
		c-0.5,0.2-1.1,0.2-1.6,0.1c-0.1,0-0.3-0.1-0.4,0c-0.1,0.1-0.1,0.1-0.1,0.2c0,1,0.6,2.1,1.6,2.5c0.8,0.4,1.7,0.3,2.6,0.1
		c0.5-0.1,1-0.2,1.5-0.3c1.3,0,2.4,0.8,3.4,1.6"/>
</g>
<circle class="st48" cx="41.1" cy="4.5" r="3.1"/>
<g>
	<ellipse class="st46" cx="36.8" cy="12.3" rx="1.2" ry="1.8"/>
	<ellipse cx="37" cy="11.7" rx="0.6" ry="0.8"/>
</g>
<g>
	<ellipse class="st46" cx="45.2" cy="12.3" rx="1.2" ry="1.8"/>
	<ellipse cx="45.5" cy="11.7" rx="0.6" ry="0.8"/>
</g>
</svg>
