<?xml version="1.0" encoding="UTF-8" standalone="no"?>
<svg xmlns:rdf="http://www.w3.org/1999/02/22-rdf-syntax-ns#" xmlns="http://www.w3.org/2000/svg" enable-background="new 0 0 250.9 396.5" xml:space="preserve" version="1.1" xmlns:cc="http://creativecommons.org/ns#" xmlns:xlink="http://www.w3.org/1999/xlink" x="0px" y="0px" width="250.9px" height="396.5px" viewBox="0 0 250.9 396.5" xmlns:dc="http://purl.org/dc/elements/1.1/"><defs><linearGradient id="d" y2="111.5" gradientUnits="userSpaceOnUse" y1="63.148" gradientTransform="matrix(3.2282 0 0 3.2282 24.601 1.7084)" x2="29.584" x1="29.584"><stop stop-color="#DF0000" offset="0"/><stop stop-color="#A00404" offset="1"/></linearGradient><linearGradient id="c" y2="29.846" gradientUnits="userSpaceOnUse" x2="50.724" gradientTransform="matrix(3.2282 0 0 3.2282 24.601 1.7084)" y1="29.846" x1="8.441"><stop offset="0"/><stop stop-color="#505050" offset=".1426"/><stop stop-color="#505050" offset=".834"/><stop offset="1"/></linearGradient></defs><path d="m120.08 4.0231c47.239 0 62.034 12.716 68.374 17.604 6.1272 4.7165 8.713 55.513 8.9455 81.936-0.46002 3.5356-0.19759 7.875-1.2203 11.086l0.58108 83.838h-153.36l0.57785-83.838c-0.62143-11.041 0.95945-7.8285-1.217-11.102 0.23888-26.423 2.8215-77.204 8.9487-81.92 6.3403-4.8876 21.135-17.604 68.374-17.604m0-2.3147c-46.503 0-62.373 12.325-69.152 17.591l-0.63597 0.49392c-1.3333 1.0266-3.083 3.3703-4.8101 12.477-1.046 5.5171-1.9757 12.91-2.7634 21.978-1.4011 16.115-2.0661 34.097-2.2404 46.561h-0.13881c-4.045 0-12.426 2.5762-14.727 5.6236-2.6056 4.292 0.46496 9.3384 6.1369 8.6614 1.414 0 3.0378-0.23889 4.823-0.71343 1.8918-0.5004 3.309-0.99754 4.3807-1.4786 0.23244 1.0427 0.49715 1.7852 0.70699 2.2759l-0.57463 83.292-0.0162 2.3308h158.02l-0.0161-2.3308-0.57787-83.295c0.20661-0.47779 0.4681-1.1944 0.69408-2.192 1.046 0.45518 2.4083 0.92006 4.1935 1.3946 1.7852 0.47456 3.4123 0.71344 4.823 0.71344 5.5955 0.62095 8.7143-5.0154 6.1369-8.6614-2.2921-3.0313-10.595-5.5978-14.663-5.6236-0.17756-12.458-0.84258-30.436-2.2404-46.551-0.78768-9.0681-1.7174-16.464-2.7634-21.984-1.7271-9.1069-3.4768-11.454-4.8101-12.48l-0.63596-0.4907c-6.78-5.261-22.65-17.587-69.15-17.587z" fill="#3f3f3f"/><path d="m196.76 198.49-0.58109-83.838s1.4237-2.2533 1.2332-8.4225c-0.0775-25.497-2.6213-79.718-8.9616-84.599-6.3403-4.8876-21.135-17.604-68.374-17.604s-62.034 12.716-68.378 17.604c-6.3403 4.8811-8.8842 59.103-8.9584 84.599-0.19369 6.1692 1.2332 8.4225 1.2332 8.4225l-0.57785 83.838h153.37z" fill="#787878"/><path fill="#3f3f3f" clip-rule="evenodd" d="m54.575 198.49s-10.343-5.0296-11.373-19.031v19.031h11.373z" fill-rule="evenodd"/><path fill="#3f3f3f" clip-rule="evenodd" d="m185.48 198.49s10.347-5.0296 11.373-19.031v19.031h-11.37z" fill-rule="evenodd"/><path stroke="#1f1f1f" stroke-width=".64565" d="m77.158 12.704c-2.6439 0.53105-21.413 9.4759-24.11 12.509-3.0862 3.4704-4.6325 14.058-4.4388 19.069 1.5431-0.18723 1.2978-5.7915 3.2282-8.6775 1.9273-2.8957 19.755-17.926 25.421-22.598 0.37771-0.31024 0.27762-0.37836-0.10009-0.30281zm85.248 0c-0.0122 0.05364 0.0122 0.14753 0.20014 0.30281 5.6688 4.6713 23.398 19.702 25.322 22.598 1.9273 2.8861 1.7884 8.4903 3.3283 8.6775 0.19693-5.0102-1.3559-15.598-4.4389-19.069-2.8893-3.2502-24.234-13.31-24.412-12.509z" fill="#fff"/><path d="m188.76 81.779-0.54235-0.61982c-12.84-14.702-43.14-16.587-68.11-16.587-24.967 0-55.274 1.8853-68.113 16.587l-0.30023 0.34219-0.28731-0.35188c-0.21307-0.26472 0.74249-21.032 0.75218-21.242 0.68439-14.563 1.3591-23.534 2.0047-26.672l0.0194-0.09035 0.0613-0.07098c1.5657-1.9337 13.362-12.645 20.816-18.569l0.0549-0.05159c0.0452-0.04518 0.0871-0.08722 0.13234-0.12584 0.83612-0.74251 1.7884-1.4559 2.8312-2.1242l0.0807-0.05172c10.947-6.973 30.352-6.973 41.948-6.973 11.564 0 30.888 0 41.89 6.9311h0.0937l0.1001 0.07098c0.24212 0.17756 0.49715 0.36479 0.76187 0.56172 0.42289 0.29376 0.8587 0.62305 1.3559 1.033 7.2571 5.6462 20.057 17.216 21.742 19.295l0.0614 0.07097 0.0194 0.09035c1.5334 7.4605 2.7924 45.496 2.8473 47.11l-0.2163 1.4366zm-68.65-17.978c24.754 0 54.741 1.8563 68.093 16.186-0.1324-3.7125-1.3656-39.249-2.8053-46.503-1.8853-2.234-14.408-13.539-21.565-19.102-0.49068-0.40353-0.91036-0.72635-1.3236-1.0104-0.23244-0.17432-0.45519-0.33575-0.66501-0.48747h-0.0711l-0.0937-0.06456c-10.8-6.8696-30.06-6.8696-41.57-6.8696-11.509 0-30.778 0-41.57 6.8697-1.033 0.6618-1.9628 1.3591-2.7795 2.0855l-0.19693 0.18724c-7.3572 5.8496-18.895 16.306-20.661 18.395-1.3752 6.9278-2.56 40.04-2.7763 46.383 13.413-14.22 43.297-16.07 67.98-16.07z" fill="#333"/><path d="m120.15 63.639c22.072 0 49.163 1.556 63.839 12.539 1.5463-2.6762-9.4878-52.892-19.237-61.559-9.8236-8.7421-29.764-9.0552-44.601-9.0552-14.843-0.00273-34.781 0.30991-44.608 9.052-9.7461 8.6711-20.777 58.883-19.234 61.559 14.676-10.979 41.767-12.535 63.842-12.535z" fill="#bebebe"/><g stroke-width=".64565"><path stroke="#787878" d="m94.41 47.911c-6.4856 0.28409-28.108 6.3887-29.458 7.567-1.5431 1.3494-4.3743 8.8648-5.1458 11.906-0.43581 1.7207 0.58754 2.9894 2.3211 2.2178 0.80061-0.35834 7.8317-3.3864 15.334-5.1426 8.8131-2.0629 17.539-2.8086 18.059-3.4316 0.96202-1.1557 2.3373-11.07 0.70698-12.913-0.2066-0.22922-0.89098-0.24213-1.8175-0.20338zm50.642 0c-0.29378 0.04518-0.50038 0.08722-0.60369 0.20338-1.6335 1.8433-0.25826 11.357 0.70699 12.509 0.51975 0.62629 9.2457 1.3688 18.059 3.4284 7.4992 1.7562 14.634 4.7875 15.434 5.1458 1.7303 0.77477 2.6536-0.09363 2.2178-1.8143-0.77156-3.041-3.6027-10.556-5.1458-11.906-1.443-1.2655-26.23-8.2191-30.668-7.567z" fill="none"/><path stroke="#1f1f1f" d="m62.62 65.315c0.67793-2.4083 1.9886-7.5283 3.3477-8.6001s26.662-8.2546 28.105-6.7922c1.4398 1.4592 0.27118 8.4064-0.57786 9.3232-0.45841 0.49392-8.1772 1.4011-15.951 3.0346-6.6179 1.3946-12.858 4.0192-13.562 4.3-1.5302 0.61336-1.7465 0.10004-1.3623-1.2655z" fill="#343434"/><path stroke="#1f1f1f" d="m178.07 65.315c-0.68116-2.4083-1.9854-7.5283-3.3477-8.6001s-26.665-8.2546-28.105-6.7922c-1.4398 1.4592-0.27117 8.4064 0.57786 9.3232 0.46164 0.49392 8.1772 1.4011 15.951 3.0346 6.6179 1.3946 12.855 4.0192 13.562 4.3 1.5302 0.61336 1.7465 0.10004 1.3623-1.2655z" fill="#343434"/></g><path d="m120.14 5.542c-14.843 0-34.765 0.33758-44.592 9.0798-0.61014 0.54234-1.1961 1.2696-1.8159 2.1186 2.0112 1.3494 21.992-3.8836 46.406-3.6318 24.415-0.25181 44.501 4.9812 46.509 3.6318-0.61658-0.84902-1.3042-1.5764-1.9143-2.1187-9.8268-8.7421-29.755-9.0798-44.592-9.0798zm-49.74 14.931c-3.9417 3.6189-13.24 12.48-14.225 14.023l-2.5219 41.667c3.0636-21.858 9.4801-43.481 16.747-55.687zm99.472 0c7.2636 12.206 13.683 33.829 16.747 55.687l-2.52-41.667c-0.99-1.541-10.29-10.402-14.23-14.021z" fill="#d7d7d7"/><path stroke="#1f1f1f" stroke-width=".64565" d="m162.09 12.668c0.003-0.01228 0.003-0.02266 0.005-0.03235-10.45-6.8051-28.363-7.0731-41.987-7.0731-13.591 0-31.459 0.2647-41.916 7.0279 0.007 0.0258 0.013 0.05487 0.0194 0.07752-2.9474 3.3025 16.971-2.7376 41.938-2.4793 24.967-0.25826 44.879 5.7818 41.938 2.4793z" fill="#191919"/><ellipse rx="1.254" transform="matrix(3.2282 0 0 3.2282 24.601 1.7084)" ry=".358" cy="1.791" cx="29.597" fill="#d7d7d7"/><path stroke="#1f1f1f" stroke-width=".96844" d="m46.894 89.175c-0.70666 0.95879-0.10071 16.645-0.10071 16.645s0.80706 64.826 0.80706 69.407c0 1.6432 2.8725 5.6882 3.5311 3.6318 0.52911-1.6496 0.60497-4.0353 0.60497-4.0353s0.70634-32.034 0.70634-37.428c0-5.3944-4.0508-48.101-5.5487-48.22zm146.48 0c-1.4979 0.11943-5.5494 42.826-5.5494 48.22 0 5.3944 0.707 37.428 0.707 37.428s0.0775 2.3857 0.60689 4.0353c0.65857 2.0564 3.5285-1.9886 3.5285-3.6318 0-4.5809 0.70699-69.407 0.70699-69.407s0.70376-15.686 0-16.645z" fill="#171d23"/><path d="m46.995 101.28c-0.43581 0.0582-1.4359 2.2243-4.7413 2.3179-2.1604-1.924-9.6489 0.6295-12.509 2.3211-3.5375 1.7981-4.148 4.6713-0.90811 6.86 3.7577-2.2178 9.4749-4.0353 15.738-4.0353 3.3735 0 4.9538 8.797 5.8512 4.9457 0.90068-5.1071-0.74734-12.71-3.43-12.409zm145.47 0c-2.3954 0.60369-3.8674 7.6187-3.0281 12.409 0.89745 3.8513 2.5794-4.9457 5.9529-4.9457 6.2628 0 11.98 1.8175 15.738 4.0353 2.6278-1.7078 2.644-4.6164 0.40353-5.9529-8.3192-5.3072-13.323-3.8093-13.82-3.2282-3.3025-0.0937-4.3065-2.2598-4.7423-2.3179-0.16786-0.0194-0.34542-0.0419-0.5036 0z" fill="#0c0c0c"/><path d="m42.253 108.85s-5.9025-0.11615-13.418 3.932c-7.515 4.0482 0.2673 1.2203 7.1625-0.60366 6.8955-1.8272 6.2551-3.3283 6.2551-3.3283zm155.46 0s-0.63919 1.5011 6.2531 3.3283c6.8988 1.824 7.1635 0.60366 7.1635 0.60366-7.5154-4.0482-13.417-3.932-13.417-3.932z" fill="#bceaff"/><path stroke="#1f1f1f" stroke-width=".64565" d="m120.03 198.49h63.881s0.68762-52.746-1.8853-53.85c-10.798-5.091-37.787-9.5621-61.995-9.5621-24.209 0-51.197 4.4711-61.995 9.5621-2.5697 1.1041-1.8821 53.85-1.8821 53.85h63.877" fill="#b4b4b4"/><path d="m95.048 125.43" fill="#232323"/><g clip-rule="evenodd"><path stroke="#3f3f3f" stroke-width="9.6847" stroke-miterlimit="10" d="m54.575 194.62" fill="none"/><g fill-rule="evenodd"><path d="m200.89 366.76c0 7.1021-5.8076 12.913-12.913 12.913h-135.74c-7.1022 0-12.913-5.8109-12.913-12.913v-154.6c0-7.1022 5.8108-12.913 12.913-12.913h135.74c7.1054 0 12.913 5.8108 12.913 12.913v154.6z" fill="url(#d)"/><path stroke="#a80000" stroke-width="2.2598" d="m178.62 272.62c0 3.5511-2.9054 6.4565-6.4565 6.4565h-104.12c-3.5511 0-6.4565-2.9054-6.4565-6.4565v-46.199c0-3.5511 2.9054-6.4565 6.4565-6.4565h104.13c3.5511 0 6.4565 2.9054 6.4565 6.4565v46.199z" fill="#dc0000"/><path d="m41.023 377.38c-0.93619 0-1.7013-5.8108-1.7013-12.913v-153.07c0-7.1022 5.8108-12.913 12.913-12.913h135.74c7.1054 0 12.913 5.8108 12.913 12.913v153.07c0 7.1021-0.77478 12.913-1.7271 12.913-0.94911 0-1.7271-5.8109-1.7271-12.913v-148.53c0-7.1022-5.8076-12.913-12.913-12.913h-128.89c-7.1022 0-12.913 5.8108-12.913 12.913v148.53c0 7.1021-0.76832 12.913-1.7013 12.913z" fill="#870000"/></g></g><path d="m197.8 380.83h-155.4c-2.3373 0-4.2387-1.9047-4.2387-4.2387v-174.27c0-2.3373 1.9014-4.2387 4.2387-4.2387h155.41c2.3405 0 4.2419 1.9047 4.2419 4.2387v174.26c0 2.3372-1.9047 4.2387-4.2452 4.2387zm-155.4-180.42c-1.0621 0-1.9273 0.86518-1.9273 1.9273v174.26c0 1.0621 0.86517 1.9273 1.9273 1.9273h155.4c1.0653 0 1.9305-0.86517 1.9305-1.9273v-174.27c0-1.0621-0.86515-1.9273-1.9305-1.9273h-155.4z" fill="#6d0000"/><path stroke="#000" stroke-width=".96847" d="m46.894 89.73 1.8988-45.906" fill="none"/><path stroke="#000" stroke-width=".96847" d="m193.54 89.152-2.4-44.918" fill="none"/><path d="m120.14 63.652c-25.439 0-57.631 2.0661-69.711 18.259 0.51329 18.504 4.6319 47.772 5.1452 50.341 0.41612 0.98783 2.1184 0 2.1184 0s14.392-9.2844 62.447-9.2844c48.049 0 62.447 9.2844 62.447 9.2844s1.6044 0.98783 2.0144 0c0.51328-2.5697 4.6293-31.84 5.1458-50.341-12.09-16.19-44.17-18.259-69.61-18.259zm-29.362 62.948v10.492s17.123-2.0209 29.254-2.0209c12.132 0 29.258 1.9176 29.258 1.9176v-10.389l-1.8175 7.2636s-13.72-1.2138-27.64-1.2138-27.24 1.6141-27.24 1.6141l-1.8143-7.6639zm6.5566 17.048c-2.2953 0.43905-3.9191 2.4018-3.9352 4.8424-0.0194 2.7989 2.1371 4.9231 4.9457 4.9424 2.8053 0.0161 4.9328-2.0532 4.9424-4.8424 0.01-2.7989-2.1565-4.9328-4.9424-4.9425-0.35188-0.003-0.68114-0.0645-1.0104 0zm12.409 0c-1.1073 0.0453-2.1081 0.44873-3.0249 1.3107-0.0194-0.39708-0.0872-0.67472-0.10333-1.0104h-1.6141v13.72h1.7174v-5.5461c2.334 2.1888 5.3912 1.2945 6.7567-0.10332 1.7303-1.7594 1.9305-4.6132 0.40352-6.5566-0.75864-0.96525-1.824-1.5883-3.0249-1.8143-0.39385-0.0742-0.7425-0.0161-1.1105 0zm11.802 0c-1.2009-0.0258-2.3147 0.37448-3.3283 1.3107-0.0225-0.42292 0.0161-0.70376 0-1.0104h-1.7142v9.1812h1.7142c0.0161-0.33897-0.0193-0.57142 0-1.0072 1.0298 1.033 2.1952 1.3882 3.5317 1.3107 1.3526-0.084 2.5213-0.60045 3.4284-1.6141 1.5205-1.7078 1.6658-4.4066 0.30346-6.2564-0.67147-0.91036-1.6303-1.5237-2.7246-1.8143-0.42291-0.11301-0.8103-0.0937-1.2106-0.10008zm8.6775 0c-1.2074-0.009-2.3405 0.32929-3.0281 1.1073 0.25503 0.47777 0.52943 0.9943 0.80707 1.514 1.8336-1.3107 3.4349-1.3494 4.6422 0 1.1266 1.2558 1.1945 3.1798 0.1 4.4388-1.2106 1.3946-2.8473 1.4043-4.7423 0.10332-0.27117 0.50683-0.54234 1.0169-0.80706 1.5108 1.9983 1.6884 5.2588 1.4688 6.9633-0.50361 1.7529-2.0306 1.5108-5.2943-0.50684-7.0634-0.90068-0.7877-2.221-1.0976-3.4284-1.1073zm11.399 0c-2.7924 0.003-4.9489 2.15-4.9424 4.9425 0 2.7989 2.2404 4.8553 5.0425 4.8424 2.815-0.005 4.9489-2.1436 4.9424-4.9424 0-2.7892-2.2436-4.8456-5.0425-4.8424zm-43.278 1.6141c1.7465 0.003 3.2315 1.5463 3.2282 3.3283 0 1.7787-1.4785 3.2282-3.2282 3.2282-1.7497-0.003-3.2315-1.443-3.2282-3.2282 0-1.782 1.4818-3.3316 3.2282-3.3283zm11.499 0c1.7497 0.01 3.2347 1.5399 3.2282 3.3283-0.01 1.7884-1.4785 3.2476-3.2282 3.2282-1.7594-0.0161-3.238-1.5302-3.2283-3.3283 0.006-1.7884 1.4753-3.2379 3.2283-3.2282zm11.602 0c1.7529 0.01 3.1443 1.5399 3.1282 3.3283-0.0161 1.7949-1.4753 3.2444-3.2282 3.2282-1.7562-0.0161-3.2412-1.5431-3.2282-3.3283 0.0161-1.7884 1.5818-3.2444 3.3283-3.2282zm20.277 0c1.7432 0.005 3.1346 1.5463 3.1282 3.3283-0.005 1.782-1.4818 3.2412-3.2282 3.2282-1.7594-0.0122-3.1346-1.5496-3.1282-3.3283 0.0161-1.7884 1.4753-3.2347 3.2283-3.2282zm-21.284 16.848c-6.8342-0.23889-12.597 4.3355-13.923 10.995-0.39062 1.9724-0.3422 3.8997 0.20339 5.8496 0.0194-0.16465 0.0775-0.24212 0.10008-0.40354 0.44549-3.5123 2.292-6.0659 5.5494-7.3636 3.2379-1.2945 6.2176-0.57462 8.7744 1.7142 2.5987 2.3276 3.2282 5.375 2.3211 8.6775-1.4721 5.3492-7.7672 7.6251-12.409 4.4388-1.3204-0.90392-1.9951-2.1662-1.9144-3.8352 0.0742-1.514 1.3042-2.8602 2.7214-2.9248 1.4592-0.0679 2.7343 0.97168 2.928 2.4212 0.13236 1.004-0.11945 1.9176-0.91037 2.6213 0.77156 0.27116 1.5044 0.18724 2.221 0 2.2469-0.57462 3.8513-2.7408 3.8319-5.1426-0.0194-2.418-1.7594-4.6422-4.1354-5.1458-5.7947-1.23-8.8422 4.045-7.9705 7.8673 0.52942 2.3276 1.8756 4.0902 3.8352 5.3492 2.8247 1.811 5.9884 2.3631 9.2812 2.1177 7.7026-0.58106 13.413-7.68 12.409-15.334-0.86839-6.6082-6.3661-11.673-12.913-11.903zm-24.819 32.483c-1.9273 0-4.8424 3.9352-4.8424 3.9352h58.612s-2.9183-3.9352-4.8424-3.9352h-48.93z"/><path d="m120.1 65.205c24.932 0 56.414 1.1396 68.248 17.006-0.50359 18.13-4.5325 45.748-5.0393 48.269-0.40998 0.96848-2.0144 0-2.0144 0s-14.101-9.0682-61.198-9.0682c-47.094 0-61.195 9.0682-61.195 9.0682s-1.6077 0.96848-2.0144 0c-0.5036-2.5212-4.5325-30.139-5.0393-48.269 11.844-15.87 43.32-17.006 68.252-17.006z" fill="url(#c)"/><path d="m109.14 65.554-14.325 0.7445v55.949l14.527-1.0007zm10.895 59.839c-16.693-0.003-24.824 0.63274-29.256 1.2106 0 0 20.876 1.2106 29.357 1.2106 7.9638 0 29.155-1.2106 29.155-1.2106-4.4324-0.57787-12.563-1.2106-29.256-1.2106zm-30.971 0.90796c-12.535 0.81997-27.957 5.2653-32.686 7.7672v9.2812c11.667-5.3169 32.986-7.9705 32.986-7.9705zm61.84 0-0.20176 9.0794s21.218 2.6529 32.889 7.9699v-9.2812c-4.7294-2.5019-20.154-6.9472-32.686-7.7672z" fill="#a0a0a0"/><g transform="matrix(3.1965 0 0 3.1965 13.691 -49.026)"><path fill="#fff" clip-rule="evenodd" d="m15.918 110.22c-0.724-2.574-0.832-5.163-0.316-7.767 1.755-8.812 9.448-14.86 18.484-14.54 8.661 0.304 15.925 7.001 17.073 15.738 1.33 10.12-6.207 19.444-16.391 20.21-4.353 0.328-8.509-0.396-12.245-2.797-2.587-1.66-4.484-3.89-5.183-6.972-1.157-5.054 2.925-12.043 10.583-10.413 3.146 0.666 5.384 3.548 5.41 6.748 0.028 3.175-2.098 6.032-5.063 6.798-0.954 0.241-1.906 0.303-2.93-0.051 1.044-0.938 1.49-2.054 1.315-3.381-0.258-1.918-2.005-3.35-3.931-3.258-1.872 0.083-3.561 1.843-3.661 3.853-0.109 2.199 0.915 3.877 2.654 5.071 6.136 4.214 14.432 1.193 16.379-5.883 1.199-4.368 0.351-8.279-3.087-11.357-3.378-3.024-7.339-3.977-11.628-2.268-4.301 1.715-6.789 4.984-7.379 9.627-0.025 0.218-0.059 0.425-0.084 0.642z" fill-rule="evenodd"/></g><g clip-rule="evenodd"><path fill="#ccc" d="m63.953 277.58 11.965 1.3651c3.1965-3.5993 5.108-4.9746 9.9187-7.2505 0.85666-0.44751 1.7165-0.86625 2.5924-1.2147 16.846-3.7958 28.241-2.134 37.964 8.3405l50.187-0.66794c-0.71291-3.6368-1.3742-5.2601-2.5329-8.4715-0.006-0.016-0.01-0.0288-0.016-0.0448-0.55939-1.5056-1.1763-2.9791-1.8476-4.4208-0.0256-0.048-0.048-0.0959-0.0703-0.14704-0.65848-1.4001-1.3745-2.7682-2.1353-4.1043-0.0543-0.0927-0.10548-0.18539-0.15982-0.2749-0.74159-1.2818-1.5343-2.538-2.3686-3.7559-0.0959-0.14065-0.19818-0.28129-0.29727-0.42194-0.80872-1.1571-1.6558-2.2855-2.5412-3.3755-0.15663-0.19498-0.31965-0.37718-0.47308-0.56897-0.85666-1.0229-1.7357-2.0202-2.6531-2.9823-0.23014-0.23973-0.46669-0.46669-0.70003-0.70323-0.87904-0.88862-1.7804-1.7549-2.7138-2.586-0.31326-0.27809-0.6393-0.53701-0.95895-0.80871-0.88543-0.75437-1.7868-1.496-2.7202-2.196-0.40596-0.30686-0.82789-0.58815-1.2434-0.88223-0.87904-0.62332-1.7677-1.2434-2.6819-1.8188-0.51144-0.31965-1.0389-0.60733-1.5599-0.911-0.85986-0.50185-1.7133-1.0069-2.5988-1.464-0.62012-0.32284-1.2626-0.60094-1.8955-0.89821-0.8215-0.38678-1.6398-0.78634-2.4805-1.1316-0.73519-0.30687-1.496-0.55939-2.2471-0.83109-0.77355-0.28449-1.5407-0.58496-2.3302-0.83429-0.86626-0.2717-1.7549-0.48267-2.6339-0.71282-0.70962-0.1854-1.4033-0.39956-2.1225-0.55619-1.0484-0.23015-2.1225-0.38997-3.1933-0.55939-0.57537-0.0895-1.1348-0.21736-1.7133-0.29408-1.6622-0.20777-3.3435-0.34842-5.0409-0.40915-32.832-1.3628-54.931 23.237-58.698 45.592z" fill-rule="evenodd"/><path fill="#fff" d="m175.09 272.63c-0.31502-1.1026-1.7851-5.2598-2.7564-7.0974-8.8959-19.313-27.883-32.777-49.683-33.541-24.14-0.85666-45.286 12.51-54.856 33.364-1.2338 2.5201-2.4676 6.1976-2.9139 7.9827-0.2039 0.81557 2.1836 2.8174 4.4943 2.8174h9.1831c3.3531-2.5297 5.6474-4.0122 9.8713-5.6818 14.817-3.7508 26.423-1.8613 35.165 5.6818h47.205c0.84707-0.003 4.5217-2.7179 4.2907-3.5262z" fill-rule="evenodd"/><path stroke="#a80000" stroke-width="2.2598" d="m178.62 272.62c0 3.5511-2.9054 6.4565-6.4565 6.4565h-104.12c-3.5511 0-6.4565-2.9054-6.4565-6.4565v-46.199c0-3.5511 2.9054-6.4565 6.4565-6.4565h104.13c3.5511 0 6.4565 2.9054 6.4565 6.4565v46.199z" fill="none"/></g></svg>
