<?xml version="1.0" encoding="UTF-8" standalone="no"?>
<!-- Generator: Adobe Illustrator 16.0.0, SVG Export Plug-In . SVG Version: 6.00 Build 0) -->

<svg
   xmlns:dc="http://purl.org/dc/elements/1.1/"
   xmlns:cc="http://creativecommons.org/ns#"
   xmlns:rdf="http://www.w3.org/1999/02/22-rdf-syntax-ns#"
   xmlns:svg="http://www.w3.org/2000/svg"
   xmlns="http://www.w3.org/2000/svg"
   xmlns:sodipodi="http://sodipodi.sourceforge.net/DTD/sodipodi-0.dtd"
   xmlns:inkscape="http://www.inkscape.org/namespaces/inkscape"
   xml:space="preserve"
   version="1.1"
   enable-background="new 0 0 250.886 396.549"
   x="0px"
   y="0px"
   width="250.886px"
   height="396.549px"
   viewBox="0 0 250.886 396.549"
   id="svg11124"
   inkscape:version="0.48.4 r9939"
   sodipodi:docname="Wes.svg"><metadata
     id="metadata11400"><rdf:RDF><cc:Work
         rdf:about=""><dc:format>image/svg+xml</dc:format><dc:type
           rdf:resource="http://purl.org/dc/dcmitype/StillImage" /></cc:Work></rdf:RDF></metadata><defs
     id="defs11398" /><sodipodi:namedview
     pagecolor="#ffffff"
     bordercolor="#666666"
     borderopacity="1"
     objecttolerance="10"
     gridtolerance="10"
     guidetolerance="10"
     inkscape:pageopacity="0"
     inkscape:pageshadow="2"
     inkscape:window-width="640"
     inkscape:window-height="480"
     id="namedview11396"
     showgrid="false"
     inkscape:zoom="0.59513451"
     inkscape:cx="-68.630774"
     inkscape:cy="198.27451"
     inkscape:window-x="0"
     inkscape:window-y="515"
     inkscape:window-maximized="0"
     inkscape:current-layer="svg11124" /><g
     id="Layer_2"
     transform="translate(-0.0025,0.01172144)"><path
       d="m 250.84,289.42 0.051,-1.492 -1.628,0.768 c -2.063,1.24 -4.06,2.555 -5.989,3.942 0.906,-8.938 -0.741,-16.198 -4.798,-21.084 -1.465,-5.297 -5.459,-10.092 -10.459,-12.542 l -2.461,-1.207 0.923,2.163 c 0.389,0.912 0.672,1.887 0.841,2.88 -0.906,-0.495 -1.826,-0.937 -2.753,-1.354 0.21,-6.138 0.78,-12.287 1.276,-16.739 9.813,-3.452 10.793,-7.612 2.939,-12.479 l -2.613,-5.371 -2.04,5.065 c -1.291,0.212 -2.497,0.66 -3.519,1.319 -1.196,-1.954 -3.453,-3.373 -6.11,-3.895 l -2.417,-4.97 -1.992,4.947 c -2.07,0.396 -3.906,1.341 -5.197,2.691 -1.003,-0.86 -2.274,-1.477 -3.683,-1.806 l -2.596,-5.343 -2.159,5.356 c -7.984,4.342 -7.73,8.511 0.761,12.506 0.331,4.846 0.202,10.169 -0.064,15.122 -3.574,-7.534 -6.767,-15.186 -9.578,-22.958 2.628,-2.505 4.87,-5.865 6.358,-9.533 3.445,-2.934 7.167,-6.604 8.929,-11.601 l 1.151,-3.265 -2.92,2.489 c -0.446,0.379 -0.947,0.736 -1.476,1.08 1.276,-2.179 2.242,-4.646 2.777,-7.173 l 0.545,-2.576 -2.319,1.869 c -1.723,1.476 -3.518,2.884 -5.384,4.227 -0.681,-2.399 -1.869,-4.471 -3.483,-6.19 6.082,-4.052 9.201,-7.205 10.73,-9.532 0.471,2.07 1.139,4.538 2.003,6.574 l 0.509,1.204 1.185,-0.861 c 4.14,-3.007 6.192,-9.004 7.132,-12.918 7.581,17.117 5.38,-10.907 3.644,-14.903 1.707,0.467 4.548,1.494 8.021,3.711 l 1.699,1.084 v -1.721 c 0,-3.352 -4.412,-8.126 -6.781,-10.449 h 5.529 l -0.73,-1.179 c -0.183,-0.297 -4.26,-6.763 -11.91,-11.066 l 0.139,-1.492 c 0.264,-2.781 0.411,-5.547 0.651,-8.295 h -0.001 l 0.002,-0.01 -2.078,-0.11 v 0.01 l -0.184,0.872 c -0.028,0.145 -0.047,0.292 -0.123,0.436 l -0.184,0.434 -0.181,0.436 c -0.05,0.147 -0.152,0.285 -0.232,0.428 l -0.502,0.849 -0.603,0.824 c -0.03,0.044 -0.068,0.086 -0.102,0.129 l 0.751,-11.199 0.275,-4.119 -2.259,3.727 c -2.53,4.172 -5.348,8.035 -8.142,12.051 -7.281,-1.948 -14.537,-3.965 -21.767,-6.054 -18.26,-6.613 -19.887,-18.936 -18.644,-31.229 0.005,-0.014 0.011,-0.035 0.011,-0.035 l -0.007,-0.001 c 1.302,-12.833 10.538,-31.902 -18.616,-31.542 -0.964,-7.013 -28.093,-7.011 -29.058,0 -40.957,-0.507 -2.161,50.094 -37.203,62.789 -8.309,2.333 -16.614,4.678 -24.915,7.032 l -6.841,-12.978 -2.323,-4.405 0.319,4.763 0.771,11.487 c -0.022,-0.019 -0.045,-0.037 -0.066,-0.057 l -0.566,-0.482 c -0.197,-0.155 -0.421,-0.295 -0.63,-0.444 l -1.281,-0.875 -1.979,-1.353 0.316,2.069 0.616,4.031 c 0.098,0.673 0.198,1.345 0.384,2.003 l 0.271,1.1 c -6.791,4.262 -10.403,9.997 -10.575,10.276 l -0.729,1.179 h 5.529 c -2.37,2.322 -6.781,7.097 -6.781,10.449 v 1.721 l 1.697,-1.084 c 3.477,-2.218 6.316,-3.246 8.022,-3.712 -1.734,3.992 -3.946,32.023 3.645,14.904 0.938,3.914 2.991,9.911 7.131,12.918 l 1.186,0.861 0.51,-1.204 c 0.862,-2.036 1.53,-4.504 2,-6.574 1.371,2.084 4.021,4.834 8.926,8.295 -2.28,4.12 -3.177,8.163 -2.63,12.071 -1.319,-0.635 -2.59,-1.339 -3.813,-2.11 l -4.118,-3.3 2.426,4.213 c 2.412,4.189 5.917,7.25 9.049,9.692 1.516,2.152 3.524,4.304 5.975,6.399 -2.794,9.03 -6.343,17.825 -10.647,26.385 -0.21,-4.51 -0.284,-9.25 0.014,-13.604 8.489,-3.996 8.742,-8.165 0.76,-12.506 l -2.157,-5.356 -2.6,5.343 c -1.406,0.329 -2.678,0.945 -3.682,1.806 -1.29,-1.351 -3.126,-2.296 -5.195,-2.691 l -1.992,-4.947 -2.418,4.97 c -2.657,0.521 -4.915,1.94 -6.111,3.895 -1.021,-0.659 -2.226,-1.107 -3.517,-1.318 l -2.042,-5.066 -2.612,5.371 c -7.856,4.866 -6.876,9.026 2.938,12.479 0.488,4.379 1.049,10.401 1.267,16.439 -6.416,2.728 -11.525,6.55 -15.327,11.466 -0.561,-1.299 -1.07,-2.652 -1.537,-3.892 l -0.819,-2.174 -1.208,1.684 C 4.776,274.679 4.144,284.452 7.476,291.671 6.231,290.566 5.102,289.214 4.1,287.624 l -4.1,-6.52 2.147,7.05 c 2.468,11.36 7.755,21.86 15.859,31.5 10.276,18.383 25.047,29.325 39.409,29.159 9.481,6.397 19.347,12.339 29.597,17.821 l -0.009,0.303 0.159,-0.234 c 3.907,1.768 8.02,3.311 12.483,4.548 3.695,8.321 9.174,15.897 14.898,21.785 l 3.393,3.49 -1.565,-4.219 c -1.584,-4.269 -2.309,-8.078 -2.162,-11.359 4.943,4.776 12.892,7.091 19.021,8.204 l 1.869,0.34 1.16,2.763 0.54,-3.699 c 0.1,-0.689 0.225,-1.375 0.353,-2.06 5.372,0.729 10.653,0.155 15.842,-1.719 l 1.614,-0.601 -1.46,-0.811 c -1.351,-1.052 -2.576,-2.196 -3.677,-3.435 3.896,0.441 7.21,0.052 9.909,-1.098 4.232,2.52 8.77,4.743 13.525,6.614 l 6.803,2.675 -5.637,-4.016 c -2.318,-1.652 -4.376,-3.354 -6.173,-5.104 l 1.669,-1.831 c 4.951,-5.429 7.359,-11.252 8.1,-17.197 5.557,-3.521 11.063,-7.099 16.52,-10.733 l 0.017,0.013 c 0,0 0.05,-0.042 0.121,-0.104 0.173,-0.114 0.337,-0.225 0.51,-0.338 13.362,0.166 26.896,-9.145 37.176,-25.404 5.813,-4.313 12.894,-12.173 14.852,-18.498 l 0.16,-0.124 -0.027,-0.296 0.689,-2.369 -1.983,1.419 h -0.205 l -0.307,0.249 c -0.107,0.086 -0.17,0.177 -0.214,0.263 -0.294,0.202 -0.576,0.386 -0.84,0.54 4.21,-4.51 6.56,-10.66 6.72,-15.17 z m -86.51,85.62 c 1.072,-1.396 1.896,-3.071 2.453,-5.017 0.464,2.104 0.767,4.344 0.896,6.725 l 0.12,2.178 c -1.29,-1.26 -2.45,-2.56 -3.47,-3.88 1.07,-1.39 1.02,1.32 0,0 z m -32.35,10.24 c 0.487,0.172 0.988,0.325 1.495,0.468 0.325,0.729 0.658,1.489 0.996,2.286 l -0.229,-0.202 c -0.88,-0.78 -1.57,-1.65 -2.27,-2.56 0.49,0.17 0.7,0.91 0,0 z"
       id="path11127"
       inkscape:connector-curvature="0"
       style="opacity:0.1" /><polygon
       points="32.502,192.56 28.271,192.56 30.585,186.51 "
       stroke-miterlimit="10"
       id="polygon11129"
       style="fill:#132a3a;stroke:#061016;stroke-miterlimit:10" /><polygon
       points="46.022,189.54 41.791,189.54 44.105,183.49 "
       stroke-miterlimit="10"
       id="polygon11131"
       style="fill:#132a3a;stroke:#061016;stroke-miterlimit:10" /><polygon
       points="58.951,190.14 54.719,190.14 57.034,184.09 "
       stroke-miterlimit="10"
       id="polygon11133"
       style="fill:#132a3a;stroke:#061016;stroke-miterlimit:10" /><linearGradient
       id="SVGID_1_"
       y2="406.29001"
       gradientUnits="userSpaceOnUse"
       x2="43.907001"
       y1="41.778"
       x1="43.907001"><stop
         stop-color="#93AFC6"
         offset=".0114"
         id="stop11136" /><stop
         stop-color="#6B7A9A"
         offset="1"
         id="stop11138" /></linearGradient><path
       stroke-miterlimit="10"
       d="m 63.718,196.64 c 0,-3.802 -3.082,-6.884 -6.883,-6.884 -2.483,0 -4.652,1.319 -5.863,3.29 -1.307,-2.545 -3.953,-4.29 -7.011,-4.29 -3.646,0 -6.706,2.479 -7.606,5.842 -1.262,-1.578 -3.199,-2.592 -5.376,-2.592 -3.802,0 -6.883,3.082 -6.883,6.884 0,3.801 3.082,6.883 6.883,6.883 0.297,0 0.587,-0.025 0.875,-0.062 0.977,10.838 2.227,29.366 0.649,40.629 -2.333,16.666 24.333,-1.541 25.667,-1.938 1.17,-0.348 -1.766,-23.545 -0.701,-40.912 3.504,-0.32 6.249,-3.26 6.249,-6.85 z"
       id="path11140"
       style="fill:url(#SVGID_1_);stroke:#25363d;stroke-width:2;stroke-miterlimit:10"
       inkscape:connector-curvature="0" /><path
       d="m 25.135,199.78 c 0,0 -0.002,-0.238 -0.006,-0.654 -0.008,-0.208 -0.006,-0.459 0.038,-0.751 0.035,-0.292 0.055,-0.629 0.159,-0.979 0.044,-0.178 0.091,-0.362 0.139,-0.554 0.073,-0.185 0.149,-0.375 0.228,-0.571 0.069,-0.203 0.175,-0.393 0.293,-0.585 0.122,-0.188 0.211,-0.408 0.373,-0.581 0.15,-0.182 0.298,-0.374 0.463,-0.556 0.185,-0.164 0.373,-0.329 0.562,-0.496 0.412,-0.291 0.856,-0.571 1.349,-0.745 0.239,-0.114 0.492,-0.172 0.747,-0.229 0.253,-0.061 0.508,-0.126 0.765,-0.132 0.255,-0.016 0.513,-0.05 0.764,-0.047 0.251,0.016 0.499,0.032 0.742,0.048 0.486,0.043 0.941,0.162 1.377,0.256 0.416,0.142 0.824,0.258 1.179,0.404 0.703,0.307 1.28,0.59 1.651,0.831 0.385,0.227 0.605,0.355 0.605,0.355 l -1.19,1.607 c 0,0 -0.174,-0.135 -0.479,-0.372 -0.297,-0.257 -0.752,-0.556 -1.316,-0.9 -0.284,-0.164 -0.607,-0.3 -0.944,-0.471 -0.347,-0.121 -0.716,-0.275 -1.107,-0.362 -0.198,-0.04 -0.399,-0.081 -0.602,-0.122 -0.205,-0.031 -0.412,-0.026 -0.623,-0.043 -0.214,-0.027 -0.421,0.002 -0.633,0.024 -0.213,0.018 -0.429,0.035 -0.631,0.104 -0.423,0.085 -0.815,0.269 -1.197,0.465 -0.18,0.12 -0.357,0.24 -0.533,0.357 -0.161,0.138 -0.31,0.288 -0.465,0.43 -0.166,0.132 -0.266,0.318 -0.399,0.473 -0.13,0.158 -0.251,0.319 -0.337,0.496 -0.097,0.172 -0.191,0.339 -0.282,0.501 -0.068,0.174 -0.134,0.342 -0.198,0.503 -0.145,0.321 -0.204,0.634 -0.275,0.911 -0.08,0.274 -0.116,0.525 -0.135,0.733 -0.053,0.4 -0.082,0.64 -0.082,0.64 z"
       id="path11142"
       inkscape:connector-curvature="0"
       style="fill:#b8cedd" /><linearGradient
       id="SVGID_2_"
       y2="406.29001"
       gradientUnits="userSpaceOnUse"
       x2="37.077999"
       y1="41.778999"
       x1="37.077999"><stop
         stop-color="#93AFC6"
         offset=".0114"
         id="stop11145" /><stop
         stop-color="#6B7A9A"
         offset="1"
         id="stop11147" /></linearGradient><path
       d="m 36.455,194.4 c 0,0 -1.794,3.421 1.706,8.921"
       id="path11149"
       style="fill:url(#SVGID_2_)"
       inkscape:connector-curvature="0" /><path
       d="m 37.362,194.82 c 0,0 -0.019,0.032 -0.053,0.092 -0.044,0.072 -0.058,0.117 -0.102,0.2 -0.088,0.13 -0.183,0.462 -0.303,0.82 -0.038,0.194 -0.078,0.404 -0.121,0.626 -0.061,0.223 -0.056,0.469 -0.07,0.725 -0.006,0.255 -0.037,0.522 -0.025,0.795 0.029,0.274 0.059,0.552 0.088,0.831 0.035,0.279 0.039,0.57 0.129,0.837 0.071,0.273 0.141,0.542 0.208,0.803 0.071,0.261 0.128,0.521 0.205,0.759 0.097,0.231 0.188,0.449 0.272,0.65 0.342,0.817 0.57,1.362 0.57,1.362 0,0 -0.339,-0.487 -0.847,-1.218 -0.128,-0.186 -0.268,-0.386 -0.415,-0.599 -0.129,-0.222 -0.243,-0.47 -0.374,-0.722 -0.128,-0.255 -0.26,-0.52 -0.395,-0.788 -0.153,-0.264 -0.225,-0.563 -0.327,-0.855 -0.097,-0.296 -0.193,-0.593 -0.289,-0.885 -0.078,-0.298 -0.112,-0.604 -0.167,-0.898 -0.047,-0.295 -0.109,-0.582 -0.1,-0.863 -0.005,-0.282 -0.011,-0.549 -0.015,-0.795 0.051,-0.505 0.074,-0.905 0.181,-1.254 0.09,-0.354 0.134,-0.463 0.134,-0.463 l 1.816,0.83 z"
       id="path11151"
       inkscape:connector-curvature="0"
       style="fill:#25363d" /><path
       d="m 50.81,193.33 c 0,0 0.192,-0.148 0.529,-0.406 0.155,-0.128 0.381,-0.288 0.669,-0.471 0.276,-0.185 0.587,-0.388 0.938,-0.56 0.34,-0.194 0.729,-0.37 1.152,-0.532 0.41,-0.182 0.885,-0.293 1.359,-0.418 0.49,-0.095 0.996,-0.172 1.525,-0.166 0.26,-0.024 0.528,0.028 0.792,0.054 0.266,0.017 0.527,0.078 0.784,0.163 0.259,0.072 0.515,0.144 0.749,0.28 0.232,0.131 0.488,0.211 0.685,0.389 0.205,0.161 0.416,0.309 0.603,0.476 0.167,0.186 0.331,0.37 0.493,0.551 0.295,0.376 0.531,0.778 0.727,1.157 0.156,0.401 0.352,0.758 0.44,1.118 0.097,0.355 0.185,0.681 0.263,0.97 0.046,0.294 0.086,0.55 0.119,0.761 0.063,0.419 0.099,0.659 0.099,0.659 0,0 -0.066,-0.233 -0.183,-0.641 -0.059,-0.202 -0.131,-0.448 -0.213,-0.729 -0.112,-0.27 -0.238,-0.574 -0.376,-0.906 -0.128,-0.334 -0.361,-0.649 -0.552,-1.002 -0.229,-0.329 -0.49,-0.665 -0.793,-0.962 -0.16,-0.139 -0.323,-0.28 -0.488,-0.422 -0.179,-0.121 -0.374,-0.22 -0.559,-0.332 -0.177,-0.129 -0.404,-0.16 -0.602,-0.244 -0.198,-0.088 -0.417,-0.116 -0.631,-0.146 -0.212,-0.043 -0.426,-0.066 -0.645,-0.048 -0.217,0.009 -0.428,-0.012 -0.643,0.04 -0.427,0.048 -0.836,0.169 -1.227,0.298 -0.383,0.161 -0.759,0.294 -1.087,0.498 -0.336,0.182 -0.644,0.37 -0.912,0.575 -0.283,0.186 -0.505,0.381 -0.701,0.55 -0.195,0.157 -0.372,0.317 -0.525,0.479 -0.3,0.3 -0.472,0.471 -0.472,0.471 l -1.317,-1.51 z"
       id="path11153"
       inkscape:connector-curvature="0"
       style="fill:#b8cedd" /><linearGradient
       id="SVGID_3_"
       y2="406.29001"
       gradientUnits="userSpaceOnUse"
       x2="50.306"
       y1="41.778999"
       x1="50.306"><stop
         stop-color="#93AFC6"
         offset=".0114"
         id="stop11156" /><stop
         stop-color="#6B7A9A"
         offset="1"
         id="stop11158" /></linearGradient><path
       d="m 50.929,192.9 c 0,0 1.794,3.421 -1.706,8.921"
       id="path11160"
       style="fill:url(#SVGID_3_)"
       inkscape:connector-curvature="0" /><path
       d="m 51.836,192.48 c 0,0 0.044,0.109 0.134,0.463 0.107,0.349 0.13,0.749 0.181,1.254 -0.004,0.246 -0.01,0.513 -0.015,0.795 0.009,0.281 -0.053,0.568 -0.1,0.863 -0.055,0.294 -0.088,0.6 -0.167,0.898 -0.095,0.292 -0.192,0.589 -0.289,0.885 -0.102,0.292 -0.174,0.592 -0.327,0.855 -0.134,0.268 -0.267,0.532 -0.395,0.788 -0.13,0.252 -0.244,0.5 -0.373,0.722 -0.147,0.213 -0.287,0.414 -0.415,0.599 -0.508,0.73 -0.847,1.218 -0.847,1.218 0,0 0.228,-0.545 0.57,-1.362 0.084,-0.201 0.175,-0.419 0.271,-0.65 0.078,-0.238 0.134,-0.498 0.206,-0.759 0.067,-0.261 0.138,-0.53 0.208,-0.803 0.09,-0.267 0.094,-0.558 0.129,-0.837 0.029,-0.278 0.059,-0.557 0.088,-0.831 0.012,-0.273 -0.019,-0.541 -0.025,-0.795 -0.014,-0.255 -0.009,-0.501 -0.07,-0.725 -0.043,-0.222 -0.083,-0.433 -0.121,-0.626 -0.121,-0.358 -0.215,-0.69 -0.303,-0.82 -0.043,-0.083 -0.057,-0.128 -0.102,-0.2 -0.035,-0.06 -0.053,-0.092 -0.053,-0.092 l 1.815,-0.84 z"
       id="path11162"
       inkscape:connector-curvature="0"
       style="fill:#25363d" /><path
       d="m 37.166,252.36 h 0.001 c 5.49,0 14.703,-5.446 18.638,-7.771 0.81,-0.479 1.285,-0.759 1.599,-0.926 0.159,-1.244 -0.104,-5.72 -0.358,-10.059 -0.333,-5.675 -0.746,-12.745 -0.806,-19.771 -7.705,0.48 -15.736,1.779 -22.46,4.332 0.552,9.576 0.79,20.636 -0.287,28.318 -0.32,2.285 -0.075,3.913 0.729,4.837 0.608,0.7 1.57,1.04 2.944,1.04 z"
       id="path11164"
       inkscape:connector-curvature="0"
       style="opacity:0.6;fill:#4a5b77" /><path
       d="m 36.978,198.06 c 0,0 -0.015,-0.084 -0.042,-0.243 -0.02,-0.159 -0.085,-0.388 -0.101,-0.688 -0.004,-0.3 -0.047,-0.692 0.018,-1.116 0.033,-0.432 0.126,-0.922 0.304,-1.437 0.174,-0.515 0.41,-1.077 0.783,-1.595 0.349,-0.535 0.803,-1.053 1.351,-1.498 0.545,-0.448 1.174,-0.835 1.858,-1.132 0.691,-0.274 1.425,-0.478 2.176,-0.558 0.187,-0.032 0.375,-0.026 0.563,-0.037 l 0.281,-0.01 0.07,-0.002 0.035,-0.001 h 0.018 l 0.11,0.004 0.125,0.013 c 0.331,0.038 0.66,0.075 0.987,0.112 0.298,10e-4 0.739,0.181 1.095,0.292 0.376,0.122 0.74,0.248 1.036,0.456 0.304,0.196 0.629,0.348 0.889,0.577 0.245,0.244 0.484,0.483 0.717,0.716 0.24,0.221 0.377,0.52 0.548,0.768 0.155,0.261 0.319,0.5 0.395,0.772 0.195,0.52 0.364,0.986 0.381,1.432 0.054,0.434 0.103,0.8 0.048,1.111 -0.062,0.613 -0.119,0.941 -0.119,0.941 0,0 -0.114,-0.338 -0.276,-0.891 -0.052,-0.282 -0.236,-0.592 -0.388,-0.946 -0.129,-0.366 -0.408,-0.709 -0.651,-1.091 -0.106,-0.202 -0.293,-0.357 -0.463,-0.528 -0.183,-0.158 -0.303,-0.38 -0.526,-0.508 -0.203,-0.142 -0.412,-0.287 -0.625,-0.436 -0.224,-0.125 -0.475,-0.22 -0.71,-0.337 -0.235,-0.14 -0.488,-0.183 -0.733,-0.235 l -0.367,-0.092 c -0.105,-0.047 -0.26,-0.064 -0.434,-0.069 -0.328,-0.023 -0.659,-0.046 -0.992,-0.069 l -0.125,-0.01 c -0.086,-0.004 0.109,0.004 0.086,0.004 h -0.007 l -0.014,10e-4 -0.027,0.001 -0.055,0.003 -0.219,0.013 c -0.146,0.011 -0.293,0.007 -0.436,0.035 -0.583,0.051 -1.146,0.206 -1.693,0.375 -0.53,0.211 -1.058,0.426 -1.513,0.737 -0.449,0.312 -0.884,0.633 -1.233,1.012 -0.187,0.18 -0.342,0.376 -0.493,0.571 -0.167,0.184 -0.29,0.389 -0.419,0.582 -0.242,0.394 -0.455,0.778 -0.602,1.14 -0.168,0.36 -0.259,0.682 -0.362,0.957 -0.158,0.61 -0.249,0.94 -0.249,0.94 z"
       id="path11166"
       inkscape:connector-curvature="0"
       style="fill:#b8cedd" /><polygon
       points="220.24,192.56 224.48,192.56 222.16,186.51 "
       stroke-miterlimit="10"
       id="polygon11168"
       style="fill:#132a3a;stroke:#061016;stroke-miterlimit:10" /><polygon
       points="206.72,189.54 210.96,189.54 208.64,183.49 "
       stroke-miterlimit="10"
       id="polygon11170"
       style="fill:#132a3a;stroke:#061016;stroke-miterlimit:10" /><polygon
       points="193.8,190.14 198.03,190.14 195.71,184.09 "
       stroke-miterlimit="10"
       id="polygon11172"
       style="fill:#132a3a;stroke:#061016;stroke-miterlimit:10" /><linearGradient
       id="SVGID_4_"
       y2="406.29001"
       gradientUnits="userSpaceOnUse"
       x2="208.84"
       y1="41.778"
       x1="208.84"><stop
         stop-color="#93AFC6"
         offset=".0114"
         id="stop11175" /><stop
         stop-color="#6B7A9A"
         offset="1"
         id="stop11177" /></linearGradient><path
       stroke-miterlimit="10"
       d="m 189.03,196.64 c 0,-3.802 3.082,-6.884 6.884,-6.884 2.483,0 4.652,1.319 5.862,3.29 1.308,-2.545 3.953,-4.29 7.012,-4.29 3.646,0 6.706,2.479 7.606,5.842 1.262,-1.578 3.199,-2.592 5.376,-2.592 3.803,0 6.884,3.082 6.884,6.884 0,3.801 -3.081,6.883 -6.884,6.883 -0.297,0 -0.587,-0.025 -0.874,-0.062 -0.977,10.838 -2.227,29.366 -0.649,40.629 2.334,16.666 -24.334,-1.541 -25.666,-1.938 -1.17,-0.348 1.766,-23.545 0.7,-40.912 -3.51,-0.32 -6.25,-3.26 -6.25,-6.85 z"
       id="path11179"
       style="fill:url(#SVGID_4_);stroke:#25363d;stroke-width:2;stroke-miterlimit:10"
       inkscape:connector-curvature="0" /><path
       d="m 196.51,213.46 c -0.05,7.146 -0.472,14.362 -0.81,20.136 -0.255,4.339 -0.517,8.815 -0.357,10.06 0.312,0.167 0.788,0.447 1.597,0.925 3.935,2.326 13.149,7.772 18.641,7.772 1.372,0 2.335,-0.34 2.943,-1.04 0.804,-0.924 1.05,-2.552 0.729,-4.837 -1.045,-7.46 -0.852,-18.103 -0.334,-27.481 -7.19,-2.46 -14.97,-4.93 -22.41,-5.53 z"
       id="path11181"
       inkscape:connector-curvature="0"
       style="opacity:0.6;fill:#4a5b77" /><path
       d="m 227.64,199.78 c 0,0 -0.029,-0.236 -0.08,-0.649 -0.019,-0.208 -0.055,-0.458 -0.135,-0.733 -0.071,-0.277 -0.13,-0.59 -0.275,-0.911 -0.063,-0.161 -0.129,-0.33 -0.198,-0.503 -0.091,-0.162 -0.185,-0.33 -0.282,-0.501 -0.086,-0.177 -0.207,-0.337 -0.337,-0.496 -0.133,-0.154 -0.233,-0.34 -0.399,-0.473 -0.155,-0.142 -0.304,-0.292 -0.465,-0.43 -0.176,-0.118 -0.354,-0.237 -0.533,-0.357 -0.382,-0.196 -0.773,-0.38 -1.197,-0.465 -0.202,-0.069 -0.418,-0.086 -0.631,-0.104 -0.212,-0.022 -0.42,-0.051 -0.634,-0.024 -0.211,0.017 -0.418,0.013 -0.622,0.043 -0.204,0.041 -0.405,0.082 -0.603,0.122 -0.392,0.087 -0.761,0.242 -1.107,0.362 -0.337,0.171 -0.66,0.308 -0.944,0.471 -0.564,0.344 -1.02,0.643 -1.316,0.9 -0.304,0.236 -0.478,0.372 -0.478,0.372 l -1.191,-1.607 c 0,0 0.221,-0.129 0.605,-0.355 0.371,-0.241 0.948,-0.524 1.651,-0.831 0.355,-0.146 0.764,-0.263 1.18,-0.404 0.436,-0.094 0.891,-0.213 1.377,-0.256 0.244,-0.016 0.491,-0.032 0.742,-0.048 0.251,-0.003 0.509,0.031 0.764,0.047 0.256,0.006 0.511,0.071 0.765,0.132 0.254,0.056 0.507,0.114 0.746,0.229 0.493,0.173 0.938,0.454 1.35,0.745 0.188,0.167 0.377,0.332 0.562,0.496 0.165,0.182 0.313,0.375 0.464,0.556 0.162,0.173 0.251,0.393 0.373,0.582 0.118,0.191 0.225,0.382 0.293,0.584 0.078,0.196 0.154,0.387 0.229,0.571 0.048,0.192 0.094,0.377 0.138,0.554 0.105,0.349 0.125,0.687 0.159,0.979 0.044,0.292 0.046,0.543 0.038,0.751 -0.01,0.41 -0.01,0.65 -0.01,0.65 z"
       id="path11183"
       inkscape:connector-curvature="0"
       style="fill:#b8cedd" /><path
       d="m 200.65,194.84 c 0,0 -0.172,-0.171 -0.472,-0.471 -0.153,-0.163 -0.33,-0.322 -0.525,-0.479 -0.196,-0.169 -0.418,-0.365 -0.7,-0.55 -0.269,-0.205 -0.575,-0.393 -0.911,-0.575 -0.328,-0.204 -0.704,-0.337 -1.087,-0.498 -0.392,-0.128 -0.801,-0.25 -1.228,-0.298 -0.214,-0.052 -0.426,-0.031 -0.643,-0.04 -0.22,-0.018 -0.434,0.005 -0.645,0.048 -0.215,0.03 -0.434,0.058 -0.632,0.146 -0.198,0.084 -0.426,0.115 -0.602,0.244 -0.185,0.112 -0.38,0.211 -0.559,0.332 -0.165,0.143 -0.328,0.284 -0.488,0.422 -0.303,0.298 -0.564,0.634 -0.793,0.962 -0.19,0.354 -0.423,0.668 -0.552,1.002 -0.138,0.332 -0.264,0.636 -0.376,0.906 -0.082,0.282 -0.153,0.527 -0.212,0.729 -0.117,0.408 -0.184,0.641 -0.184,0.641 0,0 0.036,-0.24 0.1,-0.659 0.032,-0.211 0.072,-0.467 0.118,-0.761 0.078,-0.289 0.167,-0.614 0.263,-0.969 0.089,-0.361 0.284,-0.717 0.44,-1.119 0.195,-0.379 0.432,-0.781 0.727,-1.157 0.162,-0.181 0.326,-0.365 0.493,-0.551 0.187,-0.167 0.397,-0.315 0.603,-0.476 0.196,-0.177 0.452,-0.258 0.685,-0.389 0.233,-0.136 0.489,-0.208 0.748,-0.28 0.258,-0.085 0.519,-0.146 0.784,-0.163 0.265,-0.026 0.533,-0.079 0.793,-0.054 0.529,-0.007 1.036,0.07 1.525,0.166 0.474,0.125 0.949,0.236 1.359,0.418 0.422,0.162 0.812,0.337 1.151,0.532 0.351,0.171 0.662,0.375 0.938,0.56 0.288,0.183 0.513,0.343 0.669,0.471 0.336,0.258 0.528,0.406 0.528,0.406 l -1.32,1.51 z"
       id="path11185"
       inkscape:connector-curvature="0"
       style="fill:#b8cedd" /><linearGradient
       id="SVGID_5_"
       y2="406.29001"
       gradientUnits="userSpaceOnUse"
       x2="215.67"
       y1="41.778999"
       x1="215.67"><stop
         stop-color="#93AFC6"
         offset=".0114"
         id="stop11188" /><stop
         stop-color="#6B7A9A"
         offset="1"
         id="stop11190" /></linearGradient><path
       d="m 216.29,194.4 c 0,0 1.795,3.421 -1.705,8.921"
       id="path11192"
       style="fill:url(#SVGID_5_)"
       inkscape:connector-curvature="0" /><path
       d="m 217.2,193.98 c 0,0 0.044,0.109 0.134,0.463 0.106,0.349 0.13,0.748 0.181,1.254 -0.004,0.246 -0.01,0.513 -0.015,0.795 0.009,0.281 -0.053,0.567 -0.1,0.863 -0.055,0.294 -0.089,0.6 -0.167,0.898 -0.095,0.292 -0.191,0.588 -0.288,0.885 -0.103,0.292 -0.174,0.592 -0.327,0.855 -0.135,0.268 -0.267,0.532 -0.395,0.788 -0.131,0.252 -0.244,0.5 -0.374,0.722 -0.146,0.213 -0.286,0.414 -0.414,0.599 -0.509,0.73 -0.848,1.218 -0.848,1.218 0,0 0.228,-0.545 0.57,-1.362 0.084,-0.201 0.175,-0.419 0.271,-0.65 0.077,-0.238 0.134,-0.498 0.205,-0.759 0.067,-0.261 0.138,-0.53 0.209,-0.803 0.089,-0.268 0.093,-0.558 0.128,-0.837 0.029,-0.278 0.06,-0.557 0.088,-0.831 0.013,-0.273 -0.019,-0.541 -0.024,-0.795 -0.014,-0.255 -0.009,-0.501 -0.07,-0.725 -0.043,-0.222 -0.083,-0.433 -0.121,-0.626 -0.12,-0.358 -0.215,-0.69 -0.304,-0.82 -0.043,-0.083 -0.057,-0.128 -0.102,-0.2 -0.034,-0.06 -0.053,-0.092 -0.053,-0.092 l 1.79,-0.84 z"
       id="path11194"
       inkscape:connector-curvature="0"
       style="fill:#25363d" /><linearGradient
       id="SVGID_6_"
       y2="406.29001"
       gradientUnits="userSpaceOnUse"
       x2="202.44"
       y1="41.778999"
       x1="202.44"><stop
         stop-color="#93AFC6"
         offset=".0114"
         id="stop11197" /><stop
         stop-color="#6B7A9A"
         offset="1"
         id="stop11199" /></linearGradient><path
       d="m 201.82,192.9 c 0,0 -1.794,3.421 1.706,8.921"
       id="path11201"
       style="fill:url(#SVGID_6_)"
       inkscape:connector-curvature="0" /><path
       d="m 202.72,193.32 c 0,0 -0.019,0.032 -0.053,0.092 -0.045,0.071 -0.059,0.117 -0.102,0.2 -0.089,0.13 -0.183,0.462 -0.304,0.821 -0.037,0.194 -0.078,0.404 -0.121,0.626 -0.061,0.223 -0.056,0.469 -0.069,0.725 -0.006,0.255 -0.037,0.522 -0.025,0.795 0.029,0.274 0.059,0.552 0.089,0.831 0.035,0.279 0.038,0.57 0.128,0.837 0.071,0.273 0.142,0.542 0.209,0.803 0.071,0.261 0.128,0.521 0.205,0.759 0.097,0.231 0.188,0.449 0.271,0.65 0.343,0.817 0.57,1.362 0.57,1.362 0,0 -0.339,-0.487 -0.848,-1.218 -0.128,-0.186 -0.268,-0.386 -0.414,-0.599 -0.13,-0.222 -0.243,-0.47 -0.374,-0.722 -0.128,-0.255 -0.26,-0.52 -0.395,-0.788 -0.153,-0.264 -0.225,-0.563 -0.327,-0.855 -0.097,-0.296 -0.193,-0.593 -0.289,-0.885 -0.078,-0.298 -0.111,-0.604 -0.166,-0.898 -0.047,-0.295 -0.109,-0.582 -0.1,-0.863 -0.006,-0.282 -0.011,-0.548 -0.016,-0.794 0.051,-0.506 0.074,-0.905 0.181,-1.254 0.09,-0.355 0.134,-0.464 0.134,-0.464 l 1.8,0.82 z"
       id="path11203"
       inkscape:connector-curvature="0"
       style="fill:#25363d" /><path
       d="m 215.8,198.06 c 0,0 -0.092,-0.329 -0.251,-0.904 -0.104,-0.275 -0.194,-0.597 -0.362,-0.957 -0.146,-0.362 -0.36,-0.746 -0.602,-1.14 -0.13,-0.193 -0.252,-0.398 -0.42,-0.582 -0.15,-0.195 -0.306,-0.391 -0.492,-0.571 -0.35,-0.378 -0.784,-0.7 -1.233,-1.012 -0.455,-0.311 -0.983,-0.526 -1.513,-0.737 -0.547,-0.169 -1.109,-0.325 -1.692,-0.375 -0.144,-0.028 -0.291,-0.023 -0.437,-0.035 l -0.219,-0.013 -0.055,-0.003 -0.027,-0.001 -0.014,-10e-4 h -0.007 c -0.022,0 0.173,-0.008 0.086,-0.004 l -0.124,0.01 c -0.332,0.023 -0.663,0.046 -0.992,0.069 -0.173,0.005 -0.327,0.022 -0.434,0.069 l -0.366,0.092 c -0.246,0.052 -0.498,0.095 -0.733,0.235 -0.236,0.118 -0.486,0.212 -0.711,0.338 -0.213,0.148 -0.422,0.294 -0.625,0.436 -0.223,0.128 -0.343,0.35 -0.526,0.508 -0.169,0.171 -0.356,0.326 -0.463,0.528 -0.243,0.381 -0.522,0.725 -0.651,1.09 -0.151,0.354 -0.336,0.665 -0.389,0.946 -0.161,0.553 -0.275,0.891 -0.275,0.891 0,0 -0.057,-0.328 -0.119,-0.941 -0.054,-0.311 -0.005,-0.677 0.049,-1.111 0.018,-0.446 0.187,-0.912 0.382,-1.432 0.075,-0.272 0.239,-0.511 0.395,-0.772 0.171,-0.248 0.309,-0.547 0.548,-0.768 0.233,-0.232 0.473,-0.471 0.717,-0.716 0.26,-0.229 0.585,-0.38 0.89,-0.576 0.295,-0.208 0.659,-0.334 1.036,-0.456 0.355,-0.111 0.797,-0.291 1.095,-0.292 0.327,-0.037 0.656,-0.075 0.987,-0.112 l 0.124,-0.013 0.111,-0.004 h 0.018 l 0.035,0.001 0.07,0.002 0.281,0.01 c 0.188,0.011 0.376,0.005 0.562,0.037 0.75,0.08 1.485,0.284 2.176,0.558 0.684,0.297 1.312,0.684 1.858,1.132 0.548,0.445 1.002,0.962 1.351,1.498 0.374,0.518 0.609,1.08 0.783,1.595 0.178,0.515 0.271,1.004 0.304,1.436 0.065,0.424 0.022,0.816 0.019,1.116 -0.016,0.3 -0.081,0.529 -0.102,0.688 -0.07,0.13 -0.08,0.21 -0.08,0.21 z"
       id="path11205"
       inkscape:connector-curvature="0"
       style="fill:#b8cedd" /><g
       stroke-miterlimit="10"
       id="g11207"
       style="stroke:#25363d;stroke-width:2;stroke-miterlimit:10"><linearGradient
         id="SVGID_7_"
         y2="406.29001"
         gradientUnits="userSpaceOnUse"
         x2="126.44"
         y1="41.779999"
         x1="126.44"><stop
           stop-color="#93AFC6"
           offset=".0114"
           id="stop11210" /><stop
           stop-color="#6B7A9A"
           offset="1"
           id="stop11212" /></linearGradient><path
         d="m 244.8,261.24 c -2.704,1.622 -4.644,4.445 -7.452,5.937 1.158,-10.955 -0.044,-20.842 -4.354,-27.312 -1.206,-5.744 -4.68,-11.761 -9.629,-14.844 0.636,1.894 0.979,3.921 1.029,5.931 -15.573,-12.125 -29.806,-4.5 -29.806,-4.5 0,0 -2.169,-5.389 -5.894,-16.47 -1.184,-3.521 -2.858,-9.029 -4.73,-15.407 2.692,-3.115 4.896,-7.333 6.329,-11.91 3.722,-4.008 6.946,-8.337 8.492,-13.904 -1.676,1.815 -4.021,3.163 -5.659,4.658 2.594,-3.46 4.399,-8.202 5.188,-12.933 -1.95,1.998 -3.956,4.525 -6.573,6.17 -0.861,-5.355 -3.32,-10.021 -7.902,-12.704 -20.5,-12 -119,-1.5 -119,-1.5 -4.168,7.319 -5.271,14.022 -4.01,20.216 -1.809,-1.287 -4.356,-2.556 -5.708,-3.933 2.144,4.731 5.174,8.26 8.581,11.627 1.547,2.822 3.588,5.535 6.046,8.148 -2.789,9.706 -5.207,18.061 -6.24,21.472 -3.169,10.47 -6.669,16.47 -6.669,16.47 0,0 -18.336,-10.265 -36.5,11.866 -1.204,1.467 -2.205,3.164 -3.027,5.043 -0.926,-2.343 -1.711,-5.036 -2.411,-7.394 -4.923,8.724 -4.985,22.834 -0.02,31.455 0.006,0.057 0.012,0.113 0.018,0.17 -2.975,-1.814 -5.212,-4.827 -6.822,-8.071 3.12,13.014 3.988,28.759 15.072,38.046 8.525,19.485 22.379,35.632 37.356,35.177 19.669,16.372 34.507,31.446 65.596,31.446 31.088,0 45.926,-15.074 65.596,-31.446 13.783,0.419 26.615,-13.224 35.219,-30.589 5.838,-5.452 12.483,-15.096 14.174,-22.477 -2.327,2.116 -3.665,2.229 -6.182,3.485 5.81,-4.83 9.68,-14.52 9.88,-21.96 z"
         id="path11214"
         style="fill:url(#SVGID_7_)"
         inkscape:connector-curvature="0" /><linearGradient
         id="SVGID_8_"
         y2="406.29001"
         gradientUnits="userSpaceOnUse"
         x2="241.10001"
         y1="41.779999"
         x1="241.10001"><stop
           stop-color="#93AFC6"
           offset=".0114"
           id="stop11217" /><stop
           stop-color="#6B7A9A"
           offset="1"
           id="stop11219" /></linearGradient><path
         d="m 241.1,279.64 c -0.003,0.011 -0.007,0.023 -0.009,0.034 0.007,-0.006 0.014,-0.011 0.021,-0.018 -0.01,-0.17 -0.02,-0.18 -0.01,-0.01 z"
         id="path11221"
         style="fill:url(#SVGID_8_)"
         inkscape:connector-curvature="0" /></g><g
       id="g11223"
       style="opacity:0.6;fill:#4a5b77"><path
         d="m 223.78,231.74 c -5.672,-4.416 -11.785,-6.655 -18.17,-6.655 -5.558,0 -9.533,1.757 -10.377,2.162 3.889,9.657 8.449,26.43 4.528,56.954 5.657,-12.088 4.959,-35.082 5.813,-47.416 0.771,-11.143 5.2,-5.451 19.564,-3.986 l -1.35,-1.04 z"
         id="path11225"
         inkscape:connector-curvature="0" /><path
         d="m 225.04,227.54 c 0.204,1.112 0.323,2.251 0.353,3.383 l 0.048,1.902 c 1.235,0.119 2.549,0.204 3.933,0.247 -1.2,-2.14 -2.68,-4.04 -4.33,-5.53 z"
         id="path11227"
         inkscape:connector-curvature="0" /></g><path
       d="m 46.022,236.78 c 0.854,12.334 0.156,35.328 5.812,47.416 -3.912,-30.45 0.618,-47.216 4.5,-56.884 -0.163,-0.089 -4.206,-2.243 -10.176,-2.243 -4.878,0 -11.703,1.497 -18.953,7.641 13.767,-1.59 18.06,-6.88 18.817,4.06 z"
       id="path11229"
       inkscape:connector-curvature="0"
       style="opacity:0.6;fill:#4a5b77" /><path
       d="m 57.729,226.89 c 0,0 -0.099,0.2 -0.285,0.574 -0.181,0.358 -0.429,0.933 -0.75,1.649 -0.294,0.733 -0.678,1.613 -1.046,2.656 -0.399,1.029 -0.778,2.22 -1.204,3.515 -0.385,1.309 -0.827,2.722 -1.196,4.242 -0.187,0.761 -0.378,1.543 -0.575,2.341 -0.186,0.802 -0.335,1.629 -0.51,2.467 -0.372,1.671 -0.609,3.425 -0.895,5.2 -0.276,1.777 -0.422,3.602 -0.642,5.418 -0.116,1.826 -0.232,3.652 -0.347,5.45 -0.027,1.804 -0.054,3.578 -0.081,5.296 0.059,1.718 0.117,3.378 0.171,4.953 0.048,1.576 0.238,3.057 0.336,4.43 0.125,1.371 0.199,2.633 0.381,3.737 0.154,1.109 0.288,2.075 0.398,2.872 0.221,1.593 0.348,2.503 0.348,2.503 0,0 -0.157,-0.905 -0.432,-2.489 -0.138,-0.793 -0.305,-1.756 -0.497,-2.86 -0.22,-1.101 -0.338,-2.36 -0.509,-3.729 -0.146,-1.372 -0.387,-2.853 -0.489,-4.432 -0.108,-1.579 -0.223,-3.245 -0.34,-4.969 -0.033,-1.728 -0.066,-3.514 -0.1,-5.328 0.054,-1.816 0.108,-3.661 0.162,-5.506 0.159,-1.839 0.245,-3.688 0.462,-5.494 0.228,-1.805 0.408,-3.59 0.727,-5.297 0.148,-0.854 0.271,-1.7 0.433,-2.52 0.171,-0.818 0.339,-1.619 0.502,-2.398 0.323,-1.56 0.724,-3.016 1.072,-4.363 0.39,-1.338 0.736,-2.568 1.111,-3.642 0.342,-1.082 0.707,-2.007 0.986,-2.775 0.31,-0.763 0.542,-1.357 0.736,-1.775 0.186,-0.38 0.284,-0.6 0.284,-0.6 l 1.789,0.89 z"
       id="path11231"
       inkscape:connector-curvature="0"
       style="fill:#25363d" /><path
       d="m 195.57,226.31 c 0,0 0.097,0.215 0.275,0.617 0.189,0.417 0.416,1.008 0.716,1.768 0.272,0.765 0.624,1.687 0.955,2.763 0.363,1.067 0.691,2.293 1.07,3.623 0.326,1.343 0.722,2.787 1.021,4.34 0.156,0.774 0.316,1.569 0.479,2.383 0.133,0.818 0.268,1.654 0.405,2.505 0.305,1.695 0.459,3.469 0.677,5.26 0.191,1.795 0.273,3.629 0.416,5.454 0.039,1.832 0.105,3.662 0.117,5.463 -0.044,1.8 -0.088,3.571 -0.13,5.286 -0.124,1.709 -0.243,3.361 -0.356,4.928 -0.115,1.565 -0.351,3.034 -0.5,4.395 -0.172,1.358 -0.297,2.606 -0.515,3.699 -0.191,1.095 -0.358,2.05 -0.495,2.836 -0.274,1.571 -0.432,2.47 -0.432,2.47 0,0 0.126,-0.903 0.347,-2.483 0.109,-0.79 0.243,-1.748 0.396,-2.849 0.181,-1.096 0.263,-2.348 0.388,-3.707 0.103,-1.362 0.287,-2.831 0.349,-4.395 0.059,-1.562 0.121,-3.209 0.186,-4.914 -0.017,-1.703 -0.033,-3.464 -0.051,-5.253 -0.073,-1.787 -0.201,-3.6 -0.302,-5.41 -0.203,-1.805 -0.347,-3.613 -0.596,-5.38 -0.276,-1.764 -0.488,-3.507 -0.846,-5.167 -0.164,-0.832 -0.325,-1.65 -0.483,-2.452 -0.188,-0.794 -0.372,-1.57 -0.552,-2.326 -0.346,-1.515 -0.783,-2.917 -1.146,-4.22 -0.415,-1.287 -0.775,-2.473 -1.165,-3.497 -0.357,-1.037 -0.729,-1.913 -1.016,-2.643 -0.311,-0.714 -0.553,-1.285 -0.729,-1.642 -0.182,-0.372 -0.278,-0.57 -0.278,-0.57 l 1.78,-0.88 z"
       id="path11233"
       inkscape:connector-curvature="0"
       style="fill:#25363d" /><path
       d="m 68.389,189.62 0.33,-0.836 c 0.2,-0.531 0.539,-1.297 0.82,-2.198 0.313,-0.901 0.665,-1.964 0.973,-3.139 0.164,-0.583 0.344,-1.184 0.47,-1.807 0.14,-0.621 0.283,-1.252 0.425,-1.884 0.123,-0.634 0.214,-1.274 0.321,-1.903 0.116,-0.629 0.201,-1.25 0.24,-1.855 0.055,-0.606 0.108,-1.191 0.159,-1.747 v -1.569 c -0.01,-0.486 0.027,-0.939 -0.048,-1.328 -0.05,-0.393 -0.094,-0.736 -0.13,-1.019 -0.072,-0.568 -0.114,-0.893 -0.114,-0.893 0,0 0.072,0.318 0.198,0.876 0.063,0.28 0.14,0.621 0.229,1.011 0.113,0.39 0.12,0.842 0.177,1.332 0.047,0.493 0.098,1.026 0.152,1.59 0.003,0.566 0.006,1.163 0.009,1.781 0.019,0.621 -0.006,1.259 -0.062,1.905 -0.047,0.647 -0.079,1.309 -0.142,1.967 -0.083,0.656 -0.166,1.311 -0.248,1.956 -0.068,0.649 -0.193,1.277 -0.303,1.888 -0.199,1.223 -0.457,2.362 -0.696,3.342 -0.213,0.996 -0.469,1.755 -0.619,2.312 -0.158,0.55 -0.249,0.864 -0.249,0.864 l -1.892,-0.65 z"
       id="path11235"
       inkscape:connector-curvature="0"
       style="fill:#25363d" /><path
       d="m 183.22,196 c 0,0 -0.061,-0.295 -0.166,-0.811 -0.053,-0.258 -0.117,-0.571 -0.19,-0.931 -0.069,-0.363 -0.169,-0.756 -0.236,-1.216 -0.124,-0.918 -0.337,-1.984 -0.435,-3.123 -0.056,-0.569 -0.114,-1.156 -0.173,-1.753 -0.032,-0.598 -0.065,-1.205 -0.099,-1.812 -0.042,-0.606 -0.042,-1.213 -0.051,-1.81 -0.006,-0.596 -0.024,-1.182 -0.007,-1.749 0.014,-1.134 0.04,-2.188 0.083,-3.092 0.085,-1.805 0.142,-3.008 0.142,-3.008 0,0 0.068,1.202 0.171,3.005 0.051,0.901 0.134,1.95 0.237,3.069 0.04,0.561 0.119,1.136 0.186,1.722 0.07,0.585 0.132,1.179 0.235,1.768 0.094,0.589 0.188,1.177 0.279,1.757 0.118,0.574 0.233,1.138 0.346,1.685 0.21,1.096 0.518,2.075 0.722,2.93 0.106,0.424 0.252,0.824 0.356,1.172 0.11,0.35 0.207,0.655 0.286,0.906 0.158,0.502 0.249,0.79 0.249,0.79 l -1.93,0.5 z"
       id="path11237"
       inkscape:connector-curvature="0"
       style="fill:#25363d" /><path
       d="m 182.08,171.09 c 2.511,-4.375 4.995,-7.215 7.377,-8.965 -1.114,-2.736 -2.989,-5.473 -6.132,-7.312 -6.365,-3.726 -21.274,-5.615 -44.314,-5.615 -31.763,0 -68.789,3.702 -73.562,4.193 -2.314,4.18 -3.651,8.285 -4.011,12.272 4.249,0.399 10.47,2.679 14.393,12.537 6.333,15.918 25.303,26.366 50.818,26.366 25.515,0 44.76,-14.91 55.42,-33.48 z"
       id="path11239"
       inkscape:connector-curvature="0"
       style="opacity:0.6;fill:#4a5b77" /><path
       d="m 60.801,334.28 c 0,0 -0.275,-0.302 -0.755,-0.83 -0.236,-0.28 -0.543,-0.544 -0.854,-0.998 -0.315,-0.427 -0.669,-0.908 -1.057,-1.434 -0.326,-0.54 -0.68,-1.125 -1.054,-1.744 -0.345,-0.631 -0.672,-1.313 -1.028,-2.009 -0.306,-0.715 -0.623,-1.453 -0.944,-2.203 -0.273,-0.768 -0.583,-1.534 -0.832,-2.319 -0.245,-0.787 -0.513,-1.565 -0.713,-2.35 -0.222,-0.778 -0.423,-1.547 -0.593,-2.297 -0.363,-1.493 -0.624,-2.902 -0.839,-4.109 -0.407,-2.42 -0.547,-4.046 -0.547,-4.046 0,0 0.265,1.612 0.853,3.981 0.306,1.183 0.671,2.558 1.143,4.005 0.225,0.727 0.481,1.469 0.758,2.217 0.256,0.755 0.578,1.498 0.875,2.248 0.301,0.749 0.661,1.471 0.982,2.194 0.366,0.699 0.725,1.388 1.073,2.054 0.393,0.638 0.753,1.265 1.125,1.836 0.395,0.552 0.768,1.074 1.112,1.557 0.372,0.433 0.712,0.83 1.015,1.182 0.271,0.356 0.646,0.644 0.888,0.891 0.52,0.489 0.816,0.769 0.816,0.769 l -1.424,1.41 z"
       id="path11241"
       inkscape:connector-curvature="0"
       style="fill:#25363d" /><path
       d="m 190.02,332.88 c 0,0 0.297,-0.279 0.817,-0.769 0.241,-0.247 0.617,-0.534 0.888,-0.891 0.302,-0.352 0.643,-0.749 1.015,-1.182 0.344,-0.482 0.717,-1.005 1.111,-1.557 0.372,-0.571 0.732,-1.198 1.125,-1.836 0.348,-0.666 0.707,-1.354 1.072,-2.054 0.321,-0.723 0.682,-1.445 0.982,-2.194 0.297,-0.75 0.619,-1.493 0.875,-2.248 0.277,-0.748 0.533,-1.49 0.758,-2.217 0.473,-1.447 0.838,-2.822 1.144,-4.005 0.588,-2.369 0.853,-3.981 0.853,-3.981 0,0 -0.141,1.626 -0.547,4.046 -0.215,1.207 -0.476,2.616 -0.839,4.109 -0.171,0.75 -0.372,1.52 -0.593,2.297 -0.201,0.784 -0.469,1.562 -0.714,2.35 -0.248,0.785 -0.559,1.552 -0.832,2.319 -0.321,0.75 -0.638,1.489 -0.943,2.203 -0.356,0.695 -0.683,1.378 -1.028,2.009 -0.374,0.619 -0.728,1.204 -1.054,1.744 -0.388,0.525 -0.742,1.007 -1.057,1.434 -0.312,0.454 -0.619,0.718 -0.854,0.999 -0.48,0.527 -0.755,0.829 -0.755,0.829 l -1.42,-1.4 z"
       id="path11243"
       inkscape:connector-curvature="0"
       style="fill:#25363d" /><path
       d="m 82.833,204.44 -1.813,1.753 -1.675,1.87 -3.193,3.899 c -0.559,0.633 -1.102,1.279 -1.674,1.901 l -0.896,0.905 c -0.304,0.296 -0.585,0.615 -0.909,0.892 l -0.982,0.819 c -0.333,0.267 -0.646,0.56 -0.995,0.805 l -2.162,1.391 -0.338,-0.758 2.081,-0.694 c 0.701,-0.202 1.409,-0.379 2.113,-0.57 l 4.234,-0.945 c 0.693,-0.176 1.398,-0.318 2.081,-0.521 0.677,-0.215 1.375,-0.375 2.036,-0.636 l 0.996,-0.375 c 0.33,-0.13 0.67,-0.236 0.985,-0.401 l 1.93,-0.901 1.558,-0.727 -0.923,1.442 -0.882,1.379 -0.813,1.435 c -0.521,0.975 -1.037,1.962 -1.58,2.945 -0.288,0.485 -0.548,0.983 -0.86,1.458 -0.32,0.468 -0.604,0.959 -0.954,1.407 l -0.523,0.673 c -0.181,0.22 -0.335,0.461 -0.539,0.66 l -1.167,1.243 -0.496,-0.681 1.164,-0.471 c 0.39,-0.146 0.775,-0.326 1.168,-0.441 l 2.357,-0.689 2.343,-0.655 2.277,-0.781 0.586,-0.201 -0.208,0.566 -0.485,1.315 c -0.138,0.446 -0.248,0.9 -0.38,1.35 -0.065,0.225 -0.089,0.458 -0.136,0.688 l -0.124,0.691 c -0.057,0.464 -0.077,0.932 -0.118,1.4 0,0.468 0.021,0.938 0.03,1.409 l 0.179,1.402 0.301,1.386 0.41,1.363 -0.501,-1.336 c -0.137,-0.455 -0.262,-0.916 -0.388,-1.377 l -0.252,-1.413 c -0.034,-0.478 -0.078,-0.956 -0.103,-1.437 0.018,-0.479 0.015,-0.962 0.049,-1.442 l 0.092,-0.717 c 0.036,-0.237 0.049,-0.48 0.104,-0.715 0.109,-0.469 0.207,-0.943 0.337,-1.407 l 0.458,-1.371 0.377,0.364 -2.312,0.874 -2.334,0.731 -2.304,0.75 c -0.384,0.125 -0.732,0.307 -1.099,0.455 l -1.091,0.462 -1.834,0.775 1.339,-1.457 1.104,-1.201 c 0.194,-0.192 0.338,-0.426 0.509,-0.637 l 0.495,-0.649 c 0.332,-0.432 0.601,-0.911 0.904,-1.363 0.295,-0.459 0.546,-0.951 0.821,-1.426 0.522,-0.969 1.028,-1.96 1.546,-2.952 l 0.817,-1.478 0.902,-1.441 0.635,0.715 -1.993,0.938 c -0.328,0.166 -0.681,0.273 -1.024,0.404 l -1.034,0.378 c -0.687,0.262 -1.404,0.42 -2.104,0.634 -0.704,0.201 -1.418,0.338 -2.126,0.51 l -4.231,0.9 c -0.691,0.181 -1.387,0.347 -2.075,0.538 l -2.038,0.648 -3.395,1.08 3.057,-1.838 2.117,-1.272 c 0.345,-0.226 0.655,-0.502 0.985,-0.75 l 0.978,-0.766 c 0.323,-0.259 0.608,-0.564 0.915,-0.845 l 0.905,-0.86 c 0.583,-0.596 1.14,-1.221 1.712,-1.83 1.108,-1.256 2.239,-2.504 3.373,-3.748 l 1.781,-1.799 1.922,-1.56 z"
       id="path11245"
       inkscape:connector-curvature="0"
       style="fill:#25363d" /><path
       d="m 185.5,239.78 c 0.579,1.262 1.126,2.535 1.679,3.808 0.48,1.302 0.925,2.623 1.379,3.942 l 1.285,3.954 1.334,3.911 0.861,2.527 -1.705,-2.104 c -0.201,-0.248 -0.381,-0.506 -0.588,-0.753 l -0.668,-0.723 c -0.473,-0.466 -0.952,-0.928 -1.455,-1.375 l -1.514,-1.345 -0.761,-0.686 c -0.254,-0.223 -0.508,-0.487 -0.76,-0.737 l 0.782,-0.574 c 0.303,0.654 0.649,1.312 0.912,1.964 l 0.807,1.966 0.75,1.989 c 0.133,0.324 0.225,0.682 0.331,1.027 l 0.309,1.041 0.113,0.382 -0.438,0.072 -1.24,0.205 c -0.394,0.141 -0.798,0.261 -1.188,0.416 l -0.556,0.302 c -0.179,0.109 -0.385,0.181 -0.545,0.32 l -0.502,0.39 c -0.165,0.134 -0.348,0.248 -0.488,0.41 -0.286,0.314 -0.626,0.589 -0.876,0.939 -0.246,0.353 -0.54,0.678 -0.752,1.057 l -0.322,0.566 c -0.102,0.192 -0.23,0.373 -0.311,0.575 l -0.541,1.199 0.407,-1.257 c 0.061,-0.214 0.177,-0.403 0.263,-0.607 l 0.281,-0.604 c 0.185,-0.404 0.455,-0.762 0.682,-1.147 0.23,-0.385 0.557,-0.7 0.834,-1.056 0.288,-0.349 0.67,-0.605 1.004,-0.912 0.166,-0.157 0.38,-0.248 0.568,-0.376 l 0.586,-0.355 c 0.413,-0.19 0.846,-0.345 1.271,-0.518 l 1.344,-0.292 -0.324,0.454 c -0.24,-0.647 -0.438,-1.288 -0.705,-1.936 l -0.791,-1.944 -0.847,-1.922 c -0.27,-0.653 -0.59,-1.238 -0.881,-1.861 l -1.121,-2.405 1.903,1.831 c 0.232,0.224 0.447,0.448 0.705,0.671 l 0.754,0.668 c 0.51,0.442 1.021,0.895 1.522,1.356 0.506,0.458 0.998,0.94 1.485,1.43 l 0.704,0.775 c 0.226,0.273 0.438,0.57 0.65,0.858 l -0.844,0.423 -1.248,-3.993 -1.086,-4.016 c -0.381,-1.323 -0.771,-2.646 -1.125,-3.986 -0.4,-1.33 -0.86,-2.64 -1.28,-3.96 z"
       id="path11247"
       inkscape:connector-curvature="0"
       style="fill:#25363d" /><path
       d="m 24.167,275.11 c -0.595,-0.797 -1.169,-1.607 -1.75,-2.413 l -0.857,-1.223 -0.797,-1.271 -0.731,-1.319 c -0.213,-0.457 -0.438,-0.91 -0.641,-1.374 -0.175,-0.475 -0.37,-0.945 -0.524,-1.429 l -0.389,-1.476 -0.202,-0.766 0.756,0.236 0.788,0.247 c 0.261,0.086 0.532,0.158 0.784,0.257 l 1.479,0.651 c 0.956,0.473 1.912,0.908 2.849,1.352 l -0.68,0.567 c -0.327,-1.559 -0.549,-3.097 -0.67,-4.668 -0.055,-0.784 -0.097,-1.572 -0.068,-2.369 0.016,-0.398 0.046,-0.799 0.113,-1.205 0.059,-0.402 0.166,-0.818 0.381,-1.232 l 0.132,-0.254 0.289,0.104 c 0.269,0.098 0.537,0.226 0.809,0.283 0.136,0.042 0.271,0.074 0.405,0.083 0.136,0.023 0.268,0.032 0.394,0.015 0.262,-0.003 0.488,-0.106 0.694,-0.255 0.201,-0.157 0.379,-0.375 0.526,-0.623 0.299,-0.495 0.52,-1.066 0.764,-1.621 0.236,-0.561 0.507,-1.109 0.815,-1.633 -0.232,0.562 -0.417,1.137 -0.602,1.712 -0.186,0.576 -0.341,1.163 -0.611,1.739 -0.136,0.286 -0.307,0.575 -0.566,0.813 -0.263,0.227 -0.609,0.398 -0.955,0.427 -0.175,0.032 -0.344,0.032 -0.51,0.016 -0.171,-0.003 -0.332,-0.03 -0.489,-0.066 -0.326,-0.052 -0.617,-0.168 -0.923,-0.259 l 0.421,-0.149 c -0.12,0.286 -0.201,0.633 -0.228,1 -0.037,0.362 -0.042,0.739 -0.033,1.115 0.014,0.754 0.066,1.516 0.148,2.276 0.181,1.515 0.398,3.054 0.73,4.526 l 0.218,0.969 -0.897,-0.401 c -0.984,-0.44 -1.938,-0.914 -2.875,-1.383 l -1.417,-0.643 c -0.475,-0.183 -0.954,-0.338 -1.432,-0.511 l 0.554,-0.529 0.324,1.413 c 0.139,0.463 0.287,0.924 0.427,1.39 0.166,0.456 0.356,0.904 0.533,1.358 l 0.63,1.327 1.428,2.595 c 0.494,0.83 0.988,1.69 1.456,2.57 z"
       id="path11249"
       inkscape:connector-curvature="0"
       style="fill:#25363d" /><path
       d="m 216.17,283.11 c 0.507,-0.729 1.028,-1.448 1.535,-2.175 l 0.721,-1.113 c 0.233,-0.376 0.494,-0.73 0.703,-1.121 l 0.657,-1.148 c 0.216,-0.385 0.463,-0.751 0.647,-1.151 l 0.592,-1.181 c 0.188,-0.396 0.413,-0.776 0.565,-1.189 l 0.5,-1.218 c 0.155,-0.41 0.359,-0.801 0.474,-1.226 l 0.401,-1.25 c 0.127,-0.418 0.3,-0.823 0.39,-1.25 l 0.296,-1.276 c 0.092,-0.426 0.213,-0.847 0.28,-1.277 l 0.327,-2.593 0.745,0.423 c -0.67,0.5 -1.31,1.168 -2.02,1.774 -0.361,0.303 -0.737,0.602 -1.164,0.856 -0.212,0.127 -0.459,0.225 -0.688,0.334 -0.115,0.056 -0.259,0.072 -0.387,0.108 l -0.397,0.089 -1.177,0.264 0.735,-1.041 0.814,-1.151 0.732,-1.205 0.649,-1.255 0.566,-1.297 0.488,-1.332 0.417,-1.361 c 0.255,-0.916 0.498,-1.838 0.705,-2.772 0.421,-1.867 0.737,-3.767 1.125,-5.657 0.198,-0.944 0.41,-1.887 0.639,-2.824 0.228,-0.938 0.5,-1.865 0.792,-2.783 -0.405,1.885 -0.728,3.778 -0.98,5.686 -0.27,1.904 -0.525,3.813 -0.86,5.723 -0.171,0.954 -0.365,1.906 -0.603,2.853 l -0.408,1.407 -0.485,1.386 -0.569,1.358 c -0.22,0.439 -0.429,0.886 -0.659,1.32 l -0.749,1.273 -0.835,1.219 -0.441,-0.777 0.267,-0.071 c 0.089,-0.028 0.179,-0.028 0.268,-0.076 0.177,-0.094 0.358,-0.161 0.533,-0.271 0.35,-0.223 0.697,-0.475 1.036,-0.754 0.683,-0.562 1.312,-1.212 2.108,-1.793 l 0.896,-0.653 -0.151,1.076 -0.378,2.681 c -0.076,0.443 -0.207,0.877 -0.308,1.315 l -0.324,1.311 c -0.101,0.439 -0.282,0.854 -0.42,1.281 l -0.457,1.268 c -0.137,0.429 -0.362,0.821 -0.539,1.232 l -0.565,1.22 c -0.174,0.413 -0.418,0.791 -0.628,1.186 l -0.653,1.171 c -0.205,0.397 -0.471,0.758 -0.707,1.137 l -0.739,1.115 c -0.238,0.376 -0.529,0.719 -0.791,1.078 l -0.805,1.066 c -0.57,0.68 -1.16,1.35 -1.73,2.02 z"
       id="path11251"
       inkscape:connector-curvature="0"
       style="fill:#25363d" /><linearGradient
       id="SVGID_9_"
       y2="386.92999"
       gradientUnits="userSpaceOnUse"
       x2="126.42"
       y1="58.872002"
       x1="126.42"><stop
         stop-color="#93AFC6"
         offset=".0114"
         id="stop11254" /><stop
         stop-color="#6B7A9A"
         offset="1"
         id="stop11256" /></linearGradient><path
       stroke-miterlimit="10"
       d="m 126.42,190.9 c 30.978,0 42.986,-10.439 54.236,-28.291 22.05,-15.599 18.899,-22.459 18.899,-22.459 0,0 0.9,7.91 2.701,13.31 5.85,-5.4 7.199,-19.639 7.199,-19.639 0,0 3.6,14.239 6.301,8.82 2.699,-5.419 -4.051,-23.831 -4.051,-23.831 0,0 4.051,0.45 9.9,5.197 0,-5.153 -7.65,-13.747 -7.65,-13.747 h 5.85 c 0,0 -4.562,-9.374 -13.049,-14.4 -9.148,-5.417 -15.848,-6.144 -31.051,-12.15 -28.35,-13.05 -16.199,-43.65 -16.199,-63.45 0,-19.8 -33.087,-11.25 -33.087,-11.25 0,0 -33.09,-8.549 -33.09,11.251 0,19.8 12.15,50.4 -16.2,63.45 -15.204,6.006 -21.902,6.733 -31.05,12.15 -8.488,5.026 -13.05,14.4 -13.05,14.4 h 5.85 c 0,0 -7.65,8.594 -7.65,13.747 5.85,-4.747 9.9,-5.197 9.9,-5.197 0,0 -6.75,18.411 -4.05,23.831 2.7,5.419 6.3,-8.82 6.3,-8.82 0,0 1.35,14.239 7.2,19.639 1.8,-5.4 2.7,-13.31 2.7,-13.31 0,0 -3.15,6.86 18.9,22.459 11.25,17.85 23.259,28.29 54.24,28.29 z"
       id="path11258"
       style="fill:url(#SVGID_9_);stroke:#25363d;stroke-width:2;stroke-miterlimit:10"
       inkscape:connector-curvature="0" /><path
       d="m 128.31,170.43 c -12.753,0 -24.304,-5.442 -31.922,-20.995 5.502,4.483 9.418,1.101 9.418,1.101 -10.193,-11.729 -11.271,-21.503 -6.543,-36.505 1.768,4.073 5.635,8.384 7.326,11.968 -0.643,-7.896 1.85,-14.555 2.565,-22.246 1.828,6.909 6.001,14.463 7.869,20.912 -2.392,-11.749 3.562,-22.696 14.147,-29.238 -2.751,6.553 -6.239,13.612 -4.624,20.228 4.165,-6.552 8.597,-10.691 13.511,-16.135 -3.537,8.6 -0.217,17.151 -0.217,17.151 0,0 6.756,-3.499 9.334,-10.491 -0.016,-0.505 -0.029,-0.504 -0.042,0.002 4.252,12.577 -0.441,25.601 0.073,25.112 0,0 2.518,0.555 7.406,-3.667 1.189,14.111 -1.47,22.911 -14.717,30.683 2.951,-1.419 9.401,-2.847 11.67,-4.76 -4.38,8.61 -15.21,16.88 -25.26,16.88 z"
       id="path11260"
       inkscape:connector-curvature="0"
       style="opacity:0.6;fill:#4a5b77" /><linearGradient
       id="SVGID_10_"
       y2="153.58"
       gradientUnits="userSpaceOnUse"
       x2="137.85001"
       y1="111.52"
       x1="111.37"><stop
         stop-color="#728DB5"
         offset="0"
         id="stop11263" /><stop
         stop-color="#4D6993"
         offset="1"
         id="stop11265" /></linearGradient><path
       stroke-miterlimit="10"
       d="m 128.21,169.98 c -11.99,0 -22.847,-5.115 -30.007,-19.735 5.172,4.214 8.853,1.035 8.853,1.035 -9.582,-11.025 -10.594,-20.213 -6.15,-34.315 1.661,3.829 5.296,7.882 6.886,11.25 -0.604,-7.422 1.739,-13.681 2.411,-20.91 1.719,6.495 5.641,13.595 7.397,19.657 -2.249,-11.043 3.349,-21.334 13.298,-27.484 -2.586,6.16 -5.865,12.795 -4.346,19.014 3.916,-6.159 8.083,-10.05 12.701,-15.167 -3.325,8.084 -0.204,16.122 -0.204,16.122 0,0 6.351,-3.289 8.774,-9.862 -0.015,-0.475 -0.028,-0.474 -0.04,0.002 3.998,11.822 -0.414,24.064 0.07,23.605 0,0 2.365,0.521 6.961,-3.447 1.119,13.265 -1.381,21.536 -13.834,28.842 2.774,-1.334 8.837,-2.676 10.971,-4.475 -4.12,8.1 -14.31,15.88 -23.75,15.88 z"
       id="path11267"
       style="fill:url(#SVGID_10_);stroke:#223b60;stroke-miterlimit:10"
       inkscape:connector-curvature="0" /><path
       stroke-miterlimit="10"
       d="m 126.42,0.61 c 3.631,0 13.511,-1.5 13.511,6.556 0,4.544 -9.576,11.294 -13.511,11.294 -3.936,0 -13.512,-6.75 -13.512,-11.294 -0.01,-8.055 9.87,-6.556 13.51,-6.556 z"
       id="path11269"
       inkscape:connector-curvature="0"
       style="fill:#191e2d;stroke:#000000;stroke-miterlimit:10" /><path
       d="m 81.793,129.37 9.358,-10.082 c 0,0 -20.203,-11.998 -28.794,-29.349 -5.817,1.937 -10.192,3.444 -15.313,6.408 0.685,6.123 2.791,13.319 7.018,21.022 16.631,30.3 27.731,12 27.731,12 z"
       id="path11271"
       inkscape:connector-curvature="0"
       style="opacity:0.6;fill:#4a5b77" /><linearGradient
       id="SVGID_11_"
       y2="386.92999"
       gradientUnits="userSpaceOnUse"
       x2="67.258003"
       y1="58.872002"
       x1="67.258003"><stop
         stop-color="#93AFC6"
         offset=".0114"
         id="stop11274" /><stop
         stop-color="#6B7A9A"
         offset="1"
         id="stop11276" /></linearGradient><path
       d="m 70.558,156.29 c -6.9,-6.284 -19.801,-26.083 -23.7,-33.583 3,0.9 4.8,3.584 4.8,3.584 0,0 -8.399,-21.584 -9.6,-37.785 2.4,1.8 4.2,4.44 4.2,4.44 l -0.9,-17.04 10.95,26.4 1.35,-5.7 c 0,0 14.101,16.8 34.8,23.1"
       id="path11278"
       style="fill:url(#SVGID_11_)"
       inkscape:connector-curvature="0" /><path
       d="m 70.558,156.29 -1.837,-1.806 c -0.617,-0.597 -1.232,-1.196 -1.778,-1.863 -1.11,-1.309 -2.307,-2.569 -3.355,-3.931 l -1.605,-2.021 c -0.529,-0.679 -1.086,-1.338 -1.592,-2.034 l -3.084,-4.142 -2.987,-4.213 c -1.004,-1.399 -1.937,-2.849 -2.909,-4.272 -0.978,-1.419 -1.888,-2.888 -2.807,-4.349 -0.939,-1.444 -1.771,-2.983 -2.633,-4.49 v -10e-4 l -1.317,-2.373 2.492,0.954 0.805,0.308 c 0.274,0.095 0.532,0.215 0.774,0.362 0.246,0.14 0.5,0.271 0.738,0.42 l 0.683,0.49 c 0.235,0.155 0.427,0.355 0.642,0.533 0.215,0.178 0.412,0.372 0.603,0.572 0.197,0.193 0.384,0.399 0.562,0.613 0.188,0.215 0.345,0.418 0.538,0.688 l -1.763,0.919 c -0.583,-1.547 -1.145,-3.077 -1.675,-4.628 -0.526,-1.55 -1.076,-3.092 -1.556,-4.657 -0.481,-1.564 -1.021,-3.11 -1.454,-4.69 l -1.351,-4.724 -1.179,-4.775 c -0.186,-0.799 -0.417,-1.585 -0.554,-2.397 l -0.468,-2.42 -0.468,-2.42 C 41.845,95.141 41.749,94.321 41.655,93.5 l -0.592,-4.917 -0.304,-2.525 1.901,1.651 1.229,1.067 c 0.201,0.181 0.416,0.351 0.604,0.542 l 0.543,0.588 c 0.355,0.398 0.743,0.77 1.062,1.197 0.332,0.418 0.668,0.822 0.987,1.283 l -1.825,0.616 -0.9,-17.04 -0.307,-5.811 2.229,5.375 10.95,26.399 -1.897,0.153 1.35,-5.7 0.452,-1.908 1.287,1.496 10e-4,0.001 3.554,3.774 c 1.21,1.252 2.469,2.458 3.75,3.645 l 1.958,1.739 2.012,1.679 c 0.667,0.565 1.375,1.077 2.062,1.619 0.685,0.545 1.393,1.058 2.109,1.56 0.719,0.497 1.411,1.039 2.154,1.501 l 2.203,1.431 c 0.741,0.467 1.508,0.89 2.262,1.338 0.752,0.452 1.516,0.883 2.302,1.27 l 2.341,1.206 2.407,1.07 1.207,0.533 1.236,0.458 2.477,0.918 -2.522,-0.788 -1.264,-0.395 -1.236,-0.47 -2.474,-0.948 -2.417,-1.087 c -0.814,-0.349 -1.605,-0.742 -2.387,-1.157 -0.783,-0.411 -1.581,-0.798 -2.354,-1.23 l -2.301,-1.328 c -0.777,-0.428 -1.503,-0.937 -2.258,-1.402 -0.752,-0.47 -1.497,-0.952 -2.219,-1.467 -0.724,-0.512 -1.471,-0.995 -2.177,-1.531 l -2.132,-1.597 -2.083,-1.663 c -1.366,-1.137 -2.714,-2.299 -4.018,-3.513 -1.311,-1.216 -2.571,-2.454 -3.724,-3.88 l -10e-4,-10e-4 1.739,-0.413 -1.35,5.7 -0.712,3.008 -1.185,-2.855 -10.95,-26.399 1.922,-0.436 0.9,17.04 0.186,3.519 -2.011,-2.903 C 45.168,93.133 44.85,92.75 44.547,92.367 44.255,91.973 43.899,91.638 43.575,91.272 l -0.496,-0.539 c -0.17,-0.172 -0.36,-0.318 -0.538,-0.479 l -1.083,-0.946 1.597,-0.874 0.579,4.786 c 0.09,0.798 0.183,1.596 0.359,2.387 l 0.459,2.377 0.459,2.377 c 0.134,0.796 0.363,1.576 0.546,2.363 l 1.164,4.713 1.336,4.673 c 0.428,1.562 0.963,3.096 1.44,4.645 0.475,1.551 1.02,3.078 1.541,4.613 0.523,1.531 1.085,3.061 1.651,4.562 l 2.567,6.812 -4.33,-5.893 c -0.104,-0.142 -0.254,-0.344 -0.403,-0.509 -0.146,-0.176 -0.301,-0.347 -0.467,-0.508 -0.159,-0.168 -0.323,-0.33 -0.501,-0.476 -0.177,-0.145 -0.336,-0.317 -0.528,-0.439 l -0.554,-0.399 c -0.191,-0.119 -0.392,-0.219 -0.586,-0.331 -0.192,-0.121 -0.393,-0.214 -0.602,-0.282 l -0.615,-0.24 1.174,-1.419 v 0.001 l 1.212,2.237 c 0.388,0.753 0.804,1.496 1.239,2.233 0.866,1.472 1.677,2.977 2.576,4.435 0.891,1.461 1.742,2.95 2.667,4.391 l 2.751,4.343 2.853,4.278 c 0.468,0.72 0.986,1.401 1.477,2.104 l 1.493,2.094 c 0.976,1.415 2.085,2.709 3.126,4.076 0.509,0.692 1.092,1.323 1.678,1.952 l 1.742,1.94 z"
       id="path11280"
       inkscape:connector-curvature="0"
       style="fill:#25363d" /><path
       d="m 46.618,81.4 c 0.993,2.226 1.918,4.476 2.863,6.719 0.954,2.24 1.859,4.498 2.771,6.752 l 2.684,6.784 2.615,6.81 -1.799,0.104 1.941,-8.229 0.41,-1.74 1.261,1.297 c 0.535,0.55 1.132,1.118 1.721,1.66 l 1.804,1.617 c 1.218,1.064 2.475,2.086 3.76,3.072 1.29,0.98 2.592,1.945 3.928,2.862 1.334,0.92 2.703,1.79 4.085,2.639 2.772,1.685 5.644,3.211 8.613,4.544 1.484,0.667 2.983,1.312 4.519,1.869 0.765,0.29 1.539,0.552 2.317,0.803 0.773,0.275 1.562,0.497 2.345,0.749 -0.807,-0.146 -1.625,-0.256 -2.429,-0.434 -0.805,-0.173 -1.608,-0.358 -2.404,-0.572 -0.802,-0.194 -1.589,-0.441 -2.385,-0.667 -0.784,-0.255 -1.582,-0.482 -2.354,-0.778 -3.117,-1.111 -6.134,-2.503 -9.045,-4.088 -1.456,-0.794 -2.871,-1.66 -4.269,-2.552 -1.396,-0.895 -2.767,-1.832 -4.089,-2.833 -1.327,-0.996 -2.626,-2.03 -3.889,-3.11 -0.633,-0.538 -1.255,-1.09 -1.862,-1.661 -0.611,-0.575 -1.198,-1.142 -1.799,-1.773 l 1.671,-0.442 -2.021,8.21 -0.758,3.079 -1.042,-2.976 -2.41,-6.885 -2.34,-6.91 C 50.268,93.01 49.498,90.703 48.778,88.378 48.049,86.045 47.3,83.73 46.618,81.39 z"
       id="path11282"
       inkscape:connector-curvature="0"
       style="fill:#b8cedd" /><path
       d="m 73.558,152.11 c 0,0 0.364,-0.086 0.958,-0.288 0.601,-0.19 1.441,-0.502 2.42,-0.903 0.492,-0.196 1.009,-0.443 1.559,-0.686 0.546,-0.253 1.107,-0.55 1.69,-0.84 1.153,-0.615 2.349,-1.32 3.503,-2.092 0.598,-0.354 1.132,-0.805 1.705,-1.181 0.548,-0.416 1.087,-0.825 1.608,-1.221 0.508,-0.42 0.999,-0.826 1.464,-1.211 0.478,-0.376 0.881,-0.786 1.291,-1.13 0.389,-0.364 0.792,-0.662 1.097,-0.973 0.312,-0.306 0.601,-0.561 0.837,-0.774 0.477,-0.424 0.767,-0.659 0.767,-0.659 0,0 -0.152,0.333 -0.451,0.902 -0.152,0.283 -0.333,0.631 -0.561,1.017 -0.21,0.401 -0.513,0.803 -0.833,1.253 -0.328,0.443 -0.65,0.958 -1.088,1.417 -0.424,0.471 -0.846,0.999 -1.352,1.474 -0.517,0.463 -1.015,0.989 -1.592,1.439 -0.583,0.441 -1.154,0.923 -1.79,1.315 -0.628,0.401 -1.255,0.805 -1.917,1.127 -0.64,0.362 -1.319,0.621 -1.959,0.896 -0.646,0.267 -1.294,0.465 -1.909,0.64 -0.615,0.175 -1.206,0.304 -1.758,0.388 -0.544,0.112 -1.061,0.138 -1.508,0.179 -0.452,0.028 -0.845,0.031 -1.17,0.017 -0.652,-0.05 -1.011,-0.13 -1.011,-0.13 z"
       id="path11284"
       inkscape:connector-curvature="0"
       style="fill:#25363d" /><path
       d="m 109.58,90.186 c 0,0 -0.921,-9.297 -15.186,-3.681 -14.265,5.615 -6.814,15.124 -6.814,15.124 l 22,-11.444 z"
       id="path11286"
       inkscape:connector-curvature="0"
       style="opacity:0.6;fill:#4a5b77" /><path
       d="m 109.72,90.46 c -0.016,-0.01 -0.219,-0.141 -0.688,-0.356 -0.234,-0.101 -0.52,-0.222 -0.861,-0.335 -0.336,-0.126 -0.733,-0.227 -1.163,-0.34 -0.436,-0.096 -0.908,-0.204 -1.419,-0.265 -0.507,-0.091 -1.051,-0.109 -1.613,-0.156 -0.563,-0.013 -1.148,-0.025 -1.741,0.001 -0.591,0.052 -1.2,0.053 -1.797,0.159 -0.599,0.088 -1.204,0.152 -1.786,0.296 -0.583,0.133 -1.167,0.228 -1.711,0.403 -0.547,0.162 -1.083,0.302 -1.581,0.465 -0.494,0.179 -0.96,0.348 -1.391,0.503 -0.87,0.293 -1.549,0.653 -2.046,0.851 -0.491,0.215 -0.772,0.337 -0.772,0.337 0,0 0.274,-0.137 0.753,-0.376 0.487,-0.223 1.149,-0.619 2.006,-0.957 0.425,-0.179 0.885,-0.373 1.372,-0.577 0.493,-0.189 1.024,-0.358 1.569,-0.55 0.541,-0.206 1.125,-0.332 1.71,-0.497 0.583,-0.176 1.194,-0.273 1.801,-0.394 0.604,-0.138 1.226,-0.172 1.832,-0.256 0.608,-0.059 1.212,-0.077 1.796,-0.093 0.584,0.019 1.152,0.01 1.688,0.077 0.538,0.037 1.042,0.125 1.508,0.203 0.462,0.097 0.89,0.184 1.259,0.3 0.373,0.104 0.693,0.22 0.957,0.319 0.519,0.203 0.843,0.386 0.826,0.377 l -0.52,0.861 z"
       id="path11288"
       inkscape:connector-curvature="0"
       style="fill:#223b60" /><radialGradient
       id="SVGID_12_"
       gradientUnits="userSpaceOnUse"
       cy="96.906998"
       cx="98.634003"
       r="9.5445004"><stop
         stop-color="#FFEDA1"
         offset=".577"
         id="stop11291" /><stop
         stop-color="#FFED00"
         offset="1"
         id="stop11293" /></radialGradient><path
       stroke-miterlimit="10"
       d="m 109.65,90.03 c 1.677,3.237 -1.985,8.463 -8.181,11.674 -6.196,3.212 -12.578,3.191 -14.255,-0.045 0,0 2.82,-6.632 9.015,-9.843 6.19,-3.212 13.42,-1.787 13.42,-1.787 z"
       id="path11295"
       style="fill:url(#SVGID_12_);stroke:#25363d;stroke-miterlimit:10"
       inkscape:connector-curvature="0" /><linearGradient
       id="SVGID_13_"
       y2="386.92999"
       gradientUnits="userSpaceOnUse"
       x2="98.855003"
       y1="58.872002"
       x1="98.855003"><stop
         stop-color="#93AFC6"
         offset=".0114"
         id="stop11298" /><stop
         stop-color="#6B7A9A"
         offset="1"
         id="stop11300" /></linearGradient><path
       d="m 102.66,104.1 c 6.076,-3.433 8.715,-10.74 6.921,-13.914 0,0 0.289,1.311 -7.521,6.706 -7.81,5.395 -14.479,4.737 -14.479,4.737 1.791,3.17 9.002,5.9 15.079,2.47 z"
       stroke-miterlimit="10"
       id="path11302"
       style="fill:url(#SVGID_13_);stroke:#25363d;stroke-width:2;stroke-linejoin:bevel;stroke-miterlimit:10"
       inkscape:connector-curvature="0" /><path
       d="m 99.974,94.149 c 1.979,0 3.584,-1.604 3.584,-3.584 0,-0.229 -0.026,-0.452 -0.067,-0.669 -2.117,0.242 -4.54,0.806 -6.843,1.984 0.525,1.328 1.812,2.269 3.327,2.269 z"
       id="path11304"
       inkscape:connector-curvature="0"
       style="fill:#1d1d1b" /><path
       d="m 178.43,152.11 c 0,0 -0.358,0.083 -1.012,0.104 -0.325,0.015 -0.718,0.012 -1.17,-0.017 -0.447,-0.041 -0.964,-0.066 -1.508,-0.179 -0.552,-0.084 -1.143,-0.213 -1.758,-0.388 -0.614,-0.175 -1.264,-0.373 -1.909,-0.639 -0.641,-0.275 -1.319,-0.534 -1.959,-0.896 -0.662,-0.322 -1.289,-0.726 -1.918,-1.127 -0.636,-0.392 -1.206,-0.874 -1.79,-1.315 -0.577,-0.45 -1.075,-0.977 -1.592,-1.439 -0.507,-0.475 -0.929,-1.003 -1.353,-1.474 -0.438,-0.458 -0.761,-0.974 -1.088,-1.417 -0.319,-0.451 -0.622,-0.853 -0.833,-1.253 -0.228,-0.386 -0.409,-0.734 -0.561,-1.017 -0.299,-0.569 -0.451,-0.902 -0.451,-0.902 0,0 0.29,0.235 0.767,0.659 0.236,0.214 0.525,0.469 0.837,0.774 0.306,0.312 0.708,0.609 1.097,0.973 0.41,0.345 0.813,0.754 1.292,1.13 0.465,0.385 0.956,0.791 1.464,1.211 0.521,0.396 1.061,0.805 1.608,1.22 0.573,0.376 1.107,0.827 1.705,1.182 1.155,0.772 2.351,1.477 3.504,2.092 0.583,0.29 1.144,0.587 1.689,0.84 0.55,0.242 1.067,0.489 1.559,0.686 0.979,0.401 1.819,0.713 2.421,0.903 0.6,0.22 0.96,0.31 0.96,0.31 z"
       id="path11306"
       inkscape:connector-curvature="0"
       style="fill:#25363d" /><path
       d="m 146.11,90.186 c 0,0 2.114,-9.297 16.379,-3.681 14.265,5.615 5.623,15.124 5.623,15.124 l -22,-11.444 z"
       id="path11308"
       inkscape:connector-curvature="0"
       style="opacity:0.6;fill:#4a5b77" /><path
       d="m 145.29,89.599 c -0.018,0.008 0.308,-0.175 0.826,-0.377 0.263,-0.099 0.583,-0.215 0.956,-0.319 0.37,-0.116 0.797,-0.203 1.26,-0.3 0.466,-0.078 0.97,-0.166 1.508,-0.203 0.535,-0.067 1.103,-0.059 1.688,-0.077 0.583,0.016 1.188,0.034 1.796,0.093 0.605,0.084 1.227,0.118 1.831,0.256 0.607,0.121 1.219,0.218 1.802,0.394 0.585,0.165 1.17,0.291 1.71,0.497 0.545,0.192 1.077,0.361 1.569,0.55 0.487,0.205 0.947,0.398 1.372,0.577 0.856,0.338 1.519,0.734 2.006,0.957 0.479,0.239 0.753,0.376 0.753,0.376 0,0 -0.28,-0.123 -0.771,-0.337 -0.498,-0.198 -1.177,-0.558 -2.047,-0.851 -0.431,-0.156 -0.896,-0.325 -1.391,-0.503 -0.498,-0.163 -1.033,-0.303 -1.581,-0.464 -0.544,-0.176 -1.128,-0.271 -1.711,-0.404 -0.581,-0.144 -1.187,-0.208 -1.785,-0.296 -0.598,-0.105 -1.206,-0.107 -1.798,-0.159 -0.593,-0.026 -1.178,-0.014 -1.74,-0.001 -0.562,0.047 -1.106,0.065 -1.613,0.156 -0.512,0.061 -0.983,0.169 -1.419,0.265 -0.431,0.114 -0.827,0.214 -1.163,0.34 -0.342,0.113 -0.627,0.235 -0.86,0.336 -0.47,0.215 -0.673,0.347 -0.688,0.356 l -0.53,-0.862 z"
       id="path11310"
       inkscape:connector-curvature="0"
       style="fill:#223b60" /><radialGradient
       id="SVGID_14_"
       gradientUnits="userSpaceOnUse"
       cy="96.906998"
       cx="156.56"
       r="9.5445004"><stop
         stop-color="#FFEDA1"
         offset=".577"
         id="stop11313" /><stop
         stop-color="#FFED00"
         offset="1"
         id="stop11315" /></radialGradient><path
       stroke-miterlimit="10"
       d="m 145.55,90.03 c -1.678,3.237 1.984,8.463 8.18,11.674 6.197,3.212 12.578,3.191 14.256,-0.045 0,0 -2.82,-6.632 -9.016,-9.843 -6.196,-3.211 -13.42,-1.787 -13.42,-1.787 z"
       id="path11317"
       style="fill:url(#SVGID_14_);stroke:#25363d;stroke-miterlimit:10"
       inkscape:connector-curvature="0" /><linearGradient
       id="SVGID_15_"
       y2="386.94"
       gradientUnits="userSpaceOnUse"
       x2="156.28"
       y1="58.870998"
       x1="156.28"><stop
         stop-color="#93AFC6"
         offset=".0114"
         id="stop11320" /><stop
         stop-color="#6B7A9A"
         offset="1"
         id="stop11322" /></linearGradient><path
       d="m 151.73,103.99 c -6.076,-3.433 -7.813,-10.719 -6.021,-13.893 0,0 -0.38,1.401 7.431,6.796 7.81,5.395 14.391,4.647 14.391,4.647 -1.8,3.17 -9.73,5.88 -15.8,2.45 z"
       stroke-miterlimit="10"
       id="path11324"
       style="fill:url(#SVGID_15_);stroke:#25363d;stroke-width:2;stroke-linejoin:bevel;stroke-miterlimit:10"
       inkscape:connector-curvature="0" /><path
       d="m 155.31,94.149 c -1.979,0 -3.584,-1.604 -3.584,-3.584 0,-0.229 0.026,-0.452 0.066,-0.669 2.117,0.242 4.541,0.806 6.844,1.984 -0.53,1.328 -1.82,2.269 -3.33,2.269 z"
       id="path11326"
       inkscape:connector-curvature="0"
       style="fill:#1d1d1b" /><linearGradient
       id="SVGID_16_"
       y2="11.497"
       gradientUnits="userSpaceOnUse"
       x2="126.42"
       y1="0.3721"
       x1="126.42"><stop
         stop-color="#454C5E"
         offset="0"
         id="stop11329" /><stop
         stop-color="#454C5E"
         stop-opacity="0"
         offset="1"
         id="stop11331" /></linearGradient><path
       d="m 126.42,2.384 c 2.905,0 10.809,-1.199 10.809,5.245 0,3.635 -7.661,9.035 -10.809,9.035 -3.149,0 -10.81,-5.4 -10.81,-9.035 0,-6.444 7.9,-5.245 10.81,-5.245 z"
       id="path11333"
       style="fill:url(#SVGID_16_)"
       inkscape:connector-curvature="0" /><linearGradient
       id="SVGID_17_"
       y2="49.222"
       gradientUnits="userSpaceOnUse"
       x2="146.25"
       y1="49.222"
       x1="95.389"><stop
         stop-color="#B8CEDD"
         offset=".0048"
         id="stop11336" /><stop
         stop-color="#B8CEDD"
         stop-opacity="0"
         offset="1"
         id="stop11338" /></linearGradient><path
       d="m 126.52,22.573 c 9.84,0 15.983,-6.982 22.964,0 6.981,6.982 -0.899,56.4 -22.964,56.4 -22.065,0 -29.947,-49.417 -22.965,-56.4 6.98,-6.982 13.12,0 22.96,0 z"
       id="path11340"
       style="opacity:0.5;fill:url(#SVGID_17_)"
       inkscape:connector-curvature="0" /><g
       id="g11342"
       style="opacity:0.6;fill:#4a5b77"><path
         d="m 205.27,125.14 c -0.072,0.091 -0.149,0.178 -0.231,0.26 -0.004,10e-4 -0.007,0.003 -0.01,0.005 0.003,0.001 0.006,0 0.01,0.002 0.08,-0.08 0.16,-0.17 0.23,-0.26 z"
         id="path11344"
         inkscape:connector-curvature="0" /><path
         d="m 212.32,101.46 c -1.705,-1.751 -3.718,-3.462 -6.024,-4.829 -5.521,-3.269 -10.084,-4.787 -16.4,-6.887 -0.605,-0.202 -1.229,-0.41 -1.861,-0.622 -6.459,11.899 -13.497,23.065 -26.74,29.445 l 3.002,13.8 c 12.082,17.896 28.689,-0.399 40.736,-6.966 -0.477,-0.239 -1.576,0.536 -1.998,0.628 2.381,-4.529 3.57,-9.398 5.387,-14.159 1.35,-3.56 2.73,-7.01 3.89,-10.41 z"
         id="path11346"
         inkscape:connector-curvature="0" /></g><linearGradient
       id="SVGID_18_"
       y2="386.92999"
       gradientUnits="userSpaceOnUse"
       x2="183.83"
       y1="58.872002"
       x1="183.83"><stop
         stop-color="#93AFC6"
         offset=".0114"
         id="stop11349" /><stop
         stop-color="#6B7A9A"
         offset="1"
         id="stop11351" /></linearGradient><path
       d="m 180.53,156.29 c 1.828,-2.028 5.126,-5.983 5.126,-5.983 0,0 14.201,-15 17.801,-21.6 -6.601,4.841 -3.5,0.139 -1.646,-4.703 0.003,-0.009 0.003,-0.013 0.005,-0.022 6.817,-16.335 6.46,-29.489 7.214,-39.675 -0.26,4.212 -4.199,8.64 -4.199,8.64 l 0.9,-17.04 c 0,0 -7.32,15.586 -12.3,20.7 -4.981,5.114 -14.101,16.8 -34.802,23.1"
       id="path11353"
       style="fill:url(#SVGID_18_)"
       inkscape:connector-curvature="0" /><path
       d="m 180.53,156.29 2.809,-3.506 1.404,-1.753 c 0.453,-0.584 0.949,-1.175 1.448,-1.729 1.967,-2.251 3.896,-4.539 5.799,-6.842 0.964,-1.142 1.877,-2.323 2.816,-3.482 0.948,-1.154 1.826,-2.356 2.733,-3.536 0.449,-0.593 0.912,-1.178 1.323,-1.791 0.42,-0.609 0.845,-1.213 1.308,-1.79 l 0.666,-0.885 0.581,-0.917 1.161,-1.831 1.47,1.285 -0.002,0.001 c -0.801,0.583 -1.606,1.154 -2.535,1.676 -0.241,0.128 -0.489,0.254 -0.784,0.367 -0.163,0.055 -0.307,0.112 -0.532,0.148 -0.089,0.021 -0.223,0.035 -0.377,0.03 -0.12,0.008 -0.337,-0.03 -0.534,-0.108 -0.443,-0.151 -0.781,-0.712 -0.797,-0.974 -0.068,-0.316 -0.043,-0.513 -0.026,-0.694 0.044,-0.358 0.121,-0.632 0.203,-0.894 0.333,-1.029 0.738,-1.901 1.12,-2.798 l 0.569,-1.325 0.498,-1.228 0.041,-0.119 1.756,-4.693 0.439,-1.173 0.354,-1.201 0.703,-2.404 c 0.223,-0.804 0.493,-1.596 0.678,-2.41 l 0.537,-2.447 0.537,-2.447 0.394,-2.477 0.39,-2.478 0.276,-2.498 0.266,-2.499 0.184,-2.514 c 0.251,-3.349 0.394,-6.73 0.627,-10.123 l 1.995,0.135 -0.213,1.344 c -0.037,0.224 -0.066,0.451 -0.146,0.654 l -0.206,0.627 -0.208,0.626 c -0.061,0.214 -0.166,0.4 -0.253,0.599 l -0.548,1.171 -0.637,1.109 c -0.206,0.374 -0.46,0.712 -0.688,1.07 -0.227,0.358 -0.49,0.69 -0.739,1.033 -0.257,0.345 -0.513,0.661 -0.812,1.01 l -1.901,2.226 0.155,-2.943 0.9,-17.04 1.904,0.478 c -1.215,2.521 -2.431,5.018 -3.782,7.459 -0.646,1.233 -1.365,2.432 -2.049,3.647 -0.675,1.22 -1.453,2.391 -2.174,3.587 -0.727,1.194 -1.586,2.327 -2.372,3.491 -0.41,0.575 -0.913,1.107 -1.365,1.661 -0.47,0.555 -0.918,1.103 -1.415,1.575 l -2.902,2.975 c -0.98,0.991 -1.979,1.967 -3.001,2.92 -1.023,0.953 -2.078,1.871 -3.148,2.77 -1.09,0.876 -2.174,1.758 -3.313,2.566 -1.112,0.846 -2.297,1.589 -3.451,2.371 -1.203,0.708 -2.365,1.481 -3.605,2.12 l -1.837,0.996 -1.881,0.908 c -1.238,0.636 -2.547,1.122 -3.823,1.668 -1.285,0.528 -2.609,0.957 -3.91,1.438 l -3.977,1.222 3.908,-1.412 c 1.273,-0.544 2.568,-1.034 3.819,-1.621 1.243,-0.606 2.512,-1.152 3.72,-1.822 l 1.83,-0.967 1.781,-1.051 c 1.201,-0.675 2.322,-1.482 3.481,-2.222 1.111,-0.814 2.25,-1.586 3.313,-2.459 1.093,-0.835 2.127,-1.742 3.165,-2.641 1.02,-0.921 2.021,-1.86 2.993,-2.833 1.952,-1.94 3.765,-3.997 5.645,-6.065 0.488,-0.506 0.907,-1.039 1.322,-1.551 0.412,-0.527 0.86,-1.012 1.245,-1.571 0.74,-1.147 1.543,-2.24 2.233,-3.428 0.687,-1.19 1.424,-2.343 2.068,-3.562 0.652,-1.213 1.337,-2.404 1.955,-3.638 1.262,-2.447 2.534,-4.903 3.716,-7.38 l 2.169,-4.546 -0.265,5.024 -0.9,17.04 -1.746,-0.717 c 0.229,-0.269 0.486,-0.584 0.713,-0.891 0.229,-0.315 0.472,-0.62 0.68,-0.949 0.208,-0.328 0.445,-0.64 0.63,-0.979 l 0.577,-1.004 0.483,-1.037 c 0.076,-0.173 0.175,-0.343 0.222,-0.522 l 0.174,-0.531 0.177,-0.53 c 0.073,-0.176 0.09,-0.354 0.117,-0.531 l 0.176,-1.063 1.995,0.135 c -0.23,3.352 -0.372,6.727 -0.626,10.12 l -0.186,2.542 -0.271,2.542 -0.281,2.542 -0.397,2.531 -0.402,2.53 -0.55,2.505 -0.55,2.505 c -0.19,0.833 -0.466,1.646 -0.694,2.469 l -0.721,2.462 -0.363,1.23 -0.449,1.201 -1.798,4.805 0.041,-0.118 -0.003,0.011 -0.032,0.102 -0.008,0.021 -0.018,0.043 -0.034,0.087 -0.067,0.174 -0.138,0.346 -0.282,0.685 -0.578,1.346 c -0.379,0.883 -0.783,1.777 -1.045,2.594 -0.064,0.199 -0.111,0.397 -0.125,0.52 -0.012,0.057 0.001,0.108 -0.013,0.027 0.011,-0.017 -0.153,-0.367 -0.38,-0.422 -0.081,-0.042 -0.184,-0.04 -0.18,-0.046 -0.032,0 -0.046,0.008 -0.017,-0.002 0.016,0.003 0.099,-0.029 0.166,-0.05 0.157,-0.06 0.342,-0.152 0.529,-0.25 0.762,-0.427 1.545,-0.973 2.309,-1.532 l 0.001,-0.001 4.231,-3.032 -2.762,4.317 -1.251,1.955 -0.628,0.975 -0.68,0.911 c -0.883,1.231 -1.855,2.402 -2.849,3.53 -0.995,1.13 -1.963,2.285 -2.99,3.38 -1.021,1.103 -2.016,2.227 -3.058,3.307 -2.06,2.182 -4.138,4.34 -6.256,6.464 -0.539,0.524 -1.041,1.048 -1.545,1.615 l -1.517,1.656 -3.01,3.29 z"
       id="path11355"
       inkscape:connector-curvature="0"
       style="fill:#25363d" /><path
       d="m 204.49,80.772 c 0,0 -0.088,0.218 -0.251,0.626 -0.174,0.405 -0.383,1.018 -0.679,1.778 -0.302,0.761 -0.64,1.704 -1.104,2.752 -0.229,0.526 -0.474,1.087 -0.73,1.678 -0.283,0.58 -0.58,1.189 -0.891,1.826 -0.298,0.645 -0.682,1.276 -1.04,1.952 -0.364,0.674 -0.757,1.361 -1.204,2.042 -0.438,0.687 -0.89,1.392 -1.35,2.113 -0.506,0.691 -1.022,1.397 -1.548,2.116 -0.509,0.732 -1.116,1.405 -1.7,2.112 -0.603,0.69 -1.154,1.445 -1.834,2.089 -1.313,1.333 -2.622,2.717 -4.087,3.933 -0.729,0.61 -1.422,1.264 -2.181,1.83 -0.761,0.562 -1.519,1.122 -2.271,1.678 -0.377,0.277 -0.751,0.554 -1.124,0.829 -0.38,0.264 -0.784,0.488 -1.171,0.732 -0.781,0.477 -1.552,0.948 -2.311,1.412 -0.38,0.23 -0.756,0.458 -1.129,0.685 -0.39,0.197 -0.775,0.391 -1.157,0.584 -0.765,0.379 -1.513,0.751 -2.241,1.112 -1.431,0.773 -2.883,1.288 -4.198,1.809 -1.325,0.498 -2.505,1.034 -3.619,1.327 -1.102,0.319 -2.062,0.596 -2.854,0.825 -1.583,0.432 -2.488,0.678 -2.488,0.678 0,0 0.857,-0.383 2.356,-1.054 0.751,-0.322 1.663,-0.714 2.708,-1.163 0.529,-0.206 1.073,-0.47 1.637,-0.77 0.569,-0.284 1.168,-0.583 1.793,-0.894 1.245,-0.629 2.618,-1.251 3.979,-2.085 0.688,-0.398 1.396,-0.806 2.12,-1.224 0.363,-0.206 0.729,-0.415 1.1,-0.625 0.355,-0.234 0.714,-0.471 1.075,-0.71 1.428,-0.98 2.972,-1.891 4.386,-3.031 0.723,-0.548 1.452,-1.1 2.184,-1.654 0.729,-0.557 1.389,-1.203 2.09,-1.798 1.436,-1.159 2.715,-2.483 4.005,-3.757 0.662,-0.621 1.216,-1.333 1.828,-1.976 0.591,-0.664 1.207,-1.293 1.726,-1.985 0.542,-0.674 1.074,-1.338 1.595,-1.987 0.491,-0.673 0.973,-1.332 1.44,-1.973 0.481,-0.634 0.894,-1.288 1.306,-1.913 0.406,-0.629 0.837,-1.215 1.182,-1.819 0.723,-1.189 1.386,-2.285 1.935,-3.28 0.552,-0.998 1.032,-1.868 1.429,-2.584 0.39,-0.726 0.71,-1.285 0.94,-1.66 0.2,-0.4 0.32,-0.601 0.32,-0.601 z"
       id="path11357"
       inkscape:connector-curvature="0"
       style="fill:#b8cedd" /><path
       d="m 96.568,44.269 c 0,0 0.247,1.54 0.618,3.849 0.194,1.15 0.379,2.513 0.594,3.963 0.224,1.449 0.404,3.005 0.603,4.555 0.107,0.773 0.169,1.556 0.251,2.321 0.075,0.767 0.165,1.518 0.206,2.251 0.05,0.732 0.098,1.439 0.143,2.11 0.02,0.672 0.038,1.308 0.055,1.895 0.02,0.586 -0.017,1.125 -0.021,1.601 -0.002,0.476 -0.027,0.89 -0.066,1.231 -0.061,0.68 -0.096,1.068 -0.096,1.068 0,0 0.003,-0.39 0.01,-1.071 0.012,-0.34 0.004,-0.753 -0.032,-1.227 -0.035,-0.473 -0.041,-1.006 -0.107,-1.586 -0.063,-0.579 -0.132,-1.206 -0.205,-1.87 -0.099,-0.66 -0.202,-1.356 -0.31,-2.077 -0.098,-0.721 -0.248,-1.46 -0.383,-2.213 -0.143,-0.751 -0.266,-1.517 -0.434,-2.277 -0.321,-1.522 -0.623,-3.045 -0.96,-4.463 -0.328,-1.42 -0.617,-2.743 -0.904,-3.879 -0.554,-2.272 -0.924,-3.787 -0.924,-3.787 l 1.962,-0.394 z"
       id="path11359"
       inkscape:connector-curvature="0"
       style="fill:#25363d" /><path
       d="m 158.24,44.664 c 0,0 -0.37,1.515 -0.925,3.787 -0.286,1.137 -0.575,2.459 -0.903,3.879 -0.337,1.417 -0.639,2.941 -0.96,4.463 -0.167,0.76 -0.29,1.525 -0.433,2.277 -0.135,0.753 -0.285,1.492 -0.383,2.213 -0.107,0.72 -0.212,1.417 -0.31,2.077 -0.073,0.664 -0.142,1.291 -0.205,1.87 -0.066,0.58 -0.073,1.113 -0.107,1.586 -0.036,0.474 -0.044,0.886 -0.032,1.227 0.006,0.682 0.01,1.071 0.01,1.071 0,0 -0.035,-0.388 -0.096,-1.068 -0.039,-0.341 -0.064,-0.755 -0.066,-1.231 -0.004,-0.476 -0.04,-1.015 -0.021,-1.601 0.018,-0.586 0.036,-1.222 0.055,-1.895 0.046,-0.67 0.094,-1.378 0.144,-2.11 0.041,-0.734 0.131,-1.485 0.206,-2.251 0.082,-0.765 0.145,-1.548 0.251,-2.321 0.199,-1.55 0.379,-3.106 0.604,-4.555 0.214,-1.45 0.399,-2.813 0.593,-3.963 0.371,-2.309 0.618,-3.849 0.618,-3.849 l 1.95,0.394 z"
       id="path11361"
       inkscape:connector-curvature="0"
       style="fill:#25363d" /><path
       d="m 145.73,255.16 c 3.576,-1.64 10.208,-6.173 15.294,-7.683 -69.18,-0.763 -79.715,52.57 -80.88,89.718 0.285,0.354 8.581,-6.239 6.945,-2.999 -0.18,5.622 -1.051,11.208 -2.031,16.755 2.333,1.539 4.727,2.975 7.218,4.281 0.637,-1.236 1.26,-2.472 1.868,-3.722 0.447,1.797 0.849,3.538 1.228,5.25 8.553,3.975 18.343,6.419 30.723,6.419 23.962,0 38.234,-9.151 52.577,-20.852 -1.171,-4.801 -2.619,-9.561 -4.182,-14.214 2.38,4.052 4.929,7.766 7.32,11.621 1.367,-1.143 2.741,-2.302 4.132,-3.477 1.444,-1.22 2.916,-2.458 4.402,-3.7 1.84,-33.58 -8.39,-78.67 -44.61,-77.41 z"
       id="path11363"
       inkscape:connector-curvature="0"
       style="opacity:0.6;fill:#4a5b77" /><linearGradient
       id="SVGID_19_"
       y2="353.04001"
       gradientUnits="userSpaceOnUse"
       x2="130.42999"
       y1="381.70001"
       x1="128.42999"><stop
         stop-color="#4A5B77"
         offset="0"
         id="stop11366" /><stop
         stop-color="#2C3D56"
         offset="1"
         id="stop11368" /></linearGradient><path
       stroke-miterlimit="10"
       d="m 100.84,316.78 c -9.203,23.271 0.291,51.153 14.941,70.306 -1.57,-5.377 -2.662,-11.416 -1.874,-16.95 3.998,6.65 11.874,10.145 19.239,11.846 -1.861,-2.094 -2.886,-4.666 -4.605,-6.807 6.539,4.933 15.781,4.918 22.923,1.54 -2.134,-1.506 -4.034,-5.298 -5.571,-6.557 32.828,8.497 17.456,-56.359 -3.053,-65.044 l -42,11.66 z"
       id="path11370"
       style="fill:url(#SVGID_19_);stroke:#25363d;stroke-width:2;stroke-miterlimit:10"
       inkscape:connector-curvature="0" /><linearGradient
       id="SVGID_20_"
       y2="406.29001"
       gradientUnits="userSpaceOnUse"
       x2="135.35001"
       y1="41.779999"
       x1="135.35001"><stop
         stop-color="#93AFC6"
         offset=".0114"
         id="stop11373" /><stop
         stop-color="#6B7A9A"
         offset="1"
         id="stop11375" /></linearGradient><path
       stroke-miterlimit="10"
       d="m 157.3,243.1 c -4.347,1.291 -10.015,5.165 -13.071,6.566 37.332,-1.308 42.355,55.03 35.957,82.211 -0.006,0.493 0,0.492 0.02,-0.002 -2.967,-7.544 -7.459,-13.15 -11.396,-19.854 6.192,18.44 10.315,38.823 -1.822,55.74 -0.441,-10.297 -3.051,-20.803 -10.032,-27.926 -2.625,15.175 3.307,27.577 14.495,37.709 -13.649,-6.823 -25.352,-17.412 -33.16,-30.391 3.658,9.971 -1.451,22.016 -2.938,34.963 -4.847,-14.667 -8.01,-19.635 -14.381,-29.6 -7.133,3.933 -10.317,10.258 -11.799,19.6 -4.783,-14.406 -5.376,-25.404 -9.035,-40.099 -2.965,6.099 -6.299,11.765 -10.497,19.661 0.239,-11.275 4.093,-22.778 4.467,-34.46 1.397,-2.77 -5.692,2.865 -5.936,2.563 0.99,-31.75 9.994,-77.33 69.126,-76.68 z"
       id="path11377"
       style="fill:url(#SVGID_20_);stroke:#25363d;stroke-width:2;stroke-miterlimit:10"
       inkscape:connector-curvature="0" /><g
       id="g11379"
       style="fill:#b8cedd"><path
         d="m 146.12,247.54 c 0.516,-0.288 1.049,-0.591 1.603,-0.906 1.438,-0.821 2.969,-1.694 4.498,-2.477 -23.285,0.852 -40.313,9.583 -50.647,25.986 -3.962,6.29 -6.951,13.671 -9.017,22.246 6.183,-21.68 20.587,-41.55 53.567,-44.85 z"
         id="path11381"
         inkscape:connector-curvature="0" /><path
         d="m 135.35,253.74 c 22.82,-2.975 37.195,11.839 42.553,28.093 -2.491,-8.629 -5.532,-15.849 -9.224,-19.762 -13.009,-13.789 -24.509,-11.092 -28.279,-11.092 -1.96,1.1 -3.74,2.16 -5.05,2.76 z"
         id="path11383"
         inkscape:connector-curvature="0" /></g><linearGradient
       id="SVGID_21_"
       y2="389.60999"
       gradientUnits="userSpaceOnUse"
       x2="142.24001"
       y1="274.73001"
       x1="134.58"><stop
         stop-color="#B8CEDD"
         stop-opacity="0"
         offset="0"
         id="stop11386" /><stop
         stop-color="#B8CEDD"
         offset="1"
         id="stop11388" /></linearGradient><path
       d="m 136.48,261.07 c -18,-1.333 -29.241,32.612 -33.575,50.665 4.146,-3.516 10.792,-5.197 14.526,-7.859 -5.348,11.351 -6.591,24.153 -3.798,36.362 2.056,-6.296 6.676,-11.388 9.065,-17.108 -0.439,6.741 1.972,14.838 2.005,20.577 2.625,-6.706 8.53,-12.085 12.13,-17.996 0.664,4.557 3.855,10.479 4.133,15.876 3.832,-9.847 7.507,-21.062 14.42,-27.708 1.188,1.782 0.993,4.273 2.079,5.994 3.744,-8.53 3.817,-18.803 3.469,-28.664 2.692,1.835 6.083,3.218 9.098,5.849 0.95,-15.22 -15.55,-34.65 -33.55,-35.99 z"
       id="path11390"
       style="fill:url(#SVGID_21_)"
       inkscape:connector-curvature="0" /><path
       d="m 117.5,277.11 -2.584,3.772 -2.325,3.922 -2.082,4.054 -1.853,4.161 -1.62,4.255 -1.412,4.328 -1.226,4.384 -1.029,4.434 -0.768,-0.44 0.754,-0.617 c 0.255,-0.198 0.495,-0.429 0.764,-0.6 0.53,-0.358 1.05,-0.741 1.589,-1.08 1.076,-0.683 2.162,-1.334 3.246,-1.979 1.083,-0.646 2.157,-1.292 3.208,-1.966 0.515,-0.349 1.018,-0.711 1.527,-1.064 0.484,-0.38 0.943,-0.783 1.418,-1.173 l 1.302,-1.069 -0.53,1.573 -1.533,4.554 -1.32,4.62 -1.107,4.677 -0.894,4.724 -0.636,4.767 -0.37,4.797 -0.085,4.815 0.232,4.818 -0.464,-4.81 -0.107,-4.837 c 0.062,-1.611 0.135,-3.225 0.225,-4.837 l 0.523,-4.816 0.785,-4.782 1.055,-4.731 1.294,-4.671 1.509,-4.606 0.772,0.504 c -0.496,0.417 -0.983,0.85 -1.489,1.252 -0.523,0.371 -1.042,0.751 -1.569,1.113 -1.071,0.695 -2.147,1.371 -3.243,2.002 -1.09,0.637 -2.174,1.275 -3.234,1.937 -0.533,0.328 -1.033,0.691 -1.551,1.035 -0.266,0.166 -0.484,0.377 -0.729,0.562 l -0.716,0.575 -1.083,0.871 0.315,-1.311 1.073,-4.465 1.272,-4.412 1.504,-4.339 1.737,-4.25 1.968,-4.146 2.227,-4.011 2.494,-3.85 2.77,-3.62 z"
       id="path11392"
       inkscape:connector-curvature="0"
       style="fill:#25363d" /><path
       d="m 159.5,270.44 c 0.587,1.011 1.187,2.015 1.764,3.03 0.527,1.044 1.071,2.083 1.587,3.136 0.474,1.07 0.962,2.136 1.424,3.214 0.417,1.095 0.854,2.184 1.254,3.286 l 1.064,3.356 0.881,3.411 0.682,3.461 0.463,3.501 0.13,0.981 -0.794,-0.637 -3.219,-2.58 -3.347,-2.391 0.692,-0.371 -0.066,3.902 -0.243,3.896 -0.419,3.882 -0.596,3.858 -0.795,3.823 -0.968,3.781 -1.139,3.734 -1.305,3.678 -0.624,1.758 -0.239,-1.888 -0.31,-2.444 c -0.025,-0.413 -0.173,-0.803 -0.268,-1.202 l -0.316,-1.193 c -0.094,-0.398 -0.261,-0.791 -0.388,-1.188 l -0.403,-1.187 -0.745,-2.437 0.761,-0.055 -0.562,3.266 -0.808,3.209 -1.039,3.139 c -0.419,1.02 -0.825,2.043 -1.254,3.056 -0.49,0.985 -0.969,1.976 -1.469,2.953 l -1.642,2.856 -1.797,2.756 -1.949,2.647 1.821,-2.732 1.693,-2.808 1.533,-2.895 c 0.462,-0.988 0.902,-1.986 1.354,-2.978 l 1.175,-3.048 0.96,-3.118 0.728,-3.178 0.483,-3.22 0.244,-1.623 0.517,1.568 0.778,2.365 0.425,1.191 c 0.131,0.402 0.298,0.784 0.4,1.203 l 0.339,1.238 c 0.102,0.416 0.256,0.82 0.287,1.25 l 0.341,2.551 -0.862,-0.13 1.266,-3.648 1.1,-3.701 0.932,-3.746 0.762,-3.784 0.615,-3.811 0.441,-3.835 0.268,-3.853 0.092,-3.86 0.021,-0.858 0.672,0.487 3.379,2.449 3.214,2.643 -0.664,0.345 -0.384,-3.459 -0.601,-3.433 -0.801,-3.396 -0.985,-3.35 -1.142,-3.303 c -0.422,-1.085 -0.871,-2.161 -1.306,-3.244 -0.477,-1.062 -0.98,-2.114 -1.471,-3.174 l -1.58,-3.13 z"
       id="path11394"
       inkscape:connector-curvature="0"
       style="fill:#25363d" /></g></svg>